<?xml version="1.0" encoding="utf-8"?>
<!-- Generator: Adobe Illustrator 27.0.1, SVG Export Plug-In . SVG Version: 6.00 Build 0)  -->
<svg version="1.1" id="Layer_1" xmlns="http://www.w3.org/2000/svg" xmlns:xlink="http://www.w3.org/1999/xlink" x="0px" y="0px"
	 viewBox="0 0 22.4 27.2" style="enable-background:new 0 0 22.4 27.2;" xml:space="preserve">
<style type="text/css">
	.st0{fill:#1056FB;}
</style>
<path class="st0" d="M20.7,10.5L5.9,0.7C4.8-0.2,3.3-0.2,2,0.5C0.8,1.1,0,2.4,0,3.8v19.7c0,1.4,0.8,2.7,2,3.3
	c0.5,0.3,1.1,0.4,1.8,0.4c0.7,0,1.5-0.2,2.1-0.6l14.9-9.8c1.7-1.1,2.2-3.5,1.1-5.2C21.5,11.1,21.2,10.8,20.7,10.5L20.7,10.5z
	 M3.8,23.5L3.9,3.8l14.8,9.9L3.8,23.5z"/>
</svg>
