<svg width="590" height="278" viewBox="0 0 590 278" fill="none" xmlns="http://www.w3.org/2000/svg">
<rect width="395" height="86" transform="translate(0 0.00976562)" fill="white"/>
<path d="M27.252 21.3535H44.0391C47.3203 21.3535 50.1719 21.8418 52.5938 22.8184C55.0156 23.7949 56.8809 25.2402 58.1895 27.1543C59.5176 29.0684 60.1816 31.4316 60.1816 34.2441C60.1816 36.6855 59.8008 38.7266 59.0391 40.3672C58.2773 42.0078 57.2129 43.3652 55.8457 44.4395C54.498 45.4941 52.9258 46.3633 51.1289 47.0469L47.7598 48.9512H33.668L33.6094 41.0117H44.0391C45.3477 41.0117 46.4316 40.7773 47.291 40.3086C48.1504 39.8398 48.7949 39.1758 49.2246 38.3164C49.6738 37.4375 49.8984 36.3926 49.8984 35.1816C49.8984 33.9512 49.6738 32.8965 49.2246 32.0176C48.7754 31.1387 48.1113 30.4648 47.2324 29.9961C46.373 29.5273 45.3086 29.293 44.0391 29.293H37.5352V64.0098H27.252V21.3535ZM50.6016 64.0098L41.168 45.1426L52.0664 45.084L61.6172 63.5703V64.0098H50.6016ZM81.8754 64.5957C79.2973 64.5957 76.9926 64.1953 74.9613 63.3945C72.9301 62.5742 71.2113 61.4512 69.8051 60.0254C68.4184 58.5996 67.3539 56.959 66.6117 55.1035C65.8891 53.248 65.5277 51.2852 65.5277 49.2148V48.1016C65.5277 45.7773 65.85 43.6289 66.4945 41.6562C67.1391 39.6641 68.0961 37.9258 69.3656 36.4414C70.6352 34.957 72.227 33.8047 74.141 32.9844C76.0551 32.1445 78.2816 31.7246 80.8207 31.7246C83.0668 31.7246 85.0785 32.0859 86.8559 32.8086C88.6332 33.5312 90.1371 34.5664 91.3676 35.9141C92.6176 37.2617 93.5648 38.8926 94.2094 40.8066C94.8734 42.7207 95.2055 44.8691 95.2055 47.252V51.2656H69.307V45.084H85.5668V44.3223C85.5863 43.2676 85.4008 42.3691 85.0102 41.627C84.6391 40.8848 84.0922 40.3184 83.3695 39.9277C82.6469 39.5371 81.768 39.3418 80.7328 39.3418C79.6586 39.3418 78.7699 39.5762 78.0668 40.0449C77.3832 40.5137 76.8461 41.1582 76.4555 41.9785C76.0844 42.7793 75.8207 43.707 75.6645 44.7617C75.5082 45.8164 75.4301 46.9297 75.4301 48.1016V49.2148C75.4301 50.3867 75.5863 51.4512 75.8988 52.4082C76.2309 53.3652 76.6996 54.1855 77.3051 54.8691C77.9301 55.5332 78.6723 56.0508 79.5316 56.4219C80.4105 56.793 81.4066 56.9785 82.5199 56.9785C83.8676 56.9785 85.1957 56.7246 86.5043 56.2168C87.8129 55.709 88.9359 54.8691 89.8734 53.6973L94.3559 59.0293C93.7113 59.9473 92.7934 60.8359 91.602 61.6953C90.4301 62.5547 89.0238 63.2578 87.3832 63.8047C85.7426 64.332 83.9066 64.5957 81.8754 64.5957ZM116.518 32.3105V39.166H97.4168V32.3105H116.518ZM101.43 24.4297H111.304V53.668C111.304 54.5078 111.401 55.1621 111.596 55.6309C111.792 56.0801 112.124 56.4023 112.593 56.5977C113.081 56.7734 113.725 56.8613 114.526 56.8613C115.093 56.8613 115.561 56.8516 115.932 56.832C116.304 56.793 116.655 56.7441 116.987 56.6855V63.7461C116.147 64.0195 115.268 64.2246 114.35 64.3613C113.432 64.5176 112.456 64.5957 111.421 64.5957C109.311 64.5957 107.505 64.2637 106.001 63.5996C104.516 62.9355 103.384 61.8906 102.602 60.4648C101.821 59.0391 101.43 57.1836 101.43 54.8984V24.4297ZM137.509 56.041V42.9746C137.509 42.0762 137.382 41.3047 137.128 40.6602C136.874 40.0156 136.474 39.5176 135.927 39.166C135.38 38.7949 134.648 38.6094 133.73 38.6094C132.988 38.6094 132.353 38.7363 131.825 38.9902C131.298 39.2441 130.898 39.625 130.624 40.1328C130.351 40.6406 130.214 41.2852 130.214 42.0664H120.341C120.341 40.6016 120.663 39.2441 121.308 37.9941C121.972 36.7246 122.909 35.6211 124.12 34.6836C125.351 33.7461 126.816 33.0234 128.515 32.5156C130.234 31.9883 132.148 31.7246 134.257 31.7246C136.777 31.7246 139.023 32.1445 140.995 32.9844C142.988 33.8242 144.56 35.084 145.712 36.7637C146.864 38.4238 147.441 40.5137 147.441 43.0332V56.0117C147.441 58.082 147.558 59.6543 147.792 60.7285C148.027 61.7832 148.359 62.7109 148.788 63.5117V64.0098H138.886C138.417 63.0332 138.066 61.8418 137.831 60.4355C137.616 59.0098 137.509 57.5449 137.509 56.041ZM138.71 44.6445L138.769 49.918H134.404C133.486 49.918 132.704 50.0449 132.06 50.2988C131.435 50.5527 130.927 50.9043 130.536 51.3535C130.165 51.7832 129.892 52.2715 129.716 52.8184C129.56 53.3652 129.482 53.9414 129.482 54.5469C129.482 55.1328 129.618 55.6602 129.892 56.1289C130.185 56.5781 130.575 56.9297 131.064 57.1836C131.552 57.4375 132.099 57.5645 132.704 57.5645C133.798 57.5645 134.726 57.3594 135.488 56.9492C136.269 56.5195 136.864 56.002 137.275 55.3965C137.685 54.791 137.89 54.2246 137.89 53.6973L140.058 57.7402C139.667 58.5215 139.218 59.3125 138.71 60.1133C138.222 60.9141 137.607 61.6562 136.864 62.3398C136.142 63.0039 135.253 63.5508 134.198 63.9805C133.144 64.3906 131.864 64.5957 130.361 64.5957C128.407 64.5957 126.611 64.1953 124.97 63.3945C123.349 62.5938 122.05 61.4805 121.073 60.0547C120.097 58.6094 119.609 56.9492 119.609 55.0742C119.609 53.4336 119.902 51.9688 120.488 50.6797C121.093 49.3906 122.001 48.2969 123.212 47.3984C124.423 46.5 125.966 45.8164 127.841 45.3477C129.716 44.8789 131.923 44.6445 134.462 44.6445H138.71ZM163.949 32.3105V64.0098H154.046V32.3105H163.949ZM153.461 24.1367C153.461 22.7305 153.968 21.5781 154.984 20.6797C156 19.7812 157.318 19.332 158.939 19.332C160.56 19.332 161.879 19.7812 162.894 20.6797C163.91 21.5781 164.418 22.7305 164.418 24.1367C164.418 25.543 163.91 26.6953 162.894 27.5938C161.879 28.4922 160.56 28.9414 158.939 28.9414C157.318 28.9414 156 28.4922 154.984 27.5938C153.968 26.6953 153.461 25.543 153.461 24.1367ZM181.072 19.0098V64.0098H171.17V19.0098H181.072ZM208.874 21.3535H217.253L226.774 51.0312L236.296 21.3535H244.675L230.173 64.0098H223.376L208.874 21.3535ZM203.776 21.3535H212.448L214.059 54.0488V64.0098H203.776V21.3535ZM241.1 21.3535H249.802V64.0098H239.489V54.0488L241.1 21.3535ZM271.876 64.5957C269.298 64.5957 266.993 64.1953 264.962 63.3945C262.931 62.5742 261.212 61.4512 259.806 60.0254C258.419 58.5996 257.355 56.959 256.613 55.1035C255.89 53.248 255.529 51.2852 255.529 49.2148V48.1016C255.529 45.7773 255.851 43.6289 256.495 41.6562C257.14 39.6641 258.097 37.9258 259.366 36.4414C260.636 34.957 262.228 33.8047 264.142 32.9844C266.056 32.1445 268.282 31.7246 270.821 31.7246C273.068 31.7246 275.079 32.0859 276.857 32.8086C278.634 33.5312 280.138 34.5664 281.368 35.9141C282.618 37.2617 283.566 38.8926 284.21 40.8066C284.874 42.7207 285.206 44.8691 285.206 47.252V51.2656H259.308V45.084H275.568V44.3223C275.587 43.2676 275.402 42.3691 275.011 41.627C274.64 40.8848 274.093 40.3184 273.37 39.9277C272.648 39.5371 271.769 39.3418 270.734 39.3418C269.659 39.3418 268.771 39.5762 268.068 40.0449C267.384 40.5137 266.847 41.1582 266.456 41.9785C266.085 42.7793 265.821 43.707 265.665 44.7617C265.509 45.8164 265.431 46.9297 265.431 48.1016V49.2148C265.431 50.3867 265.587 51.4512 265.9 52.4082C266.232 53.3652 266.7 54.1855 267.306 54.8691C267.931 55.5332 268.673 56.0508 269.532 56.4219C270.411 56.793 271.407 56.9785 272.521 56.9785C273.868 56.9785 275.196 56.7246 276.505 56.2168C277.814 55.709 278.937 54.8691 279.874 53.6973L284.357 59.0293C283.712 59.9473 282.794 60.8359 281.603 61.6953C280.431 62.5547 279.025 63.2578 277.384 63.8047C275.743 64.332 273.907 64.5957 271.876 64.5957ZM308.043 56.7441V19.0098H317.974V64.0098H309.068L308.043 56.7441ZM288.589 48.541V47.9258C288.589 45.5234 288.853 43.3359 289.38 41.3633C289.908 39.3711 290.689 37.6621 291.724 36.2363C292.759 34.791 294.048 33.6777 295.591 32.8965C297.134 32.1152 298.912 31.7246 300.923 31.7246C302.72 31.7246 304.293 32.1445 305.64 32.9844C306.988 33.8047 308.14 34.957 309.097 36.4414C310.054 37.9258 310.836 39.6641 311.441 41.6562C312.046 43.6289 312.505 45.7578 312.818 48.043V48.7754C312.505 50.9238 312.046 52.9551 311.441 54.8691C310.836 56.7637 310.054 58.4434 309.097 59.9082C308.14 61.373 306.978 62.5254 305.611 63.3652C304.263 64.1855 302.681 64.5957 300.865 64.5957C298.853 64.5957 297.076 64.1953 295.533 63.3945C294.009 62.5938 292.73 61.4707 291.695 60.0254C290.679 58.5801 289.908 56.8809 289.38 54.9277C288.853 52.9746 288.589 50.8457 288.589 48.541ZM298.462 47.9258V48.541C298.462 49.7324 298.541 50.8359 298.697 51.8516C298.853 52.8672 299.117 53.7656 299.488 54.5469C299.879 55.3086 300.386 55.9043 301.011 56.334C301.656 56.7637 302.447 56.9785 303.384 56.9785C304.654 56.9785 305.699 56.6758 306.519 56.0703C307.359 55.4648 307.974 54.6055 308.365 53.4922C308.775 52.3789 308.951 51.0703 308.892 49.5664V47.252C308.931 45.9629 308.843 44.8301 308.629 43.8535C308.414 42.8574 308.072 42.0273 307.603 41.3633C307.154 40.6992 306.578 40.2012 305.875 39.8691C305.191 39.5176 304.38 39.3418 303.443 39.3418C302.525 39.3418 301.744 39.5566 301.099 39.9863C300.474 40.416 299.966 41.0215 299.576 41.8027C299.185 42.5645 298.902 43.4727 298.726 44.5273C298.55 45.5625 298.462 46.6953 298.462 47.9258ZM334.6 32.3105V64.0098H324.697V32.3105H334.6ZM324.111 24.1367C324.111 22.7305 324.619 21.5781 325.635 20.6797C326.65 19.7812 327.969 19.332 329.59 19.332C331.211 19.332 332.529 19.7812 333.545 20.6797C334.561 21.5781 335.068 22.7305 335.068 24.1367C335.068 25.543 334.561 26.6953 333.545 27.5938C332.529 28.4922 331.211 28.9414 329.59 28.9414C327.969 28.9414 326.65 28.4922 325.635 27.5938C324.619 26.6953 324.111 25.543 324.111 24.1367ZM357.758 56.041V42.9746C357.758 42.0762 357.631 41.3047 357.377 40.6602C357.123 40.0156 356.723 39.5176 356.176 39.166C355.629 38.7949 354.897 38.6094 353.979 38.6094C353.237 38.6094 352.602 38.7363 352.075 38.9902C351.547 39.2441 351.147 39.625 350.873 40.1328C350.6 40.6406 350.463 41.2852 350.463 42.0664H340.59C340.59 40.6016 340.913 39.2441 341.557 37.9941C342.221 36.7246 343.159 35.6211 344.37 34.6836C345.6 33.7461 347.065 33.0234 348.764 32.5156C350.483 31.9883 352.397 31.7246 354.506 31.7246C357.026 31.7246 359.272 32.1445 361.245 32.9844C363.237 33.8242 364.809 35.084 365.961 36.7637C367.114 38.4238 367.69 40.5137 367.69 43.0332V56.0117C367.69 58.082 367.807 59.6543 368.041 60.7285C368.276 61.7832 368.608 62.7109 369.038 63.5117V64.0098H359.135C358.666 63.0332 358.315 61.8418 358.08 60.4355C357.866 59.0098 357.758 57.5449 357.758 56.041ZM358.959 44.6445L359.018 49.918H354.653C353.735 49.918 352.954 50.0449 352.309 50.2988C351.684 50.5527 351.176 50.9043 350.786 51.3535C350.414 51.7832 350.141 52.2715 349.965 52.8184C349.809 53.3652 349.731 53.9414 349.731 54.5469C349.731 55.1328 349.868 55.6602 350.141 56.1289C350.434 56.5781 350.825 56.9297 351.313 57.1836C351.801 57.4375 352.348 57.5645 352.954 57.5645C354.047 57.5645 354.975 57.3594 355.737 56.9492C356.518 56.5195 357.114 56.002 357.524 55.3965C357.934 54.791 358.139 54.2246 358.139 53.6973L360.307 57.7402C359.916 58.5215 359.467 59.3125 358.959 60.1133C358.471 60.9141 357.856 61.6562 357.114 62.3398C356.391 63.0039 355.502 63.5508 354.448 63.9805C353.393 64.3906 352.114 64.5957 350.61 64.5957C348.657 64.5957 346.86 64.1953 345.219 63.3945C343.598 62.5938 342.299 61.4805 341.323 60.0547C340.346 58.6094 339.858 56.9492 339.858 55.0742C339.858 53.4336 340.151 51.9688 340.737 50.6797C341.342 49.3906 342.25 48.2969 343.461 47.3984C344.672 46.5 346.215 45.8164 348.09 45.3477C349.965 44.8789 352.172 44.6445 354.711 44.6445H358.959Z" fill="#001464"/>
<rect width="482" height="86" transform="translate(0 96.0098)" fill="white"/>
<path d="M38.1797 117.354V160.01H27.9258V117.354H38.1797ZM55.2445 135.078V160.01H45.3715V128.311H54.6293L55.2445 135.078ZM54.0727 143.076L51.7582 143.135C51.7582 140.713 52.0512 138.555 52.6371 136.66C53.223 134.746 54.0531 133.125 55.1273 131.797C56.2016 130.469 57.4809 129.463 58.9652 128.779C60.4691 128.076 62.1391 127.725 63.975 127.725C65.4398 127.725 66.7777 127.939 67.9887 128.369C69.2191 128.799 70.2738 129.492 71.1527 130.449C72.0512 131.406 72.7348 132.676 73.2035 134.258C73.6918 135.82 73.9359 137.754 73.9359 140.059V160.01H64.0043V140.029C64.0043 138.76 63.8285 137.793 63.477 137.129C63.1254 136.445 62.6176 135.977 61.9535 135.723C61.2895 135.469 60.4789 135.342 59.5219 135.342C58.5063 135.342 57.6469 135.537 56.9438 135.928C56.2406 136.318 55.6742 136.865 55.2445 137.568C54.8344 138.252 54.5316 139.062 54.3363 140C54.1605 140.938 54.0727 141.963 54.0727 143.076ZM99.2918 137.803V145.449H81.6844V137.803H99.2918ZM130.068 148.672C130.068 148.008 129.97 147.412 129.775 146.885C129.579 146.338 129.218 145.83 128.691 145.361C128.163 144.893 127.402 144.424 126.405 143.955C125.429 143.467 124.14 142.959 122.538 142.432C120.663 141.807 118.857 141.104 117.118 140.322C115.38 139.521 113.827 138.594 112.46 137.539C111.093 136.465 110.009 135.215 109.208 133.789C108.407 132.344 108.007 130.664 108.007 128.75C108.007 126.914 108.417 125.264 109.238 123.799C110.058 122.314 111.2 121.055 112.665 120.02C114.15 118.965 115.888 118.164 117.88 117.617C119.872 117.051 122.05 116.768 124.413 116.768C127.538 116.768 130.292 117.314 132.675 118.408C135.077 119.482 136.952 121.016 138.3 123.008C139.667 124.98 140.351 127.314 140.351 130.01H130.126C130.126 128.936 129.902 127.988 129.452 127.168C129.023 126.348 128.368 125.703 127.489 125.234C126.611 124.766 125.507 124.531 124.179 124.531C122.89 124.531 121.806 124.727 120.927 125.117C120.048 125.508 119.384 126.035 118.935 126.699C118.486 127.344 118.261 128.057 118.261 128.838C118.261 129.482 118.437 130.068 118.788 130.596C119.159 131.104 119.677 131.582 120.341 132.031C121.025 132.48 121.845 132.91 122.802 133.32C123.779 133.73 124.872 134.131 126.083 134.521C128.349 135.244 130.361 136.055 132.118 136.953C133.896 137.832 135.39 138.838 136.601 139.971C137.831 141.084 138.759 142.354 139.384 143.779C140.029 145.205 140.351 146.816 140.351 148.613C140.351 150.527 139.98 152.227 139.238 153.711C138.495 155.195 137.431 156.455 136.044 157.49C134.657 158.506 132.997 159.277 131.064 159.805C129.13 160.332 126.972 160.596 124.589 160.596C122.402 160.596 120.243 160.322 118.114 159.775C116.005 159.209 114.091 158.35 112.372 157.197C110.654 156.025 109.277 154.531 108.241 152.715C107.226 150.879 106.718 148.701 106.718 146.182H117.03C117.03 147.432 117.196 148.486 117.529 149.346C117.861 150.205 118.349 150.898 118.993 151.426C119.638 151.934 120.429 152.305 121.366 152.539C122.304 152.754 123.378 152.861 124.589 152.861C125.898 152.861 126.952 152.676 127.753 152.305C128.554 151.914 129.14 151.406 129.511 150.781C129.882 150.137 130.068 149.434 130.068 148.672ZM162.484 128.311V135.166H143.382V128.311H162.484ZM147.396 120.43H157.269V149.668C157.269 150.508 157.367 151.162 157.562 151.631C157.757 152.08 158.089 152.402 158.558 152.598C159.046 152.773 159.691 152.861 160.492 152.861C161.058 152.861 161.527 152.852 161.898 152.832C162.269 152.793 162.621 152.744 162.953 152.686V159.746C162.113 160.02 161.234 160.225 160.316 160.361C159.398 160.518 158.421 160.596 157.386 160.596C155.277 160.596 153.47 160.264 151.966 159.6C150.482 158.936 149.349 157.891 148.568 156.465C147.787 155.039 147.396 153.184 147.396 150.898V120.43ZM164.9 144.482V143.867C164.9 141.543 165.232 139.404 165.896 137.451C166.561 135.479 167.537 133.77 168.826 132.324C170.115 130.879 171.707 129.756 173.602 128.955C175.496 128.135 177.684 127.725 180.164 127.725C182.664 127.725 184.861 128.135 186.756 128.955C188.67 129.756 190.271 130.879 191.561 132.324C192.85 133.77 193.826 135.479 194.49 137.451C195.154 139.404 195.486 141.543 195.486 143.867V144.482C195.486 146.787 195.154 148.926 194.49 150.898C193.826 152.852 192.85 154.561 191.561 156.025C190.271 157.471 188.68 158.594 186.785 159.395C184.891 160.195 182.703 160.596 180.223 160.596C177.742 160.596 175.545 160.195 173.631 159.395C171.717 158.594 170.115 157.471 168.826 156.025C167.537 154.561 166.561 152.852 165.896 150.898C165.232 148.926 164.9 146.787 164.9 144.482ZM174.773 143.867V144.482C174.773 145.674 174.861 146.787 175.037 147.822C175.213 148.857 175.506 149.766 175.916 150.547C176.326 151.309 176.883 151.904 177.586 152.334C178.289 152.764 179.168 152.979 180.223 152.979C181.258 152.979 182.117 152.764 182.801 152.334C183.504 151.904 184.061 151.309 184.471 150.547C184.881 149.766 185.174 148.857 185.35 147.822C185.525 146.787 185.613 145.674 185.613 144.482V143.867C185.613 142.715 185.525 141.631 185.35 140.615C185.174 139.58 184.881 138.672 184.471 137.891C184.061 137.09 183.504 136.465 182.801 136.016C182.098 135.566 181.219 135.342 180.164 135.342C179.129 135.342 178.26 135.566 177.557 136.016C176.873 136.465 176.326 137.09 175.916 137.891C175.506 138.672 175.213 139.58 175.037 140.615C174.861 141.631 174.773 142.715 174.773 143.867ZM210.442 136.162V160.01H200.569V128.311H209.797L210.442 136.162ZM219.817 128.076L219.641 137.246C219.25 137.207 218.723 137.158 218.059 137.1C217.395 137.041 216.838 137.012 216.389 137.012C215.237 137.012 214.241 137.148 213.401 137.422C212.58 137.676 211.897 138.066 211.35 138.594C210.823 139.102 210.432 139.746 210.178 140.527C209.944 141.309 209.836 142.217 209.856 143.252L208.069 142.08C208.069 139.951 208.274 138.018 208.684 136.279C209.114 134.521 209.719 133.008 210.5 131.738C211.282 130.449 212.229 129.463 213.342 128.779C214.455 128.076 215.705 127.725 217.092 127.725C217.58 127.725 218.059 127.754 218.528 127.812C219.016 127.871 219.446 127.959 219.817 128.076ZM238.581 160.596C236.003 160.596 233.698 160.195 231.667 159.395C229.636 158.574 227.917 157.451 226.511 156.025C225.124 154.6 224.059 152.959 223.317 151.104C222.595 149.248 222.233 147.285 222.233 145.215V144.102C222.233 141.777 222.555 139.629 223.2 137.656C223.845 135.664 224.802 133.926 226.071 132.441C227.341 130.957 228.932 129.805 230.846 128.984C232.761 128.145 234.987 127.725 237.526 127.725C239.772 127.725 241.784 128.086 243.561 128.809C245.339 129.531 246.843 130.566 248.073 131.914C249.323 133.262 250.27 134.893 250.915 136.807C251.579 138.721 251.911 140.869 251.911 143.252V147.266H226.012V141.084H242.272V140.322C242.292 139.268 242.106 138.369 241.716 137.627C241.345 136.885 240.798 136.318 240.075 135.928C239.352 135.537 238.473 135.342 237.438 135.342C236.364 135.342 235.475 135.576 234.772 136.045C234.089 136.514 233.552 137.158 233.161 137.979C232.79 138.779 232.526 139.707 232.37 140.762C232.214 141.816 232.136 142.93 232.136 144.102V145.215C232.136 146.387 232.292 147.451 232.604 148.408C232.936 149.365 233.405 150.186 234.011 150.869C234.636 151.533 235.378 152.051 236.237 152.422C237.116 152.793 238.112 152.979 239.225 152.979C240.573 152.979 241.901 152.725 243.21 152.217C244.518 151.709 245.641 150.869 246.579 149.697L251.061 155.029C250.417 155.947 249.499 156.836 248.307 157.695C247.136 158.555 245.729 159.258 244.089 159.805C242.448 160.332 240.612 160.596 238.581 160.596ZM272.535 117.354H289.322C292.603 117.354 295.455 117.842 297.877 118.818C300.298 119.795 302.164 121.24 303.472 123.154C304.8 125.068 305.464 127.432 305.464 130.244C305.464 132.686 305.084 134.727 304.322 136.367C303.56 138.008 302.496 139.365 301.129 140.439C299.781 141.494 298.209 142.363 296.412 143.047L293.043 144.951H278.951L278.892 137.012H289.322C290.63 137.012 291.714 136.777 292.574 136.309C293.433 135.84 294.078 135.176 294.507 134.316C294.957 133.438 295.181 132.393 295.181 131.182C295.181 129.951 294.957 128.896 294.507 128.018C294.058 127.139 293.394 126.465 292.515 125.996C291.656 125.527 290.591 125.293 289.322 125.293H282.818V160.01H272.535V117.354ZM295.884 160.01L286.451 141.143L297.349 141.084L306.9 159.57V160.01H295.884ZM327.158 160.596C324.58 160.596 322.275 160.195 320.244 159.395C318.213 158.574 316.494 157.451 315.088 156.025C313.701 154.6 312.637 152.959 311.895 151.104C311.172 149.248 310.811 147.285 310.811 145.215V144.102C310.811 141.777 311.133 139.629 311.777 137.656C312.422 135.664 313.379 133.926 314.648 132.441C315.918 130.957 317.51 129.805 319.424 128.984C321.338 128.145 323.564 127.725 326.104 127.725C328.35 127.725 330.361 128.086 332.139 128.809C333.916 129.531 335.42 130.566 336.65 131.914C337.9 133.262 338.848 134.893 339.492 136.807C340.156 138.721 340.488 140.869 340.488 143.252V147.266H314.59V141.084H330.85V140.322C330.869 139.268 330.684 138.369 330.293 137.627C329.922 136.885 329.375 136.318 328.652 135.928C327.93 135.537 327.051 135.342 326.016 135.342C324.941 135.342 324.053 135.576 323.35 136.045C322.666 136.514 322.129 137.158 321.738 137.979C321.367 138.779 321.104 139.707 320.947 140.762C320.791 141.816 320.713 142.93 320.713 144.102V145.215C320.713 146.387 320.869 147.451 321.182 148.408C321.514 149.365 321.982 150.186 322.588 150.869C323.213 151.533 323.955 152.051 324.814 152.422C325.693 152.793 326.689 152.979 327.803 152.979C329.15 152.979 330.479 152.725 331.787 152.217C333.096 151.709 334.219 150.869 335.156 149.697L339.639 155.029C338.994 155.947 338.076 156.836 336.885 157.695C335.713 158.555 334.307 159.258 332.666 159.805C331.025 160.332 329.189 160.596 327.158 160.596ZM355.063 134.404V172.197H345.19V128.311H354.389L355.063 134.404ZM374.516 143.779V144.395C374.516 146.699 374.252 148.838 373.725 150.811C373.198 152.783 372.416 154.502 371.381 155.967C370.346 157.432 369.057 158.574 367.514 159.395C365.991 160.195 364.223 160.596 362.211 160.596C360.317 160.596 358.686 160.176 357.319 159.336C355.952 158.496 354.809 157.334 353.891 155.85C352.973 154.365 352.231 152.666 351.664 150.752C351.098 148.838 350.649 146.816 350.317 144.688V143.896C350.649 141.611 351.098 139.492 351.664 137.539C352.231 135.566 352.973 133.848 353.891 132.383C354.809 130.918 355.942 129.775 357.289 128.955C358.657 128.135 360.288 127.725 362.182 127.725C364.194 127.725 365.961 128.105 367.485 128.867C369.028 129.629 370.317 130.723 371.352 132.148C372.407 133.555 373.198 135.244 373.725 137.217C374.252 139.189 374.516 141.377 374.516 143.779ZM364.643 144.395V143.779C364.643 142.549 364.555 141.426 364.379 140.41C364.204 139.375 363.92 138.477 363.53 137.715C363.159 136.953 362.661 136.367 362.036 135.957C361.411 135.547 360.639 135.342 359.721 135.342C358.666 135.342 357.778 135.508 357.055 135.84C356.352 136.152 355.786 136.641 355.356 137.305C354.946 137.949 354.653 138.76 354.477 139.736C354.321 140.693 354.252 141.816 354.272 143.105V145.508C354.233 146.992 354.379 148.301 354.711 149.434C355.043 150.547 355.62 151.416 356.44 152.041C357.26 152.666 358.373 152.979 359.78 152.979C360.717 152.979 361.498 152.764 362.123 152.334C362.748 151.885 363.246 151.27 363.618 150.488C363.989 149.688 364.252 148.77 364.409 147.734C364.565 146.699 364.643 145.586 364.643 144.395ZM378.28 144.482V143.867C378.28 141.543 378.612 139.404 379.276 137.451C379.94 135.479 380.917 133.77 382.206 132.324C383.495 130.879 385.087 129.756 386.981 128.955C388.876 128.135 391.063 127.725 393.544 127.725C396.044 127.725 398.241 128.135 400.136 128.955C402.05 129.756 403.651 130.879 404.94 132.324C406.229 133.77 407.206 135.479 407.87 137.451C408.534 139.404 408.866 141.543 408.866 143.867V144.482C408.866 146.787 408.534 148.926 407.87 150.898C407.206 152.852 406.229 154.561 404.94 156.025C403.651 157.471 402.059 158.594 400.165 159.395C398.27 160.195 396.083 160.596 393.602 160.596C391.122 160.596 388.925 160.195 387.011 159.395C385.096 158.594 383.495 157.471 382.206 156.025C380.917 154.561 379.94 152.852 379.276 150.898C378.612 148.926 378.28 146.787 378.28 144.482ZM388.153 143.867V144.482C388.153 145.674 388.241 146.787 388.417 147.822C388.593 148.857 388.886 149.766 389.296 150.547C389.706 151.309 390.263 151.904 390.966 152.334C391.669 152.764 392.548 152.979 393.602 152.979C394.638 152.979 395.497 152.764 396.18 152.334C396.884 151.904 397.44 151.309 397.85 150.547C398.261 149.766 398.554 148.857 398.729 147.822C398.905 146.787 398.993 145.674 398.993 144.482V143.867C398.993 142.715 398.905 141.631 398.729 140.615C398.554 139.58 398.261 138.672 397.85 137.891C397.44 137.09 396.884 136.465 396.18 136.016C395.477 135.566 394.598 135.342 393.544 135.342C392.509 135.342 391.639 135.566 390.936 136.016C390.253 136.465 389.706 137.09 389.296 137.891C388.886 138.672 388.593 139.58 388.417 140.615C388.241 141.631 388.153 142.715 388.153 143.867ZM423.821 136.162V160.01H413.948V128.311H423.177L423.821 136.162ZM433.196 128.076L433.021 137.246C432.63 137.207 432.103 137.158 431.439 137.1C430.775 137.041 430.218 137.012 429.769 137.012C428.616 137.012 427.62 137.148 426.78 137.422C425.96 137.676 425.277 138.066 424.73 138.594C424.202 139.102 423.812 139.746 423.558 140.527C423.323 141.309 423.216 142.217 423.236 143.252L421.448 142.08C421.448 139.951 421.654 138.018 422.064 136.279C422.493 134.521 423.099 133.008 423.88 131.738C424.661 130.449 425.609 129.463 426.722 128.779C427.835 128.076 429.085 127.725 430.472 127.725C430.96 127.725 431.439 127.754 431.907 127.812C432.396 127.871 432.825 127.959 433.196 128.076ZM455.359 128.311V135.166H436.257V128.311H455.359ZM440.271 120.43H450.144V149.668C450.144 150.508 450.242 151.162 450.437 151.631C450.632 152.08 450.964 152.402 451.433 152.598C451.921 152.773 452.566 152.861 453.367 152.861C453.933 152.861 454.402 152.852 454.773 152.832C455.144 152.793 455.496 152.744 455.828 152.686V159.746C454.988 160.02 454.109 160.225 453.191 160.361C452.273 160.518 451.296 160.596 450.261 160.596C448.152 160.596 446.345 160.264 444.841 159.6C443.357 158.936 442.224 157.891 441.443 156.465C440.662 155.039 440.271 153.184 440.271 150.898V120.43Z" fill="#001464"/>
<rect width="190" height="86" transform="translate(0 192.01)" fill="white"/>
<path d="M56.4023 248.393V256.01H26.6367V249.564L40.3477 235.15C41.5586 233.764 42.5352 232.523 43.2773 231.43C44.0195 230.316 44.5566 229.311 44.8887 228.412C45.2402 227.514 45.416 226.703 45.416 225.98C45.416 224.75 45.2305 223.725 44.8594 222.904C44.5078 222.064 43.9805 221.43 43.2773 221C42.5938 220.57 41.7441 220.355 40.7285 220.355C39.7129 220.355 38.8242 220.648 38.0625 221.234C37.3008 221.82 36.7051 222.621 36.2754 223.637C35.8652 224.652 35.6602 225.795 35.6602 227.064H25.7578C25.7578 224.447 26.3926 222.055 27.6621 219.887C28.9512 217.719 30.7383 215.99 33.0234 214.701C35.3086 213.393 37.9551 212.738 40.9629 212.738C44.1074 212.738 46.7441 213.227 48.873 214.203C51.002 215.18 52.6035 216.596 53.6777 218.451C54.7715 220.287 55.3184 222.504 55.3184 225.102C55.3184 226.586 55.084 228.012 54.6152 229.379C54.1465 230.746 53.4727 232.104 52.5938 233.451C51.7148 234.779 50.6406 236.146 49.3711 237.553C48.1211 238.959 46.6953 240.453 45.0938 242.035L39.5859 248.393H56.4023ZM91.6605 230.785V238.578C91.6605 241.645 91.2992 244.311 90.5766 246.576C89.8734 248.842 88.8578 250.717 87.5297 252.201C86.2211 253.686 84.6586 254.789 82.8422 255.512C81.0258 256.234 79.0238 256.596 76.8363 256.596C75.0785 256.596 73.4379 256.371 71.9145 255.922C70.391 255.453 69.0141 254.75 67.7836 253.812C66.5727 252.855 65.5277 251.664 64.6488 250.238C63.7699 248.812 63.0961 247.133 62.6273 245.199C62.1586 243.246 61.9242 241.039 61.9242 238.578V230.785C61.9242 227.699 62.2758 225.033 62.9789 222.787C63.7016 220.521 64.727 218.646 66.0551 217.162C67.3832 215.678 68.9555 214.574 70.7719 213.852C72.5883 213.129 74.5902 212.768 76.7777 212.768C78.5355 212.768 80.1664 213.002 81.6703 213.471C83.1937 213.92 84.5707 214.623 85.8012 215.58C87.0316 216.518 88.0766 217.699 88.9359 219.125C89.8148 220.551 90.4887 222.24 90.9574 224.193C91.4262 226.127 91.6605 228.324 91.6605 230.785ZM81.7875 239.779V229.525C81.7875 228.158 81.7094 226.967 81.5531 225.951C81.4164 224.936 81.2016 224.076 80.9086 223.373C80.6352 222.67 80.2934 222.104 79.8832 221.674C79.473 221.225 79.0043 220.902 78.477 220.707C77.9691 220.492 77.4027 220.385 76.7777 220.385C75.9965 220.385 75.2934 220.551 74.6684 220.883C74.0629 221.195 73.5453 221.703 73.1156 222.406C72.6859 223.109 72.3539 224.047 72.1195 225.219C71.9047 226.391 71.7973 227.826 71.7973 229.525V239.779C71.7973 241.166 71.8656 242.377 72.0023 243.412C72.1586 244.428 72.3734 245.297 72.6469 246.02C72.9398 246.723 73.2914 247.299 73.7016 247.748C74.1117 248.178 74.5805 248.49 75.1078 248.686C75.6352 248.881 76.2113 248.979 76.8363 248.979C77.598 248.979 78.2816 248.822 78.8871 248.51C79.4926 248.197 80.0102 247.689 80.4398 246.986C80.8891 246.264 81.2211 245.316 81.4359 244.145C81.6703 242.953 81.7875 241.498 81.7875 239.779ZM127.212 248.393V256.01H97.4461V249.564L111.157 235.15C112.368 233.764 113.345 232.523 114.087 231.43C114.829 230.316 115.366 229.311 115.698 228.412C116.05 227.514 116.225 226.703 116.225 225.98C116.225 224.75 116.04 223.725 115.669 222.904C115.317 222.064 114.79 221.43 114.087 221C113.403 220.57 112.554 220.355 111.538 220.355C110.522 220.355 109.634 220.648 108.872 221.234C108.11 221.82 107.514 222.621 107.085 223.637C106.675 224.652 106.47 225.795 106.47 227.064H96.5672C96.5672 224.447 97.202 222.055 98.4715 219.887C99.7605 217.719 101.548 215.99 103.833 214.701C106.118 213.393 108.764 212.738 111.772 212.738C114.917 212.738 117.554 213.227 119.682 214.203C121.811 215.18 123.413 216.596 124.487 218.451C125.581 220.287 126.128 222.504 126.128 225.102C126.128 226.586 125.893 228.012 125.425 229.379C124.956 230.746 124.282 232.104 123.403 233.451C122.524 234.779 121.45 236.146 120.18 237.553C118.93 238.959 117.505 240.453 115.903 242.035L110.395 248.393H127.212ZM141.288 236.996L133.437 235.15L136.015 213.354H160.946V221.029H144.071L143.105 229.496C143.573 229.223 144.364 228.9 145.478 228.529C146.611 228.139 147.861 227.943 149.228 227.943C151.337 227.943 153.202 228.266 154.823 228.91C156.464 229.535 157.851 230.463 158.984 231.693C160.116 232.904 160.966 234.398 161.532 236.176C162.118 237.953 162.411 239.984 162.411 242.27C162.411 244.105 162.109 245.883 161.503 247.602C160.917 249.301 160.009 250.834 158.779 252.201C157.568 253.549 156.034 254.623 154.179 255.424C152.323 256.205 150.126 256.596 147.587 256.596C145.693 256.596 143.847 256.303 142.05 255.717C140.253 255.131 138.632 254.291 137.187 253.197C135.761 252.084 134.628 250.746 133.788 249.184C132.968 247.602 132.568 245.834 132.587 243.881H142.519C142.577 244.916 142.821 245.814 143.251 246.576C143.681 247.338 144.257 247.934 144.98 248.363C145.722 248.773 146.571 248.979 147.529 248.979C148.505 248.979 149.316 248.783 149.96 248.393C150.605 248.002 151.113 247.465 151.484 246.781C151.855 246.098 152.118 245.316 152.275 244.438C152.431 243.539 152.509 242.592 152.509 241.596C152.509 240.541 152.392 239.594 152.157 238.754C151.943 237.914 151.591 237.201 151.103 236.615C150.614 236.01 149.98 235.551 149.198 235.238C148.437 234.926 147.519 234.77 146.445 234.77C145.019 234.77 143.896 235.014 143.075 235.502C142.255 235.99 141.659 236.488 141.288 236.996Z" fill="#001464"/>
</svg>
