<svg width="159" height="124" viewBox="0 0 159 124" fill="none" xmlns="http://www.w3.org/2000/svg">
<rect width="54.0824" height="73.664" rx="4.66228" fill="#93B4FF"/>
<rect x="23.0571" y="73.6638" width="7.45965" height="8.3921" fill="#3B75FF"/>
<rect x="9.49414" y="89.5154" width="8.13779" height="33.9075" rx="1.86491" transform="rotate(-90 9.49414 89.5154)" fill="#3B75FF"/>
<mask id="mask0_4143_4081" style="mask-type:alpha" maskUnits="userSpaceOnUse" x="65" y="20" width="66" height="66">
<rect x="65.7285" y="20.6575" width="65.1024" height="65.1024" fill="#93B4FF"/>
</mask>
<g mask="url(#mask0_4143_4081)">
<path d="M98.2663 41.0016C97.3259 41.0016 96.528 40.6693 95.8724 40.0047C95.2169 39.3402 94.8891 38.5377 94.8891 37.5973C94.8891 36.6569 95.2214 35.859 95.886 35.2034C96.5506 34.5479 97.353 34.2201 98.2934 34.2201C99.2338 34.2201 100.032 34.5524 100.687 35.217C101.343 35.8816 101.671 36.6841 101.671 37.6244C101.671 38.5648 101.338 39.3628 100.674 40.0183C100.009 40.6739 99.2066 41.0016 98.2663 41.0016ZM95.1604 71.2471V59.0404H92.4478V47.105C92.4478 46.2473 92.7531 45.5129 93.3639 44.9017C93.9747 44.2909 94.7092 43.9855 95.5672 43.9855H100.992C101.85 43.9855 102.585 44.2909 103.196 44.9017C103.807 45.5129 104.112 46.2473 104.112 47.105V59.0404H101.399V71.2471H95.1604Z" fill="#93B4FF"/>
</g>
<mask id="mask1_4143_4081" style="mask-type:alpha" maskUnits="userSpaceOnUse" x="43" y="58" width="66" height="66">
<rect x="43.1929" y="58.2165" width="65.1024" height="65.1024" fill="#93B4FF"/>
</mask>
<g mask="url(#mask1_4143_4081)">
<path d="M75.7306 78.5611C74.7903 78.5611 73.9923 78.2288 73.3368 77.5643C72.6812 76.8997 72.3534 76.0972 72.3534 75.1568C72.3534 74.2165 72.6857 73.4185 73.3503 72.763C74.0149 72.1074 74.8174 71.7796 75.7578 71.7796C76.6981 71.7796 77.4961 72.1119 78.1516 72.7765C78.8072 73.4411 79.1349 74.2436 79.1349 75.184C79.1349 76.1243 78.8026 76.9223 78.1381 77.5778C77.4735 78.2334 76.671 78.5611 75.7306 78.5611ZM72.6247 108.807V96.5999H69.9121V84.6645C69.9121 83.8069 70.2175 83.0724 70.8283 82.4612C71.4391 81.8504 72.1735 81.545 73.0316 81.545H78.4568C79.3144 81.545 80.0489 81.8504 80.6601 82.4612C81.2709 83.0724 81.5763 83.8069 81.5763 84.6645V96.5999H78.8637V108.807H72.6247Z" fill="#93B4FF"/>
</g>
<mask id="mask2_4143_4081" style="mask-type:alpha" maskUnits="userSpaceOnUse" x="93" y="45" width="66" height="66">
<rect x="93.8975" y="45.0709" width="65.1024" height="65.1024" fill="#93B4FF"/>
</mask>
<g mask="url(#mask2_4143_4081)">
<path d="M126.435 65.4153C125.495 65.4153 124.697 65.083 124.041 64.4184C123.386 63.7538 123.058 62.9514 123.058 62.011C123.058 61.0706 123.39 60.2727 124.055 59.6171C124.72 58.9616 125.522 58.6338 126.462 58.6338C127.403 58.6338 128.201 58.9661 128.856 59.6307C129.512 60.2953 129.84 61.0978 129.84 62.0381C129.84 62.9785 129.507 63.7764 128.843 64.432C128.178 65.0875 127.376 65.4153 126.435 65.4153ZM123.329 95.6608V83.4541H120.617V71.5187C120.617 70.661 120.922 69.9266 121.533 69.3153C122.144 68.7046 122.878 68.3992 123.736 68.3992H129.161C130.019 68.3992 130.753 68.7046 131.365 69.3153C131.975 69.9266 132.281 70.661 132.281 71.5187V83.4541H129.568V95.6608H123.329Z" fill="#93B4FF"/>
</g>
<mask id="mask3_4143_4081" style="mask-type:alpha" maskUnits="userSpaceOnUse" x="11" y="20" width="33" height="33">
<rect x="11.3589" y="20.9998" width="31.7035" height="31.7035" fill="#D9D9D9"/>
</mask>
<g mask="url(#mask3_4143_4081)">
<path d="M20.3413 48.343C19.7689 48.343 19.2956 48.1558 18.9213 47.7815C18.547 47.4073 18.3599 46.9339 18.3599 46.3615V27.3394C18.3599 26.767 18.547 26.2936 18.9213 25.9193C19.2956 25.5451 19.7689 25.3579 20.3413 25.3579H34.0795C34.6519 25.3579 35.1253 25.5451 35.4996 25.9193C35.8738 26.2936 36.061 26.767 36.061 27.3394V46.3615C36.061 46.9339 35.8738 47.4073 35.4996 47.7815C35.1253 48.1558 34.6519 48.343 34.0795 48.343H20.3413ZM21.8605 43.9177H32.8246L29.4561 39.4263L26.1536 43.5214L24.0401 41.0776L21.8605 43.9177Z" fill="white"/>
</g>
</svg>
