<svg width="120" height="107" viewBox="0 0 120 107" fill="none" xmlns="http://www.w3.org/2000/svg">
<rect width="27.1875" height="37.0313" rx="2.34375" fill="#93B4FF"/>
<rect x="11.5908" y="37.0313" width="3.75001" height="4.21876" fill="#3B75FF"/>
<rect x="4.77295" y="45" width="4.09091" height="17.0455" rx="0.937501" transform="rotate(-90 4.77295 45)" fill="#3B75FF"/>
<mask id="mask0_4147_4162" style="mask-type:alpha" maskUnits="userSpaceOnUse" x="5" y="10" width="17" height="17">
<rect x="5.71045" y="10.5568" width="15.9375" height="15.9375" fill="#D9D9D9"/>
</mask>
<g mask="url(#mask0_4147_4162)">
<path d="M10.2261 24.3024C9.93831 24.3024 9.70036 24.2084 9.51221 24.0202C9.32406 23.8321 9.22998 23.5941 9.22998 23.3063V13.7438C9.22998 13.4561 9.32406 13.2181 9.51221 13.03C9.70036 12.8418 9.93831 12.7477 10.2261 12.7477H17.1323C17.4201 12.7477 17.6581 12.8418 17.8462 13.03C18.0344 13.2181 18.1284 13.4561 18.1284 13.7438V23.3063C18.1284 23.5941 18.0344 23.8321 17.8462 24.0202C17.6581 24.2084 17.4201 24.3024 17.1323 24.3024H10.2261ZM10.9897 22.0778H16.5015L14.8081 19.82L13.148 21.8786L12.0855 20.6501L10.9897 22.0778Z" fill="white"/>
</g>
<rect x="46" width="27.1875" height="37.0313" rx="2.34375" fill="#93B4FF"/>
<rect x="57.5908" y="37.0313" width="3.75001" height="4.21876" fill="#3B75FF"/>
<rect x="50.7729" y="45" width="4.09091" height="17.0455" rx="0.937501" transform="rotate(-90 50.7729 45)" fill="#3B75FF"/>
<mask id="mask1_4147_4162" style="mask-type:alpha" maskUnits="userSpaceOnUse" x="51" y="10" width="17" height="17">
<rect x="51.7104" y="10.5568" width="15.9375" height="15.9375" fill="#D9D9D9"/>
</mask>
<g mask="url(#mask1_4147_4162)">
<path d="M56.2261 24.3024C55.9383 24.3024 55.7004 24.2084 55.5122 24.0202C55.3241 23.8321 55.23 23.5941 55.23 23.3063V13.7438C55.23 13.4561 55.3241 13.2181 55.5122 13.03C55.7004 12.8418 55.9383 12.7477 56.2261 12.7477H63.1323C63.4201 12.7477 63.6581 12.8418 63.8462 13.03C64.0344 13.2181 64.1284 13.4561 64.1284 13.7438V23.3063C64.1284 23.5941 64.0344 23.8321 63.8462 24.0202C63.6581 24.2084 63.4201 24.3024 63.1323 24.3024H56.2261ZM56.9897 22.0778H62.5015L60.8081 19.82L59.148 21.8786L58.0855 20.6501L56.9897 22.0778Z" fill="white"/>
</g>
<rect x="92" width="27.1875" height="37.0313" rx="2.34375" fill="#93B4FF"/>
<rect x="103.591" y="37.0313" width="3.75001" height="4.21876" fill="#3B75FF"/>
<rect x="96.7729" y="45" width="4.09091" height="17.0455" rx="0.937501" transform="rotate(-90 96.7729 45)" fill="#3B75FF"/>
<mask id="mask2_4147_4162" style="mask-type:alpha" maskUnits="userSpaceOnUse" x="97" y="10" width="17" height="17">
<rect x="97.7104" y="10.5568" width="15.9375" height="15.9375" fill="#D9D9D9"/>
</mask>
<g mask="url(#mask2_4147_4162)">
<path d="M102.226 24.3024C101.938 24.3024 101.7 24.2084 101.512 24.0202C101.324 23.8321 101.23 23.5941 101.23 23.3063V13.7438C101.23 13.4561 101.324 13.2181 101.512 13.03C101.7 12.8418 101.938 12.7477 102.226 12.7477H109.132C109.42 12.7477 109.658 12.8418 109.846 13.03C110.034 13.2181 110.128 13.4561 110.128 13.7438V23.3063C110.128 23.5941 110.034 23.8321 109.846 24.0202C109.658 24.2084 109.42 24.3024 109.132 24.3024H102.226ZM102.99 22.0778H108.501L106.808 19.82L105.148 21.8786L104.085 20.6501L102.99 22.0778Z" fill="white"/>
</g>
<rect y="62" width="27.1875" height="37.0313" rx="2.34375" fill="#93B4FF"/>
<rect x="11.5908" y="99.0313" width="3.75001" height="4.21876" fill="#3B75FF"/>
<rect x="4.77295" y="107" width="4.09091" height="17.0455" rx="0.937501" transform="rotate(-90 4.77295 107)" fill="#3B75FF"/>
<mask id="mask3_4147_4162" style="mask-type:alpha" maskUnits="userSpaceOnUse" x="5" y="72" width="17" height="17">
<rect x="5.71045" y="72.5568" width="15.9375" height="15.9375" fill="#D9D9D9"/>
</mask>
<g mask="url(#mask3_4147_4162)">
<path d="M10.2261 86.3024C9.93831 86.3024 9.70036 86.2084 9.51221 86.0202C9.32406 85.8321 9.22998 85.5941 9.22998 85.3063V75.7438C9.22998 75.4561 9.32406 75.2181 9.51221 75.03C9.70036 74.8418 9.93831 74.7477 10.2261 74.7477H17.1323C17.4201 74.7477 17.6581 74.8418 17.8462 75.03C18.0344 75.2181 18.1284 75.4561 18.1284 75.7438V85.3063C18.1284 85.5941 18.0344 85.8321 17.8462 86.0202C17.6581 86.2084 17.4201 86.3024 17.1323 86.3024H10.2261ZM10.9897 84.0778H16.5015L14.8081 81.82L13.148 83.8786L12.0855 82.6501L10.9897 84.0778Z" fill="white"/>
</g>
<rect x="46" y="62" width="27.1875" height="37.0313" rx="2.34375" fill="#93B4FF"/>
<rect x="57.5908" y="99.0313" width="3.75001" height="4.21876" fill="#3B75FF"/>
<rect x="50.7729" y="107" width="4.09091" height="17.0455" rx="0.937501" transform="rotate(-90 50.7729 107)" fill="#3B75FF"/>
<mask id="mask4_4147_4162" style="mask-type:alpha" maskUnits="userSpaceOnUse" x="51" y="72" width="17" height="17">
<rect x="51.7104" y="72.5568" width="15.9375" height="15.9375" fill="#D9D9D9"/>
</mask>
<g mask="url(#mask4_4147_4162)">
<path d="M56.2261 86.3024C55.9383 86.3024 55.7004 86.2084 55.5122 86.0202C55.3241 85.8321 55.23 85.5941 55.23 85.3063V75.7438C55.23 75.4561 55.3241 75.2181 55.5122 75.03C55.7004 74.8418 55.9383 74.7477 56.2261 74.7477H63.1323C63.4201 74.7477 63.6581 74.8418 63.8462 75.03C64.0344 75.2181 64.1284 75.4561 64.1284 75.7438V85.3063C64.1284 85.5941 64.0344 85.8321 63.8462 86.0202C63.6581 86.2084 63.4201 86.3024 63.1323 86.3024H56.2261ZM56.9897 84.0778H62.5015L60.8081 81.82L59.148 83.8786L58.0855 82.6501L56.9897 84.0778Z" fill="white"/>
</g>
<rect x="92" y="62" width="27.1875" height="37.0313" rx="2.34375" fill="#93B4FF"/>
<rect x="103.591" y="99.0313" width="3.75001" height="4.21876" fill="#3B75FF"/>
<rect x="96.7729" y="107" width="4.09091" height="17.0455" rx="0.937501" transform="rotate(-90 96.7729 107)" fill="#3B75FF"/>
<mask id="mask5_4147_4162" style="mask-type:alpha" maskUnits="userSpaceOnUse" x="97" y="72" width="17" height="17">
<rect x="97.7104" y="72.5568" width="15.9375" height="15.9375" fill="#D9D9D9"/>
</mask>
<g mask="url(#mask5_4147_4162)">
<path d="M102.226 86.3024C101.938 86.3024 101.7 86.2084 101.512 86.0202C101.324 85.8321 101.23 85.5941 101.23 85.3063V75.7438C101.23 75.4561 101.324 75.2181 101.512 75.03C101.7 74.8418 101.938 74.7477 102.226 74.7477H109.132C109.42 74.7477 109.658 74.8418 109.846 75.03C110.034 75.2181 110.128 75.4561 110.128 75.7438V85.3063C110.128 85.5941 110.034 85.8321 109.846 86.0202C109.658 86.2084 109.42 86.3024 109.132 86.3024H102.226ZM102.99 84.0778H108.501L106.808 81.82L105.148 83.8786L104.085 82.6501L102.99 84.0778Z" fill="white"/>
</g>
<line x1="27" y1="18" x2="46" y2="18" stroke="#1056FB" stroke-width="2" stroke-dasharray="3 2"/>
<line x1="73" y1="18" x2="92" y2="18" stroke="#1056FB" stroke-width="2" stroke-dasharray="3 2"/>
<line x1="27" y1="80" x2="46" y2="80" stroke="#1056FB" stroke-width="2" stroke-dasharray="3 2"/>
<line x1="13" y1="62" x2="13" y2="45" stroke="#1056FB" stroke-width="2" stroke-dasharray="3 2"/>
<line x1="59" y1="62" x2="59" y2="45" stroke="#1056FB" stroke-width="2" stroke-dasharray="3 2"/>
<line x1="105" y1="62" x2="105" y2="45" stroke="#1056FB" stroke-width="2" stroke-dasharray="3 2"/>
<line x1="73" y1="80" x2="92" y2="80" stroke="#1056FB" stroke-width="2" stroke-dasharray="3 2"/>
</svg>
