<svg width="49" height="54" viewBox="0 0 49 54" fill="none" xmlns="http://www.w3.org/2000/svg">
<mask id="path-1-inside-1_4259_637" fill="white">
<path fill-rule="evenodd" clip-rule="evenodd" d="M48.3569 24.1785C48.3569 10.8251 37.5319 -4.73178e-07 24.1785 -1.05687e-06C10.8251 -1.64057e-06 3.00444e-05 10.8251 2.94607e-05 24.1784C2.89424e-05 36.0368 8.53687 45.9013 19.8001 47.9615L23.2156 52.5626C24.0152 53.6398 25.6278 53.6398 26.4274 52.5626L30.0895 47.6291C40.5856 44.9918 48.3569 35.4927 48.3569 24.1785Z"/>
</mask>
<path fill-rule="evenodd" clip-rule="evenodd" d="M48.3569 24.1785C48.3569 10.8251 37.5319 -4.73178e-07 24.1785 -1.05687e-06C10.8251 -1.64057e-06 3.00444e-05 10.8251 2.94607e-05 24.1784C2.89424e-05 36.0368 8.53687 45.9013 19.8001 47.9615L23.2156 52.5626C24.0152 53.6398 25.6278 53.6398 26.4274 52.5626L30.0895 47.6291C40.5856 44.9918 48.3569 35.4927 48.3569 24.1785Z" fill="#E1E7FF"/>
<path d="M19.8001 47.9615L20.6031 47.3654L20.368 47.0488L19.9801 46.9778L19.8001 47.9615ZM23.2156 52.5626L24.0185 51.9665L23.2156 52.5626ZM26.4274 52.5626L27.2303 53.1586L26.4274 52.5626ZM30.0895 47.6291L29.8458 46.6593L29.4994 46.7463L29.2865 47.0331L30.0895 47.6291ZM24.1785 0.999999C36.9796 1 47.3569 11.3773 47.3569 24.1785L49.3569 24.1785C49.3569 10.2728 38.0842 -1 24.1785 -1L24.1785 0.999999ZM1.00003 24.1784C1.00003 11.3773 11.3774 0.999998 24.1785 0.999999L24.1785 -1C10.2728 -1 -0.99997 10.2728 -0.999971 24.1784L1.00003 24.1784ZM19.9801 46.9778C9.18326 45.003 1.00003 35.5453 1.00003 24.1784L-0.999971 24.1784C-0.999971 36.5283 7.89048 46.7997 19.6202 48.9452L19.9801 46.9778ZM18.9972 48.5575L22.4126 53.1586L24.0185 51.9665L20.6031 47.3654L18.9972 48.5575ZM22.4126 53.1586C23.6121 54.7745 26.0309 54.7745 27.2303 53.1586L25.6244 51.9665C25.2246 52.5051 24.4183 52.5051 24.0185 51.9665L22.4126 53.1586ZM27.2303 53.1586L30.8925 48.2252L29.2865 47.0331L25.6244 51.9665L27.2303 53.1586ZM47.3569 24.1785C47.3569 35.0234 39.9079 44.131 29.8458 46.6593L30.3332 48.599C41.2632 45.8526 49.3569 35.962 49.3569 24.1785L47.3569 24.1785Z" fill="#001464" mask="url(#path-1-inside-1_4259_637)"/>
<path d="M19.3349 35.0088V37.2091C19.3349 37.3485 19.2877 37.4648 19.1932 37.5581C19.0987 37.6515 18.981 37.6981 18.8399 37.6981C18.6988 37.6981 18.5831 37.6515 18.4926 37.5581C18.4022 37.4648 18.3569 37.3485 18.3569 37.2092V12.7603C18.3569 12.2848 18.5314 11.8725 18.8805 11.5235C19.2295 11.1745 19.6417 11 20.1173 11H29.0166C29.4922 11 29.9044 11.1745 30.2534 11.5235C30.6024 11.8725 30.7769 12.2848 30.7769 12.7603V37.2091C30.7769 37.3485 30.7297 37.4648 30.6352 37.5581C30.5408 37.6515 30.423 37.6981 30.282 37.6981C30.1409 37.6981 30.0251 37.6515 29.9347 37.5581C29.8442 37.4648 29.799 37.3485 29.799 37.2092V35.0088H19.3349ZM19.3349 34.0308H29.799V12.7603C29.799 12.5321 29.7256 12.3447 29.579 12.198C29.4323 12.0513 29.2448 11.9779 29.0166 11.9779H20.1173C19.8891 11.9779 19.7016 12.0513 19.5549 12.198C19.4082 12.3447 19.3349 12.5321 19.3349 12.7603V34.0308ZM23.5181 24.8478L25.9874 23.4665C26.1406 23.3874 26.2172 23.2605 26.2172 23.0857C26.2172 22.9109 26.1406 22.7786 25.9874 22.689L23.5181 21.2832C23.3649 21.1935 23.2223 21.1926 23.0902 21.2804C22.9582 21.3682 22.8922 21.4987 22.8922 21.6719V24.4835C22.8922 24.6567 22.9582 24.7872 23.0902 24.875C23.2223 24.9628 23.3649 24.9537 23.5181 24.8478Z" fill="#001464" stroke="#001464" stroke-width="0.5"/>
</svg>
