<svg width="33" height="33" viewBox="0 0 33 33" fill="none" xmlns="http://www.w3.org/2000/svg">
<mask id="mask0_2831_6166" style="mask-type:alpha" maskUnits="userSpaceOnUse" x="0" y="0" width="33" height="33">
<rect width="33" height="33" fill="#D9D9D9"/>
</mask>
<g mask="url(#mask0_2831_6166)">
<path d="M15.1245 24.75C17.7828 24.75 20.0516 23.8161 21.9308 21.9484C23.8099 20.0807 24.7495 17.8062 24.7495 15.125C24.7495 12.4667 23.8099 10.1979 21.9308 8.31875C20.0516 6.43958 17.7828 5.5 15.1245 5.5C12.4433 5.5 10.1688 6.43958 8.30107 8.31875C6.43337 10.1979 5.49951 12.4667 5.49951 15.125C5.49951 17.8062 6.43337 20.0807 8.30107 21.9484C10.1688 23.8161 12.4433 24.75 15.1245 24.75ZM15.1245 20.625C13.2224 20.625 11.5323 20.1151 10.0542 19.0953C8.57607 18.0755 7.51618 16.7521 6.87451 15.125C7.51618 13.5208 8.57607 12.2031 10.0542 11.1719C11.5323 10.1406 13.2224 9.625 15.1245 9.625C17.0037 9.625 18.6823 10.1406 20.1604 11.1719C21.6386 12.2031 22.7099 13.5208 23.3745 15.125C22.7099 16.7521 21.6386 18.0755 20.1604 19.0953C18.6823 20.1151 17.0037 20.625 15.1245 20.625ZM15.1245 18.5625C16.3849 18.5625 17.5422 18.2589 18.5964 17.6516C19.6506 17.0443 20.4756 16.2021 21.0714 15.125C20.4756 14.0708 19.6506 13.2344 18.5964 12.6156C17.5422 11.9969 16.3849 11.6875 15.1245 11.6875C13.8412 11.6875 12.6724 11.9969 11.6183 12.6156C10.5641 13.2344 9.7391 14.0708 9.14326 15.125C9.7391 16.2021 10.5641 17.0443 11.6183 17.6516C12.6724 18.2589 13.8412 18.5625 15.1245 18.5625ZM15.1245 17.1875C15.6974 17.1875 16.1844 16.9927 16.5854 16.6031C16.9865 16.2135 17.187 15.7208 17.187 15.125C17.187 14.5521 16.9865 14.0651 16.5854 13.6641C16.1844 13.263 15.6974 13.0625 15.1245 13.0625C14.5287 13.0625 14.036 13.263 13.6464 13.6641C13.2568 14.0651 13.062 14.5521 13.062 15.125C13.062 15.7208 13.2568 16.2135 13.6464 16.6031C14.036 16.9927 14.5287 17.1875 15.1245 17.1875ZM15.1245 27.5C13.4058 27.5 11.7959 27.1734 10.2948 26.5203C8.79378 25.8672 7.48753 24.9849 6.37607 23.8734C5.26462 22.762 4.38232 21.4557 3.7292 19.9547C3.07607 18.4536 2.74951 16.8438 2.74951 15.125C2.74951 13.4292 3.07607 11.8307 3.7292 10.3297C4.38232 8.82865 5.26462 7.51667 6.37607 6.39375C7.48753 5.27083 8.79378 4.38281 10.2948 3.72969C11.7959 3.07656 13.4058 2.75 15.1245 2.75C16.8203 2.75 18.4188 3.07656 19.9198 3.72969C21.4209 4.38281 22.7328 5.27083 23.8558 6.39375C24.9787 7.51667 25.8667 8.82865 26.5198 10.3297C27.1729 11.8307 27.4995 13.4292 27.4995 15.125C27.4995 16.5917 27.2589 17.9781 26.7776 19.2844C26.2964 20.5906 25.6318 21.7823 24.7839 22.8594L30.2495 28.325L28.2901 30.25L22.8245 24.8188C21.7474 25.6667 20.5558 26.3255 19.2495 26.7953C17.9433 27.2651 16.5683 27.5 15.1245 27.5Z" fill="url(#paint0_linear_2831_6166)"/>
</g>
<defs>
<linearGradient id="paint0_linear_2831_6166" x1="-9.17831" y1="16.4778" x2="36.5348" y2="16.3722" gradientUnits="userSpaceOnUse">
<stop offset="0.317708" stop-color="#E43425"/>
<stop offset="0.71875" stop-color="#441FD8"/>
<stop offset="1" stop-color="#0A26B8"/>
</linearGradient>
</defs>
</svg>
