<svg width="33" height="33" viewBox="0 0 33 33" fill="none" xmlns="http://www.w3.org/2000/svg">
<mask id="mask0_2831_6172" style="mask-type:alpha" maskUnits="userSpaceOnUse" x="0" y="0" width="33" height="33">
<rect width="33" height="33" fill="#D9D9D9"/>
</mask>
<g mask="url(#mask0_2831_6172)">
<path d="M0 24.75V22.5844C0 21.599 0.504167 20.7969 1.5125 20.1781C2.52083 19.5594 3.85 19.25 5.5 19.25C5.79792 19.25 6.08437 19.2557 6.35938 19.2672C6.63438 19.2786 6.89792 19.3073 7.15 19.3531C6.82917 19.8344 6.58854 20.3385 6.42813 20.8656C6.26771 21.3927 6.1875 21.9427 6.1875 22.5156V24.75H0ZM8.25 24.75V22.5156C8.25 21.7823 8.45052 21.112 8.85156 20.5047C9.2526 19.8974 9.81979 19.3646 10.5531 18.9062C11.2865 18.4479 12.163 18.1042 13.1828 17.875C14.2026 17.6458 15.3083 17.5312 16.5 17.5312C17.7146 17.5312 18.8318 17.6458 19.8516 17.875C20.8714 18.1042 21.7479 18.4479 22.4813 18.9062C23.2146 19.3646 23.776 19.8974 24.1656 20.5047C24.5552 21.112 24.75 21.7823 24.75 22.5156V24.75H8.25ZM26.8125 24.75V22.5156C26.8125 21.9198 26.738 21.3583 26.5891 20.8313C26.4401 20.3042 26.2167 19.8115 25.9188 19.3531C26.1708 19.3073 26.4286 19.2786 26.6922 19.2672C26.9557 19.2557 27.225 19.25 27.5 19.25C29.15 19.25 30.4792 19.5536 31.4875 20.1609C32.4958 20.7682 33 21.576 33 22.5844V24.75H26.8125ZM11.1719 22H21.8625C21.6333 21.5417 20.9974 21.1406 19.9547 20.7969C18.912 20.4531 17.7604 20.2812 16.5 20.2812C15.2396 20.2812 14.088 20.4531 13.0453 20.7969C12.0026 21.1406 11.3781 21.5417 11.1719 22ZM5.5 17.875C4.74375 17.875 4.09635 17.6057 3.55781 17.0672C3.01927 16.5286 2.75 15.8812 2.75 15.125C2.75 14.3458 3.01927 13.6927 3.55781 13.1656C4.09635 12.6385 4.74375 12.375 5.5 12.375C6.27917 12.375 6.93229 12.6385 7.45938 13.1656C7.98646 13.6927 8.25 14.3458 8.25 15.125C8.25 15.8812 7.98646 16.5286 7.45938 17.0672C6.93229 17.6057 6.27917 17.875 5.5 17.875ZM27.5 17.875C26.7437 17.875 26.0964 17.6057 25.5578 17.0672C25.0193 16.5286 24.75 15.8812 24.75 15.125C24.75 14.3458 25.0193 13.6927 25.5578 13.1656C26.0964 12.6385 26.7437 12.375 27.5 12.375C28.2792 12.375 28.9323 12.6385 29.4594 13.1656C29.9865 13.6927 30.25 14.3458 30.25 15.125C30.25 15.8812 29.9865 16.5286 29.4594 17.0672C28.9323 17.6057 28.2792 17.875 27.5 17.875ZM16.5 16.5C15.3542 16.5 14.3802 16.099 13.5781 15.2969C12.776 14.4948 12.375 13.5208 12.375 12.375C12.375 11.2062 12.776 10.2266 13.5781 9.43594C14.3802 8.64531 15.3542 8.25 16.5 8.25C17.6688 8.25 18.6484 8.64531 19.4391 9.43594C20.2297 10.2266 20.625 11.2062 20.625 12.375C20.625 13.5208 20.2297 14.4948 19.4391 15.2969C18.6484 16.099 17.6688 16.5 16.5 16.5ZM16.5 13.75C16.8896 13.75 17.2161 13.6182 17.4797 13.3547C17.7432 13.0911 17.875 12.7646 17.875 12.375C17.875 11.9854 17.7432 11.6589 17.4797 11.3953C17.2161 11.1318 16.8896 11 16.5 11C16.1104 11 15.7839 11.1318 15.5203 11.3953C15.2568 11.6589 15.125 11.9854 15.125 12.375C15.125 12.7646 15.2568 13.0911 15.5203 13.3547C15.7839 13.6182 16.1104 13.75 16.5 13.75Z" fill="url(#paint0_linear_2831_6172)"/>
</g>
<defs>
<linearGradient id="paint0_linear_2831_6172" x1="-14.3134" y1="16.4867" x2="40.5415" y2="16.2334" gradientUnits="userSpaceOnUse">
<stop offset="0.317708" stop-color="#E43425"/>
<stop offset="0.71875" stop-color="#441FD8"/>
<stop offset="1" stop-color="#0A26B8"/>
</linearGradient>
</defs>
</svg>
