<svg width="33" height="33" viewBox="0 0 33 33" fill="none" xmlns="http://www.w3.org/2000/svg">
<mask id="mask0_2831_6184" style="mask-type:alpha" maskUnits="userSpaceOnUse" x="0" y="0" width="33" height="33">
<rect width="33" height="33" fill="#D9D9D9"/>
</mask>
<g mask="url(#mask0_2831_6184)">
<path d="M16.4999 32.0379L11.8937 27.5004H5.4999V21.1066L0.962402 16.5004L5.4999 11.8941V5.50039H11.8937L16.4999 0.962891L21.1062 5.50039H27.4999V11.8941L32.0374 16.5004L27.4999 21.1066V27.5004H21.1062L16.4999 32.0379ZM16.4999 24.7504C18.7916 24.7504 20.7395 23.9483 22.3437 22.3441C23.9478 20.74 24.7499 18.7921 24.7499 16.5004C24.7499 14.2087 23.9478 12.2608 22.3437 10.6566C20.7395 9.05247 18.7916 8.25039 16.4999 8.25039C14.2082 8.25039 12.2603 9.05247 10.6562 10.6566C9.05199 12.2608 8.2499 14.2087 8.2499 16.5004C8.2499 18.7921 9.05199 20.74 10.6562 22.3441C12.2603 23.9483 14.2082 24.7504 16.4999 24.7504ZM16.4999 22.0004C14.9874 22.0004 13.6926 21.4618 12.6155 20.3848C11.5384 19.3077 10.9999 18.0129 10.9999 16.5004C10.9999 14.9879 11.5384 13.6931 12.6155 12.616C13.6926 11.5389 14.9874 11.0004 16.4999 11.0004C18.0124 11.0004 19.3072 11.5389 20.3843 12.616C21.4614 13.6931 21.9999 14.9879 21.9999 16.5004C21.9999 18.0129 21.4614 19.3077 20.3843 20.3848C19.3072 21.4618 18.0124 22.0004 16.4999 22.0004ZM16.4999 28.1879L19.9374 24.7504H24.7499V19.9379L28.1874 16.5004L24.7499 13.0629V8.25039H19.9374L16.4999 4.81289L13.0624 8.25039H8.2499V13.0629L4.8124 16.5004L8.2499 19.9379V24.7504H13.0624L16.4999 28.1879Z" fill="url(#paint0_linear_2831_6184)"/>
</g>
<defs>
<linearGradient id="paint0_linear_2831_6184" x1="-12.516" y1="16.4753" x2="39.1398" y2="16.356" gradientUnits="userSpaceOnUse">
<stop offset="0.317708" stop-color="#E43425"/>
<stop offset="0.71875" stop-color="#441FD8"/>
<stop offset="1" stop-color="#0A26B8"/>
</linearGradient>
</defs>
</svg>
