<svg width="23" height="30" viewBox="0 0 23 30" fill="none" xmlns="http://www.w3.org/2000/svg">
<path d="M11.3333 14.9997C9.775 14.9997 8.5 13.7247 8.5 12.1663C8.5 10.608 9.775 9.33301 11.3333 9.33301C12.8917 9.33301 14.1667 10.608 14.1667 12.1663C14.1667 13.7247 12.8917 14.9997 11.3333 14.9997ZM19.8333 12.4497C19.8333 7.30717 16.0792 3.66634 11.3333 3.66634C6.5875 3.66634 2.83333 7.30717 2.83333 12.4497C2.83333 15.7647 5.59583 20.1563 11.3333 25.398C17.0708 20.1563 19.8333 15.7647 19.8333 12.4497ZM11.3333 0.833008C17.2833 0.833008 22.6667 5.39467 22.6667 12.4497C22.6667 17.153 18.8842 22.7205 11.3333 29.1663C3.7825 22.7205 0 17.153 0 12.4497C0 5.39467 5.38333 0.833008 11.3333 0.833008Z" fill="url(#paint0_linear_2831_6162)"/>
<defs>
<linearGradient id="paint0_linear_2831_6162" x1="-9.83142" y1="14.9768" x2="27.8474" y2="14.9072" gradientUnits="userSpaceOnUse">
<stop offset="0.317708" stop-color="#E43425"/>
<stop offset="0.71875" stop-color="#441FD8"/>
<stop offset="1" stop-color="#0A26B8"/>
</linearGradient>
</defs>
</svg>
