<svg width="34" height="34" viewBox="0 0 34 34" fill="none" xmlns="http://www.w3.org/2000/svg">
<mask id="mask0_2831_6176" style="mask-type:alpha" maskUnits="userSpaceOnUse" x="0" y="0" width="34" height="34">
<rect width="34" height="34" fill="#D9D9D9"/>
</mask>
<g mask="url(#mask0_2831_6176)">
<path d="M16.5752 25.4997C14.3085 25.3816 12.396 24.508 10.8377 22.8788C9.27933 21.2497 8.50016 19.29 8.50016 16.9997C8.50016 14.6386 9.32655 12.6316 10.9793 10.9788C12.6321 9.32606 14.6391 8.49967 17.0002 8.49967C19.2904 8.49967 21.2502 9.27884 22.8793 10.8372C24.5085 12.3955 25.3821 14.308 25.5002 16.5747L22.5252 15.6893C22.2182 14.4143 21.5571 13.3695 20.5418 12.5549C19.5266 11.7403 18.346 11.333 17.0002 11.333C15.4418 11.333 14.1078 11.8879 12.9981 12.9976C11.8884 14.1073 11.3335 15.4413 11.3335 16.9997C11.3335 18.3455 11.7408 19.5261 12.5554 20.5413C13.37 21.5566 14.4147 22.2177 15.6897 22.5247L16.5752 25.4997ZM18.2752 31.0955C18.0627 31.1427 17.8502 31.1663 17.6377 31.1663H17.0002C15.0404 31.1663 13.1988 30.7945 11.4752 30.0507C9.75155 29.307 8.25225 28.2976 6.97725 27.0226C5.70225 25.7476 4.69287 24.2483 3.94912 22.5247C3.20537 20.8011 2.8335 18.9594 2.8335 16.9997C2.8335 15.04 3.20537 13.1983 3.94912 11.4747C4.69287 9.75106 5.70225 8.25176 6.97725 6.97676C8.25225 5.70176 9.75155 4.69238 11.4752 3.94863C13.1988 3.20488 15.0404 2.83301 17.0002 2.83301C18.9599 2.83301 20.8016 3.20488 22.5252 3.94863C24.2488 4.69238 25.7481 5.70176 27.0231 6.97676C28.2981 8.25176 29.3075 9.75106 30.0512 11.4747C30.795 13.1983 31.1668 15.04 31.1668 16.9997V17.6372C31.1668 17.8497 31.1432 18.0622 31.096 18.2747L28.3335 17.4247V16.9997C28.3335 13.8358 27.2356 11.1559 25.0397 8.96009C22.8439 6.76426 20.1641 5.66634 17.0002 5.66634C13.8363 5.66634 11.1564 6.76426 8.96058 8.96009C6.76475 11.1559 5.66683 13.8358 5.66683 16.9997C5.66683 20.1636 6.76475 22.8434 8.96058 25.0393C11.1564 27.2351 13.8363 28.333 17.0002 28.333H17.4252L18.2752 31.0955ZM29.0772 31.8747L23.021 25.8184L21.2502 31.1663L17.0002 16.9997L31.1668 21.2497L25.8189 23.0205L31.8752 29.0768L29.0772 31.8747Z" fill="url(#paint0_linear_2831_6176)"/>
</g>
<defs>
<linearGradient id="paint0_linear_2831_6176" x1="-9.76301" y1="17.3304" x2="38.5128" y2="17.2189" gradientUnits="userSpaceOnUse">
<stop offset="0.317708" stop-color="#E43425"/>
<stop offset="0.71875" stop-color="#441FD8"/>
<stop offset="1" stop-color="#0A26B8"/>
</linearGradient>
</defs>
</svg>
