<svg width="144" height="98" viewBox="0 0 144 98" fill="none" xmlns="http://www.w3.org/2000/svg">
<path d="M142.075 3.92311L131.347 48.4717L132.634 48.7817L143.362 4.23317L142.075 3.92311Z" fill="url(#paint0_linear_2188_168)"/>
<path d="M125.471 54.216C125.471 54.216 130.927 44.9456 132.788 45.8031C134.648 46.6606 137.631 50.3158 137.37 51.3653C137.108 52.4149 129.311 55.4708 129.311 55.4708L125.471 54.2193V54.216Z" fill="url(#paint1_linear_2188_168)"/>
<path d="M11.9153 54.4044C11.9153 54.4044 6.45902 45.1341 4.59833 45.9916C2.73763 46.8491 -0.245445 50.5043 0.0161118 51.5538C0.277669 52.6033 8.07471 55.6592 8.07471 55.6592L11.9153 54.4077V54.4044Z" fill="url(#paint2_linear_2188_168)"/>
<path d="M68.898 97.3992C93.2522 97.3992 112.995 78.0402 112.995 54.1596C112.995 30.279 93.2522 10.9199 68.898 10.9199C44.5438 10.9199 24.8008 30.279 24.8008 54.1596C24.8008 78.0402 44.5438 97.3992 68.898 97.3992Z" fill="url(#paint3_linear_2188_168)"/>
<path d="M129.927 56.1624L129.533 55.5102C129.007 54.6461 128.364 53.8813 127.742 53.1396C127.361 52.6861 127 52.2556 126.666 51.8021C126.421 51.4743 125.98 51.3783 125.626 51.5769L125.557 51.6166C125.385 51.6895 125.163 51.7921 124.871 51.9279C124.871 51.9279 112.535 59.7481 107.552 62.5855C102.715 56.467 98.8316 51.1432 95.4015 45.9286C95.1466 45.5512 94.8883 45.1572 94.6202 44.7499C92.8952 42.1211 90.6405 38.6845 87.4687 37.3668C86.3033 36.6781 85.2339 36.4066 84.479 36.2907C80.367 35.655 75.4537 35.218 69.5968 35.2511C69.3849 35.2511 69.1796 35.2577 68.971 35.2611C68.8551 35.2611 68.736 35.2611 68.6201 35.2611C68.5042 35.2611 68.3883 35.2611 68.2691 35.2611C68.0605 35.2577 67.8553 35.2511 67.6434 35.2511C61.7898 35.2147 56.8732 35.655 52.7611 36.2907C51.5858 36.4728 49.6655 37.0224 47.7849 38.9361C45.8646 40.5717 44.3615 42.8661 43.1266 44.7499C42.8584 45.1572 42.6001 45.5512 42.3452 45.9286C38.9152 51.1432 35.0315 56.467 30.1944 62.5855C25.2116 59.7481 12.8753 51.9279 12.8753 51.9279C12.5807 51.7921 12.3622 51.6895 12.19 51.62L12.1205 51.5769C11.7662 51.3816 11.3259 51.4776 11.0809 51.8021C10.7432 52.2523 10.3856 52.6827 10.0048 53.1396C9.38571 53.8813 8.7434 54.6461 8.21698 55.5102L7.82299 56.1624C7.72697 56.318 7.69055 56.4968 7.7038 56.669C7.72035 56.8743 7.80974 57.0696 7.96867 57.2153L8.02826 57.2716C11.9947 60.9532 22.4569 70.0846 26.3637 72.912C26.771 73.2166 27.3471 73.6338 28.0788 74.1436C30.5718 75.8885 33.78 76.0871 36.4519 74.6535C36.8028 74.4648 37.0876 74.243 37.3226 73.998C37.3293 73.9914 37.3392 73.9847 37.3458 73.9781C38.6072 72.8392 39.1171 72.4452 40.4713 70.9619C43.0305 68.2404 45.5402 65.4129 47.9604 62.5358C49.3907 71.2069 49.9933 85.3012 50.2316 93.3995C50.2316 93.3797 50.2316 93.3631 50.2316 93.3433C55.8998 95.9423 62.2202 97.3957 68.8916 97.3957C75.5629 97.3957 81.4761 96.035 87.0019 93.5916C87.2436 85.4105 87.8627 70.8427 89.3625 62.0259C91.9119 65.0785 94.5639 68.0815 97.2755 70.9619C98.6296 72.4452 99.1395 72.8425 100.401 73.9781C100.408 73.9847 100.417 73.9914 100.424 73.998C100.659 74.2463 100.944 74.4648 101.295 74.6535C103.967 76.0838 107.175 75.8885 109.668 74.1436C110.396 73.6338 110.976 73.2166 111.383 72.912C115.286 70.0846 125.752 60.9532 129.718 57.2716L129.778 57.2153C129.937 57.0696 130.026 56.871 130.043 56.669C130.056 56.4968 130.02 56.318 129.924 56.1624H129.927Z" fill="white"/>
<path opacity="0.9" d="M129.927 56.1624L129.533 55.5102C129.007 54.6461 128.364 53.8813 127.742 53.1396C127.361 52.6861 127 52.2556 126.666 51.8021C126.421 51.4743 125.98 51.3783 125.626 51.5769L125.557 51.6166C125.385 51.6895 125.163 51.7921 124.871 51.9279C124.871 51.9279 112.535 59.7481 107.552 62.5855C102.715 56.467 98.8316 51.1432 95.4015 45.9286C95.1466 45.5512 94.8883 45.1572 94.6202 44.7499C92.8952 42.1211 90.6405 38.6845 87.4687 37.3668C86.3033 36.6781 85.2339 36.4066 84.479 36.2907C80.367 35.655 75.4537 35.218 69.5968 35.2511C69.3849 35.2511 69.1796 35.2577 68.971 35.2611C68.8551 35.2611 68.736 35.2611 68.6201 35.2611C68.5042 35.2611 68.3883 35.2611 68.2691 35.2611C68.0605 35.2577 67.8553 35.2511 67.6434 35.2511C61.7898 35.2147 56.8732 35.655 52.7611 36.2907C51.5858 36.4728 49.6655 37.0224 47.7849 38.9361C45.8646 40.5717 44.3615 42.8661 43.1266 44.7499C42.8584 45.1572 42.6001 45.5512 42.3452 45.9286C38.9152 51.1432 35.0315 56.467 30.1944 62.5855C25.2116 59.7481 12.8753 51.9279 12.8753 51.9279C12.5807 51.7921 12.3622 51.6895 12.19 51.62L12.1205 51.5769C11.7662 51.3816 11.3259 51.4776 11.0809 51.8021C10.7432 52.2523 10.3856 52.6827 10.0048 53.1396C9.38571 53.8813 8.7434 54.6461 8.21698 55.5102L7.82299 56.1624C7.72697 56.318 7.69055 56.4968 7.7038 56.669C7.72035 56.8743 7.80974 57.0696 7.96867 57.2153L8.02826 57.2716C11.9947 60.9532 22.4569 70.0846 26.3637 72.912C26.771 73.2166 27.3471 73.6338 28.0788 74.1436C30.5718 75.8885 33.78 76.0871 36.4519 74.6535C36.8028 74.4648 37.0876 74.243 37.3226 73.998C37.3293 73.9914 37.3392 73.9847 37.3458 73.9781C38.6072 72.8392 39.1171 72.4452 40.4713 70.9619C43.0305 68.2404 45.5402 65.4129 47.9604 62.5358C49.3907 71.2069 49.9933 85.3012 50.2316 93.3995C50.2316 93.3797 50.2316 93.3631 50.2316 93.3433C55.8998 95.9423 62.2202 97.3957 68.8916 97.3957C75.5629 97.3957 81.4761 96.035 87.0019 93.5916C87.2436 85.4105 87.8627 70.8427 89.3625 62.0259C91.9119 65.0785 94.5639 68.0815 97.2755 70.9619C98.6296 72.4452 99.1395 72.8425 100.401 73.9781C100.408 73.9847 100.417 73.9914 100.424 73.998C100.659 74.2463 100.944 74.4648 101.295 74.6535C103.967 76.0838 107.175 75.8885 109.668 74.1436C110.396 73.6338 110.976 73.2166 111.383 72.912C115.286 70.0846 125.752 60.9532 129.718 57.2716L129.778 57.2153C129.937 57.0696 130.026 56.871 130.043 56.669C130.056 56.4968 130.02 56.318 129.924 56.1624H129.927Z" fill="url(#paint4_linear_2188_168)"/>
<path d="M68.5605 0.997439C78.6752 0.782233 78.993 11.1485 77.6753 17.6841C76.639 18.2105 76.6953 16.4028 76.7781 15.681C77.0032 13.6283 76.9701 11.2412 76.1291 9.35402C75.7914 8.59583 75.2749 7.92704 74.573 7.51981C72.9077 6.55304 71.3615 7.52643 69.7789 7.76812C68.0308 8.0363 66.5012 7.36089 64.8623 7.06622C64.5544 7.00994 64.2399 6.97021 63.9221 6.95034C61.3727 6.79804 60.3496 8.94678 60.1477 11.2809C60.0086 12.8999 60.3033 15.3036 60.0881 16.9524C60.0484 17.2603 59.8464 17.4921 59.5981 17.5914C58.2506 11.0657 58.5452 0.901424 68.5605 0.997439Z" fill="url(#paint5_linear_2188_168)"/>
<path d="M77.7253 16.8232C77.3446 16.9324 76.9969 17.1576 76.9969 17.1576L76.8281 17.2933C76.5434 16.8629 76.6162 16.1709 76.6692 15.6876C76.8943 13.6348 76.8612 11.2477 76.0202 9.36053C75.6825 8.60235 75.166 7.93356 74.4641 7.52632C72.7988 6.55956 71.2526 7.53294 69.67 7.77464C67.9219 8.04282 66.3923 7.3674 64.7534 7.07274C64.4455 7.01645 64.131 6.97672 63.8131 6.95686C61.2638 6.80456 60.2407 8.9533 60.0388 11.2874C59.8997 12.9064 60.1944 15.3101 59.9792 16.9589C59.9726 17.0053 59.956 17.045 59.9428 17.088C59.3468 16.8066 58.1483 16.4557 58.7343 18.5481C59.1018 19.8625 59.7673 20.485 60.3632 20.783C60.4427 21.0048 60.5222 21.22 60.6016 21.412C62.6676 26.4346 65.1905 28.8647 68.6139 28.8449C72.1631 28.825 74.5304 26.365 76.54 21.3226C76.6096 21.1538 76.6758 20.9684 76.7453 20.7763C77.3777 20.5115 78.1425 19.8956 78.5332 18.4389C78.9768 16.7768 78.318 16.661 77.7319 16.8265" fill="url(#paint6_linear_2188_168)"/>
<path d="M68.6271 68.2143L81.556 35.8971C78.0895 35.4866 74.1297 35.2283 69.6038 35.2548C69.3919 35.2548 69.1866 35.2614 68.978 35.2647C68.8622 35.2647 68.7463 35.2647 68.6271 35.2647C68.5112 35.2647 68.3953 35.2647 68.2762 35.2647C68.0676 35.2614 67.8623 35.2548 67.6504 35.2548C63.1245 35.2283 59.1614 35.4833 55.6982 35.8971L68.6271 68.2143Z" fill="url(#paint7_linear_2188_168)"/>
<path d="M68.627 34.3905L64.1805 32.1656C63.6243 31.8875 62.9688 32.2914 62.9688 32.9139V38.6946C62.9688 39.3171 63.6243 39.721 64.1805 39.4429L68.627 37.218L73.0735 39.4429C73.6297 39.721 74.2852 39.3171 74.2852 38.6946V32.9139C74.2852 32.2914 73.6297 31.8875 73.0735 32.1656L68.627 34.3905Z" fill="#001464"/>
<defs>
<linearGradient id="paint0_linear_2188_168" x1="131.991" y1="48.6242" x2="142.718" y2="4.07929" gradientUnits="userSpaceOnUse">
<stop stop-color="#444B8B"/>
<stop offset="0.99" stop-color="#26264F"/>
</linearGradient>
<linearGradient id="paint1_linear_2188_168" x1="132.744" y1="48.3368" x2="129.865" y2="58.0317" gradientUnits="userSpaceOnUse">
<stop stop-color="#F8C9C6"/>
<stop offset="1" stop-color="#F26F56"/>
</linearGradient>
<linearGradient id="paint2_linear_2188_168" x1="4.83942" y1="49.5904" x2="7.99993" y2="59.2" gradientUnits="userSpaceOnUse">
<stop stop-color="#F8C9C6"/>
<stop offset="1" stop-color="#F26F56"/>
</linearGradient>
<linearGradient id="paint3_linear_2188_168" x1="69" y1="97" x2="69" y2="11" gradientUnits="userSpaceOnUse">
<stop stop-color="#7399EF"/>
<stop offset="0.14" stop-color="#8BB0F2"/>
<stop offset="0.32" stop-color="#A2C6F5"/>
<stop offset="0.51" stop-color="#B3D5F7"/>
<stop offset="0.73" stop-color="#BCDFF8"/>
<stop offset="1" stop-color="#C0E2F9"/>
</linearGradient>
<linearGradient id="paint4_linear_2188_168" x1="-45.3644" y1="66.2722" x2="158.005" y2="65.3477" gradientUnits="userSpaceOnUse">
<stop offset="0.317708" stop-color="#E43425"/>
<stop offset="0.71875" stop-color="#441FD8"/>
<stop offset="1" stop-color="#0A26B8"/>
</linearGradient>
<linearGradient id="paint5_linear_2188_168" x1="68.5473" y1="-1.76398" x2="68.611" y2="9.64833" gradientUnits="userSpaceOnUse">
<stop stop-color="#331809"/>
<stop offset="0.1" stop-color="#331809"/>
<stop offset="0.19" stop-color="#3D1C08"/>
<stop offset="0.66" stop-color="#6C3406"/>
<stop offset="0.9" stop-color="#7F3D06"/>
<stop offset="1" stop-color="#7F3D06"/>
</linearGradient>
<linearGradient id="paint6_linear_2188_168" x1="68.5311" y1="4.66244" x2="69.0211" y2="72.1243" gradientUnits="userSpaceOnUse">
<stop stop-color="#F8C9C6"/>
<stop offset="1" stop-color="#F26F56"/>
</linearGradient>
<linearGradient id="paint7_linear_2188_168" x1="75.6891" y1="86.6193" x2="54.5659" y2="-65.0771" gradientUnits="userSpaceOnUse">
<stop stop-color="white"/>
<stop offset="0.35" stop-color="#FBFCFD"/>
<stop offset="0.63" stop-color="#F2F3F8"/>
<stop offset="0.88" stop-color="#E1E4EF"/>
<stop offset="1" stop-color="#D7DBEA"/>
</linearGradient>
</defs>
</svg>
