<svg width="48" height="48" viewBox="0 0 48 48" fill="none" xmlns="http://www.w3.org/2000/svg">
<mask id="mask0_9493_5717" style="mask-type:alpha" maskUnits="userSpaceOnUse" x="0" y="0" width="48" height="48">
<rect width="48" height="48" fill="#D9D9D9"/>
</mask>
<g mask="url(#mask0_9493_5717)">
<path d="M15.154 23.6925V21.6925H13.154V23.6925H15.154ZM24.4385 23.6925C24.6512 23.3102 24.8903 22.9588 25.156 22.6385C25.4213 22.3178 25.7002 22.0025 25.9925 21.6925H19.154V23.6925H24.4385ZM22.5075 30.846C22.4922 30.7693 22.4827 30.688 22.479 30.602C22.475 30.516 22.473 30.4307 22.473 30.346C22.473 30.082 22.475 29.8302 22.479 29.5905C22.4827 29.3508 22.505 29.1027 22.546 28.846H13.154V30.846H22.5075ZM25.1345 38H9.231C8.336 38 7.57367 37.6853 6.944 37.056C6.31467 36.4263 6 35.664 6 34.769V13.231C6 12.336 6.31467 11.5737 6.944 10.944C7.57367 10.3147 8.336 10 9.231 10H38.769C39.664 10 40.4263 10.3147 41.056 10.944C41.6853 11.5737 42 12.336 42 13.231V20.3C41.6897 20.0333 41.3743 19.7993 41.054 19.598C40.7333 19.3967 40.382 19.2153 40 19.054V13.231C40 12.872 39.8847 12.577 39.654 12.346C39.423 12.1153 39.128 12 38.769 12H9.231C8.872 12 8.577 12.1153 8.346 12.346C8.11533 12.577 8 12.872 8 13.231V34.769C8 35.128 8.11533 35.423 8.346 35.654C8.577 35.8847 8.872 36 9.231 36H23.823C24.0103 36.382 24.209 36.7333 24.419 37.054C24.6293 37.3743 24.8678 37.6897 25.1345 38ZM35.731 38H34.0385L33.746 35.6925C33.1923 35.5768 32.67 35.3825 32.179 35.1095C31.688 34.8365 31.2463 34.4897 30.854 34.069L28.6845 34.931L27.8385 33.4925L29.677 32.1075C29.4563 31.5462 29.346 30.959 29.346 30.346C29.346 29.7333 29.4563 29.1462 29.677 28.5845L27.877 27.123L28.723 25.6845L30.854 26.5845C31.2207 26.1642 31.6558 25.8238 32.1595 25.5635C32.6635 25.3032 33.1923 25.1153 33.746 25L34.0385 22.6925H35.731L35.9845 25C36.5385 25.1153 37.0693 25.307 37.577 25.575C38.0847 25.843 38.518 26.1872 38.877 26.6075L41.0075 25.6845L41.854 27.146L40.054 28.6075C40.2743 29.1692 40.3845 29.7525 40.3845 30.3575C40.3845 30.9628 40.2743 31.5462 40.054 32.1075L41.8925 33.4925L41.046 34.931L38.877 34.069C38.4847 34.4897 38.043 34.8365 37.552 35.1095C37.061 35.3825 36.5385 35.5768 35.9845 35.6925L35.731 38ZM34.846 33.9615C35.8437 33.9615 36.6957 33.6083 37.402 32.902C38.1083 32.1957 38.4615 31.3437 38.4615 30.346C38.4615 29.3487 38.1083 28.4968 37.402 27.7905C36.6957 27.0842 35.8437 26.731 34.846 26.731C33.8487 26.731 32.9968 27.0842 32.2905 27.7905C31.5842 28.4968 31.231 29.3487 31.231 30.346C31.231 31.3437 31.5842 32.1957 32.2905 32.902C32.9968 33.6083 33.8487 33.9615 34.846 33.9615Z" fill="url(#paint0_linear_9493_5717)"/>
</g>
<defs>
<linearGradient id="paint0_linear_9493_5717" x1="-9.61461" y1="23.9774" x2="50.2278" y2="23.7997" gradientUnits="userSpaceOnUse">
<stop offset="0.317708" stop-color="#E43425"/>
<stop offset="0.71875" stop-color="#441FD8"/>
<stop offset="1" stop-color="#0A26B8"/>
</linearGradient>
</defs>
</svg>
