<svg width="48" height="48" viewBox="0 0 48 48" fill="none" xmlns="http://www.w3.org/2000/svg">
<mask id="mask0_9493_5711" style="mask-type:alpha" maskUnits="userSpaceOnUse" x="0" y="0" width="48" height="48">
<rect width="48" height="48" fill="#D9D9D9"/>
</mask>
<g mask="url(#mask0_9493_5711)">
<path d="M24.0065 42C21.5175 42 19.1773 41.5277 16.986 40.583C14.795 39.6383 12.889 38.3563 11.268 36.737C9.647 35.1177 8.36383 33.2133 7.4185 31.024C6.47283 28.835 6 26.4958 6 24.0065C6 21.5175 6.47233 19.1773 7.417 16.986C8.36167 14.795 9.64367 12.889 11.263 11.268C12.8823 9.647 14.7867 8.36383 16.976 7.4185C19.165 6.47283 21.5042 6 23.9935 6C26.4825 6 28.8227 6.47233 31.014 7.417C33.205 8.36167 35.111 9.64367 36.732 11.263C38.353 12.8823 39.6362 14.7867 40.5815 16.976C41.5272 19.165 42 21.5042 42 23.9935C42 26.4825 41.5277 28.8227 40.583 31.014C39.6383 33.205 38.3563 35.111 36.737 36.732C35.1177 38.353 33.2133 39.6362 31.024 40.5815C28.835 41.5272 26.4958 42 24.0065 42ZM22 39.9V36C20.9 36 19.9583 35.6083 19.175 34.825C18.3917 34.0417 18 33.1 18 32V30L8.4 20.4C8.3 21 8.20833 21.6 8.125 22.2C8.04167 22.8 8 23.4 8 24C8 28.0333 9.325 31.5667 11.975 34.6C14.625 37.6333 17.9667 39.4 22 39.9ZM35.8 34.8C37.1667 33.3 38.2083 31.625 38.925 29.775C39.6417 27.925 40 25.9952 40 23.9855C40 20.7032 39.098 17.7055 37.294 14.9925C35.4903 12.2795 33.059 10.323 30 9.123V10C30 11.1 29.6083 12.0417 28.825 12.825C28.0417 13.6083 27.1 14 26 14H22V18C22 18.5667 21.8083 19.0417 21.425 19.425C21.0417 19.8083 20.5667 20 20 20H16V24H28C28.5667 24 29.0417 24.1917 29.425 24.575C29.8083 24.9583 30 25.4333 30 26V32H32C32.8667 32 33.65 32.2583 34.35 32.775C35.05 33.2917 35.5333 33.9667 35.8 34.8Z" fill="url(#paint0_linear_9493_5711)"/>
</g>
<defs>
<linearGradient id="paint0_linear_9493_5711" x1="-9.61461" y1="23.9709" x2="50.228" y2="23.8327" gradientUnits="userSpaceOnUse">
<stop offset="0.317708" stop-color="#E43425"/>
<stop offset="0.71875" stop-color="#441FD8"/>
<stop offset="1" stop-color="#0A26B8"/>
</linearGradient>
</defs>
</svg>
