<svg width="266" height="98" viewBox="0 0 266 98" fill="none" xmlns="http://www.w3.org/2000/svg">
<path d="M264.311 40.7288L257.774 67.7363L258.559 67.9243L265.096 40.9167L264.311 40.7288Z" fill="url(#paint0_linear_2449_110)"/>
<path d="M254.193 71.2192C254.193 71.2192 257.518 65.5991 258.652 66.1189C259.786 66.6388 261.604 68.8547 261.444 69.491C261.285 70.1273 256.534 71.9799 256.534 71.9799L254.193 71.2212V71.2192Z" fill="url(#paint1_linear_2449_110)"/>
<path d="M184.996 71.3335C184.996 71.3335 181.671 65.7133 180.537 66.2332C179.404 66.753 177.586 68.969 177.745 69.6053C177.905 70.2416 182.656 72.0942 182.656 72.0942L184.996 71.3355V71.3335Z" fill="url(#paint2_linear_2449_110)"/>
<path d="M219.72 97.3988C234.561 97.3988 246.592 85.6624 246.592 71.1847C246.592 56.7071 234.561 44.9707 219.72 44.9707C204.879 44.9707 192.849 56.7071 192.849 71.1847C192.849 85.6624 204.879 97.3988 219.72 97.3988Z" fill="url(#paint3_linear_2449_110)"/>
<path d="M256.909 72.3995L256.669 72.004C256.348 71.4802 255.957 71.0165 255.578 70.5669C255.346 70.2919 255.126 70.031 254.922 69.756C254.773 69.5573 254.504 69.4991 254.288 69.6195L254.246 69.6436C254.141 69.6877 254.006 69.75 253.828 69.8323C253.828 69.8323 246.311 74.5733 243.275 76.2934C240.327 72.5841 237.96 69.3565 235.87 66.1952C235.715 65.9664 235.558 65.7275 235.394 65.4806C234.343 63.8869 232.969 61.8034 231.036 61.0046C230.326 60.5871 229.674 60.4225 229.214 60.3522C226.709 59.9669 223.715 59.7019 220.146 59.722C220.016 59.722 219.891 59.726 219.764 59.728C219.694 59.728 219.621 59.728 219.55 59.728C219.48 59.728 219.409 59.728 219.337 59.728C219.209 59.726 219.084 59.722 218.955 59.722C215.388 59.6999 212.392 59.9669 209.886 60.3522C209.17 60.4626 208 60.7958 206.854 61.956C205.684 62.9475 204.768 64.3385 204.015 65.4806C203.852 65.7275 203.695 65.9664 203.539 66.1952C201.449 69.3565 199.083 72.5841 196.135 76.2934C193.099 74.5733 185.581 69.8323 185.581 69.8323C185.402 69.75 185.268 69.6877 185.164 69.6456L185.121 69.6195C184.905 69.5011 184.637 69.5593 184.488 69.756C184.282 70.029 184.064 70.2899 183.832 70.5669C183.455 71.0165 183.063 71.4802 182.743 72.004L182.502 72.3995C182.444 72.4938 182.422 72.6022 182.43 72.7066C182.44 72.831 182.494 72.9494 182.591 73.0378L182.628 73.0719C185.045 75.3039 191.42 80.8397 193.801 82.5539C194.049 82.7386 194.4 82.9915 194.846 83.3006C196.365 84.3584 198.32 84.4788 199.948 83.6097C200.162 83.4953 200.335 83.3608 200.479 83.2123C200.483 83.2082 200.489 83.2042 200.493 83.2002C201.261 82.5097 201.572 82.2709 202.397 81.3717C203.957 79.7217 205.486 78.0076 206.961 76.2633C207.833 81.5202 208.2 90.0648 208.345 94.9745C208.345 94.9624 208.345 94.9524 208.345 94.9403C211.799 96.516 215.651 97.3971 219.716 97.3971C223.781 97.3971 227.385 96.5722 230.752 95.0909C230.899 90.1311 231.276 81.2994 232.19 75.9542C233.744 77.8049 235.36 79.6254 237.012 81.3717C237.837 82.2709 238.148 82.5117 238.917 83.2002C238.921 83.2042 238.927 83.2082 238.931 83.2123C239.074 83.3628 239.248 83.4953 239.461 83.6097C241.09 84.4768 243.045 84.3584 244.564 83.3006C245.008 82.9915 245.361 82.7386 245.609 82.5539C247.988 80.8397 254.365 75.3039 256.782 73.0719L256.818 73.0378C256.915 72.9494 256.97 72.829 256.98 72.7066C256.988 72.6022 256.966 72.4938 256.907 72.3995H256.909Z" fill="white"/>
<path d="M256.909 72.3995L256.669 72.004C256.348 71.4802 255.957 71.0165 255.578 70.5669C255.346 70.2919 255.126 70.031 254.922 69.756C254.773 69.5573 254.504 69.4991 254.288 69.6195L254.246 69.6436C254.141 69.6877 254.006 69.75 253.828 69.8323C253.828 69.8323 246.311 74.5733 243.275 76.2934C240.327 72.5841 237.96 69.3565 235.87 66.1952C235.715 65.9664 235.558 65.7275 235.394 65.4806C234.343 63.8869 232.969 61.8034 231.036 61.0046C230.326 60.5871 229.674 60.4225 229.214 60.3522C226.709 59.9669 223.715 59.7019 220.146 59.722C220.016 59.722 219.891 59.726 219.764 59.728C219.694 59.728 219.621 59.728 219.55 59.728C219.48 59.728 219.409 59.728 219.337 59.728C219.209 59.726 219.084 59.722 218.955 59.722C215.388 59.6999 212.392 59.9669 209.886 60.3522C209.17 60.4626 208 60.7958 206.854 61.956C205.684 62.9475 204.768 64.3385 204.015 65.4806C203.852 65.7275 203.695 65.9664 203.539 66.1952C201.449 69.3565 199.083 72.5841 196.135 76.2934C193.099 74.5733 185.581 69.8323 185.581 69.8323C185.402 69.75 185.268 69.6877 185.164 69.6456L185.121 69.6195C184.905 69.5011 184.637 69.5593 184.488 69.756C184.282 70.029 184.064 70.2899 183.832 70.5669C183.455 71.0165 183.063 71.4802 182.743 72.004L182.502 72.3995C182.444 72.4938 182.422 72.6022 182.43 72.7066C182.44 72.831 182.494 72.9494 182.591 73.0378L182.628 73.0719C185.045 75.3039 191.42 80.8397 193.801 82.5539C194.049 82.7386 194.4 82.9915 194.846 83.3006C196.365 84.3584 198.32 84.4788 199.948 83.6097C200.162 83.4953 200.335 83.3608 200.479 83.2123C200.483 83.2082 200.489 83.2042 200.493 83.2002C201.261 82.5097 201.572 82.2709 202.397 81.3717C203.957 79.7217 205.486 78.0076 206.961 76.2633C207.833 81.5202 208.2 90.0648 208.345 94.9745C208.345 94.9624 208.345 94.9524 208.345 94.9403C211.799 96.516 215.651 97.3971 219.716 97.3971C223.781 97.3971 227.385 96.5722 230.752 95.0909C230.899 90.1311 231.276 81.2994 232.19 75.9542C233.744 77.8049 235.36 79.6254 237.012 81.3717C237.837 82.2709 238.148 82.5117 238.917 83.2002C238.921 83.2042 238.927 83.2082 238.931 83.2123C239.074 83.3628 239.248 83.4953 239.461 83.6097C241.09 84.4768 243.045 84.3584 244.564 83.3006C245.008 82.9915 245.361 82.7386 245.609 82.5539C247.988 80.8397 254.365 75.3039 256.782 73.0719L256.818 73.0378C256.915 72.9494 256.97 72.829 256.98 72.7066C256.988 72.6022 256.966 72.4938 256.907 72.3995H256.909Z" fill="url(#paint4_linear_2449_110)" fill-opacity="0.85"/>
<path d="M219.514 38.9551C225.678 38.8247 225.871 45.1092 225.068 49.0714C224.437 49.3906 224.471 48.2946 224.522 47.8571C224.659 46.6126 224.639 45.1654 224.126 44.0213C223.92 43.5617 223.606 43.1562 223.178 42.9093C222.163 42.3232 221.221 42.9133 220.256 43.0599C219.191 43.2224 218.259 42.813 217.26 42.6343C217.073 42.6002 216.881 42.5761 216.687 42.5641C215.134 42.4717 214.511 43.7744 214.387 45.1895C214.303 46.171 214.482 47.6282 214.351 48.6278C214.327 48.8145 214.204 48.955 214.053 49.0152C213.231 45.059 213.411 38.8969 219.514 38.9551Z" fill="url(#paint5_linear_2449_110)"/>
<path d="M225.099 48.5496C224.866 48.6158 224.655 48.7523 224.655 48.7523L224.552 48.8346C224.378 48.5737 224.423 48.1541 224.455 47.8611C224.592 46.6166 224.572 45.1694 224.059 44.0253C223.854 43.5657 223.539 43.1602 223.111 42.9133C222.096 42.3272 221.154 42.9174 220.19 43.0639C219.125 43.2265 218.192 42.817 217.194 42.6384C217.006 42.6042 216.815 42.5802 216.621 42.5681C215.067 42.4758 214.444 43.7784 214.321 45.1935C214.236 46.175 214.416 47.6323 214.285 48.6319C214.281 48.66 214.27 48.684 214.262 48.7101C213.899 48.5395 213.169 48.3268 213.526 49.5953C213.75 50.3922 214.155 50.7695 214.519 50.9502C214.567 51.0847 214.615 51.2151 214.664 51.3315C215.923 54.3765 217.46 55.8498 219.546 55.8377C221.709 55.8257 223.152 54.3343 224.376 51.2774C224.419 51.175 224.459 51.0626 224.501 50.9462C224.887 50.7856 225.353 50.4122 225.591 49.5291C225.861 48.5215 225.46 48.4512 225.103 48.5516" fill="url(#paint6_linear_2449_110)"/>
<path d="M219.555 79.7055L227.433 60.1132C225.321 59.8643 222.908 59.7077 220.15 59.7238C220.021 59.7238 219.896 59.7278 219.769 59.7298C219.698 59.7298 219.627 59.7298 219.555 59.7298C219.484 59.7298 219.414 59.7298 219.341 59.7298C219.214 59.7278 219.089 59.7238 218.96 59.7238C216.202 59.7077 213.787 59.8623 211.676 60.1132L219.555 79.7055Z" fill="url(#paint7_linear_2449_110)"/>
<path d="M219.554 59.1999L216.845 57.8511C216.506 57.6825 216.106 57.9274 216.106 58.3047V61.8093C216.106 62.1867 216.506 62.4315 216.845 62.2629L219.554 60.9141L222.264 62.2629C222.603 62.4315 223.002 62.1867 223.002 61.8093V58.3047C223.002 57.9274 222.603 57.6825 222.264 57.8511L219.554 59.1999Z" fill="#001464"/>
<path d="M178.155 2.77172L171.618 29.7793L172.402 29.9673L178.94 2.9597L178.155 2.77172Z" fill="url(#paint8_linear_2449_110)"/>
<path d="M168.037 33.2612C168.037 33.2612 171.362 27.6411 172.496 28.1609C173.63 28.6808 175.448 30.8967 175.288 31.533C175.129 32.1693 170.377 34.0219 170.377 34.0219L168.037 33.2632V33.2612Z" fill="url(#paint9_linear_2449_110)"/>
<path d="M98.8395 33.3755C98.8395 33.3755 95.5146 27.7553 94.3807 28.2752C93.2468 28.795 91.429 31.011 91.5884 31.6473C91.7478 32.2836 96.4991 34.1362 96.4991 34.1362L98.8395 33.3775V33.3755Z" fill="url(#paint10_linear_2449_110)"/>
<path d="M133.563 59.4418C148.404 59.4418 160.435 47.7053 160.435 33.2277C160.435 18.7501 148.404 7.01367 133.563 7.01367C118.723 7.01367 106.692 18.7501 106.692 33.2277C106.692 47.7053 118.723 59.4418 133.563 59.4418Z" fill="url(#paint11_linear_2449_110)"/>
<path d="M170.753 34.4424L170.513 34.047C170.192 33.5231 169.801 33.0595 169.421 32.6099C169.189 32.3349 168.969 32.0739 168.766 31.7989C168.616 31.6002 168.348 31.542 168.132 31.6625L168.09 31.6865C167.985 31.7307 167.85 31.7929 167.672 31.8752C167.672 31.8752 160.155 36.6162 157.118 38.3364C154.171 34.6271 151.804 31.3995 149.714 28.2382C149.559 28.0094 149.401 27.7705 149.238 27.5236C148.187 25.9299 146.813 23.8464 144.88 23.0475C144.17 22.6301 143.518 22.4655 143.058 22.3952C140.552 22.0098 137.558 21.7449 133.989 21.7649C133.86 21.7649 133.735 21.769 133.608 21.771C133.537 21.771 133.465 21.771 133.394 21.771C133.324 21.771 133.253 21.771 133.18 21.771C133.053 21.769 132.928 21.7649 132.799 21.7649C129.232 21.7429 126.236 22.0098 123.73 22.3952C123.014 22.5056 121.844 22.8388 120.698 23.999C119.528 24.9905 118.612 26.3815 117.859 27.5236C117.696 27.7705 117.538 28.0094 117.383 28.2382C115.293 31.3995 112.926 34.6271 109.979 38.3364C106.942 36.6162 99.425 31.8752 99.425 31.8752C99.2454 31.7929 99.1122 31.7307 99.0073 31.6885L98.965 31.6625C98.7491 31.544 98.4808 31.6022 98.3315 31.7989C98.1257 32.0719 97.9078 32.3329 97.6758 32.6099C97.2985 33.0595 96.9071 33.5231 96.5863 34.047L96.3462 34.4424C96.2877 34.5368 96.2655 34.6452 96.2736 34.7495C96.2837 34.874 96.3381 34.9924 96.435 35.0807L96.4713 35.1148C98.8883 37.3468 105.264 42.8827 107.644 44.5969C107.893 44.7815 108.244 45.0344 108.689 45.3435C110.209 46.4013 112.164 46.5218 113.792 45.6526C114.006 45.5382 114.179 45.4038 114.322 45.2552C114.326 45.2512 114.333 45.2472 114.337 45.2432C115.105 44.5527 115.416 44.3138 116.241 43.4146C117.801 41.7647 119.33 40.0505 120.805 38.3063C121.676 43.5632 122.044 52.1078 122.189 57.0174C122.189 57.0054 122.189 56.9953 122.189 56.9833C125.643 58.559 129.494 59.4401 133.56 59.4401C137.625 59.4401 141.228 58.6152 144.596 57.1338C144.743 52.174 145.12 43.3424 146.034 37.9972C147.588 39.8478 149.204 41.6684 150.856 43.4146C151.681 44.3138 151.992 44.5547 152.76 45.2432C152.765 45.2472 152.771 45.2512 152.775 45.2552C152.918 45.4058 153.091 45.5382 153.305 45.6526C154.933 46.5198 156.888 46.4013 158.408 45.3435C158.851 45.0344 159.205 44.7815 159.453 44.5969C161.831 42.8827 168.209 37.3468 170.626 35.1148L170.662 35.0807C170.759 34.9924 170.813 34.872 170.823 34.7495C170.832 34.6452 170.809 34.5368 170.751 34.4424H170.753Z" fill="white"/>
<path d="M170.753 34.4424L170.513 34.047C170.192 33.5231 169.801 33.0595 169.421 32.6099C169.189 32.3349 168.969 32.0739 168.766 31.7989C168.616 31.6002 168.348 31.542 168.132 31.6625L168.09 31.6865C167.985 31.7307 167.85 31.7929 167.672 31.8752C167.672 31.8752 160.155 36.6162 157.118 38.3364C154.171 34.6271 151.804 31.3995 149.714 28.2382C149.559 28.0094 149.401 27.7705 149.238 27.5236C148.187 25.9299 146.813 23.8464 144.88 23.0475C144.17 22.6301 143.518 22.4655 143.058 22.3952C140.552 22.0098 137.558 21.7449 133.989 21.7649C133.86 21.7649 133.735 21.769 133.608 21.771C133.537 21.771 133.465 21.771 133.394 21.771C133.324 21.771 133.253 21.771 133.18 21.771C133.053 21.769 132.928 21.7649 132.799 21.7649C129.232 21.7429 126.236 22.0098 123.73 22.3952C123.014 22.5056 121.844 22.8388 120.698 23.999C119.528 24.9905 118.612 26.3815 117.859 27.5236C117.696 27.7705 117.538 28.0094 117.383 28.2382C115.293 31.3995 112.926 34.6271 109.979 38.3364C106.942 36.6162 99.425 31.8752 99.425 31.8752C99.2454 31.7929 99.1122 31.7307 99.0073 31.6885L98.965 31.6625C98.7491 31.544 98.4808 31.6022 98.3315 31.7989C98.1257 32.0719 97.9078 32.3329 97.6758 32.6099C97.2985 33.0595 96.9071 33.5231 96.5863 34.047L96.3462 34.4424C96.2877 34.5368 96.2655 34.6452 96.2736 34.7495C96.2837 34.874 96.3381 34.9924 96.435 35.0807L96.4713 35.1148C98.8883 37.3468 105.264 42.8827 107.644 44.5969C107.893 44.7815 108.244 45.0344 108.689 45.3435C110.209 46.4013 112.164 46.5218 113.792 45.6526C114.006 45.5382 114.179 45.4038 114.322 45.2552C114.326 45.2512 114.333 45.2472 114.337 45.2432C115.105 44.5527 115.416 44.3138 116.241 43.4146C117.801 41.7647 119.33 40.0505 120.805 38.3063C121.676 43.5632 122.044 52.1078 122.189 57.0174C122.189 57.0054 122.189 56.9953 122.189 56.9833C125.643 58.559 129.494 59.4401 133.56 59.4401C137.625 59.4401 141.228 58.6152 144.596 57.1338C144.743 52.174 145.12 43.3424 146.034 37.9972C147.588 39.8478 149.204 41.6684 150.856 43.4146C151.681 44.3138 151.992 44.5547 152.76 45.2432C152.765 45.2472 152.771 45.2512 152.775 45.2552C152.918 45.4058 153.091 45.5382 153.305 45.6526C154.933 46.5198 156.888 46.4013 158.408 45.3435C158.851 45.0344 159.205 44.7815 159.453 44.5969C161.831 42.8827 168.209 37.3468 170.626 35.1148L170.662 35.0807C170.759 34.9924 170.813 34.872 170.823 34.7495C170.832 34.6452 170.809 34.5368 170.751 34.4424H170.753Z" fill="url(#paint12_linear_2449_110)" fill-opacity="0.85"/>
<path d="M133.358 0.998093C139.521 0.867625 139.715 7.15217 138.912 11.1144C138.281 11.4335 138.315 10.3376 138.365 9.90003C138.502 8.65557 138.482 7.20837 137.97 6.06427C137.764 5.60462 137.449 5.19917 137.022 4.95228C136.007 4.36618 135.065 4.95629 134.1 5.10282C133.035 5.2654 132.103 4.85593 131.104 4.67729C130.917 4.64317 130.725 4.61908 130.531 4.60704C128.978 4.51471 128.354 5.81738 128.231 7.23246C128.146 8.21398 128.326 9.67121 128.195 10.6708C128.171 10.8575 128.048 10.998 127.896 11.0582C127.075 7.10199 127.255 0.939884 133.358 0.998093Z" fill="url(#paint13_linear_2449_110)"/>
<path d="M138.942 10.5925C138.71 10.6588 138.498 10.7953 138.498 10.7953L138.396 10.8776C138.222 10.6166 138.266 10.1971 138.299 9.90407C138.436 8.6596 138.416 7.21241 137.903 6.0683C137.697 5.60866 137.383 5.2032 136.955 4.95631C135.94 4.37021 134.998 4.96033 134.034 5.10685C132.968 5.26944 132.036 4.85997 131.038 4.68133C130.85 4.64721 130.658 4.62312 130.465 4.61108C128.911 4.51874 128.288 5.82142 128.165 7.2365C128.08 8.21802 128.259 9.67524 128.128 10.6748C128.124 10.7029 128.114 10.727 128.106 10.7531C127.743 10.5825 127.013 10.3697 127.37 11.6383C127.594 12.4351 127.999 12.8125 128.362 12.9931C128.411 13.1276 128.459 13.2581 128.508 13.3745C129.767 16.4194 131.304 17.8927 133.39 17.8807C135.553 17.8686 136.995 16.3773 138.22 13.3203C138.262 13.218 138.303 13.1056 138.345 12.9891C138.73 12.8286 139.196 12.4552 139.435 11.572C139.705 10.5644 139.303 10.4942 138.946 10.5945" fill="url(#paint14_linear_2449_110)"/>
<path d="M133.398 41.7485L141.276 22.1562C139.164 21.9073 136.751 21.7507 133.993 21.7668C133.864 21.7668 133.739 21.7708 133.612 21.7728C133.541 21.7728 133.471 21.7728 133.398 21.7728C133.327 21.7728 133.257 21.7728 133.184 21.7728C133.057 21.7708 132.932 21.7668 132.803 21.7668C130.045 21.7507 127.63 21.9053 125.52 22.1562L133.398 41.7485Z" fill="url(#paint15_linear_2449_110)"/>
<path d="M133.398 21.2429L130.688 19.8941C130.349 19.7255 129.95 19.9704 129.95 20.3477V23.8523C129.95 24.2296 130.349 24.4745 130.688 24.3059L133.398 22.9571L136.107 24.3059C136.446 24.4745 136.846 24.2296 136.846 23.8523V20.3477C136.846 19.9704 136.446 19.7255 136.107 19.8941L133.398 21.2429Z" fill="#001464"/>
<path d="M85.8898 40.7288L79.4043 67.7363L80.1827 67.9243L86.6682 40.9167L85.8898 40.7288Z" fill="url(#paint16_linear_2449_110)"/>
<path d="M75.8521 71.2192C75.8521 71.2192 79.1506 65.5991 80.2754 66.1189C81.4003 66.6388 83.2037 68.8547 83.0456 69.491C82.8875 70.1273 78.1738 71.9799 78.1738 71.9799L75.8521 71.2212V71.2192Z" fill="url(#paint17_linear_2449_110)"/>
<path d="M7.20327 71.3335C7.20327 71.3335 3.90473 65.7133 2.77987 66.2332C1.655 66.753 -0.148381 68.969 0.00974021 69.6053C0.167862 70.2416 4.88148 72.0942 4.88148 72.0942L7.20327 71.3355V71.3335Z" fill="url(#paint18_linear_2449_110)"/>
<path d="M41.6516 97.3988C56.3747 97.3988 68.3101 85.6624 68.3101 71.1847C68.3101 56.7071 56.3747 44.9707 41.6516 44.9707C26.9286 44.9707 14.9932 56.7071 14.9932 71.1847C14.9932 85.6624 26.9286 97.3988 41.6516 97.3988Z" fill="url(#paint19_linear_2449_110)"/>
<path d="M78.5461 72.3995L78.3079 72.004C77.9897 71.4802 77.6014 71.0165 77.2251 70.5669C76.9949 70.2919 76.7768 70.031 76.5746 69.756C76.4265 69.5573 76.1603 69.4991 75.9461 69.6195L75.9041 69.6436C75.8 69.6877 75.6659 69.75 75.4898 69.8322C75.4898 69.8322 68.032 74.5733 65.0197 76.2934C62.0955 72.5841 59.7477 69.3565 57.6741 66.1952C57.52 65.9664 57.3638 65.7275 57.2017 65.4806C56.1589 63.8869 54.7959 61.8034 52.8784 61.0046C52.1739 60.5871 51.5274 60.4225 51.071 60.3522C48.5851 59.9669 45.6148 59.7019 42.0741 59.722C41.946 59.722 41.8219 59.726 41.6958 59.728C41.6258 59.728 41.5537 59.728 41.4836 59.728C41.4136 59.728 41.3435 59.728 41.2715 59.728C41.1454 59.726 41.0213 59.722 40.8932 59.722C37.3545 59.6999 34.3822 59.9669 31.8963 60.3522C31.1857 60.4626 30.0248 60.7958 28.888 61.956C27.7271 62.9475 26.8184 64.3385 26.0718 65.4806C25.9097 65.7275 25.7536 65.9664 25.5994 66.1952C23.5258 69.3565 21.178 72.5841 18.2538 76.2934C15.2415 74.5733 7.78375 69.8322 7.78375 69.8322C7.60561 69.75 7.47351 69.6877 7.36943 69.6456L7.3274 69.6195C7.11324 69.5011 6.84703 69.5593 6.69892 69.756C6.49476 70.029 6.27859 70.2899 6.04842 70.5669C5.67413 71.0165 5.28583 71.4802 4.96759 72.004L4.7294 72.3995C4.67136 72.4938 4.64934 72.6022 4.65735 72.7066C4.66736 72.831 4.7214 72.9494 4.81747 73.0377L4.8535 73.0719C7.25134 75.3039 13.5762 80.8397 15.938 82.5539C16.1842 82.7386 16.5325 82.9915 16.9748 83.3006C18.482 84.3584 20.4215 84.4788 22.0367 83.6097C22.2489 83.4953 22.421 83.3608 22.5631 83.2122C22.5671 83.2082 22.5731 83.2042 22.5771 83.2002C23.3397 82.5097 23.6479 82.2709 24.4666 81.3716C26.0138 79.7217 27.5309 78.0076 28.9941 76.2633C29.8587 81.5202 30.223 90.0648 30.3671 94.9744C30.3671 94.9624 30.3671 94.9524 30.3671 94.9403C33.7937 96.516 37.6147 97.3971 41.6478 97.3971C45.6809 97.3971 49.2556 96.5722 52.5962 95.0909C52.7423 90.1311 53.1166 81.2994 54.0233 75.9542C55.5645 77.8048 57.1677 79.6254 58.807 81.3716C59.6256 82.2709 59.9338 82.5117 60.6964 83.2002C60.7004 83.2042 60.7064 83.2082 60.7104 83.2122C60.8525 83.3628 61.0247 83.4953 61.2368 83.6097C62.8521 84.4768 64.7916 84.3584 66.2987 83.3006C66.7391 82.9915 67.0893 82.7386 67.3355 82.5539C69.6953 80.8397 76.0222 75.3039 78.42 73.0719L78.4561 73.0377C78.5521 72.9494 78.6062 72.829 78.6162 72.7066C78.6242 72.6022 78.6022 72.4938 78.5441 72.3995H78.5461Z" fill="white"/>
<path d="M78.5461 72.3995L78.3079 72.004C77.9897 71.4802 77.6014 71.0165 77.2251 70.5669C76.9949 70.2919 76.7768 70.031 76.5746 69.756C76.4265 69.5573 76.1603 69.4991 75.9461 69.6195L75.9041 69.6436C75.8 69.6877 75.6659 69.75 75.4898 69.8322C75.4898 69.8322 68.032 74.5733 65.0197 76.2934C62.0955 72.5841 59.7477 69.3565 57.6741 66.1952C57.52 65.9664 57.3638 65.7275 57.2017 65.4806C56.1589 63.8869 54.7959 61.8034 52.8784 61.0046C52.1739 60.5871 51.5274 60.4225 51.071 60.3522C48.5851 59.9669 45.6148 59.7019 42.0741 59.722C41.946 59.722 41.8219 59.726 41.6958 59.728C41.6258 59.728 41.5537 59.728 41.4836 59.728C41.4136 59.728 41.3435 59.728 41.2715 59.728C41.1454 59.726 41.0213 59.722 40.8932 59.722C37.3545 59.6999 34.3822 59.9669 31.8963 60.3522C31.1857 60.4626 30.0248 60.7958 28.888 61.956C27.7271 62.9475 26.8184 64.3385 26.0718 65.4806C25.9097 65.7275 25.7536 65.9664 25.5994 66.1952C23.5258 69.3565 21.178 72.5841 18.2538 76.2934C15.2415 74.5733 7.78375 69.8322 7.78375 69.8322C7.60561 69.75 7.47351 69.6877 7.36943 69.6456L7.3274 69.6195C7.11324 69.5011 6.84703 69.5593 6.69892 69.756C6.49476 70.029 6.27859 70.2899 6.04842 70.5669C5.67413 71.0165 5.28583 71.4802 4.96759 72.004L4.7294 72.3995C4.67136 72.4938 4.64934 72.6022 4.65735 72.7066C4.66736 72.831 4.7214 72.9494 4.81747 73.0377L4.8535 73.0719C7.25134 75.3039 13.5762 80.8397 15.938 82.5539C16.1842 82.7386 16.5325 82.9915 16.9748 83.3006C18.482 84.3584 20.4215 84.4788 22.0367 83.6097C22.2489 83.4953 22.421 83.3608 22.5631 83.2122C22.5671 83.2082 22.5731 83.2042 22.5771 83.2002C23.3397 82.5097 23.6479 82.2709 24.4666 81.3716C26.0138 79.7217 27.5309 78.0076 28.9941 76.2633C29.8587 81.5202 30.223 90.0648 30.3671 94.9744C30.3671 94.9624 30.3671 94.9524 30.3671 94.9403C33.7937 96.516 37.6147 97.3971 41.6478 97.3971C45.6809 97.3971 49.2556 96.5722 52.5962 95.0909C52.7423 90.1311 53.1166 81.2994 54.0233 75.9542C55.5645 77.8048 57.1677 79.6254 58.807 81.3716C59.6256 82.2709 59.9338 82.5117 60.6964 83.2002C60.7004 83.2042 60.7064 83.2082 60.7104 83.2122C60.8525 83.3628 61.0247 83.4953 61.2368 83.6097C62.8521 84.4768 64.7916 84.3584 66.2987 83.3006C66.7391 82.9915 67.0893 82.7386 67.3355 82.5539C69.6953 80.8397 76.0222 75.3039 78.42 73.0719L78.4561 73.0377C78.5521 72.9494 78.6062 72.829 78.6162 72.7066C78.6242 72.6022 78.6022 72.4938 78.5441 72.3995H78.5461Z" fill="url(#paint20_linear_2449_110)" fill-opacity="0.9"/>
<path d="M41.4474 38.9551C47.5621 38.8247 47.7543 45.1092 46.9576 49.0714C46.3312 49.3906 46.3652 48.2946 46.4152 47.8571C46.5513 46.6126 46.5313 45.1654 46.0229 44.0213C45.8188 43.5617 45.5065 43.1562 45.0822 42.9093C44.0754 42.3232 43.1407 42.9133 42.184 43.0599C41.1272 43.2224 40.2024 42.813 39.2117 42.6343C39.0255 42.6002 38.8354 42.5761 38.6433 42.5641C37.1021 42.4717 36.4836 43.7744 36.3615 45.1895C36.2774 46.171 36.4556 47.6282 36.3255 48.6278C36.3015 48.8145 36.1794 48.955 36.0292 49.0152C35.2146 45.059 35.3928 38.8969 41.4474 38.9551Z" fill="url(#paint21_linear_2449_110)"/>
<path d="M46.9879 48.5496C46.7578 48.6158 46.5476 48.7523 46.5476 48.7523L46.4455 48.8346C46.2734 48.5737 46.3174 48.1541 46.3494 47.8611C46.4856 46.6166 46.4655 45.1694 45.9571 44.0253C45.753 43.5657 45.4408 43.1602 45.0164 42.9133C44.0097 42.3272 43.0749 42.9174 42.1182 43.0639C41.0614 43.2265 40.1367 42.817 39.1459 42.6384C38.9598 42.6042 38.7696 42.5802 38.5775 42.5681C37.0363 42.4758 36.4178 43.7784 36.2957 45.1935C36.2117 46.175 36.3898 47.6323 36.2597 48.6319C36.2557 48.66 36.2457 48.684 36.2377 48.7101C35.8774 48.5395 35.1528 48.3268 35.5071 49.5953C35.7293 50.3922 36.1316 50.7695 36.4919 50.9502C36.5399 51.0847 36.5879 51.2151 36.636 51.3315C37.8849 54.3765 39.4101 55.8498 41.4797 55.8377C43.6254 55.8257 45.0565 54.3343 46.2714 51.2774C46.3134 51.175 46.3535 51.0626 46.3955 50.9462C46.7778 50.7856 47.2401 50.4122 47.4763 49.5291C47.7445 48.5215 47.3462 48.4512 46.9919 48.5516" fill="url(#paint22_linear_2449_110)"/>
<path d="M41.4874 79.7055L49.3034 60.1132C47.2078 59.8643 44.8139 59.7077 42.0778 59.7238C41.9497 59.7238 41.8257 59.7278 41.6996 59.7298C41.6295 59.7298 41.5594 59.7298 41.4874 59.7298C41.4173 59.7298 41.3473 59.7298 41.2752 59.7298C41.1491 59.7278 41.025 59.7238 40.8969 59.7238C38.1608 59.7077 35.765 59.8623 33.6714 60.1132L41.4874 79.7055Z" fill="url(#paint23_linear_2449_110)"/>
<path d="M41.4875 59.1999L38.7995 57.8511C38.4632 57.6825 38.0669 57.9274 38.0669 58.3047V61.8093C38.0669 62.1867 38.4632 62.4315 38.7995 62.2629L41.4875 60.9141L44.1756 62.2629C44.5118 62.4315 44.9081 62.1867 44.9081 61.8093V58.3047C44.9081 57.9274 44.5118 57.6825 44.1756 57.8511L41.4875 59.1999Z" fill="#001464"/>
<defs>
<linearGradient id="paint0_linear_2449_110" x1="258.167" y1="67.8288" x2="264.64" y2="40.8083" gradientUnits="userSpaceOnUse">
<stop stop-color="#444B8B"/>
<stop offset="0.99" stop-color="#26264F"/>
</linearGradient>
<linearGradient id="paint1_linear_2449_110" x1="258.605" y1="67.6565" x2="256.867" y2="73.5409" gradientUnits="userSpaceOnUse">
<stop stop-color="#F8C9C6"/>
<stop offset="1" stop-color="#F26F56"/>
</linearGradient>
<linearGradient id="paint2_linear_2449_110" x1="180.705" y1="68.3907" x2="182.613" y2="74.2223" gradientUnits="userSpaceOnUse">
<stop stop-color="#F8C9C6"/>
<stop offset="1" stop-color="#F26F56"/>
</linearGradient>
<linearGradient id="paint3_linear_2449_110" x1="220" y1="97" x2="220" y2="45" gradientUnits="userSpaceOnUse">
<stop stop-color="#7399EF"/>
<stop offset="0.14" stop-color="#8BB0F2"/>
<stop offset="0.32" stop-color="#A2C6F5"/>
<stop offset="0.51" stop-color="#B3D5F7"/>
<stop offset="0.73" stop-color="#BCDFF8"/>
<stop offset="1" stop-color="#C0E2F9"/>
</linearGradient>
<linearGradient id="paint4_linear_2449_110" x1="182.434" y1="78.5616" x2="256.984" y2="78.5616" gradientUnits="userSpaceOnUse">
<stop stop-color="#0057D2"/>
<stop offset="0.1" stop-color="#0057D2"/>
<stop offset="0.39" stop-color="#0085E4"/>
<stop offset="0.73" stop-color="#00B4F7"/>
<stop offset="0.9" stop-color="#00C7FF"/>
<stop offset="1" stop-color="#00C7FF"/>
</linearGradient>
<linearGradient id="paint5_linear_2449_110" x1="219.506" y1="37.2985" x2="219.544" y2="44.2173" gradientUnits="userSpaceOnUse">
<stop stop-color="#331809"/>
<stop offset="0.1" stop-color="#331809"/>
<stop offset="0.19" stop-color="#3D1C08"/>
<stop offset="0.66" stop-color="#6C3406"/>
<stop offset="0.9" stop-color="#7F3D06"/>
<stop offset="1" stop-color="#7F3D06"/>
</linearGradient>
<linearGradient id="paint6_linear_2449_110" x1="219.496" y1="41.1771" x2="219.791" y2="82.0759" gradientUnits="userSpaceOnUse">
<stop stop-color="#F8C9C6"/>
<stop offset="1" stop-color="#F26F56"/>
</linearGradient>
<linearGradient id="paint7_linear_2449_110" x1="223.858" y1="90.8635" x2="211.115" y2="-1.1203" gradientUnits="userSpaceOnUse">
<stop stop-color="white"/>
<stop offset="0.35" stop-color="#FBFCFD"/>
<stop offset="0.63" stop-color="#F2F3F8"/>
<stop offset="0.88" stop-color="#E1E4EF"/>
<stop offset="1" stop-color="#D7DBEA"/>
</linearGradient>
<linearGradient id="paint8_linear_2449_110" x1="172.01" y1="29.8718" x2="178.484" y2="2.85128" gradientUnits="userSpaceOnUse">
<stop stop-color="#444B8B"/>
<stop offset="0.99" stop-color="#26264F"/>
</linearGradient>
<linearGradient id="paint9_linear_2449_110" x1="172.453" y1="29.6885" x2="170.715" y2="35.573" gradientUnits="userSpaceOnUse">
<stop stop-color="#F8C9C6"/>
<stop offset="1" stop-color="#F26F56"/>
</linearGradient>
<linearGradient id="paint10_linear_2449_110" x1="94.5464" y1="30.437" x2="96.4526" y2="36.269" gradientUnits="userSpaceOnUse">
<stop stop-color="#F8C9C6"/>
<stop offset="1" stop-color="#F26F56"/>
</linearGradient>
<linearGradient id="paint11_linear_2449_110" x1="134" y1="59" x2="134" y2="7" gradientUnits="userSpaceOnUse">
<stop stop-color="#7399EF"/>
<stop offset="0.14" stop-color="#8BB0F2"/>
<stop offset="0.32" stop-color="#A2C6F5"/>
<stop offset="0.51" stop-color="#B3D5F7"/>
<stop offset="0.73" stop-color="#BCDFF8"/>
<stop offset="1" stop-color="#C0E2F9"/>
</linearGradient>
<linearGradient id="paint12_linear_2449_110" x1="96.2776" y1="40.6045" x2="170.828" y2="40.6045" gradientUnits="userSpaceOnUse">
<stop stop-color="#9D0051"/>
<stop offset="0.1" stop-color="#9D0051"/>
<stop offset="0.91" stop-color="#301C90"/>
<stop offset="1" stop-color="#301C90"/>
</linearGradient>
<linearGradient id="paint13_linear_2449_110" x1="133.35" y1="-0.669658" x2="133.388" y2="6.24906" gradientUnits="userSpaceOnUse">
<stop stop-color="#331809"/>
<stop offset="0.1" stop-color="#331809"/>
<stop offset="0.19" stop-color="#3D1C08"/>
<stop offset="0.66" stop-color="#6C3406"/>
<stop offset="0.9" stop-color="#7F3D06"/>
<stop offset="1" stop-color="#7F3D06"/>
</linearGradient>
<linearGradient id="paint14_linear_2449_110" x1="133.34" y1="3.22009" x2="133.635" y2="44.1188" gradientUnits="userSpaceOnUse">
<stop stop-color="#F8C9C6"/>
<stop offset="1" stop-color="#F26F56"/>
</linearGradient>
<linearGradient id="paint15_linear_2449_110" x1="137.701" y1="52.9065" x2="124.959" y2="-39.0773" gradientUnits="userSpaceOnUse">
<stop stop-color="white"/>
<stop offset="0.35" stop-color="#FBFCFD"/>
<stop offset="0.63" stop-color="#F2F3F8"/>
<stop offset="0.88" stop-color="#E1E4EF"/>
<stop offset="1" stop-color="#D7DBEA"/>
</linearGradient>
<linearGradient id="paint16_linear_2449_110" x1="79.7939" y1="67.8288" x2="86.3136" y2="40.8318" gradientUnits="userSpaceOnUse">
<stop stop-color="#444B8B"/>
<stop offset="0.99" stop-color="#26264F"/>
</linearGradient>
<linearGradient id="paint17_linear_2449_110" x1="80.2402" y1="67.6505" x2="78.4906" y2="73.5254" gradientUnits="userSpaceOnUse">
<stop stop-color="#F8C9C6"/>
<stop offset="1" stop-color="#F26F56"/>
</linearGradient>
<linearGradient id="paint18_linear_2449_110" x1="2.93339" y1="68.4035" x2="4.8538" y2="74.2261" gradientUnits="userSpaceOnUse">
<stop stop-color="#F8C9C6"/>
<stop offset="1" stop-color="#F26F56"/>
</linearGradient>
<linearGradient id="paint19_linear_2449_110" x1="42" y1="97" x2="42" y2="45" gradientUnits="userSpaceOnUse">
<stop stop-color="#7399EF"/>
<stop offset="0.14" stop-color="#8BB0F2"/>
<stop offset="0.32" stop-color="#A2C6F5"/>
<stop offset="0.51" stop-color="#B3D5F7"/>
<stop offset="0.73" stop-color="#BCDFF8"/>
<stop offset="1" stop-color="#C0E2F9"/>
</linearGradient>
<linearGradient id="paint20_linear_2449_110" x1="4.66135" y1="78.5616" x2="78.6202" y2="78.5616" gradientUnits="userSpaceOnUse">
<stop stop-color="#4B0081"/>
<stop offset="0.1" stop-color="#4B0081"/>
<stop offset="0.9" stop-color="#0050EA"/>
<stop offset="1" stop-color="#0050EA"/>
</linearGradient>
<linearGradient id="paint21_linear_2449_110" x1="41.4394" y1="37.2861" x2="41.4781" y2="44.2029" gradientUnits="userSpaceOnUse">
<stop stop-color="#331809"/>
<stop offset="0.1" stop-color="#331809"/>
<stop offset="0.19" stop-color="#3D1C08"/>
<stop offset="0.66" stop-color="#6C3406"/>
<stop offset="0.9" stop-color="#7F3D06"/>
<stop offset="1" stop-color="#7F3D06"/>
</linearGradient>
<linearGradient id="paint22_linear_2449_110" x1="41.4297" y1="41.1771" x2="41.7276" y2="82.0758" gradientUnits="userSpaceOnUse">
<stop stop-color="#F8C9C6"/>
<stop offset="1" stop-color="#F26F56"/>
</linearGradient>
<linearGradient id="paint23_linear_2449_110" x1="45.7567" y1="90.8635" x2="32.9159" y2="-1.09251" gradientUnits="userSpaceOnUse">
<stop stop-color="white"/>
<stop offset="0.35" stop-color="#FBFCFD"/>
<stop offset="0.63" stop-color="#F2F3F8"/>
<stop offset="0.88" stop-color="#E1E4EF"/>
<stop offset="1" stop-color="#D7DBEA"/>
</linearGradient>
</defs>
</svg>
