<svg width="24" height="37" viewBox="0 0 24 37" fill="none" xmlns="http://www.w3.org/2000/svg">
<circle opacity="0.3" cx="11.8002" cy="28.3597" r="8.64" fill="#74FCFC"/>
<circle cx="11.8" cy="28.36" r="4.32" fill="#74FCFC"/>
<path d="M11.8 28.2929L11.4785 28.0229C7.83672 24.9653 5.09471 22.1072 3.2715 19.4473L11.8 28.2929ZM11.8 28.2929L12.1215 28.0229M11.8 28.2929L12.1215 28.0229M12.1215 28.0229C15.7633 24.9653 18.5058 22.1071 20.3299 19.4473L20.3299 19.4472M12.1215 28.0229L20.3299 19.4472M20.3299 19.4472C22.152 16.7899 23.1 14.2778 23.1 11.9224C23.1 8.47249 21.9693 5.67762 19.6789 3.59386C17.4188 1.53683 14.7856 0.5 11.8 0.5C8.81436 0.5 6.18115 1.53683 3.92107 3.59386L20.3299 19.4472ZM0.5 11.9224C0.5 14.2779 1.44842 16.7899 3.27138 19.4472L3.92099 3.59393C1.63068 5.67768 0.5 8.47253 0.5 11.9224Z" fill="#14213D" stroke="white"/>
<path d="M9.22877 18.6917V19.5489C9.22877 19.6948 9.17951 19.817 9.081 19.9154C8.9826 20.0139 8.86042 20.0632 8.71448 20.0632C8.56854 20.0632 8.44637 20.0139 8.34797 19.9154C8.24945 19.817 8.2002 19.6948 8.2002 19.5489V6.55991C8.2002 6.21797 8.32128 5.92586 8.56345 5.68357C8.80574 5.4414 9.09785 5.32031 9.4398 5.32031H14.1606C14.5025 5.32031 14.7947 5.4414 15.0369 5.68357C15.2791 5.92586 15.4002 6.21797 15.4002 6.55991V19.5489C15.4002 19.6948 15.3509 19.817 15.2524 19.9154C15.154 20.0139 15.0319 20.0632 14.8859 20.0632C14.74 20.0632 14.6178 20.0139 14.5194 19.9154C14.4209 19.817 14.3716 19.6948 14.3716 19.5489V18.6917H9.22877ZM9.22877 17.6632H14.3716V6.55991C14.3716 6.49831 14.3519 6.44774 14.3123 6.4082C14.2728 6.36866 14.2222 6.34888 14.1606 6.34888H9.4398C9.3782 6.34888 9.32762 6.36866 9.28808 6.4082C9.24854 6.44774 9.22877 6.49831 9.22877 6.55991V17.6632ZM11.2727 13.0464L12.6244 12.2711C12.7299 12.2069 12.7827 12.1186 12.7827 12.006C12.7827 11.8935 12.7299 11.8051 12.6244 11.741L11.2727 10.9656C11.1672 10.9014 11.0639 10.9003 10.9628 10.9624C10.8617 11.0243 10.8112 11.1137 10.8112 11.2307V12.7814C10.8112 12.8983 10.8617 12.9877 10.9628 13.0497C11.0639 13.1117 11.1672 13.1107 11.2727 13.0464Z" fill="white"/>
</svg>
