<svg width="24" height="37" viewBox="0 0 24 37" fill="none" xmlns="http://www.w3.org/2000/svg">
<circle opacity="0.3" cx="11.8002" cy="28.3597" r="8.64" fill="#74FCFC"/>
<circle cx="11.8" cy="28.36" r="4.32" fill="#74FCFC"/>
<path d="M11.8 28.2929L11.4785 28.0229C7.83672 24.9653 5.09471 22.1072 3.2715 19.4473L11.8 28.2929ZM11.8 28.2929L12.1215 28.0229M11.8 28.2929L12.1215 28.0229M12.1215 28.0229C15.7633 24.9653 18.5058 22.1071 20.3299 19.4473L20.3299 19.4472M12.1215 28.0229L20.3299 19.4472M20.3299 19.4472C22.152 16.7899 23.1 14.2778 23.1 11.9224C23.1 8.47249 21.9693 5.67762 19.6789 3.59386C17.4188 1.53683 14.7856 0.5 11.8 0.5C8.81436 0.5 6.18115 1.53683 3.92107 3.59386L20.3299 19.4472ZM0.5 11.9224C0.5 14.2779 1.44842 16.7899 3.27138 19.4472L3.92099 3.59393C1.63068 5.67768 0.5 8.47253 0.5 11.9224Z" fill="#14213D" stroke="white"/>
<mask id="mask0_9493_5749" style="mask-type:alpha" maskUnits="userSpaceOnUse" x="2" y="3" width="20" height="20">
<rect x="2.41667" y="3.41667" width="19.1667" height="19.1667" fill="#D9D9D9" stroke="url(#paint0_linear_9493_5749)" stroke-width="0.833333"/>
</mask>
<g mask="url(#mask0_9493_5749)">
<path d="M13.5224 10.2924L15.8575 13.4059H8.27118L9.88509 11.2856L11.3351 13.0384L11.3433 13.0483L11.3513 13.0382L13.5224 10.2924ZM6.67975 16.3226C6.29873 16.3226 5.98115 16.1951 5.72628 15.9402C5.47141 15.6854 5.34391 15.3678 5.34391 14.9868V7.67926C5.34391 7.29824 5.47141 6.98066 5.72628 6.72579C5.98115 6.47092 6.29873 6.34342 6.67975 6.34342H17.3206C17.7016 6.34342 18.0192 6.47092 18.274 6.72579C18.5289 6.98066 18.6564 7.29824 18.6564 7.67926V14.9868C18.6564 15.3678 18.5289 15.6854 18.274 15.9402C18.0192 16.1951 17.7016 16.3226 17.3206 16.3226H6.67975ZM6.67975 15.5101H17.3206C17.4522 15.5101 17.5723 15.4552 17.6807 15.3468C17.789 15.2384 17.8439 15.1183 17.8439 14.9868V7.67926C17.8439 7.54768 17.789 7.42757 17.6807 7.31918C17.5723 7.2108 17.4522 7.15592 17.3206 7.15592H6.67975C6.54816 7.15592 6.42806 7.2108 6.31967 7.31918C6.21129 7.42757 6.15641 7.54768 6.15641 7.67926V14.9868C6.15641 15.1183 6.21129 15.2384 6.31967 15.3468C6.42806 15.4552 6.54816 15.5101 6.67975 15.5101Z" fill="white" stroke="white" stroke-width="0.0208333"/>
<path d="M14.9165 15.5V19.25" stroke="white" stroke-width="0.833333"/>
<path d="M9.5 15.5V19.25" stroke="white" stroke-width="0.833333"/>
</g>
<defs>
<linearGradient id="paint0_linear_9493_5749" x1="-6.67478" y1="12.9838" x2="26.5711" y2="12.9071" gradientUnits="userSpaceOnUse">
<stop offset="0.317708" stop-color="#E43425"/>
<stop offset="0.71875" stop-color="#441FD8"/>
<stop offset="1" stop-color="#0A26B8"/>
</linearGradient>
</defs>
</svg>
