<svg width="24" height="24" viewBox="0 0 24 24" fill="none" xmlns="http://www.w3.org/2000/svg">
<mask id="mask0_7745_747" style="mask-type:alpha" maskUnits="userSpaceOnUse" x="0" y="0" width="24" height="24">
<rect width="24" height="24" fill="#D9D9D9"/>
</mask>
<g mask="url(#mask0_7745_747)">
<path d="M12.0001 20.7233C13.8796 18.9846 15.3655 17.2164 16.4578 15.4186C17.5501 13.6208 18.0963 12.0659 18.0963 10.754C18.0963 8.80972 17.5171 7.20499 16.3588 5.9398C15.2005 4.67479 13.7476 4.04228 12.0001 4.04228C10.2526 4.04228 8.79964 4.67479 7.64131 5.9398C6.48298 7.20499 5.90381 8.80972 5.90381 10.754C5.90381 12.0659 6.44998 13.6208 7.54231 15.4186C8.63464 17.2164 10.1206 18.9846 12.0001 20.7233ZM12.0001 21.6572C11.8437 21.6572 11.6873 21.6299 11.5308 21.5753C11.3745 21.5209 11.2302 21.4324 11.0981 21.3096C10.3866 20.6148 9.66539 19.8409 8.93456 18.9881C8.20389 18.1352 7.54014 17.252 6.94331 16.3384C6.34648 15.4248 5.85739 14.4922 5.47606 13.5405C5.09456 12.5888 4.90381 11.66 4.90381 10.754C4.90381 8.50578 5.59264 6.65139 6.97031 5.19083C8.34781 3.73028 10.0244 3 12.0001 3C13.9757 3 15.6523 3.73028 17.0298 5.19083C18.4075 6.65139 19.0963 8.50578 19.0963 10.754C19.0963 11.66 18.9056 12.5855 18.5241 13.5304C18.1427 14.4752 17.6568 15.4077 17.0663 16.3281C16.476 17.2486 15.8154 18.1318 15.0846 18.9777C14.3539 19.8238 13.6328 20.5943 12.9213 21.2892C12.7938 21.4119 12.649 21.5039 12.4868 21.5652C12.3245 21.6265 12.1622 21.6572 12.0001 21.6572ZM12.0036 12.2785C12.4487 12.2785 12.8286 12.1101 13.1433 11.7732C13.4581 11.4363 13.6156 11.0313 13.6156 10.5582C13.6156 10.0851 13.457 9.68125 13.1398 9.34667C12.8228 9.01226 12.4417 8.84506 11.9966 8.84506C11.5514 8.84506 11.1715 9.0135 10.8568 9.35039C10.542 9.68728 10.3846 10.0923 10.3846 10.5654C10.3846 11.0385 10.5431 11.4423 10.8603 11.7769C11.1773 12.1113 11.5584 12.2785 12.0036 12.2785Z" fill="url(#paint0_linear_7745_747)"/>
</g>
<defs>
<linearGradient id="paint0_linear_7745_747" x1="-1.25203" y1="12.3135" x2="22.3401" y2="12.2721" gradientUnits="userSpaceOnUse">
<stop offset="0.317708" stop-color="#E43425"/>
<stop offset="0.71875" stop-color="#441FD8"/>
<stop offset="1" stop-color="#0A26B8"/>
</linearGradient>
</defs>
</svg>
