<?xml version="1.0" encoding="utf-8"?>
<!-- Generator: Adobe Illustrator 27.0.1, SVG Export Plug-In . SVG Version: 6.00 Build 0)  -->
<svg version="1.1" id="Layer_1" xmlns="http://www.w3.org/2000/svg" xmlns:xlink="http://www.w3.org/1999/xlink" x="0px" y="0px"
	 viewBox="0 0 18 19" style="enable-background:new 0 0 18 19;" xml:space="preserve">
<style type="text/css">
	.st0{fill:#FFFFFF;}
</style>
<path class="st0" d="M15.5,1.7h-0.9V0.9c0-0.5-0.4-0.9-0.9-0.9C13.3,0,13,0.4,13,0.9v0.9H4.3V0.9C4.3,0.4,3.9,0,3.5,0
	S2.6,0.4,2.6,0.9v0.9H1.7C0.8,1.7,0,2.5,0,3.5v13.8c0,1,0.8,1.7,1.7,1.7h13.8c1,0,1.7-0.8,1.7-1.7V3.5C17.3,2.5,16.5,1.7,15.5,1.7z
	 M14.7,17.3H2.6c-0.5,0-0.9-0.4-0.9-0.9V6h13.8v10.4C15.5,16.9,15.2,17.3,14.7,17.3z"/>
</svg>
