<svg id="Layer_1" data-name="Layer 1" xmlns="http://www.w3.org/2000/svg" viewBox="0 0 492 408.7"><defs><style>.cls-1{fill:#fff;}</style></defs><path class="cls-1" d="M464.3,207.4l.8.2H135.9L239.4,103.9a27,27,0,0,0,7.8-19.2,26.4,26.4,0,0,0-7.8-19L223.3,49.5a27,27,0,0,0-38,0L7.8,226.9a27.3,27.3,0,0,0,0,38.2L185.3,442.5a27,27,0,0,0,38,0l16.1-16.1a26.5,26.5,0,0,0,7.8-19,25.8,25.8,0,0,0-7.8-18.7L134.7,284.4h330c14.8,0,27.3-12.8,27.3-27.6V234C492,219.2,479.2,207.4,464.3,207.4Z" transform="translate(0 -41.7)"/></svg>