<?xml version="1.0" encoding="utf-8"?>
<!-- Generator: Adobe Illustrator 25.4.1, SVG Export Plug-In . SVG Version: 6.00 Build 0)  -->
<svg version="1.1" id="Layer_1" xmlns="http://www.w3.org/2000/svg" xmlns:xlink="http://www.w3.org/1999/xlink" x="0px" y="0px"
	 viewBox="0 0 492 408.7" style="enable-background:new 0 0 492 408.7;" xml:space="preserve">
<style type="text/css">
	.st0{fill:#FFFFFF;}
</style>
<path class="st0" d="M27.7,242.9l-0.8-0.2h329.2L252.6,346.4c-5.1,5.1-7.9,12-7.8,19.2c-0.1,7.1,2.7,14,7.8,19l16.1,16.2
	c10.5,10.4,27.5,10.4,38,0l177.5-177.4c10.4-10.6,10.4-27.6,0-38.2L306.7,7.8c-10.5-10.4-27.5-10.4-38,0l-16.1,16.1
	c-5,5-7.9,11.9-7.8,19c-0.1,7,2.8,13.8,7.8,18.7l104.7,104.3h-330C12.5,165.9,0,178.7,0,193.5v22.8C0,231.1,12.8,242.9,27.7,242.9z"
	/>
</svg>
