<svg id="Capa_1" data-name="Capa 1" xmlns="http://www.w3.org/2000/svg" viewBox="0 0 593.6 598.3"><defs><style>.cls-1{fill:#00c8ff;}</style></defs><path class="cls-1" d="M537.3,354.2H497a58.2,58.2,0,0,0-58.1,58.2v23.8H160.5V412.4a58.2,58.2,0,0,0-58.1-58.2H61.5A58.3,58.3,0,0,0,3.3,412.4v10.5H2.9v43l.3,74a58,58,0,0,0,58.1,57.9H537.3a58.1,58.1,0,0,0,58.1-58.1V412.4A58.2,58.2,0,0,0,537.3,354.2Zm15.3,111.5v74A15.4,15.4,0,0,1,537.3,555H61.4a15.3,15.3,0,0,1-15.3-15.3l-.2-74h.3V412.4a15.2,15.2,0,0,1,15.3-15.3h40.9a15.3,15.3,0,0,1,15.3,15.3v51.4A15.3,15.3,0,0,0,133,479.1H466.4a15.4,15.4,0,0,0,15.3-15.3V412.4A15.2,15.2,0,0,1,497,397.1h40.3a15.3,15.3,0,0,1,15.3,15.3Z" transform="translate(-2.4)"/><path class="cls-1" d="M537.3,598.3H61.4A58.5,58.5,0,0,1,20,581.2,57.8,57.8,0,0,1,2.8,539.9L2.4,422.4h.4v-10a58.7,58.7,0,0,1,58.7-58.7h40.9A58.7,58.7,0,0,1,161,412.4v23.3H438.4V412.4A58.7,58.7,0,0,1,497,353.7h40.3a58.7,58.7,0,0,1,58.6,58.7V539.7A58.7,58.7,0,0,1,537.3,598.3ZM3.4,423.4l.4,116.5a57.5,57.5,0,0,0,57.6,57.4H537.3a57.6,57.6,0,0,0,57.6-57.6V412.4a57.7,57.7,0,0,0-57.6-57.7H497a57.7,57.7,0,0,0-57.6,57.7v24.3H160V412.4a57.7,57.7,0,0,0-57.6-57.7H61.5A57.8,57.8,0,0,0,3.8,412.4v11ZM537.3,555.5H61.4a15.8,15.8,0,0,1-15.8-15.8l-.2-74.5h.3V412.4a15.8,15.8,0,0,1,15.8-15.8h40.9a15.8,15.8,0,0,1,15.8,15.8v51.4A14.8,14.8,0,0,0,133,478.6H466.4a14.8,14.8,0,0,0,14.8-14.8V412.4A15.8,15.8,0,0,1,497,396.6h40.3a15.8,15.8,0,0,1,15.8,15.8V539.7A15.8,15.8,0,0,1,537.3,555.5ZM46.4,466.2l.2,73.5a14.8,14.8,0,0,0,14.8,14.8H537.3a14.8,14.8,0,0,0,14.8-14.8V412.4a14.8,14.8,0,0,0-14.8-14.8H497a14.8,14.8,0,0,0-14.8,14.8v51.4a15.8,15.8,0,0,1-15.8,15.8H133a15.8,15.8,0,0,1-15.8-15.8V412.4a14.8,14.8,0,0,0-14.8-14.8H61.5a14.8,14.8,0,0,0-14.8,14.8v53.8Z" transform="translate(-2.4)"/><path class="cls-1" d="M357.9.5H240.6a58.1,58.1,0,0,0-58.1,58.1v85.7H168.4a58.1,58.1,0,0,0-43,97.3L256.3,385a58,58,0,0,0,85.9,0L473,241.6a57.5,57.5,0,0,0,14.7-31.1,58.1,58.1,0,0,0-24.8-56.1,57.8,57.8,0,0,0-32.8-10.1H416V58.6A58.2,58.2,0,0,0,357.9.5Zm72.2,186.6c13.3,0,20.2,15.8,11.3,25.6L310.5,356.2a15.1,15.1,0,0,1-11.3,4.9,15.4,15.4,0,0,1-11.3-4.9L157.1,212.7c-9-9.8-2-25.6,11.3-25.6H210a15.2,15.2,0,0,0,15.3-15.3V58.6a15.4,15.4,0,0,1,15.3-15.3H357.8a15.3,15.3,0,0,1,15.3,15.3V171.8a15.3,15.3,0,0,0,15.3,15.3Z" transform="translate(-2.4)"/><path class="cls-1" d="M299.2,404.5a59,59,0,0,1-43.3-19.1L125.1,241.9a57.5,57.5,0,0,1-14.8-31.3A58.6,58.6,0,0,1,135.2,154a58.6,58.6,0,0,1,33.2-10.2H182V58.6A58.7,58.7,0,0,1,240.6,0H357.9a58.7,58.7,0,0,1,58.6,58.6v85.2h13.6A58,58,0,0,1,463.2,154a58.7,58.7,0,0,1,20.5,24.7,58.3,58.3,0,0,1-10.3,63.2L342.6,385.4A59,59,0,0,1,299.2,404.5ZM168.4,144.8a57.3,57.3,0,0,0-32.6,10,58,58,0,0,0-20.1,24.3,57.6,57.6,0,0,0,10.1,62.2L256.6,384.7a57.7,57.7,0,0,0,85.2,0L472.6,241.3a57.1,57.1,0,0,0,14.6-30.9,57.8,57.8,0,0,0-24.6-55.6,56.7,56.7,0,0,0-32.5-10H415.5V58.6A57.8,57.8,0,0,0,357.8,1H240.6A57.7,57.7,0,0,0,183,58.6v86.2ZM299.2,361.6a15.4,15.4,0,0,1-11.6-5.1L156.7,213.1a15.8,15.8,0,0,1-2.8-17.1,15.7,15.7,0,0,1,14.5-9.4H210a14.8,14.8,0,0,0,14.8-14.8V58.6a15.8,15.8,0,0,1,15.8-15.8H357.8a15.8,15.8,0,0,1,15.8,15.8V171.8a14.8,14.8,0,0,0,14.8,14.8h41.7a15.8,15.8,0,0,1,11.6,26.5L310.9,356.5A15.7,15.7,0,0,1,299.2,361.6Zm-130.8-174a14.8,14.8,0,0,0-10.9,24.8L288.3,355.8a14.9,14.9,0,0,0,21.9,0L441,212.4a14.8,14.8,0,0,0-10.9-24.8H388.4a15.8,15.8,0,0,1-15.8-15.8V58.6a14.8,14.8,0,0,0-14.8-14.8H240.6a14.8,14.8,0,0,0-14.8,14.8V171.8A15.8,15.8,0,0,1,210,187.6Z" transform="translate(-2.4)"/></svg>