<?xml version="1.0" encoding="utf-8"?>
<!-- Generator: Adobe Illustrator 24.3.0, SVG Export Plug-In . SVG Version: 6.00 Build 0)  -->
<svg version="1.1" id="Layer_1" xmlns="http://www.w3.org/2000/svg" xmlns:xlink="http://www.w3.org/1999/xlink" x="0px" y="0px"
	 viewBox="0 0 335 335" style="enable-background:new 0 0 335 335;" xml:space="preserve">
<style type="text/css">
	.st0{fill:#1056FB;}
</style>
<path class="st0" d="M310,182.5c-13.8-0.1-24.9,11-25,24.8c0,0.1,0,0.1,0,0.2V276c0,5-4,9-9,9H59c-5,0-9-4-9-9V59c0-5,4-9,9-9h68.5
	c13.8,0,25-11.2,25-25s-11.2-25-25-25H59C26.4,0.1,0.1,26.4,0,59v217c0.1,32.6,26.4,58.9,59,59h217c32.6-0.1,58.9-26.4,59-59v-68.5
	C335,193.7,323.8,182.5,310,182.5L310,182.5z"/>
<path class="st0" d="M325.7,11.4c-0.6-0.8-1.3-1.5-2.1-2.1C312.7-1.2,291.1,0,276,0h-68.5c-13.8,0-25,11.2-25,25s11.2,25,25,25h42.1
	L109.8,189.8c-9.7,9.8-9.7,25.6,0,35.4c9.8,9.7,25.6,9.7,35.4,0L285,85.4v42.1c0,13.8,11.2,25,25,25s25-11.2,25-25V59
	C335,43.9,336.2,22.3,325.7,11.4z"/>
</svg>
