<svg id="Layer_1" data-name="Layer 1" xmlns="http://www.w3.org/2000/svg" viewBox="0 0 90 90"><defs><style>.cls-1{fill:#00c8ff;}</style></defs><path class="cls-1" d="M71.1,63.7V80a9,9,0,0,1-9,9h-42a9,9,0,0,1-9-9V38a9,9,0,0,1,9-9h8l.3-.4A42.8,42.8,0,0,1,34.9,23H20A15,15,0,0,0,5,38V80A15,15,0,0,0,20,95H62A15,15,0,0,0,77,80V57.9L72,63Z" transform="translate(-5 -5)"/><path class="cls-1" d="M94.1,30.9l-25-25A2.9,2.9,0,0,0,64,8v9.9c-13.7.6-24.7,5.1-32.7,13.5-15,15.6-8.1,38.7-8.1,39.7a3,3,0,0,0,2.3,2.8h.7a2.9,2.9,0,0,0,2.6-1.6C41.2,49.3,56.6,47.8,64,48V58a2.8,2.8,0,0,0,1.8,2.7,2.9,2.9,0,0,0,3.3-.6l25-25A2.9,2.9,0,0,0,94.1,30.9Z" transform="translate(-5 -5)"/></svg>