<svg width="40" height="40" viewBox="0 0 40 40" fill="none" xmlns="http://www.w3.org/2000/svg">
<path d="M19.9345 0.308411C14.7285 0.308411 9.73738 2.37567 6.05714 6.05696C2.37564 9.73682 0.308594 14.7283 0.308594 19.9343C0.308594 25.1402 2.37585 30.1313 6.05714 33.8116C9.73701 37.4931 14.7285 39.5601 19.9345 39.5601C25.1404 39.5601 30.1315 37.4929 33.8118 33.8116C37.4933 30.1317 39.5603 25.1402 39.5603 19.9343C39.5603 14.7283 37.4931 9.7372 33.8118 6.05696C30.1319 2.37546 25.1404 0.308411 19.9345 0.308411ZM19.9345 36.9434C15.424 36.9434 11.0964 35.1509 7.90689 31.9618C4.71768 28.7726 2.92538 24.4452 2.92538 19.9343C2.92538 15.4234 4.71785 11.0963 7.90689 7.90671C11.0961 4.7175 15.4235 2.92519 19.9345 2.92519C24.4454 2.92519 28.7725 4.71767 31.962 7.90671C35.1512 11.0959 36.9435 15.4234 36.9435 19.9343C36.9435 24.4452 35.1511 28.7723 31.962 31.9618C28.7728 35.1511 24.4454 36.9434 19.9345 36.9434Z" fill="white"/>
<path d="M25.8877 18.8481L18.0373 13.6146C17.6448 13.3611 17.146 13.3349 16.7289 13.5492C16.2939 13.7683 16.0159 14.2132 16.0093 14.7005V25.1677C16.0109 25.6501 16.2775 26.0917 16.7027 26.3191C17.1198 26.5333 17.6186 26.5071 18.0111 26.2536L25.8614 21.0201C26.2229 20.7764 26.4404 20.3691 26.4404 19.9341C26.4404 19.499 26.2229 19.0918 25.8614 18.8481L25.8877 18.8481ZM18.626 22.7733V17.147L22.8128 19.9339L18.626 22.7733Z" fill="white"/>
</svg>
