<?xml version="1.0" encoding="utf-8"?>
<!-- Generator: Adobe Illustrator 25.4.1, SVG Export Plug-In . SVG Version: 6.00 Build 0)  -->
<svg version="1.1" id="Layer_1" xmlns="http://www.w3.org/2000/svg" xmlns:xlink="http://www.w3.org/1999/xlink" x="0px" y="0px"
	 viewBox="0 0 294.6 402.1" style="enable-background:new 0 0 294.6 402.1;" xml:space="preserve">
<style type="text/css">
	.st0{fill:#ED2024;}
</style>
<path class="st0" d="M0.8,400.9c0.3-0.1,0.6-0.2,0.9-0.3c-0.1,0.3,0.1,0.5,0.9,0.3c1.2-0.3,3.8-2.1,6.9-4.3c0.6-0.4,1.3-0.9,1.9-1.4
	c0.9-0.3,1.8-0.7,2.6-1.2c-0.5,0.3-0.9,0.7-1.3,1.2c-0.1,0.4,1.8-0.4,4.3-1.9c4.3-2.6,8.5-5.3,12.7-8.2c1.2-0.5,2.4-0.8,3.4-1.2
	c-1.8,1.3-3.7,2.7-5.5,3.9c-0.4,0.2-0.7,0.5-1.1,0.8c-0.1,0.2,0.1,0,0.6-0.3l6.1-4.1l1.1-0.8c0.5-0.1,1-0.3,1.5-0.4
	c-2.1,1.6-4.3,3.1-6.5,4.7c-0.4,0.2-0.7,0.5-1.1,0.8c-0.1,0.2,0.1,0,0.6-0.3c2-1.4,4.1-2.7,6.1-4.1l1.9-1.3c0.7-0.1,1.3-0.2,2-0.2
	h0.5c-8.8,6.8-17.9,13-27.4,18.7c-0.4,0.2-0.7,0.4-1,0.7c0.4-0.1,0.7-0.2,1-0.5c8.5-5.1,16.8-10.6,24.7-16.6l0,0
	c-0.3,0.3-0.3,0.4,0.1,0.2c0.4-0.3,0.8-0.6,1.2-1c0.3-0.3,0.3-0.3-0.1-0.2c0.6-0.4,1.2-1,1.8-1.4H40c-0.1,0.1-0.3,0.2-0.4,0.3
	c-0.3,0.3-0.1,0.3,0.1,0.2s0.4-0.3,0.6-0.5l0.5,0.1l-3.2,2.3c-0.4,0.3-0.7,0.6-1,0.9c-0.1,0.1,0.3,0,0.7-0.4l0.2-0.1
	c-7.5,5.7-15.4,10.9-23.5,15.8c-0.4,0.2-0.7,0.4-1,0.7c0.4-0.1,0.7-0.2,1-0.5c7.5-4.5,14.8-9.3,21.8-14.5c-0.9,0.8-1.5,1.5-1.3,1.5
	s0.8-0.2,1.8-0.8c0.5-0.3,1.1-0.7,1.8-1.2c-1.2,1.1-1.9,2-1.8,2s0.3,0,0.6-0.2c-1.2,0.9-2.4,1.9-3.7,2.8c-1,0.7-1.7,1.4-1.7,1.5
	s0.8-0.4,1.8-1.1c3.8-2.6,7.5-5.4,11.2-8.2l0.1,0.1c0,0,0.1,0,0.2,0c-3.2,2.7-6.5,5.2-9.9,7.7c-1,0.7-1.7,1.4-1.7,1.5
	s0.8-0.4,1.8-1.1c7.8-5.4,15.3-11.3,22.5-17.5c0.2,0,0.3,0,0.5,0c-0.7,0.6-1.3,1.2-2,1.8c-0.5,0.5-1,0.9-1.5,1.5l-0.2,0.2
	c-0.1,0.1-0.2,0.1-0.3,0.2c-2,1.5-4.1,3.1-6.3,4.8c-0.4,0.3-0.8,0.6-1.1,1c-0.2,0.2,0.1,0.1,0.6-0.3c1.2-0.9,2.3-1.8,3.5-2.7
	c-0.3,0.2-0.5,0.5-0.7,0.7c0,0.1,0.4-0.2,0.9-0.6c1.2-1,2.3-1.9,3.5-2.9c0.4-0.2,0.7-0.4,1-0.7c1.3-1,2.5-2.1,3.8-3.2l0,0
	c0.2,0.1,0.5,0.1,0.8,0.1c-0.7,0.6-1.3,1.2-2,1.8c-0.6,0.5-1.1,1-1.6,1.6c-0.2,0.1-0.3,0.1-0.4,0.3c-2,1.5-4.1,3.1-6.3,4.8
	c-0.4,0.3-0.8,0.6-1.1,1c-0.2,0.2,0.1,0.1,0.6-0.3c2.1-1.7,4.1-3.2,6-4.6c0.3-0.2,0.7-0.5,0.9-0.8c0,0.2,0.4-0.1,1.1-0.7
	c1.3-1,2.5-2.1,3.8-3.2c2.5-0.8,4.9-1.8,7.1-3.2l3.7-2.1c1.2-0.7,2.4-1.3,3.4-1.8c0.6-0.3,1.3-0.5,2-0.7c0.2,0.1,0.4,0.3,0.6,0.5
	c0.2-0.2,0.4-0.4,0.6-0.7c0.5,0,1,0.2,1.2,0.7c1.8-2,3.5-4.2,5.4-6.6c0.9-1.2,1.8-2.4,2.8-3.6l2.7-3.7c0.9-1.2,1.8-2.5,2.8-3.7
	l2.6-3.7l5.1-6.9c1.1-1.4,2.4-2.9,3.6-4.3s2.4-2.9,3.6-4.4c2.5-2.9,4.9-5.9,7.5-8.9c10.1-14.5,19.3-29.6,27.3-45.3
	c7.7-15,14.5-30.5,20.4-46.3c0.5-2.5,1.2-5.1,1.9-8.1c0.5-0.1,1-0.3,1.3-0.8c0.4-0.9,0.7-1.9,1-2.8c0.4-1.7,0.8-3.3,1.1-4.9l1-4.7
	c0.7-3,1.2-5.7,1.9-8c0.4-1.1,0.8-0.8,1.2-0.4c2.9-11,5.4-22.1,7.4-33.3c0.4-6.2,0.5-12.3,0.8-18.2l1.4-0.4c1.7-7.3-0.2-13.6,1.3-21
	c0.1-0.2,0.1-0.5,0.2-0.7h0c0-0.1,0-0.1,0-0.1c0.5-1,1.1,0.1,1.8,0.1c2.5-27.5,3-55.2,1.4-82.7l0.3,0.3l0.9,0.9
	c10.1,9.5,47.9,47.9,52.9,54.3c16.6,16.6,31.9,33.1,48.9,49.1c-0.8-1.7,3.9,1.9,3.1,0.2c-0.1-0.1-0.1-0.2-0.2-0.4
	c1.1,0.5,2.5,1.4,2,0.4c-0.5-1.1-4.5-3.9-6.5-6.3c-4.8-6.5-4.9-9.7-4-11.6c0.3-0.6-3-3.8-5.1-5.9c3.2-0.1-3.8-8.7-1.7-9.8
	c-3.3-3.1-7.8-7-10.9-10.5c-2-2.4-3.9-5.1-5.8-7.9c-9.8-11.9-18.8-23.1-27.8-33.9c-0.8-0.7-1.7-1.5-2.6-2.4c0.1-0.2,0.1-0.5,0-0.7
	l-0.8-1c-2.1-2-4.2-3.8-5.4-5.3c-0.3-0.4-0.1-0.5,0.2-0.6c-3.2-3.5-6.5-7-9.8-10.5c-2.1-1.6-4.1-3.2-6.1-4.7l0.3-0.6
	c-2-2.5-4.7-3.4-6.7-5.9c-0.6-0.9,0.2-0.7,0.4-1c-7.1-7-14.4-14-21.8-20.8c0.4-0.8,0.9-1.6,1.4-2.4c0.3-0.7,0.5-1.4,0.7-2.1
	l-1.6,1.7c0.6-0.7,1.2-1.3,1.7-2.1c0-0.3,0.1-0.5,0.1-0.8l-2.4,2.4l0,0C181,5,182,3.7,182.7,3l0,0c-0.8,0.7-1.6,1.5-2.3,2.3
	c0.1-0.3,0.2-0.6,0.3-0.9c-0.5,0.5-1,1-1.4,1.5l0,0c0.5-0.6,1-1.2,1.5-1.9c0-0.3,0.1-0.5,0.1-0.8l-1.7,1.8l0,0
	c0.6-0.7,1.3-1.6,1.8-2.1l0,0c-0.7,0.7-1.4,1.4-2.1,2.2c-0.5,0.2-0.9,0.4-1.3,0.7c0.2-0.8-0.2-0.9-1.1-0.4l-0.8-0.8
	c-1.1-1.1-3.7-2.2-6.2-3.7c-0.7-0.3-1.4-0.5-2.1-0.7l1.3,1.2l-0.1-0.1c-0.5-0.4-1-0.9-1.5-1.2c-0.3-0.1-0.5-0.1-0.8-0.1l0.6,0.6
	l-0.4-0.1L165.8,0l0,0c0.1,0.1,0.2,0.3,0.4,0.4c-0.2-0.1-0.5-0.2-0.7-0.2l1.7,1.6c-0.7-0.6-1.4-1.2-2.1-1.7
	c-0.3-0.1-0.5-0.1-0.8-0.1l2.5,2.5c-0.7-0.7-2.1-1.8-2.9-2.5l0,0c0.9,1,1.8,1.9,2.8,2.7c-0.6,0.4-1.2,0.7-1.7,1.1
	c-0.8,0.5-1.6,1.1-2.2,1.8L160.7,7c0.3-0.6,0.6-1.2,1-1.8c-2.6,1.7-5.1,3.3-7.6,5c-6,4.8-11.7,10.1-17,15.7l-0.9,0.9
	c-9.5,10.1-47.9,48-54.3,52.9c-16.6,16.6-33.1,31.9-49.1,48.9c1.7-0.8-1.9,3.9-0.2,3.1c0.8-0.6,1.6-1.4,2.2-2.2
	c-0.5,1.1-1.5,2.7-0.4,2.2s3.9-4.5,6.3-6.5c3.9-2.9,6.6-4.1,8.6-4.4c0.4,0.1,0.8,0.2,1.2,0.4c0.1,0.1,0.4-0.1,0.8-0.3
	c0.3,0.1,0.7,0.2,1,0.3c0.5,0.3,3-2.2,5-4.3c0.3,0,0.7-0.1,1-0.2c1,1,5.1-1.7,7.7-2.5c0.1,0.1,0.1,0.1,0.2,0.2l0.3-0.3
	c0.7-0.2,1.2-0.1,1.5,0.3c3.2-3.3,7.1-7.8,10.5-10.9c2.4-2,5.1-3.9,7.9-5.8c11.9-9.8,23.1-18.8,33.9-27.8c0.7-0.8,1.5-1.7,2.4-2.6
	c0.2,0.1,0.5,0.1,0.7,0l1-0.8c2-2.1,3.8-4.2,5.3-5.4c0.4-0.3,0.5-0.1,0.6,0.2c3.5-3.2,7-6.5,10.5-9.8l4.7-6.1l0.6,0.3
	c2.5-2,3.4-4.7,5.9-6.7c0.9-0.6,0.7,0.2,1,0.4c1.4-1.4,2.8-2.9,4.2-4.3c0.1,0.9,0.1,1.7,0.2,2.5c-0.1-0.3-0.2-0.6-0.2-0.9
	c0,1,0.1,1.9,0.1,2.8l-0.1,0.7c0-0.3-0.1-0.7-0.1-1l0.1,1.2c-0.2,1-0.3,2.2-0.5,3.7c-0.5,1.7-0.6,5.3-0.6,9.5
	c-0.1-0.6-0.3-1.1-0.4-1.7c-0.2,1.4-0.5,2.7-0.7,4c-0.3-1.3-0.6-2.6-1-4c-1.2,6.7-2.6,13.4-3.8,19.9c-1,7.1-1.9,15.8-2.7,24.8
	s-1.6,18.3-2.3,26.7l-0.3,2.8c-0.6,7.7-2,20.9-4.6,36.6c-1.3,7.9-2.9,16.3-4.8,24.9s-4.1,17.4-6.5,26s-5.2,17-7.9,24.9
	s-5.7,15.1-8.4,21.6c-5.6,12.8-10.6,22.2-13,25.8c-10.9,22.3-24.8,43-41.2,61.6C42,365.5,23.5,381.4,3.1,394.7
	c1.9-0.4,0.4,1.3-1.1,3c-0.7,0.7-1.3,1.5-1.8,2.3C-0.2,400.6-0.1,401,0.8,400.9z M168.1,23.5L168.1,23.5c0.1,0,0.1,0.1,0.1,0.2
	L168.1,23.5z M168.8,22.8l0.1,0.1c-0.1,0.2-0.1,0.3-0.2,0.5c0-0.1-0.1-0.3-0.1-0.4L168.8,22.8z"/>
</svg>
