<?xml version="1.0" encoding="utf-8"?>
<!-- Generator: Adobe Illustrator 27.2.0, SVG Export Plug-In . SVG Version: 6.00 Build 0)  -->
<svg version="1.1" id="Capa_1" xmlns="http://www.w3.org/2000/svg" xmlns:xlink="http://www.w3.org/1999/xlink" x="0px" y="0px"
	 viewBox="0 0 800 800" style="enable-background:new 0 0 800 800;" xml:space="preserve">
<style type="text/css">
	.st0{fill:#001464;}
</style>
<g>
	<g>
		<path class="st0" d="M799.2,765.9v-732c0-18.7-15.2-33.9-33.9-33.9H34.8C16.1,0,0.8,15.2,0.8,33.9v730.4
			c0,18.7,15.2,33.9,32.3,35.6h732C783.8,800,799.2,784.6,799.2,765.9z M67,732V66.2h665.7v665.9H67L67,732L67,732z"/>
		<path class="st0" d="M359.9,704.1c18.7,0,33.9-15.2,33.9-33.9V440.8c0-18.7-15.2-33.9-33.9-35.6H130.5
			c-18.7,0-33.9,15.2-33.9,33.9c0,18.7,15.2,33.9,33.9,33.9h195.3v197.1C325.8,688.9,341.2,704.1,359.9,704.1z"/>
		<path class="st0" d="M703.1,359.1c0-17.1-15.2-32.3-33.9-32.3H473.9V129.7c0-18.7-15.2-33.9-33.9-33.9S406,111,406,129.7v229.4
			c0,18.7,15.2,33.9,33.9,33.9h229.2C687.9,393,703.1,377.6,703.1,359.1z"/>
	</g>
</g>
</svg>
