<svg width="20" height="20" viewBox="0 0 20 20" fill="none" xmlns="http://www.w3.org/2000/svg">
<path fill-rule="evenodd" clip-rule="evenodd" d="M3 0C1.34315 0 0 1.34315 0 3V17C0 18.6569 1.34315 20 3 20H17C18.6569 20 20 18.6569 20 17V3C20 1.34315 18.6569 0 17 0H3ZM6.22841 7.24134C5.08642 5.57797 4.11785 4.16819 4.07603 4.10851L4 4L5.85266 4.00014L7.70532 4.00029L9.28749 6.3055C10.1577 7.57336 10.8794 8.62309 10.8914 8.63821C10.9122 8.66447 10.9248 8.6522 11.1711 8.36657C11.7322 7.71587 11.8545 7.57347 11.9747 7.43122C12.0435 7.34988 12.1035 7.2802 12.1082 7.27635C12.1129 7.2725 12.3462 7.00157 12.6265 6.67428C12.9069 6.347 13.1808 6.02846 13.2351 5.96644C13.2894 5.90441 13.3654 5.81641 13.4039 5.77088C13.4424 5.72535 13.534 5.61857 13.6074 5.53361C13.7735 5.34133 14.3585 4.66087 14.6821 4.28353L14.9252 4H15.4719C15.9868 4 16.0175 4.0014 15.9994 4.02404C15.9889 4.03727 15.7878 4.27197 15.5526 4.5456L14.7282 5.50516C14.51 5.75929 14.2985 6.00501 14.2583 6.05122C14.2181 6.09742 14.0446 6.29904 13.8728 6.49926C13.7009 6.69949 13.355 7.10221 13.1041 7.3942C11.6412 9.09644 11.4187 9.35669 11.4127 9.37245C11.4064 9.38867 11.6237 9.70818 13.2573 12.0859C15.5265 15.3887 16.411 16.6789 16.4172 16.695C16.423 16.7101 16.0963 16.7133 14.578 16.713L12.7319 16.7127L12.6957 16.6605C12.6758 16.6318 11.9145 15.523 11.0038 14.1966C10.0932 12.8701 9.34359 11.7848 9.33808 11.7848C9.33258 11.7848 9.20868 11.9245 9.06275 12.0953C8.91683 12.266 8.79091 12.4125 8.78293 12.4208C8.77497 12.4291 8.57382 12.6627 8.33598 12.9399C8.09812 13.2172 7.88097 13.4695 7.85342 13.5006C7.82588 13.5317 7.77428 13.5915 7.73876 13.6336C7.64599 13.7434 6.54225 15.0277 6.39752 15.1942C6.33059 15.2712 6.00955 15.6445 5.6841 16.0238L5.09238 16.7133H4.55416C4.20697 16.7133 4.01593 16.7084 4.01593 16.6994C4.01593 16.6918 4.05874 16.6366 4.11105 16.5769C4.16336 16.5172 4.45501 16.1785 4.75915 15.8242C5.32874 15.1608 5.43672 15.0352 6.18497 14.1654L6.99205 13.227L7.6785 12.4289L8.29883 11.7078C8.46441 11.5153 8.65538 11.2937 8.72318 11.2155C8.79097 11.1372 8.84644 11.0688 8.84644 11.0635C8.84644 11.0582 8.72456 10.8765 8.5756 10.6597C8.42662 10.443 7.37039 8.90472 6.22841 7.24134ZM6.29123 5.96721C5.88206 5.38195 5.53592 4.88572 5.522 4.86448L5.49673 4.82586L6.34012 4.82948L7.18352 4.83309L8.8663 7.24134L12.7357 12.7789L14.9223 15.9083L14.0867 15.9119C13.43 15.9147 13.2475 15.9117 13.2341 15.8979C13.2248 15.8882 12.7044 15.1462 12.0777 14.2491C10.1166 11.4416 7.06723 7.07719 6.29123 5.96721Z" fill="#263F5D"/>
</svg>
