<svg width="20" height="20" viewBox="0 0 20 20" fill="none" xmlns="http://www.w3.org/2000/svg">
<path fill-rule="evenodd" clip-rule="evenodd" d="M3 0C1.34315 0 0 1.34315 0 3V17C0 18.6569 1.34315 20 3 20H17C18.6569 20 20 18.6569 20 17V3C20 1.34315 18.6569 0 17 0H3ZM17 16.4213V11.6156C17 9.04094 15.626 7.84337 13.791 7.84337C12.3087 7.84337 11.6496 8.65722 11.2783 9.22661V8.03832H8.49012C8.52726 8.82433 8.49012 16.4213 8.49012 16.4213H11.2783V11.7393C11.2783 11.4887 11.2968 11.2411 11.3711 11.0617C11.5722 10.5603 12.0302 10.0436 12.8008 10.0436C13.8096 10.0436 14.2119 10.811 14.2119 11.9374V16.4213H17ZM11.2783 9.22661V9.25446H11.2597L11.2783 9.22661ZM4 5.44823C4 4.62509 4.62509 4 5.5782 4C6.5313 4 7.11616 4.62509 7.13473 5.44823C7.13473 6.2528 6.5313 6.89645 5.55963 6.89645H5.54106C4.60652 6.89645 4 6.27136 4 5.44823ZM6.95215 16.4244H4.1671V8.04142H6.95215V16.4244Z" fill="#263F5D"/>
</svg>
