<svg width="20" height="20" viewBox="0 0 20 20" fill="none" xmlns="http://www.w3.org/2000/svg">
<path fill-rule="evenodd" clip-rule="evenodd" d="M3 0C1.34315 0 0 1.34315 0 3V17C0 18.6569 1.34315 20 3 20H17C18.6569 20 20 18.6569 20 17V3C20 1.34315 18.6569 0 17 0H3ZM16.5657 5.77875C16.9924 6.23047 17.131 7.25587 17.131 7.25587V7.25032C17.131 7.25032 17.2751 8.45308 17.2751 9.65861V10.7865C17.2751 11.9921 17.131 13.1976 17.131 13.1976C17.131 13.1976 16.9924 14.223 16.5657 14.6747C16.0781 15.2071 15.5369 15.2638 15.2308 15.2959C15.1959 15.2996 15.164 15.3029 15.1357 15.3066C13.1348 15.4562 10.1362 15.4618 10.1362 15.4618C10.1362 15.4618 6.42536 15.4257 5.28358 15.3121C5.22993 15.3018 5.16479 15.2937 5.09093 15.2846C4.7298 15.2401 4.16042 15.1699 3.70946 14.6775C3.28268 14.2258 3.14411 13.2004 3.14411 13.2004C3.14411 13.2004 3 11.9948 3 10.7893V9.66138C3 8.45585 3.14411 7.2531 3.14411 7.2531C3.14411 7.2531 3.28268 6.2277 3.70946 5.77598C4.20118 5.2391 4.74514 5.18596 5.05144 5.15604C5.0835 5.15291 5.11295 5.15003 5.13947 5.14688C7.1376 4.99723 10.1362 5 10.1362 5H10.1417C10.1417 5 13.1375 5 15.1357 5.14966C15.1622 5.15281 15.1916 5.15568 15.2237 5.15881C15.53 5.18874 16.0739 5.24187 16.5657 5.77875ZM8.6646 12.1639L12.5195 10.0799L10.4022 8.92698L8.6646 7.98196V8.95746V12.1639Z" fill="#263F5D"/>
</svg>
