<svg id="Layer_1" data-name="Layer 1" xmlns="http://www.w3.org/2000/svg" xmlns:xlink="http://www.w3.org/1999/xlink" width="27.9" height="34" viewBox="0 0 27.9 34"><defs><linearGradient id="linear-gradient" x1="33.71" y1="22.86" x2="33.71" y2="55.73" gradientTransform="matrix(1, 0, 0, -1, 0, 74)" gradientUnits="userSpaceOnUse"><stop offset="0" stop-color="#44aee3"/><stop offset="0.2" stop-color="#44aee3"/><stop offset="0.37" stop-color="#50b4d4"/><stop offset="0.73" stop-color="#61bfbd"/><stop offset="0.9" stop-color="#66c5b4"/><stop offset="1" stop-color="#66c5b4"/></linearGradient><linearGradient id="linear-gradient-2" x1="43.84" y1="22.86" x2="43.84" y2="55.73" xlink:href="#linear-gradient"/><linearGradient id="linear-gradient-3" x1="43.42" y1="22.86" x2="43.42" y2="55.73" xlink:href="#linear-gradient"/></defs><path d="M34.6,40.6a3.9,3.9,0,0,1,3.8-3.9h6.8V31.9a1.1,1.1,0,0,0-.6-1l-7.1-4.1-7.6-4.4-6.3-3.6-.4-.2a1,1,0,0,0-1,1v9.6l11,6.3-11,6.4v9.8a.9.9,0,0,0,1.4.8l6.3-3.6,4.7-2.7Z" transform="translate(-22.2 -18.6)" style="fill:url(#linear-gradient)"/><path d="M43.7,42.8h-1v2.6h1c.8,0,1.3-.3,1.3-1.3S44.5,42.8,43.7,42.8Z" transform="translate(-22.2 -18.6)" style="fill:url(#linear-gradient-2)"/><path d="M48.4,38.9h-10a1.6,1.6,0,0,0-1.6,1.7v9.9a1.6,1.6,0,0,0,1.6,1.7h10a1.7,1.7,0,0,0,1.7-1.7V40.6A1.7,1.7,0,0,0,48.4,38.9Zm-4.7,8.2h-1v3.5H40.5V41h3c2.4,0,3.7.7,3.7,3S46.5,47.1,43.7,47.1Z" transform="translate(-22.2 -18.6)" style="fill:url(#linear-gradient-3)"/></svg>