<svg id="Layer_1" data-name="Layer 1" xmlns="http://www.w3.org/2000/svg" xmlns:xlink="http://www.w3.org/1999/xlink" width="27.9" height="34" viewBox="0 0 27.9 34"><defs><linearGradient id="linear-gradient" x1="33.71" y1="21.3" x2="33.71" y2="56.25" gradientTransform="matrix(1, 0, 0, -1, 0, 74)" gradientUnits="userSpaceOnUse"><stop offset="0" stop-color="#345eac"/><stop offset="0.1" stop-color="#345eac"/><stop offset="0.23" stop-color="#356fb7"/><stop offset="0.55" stop-color="#349ad5"/><stop offset="0.78" stop-color="#35b8ea"/><stop offset="0.9" stop-color="#32c5f4"/><stop offset="1" stop-color="#32c5f4"/></linearGradient><linearGradient id="linear-gradient-2" x1="43.41" y1="21.3" x2="43.41" y2="56.25" xlink:href="#linear-gradient"/><linearGradient id="linear-gradient-3" x1="43.42" y1="21.3" x2="43.42" y2="56.25" xlink:href="#linear-gradient"/></defs><path d="M34.6,40.6a3.9,3.9,0,0,1,3.8-3.9h6.8V31.9a1.1,1.1,0,0,0-.6-1l-7.1-4.1-7.6-4.4-6.3-3.6-.4-.2a1,1,0,0,0-1,1v9.6l11,6.3-11,6.4v9.8a.9.9,0,0,0,1.4.8l6.3-3.6,4.7-2.7Z" transform="translate(-22.2 -18.6)" style="fill:url(#linear-gradient)"/><path d="M43.1,42.6h-1v6.1h1c1.2,0,1.7-.5,1.7-3.2S44.3,42.6,43.1,42.6Z" transform="translate(-22.2 -18.6)" style="fill:url(#linear-gradient-2)"/><path d="M48.4,38.9h-10a1.6,1.6,0,0,0-1.6,1.7v9.9a1.6,1.6,0,0,0,1.6,1.7h10a1.7,1.7,0,0,0,1.7-1.7V40.6A1.7,1.7,0,0,0,48.4,38.9ZM43.2,50.5H39.9V40.8h3.3c2.6,0,3.9,1.2,3.9,4.7S46.2,50.5,43.2,50.5Z" transform="translate(-22.2 -18.6)" style="fill:url(#linear-gradient-3)"/></svg>