<svg id="Layer_1" data-name="Layer 1" xmlns="http://www.w3.org/2000/svg" xmlns:xlink="http://www.w3.org/1999/xlink" width="27.9" height="34" viewBox="0 0 27.9 34"><defs><linearGradient id="linear-gradient" x1="33.71" y1="55.65" x2="33.71" y2="22.26" gradientTransform="matrix(1, 0, 0, -1, 0, 74)" gradientUnits="userSpaceOnUse"><stop offset="0" stop-color="#911b53"/><stop offset="0.1" stop-color="#911b53"/><stop offset="0.91" stop-color="#332e86"/><stop offset="1" stop-color="#332e86"/></linearGradient><linearGradient id="linear-gradient-2" x1="43.42" y1="55.65" x2="43.42" y2="22.26" xlink:href="#linear-gradient"/><linearGradient id="linear-gradient-3" x1="43.34" y1="55.65" x2="43.34" y2="22.26" xlink:href="#linear-gradient"/></defs><path d="M34.6,40.6a3.9,3.9,0,0,1,3.8-3.9h6.8V31.9a1.1,1.1,0,0,0-.6-1l-7.1-4.1-7.6-4.4-6.3-3.6-.4-.2a1,1,0,0,0-1,1v9.6l11,6.3-11,6.4v9.8a.9.9,0,0,0,1.4.8l6.3-3.6,4.7-2.7Z" transform="translate(-22.2 -18.6)" style="fill:url(#linear-gradient)"/><path d="M48.4,38.9h-10a1.6,1.6,0,0,0-1.6,1.7v9.9a1.6,1.6,0,0,0,1.6,1.7h10a1.7,1.7,0,0,0,1.7-1.7V40.6A1.7,1.7,0,0,0,48.4,38.9ZM44.7,50.6l-.8-2.8c-.2-.9-.6-1.1-1.2-1.1h-.4v3.9H39.8V41h3.4c2.7,0,3.8,1.5,3.8,2.7a2.5,2.5,0,0,1-1.8,2.5c.8.2,1.2.8,1.5,1.8l.7,2.6Z" transform="translate(-22.2 -18.6)" style="fill:url(#linear-gradient-2)"/><path d="M43.1,42.9h-.8V45h.8c.9,0,1.3-.3,1.3-1.1S43.9,42.9,43.1,42.9Z" transform="translate(-22.2 -18.6)" style="fill:url(#linear-gradient-3)"/></svg>