<svg id="Layer_1" data-name="Layer 1" xmlns="http://www.w3.org/2000/svg" xmlns:xlink="http://www.w3.org/1999/xlink" width="27.9" height="34" viewBox="0 0 27.9 34"><defs><linearGradient id="linear-gradient" x1="33.71" y1="21.82" x2="33.71" y2="56.26" gradientTransform="matrix(1, 0, 0, -1, 0, 74)" gradientUnits="userSpaceOnUse"><stop offset="0" stop-color="#4d2a7c"/><stop offset="0.1" stop-color="#4d2a7c"/><stop offset="0.9" stop-color="#3d5eab"/><stop offset="1" stop-color="#3d5eab"/></linearGradient><linearGradient id="linear-gradient-2" x1="43.42" y1="21.82" x2="43.42" y2="56.26" xlink:href="#linear-gradient"/></defs><path d="M34.6,40.6a3.9,3.9,0,0,1,3.8-3.9h6.8V31.9a1.1,1.1,0,0,0-.6-1l-7.1-4.1-7.6-4.4-6.3-3.6-.4-.2a1,1,0,0,0-1,1v9.6l11,6.3-11,6.4v9.8a.9.9,0,0,0,1.4.8l6.3-3.6,4.7-2.7Z" transform="translate(-22.2 -18.6)" style="fill:url(#linear-gradient)"/><path d="M48.4,38.9h-10a1.6,1.6,0,0,0-1.6,1.7v9.9a1.6,1.6,0,0,0,1.6,1.7h10a1.7,1.7,0,0,0,1.7-1.7V40.6A1.7,1.7,0,0,0,48.4,38.9Zm-1.9,4.5a4.4,4.4,0,0,0-2.1-.7c-1.2,0-2.3.6-2.3,2.8s1,3.1,2.3,3.1a3.6,3.6,0,0,0,2.1-.8h0V50a6,6,0,0,1-2.4.5,4.5,4.5,0,0,1-4.8-4.8c0-3.3,2.1-4.9,4.7-4.9a7.1,7.1,0,0,1,2.5.6v2Z" transform="translate(-22.2 -18.6)" style="fill:url(#linear-gradient-2)"/></svg>