<?xml version="1.0" encoding="utf-8"?>
<!-- Generator: Adobe Illustrator 28.0.0, SVG Export Plug-In . SVG Version: 6.00 Build 0)  -->
<svg version="1.1" id="Layer_1" xmlns="http://www.w3.org/2000/svg" xmlns:xlink="http://www.w3.org/1999/xlink" x="0px" y="0px"
	 viewBox="0 0 131 130" style="enable-background:new 0 0 131 130;" xml:space="preserve">
<style type="text/css">
	.st0{clip-path:url(#SVGID_00000170988840048717888500000013154430664227394477_);}
	.st1{fill:#FFFFFF;stroke:url(#SVGID_00000039102035217811998620000007157364537636800149_);}
	.st2{fill:#8A9198;}
	.st3{opacity:0.8;}
	.st4{opacity:0.8;fill:#001464;enable-background:new    ;}
	.st5{opacity:0.8;fill-rule:evenodd;clip-rule:evenodd;fill:#001464;enable-background:new    ;}
	.st6{opacity:0.7;}
	.st7{opacity:0.7;fill:#001464;enable-background:new    ;}
	.st8{opacity:0.7;fill-rule:evenodd;clip-rule:evenodd;fill:#001464;enable-background:new    ;}
	.st9{opacity:0.6;}
	.st10{opacity:0.6;fill:#001464;enable-background:new    ;}
	.st11{opacity:0.6;fill-rule:evenodd;clip-rule:evenodd;fill:#001464;enable-background:new    ;}
	.st12{opacity:0.5;}
	.st13{opacity:0.5;fill:#001464;enable-background:new    ;}
	.st14{opacity:0.4;}
	.st15{opacity:0.4;fill:#001464;enable-background:new    ;}
	.st16{opacity:0.3;}
	.st17{opacity:0.3;fill:#001464;enable-background:new    ;}
	.st18{opacity:0.2;}
	.st19{opacity:0.2;fill:#001464;enable-background:new    ;}
	.st20{opacity:0.2;fill-rule:evenodd;clip-rule:evenodd;fill:#001464;enable-background:new    ;}
	.st21{fill:#001464;}
	.st22{fill-rule:evenodd;clip-rule:evenodd;fill:#001464;}
</style>
<g>
	<defs>
		<rect id="SVGID_1_" width="131" height="130"/>
	</defs>
	<clipPath id="SVGID_00000146482978201510696460000001736315343329314694_">
		<use xlink:href="#SVGID_1_"  style="overflow:visible;"/>
	</clipPath>
	<g style="clip-path:url(#SVGID_00000146482978201510696460000001736315343329314694_);">
		
			<linearGradient id="SVGID_00000011011610438802165390000001163706825071391879_" gradientUnits="userSpaceOnUse" x1="-56.8195" y1="66.6935" x2="160.9413" y2="67.2002" gradientTransform="matrix(1 0 0 -1 0 132)">
			<stop  offset="0.3177" style="stop-color:#E43425"/>
			<stop  offset="0.7188" style="stop-color:#441FD8"/>
			<stop  offset="1" style="stop-color:#0A26B8"/>
		</linearGradient>
		<path style="fill:#FFFFFF;stroke:url(#SVGID_00000011011610438802165390000001163706825071391879_);" d="M63.4,2.3
			c1.3-1,3-1,4.3,0l7.2,5.6c1.1,0.9,2.6,1.2,4,0.8l8.9-2.5c1.5-0.4,3.2,0.2,4,1.6l4.5,7.9c0.7,1.2,2,2.1,3.4,2.2l9.1,1.1
			c1.6,0.2,2.9,1.5,3.1,3.1l1.1,9c0.2,1.4,1,2.7,2.3,3.4l8,4.4c1.4,0.8,2.1,2.4,1.7,4l-2.4,8.7c-0.4,1.4-0.1,2.9,0.8,4l5.6,7.1
			c1,1.3,1,3.1,0,4.3l-5.6,7.1c-0.9,1.1-1.2,2.6-0.8,4l2.4,8.7c0.4,1.6-0.2,3.2-1.7,4l-8,4.4c-1.3,0.7-2.1,2-2.3,3.4l-1.1,9
			c-0.2,1.6-1.5,2.9-3.1,3.1l-9.1,1.1c-1.4,0.2-2.7,1-3.4,2.2l-4.5,7.9c-0.8,1.4-2.4,2.1-4,1.6l-8.9-2.5c-1.4-0.4-2.8-0.1-4,0.8
			l-7.2,5.6c-1.3,1-3,1-4.3,0l-7.2-5.6c-1.1-0.9-2.6-1.2-4-0.8l-8.9,2.5c-1.5,0.4-3.2-0.2-4-1.6l-4.5-7.9c-0.7-1.2-2-2.1-3.4-2.2
			l-9.1-1.1c-1.6-0.2-2.9-1.5-3.1-3.1l-1.1-9c-0.2-1.4-1-2.7-2.3-3.4L8,91c-1.4-0.8-2.1-2.4-1.7-4l2.4-8.7c0.4-1.4,0.1-2.9-0.8-4
			l-5.6-7.1c-1-1.3-1-3.1,0-4.3L8,55.7c0.9-1.1,1.2-2.6,0.8-4L6.3,43c-0.4-1.6,0.2-3.2,1.7-4l8-4.4c1.3-0.7,2.1-2,2.3-3.4l1.1-9
			c0.2-1.6,1.5-2.9,3.1-3.1l9.1-1.1c1.4-0.2,2.7-1,3.4-2.2l4.5-7.9c0.8-1.4,2.4-2.1,4-1.6l8.9,2.5c1.4,0.4,2.8,0.1,4-0.8L63.4,2.3z"
			/>
		<path class="st2" d="M76.5,75.2l0.1-0.2l0.1-0.4l0,0.1L76.5,75.2z"/>
		<path class="st2" d="M55.6,64.9l-0.9,2.4L55.6,64.9L55.6,64.9z"/>
		<path class="st2" d="M58.4,85.6l1.6,2.3l0.3,0.4l-0.6-0.9L58.4,85.6z"/>
		<path class="st2" d="M76.7,74.7L76.7,74.7l0.1-0.3L76.7,74.7z"/>
		<path class="st2" d="M55.6,64.9L55.6,64.9L55.6,64.9L55.6,64.9L55.6,64.9z"/>
		<path class="st2" d="M56.8,62.5L56.8,62.5L56.8,62.5L56.8,62.5z"/>
		<g class="st3">
			<path class="st4" d="M45.8,65.3l0.3,0.1l0.5,0.4l0.5,0.3l0.4,0.5l0.2,0.2l0,0l0.8,0.6l0.4,0.5l3.9-0.5l-0.5-0.3l-0.9-0.6L50.5,66
				l-0.7-0.5l-0.8-0.6l-0.7-0.5l-0.8-0.6l-0.7-0.5L46,62.1l-0.2-0.5l-0.3,0.1l-0.7,1l-0.2,1.4l0.1,0.4l0.5,0.3L45.8,65.3z"/>
			<path class="st4" d="M37.6,87.3L37,87.4l-0.7,0l-0.7,0.1l-0.7,0l-0.4,0.1l3.7,1.2l2.4,0.7L39,87.1l-0.7,0.1L37.6,87.3z"/>
			<path class="st4" d="M35.1,83l0.5-0.1l0,0l0.4-0.2l0.8-0.2l0.7-0.1h0l0.1,0l0-0.4l-0.3,0v-0.1l-0.3,0l-0.8-0.1l-0.8-0.1l-0.8,0
				l-1.1-0.6l-0.6-0.6l0,0.3l0.3,1.3l0.7,1.1l0.4,0.3l0.2-0.2L35.1,83z"/>
			<path class="st4" d="M36.3,76.3l0.7,0.1l0.7,0.1l0.7,0.3l0.3,0.2l0.2-0.5l0,0l0.1-0.2l0-0.1l-0.8-0.2l-0.9-0.4l-0.9-0.3l-1.1-0.9
				l-0.4-0.6l0,0.5l0.3,1.4l0.4,0.8l0,0L36.3,76.3z"/>
			<path class="st4" d="M61.8,79.8l-0.1-0.2l0-0.1L61.8,79.8z"/>
			<path class="st4" d="M38.1,70.2l0.7,0.2l0.6,0.1l0.6,0.4l0.3,0.1l0.3,0.2l0.5,0.1l1,0.4l0.3,0.1l0.7-0.8l0.6-0.4l0,0l0.1-0.1
				L43,70.3L42,70l-0.9-0.3l-1.1-1l-0.5-0.8l-0.1-0.7l-0.1,0.1l-0.2,1.4l0.3,1.7L38.2,70l-1,0.3l0.2,0L38.1,70.2z"/>
			<path class="st4" d="M33.1,87.1L33.1,87.1L33.1,87.1L33.1,87.1z"/>
			<path class="st4" d="M33.9,95.8l0.1,0.3l0.3-0.1l0.1,0L34,95.7L33.9,95.8z"/>
			<path class="st5" d="M63.9,92.1l1.9,3.8l-0.1-0.5l-1.3-3l-1.5-2.8l-0.2-0.3L63.9,92.1z"/>
			<path class="st5" d="M66.4,98.7l-0.6-2.5l-1-1.8l-1.7-2.6l-1.9-2.6l-1.8-1.8l-0.8-0.5l-0.6-0.4L57.3,86l-0.6-0.3l-0.6-0.5
				l-0.5-0.4L55,84.4L54.4,84L53.8,83l-0.2-0.4l-0.1,0L53,83.4l-0.2,1.1l0.1,0.5l0.3,0.2l0.3,0.3l0.4,0.1l0.3,0.3l0.4,0.3l0.3,0.4
				l0.3,0.3l0.5,0.4l0.6,0.5l0.5,0.7l2.5,3.3l0.7,0.7l0.6,0.7l-0.3-0.4l-0.4-0.4l1.7,2.2l2.7,3.4l0.8,1l-0.5-0.6l-1.7-1.8l-2.1-2.2
				l-2.5-2.1l-2.3-1.3L55,90.6l-0.7-0.3l-0.7-0.3l-0.7-0.2l-0.7-0.3l-0.7-0.3l-0.7-0.3l-0.7-0.3L49.2,88l-0.4-0.7l0-0.5l0,0.1
				l-0.2,1l0.2,1.4l-0.9-0.2L47,89.2l0.2,0l0.5,0l0.1,0l0.6,0.1l0.5,0.2l0.6,0.3l0.1,0l0.7,0.3l0.7,0.3l0.6,0.2l0.6,0.5l0.6,0.5
				l0.5,0.6l5.2,5.7l2.9,3.1l0.9,0.9l-0.6-0.5l-1.7-1.6l-2.3-2l-2.7-1.8l-2.4-1.1l-0.9-0.3l-0.8-0.2l-0.8-0.2L49.3,94l-0.8-0.2
				l-0.7-0.2l-0.7-0.2l-0.7-0.2l-0.9-0.7l-0.3-0.4l0,0.3l0.2,1.1l0.3,0.6l0.6-0.2l0.6,0.1l0.6,0.1l0.6,0.3l2.7,1.6l1.4,0.8l0.4,0.2
				l-0.3-0.1l-0.8-0.5L51,96.2l5,3.6l0.4,0.3l-0.3-0.2l2.8,2l0.9,0.6l-0.6-0.3l-1.7-1.1l-2.3-1.2l-2.6-1.1l-2.2-0.4l-0.7-0.1l-0.7,0
				l-0.7,0l-0.6-0.1l-0.7,0l-0.6-0.1l-0.7-0.1l-0.6,0l-0.8-0.5l-0.5-0.5l0,0.3l0.1,1l0.6,0.8l0.3,0.2l0.1-0.1l0.5-0.3l0.2,0l0.5-0.3
				l0.6-0.2l0.6,0l0.5,0l0.6,0.2l0.2,0.1l0.3,0.1l0.5,0.2l0.5,0.2l0,0l1.4,0.5l1.6,0.6l0.5,0.2l-0.3-0.1l-0.9-0.3l-1-0.1l2.9,1.7
				l2.3,1.3l0.8,0.4l-0.5-0.2l-1.4-0.7l-1.9-0.7l-2-0.6l-0.5,0l2.4,1.1l2.5,1.1l0.8,0.3l-0.5-0.1l-1.4-0.5l-2-0.6l-2-0.5l-1.8,0
				l-0.6,0l-0.5,0.1l-0.5,0.1l-0.5,0.1l-0.5,0l-0.5,0l-0.5,0l-0.5,0.1l-0.7-0.3l-0.3-0.2l0,0.1l0,0.9l0.3,0.7l0.6,0.7l0.8,0.3l1,0.2
				l-0.8,1.1l-0.5,1l-0.4,0.7l-0.2,0.6l-0.2,0.2l0.1,0.2l0.3-0.1l0.4-0.1l1-0.3l1.5,0.2l2,0.4l2.5,0.3l2.9,0l3.5-0.4l3.8-1.1
				l4.2-1.8l0.2-3.9L66.4,98.7z"/>
		</g>
		<g class="st6">
			<path class="st7" d="M58,60l0.3,0.4l0.1-0.2l0.9-1L59.3,59l-0.5-0.9l-0.4-0.6l-0.7,0.9l-0.6,0.9l0.2,0.1L58,60z"/>
			<path class="st7" d="M62.7,54.9l0.3,0.4l0.3-0.3l0,0L62.8,54l-0.4-0.9l-0.1-0.3l-0.7,0.7l0.6,0.6L62.7,54.9z"/>
			<path class="st7" d="M76.1,50.1l0.5,1.1l0.1,0.2l0.8,1.6l0.7,1.7l0.9,1.7l0.2,2.5l0,2l0.1-3.5L77.7,50l-2.2-3.6l-0.2,2.1
				L76.1,50.1z"/>
			<path class="st7" d="M78.9,66.7l0.4-1.7l0.1-2.7l-0.1,2L78.9,66.7z"/>
			<path class="st8" d="M78.1,73.7l-1.6-2.8l-0.2,2.4l0.1,2l0,0.9l0-0.5l-0.2-1.7l-0.4,4.6l-0.3,4.7l0,0.7l-0.1,0.9l0.1-1.5l0-0.1
				l0-2l-0.1-3.5L75,74.2l-0.2-0.8L74.1,82l-0.4,4.8l0,0.6l0,0.9l0-1.5v0l0-2l-0.1-3.5l-0.4-3.6l-0.4-2l0,0.7l-0.4,8.8l-0.1,4.8
				l0,0.4l0,0.3l0,0.8l0-1.1l0-2.4L72,84.4l-0.5-3.6L70.7,78l0,0l0,0.7l0.1,8.7l0,4.8l0.1,1.4l-0.1-0.9l-0.2-2.7l-0.4-3.4l-0.6-3.5
				l-1-2.7l-0.4-0.9l-0.4-0.7l-0.4-0.8l-0.3-0.6l-0.4-0.8l-0.3-0.6l-0.1-0.2l-0.6,0.6l0.5,0.4l0.4,0.5l0.5,0.6l0.4,0.6l0.4,0.8
				l0.3,0.6l0.3,0.7l0.3,0.9l0.2,0.8l0.9,8.6l0.6,4.6l0.1,1.4l-0.1-0.9l-0.5-2.5l-0.8-3.3l-1-3.4l-1.3-2.5l-0.6-0.8l-0.5-0.6
				l-0.5-0.6l-0.4-0.6l-0.4-0.8L64,80.6l-0.4-0.7l-0.3-0.4l-0.5,0.7l-0.4,0.6l0.1,0.1l0.5,0.4l0.6,0.5l0.5,0.6l0.5,0.7l0.4,0.5
				l0.4,0.7l0.4,0.7l0.4,0.8l2.4,7.9l1.3,4.4l0.5,1.3L70,98.5L69,96.1l-1.3-2.9l-1.6-3l-1.6-2.1l-0.7-0.6l-0.6-0.5l-0.6-0.5L62.1,86
				l-0.6-0.5l-0.6-0.5l-0.5-0.6l0,0l-0.1,0.1l0.3,0.5l3.3,7.2l-1.3-2.9l0.2,0.3l1.5,2.8l1.3,3l0.1,0.5l-1.9-3.8l1.9,3.9l0.5,1.2
				L66,96.5l-1.2-2.1l1,1.8l0.6,2.5l0.4,3.5l-0.2,3.9l3.2-2.1l3.1-3.4l2.8-4.5l2.2-5.2l1.3-5.8l0.2-5.8L78.1,73.7z"/>
			<path class="st7" d="M54.7,64.5l0.6,1.2l0.3-0.9l-0.3-0.3l-0.7-0.7l-0.1-0.1L54.4,64L54.7,64.5z"/>
			<path class="st7" d="M77.9,71.2l0.3-1.3l-0.4,1.3L77.9,71.2z"/>
		</g>
		<g class="st9">
			<path class="st10" d="M58,60l-0.7-0.5l-0.2-0.1l-0.8-0.5l-1-0.2l-0.9,0.1l-0.8,0.4l-0.5,0.6l-0.1,1l0.2,1.1l0.6,1.3l0.6,0.6
				l0.1,0.1l0.7,0.7l0.3,0.3l0,0l0,0l0.2-0.6l0.3-0.5l0.1-0.2l0.1-0.1l0.2-0.4l0.4-0.5l0,0l0.3-0.6l0.5-0.6l0.4-0.5l0.4-0.6L58,60z"
				/>
			<path class="st10" d="M75.6,43.7l0-1l-0.2-1.2l-0.2-1l-0.3-1l-0.3-1l-0.4-1.1l-0.4-0.9l-0.7-1L72.4,35l-0.9-0.3l-0.8,0.2
				l-0.7,0.4l-0.5,0.8l-0.2,1.1l0.2,1.6l0.2,0.7l-0.5-0.3l-0.8,0.2l-0.7,0.4l-0.5,0.8l-0.2,1.1l0.1,1.6l0.3,0.8L67,43.8l-0.9-0.3
				l-0.8,0.2l-0.6,0.5L64.4,45l-0.2,1.1l0.2,1.3L64,47.2L63.1,47l-0.7,0.2l-0.6,0.4l-0.4,0.9l-0.1,1.1l0.3,1.6l0.4,0.9l0.3,0.7
				l0.1,0.3l0.4,0.9l0.5,0.9l0,0l0.8-0.8l0.3-0.3l-0.2-0.2l-0.3-0.5l-0.4-0.6L63.2,52l0-0.1l-0.3-0.5l-0.3-0.5l-0.3-1l0.1-0.7
				l0.2-0.7l0.4-0.2l0.5-0.2l0.5,0.1l0.6,0.3l0.4,0.4l0.2,0.2l0.3,0.4l0.2,0.3l0.3,0.3l0.3,0.6l0.3,0.6l0.2,0.5l0.4-0.4l0,0l0.6-0.6
				l0-0.1l-0.4-0.5l-0.4-0.7L66.5,49l0-0.1l-0.3-0.5l-0.3-0.6l-0.4-0.4l0-0.2l-0.2-0.5L65,45.6l0.1-0.7l0.2-0.5l0.4-0.2l0.5-0.2
				l0.6,0.2l0.6,0.3l0.6,0.6l0.1,0.1l0.3,0.5l0.3,0.6l0.2,0.5l0.1,0.3l0.2,0.4l0.2,0.5l0.2,0.7l0,0.3l0.1-0.1l0.1-0.2l0.2-0.3l0,0
				l0.1-0.1l0.5-0.7l-0.4-0.6l-0.4-0.6l0,0l-0.4-0.6l-0.2-0.6l-0.4-0.6l-0.3-0.6l-0.3-0.6l-0.4-0.7l-0.2-1l0-0.7l0.2-0.6l0.5-0.2
				l0.4-0.2l0.6,0.2l0.5,0.3l0.3,0.4l0.2,0.2l0.4,0.4l0.3,0.6l0.3,0.6l0.3,0.6l0.2,0.6l0.2,0.7l0,0.1l0,0.2l0.2-0.4l0.3-0.6l0.2-0.4
				l0.2,0.5l0,0l0,0l0.5,1l0,0l0.8,1.6l0.3,0.6l-0.6-2.8l-0.4-1l-0.5-1.2l-0.4-0.7L72.5,41l-0.4-0.6l-0.3-0.5l-0.3-0.6l-0.3-0.6
				l-0.3-0.6l-0.3-0.6l-0.3-1l0.1-0.8l0.2-0.6L71,35l0.5-0.2l0.6,0.2l0.6,0.4l0.5,0.6l0.3,0.5l0.3,0.6l0.3,0.5l0.3,0.7l0.2,0.5
				l0.2,0.7l0.2,0.6l0.1,0.7l0.2,5l0.1,2.3l0,0.3l0.1,0.1l0,0.1l0.2-2.1l0.1-1.5L75.6,43.7z"/>
			<path class="st10" d="M62.7,54.9l-0.6-0.7l-0.6-0.6l-0.3-0.3L60.3,53l-0.9-0.1l-0.7,0.3l-0.6,0.4l-0.3,0.9l0,1.2l0.4,1.5l0.2,0.3
				l0.4,0.6l0.5,0.9l0.1,0.2l0.9-1l0,0l0.4-0.5l0.1-0.1l0.3-0.3l0.3-0.3l0.2-0.3l0.5-0.4l0.5-0.4l0.1,0l0.4-0.4L62.7,54.9z"/>
			<path class="st10" d="M84,46.1l0.2,0.6l0.3,0.5l0.3,0.5l0.1,0.1l-0.5-0.9L84,46.1z"/>
			<path class="st10" d="M85.9,45.8L85.8,45l-0.1-1l0-0.9l-0.2-0.8l-0.3-0.7l-0.3-0.6l-0.4-0.5l-0.4-0.5l-0.4-0.5L83.2,39l-0.4-0.4
				l-0.3,0.7v0.8l-0.1,0.7v0.8l0.1,0.6l0.2,0.8v0l0-0.4l-0.1-1l0-0.9l0.3,1.1l0.3,1l0.3,1l0.4,1l0.4,0.8l0.4,0.9l0.5,0.8l0.4,0.9
				l0.2-0.4l0.1-0.6l0.1-0.6L85.9,45.8z M84.5,42.7l-0.1,0.2l-0.2-0.1l-0.2-0.3l-0.2-0.5l-0.2-0.5l-0.1-0.7l0-0.5v-0.4l0.2-0.1
				l0.1,0l0.2,0.4l0.2,0.5l0.2,0.7l0,0.5l0.1,0.5L84.5,42.7z"/>
			<path class="st10" d="M91.4,51.6l0.4,0.2l0.3,0.1L92,51.8L91.4,51.6z"/>
			<path class="st10" d="M89,49.5l0.2,0.2l-0.2-0.3L89,49.5z"/>
			<path class="st10" d="M93.9,48.5L93.6,48l-0.4-0.3l-0.5-0.3l-0.5-0.2L91.6,47l-0.7,0l-0.7-0.1l-0.7,0l-0.4,0.5l-0.3,0.5l-0.2,0.4
				l0,0.4l0.2-0.4l0.3,0.5l0.5,1.6h0l0.3,0.3l0.3,0.4l0.4,0.3l-0.1-0.9l0.6,0.4l0.6,0.5l0.7,0.4l0.7,0.3l0.3-0.2l0.3-0.4l0.2-0.4
				l0.1-0.6l0-0.5V49L93.9,48.5z M93.3,49.5l-0.3,0l-0.3-0.1l-0.3-0.3l-0.2-0.2L92,48.2l0.3-0.4l0.2-0.1l0.3,0.2l0.3,0.3l0.2,0.4
				l0.1,0.6L93.3,49.5z"/>
			<path class="st10" d="M91,51.4l0.1,0.1l-0.5-0.3L91,51.4z"/>
			<path class="st11" d="M66.1,85.8L65.7,85l-0.4-0.7L65,83.6l-0.4-0.5l-0.5-0.7l-0.5-0.6L63,81.4l-0.5-0.4l-0.9-0.6l-0.7-0.1
				l-0.7,0.1l-0.5,0.3l-0.4,0.5l-0.1,0.7l0.1,0.9l0.5,1l0.6,0.5l0.5,0.6l0.6,0.5l0.6,0.5l0.5,0.4l0.6,0.5l0.6,0.5l0.7,0.6l1.6,2.1
				l1.6,3l1.3,2.9l0.9,2.4l0.3,0.9l-0.5-1.3l-1.3-4.4L66.1,85.8z"/>
			<path class="st11" d="M68.9,82.5l-0.2-0.8l-0.3-0.9l-0.3-0.7l-0.3-0.6l-0.4-0.8L67,78.1l-0.5-0.6L66.2,77l-0.7-0.6l-0.7-0.3
				L64.1,76l-0.6,0.2l-0.4,0.4l-0.3,0.7l0,0.8l0.4,1.2l0.4,0.6l0.4,0.7l0.4,0.5l0.4,0.8l0.4,0.6l0.5,0.6l0.5,0.6l0.6,0.8l1.3,2.5
				l1,3.4l0.8,3.3l0.5,2.5l0.1,0.9l-0.1-1.4l-0.6-4.6L68.9,82.5z"/>
			<path class="st10" d="M61.9,79.8l0.5,0.9l-0.6-1.3l0,0.2L61.9,79.8z"/>
			<path class="st10" d="M53,65.8l-1.8-1.4L50.6,64L50,63.7l-0.6-0.3l-0.5-0.3l-0.5-0.4l-0.5-0.3l-0.6-0.4l-0.5-0.3l-0.4-0.6
				l-0.2-0.2L46,60.4v-0.6l0.2-0.4l0.3-0.3v0l-0.4,0.4l-0.5,0.7l0.1,1l0.1,0.4l0.2,0.5l0.8,1.2l0.7,0.5l0.8,0.6l0.7,0.5l0.8,0.6
				l0.7,0.5l0.8,0.5l0.9,0.6l0.5,0.3l1.5-0.2L53,65.8z"/>
			<path class="st10" d="M55.2,67.2l0.4,0.4l-0.2-0.3L55.2,67.2z"/>
			<path class="st10" d="M61.7,79.5L61.7,79.5l0-0.1l-0.1-0.1L61.7,79.5z"/>
			<path class="st10" d="M48.8,68l0.1,0l0,0l-0.4-0.5l-0.8-0.6l0,0l1,1.1L48.8,68z"/>
			<path class="st10" d="M46.1,68.8l-0.6-0.2l-0.6-0.2l-0.6-0.2l-0.6-0.2L43,67.8l-0.6-0.2l-0.6-0.1l-0.7-0.7l-0.3-0.5l-0.2-0.6
				l0.1-0.3l0-0.1l-0.5,0.2l-0.6,0.7l-0.3,0.7l0,0.2l0.1,0.7l0.5,0.8l1.1,1L42,70l1,0.4l0.8,0.3l0.5-0.4l0.6-0.4l0.6-0.4l0.6-0.3
				l0.4-0.3L46.1,68.8z"/>
			<path class="st10" d="M40,74.2l-0.7-0.1L38.7,74l-0.6-0.2l-0.6-0.2l-0.6-0.2l-0.6-0.1l-0.7-0.5l-0.3-0.4L35,72.4L35,71.8L34.8,72
				l-0.3,0.7l0.2,0.9l0.2,0.2l0.4,0.6l1.1,0.9l0.9,0.3l0.9,0.4l0.8,0.2l0-0.1l0,0l0.2-0.6l0.4-0.5l0.3-0.5l0.3-0.3L40,74.2z"/>
			<path class="st10" d="M41.5,71.6L42,72l0.1,0.1l0.2-0.2l0.1,0l0,0l-0.3-0.1l-1-0.4l-0.5-0.1l0.3,0.2L41.5,71.6z"/>
			<path class="st10" d="M33.4,78.8l0-0.1l0.1-0.4l-0.2,0.2l-0.3,0.7l-0.2,0.6l0.3,0.7l0,0l0.1-1L33.4,78.8z"/>
			<path class="st10" d="M34.6,81.7l0.8,0l0.8,0.1l0.8,0.1l0.3,0l0-0.5l0.1-0.5l0-0.1l0-0.1l0.1-0.3l0-0.1h-0.2l-0.6-0.1l-0.6,0
				l-0.6-0.1l-0.6,0L34,79.7l-0.5-0.4l-0.1-0.4l-0.3,0.7l-0.1,1l0.6,0.6L34.6,81.7z"/>
			<path class="st10" d="M38.2,86L37.9,86l-0.6-0.1L36.7,86L35.9,86L35.3,86l-0.9-0.3l-0.5-0.4l0,0l-0.2-0.5L33.4,85l-0.5,0.5
				l-0.2,0.6l0,0.5l0.3,0.5l0.2,0.1l0,0l0.4,0.1l1.1,0.3l0.4-0.1l0.7,0l0.7-0.1l0.7,0l0.6-0.2l0.7-0.1l0.7-0.1L38.2,86z"/>
			<path class="st10" d="M54.8,66.6L54.8,66.6L54,65.5l0.7,1.3l0,0l0,0L54.8,66.6z"/>
			<path class="st10" d="M54.9,66.5l0-0.1l0.2-0.4l0.2-0.3l0.8,1.8l-1.4-3l-0.5-0.9l-0.6-0.7L53,62.1l-0.6-0.6l-0.7-0.7l-0.2-0.2
				l2.6,4.6L54.9,66.5z"/>
			<path class="st11" d="M53.4,102.3l-2.4-1.1l-1.3-0.1h-0.6l-0.5,0l-0.5,0l-0.5,0.1l-0.5,0l-0.5,0l-0.5,0l-0.5,0l-0.7-0.3l-0.4-0.3
				l-0.1-0.3l-0.3,0.2l-0.4,0.3l-0.1,0.4l-0.1,0.4l0.2,0.4l0.4,0.2l0.7,0.3l0.5-0.1l0.5,0l0.5,0l0.5,0l0.5-0.1l0.5-0.1l0.5-0.1
				l0.6,0l1.8,0l2,0.5l2,0.6l1.4,0.5l0.5,0.1l-0.8-0.3L53.4,102.3z"/>
			<path class="st11" d="M55.7,99.7l0.2,0.2l-5-3.6l-0.3-0.1l2.8,2L55.7,99.7z"/>
			<path class="st11" d="M58.9,102l-2.8-2L56,99.9l-1.4-0.8l-1.7-0.9L51,97.3l-1.7-0.2L48.7,97l-0.5,0l-0.6-0.1l-0.4,0.1l-0.5-0.2
				l-0.5,0l-0.5,0l-0.5,0l-0.6-0.3l-0.4-0.4L44,95.7l0.1-0.2L44,95.6l-0.3,0.5l-0.1,0.5l0.2,0.5l0.5,0.5l0.8,0.5l0.6,0l0.7,0.1
				l0.6,0.1l0.7,0l0.6,0.1l0.7,0l0.7,0l0.7,0.1l2.2,0.4l2.6,1.1l2.3,1.2l1.7,1.1l0.6,0.3L58.9,102z"/>
			<path class="st11" d="M61.3,101l-2.9-3.1l-5.2-5.7l-0.5-0.6L52,91.1l-0.6-0.5l-0.6-0.2l-0.7-0.3l-0.7-0.3l-0.1,0v0l0.1,0.1
				l0.4,0.2l0.4,0.2l0.3,0.3l1,0.7l0.9,0.7l0.4,0.3l0.3,0.1l-0.3-0.1h0l-0.1-0.1l-0.3-0.2l-0.3-0.2l-0.6-0.3l2.6,2.5l2,1.8l0.6,0.5
				l-0.4-0.3l-1.3-1l-1.6-1.1L51.9,93l-1.6-0.5l-0.6-0.2l-0.5,0l-0.4-0.1l-0.5,0L47.7,92l-0.4-0.1l-0.5-0.1l-0.4-0.1l-0.6-0.5
				l-0.4-0.4l-0.1-0.3l-0.1,0.1l-0.2,0.5l0.1,0.7l0.4,0.6l0.9,0.7l0.7,0.2l0.7,0.2l0.7,0.2l0.8,0.2l0.7,0.1l0.8,0.2l0.8,0.2l0.9,0.3
				l2.4,1.1l2.7,1.8l2.3,2l1.7,1.6l0.6,0.5L61.3,101z"/>
			<path class="st11" d="M56.5,88.3l0.2,0.2l0.3,0.3l-0.2-0.1L56.5,88.3l1.7,1.9l1.2,1.3l-2.5-3.3l-0.5-0.7l-0.6-0.5l-0.5-0.4
				L56.5,88.3z"/>
			<path class="st11" d="M64.2,97.8l-2.7-3.4l-1.7-2.2l-0.7-0.7l-1.5-1.3L56,89l-1.5-0.7L53.9,88l-0.5-0.1l-0.6-0.1l-0.4-0.1
				l-0.5-0.2l-0.4-0.2L51,87.2l-0.4-0.1L50,86.6l-0.3-0.4l-0.1-0.4l0.1-0.3l-0.4,0.1L49,86.1l-0.2,0.5l0,0.7l0.4,0.7l0.9,0.8
				l0.7,0.3l0.7,0.3l0.7,0.3l0.7,0.3l0.7,0.2l0.7,0.3l0.7,0.3l0.8,0.3l2.3,1.3l2.5,2.1l2.1,2.2l1.7,1.8l0.5,0.6L64.2,97.8z"/>
			<path class="st11" d="M65.8,96l-1.9-3.9l-3.3-7.2l-0.4-0.7l-0.5-0.7l-0.5-0.6l-0.5-0.4l-0.5-0.6l-0.1-0.1l2,3.5l1,1.8l0.2,0.3
				l0.2,0.4l-0.3-0.5L61,87l-0.5-0.7l-0.5-0.6l1,1.9l1.3,2.6l0.4,0.7l-0.3-0.4l-0.8-1.4l-1.1-1.6l-1.4-1.7l-1.4-1l-0.5-0.3l-0.4-0.2
				L56.4,84L56,83.8l-0.4-0.3l-0.4-0.2L54.8,83l-0.4-0.2L54,82.2l-0.1-0.4l0-0.5l0.2-0.4L53.9,81l-0.3,0.5l-0.1,0.7l0.3,0.8l0.6,0.9
				l0.5,0.4l0.6,0.4l0.5,0.4l0.6,0.5l0.6,0.3l0.7,0.5l0.6,0.4l0.8,0.5l1.8,1.8l1.9,2.6l1.7,2.6l1.2,2.1l0.4,0.7L65.8,96z"/>
			<path class="st10" d="M72.3,90.4l0-0.3l0,1.1L72.3,90.4z"/>
			<path class="st10" d="M73.7,88.4l0-0.9l0-0.6v0L73.7,88.4z"/>
			<path class="st10" d="M75.3,84.9l0.1-0.9l0-0.7l0,0.1L75.3,84.9z"/>
			<path class="st10" d="M76.5,68.8l0-0.8l-0.2-0.8l-0.1-0.7L76,65.8L75.7,65l-0.3-0.7L75,63.6l-0.5-0.8L74,62.3l-0.7-0.2l0.4,0.2
				l0.4,0.2l0.4,0.5l0.3,0.3l0.3,0.5l0.2,0.4l0.2,0.5l0.1,0.4l0.3,0.6l0.1,0.5l0.1,0.5l0.1,5.6l0.1,1l0.3-3.5L76.5,68.8z"/>
			<path class="st10" d="M75.9,71.9l-0.4-2.3L74.8,68l-0.3-0.6l-0.4-0.4l-0.3-0.5L73.5,66L73,65.1l-0.4-0.9l-0.2-0.8v-0.6l0.2-0.4
				l0.4-0.2l0.4-0.2l-0.5,0.1l-0.5,0.3l-0.4,0.6L71.8,64l0.2,1.2l0.1,0.5l-0.5-0.1l-0.5,0.1l-0.5,0.3l-0.4,0.6L70,67.5l0.2,1.2
				l0.3,0.7v0L69.9,69l-0.7-0.2L68.7,69l-0.5,0.3l-0.3,0.6l-0.2,0.9l0.1,1.1l-0.3-0.2l-0.7-0.2l-0.5,0.2l-0.5,0.3l-0.3,0.7l-0.1,0.9
				l0.2,1.2l0.3,0.6l0.4,0.8l0.3,0.6l0.4,0.8l0.3,0.6l0.4,0.8l0.4,0.7l0.4,0.9l1,2.7l0.6,3.5l0.4,3.4l0.2,2.7l0.1,0.9l-0.1-1.4v-4.8
				l-0.1-8.7l0-0.7l0.8,2.7l0.5,3.6l0.2,3.4l0,2.4v-0.4l0.1-4.8l0.4-8.8l0-0.7l0.4,2l0.4,3.6l0.1,3.5v2l0.4-4.8l0.2-1.9l0-0.5
				L74,77.9l-0.2-2.2l-0.5-2.2l-0.7-1.7l-0.4-0.5L72,70.9l-0.3-0.5L71.5,70L71,69.1l-0.4-0.9l-0.1-0.9l0-0.5l0.2-0.5l0.4-0.2
				l0.4-0.2l0.4,0.1l0.4,0.2l0.4,0.5l0.5,0.8l0.4,0.9l0.1,0.6l0.2,0.5l0.1,0.5l0.1,0.6l0.1,5.5l0.2,3l0,0.8l0.6-6.7l0.2,0.8l0.4,3.6
				l0.1,3.5v2l0.4-4.7l0.4-4.6V74L75.9,71.9z M70.7,85.2v0.2v0.1l0,0.5l0-0.6l-0.3-1.6l-0.4-2.1l-0.7-2.2L68.7,78l-0.4-0.6L68,76.9
				l-0.3-0.4l-0.2-0.4l-0.3-0.4l-0.3-0.4l-0.2-0.4l-0.2-0.4l-0.1-0.8v-0.6l0.2-0.5l0.3-0.2l0.4-0.2l0.4,0.1l0.4,0.2l0.4,0.5l0.3,0.3
				l0.3,0.4l0.2,0.4l0.2,0.5l0.1,0.5l0.2,0.5l0.1,0.5l0.2,0.6v0.1l0.5,5.4L70.7,85.2z M70.5,69.9l0.1,0.1l0.2,0.3l0.3,0.5l0.2,0.4
				l0.2,0.5l0.1,0.4l0.2,0.5l0.1,0.5l0.1,0.6l0.1,5.5l0.2,3v0.1l0,0.2l0,0.5l-0.1-0.7l-0.2-1.5l-0.3-2.1l-0.5-2.2l-0.7-1.6l-0.3-0.6
				L70,73.9l-0.3-0.5L69.4,73l-0.5-0.9l-0.4-0.9l-0.1-0.8l0-0.5l0.2-0.5l0.4-0.2l0.4-0.2l0.4,0.1l0.4,0.2L70.5,69.9z"/>
		</g>
		<g class="st12">
			<path class="st13" d="M59.2,81.9l0.1-0.7l-1.4-1.6l-3-2.8L51.7,74l-1.1-0.6l-0.2-0.1l-1.7-1L48,72.1l-0.7-0.2l-0.6-0.2L46,71.5
				l-0.4-0.2l-0.2-0.1L44.8,71l-0.5-0.2l-0.2,0l-0.3-0.1l-0.6,0.4l-0.7,0.8l0,0l0.3,0.1l0.4,0.3l0.4,0.2l0.3,0.4l0.4,0.2l0.4,0.2
				l0.3,0.4l0.3,0.4l0.5,0.6l0.1,0.1l6.2,6.8l1.4,1.5l0.2-0.3l0.1,0l0.2,0.4l-0.3-0.8l0.1-0.7l0.3-0.5l0.1-0.1l-0.2,0.4l0.2-0.4
				l0.2-0.1l-0.1-0.1l0.1-0.4l0.1-0.2l0.3-0.3l0.3-0.1l0.4,0l0.5,0.2l0.7,0.3l0.6,0.5l0.5,0.5l0.5,0.7l0,0l0.1,0.1l0.5,0.6l0.5,0.4
				l0.5,0.6l0.1,0.1l-0.4-0.9L59.2,81.9z"/>
			<path class="st13" d="M60.4,84.3L60,84l0.2,0.2l0.4,0.7l-0.3-0.5L60.4,84.3z"/>
			<path class="st13" d="M57.6,70.5l-0.3-0.5l0.1,0.1L57.6,70.5z"/>
			<path class="st13" d="M55.5,67.7l0.2,0.3l-0.1-0.1L55.5,67.7z"/>
			<path class="st13" d="M39.4,75.7l0.3-0.6l0-0.1l-0.4,0.5l-0.2,0.6l0,0L39.4,75.7z"/>
			<path class="st13" d="M54.2,74.4l0.2,0.2l0.1,0.1L54.2,74.4L54.2,74.4z"/>
			<path class="st13" d="M54.8,75.1l-0.3-0.3l0.1,0.1L54.8,75.1z"/>
			<path class="st13" d="M39.1,76.1L39.1,76.1L39.1,76.1L39.1,76.1z"/>
			<path class="st13" d="M48.6,88.7L48.6,88.7l-0.1-0.8l0,0L48,87.6l-2.4-0.9l-2.7-0.8l-0.5,0l3.3,1.5L48.6,88.7z"/>
			<path class="st13" d="M48.6,88.7l-1.3-0.5l-2.5-0.7l-2.8-0.6L39.8,87l-0.5,0L39,87.1l1.7,2.4l2.4,0.6l2.2,0.5l0-0.1l0.1-0.3
				l0.2-0.4l0.4-0.2l0.5-0.3l0.4,0.1l0.8-0.1l0.9,0.2L48.6,88.7z"/>
			<path class="st13" d="M45.3,90.6L45.3,90.6L45.3,90.6z"/>
			<path class="st13" d="M47.7,89.2l0.6,0.1L47.7,89.2z"/>
			<path class="st13" d="M38.6,84.4l0.7-0.2l1.4-0.2l1.7,0.3h0.1l3.9,2.2l2.2,1.2l0.2-0.8l0-0.1l0,0.5l0-0.7l0.2-0.5l0.4-0.5
				l0.4-0.1l-0.1,0.3l0.1-0.3l0.1-0.1l-2-1.1l-3.3-1.5l-2.9-0.6L41,82.1l-0.5,0L39.9,82l-0.4,0h-0.1l-0.5,0l-0.5,0h0H38l-0.2,0h-0.2
				l0,0.4l-0.1,0l-0.1,0l0.1,0.3v0.1l0,0.2l0,0.5l0.1,0.6v0.1l0.1,0.4v0.1h0l0.2-0.1l0.6-0.2L38.6,84.4z"/>
			<path class="st13" d="M42.3,79.4l5.3,3.9l0.9,0.6l0.2,0.1l0.1,0.1l0.6,0.4l-0.7-0.4l-0.3-0.2l0.5,0.4l1.2,0.8l0,0l0.5-0.2
				l0.4-0.1l0.7,0l0.5,0l0.6,0.2l0.1,0.1l-0.1-0.5l0.2-1.1l0.1-0.1l-2.3-2l-3.3-2.4l-3.2-1.4l-0.8-0.3L43,77.2l-0.3,0l-0.2-0.1
				l-0.4-0.2l-0.7-0.1l-0.6-0.2l-0.6-0.2l-0.7-0.2l-0.1,0l-0.1,0l-0.3,0L39,76.4L38.8,77l0,0l-0.1-0.1l-0.1,0.3l0,0l0,0l-0.1,0.3
				l0,0l-0.2,0.4l-0.1,0.4l0,0.1l0.2-0.1v0h0l0.1,0l0.3,0.1l1.4,0l1.5,0.6l0,0l0.1,0l0.5,0.2L42.3,79.4L42.3,79.4z"/>
			<path class="st13" d="M48.6,68.1l0.1,0l0.1,0l-0.1,0L48.6,68.1l-0.2,0l0,0l-0.1,0.1l0.1,0L48.6,68.1z"/>
			<path class="st13" d="M49.5,69.1L49.4,69l0.3,0.3l0.2,0.2l0.2,0.2l0.1,0.1L50,69.4l-0.2-0.1L49.5,69.1L49.5,69.1L49.5,69.1
				L49.5,69.1z"/>
			<path class="st13" d="M48.5,68.2l-0.1-0.1l0,0.1l0,0l0,0l0.6,0.4l0.5,0.4l0,0l-0.1-0.1L49,68.6L48.5,68.2L48.5,68.2z"/>
			<path class="st13" d="M41.7,72.7l0.9,0.4l0.6,0.3l0.5,0.3l0.7,0.4l0.1,0l0.6,0.4l0.2,0l-0.4-0.2l-1-0.7l-0.9-0.6l-0.9-0.6l-0.1,0
				l0,0l-0.2,0.2l-0.2,0.1l-0.1,0l-0.1,0l0,0L41.7,72.7z"/>
			<path class="st13" d="M38,85.8l0.2,0.2L38,85.5L38,85.8z"/>
			<path class="st13" d="M54.9,66.5L54.9,66.5l0.7,1.2l-0.1-0.1L54.9,66.5z"/>
			<path class="st13" d="M43.9,80.2l0.2,0.1l-0.4-0.2L43.9,80.2z"/>
			<path class="st13" d="M43,79.7l-0.7-0.3l0,0L43,79.7l0.7,0.4l0,0L43,79.7z"/>
			<path class="st13" d="M42.1,79.3L42.1,79.3l0.3,0.1l0,0L42.1,79.3z"/>
			<path class="st13" d="M41.5,79.1l0.6,0.2l0,0L41.5,79.1L41.5,79.1z"/>
			<path class="st13" d="M38.2,78.4L38.2,78.4L38.2,78.4L38.2,78.4z"/>
			<path class="st13" d="M49.4,69L49.4,69L49.4,69L49.4,69z"/>
			<path class="st13" d="M49.6,69.1L49.6,69.1L49.6,69.1L49.6,69.1z"/>
			<path class="st13" d="M61.8,79.7l-0.1-0.2v0l-1.5-2.7l-2.1-3.4l-2.5-3.5l-2.4-2.2l-0.4-0.2l0,0L48.9,68l0.4,0.5l0.5,0.5l3,3.8
				l0.1,0.1l0.4,0.4l1.2,1.3l0.2,0.2l0.3,0.3l-0.1-0.1l0.2,0.2l-0.4-0.4l-0.1-0.1l-0.2-0.2L54,74.2l2.2,2.8l3.2,4.1l0.4-0.4l0.5-0.3
				l0.7-0.1l0.7,0.1l0.4,0.3l0-0.1L61.8,79.7z"/>
			<path class="st13" d="M59.4,74.6l2.3,4.8l0-0.1l0.1,0.1l-0.3-1.3l-1.6-3.9L59,73l-0.7-1.4l-0.7-1l-0.2-0.3L59.4,74.6z"/>
		</g>
		<g class="st14">
			<path class="st15" d="M69.8,48.5l-0.1,0.2l0,0L69.8,48.5z"/>
			<path class="st15" d="M67.1,51.4L67.1,51.4l0.3-0.2l0.3-0.4L67.1,51.4z"/>
			<path class="st15" d="M70.5,47.7L70.5,47.7l-0.1,0.1L70.5,47.7z"/>
			<path class="st15" d="M73.4,49.5L73.4,49.5l0.2,1l0,0L73.4,49.5z"/>
			<path class="st15" d="M74.1,55l-0.3-3.2l0.3,3.5l0.1,4.5l0,1.4l0-1.8L74.1,55z"/>
			<path class="st15" d="M65,57.8l0.5,0.9l-0.3-0.6L65,57.8z"/>
			<path class="st15" d="M66.6,51.8L66.6,51.8l0.3-0.2l0.1-0.1l0-0.1L66.6,51.8z"/>
			<path class="st15" d="M68.1,50.3l0.2-0.2l0,0L68.1,50.3L68.1,50.3L68.1,50.3z"/>
			<path class="st15" d="M67.6,50.8L67.6,50.8L67.6,50.8z"/>
			<path class="st15" d="M66.3,52.1L66.3,52.1L66,52.4l0.1-0.1L66.3,52.1z"/>
			<path class="st15" d="M66.6,51.8L66.6,51.8L66.6,51.8l-0.1,0.1l-0.2,0.2l0,0L66.6,51.8z"/>
			<path class="st15" d="M53,67.2L53,67.2l-0.1,0.2l0.1,0L53,67.2z"/>
			<path class="st15" d="M62.5,91.7L62.5,91.7L62.5,91.7L62.5,91.7L62.5,91.7z"/>
			<path class="st15" d="M54.7,67.2l-0.5,0l-0.4,0l-0.5,0L53,67.2l-0.1,0.2L54.7,67.2z"/>
			<path class="st15" d="M61.5,90.1l-1.3-1.8l0.8,1.2l1.4,2.1l0,0L61.5,90.1z"/>
			<path class="st15" d="M70.4,69.4L70.3,69l0,0.3L70.4,69.4L70.4,69.4z"/>
			<path class="st15" d="M72.3,82.9l0-0.3l0-0.2L72.3,82.9L72.3,82.9z"/>
			<path class="st15" d="M66,75.4l-0.3-0.6l-0.2-1.2l0.1-0.9l0.3-0.7l0.2-0.1l0-0.1l-1.4-4.3L63,64.1l-0.6-0.7L62,62.7l-0.5-0.6
				l-0.4-0.4l-0.2-0.2l-0.2-0.3l-0.2-0.3l-0.4-0.5l-0.4-0.6l-0.3-0.5l0.3-0.4l0.1-0.1l0.4-0.5l-0.9,1l-0.9,1l-0.1,0.2L58,60.9l0,0
				l0.1-0.2l0.3-0.3l0,0l0.6,0.5l0.5,0.6l0.2,0.3l0.2,0.3l0.5,0.7l0.4,0.7l0.2,0.3l0.2,0.4l0.3,0.7l0.3,0.8l3.2,10.4l0.1,0.2
				l0.3,0.1l0.2,0.2l0.6-0.6L66,75.4z"/>
			<path class="st15" d="M76.1,74L76.1,74L76.1,74z"/>
			<path class="st15" d="M63.1,76.6l0.4-0.4l0.6-0.2l0.3,0l-0.3-0.6l-2.1-4l-2.2-2.8l-0.7-0.6l-0.4-0.4l-0.1-0.1l-0.6-0.5l-0.5-0.4
				l-0.5-0.5l-0.5-0.4L56,65.2l-0.4-0.4v0l-0.3,0.9l2.1,4.4l0.3,0.4l0.7,1L59,73l0.7,1.2l1.6,3.9l0.4,1.4l0.6,1.3l-0.5-1l-0.1-0.2
				l0.1,0.2l0.2,0.8l0,0.1l0.3,0.2l0.4-0.6l0.5-0.7l0.3,0.4l-0.4-0.6l-0.4-1.2l0-0.8L63.1,76.6z"/>
			<path class="st15" d="M74.4,46.6L73.5,45l0,0l-0.5-1l0,0l0,0l-0.2-0.5l0.2,0.5l0,0l0,0l0.3,0.7l0.3,0.6L74,46l0.2,0.3L74.4,46.6z
				"/>
			<path class="st15" d="M72.3,44.5l-0.2,0.4L72,45.1l-0.3,0.6l0.3-0.5h0l0.1-0.2L72.3,44.5L72.3,44.5l0.3-0.6l0,0l0,0l0-0.1
				l0.2-0.4l-0.2,0.4L72.3,44.5z"/>
			<path class="st15" d="M70,48.2l0.3-0.4l0.1-0.2l0.1-0.1l0.3-0.5l0.4-0.5l0.1-0.2l-0.9,1.2L70,48.2z"/>
			<path class="st15" d="M67,51.3L67,51.3l-0.4,0.4l-0.3,0.3l-1.8,1.8l-0.3,0.3L63.3,55L63,55.3l-0.4,0.4l0.4-0.3l0,0l0.4,0.6
				l0.5,0.8l0.3,0.7l0.3,0.8l0.3,0.7l0.1,0.1l0.3,0.7l0.2,0.8l0.2,0.9l1.2,10.1l0.2-0.1l0.7,0.2l0.3,0.2l-0.1-1.1l0.2-0.9l0-0.1
				l-0.3-2.9l-0.9-4.6l-1.3-3.5L65,57.8l-0.1-0.1l-0.3-0.5l-0.3-0.5l-0.6-0.9l-0.2-0.5L63.4,55l0.1-0.1l0.3-0.4l0.5-0.4l0.2-0.2
				l0.3-0.3l0.1-0.1l0.2-0.2l0.4-0.3l0.3-0.3l0.4-0.3l0.3-0.3l0.2-0.2l0.2-0.2L67,51.3l0.6-0.6l0,0l0.1-0.1l0.3-0.3l0.2-0.2l0.2-0.3
				l-0.9,0.9L67,51.3z"/>
			<path class="st15" d="M76.2,72.3l0.1,3l-0.1-2L76.2,72.3z"/>
			<path class="st15" d="M72.3,62.5l0.5-0.3l0.5-0.1l0.7,0.2l0.1,0.1l0-1.2l0-1.4L74,55.3l-0.3-3.5l-0.1-1.4l-0.2-1l-0.7,7.7l0,0.1
				l0.1,1.2l0-0.7l0-0.4l-0.3,3.5L72.3,62.5L72.3,62.5z"/>
			<path class="st15" d="M70,68.3L70,67.5l0,0v0l-0.2-3.7L69,59.1l-1-3.4l0-0.1l0-0.1l0,0.3l0.1,0.7l0.1,9.2l0,0.4l0-0.3l0,2.1
				l0,1.3l0.4-0.2l0.5-0.1l0.7,0.2l0.2,0.1L70,68.3z"/>
			<path class="st15" d="M70.4,66.2l0.2-0.3l0.5-0.3l0.5-0.1l0.4,0.1l0-0.2l-0.1-0.2L71.8,64l0.2-0.9l0,0l-0.1-3.3l-0.5-4.7
				l-0.6-2.4l0,0.5l-0.4,11.5L70.4,66.2z"/>
			<path class="st15" d="M79.4,60.9l0-2l-0.2-2.5l-0.9-1.7L77.6,53l-0.8-1.6l-0.1-0.2l-0.5-1.1l-0.7-1.5l0-0.1l-0.1-0.1l-0.3-0.6
				l0.1,0.2l0.3,0.5l0.1,0.2l0,0l0,0.1l-0.1,0.6l0,0.2l0,1.6v0l0.1,1.4l0.1,0.6l0,0.2l-0.1-0.6l0-0.2l0-0.3l-0.1-1.3l-0.1-0.4
				l-0.7,7.7l-0.3,4.2l0.3,0.3l0.5,0.8l0.3,0.6l0.3,0.7l0.3,0.8l0.2,0.8l0.1,0.7l0.2,0.8l0,0.8l0,0.9l-0.1,1.1l0.9,1.6l0,0.1l0,0
				l0.8-2.6l0,0l0.2-0.6l0.2-1l0.3-1.1l0.1-0.5l0.3-2.4l0.1-2l0-0.7L79.4,60.9z"/>
		</g>
		<g class="st16">
			<path class="st17" d="M38.2,86l0.2,0l0.4-0.1l0.6,0l0.6-0.1l0.7,0l1.7,0.1l-2.6-1.1l-0.6-0.2l-0.5-0.2l-0.5-0.1l-0.5,0l0.2,0.7
				l0.2,0.8l0.2,0.8l0.4,0.7l0.3-0.1l0,0L38.2,86z"/>
			<path class="st17" d="M39.8,87l2.3-0.1l2.8,0.6l2.5,0.7l1.3,0.5v0v0l-2.9-1.3l-3.3-1.5l-1.7-0.1l-0.7,0l-0.6,0.1l-0.6,0L38.4,86
				l-0.2,0l0.8,1.1l0,0l0.3-0.1L39.8,87z"/>
			<path class="st17" d="M69.4,48.9L69.4,48.9L69.4,48.9L69.4,48.9z"/>
			<path class="st17" d="M69.5,48.8L69.5,48.8L69.5,48.8L69.5,48.8z"/>
			<path class="st17" d="M68,55.5L68,55.5L68,55.5L68,55.5z"/>
			<path class="st17" d="M69.7,49.9l-0.1-0.4l0,0L69.7,49.9z"/>
			<path class="st17" d="M68.6,49.8l0.5-0.5l-0.8,0.8l0,0L68.6,49.8z"/>
			<path class="st17" d="M69.6,49.3l0,0.2l0,0L69.6,49.3L69.6,49.3z"/>
			<path class="st17" d="M69.7,48.6l0.1-0.2l0,0L69.7,48.6z"/>
			<path class="st17" d="M69.7,48.6L69.7,48.6L69.7,48.6z"/>
			<path class="st17" d="M74.7,47.2l-0.3-0.6l0.4,0.7L74.7,47.2z"/>
			<path class="st17" d="M74.7,47.4l0.2,0.4L74.7,47.4l0-0.1L74.7,47.4L74.7,47.4z"/>
			<path class="st17" d="M74.5,47l0.2,0.4l0,0l-0.4-0.7l-0.2-0.3L74.5,47z"/>
			<path class="st17" d="M74.7,47.3L74.7,47.3L74.7,47.3L74.7,47.3z"/>
			<path class="st17" d="M75.4,48.6L75.4,48.6L75.4,48.6L75.4,48.6L75.4,48.6z"/>
			<path class="st17" d="M75.4,48.6L75.4,48.6l-0.1-0.2l0,0.1L75.4,48.6z"/>
			<path class="st17" d="M75.3,48.5L75.3,48.5L75,47.9l0.1,0.3L75.3,48.5z"/>
			<path class="st17" d="M75,47.9L75,47.9l0-0.1l-0.2-0.4L75,47.9z"/>
			<path class="st17" d="M75.3,49.2l0,0.1l0.1-0.6l0,0L75.3,49.2z"/>
			<path class="st17" d="M75.3,49.2l0.1-0.5l-0.1-0.2L75.3,49.2z"/>
			<path class="st17" d="M75.3,49.3l0,0.2L75.3,49.3l0-0.2L75.3,49.3z"/>
			<path class="st17" d="M75.2,48.2l0.1,0.3l0,0.9l0-0.2l0-0.7L75.2,48.2z"/>
			<path class="st17" d="M74.7,47.4L74.7,47.4L74.7,47.4l0,0.2l0.2,0.3L74.7,47.4z"/>
			<path class="st17" d="M72.7,44.2L72.7,44.2L72.7,44.2L72.7,44.2z"/>
			<path class="st17" d="M72.7,44.2L72.7,44.2L72.7,44.2L72.7,44.2z"/>
			<path class="st17" d="M60.8,61.1l0.2,0.3l0.2,0.2L61,61.4L60.8,61.1z"/>
			<path class="st17" d="M66,52.4l-0.4,0.3L65.4,53h0L66,52.4z"/>
			<path class="st17" d="M65.6,52.8l0.5-0.5L66,52.4L65.4,53L65.6,52.8z"/>
			<path class="st17" d="M65.2,54.9l0.4,0.6L65.3,55L65.2,54.9z"/>
			<path class="st17" d="M67.6,79.3l-0.1-0.6l0.3,1.8L67.6,79.3z"/>
			<path class="st17" d="M61.7,79.4l-2.3-4.8l-3.3-7.1l-0.8-1.8L55.1,66l-0.2,0.4l0,0.1l0.7,1.1l0.1,0.1l-0.8-1.2l-0.1,0.2l0,0
				l-0.1,0.4h-0.6l-0.5,0l-0.5,0l-0.5,0l0.3,0.2l0.4,0.2l2.4,2.2l2.5,3.5l2.1,3.4l1.6,2.9l0.5,1L61.7,79.4z"/>
			<path class="st17" d="M53.2,73.2L53.2,73.2l-0.3-0.4l0,0L53.2,73.2z"/>
			<path class="st17" d="M53.2,73.2l-0.3-0.4l0,0L53.2,73.2z"/>
			<path class="st17" d="M46.8,69L46.8,69L46.8,69L46.8,69z"/>
			<path class="st17" d="M49.8,69.3L49.4,69l0,0l3,3.4l0.3,0.4l0,0l-1-1.1L49.8,69.3z"/>
			<path class="st17" d="M49.6,70.5l1.5,1.1l1.4,1.2l-1.6-1.3L49.6,70.5z"/>
			<path class="st17" d="M49.6,69.1l-0.2-0.2l-0.2-0.1l0.2,0.2l0,0L49.6,69.1L49.6,69.1z"/>
			<path class="st17" d="M49.8,69.3L49.5,69l0.1,0.1L49.8,69.3z"/>
			<path class="st17" d="M49.4,68.9l-0.3-0.3l0.1,0.1L49.4,68.9z"/>
			<path class="st17" d="M49.6,69.1L49.6,69.1L49.6,69.1l-0.2-0.2L49.6,69.1z"/>
			<path class="st17" d="M52.8,72.7L52.8,72.7l0.1,0.1L52.8,72.7L52.8,72.7z"/>
			<path class="st17" d="M52.8,72.8L52.8,72.8L52.8,72.8L52.8,72.8L52.8,72.8z"/>
			<path class="st17" d="M42.8,77.1l0.3,0l-0.4-0.1L42.8,77.1z"/>
			<path class="st17" d="M45.7,81.9l2,1.4l-5.3-3.9l-0.3-0.1L45.7,81.9z"/>
			<path class="st17" d="M65.5,61.5l-0.2-0.9l-0.2-0.8l-0.3-0.7L64.8,59l-0.3-0.7l-0.3-0.8l-0.3-0.7L63.4,56L63,55.4l0,0l-0.4,0.3
				l-0.1,0l-0.5,0.4l-0.5,0.4l-0.2,0.3l-0.3,0.3l-0.3,0.3l-0.1,0.1l-0.4,0.5l0,0l-0.4,0.5l-0.1,0.1l-0.3,0.4l0.3,0.5l0.4,0.6
				l0.4,0.5l0.2,0.3l0.2,0.2l0.2,0.3l0.4,0.4l0.5,0.6l0.4,0.6l0.6,0.7l1.6,3.3l1.4,4.3l0,0.1l0.3-0.2l0.3-0.1L65.5,61.5z"/>
			<path class="st17" d="M65.1,76.1L62,65.7l-0.3-0.8l-0.3-0.7l-0.2-0.4l-0.2-0.3l-0.4-0.7L60,62.1l-0.2-0.3l-0.2-0.3L59,60.8
				l-0.6-0.5l0,0l-0.3,0.3L58,60.9l0,0l-0.4,0.5L57.1,62l-0.3,0.6l0,0l0,0l-0.4,0.5l-0.2,0.4l-0.1,0.1l-0.1,0.2l-0.3,0.5l-0.2,0.6
				l0,0l0.4,0.4l0.5,0.5l0.5,0.4l0.5,0.5l0.5,0.4l0.6,0.5l0.1,0.1l0.4,0.4l0.7,0.6l2.2,2.8l2.1,4l0.3,0.6l0.4,0.1l0.4,0.2L65.1,76.1
				z"/>
			<path class="st17" d="M67.3,60.5l-0.8-2.9l-1-2.1l-0.4-0.6L65,54.7l-0.3-0.4L64.5,54l0,0l0.3-0.4l0,0l-0.1,0.1l-0.3,0.3l-0.2,0.2
				l-0.5,0.4l-0.3,0.4L63.4,55l0.2,0.3l0.2,0.5l0.6,0.9l0.3,0.5l0.3,0.5l0.1,0.1l0.2,0.3l0.3,0.6l1.3,3.5l0.9,4.6l0.3,2.9l0.3-0.6
				l0.1,0l0-1.3l0-2.1l-0.1-0.7l-0.3-1.9L67.3,60.5z"/>
			<path class="st17" d="M70,67.5l0.1,0.8l0,0.8l0.2,0.2l0-0.3l-0.1-0.4L70,67.5z"/>
			<path class="st17" d="M72,65.6L72,65.6l0-0.2L72,65.6z"/>
			<path class="st17" d="M71.1,46.9l0.4-0.5l0.3-0.6l0.3-0.5l0.1-0.1l0.1,0.4l0,0.2l0,0.2l0.3,7.3l0.2,3.9l0.7-7.7l0.2,0.9v0
				l0.1,1.4l0.3,3.2l0.1,4.4l0,1.8v1.2l0,0l0.5-6.1l-0.5,6.1l0,0l0.3-4.2l0.7-7.7v-0.1l-0.2-1.1l-0.3-1.8l0,0.1l0-0.1l0-0.1L74.6,47
				l-0.3-0.6L74,46l-0.4-0.7l-0.3-0.6L73,44v0l-0.2-0.5l-0.2,0.4l0,0.1v0v0l-0.3,0.6l0,0.1L72.2,45l-0.1,0.2l-0.3,0.5l-0.1,0.1
				l-0.2,0.4l-0.1,0.2L70.9,47l-0.3,0.5l-0.1,0.1l0,0.1l-0.1,0.1l-0.3,0.4L70,48.2l0,0l-0.2,0.3l0,0l-0.1,0.2l-0.1,0l-0.1,0.1
				l-0.1,0.2l-0.3,0.3l-0.5,0.4l-0.2,0.2l-0.2,0.3l0.8-0.8l0.4-0.3l0,0l0.1-0.1l0.1,0.4v0l0,0.2l0.1,0.4l0.2,7.3l0.2,4.1l0,1.2
				l0-0.7l-0.2-2.3l-0.5-2.8l-0.7-2.9L68,51.5l-0.2-0.4L67.6,51l0-0.1l0.4-0.5L68,50.4l-0.3,0.3l-0.1,0.1l-0.3,0.4l-0.2,0.2
				l-0.1,0.1l-0.3,0.2l0,0l-0.3,0.3l-0.2,0.2l0.2-0.1l0.2-0.1l0.2-0.1l0.1-0.1l0.1,0.4v0.1l0.1,0.5l0.1,0.4l0.1,0.5v0.2V54l0.5,7
				l0.4,3.9l0,0.2l0.1,0.4l0,0.3l-0.1-9.2L68,55.8l0-0.3l0,0.1l0,0.1l1,3.4l0.7,4.7l0.2,3.7l0.2-0.9l0.2-0.3l0-1.5l0.4-11.4l0-0.5
				l0.6,2.4l0.5,4.7l0.1,3.4L72,63l0.3-0.5l0.1-1.7l0.3-3.5l-0.2-1.8l-0.4-2.9l-0.7-2.9l-0.8-2.3L71,47L71.1,46.9z"/>
			<path class="st17" d="M48.9,84.2l-0.5-0.4l-1.2-0.7l-2.3-1.2l-2.5-1l-2.2-0.5l-0.7,0h-0.6l-0.7,0l-0.6,0l-0.1,0.4l0,0.1l-0.1,0.5
				l0,0.5V82l0.3,0l0.2,0l0.1,0l0.5,0l0,0l0.5,0l0.5,0l0.1,0l0.4,0l0.6,0.1l0.5,0l0.6,0.1l2.9,0.6l3.3,1.5l2,1.1l0.2-0.3L48.9,84.2z
				"/>
			<path class="st17" d="M52,81.4l-6.2-6.8l-0.1-0.1L45.2,74l-0.3-0.4l-0.3-0.4l-0.4-0.2l-0.4-0.2l-0.3-0.4l-0.4-0.2l-0.4-0.3
				l-0.3-0.1l-0.1,0l-0.2,0.2l-0.2,0.2l-0.2,0.2l-0.1,0.1l0.4-0.3l0,0l0.1,0l0.9,0.6l0.9,0.6l1,0.7l0.4,0.2l-0.2,0l-0.6-0.4l-0.1,0
				l-0.7-0.4l-0.5-0.3l0,0l1.4,1.3l0.1,0.1l1.8,1.8l2.6,2.4l0.8,0.7l-0.5-0.4L48,78l-2.2-1.5l-2.2-1.3l-0.1-0.1l-0.1-0.1l-1.9-0.6
				l-0.7-0.1l-0.4-0.1l-0.2,0l0,0l0.5-0.5l0.4-0.5l0.1-0.1l-0.4,0.4L40.4,74l-0.2,0.2l-0.3,0.3L39.7,75l0,0.1l-0.3,0.6l-0.3,0.4
				l0,0.1l0,0l0,0.1h0l0.3,0l0.1,0l0.1,0l0.7,0.2l0.6,0.2l0.6,0.2l0.7,0.1l0.4,0.2l0.4,0.1l0.4,0.1l0.8,0.3l3.2,1.4l3.3,2.4l2.3,2
				l0.2-0.3L52,81.4z"/>
			<path class="st17" d="M44.1,70.8l0.2,0l0.5,0.2l0.6,0.2l0.2,0.1l0.4,0.2l0.6,0.2l0.6,0.2l0.7,0.2l0.7,0.3l1.7,1l0.2,0.1l1.1,0.6
				l3.2,2.8l3,2.8l1.4,1.6l0-0.1l0,0L56.2,77L54,74.2l-1.1-1.2l-0.2-0.2l-0.1-0.1l0,0l-1.4-1.2l-1.5-1.1l-0.9-0.6L46.8,69l0,0h0
				l-0.1,0l-0.1,0l0.5-0.3l0.5-0.2l0.2-0.1l0.2-0.1l0.3,0l0,0l0,0l0-0.1l0.1,0.1l0,0l0.1,0l0.1,0l0.5,0.5l0.3,0.3l0.1,0.1l0.3,0.2
				l0.2,0.1l0.3,0.4l-0.1-0.1l-0.2-0.2l-0.2-0.2l2,2.3l1,1.1l0,0l-3-3.8l-0.5-0.5L48.9,68l0,0l-0.1,0l-0.1,0l-0.1,0l-0.2,0.1l-0.1,0
				l-0.1,0l-0.6,0.3l-0.7,0.3l-0.2,0.2l-0.4,0.3l-0.6,0.3l-0.6,0.4l-0.6,0.4l-0.5,0.4l-0.1,0.1l0,0L44.1,70.8z"/>
		</g>
		<g class="st18">
			<path class="st19" d="M72.1,44.6l0-0.1l-0.2-0.7l-0.2-0.6l-0.3-0.6L71.2,42l-0.3-0.6L70.5,41l-0.2-0.2L70,40.4l-0.5-0.3L68.8,40
				l-0.4,0.2l-0.5,0.2L67.7,41l-0.1,0.7l0.2,1l0.4,0.7l0.3,0.6l0.3,0.6l0.4,0.6l0.2,0.6l0.4,0.6l0.4,0.6l0.4,0.6l0.9-1.2l0.2-0.4
				l0.1-0.1l0.3-0.6l0.1-0.2L72.1,44.6z M69.7,44.2L69.2,44l-0.4-0.2l-0.3-0.4L68.3,43l0.1-0.7l0.3-0.5l0.4-0.5l0.5-0.1l0.4-0.1
				l0.4,0.2l0.2,0.4l0,0v0.1l0.1,0.5l-0.1,0.5l-0.2,0.6l-0.3,0.3L69.7,44.2z"/>
			<path class="st19" d="M69.5,48.4l-0.2-0.7l-0.2-0.5L69,46.9l-0.1-0.3L68.6,46l-0.3-0.6l-0.3-0.5l-0.1-0.1l-0.6-0.6L66.7,44
				l-0.6-0.2l-0.5,0.2l-0.4,0.2l-0.2,0.5L65,45.6l0.2,1.1l0.2,0.5l0-0.2l0.1-0.6l0.3-0.5l0.4-0.4l0.5-0.1l0.5-0.1l0.5,0.3l0.3,0.3
				l0.2,0.6L67.8,47l-0.2,0.5l-0.4,0.4l-0.5,0.3L66.2,48l-0.3-0.2l0.3,0.6l0.3,0.5l0,0.1l0.3,0.5l0.4,0.7l0.4,0.5l0,0.1l0.9-0.9
				l0.2-0.2l0.5-0.4l0.3-0.3l0.1-0.2l0,0L69.5,48.4z"/>
			<path class="st19" d="M66.9,47.4l0.1-0.2l0.1-0.4l0-0.3l-0.2-0.6l-0.4-0.2l-0.4,0.4l-0.1,0.7l0.1,0.5l0.6,0.2L66.9,47.4z"/>
			<path class="st19" d="M69.5,42l-0.4,0.3l-0.2,0.5l0.2,0.6l0.6,0.1l0.4-0.4l0.3-0.5L70,42.1L69.5,42z"/>
			<path class="st19" d="M66.4,51.2l-0.3-0.6L65.8,50l-0.3-0.3l-0.2-0.3L65.1,49l-0.2-0.2l-0.4-0.4l-0.6-0.3L63.4,48l-0.5,0.2
				l-0.4,0.2l-0.2,0.7l-0.1,0.7l0.3,1l0.3,0.5l0.3,0.5l0,0.1l0.3,0.5l0.4,0.6l0.3,0.5l0.2,0.2l1.8-1.8l0.3-0.3L66.4,51.2z"/>
			<path class="st19" d="M75.3,48.1l-0.1-2.3l-0.2-5l-0.1-0.7l-0.2-0.6l-0.2-0.7l-0.2-0.5l-0.3-0.7l-0.3-0.5l-0.3-0.6l-0.4-0.5
				l-0.5-0.6L72.1,35l-0.6-0.2L71,35l-0.4,0.2l-0.2,0.6l-0.1,0.8l0.3,1l0.3,0.6l0.3,0.6l0.3,0.6l0.3,0.6l0.4,0.5l0.4,0.6l0.3,0.6
				l0.4,0.7l0.5,1.2l0.4,1l0.6,2.8l0,0l0.2,0.5l0.3,0.6L75.3,48.1z M73.3,37.7l-0.3,0.5l-0.4,0.4l-0.5,0.3l-0.5-0.1l-0.4-0.2
				L71,38.2l0-0.5l0.1-0.6l0.2-0.4l0.4-0.5l0.5-0.1l0.5,0l0.4,0.2l0.3,0.3l0.2,0.6L73.3,37.7z"/>
			<path class="st19" d="M72.3,36.5l-0.2,0l-0.2,0.4l-0.2,0.3l0,0.4l0.2,0.5l0.4,0.2l0.1-0.2l0.2-0.2l0.1-0.4l0.1-0.3l-0.1-0.7
				L72.3,36.5z"/>
			<path class="st19" d="M72.7,57.4l0,0.4L72.7,57.4L72.7,57.4z"/>
			<path class="st19" d="M68.1,50.3l0.1-0.1l0-0.1L68.1,50.3L68.1,50.3z"/>
			<path class="st19" d="M70.2,61.2l-0.2-4l-0.2-7.3l-0.1-0.4l0-0.2l-0.1-0.4L69.5,49l0,0l-0.4,0.3l-0.5,0.5l-0.3,0.3l0,0.1
				l-0.1,0.1l-0.4,0.5l0,0.1l0.1,0.1l0.2,0.4l0.9,2.2l0.6,2.9l0.5,2.8l0.2,2.3l0,0.7L70.2,61.2z"/>
			<path class="st19" d="M64.9,53.6L64.9,53.6L64.9,53.6L64.9,53.6z"/>
			<path class="st19" d="M68.2,64.9L67.7,61l-0.5-7l0-0.1l0-0.2l-0.1-0.5l-0.1-0.4l-0.1-0.5l0-0.1l-0.1-0.3l-0.1,0L66.5,52l-0.2,0.1
				l-0.2,0.1l-0.5,0.5L65.4,53h0L65,53.4l-0.2,0.2l0,0l0,0L64.5,54l0,0l0.2,0.2l0.3,0.4l0.2,0.2l0.1,0.1l0.3,0.5l1,2.1l0.8,2.9
				l0.6,2.7l0.3,1.9L68.2,64.9z"/>
			<path class="st19" d="M75.4,52.5l0,0.2l0.1,0.6l0-0.2L75.4,52.5z"/>
			<path class="st19" d="M75.2,48.2L75.2,48.2L75,47.9l0,0L75.2,48.2z"/>
			<path class="st19" d="M75.3,51.1L75.3,51.1l0-1.6l0-0.2l0-0.9l-0.1-0.3l0,0L75,47.9l-0.2-0.3l0-0.1l0.3,1.8l0.2,1.1l0,0.1
				l0.1,0.4l0.1,1.3l0,0.3L75.3,51.1z"/>
			<path class="st19" d="M90.7,51.2L90.7,51.2L90.7,51.2z"/>
			<path class="st19" d="M89.7,50.2l-0.5-1.6l-0.3-0.5l-0.2,0.4l0,0.1l0.2,0.6l0.1,0.1l0.2,0.3l0.1,0.1l0.5,0.7l0,0L89.7,50.2z"/>
			<path class="st19" d="M93,51.7l-0.7-0.3l-0.7-0.3l-0.6-0.5l-0.5-0.4l0.1,0.9l0,0l0.5,0.3l0.3,0.1l0.5,0.2l0.2,0.1l0.7,0.3
				l0.4-0.4L93,51.7z"/>
			<path class="st19" d="M68.3,66.1l0-0.4v0.1L68.3,66.1z"/>
			<path class="st19" d="M68.2,65.1l0.1,0.7v-0.1l0-0.3L68.2,65.1z"/>
			<path class="st20" d="M69.5,70.5l0.3,0.1l0.2,0.5l-0.2,0.5l-0.3,0.3l-0.3-0.1l-0.1-0.4l0.1-0.6L69.5,70.5z"/>
			<path class="st20" d="M71.8,67.6l0.3,0.1l0.2,0.4l-0.1,0.5l-0.3,0.3l-0.4-0.2l-0.1-0.3l0.1-0.6L71.8,67.6z"/>
			<path class="st20" d="M70,76.7l-0.2-0.6l-0.1-0.5l-0.2-0.5l-0.1-0.5l-0.2-0.5L69,73.7l-0.3-0.4L68.4,73L68,72.5l-0.4-0.2
				l-0.4-0.1l-0.4,0.2l-0.3,0.2l-0.2,0.5l0,0.6l0.1,0.8l0.2,0.4l0.2,0.4l0.3,0.4l0.3,0.4l0.2,0.4l0.3,0.4l0.3,0.4l0.4,0.6l0.7,1.5
				l0.7,2.2l0.3,2.1l0.3,1.7l0,0.5l-0.1-0.9l-0.2-3.1L70,76.7z"/>
			<path class="st20" d="M73.9,63.4l0.3,0.1l0.2,0.6l-0.2,0.5l-0.3,0.3l-0.3-0.2l-0.1-0.4l0.1-0.6L73.9,63.4z"/>
			<path class="st19" d="M40.3,71.1L40.3,71.1l0.4,0.1L40.4,71L40,70.9L40.3,71.1z"/>
			<path class="st19" d="M40.3,71.1l1.7,1.2l0.2-0.2L42,72l-0.5-0.4L41,71.3l-0.3-0.2L40.3,71.1L40.3,71.1z"/>
			<path class="st19" d="M47.7,66.9l-0.2-0.2l-0.4-0.5l-0.5-0.3l-0.5-0.4l-0.3-0.1l1.4,1.4l1.2,1.2l0.2,0.2l0.1,0L47.7,66.9z"/>
			<path class="st19" d="M48,67.9l-1.3-0.8l-1.1-0.4L45,66.5l-0.4-0.1l-0.4-0.1l-0.4-0.1l-0.6-0.2L42.5,66L42,65.6l-0.2-0.3L41.7,65
				l0,0l0-0.1l0.1-0.2l0.2-0.2l0.3-0.2l-0.7,0.2l-0.6,0.3l-0.3,0.5l0,0.1l0,0.1l-0.1,0.3l0.2,0.6l0.3,0.5l0.7,0.7l0.6,0.1l0.6,0.2
				l0.6,0.2l0.6,0.2l0.6,0.2l0.6,0.2l0.6,0.2l0.5,0.1l0.2-0.2l0.7-0.3l0.6-0.3l0.1,0l0.1,0L48,67.9z"/>
			<path class="st19" d="M39,76.2L39,76.2L39,76.2L39,76.2z"/>
			<path class="st19" d="M39,76.2l-0.1,0.2l0,0L39,76.2L39,76.2z"/>
			<path class="st19" d="M39,76.2L39,76.2L39,76.2L39,76.2L39,76.2L39,76.2z"/>
			<path class="st19" d="M38.2,86L38.2,86L38.2,86L38.2,86z"/>
			<path class="st19" d="M37.5,82.8l-0.1,0l0.2,0.8l0-0.5L37.5,82.8z"/>
			<path class="st19" d="M48.7,84.1l-0.2-0.1l-0.9-0.6l0.7,0.5L48.7,84.1z"/>
			<path class="st19" d="M48.8,84.1l-0.1-0.1l0.7,0.4L48.8,84.1z"/>
			<path class="st19" d="M40,78.5l1.5,0.6l0,0L40,78.5z"/>
			<path class="st19" d="M47.6,83.3l-2-1.4l-3.6-2.6l-0.6-0.2L40,78.5l-1.4,0l-0.3-0.1l-0.1,0l0,0L38,78.5l0-0.1l0.1-0.4l0.2-0.4
				l0,0l0.1-0.3l-0.2,0.3l0,0L38.2,78L38,78.4l0,0.1l-0.3,0l-0.5,0l-0.3,0.1l-0.8,0l-0.7,0l-0.6-0.2l-0.3-0.3l-0.2-0.4l0-0.1l0-0.2
				l0.1-0.3l0-0.1l-0.4,0.3l-0.4,0.4l-0.3,0.5l0,0.1l-0.1,0.4l0,0.1l0.1,0.4l0.5,0.4l0.8,0.5l0.6,0l0.6,0.1l0.6,0l0.6,0.1h0.2l0,0.1
				v0h0l0.6,0l0.7,0h0.6l0.7,0l2.2,0.5l2.5,1l2.3,1.2l1.2,0.7L47.6,83.3z"/>
			<path class="st19" d="M42,72.3L42,72.3L42,72.3L42,72.3z"/>
			<path class="st19" d="M49.2,79l-2.6-2.4l-1.8-1.8l-0.1-0.1l-1.4-1.3l0,0l-0.6-0.3l-0.9-0.4l-0.2-0.1l0,0l0.1,0l0.1,0l0.2-0.1
				l0.2-0.2h0l-0.4,0.3l-0.1,0.1l-0.4-0.2l-1.3-0.2l-0.4-0.1l-0.4,0l-0.4-0.1l-0.3,0l-0.7-0.1l-0.7,0l-0.5-0.3l-0.2-0.2l-0.1-0.3
				l0.1-0.2l0.1-0.3l0-0.1l0.1-0.1l0.2-0.2l0.3-0.2l0.2,0l0.3,0l-0.2,0l-0.6,0L36,70.6l-0.5,0.3l-0.3,0.5L35,71.8l0.1,0.6l0.1,0.1
				l0.3,0.4l0.7,0.5l0.6,0.1l0.6,0.2l0.6,0.2l0.6,0.2l0.6,0.1l0.7,0.1l0.2,0l0.2-0.2l0.4-0.5l0.4-0.4l-0.1,0.1l-0.4,0.5l-0.5,0.5
				l0,0l0.2,0l0.4,0.1l0.7,0.1l1.9,0.6l0.1,0.1l0.1,0.1l2.2,1.3L48,78l1.5,1.3l0.5,0.4L49.2,79z"/>
			<path class="st19" d="M54,74.2l0.2,0.2L54,74.2L54,74.2z"/>
			<path class="st19" d="M53.2,73.3L53.2,73.3L53.2,73.3L53.2,73.3z"/>
			<path class="st19" d="M52.5,72.8L52.5,72.8L52.5,72.8z"/>
			<path class="st19" d="M49.4,68.9L49.4,68.9l-0.1-0.2l-0.1-0.1l-0.5-0.5l-0.1,0l-0.1,0l0.5,0.4L49.4,68.9z"/>
			<path class="st19" d="M54.7,74.9l-0.1-0.1l-0.2-0.2l-1.2-1.3l0,0l-0.1-0.1l-0.3-0.4l-0.1-0.1l-0.3-0.4l-3-3.4L49,68.6l-0.6-0.4
				l-0.3,0l-0.2,0.1l-0.2,0.1l-0.5,0.2l-0.5,0.3l0.1,0l0.1,0l0,0l1.9,0.9l0.9,0.6l1.3,1l1.6,1.3l0,0l0.1,0.1h0l0.2,0.2l1.1,1.2l0,0
				l0.2,0.2l0.1,0.1l0.2,0.2l0.4,0.4L54.7,74.9z"/>
			<path class="st20" d="M49.9,99.4L49.9,99.4l-0.5-0.2L49,99.1l-0.3-0.1L49.9,99.4z"/>
			<path class="st20" d="M56.4,103.1l-2.3-1.3l-2.9-1.7l-0.2,0l-1.3-0.3l-1,0.1l-0.6,0.1l-0.5,0.2l-0.6,0.1l-0.7,0.2l-0.5-0.2
				l-0.2-0.2l-0.2-0.3l0-0.2l0.2-0.6l0.1-0.1l-0.2,0l-0.5,0.3l-0.4,0.3l-0.2,0.4l-0.1,0.4l0.2,0.4l0.4,0.3l0.7,0.3l0.5,0l0.5,0
				l0.5,0l0.5,0l0.5-0.1l0.5,0l0.5,0h0.6l1.7,0.1l2,0.6l1.9,0.7l1.4,0.7l0.5,0.2L56.4,103.1z"/>
			<path class="st20" d="M55.7,99.7l-2.2-1.6l-2.8-2L50.4,96l-1.2-0.4l-1-0.1l-0.7,0l-0.6,0.1l-0.6,0l-0.5,0l-0.4-0.2L45,95.3
				L44.9,95l0-0.2l0.1-0.2l-0.3,0.1L44.3,95l-0.2,0.4L44,95.7l0.2,0.4l0.4,0.4l0.6,0.3l0.5,0l0.5,0l0.5,0l0.5,0.2l0.4-0.1l0.6,0.1
				l0.5,0l0.6,0.1l1.7,0.2l1.9,0.9l1.7,0.9l1.4,0.8l0.4,0.2L55.7,99.7z"/>
			<path class="st20" d="M50.6,90.7l-0.3-0.3l-0.4-0.2l-0.4-0.2l-0.1-0.1L50.6,90.7z"/>
			<path class="st20" d="M56.3,96l-2-1.8l-2.6-2.5l-0.4-0.2L50.1,91l-1-0.2l-0.6-0.2l-0.6,0.1l-0.5,0l-0.5,0l-0.4-0.2l-0.2-0.2
				L46.1,90l0.1-0.2l0.3-0.5l0.7-0.1l-0.6-0.1l-0.5,0.3l-0.4,0.2l-0.2,0.4l-0.1,0.3l0.1,0.4l0.4,0.4l0.6,0.5l0.4,0.1l0.5,0.1
				l0.4,0.1l0.5,0.1l0.5,0l0.4,0.1l0.5,0l0.6,0.2l1.6,0.5l1.8,1.1l1.6,1.1l1.3,1l0.4,0.3L56.3,96z"/>
			<path class="st20" d="M47.7,89.2L47.7,89.2l-0.5,0L47.7,89.2z"/>
			<path class="st20" d="M60,92.3l-1.8-2.1l-1.6-1.9l-0.3-0.3l-0.9-0.6l-1.1-0.6l-0.9-0.3l-0.6-0.2l-0.5-0.1l-0.6-0.2l-0.5,0
				l-0.4-0.4l-0.1-0.2l-0.1-0.3l0.1-0.2l0.4-0.3l-0.4,0.1l-0.5,0.2l-0.3,0.4l-0.1,0.3l0.1,0.4l0.3,0.4l0.6,0.5l0.4,0.1l0.5,0.2
				l0.4,0.2l0.5,0.2l0.4,0.1l0.6,0.1l0.5,0.1l0.6,0.2L56,89l1.7,1.2l1.5,1.3l1.1,1.1l0.3,0.4L60,92.3z"/>
			<path class="st20" d="M53.7,85.6l2,1.9l0.9,0.9l-1.6-1.8l-0.3-0.4l-0.4-0.3l-0.3-0.3l-0.4-0.1L53.7,85.6z"/>
			<path class="st20" d="M62.4,90.2l-1.3-2.6l-1-1.9l-0.5-0.7l-1.2-1.3l-1-0.8L57,82.8l-0.4-0.2l-0.4-0.2l-0.3-0.1l-0.6-0.4
				l-0.5-0.4L54.3,81l-0.1-0.2L54,80.9l-0.2,0.4l0,0.5l0.1,0.4l0.5,0.6l0.4,0.2l0.4,0.2l0.4,0.2l0.4,0.3l0.4,0.2l0.4,0.2l0.4,0.2
				l0.5,0.3l1.4,1l1.4,1.7l1.1,1.6l0.8,1.4l0.3,0.4L62.4,90.2z"/>
			<path class="st19" d="M72.1,79.2L72,73.7l-0.1-0.6l-0.1-0.5l-0.2-0.5l-0.1-0.4l-0.2-0.5L71,70.7l-0.3-0.5l-0.2-0.4l-0.4-0.5
				l-0.4-0.2l-0.4-0.1l-0.4,0.2l-0.4,0.2l-0.2,0.5l0,0.5l0.1,0.8l0.4,0.9l0.5,0.9l0.3,0.4l0.3,0.5l0.3,0.4l0.3,0.6l0.7,1.6l0.5,2.2
				l0.3,2.1l0.2,1.5v-0.1L72.1,79.2z M70.5,71.5l-0.2,0.4L70,72l-0.4,0.2l-0.3-0.1L69,72l-0.2-0.3l0-0.3l0-0.4l0.2-0.4l0.3-0.3
				l0.4-0.1l0.7,0.1l0.3,0.7L70.5,71.5z"/>
			<path class="st19" d="M72.3,82.6l0-0.2l0.1,0.7L72.3,82.6z"/>
			<path class="st20" d="M74.2,79.3l-0.2-3l-0.1-5.5l-0.1-0.6l-0.1-0.5l-0.2-0.5l-0.1-0.6l-0.4-0.9l-0.5-0.8l-0.4-0.5l-0.4-0.2
				L71.3,66l-0.4,0.2l-0.4,0.2l-0.2,0.5l0,0.5l0.1,0.9l0.4,0.9l0.5,0.9l0.2,0.4l0.3,0.5l0.3,0.4l0.4,0.5l0.7,1.7l0.5,2.2l0.2,2.2
				l0.2,1.7l0,0.5L74.2,79.3z M72.7,68.3l-0.2,0.5l-0.3,0.3L72,69.3l-0.8-0.2l-0.3-0.6l0-0.5l0.2-0.3l0.3-0.4h0.4l0.4-0.1l0.3,0.2
				l0.2,0.2l0.1,0.5L72.7,68.3z"/>
			<path class="st20" d="M76.3,75.3l-0.2-3l-0.1-5.6l-0.1-0.5l-0.1-0.5l-0.3-0.6l-0.1-0.4l-0.2-0.5l-0.2-0.4l-0.3-0.5L74.5,63
				l-0.4-0.5l-0.4-0.2l-0.4-0.2l-0.4,0.2l-0.4,0.2l-0.2,0.4v0.6l0.2,0.8l0.4,0.9l0.5,0.9l0.3,0.4l0.3,0.5l0.4,0.4l0.3,0.6l0.7,1.6
				l0.4,2.3l0.3,2.1l0.2,1.7l0,0.5L76.3,75.3z M74.7,64.3l-0.2,0.4l-0.3,0.3l-0.3,0.3l-0.7-0.3l-0.3-0.6l0-0.5l0.2-0.4l0.3-0.4
				l0.5,0l0.3-0.1l0.3,0.2l0.2,0.3l0.1,0.5L74.7,64.3z"/>
			<path class="st19" d="M72.7,57.2L72.7,57.2l-0.2-4L72.3,46l0-0.2l0-0.2l0,0l-0.1-0.4v0L72,45.2l-0.3,0.5l-0.3,0.6l-0.4,0.5L71,47
				l-0.4,0.6l0.8,2.2l0.7,2.9l0.4,2.9l0.2,1.8l0,0l0,0.4l0,0.7L72.7,57.2z"/>
			<path class="st19" d="M48,87.6l0.5,0.2l0-0.1l-2.2-1.2l-3.9-2.2l-0.1,0L40.7,84l-1.4,0.2l-0.7,0.2l-0.1,0l-0.6,0.2l-0.2,0.1l0,0
				l0-0.1l-0.8,0.1l-0.8,0.2l-0.5-0.2l-0.4-0.2l-0.1-0.2l0,0l0-0.1l0-0.1l0-0.2l0.1-0.4l0.2-0.3l0.3-0.3L35.1,83l-0.6,0.4l-0.2,0.2
				L34,83.8l-0.3,0.5l0,0.5l0.2,0.5l0,0l0.5,0.4l0.9,0.3l0.6-0.1l0.7,0.1l0.6-0.1l0.6,0.1l0.3-0.1l0,0h0l0,0L38,85.8l0-0.3l0.2,0.5
				l0,0l0.2,0l0.4-0.1l0.6,0l0.6-0.1l0.7,0l1.7,0.1l0.5,0l2.7,0.8L48,87.6z"/>
			<path class="st19" d="M57.4,71.7l-1.1-1.8l-1.6-3L54.8,67l0-0.1l-0.1-0.1L54,65.5l-0.5-0.6l-1.4-1.7l-1.4-1l-0.6-0.3l-0.5-0.3
				l-0.4-0.2l-0.3-0.1l-0.1,0l-0.2-0.1l-0.2-0.2l-0.4-0.2l-0.4-0.2l-0.4-0.2l-0.4-0.6l-0.2-0.5v0l-0.3,0.3L46,59.8v0.6l0.2,0.7
				l0.2,0.2l0.4,0.6l0.5,0.3l0.6,0.4l0.5,0.3l0.5,0.4l0.5,0.3l0.6,0.3l0.6,0.3l0.7,0.4l1.8,1.4l1.3,1.5l0,0l-0.1,0l1.1,1.6l1.1,1.4
				l0.7,1.3l0.6,0.8l0.1,0L57.4,71.7z"/>
		</g>
		<path class="st21" d="M70.5,41.5l-0.4-0.2l-0.4,0.1l-0.5,0.1l-0.4,0.5l-0.3,0.5L68.3,43l0.1,0.4l0.3,0.4l0.4,0.2l0.5,0.1l0.5-0.4
			l0.3-0.3l0.2-0.6l0.1-0.5l-0.2-0.5l0-0.1L70.5,41.5z M70,43.1l-0.4,0.4l-0.6-0.1l-0.2-0.6l0.2-0.5l0.4-0.3l0.5,0.1l0.3,0.6
			L70,43.1z"/>
		<path class="st21" d="M70.7,41.8l0,0.1L70.7,41.8L70.7,41.8z"/>
		<path class="st21" d="M67.9,45.9l-0.3-0.3l-0.5-0.3l-0.5,0l-0.5,0.1l-0.4,0.4l-0.3,0.5L65.4,47l0,0.2l0,0.2l0.4,0.4l0.3,0.2
			l0.6,0.1l0.5-0.3l0.4-0.4l0.2-0.5l0.2-0.5L67.9,45.9z M67,47.2l-0.1,0.2l-0.2,0.1L66,47.3l-0.1-0.5l0.1-0.7l0.4-0.4l0.4,0.2
			l0.2,0.6l0,0.3L67,47.2z"/>
		<path class="st21" d="M73,36.3l-0.4-0.2l-0.5,0l-0.5,0.1l-0.4,0.5l-0.2,0.4L71,37.7l0,0.5l0.3,0.4l0.4,0.2l0.5,0.1l0.5-0.3
			l0.4-0.4l0.3-0.5l0.1-0.5l-0.2-0.6L73,36.3z M72.7,37.5l-0.1,0.4l-0.2,0.2l-0.1,0.2L71.8,38l-0.2-0.5v-0.4l0.2-0.3l0.2-0.4h0.2
			l0.4,0.2l0.1,0.7L72.7,37.5z"/>
		<path class="st22" d="M48.1,94.3L47.5,94l-0.6-0.1l-0.6-0.1L45.7,94l-0.6,0.2l-0.2,0.5l0,0.2l0.1,0.3l0.2,0.2l0.4,0.2l0.5,0l0.6,0
			l0.6-0.1l0.7,0l1,0.1l1.2,0.4l1.1,0.4l0.8,0.5l0.3,0.1l-0.4-0.2l-1.4-0.8L48.1,94.3z"/>
		<path class="st22" d="M48.4,98.9l-0.6-0.2l-0.5,0l-0.6,0l-0.6,0.2l-0.6,0.3l-0.2,0.6l0,0.2l0.2,0.3l0.2,0.2l0.5,0.2l0.7-0.2
			l0.6-0.1l0.5-0.2l0.6-0.1l1-0.1l1.3,0.3l1.2,0.2l0.9,0.3l0.3,0.1l-0.5-0.2l-1.6-0.6L48.4,98.9z"/>
		<path class="st22" d="M49.3,89.8l-0.6-0.3l-0.5-0.2l-0.6-0.1l-0.5,0l-0.7,0.1l-0.3,0.5L46.1,90l0.1,0.3l0.2,0.2l0.4,0.2l0.5,0
			l0.5,0l0.6-0.1l0.6,0.2l1,0.2l1.1,0.4l1,0.4l0.7,0.5l0.3,0.1l-0.4-0.2l-1.2-1L49.3,89.8z"/>
		<path class="st22" d="M53.7,85.6l-0.5-0.4l-0.4-0.2l-0.6-0.2l-0.5,0l-0.7,0L50.6,85l-0.1,0.2l0.1,0.3l0.1,0.2l0.4,0.4l0.5,0
			l0.6,0.2l0.5,0.1l0.6,0.2l0.9,0.3l1.1,0.6l0.9,0.6l0.6,0.6l0.2,0.1l-0.3-0.3l-1.1-1.1L53.7,85.6z"/>
		<path class="st22" d="M58,81.7l-0.5-0.7L57,80.6l-0.6-0.5l-0.7-0.3l-0.5-0.2l-0.4,0l-0.3,0.1l-0.3,0.3l-0.1,0.2l-0.1,0.4l0.2,0.4
			l0.5,0.6l0.5,0.4l0.6,0.4l0.3,0.1l0.4,0.2l0.4,0.2l0.4,0.2l1,0.8l1.2,1.3l1,1.3l0.7,1l0.2,0.4l-0.3-0.5l-1.1-2L58,81.7z"/>
		<path class="st21" d="M35.1,84.3L35.1,84.3L35.1,84.3L35.1,84.3z"/>
		<path class="st21" d="M37.6,84.2l0-0.1l-0.1-0.6l-0.2-0.8l0.1,0l0-0.1l0-0.3l0.1,0h0l-0.7,0.1l-0.8,0.2l-0.4,0.2l0,0l-0.3,0.3
			l-0.2,0.3L35,83.9l0,0.2l0,0.1l0,0.1l0,0l0,0l0.1,0.2l0.4,0.2l0.5,0.2l0.8-0.2l0.8-0.1L37.6,84.2z"/>
		<path class="st21" d="M40.3,71.1L40,70.9l-0.6-0.4l-0.6-0.1l-0.7-0.2l-0.7,0l-0.3,0l-0.2,0l-0.3,0.2l-0.2,0.2l-0.1,0.1l0,0.1
			l-0.1,0.3l-0.1,0.2l0.1,0.3l0.2,0.2l0.5,0.3l0.7,0l0.7,0.1l0.3,0l0.4,0.1l0.4,0l0.4,0.1l1.3,0.2l0.4,0.2l0.1-0.1l0.1-0.1l0.2-0.2
			L40.3,71.1z"/>
		<path class="st21" d="M41.9,64.9l-0.1,0l0,0.1L41.9,64.9z"/>
		<path class="st21" d="M48.3,67.9l-1.2-1.2l-1.4-1.4l-0.6-0.5l-0.5-0.3l-0.2-0.1l-0.7-0.3l-0.7,0l-0.4,0l-0.3,0.1l-0.3,0.2
			l-0.2,0.2l-0.1,0.2l0.1,0L41.7,65l0,0l0.1,0.3l0.2,0.3l0.5,0.3l0.8,0.2l0.6,0.2l0.4,0.1l0.4,0.1l0.4,0.1l0.5,0.1l1.1,0.4l1.3,0.8
			l0.3,0.2l0,0l0.2,0L48.3,67.9z"/>
		<path class="st21" d="M46.6,59l-0.1,0.2v0L46.6,59z"/>
		<path class="st21" d="M55.7,67.9l-0.1-0.2L55.7,67.9L55.7,67.9z"/>
		<path class="st21" d="M54.8,66.6L54.8,66.6l-0.8-1.4l-2.6-4.6l-0.1-0.1l-0.3-0.4l-0.3-0.4l-0.3-0.4L50.2,59l-0.4-0.3l-0.4-0.2
			l-0.4-0.2L48.5,58l-0.6-0.2l-0.5,0.1L47,58l-0.4,0.4l-0.2,0.2l0,0.5l0.1-0.2l-0.1,0.2v0l0.2,0.5l0.4,0.6l0.4,0.2l0.4,0.2l0.4,0.2
			l0.2,0.2l0,0l0.3,0.2l0.3,0.1l0.4,0.2l0.5,0.3l0.6,0.3l1.4,1l1.4,1.7l0.5,0.6L54.8,66.6L54.8,66.6z"/>
		<path class="st21" d="M48.6,61.1l0.2,0.1l0.1,0L48.6,61.1L48.6,61.1z"/>
		<path class="st22" d="M70.4,70.3l-0.7-0.1l-0.4,0.1L69,70.6l-0.2,0.4l0,0.4l0,0.3L69,72l0.3,0.1l0.3,0.1L70,72l0.3-0.2l0.2-0.4
			l0.1-0.4L70.4,70.3z M69.8,71.6l-0.3,0.3l-0.3-0.1l-0.1-0.4l0.1-0.6l0.4-0.2l0.3,0.1l0.2,0.5L69.8,71.6z"/>
		<path class="st22" d="M72.7,67.5l-0.2-0.2l-0.3-0.2l-0.4,0.1h-0.4l-0.3,0.4L71,67.9l0,0.5l0.3,0.6l0.8,0.2l0.2-0.2l0.3-0.3
			l0.2-0.5l0.1-0.3L72.7,67.5z M72.2,68.6l-0.3,0.3l-0.4-0.2l-0.1-0.3l0.1-0.6l0.4-0.2l0.3,0.1l0.2,0.4L72.2,68.6z"/>
		<path class="st22" d="M74.7,63.5l-0.2-0.3L74.2,63l-0.3,0.1l-0.5,0l-0.3,0.4L73,63.9l0,0.5l0.3,0.6l0.7,0.3l0.3-0.3l0.3-0.3
			l0.2-0.4l0.1-0.3L74.7,63.5z M74.2,64.5l-0.3,0.3l-0.3-0.2l-0.1-0.4l0.1-0.6l0.3-0.3l0.3,0.1l0.2,0.6L74.2,64.5z"/>
		<path class="st21" d="M38.5,76.8l-0.7-0.4l-0.7-0.1l-0.7-0.1l-0.8,0.2h0l-0.5,0l-0.3,0.3L34.6,77l0,0.1l0,0.1l-0.1,0.3l0,0.2v0.1
			l0.2,0.4l0.3,0.3l0.6,0.2l0.7,0H37l0.4-0.1l0.5,0l0.3,0l0-0.1l0.1-0.3l0.2-0.4l0.2-0.3l0,0v0l0.1-0.3l0.1,0.1v0L38.5,76.8z"/>
		<path class="st22" d="M91.3,54.2C91.3,54.2,91.3,54.2,91.3,54.2C91.3,54.2,91.3,54.2,91.3,54.2l0-0.4c0,0,0,0,0,0c0,0,0,0,0,0
			l-0.3-1.4c0,0,0,0,0,0c0,0,0,0,0,0c0,0,0,0,0,0l-0.2-1.2L90.4,51l-0.6-0.5l0.7,2.2l0.5,0.5l-0.1-0.6l0.3,1.3l0.1,3.1l-0.6,3.5
			l-1.2,3.5l-1.6,3.7l-2.1,3.7l-1,1.7l0.5-3.1l0.6-5.5l0.3-5.3l-0.2-5.6l-0.4-5.2l0.1-0.3l-0.4-0.9l-0.5-0.8l-0.4-0.9l-0.4-0.8
			l-0.4-1l-0.4-1l-0.3-1l-0.3-1.1l0,0.9l0.1,1l0.1,0.4l0.1,0.6l0.5,1.2l0.5,1l0.1,0.3l0.4,0.8l0.5,0.9l0.5,0.8l0.4,5.2l0.2,5.6
			l-0.3,5.3l-0.6,5.5l-0.5,3.2l-0.5-0.7l-1.1-0.8L82,71.2L80.7,71L79.4,71l-1.4,0.2l-0.5,0.2h-0.1l-0.5,0.2l0,0l0.6,1l0.6,1.1
			l1.3,5.7l-0.2,4.9l1.2-0.4l1.3-0.7l1.2-0.9l1-1.3l0.8-1.2l0.5-1.3l0.3-1.3l0.1-1.3l-0.2-1.2l-0.5-1.1l-0.1-0.1l1.1-1.8l2.1-3.7
			l1.6-3.7l1.2-3.5l0.6-3.5L91.3,54.2z"/>
		<path class="st21" d="M84.4,41.3l-0.2-0.7L84,40.1l-0.2-0.4l-0.1,0l-0.2,0.1l0,0.4l0,0.4l0.1,0.7l0.2,0.5l0.2,0.5l0.2,0.3l0.2,0.1
			l0.1-0.2l0.1-0.4l-0.1-0.5L84.4,41.3z"/>
		<path class="st21" d="M93.2,48.2L92.9,48l-0.3-0.2l-0.2,0.1L92,48.2l0.2,0.7l0.2,0.2l0.3,0.3l0.3,0.1l0.3,0l0.2-0.3l-0.1-0.6
			L93.2,48.2z"/>
		<path class="st21" d="M45.5,93.4l-0.2-1.1l0-0.3l0,0l-0.1-0.1l-0.1-0.7l0.2-0.5l0.1-0.1l0,0l-2.2-0.5l-2.4-0.6l-2.4-0.7l-3.7-1.2
			l-1.1-0.3l-0.4-0.1l0,0l-3.7-0.9L26,85.7l-2.3,0.4l0.3,1.5l1.9,2.1l3,2.6l4,2.7l1.1,0.6l0.4,0.2l3,1.8l4.8,2.5l1.6,0.8l0.3-0.3
			l0.3-0.2l0,0l0.1-0.4l0.2-0.4l0.3-0.2l-0.3-0.2l-0.6-0.8l-0.1-1l0-0.3l0,0l-0.2-0.5l0-0.2l0.1-0.3l0.3-0.5l0.1-0.1l0.1-0.2
			l0.2-0.4l0.4-0.3l0.1-0.1l0.2-0.1l0.1-0.3l0.6-0.2l0,0L45.5,93.4z"/>
		<path class="st21" d="M20.3,78L20,76.8l7.4-1.7L26.9,73l1.1-0.3l0.8,3.3L20.3,78z"/>
		<path class="st21" d="M25.1,71.4c1.4-0.2,1.7-0.8,1.7-1.5c0-0.4-0.2-0.8-0.4-1l1-0.3c0.2,0.3,0.4,0.9,0.5,1.4
			c0.2,1.5-0.9,2.4-2.9,2.7c-2.1,0.2-3.5-0.5-3.6-1.8c-0.1-1.2,1-2,2.7-2.2c0.4,0,0.6,0,0.7-0.1L25.1,71.4z M23.9,70
			c-1,0.1-1.6,0.5-1.5,0.9c0.1,0.5,1,0.7,1.7,0.6L23.9,70z"/>
		<path class="st21" d="M26.2,67.6c0.2-0.2,0.3-0.6,0.3-1c0-0.5-0.3-0.7-0.7-0.7c-0.4,0-0.7,0.2-1,0.7c-0.6,0.9-1.2,1.2-1.8,1.2
			c-1.1,0-1.9-0.7-1.9-1.8c0-0.5,0.1-0.8,0.3-1.1l1,0.3c-0.2,0.2-0.3,0.5-0.3,0.8c0,0.4,0.3,0.7,0.7,0.6c0.3,0,0.5-0.1,0.9-0.7
			c0.5-0.8,1.1-1.2,1.9-1.2c1.3,0,2,0.8,2,1.9c0,0.5-0.1,1-0.4,1.2L26.2,67.6z"/>
		<path class="st21" d="M23.2,61.2c-0.7-0.1-1.3-0.2-1.9-0.3l0.3-1.3l0.7,0.1l0,0c-0.4-0.4-0.7-0.9-0.6-1.5c0.1-0.6,0.5-1,1.1-1.1
			l0,0c-0.2-0.2-0.4-0.4-0.5-0.7c-0.1-0.3-0.1-0.6-0.1-0.8c0.2-1,1.2-1.3,2.7-1l4,0.8l-0.3,1.5L24.9,56c-0.7-0.1-1.3-0.2-1.4,0.3
			c-0.1,0.3,0.1,0.5,0.5,0.7c0.1,0,0.3,0.1,0.4,0.1l4,0.8l-0.3,1.5l-3.9-0.8c-0.4-0.1-1.1-0.2-1.2,0.3c0,0.2,0.1,0.5,0.5,0.7
			c0.1,0.1,0.3,0.1,0.5,0.2l4,0.8l-0.3,1.5L23.2,61.2z"/>
		<path class="st21" d="M27.3,52.2c0.9,0.3,1.5,0,1.7-0.7c0.2-0.4,0.2-0.8,0.2-1.1l1.2,0.2c0,0.4-0.1,1-0.3,1.6
			c-0.6,1.5-1.9,1.9-3.8,1.2c-2-0.8-2.8-2.2-2.4-3.4c0.4-1.2,1.7-1.5,3.5-0.8c0.4,0.2,0.7,0.3,0.8,0.4L27.3,52.2z M26.7,50.5
			c-0.8-0.3-1.4-0.3-1.6,0.1c-0.2,0.5,0.5,1,1.1,1.2L26.7,50.5z"/>
		<path class="st21" d="M24.6,44.8c0.5,0.2,0.7,0.7,0.5,1.1c-0.2,0.4-0.7,0.5-1.2,0.3c-0.5-0.2-0.7-0.7-0.5-1.1
			C23.6,44.7,24,44.5,24.6,44.8z M31.1,49.8l-5.7-2.8l0.7-1.4l5.7,2.8L31.1,49.8z"/>
		<path class="st21" d="M24.5,42.8l0.8-1.3l7.8,4.6l-0.8,1.3L24.5,42.8z"/>
		<path class="st21" d="M26.3,39.9l0.9-1.3l7.5,5.1l-0.9,1.3L26.3,39.9z"/>
		<path class="st21" d="M34.1,40.2c0.8,0.6,1.4,0.5,1.8-0.1c0.3-0.3,0.5-0.7,0.6-1l1.1,0.6c-0.1,0.4-0.4,1-0.8,1.4
			c-1,1.2-2.5,1.1-4-0.2c-1.6-1.4-2-3-1.1-4c0.8-1,2.1-0.8,3.6,0.4c0.4,0.3,0.5,0.5,0.6,0.6L34.1,40.2z M34.1,38.4
			c-0.6-0.5-1.2-0.8-1.5-0.4c-0.3,0.4,0.2,1.1,0.7,1.5L34.1,38.4z"/>
		<path class="st21" d="M40.3,34.9c0.5,0.5,0.9,1,1.3,1.4l-1,0.9l-0.5-0.4l0,0c0.1,0.5,0,1.1-0.5,1.5c-0.8,0.7-1.8,0.4-2.9-0.9
			l-2.6-2.9l1.2-1.1l2.5,2.7c0.6,0.6,1,0.9,1.4,0.6c0.2-0.2,0.2-0.5,0.1-0.7c0-0.1-0.1-0.3-0.3-0.5l-2.7-3l1.2-1L40.3,34.9z"/>
		<path class="st21" d="M39.8,32.1c-0.4-0.5-0.8-1.1-1.2-1.5l1.1-0.8l0.6,0.7l0,0c-0.2-0.7,0-1.3,0.3-1.5c0.1-0.1,0.2-0.1,0.3-0.2
			l1,1.4c-0.1,0-0.2,0.1-0.3,0.2c-0.3,0.2-0.5,0.7-0.2,1.3c0.1,0.1,0.2,0.3,0.3,0.6l1.9,2.6l-1.3,0.9L39.8,32.1z"/>
		<path class="st21" d="M44.5,32.4c0.3,0,0.7,0,1.1-0.2c0.4-0.2,0.4-0.5,0.3-0.8c-0.2-0.3-0.4-0.4-1-0.4c-1.1,0-1.6-0.5-1.9-1
			c-0.6-1-0.4-2.1,0.6-2.7c0.4-0.2,0.8-0.3,1.2-0.3l0.4,1.2c-0.3,0-0.6,0-0.8,0.2c-0.3,0.2-0.4,0.5-0.2,0.8c0.1,0.2,0.3,0.3,1,0.4
			c1,0,1.6,0.5,2,1.1c0.7,1.1,0.3,2.2-0.8,2.8c-0.4,0.2-1,0.4-1.3,0.4L44.5,32.4z"/>
		<path class="st21" d="M50.6,28.2c0.4,0.9,1,1.1,1.6,0.8c0.4-0.2,0.7-0.4,1-0.6l0.6,1.1c-0.3,0.3-0.8,0.6-1.4,0.8
			c-1.5,0.6-2.7-0.2-3.4-2.1c-0.8-2-0.3-3.6,1-4c1.2-0.4,2.2,0.3,2.9,2.1c0.2,0.4,0.2,0.7,0.3,0.8L50.6,28.2z M51.5,26.6
			c-0.3-0.8-0.7-1.3-1.1-1.1c-0.5,0.2-0.4,1-0.2,1.6L51.5,26.6z"/>
		<path class="st21" d="M54,24.9c-0.1-0.7-0.3-1.3-0.4-1.9l1.3-0.3l0.2,0.7l0,0c0.2-0.5,0.6-1,1.2-1.1c0.6-0.1,1.1,0.1,1.4,0.6l0,0
			c0.1-0.3,0.3-0.5,0.4-0.7c0.2-0.2,0.5-0.3,0.8-0.4c1-0.2,1.6,0.6,1.9,2.1l0.8,4l-1.5,0.3l-0.7-3.7c-0.1-0.7-0.3-1.3-0.8-1.2
			c-0.3,0.1-0.4,0.3-0.5,0.7c0,0.1,0,0.3,0,0.4l0.8,4l-1.5,0.3l-0.8-3.9c-0.1-0.4-0.3-1-0.7-1c-0.2,0-0.4,0.3-0.5,0.7
			c0,0.1,0,0.3,0,0.5l0.8,4l-1.5,0.3L54,24.9z"/>
		<path class="st21" d="M62.5,23.6c0-0.8-0.1-1.4-0.1-2l1.4,0l0.1,0.7h0c0.2-0.5,0.7-0.8,1.2-0.9c1.3,0,1.8,1.5,1.9,3.3
			c0,2.3-0.8,3.3-1.8,3.3c-0.5,0-0.8-0.3-1-0.6h0l0.1,3l-1.6,0L62.5,23.6z M64.1,25.6c0,0.2,0,0.4,0.1,0.5c0.1,0.4,0.3,0.5,0.5,0.5
			c0.5,0,0.7-0.9,0.7-1.9c0-1.2-0.3-1.9-0.8-1.9c-0.2,0-0.5,0.3-0.5,0.6c-0.1,0.1-0.1,0.3-0.1,0.5L64.1,25.6z"/>
		<path class="st21" d="M68.6,19l1.6,0.1l-0.8,9L67.9,28L68.6,19z"/>
		<path class="st21" d="M75.3,25.8c-0.5,2.6-1.9,3-2.8,2.9c-1.4-0.3-2-1.6-1.6-3.6c0.4-2.3,1.7-3.1,2.8-2.9
			C75.1,22.5,75.6,23.9,75.3,25.8z M72.4,25.3c-0.2,1.1-0.2,2,0.3,2.1c0.5,0.1,0.8-0.9,1-1.9c0.2-0.9,0.2-2-0.3-2.1
			C72.9,23.4,72.6,24.5,72.4,25.3z"/>
		<path class="st21" d="M78.4,23.5l-0.5,3.3c-0.1,0.4-0.1,0.7-0.2,1.1l0,0c0.1-0.3,0.3-0.6,0.5-1l1.5-3l1.5,0.5l-2.6,4.3
			c-0.6,1.1-1.4,2.1-2.2,2.7C75.6,31.9,75,32,74.7,32l0-1.6c0.3,0,0.6-0.1,0.9-0.3c0.3-0.1,0.5-0.3,0.7-0.6c0.1-0.1,0.1-0.1,0.2-0.2
			c0-0.1,0-0.2,0-0.2l0.3-6.1L78.4,23.5z"/>
		<path class="st21" d="M81.8,28.8c-0.4,0.9-0.1,1.5,0.6,1.8c0.4,0.2,0.8,0.3,1.1,0.3L83.1,32c-0.4,0-1-0.2-1.6-0.4
			c-1.4-0.7-1.7-2.1-0.9-3.9c0.9-2,2.4-2.7,3.6-2.1c1.1,0.5,1.3,1.8,0.5,3.6c-0.2,0.4-0.3,0.6-0.4,0.8L81.8,28.8z M83.5,28.3
			c0.3-0.8,0.4-1.4,0-1.6c-0.5-0.2-1,0.4-1.3,1L83.5,28.3z"/>
		<path class="st21" d="M88.6,33.3c-0.4,0.6-0.7,1.2-1,1.7l-1.1-0.7l0.3-0.6l0,0c-0.5,0.2-1.1,0.3-1.6-0.1c-0.9-0.6-0.8-1.6,0.1-3.1
			l2.1-3.3l1.3,0.8l-2,3.1c-0.4,0.7-0.6,1.2-0.2,1.5c0.2,0.1,0.5,0,0.7-0.1c0.1-0.1,0.3-0.2,0.4-0.4l2.2-3.4l1.3,0.8L88.6,33.3z"/>
		<path class="st21" d="M91.1,32.1c0.4-0.5,0.8-1.1,1.2-1.5l1.1,0.8l-0.5,0.8l0,0c0.6-0.4,1.2-0.4,1.5-0.1c0.1,0.1,0.2,0.1,0.2,0.2
			l-1.1,1.3c-0.1-0.1-0.1-0.1-0.2-0.2c-0.3-0.2-0.8-0.3-1.3,0.1c-0.1,0.1-0.3,0.2-0.4,0.5l-2,2.5l-1.2-1L91.1,32.1z"/>
		<path class="st21" d="M92.1,36.7c0.1,0.3,0.2,0.7,0.5,1c0.3,0.3,0.6,0.3,0.9,0c0.2-0.2,0.3-0.5,0.1-1.1c-0.3-1.1,0-1.7,0.4-2.1
			c0.8-0.8,1.9-0.9,2.8-0.1c0.4,0.3,0.5,0.7,0.6,1l-1.1,0.7c-0.1-0.3-0.2-0.5-0.4-0.8c-0.3-0.3-0.6-0.2-0.8,0
			c-0.2,0.2-0.2,0.4-0.1,1c0.2,1,0,1.7-0.5,2.2c-0.9,0.9-2,0.8-2.9,0c-0.4-0.3-0.7-0.8-0.7-1.2L92.1,36.7z"/>
		<path class="st21" d="M104.6,39.8l-5.9,4.3c-0.4,0.3-1,0.8-1.4,1.1l-0.6-0.9l0.6-0.5l0,0c-0.5,0.1-1.1,0-1.4-0.5
			c-0.7-0.9,0-2.2,1.6-3.4c1.8-1.3,3.2-1.2,3.7-0.5c0.3,0.4,0.3,0.8,0,1.2l0,0l2.6-1.9L104.6,39.8z M99.7,41.8
			c0.1-0.1,0.2-0.2,0.3-0.3c0.4-0.3,0.6-0.8,0.4-1.1c-0.4-0.5-1.3-0.1-2.2,0.6c-1,0.8-1.5,1.5-1.2,1.9c0.1,0.2,0.4,0.3,1,0.1
			c0.1,0,0.2-0.1,0.4-0.2L99.7,41.8z"/>
		<path class="st21" d="M100.8,45.5c-1.2,0.7-1.3,1.4-1,2c0.2,0.4,0.5,0.6,0.7,0.8L99.7,49c-0.3-0.2-0.7-0.7-1-1.1
			c-0.7-1.3-0.1-2.6,1.7-3.5c1.8-1,3.4-0.8,4,0.3c0.6,1.1-0.2,2.2-1.7,3c-0.3,0.2-0.5,0.3-0.7,0.3L100.8,45.5z M102.4,46.4
			c0.9-0.5,1.3-1,1.1-1.4c-0.3-0.5-1.2-0.3-1.8,0.1L102.4,46.4z"/>
		<path class="st21" d="M105.5,55.5c0.9-0.3,2.1-0.7,3-1l0,0c-1,0.1-2,0.2-2.9,0.3l-3.7,0.3l-0.3-0.8l3.1-1.8c0.8-0.5,1.8-1,2.7-1.4
			l0,0c-1,0.3-2.1,0.6-3.1,0.8l-3.3,0.9l-0.3-1.1l8.6-2.1l0.4,1.3l-3.2,1.8c-1,0.6-1.8,1-2.7,1.5l0,0c1-0.2,1.9-0.3,3.1-0.4l3.6-0.3
			l0.4,1.3l-8.3,3l-0.3-1.1L105.5,55.5z"/>
		<path class="st21" d="M106.5,62.1c-2.6,0.4-3.4-0.7-3.6-1.6c-0.2-1.2,0.8-2.2,2.9-2.5c2.3-0.3,3.4,0.6,3.6,1.6
			C109.6,60.9,108.6,61.8,106.5,62.1z M106.1,59.3c-1.1,0.2-2.2,0.5-2.1,1.2c0.1,0.6,1.4,0.6,2.3,0.4c0.9-0.1,2.2-0.5,2.1-1.1
			C108.3,59.1,107,59.2,106.1,59.3z"/>
		<path class="st21" d="M108,63.4c0.7,0,1.2,0,1.8-0.1l0,1.1l-0.7,0.1v0c0.5,0.3,0.9,0.8,0.9,1.4c0,1-0.8,1.5-2.3,1.5l-4.2,0.1
			l0-1.3l4-0.1c0.6,0,1.3-0.1,1.2-0.7c0-0.3-0.3-0.6-0.8-0.7c-0.1,0-0.3-0.1-0.6-0.1l-3.9,0.1l0-1.3L108,63.4z"/>
		<path class="st21" d="M111.2,70.8l-1.7-0.2l-0.1,1.1l-1-0.1l0.1-1.1l-3.3-0.3c-0.8-0.1-1,0.2-1,0.5c0,0.1,0,0.3,0,0.4l-1.1-0.1
			c0-0.2-0.1-0.5,0-0.8c0-0.4,0.2-0.8,0.5-1c0.3-0.3,0.8-0.4,1.8-0.3l3.3,0.3l0.1-0.7l1,0.1l-0.1,0.7l1.3,0.1L111.2,70.8z"/>
		<path class="st21" d="M107.5,72.7c0.6,0.1,1.2,0.2,1.8,0.3l-0.2,1.1l-1-0.1l0,0c0.6,0.3,0.9,0.9,0.8,1.4c0,0.1-0.1,0.2-0.1,0.3
			l-1.4-0.3c0-0.1,0.1-0.1,0.1-0.3c0.1-0.4-0.2-1-0.9-1.2c-0.1-0.1-0.4-0.1-0.6-0.2l-3.3-0.6l0.2-1.2L107.5,72.7z"/>
		<path class="st21" d="M104.8,76.7c-1.4-0.4-1.9,0.1-2.1,0.7c-0.1,0.4-0.1,0.8-0.1,1.1l-1-0.1c-0.1-0.4,0-1,0.1-1.5
			c0.4-1.4,1.8-1.9,3.7-1.3c2,0.6,3,1.8,2.6,3c-0.3,1.2-1.7,1.4-3.3,0.9c-0.4-0.1-0.5-0.2-0.7-0.2L104.8,76.7z M105.3,78.5
			c1,0.3,1.6,0.2,1.8-0.3c0.2-0.5-0.6-1-1.3-1.2L105.3,78.5z M110,80.8l-1.4-1.7l0.2-0.8l1.5,1.3L110,80.8z"/>
		<path class="st21" d="M100.1,81.6l0.6,0.2l0,0c-0.3-0.5-0.4-1-0.2-1.4c0.3-0.8,1.3-1,2.3-0.6c1.5,0.6,1.6,2.1,1.1,3.3l0.2,0.1
			c0.6,0.3,1.1,0.2,1.4-0.4c0.2-0.4,0.2-0.8,0.1-1.1l1,0.2c0.1,0.3,0.1,1-0.2,1.6c-0.6,1.4-1.8,1.3-3,0.7l-2.3-1
			c-0.5-0.2-1-0.4-1.4-0.5L100.1,81.6z M103.1,82.7c0.2-0.5,0.4-1.3-0.6-1.8c-0.7-0.3-1-0.1-1.2,0.2c-0.1,0.3,0,0.7,0.4,1
			c0.1,0.1,0.2,0.1,0.3,0.2L103.1,82.7z"/>
		<path class="st21" d="M107,87.9l-0.6,1.1l-7.9-4.4l0.6-1.1L107,87.9z"/>
		<path class="st21" d="M79.6,108.9c-0.2,0.5-0.3,1-0.4,1.6c-0.3,0-0.9,0-1.8,0.1c-1.1,0.1-1.8,0.2-2,0.3c-0.1,0-0.1,0-0.1-0.1
			c0,0,0.1-0.2,0.4-0.6c0.8-1.1,1.3-1.8,1.5-2.4c0.3-0.5,0.4-0.9,0.3-1.3c-0.1-0.7-0.4-1-1.1-0.9c-0.5,0-0.9,0.3-1.2,0.9
			c0,0,0,0-0.1,0c-0.1,0-0.1,0-0.1,0c0,0-0.1-0.1-0.1-0.1c0-0.1,0.1-0.3,0.3-0.6c0.2-0.4,0.4-0.7,0.7-0.8c0.2-0.2,0.5-0.3,0.8-0.3
			c0.5-0.1,0.9,0.1,1.2,0.4c0.3,0.3,0.5,0.7,0.6,1.2c0,0.3-0.1,0.7-0.3,1.1c-0.2,0.4-0.7,1.1-1.5,2.1c-0.1,0.2-0.2,0.3-0.3,0.4
			l1.8-0.2c0.2,0,0.4-0.1,0.5-0.2c0.1-0.1,0.2-0.3,0.4-0.6c0,0,0.1-0.1,0.1-0.1c0,0,0.1,0,0.1,0C79.6,108.8,79.6,108.8,79.6,108.9z"
			/>
		<path class="st21" d="M88,104.7c0.3,0.8,0.4,1.7,0.1,2.4c-0.3,0.8-0.8,1.3-1.5,1.6c-0.7,0.3-1.4,0.2-2.1-0.1
			c-0.7-0.4-1.2-1-1.6-1.8c-0.3-0.9-0.4-1.7-0.1-2.4c0.3-0.8,0.8-1.3,1.5-1.6c0.7-0.3,1.4-0.2,2.1,0.1
			C87.1,103.3,87.6,103.9,88,104.7z M87.2,105c-0.3-0.7-0.7-1.2-1.2-1.5c-0.5-0.3-1-0.4-1.6-0.2c-0.5,0.2-0.9,0.6-1,1.2
			c-0.2,0.6-0.1,1.2,0.2,2c0.3,0.7,0.7,1.2,1.2,1.5c0.5,0.3,1,0.4,1.6,0.2c0.5-0.2,0.9-0.6,1-1.2C87.6,106.4,87.5,105.8,87.2,105z"
			/>
		<path class="st21" d="M95.5,101.4c0.1,0.5,0.3,1,0.5,1.6c-0.2,0.1-0.7,0.4-1.5,1c-0.9,0.7-1.4,1.1-1.6,1.3c-0.1,0-0.1,0-0.2-0.1
			c0,0,0-0.3,0.1-0.8c0.1-1.3,0.2-2.2,0.1-2.8c0-0.6-0.2-1-0.4-1.3c-0.4-0.5-0.9-0.6-1.4-0.2c-0.4,0.3-0.6,0.7-0.6,1.4
			c0,0,0,0.1,0,0.1c0,0-0.1,0-0.2,0c-0.1,0-0.1,0-0.1-0.1c0,0,0-0.3,0-0.7c0-0.4,0.1-0.8,0.2-1.1c0.1-0.3,0.3-0.5,0.5-0.7
			c0.4-0.3,0.8-0.4,1.2-0.3c0.4,0.1,0.8,0.3,1.1,0.7c0.2,0.3,0.3,0.6,0.3,1.1c0,0.5,0,1.3-0.2,2.6c0,0.2,0,0.4-0.1,0.5l1.5-1.1
			c0.2-0.1,0.3-0.3,0.3-0.4c0-0.1,0.1-0.4,0.1-0.7c0-0.1,0-0.1,0.1-0.1c0,0,0.1,0,0.1,0C95.4,101.4,95.4,101.4,95.5,101.4z"/>
	</g>
</g>
<path class="st21" d="M101.5,95.6l-0.1-0.1l-0.1-0.1l-0.1,0.1c-0.1,0.1-0.1,0.2-0.2,0.3c-0.1,0.1-0.1,0.1-0.1,0.1
	c-0.1,0-0.1,0-0.2,0c0,0-0.1,0-0.2-0.1c-0.1,0-0.2-0.1-0.3-0.2L96.1,93L96,92.9L95.9,93l-0.1,0.1l0,0l0,0l-0.2,1.6l0,0.1l0.1,0
	l0.1,0l0.1,0l0-0.1c0-0.2,0.1-0.3,0.1-0.4c0,0,0.1-0.1,0.1-0.1l0-0.1l0,0.1l0,0c0,0,0.1,0,0.2,0l0,0c0.1,0,0.3,0.2,0.7,0.4l2.6,1.7
	c0.1,0.1,0.3,0.2,0.3,0.2c0.1,0.1,0.1,0.1,0.1,0.1c0,0,0,0.1,0,0.2c0,0,0,0.1-0.1,0.1c0,0.1-0.1,0.2-0.2,0.3l-0.1,0.1l0.1,0.1
	l0.1,0.1l0.1,0.1l0.1-0.1l1.2-1.8L101.5,95.6L101.5,95.6z"/>
</svg>
