<?xml version="1.0" encoding="utf-8"?>
<!-- Generator: Adobe Illustrator 28.0.0, SVG Export Plug-In . SVG Version: 6.00 Build 0)  -->
<svg version="1.1" id="Layer_1" xmlns="http://www.w3.org/2000/svg" xmlns:xlink="http://www.w3.org/1999/xlink" x="0px" y="0px"
	 viewBox="0 0 131 130" style="enable-background:new 0 0 131 130;" xml:space="preserve">
<style type="text/css">
	.st0{clip-path:url(#SVGID_00000181087520481450643940000012986408708867026867_);}
	.st1{fill:#FFFFFF;stroke:url(#SVGID_00000141419790744965763130000018365380191490378410_);}
	.st2{opacity:0.8;fill:#001464;enable-background:new    ;}
	.st3{fill:#001464;}
	.st4{opacity:0.5;fill:#001464;enable-background:new    ;}
	.st5{opacity:0.6;fill:#001464;enable-background:new    ;}
</style>
<g>
	<defs>
		<rect id="SVGID_1_" width="131" height="130"/>
	</defs>
	<clipPath id="SVGID_00000005241859656665569530000014953617185726924972_">
		<use xlink:href="#SVGID_1_"  style="overflow:visible;"/>
	</clipPath>
	<g style="clip-path:url(#SVGID_00000005241859656665569530000014953617185726924972_);">
		
			<linearGradient id="SVGID_00000183957312889016416460000013035921969350185357_" gradientUnits="userSpaceOnUse" x1="-56.8195" y1="66.6935" x2="160.9413" y2="67.2002" gradientTransform="matrix(1 0 0 -1 0 132)">
			<stop  offset="0.3177" style="stop-color:#E43425"/>
			<stop  offset="0.7188" style="stop-color:#441FD8"/>
			<stop  offset="1" style="stop-color:#0A26B8"/>
		</linearGradient>
		<path style="fill:#FFFFFF;stroke:url(#SVGID_00000183957312889016416460000013035921969350185357_);" d="M67.6,2.3l7.2,5.6
			c1.1,0.9,2.6,1.2,4,0.8l8.9-2.5c1.5-0.4,3.2,0.2,4,1.6l4.5,7.9c0.7,1.2,2,2.1,3.4,2.2l9.1,1.1c1.6,0.2,2.9,1.5,3.1,3.1l1.1,9
			c0.2,1.4,1,2.7,2.3,3.4l8,4.4c1.4,0.8,2.1,2.4,1.7,4l-2.4,8.7c-0.4,1.4-0.1,2.9,0.8,4l5.6,7.1c1,1.3,1,3.1,0,4.3l-5.6,7.1
			c-0.9,1.1-1.2,2.6-0.8,4l2.4,8.7c0.4,1.6-0.2,3.2-1.7,4l-8,4.4c-1.3,0.7-2.1,2-2.3,3.4l-1.1,9c-0.2,1.6-1.5,2.9-3.1,3.1l-9.1,1.1
			c-1.4,0.2-2.7,1-3.4,2.2l-4.5,7.9c-0.8,1.4-2.4,2.1-4,1.6l-8.9-2.5c-1.4-0.4-2.8-0.1-4,0.8l-7.2,5.6c-1.3,1-3,1-4.3,0l-7.2-5.6
			c-1.1-0.9-2.6-1.2-4-0.8l-8.9,2.5c-1.5,0.4-3.2-0.2-4-1.6l-4.5-7.9c-0.7-1.2-2-2.1-3.4-2.2l-9.1-1.1c-1.6-0.2-2.9-1.5-3.1-3.1
			l-1.1-9c-0.2-1.4-1-2.7-2.3-3.4L8,91c-1.4-0.8-2.1-2.4-1.7-4l2.4-8.7c0.4-1.4,0.1-2.9-0.8-4l-5.6-7.1c-1-1.3-1-3.1,0-4.3L8,55.7
			c0.9-1.1,1.2-2.6,0.8-4L6.3,43c-0.4-1.6,0.2-3.2,1.7-4l8-4.4c1.3-0.7,2.1-2,2.3-3.4l1.1-9c0.2-1.6,1.5-2.9,3.1-3.1l9.1-1.1
			c1.4-0.2,2.7-1,3.4-2.2l4.5-7.9c0.8-1.4,2.4-2.1,4-1.6l8.9,2.5c1.4,0.4,2.8,0.1,4-0.8l7.2-5.6C64.6,1.3,66.4,1.3,67.6,2.3z"/>
		<path class="st2" d="M56.3,36.9l4.5-0.6c0.1,0,0.2,0,0.3,0c0.1,0,0.2,0.1,0.3,0.1c0.1,0.1,0.3,0.3,0.3,0.4l4.2,18.5V28.9L31,35.4
			l4.7,39.3L38,75c0-0.2,0-0.5,0-0.5c0.1,0.3,0.4,0,0.5-0.2c0.2-0.4,0.4-0.9,0.5-1.3c0.1-0.2,0.5-1,0.5-1c-0.4,0.8-0.1,1.6,0.1,2.1
			s0.6-0.1,0.6-0.1c-0.1,0.2-0.1,0.4-0.1,0.7c0,0.2,0.1,0.4,0.3,0.6c0.2,0.2,0.9-0.9,0.9-0.9C41.1,74.6,41,75,41,75.3l4,0.6
			c0.4-0.2,1.2-0.7,1.2-0.7c-0.1,0.2-0.4,0.6-0.6,0.8l20.2,2.8v-9.9l-3.5-13.5l0.2,16.6c0,0.5-0.2,0.7-0.7,0.7l-4.6-0.4
			c-0.1,0-0.2,0-0.3-0.1c-0.1,0-0.2-0.1-0.2-0.2c-0.1-0.1-0.1-0.2-0.1-0.2c0-0.1,0-0.2,0-0.3l-0.9-33.9c0-0.1,0-0.2,0-0.3
			c0-0.1,0.1-0.2,0.1-0.3c0.1-0.1,0.1-0.1,0.2-0.2C56.1,37,56.2,36.9,56.3,36.9L56.3,36.9z M52.4,68.5c-0.3,0.7-0.7,1.3-1.2,1.9
			c-0.5,0.5-1.1,0.9-1.8,1.2c-0.7,0.3-1.5,0.4-2.3,0.3l-1.8-0.2c-0.8-0.1-1.6-0.3-2.4-0.7c-0.7-0.3-1.4-0.8-2-1.4
			c-0.6-0.5-1.1-1.2-1.4-1.9c-0.4-0.7-0.6-1.4-0.7-2.2l-0.4-4.3c0-0.1,0-0.2,0-0.3c0-0.1,0.1-0.2,0.1-0.2c0.1-0.1,0.1-0.1,0.2-0.2
			c0.1,0,0.2-0.1,0.3-0.1l4.4-1.1c0.4-0.1,0.6,0,0.7,0.5l0.4,5.7c0,0.3,0.2,0.6,0.4,0.8c0.2,0.2,0.5,0.3,0.8,0.4H46
			c0.1,0,0.3,0,0.4-0.1c0.1-0.1,0.3-0.1,0.4-0.2c0.1-0.1,0.2-0.2,0.2-0.4c0.1-0.1,0.1-0.3,0.1-0.4l-0.4-6.2c0-0.4-0.1-0.7-0.3-1.1
			c-0.1-0.3-0.4-0.6-0.6-0.8l-6.8-4.3c-0.5-0.3-0.9-0.7-1.2-1.2c-0.3-0.5-0.4-1.1-0.5-1.6l-0.5-5.3c-0.1-0.8,0-1.5,0.3-2.2
			c0.3-0.7,0.7-1.4,1.3-2c0.6-0.6,1.3-1.1,2-1.5c0.8-0.4,1.7-0.7,2.5-0.8l2-0.3c0.9-0.1,1.7-0.1,2.6,0.1c0.8,0.2,1.5,0.5,2.2,1
			c0.6,0.5,1.2,1.1,1.5,1.8c0.4,0.7,0.6,1.5,0.6,2.3l0.1,1.9c0,0.2,0,0.4-0.1,0.6c-0.1,0.2-0.3,0.3-0.5,0.4l-4.6,1.6
			c-0.4,0.2-0.7,0-0.7-0.4l-0.2-3.1c0-0.1-0.1-0.3-0.1-0.4c-0.1-0.1-0.2-0.2-0.3-0.3c-0.1-0.1-0.3-0.2-0.4-0.2s-0.3,0-0.5,0l-0.4,0
			c-0.3,0-0.6,0.2-0.9,0.4c-0.1,0.1-0.2,0.2-0.2,0.4c-0.1,0.1-0.1,0.3-0.1,0.4l0.3,4.2c0,0.3,0.1,0.6,0.3,0.9
			c0.2,0.3,0.4,0.5,0.6,0.7l6.8,4.3c0.5,0.3,0.9,0.8,1.1,1.4c0.2,0.5,0.3,1,0.4,1.6l0.3,8.4C52.8,67,52.7,67.8,52.4,68.5L52.4,68.5z
			"/>
		<path class="st3" d="M95.4,80.7c0.2,0,0.4,0,0.6,0.1c0.4,0.2,0.6,0.4,0.8,0.8c0.1,0.2,0.1,0.4,0.1,0.6c0,0.3-0.1,0.5-0.2,0.7
			s-0.3,0.4-0.5,0.5c-0.2,0.1-0.5,0.2-0.7,0.2c-0.3,0-0.5-0.1-0.7-0.2c-0.2-0.1-0.4-0.3-0.5-0.5c-0.1-0.2-0.2-0.5-0.2-0.7
			c0-0.3,0.1-0.5,0.2-0.7c0.1-0.2,0.3-0.4,0.5-0.5C94.9,80.8,95.1,80.7,95.4,80.7L95.4,80.7z M95.4,81c-0.2,0-0.4,0.1-0.6,0.2
			c-0.2,0.1-0.3,0.3-0.4,0.4c-0.1,0.2-0.2,0.4-0.2,0.6s0.1,0.4,0.2,0.6c0.1,0.2,0.3,0.3,0.4,0.4c0.2,0.1,0.4,0.2,0.6,0.2
			c0.2,0,0.4-0.1,0.6-0.2c0.2-0.1,0.3-0.2,0.4-0.4c0.1-0.2,0.2-0.4,0.2-0.6c0-0.2-0.1-0.4-0.2-0.6c-0.1-0.2-0.3-0.3-0.4-0.4
			C95.8,81.1,95.6,81,95.4,81L95.4,81z M95,83h-0.3v-1.6h0.7c0.1,0,0.2,0,0.3,0.1c0.1,0,0.1,0.1,0.2,0.2c0,0.1,0.1,0.2,0.1,0.2
			c0,0.1,0,0.2-0.1,0.3c-0.1,0.1-0.2,0.1-0.3,0.1c0.1,0,0.1,0.1,0.2,0.1c0.1,0.1,0.1,0.2,0.2,0.3l0.2,0.3h-0.4l-0.1-0.3
			c0-0.1-0.1-0.2-0.2-0.3c0,0-0.1-0.1-0.1-0.1c-0.1,0-0.1,0-0.2,0H95V83z M95,81.7v0.4h0.3c0.1,0,0.2,0,0.3,0c0,0,0.1,0,0.1-0.1
			c0,0,0-0.1,0-0.1c0,0,0-0.1,0-0.1c0,0,0,0-0.1-0.1c-0.1,0-0.2-0.1-0.2-0.1H95z"/>
		<path class="st4" d="M47.3,81C47,81,46.7,81,46.4,81c-0.2,0-0.6-0.2-0.8-0.2c-0.2,0-0.8-0.1-0.9-0.4c-0.1-0.3,0.2-0.5,0.3-0.7
			c0.2-0.2,0.7-0.8,1.1-0.9l0.2,0h-0.2l0.2,0c0,0-1.3,0.1-1.3-0.2c0-0.2,0-0.4,0.1-0.6c0.1-0.2,0.3-0.3,0.5-0.4c0,0-0.6,0.1-0.5-0.4
			c0.1-0.4,0.2-0.8,0.5-1.1l0,0c0.2-0.2,0.5-0.6,0.6-0.8c0,0-0.8,0.5-1.2,0.7c-0.4,0.2-0.9,0.4-1.1,0.4s-1,0.4-0.9-0.3
			c-0.1,0.2-0.2,0.4-0.4,0.6c-0.3,0.3-1,1-1.2,0.9c-0.2-0.1-0.4-0.4-0.4-0.9c-0.1-0.4-0.1-0.8,0-1.2c0,0,0-0.1,0-0.2
			c0-0.4,0.1-0.7,0.3-1.1c0,0-0.7,1.1-0.9,0.9c-0.1-0.2-0.2-0.4-0.3-0.6s0-0.5,0.1-0.7c0,0-0.4,0.6-0.6,0.1
			c-0.2-0.5-0.6-1.3-0.1-2.1c0,0-0.4,0.8-0.5,1c-0.1,0.5-0.3,0.9-0.5,1.3c-0.2,0.2-0.4,0.5-0.5,0.2c0,0,0,0.2,0,0.5
			c0,0.2,0,0.3-0.1,0.5c-0.1,0.2-0.1,0.6-0.3,0.7c-0.1,0-0.1,0.1-0.2,0.1c-0.1,0-0.2,0-0.2,0c-0.1,0-0.1-0.1-0.2-0.1
			s-0.1-0.1-0.1-0.2c0,0,0.3,0.7,0.4,1c0.2,0.5,0.3,0.9,0.3,1.4c0,0.5,0.1,0.9-0.1,1.1c-0.2,0.1-1,0.1-1.1-0.2c0,0,0,0.4-0.2,0.5
			c-0.1,0-0.3,0.1-0.4,0.2c-0.2,0-0.4-0.1-0.6-0.3c-0.2-0.1-0.3-0.3-0.4-0.5c0.1,0.3,0.2,0.6,0.4,0.9c0.3,0.4,0.3,0.6,0.5,0.8
			c0.2,0.2,0.4,0.6,0.2,0.7c0,0,0.3,0,0.6,0.5c0.3,0.5,0.2,1.1-0.2,1.3c0,0-0.1,0.1,0.2,0.1c0.3-0.1,0.7-0.1,1,0
			c0.4,0.2,0.9,0.4,0.9,0.7c0,0.5-0.1,1.1-0.3,1.6c-0.1,0.2-0.2,0.5-0.4,0.7c-0.1,0.1-0.2,0.2-0.3,0.2c0.2,0,0.5-0.1,0.7-0.3
			c0.3-0.2,0.6-0.3,0.9-0.4c0.3-0.1,0.5-0.3,0.7-0.2c0.2,0.1,0.5,0.1,0.5,0.4c0.1-0.3,0.4-0.6,0.7-0.8c0.4-0.2,0.5-0.4,0.9-0.2
			c0.4,0.2,0.3,0.1,0.6,0.3C42.5,85.6,43,86,43,86c-0.1-0.2-0.2-0.4-0.3-0.6c-0.1-0.2-0.2-0.4-0.2-0.6c0-0.2-0.1-0.5-0.1-0.6
			c0-0.1-0.1-0.3-0.1-0.4l-0.1-0.2c0,0,2.2,2.3,4.8,3.3l0.1-0.2c0,0-8.7-3.5-8-11.6c0-0.1,0-0.2,0-0.4c0-0.1,0-0.3,0-0.3
			c0,0.1,0,0.2,0,0.3c0,0.1,0,0.2,0,0.4c-0.1,1.6,0.3,3.2,0.9,4.7c0.7,1.5,1.6,2.8,2.9,3.9c0,0-0.1-0.1,0.2,0.1
			c0.3,0.2,0.2,0.2,0.4,0.2c0.2,0,0.4,0.1,0.6,0.2c0.2,0.1,0.4,0.1,0.6,0.2c0.1,0.1,0.2,0.1,0.3,0.2c0.1,0,0.3,0,0.4,0
			c0,0-0.9-0.3-1-1c0,0,0-0.1-0.1-0.1c0,0,0-0.1,0-0.1c0,0,0-0.1,0.1-0.1c0,0,0.1-0.1,0.1-0.1c0.6-0.3,1.3-0.4,2-0.3
			c0,0-0.8-0.2-0.5-0.4c0.3-0.2,0.5-0.5,0.7-0.6c0.3-0.2,0.5-0.4,0.8-0.5c0.3-0.1,0.6-0.4,0.7-0.7C47.9,80.8,47.6,80.9,47.3,81z"/>
		<path class="st5" d="M65.8,22v33.4l4.5-22.5c0-0.1,0-0.2,0-0.3c0-0.1,0.1-0.2,0.2-0.2c0.1-0.1,0.2-0.1,0.3-0.1c0.1,0,0.2,0,0.3,0
			l4.7,0.9c0.1,0,0.2,0,0.3,0.1c0.1,0.1,0.2,0.1,0.3,0.2c0.1,0.1,0.1,0.2,0.1,0.3c0,0.1,0,0.2,0,0.3l-0.8,37.7c0,0.1,0,0.2,0,0.3
			c0,0.1-0.1,0.2-0.2,0.3c-0.1,0.1-0.2,0.1-0.2,0.2c-0.1,0-0.2,0.1-0.3,0.1l-4.9,0.5c-0.5,0.1-0.7-0.2-0.7-0.7l0.1-18.6L65.8,69
			v15.7l31.1-5.3l3.6-49L65.8,22z M94.8,41.8c0,0.5-0.3,0.6-0.8,0.6l-6.2-0.9l-0.3,7.4l5.3,0.5c0.5,0,0.7,0.3,0.7,0.7l-0.3,4.3
			c0,0.5-0.3,0.7-0.8,0.7l-5.3-0.2l-0.5,10.5l5.9-0.3c0.5,0,0.7,0.2,0.7,0.6L93,70.1c0,0.1,0,0.2-0.1,0.3c0,0.1-0.1,0.2-0.2,0.2
			c-0.1,0.1-0.2,0.1-0.2,0.2c-0.1,0-0.2,0.1-0.3,0.1L81.1,72c-0.5,0-0.7-0.2-0.7-0.7L81.6,35c0-0.5,0.3-0.7,0.8-0.6l12,2.3
			c0.5,0.1,0.8,0.4,0.7,0.8L94.8,41.8z"/>
		<path class="st3" d="M32.7,33.9l-0.2-1.2l0.7-1c1.1-1.5,1.6-2.4,1.4-3.1c-0.1-0.5-0.5-0.8-1.1-0.7c-0.5,0.1-1,0.5-1.3,0.8
			l-0.8-1.3c0.4-0.5,1.2-1,2.1-1.2c1.5-0.3,2.5,0.4,2.8,1.8c0.2,1.1-0.3,2.2-1,3l-0.5,0.7v0l2.2-0.4l0.3,1.6L32.7,33.9z"/>
		<path class="st3" d="M43.1,28.2c0.4,2.1-0.1,3.8-1.8,4.1c-1.8,0.4-2.9-1.3-3.2-3.1c-0.4-1.9,0-3.8,1.8-4.1
			C41.7,24.7,42.7,26.4,43.1,28.2L43.1,28.2z M39.8,28.9c0.3,1.5,0.7,2.1,1.2,2c0.5-0.1,0.6-0.8,0.3-2.3c-0.3-1.5-0.7-2.1-1.2-2
			C39.7,26.6,39.5,27.3,39.8,28.9L39.8,28.9z"/>
		<path class="st3" d="M45,31.5l-0.2-1.2l0.7-1c1.1-1.5,1.6-2.4,1.4-3.1c-0.1-0.5-0.5-0.8-1.1-0.7c-0.5,0.1-1,0.5-1.3,0.8l-0.8-1.3
			c0.4-0.5,1.2-1,2.1-1.2c1.5-0.3,2.5,0.4,2.8,1.8c0.2,1.1-0.3,2.2-1,3l-0.5,0.7v0l2.2-0.4l0.3,1.6L45,31.5L45,31.5z"/>
		<path class="st3" d="M44.7,92.6h2.1v0.6H44v-4.7h0.7V92.6z"/>
		<path class="st3" d="M50.1,89.1h-2v1.4H50v0.6h-1.9v1.5h2v0.6h-2.7v-4.7h2.7V89.1z"/>
		<path class="st3" d="M53.1,89.5C52.7,89.2,52.3,89,52,89c-0.4,0-0.7,0.2-0.7,0.6c0,0.9,2,0.9,2,2.4c0,0.7-0.6,1.3-1.3,1.3
			c-0.5,0-0.9-0.1-1.3-0.4V92c0.3,0.4,0.8,0.7,1.2,0.7c0.5,0,0.8-0.3,0.8-0.6c0-1-2-1.1-2-2.4c0-0.8,0.6-1.3,1.4-1.3
			c0.4,0,0.7,0.1,1,0.3L53.1,89.5L53.1,89.5z"/>
		<path class="st3" d="M60.3,93.2h-0.7v-3.6h0l-1.4,1.8H58l-1.4-1.8h0v3.6h-0.7v-4.7h0.6l1.6,1.9l1.6-1.9h0.6V93.2z"/>
		<path class="st3" d="M63.9,89.1h-2v1.4h1.9v0.6h-1.9v1.5h2v0.6h-2.7v-4.7h2.7V89.1z"/>
		<path class="st3" d="M65.4,88.5h-0.7v4.7h0.7V88.5z"/>
		<path class="st3" d="M67.1,92.6h2.1v0.6h-2.8v-4.7h0.7V92.6z"/>
		<path class="st3" d="M70.4,92.6h2.1v0.6h-2.8v-4.7h0.7V92.6z"/>
		<path class="st3" d="M75.8,89.1h-2v1.4h1.9v0.6h-1.9v1.5h2v0.6h-2.7v-4.7h2.7V89.1z"/>
		<path class="st3" d="M80.5,91.3c0,1.1-0.7,1.9-2.1,1.9c-1,0-2-0.6-2-1.8v-2.9h0.7v2.8c0,0.5,0.1,0.7,0.3,1c0.3,0.3,0.6,0.4,1,0.4
			c0.5,0,0.9-0.2,1.1-0.4c0.2-0.2,0.3-0.6,0.3-1v-2.7h0.7V91.3z"/>
		<path class="st3" d="M82.6,88.5c0.9,0,1.5,0.5,1.5,1.3c0,0.5-0.3,0.9-0.8,1.1c0.4,0.3,0.7,0.7,1,1.3c0.2,0.3,0.3,0.5,0.6,0.9h-0.8
			l-0.6-1c-0.6-1-0.9-1.1-1.2-1.1h-0.3v2h-0.7v-4.7L82.6,88.5L82.6,88.5z M82.1,90.5h0.4c0.7,0,0.9-0.4,0.9-0.8
			c0-0.4-0.3-0.7-0.9-0.7h-0.4V90.5z"/>
		<path class="st3" d="M87.8,89.5C87.4,89.2,87,89,86.7,89c-0.4,0-0.7,0.2-0.7,0.6c0,0.9,2,0.9,2,2.4c0,0.7-0.6,1.3-1.3,1.3
			c-0.5,0-0.9-0.1-1.3-0.4V92c0.3,0.4,0.8,0.7,1.2,0.7c0.5,0,0.8-0.3,0.8-0.6c0-1-2-1.1-2-2.4c0-0.8,0.6-1.3,1.4-1.3
			c0.4,0,0.7,0.1,1,0.3V89.5z"/>
		<path class="st3" d="M34,95.7c1.1,0,1.6,0.7,1.6,1.4c0,0.7-0.5,1.4-1.5,1.4h-0.9v1.9h-1.2v-4.7H34z M33.1,97.7h0.5
			c0.5,0,0.7-0.2,0.7-0.5c0-0.4-0.2-0.5-0.9-0.5h-0.4V97.7z"/>
		<path class="st3" d="M39.9,100.4h-3.5v-4.7h3.4v0.9h-2.2v1h2.1v0.9h-2.1v1.1h2.3V100.4z"/>
		<path class="st3" d="M45,96.6h-1.7v3.8h-1.2v-3.8h-1.7v-0.9H45V96.6z"/>
		<path class="st3" d="M46.9,95.7h-1.2v4.7h1.2V95.7z"/>
		<path class="st3" d="M52.2,96.6h-1.7v3.8h-1.2v-3.8h-1.7v-0.9h4.6V96.6z"/>
		<path class="st3" d="M56.1,96.9c-0.7-0.3-1.1-0.4-1.5-0.4c-0.4,0-0.7,0.1-0.7,0.4c0,0.7,2.4,0.5,2.4,2.1c0,0.9-0.8,1.4-1.8,1.4
			c-0.8,0-1.2-0.2-1.7-0.5v-1c0.7,0.4,1.1,0.6,1.6,0.6c0.4,0,0.7-0.2,0.7-0.4c0-0.8-2.4-0.5-2.4-2.2c0-0.8,0.7-1.3,1.8-1.3
			c0.5,0,1,0.1,1.6,0.4L56.1,96.9L56.1,96.9z"/>
		<path class="st3" d="M62.4,100.4H59v-4.7h3.4v0.9h-2.2v1h2.1v0.9h-2.1v1.1h2.3V100.4z"/>
		<path class="st3" d="M67.6,96.6h-1.7v3.8h-1.2v-3.8H63v-0.9h4.6V96.6z"/>
		<path class="st3" d="M74.2,95.7h1v4.7h-1.2v-2.9l-1.3,1.5h-0.2l-1.3-1.5v2.9h-1.2v-4.7h1l1.5,1.7L74.2,95.7z"/>
		<path class="st3" d="M78.8,100.5c-1.7,0-2.7-1.2-2.7-2.4c0-1.1,0.9-2.4,2.7-2.4c1.8,0,2.7,1.3,2.7,2.4
			C81.4,99.3,80.4,100.5,78.8,100.5z M78.8,96.6c-0.9,0-1.5,0.6-1.5,1.4c0,0.9,0.6,1.4,1.5,1.4c0.9,0,1.5-0.6,1.5-1.4
			S79.6,96.6,78.8,96.6z"/>
		<path class="st3" d="M83.1,98.2l-1.8-2.5h1.4l1,1.5l1-1.5h1.4l-1.9,2.5v2.2h-1.2V98.2z"/>
		<path class="st3" d="M90.1,100.4h-3.5v-4.7H90v0.9h-2.2v1h2.1v0.9h-2.1v1.1h2.3V100.4z"/>
		<path class="st3" d="M95.7,100.4h-1l-2.6-3v3H91v-4.7h1.1l2.5,2.9v-2.9h1.2V100.4z"/>
		<path class="st3" d="M99.9,96.9c-0.7-0.3-1.1-0.4-1.5-0.4c-0.4,0-0.7,0.1-0.7,0.4c0,0.7,2.4,0.5,2.4,2.1c0,0.9-0.8,1.4-1.8,1.4
			c-0.8,0-1.2-0.2-1.7-0.5v-1c0.7,0.4,1.1,0.6,1.6,0.6c0.4,0,0.7-0.2,0.7-0.4c0-0.8-2.4-0.5-2.4-2.2c0-0.8,0.7-1.3,1.8-1.3
			c0.5,0,1,0.1,1.6,0.4L99.9,96.9L99.9,96.9z"/>
		<path class="st3" d="M48.8,103.5h-2v1.4h1.9v0.6h-1.9v1.5h2v0.6h-2.7v-4.7h2.7V103.5z"/>
		<path class="st3" d="M53.9,107.6h-0.7V104h0l-1.4,1.8h-0.1l-1.4-1.8h0v3.7h-0.7v-4.7h0.6l1.6,1.9l1.6-1.9h0.6V107.6z"/>
		<path class="st3" d="M56.4,102.9c1,0,1.5,0.6,1.5,1.3c0,0.7-0.5,1.3-1.6,1.3h-0.7v2h-0.7v-4.7L56.4,102.9L56.4,102.9z M55.6,105
			h0.8c0.5,0,0.8-0.3,0.8-0.7c0-0.3-0.2-0.7-0.8-0.7h-0.8V105z"/>
		<path class="st3" d="M59.1,107h2.1v0.6h-2.8v-4.7h0.7V107z"/>
		<path class="st3" d="M64.1,102.9c1.5,0,2.5,1.1,2.5,2.4c0,1.3-0.9,2.4-2.5,2.4c-1.5,0-2.5-1.1-2.5-2.4
			C61.6,104,62.6,102.9,64.1,102.9z M64.1,107.1c1.1,0,1.8-0.8,1.8-1.8c0-1-0.8-1.8-1.8-1.8c-1,0-1.8,0.8-1.8,1.8
			C62.3,106.3,63.1,107.1,64.1,107.1z"/>
		<path class="st3" d="M69.7,102.9h0.8l-1.7,2.2v2.5h-0.7v-2.5l-1.7-2.2h0.8l1.3,1.6L69.7,102.9z"/>
		<path class="st3" d="M73.7,103.5h-2v1.4h1.9v0.6h-1.9v1.5h2v0.6h-2.7v-4.7h2.7V103.5z"/>
		<path class="st3" d="M78.4,105.8c0,1.1-0.7,1.9-2.1,1.9c-1,0-2-0.6-2-1.8v-2.9h0.7v2.8c0,0.5,0.1,0.7,0.3,1c0.3,0.3,0.6,0.4,1,0.4
			c0.5,0,0.9-0.2,1.1-0.4c0.2-0.2,0.3-0.6,0.3-1v-2.7h0.7V105.8z"/>
		<path class="st3" d="M80.6,102.9c0.9,0,1.5,0.5,1.5,1.3c0,0.5-0.3,0.9-0.8,1.1c0.4,0.3,0.7,0.7,1,1.3c0.2,0.3,0.3,0.5,0.6,0.9
			h-0.8l-0.6-1c-0.6-1-0.9-1.1-1.2-1.1H80v2h-0.7v-4.7H80.6z M80,105h0.4c0.7,0,0.9-0.4,0.9-0.8c0-0.4-0.3-0.7-0.9-0.7H80V105z"/>
		<path class="st3" d="M85.7,104c-0.4-0.4-0.8-0.5-1.1-0.5c-0.4,0-0.7,0.2-0.7,0.6c0,0.9,2,0.9,2,2.4c0,0.7-0.6,1.3-1.3,1.3
			c-0.5,0-0.9-0.1-1.3-0.4v-0.9c0.3,0.4,0.8,0.7,1.2,0.7c0.5,0,0.8-0.3,0.8-0.6c0-1-2-1.1-2-2.4c0-0.8,0.6-1.2,1.4-1.2
			c0.4,0,0.7,0.1,1,0.3V104z"/>
	</g>
</g>
<path class="st3" d="M53.3,22.3l1.4,7.2l-1.7,0.3L52,24.5l-1.6,0.8L50.2,24l3-1.7L53.3,22.3z"/>
</svg>
