<svg width="171" height="169" viewBox="0 0 171 169" fill="none" xmlns="http://www.w3.org/2000/svg">
<path d="M81.9562 2.48562C83.8345 1.02381 86.4655 1.02381 88.3438 2.48562L97.7385 9.79728C99.0366 10.8075 100.736 11.1441 102.321 10.7047L113.827 7.5156C116.124 6.87874 118.561 7.88607 119.738 9.95955L125.579 20.2483C126.394 21.6841 127.842 22.6475 129.481 22.8442L141.311 24.2636C143.688 24.5489 145.564 26.4208 145.853 28.7977L147.276 40.4725C147.477 42.12 148.452 43.5727 149.9 44.3825L160.239 50.1624C162.338 51.3359 163.359 53.7954 162.707 56.1102L159.528 67.4075C159.076 69.011 159.421 70.7337 160.453 72.0406L167.752 81.2758C169.246 83.1658 169.246 85.8342 167.752 87.7242L160.453 96.9594C159.421 98.2663 159.076 99.989 159.528 101.592L162.707 112.89C163.359 115.205 162.338 117.664 160.239 118.838L149.9 124.618C148.452 125.427 147.477 126.88 147.276 128.527L145.853 140.202C145.564 142.579 143.688 144.451 141.311 144.736L129.481 146.156C127.842 146.353 126.394 147.316 125.579 148.752L119.738 159.04C118.561 161.114 116.124 162.121 113.827 161.484L102.321 158.295C100.736 157.856 99.0366 158.192 97.7385 159.203L88.3438 166.514C86.4655 167.976 83.8345 167.976 81.9562 166.514L72.5615 159.203C71.2634 158.192 69.5639 157.856 67.9788 158.295L56.4732 161.484C54.1756 162.121 51.7392 161.114 50.5621 159.04L44.7214 148.752C43.9064 147.316 42.458 146.353 40.8188 146.156L28.9889 144.736C26.6115 144.451 24.7362 142.579 24.4466 140.202L23.0241 128.527C22.8234 126.88 21.8483 125.427 20.3997 124.618L10.0607 118.838C7.96167 117.664 6.94105 115.205 7.59256 112.89L10.7723 101.592C11.2236 99.989 10.8794 98.2663 9.84657 96.9594L2.54807 87.7242C1.05442 85.8342 1.05442 83.1658 2.54807 81.2758L9.84657 72.0406C10.8794 70.7337 11.2236 69.011 10.7723 67.4075L7.59257 56.1102C6.94105 53.7954 7.96168 51.3359 10.0607 50.1624L20.3997 44.3825C21.8483 43.5727 22.8234 42.12 23.0241 40.4725L24.4466 28.7977C24.7362 26.4208 26.6115 24.5489 28.9889 24.2636L40.8188 22.8442C42.458 22.6475 43.9064 21.6841 44.7214 20.2483L50.5621 9.95955C51.7392 7.88606 54.1756 6.87874 56.4732 7.5156L67.9788 10.7047C69.5639 11.1441 71.2634 10.8075 72.5615 9.79729L81.9562 2.48562Z" fill="white"/>
<path d="M92.3092 117.748C92.4524 117.633 92.5614 117.48 92.6247 117.308C92.6879 117.135 92.703 116.949 92.6683 116.768C92.5338 116.757 92.4089 116.694 92.3191 116.593C92.2292 116.493 92.1813 116.361 92.1852 116.227C92.1794 116.153 92.1896 116.079 92.215 116.009C92.2404 115.94 92.2805 115.876 92.3325 115.824C92.3845 115.771 92.4473 115.73 92.5165 115.704C92.5857 115.678 92.6598 115.667 92.7336 115.672C93.1123 115.672 93.3473 116.057 93.3473 116.52C93.3616 116.837 93.266 117.149 93.0769 117.404C92.8878 117.658 92.6166 117.84 92.3092 117.918V117.748Z" fill="#001464"/>
<path opacity="0.8" d="M72.5849 48.0045L78.3827 47.1688C78.5099 47.148 78.6402 47.1553 78.7643 47.1903C78.8883 47.2252 79.0033 47.287 79.1009 47.3712C79.2938 47.5276 79.448 47.7265 79.5514 47.9523L84.964 71.9923V37.5058L39.6719 45.9936L45.8157 97.0378L48.7538 97.4491C48.7864 97.1292 48.7995 96.7962 48.7995 96.7962C48.8974 97.1945 49.2696 96.7962 49.4524 96.5677C49.7144 96.0152 49.9201 95.4378 50.0661 94.844C50.138 94.609 50.6668 93.5382 50.6668 93.5382C50.1118 94.5306 50.5493 95.6144 50.8366 96.2282C51.1238 96.8419 51.6266 96.0649 51.6266 96.0649C51.4896 96.3254 51.4344 96.6212 51.4681 96.9136C51.5019 97.206 51.6231 97.4814 51.8159 97.7037C52.1032 97.9061 53.0303 96.5155 53.0303 96.5155C52.8517 96.9749 52.7332 97.4555 52.6778 97.9453L57.901 98.6766C58.4233 98.4089 59.4092 97.769 59.4092 97.769C59.2329 97.9649 58.8412 98.5133 58.6323 98.7941L84.9052 102.47V89.6338L80.3349 72.1294L80.5438 93.6753C80.5438 94.3282 80.2696 94.6024 79.695 94.5567L73.7797 94.054C73.6544 94.0548 73.5303 94.029 73.4156 93.9784C73.301 93.9278 73.1984 93.8534 73.1145 93.7603C73.0306 93.6672 72.9674 93.5574 72.929 93.4381C72.8906 93.3188 72.8779 93.1927 72.8917 93.0681L71.6577 49.0557C71.6432 48.9245 71.6562 48.7918 71.6959 48.6659C71.7357 48.5401 71.8014 48.4239 71.8887 48.3249C71.976 48.2259 72.083 48.1463 72.2029 48.0911C72.3228 48.0359 72.4529 48.0065 72.5849 48.0045ZM67.4987 89.0658C67.1496 89.9729 66.616 90.7977 65.9318 91.4881C65.2536 92.1545 64.438 92.6648 63.5421 92.9832C62.5857 93.3196 61.5672 93.4422 60.5583 93.3423L58.2209 93.1399C57.1559 93.0478 56.1174 92.7577 55.1588 92.2846C54.2009 91.8299 53.3198 91.2285 52.5472 90.5022C51.7938 89.7982 51.1608 88.9755 50.6733 88.0668C50.185 87.1848 49.8849 86.211 49.7919 85.2071L49.2827 79.6705C49.263 79.5543 49.2666 79.4353 49.2931 79.3205C49.3196 79.2056 49.3686 79.0972 49.4371 79.0013C49.5057 78.9055 49.5925 78.8241 49.6926 78.7619C49.7927 78.6997 49.9041 78.6579 50.0204 78.6389L55.7203 77.2221C56.2687 77.0589 56.556 77.2221 56.5952 77.8162L57.111 85.2136C57.1372 85.6152 57.3201 85.9903 57.6203 86.2583C57.9125 86.5452 58.3013 86.7129 58.7106 86.7284H59.2134C59.4025 86.744 59.5928 86.7183 59.7709 86.6529C59.9491 86.5874 60.1108 86.484 60.2449 86.3497C60.3804 86.2192 60.4848 86.0599 60.5504 85.8836C60.6159 85.7073 60.641 85.5185 60.6236 85.3312L60.1405 77.2351C60.0829 76.7534 59.9689 76.2801 59.801 75.8249C59.6287 75.391 59.3394 75.0136 58.9653 74.7345L50.1445 69.1456C49.537 68.7332 49.0121 68.2106 48.5971 67.6048C48.2261 66.9609 48.0135 66.2381 47.9768 65.4959L47.3239 58.5816C47.23 57.5915 47.3732 56.5933 47.7418 55.6696C48.118 54.7219 48.6695 53.8536 49.3675 53.1103C50.1233 52.3169 51.0059 51.655 51.9792 51.1515C53.0086 50.5999 54.1267 50.2331 55.2829 50.0677L57.8945 49.689C59.018 49.5167 60.1642 49.5632 61.27 49.8261C62.2848 50.0662 63.2401 50.5105 64.0775 51.1319C64.9023 51.7624 65.5759 52.569 66.0492 53.493C66.5225 54.417 66.7835 55.435 66.8132 56.4727L66.9111 58.9015C66.938 59.1689 66.8714 59.4374 66.7225 59.6612C66.5737 59.885 66.352 60.0503 66.095 60.129L60.1013 62.1595C59.5333 62.3685 59.2395 62.1922 59.2003 61.6176L58.9653 57.6284C58.951 57.4408 58.8963 57.2584 58.8051 57.0939C58.7138 56.9294 58.588 56.7865 58.4364 56.6751C58.2715 56.5497 58.0831 56.4585 57.8824 56.4069C57.6817 56.3553 57.4727 56.3444 57.2677 56.3748L56.7258 56.4335C56.2985 56.4764 55.9014 56.6737 55.6093 56.9885C55.4697 57.1291 55.3619 57.298 55.2932 57.4839C55.2245 57.6698 55.1964 57.8682 55.211 58.0658L55.5897 63.5372C55.6511 63.926 55.7676 64.3042 55.9358 64.6602C56.1308 65.0178 56.4002 65.3294 56.7258 65.5742L65.6249 71.1892C66.2487 71.6365 66.735 72.2494 67.0286 72.9586C67.2625 73.6285 67.4309 74.3194 67.5314 75.0218L67.9688 86.0037C68.025 87.0459 67.8649 88.0884 67.4987 89.0658Z" fill="#001464"/>
<path d="M59.3128 117.141C58.6682 116.729 57.9227 116.503 57.1582 116.488C56.8366 116.473 56.5154 116.523 56.214 116.636C55.9126 116.75 55.6375 116.923 55.4053 117.146C55.1732 117.369 54.9889 117.637 54.8637 117.933C54.7385 118.23 54.675 118.549 54.6771 118.871C54.6706 119.197 54.7325 119.521 54.8588 119.821C54.9852 120.122 55.1732 120.392 55.4107 120.616C55.6482 120.839 55.93 121.01 56.2377 121.118C56.5455 121.226 56.8724 121.267 57.1973 121.241C57.9744 121.218 58.7288 120.973 59.3715 120.536V121.515C58.6784 121.89 57.9002 122.079 57.1125 122.064C56.686 122.087 56.2591 122.025 55.8571 121.881C55.4552 121.736 55.0864 121.512 54.7727 121.222C54.459 120.932 54.2068 120.582 54.0311 120.193C53.8555 119.803 53.7598 119.383 53.75 118.956C53.7495 118.514 53.8388 118.076 54.0126 117.669C54.1864 117.263 54.4409 116.895 54.7609 116.59C55.0808 116.285 55.4594 116.048 55.8738 115.893C56.2881 115.739 56.7295 115.67 57.1712 115.691C57.9121 115.715 58.6404 115.888 59.3128 116.2V117.141Z" fill="#001464"/>
<path d="M66.106 121.966H65.1919L64.3627 120.124H61.7054L60.9219 121.966H60.0078L62.6847 115.691H63.3376L66.106 121.966ZM62.0579 119.354H64.0167L63.0112 117.095L62.0579 119.354Z" fill="#001464"/>
<path d="M72.5556 121.985H71.7917L67.6196 117.186V121.985H66.7773V115.756H67.489L71.7133 120.581V115.756H72.5556V121.985Z" fill="#001464"/>
<path d="M79.3403 121.966H78.4263L77.5971 120.124H74.9463L74.1563 121.966H73.2422L75.9191 115.691H76.572L79.3403 121.966ZM75.2923 119.354H77.251L76.2456 117.095L75.2923 119.354Z" fill="#001464"/>
<path d="M80.0312 115.756H82.4535C82.8806 115.724 83.3098 115.78 83.7139 115.923C84.1179 116.065 84.488 116.289 84.8005 116.582C85.1131 116.875 85.3612 117.23 85.5293 117.624C85.6974 118.018 85.7817 118.442 85.7768 118.871C85.7695 119.293 85.6772 119.71 85.5055 120.097C85.3338 120.483 85.0862 120.831 84.7774 121.12C84.4686 121.408 84.1049 121.632 83.7079 121.777C83.311 121.923 82.8888 121.987 82.4666 121.966H80.0312V115.756ZM80.9323 121.182H82.3556C82.675 121.211 82.997 121.173 83.3006 121.07C83.6043 120.967 83.8828 120.801 84.1181 120.583C84.3533 120.365 84.5401 120.099 84.6661 119.805C84.7922 119.51 84.8547 119.191 84.8497 118.871C84.8497 117.617 84.0597 116.559 82.3099 116.559H80.9323V121.182Z" fill="#001464"/>
<path d="M91.7935 121.966H90.8794L90.0502 120.124H87.3929L86.6094 121.966H85.6953L88.3722 115.691H89.0251L91.7935 121.966ZM87.7389 119.354H89.6976L88.6921 117.095L87.7389 119.354Z" fill="#001464"/>
<path d="M97.4404 117.128C97.0585 116.725 96.5326 116.49 95.9779 116.475C95.4033 116.475 94.992 116.775 94.992 117.219C94.992 118.414 97.6885 118.394 97.6885 120.379C97.6924 120.607 97.6493 120.834 97.562 121.045C97.4746 121.255 97.3449 121.446 97.1808 121.605C97.0167 121.763 96.8218 121.886 96.6081 121.966C96.3944 122.047 96.1666 122.082 95.9387 122.07C95.309 122.084 94.6938 121.881 94.1954 121.496V120.36C94.3801 120.628 94.625 120.85 94.9107 121.008C95.1963 121.166 95.5148 121.254 95.8408 121.267C96.5328 121.267 96.8528 120.83 96.8528 120.477C96.8528 119.171 94.1562 119.047 94.1562 117.337C94.1562 116.318 94.9071 115.672 96.0497 115.672C96.5466 115.675 97.0311 115.827 97.4404 116.109V117.128Z" fill="#001464"/>
<path d="M104.743 116.56H102.588V121.985H101.694V116.56H99.5391V115.756H104.743V116.56Z" fill="#001464"/>
<path d="M108.066 115.672C108.692 115.7 109.295 115.911 109.802 116.279C110.309 116.647 110.697 117.156 110.917 117.743C111.137 118.329 111.181 118.968 111.041 119.578C110.902 120.189 110.587 120.746 110.134 121.179C109.681 121.612 109.112 121.903 108.495 122.015C107.879 122.127 107.243 122.056 106.667 121.81C106.091 121.565 105.599 121.155 105.254 120.632C104.908 120.11 104.723 119.497 104.723 118.871C104.719 118.437 104.803 118.007 104.972 117.608C105.14 117.208 105.389 116.848 105.702 116.548C106.015 116.248 106.386 116.016 106.793 115.865C107.2 115.714 107.633 115.648 108.066 115.672ZM108.066 121.247C108.534 121.238 108.989 121.091 109.373 120.825C109.758 120.558 110.056 120.184 110.229 119.749C110.401 119.314 110.442 118.838 110.345 118.38C110.248 117.922 110.019 117.503 109.684 117.175C109.35 116.847 108.927 116.625 108.467 116.537C108.007 116.449 107.532 116.499 107.1 116.68C106.669 116.861 106.3 117.166 106.041 117.555C105.782 117.945 105.643 118.403 105.643 118.871C105.639 119.188 105.699 119.503 105.819 119.796C105.94 120.09 106.119 120.356 106.346 120.578C106.572 120.8 106.841 120.974 107.137 121.089C107.433 121.204 107.749 121.258 108.066 121.247Z" fill="#001464"/>
<path d="M114.417 115.756C115.782 115.756 116.376 116.559 116.376 117.545C116.376 118.531 115.723 119.289 114.273 119.289H113.34V121.966H112.445V115.73L114.417 115.756ZM113.366 118.486H114.378C115.031 118.486 115.475 118.133 115.475 117.506C115.475 117.049 115.233 116.559 114.417 116.559H113.366V118.486Z" fill="#001464"/>
<path d="M47.9138 126.967C47.3071 126.646 46.6397 126.457 45.9551 126.412C45.4001 126.412 45.041 126.614 45.041 126.921C45.041 127.868 48.2142 127.574 48.2142 129.774C48.2142 130.976 47.2087 131.668 45.818 131.668C45.0279 131.682 44.2497 131.474 43.572 131.067V129.722C44.1764 130.212 44.923 130.494 45.7005 130.525C46.2946 130.525 46.6145 130.316 46.6145 129.951C46.6145 128.926 43.4414 129.298 43.4414 127.058C43.4414 125.981 44.3751 125.269 45.818 125.269C46.5496 125.277 47.2712 125.441 47.9334 125.753L47.9138 126.967Z" fill="#001464"/>
<path d="M54.5752 125.348H55.9267V131.589H54.3728V127.692L52.6883 129.65H52.4533L50.7688 127.692V131.589H49.2148V125.348H50.5664L52.5708 127.665L54.5752 125.348Z" fill="#001464"/>
<path d="M63.7168 131.59H62.0454L61.5296 130.356H58.7417L58.2781 131.59H56.6328L59.1465 125.354H60.9681L63.7168 131.59ZM60.0671 126.843L59.153 129.265H61.0726L60.0671 126.843Z" fill="#001464"/>
<path d="M69.1907 131.589H64.4375V125.348H65.9914V130.44H69.1907V131.589Z" fill="#001464"/>
<path d="M74.8118 131.589H70.0586V125.348H71.6125V130.44H74.8118V131.589Z" fill="#001464"/>
<path d="M84.1663 128.351C83.8936 129.058 83.4651 129.694 82.9128 130.212L84.1663 131.589H82.2729L81.8159 131.093C81.2333 131.472 80.5522 131.672 79.8572 131.668C78.7276 131.668 77.8984 130.963 77.8984 130.023C77.8984 129.311 78.3359 128.717 79.2957 128.26C78.955 127.876 78.7548 127.388 78.7276 126.875C78.7421 126.642 78.8038 126.415 78.909 126.206C79.0142 125.997 79.1607 125.812 79.3397 125.662C79.5186 125.512 79.7262 125.4 79.9498 125.332C80.1735 125.265 80.4085 125.243 80.6406 125.269C81.6983 125.269 82.4427 125.883 82.4427 126.751C82.4082 127.097 82.2825 127.428 82.0782 127.709C81.874 127.99 81.5987 128.211 81.2805 128.351L82.1293 129.33C82.4128 129.04 82.6525 128.71 82.8409 128.351H84.1663ZM79.9877 129.063C79.5503 129.35 79.3348 129.611 79.3348 129.905C79.345 130.105 79.4324 130.293 79.5786 130.429C79.7248 130.566 79.9184 130.64 80.1183 130.636C80.4645 130.614 80.7973 130.494 81.0781 130.29L79.9877 129.063ZM81.2087 126.823C81.208 126.75 81.1923 126.678 81.1626 126.612C81.1328 126.545 81.0895 126.486 81.0356 126.436C80.9816 126.387 80.9181 126.35 80.849 126.327C80.7799 126.303 80.7068 126.295 80.6341 126.301C80.5648 126.293 80.4945 126.299 80.4276 126.319C80.3607 126.338 80.2985 126.372 80.2448 126.416C80.1911 126.461 80.147 126.516 80.1151 126.578C80.0833 126.64 80.0644 126.708 80.0596 126.778C80.1284 127.109 80.3166 127.404 80.5884 127.607C81.0389 127.346 81.2413 127.124 81.2413 126.823" fill="#001464"/>
<path d="M92.9749 125.348H94.3264V131.589H92.7725V127.692L91.0946 129.65H90.853L89.175 127.692V131.589H87.6211V125.348H88.9726L90.977 127.665L92.9749 125.348Z" fill="#001464"/>
<path d="M100.326 131.589H95.7227V125.348H100.26V126.49H97.2831V127.803H100.123V128.945H97.2831V130.44H100.326V131.589Z" fill="#001464"/>
<path d="M104.257 125.354C106.535 125.354 107.704 126.771 107.704 128.475C107.704 130.179 106.568 131.59 104.08 131.59H101.469V125.354H104.257ZM103.055 130.453H104.061C104.58 130.453 105.078 130.247 105.446 129.88C105.813 129.512 106.02 129.014 106.02 128.495C106.02 127.975 105.813 127.477 105.446 127.11C105.078 126.742 104.58 126.536 104.061 126.536H103.062L103.055 130.453Z" fill="#001464"/>
<path d="M110.452 125.348H108.898V131.583H110.452V125.348Z" fill="#001464"/>
<path d="M118.067 125.354V128.886C118.067 130.956 116.664 131.668 114.953 131.668C113.144 131.668 111.832 130.826 111.832 128.9V125.354H113.386V128.932C113.381 129.132 113.419 129.33 113.497 129.514C113.574 129.698 113.69 129.863 113.836 129.999C113.983 130.134 114.156 130.238 114.345 130.301C114.534 130.365 114.735 130.388 114.933 130.369C115.143 130.39 115.354 130.366 115.553 130.296C115.752 130.227 115.933 130.115 116.084 129.968C116.235 129.821 116.352 129.643 116.426 129.446C116.5 129.249 116.53 129.038 116.513 128.828V125.354H118.067Z" fill="#001464"/>
<path d="M124.768 125.348H126.126V131.589H124.572V127.692L122.888 129.65H122.652L120.968 127.692V131.589H119.414V125.348H120.766L122.77 127.665L124.768 125.348Z" fill="#001464"/>
<path d="M65.402 135.755H62.7578V137.635H65.3106V138.438H62.7578V140.377H65.4869V141.181H61.8633V134.945H65.402V135.755Z" fill="#001464"/>
<path d="M72.2354 141.181H71.3409V136.329H71.3213L69.4017 138.745H69.2516L67.332 136.329H67.319V141.181H66.418V134.945H67.2602L69.3299 137.505L71.4062 134.945H72.2354V141.181Z" fill="#001464"/>
<path d="M75.4769 134.952C76.835 134.952 77.4356 135.755 77.4356 136.741C77.4356 137.727 76.7827 138.484 75.3333 138.484H74.4257V141.187H73.5312V134.952H75.4769ZM74.4257 137.681H75.4377C76.0906 137.681 76.5346 137.328 76.5346 136.702C76.5346 136.245 76.2865 135.755 75.4769 135.755H74.4257V137.681Z" fill="#001464"/>
<path d="M79.121 140.377H81.9416V141.181H78.2266V134.945H79.121V140.377Z" fill="#001464"/>
<path d="M85.7844 134.867C86.4103 134.895 87.0141 135.106 87.521 135.475C88.0279 135.843 88.4155 136.352 88.6358 136.938C88.856 137.525 88.8993 138.163 88.7601 138.774C88.6209 139.385 88.3054 139.941 87.8528 140.374C87.4002 140.807 86.8303 141.098 86.214 141.21C85.5976 141.323 84.9619 141.252 84.3856 141.006C83.8093 140.76 83.3179 140.35 82.9723 139.828C82.6268 139.305 82.4422 138.693 82.4416 138.066C82.4374 137.633 82.5221 137.203 82.6905 136.803C82.8588 136.404 83.1073 136.043 83.4206 135.743C83.7338 135.443 84.1052 135.211 84.5118 135.06C84.9183 134.91 85.3515 134.844 85.7844 134.867ZM85.7844 140.443C86.2524 140.434 86.7073 140.287 87.0921 140.02C87.4769 139.754 87.7744 139.379 87.9473 138.944C88.1201 138.51 88.1607 138.033 88.0639 137.575C87.9671 137.117 87.7373 136.698 87.4031 136.37C87.069 136.042 86.6455 135.821 86.1858 135.733C85.7261 135.644 85.2506 135.694 84.819 135.875C84.3874 136.056 84.0189 136.361 83.7597 136.751C83.5005 137.141 83.3622 137.598 83.3622 138.066C83.3576 138.383 83.4174 138.698 83.5381 138.992C83.6588 139.285 83.8378 139.551 84.0643 139.773C84.2908 139.996 84.56 140.169 84.8557 140.285C85.1514 140.4 85.4673 140.453 85.7844 140.443Z" fill="#001464"/>
<path d="M93.264 134.945H94.3478L92.03 137.89V141.181H91.1355V137.883L88.8242 134.945H89.9015L91.573 137.1L93.264 134.945Z" fill="#001464"/>
<path d="M98.5622 135.755H95.9245V137.635H98.4708V138.438H95.9245V140.377H98.6471V141.181H95.0234V134.945H98.5622V135.755Z" fill="#001464"/>
<path d="M101.187 134.952C102.453 134.952 103.237 135.605 103.237 136.695C103.25 137.028 103.155 137.357 102.967 137.632C102.779 137.907 102.507 138.114 102.192 138.223C102.778 138.688 103.253 139.276 103.583 139.947C103.851 140.378 104.007 140.6 104.432 141.187H103.367L102.538 139.882C101.722 138.576 101.343 138.458 100.886 138.458H100.514V141.168H99.6133V134.932L101.187 134.952ZM100.534 137.675H101.108C102.068 137.675 102.342 137.178 102.329 136.656C102.316 136.134 101.977 135.716 101.108 135.716H100.534V137.675Z" fill="#001464"/>
<path d="M108.081 136.33C107.699 135.927 107.173 135.693 106.618 135.677C106.044 135.677 105.633 135.977 105.633 136.421C105.633 137.616 108.329 137.596 108.329 139.581C108.332 139.809 108.288 140.035 108.201 140.245C108.113 140.456 107.983 140.646 107.819 140.804C107.655 140.963 107.461 141.086 107.248 141.166C107.034 141.247 106.807 141.283 106.579 141.272C105.95 141.285 105.334 141.083 104.836 140.697V139.561C105.021 139.83 105.266 140.052 105.551 140.21C105.837 140.367 106.155 140.456 106.481 140.469C107.173 140.469 107.493 140.031 107.493 139.679C107.493 138.373 104.797 138.249 104.797 136.538C104.797 135.52 105.548 134.874 106.69 134.874C107.187 134.877 107.672 135.029 108.081 135.311V136.33Z" fill="#001464"/>
<path d="M123.357 104.912C123.612 104.908 123.866 104.957 124.101 105.055C124.569 105.254 124.941 105.626 125.14 106.094C125.238 106.329 125.287 106.582 125.283 106.838C125.275 107.173 125.18 107.5 125.009 107.788C124.838 108.077 124.595 108.316 124.305 108.484C124.015 108.651 123.687 108.742 123.351 108.746C123.016 108.751 122.685 108.669 122.391 108.509C122.101 108.337 121.858 108.094 121.686 107.804C121.516 107.511 121.426 107.178 121.426 106.839C121.426 106.5 121.515 106.168 121.684 105.874C121.854 105.581 122.098 105.337 122.391 105.168C122.685 104.999 123.018 104.911 123.357 104.912ZM123.357 105.284C123.084 105.283 122.816 105.355 122.58 105.493C122.342 105.626 122.146 105.823 122.012 106.061C121.875 106.297 121.803 106.565 121.803 106.838C121.803 107.111 121.875 107.379 122.012 107.615C122.149 107.85 122.345 108.046 122.58 108.183C122.817 108.318 123.085 108.388 123.357 108.385C123.631 108.39 123.9 108.317 124.134 108.176C124.364 108.043 124.555 107.853 124.69 107.624C124.825 107.395 124.899 107.136 124.905 106.87C124.905 106.595 124.833 106.325 124.696 106.087C124.561 105.854 124.367 105.66 124.134 105.525C123.904 105.377 123.638 105.294 123.364 105.284H123.357ZM122.9 107.896H122.482V105.852H123.449C123.579 105.845 123.709 105.87 123.827 105.924C123.926 105.963 124.009 106.034 124.062 106.126C124.116 106.219 124.143 106.325 124.141 106.433C124.141 106.572 124.087 106.706 123.99 106.805C123.885 106.917 123.74 106.985 123.586 106.995C123.67 107.023 123.745 107.075 123.801 107.145C123.886 107.25 123.961 107.364 124.023 107.484L124.265 107.896H123.749L123.579 107.563C123.519 107.45 123.451 107.341 123.377 107.236C123.335 107.176 123.279 107.127 123.214 107.092C123.148 107.064 123.076 107.051 123.005 107.053H122.9V107.896ZM122.9 106.172V106.727H123.233C123.351 106.733 123.47 106.713 123.579 106.668C123.62 106.645 123.653 106.61 123.674 106.568C123.695 106.527 123.703 106.479 123.697 106.433C123.698 106.395 123.688 106.358 123.67 106.324C123.652 106.291 123.625 106.263 123.592 106.244C123.495 106.19 123.384 106.165 123.272 106.172H122.9Z" fill="#001464"/>
<path opacity="0.5" d="M60.8268 105.264C60.4687 105.343 60.0992 105.357 59.7364 105.303C59.534 105.245 58.9007 105.029 58.6591 104.99C58.4176 104.951 57.5818 104.827 57.5035 104.461C57.4251 104.096 57.7385 103.808 57.954 103.567C58.1695 103.325 58.8093 102.548 59.3839 102.457L59.6385 102.424H59.4034L59.6646 102.378C59.6646 102.378 58.0193 102.568 57.9997 102.137C57.9808 101.85 58.0477 101.564 58.1919 101.315C58.3361 101.066 58.551 100.866 58.8093 100.74C58.8093 100.74 58.0258 100.857 58.1107 100.243C58.1988 99.7299 58.4068 99.2445 58.7179 98.8266C58.9268 98.5458 59.3186 97.9974 59.4949 97.8015C59.4949 97.8015 58.509 98.4544 57.9866 98.709C57.4643 98.9702 56.7592 99.2183 56.6155 99.2836C56.4719 99.3489 55.2575 99.8451 55.4142 98.9506C55.2787 99.2423 55.0956 99.5093 54.8723 99.7406C54.474 100.165 53.5338 101.007 53.2661 100.909C52.9984 100.811 52.783 100.4 52.6981 99.7341C52.6275 99.2229 52.6275 98.7044 52.6981 98.1933C52.6981 98.1345 52.6981 98.0561 52.6981 97.9778C52.7523 97.4871 52.8731 97.006 53.0572 96.5479C53.0572 96.5479 52.1235 97.9386 51.8363 97.7362C51.6435 97.5138 51.5223 97.2384 51.4885 96.9461C51.4547 96.6537 51.5099 96.3579 51.6469 96.0974C51.6469 96.0974 51.1442 96.8809 50.8569 96.2606C50.5696 95.6404 50.1322 94.5631 50.6872 93.5707C50.6872 93.5707 50.1583 94.6153 50.0865 94.8765C49.9404 95.4702 49.7348 96.0477 49.4727 96.6002C49.2703 96.8287 48.8982 97.2531 48.8198 96.8287C48.8198 96.8287 48.8198 97.129 48.7741 97.4816C48.7602 97.703 48.7208 97.9221 48.6566 98.1345C48.5456 98.4087 48.5195 98.8853 48.2779 99.0224C48.1917 99.0856 48.0914 99.1266 47.9857 99.1419C47.8799 99.1572 47.7721 99.1463 47.6715 99.1102C47.571 99.0741 47.4808 99.0139 47.409 98.9349C47.3371 98.8558 47.2858 98.7603 47.2594 98.6568C47.2594 98.6568 47.625 99.5905 47.7425 99.9626C47.9432 100.563 48.0832 101.182 48.1604 101.81C48.1604 102.398 48.2388 103.038 47.9841 103.201C47.7295 103.364 46.724 103.299 46.5543 102.933C46.5543 102.933 46.5543 103.488 46.2996 103.541C46.1058 103.592 45.916 103.658 45.7316 103.736C45.4413 103.69 45.1683 103.568 44.9393 103.384C44.7103 103.2 44.5333 102.959 44.4258 102.685C44.5275 103.098 44.7022 103.489 44.9416 103.841C45.3072 104.337 45.3725 104.572 45.5945 104.892C45.8165 105.212 46.058 105.656 45.9144 105.767C45.9144 105.767 46.3257 105.708 46.6783 106.42C47.0309 107.132 46.9591 107.889 46.3714 108.098C46.3714 108.098 46.2735 108.228 46.6 108.163C47.0056 108.02 47.4479 108.02 47.8535 108.163C48.3302 108.385 49.0549 108.646 49.0418 109.097C48.9848 109.787 48.8557 110.47 48.6566 111.134C48.5346 111.437 48.3791 111.727 48.193 111.996C48.0757 112.1 47.9514 112.196 47.8209 112.283C48.1409 112.227 48.4483 112.114 48.7284 111.95C49.0773 111.706 49.4662 111.525 49.8775 111.415C50.2693 111.297 50.5305 111.069 50.8112 111.18C51.092 111.291 51.4053 111.317 51.4641 111.761C51.63 111.34 51.9338 110.987 52.3259 110.762C52.8744 110.553 52.9266 110.239 53.4555 110.501C53.9843 110.762 53.8799 110.572 54.2716 110.925C54.6633 111.277 55.2314 111.846 55.2314 111.846C55.081 111.577 54.9501 111.297 54.8396 111.01C54.7226 110.753 54.6287 110.487 54.5589 110.213C54.5197 109.939 54.4936 109.6 54.4609 109.436C54.4132 109.268 54.3521 109.105 54.2781 108.947L54.1149 108.738C54.1149 108.738 57.0008 111.754 60.3371 113.04L60.4416 112.747C60.4416 112.747 49.1463 108.255 50.0212 97.6252C50.0212 97.462 50.0212 97.3053 50.0604 97.1355C50.0995 96.9658 50.0995 96.7569 50.0995 96.7569C50.0995 96.8809 50.0995 97.005 50.0604 97.1355C50.0212 97.2661 50.0604 97.4359 50.0604 97.6318C49.9863 99.7435 50.3887 101.845 51.2375 103.78C52.0863 105.715 53.3599 107.434 54.9637 108.81C54.9637 108.81 54.8723 108.679 55.1987 108.901C55.5252 109.123 55.4925 109.136 55.7733 109.208C56.0472 109.266 56.3175 109.34 56.5829 109.43C56.8365 109.495 57.0818 109.59 57.3141 109.711C57.4447 109.81 57.5942 109.883 57.7536 109.923C57.913 109.964 58.0789 109.971 58.2413 109.946C58.2413 109.946 57.066 109.515 56.9355 108.64C56.8976 108.593 56.8716 108.537 56.8597 108.478C56.8477 108.418 56.8501 108.357 56.8668 108.299C56.8834 108.241 56.9137 108.187 56.9552 108.143C56.9967 108.099 57.0481 108.066 57.1052 108.046C57.9338 107.714 58.826 107.571 59.7168 107.628C59.7168 107.628 58.6657 107.406 59.0052 107.092C59.3447 106.779 59.6973 106.439 59.9454 106.257C60.2842 106.014 60.6398 105.796 61.0096 105.604C61.4019 105.415 61.7342 105.121 61.9694 104.755C61.6337 105.012 61.2423 105.186 60.8268 105.264Z" fill="#001464"/>
<path opacity="0.6" d="M84.9648 28.6V72.0183L90.841 42.7681C90.8147 42.6368 90.8295 42.5006 90.8832 42.378C90.9369 42.2554 91.027 42.1522 91.1413 42.0825C91.2429 41.992 91.3646 41.927 91.4963 41.893C91.628 41.8589 91.766 41.8567 91.8987 41.8867L98.0099 43.0554C98.1529 43.0716 98.2912 43.1159 98.417 43.1858C98.5428 43.2557 98.6534 43.3498 98.7427 43.4627C98.8319 43.5756 98.8979 43.7051 98.9368 43.8436C98.9758 43.9821 98.987 44.1269 98.9697 44.2698L97.9707 93.2377C97.9881 93.3749 97.9766 93.5141 97.937 93.6465C97.8974 93.7789 97.8306 93.9016 97.7409 94.0067C97.6512 94.1118 97.5405 94.197 97.4159 94.2569C97.2913 94.3167 97.1556 94.3499 97.0175 94.3542L90.6321 95.0071C89.9792 95.0724 89.6984 94.746 89.7049 94.0343L89.8747 69.8768L84.9648 89.6794V110.148L125.341 103.208L130.002 39.5493L84.9648 28.6ZM122.67 54.3245C122.638 54.9122 122.285 55.1603 121.619 55.0623L113.529 53.8871L113.092 63.5044L120.013 64.1116C120.666 64.1638 120.973 64.4903 120.933 65.0844L120.587 70.7321C120.548 71.3262 120.209 71.607 119.562 71.5874L112.733 71.3262L112.08 85.0372L119.771 84.652C120.424 84.652 120.698 84.9001 120.659 85.4878L120.3 91.0962C120.303 91.2261 120.279 91.3552 120.23 91.4757C120.182 91.5962 120.109 91.7055 120.017 91.7971C119.925 91.8886 119.815 91.9605 119.694 92.0084C119.573 92.0563 119.444 92.0791 119.314 92.0756L104.865 93.5577C104.213 93.6164 103.945 93.3226 103.964 92.6697L105.42 45.4646C105.42 44.8117 105.786 44.544 106.459 44.6746L122.056 47.6584C122.709 47.7889 123.042 48.1415 123.003 48.7357L122.67 54.3245Z" fill="#001464"/>
<path d="M41.8651 44.0866L41.5648 42.5523L42.5049 41.2139C43.8825 39.2618 44.555 38.1518 44.3853 37.2051C44.2547 36.5392 43.7715 36.154 42.9228 36.3172C42.2307 36.4543 41.6758 36.957 41.284 37.3945L40.3047 35.697C40.8466 35.0637 41.8129 34.4238 43.0077 34.1888C44.9402 33.8101 46.3113 34.7437 46.6573 36.5523C46.9446 38.0213 46.2199 39.3858 45.4038 40.4565L44.7248 41.3379V41.3641L47.6432 40.796L48.048 42.8853L41.8651 44.0866Z" fill="#001464"/>
<path d="M55.389 36.6894C55.9113 39.3858 55.2715 41.6448 53.0321 42.0822C50.649 42.5458 49.3106 40.3913 48.847 37.9951C48.3639 35.5142 48.8601 33.0593 51.217 32.6023C53.6393 32.1322 54.9385 34.352 55.389 36.6959V36.6894ZM51.1452 37.5316C51.5174 39.5229 52.0658 40.2933 52.686 40.1758C53.2736 40.0583 53.4695 39.1312 53.0843 37.1594C52.7056 35.2269 52.1898 34.4042 51.5892 34.5218C50.9885 34.6393 50.7665 35.5468 51.1517 37.5316H51.1452Z" fill="#001464"/>
<path d="M57.8417 40.9788L57.5413 39.4445L58.4815 38.1061C59.8591 36.154 60.5316 35.044 60.3618 34.0974C60.2312 33.4314 59.7416 33.0462 58.8993 33.2094C58.2073 33.3465 57.6523 33.8493 57.2606 34.2867L56.2812 32.5892C56.8231 31.9559 57.7894 31.316 58.9842 31.081C60.9168 30.7023 62.2879 31.636 62.6339 33.4445C62.9212 34.9135 62.203 36.278 61.3803 37.3488L60.7013 38.2302V38.2563L63.6197 37.6883L64.0245 39.7775L57.8482 40.9788H57.8417Z" fill="#001464"/>
<path d="M65.7436 36.957C66.1288 37.0876 67.0298 37.277 67.8263 37.1203C68.649 36.9636 69.1256 36.5327 68.995 35.8798C68.8514 35.1355 68.0744 34.92 67.304 35.0637L66.4422 35.2334L66.0896 33.4314L66.9123 33.2747C67.4868 33.1637 68.1789 32.8242 68.0549 32.1909C67.9634 31.7274 67.5064 31.4923 66.7752 31.636C66.0831 31.7731 65.4041 32.2366 65.1103 32.5043L64.3203 30.7676C64.7773 30.2976 65.7763 29.7687 66.9319 29.5402C68.7796 29.1811 70.0527 29.9907 70.3073 31.2965C70.4967 32.2693 70.1572 33.1115 69.2039 33.7056V33.7318C70.229 33.7252 71.1887 34.3847 71.4172 35.5729C71.7437 37.2508 70.5685 38.6676 68.4009 39.0855C67.2583 39.3075 66.2529 39.1965 65.6718 38.9418L65.7371 36.9505L65.7436 36.957Z" fill="#001464"/>
</svg>
