<svg width="129" height="128" viewBox="0 0 129 128" fill="none" xmlns="http://www.w3.org/2000/svg">
<path d="M62.0812 1.8826C63.5038 0.775432 65.4965 0.775431 66.9191 1.8826L74.0346 7.42043C75.0178 8.1856 76.305 8.44048 77.5055 8.10771L86.2198 5.69229C87.96 5.20993 89.8054 5.97288 90.6969 7.54333L95.1206 15.336C95.7379 16.4234 96.8349 17.1531 98.0764 17.3021L107.036 18.3772C108.837 18.5932 110.257 20.011 110.477 21.8112L111.554 30.6538C111.706 31.9015 112.445 33.0018 113.542 33.6151L121.373 37.9929C122.962 38.8816 123.735 40.7445 123.242 42.4977L120.834 51.0542C120.492 52.2687 120.752 53.5734 121.535 54.5633L127.063 61.558C128.194 62.9895 128.194 65.0105 127.063 66.442L121.535 73.4367C120.752 74.4266 120.492 75.7313 120.834 76.9458L123.242 85.5023C123.735 87.2555 122.962 89.1184 121.373 90.0071L113.542 94.3849C112.445 94.9982 111.706 96.0985 111.554 97.3462L110.477 106.189C110.257 107.989 108.837 109.407 107.036 109.623L98.0764 110.698C96.8349 110.847 95.7379 111.577 95.1206 112.664L90.6969 120.457C89.8054 122.027 87.96 122.79 86.2198 122.308L77.5055 119.892C76.305 119.56 75.0178 119.814 74.0346 120.58L66.9191 126.117C65.4965 127.225 63.5038 127.225 62.0812 126.117L54.9656 120.58C53.9825 119.814 52.6953 119.56 51.4947 119.892L42.7804 122.308C41.0402 122.79 39.1949 122.027 38.3034 120.457L33.8797 112.664C33.2624 111.577 32.1654 110.847 30.9238 110.698L21.9639 109.623C20.1633 109.407 18.7429 107.989 18.5236 106.189L17.4462 97.3462C17.2942 96.0985 16.5557 94.9982 15.4585 94.3849L7.62771 90.0071C6.03796 89.1184 5.26494 87.2555 5.75839 85.5023L8.16673 76.9458C8.50856 75.7313 8.24786 74.4266 7.46557 73.4367L1.93771 66.442C0.80643 65.0105 0.806428 62.9895 1.93771 61.558L7.46557 54.5633C8.24785 53.5734 8.50856 52.2687 8.16673 51.0542L5.75839 42.4977C5.26494 40.7445 6.03795 38.8816 7.62771 37.9929L15.4585 33.6151C16.5557 33.0018 17.2942 31.9015 17.4462 30.6538L18.5236 21.8112C18.7429 20.011 20.1633 18.5932 21.9639 18.3772L30.9238 17.3021C32.1654 17.1531 33.2624 16.4234 33.8797 15.336L38.3034 7.54333C39.1949 5.97288 41.0402 5.20993 42.7804 5.69229L51.4947 8.10771C52.6953 8.44048 53.9825 8.1856 54.9656 7.42043L62.0812 1.8826Z" fill="white"/>
<path d="M69.9233 89.1817C70.0317 89.0944 70.1143 88.9793 70.1622 88.8486C70.2101 88.7179 70.2215 88.5767 70.1953 88.44C70.0934 88.4312 69.9988 88.3838 69.9307 88.3075C69.8627 88.2312 69.8264 88.1317 69.8293 88.0295C69.8249 87.9736 69.8326 87.9175 69.8519 87.8648C69.8712 87.8122 69.9015 87.7643 69.9409 87.7244C69.9803 87.6845 70.0278 87.6536 70.0803 87.6337C70.1327 87.6138 70.1888 87.6055 70.2447 87.6092C70.5315 87.6092 70.7095 87.901 70.7095 88.2521C70.7203 88.492 70.648 88.7283 70.5047 88.9211C70.3615 89.1139 70.1561 89.2514 69.9233 89.3103V89.1817Z" fill="#001464"/>
<path opacity="0.8" d="M54.9829 36.3584L59.3741 35.7254C59.4705 35.7096 59.5691 35.7152 59.6631 35.7417C59.7571 35.7681 59.8441 35.8149 59.9181 35.8787C60.0642 35.9972 60.181 36.1478 60.2593 36.3188L64.3588 54.5266V28.4067L30.0547 34.8353L34.708 73.496L36.9333 73.8075C36.958 73.5652 36.9679 73.313 36.9679 73.313C37.0421 73.6147 37.324 73.313 37.4624 73.1399C37.6609 72.7215 37.8166 72.2841 37.9273 71.8344C37.9817 71.6564 38.3822 70.8454 38.3822 70.8454C37.9619 71.5971 38.2932 72.418 38.5108 72.8828C38.7284 73.3476 39.1091 72.7592 39.1091 72.7592C39.0054 72.9565 38.9636 73.1805 38.9891 73.4019C39.0147 73.6234 39.1065 73.832 39.2526 74.0004C39.4701 74.1537 40.1723 73.1004 40.1723 73.1004C40.037 73.4484 39.9473 73.8124 39.9053 74.1834L43.8614 74.7372C44.257 74.5345 45.0037 74.0498 45.0037 74.0498C44.8702 74.1982 44.5735 74.6136 44.4152 74.8262L64.3143 77.6103V67.8883L60.8527 54.6305L61.0109 70.9493C61.0109 71.4438 60.8032 71.6515 60.3681 71.6169L55.8878 71.2361C55.7929 71.2367 55.6989 71.2171 55.6121 71.1788C55.5253 71.1405 55.4475 71.0842 55.384 71.0136C55.3205 70.9431 55.2726 70.8599 55.2435 70.7696C55.2144 70.6792 55.2048 70.5837 55.2153 70.4894L54.2807 37.1545C54.2696 37.0552 54.2795 36.9546 54.3096 36.8593C54.3397 36.764 54.3894 36.676 54.4556 36.601C54.5217 36.5261 54.6028 36.4658 54.6936 36.424C54.7844 36.3822 54.8829 36.3598 54.9829 36.3584ZM51.1307 67.458C50.8662 68.1451 50.4621 68.7698 49.9438 69.2927C49.4302 69.7974 48.8125 70.1839 48.1339 70.4251C47.4096 70.6799 46.6381 70.7727 45.874 70.6971L44.1037 70.5438C43.297 70.474 42.5105 70.2543 41.7844 69.896C41.0589 69.5515 40.3916 69.0961 39.8064 68.546C39.2358 68.0127 38.7563 67.3897 38.3872 66.7014C38.0173 66.0334 37.79 65.2959 37.7196 64.5355L37.3339 60.3421C37.319 60.254 37.3217 60.1639 37.3418 60.077C37.3618 59.99 37.3989 59.9078 37.4508 59.8352C37.5028 59.7626 37.5685 59.701 37.6444 59.6539C37.7202 59.6068 37.8046 59.5751 37.8927 59.5607L42.2097 58.4876C42.6251 58.364 42.8427 58.4876 42.8724 58.9376L43.263 64.5404C43.2829 64.8445 43.4214 65.1287 43.6487 65.3316C43.8701 65.549 44.1646 65.6759 44.4746 65.6877H44.8553C44.9986 65.6995 45.1427 65.68 45.2776 65.6305C45.4126 65.5809 45.5351 65.5026 45.6367 65.4009C45.7393 65.3021 45.8183 65.1814 45.868 65.0479C45.9176 64.9143 45.9366 64.7713 45.9235 64.6294L45.5575 58.4975C45.5139 58.1327 45.4276 57.7742 45.3004 57.4294C45.1699 57.1008 44.9508 56.8149 44.6674 56.6036L37.9866 52.3706C37.5265 52.0582 37.1289 51.6624 36.8146 51.2035C36.5336 50.7159 36.3726 50.1684 36.3448 49.6063L35.8503 44.3694C35.7792 43.6195 35.8877 42.8635 36.1668 42.1639C36.4517 41.4461 36.8695 40.7884 37.3981 40.2254C37.9706 39.6246 38.6391 39.1232 39.3762 38.7419C40.1559 38.3241 41.0027 38.0463 41.8784 37.921L43.8564 37.6342C44.7074 37.5037 45.5755 37.5389 46.413 37.7381C47.1816 37.9199 47.9051 38.2564 48.5394 38.7271C49.1641 39.2046 49.6743 39.8155 50.0328 40.5153C50.3913 41.2152 50.5889 41.9862 50.6114 42.7722L50.6856 44.6117C50.7059 44.8143 50.6555 45.0176 50.5428 45.1871C50.4301 45.3566 50.2621 45.4818 50.0675 45.5414L45.5279 47.0793C45.0976 47.2376 44.8751 47.1041 44.8454 46.6689L44.6674 43.6474C44.6566 43.5053 44.6152 43.3673 44.5461 43.2427C44.477 43.118 44.3817 43.0098 44.2669 42.9255C44.1419 42.8304 43.9993 42.7614 43.8473 42.7223C43.6953 42.6832 43.537 42.675 43.3817 42.698L42.9713 42.7425C42.6476 42.7749 42.3469 42.9244 42.1256 43.1628C42.0199 43.2693 41.9382 43.3973 41.8862 43.538C41.8342 43.6788 41.8129 43.8291 41.824 43.9788L42.1108 48.1227C42.1573 48.4173 42.2455 48.7037 42.3729 48.9733C42.5206 49.2441 42.7247 49.4802 42.9713 49.6656L49.7114 53.9184C50.1839 54.2571 50.5522 54.7213 50.7746 55.2585C50.9517 55.7659 51.0793 56.2892 51.1554 56.8212L51.4867 65.1388C51.5292 65.9282 51.408 66.7178 51.1307 67.458Z" fill="#001464"/>
<path d="M30.7337 33.3715L30.5062 32.2044L31.2134 31.1907C32.2568 29.7072 32.7711 28.8714 32.6425 28.1544C32.6248 28.0319 32.5801 27.9149 32.5117 27.8118C32.4432 27.7087 32.3528 27.6221 32.2468 27.5583C32.1408 27.4944 32.0219 27.4548 31.8988 27.4425C31.7757 27.4301 31.6514 27.4453 31.5348 27.4868C31.0423 27.6174 30.6052 27.9036 30.2886 28.3028L29.5469 27.017C30.0874 26.4244 30.8059 26.0234 31.5941 25.8747C33.0777 25.5929 34.0667 26.3 34.3584 27.6648C34.576 28.7775 34.0321 29.816 33.4139 30.6319L32.8947 31.2995L35.1002 30.8693L35.4068 32.4517L30.7337 33.3715Z" fill="#001464"/>
<path d="M40.9725 27.7687C41.3681 29.8061 40.8834 31.522 39.1823 31.8484C37.3774 32.1995 36.3636 30.5676 36.0125 28.7528C35.6614 26.9379 36.0125 25.0143 37.8076 24.6681C39.6027 24.322 40.6263 25.9934 40.9725 27.7687ZM37.7829 28.4017C38.0647 29.9099 38.4851 30.4935 38.9499 30.4044C39.4147 30.3154 39.5384 29.6132 39.2516 28.1198C38.9647 26.6264 38.5741 26.033 38.1142 26.1418C37.6543 26.2506 37.4664 26.8984 37.7829 28.4017Z" fill="#001464"/>
<path d="M42.8314 31.0176L42.6039 29.8555L43.316 28.8418C44.3594 27.3583 44.8687 26.5225 44.7402 25.8055C44.7244 25.6817 44.6811 25.563 44.6135 25.4582C44.5459 25.3533 44.4557 25.2649 44.3495 25.1994C44.2432 25.134 44.1237 25.0932 43.9996 25.0799C43.8755 25.0667 43.7501 25.0815 43.6325 25.1231C43.1427 25.2565 42.708 25.5423 42.3912 25.939L41.6445 24.6582C42.1916 24.0628 42.92 23.6647 43.7165 23.5258C45.2001 23.239 46.2187 23.9461 46.4808 25.3159C46.6984 26.4286 46.1545 27.4621 45.5363 28.283L45.0418 28.9506L47.2473 28.5253L47.5539 30.1028L42.8314 31.0176Z" fill="#001464"/>
<path d="M48.8785 29.8457L48.6609 28.6787L49.373 27.6649C50.4164 26.1814 50.9257 25.3457 50.7972 24.6286C50.7801 24.5057 50.7359 24.3882 50.6677 24.2845C50.5996 24.1808 50.5092 24.0936 50.4031 24.0292C50.297 23.9648 50.178 23.9248 50.0545 23.9122C49.9311 23.8996 49.8064 23.9146 49.6895 23.9561C49.1983 24.0893 48.7631 24.3771 48.4483 24.777L47.6719 23.4913C48.2131 22.8994 48.9313 22.4987 49.7191 22.349C51.2027 22.0671 52.2214 22.7742 52.4884 24.1391C52.701 25.2517 52.1571 26.2853 51.5389 27.1061L51.0444 27.7688V27.7935L53.245 27.3633L53.5516 28.9457L48.8785 29.8457Z" fill="#001464"/>
<path d="M48.8785 29.8457L48.6609 28.6787L49.373 27.6649C50.4164 26.1814 50.9257 25.3457 50.7972 24.6286C50.7801 24.5057 50.7359 24.3882 50.6677 24.2845C50.5996 24.1808 50.5092 24.0936 50.4031 24.0292C50.297 23.9648 50.178 23.9248 50.0545 23.9122C49.9311 23.8996 49.8064 23.9146 49.6895 23.9561C49.1983 24.0893 48.7631 24.3771 48.4483 24.777L47.6719 23.4913C48.2131 22.8994 48.9313 22.4987 49.7191 22.349C51.2027 22.0671 52.2214 22.7742 52.4884 24.1391C52.701 25.2517 52.1571 26.2853 51.5389 27.1061L51.0444 27.7688V27.7935L53.245 27.3633L53.5516 28.9457L48.8785 29.8457Z" fill="#001464"/>
<path d="M44.9281 88.7218C44.4399 88.4101 43.8753 88.239 43.2962 88.2273C43.0526 88.2159 42.8093 88.2542 42.5811 88.3399C42.3528 88.4256 42.1444 88.5569 41.9686 88.7258C41.7927 88.8947 41.6532 89.0976 41.5583 89.3223C41.4635 89.5469 41.4154 89.7885 41.417 90.0323C41.4121 90.2792 41.459 90.5244 41.5547 90.752C41.6504 90.9796 41.7928 91.1847 41.9727 91.3539C42.1526 91.523 42.3659 91.6526 42.599 91.7341C42.8321 91.8157 43.0797 91.8474 43.3259 91.8273C43.9144 91.8098 44.4857 91.6245 44.9726 91.2933V92.035C44.4476 92.3186 43.8582 92.4617 43.2616 92.4504C42.9385 92.4684 42.6152 92.4212 42.3108 92.3118C42.0063 92.2023 41.727 92.0327 41.4894 91.8131C41.2519 91.5935 41.0608 91.3284 40.9278 91.0335C40.7947 90.7386 40.7223 90.42 40.7148 90.0966C40.7145 89.7616 40.7821 89.4301 40.9137 89.1221C41.0453 88.8141 41.2382 88.5361 41.4805 88.3049C41.7228 88.0736 42.0096 87.8941 42.3234 87.777C42.6372 87.66 42.9715 87.6079 43.3061 87.624C43.8672 87.6422 44.4188 87.7734 44.9281 88.0097V88.7218Z" fill="#001464"/>
<path d="M50.0757 92.3763H49.3834L48.7554 90.9818H46.7428L46.1493 92.3763H45.457L47.4845 87.6241H47.979L50.0757 92.3763ZM47.0098 90.3983H48.4933L47.7318 88.6873L47.0098 90.3983Z" fill="#001464"/>
<path d="M54.9662 92.3911H54.3877L51.2278 88.7564V92.3911H50.5898V87.6735H51.1289L54.3283 91.3279V87.6735H54.9662V92.3911Z" fill="#001464"/>
<path d="M60.0992 92.3763H59.4069L58.7788 90.9818H56.7711L56.1728 92.3763H55.4805L57.508 87.6241H58.0025L60.0992 92.3763ZM57.0332 90.3983H58.5168L57.7552 88.6873L57.0332 90.3983Z" fill="#001464"/>
<path d="M60.6289 87.6734H62.4635C62.787 87.6487 63.1121 87.6916 63.4181 87.7992C63.7241 87.9069 64.0044 88.0771 64.2411 88.2989C64.4778 88.5208 64.6658 88.7894 64.7931 89.0878C64.9204 89.3862 64.9843 89.7078 64.9806 90.0322C64.975 90.3524 64.9051 90.6681 64.7751 90.9607C64.6451 91.2533 64.4575 91.5168 64.2236 91.7354C63.9897 91.9541 63.7143 92.1235 63.4136 92.2336C63.1129 92.3437 62.7932 92.3922 62.4734 92.3762H60.6289V87.6734ZM61.3113 91.7828H62.3894C62.6313 91.805 62.8751 91.7761 63.1051 91.6979C63.3351 91.6196 63.5461 91.4939 63.7242 91.3288C63.9024 91.1636 64.0439 90.9629 64.1393 90.7395C64.2348 90.5161 64.2822 90.2751 64.2784 90.0322C64.2784 89.0828 63.68 88.2817 62.3547 88.2817H61.3113V91.7828Z" fill="#001464"/>
<path d="M69.5328 92.3763H68.8405L68.2124 90.9818H66.1998L65.6064 92.3763H64.9141L66.9415 87.6241H67.4361L69.5328 92.3763ZM66.4619 90.3983H67.9454L67.1839 88.6873L66.4619 90.3983Z" fill="#001464"/>
<path d="M73.8116 88.712C73.5224 88.407 73.124 88.2292 72.7039 88.2175C72.2687 88.2175 71.9572 88.445 71.9572 88.7812C71.9572 89.6862 73.9995 89.6714 73.9995 91.1747C74.0025 91.3475 73.9698 91.519 73.9037 91.6787C73.8375 91.8384 73.7393 91.9827 73.615 92.1028C73.4907 92.2229 73.3431 92.3162 73.1812 92.3769C73.0194 92.4375 72.8468 92.4643 72.6742 92.4554C72.1973 92.4656 71.7313 92.312 71.3539 92.0203V91.1598C71.4938 91.3635 71.6793 91.5317 71.8956 91.651C72.112 91.7703 72.3532 91.8375 72.6001 91.8472C73.1242 91.8472 73.3665 91.5159 73.3665 91.2488C73.3665 90.2598 71.3242 90.1659 71.3242 88.8703C71.3242 88.0988 71.8929 87.6093 72.7583 87.6093C73.1347 87.6117 73.5016 87.7271 73.8116 87.9406V88.712Z" fill="#001464"/>
<path d="M79.3397 88.2817H77.7078V92.3911H77.0303V88.2817H75.3984V87.6735H79.3397V88.2817Z" fill="#001464"/>
<path d="M81.8562 87.6092C82.3302 87.6305 82.7876 87.7905 83.1715 88.0694C83.5554 88.3482 83.849 88.7337 84.0158 89.1779C84.1826 89.6221 84.2154 90.1055 84.11 90.5682C84.0045 91.0308 83.7656 91.4523 83.4228 91.7804C83.08 92.1085 82.6484 92.3287 82.1816 92.4137C81.7147 92.4987 81.2332 92.4448 80.7968 92.2586C80.3603 92.0725 79.9881 91.7622 79.7263 91.3665C79.4646 90.9707 79.3248 90.5068 79.3243 90.0323C79.3212 89.7039 79.3853 89.3783 79.5129 89.0757C79.6404 88.7731 79.8286 88.4998 80.0658 88.2727C80.3031 88.0457 80.5844 87.8696 80.8923 87.7555C81.2002 87.6414 81.5283 87.5916 81.8562 87.6092ZM81.8562 91.8323C82.2107 91.8254 82.5552 91.7141 82.8466 91.5122C83.1381 91.3103 83.3634 91.0269 83.4943 90.6974C83.6253 90.368 83.656 90.0072 83.5827 89.6604C83.5094 89.3135 83.3353 88.996 83.0822 88.7477C82.8292 88.4994 82.5084 88.3314 82.1602 88.2647C81.812 88.198 81.4519 88.2356 81.125 88.3728C80.7981 88.51 80.519 88.7407 80.3227 89.0359C80.1264 89.3311 80.0217 89.6777 80.0216 90.0323C80.0181 90.2725 80.0634 90.511 80.1549 90.7333C80.2463 90.9555 80.3818 91.1569 80.5534 91.3252C80.7249 91.4935 80.9288 91.6252 81.1528 91.7124C81.3767 91.7995 81.616 91.8403 81.8562 91.8323Z" fill="#001464"/>
<path d="M86.6653 87.6734C87.6988 87.6734 88.1488 88.2817 88.1488 89.0284C88.1488 89.7751 87.6543 90.3487 86.5565 90.3487H85.8494V92.3762H85.1719V87.6536L86.6653 87.6734ZM85.8691 89.7405H86.6356C87.1301 89.7405 87.4664 89.4734 87.4664 88.9987C87.4664 88.6525 87.2834 88.2817 86.6653 88.2817H85.8691V89.7405Z" fill="#001464"/>
<path d="M36.2975 96.1643C35.8381 95.9215 35.3326 95.7783 34.814 95.7439C34.3937 95.7439 34.1217 95.8972 34.1217 96.1296C34.1217 96.8467 36.525 96.6242 36.525 98.2907C36.525 99.2006 35.7635 99.7247 34.7102 99.7247C34.1117 99.7352 33.5224 99.5776 33.0091 99.2698V98.2511C33.4668 98.6223 34.0323 98.8356 34.6212 98.8593C35.0712 98.8593 35.3135 98.7011 35.3135 98.4242C35.3135 97.6478 32.9102 97.9297 32.9102 96.2335C32.9102 95.4176 33.6173 94.8785 34.7102 94.8785C35.2643 94.884 35.8108 95.0088 36.3124 95.2445L36.2975 96.1643Z" fill="#001464"/>
<path d="M41.3412 94.9378H42.3648V99.6653H41.1879V96.7131L39.912 98.1966H39.734L38.4582 96.7131V99.6653H37.2812V94.9378H38.3049L39.823 96.6933L41.3412 94.9378Z" fill="#001464"/>
<path d="M48.2717 99.6654H47.0057L46.6151 98.7308H44.5035L44.1524 99.6654H42.9062L44.8101 94.9428H46.1898L48.2717 99.6654ZM45.5074 96.0703L44.8151 97.9049H46.2689L45.5074 96.0703Z" fill="#001464"/>
<path d="M52.4125 99.6653H48.8125V94.9378H49.9894V98.795H52.4125V99.6653Z" fill="#001464"/>
<path d="M56.6703 99.6653H53.0703V94.9378H54.2472V98.795H56.6703V99.6653Z" fill="#001464"/>
<path d="M63.7551 97.2126C63.5485 97.7478 63.224 98.2295 62.8056 98.622L63.7551 99.6654H62.321L61.9749 99.2896C61.5336 99.5766 61.0178 99.728 60.4913 99.7247C59.6358 99.7247 59.0078 99.1907 59.0078 98.4786C59.0078 97.9395 59.3391 97.4895 60.0661 97.1434C59.8081 96.8527 59.6564 96.4831 59.6358 96.095C59.6468 95.9184 59.6935 95.7459 59.7732 95.5879C59.8529 95.4299 59.9639 95.2898 60.0994 95.176C60.2349 95.0623 60.3921 94.9772 60.5615 94.9261C60.7309 94.8749 60.9089 94.8588 61.0847 94.8785C61.8859 94.8785 62.4496 95.3434 62.4496 96.0011C62.4235 96.2629 62.3283 96.5132 62.1736 96.7261C62.0189 96.939 61.8104 97.1069 61.5694 97.2126L62.2122 97.9544C62.427 97.7346 62.6085 97.4847 62.7512 97.2126H63.7551ZM60.5902 97.7516C60.2589 97.9692 60.0957 98.167 60.0957 98.3896C60.1034 98.5408 60.1696 98.6832 60.2804 98.7866C60.3911 98.8899 60.5377 98.9462 60.6891 98.9434C60.9514 98.9265 61.2034 98.8356 61.4161 98.6813L60.5902 97.7516ZM61.515 96.0555C61.5145 96.0002 61.5026 95.9457 61.48 95.8953C61.4575 95.8449 61.4247 95.7997 61.3839 95.7625C61.343 95.7254 61.2949 95.6971 61.2426 95.6794C61.1902 95.6617 61.1348 95.6551 61.0798 95.6599C61.0273 95.6537 60.9741 95.6583 60.9234 95.6733C60.8727 95.6883 60.8256 95.7134 60.7849 95.7472C60.7443 95.7809 60.7108 95.8226 60.6867 95.8696C60.6626 95.9167 60.6483 95.9681 60.6446 96.0209C60.6968 96.2722 60.8393 96.4956 61.0452 96.6489C61.3864 96.4511 61.5397 96.2829 61.5397 96.0555" fill="#001464"/>
<path d="M70.43 94.9378H71.4536V99.6653H70.2767V96.7131L69.0058 98.1966H68.8228L67.5519 96.7131V99.6653H66.375V94.9378H67.3986L68.9168 96.6933L70.43 94.9378Z" fill="#001464"/>
<path d="M75.9941 99.6653H72.5078V94.9378H75.9447V95.8032H73.6897V96.7972H75.8408V97.6625H73.6897V98.795H75.9941V99.6653Z" fill="#001464"/>
<path d="M78.9748 94.9428C80.7007 94.9428 81.5858 96.0159 81.5858 97.3066C81.5858 98.5972 80.7254 99.6654 78.8413 99.6654H76.8633V94.9428H78.9748ZM78.0649 98.8049H78.8265C79.2199 98.8049 79.5973 98.6486 79.8755 98.3704C80.1537 98.0922 80.31 97.7149 80.31 97.3214C80.31 96.9279 80.1537 96.5506 79.8755 96.2724C79.5973 95.9942 79.2199 95.8379 78.8265 95.8379H78.0699L78.0649 98.8049Z" fill="#001464"/>
<path d="M83.6652 94.9378H82.4883V99.6604H83.6652V94.9378Z" fill="#001464"/>
<path d="M89.4296 94.9428V97.6181C89.4296 99.1857 88.3664 99.7247 87.0708 99.7247C85.701 99.7247 84.707 99.0868 84.707 97.628V94.9428H85.884V97.6527C85.8804 97.8038 85.909 97.954 85.9678 98.0932C86.0267 98.2324 86.1143 98.3576 86.2251 98.4604C86.3359 98.5633 86.4672 98.6414 86.6105 98.6897C86.7537 98.738 86.9055 98.7554 87.0559 98.7406C87.2146 98.7571 87.3749 98.7384 87.5255 98.686C87.6762 98.6336 87.8134 98.5487 87.9276 98.4374C88.0418 98.326 88.1301 98.1909 88.1863 98.0417C88.2424 97.8924 88.2651 97.7326 88.2527 97.5736V94.9428H89.4296Z" fill="#001464"/>
<path d="M94.5042 94.9378H95.5328V99.6653H94.3558V96.7131L93.08 98.1966H92.902L91.6261 96.7131V99.6653H90.4492V94.9378H91.4729L92.991 96.6933L94.5042 94.9378Z" fill="#001464"/>
<path d="M49.5435 102.82H47.5408V104.244H49.4743V104.853H47.5408V106.321H49.6078V106.93H46.8633V102.207H49.5435V102.82Z" fill="#001464"/>
<path d="M54.7186 106.93H54.0411V103.255H54.0263L52.5724 105.085H52.4587L51.0048 103.255H50.9949V106.93H50.3125V102.207H50.9504L52.518 104.146L54.0905 102.207H54.7186V106.93Z" fill="#001464"/>
<path d="M57.1729 102.212C58.2014 102.212 58.6564 102.82 58.6564 103.567C58.6564 104.314 58.1619 104.887 57.0641 104.887H56.3767V106.935H55.6992V102.212H57.1729ZM56.3767 104.279H57.1432C57.6377 104.279 57.974 104.012 57.974 103.537C57.974 103.191 57.786 102.82 57.1729 102.82H56.3767V104.279Z" fill="#001464"/>
<path d="M59.9353 106.321H62.0716V106.93H59.2578V102.207H59.9353V106.321Z" fill="#001464"/>
<path d="M64.9773 102.148C65.4513 102.169 65.9087 102.329 66.2926 102.608C66.6765 102.887 66.9701 103.272 67.1369 103.716C67.3037 104.161 67.3365 104.644 67.2311 105.107C67.1256 105.569 66.8867 105.991 66.5439 106.319C66.2011 106.647 65.7695 106.867 65.3027 106.952C64.8358 107.037 64.3543 106.983 63.9178 106.797C63.4814 106.611 63.1092 106.301 62.8474 105.905C62.5857 105.509 62.4459 105.045 62.4454 104.571C62.4423 104.242 62.5064 103.917 62.6339 103.614C62.7615 103.312 62.9497 103.038 63.1869 102.811C63.4242 102.584 63.7055 102.408 64.0134 102.294C64.3213 102.18 64.6494 102.13 64.9773 102.148ZM64.9773 106.371C65.3318 106.364 65.6763 106.253 65.9677 106.051C66.2592 105.849 66.4845 105.565 66.6154 105.236C66.7464 104.907 66.7771 104.546 66.7038 104.199C66.6305 103.852 66.4564 103.535 66.2033 103.286C65.9503 103.038 65.6295 102.87 65.2813 102.803C64.9331 102.737 64.573 102.774 64.2461 102.911C63.9192 103.049 63.6401 103.279 63.4438 103.574C63.2475 103.87 63.1427 104.216 63.1427 104.571C63.1392 104.811 63.1845 105.05 63.276 105.272C63.3674 105.494 63.5029 105.695 63.6745 105.864C63.846 106.032 64.0499 106.164 64.2739 106.251C64.4978 106.338 64.7371 106.379 64.9773 106.371Z" fill="#001464"/>
<path d="M70.6439 102.207H71.4648L69.7093 104.437V106.93H69.0318V104.432L67.2812 102.207H68.0972L69.3631 103.839L70.6439 102.207Z" fill="#001464"/>
<path d="M74.6607 102.82H72.6629V104.244H74.5915V104.853H72.6629V106.321H74.725V106.93H71.9805V102.207H74.6607V102.82Z" fill="#001464"/>
<path d="M76.6488 102.212C77.6081 102.212 78.2016 102.707 78.2016 103.532C78.2112 103.785 78.1395 104.033 77.997 104.242C77.8545 104.45 77.6489 104.607 77.4103 104.69C77.8538 105.041 78.2135 105.487 78.4636 105.995C78.6664 106.322 78.7851 106.49 79.1065 106.935H78.3005L77.6724 105.946C77.0543 104.957 76.7675 104.868 76.4213 104.868H76.1395V106.92H75.457V102.197L76.6488 102.212ZM76.1543 104.274H76.5895C77.3164 104.274 77.5241 103.898 77.5142 103.503C77.5043 103.107 77.2472 102.791 76.5895 102.791H76.1543V104.274Z" fill="#001464"/>
<path d="M81.8741 103.255C81.5846 102.951 81.1864 102.773 80.7664 102.761C80.3312 102.761 80.0197 102.988 80.0197 103.325C80.0197 104.23 82.062 104.215 82.062 105.718C82.0642 105.891 82.0311 106.062 81.9647 106.221C81.8983 106.381 81.8 106.525 81.6759 106.645C81.5518 106.765 81.4044 106.858 81.2429 106.919C81.0814 106.98 80.9092 107.007 80.7367 106.999C80.2598 107.009 79.7938 106.855 79.4164 106.564V105.703C79.5563 105.907 79.7418 106.075 79.9581 106.194C80.1745 106.314 80.4157 106.381 80.6626 106.391C81.1867 106.391 81.429 106.059 81.429 105.792C81.429 104.803 79.3867 104.709 79.3867 103.414C79.3867 102.642 79.9554 102.153 80.8208 102.153C81.1972 102.155 81.5641 102.271 81.8741 102.484V103.255Z" fill="#001464"/>
<path d="M93.4355 79.4597C93.6289 79.4571 93.8207 79.4941 93.9992 79.5685C94.3533 79.7188 94.6353 80.0007 94.7855 80.3548C94.8599 80.5333 94.8969 80.7252 94.8943 80.9185C94.8878 81.1723 94.8163 81.4202 94.6866 81.6385C94.5569 81.8567 94.3733 82.038 94.1535 82.1651C93.9337 82.2921 93.685 82.3606 93.4311 82.364C93.1772 82.3674 92.9267 82.3056 92.7036 82.1845C92.4838 82.0538 92.3002 81.8702 92.1695 81.6504C92.0408 81.4284 91.9729 81.1763 91.9727 80.9197C91.9725 80.663 92.04 80.4108 92.1684 80.1886C92.2968 79.9664 92.4816 79.782 92.7041 79.654C92.9265 79.526 93.1788 79.459 93.4355 79.4597ZM93.4355 79.7416C93.2287 79.7406 93.0254 79.7952 92.847 79.8998C92.6667 80.0009 92.5179 80.1498 92.4168 80.3301C92.313 80.5088 92.2583 80.7118 92.2583 80.9185C92.2583 81.1252 92.313 81.3283 92.4168 81.507C92.5207 81.6851 92.6689 81.8333 92.847 81.9372C93.0261 82.0396 93.2292 82.0926 93.4355 82.0905C93.6426 82.0938 93.8464 82.039 94.024 81.9323C94.1979 81.8313 94.3429 81.6873 94.4451 81.5141C94.5473 81.3409 94.6032 81.1443 94.6075 80.9433C94.6077 80.735 94.5531 80.5303 94.4492 80.3498C94.3471 80.1734 94.2004 80.0267 94.024 79.9246C93.8495 79.8121 93.6479 79.7489 93.4404 79.7416H93.4355ZM93.0893 81.7196H92.7728V80.1718H93.5047C93.6033 80.1668 93.7016 80.1854 93.7915 80.2262C93.8663 80.256 93.929 80.31 93.9696 80.3795C94.0105 80.45 94.031 80.5305 94.0289 80.6119C94.0295 80.7172 93.9886 80.8184 93.9152 80.8938C93.8349 80.9788 93.7253 81.0301 93.6086 81.0372C93.6725 81.0591 93.7291 81.0985 93.7717 81.151C93.8363 81.2308 93.8926 81.317 93.9399 81.4081L94.1229 81.7196H93.7322L93.6036 81.4674C93.5577 81.3819 93.5065 81.2993 93.4503 81.2202C93.4183 81.1746 93.3759 81.1373 93.3267 81.1114C93.2767 81.0902 93.2227 81.0801 93.1684 81.0817H93.0893V81.7196ZM93.0893 80.4141V80.8345H93.3415C93.4311 80.8391 93.5206 80.8239 93.6036 80.79C93.6345 80.7725 93.6595 80.7463 93.6753 80.7145C93.6912 80.6828 93.6972 80.6471 93.6926 80.6119C93.6932 80.5832 93.6863 80.5548 93.6724 80.5296C93.6585 80.5044 93.6382 80.4833 93.6135 80.4685C93.5396 80.4275 93.4555 80.4086 93.3712 80.4141H93.0893Z" fill="#001464"/>
<path opacity="0.5" d="M46.0783 79.7267C45.8071 79.7867 45.5273 79.7968 45.2525 79.7564C45.0992 79.7119 44.6195 79.5487 44.4365 79.519C44.2536 79.4893 43.6206 79.3954 43.5613 79.1185C43.5019 78.8415 43.7393 78.624 43.9025 78.441C44.0657 78.258 44.5503 77.6696 44.9854 77.6003L45.1783 77.5756H45.0003L45.1981 77.541C45.1981 77.541 43.9519 77.6844 43.9371 77.358C43.9228 77.1407 43.9735 76.924 44.0827 76.7356C44.1919 76.5471 44.3546 76.3954 44.5503 76.2998C44.5503 76.2998 43.9569 76.3888 44.0212 75.9239C44.0879 75.535 44.2454 75.1674 44.481 74.8508C44.6393 74.6382 44.936 74.2228 45.0695 74.0745C45.0695 74.0745 44.3228 74.569 43.9272 74.7618C43.5316 74.9596 42.9975 75.1476 42.8887 75.197C42.7799 75.2465 41.8602 75.6223 41.9788 74.9448C41.8762 75.1657 41.7375 75.3679 41.5684 75.5432C41.2667 75.8646 40.5546 76.5025 40.3519 76.4283C40.1492 76.3542 39.986 76.0426 39.9217 75.5382C39.8682 75.151 39.8682 74.7583 39.9217 74.3712C39.9217 74.3267 39.9217 74.2673 39.9217 74.208C39.9627 73.8363 40.0542 73.472 40.1937 73.125C40.1937 73.125 39.4865 74.1783 39.2689 74.025C39.1229 73.8566 39.0311 73.648 39.0055 73.4266C38.9799 73.2051 39.0217 72.9811 39.1255 72.7838C39.1255 72.7838 38.7447 73.3772 38.5272 72.9074C38.3096 72.4376 37.9783 71.6217 38.3986 70.8701C38.3986 70.8701 37.998 71.6613 37.9436 71.8591C37.833 72.3088 37.6773 72.7462 37.4788 73.1646C37.3255 73.3377 37.0436 73.6591 36.9843 73.3377C36.9843 73.3377 36.9843 73.5651 36.9497 73.8322C36.9392 73.9999 36.9093 74.1658 36.8607 74.3267C36.7766 74.5344 36.7568 74.8954 36.5739 74.9992C36.5086 75.047 36.4326 75.0781 36.3525 75.0897C36.2724 75.1013 36.1907 75.093 36.1146 75.0657C36.0384 75.0384 35.9701 74.9928 35.9157 74.9329C35.8613 74.873 35.8224 74.8007 35.8024 74.7223C35.8024 74.7223 36.0793 75.4294 36.1684 75.7113C36.3203 76.166 36.4264 76.6349 36.4848 77.1108C36.4848 77.5558 36.5442 78.0404 36.3513 78.1641C36.1585 78.2877 35.3969 78.2382 35.2683 77.9613C35.2683 77.9613 35.2683 78.3816 35.0755 78.4212C34.9287 78.4603 34.7849 78.5099 34.6453 78.5696C34.4254 78.5343 34.2186 78.4423 34.0452 78.3027C33.8717 78.163 33.7377 77.9806 33.6562 77.7734C33.7333 78.0861 33.8656 78.3825 34.0469 78.6487C34.3238 79.0245 34.3733 79.2025 34.5414 79.4448C34.7096 79.6871 34.8925 80.0234 34.7837 80.1075C34.7837 80.1075 35.0953 80.063 35.3623 80.602C35.6293 81.141 35.5749 81.7146 35.1299 81.8729C35.1299 81.8729 35.0557 81.9718 35.303 81.9223C35.6102 81.8141 35.9452 81.8141 36.2524 81.9223C36.6134 82.0905 37.1623 82.2883 37.1524 82.6295C37.1093 83.1525 37.0115 83.6696 36.8607 84.1723C36.7683 84.4023 36.6505 84.6212 36.5096 84.8251C36.4207 84.904 36.3265 84.9767 36.2277 85.0427C36.4701 85.0005 36.7029 84.9151 36.9151 84.7905C37.1793 84.6056 37.4739 84.4683 37.7854 84.385C38.0821 84.296 38.2799 84.1229 38.4925 84.207C38.7052 84.291 38.9425 84.3108 38.9871 84.6471C39.1127 84.3282 39.3428 84.0615 39.6398 83.8905C40.0552 83.7322 40.0948 83.4949 40.4953 83.6927C40.8959 83.8905 40.8167 83.7471 41.1134 84.0141C41.4101 84.2811 41.8404 84.7114 41.8404 84.7114C41.7265 84.5077 41.6273 84.2962 41.5437 84.0784C41.455 83.884 41.3839 83.6821 41.331 83.4751C41.3014 83.2674 41.2816 83.0102 41.2569 82.8866C41.2207 82.7595 41.1744 82.6355 41.1184 82.5157L40.9948 82.3575C40.9948 82.3575 43.1805 84.6421 45.7074 85.6163L45.7865 85.3938C45.7865 85.3938 37.2315 81.9916 37.8942 73.941C37.8942 73.8173 37.8942 73.6986 37.9239 73.5701C37.9535 73.4415 37.9535 73.2833 37.9535 73.2833C37.9535 73.3772 37.9535 73.4712 37.9239 73.5701C37.8942 73.669 37.9239 73.7975 37.9239 73.9459C37.8678 75.5453 38.1725 77.1368 38.8154 78.6024C39.4583 80.0679 40.4229 81.37 41.6376 82.4119C41.6376 82.4119 41.5684 82.313 41.8156 82.4811C42.0629 82.6493 42.0382 82.6591 42.2508 82.7135C42.4583 82.7578 42.663 82.814 42.864 82.8817C43.056 82.9314 43.2418 83.0028 43.4179 83.0943C43.5168 83.17 43.63 83.2248 43.7507 83.2554C43.8714 83.286 43.9971 83.2917 44.1201 83.2723C44.1201 83.2723 43.2299 82.946 43.131 82.2833C43.1024 82.2476 43.0827 82.2055 43.0736 82.1605C43.0646 82.1156 43.0664 82.0692 43.079 82.0251C43.0916 81.981 43.1146 81.9406 43.146 81.9072C43.1774 81.8739 43.2164 81.8485 43.2596 81.8333C43.8872 81.5818 44.563 81.4737 45.2376 81.5168C45.2376 81.5168 44.4415 81.3487 44.6986 81.1113C44.9558 80.874 45.2228 80.6168 45.4107 80.4784C45.6674 80.2947 45.9367 80.1294 46.2168 79.9839C46.5139 79.841 46.7656 79.6185 46.9437 79.341C46.6895 79.5356 46.393 79.6677 46.0783 79.7267Z" fill="#001464"/>
<path opacity="0.6" d="M64.3594 21.6615V54.5463L68.81 32.3923C68.7901 32.2929 68.8012 32.1898 68.8419 32.0969C68.8826 32.004 68.9509 31.9259 69.0374 31.8731C69.1144 31.8045 69.2065 31.7553 69.3063 31.7295C69.4061 31.7037 69.5105 31.7021 69.6111 31.7248L74.2397 32.6099C74.348 32.6222 74.4527 32.6558 74.548 32.7087C74.6432 32.7617 74.7271 32.8329 74.7947 32.9185C74.8622 33.004 74.9122 33.102 74.9417 33.2069C74.9712 33.3118 74.9797 33.4215 74.9666 33.5297L74.21 70.6179C74.2231 70.7217 74.2144 70.8272 74.1845 70.9275C74.1545 71.0277 74.1039 71.1207 74.0359 71.2003C73.968 71.2799 73.8841 71.3444 73.7898 71.3897C73.6954 71.4351 73.5926 71.4602 73.488 71.4635L68.6517 71.958C68.1572 72.0074 67.9446 71.7602 67.9495 71.2212L68.0781 52.9243L64.3594 67.9228V83.4256L94.9398 78.169L98.4706 29.9544L64.3594 21.6615ZM92.9173 41.1451C92.8925 41.5902 92.6255 41.7781 92.1211 41.7039L85.9941 40.8138L85.6628 48.0979L90.9046 48.5578C91.3991 48.5974 91.6315 48.8447 91.6019 49.2947L91.3398 53.5722C91.3101 54.0222 91.053 54.2348 90.5634 54.22L85.3908 54.0222L84.8963 64.4068L90.7216 64.1151C91.2161 64.1151 91.4238 64.303 91.3942 64.7481L91.1222 68.9959C91.1242 69.0943 91.1063 69.1921 91.0694 69.2833C91.0326 69.3745 90.9775 69.4574 90.9077 69.5267C90.8379 69.5961 90.7547 69.6505 90.6632 69.6868C90.5718 69.723 90.4739 69.7403 90.3755 69.7376L79.432 70.8602C78.9375 70.9047 78.7347 70.6822 78.7496 70.1876L79.8523 34.4347C79.8523 33.9402 80.1293 33.7374 80.6386 33.8363L92.4524 36.0962C92.9469 36.1951 93.1991 36.4621 93.1695 36.9122L92.9173 41.1451Z" fill="#001464"/>
</svg>
