<svg width="86" height="85" viewBox="0 0 86 85" fill="none" xmlns="http://www.w3.org/2000/svg">
<path d="M40.9285 1.2413C41.8665 0.511286 43.1804 0.511286 44.1184 1.2413L48.8101 4.89271C49.4584 5.39723 50.3071 5.56529 51.0987 5.34587L56.8445 3.75325C57.992 3.43521 59.2087 3.93826 59.7965 4.97375L62.7133 10.1119C63.1203 10.8289 63.8437 11.31 64.6623 11.4083L70.5701 12.1171C71.7573 12.2596 72.6938 13.1944 72.8385 14.3814L73.5489 20.2118C73.6491 21.0345 74.136 21.76 74.8595 22.1644L80.0227 25.0509C81.071 25.6369 81.5807 26.8652 81.2553 28.0212L79.6673 33.663C79.4419 34.4638 79.6138 35.324 80.1297 35.9767L83.7745 40.5887C84.5204 41.5326 84.5204 42.8652 83.7745 43.809L80.1297 48.421C79.6138 49.0737 79.442 49.934 79.6673 50.7348L81.2553 56.3766C81.5807 57.5326 81.071 58.7609 80.0227 59.3469L74.8595 62.2334C74.136 62.6378 73.6491 63.3633 73.5489 64.186L72.8385 70.0164C72.6938 71.2034 71.7573 72.1382 70.5701 72.2806L64.6623 72.9895C63.8437 73.0877 63.1203 73.5688 62.7133 74.2859L59.7965 79.424C59.2087 80.4595 57.992 80.9626 56.8445 80.6445L51.0987 79.0519C50.3071 78.8325 49.4584 79.0005 48.8101 79.5051L44.1184 83.1565C43.1804 83.8865 41.8665 83.8865 40.9285 83.1565L36.2369 79.5051C35.5886 79.0005 34.7399 78.8325 33.9483 79.0519L28.2025 80.6445C27.055 80.9626 25.8383 80.4595 25.2505 79.424L22.3337 74.2859C21.9266 73.5688 21.2033 73.0877 20.3847 72.9895L14.4769 72.2806C13.2897 72.1382 12.3531 71.2034 12.2085 70.0164L11.4981 64.186C11.3979 63.3633 10.911 62.6378 10.1875 62.2334L5.02424 59.3469C3.97602 58.7609 3.46633 57.5326 3.79169 56.3766L5.37964 50.7348C5.60503 49.934 5.43313 49.0737 4.91733 48.421L1.27249 43.809C0.526572 42.8652 0.526573 41.5326 1.27249 40.5887L4.91733 35.9767C5.43314 35.324 5.60503 34.4638 5.37964 33.663L3.79169 28.0212C3.46633 26.8652 3.97602 25.6369 5.02424 25.0509L10.1875 22.1644C10.911 21.76 11.3979 21.0345 11.4981 20.2118L12.2085 14.3814C12.3531 13.1944 13.2897 12.2596 14.4769 12.1171L20.3847 11.4083C21.2033 11.31 21.9266 10.8289 22.3337 10.1119L25.2505 4.97375C25.8383 3.93826 27.055 3.43521 28.2025 3.75325L33.9483 5.34587C34.7399 5.56529 35.5886 5.39723 36.2369 4.89271L40.9285 1.2413Z" fill="white"/>
<path d="M46.0979 58.8027C46.1694 58.7451 46.2238 58.6692 46.2554 58.583C46.287 58.4969 46.2946 58.4037 46.2772 58.3136C46.2101 58.3078 46.1477 58.2765 46.1028 58.2262C46.058 58.1759 46.034 58.1104 46.0359 58.043C46.0331 58.0061 46.0381 57.9691 46.0508 57.9344C46.0635 57.8997 46.0835 57.8681 46.1095 57.8418C46.1355 57.8155 46.1668 57.7951 46.2014 57.782C46.236 57.7689 46.273 57.7634 46.3098 57.7658C46.4989 57.7658 46.6163 57.9582 46.6163 58.1897C46.6234 58.3479 46.5757 58.5037 46.4813 58.6308C46.3868 58.758 46.2514 58.8486 46.0979 58.8875V58.8027Z" fill="#001464"/>
<path opacity="0.8" d="M36.2491 23.9732L39.1445 23.5559C39.208 23.5455 39.2731 23.5491 39.335 23.5666C39.397 23.5841 39.4544 23.6149 39.5032 23.657C39.5995 23.7351 39.6765 23.8344 39.7281 23.9472L42.4312 35.9526V18.7302L19.8125 22.969L22.8807 48.4602L24.348 48.6656C24.3643 48.5058 24.3708 48.3396 24.3708 48.3396C24.4197 48.5385 24.6056 48.3396 24.6969 48.2254C24.8277 47.9495 24.9304 47.6612 25.0033 47.3646C25.0392 47.2473 25.3033 46.7125 25.3033 46.7125C25.0262 47.2081 25.2446 47.7494 25.3881 48.0559C25.5316 48.3624 25.7826 47.9744 25.7826 47.9744C25.7142 48.1045 25.6866 48.2522 25.7035 48.3982C25.7204 48.5442 25.7809 48.6817 25.8772 48.7928C26.0206 48.8939 26.4836 48.1994 26.4836 48.1994C26.3944 48.4288 26.3353 48.6688 26.3076 48.9134L28.916 49.2786C29.1769 49.1449 29.6692 48.8254 29.6692 48.8254C29.5812 48.9232 29.3856 49.1971 29.2812 49.3373L42.4018 51.173V44.7627L40.1194 36.0211L40.2237 46.781C40.2237 47.1071 40.0868 47.244 39.7999 47.2212L36.8458 46.9701C36.7832 46.9705 36.7212 46.9576 36.664 46.9323C36.6067 46.9071 36.5555 46.87 36.5136 46.8235C36.4717 46.7769 36.4401 46.7221 36.4209 46.6625C36.4018 46.6029 36.3954 46.54 36.4023 46.4778L35.7861 24.4982C35.7788 24.4327 35.7853 24.3664 35.8052 24.3035C35.825 24.2407 35.8578 24.1827 35.9014 24.1332C35.945 24.0838 35.9985 24.044 36.0583 24.0165C36.1182 23.9889 36.1832 23.9742 36.2491 23.9732ZM33.7091 44.479C33.5347 44.9321 33.2683 45.344 32.9266 45.6887C32.5879 46.0215 32.1806 46.2764 31.7332 46.4354C31.2556 46.6034 30.7469 46.6646 30.2431 46.6147L29.0758 46.5136C28.5439 46.4676 28.0253 46.3228 27.5466 46.0865C27.0682 45.8594 26.6282 45.5591 26.2424 45.1964C25.8661 44.8448 25.55 44.4339 25.3066 43.9802C25.0627 43.5397 24.9128 43.0534 24.8664 42.552L24.6121 39.7871C24.6023 39.729 24.6041 39.6696 24.6173 39.6123C24.6305 39.5549 24.655 39.5008 24.6892 39.4529C24.7234 39.405 24.7668 39.3644 24.8168 39.3333C24.8668 39.3022 24.9224 39.2814 24.9805 39.2719L27.827 38.5643C28.1009 38.4828 28.2444 38.5643 28.2639 38.861L28.5215 42.5553C28.5346 42.7558 28.6259 42.9432 28.7758 43.077C28.9218 43.2203 29.116 43.304 29.3204 43.3117H29.5714C29.6659 43.3196 29.7609 43.3067 29.8499 43.274C29.9388 43.2414 30.0196 43.1897 30.0866 43.1226C30.1543 43.0575 30.2064 42.9779 30.2391 42.8899C30.2719 42.8018 30.2844 42.7075 30.2757 42.614L30.0344 38.5709C30.0056 38.3303 29.9487 38.0939 29.8649 37.8666C29.7789 37.6499 29.6344 37.4614 29.4475 37.3221L25.0425 34.531C24.7391 34.325 24.477 34.064 24.2697 33.7615C24.0845 33.44 23.9783 33.079 23.96 32.7083L23.6339 29.2554C23.587 28.7609 23.6585 28.2624 23.8426 27.8012C24.0304 27.3279 24.3059 26.8942 24.6545 26.523C25.0319 26.1268 25.4727 25.7963 25.9587 25.5448C26.4728 25.2694 27.0312 25.0862 27.6086 25.0036L28.9128 24.8145C29.4738 24.7284 30.0463 24.7516 30.5985 24.8829C31.1053 25.0028 31.5823 25.2247 32.0006 25.5351C32.4125 25.8499 32.7489 26.2527 32.9852 26.7142C33.2216 27.1756 33.3519 27.684 33.3667 28.2022L33.4156 29.4151C33.4291 29.5487 33.3958 29.6828 33.3215 29.7945C33.2472 29.9063 33.1364 29.9888 33.0081 30.0281L30.0149 31.0422C29.7312 31.1465 29.5845 31.0585 29.5649 30.7716L29.4475 28.7793C29.4404 28.6856 29.4131 28.5946 29.3675 28.5124C29.3219 28.4303 29.2591 28.3589 29.1834 28.3033C29.101 28.2406 29.007 28.1951 28.9067 28.1693C28.8065 28.1436 28.7021 28.1381 28.5998 28.1533L28.3291 28.1826C28.1157 28.204 27.9175 28.3026 27.7716 28.4598C27.7019 28.53 27.648 28.6144 27.6137 28.7072C27.5794 28.8 27.5654 28.8991 27.5727 28.9978L27.7618 31.7302C27.7924 31.9244 27.8506 32.1132 27.9346 32.291C28.032 32.4696 28.1666 32.6252 28.3291 32.7475L32.7733 35.5516C33.0849 35.7749 33.3277 36.081 33.4743 36.4352C33.5911 36.7697 33.6752 37.1148 33.7254 37.4655L33.9439 42.9498C33.9719 43.4703 33.892 43.9909 33.7091 44.479Z" fill="#001464"/>
<path d="M20.2591 22.0038L20.1091 21.2343L20.5754 20.5659C21.2634 19.5877 21.6025 19.0367 21.5177 18.5639C21.506 18.4831 21.4765 18.406 21.4314 18.338C21.3863 18.27 21.3266 18.2129 21.2568 18.1708C21.1869 18.1287 21.1085 18.1026 21.0273 18.0945C20.9461 18.0863 20.8642 18.0963 20.7873 18.1237C20.4626 18.2098 20.1744 18.3985 19.9656 18.6617L19.4766 17.814C19.833 17.4232 20.3067 17.1588 20.8264 17.0608C21.8046 16.8749 22.4567 17.3412 22.6491 18.2411C22.7926 18.9747 22.4339 19.6595 22.0263 20.1974L21.684 20.6376L23.1382 20.354L23.3404 21.3973L20.2591 22.0038Z" fill="#001464"/>
<path d="M27.0109 18.3096C27.2717 19.6529 26.9522 20.7844 25.8306 20.9996C24.6405 21.2311 23.972 20.1551 23.7405 18.9584C23.509 17.7618 23.7405 16.4934 24.9241 16.2652C26.1077 16.037 26.7827 17.139 27.0109 18.3096ZM24.9078 18.7269C25.0937 19.7214 25.3708 20.1062 25.6773 20.0475C25.9838 19.9888 26.0653 19.5258 25.8762 18.5411C25.6871 17.5564 25.4295 17.1651 25.1263 17.2369C24.823 17.3086 24.6991 17.7357 24.9078 18.7269Z" fill="#001464"/>
<path d="M28.2357 20.4518L28.0857 19.6856L28.5552 19.0171C29.2432 18.039 29.579 17.4879 29.4942 17.0151C29.4839 16.9335 29.4553 16.8553 29.4108 16.7861C29.3662 16.717 29.3067 16.6587 29.2366 16.6155C29.1666 16.5724 29.0878 16.5455 29.006 16.5367C28.9242 16.528 28.8414 16.5377 28.7639 16.5652C28.4409 16.6532 28.1543 16.8416 27.9455 17.1032L27.4531 16.2587C27.8138 15.8661 28.2941 15.6036 28.8193 15.512C29.7975 15.3229 30.4692 15.7892 30.642 16.6923C30.7854 17.426 30.4268 18.1074 30.0192 18.6487L29.6931 19.0889L31.1474 18.8085L31.3495 19.8486L28.2357 20.4518Z" fill="#001464"/>
<path d="M29.6179 58.4995C29.296 58.2939 28.9237 58.1811 28.5419 58.1734C28.3813 58.1659 28.2209 58.1911 28.0704 58.2476C27.9199 58.3042 27.7824 58.3907 27.6665 58.5021C27.5506 58.6135 27.4585 58.7473 27.396 58.8954C27.3335 59.0435 27.3018 59.2028 27.3028 59.3635C27.2996 59.5263 27.3305 59.688 27.3936 59.8381C27.4567 59.9882 27.5506 60.1234 27.6692 60.2349C27.7878 60.3465 27.9285 60.4319 28.0822 60.4857C28.2359 60.5394 28.3991 60.5604 28.5614 60.5471C28.9495 60.5356 29.3262 60.4134 29.6472 60.195V60.6841C29.301 60.8711 28.9124 60.9654 28.519 60.9579C28.3061 60.9698 28.0929 60.9387 27.8921 60.8665C27.6914 60.7943 27.5072 60.6825 27.3506 60.5377C27.1939 60.393 27.068 60.2181 26.9802 60.0237C26.8925 59.8293 26.8448 59.6192 26.8398 59.4059C26.8396 59.1851 26.8842 58.9665 26.971 58.7634C27.0578 58.5603 27.1849 58.377 27.3447 58.2245C27.5044 58.0721 27.6935 57.9537 27.9004 57.8765C28.1074 57.7993 28.3278 57.765 28.5484 57.7756C28.9184 57.7876 29.2821 57.8741 29.6179 58.0299V58.4995Z" fill="#001464"/>
<path d="M33.0141 60.9091H32.5577L32.1436 59.9896H30.8165L30.4252 60.9091H29.9688L31.3056 57.7756H31.6316L33.0141 60.9091ZM30.9926 59.6048H31.9707L31.4686 58.4767L30.9926 59.6048Z" fill="#001464"/>
<path d="M36.2372 60.9188H35.8557L33.7722 58.5223V60.9188H33.3516V57.8082H33.707L35.8166 60.2178V57.8082H36.2372V60.9188Z" fill="#001464"/>
<path d="M39.6235 60.9091H39.167L38.7529 59.9896H37.4291L37.0346 60.9091H36.5781L37.915 57.7756H38.241L39.6235 60.9091ZM37.6019 59.6048H38.5801L38.078 58.4767L37.6019 59.6048Z" fill="#001464"/>
<path d="M39.9688 57.8082H41.1784C41.3917 57.7919 41.6061 57.8201 41.8078 57.8911C42.0096 57.9622 42.1944 58.0744 42.3505 58.2206C42.5066 58.3669 42.6305 58.544 42.7145 58.7408C42.7984 58.9375 42.8405 59.1496 42.8381 59.3635C42.8344 59.5746 42.7883 59.7828 42.7026 59.9757C42.6168 60.1686 42.4932 60.3423 42.339 60.4865C42.1847 60.6307 42.0031 60.7424 41.8049 60.815C41.6066 60.8875 41.3958 60.9195 41.1849 60.909H39.9688V57.8082ZM40.4187 60.5177H41.1295C41.289 60.5324 41.4498 60.5133 41.6015 60.4617C41.7531 60.4102 41.8922 60.3272 42.0097 60.2184C42.1272 60.1095 42.2204 59.9771 42.2834 59.8298C42.3463 59.6825 42.3776 59.5236 42.3751 59.3635C42.3751 58.7375 41.9805 58.2092 41.1067 58.2092H40.4187V60.5177Z" fill="#001464"/>
<path d="M45.8423 60.9091H45.3858L44.9717 59.9896H43.6446L43.2534 60.9091H42.7969L44.1337 57.7756H44.4598L45.8423 60.9091ZM43.8174 59.6048H44.7956L44.2935 58.4767L43.8174 59.6048Z" fill="#001464"/>
<path d="M48.6635 58.493C48.4728 58.2919 48.2102 58.1746 47.9331 58.1669C47.6462 58.1669 47.4408 58.3169 47.4408 58.5386C47.4408 59.1353 48.7874 59.1255 48.7874 60.1167C48.7893 60.2307 48.7678 60.3438 48.7242 60.4491C48.6806 60.5544 48.6158 60.6496 48.5339 60.7287C48.4519 60.8079 48.3546 60.8694 48.2479 60.9094C48.1412 60.9494 48.0274 60.9671 47.9136 60.9612C47.5991 60.9679 47.2919 60.8666 47.043 60.6743V60.107C47.1352 60.2412 47.2576 60.3521 47.4002 60.4308C47.5428 60.5095 47.7019 60.5538 47.8647 60.5602C48.2103 60.5602 48.3701 60.3417 48.3701 60.1657C48.3701 59.5135 47.0234 59.4516 47.0234 58.5973C47.0234 58.0887 47.3984 57.7659 47.969 57.7659C48.2172 57.7675 48.4591 57.8436 48.6635 57.9843V58.493Z" fill="#001464"/>
<path d="M52.3057 58.2093H51.2297V60.9188H50.783V58.2093H49.707V57.8082H52.3057V58.2093Z" fill="#001464"/>
<path d="M53.9664 57.7658C54.2789 57.7799 54.5805 57.8854 54.8336 58.0693C55.0867 58.2531 55.2803 58.5073 55.3903 58.8002C55.5003 59.0931 55.5219 59.4118 55.4524 59.7169C55.3829 60.0219 55.2253 60.2998 54.9993 60.5162C54.7733 60.7325 54.4887 60.8777 54.1809 60.9337C53.8731 60.9898 53.5556 60.9542 53.2678 60.8315C52.98 60.7087 52.7346 60.5042 52.562 60.2432C52.3894 59.9823 52.2973 59.6764 52.2969 59.3635C52.2949 59.147 52.3372 58.9323 52.4213 58.7328C52.5053 58.5333 52.6294 58.3531 52.7859 58.2034C52.9423 58.0536 53.1278 57.9376 53.3308 57.8623C53.5338 57.7871 53.7501 57.7542 53.9664 57.7658ZM53.9664 60.5504C54.2001 60.5459 54.4273 60.4725 54.6194 60.3393C54.8116 60.2062 54.9601 60.0193 55.0465 59.8021C55.1328 59.5849 55.1531 59.347 55.1047 59.1183C55.0564 58.8896 54.9416 58.6803 54.7747 58.5165C54.6079 58.3528 54.3964 58.242 54.1668 58.1981C53.9372 58.1541 53.6998 58.1789 53.4842 58.2694C53.2687 58.3598 53.0847 58.5119 52.9552 58.7066C52.8258 58.9012 52.7567 59.1298 52.7567 59.3635C52.7544 59.5219 52.7843 59.6792 52.8446 59.8257C52.9048 59.9723 52.9942 60.105 53.1073 60.216C53.2204 60.327 53.3549 60.4138 53.5026 60.4713C53.6502 60.5288 53.808 60.5557 53.9664 60.5504Z" fill="#001464"/>
<path d="M57.1409 57.8082C57.8224 57.8082 58.1191 58.2093 58.1191 58.7016C58.1191 59.194 57.7931 59.5722 57.0692 59.5722H56.603V60.909H56.1562V57.7952L57.1409 57.8082ZM56.616 59.1711H57.1214C57.4474 59.1711 57.6692 58.9951 57.6692 58.682C57.6692 58.4538 57.5485 58.2093 57.1409 58.2093H56.616V59.1711Z" fill="#001464"/>
<path d="M23.9249 63.4067C23.6219 63.2466 23.2886 63.1521 22.9467 63.1295C22.6696 63.1295 22.4902 63.2306 22.4902 63.3838C22.4902 63.8566 24.0749 63.7099 24.0749 64.8087C24.0749 65.4087 23.5728 65.7543 22.8783 65.7543C22.4837 65.7612 22.0951 65.6572 21.7566 65.4543V64.7826C22.0585 65.0274 22.4313 65.168 22.8196 65.1837C23.1163 65.1837 23.276 65.0793 23.276 64.8967C23.276 64.3848 21.6914 64.5707 21.6914 63.4523C21.6914 62.9143 22.1577 62.5589 22.8783 62.5589C23.2436 62.5625 23.604 62.6448 23.9347 62.8002L23.9249 63.4067Z" fill="#001464"/>
<path d="M27.2551 62.598H27.93V65.7151H27.154V63.7686L26.3128 64.7467H26.1954L25.3541 63.7686V65.7151H24.5781V62.598H25.2531L26.2541 63.7555L27.2551 62.598Z" fill="#001464"/>
<path d="M31.8229 65.7152H30.9882L30.7306 65.0989H29.3383L29.1068 65.7152H28.2852L29.5405 62.6013H30.4502L31.8229 65.7152ZM30.0002 63.3447L29.5437 64.5544H30.5024L30.0002 63.3447Z" fill="#001464"/>
<path d="M34.5534 65.7151H32.1797V62.598H32.9557V65.1413H34.5534V65.7151Z" fill="#001464"/>
<path d="M37.362 65.7151H34.9883V62.598H35.7643V65.1413H37.362V65.7151Z" fill="#001464"/>
<path d="M42.0325 64.0979C41.8963 64.4508 41.6823 64.7684 41.4065 65.0272L42.0325 65.7152H41.0869L40.8587 65.4674C40.5677 65.6567 40.2276 65.7564 39.8805 65.7543C39.3164 65.7543 38.9023 65.4021 38.9023 64.9326C38.9023 64.5772 39.1208 64.2805 39.6001 64.0523C39.43 63.8606 39.33 63.6169 39.3164 63.361C39.3237 63.2446 39.3545 63.1308 39.407 63.0267C39.4596 62.9225 39.5327 62.8301 39.6221 62.7551C39.7114 62.6801 39.8151 62.624 39.9268 62.5903C40.0385 62.5565 40.1559 62.5459 40.2718 62.5589C40.8 62.5589 41.1717 62.8654 41.1717 63.2991C41.1545 63.4717 41.0917 63.6367 40.9897 63.7771C40.8877 63.9175 40.7502 64.0282 40.5913 64.0979L41.0152 64.587C41.1568 64.4421 41.2765 64.2773 41.3706 64.0979H42.0325ZM39.9457 64.4533C39.7273 64.5968 39.6197 64.7272 39.6197 64.8739C39.6247 64.9737 39.6684 65.0676 39.7414 65.1357C39.8144 65.2039 39.9111 65.2409 40.0109 65.2391C40.1838 65.228 40.35 65.1681 40.4902 65.0663L39.9457 64.4533ZM40.5555 63.3349C40.5551 63.2985 40.5473 63.2626 40.5324 63.2293C40.5176 63.1961 40.496 63.1663 40.469 63.1418C40.4421 63.1173 40.4104 63.0986 40.3758 63.087C40.3413 63.0753 40.3048 63.0709 40.2685 63.0741C40.2339 63.07 40.1988 63.0731 40.1654 63.0829C40.132 63.0928 40.1009 63.1094 40.0741 63.1317C40.0473 63.1539 40.0253 63.1814 40.0093 63.2124C39.9934 63.2434 39.984 63.2773 39.9816 63.3121C40.016 63.4778 40.1099 63.6252 40.2457 63.7262C40.4707 63.5958 40.5718 63.4849 40.5718 63.3349" fill="#001464"/>
<path d="M46.4315 62.598H47.1064V65.7151H46.3304V63.7686L45.4924 64.7467H45.3718L44.5338 63.7686V65.7151H43.7578V62.598H44.4328L45.4338 63.7555L46.4315 62.598Z" fill="#001464"/>
<path d="M50.1034 65.7151H47.8047V62.598H50.0708V63.1686H48.584V63.824H50.0023V64.3946H48.584V65.1413H50.1034V65.7151Z" fill="#001464"/>
<path d="M52.0681 62.6013C53.206 62.6013 53.7896 63.3089 53.7896 64.1599C53.7896 65.0109 53.2223 65.7152 51.98 65.7152H50.6758V62.6013H52.0681ZM51.4681 65.1478H51.9702C52.2297 65.1478 52.4785 65.0448 52.6619 64.8613C52.8453 64.6779 52.9484 64.4291 52.9484 64.1697C52.9484 63.9102 52.8453 63.6614 52.6619 63.478C52.4785 63.2945 52.2297 63.1915 51.9702 63.1915H51.4714L51.4681 65.1478Z" fill="#001464"/>
<path d="M55.1588 62.598H54.3828V65.7119H55.1588V62.598Z" fill="#001464"/>
<path d="M58.9615 62.6013V64.3653C58.9615 65.3989 58.2605 65.7543 57.4062 65.7543C56.503 65.7543 55.8477 65.3337 55.8477 64.3718V62.6013H56.6237V64.3881C56.6214 64.4878 56.6402 64.5867 56.679 64.6785C56.7178 64.7704 56.7756 64.8529 56.8486 64.9207C56.9217 64.9885 57.0083 65.04 57.1027 65.0719C57.1971 65.1037 57.2972 65.1152 57.3964 65.1054C57.501 65.1163 57.6067 65.104 57.7061 65.0694C57.8054 65.0349 57.8959 64.9789 57.9712 64.9055C58.0465 64.8321 58.1047 64.743 58.1417 64.6446C58.1788 64.5461 58.1937 64.4408 58.1855 64.3359V62.6013H58.9615Z" fill="#001464"/>
<path d="M62.3065 62.598H62.9847V65.7151H62.2087V63.7686L61.3674 64.7467H61.2501L60.4088 63.7686V65.7151H59.6328V62.598H60.3078L61.3088 63.7555L62.3065 62.598Z" fill="#001464"/>
<path d="M32.6618 67.7954H31.3412V68.7344H32.6161V69.1355H31.3412V70.1039H32.7042V70.5049H30.8945V67.3911H32.6618V67.7954Z" fill="#001464"/>
<path d="M36.0731 70.5049H35.6264V68.0823H35.6167L34.6581 69.2887H34.5831L33.6244 68.0823H33.6179V70.5049H33.168V67.3911H33.5886L34.6222 68.6692L35.6591 67.3911H36.0731V70.5049Z" fill="#001464"/>
<path d="M37.6943 67.3943C38.3725 67.3943 38.6725 67.7953 38.6725 68.2877C38.6725 68.78 38.3464 69.1583 37.6226 69.1583H37.1694V70.5081H36.7227V67.3943H37.6943ZM37.1694 68.7572H37.6747C38.0008 68.7572 38.2225 68.5811 38.2225 68.2681C38.2225 68.0399 38.0986 67.7953 37.6943 67.7953H37.1694V68.7572Z" fill="#001464"/>
<path d="M39.5131 70.1039H40.9217V70.5049H39.0664V67.3911H39.5131V70.1039Z" fill="#001464"/>
<path d="M42.8375 67.3519C43.15 67.366 43.4516 67.4715 43.7047 67.6554C43.9578 67.8393 44.1514 68.0934 44.2614 68.3863C44.3714 68.6792 44.393 68.9979 44.3235 69.303C44.254 69.608 44.0964 69.886 43.8704 70.1023C43.6444 70.3186 43.3598 70.4638 43.052 70.5199C42.7442 70.5759 42.4267 70.5404 42.1389 70.4176C41.8511 70.2949 41.6057 70.0903 41.4331 69.8294C41.2605 69.5684 41.1684 69.2625 41.168 68.9496C41.1659 68.7331 41.2083 68.5185 41.2923 68.3189C41.3764 68.1194 41.5005 67.9392 41.657 67.7895C41.8134 67.6398 41.9989 67.5237 42.2019 67.4484C42.4049 67.3732 42.6212 67.3403 42.8375 67.3519ZM42.8375 70.1365C43.0712 70.132 43.2984 70.0586 43.4905 69.9255C43.6827 69.7924 43.8312 69.6055 43.9176 69.3882C44.0039 69.171 44.0242 68.9331 43.9758 68.7044C43.9275 68.4757 43.8127 68.2664 43.6458 68.1027C43.479 67.939 43.2675 67.8282 43.0379 67.7842C42.8083 67.7402 42.5709 67.765 42.3553 67.8555C42.1398 67.9459 41.9558 68.098 41.8263 68.2927C41.6969 68.4873 41.6278 68.7159 41.6278 68.9496C41.6255 69.1081 41.6554 69.2653 41.7157 69.4119C41.7759 69.5584 41.8653 69.6912 41.9784 69.8021C42.0915 69.9131 42.226 70 42.3736 70.0574C42.5213 70.1149 42.6791 70.1418 42.8375 70.1365Z" fill="#001464"/>
<path d="M46.5727 67.3911H47.1139L45.9564 68.8616V70.5049H45.5097V68.8583L44.3555 67.3911H44.8935L45.7282 68.467L46.5727 67.3911Z" fill="#001464"/>
<path d="M49.2243 67.7954H47.907V68.7344H49.1786V69.1355H47.907V70.1039H49.2667V70.5049H47.457V67.3911H49.2243V67.7954Z" fill="#001464"/>
<path d="M50.5358 67.3944C51.1684 67.3944 51.5596 67.7205 51.5596 68.265C51.566 68.4313 51.5187 68.5952 51.4248 68.7326C51.3308 68.87 51.1952 68.9736 51.0379 69.028C51.3303 69.2599 51.5675 69.554 51.7324 69.8888C51.8661 70.104 51.9444 70.2148 52.1563 70.5083H51.6248L51.2107 69.8562C50.8032 69.204 50.6141 69.1454 50.3858 69.1454H50.2V70.4985H49.75V67.3846L50.5358 67.3944ZM50.2097 68.7541H50.4967C50.976 68.7541 51.1129 68.5063 51.1064 68.2454C51.0999 67.9846 50.9303 67.7759 50.4967 67.7759H50.2097V68.7541Z" fill="#001464"/>
<path d="M53.9799 68.0823C53.789 67.8815 53.5265 67.7643 53.2495 67.7563C52.9626 67.7563 52.7572 67.9063 52.7572 68.128C52.7572 68.7247 54.1038 68.7149 54.1038 69.7061C54.1053 69.8199 54.0834 69.9328 54.0397 70.0379C53.9959 70.1429 53.9311 70.2379 53.8492 70.317C53.7674 70.3961 53.6702 70.4576 53.5637 70.4978C53.4573 70.538 53.3437 70.5559 53.23 70.5506C52.9155 70.5573 52.6083 70.456 52.3594 70.2637V69.6963C52.4516 69.8306 52.574 69.9415 52.7166 70.0202C52.8593 70.0989 53.0183 70.1432 53.1811 70.1495C53.5267 70.1495 53.6865 69.9311 53.6865 69.755C53.6865 69.1029 52.3398 69.0409 52.3398 68.1867C52.3398 67.678 52.7148 67.3552 53.2854 67.3552C53.5336 67.3569 53.7755 67.433 53.9799 67.5737V68.0823Z" fill="#001464"/>
<path d="M61.6012 52.3924C61.7287 52.3907 61.8553 52.4151 61.973 52.4642C62.2064 52.5632 62.3923 52.7491 62.4914 52.9826C62.5405 53.1003 62.5649 53.2268 62.5631 53.3543C62.5588 53.5216 62.5117 53.6851 62.4262 53.829C62.3406 53.9729 62.2196 54.0925 62.0747 54.1762C61.9297 54.26 61.7657 54.3051 61.5983 54.3074C61.431 54.3096 61.2658 54.2689 61.1187 54.189C60.9738 54.1028 60.8527 53.9818 60.7665 53.8369C60.6816 53.6905 60.6369 53.5243 60.6367 53.355C60.6366 53.1858 60.6811 53.0196 60.7658 52.873C60.8504 52.7265 60.9723 52.6049 61.119 52.5205C61.2657 52.4361 61.432 52.392 61.6012 52.3924ZM61.6012 52.5783C61.4649 52.5776 61.3309 52.6136 61.2132 52.6826C61.0944 52.7493 60.9962 52.8474 60.9296 52.9663C60.8611 53.0841 60.8251 53.218 60.8251 53.3543C60.8251 53.4906 60.8611 53.6244 60.9296 53.7423C60.9981 53.8597 61.0958 53.9574 61.2132 54.026C61.3313 54.0935 61.4652 54.1284 61.6012 54.1271C61.7378 54.1292 61.8722 54.0931 61.9893 54.0227C62.1039 53.9562 62.1996 53.8612 62.267 53.747C62.3344 53.6328 62.3712 53.5032 62.374 53.3706C62.3742 53.2333 62.3382 53.0983 62.2697 52.9793C62.2023 52.863 62.1056 52.7663 61.9893 52.6989C61.8742 52.6248 61.7413 52.5831 61.6045 52.5783H61.6012ZM61.373 53.8825H61.1643V52.8619H61.6469C61.7119 52.8586 61.7767 52.8709 61.836 52.8978C61.8853 52.9175 61.9266 52.9531 61.9534 52.9989C61.9804 53.0454 61.9939 53.0984 61.9925 53.1521C61.9929 53.2215 61.966 53.2883 61.9175 53.338C61.8646 53.3941 61.7923 53.4279 61.7154 53.4326C61.7575 53.447 61.7948 53.473 61.823 53.5075C61.8655 53.5602 61.9026 53.617 61.9338 53.6771L62.0545 53.8825H61.7969L61.7121 53.7162C61.6818 53.6598 61.6481 53.6054 61.611 53.5532C61.5899 53.5232 61.562 53.4986 61.5295 53.4815C61.4966 53.4675 61.461 53.4608 61.4252 53.4619H61.373V53.8825ZM61.373 53.0217V53.2989H61.5393C61.5984 53.3019 61.6574 53.2919 61.7121 53.2695C61.7325 53.258 61.7489 53.2407 61.7594 53.2198C61.7698 53.1989 61.7738 53.1753 61.7708 53.1521C61.7712 53.1332 61.7666 53.1144 61.7574 53.0978C61.7483 53.0812 61.7349 53.0673 61.7186 53.0576C61.6699 53.0305 61.6145 53.0181 61.5589 53.0217H61.373Z" fill="#001464"/>
<path opacity="0.5" d="M30.3742 52.5685C30.1954 52.608 30.0108 52.6147 29.8297 52.588C29.7286 52.5587 29.4123 52.4511 29.2917 52.4315C29.171 52.412 28.7537 52.35 28.7145 52.1674C28.6754 51.9848 28.8319 51.8414 28.9395 51.7207C29.0471 51.6001 29.3667 51.2121 29.6536 51.1664L29.7807 51.1501H29.6634L29.7938 51.1273C29.7938 51.1273 28.9721 51.2218 28.9623 51.0066C28.9529 50.8633 28.9863 50.7205 29.0583 50.5962C29.1303 50.472 29.2376 50.372 29.3667 50.3089C29.3667 50.3089 28.9754 50.3676 29.0178 50.0611C29.0618 49.8046 29.1657 49.5622 29.321 49.3535C29.4253 49.2133 29.621 48.9394 29.709 48.8416C29.709 48.8416 29.2167 49.1677 28.9558 49.2948C28.695 49.4253 28.3428 49.5492 28.2711 49.5818C28.1994 49.6144 27.5929 49.8622 27.6712 49.4155C27.6035 49.5611 27.512 49.6945 27.4005 49.81C27.2016 50.0219 26.7321 50.4426 26.5984 50.3937C26.4647 50.3447 26.3571 50.1393 26.3147 49.8067C26.2795 49.5515 26.2795 49.2925 26.3147 49.0372C26.3147 49.0079 26.3147 48.9688 26.3147 48.9297C26.3418 48.6846 26.4021 48.4444 26.4941 48.2156C26.4941 48.2156 26.0278 48.9101 25.8844 48.809C25.7881 48.698 25.7275 48.5604 25.7107 48.4144C25.6938 48.2684 25.7214 48.1207 25.7898 47.9906C25.7898 47.9906 25.5387 48.3819 25.3953 48.0721C25.2518 47.7624 25.0333 47.2244 25.3105 46.7288C25.3105 46.7288 25.0464 47.2505 25.0105 47.3809C24.9376 47.6774 24.8349 47.9658 24.704 48.2417C24.6029 48.3558 24.4171 48.5677 24.378 48.3558C24.378 48.3558 24.378 48.5058 24.3551 48.6818C24.3482 48.7924 24.3285 48.9018 24.2965 49.0079C24.241 49.1448 24.228 49.3829 24.1073 49.4513C24.0643 49.4829 24.0142 49.5034 23.9614 49.511C23.9086 49.5186 23.8547 49.5132 23.8045 49.4952C23.7543 49.4772 23.7093 49.4471 23.6734 49.4076C23.6375 49.3681 23.6118 49.3205 23.5987 49.2688C23.5987 49.2688 23.7813 49.735 23.84 49.9209C23.9402 50.2207 24.0101 50.5298 24.0486 50.8436C24.0486 51.1371 24.0878 51.4566 23.9606 51.5381C23.8334 51.6196 23.3313 51.587 23.2465 51.4044C23.2465 51.4044 23.2465 51.6816 23.1194 51.7077C23.0226 51.7334 22.9278 51.7661 22.8357 51.8055C22.6908 51.7822 22.5544 51.7216 22.44 51.6295C22.3257 51.5374 22.2373 51.4172 22.1836 51.2805C22.2344 51.4867 22.3216 51.6821 22.4412 51.8577C22.6238 52.1055 22.6564 52.2228 22.7672 52.3826C22.8781 52.5424 22.9987 52.7641 22.927 52.8195C22.927 52.8195 23.1324 52.7902 23.3085 53.1456C23.4846 53.501 23.4487 53.8792 23.1552 53.9836C23.1552 53.9836 23.1063 54.0488 23.2694 54.0162C23.4719 53.9448 23.6928 53.9448 23.8954 54.0162C24.1334 54.127 24.4953 54.2574 24.4888 54.4824C24.4604 54.8273 24.3959 55.1683 24.2965 55.4997C24.2355 55.6514 24.1579 55.7957 24.0649 55.9301C24.0064 55.9821 23.9443 56.0301 23.8791 56.0736C24.0389 56.0458 24.1924 55.9894 24.3323 55.9073C24.5065 55.7854 24.7008 55.6949 24.9062 55.6399C25.1018 55.5812 25.2322 55.4671 25.3724 55.5225C25.5126 55.578 25.6692 55.591 25.6985 55.8127C25.7813 55.6025 25.9331 55.4266 26.1289 55.3139C26.4028 55.2095 26.4289 55.053 26.693 55.1834C26.9571 55.3139 26.9049 55.2193 27.1005 55.3954C27.2962 55.5715 27.5799 55.8551 27.5799 55.8551C27.5047 55.7209 27.4394 55.5814 27.3842 55.4378C27.3258 55.3096 27.2789 55.1765 27.244 55.04C27.2245 54.903 27.2114 54.7335 27.1951 54.652C27.1713 54.5681 27.1407 54.4864 27.1038 54.4074L27.0223 54.3031C27.0223 54.3031 28.4635 55.8095 30.1296 56.4518L30.1818 56.3051C30.1818 56.3051 24.541 54.0618 24.9779 48.7536C24.9779 48.6721 24.9779 48.5938 24.9975 48.509C25.017 48.4243 25.017 48.3199 25.017 48.3199C25.017 48.3819 25.017 48.4438 24.9975 48.509C24.9779 48.5742 24.9975 48.659 24.9975 48.7568C24.9605 49.8114 25.1614 50.8608 25.5853 51.8271C26.0092 52.7934 26.6452 53.652 27.4462 54.339C27.4462 54.339 27.4005 54.2737 27.5636 54.3846C27.7266 54.4955 27.7103 54.502 27.8505 54.5379C27.9873 54.5671 28.1223 54.6041 28.2548 54.6487C28.3814 54.6815 28.5039 54.7286 28.62 54.7889C28.6852 54.8388 28.7599 54.8749 28.8394 54.8951C28.919 54.9153 29.0019 54.9191 29.083 54.9063C29.083 54.9063 28.4961 54.6911 28.4309 54.2542C28.412 54.2306 28.399 54.2028 28.393 54.1732C28.387 54.1436 28.3883 54.113 28.3966 54.0839C28.4049 54.0549 28.42 54.0282 28.4407 54.0062C28.4614 53.9842 28.4871 53.9675 28.5156 53.9575C28.9294 53.7917 29.375 53.7204 29.8199 53.7488C29.8199 53.7488 29.2949 53.6379 29.4645 53.4814C29.634 53.3249 29.8101 53.1554 29.934 53.0641C30.1032 52.9429 30.2808 52.834 30.4655 52.738C30.6614 52.6438 30.8273 52.4971 30.9448 52.3141C30.7771 52.4425 30.5817 52.5296 30.3742 52.5685Z" fill="#001464"/>
<path opacity="0.6" d="M42.4297 14.2828V35.9656L45.3642 21.3582C45.3511 21.2927 45.3584 21.2247 45.3853 21.1634C45.4121 21.1022 45.4571 21.0507 45.5142 21.0159C45.5649 20.9707 45.6257 20.9382 45.6915 20.9212C45.7573 20.9042 45.8261 20.9031 45.8924 20.9181L48.9443 21.5017C49.0157 21.5098 49.0848 21.5319 49.1476 21.5668C49.2104 21.6018 49.2657 21.6488 49.3103 21.7051C49.3548 21.7615 49.3878 21.8261 49.4072 21.8953C49.4267 21.9645 49.4323 22.0368 49.4236 22.1082L48.9248 46.5625C48.9334 46.631 48.9277 46.7005 48.9079 46.7667C48.8882 46.8328 48.8548 46.8941 48.81 46.9465C48.7652 46.999 48.7099 47.0416 48.6477 47.0715C48.5855 47.1013 48.5177 47.1179 48.4487 47.1201L45.2599 47.4461C44.9338 47.4788 44.7936 47.3157 44.7969 46.9603L44.8816 34.8962L42.4297 44.7855V55.0074L62.5931 51.5414L64.9212 19.7508L42.4297 14.2828ZM61.2595 27.1295C61.2432 27.4229 61.0672 27.5468 60.7346 27.4979L56.6947 26.911L56.4763 31.7138L59.9325 32.0171C60.2585 32.0432 60.4118 32.2062 60.3922 32.5029L60.2194 35.3233C60.1999 35.62 60.0303 35.7602 59.7075 35.7504L56.2969 35.62L55.9709 42.4672L59.8118 42.2749C60.1379 42.2749 60.2748 42.3988 60.2553 42.6922L60.076 45.4931C60.0773 45.5579 60.0655 45.6224 60.0412 45.6826C60.0168 45.7427 59.9806 45.7973 59.9345 45.8431C59.8885 45.8888 59.8337 45.9247 59.7733 45.9486C59.713 45.9725 59.6485 45.9839 59.5836 45.9821L52.3679 46.7223C52.0419 46.7516 51.9082 46.6049 51.918 46.2789L52.6451 22.7049C52.6451 22.3788 52.8277 22.2451 53.1635 22.3103L60.9531 23.8004C61.2791 23.8656 61.4454 24.0417 61.4258 24.3384L61.2595 27.1295Z" fill="#001464"/>
<path d="M33.7063 14.0043L34.6733 18.8809L33.5446 19.1047L32.83 15.5008L31.7824 16.0462L31.6124 15.1888L33.6025 14.0249L33.7063 14.0043Z" fill="#001464"/>
</svg>
