<svg width="131" height="130" viewBox="0 0 131 130" fill="none" xmlns="http://www.w3.org/2000/svg">
<g clip-path="url(#clip0_2416_3795)">
<path d="M67.6496 2.3066L74.8764 7.93095C75.9997 8.80522 77.4704 9.09644 78.8422 8.71622L87.6926 6.26306C89.2391 5.8344 90.879 6.51242 91.6712 7.90803L96.1641 15.8225C96.8694 17.0649 98.1228 17.8987 99.5414 18.0689L108.641 19.1608C110.241 19.3528 111.504 20.6127 111.699 22.2125L112.793 31.1932C112.967 32.6189 113.81 33.876 115.064 34.5768L123.017 39.0229C124.43 39.8127 125.117 41.4682 124.678 43.0262L122.232 51.7165C121.842 53.1041 122.14 54.5949 123.033 55.7259L128.648 62.8299C129.653 64.102 129.653 65.898 128.648 67.1701L123.033 74.2741C122.14 75.4051 121.842 76.8959 122.232 78.2835L124.678 86.9738C125.117 88.5318 124.43 90.1873 123.017 90.9771L115.064 95.4232C113.81 96.124 112.967 97.3811 112.793 98.8068L111.699 107.787C111.504 109.387 110.241 110.647 108.641 110.839L99.5414 111.931C98.1228 112.101 96.8694 112.935 96.1641 114.178L91.6712 122.092C90.879 123.488 89.2391 124.166 87.6926 123.737L78.8422 121.284C77.4704 120.904 75.9997 121.195 74.8764 122.069L67.6496 127.693C66.3854 128.677 64.6146 128.677 63.3504 127.693L56.1236 122.069C55.0003 121.195 53.5296 120.904 52.1578 121.284L43.3074 123.737C41.7609 124.166 40.121 123.488 39.3288 122.092L34.8359 114.178C34.1306 112.935 32.8772 112.101 31.4586 111.931L22.3587 110.839C20.7586 110.647 19.4963 109.387 19.3014 107.787L18.2072 98.8068C18.0335 97.3811 17.1897 96.124 15.9361 95.4232L7.98294 90.9771C6.57017 90.1873 5.88321 88.5318 6.32173 86.9738L8.7677 78.2835C9.15826 76.8959 8.86039 75.4051 7.96657 74.2741L2.35234 67.1701C1.347 65.898 1.347 64.102 2.35234 62.8299L7.96657 55.7259C8.86039 54.5949 9.15826 53.1041 8.7677 51.7165L6.32173 43.0262C5.88321 41.4682 6.57017 39.8127 7.98294 39.0229L15.9361 34.5768C17.1897 33.876 18.0335 32.6189 18.2072 31.1932L19.3014 22.2125C19.4963 20.6127 20.7586 19.3528 22.3587 19.1608L31.4586 18.0689C32.8772 17.8987 34.1306 17.0649 34.8359 15.8225L39.3288 7.90803C40.121 6.51241 41.7609 5.8344 43.3074 6.26306L52.1578 8.71622C53.5296 9.09644 55.0003 8.80522 56.1236 7.93095L63.3504 2.30659C64.6146 1.32269 66.3854 1.32269 67.6496 2.3066Z" fill="white" stroke="url(#paint0_linear_2416_3795)"/>
<path opacity="0.8" d="M56.3177 36.9265L60.7775 36.2837C60.8754 36.2676 60.9756 36.2733 61.0711 36.3002C61.1665 36.3271 61.2549 36.3746 61.33 36.4394C61.4784 36.5597 61.597 36.7127 61.6765 36.8864L65.8401 55.3787V28.8506L31 35.3796L35.726 74.6444L37.9861 74.9608C38.0112 74.7147 38.0213 74.4586 38.0213 74.4586C38.0966 74.765 38.3829 74.4586 38.5235 74.2828C38.7251 73.8578 38.8832 73.4136 38.9956 72.9569C39.0508 72.7761 39.4576 71.9524 39.4576 71.9524C39.0307 72.7158 39.3672 73.5495 39.5882 74.0216C39.8092 74.4937 40.1959 73.8961 40.1959 73.8961C40.0905 74.0965 40.0481 74.324 40.0741 74.5489C40.1 74.7738 40.1933 74.9856 40.3416 75.1567C40.5626 75.3124 41.2757 74.2426 41.2757 74.2426C41.1383 74.596 41.0472 74.9657 41.0045 75.3425L45.0224 75.905C45.4242 75.6991 46.1826 75.2069 46.1826 75.2069C46.047 75.3576 45.7456 75.7795 45.5849 75.9954L65.7949 78.823V68.9491L62.2792 55.4841L62.4399 72.0579C62.4399 72.5601 62.229 72.7711 61.787 72.7359L57.2368 72.3492C57.1404 72.3498 57.0449 72.33 56.9567 72.291C56.8686 72.2521 56.7896 72.1949 56.7251 72.1233C56.6606 72.0517 56.6119 71.9672 56.5824 71.8754C56.5529 71.7836 56.5431 71.6866 56.5537 71.5908L55.6045 37.7351C55.5933 37.6342 55.6033 37.5321 55.6339 37.4353C55.6645 37.3385 55.715 37.2491 55.7821 37.173C55.8493 37.0968 55.9316 37.0356 56.0239 36.9931C56.1161 36.9507 56.2162 36.928 56.3177 36.9265V36.9265ZM52.4053 68.5121C52.1367 69.2099 51.7263 69.8444 51.1999 70.3754C50.6782 70.8881 50.0509 71.2806 49.3617 71.5255C48.6261 71.7843 47.8426 71.8786 47.0665 71.8018L45.2685 71.6461C44.4493 71.5752 43.6504 71.3521 42.913 70.9881C42.1762 70.6383 41.4984 70.1757 40.9041 69.617C40.3245 69.0755 39.8376 68.4427 39.4627 67.7437C39.087 67.0652 38.8562 66.3162 38.7847 65.5439L38.3929 61.285C38.3778 61.1956 38.3806 61.1041 38.4009 61.0157C38.4213 60.9274 38.459 60.844 38.5117 60.7702C38.5645 60.6965 38.6312 60.6339 38.7083 60.586C38.7853 60.5382 38.871 60.506 38.9604 60.4914L43.3449 59.4016C43.7668 59.276 43.9878 59.4016 44.0179 59.8586L44.4147 65.5489C44.4349 65.8578 44.5756 66.1464 44.8065 66.3525C45.0313 66.5732 45.3303 66.7022 45.6452 66.7141H46.0319C46.1774 66.7261 46.3238 66.7063 46.4608 66.656C46.5979 66.6057 46.7223 66.5261 46.8254 66.4228C46.9297 66.3224 47.01 66.1999 47.0604 66.0643C47.1108 65.9287 47.1301 65.7834 47.1167 65.6393L46.7451 59.4116C46.7008 59.041 46.6131 58.6769 46.4839 58.3268C46.3514 57.9931 46.1289 57.7027 45.8411 57.4881L39.0559 53.1889C38.5885 52.8717 38.1848 52.4696 37.8656 52.0036C37.5802 51.5084 37.4167 50.9523 37.3884 50.3814L36.8862 45.0627C36.8139 44.3012 36.9241 43.5333 37.2076 42.8228C37.497 42.0937 37.9213 41.4258 38.4582 40.854C39.0396 40.2438 39.7185 39.7346 40.4671 39.3473C41.259 38.923 42.1191 38.6408 43.0085 38.5136L45.0174 38.2223C45.8816 38.0897 46.7633 38.1255 47.614 38.3278C48.3946 38.5125 49.1294 38.8542 49.7736 39.3322C50.408 39.8172 50.9262 40.4377 51.2903 41.1484C51.6543 41.8592 51.8551 42.6423 51.8779 43.4405L51.9533 45.3088C51.9739 45.5145 51.9227 45.721 51.8082 45.8932C51.6937 46.0654 51.5232 46.1925 51.3255 46.253L46.7149 47.815C46.278 47.9757 46.052 47.8401 46.0219 47.3981L45.8411 44.3295C45.8301 44.1852 45.788 44.0449 45.7178 43.9184C45.6476 43.7918 45.5509 43.6819 45.4342 43.5962C45.3074 43.4997 45.1625 43.4296 45.0081 43.3899C44.8537 43.3502 44.6929 43.3418 44.5352 43.3652L44.1184 43.4104C43.7897 43.4433 43.4843 43.5951 43.2596 43.8373C43.1522 43.9454 43.0692 44.0754 43.0164 44.2184C42.9635 44.3613 42.942 44.514 42.9532 44.666L43.2445 48.8747C43.2917 49.1739 43.3813 49.4647 43.5107 49.7386C43.6607 50.0136 43.868 50.2534 44.1184 50.4417L50.9639 54.7609C51.4437 55.105 51.8178 55.5764 52.0437 56.122C52.2236 56.6373 52.3531 57.1688 52.4304 57.709L52.7669 66.1566C52.8101 66.9583 52.687 67.7603 52.4053 68.5121V68.5121Z" fill="#001464"/>
<path d="M95.3704 80.7013C95.5668 80.6986 95.7617 80.7362 95.943 80.8118C96.3026 80.9644 96.589 81.2507 96.7416 81.6104C96.8171 81.7916 96.8547 81.9865 96.852 82.1829C96.8455 82.4407 96.7728 82.6924 96.6411 82.9141C96.5094 83.1358 96.323 83.3199 96.0997 83.4489C95.8764 83.5779 95.6238 83.6475 95.366 83.6509C95.1082 83.6544 94.8538 83.5916 94.6271 83.4686C94.4039 83.3359 94.2175 83.1494 94.0847 82.9262C93.9539 82.7007 93.885 82.4447 93.8848 82.1841C93.8846 81.9234 93.9531 81.6673 94.0836 81.4416C94.214 81.2159 94.4016 81.0286 94.6276 80.8986C94.8535 80.7687 95.1098 80.7006 95.3704 80.7013V80.7013ZM95.3704 80.9876C95.1604 80.9865 94.954 81.0421 94.7728 81.1483C94.5897 81.2509 94.4385 81.4021 94.3358 81.5852C94.2304 81.7668 94.1749 81.973 94.1749 82.1829C94.1749 82.3928 94.2304 82.599 94.3358 82.7806C94.4414 82.9614 94.5919 83.1119 94.7728 83.2175C94.9547 83.3215 95.1609 83.3753 95.3704 83.3732C95.5808 83.3766 95.7878 83.3209 95.9681 83.2125C96.1448 83.11 96.2921 82.9637 96.3959 82.7878C96.4997 82.6119 96.5564 82.4122 96.5607 82.208C96.561 81.9965 96.5056 81.7886 96.4 81.6053C96.2963 81.4261 96.1473 81.2772 95.9681 81.1734C95.7909 81.0592 95.5861 80.995 95.3755 80.9876H95.3704ZM95.0189 82.9965H94.6975V81.4245H95.4408C95.5409 81.4194 95.6408 81.4384 95.7321 81.4798C95.808 81.5101 95.8716 81.5649 95.9129 81.6355C95.9544 81.7071 95.9753 81.7888 95.9731 81.8715C95.9737 81.9784 95.9322 82.0813 95.8576 82.1578C95.7761 82.2442 95.6648 82.2962 95.5462 82.3034C95.6112 82.3257 95.6686 82.3657 95.712 82.419C95.7775 82.5001 95.8347 82.5876 95.8827 82.6801L96.0686 82.9965H95.6718L95.5412 82.7404C95.4946 82.6535 95.4426 82.5697 95.3855 82.4893C95.353 82.443 95.31 82.4051 95.26 82.3788C95.2092 82.3572 95.1544 82.347 95.0992 82.3486H95.0189V82.9965ZM95.0189 81.6706V82.0975H95.275C95.366 82.1023 95.4569 82.0868 95.5412 82.0523C95.5726 82.0346 95.5979 82.0079 95.614 81.9757C95.6301 81.9435 95.6363 81.9072 95.6316 81.8715C95.6322 81.8423 95.6251 81.8135 95.611 81.7879C95.5969 81.7623 95.5763 81.7409 95.5513 81.7259C95.4762 81.6842 95.3908 81.665 95.3052 81.6706H95.0189Z" fill="#001464"/>
<path opacity="0.5" d="M47.2724 80.9725C46.997 81.0334 46.7128 81.0436 46.4337 81.0026C46.278 80.9574 45.7908 80.7916 45.605 80.7615C45.4192 80.7314 44.7763 80.636 44.716 80.3547C44.6558 80.0735 44.8968 79.8525 45.0626 79.6666C45.2283 79.4808 45.7205 78.8832 46.1625 78.8128L46.3583 78.7877H46.1775L46.3784 78.7526C46.3784 78.7526 45.1128 78.8982 45.0977 78.5667C45.0832 78.346 45.1347 78.126 45.2456 77.9346C45.3565 77.7432 45.5218 77.5891 45.7205 77.492C45.7205 77.492 45.1178 77.5824 45.1831 77.1103C45.2509 76.7153 45.4109 76.3419 45.6502 76.0204V76.0204C45.8109 75.8044 46.1122 75.3826 46.2478 75.2319C46.2478 75.2319 45.4895 75.7341 45.0877 75.93C44.6859 76.1309 44.1435 76.3218 44.033 76.372C43.9225 76.4222 42.9883 76.8039 43.1089 76.1158C43.0047 76.3402 42.8638 76.5456 42.692 76.7235C42.3857 77.05 41.6624 77.6979 41.4565 77.6225C41.2506 77.5472 41.0849 77.2308 41.0196 76.7185C40.9652 76.3253 40.9652 75.9265 41.0196 75.5332C41.0196 75.488 41.0196 75.4278 41.0196 75.3675C41.0612 74.99 41.1542 74.62 41.2958 74.2676C41.2958 74.2676 40.5776 75.3374 40.3566 75.1817C40.2083 75.0106 40.1151 74.7988 40.0891 74.5739C40.0631 74.349 40.1056 74.1214 40.211 73.9211C40.211 73.9211 39.8243 74.5237 39.6033 74.0466C39.3823 73.5695 39.0458 72.7408 39.4727 71.9774C39.4727 71.9774 39.0659 72.781 39.0106 72.9819C38.8983 73.4386 38.7401 73.8828 38.5385 74.3078C38.3828 74.4836 38.0966 74.81 38.0363 74.4836C38.0363 74.4836 38.0363 74.7146 38.0011 74.9858C37.9905 75.1561 37.9601 75.3247 37.9107 75.488C37.8254 75.699 37.8053 76.0656 37.6194 76.1711C37.5531 76.2196 37.4759 76.2512 37.3946 76.263C37.3133 76.2747 37.2303 76.2664 37.153 76.2386C37.0756 76.2108 37.0063 76.1645 36.951 76.1037C36.8957 76.0429 36.8562 75.9695 36.836 75.8898C36.836 75.8898 37.1172 76.608 37.2076 76.8943C37.362 77.3561 37.4696 77.8323 37.529 78.3156C37.529 78.7676 37.5893 79.2598 37.3934 79.3854C37.1976 79.5109 36.4241 79.4607 36.2935 79.1795C36.2935 79.1795 36.2935 79.6064 36.0977 79.6466C35.9486 79.6863 35.8026 79.7366 35.6607 79.7972C35.4375 79.7614 35.2274 79.6679 35.0512 79.5262C34.8751 79.3844 34.739 79.1991 34.6562 78.9886C34.7345 79.3062 34.8689 79.6072 35.053 79.8776C35.3343 80.2593 35.3845 80.4401 35.5553 80.6862C35.726 80.9323 35.9118 81.2738 35.8013 81.3592C35.8013 81.3592 36.1178 81.314 36.389 81.8614C36.6602 82.4088 36.6049 82.9914 36.1529 83.1522C36.1529 83.1522 36.0776 83.2526 36.3287 83.2024C36.6407 83.0925 36.9809 83.0925 37.293 83.2024C37.6596 83.3731 38.2171 83.574 38.2071 83.9206C38.1632 84.4518 38.0639 84.977 37.9107 85.4876C37.8169 85.7211 37.6973 85.9435 37.5541 86.1505C37.4639 86.2306 37.3682 86.3045 37.2679 86.3715C37.514 86.3286 37.7505 86.2419 37.966 86.1153C38.2343 85.9276 38.5335 85.7882 38.8499 85.7035C39.1513 85.6131 39.3522 85.4373 39.5681 85.5227C39.7841 85.6081 40.0251 85.6282 40.0703 85.9697C40.1979 85.6459 40.4317 85.375 40.7333 85.2013C41.1552 85.0406 41.1954 84.7995 41.6022 85.0004C42.009 85.2013 41.9286 85.0556 42.23 85.3268C42.5313 85.598 42.9682 86.035 42.9682 86.035C42.8525 85.8282 42.7518 85.6133 42.6669 85.3921C42.5769 85.1947 42.5046 84.9896 42.4509 84.7794C42.4208 84.5685 42.4007 84.3073 42.3756 84.1817C42.3389 84.0526 42.2919 83.9267 42.235 83.8051L42.1094 83.6444C42.1094 83.6444 44.3293 85.9647 46.8957 86.9541L46.9761 86.7281C46.9761 86.7281 38.2874 83.2727 38.9604 75.0963C38.9604 74.9707 38.9604 74.8502 38.9905 74.7196C39.0207 74.589 39.0207 74.4283 39.0207 74.4283C39.0207 74.5237 39.0207 74.6192 38.9905 74.7196C38.9604 74.8201 38.9905 74.9507 38.9905 75.1013C38.9336 76.7257 39.2431 78.3421 39.896 79.8305C40.549 81.319 41.5286 82.6414 42.7623 83.6996C42.7623 83.6996 42.692 83.5991 42.9431 83.7699C43.1943 83.9407 43.1691 83.9507 43.3851 84.006C43.5958 84.0509 43.8037 84.108 44.0079 84.1767C44.2029 84.2273 44.3916 84.2997 44.5704 84.3927C44.6708 84.4695 44.7858 84.5252 44.9084 84.5562C45.031 84.5873 45.1586 84.5932 45.2836 84.5735C45.2836 84.5735 44.3795 84.242 44.2791 83.569C44.25 83.5327 44.23 83.4899 44.2208 83.4443C44.2116 83.3987 44.2135 83.3515 44.2262 83.3067C44.239 83.262 44.2624 83.2209 44.2943 83.1871C44.3262 83.1532 44.3658 83.1274 44.4097 83.112C45.047 82.8566 45.7334 82.7468 46.4186 82.7905C46.4186 82.7905 45.61 82.6198 45.8712 82.3787C46.1323 82.1376 46.4035 81.8765 46.5944 81.7359C46.855 81.5493 47.1286 81.3814 47.413 81.2336C47.7148 81.0885 47.9704 80.8625 48.1513 80.5807C47.8931 80.7784 47.592 80.9126 47.2724 80.9725Z" fill="#001464"/>
<path opacity="0.6" d="M65.8398 22V55.3987L70.36 32.8985C70.3398 32.7975 70.3511 32.6928 70.3924 32.5984C70.4337 32.5041 70.5031 32.4248 70.591 32.3712C70.6691 32.3015 70.7627 32.2515 70.8641 32.2253C70.9654 32.1991 71.0715 32.1975 71.1736 32.2205L75.8745 33.1195C75.9845 33.1319 76.0909 33.166 76.1877 33.2198C76.2844 33.2736 76.3695 33.346 76.4382 33.4328C76.5068 33.5197 76.5576 33.6192 76.5875 33.7258C76.6175 33.8323 76.6261 33.9438 76.6128 34.0537L75.8444 71.7213C75.8577 71.8268 75.8489 71.9339 75.8184 72.0357C75.788 72.1376 75.7366 72.232 75.6676 72.3128C75.5986 72.3937 75.5134 72.4592 75.4176 72.5052C75.3218 72.5513 75.2174 72.5768 75.1111 72.5801L70.1992 73.0824C69.697 73.1326 69.4811 72.8815 69.4861 72.334L69.6167 53.7513L65.8398 68.9841V84.7292L96.8981 79.3905L100.484 30.4225L65.8398 22ZM94.8439 41.7881C94.8188 42.2401 94.5476 42.4309 94.0353 42.3556L87.8127 41.4516L87.4762 48.8495L92.7998 49.3166C93.3021 49.3568 93.5381 49.6079 93.508 50.0649L93.2418 54.4093C93.2117 54.8663 92.9505 55.0823 92.4533 55.0672L87.1999 54.8663L86.6977 65.4132L92.614 65.1169C93.1163 65.1169 93.3272 65.3078 93.2971 65.7598L93.0208 70.074C93.0229 70.1739 93.0047 70.2732 92.9672 70.3659C92.9298 70.4586 92.8739 70.5427 92.803 70.6131C92.7321 70.6835 92.6476 70.7389 92.5547 70.7757C92.4618 70.8125 92.3624 70.8301 92.2625 70.8273L81.148 71.9674C80.6458 72.0126 80.4398 71.7866 80.4549 71.2844L81.5749 34.9727C81.5749 34.4705 81.8561 34.2646 82.3734 34.365L94.3718 36.6603C94.8741 36.7607 95.1302 37.0319 95.1001 37.4889L94.8439 41.7881Z" fill="#001464"/>
<path d="M32.6827 33.9128L32.4517 32.7326L33.1749 31.703C34.2346 30.2014 34.7519 29.3476 34.6213 28.6193C34.5209 28.1071 34.1492 27.8108 33.4963 27.9363C32.964 28.0418 32.5371 28.4285 32.2358 28.765L31.4824 27.4592C31.8993 26.9721 32.6426 26.4799 33.5616 26.2991C35.0482 26.0078 36.1029 26.726 36.3691 28.1171C36.59 29.2471 36.0326 30.2968 35.4048 31.1204L34.8825 31.7984V31.8185L37.1274 31.3816L37.4388 32.9887L32.6827 33.9128Z" fill="#001464"/>
<path d="M43.0848 28.2225C43.4866 30.2967 42.9944 32.0344 41.2718 32.3709C39.4387 32.7275 38.4091 31.0701 38.0526 29.227C37.6809 27.3185 38.0626 25.4301 39.8756 25.0786C41.7389 24.717 42.7383 26.4245 43.0848 28.2275V28.2225ZM39.8204 28.8704C40.1067 30.4022 40.5285 30.9948 41.0056 30.9044C41.4576 30.814 41.6083 30.1008 41.312 28.5841C41.0207 27.0975 40.6239 26.4647 40.1619 26.5551C39.6999 26.6455 39.5291 27.3436 39.8254 28.8704H39.8204Z" fill="#001464"/>
<path d="M44.9718 31.5222L44.7408 30.3419L45.464 29.3124C46.5237 27.8107 47.041 26.9569 46.9104 26.2287C46.8099 25.7165 46.4333 25.4201 45.7854 25.5457C45.253 25.6512 44.8262 26.0379 44.5248 26.3744L43.7715 25.0686C44.1883 24.5814 44.9316 24.0893 45.8507 23.9084C47.3373 23.6172 48.3919 24.3353 48.6581 25.7265C48.8791 26.8565 48.3267 27.9062 47.6939 28.7298L47.1715 29.4078V29.4279L49.4165 28.991L49.7279 30.5981L44.9768 31.5222H44.9718Z" fill="#001464"/>
<path d="M51.048 28.4284C51.3443 28.5288 52.0374 28.6745 52.6501 28.554C53.2829 28.4334 53.6495 28.102 53.549 27.5997C53.4386 27.0272 52.8409 26.8615 52.2483 26.972L51.5854 27.1025L51.3142 25.7164L51.947 25.5959C52.3889 25.5105 52.9213 25.2493 52.8258 24.7622C52.7555 24.4056 52.404 24.2248 51.8415 24.3353C51.3091 24.4407 50.7868 24.7973 50.5608 25.0032L49.9531 23.6673C50.3047 23.3057 51.0731 22.8989 51.962 22.7231C53.3833 22.4469 54.3627 23.0697 54.5585 24.0741C54.7042 24.8224 54.443 25.4703 53.7098 25.9273V25.9474C54.4983 25.9424 55.2365 26.4496 55.4123 27.3637C55.6634 28.6544 54.7594 29.7442 53.092 30.0657C52.2131 30.2364 51.4397 30.151 50.9927 29.9552L51.043 28.4234L51.048 28.4284Z" fill="#001464"/>
<path d="M44.6991 92.5863H46.8118V93.1892H44.0215V88.5004H44.6991V92.5863Z" fill="#001464"/>
<path d="M50.0553 89.1083H48.0722V90.5234H49.9906V91.1263H48.0722V92.5863H50.1201V93.1892H47.3945V88.5004H50.0553V89.1083Z" fill="#001464"/>
<path d="M53.0604 89.5318C52.6618 89.1531 52.2781 89.0434 51.9592 89.0434C51.5257 89.0434 51.2168 89.2727 51.2168 89.6015C51.2168 90.5034 53.2448 90.4885 53.2448 91.9783C53.2448 92.7158 52.6867 93.2489 51.9293 93.2489C51.4211 93.2489 51.0075 93.1094 50.6139 92.8154V91.9634C50.9577 92.4018 51.3912 92.646 51.8496 92.646C52.3728 92.646 52.612 92.3171 52.612 92.053C52.612 91.0864 50.584 90.9768 50.584 89.6862C50.584 88.9239 51.147 88.4355 52.0091 88.4355C52.3678 88.4355 52.7266 88.5452 53.0554 88.7644V89.5318H53.0604Z" fill="#001464"/>
<path d="M60.2508 93.1892H59.5781V89.5418H59.5631L58.1181 91.3555H58.0085L56.5635 89.5418H56.5535V93.1892H55.8809V88.5004H56.5087L58.0633 90.4237L59.6229 88.5004H60.2508V93.1892Z" fill="#001464"/>
<path d="M63.9186 89.1083H61.9355V90.5234H63.8538V91.1263H61.9355V92.5863H63.9834V93.1892H61.2578V88.5004H63.9186V89.1083Z" fill="#001464"/>
<path d="M65.3719 88.5004H64.6992V93.1892H65.3719V88.5004Z" fill="#001464"/>
<path d="M67.082 92.5863H69.1996V93.1892H66.4043V88.5004H67.082V92.5863Z" fill="#001464"/>
<path d="M70.4461 92.5863H72.5638V93.1892H69.7734V88.5004H70.4461V92.5863Z" fill="#001464"/>
<path d="M75.8073 89.1083H73.8241V90.5234H75.7425V91.1263H73.8241V92.5863H75.8721V93.1892H73.1465V88.5004H75.8073V89.1083Z" fill="#001464"/>
<path d="M80.5243 91.3455C80.5243 92.4916 79.8367 93.2489 78.4415 93.2489C77.45 93.2489 76.4883 92.6909 76.4883 91.4153V88.5003H77.161V91.2708C77.161 91.799 77.2307 92.0182 77.445 92.2325C77.714 92.5015 78.0479 92.6311 78.4565 92.6311C78.9747 92.6311 79.3434 92.4666 79.5577 92.2524C79.7969 92.0132 79.8517 91.6694 79.8517 91.2259V88.4954H80.5243V91.3455Z" fill="#001464"/>
<path d="M82.6477 88.5003C83.5944 88.5003 84.1874 89.0036 84.1874 89.8108C84.1874 90.3539 83.9034 90.7575 83.4051 90.9569C83.8336 91.2409 84.0927 91.6744 84.4515 92.2574C84.6508 92.5812 84.7704 92.7407 85.0893 93.1842H84.2871L83.6692 92.2225C83.0513 91.2608 82.7673 91.1512 82.4235 91.1512H82.1395V93.1842H81.4668V88.4954H82.6477V88.5003ZM82.1395 90.5483H82.573C83.2955 90.5483 83.4998 90.1795 83.4948 89.7859C83.4898 89.3474 83.2257 89.0783 82.573 89.0783H82.1395V90.5483Z" fill="#001464"/>
<path d="M87.8289 89.5318C87.4303 89.1531 87.0466 89.0434 86.7277 89.0434C86.2942 89.0434 85.9853 89.2727 85.9853 89.6015C85.9853 90.5034 88.0132 90.4885 88.0132 91.9783C88.0132 92.7158 87.4552 93.2489 86.7028 93.2489C86.1945 93.2489 85.781 93.1094 85.3873 92.8154V91.9634C85.7311 92.4018 86.1646 92.646 86.6231 92.646C87.1462 92.646 87.3854 92.3171 87.3854 92.053C87.3854 91.0864 85.3574 90.9768 85.3574 89.6862C85.3574 88.9239 85.9205 88.4355 86.7825 88.4355C87.1413 88.4355 87.495 88.5452 87.8289 88.7644V89.5318Z" fill="#001464"/>
<path d="M34.0107 95.7155C35.082 95.7155 35.5654 96.4629 35.5654 97.1056C35.5654 97.7634 35.097 98.5208 34.0207 98.5208H33.0889V100.404H31.918V95.7155H34.0107ZM33.0889 97.6637H33.632C34.1702 97.6637 34.3595 97.4694 34.3595 97.1206C34.3595 96.722 34.1353 96.5775 33.5025 96.5775H33.0889V97.6637Z" fill="#001464"/>
<path d="M39.8506 100.404H36.3926V95.7155H39.8058V96.5775H37.5635V97.5591H39.7011V98.4211H37.5635V99.5472H39.8506V100.404Z" fill="#001464"/>
<path d="M44.9783 96.5775H43.2792V100.404H42.1132V96.5775H40.4141V95.7155H44.9783V96.5775Z" fill="#001464"/>
<path d="M46.8975 95.7155H45.7266V100.404H46.8975V95.7155Z" fill="#001464"/>
<path d="M52.2088 96.5775H50.5096V100.404H49.3437V96.5775H47.6445V95.7155H52.2088V96.5775Z" fill="#001464"/>
<path d="M56.0648 96.9362C55.3821 96.6323 54.9785 96.5177 54.5799 96.5177C54.1613 96.5177 53.8923 96.6671 53.8923 96.9013C53.8923 97.6089 56.279 97.4096 56.279 99.0439C56.279 99.9458 55.5216 100.469 54.4802 100.469C53.6631 100.469 53.2545 100.255 52.7911 100.016V99.0041C53.4637 99.4525 53.8773 99.607 54.3905 99.607C54.839 99.607 55.0782 99.4475 55.0782 99.1735C55.0782 98.4061 52.6914 98.6852 52.6914 97.001C52.6914 96.1888 53.394 95.6556 54.4802 95.6556C55.0034 95.6556 55.4768 95.7653 56.0697 96.0194V96.9362H56.0648Z" fill="#001464"/>
<path d="M62.4483 100.404H58.9902V95.7155H62.3985V96.5775H60.1612V97.5591H62.2988V98.4211H60.1612V99.5472H62.4483V100.404Z" fill="#001464"/>
<path d="M67.576 96.5775H65.8768V100.404H64.7109V96.5775H63.0117V95.7155H67.576V96.5775Z" fill="#001464"/>
<path d="M74.2225 95.7155H75.239V100.404H74.068V97.4794L72.8074 98.9493H72.628L71.3624 97.4794V100.404H70.1914V95.7155H71.2079L72.7177 97.4544L74.2225 95.7155Z" fill="#001464"/>
<path d="M78.7599 100.469C77.0409 100.469 76.0742 99.2582 76.0742 98.0623C76.0742 96.9263 76.996 95.6556 78.7599 95.6556C80.5288 95.6556 81.4407 96.9362 81.4407 98.0623C81.4407 99.2632 80.4441 100.469 78.7599 100.469ZM78.7599 96.6323C77.868 96.6323 77.2751 97.2003 77.2751 98.0623C77.2751 98.9194 77.868 99.4924 78.7599 99.4924C79.6469 99.4924 80.2398 98.9243 80.2398 98.0623C80.2398 97.2003 79.6469 96.6323 78.7599 96.6323Z" fill="#001464"/>
<path d="M83.0654 98.2118L81.2168 95.7155H82.6319L83.6484 97.1904L84.6749 95.7155H86.085L84.2314 98.2118V100.404H83.0654V98.2118Z" fill="#001464"/>
<path d="M90.0772 100.404H86.6191V95.7155H90.0274V96.5775H87.7851V97.5591H89.9277V98.4211H87.7851V99.5472H90.0772V100.404Z" fill="#001464"/>
<path d="M95.7182 100.404H94.7366L92.1456 97.3996V100.404H90.9746V95.7155H92.0509L94.5522 98.5855V95.7155H95.7182V100.404Z" fill="#001464"/>
<path d="M99.9183 96.9362C99.2356 96.6323 98.832 96.5177 98.4334 96.5177C98.0148 96.5177 97.7458 96.6671 97.7458 96.9013C97.7458 97.6089 100.133 97.4096 100.133 99.0439C100.133 99.9458 99.3752 100.469 98.3337 100.469C97.5166 100.469 97.108 100.255 96.6446 100.016V99.0041C97.3173 99.4525 97.7308 99.607 98.2441 99.607C98.6925 99.607 98.9317 99.4475 98.9317 99.1735C98.9317 98.4061 96.5449 98.6852 96.5449 97.001C96.5449 96.1888 97.2475 95.6556 98.3337 95.6556C98.8569 95.6556 99.3303 95.7653 99.9233 96.0194V96.9362H99.9183Z" fill="#001464"/>
<path d="M48.7789 103.538H46.7957V104.953H48.7141V105.561H46.7957V107.016H48.8436V107.624H46.123V102.935H48.7789V103.538Z" fill="#001464"/>
<path d="M53.9159 107.624H53.2432V103.972H53.2283L51.7833 105.786H51.6736L50.2286 103.972H50.2187V107.624H49.541V102.935H50.1738L51.7285 104.859L53.2881 102.935H53.9159V107.624Z" fill="#001464"/>
<path d="M56.3536 102.936C57.3801 102.936 57.8435 103.538 57.8435 104.281C57.8435 105.018 57.3502 105.591 56.2639 105.591H55.5613V107.619H54.8887V102.931H56.3536V102.936ZM55.5663 104.988H56.3287C56.832 104.988 57.1558 104.719 57.1558 104.251C57.1558 103.907 56.9715 103.533 56.3586 103.533H55.5663V104.988Z" fill="#001464"/>
<path d="M59.0995 107.016H61.2122V107.624H58.4219V102.935H59.0995V107.016Z" fill="#001464"/>
<path d="M64.1081 102.871C65.6528 102.871 66.6294 103.972 66.6294 105.277C66.6294 106.543 65.6827 107.684 64.0932 107.684C62.5585 107.684 61.5918 106.548 61.5918 105.277C61.5918 103.977 62.5884 102.871 64.1081 102.871ZM64.1081 107.066C65.1595 107.066 65.9368 106.304 65.9368 105.277C65.9368 104.246 65.1595 103.489 64.1081 103.489C63.0617 103.489 62.2844 104.246 62.2844 105.277C62.2894 106.304 63.0617 107.066 64.1081 107.066Z" fill="#001464"/>
<path d="M69.7321 102.935H70.5443L68.8003 105.148V107.624H68.1277V105.143L66.3887 102.935H67.2009L68.4565 104.55L69.7321 102.935Z" fill="#001464"/>
<path d="M73.7194 103.538H71.7313V104.953H73.6496V105.561H71.7313V107.016H73.7792V107.624H71.0586V102.935H73.7194V103.538Z" fill="#001464"/>
<path d="M78.4325 105.781C78.4325 106.927 77.7449 107.684 76.3497 107.684C75.3582 107.684 74.3965 107.126 74.3965 105.85V102.936H75.0692V105.706C75.0692 106.234 75.1389 106.453 75.3532 106.668C75.6223 106.937 75.9561 107.066 76.3647 107.066C76.8779 107.066 77.2516 106.902 77.4659 106.688C77.7051 106.448 77.7599 106.105 77.7599 105.661V102.931H78.4325V105.781Z" fill="#001464"/>
<path d="M80.5559 102.935C81.5026 102.935 82.0956 103.439 82.0956 104.251C82.0956 104.794 81.8116 105.198 81.3133 105.397C81.7418 105.681 82.0009 106.109 82.3597 106.697C82.559 107.021 82.6736 107.181 82.9975 107.624H82.1953L81.5774 106.663C80.9595 105.701 80.6755 105.591 80.3317 105.591H80.0477V107.624H79.375V102.935H80.5559ZM80.0477 104.983H80.4812C81.2037 104.983 81.408 104.615 81.403 104.221C81.398 103.782 81.1339 103.513 80.4812 103.513H80.0477V104.983Z" fill="#001464"/>
<path d="M85.7371 103.967C85.3385 103.588 84.9548 103.479 84.6359 103.479C84.2024 103.479 83.8935 103.708 83.8935 104.037C83.8935 104.939 85.9215 104.924 85.9215 106.413C85.9215 107.151 85.3634 107.684 84.611 107.684C84.1027 107.684 83.6892 107.545 83.2955 107.251V106.399C83.6393 106.837 84.0728 107.081 84.5313 107.081C85.0544 107.081 85.2936 106.752 85.2936 106.488C85.2936 105.517 83.2656 105.407 83.2656 104.121C83.2656 103.359 83.8287 102.871 84.6907 102.871C85.0495 102.871 85.4082 102.98 85.7371 103.2V103.967Z" fill="#001464"/>
</g>
<defs>
<linearGradient id="paint0_linear_2416_3795" x1="-56.8198" y1="64.895" x2="160.941" y2="64.3883" gradientUnits="userSpaceOnUse">
<stop offset="0.317708" stop-color="#E43425"/>
<stop offset="0.71875" stop-color="#441FD8"/>
<stop offset="1" stop-color="#0A26B8"/>
</linearGradient>
<clipPath id="clip0_2416_3795">
<rect width="131" height="130" fill="white"/>
</clipPath>
</defs>
</svg>
