<svg width="26" height="24" viewBox="0 0 26 24" fill="none" xmlns="http://www.w3.org/2000/svg">
<path d="M15.1579 5.05263V2.52632H10.1053V5.05263H15.1579ZM2.52632 8.8421V20.2105C2.52632 20.9053 3.09474 21.4737 3.78947 21.4737H21.4737C22.1684 21.4737 22.7368 20.9053 22.7368 20.2105V8.8421C22.7368 8.14737 22.1684 7.57895 21.4737 7.57895H3.78947C3.09474 7.57895 2.52632 8.14737 2.52632 8.8421ZM22.7368 5.05263C24.1389 5.05263 25.2632 6.17684 25.2632 7.57895V21.4737C25.2632 22.8758 24.1389 24 22.7368 24H2.52632C1.12421 24 0 22.8758 0 21.4737L0.0126316 7.57895C0.0126316 6.17684 1.12421 5.05263 2.52632 5.05263H7.57895V2.52632C7.57895 1.12421 8.70316 0 10.1053 0H15.1579C16.56 0 17.6842 1.12421 17.6842 2.52632V5.05263H22.7368Z" fill="url(#paint0_linear_3616_1021)"/>
<defs>
<linearGradient id="paint0_linear_3616_1021" x1="-10.9576" y1="11.9806" x2="31.0372" y2="11.8785" gradientUnits="userSpaceOnUse">
<stop offset="0.317708" stop-color="#E43425"/>
<stop offset="0.71875" stop-color="#441FD8"/>
<stop offset="1" stop-color="#0A26B8"/>
</linearGradient>
</defs>
</svg>
