<svg width="25" height="19" viewBox="0 0 25 19" fill="none" xmlns="http://www.w3.org/2000/svg">
<path d="M11.7026 14.5742C11.7026 15.7201 11.2371 16.7227 10.3062 17.582C9.39307 18.4414 8.3099 18.8711 7.05664 18.8711C5.08724 18.8711 3.57438 18.2176 2.51807 16.9106C1.46175 15.6037 0.933594 13.7954 0.933594 11.4858C0.933594 9.3374 1.83773 7.17106 3.646 4.98682C5.47217 2.80257 7.66536 1.14648 10.2256 0.0185547L11.4072 1.92529C9.38411 2.90999 7.79964 4.05583 6.65381 5.36279C5.50798 6.66976 4.84554 8.25423 4.6665 10.1162H6.17041C7.28044 10.1162 8.18457 10.2415 8.88281 10.4922C9.58105 10.7428 10.145 11.092 10.5747 11.5396C10.9865 11.9692 11.2729 12.4437 11.4341 12.9629C11.6131 13.4821 11.7026 14.0192 11.7026 14.5742ZM24.9424 14.5742C24.9424 15.7201 24.4769 16.7227 23.5459 17.582C22.6328 18.4414 21.5496 18.8711 20.2964 18.8711C18.327 18.8711 16.8141 18.2176 15.7578 16.9106C14.7015 15.6037 14.1733 13.7954 14.1733 11.4858C14.1733 9.3374 15.0775 7.17106 16.8857 4.98682C18.7119 2.80257 20.9051 1.14648 23.4653 0.0185547L24.647 1.92529C22.6239 2.90999 21.0394 4.05583 19.8936 5.36279C18.7477 6.66976 18.0853 8.25423 17.9062 10.1162H19.4102C20.5202 10.1162 21.4243 10.2415 22.1226 10.4922C22.8208 10.7428 23.3848 11.092 23.8145 11.5396C24.2262 11.9692 24.5127 12.4437 24.6738 12.9629C24.8529 13.4821 24.9424 14.0192 24.9424 14.5742Z" fill="#001464"/>
</svg>
