<svg id="Layer_1" data-name="Layer 1" xmlns="http://www.w3.org/2000/svg" xmlns:xlink="http://www.w3.org/1999/xlink" width="25" height="31" viewBox="0 0 25 31"><defs><linearGradient id="linear-gradient" x1="-10.75" y1="16.44" x2="30.8" y2="16.52" gradientTransform="matrix(1, 0, 0, -1, 0, 32)" gradientUnits="userSpaceOnUse"><stop offset="0.32" stop-color="#e43425"/><stop offset="0.72" stop-color="#441fd8"/><stop offset="1" stop-color="#0a26b8"/></linearGradient></defs><circle cx="12.5" cy="12.6" r="5.2" style="fill:#fff"/><path d="M12.6,0A12.5,12.5,0,0,0,.1,12.9c0,5,3.8,10.9,11.5,17.7a1.5,1.5,0,0,0,2,0c7.7-6.8,11.5-12.7,11.5-17.7A12.5,12.5,0,0,0,12.6,0Zm0,15.8a3.2,3.2,0,0,1-3.1-3.2,3.1,3.1,0,0,1,6.2,0A3.2,3.2,0,0,1,12.6,15.8Z" transform="translate(-0.1)" style="fill:url(#linear-gradient)"/></svg>