<?xml version="1.0" encoding="UTF-8"?><svg id="Layer_1" xmlns="http://www.w3.org/2000/svg" xmlns:xlink="http://www.w3.org/1999/xlink" viewBox="0 0 169.57 24.69"><defs><linearGradient id="linear-gradient" x1="44.81" y1="-35.25" x2="167.07" y2="51.07" gradientTransform="translate(0 28.72) scale(1 -1)" gradientUnits="userSpaceOnUse"><stop offset=".32" stop-color="#e43425"/><stop offset=".72" stop-color="#441fd8"/><stop offset="1" stop-color="#0a26b8"/></linearGradient></defs><path d="M74.22,3.4h85.85c5.25,0,9.5,4.25,9.5,9.5h0c0,5.25-4.25,9.5-9.5,9.5h-85.85c-5.25,0-9.5-4.25-9.5-9.5h0c0-5.25,4.25-9.5,9.5-9.5Z" style="fill:url(#linear-gradient); stroke-width:0px;"/><path d="M82.06,7.68c.25-.54,1.02-.54,1.28,0l1.14,2.46c.1.22.31.37.55.4l2.7.33c.59.07.83.81.39,1.21l-1.99,1.85c-.18.17-.26.41-.21.65l.52,2.67c.12.59-.51,1.04-1.03.75l-2.37-1.32c-.21-.12-.47-.12-.68,0l-2.37,1.32c-.52.29-1.15-.16-1.03-.75l.52-2.67c.05-.24-.03-.49-.21-.65l-1.99-1.85c-.44-.41-.2-1.14.39-1.21l2.7-.33c.24-.03.45-.18.55-.4l1.14-2.46Z" style="fill:#fff; stroke-width:0px;"/><path d="M99.24,7.68c.25-.54,1.02-.54,1.28,0l1.14,2.46c.1.22.31.37.55.4l2.7.33c.59.07.83.81.39,1.21l-1.99,1.85c-.18.17-.26.41-.21.65l.52,2.67c.12.59-.51,1.04-1.03.75l-2.37-1.32c-.21-.12-.47-.12-.68,0l-2.37,1.32c-.52.29-1.15-.16-1.03-.75l.52-2.67c.05-.24-.03-.49-.21-.65l-1.99-1.85c-.44-.41-.2-1.14.39-1.21l2.7-.33c.24-.03.45-.18.55-.4l1.14-2.46Z" style="fill:#fff; stroke-width:0px;"/><path d="M116.43,7.68c.25-.54,1.02-.54,1.28,0l1.14,2.46c.1.22.31.37.55.4l2.7.33c.59.07.83.81.4,1.21l-1.99,1.85c-.18.17-.26.41-.21.65l.52,2.67c.11.59-.51,1.04-1.03.75l-2.37-1.32c-.21-.12-.47-.12-.68,0l-2.37,1.32c-.52.29-1.15-.16-1.03-.75l.52-2.67c.05-.24-.03-.49-.21-.65l-1.99-1.85c-.44-.41-.2-1.14.4-1.21l2.7-.33c.24-.03.45-.18.55-.4l1.14-2.46Z" style="fill:#fff; stroke-width:0px;"/><path d="M133.62,7.68c.25-.54,1.02-.54,1.28,0l1.14,2.46c.1.22.31.37.55.4l2.7.33c.59.07.83.81.39,1.21l-1.99,1.85c-.18.17-.26.41-.21.65l.52,2.67c.12.59-.51,1.04-1.03.75l-2.37-1.32c-.21-.12-.47-.12-.68,0l-2.37,1.32c-.52.29-1.15-.16-1.03-.75l.52-2.67c.05-.24-.03-.49-.21-.65l-1.99-1.85c-.44-.41-.2-1.14.39-1.21l2.7-.33c.24-.03.45-.18.55-.4l1.14-2.46Z" style="fill:#fff; stroke-width:0px;"/><path d="M17.61,14.98v4.29H.33l-.33-3.4L9.65.35h4.39l-4.77,7.8-3.96,6.83h12.3ZM15.19.35v24.01h-5.56V.35h5.56ZM20.89,21.75c0-.79.29-1.45.86-1.98.57-.54,1.31-.81,2.21-.81s1.65.27,2.21.81c.57.53.86,1.19.86,1.98s-.29,1.46-.86,2c-.56.53-1.3.79-2.21.79s-1.64-.26-2.21-.79c-.57-.54-.86-1.2-.86-2ZM36.07,10.03h2.7c.69,0,1.26-.12,1.7-.36.45-.25.79-.6,1.01-1.06.22-.46.33-1.01.33-1.63,0-.48-.1-.93-.31-1.34-.2-.41-.51-.73-.92-.97-.42-.25-.95-.38-1.6-.38-.44,0-.87.09-1.29.28-.42.18-.76.43-1.04.76-.26.33-.4.73-.4,1.2h-5.57c0-1.36.37-2.53,1.12-3.5.76-.98,1.75-1.73,2.99-2.24,1.24-.53,2.58-.79,4.01-.79,1.7,0,3.2.26,4.49.79,1.29.52,2.29,1.29,3,2.31.73,1.01,1.09,2.27,1.09,3.76,0,.82-.19,1.6-.58,2.33-.38.73-.92,1.36-1.62,1.91s-1.51.98-2.44,1.3c-.92.31-1.94.46-3.03.46h-3.63v-2.84ZM36.07,14.17v-2.77h3.63c1.2,0,2.29.14,3.28.41.99.26,1.84.66,2.56,1.19.71.53,1.26,1.18,1.65,1.96.38.77.58,1.65.58,2.66,0,1.12-.23,2.12-.68,3-.45.88-1.08,1.62-1.9,2.23-.81.6-1.76,1.07-2.85,1.39-1.09.31-2.27.46-3.55.46-1,0-2-.13-3-.4-1-.27-1.91-.69-2.74-1.25-.82-.57-1.49-1.3-2-2.18-.49-.89-.74-1.95-.74-3.18h5.57c0,.51.14.97.41,1.39.29.41.67.73,1.14.97.47.24.98.36,1.53.36.68,0,1.26-.13,1.73-.38.48-.26.85-.62,1.11-1.06.25-.44.38-.93.38-1.47,0-.81-.14-1.46-.41-1.95-.26-.48-.65-.84-1.17-1.06-.51-.22-1.12-.33-1.83-.33h-2.7Z" style="fill:#001464; stroke-width:0px;"/><path d="M150.8,7.68c.25-.54,1.02-.54,1.28,0l1.15,2.46c.1.22.31.37.55.4l2.7.33c.6.07.83.81.4,1.21l-1.99,1.85c-.18.17-.26.41-.21.65l.52,2.67c.11.59-.51,1.04-1.03.75l-2.37-1.32c-.21-.12-.47-.12-.68,0l-2.37,1.32c-.52.29-1.15-.16-1.03-.75l.52-2.67c.05-.24-.03-.49-.21-.65l-1.99-1.85c-.44-.41-.2-1.14.39-1.21l2.7-.33c.24-.03.45-.18.55-.4l1.14-2.46Z" style="fill:#fff; isolation:isolate; opacity:.5; stroke-width:0px;"/><path d="M149.92,9.57l-.26.57c-.1.22-.31.37-.55.4l-2.7.33c-.6.07-.83.81-.4,1.21l1.99,1.85c.18.17.26.41.21.65l-.52,2.67c-.12.59.51,1.04,1.03.75l1.2-.67v-7.76Z" style="fill:#fff; stroke-width:0px;"/></svg>