<svg width="36" height="34" viewBox="0 0 36 34" fill="none" xmlns="http://www.w3.org/2000/svg">
<path d="M9.90503 22.7766C9.70747 22.7766 9.51798 22.8548 9.37829 22.9941C9.2386 23.1333 9.16016 23.3221 9.16016 23.519V24.1844C9.16016 24.3813 9.2386 24.5701 9.37829 24.7093C9.51798 24.8485 9.70747 24.9268 9.90503 24.9268C10.0027 24.9268 10.0994 24.9075 10.1896 24.8702C10.2797 24.8328 10.3616 24.7781 10.4305 24.7091C10.4994 24.6401 10.5539 24.5583 10.591 24.4682C10.628 24.3782 10.6468 24.2817 10.6464 24.1844V23.519C10.6468 23.4217 10.628 23.3252 10.591 23.2352C10.5539 23.1451 10.4994 23.0633 10.4305 22.9943C10.3616 22.9253 10.2797 22.8706 10.1896 22.8332C10.0994 22.7959 10.0027 22.7766 9.90503 22.7766Z" fill="url(#paint0_linear_3701_775)"/>
<path d="M9.90503 7.59644C10.1016 7.59644 10.2902 7.51858 10.4292 7.38001C10.5683 7.24144 10.6464 7.05352 10.6464 6.85755V6.18868C10.6468 6.09136 10.628 5.99489 10.591 5.90484C10.5539 5.81479 10.4994 5.73294 10.4305 5.66396C10.3616 5.59497 10.2797 5.54024 10.1896 5.50289C10.0994 5.46553 10.0027 5.44629 9.90503 5.44629C9.70747 5.44629 9.51798 5.52452 9.37829 5.66375C9.2386 5.80297 9.16016 5.99179 9.16016 6.18868V6.85755C9.16109 7.05384 9.23995 7.24175 9.37954 7.38022C9.51913 7.51869 9.70808 7.59644 9.90503 7.59644Z" fill="url(#paint1_linear_3701_775)"/>
<path d="M17.3735 22.6366C17.5126 22.4969 17.5905 22.3081 17.5905 22.1113C17.5905 21.9146 17.5126 21.7258 17.3735 21.586L16.3195 20.553C16.1793 20.4144 15.9899 20.3367 15.7924 20.3367C15.595 20.3367 15.4056 20.4144 15.2654 20.553C15.1961 20.622 15.1412 20.7038 15.1037 20.794C15.0662 20.8841 15.0469 20.9807 15.0469 21.0783C15.0469 21.1759 15.0662 21.2725 15.1037 21.3626C15.1412 21.4527 15.1961 21.5346 15.2654 21.6036L16.3195 22.6541C16.4599 22.7924 16.6491 22.8703 16.8465 22.8712C17.0464 22.8657 17.2359 22.7813 17.3735 22.6366Z" fill="url(#paint2_linear_3701_775)"/>
<path d="M3.46473 9.81952C3.60348 9.95817 3.79177 10.0363 3.98825 10.0366C4.08613 10.0369 4.1831 10.0179 4.27355 9.98059C4.36401 9.94332 4.44616 9.88859 4.51528 9.81952C4.58497 9.7508 4.64029 9.66901 4.67805 9.57885C4.7158 9.48869 4.73526 9.39194 4.73526 9.29424C4.73526 9.19654 4.7158 9.09979 4.67805 9.00962C4.64029 8.91946 4.58497 8.83767 4.51528 8.76896L3.63342 7.88999C3.56448 7.82053 3.48237 7.76539 3.39191 7.72776C3.30144 7.69013 3.20442 7.67078 3.10639 7.67078C3.00836 7.67078 2.91129 7.69013 2.82083 7.72776C2.73036 7.76539 2.6483 7.82053 2.57936 7.88999C2.50967 7.9587 2.4543 8.04053 2.41655 8.1307C2.37879 8.22086 2.35938 8.31756 2.35938 8.41527C2.35938 8.51297 2.37879 8.60971 2.41655 8.69988C2.4543 8.79004 2.50967 8.87183 2.57936 8.94055L3.46473 9.81952Z" fill="url(#paint3_linear_3701_775)"/>
<path d="M16.1707 7.89708L15.2888 8.77605C15.2195 8.845 15.1646 8.92688 15.1271 9.01702C15.0896 9.10715 15.0703 9.20376 15.0703 9.30133C15.0703 9.3989 15.0896 9.49551 15.1271 9.58564C15.1646 9.67577 15.2195 9.75766 15.2888 9.82661C15.4293 9.96483 15.6184 10.0428 15.8158 10.0437C16.0132 10.0428 16.2024 9.96483 16.3429 9.82661L17.2248 8.94764C17.294 8.87869 17.349 8.7968 17.3865 8.70667C17.4239 8.61654 17.4432 8.51993 17.4432 8.42236C17.4432 8.32479 17.4239 8.22818 17.3865 8.13804C17.349 8.04791 17.294 7.96603 17.2248 7.89708C17.1556 7.82804 17.0734 7.77329 16.983 7.73592C16.8926 7.69855 16.7956 7.67932 16.6977 7.67932C16.5998 7.67932 16.5029 7.69855 16.4125 7.73592C16.322 7.77329 16.2399 7.82804 16.1707 7.89708Z" fill="url(#paint4_linear_3701_775)"/>
<path d="M3.46199 20.5527L2.42551 21.5857C2.35625 21.6547 2.30131 21.7365 2.26382 21.8267C2.22633 21.9168 2.20703 22.0134 2.20703 22.111C2.20703 22.2086 2.22633 22.3052 2.26382 22.3953C2.30131 22.4854 2.35625 22.5673 2.42551 22.6363C2.56426 22.7749 2.75255 22.853 2.94903 22.8534C3.04691 22.8537 3.14387 22.8346 3.23433 22.7974C3.32479 22.7601 3.40694 22.7053 3.47606 22.6363L4.53012 21.5857C4.59981 21.517 4.65513 21.4352 4.69289 21.345C4.73065 21.2549 4.7501 21.1581 4.7501 21.0604C4.7501 20.9627 4.73065 20.866 4.69289 20.7759C4.65513 20.6857 4.59981 20.6039 4.53012 20.5352C4.45978 20.4647 4.37591 20.4091 4.2835 20.3717C4.1911 20.3343 4.09205 20.3158 3.99232 20.3175C3.8926 20.3191 3.79424 20.3408 3.70312 20.3812C3.61199 20.4216 3.52997 20.4799 3.46199 20.5527Z" fill="url(#paint5_linear_3701_775)"/>
<path d="M13.5909 22.118C13.5148 21.9365 13.3696 21.7926 13.1871 21.7177C13.0046 21.6429 12.7998 21.6433 12.6176 21.7188C12.5276 21.756 12.4458 21.8105 12.377 21.8792C12.3081 21.9479 12.2535 22.0295 12.2163 22.1193C12.1791 22.209 12.16 22.3052 12.1602 22.4023C12.1603 22.4995 12.1796 22.5956 12.2171 22.6853L12.8706 24.2646C12.9288 24.4017 13.0268 24.5183 13.152 24.5995C13.2773 24.6806 13.424 24.7226 13.5733 24.7199C13.6709 24.7199 13.7676 24.7008 13.8579 24.6638C14.04 24.588 14.1844 24.4433 14.2595 24.2614C14.3346 24.0796 14.3342 23.8754 14.2585 23.6938L13.5909 22.118Z" fill="url(#paint6_linear_3701_775)"/>
<path d="M6.2105 8.24763C6.26853 8.38511 6.36637 8.5022 6.49155 8.58392C6.61674 8.66564 6.76357 8.7083 6.91321 8.70639C7.01109 8.70556 7.10782 8.68531 7.19778 8.64684C7.3796 8.57165 7.52416 8.42779 7.59987 8.24669C7.67559 8.06558 7.6763 7.86195 7.60185 7.68033L6.75507 5.64226C6.6789 5.46079 6.53393 5.31663 6.35165 5.2412C6.16937 5.16578 5.96458 5.16519 5.78185 5.23954C5.5998 5.31537 5.45537 5.4601 5.38028 5.64196C5.30518 5.82382 5.30555 6.02797 5.38131 6.20956L6.2105 8.24763Z" fill="url(#paint7_linear_3701_775)"/>
<path d="M12.901 8.71295C13.0506 8.71486 13.1974 8.67224 13.3226 8.59052C13.4478 8.5088 13.5457 8.39171 13.6037 8.25423L14.2572 6.67839C14.333 6.4968 14.3334 6.29265 14.2583 6.11079C14.1832 5.92892 14.0387 5.7842 13.8567 5.70836C13.7663 5.67107 13.6693 5.65192 13.5715 5.65198C13.4736 5.65204 13.3767 5.6713 13.2863 5.7087C13.1959 5.7461 13.1138 5.80091 13.0447 5.86995C12.9756 5.93899 12.9208 6.02093 12.8834 6.11108L12.2299 7.68692C12.192 7.77653 12.1722 7.87274 12.1719 7.97C12.1715 8.06725 12.1905 8.16361 12.2278 8.2535C12.265 8.34339 12.3198 8.425 12.3889 8.49365C12.458 8.5623 12.5401 8.61663 12.6305 8.65344C12.7162 8.68982 12.8079 8.70998 12.901 8.71295Z" fill="url(#paint8_linear_3701_775)"/>
<path d="M7.18322 21.7193C7.00102 21.6437 6.79619 21.6434 6.61372 21.7182C6.43125 21.7931 6.28605 21.937 6.20996 22.1185L5.55644 23.6978C5.5191 23.7877 5.49989 23.884 5.5 23.9813C5.50011 24.0786 5.5195 24.1749 5.55704 24.2647C5.59459 24.3545 5.64955 24.436 5.71878 24.5046C5.78801 24.5732 5.87014 24.6275 5.96047 24.6643C6.05065 24.7017 6.14742 24.7207 6.24508 24.7204C6.39462 24.724 6.54175 24.6824 6.66716 24.6012C6.79258 24.5199 6.89042 24.4028 6.94779 24.2651L7.60482 22.6858C7.6412 22.5948 7.65915 22.4974 7.65762 22.3995C7.6561 22.3015 7.63514 22.2049 7.59595 22.115C7.55675 22.0252 7.50011 21.9439 7.42928 21.876C7.35844 21.8081 7.27481 21.7548 7.18322 21.7193Z" fill="url(#paint9_linear_3701_775)"/>
<path d="M0.744869 15.8009H1.41245C1.61 15.8009 1.79945 15.7228 1.93914 15.5835C2.07883 15.4443 2.15732 15.2555 2.15732 15.0586C2.15732 14.8617 2.07883 14.6728 1.93914 14.5336C1.79945 14.3944 1.61 14.3162 1.41245 14.3162H0.744869C0.547317 14.3162 0.357872 14.3944 0.218181 14.5336C0.0784906 14.6728 0 14.8617 0 15.0586C0 15.2555 0.0784906 15.4443 0.218181 15.5835C0.357872 15.7228 0.547317 15.8009 0.744869 15.8009Z" fill="url(#paint10_linear_3701_775)"/>
<path d="M18.7992 14.3162H18.1316C17.934 14.3162 17.7446 14.3944 17.6049 14.5336C17.4652 14.6728 17.3867 14.8617 17.3867 15.0586C17.3867 15.2555 17.4652 15.4443 17.6049 15.5835C17.7446 15.7228 17.934 15.8009 18.1316 15.8009H18.7992C18.9967 15.8009 19.1862 15.7228 19.3259 15.5835C19.4656 15.4443 19.544 15.2555 19.544 15.0586C19.544 14.8617 19.4656 14.6728 19.3259 14.5336C19.1862 14.3944 18.9967 14.3162 18.7992 14.3162Z" fill="url(#paint11_linear_3701_775)"/>
<path d="M3.22383 17.7654C3.18649 17.6752 3.1317 17.5933 3.06257 17.5242C2.99343 17.4552 2.91131 17.4004 2.82092 17.363C2.73054 17.3256 2.63366 17.3063 2.53579 17.3063C2.43793 17.3062 2.341 17.3254 2.25057 17.3627L0.669479 18.0175C0.57916 18.0543 0.497086 18.1086 0.427966 18.1773C0.358846 18.2459 0.304037 18.3276 0.266785 18.4174C0.229534 18.5073 0.210576 18.6037 0.210943 18.701C0.211309 18.7982 0.231002 18.8944 0.26893 18.984C0.325344 19.1226 0.422845 19.2408 0.548401 19.3228C0.673957 19.4048 0.821596 19.4466 0.971639 19.4427C1.0693 19.4431 1.16607 19.4241 1.25626 19.3867L2.83735 18.7319C3.01663 18.6541 3.15784 18.5089 3.23022 18.3279C3.30261 18.1469 3.3003 17.9447 3.22383 17.7654Z" fill="url(#paint12_linear_3701_775)"/>
<path d="M19.7436 10.9402C19.6674 10.7596 19.5228 10.6164 19.3412 10.5416C19.1595 10.4668 18.9556 10.4666 18.7738 10.541L16.7289 11.3849C16.5471 11.4601 16.4025 11.604 16.3268 11.7851C16.2511 11.9662 16.2504 12.1698 16.3249 12.3515C16.3821 12.4895 16.4798 12.6072 16.6051 12.689C16.7305 12.7708 16.8778 12.8131 17.0276 12.8102C17.1252 12.8102 17.2219 12.7912 17.3122 12.7542L19.3571 11.9102C19.5366 11.8318 19.6779 11.6859 19.7502 11.5043C19.8226 11.3227 19.8202 11.12 19.7436 10.9402Z" fill="url(#paint13_linear_3701_775)"/>
<path d="M18.8792 18.0176L17.2981 17.3628C17.2077 17.3255 17.1108 17.3063 17.0129 17.3064C16.9151 17.3065 16.8181 17.3257 16.7278 17.3631C16.6374 17.4005 16.5553 17.4553 16.4862 17.5244C16.417 17.5934 16.3622 17.6753 16.3249 17.7655C16.2504 17.9471 16.2511 18.1507 16.3268 18.3318C16.4025 18.5129 16.5471 18.6568 16.7289 18.732L18.31 19.3869C18.4003 19.4239 18.497 19.4429 18.5946 19.4429C18.7445 19.4457 18.8917 19.4035 19.017 19.3216C19.1424 19.2398 19.2401 19.1222 19.2973 18.9841C19.3338 18.8933 19.3519 18.7963 19.3506 18.6985C19.3494 18.6007 19.3287 18.5041 19.2898 18.4143C19.251 18.3245 19.1947 18.2432 19.1242 18.1751C19.0538 18.107 18.9705 18.0535 18.8792 18.0176Z" fill="url(#paint14_linear_3701_775)"/>
<path d="M0.662445 12.0995L2.24354 12.7543C2.33383 12.7913 2.43053 12.8103 2.52816 12.8103C2.678 12.8132 2.82521 12.771 2.95058 12.6891C3.07595 12.6073 3.17363 12.4896 3.23087 12.3516C3.30152 12.1708 3.298 11.9696 3.22109 11.7914C3.14417 11.6132 3.00003 11.4723 2.81977 11.3991L1.23867 10.7442C1.05644 10.67 0.852133 10.6707 0.670423 10.7462C0.488712 10.8217 0.344375 10.9657 0.26893 11.147C0.196291 11.3255 0.196845 11.5252 0.270431 11.7034C0.344017 11.8815 0.484759 12.0237 0.662445 12.0995Z" fill="url(#paint15_linear_3701_775)"/>
<path d="M7.29583 10.0163C6.31176 10.0172 5.36821 10.407 4.67204 11.1002C3.97586 11.7934 3.58389 12.7334 3.58203 13.7142C3.58203 17.4472 8.78559 20.6969 9.37938 21.0681L9.51641 21.1522C9.63354 21.2209 9.76697 21.2572 9.90289 21.2572C10.0388 21.2572 10.1722 21.2209 10.2894 21.1522L10.4229 21.0681C11.0167 20.7179 16.2202 17.4612 16.2202 13.7142C16.2184 12.7334 15.8264 11.7934 15.1302 11.1002C14.4341 10.407 13.4905 10.0172 12.5064 10.0163C11.534 10.0129 10.5991 10.3901 9.90289 11.0668C9.20563 10.3896 8.26941 10.0123 7.29583 10.0163ZM10.5529 12.6566C10.7444 12.3067 11.0267 12.0144 11.3704 11.8105C11.7141 11.6066 12.1065 11.4985 12.5064 11.4975C13.0966 11.4975 13.6627 11.731 14.0803 12.1466C14.498 12.5622 14.7331 13.126 14.734 13.7142C14.734 16.3056 10.9148 18.967 9.89937 19.6324C8.09693 18.4873 5.07177 15.9834 5.07177 13.7142C5.0727 13.1266 5.30732 12.5633 5.72421 12.1478C6.1411 11.7323 6.70625 11.4985 7.29583 11.4975C7.69595 11.4977 8.0886 11.6055 8.43241 11.8095C8.77622 12.0135 9.05848 12.3062 9.24938 12.6566C9.31393 12.7731 9.40858 12.8703 9.52349 12.938C9.6384 13.0057 9.76939 13.0416 9.90289 13.0418C10.0359 13.0417 10.1665 13.0059 10.2809 12.9381C10.3952 12.8703 10.4892 12.7731 10.5529 12.6566Z" fill="url(#paint16_linear_3701_775)"/>
<path d="M34.9687 16.214C34.0271 15.1635 32.0736 12.9993 31.7257 12.362C31.487 11.881 31.4284 11.3308 31.5606 10.8106C31.6775 9.35827 31.4059 7.90102 30.7735 6.58739C29.4243 4.13608 26.1533 0.00386146 19.3511 0.00386146H11.4947H11.4596C11.4211 -0.00128715 11.3821 -0.00128715 11.3437 0.00386146H11.291L11.2066 0.0319037C11.1684 0.0494836 11.132 0.0705628 11.0977 0.0949134C10.9973 0.164542 10.9158 0.257978 10.8606 0.366787C10.8054 0.475595 10.7782 0.596373 10.7815 0.718256C10.7861 0.802207 10.8039 0.884902 10.8342 0.963369C10.8342 0.963369 10.8342 0.991382 10.8342 1.00539C10.8902 1.13764 10.9856 1.24958 11.1075 1.326C11.2294 1.40241 11.372 1.43964 11.5158 1.43265H12.1799C18.037 1.54471 20.8443 5.08508 22.0178 7.23873C22.4891 8.25634 22.7061 9.37258 22.6502 10.492C22.4588 11.3427 22.5719 12.2334 22.97 13.0098C23.3213 13.6751 24.5546 15.0864 26.4097 17.149C26.6109 17.338 26.7659 17.5704 26.863 17.8284C26.6633 17.9404 26.4494 18.0252 26.227 18.0805C26.1162 18.1093 26.0071 18.1444 25.9003 18.1856C25.6488 18.275 25.4222 18.4226 25.239 18.6161C25.0558 18.8097 24.9211 19.0438 24.8462 19.2992C24.7478 19.6739 24.7549 20.2657 25.3381 20.9765C25.3873 21.0361 25.4014 21.0781 25.4084 21.0676C25.2942 21.2303 25.1374 21.3587 24.9551 21.4388C24.8206 21.4991 24.707 21.5978 24.6288 21.7225C24.5506 21.8472 24.5113 21.9922 24.5159 22.1392C24.5178 22.2849 24.5628 22.4267 24.6453 22.547C24.7278 22.6672 24.8442 22.7605 24.9797 22.815C25.0511 22.849 25.1144 22.8979 25.1653 22.9583C25.2162 23.0187 25.2536 23.0892 25.2749 23.1652C25.218 23.2396 25.1413 23.2966 25.0535 23.3298C23.9995 23.8516 23.6024 24.755 23.9995 25.8756C24.2876 26.7336 24.263 27.0243 24.2173 27.1679C24.1049 27.518 23.5532 28.0923 21.1148 27.9838C18.5359 27.8752 17.401 29.5211 17.1516 30.4351C16.937 31.2108 16.8282 32.0117 16.8283 32.8164C16.8283 32.9775 16.8283 33.1035 16.8072 33.1666C16.7812 33.361 16.8335 33.5578 16.9527 33.714C17.0719 33.8702 17.2482 33.973 17.4432 34H17.5486C17.7279 33.9991 17.9009 33.9339 18.0357 33.8161C18.1706 33.6984 18.2584 33.5361 18.2829 33.3591C18.2829 33.2366 18.304 33.0755 18.3145 32.8514C18.3122 32.1825 18.3972 31.5162 18.5675 30.8693V30.8168C18.5675 30.8168 18.9751 29.36 21.027 29.4476H21.3327C21.116 29.7354 20.9518 30.059 20.8478 30.4036C20.635 31.1796 20.5263 31.9803 20.5246 32.7848C20.5246 32.9459 20.5245 33.072 20.507 33.135C20.481 33.3295 20.5333 33.5263 20.6524 33.6825C20.7716 33.8387 20.948 33.9415 21.143 33.9685H21.2448C21.4243 33.9683 21.5977 33.9033 21.7327 33.7855C21.8678 33.6676 21.9554 33.5049 21.9792 33.3276C21.9983 33.159 22.0088 32.9896 22.0108 32.8199C22.0115 32.151 22.0977 31.485 22.2673 30.8378C22.2673 30.8378 22.2673 30.8028 22.2673 30.7853C22.2673 30.7678 22.6819 29.3285 24.7267 29.416H25.0324C24.8144 29.703 24.6501 30.0269 24.5476 30.3721C24.3329 31.1477 24.2242 31.9487 24.2243 32.7533C24.2243 32.9144 24.2243 33.0405 24.2032 33.1035C24.1772 33.298 24.2295 33.4948 24.3487 33.651C24.4678 33.8072 24.6442 33.91 24.8392 33.9369H24.9411C25.121 33.9369 25.2948 33.872 25.4304 33.7542C25.566 33.6364 25.6543 33.4737 25.6789 33.2961C25.6789 33.1736 25.7 33.0124 25.7106 32.7883C25.7082 32.1195 25.7932 31.4532 25.9635 30.8063V30.7538C25.9635 30.7538 26.3676 29.297 28.423 29.3845C29.3998 29.4265 32.3687 29.5561 33.0117 27.5355C33.1909 26.9682 33.1241 26.3274 32.7833 25.3224C32.6428 24.9056 32.699 24.7761 33.096 24.58C33.408 24.4604 33.676 24.2488 33.8644 23.9736C34.0527 23.6983 34.1524 23.3723 34.1501 23.0391C34.1344 22.7058 34.0235 22.3838 33.8303 22.1111C34.0304 21.8979 34.173 21.6377 34.2449 21.3548C34.3008 21.1146 34.2981 20.8646 34.2369 20.6258C34.1758 20.3869 34.058 20.1661 33.8936 19.982C33.7981 19.8835 33.7282 19.7633 33.6898 19.6318C33.7319 19.5799 33.7879 19.541 33.8514 19.5198L34.0623 19.4532C34.5577 19.3062 35.4677 19.0365 35.7206 18.1961C36.0158 17.3766 35.2252 16.5012 34.9687 16.214ZM25.7035 24.685C26.0155 24.5654 26.2836 24.3539 26.4719 24.0786C26.6602 23.8033 26.7599 23.4774 26.7576 23.1442C26.7419 22.8108 26.631 22.4889 26.4378 22.2162C26.6379 22.003 26.7805 21.7428 26.8525 21.4598C26.906 21.2183 26.9005 20.9675 26.8362 20.7285C26.772 20.4896 26.651 20.2696 26.4835 20.0871C26.3881 19.9886 26.3182 19.8684 26.2797 19.7369C26.3218 19.685 26.3779 19.6461 26.4414 19.6248C26.5105 19.5991 26.5808 19.5769 26.6522 19.5583C27.1476 19.4112 28.0576 19.1416 28.3106 18.3011C28.5741 17.3801 27.7835 16.5047 27.527 16.2C26.5854 15.1494 24.6319 12.9853 24.284 12.3479C24.0453 11.867 23.9867 11.3168 24.1189 10.7966C24.2358 9.34429 23.9642 7.887 23.3319 6.57336C22.3031 4.67062 20.8049 3.06049 18.9786 1.89488C20.4155 2.28416 21.757 2.96294 22.9203 3.8893C24.0836 4.81565 25.044 5.96991 25.7422 7.28075C26.2168 8.29727 26.434 9.41435 26.3746 10.534C26.1832 11.3848 26.2963 12.2754 26.6943 13.0518C27.0457 13.7172 28.2789 15.1284 30.1376 17.191C30.336 17.3824 30.4906 17.6141 30.5909 17.8704C30.3906 17.9813 30.1769 18.066 29.9549 18.1225C29.8429 18.1514 29.7327 18.1865 29.6246 18.2276C29.3733 18.3173 29.1468 18.4649 28.9636 18.6584C28.7804 18.852 28.6458 19.0859 28.5706 19.3412C28.4722 19.7159 28.4757 20.3077 29.0624 21.0186C29.1116 21.0781 29.1292 21.1201 29.1327 21.1096C29.0186 21.2723 28.8618 21.4007 28.6795 21.4808C28.544 21.5399 28.4297 21.6384 28.3513 21.7633C28.2729 21.8883 28.2342 22.034 28.2403 22.1812C28.2423 22.3264 28.287 22.4678 28.3688 22.5879C28.4506 22.708 28.566 22.8016 28.7006 22.857C28.7724 22.891 28.8361 22.9398 28.8876 23.0002C28.9391 23.0606 28.9771 23.1311 28.9992 23.2072C28.9415 23.2823 28.8635 23.3394 28.7744 23.3718C27.7203 23.8936 27.3233 24.7971 27.7203 25.9177C28.0119 26.7756 27.9838 27.0663 27.9381 27.2099C27.8398 27.5285 27.3724 28.0258 25.4787 28.0398C25.5442 27.9174 25.5994 27.7897 25.6438 27.6581C25.823 27.0908 25.7562 26.45 25.4154 25.4449C25.2503 25.0107 25.303 24.8811 25.7035 24.685ZM33.6757 18.133C33.5649 18.1618 33.4558 18.1969 33.349 18.2381C33.0975 18.3275 32.8709 18.4751 32.6877 18.6687C32.5045 18.8622 32.3699 19.0963 32.2949 19.3517C32.1966 19.7264 32.2036 20.3182 32.7868 21.0291C32.836 21.0886 32.8501 21.1306 32.8571 21.1201C32.7429 21.2828 32.5861 21.4112 32.4038 21.4913C32.2693 21.5516 32.1557 21.6503 32.0775 21.775C31.9993 21.8997 31.96 22.0447 31.9646 22.1917C31.9665 22.3374 32.0115 22.4793 32.094 22.5995C32.1766 22.7198 32.2929 22.813 32.4284 22.8676C32.5004 22.9008 32.5641 22.9494 32.6151 23.0099C32.6661 23.0704 32.7031 23.1414 32.7236 23.2177C32.6667 23.2921 32.59 23.3491 32.5022 23.3823C31.4482 23.9041 31.0511 24.8076 31.4482 25.9282C31.7363 26.7861 31.7117 27.0768 31.666 27.2204C31.5641 27.5391 31.0968 28.0363 29.2065 28.0503C29.2724 27.9285 29.3265 27.8006 29.3681 27.6686C29.5473 27.1013 29.4806 26.4605 29.1398 25.4554C28.9992 25.0387 29.0554 24.9091 29.456 24.713C29.768 24.5934 30.036 24.3819 30.2243 24.1066C30.4127 23.8313 30.5123 23.5054 30.51 23.1722C30.4933 22.8385 30.3812 22.5165 30.1868 22.2442C30.3891 22.0321 30.5331 21.7716 30.6049 21.4878C30.6599 21.2477 30.6567 20.9978 30.5956 20.7591C30.5345 20.5204 30.4173 20.2997 30.2535 20.1151C30.1566 20.0178 30.0864 19.8971 30.0498 19.7649C30.0909 19.7135 30.1457 19.6746 30.2079 19.6528C30.278 19.6267 30.3495 19.6045 30.4222 19.5863C30.9176 19.4392 31.8276 19.1696 32.0771 18.3292C32.3406 17.4082 31.5536 16.5327 31.2936 16.228C30.3555 15.1775 28.4019 13.0133 28.0541 12.376C27.8119 11.896 27.7532 11.3446 27.8889 10.8246C28.0026 9.37209 27.7299 7.9154 27.0984 6.60141C26.0763 4.70133 24.5838 3.09322 22.7627 1.92989C24.1964 2.32007 25.5348 2.99858 26.6956 3.92363C27.8563 4.84867 28.8149 6.00066 29.5122 7.30875C29.9835 8.32636 30.2005 9.4426 30.1446 10.562C29.9532 11.4127 30.0663 12.3035 30.4643 13.0799C30.8157 13.7452 32.049 15.1564 33.9041 17.219C34.1053 17.408 34.2603 17.6404 34.3574 17.8984C34.1424 18.0083 33.9129 18.0873 33.6757 18.133Z" fill="url(#paint17_linear_3701_775)"/>
<defs>
<linearGradient id="paint0_linear_3701_775" x1="-0.5" y1="23.8093" x2="36.9917" y2="24.3668" gradientUnits="userSpaceOnUse">
<stop offset="0.317708" stop-color="#E43425"/>
<stop offset="0.71875" stop-color="#441FD8"/>
<stop offset="1" stop-color="#0A26B8"/>
</linearGradient>
<linearGradient id="paint1_linear_3701_775" x1="-1" y1="6.47895" x2="36.9916" y2="7.04386" gradientUnits="userSpaceOnUse">
<stop offset="0.317708" stop-color="#E43425"/>
<stop offset="0.71875" stop-color="#441FD8"/>
<stop offset="1" stop-color="#0A26B8"/>
</linearGradient>
<linearGradient id="paint2_linear_3701_775" x1="-1" y1="21.554" x2="36.9969" y2="21.8968" gradientUnits="userSpaceOnUse">
<stop offset="0.317708" stop-color="#E43425"/>
<stop offset="0.71875" stop-color="#441FD8"/>
<stop offset="1" stop-color="#0A26B8"/>
</linearGradient>
<linearGradient id="paint3_linear_3701_775" x1="-2" y1="8.8518" x2="36.4969" y2="9.19882" gradientUnits="userSpaceOnUse">
<stop offset="0.317708" stop-color="#E43425"/>
<stop offset="0.71875" stop-color="#441FD8"/>
<stop offset="1" stop-color="#0A26B8"/>
</linearGradient>
<linearGradient id="paint4_linear_3701_775" x1="-0.499999" y1="8.81488" x2="35.997" y2="9.1442" gradientUnits="userSpaceOnUse">
<stop offset="0.317708" stop-color="#E43425"/>
<stop offset="0.71875" stop-color="#441FD8"/>
<stop offset="1" stop-color="#0A26B8"/>
</linearGradient>
<linearGradient id="paint5_linear_3701_775" x1="-0.5" y1="21.5833" x2="36.9969" y2="21.9221" gradientUnits="userSpaceOnUse">
<stop offset="0.317708" stop-color="#E43425"/>
<stop offset="0.71875" stop-color="#441FD8"/>
<stop offset="1" stop-color="#0A26B8"/>
</linearGradient>
<linearGradient id="paint6_linear_3701_775" x1="-0.500001" y1="23.1306" x2="36.9921" y2="23.675" gradientUnits="userSpaceOnUse">
<stop offset="0.317708" stop-color="#E43425"/>
<stop offset="0.71875" stop-color="#441FD8"/>
<stop offset="1" stop-color="#0A26B8"/>
</linearGradient>
<linearGradient id="paint7_linear_3701_775" x1="-1" y1="6.87585" x2="36.4908" y2="7.46272" gradientUnits="userSpaceOnUse">
<stop offset="0.317708" stop-color="#E43425"/>
<stop offset="0.71875" stop-color="#441FD8"/>
<stop offset="1" stop-color="#0A26B8"/>
</linearGradient>
<linearGradient id="paint8_linear_3701_775" x1="-0.999999" y1="7.12211" x2="36.492" y2="7.67118" gradientUnits="userSpaceOnUse">
<stop offset="0.317708" stop-color="#E43425"/>
<stop offset="0.71875" stop-color="#441FD8"/>
<stop offset="1" stop-color="#0A26B8"/>
</linearGradient>
<linearGradient id="paint9_linear_3701_775" x1="-0.5" y1="23.189" x2="36.9921" y2="23.7327" gradientUnits="userSpaceOnUse">
<stop offset="0.317708" stop-color="#E43425"/>
<stop offset="0.71875" stop-color="#441FD8"/>
<stop offset="1" stop-color="#0A26B8"/>
</linearGradient>
<linearGradient id="paint10_linear_3701_775" x1="-0.935714" y1="15.0574" x2="36.9992" y2="15.2272" gradientUnits="userSpaceOnUse">
<stop offset="0.317708" stop-color="#E43425"/>
<stop offset="0.71875" stop-color="#441FD8"/>
<stop offset="1" stop-color="#0A26B8"/>
</linearGradient>
<linearGradient id="paint11_linear_3701_775" x1="-1.5" y1="15.0293" x2="36.9992" y2="15.2017" gradientUnits="userSpaceOnUse">
<stop offset="0.317708" stop-color="#E43425"/>
<stop offset="0.71875" stop-color="#441FD8"/>
<stop offset="1" stop-color="#0A26B8"/>
</linearGradient>
<linearGradient id="paint12_linear_3701_775" x1="-1.12149" y1="18.3729" x2="36.9992" y2="18.5481" gradientUnits="userSpaceOnUse">
<stop offset="0.317708" stop-color="#E43425"/>
<stop offset="0.71875" stop-color="#441FD8"/>
<stop offset="1" stop-color="#0A26B8"/>
</linearGradient>
<linearGradient id="paint13_linear_3701_775" x1="-1" y1="11.602" x2="36.4994" y2="11.7513" gradientUnits="userSpaceOnUse">
<stop offset="0.317708" stop-color="#E43425"/>
<stop offset="0.71875" stop-color="#441FD8"/>
<stop offset="1" stop-color="#0A26B8"/>
</linearGradient>
<linearGradient id="paint14_linear_3701_775" x1="-1" y1="18.3325" x2="36.9992" y2="18.5059" gradientUnits="userSpaceOnUse">
<stop offset="0.317708" stop-color="#E43425"/>
<stop offset="0.71875" stop-color="#441FD8"/>
<stop offset="1" stop-color="#0A26B8"/>
</linearGradient>
<linearGradient id="paint15_linear_3701_775" x1="-1.11525" y1="11.7481" x2="35.4992" y2="11.9141" gradientUnits="userSpaceOnUse">
<stop offset="0.317708" stop-color="#E43425"/>
<stop offset="0.71875" stop-color="#441FD8"/>
<stop offset="1" stop-color="#0A26B8"/>
</linearGradient>
<linearGradient id="paint16_linear_3701_775" x1="-1.89965" y1="15.6277" x2="36.9978" y2="15.9204" gradientUnits="userSpaceOnUse">
<stop offset="0.317708" stop-color="#E43425"/>
<stop offset="0.71875" stop-color="#441FD8"/>
<stop offset="1" stop-color="#0A26B8"/>
</linearGradient>
<linearGradient id="paint17_linear_3701_775" x1="-1.5" y1="16.3293" x2="36.9927" y2="16.8596" gradientUnits="userSpaceOnUse">
<stop offset="0.317708" stop-color="#E43425"/>
<stop offset="0.71875" stop-color="#441FD8"/>
<stop offset="1" stop-color="#0A26B8"/>
</linearGradient>
</defs>
</svg>
