<svg width="34" height="31" viewBox="0 0 34 31" fill="none" xmlns="http://www.w3.org/2000/svg">
<path d="M9.74648 22.4282H7.26164C6.52222 22.4274 5.81332 22.1333 5.29047 21.6104C4.76762 21.0876 4.47351 20.3787 4.47266 19.6393V16.4038C4.47437 15.6649 4.76886 14.9569 5.29162 14.4347C5.81437 13.9126 6.52277 13.6189 7.26164 13.618H9.74648C10.4853 13.6189 11.1938 13.9126 11.7165 14.4347C12.2393 14.9569 12.5337 15.6649 12.5355 16.4038V19.6393C12.5346 20.3787 12.2405 21.0876 11.7176 21.6104C11.1948 22.1333 10.4859 22.4274 9.74648 22.4282ZM7.26164 14.9866C6.88605 14.9875 6.52608 15.1371 6.2605 15.4026C5.99492 15.6682 5.84535 16.0282 5.8445 16.4038V19.6393C5.8445 20.0151 5.99379 20.3756 6.25955 20.6413C6.52532 20.9071 6.88579 21.0564 7.26164 21.0564H9.74648C9.93258 21.0564 10.1169 21.0198 10.2888 20.9485C10.4607 20.8773 10.617 20.7729 10.7486 20.6413C10.8802 20.5097 10.9845 20.3535 11.0558 20.1816C11.127 20.0096 11.1636 19.8254 11.1636 19.6393V16.4038C11.1628 16.0282 11.0132 15.6682 10.7476 15.4026C10.482 15.1371 10.1221 14.9875 9.74648 14.9866H7.26164Z" fill="url(#paint0_linear_3701_999)"/>
<path d="M16.056 30.6044C15.8814 30.6031 15.7138 30.5356 15.5871 30.4154C15.4603 30.2953 15.384 30.1316 15.3733 29.9573C15.3086 29.0514 14.8459 26.5277 13.4902 25.6865L11.3355 24.5347C10.4448 25.0814 9.42002 25.3703 8.37498 25.3694C7.33046 25.3698 6.30607 25.0821 5.41451 24.5379L3.26291 25.6865C1.90724 26.531 1.44459 29.0514 1.37988 29.9573C1.37581 30.0483 1.35349 30.1376 1.31424 30.2198C1.27498 30.302 1.21959 30.3755 1.15138 30.4358C1.08316 30.4962 1.00351 30.5422 0.917149 30.5712C0.830785 30.6001 0.739478 30.6115 0.648658 30.6044C0.558098 30.5999 0.469336 30.5774 0.387572 30.5382C0.305809 30.499 0.23268 30.4439 0.17244 30.3761C0.1122 30.3084 0.0660524 30.2293 0.0367134 30.1435C0.00737453 30.0577 -0.00456654 29.9669 0.00156239 29.8765C0.00156239 29.7147 0.299214 25.8936 2.55758 24.5185H2.58994L5.11685 23.1661C5.22931 23.1068 5.35602 23.08 5.48286 23.0885C5.60969 23.0971 5.73165 23.1408 5.83512 23.2146C6.57301 23.7432 7.45755 24.0283 8.36526 24.0299C9.27139 24.0277 10.154 23.7414 10.889 23.2114C10.9931 23.1376 11.1155 23.094 11.2429 23.0854C11.3702 23.0769 11.4974 23.1036 11.6105 23.1628L14.1438 24.5185H14.1762C16.441 25.8936 16.7193 29.7147 16.7322 29.8765C16.7379 29.967 16.7257 30.0578 16.6962 30.1436C16.6667 30.2294 16.6206 30.3085 16.5605 30.3764C16.5004 30.4444 16.4274 30.4997 16.3459 30.5394C16.2643 30.5791 16.1757 30.6023 16.0851 30.6077L16.056 30.6044Z" fill="url(#paint1_linear_3701_999)"/>
<path d="M15.2367 20.7006C15.1364 20.7011 15.0371 20.6801 14.9455 20.6391C14.8277 20.5834 14.7282 20.4955 14.6583 20.3856C14.5884 20.2757 14.5511 20.1482 14.5508 20.0179V2.17099C14.5516 1.59547 14.7807 1.04374 15.1876 0.636787C15.5946 0.22983 16.1463 0.000855799 16.7218 0H31.8282C32.4038 0.000855799 32.9555 0.22983 33.3624 0.636787C33.7694 1.04374 33.9984 1.59547 33.9992 2.17099V14.4658C33.9984 15.0413 33.7694 15.593 33.3624 16C32.9555 16.4069 32.4038 16.6359 31.8282 16.6368H20.2905L15.6767 20.5356C15.5543 20.6412 15.3983 20.6997 15.2367 20.7006ZM16.7218 1.3686C16.509 1.3686 16.3049 1.45312 16.1544 1.6036C16.0039 1.75408 15.9194 1.95818 15.9194 2.17099V18.5393L19.5981 15.43C19.7224 15.3258 19.8792 15.2686 20.0414 15.2682H31.8282C32.0405 15.2682 32.2441 15.1841 32.3945 15.0343C32.5449 14.8846 32.6298 14.6813 32.6306 14.469V2.17423C32.6306 1.96142 32.5461 1.75732 32.3956 1.60684C32.2452 1.45636 32.041 1.37184 31.8282 1.37184L16.7218 1.3686Z" fill="url(#paint2_linear_3701_999)"/>
<path d="M25.449 6.61381L24.8472 6.46175C24.8386 6.45964 24.8307 6.45519 24.8244 6.44892C24.8181 6.44264 24.8137 6.43479 24.8116 6.42617C24.7461 6.13737 24.637 5.86024 24.488 5.60434C24.4834 5.59709 24.481 5.58869 24.481 5.58009C24.481 5.5715 24.4834 5.56306 24.488 5.5558L24.8116 5.02518C24.8179 5.01678 24.8213 5.00657 24.8213 4.99607C24.8213 4.98557 24.8179 4.97536 24.8116 4.96696L24.1645 4.31987C24.1563 4.31302 24.146 4.30924 24.1354 4.30924C24.1247 4.30924 24.1144 4.31302 24.1063 4.31987L23.5757 4.64342C23.5684 4.64802 23.56 4.65045 23.5514 4.65045C23.5428 4.65045 23.5344 4.64802 23.5271 4.64342C23.2712 4.49441 22.9941 4.3853 22.7053 4.31987C22.6965 4.31812 22.6884 4.3138 22.6821 4.30747C22.6758 4.30113 22.6714 4.29307 22.6697 4.28428C22.6438 4.18398 22.5468 3.8022 22.5176 3.68249C22.5145 3.67274 22.5085 3.66414 22.5004 3.6578C22.4924 3.65147 22.4826 3.64764 22.4723 3.64686H21.5632C21.5527 3.64662 21.5424 3.65005 21.5342 3.65654C21.5259 3.66303 21.5201 3.67222 21.5179 3.68249L21.3658 4.28428C21.3626 4.29229 21.3577 4.29954 21.3516 4.30565C21.3455 4.31176 21.3382 4.31661 21.3302 4.31987C21.0414 4.3853 20.7643 4.49441 20.5084 4.64342C20.5012 4.64802 20.4927 4.65045 20.4841 4.65045C20.4755 4.65045 20.4671 4.64802 20.4599 4.64342L19.9551 4.3425C19.9066 4.31338 19.884 4.31661 19.8678 4.3425L19.2207 4.98959C19.2153 4.99833 19.2123 5.00845 19.2123 5.01874C19.2123 5.02904 19.2153 5.03912 19.2207 5.04785L19.5443 5.57847C19.5482 5.58595 19.5503 5.59426 19.5503 5.60272C19.5503 5.61118 19.5482 5.61954 19.5443 5.62701C19.3953 5.88291 19.2861 6.16 19.2207 6.4488C19.2194 6.45777 19.2152 6.46608 19.2088 6.47249C19.2024 6.47891 19.1941 6.48308 19.1851 6.48438L18.5865 6.63648C18.5765 6.63924 18.5677 6.64511 18.5613 6.65327C18.5549 6.66142 18.5513 6.67138 18.5509 6.68174V7.59093C18.55 7.60159 18.5532 7.61222 18.5598 7.62063C18.5664 7.62905 18.5759 7.63463 18.5865 7.63623L19.1851 7.78829C19.1937 7.7904 19.2016 7.79485 19.2079 7.80113C19.2141 7.8074 19.2186 7.81526 19.2207 7.82387C19.2861 8.11267 19.3953 8.38981 19.5443 8.6457C19.5482 8.65317 19.5503 8.66149 19.5503 8.66995C19.5503 8.67841 19.5482 8.68677 19.5443 8.69424L19.2207 9.22806C19.2153 9.2368 19.2123 9.24691 19.2123 9.25721C19.2123 9.26751 19.2153 9.27758 19.2207 9.28632L19.8678 9.93341C19.8762 9.93971 19.8864 9.94313 19.8969 9.94313C19.9074 9.94313 19.9176 9.93971 19.926 9.93341L20.4599 9.60987C20.4676 9.60657 20.4758 9.60489 20.4841 9.60489C20.4925 9.60489 20.5008 9.60657 20.5084 9.60987C20.7626 9.76677 21.0399 9.88254 21.3302 9.95285C21.3388 9.95496 21.3467 9.95937 21.353 9.96564C21.3593 9.97192 21.3637 9.97981 21.3658 9.98843L21.5179 10.587C21.5195 10.5976 21.5251 10.6072 21.5335 10.6138C21.5419 10.6204 21.5525 10.6235 21.5632 10.6226H22.4723C22.4827 10.6223 22.4927 10.6186 22.5009 10.6122C22.509 10.6058 22.5149 10.597 22.5176 10.587L22.6697 9.98843C22.671 9.97945 22.6752 9.97111 22.6816 9.96469C22.688 9.95828 22.6963 9.95415 22.7053 9.95285C22.9956 9.88254 23.273 9.76677 23.5271 9.60987C23.5348 9.60657 23.5431 9.60489 23.5514 9.60489C23.5597 9.60489 23.568 9.60657 23.5757 9.60987L24.1063 9.93341C24.1147 9.93971 24.1249 9.94313 24.1354 9.94313C24.1459 9.94313 24.1561 9.93971 24.1645 9.93341L24.8116 9.28632C24.8179 9.27792 24.8213 9.26771 24.8213 9.25721C24.8213 9.24671 24.8179 9.23646 24.8116 9.22806L24.488 8.69424C24.4834 8.68698 24.481 8.67854 24.481 8.66995C24.481 8.66136 24.4834 8.65296 24.488 8.6457C24.637 8.38981 24.7461 8.11267 24.8116 7.82387C24.8148 7.81587 24.8197 7.80858 24.8258 7.80247C24.8319 7.79636 24.8392 7.79154 24.8472 7.78829L25.449 7.63623C25.4593 7.63398 25.4684 7.62822 25.4749 7.61996C25.4814 7.6117 25.4848 7.60144 25.4846 7.59093V6.68174C25.4871 6.67496 25.4881 6.66774 25.4876 6.66053C25.4872 6.65332 25.4852 6.64632 25.4818 6.63992C25.4785 6.63352 25.4738 6.62786 25.4682 6.62337C25.4625 6.61887 25.456 6.61562 25.449 6.61381ZM21.9903 8.57129C21.6044 8.57043 21.2345 8.41677 20.9617 8.14391C20.6888 7.87105 20.5351 7.50121 20.5343 7.11532C20.5343 6.72918 20.6877 6.35884 20.9607 6.08579C21.2338 5.81275 21.6041 5.65936 21.9903 5.65936C22.1816 5.65893 22.3711 5.6963 22.5479 5.76932C22.7248 5.84233 22.8855 5.94956 23.0207 6.08485C23.156 6.22013 23.2632 6.38081 23.3363 6.55765C23.4093 6.73449 23.4466 6.924 23.4462 7.11532C23.4462 7.30652 23.4086 7.49584 23.3354 7.67249C23.2622 7.84913 23.155 8.00966 23.0198 8.14486C22.8846 8.28005 22.7241 8.3873 22.5474 8.46046C22.3708 8.53363 22.1815 8.57129 21.9903 8.57129Z" fill="url(#paint3_linear_3701_999)"/>
<path d="M30.2861 10.5125C30.3085 10.2728 30.2899 10.0309 30.231 9.79744L30.6226 9.47389L30.299 8.81064L29.7943 8.92388C29.6407 8.74021 29.4582 8.58286 29.254 8.45799L29.2895 7.94028L28.5842 7.71057L28.3092 8.14735C28.0696 8.1254 27.8281 8.1429 27.5942 8.19913L27.2706 7.80765L26.6235 8.1312L26.7367 8.63591C26.5531 8.78947 26.3957 8.97199 26.2708 9.17625L25.7531 9.14067L25.5234 9.84274L25.9602 10.121C25.9383 10.3595 25.9558 10.6 26.012 10.8328L25.6205 11.1564L25.944 11.8035L26.4488 11.6902C26.6023 11.8739 26.7849 12.0312 26.9891 12.1561L26.9535 12.6705L27.6556 12.9035L27.9339 12.4667C28.1725 12.4892 28.4133 12.4706 28.6457 12.4117L28.9692 12.8032L29.6163 12.4797L29.5192 11.9976C29.7029 11.844 29.8603 11.6615 29.9851 11.4572L30.4996 11.4928L30.7325 10.7875L30.2861 10.5125ZM28.1021 11.1887C27.8704 11.1887 27.6482 11.0967 27.4844 10.9329C27.3206 10.769 27.2285 10.5468 27.2285 10.3151C27.2285 10.0835 27.3206 9.86126 27.4844 9.69744C27.6482 9.53361 27.8704 9.44154 28.1021 9.44154C28.3338 9.44154 28.556 9.53361 28.7198 9.69744C28.8836 9.86126 28.9757 10.0835 28.9757 10.3151C28.9757 10.5468 28.8836 10.769 28.7198 10.9329C28.556 11.0967 28.3338 11.1887 28.1021 11.1887Z" fill="url(#paint4_linear_3701_999)"/>
<defs>
<linearGradient id="paint0_linear_3701_999" x1="-8.5" y1="18.016" x2="35.9953" y2="18.4754" gradientUnits="userSpaceOnUse">
<stop offset="0.317708" stop-color="#E43425"/>
<stop offset="0.71875" stop-color="#441FD8"/>
<stop offset="1" stop-color="#0A26B8"/>
</linearGradient>
<linearGradient id="paint1_linear_3701_999" x1="-7.258" y1="26.8397" x2="34.5" y2="26.8389" gradientUnits="userSpaceOnUse">
<stop offset="0.317708" stop-color="#E43425"/>
<stop offset="0.71875" stop-color="#441FD8"/>
<stop offset="1" stop-color="#0A26B8"/>
</linearGradient>
<linearGradient id="paint2_linear_3701_999" x1="-4.5" y1="9.94194" x2="35.996" y2="10.3447" gradientUnits="userSpaceOnUse">
<stop offset="0.317708" stop-color="#E43425"/>
<stop offset="0.71875" stop-color="#441FD8"/>
<stop offset="1" stop-color="#0A26B8"/>
</linearGradient>
<linearGradient id="paint3_linear_3701_999" x1="-4" y1="6.99718" x2="36.9966" y2="7.37226" gradientUnits="userSpaceOnUse">
<stop offset="0.317708" stop-color="#E43425"/>
<stop offset="0.71875" stop-color="#441FD8"/>
<stop offset="1" stop-color="#0A26B8"/>
</linearGradient>
<linearGradient id="paint4_linear_3701_999" x1="-3" y1="10.2046" x2="36.4968" y2="10.5613" gradientUnits="userSpaceOnUse">
<stop offset="0.317708" stop-color="#E43425"/>
<stop offset="0.71875" stop-color="#441FD8"/>
<stop offset="1" stop-color="#0A26B8"/>
</linearGradient>
</defs>
</svg>
