<svg width="26" height="34" viewBox="0 0 26 34" fill="none" xmlns="http://www.w3.org/2000/svg">
<path d="M25.3403 30.83L20.1666 21.5665C20.2162 21.4113 20.2516 21.252 20.2725 21.0905C20.3087 20.7874 20.4464 20.5052 20.6634 20.2894C20.8804 20.0735 21.1641 19.9366 21.4689 19.9006C21.8874 19.8522 22.2886 19.7067 22.6402 19.4758C22.9918 19.2449 23.284 18.935 23.4931 18.5712C23.7053 18.2092 23.829 17.8026 23.8542 17.3842C23.8794 16.9659 23.8055 16.5475 23.6384 16.1628C23.5174 15.8826 23.4948 15.57 23.5742 15.2755C23.6535 14.9809 23.8303 14.7215 24.0759 14.539C24.4141 14.289 24.6884 13.9635 24.8768 13.5887C25.0653 13.2138 25.1626 12.8002 25.1609 12.3812C25.1625 11.9621 25.0652 11.5485 24.8768 11.1737C24.6884 10.7989 24.414 10.4734 24.0759 10.2233C23.8305 10.0406 23.6539 9.78111 23.5746 9.48657C23.4952 9.19203 23.5177 8.87951 23.6384 8.59921C23.8055 8.21455 23.8794 7.79622 23.8542 7.37794C23.829 6.95967 23.7053 6.55313 23.4931 6.19111C23.284 5.8273 22.9919 5.51747 22.6403 5.28662C22.2887 5.05577 21.8874 4.91036 21.4689 4.86212C21.1641 4.8261 20.8804 4.68914 20.6634 4.4733C20.4464 4.25746 20.3087 3.97529 20.2725 3.67218C20.224 3.25589 20.0777 2.85677 19.8455 2.50704C19.6134 2.15731 19.3018 1.86675 18.936 1.6588C18.5721 1.44764 18.1635 1.32453 17.743 1.29943C17.3224 1.27433 16.9019 1.34794 16.5152 1.51431C16.2334 1.63432 15.9192 1.65662 15.623 1.57764C15.3269 1.49865 15.066 1.32296 14.8824 1.07879C14.6309 0.742584 14.3036 0.469812 13.9268 0.28244C13.55 0.0950676 13.1341 -0.00166739 12.7129 2.43315e-05C12.2916 -0.00176321 11.8757 0.0949656 11.499 0.282411C11.1222 0.469856 10.7949 0.742769 10.5437 1.07913C10.3602 1.32348 10.0993 1.49926 9.80305 1.57814C9.50683 1.65702 9.19254 1.63442 8.91082 1.51397C8.52411 1.34781 8.10357 1.27435 7.68309 1.29951C7.26261 1.32467 6.85394 1.44774 6.49006 1.6588C6.12421 1.86675 5.81262 2.15731 5.58041 2.50703C5.34819 2.85676 5.20186 3.25587 5.15321 3.67218C5.11699 3.97529 4.9793 4.25746 4.7623 4.4733C4.54529 4.68914 4.26159 4.8261 3.95684 4.86212C3.53832 4.91033 3.13705 5.05573 2.78542 5.28659C2.4338 5.51744 2.14167 5.82728 1.9326 6.19111C1.72034 6.55309 1.59657 6.95961 1.57128 7.3779C1.54598 7.79619 1.61987 8.21454 1.78698 8.59921C1.90805 8.87946 1.93072 9.19208 1.85135 9.48671C1.77198 9.78134 1.59518 10.0408 1.34945 10.2233C1.01139 10.4734 0.737122 10.7989 0.548734 11.1737C0.360346 11.5486 0.26311 11.9621 0.264865 12.3812C0.26335 12.8001 0.360766 13.2135 0.549268 13.5881C0.737771 13.9628 1.01209 14.2881 1.35014 14.538C1.59579 14.7205 1.77253 14.9799 1.8519 15.2745C1.93127 15.569 1.90864 15.8816 1.78767 16.1618C1.62056 16.5464 1.54664 16.9648 1.57188 17.383C1.59711 17.8013 1.72079 18.2079 1.93294 18.5699C2.14207 18.9338 2.43425 19.2437 2.78592 19.4747C3.1376 19.7057 3.53892 19.8512 3.95753 19.8996C4.26241 19.9352 4.54631 20.0721 4.76338 20.288C4.98045 20.5039 5.11803 20.7863 5.15389 21.0895C5.1749 21.251 5.21036 21.4103 5.25985 21.5655L0.0843838 30.83C0.0171248 30.9506 -0.0109919 31.089 0.00387791 31.2261C0.0187477 31.3632 0.0758741 31.4924 0.167443 31.596C0.259035 31.6992 0.380433 31.7717 0.515036 31.8036C0.64964 31.8356 0.790879 31.8254 0.919444 31.7745L5.91512 29.7873L8.88894 33.7311C8.95149 33.8141 9.03261 33.8814 9.12588 33.9278C9.21915 33.9742 9.322 33.9983 9.42628 33.9983C9.47459 33.9991 9.52284 33.9946 9.57018 33.985C9.69552 33.958 9.81042 33.8957 9.9013 33.8057C9.99217 33.7157 10.0552 33.6017 10.0829 33.4771L12.0487 24.6797C12.2653 24.7339 12.4878 24.7614 12.7111 24.7616C12.9346 24.7614 13.1572 24.7339 13.3739 24.6797L15.3394 33.4771C15.3671 33.6017 15.4301 33.7157 15.521 33.8057C15.6119 33.8957 15.7268 33.958 15.8521 33.985C15.8986 33.9951 15.9461 34.0001 15.9936 34C16.0979 34 16.2007 33.9759 16.2939 33.9295C16.3871 33.8831 16.4682 33.8158 16.5306 33.7328L19.5044 29.789L24.5039 31.7752C24.6325 31.826 24.7737 31.8362 24.9083 31.8042C25.0429 31.7723 25.1643 31.6998 25.2559 31.5967C25.3478 31.4932 25.4053 31.3639 25.4204 31.2267C25.4355 31.0894 25.4075 30.9508 25.3403 30.83ZM9.08959 31.769L6.68182 28.5763C6.5934 28.4586 6.46839 28.3733 6.32623 28.3336C6.18407 28.2939 6.0327 28.302 5.89564 28.3566L2.17597 29.8373L6.09389 22.822C6.21719 22.927 6.34953 23.021 6.48938 23.1029C6.8533 23.3139 7.26196 23.4369 7.68245 23.462C8.10293 23.4871 8.52346 23.4136 8.91013 23.2474C9.19195 23.1273 9.50616 23.105 9.80229 23.1839C10.0984 23.2628 10.3593 23.4384 10.543 23.6825C10.6292 23.7945 10.7238 23.8999 10.826 23.9977L9.08959 31.769ZM13.8067 22.8809C13.6798 23.0503 13.5148 23.1878 13.3248 23.2822C13.1349 23.3767 12.9252 23.4256 12.7129 23.4248C12.5005 23.4256 12.2909 23.3768 12.1009 23.2823C11.9109 23.1878 11.7459 23.0503 11.619 22.8809C11.3673 22.5455 11.0403 22.2732 10.6642 22.0856C10.288 21.8981 9.87304 21.8004 9.45226 21.8004C9.08516 21.8005 8.7219 21.8746 8.38442 22.0183C8.1893 22.1023 7.97707 22.1394 7.76486 22.1268C7.55266 22.1142 7.34641 22.0521 7.16276 21.9456C6.97772 21.8409 6.82003 21.6945 6.70246 21.518C6.58488 21.3415 6.51072 21.14 6.48596 20.9297C6.41425 20.3297 6.1417 19.7712 5.71216 19.3439C5.28262 18.9167 4.72106 18.6456 4.11784 18.5743C3.90664 18.55 3.70414 18.4766 3.52668 18.3602C3.34921 18.2437 3.20174 18.0874 3.09615 17.9039C2.98907 17.7211 2.92665 17.5159 2.91395 17.3048C2.90124 17.0937 2.93859 16.8825 3.02299 16.6884C3.26261 16.1332 3.30741 15.514 3.15017 14.9304C2.99292 14.3468 2.64279 13.8328 2.15615 13.4712C1.9858 13.345 1.84758 13.1808 1.7526 12.9919C1.65762 12.8029 1.60852 12.5945 1.60924 12.3832C1.60857 12.172 1.6577 11.9635 1.75268 11.7746C1.84766 11.5856 1.98584 11.4215 2.15615 11.2953C2.64279 10.9337 2.99292 10.4197 3.15017 9.83607C3.30741 9.25247 3.26261 8.63322 3.02299 8.07801C2.93859 7.88389 2.90124 7.67275 2.91395 7.46163C2.92665 7.2505 2.98907 7.0453 3.09615 6.86258C3.20168 6.67892 3.34912 6.5225 3.52659 6.40592C3.70406 6.28935 3.90658 6.21588 4.11784 6.19145C4.7211 6.12038 5.28275 5.84941 5.71233 5.4222C6.14191 4.99499 6.41441 4.4364 6.48596 3.83639C6.51048 3.62621 6.58436 3.42472 6.70163 3.24819C6.8189 3.07166 6.97628 2.92504 7.16105 2.82018C7.34472 2.71359 7.55102 2.65144 7.76329 2.63875C7.97556 2.62605 8.18785 2.66316 8.38305 2.74708C8.94119 2.98545 9.56375 3.03002 10.1505 2.87362C10.7372 2.71721 11.2539 2.36894 11.6173 1.88489C11.7441 1.71538 11.9091 1.57785 12.0991 1.48337C12.2891 1.38888 12.4987 1.34009 12.7111 1.34091C12.9235 1.34014 13.1332 1.38896 13.3231 1.48344C13.5131 1.57791 13.6781 1.71542 13.805 1.88489C14.1684 2.36893 14.6852 2.71717 15.2719 2.87352C15.8586 3.02986 16.4812 2.98521 17.0393 2.74675C17.2346 2.66279 17.447 2.62566 17.6594 2.63836C17.8717 2.65105 18.0782 2.71322 18.2619 2.81984C18.4465 2.92488 18.6036 3.07157 18.7207 3.24808C18.8378 3.4246 18.9115 3.62599 18.936 3.83605C19.0077 4.43605 19.2802 4.99463 19.7097 5.42187C20.1393 5.84912 20.7009 6.12019 21.3041 6.19145C21.5154 6.21574 21.7179 6.28911 21.8954 6.40564C22.0729 6.52216 22.2203 6.67857 22.3258 6.86224C22.4329 7.04496 22.4953 7.25016 22.508 7.46129C22.5207 7.67241 22.4834 7.88355 22.399 8.07767C22.1594 8.63288 22.1146 9.25213 22.2718 9.83573C22.429 10.4193 22.7792 10.9333 23.2658 11.2949C23.4362 11.421 23.5745 11.5852 23.6695 11.7742C23.7645 11.9631 23.8135 12.1716 23.8127 12.3829C23.8135 12.5941 23.7644 12.8026 23.6694 12.9916C23.5744 13.1805 23.4362 13.3447 23.2658 13.4708C22.7792 13.8324 22.429 14.3464 22.2718 14.93C22.1146 15.5136 22.1594 16.1329 22.399 16.6881C22.4834 16.8822 22.5207 17.0933 22.508 17.3045C22.4953 17.5156 22.4329 17.7208 22.3258 17.9035C22.2202 18.0871 22.0728 18.2435 21.8953 18.3601C21.7179 18.4767 21.5154 18.5502 21.3041 18.5746C20.7014 18.6463 20.1404 18.9176 19.7114 19.3447C19.2823 19.7719 19.0102 20.3301 18.9387 20.9297C18.9143 21.1397 18.8405 21.3411 18.7234 21.5175C18.6063 21.694 18.4492 21.8406 18.2647 21.9456C18.0808 22.0521 17.8744 22.1142 17.662 22.1268C17.4497 22.1394 17.2373 22.1023 17.042 22.0183C16.4839 21.7804 15.8616 21.7361 15.2751 21.8925C14.6887 22.049 14.1722 22.3971 13.8087 22.8809H13.8067ZM19.5287 28.3566C19.3916 28.3021 19.2403 28.2941 19.0982 28.3338C18.956 28.3735 18.831 28.4587 18.7425 28.5763L16.3344 31.769L14.598 23.9977C14.7004 23.9 14.7951 23.7946 14.8814 23.6825C15.065 23.4385 15.3259 23.2629 15.6219 23.184C15.918 23.1051 16.2321 23.1274 16.5139 23.2474C16.9006 23.4137 17.3212 23.4872 17.7417 23.4621C18.1623 23.437 18.571 23.314 18.935 23.1029C19.0748 23.021 19.2072 22.927 19.3305 22.822L23.2491 29.8373L19.5287 28.3566Z" fill="url(#paint0_linear_3701_859)"/>
<path d="M18.8597 15.9115V9.37905C18.8592 9.32607 18.8523 9.27334 18.8392 9.22198C18.8358 9.2077 18.8307 9.19444 18.8262 9.1805C18.8148 9.14381 18.8002 9.1082 18.7825 9.07409C18.7753 9.06049 18.7688 9.04723 18.7606 9.03397C18.7374 8.99604 18.7106 8.9604 18.6806 8.92756C18.6755 8.92246 18.6721 8.91634 18.6669 8.91124C18.63 8.87452 18.5889 8.84212 18.5446 8.81468C18.5405 8.8123 18.5377 8.80856 18.5336 8.80618L13.0594 5.53997C12.9551 5.47756 12.8357 5.44458 12.714 5.44458C12.5923 5.44458 12.4729 5.47756 12.3686 5.53997L6.89641 8.80618C6.89265 8.80856 6.88957 8.8123 6.88581 8.81468C6.84139 8.84204 6.80033 8.87444 6.76345 8.91124C6.75832 8.91634 6.75455 8.92246 6.74943 8.92756C6.7194 8.9604 6.69262 8.99604 6.66944 9.03397C6.66158 9.04723 6.65474 9.06049 6.64756 9.07409C6.62983 9.1082 6.61519 9.14381 6.60381 9.1805C6.59937 9.19444 6.59424 9.2077 6.59082 9.22198C6.57772 9.27334 6.57083 9.32607 6.57031 9.37905V15.9115C6.57034 16.0268 6.60039 16.1402 6.65754 16.2406C6.71468 16.341 6.79697 16.425 6.89641 16.4844L12.37 19.7506C12.3771 19.755 12.3857 19.7563 12.3932 19.7604C12.4313 19.7812 12.4714 19.7983 12.5128 19.8114C12.5268 19.8158 12.5398 19.8206 12.5538 19.824C12.6065 19.8378 12.6607 19.8452 12.7152 19.8458C12.7697 19.8452 12.8239 19.8378 12.8765 19.824C12.8905 19.8206 12.9039 19.8158 12.9175 19.8114C12.959 19.7983 12.9991 19.7812 13.0372 19.7604C13.0447 19.7563 13.0532 19.755 13.0608 19.7506L18.5336 16.4844C18.6331 16.425 18.7154 16.341 18.7725 16.2406C18.8296 16.1402 18.8597 16.0268 18.8597 15.9115ZM12.0435 17.998L7.91366 15.5331V10.5598L12.0435 13.0243V17.998ZM12.7152 11.8664L8.54739 9.37905L12.7152 6.89174L16.883 9.37905L12.7152 11.8664ZM17.5167 15.5331L13.3869 17.998V13.0233L17.5167 10.5598V15.5331Z" fill="url(#paint1_linear_3701_859)"/>
<defs>
<linearGradient id="paint0_linear_3701_859" x1="-11.0276" y1="16.9725" x2="31.2354" y2="16.8996" gradientUnits="userSpaceOnUse">
<stop offset="0.317708" stop-color="#E43425"/>
<stop offset="0.71875" stop-color="#441FD8"/>
<stop offset="1" stop-color="#0A26B8"/>
</linearGradient>
<linearGradient id="paint1_linear_3701_859" x1="1.23992" y1="12.6335" x2="21.6686" y2="12.5933" gradientUnits="userSpaceOnUse">
<stop offset="0.317708" stop-color="#E43425"/>
<stop offset="0.71875" stop-color="#441FD8"/>
<stop offset="1" stop-color="#0A26B8"/>
</linearGradient>
</defs>
</svg>
