<svg width="33" height="35" viewBox="0 0 33 35" fill="none" xmlns="http://www.w3.org/2000/svg">
<path d="M14.0334 31.6706C13.8468 31.6706 13.6678 31.5972 13.5359 31.4665C13.404 31.3358 13.3298 31.1585 13.3298 30.9737V26.5579L7.92763 21.2063C7.75989 21.048 7.5371 20.9597 7.30544 20.9597C7.07377 20.9597 6.85098 21.048 6.68325 21.2063L6.54729 21.342C6.38289 21.5056 6.29061 21.727 6.29061 21.9578C6.29061 22.1887 6.38289 22.4101 6.54729 22.5737L10.1772 26.1686C10.3083 26.2992 10.382 26.4759 10.382 26.6602C10.382 26.8444 10.3083 27.0211 10.1772 27.1517C10.0453 27.2813 9.86692 27.3541 9.68106 27.3541C9.49519 27.3541 9.31685 27.2813 9.18489 27.1517L5.55496 23.5557C5.12703 23.1306 4.88672 22.5548 4.88672 21.9544C4.88672 21.354 5.12703 20.7782 5.55496 20.353L5.69092 20.2184C5.90273 20.0074 6.15465 19.8402 6.43211 19.7263C6.70958 19.6124 7.00708 19.5541 7.30742 19.5548C7.60778 19.554 7.9053 19.6122 8.18278 19.7261C8.46026 19.84 8.71218 20.0073 8.92392 20.2184L14.5325 25.7744C14.5977 25.839 14.6494 25.9156 14.6847 25.9999C14.7199 26.0843 14.738 26.1747 14.7379 26.266V30.9697C14.7385 31.0617 14.7206 31.1528 14.6854 31.2379C14.6503 31.323 14.5984 31.4003 14.5329 31.4655C14.4674 31.5306 14.3896 31.5823 14.3039 31.6175C14.2181 31.6527 14.1262 31.6708 14.0334 31.6706Z" fill="url(#paint0_linear_3701_528)"/>
<path d="M7.70651 31.6706C7.51999 31.6703 7.34119 31.5968 7.2093 31.4661C7.07742 31.3355 7.0032 31.1584 7.00294 30.9736V30.4821L2.96716 26.4792C2.23709 25.7597 1.6583 24.9039 1.26432 23.9613C0.870342 23.0188 0.668986 22.0082 0.671906 20.988V12.1565C0.673478 11.5573 0.914454 10.9831 1.34214 10.5594C1.76982 10.1358 2.34942 9.89706 2.95425 9.89551C3.55986 9.89603 4.1406 10.1342 4.5693 10.558C4.998 10.9818 5.23973 11.5565 5.24156 12.1565V19.2127C5.2413 19.3973 5.16707 19.5744 5.03515 19.7048C4.90324 19.8353 4.72445 19.9086 4.53802 19.9086C4.3516 19.9086 4.17278 19.8353 4.04087 19.7048C3.90895 19.5744 3.83472 19.3973 3.83446 19.2127V12.1565C3.83446 11.9252 3.74173 11.7034 3.57666 11.5399C3.41159 11.3764 3.18769 11.2845 2.95425 11.2845C2.72106 11.285 2.49761 11.3771 2.33281 11.5406C2.16802 11.704 2.07533 11.9255 2.07507 12.1565V20.988C2.07274 21.8253 2.23818 22.6548 2.56183 23.4283C2.88547 24.2018 3.36088 24.904 3.96048 25.4942L8.20168 29.6957C8.33342 29.826 8.40765 30.0027 8.40809 30.1872V30.9736C8.40783 31.158 8.33388 31.3349 8.20243 31.4655C8.07097 31.5961 7.89268 31.6698 7.70651 31.6706Z" fill="url(#paint1_linear_3701_528)"/>
<path d="M18.7973 31.6706C18.6108 31.6704 18.432 31.5968 18.3001 31.4662C18.1682 31.3355 18.094 31.1584 18.0938 30.9737V26.2699C18.0939 26.1785 18.1122 26.0881 18.1476 26.0038C18.183 25.9194 18.2348 25.8428 18.3002 25.7783L23.9078 20.2223C24.1196 20.0113 24.3715 19.8441 24.649 19.7302C24.9264 19.6163 25.2239 19.558 25.5243 19.5587C25.8246 19.5579 26.1222 19.6161 26.3996 19.73C26.6771 19.8439 26.929 20.0112 27.1408 20.2223L27.2767 20.3569C27.4897 20.5668 27.6585 20.8163 27.7735 21.0912C27.8884 21.3661 27.9473 21.6608 27.9465 21.9583C27.9474 22.2558 27.8886 22.5506 27.7736 22.8255C27.6586 23.1003 27.4897 23.3499 27.2767 23.5597L23.6478 27.1556C23.5157 27.285 23.3374 27.3576 23.1516 27.3576C22.9658 27.3576 22.7875 27.285 22.6555 27.1556C22.5248 27.0247 22.4515 26.8481 22.4515 26.6641C22.4515 26.48 22.5248 26.3034 22.6555 26.1725L26.2854 22.5776C26.3668 22.496 26.4311 22.3991 26.4744 22.2926C26.5176 22.1861 26.5391 22.0721 26.5374 21.9573C26.5378 21.8428 26.5151 21.7293 26.4708 21.6235C26.4266 21.5177 26.3615 21.4217 26.2794 21.341L26.1435 21.2063C25.9758 21.0483 25.7532 20.9602 25.5218 20.9602C25.2904 20.9602 25.0678 21.0483 24.9001 21.2063L19.4919 26.5579V30.9737C19.4917 31.1569 19.4187 31.3327 19.2888 31.4631C19.1588 31.5935 18.9823 31.668 18.7973 31.6706Z" fill="url(#paint2_linear_3701_528)"/>
<path d="M25.1176 31.6704C24.931 31.6704 24.7521 31.597 24.6201 31.4663C24.4882 31.3356 24.4141 31.1583 24.4141 30.9735V30.187C24.4146 30.0028 24.4884 29.8262 24.6195 29.6955L28.8617 25.496C29.4611 24.9058 29.9364 24.2035 30.2601 23.43C30.5837 22.6565 30.7492 21.8271 30.7471 20.9898V12.1583C30.7471 11.9272 30.6545 11.7056 30.4896 11.5421C30.3248 11.3786 30.1011 11.2866 29.8679 11.2864C29.6346 11.2866 29.411 11.3786 29.2461 11.5421C29.0813 11.7056 28.9887 11.9272 28.9887 12.1583V19.2145C28.9884 19.3992 28.9142 19.5762 28.7823 19.7067C28.6504 19.8372 28.4715 19.9105 28.2851 19.9105C28.1928 19.9106 28.1013 19.8927 28.016 19.8578C27.9306 19.8228 27.853 19.7716 27.7877 19.707C27.7224 19.6423 27.6705 19.5656 27.6351 19.481C27.5998 19.3965 27.5816 19.306 27.5816 19.2145V12.1583C27.5832 11.5591 27.8241 10.985 28.2518 10.5613C28.6795 10.1376 29.2591 9.8989 29.8639 9.89734C30.4687 9.89915 31.0481 10.1379 31.4757 10.5616C31.9034 10.9852 32.1444 11.5592 32.1463 12.1583V20.9898C32.1495 22.0093 31.9488 23.0193 31.5557 23.9615C31.1626 24.9037 30.5849 25.7594 29.856 26.4791L25.8202 30.477V30.9685C25.8209 31.0604 25.8032 31.1515 25.7682 31.2365C25.7332 31.3216 25.6815 31.399 25.6162 31.4642C25.5509 31.5294 25.4733 31.5812 25.3877 31.6166C25.3021 31.652 25.2104 31.6703 25.1176 31.6704Z" fill="url(#paint3_linear_3701_528)"/>
<path d="M14.8283 34.8064C14.6417 34.8064 14.4627 34.7329 14.3308 34.6022C14.1989 34.4715 14.1247 34.2943 14.1247 34.1094V33.2384H7.61705V34.1094C7.61718 34.201 7.59909 34.2917 7.56378 34.3763C7.52847 34.4609 7.47665 34.5378 7.4113 34.6025C7.34594 34.6673 7.26833 34.7186 7.18291 34.7536C7.09749 34.7886 7.00594 34.8065 6.91351 34.8064C6.82117 34.8064 6.72973 34.7883 6.64443 34.7533C6.55912 34.7183 6.48161 34.6669 6.41636 34.6022C6.3511 34.5374 6.29939 34.4606 6.26414 34.3761C6.22889 34.2915 6.21081 34.2009 6.21094 34.1094V32.5366C6.21094 32.3519 6.28492 32.1748 6.41665 32.0441C6.54838 31.9134 6.72709 31.8399 6.91351 31.8396H14.8283C15.0148 31.8399 15.1936 31.9134 15.3255 32.044C15.4574 32.1747 15.5316 32.3518 15.5318 32.5366V34.1094C15.5318 34.2943 15.4577 34.4715 15.3258 34.6022C15.1938 34.7329 15.0149 34.8064 14.8283 34.8064Z" fill="url(#paint4_linear_3701_528)"/>
<path d="M25.9142 34.8064C25.7276 34.8064 25.5487 34.7329 25.4167 34.6022C25.2848 34.4715 25.2107 34.2943 25.2107 34.1094V33.2384H18.703V34.1094C18.7031 34.2009 18.6851 34.2915 18.6498 34.3761C18.6146 34.4606 18.5628 34.5374 18.4976 34.6022C18.4323 34.6669 18.3548 34.7183 18.2695 34.7533C18.1842 34.7883 18.0928 34.8064 18.0004 34.8064C17.908 34.8065 17.8165 34.7886 17.731 34.7536C17.6456 34.7186 17.568 34.6673 17.5027 34.6025C17.4373 34.5378 17.3855 34.4609 17.3502 34.3763C17.3149 34.2917 17.2967 34.201 17.2969 34.1094V32.5366C17.2969 32.3517 17.371 32.1744 17.5029 32.0437C17.6349 31.913 17.8138 31.8396 18.0004 31.8396H25.9142C26.1007 31.8399 26.2795 31.9134 26.4114 32.044C26.5433 32.1747 26.6175 32.3518 26.6178 32.5366V34.1094C26.6178 34.2009 26.5996 34.2916 26.5642 34.3761C26.5289 34.4607 26.4771 34.5375 26.4117 34.6022C26.3464 34.667 26.2688 34.7183 26.1835 34.7533C26.0981 34.7883 26.0066 34.8064 25.9142 34.8064Z" fill="url(#paint5_linear_3701_528)"/>
<path d="M16.4354 8.71388C15.3774 8.71258 14.3631 8.29558 13.6151 7.55436C12.8671 6.81315 12.4464 5.80825 12.4453 4.76015C12.4466 3.71212 12.8674 2.70737 13.6154 1.96621C14.3634 1.22505 15.3775 0.807957 16.4354 0.806396C17.4934 0.807957 18.5075 1.22505 19.2555 1.96621C20.0035 2.70737 20.4243 3.71212 20.4256 4.76015C20.4245 5.80825 20.0038 6.81315 19.2558 7.55436C18.5078 8.29558 17.4935 8.71258 16.4354 8.71388ZM16.4354 2.20034C15.7517 2.20215 15.0966 2.47201 14.6131 2.95094C14.1297 3.42987 13.8572 4.07891 13.8554 4.75621C13.8572 5.43351 14.1297 6.08255 14.6131 6.56148C15.0966 7.0404 15.7517 7.31027 16.4354 7.31208C17.1192 7.31027 17.7743 7.0404 18.2578 6.56148C18.7413 6.08255 19.0137 5.43351 19.0155 4.75621C19.0142 4.07857 18.742 3.42902 18.2585 2.94967C17.775 2.47032 17.1195 2.20019 16.4354 2.19837V2.20034Z" fill="url(#paint6_linear_3701_528)"/>
<path d="M16.2671 18.8361C11.0941 18.8361 9.12239 16.5751 8.17472 15.4938C8.08739 15.3955 8.00899 15.304 7.93754 15.2264C7.81686 15.098 7.74985 14.929 7.75 14.7535V12.5594C7.7521 11.7539 8.07603 10.982 8.65099 10.4124C9.22595 9.84288 10.0051 9.52197 10.8183 9.5199H21.9958C22.8091 9.52171 23.5885 9.84251 24.1637 10.4121C24.7389 10.9817 25.063 11.7538 25.0651 12.5594V14.439C25.0648 14.6051 25.005 14.7657 24.8964 14.8922C24.8448 14.9511 24.7902 15.017 24.7297 15.0888C23.7919 16.2124 21.5959 18.8361 16.2671 18.8361ZM9.16108 14.4862L9.24345 14.5845C10.1167 15.5832 11.7421 17.4441 16.2721 17.4441C20.936 17.4441 22.7718 15.2549 23.652 14.2001C23.6553 14.1953 23.659 14.1907 23.6629 14.1863V12.5594C23.6624 12.123 23.4871 11.7046 23.1754 11.396C22.8638 11.0875 22.4413 10.9141 22.0008 10.9138H10.8183C10.3783 10.9157 9.95695 11.09 9.64639 11.3988C9.33584 11.7075 9.16134 12.1255 9.16108 12.5614V14.4862Z" fill="url(#paint7_linear_3701_528)"/>
<defs>
<linearGradient id="paint0_linear_3701_528" x1="-8.12597" y1="25.6029" x2="32.3096" y2="26.093" gradientUnits="userSpaceOnUse">
<stop offset="0.317708" stop-color="#E43425"/>
<stop offset="0.71875" stop-color="#441FD8"/>
<stop offset="1" stop-color="#0A26B8"/>
</linearGradient>
<linearGradient id="paint1_linear_3701_528" x1="-7.65302" y1="20.7655" x2="32.2793" y2="22.0119" gradientUnits="userSpaceOnUse">
<stop offset="0.317708" stop-color="#E43425"/>
<stop offset="0.71875" stop-color="#441FD8"/>
<stop offset="1" stop-color="#0A26B8"/>
</linearGradient>
<linearGradient id="paint2_linear_3701_528" x1="-8.59293" y1="25.6049" x2="32.3128" y2="26.1004" gradientUnits="userSpaceOnUse">
<stop offset="0.317708" stop-color="#E43425"/>
<stop offset="0.71875" stop-color="#441FD8"/>
<stop offset="1" stop-color="#0A26B8"/>
</linearGradient>
<linearGradient id="paint3_linear_3701_528" x1="-9.06552" y1="20.3544" x2="36.0345" y2="21.7628" gradientUnits="userSpaceOnUse">
<stop offset="0.317708" stop-color="#E43425"/>
<stop offset="0.71875" stop-color="#441FD8"/>
<stop offset="1" stop-color="#0A26B8"/>
</linearGradient>
<linearGradient id="paint4_linear_3701_528" x1="-8.59458" y1="33.3206" x2="31.8464" y2="33.1737" gradientUnits="userSpaceOnUse">
<stop offset="0.317708" stop-color="#E43425"/>
<stop offset="0.71875" stop-color="#441FD8"/>
<stop offset="1" stop-color="#0A26B8"/>
</linearGradient>
<linearGradient id="paint5_linear_3701_528" x1="-10.4699" y1="33.3206" x2="33.733" y2="33.1601" gradientUnits="userSpaceOnUse">
<stop offset="0.317708" stop-color="#E43425"/>
<stop offset="0.71875" stop-color="#441FD8"/>
<stop offset="1" stop-color="#0A26B8"/>
</linearGradient>
<linearGradient id="paint6_linear_3701_528" x1="-9.05759" y1="4.75375" x2="31.8509" y2="5.11977" gradientUnits="userSpaceOnUse">
<stop offset="0.317708" stop-color="#E43425"/>
<stop offset="0.71875" stop-color="#441FD8"/>
<stop offset="1" stop-color="#0A26B8"/>
</linearGradient>
<linearGradient id="paint7_linear_3701_528" x1="-8.59485" y1="14.1705" x2="32.3167" y2="14.2454" gradientUnits="userSpaceOnUse">
<stop offset="0.317708" stop-color="#E43425"/>
<stop offset="0.71875" stop-color="#441FD8"/>
<stop offset="1" stop-color="#0A26B8"/>
</linearGradient>
</defs>
</svg>
