<svg width="34" height="31" viewBox="0 0 34 31" fill="none" xmlns="http://www.w3.org/2000/svg">
<path d="M7.35505 8.09287C8.42794 8.09193 9.45664 7.66531 10.2153 6.90665C10.9739 6.148 11.4006 5.11935 11.4015 4.04646C11.4006 2.97356 10.9739 1.94487 10.2153 1.18621C9.45664 0.427563 8.42794 0.000937435 7.35505 0C6.28244 0.00187192 5.25429 0.428803 4.49585 1.18725C3.7374 1.9457 3.31047 2.97385 3.30859 4.04646C3.31047 5.11906 3.7374 6.14721 4.49585 6.90566C5.25429 7.66411 6.28244 8.091 7.35505 8.09287ZM7.35505 1.49749C8.03078 1.49843 8.67857 1.7673 9.15639 2.24512C9.63421 2.72293 9.90303 3.37072 9.90397 4.04646C9.90303 4.72219 9.63421 5.36998 9.15639 5.8478C8.67857 6.32561 8.03078 6.59444 7.35505 6.59538C6.67932 6.59444 6.03153 6.32561 5.55371 5.8478C5.07589 5.36998 4.80707 4.72219 4.80613 4.04646C4.8108 3.37318 5.08127 2.729 5.55868 2.25423C6.03609 1.77947 6.68176 1.51259 7.35505 1.51167V1.49749Z" fill="url(#paint0_linear_3701_927)"/>
<path d="M17.0386 8.09287C18.1112 8.091 19.1394 7.66411 19.8978 6.90566C20.6563 6.14721 21.0832 5.11906 21.0851 4.04646C21.0832 2.97385 20.6563 1.9457 19.8978 1.18725C19.1394 0.428803 18.1112 0.00187192 17.0386 0C15.9657 0.000937435 14.937 0.427563 14.1784 1.18621C13.4197 1.94487 12.9931 2.97356 12.9922 4.04646C12.9931 5.11935 13.4197 6.148 14.1784 6.90665C14.937 7.66531 15.9657 8.09193 17.0386 8.09287ZM17.0386 1.49749C17.7143 1.49843 18.3621 1.7673 18.8399 2.24512C19.3178 2.72293 19.5866 3.37072 19.5876 4.04646C19.5866 4.72219 19.3178 5.36998 18.8399 5.8478C18.3621 6.32561 17.7143 6.59444 17.0386 6.59538C16.3629 6.59444 15.7151 6.32561 15.2373 5.8478C14.7594 5.36998 14.4906 4.72219 14.4897 4.04646C14.4943 3.37318 14.7648 2.729 15.2422 2.25423C15.7196 1.77947 16.3653 1.51259 17.0386 1.51167V1.49749Z" fill="url(#paint1_linear_3701_927)"/>
<path d="M20.8724 11.75C20.774 11.75 20.6766 11.7694 20.5858 11.8072C20.4949 11.8449 20.4124 11.9003 20.343 11.97C20.2736 12.0398 20.2186 12.1225 20.1813 12.2136C20.144 12.3046 20.125 12.4021 20.1254 12.5005V28.0065C20.1254 28.4243 19.9166 28.8456 19.4493 28.8456C19.2311 28.8409 19.0237 28.75 18.8724 28.5928C18.7211 28.4355 18.6383 28.2247 18.6421 28.0065V20.9262C18.6421 20.5014 18.4736 20.0941 18.1737 19.7934C17.8737 19.4928 17.4666 19.3234 17.0419 19.3225C16.6166 19.3225 16.2087 19.4914 15.908 19.7922C15.6072 20.0929 15.4382 20.5008 15.4382 20.9262V28.0065C15.442 28.2247 15.3592 28.4355 15.2079 28.5928C15.0566 28.75 14.8492 28.8409 14.6311 28.8456C14.1673 28.8456 13.9584 28.4243 13.9584 28.0065V12.4864C13.9584 12.2873 13.8794 12.0964 13.7386 11.9557C13.5979 11.8149 13.407 11.7358 13.2079 11.7358C13.1095 11.7358 13.0121 11.7553 12.9212 11.7931C12.8304 11.8308 12.7479 11.8862 12.6784 11.9559C12.609 12.0256 12.5541 12.1084 12.5168 12.1994C12.4794 12.2904 12.4605 12.388 12.4609 12.4864V27.9924C12.4609 29.3271 13.392 30.3325 14.6311 30.3325C15.2467 30.3269 15.835 30.0774 16.267 29.6387C16.699 29.2001 16.9395 28.6081 16.9358 27.9924V20.912C16.9367 20.8845 16.9483 20.8584 16.9681 20.8392C16.9879 20.8201 17.0144 20.8093 17.0419 20.8094C17.0692 20.8094 17.0953 20.8202 17.1145 20.8394C17.1338 20.8587 17.1446 20.8848 17.1446 20.912V27.9924C17.1408 28.6081 17.3813 29.2001 17.8133 29.6387C18.2453 30.0774 18.8336 30.3269 19.4493 30.3325C20.6883 30.3325 21.623 29.3271 21.623 27.9924V12.4864C21.6192 12.2898 21.5385 12.1025 21.3982 11.9648C21.2578 11.8271 21.0691 11.75 20.8724 11.75Z" fill="url(#paint2_linear_3701_927)"/>
<path d="M26.6398 8.09287C27.7124 8.091 28.7406 7.66411 29.499 6.90566C30.2575 6.14721 30.6844 5.11906 30.6863 4.04646C30.6844 2.97385 30.2575 1.9457 29.499 1.18725C28.7406 0.428803 27.7124 0.00187192 26.6398 0C25.5666 0.000935674 24.5375 0.427448 23.7783 1.186C23.0191 1.94455 22.5917 2.97324 22.5898 4.04646C22.5917 5.11968 23.0191 6.14832 23.7783 6.90687C24.5375 7.66542 25.5666 8.09193 26.6398 8.09287ZM26.6398 1.49749C27.3152 1.49843 27.9626 1.76742 28.4399 2.24533C28.9171 2.72325 29.1852 3.37105 29.1852 4.04646C29.1852 4.72186 28.9171 5.36966 28.4399 5.84758C27.9626 6.3255 27.3152 6.59444 26.6398 6.59538C25.9641 6.59444 25.3163 6.32561 24.8385 5.8478C24.3606 5.36998 24.0918 4.72219 24.0909 4.04646C24.0955 3.37318 24.366 2.729 24.8434 2.25423C25.3208 1.77947 25.9665 1.51259 26.6398 1.51167V1.49749Z" fill="url(#paint3_linear_3701_927)"/>
<path d="M29.8898 8.23828H4.11016C3.02065 8.24015 1.97632 8.6738 1.20592 9.4442C0.435521 10.2146 0.00187201 11.2589 0 12.3484V18.2358C0 19.4996 0.888619 20.4555 2.0675 20.4555C2.30846 20.4538 2.54756 20.4132 2.77554 20.3351V28.0173C2.77554 29.352 3.71011 30.3574 4.94918 30.3574C5.56482 30.3518 6.15312 30.1023 6.58513 29.6636C7.01714 29.225 7.25762 28.633 7.25385 28.0173V20.9369C7.25385 20.9097 7.26467 20.8836 7.28392 20.8643C7.30318 20.8451 7.3293 20.8343 7.35653 20.8343C7.38375 20.8343 7.40987 20.8451 7.42913 20.8643C7.44838 20.8836 7.4592 20.9097 7.4592 20.9369V28.0173C7.45637 28.6333 7.69763 29.2253 8.13021 29.6639C8.56278 30.1024 9.15145 30.3518 9.76742 30.3574C11.0065 30.3574 11.9375 29.352 11.9375 28.0173V12.4865C11.938 12.3881 11.919 12.2906 11.8817 12.1996C11.8443 12.1085 11.7894 12.0258 11.72 11.956C11.6506 11.8863 11.5681 11.831 11.4772 11.7932C11.3864 11.7554 11.2889 11.736 11.1905 11.736C10.9915 11.736 10.8006 11.8151 10.6599 11.9558C10.5191 12.0966 10.44 12.2875 10.44 12.4865V27.9926C10.44 28.4103 10.2312 28.8316 9.76742 28.8316C9.54926 28.8269 9.34182 28.736 9.19054 28.5788C9.03925 28.4215 8.95645 28.2107 8.96024 27.9926V20.9122C8.96024 20.4868 8.79129 20.0789 8.49054 19.7782C8.18978 19.4774 7.78185 19.3085 7.35653 19.3085C6.93148 19.3094 6.5241 19.4787 6.22355 19.7792C5.923 20.0798 5.75374 20.4871 5.75281 20.9122V27.9926C5.75516 28.1004 5.73622 28.2077 5.6971 28.3082C5.65799 28.4088 5.59948 28.5006 5.52485 28.5786C5.45022 28.6565 5.36096 28.7189 5.26219 28.7623C5.16342 28.8057 5.05704 28.8293 4.94918 28.8316C4.48187 28.8316 4.27303 28.4103 4.27303 27.9926V12.4865C4.2735 12.3881 4.25453 12.2906 4.2172 12.1996C4.17987 12.1085 4.1249 12.0258 4.05549 11.956C3.98608 11.8863 3.90356 11.831 3.81271 11.7932C3.72185 11.7554 3.62445 11.736 3.52606 11.736C3.32701 11.736 3.13608 11.8151 2.99533 11.9558C2.85458 12.0966 2.77554 12.2875 2.77554 12.4865V18.0552C2.77014 18.107 2.77014 18.1592 2.77554 18.211C2.77554 18.3988 2.70093 18.5789 2.56815 18.7117C2.43537 18.8444 2.25529 18.919 2.0675 18.919C1.6179 18.919 1.50104 18.4659 1.50104 18.211V12.3237C1.50197 11.6317 1.77707 10.9682 2.26608 10.4785C2.75508 9.98885 3.41814 9.71288 4.11016 9.71101H29.8898C30.5819 9.71288 31.2449 9.98885 31.7339 10.4785C32.2229 10.9682 32.498 11.6317 32.499 12.3237V18.211C32.499 18.4765 32.3786 18.919 31.9325 18.919C31.7448 18.919 31.5646 18.8444 31.4319 18.7117C31.2991 18.5789 31.2245 18.3988 31.2245 18.211C31.2301 18.1581 31.2301 18.1046 31.2245 18.0517V12.4865C31.2245 12.2875 31.1454 12.0966 31.0047 11.9558C30.8639 11.8151 30.673 11.736 30.474 11.736C30.2749 11.736 30.084 11.8151 29.9433 11.9558C29.8025 12.0966 29.7235 12.2875 29.7235 12.4865V27.9926C29.7235 28.4103 29.5181 28.8316 29.0508 28.8316C28.8327 28.8269 28.6252 28.736 28.4739 28.5788C28.3227 28.4215 28.2399 28.2107 28.2436 27.9926V20.9122C28.2436 20.4875 28.0752 20.0801 27.7752 19.7794C27.4752 19.4788 27.0682 19.3094 26.6435 19.3085C26.2181 19.3085 25.8103 19.4774 25.5095 19.7782C25.2088 20.0789 25.0398 20.4868 25.0398 20.9122V27.9926C25.0436 28.2107 24.9607 28.4215 24.8095 28.5788C24.6582 28.736 24.4508 28.8269 24.2326 28.8316C23.7689 28.8316 23.56 28.4103 23.56 27.9926V12.4865C23.56 12.2875 23.4809 12.0966 23.3401 11.9558C23.1994 11.8151 23.0085 11.736 22.8095 11.736C22.6104 11.736 22.4195 11.8151 22.2787 11.9558C22.138 12.0966 22.0589 12.2875 22.0589 12.4865V27.9926C22.0589 29.3272 22.9936 30.3326 24.2326 30.3326C24.8483 30.327 25.4366 30.0775 25.8686 29.6389C26.3006 29.2002 26.5411 28.6082 26.5373 27.9926V20.9122C26.5373 20.8984 26.54 20.8847 26.5454 20.872C26.5508 20.8593 26.5587 20.8479 26.5686 20.8383C26.5785 20.8287 26.5902 20.8212 26.6031 20.8163C26.616 20.8113 26.6297 20.809 26.6435 20.8095C26.6707 20.8095 26.6968 20.8203 26.7161 20.8396C26.7353 20.8588 26.7462 20.8849 26.7462 20.9122V27.9926C26.7424 28.6082 26.9829 29.2002 27.4149 29.6389C27.8469 30.0775 28.4352 30.327 29.0508 30.3326C30.2899 30.3326 31.2245 29.3272 31.2245 27.9926V20.3103C31.4525 20.3884 31.6916 20.429 31.9325 20.4307C33.1114 20.4307 34 19.4749 34 18.211V12.3237C33.9916 11.2385 33.5551 10.2004 32.7854 9.43539C32.0157 8.67033 30.9751 8.24012 29.8898 8.23828Z" fill="url(#paint4_linear_3701_927)"/>
<defs>
<linearGradient id="paint0_linear_3701_927" x1="-7" y1="4.0399" x2="33.9966" y2="4.41183" gradientUnits="userSpaceOnUse">
<stop offset="0.317708" stop-color="#E43425"/>
<stop offset="0.71875" stop-color="#441FD8"/>
<stop offset="1" stop-color="#0A26B8"/>
</linearGradient>
<linearGradient id="paint1_linear_3701_927" x1="-5" y1="3.88678" x2="35.4967" y2="4.25418" gradientUnits="userSpaceOnUse">
<stop offset="0.317708" stop-color="#E43425"/>
<stop offset="0.71875" stop-color="#441FD8"/>
<stop offset="1" stop-color="#0A26B8"/>
</linearGradient>
<linearGradient id="paint2_linear_3701_927" x1="-8" y1="20.6673" x2="34.9793" y2="21.6113" gradientUnits="userSpaceOnUse">
<stop offset="0.317708" stop-color="#E43425"/>
<stop offset="0.71875" stop-color="#441FD8"/>
<stop offset="1" stop-color="#0A26B8"/>
</linearGradient>
<linearGradient id="paint3_linear_3701_927" x1="-3" y1="3.88678" x2="34.9969" y2="4.23127" gradientUnits="userSpaceOnUse">
<stop offset="0.317708" stop-color="#E43425"/>
<stop offset="0.71875" stop-color="#441FD8"/>
<stop offset="1" stop-color="#0A26B8"/>
</linearGradient>
<linearGradient id="paint4_linear_3701_927" x1="-14.7471" y1="19.28" x2="41.7705" y2="19.0794" gradientUnits="userSpaceOnUse">
<stop offset="0.317708" stop-color="#E43425"/>
<stop offset="0.71875" stop-color="#441FD8"/>
<stop offset="1" stop-color="#0A26B8"/>
</linearGradient>
</defs>
</svg>
