<svg width="24" height="24" viewBox="0 0 24 24" fill="none" xmlns="http://www.w3.org/2000/svg">
<mask id="mask0_3499_1232" style="mask-type:alpha" maskUnits="userSpaceOnUse" x="0" y="0" width="24" height="24">
<rect width="24" height="24" fill="#D9D9D9"/>
</mask>
<g mask="url(#mask0_3499_1232)">
<path d="M3 11V3H11V11H3ZM5 9H9V5H5V9ZM3 21V13H11V21H3ZM5 19H9V15H5V19ZM13 11V3H21V11H13ZM15 9H19V5H15V9ZM19 21V19H21V21H19ZM13 15V13H15V15H13ZM15 17V15H17V17H15ZM13 19V17H15V19H13ZM15 21V19H17V21H15ZM17 19V17H19V19H17ZM17 15V13H19V15H17ZM19 17V15H21V17H19Z" fill="url(#paint0_linear_3499_1232)"/>
</g>
<defs>
<linearGradient id="paint0_linear_3499_1232" x1="-4.8073" y1="11.9855" x2="25.114" y2="11.9164" gradientUnits="userSpaceOnUse">
<stop offset="0.317708" stop-color="#E43425"/>
<stop offset="0.71875" stop-color="#441FD8"/>
<stop offset="1" stop-color="#0A26B8"/>
</linearGradient>
</defs>
</svg>
