<svg width="40" height="40" viewBox="0 0 40 40" fill="none" xmlns="http://www.w3.org/2000/svg">
<mask id="mask0_6029_12956" style="mask-type:alpha" maskUnits="userSpaceOnUse" x="0" y="0" width="40" height="40">
<rect width="40" height="40" fill="#D9D9D9"/>
</mask>
<g mask="url(#mask0_6029_12956)">
<path d="M8.8335 25V10C8.8335 9.08333 9.10197 8.33097 9.63891 7.74292C10.1761 7.15514 10.9331 6.69681 11.9097 6.36792C12.8867 6.03931 14.065 5.8125 15.4447 5.6875C16.8242 5.5625 18.3427 5.5 20.0002 5.5C21.6482 5.5 23.1552 5.5625 24.521 5.6875C25.8868 5.8125 27.0628 6.03931 28.0489 6.36792C29.035 6.69681 29.8011 7.15514 30.3472 7.74292C30.8936 8.33097 31.1668 9.08333 31.1668 10V25C31.1668 26.25 30.7293 27.3125 29.8543 28.1875C28.9793 29.0625 27.9168 29.5 26.6668 29.5L29.1668 32V32.8333H28.4168L25.0835 29.5H14.9168L11.5835 32.8333H10.8335V32L13.3335 29.5C12.0835 29.5 11.021 29.0625 10.146 28.1875C9.271 27.3125 8.8335 26.25 8.8335 25ZM20.0002 6.5C16.5649 6.5 14.0695 6.73847 12.5139 7.21542C10.9584 7.69208 10.0464 8.45361 9.77808 9.5H30.2222C29.9539 8.47222 29.0281 7.71528 27.4447 7.22917C25.8614 6.74306 23.3799 6.5 20.0002 6.5ZM9.8335 18.9446H19.5281V10.5H9.8335V18.9446ZM20.5281 18.9446H30.1668V10.5H20.5281V18.9446ZM14.1389 25.8613C14.5742 25.8613 14.9516 25.7061 15.271 25.3958C15.5904 25.0856 15.7502 24.7036 15.7502 24.25C15.7502 23.7964 15.5904 23.4099 15.271 23.0904C14.9516 22.771 14.5742 22.6113 14.1389 22.6113C13.6853 22.6113 13.2988 22.771 12.9793 23.0904C12.6599 23.4099 12.5002 23.7964 12.5002 24.25C12.5002 24.7036 12.6599 25.0856 12.9793 25.3958C13.2988 25.7061 13.6853 25.8613 14.1389 25.8613ZM25.8889 25.8613C26.3242 25.8613 26.7016 25.7061 27.021 25.3958C27.3404 25.0856 27.5002 24.7036 27.5002 24.25C27.5002 23.7964 27.3404 23.4099 27.021 23.0904C26.7016 22.771 26.3242 22.6113 25.8889 22.6113C25.4353 22.6113 25.0488 22.771 24.7293 23.0904C24.4099 23.4099 24.2502 23.7964 24.2502 24.25C24.2502 24.7036 24.4099 25.0856 24.7293 25.3958C25.0488 25.7061 25.4353 25.8613 25.8889 25.8613ZM13.3335 28.5279H26.6668C27.6391 28.5279 28.4654 28.1829 29.146 27.4929C29.8266 26.8032 30.1668 25.9722 30.1668 25V19.9446H9.8335V25C9.8335 25.9722 10.1738 26.8032 10.8543 27.4929C11.5349 28.1829 12.3613 28.5279 13.3335 28.5279Z" fill="url(#paint0_linear_6029_12956)"/>
</g>
<defs>
<linearGradient id="paint0_linear_6029_12956" x1="-0.853344" y1="19.1446" x2="36.2713" y2="19.0745" gradientUnits="userSpaceOnUse">
<stop offset="0.317708" stop-color="#E43425"/>
<stop offset="0.71875" stop-color="#441FD8"/>
<stop offset="1" stop-color="#0A26B8"/>
</linearGradient>
</defs>
</svg>
