<svg width="40" height="40" viewBox="0 0 40 40" fill="none" xmlns="http://www.w3.org/2000/svg">
<mask id="mask0_5802_294" style="mask-type:alpha" maskUnits="userSpaceOnUse" x="0" y="0" width="40" height="40">
<rect width="40" height="40" fill="#D9D9D9"/>
</mask>
<g mask="url(#mask0_5802_294)">
<path d="M30.0022 9.52791C29.2674 9.52791 28.6482 9.27679 28.1445 8.77454C27.6407 8.27232 27.3889 7.6538 27.3889 6.919C27.3889 6.18419 27.64 5.56494 28.1423 5.06125C28.6445 4.55752 29.263 4.30566 29.9978 4.30566C30.7326 4.30566 31.3518 4.55679 31.8555 5.05904C32.3593 5.56126 32.6111 6.17978 32.6111 6.91458C32.6111 7.64939 32.36 8.26864 31.8577 8.77233C31.3555 9.27605 30.737 9.52791 30.0022 9.52791ZM27.5833 35.5835V22.6112C27.5833 21.7387 27.3958 20.9535 27.0208 20.2555C26.6458 19.5575 26.037 19.0047 25.1945 18.5973L27.0833 13.7918C27.3056 13.2085 27.6875 12.7362 28.2292 12.3751C28.7708 12.014 29.3611 11.8335 30 11.8335C30.6389 11.8335 31.2292 12.0071 31.7708 12.3543C32.3125 12.7015 32.6944 13.1807 32.9167 13.7918L37.5 25.2501H32.9167V35.5835H27.5833ZM20.8007 19.0001C20.2021 19.0001 19.706 18.7971 19.3125 18.391C18.919 17.985 18.7222 17.492 18.7222 16.9119C18.7222 16.3318 18.9206 15.8404 19.3174 15.4376C19.7142 15.0348 20.2119 14.8335 20.8105 14.8335C21.3905 14.8335 21.8819 15.0365 22.2847 15.4425C22.6875 15.8486 22.8889 16.3416 22.8889 16.9217C22.8889 17.5018 22.6859 17.9932 22.2798 18.396C21.8738 18.7987 21.3807 19.0001 20.8007 19.0001ZM9.16887 9.52791C8.43407 9.52791 7.81482 9.27679 7.31112 8.77454C6.8074 8.27232 6.55554 7.6538 6.55554 6.919C6.55554 6.18419 6.80667 5.56494 7.30892 5.06125C7.81114 4.55752 8.42965 4.30566 9.16446 4.30566C9.89926 4.30566 10.5185 4.55679 11.0222 5.05904C11.5259 5.56126 11.7778 6.17978 11.7778 6.91458C11.7778 7.64939 11.5267 8.26864 11.0244 8.77233C10.5222 9.27605 9.90368 9.52791 9.16887 9.52791ZM6.41667 35.5835V24.7501H3.5V14.9168C3.5 14.2895 3.73206 13.7438 4.19617 13.2796C4.66031 12.8155 5.20603 12.5835 5.83333 12.5835H12.5C13.1273 12.5835 13.673 12.8155 14.1372 13.2796C14.6013 13.7438 14.8333 14.2895 14.8333 14.9168V24.7501H11.9167V35.5835H6.41667ZM18.9167 35.5835V29.9168H17.1667V22.6112C17.1667 22.1174 17.3395 21.6976 17.6852 21.352C18.0309 21.0063 18.4506 20.8335 18.9445 20.8335H22.6389C23.1327 20.8335 23.5525 21.0063 23.8982 21.352C24.2438 21.6976 24.4167 22.1174 24.4167 22.6112V29.9168H22.6667V35.5835H18.9167Z" fill="url(#paint0_linear_5802_294)"/>
</g>
<defs>
<linearGradient id="paint0_linear_5802_294" x1="-11.2471" y1="19.9193" x2="45.2709" y2="19.7774" gradientUnits="userSpaceOnUse">
<stop offset="0.317708" stop-color="#E43425"/>
<stop offset="0.71875" stop-color="#441FD8"/>
<stop offset="1" stop-color="#0A26B8"/>
</linearGradient>
</defs>
</svg>
