<svg width="40" height="40" viewBox="0 0 40 40" fill="none" xmlns="http://www.w3.org/2000/svg">
<mask id="mask0_5832_11500" style="mask-type:alpha" maskUnits="userSpaceOnUse" x="0" y="0" width="40" height="40">
<rect width="40" height="40" fill="#D9D9D9"/>
</mask>
<g mask="url(#mask0_5832_11500)">
<path d="M5.5 34.5V14.6946C5.5 12.8612 6.00236 11.2408 7.00708 9.83333C8.01153 8.42583 9.37958 7.36097 11.1113 6.63875C12.4168 6.13875 13.8658 5.82403 15.4583 5.69458C17.0508 5.56486 18.5647 5.5 20 5.5C21.4353 5.5 22.9492 5.56486 24.5417 5.69458C26.1342 5.82403 27.5832 6.13875 28.8888 6.63875C30.6388 7.36097 32.0115 8.42583 33.0071 9.83333C34.0024 11.2408 34.5 12.8612 34.5 14.6946V34.5H5.5ZM14.2779 33.5H25.75L23.0554 30.5H16.9446L14.2779 33.5ZM12.3887 22.2779H27.6388V14.9721H12.3887V22.2779ZM24.9242 27.1667C25.2803 27.1667 25.5764 27.0461 25.8125 26.805C26.0486 26.5642 26.1667 26.2656 26.1667 25.9092C26.1667 25.5531 26.0461 25.2569 25.805 25.0208C25.5642 24.7847 25.2656 24.6667 24.9092 24.6667C24.5531 24.6667 24.2569 24.7872 24.0208 25.0283C23.7847 25.2692 23.6667 25.5678 23.6667 25.9242C23.6667 26.2803 23.7872 26.5764 24.0283 26.8125C24.2692 27.0486 24.5678 27.1667 24.9242 27.1667ZM15.0908 27.1667C15.4469 27.1667 15.7431 27.0461 15.9792 26.805C16.2153 26.5642 16.3333 26.2656 16.3333 25.9092C16.3333 25.5531 16.2128 25.2569 15.9717 25.0208C15.7308 24.7847 15.4322 24.6667 15.0758 24.6667C14.7197 24.6667 14.4236 24.7872 14.1875 25.0283C13.9514 25.2692 13.8333 25.5678 13.8333 25.9242C13.8333 26.2803 13.9539 26.5764 14.195 26.8125C14.4358 27.0486 14.7344 27.1667 15.0908 27.1667ZM6.5 33.5H13.3333V32.6667L15.3054 30.4167C14.0926 30.3333 13.1274 29.8843 12.4096 29.0696C11.6921 28.2546 11.3333 27.1758 11.3333 25.8333V14.9721C11.3333 13.5926 12.1274 12.6274 13.7154 12.0763C15.3032 11.5254 17.3981 11.25 20 11.25C22.7222 11.25 24.8472 11.5254 26.375 12.0763C27.9028 12.6274 28.6667 13.5926 28.6667 14.9721V25.8333C28.6667 27.1389 28.3218 28.1968 27.6321 29.0071C26.9421 29.8171 25.9629 30.2869 24.6946 30.4167L26.6667 32.6667V33.5H33.5V14.6988C33.5 12.9738 33.0857 11.521 32.2571 10.3404C31.4282 9.15986 30.1838 8.24472 28.5238 7.595C27.2857 7.115 25.9142 6.8125 24.4092 6.6875C22.9039 6.5625 21.4339 6.5 19.9992 6.5C18.5644 6.5 17.0949 6.5625 15.5904 6.6875C14.0857 6.8125 12.7183 7.115 11.4883 7.595C9.83861 8.24472 8.59486 9.15986 7.75708 10.3404C6.91903 11.521 6.5 12.9738 6.5 14.6988V33.5Z" fill="url(#paint0_linear_5832_11500)"/>
</g>
<defs>
<linearGradient id="paint0_linear_5832_11500" x1="-7.07843" y1="19.9766" x2="41.1281" y2="19.8653" gradientUnits="userSpaceOnUse">
<stop offset="0.317708" stop-color="#E43425"/>
<stop offset="0.71875" stop-color="#441FD8"/>
<stop offset="1" stop-color="#0A26B8"/>
</linearGradient>
</defs>
</svg>
