<svg width="40" height="40" viewBox="0 0 40 40" fill="none" xmlns="http://www.w3.org/2000/svg">
<mask id="mask0_5802_334" style="mask-type:alpha" maskUnits="userSpaceOnUse" x="0" y="0" width="40" height="40">
<rect width="40" height="40" fill="#D9D9D9"/>
</mask>
<g mask="url(#mask0_5802_334)">
<path d="M23.8333 20.4163H30V19.4163H23.8333V20.4163ZM23.8333 15.9163H30V14.9163H23.8333V15.9163ZM10 25.1663H20.3333V25.1108C20.3333 24.2404 19.8866 23.5691 18.993 23.0969C18.0995 22.6247 16.8241 22.3885 15.1667 22.3885C13.5093 22.3885 12.2338 22.6247 11.3403 23.0969C10.4468 23.5691 10 24.2404 10 25.1108V25.1663ZM15.1632 19.2219C15.7859 19.2219 16.3079 19.0124 16.7292 18.5934C17.1505 18.1744 17.3611 17.6536 17.3611 17.0309C17.3611 16.4082 17.1516 15.8862 16.7326 15.465C16.3136 15.0437 15.7928 14.833 15.1701 14.833C14.5475 14.833 14.0255 15.0425 13.6042 15.4615C13.1829 15.8805 12.9722 16.4013 12.9722 17.024C12.9722 17.6467 13.1817 18.1687 13.6007 18.59C14.0197 19.0112 14.5405 19.2219 15.1632 19.2219ZM7.83333 31.1663C7.17083 31.1663 6.61632 30.9431 6.16979 30.4965C5.72326 30.05 5.5 29.4955 5.5 28.833V11.1663C5.5 10.5038 5.72326 9.94933 6.16979 9.5028C6.61632 9.05627 7.17083 8.83301 7.83333 8.83301H32.1667C32.8292 8.83301 33.3837 9.05627 33.8302 9.5028C34.2767 9.94933 34.5 10.5038 34.5 11.1663V28.833C34.5 29.4955 34.2767 30.05 33.8302 30.4965C33.3837 30.9431 32.8292 31.1663 32.1667 31.1663H7.83333ZM7.83333 30.1663H32.1667C32.5 30.1663 32.8056 30.0275 33.0833 29.7497C33.3611 29.4719 33.5 29.1663 33.5 28.833V11.1663C33.5 10.833 33.3611 10.5275 33.0833 10.2497C32.8056 9.9719 32.5 9.83301 32.1667 9.83301H7.83333C7.5 9.83301 7.19444 9.9719 6.91667 10.2497C6.63889 10.5275 6.5 10.833 6.5 11.1663V28.833C6.5 29.1663 6.63889 29.4719 6.91667 29.7497C7.19444 30.0275 7.5 30.1663 7.83333 30.1663Z" fill="url(#paint0_linear_5802_334)"/>
</g>
<defs>
<linearGradient id="paint0_linear_5802_334" x1="-7.07843" y1="19.9816" x2="41.128" y2="19.8371" gradientUnits="userSpaceOnUse">
<stop offset="0.317708" stop-color="#E43425"/>
<stop offset="0.71875" stop-color="#441FD8"/>
<stop offset="1" stop-color="#0A26B8"/>
</linearGradient>
</defs>
</svg>
