<svg width="40" height="40" viewBox="0 0 40 40" fill="none" xmlns="http://www.w3.org/2000/svg">
<mask id="mask0_5950_11617" style="mask-type:alpha" maskUnits="userSpaceOnUse" x="0" y="0" width="40" height="40">
<rect width="40" height="40" fill="#D9D9D9"/>
</mask>
<g mask="url(#mask0_5950_11617)">
<path d="M16.8055 35.5837V13.5837C14.8427 13.2967 13.1923 12.4634 11.8543 11.0837C10.5162 9.70394 9.72217 8.04657 9.47217 6.11157H10.4722C10.7499 8.00963 11.6088 9.57213 13.0488 10.7991C14.4886 12.0257 16.1019 12.6391 17.8888 12.6391H22.0555C22.6761 12.6391 23.1437 12.7063 23.4584 12.8407C23.7731 12.9749 24.1666 13.2596 24.6388 13.6949L31.5555 20.5282L30.8334 21.2503L23.1113 13.6116V35.5837H22.1113V25.6949H17.8055V35.5837H16.8055ZM19.9759 9.38908C19.242 9.38908 18.6227 9.13796 18.118 8.63574C17.6136 8.13352 17.3613 7.51546 17.3613 6.78158C17.3613 6.04769 17.6124 5.42852 18.1147 4.92407C18.6169 4.41935 19.2349 4.16699 19.9688 4.16699C20.7027 4.16699 21.3219 4.4181 21.8263 4.92033C22.3311 5.42283 22.5834 6.04088 22.5834 6.77449C22.5834 7.50838 22.3323 8.12769 21.8301 8.63241C21.3276 9.13685 20.7095 9.38908 19.9759 9.38908Z" fill="url(#paint0_linear_5950_11617)"/>
</g>
<defs>
<linearGradient id="paint0_linear_5950_11617" x1="-0.106238" y1="19.8499" x2="36.6029" y2="19.7904" gradientUnits="userSpaceOnUse">
<stop offset="0.317708" stop-color="#E43425"/>
<stop offset="0.71875" stop-color="#441FD8"/>
<stop offset="1" stop-color="#0A26B8"/>
</linearGradient>
</defs>
</svg>
