<svg width="40" height="40" viewBox="0 0 40 40" fill="none" xmlns="http://www.w3.org/2000/svg">
<mask id="mask0_5832_11494" style="mask-type:alpha" maskUnits="userSpaceOnUse" x="0" y="0" width="40" height="40">
<rect width="40" height="40" fill="#D9D9D9"/>
</mask>
<g mask="url(#mask0_5832_11494)">
<path d="M2.1665 29.0837V28.0837C2.1665 27.1381 2.68498 26.3462 3.72192 25.7078C4.75914 25.0695 6.09137 24.7503 7.71859 24.7503C7.92525 24.7503 8.1697 24.7642 8.45192 24.792C8.73387 24.8198 9.0322 24.8582 9.34692 24.9074C9.18025 25.3119 9.05303 25.7138 8.96525 26.1132C8.8772 26.5127 8.83317 26.9056 8.83317 27.292V29.0837H2.1665ZM12.1665 29.0837V27.4587C12.1665 26.852 12.3471 26.2975 12.7082 25.7953C13.0693 25.2931 13.6109 24.8614 14.3332 24.5003C15.0554 24.1392 15.8887 23.8684 16.8332 23.6878C17.7776 23.5073 18.8276 23.417 19.9832 23.417C21.1609 23.417 22.2221 23.5073 23.1665 23.6878C24.1109 23.8684 24.9443 24.1392 25.6665 24.5003C26.3887 24.8614 26.9304 25.2931 27.2915 25.7953C27.6526 26.2975 27.8332 26.852 27.8332 27.4587V29.0837H12.1665ZM31.1665 29.0837V27.3045C31.1665 26.8695 31.1272 26.4509 31.0486 26.0487C30.9697 25.6462 30.8423 25.2664 30.6665 24.9095C31.0276 24.8589 31.3416 24.8198 31.6086 24.792C31.8758 24.7642 32.1173 24.7503 32.3332 24.7503C33.9629 24.7503 35.2869 25.0653 36.3053 25.6953C37.3239 26.3253 37.8332 27.1214 37.8332 28.0837V29.0837H31.1665ZM13.1386 28.0837H26.8611V27.5699C26.9166 26.616 26.324 25.8521 25.0832 25.2782C23.8423 24.7041 22.1479 24.417 19.9998 24.417C17.8701 24.417 16.1803 24.7041 14.9303 25.2782C13.6803 25.8521 13.083 26.616 13.1386 27.5699V28.0837ZM7.68525 23.292C7.13581 23.292 6.66887 23.0967 6.28442 22.7062C5.90025 22.3156 5.70817 21.8442 5.70817 21.292C5.70817 20.755 5.90345 20.2944 6.294 19.9099C6.68456 19.5257 7.15595 19.3337 7.70817 19.3337C8.24512 19.3337 8.71275 19.5257 9.11109 19.9099C9.50914 20.2944 9.70817 20.7632 9.70817 21.3166C9.70817 21.8371 9.51678 22.2966 9.134 22.6949C8.75095 23.093 8.26803 23.292 7.68525 23.292ZM32.3211 23.292C31.7922 23.292 31.3286 23.0924 30.9303 22.6932C30.5322 22.2938 30.3332 21.8309 30.3332 21.3045C30.3332 20.7592 30.5329 20.2944 30.9323 19.9099C31.3315 19.5257 31.8011 19.3337 32.3411 19.3337C32.9005 19.3337 33.3725 19.5257 33.7569 19.9099C34.1411 20.2944 34.3332 20.7591 34.3332 21.3041C34.3332 21.8505 34.1428 22.3184 33.7619 22.7078C33.3811 23.0973 32.9008 23.292 32.3211 23.292ZM20.0144 22.167C19.1158 22.167 18.3471 21.851 17.7082 21.2191C17.0693 20.5871 16.7498 19.8198 16.7498 18.917C16.7498 17.9962 17.0658 17.2242 17.6978 16.6012C18.3297 15.9784 19.0971 15.667 19.9998 15.667C20.9207 15.667 21.6926 15.977 22.3157 16.597C22.9384 17.2173 23.2498 17.9857 23.2498 18.9024C23.2498 19.801 22.9398 20.5698 22.3198 21.2087C21.6996 21.8475 20.9311 22.167 20.0144 22.167ZM20.0303 21.167C20.6489 21.167 21.1734 20.9462 21.604 20.5045C22.0346 20.0628 22.2498 19.5235 22.2498 18.8866C22.2498 18.268 22.035 17.7434 21.6053 17.3128C21.1753 16.8823 20.6433 16.667 20.0094 16.667C19.3919 16.667 18.8609 16.8819 18.4165 17.3116C17.9721 17.7416 17.7498 18.2735 17.7498 18.9074C17.7498 19.5249 17.9707 20.0559 18.4123 20.5003C18.854 20.9448 19.3933 21.167 20.0303 21.167Z" fill="url(#paint0_linear_5832_11494)"/>
</g>
<defs>
<linearGradient id="paint0_linear_5832_11494" x1="-13.3035" y1="22.3645" x2="45.9831" y2="22.0006" gradientUnits="userSpaceOnUse">
<stop offset="0.317708" stop-color="#E43425"/>
<stop offset="0.71875" stop-color="#441FD8"/>
<stop offset="1" stop-color="#0A26B8"/>
</linearGradient>
</defs>
</svg>
