<svg width="40" height="40" viewBox="0 0 40 40" fill="none" xmlns="http://www.w3.org/2000/svg">
<mask id="mask0_5802_299" style="mask-type:alpha" maskUnits="userSpaceOnUse" x="0" y="0" width="40" height="40">
<rect width="40" height="40" fill="#D9D9D9"/>
</mask>
<g mask="url(#mask0_5802_299)">
<path d="M19.4998 33.9167V30.5833H16.1665V29.5833H19.4998V23.9445C17.3702 23.7685 15.5739 22.9043 14.111 21.3519C12.648 19.7995 11.9165 17.9607 11.9165 15.8354C11.9165 13.5953 12.7012 11.6877 14.2707 10.1126C15.8401 8.53754 17.7498 7.75 19.9998 7.75C22.2498 7.75 24.1596 8.53754 25.729 10.1126C27.2985 11.6877 28.0832 13.5941 28.0832 15.8317C28.0832 17.9548 27.3517 19.7937 25.8887 21.3485C24.4258 22.9032 22.6295 23.7685 20.4998 23.9445V29.5833H23.8332V30.5833H20.4998V33.9167H19.4998ZM20.001 22.9167C21.9724 22.9167 23.6457 22.2288 25.0207 20.853C26.3957 19.4773 27.0832 17.8037 27.0832 15.8322C27.0832 13.8607 26.3953 12.1875 25.0195 10.8125C23.6438 9.4375 21.9702 8.75 19.9987 8.75C18.0272 8.75 16.354 9.43787 14.979 10.8136C13.604 12.1894 12.9165 13.863 12.9165 15.8345C12.9165 17.8059 13.6044 19.4792 14.9801 20.8542C16.3559 22.2292 18.0295 22.9167 20.001 22.9167Z" fill="url(#paint0_linear_5802_299)"/>
</g>
<defs>
<linearGradient id="paint0_linear_5802_299" x1="4.90439" y1="20.8122" x2="31.7783" y2="20.7739" gradientUnits="userSpaceOnUse">
<stop offset="0.317708" stop-color="#E43425"/>
<stop offset="0.71875" stop-color="#441FD8"/>
<stop offset="1" stop-color="#0A26B8"/>
</linearGradient>
</defs>
</svg>
