<svg width="40" height="40" viewBox="0 0 40 40" fill="none" xmlns="http://www.w3.org/2000/svg">
<mask id="mask0_5832_11437" style="mask-type:alpha" maskUnits="userSpaceOnUse" x="0" y="0" width="40" height="40">
<rect width="40" height="40" fill="#D9D9D9"/>
</mask>
<g mask="url(#mask0_5832_11437)">
<path d="M7.83333 32.8337C7.17083 32.8337 6.61625 32.6105 6.16958 32.1641C5.72319 31.7174 5.5 31.1628 5.5 30.5003V14.5003C5.5 13.8378 5.72319 13.2832 6.16958 12.8366C6.61625 12.3902 7.17083 12.167 7.83333 12.167H15.5V10.0003C15.5 9.33783 15.7232 8.78324 16.1696 8.33658C16.6163 7.89019 17.1708 7.66699 17.8333 7.66699H22.1667C22.8292 7.66699 23.3838 7.89019 23.8304 8.33658C24.2768 8.78324 24.5 9.33783 24.5 10.0003V12.167H32.1667C32.8292 12.167 33.3838 12.3902 33.8304 12.8366C34.2768 13.2832 34.5 13.8378 34.5 14.5003V30.5003C34.5 31.1628 34.2768 31.7174 33.8304 32.1641C33.3838 32.6105 32.8292 32.8337 32.1667 32.8337H7.83333ZM16.5 12.167H23.5V10.0003C23.5 9.66699 23.3611 9.36144 23.0833 9.08366C22.8056 8.80588 22.5 8.66699 22.1667 8.66699H17.8333C17.5 8.66699 17.1944 8.80588 16.9167 9.08366C16.6389 9.36144 16.5 9.66699 16.5 10.0003V12.167ZM33.5 23.8337H22.5833V25.917H17.4167V23.8337H6.5V30.5003C6.5 30.8337 6.63889 31.1392 6.91667 31.417C7.19444 31.6948 7.5 31.8337 7.83333 31.8337H32.1667C32.5 31.8337 32.8056 31.6948 33.0833 31.417C33.3611 31.1392 33.5 30.8337 33.5 30.5003V23.8337ZM18.4167 24.917H21.5833V21.7503H18.4167V24.917ZM6.5 22.8337H17.4167V20.7503H22.5833V22.8337H33.5V14.5003C33.5 14.167 33.3611 13.8614 33.0833 13.5837C32.8056 13.3059 32.5 13.167 32.1667 13.167H7.83333C7.5 13.167 7.19444 13.3059 6.91667 13.5837C6.63889 13.8614 6.5 14.167 6.5 14.5003V22.8337Z" fill="url(#paint0_linear_5832_11437)"/>
</g>
<defs>
<linearGradient id="paint0_linear_5832_11437" x1="-7.07843" y1="20.23" x2="41.1281" y2="20.1017" gradientUnits="userSpaceOnUse">
<stop offset="0.317708" stop-color="#E43425"/>
<stop offset="0.71875" stop-color="#441FD8"/>
<stop offset="1" stop-color="#0A26B8"/>
</linearGradient>
</defs>
</svg>
