<svg width="104" height="98" viewBox="0 0 104 98" fill="none" xmlns="http://www.w3.org/2000/svg">
<path d="M37.7919 97.8674C33.8307 97.8674 30.3721 96.5758 27.4159 93.9924C24.4588 91.4091 22.5644 88.1946 21.7326 84.3488C20.7853 86.1279 19.4291 87.4984 17.6638 88.4602C15.8985 89.4221 13.9968 89.903 11.9585 89.903C8.65789 89.903 5.85196 88.7513 3.54074 86.4478C1.23038 84.1443 0.0751953 81.335 0.0751953 78.0197C0.0751953 74.8904 1.16579 72.1348 3.34699 69.753C5.52904 67.3703 8.31345 66.2509 11.7002 66.3947C9.74806 64.8447 8.18385 62.8783 7.00757 60.4956C5.83043 58.1129 5.24186 55.6446 5.24186 53.0905C5.24186 50.4547 5.87349 47.9729 7.13674 45.6453C8.39913 43.3178 10.1928 41.4078 12.5178 39.9155C12.752 40.3263 13.0043 40.7874 13.2747 41.2989C13.5451 41.8112 13.7811 42.2973 13.9826 42.7572C12.145 44.0488 10.7672 45.6273 9.84924 47.4924C8.93043 49.3585 8.47103 51.2675 8.47103 53.2197C8.47103 58.8453 10.4804 62.5119 14.4992 64.2195C18.5172 65.928 22.7508 67.2127 27.2002 68.0739L27.7169 69.2364C26.7696 71.9919 26.0162 74.3311 25.4564 76.254C24.8967 78.1768 24.6169 79.9563 24.6169 81.5924C24.6169 85.0601 25.8982 88.1016 28.4609 90.7168C31.0244 93.3311 34.1205 94.6383 37.7492 94.6383C41.5381 94.6383 44.6665 93.282 47.1345 90.5695C49.6033 87.857 51.6127 84.6136 53.1627 80.8394C54.7127 77.0651 55.9183 73.1471 56.7794 69.0852C57.6405 65.0234 58.3724 61.6577 58.9752 58.9883L62.0752 59.9363C61.444 63.1509 60.6548 66.9398 59.7076 71.303C58.7603 75.6654 57.4183 79.8056 55.6814 83.7237C53.9446 87.6417 51.6467 90.9785 48.7878 93.7341C45.9289 96.4897 42.2636 97.8674 37.7919 97.8674ZM11.9585 86.803C14.3981 86.803 16.472 85.9488 18.1805 84.2403C19.8881 82.5328 20.7419 80.4592 20.7419 78.0197C20.7419 75.637 19.8881 73.5772 18.1805 71.8403C16.472 70.1043 14.3981 69.2364 11.9585 69.2364C9.57583 69.2364 7.51649 70.1043 5.78049 71.8403C4.04363 73.5772 3.1752 75.637 3.1752 78.0197C3.1752 80.4592 4.04363 82.5328 5.78049 84.2403C7.51649 85.9488 9.57583 86.803 11.9585 86.803ZM42.2262 64.4572C38.8678 61.4433 35.804 58.6374 33.0347 56.0394C30.2645 53.4414 27.8568 50.8723 25.8117 48.332C23.7674 45.7917 22.1958 43.2661 21.0971 40.7551C19.9992 38.2432 19.4502 35.6095 19.4502 32.854C19.4502 28.2591 21.0282 24.3979 24.1842 21.2703C27.341 18.1427 31.188 16.579 35.7252 16.579C36.9023 16.579 38.0002 16.6436 39.0189 16.7727C40.0376 16.9019 40.9633 17.1245 41.796 17.4405C41.2509 16.5501 40.8346 15.6597 40.547 14.7693C40.2602 13.879 40.1169 12.9752 40.1169 12.0581C40.1169 8.74286 41.2673 5.93349 43.5682 3.63001C45.8682 1.32654 48.6737 0.174805 51.9847 0.174805C55.2957 0.174805 58.1068 1.32654 60.418 3.63001C62.7283 5.93349 63.8835 8.74286 63.8835 12.0581C63.8835 13.0054 63.7402 13.9168 63.4534 14.7926C63.1658 15.6675 62.7494 16.5501 62.2044 17.4405C63.0371 17.1245 63.9627 16.9019 64.9814 16.7727C66.0001 16.6436 67.0981 16.579 68.2752 16.579C71.7481 16.579 74.8123 17.4973 77.468 19.3341C80.1228 21.1717 82.053 23.5975 83.2585 26.6113C82.7832 26.5821 82.2192 26.5674 81.5665 26.5674C80.9146 26.5674 80.345 26.6105 79.8576 26.6966C78.8242 24.5438 77.2884 22.8362 75.2502 21.5738C73.2119 20.3106 70.9059 19.679 68.332 19.679C65.0219 19.679 62.3624 20.497 60.3534 22.1331C58.3436 23.7692 55.7602 26.4245 52.6034 30.0988H51.2678C48.0817 26.3384 45.4842 23.6616 43.4752 22.0686C41.4662 20.4755 38.8829 19.679 35.7252 19.679C31.9441 19.679 28.8027 20.9293 26.3012 23.43C23.8005 25.9315 22.5502 29.0728 22.5502 32.854C22.5502 34.8621 23.0453 36.9356 24.0356 39.0746C25.0259 41.2136 26.4618 43.4814 28.3433 45.8778C30.2248 48.2752 32.521 50.8228 35.2318 53.5206C37.9434 56.2185 41.0215 59.1174 44.4659 62.2174L42.2262 64.4572ZM52.0002 20.8415C54.4397 20.8415 56.5137 19.9877 58.2222 18.2801C59.9297 16.5716 60.7835 14.4977 60.7835 12.0581C60.7835 9.61861 59.9297 7.54463 58.2222 5.83618C56.5137 4.1286 54.4397 3.2748 52.0002 3.2748C49.5607 3.2748 47.4867 4.1286 45.7782 5.83618C44.0707 7.54463 43.2169 9.61861 43.2169 12.0581C43.2169 14.4977 44.0707 16.5716 45.7782 18.2801C47.4867 19.9877 49.5607 20.8415 52.0002 20.8415ZM65.821 97.9966C64.7954 97.9966 63.7819 97.8894 62.7804 97.675C61.7781 97.4605 60.8111 97.1518 59.8794 96.7488C60.1033 96.3631 60.3698 95.8981 60.6789 95.3538C60.9889 94.8096 61.2533 94.3128 61.472 93.8633C62.2401 94.1526 63.0082 94.3756 63.7763 94.5323C64.5436 94.6891 65.3113 94.7674 66.0794 94.7674C69.6676 94.7674 72.7603 93.4641 75.3574 90.8576C77.9554 88.251 79.2544 85.1626 79.2544 81.5924C79.2544 79.9822 78.9603 78.2307 78.3722 76.3379C77.7831 74.4452 77.0439 72.1211 76.1544 69.3655L76.8002 68.2883C81.3925 67.4271 85.6623 66.1213 89.6096 64.3706C93.5561 62.62 95.5294 58.9314 95.5294 53.3049C95.5294 48.8564 93.9867 45.5269 90.9013 43.3165C87.8151 41.106 84.2772 40.0008 80.2877 40.0008C76.8587 40.0008 72.8443 40.5605 68.2442 41.6799C63.6433 42.7994 58.372 44.3494 52.4303 46.3299L51.5701 43.2299C57.1957 41.4216 62.3154 39.8716 66.9293 38.5799C71.5423 37.2883 75.7367 36.6424 79.5127 36.6424C84.4494 36.6424 88.87 38.0779 92.7742 40.9488C96.6777 43.8189 98.6294 47.9376 98.6294 53.3049C98.6294 55.8228 98.077 58.2176 96.9722 60.4892C95.8665 62.7608 94.3092 64.7293 92.3002 66.3947C95.6869 66.337 98.4713 67.4706 100.653 69.7956C102.835 72.1206 103.925 74.862 103.925 78.0197C103.925 81.2919 102.77 84.1047 100.46 86.4581C98.1484 88.8116 95.3425 89.9883 92.0419 89.9883C90.0036 89.9883 88.1019 89.5078 86.3366 88.5468C84.5713 87.5849 83.215 86.1856 82.2678 84.3488C81.3783 88.1946 79.4266 91.4306 76.4127 94.057C73.3988 96.6834 69.8682 97.9966 65.821 97.9966ZM92.171 86.8883C94.5537 86.8883 96.5915 86.0203 98.2845 84.2843C99.9783 82.5474 100.825 80.4876 100.825 78.1049C100.825 75.7231 99.9568 73.6422 98.2199 71.8623C96.4839 70.0824 94.4246 69.1924 92.0419 69.1924C89.6592 69.1924 87.5998 70.0609 85.8638 71.7977C84.127 73.5346 83.2585 75.5939 83.2585 77.9758C83.2585 80.3585 84.1485 82.4398 85.9284 84.2197C87.7075 85.9987 89.7883 86.8883 92.171 86.8883Z" fill="url(#paint0_linear_5832_11328)"/>
<defs>
<linearGradient id="paint0_linear_5832_11328" x1="-44.9686" y1="49.0067" x2="127.661" y2="48.5835" gradientUnits="userSpaceOnUse">
<stop offset="0.317708" stop-color="#E43425"/>
<stop offset="0.71875" stop-color="#441FD8"/>
<stop offset="1" stop-color="#0A26B8"/>
</linearGradient>
</defs>
</svg>
