<svg width="40" height="40" viewBox="0 0 40 40" fill="none" xmlns="http://www.w3.org/2000/svg">
<mask id="mask0_5950_11606" style="mask-type:alpha" maskUnits="userSpaceOnUse" x="0" y="0" width="40" height="40">
<rect width="40" height="40" fill="#D9D9D9"/>
</mask>
<g mask="url(#mask0_5950_11606)">
<path d="M15.4167 35.7638C14.1389 35.7638 13.0232 35.3471 12.0696 34.5138C11.1157 33.6804 10.5046 32.6435 10.2362 31.4029C9.93069 31.9768 9.49319 32.4189 8.92375 32.7292C8.35431 33.0394 7.74083 33.1946 7.08333 33.1946C6.01861 33.1946 5.11347 32.8231 4.36792 32.08C3.62264 31.3369 3.25 30.4307 3.25 29.3612C3.25 28.3518 3.60181 27.4629 4.30542 26.6946C5.00931 25.926 5.9075 25.5649 7 25.6113C6.37028 25.1113 5.86569 24.4769 5.48625 23.7083C5.10653 22.9397 4.91667 22.1435 4.91667 21.3196C4.91667 20.4693 5.12042 19.6688 5.52792 18.9179C5.93514 18.1671 6.51375 17.551 7.26375 17.0696C7.33931 17.2021 7.42069 17.3508 7.50792 17.5158C7.59514 17.6811 7.67125 17.8379 7.73625 17.9862C7.14347 18.4029 6.69903 18.9121 6.40292 19.5138C6.10653 20.1157 5.95833 20.7315 5.95833 21.3613C5.95833 23.176 6.60653 24.3588 7.90292 24.9096C9.19903 25.4607 10.5647 25.8751 12 26.1529L12.1667 26.5279C11.8611 27.4168 11.6181 28.1714 11.4375 28.7917C11.2569 29.4119 11.1667 29.986 11.1667 30.5138C11.1667 31.6324 11.58 32.6135 12.4067 33.4571C13.2336 34.3004 14.2324 34.7221 15.4029 34.7221C16.6251 34.7221 17.6343 34.2846 18.4304 33.4096C19.2268 32.5346 19.875 31.4883 20.375 30.2708C20.875 29.0533 21.2639 27.7894 21.5417 26.4792C21.8194 25.1689 22.0556 24.0832 22.25 23.2221L23.25 23.5279C23.0464 24.5649 22.7918 25.7871 22.4862 27.1946C22.1807 28.6018 21.7478 29.9374 21.1875 31.2013C20.6272 32.4651 19.886 33.5415 18.9638 34.4304C18.0415 35.3193 16.8592 35.7638 15.4167 35.7638ZM7.08333 32.1946C7.87028 32.1946 8.53931 31.919 9.09042 31.3679C9.64125 30.8171 9.91667 30.1482 9.91667 29.3612C9.91667 28.5926 9.64125 27.9282 9.09042 27.3679C8.53931 26.8079 7.87028 26.5279 7.08333 26.5279C6.31472 26.5279 5.65042 26.8079 5.09042 27.3679C4.53014 27.9282 4.25 28.5926 4.25 29.3612C4.25 30.1482 4.53014 30.8171 5.09042 31.3679C5.65042 31.919 6.31472 32.1946 7.08333 32.1946ZM16.8471 24.9863C15.7638 24.014 14.7754 23.1089 13.8821 22.2708C12.9885 21.4328 12.2118 20.604 11.5521 19.7846C10.8926 18.9651 10.3857 18.1504 10.0312 17.3404C9.67708 16.5301 9.5 15.6806 9.5 14.7917C9.5 13.3094 10.009 12.0639 11.0271 11.055C12.0454 10.0461 13.2864 9.54167 14.75 9.54167C15.1297 9.54167 15.4839 9.5625 15.8125 9.60417C16.1411 9.64583 16.4397 9.71764 16.7083 9.81958C16.5325 9.53236 16.3982 9.24514 16.3054 8.95792C16.2129 8.67069 16.1667 8.37917 16.1667 8.08333C16.1667 7.01389 16.5378 6.10764 17.28 5.36458C18.0219 4.62153 18.9269 4.25 19.995 4.25C21.0631 4.25 21.9699 4.62153 22.7154 5.36458C23.4607 6.10764 23.8333 7.01389 23.8333 8.08333C23.8333 8.38889 23.7871 8.68292 23.6946 8.96542C23.6018 9.24764 23.4675 9.53236 23.2917 9.81958C23.5603 9.71764 23.8589 9.64583 24.1875 9.60417C24.5161 9.5625 24.8703 9.54167 25.25 9.54167C26.3703 9.54167 27.3587 9.83792 28.2154 10.4304C29.0718 11.0232 29.6944 11.8057 30.0833 12.7779C29.93 12.7685 29.7481 12.7638 29.5375 12.7638C29.3272 12.7638 29.1435 12.7776 28.9862 12.8054C28.6529 12.111 28.1575 11.5601 27.5 11.1529C26.8425 10.7454 26.0986 10.5417 25.2683 10.5417C24.2006 10.5417 23.3426 10.8056 22.6946 11.3333C22.0463 11.8611 21.2129 12.7176 20.1946 13.9029H19.7638C18.736 12.6899 17.8981 11.8264 17.25 11.3125C16.6019 10.7986 15.7686 10.5417 14.75 10.5417C13.5303 10.5417 12.5169 10.945 11.71 11.7517C10.9033 12.5586 10.5 13.5719 10.5 14.7917C10.5 15.4394 10.6597 16.1083 10.9792 16.7983C11.2986 17.4883 11.7618 18.2199 12.3688 18.9929C12.9757 19.7662 13.7164 20.5881 14.5908 21.4583C15.4656 22.3286 16.4585 23.2638 17.5696 24.2638L16.8471 24.9863ZM20 10.9167C20.7869 10.9167 21.456 10.6412 22.0071 10.0904C22.5579 9.5393 22.8333 8.87028 22.8333 8.08333C22.8333 7.29639 22.5579 6.62736 22.0071 6.07625C21.456 5.52542 20.7869 5.25 20 5.25C19.2131 5.25 18.544 5.52542 17.9929 6.07625C17.4421 6.62736 17.1667 7.29639 17.1667 8.08333C17.1667 8.87028 17.4421 9.5393 17.9929 10.0904C18.544 10.6412 19.2131 10.9167 20 10.9167ZM24.4583 35.8054C24.1275 35.8054 23.8006 35.7708 23.4775 35.7017C23.1542 35.6325 22.8422 35.5329 22.5417 35.4029C22.6139 35.2785 22.6999 35.1285 22.7996 34.9529C22.8996 34.7774 22.9849 34.6171 23.0554 34.4721C23.3032 34.5654 23.551 34.6374 23.7987 34.6879C24.0462 34.7385 24.2939 34.7638 24.5417 34.7638C25.6992 34.7638 26.6968 34.3433 27.5346 33.5025C28.3726 32.6617 28.7917 31.6654 28.7917 30.5138C28.7917 29.9943 28.6968 29.4293 28.5071 28.8188C28.3171 28.2082 28.0786 27.4585 27.7917 26.5696L28 26.2221C29.4814 25.9443 30.8588 25.5231 32.1321 24.9583C33.4051 24.3936 34.0417 23.2038 34.0417 21.3888C34.0417 19.9538 33.544 18.8797 32.5487 18.1667C31.5532 17.4536 30.4119 17.0971 29.125 17.0971C28.0189 17.0971 26.7239 17.2776 25.24 17.6388C23.7558 17.9999 22.0554 18.4999 20.1388 19.1388L19.8613 18.1388C21.676 17.5554 23.3275 17.0554 24.8158 16.6388C26.3039 16.2221 27.6569 16.0138 28.875 16.0138C30.4675 16.0138 31.8935 16.4768 33.1529 17.4029C34.4121 18.3287 35.0417 19.6574 35.0417 21.3888C35.0417 22.201 34.8635 22.9735 34.5071 23.7063C34.1504 24.439 33.6481 25.074 33 25.6113C34.0925 25.5926 34.9907 25.9583 35.6946 26.7083C36.3982 27.4583 36.75 28.3426 36.75 29.3612C36.75 30.4168 36.3774 31.3242 35.6321 32.0833C34.8865 32.8425 33.9814 33.2221 32.9167 33.2221C32.2592 33.2221 31.6457 33.0671 31.0763 32.7571C30.5068 32.4468 30.0693 31.9954 29.7638 31.4029C29.4768 32.6435 28.8472 33.6874 27.875 34.5346C26.9028 35.3818 25.7639 35.8054 24.4583 35.8054ZM32.9583 32.2221C33.7269 32.2221 34.3843 31.9421 34.9304 31.3821C35.4768 30.8218 35.75 30.1574 35.75 29.3888C35.75 28.6204 35.4699 27.9492 34.9096 27.375C34.3496 26.8008 33.6853 26.5137 32.9167 26.5137C32.1481 26.5137 31.4837 26.7939 30.9237 27.3542C30.3635 27.9144 30.0833 28.5788 30.0833 29.3471C30.0833 30.1157 30.3704 30.7871 30.9446 31.3612C31.5185 31.9351 32.1897 32.2221 32.9583 32.2221Z" fill="url(#paint0_linear_5950_11606)"/>
</g>
<defs>
<linearGradient id="paint0_linear_5950_11606" x1="-11.2803" y1="20.0022" x2="44.4066" y2="19.8657" gradientUnits="userSpaceOnUse">
<stop offset="0.317708" stop-color="#E43425"/>
<stop offset="0.71875" stop-color="#441FD8"/>
<stop offset="1" stop-color="#0A26B8"/>
</linearGradient>
</defs>
</svg>
