<svg width="40" height="40" viewBox="0 0 40 40" fill="none" xmlns="http://www.w3.org/2000/svg">
<mask id="mask0_5930_3672" style="mask-type:alpha" maskUnits="userSpaceOnUse" x="0" y="0" width="40" height="40">
<rect width="40" height="40" fill="#D9D9D9"/>
</mask>
<g mask="url(#mask0_5930_3672)">
<path d="M18.2361 32.1946V23.0371L20.4861 16.5554C20.523 16.4907 20.56 16.4468 20.5969 16.4237C20.6341 16.4004 20.7268 16.3888 20.8748 16.3888H32.8194C32.908 16.3888 32.988 16.4004 33.0594 16.4237C33.1308 16.4468 33.1804 16.4907 33.2082 16.5554L35.4582 23.0371V32.1946C35.4582 32.3646 35.4082 32.4997 35.3082 32.6C35.2079 32.7 35.0728 32.75 34.9028 32.75H34.9511C34.7914 32.75 34.66 32.7 34.5569 32.6C34.4541 32.4997 34.4028 32.3646 34.4028 32.1946V29.7779H19.2915V32.1946C19.2915 32.3646 19.2368 32.4997 19.1273 32.6C19.0182 32.7 18.8878 32.75 18.7361 32.75H18.7844C18.6247 32.75 18.4933 32.7 18.3903 32.6C18.2875 32.4997 18.2361 32.3646 18.2361 32.1946ZM19.6803 22H34.0136L32.4303 17.3888H21.2636L19.6803 22ZM21.9582 27.1388C22.3518 27.1388 22.6862 27.0011 22.9615 26.7258C23.2371 26.4503 23.3748 26.1157 23.3748 25.7221C23.3748 25.3471 23.2371 25.0219 22.9615 24.7467C22.6862 24.4711 22.3518 24.3333 21.9582 24.3333C21.5646 24.3333 21.2301 24.4711 20.9548 24.7467C20.6793 25.0219 20.5415 25.3471 20.5415 25.7221C20.5415 26.1157 20.6793 26.4503 20.9548 26.7258C21.2301 27.0011 21.5646 27.1388 21.9582 27.1388ZM31.7361 27.1388C32.1111 27.1388 32.4409 27.0011 32.7257 26.7258C33.0104 26.4503 33.1528 26.1157 33.1528 25.7221C33.1528 25.3471 33.0104 25.0219 32.7257 24.7467C32.4409 24.4711 32.1111 24.3333 31.7361 24.3333C31.3425 24.3333 31.0079 24.4711 30.7323 24.7467C30.4571 25.0219 30.3194 25.3471 30.3194 25.7221C30.3194 26.1157 30.4571 26.4503 30.7323 26.7258C31.0079 27.0011 31.3425 27.1388 31.7361 27.1388ZM7.90275 32.25L11.2082 28.9446C9.56012 28.9446 8.03692 28.6413 6.63859 28.0346C5.24053 27.4282 4.5415 26.4167 4.5415 25V10.5C4.5415 9.58333 5.35636 8.89583 6.98609 8.4375C8.61553 7.97917 11.0414 7.75 14.2636 7.75C17.4119 7.75 19.824 7.98847 21.4998 8.46542C23.1757 8.94208 24.0136 9.62028 24.0136 10.5V13.1388H23.0136V10.4167H5.5415V22.8054H14.9861V32.25H7.90275ZM8.37484 26.3888C8.76845 26.3888 9.10289 26.2511 9.37817 25.9758C9.65373 25.7003 9.7915 25.375 9.7915 25C9.7915 24.6064 9.65373 24.2719 9.37817 23.9967C9.10289 23.7211 8.76845 23.5833 8.37484 23.5833C7.99984 23.5833 7.67456 23.7211 7.399 23.9967C7.12373 24.2719 6.98609 24.6064 6.98609 25C6.98609 25.375 7.12373 25.7003 7.399 25.9758C7.67456 26.2511 7.99984 26.3888 8.37484 26.3888ZM19.2361 28.7779H34.4582V23H19.2361V28.7779Z" fill="url(#paint0_linear_5930_3672)"/>
</g>
<defs>
<linearGradient id="paint0_linear_5930_3672" x1="-8.86826" y1="20.2298" x2="42.5242" y2="20.0831" gradientUnits="userSpaceOnUse">
<stop offset="0.317708" stop-color="#E43425"/>
<stop offset="0.71875" stop-color="#441FD8"/>
<stop offset="1" stop-color="#0A26B8"/>
</linearGradient>
</defs>
</svg>
