<svg width="40" height="40" viewBox="0 0 40 40" fill="none" xmlns="http://www.w3.org/2000/svg">
<mask id="mask0_5832_11457" style="mask-type:alpha" maskUnits="userSpaceOnUse" x="0" y="0" width="40" height="40">
<rect width="40" height="40" fill="#D9D9D9"/>
</mask>
<g mask="url(#mask0_5832_11457)">
<path d="M26.5418 35L22.2085 27.6667H16.7781C16.5186 27.6667 16.301 27.5788 16.1252 27.4029C15.9493 27.2268 15.8614 27.0092 15.8614 26.75C15.8614 26.4908 15.9493 26.2732 16.1252 26.0971C16.301 25.9213 16.5186 25.8333 16.7781 25.8333H22.2085L26.5418 18.5H26.9585L24.7918 25.8333H30.8889L32.1389 24.1667H32.4168L31.6531 26.75L32.4168 29.3333H32.1389L30.8889 27.6667H24.7918L26.9585 35H26.5418ZM13.0418 21.5L15.2085 14.1667H9.11141L7.86141 15.8333H7.5835L8.34725 13.25L7.5835 10.6667H7.86141L9.11141 12.3333H15.2085L13.0418 5H13.4585L17.7918 12.3333H23.2222C23.4817 12.3333 23.6993 12.4213 23.8752 12.5971C24.051 12.7732 24.1389 12.9908 24.1389 13.25C24.1389 13.5092 24.051 13.7268 23.8752 13.9029C23.6993 14.0787 23.4817 14.1667 23.2222 14.1667H17.7918L13.4585 21.5H13.0418Z" fill="url(#paint0_linear_5832_11457)"/>
</g>
<defs>
<linearGradient id="paint0_linear_5832_11457" x1="-3.18769" y1="19.9758" x2="38.0927" y2="19.8969" gradientUnits="userSpaceOnUse">
<stop offset="0.317708" stop-color="#E43425"/>
<stop offset="0.71875" stop-color="#441FD8"/>
<stop offset="1" stop-color="#0A26B8"/>
</linearGradient>
</defs>
</svg>
