<svg width="40" height="40" viewBox="0 0 40 40" fill="none" xmlns="http://www.w3.org/2000/svg">
<mask id="mask0_6029_12968" style="mask-type:alpha" maskUnits="userSpaceOnUse" x="0" y="0" width="40" height="40">
<rect width="40" height="40" fill="#D9D9D9"/>
</mask>
<g mask="url(#mask0_6029_12968)">
<path d="M12.4998 32.8333C11.8726 32.8333 11.3269 32.6012 10.8628 32.1371C10.3986 31.6729 10.1665 31.1272 10.1665 30.5V13.1667C10.1665 12.5394 10.3986 11.9938 10.8628 11.5296C11.3269 11.0654 11.8726 10.8333 12.4998 10.8333H16.3886V7.83333C16.3886 7.20611 16.6171 6.66042 17.074 6.19625C17.5309 5.73208 18.0803 5.5 18.7219 5.5H21.3053C21.9328 5.5 22.4786 5.73208 22.9428 6.19625C23.4066 6.66042 23.6386 7.20611 23.6386 7.83333V10.8333H27.4998C28.1271 10.8333 28.6728 11.0654 29.1369 11.5296C29.6011 11.9938 29.8332 12.5394 29.8332 13.1667V30.5C29.8332 31.1272 29.6011 31.6729 29.1369 32.1371C28.6728 32.6012 28.1271 32.8333 27.4998 32.8333V33.3333C27.4998 33.6389 27.3818 33.9097 27.1457 34.1458C26.9096 34.3819 26.6387 34.5 26.3332 34.5C26.0276 34.5 25.7568 34.3819 25.5207 34.1458C25.2846 33.9097 25.1665 33.6389 25.1665 33.3333V32.8333H14.8332V33.3333C14.8332 33.6389 14.7151 33.9097 14.479 34.1458C14.2429 34.3819 13.9721 34.5 13.6665 34.5C13.3609 34.5 13.0901 34.3819 12.854 34.1458C12.6179 33.9097 12.4998 33.6389 12.4998 33.3333V32.8333ZM12.4998 31.8333H27.4998C27.8887 31.8333 28.2082 31.7083 28.4582 31.4583C28.7082 31.2083 28.8332 30.8889 28.8332 30.5V13.1667C28.8332 12.7778 28.7082 12.4583 28.4582 12.2083C28.2082 11.9583 27.8887 11.8333 27.4998 11.8333H12.4998C12.1109 11.8333 11.7915 11.9583 11.5415 12.2083C11.2915 12.4583 11.1665 12.7778 11.1665 13.1667V30.5C11.1665 30.8889 11.2915 31.2083 11.5415 31.4583C11.7915 31.7083 12.1109 31.8333 12.4998 31.8333ZM16.3886 28.3333H17.3886V15.3333H16.3886V28.3333ZM22.6386 28.3333H23.6386V15.3333H22.6386V28.3333ZM17.3886 10.8333H22.6386V7.83333C22.6386 7.44444 22.509 7.125 22.2498 6.875C21.9907 6.625 21.6758 6.5 21.3053 6.5H18.7219C18.333 6.5 18.0136 6.625 17.7636 6.875C17.5136 7.125 17.3886 7.44444 17.3886 7.83333V10.8333Z" fill="url(#paint0_linear_6029_12968)"/>
</g>
<defs>
<linearGradient id="paint0_linear_6029_12968" x1="1.6363" y1="19.9766" x2="34.3282" y2="19.9254" gradientUnits="userSpaceOnUse">
<stop offset="0.317708" stop-color="#E43425"/>
<stop offset="0.71875" stop-color="#441FD8"/>
<stop offset="1" stop-color="#0A26B8"/>
</linearGradient>
</defs>
</svg>
