<svg width="40" height="40" viewBox="0 0 40 40" fill="none" xmlns="http://www.w3.org/2000/svg">
<mask id="mask0_5930_3700" style="mask-type:alpha" maskUnits="userSpaceOnUse" x="0" y="0" width="40" height="40">
<rect width="40" height="40" fill="#D9D9D9"/>
</mask>
<g mask="url(#mask0_5930_3700)">
<path d="M19.8653 29.2224C20.3253 29.2224 20.715 29.066 21.0344 28.7532C21.3539 28.4402 21.5136 28.0444 21.5136 27.5657C21.5136 27.1055 21.3572 26.7156 21.0444 26.3962C20.7314 26.0767 20.3447 25.917 19.8844 25.917C19.4244 25.917 19.0347 26.0735 18.7153 26.3866C18.3958 26.6994 18.2361 27.0859 18.2361 27.5462C18.2361 28.0248 18.3925 28.4238 18.7053 28.7432C19.0183 29.0627 19.405 29.2224 19.8653 29.2224ZM19.8653 21.6391C20.3253 21.6391 20.715 21.4827 21.0344 21.1699C21.3539 20.8569 21.5136 20.4702 21.5136 20.0099C21.5136 19.5499 21.3572 19.1602 21.0444 18.8407C20.7314 18.5213 20.3447 18.3616 19.8844 18.3616C19.4244 18.3616 19.0347 18.518 18.7153 18.8307C18.3958 19.1438 18.2361 19.5305 18.2361 19.9907C18.2361 20.4507 18.3925 20.8405 18.7053 21.1599C19.0183 21.4794 19.405 21.6391 19.8653 21.6391ZM19.8653 14.0837C20.3253 14.0837 20.715 13.9271 21.0344 13.6141C21.3539 13.3013 21.5136 12.9148 21.5136 12.4545C21.5136 11.9759 21.3572 11.5769 21.0444 11.2574C20.7314 10.938 20.3447 10.7782 19.8844 10.7782C19.4244 10.7782 19.0347 10.9346 18.7153 11.2474C18.3958 11.5605 18.2361 11.9563 18.2361 12.4349C18.2361 12.8952 18.3925 13.285 18.7053 13.6045C19.0183 13.9239 19.405 14.0837 19.8653 14.0837ZM13.6803 25.6116V20.8337C12.708 20.63 12.0253 20.2574 11.6319 19.7157C11.2383 19.1741 11.0415 18.6207 11.0415 18.0557H13.6803V13.2782C12.708 13.093 12.0253 12.7295 11.6319 12.1878C11.2383 11.6462 11.0415 11.093 11.0415 10.5282H13.6803V8.33366C13.6803 7.89838 13.7759 7.59519 13.9673 7.42407C14.159 7.25269 14.3966 7.16699 14.6803 7.16699H25.0969C25.3622 7.16699 25.5953 7.25269 25.7961 7.42407C25.9966 7.59519 26.0969 7.89838 26.0969 8.33366V10.5282H28.9582C28.9582 11.093 28.7197 11.6462 28.2428 12.1878C27.7661 12.7295 27.0508 13.093 26.0969 13.2782V18.0557H28.9582C28.9582 18.6207 28.7197 19.1741 28.2428 19.7157C27.7661 20.2574 27.0508 20.63 26.0969 20.8337V25.6116H28.9582C28.9582 26.1763 28.7197 26.7295 28.2428 27.2712C27.7661 27.8128 27.0508 28.1763 26.0969 28.3616V31.8337C26.0969 32.1175 25.9966 32.3552 25.7961 32.5466C25.5953 32.738 25.3622 32.8337 25.0969 32.8337H14.6803C14.3966 32.8337 14.159 32.738 13.9673 32.5466C13.7759 32.3552 13.6803 32.1175 13.6803 31.8337V28.3616C12.708 28.1763 12.0253 27.8128 11.6319 27.2712C11.2383 26.7295 11.0415 26.1763 11.0415 25.6116H13.6803ZM14.6803 31.8337H25.0969V8.16699H14.6803V31.8337Z" fill="url(#paint0_linear_5930_3700)"/>
</g>
<defs>
<linearGradient id="paint0_linear_5930_3700" x1="3.27034" y1="19.9796" x2="33.0532" y2="19.9316" gradientUnits="userSpaceOnUse">
<stop offset="0.317708" stop-color="#E43425"/>
<stop offset="0.71875" stop-color="#441FD8"/>
<stop offset="1" stop-color="#0A26B8"/>
</linearGradient>
</defs>
</svg>
