<svg width="40" height="40" viewBox="0 0 40 40" fill="none" xmlns="http://www.w3.org/2000/svg">
<mask id="mask0_5993_17308" style="mask-type:alpha" maskUnits="userSpaceOnUse" x="0" y="0" width="40" height="40">
<rect width="40" height="40" fill="#D9D9D9"/>
</mask>
<g mask="url(#mask0_5993_17308)">
<path d="M15.5833 32.8337V29.5003H7.83333C7.17083 29.5003 6.61625 29.2771 6.16958 28.8307C5.72319 28.3841 5.5 27.8295 5.5 27.167V9.50033C5.5 8.83783 5.72319 8.28324 6.16958 7.83658C6.61625 7.39019 7.17083 7.16699 7.83333 7.16699H32.1667C32.8292 7.16699 33.3838 7.39019 33.8304 7.83658C34.2768 8.28324 34.5 8.83783 34.5 9.50033V27.167C34.5 27.8295 34.2768 28.3841 33.8304 28.8307C33.3838 29.2771 32.8292 29.5003 32.1667 29.5003H24.4167V32.8337H15.5833ZM7.83333 28.5003H32.1667C32.5 28.5003 32.8056 28.3614 33.0833 28.0837C33.3611 27.8059 33.5 27.5003 33.5 27.167V9.50033C33.5 9.16699 33.3611 8.86144 33.0833 8.58366C32.8056 8.30588 32.5 8.16699 32.1667 8.16699H7.83333C7.5 8.16699 7.19444 8.30588 6.91667 8.58366C6.63889 8.86144 6.5 9.16699 6.5 9.50033V27.167C6.5 27.5003 6.63889 27.8059 6.91667 28.0837C7.19444 28.3614 7.5 28.5003 7.83333 28.5003Z" fill="url(#paint0_linear_5993_17308)"/>
</g>
<defs>
<linearGradient id="paint0_linear_5993_17308" x1="-7.07843" y1="19.9796" x2="41.1281" y2="19.8538" gradientUnits="userSpaceOnUse">
<stop offset="0.317708" stop-color="#E43425"/>
<stop offset="0.71875" stop-color="#441FD8"/>
<stop offset="1" stop-color="#0A26B8"/>
</linearGradient>
</defs>
</svg>
