<svg width="40" height="40" viewBox="0 0 40 40" fill="none" xmlns="http://www.w3.org/2000/svg">
<mask id="mask0_5832_11497" style="mask-type:alpha" maskUnits="userSpaceOnUse" x="0" y="0" width="40" height="40">
<rect width="40" height="40" fill="#D9D9D9"/>
</mask>
<g mask="url(#mask0_5832_11497)">
<path d="M20 27.4449C21.6203 27.4449 22.9837 26.8916 24.0904 25.7849C25.1968 24.6785 25.75 23.3152 25.75 21.6949C25.75 20.0744 25.1968 18.7109 24.0904 17.6045C22.9837 16.4981 21.6203 15.9449 20 15.9449C18.3797 15.9449 17.0162 16.4981 15.9096 17.6045C14.8032 18.7109 14.25 20.0744 14.25 21.6949C14.25 23.3152 14.8032 24.6785 15.9096 25.7849C17.0162 26.8916 18.3797 27.4449 20 27.4449ZM20 26.4449C18.6481 26.4449 17.5185 25.9912 16.6113 25.0837C15.7038 24.1762 15.25 23.0466 15.25 21.6949C15.25 20.343 15.7038 19.2132 16.6113 18.3057C17.5185 17.3985 18.6481 16.9449 20 16.9449C21.3519 16.9449 22.4815 17.3985 23.3888 18.3057C24.2963 19.2132 24.75 20.343 24.75 21.6949C24.75 23.0466 24.2963 24.1762 23.3888 25.0837C22.4815 25.9912 21.3519 26.4449 20 26.4449ZM7.83333 32.8337C7.17083 32.8337 6.61625 32.6105 6.16958 32.1641C5.72319 31.7174 5.5 31.1628 5.5 30.5003V12.8891C5.5 12.2224 5.72319 11.6669 6.16958 11.2224C6.61625 10.778 7.17083 10.5557 7.83333 10.5557H12.8333L15.9167 7.16699H24.0833L27.1667 10.5557H32.1667C32.8333 10.5557 33.3889 10.778 33.8333 11.2224C34.2778 11.6669 34.5 12.2224 34.5 12.8891V30.5003C34.5 31.1628 34.2778 31.7174 33.8333 32.1641C33.3889 32.6105 32.8333 32.8337 32.1667 32.8337H7.83333ZM7.83333 31.8337H32.1667C32.5556 31.8337 32.875 31.7087 33.125 31.4587C33.375 31.2087 33.5 30.8892 33.5 30.5003V12.8891C33.5 12.5188 33.375 12.2041 33.125 11.9449C32.875 11.6855 32.5556 11.5557 32.1667 11.5557H26.7221L23.6388 8.16699H16.3613L13.2779 11.5557H7.83333C7.44444 11.5557 7.125 11.6855 6.875 11.9449C6.625 12.2041 6.5 12.5188 6.5 12.8891V30.5003C6.5 30.8892 6.625 31.2087 6.875 31.4587C7.125 31.7087 7.44444 31.8337 7.83333 31.8337Z" fill="url(#paint0_linear_5832_11497)"/>
</g>
<defs>
<linearGradient id="paint0_linear_5832_11497" x1="-7.07843" y1="19.9796" x2="41.1281" y2="19.8538" gradientUnits="userSpaceOnUse">
<stop offset="0.317708" stop-color="#E43425"/>
<stop offset="0.71875" stop-color="#441FD8"/>
<stop offset="1" stop-color="#0A26B8"/>
</linearGradient>
</defs>
</svg>
