<svg width="40" height="40" viewBox="0 0 40 40" fill="none" xmlns="http://www.w3.org/2000/svg">
<mask id="mask0_5993_17314" style="mask-type:alpha" maskUnits="userSpaceOnUse" x="0" y="0" width="40" height="40">
<rect width="40" height="40" fill="#D9D9D9"/>
</mask>
<g mask="url(#mask0_5993_17314)">
<path d="M16.6389 21.9167L17.9168 17.7392L14.5972 15.4167H18.7147L20.0002 11.1112L21.2581 15.4167H25.4031L22.1114 17.7392L23.3614 21.9167L20.0002 19.3333L16.6389 21.9167ZM12.1947 35V24.6113C11.102 23.5926 10.2686 22.3935 9.69475 21.0138C9.12058 19.6343 8.8335 18.1853 8.8335 16.6667C8.8335 13.5556 9.91683 10.9167 12.0835 8.75C14.2502 6.58333 16.8891 5.5 20.0002 5.5C23.1113 5.5 25.7502 6.58333 27.9168 8.75C30.0835 10.9167 31.1668 13.5556 31.1668 16.6667C31.1668 18.1853 30.8797 19.6343 30.3056 21.0138C29.7317 22.3935 28.8984 23.5926 27.8056 24.6113V35L20.0002 32.7492L12.1947 35ZM19.9968 26.8333C22.8324 26.8333 25.2363 25.8483 27.2085 23.8783C29.1807 21.9083 30.1668 19.5056 30.1668 16.67C30.1668 13.8344 29.1818 11.4306 27.2118 9.45833C25.2418 7.48611 22.8391 6.5 20.0035 6.5C17.1679 6.5 14.7641 7.485 12.7918 9.455C10.8196 11.425 9.8335 13.8278 9.8335 16.6633C9.8335 19.4989 10.8185 21.9028 12.7885 23.875C14.7585 25.8472 17.1613 26.8333 19.9968 26.8333ZM13.1947 33.6946L20.0002 31.6667L26.8056 33.6946V25.4721C25.852 26.2499 24.7918 26.8379 23.6252 27.2363C22.4585 27.6343 21.2502 27.8333 20.0002 27.8333C18.7502 27.8333 17.5418 27.6343 16.3752 27.2363C15.2085 26.8379 14.1484 26.2499 13.1947 25.4721V33.6946Z" fill="url(#paint0_linear_5993_17314)"/>
</g>
<defs>
<linearGradient id="paint0_linear_5993_17314" x1="-0.853344" y1="20.2262" x2="36.2713" y2="20.1613" gradientUnits="userSpaceOnUse">
<stop offset="0.317708" stop-color="#E43425"/>
<stop offset="0.71875" stop-color="#441FD8"/>
<stop offset="1" stop-color="#0A26B8"/>
</linearGradient>
</defs>
</svg>
