<svg width="40" height="40" viewBox="0 0 40 40" fill="none" xmlns="http://www.w3.org/2000/svg">
<mask id="mask0_6029_12947" style="mask-type:alpha" maskUnits="userSpaceOnUse" x="0" y="0" width="40" height="40">
<rect width="40" height="40" fill="#D9D9D9"/>
</mask>
<g mask="url(#mask0_6029_12947)">
<path d="M13.8333 30.6667C13.5681 30.6667 13.3351 30.5664 13.1346 30.3658C12.9338 30.165 12.8333 29.9319 12.8333 29.6667V27H17.3888V20.7779C16.2685 21.1018 15.1042 21.1365 13.8958 20.8821C12.6875 20.6274 11.7129 20.1296 10.9721 19.3888V16.7779H8.41667L4 12.3333C4.94444 11.6575 5.98153 11.1089 7.11125 10.6875C8.24069 10.2661 9.40736 10.0554 10.6112 10.0554C11.7932 10.0554 12.966 10.2499 14.1296 10.6388C15.2932 11.0276 16.3796 11.6342 17.3888 12.4583V9H32.8333V27.9446C32.8333 28.7129 32.5718 29.3588 32.0487 29.8821C31.5254 30.4051 30.8888 30.6667 30.1388 30.6667H13.8333ZM18.3888 27H28.4167V27.9446C28.4167 28.4351 28.581 28.8449 28.9096 29.1738C29.2385 29.5024 29.6482 29.6667 30.1388 29.6667C30.611 29.6667 31.0115 29.5024 31.3404 29.1738C31.669 28.8449 31.8333 28.4351 31.8333 27.9446V10H18.3888V13.4446L27.3054 22.3613V23.0833H26.5833L21.3054 17.8333L20.0971 19.0417C19.8101 19.3472 19.5324 19.5926 19.2638 19.7779C18.9954 19.9629 18.7037 20.1387 18.3888 20.3054V27ZM8.86125 15.7779H11.9721V18.9446C12.611 19.3518 13.2082 19.6342 13.7638 19.7917C14.3193 19.9492 14.8482 20.0279 15.3504 20.0279C16.1446 20.0279 16.8913 19.8658 17.5904 19.5417C18.2893 19.2175 18.8981 18.7962 19.4167 18.2779L20.5833 17.1112L17.3888 13.9167C16.4532 12.9631 15.4068 12.2478 14.2496 11.7708C13.0924 11.2939 11.8796 11.0554 10.6112 11.0554C9.68514 11.0554 8.78458 11.1943 7.90958 11.4721C7.03458 11.7499 6.26847 12.0925 5.61125 12.5L8.86125 15.7779ZM27.4167 28H13.8333V29.6667H28.0554C27.8332 29.4631 27.6713 29.2132 27.5696 28.9171C27.4676 28.621 27.4167 28.3153 27.4167 28Z" fill="url(#paint0_linear_6029_12947)"/>
</g>
<defs>
<linearGradient id="paint0_linear_6029_12947" x1="-8.50614" y1="19.8158" x2="39.4232" y2="19.6686" gradientUnits="userSpaceOnUse">
<stop offset="0.317708" stop-color="#E43425"/>
<stop offset="0.71875" stop-color="#441FD8"/>
<stop offset="1" stop-color="#0A26B8"/>
</linearGradient>
</defs>
</svg>
