<svg width="40" height="40" viewBox="0 0 40 40" fill="none" xmlns="http://www.w3.org/2000/svg">
<mask id="mask0_5832_11431" style="mask-type:alpha" maskUnits="userSpaceOnUse" x="0" y="0" width="40" height="40">
<rect width="40" height="40" fill="#D9D9D9"/>
</mask>
<g mask="url(#mask0_5832_11431)">
<path d="M19.3888 30.8888H20.5279V28.9446C21.7224 28.926 22.8774 28.544 23.9929 27.7988C25.1088 27.0532 25.6667 25.9074 25.6667 24.3613C25.6667 23.139 25.2917 22.1482 24.5417 21.3888C23.7917 20.6296 22.426 19.8796 20.4446 19.1388C18.5557 18.4537 17.3658 17.8658 16.875 17.375C16.3842 16.8842 16.1388 16.1758 16.1388 15.25C16.1388 14.3425 16.5068 13.574 17.2429 12.9446C17.979 12.3149 18.9258 12 20.0833 12C20.9167 12 21.6343 12.1829 22.2362 12.5487C22.8379 12.9143 23.3518 13.3981 23.7779 14L24.7221 13.6112C24.2685 12.8612 23.6782 12.2571 22.9513 11.7987C22.2246 11.3404 21.4446 11.0835 20.6113 11.0279V9.11125H19.4721V11.0279C17.9999 11.2315 16.8911 11.7385 16.1458 12.5487C15.4006 13.3587 15.0279 14.2592 15.0279 15.25C15.0279 16.4353 15.4075 17.3751 16.1667 18.0696C16.9258 18.764 18.2314 19.4537 20.0833 20.1388C21.9075 20.8426 23.1182 21.4746 23.7154 22.0346C24.3126 22.5949 24.6112 23.3704 24.6112 24.3613C24.6112 25.6113 24.1482 26.5162 23.2221 27.0762C22.2963 27.6365 21.3056 27.9167 20.25 27.9167C19.2592 27.9167 18.354 27.6389 17.5346 27.0833C16.7151 26.5278 16.0554 25.75 15.5554 24.75L14.5833 25.1946C15.1203 26.2593 15.7893 27.074 16.5904 27.6387C17.3913 28.2037 18.324 28.6113 19.3888 28.8613V30.8888ZM20 34.5C18 34.5 16.1226 34.1181 14.3679 33.3542C12.6135 32.5903 11.0788 31.551 9.76375 30.2362C8.44903 28.9212 7.40972 27.3865 6.64583 25.6321C5.88194 23.8774 5.5 22 5.5 20C5.5 18 5.88194 16.1181 6.64583 14.3542C7.40972 12.5903 8.44903 11.0556 9.76375 9.75C11.0788 8.44444 12.6135 7.40972 14.3679 6.64583C16.1226 5.88194 18 5.5 20 5.5C22 5.5 23.8819 5.88194 25.6458 6.64583C27.4097 7.40972 28.9444 8.44444 30.25 9.75C31.5556 11.0556 32.5903 12.5903 33.3542 14.3542C34.1181 16.1181 34.5 18 34.5 20C34.5 22 34.1181 23.8774 33.3542 25.6321C32.5903 27.3865 31.5556 28.9212 30.25 30.2362C28.9444 31.551 27.4097 32.5903 25.6458 33.3542C23.8819 34.1181 22 34.5 20 34.5ZM20 33.5C23.7592 33.5 26.949 32.1899 29.5696 29.5696C32.1899 26.949 33.5 23.7592 33.5 20C33.5 16.2408 32.1899 13.051 29.5696 10.4304C26.949 7.81014 23.7592 6.5 20 6.5C16.2408 6.5 13.051 7.81014 10.4304 10.4304C7.81014 13.051 6.5 16.2408 6.5 20C6.5 23.7592 7.81014 26.949 10.4304 29.5696C13.051 32.1899 16.2408 33.5 20 33.5Z" fill="url(#paint0_linear_5832_11431)"/>
</g>
<defs>
<linearGradient id="paint0_linear_5832_11431" x1="-7.07843" y1="19.9766" x2="41.1281" y2="19.8653" gradientUnits="userSpaceOnUse">
<stop offset="0.317708" stop-color="#E43425"/>
<stop offset="0.71875" stop-color="#441FD8"/>
<stop offset="1" stop-color="#0A26B8"/>
</linearGradient>
</defs>
</svg>
