<svg width="90" height="70" viewBox="0 0 90 70" fill="none" xmlns="http://www.w3.org/2000/svg">
<path d="M29.0697 52.5671L74.1049 40.512C75.2244 40.196 76.1432 39.6289 76.8614 38.8109C77.5787 37.9928 77.7793 37.0383 77.4633 35.9472C77.2049 34.8571 76.5806 34.1325 75.5904 33.7734C74.6001 33.4143 73.5943 33.3678 72.573 33.6339L59.2947 37.2389L38.4549 17.5203L33.6331 18.5537L46.2049 40.5972L31.1364 44.387L24.5915 39.3056L22.2665 40.0806L29.0697 52.5671ZM82.7165 69.6171H7.28314C5.31722 69.6171 3.61997 68.9033 2.19139 67.4755C0.763666 66.047 0.0498047 64.3497 0.0498047 62.3838V51.4473C3.2075 49.8111 5.74778 47.5507 7.67064 44.666C9.5935 41.7813 10.5549 38.5594 10.5549 35.0005C10.5549 31.4415 9.5935 28.205 7.67064 25.291C5.74778 22.3779 3.2075 20.1321 0.0498047 18.5537V7.61712C0.0498047 5.65121 0.763666 3.95396 2.19139 2.52537C3.61997 1.09765 5.31722 0.383789 7.28314 0.383789H82.7165C84.6824 0.383789 86.3796 1.09765 87.8082 2.52537C89.2359 3.95396 89.9498 5.65121 89.9498 7.61712V62.3838C89.9498 64.3497 89.2359 66.047 87.8082 67.4755C86.3796 68.9033 84.6824 69.6171 82.7165 69.6171ZM82.7165 66.5171C83.922 66.5171 84.9123 66.1296 85.6873 65.3546C86.4623 64.5796 86.8498 63.5893 86.8498 62.3838V7.61712C86.8498 6.41157 86.4623 5.42129 85.6873 4.64629C84.9123 3.87129 83.922 3.48379 82.7165 3.48379H7.28314C6.07758 3.48379 5.08731 3.87129 4.3123 4.64629C3.5373 5.42129 3.1498 6.41157 3.1498 7.61712V16.8306C6.39361 18.7827 8.95542 21.3592 10.8352 24.5599C12.715 27.7598 13.6549 31.24 13.6549 35.0005C13.6549 38.7609 12.715 42.2411 10.8352 45.441C8.95542 48.6418 6.39361 51.2182 3.1498 53.1703V62.3838C3.1498 63.5893 3.5373 64.5796 4.3123 65.3546C5.08731 66.1296 6.07758 66.5171 7.28314 66.5171H82.7165Z" fill="url(#paint0_linear_5832_11352)"/>
<defs>
<linearGradient id="paint0_linear_5832_11352" x1="-38.9433" y1="34.9445" x2="110.496" y2="34.4965" gradientUnits="userSpaceOnUse">
<stop offset="0.317708" stop-color="#E43425"/>
<stop offset="0.71875" stop-color="#441FD8"/>
<stop offset="1" stop-color="#0A26B8"/>
</linearGradient>
</defs>
</svg>
