<svg width="498" height="335" viewBox="0 0 498 335" fill="none" xmlns="http://www.w3.org/2000/svg">
<mask id="mask0_829_1609" style="mask-type:alpha" maskUnits="userSpaceOnUse" x="0" y="0" width="498" height="335">
<rect width="498" height="335" fill="#D9D9D9"/>
</mask>
<g mask="url(#mask0_829_1609)">
<path d="M58.2852 199.297L442.308 199.297" stroke="#7399EF" stroke-width="1.52794" stroke-dasharray="3.06 3.06"/>
<g filter="url(#filter0_d_829_1609)">
<rect x="34.9453" y="123.893" width="47.1525" height="9.23461" fill="url(#paint0_linear_829_1609)"/>
<rect x="22.6289" y="19" width="73.447" height="104.885" rx="5.24036" fill="url(#paint1_linear_829_1609)"/>
<rect x="28.2266" y="25.1562" width="62.2064" height="83.6843" rx="2.58524" fill="url(#paint2_linear_829_1609)"/>
</g>
<g filter="url(#filter1_d_829_1609)">
<rect x="418.973" y="123.893" width="47.1525" height="9.23461" fill="url(#paint3_linear_829_1609)"/>
<rect x="406.656" y="19" width="73.447" height="104.885" rx="5.24036" fill="url(#paint4_linear_829_1609)"/>
<rect x="412.254" y="25.1562" width="62.2064" height="83.6843" rx="2.58524" fill="url(#paint5_linear_829_1609)"/>
</g>
<path d="M47.0781 57.9546V75.0229C47.0781 76.8467 48.5566 78.3252 50.3804 78.3252H67.4487C69.2725 78.3252 70.751 76.8467 70.751 75.0229V57.9546C70.751 56.1308 69.2725 54.6523 67.4487 54.6523H50.3804C48.5566 54.6523 47.0781 56.1308 47.0781 57.9546Z" fill="white"/>
<path opacity="0.8" d="M47.0781 57.9546V75.0229C47.0781 76.8467 48.5566 78.3252 50.3804 78.3252H67.4487C69.2725 78.3252 70.751 76.8467 70.751 75.0229V57.9546C70.751 56.1308 69.2725 54.6523 67.4487 54.6523H50.3804C48.5566 54.6523 47.0781 56.1308 47.0781 57.9546Z" fill="url(#paint6_linear_829_1609)"/>
<path d="M61.2821 62.1374L57.5121 59.961L54.4279 58.1809C54.1234 58.0054 53.7422 58.2248 53.7422 58.5772V74.4044C53.7422 74.7555 54.1234 74.9763 54.4279 74.8008L57.5121 73.0207L61.2821 70.8443L64.7503 68.8421C64.9368 68.7337 65.052 68.5349 65.052 68.3196V64.6635C65.052 64.4481 64.9368 64.2493 64.7503 64.141L61.2821 62.1387V62.1374ZM57.5121 68.6665V64.3137L61.2821 66.4901L57.5121 68.6665Z" fill="white"/>
<path d="M37.3163 118.793C37.3163 118.793 36.3287 118.09 35.4619 117.383C35.1991 117.169 34.9149 117.066 34.6591 117.017C32.8899 114.068 31.6857 111.51 31.6857 111.51L31.3873 110.644L28.9503 108.516C27.0817 110.707 28.5453 111.24 28.5453 111.24C28.5453 111.24 31.9059 116.303 33.1528 117.923C33.1422 117.947 33.1351 117.969 33.1351 117.969C33.1351 117.969 33.6786 119.997 33.7852 120.352C33.8882 120.711 34.144 121.081 34.144 121.081C34.5205 121.528 34.9397 121.969 35.0285 122.47C35.0285 122.47 35.6502 122.097 35.1351 121.34C35.0179 121.17 34.922 120.868 34.8509 120.587C35.0925 120.718 35.3483 120.843 35.4264 120.889C35.7142 121.059 36.9078 122.697 37.057 122.914C37.2098 123.13 37.3483 123.123 37.3554 122.683C37.3625 122.246 36.1334 120.527 36.1334 120.527L36.1973 120.537C36.7302 121.01 37.5153 122.317 37.5153 122.317C37.5153 122.317 38.0908 123.074 38.2542 122.573C38.4176 122.072 36.6271 120.068 36.6271 120.068L36.6804 119.997C36.6804 119.997 37.7426 121.116 38.1334 121.688C38.5206 122.26 38.6307 121.741 38.6307 121.741C38.5561 120.974 37.2879 119.663 37.1636 119.535C37.462 119.628 38.5419 120.693 38.5419 120.693C38.5419 120.693 38.8759 121.059 38.9611 120.654C39.0464 120.249 37.3128 118.779 37.3128 118.779L37.3163 118.793ZM37.1067 119.532C37.1067 119.532 37.1103 119.532 37.1138 119.532C37.089 119.539 37.0677 119.542 37.1067 119.532Z" fill="url(#paint7_linear_829_1609)"/>
<path d="M31.0339 107.531C30.7213 106.707 30.2772 105.936 29.7124 105.257L29.0054 104.401C29.0054 104.401 28.0782 99.7972 26.913 95.8362C26.4867 94.1985 26.0071 92.6745 25.492 91.6372C25.0302 90.7029 24.4192 90.1594 23.7655 89.8539C21.9076 88.8947 19.6695 90.0386 19.6695 90.0386C18.0034 90.6247 18.7033 91.8646 19.3498 93.0866C20.515 95.2856 24.4121 103.978 24.7354 104.703L24.6856 104.71C24.6856 104.71 24.8277 105.733 26.1812 108.497C27.9255 112.057 32.1067 117.847 32.1067 117.847L34.2418 116.039L31.0303 107.531H31.0339Z" fill="white"/>
<path opacity="0.8" d="M31.0339 107.531C30.7213 106.707 30.2772 105.936 29.7124 105.257L29.0054 104.401C29.0054 104.401 28.0782 99.7972 26.913 95.8362C26.4867 94.1985 26.0071 92.6745 25.492 91.6372C25.0302 90.7029 24.4192 90.1594 23.7655 89.8539C21.9076 88.8947 19.6695 90.0386 19.6695 90.0386C18.0034 90.6247 18.7033 91.8646 19.3498 93.0866C20.515 95.2856 24.4121 103.978 24.7354 104.703L24.6856 104.71C24.6856 104.71 24.8277 105.733 26.1812 108.497C27.9255 112.057 32.1067 117.847 32.1067 117.847L34.2418 116.039L31.0303 107.531H31.0339Z" fill="url(#paint8_linear_829_1609)"/>
<path d="M15.0867 159.081C15.0867 159.081 12.8415 157.475 12.3229 155.78C12.2838 155.66 12.234 155.564 12.1737 155.482C11.9747 154.48 11.8717 153.521 11.8717 153.521C11.8717 153.521 8.10252 151.514 8.36896 153.446C8.59987 155.13 8.96577 156.939 8.7242 157.432C8.7242 157.432 8.75618 157.436 8.80236 157.443L8.75617 157.748L15.0902 159.074L15.0867 159.081Z" fill="url(#paint9_linear_829_1609)"/>
<path d="M17.8206 161.053L8.6659 160.918C8.6659 160.918 8.31065 160.766 8.26092 160.108C8.21829 159.54 8.62682 157.529 8.7405 156.996C8.75471 156.922 8.83642 156.879 8.90747 156.908C9.0993 156.982 9.45099 157.17 9.73164 157.625C10.1366 158.282 11.1491 157.22 11.3516 156.662C11.5541 156.105 12.4031 156.154 12.4031 156.154L16.4209 158.741L17.0533 158.883C17.5009 158.982 17.9059 159.252 18.1261 159.654C18.3357 160.034 18.4316 160.648 17.8206 161.057V161.053Z" fill="url(#paint10_linear_829_1609)"/>
<path d="M30.6882 159.081C30.6882 159.081 28.4431 157.475 27.9244 155.78C27.8853 155.66 27.8356 155.564 27.7752 155.482C27.5763 154.48 27.4733 153.521 27.4733 153.521C27.4733 153.521 23.7041 151.514 23.9705 153.446C24.2014 155.13 24.5673 156.939 24.3258 157.432C24.3258 157.432 24.3577 157.436 24.4039 157.443L24.3577 157.748L30.6918 159.074L30.6882 159.081Z" fill="url(#paint11_linear_829_1609)"/>
<path d="M33.4222 161.053L24.2675 160.918C24.2675 160.918 23.9122 160.766 23.8625 160.108C23.8199 159.54 24.2284 157.529 24.3421 156.996C24.3563 156.922 24.438 156.879 24.509 156.908C24.7009 156.982 25.0526 157.17 25.3332 157.625C25.7382 158.282 26.7506 157.22 26.9531 156.662C27.1556 156.105 28.0047 156.154 28.0047 156.154L32.0225 158.741L32.6548 158.883C33.1025 158.982 33.5074 159.252 33.7277 159.654C33.9373 160.034 34.0332 160.648 33.4222 161.057V161.053Z" fill="url(#paint12_linear_829_1609)"/>
<path d="M18.6587 85.0977L17.6072 89.4317L12.9961 88.6892L16.3034 81.9502L18.6587 85.0977Z" fill="url(#paint13_linear_829_1609)"/>
<path d="M26.7172 136.416C26.7172 128.999 25.8042 119.961 24.5324 114.423L24.5253 114.401H24.5324C24.266 113.268 22.5182 108.629 22.1629 107.876L21.964 107.865L21.7793 107.392C20.8876 107.243 20.1167 107.392 19.4524 107.748L10.7524 107.343C9.65823 108.675 8.88024 110.085 8.31895 111.378C7.12887 113.734 5.97432 116.938 6.21588 120.235C6.94769 130.263 8.06317 154.85 8.06317 154.85L13.161 154.79L16.6246 123.769L19.6123 136.054C19.5625 138.118 19.6407 142.15 20.678 146.381C21.5839 150.075 23.7971 155.159 23.7971 155.159L28.362 154.385L26.7207 136.42L26.7172 136.416Z" fill="url(#paint14_linear_829_1609)"/>
<path d="M20.5544 113.055C20.9132 112.671 19.9718 112.533 19.9718 112.533C19.9718 112.533 18.4478 112.476 17.7764 112.238L17.7373 112.185C17.7373 112.185 19.8332 112.433 20.2169 112.217C20.597 112 20.5402 111.872 20.2737 111.844C20.0109 111.815 18.0002 111.563 17.7124 111.389C17.6129 111.329 17.2648 111.08 16.9806 110.913C17.2115 110.835 17.9575 110.59 18.3483 110.625C19.2577 110.71 19.2862 109.986 19.2862 109.986C18.803 110.149 18.2133 109.993 17.6414 109.879C17.6414 109.879 17.1938 109.833 16.8278 109.915C16.4619 109.996 14.4264 110.497 14.4264 110.497C14.4264 110.497 14.3838 110.544 14.3269 110.618L13.556 110.231L12.8242 112.252L13.9006 112.536C14.0711 112.75 14.3056 112.973 14.6466 113.112C15.684 113.531 16.7746 114.057 16.7746 114.057C16.7746 114.057 18.8989 114.87 19.2116 114.6C19.5242 114.33 19.0446 114.213 19.0446 114.213C19.0446 114.213 17.5916 113.78 17.3643 113.563C17.5348 113.609 19.2933 114.092 20.0038 113.787C20.0038 113.787 20.4087 113.442 19.7196 113.378C19.0304 113.314 17.5383 112.92 17.5383 112.92L17.5774 112.838C17.5774 112.838 20.1956 113.442 20.5544 113.059V113.055ZM17.3216 113.517C17.3145 113.474 17.3216 113.496 17.3252 113.52C17.3252 113.52 17.3216 113.52 17.3216 113.517Z" fill="url(#paint15_linear_829_1609)"/>
<path d="M16.0078 84.3763C16.0078 84.3763 15.8621 84.6427 15.308 83.7298C14.7538 82.8203 15.0451 82.22 15.7414 82.1951C16.4376 82.1738 16.7716 82.4224 16.7716 82.4224C16.7716 82.4224 19.8231 80.4864 18.3276 77.9748C17.1375 77.2962 15.681 77.1577 14.3133 77.7438C11.9899 78.7421 11.1906 81.0583 12.228 83.4775C13.2653 85.8968 16.6508 86.5113 18.9741 85.5131C18.9848 85.5095 17.2441 85.2715 16.9279 84.9802C16.2778 84.3763 16.0078 84.3728 16.0078 84.3728V84.3763Z" fill="url(#paint16_linear_829_1609)"/>
<path d="M21.382 82.7675C21.1227 82.6112 20.9308 82.462 20.7959 82.3092C20.1919 81.6485 20.5649 80.9735 20.128 79.89C19.7585 78.9699 18.7283 78.231 18.4121 78.025C18.3837 78.0072 18.3518 77.9894 18.3198 77.9717C19.8154 80.4833 16.7638 82.4194 16.7638 82.4194C16.7638 82.4194 16.2736 81.2826 15.3783 81.6556C14.7318 81.922 14.5186 82.9807 15.087 83.883C15.5346 84.5899 16.1918 84.2986 16.1918 84.2986C16.1918 84.2986 16.4085 85.7445 17.183 86.0464C17.453 86.153 17.9006 86.2596 18.3695 86.352C19.2399 86.526 20.0676 86.6433 20.0676 86.6433C20.7532 86.6965 20.9131 86.3129 20.9415 86.0429C20.9557 85.915 20.9344 85.7836 20.8918 85.6592L20.7816 85.336C20.7816 85.336 20.8136 85.3431 21.0552 85.1868C21.3358 85.0056 20.9237 84.597 20.9237 84.597C21.3003 84.5189 21.4175 84.2489 21.1582 84.0535C20.8989 83.8581 21.0552 83.5988 21.0552 83.5988C21.819 83.137 21.3749 82.764 21.3749 82.764L21.382 82.7675Z" fill="url(#paint17_linear_829_1609)"/>
<path d="M18.4502 78.1673C18.4502 78.1673 19.8854 80.4729 16.7734 82.4232L18.3152 77.9648C18.4751 78.0466 18.2974 78.043 18.4538 78.1673H18.4502Z" fill="url(#paint18_linear_829_1609)"/>
<path d="M17.4336 77.5879C18.343 77.7939 19.6361 78.1918 20.2116 79.6696L19.3519 80.0782C19.3519 80.0782 19.1921 78.3481 17.4336 77.5879Z" fill="url(#paint19_linear_829_1609)"/>
<path d="M11.9453 80.8747C12.2437 81.8196 11.718 82.8286 10.7695 83.127C9.82449 83.4254 8.81559 82.8996 8.51718 81.9511C8.21877 81.0061 8.74454 79.9972 9.69305 79.6988C10.638 79.4004 11.6469 79.9262 11.9453 80.8747Z" fill="url(#paint20_linear_829_1609)"/>
<path d="M15.5674 76.4938C15.6349 77.3713 14.9813 78.135 14.1038 78.2061C13.2263 78.2736 12.4626 77.6199 12.3915 76.7425C12.324 75.865 12.9777 75.1012 13.8551 75.0302C14.7326 74.9627 15.4964 75.6163 15.5674 76.4938Z" fill="url(#paint21_linear_829_1609)"/>
<path d="M12.8945 88.4863L15.5269 87.751L18.1771 88.5077C18.1771 88.5077 17.7685 91.2182 12.8945 88.4863Z" fill="url(#paint22_linear_829_1609)"/>
<path d="M22.6098 108.001L23.5476 99.9438C24.0237 99.0769 24.5281 97.4108 23.9953 95.6808C23.6187 94.4587 22.3469 89.4533 22.3469 89.4533L18.0768 88.4941C18.2687 89.8974 15.416 89.3006 12.9044 88.4941L8.67345 89.7304C8.67345 89.7304 7.79244 95.2545 9.6859 104.569V108.008H21.8602L21.91 108.022H22.6062V108.008L22.6098 108.001Z" fill="white"/>
<path opacity="0.8" d="M22.6098 108.001L23.5476 99.9438C24.0237 99.0769 24.5281 97.4108 23.9953 95.6808C23.6187 94.4587 22.3469 89.4533 22.3469 89.4533L18.0768 88.4941C18.2687 89.8974 15.416 89.3006 12.9044 88.4941L8.67345 89.7304C8.67345 89.7304 7.79244 95.2545 9.6859 104.569V108.008H21.8602L21.91 108.022H22.6062V108.008L22.6098 108.001Z" fill="url(#paint23_linear_829_1609)"/>
<path d="M5.76804 104.97L9.65799 97.2004C9.65799 97.2004 12.9192 92.433 10.0132 90.2979C10.0132 90.2979 7.4448 88.511 5.53712 92.0031C1.59743 99.2253 1.25284 104.462 1.24219 105.943C1.24219 106.032 1.27771 106.106 1.32389 106.17C1.37363 106.749 1.5406 107.336 1.80348 107.844C1.96334 108.156 2.1303 108.38 2.26885 108.444L5.90658 110.131L12.976 112.682L13.7682 109.95C13.7682 109.95 9.41642 106.419 5.76448 104.97H5.76804Z" fill="white"/>
<path opacity="0.8" d="M5.76804 104.97L9.65799 97.2004C9.65799 97.2004 12.9192 92.433 10.0132 90.2979C10.0132 90.2979 7.4448 88.511 5.53712 92.0031C1.59743 99.2253 1.25284 104.462 1.24219 105.943C1.24219 106.032 1.27771 106.106 1.32389 106.17C1.37363 106.749 1.5406 107.336 1.80348 107.844C1.96334 108.156 2.1303 108.38 2.26885 108.444L5.90658 110.131L12.976 112.682L13.7682 109.95C13.7682 109.95 9.41642 106.419 5.76448 104.97H5.76804Z" fill="url(#paint24_linear_829_1609)"/>
<g filter="url(#filter2_d_829_1609)">
<rect x="226.449" y="123.893" width="47.1525" height="9.23461" fill="url(#paint25_linear_829_1609)"/>
<rect x="214.133" y="19" width="73.447" height="104.885" rx="5.24036" fill="url(#paint26_linear_829_1609)"/>
<rect x="219.73" y="25.1562" width="62.2064" height="83.6843" rx="2.58524" fill="url(#paint27_linear_829_1609)"/>
</g>
<path d="M220.403 123.196C220.556 122.489 220.849 121.76 221.067 121.268C220.96 120.245 220.223 113.056 220.471 110.857C220.738 108.486 220.754 107.896 220.754 107.896C220.754 107.896 223.732 107.727 224.937 108.414C225.256 108.597 225.292 110.408 225.168 111.506L223.269 121.858C223.386 122.138 224.458 124.711 224.328 125.04C224.191 125.389 223.836 125.369 223.836 125.369C223.836 125.369 223.901 125.835 223.667 125.962C223.432 126.089 223.041 125.965 223.041 125.965C223.041 125.965 223.044 126.522 222.67 126.577C222.295 126.636 222.015 126.428 222.015 126.428C222.015 126.428 221.901 126.838 221.546 126.89C221.191 126.942 220.927 126.555 220.927 126.555C220.927 126.555 220.679 126.916 220.344 126.893C220.012 126.867 220.012 126.379 220.012 126.379C220.012 126.379 220.139 124.398 220.403 123.193V123.196Z" fill="url(#paint28_linear_829_1609)"/>
<path d="M218.472 88.4006C219.788 88.8502 220.908 89.899 221.553 91.1303C221.817 91.6352 222.029 92.2378 222.153 92.9382L225.403 106.935C225.423 107.01 225.456 107.075 225.469 107.16C226.345 112.088 223.973 120.32 223.973 120.32L220.527 120.088L219.928 106.886L219.42 104.857L218.71 105.346L217.022 97.58L213.983 92.404L213.977 87.0488L218.468 88.4006H218.472Z" fill="url(#paint29_linear_829_1609)"/>
<path d="M204.131 155.477H206.587L207.079 158.523L207.275 160.584H201.477C201.477 160.584 201.968 158.523 202.949 157.832C203.933 157.145 204.128 155.474 204.128 155.474L204.131 155.477Z" fill="url(#paint30_linear_829_1609)"/>
<path d="M220.698 157.523C220.698 157.523 220.829 156.233 220.223 155.024C219.62 153.819 224.187 153.989 224.187 153.989C224.187 153.989 224.532 156.875 226.125 157.823C227.721 158.77 221.861 160.103 220.695 157.52L220.698 157.523Z" fill="url(#paint31_linear_829_1609)"/>
<path d="M203.325 110.975C203.342 110.62 203.342 110.258 203.264 110.18H210.146V110.108L210.808 110.18H218.41V111.747H218.371L218.831 114.532L222.599 133.148L225.013 156.709L220.401 157.311C220.401 157.311 214.739 141.94 214.883 135.767L211.274 122.718C210.821 129.373 209.498 146.171 207.127 156.217L203.335 155.924C203.335 155.924 200.423 122.874 203.329 110.972L203.325 110.975Z" fill="white"/>
<path d="M230.858 160.741H220.193C220.193 160.741 220.138 159.386 220.701 157.526C220.701 157.526 222.734 158.089 223.916 157.412L224.988 156.171L227.809 158.373L230.519 159.106C230.519 159.106 231.252 159.783 230.858 160.741Z" fill="url(#paint32_linear_829_1609)"/>
<path d="M206.935 157.637C206.935 157.637 207.635 159.637 207.544 160.741H201.199C201.199 160.741 200.981 159.757 202.016 158.799L202.906 157.506C202.906 157.506 203.157 156.409 204.134 156.601C206.072 156.985 205.466 157.467 206.935 157.637Z" fill="url(#paint33_linear_829_1609)"/>
<path opacity="0.85" d="M203.325 110.975C203.342 110.62 203.342 110.258 203.264 110.18H210.146V110.108L210.808 110.18H218.41V111.747H218.371L218.831 114.532L222.599 133.148L225.013 156.709L220.401 157.311C220.401 157.311 214.739 141.94 214.883 135.767L211.274 122.718C210.821 129.373 209.498 146.171 207.127 156.217L203.335 155.924C203.335 155.924 200.423 122.874 203.329 110.972L203.325 110.975Z" fill="white"/>
<path opacity="0.7" d="M203.325 110.975C203.342 110.62 203.342 110.258 203.264 110.18H210.146V110.108L210.808 110.18H218.41V111.747H218.371L218.831 114.532L222.599 133.148L225.013 156.709L220.401 157.311C220.401 157.311 214.739 141.94 214.883 135.767L211.274 122.718C210.821 129.373 209.498 146.171 207.127 156.217L203.335 155.924C203.335 155.924 200.423 122.874 203.329 110.972L203.325 110.975Z" fill="url(#paint34_linear_829_1609)"/>
<path d="M207.131 87.1275L209.587 86.375H211.828L214.815 87.3522L210.16 90.7985C210.16 90.7985 205.593 90.235 207.128 87.1275H207.131Z" fill="url(#paint35_linear_829_1609)"/>
<path d="M202.873 88.4006L207.121 87.127C207.121 87.127 208.343 88.6449 210.496 88.6449C212.795 88.6449 214.001 87.0488 214.001 87.0488L216.704 87.8567C217.18 88 217.515 88.4202 217.551 88.9121L217.848 93.0554L219.304 115.287H202.395L202.87 88.3974L202.873 88.4006Z" fill="url(#paint36_linear_829_1609)"/>
<path d="M213.673 83.0945L212.481 88.062L207.836 87.2118L209.93 80.9902L213.673 83.0945Z" fill="url(#paint37_linear_829_1609)"/>
<path d="M209.314 82.9683C208.998 83.2615 208.763 83.1736 208.737 82.7436C208.718 82.369 208.512 81.4862 208.024 80.4471C207.376 79.0627 207.558 77.2875 209.75 75.9617C211.799 74.7239 212.929 78.838 212.929 78.838L212.512 82.1475L211.063 81.6524C210.017 82.2159 209.604 82.7012 209.317 82.9716L209.314 82.9683Z" fill="url(#paint38_linear_829_1609)"/>
<path d="M216.013 78.1891C216.013 78.1891 216.759 77.5702 216.935 76.4074C217.032 75.7689 216.596 76.6321 214.215 75.5767C214.215 75.5767 212.104 74.6581 210.811 75.1924C208.788 76.0262 208.104 79.2608 208.547 80.0426C208.99 80.8276 210.189 81.5931 210.189 81.5931C210.189 81.5931 211.987 79.2771 216.013 78.1891Z" fill="url(#paint39_linear_829_1609)"/>
<path d="M216.01 78.1592C216.01 78.1592 216.818 79.6804 216.297 80.6087C216.157 80.8596 216.835 82.4654 216.835 82.4654C216.835 82.4654 216.74 82.8954 216.258 82.8694C215.776 82.8433 215.975 83.5371 215.975 83.5371C215.975 83.5371 215.913 83.7717 214.939 83.6088C214.786 83.6348 215.698 83.8498 215.802 83.941C215.802 83.941 215.835 84.2375 215.6 84.3938C215.365 84.5502 215.382 85.2994 215.196 85.5144C214.851 85.9052 213.128 85.3775 212.466 85.156C211.805 84.9345 211.007 84.1886 211.007 84.1886C211.007 84.1886 210.558 83.4101 210.704 83.0029C210.704 83.0029 210.088 82.371 210.014 81.4035C209.851 79.2341 211.799 79.1201 211.994 81.0615C212.056 81.6869 212.33 81.3677 212.33 81.3677C212.33 81.3677 212.505 81.1788 212.564 80.283C212.577 80.0615 212.251 78.296 214.264 78.4263C215.216 78.4882 216.01 78.169 216.01 78.169V78.1592Z" fill="url(#paint40_linear_829_1609)"/>
<path d="M201.333 109.834L211.917 110.115L211.852 107.877C211.852 107.877 204.044 105.336 201.669 105.108C199.294 104.88 198.715 104.772 198.715 104.772C198.715 104.772 197.933 107.652 198.356 108.971C198.467 109.32 200.236 109.73 201.333 109.834Z" fill="url(#paint41_linear_829_1609)"/>
<path d="M196.862 104.48H196.846C196.846 104.48 198.282 96.4897 199.149 93.1965C199.357 92.4017 199.501 91.6981 199.797 91.1346C200.442 89.9033 201.562 88.8544 202.878 88.4049L203.817 88.1215C205.497 87.6166 207.201 88.8251 207.282 90.5776C207.338 91.773 207.041 92.9555 206.439 93.988L204.328 97.5842L202.983 103.773L205.247 104.421L203.064 110.053C203.064 110.053 198.836 110.311 197.481 108.301C196.654 107.073 196.81 104.995 196.865 104.483L196.862 104.48Z" fill="url(#paint42_linear_829_1609)"/>
<path d="M210.906 108.511C210.906 108.511 210.432 109.317 210.509 109.512C210.628 109.818 210.931 110.48 211.63 110.838C212.831 111.455 214.085 112.204 214.085 112.204C214.085 112.204 216.552 113.407 216.954 113.116C217.361 112.825 216.794 112.636 216.794 112.636C216.794 112.636 215.06 111.952 214.822 111.667C214.985 111.729 217.096 112.52 217.989 112.226C217.989 112.226 218.511 111.854 217.689 111.703C216.867 111.551 215.115 110.921 215.115 110.921L215.168 110.828C215.168 110.828 218.251 111.836 218.724 111.411C219.195 110.989 218.079 110.72 218.079 110.72C218.079 110.72 216.256 110.488 215.474 110.127L215.431 110.062C215.431 110.062 217.924 110.582 218.404 110.362C218.884 110.142 218.827 109.985 218.513 109.923C218.199 109.86 215.812 109.339 215.484 109.105C215.371 109.022 214.977 108.685 214.656 108.454C214.942 108.382 215.864 108.169 216.331 108.255C217.417 108.455 217.526 107.588 217.526 107.588C216.927 107.734 216.238 107.483 215.561 107.285C215.561 107.285 215.026 107.185 214.582 107.241C214.136 107.3 211.633 107.682 211.633 107.682C211.633 107.682 211.574 107.677 211.417 107.841C211.41 107.847 211.257 107.989 211.25 107.996C211.194 108.061 211.086 108.2 211.054 108.248C210.954 108.406 210.99 108.329 210.894 108.513L210.906 108.511ZM214.807 111.624C214.807 111.624 214.8 111.617 214.798 111.614C214.793 111.559 214.797 111.594 214.807 111.624Z" fill="url(#paint43_linear_829_1609)"/>
<path d="M409.986 156.781L409.806 157.953L414.672 158.046C414.672 158.046 413.723 157.686 413.228 156.062C412.732 154.438 409.986 156.781 409.986 156.781Z" fill="url(#paint44_linear_829_1609)"/>
<path d="M404.221 156.261L404.68 157.954L400.799 158.047C400.799 158.047 400.762 157.687 401.258 156.063C401.754 154.439 404.221 156.268 404.221 156.268V156.261Z" fill="url(#paint45_linear_829_1609)"/>
<path d="M399.99 110.44L399.977 110.409H400.027C401.428 109.473 402.903 109.324 404.149 111.029L411.953 112.182C411.953 112.182 414.749 119.447 415.772 128.515C416.398 134.088 416.639 134.664 416.193 137.702L413.912 156.558L409.585 156.676C409.585 156.676 408.085 141.483 408.761 135.241L405.699 126.575C405.556 139.338 404.719 156.168 404.719 156.168C404.831 156.279 400.405 156.558 400.405 156.558H400.312L394.901 116.98C394.901 116.98 397.306 112.275 399.99 110.434V110.44Z" fill="url(#paint46_linear_829_1609)"/>
<path d="M418.527 160.955L409.755 160.824C409.755 160.824 409.415 160.682 409.365 160.05C409.315 159.417 409.848 156.944 409.848 156.944C409.848 156.944 410.382 157.043 410.772 157.675C411.163 158.308 412.13 157.285 412.328 156.752C412.52 156.219 413.103 156.219 413.103 156.219L417.182 158.742L417.789 158.878C418.217 158.977 418.607 159.231 418.818 159.616C419.023 159.981 419.109 160.57 418.527 160.961V160.955Z" fill="url(#paint47_linear_829_1609)"/>
<path d="M406.433 160.955L400.575 160.824C400.575 160.824 400.234 160.682 400.184 160.05C400.135 159.417 400.668 156.944 400.668 156.944C400.668 156.944 401.089 156.746 401.114 157.675C401.133 158.419 401.61 157.675 402.149 156.752C402.441 156.262 403.922 156.219 403.922 156.219L404.623 156.603L405.255 158.016C406.216 158.766 407.009 160.576 406.427 160.961L406.433 160.955Z" fill="url(#paint48_linear_829_1609)"/>
<path d="M407.156 84.6667L406.654 88.6029L404.795 100.269L401.571 88.4479C403.772 82.7823 404.131 81.586 404.181 81.1396L407.156 84.6729V84.6667Z" fill="url(#paint49_linear_829_1609)"/>
<path d="M396.925 96.1337C397.191 94.1935 397.582 90.0776 399.584 88.6891L402.193 86.6621C404.127 87.7903 406.83 87.2944 406.83 87.2944L409.316 88.8007C410.927 89.7429 411.727 96.0035 411.727 96.0035L415.18 116.72L393.41 117.11L396.931 96.1337H396.925Z" fill="white"/>
<path opacity="0.8" d="M396.925 96.1337C397.191 94.1935 397.582 90.0776 399.584 88.6891L402.193 86.6621C404.127 87.7903 406.83 87.2944 406.83 87.2944L409.316 88.8007C410.927 89.7429 411.727 96.0035 411.727 96.0035L415.18 116.72L393.41 117.11L396.931 96.1337H396.925Z" fill="url(#paint50_linear_829_1609)"/>
<path d="M402.086 76.4222C402.086 76.4222 399.65 73.8931 397.499 75.6412C394.647 77.9471 397.455 79.6703 394.028 85.0632C390.649 90.3878 395.416 91.7267 395.416 91.7267C395.28 89.489 399.346 89.7804 398.999 85.1251C398.658 80.5257 399.507 76.478 401.615 77.2962C403.722 78.1082 402.086 76.4284 402.086 76.4284V76.4222Z" fill="#EAE2D6"/>
<path d="M404.842 82.5581C404.842 82.5581 404.675 82.806 404.204 81.87C403.727 80.934 404.061 80.3638 404.749 80.3948C405.437 80.4258 405.741 80.6985 405.741 80.6985C405.741 80.6985 408.89 79.0311 407.613 76.4462C406.497 75.69 405.078 75.442 403.683 75.9069C401.322 76.7065 400.082 79.3472 400.919 81.8019C401.749 84.2565 404.148 84.6595 406.51 83.8598C406.522 83.8598 406.045 84.3309 405.76 84.021C405.165 83.3763 404.842 82.5457 404.842 82.5457V82.5581Z" fill="#EAE2D6"/>
<path d="M410.251 81.3932C410.01 81.2196 409.836 81.0584 409.712 80.8973C409.173 80.203 409.588 79.5646 409.247 78.4674C408.956 77.5314 408.001 76.7256 407.704 76.5024C407.673 76.4838 407.648 76.4652 407.617 76.4404C408.888 79.0253 405.745 80.6927 405.745 80.6927C405.745 80.6927 405.348 79.5398 404.443 79.8311C403.786 80.0419 403.495 81.0646 403.985 82.0006C404.369 82.7321 405.038 82.4965 405.038 82.4965C405.038 82.4965 405.138 83.9346 405.875 84.2942C406.136 84.4181 406.563 84.5607 407.016 84.6847C407.859 84.9264 408.658 85.1 408.658 85.1C409.26 85.193 409.47 84.914 409.545 84.6599C409.588 84.5049 409.582 84.3437 409.545 84.1888L409.464 83.8664C409.464 83.8664 409.495 83.8788 409.743 83.7425C410.035 83.5875 409.663 83.1536 409.663 83.1536C410.041 83.104 410.177 82.8499 409.935 82.6391C409.694 82.4284 409.867 82.1866 409.867 82.1866C410.654 81.7961 410.245 81.3932 410.245 81.3932H410.251Z" fill="url(#paint51_linear_829_1609)"/>
<path d="M407.72 76.645C407.72 76.645 408.954 79.0191 405.743 80.6989L407.602 76.4404C407.751 76.5334 407.578 76.5148 407.72 76.6512V76.645Z" fill="#EAE2D6"/>
<path d="M406.963 76.0811C408.314 76.7133 409.597 77.7795 409.485 79.8932L407.105 77.2154C407.105 77.2154 408.81 77.4262 406.963 76.0811Z" fill="#EAE2D6"/>
<path d="M399.892 108.197C399.892 108.197 401.355 108.699 402.074 108.718L402.13 108.68C402.13 108.68 400.053 108.154 399.774 107.806C399.495 107.459 399.595 107.366 399.855 107.434C400.115 107.503 402.105 107.992 402.44 107.937C402.533 107.924 402.812 107.85 403.085 107.794C402.849 107.62 402.576 107.453 402.372 107.397C401.479 107.149 401.715 106.455 401.715 106.455C402.111 106.784 402.725 106.852 403.308 106.951C403.308 106.951 403.748 107.069 404.064 107.28C404.38 107.49 406.128 108.705 406.128 108.705C406.128 108.705 406.376 109.331 406.128 109.691C406.128 109.871 406.103 110.044 406.047 110.094C405.849 110.28 405.372 110.67 404.709 110.683C403.574 110.701 402.353 110.807 402.353 110.807C402.353 110.807 400.047 110.807 399.849 110.435C399.65 110.063 400.146 110.131 400.146 110.131C400.146 110.131 401.677 110.249 401.969 110.131C401.715 110.106 399.936 109.914 399.39 109.381C399.39 109.381 399.136 108.91 399.812 109.096C400.487 109.288 402.043 109.455 402.043 109.455V109.362C402.043 109.362 399.341 108.984 399.142 108.488C398.944 107.999 399.88 108.203 399.88 108.203L399.892 108.197ZM402.037 110.094C402.062 110.05 402.043 110.075 402.037 110.094V110.094Z" fill="url(#paint52_linear_829_1609)"/>
<path d="M398.723 112.034C398.723 112.034 399.845 112.666 399.938 112.672C400.477 112.728 401.277 112.914 402.107 113.274C403.558 113.893 404.289 115.542 404.289 115.542C404.289 115.542 404.184 116.131 403.83 115.964C403.83 115.964 403.762 116.608 403.204 116.478C403.204 116.478 403.217 117.111 402.603 117.123C402.603 117.123 402.38 117.662 401.834 117.334C401.289 117.005 399.522 115.493 399.522 115.493L397.942 113.633C397.942 113.633 397.638 111.928 398.716 112.028L398.723 112.034Z" fill="url(#paint53_linear_829_1609)"/>
<path d="M388.527 105.196V105.184C388.67 104.762 388.868 104.329 389.092 103.888C390.226 101.248 392.712 95.4148 393.133 94.1503C393.685 92.5014 395.458 90.3071 398.743 89.1418C398.941 89.0736 399.127 88.9992 399.301 88.9248C397.547 90.4931 397.181 94.2929 396.927 96.1339L396.146 100.777L393.424 105.438C396.239 108.042 399.146 112.083 399.146 112.083L397.987 114.315L391.887 110.248L388.837 107.8C388.496 107.527 388.28 107.149 388.354 106.715C388.267 106.244 388.348 105.729 388.521 105.196H388.527Z" fill="white"/>
<path opacity="0.8" d="M388.527 105.196V105.184C388.67 104.762 388.868 104.329 389.092 103.888C390.226 101.248 392.712 95.4148 393.133 94.1503C393.685 92.5014 395.458 90.3071 398.743 89.1418C398.941 89.0736 399.127 88.9992 399.301 88.9248C397.547 90.4931 397.181 94.2929 396.927 96.1339L396.146 100.777L393.424 105.438C396.239 108.042 399.146 112.083 399.146 112.083L397.987 114.315L391.887 110.248L388.837 107.8C388.496 107.527 388.28 107.149 388.354 106.715C388.267 106.244 388.348 105.729 388.521 105.196H388.527Z" fill="url(#paint54_linear_829_1609)"/>
<path d="M412.725 101.979L411.727 95.9976C411.727 95.9976 410.964 90.0654 409.433 88.8877C409.65 88.9683 409.873 89.0489 410.127 89.1294C413.437 90.2142 415.192 92.4829 415.737 94.138C416.289 95.7868 418.812 105.091 418.812 105.091H418.805C419.103 106.325 418.774 107.664 418.241 108.333C418.105 108.748 417.739 108.984 417.312 109.064L413.468 109.808L406.179 110.564L405.416 108.066C405.416 108.066 410.127 105.841 413.952 104.862L412.725 101.979Z" fill="white"/>
<path opacity="0.8" d="M412.725 101.979L411.727 95.9976C411.727 95.9976 410.964 90.0654 409.433 88.8877C409.65 88.9683 409.873 89.0489 410.127 89.1294C413.437 90.2142 415.192 92.4829 415.737 94.138C416.289 95.7868 418.812 105.091 418.812 105.091H418.805C419.103 106.325 418.774 107.664 418.241 108.333C418.105 108.748 417.739 108.984 417.312 109.064L413.468 109.808L406.179 110.564L405.416 108.066C405.416 108.066 410.127 105.841 413.952 104.862L412.725 101.979Z" fill="url(#paint55_linear_829_1609)"/>
<path d="M250.809 231.894L250.809 133.087" stroke="#7399EF" stroke-width="1.52794" stroke-dasharray="3.06 3.06"/>
<path d="M58.2852 199.297L58.2852 133.086" stroke="#7399EF" stroke-width="1.52794" stroke-dasharray="3.06 3.06"/>
<path d="M442.309 199.297L442.309 133.086" stroke="#7399EF" stroke-width="1.52794" stroke-dasharray="3.06 3.06"/>
<g filter="url(#filter3_d_829_1609)">
<rect x="301.773" y="231.893" width="73.447" height="104.885" rx="5.24036" transform="rotate(90 301.773 231.893)" fill="url(#paint56_linear_829_1609)"/>
<path d="M297.446 304.795C297.914 304.795 298.369 304.957 298.732 305.253L307.483 312.383C308.969 313.594 308.113 316 306.196 316L193.905 316C192.047 316 191.159 313.716 192.529 312.461L200.307 305.33C200.683 304.986 201.174 304.795 201.684 304.795L297.446 304.795Z" fill="url(#paint57_linear_829_1609)"/>
<rect x="295.113" y="237.565" width="62.1363" height="91.6764" rx="2.58524" transform="rotate(90 295.113 237.565)" fill="url(#paint58_linear_829_1609)"/>
<mask id="mask1_829_1609" style="mask-type:alpha" maskUnits="userSpaceOnUse" x="220" y="239" width="57" height="57">
<rect x="220.754" y="239.604" width="56.0245" height="56.0245" fill="#D9D9D9"/>
</mask>
<g mask="url(#mask1_829_1609)">
<path d="M235.913 286.288C232.373 286.288 229.348 285.063 226.84 282.612C224.329 280.16 223.074 277.165 223.074 273.624C223.074 270.59 223.989 267.886 225.817 265.512C227.646 263.139 230.038 261.622 232.995 260.96C233.968 257.381 235.913 254.483 238.831 252.265C241.749 250.047 245.056 248.938 248.752 248.938C253.304 248.938 257.165 250.524 260.335 253.694C263.507 256.865 265.093 260.727 265.093 265.279C267.777 265.59 270.005 266.747 271.776 268.75C273.545 270.755 274.43 273.099 274.43 275.784C274.43 278.701 273.409 281.182 271.367 283.225C269.324 285.267 266.843 286.288 263.925 286.288H235.913Z" fill="white"/>
</g>
<path d="M251.723 265.012L247.954 262.836L244.869 261.056C244.565 260.88 244.184 261.1 244.184 261.452V277.279C244.184 277.63 244.565 277.851 244.869 277.676L247.954 275.896L251.723 273.719L255.192 271.717C255.378 271.609 255.493 271.41 255.493 271.195V267.538C255.493 267.323 255.378 267.124 255.192 267.016L251.723 265.014V265.012ZM247.954 271.542V267.189L251.723 269.365L247.954 271.542Z" fill="#001464"/>
</g>
</g>
<defs>
<filter id="filter0_d_829_1609" x="-1.81815" y="-5.44705" width="122.339" height="163.021" filterUnits="userSpaceOnUse" color-interpolation-filters="sRGB">
<feFlood flood-opacity="0" result="BackgroundImageFix"/>
<feColorMatrix in="SourceAlpha" type="matrix" values="0 0 0 0 0 0 0 0 0 0 0 0 0 0 0 0 0 0 127 0" result="hardAlpha"/>
<feOffset/>
<feGaussianBlur stdDeviation="12.2235"/>
<feComposite in2="hardAlpha" operator="out"/>
<feColorMatrix type="matrix" values="0 0 0 0 0.45098 0 0 0 0 0.603922 0 0 0 0 0.941176 0 0 0 0.46 0"/>
<feBlend mode="normal" in2="BackgroundImageFix" result="effect1_dropShadow_829_1609"/>
<feBlend mode="normal" in="SourceGraphic" in2="effect1_dropShadow_829_1609" result="shape"/>
</filter>
<filter id="filter1_d_829_1609" x="382.209" y="-5.44705" width="122.339" height="163.021" filterUnits="userSpaceOnUse" color-interpolation-filters="sRGB">
<feFlood flood-opacity="0" result="BackgroundImageFix"/>
<feColorMatrix in="SourceAlpha" type="matrix" values="0 0 0 0 0 0 0 0 0 0 0 0 0 0 0 0 0 0 127 0" result="hardAlpha"/>
<feOffset/>
<feGaussianBlur stdDeviation="12.2235"/>
<feComposite in2="hardAlpha" operator="out"/>
<feColorMatrix type="matrix" values="0 0 0 0 0.45098 0 0 0 0 0.603922 0 0 0 0 0.941176 0 0 0 0.46 0"/>
<feBlend mode="normal" in2="BackgroundImageFix" result="effect1_dropShadow_829_1609"/>
<feBlend mode="normal" in="SourceGraphic" in2="effect1_dropShadow_829_1609" result="shape"/>
</filter>
<filter id="filter2_d_829_1609" x="189.686" y="-5.44705" width="122.339" height="163.021" filterUnits="userSpaceOnUse" color-interpolation-filters="sRGB">
<feFlood flood-opacity="0" result="BackgroundImageFix"/>
<feColorMatrix in="SourceAlpha" type="matrix" values="0 0 0 0 0 0 0 0 0 0 0 0 0 0 0 0 0 0 127 0" result="hardAlpha"/>
<feOffset/>
<feGaussianBlur stdDeviation="12.2235"/>
<feComposite in2="hardAlpha" operator="out"/>
<feColorMatrix type="matrix" values="0 0 0 0 0.45098 0 0 0 0 0.603922 0 0 0 0 0.941176 0 0 0 0.46 0"/>
<feBlend mode="normal" in2="BackgroundImageFix" result="effect1_dropShadow_829_1609"/>
<feBlend mode="normal" in="SourceGraphic" in2="effect1_dropShadow_829_1609" result="shape"/>
</filter>
<filter id="filter3_d_829_1609" x="167.416" y="207.446" width="165.269" height="133.002" filterUnits="userSpaceOnUse" color-interpolation-filters="sRGB">
<feFlood flood-opacity="0" result="BackgroundImageFix"/>
<feColorMatrix in="SourceAlpha" type="matrix" values="0 0 0 0 0 0 0 0 0 0 0 0 0 0 0 0 0 0 127 0" result="hardAlpha"/>
<feOffset/>
<feGaussianBlur stdDeviation="12.2235"/>
<feComposite in2="hardAlpha" operator="out"/>
<feColorMatrix type="matrix" values="0 0 0 0 0.45098 0 0 0 0 0.603922 0 0 0 0 0.941176 0 0 0 0.46 0"/>
<feBlend mode="normal" in2="BackgroundImageFix" result="effect1_dropShadow_829_1609"/>
<feBlend mode="normal" in="SourceGraphic" in2="effect1_dropShadow_829_1609" result="shape"/>
</filter>
<linearGradient id="paint0_linear_829_1609" x1="57.8919" y1="123.893" x2="57.8919" y2="133.267" gradientUnits="userSpaceOnUse">
<stop stop-color="#26264F"/>
<stop offset="1" stop-color="#444B8B"/>
</linearGradient>
<linearGradient id="paint1_linear_829_1609" x1="22.633" y1="71.4474" x2="96.074" y2="71.4474" gradientUnits="userSpaceOnUse">
<stop stop-color="#444B8B"/>
<stop offset="0.99" stop-color="#26264F"/>
</linearGradient>
<linearGradient id="paint2_linear_829_1609" x1="9.89727" y1="133.173" x2="52.1479" y2="11.8082" gradientUnits="userSpaceOnUse">
<stop stop-color="#7399EF"/>
<stop offset="0.14" stop-color="#8BB0F2"/>
<stop offset="0.32" stop-color="#A2C6F5"/>
<stop offset="0.51" stop-color="#B3D6F7"/>
<stop offset="0.73" stop-color="#BDDFF9"/>
<stop offset="1" stop-color="#C0E2F9"/>
</linearGradient>
<linearGradient id="paint3_linear_829_1609" x1="441.919" y1="123.893" x2="441.919" y2="133.267" gradientUnits="userSpaceOnUse">
<stop stop-color="#26264F"/>
<stop offset="1" stop-color="#444B8B"/>
</linearGradient>
<linearGradient id="paint4_linear_829_1609" x1="406.66" y1="71.4474" x2="480.101" y2="71.4474" gradientUnits="userSpaceOnUse">
<stop stop-color="#444B8B"/>
<stop offset="0.99" stop-color="#26264F"/>
</linearGradient>
<linearGradient id="paint5_linear_829_1609" x1="393.925" y1="133.173" x2="436.175" y2="11.8082" gradientUnits="userSpaceOnUse">
<stop stop-color="#7399EF"/>
<stop offset="0.14" stop-color="#8BB0F2"/>
<stop offset="0.32" stop-color="#A2C6F5"/>
<stop offset="0.51" stop-color="#B3D6F7"/>
<stop offset="0.73" stop-color="#BDDFF9"/>
<stop offset="1" stop-color="#C0E2F9"/>
</linearGradient>
<linearGradient id="paint6_linear_829_1609" x1="58.9146" y1="78.3252" x2="58.9146" y2="54.6523" gradientUnits="userSpaceOnUse">
<stop stop-color="#4B0082"/>
<stop offset="0.1" stop-color="#4B0082"/>
<stop offset="0.9" stop-color="#0050EB"/>
<stop offset="1" stop-color="#0050EB"/>
</linearGradient>
<linearGradient id="paint7_linear_829_1609" x1="27.9982" y1="115.791" x2="38.9682" y2="115.791" gradientUnits="userSpaceOnUse">
<stop stop-color="#A8316D"/>
<stop offset="1" stop-color="#792D3D"/>
</linearGradient>
<linearGradient id="paint8_linear_829_1609" x1="18.6393" y1="103.655" x2="34.2453" y2="103.655" gradientUnits="userSpaceOnUse">
<stop stop-color="#530083"/>
<stop offset="0.1" stop-color="#530083"/>
<stop offset="0.9" stop-color="#0052F0"/>
<stop offset="1" stop-color="#0052F0"/>
</linearGradient>
<linearGradient id="paint9_linear_829_1609" x1="8.35119" y1="155.844" x2="15.0867" y2="155.844" gradientUnits="userSpaceOnUse">
<stop stop-color="#A8316D"/>
<stop offset="1" stop-color="#792D3D"/>
</linearGradient>
<linearGradient id="paint10_linear_829_1609" x1="8.25736" y1="158.606" x2="18.2824" y2="158.606" gradientUnits="userSpaceOnUse">
<stop stop-color="#444B89"/>
<stop offset="0.27" stop-color="#3E437E"/>
<stop offset="0.75" stop-color="#2F3160"/>
<stop offset="1" stop-color="#26264F"/>
</linearGradient>
<linearGradient id="paint11_linear_829_1609" x1="23.9528" y1="155.844" x2="30.6882" y2="155.844" gradientUnits="userSpaceOnUse">
<stop stop-color="#A8316D"/>
<stop offset="1" stop-color="#792D3D"/>
</linearGradient>
<linearGradient id="paint12_linear_829_1609" x1="23.8589" y1="158.606" x2="33.884" y2="158.606" gradientUnits="userSpaceOnUse">
<stop stop-color="#444B89"/>
<stop offset="0.27" stop-color="#3E437E"/>
<stop offset="0.75" stop-color="#2F3160"/>
<stop offset="1" stop-color="#26264F"/>
</linearGradient>
<linearGradient id="paint13_linear_829_1609" x1="12.9961" y1="85.6909" x2="18.6587" y2="85.6909" gradientUnits="userSpaceOnUse">
<stop stop-color="#A8316D"/>
<stop offset="1" stop-color="#792D3D"/>
</linearGradient>
<linearGradient id="paint14_linear_829_1609" x1="53.1916" y1="131.049" x2="6.33479" y2="131.049" gradientUnits="userSpaceOnUse">
<stop stop-color="white"/>
<stop offset="0.35" stop-color="#FBFCFD"/>
<stop offset="0.62" stop-color="#F2F3F7"/>
<stop offset="0.87" stop-color="#E1E4EE"/>
<stop offset="1" stop-color="#D5D9E8"/>
</linearGradient>
<linearGradient id="paint15_linear_829_1609" x1="12.8242" y1="112.259" x2="20.6361" y2="112.259" gradientUnits="userSpaceOnUse">
<stop stop-color="#A8316D"/>
<stop offset="1" stop-color="#792D3D"/>
</linearGradient>
<linearGradient id="paint16_linear_829_1609" x1="11.7804" y1="81.6729" x2="18.9741" y2="81.6729" gradientUnits="userSpaceOnUse">
<stop stop-color="#444B89"/>
<stop offset="1" stop-color="#26264F"/>
</linearGradient>
<linearGradient id="paint17_linear_829_1609" x1="14.7602" y1="82.3164" x2="21.5099" y2="82.3164" gradientUnits="userSpaceOnUse">
<stop stop-color="#A8316D"/>
<stop offset="1" stop-color="#792D3D"/>
</linearGradient>
<linearGradient id="paint18_linear_829_1609" x1="16.7734" y1="80.1958" x2="18.7806" y2="80.1958" gradientUnits="userSpaceOnUse">
<stop stop-color="#444B89"/>
<stop offset="1" stop-color="#26264F"/>
</linearGradient>
<linearGradient id="paint19_linear_829_1609" x1="17.43" y1="78.8313" x2="20.2116" y2="78.8313" gradientUnits="userSpaceOnUse">
<stop stop-color="#444B89"/>
<stop offset="1" stop-color="#26264F"/>
</linearGradient>
<linearGradient id="paint20_linear_829_1609" x1="8.43903" y1="81.4111" x2="12.0306" y2="81.4111" gradientUnits="userSpaceOnUse">
<stop stop-color="#444B89"/>
<stop offset="1" stop-color="#26264F"/>
</linearGradient>
<linearGradient id="paint21_linear_829_1609" x1="12.388" y1="76.6217" x2="15.571" y2="76.6217" gradientUnits="userSpaceOnUse">
<stop stop-color="#444B89"/>
<stop offset="1" stop-color="#26264F"/>
</linearGradient>
<linearGradient id="paint22_linear_829_1609" x1="12.8945" y1="88.7279" x2="18.1771" y2="88.7279" gradientUnits="userSpaceOnUse">
<stop stop-color="#A8316D"/>
<stop offset="1" stop-color="#792D3D"/>
</linearGradient>
<linearGradient id="paint23_linear_829_1609" x1="8.46385" y1="98.2563" x2="24.2226" y2="98.2563" gradientUnits="userSpaceOnUse">
<stop stop-color="#530083"/>
<stop offset="0.1" stop-color="#530083"/>
<stop offset="0.9" stop-color="#0052F0"/>
<stop offset="1" stop-color="#0052F0"/>
</linearGradient>
<linearGradient id="paint24_linear_829_1609" x1="1.24574" y1="101.264" x2="13.7718" y2="101.264" gradientUnits="userSpaceOnUse">
<stop stop-color="#530083"/>
<stop offset="0.1" stop-color="#530083"/>
<stop offset="0.9" stop-color="#0052F0"/>
<stop offset="1" stop-color="#0052F0"/>
</linearGradient>
<linearGradient id="paint25_linear_829_1609" x1="249.396" y1="123.893" x2="249.396" y2="133.267" gradientUnits="userSpaceOnUse">
<stop stop-color="#26264F"/>
<stop offset="1" stop-color="#444B8B"/>
</linearGradient>
<linearGradient id="paint26_linear_829_1609" x1="214.137" y1="71.4474" x2="287.578" y2="71.4474" gradientUnits="userSpaceOnUse">
<stop stop-color="#444B8B"/>
<stop offset="0.99" stop-color="#26264F"/>
</linearGradient>
<linearGradient id="paint27_linear_829_1609" x1="201.401" y1="133.173" x2="243.652" y2="11.8082" gradientUnits="userSpaceOnUse">
<stop stop-color="#7399EF"/>
<stop offset="0.14" stop-color="#8BB0F2"/>
<stop offset="0.32" stop-color="#A2C6F5"/>
<stop offset="0.51" stop-color="#B3D6F7"/>
<stop offset="0.73" stop-color="#BDDFF9"/>
<stop offset="1" stop-color="#C0E2F9"/>
</linearGradient>
<linearGradient id="paint28_linear_829_1609" x1="225.233" y1="117.392" x2="220.015" y2="117.392" gradientUnits="userSpaceOnUse">
<stop stop-color="#F6C7C4"/>
<stop offset="1" stop-color="#F06F56"/>
</linearGradient>
<linearGradient id="paint29_linear_829_1609" x1="236.032" y1="100.491" x2="216.169" y2="102.019" gradientUnits="userSpaceOnUse">
<stop stop-color="white"/>
<stop offset="0.35" stop-color="#FBFCFD"/>
<stop offset="0.62" stop-color="#F2F3F7"/>
<stop offset="0.87" stop-color="#E1E4EE"/>
<stop offset="1" stop-color="#D5D9E8"/>
</linearGradient>
<linearGradient id="paint30_linear_829_1609" x1="207.275" y1="158.031" x2="201.477" y2="158.031" gradientUnits="userSpaceOnUse">
<stop stop-color="#F6C7C4"/>
<stop offset="1" stop-color="#F06F56"/>
</linearGradient>
<linearGradient id="paint31_linear_829_1609" x1="226.402" y1="156.503" x2="220.171" y2="156.503" gradientUnits="userSpaceOnUse">
<stop stop-color="#F6C7C4"/>
<stop offset="1" stop-color="#F06F56"/>
</linearGradient>
<linearGradient id="paint32_linear_829_1609" x1="230.972" y1="158.454" x2="220.19" y2="158.454" gradientUnits="userSpaceOnUse">
<stop stop-color="#26264F"/>
<stop offset="0.25" stop-color="#2A2B57"/>
<stop offset="0.65" stop-color="#363A6E"/>
<stop offset="1" stop-color="#444B89"/>
</linearGradient>
<linearGradient id="paint33_linear_829_1609" x1="207.551" y1="158.656" x2="201.179" y2="158.656" gradientUnits="userSpaceOnUse">
<stop stop-color="#26264F"/>
<stop offset="0.25" stop-color="#2A2B57"/>
<stop offset="0.65" stop-color="#363A6E"/>
<stop offset="1" stop-color="#444B89"/>
</linearGradient>
<linearGradient id="paint34_linear_829_1609" x1="202.033" y1="133.716" x2="225.007" y2="133.716" gradientUnits="userSpaceOnUse">
<stop stop-color="#0057D2"/>
<stop offset="0.1" stop-color="#0057D2"/>
<stop offset="0.39" stop-color="#0085E4"/>
<stop offset="0.73" stop-color="#00B4F7"/>
<stop offset="0.9" stop-color="#00C7FF"/>
<stop offset="1" stop-color="#00C7FF"/>
</linearGradient>
<linearGradient id="paint35_linear_829_1609" x1="214.815" y1="88.59" x2="206.815" y2="88.59" gradientUnits="userSpaceOnUse">
<stop stop-color="#F6C7C4"/>
<stop offset="1" stop-color="#F06F56"/>
</linearGradient>
<linearGradient id="paint36_linear_829_1609" x1="229.412" y1="99.4723" x2="202.398" y2="101.173" gradientUnits="userSpaceOnUse">
<stop stop-color="white"/>
<stop offset="0.35" stop-color="#FBFCFD"/>
<stop offset="0.62" stop-color="#F2F3F7"/>
<stop offset="0.87" stop-color="#E1E4EE"/>
<stop offset="1" stop-color="#C9D1ED"/>
</linearGradient>
<linearGradient id="paint37_linear_829_1609" x1="213.673" y1="84.5245" x2="207.836" y2="84.5245" gradientUnits="userSpaceOnUse">
<stop stop-color="#F6C7C4"/>
<stop offset="1" stop-color="#F06F56"/>
</linearGradient>
<linearGradient id="paint38_linear_829_1609" x1="212.926" y1="79.4341" x2="207.692" y2="79.4341" gradientUnits="userSpaceOnUse">
<stop stop-color="#A8316D"/>
<stop offset="1" stop-color="#792D3D"/>
</linearGradient>
<linearGradient id="paint39_linear_829_1609" x1="216.948" y1="78.3097" x2="208.417" y2="78.3097" gradientUnits="userSpaceOnUse">
<stop stop-color="#A8316D"/>
<stop offset="1" stop-color="#792D3D"/>
</linearGradient>
<linearGradient id="paint40_linear_829_1609" x1="216.838" y1="81.9052" x2="210.007" y2="81.9052" gradientUnits="userSpaceOnUse">
<stop stop-color="#F6C7C4"/>
<stop offset="1" stop-color="#F06F56"/>
</linearGradient>
<linearGradient id="paint41_linear_829_1609" x1="211.917" y1="107.447" x2="198.229" y2="107.447" gradientUnits="userSpaceOnUse">
<stop stop-color="#F6C7C4"/>
<stop offset="1" stop-color="#F06F56"/>
</linearGradient>
<linearGradient id="paint42_linear_829_1609" x1="215.152" y1="102.529" x2="196.813" y2="99.0337" gradientUnits="userSpaceOnUse">
<stop stop-color="white"/>
<stop offset="0.35" stop-color="#FBFCFD"/>
<stop offset="0.62" stop-color="#F2F3F7"/>
<stop offset="0.87" stop-color="#D1D7EB"/>
<stop offset="1" stop-color="#C1C7DE"/>
</linearGradient>
<linearGradient id="paint43_linear_829_1609" x1="217.449" y1="112.698" x2="212.514" y2="106.902" gradientUnits="userSpaceOnUse">
<stop stop-color="#F6C7C4"/>
<stop offset="1" stop-color="#F06F56"/>
</linearGradient>
<linearGradient id="paint44_linear_829_1609" x1="414.666" y1="156.769" x2="409.806" y2="156.769" gradientUnits="userSpaceOnUse">
<stop stop-color="#F6C7C4"/>
<stop offset="1" stop-color="#F06F56"/>
</linearGradient>
<linearGradient id="paint45_linear_829_1609" x1="404.673" y1="156.72" x2="400.793" y2="156.72" gradientUnits="userSpaceOnUse">
<stop stop-color="#F6C7C4"/>
<stop offset="1" stop-color="#F06F56"/>
</linearGradient>
<linearGradient id="paint46_linear_829_1609" x1="457.585" y1="133.087" x2="394.901" y2="133.202" gradientUnits="userSpaceOnUse">
<stop stop-color="white"/>
<stop offset="0.35" stop-color="#FBFCFD"/>
<stop offset="0.62" stop-color="#F2F3F7"/>
<stop offset="0.87" stop-color="#D7DCED"/>
<stop offset="1" stop-color="#CDD2E9"/>
</linearGradient>
<linearGradient id="paint47_linear_829_1609" x1="418.973" y1="158.58" x2="409.359" y2="158.58" gradientUnits="userSpaceOnUse">
<stop stop-color="#26264F"/>
<stop offset="0.26" stop-color="#282853"/>
<stop offset="0.53" stop-color="#2E305F"/>
<stop offset="0.79" stop-color="#383C73"/>
<stop offset="1" stop-color="#444B89"/>
</linearGradient>
<linearGradient id="paint48_linear_829_1609" x1="406.631" y1="75.0283" x2="400.184" y2="75.0283" gradientUnits="userSpaceOnUse">
<stop stop-color="#26264F"/>
<stop offset="0.26" stop-color="#282853"/>
<stop offset="0.53" stop-color="#2E305F"/>
<stop offset="0.79" stop-color="#383C73"/>
<stop offset="1" stop-color="#444B89"/>
</linearGradient>
<linearGradient id="paint49_linear_829_1609" x1="407.156" y1="90.698" x2="401.571" y2="90.698" gradientUnits="userSpaceOnUse">
<stop stop-color="#F6C7C4"/>
<stop offset="1" stop-color="#F06F56"/>
</linearGradient>
<linearGradient id="paint50_linear_829_1609" x1="415.178" y1="101.886" x2="393.402" y2="101.886" gradientUnits="userSpaceOnUse">
<stop stop-color="#9D0051"/>
<stop offset="0.1" stop-color="#9D0051"/>
<stop offset="0.91" stop-color="#301C90"/>
<stop offset="1" stop-color="#301C90"/>
</linearGradient>
<linearGradient id="paint51_linear_829_1609" x1="410.357" y1="80.7857" x2="403.737" y2="80.7857" gradientUnits="userSpaceOnUse">
<stop stop-color="#F6C7C4"/>
<stop offset="1" stop-color="#F06F56"/>
</linearGradient>
<linearGradient id="paint52_linear_829_1609" x1="406.246" y1="108.625" x2="399.124" y2="108.625" gradientUnits="userSpaceOnUse">
<stop stop-color="#F6C7C4"/>
<stop offset="1" stop-color="#F06F56"/>
</linearGradient>
<linearGradient id="paint53_linear_829_1609" x1="404.295" y1="114.736" x2="397.911" y2="114.736" gradientUnits="userSpaceOnUse">
<stop stop-color="#F6C7C4"/>
<stop offset="1" stop-color="#F06F56"/>
</linearGradient>
<linearGradient id="paint54_linear_829_1609" x1="399.3" y1="101.62" x2="388.315" y2="101.62" gradientUnits="userSpaceOnUse">
<stop stop-color="#9D0051"/>
<stop offset="0.1" stop-color="#9D0051"/>
<stop offset="0.91" stop-color="#301C90"/>
<stop offset="1" stop-color="#301C90"/>
</linearGradient>
<linearGradient id="paint55_linear_829_1609" x1="418.917" y1="99.7261" x2="405.411" y2="99.7261" gradientUnits="userSpaceOnUse">
<stop stop-color="#9D0051"/>
<stop offset="0.1" stop-color="#9D0051"/>
<stop offset="0.91" stop-color="#301C90"/>
<stop offset="1" stop-color="#301C90"/>
</linearGradient>
<linearGradient id="paint56_linear_829_1609" x1="301.778" y1="284.34" x2="375.219" y2="284.34" gradientUnits="userSpaceOnUse">
<stop stop-color="#444B8B"/>
<stop offset="0.99" stop-color="#26264F"/>
</linearGradient>
<linearGradient id="paint57_linear_829_1609" x1="250.289" y1="304.796" x2="250.289" y2="316" gradientUnits="userSpaceOnUse">
<stop stop-color="#444B8B"/>
<stop offset="0.99" stop-color="#26264F"/>
</linearGradient>
<linearGradient id="paint58_linear_829_1609" x1="276.805" y1="355.898" x2="326.479" y2="225.795" gradientUnits="userSpaceOnUse">
<stop stop-color="#7399EF"/>
<stop offset="0.14" stop-color="#8BB0F2"/>
<stop offset="0.32" stop-color="#A2C6F5"/>
<stop offset="0.51" stop-color="#B3D6F7"/>
<stop offset="0.73" stop-color="#BDDFF9"/>
<stop offset="1" stop-color="#C0E2F9"/>
</linearGradient>
</defs>
</svg>
