<svg width="498" height="382" viewBox="0 0 498 382" fill="none" xmlns="http://www.w3.org/2000/svg">
<mask id="mask0_829_800" style="mask-type:alpha" maskUnits="userSpaceOnUse" x="0" y="0" width="498" height="382">
<rect width="498" height="382" fill="#D9D9D9"/>
</mask>
<g mask="url(#mask0_829_800)">
<mask id="mask1_829_800" style="mask-type:alpha" maskUnits="userSpaceOnUse" x="0" y="19" width="520" height="340">
<path d="M520 150.001L483 205.001L292 329L8 359L0 314L8 205.001L122.004 97L271 19L420 36L520 150.001Z" fill="#D9D9D9"/>
</mask>
<g mask="url(#mask1_829_800)">
<path opacity="0.19" d="M737.35 201.525C688.723 222.178 537.264 298.663 443.117 130.13C366.708 -6.65722 199.095 27.3473 174.024 180.487C154.707 298.478 34.7354 372.45 -111.413 315.011C-197.597 281.141 -231.364 215.53 -236.59 204.721" stroke="#689AEA" stroke-width="17.0243" stroke-miterlimit="10"/>
<path opacity="0.19" d="M737.35 201.525C688.723 222.178 537.264 298.663 443.117 130.13C366.708 -6.65722 199.095 27.3473 174.024 180.487C154.707 298.478 34.7354 372.45 -111.413 315.011C-197.597 281.141 -231.364 215.53 -236.59 204.721" stroke="#689AEA" stroke-width="0.851217" stroke-miterlimit="10"/>
</g>
<g filter="url(#filter0_d_829_800)">
<path d="M430.73 51.6934H349.689C348.784 51.6934 348.051 52.4266 348.051 53.3311V174.971C348.051 175.875 348.784 176.608 349.689 176.608H430.73C431.634 176.608 432.368 175.875 432.368 174.971V53.3311C432.368 52.4266 431.634 51.6934 430.73 51.6934Z" fill="url(#paint0_linear_829_800)"/>
<path d="M425.152 169.393V58.9141L355.272 58.9141V169.393H425.152Z" fill="url(#paint1_linear_829_800)"/>
<path d="M444.019 187.542H430.691C430.204 187.542 429.809 187.937 429.809 188.424V190.302C429.809 190.79 430.204 191.185 430.691 191.185H444.019C444.506 191.185 444.901 190.79 444.901 190.302V188.424C444.901 187.937 444.506 187.542 444.019 187.542Z" fill="url(#paint2_linear_829_800)"/>
<path d="M444.019 187.542H430.691C430.204 187.542 429.809 187.937 429.809 188.424V190.302C429.809 190.79 430.204 191.185 430.691 191.185H444.019C444.506 191.185 444.901 190.79 444.901 190.302V188.424C444.901 187.937 444.506 187.542 444.019 187.542Z" fill="url(#paint3_linear_829_800)"/>
<path d="M449.574 57.0508H436.246C435.758 57.0508 435.363 57.4459 435.363 57.9332V59.811C435.363 60.2983 435.758 60.6934 436.246 60.6934H449.574C450.061 60.6934 450.456 60.2983 450.456 59.811V57.9332C450.456 57.4459 450.061 57.0508 449.574 57.0508Z" fill="url(#paint4_linear_829_800)"/>
<path d="M449.574 74.2051H436.246C435.758 74.2051 435.363 74.6001 435.363 75.0875V76.9653C435.363 77.4526 435.758 77.8477 436.246 77.8477H449.574C450.061 77.8477 450.456 77.4526 450.456 76.9653V75.0875C450.456 74.6001 450.061 74.2051 449.574 74.2051Z" fill="url(#paint5_linear_829_800)"/>
<path d="M475.396 51.6953H446.502C445.645 51.6953 444.949 52.3906 444.949 53.2484V81.7257C444.949 82.5835 445.645 83.2788 446.502 83.2788H475.396C476.254 83.2788 476.949 82.5835 476.949 81.7257V53.2484C476.949 52.3906 476.254 51.6953 475.396 51.6953Z" fill="white"/>
<path opacity="0.8" d="M475.396 51.6953H446.502C445.645 51.6953 444.949 52.3906 444.949 53.2484V81.7257C444.949 82.5835 445.645 83.2788 446.502 83.2788H475.396C476.254 83.2788 476.949 82.5835 476.949 81.7257V53.2484C476.949 52.3906 476.254 51.6953 475.396 51.6953Z" fill="url(#paint6_linear_829_800)"/>
<path d="M452.504 72.4419C452.504 73.3384 452.899 74.1361 453.52 74.6938V76.501C453.52 77.0587 453.979 77.5175 454.537 77.5175H455.554C456.111 77.5175 456.57 77.0587 456.57 76.501V75.4845H464.688V76.501C464.688 77.0587 465.147 77.5175 465.705 77.5175H466.721C467.279 77.5175 467.738 77.0587 467.738 76.501V74.6938C468.359 74.1361 468.754 73.3314 468.754 72.4419V62.2906C468.754 58.7397 465.119 58.2314 460.636 58.2314C456.154 58.2314 452.518 58.7397 452.518 62.2906V72.4419H452.504ZM456.055 73.4584C455.215 73.4584 454.53 72.7807 454.53 71.9336C454.53 71.0865 455.208 70.4088 456.055 70.4088C456.902 70.4088 457.58 71.0865 457.58 71.9336C457.58 72.7807 456.902 73.4584 456.055 73.4584ZM465.19 73.4584C464.349 73.4584 463.665 72.7807 463.665 71.9336C463.665 71.0865 464.342 70.4088 465.19 70.4088C466.037 70.4088 466.714 71.0865 466.714 71.9336C466.714 72.7807 466.037 73.4584 465.19 73.4584ZM466.714 67.3662H454.537V62.2906H466.714V67.3662Z" fill="white"/>
<path d="M344.409 45.4535H437.839V33.9962L415.715 26.7109H362.368L343.625 35.3021L344.409 45.4535Z" fill="url(#paint7_linear_829_800)"/>
<path d="M345.855 33.707H339.918V191.187H345.855V33.707Z" fill="url(#paint8_linear_829_800)"/>
<path d="M440.324 33.707H434.387V191.187H440.324V33.707Z" fill="url(#paint9_linear_829_800)"/>
<path d="M349.546 187.542H336.218C335.731 187.542 335.336 187.937 335.336 188.424V190.302C335.336 190.79 335.731 191.185 336.218 191.185H349.546C350.034 191.185 350.429 190.79 350.429 190.302V188.424C350.429 187.937 350.034 187.542 349.546 187.542Z" fill="url(#paint10_linear_829_800)"/>
<path d="M444.019 187.542H430.691C430.204 187.542 429.809 187.937 429.809 188.424V190.302C429.809 190.79 430.204 191.185 430.691 191.185H444.019C444.506 191.185 444.901 190.79 444.901 190.302V188.424C444.901 187.937 444.506 187.542 444.019 187.542Z" fill="url(#paint11_linear_829_800)"/>
<path d="M337.023 40.5041L334.094 35.8167C363.221 17.6107 417.888 17.3565 446.584 35.2943L443.655 39.9817C430.461 31.7364 410.793 27.1831 389.594 27.4867C368.939 27.7832 349.78 32.527 337.016 40.5041H337.023Z" fill="url(#paint12_linear_829_800)"/>
<path d="M377.637 104.138V121.327C377.637 123.164 379.125 124.652 380.962 124.652H398.151C399.987 124.652 401.476 123.164 401.476 121.327V104.138C401.476 102.302 399.987 100.813 398.151 100.813H380.962C379.125 100.813 377.637 102.302 377.637 104.138Z" fill="white"/>
<path opacity="0.8" d="M377.637 104.138V121.327C377.637 123.164 379.125 124.652 380.962 124.652H398.151C399.987 124.652 401.476 123.164 401.476 121.327V104.138C401.476 102.302 399.987 100.813 398.151 100.813H380.962C379.125 100.813 377.637 102.302 377.637 104.138Z" fill="url(#paint13_linear_829_800)"/>
<path d="M385.954 99.3238C385.509 99.3238 385.156 98.9638 385.156 98.5261V96.0907C385.156 95.6459 385.516 95.293 385.954 95.293C386.392 95.293 386.752 95.653 386.752 96.0907V98.5261C386.752 98.9709 386.392 99.3238 385.954 99.3238Z" fill="#041B5E"/>
<path d="M389.704 99.3238C389.259 99.3238 388.906 98.9638 388.906 98.5261V96.0907C388.906 95.6459 389.266 95.293 389.704 95.293C390.142 95.293 390.502 95.653 390.502 96.0907V98.5261C390.502 98.9709 390.142 99.3238 389.704 99.3238Z" fill="#041B5E"/>
<path d="M393.427 99.3238C392.982 99.3238 392.629 98.9638 392.629 98.5261V96.0907C392.629 95.6459 392.989 95.293 393.427 95.293C393.864 95.293 394.224 95.653 394.224 96.0907V98.5261C394.224 98.9709 393.864 99.3238 393.427 99.3238Z" fill="#041B5E"/>
<path d="M385.954 130.294C385.509 130.294 385.156 129.934 385.156 129.496V127.06C385.156 126.616 385.516 126.263 385.954 126.263C386.392 126.263 386.752 126.623 386.752 127.06V129.496C386.752 129.941 386.392 130.294 385.954 130.294Z" fill="#041B5E"/>
<path d="M389.704 130.294C389.259 130.294 388.906 129.934 388.906 129.496V127.06C388.906 126.616 389.266 126.263 389.704 126.263C390.142 126.263 390.502 126.623 390.502 127.06V129.496C390.502 129.941 390.142 130.294 389.704 130.294Z" fill="#041B5E"/>
<path d="M393.427 130.294C392.982 130.294 392.629 129.934 392.629 129.496V127.06C392.629 126.616 392.989 126.263 393.427 126.263C393.864 126.263 394.224 126.623 394.224 127.06V129.496C394.224 129.941 393.864 130.294 393.427 130.294Z" fill="#041B5E"/>
<path d="M406.405 109.854H403.97C403.525 109.854 403.172 109.494 403.172 109.056C403.172 108.619 403.532 108.259 403.97 108.259H406.405C406.85 108.259 407.203 108.619 407.203 109.056C407.203 109.494 406.843 109.854 406.405 109.854Z" fill="#041B5E"/>
<path d="M406.405 113.596H403.97C403.525 113.596 403.172 113.236 403.172 112.799C403.172 112.361 403.532 112.001 403.97 112.001H406.405C406.85 112.001 407.203 112.361 407.203 112.799C407.203 113.236 406.843 113.596 406.405 113.596Z" fill="#041B5E"/>
<path d="M406.405 117.336H403.97C403.525 117.336 403.172 116.976 403.172 116.538C403.172 116.1 403.532 115.74 403.97 115.74H406.405C406.85 115.74 407.203 116.1 407.203 116.538C407.203 116.976 406.843 117.336 406.405 117.336Z" fill="#041B5E"/>
<path d="M375.432 109.854H372.997C372.552 109.854 372.199 109.494 372.199 109.056C372.199 108.619 372.559 108.259 372.997 108.259H375.432C375.877 108.259 376.23 108.619 376.23 109.056C376.23 109.494 375.87 109.854 375.432 109.854Z" fill="#041B5E"/>
<path d="M375.432 113.596H372.997C372.552 113.596 372.199 113.236 372.199 112.799C372.199 112.361 372.559 112.001 372.997 112.001H375.432C375.877 112.001 376.23 112.361 376.23 112.799C376.23 113.236 375.87 113.596 375.432 113.596Z" fill="#041B5E"/>
<path d="M375.432 117.336H372.997C372.552 117.336 372.199 116.976 372.199 116.538C372.199 116.1 372.559 115.74 372.997 115.74H375.432C375.877 115.74 376.23 116.1 376.23 116.538C376.23 116.976 375.87 117.336 375.432 117.336Z" fill="#041B5E"/>
<path d="M391.951 108.346L388.153 106.157L385.047 104.364C384.744 104.188 384.355 104.406 384.355 104.759V120.699C384.355 121.052 384.737 121.278 385.047 121.095L388.153 119.302L391.951 117.113L395.446 115.094C395.636 114.988 395.749 114.784 395.749 114.572V110.887C395.749 110.668 395.636 110.47 395.446 110.365L391.951 108.346ZM388.153 114.918V110.534L391.951 112.722L388.153 114.911V114.918Z" fill="white"/>
</g>
<path d="M97.9688 270.735C105.37 270.735 108.608 275.211 108.608 281.606V295.33C108.608 302.063 112.6 304.724 118.763 304.724C126.132 304.724 131.739 304.837 131.739 304.837" stroke="url(#paint14_linear_829_800)" stroke-width="1.57475" stroke-linecap="round" stroke-linejoin="round"/>
<path d="M126.188 304.83C126.188 301.169 129.16 298.197 132.821 298.197H137.29V311.464H132.821C129.16 311.464 126.188 308.491 126.188 304.83Z" fill="url(#paint15_linear_829_800)"/>
<g filter="url(#filter1_d_829_800)">
<path d="M35.6863 209.213H88.5561C93.7531 209.213 97.9702 213.43 97.9702 218.627V350.623C97.9702 352.483 96.4608 353.999 94.5939 353.999H29.642C27.7817 353.999 26.2656 352.49 26.2656 350.623V218.627C26.2656 213.43 30.4828 209.213 35.6797 209.213H35.6863Z" fill="url(#paint16_linear_829_800)"/>
</g>
<path d="M62.0228 327.545C47.8024 327.545 36.2632 315.999 36.2632 301.785L36.2632 221.666C36.2632 220.13 37.5144 218.879 39.0503 218.879H85.0019C86.5378 218.879 87.7891 220.13 87.7891 221.666L87.7891 301.785C87.7891 316.006 76.2433 327.545 62.0295 327.545H62.0228Z" fill="url(#paint17_linear_829_800)"/>
<path d="M50.582 256.696V272.214C50.582 273.87 51.9247 275.213 53.581 275.213H69.099C70.7553 275.213 72.098 273.87 72.098 272.214V256.696C72.098 255.04 70.7553 253.697 69.099 253.697H53.581C51.9247 253.697 50.582 255.04 50.582 256.696Z" fill="white"/>
<path opacity="0.8" d="M50.582 256.696V272.214C50.582 273.87 51.9247 275.213 53.581 275.213H69.099C70.7553 275.213 72.098 273.87 72.098 272.214V256.696C72.098 255.04 70.7553 253.697 69.099 253.697H53.581C51.9247 253.697 50.582 255.04 50.582 256.696Z" fill="url(#paint18_linear_829_800)"/>
<path d="M58.081 252.352C57.6838 252.352 57.3594 252.028 57.3594 251.63V249.433C57.3594 249.035 57.6838 248.711 58.081 248.711C58.4782 248.711 58.8026 249.035 58.8026 249.433V251.63C58.8026 252.028 58.4782 252.352 58.081 252.352Z" fill="#041B5E"/>
<path d="M61.456 252.352C61.0587 252.352 60.7344 252.028 60.7344 251.63V249.433C60.7344 249.035 61.0587 248.711 61.456 248.711C61.8532 248.711 62.1776 249.035 62.1776 249.433V251.63C62.1776 252.028 61.8532 252.352 61.456 252.352Z" fill="#041B5E"/>
<path d="M64.831 252.352C64.4338 252.352 64.1094 252.028 64.1094 251.63V249.433C64.1094 249.035 64.4338 248.711 64.831 248.711C65.2282 248.711 65.5526 249.035 65.5526 249.433V251.63C65.5526 252.028 65.2282 252.352 64.831 252.352Z" fill="#041B5E"/>
<path d="M58.081 280.309C57.6838 280.309 57.3594 279.985 57.3594 279.588V277.39C57.3594 276.992 57.6838 276.668 58.081 276.668C58.4782 276.668 58.8026 276.992 58.8026 277.39V279.588C58.8026 279.985 58.4782 280.309 58.081 280.309Z" fill="#041B5E"/>
<path d="M61.456 280.309C61.0587 280.309 60.7344 279.985 60.7344 279.588V277.39C60.7344 276.992 61.0587 276.668 61.456 276.668C61.8532 276.668 62.1776 276.992 62.1776 277.39V279.588C62.1776 279.985 61.8532 280.309 61.456 280.309Z" fill="#041B5E"/>
<path d="M64.831 280.309C64.4338 280.309 64.1094 279.985 64.1094 279.588V277.39C64.1094 276.992 64.4338 276.668 64.831 276.668C65.2282 276.668 65.5526 276.992 65.5526 277.39V279.588C65.5526 279.985 65.2282 280.309 64.831 280.309Z" fill="#041B5E"/>
<path d="M76.5329 261.854H74.3349C73.9377 261.854 73.6133 261.53 73.6133 261.133C73.6133 260.736 73.9377 260.411 74.3349 260.411H76.5329C76.9301 260.411 77.2545 260.736 77.2545 261.133C77.2545 261.53 76.9301 261.854 76.5329 261.854Z" fill="#041B5E"/>
<path d="M76.5329 265.231H74.3349C73.9377 265.231 73.6133 264.907 73.6133 264.51C73.6133 264.112 73.9377 263.788 74.3349 263.788H76.5329C76.9301 263.788 77.2545 264.112 77.2545 264.51C77.2545 264.907 76.9301 265.231 76.5329 265.231Z" fill="#041B5E"/>
<path d="M76.5329 268.605H74.3349C73.9377 268.605 73.6133 268.281 73.6133 267.884C73.6133 267.487 73.9377 267.162 74.3349 267.162H76.5329C76.9301 267.162 77.2545 267.487 77.2545 267.884C77.2545 268.281 76.9301 268.605 76.5329 268.605Z" fill="#041B5E"/>
<path d="M48.5719 261.854H46.374C45.9768 261.854 45.6523 261.53 45.6523 261.133C45.6523 260.736 45.9768 260.411 46.374 260.411H48.5719C48.9691 260.411 49.2935 260.736 49.2935 261.133C49.2935 261.53 48.9691 261.854 48.5719 261.854Z" fill="#041B5E"/>
<path d="M48.5719 265.231H46.374C45.9768 265.231 45.6523 264.907 45.6523 264.51C45.6523 264.112 45.9768 263.788 46.374 263.788H48.5719C48.9691 263.788 49.2935 264.112 49.2935 264.51C49.2935 264.907 48.9691 265.231 48.5719 265.231Z" fill="#041B5E"/>
<path d="M48.5719 268.605H46.374C45.9768 268.605 45.6523 268.281 45.6523 267.884C45.6523 267.487 45.9768 267.162 46.374 267.162H48.5719C48.9691 267.162 49.2935 267.487 49.2935 267.884C49.2935 268.281 48.9691 268.605 48.5719 268.605Z" fill="#041B5E"/>
<path d="M63.4965 260.495L60.0672 258.516L57.2668 256.901C56.9888 256.742 56.6445 256.94 56.6445 257.258V271.644C56.6445 271.962 56.9888 272.16 57.2668 272.002L60.0672 270.386L63.4965 268.407L66.6478 266.586C66.8199 266.487 66.9192 266.308 66.9192 266.109V262.786C66.9192 262.587 66.8133 262.409 66.6478 262.309L63.4965 260.489V260.495ZM60.0672 266.427V262.468L63.4965 264.448L60.0672 266.427Z" fill="white"/>
<path d="M156.825 325.48H140.406C138.717 325.48 137.348 326.85 137.348 328.539V350.942C137.348 352.631 138.717 354.001 140.406 354.001H156.825C158.514 354.001 159.883 352.631 159.883 350.942V328.539C159.883 326.85 158.514 325.48 156.825 325.48Z" fill="url(#paint19_linear_829_800)"/>
<path d="M280.079 325.48H263.66C261.971 325.48 260.602 326.85 260.602 328.539V350.942C260.602 352.631 261.971 354.001 263.66 354.001H280.079C281.768 354.001 283.137 352.631 283.137 350.942V328.539C283.137 326.85 281.768 325.48 280.079 325.48Z" fill="url(#paint20_linear_829_800)"/>
<path d="M266.971 286.044H153.512C144.588 286.044 137.352 294.141 137.352 298.371V331.585C137.352 333.856 139.192 335.696 141.463 335.696H279.02C281.29 335.696 283.131 333.856 283.131 331.585V298.371C283.131 291.678 275.895 286.044 266.971 286.044Z" fill="white"/>
<path opacity="0.7" d="M266.971 286.044H153.512C144.588 286.044 137.352 294.141 137.352 298.371V331.585C137.352 333.856 139.192 335.696 141.463 335.696H279.02C281.29 335.696 283.131 333.856 283.131 331.585V298.371C283.131 291.678 275.895 286.044 266.971 286.044Z" fill="url(#paint21_linear_829_800)"/>
<path d="M153.51 286.036H266.969C267.512 286.036 268.041 286.056 268.571 286.103L248.67 258.463C246.651 255.656 243.407 253.994 239.951 253.994H180.534C177.078 253.994 173.834 255.656 171.815 258.463L151.895 286.129C152.424 286.07 152.967 286.036 153.51 286.036Z" fill="url(#paint22_linear_829_800)"/>
<path d="M162.822 298.205H151.502C149.758 298.205 148.344 299.619 148.344 301.363V301.681C148.344 303.425 149.758 304.839 151.502 304.839H162.822C164.566 304.839 165.98 303.425 165.98 301.681V301.363C165.98 299.619 164.566 298.205 162.822 298.205Z" fill="url(#paint23_linear_829_800)"/>
<path d="M268.705 298.205H257.384C255.64 298.205 254.227 299.619 254.227 301.363V301.681C254.227 303.425 255.64 304.839 257.384 304.839H268.705C270.449 304.839 271.863 303.425 271.863 301.681V301.363C271.863 299.619 270.449 298.205 268.705 298.205Z" fill="url(#paint24_linear_829_800)"/>
<path d="M238.711 298.205H182.18C180.048 298.205 178.32 299.932 178.32 302.061C178.32 304.191 180.048 305.918 182.18 305.918H238.711C240.842 305.918 242.57 304.191 242.57 302.061C242.57 299.932 240.842 298.205 238.711 298.205Z" fill="url(#paint25_linear_829_800)"/>
<path d="M137.348 325.48V331.578C137.348 333.849 139.188 335.689 141.459 335.689H279.016C281.286 335.689 283.127 333.849 283.127 331.578V325.48H137.348Z" fill="url(#paint26_linear_829_800)"/>
<path d="M148.038 285.625H138.107C135.982 285.625 134.254 283.897 134.254 281.772V279.594C134.254 277.469 135.982 275.741 138.107 275.741H145.86C149.19 275.741 151.891 278.442 151.891 281.772C151.891 283.897 150.163 285.625 148.038 285.625Z" fill="white"/>
<path d="M274.375 275.74H282.127C284.252 275.74 285.98 277.468 285.98 279.593V281.771C285.98 283.896 284.252 285.624 282.127 285.624H272.197C270.072 285.624 268.344 283.896 268.344 281.771C268.344 278.441 271.045 275.74 274.375 275.74Z" fill="white"/>
<path opacity="0.7" d="M148.038 285.625H138.107C135.982 285.625 134.254 283.897 134.254 281.772V279.594C134.254 277.469 135.982 275.741 138.107 275.741H145.86C149.19 275.741 151.891 278.442 151.891 281.772C151.891 283.897 150.163 285.625 148.038 285.625Z" fill="url(#paint27_linear_829_800)"/>
<path opacity="0.7" d="M274.375 275.74H282.127C284.252 275.74 285.98 277.468 285.98 279.593V281.771C285.98 283.896 284.252 285.624 282.127 285.624H272.197C270.072 285.624 268.344 283.896 268.344 281.771C268.344 278.441 271.045 275.74 274.375 275.74Z" fill="url(#paint28_linear_829_800)"/>
<path d="M301.593 216.556C301.729 216.52 301.811 216.493 301.811 216.493C301.811 216.493 301.72 214.74 301.865 211.998C302.011 209.256 296.953 212.098 296.953 212.098C296.953 212.098 297.089 214.214 296.717 215.885C296.698 215.948 296.68 216.012 296.662 216.075C296.617 216.257 296.571 216.438 296.508 216.602C296.49 216.656 296.49 216.702 296.481 216.747C296.235 217.746 296.263 218.027 296.263 218.027L301.947 217.891L301.584 216.556H301.593Z" fill="url(#paint29_linear_829_800)"/>
<path d="M304.528 222.286L295.947 222.095C295.947 222.095 295.448 221.877 295.375 220.96C295.303 220.034 296.202 216.411 296.202 216.411C296.202 216.411 296.71 216.12 296.737 217.483C296.765 218.572 297.464 217.483 298.254 216.13C298.681 215.412 300.851 215.349 300.851 215.349L301.877 215.912L302.803 217.982C304.211 219.081 305.373 221.732 304.519 222.295L304.528 222.286Z" fill="url(#paint30_linear_829_800)"/>
<path d="M328.731 219.408C328.731 219.408 325.58 217.156 324.853 214.777C324.799 214.604 324.726 214.468 324.644 214.359C324.363 212.951 324.218 211.608 324.218 211.608C324.218 211.608 318.924 208.783 319.296 211.508C319.623 213.878 320.131 216.411 319.796 217.101L319.904 217.119L319.841 217.546L328.74 219.408H328.731Z" fill="url(#paint31_linear_829_800)"/>
<path d="M332.566 222.187L319.718 221.996C319.718 221.996 319.218 221.778 319.145 220.861C319.082 220.062 319.663 217.238 319.817 216.494C319.836 216.385 319.954 216.33 320.054 216.366C320.326 216.466 320.816 216.739 321.207 217.374C321.779 218.301 323.195 216.802 323.486 216.021C323.767 215.24 324.957 215.304 324.957 215.304L330.596 218.936L331.486 219.136C332.112 219.281 332.684 219.653 332.993 220.216C333.293 220.752 333.42 221.615 332.566 222.187Z" fill="url(#paint32_linear_829_800)"/>
<path d="M313.952 142.405L297.107 142.886L296.554 144.175C294.656 146.908 290.252 154.155 290.806 161.755C291.895 176.638 295.509 213.132 295.509 213.132L303.073 213.041L306.587 166.885L312.544 184.447C312.944 196.188 317.956 213.613 317.956 213.613L325.475 212.56C327.59 161.292 313.952 142.396 313.952 142.396V142.405Z" fill="white"/>
<path opacity="0.8" d="M313.949 142.405L314.04 140.435L297.241 140.725L297.096 142.895L296.542 144.185C294.644 146.918 290.24 154.164 290.794 161.764C291.884 176.647 295.498 213.141 295.498 213.141L303.062 213.051L306.576 166.895L312.532 184.456C312.932 196.197 317.944 213.623 317.944 213.623L325.463 212.569C327.579 161.301 313.94 142.405 313.94 142.405H313.949Z" fill="url(#paint33_linear_829_800)"/>
<path d="M310.769 105.132C310.769 105.132 311.986 100.528 309.825 98.6393C307.682 96.7687 305.484 96.6416 305.484 96.6416L310.769 105.132Z" fill="url(#paint34_linear_829_800)"/>
<path d="M327.394 120.678C327.394 120.678 326.268 117.645 326.077 117.1C325.886 116.555 325.877 115.865 325.877 115.865C325.95 114.966 326.086 114.04 325.75 113.322C325.75 113.322 326.867 113.232 326.894 114.648C326.912 115.366 327.63 116.8 327.63 116.8C327.63 116.8 328.165 117.254 328.229 116.8C328.238 116.719 328.955 121.023 328.955 121.023C328.32 121.368 327.394 120.687 327.394 120.687V120.678Z" fill="url(#paint35_linear_829_800)"/>
<path d="M329.393 121.285C329.747 121.058 330.492 120.505 330.764 119.533C331.227 117.871 331.835 116.101 331.835 116.101C331.835 116.101 332.698 112.704 332.226 112.269C331.754 111.833 331.663 112.595 331.663 112.595C331.663 112.595 331.2 115.274 330.9 115.365C330.791 115.401 330.955 115.338 330.955 115.338C330.955 115.338 331.454 112.287 330.837 111.206C330.837 111.206 330.237 110.652 330.255 111.715C330.283 112.786 329.947 115.138 329.947 115.138L329.811 115.093C329.811 115.093 330.265 110.97 329.62 110.489C328.966 110.008 328.921 111.47 328.921 111.47C328.921 111.47 329.102 113.812 328.857 114.884L328.784 114.956C328.784 114.956 328.784 111.697 328.385 111.152C327.985 110.607 327.804 110.716 327.804 111.124C327.804 111.533 327.777 114.657 327.568 115.129C327.468 115.356 326.896 116.373 326.805 116.782C326.669 117.372 326.887 118.743 327.014 118.961C327.313 119.469 327.722 120.541 327.958 120.777C328.031 120.85 327.777 120.695 327.813 120.759C327.967 121.013 327.767 120.949 328.022 121.022C328.022 121.022 329.148 121.403 329.375 121.258L329.393 121.285Z" fill="url(#paint36_linear_829_800)"/>
<path d="M309.85 105.503C309.305 104.558 311.021 107.773 309.405 108.372C306.853 109.307 304.719 111.169 304.647 113.076C304.519 116.263 302.304 115.609 300.052 119.768C297.074 125.271 311.502 127.105 313.327 119.405C313.527 114.892 311.638 109.852 309.85 105.503Z" fill="url(#paint37_linear_829_800)"/>
<path d="M308.295 108.892C308.368 108.947 306.987 117.791 306.987 117.791C303.746 117.328 300.731 116.71 299.859 114.676C302.929 111.426 303.41 106.513 303.392 106.486C304.045 104.615 305.362 107.966 306.879 109.246L308.304 108.892H308.295Z" fill="url(#paint38_linear_829_800)"/>
<path fill-rule="evenodd" clip-rule="evenodd" d="M317.107 140.533L317.12 140.562C317.12 140.562 317.123 140.558 317.127 140.55L317.829 141.154C318.546 141.78 319.572 141.935 320.435 141.535C321.416 141.081 322.478 140.4 322.832 140.064C323.377 139.556 324.049 138.766 324.775 137.494C327.899 132.073 330.523 121.032 330.523 121.032V121.023L326.946 120.16L320.719 130.044C319.893 126.147 318.794 121.838 317.574 119.369C314.959 114.075 309.102 117.071 309.102 117.071C306.675 117.928 307.632 119.722 308.579 121.498C308.596 121.53 308.613 121.562 308.63 121.593C309.747 123.709 312.38 129.375 314.214 133.38L314.16 133.707L317.057 140.418L317.048 140.482L317.107 140.533Z" fill="url(#paint39_linear_829_800)"/>
<path d="M315.741 124.693C312.971 120.216 313.716 116.375 313.716 116.375L307.477 114.704C307.432 117.347 302.029 116.702 299.805 114.704L293.875 116.865C293.875 116.865 294.057 123.984 295.155 132.311C295.41 134.781 295.918 138.595 296.563 140.729L300.949 140.692V140.674L314.242 140.574L314.451 131.93C314.451 131.93 318.501 129.16 315.732 124.683L315.741 124.693Z" fill="url(#paint40_linear_829_800)"/>
<path d="M297.012 117.39C297.012 117.39 293.198 114.738 290.374 119.923C284.527 130.638 284.009 138.42 284 140.617C284 140.953 284.291 141.217 284.627 141.18L289.103 140.681L297.257 127.269C297.257 127.269 301.335 120.559 297.021 117.39H297.012Z" fill="url(#paint41_linear_829_800)"/>
<path d="M313.947 142.405L297.094 142.895L297.239 140.725L314.038 140.435L313.947 142.405Z" fill="url(#paint42_linear_829_800)"/>
<path d="M312.154 104.895L310.692 103.206C310.647 103.152 310.62 103.079 310.611 103.007C310.42 100.183 308.44 98.6843 308.44 98.6843C307.887 98.2575 307.351 97.9579 307.115 97.8398L306.942 97.9034C305.744 100.845 305.226 104.814 305.226 104.814C305.226 104.814 304.5 102.925 303.246 103.606C302.348 104.096 302.193 105.676 303.156 106.902C303.918 107.874 304.836 107.347 304.836 107.347C304.836 107.347 305.371 109.426 306.552 109.753C306.96 109.871 308.631 110.026 308.631 110.026C309.376 110.126 310.166 110.189 310.901 110.162C310.901 110.162 312.518 110.089 311.691 108.4L312.136 108.001C312.136 108.001 312.272 107.61 311.373 107.365C311.373 107.365 312.336 107.011 312.091 106.557L311.728 106.085C311.646 105.976 311.664 105.822 311.773 105.74L312.154 105.431C312.154 105.431 312.318 105.131 312.182 104.886L312.154 104.895Z" fill="url(#paint43_linear_829_800)"/>
<path d="M305.209 104.687C305.426 102.272 308.577 100.746 308.114 98.131C308.114 98.131 307.915 97.0504 305.581 97.2774C303.247 97.5044 305.209 104.687 305.209 104.687Z" fill="url(#paint44_linear_829_800)"/>
<path d="M291.237 163.28L294.115 166.652C294.256 166.819 294.506 166.838 294.672 166.697L302.292 160.195C302.458 160.053 302.478 159.804 302.337 159.638L299.459 156.265C299.317 156.099 299.068 156.079 298.902 156.221L291.281 162.722C291.115 162.864 291.095 163.114 291.237 163.28Z" fill="url(#paint45_linear_829_800)"/>
<path d="M293.973 155.4C293.973 155.4 296.48 157.452 296.916 157.824C297.351 158.197 297.715 158.796 297.715 158.796C298.105 159.613 298.459 160.476 299.104 160.921C299.104 160.921 298.187 161.556 297.451 160.349C297.079 159.74 295.726 158.859 295.726 158.859C295.726 158.859 295.036 158.741 295.208 159.168C295.236 159.241 292.457 155.881 292.457 155.881C292.838 155.264 293.973 155.391 293.973 155.391V155.4Z" fill="url(#paint46_linear_829_800)"/>
<path d="M291.934 155.882C291.743 156.254 291.371 157.108 291.634 158.079C292.07 159.75 292.433 161.584 292.433 161.584C292.433 161.584 293.396 164.953 294.022 165.099C294.649 165.235 294.34 164.536 294.34 164.536C294.34 164.536 293.396 161.993 293.605 161.766C293.677 161.684 293.568 161.811 293.568 161.811C293.568 161.811 294.667 164.699 295.748 165.326C295.748 165.326 296.547 165.507 295.993 164.599C295.439 163.691 294.54 161.485 294.54 161.485L294.676 161.457C294.676 161.457 296.356 165.253 297.155 165.335C297.954 165.425 297.264 164.136 297.264 164.136C297.264 164.136 295.929 162.202 295.602 161.149L295.629 161.049C295.629 161.049 297.264 163.864 297.881 164.136C298.499 164.408 298.608 164.218 298.39 163.864C298.181 163.509 296.637 160.794 296.583 160.286C296.556 160.041 296.537 158.869 296.41 158.47C296.229 157.889 295.357 156.817 295.13 156.69C294.622 156.4 293.723 155.673 293.396 155.591C293.296 155.564 293.595 155.573 293.532 155.537C293.269 155.392 293.477 155.346 293.214 155.419C293.214 155.419 292.043 155.655 291.925 155.9L291.934 155.882Z" fill="url(#paint47_linear_829_800)"/>
<path d="M294.314 155.064C294.314 155.064 293.406 145.975 290.718 140.744C288.03 135.514 287.667 135.859 287.667 135.859L284.371 139.655C283.935 140.163 283.926 140.817 284.162 141.444L284.38 142.161C285.47 145.73 286.886 149.189 288.639 152.494L291.063 157.089L294.314 155.064Z" fill="url(#paint48_linear_829_800)"/>
<path d="M306.056 96.7318C303.133 95.9327 300.082 96.7954 298.456 99.3016C296.104 102.934 293.099 112.241 292.354 117.372V117.408C292.354 117.408 292.336 117.499 292.336 117.544C292.409 117.49 292.481 117.453 292.545 117.408H303.169C301.589 115.183 303.323 107.183 303.323 107.183H303.305C303.305 107.183 303.314 107.12 303.323 107.102C303.269 107.047 303.205 106.993 303.151 106.92C302.188 105.685 302.333 104.105 303.242 103.624C304.495 102.943 305.221 104.832 305.221 104.832C305.221 104.832 305.739 100.863 306.937 97.9213L307.11 97.8578C307.346 97.9758 307.882 98.2755 308.436 98.7023L308.499 98.7477C308.118 97.7851 307.191 97.0496 306.066 96.7409L306.056 96.7318Z" fill="url(#paint49_linear_829_800)"/>
<path d="M372.508 148.051C371.996 147.444 371.102 144.849 370.529 143.088C370.503 143.097 370.486 143.114 370.46 143.123C370.451 143.123 370.434 143.123 370.417 143.123C370.382 143.123 370.338 143.131 370.278 143.14C370.26 143.14 370.234 143.14 370.217 143.14C370.165 143.14 370.104 143.14 370.035 143.14C370 143.14 369.974 143.14 369.939 143.131C369.879 143.131 369.809 143.114 369.74 143.097C369.705 143.088 369.662 143.071 369.627 143.062C369.566 143.045 369.497 143.01 369.436 142.975C369.393 142.949 369.349 142.932 369.315 142.906C369.254 142.862 369.202 142.81 369.15 142.758C369.106 142.724 369.072 142.689 369.028 142.637C368.976 142.576 368.933 142.489 368.889 142.411C368.863 142.359 368.829 142.307 368.803 142.246C368.742 142.09 368.69 141.908 368.655 141.7C368.638 141.578 368.621 141.474 368.603 141.379C368.968 141.257 369.367 140.988 369.488 140.398C369.714 139.253 369.41 138.064 368.291 138.116C366.868 138.177 367.015 139.834 367.015 139.834C367.015 139.834 366.078 141.084 366.174 139.4C366.252 137.96 365.098 136.676 365.098 136.676C365.098 136.676 365.462 135.999 365.228 135.036C364.985 134.073 362.131 133.839 362.131 133.839C361.888 134.264 361.402 135.14 361.046 136.008C360.786 136.641 360.794 137.344 360.985 138.004C361.055 138.229 360.708 138.437 360.586 138.663L359.467 140.407C359.467 140.407 359.319 141.014 359.797 140.988C360.447 140.954 360.421 141.249 360.421 141.249C360.421 141.249 360.499 141.769 360.282 142.012C359.892 142.463 360.525 142.75 360.76 142.793C360.985 142.836 360.491 142.819 360.404 143.279C360.317 143.739 360.699 143.782 360.699 143.782C361.159 144.129 360.161 145.318 361.471 145.734C362.382 146.029 365.966 145.63 366.894 144.164L367.267 143.227C367.267 143.227 367.276 143.296 367.267 143.322C367.267 143.374 367.25 143.418 367.241 143.47C367.224 143.565 367.215 143.661 367.18 143.756C367.163 143.808 367.137 143.851 367.119 143.904C367.085 143.99 367.041 144.077 366.989 144.164C366.963 144.207 366.929 144.242 366.903 144.285C366.443 144.901 365.584 145.396 364.482 145.734L365.072 148.19L363.658 149.925C363.658 149.925 367.762 155.114 371.128 153.838C374.494 152.554 373.167 148.823 372.525 148.06L372.508 148.051Z" fill="url(#paint50_linear_829_800)"/>
<path d="M379.724 245.149L379.845 249.895L375.325 251.118L374.926 244.819L379.724 245.149Z" fill="url(#paint51_linear_829_800)"/>
<path d="M356.221 245.149L355.727 250.988L360.768 250.546L361.019 244.819L356.221 245.149Z" fill="url(#paint52_linear_829_800)"/>
<path d="M381.174 191.156L368.038 191.712L354.902 191.156C354.216 206.548 354.312 225.177 355.483 248.334H361.53L368.029 202.392L374.528 248.334H380.575C381.911 231.693 381.92 212.24 381.157 191.156H381.174Z" fill="url(#paint53_linear_829_800)"/>
<path d="M360.907 250.199C360.907 250.199 361.931 253.123 361.8 254.737H352.517C352.517 254.737 352.196 253.296 353.714 251.891L355.015 249.999C355.015 249.999 355.38 248.394 356.811 248.672C359.649 249.236 358.764 249.939 360.915 250.19L360.907 250.199Z" fill="url(#paint54_linear_829_800)"/>
<path d="M375.194 250.199C375.194 250.199 374.17 253.123 374.3 254.737H383.584C383.584 254.737 383.905 253.296 382.387 251.891L381.085 249.999C381.085 249.999 380.721 248.394 379.289 248.672C376.452 249.236 377.337 249.939 375.185 250.19L375.194 250.199Z" fill="url(#paint55_linear_829_800)"/>
<path d="M350.023 196.96C350.552 194.253 352.088 186.097 352.027 183.347C351.958 180.033 352.01 179.208 352.01 179.208C352.01 179.208 347.906 178.592 346.153 179.391C345.685 179.599 345.407 182.106 345.442 183.642L346.639 197.09C346.231 197.854 344.722 200.778 344.852 201.212C344.999 201.715 345.494 201.732 345.494 201.732C345.494 201.732 345.346 202.366 345.65 202.574C345.962 202.782 346.518 202.661 346.518 202.661C346.518 202.661 346.439 203.433 346.951 203.554C347.463 203.685 347.88 203.433 347.88 203.433C347.88 203.433 347.984 204.014 348.47 204.136C348.956 204.249 349.372 203.754 349.372 203.754C349.372 203.754 349.667 204.292 350.136 204.292C350.604 204.292 350.656 203.624 350.656 203.624C350.656 203.624 350.734 200.865 350.526 199.164C350.431 198.401 350.222 197.62 350.032 196.969L350.023 196.96Z" fill="url(#paint56_linear_829_800)"/>
<path d="M367.382 131.496C364.988 131.331 363.539 131.817 362.324 131.028C361.89 130.75 361.179 132.633 362.124 133.787C362.133 133.804 362.15 133.821 362.159 133.839C362.506 133.873 364.988 134.134 365.213 135.027C365.456 135.991 365.083 136.667 365.083 136.667C365.083 136.667 365.69 137.353 365.994 138.272C366.306 141.517 363.981 141.613 363.443 141.943C362.888 142.281 360.996 140.797 360.389 141.196C359.782 141.604 359.816 142.281 360.094 142.333C360.346 142.376 360.736 142.402 361.161 142.42C361.387 142.42 361.916 142.628 361.959 142.845C362.046 143.27 361.638 143.6 360.806 143.973C360.189 144.251 361.048 145.89 361.048 145.89C361.048 145.89 361.491 146.324 363.174 146.038C365.742 145.604 367.564 144.45 367.217 142.871C366.966 141.717 367.001 140.138 367.035 139.383C367.096 138.888 367.348 138.151 368.285 138.108C369.404 138.056 369.708 139.244 369.482 140.389C369.369 140.979 368.961 141.24 368.597 141.37C368.614 141.465 368.632 141.569 368.649 141.691C368.875 143.296 370.167 143.175 370.445 143.131C372.571 142.446 373.117 140.103 373.404 137.908C373.855 134.498 370.801 131.73 367.374 131.505L367.382 131.496Z" fill="#E5DDD1"/>
<path opacity="0.85" d="M363.688 147.435L367.94 169.534L373.345 147.609C369.753 147.08 366.491 147.106 363.68 147.427L363.688 147.435Z" fill="url(#paint57_linear_829_800)"/>
<path d="M345.598 195.788L350.926 196.413C350.926 196.413 352.878 187.78 353.754 178.739L361.094 161.846C361.094 161.846 362.127 153.759 357.685 151.018C353.242 148.276 351.012 152.189 351.012 152.189C351.012 152.189 345.277 161.1 344.262 173.845C343.247 186.591 345.598 195.788 345.598 195.788Z" fill="white"/>
<path d="M352.625 150.673C352.625 150.673 365.995 142.855 383.869 150.673L381.379 178.298L381.925 191.825L354.595 193.335L355.089 179.21L352.625 150.673Z" fill="white"/>
<path d="M383.869 150.671C383.869 150.671 392.988 156.935 396.762 173.065L389.474 183.216C389.474 183.216 384.415 169.785 381.682 166.792C378.949 163.798 383.869 150.671 383.869 150.671Z" fill="white"/>
<path d="M381.052 190.314C381.052 190.314 386.709 173.759 387.49 170.896C388.27 168.033 396.704 172.658 396.704 172.658C396.704 172.658 397.025 186.722 381.078 197.793L381.043 190.314H381.052Z" fill="white"/>
<path opacity="0.7" d="M396.762 173.065C396.744 172.987 396.718 172.917 396.701 172.848C396.701 172.726 396.701 172.657 396.701 172.657L396.64 172.622C392.805 156.831 383.869 150.671 383.869 150.671C383.869 150.671 378.949 163.798 381.682 166.792C382.923 168.154 384.649 171.677 386.159 175.112C384.242 180.978 381.049 190.314 381.049 190.314L381.083 197.793C395.243 187.954 396.571 175.772 396.692 173.169L396.762 173.074V173.065Z" fill="url(#paint58_linear_829_800)"/>
<path opacity="0.7" d="M352.627 150.671C352.627 150.671 352.931 150.497 353.503 150.22C351.846 150.732 351.005 152.181 351.005 152.181C351.005 152.181 345.269 161.091 344.254 173.837C343.239 186.583 345.591 195.78 345.591 195.78L350.918 196.404C350.918 196.404 352.87 187.771 353.746 178.731L354.831 176.232L352.618 150.671H352.627Z" fill="url(#paint59_linear_829_800)"/>
<path opacity="0.7" d="M381.061 191.867V190.306C381.061 190.306 381.338 189.473 381.781 188.163L381.382 178.289L382.345 167.643C382.119 167.313 381.894 167.009 381.694 166.784C378.961 163.79 383.881 150.663 383.881 150.663C366.007 142.845 352.637 150.663 352.637 150.663L355.101 179.2L354.606 193.325L381.061 191.859V191.867Z" fill="url(#paint60_linear_829_800)"/>
</g>
<defs>
<filter id="filter0_d_829_800" x="310.094" y="-2" width="190.855" height="217.187" filterUnits="userSpaceOnUse" color-interpolation-filters="sRGB">
<feFlood flood-opacity="0" result="BackgroundImageFix"/>
<feColorMatrix in="SourceAlpha" type="matrix" values="0 0 0 0 0 0 0 0 0 0 0 0 0 0 0 0 0 0 127 0" result="hardAlpha"/>
<feOffset/>
<feGaussianBlur stdDeviation="12"/>
<feComposite in2="hardAlpha" operator="out"/>
<feColorMatrix type="matrix" values="0 0 0 0 0.45098 0 0 0 0 0.603922 0 0 0 0 0.941176 0 0 0 0.46 0"/>
<feBlend mode="normal" in2="BackgroundImageFix" result="effect1_dropShadow_829_800"/>
<feBlend mode="normal" in="SourceGraphic" in2="effect1_dropShadow_829_800" result="shape"/>
</filter>
<filter id="filter1_d_829_800" x="2.26562" y="185.213" width="119.703" height="192.786" filterUnits="userSpaceOnUse" color-interpolation-filters="sRGB">
<feFlood flood-opacity="0" result="BackgroundImageFix"/>
<feColorMatrix in="SourceAlpha" type="matrix" values="0 0 0 0 0 0 0 0 0 0 0 0 0 0 0 0 0 0 127 0" result="hardAlpha"/>
<feOffset/>
<feGaussianBlur stdDeviation="12"/>
<feComposite in2="hardAlpha" operator="out"/>
<feColorMatrix type="matrix" values="0 0 0 0 0.45098 0 0 0 0 0.603922 0 0 0 0 0.941176 0 0 0 0.46 0"/>
<feBlend mode="normal" in2="BackgroundImageFix" result="effect1_dropShadow_829_800"/>
<feBlend mode="normal" in="SourceGraphic" in2="effect1_dropShadow_829_800" result="shape"/>
</filter>
<linearGradient id="paint0_linear_829_800" x1="348.051" y1="114.154" x2="432.368" y2="114.154" gradientUnits="userSpaceOnUse">
<stop stop-color="#444B8B"/>
<stop offset="0.99" stop-color="#26264F"/>
</linearGradient>
<linearGradient id="paint1_linear_829_800" x1="358.159" y1="62.9096" x2="421.919" y2="164.854" gradientUnits="userSpaceOnUse">
<stop stop-color="#7399EF"/>
<stop offset="0.09" stop-color="#81A6F0"/>
<stop offset="0.32" stop-color="#9CC0F4"/>
<stop offset="0.54" stop-color="#B0D3F6"/>
<stop offset="0.77" stop-color="#BCDEF8"/>
<stop offset="1" stop-color="#C0E2F9"/>
</linearGradient>
<linearGradient id="paint2_linear_829_800" x1="429.809" y1="189.363" x2="444.901" y2="189.363" gradientUnits="userSpaceOnUse">
<stop stop-color="#444B8B"/>
<stop offset="0.99" stop-color="#26264F"/>
</linearGradient>
<linearGradient id="paint3_linear_829_800" x1="429.809" y1="189.363" x2="444.901" y2="189.363" gradientUnits="userSpaceOnUse">
<stop stop-color="#444B8B"/>
<stop offset="0.99" stop-color="#26264F"/>
</linearGradient>
<linearGradient id="paint4_linear_829_800" x1="435.363" y1="58.8721" x2="450.456" y2="58.8721" gradientUnits="userSpaceOnUse">
<stop stop-color="#444B8B"/>
<stop offset="0.99" stop-color="#26264F"/>
</linearGradient>
<linearGradient id="paint5_linear_829_800" x1="435.363" y1="76.0264" x2="450.456" y2="76.0264" gradientUnits="userSpaceOnUse">
<stop stop-color="#444B8B"/>
<stop offset="0.99" stop-color="#26264F"/>
</linearGradient>
<linearGradient id="paint6_linear_829_800" x1="444.949" y1="67.487" x2="476.949" y2="67.487" gradientUnits="userSpaceOnUse">
<stop stop-color="#4B0081"/>
<stop offset="0.1" stop-color="#4B0081"/>
<stop offset="0.9" stop-color="#0050EA"/>
<stop offset="1" stop-color="#0050EA"/>
</linearGradient>
<linearGradient id="paint7_linear_829_800" x1="390.732" y1="18.5503" x2="390.732" y2="46.6394" gradientUnits="userSpaceOnUse">
<stop stop-color="#444B8B"/>
<stop offset="0.99" stop-color="#26264F"/>
</linearGradient>
<linearGradient id="paint8_linear_829_800" x1="339.918" y1="112.447" x2="345.855" y2="112.447" gradientUnits="userSpaceOnUse">
<stop stop-color="#444B8B"/>
<stop offset="0.99" stop-color="#26264F"/>
</linearGradient>
<linearGradient id="paint9_linear_829_800" x1="434.387" y1="112.447" x2="440.324" y2="112.447" gradientUnits="userSpaceOnUse">
<stop stop-color="#444B8B"/>
<stop offset="0.99" stop-color="#26264F"/>
</linearGradient>
<linearGradient id="paint10_linear_829_800" x1="335.336" y1="189.363" x2="350.429" y2="189.363" gradientUnits="userSpaceOnUse">
<stop stop-color="#444B8B"/>
<stop offset="0.99" stop-color="#26264F"/>
</linearGradient>
<linearGradient id="paint11_linear_829_800" x1="429.809" y1="189.363" x2="444.901" y2="189.363" gradientUnits="userSpaceOnUse">
<stop stop-color="#444B8B"/>
<stop offset="0.99" stop-color="#26264F"/>
</linearGradient>
<linearGradient id="paint12_linear_829_800" x1="334.094" y1="31.2564" x2="446.584" y2="31.2564" gradientUnits="userSpaceOnUse">
<stop stop-color="#444B8B"/>
<stop offset="0.99" stop-color="#26264F"/>
</linearGradient>
<linearGradient id="paint13_linear_829_800" x1="389.56" y1="124.652" x2="389.56" y2="100.82" gradientUnits="userSpaceOnUse">
<stop stop-color="#4B0082"/>
<stop offset="0.1" stop-color="#4B0082"/>
<stop offset="0.9" stop-color="#0050EB"/>
<stop offset="1" stop-color="#0050EB"/>
</linearGradient>
<linearGradient id="paint14_linear_829_800" x1="96.744" y1="287.783" x2="132.964" y2="287.783" gradientUnits="userSpaceOnUse">
<stop stop-color="#444B8B"/>
<stop offset="1" stop-color="#26264F"/>
</linearGradient>
<linearGradient id="paint15_linear_829_800" x1="131.742" y1="298.203" x2="131.742" y2="311.464" gradientUnits="userSpaceOnUse">
<stop stop-color="#444B8B"/>
<stop offset="1" stop-color="#26264F"/>
</linearGradient>
<linearGradient id="paint16_linear_829_800" x1="26.2722" y1="281.606" x2="97.9702" y2="281.606" gradientUnits="userSpaceOnUse">
<stop stop-color="#444B8B"/>
<stop offset="1" stop-color="#26264F"/>
</linearGradient>
<linearGradient id="paint17_linear_829_800" x1="35.4952" y1="215.456" x2="93.7208" y2="323.407" gradientUnits="userSpaceOnUse">
<stop stop-color="#7399EF"/>
<stop offset="0.09" stop-color="#81A6F0"/>
<stop offset="0.32" stop-color="#9CC0F4"/>
<stop offset="0.54" stop-color="#B0D3F6"/>
<stop offset="0.77" stop-color="#BCDEF8"/>
<stop offset="1" stop-color="#C0E2F9"/>
</linearGradient>
<linearGradient id="paint18_linear_829_800" x1="61.34" y1="275.213" x2="61.34" y2="253.697" gradientUnits="userSpaceOnUse">
<stop stop-color="#4B0082"/>
<stop offset="0.1" stop-color="#4B0082"/>
<stop offset="0.9" stop-color="#0050EB"/>
<stop offset="1" stop-color="#0050EB"/>
</linearGradient>
<linearGradient id="paint19_linear_829_800" x1="137.348" y1="339.741" x2="159.883" y2="339.741" gradientUnits="userSpaceOnUse">
<stop stop-color="#444B8B"/>
<stop offset="1" stop-color="#26264F"/>
</linearGradient>
<linearGradient id="paint20_linear_829_800" x1="260.602" y1="339.741" x2="283.137" y2="339.741" gradientUnits="userSpaceOnUse">
<stop stop-color="#444B8B"/>
<stop offset="1" stop-color="#26264F"/>
</linearGradient>
<linearGradient id="paint21_linear_829_800" x1="114.002" y1="289.063" x2="284.819" y2="329.904" gradientUnits="userSpaceOnUse">
<stop stop-color="#0057D0"/>
<stop offset="0.1" stop-color="#0057D0"/>
<stop offset="0.39" stop-color="#0083E2"/>
<stop offset="0.73" stop-color="#00B2F7"/>
<stop offset="0.9" stop-color="#00C5FF"/>
<stop offset="1" stop-color="#00C5FF"/>
</linearGradient>
<linearGradient id="paint22_linear_829_800" x1="151.895" y1="270.062" x2="268.571" y2="270.062" gradientUnits="userSpaceOnUse">
<stop stop-color="#7399EF"/>
<stop offset="0.09" stop-color="#81A6F0"/>
<stop offset="0.32" stop-color="#9CC0F4"/>
<stop offset="0.54" stop-color="#B0D3F6"/>
<stop offset="0.77" stop-color="#BCDEF8"/>
<stop offset="1" stop-color="#C0E2F9"/>
</linearGradient>
<linearGradient id="paint23_linear_829_800" x1="148.344" y1="301.522" x2="165.98" y2="301.522" gradientUnits="userSpaceOnUse">
<stop stop-color="white"/>
<stop offset="0.35" stop-color="#FBFCFD"/>
<stop offset="0.62" stop-color="#F2F3F7"/>
<stop offset="0.87" stop-color="#E1E4EE"/>
<stop offset="1" stop-color="#D5D9E8"/>
</linearGradient>
<linearGradient id="paint24_linear_829_800" x1="254.227" y1="301.522" x2="271.863" y2="301.522" gradientUnits="userSpaceOnUse">
<stop stop-color="white"/>
<stop offset="0.35" stop-color="#FBFCFD"/>
<stop offset="0.62" stop-color="#F2F3F7"/>
<stop offset="0.87" stop-color="#E1E4EE"/>
<stop offset="1" stop-color="#D5D9E8"/>
</linearGradient>
<linearGradient id="paint25_linear_829_800" x1="178.32" y1="302.058" x2="242.57" y2="302.058" gradientUnits="userSpaceOnUse">
<stop stop-color="#26264F"/>
<stop offset="1" stop-color="#444B8B"/>
</linearGradient>
<linearGradient id="paint26_linear_829_800" x1="210.244" y1="325.07" x2="210.244" y2="333.782" gradientUnits="userSpaceOnUse">
<stop stop-color="#444B8B"/>
<stop offset="1" stop-color="#26264F"/>
</linearGradient>
<linearGradient id="paint27_linear_829_800" x1="151.891" y1="280.686" x2="134.254" y2="280.686" gradientUnits="userSpaceOnUse">
<stop stop-color="#0057D0"/>
<stop offset="0.1" stop-color="#0057D0"/>
<stop offset="0.39" stop-color="#0083E2"/>
<stop offset="0.73" stop-color="#00B2F7"/>
<stop offset="0.9" stop-color="#00C5FF"/>
<stop offset="1" stop-color="#00C5FF"/>
</linearGradient>
<linearGradient id="paint28_linear_829_800" x1="268.344" y1="280.686" x2="285.98" y2="280.686" gradientUnits="userSpaceOnUse">
<stop stop-color="#0057D0"/>
<stop offset="0.1" stop-color="#0057D0"/>
<stop offset="0.39" stop-color="#0083E2"/>
<stop offset="0.73" stop-color="#00B2F7"/>
<stop offset="0.9" stop-color="#00C5FF"/>
<stop offset="1" stop-color="#00C5FF"/>
</linearGradient>
<linearGradient id="paint29_linear_829_800" x1="296.263" y1="214.413" x2="301.956" y2="214.413" gradientUnits="userSpaceOnUse">
<stop stop-color="#E9B764"/>
<stop offset="1" stop-color="#D77A5C"/>
</linearGradient>
<linearGradient id="paint30_linear_829_800" x1="295.384" y1="218.808" x2="304.819" y2="218.808" gradientUnits="userSpaceOnUse">
<stop stop-color="#444B89"/>
<stop offset="0.27" stop-color="#3E437E"/>
<stop offset="0.75" stop-color="#2F3160"/>
<stop offset="1" stop-color="#26264F"/>
</linearGradient>
<linearGradient id="paint31_linear_829_800" x1="319.278" y1="214.867" x2="328.731" y2="214.867" gradientUnits="userSpaceOnUse">
<stop stop-color="#E9B764"/>
<stop offset="1" stop-color="#D77A5C"/>
</linearGradient>
<linearGradient id="paint32_linear_829_800" x1="319.145" y1="218.745" x2="333.22" y2="218.745" gradientUnits="userSpaceOnUse">
<stop stop-color="#444B89"/>
<stop offset="0.27" stop-color="#3E437E"/>
<stop offset="0.75" stop-color="#2F3160"/>
<stop offset="1" stop-color="#26264F"/>
</linearGradient>
<linearGradient id="paint33_linear_829_800" x1="290.739" y1="177.029" x2="325.699" y2="177.029" gradientUnits="userSpaceOnUse">
<stop stop-color="#9B0051"/>
<stop offset="0.1" stop-color="#9B0051"/>
<stop offset="0.91" stop-color="#301C8E"/>
<stop offset="1" stop-color="#301C8E"/>
</linearGradient>
<linearGradient id="paint34_linear_829_800" x1="305.484" y1="100.882" x2="311.114" y2="100.882" gradientUnits="userSpaceOnUse">
<stop stop-color="#331809"/>
<stop offset="0.1" stop-color="#331809"/>
<stop offset="0.19" stop-color="#3D1C08"/>
<stop offset="0.66" stop-color="#6C3406"/>
<stop offset="0.9" stop-color="#7F3D06"/>
<stop offset="1" stop-color="#7F3D06"/>
</linearGradient>
<linearGradient id="paint35_linear_829_800" x1="325.741" y1="117.218" x2="328.955" y2="117.218" gradientUnits="userSpaceOnUse">
<stop stop-color="#E9B764"/>
<stop offset="1" stop-color="#D77A5C"/>
</linearGradient>
<linearGradient id="paint36_linear_829_800" x1="326.769" y1="115.864" x2="332.362" y2="115.864" gradientUnits="userSpaceOnUse">
<stop stop-color="#E9B764"/>
<stop offset="1" stop-color="#D77A5C"/>
</linearGradient>
<linearGradient id="paint37_linear_829_800" x1="299.652" y1="114.937" x2="313.337" y2="114.937" gradientUnits="userSpaceOnUse">
<stop stop-color="#331809"/>
<stop offset="0.1" stop-color="#331809"/>
<stop offset="0.19" stop-color="#3D1C08"/>
<stop offset="0.66" stop-color="#6C3406"/>
<stop offset="0.9" stop-color="#7F3D06"/>
<stop offset="1" stop-color="#7F3D06"/>
</linearGradient>
<linearGradient id="paint38_linear_829_800" x1="299.859" y1="111.861" x2="308.304" y2="111.861" gradientUnits="userSpaceOnUse">
<stop stop-color="#E9B764"/>
<stop offset="1" stop-color="#D77A5C"/>
</linearGradient>
<linearGradient id="paint39_linear_829_800" x1="289.613" y1="138.804" x2="330.95" y2="137.784" gradientUnits="userSpaceOnUse">
<stop stop-color="white"/>
<stop offset="0.35" stop-color="#FBFCFD"/>
<stop offset="0.62" stop-color="#F2F3F7"/>
<stop offset="0.87" stop-color="#E1E4EE"/>
<stop offset="1" stop-color="#D5D9E8"/>
</linearGradient>
<linearGradient id="paint40_linear_829_800" x1="293.866" y1="127.716" x2="316.712" y2="127.716" gradientUnits="userSpaceOnUse">
<stop stop-color="white"/>
<stop offset="0.35" stop-color="#FBFCFD"/>
<stop offset="0.62" stop-color="#F2F3F7"/>
<stop offset="0.87" stop-color="#E1E4EE"/>
<stop offset="1" stop-color="#D5D9E8"/>
</linearGradient>
<linearGradient id="paint41_linear_829_800" x1="283.991" y1="128.94" x2="298.992" y2="128.94" gradientUnits="userSpaceOnUse">
<stop stop-color="white"/>
<stop offset="0.35" stop-color="#FBFCFD"/>
<stop offset="0.62" stop-color="#F2F3F7"/>
<stop offset="0.87" stop-color="#E1E4EE"/>
<stop offset="1" stop-color="#D5D9E8"/>
</linearGradient>
<linearGradient id="paint42_linear_829_800" x1="297.094" y1="141.67" x2="314.038" y2="141.67" gradientUnits="userSpaceOnUse">
<stop stop-color="white"/>
<stop offset="0.35" stop-color="#FBFCFD"/>
<stop offset="0.62" stop-color="#F2F3F7"/>
<stop offset="0.87" stop-color="#E1E4EE"/>
<stop offset="1" stop-color="#D5D9E8"/>
</linearGradient>
<linearGradient id="paint43_linear_829_800" x1="302.493" y1="104.005" x2="312.209" y2="104.005" gradientUnits="userSpaceOnUse">
<stop stop-color="#E9B764"/>
<stop offset="1" stop-color="#D77A5C"/>
</linearGradient>
<linearGradient id="paint44_linear_829_800" x1="304.437" y1="100.973" x2="308.16" y2="100.973" gradientUnits="userSpaceOnUse">
<stop stop-color="#331809"/>
<stop offset="0.1" stop-color="#331809"/>
<stop offset="0.19" stop-color="#3D1C08"/>
<stop offset="0.66" stop-color="#6C3406"/>
<stop offset="0.9" stop-color="#7F3D06"/>
<stop offset="1" stop-color="#7F3D06"/>
</linearGradient>
<linearGradient id="paint45_linear_829_800" x1="291.147" y1="161.427" x2="302.435" y2="161.427" gradientUnits="userSpaceOnUse">
<stop stop-color="#444B89"/>
<stop offset="0.27" stop-color="#3E437E"/>
<stop offset="0.75" stop-color="#2F3160"/>
<stop offset="1" stop-color="#26264F"/>
</linearGradient>
<linearGradient id="paint46_linear_829_800" x1="292.457" y1="158.242" x2="299.095" y2="158.242" gradientUnits="userSpaceOnUse">
<stop stop-color="#E9B764"/>
<stop offset="1" stop-color="#D77A5C"/>
</linearGradient>
<linearGradient id="paint47_linear_829_800" x1="291.543" y1="160.35" x2="298.499" y2="160.35" gradientUnits="userSpaceOnUse">
<stop stop-color="#E9B764"/>
<stop offset="1" stop-color="#D77A5C"/>
</linearGradient>
<linearGradient id="paint48_linear_829_800" x1="284.008" y1="146.465" x2="294.314" y2="146.465" gradientUnits="userSpaceOnUse">
<stop stop-color="white"/>
<stop offset="0.35" stop-color="#FBFCFD"/>
<stop offset="0.62" stop-color="#F2F3F7"/>
<stop offset="0.87" stop-color="#E1E4EE"/>
<stop offset="1" stop-color="#D5D9E8"/>
</linearGradient>
<linearGradient id="paint49_linear_829_800" x1="292.327" y1="106.993" x2="308.49" y2="106.993" gradientUnits="userSpaceOnUse">
<stop stop-color="#331809"/>
<stop offset="0.1" stop-color="#331809"/>
<stop offset="0.19" stop-color="#3D1C08"/>
<stop offset="0.66" stop-color="#6C3406"/>
<stop offset="0.9" stop-color="#7F3D06"/>
<stop offset="1" stop-color="#7F3D06"/>
</linearGradient>
<linearGradient id="paint50_linear_829_800" x1="359.432" y1="143.93" x2="373.306" y2="143.93" gradientUnits="userSpaceOnUse">
<stop stop-color="#F8C9C6"/>
<stop offset="1" stop-color="#F26F56"/>
</linearGradient>
<linearGradient id="paint51_linear_829_800" x1="374.926" y1="247.969" x2="379.845" y2="247.969" gradientUnits="userSpaceOnUse">
<stop stop-color="#F8C9C6"/>
<stop offset="1" stop-color="#F26F56"/>
</linearGradient>
<linearGradient id="paint52_linear_829_800" x1="355.727" y1="247.908" x2="361.019" y2="247.908" gradientUnits="userSpaceOnUse">
<stop stop-color="#F8C9C6"/>
<stop offset="1" stop-color="#F26F56"/>
</linearGradient>
<linearGradient id="paint53_linear_829_800" x1="317.5" y1="214.5" x2="381.677" y2="219.745" gradientUnits="userSpaceOnUse">
<stop stop-color="white"/>
<stop offset="0.35" stop-color="#FBFCFD"/>
<stop offset="0.63" stop-color="#F2F3F8"/>
<stop offset="0.88" stop-color="#E1E4EF"/>
<stop offset="1" stop-color="#CCD3ED"/>
</linearGradient>
<linearGradient id="paint54_linear_829_800" x1="352.482" y1="251.691" x2="361.809" y2="251.691" gradientUnits="userSpaceOnUse">
<stop stop-color="#444B8B"/>
<stop offset="0.27" stop-color="#3E4480"/>
<stop offset="0.73" stop-color="#2F3262"/>
<stop offset="1" stop-color="#26264F"/>
</linearGradient>
<linearGradient id="paint55_linear_829_800" x1="374.292" y1="251.691" x2="383.619" y2="251.691" gradientUnits="userSpaceOnUse">
<stop stop-color="#444B8B"/>
<stop offset="0.27" stop-color="#3E4480"/>
<stop offset="0.73" stop-color="#2F3262"/>
<stop offset="1" stop-color="#26264F"/>
</linearGradient>
<linearGradient id="paint56_linear_829_800" x1="344.843" y1="191.633" x2="352.027" y2="191.633" gradientUnits="userSpaceOnUse">
<stop stop-color="#F8C9C6"/>
<stop offset="1" stop-color="#F26F56"/>
</linearGradient>
<linearGradient id="paint57_linear_829_800" x1="363.688" y1="158.368" x2="373.345" y2="158.368" gradientUnits="userSpaceOnUse">
<stop stop-color="#05C8FF"/>
<stop offset="0.84" stop-color="#18D4A7"/>
</linearGradient>
<linearGradient id="paint58_linear_829_800" x1="380.851" y1="174.238" x2="396.757" y2="174.238" gradientUnits="userSpaceOnUse">
<stop stop-color="#0057D2"/>
<stop offset="0.1" stop-color="#0057D2"/>
<stop offset="0.39" stop-color="#0085E4"/>
<stop offset="0.73" stop-color="#00B4F7"/>
<stop offset="0.9" stop-color="#00C7FF"/>
<stop offset="1" stop-color="#00C7FF"/>
</linearGradient>
<linearGradient id="paint59_linear_829_800" x1="343.997" y1="173.318" x2="354.828" y2="173.318" gradientUnits="userSpaceOnUse">
<stop stop-color="#0057D2"/>
<stop offset="0.1" stop-color="#0057D2"/>
<stop offset="0.39" stop-color="#0085E4"/>
<stop offset="0.73" stop-color="#00B4F7"/>
<stop offset="0.9" stop-color="#00C7FF"/>
<stop offset="1" stop-color="#00C7FF"/>
</linearGradient>
<linearGradient id="paint60_linear_829_800" x1="352.628" y1="170.263" x2="383.872" y2="170.263" gradientUnits="userSpaceOnUse">
<stop stop-color="#0057D2"/>
<stop offset="0.1" stop-color="#0057D2"/>
<stop offset="0.39" stop-color="#0085E4"/>
<stop offset="0.73" stop-color="#00B4F7"/>
<stop offset="0.9" stop-color="#00C7FF"/>
<stop offset="1" stop-color="#00C7FF"/>
</linearGradient>
</defs>
</svg>
