<svg width="56" height="56" viewBox="0 0 56 56" fill="none" xmlns="http://www.w3.org/2000/svg">
<mask id="mask0_946_20" style="mask-type:alpha" maskUnits="userSpaceOnUse" x="0" y="0" width="56" height="56">
<rect width="56" height="56" fill="#D9D9D9"/>
</mask>
<g mask="url(#mask0_946_20)">
<path d="M27.9987 37.333C30.9154 37.333 33.3949 36.3126 35.4374 34.2717C37.4783 32.2292 38.4987 29.7497 38.4987 26.833C38.4987 23.9163 37.4783 21.4368 35.4374 19.3943C33.3949 17.3535 30.9154 16.333 27.9987 16.333C25.082 16.333 22.6025 17.3535 20.56 19.3943C18.5191 21.4368 17.4987 23.9163 17.4987 26.833C17.4987 29.7497 18.5191 32.2292 20.56 34.2717C22.6025 36.3126 25.082 37.333 27.9987 37.333ZM27.9987 33.133C26.2487 33.133 24.7616 32.5201 23.5374 31.2943C22.3116 30.0701 21.6987 28.583 21.6987 26.833C21.6987 25.083 22.3116 23.5951 23.5374 22.3693C24.7616 21.1451 26.2487 20.533 27.9987 20.533C29.7487 20.533 31.2366 21.1451 32.4624 22.3693C33.6866 23.5951 34.2987 25.083 34.2987 26.833C34.2987 28.583 33.6866 30.0701 32.4624 31.2943C31.2366 32.5201 29.7487 33.133 27.9987 33.133ZM27.9987 44.333C22.3209 44.333 17.1487 42.7479 12.482 39.5777C7.81536 36.409 4.43203 32.1608 2.33203 26.833C4.43203 21.5052 7.81536 17.2562 12.482 14.086C17.1487 10.9173 22.3209 9.33301 27.9987 9.33301C33.6765 9.33301 38.8487 10.9173 43.5154 14.086C48.182 17.2562 51.5654 21.5052 53.6654 26.833C51.5654 32.1608 48.182 36.409 43.5154 39.5777C38.8487 42.7479 33.6765 44.333 27.9987 44.333ZM27.9987 39.6663C32.3931 39.6663 36.4283 38.509 40.104 36.1943C43.7783 33.8812 46.5876 30.7608 48.532 26.833C46.5876 22.9052 43.7783 19.784 40.104 17.4693C36.4283 15.1562 32.3931 13.9997 27.9987 13.9997C23.6043 13.9997 19.5691 15.1562 15.8934 17.4693C12.2191 19.784 9.40981 22.9052 7.46536 26.833C9.40981 30.7608 12.2191 33.8812 15.8934 36.1943C19.5691 38.509 23.6043 39.6663 27.9987 39.6663Z" fill="url(#paint0_linear_946_20)"/>
</g>
<defs>
<linearGradient id="paint0_linear_946_20" x1="-19.9332" y1="26.8047" x2="65.3974" y2="26.5158" gradientUnits="userSpaceOnUse">
<stop offset="0.317708" stop-color="#E43425"/>
<stop offset="0.71875" stop-color="#441FD8"/>
<stop offset="1" stop-color="#0A26B8"/>
</linearGradient>
</defs>
</svg>
