<svg width="56" height="56" viewBox="0 0 56 56" fill="none" xmlns="http://www.w3.org/2000/svg">
<mask id="mask0_946_6" style="mask-type:alpha" maskUnits="userSpaceOnUse" x="0" y="0" width="56" height="56">
<rect width="56" height="56" fill="#D9D9D9"/>
</mask>
<g mask="url(#mask0_946_6)">
<path d="M28.0013 51.3337C24.7735 51.3337 21.7402 50.7208 18.9013 49.495C16.0624 48.2708 13.593 46.6087 11.493 44.5087C9.39297 42.4087 7.73086 39.9392 6.50664 37.1003C5.28086 34.2614 4.66797 31.2281 4.66797 28.0003C4.66797 24.7725 5.28086 21.7392 6.50664 18.9003C7.73086 16.0614 9.39297 13.592 11.493 11.492C13.593 9.39199 16.0624 7.7291 18.9013 6.50333C21.7402 5.2791 24.7735 4.66699 28.0013 4.66699C31.2291 4.66699 34.2624 5.2791 37.1013 6.50333C39.9402 7.7291 42.4096 9.39199 44.5096 11.492C46.6096 13.592 48.2717 16.0614 49.496 18.9003C50.7217 21.7392 51.3346 24.7725 51.3346 28.0003C51.3346 31.2281 50.7217 34.2614 49.496 37.1003C48.2717 39.9392 46.6096 42.4087 44.5096 44.5087C42.4096 46.6087 39.9402 48.2708 37.1013 49.495C34.2624 50.7208 31.2291 51.3337 28.0013 51.3337ZM25.668 46.5503V42.0003C24.3846 42.0003 23.2864 41.5438 22.3733 40.6307C21.4586 39.716 21.0013 38.617 21.0013 37.3337V35.0003L9.8013 23.8003C9.68464 24.5003 9.5773 25.2003 9.4793 25.9003C9.38286 26.6003 9.33464 27.3003 9.33464 28.0003C9.33464 32.7059 10.8809 36.8281 13.9733 40.367C17.0642 43.9059 20.9624 45.967 25.668 46.5503ZM41.768 40.6003C42.5457 39.7448 43.2457 38.8208 43.868 37.8283C44.4902 36.8374 45.0059 35.8069 45.415 34.7367C45.8225 33.668 46.1336 32.5698 46.3483 31.442C46.5614 30.3142 46.668 29.167 46.668 28.0003C46.668 24.1892 45.6086 20.7087 43.49 17.5587C41.3698 14.4087 38.5402 12.1337 35.0013 10.7337V11.667C35.0013 12.9503 34.5447 14.0485 33.6316 14.9617C32.717 15.8763 31.618 16.3337 30.3346 16.3337H25.668V21.0003C25.668 21.6614 25.4447 22.2152 24.9983 22.6617C24.5503 23.1097 23.9957 23.3337 23.3346 23.3337H18.668V28.0003H32.668C33.3291 28.0003 33.8836 28.2235 34.3316 28.67C34.7781 29.118 35.0013 29.6725 35.0013 30.3337V37.3337H37.3346C38.3457 37.3337 39.2596 37.6347 40.0763 38.2367C40.893 38.8402 41.4569 39.6281 41.768 40.6003Z" fill="url(#paint0_linear_946_6)"/>
</g>
<defs>
<linearGradient id="paint0_linear_946_6" x1="-15.5732" y1="27.9626" x2="62.0006" y2="27.7835" gradientUnits="userSpaceOnUse">
<stop offset="0.317708" stop-color="#E43425"/>
<stop offset="0.71875" stop-color="#441FD8"/>
<stop offset="1" stop-color="#0A26B8"/>
</linearGradient>
</defs>
</svg>
