<svg width="195" height="136" viewBox="0 0 195 136" fill="none" xmlns="http://www.w3.org/2000/svg">
<g clip-path="url(#clip0_7998_413)">
<path d="M3.09938 104.403H5.87642L11.0958 118.326L16.3027 104.403H19.0798L12.1868 122.454H9.98L3.09938 104.403ZM1.83483 104.403H4.4755L4.93421 116.454V122.454H1.83483V104.403ZM17.7036 104.403H20.3567V122.454H17.2449V116.454L17.7036 104.403ZM38.405 119.987V122.454H28.8217V119.987H38.405ZM29.702 104.403V122.454H26.5902V104.403H29.702ZM37.1529 111.941V114.371H28.8217V111.941H37.1529ZM38.343 104.403V106.883H28.8217V104.403H38.343ZM45.8534 104.403L49.6843 110.986L53.5151 104.403H57.098L51.6431 113.342L57.2343 122.454H53.6143L49.6843 115.747L45.7542 122.454H42.1218L47.7255 113.342L42.2582 104.403H45.8534ZM65.3894 104.403V122.454H62.2777V104.403H65.3894ZM82.4583 116.578H85.5577C85.4585 117.76 85.1279 118.813 84.5659 119.739C84.0039 120.656 83.2146 121.38 82.198 121.909C81.1814 122.438 79.9458 122.702 78.4911 122.702C77.3753 122.702 76.3711 122.504 75.4785 122.107C74.5859 121.702 73.8214 121.132 73.185 120.396C72.5486 119.652 72.0609 118.756 71.7221 117.706C71.3915 116.656 71.2262 115.483 71.2262 114.185V112.685C71.2262 111.387 71.3956 110.214 71.7345 109.164C72.0816 108.114 72.5775 107.218 73.2222 106.474C73.8668 105.722 74.6396 105.147 75.5405 104.75C76.4497 104.354 77.4704 104.155 78.6027 104.155C80.0408 104.155 81.2558 104.42 82.2476 104.949C83.2394 105.478 84.008 106.209 84.5535 107.143C85.1072 108.077 85.4461 109.147 85.5701 110.354H82.4707C82.3881 109.577 82.2062 108.912 81.9252 108.358C81.6525 107.804 81.2475 107.383 80.7103 107.094C80.173 106.796 79.4705 106.647 78.6027 106.647C77.8919 106.647 77.272 106.78 76.7431 107.044C76.2141 107.308 75.7719 107.697 75.4165 108.209C75.0611 108.722 74.7925 109.354 74.6107 110.106C74.4371 110.85 74.3503 111.701 74.3503 112.66V114.185C74.3503 115.094 74.4289 115.921 74.5859 116.664C74.7512 117.4 74.9991 118.032 75.3297 118.561C75.6686 119.09 76.0984 119.499 76.6191 119.789C77.1398 120.078 77.7638 120.223 78.4911 120.223C79.3755 120.223 80.0904 120.082 80.6359 119.801C81.1896 119.52 81.607 119.111 81.888 118.574C82.1773 118.028 82.3674 117.363 82.4583 116.578ZM105.317 112.933V113.925C105.317 115.288 105.139 116.512 104.784 117.594C104.428 118.677 103.92 119.599 103.259 120.359C102.606 121.119 101.821 121.702 100.903 122.107C99.9859 122.504 98.9693 122.702 97.8535 122.702C96.746 122.702 95.7336 122.504 94.8162 122.107C93.907 121.702 93.1177 121.119 92.4482 120.359C91.7788 119.599 91.2581 118.677 90.8861 117.594C90.5225 116.512 90.3406 115.288 90.3406 113.925V112.933C90.3406 111.569 90.5225 110.35 90.8861 109.276C91.2498 108.193 91.7622 107.271 92.4234 106.511C93.0929 105.742 93.8822 105.16 94.7914 104.763C95.7088 104.358 96.7212 104.155 97.8287 104.155C98.9445 104.155 99.9611 104.358 100.879 104.763C101.796 105.16 102.585 105.742 103.246 106.511C103.908 107.271 104.416 108.193 104.771 109.276C105.135 110.35 105.317 111.569 105.317 112.933ZM102.205 113.925V112.908C102.205 111.9 102.106 111.011 101.908 110.243C101.717 109.466 101.432 108.817 101.052 108.296C100.68 107.767 100.221 107.37 99.676 107.106C99.1305 106.833 98.5147 106.697 97.8287 106.697C97.1427 106.697 96.5311 106.833 95.9939 107.106C95.4567 107.37 94.998 107.767 94.6178 108.296C94.2459 108.817 93.9607 109.466 93.7624 110.243C93.564 111.011 93.4648 111.9 93.4648 112.908V113.925C93.4648 114.933 93.564 115.826 93.7624 116.602C93.9607 117.379 94.25 118.036 94.6302 118.574C95.0186 119.103 95.4815 119.503 96.0187 119.776C96.5559 120.041 97.1675 120.173 97.8535 120.173C98.5478 120.173 99.1635 120.041 99.7008 119.776C100.238 119.503 100.693 119.103 101.064 118.574C101.436 118.036 101.717 117.379 101.908 116.602C102.106 115.826 102.205 114.933 102.205 113.925ZM130.491 116.578H133.591C133.491 117.76 133.161 118.813 132.599 119.739C132.037 120.656 131.247 121.38 130.231 121.909C129.214 122.438 127.979 122.702 126.524 122.702C125.408 122.702 124.404 122.504 123.511 122.107C122.619 121.702 121.854 121.132 121.218 120.396C120.581 119.652 120.094 118.756 119.755 117.706C119.424 116.656 119.259 115.483 119.259 114.185V112.685C119.259 111.387 119.429 110.214 119.767 109.164C120.115 108.114 120.61 107.218 121.255 106.474C121.9 105.722 122.673 105.147 123.573 104.75C124.483 104.354 125.503 104.155 126.636 104.155C128.074 104.155 129.289 104.42 130.28 104.949C131.272 105.478 132.041 106.209 132.586 107.143C133.14 108.077 133.479 109.147 133.603 110.354H130.504C130.421 109.577 130.239 108.912 129.958 108.358C129.685 107.804 129.28 107.383 128.743 107.094C128.206 106.796 127.503 106.647 126.636 106.647C125.925 106.647 125.305 106.78 124.776 107.044C124.247 107.308 123.805 107.697 123.449 108.209C123.094 108.722 122.825 109.354 122.644 110.106C122.47 110.85 122.383 111.701 122.383 112.66V114.185C122.383 115.094 122.462 115.921 122.619 116.664C122.784 117.4 123.032 118.032 123.363 118.561C123.702 119.09 124.131 119.499 124.652 119.789C125.173 120.078 125.797 120.223 126.524 120.223C127.408 120.223 128.123 120.082 128.669 119.801C129.223 119.52 129.64 119.111 129.921 118.574C130.21 118.028 130.4 117.363 130.491 116.578ZM142.279 104.403V122.454H139.167V104.403H142.279ZM155.74 104.403V122.454H152.653V104.403H155.74ZM161.406 104.403V106.883H147.037V104.403H161.406ZM168.247 104.403L172.437 113.02L176.627 104.403H180.074L173.999 115.809V122.454H170.862V115.809L164.788 104.403H168.247Z" fill="url(#paint0_linear_7998_413)"/>
<path d="M20.8169 43.6288C8.65654 43.6288 1.3397 35.0753 1.3397 25.0276C1.3397 14.9798 8.65654 6.4263 20.8169 6.4263C32.9773 6.4263 40.2941 14.9798 40.2941 25.0276C40.2941 35.0753 32.9773 43.6288 20.8169 43.6288ZM20.8169 34.3539C26.3303 34.3539 29.4735 30.0772 29.4735 25.0276C29.4735 19.9779 26.3303 15.7012 20.8169 15.7012C15.3035 15.7012 12.1604 19.9779 12.1604 25.0276C12.1604 30.0772 15.3035 34.3539 20.8169 34.3539ZM62.431 43.6288C50.2706 43.6288 42.9538 35.0753 42.9538 25.0276C42.9538 14.9798 50.2706 6.4263 62.431 6.4263C74.5914 6.4263 81.9082 14.9798 81.9082 25.0276C81.9082 35.0753 74.5914 43.6288 62.431 43.6288ZM62.431 34.3539C67.9444 34.3539 71.0876 30.0772 71.0876 25.0276C71.0876 19.9779 67.9444 15.7012 62.431 15.7012C56.9176 15.7012 53.7745 19.9779 53.7745 25.0276C53.7745 30.0772 56.9176 34.3539 62.431 34.3539ZM89.463 43.062C87.4534 43.062 86.3714 41.9799 86.3714 39.9704V10.0847C86.3714 8.07516 87.4534 6.9931 89.463 6.9931H94.1004C96.11 6.9931 97.192 8.07516 97.192 10.0847V21.3691H107.755V10.0847C107.755 8.07516 108.837 6.9931 110.847 6.9931H115.484C117.494 6.9931 118.576 8.07516 118.576 10.0847V39.9704C118.576 41.9799 117.494 43.062 115.484 43.062H110.847C108.837 43.062 107.755 41.9799 107.755 39.9704V30.1803H97.192V39.9704C97.192 41.9799 96.11 43.062 94.1004 43.062H89.463ZM16.0249 92.6288C8.91417 92.6288 3.76147 89.6918 1.70039 84.3845C0.979013 82.4265 2.00955 81.0868 3.96758 80.623L6.90462 79.9532C8.70807 79.5409 9.63555 80.3139 10.7176 81.9627C11.7997 83.5601 13.5516 84.3845 16.0249 84.3845C18.4982 84.3845 20.2501 83.5601 20.2501 81.8081C20.2501 80.9322 19.7864 79.7986 17.21 78.9741L13.1394 77.4283C11.3875 76.8615 2.62788 74.5428 2.52482 66.8653C2.52482 59.9092 8.3989 55.4263 16.2825 55.4263C21.8475 55.4263 25.7635 57.642 28.0822 61.7641C29.1643 63.6191 28.2883 65.1649 26.2788 65.7317L23.4963 66.5046C21.7444 67.0199 20.7654 66.2985 19.4772 64.8557C18.8074 64.1344 17.8799 63.6706 16.4886 63.6706C14.7367 63.6706 13.0879 64.392 13.0879 65.9378C13.0879 66.9684 13.8092 67.8958 16.0249 68.6687L20.044 70.06C28.0822 72.8424 30.6071 76.3463 30.7616 81.4474C30.7616 89.125 23.857 92.6288 16.0249 92.6288ZM52.9207 92.6288C40.7603 92.6288 33.4435 84.0753 33.4435 74.0276C33.4435 63.9798 40.7603 55.4263 52.9207 55.4263C65.081 55.4263 72.3979 63.9798 72.3979 74.0276C72.3979 84.0753 65.081 92.6288 52.9207 92.6288ZM52.9207 83.3539C58.4341 83.3539 61.5772 79.0772 61.5772 74.0276C61.5772 68.9779 58.4341 64.7012 52.9207 64.7012C47.4073 64.7012 44.2641 68.9779 44.2641 74.0276C44.2641 79.0772 47.4073 83.3539 52.9207 83.3539ZM95.1016 92.6288C82.9412 92.6288 75.006 84.0753 75.006 74.0276C75.006 63.9798 82.9412 55.4263 95.1016 55.4263C99.8421 55.4263 103.397 56.9206 106.541 59.2393C108.189 60.4244 108.292 62.0733 106.953 63.5676L104.892 65.9378C103.604 67.4321 102.264 67.329 100.563 66.1954C98.76 65.0619 96.802 64.7012 95.1016 64.7012C89.4851 64.7012 85.8267 68.8233 85.8267 74.0276C85.8267 79.2318 89.4851 83.3539 95.1016 83.3539C96.802 83.3539 98.7085 82.9933 100.563 81.8597C102.264 80.7261 103.604 80.623 104.892 82.1173L106.953 84.4875C108.292 86.0334 108.292 87.5276 106.798 88.6612C103.552 91.083 99.9451 92.6288 95.1016 92.6288ZM115.78 92.062C113.77 92.062 112.688 90.9799 112.688 88.9704V59.0847C112.688 57.0752 113.77 55.9931 115.78 55.9931H120.417C122.427 55.9931 123.509 57.0752 123.509 59.0847V88.9704C123.509 90.9799 122.427 92.062 120.417 92.062H115.78ZM130.209 92.062C127.942 92.062 126.963 90.6193 127.787 88.5066L139.433 58.4149C140.051 56.766 141.236 55.9931 142.988 55.9931H147.368C149.12 55.9931 150.253 56.766 150.923 58.4149L162.826 88.5066C163.65 90.6193 162.723 92.062 160.404 92.062H155.406C153.654 92.062 152.469 91.2891 151.851 89.6402L150.459 86.0334H139.742L138.454 89.5887C137.835 91.2376 136.702 92.062 134.95 92.062H130.209ZM141.442 77.5829H148.656L145.204 67.4321L141.442 77.5829ZM170.075 92.062C168.065 92.062 166.983 90.9799 166.983 88.9704V59.0847C166.983 57.0752 168.065 55.9931 170.075 55.9931H174.712C176.722 55.9931 177.804 57.0752 177.804 59.0847V82.7871H190.892C192.901 82.7871 193.983 83.8692 193.983 85.8788V88.9704C193.983 90.9799 192.901 92.062 190.892 92.062H170.075Z" fill="#001464"/>
<mask id="mask0_7998_413" style="mask-type:alpha" maskUnits="userSpaceOnUse" x="120" y="0" width="50" height="50">
<rect x="120" width="49.8" height="49.8" fill="#D9D9D9"/>
</mask>
<g mask="url(#mask0_7998_413)">
<path d="M143.344 39.9444V28.0531L128.596 11.4531C128.378 11.2297 128.201 10.9714 128.065 10.6781C127.93 10.3848 127.862 10.0845 127.862 9.77705C127.862 9.0508 128.111 8.45026 128.61 7.97543C129.109 7.5006 129.719 7.26318 130.439 7.26318H159.362C160.082 7.26318 160.692 7.49991 161.191 7.97335C161.69 8.44645 161.939 9.04492 161.939 9.76875C161.939 10.0748 161.871 10.3757 161.735 10.6714C161.6 10.9671 161.423 11.2276 161.205 11.4531L146.457 28.0531V39.9444H154.757C155.198 39.9444 155.567 40.0937 155.865 40.3921C156.164 40.6906 156.313 41.0603 156.313 41.5012C156.313 41.9425 156.164 42.312 155.865 42.6098C155.567 42.9079 155.198 43.0569 154.757 43.0569H135.044C134.603 43.0569 134.234 42.9077 133.936 42.6093C133.637 42.3108 133.488 41.9411 133.488 41.5002C133.488 41.0589 133.637 40.6894 133.936 40.3916C134.234 40.0935 134.603 39.9444 135.044 39.9444H143.344ZM135.459 14.5257H154.342L158.077 10.3757H131.724L135.459 14.5257ZM144.9 25.1082L151.576 17.6382H138.225L144.9 25.1082Z" fill="#001464"/>
</g>
</g>
<defs>
<linearGradient id="paint0_linear_7998_413" x1="-78.5068" y1="114.42" x2="222.341" y2="111.427" gradientUnits="userSpaceOnUse">
<stop offset="0.317708" stop-color="#E43425"/>
<stop offset="0.71875" stop-color="#441FD8"/>
<stop offset="1" stop-color="#0A26B8"/>
</linearGradient>
<clipPath id="clip0_7998_413">
<rect width="195" height="135.454" fill="white"/>
</clipPath>
</defs>
</svg>
