<svg width="37" height="37" viewBox="0 0 37 37" fill="none" xmlns="http://www.w3.org/2000/svg">
<mask id="mask0_10721_2016" style="mask-type:alpha" maskUnits="userSpaceOnUse" x="0" y="0" width="37" height="37">
<rect width="37" height="37" fill="#D9D9D9"/>
</mask>
<g mask="url(#mask0_10721_2016)">
<path d="M16.2823 22.3422L12.4343 18.4942C12.2899 18.3498 12.113 18.2727 11.9036 18.263C11.6939 18.2529 11.5071 18.33 11.3432 18.4942C11.179 18.6581 11.0969 18.8399 11.0969 19.0396C11.0969 19.2392 11.179 19.421 11.3432 19.5849L15.4109 23.6526C15.6599 23.9016 15.9503 24.0261 16.2823 24.0261C16.6143 24.0261 16.9049 23.9016 17.1541 23.6526L25.5974 15.2093C25.7419 15.0649 25.8189 14.888 25.8287 14.6786C25.8387 14.4689 25.7616 14.2821 25.5974 14.1182C25.4335 13.954 25.2517 13.8719 25.0521 13.8719C24.8524 13.8719 24.6706 13.954 24.5067 14.1182L16.2823 22.3422ZM18.505 32.375C16.5864 32.375 14.7825 32.0109 13.0934 31.2827C11.4045 30.5546 9.93527 29.5663 8.68575 28.3181C7.43623 27.0699 6.44712 25.6019 5.71843 23.9143C4.98948 22.227 4.625 20.4239 4.625 18.505C4.625 16.5864 4.98909 14.7825 5.71727 13.0934C6.44545 11.4045 7.43366 9.93527 8.6819 8.68575C9.93013 7.43623 11.3981 6.44712 13.0857 5.71843C14.773 4.98948 16.5761 4.625 18.495 4.625C20.4136 4.625 22.2175 4.98909 23.9066 5.71727C25.5955 6.44545 27.0647 7.43366 28.3142 8.6819C29.5638 9.93013 30.5529 11.3981 31.2816 13.0857C32.0105 14.773 32.375 16.5761 32.375 18.495C32.375 20.4136 32.0109 22.2175 31.2827 23.9066C30.5545 25.5955 29.5663 27.0647 28.3181 28.3142C27.0699 29.5638 25.6019 30.5529 23.9143 31.2816C22.227 32.0105 20.4239 32.375 18.505 32.375ZM18.5 30.8333C21.9431 30.8333 24.8594 29.6385 27.249 27.249C29.6385 24.8594 30.8333 21.9431 30.8333 18.5C30.8333 15.0569 29.6385 12.1406 27.249 9.75104C24.8594 7.36146 21.9431 6.16667 18.5 6.16667C15.0569 6.16667 12.1406 7.36146 9.75104 9.75104C7.36146 12.1406 6.16667 15.0569 6.16667 18.5C6.16667 21.9431 7.36146 24.8594 9.75104 27.249C12.1406 29.6385 15.0569 30.8333 18.5 30.8333Z" fill="url(#paint0_linear_10721_2016)"/>
</g>
<defs>
<linearGradient id="paint0_linear_10721_2016" x1="-7.41126" y1="18.4776" x2="38.7174" y2="18.3711" gradientUnits="userSpaceOnUse">
<stop offset="0.317708" stop-color="#E43425"/>
<stop offset="0.71875" stop-color="#441FD8"/>
<stop offset="1" stop-color="#0A26B8"/>
</linearGradient>
</defs>
</svg>
