<svg width="312" height="174" viewBox="0 0 312 174" fill="none" xmlns="http://www.w3.org/2000/svg">
<path d="M10.4309 35V8.63738H0.518949V0.749349H30.0472V8.63738H20.1352V35H10.4309ZM54.8979 0.749349H64.6023V35H54.8979V21.8187H43.1697V35H33.4653V0.749349H43.1697V13.9307H54.8979V0.749349ZM94.4374 8.63738H80.1144V14.242H92.154V21.5592H80.1144V27.112H94.4374V35H70.4101V0.749349H94.4374V8.63738ZM24.183 63.4076C26.5183 63.6152 31.0851 66.1581 31.0851 71.7627C31.0851 77.8863 26.6221 81 19.2011 81H2.90612V46.7493H18.267C25.688 46.7493 30.0472 50.5377 30.0472 56.1942C30.0472 61.6432 26.2069 62.9406 24.183 63.2V63.4076ZM20.3428 57.2321C20.3428 55.1044 18.7341 53.7033 15.8798 53.7033H12.351V60.5015H16.0355C18.7341 60.5015 20.3428 59.4636 20.3428 57.2321ZM17.1772 74.0461C19.7201 74.0461 21.2769 72.9044 21.2769 70.5691C21.2769 68.4933 19.5644 66.9884 17.0215 66.9884H12.351V74.0461H17.1772ZM64.7636 73.5271L65.2826 80.9481C65.2826 80.9481 63.8814 81.4152 60.664 81.4152C49.4546 81.4152 52.3089 70.5691 45.6663 70.5691H45.0955V81H35.3911V46.7493H48.2092C57.9654 46.7493 62.8954 50.5896 62.8954 59.1522C62.8954 63.9266 60.8196 67.0922 56.7199 68.8566C59.7817 69.8945 59.8336 73.6309 63.6739 73.6309C64.2447 73.6309 64.7636 73.5271 64.7636 73.5271ZM45.0955 64.0304H46.9637C50.9596 64.0304 53.4506 62.3178 53.4506 59.256C53.4506 55.9348 51.2191 54.1703 47.5864 54.1703H45.0955V64.0304ZM84.3098 46.3342C94.4812 46.3342 101.487 53.0805 101.487 63.8228C101.487 74.6169 94.4812 81.3633 84.3098 81.3633C74.1384 81.3633 67.1326 74.6169 67.1326 63.8228C67.1326 53.0805 74.1384 46.3342 84.3098 46.3342ZM84.3098 73.0082C88.5133 73.0082 91.6789 69.7907 91.6789 63.8228C91.6789 57.9068 88.5133 54.6893 84.3098 54.6893C80.1063 54.6893 76.9407 57.9068 76.9407 63.8228C76.9407 69.7907 80.1063 73.0082 84.3098 73.0082ZM125.576 81L123.864 74.7207H113.329L111.565 81H101.653L113.174 46.7493H123.968L135.385 81H125.576ZM115.249 67.7668H121.944L119.66 59.5155C119.349 58.3738 118.882 56.5575 118.726 55.3639H118.519C118.363 56.5575 117.844 58.3738 117.533 59.5674L115.249 67.7668ZM151.354 46.7493C162.407 46.7493 168.219 53.859 168.219 63.8228C168.219 74.4093 162.978 81 152.755 81H137.965V46.7493H151.354ZM151.146 73.5271C155.868 73.5271 158.411 70.9324 158.411 63.8228C158.411 57.2321 155.246 54.2222 149.693 54.2222H147.669V73.5271H151.146ZM189.761 57.9587C189.761 56.0904 187.997 54.1184 185.247 54.1184C182.859 54.1184 181.562 55.1563 181.562 56.6613C181.562 62.0065 198.532 58.5814 198.532 71.4513C198.532 76.6927 194.64 81.4152 184.78 81.4152C176.788 81.4152 171.702 77.5749 169.886 76.0181L175.438 69.2717C177.151 70.8805 181.303 73.8385 185.195 73.8385C187.893 73.8385 188.827 73.112 188.827 71.7627C188.827 66.9365 171.91 69.8426 171.91 57.3878C171.91 51.4718 176.943 46.3342 184.935 46.3342C193.913 46.3342 197.442 51.0566 198.272 55.8829L189.761 57.9587ZM202.935 81V46.7493H212.38V81H202.935ZM248.548 64.4974V81H241.749C241.697 80.6886 241.49 79.7026 241.386 77.9901C239.466 80.1178 236.56 81.4152 232.512 81.4152C223.067 81.4152 216.788 74.6688 216.788 63.8747C216.788 53.0805 223.794 46.3342 233.498 46.3342C244.396 46.3342 248.392 53.7033 248.392 59.6193L239.466 60.9686C239.466 57.8549 237.909 54.6893 233.654 54.6893C229.658 54.6893 226.596 58.2181 226.596 63.8747C226.596 69.6869 229.606 73.579 234.276 73.579C237.701 73.579 239.777 72.4373 240.244 69.7907H233.083V64.4974H248.548ZM284.546 46.7493V81H275.88L267.11 68.8566C265.708 66.8846 264.152 64.5493 262.854 62.4735L262.491 62.6292C262.75 63.719 262.75 66.0543 262.75 68.8566V81H253.461V46.7493H261.142L270.95 60.1901C272.403 62.214 274.531 65.691 275.205 66.9365L275.517 66.7808C275.257 65.691 275.257 62.9925 275.257 60.1901V46.7493H284.546ZM18.1632 92.3342C29.0612 92.3342 33.0571 99.7033 33.0571 106.138L24.1311 107.488C24.1311 104.374 22.5743 100.689 18.3189 100.689C14.323 100.689 11.2612 104.218 11.2612 109.875C11.2612 116.413 15.2571 119.06 19.4606 119.06C23.8198 119.06 26.5183 115.946 27.5562 114.493L33.2646 120.513C31.2926 123.264 26.8816 127.415 19.2011 127.415C8.51077 127.415 1.45306 120.617 1.45306 109.875C1.45306 99.0805 8.45887 92.3342 18.1632 92.3342ZM52.8384 92.3342C63.0098 92.3342 70.0156 99.0805 70.0156 109.823C70.0156 120.617 63.0098 127.363 52.8384 127.363C42.667 127.363 35.6611 120.617 35.6611 109.823C35.6611 99.0805 42.667 92.3342 52.8384 92.3342ZM52.8384 119.008C57.0418 119.008 60.2074 115.791 60.2074 109.823C60.2074 103.907 57.0418 100.689 52.8384 100.689C48.6349 100.689 45.4693 103.907 45.4693 109.823C45.4693 115.791 48.6349 119.008 52.8384 119.008ZM113.596 92.7493V127H104.047V111.639C104.047 109.978 104.203 108.162 104.306 107.851L104.047 107.747C103.995 108.006 103.528 109.46 103.165 110.342L96.4183 127.311H91.5402L84.6901 110.342C84.3268 109.46 83.8598 108.006 83.8079 107.747L83.5484 107.851C83.6522 108.162 83.8079 110.082 83.8079 111.639V127H74.363V92.7493H84.6382L91.177 106.865C92.5262 109.771 93.8755 113.3 94.0312 114.026H94.2388C94.3425 113.3 95.7437 109.719 97.0411 106.813L103.372 92.7493H113.596ZM158.649 92.7493V127H149.1V111.639C149.1 109.978 149.256 108.162 149.36 107.851L149.1 107.747C149.048 108.006 148.581 109.46 148.218 110.342L141.472 127.311H136.594L129.743 110.342C129.38 109.46 128.913 108.006 128.861 107.747L128.602 107.851C128.705 108.162 128.861 110.082 128.861 111.639V127H119.416V92.7493H129.691L136.23 106.865C137.58 109.771 138.929 113.3 139.084 114.026H139.292C139.396 113.3 140.797 109.719 142.094 106.813L148.426 92.7493H158.649ZM184.293 92.7493H193.998V113.248C193.998 121.966 187.978 127.415 179.104 127.415C170.074 127.415 164.054 121.966 164.054 113.248L164.106 92.7493H173.811V113.248C173.811 116.932 175.99 119.06 179.104 119.06C182.166 119.06 184.293 116.932 184.293 113.248V92.7493ZM230.523 92.7493V127H221.856L213.086 114.857C211.685 112.885 210.128 110.549 208.831 108.474L208.468 108.629C208.727 109.719 208.727 112.054 208.727 114.857V127H199.438V92.7493H207.118L216.926 106.19C218.38 108.214 220.507 111.691 221.182 112.936L221.493 112.781C221.234 111.691 221.234 108.992 221.234 106.19V92.7493H230.523ZM236.332 127V92.7493H245.777V127H236.332ZM259.111 127V100.637H249.199V92.7493H278.727V100.637H268.815V127H259.111ZM311.258 92.7493L299.945 114.649V127H290.241V114.701L278.876 92.7493H289.359L293.562 102.454C294.029 103.543 294.86 105.619 295.119 106.657H295.327C295.586 105.619 296.365 103.543 296.832 102.454L300.983 92.7493H311.258ZM16.295 138.749C27.3486 138.749 33.1609 145.859 33.1609 155.823C33.1609 166.409 27.9195 173 17.6962 173H2.90612V138.749H16.295ZM16.0874 165.527C20.8099 165.527 23.3527 162.932 23.3527 155.823C23.3527 149.232 20.1871 146.222 14.6344 146.222H12.6105V165.527H16.0874ZM37.5703 173V138.749H47.0152V173H37.5703ZM83.1831 156.497V173H76.3849C76.333 172.689 76.1254 171.703 76.0216 169.99C74.1015 172.118 71.1954 173.415 67.1476 173.415C57.7027 173.415 51.4234 166.669 51.4234 155.875C51.4234 145.081 58.4292 138.334 68.1336 138.334C79.0315 138.334 83.0274 145.703 83.0274 151.619L74.1015 152.969C74.1015 149.855 72.5446 146.689 68.2893 146.689C64.2934 146.689 61.2316 150.218 61.2316 155.875C61.2316 161.687 64.2415 165.579 68.912 165.579C72.3371 165.579 74.4129 164.437 74.8799 161.791H67.7184V156.497H83.1831ZM112.124 146.637H97.8013V152.242H109.841V159.559H97.8013V165.112H112.124V173H88.0969V138.749H112.124V146.637ZM134.42 149.959C134.42 148.09 132.656 146.118 129.906 146.118C127.518 146.118 126.221 147.156 126.221 148.661C126.221 154.006 143.191 150.581 143.191 163.451C143.191 168.693 139.299 173.415 129.439 173.415C121.447 173.415 116.361 169.575 114.545 168.018L120.097 161.272C121.81 162.88 125.962 165.838 129.854 165.838C132.552 165.838 133.486 165.112 133.486 163.763C133.486 158.936 116.569 161.843 116.569 149.388C116.569 143.472 121.602 138.334 129.594 138.334C138.572 138.334 142.101 143.057 142.931 147.883L134.42 149.959ZM154.257 173V146.637H144.345V138.749H173.873V146.637H163.961V173H154.257Z" fill="#001464"/>
</svg>
