<?xml version="1.0" encoding="UTF-8"?><svg id="Layer_1" xmlns="http://www.w3.org/2000/svg" xmlns:xlink="http://www.w3.org/1999/xlink" viewBox="0 0 277.98 415"><defs><linearGradient id="linear-gradient" x1="232.49" y1="276.86" x2="62.08" y2="286.01" gradientTransform="translate(0 416) scale(1 -1)" gradientUnits="userSpaceOnUse"><stop offset="0" stop-color="#ceddfe"/><stop offset="1" stop-color="#7399ef"/></linearGradient><linearGradient id="linear-gradient-2" x1="-8.98" y1="225.48" x2="225.65" y2="226.32" gradientTransform="translate(0 416) scale(1 -1)" gradientUnits="userSpaceOnUse"><stop offset=".32" stop-color="#e43425"/><stop offset=".72" stop-color="#441fd8"/><stop offset="1" stop-color="#0a26b8"/></linearGradient><linearGradient id="linear-gradient-3" x1="113.93" y1="276.11" x2="-56.47" y2="285.25" gradientTransform="translate(0 416) scale(1 -1)" gradientUnits="userSpaceOnUse"><stop offset="0" stop-color="#ceddfe"/><stop offset="1" stop-color="#7399ef"/></linearGradient></defs><rect x="54.39" y="24.38" width="151.71" height="284.25" style="fill:#001464; stroke-width:0px;"/><path d="M138.99,415c76.76,0,138.99-4.21,138.99-9.41s-62.23-9.41-138.99-9.41S0,400.39,0,405.59s62.23,9.41,138.99,9.41Z" style="fill:#1056fb; isolation:isolate; opacity:.2; stroke-width:0px;"/><path d="M238.34,224.21v109.31h-13.76v-117.1c.66.48,1.29.94,1.91,1.39,2.49,1.81,4.63,3.38,6.38,4.41,1.74,1.03,3.63,1.69,5.47,1.99Z" style="fill:#7399ef; stroke-width:0px;"/><path d="M238.34,4.07v130.59h-4.11c-.64-9.29-4.13-17.85-9.65-24.92V4.07h13.76Z" style="fill:#7399ef; stroke-width:0px;"/><path d="M231.28,137.77c0,20.29-14.5,37.42-34.21,42.65-.84-1.89-2.23-2.72-3.12-3.07l-1.59-35.43-2.63.4-5.79-3.91-45.65,7.31c-.5-2.58-.78-5.23-.78-7.95,0-24.44,21.03-44.33,46.87-44.33s46.88,19.88,46.88,44.33Z" style="fill:url(#linear-gradient); stroke-width:0px;"/><path d="M220.27,213.38v120.13H41.35v-121.7c6.39-3.95,13.59-8.1,16.59-7.69.52.08,1.1.16,1.71.24,1.27.19,2.45.34,3.55.49l5.97,21.13,53.3,10.33c1.91.91,3.8,1.22,5.48,1.22,2.98,0,5.29-.97,5.89-1.23l62.1-15.13-.77-17.29c8.55-.61,17.66,4.45,25.12,9.51Z" style="fill:#7399ef; stroke-width:0px;"/><path d="M220.27,170.59v26.12l-.57-.39c-3.4-2.3-7.38-4.54-10.88-6.5-4.13-2.32-8.71-4.89-10.5-6.7,8.45-2.32,15.98-6.71,21.94-12.53Z" style="fill:#7399ef; stroke-width:0px;"/><path d="M192.71,204.19l.68,15.19-59.03,14.38-13.51-67.46,11.19,68.19c-1.53.54-5.07,1.43-8.59-.32l-.15-.08-52.15-10.1-5.31-18.82c5.44.6,8.26.48,9.31-.77.9-1.08.99-2.07.89-2.72-.07-.48-.25-.88-.47-1.23.66-.53,1.05-1.3,1.13-2.31.07-.83-.19-1.59-.74-2.24.78-.66,1.41-1.66,1.36-3.12-.11-3.68-5.36-4.2-10.72-4.41l-1.62-.06c-1.03-.04-1.97-.08-2.82-.12l-9.91-38.23,55.23,5.49,11.56,54.99-8.85-53.43c1.12.47,2.62.8,4.53.62,3.44-.31,4.86-1.59,5.42-2.46l69.89-10.57,1.93,42.83c-1.93.44-4.48.8-7.49.92-5.36.21-10.61.73-10.73,4.41-.04,1.46.59,2.47,1.37,3.12-.55.64-.81,1.41-.74,2.24.08,1.01.46,1.78,1.13,2.31-.22.34-.4.75-.47,1.23-.1.65-.03,1.64.89,2.72,1.34,1.6,6.99,1.52,16.79-.21Z" style="fill:url(#linear-gradient-2); stroke-width:0px;"/><path d="M186.28,142.84l-67.17,10.15h-.87s-.03-1.55-.03-1.55c.15-.07.3-.14.45-.21l64.69-10.36,2.92,1.98Z" style="fill:#fff; stroke-width:0px;"/><path d="M228.71,187.09c.26.35,3.41,4.83,7.03,10.29,3.74,5.63,7.97,12.31,10.06,16.54,1.4,2.86,1.21,5.24-.56,6.72-2.46,2.05-7.22,1.87-11.07-.4-1.64-.98-3.74-2.51-6.18-4.28-8.98-6.54-22.54-16.41-35.28-14.13-8.45,1.51-13.96,1.69-14.9,1.09-.27-.33-.39-.63-.36-.9.04-.3.26-.57.43-.72.26.02.52.04.81.04h.41c1.76-.07,17.31-2.86,18.33-3.01-1.93.23-6.17.4-10.11.5-3.97.1-7.62.16-8.32.19-2.1.08-2.14-.46-2.19-1.04-.08-.98,1.62-1.29,1.62-1.29.28,0,1.51-.15,6.28-.71,3.88-.46,10.02-2.5,11.36-2.6-.24.02-.62.02-1.11.02-2.35,0-7.17-.14-10.56.27-2.79.33-5.66.68-5.97.69-.28,0-.67.06-1.1.2-.43-.16-1.17-.6-1.14-1.69.05-1.61,4.49-1.99,8.36-2.14,5.45-.21,10.58-2.07,10.99-4.5-.24.17-.64.36-1.17.56l-.29-6.52c.43.45.85,1.14,1.07,2.2.55,2.61,4.86,5.14,12.41,9.38,3.63,2.04,7.38,4.14,10.7,6.39l.81.56c8.5,5.76,11.03,6.4,16.25,11.09-.94-1.46-1.83-2.65-2.83-3.76-1-1.1-2.09-2.1-3.42-3.17.48.05.96.11,1.43.19.86.15,1.72.33,2.56.58.85.24,1.68.56,2.5.9-.72-.51-1.46-1.01-2.25-1.43-.78-.44-1.61-.82-2.45-1.16-.85-.34-1.72-.64-2.62-.89-.75-.21-1.48-.39-2.3-.52-.44-.3-.89-.63-1.37-.95v-33.87c6.14-7.84,9.78-17.53,9.78-28.01v-.2h3.99v61.13c-4.66-5.95-9.15-11.08-9.63-11.61h0Z" style="fill:#7399ef; stroke-width:0px;"/><path d="M161.18,337.59c1.07,4.65,3.23,18.92-6.51,30.67-3.95,4.77-9.84,8.82-17.49,12.1l-1.1-6.79c5.47-2.35,9.58-5.27,12.24-8.71,7.89-10.17,6.33-22.33,5.23-27.27h7.62Z" style="fill:#7399ef; stroke-width:0px;"/><path d="M138.26,402.38c.13.8-.12,1.62-.68,2.24-.56.62-1.37.97-2.23.97h-40.49c-1.03,0-1.82-.03-2.42-.09,4.46-1.93,16.87-6.16,33.62-11.42,2.56-.81,4.08-3.21,3.62-5.73l-9.33-50.76h7.39l10.52,64.79Z" style="fill:#7399ef; stroke-width:0px;"/><path d="M135.55,146.15c-.53-2.78-.8-5.6-.8-8.38,0-1.86.13-3.76.39-5.81l.03-.23-.23-.08c-12.25-4.24-18.2-1.3-19.74-.3l-.15.1.03.18c.29,2.09.44,4.16.44,6.14,0,3.99-.54,7.97-1.61,11.83l-.09.33.36.04c.3.03.58.05.86.05,1.05,0,1.97-.21,2.74-.65l.14-.09,17.69-2.84-.06-.29h0Z" style="fill:#001464; stroke-width:0px;"/><path d="M125.11,377.1l1.28,6.98c-2.07.56-4.16,1.06-6.21,1.47-2.64.53-4.47,2.85-4.27,5.39l.3,3.82c-2.01.65-4.13,1.34-6.27,2.04-.43-4.51-.76-10.87-.93-14.5-.07-1.46,1.03-2.7,2.57-2.89,3.34-.4,8.25-1.06,13.53-2.32Z" style="fill:#7399ef; stroke-width:0px;"/><path d="M118.21,151.44l.03,1.57h-.07l-.07.88c-.09.19-.73,1.19-3.63,1.46-3.46.31-4.91-1.53-4.96-1.59l-.32-.44-51.6-5.14,2.54-1.89,50.62,4.98c.57.21,2.28.8,4.26.8,1.03,0,2.14-.16,3.2-.61Z" style="fill:#fff; stroke-width:0px;"/><path d="M112.75,137.77c0,3.86-.54,7.61-1.53,11.19l-51.84-5.1-5.3,3.96-5.07-.51,7.81,30.16c-.91.41-2.17,1.3-2.92,3.13-20.06-5.02-34.89-22.31-34.89-42.83,0-24.44,21.02-44.33,46.87-44.33s46.87,19.88,46.87,44.33Z" style="fill:url(#linear-gradient-3); stroke-width:0px;"/><path d="M72.35,201.34c.28,0,.55-.02.81-.04.15.15.38.41.42.71.01.1.06.41-.35.91-1.34.83-9.67-.35-13.23-.86-.61-.09-1.19-.17-1.72-.24-4.18-.57-12.07,4.13-21.96,10.35-2.06,1.29-3.99,2.51-5.65,3.49-3.76,2.23-7.84,2.57-9.92.84-1.58-1.32-1.66-3.78-.2-6.75,3.11-6.32,12.07-17.23,16.48-22.44v12.27c-.18.12-.38.25-.56.37-.38.24-.76.48-1.12.72-.28.05-.54.12-.81.18-.41.1-.8.22-1.19.34-.78.25-1.53.54-2.27.85-.73.32-1.45.65-2.14,1.04-.69.37-1.35.77-2.01,1.19.74-.24,1.49-.47,2.24-.65.75-.19,1.51-.33,2.27-.46.07-.01.15-.02.23-.03-2.89,2.04-5.1,3.99-6.87,6.75,1.62-1.2,3.55-2.35,5.73-3.61,2.19-1.27,4.64-2.67,7.31-4.39,1.75-1.12,3.73-2.4,5.97-3.92,9.03-6.13,11.17-11.27,12.06-15.5.31-1.45.99-2.22,1.55-2.61l2.12,8.18c-1.18-.14-2.03-.35-2.52-.7.2.94.92,1.73,2.22,2.31,1.3.58,3.16.94,5.62,1.03l1.61.06c3.87.15,8.32.54,8.37,2.14.03,1.08-.7,1.52-1.15,1.69-.42-.13-.8-.19-1.07-.19-.12,0-.62-.04-1.32-.09-.71-.05-1.63-.13-2.56-.2-4.58-.36-11.15.48-12.73.47.57.22,2.63.6,5.09.97,2.45.37,5.3.72,7.44.88,3.07.24,3.89.3,4.04.3.01,0,1.72.31,1.64,1.29-.04.58-.09,1.11-2.19,1.04-1.39-.05-12.98-.68-16.43-1.12l2.18.39c.51.07,12.36,2.99,14.15,3.06h.41Z" style="fill:#7399ef; stroke-width:0px;"/><path d="M53.12,183.42c-1.02,3.5-3.41,7.67-10.72,12.63-.36.24-.7.47-1.05.7v-17.87c3.66,1.96,7.61,3.49,11.77,4.54Z" style="fill:#7399ef; stroke-width:0px;"/><path d="M220.27,4.07v100.87c-9.09-8.88-21.81-14.41-35.87-14.41-24.37,0-44.71,16.6-49.07,38.46-10.99-3.67-17.4-2.02-20.47-.5-4.57-21.62-24.79-37.96-48.98-37.96-8.91,0-17.28,2.23-24.53,6.11V4.07h178.93Z" style="fill:#7399ef; stroke-width:0px;"/><path d="M32.36,162.92s-18.16-21.54-1.85-47.73c16.31-26.19,55.85-13.1,55.85-13.1,0,0-37.52-3.99-50.92,16.59-12.55,19.26-3.08,44.24-3.08,44.24Z" style="fill:#fff; stroke-width:0px;"/><path d="M149.11,115.19c-7.28,11.69-7.7,22.46-5.92,30.79,1.48-.19,2.94-.45,4.41-.74-.38-8.16.82-17.93,6.44-26.57,13.4-20.58,50.93-16.59,50.93-16.59,0,0-39.54-13.1-55.85,13.1h0Z" style="fill:#fff; stroke-width:0px;"/><path d="M211.24,192.37v-16.47l-14.87,6.9s6.89,6.37,14.87,9.56Z" style="fill:#001464; stroke-width:0px;"/><path d="M51.03,189.92v-8.38l4.01.84-4.01,7.54Z" style="fill:#001464; stroke-width:0px;"/><path d="M120.52,348.12s5.9-1.14,10.61,4.4l-2.2-16.76h-10.51l2.11,12.35h0Z" style="fill:#7399ef; stroke-width:0px;"/><path d="M153.3,348.62s6.78.6,8.85,6.23c0,0,1.44-5.96,1.44-10.7s-1.44-8.38-1.44-8.38l-10.29.57s1.8,4.1,1.44,12.28h0Z" style="fill:#7399ef; stroke-width:0px;"/><path d="M132.23,14.39h-21.69c-1.1,0-2-.85-2-1.89s.9-1.89,2-1.89h21.69c1.1,0,2,.85,2,1.89s-.9,1.89-2,1.89Z" style="fill:#001464; stroke-width:0px;"/><path d="M138.82,14.24c1.01,0,1.83-.78,1.83-1.73s-.82-1.73-1.83-1.73-1.83.78-1.83,1.73.82,1.73,1.83,1.73Z" style="fill:#001464; stroke-width:0px;"/><path d="M259.47,135.69c-1.5-.68-3.19-1.02-5.02-1.02h-11.79V0H37.05v99.24c-12.76,8.56-21.12,22.64-21.12,38.53s8.35,29.97,21.12,38.53v7.3c-2.91,3.35-14.86,17.33-18.72,25.16-1.95,3.97-1.66,7.42.8,9.48,1.35,1.13,3.17,1.68,5.2,1.68,2.39,0,5.09-.77,7.65-2.29,1.51-.89,3.23-1.97,5.05-3.12v123.08h80.81l6.84,37.21c-5.22,1.26-10.1,1.92-13.42,2.31-2.77.33-4.85,2.66-4.73,5.3.18,3.8.53,10.61,1,15.19-1.29.43-2.57.86-3.83,1.29-14.73,5.01-15.18,5.76-15.19,6.76-.04.33.06.67.28.97.47.65,1.56,1.3,6.06,1.3h40.49c1.58,0,3.08-.65,4.11-1.78,1.03-1.14,1.48-2.63,1.24-4.11l-3.13-19.29c8.33-3.46,14.73-7.85,19.04-13.04,10.16-12.25,8.32-26.64,7.1-32.11h78.94v-113.36c1.62-.27,3.08-.89,4.22-1.84,2.62-2.18,3.04-5.63,1.16-9.44-1.19-2.42-3.16-5.43-5.39-8.53v-66.85h11.79c1.36,0,2.6.25,3.69.74,2.76,1.25,4.16,3.59,4.16,6.95,0,.8.69,1.46,1.54,1.46s1.54-.65,1.54-1.46c0-4.45-2.1-7.86-5.92-9.57h0ZM238.35,134.66h-4.11c-.64-9.29-4.13-17.85-9.65-24.92V4.07h13.76v130.59ZM220.29,196.71l-.57-.38c-3.4-2.31-7.37-4.54-10.87-6.5-4.13-2.32-8.71-4.89-10.5-6.7,8.45-2.32,15.98-6.71,21.94-12.53v26.12h0ZM197.09,180.43c-.84-1.89-2.23-2.72-3.12-3.07l-1.6-35.43-2.63.4-5.79-3.91-45.65,7.31c-.5-2.58-.77-5.23-.77-7.95,0-24.44,21.03-44.32,46.87-44.32s46.87,19.88,46.87,44.32c0,20.29-14.49,37.42-34.21,42.66h0ZM175.12,195.92c-.55.64-.81,1.41-.74,2.24.08,1.01.47,1.78,1.13,2.31-.22.34-.4.75-.47,1.23-.1.64-.02,1.64.89,2.72,1.34,1.6,6.99,1.52,16.79-.21l.68,15.19-59.02,14.38-13.52-67.47,11.19,68.19c-1.53.54-5.08,1.43-8.59-.32l-.15-.08-52.15-10.11-5.31-18.82c5.44.6,8.26.48,9.31-.77.9-1.08.99-2.07.89-2.72-.07-.48-.25-.88-.47-1.23.66-.53,1.05-1.3,1.13-2.31.07-.83-.19-1.6-.74-2.24.78-.66,1.41-1.66,1.37-3.13-.12-3.68-5.36-4.19-10.72-4.4l-1.62-.06c-1.03-.04-1.97-.07-2.82-.12l-9.91-38.23,55.23,5.5,11.56,54.99-8.85-53.43c1.13.48,2.62.8,4.53.62,3.44-.31,4.86-1.59,5.42-2.46l69.89-10.57,1.93,42.84c-1.92.43-4.48.8-7.49.92-5.36.21-10.61.73-10.72,4.4-.04,1.46.59,2.47,1.36,3.13h.01ZM115.4,131.59c1.66-1.08,7.45-3.82,19.45.34-.25,1.92-.39,3.87-.39,5.84,0,2.88.28,5.7.81,8.43l-17.22,2.76-.23.04-.2.11c-1.06.6-2.31.68-3.4.57,1.05-3.81,1.62-7.8,1.62-11.91,0-2.1-.16-4.16-.44-6.18ZM115.03,152.05c1.18,0,2.46-.21,3.65-.83l64.69-10.36,2.92,1.98-67.17,10.15h-.94l-.07.88c-.09.19-.73,1.2-3.62,1.46-3.46.32-4.91-1.52-4.96-1.6l-.32-.44-51.6-5.14,2.54-1.89,50.62,4.98c.57.21,2.28.8,4.26.8h0ZM41.36,4.07h178.93v100.87c-9.09-8.88-21.81-14.41-35.87-14.41-24.37,0-44.71,16.6-49.08,38.46-10.98-3.67-17.4-2.02-20.47-.5-4.57-21.62-24.79-37.96-48.98-37.96-8.91,0-17.28,2.23-24.53,6.11V4.07ZM19.01,137.77c0-24.44,21.03-44.32,46.87-44.32s46.87,19.88,46.87,44.32c0,3.86-.54,7.61-1.53,11.19l-51.84-5.1-5.3,3.96-5.07-.51,7.81,30.15c-.91.42-2.17,1.3-2.93,3.13-20.06-5.02-34.89-22.31-34.89-42.83h0ZM53.12,183.42c-1.02,3.5-3.41,7.67-10.72,12.63-.36.24-.7.47-1.05.71v-17.87c3.66,1.96,7.61,3.49,11.76,4.53h0ZM30.68,215.66c-3.76,2.23-7.84,2.57-9.92.84-1.59-1.33-1.66-3.78-.2-6.75,3.11-6.32,12.07-17.23,16.48-22.44v12.27c-.18.12-.38.24-.56.36-.38.24-.76.49-1.12.72-.28.05-.54.12-.81.18-.41.1-.8.21-1.19.34-.78.25-1.53.54-2.27.84-.73.32-1.45.66-2.14,1.04-.7.37-1.36.77-2.01,1.19.74-.24,1.49-.47,2.24-.65.75-.19,1.51-.33,2.27-.46.07-.01.15-.02.23-.03-2.89,2.04-5.1,3.99-6.88,6.75,3.24-2.42,7.7-4.56,13.05-8,1.75-1.12,3.73-2.4,5.97-3.92,9.03-6.13,11.16-11.27,12.06-15.5.31-1.45.98-2.21,1.55-2.61l2.12,8.18c-1.18-.14-2.03-.35-2.52-.7.39,1.89,2.92,3.16,7.84,3.34l1.61.06c3.87.15,8.31.54,8.36,2.15.03,1.08-.7,1.51-1.15,1.68-.42-.13-.8-.19-1.06-.19-.23,0-2.01-.15-3.88-.29-4.58-.36-11.15.48-12.73.46,1.14.44,8.24,1.52,12.53,1.85,3.07.24,3.89.3,4.04.3.02,0,1.73.31,1.65,1.29-.05.57-.09,1.11-2.19,1.04-1.39-.05-12.98-.68-16.43-1.12l2.18.4c.51.06,12.37,2.99,14.15,3.05.14,0,.28,0,.41,0,.28,0,.55-.02.81-.04.15.15.38.41.42.71.01.1.06.41-.35.91-1.35.83-9.67-.35-13.23-.86-.62-.09-1.19-.17-1.72-.24-4.18-.57-12.08,4.13-21.97,10.35-2.05,1.29-3.99,2.51-5.65,3.49v.02ZM41.36,211.82c6.39-3.95,13.59-8.11,16.58-7.69.53.07,1.1.16,1.71.24,1.27.18,2.45.34,3.55.49l5.97,21.14,53.3,10.33c1.91.92,3.81,1.22,5.49,1.22,2.97,0,5.29-.97,5.89-1.23l62.1-15.13-.77-17.29c8.55-.6,17.66,4.45,25.12,9.51v120.13H41.36v-121.7ZM146.35,363.48c-2.31,2.98-5.89,5.56-10.65,7.68l-5.45-33.58h20.79c.97,4.21,2.81,16.21-4.69,25.9h0ZM127.26,388.75c.25,1.37-.58,2.68-1.97,3.12-1.72.54-4.04,1.28-6.66,2.11l-.26-3.22c-.11-1.39.89-2.65,2.33-2.93,2.03-.41,4.09-.89,6.13-1.44l.44,2.37ZM109.02,382.3c-.07-1.46,1.04-2.71,2.57-2.89,3.34-.4,8.25-1.07,13.53-2.32l1.28,6.98c-2.07.57-4.16,1.07-6.21,1.47-2.64.53-4.48,2.85-4.27,5.38l.3,3.82c-2.01.65-4.13,1.34-6.27,2.04-.43-4.51-.76-10.87-.94-14.5h0ZM137.6,404.62c-.56.62-1.37.97-2.23.97h-40.49c-1.03,0-1.82-.03-2.41-.09,4.46-1.93,16.87-6.15,33.62-11.42,2.56-.8,4.08-3.21,3.62-5.73l-9.33-50.76h7.39l10.52,64.79c.13.8-.12,1.62-.68,2.23h0ZM154.68,368.26c-3.95,4.77-9.84,8.83-17.5,12.1l-1.1-6.78c5.47-2.35,9.59-5.27,12.24-8.71,7.89-10.17,6.33-22.33,5.23-27.27h7.62c1.07,4.65,3.23,18.92-6.51,30.67h0ZM224.6,333.51v-117.1c.66.47,1.29.94,1.91,1.39,2.49,1.81,4.63,3.37,6.38,4.41,1.74,1.03,3.62,1.69,5.47,2v109.31h-13.76ZM238.35,198.71c-4.74-6.05-9.31-11.25-9.65-11.64.15.17,12.94,18.39,17.11,26.86,1.4,2.86,1.21,5.24-.57,6.72-2.46,2.05-7.21,1.87-11.06-.41-1.64-.98-3.75-2.51-6.18-4.28-8.97-6.54-22.54-16.41-35.28-14.13-8.45,1.52-13.96,1.7-14.9,1.1-.27-.33-.39-.64-.35-.9.04-.3.26-.56.43-.72.26.02.52.04.81.04.14,0,.27,0,.41,0,1.79-.07,17.8-2.95,18.37-3.02-3.84.49-17.08.65-18.47.7-2.1.08-2.14-.46-2.19-1.04-.08-.98,1.63-1.29,1.62-1.29.28,0,1.51-.15,6.28-.71,3.88-.47,10.02-2.5,11.36-2.6-1.39.11-7.57-.2-11.67.29-2.78.33-5.66.68-5.97.69-.28,0-.66.06-1.1.2-.43-.16-1.18-.59-1.14-1.69.05-1.61,4.49-1.99,8.36-2.15,5.46-.21,10.58-2.07,10.98-4.49-.24.17-.64.36-1.17.56l-.29-6.53c.43.45.84,1.14,1.07,2.2.55,2.62,4.86,5.15,12.41,9.39,3.63,2.04,7.38,4.14,10.69,6.39l.82.55c8.49,5.76,11.03,6.4,16.25,11.09-1.87-2.91-3.6-4.81-6.26-6.93.48.05.95.11,1.43.19.86.15,1.72.33,2.56.58.85.23,1.68.55,2.5.9-.71-.51-1.46-1.01-2.25-1.43-.78-.44-1.61-.82-2.46-1.16-.84-.34-1.72-.64-2.61-.89-.76-.21-1.48-.38-2.3-.51-.43-.31-.89-.63-1.37-.96v-33.86c6.14-7.84,9.77-17.53,9.77-28.01v-.2h3.99v61.13-.02Z" style="fill:#001464; stroke-width:0px;"/><path d="M50.72,20.18v72.89l.4-.12c4.78-1.41,9.74-2.13,14.76-2.13,23.58,0,44.05,15.87,48.68,37.72l.08.38.36-.18c2.81-1.39,9.17-3.18,20.22.52l.34.11.07-.33c4.41-22.15,24.93-38.22,48.77-38.22,9.47,0,18.69,2.56,26.67,7.39l.47.29V20.18H50.72Z" style="fill:#001464; stroke-width:0px;"/><path d="M195.13,203.58l-.29.02.77,17.34-61.91,15.09c-.81.36-2.99,1.21-5.76,1.21-1.89,0-3.69-.4-5.34-1.19l-.04-.02-53.15-10.3-5.97-21.15-.2-.03c-1.1-.15-2.28-.3-3.55-.49-.61-.08-1.19-.16-1.71-.24-1.41-.19-3.73.52-7.09,2.18l-.17.08v102.53h160.82v-100.85l-.16-.08c-6.14-3.11-11.46-4.46-16.25-4.12h0Z" style="fill:#001464; stroke-width:0px;"/><path d="M115.17,129.81s4.97-3.96,19.82,0c0,0-11.68-5.37-19.82,0Z" style="fill:#fff; stroke-width:0px;"/><path d="M186.28,24.38H57.59v64.09C90.12,29.02,186.28,24.38,186.28,24.38Z" style="fill:#fff; stroke-width:0px;"/><path d="M186.28,24.38H57.59v64.09C90.12,29.02,186.28,24.38,186.28,24.38Z" style="fill:#001464; isolation:isolate; opacity:.8; stroke-width:0px;"/><path d="M152.24,326.7h-42.22c-3.02,0-5.49-2.33-5.49-5.19s2.47-5.19,5.49-5.19h42.22c3.02,0,5.49,2.33,5.49,5.19s-2.47,5.19-5.49,5.19Z" style="fill:#7399ef; stroke-width:0px;"/></svg>