<svg width="160" height="176" viewBox="0 0 160 176" fill="none" xmlns="http://www.w3.org/2000/svg">
<path d="M137.059 101.363L40.5267 96.6626L32.4385 143.436C31.0039 151.736 36.6534 159.606 44.9807 160.897L128.479 173.822C136.786 175.106 144.546 169.347 145.708 161.013L151.384 118.557C152.559 109.738 145.947 101.793 137.059 101.363Z" fill="#7399EF"/>
<path d="M130.801 175.188C129.968 175.188 129.121 175.12 128.294 174.997L44.8024 162.072C40.4577 161.402 36.6459 159.059 34.0842 155.487C31.5156 151.914 30.5183 147.562 31.2629 143.224L39.3511 96.4508C39.4536 95.8564 39.9864 95.4329 40.5875 95.4602L137.12 100.16C139.456 100.276 141.69 100.864 143.76 101.916C145.748 102.927 147.483 104.314 148.918 106.042C150.352 107.763 151.404 109.724 152.04 111.862C152.702 114.082 152.88 116.391 152.572 118.707L146.896 161.163V161.17C146.349 165.084 144.402 168.657 141.417 171.233C138.452 173.788 134.688 175.188 130.801 175.188ZM41.5234 97.9058L33.6197 143.641C32.9775 147.337 33.8314 151.053 36.0243 154.1C38.2103 157.147 41.4619 159.141 45.1713 159.715L128.67 172.64C129.38 172.749 130.098 172.804 130.815 172.804C137.68 172.804 143.583 167.667 144.532 160.849L150.209 118.4C150.735 114.472 149.628 110.626 147.087 107.579C144.546 104.532 140.973 102.749 137.011 102.558L41.5234 97.9058Z" fill="#000072"/>
<path d="M138.364 120.606L138.528 120.06L158.537 55.2309C159.514 52.0681 157.717 48.7208 154.547 47.778L87.0204 27.701C83.8712 26.7651 80.558 28.5617 79.6221 31.7109L49.7217 124.602L82.3341 147.207L119.257 141.899L138.364 120.606Z" fill="white"/>
<path d="M82.3418 148.402C82.1027 148.402 81.8636 148.327 81.6587 148.191L49.0462 125.586C48.6158 125.285 48.4246 124.739 48.5885 124.24L78.4821 31.3622C78.933 29.8594 79.8347 28.5751 81.0917 27.6529C82.3145 26.758 83.8173 26.2593 85.3271 26.2593C86.017 26.2593 86.7001 26.3617 87.3628 26.5599L154.89 46.6369C156.734 47.1834 158.244 48.4199 159.153 50.1141C160.061 51.8082 160.246 53.7551 159.679 55.5927L139.67 120.415L139.506 120.954C139.458 121.125 139.369 121.282 139.253 121.412L120.146 142.705C119.962 142.917 119.702 143.053 119.429 143.088L82.5057 148.395C82.4511 148.402 82.3964 148.402 82.3418 148.402ZM51.1297 124.131L82.6287 145.964L118.664 140.779L137.299 120.005L137.388 119.718C137.388 119.711 137.388 119.711 137.388 119.704L157.397 54.8754C157.773 53.6527 157.65 52.3615 157.049 51.2344C156.447 50.1072 155.436 49.2875 154.214 48.9186L86.6865 28.8415C86.2424 28.7117 85.7847 28.6434 85.3271 28.6434C83.2367 28.6434 81.3649 30.0438 80.7706 32.0454C80.7706 32.0522 80.7638 32.0659 80.7638 32.0727L51.1297 124.131Z" fill="#000072"/>
<path d="M148.268 107.462L108.387 135.095L139.729 170.932C139.729 170.932 144.196 169.32 145.795 160.903L151.383 118.597C151.383 118.604 152.749 112.606 148.268 107.462Z" fill="#7399EF"/>
<path d="M139.729 172.127C139.387 172.127 139.059 171.984 138.827 171.717L107.485 135.881C107.26 135.621 107.157 135.286 107.198 134.945C107.239 134.61 107.424 134.303 107.704 134.111L147.585 106.479C148.084 106.13 148.767 106.219 149.17 106.677C153.801 111.992 152.708 118.085 152.565 118.802L146.984 161.061C146.984 161.081 146.977 161.108 146.97 161.129C145.262 170.112 140.344 171.984 140.132 172.059C140.002 172.107 139.866 172.127 139.729 172.127ZM110.17 135.32L139.988 169.422C140.364 169.163 140.863 168.753 141.396 168.138C142.448 166.929 143.862 164.661 144.613 160.719L150.194 118.447C150.201 118.413 150.208 118.372 150.215 118.338C150.215 118.331 150.515 116.938 150.304 114.997C150.065 112.798 149.299 110.817 148.029 109.088L110.17 135.32Z" fill="#000072"/>
<g opacity="0.4">
<path d="M142.224 160.72L147.805 118.448C147.812 118.414 147.819 118.379 147.826 118.345C147.867 118.154 148.687 114.24 146.385 110.23L148.031 109.089C151.242 113.468 150.258 118.14 150.217 118.345C150.21 118.379 150.203 118.414 150.196 118.448L144.615 160.72C143.543 166.301 141.159 168.603 139.99 169.423L138.932 168.213C140.1 166.895 141.48 164.6 142.224 160.72Z" fill="white"/>
</g>
<path d="M74.6948 130.552L46.0991 96.7509L40.5248 96.6484L32.3068 144.939C32.3068 144.939 31.6032 152.173 36.3987 155.773L74.6948 130.552Z" fill="#7399EF"/>
<path d="M36.3993 156.976C36.1466 156.976 35.8938 156.894 35.682 156.737C30.4083 152.781 31.0846 145.158 31.1187 144.836C31.1187 144.809 31.1256 144.782 31.1324 144.754L39.3504 96.4642C39.4529 95.8836 39.9584 95.46 40.5527 95.4669L46.127 95.5693C46.4686 95.5762 46.7965 95.7265 47.0151 95.9929L75.6108 129.794C75.8294 130.054 75.9318 130.395 75.884 130.737C75.8362 131.078 75.6449 131.379 75.358 131.563L37.0551 156.791C36.857 156.914 36.6247 156.976 36.3993 156.976ZM33.4892 145.103C33.455 145.595 33.1271 151.135 36.4813 154.298L72.9124 130.306L45.5327 97.9535L41.5228 97.8851L33.4892 145.103Z" fill="#000072"/>
<g opacity="0.15">
<path d="M37.165 116.077L40.5192 96.6621L47.8286 97.0173L74.9283 52.3818L91.9381 90.0084C95.2718 97.3794 91.9859 106.082 84.615 109.416L56.033 122.334C54.0793 123.215 52.0299 123.632 50.0146 123.632C44.8024 123.632 39.8019 120.838 37.165 116.077Z" fill="#000072"/>
</g>
<g opacity="0.4">
<path d="M43.8322 99.3061L41.291 99.2652L41.5301 97.8716L45.54 97.9399L72.9129 130.3L71.0753 131.509L43.8322 99.3061Z" fill="white"/>
</g>
<path d="M139.477 63.811C139.395 63.811 139.306 63.7973 139.224 63.77L88.5904 47.9283C88.1396 47.7848 87.8868 47.3066 88.0303 46.8558C88.1737 46.4049 88.6519 46.1521 89.1028 46.2956L139.736 62.1373C140.187 62.2808 140.44 62.7589 140.296 63.2098C140.173 63.5787 139.839 63.811 139.477 63.811Z" fill="#000072"/>
<path d="M136.457 73.3401C136.375 73.3401 136.286 73.3265 136.204 73.2991L109.89 65.1221C109.44 64.9855 109.187 64.5005 109.33 64.0564C109.467 63.6056 109.952 63.3528 110.396 63.4963L136.71 71.6733C137.161 71.8099 137.414 72.2949 137.27 72.739C137.161 73.1079 136.826 73.3401 136.457 73.3401Z" fill="#000072"/>
<path d="M103.694 62.7379C103.605 62.7379 103.523 62.7243 103.434 62.697L85.3726 56.9245C84.9217 56.7811 84.6758 56.3029 84.8193 55.852C84.9627 55.4012 85.4409 55.1552 85.8918 55.2987L103.954 61.0711C104.404 61.2146 104.65 61.6928 104.507 62.1436C104.391 62.5057 104.056 62.7379 103.694 62.7379Z" fill="#000072"/>
<path d="M133.438 82.4192C133.356 82.4192 133.267 82.4055 133.185 82.3782L83.9109 66.9737C83.4601 66.8302 83.2073 66.352 83.3508 65.9012C83.4942 65.4503 83.9724 65.1975 84.4233 65.341L133.697 80.7455C134.148 80.889 134.401 81.3672 134.257 81.818C134.141 82.1869 133.8 82.4192 133.438 82.4192Z" fill="#000072"/>
<path d="M130.322 91.2245C130.24 91.2245 130.165 91.2109 130.083 91.1904L87.6267 78.8394C87.1759 78.7096 86.9163 78.2315 87.0461 77.7806C87.1759 77.3297 87.654 77.0701 88.1049 77.1999L130.561 89.5509C131.012 89.6807 131.272 90.1588 131.142 90.6097C131.033 90.9854 130.691 91.2245 130.322 91.2245Z" fill="#000072"/>
<path d="M127.297 100.72C127.222 100.72 127.147 100.713 127.072 100.693L94.6165 91.8325C94.1588 91.7096 93.8923 91.2382 94.0153 90.7805C94.1383 90.3228 94.6096 90.0564 95.0673 90.1794L127.523 99.0395C127.98 99.1625 128.247 99.6338 128.124 100.092C128.021 100.474 127.673 100.72 127.297 100.72Z" fill="#000072"/>
<path d="M124.12 110.646C124.044 110.646 123.969 110.639 123.887 110.612L108.503 106.322C108.052 106.192 107.786 105.728 107.909 105.27C108.039 104.819 108.503 104.553 108.961 104.675L124.345 108.966C124.796 109.095 125.062 109.56 124.939 110.018C124.837 110.4 124.495 110.646 124.12 110.646Z" fill="#000072"/>
<path d="M50.3433 118.126L89.3225 100.508C93.23 98.7389 94.9652 94.1415 93.2027 90.234L55.0227 5.76541C53.2534 1.85793 48.656 0.122788 44.7485 1.88525L5.76932 19.5031C1.86184 21.2724 0.126695 25.8698 1.88916 29.7773L40.0691 114.246C41.8384 118.153 46.4358 119.895 50.3433 118.126Z" fill="white"/>
<path d="M47.1522 120.012C43.6341 120.012 40.4303 117.942 38.982 114.738L0.79526 30.2762C-1.24046 25.7744 0.767935 20.4528 5.26974 18.4171L44.2489 0.799257C45.4171 0.273249 46.6604 0 47.9378 0C51.4559 0 54.6598 2.06987 56.108 5.27374L94.2879 89.7423C95.2716 91.9215 95.3536 94.3603 94.5066 96.6009C93.6595 98.8416 91.9926 100.618 89.8135 101.601L50.8343 119.219C49.6661 119.745 48.4228 120.012 47.1522 120.012ZM47.9378 2.39094C47.0019 2.39094 46.0934 2.58905 45.2326 2.97843L6.26027 20.5963C2.96077 22.0855 1.48522 25.9861 2.98127 29.2925L41.1612 113.761C42.2201 116.111 44.5768 117.628 47.1522 117.628C48.0881 117.628 48.9967 117.429 49.8506 117.04L88.8298 99.4222C90.4283 98.6981 91.6511 97.4002 92.2727 95.7538C92.8944 94.1075 92.8329 92.3246 92.1156 90.726L53.9357 6.25744C52.87 3.90748 50.52 2.39094 47.9378 2.39094Z" fill="#000072"/>
<path d="M128.622 172.906L45.1232 159.981C41.8579 159.476 38.9477 157.891 36.7754 155.472L82.4219 126.132C88.8911 121.979 97.4165 123.147 102.526 128.885L139.313 170.207C139.285 170.228 139.258 170.255 139.224 170.276C136.157 172.557 132.393 173.493 128.622 172.906Z" fill="#7399EF"/>
<path d="M130.821 174.272C130.028 174.272 129.229 174.211 128.437 174.088L44.9382 161.163C41.3996 160.616 38.2641 158.922 35.8868 156.272C35.6546 156.012 35.5453 155.664 35.5931 155.315C35.6409 154.967 35.839 154.66 36.1327 154.468L81.7793 125.128C84.4981 123.379 87.6405 122.457 90.8648 122.457C95.6604 122.457 100.244 124.513 103.428 128.093L140.214 169.415C140.439 169.668 140.542 169.996 140.508 170.331C140.473 170.665 140.303 170.966 140.036 171.171L140.023 171.184C139.995 171.205 139.968 171.225 139.941 171.246C137.27 173.22 134.114 174.272 130.821 174.272ZM38.6671 155.677C40.5184 157.337 42.7864 158.41 45.3003 158.799L128.799 171.724C129.468 171.827 130.145 171.881 130.814 171.881C133.191 171.881 135.487 171.232 137.516 169.996L101.638 129.685C98.9052 126.61 94.9773 124.855 90.858 124.855C88.0913 124.855 85.3998 125.647 83.0704 127.143L38.6671 155.677Z" fill="#000072"/>
<g opacity="0.4">
<path d="M99.2482 131.051C94.9582 126.235 88.1816 124.896 82.4774 127.526L83.0718 127.143C89.0833 123.284 96.8914 124.35 101.639 129.685L137.517 169.996C136.704 170.488 135.857 170.891 134.976 171.191L99.2482 131.051Z" fill="white"/>
</g>
<path d="M15.8445 29.8338C15.5166 29.8338 15.2092 29.6493 15.0657 29.3351C14.8676 28.9047 15.0589 28.3992 15.4892 28.2079L27.2322 22.8795C27.6626 22.6814 28.1681 22.8727 28.3593 23.3031C28.5574 23.7334 28.3662 24.239 27.9358 24.4302L16.1929 29.7586C16.0836 29.8064 15.9606 29.8338 15.8445 29.8338Z" fill="#000072"/>
<path d="M44.7399 94.9065C44.412 94.9065 44.1046 94.7221 43.9612 94.4078C43.7631 93.9775 43.9543 93.472 44.3847 93.2807L56.1277 87.9523C56.558 87.7542 57.0635 87.9455 57.2548 88.3758C57.4529 88.8062 57.2616 89.3117 56.8313 89.503L45.0883 94.8314C44.979 94.8792 44.8561 94.9065 44.7399 94.9065Z" fill="#000072"/>
<path d="M28.4954 59.7052C28.1675 59.7052 27.8601 59.5139 27.7166 59.1997C27.5254 58.7693 27.7166 58.2638 28.147 58.0725L60.657 43.5219C61.0874 43.3306 61.5929 43.5219 61.7842 43.9523C61.9754 44.3826 61.7842 44.8882 61.3538 45.0794L28.8438 59.63C28.7345 59.6847 28.6115 59.7052 28.4954 59.7052Z" fill="#000072"/>
<path d="M24.5394 51.1432C24.2115 51.1432 23.9041 50.9519 23.7607 50.6376C23.5694 50.2073 23.7607 49.7018 24.191 49.5105L56.701 34.9599C57.1314 34.7686 57.6369 34.9599 57.8282 35.3903C58.0195 35.8206 57.8282 36.3261 57.3978 36.5174L24.8878 51.068C24.7785 51.1227 24.6556 51.1432 24.5394 51.1432Z" fill="#000072"/>
<path d="M32.3207 68.2105C31.9928 68.2105 31.6854 68.0193 31.5419 67.705C31.3506 67.2747 31.5419 66.7691 31.9723 66.5779L64.4823 52.0273C64.9126 51.836 65.4182 52.0273 65.6094 52.4576C65.8007 52.888 65.6094 53.3935 65.1791 53.5848L32.6691 68.1354C32.5529 68.1832 32.4368 68.2105 32.3207 68.2105Z" fill="#000072"/>
<path d="M36.4751 77.193C36.1472 77.193 35.8398 77.0017 35.6964 76.6874C35.5051 76.2571 35.6964 75.7516 36.1267 75.5603L68.6367 61.0097C69.0671 60.8184 69.5726 61.0097 69.7639 61.4401C69.9552 61.8704 69.7639 62.3759 69.3335 62.5672L36.8235 77.1178C36.7074 77.1656 36.5913 77.193 36.4751 77.193Z" fill="#000072"/>
<path d="M40.3617 86.2174C40.0338 86.2174 39.7264 86.0261 39.5829 85.7119C39.3917 85.2815 39.5829 84.776 40.0133 84.5847L72.5233 70.0341C72.9537 69.8428 73.4592 70.0341 73.6504 70.4645C73.8417 70.8948 73.6505 71.4004 73.2201 71.5916L40.7101 86.1422C40.6008 86.19 40.4778 86.2174 40.3617 86.2174Z" fill="#000072"/>
<g opacity="0.2">
<path d="M67.5106 110.571L74.4648 118.516C76.2683 120.572 79.2057 121.207 81.6991 120.08L84.2062 118.946C91.0785 115.831 99.1599 117.252 104.563 122.519L105.684 123.612C107.699 125.572 110.78 125.941 113.191 124.5L142.286 107.012L140.578 113.501L108.286 135.204C108.286 135.204 101.237 124.882 93.039 123.858C93.039 123.858 87.2325 121.467 74.5946 130.689L60.2626 113.843L67.5106 110.571Z" fill="#000072"/>
</g>
<g opacity="0.2">
<path d="M113.914 131.611C113.914 131.611 130.78 159.893 146.834 153.061L145.297 165.87L139.832 170.994L108.408 135.129L113.914 131.611Z" fill="#000072"/>
</g>
<g opacity="0.2">
<path d="M39.8415 156.607L75.6578 133.585C75.651 133.572 75.651 133.565 75.6442 133.558C79.4355 140.82 93.2279 160.542 132.651 164.524L137.515 169.989C134.905 171.581 131.852 172.196 128.805 171.724L45.3065 158.8C43.0522 158.451 41.0028 157.55 39.2609 156.17C39.4521 156.32 39.6502 156.463 39.8415 156.607Z" fill="#000072"/>
</g>
<g opacity="0.2">
<path d="M34.8009 134.275C34.8009 134.275 46.8103 147.05 71.6897 127.103L74.593 130.689L36.3994 155.78C36.3994 155.78 28.9943 148.621 34.8009 134.275Z" fill="#000072"/>
</g>
</svg>
