<svg width="534" height="376" viewBox="0 0 534 376" fill="none" xmlns="http://www.w3.org/2000/svg">
<path d="M0 0H534V285C534 290.523 529.523 295 524 295H10C4.47715 295 0 290.523 0 285V0Z" fill="#F0F4FF"/>
<mask id="mask0_10777_2" style="mask-type:alpha" maskUnits="userSpaceOnUse" x="0" y="1" width="534" height="375">
<rect y="1" width="534" height="375" fill="#222326"/>
</mask>
<g mask="url(#mask0_10777_2)">
<path opacity="0.2" d="M267.485 376C324.086 376 369.97 372.893 369.97 369.06C369.97 365.227 324.086 362.12 267.485 362.12C210.884 362.12 165 365.227 165 369.06C165 372.893 210.884 376 267.485 376Z" fill="#1056FB"/>
<path d="M340.74 235.319V315.918H330.595V229.576C331.08 229.928 331.548 230.267 332.002 230.598C333.836 231.932 335.416 233.087 336.705 233.851C337.989 234.611 339.378 235.096 340.74 235.319Z" fill="#7399EF"/>
<path d="M340.74 73.0039V169.294H337.712C337.24 162.444 334.667 156.131 330.595 150.92V73.0039H340.74Z" fill="#7399EF"/>
<path d="M335.533 171.586C335.533 186.544 324.843 199.175 310.313 203.038C309.691 201.643 308.669 201.029 308.016 200.771L306.84 174.646L304.902 174.938L300.635 172.054L266.975 177.445C266.608 175.543 266.403 173.586 266.403 171.586C266.403 153.564 281.91 138.903 300.966 138.903C320.022 138.903 335.533 153.564 335.533 171.586Z" fill="url(#paint0_linear_10777_2)"/>
<path d="M327.418 227.339V315.917H195.486V226.18C200.198 223.266 205.505 220.206 207.715 220.511C208.101 220.566 208.528 220.626 208.977 220.687C209.917 220.824 210.784 220.94 211.596 221.047L215.995 236.631L255.297 244.245C256.704 244.919 258.097 245.146 259.337 245.146C261.534 245.146 263.241 244.434 263.681 244.237L309.469 233.077L308.897 220.326C315.202 219.88 321.921 223.605 327.418 227.339Z" fill="#7399EF"/>
<path d="M327.417 195.785V215.047L327 214.76C324.489 213.06 321.561 211.416 318.979 209.966C315.933 208.258 312.555 206.361 311.239 205.026C317.472 203.313 323.019 200.077 327.417 195.785Z" fill="#7399EF"/>
<path d="M307.091 220.562L307.595 231.76L264.071 242.365L254.108 192.621L262.356 242.901C261.225 243.301 258.615 243.957 256.023 242.665L255.91 242.61L217.457 235.159L213.539 221.283C217.548 221.725 219.631 221.639 220.403 220.716C221.07 219.918 221.129 219.188 221.057 218.712C221.007 218.36 220.871 218.06 220.712 217.806C221.197 217.416 221.483 216.849 221.542 216.107C221.592 215.497 221.402 214.931 220.993 214.459C221.57 213.974 222.033 213.231 221.996 212.154C221.915 209.441 218.047 209.059 214.093 208.905L212.899 208.862C212.141 208.832 211.447 208.806 210.82 208.776L203.517 180.587L244.239 184.638L252.764 225.189L246.241 185.793C247.067 186.14 248.175 186.381 249.582 186.252C252.119 186.02 253.163 185.08 253.581 184.436L305.116 176.646L306.537 208.227C305.116 208.549 303.237 208.819 301.017 208.905C297.063 209.059 293.196 209.441 293.11 212.154C293.078 213.231 293.541 213.974 294.117 214.459C293.709 214.931 293.518 215.497 293.568 216.107C293.627 216.849 293.909 217.416 294.399 217.806C294.24 218.06 294.104 218.36 294.054 218.712C293.981 219.188 294.036 219.918 294.707 220.716C295.693 221.892 299.864 221.841 307.091 220.562Z" fill="url(#paint1_linear_10777_2)"/>
<path d="M302.352 175.324L252.823 182.81L252.183 182.818L252.165 181.664C252.278 181.612 252.387 181.561 252.496 181.505L300.196 173.865L302.352 175.324Z" fill="white"/>
<path d="M333.641 207.952C333.832 208.21 336.156 211.515 338.825 215.54C341.58 219.695 344.703 224.618 346.242 227.738C347.277 229.846 347.132 231.605 345.829 232.691C344.018 234.202 340.509 234.073 337.667 232.395C336.455 231.674 334.908 230.545 333.11 229.236C326.492 224.416 316.487 217.133 307.095 218.819C300.862 219.935 296.8 220.068 296.11 219.626C295.91 219.382 295.824 219.159 295.846 218.961C295.878 218.742 296.042 218.545 296.16 218.429C296.35 218.446 296.546 218.459 296.759 218.459C296.859 218.459 296.959 218.459 297.063 218.459C298.357 218.407 309.823 216.347 310.581 216.236C309.156 216.407 306.028 216.528 303.123 216.605C300.2 216.682 297.503 216.725 296.99 216.742C295.442 216.802 295.411 216.403 295.379 215.978C295.32 215.253 296.577 215.025 296.573 215.025C296.777 215.025 297.689 214.918 301.203 214.502C304.063 214.158 308.593 212.661 309.578 212.583C309.401 212.596 309.12 212.6 308.761 212.6C307.031 212.6 303.477 212.497 300.976 212.798C298.92 213.043 296.8 213.296 296.573 213.309C296.369 213.309 296.083 213.356 295.765 213.455C295.447 213.334 294.902 213.012 294.925 212.206C294.961 211.021 298.239 210.738 301.089 210.626C305.111 210.467 308.893 209.098 309.192 207.308C309.015 207.437 308.72 207.575 308.33 207.72L308.112 202.909C308.43 203.244 308.738 203.75 308.902 204.527C309.31 206.454 312.483 208.321 318.053 211.446C320.731 212.948 323.496 214.502 325.942 216.158L326.542 216.57C332.806 220.815 334.672 221.292 338.521 224.747C337.831 223.674 337.168 222.79 336.433 221.974C335.697 221.163 334.889 220.425 333.909 219.639C334.263 219.678 334.617 219.721 334.967 219.781C335.602 219.888 336.233 220.026 336.855 220.21C337.481 220.386 338.09 220.622 338.698 220.871C338.167 220.498 337.622 220.129 337.036 219.82C336.46 219.498 335.852 219.214 335.23 218.961C334.603 218.708 333.959 218.489 333.301 218.304C332.747 218.15 332.207 218.021 331.607 217.922C331.285 217.699 330.949 217.459 330.595 217.219V192.248C335.121 186.467 337.804 179.321 337.804 171.591C337.804 171.539 337.804 171.492 337.804 171.445H340.745V216.519C337.309 212.133 333.995 208.351 333.646 207.957L333.641 207.952Z" fill="#7399EF"/>
<path d="M283.844 318.92C284.629 322.35 286.227 332.874 279.046 341.535C276.132 345.05 271.792 348.041 266.15 350.453L265.337 345.449C269.368 343.719 272.4 341.561 274.366 339.028C280.181 331.526 279.032 322.564 278.224 318.92H283.844Z" fill="#7399EF"/>
<path d="M266.95 366.694C267.045 367.287 266.864 367.887 266.451 368.342C266.038 368.797 265.438 369.059 264.803 369.059H234.948C234.185 369.059 233.604 369.033 233.164 368.995C236.455 367.57 245.601 364.454 257.953 360.574C259.841 359.977 260.963 358.205 260.622 356.351L253.74 318.92H259.192L266.95 366.694Z" fill="#7399EF"/>
<path d="M264.951 177.767C264.56 175.715 264.361 173.638 264.361 171.586C264.361 170.217 264.456 168.813 264.651 167.303L264.674 167.135L264.506 167.075C255.473 163.946 251.083 166.114 249.953 166.852L249.839 166.925L249.858 167.054C250.075 168.595 250.184 170.118 250.184 171.582C250.184 174.526 249.785 177.462 249 180.307L248.932 180.548L249.195 180.573C249.413 180.595 249.621 180.608 249.826 180.608C250.602 180.608 251.278 180.449 251.846 180.127L251.95 180.063L264.996 177.973L264.955 177.758L264.951 177.767Z" fill="#001464"/>
<path d="M257.252 348.051L258.197 353.197C256.671 353.613 255.132 353.978 253.616 354.283C251.669 354.673 250.316 356.381 250.466 358.253L250.688 361.073C249.209 361.549 247.643 362.06 246.063 362.579C245.745 359.257 245.5 354.562 245.377 351.888C245.327 350.811 246.14 349.896 247.275 349.759C249.74 349.467 253.358 348.978 257.252 348.051Z" fill="#7399EF"/>
<path d="M252.164 181.664L252.183 182.818H252.133L252.078 183.467C252.01 183.604 251.538 184.346 249.405 184.544C246.853 184.776 245.787 183.415 245.75 183.368L245.514 183.042L207.466 179.252L209.336 177.857L246.663 181.527C247.085 181.685 248.347 182.115 249.804 182.115C250.567 182.115 251.384 181.994 252.164 181.664Z" fill="white"/>
<path d="M248.139 171.586C248.139 174.436 247.739 177.196 247.008 179.835L208.787 176.076L204.879 178.994L201.138 178.621L206.899 200.857C206.227 201.162 205.296 201.814 204.742 203.166C189.949 199.462 179.013 186.715 179.013 171.586C179.013 153.564 194.515 138.903 213.576 138.903C232.637 138.903 248.139 153.564 248.139 171.586Z" fill="url(#paint2_linear_10777_2)"/>
<path d="M218.35 218.459C218.558 218.459 218.754 218.446 218.944 218.429C219.053 218.537 219.226 218.73 219.257 218.953C219.266 219.03 219.303 219.253 218.999 219.627C218.009 220.24 211.872 219.365 209.244 218.991C208.794 218.927 208.368 218.867 207.973 218.811C204.89 218.391 199.071 221.859 191.781 226.442C190.265 227.395 188.839 228.292 187.618 229.013C184.845 230.657 181.835 230.91 180.301 229.631C179.134 228.657 179.08 226.841 180.156 224.653C182.448 219.991 189.053 211.948 192.307 208.107V217.155C192.171 217.245 192.03 217.339 191.894 217.425C191.613 217.605 191.336 217.781 191.068 217.957C190.859 217.996 190.673 218.043 190.473 218.09C190.174 218.167 189.883 218.249 189.597 218.339C189.025 218.524 188.472 218.734 187.927 218.966C187.391 219.202 186.86 219.446 186.352 219.73C185.843 220 185.353 220.301 184.872 220.605C185.421 220.425 185.97 220.258 186.524 220.125C187.078 219.983 187.641 219.88 188.195 219.785C188.249 219.777 188.308 219.773 188.363 219.764C186.229 221.266 184.604 222.704 183.297 224.743C184.491 223.854 185.911 223.013 187.523 222.077C189.139 221.142 190.946 220.112 192.916 218.841C194.205 218.013 195.666 217.073 197.314 215.953C203.973 211.433 205.549 207.639 206.207 204.523C206.434 203.455 206.933 202.888 207.346 202.596L208.912 208.631C208.045 208.528 207.419 208.369 207.051 208.111C207.196 208.807 207.732 209.39 208.685 209.815C209.643 210.24 211.019 210.506 212.83 210.575L214.014 210.622C216.865 210.734 220.147 211.017 220.183 212.202C220.206 212.996 219.666 213.322 219.335 213.446C219.026 213.352 218.744 213.305 218.549 213.305C218.463 213.305 218.095 213.275 217.573 213.236C217.051 213.197 216.375 213.142 215.685 213.09C212.308 212.824 207.464 213.442 206.298 213.433C206.715 213.596 208.236 213.875 210.047 214.146C211.854 214.416 213.955 214.678 215.535 214.798C217.796 214.978 218.404 215.021 218.518 215.021C218.527 215.021 219.789 215.249 219.73 215.974C219.698 216.399 219.666 216.794 218.118 216.738C217.092 216.7 208.549 216.24 206.003 215.914L207.609 216.202C207.986 216.253 216.724 218.403 218.045 218.455C218.15 218.455 218.25 218.455 218.35 218.455V218.459Z" fill="#7399EF"/>
<path d="M204.165 205.244C203.412 207.824 201.651 210.901 196.258 214.558C195.995 214.738 195.745 214.906 195.486 215.077V201.901C198.187 203.343 201.097 204.476 204.165 205.244Z" fill="#7399EF"/>
<path d="M327.418 73.0039V147.384C320.718 140.838 311.339 136.757 300.967 136.757C282.996 136.757 267.998 148.993 264.784 165.114C256.681 162.405 251.951 163.624 249.691 164.745C246.318 148.804 231.411 136.757 213.576 136.757C207.003 136.757 200.834 138.4 195.486 141.263V73.0039H327.418Z" fill="#7399EF"/>
<path d="M188.863 190.128C188.863 190.128 175.472 174.247 187.501 154.933C199.53 135.62 228.682 145.277 228.682 145.277C228.682 145.277 201.015 142.337 191.132 157.509C181.881 171.711 188.863 190.128 188.863 190.128Z" fill="white"/>
<path d="M274.943 154.934C269.573 163.556 269.269 171.492 270.581 177.638C271.67 177.497 272.75 177.304 273.831 177.093C273.549 171.076 274.435 163.87 278.579 157.505C288.461 142.333 316.128 145.273 316.128 145.273C316.128 145.273 286.977 135.616 274.947 154.93L274.943 154.934Z" fill="white"/>
<path d="M320.754 211.845V199.703L309.791 204.793C309.791 204.793 314.871 209.493 320.754 211.845Z" fill="#001464"/>
<path d="M202.627 210.037V203.856L205.586 204.474L202.627 210.037Z" fill="#001464"/>
<path d="M253.866 326.689C253.866 326.689 258.22 325.853 261.692 329.934L260.067 317.578H252.314L253.866 326.685V326.689Z" fill="#7399EF"/>
<path d="M278.038 327.054C278.038 327.054 283.036 327.496 284.561 331.646C284.561 331.646 285.619 327.251 285.619 323.758C285.619 320.264 284.561 317.582 284.561 317.582L276.972 317.998C276.972 317.998 278.302 321.019 278.034 327.054H278.038Z" fill="#7399EF"/>
<path d="M262.5 80.6135H246.504C245.691 80.6135 245.028 79.9869 245.028 79.2186C245.028 78.4504 245.691 77.8237 246.504 77.8237H262.5C263.313 77.8237 263.976 78.4504 263.976 79.2186C263.976 79.9869 263.313 80.6135 262.5 80.6135Z" fill="#001464"/>
<path d="M267.362 80.4975C268.109 80.4975 268.715 79.9248 268.715 79.2185C268.715 78.5121 268.109 77.9395 267.362 77.9395C266.615 77.9395 266.01 78.5121 266.01 79.2185C266.01 79.9248 266.615 80.4975 267.362 80.4975Z" fill="#001464"/>
<path d="M356.32 170.05C355.213 169.552 353.969 169.299 352.621 169.299H343.923V70H192.318V143.178C182.908 149.491 176.748 159.869 176.748 171.586C176.748 183.303 182.904 193.686 192.318 199.995V205.377C190.176 207.845 181.36 218.154 178.519 223.927C177.08 226.854 177.293 229.399 179.109 230.918C180.103 231.751 181.447 232.159 182.945 232.159C184.71 232.159 186.694 231.592 188.587 230.468C189.699 229.811 190.97 229.013 192.314 228.167V318.917H251.902L256.945 346.351C253.096 347.278 249.496 347.763 247.054 348.055C245.011 348.299 243.477 350.016 243.568 351.96C243.699 354.763 243.958 359.785 244.303 363.162C243.35 363.48 242.406 363.798 241.48 364.111C230.621 367.802 230.29 368.356 230.281 369.098C230.254 369.343 230.326 369.596 230.485 369.815C230.835 370.291 231.638 370.776 234.952 370.776H264.807C265.974 370.776 267.077 370.296 267.835 369.463C268.593 368.626 268.929 367.523 268.752 366.433L266.441 352.209C272.583 349.656 277.304 346.424 280.482 342.591C287.976 333.556 286.614 322.947 285.72 318.917H343.923V235.331C345.117 235.129 346.193 234.678 347.037 233.974C348.967 232.365 349.28 229.824 347.895 227.013C347.019 225.227 345.567 223.013 343.923 220.725V171.436H352.621C353.624 171.436 354.541 171.621 355.34 171.981C357.378 172.9 358.408 174.625 358.408 177.106C358.408 177.698 358.917 178.179 359.543 178.179C360.17 178.179 360.678 177.698 360.678 177.106C360.678 173.823 359.13 171.312 356.316 170.046L356.32 170.05ZM340.746 169.294H337.718C337.246 162.445 334.672 156.131 330.6 150.921V73.0044H340.746V169.294ZM327.427 215.047L327.01 214.764C324.5 213.06 321.576 211.42 318.993 209.969C315.947 208.257 312.57 206.364 311.254 205.029C317.482 203.317 323.033 200.081 327.432 195.789V215.051L327.427 215.047ZM310.323 203.042C309.701 201.647 308.68 201.034 308.026 200.776L306.851 174.651L304.912 174.943L300.645 172.059L266.986 177.449C266.618 175.548 266.414 173.591 266.414 171.591C266.414 153.569 281.921 138.912 300.977 138.912C320.033 138.912 335.539 153.573 335.539 171.591C335.539 186.548 324.854 199.179 310.319 203.046L310.323 203.042ZM294.127 214.459C293.718 214.931 293.528 215.497 293.578 216.107C293.637 216.854 293.923 217.416 294.408 217.807C294.249 218.06 294.113 218.36 294.063 218.712C293.991 219.184 294.05 219.918 294.717 220.716C295.702 221.892 299.874 221.841 307.1 220.562L307.604 231.76L264.085 242.365L254.117 192.617L262.365 242.897C261.235 243.296 258.62 243.953 256.033 242.661L255.919 242.605L217.466 235.155L213.549 221.279C217.557 221.721 219.636 221.635 220.412 220.712C221.08 219.914 221.139 219.184 221.066 218.708C221.012 218.356 220.88 218.055 220.721 217.802C221.207 217.412 221.493 216.845 221.552 216.103C221.602 215.493 221.411 214.927 221.003 214.454C221.579 213.97 222.042 213.227 222.01 212.15C221.924 209.437 218.057 209.06 214.103 208.905L212.909 208.858C212.151 208.828 211.456 208.806 210.83 208.772L203.526 180.582L244.253 184.638L252.773 225.184L246.25 185.788C247.081 186.14 248.184 186.376 249.591 186.248C252.129 186.016 253.173 185.076 253.59 184.432L305.121 176.642L306.542 208.227C305.126 208.544 303.242 208.819 301.022 208.905C297.068 209.06 293.201 209.441 293.115 212.15C293.083 213.227 293.546 213.97 294.118 214.454L294.127 214.459ZM250.091 167.028C251.312 166.23 255.583 164.213 264.435 167.277C264.249 168.689 264.144 170.127 264.144 171.586C264.144 173.711 264.353 175.788 264.739 177.805L252.043 179.84L251.875 179.866L251.729 179.947C250.949 180.389 250.027 180.445 249.224 180.368C250 177.561 250.417 174.617 250.417 171.586C250.417 170.041 250.299 168.522 250.091 167.028ZM249.814 182.115C250.685 182.115 251.629 181.96 252.506 181.505L300.205 173.865L302.361 175.325L252.832 182.81H252.142L252.088 183.462C252.02 183.6 251.548 184.346 249.419 184.54C246.868 184.776 245.801 183.415 245.76 183.364L245.524 183.037L207.475 179.248L209.346 177.853L246.673 181.522C247.095 181.681 248.357 182.11 249.814 182.11V182.115ZM195.496 73.0044H327.427V147.384C320.727 140.839 311.349 136.757 300.977 136.757C283.005 136.757 268.007 148.994 264.789 165.114C256.691 162.406 251.956 163.625 249.696 164.745C246.323 148.805 231.416 136.757 213.581 136.757C207.008 136.757 200.839 138.401 195.496 141.264V73.0044ZM179.018 171.586C179.018 153.564 194.525 138.907 213.581 138.907C232.637 138.907 248.143 153.569 248.143 171.586C248.143 174.436 247.744 177.196 247.013 179.836L208.792 176.076L204.883 178.994L201.143 178.621L206.903 200.853C206.232 201.162 205.301 201.81 204.743 203.162C189.953 199.458 179.014 186.711 179.014 171.582L179.018 171.586ZM204.171 205.244C203.422 207.828 201.656 210.901 196.263 214.558C196 214.738 195.746 214.905 195.491 215.077V201.901C198.192 203.347 201.102 204.476 204.166 205.244H204.171ZM187.625 229.017C184.851 230.661 181.842 230.914 180.312 229.635C179.141 228.657 179.086 226.845 180.167 224.656C182.459 219.995 189.064 211.952 192.318 208.111V217.158C192.182 217.249 192.037 217.339 191.905 217.425C191.624 217.605 191.347 217.785 191.079 217.957C190.87 217.995 190.684 218.043 190.485 218.09C190.185 218.167 189.894 218.249 189.608 218.339C189.036 218.523 188.478 218.734 187.938 218.961C187.398 219.197 186.871 219.446 186.363 219.725C185.85 219.995 185.36 220.296 184.878 220.601C185.428 220.425 185.977 220.257 186.531 220.12C187.085 219.978 187.643 219.875 188.201 219.781C188.256 219.772 188.315 219.768 188.369 219.759C186.236 221.262 184.611 222.699 183.299 224.738C185.686 222.957 188.977 221.377 192.922 218.841C194.211 218.013 195.673 217.068 197.321 215.952C203.98 211.433 205.551 207.639 206.213 204.523C206.44 203.454 206.94 202.892 207.357 202.596L208.923 208.63C208.056 208.527 207.43 208.373 207.062 208.111C207.348 209.502 209.214 210.442 212.841 210.575L214.03 210.617C216.881 210.729 220.158 211.012 220.195 212.201C220.217 212.995 219.677 213.317 219.35 213.442C219.042 213.347 218.76 213.3 218.565 213.3C218.397 213.296 217.085 213.193 215.701 213.085C212.323 212.819 207.48 213.437 206.313 213.429C207.153 213.755 212.391 214.549 215.551 214.794C217.811 214.97 218.42 215.012 218.533 215.017C218.547 215.017 219.809 215.249 219.75 215.97C219.713 216.39 219.682 216.789 218.138 216.734C217.112 216.695 208.569 216.236 206.023 215.909L207.63 216.201C208.006 216.249 216.749 218.403 218.066 218.45C218.17 218.45 218.27 218.455 218.37 218.455C218.579 218.455 218.774 218.442 218.964 218.425C219.073 218.532 219.246 218.725 219.278 218.948C219.287 219.021 219.323 219.249 219.019 219.618C218.025 220.231 211.892 219.36 209.264 218.983C208.81 218.918 208.383 218.858 207.993 218.802C204.911 218.382 199.087 221.85 191.796 226.433C190.285 227.386 188.855 228.283 187.634 229.004L187.625 229.017ZM195.496 226.184C200.208 223.27 205.514 220.206 207.72 220.515C208.111 220.566 208.533 220.631 208.982 220.691C209.922 220.824 210.789 220.944 211.602 221.051L216 236.635L255.302 244.249C256.709 244.927 258.107 245.151 259.346 245.151C261.539 245.151 263.25 244.438 263.686 244.241L309.474 233.082L308.902 220.33C315.208 219.884 321.926 223.609 327.423 227.343V315.921H195.496V226.184ZM272.91 338.016C271.208 340.213 268.57 342.115 265.057 343.681L261.035 318.921H276.364C277.082 322.028 278.439 330.874 272.905 338.016H272.91ZM258.838 356.647C259.024 357.656 258.411 358.626 257.385 358.948C256.114 359.347 254.408 359.888 252.474 360.506L252.283 358.128C252.201 357.106 252.941 356.175 253.999 355.965C255.497 355.664 257.013 355.308 258.516 354.9L258.838 356.647ZM245.383 351.892C245.333 350.814 246.15 349.896 247.281 349.763C249.746 349.471 253.364 348.977 257.258 348.055L258.202 353.201C256.677 353.617 255.138 353.986 253.622 354.287C251.675 354.677 250.322 356.385 250.472 358.257L250.694 361.076C249.215 361.553 247.648 362.064 246.069 362.583C245.751 359.261 245.506 354.566 245.379 351.892H245.383ZM266.46 368.347C266.046 368.802 265.447 369.064 264.812 369.064H234.956C234.194 369.064 233.613 369.038 233.177 368.995C236.464 367.574 245.615 364.458 257.966 360.574C259.855 359.982 260.976 358.205 260.636 356.351L253.754 318.921H259.206L266.963 366.695C267.059 367.287 266.877 367.888 266.464 368.343L266.46 368.347ZM279.056 341.535C276.142 345.05 271.802 348.046 266.155 350.454L265.343 345.454C269.374 343.724 272.411 341.565 274.372 339.033C280.187 331.531 279.038 322.569 278.23 318.925H283.85C284.635 322.354 286.233 332.878 279.052 341.539L279.056 341.535ZM330.605 315.916V229.575C331.091 229.923 331.558 230.266 332.012 230.597C333.846 231.931 335.426 233.082 336.715 233.846C338 234.605 339.384 235.095 340.75 235.318V315.916H330.605ZM340.746 216.519C337.251 212.06 333.882 208.223 333.633 207.939C333.742 208.064 343.174 221.498 346.248 227.742C347.283 229.85 347.137 231.605 345.83 232.695C344.019 234.206 340.51 234.077 337.673 232.395C336.461 231.674 334.908 230.545 333.115 229.24C326.497 224.42 316.492 217.137 307.1 218.819C300.868 219.94 296.805 220.073 296.115 219.626C295.915 219.382 295.829 219.158 295.856 218.961C295.888 218.742 296.047 218.545 296.17 218.429C296.36 218.446 296.555 218.459 296.769 218.459C296.869 218.459 296.968 218.459 297.073 218.455C298.394 218.403 310.201 216.279 310.618 216.227C307.79 216.588 298.022 216.703 297 216.742C295.452 216.802 295.421 216.403 295.389 215.978C295.33 215.253 296.592 215.025 296.583 215.025C296.787 215.025 297.699 214.918 301.213 214.502C304.073 214.158 308.603 212.66 309.592 212.583C308.566 212.665 304.014 212.437 300.986 212.798C298.934 213.042 296.81 213.296 296.583 213.309C296.378 213.309 296.092 213.356 295.775 213.454C295.457 213.334 294.908 213.017 294.935 212.21C294.971 211.021 298.249 210.742 301.099 210.626C305.121 210.467 308.902 209.098 309.197 207.313C309.02 207.437 308.725 207.579 308.335 207.725L308.117 202.913C308.435 203.248 308.739 203.755 308.907 204.531C309.315 206.463 312.488 208.326 318.058 211.454C320.732 212.957 323.501 214.51 325.943 216.167L326.547 216.575C332.807 220.819 334.677 221.296 338.526 224.755C337.146 222.609 335.871 221.21 333.914 219.648C334.268 219.686 334.618 219.729 334.972 219.789C335.607 219.897 336.238 220.034 336.86 220.219C337.487 220.39 338.095 220.626 338.703 220.88C338.177 220.506 337.627 220.137 337.046 219.828C336.47 219.506 335.862 219.223 335.235 218.97C334.613 218.716 333.969 218.498 333.31 218.313C332.752 218.158 332.216 218.03 331.613 217.935C331.295 217.708 330.955 217.472 330.6 217.227V192.261C335.126 186.479 337.804 179.333 337.804 171.604C337.804 171.556 337.804 171.509 337.804 171.458H340.746V216.532V216.519Z" fill="#001464"/>
<path d="M202.399 84.8804V138.629L202.694 138.543C206.217 137.5 209.876 136.972 213.575 136.972C230.961 136.972 246.059 148.672 249.468 164.788L249.527 165.067L249.795 164.934C251.865 163.908 256.558 162.591 264.706 165.316L264.956 165.398L265.006 165.153C268.261 148.822 283.386 136.972 300.967 136.972C307.948 136.972 314.748 138.856 320.631 142.418L320.981 142.629V84.8804H202.399Z" fill="#001464"/>
<path d="M308.88 220.111L308.662 220.128L309.234 232.914L263.582 244.043C262.987 244.309 261.38 244.931 259.333 244.931C257.939 244.931 256.614 244.635 255.397 244.051L255.37 244.038L216.177 236.446L211.774 220.853L211.624 220.832C210.812 220.725 209.945 220.609 209.005 220.471C208.556 220.411 208.129 220.351 207.743 220.295C206.704 220.154 204.992 220.677 202.518 221.905L202.396 221.965V297.568H320.977V223.21L320.859 223.15C316.333 220.858 312.411 219.862 308.875 220.115L308.88 220.111Z" fill="#001464"/>
<path d="M249.918 165.715C249.918 165.715 253.586 162.796 264.53 165.715C264.53 165.715 255.915 161.753 249.918 165.715Z" fill="white"/>
<path d="M302.351 87.9785H207.466V135.237C231.447 91.3992 302.351 87.9785 302.351 87.9785Z" fill="white"/>
<path opacity="0.8" d="M302.351 87.9785H207.466V135.237C231.447 91.3992 302.351 87.9785 302.351 87.9785Z" fill="#001464"/>
<path d="M277.257 310.894H246.126C243.902 310.894 242.082 309.173 242.082 307.07C242.082 304.967 243.902 303.246 246.126 303.246H277.257C279.481 303.246 281.302 304.967 281.302 307.07C281.302 309.173 279.481 310.894 277.257 310.894Z" fill="#7399EF"/>
</g>
<defs>
<linearGradient id="paint0_linear_10777_2" x1="336.629" y1="168.836" x2="210.98" y2="162.085" gradientUnits="userSpaceOnUse">
<stop stop-color="#CEDDFE"/>
<stop offset="1" stop-color="#7399EF"/>
</linearGradient>
<linearGradient id="paint1_linear_10777_2" x1="158.374" y1="209.983" x2="331.381" y2="209.36" gradientUnits="userSpaceOnUse">
<stop offset="0.317708" stop-color="#E43425"/>
<stop offset="0.71875" stop-color="#441FD8"/>
<stop offset="1" stop-color="#0A26B8"/>
</linearGradient>
<linearGradient id="paint2_linear_10777_2" x1="249.234" y1="168.896" x2="123.592" y2="162.159" gradientUnits="userSpaceOnUse">
<stop stop-color="#CEDDFE"/>
<stop offset="1" stop-color="#7399EF"/>
</linearGradient>
</defs>
</svg>
