<svg width="653" height="95" viewBox="0 0 653 95" fill="none" xmlns="http://www.w3.org/2000/svg">
	<g clip-path="url(#clip0_2015_963)">
		<path d="M27.1398 41.6702H29.1998H29.2398H31.2898H32.1598H34.2298H34.2598H36.3298H38.3998L31.7198 20.2002L31.5298 20.8202L30.9098 22.8202L25.0898 41.6702H27.1398Z" fill="url(#paint0_linear_2015_963)" />
		<path d="M63.25 72.5601C63.62 72.0201 63.71 71.3401 63.48 70.7201L62 66.7101C62.5 66.6101 62.95 66.3301 63.25 65.9001C63.62 65.3601 63.71 64.6801 63.48 64.0601L40.61 2.1601C40.32 1.3701 39.57 0.850098 38.73 0.850098H24.7C23.86 0.850098 23.11 1.3701 22.82 2.1601L0.120023 64.0701C-0.0999766 64.6801 -0.0199766 65.3701 0.360023 65.9001C0.660023 66.3201 1.10002 66.6001 1.60002 66.7101L0.130023 70.7301C-0.0899766 71.3401 -0.00997657 72.0301 0.370023 72.5601C0.670023 72.9801 1.11002 73.2601 1.61002 73.3701L0.140023 77.3901C-0.0799766 78.0001 2.34246e-05 78.6901 0.380023 79.2201C0.680023 79.6401 1.12002 79.9201 1.62002 80.0301L0.150023 84.0501C-0.0699766 84.6601 0.0100234 85.3501 0.390023 85.8801C0.690023 86.3001 1.13002 86.5801 1.63002 86.6901L0.160023 90.7101C-0.0599766 91.3201 0.0200234 92.0101 0.400023 92.5401C0.770023 93.0801 1.39002 93.3901 2.04002 93.3901H17.99C18.87 93.3901 19.64 92.8201 19.9 91.9801L23.04 81.8301H40.55L43.72 91.9901C43.98 92.8201 44.75 93.3901 45.63 93.3901H61.66C62.31 93.3901 62.93 93.0701 63.3 92.5301C63.67 91.9901 63.76 91.3101 63.53 90.6901L62.05 86.6801C62.55 86.5801 63 86.3001 63.3 85.8701C63.67 85.3301 63.76 84.6501 63.53 84.0301L62.05 80.0201C62.55 79.9201 63 79.6401 63.3 79.2101C63.67 78.6701 63.76 77.9901 63.53 77.3701L62.05 73.3601C62.55 73.2601 63 72.9801 63.3 72.5501L63.25 72.5601ZM2.00002 64.7601L24.71 2.8501H38.74L61.62 64.7601H45.59L41.98 53.2001H21.53L17.96 64.7601H2.00002ZM21.55 59.8501L22.99 55.1901H40.5L41.96 59.8501H21.56H21.55ZM40.49 61.8501L41.94 66.5101H21.54L22.98 61.8501H40.49ZM22.98 68.5101H40.49L41.95 73.1701H21.55L22.99 68.5101H22.98ZM1.99002 71.4201L3.70002 66.7601H17.94C18.74 66.7601 19.44 66.2701 19.75 65.5501L17.94 71.4201H2.00002H1.99002ZM1.99002 78.0801L3.70002 73.4201H17.94C18.74 73.4201 19.44 72.9301 19.75 72.2101L17.94 78.0801H2.00002H1.99002ZM1.99002 84.7401L3.70002 80.0801H17.94C18.74 80.0801 19.44 79.5901 19.75 78.8701L17.94 84.7401H2.00002H1.99002ZM17.94 91.4001H2.00002L3.71002 86.7401H17.95C18.75 86.7401 19.45 86.2501 19.76 85.5301L17.95 91.4001H17.94ZM21.55 79.8401L22.99 75.1801H40.5L41.96 79.8401H21.56H21.55ZM45.58 91.4001L43.71 85.4201C44 86.2101 44.73 86.7401 45.58 86.7401H59.89L61.61 91.4001H45.58ZM59.15 84.7401H45.58L43.71 78.7601C44 79.5501 44.73 80.0801 45.58 80.0801H59.89L61.61 84.7401H59.15ZM59.15 78.0801H45.58L43.71 72.1001C44 72.8901 44.73 73.4201 45.58 73.4201H59.89L61.61 78.0801H59.15ZM59.15 71.4201H45.58L43.71 65.4401C44 66.2301 44.73 66.7601 45.58 66.7601H59.89L61.61 71.4201H59.15Z" fill="url(#paint1_linear_2015_963)" />
		<path d="M124.4 0.850098H109.48C108.38 0.850098 107.48 1.7501 107.48 2.8501V43.2901C107.48 46.5801 106.86 48.9101 105.64 50.2201C104.44 51.5101 102.62 52.1401 100.09 52.1401C95.0896 52.1401 92.7997 49.6101 92.6497 43.9501V2.8501C92.6497 1.7501 91.7497 0.850098 90.6497 0.850098H75.6396C74.5396 0.850098 73.6396 1.7501 73.6396 2.8501V70.3001C73.7296 77.6801 76.1896 83.5801 80.9296 87.8601C85.6296 92.1001 92.0697 94.2401 100.08 94.2401C105.35 94.2401 110 93.2901 113.91 91.4101C117.92 89.4901 121.04 86.6401 123.19 82.9401C125.32 79.2901 126.4 74.9401 126.4 70.0101V2.8501C126.4 1.7501 125.5 0.850098 124.4 0.850098ZM75.6296 2.8501H90.6396V43.9701C90.8096 50.7501 93.9597 54.1301 100.08 54.1301C103.17 54.1301 105.51 53.2801 107.1 51.5801C108.69 49.8801 109.48 47.1201 109.48 43.2901V2.8501H124.4V43.3701C124.4 47.9601 123.42 51.9401 121.47 55.3001C119.51 58.6601 116.71 61.2201 113.05 62.9701C109.39 64.7301 105.07 65.6101 100.08 65.6101C92.5396 65.6101 86.5997 63.6501 82.2597 59.7401C77.9197 55.8301 75.7096 50.4701 75.6296 43.6701V2.8501ZM121.46 68.6101C119.5 71.9701 116.7 74.5301 113.04 76.2801C109.38 78.0401 105.06 78.9201 100.07 78.9201C92.5296 78.9201 86.5896 76.9601 82.2496 73.0501C78.8696 70.0001 76.7996 66.0701 75.9996 61.2701C77.1996 63.7701 78.8097 65.9901 80.9097 67.8801C85.6097 72.1201 92.0496 74.2601 100.06 74.2601C105.33 74.2601 109.98 73.3101 113.89 71.4301C117.9 69.5101 121.02 66.6601 123.17 62.9601C123.47 62.4501 123.74 61.9301 123.99 61.3901C123.54 64.0501 122.69 66.4601 121.44 68.6101H121.46ZM124.01 68.0501C123.56 70.7101 122.71 73.1201 121.46 75.2701C119.5 78.6301 116.7 81.1901 113.04 82.9401C109.38 84.7001 105.06 85.5801 100.07 85.5801C92.5296 85.5801 86.5896 83.6201 82.2496 79.7101C78.8696 76.6601 76.7996 72.7301 75.9996 67.9301C77.1996 70.4301 78.8097 72.6501 80.9097 74.5401C85.6097 78.7801 92.0496 80.9201 100.06 80.9201C105.33 80.9201 109.98 79.9701 113.89 78.0901C117.9 76.1701 121.02 73.3201 123.17 69.6201C123.47 69.1101 123.74 68.5901 123.99 68.0501H124.01ZM121.46 61.9601C119.5 65.3201 116.7 67.8801 113.04 69.6301C109.38 71.3901 105.06 72.2701 100.07 72.2701C92.5296 72.2701 86.5896 70.3101 82.2496 66.4001C78.8696 63.3501 76.7996 59.4201 75.9996 54.6201C77.1996 57.1201 78.8097 59.3401 80.9097 61.2301C85.6097 65.4701 92.0496 67.6101 100.06 67.6101C105.33 67.6101 109.98 66.6601 113.89 64.7801C117.9 62.8601 121.02 60.0101 123.17 56.3101C123.47 55.8001 123.74 55.2801 123.99 54.7401C123.54 57.4001 122.69 59.8101 121.44 61.9601H121.46ZM121.46 81.9301C119.5 85.2901 116.7 87.8501 113.04 89.6001C109.38 91.3601 105.06 92.2401 100.07 92.2401C92.5296 92.2401 86.5896 90.2801 82.2496 86.3701C78.8696 83.3201 76.7996 79.3901 75.9996 74.5901C77.1996 77.0901 78.8097 79.3101 80.9097 81.2001C85.6097 85.4401 92.0496 87.5801 100.06 87.5801C105.33 87.5801 109.98 86.6301 113.89 84.7501C117.9 82.8301 121.02 79.9801 123.17 76.2801C123.47 75.7701 123.74 75.2501 123.99 74.7101C123.54 77.3701 122.69 79.7801 121.44 81.9301H121.46Z" fill="url(#paint2_linear_2015_963)" />
		<path d="M257.98 32.23C257.95 25.99 256.71 20.37 254.31 15.5C251.87 10.57 248.39 6.71 243.97 4.03C239.56 1.35 234.49 0 228.9 0C223.31 0 218.13 1.37 213.68 4.08C209.21 6.79 205.74 10.69 203.35 15.66C201 20.54 199.81 26.24 199.81 32.58V36.07C199.81 36.42 199.84 36.77 199.86 37.12C199.83 37.82 199.81 38.52 199.81 39.24V42.73C199.81 43.1 199.84 43.46 199.86 43.83C199.83 44.51 199.81 45.2 199.81 45.9V49.39C199.81 49.77 199.84 50.13 199.86 50.5C199.83 51.18 199.81 51.86 199.81 52.56V56.05C199.81 56.43 199.84 56.79 199.86 57.16C199.83 57.84 199.81 58.52 199.81 59.22V62.71C199.93 68.86 201.21 74.38 203.62 79.13C206.06 83.96 209.53 87.73 213.93 90.34C218.31 92.94 223.37 94.26 228.98 94.26C234.59 94.26 239.69 92.9 244.11 90.21C248.55 87.51 252.02 83.61 254.42 78.63C256.78 73.73 257.98 68.05 257.98 61.73V58.88C257.98 58.26 257.96 57.65 257.93 57.05C257.96 56.4 257.98 55.74 257.98 55.07V52.22C257.98 51.6 257.96 50.99 257.93 50.39C257.96 49.74 257.98 49.08 257.98 48.41V45.56C257.98 44.94 257.96 44.33 257.93 43.72C257.96 43.07 257.98 42.41 257.98 41.75V38.9C257.98 38.29 257.96 37.69 257.93 37.09C257.96 36.43 257.98 35.77 257.98 35.09V32.24V32.23ZM203.62 65.79C206.06 70.62 209.53 74.39 213.93 77C218.31 79.6 223.37 80.92 228.98 80.92C234.59 80.92 239.69 79.56 244.11 76.87C248.55 74.17 252.02 70.27 254.42 65.29C254.66 64.79 254.88 64.28 255.09 63.77C254.53 66.37 253.71 68.81 252.62 71.08C250.38 75.73 247.2 79.31 243.07 81.82C238.95 84.33 234.25 85.58 228.98 85.58C223.71 85.58 219.03 84.37 214.95 81.94C210.87 79.51 207.69 76.05 205.4 71.55C204.18 69.15 203.29 66.55 202.69 63.78C202.98 64.47 203.29 65.14 203.62 65.8V65.79ZM202.69 57.11C202.98 57.8 203.29 58.47 203.62 59.13C206.06 63.96 209.53 67.73 213.93 70.34C218.31 72.94 223.37 74.26 228.98 74.26C234.59 74.26 239.69 72.9 244.11 70.21C248.55 67.51 252.02 63.61 254.42 58.63C254.66 58.13 254.88 57.62 255.09 57.11C254.53 59.71 253.71 62.15 252.62 64.42C250.38 69.07 247.2 72.65 243.07 75.16C238.95 77.67 234.25 78.92 228.98 78.92C223.71 78.92 219.03 77.71 214.95 75.28C210.87 72.85 207.69 69.39 205.4 64.89C204.18 62.49 203.29 59.9 202.69 57.12V57.11ZM252.62 57.76C250.38 62.41 247.2 65.99 243.07 68.5C238.95 71.01 234.25 72.26 228.98 72.26C223.71 72.26 219.03 71.05 214.95 68.62C210.87 66.19 207.69 62.73 205.4 58.23C204.18 55.83 203.29 53.23 202.69 50.46C202.98 51.15 203.29 51.82 203.62 52.48C206.06 57.31 209.53 61.08 213.93 63.69C218.31 66.29 223.37 67.61 228.98 67.61C234.59 67.61 239.69 66.25 244.11 63.56C248.55 60.86 252.02 56.96 254.42 51.98C254.66 51.48 254.88 50.97 255.09 50.46C254.53 53.06 253.71 55.5 252.62 57.77V57.76ZM252.62 77.73C250.38 82.38 247.2 85.96 243.07 88.47C238.95 90.98 234.25 92.23 228.98 92.23C223.71 92.23 219.03 91.02 214.95 88.59C210.87 86.16 207.69 82.7 205.4 78.2C204.18 75.8 203.29 73.2 202.69 70.43C202.98 71.12 203.29 71.79 203.62 72.45C206.06 77.28 209.53 81.05 213.93 83.66C218.31 86.26 223.37 87.58 228.98 87.58C234.59 87.58 239.69 86.22 244.11 83.53C248.55 80.83 252.02 76.93 254.42 71.95C254.66 71.45 254.88 70.94 255.09 70.43C254.53 73.03 253.71 75.47 252.62 77.74V77.73ZM255.75 27.95V27.97C255.82 28.65 255.88 29.34 255.91 30.04C255.95 30.75 255.97 31.48 255.97 32.21V35.06C255.97 35.68 255.94 36.28 255.91 36.88C255.91 36.97 255.91 37.07 255.91 37.16C255.68 42.34 254.58 46.99 252.6 51.09C250.36 55.74 247.18 59.32 243.05 61.83C238.93 64.34 234.23 65.59 228.96 65.59C223.69 65.59 219.01 64.38 214.93 61.95C210.85 59.52 207.67 56.06 205.38 51.56C203.24 47.34 202.07 42.53 201.84 37.15C201.84 37.14 201.84 37.12 201.84 37.11C201.82 36.75 201.8 36.4 201.79 36.04V32.55C201.79 31.77 201.81 31.01 201.85 30.26C201.85 30.19 201.86 30.12 201.87 30.04C201.91 29.35 201.95 28.68 202.02 28.01C202.02 28 202.02 27.99 202.02 27.97C202.17 26.51 202.39 25.11 202.68 23.74C203.24 21.16 204.05 18.74 205.13 16.49C207.35 11.86 210.54 8.28 214.7 5.76C218.85 3.24 223.58 1.97 228.88 1.97C234.18 1.97 238.8 3.22 242.91 5.71C247.02 8.2 250.22 11.75 252.5 16.36C253.66 18.7 254.52 21.22 255.1 23.9C255.38 25.2 255.59 26.54 255.74 27.92L255.75 27.95Z" fill="url(#paint3_linear_2015_963)" />
		<path d="M228.889 13.6899C221.409 13.6899 217.449 19.2999 217.029 30.5299L216.989 35.0799C216.989 36.0799 217.029 37.0299 217.079 37.9599C217.099 38.3199 217.119 38.6799 217.149 39.0199C217.179 39.3299 217.209 39.6199 217.239 39.9199C217.269 40.1999 217.299 40.4899 217.339 40.7599C217.379 41.0699 217.429 41.3799 217.469 41.6799C217.509 41.8999 217.549 42.1199 217.589 42.3399C217.699 42.9099 217.819 43.4699 217.949 43.9999C218.079 44.5199 218.229 45.0199 218.389 45.4999C218.419 45.6099 218.459 45.7199 218.489 45.8199C218.489 45.8499 218.509 45.8699 218.519 45.8999C218.519 45.8999 218.519 45.9199 218.529 45.9299C218.609 46.1699 218.699 46.3999 218.789 46.6299C218.839 46.7499 218.889 46.8699 218.939 46.9999C218.939 47.0099 218.939 47.0199 218.949 47.0299C219.039 47.2399 219.129 47.4499 219.219 47.6499C219.279 47.7799 219.349 47.8999 219.409 48.0299C219.589 48.3899 219.779 48.7399 219.979 49.0699C221.989 52.3299 224.979 53.9599 228.949 53.9599C232.609 53.9599 235.449 52.4399 237.479 49.4099C237.539 49.3199 237.609 49.2399 237.659 49.1499C237.869 48.8199 238.059 48.4799 238.239 48.1199C238.329 47.9599 238.409 47.7899 238.489 47.6199C238.539 47.5199 238.589 47.3999 238.629 47.2999C238.699 47.1399 238.779 46.9799 238.849 46.8099C238.959 46.5499 239.059 46.2899 239.159 46.0199C239.219 45.8499 239.279 45.6799 239.339 45.4999C239.439 45.2099 239.529 44.9199 239.619 44.6199C239.659 44.4799 239.689 44.3399 239.729 44.1999C239.749 44.1299 239.769 44.0599 239.789 43.9899C240.059 42.9299 240.279 41.7799 240.429 40.5599C240.449 40.4299 240.469 40.2999 240.479 40.1599C240.529 39.7399 240.569 39.3099 240.609 38.8799C240.619 38.7399 240.629 38.6099 240.639 38.4699C240.709 37.4699 240.759 36.4399 240.769 35.3399V32.4899C240.769 26.3399 239.739 21.6699 237.689 18.4799C235.639 15.2899 232.689 13.6999 228.869 13.6999L228.889 13.6899ZM228.889 15.6899C232.019 15.6899 234.349 16.9499 236.029 19.5599C237.119 21.2499 237.879 23.4799 238.329 26.1899C238.139 25.8199 237.929 25.4699 237.719 25.1299C235.669 21.9399 232.719 20.3499 228.899 20.3499C224.589 20.3499 221.449 22.2299 219.479 25.9599C221.179 15.6999 226.869 15.6999 228.899 15.6999L228.889 15.6899ZM237.709 31.7899C235.659 28.5999 232.709 27.0099 228.889 27.0099C224.569 27.0099 221.439 28.8999 219.469 32.6399C221.159 22.3599 226.859 22.3499 228.889 22.3499C232.019 22.3499 234.349 23.6099 236.029 26.2199C237.119 27.9099 237.879 30.1399 238.329 32.8699C238.129 32.4999 237.929 32.1299 237.709 31.7899ZM238.329 39.5199C238.139 39.1499 237.929 38.7899 237.709 38.4499C235.659 35.2599 232.709 33.6699 228.889 33.6699C224.579 33.6699 221.439 35.5499 219.469 39.2799C221.169 29.0199 226.859 29.0099 228.889 29.0099C232.019 29.0099 234.349 30.2699 236.029 32.8799C237.119 34.5699 237.879 36.7999 238.329 39.5299V39.5199ZM219.949 43.6999C222.049 35.6699 227.019 35.6699 228.899 35.6699C232.029 35.6699 234.359 36.9299 236.039 39.5399C236.789 40.6999 237.379 42.1199 237.819 43.7799C237.719 44.1399 237.619 44.4899 237.509 44.8199C235.469 41.8399 232.599 40.3299 228.899 40.3299C225.199 40.3299 222.229 41.8099 220.249 44.7099C220.149 44.3899 220.049 44.0499 219.959 43.7099L219.949 43.6999ZM236.009 48.0799C234.349 50.6899 232.049 51.9599 228.979 51.9599C225.729 51.9599 223.349 50.6699 221.709 48.0199C221.519 47.7099 221.339 47.3799 221.169 47.0399C223.579 42.3299 227.319 42.3299 228.889 42.3299C232.019 42.3299 234.349 43.5899 236.029 46.1999C236.219 46.4899 236.389 46.7999 236.549 47.1199C236.379 47.4599 236.199 47.7899 235.999 48.0899L236.009 48.0799Z" fill="url(#paint4_linear_2015_963)" />
		<path d="M322.68 0.850098H307.76C306.66 0.850098 305.76 1.7501 305.76 2.8501V43.2901C305.76 46.5801 305.14 48.9101 303.92 50.2201C302.72 51.5101 300.9 52.1401 298.37 52.1401C293.37 52.1401 291.08 49.6101 290.93 43.9501V2.8501C290.93 1.7501 290.03 0.850098 288.93 0.850098H273.92C272.82 0.850098 271.92 1.7501 271.92 2.8501V70.3001C272.01 77.6801 274.47 83.5801 279.21 87.8601C283.91 92.1001 290.35 94.2401 298.36 94.2401C303.63 94.2401 308.28 93.2901 312.19 91.4101C316.2 89.4901 319.32 86.6401 321.47 82.9401C323.6 79.2901 324.68 74.9401 324.68 70.0101V2.8501C324.68 1.7501 323.78 0.850098 322.68 0.850098ZM273.91 2.8501H288.92V43.9701C289.09 50.7501 292.24 54.1301 298.36 54.1301C301.45 54.1301 303.79 53.2801 305.38 51.5801C306.97 49.8801 307.76 47.1201 307.76 43.2901V2.8501H322.68V43.3701C322.68 47.9601 321.7 51.9401 319.75 55.3001C317.79 58.6601 314.99 61.2201 311.33 62.9701C307.67 64.7301 303.35 65.6101 298.36 65.6101C290.82 65.6101 284.88 63.6501 280.54 59.7401C276.2 55.8301 273.99 50.4701 273.91 43.6701V2.8501ZM319.74 68.6101C317.78 71.9701 314.98 74.5301 311.32 76.2801C307.66 78.0401 303.34 78.9201 298.35 78.9201C290.81 78.9201 284.87 76.9601 280.53 73.0501C277.15 70.0001 275.08 66.0701 274.28 61.2701C275.48 63.7701 277.09 65.9901 279.19 67.8801C283.89 72.1201 290.33 74.2601 298.34 74.2601C303.61 74.2601 308.26 73.3101 312.17 71.4301C316.18 69.5101 319.3 66.6601 321.45 62.9601C321.75 62.4501 322.02 61.9301 322.27 61.3901C321.82 64.0501 320.97 66.4601 319.72 68.6101H319.74ZM322.29 68.0501C321.84 70.7101 320.99 73.1201 319.74 75.2701C317.78 78.6301 314.98 81.1901 311.32 82.9401C307.66 84.7001 303.34 85.5801 298.35 85.5801C290.81 85.5801 284.87 83.6201 280.53 79.7101C277.15 76.6601 275.08 72.7301 274.28 67.9301C275.48 70.4301 277.09 72.6501 279.19 74.5401C283.89 78.7801 290.33 80.9201 298.34 80.9201C303.61 80.9201 308.26 79.9701 312.17 78.0901C316.18 76.1701 319.3 73.3201 321.45 69.6201C321.75 69.1101 322.02 68.5901 322.27 68.0501H322.29ZM319.74 61.9601C317.78 65.3201 314.98 67.8801 311.32 69.6301C307.66 71.3901 303.34 72.2701 298.35 72.2701C290.81 72.2701 284.87 70.3101 280.53 66.4001C277.15 63.3501 275.08 59.4201 274.28 54.6201C275.48 57.1201 277.09 59.3401 279.19 61.2301C283.89 65.4701 290.33 67.6101 298.34 67.6101C303.61 67.6101 308.26 66.6601 312.17 64.7801C316.18 62.8601 319.3 60.0101 321.45 56.3101C321.75 55.8001 322.02 55.2801 322.27 54.7401C321.82 57.4001 320.97 59.8101 319.72 61.9601H319.74ZM319.74 81.9301C317.78 85.2901 314.98 87.8501 311.32 89.6001C307.66 91.3601 303.34 92.2401 298.35 92.2401C290.81 92.2401 284.87 90.2801 280.53 86.3701C277.15 83.3201 275.08 79.3901 274.28 74.5901C275.48 77.0901 277.09 79.3101 279.19 81.2001C283.89 85.4401 290.33 87.5801 298.34 87.5801C303.61 87.5801 308.26 86.6301 312.17 84.7501C316.18 82.8301 319.3 79.9801 321.45 76.2801C321.75 75.7701 322.02 75.2501 322.27 74.7101C321.82 77.3701 320.97 79.7801 319.72 81.9301H319.74Z" fill="url(#paint5_linear_2015_963)" />
		<path d="M552.05 0.850098H537.22C536.1 0.850098 535.2 1.7601 535.2 2.8701V25.4001H517.28V2.8701C517.28 1.7501 516.38 0.850098 515.26 0.850098H500.34C499.22 0.850098 498.32 1.7601 498.32 2.8701V91.0301C498.32 92.1501 499.22 93.0501 500.34 93.0501H515.26C516.38 93.0501 517.28 92.1401 517.28 91.0301V67.2201H535.2V91.0301C535.2 92.1501 536.1 93.0501 537.22 93.0501H552.05C553.17 93.0501 554.07 92.1401 554.07 91.0301V2.8701C554.07 1.7501 553.17 0.850098 552.05 0.850098ZM500.35 2.8701H515.27V27.4301H537.23V2.8701H552.06V64.7401H537.23V38.9101H515.27V64.7401H500.35V29.1601V27.1401V22.5901V20.5701V16.0201V14.0001V9.4501V7.4301V2.8701ZM552.05 84.4501H537.22V79.9001H552.05V84.4501ZM535.2 45.4701H517.28V40.9201H535.2V45.4701ZM535.2 47.4901V52.0401H517.28V47.4901H535.2ZM535.2 54.0601V58.6101H517.28V54.0601H535.2ZM552.05 77.8701H537.22V73.3201H552.05V77.8701ZM552.05 71.3001H537.22V66.7501H552.05V71.3001ZM515.26 84.4501H500.34V79.9001H515.26V84.4501ZM515.26 77.8801H500.34V73.3301H515.26V77.8801ZM515.26 71.3101H500.34V66.7601H515.26V71.3101ZM515.26 91.0301H500.34V86.4801H515.26V91.0301ZM517.28 65.2001V60.6501H535.2V65.2001H517.28ZM552.04 91.0301H537.21V86.4801H552.04V91.0301Z" fill="url(#paint6_linear_2015_963)" />
		<path d="M618.52 0.850098H603.6C602.5 0.850098 601.6 1.7501 601.6 2.8501V43.2901C601.6 46.5801 600.98 48.9101 599.76 50.2201C598.56 51.5101 596.74 52.1401 594.21 52.1401C589.21 52.1401 586.92 49.6101 586.77 43.9501V2.8501C586.77 1.7501 585.87 0.850098 584.77 0.850098H569.76C568.66 0.850098 567.76 1.7501 567.76 2.8501V70.3001C567.85 77.6801 570.31 83.5801 575.05 87.8601C579.75 92.1001 586.19 94.2401 594.2 94.2401C599.47 94.2401 604.12 93.2901 608.03 91.4101C612.04 89.4901 615.16 86.6401 617.31 82.9401C619.44 79.2901 620.52 74.9401 620.52 70.0101V2.8501C620.52 1.7501 619.62 0.850098 618.52 0.850098ZM569.75 2.8501H584.76V43.9701C584.93 50.7501 588.08 54.1301 594.2 54.1301C597.29 54.1301 599.63 53.2801 601.22 51.5801C602.81 49.8801 603.6 47.1201 603.6 43.2901V2.8501H618.52V43.3701C618.52 47.9601 617.54 51.9401 615.59 55.3001C613.63 58.6601 610.83 61.2201 607.17 62.9701C603.51 64.7301 599.19 65.6101 594.2 65.6101C586.66 65.6101 580.72 63.6501 576.38 59.7401C572.04 55.8301 569.83 50.4701 569.75 43.6701V2.8501ZM615.58 68.6101C613.62 71.9701 610.82 74.5301 607.16 76.2801C603.5 78.0401 599.18 78.9201 594.19 78.9201C586.65 78.9201 580.71 76.9601 576.37 73.0501C572.99 70.0001 570.92 66.0701 570.12 61.2701C571.32 63.7701 572.93 65.9901 575.03 67.8801C579.73 72.1201 586.17 74.2601 594.18 74.2601C599.45 74.2601 604.1 73.3101 608.01 71.4301C612.02 69.5101 615.14 66.6601 617.29 62.9601C617.59 62.4501 617.86 61.9301 618.11 61.3901C617.66 64.0501 616.81 66.4601 615.56 68.6101H615.58ZM618.13 68.0501C617.68 70.7101 616.83 73.1201 615.58 75.2701C613.62 78.6301 610.82 81.1901 607.16 82.9401C603.5 84.7001 599.18 85.5801 594.19 85.5801C586.65 85.5801 580.71 83.6201 576.37 79.7101C572.99 76.6601 570.92 72.7301 570.12 67.9301C571.32 70.4301 572.93 72.6501 575.03 74.5401C579.73 78.7801 586.17 80.9201 594.18 80.9201C599.45 80.9201 604.1 79.9701 608.01 78.0901C612.02 76.1701 615.14 73.3201 617.29 69.6201C617.59 69.1101 617.86 68.5901 618.11 68.0501H618.13ZM615.58 61.9601C613.62 65.3201 610.82 67.8801 607.16 69.6301C603.5 71.3901 599.18 72.2701 594.19 72.2701C586.65 72.2701 580.71 70.3101 576.37 66.4001C572.99 63.3501 570.92 59.4201 570.12 54.6201C571.32 57.1201 572.93 59.3401 575.03 61.2301C579.73 65.4701 586.17 67.6101 594.18 67.6101C599.45 67.6101 604.1 66.6601 608.01 64.7801C612.02 62.8601 615.14 60.0101 617.29 56.3101C617.59 55.8001 617.86 55.2801 618.11 54.7401C617.66 57.4001 616.81 59.8101 615.56 61.9601H615.58ZM615.58 81.9301C613.62 85.2901 610.82 87.8501 607.16 89.6001C603.5 91.3601 599.18 92.2401 594.19 92.2401C586.65 92.2401 580.71 90.2801 576.37 86.3701C572.99 83.3201 570.92 79.3901 570.12 74.5901C571.32 77.0901 572.93 79.3101 575.03 81.2001C579.73 85.4401 586.17 87.5801 594.18 87.5801C599.45 87.5801 604.1 86.6301 608.01 84.7501C612.02 82.8301 615.14 79.9801 617.29 76.2801C617.59 75.7701 617.86 75.2501 618.11 74.7101C617.66 77.3701 616.81 79.7801 615.56 81.9301H615.58Z" fill="url(#paint7_linear_2015_963)" />
		<path d="M185.71 2.8501C185.71 1.7501 184.81 0.850098 183.71 0.850098H168.83C167.73 0.850098 166.83 1.7501 166.83 2.8501V45.3301C166.83 47.6701 166.39 49.4501 165.53 50.6401C164.79 51.6601 163.79 52.1301 162.37 52.1301C160.74 52.1301 159.62 51.7501 159.05 51.0001C158.57 50.3701 158 49.0101 158 46.0501C158 44.9501 157.1 44.0501 156 44.0501H141.03C139.93 44.0501 139.03 44.9501 139.03 46.0501C139.03 47.6901 139.16 49.2301 139.4 50.7001C139.17 51.0301 139.03 51.4201 139.03 51.8601C139.03 53.7601 139.21 55.5301 139.54 57.2001C139.23 57.5501 139.03 58.0101 139.03 58.5201C139.03 60.4201 139.21 62.1901 139.54 63.8601C139.23 64.2101 139.03 64.6701 139.03 65.1801C139.03 67.0801 139.21 68.8501 139.54 70.5201C139.23 70.8701 139.03 71.3301 139.03 71.8401C139.03 78.6301 141.14 83.9901 145.3 87.7801C149.4 91.5101 155.15 93.4001 162.38 93.4001C166.71 93.4001 170.71 92.4701 174.25 90.6301C177.85 88.7601 180.69 86.0901 182.7 82.6901C184.7 79.3001 185.72 75.4101 185.72 71.1301V45.3501V2.8501H185.71ZM155.99 46.0501C155.99 48.8801 156.48 50.9401 157.46 52.2201C158.44 53.5001 160.08 54.1301 162.37 54.1301C164.44 54.1301 166.03 53.3601 167.15 51.8101C168.27 50.2701 168.83 48.1001 168.83 45.3301V2.8501H183.71V6.6601V45.3301C183.71 49.2701 182.8 52.7901 180.97 55.8801C179.14 58.9701 176.59 61.3601 173.32 63.0701C170.05 64.7701 166.4 65.6201 162.37 65.6201C155.62 65.6201 150.38 63.9201 146.64 60.5201C144.16 58.2601 142.52 55.3701 141.68 51.8601C141.53 51.2201 141.4 50.5501 141.3 49.8701C141.13 48.6601 141.02 47.4001 141.02 46.0601H155.99V46.0501ZM141.89 58.5101C141.78 58.1101 141.7 57.6901 141.6 57.2801C142.56 59.0501 143.79 60.6201 145.29 61.9901C149.39 65.7201 155.14 67.6101 162.37 67.6101C166.7 67.6101 170.7 66.6801 174.24 64.8301C177.84 62.9601 180.68 60.2901 182.69 56.8901C182.87 56.5901 183.03 56.2701 183.2 55.9601C182.75 58.0001 182.02 59.9101 180.97 61.6801C179.14 64.7701 176.59 67.1601 173.32 68.8701C170.05 70.5701 166.4 71.4201 162.37 71.4201C155.62 71.4201 150.38 69.7201 146.64 66.3201C144.36 64.2501 142.79 61.6401 141.89 58.5201V58.5101ZM145.29 67.7901C149.39 71.5201 155.14 73.4101 162.37 73.4101C166.7 73.4101 170.7 72.4801 174.24 70.6301C177.84 68.7601 180.68 66.0901 182.69 62.6901C182.96 62.2401 183.21 61.7701 183.44 61.3001C183.05 63.8501 182.23 66.1901 180.97 68.3301C179.14 71.4201 176.59 73.8101 173.32 75.5201C170.05 77.2201 166.4 78.0701 162.37 78.0701C155.62 78.0701 150.38 76.3701 146.64 72.9701C144.36 70.9001 142.79 68.2901 141.89 65.1701C141.71 64.5301 141.55 63.8601 141.43 63.1701C141.39 62.9701 141.36 62.7601 141.33 62.5501C142.33 64.5401 143.64 66.3001 145.29 67.8001V67.7901ZM145.29 74.4501C149.39 78.1801 155.14 80.0701 162.37 80.0701C166.7 80.0701 170.7 79.1401 174.24 77.3001C177.84 75.4301 180.68 72.7601 182.69 69.3601C182.96 68.9101 183.21 68.4401 183.44 67.9701C183.05 70.5201 182.23 72.8601 180.97 75.0001C179.14 78.0901 176.59 80.4801 173.32 82.1901C170.05 83.8901 166.4 84.7401 162.37 84.7401C155.62 84.7401 150.38 83.0401 146.64 79.6401C144.36 77.5701 142.79 74.9601 141.89 71.8401C141.71 71.2001 141.55 70.5301 141.43 69.8401C141.39 69.6401 141.36 69.4301 141.33 69.2201C142.33 71.2101 143.64 72.9701 145.29 74.4701V74.4501ZM180.97 81.6501C179.14 84.7401 176.59 87.1301 173.32 88.8401C170.05 90.5401 166.4 91.3901 162.37 91.3901C155.62 91.3901 150.38 89.6901 146.64 86.2901C143.75 83.6601 141.99 80.1801 141.33 75.8701C142.33 77.8601 143.64 79.6201 145.29 81.1201C149.39 84.8501 155.14 86.7401 162.37 86.7401C166.7 86.7401 170.7 85.8101 174.24 83.9701C177.84 82.1001 180.68 79.4301 182.69 76.0301C182.96 75.5801 183.21 75.1101 183.44 74.6401C183.05 77.1801 182.23 79.5301 180.97 81.6701V81.6501Z" fill="url(#paint8_linear_2015_963)" />
		<path d="M394.36 64.7599V64.1199C394.36 63.7999 394.28 63.4899 394.14 63.1999L390.83 56.7899C391.76 54.2799 392.24 51.3899 392.24 48.1699C392.24 47.0799 392.17 46.0399 392.03 45.0399C392.17 43.9099 392.24 42.7399 392.24 41.5199C392.24 40.4299 392.16 39.3899 392.03 38.3899C392.17 37.2599 392.24 36.0899 392.24 34.8699C392.24 33.7799 392.17 32.7399 392.03 31.7299C392.16 30.6099 392.24 29.4299 392.24 28.2099C392.24 27.1199 392.17 26.0799 392.03 25.0699C392.16 23.9499 392.24 22.7699 392.24 21.5499C392.24 14.9899 389.89 9.80986 385.27 6.16986C380.79 2.63986 374.58 0.859863 366.81 0.859863H342.45C341.35 0.859863 340.45 1.75986 340.45 2.85986V91.3999C340.45 92.4999 341.35 93.3999 342.45 93.3999H357.37C358.47 93.3999 359.37 92.4999 359.37 91.3999V71.4999H364.21L374.59 92.2899C374.93 92.9699 375.62 93.3999 376.38 93.3999H392.37C393.47 93.3999 394.37 92.4999 394.37 91.3999V90.7599C394.37 90.4399 394.29 90.1299 394.15 89.8399L392.54 86.7199C393.57 86.6399 394.38 85.7799 394.38 84.7399V84.0999C394.38 83.7799 394.3 83.4699 394.16 83.1799L392.55 80.0599C393.58 79.9799 394.39 79.1199 394.39 78.0799V77.4399C394.39 77.1199 394.31 76.8099 394.17 76.5199L392.56 73.3999C393.59 73.3099 394.4 72.4599 394.4 71.4199V70.7799C394.4 70.4599 394.32 70.1499 394.18 69.8599L392.57 66.7399C393.6 66.6499 394.41 65.7999 394.41 64.7599H394.36ZM389.5 54.2399L389.13 53.5299C389.19 53.4399 389.26 53.3499 389.31 53.2599C389.52 52.9099 389.72 52.5499 389.91 52.1899C389.8 52.8999 389.66 53.5799 389.49 54.2399H389.5ZM382.12 39.9799C385.26 38.1899 387.68 35.9499 389.31 33.2899C389.53 32.9299 389.74 32.5599 389.93 32.1799C389.55 34.7499 388.78 36.9999 387.6 38.8999C386.63 40.4799 385.34 41.8999 383.75 43.1399L382.11 39.9699L382.12 39.9799ZM384.69 44.9399C386.61 43.4899 388.16 41.8299 389.32 39.9499C389.54 39.5899 389.75 39.2199 389.94 38.8399C389.56 41.4099 388.79 43.6499 387.61 45.5599C387.61 45.5599 387.6 45.5799 387.59 45.5899C387.39 45.9099 387.18 46.2299 386.95 46.5299C386.77 46.7799 386.57 47.0199 386.37 47.2599C386.32 47.3199 386.28 47.3799 386.23 47.4299C386.18 47.4899 386.11 47.5499 386.06 47.6199L384.68 44.9399H384.69ZM389.32 46.6099C389.54 46.2499 389.75 45.8799 389.94 45.4999C389.61 47.7299 388.98 49.7099 388.05 51.4399L387.05 49.4999C387.92 48.5999 388.69 47.6399 389.32 46.5999V46.6099ZM357.36 84.7299H342.44V80.0699H357.36V84.7299ZM357.36 78.0699H342.44V73.4099H357.36V78.0699ZM357.36 69.4899V71.4199H342.44V66.7599H357.36V69.4899ZM357.36 91.3899H342.44V86.7299H357.36V91.3899ZM392.35 91.3899H376.36L365.43 69.4899H359.35V64.8299H364.19L374.57 85.6199C374.91 86.2999 375.6 86.7299 376.36 86.7299H390.27L392.35 90.7499V91.3899ZM389.24 84.7299H376.37L365.44 62.8299H359.36V58.1699H364.2L374.58 78.9599C374.92 79.6399 375.61 80.0699 376.37 80.0699H390.28L392.36 84.0899V84.7299H389.25H389.24ZM389.24 78.0699H376.36L365.43 56.1699H359.35V51.5099H364.19L374.57 72.2999C374.91 72.9799 375.6 73.4099 376.36 73.4099H390.27L392.35 77.4299V78.0699H389.24ZM389.24 71.4099H376.36L365.43 49.5099H359.35V44.8499H364.19L374.57 65.6399C374.91 66.3199 375.6 66.7499 376.36 66.7499H390.27L392.35 70.7699V71.4099H389.24ZM389.24 64.7499H376.36L365.43 42.8499H357.35V64.7499H342.43V2.84986H366.79C374.13 2.84986 379.87 4.47986 384.01 7.72986C387.42 10.4099 389.4 14.0199 390 18.5299C390.06 18.9699 390.1 19.4099 390.14 19.8599C390.18 20.4099 390.22 20.9599 390.22 21.5399C390.22 22.1599 390.2 22.7599 390.16 23.3399C390.16 23.3699 390.16 23.3999 390.16 23.4399C390.12 24.0099 390.07 24.5599 390 25.0999C389.64 27.8499 388.85 30.2399 387.61 32.2499C385.87 35.0799 383.14 37.3699 379.43 39.1299L382.11 44.3199L382.57 45.1999L384.59 49.1099L385.54 50.9399L386.81 53.3999L387.08 53.9199L388.93 57.4999L389.77 59.1299L392.36 64.1299V64.7699H389.25L389.24 64.7499Z" fill="url(#paint9_linear_2015_963)" />
		<path d="M373.18 16.6101C371.73 15.0901 369.61 14.3301 366.8 14.3301H357.36V31.3801H366.8C369.63 31.3801 371.77 30.6301 373.2 29.1401C373.42 28.9101 373.62 28.6601 373.81 28.4001C373.96 28.1901 374.1 27.9701 374.23 27.7401C374.49 27.2801 374.7 26.7801 374.87 26.2401C375.18 25.2501 375.34 24.1501 375.34 22.9101C375.34 20.2401 374.62 18.1401 373.17 16.6201L373.18 16.6101ZM359.36 16.3301H366.8C369.05 16.3301 370.67 16.8701 371.73 17.9901C372.82 19.1301 373.35 20.7401 373.35 22.9001C373.35 23.0901 373.32 23.2501 373.32 23.4301C373.27 23.3801 373.23 23.3201 373.19 23.2701C371.74 21.7501 369.62 20.9901 366.81 20.9901H359.37V16.3301H359.36ZM359.36 22.9901H366.8C369.05 22.9901 370.67 23.5301 371.73 24.6501C372.16 25.1001 372.47 25.6301 372.73 26.2301C372.48 26.8101 372.17 27.3301 371.76 27.7601C371.53 28.0001 371.26 28.2201 370.96 28.4001C369.8 27.9001 368.42 27.6401 366.81 27.6401H359.37V22.9801L359.36 22.9901Z" fill="url(#paint10_linear_2015_963)" />
		<path d="M439.4 49.0499C439.47 48.9599 439.55 48.8799 439.62 48.7899C439.64 48.7699 439.65 48.7499 439.67 48.7299C439.89 48.4399 440.09 48.1299 440.28 47.8099C440.41 47.5999 440.54 47.3799 440.66 47.1499C440.66 47.1499 440.69 47.0899 440.71 47.0599C440.85 46.8099 440.98 46.5599 441.11 46.2899C441.22 46.0499 441.32 45.7799 441.43 45.5299V45.5099C441.46 45.4499 441.49 45.3899 441.51 45.3199C441.56 45.1899 441.61 45.0699 441.66 44.9399C441.79 44.5699 441.91 44.1899 442.03 43.7999C442.06 43.7099 442.09 43.6199 442.11 43.5299C442.19 43.2499 442.26 42.9599 442.33 42.6599C442.33 42.6399 442.33 42.6199 442.34 42.5999C442.37 42.4599 442.4 42.3099 442.43 42.1599C442.43 42.1199 442.45 42.0799 442.46 42.0399C442.56 41.5399 442.66 41.0199 442.73 40.4799C442.74 40.3899 442.75 40.3099 442.77 40.2199C442.78 40.1099 442.8 40.0099 442.82 39.8999C443 38.4299 443.11 36.8599 443.11 35.1499V32.4699C443.11 26.4899 441.96 21.9799 439.67 18.9499C437.37 15.9199 434.03 14.3999 429.63 14.3999H424.61V53.2999H429.8C433.92 53.2999 437.11 51.8699 439.39 49.0499H439.4ZM439.4 45.2499C437.11 42.4399 433.87 41.0199 429.64 41.0199H426.62V36.3599H429.64C433.41 36.3599 436.17 37.5899 438.08 40.1199C438.85 41.1399 439.46 42.4099 439.93 43.8599C439.77 44.3499 439.59 44.8099 439.39 45.2499H439.4ZM429.64 29.7099C433.41 29.7099 436.17 30.9399 438.08 33.4699C439.38 35.1899 440.27 37.5499 440.73 40.4799C440.73 40.5099 440.73 40.5499 440.72 40.5899C440.4 39.9999 440.06 39.4299 439.68 38.9199C437.38 35.8899 434.04 34.3699 429.64 34.3699H426.62V29.7099H429.64ZM426.62 27.7099V23.0499H429.64C433.41 23.0499 436.17 24.2799 438.08 26.8099C439.4 28.5599 440.29 30.9599 440.75 33.9499C440.43 33.3399 440.07 32.7799 439.68 32.2599C437.38 29.2299 434.04 27.7099 429.64 27.7099H426.62ZM429.64 16.3999C433.41 16.3999 436.17 17.6299 438.08 20.1599C439.41 21.9199 440.3 24.3299 440.75 27.3299C440.42 26.7199 440.07 26.1299 439.67 25.6099C437.37 22.5799 434.03 21.0599 429.63 21.0599H426.61V16.3999H429.63H429.64ZM426.62 43.0299H429.64C433.41 43.0299 436.17 44.2599 438.08 46.7899C438.17 46.9099 438.24 47.0399 438.33 47.1599C438.25 47.2799 438.17 47.4199 438.08 47.5399C436.17 50.0799 433.46 51.3099 429.81 51.3099H426.62V43.0299Z" fill="url(#paint11_linear_2015_963)" />
		<path d="M460.34 32.2901C460.31 26.3601 458.98 20.9301 456.38 16.1401C453.76 11.3101 450.06 7.51012 445.38 4.85012C440.73 2.21012 435.43 0.870117 429.64 0.870117H409.7C408.6 0.870117 407.7 1.77012 407.7 2.87012V64.7801V91.4101C407.7 92.5101 408.6 93.4101 409.7 93.4101H430.07C435.77 93.3801 441 92.0001 445.64 89.2901C450.3 86.5701 453.96 82.7601 456.52 77.9601C459.06 73.1901 460.35 67.7501 460.35 61.7801V58.9301C460.35 58.4301 460.3 57.9401 460.28 57.4401C460.32 56.6801 460.35 55.9001 460.35 55.1201V52.2701C460.35 51.7601 460.3 51.2701 460.28 50.7801C460.32 50.0201 460.35 49.2501 460.35 48.4701V45.6201C460.35 45.1101 460.3 44.6201 460.28 44.1201C460.32 43.3601 460.35 42.5901 460.35 41.8101V38.9601C460.35 38.3401 460.33 37.7301 460.3 37.1201C460.33 36.4701 460.35 35.8201 460.35 35.1501V32.3001L460.34 32.2901ZM409.7 2.87012H429.64C435.11 2.87012 440.03 4.11012 444.39 6.59012C448.75 9.07012 452.16 12.5701 454.62 17.0901C456.03 19.6901 457.02 22.4601 457.63 25.4201C457.74 25.9401 457.83 26.4701 457.92 27.0001C457.93 27.0701 457.94 27.1401 457.95 27.2101C458.02 27.6901 458.09 28.1701 458.14 28.6601C458.16 28.8701 458.18 29.0801 458.2 29.2901C458.23 29.6601 458.27 30.0401 458.29 30.4201C458.32 31.0401 458.35 31.6701 458.35 32.3001V35.1501C458.35 35.7501 458.31 36.3301 458.28 36.9201C458.28 37.0301 458.28 37.1401 458.29 37.2501C458.03 42.0801 456.85 46.4601 454.75 50.4001C452.35 54.8901 448.98 58.4101 444.63 60.9401C440.28 63.4801 435.42 64.7601 430.07 64.7901H409.7V2.87012ZM409.7 73.4301H430.07C435.77 73.4001 441 72.0201 445.64 69.3101C450.3 66.5901 453.96 62.7801 456.52 57.9801C456.92 57.2201 457.29 56.4401 457.63 55.6501C457.04 58.5101 456.09 61.2001 454.76 63.7001C452.36 68.1901 448.99 71.7101 444.64 74.2401C440.29 76.7801 435.43 78.0601 430.08 78.0901H409.71V73.4301H409.7ZM454.75 57.0401C452.35 61.5301 448.98 65.0501 444.63 67.5901C440.28 70.1301 435.42 71.4101 430.07 71.4401H409.7V66.7801H430.07C435.77 66.7501 441 65.3601 445.64 62.6601C450.3 59.9401 453.96 56.1301 456.52 51.3301C456.92 50.5701 457.29 49.7901 457.63 49.0001C457.04 51.8601 456.09 54.5501 454.76 57.0501L454.75 57.0401ZM409.7 80.0901H430.07C435.77 80.0601 441 78.6801 445.64 75.9701C450.3 73.2501 453.96 69.4401 456.52 64.6401C456.92 63.8801 457.29 63.1001 457.63 62.3101C457.04 65.1701 456.09 67.8601 454.76 70.3601C452.36 74.8501 448.99 78.3701 444.64 80.9101C440.29 83.4501 435.43 84.7301 430.08 84.7601H409.71V80.1001L409.7 80.0901ZM454.75 77.0101C452.35 81.5001 448.98 85.0201 444.63 87.5501C440.28 90.0901 435.42 91.3701 430.07 91.4001H409.7V86.7401H430.07C435.77 86.7101 441 85.3201 445.64 82.6201C450.3 79.9001 453.96 76.0901 456.52 71.2901C456.92 70.5301 457.29 69.7501 457.63 68.9601C457.04 71.8201 456.09 74.5101 454.76 77.0101H454.75Z" fill="url(#paint12_linear_2015_963)" />
		<path d="M652.181 9.5001V2.8501C652.181 1.7501 651.281 0.850098 650.181 0.850098H635.301C634.201 0.850098 633.301 1.7501 633.301 2.8501V64.7601V91.3901C633.301 92.4901 634.201 93.3901 635.301 93.3901H650.181C651.281 93.3901 652.181 92.4901 652.181 91.3901V9.5101V9.5001ZM650.181 84.7201H635.301V80.0601H650.181V84.7201ZM635.301 66.7501H650.181V71.4101H635.301V66.7501ZM650.181 78.0601H635.301V73.4001H650.181V78.0601ZM650.181 2.8401V7.5001V64.7501H635.301V7.5101V2.8501H650.181V2.8401ZM650.181 91.3701H635.301V86.7101H650.181V91.3701Z" fill="url(#paint13_linear_2015_963)" />
		<path d="M483.8 0.850098H473.59C472.49 0.850098 471.59 1.7501 471.59 2.8501V53.9301C471.59 55.0301 472.49 55.9301 473.59 55.9301H482.39C483.43 55.9301 484.3 55.1301 484.38 54.0901L485.78 36.5301C485.78 36.4801 485.78 36.4201 485.78 36.3701V2.8501C485.78 1.7501 484.88 0.850098 483.78 0.850098H483.8ZM473.59 42.6101H482.39C482.52 42.6101 482.64 42.6001 482.77 42.5701L482.39 47.2601H473.59V42.6001V42.6101ZM473.59 29.4701V29.2901H482.39C482.52 29.2901 482.64 29.2801 482.77 29.2501L482.39 33.9401H473.59V29.4601V29.4701ZM482.39 35.9501C482.52 35.9501 482.64 35.9401 482.77 35.9101L482.39 40.6001H473.59V35.9401H482.39V35.9501ZM473.59 2.8401H483.8V9.7301L482.4 27.2901H473.6V2.8501L473.59 2.8401ZM473.59 53.9201V49.2601H482.39C482.52 49.2601 482.64 49.2501 482.77 49.2201L482.39 53.9101H473.59V53.9201Z" fill="url(#paint14_linear_2015_963)" />
	</g>
	<defs>
		<linearGradient id="paint0_linear_2015_963" x1="1.28984" y1="30.9302" x2="64.2298" y2="30.9302" gradientUnits="userSpaceOnUse">
			<stop stop-color="#FF0000">
				<animate attributeName="offset" values="-1.97;.03" dur="3s" repeatCount="indefinite" />
			</stop>
			<stop stop-color="#0505a9">
				<animate attributeName="offset" values="-1.4;.6" dur="3s" repeatCount="indefinite" />
			</stop>
			<stop stop-color="#0538bf">
				<animate attributeName="offset" values="-1.31;.69" dur="3s" repeatCount="indefinite" />
			</stop>
			<stop stop-color="#0585e1">
				<animate attributeName="offset" values="-1.18;.82" dur="3s" repeatCount="indefinite" />
			</stop>
			<stop stop-color="#05b5f6">
				<animate attributeName="offset" values="-1.08;.92" dur="3s" repeatCount="indefinite" />
			</stop>
			<stop stop-color="#05c8ff">
				<animate attributeName="offset" values="-1.03;.97" dur="3s" repeatCount="indefinite" />
			</stop>
			<stop stop-color="#05c8ff">
				<animate attributeName="offset" values="-.97;1.03" dur="3s" repeatCount="indefinite" />
			</stop>
			<stop stop-color="#05b5f6">
				<animate attributeName="offset" values="-.92;1.08" dur="3s" repeatCount="indefinite" />
			</stop>
			<stop stop-color="#0585e1">
				<animate attributeName="offset" values="-.82;1.18" dur="3s" repeatCount="indefinite" />
			</stop>
			<stop stop-color="#0538bf">
				<animate attributeName="offset" values="-.69;0.31" dur="3s" repeatCount="indefinite" />
			</stop>
			<stop stop-color="#0505a9">
				<animate attributeName="offset" values="-.6;1.4" dur="3s" repeatCount="indefinite" />
			</stop>
			<stop stop-color="#FF0000">
				<animate attributeName="offset" values="-.03;1.97" dur="3s" repeatCount="indefinite" />
			</stop>
			<stop stop-color="#FF0000">
				<animate attributeName="offset" values=".03;2.03" dur="3s" repeatCount="indefinite" />
			</stop>
			<stop stop-color="#0505a9">
				<animate attributeName="offset" values=".6;2.6" dur="3s" repeatCount="indefinite" />
			</stop>
			<stop stop-color="#0538bf">
				<animate attributeName="offset" values=".69;2.69" dur="3s" repeatCount="indefinite" />
			</stop>
			<stop stop-color="#0585e1">
				<animate attributeName="offset" values=".82;2.82" dur="3s" repeatCount="indefinite" />
			</stop>
			<stop stop-color="#05b5f6">
				<animate attributeName="offset" values=".92;2.92" dur="3s" repeatCount="indefinite" />
			</stop>
			<stop stop-color="#05c8ff">
				<animate attributeName="offset" values=".97;2.97" dur="3s" repeatCount="indefinite" />
			</stop>
		</linearGradient>
		<linearGradient id="paint1_linear_2015_963" x1="2.34374e-05" y1="47.1201" x2="63.61" y2="47.1201" gradientUnits="userSpaceOnUse">
			<stop stop-color="#FF0000">
				<animate attributeName="offset" values="-1.97;.03" dur="3s" repeatCount="indefinite" />
			</stop>
			<stop stop-color="#0505a9">
				<animate attributeName="offset" values="-1.4;.6" dur="3s" repeatCount="indefinite" />
			</stop>
			<stop stop-color="#0538bf">
				<animate attributeName="offset" values="-1.31;.69" dur="3s" repeatCount="indefinite" />
			</stop>
			<stop stop-color="#0585e1">
				<animate attributeName="offset" values="-1.18;.82" dur="3s" repeatCount="indefinite" />
			</stop>
			<stop stop-color="#05b5f6">
				<animate attributeName="offset" values="-1.08;.92" dur="3s" repeatCount="indefinite" />
			</stop>
			<stop stop-color="#05c8ff">
				<animate attributeName="offset" values="-1.03;.97" dur="3s" repeatCount="indefinite" />
			</stop>
			<stop stop-color="#05c8ff">
				<animate attributeName="offset" values="-.97;1.03" dur="3s" repeatCount="indefinite" />
			</stop>
			<stop stop-color="#05b5f6">
				<animate attributeName="offset" values="-.92;1.08" dur="3s" repeatCount="indefinite" />
			</stop>
			<stop stop-color="#0585e1">
				<animate attributeName="offset" values="-.82;1.18" dur="3s" repeatCount="indefinite" />
			</stop>
			<stop stop-color="#0538bf">
				<animate attributeName="offset" values="-.69;0.31" dur="3s" repeatCount="indefinite" />
			</stop>
			<stop stop-color="#0505a9">
				<animate attributeName="offset" values="-.6;1.4" dur="3s" repeatCount="indefinite" />
			</stop>
			<stop stop-color="#FF0000">
				<animate attributeName="offset" values="-.03;1.97" dur="3s" repeatCount="indefinite" />
			</stop>
			<stop stop-color="#FF0000">
				<animate attributeName="offset" values=".03;2.03" dur="3s" repeatCount="indefinite" />
			</stop>
			<stop stop-color="#0505a9">
				<animate attributeName="offset" values=".6;2.6" dur="3s" repeatCount="indefinite" />
			</stop>
			<stop stop-color="#0538bf">
				<animate attributeName="offset" values=".69;2.69" dur="3s" repeatCount="indefinite" />
			</stop>
			<stop stop-color="#0585e1">
				<animate attributeName="offset" values=".82;2.82" dur="3s" repeatCount="indefinite" />
			</stop>
			<stop stop-color="#05b5f6">
				<animate attributeName="offset" values=".92;2.92" dur="3s" repeatCount="indefinite" />
			</stop>
			<stop stop-color="#05c8ff">
				<animate attributeName="offset" values=".97;2.97" dur="3s" repeatCount="indefinite" />
			</stop>
		</linearGradient>
		<linearGradient id="paint2_linear_2015_963" x1="73.6296" y1="47.5401" x2="126.4" y2="47.5401" gradientUnits="userSpaceOnUse">
			<stop stop-color="#FF0000">
				<animate attributeName="offset" values="-1.97;.03" dur="3s" repeatCount="indefinite" />
			</stop>
			<stop stop-color="#0505a9">
				<animate attributeName="offset" values="-1.4;.6" dur="3s" repeatCount="indefinite" />
			</stop>
			<stop stop-color="#0538bf">
				<animate attributeName="offset" values="-1.31;.69" dur="3s" repeatCount="indefinite" />
			</stop>
			<stop stop-color="#0585e1">
				<animate attributeName="offset" values="-1.18;.82" dur="3s" repeatCount="indefinite" />
			</stop>
			<stop stop-color="#05b5f6">
				<animate attributeName="offset" values="-1.08;.92" dur="3s" repeatCount="indefinite" />
			</stop>
			<stop stop-color="#05c8ff">
				<animate attributeName="offset" values="-1.03;.97" dur="3s" repeatCount="indefinite" />
			</stop>
			<stop stop-color="#05c8ff">
				<animate attributeName="offset" values="-.97;1.03" dur="3s" repeatCount="indefinite" />
			</stop>
			<stop stop-color="#05b5f6">
				<animate attributeName="offset" values="-.92;1.08" dur="3s" repeatCount="indefinite" />
			</stop>
			<stop stop-color="#0585e1">
				<animate attributeName="offset" values="-.82;1.18" dur="3s" repeatCount="indefinite" />
			</stop>
			<stop stop-color="#0538bf">
				<animate attributeName="offset" values="-.69;0.31" dur="3s" repeatCount="indefinite" />
			</stop>
			<stop stop-color="#0505a9">
				<animate attributeName="offset" values="-.6;1.4" dur="3s" repeatCount="indefinite" />
			</stop>
			<stop stop-color="#FF0000">
				<animate attributeName="offset" values="-.03;1.97" dur="3s" repeatCount="indefinite" />
			</stop>
			<stop stop-color="#FF0000">
				<animate attributeName="offset" values=".03;2.03" dur="3s" repeatCount="indefinite" />
			</stop>
			<stop stop-color="#0505a9">
				<animate attributeName="offset" values=".6;2.6" dur="3s" repeatCount="indefinite" />
			</stop>
			<stop stop-color="#0538bf">
				<animate attributeName="offset" values=".69;2.69" dur="3s" repeatCount="indefinite" />
			</stop>
			<stop stop-color="#0585e1">
				<animate attributeName="offset" values=".82;2.82" dur="3s" repeatCount="indefinite" />
			</stop>
			<stop stop-color="#05b5f6">
				<animate attributeName="offset" values=".92;2.92" dur="3s" repeatCount="indefinite" />
			</stop>
			<stop stop-color="#05c8ff">
				<animate attributeName="offset" values=".97;2.97" dur="3s" repeatCount="indefinite" />
			</stop>
		</linearGradient>
		<linearGradient id="paint3_linear_2015_963" x1="199.81" y1="47.12" x2="257.98" y2="47.12" gradientUnits="userSpaceOnUse">
			<stop stop-color="#FF0000">
				<animate attributeName="offset" values="-1.97;.03" dur="3s" repeatCount="indefinite" />
			</stop>
			<stop stop-color="#0505a9">
				<animate attributeName="offset" values="-1.4;.6" dur="3s" repeatCount="indefinite" />
			</stop>
			<stop stop-color="#0538bf">
				<animate attributeName="offset" values="-1.31;.69" dur="3s" repeatCount="indefinite" />
			</stop>
			<stop stop-color="#0585e1">
				<animate attributeName="offset" values="-1.18;.82" dur="3s" repeatCount="indefinite" />
			</stop>
			<stop stop-color="#05b5f6">
				<animate attributeName="offset" values="-1.08;.92" dur="3s" repeatCount="indefinite" />
			</stop>
			<stop stop-color="#05c8ff">
				<animate attributeName="offset" values="-1.03;.97" dur="3s" repeatCount="indefinite" />
			</stop>
			<stop stop-color="#05c8ff">
				<animate attributeName="offset" values="-.97;1.03" dur="3s" repeatCount="indefinite" />
			</stop>
			<stop stop-color="#05b5f6">
				<animate attributeName="offset" values="-.92;1.08" dur="3s" repeatCount="indefinite" />
			</stop>
			<stop stop-color="#0585e1">
				<animate attributeName="offset" values="-.82;1.18" dur="3s" repeatCount="indefinite" />
			</stop>
			<stop stop-color="#0538bf">
				<animate attributeName="offset" values="-.69;0.31" dur="3s" repeatCount="indefinite" />
			</stop>
			<stop stop-color="#0505a9">
				<animate attributeName="offset" values="-.6;1.4" dur="3s" repeatCount="indefinite" />
			</stop>
			<stop stop-color="#FF0000">
				<animate attributeName="offset" values="-.03;1.97" dur="3s" repeatCount="indefinite" />
			</stop>
			<stop stop-color="#FF0000">
				<animate attributeName="offset" values=".03;2.03" dur="3s" repeatCount="indefinite" />
			</stop>
			<stop stop-color="#0505a9">
				<animate attributeName="offset" values=".6;2.6" dur="3s" repeatCount="indefinite" />
			</stop>
			<stop stop-color="#0538bf">
				<animate attributeName="offset" values=".69;2.69" dur="3s" repeatCount="indefinite" />
			</stop>
			<stop stop-color="#0585e1">
				<animate attributeName="offset" values=".82;2.82" dur="3s" repeatCount="indefinite" />
			</stop>
			<stop stop-color="#05b5f6">
				<animate attributeName="offset" values=".92;2.92" dur="3s" repeatCount="indefinite" />
			</stop>
			<stop stop-color="#05c8ff">
				<animate attributeName="offset" values=".97;2.97" dur="3s" repeatCount="indefinite" />
			</stop>
		</linearGradient>
		<linearGradient id="paint4_linear_2015_963" x1="200.909" y1="33.8299" x2="259.499" y2="33.8299" gradientUnits="userSpaceOnUse">
			<stop stop-color="#FF0000">
				<animate attributeName="offset" values="-1.97;.03" dur="3s" repeatCount="indefinite" />
			</stop>
			<stop stop-color="#0505a9">
				<animate attributeName="offset" values="-1.4;.6" dur="3s" repeatCount="indefinite" />
			</stop>
			<stop stop-color="#0538bf">
				<animate attributeName="offset" values="-1.31;.69" dur="3s" repeatCount="indefinite" />
			</stop>
			<stop stop-color="#0585e1">
				<animate attributeName="offset" values="-1.18;.82" dur="3s" repeatCount="indefinite" />
			</stop>
			<stop stop-color="#05b5f6">
				<animate attributeName="offset" values="-1.08;.92" dur="3s" repeatCount="indefinite" />
			</stop>
			<stop stop-color="#05c8ff">
				<animate attributeName="offset" values="-1.03;.97" dur="3s" repeatCount="indefinite" />
			</stop>
			<stop stop-color="#05c8ff">
				<animate attributeName="offset" values="-.97;1.03" dur="3s" repeatCount="indefinite" />
			</stop>
			<stop stop-color="#05b5f6">
				<animate attributeName="offset" values="-.92;1.08" dur="3s" repeatCount="indefinite" />
			</stop>
			<stop stop-color="#0585e1">
				<animate attributeName="offset" values="-.82;1.18" dur="3s" repeatCount="indefinite" />
			</stop>
			<stop stop-color="#0538bf">
				<animate attributeName="offset" values="-.69;0.31" dur="3s" repeatCount="indefinite" />
			</stop>
			<stop stop-color="#0505a9">
				<animate attributeName="offset" values="-.6;1.4" dur="3s" repeatCount="indefinite" />
			</stop>
			<stop stop-color="#FF0000">
				<animate attributeName="offset" values="-.03;1.97" dur="3s" repeatCount="indefinite" />
			</stop>
			<stop stop-color="#FF0000">
				<animate attributeName="offset" values=".03;2.03" dur="3s" repeatCount="indefinite" />
			</stop>
			<stop stop-color="#0505a9">
				<animate attributeName="offset" values=".6;2.6" dur="3s" repeatCount="indefinite" />
			</stop>
			<stop stop-color="#0538bf">
				<animate attributeName="offset" values=".69;2.69" dur="3s" repeatCount="indefinite" />
			</stop>
			<stop stop-color="#0585e1">
				<animate attributeName="offset" values=".82;2.82" dur="3s" repeatCount="indefinite" />
			</stop>
			<stop stop-color="#05b5f6">
				<animate attributeName="offset" values=".92;2.92" dur="3s" repeatCount="indefinite" />
			</stop>
			<stop stop-color="#05c8ff">
				<animate attributeName="offset" values=".97;2.97" dur="3s" repeatCount="indefinite" />
			</stop>
		</linearGradient>
		<linearGradient id="paint5_linear_2015_963" x1="271.91" y1="47.5401" x2="324.68" y2="47.5401" gradientUnits="userSpaceOnUse">
			<stop stop-color="#FF0000">
				<animate attributeName="offset" values="-1.97;.03" dur="3s" repeatCount="indefinite" />
			</stop>
			<stop stop-color="#0505a9">
				<animate attributeName="offset" values="-1.4;.6" dur="3s" repeatCount="indefinite" />
			</stop>
			<stop stop-color="#0538bf">
				<animate attributeName="offset" values="-1.31;.69" dur="3s" repeatCount="indefinite" />
			</stop>
			<stop stop-color="#0585e1">
				<animate attributeName="offset" values="-1.18;.82" dur="3s" repeatCount="indefinite" />
			</stop>
			<stop stop-color="#05b5f6">
				<animate attributeName="offset" values="-1.08;.92" dur="3s" repeatCount="indefinite" />
			</stop>
			<stop stop-color="#05c8ff">
				<animate attributeName="offset" values="-1.03;.97" dur="3s" repeatCount="indefinite" />
			</stop>
			<stop stop-color="#05c8ff">
				<animate attributeName="offset" values="-.97;1.03" dur="3s" repeatCount="indefinite" />
			</stop>
			<stop stop-color="#05b5f6">
				<animate attributeName="offset" values="-.92;1.08" dur="3s" repeatCount="indefinite" />
			</stop>
			<stop stop-color="#0585e1">
				<animate attributeName="offset" values="-.82;1.18" dur="3s" repeatCount="indefinite" />
			</stop>
			<stop stop-color="#0538bf">
				<animate attributeName="offset" values="-.69;0.31" dur="3s" repeatCount="indefinite" />
			</stop>
			<stop stop-color="#0505a9">
				<animate attributeName="offset" values="-.6;1.4" dur="3s" repeatCount="indefinite" />
			</stop>
			<stop stop-color="#FF0000">
				<animate attributeName="offset" values="-.03;1.97" dur="3s" repeatCount="indefinite" />
			</stop>
			<stop stop-color="#FF0000">
				<animate attributeName="offset" values=".03;2.03" dur="3s" repeatCount="indefinite" />
			</stop>
			<stop stop-color="#0505a9">
				<animate attributeName="offset" values=".6;2.6" dur="3s" repeatCount="indefinite" />
			</stop>
			<stop stop-color="#0538bf">
				<animate attributeName="offset" values=".69;2.69" dur="3s" repeatCount="indefinite" />
			</stop>
			<stop stop-color="#0585e1">
				<animate attributeName="offset" values=".82;2.82" dur="3s" repeatCount="indefinite" />
			</stop>
			<stop stop-color="#05b5f6">
				<animate attributeName="offset" values=".92;2.92" dur="3s" repeatCount="indefinite" />
			</stop>
			<stop stop-color="#05c8ff">
				<animate attributeName="offset" values=".97;2.97" dur="3s" repeatCount="indefinite" />
			</stop>
		</linearGradient>
		<linearGradient id="paint6_linear_2015_963" x1="498.33" y1="46.9501" x2="554.07" y2="46.9501" gradientUnits="userSpaceOnUse">
			<stop stop-color="#FF0000">
				<animate attributeName="offset" values="-1.97;.03" dur="3s" repeatCount="indefinite" />
			</stop>
			<stop stop-color="#0505a9">
				<animate attributeName="offset" values="-1.4;.6" dur="3s" repeatCount="indefinite" />
			</stop>
			<stop stop-color="#0538bf">
				<animate attributeName="offset" values="-1.31;.69" dur="3s" repeatCount="indefinite" />
			</stop>
			<stop stop-color="#0585e1">
				<animate attributeName="offset" values="-1.18;.82" dur="3s" repeatCount="indefinite" />
			</stop>
			<stop stop-color="#05b5f6">
				<animate attributeName="offset" values="-1.08;.92" dur="3s" repeatCount="indefinite" />
			</stop>
			<stop stop-color="#05c8ff">
				<animate attributeName="offset" values="-1.03;.97" dur="3s" repeatCount="indefinite" />
			</stop>
			<stop stop-color="#05c8ff">
				<animate attributeName="offset" values="-.97;1.03" dur="3s" repeatCount="indefinite" />
			</stop>
			<stop stop-color="#05b5f6">
				<animate attributeName="offset" values="-.92;1.08" dur="3s" repeatCount="indefinite" />
			</stop>
			<stop stop-color="#0585e1">
				<animate attributeName="offset" values="-.82;1.18" dur="3s" repeatCount="indefinite" />
			</stop>
			<stop stop-color="#0538bf">
				<animate attributeName="offset" values="-.69;0.31" dur="3s" repeatCount="indefinite" />
			</stop>
			<stop stop-color="#0505a9">
				<animate attributeName="offset" values="-.6;1.4" dur="3s" repeatCount="indefinite" />
			</stop>
			<stop stop-color="#FF0000">
				<animate attributeName="offset" values="-.03;1.97" dur="3s" repeatCount="indefinite" />
			</stop>
			<stop stop-color="#FF0000">
				<animate attributeName="offset" values=".03;2.03" dur="3s" repeatCount="indefinite" />
			</stop>
			<stop stop-color="#0505a9">
				<animate attributeName="offset" values=".6;2.6" dur="3s" repeatCount="indefinite" />
			</stop>
			<stop stop-color="#0538bf">
				<animate attributeName="offset" values=".69;2.69" dur="3s" repeatCount="indefinite" />
			</stop>
			<stop stop-color="#0585e1">
				<animate attributeName="offset" values=".82;2.82" dur="3s" repeatCount="indefinite" />
			</stop>
			<stop stop-color="#05b5f6">
				<animate attributeName="offset" values=".92;2.92" dur="3s" repeatCount="indefinite" />
			</stop>
			<stop stop-color="#05c8ff">
				<animate attributeName="offset" values=".97;2.97" dur="3s" repeatCount="indefinite" />
			</stop>
		</linearGradient>
		<linearGradient id="paint7_linear_2015_963" x1="567.75" y1="47.5401" x2="620.52" y2="47.5401" gradientUnits="userSpaceOnUse">
			<stop stop-color="#FF0000">
				<animate attributeName="offset" values="-1.97;.03" dur="3s" repeatCount="indefinite" />
			</stop>
			<stop stop-color="#0505a9">
				<animate attributeName="offset" values="-1.4;.6" dur="3s" repeatCount="indefinite" />
			</stop>
			<stop stop-color="#0538bf">
				<animate attributeName="offset" values="-1.31;.69" dur="3s" repeatCount="indefinite" />
			</stop>
			<stop stop-color="#0585e1">
				<animate attributeName="offset" values="-1.18;.82" dur="3s" repeatCount="indefinite" />
			</stop>
			<stop stop-color="#05b5f6">
				<animate attributeName="offset" values="-1.08;.92" dur="3s" repeatCount="indefinite" />
			</stop>
			<stop stop-color="#05c8ff">
				<animate attributeName="offset" values="-1.03;.97" dur="3s" repeatCount="indefinite" />
			</stop>
			<stop stop-color="#05c8ff">
				<animate attributeName="offset" values="-.97;1.03" dur="3s" repeatCount="indefinite" />
			</stop>
			<stop stop-color="#05b5f6">
				<animate attributeName="offset" values="-.92;1.08" dur="3s" repeatCount="indefinite" />
			</stop>
			<stop stop-color="#0585e1">
				<animate attributeName="offset" values="-.82;1.18" dur="3s" repeatCount="indefinite" />
			</stop>
			<stop stop-color="#0538bf">
				<animate attributeName="offset" values="-.69;0.31" dur="3s" repeatCount="indefinite" />
			</stop>
			<stop stop-color="#0505a9">
				<animate attributeName="offset" values="-.6;1.4" dur="3s" repeatCount="indefinite" />
			</stop>
			<stop stop-color="#FF0000">
				<animate attributeName="offset" values="-.03;1.97" dur="3s" repeatCount="indefinite" />
			</stop>
			<stop stop-color="#FF0000">
				<animate attributeName="offset" values=".03;2.03" dur="3s" repeatCount="indefinite" />
			</stop>
			<stop stop-color="#0505a9">
				<animate attributeName="offset" values=".6;2.6" dur="3s" repeatCount="indefinite" />
			</stop>
			<stop stop-color="#0538bf">
				<animate attributeName="offset" values=".69;2.69" dur="3s" repeatCount="indefinite" />
			</stop>
			<stop stop-color="#0585e1">
				<animate attributeName="offset" values=".82;2.82" dur="3s" repeatCount="indefinite" />
			</stop>
			<stop stop-color="#05b5f6">
				<animate attributeName="offset" values=".92;2.92" dur="3s" repeatCount="indefinite" />
			</stop>
			<stop stop-color="#05c8ff">
				<animate attributeName="offset" values=".97;2.97" dur="3s" repeatCount="indefinite" />
			</stop>
		</linearGradient>
		<linearGradient id="paint8_linear_2015_963" x1="139.02" y1="47.1201" x2="185.71" y2="47.1201" gradientUnits="userSpaceOnUse">
			<stop stop-color="#FF0000">
				<animate attributeName="offset" values="-1.97;.03" dur="3s" repeatCount="indefinite" />
			</stop>
			<stop stop-color="#0505a9">
				<animate attributeName="offset" values="-1.4;.6" dur="3s" repeatCount="indefinite" />
			</stop>
			<stop stop-color="#0538bf">
				<animate attributeName="offset" values="-1.31;.69" dur="3s" repeatCount="indefinite" />
			</stop>
			<stop stop-color="#0585e1">
				<animate attributeName="offset" values="-1.18;.82" dur="3s" repeatCount="indefinite" />
			</stop>
			<stop stop-color="#05b5f6">
				<animate attributeName="offset" values="-1.08;.92" dur="3s" repeatCount="indefinite" />
			</stop>
			<stop stop-color="#05c8ff">
				<animate attributeName="offset" values="-1.03;.97" dur="3s" repeatCount="indefinite" />
			</stop>
			<stop stop-color="#05c8ff">
				<animate attributeName="offset" values="-.97;1.03" dur="3s" repeatCount="indefinite" />
			</stop>
			<stop stop-color="#05b5f6">
				<animate attributeName="offset" values="-.92;1.08" dur="3s" repeatCount="indefinite" />
			</stop>
			<stop stop-color="#0585e1">
				<animate attributeName="offset" values="-.82;1.18" dur="3s" repeatCount="indefinite" />
			</stop>
			<stop stop-color="#0538bf">
				<animate attributeName="offset" values="-.69;0.31" dur="3s" repeatCount="indefinite" />
			</stop>
			<stop stop-color="#0505a9">
				<animate attributeName="offset" values="-.6;1.4" dur="3s" repeatCount="indefinite" />
			</stop>
			<stop stop-color="#FF0000">
				<animate attributeName="offset" values="-.03;1.97" dur="3s" repeatCount="indefinite" />
			</stop>
			<stop stop-color="#FF0000">
				<animate attributeName="offset" values=".03;2.03" dur="3s" repeatCount="indefinite" />
			</stop>
			<stop stop-color="#0505a9">
				<animate attributeName="offset" values=".6;2.6" dur="3s" repeatCount="indefinite" />
			</stop>
			<stop stop-color="#0538bf">
				<animate attributeName="offset" values=".69;2.69" dur="3s" repeatCount="indefinite" />
			</stop>
			<stop stop-color="#0585e1">
				<animate attributeName="offset" values=".82;2.82" dur="3s" repeatCount="indefinite" />
			</stop>
			<stop stop-color="#05b5f6">
				<animate attributeName="offset" values=".92;2.92" dur="3s" repeatCount="indefinite" />
			</stop>
			<stop stop-color="#05c8ff">
				<animate attributeName="offset" values=".97;2.97" dur="3s" repeatCount="indefinite" />
			</stop>
		</linearGradient>
		<linearGradient id="paint9_linear_2015_963" x1="340.44" y1="47.1199" x2="394.36" y2="47.1199" gradientUnits="userSpaceOnUse">
			<stop stop-color="#FF0000">
				<animate attributeName="offset" values="-1.97;.03" dur="3s" repeatCount="indefinite" />
			</stop>
			<stop stop-color="#0505a9">
				<animate attributeName="offset" values="-1.4;.6" dur="3s" repeatCount="indefinite" />
			</stop>
			<stop stop-color="#0538bf">
				<animate attributeName="offset" values="-1.31;.69" dur="3s" repeatCount="indefinite" />
			</stop>
			<stop stop-color="#0585e1">
				<animate attributeName="offset" values="-1.18;.82" dur="3s" repeatCount="indefinite" />
			</stop>
			<stop stop-color="#05b5f6">
				<animate attributeName="offset" values="-1.08;.92" dur="3s" repeatCount="indefinite" />
			</stop>
			<stop stop-color="#05c8ff">
				<animate attributeName="offset" values="-1.03;.97" dur="3s" repeatCount="indefinite" />
			</stop>
			<stop stop-color="#05c8ff">
				<animate attributeName="offset" values="-.97;1.03" dur="3s" repeatCount="indefinite" />
			</stop>
			<stop stop-color="#05b5f6">
				<animate attributeName="offset" values="-.92;1.08" dur="3s" repeatCount="indefinite" />
			</stop>
			<stop stop-color="#0585e1">
				<animate attributeName="offset" values="-.82;1.18" dur="3s" repeatCount="indefinite" />
			</stop>
			<stop stop-color="#0538bf">
				<animate attributeName="offset" values="-.69;0.31" dur="3s" repeatCount="indefinite" />
			</stop>
			<stop stop-color="#0505a9">
				<animate attributeName="offset" values="-.6;1.4" dur="3s" repeatCount="indefinite" />
			</stop>
			<stop stop-color="#FF0000">
				<animate attributeName="offset" values="-.03;1.97" dur="3s" repeatCount="indefinite" />
			</stop>
			<stop stop-color="#FF0000">
				<animate attributeName="offset" values=".03;2.03" dur="3s" repeatCount="indefinite" />
			</stop>
			<stop stop-color="#0505a9">
				<animate attributeName="offset" values=".6;2.6" dur="3s" repeatCount="indefinite" />
			</stop>
			<stop stop-color="#0538bf">
				<animate attributeName="offset" values=".69;2.69" dur="3s" repeatCount="indefinite" />
			</stop>
			<stop stop-color="#0585e1">
				<animate attributeName="offset" values=".82;2.82" dur="3s" repeatCount="indefinite" />
			</stop>
			<stop stop-color="#05b5f6">
				<animate attributeName="offset" values=".92;2.92" dur="3s" repeatCount="indefinite" />
			</stop>
			<stop stop-color="#05c8ff">
				<animate attributeName="offset" values=".97;2.97" dur="3s" repeatCount="indefinite" />
			</stop>
		</linearGradient>
		<linearGradient id="paint10_linear_2015_963" x1="342.33" y1="22.8601" x2="393.2" y2="22.8601" gradientUnits="userSpaceOnUse">
			<stop stop-color="#FF0000">
				<animate attributeName="offset" values="-1.97;.03" dur="3s" repeatCount="indefinite" />
			</stop>
			<stop stop-color="#0505a9">
				<animate attributeName="offset" values="-1.4;.6" dur="3s" repeatCount="indefinite" />
			</stop>
			<stop stop-color="#0538bf">
				<animate attributeName="offset" values="-1.31;.69" dur="3s" repeatCount="indefinite" />
			</stop>
			<stop stop-color="#0585e1">
				<animate attributeName="offset" values="-1.18;.82" dur="3s" repeatCount="indefinite" />
			</stop>
			<stop stop-color="#05b5f6">
				<animate attributeName="offset" values="-1.08;.92" dur="3s" repeatCount="indefinite" />
			</stop>
			<stop stop-color="#05c8ff">
				<animate attributeName="offset" values="-1.03;.97" dur="3s" repeatCount="indefinite" />
			</stop>
			<stop stop-color="#05c8ff">
				<animate attributeName="offset" values="-.97;1.03" dur="3s" repeatCount="indefinite" />
			</stop>
			<stop stop-color="#05b5f6">
				<animate attributeName="offset" values="-.92;1.08" dur="3s" repeatCount="indefinite" />
			</stop>
			<stop stop-color="#0585e1">
				<animate attributeName="offset" values="-.82;1.18" dur="3s" repeatCount="indefinite" />
			</stop>
			<stop stop-color="#0538bf">
				<animate attributeName="offset" values="-.69;0.31" dur="3s" repeatCount="indefinite" />
			</stop>
			<stop stop-color="#0505a9">
				<animate attributeName="offset" values="-.6;1.4" dur="3s" repeatCount="indefinite" />
			</stop>
			<stop stop-color="#FF0000">
				<animate attributeName="offset" values="-.03;1.97" dur="3s" repeatCount="indefinite" />
			</stop>
			<stop stop-color="#FF0000">
				<animate attributeName="offset" values=".03;2.03" dur="3s" repeatCount="indefinite" />
			</stop>
			<stop stop-color="#0505a9">
				<animate attributeName="offset" values=".6;2.6" dur="3s" repeatCount="indefinite" />
			</stop>
			<stop stop-color="#0538bf">
				<animate attributeName="offset" values=".69;2.69" dur="3s" repeatCount="indefinite" />
			</stop>
			<stop stop-color="#0585e1">
				<animate attributeName="offset" values=".82;2.82" dur="3s" repeatCount="indefinite" />
			</stop>
			<stop stop-color="#05b5f6">
				<animate attributeName="offset" values=".92;2.92" dur="3s" repeatCount="indefinite" />
			</stop>
			<stop stop-color="#05c8ff">
				<animate attributeName="offset" values=".97;2.97" dur="3s" repeatCount="indefinite" />
			</stop>
		</linearGradient>
		<linearGradient id="paint11_linear_2015_963" x1="408.25" y1="33.8399" x2="461.49" y2="33.8399" gradientUnits="userSpaceOnUse">
			<stop stop-color="#FF0000">
				<animate attributeName="offset" values="-1.97;.03" dur="3s" repeatCount="indefinite" />
			</stop>
			<stop stop-color="#0505a9">
				<animate attributeName="offset" values="-1.4;.6" dur="3s" repeatCount="indefinite" />
			</stop>
			<stop stop-color="#0538bf">
				<animate attributeName="offset" values="-1.31;.69" dur="3s" repeatCount="indefinite" />
			</stop>
			<stop stop-color="#0585e1">
				<animate attributeName="offset" values="-1.18;.82" dur="3s" repeatCount="indefinite" />
			</stop>
			<stop stop-color="#05b5f6">
				<animate attributeName="offset" values="-1.08;.92" dur="3s" repeatCount="indefinite" />
			</stop>
			<stop stop-color="#05c8ff">
				<animate attributeName="offset" values="-1.03;.97" dur="3s" repeatCount="indefinite" />
			</stop>
			<stop stop-color="#05c8ff">
				<animate attributeName="offset" values="-.97;1.03" dur="3s" repeatCount="indefinite" />
			</stop>
			<stop stop-color="#05b5f6">
				<animate attributeName="offset" values="-.92;1.08" dur="3s" repeatCount="indefinite" />
			</stop>
			<stop stop-color="#0585e1">
				<animate attributeName="offset" values="-.82;1.18" dur="3s" repeatCount="indefinite" />
			</stop>
			<stop stop-color="#0538bf">
				<animate attributeName="offset" values="-.69;0.31" dur="3s" repeatCount="indefinite" />
			</stop>
			<stop stop-color="#0505a9">
				<animate attributeName="offset" values="-.6;1.4" dur="3s" repeatCount="indefinite" />
			</stop>
			<stop stop-color="#FF0000">
				<animate attributeName="offset" values="-.03;1.97" dur="3s" repeatCount="indefinite" />
			</stop>
			<stop stop-color="#FF0000">
				<animate attributeName="offset" values=".03;2.03" dur="3s" repeatCount="indefinite" />
			</stop>
			<stop stop-color="#0505a9">
				<animate attributeName="offset" values=".6;2.6" dur="3s" repeatCount="indefinite" />
			</stop>
			<stop stop-color="#0538bf">
				<animate attributeName="offset" values=".69;2.69" dur="3s" repeatCount="indefinite" />
			</stop>
			<stop stop-color="#0585e1">
				<animate attributeName="offset" values=".82;2.82" dur="3s" repeatCount="indefinite" />
			</stop>
			<stop stop-color="#05b5f6">
				<animate attributeName="offset" values=".92;2.92" dur="3s" repeatCount="indefinite" />
			</stop>
			<stop stop-color="#05c8ff">
				<animate attributeName="offset" values=".97;2.97" dur="3s" repeatCount="indefinite" />
			</stop>
		</linearGradient>
		<linearGradient id="paint12_linear_2015_963" x1="407.7" y1="47.1401" x2="460.34" y2="47.1401" gradientUnits="userSpaceOnUse">
			<stop stop-color="#FF0000">
				<animate attributeName="offset" values="-1.97;.03" dur="3s" repeatCount="indefinite" />
			</stop>
			<stop stop-color="#0505a9">
				<animate attributeName="offset" values="-1.4;.6" dur="3s" repeatCount="indefinite" />
			</stop>
			<stop stop-color="#0538bf">
				<animate attributeName="offset" values="-1.31;.69" dur="3s" repeatCount="indefinite" />
			</stop>
			<stop stop-color="#0585e1">
				<animate attributeName="offset" values="-1.18;.82" dur="3s" repeatCount="indefinite" />
			</stop>
			<stop stop-color="#05b5f6">
				<animate attributeName="offset" values="-1.08;.92" dur="3s" repeatCount="indefinite" />
			</stop>
			<stop stop-color="#05c8ff">
				<animate attributeName="offset" values="-1.03;.97" dur="3s" repeatCount="indefinite" />
			</stop>
			<stop stop-color="#05c8ff">
				<animate attributeName="offset" values="-.97;1.03" dur="3s" repeatCount="indefinite" />
			</stop>
			<stop stop-color="#05b5f6">
				<animate attributeName="offset" values="-.92;1.08" dur="3s" repeatCount="indefinite" />
			</stop>
			<stop stop-color="#0585e1">
				<animate attributeName="offset" values="-.82;1.18" dur="3s" repeatCount="indefinite" />
			</stop>
			<stop stop-color="#0538bf">
				<animate attributeName="offset" values="-.69;0.31" dur="3s" repeatCount="indefinite" />
			</stop>
			<stop stop-color="#0505a9">
				<animate attributeName="offset" values="-.6;1.4" dur="3s" repeatCount="indefinite" />
			</stop>
			<stop stop-color="#FF0000">
				<animate attributeName="offset" values="-.03;1.97" dur="3s" repeatCount="indefinite" />
			</stop>
			<stop stop-color="#FF0000">
				<animate attributeName="offset" values=".03;2.03" dur="3s" repeatCount="indefinite" />
			</stop>
			<stop stop-color="#0505a9">
				<animate attributeName="offset" values=".6;2.6" dur="3s" repeatCount="indefinite" />
			</stop>
			<stop stop-color="#0538bf">
				<animate attributeName="offset" values=".69;2.69" dur="3s" repeatCount="indefinite" />
			</stop>
			<stop stop-color="#0585e1">
				<animate attributeName="offset" values=".82;2.82" dur="3s" repeatCount="indefinite" />
			</stop>
			<stop stop-color="#05b5f6">
				<animate attributeName="offset" values=".92;2.92" dur="3s" repeatCount="indefinite" />
			</stop>
			<stop stop-color="#05c8ff">
				<animate attributeName="offset" values=".97;2.97" dur="3s" repeatCount="indefinite" />
			</stop>
		</linearGradient>
		<linearGradient id="paint13_linear_2015_963" x1="633.301" y1="47.1201" x2="652.181" y2="47.1201" gradientUnits="userSpaceOnUse">
			<stop stop-color="#FF0000">
				<animate attributeName="offset" values="-1.97;.03" dur="3s" repeatCount="indefinite" />
			</stop>
			<stop stop-color="#0505a9">
				<animate attributeName="offset" values="-1.4;.6" dur="3s" repeatCount="indefinite" />
			</stop>
			<stop stop-color="#0538bf">
				<animate attributeName="offset" values="-1.31;.69" dur="3s" repeatCount="indefinite" />
			</stop>
			<stop stop-color="#0585e1">
				<animate attributeName="offset" values="-1.18;.82" dur="3s" repeatCount="indefinite" />
			</stop>
			<stop stop-color="#05b5f6">
				<animate attributeName="offset" values="-1.08;.92" dur="3s" repeatCount="indefinite" />
			</stop>
			<stop stop-color="#05c8ff">
				<animate attributeName="offset" values="-1.03;.97" dur="3s" repeatCount="indefinite" />
			</stop>
			<stop stop-color="#05c8ff">
				<animate attributeName="offset" values="-.97;1.03" dur="3s" repeatCount="indefinite" />
			</stop>
			<stop stop-color="#05b5f6">
				<animate attributeName="offset" values="-.92;1.08" dur="3s" repeatCount="indefinite" />
			</stop>
			<stop stop-color="#0585e1">
				<animate attributeName="offset" values="-.82;1.18" dur="3s" repeatCount="indefinite" />
			</stop>
			<stop stop-color="#0538bf">
				<animate attributeName="offset" values="-.69;0.31" dur="3s" repeatCount="indefinite" />
			</stop>
			<stop stop-color="#0505a9">
				<animate attributeName="offset" values="-.6;1.4" dur="3s" repeatCount="indefinite" />
			</stop>
			<stop stop-color="#FF0000">
				<animate attributeName="offset" values="-.03;1.97" dur="3s" repeatCount="indefinite" />
			</stop>
			<stop stop-color="#FF0000">
				<animate attributeName="offset" values=".03;2.03" dur="3s" repeatCount="indefinite" />
			</stop>
			<stop stop-color="#0505a9">
				<animate attributeName="offset" values=".6;2.6" dur="3s" repeatCount="indefinite" />
			</stop>
			<stop stop-color="#0538bf">
				<animate attributeName="offset" values=".69;2.69" dur="3s" repeatCount="indefinite" />
			</stop>
			<stop stop-color="#0585e1">
				<animate attributeName="offset" values=".82;2.82" dur="3s" repeatCount="indefinite" />
			</stop>
			<stop stop-color="#05b5f6">
				<animate attributeName="offset" values=".92;2.92" dur="3s" repeatCount="indefinite" />
			</stop>
			<stop stop-color="#05c8ff">
				<animate attributeName="offset" values=".97;2.97" dur="3s" repeatCount="indefinite" />
			</stop>
		</linearGradient>
		<linearGradient id="paint14_linear_2015_963" x1="471.59" y1="28.3901" x2="485.8" y2="28.3901" gradientUnits="userSpaceOnUse">
			<stop stop-color="#FF0000">
				<animate attributeName="offset" values="-1.97;.03" dur="3s" repeatCount="indefinite" />
			</stop>
			<stop stop-color="#0505a9">
				<animate attributeName="offset" values="-1.4;.6" dur="3s" repeatCount="indefinite" />
			</stop>
			<stop stop-color="#0538bf">
				<animate attributeName="offset" values="-1.31;.69" dur="3s" repeatCount="indefinite" />
			</stop>
			<stop stop-color="#0585e1">
				<animate attributeName="offset" values="-1.18;.82" dur="3s" repeatCount="indefinite" />
			</stop>
			<stop stop-color="#05b5f6">
				<animate attributeName="offset" values="-1.08;.92" dur="3s" repeatCount="indefinite" />
			</stop>
			<stop stop-color="#05c8ff">
				<animate attributeName="offset" values="-1.03;.97" dur="3s" repeatCount="indefinite" />
			</stop>
			<stop stop-color="#05c8ff">
				<animate attributeName="offset" values="-.97;1.03" dur="3s" repeatCount="indefinite" />
			</stop>
			<stop stop-color="#05b5f6">
				<animate attributeName="offset" values="-.92;1.08" dur="3s" repeatCount="indefinite" />
			</stop>
			<stop stop-color="#0585e1">
				<animate attributeName="offset" values="-.82;1.18" dur="3s" repeatCount="indefinite" />
			</stop>
			<stop stop-color="#0538bf">
				<animate attributeName="offset" values="-.69;0.31" dur="3s" repeatCount="indefinite" />
			</stop>
			<stop stop-color="#0505a9">
				<animate attributeName="offset" values="-.6;1.4" dur="3s" repeatCount="indefinite" />
			</stop>
			<stop stop-color="#FF0000">
				<animate attributeName="offset" values="-.03;1.97" dur="3s" repeatCount="indefinite" />
			</stop>
			<stop stop-color="#FF0000">
				<animate attributeName="offset" values=".03;2.03" dur="3s" repeatCount="indefinite" />
			</stop>
			<stop stop-color="#0505a9">
				<animate attributeName="offset" values=".6;2.6" dur="3s" repeatCount="indefinite" />
			</stop>
			<stop stop-color="#0538bf">
				<animate attributeName="offset" values=".69;2.69" dur="3s" repeatCount="indefinite" />
			</stop>
			<stop stop-color="#0585e1">
				<animate attributeName="offset" values=".82;2.82" dur="3s" repeatCount="indefinite" />
			</stop>
			<stop stop-color="#05b5f6">
				<animate attributeName="offset" values=".92;2.92" dur="3s" repeatCount="indefinite" />
			</stop>
			<stop stop-color="#05c8ff">
				<animate attributeName="offset" values=".97;2.97" dur="3s" repeatCount="indefinite" />
			</stop>
		</linearGradient>
		<clipPath id="clip0_2015_963">
			<rect width="652.18" height="94.24" fill="white" />
		</clipPath>
	</defs>
</svg>