<svg width="309" height="94" viewBox="0 0 309 94" fill="none" xmlns="http://www.w3.org/2000/svg">
	<g clip-path="url(#clip0_2015_957)">
		<path d="M178.37 0H163.45C162.35 0 161.45 0.9 161.45 2V42.44C161.45 45.73 160.83 48.06 159.61 49.37C158.41 50.66 156.59 51.29 154.06 51.29C149.06 51.29 146.77 48.76 146.62 43.1V2C146.62 0.9 145.72 0 144.62 0H129.61C128.51 0 127.61 0.9 127.61 2V69.45C127.7 76.83 130.16 82.73 134.9 87.01C139.6 91.25 146.04 93.39 154.05 93.39C159.32 93.39 163.97 92.44 167.88 90.56C171.89 88.64 175.01 85.79 177.16 82.09C179.29 78.44 180.37 74.09 180.37 69.16V2C180.37 0.9 179.47 0 178.37 0ZM129.6 2H144.61V43.12C144.78 49.9 147.93 53.28 154.05 53.28C157.14 53.28 159.48 52.43 161.07 50.73C162.66 49.03 163.45 46.27 163.45 42.44V2H178.37V42.52C178.37 47.11 177.39 51.09 175.44 54.45C173.48 57.81 170.68 60.37 167.02 62.12C163.36 63.88 159.04 64.76 154.05 64.76C146.51 64.76 140.57 62.8 136.23 58.89C131.89 54.98 129.68 49.62 129.6 42.82V2ZM175.43 67.76C173.47 71.12 170.67 73.68 167.01 75.43C163.35 77.19 159.03 78.07 154.04 78.07C146.5 78.07 140.56 76.11 136.22 72.2C132.84 69.15 130.77 65.22 129.97 60.42C131.17 62.92 132.78 65.14 134.88 67.03C139.58 71.27 146.02 73.41 154.03 73.41C159.3 73.41 163.95 72.46 167.86 70.58C171.87 68.66 174.99 65.81 177.14 62.11C177.44 61.6 177.71 61.08 177.96 60.54C177.51 63.2 176.66 65.61 175.41 67.76H175.43ZM177.98 67.2C177.53 69.86 176.68 72.27 175.43 74.42C173.47 77.78 170.67 80.34 167.01 82.09C163.35 83.85 159.03 84.73 154.04 84.73C146.5 84.73 140.56 82.77 136.22 78.86C132.84 75.81 130.77 71.88 129.97 67.08C131.17 69.58 132.78 71.8 134.88 73.69C139.58 77.93 146.02 80.07 154.03 80.07C159.3 80.07 163.95 79.12 167.86 77.24C171.87 75.32 174.99 72.47 177.14 68.77C177.44 68.26 177.71 67.74 177.96 67.2H177.98ZM175.43 61.11C173.47 64.47 170.67 67.03 167.01 68.78C163.35 70.54 159.03 71.42 154.04 71.42C146.5 71.42 140.56 69.46 136.22 65.55C132.84 62.5 130.77 58.57 129.97 53.77C131.17 56.27 132.78 58.49 134.88 60.38C139.58 64.62 146.02 66.76 154.03 66.76C159.3 66.76 163.95 65.81 167.86 63.93C171.87 62.01 174.99 59.16 177.14 55.46C177.44 54.95 177.71 54.43 177.96 53.89C177.51 56.55 176.66 58.96 175.41 61.11H175.43ZM175.43 81.08C173.47 84.44 170.67 87 167.01 88.75C163.35 90.51 159.03 91.39 154.04 91.39C146.5 91.39 140.56 89.43 136.22 85.52C132.84 82.47 130.77 78.54 129.97 73.74C131.17 76.24 132.78 78.46 134.88 80.35C139.58 84.59 146.02 86.73 154.03 86.73C159.3 86.73 163.95 85.78 167.86 83.9C171.87 81.98 174.99 79.13 177.14 75.43C177.44 74.92 177.71 74.4 177.96 73.86C177.51 76.52 176.66 78.93 175.41 81.08H175.43Z" fill="url(#paint0_linear_2015_957)" />
		<path d="M246.73 0H194.98C193.88 0 192.98 0.9 192.98 2V40.15C192.98 41.25 193.88 42.15 194.98 42.15H211.22V90.53C211.22 91.63 212.12 92.53 213.22 92.53H228.14C229.24 92.53 230.14 91.63 230.14 90.53V42.15H246.72C247.82 42.15 248.72 41.25 248.72 40.15V2C248.72 0.9 247.82 0 246.72 0H246.73ZM246.73 33.49H230.15V28.83H246.73V33.49ZM246.73 19.97V20.18H230.15V15.52H246.73V19.97ZM246.73 22.18V26.63H230.15V22.18H246.73ZM194.98 2H246.73V13.52H228.15V63.9H213.23V13.52H194.99V2H194.98ZM228.15 83.88H213.23V79.22H228.15V83.88ZM228.15 77.22H213.23V72.56H228.15V77.22ZM228.15 70.56H213.23V65.9H228.15V70.56ZM211.23 20.18H194.99V15.52H211.23V20.18ZM211.23 26.63H194.99V22.18H211.23V26.63ZM194.99 28.84H211.23V33.5H194.99V28.84ZM194.99 40.15V35.49H211.23V40.15H194.99ZM228.16 90.53H213.24V85.87H228.16V90.53ZM246.74 40.15H230.16V35.49H246.74V40.15Z" fill="url(#paint1_linear_2015_957)" />
		<path d="M53.72 0H38.89C37.77 0 36.87 0.91 36.87 2.02V24.55H18.95V2.02C18.95 0.9 18.05 0 16.93 0H2.02C0.9 0 0 0.91 0 2.02V90.18C0 91.3 0.9 92.2 2.02 92.2H16.94C18.06 92.2 18.96 91.29 18.96 90.18V66.37H36.88V90.18C36.88 91.3 37.78 92.2 38.9 92.2H53.73C54.85 92.2 55.75 91.29 55.75 90.18V2.02C55.75 0.9 54.85 0 53.73 0H53.72ZM2.02 2.02H16.94V26.58H38.9V2.02H53.73V63.89H38.9V38.06H16.94V63.89H2.02V28.31V26.29V21.74V19.72V15.17V13.15V8.6V6.58V2.02ZM53.72 83.6H38.89V79.05H53.72V83.6ZM36.87 44.62H18.95V40.07H36.87V44.62ZM36.87 46.64V51.19H18.95V46.64H36.87ZM36.87 53.21V57.76H18.95V53.21H36.87ZM53.72 77.02H38.89V72.47H53.72V77.02ZM53.72 70.45H38.89V65.9H53.72V70.45ZM16.93 83.6H2.02V79.05H16.94V83.6H16.93ZM16.93 77.03H2.02V72.48H16.94V77.03H16.93ZM16.93 70.46H2.02V65.91H16.94V70.46H16.93ZM16.93 90.18H2.02V85.63H16.94V90.18H16.93ZM18.95 64.35V59.8H36.87V64.35H18.95ZM53.71 90.18H38.88V85.63H53.71V90.18Z" fill="url(#paint2_linear_2015_957)" />
		<path d="M115.36 2C115.36 0.9 114.46 0 113.36 0H70.6299C69.5299 0 68.6299 0.9 68.6299 2V8.66V90.54C68.6299 91.64 69.5299 92.54 70.6299 92.54H113.28C114.38 92.54 115.28 91.64 115.28 90.54V63.91V52.43C115.28 51.33 114.38 50.43 113.28 50.43H111.03V42.15H113.37C114.47 42.15 115.37 41.25 115.37 40.15V33.79H115.34C115.35 33.69 115.37 33.6 115.37 33.5V13.52V2H115.36ZM109.02 39.89V44.29H87.5499V39.89H109.02ZM111.02 28.84H113.36V33.5H111.02V28.84ZM113.36 26.84H111.02V26.58C111.02 25.48 110.12 24.58 109.02 24.58H87.5499V22.18H113.36V26.84ZM113.36 15.53V19.98H87.5499V15.53H113.36ZM113.28 83.89H70.6299V79.23H113.28V83.89ZM113.28 77.07V77.24H70.6299V72.58H113.28V77.07ZM113.28 70.41V70.58H70.6299V65.92H113.28V70.41ZM113.28 90.55H70.6299V85.89H113.28V90.55ZM113.28 57.1V63.92H70.6299V2H113.36V6.66V13.53H85.5499V15.32V19.98V26.58H109.02V26.84V28.84V31.24V37.64H85.5499V52.44H113.27V57.1H113.28ZM87.5599 50.44V46.56H109.03V50.44H87.5599ZM113.37 40.16H111.03V37.64V35.5H113.37V40.16Z" fill="url(#paint3_linear_2015_957)" />
		<path d="M308.2 2C308.2 0.9 307.3 0 306.2 0H263.47C262.37 0 261.47 0.9 261.47 2V8.66V90.54C261.47 91.64 262.37 92.54 263.47 92.54H306.12C307.22 92.54 308.12 91.64 308.12 90.54V63.91V52.43C308.12 51.33 307.22 50.43 306.12 50.43H303.87V42.15H306.21C307.31 42.15 308.21 41.25 308.21 40.15V33.79H308.18C308.19 33.69 308.21 33.6 308.21 33.5V13.52V2H308.2ZM301.86 39.89V44.29H280.39V39.89H301.86ZM303.86 28.84H306.2V33.5H303.86V28.84ZM306.2 26.84H303.86V26.58C303.86 25.48 302.96 24.58 301.86 24.58H280.39V22.18H306.2V26.84ZM306.2 15.53V19.98H280.39V15.53H306.2ZM306.12 83.89H263.47V79.23H306.12V83.89ZM306.12 77.07V77.24H263.47V72.58H306.12V77.07ZM306.12 70.41V70.58H263.47V65.92H306.12V70.41ZM306.12 90.55H263.47V85.89H306.12V90.55ZM306.12 57.1V63.92H263.47V2H306.2V6.66V13.53H278.39V15.32V19.98V26.58H301.86V26.84V28.84V31.24V37.64H278.39V52.44H306.11V57.1H306.12ZM280.4 50.44V46.56H301.87V50.44H280.4ZM306.21 40.16H303.87V37.64V35.5H306.21V40.16Z" fill="url(#paint4_linear_2015_957)" />
	</g>
	<defs>
		<linearGradient id="paint0_linear_2015_957" x1="127.6" y1="46.69" x2="180.37" y2="46.69" gradientUnits="userSpaceOnUse">
			<stop stop-color="#FF0000">
				<animate attributeName="offset" values="-1.97;.03" dur="3s" repeatCount="indefinite" />
			</stop>
			<stop stop-color="#0505a9">
				<animate attributeName="offset" values="-1.4;.6" dur="3s" repeatCount="indefinite" />
			</stop>
			<stop stop-color="#0538bf">
				<animate attributeName="offset" values="-1.31;.69" dur="3s" repeatCount="indefinite" />
			</stop>
			<stop stop-color="#0585e1">
				<animate attributeName="offset" values="-1.18;.82" dur="3s" repeatCount="indefinite" />
			</stop>
			<stop stop-color="#05b5f6">
				<animate attributeName="offset" values="-1.08;.92" dur="3s" repeatCount="indefinite" />
			</stop>
			<stop stop-color="#05c8ff">
				<animate attributeName="offset" values="-1.03;.97" dur="3s" repeatCount="indefinite" />
			</stop>
			<stop stop-color="#05c8ff">
				<animate attributeName="offset" values="-.97;1.03" dur="3s" repeatCount="indefinite" />
			</stop>
			<stop stop-color="#05b5f6">
				<animate attributeName="offset" values="-.92;1.08" dur="3s" repeatCount="indefinite" />
			</stop>
			<stop stop-color="#0585e1">
				<animate attributeName="offset" values="-.82;1.18" dur="3s" repeatCount="indefinite" />
			</stop>
			<stop stop-color="#0538bf">
				<animate attributeName="offset" values="-.69;0.31" dur="3s" repeatCount="indefinite" />
			</stop>
			<stop stop-color="#0505a9">
				<animate attributeName="offset" values="-.6;1.4" dur="3s" repeatCount="indefinite" />
			</stop>
			<stop stop-color="#FF0000">
				<animate attributeName="offset" values="-.03;1.97" dur="3s" repeatCount="indefinite" />
			</stop>
			<stop stop-color="#FF0000">
				<animate attributeName="offset" values=".03;2.03" dur="3s" repeatCount="indefinite" />
			</stop>
			<stop stop-color="#0505a9">
				<animate attributeName="offset" values=".6;2.6" dur="3s" repeatCount="indefinite" />
			</stop>
			<stop stop-color="#0538bf">
				<animate attributeName="offset" values=".69;2.69" dur="3s" repeatCount="indefinite" />
			</stop>
			<stop stop-color="#0585e1">
				<animate attributeName="offset" values=".82;2.82" dur="3s" repeatCount="indefinite" />
			</stop>
			<stop stop-color="#05b5f6">
				<animate attributeName="offset" values=".92;2.92" dur="3s" repeatCount="indefinite" />
			</stop>
			<stop stop-color="#05c8ff">
				<animate attributeName="offset" values=".97;2.97" dur="3s" repeatCount="indefinite" />
			</stop>
		</linearGradient>
		<linearGradient id="paint1_linear_2015_957" x1="192.98" y1="46.27" x2="248.73" y2="46.27" gradientUnits="userSpaceOnUse">
			<stop stop-color="#FF0000">
				<animate attributeName="offset" values="-1.97;.03" dur="3s" repeatCount="indefinite" />
			</stop>
			<stop stop-color="#0505a9">
				<animate attributeName="offset" values="-1.4;.6" dur="3s" repeatCount="indefinite" />
			</stop>
			<stop stop-color="#0538bf">
				<animate attributeName="offset" values="-1.31;.69" dur="3s" repeatCount="indefinite" />
			</stop>
			<stop stop-color="#0585e1">
				<animate attributeName="offset" values="-1.18;.82" dur="3s" repeatCount="indefinite" />
			</stop>
			<stop stop-color="#05b5f6">
				<animate attributeName="offset" values="-1.08;.92" dur="3s" repeatCount="indefinite" />
			</stop>
			<stop stop-color="#05c8ff">
				<animate attributeName="offset" values="-1.03;.97" dur="3s" repeatCount="indefinite" />
			</stop>
			<stop stop-color="#05c8ff">
				<animate attributeName="offset" values="-.97;1.03" dur="3s" repeatCount="indefinite" />
			</stop>
			<stop stop-color="#05b5f6">
				<animate attributeName="offset" values="-.92;1.08" dur="3s" repeatCount="indefinite" />
			</stop>
			<stop stop-color="#0585e1">
				<animate attributeName="offset" values="-.82;1.18" dur="3s" repeatCount="indefinite" />
			</stop>
			<stop stop-color="#0538bf">
				<animate attributeName="offset" values="-.69;0.31" dur="3s" repeatCount="indefinite" />
			</stop>
			<stop stop-color="#0505a9">
				<animate attributeName="offset" values="-.6;1.4" dur="3s" repeatCount="indefinite" />
			</stop>
			<stop stop-color="#FF0000">
				<animate attributeName="offset" values="-.03;1.97" dur="3s" repeatCount="indefinite" />
			</stop>
			<stop stop-color="#FF0000">
				<animate attributeName="offset" values=".03;2.03" dur="3s" repeatCount="indefinite" />
			</stop>
			<stop stop-color="#0505a9">
				<animate attributeName="offset" values=".6;2.6" dur="3s" repeatCount="indefinite" />
			</stop>
			<stop stop-color="#0538bf">
				<animate attributeName="offset" values=".69;2.69" dur="3s" repeatCount="indefinite" />
			</stop>
			<stop stop-color="#0585e1">
				<animate attributeName="offset" values=".82;2.82" dur="3s" repeatCount="indefinite" />
			</stop>
			<stop stop-color="#05b5f6">
				<animate attributeName="offset" values=".92;2.92" dur="3s" repeatCount="indefinite" />
			</stop>
			<stop stop-color="#05c8ff">
				<animate attributeName="offset" values=".97;2.97" dur="3s" repeatCount="indefinite" />
			</stop>
		</linearGradient>
		<linearGradient id="paint2_linear_2015_957" x1="0" y1="46.1" x2="55.75" y2="46.1" gradientUnits="userSpaceOnUse">
			<stop stop-color="#FF0000">
				<animate attributeName="offset" values="-1.97;.03" dur="3s" repeatCount="indefinite" />
			</stop>
			<stop stop-color="#0505a9">
				<animate attributeName="offset" values="-1.4;.6" dur="3s" repeatCount="indefinite" />
			</stop>
			<stop stop-color="#0538bf">
				<animate attributeName="offset" values="-1.31;.69" dur="3s" repeatCount="indefinite" />
			</stop>
			<stop stop-color="#0585e1">
				<animate attributeName="offset" values="-1.18;.82" dur="3s" repeatCount="indefinite" />
			</stop>
			<stop stop-color="#05b5f6">
				<animate attributeName="offset" values="-1.08;.92" dur="3s" repeatCount="indefinite" />
			</stop>
			<stop stop-color="#05c8ff">
				<animate attributeName="offset" values="-1.03;.97" dur="3s" repeatCount="indefinite" />
			</stop>
			<stop stop-color="#05c8ff">
				<animate attributeName="offset" values="-.97;1.03" dur="3s" repeatCount="indefinite" />
			</stop>
			<stop stop-color="#05b5f6">
				<animate attributeName="offset" values="-.92;1.08" dur="3s" repeatCount="indefinite" />
			</stop>
			<stop stop-color="#0585e1">
				<animate attributeName="offset" values="-.82;1.18" dur="3s" repeatCount="indefinite" />
			</stop>
			<stop stop-color="#0538bf">
				<animate attributeName="offset" values="-.69;0.31" dur="3s" repeatCount="indefinite" />
			</stop>
			<stop stop-color="#0505a9">
				<animate attributeName="offset" values="-.6;1.4" dur="3s" repeatCount="indefinite" />
			</stop>
			<stop stop-color="#FF0000">
				<animate attributeName="offset" values="-.03;1.97" dur="3s" repeatCount="indefinite" />
			</stop>
			<stop stop-color="#FF0000">
				<animate attributeName="offset" values=".03;2.03" dur="3s" repeatCount="indefinite" />
			</stop>
			<stop stop-color="#0505a9">
				<animate attributeName="offset" values=".6;2.6" dur="3s" repeatCount="indefinite" />
			</stop>
			<stop stop-color="#0538bf">
				<animate attributeName="offset" values=".69;2.69" dur="3s" repeatCount="indefinite" />
			</stop>
			<stop stop-color="#0585e1">
				<animate attributeName="offset" values=".82;2.82" dur="3s" repeatCount="indefinite" />
			</stop>
			<stop stop-color="#05b5f6">
				<animate attributeName="offset" values=".92;2.92" dur="3s" repeatCount="indefinite" />
			</stop>
			<stop stop-color="#05c8ff">
				<animate attributeName="offset" values=".97;2.97" dur="3s" repeatCount="indefinite" />
			</stop>
		</linearGradient>
		<linearGradient id="paint3_linear_2015_957" x1="68.6299" y1="46.27" x2="115.36" y2="46.27" gradientUnits="userSpaceOnUse">
			<stop stop-color="#FF0000">
				<animate attributeName="offset" values="-1.97;.03" dur="3s" repeatCount="indefinite" />
			</stop>
			<stop stop-color="#0505a9">
				<animate attributeName="offset" values="-1.4;.6" dur="3s" repeatCount="indefinite" />
			</stop>
			<stop stop-color="#0538bf">
				<animate attributeName="offset" values="-1.31;.69" dur="3s" repeatCount="indefinite" />
			</stop>
			<stop stop-color="#0585e1">
				<animate attributeName="offset" values="-1.18;.82" dur="3s" repeatCount="indefinite" />
			</stop>
			<stop stop-color="#05b5f6">
				<animate attributeName="offset" values="-1.08;.92" dur="3s" repeatCount="indefinite" />
			</stop>
			<stop stop-color="#05c8ff">
				<animate attributeName="offset" values="-1.03;.97" dur="3s" repeatCount="indefinite" />
			</stop>
			<stop stop-color="#05c8ff">
				<animate attributeName="offset" values="-.97;1.03" dur="3s" repeatCount="indefinite" />
			</stop>
			<stop stop-color="#05b5f6">
				<animate attributeName="offset" values="-.92;1.08" dur="3s" repeatCount="indefinite" />
			</stop>
			<stop stop-color="#0585e1">
				<animate attributeName="offset" values="-.82;1.18" dur="3s" repeatCount="indefinite" />
			</stop>
			<stop stop-color="#0538bf">
				<animate attributeName="offset" values="-.69;0.31" dur="3s" repeatCount="indefinite" />
			</stop>
			<stop stop-color="#0505a9">
				<animate attributeName="offset" values="-.6;1.4" dur="3s" repeatCount="indefinite" />
			</stop>
			<stop stop-color="#FF0000">
				<animate attributeName="offset" values="-.03;1.97" dur="3s" repeatCount="indefinite" />
			</stop>
			<stop stop-color="#FF0000">
				<animate attributeName="offset" values=".03;2.03" dur="3s" repeatCount="indefinite" />
			</stop>
			<stop stop-color="#0505a9">
				<animate attributeName="offset" values=".6;2.6" dur="3s" repeatCount="indefinite" />
			</stop>
			<stop stop-color="#0538bf">
				<animate attributeName="offset" values=".69;2.69" dur="3s" repeatCount="indefinite" />
			</stop>
			<stop stop-color="#0585e1">
				<animate attributeName="offset" values=".82;2.82" dur="3s" repeatCount="indefinite" />
			</stop>
			<stop stop-color="#05b5f6">
				<animate attributeName="offset" values=".92;2.92" dur="3s" repeatCount="indefinite" />
			</stop>
			<stop stop-color="#05c8ff">
				<animate attributeName="offset" values=".97;2.97" dur="3s" repeatCount="indefinite" />
			</stop>
		</linearGradient>
		<linearGradient id="paint4_linear_2015_957" x1="261.47" y1="46.27" x2="308.2" y2="46.27" gradientUnits="userSpaceOnUse">
			<stop stop-color="#FF0000">
				<animate attributeName="offset" values="-1.97;.03" dur="3s" repeatCount="indefinite" />
			</stop>
			<stop stop-color="#0505a9">
				<animate attributeName="offset" values="-1.4;.6" dur="3s" repeatCount="indefinite" />
			</stop>
			<stop stop-color="#0538bf">
				<animate attributeName="offset" values="-1.31;.69" dur="3s" repeatCount="indefinite" />
			</stop>
			<stop stop-color="#0585e1">
				<animate attributeName="offset" values="-1.18;.82" dur="3s" repeatCount="indefinite" />
			</stop>
			<stop stop-color="#05b5f6">
				<animate attributeName="offset" values="-1.08;.92" dur="3s" repeatCount="indefinite" />
			</stop>
			<stop stop-color="#05c8ff">
				<animate attributeName="offset" values="-1.03;.97" dur="3s" repeatCount="indefinite" />
			</stop>
			<stop stop-color="#05c8ff">
				<animate attributeName="offset" values="-.97;1.03" dur="3s" repeatCount="indefinite" />
			</stop>
			<stop stop-color="#05b5f6">
				<animate attributeName="offset" values="-.92;1.08" dur="3s" repeatCount="indefinite" />
			</stop>
			<stop stop-color="#0585e1">
				<animate attributeName="offset" values="-.82;1.18" dur="3s" repeatCount="indefinite" />
			</stop>
			<stop stop-color="#0538bf">
				<animate attributeName="offset" values="-.69;0.31" dur="3s" repeatCount="indefinite" />
			</stop>
			<stop stop-color="#0505a9">
				<animate attributeName="offset" values="-.6;1.4" dur="3s" repeatCount="indefinite" />
			</stop>
			<stop stop-color="#FF0000">
				<animate attributeName="offset" values="-.03;1.97" dur="3s" repeatCount="indefinite" />
			</stop>
			<stop stop-color="#FF0000">
				<animate attributeName="offset" values=".03;2.03" dur="3s" repeatCount="indefinite" />
			</stop>
			<stop stop-color="#0505a9">
				<animate attributeName="offset" values=".6;2.6" dur="3s" repeatCount="indefinite" />
			</stop>
			<stop stop-color="#0538bf">
				<animate attributeName="offset" values=".69;2.69" dur="3s" repeatCount="indefinite" />
			</stop>
			<stop stop-color="#0585e1">
				<animate attributeName="offset" values=".82;2.82" dur="3s" repeatCount="indefinite" />
			</stop>
			<stop stop-color="#05b5f6">
				<animate attributeName="offset" values=".92;2.92" dur="3s" repeatCount="indefinite" />
			</stop>
			<stop stop-color="#05c8ff">
				<animate attributeName="offset" values=".97;2.97" dur="3s" repeatCount="indefinite" />
			</stop>
		</linearGradient>
		<clipPath id="clip0_2015_957">
			<rect width="308.2" height="93.39" fill="white" />
		</clipPath>
	</defs>
</svg>