<svg width="56" height="56" viewBox="0 0 56 56" fill="none" xmlns="http://www.w3.org/2000/svg">
<mask id="mask0_1873_252" style="mask-type:alpha" maskUnits="userSpaceOnUse" x="0" y="0" width="56" height="56">
<rect width="56" height="56" fill="#001464"/>
</mask>
<g mask="url(#mask0_1873_252)">
<path d="M28.0023 51.3337C24.7745 51.3337 21.7412 50.7208 18.9023 49.495C16.0634 48.2708 13.5939 46.6087 11.4939 44.5087C9.39395 42.4087 7.73183 39.9392 6.50761 37.1003C5.28183 34.2614 4.66895 31.2281 4.66895 28.0003C4.66895 24.7725 5.28183 21.7392 6.50761 18.9003C7.73183 16.0614 9.39395 13.592 11.4939 11.492C13.5939 9.39199 16.0634 7.7291 18.9023 6.50333C21.7412 5.2791 24.7745 4.66699 28.0023 4.66699C31.2301 4.66699 34.2634 5.2791 37.1023 6.50333C39.9412 7.7291 42.4106 9.39199 44.5106 11.492C46.6106 13.592 48.2727 16.0614 49.4969 18.9003C50.7227 21.7392 51.3356 24.7725 51.3356 28.0003C51.3356 31.2281 50.7227 34.2614 49.4969 37.1003C48.2727 39.9392 46.6106 42.4087 44.5106 44.5087C42.4106 46.6087 39.9412 48.2708 37.1023 49.495C34.2634 50.7208 31.2301 51.3337 28.0023 51.3337ZM25.6689 46.5503V42.0003C24.3856 42.0003 23.2874 41.5438 22.3743 40.6307C21.4596 39.716 21.0023 38.617 21.0023 37.3337V35.0003L9.80228 23.8003C9.68561 24.5003 9.57828 25.2003 9.48028 25.9003C9.38383 26.6003 9.33561 27.3003 9.33561 28.0003C9.33561 32.7059 10.8818 36.8281 13.9743 40.367C17.0652 43.9059 20.9634 45.967 25.6689 46.5503ZM41.7689 40.6003C42.5467 39.7448 43.2467 38.8208 43.8689 37.8283C44.4912 36.8374 45.0068 35.8069 45.4159 34.7367C45.8235 33.668 46.1346 32.5698 46.3493 31.442C46.5624 30.3142 46.6689 29.167 46.6689 28.0003C46.6689 24.1892 45.6096 20.7087 43.4909 17.5587C41.3707 14.4087 38.5412 12.1337 35.0023 10.7337V11.667C35.0023 12.9503 34.5457 14.0485 33.6326 14.9617C32.7179 15.8763 31.6189 16.3337 30.3356 16.3337H25.6689V21.0003C25.6689 21.6614 25.4457 22.2152 24.9993 22.6617C24.5513 23.1097 23.9967 23.3337 23.3356 23.3337H18.6689V28.0003H32.6689C33.3301 28.0003 33.8846 28.2235 34.3326 28.67C34.7791 29.118 35.0023 29.6726 35.0023 30.3337V37.3337H37.3356C38.3467 37.3337 39.2606 37.6347 40.0773 38.2367C40.8939 38.8402 41.4578 39.6281 41.7689 40.6003Z" fill="url(#paint0_linear_1873_252)"/>
</g>
<defs>
<linearGradient id="paint0_linear_1873_252" x1="-15.5722" y1="27.9626" x2="62.0016" y2="27.7835" gradientUnits="userSpaceOnUse">
<stop offset="0.317708" stop-color="#E43425"/>
<stop offset="0.71875" stop-color="#441FD8"/>
<stop offset="1" stop-color="#0A26B8"/>
</linearGradient>
</defs>
</svg>
