<svg width="56" height="56" viewBox="0 0 56 56" fill="none" xmlns="http://www.w3.org/2000/svg">
<mask id="mask0_1873_229" style="mask-type:alpha" maskUnits="userSpaceOnUse" x="0" y="0" width="56" height="56">
<rect width="56" height="56" fill="#D9D9D9"/>
</mask>
<g mask="url(#mask0_1873_229)">
<path d="M2.33301 46.6668V37.3335C2.33301 36.0113 2.78995 34.9029 3.70384 34.0085C4.61773 33.114 5.71634 32.6668 6.99967 32.6668H14.6413C15.4191 32.6668 16.158 32.8613 16.858 33.2502C17.558 33.6391 18.1219 34.1641 18.5497 34.8252C19.6775 36.3418 21.0677 37.5279 22.7205 38.3835C24.3733 39.239 26.133 39.6668 27.9997 39.6668C29.9052 39.6668 31.6844 39.239 33.3372 38.3835C34.99 37.5279 36.3608 36.3418 37.4497 34.8252C37.9552 34.1641 38.5483 33.6391 39.2288 33.2502C39.9094 32.8613 40.6191 32.6668 41.358 32.6668H48.9997C50.3219 32.6668 51.4302 33.114 52.3247 34.0085C53.2191 34.9029 53.6663 36.0113 53.6663 37.3335V46.6668H37.333V41.3585C35.9719 42.3307 34.5038 43.0696 32.9288 43.5752C31.3538 44.0807 29.7108 44.3335 27.9997 44.3335C26.3275 44.3335 24.6941 44.071 23.0997 43.546C21.5052 43.021 20.0275 42.2724 18.6663 41.3002V46.6668H2.33301ZM27.9997 37.3335C26.5219 37.3335 25.1219 36.9932 23.7997 36.3127C22.4775 35.6321 21.3691 34.6891 20.4747 33.4835C19.8136 32.5113 18.9872 31.7432 17.9955 31.1793C17.0038 30.6154 15.9247 30.3335 14.758 30.3335C15.6136 28.8946 17.4219 27.7571 20.183 26.921C22.9441 26.0849 25.5497 25.6668 27.9997 25.6668C30.4497 25.6668 33.0552 26.0849 35.8163 26.921C38.5775 27.7571 40.3858 28.8946 41.2413 30.3335C40.1136 30.3335 39.0441 30.6154 38.033 31.1793C37.0219 31.7432 36.1858 32.5113 35.5247 33.4835C34.6691 34.7279 33.5802 35.6807 32.258 36.3418C30.9358 37.0029 29.5163 37.3335 27.9997 37.3335ZM9.33301 30.3335C7.38856 30.3335 5.73579 29.6529 4.37467 28.2918C3.01356 26.9307 2.33301 25.2779 2.33301 23.3335C2.33301 21.3502 3.01356 19.6877 4.37467 18.346C5.73579 17.0043 7.38856 16.3335 9.33301 16.3335C11.3163 16.3335 12.9788 17.0043 14.3205 18.346C15.6622 19.6877 16.333 21.3502 16.333 23.3335C16.333 25.2779 15.6622 26.9307 14.3205 28.2918C12.9788 29.6529 11.3163 30.3335 9.33301 30.3335ZM46.6663 30.3335C44.7219 30.3335 43.0691 29.6529 41.708 28.2918C40.3469 26.9307 39.6663 25.2779 39.6663 23.3335C39.6663 21.3502 40.3469 19.6877 41.708 18.346C43.0691 17.0043 44.7219 16.3335 46.6663 16.3335C48.6497 16.3335 50.3122 17.0043 51.6538 18.346C52.9955 19.6877 53.6663 21.3502 53.6663 23.3335C53.6663 25.2779 52.9955 26.9307 51.6538 28.2918C50.3122 29.6529 48.6497 30.3335 46.6663 30.3335ZM27.9997 23.3335C26.0552 23.3335 24.4025 22.6529 23.0413 21.2918C21.6802 19.9307 20.9997 18.2779 20.9997 16.3335C20.9997 14.3502 21.6802 12.6877 23.0413 11.346C24.4025 10.0043 26.0552 9.3335 27.9997 9.3335C29.983 9.3335 31.6455 10.0043 32.9872 11.346C34.3288 12.6877 34.9997 14.3502 34.9997 16.3335C34.9997 18.2779 34.3288 19.9307 32.9872 21.2918C31.6455 22.6529 29.983 23.3335 27.9997 23.3335Z" fill="url(#paint0_linear_1873_229)"/>
</g>
<defs>
<linearGradient id="paint0_linear_1873_229" x1="-19.9323" y1="27.97" x2="65.3985" y2="27.6991" gradientUnits="userSpaceOnUse">
<stop offset="0.317708" stop-color="#E43425"/>
<stop offset="0.71875" stop-color="#441FD8"/>
<stop offset="1" stop-color="#0A26B8"/>
</linearGradient>
</defs>
</svg>
