<svg width="56" height="145" viewBox="0 0 56 145" fill="none" xmlns="http://www.w3.org/2000/svg">
<path d="M17.1492 83.8917C16.9009 82.7451 16.4254 81.5617 16.0714 80.7639C16.2457 79.1049 17.4398 67.4443 17.0382 63.878C16.605 60.0317 16.5786 59.0754 16.5786 59.0754C16.5786 59.0754 11.7495 58.8006 9.79465 59.9154C9.27688 60.2113 9.21876 63.1489 9.41953 64.9294L12.4998 81.7202C12.3096 82.1745 10.5713 86.3485 10.7827 86.8821C11.0046 87.4474 11.5805 87.4157 11.5805 87.4157C11.5805 87.4157 11.4748 88.1712 11.8552 88.3773C12.2356 88.5833 12.8696 88.3826 12.8696 88.3826C12.8696 88.3826 12.8643 89.286 13.4719 89.3759C14.0795 89.471 14.5339 89.1328 14.5339 89.1328C14.5339 89.1328 14.7188 89.7985 15.2947 89.8831C15.8706 89.9676 16.2986 89.3389 16.2986 89.3389C16.2986 89.3389 16.7001 89.9253 17.2443 89.8884C17.7832 89.8461 17.7832 89.0536 17.7832 89.0536C17.7832 89.0536 17.5772 85.8412 17.1492 83.8864V83.8917Z" fill="url(#paint0_linear_129_306)"/>
<path d="M20.2802 27.4541C18.1456 28.1832 16.3281 29.8845 15.282 31.8816C14.8541 32.7006 14.5106 33.678 14.3099 34.8139L9.037 57.5168C9.0053 57.6384 8.95246 57.744 8.93133 57.8814C7.51008 65.8752 11.3564 79.2265 11.3564 79.2265L16.9463 78.8514L17.9185 57.4376L18.7427 54.146L21.0926 46.57L22.6313 42.3428L27.5607 33.9474L27.5713 25.2615L20.2854 27.4541H20.2802Z" fill="url(#paint1_linear_129_306)"/>
<path d="M43.5426 136.251H39.5589L38.7611 141.191L38.4441 144.536H47.8486C47.8486 144.536 47.0508 141.191 45.4605 140.071C43.8649 138.956 43.5479 136.246 43.5479 136.246L43.5426 136.251Z" fill="url(#paint2_linear_129_306)"/>
<path d="M16.6671 139.57C16.6671 139.57 16.4558 137.478 17.4385 135.518C18.4159 133.563 11.0085 133.838 11.0085 133.838C11.0085 133.838 10.4485 138.519 7.86488 140.057C5.27599 141.594 14.7809 143.755 16.6724 139.565L16.6671 139.57Z" fill="url(#paint3_linear_129_306)"/>
<path d="M44.8499 64.0682C44.8235 63.4923 44.8235 62.9059 44.9503 62.7791H33.7865V62.6628L32.7139 62.7791H20.3824V65.3204H20.4458L19.7008 69.8377L13.5879 100.033L9.67285 138.248L17.1542 139.225C17.1542 139.225 26.3368 114.293 26.1043 104.28L31.9584 83.115C32.6928 93.9091 34.8378 121.156 38.6842 137.45L44.8341 136.974C44.8341 136.974 49.5575 83.3686 44.8447 64.0629L44.8499 64.0682Z" fill="white"/>
<path d="M0.188856 144.79H17.4868C17.4868 144.79 17.5767 142.592 16.6626 139.575C16.6626 139.575 13.3657 140.489 11.4479 139.39L9.70962 137.377L5.13416 140.949L0.738337 142.138C0.738337 142.138 -0.450439 143.237 0.188856 144.79Z" fill="url(#paint4_linear_129_306)"/>
<path d="M38.9909 139.753C38.9909 139.753 37.855 142.997 38.0029 144.788H48.2951C48.2951 144.788 48.6491 143.193 46.9689 141.639L45.5265 139.542C45.5265 139.542 45.1197 137.761 43.5347 138.073C40.3911 138.696 41.3738 139.478 38.9909 139.753Z" fill="url(#paint5_linear_129_306)"/>
<path opacity="0.85" d="M44.8499 64.0682C44.8235 63.4923 44.8235 62.9059 44.9503 62.7791H33.7865V62.6628L32.7139 62.7791H20.3824V65.3204H20.4458L19.7008 69.8377L13.5879 100.033L9.67285 138.248L17.1542 139.225C17.1542 139.225 26.3368 114.293 26.1043 104.28L31.9584 83.115C32.6928 93.9091 34.8378 121.156 38.6842 137.45L44.8341 136.974C44.8341 136.974 49.5575 83.3686 44.8447 64.0629L44.8499 64.0682Z" fill="white"/>
<path opacity="0.8" d="M44.8499 64.0682C44.8235 63.4923 44.8235 62.9059 44.9503 62.7791H33.7865V62.6628L32.7139 62.7791H20.3824V65.3204H20.4458L19.7008 69.8377L13.5879 100.033L9.67285 138.248L17.1542 139.225C17.1542 139.225 26.3368 114.293 26.1043 104.28L31.9584 83.115C32.6928 93.9091 34.8378 121.156 38.6842 137.45L44.8341 136.974C44.8341 136.974 49.5575 83.3686 44.8447 64.0629L44.8499 64.0682Z" fill="url(#paint6_linear_129_306)"/>
<path d="M38.678 25.3889L34.6942 24.1685H31.0592L26.2143 25.7535L33.7644 31.3434C33.7644 31.3434 41.1717 30.4293 38.6832 25.3889H38.678Z" fill="url(#paint7_linear_129_306)"/>
<path d="M45.5808 27.4541L38.6912 25.3883C38.6912 25.3883 36.7099 27.8504 33.2175 27.8504C29.4874 27.8504 27.5325 25.2615 27.5325 25.2615L23.1473 26.5718C22.3759 26.8042 21.8317 27.4858 21.7736 28.2836L21.2928 35.0041L18.9311 71.0636H46.3574L45.586 27.4488L45.5808 27.4541Z" fill="url(#paint8_linear_129_306)"/>
<path d="M28.0633 18.8482L29.9971 26.9054L37.5312 25.5264L34.134 15.4351L28.0633 18.8482Z" fill="url(#paint9_linear_129_306)"/>
<path d="M34.6178 19.6725C35.0435 20.2271 35.4424 20.1501 35.6008 19.4696C35.7337 18.8759 36.3015 17.52 37.365 15.991C38.7773 13.9531 38.9675 11.0648 35.8218 8.34963C32.8814 5.81405 29.9572 12.0861 29.9572 12.0861L29.7255 17.4915L32.1779 17.0932C33.6969 18.2782 34.2267 19.1667 34.6117 19.6768L34.6178 19.6725Z" fill="url(#paint10_linear_129_306)"/>
<path d="M25.202 10.2103C25.202 10.2103 24.1772 9.01817 24.2116 7.11083C24.2287 6.06336 24.6923 7.5622 28.7865 6.5209C28.7865 6.5209 32.4113 5.62499 34.3342 6.8303C37.3426 8.7129 37.5584 14.071 36.6377 15.2009C35.7162 16.336 33.5915 17.2347 33.5915 17.2347C33.5915 17.2347 31.3449 13.043 25.202 10.2103Z" fill="url(#paint11_linear_129_306)"/>
<path d="M25.2113 10.1639C25.2113 10.1639 23.5066 12.3772 24.088 14.0032C24.2439 14.4423 22.7245 16.8264 22.7245 16.8264C22.7245 16.8264 22.7588 17.5396 23.5368 17.6288C24.3148 17.718 23.8087 18.7735 23.8087 18.7735C23.8087 18.7735 23.8441 19.1654 25.4457 19.1693C25.6835 19.2526 24.1666 19.3488 23.9752 19.4663C23.9752 19.4663 23.8426 19.9315 24.1752 20.2452C24.5078 20.5589 24.2784 21.7525 24.5169 22.1467C24.963 22.8655 27.8617 22.4894 28.9793 22.3147C30.0968 22.14 31.5755 21.1638 31.5755 21.1638C31.5755 21.1638 32.5057 20.0409 32.3818 19.35C32.3818 19.35 33.5378 18.5066 33.9202 16.9799C34.7696 13.555 31.6856 12.8439 30.8461 15.8953C30.5773 16.8786 30.2264 16.2939 30.2264 16.2939C30.2264 16.2939 29.9964 15.944 30.1458 14.4957C30.1851 14.1379 31.1853 11.4031 27.9308 11.065C26.393 10.9058 25.2087 10.1795 25.2087 10.1795L25.2113 10.1639Z" fill="url(#paint12_linear_129_306)"/>
<path d="M48.0793 62.2195L30.9134 62.6739L31.0191 59.0441C31.0191 59.0441 43.6835 54.9231 47.5351 54.5532C51.3867 54.1834 52.3272 54.009 52.3272 54.009C52.3272 54.009 53.5952 58.6796 52.9083 60.8194C52.7287 61.3847 49.8598 62.0504 48.0793 62.2195Z" fill="url(#paint13_linear_129_306)"/>
<path d="M55.3323 53.5337H55.3587C55.3587 53.5337 53.0287 40.5735 51.6233 35.2319C51.2851 33.9427 51.0527 32.8015 50.5719 31.8875C49.5258 29.8904 47.7083 28.1891 45.5738 27.46L44.0521 27.0003C41.3259 26.1814 38.5626 28.1415 38.4306 30.984C38.3407 32.923 38.8215 34.8409 39.799 36.5158L43.2226 42.3487L45.4047 52.3872L41.7327 53.4386L45.2726 62.5737C45.2726 62.5737 52.1305 62.9911 54.3284 59.7312C55.6704 57.7393 55.4168 54.3685 55.327 53.539L55.3323 53.5337Z" fill="url(#paint14_linear_129_306)"/>
<path d="M32.5544 60.0734C32.5544 60.0734 33.3224 61.3799 33.1979 61.6972C33.0052 62.1923 32.5141 63.2661 31.3801 63.848C29.4326 64.8473 27.3974 66.0635 27.3974 66.0635C27.3974 66.0635 23.3973 68.0144 22.7448 67.5419C22.0848 67.0701 23.0048 66.764 23.0048 66.764C23.0048 66.764 25.8167 65.6542 26.2032 65.1922C25.9377 65.2922 22.5136 66.5747 21.0662 66.0985C21.0662 66.0985 20.2196 65.4955 21.5529 65.25C22.8863 65.0045 25.7278 63.9823 25.7278 63.9823L25.6407 63.8318C25.6407 63.8318 20.6407 65.4655 19.8735 64.7774C19.1103 64.0927 20.9192 63.6554 20.9192 63.6554C20.9192 63.6554 23.8762 63.2798 25.1449 62.6947L25.215 62.5879C25.215 62.5879 21.1712 63.4328 20.393 63.0754C19.6148 62.718 19.7068 62.4633 20.216 62.3625C20.7251 62.2617 24.5964 61.4156 25.1281 61.0357C25.3122 60.901 25.9506 60.3552 26.4715 59.9799C26.0086 59.8633 24.5118 59.5185 23.7547 59.6578C21.9929 59.9826 21.8165 58.5763 21.8165 58.5763C22.7875 58.8133 23.9054 58.4052 25.0041 58.0848C25.0041 58.0848 25.8718 57.9216 26.5913 58.0138C27.3148 58.1095 31.3747 58.7287 31.3747 58.7287C31.3747 58.7287 31.4715 58.721 31.7251 58.9855C31.7372 58.9958 31.9843 59.2271 31.9964 59.2373C32.0873 59.3425 32.2628 59.5683 32.314 59.6467C32.477 59.9035 32.4182 59.777 32.5733 60.0756L32.5544 60.0734ZM26.2277 65.1228C26.2277 65.1228 26.2379 65.1107 26.2414 65.1067C26.2491 65.0161 26.2424 65.0729 26.2277 65.1228Z" fill="url(#paint15_linear_129_306)"/>
<defs>
<linearGradient id="paint0_linear_129_306" x1="9.31386" y1="74.4766" x2="17.7779" y2="74.4766" gradientUnits="userSpaceOnUse">
<stop stop-color="#F6C7C4"/>
<stop offset="1" stop-color="#F06F56"/>
</linearGradient>
<linearGradient id="paint1_linear_129_306" x1="8.31573" y1="50.4483" x2="30.068" y2="49.7953" gradientUnits="userSpaceOnUse">
<stop stop-color="#CEDDFE"/>
<stop offset="1" stop-color="#7399EF"/>
</linearGradient>
<linearGradient id="paint2_linear_129_306" x1="38.4441" y1="140.393" x2="47.8486" y2="140.393" gradientUnits="userSpaceOnUse">
<stop stop-color="#F6C7C4"/>
<stop offset="1" stop-color="#F06F56"/>
</linearGradient>
<linearGradient id="paint3_linear_129_306" x1="7.41578" y1="137.917" x2="17.523" y2="137.917" gradientUnits="userSpaceOnUse">
<stop stop-color="#F6C7C4"/>
<stop offset="1" stop-color="#F06F56"/>
</linearGradient>
<linearGradient id="paint4_linear_129_306" x1="0.00393393" y1="141.081" x2="17.4921" y2="141.081" gradientUnits="userSpaceOnUse">
<stop stop-color="#26264F"/>
<stop offset="0.25" stop-color="#2A2B57"/>
<stop offset="0.65" stop-color="#363A6E"/>
<stop offset="1" stop-color="#444B89"/>
</linearGradient>
<linearGradient id="paint5_linear_129_306" x1="37.9924" y1="141.407" x2="48.3268" y2="141.407" gradientUnits="userSpaceOnUse">
<stop stop-color="#26264F"/>
<stop offset="0.25" stop-color="#2A2B57"/>
<stop offset="0.65" stop-color="#363A6E"/>
<stop offset="1" stop-color="#444B89"/>
</linearGradient>
<linearGradient id="paint6_linear_129_306" x1="9.6655" y1="100.957" x2="46.9326" y2="100.957" gradientUnits="userSpaceOnUse">
<stop stop-color="#530085"/>
<stop offset="0.1" stop-color="#530085"/>
<stop offset="0.9" stop-color="#0052F2"/>
<stop offset="1" stop-color="#0052F2"/>
</linearGradient>
<linearGradient id="paint7_linear_129_306" x1="26.2143" y1="27.7612" x2="39.1904" y2="27.7612" gradientUnits="userSpaceOnUse">
<stop stop-color="#F6C7C4"/>
<stop offset="1" stop-color="#F06F56"/>
</linearGradient>
<linearGradient id="paint8_linear_129_306" x1="18.4964" y1="46.6384" x2="49.916" y2="45.0306" gradientUnits="userSpaceOnUse">
<stop stop-color="#CEDDFE"/>
<stop offset="1" stop-color="#7399EF"/>
</linearGradient>
<linearGradient id="paint9_linear_129_306" x1="28.0633" y1="21.1676" x2="37.5312" y2="21.1676" gradientUnits="userSpaceOnUse">
<stop stop-color="#F6C7C4"/>
<stop offset="1" stop-color="#F06F56"/>
</linearGradient>
<linearGradient id="paint10_linear_129_306" x1="29.8005" y1="13.0402" x2="38.1713" y2="14.4612" gradientUnits="userSpaceOnUse">
<stop stop-color="#A8316D"/>
<stop offset="1" stop-color="#792D3D"/>
</linearGradient>
<linearGradient id="paint11_linear_129_306" x1="23.6744" y1="10.1493" x2="37.3165" y2="12.4652" gradientUnits="userSpaceOnUse">
<stop stop-color="#A8316D"/>
<stop offset="1" stop-color="#792D3D"/>
</linearGradient>
<linearGradient id="paint12_linear_129_306" x1="22.8714" y1="15.9296" x2="33.7945" y2="17.7838" gradientUnits="userSpaceOnUse">
<stop stop-color="#F6C7C4"/>
<stop offset="1" stop-color="#F06F56"/>
</linearGradient>
<linearGradient id="paint13_linear_129_306" x1="30.9134" y1="58.3467" x2="53.1144" y2="58.3467" gradientUnits="userSpaceOnUse">
<stop stop-color="#F6C7C4"/>
<stop offset="1" stop-color="#F06F56"/>
</linearGradient>
<linearGradient id="paint14_linear_129_306" x1="38.1507" y1="43.5113" x2="57.6292" y2="42.721" gradientUnits="userSpaceOnUse">
<stop stop-color="#CEDDFE"/>
<stop offset="1" stop-color="#7399EF"/>
</linearGradient>
<linearGradient id="paint15_linear_129_306" x1="21.9409" y1="66.8642" x2="29.9466" y2="57.4639" gradientUnits="userSpaceOnUse">
<stop stop-color="#F6C7C4"/>
<stop offset="1" stop-color="#F06F56"/>
</linearGradient>
</defs>
</svg>
