<svg width="45" height="132" viewBox="0 0 45 132" fill="none" xmlns="http://www.w3.org/2000/svg">
<path d="M39.6943 31.0024L44.8661 46.4798C45.1911 48.5335 44.4373 50.6149 42.8677 51.984L35.9322 58.0691L37.4949 39.9107L35.9322 32.6166L39.6943 31.0024Z" fill="#7399EF"/>
<path d="M1.7776 124.733C1.23824 124.768 0.650466 124.837 0.290895 125.231C-0.0410166 125.605 -0.0755901 126.179 0.118025 126.649C0.304725 127.112 0.678136 127.479 1.0792 127.783C2.53131 128.889 4.37755 129.311 6.16158 129.705C8.20145 130.155 10.2413 130.604 12.2812 131.054C13.028 131.22 13.8924 131.358 14.494 130.888C15.061 130.445 15.1647 129.588 14.9019 128.924C14.6392 128.253 14.0929 127.741 13.5259 127.299C10.0546 124.609 5.9749 124.478 1.7776 124.733Z" fill="url(#paint0_linear_124_3762)"/>
<path d="M26.2117 124.243C25.776 124.354 25.3542 124.541 25.1537 124.928C24.9808 125.253 25.0085 125.661 25.1537 126C25.292 126.339 25.541 126.629 25.7968 126.892C26.9308 128.067 28.2516 128.786 29.7728 129.291C31.6882 129.934 33.5621 130.75 35.443 131.476C36.1552 131.753 36.9919 132.023 37.6558 131.649C38.2781 131.297 38.5132 130.467 38.3542 129.768C38.1951 129.07 37.7317 128.482 37.2408 127.957C34.627 125.211 30.2914 123.49 26.5436 124.174C26.4329 124.195 26.3292 124.216 26.2186 124.243H26.2117Z" fill="url(#paint1_linear_124_3762)"/>
<path d="M12.2178 64.517L5.53117 126.889C6.00138 128.306 7.25296 129.323 8.73274 129.482L13.5317 130.367C14.7418 130.498 15.2051 129.855 15.5093 128.23L26.0061 78.9207C26.0061 78.9207 27.4097 77.2956 27.4996 79.1557C27.6655 82.7791 29.0209 118.695 29.4496 127.463C29.5119 128.687 30.4937 129.254 31.7384 129.627C31.7384 129.627 35.3341 130.996 36.5926 131.197C37.8096 131.39 38.8331 130.229 38.8884 128.998L40.375 65.5681L12.2248 64.5032L12.2178 64.517Z" fill="white"/>
<path opacity="0.8" d="M12.2178 64.516L5.53117 126.888C6.00138 128.305 7.25296 129.322 8.73274 129.481L13.5317 130.366C14.7418 130.497 15.2051 129.854 15.5093 128.229L26.0061 78.9197C26.0061 78.9197 27.4097 77.2947 27.4996 79.1548C27.6655 82.7781 29.0209 118.694 29.4496 127.462C29.5119 128.686 30.4937 129.253 31.7384 129.626C31.7384 129.626 35.3341 130.995 36.5926 131.196C37.8096 131.389 38.8331 130.228 38.8884 128.997L40.375 65.5671L12.2248 64.5022L12.2178 64.516Z" fill="url(#paint2_linear_124_3762)"/>
<path d="M30.0498 24.335C27.92 25.3169 26.5924 25.3239 24.4419 24.3766C24.4281 22.7585 24.428 21.9426 24.4142 20.3245C26.6546 20.3107 27.7748 20.3037 30.0221 20.283C30.0359 21.901 30.0429 22.717 30.0498 24.335Z" fill="url(#paint3_linear_124_3762)"/>
<path d="M34.207 5.14919C32.2492 3.8536 29.5173 2.70137 27.1855 3.72215C24.7223 4.79823 22.5018 8.3865 20.9174 10.5037C20.648 10.8616 20.0431 11.393 20.0185 11.8502C20.0087 12.1036 20.1104 12.3538 20.3039 12.5198C20.452 12.6537 20.6419 12.7237 20.7773 12.8665C21.1144 13.2188 20.9662 13.6727 20.8718 14.0847C20.682 14.9397 20.6647 15.9415 20.8927 16.792C21.2612 18.1723 22.1216 19.4387 23.2876 20.2647C25.4373 21.7882 28.4041 21.8979 30.8437 20.8954C33.2832 19.893 35.2174 17.8841 36.5249 15.5956C37.362 14.1299 37.9721 12.4725 37.8591 10.7897C37.6978 8.47769 36.1404 6.43176 34.2131 5.15245L34.207 5.14919Z" fill="url(#paint4_linear_124_3762)"/>
<path d="M26.5685 3.57294C25.6391 3.74314 24.6936 4.04594 23.9719 4.66402C23.2502 5.28211 22.8001 6.27246 23.0199 7.19706C23.2405 8.09076 24.0311 8.72425 24.8217 9.12266C25.5176 9.47833 26.5321 9.36916 26.4655 10.478C26.4202 11.2532 25.7623 11.6781 25.5616 12.3627C25.5169 12.5347 25.542 12.7519 25.6848 12.8516C26.2191 13.2309 27.6139 11.7335 27.6452 13.3491C27.6581 13.9125 27.2203 14.3216 26.9607 14.7787C26.6169 15.379 26.3543 16.0619 26.1972 16.7383C25.998 17.5961 25.9921 18.5178 26.3043 19.3427C26.9201 20.9646 28.5437 21.9173 30.2119 21.5378C32.3499 21.0563 34.0472 19.4618 35.4318 17.7632C36.8677 15.9978 38.1063 13.9704 38.4229 11.7175C38.6931 9.81596 38.1918 7.37731 36.62 6.10744C35.8811 5.50933 34.7992 5.01041 33.9317 4.59449C32.8657 4.0805 31.7306 3.7255 30.56 3.53973C29.2385 3.3283 27.8771 3.33856 26.5592 3.57578L26.5685 3.57294Z" fill="url(#paint5_linear_124_3762)"/>
<path d="M40.4037 35.7074L40.3461 65.5794H11.8487L15.0771 25.7568C15.0771 25.7568 14.1113 23.9867 27.1458 23.5027C29.9739 23.399 30.0798 23.8139 32.4309 24.4362C37.4648 25.7638 40.8001 30.5213 40.406 35.7143L40.4037 35.7074Z" fill="url(#paint6_linear_124_3762)"/>
<defs>
<linearGradient id="paint0_linear_124_3762" x1="15.0382" y1="127.927" x2="2.77842e-05" y2="127.927" gradientUnits="userSpaceOnUse">
<stop stop-color="#444B8B"/>
<stop offset="0.99" stop-color="#26264F"/>
</linearGradient>
<linearGradient id="paint1_linear_124_3762" x1="38.4016" y1="127.928" x2="25.0345" y2="127.928" gradientUnits="userSpaceOnUse">
<stop stop-color="#444B8B"/>
<stop offset="0.99" stop-color="#26264F"/>
</linearGradient>
<linearGradient id="paint2_linear_124_3762" x1="40.3847" y1="97.8687" x2="5.54085" y2="97.8687" gradientUnits="userSpaceOnUse">
<stop stop-color="#0057D2"/>
<stop offset="0.1" stop-color="#0057D2"/>
<stop offset="0.39" stop-color="#0085E4"/>
<stop offset="0.73" stop-color="#00B4F7"/>
<stop offset="0.9" stop-color="#00C7FF"/>
<stop offset="1" stop-color="#00C7FF"/>
</linearGradient>
<linearGradient id="paint3_linear_124_3762" x1="24.4141" y1="22.687" x2="30.0658" y2="22.687" gradientUnits="userSpaceOnUse">
<stop stop-color="#AA316D"/>
<stop offset="1" stop-color="#792D3D"/>
</linearGradient>
<linearGradient id="paint4_linear_124_3762" x1="21.5308" y1="8.8742" x2="36.0393" y2="16.6167" gradientUnits="userSpaceOnUse">
<stop stop-color="#AA316D"/>
<stop offset="1" stop-color="#792D3D"/>
</linearGradient>
<linearGradient id="paint5_linear_124_3762" x1="36.7711" y1="16.0013" x2="21.918" y2="8.0749" gradientUnits="userSpaceOnUse">
<stop stop-color="#444B8B"/>
<stop offset="0.99" stop-color="#26264F"/>
</linearGradient>
<linearGradient id="paint6_linear_124_3762" x1="11.3955" y1="43.1325" x2="63.4486" y2="41.3701" gradientUnits="userSpaceOnUse">
<stop stop-color="#CEDDFE"/>
<stop offset="1" stop-color="#7399EF"/>
</linearGradient>
</defs>
</svg>
