<svg width="61" height="182" viewBox="0 0 61 182" fill="none" xmlns="http://www.w3.org/2000/svg">
<path d="M33.0705 61.216C32.493 60.5308 31.4847 57.6041 30.8387 55.617C30.8093 55.6268 30.7897 55.6463 30.7604 55.6561C30.7506 55.6561 30.731 55.6561 30.7114 55.6561C30.6723 55.6561 30.6233 55.6659 30.5548 55.6757C30.5352 55.6757 30.5059 55.6757 30.4863 55.6757C30.4276 55.6757 30.359 55.6757 30.2807 55.6757C30.2416 55.6757 30.2122 55.6757 30.1731 55.6659C30.1045 55.6659 30.0262 55.6463 29.9479 55.6267C29.9088 55.617 29.8598 55.5974 29.8207 55.5876C29.7522 55.568 29.6738 55.5289 29.6053 55.4897C29.5564 55.4604 29.5074 55.4408 29.4683 55.4114C29.3998 55.3625 29.341 55.3037 29.2823 55.245C29.2334 55.2059 29.1942 55.1667 29.1453 55.108C29.0865 55.0394 29.0376 54.9416 28.9886 54.8535C28.9593 54.7947 28.9201 54.736 28.8908 54.6675C28.8222 54.4913 28.7635 54.2857 28.7244 54.0508C28.7048 53.9138 28.6852 53.7963 28.6656 53.6886C29.0768 53.5516 29.527 53.2481 29.6641 52.5825C29.9186 51.2904 29.576 49.9494 28.3132 50.0081C26.7079 50.0766 26.8743 51.9463 26.8743 51.9463C26.8743 51.9463 25.8172 53.3558 25.9248 51.4568C26.0129 49.8319 24.711 48.3832 24.711 48.3832C24.711 48.3832 25.1222 47.6197 24.8579 46.5332C24.5838 45.4467 21.3634 45.1824 21.3634 45.1824C21.0893 45.662 20.5411 46.6507 20.1398 47.6295C19.8461 48.3441 19.8559 49.1369 20.0713 49.8809C20.1496 50.1354 19.758 50.3703 19.621 50.6248L18.3583 52.5923C18.3583 52.5923 18.1919 53.2775 18.7302 53.2481C19.4644 53.209 19.435 53.5418 19.435 53.5418C19.435 53.5418 19.5231 54.1291 19.2784 54.4032C18.8379 54.9122 19.5525 55.2352 19.8168 55.2841C20.0713 55.3331 19.5133 55.3135 19.4154 55.8323C19.3175 56.3511 19.7483 56.4001 19.7483 56.4001C20.267 56.7916 19.1414 58.1326 20.6194 58.6025C21.6472 58.9353 25.6899 58.485 26.7373 56.8307L27.1582 55.7736C27.1582 55.7736 27.168 55.8519 27.1582 55.8813C27.1582 55.94 27.1386 55.9889 27.1288 56.0476C27.1092 56.1553 27.0995 56.263 27.0603 56.3707C27.0407 56.4294 27.0114 56.4783 26.9918 56.5371C26.9526 56.635 26.9037 56.7329 26.845 56.8307C26.8156 56.8797 26.7764 56.9188 26.7471 56.9678C26.2283 57.6628 25.2592 58.2207 24.0161 58.6025L24.6817 61.3726L23.0861 63.3303C23.0861 63.3303 27.7161 69.1839 31.5141 67.745C35.3121 66.2963 33.8144 62.0872 33.09 61.2258L33.0705 61.216Z" fill="url(#paint0_linear_128_117)"/>
<path d="M41.2139 170.76L41.3509 176.114L36.2511 177.494L35.8008 170.388L41.2139 170.76Z" fill="url(#paint1_linear_128_117)"/>
<path d="M14.6976 170.76L14.1396 177.347L19.8268 176.848L20.1107 170.388L14.6976 170.76Z" fill="url(#paint2_linear_128_117)"/>
<path d="M42.8503 109.847L28.0304 110.474L13.2105 109.847C12.4372 127.212 12.5449 148.228 13.8664 174.354H20.689L28.0206 122.523L35.3522 174.354H42.1749C43.6823 155.579 43.6921 133.633 42.8307 109.847H42.8503Z" fill="url(#paint3_linear_128_117)"/>
<path d="M19.9838 176.457C19.9838 176.457 21.1389 179.756 20.9921 181.576H10.5183C10.5183 181.576 10.1561 179.951 11.8691 178.366L13.3374 176.232C13.3374 176.232 13.7485 174.421 15.3636 174.734C18.5645 175.37 17.5661 176.163 19.9936 176.447L19.9838 176.457Z" fill="url(#paint4_linear_128_117)"/>
<path d="M36.1051 176.457C36.1051 176.457 34.9501 179.756 35.0969 181.576H45.5706C45.5706 181.576 45.9328 179.951 44.2198 178.366L42.7515 176.232C42.7515 176.232 42.3404 174.421 40.7253 174.734C37.5244 175.37 38.5229 176.163 36.0953 176.447L36.1051 176.457Z" fill="url(#paint5_linear_128_117)"/>
<path d="M7.70621 116.395C8.30331 113.341 10.0359 104.14 9.96737 101.037C9.88906 97.2977 9.94778 96.3677 9.94778 96.3677C9.94778 96.3677 5.3178 95.6728 3.34051 96.5733C2.81193 96.8082 2.4987 99.6371 2.53785 101.37L3.88866 116.542C3.4286 117.403 1.7254 120.702 1.87222 121.192C2.03863 121.759 2.59658 121.779 2.59658 121.779C2.59658 121.779 2.43017 122.493 2.77277 122.728C3.12516 122.963 3.75163 122.826 3.75163 122.826C3.75163 122.826 3.66353 123.697 4.24105 123.834C4.81858 123.981 5.28844 123.697 5.28844 123.697C5.28844 123.697 5.40589 124.353 5.95405 124.49C6.50221 124.618 6.97207 124.06 6.97207 124.06C6.97207 124.06 7.30487 124.666 7.83345 124.666C8.36203 124.666 8.42077 123.913 8.42077 123.913C8.42077 123.913 8.50887 120.8 8.27395 118.881C8.16628 118.02 7.93134 117.139 7.71599 116.405L7.70621 116.395Z" fill="url(#paint6_linear_128_117)"/>
<path d="M27.2922 42.5394C24.5905 42.3535 22.9559 42.9016 21.5855 42.0109C21.096 41.6976 20.2934 43.8218 21.3603 45.1236C21.3701 45.1432 21.3897 45.1628 21.3995 45.1824C21.791 45.2215 24.5905 45.5152 24.8451 46.5234C25.1191 47.6099 24.6982 48.3734 24.6982 48.3734C24.6982 48.3734 25.3834 49.1467 25.726 50.1843C26.0784 53.8452 23.4551 53.9529 22.8482 54.3249C22.2217 54.7066 20.0878 53.0328 19.4026 53.483C18.7174 53.9431 18.7566 54.7066 19.0698 54.7653C19.3537 54.8143 19.7942 54.8437 20.2738 54.8632C20.5283 54.8632 21.1254 55.0982 21.1743 55.3429C21.2722 55.8225 20.8122 56.1945 19.8725 56.6154C19.1775 56.9286 20.1465 58.7787 20.1465 58.7787C20.1465 58.7787 20.6458 59.2681 22.5447 58.9451C25.4422 58.4556 27.4977 57.1538 27.1062 55.3723C26.8223 54.0704 26.8615 52.2888 26.9007 51.4372C26.9692 50.8793 27.253 50.0473 28.3102 49.9983C29.5729 49.9396 29.9155 51.2806 29.661 52.5727C29.5338 53.2383 29.0737 53.532 28.6626 53.6788C28.6822 53.7865 28.7017 53.904 28.7213 54.041C28.9758 55.8519 30.4343 55.7148 30.7476 55.6659C33.1457 54.8926 33.7624 52.2497 34.0855 49.7732C34.5945 45.9263 31.1489 42.8037 27.2824 42.5492L27.2922 42.5394Z" fill="url(#paint7_linear_128_117)"/>
<path opacity="0.85" d="M23.1241 60.522L27.9204 85.4534L34.0187 60.7178C29.9662 60.1207 26.2858 60.15 23.1143 60.5122L23.1241 60.522Z" fill="url(#paint8_linear_128_117)"/>
<path d="M2.71235 115.072L8.72252 115.777C8.72252 115.777 10.925 106.037 11.9136 95.8375L20.1947 76.7792C20.1947 76.7792 21.3596 67.6562 16.3478 64.563C11.3361 61.4698 8.82041 65.8845 8.82041 65.8845C8.82041 65.8845 2.35018 75.9373 1.20492 90.3167C0.0596558 104.696 2.71235 115.072 2.71235 115.072Z" fill="white"/>
<path d="M10.6406 64.1732C10.6406 64.1732 25.7248 55.3537 45.8892 64.1732L43.0799 95.3399L43.6966 110.6L12.8626 112.304L13.4206 96.3677L10.6406 64.1732Z" fill="white"/>
<path d="M45.8905 64.1719C45.8905 64.1719 56.1783 71.2392 60.4363 89.4361L52.2139 100.889C52.2139 100.889 46.5072 85.7361 43.4238 82.359C40.3404 78.9819 45.8905 64.1719 45.8905 64.1719Z" fill="white"/>
<path d="M42.7129 108.896C42.7129 108.896 49.095 90.2199 49.976 86.9897C50.857 83.7595 60.3715 88.9768 60.3715 88.9768C60.3715 88.9768 60.7336 104.844 42.7423 117.334L42.7031 108.896H42.7129Z" fill="white"/>
<path opacity="0.7" d="M60.4363 89.4361C60.4167 89.348 60.3874 89.2697 60.3678 89.1914C60.3678 89.0544 60.3678 88.9761 60.3678 88.9761L60.2993 88.9369C55.9727 71.1217 45.8905 64.1719 45.8905 64.1719C45.8905 64.1719 40.3404 78.9819 43.4238 82.359C44.8236 83.8958 46.7715 87.87 48.4747 91.7462C46.3114 98.3633 42.7092 108.896 42.7092 108.896L42.7484 117.334C58.7233 106.233 60.221 92.4902 60.358 89.5536L60.4363 89.4459V89.4361Z" fill="url(#paint9_linear_128_117)"/>
<path opacity="0.7" d="M10.644 64.1726C10.644 64.1726 10.9866 63.9768 11.6327 63.6636C9.76307 64.2411 8.81358 65.8758 8.81358 65.8758C8.81358 65.8758 2.34334 75.9286 1.19808 90.308C0.0528185 104.687 2.70553 115.063 2.70553 115.063L8.7157 115.768C8.7157 115.768 10.9181 106.028 11.9068 95.8288L13.1303 93.0096L10.6342 64.1726H10.644Z" fill="url(#paint10_linear_128_117)"/>
<path opacity="0.8" d="M42.7236 110.648V108.886C42.7236 108.886 43.0368 107.947 43.536 106.469L43.0857 95.3292L44.1723 83.3187C43.9178 82.9467 43.6633 82.6041 43.4381 82.3496C40.3547 78.9726 45.9049 64.1624 45.9049 64.1624C25.7404 55.343 10.6562 64.1624 10.6562 64.1624L13.4362 96.357L12.8783 112.293L42.7236 110.639V110.648Z" fill="url(#paint11_linear_128_117)"/>
<path d="M23.1475 28.8522L22.9647 28.6385H22.6835H17.7284C15.4724 28.6385 13.6293 26.7837 13.6293 24.4826V5.58421C13.6293 3.28311 15.4724 1.42835 17.7284 1.42835H36.402C38.658 1.42835 40.5011 3.28311 40.5011 5.58421V24.4826C40.5011 26.7837 38.658 28.6385 36.402 28.6385H31.4469H31.1657L30.9828 28.8522L27.0652 33.4305L23.1475 28.8522Z" fill="white" stroke="#001464" stroke-width="1.22145"/>
<mask id="mask0_128_117" style="mask-type:alpha" maskUnits="userSpaceOnUse" x="16" y="5" width="22" height="22">
<rect x="16.5303" y="5.49976" width="21.07" height="21.07" fill="#001464"/>
</mask>
<g mask="url(#mask0_128_117)">
<path d="M27.0691 18.8034C27.9613 18.8034 28.7183 18.4911 29.3401 17.8666C29.962 17.2421 30.2729 16.4838 30.2729 15.5916C30.2729 14.6995 29.9606 13.9425 29.3361 13.3206C28.7116 12.6988 27.9533 12.3878 27.0612 12.3878C26.169 12.3878 25.412 12.7001 24.7901 13.3246C24.1683 13.9491 23.8574 14.7074 23.8574 15.5996C23.8574 16.4917 24.1696 17.2487 24.7941 17.8706C25.4186 18.4924 26.177 18.8034 27.0691 18.8034ZM27.0651 17.966C26.4067 17.966 25.847 17.7355 25.3861 17.2746C24.9252 16.8137 24.6948 16.254 24.6948 15.5956C24.6948 14.9372 24.9252 14.3775 25.3861 13.9166C25.847 13.4557 26.4067 13.2252 27.0651 13.2252C27.7236 13.2252 28.2832 13.4557 28.7441 13.9166C29.205 14.3775 29.4355 14.9372 29.4355 15.5956C29.4355 16.254 29.205 16.8137 28.7441 17.2746C28.2832 17.7355 27.7236 17.966 27.0651 17.966ZM27.0675 21.3021C25.166 21.3021 23.433 20.7846 21.8686 19.7497C20.3041 18.7147 19.1324 17.3301 18.3535 15.5956C19.1324 13.8612 20.3032 12.4765 21.8661 11.4416C23.429 10.4066 25.1612 9.88916 27.0627 9.88916C28.9642 9.88916 30.6972 10.4066 32.2617 11.4416C33.8262 12.4765 34.9979 13.8612 35.7767 15.5956C34.9979 17.3301 33.827 18.7147 32.2641 19.7497C30.7012 20.7846 28.969 21.3021 27.0675 21.3021Z" fill="#001464"/>
</g>
<defs>
<linearGradient id="paint0_linear_128_117" x1="18.3191" y1="56.5665" x2="33.971" y2="56.5665" gradientUnits="userSpaceOnUse">
<stop stop-color="#F8C9C6"/>
<stop offset="1" stop-color="#F26F56"/>
</linearGradient>
<linearGradient id="paint1_linear_128_117" x1="35.8008" y1="173.941" x2="41.3509" y2="173.941" gradientUnits="userSpaceOnUse">
<stop stop-color="#F8C9C6"/>
<stop offset="1" stop-color="#F26F56"/>
</linearGradient>
<linearGradient id="paint2_linear_128_117" x1="14.1396" y1="173.872" x2="20.1107" y2="173.872" gradientUnits="userSpaceOnUse">
<stop stop-color="#F8C9C6"/>
<stop offset="1" stop-color="#F26F56"/>
</linearGradient>
<linearGradient id="paint3_linear_128_117" x1="43.8952" y1="139.954" x2="8.71157" y2="138.524" gradientUnits="userSpaceOnUse">
<stop stop-color="#CEDDFE"/>
<stop offset="1" stop-color="#7399EF"/>
</linearGradient>
<linearGradient id="paint4_linear_128_117" x1="10.4792" y1="178.141" x2="21.0019" y2="178.141" gradientUnits="userSpaceOnUse">
<stop stop-color="#444B8B"/>
<stop offset="0.27" stop-color="#3E4480"/>
<stop offset="0.73" stop-color="#2F3262"/>
<stop offset="1" stop-color="#26264F"/>
</linearGradient>
<linearGradient id="paint5_linear_128_117" x1="35.0871" y1="178.141" x2="45.6098" y2="178.141" gradientUnits="userSpaceOnUse">
<stop stop-color="#444B8B"/>
<stop offset="0.27" stop-color="#3E4480"/>
<stop offset="0.73" stop-color="#2F3262"/>
<stop offset="1" stop-color="#26264F"/>
</linearGradient>
<linearGradient id="paint6_linear_128_117" x1="1.86244" y1="110.385" x2="9.96737" y2="110.385" gradientUnits="userSpaceOnUse">
<stop stop-color="#F8C9C6"/>
<stop offset="1" stop-color="#F26F56"/>
</linearGradient>
<linearGradient id="paint7_linear_128_117" x1="26.4945" y1="41.9797" x2="26.4945" y2="59.0554" gradientUnits="userSpaceOnUse">
<stop stop-color="#FFFB96"/>
<stop offset="1" stop-color="#FFD583"/>
</linearGradient>
<linearGradient id="paint8_linear_128_117" x1="23.124" y1="72.8556" x2="34.0187" y2="72.8556" gradientUnits="userSpaceOnUse">
<stop stop-color="#05C8FF"/>
<stop offset="0.84" stop-color="#18D4A7"/>
</linearGradient>
<linearGradient id="paint9_linear_128_117" x1="60.4399" y1="90.7615" x2="42.4931" y2="90.7615" gradientUnits="userSpaceOnUse">
<stop stop-color="#530085"/>
<stop offset="0.1" stop-color="#530085"/>
<stop offset="0.9" stop-color="#0052F2"/>
<stop offset="1" stop-color="#0052F2"/>
</linearGradient>
<linearGradient id="paint10_linear_128_117" x1="13.1327" y1="89.7244" x2="0.912405" y2="89.7244" gradientUnits="userSpaceOnUse">
<stop stop-color="#530085"/>
<stop offset="0.1" stop-color="#530085"/>
<stop offset="0.9" stop-color="#0052F2"/>
<stop offset="1" stop-color="#0052F2"/>
</linearGradient>
<linearGradient id="paint11_linear_128_117" x1="45.9118" y1="86.2764" x2="10.6599" y2="86.2764" gradientUnits="userSpaceOnUse">
<stop stop-color="#530085"/>
<stop offset="0.1" stop-color="#530085"/>
<stop offset="0.9" stop-color="#0052F2"/>
<stop offset="1" stop-color="#0052F2"/>
</linearGradient>
</defs>
</svg>
