<svg width="117" height="131" viewBox="0 0 117 131" fill="none" xmlns="http://www.w3.org/2000/svg">
<path d="M109.641 71.7071L89.9885 76.325L87.0068 76.6365L106.038 71.953L109.641 71.7071Z" fill="url(#paint0_linear_129_205)"/>
<path d="M91.7067 76.4979C91.7067 76.4979 92.7554 76.7148 93.4668 76.4736C93.4668 76.4736 93.6859 68.9507 96.4899 67.8925C99.2944 66.8333 101.332 74.0699 101.332 74.0699C101.332 74.0699 102.178 74.1912 102.907 73.7766C102.907 73.7766 100.135 66.3749 96.5639 67.1832C92.9915 67.9901 91.7067 76.4979 91.7067 76.4979Z" fill="url(#paint1_linear_129_205)"/>
<path d="M89.949 75.9143L94.3154 97.4006L115.875 90.8341L109.198 71.6246L89.949 75.9143Z" fill="url(#paint2_linear_129_205)"/>
<path d="M88.147 95.971L93.9076 97.5249L89.6624 76.3436L86.8248 76.6285L88.147 95.971Z" fill="url(#paint3_linear_129_205)"/>
<path d="M93.5013 76.4315C93.5013 76.4315 94.16 76.4354 94.956 76.0874C94.956 76.0874 94.2134 69.0665 97.3214 67.5671C100.429 66.0688 104.135 74.1809 104.135 74.1809C104.135 74.1809 105.393 74.1684 106.173 73.619C106.173 73.619 101.331 65.4579 97.2598 66.7498C93.189 68.0425 93.5013 76.4315 93.5013 76.4315Z" fill="url(#paint4_linear_129_205)"/>
<path d="M61.855 9.85448C62.4298 8.88833 60.6161 12.1789 62.2743 12.819C64.8921 13.8184 67.0666 15.767 67.1152 17.7341C67.2024 21.0219 69.4957 20.3783 71.7603 24.6971C74.7552 30.4115 59.8537 32.104 58.078 24.1399C57.9341 19.4842 59.9508 14.3143 61.855 9.85448Z" fill="url(#paint5_linear_129_205)"/>
<path d="M70.1408 124.48C70.0003 124.442 69.9161 124.414 69.9161 124.414C69.9161 124.414 70.0097 122.607 69.8599 119.779C69.7101 116.952 74.9252 119.882 74.9252 119.882C74.9252 119.882 74.7847 122.064 75.1686 123.787C75.1873 123.852 75.2061 123.918 75.2248 123.983C75.2716 124.171 75.3184 124.358 75.384 124.526C75.4027 124.583 75.4027 124.629 75.4121 124.676C75.6649 125.706 75.6368 125.996 75.6368 125.996L69.7756 125.856L70.1501 124.48H70.1408Z" fill="url(#paint6_linear_129_205)"/>
<path d="M67.1116 130.386L75.9595 130.19C75.9595 130.19 76.4745 129.965 76.5494 129.019C76.6243 128.064 75.6974 124.329 75.6974 124.329C75.6974 124.329 75.1731 124.029 75.145 125.433C75.1169 126.557 74.3959 125.433 73.5814 124.038C73.1413 123.299 70.9036 123.233 70.9036 123.233L69.8456 123.814L68.8906 125.948C67.4393 127.081 66.2409 129.815 67.121 130.396L67.1116 130.386Z" fill="url(#paint7_linear_129_205)"/>
<path d="M42.1569 127.418C42.1569 127.418 45.4059 125.096 46.1549 122.643C46.2111 122.465 46.286 122.325 46.3702 122.212C46.6605 120.761 46.8103 119.376 46.8103 119.376C46.8103 119.376 52.2688 116.464 51.885 119.273C51.5479 121.716 51.0236 124.328 51.37 125.04L51.2576 125.059L51.3232 125.499L42.1476 127.418H42.1569Z" fill="url(#paint8_linear_129_205)"/>
<path d="M38.2055 130.285L51.454 130.088C51.454 130.088 51.9689 129.864 52.0438 128.918C52.1094 128.094 51.5102 125.182 51.351 124.414C51.3323 124.302 51.2105 124.246 51.1076 124.283C50.8267 124.386 50.3211 124.667 49.9185 125.323C49.3286 126.278 47.868 124.733 47.5684 123.927C47.2781 123.122 46.0516 123.188 46.0516 123.188L40.2373 126.933L39.3197 127.139C38.6737 127.289 38.0838 127.673 37.7655 128.253C37.4565 128.806 37.3254 129.695 38.2055 130.285Z" fill="url(#paint9_linear_129_205)"/>
<path d="M57.3992 48.0213L74.7673 48.5176L75.3385 49.8471C77.2953 52.6653 81.8363 60.1369 81.2652 67.9736C80.1416 83.3194 76.4152 120.949 76.4152 120.949L68.6159 120.855L64.9925 73.2636L58.8504 91.3714C58.4385 103.478 53.2702 121.445 53.2702 121.445L45.5177 120.359C43.3362 67.4961 57.3992 48.012 57.3992 48.012V48.0213Z" fill="white"/>
<path opacity="0.8" d="M57.4025 48.0217L57.3089 45.99L74.6302 46.2896L74.78 48.5273L75.3512 49.8569C77.308 52.6751 81.849 60.1467 81.2779 67.9834C80.1543 83.3291 76.4279 120.959 76.4279 120.959L68.6286 120.865L65.0052 73.2734L58.8631 91.3812C58.4512 103.487 53.2829 121.455 53.2829 121.455L45.5304 120.369C43.3489 67.5059 57.4119 48.0217 57.4119 48.0217H57.4025Z" fill="url(#paint10_linear_129_205)"/>
<path d="M43.8594 39.4963C43.8594 39.4963 50.7665 26.9259 55.1868 22.7392C59.6071 18.5526 64.2021 23.5428 64.2021 23.5428C66.2798 25.2682 64.6202 26.6815 63.0438 28.0856C61.2078 29.7332 57.0954 34.0169 53.891 37.2352L53.3685 37.8274L48.0566 43.4015C48.0566 43.4015 47.8312 42.3901 48.1438 40.4894L43.8506 39.4931L43.8594 39.4963Z" fill="url(#paint11_linear_129_205)"/>
<path d="M60.9139 9.45808C60.9139 9.45808 59.7228 4.69478 61.9769 2.77723C64.2121 0.878156 66.4795 0.777344 66.4795 0.777344L60.9139 9.45808Z" fill="url(#paint12_linear_129_205)"/>
<path fill-rule="evenodd" clip-rule="evenodd" d="M26.7103 29.7878C27.6699 30.1708 28.599 29.9014 29.0115 29.7505L29.0013 29.7184C29.2656 29.6214 29.6881 28.4505 29.6881 28.4505C29.7331 28.3421 29.745 28.3164 29.7358 28.301C29.7341 28.298 29.7315 28.2954 29.7281 28.2926C29.8005 28.0023 29.8107 27.7654 29.8107 27.7654L29.8034 27.7597C29.8034 27.7597 28.0868 24.9236 27.7709 24.4237C27.455 23.9239 26.904 23.4834 26.904 23.4834C26.8122 23.4236 26.7195 23.3642 26.6269 23.3049C25.9395 22.8648 25.2526 22.425 24.9347 21.783C24.9347 21.783 24.1364 22.652 25.2619 23.5633C25.5029 23.7609 25.7666 24.1447 25.9901 24.5206C25.8578 24.4964 25.7302 24.4743 25.6173 24.4547C25.4419 24.4242 25.3016 24.3998 25.2332 24.3834C24.7173 24.2605 22.1823 22.3265 21.853 22.0706C21.5237 21.8147 21.3182 21.8968 21.4983 22.5687C21.6783 23.2407 24.3054 25.2826 24.3054 25.2826L24.1998 25.2972C23.1773 24.829 21.4071 23.2113 21.4071 23.2113C21.4071 23.2113 20.1995 22.3332 20.1635 23.1758C20.1334 24.0109 23.75 26.2173 23.75 26.2173L23.6983 26.3585C23.6983 26.3585 21.5852 25.1635 20.7394 24.4698C19.895 23.7893 19.9529 24.6324 19.9529 24.6324C20.4022 25.7668 22.9599 27.1836 23.1894 27.309C22.7008 27.3258 20.5368 26.1866 20.5368 26.1866C20.5368 26.1866 19.8633 25.784 19.9084 26.4479C19.9536 27.1118 23.2496 28.5248 23.2496 28.5248C23.2496 28.5248 25.071 29.1303 26.7103 29.7878ZM23.2632 27.2899C23.3385 27.2391 23.2678 27.2807 23.2284 27.3044C23.2424 27.3012 23.2541 27.2964 23.2632 27.2899Z" fill="url(#paint13_linear_129_205)"/>
<path d="M63.2218 13.4653C63.1469 13.5215 64.5701 22.6409 64.5701 22.6409C67.9126 22.1634 71.0211 21.5267 71.9199 19.4295C68.7553 16.0776 71.9199 10.9842 68.2778 10.9842C67.6036 9.0554 66.4056 11.028 64.842 12.3481L63.2218 12.6928V13.4653Z" fill="url(#paint14_linear_129_205)"/>
<path fill-rule="evenodd" clip-rule="evenodd" d="M57.6378 21.1793C57.6378 21.1793 58.4056 25.1398 55.5499 29.7557L55.5593 29.7463C52.7036 34.3622 56.8794 37.2179 56.8794 37.2179L57.0948 46.1314L57.3129 46.133L57.4013 48.0512L75.4713 48.5769L75.3182 46.2905L75.3243 46.2905C75.9891 44.0903 76.5134 40.1579 76.7755 37.6112C77.9084 29.0254 78.0957 21.6849 78.0957 21.6849L71.9817 19.4565C69.6878 21.5164 64.1169 22.1811 64.0701 19.4565L57.6378 21.1793Z" fill="url(#paint15_linear_129_205)"/>
<path d="M59.4911 9.19704L61.0216 7.47583C61.0692 7.42028 61.0983 7.34576 61.1086 7.27099C61.3441 4.36202 63.4057 2.84454 63.4057 2.84454C63.9826 2.41215 64.5391 2.11058 64.7841 1.99213L64.9611 2.06004C66.1564 5.10984 66.6354 9.20818 66.6354 9.20818C66.6354 9.20818 67.4104 7.27087 68.693 7.99028C69.6131 8.50821 69.7505 10.1393 68.7412 11.39C67.9414 12.3812 67.0031 11.8256 67.0031 11.8256C67.0031 11.8256 66.4221 13.9621 65.2006 14.2829C64.7776 14.399 63.0529 14.5351 63.0529 14.5351C62.2838 14.6278 61.4685 14.6825 60.7105 14.6443C60.7105 14.6443 59.0451 14.5471 59.9203 12.8172L59.467 12.3991C59.467 12.3991 59.332 11.9947 60.2622 11.7543C60.2622 11.7543 59.2747 11.3759 59.5337 10.9112L59.9147 10.4293C60.0005 10.3181 59.9839 10.1587 59.8726 10.073L59.4837 9.7494C59.4837 9.7494 59.3193 9.4382 59.4631 9.1873L59.4911 9.19704Z" fill="url(#paint16_linear_129_205)"/>
<path d="M66.6494 9.07616C66.458 6.58286 63.2304 4.96665 63.7439 2.27676C63.7439 2.27676 63.9647 1.16543 66.3676 1.43161C68.7705 1.69779 66.6494 9.07616 66.6494 9.07616Z" fill="url(#paint17_linear_129_205)"/>
<path fill-rule="evenodd" clip-rule="evenodd" d="M96.0928 63.2566C95.5583 62.369 94.6572 62.0406 94.244 61.9186L94.2605 61.9237L94.264 61.9247M96.0928 63.2566C97.024 64.7702 98.1288 66.3457 98.1288 66.3457L96.0928 63.2566ZM98.1288 66.3457C98.1288 66.3457 99.5248 68.1943 99.1849 68.7662L98.1288 66.3457ZM99.1849 68.7662C98.8383 69.3316 98.709 69.242 98.709 69.242L99.1849 68.7662ZM98.709 69.242L98.7012 69.2343L98.709 69.242ZM98.7012 69.2343C98.7012 69.2344 98.7012 69.2345 98.7011 69.2346C98.7011 69.2346 98.1181 69.9284 97.745 69.6458C97.7118 69.7263 97.6509 69.8282 97.5506 69.957C97.0469 70.6192 96.5714 69.9596 96.5714 69.9596C96.5714 69.9596 96.594 70.1969 96.3328 70.4348C96.0716 70.6728 95.6873 70.6739 95.6209 70.4367C95.5203 70.0771 94.7533 69.179 94.3407 68.6959C94.2853 68.631 94.2363 68.5737 94.1962 68.5261C94.1518 68.4731 94.0558 68.3717 93.9354 68.2445C93.8375 68.1411 93.7235 68.0207 93.608 67.8953C93.5622 68.3628 93.5431 68.8818 93.6284 69.2069C93.2528 69.249 92.7779 69.4874 92.7779 69.4874C92.6866 69.3039 92.6416 69.2154 92.6015 69.1252C92.5382 68.9824 92.4875 68.8352 92.2862 68.3008C92.2862 68.3008 92.1003 67.6037 92.1349 67.0135C92.1695 66.4234 92.4345 63.093 92.4345 63.093L92.4277 63.0866C92.4277 63.0866 92.597 62.8648 92.8549 62.6545C92.8532 62.6482 92.8522 62.6432 92.853 62.6384C92.8562 62.6212 92.8834 62.6074 92.9842 62.5469C92.9842 62.5469 93.9886 61.8448 94.2605 61.9237" fill="url(#paint18_linear_129_205)"/>
<path d="M74.8613 22.2275C74.8613 22.2275 78.7937 19.4936 81.7056 24.8398C87.7353 35.888 88.269 43.9119 88.2783 46.1778C88.2783 46.5242 87.9787 46.7957 87.6323 46.7583L83.0164 46.2433L74.6085 32.4143C74.6085 32.4143 70.4046 25.4952 74.852 22.2275H74.8613Z" fill="url(#paint19_linear_129_205)"/>
<path d="M91.9287 63.108C91.9287 63.108 85.7996 55.956 83.8153 50.2265C81.831 44.4969 82.3469 44.472 82.3469 44.472L87.5245 44.7186C88.2141 44.7559 88.7079 45.2149 89.0068 45.8372L89.3863 46.5107C91.2704 49.8651 92.8403 53.3857 94.0558 57.0467L95.7539 62.1271L91.9287 63.108Z" fill="url(#paint20_linear_129_205)"/>
<path d="M65.8861 0.862628C68.9117 0.0790271 72.0455 1.01043 73.6868 3.61673C76.0615 7.39393 79.0322 17.0314 79.7293 22.3312L79.7288 22.3687C79.7288 22.3687 79.7462 22.4625 79.7456 22.5093C79.6715 22.4522 79.5971 22.4137 79.5322 22.366L68.5786 22.2197C70.2382 19.9478 68.5602 11.676 68.5602 11.676L68.5789 11.6762C68.5789 11.6762 68.5704 11.6106 68.5613 11.5917C68.6182 11.5363 68.6845 11.481 68.7417 11.4068C69.7511 10.1469 69.623 8.51586 68.6935 8.00717C67.4109 7.28777 66.6359 9.22507 66.6359 9.22507C66.6359 9.22507 66.1569 5.12673 64.9616 2.07693L64.7846 2.00902C64.5396 2.12747 63.9831 2.42904 63.4061 2.86143L63.34 2.90737C63.7464 1.92024 64.7115 1.17467 65.8766 0.871865L65.8861 0.862628Z" fill="url(#paint21_linear_129_205)"/>
<path d="M23.1909 22.3708C23.9637 22.5395 24.3999 23.4264 24.636 24.5708C24.55 24.5579 24.4618 24.5474 24.3899 24.5158C24.1951 24.4306 23.9887 24.4232 23.7985 24.4652C23.731 23.6236 23.4787 23.0262 22.8851 23.0192C20.7664 22.9937 18.8493 29.3041 18.8493 29.3041C18.3221 29.2719 17.2633 28.7688 17.2633 28.7688C17.2633 28.7688 20.6914 21.8234 23.1909 22.3708Z" fill="url(#paint22_linear_129_205)"/>
<path d="M12.5162 27.9514L6.65424 56.7865L32.2599 58.4661L33.4786 32.494L12.5162 27.9514Z" fill="url(#paint23_linear_129_205)"/>
<path d="M1.53173 52.713L6.60458 56.8176L12.4329 28.0408L9.43823 27.0131L1.53173 52.713Z" fill="url(#paint24_linear_129_205)"/>
<path d="M33.5983 32.5658L26.4307 30.1018L9.53068 26.9352L12.5543 27.9757L33.5983 32.5658Z" fill="url(#paint25_linear_129_205)"/>
<path d="M23.7369 22.2483C24.6563 22.3321 25.2213 23.0996 25.6595 24.3931C25.3554 24.3708 25.0653 24.6106 24.751 24.5879C24.5512 23.6168 24.1652 22.9698 23.4744 23.0482C21.0096 23.3284 19.7882 30.4599 19.7882 30.4599C19.1701 30.498 17.868 30.0697 17.868 30.0697C17.868 30.0697 20.7547 21.9782 23.7369 22.2483Z" fill="url(#paint26_linear_129_205)"/>
<path d="M27.4339 30.3971C27.4339 30.3971 35.1134 39.2272 40.5601 42.6843C41.8318 43.4979 42.8235 43.898 43.5644 44.1019C44.0487 44.2393 45.3449 44.3531 46.4578 44.2986C47.4369 44.2508 48.3003 43.619 48.6558 42.7035L49.0476 41.7161L46.3905 38.0557C45.4529 36.9719 44.334 36.0465 43.0891 35.3245L30.2847 27.8893L27.4295 30.3888L27.4339 30.3971Z" fill="url(#paint27_linear_129_205)"/>
<defs>
<linearGradient id="paint0_linear_129_205" x1="109.557" y1="71.3808" x2="87.1267" y2="77.1038" gradientUnits="userSpaceOnUse">
<stop stop-color="#444B8B"/>
<stop offset="0.99" stop-color="#26264F"/>
</linearGradient>
<linearGradient id="paint1_linear_129_205" x1="101.948" y1="70.1973" x2="90.8179" y2="73.1783" gradientUnits="userSpaceOnUse">
<stop stop-color="#444B8B"/>
<stop offset="0.99" stop-color="#26264F"/>
</linearGradient>
<linearGradient id="paint2_linear_129_205" x1="113.41" y1="81.6437" x2="91.6554" y2="87.4752" gradientUnits="userSpaceOnUse">
<stop stop-color="#444B8B"/>
<stop offset="0.99" stop-color="#26264F"/>
</linearGradient>
<linearGradient id="paint3_linear_129_205" x1="92.3726" y1="86.5978" x2="86.1073" y2="88.254" gradientUnits="userSpaceOnUse">
<stop stop-color="#444B8B"/>
<stop offset="0.99" stop-color="#26264F"/>
</linearGradient>
<linearGradient id="paint4_linear_129_205" x1="105.065" y1="69.4836" x2="92.5393" y2="72.8374" gradientUnits="userSpaceOnUse">
<stop stop-color="#444B8B"/>
<stop offset="0.99" stop-color="#26264F"/>
</linearGradient>
<linearGradient id="paint5_linear_129_205" x1="72.2387" y1="19.722" x2="58.1301" y2="19.5336" gradientUnits="userSpaceOnUse">
<stop stop-color="#331809"/>
<stop offset="0.1" stop-color="#331809"/>
<stop offset="0.19" stop-color="#3D1C08"/>
<stop offset="0.66" stop-color="#6C3406"/>
<stop offset="0.9" stop-color="#7F3D06"/>
<stop offset="1" stop-color="#7F3D06"/>
</linearGradient>
<linearGradient id="paint6_linear_129_205" x1="75.6368" y1="122.27" x2="69.7662" y2="122.27" gradientUnits="userSpaceOnUse">
<stop stop-color="#E9B764"/>
<stop offset="1" stop-color="#D77A5C"/>
</linearGradient>
<linearGradient id="paint7_linear_129_205" x1="76.54" y1="126.8" x2="66.812" y2="126.8" gradientUnits="userSpaceOnUse">
<stop stop-color="#444B89"/>
<stop offset="0.27" stop-color="#3E437E"/>
<stop offset="0.75" stop-color="#2F3160"/>
<stop offset="1" stop-color="#26264F"/>
</linearGradient>
<linearGradient id="paint8_linear_129_205" x1="51.9037" y1="122.737" x2="42.1569" y2="122.737" gradientUnits="userSpaceOnUse">
<stop stop-color="#E9B764"/>
<stop offset="1" stop-color="#D77A5C"/>
</linearGradient>
<linearGradient id="paint9_linear_129_205" x1="52.0438" y1="126.736" x2="37.5314" y2="126.736" gradientUnits="userSpaceOnUse">
<stop stop-color="#444B89"/>
<stop offset="0.27" stop-color="#3E437E"/>
<stop offset="0.75" stop-color="#2F3160"/>
<stop offset="1" stop-color="#26264F"/>
</linearGradient>
<linearGradient id="paint10_linear_129_205" x1="81.334" y1="83.7224" x2="45.287" y2="83.7224" gradientUnits="userSpaceOnUse">
<stop stop-color="#9B0051"/>
<stop offset="0.1" stop-color="#9B0051"/>
<stop offset="0.91" stop-color="#301C8E"/>
<stop offset="1" stop-color="#301C8E"/>
</linearGradient>
<linearGradient id="paint11_linear_129_205" x1="47.4951" y1="28.9298" x2="64.0817" y2="34.1" gradientUnits="userSpaceOnUse">
<stop stop-color="#CEDDFE"/>
<stop offset="1" stop-color="#7399EF"/>
</linearGradient>
<linearGradient id="paint12_linear_129_205" x1="66.4211" y1="5.14941" x2="60.6166" y2="5.0719" gradientUnits="userSpaceOnUse">
<stop stop-color="#331809"/>
<stop offset="0.1" stop-color="#331809"/>
<stop offset="0.19" stop-color="#3D1C08"/>
<stop offset="0.66" stop-color="#6C3406"/>
<stop offset="0.9" stop-color="#7F3D06"/>
<stop offset="1" stop-color="#7F3D06"/>
</linearGradient>
<linearGradient id="paint13_linear_129_205" x1="26.5554" y1="24.1847" x2="23.2602" y2="28.979" gradientUnits="userSpaceOnUse">
<stop stop-color="#E9B764"/>
<stop offset="1" stop-color="#D77A5C"/>
</linearGradient>
<linearGradient id="paint14_linear_129_205" x1="71.9199" y1="16.5269" x2="63.2124" y2="16.5269" gradientUnits="userSpaceOnUse">
<stop stop-color="#E9B764"/>
<stop offset="1" stop-color="#D77A5C"/>
</linearGradient>
<linearGradient id="paint15_linear_129_205" x1="54.1875" y1="33.0477" x2="81.0917" y2="31.1895" gradientUnits="userSpaceOnUse">
<stop stop-color="#CEDDFE"/>
<stop offset="1" stop-color="#7399EF"/>
</linearGradient>
<linearGradient id="paint16_linear_129_205" x1="69.4645" y1="8.41259" x2="59.4471" y2="8.27881" gradientUnits="userSpaceOnUse">
<stop stop-color="#E9B764"/>
<stop offset="1" stop-color="#D77A5C"/>
</linearGradient>
<linearGradient id="paint17_linear_129_205" x1="67.4964" y1="5.25771" x2="63.6579" y2="5.20645" gradientUnits="userSpaceOnUse">
<stop stop-color="#331809"/>
<stop offset="0.1" stop-color="#331809"/>
<stop offset="0.19" stop-color="#3D1C08"/>
<stop offset="0.66" stop-color="#6C3406"/>
<stop offset="0.9" stop-color="#7F3D06"/>
<stop offset="1" stop-color="#7F3D06"/>
</linearGradient>
<linearGradient id="paint18_linear_129_205" x1="97.5622" y1="64.3133" x2="93.0121" y2="69.6933" gradientUnits="userSpaceOnUse">
<stop stop-color="#E9B764"/>
<stop offset="1" stop-color="#D77A5C"/>
</linearGradient>
<linearGradient id="paint19_linear_129_205" x1="72.565" y1="33.3055" x2="90.2831" y2="32.3773" gradientUnits="userSpaceOnUse">
<stop stop-color="#CEDDFE"/>
<stop offset="1" stop-color="#7399EF"/>
</linearGradient>
<linearGradient id="paint20_linear_129_205" x1="84.8802" y1="56.6055" x2="92.9331" y2="47.4469" gradientUnits="userSpaceOnUse">
<stop stop-color="#CEDDFE"/>
<stop offset="1" stop-color="#7399EF"/>
</linearGradient>
<linearGradient id="paint21_linear_129_205" x1="79.9002" y1="11.6308" x2="63.2358" y2="11.4082" gradientUnits="userSpaceOnUse">
<stop stop-color="#331809"/>
<stop offset="0.1" stop-color="#331809"/>
<stop offset="0.19" stop-color="#3D1C08"/>
<stop offset="0.66" stop-color="#6C3406"/>
<stop offset="0.9" stop-color="#7F3D06"/>
<stop offset="1" stop-color="#7F3D06"/>
</linearGradient>
<linearGradient id="paint22_linear_129_205" x1="24.6827" y1="25.6945" x2="17.1478" y2="26.0107" gradientUnits="userSpaceOnUse">
<stop stop-color="#444B8B"/>
<stop offset="0.99" stop-color="#26264F"/>
</linearGradient>
<linearGradient id="paint23_linear_129_205" x1="33.9105" y1="42.8244" x2="6.11802" y2="43.9906" gradientUnits="userSpaceOnUse">
<stop stop-color="#444B8B"/>
<stop offset="0.99" stop-color="#26264F"/>
</linearGradient>
<linearGradient id="paint24_linear_129_205" x1="13.0054" y1="41.7493" x2="1.09445" y2="42.2473" gradientUnits="userSpaceOnUse">
<stop stop-color="#444B8B"/>
<stop offset="0.99" stop-color="#26264F"/>
</linearGradient>
<linearGradient id="paint25_linear_129_205" x1="33.4629" y1="29.3497" x2="9.67334" y2="30.3417" gradientUnits="userSpaceOnUse">
<stop stop-color="#444B8B"/>
<stop offset="0.99" stop-color="#26264F"/>
</linearGradient>
<linearGradient id="paint26_linear_129_205" x1="25.7355" y1="26.2155" x2="17.7206" y2="26.5518" gradientUnits="userSpaceOnUse">
<stop stop-color="#444B8B"/>
<stop offset="0.99" stop-color="#26264F"/>
</linearGradient>
<linearGradient id="paint27_linear_129_205" x1="31.6438" y1="38.9093" x2="45.3473" y2="30.7737" gradientUnits="userSpaceOnUse">
<stop stop-color="#CEDDFE"/>
<stop offset="1" stop-color="#7399EF"/>
</linearGradient>
</defs>
</svg>
