<svg width="69" height="131" viewBox="0 0 69 131" fill="none" xmlns="http://www.w3.org/2000/svg">
<path d="M9.16108 75.9713C9.48985 72.2639 10.7735 66.8076 12.4943 66.8076H12.5153C14.6803 66.8636 16.2017 71.8057 16.562 73.53L18.0939 73.2082C17.926 72.4038 16.3381 65.3387 12.5537 65.2407H12.4908C8.72388 65.2407 7.75505 74.0546 7.59766 75.8314L9.15759 75.9678L9.16108 75.9713Z" fill="url(#paint0_linear_124_3775)"/>
<path d="M23.7169 89.6742L5.81979 92.0315C4.11297 92.2554 2.53207 91.0452 2.30473 89.3349L0.814754 78.0307C0.590909 76.3239 1.80107 74.743 3.51139 74.5156L21.4085 72.1583C23.1153 71.9344 24.6962 73.1446 24.9236 74.8549L26.4136 86.1591C26.6374 87.8659 25.4272 89.4468 23.7169 89.6742Z" fill="url(#paint1_linear_124_3775)"/>
<path d="M34.1174 98.7192C34.9323 94.1163 33.8865 88.5727 33.8865 88.5727L40.4935 67.5382C40.4935 67.5382 35.2786 50.2007 30.27 57.8849C25.2615 65.5656 25.5798 89.9227 25.5798 89.9227C25.3734 101.738 24.2542 113.458 23.5547 118.246L28.3044 117.833C28.5562 112.563 33.3864 102.846 34.1174 98.7157V98.7192Z" fill="url(#paint2_linear_124_3775)"/>
<path d="M39.5913 60.4764L45.733 54.0723C47.0202 53.845 48.4402 54.3486 49.0138 55.5203C51.1683 59.9133 52.5918 61.3263 53.7005 84.5467C53.7705 85.9982 53.8894 87.1349 54.0118 87.9953C56.2538 91.7377 60.3949 97.4773 62.3186 109.673C64.2247 121.761 64.8298 123.947 65.0222 124.125C64.7144 124.923 63.5532 127.014 61.028 122.142C61.028 122.142 61.2413 120.208 55.0086 109.673C49.2306 99.9116 47.5168 95.8719 46.4396 91.0557C46.3661 90.9333 46.2927 90.8249 46.2192 90.699C38.3182 77.4781 39.5878 60.4764 39.5878 60.4764H39.5913Z" fill="url(#paint3_linear_124_3775)"/>
<path d="M65.0244 124.126C65.084 123.971 65.1156 123.863 65.1156 123.863C65.1156 123.863 65.1156 124.21 65.0244 124.126Z" fill="url(#paint4_linear_124_3775)"/>
<path d="M46.0999 46.5322C46.0999 46.5322 50.4439 49.9284 52.9342 56.8921C54.6865 61.7887 55.9491 84.9567 55.9491 84.9567C55.9491 84.9567 49.5975 88.5312 35.4603 87.0097C26.1287 86.0059 22.1904 84.0683 22.1904 84.0683C23.2117 70.3612 25.4082 57.5671 30.6861 46.854L46.0999 46.5322Z" fill="white"/>
<path d="M27.9023 127.008L30.5045 126.749L30.1618 122.73L27.5596 122.992L27.9023 127.008Z" fill="url(#paint5_linear_124_3775)"/>
<path d="M22.705 118.821C22.705 118.821 23.4046 116.32 23.4535 116.176C23.5654 115.841 23.8942 115.935 24.1111 116.044C24.2195 116.096 24.3139 116.173 24.4014 116.257C25.594 117.362 29.0322 117.443 29.0322 117.443C28.9727 118.111 28.8783 118.992 29.4029 119.915C30.2493 121.409 30.1864 122.699 30.1864 122.699C26.6783 124.473 25.8773 125.043 24.7196 126.403C24.5098 126.648 24.0726 126.953 23.6004 127.239C22.5651 127.869 17.2978 126.48 17.2978 126.48C16.9655 124.522 18.1022 123.878 19.3404 123.819C20.4981 123.763 21.4704 122.934 21.7082 121.801L22.705 118.821Z" fill="url(#paint6_linear_124_3775)"/>
<path d="M68.7553 128.035C68.7553 128.035 69.3009 126.573 67.0589 123.957C65.8733 122.576 65.1597 120.568 64.2259 119.641C64.1524 119.162 64.079 118.662 64.0055 118.13C63.0402 117.945 61.6447 118.522 60.0078 119.522C60.3191 120.257 60.5359 120.844 60.6863 121.292C60.6793 121.771 60.7458 122.722 61.2669 123.768C62.0154 125.265 63.1347 128.815 63.1347 128.815C63.1347 128.815 70.0459 134.191 68.7588 128.035H68.7553Z" fill="url(#paint7_linear_124_3775)"/>
<path opacity="0.85" d="M46.0999 46.5322C46.0999 46.5322 50.4439 49.9284 52.9342 56.8921C54.6865 61.7887 55.9491 84.9567 55.9491 84.9567C55.9491 84.9567 49.5975 88.5312 35.4603 87.0097C26.1287 86.0059 22.1904 84.0683 22.1904 84.0683C23.2117 70.3612 25.4082 57.5671 30.6861 46.854L46.0999 46.5322Z" fill="white"/>
<path opacity="0.8" d="M46.0999 46.5322C46.0999 46.5322 50.4439 49.9284 52.9342 56.8921C54.6865 61.7887 55.9491 84.9567 55.9491 84.9567C55.9491 84.9567 49.5975 88.5312 35.4603 87.0097C26.1287 86.0059 22.1904 84.0683 22.1904 84.0683C23.2117 70.3612 25.4082 57.5671 30.6861 46.854L46.0999 46.5322Z" fill="url(#paint8_linear_124_3775)"/>
<path d="M35.1487 4.10618C34.764 2.40286 36.0476 0.993336 37.7299 0.531655C40.6749 -0.276286 43.7562 0.594613 45.3931 3.12336C48.1317 7.35544 47.3028 13.1544 53.574 15.984C61.3596 19.499 54.3889 25.4239 54.3889 25.4239C53.6824 26.3263 52.7101 26.9629 53.0318 28.1171C53.3186 29.1489 54.3644 30.9956 53.3291 31.2649C49.4853 32.2687 44.127 27.9877 43.7702 23.7486C43.7702 23.7486 36.5372 16.9283 35.9392 11.4196L35.1452 4.10618H35.1487Z" fill="url(#paint9_linear_124_3775)"/>
<path d="M36.7124 9.69248C37.258 8.73764 42.0077 8.0696 40.6332 9.12937C38.8564 10.5004 39.437 14.6555 39.5104 16.5757C39.6364 19.7865 43.753 19.5522 46.0264 23.7528C49.0309 29.3034 41.8958 28.4325 41.8958 28.4325C40.8465 28.5095 39.7098 28.3451 39.3915 29.0236C39.1047 29.6287 39.0383 30.9578 38.0345 30.5975C34.32 29.2509 32.0291 24.788 33.8933 22.686C33.8933 22.686 31.3366 16.184 33.645 13.3964L36.7089 9.69248H36.7124Z" fill="url(#paint10_linear_124_3775)"/>
<path d="M35.4657 12.794C35.3922 12.8465 36.7843 21.7653 36.7843 21.7653C40.0545 21.2967 43.0904 20.6741 43.9718 18.6245C40.8799 15.3473 40.3903 10.3912 40.4148 10.3667C39.7537 8.48503 38.4246 11.8637 36.9032 13.1473L35.4657 12.7906V12.794Z" fill="url(#paint11_linear_124_3775)"/>
<path fill-rule="evenodd" clip-rule="evenodd" d="M9.85318 65.0565C10.1575 62.86 13.662 59.5164 13.662 59.5164L15.0996 62.0451L13.4924 66.7945C13.7573 67.2328 14.2292 68.1038 14.0576 68.4906C13.8233 69.0222 13.4945 68.5676 13.4945 68.5676C13.407 69.2356 12.8509 68.5431 12.8509 68.5431C12.5187 68.7599 12.1234 68.2773 12.1234 68.2773L10.2268 66.2148C9.94046 65.9436 9.78113 65.5699 9.85318 65.0565Z" fill="url(#paint12_linear_124_3775)"/>
<path d="M17.835 47.1406C18.3002 45.906 18.9682 44.7552 19.8111 43.7374L20.8674 42.4573C20.8674 42.4573 22.2559 35.5706 23.9977 29.6387C24.6343 27.1869 25.3548 24.9065 26.1242 23.3535C26.8168 21.9545 27.7331 21.1431 28.7055 20.6849C31.486 19.2509 34.8367 20.9612 34.8367 20.9612C37.3305 21.8356 36.2812 23.6963 35.3124 25.5185C33.5706 28.8098 27.7401 41.8173 27.254 42.9015L27.3309 42.912C27.3309 42.912 26.9077 44.1781 24.8826 48.3158C22.2734 53.6391 15.7294 62.0753 15.7294 62.0753L13.0293 59.8683L17.835 47.1371V47.1406Z" fill="url(#paint13_linear_124_3775)"/>
<path d="M31.5667 8.19262C31.9759 8.00375 32.2767 7.81139 32.5005 7.60853C33.4903 6.72365 33.0461 5.67787 33.8506 4.14593C34.5361 2.84483 36.166 1.91447 36.6591 1.65915C36.7046 1.63816 36.7536 1.61718 36.8025 1.59619C38.0512 4.56913 38.4184 8.385 38.4184 8.385C38.4184 8.385 39.3138 6.7866 40.5764 7.46863C41.4858 7.95829 41.6397 9.55318 40.6674 10.7948C39.9014 11.7706 38.978 11.2425 38.978 11.2425C38.978 11.2425 38.4394 13.3411 37.2502 13.6698C36.834 13.7853 36.159 13.8727 35.456 13.9392C34.1479 14.0651 32.9097 14.1105 32.9097 14.1105C31.9969 14.0861 31.759 13.6139 31.7206 13.2221C31.6961 12.9843 31.7485 12.743 31.8465 12.5261L32.0528 12.0714C32.0528 12.0714 31.9934 12.0959 31.6716 11.8091C30.9021 11.1236 32.8923 11.0851 32.8923 11.0851C32.3501 10.9103 31.2799 10.3751 31.6891 10.1233C32.0983 9.87147 31.9094 9.46925 31.9094 9.46925C30.8532 8.6753 31.5667 8.18913 31.5667 8.18913V8.19262Z" fill="url(#paint14_linear_124_3775)"/>
<path d="M36.3696 1.21722C36.3696 1.21722 33.7744 2.64424 36.3521 5.14851C37.7266 6.48459 38.1883 7.9151 38.3072 8.37328C38.3212 8.42575 38.3877 8.43273 38.4156 8.38726C38.594 8.08647 39.0907 7.37996 39.8147 7.31001C40.738 7.22257 38.587 0.846478 36.3661 1.21722H36.3696Z" fill="url(#paint15_linear_124_3775)"/>
<path d="M27.9606 28.7249C30.7552 24.2095 30.0067 20.3377 30.0067 20.3377L36.2918 18.6519C36.3408 21.3135 41.7865 20.663 44.0285 18.6519L50.0093 20.8344C50.0093 20.8344 50.7508 31.53 46.4033 45.209L46.148 46.8773H30.6852L30.5908 44.8907H30.6712L29.2477 36.0348C29.2477 36.0348 25.1625 33.2403 27.9571 28.7249H27.9606Z" fill="url(#paint16_linear_124_3775)"/>
<path fill-rule="evenodd" clip-rule="evenodd" d="M39.7128 53.8567C40.2864 53.7553 43.5112 53.2656 43.5112 53.2656V53.2691C43.5112 53.2691 43.7443 53.3744 43.9922 53.5621C44.0191 53.5515 44.0295 53.5403 44.0408 53.5393C44.0576 53.5377 44.0765 53.5584 44.1546 53.6364C44.1546 53.6364 45.0465 54.4444 45.029 54.7172V54.7242C45.001 55.1439 44.8821 56.0778 44.1581 56.7878C42.9165 58.0084 41.6608 59.4109 41.6608 59.4109C41.6608 59.4109 39.0901 61.8383 38.478 61.6354C37.866 61.4326 38.4885 60.9814 38.4885 60.9814C38.4885 60.9814 40.3649 59.4685 40.5405 59.0311C40.3338 59.1931 38.0564 60.9559 36.8552 60.9359C36.8552 60.9359 36.0682 60.6806 37.023 60.1769C37.9744 59.6768 39.8876 58.2253 39.8876 58.2253L39.7861 58.1308C39.7861 58.1308 36.3795 60.5547 35.6345 60.2119C34.893 59.8726 36.1591 59.1137 36.1591 59.1137C36.1591 59.1137 38.3136 58.1273 39.1391 57.3859L39.1671 57.2879C39.1671 57.2879 36.299 58.8898 35.624 58.8024C34.949 58.7149 34.956 58.4981 35.3197 58.3022C35.6835 58.1064 38.4186 56.5464 38.7334 56.1302C38.7749 56.0751 38.8522 55.9584 38.9489 55.8124C39.0181 55.708 39.0971 55.5886 39.1801 55.4662C38.7301 55.5274 38.2397 55.6249 37.95 55.7769C36.6909 56.4414 36.2222 55.4166 36.2222 55.4166C36.9238 55.3703 37.5927 54.9169 38.2601 54.4645C38.348 54.405 38.4358 54.3455 38.5236 54.2869C38.5236 54.2869 39.1427 53.9546 39.7128 53.8567ZM40.5516 58.9947C40.5541 58.9816 40.5543 58.9699 40.5521 58.9598C40.5337 58.8784 40.5449 58.9526 40.5516 58.9947Z" fill="url(#paint17_linear_124_3775)"/>
<path d="M46.8504 21.356C46.8504 21.356 50.6977 18.6839 53.5482 23.9092C59.4452 34.7133 59.9628 42.5548 59.9768 44.7688C59.9768 45.1081 59.6865 45.3739 59.3472 45.3354L54.8354 44.8353L46.616 31.3136C46.616 31.3136 42.5029 24.5493 46.8504 21.356Z" fill="url(#paint18_linear_124_3775)"/>
<path d="M43.3916 52.7968C43.3916 52.7968 48.8618 45.3889 53.8878 42.2376C58.9104 39.0897 59.0538 39.5759 59.0538 39.5759L59.9527 44.5635C60.0646 45.228 59.7358 45.8016 59.2112 46.2248L58.6515 46.732C55.871 49.2677 52.8526 51.5306 49.6418 53.4928L45.1719 56.2209L43.3951 52.7933L43.3916 52.7968Z" fill="url(#paint19_linear_124_3775)"/>
<defs>
<linearGradient id="paint0_linear_124_3775" x1="18.0939" y1="70.606" x2="7.59766" y2="70.606" gradientUnits="userSpaceOnUse">
<stop stop-color="#26264F"/>
<stop offset="0.25" stop-color="#2A2B57"/>
<stop offset="0.65" stop-color="#363A6E"/>
<stop offset="1" stop-color="#444B89"/>
</linearGradient>
<linearGradient id="paint1_linear_124_3775" x1="26.438" y1="82.0949" x2="0.790272" y2="82.0949" gradientUnits="userSpaceOnUse">
<stop stop-color="#26264F"/>
<stop offset="0.25" stop-color="#2A2B57"/>
<stop offset="0.65" stop-color="#363A6E"/>
<stop offset="1" stop-color="#444B89"/>
</linearGradient>
<linearGradient id="paint2_linear_124_3775" x1="23.5554" y1="87.0014" x2="40.5079" y2="87.0014" gradientUnits="userSpaceOnUse">
<stop stop-color="#E9B764"/>
<stop offset="1" stop-color="#D77A5C"/>
</linearGradient>
<linearGradient id="paint3_linear_124_3775" x1="39.5138" y1="89.546" x2="65.044" y2="89.546" gradientUnits="userSpaceOnUse">
<stop stop-color="#E9B764"/>
<stop offset="1" stop-color="#D77A5C"/>
</linearGradient>
<linearGradient id="paint4_linear_124_3775" x1="65.1121" y1="124" x2="65.0244" y2="124" gradientUnits="userSpaceOnUse">
<stop stop-color="#A8316D"/>
<stop offset="1" stop-color="#792D3D"/>
</linearGradient>
<linearGradient id="paint5_linear_124_3775" x1="30.5045" y1="124.87" x2="27.5561" y2="124.87" gradientUnits="userSpaceOnUse">
<stop stop-color="#26264F"/>
<stop offset="0.25" stop-color="#2A2B57"/>
<stop offset="0.65" stop-color="#363A6E"/>
<stop offset="1" stop-color="#444B89"/>
</linearGradient>
<linearGradient id="paint6_linear_124_3775" x1="30.1829" y1="121.671" x2="17.2348" y2="121.671" gradientUnits="userSpaceOnUse">
<stop stop-color="#26264F"/>
<stop offset="0.25" stop-color="#2A2B57"/>
<stop offset="0.65" stop-color="#363A6E"/>
<stop offset="1" stop-color="#444B89"/>
</linearGradient>
<linearGradient id="paint7_linear_124_3775" x1="68.9127" y1="124.541" x2="60.0043" y2="124.541" gradientUnits="userSpaceOnUse">
<stop stop-color="#26264F"/>
<stop offset="0.25" stop-color="#2A2B57"/>
<stop offset="0.65" stop-color="#363A6E"/>
<stop offset="1" stop-color="#444B89"/>
</linearGradient>
<linearGradient id="paint8_linear_124_3775" x1="22.1927" y1="66.9595" x2="55.9618" y2="66.9595" gradientUnits="userSpaceOnUse">
<stop stop-color="#9D0051"/>
<stop offset="0.1" stop-color="#9D0051"/>
<stop offset="0.91" stop-color="#301C90"/>
<stop offset="1" stop-color="#301C90"/>
</linearGradient>
<linearGradient id="paint9_linear_124_3775" x1="35.0676" y1="15.8247" x2="57.2465" y2="15.8247" gradientUnits="userSpaceOnUse">
<stop stop-color="#331809"/>
<stop offset="0.1" stop-color="#331809"/>
<stop offset="0.19" stop-color="#3D1C08"/>
<stop offset="0.66" stop-color="#6C3406"/>
<stop offset="0.9" stop-color="#7F3D06"/>
<stop offset="1" stop-color="#7F3D06"/>
</linearGradient>
<linearGradient id="paint10_linear_124_3775" x1="32.6718" y1="19.6228" x2="46.7569" y2="19.6228" gradientUnits="userSpaceOnUse">
<stop stop-color="#331809"/>
<stop offset="0.1" stop-color="#331809"/>
<stop offset="0.19" stop-color="#3D1C08"/>
<stop offset="0.66" stop-color="#6C3406"/>
<stop offset="0.9" stop-color="#7F3D06"/>
<stop offset="1" stop-color="#7F3D06"/>
</linearGradient>
<linearGradient id="paint11_linear_124_3775" x1="35.4633" y1="15.7715" x2="43.9791" y2="15.7715" gradientUnits="userSpaceOnUse">
<stop stop-color="#E9B764"/>
<stop offset="1" stop-color="#D77A5C"/>
</linearGradient>
<linearGradient id="paint12_linear_124_3775" x1="9.83617" y1="64.175" x2="15.1041" y2="64.175" gradientUnits="userSpaceOnUse">
<stop stop-color="#E9B764"/>
<stop offset="1" stop-color="#D77A5C"/>
</linearGradient>
<linearGradient id="paint13_linear_124_3775" x1="36.7518" y1="39.6973" x2="-5.78303" y2="38.5174" gradientUnits="userSpaceOnUse">
<stop stop-color="#CEDDFE"/>
<stop offset="1" stop-color="#7399EF"/>
</linearGradient>
<linearGradient id="paint14_linear_124_3775" x1="31.3315" y1="7.83693" x2="41.3391" y2="7.83693" gradientUnits="userSpaceOnUse">
<stop stop-color="#E9B764"/>
<stop offset="1" stop-color="#D77A5C"/>
</linearGradient>
<linearGradient id="paint15_linear_124_3775" x1="35.2082" y1="4.80917" x2="40.0315" y2="4.80917" gradientUnits="userSpaceOnUse">
<stop stop-color="#331809"/>
<stop offset="0.1" stop-color="#331809"/>
<stop offset="0.19" stop-color="#3D1C08"/>
<stop offset="0.66" stop-color="#6C3406"/>
<stop offset="0.9" stop-color="#7F3D06"/>
<stop offset="1" stop-color="#7F3D06"/>
</linearGradient>
<linearGradient id="paint16_linear_124_3775" x1="50.4231" y1="31.8254" x2="8.42579" y2="30.1137" gradientUnits="userSpaceOnUse">
<stop stop-color="#CEDDFE"/>
<stop offset="1" stop-color="#7399EF"/>
</linearGradient>
<linearGradient id="paint17_linear_124_3775" x1="35.0747" y1="57.4455" x2="45.0378" y2="57.4455" gradientUnits="userSpaceOnUse">
<stop stop-color="#E9B764"/>
<stop offset="1" stop-color="#D77A5C"/>
</linearGradient>
<linearGradient id="paint18_linear_124_3775" x1="60.2165" y1="32.1852" x2="32.6785" y2="31.3437" gradientUnits="userSpaceOnUse">
<stop stop-color="#CEDDFE"/>
<stop offset="1" stop-color="#7399EF"/>
</linearGradient>
<linearGradient id="paint19_linear_124_3775" x1="60.2373" y1="47.3301" x2="30.0836" y2="45.835" gradientUnits="userSpaceOnUse">
<stop stop-color="#CEDDFE"/>
<stop offset="1" stop-color="#7399EF"/>
</linearGradient>
</defs>
</svg>
