<svg width="48" height="48" viewBox="0 0 48 48" fill="none" xmlns="http://www.w3.org/2000/svg">
<mask id="mask0_10706_111" style="mask-type:alpha" maskUnits="userSpaceOnUse" x="0" y="0" width="48" height="48">
<rect width="48" height="48" fill="#D9D9D9"/>
</mask>
<g mask="url(#mask0_10706_111)">
<path d="M24 16C21.8 16 19.9167 16.7833 18.35 18.35C16.7833 19.9167 16 21.8 16 24C16 25.6793 16.4775 27.1973 17.4325 28.554C18.3878 29.9103 19.6475 30.8872 21.2115 31.4845C21.4628 31.5975 21.652 31.784 21.779 32.044C21.9057 32.3043 21.9165 32.5602 21.8115 32.8115C21.7065 33.0475 21.5423 33.2308 21.319 33.3615C21.096 33.4922 20.8667 33.505 20.631 33.4C18.6333 32.682 17.0288 31.4678 15.8175 29.7575C14.6058 28.0475 14 26.1283 14 24C14 21.2307 14.9743 18.8717 16.923 16.923C18.8717 14.9743 21.2307 14 24 14C26.1103 14 28.029 14.6058 29.756 15.8175C31.4827 17.0288 32.7012 18.6282 33.4115 20.6155C33.5088 20.8512 33.4877 21.087 33.348 21.323C33.2083 21.559 33.0205 21.7257 32.7845 21.823C32.5075 21.9283 32.2435 21.9155 31.9925 21.7845C31.7412 21.6538 31.559 21.45 31.446 21.173C30.8487 19.609 29.8718 18.3558 28.5155 17.4135C27.1592 16.4712 25.654 16 24 16ZM24 8C19.5333 8 15.75 9.55 12.65 12.65C9.55 15.75 8 19.5333 8 24C8 28.4563 9.49867 32.2102 12.496 35.2615C15.4937 38.3128 19.1912 39.8847 23.5885 39.977C23.8732 39.9923 24.1148 40.1013 24.3135 40.304C24.5122 40.5063 24.6077 40.7498 24.6 41.0345C24.5923 41.3192 24.493 41.5615 24.302 41.7615C24.111 41.9615 23.8732 42.0577 23.5885 42.05C21.0912 42.0117 18.7752 41.4898 16.6405 40.4845C14.5058 39.4795 12.6482 38.152 11.0675 36.502C9.4865 34.852 8.24667 32.9482 7.348 30.7905C6.44933 28.6328 6 26.3693 6 24C6 21.5153 6.47367 19.1782 7.421 16.9885C8.36867 14.7988 9.65267 12.8937 11.273 11.273C12.8937 9.65267 14.7988 8.36867 16.9885 7.421C19.1782 6.47367 21.5153 6 24 6C28.746 6 32.9133 7.67433 36.502 11.023C40.0903 14.3717 41.9397 18.5473 42.05 23.55C42.0653 23.827 41.9775 24.0673 41.7865 24.271C41.5955 24.475 41.3577 24.5808 41.073 24.5885C40.7883 24.5962 40.5365 24.4962 40.3175 24.2885C40.0982 24.0808 39.9808 23.8347 39.9655 23.55C39.8502 19.345 38.2367 15.702 35.125 12.621C32.0133 9.54033 28.305 8 24 8ZM38.4845 40.5385L29.923 31.95L28.8845 35.1155C28.7435 35.5052 28.4782 35.6982 28.0885 35.6945C27.6988 35.6905 27.4463 35.4937 27.331 35.104L24.4345 25.454C24.3525 25.1387 24.423 24.8693 24.646 24.646C24.8693 24.423 25.1387 24.3525 25.454 24.4345L35.104 27.331C35.4937 27.4463 35.6905 27.6988 35.6945 28.0885C35.6982 28.4782 35.5052 28.7435 35.1155 28.8845L31.95 29.923L40.55 38.4845C40.8347 38.7692 40.977 39.1115 40.977 39.5115C40.977 39.9115 40.8347 40.2538 40.55 40.5385C40.2653 40.8232 39.9212 40.9655 39.5175 40.9655C39.1135 40.9655 38.7692 40.8232 38.4845 40.5385Z" fill="url(#paint0_linear_10706_111)"/>
</g>
<defs>
<linearGradient id="paint0_linear_10706_111" x1="-9.63704" y1="23.9961" x2="50.2916" y2="23.8577" gradientUnits="userSpaceOnUse">
<stop offset="0.317708" stop-color="#E43425"/>
<stop offset="0.71875" stop-color="#441FD8"/>
<stop offset="1" stop-color="#0A26B8"/>
</linearGradient>
</defs>
</svg>
