<svg width="48" height="48" viewBox="0 0 48 48" fill="none" xmlns="http://www.w3.org/2000/svg">
<mask id="mask0_10706_124" style="mask-type:alpha" maskUnits="userSpaceOnUse" x="0" y="0" width="48" height="48">
<rect width="48" height="48" fill="#D9D9D9"/>
</mask>
<g mask="url(#mask0_10706_124)">
<path d="M10 28C8.87167 28 7.923 27.6153 7.154 26.846C6.38467 26.077 6 25.1283 6 24C6 22.8717 6.38467 21.923 7.154 21.154C7.923 20.3847 8.87167 20 10 20V15.231C10 14.3423 10.3163 13.5817 10.949 12.949C11.5817 12.3163 12.3423 12 13.231 12H20C20 10.8717 20.3847 9.923 21.154 9.154C21.923 8.38467 22.8717 8 24 8C25.1283 8 26.077 8.38467 26.846 9.154C27.6153 9.923 28 10.8717 28 12H34.769C35.6577 12 36.4183 12.3163 37.051 12.949C37.6837 13.5817 38 14.3423 38 15.231V20C39.1283 20 40.077 20.3847 40.846 21.154C41.6153 21.923 42 22.8717 42 24C42 25.1283 41.6153 26.077 40.846 26.846C40.077 27.6153 39.1283 28 38 28V36.769C38 37.6577 37.6837 38.4183 37.051 39.051C36.4183 39.6837 35.6577 40 34.769 40H13.231C12.3423 40 11.5817 39.6837 10.949 39.051C10.3163 38.4183 10 37.6577 10 36.769V28ZM17.9955 25C18.5498 25 19.0225 24.806 19.4135 24.418C19.8045 24.03 20 23.5588 20 23.0045C20 22.4502 19.806 21.9775 19.418 21.5865C19.03 21.1955 18.5588 21 18.0045 21C17.4502 21 16.9775 21.194 16.5865 21.582C16.1955 21.97 16 22.4412 16 22.9955C16 23.5498 16.194 24.0225 16.582 24.4135C16.97 24.8045 17.4412 25 17.9955 25ZM29.9955 25C30.5498 25 31.0225 24.806 31.4135 24.418C31.8045 24.03 32 23.5588 32 23.0045C32 22.4502 31.806 21.9775 31.418 21.5865C31.03 21.1955 30.5588 21 30.0045 21C29.4502 21 28.9775 21.194 28.5865 21.582C28.1955 21.97 28 22.4412 28 22.9955C28 23.5498 28.194 24.0225 28.582 24.4135C28.97 24.8045 29.4412 25 29.9955 25ZM18 33H30C30.2833 33 30.5208 32.904 30.7125 32.712C30.9042 32.52 31 32.2822 31 31.9985C31 31.7148 30.9042 31.4775 30.7125 31.2865C30.5208 31.0955 30.2833 31 30 31H18C17.7167 31 17.4792 31.096 17.2875 31.288C17.0958 31.48 17 31.7178 17 32.0015C17 32.2852 17.0958 32.5225 17.2875 32.7135C17.4792 32.9045 17.7167 33 18 33ZM13.231 38H34.769C35.128 38 35.423 37.8847 35.654 37.654C35.8847 37.423 36 37.128 36 36.769V15.231C36 14.872 35.8847 14.577 35.654 14.346C35.423 14.1153 35.128 14 34.769 14H13.231C12.872 14 12.577 14.1153 12.346 14.346C12.1153 14.577 12 14.872 12 15.231V36.769C12 37.128 12.1153 37.423 12.346 37.654C12.577 37.8847 12.872 38 13.231 38Z" fill="url(#paint0_linear_10706_124)"/>
</g>
<defs>
<linearGradient id="paint0_linear_10706_124" x1="-9.61461" y1="23.9741" x2="50.228" y2="23.8187" gradientUnits="userSpaceOnUse">
<stop offset="0.317708" stop-color="#E43425"/>
<stop offset="0.71875" stop-color="#441FD8"/>
<stop offset="1" stop-color="#0A26B8"/>
</linearGradient>
</defs>
</svg>
