<svg width="48" height="48" viewBox="0 0 48 48" fill="none" xmlns="http://www.w3.org/2000/svg">
<mask id="mask0_6359_1186" style="mask-type:alpha" maskUnits="userSpaceOnUse" x="0" y="0" width="48" height="48">
<rect width="48" height="48" fill="#D9D9D9"/>
</mask>
<g mask="url(#mask0_6359_1186)">
<path d="M34.923 40H14.846V18L27.3845 5.61548L28.269 6.49998C28.4513 6.68198 28.6047 6.91531 28.729 7.19998C28.8533 7.48465 28.9155 7.74615 28.9155 7.98448V8.29998L26.869 18H40.769C41.605 18 42.3525 18.3295 43.0115 18.9885C43.6705 19.6475 44 20.395 44 21.231V23.6925C44 23.8745 43.9795 24.0731 43.9385 24.2885C43.8975 24.5038 43.8437 24.7025 43.777 24.8845L38.3155 37.831C38.0412 38.4463 37.5797 38.9616 36.931 39.377C36.282 39.7923 35.6127 40 34.923 40ZM16.846 38H34.923C35.205 38 35.4935 37.923 35.7885 37.769C36.0835 37.6153 36.3078 37.359 36.4615 37L42 24V21.231C42 20.872 41.8847 20.577 41.654 20.346C41.423 20.1153 41.128 20 40.769 20H24.3845L26.7 9.07698L16.846 18.854V38ZM14.846 18V20H8V38H14.846V40H6V18H14.846Z" fill="url(#paint0_linear_6359_1186)"/>
</g>
<defs>
<linearGradient id="paint0_linear_6359_1186" x1="-10.4821" y1="22.78" x2="52.6851" y2="22.6188" gradientUnits="userSpaceOnUse">
<stop offset="0.317708" stop-color="#E43425"/>
<stop offset="0.71875" stop-color="#441FD8"/>
<stop offset="1" stop-color="#0A26B8"/>
</linearGradient>
</defs>
</svg>
