<svg width="48" height="48" viewBox="0 0 48 48" fill="none" xmlns="http://www.w3.org/2000/svg">
<mask id="mask0_6359_1175" style="mask-type:alpha" maskUnits="userSpaceOnUse" x="0" y="0" width="48" height="48">
<rect width="48" height="48" fill="#D9D9D9"/>
</mask>
<g mask="url(#mask0_6359_1175)">
<path d="M22.969 37.231H24.931V34.8845C26.3667 34.7642 27.7422 34.2488 29.0575 33.3385C30.3732 32.4282 31.031 31.0153 31.031 29.1C31.031 27.7 30.6053 26.5063 29.754 25.519C28.9027 24.532 27.277 23.6052 24.877 22.7385C22.6717 21.9692 21.2627 21.3088 20.65 20.7575C20.0373 20.2065 19.731 19.4207 19.731 18.4C19.731 17.3793 20.129 16.5293 20.925 15.85C21.721 15.1707 22.7793 14.831 24.1 14.831C25.1153 14.831 25.9615 15.0637 26.6385 15.529C27.3155 15.9943 27.8642 16.5847 28.2845 17.3L30.023 16.6155C29.5537 15.6538 28.8658 14.8487 27.9595 14.2C27.0532 13.5513 26.077 13.1898 25.031 13.1155V10.769H23.069V13.1155C21.3257 13.4052 20.0065 14.0552 19.1115 15.0655C18.2165 16.0758 17.769 17.1873 17.769 18.4C17.769 19.8383 18.221 20.9897 19.125 21.854C20.029 22.718 21.554 23.5385 23.7 24.3155C25.8513 25.1078 27.2968 25.8232 28.0365 26.4615C28.7762 27.0998 29.146 27.9793 29.146 29.1C29.146 30.5077 28.6327 31.5212 27.606 32.1405C26.579 32.7595 25.477 33.069 24.3 33.069C23.1487 33.069 22.1095 32.7338 21.1825 32.0635C20.2558 31.3928 19.5155 30.4383 18.9615 29.2L17.2 29.9615C17.7693 31.3308 18.5328 32.3982 19.4905 33.1635C20.4482 33.9288 21.6077 34.4692 22.969 34.7845V37.231ZM24 42C21.5153 42 19.1782 41.5263 16.9885 40.579C14.7988 39.6313 12.8937 38.3473 11.273 36.727C9.65267 35.1063 8.36867 33.2012 7.421 31.0115C6.47367 28.8218 6 26.4847 6 24C6 21.5153 6.47367 19.1782 7.421 16.9885C8.36867 14.7988 9.65267 12.8937 11.273 11.273C12.8937 9.65267 14.7988 8.36867 16.9885 7.421C19.1782 6.47367 21.5153 6 24 6C26.4847 6 28.8218 6.47367 31.0115 7.421C33.2012 8.36867 35.1063 9.65267 36.727 11.273C38.3473 12.8937 39.6313 14.7988 40.579 16.9885C41.5263 19.1782 42 21.5153 42 24C42 26.4847 41.5263 28.8218 40.579 31.0115C39.6313 33.2012 38.3473 35.1063 36.727 36.727C35.1063 38.3473 33.2012 39.6313 31.0115 40.579C28.8218 41.5263 26.4847 42 24 42ZM24 40C28.4667 40 32.25 38.45 35.35 35.35C38.45 32.25 40 28.4667 40 24C40 19.5333 38.45 15.75 35.35 12.65C32.25 9.55 28.4667 8 24 8C19.5333 8 15.75 9.55 12.65 12.65C9.55 15.75 8 19.5333 8 24C8 28.4667 9.55 32.25 12.65 35.35C15.75 38.45 19.5333 40 24 40Z" fill="url(#paint0_linear_6359_1175)"/>
</g>
<defs>
<linearGradient id="paint0_linear_6359_1175" x1="-9.61461" y1="23.9709" x2="50.228" y2="23.8327" gradientUnits="userSpaceOnUse">
<stop offset="0.317708" stop-color="#E43425"/>
<stop offset="0.71875" stop-color="#441FD8"/>
<stop offset="1" stop-color="#0A26B8"/>
</linearGradient>
</defs>
</svg>
