<svg width="48" height="48" viewBox="0 0 48 48" fill="none" xmlns="http://www.w3.org/2000/svg">
<mask id="mask0_6359_1401" style="mask-type:alpha" maskUnits="userSpaceOnUse" x="0" y="0" width="48" height="48">
<rect width="48" height="48" fill="#D9D9D9"/>
</mask>
<g mask="url(#mask0_6359_1401)">
<path d="M23.6925 36.5H25.6925V34.5H28.6925C28.9768 34.5 29.2147 34.4045 29.406 34.2135C29.597 34.0225 29.6925 33.7847 29.6925 33.5V27.5C29.6925 27.2153 29.597 26.9775 29.406 26.7865C29.2147 26.5955 28.9768 26.5 28.6925 26.5H21.6925V22.5H29.6925V20.5H25.6925V18.5H23.6925V20.5H20.6925C20.4078 20.5 20.17 20.5955 19.979 20.7865C19.788 20.9775 19.6925 21.2153 19.6925 21.5V27.5C19.6925 27.7847 19.788 28.0225 19.979 28.2135C20.17 28.4045 20.4078 28.5 20.6925 28.5H27.6925V32.5H19.6925V34.5H23.6925V36.5ZM13.231 42C12.3103 42 11.5417 41.6917 10.925 41.075C10.3083 40.4583 10 39.6897 10 38.769V9.231C10 8.31033 10.3083 7.54167 10.925 6.925C11.5417 6.30833 12.3103 6 13.231 6H29L38 15V38.769C38 39.6897 37.6917 40.4583 37.075 41.075C36.4583 41.6917 35.6897 42 34.769 42H13.231ZM28 15.5385V8H13.231C12.923 8 12.6408 8.12817 12.3845 8.3845C12.1282 8.64083 12 8.923 12 9.231V38.769C12 39.077 12.1282 39.3592 12.3845 39.6155C12.6408 39.8718 12.923 40 13.231 40H34.769C35.077 40 35.3592 39.8718 35.6155 39.6155C35.8718 39.3592 36 39.077 36 38.769V15.5385H28Z" fill="url(#paint0_linear_6359_1401)"/>
</g>
<defs>
<linearGradient id="paint0_linear_6359_1401" x1="-2.1447" y1="23.9709" x2="44.3997" y2="23.8873" gradientUnits="userSpaceOnUse">
<stop offset="0.317708" stop-color="#E43425"/>
<stop offset="0.71875" stop-color="#441FD8"/>
<stop offset="1" stop-color="#0A26B8"/>
</linearGradient>
</defs>
</svg>
