<svg xmlns="http://www.w3.org/2000/svg" viewBox="0 0 31.81 22.75"><title>about_stats_impressions</title><path d="M168.5,816.56a7.72,7.72,0,1,1-7.71-7.71A7.72,7.72,0,0,1,168.5,816.56Z" transform="translate(-144.83 -805.19)" style="fill:none;stroke:#9de2eb;stroke-linecap:round;stroke-linejoin:round"/><path d="M164.9,819.1a1.34,1.34,0,0,1-1.34,1.35H158a1.34,1.34,0,0,1-1.34-1.35v-3.27a1.35,1.35,0,0,1,1.34-1.35h5.55a1.35,1.35,0,0,1,1.34,1.35Z" transform="translate(-144.83 -805.19)" style="fill:none;stroke:#9de2eb;stroke-linecap:round;stroke-linejoin:round"/><polyline points="14.83 7.49 16.21 9.29 17.62 6.82" style="fill:none;stroke:#9de2eb;stroke-linecap:round;stroke-linejoin:round"/><path d="M176.14,816.56l-7.24-7.24h0a10.84,10.84,0,0,0-8.11-3.63h-.11a10.84,10.84,0,0,0-8.11,3.63h0l-7.24,7.24,7.24,7.25h0a10.88,10.88,0,0,0,8.11,3.63h.11a10.88,10.88,0,0,0,8.11-3.63h0Z" transform="translate(-144.83 -805.19)" style="fill:none;stroke:#9de2eb;stroke-linecap:round;stroke-linejoin:round"/></svg>