<svg xmlns="http://www.w3.org/2000/svg" viewBox="0 0 25.52 20.23"><title>about_stats_screens</title><path d="M255.64,602.44l3.25,1.79L255.64,606v-3.58m-.28-1.19a.71.71,0,0,0-.37.1.74.74,0,0,0-.35.62v4.52a.73.73,0,0,0,.35.62.71.71,0,0,0,.37.1.73.73,0,0,0,.35-.09l4.11-2.26a.72.72,0,0,0,0-1.26l-4.11-2.26a.73.73,0,0,0-.35-.09Z" transform="translate(-244.39 -595.58)" style="fill:#9de2eb"/><path d="M266.62,613.68h-16.7a.36.36,0,0,1-.37-.37.37.37,0,0,1,.37-.38h16.7a.38.38,0,0,1,.38.38A.37.37,0,0,1,266.62,613.68Z" transform="translate(-244.39 -595.58)" style="fill:#9de2eb"/><path d="M247,614.15a.38.38,0,0,1-.38-.38v-.93a.38.38,0,0,1,.38-.38.37.37,0,0,1,.37.38v.93A.37.37,0,0,1,247,614.15Z" transform="translate(-244.39 -595.58)" style="fill:#9de2eb"/><path d="M248,614.15a.38.38,0,0,1-.37-.38v-.93a.38.38,0,1,1,.75,0v.93A.38.38,0,0,1,248,614.15Z" transform="translate(-244.39 -595.58)" style="fill:#9de2eb"/><line x1="0.5" y1="15.73" x2="25.02" y2="15.73" style="fill:none;stroke:#9de2eb;stroke-miterlimit:10"/><rect x="0.5" y="0.5" width="24.52" height="19.23" rx="0.54" ry="0.54" style="fill:none;stroke:#9de2eb;stroke-miterlimit:10"/></svg>