<svg xmlns="http://www.w3.org/2000/svg" viewBox="0 0 34.42 21.99"><title>about_stats_ads</title><path d="M325.93,555.1h-2.31a2.19,2.19,0,0,0-2.18,2.19v3.5a2.19,2.19,0,0,0,2.18,2.19h2.31Z" transform="translate(-320.94 -548.61)" style="fill:none;stroke:#9de2eb;stroke-linecap:round;stroke-linejoin:round"/><polyline points="27.96 4.84 27.96 0.5 5 6.5 5 14.35 27.96 20.35 27.96 16.14" style="fill:none;stroke:#9de2eb;stroke-linecap:round;stroke-linejoin:round"/><path d="M340.8,566.66a2.73,2.73,0,0,1,0,.41,3.46,3.46,0,0,1-3.42,3h-5.07a3.46,3.46,0,0,1-3.45-3.45h0A3.43,3.43,0,0,1,330,564" transform="translate(-320.94 -548.61)" style="fill:none;stroke:#9de2eb;stroke-linecap:round;stroke-linejoin:round"/><path d="M353.64,563.94a9.8,9.8,0,0,0,.05-9.34" transform="translate(-320.94 -548.61)" style="fill:none;stroke:#9de2eb;stroke-linecap:round;stroke-linejoin:round"/><path d="M347.73,558a2.85,2.85,0,0,1,.27,1.2,3,3,0,0,1-.31,1.3" transform="translate(-320.94 -548.61)" style="fill:none;stroke:#9de2eb;stroke-linecap:round;stroke-linejoin:round"/><path d="M350.69,562.24a6.24,6.24,0,0,0,.77-3,6.32,6.32,0,0,0-.72-2.93" transform="translate(-320.94 -548.61)" style="fill:none;stroke:#9de2eb;stroke-linecap:round;stroke-linejoin:round"/><line x1="21.12" y1="4.1" x2="21.12" y2="6.71" style="fill:none;stroke:#9de2eb;stroke-linecap:round;stroke-linejoin:round"/><line x1="21.12" y1="13.53" x2="21.12" y2="16.14" style="fill:none;stroke:#9de2eb;stroke-linecap:round;stroke-linejoin:round"/><path d="M339.49,562.15h3.74a1.71,1.71,0,1,0,0-3.41h-1.82a1.71,1.71,0,0,1,0-3.42h3.24" transform="translate(-320.94 -548.61)" style="fill:none;stroke:#9de2eb;stroke-linecap:round;stroke-linejoin:round"/></svg>