<svg id="c49b8bcb-be02-4164-986d-7cb247425f78" data-name="Layer 1" xmlns="http://www.w3.org/2000/svg" viewBox="0 0 83.792 124.057"><defs><style>.\35 d61c915-fb62-458c-a871-2de5e1f5186c{fill:#caeaf3;}</style></defs><title>icon_approved_creatives</title><rect class="5d61c915-fb62-458c-a871-2de5e1f5186c" x="44.164" y="73.097" width="9.561" height="9.562" rx="1.586" ry="1.586"/><path class="5d61c915-fb62-458c-a871-2de5e1f5186c" d="M497.682,367.5a.1.1,0,0,1,.1.1v3.122a1.586,1.586,0,0,0,1.586,1.586h6.39a1.586,1.586,0,0,0,1.586-1.586v-3.122a.1.1,0,0,1,.1-.1h2.527l-.492-.284L481.55,351.1,458.7,337.9a3.379,3.379,0,0,0-5.079,2.932V367.5Z" transform="translate(-453.619 -337.443)"/><rect class="5d61c915-fb62-458c-a871-2de5e1f5186c" x="44.164" y="41.239" width="9.561" height="9.561" rx="1.586" ry="1.586"/><rect class="5d61c915-fb62-458c-a871-2de5e1f5186c" x="44.164" y="57.168" width="9.561" height="9.561" rx="1.586" ry="1.586"/><path class="5d61c915-fb62-458c-a871-2de5e1f5186c" d="M493.44,425.77V373.195a1.586,1.586,0,0,0-1.586-1.586H453.619V398.2c1.062-.9,2.357-2,2.616-2.2,2.279-2.624,5.7-8.787,5.96-9.267-.079-1.215-.4-6.333-.193-6.488a3.472,3.472,0,0,1,3.964-.346,17.75,17.75,0,0,1,2.519,6.745s-.547,6.323-1.4,8.291h14.837a2.613,2.613,0,0,1,2.452,2.86c0,6.111-4.393,15.535-4.869,16.849a3.353,3.353,0,0,1-2.945,2.544H457.814a6.827,6.827,0,0,1-3.167-1.022l-.061.089h-.967v11.1h38.235A1.586,1.586,0,0,0,493.44,425.77Z" transform="translate(-453.619 -337.443)"/><path class="5d61c915-fb62-458c-a871-2de5e1f5186c" d="M537.41,385.922a4.465,4.465,0,0,0-2.233-3.865l-23.946-13.826v62.48l23.946-13.825a4.467,4.467,0,0,0,2.233-3.866v-27.1Z" transform="translate(-453.619 -337.443)"/><path class="5d61c915-fb62-458c-a871-2de5e1f5186c" d="M507.445,431.333a.1.1,0,0,1-.1-.1v-3.177a1.586,1.586,0,0,0-1.586-1.586h-6.389a1.586,1.586,0,0,0-1.586,1.586v3.177a.1.1,0,0,1-.1.1H453.619V458.11a3.386,3.386,0,0,0,5.079,2.931l22.852-13.194,27.931-16.125.674-.389Z" transform="translate(-453.619 -337.443)"/></svg>