<svg id="00c800af-52a8-48a4-b3df-54ebd20036a1" data-name="Layer 1" xmlns="http://www.w3.org/2000/svg" viewBox="0 0 83.792 124.057"><defs><style>.\36 ba6e04d-7dbe-4a7f-809c-c449ec91c254{fill:#caeaf3;}</style></defs><title>icon_approved_brand</title><path class="6ba6e04d-7dbe-4a7f-809c-c449ec91c254" d="M347.91,382.922a4.465,4.465,0,0,0-2.233-3.865l-25.7-14.836L292.05,348.1,269.2,334.9a3.379,3.379,0,0,0-5.079,2.932V455.11a3.386,3.386,0,0,0,5.079,2.931l22.852-13.194,27.931-16.125,25.7-14.836a4.467,4.467,0,0,0,2.233-3.866v-27.1ZM317.129,369.35a5.509,5.509,0,1,1-5.508,5.507A5.5,5.5,0,0,1,317.129,369.35Zm-17.469-7a7.063,7.063,0,1,1-7.062,7.061A7.049,7.049,0,0,1,299.66,362.347Zm-17.469,7a5.509,5.509,0,1,1-5.509,5.507A5.5,5.5,0,0,1,282.191,369.35Zm5.788,46.658a2.987,2.987,0,0,1-5.787,1.042,2.987,2.987,0,0,1-5.786-1.042V400.7a2.172,2.172,0,0,1-1.007.255,2.2,2.2,0,0,1-2.2-2.2V385.828c0-2.163,3.908-3.421,8.994-3.421a25.277,25.277,0,0,1,3.779.267,4.671,4.671,0,0,0-.076.8v16.571a5.052,5.052,0,0,0,2.084,4.086Zm29.973,7.9a16.38,16.38,0,0,1-10.871-4.118v2.38a3.83,3.83,0,0,1-7.42,1.336,3.829,3.829,0,0,1-7.419-1.336V402.54a2.783,2.783,0,0,1-1.291.327,2.822,2.822,0,0,1-2.821-2.821V383.474c0-2.774,5.01-4.387,11.531-4.387s11.531,1.613,11.531,4.387v8.988a16.311,16.311,0,0,1,2.235-.821v-8.167a4.671,4.671,0,0,0-.076-.8,25.283,25.283,0,0,1,3.779-.267c5.086,0,8.994,1.258,8.994,3.421v7.358a16.446,16.446,0,0,1-8.173,30.72Z" transform="translate(-264.119 -334.443)"/><path class="6ba6e04d-7dbe-4a7f-809c-c449ec91c254" d="M317.951,394.2a13.259,13.259,0,1,0,13.257,13.259A13.274,13.274,0,0,0,317.951,394.2Zm-3.177,21.75-7.211-7.212,3.522-3.521s2.074,2.077,3.688,3.691l9.083-9.084,3.522,3.521Z" transform="translate(-264.119 -334.443)"/></svg>