<svg width="50" height="44" viewBox="0 0 50 44" fill="none" xmlns="http://www.w3.org/2000/svg">
<path d="M41.166 5.62114C41.5975 5.62114 41.9473 5.27135 41.9473 4.83987C41.9473 4.40838 41.5975 4.05859 41.166 4.05859C40.7346 4.05859 40.3848 4.40838 40.3848 4.83987C40.3848 5.27135 40.7346 5.62114 41.166 5.62114Z" fill="#00B486"/>
<path d="M38.0645 5.62114C38.496 5.62114 38.8458 5.27135 38.8458 4.83987C38.8458 4.40838 38.496 4.05859 38.0645 4.05859C37.633 4.05859 37.2832 4.40838 37.2832 4.83987C37.2832 5.27135 37.633 5.62114 38.0645 5.62114Z" fill="#00B486"/>
<path d="M34.9629 5.62114C35.3944 5.62114 35.7442 5.27135 35.7442 4.83987C35.7442 4.40838 35.3944 4.05859 34.9629 4.05859C34.5314 4.05859 34.1816 4.40838 34.1816 4.83987C34.1816 5.27135 34.5314 5.62114 34.9629 5.62114Z" fill="#00B486"/>
<path d="M46.0951 26.4344C45.8879 26.4344 45.6892 26.5167 45.5427 26.6632C45.3962 26.8098 45.3139 27.0085 45.3139 27.2157V41.0169C45.3057 41.3333 45.1732 41.6337 44.945 41.853C44.7169 42.0724 44.4115 42.193 44.0951 42.1888H2.78133C2.46488 42.193 2.15951 42.0724 1.93138 41.853C1.70325 41.6337 1.57074 41.3333 1.56255 41.0169V9.37531H45.3139V12.1098C45.3139 12.317 45.3962 12.5157 45.5427 12.6622C45.6892 12.8087 45.8879 12.891 46.0951 12.891C46.3023 12.891 46.5011 12.8087 46.6476 12.6622C46.7941 12.5157 46.8764 12.317 46.8764 12.1098V2.73448C46.8671 2.00401 46.5697 1.30678 46.0487 0.794629C45.5278 0.282474 44.8256 -0.00312409 44.0951 2.57809e-05H2.78133C2.05081 -0.00312409 1.34863 0.282474 0.827692 0.794629C0.306758 1.30678 0.00926651 2.00401 0 2.73448L0 41.0169C0.00926651 41.7474 0.306758 42.4446 0.827692 42.9567C1.34863 43.4689 2.05081 43.7545 2.78133 43.7513H44.0951C44.8256 43.7545 45.5278 43.4689 46.0487 42.9567C46.5697 42.4446 46.8671 41.7474 46.8764 41.0169V27.2157C46.8764 27.0085 46.7941 26.8098 46.6476 26.6632C46.5011 26.5167 46.3023 26.4344 46.0951 26.4344ZM2.78133 1.56257H44.0951C44.4115 1.55836 44.7169 1.67899 44.945 1.89835C45.1732 2.1177 45.3057 2.41811 45.3139 2.73448V7.81276H1.56255V2.73448C1.57074 2.41811 1.70325 2.1177 1.93138 1.89835C2.15951 1.67899 2.46488 1.55836 2.78133 1.56257Z" fill="#00B486"/>
<path d="M22.6568 31.251H5.46877C5.26157 31.251 5.06285 31.3333 4.91633 31.4798C4.76981 31.6263 4.6875 31.825 4.6875 32.0323C4.6875 32.2395 4.76981 32.4382 4.91633 32.5847C5.06285 32.7312 5.26157 32.8135 5.46877 32.8135H22.6568C22.864 32.8135 23.0627 32.7312 23.2092 32.5847C23.3558 32.4382 23.4381 32.2395 23.4381 32.0323C23.4381 31.825 23.3558 31.6263 23.2092 31.4798C23.0627 31.3333 22.864 31.251 22.6568 31.251Z" fill="#00B486"/>
<path d="M22.6568 35.9385H5.46877C5.26157 35.9385 5.06285 36.0208 4.91633 36.1673C4.76981 36.3138 4.6875 36.5125 4.6875 36.7198C4.6875 36.927 4.76981 37.1257 4.91633 37.2722C5.06285 37.4187 5.26157 37.501 5.46877 37.501H22.6568C22.864 37.501 23.0627 37.4187 23.2092 37.2722C23.3558 37.1257 23.4381 36.927 23.4381 36.7198C23.4381 36.5125 23.3558 36.3138 23.2092 36.1673C23.0627 36.0208 22.864 35.9385 22.6568 35.9385Z" fill="#00B486"/>
<path d="M37.5003 14.8443C37.5003 14.6371 37.418 14.4383 37.2715 14.2918C37.125 14.1453 36.9263 14.063 36.7191 14.063H27.3438C27.1366 14.063 26.9378 14.1453 26.7913 14.2918C26.6448 14.4383 26.5625 14.6371 26.5625 14.8443C26.5625 15.0515 26.6448 15.2502 26.7913 15.3967C26.9378 15.5432 27.1366 15.6255 27.3438 15.6255H36.7191C36.9263 15.6255 37.125 15.5432 37.2715 15.3967C37.418 15.2502 37.5003 15.0515 37.5003 14.8443Z" fill="#00B486"/>
<path d="M27.3438 18.7505C27.1366 18.7505 26.9378 18.8328 26.7913 18.9793C26.6448 19.1258 26.5625 19.3246 26.5625 19.5318C26.5625 19.739 26.6448 19.9377 26.7913 20.0842C26.9378 20.2307 27.1366 20.313 27.3438 20.313H33.594C33.8012 20.313 33.9999 20.2307 34.1464 20.0842C34.2929 19.9377 34.3752 19.739 34.3752 19.5318C34.3752 19.3246 34.2929 19.1258 34.1464 18.9793C33.9999 18.8328 33.8012 18.7505 33.594 18.7505H27.3438Z" fill="#00B486"/>
<path d="M45.0678 14.2736C44.9952 14.2009 44.909 14.1433 44.8142 14.104C44.7194 14.0647 44.6177 14.0444 44.515 14.0444C44.4123 14.0444 44.3107 14.0647 44.2158 14.104C44.121 14.1433 44.0348 14.2009 43.9623 14.2736L28.5829 29.6529C28.488 29.7484 28.4194 29.8669 28.3837 29.9967L26.5907 36.4969C26.5539 36.63 26.5531 36.7706 26.5884 36.9041C26.6236 37.0377 26.6937 37.1595 26.7913 37.2572C26.889 37.3549 27.0108 37.4249 27.1444 37.4601C27.2779 37.4954 27.4185 37.4946 27.5516 37.4579L34.0479 35.6648C34.1778 35.6292 34.2962 35.5605 34.3917 35.4656L49.771 20.0862C49.8437 20.0137 49.9013 19.9275 49.9406 19.8327C49.9799 19.7378 50.0002 19.6362 50.0002 19.5335C50.0002 19.4308 49.9799 19.3292 49.9406 19.2343C49.9013 19.1395 49.8437 19.0533 49.771 18.9807L45.0678 14.2736ZM28.9774 33.7038L30.3408 35.0672L28.4579 35.5867L28.9774 33.7038ZM33.4307 34.2117L32.0713 34.6023L29.454 31.985L29.8447 30.6256L41.4075 19.0432L45.0053 22.6566L33.4307 34.2117ZM46.0951 21.5394L42.4935 17.9377L44.5326 15.9299L48.1147 19.5315L46.0951 21.5394Z" fill="#00B486"/>
<path d="M23.4395 14.8443C23.4414 14.813 23.4414 14.7817 23.4395 14.7505C23.4395 14.731 23.4395 14.7075 23.4395 14.688C23.433 14.6616 23.4252 14.6355 23.416 14.6099C23.416 14.5864 23.416 14.563 23.3926 14.5396C23.3692 14.5161 23.3692 14.5005 23.3613 14.4771C23.3484 14.4516 23.334 14.4268 23.3184 14.4028L23.2793 14.3599L23.2246 14.2974L23.1621 14.2466L23.1035 14.2036L23.0332 14.1646L22.9668 14.1333L22.8887 14.1099H22.8184H22.7285H5.4194H5.32955H5.26314L5.18502 14.1333L5.12251 14.1646L5.0522 14.2036L4.9936 14.2466L4.9311 14.2974L4.87641 14.356L4.83735 14.3989C4.82168 14.4229 4.80733 14.4476 4.79438 14.4732C4.79438 14.4927 4.77094 14.5122 4.76313 14.5357C4.75532 14.5591 4.76313 14.5825 4.73969 14.606C4.73052 14.6316 4.7227 14.6577 4.71625 14.6841C4.71625 14.7036 4.71625 14.7271 4.71625 14.7466C4.70503 14.7785 4.6959 14.8111 4.68891 14.8443V27.3446C4.68703 27.3759 4.68703 27.4072 4.68891 27.4384C4.68891 27.4579 4.68891 27.4814 4.68891 27.5009C4.69535 27.5273 4.70318 27.5534 4.71235 27.579C4.71235 27.6025 4.71235 27.6259 4.73578 27.6493C4.75922 27.6728 4.75922 27.6884 4.76703 27.7118C4.77999 27.7373 4.79433 27.7621 4.81001 27.7861L4.83735 27.8134C4.86232 27.8454 4.88974 27.8755 4.91938 27.9032L4.97017 27.9423L5.06001 28.0009L5.1147 28.0283L5.22799 28.0712H5.27096C5.33465 28.0982 5.40164 28.1166 5.47018 28.1259H22.6582C22.7147 28.1255 22.7711 28.1189 22.8262 28.1064H22.8691L22.9824 28.0634L23.0371 28.0361L23.127 27.9775L23.1777 27.9384C23.2074 27.9106 23.2348 27.8806 23.2598 27.8486L23.2871 27.8212C23.3028 27.7973 23.3171 27.7725 23.3301 27.747C23.3301 27.7275 23.3535 27.7079 23.3613 27.6845C23.3692 27.6611 23.3613 27.6376 23.3848 27.6142C23.394 27.5886 23.4018 27.5625 23.4082 27.536C23.4082 27.5165 23.4082 27.497 23.4082 27.4735C23.4223 27.4315 23.4327 27.3884 23.4395 27.3446V14.8443ZM6.25145 16.3795L12.736 21.0944L6.25145 25.8094V16.3795ZM7.8726 15.6255H20.2558L14.0642 20.1296L7.8726 15.6255ZM14.0642 22.0593L20.2558 26.5634H7.8726L14.0642 22.0593ZM15.3924 21.0944L21.8769 16.3795V25.8094L15.3924 21.0944Z" fill="#00B486"/>
</svg>
