<svg width="26" height="26" viewBox="0 0 26 26" fill="none" xmlns="http://www.w3.org/2000/svg">
<rect width="26" height="26" rx="13" fill="#FF9965"/>
<path d="M13.8388 8.19573H15.7917L14.652 14.9141C14.572 15.5273 14.3676 16.076 14.0388 16.5604C13.71 17.0447 13.2878 17.4157 12.7724 17.6734C12.257 17.9311 11.6905 18.0533 11.0728 18.04C10.1575 18.0222 9.451 17.7512 8.95334 17.2269C8.45569 16.7025 8.22019 15.9694 8.24685 15.0274L10.213 15.0341C10.1464 15.9494 10.4685 16.4137 11.1795 16.4271C11.566 16.4404 11.8948 16.3115 12.1659 16.0405C12.4369 15.7694 12.6125 15.394 12.6924 14.9141L13.8388 8.19573Z" fill="white"/>
</svg>
