<svg width="48" height="43" viewBox="0 0 48 43" fill="none" xmlns="http://www.w3.org/2000/svg">
<path d="M47.1456 29.0299L45.204 28.7813C45.0977 28.4814 44.9648 28.1758 44.7918 27.8262L45.9838 26.3047C46.3014 25.914 46.2724 25.3504 45.9173 24.9918L43.5138 22.5881C43.3278 22.4042 43.0818 22.3032 42.821 22.3032C42.5961 22.3032 42.376 22.3815 42.2051 22.5198L40.6803 23.714C40.3287 23.5401 40.0224 23.4071 39.7252 23.3023L39.477 21.3592C39.4145 20.892 39.0282 20.5334 38.5582 20.5062L35.1552 20.5059C35.0951 20.5009 35.0343 20.5013 34.9746 20.5073L34.9466 20.5115C34.5245 20.5946 34.2078 20.9375 34.1592 21.361L33.9112 23.3026C33.6105 23.4086 33.3046 23.5412 32.9557 23.7143L31.4349 22.5225C31.2601 22.3808 31.0399 22.3028 30.815 22.3028C30.5531 22.3028 30.3078 22.4038 30.1206 22.589L27.7174 24.9922C27.3634 25.35 27.3353 25.9142 27.6491 26.3014L28.8435 27.8257C28.6692 28.1775 28.5366 28.4841 28.4314 28.7808L26.4883 29.0295C25.997 29.0955 25.6306 29.5185 25.6348 30.0113V33.4108L25.6355 33.428C25.6629 33.8985 26.0215 34.2848 26.4898 34.3473L28.4316 34.595C28.5379 34.8949 28.6701 35.201 28.8435 35.5506L27.6513 37.0717C27.3349 37.4624 27.3629 38.0268 27.7183 38.385L30.1215 40.7882C30.3072 40.9721 30.5531 41.0731 30.8148 41.0731C31.0395 41.0731 31.2596 40.9948 31.4302 40.8567L32.955 39.6621C33.3068 39.8364 33.6129 39.9681 33.9106 40.0738L34.1592 42.0169C34.2242 42.5033 34.6434 42.8706 35.1342 42.8706H38.5396L38.5573 42.8702C39.0278 42.8425 39.4136 42.4839 39.4762 42.0147L39.7243 40.0733C40.0251 39.9673 40.3312 39.8347 40.6797 39.6621L42.2005 40.8534C42.3755 40.9955 42.5956 41.0731 42.8208 41.0731C43.0816 41.0731 43.3275 40.9721 43.5147 40.7873L45.9177 38.3837C46.2718 38.0263 46.3005 37.4617 45.9865 37.0754L44.7914 35.5501C44.9666 35.1983 45.0983 34.8923 45.204 34.5946L47.1467 34.3473C47.6134 34.2843 47.9729 33.8976 47.9999 33.428L48.0006 30.0135C48.0048 29.5189 47.6388 29.096 47.1456 29.0299ZM45.9655 32.5058L44.3702 32.7001C43.9662 32.7398 43.6394 33.0302 43.5324 33.4251C43.3702 34.0501 43.1304 34.6492 42.8042 35.2021C42.5941 35.5495 42.6246 35.9972 42.8787 36.3229L43.9302 37.6058L42.7342 38.8026L41.4469 37.7485C41.2752 37.614 41.06 37.5406 40.8419 37.5406C40.6618 37.5406 40.4854 37.5903 40.3347 37.6814C39.7818 38.0078 39.1827 38.2559 38.5518 38.4203C38.16 38.5264 37.8698 38.8592 37.8309 39.2581L37.6358 40.8833H36.0011L35.8067 39.2634C35.7669 38.8594 35.4765 38.522 35.0818 38.4144C34.4573 38.2526 33.8584 38.0069 33.3051 37.6807C32.9643 37.4738 32.508 37.4995 32.1838 37.7519L30.9012 38.802L29.7045 37.6056L30.7586 36.3176C31.0086 35.9974 31.0344 35.5497 30.8267 35.2058C30.5001 34.6529 30.2519 34.0543 30.0875 33.4225C29.9812 33.0307 29.6484 32.7401 29.2502 32.7012L27.6239 32.506V30.8716L29.2431 30.6782C29.6477 30.6385 29.9852 30.3476 30.0932 29.9523C30.2546 29.3278 30.5007 28.7291 30.8267 28.1753C31.0366 27.8288 31.0094 27.3798 30.7555 27.054L29.7083 25.7752L30.9021 24.615L32.19 25.6293C32.3621 25.7635 32.5767 25.8368 32.795 25.8368C32.9747 25.8368 33.1508 25.788 33.3022 25.6965C33.8533 25.371 34.4524 25.1224 35.0851 24.9575C35.4765 24.851 35.7671 24.5414 35.8064 24.143L36.0011 22.5412H37.636L37.8302 24.137C37.8696 24.541 38.1597 24.8678 38.5553 24.9752C39.18 25.1365 39.7791 25.377 40.3325 25.7025C40.6728 25.9098 41.132 25.8782 41.4489 25.6318L42.7351 24.617L43.9295 25.7763L42.8778 27.06C42.6283 27.3807 42.602 27.8288 42.8109 28.1731C43.1368 28.7252 43.3854 29.3238 43.5494 29.9565C43.6557 30.3476 43.9658 30.638 44.3638 30.6769L45.9655 30.8716V32.5058Z" fill="#00B486"/>
<path d="M36.8168 25.9443C33.6501 25.9443 31.0742 28.5215 31.0742 31.6883C31.0742 34.8555 33.6501 37.4322 36.8168 37.4322C39.9849 37.4322 42.5612 34.8555 42.5612 31.6883C42.5612 28.5215 39.9849 25.9443 36.8168 25.9443ZM39.4897 34.36C38.779 35.0718 37.8303 35.4632 36.8168 35.4632C34.736 35.4632 33.0428 33.77 33.0428 31.6878C33.0428 29.607 34.736 27.9133 36.8168 27.9133C37.8303 27.9133 38.779 28.3045 39.4897 29.0156C40.201 29.7274 40.5922 30.6761 40.5922 31.6878C40.5922 32.7006 40.201 33.6493 39.4897 34.36Z" fill="#00B486"/>
<path d="M2.20988 35.4891V9.9617C2.20988 8.97499 3.01538 8.17678 4.00165 8.17678H39.9721C40.9586 8.17678 41.7667 8.97521 41.7667 9.9617V19.4472H43.9766V9.9617C43.9766 7.699 42.235 5.9669 39.9723 5.9669H30.7173V1.83906C30.7173 0.852572 29.9355 0 28.949 0H15.0252C14.0389 0 13.2595 0.852793 13.2595 1.83906V5.96668H4.00165C1.73918 5.96668 0 7.69878 0 9.96148V35.4889C0 37.7514 1.73918 39.5569 4.00165 39.5569H24.7507V37.126H4.00165C3.01538 37.1262 2.20988 36.4758 2.20988 35.4891ZM15.6901 2.43087H28.2865V5.96668H15.6901V2.43087Z" fill="#00B486"/>
</svg>
