<svg width="46" height="46" viewBox="0 0 46 46" fill="none" xmlns="http://www.w3.org/2000/svg">
<path d="M9.08052 40.0487C11.8509 41.6262 19.0917 45.5525 22.5315 45.5519C22.6096 45.5519 22.6863 45.5498 22.7602 45.5459C28.8177 45.2085 43.0997 35.2319 44.045 34.5668C44.9711 34.0327 45.545 33.0444 45.545 31.9784C45.545 30.9468 45.0216 30.0015 44.1451 29.45C43.2602 28.8942 42.1693 28.8324 41.2282 29.2845L32.4143 33.5118C32.371 31.8726 31.0166 30.5522 29.3575 30.5522L24.2957 30.5537C21.7957 28.3981 18.6032 27.0778 15.7006 27.0093C12.8457 26.9416 10.2827 26.9226 9.08052 26.9173V25.4819H0.454102V42.0214H9.08052V40.0487ZM9.08265 28.3718C10.2844 28.3772 12.8341 28.3964 15.6665 28.4631C18.3149 28.526 21.2574 29.782 23.5365 31.8228C23.67 31.9422 23.8426 32.0082 24.0216 32.0082L29.3575 32.0068C30.2417 32.0068 30.9612 32.7184 30.9612 33.5931C30.9612 33.9003 30.8724 34.1875 30.719 34.4308C30.7112 34.4422 30.7034 34.4539 30.6963 34.466C30.4094 34.8956 29.9165 35.1797 29.3575 35.1797H19.0478C18.6459 35.1797 18.3206 35.5054 18.3206 35.907C18.3206 36.3086 18.6459 36.6343 19.0478 36.6343H29.3575C30.3554 36.6343 31.2432 36.1563 31.8021 35.4191L41.8582 30.5959C42.3461 30.3601 42.9115 30.3928 43.3703 30.6815C43.8284 30.9692 44.0905 31.4418 44.0905 31.9784C44.0905 32.5317 43.7879 33.0444 43.3 33.3168C43.278 33.3292 43.2567 33.3427 43.2361 33.3573C43.0883 33.4613 28.4008 43.7749 22.6792 44.0934C19.7737 44.2486 12.2048 40.2014 9.08265 38.3722V28.3718ZM7.62598 40.5668H1.90865V26.9365H7.62598V40.5668Z" fill="#EE6A00"/>
<path d="M4.76696 38.7795C5.47248 38.7795 6.03977 38.2049 6.03977 37.4994C6.03977 36.8012 5.47248 36.2339 4.76696 36.2339C4.06876 36.2339 3.49414 36.8012 3.49414 37.4994C3.49414 38.2049 4.06876 38.7795 4.76696 38.7795Z" fill="#EE6A00"/>
<path d="M22.2725 24.959C29.0297 24.959 34.5275 19.4615 34.5275 12.7041C34.5275 5.9466 29.0297 0.44873 22.2725 0.44873C15.5154 0.44873 10.0176 5.9466 10.0176 12.7041C10.0176 19.4615 15.5154 24.959 22.2725 24.959ZM22.2725 1.90328C28.2278 1.90328 33.073 6.74845 33.073 12.7041C33.073 18.6593 28.2278 23.5045 22.2725 23.5045C16.3173 23.5045 11.4721 18.6593 11.4721 12.7041C11.4721 6.74845 16.3173 1.90328 22.2725 1.90328Z" fill="#EE6A00"/>
<path d="M22.272 4.12806C22.7109 4.12806 23.0675 3.77153 23.0675 3.33367C23.0675 2.89511 22.7109 2.53857 22.272 2.53857C21.8331 2.53857 21.4766 2.89511 21.4766 3.33367C21.4766 3.77153 21.8331 4.12806 22.272 4.12806Z" fill="#EE6A00"/>
<path d="M22.272 21.2803C21.8331 21.2803 21.4766 21.6368 21.4766 22.0754C21.4766 22.5132 21.8331 22.8694 22.272 22.8694C23.3242 22.8694 23.3242 21.2803 22.272 21.2803Z" fill="#EE6A00"/>
<path d="M16.2123 6.63624C16.5184 6.32622 16.517 5.82374 16.2059 5.51266C15.936 5.24525 15.3643 5.24348 15.0923 5.50946C14.7821 5.81095 14.7747 6.32597 15.0816 6.63695C15.3899 6.9501 15.9088 6.94449 16.2123 6.63624Z" fill="#EE6A00"/>
<path d="M29.4561 19.8952C29.7769 19.5788 29.7629 19.0749 29.4639 18.7712C29.1425 18.446 28.6298 18.4696 28.3325 18.7716C28.0285 19.0795 28.0285 19.5809 28.3325 19.8888C28.6343 20.1953 29.1473 20.2007 29.4561 19.8952Z" fill="#EE6A00"/>
<path d="M12.9019 11.9087C12.463 11.9087 12.1064 12.2652 12.1064 12.7038C12.1064 13.1424 12.463 13.4989 12.9019 13.4989C13.3394 13.4989 13.6959 13.1424 13.6959 12.7038C13.6959 12.2652 13.3394 11.9087 12.9019 11.9087Z" fill="#EE6A00"/>
<path d="M31.6431 13.4994C32.6926 13.4994 32.6941 11.9092 31.6431 11.9092C31.2042 11.9092 30.8477 12.2657 30.8477 12.7043C30.8477 13.1428 31.2042 13.4994 31.6431 13.4994Z" fill="#EE6A00"/>
<path d="M15.0796 18.7707C14.7757 19.0786 14.7757 19.58 15.0867 19.895C15.3951 20.2001 15.9094 20.1949 16.2117 19.8879C16.515 19.5804 16.515 19.0793 16.2039 18.7643C15.8861 18.4503 15.3816 18.464 15.0796 18.7707Z" fill="#EE6A00"/>
<path d="M29.4565 6.64365C29.7746 6.32928 29.7644 5.82551 29.4629 5.52007C29.1448 5.19739 28.6364 5.2152 28.3358 5.5158C28.0275 5.82369 28.0261 6.32653 28.3393 6.64365C28.6426 6.94372 29.1487 6.94661 29.4565 6.64365Z" fill="#EE6A00"/>
<path d="M18.2083 17.9244L21.6131 14.5194V18.5682C21.6131 18.9698 21.9384 19.2955 22.3404 19.2955C22.7424 19.2955 23.0676 18.9698 23.0676 18.5682V14.0626C23.6323 13.7415 23.9664 13.0804 23.7642 12.3681L24.4299 11.7024C24.714 11.4183 24.714 10.9581 24.4299 10.674C24.1458 10.3899 23.6855 10.3899 23.4015 10.674L23.0676 11.0078V6.14524C23.0676 5.74361 22.7424 5.41797 22.3404 5.41797C21.9384 5.41797 21.6131 5.74361 21.6131 6.14524V11.4793C21.0508 11.7982 20.7183 12.4562 20.9118 13.1638L17.1799 16.896C16.8958 17.18 16.8958 17.6403 17.1799 17.9244C17.4639 18.2084 17.9242 18.2085 18.2083 17.9244Z" fill="#EE6A00"/>
</svg>
