<svg width="24" height="44" viewBox="0 0 24 44" fill="none" xmlns="http://www.w3.org/2000/svg">
<path d="M14.554 11.7731C14.3467 11.583 14.0783 11.416 13.7491 11.2725C13.4193 11.1289 13.0219 10.9979 12.5572 10.8793L12.5063 10.8669V8.26766C12.8697 8.3267 13.1803 8.43902 13.438 8.60366C13.6958 8.7683 13.9175 8.97374 14.1038 9.21854L15.0422 8.44526C14.746 8.0651 14.3975 7.7651 13.9963 7.54526C13.5945 7.32542 13.1236 7.19006 12.5827 7.13966V6.03662H11.5051V7.13966C10.7361 7.22414 10.1275 7.4651 9.67913 7.86206C9.23129 8.2595 9.00713 8.79614 9.00713 9.47246C9.00713 10.1147 9.21017 10.6326 9.61577 11.0257C10.0214 11.4189 10.6809 11.7126 11.5938 11.907V14.7472C11.1882 14.6963 10.8311 14.5739 10.5225 14.3795C10.2139 14.1851 9.92873 13.9273 9.66665 13.6062L8.74121 14.4429C9.06233 14.823 9.44297 15.1446 9.88217 15.4062C10.3219 15.6683 10.8628 15.8248 11.5051 15.8752V16.9657H12.5827V15.8502C13.4025 15.7489 14.0342 15.4701 14.4782 15.0136C14.9217 14.5571 15.1439 13.9869 15.1439 13.3019C15.1439 12.9721 15.0974 12.6827 15.0043 12.4331C14.9111 12.1835 14.7614 11.9632 14.554 11.7731ZM11.5938 10.6638C11.1628 10.5457 10.8436 10.3955 10.6367 10.2136C10.4294 10.0317 10.3262 9.76334 10.3262 9.40862C10.3262 9.0875 10.4361 8.82974 10.6559 8.63534C10.8758 8.44094 11.1882 8.31422 11.5943 8.25518V10.6638H11.5938ZM13.4702 14.2773C13.2422 14.5139 12.9206 14.6661 12.5068 14.7337V12.0966C13.0055 12.2233 13.3478 12.3904 13.5335 12.5973C13.7193 12.8046 13.8124 13.0686 13.8124 13.3897C13.8124 13.7449 13.6982 14.0406 13.4702 14.2773Z" fill="#EF6A00"/>
<path d="M12.6798 26.486V22.9532C18.5881 22.5999 23.2873 17.6833 23.2873 11.6876C23.2873 5.46342 18.2238 0.399902 11.9996 0.399902C5.77543 0.399902 0.711914 5.46342 0.711914 11.6876C0.711914 17.6833 5.41111 22.5999 11.3194 22.9532V29.3871C11.2815 29.6482 11.2609 29.9146 11.2609 30.1863C11.2609 30.2305 11.2633 30.2737 11.2642 30.3178C10.189 29.0665 8.59687 28.2716 6.82135 28.2716H0.962954V34.1295C0.962954 37.3599 3.59096 39.9879 6.82135 39.9879C8.62663 39.9879 10.2438 39.1666 11.319 37.8783V43.5999H12.6798V34.1295V33.8861C13.6959 35.0185 15.1695 35.7322 16.8073 35.7322C19.8658 35.7322 22.3537 33.2439 22.3537 30.1858V24.6394H16.8073C15.1695 24.6394 13.6959 25.3532 12.6798 26.486ZM10.4415 36.7877L5.48695 31.8332L4.52455 32.7951L9.47959 37.7497C8.73415 38.2988 7.81639 38.6271 6.82183 38.6271C4.34167 38.6271 2.32423 36.6092 2.32423 34.1295V29.6319H6.82183C9.30199 29.6319 11.3194 31.6493 11.3194 34.1295C11.3194 35.1245 10.9906 36.0418 10.4415 36.7877ZM2.07223 11.6876C2.07223 6.21366 6.52567 1.76022 11.9996 1.76022C17.4735 1.76022 21.927 6.21366 21.927 11.6876C21.927 17.1615 17.4735 21.6149 11.9996 21.6149C6.52567 21.6149 2.07223 17.1615 2.07223 11.6876ZM20.9929 30.1858C20.9929 32.4937 19.1151 34.3714 16.8073 34.3714C15.8982 34.3714 15.0586 34.0772 14.3718 33.5833L18.9946 28.9604L18.0327 27.9985L13.4098 32.6213C12.9159 31.9345 12.6217 31.0945 12.6217 30.1858C12.6217 27.878 14.4994 26.0002 16.8073 26.0002H20.9929V30.1858Z" fill="#EF6A00"/>
</svg>
