<svg width="26" height="26" viewBox="0 0 26 26" fill="none" xmlns="http://www.w3.org/2000/svg">
<rect width="26" height="26" rx="13" fill="#E95737"/>
<path d="M13.6789 15.3073C13.7722 14.7786 13.5122 14.3742 12.899 14.0943L11.6127 13.5811C10.1197 12.9146 9.41101 11.997 9.48655 10.8284C9.51765 10.2863 9.69539 9.80644 10.0198 9.38877C10.3441 8.97109 10.7996 8.64451 11.3861 8.40901C11.9726 8.16907 12.6058 8.05354 13.2856 8.06243C14.2232 8.0802 14.9808 8.36013 15.5584 8.90222C16.136 9.43987 16.4204 10.1619 16.4115 11.0684H14.4653C14.4875 10.6285 14.3898 10.2863 14.1721 10.0419C13.9588 9.79756 13.6255 9.67092 13.1723 9.66204C12.728 9.65315 12.3414 9.75535 12.0126 9.96863C11.6838 10.1775 11.4883 10.4663 11.4261 10.8351C11.3417 11.3194 11.666 11.7038 12.3992 11.9881L13.279 12.3214L13.7855 12.5547C15.0963 13.2034 15.7095 14.1143 15.625 15.2873C15.5851 15.8605 15.4007 16.356 15.0719 16.7736C14.7475 17.1869 14.3031 17.5046 13.7388 17.7267C13.179 17.9489 12.5614 18.0533 11.886 18.04C11.1972 18.0267 10.5841 17.8823 10.0464 17.6068C9.50876 17.3313 9.09998 16.9425 8.82004 16.4404C8.55789 15.9738 8.43569 15.4406 8.45347 14.8408L10.4063 14.8474C10.3441 15.9005 10.8618 16.4359 11.9593 16.4537C12.4347 16.4537 12.8257 16.3493 13.1323 16.1405C13.4389 15.9316 13.6211 15.6539 13.6789 15.3073Z" fill="white"/>
</svg>
