<svg width="52" height="49" viewBox="0 0 52 49" fill="none" xmlns="http://www.w3.org/2000/svg">
<path d="M43.9376 8.12597L43.8884 8.02468C43.708 7.56883 43.265 7.28182 42.7892 7.28182C42.74 7.28182 42.6908 7.2987 42.6416 7.2987C42.6088 7.2987 42.576 7.28182 42.5431 7.28182H27.4169V-1.78442C27.4169 -2.45974 26.892 -3 26.2357 -3C25.5795 -3 25.0545 -2.45974 25.0545 -1.78442V7.26493H9.9283C9.84627 7.26493 9.76424 7.2987 9.69862 7.31559C9.68221 7.31559 9.68221 7.31559 9.66581 7.31559C9.17363 7.31559 8.74708 7.6026 8.56661 8.02468C8.43537 8.32857 0.970703 26.6636 0.970703 31.1883C0.970703 36.1182 4.8753 40.1364 9.66581 40.1364C14.4563 40.1364 18.3609 36.1182 18.3609 31.1883C18.3609 27.474 13.3571 14.5416 11.4376 9.6961H25.0545V40.8455L18.7054 46.8727C18.3445 47.2104 18.2297 47.7506 18.3937 48.2065C18.5742 48.6792 19.0007 48.9831 19.4929 48.9831H33.0113C33.6676 48.9831 34.1926 48.4429 34.1926 47.7675C34.1926 47.3286 33.9629 46.9234 33.6676 46.7545L27.4333 40.8455V9.71299H41.0338C38.9831 14.8792 34.0941 27.5416 34.0941 31.2558C34.0941 36.1857 37.9987 40.2039 42.8056 40.2039C47.6125 40.2039 51.5171 36.1857 51.5171 31.2558C51.5007 27.2208 45.7095 12.5325 43.9376 8.12597ZM48.9742 32.4714C48.4164 35.5273 45.8243 37.7727 42.7892 37.7727C39.7541 37.7727 37.162 35.5273 36.6042 32.4714H48.9742ZM48.9742 30.0234H36.6042C37.4081 25.6506 41.3291 15.4364 42.7892 11.7052C45.3485 18.2221 48.3016 26.4104 48.9742 30.0234ZM15.8344 32.4208C15.2766 35.4597 12.7009 37.7052 9.66581 37.7052C6.63072 37.7052 4.055 35.4597 3.4972 32.4208H15.8344ZM9.66581 11.7052C11.1259 15.4364 15.0305 25.6169 15.8344 29.9727H3.4972C4.15344 26.4273 7.00806 18.4922 9.66581 11.7052ZM26.2357 43.0403L29.9434 46.5519H22.5444L26.2357 43.0403Z" fill="#4CD9ED"/>
</svg>
