<svg width="26" height="26" viewBox="0 0 26 26" fill="none" xmlns="http://www.w3.org/2000/svg">
<rect width="26" height="26" rx="13" fill="#5427A3"/>
<path d="M6.06665 17.9V8.19573H9.46582C10.6433 8.19573 11.5364 8.42234 12.1452 8.87556C12.7539 9.32434 13.0583 9.98418 13.0583 10.8551C13.0583 11.3305 12.9361 11.7504 12.6917 12.1148C12.4473 12.4747 12.1074 12.7391 11.6719 12.9079C12.1696 13.0323 12.5606 13.2834 12.845 13.6611C13.1338 14.0387 13.2782 14.5009 13.2782 15.0474C13.2782 15.9805 12.9805 16.687 12.3851 17.1669C11.7897 17.6468 10.941 17.8911 9.83906 17.9H6.06665ZM8.06616 13.6744V16.2937H9.77908C10.2501 16.2937 10.6167 16.1827 10.8788 15.9605C11.1454 15.7339 11.2787 15.4229 11.2787 15.0274C11.2787 14.1387 10.8188 13.6877 9.89905 13.6744H8.06616ZM8.06616 12.2614H9.5458C10.5544 12.2436 11.0588 11.8415 11.0588 11.055C11.0588 10.6151 10.9299 10.2997 10.6722 10.1086C10.4189 9.91309 10.0168 9.81533 9.46582 9.81533H8.06616V12.2614ZM22.4027 14.6675C22.3271 15.7117 21.9406 16.5337 21.2429 17.1335C20.5498 17.7334 19.6344 18.0333 18.4969 18.0333C17.2528 18.0333 16.273 17.6156 15.5577 16.7803C14.8467 15.9405 14.4913 14.7897 14.4913 13.3278V12.7346C14.4913 11.8015 14.6557 10.9795 14.9845 10.2686C15.3133 9.55762 15.7821 9.01331 16.3908 8.63562C17.004 8.25349 17.7149 8.06243 18.5236 8.06243C19.6433 8.06243 20.5453 8.36235 21.2296 8.96221C21.9139 9.56206 22.3094 10.4041 22.416 11.4883H20.4165C20.3676 10.8617 20.1921 10.4085 19.8899 10.1286C19.5922 9.84421 19.1368 9.70203 18.5236 9.70203C17.8571 9.70203 17.3572 9.94197 17.024 10.4219C16.6952 10.8973 16.5263 11.6371 16.5174 12.6413V13.3745C16.5174 14.4231 16.6752 15.1896 16.9907 15.6739C17.3106 16.1582 17.8127 16.4004 18.4969 16.4004C19.1146 16.4004 19.5745 16.2604 19.8766 15.9805C20.1832 15.6961 20.3587 15.2584 20.4032 14.6675H22.4027Z" fill="white"/>
</svg>
