<svg width="26" height="26" viewBox="0 0 26 26" fill="none" xmlns="http://www.w3.org/2000/svg">
<rect width="26" height="26" rx="13" fill="#237EEF"/>
<path d="M6.06665 17.9V8.19573H9.46582C10.6433 8.19573 11.5364 8.42234 12.1452 8.87556C12.7539 9.32434 13.0583 9.98418 13.0583 10.8551C13.0583 11.3305 12.9361 11.7504 12.6917 12.1148C12.4473 12.4747 12.1074 12.7391 11.6719 12.9079C12.1696 13.0323 12.5606 13.2834 12.845 13.6611C13.1338 14.0387 13.2782 14.5009 13.2782 15.0474C13.2782 15.9805 12.9805 16.687 12.3851 17.1669C11.7897 17.6468 10.941 17.8911 9.83906 17.9H6.06665ZM8.06616 13.6744V16.2937H9.77908C10.2501 16.2937 10.6167 16.1827 10.8788 15.9605C11.1454 15.7339 11.2787 15.4229 11.2787 15.0274C11.2787 14.1387 10.8188 13.6877 9.89905 13.6744H8.06616ZM8.06616 12.2614H9.5458C10.5544 12.2436 11.0588 11.8415 11.0588 11.055C11.0588 10.6151 10.9299 10.2997 10.6722 10.1086C10.4189 9.91309 10.0168 9.81533 9.46582 9.81533H8.06616V12.2614ZM14.7845 17.9V8.19573H17.7705C18.6236 8.19573 19.3856 8.38901 20.0566 8.77559C20.732 9.15771 21.2585 9.70425 21.6362 10.4152C22.0139 11.1217 22.2027 11.9259 22.2027 12.8279V13.2745C22.2027 14.1765 22.0161 14.9785 21.6428 15.6806C21.274 16.3826 20.752 16.9269 20.0766 17.3135C19.4012 17.7001 18.6391 17.8956 17.7905 17.9H14.7845ZM16.784 9.81533V16.2937H17.7505C18.5325 16.2937 19.1301 16.0383 19.5434 15.5273C19.9566 15.0163 20.1677 14.2854 20.1765 13.3345V12.8213C20.1765 11.8348 19.9721 11.0884 19.5634 10.5818C19.1546 10.0708 18.5569 9.81533 17.7705 9.81533H16.784Z" fill="white"/>
</svg>
