<svg id="Layer_1" data-name="Layer 1" xmlns="http://www.w3.org/2000/svg" width="40.3" height="40.3" viewBox="0 0 40.3 40.3"><path d="M20.2,0A20.2,20.2,0,1,0,40.3,20.2h0A20.1,20.1,0,0,0,20.2,0Zm-.6,17.1v-.7a4.1,4.1,0,0,1,2.8-4.1,4.9,4.9,0,0,1,2.4-.1l1.2.7.7.4.8-.2,1.2-.5.5-.2a8.6,8.6,0,0,1-1,1.6c-.6.6-.5.7.7.2s.8-.2.6,0a5.2,5.2,0,0,1-1,1.1c-.8.8-.8.9-.8,1.6a15.1,15.1,0,0,1-1,4.2A12.8,12.8,0,0,1,22,26.7a12.3,12.3,0,0,1-9.2,1A13.9,13.9,0,0,1,10,26.5l1.2-.2a7.5,7.5,0,0,0,3.8-1l.8-.4-.9-.3a4.6,4.6,0,0,1-2.7-2.4c0-.3,0-.3.8-.3h.8l-.7-.3a4.7,4.7,0,0,1-1.9-1.8,4.5,4.5,0,0,1-.5-1.9h.6c1,.4,1.1.3.6-.3a4.3,4.3,0,0,1-.9-4.3l.2-.6,1,.9A11.3,11.3,0,0,0,18.9,17Z" transform="translate(0)" style="fill:#00b486;fill-rule:evenodd"/></svg>