<svg id="Layer_1" data-name="Layer 1" xmlns="http://www.w3.org/2000/svg" width="40.3" height="40.3" viewBox="0 0 40.3 40.3"><path d="M20.2,0A20.2,20.2,0,1,0,40.3,20.2,20.1,20.1,0,0,0,20.2,0ZM9.7,16.7h4.5V30.4H9.7Zm4.8-4.2a2.3,2.3,0,0,0-2.3-2.4H12a2.3,2.3,0,0,0-2.6,2.1,2.3,2.3,0,0,0,2.1,2.6h.4a2.4,2.4,0,0,0,2.6-2.1Zm11,3.9c3,0,5.2,2,5.2,6.2v7.8H26.1V23.1c0-1.9-.6-3.1-2.3-3.1a2.5,2.5,0,0,0-2.3,1.6,5,5,0,0,0-.2,1.2v7.6H16.8V16.7h4.5v1.9A4.7,4.7,0,0,1,25.5,16.4Z" transform="translate(0)" style="fill:#00b486;fill-rule:evenodd"/></svg>