<svg id="Layer_1" data-name="Layer 1" xmlns="http://www.w3.org/2000/svg" width="51.7" height="43.6" viewBox="0 0 51.7 43.6"><path d="M8.6,33.2a19.9,19.9,0,0,0,28,6.5,21.4,21.4,0,0,0,9.6-20.8L51,24" transform="translate(-0.1 -0.3)" style="fill:none;stroke:#ee6a00;stroke-linejoin:round;stroke-width:2px"/><path d="M41.2,23.7l5-4.8" transform="translate(-0.1 -0.3)" style="fill:none;stroke:#ee6a00;stroke-linejoin:round;stroke-width:2px"/><path d="M43.1,11.1a19.9,19.9,0,0,0-28-6.5A21.4,21.4,0,0,0,5.6,25.4L.8,20.3" transform="translate(-0.1 -0.3)" style="fill:none;stroke:#ee6a00;stroke-linejoin:round;stroke-width:2px"/><path d="M10.6,20.7l-5,4.8" transform="translate(-0.1 -0.3)" style="fill:none;stroke:#ee6a00;stroke-linejoin:round;stroke-width:2px"/><path d="M27.7,33.5H24l-.3-2.3a8.6,8.6,0,0,1-4.3-2.6l-2.2.8-1.8-3.1,1.8-1.5a10.9,10.9,0,0,1-.3-2.6,12.2,12.2,0,0,1,.3-2.6l-1.8-1.5L17.2,15l2.2.8a9.3,9.3,0,0,1,4.3-2.6l.3-2.3h3.6l.3,2.3a8.6,8.6,0,0,1,4.3,2.6l2.2-.8,1.8,3.1-1.8,1.5a10.9,10.9,0,0,1,.3,2.6,12.2,12.2,0,0,1-.3,2.6l1.8,1.5-1.8,3.1-2.2-.8a9.3,9.3,0,0,1-4.3,2.6Z" transform="translate(-0.1 -0.3)" style="fill:none;stroke:#ee6a00;stroke-linejoin:round;stroke-width:2px"/><path d="M25.8,17.5a4.7,4.7,0,0,0-4.6,4.7,4.6,4.6,0,1,0,9.2,0A4.7,4.7,0,0,0,25.8,17.5Z" transform="translate(-0.1 -0.3)" style="fill:none;stroke:#ee6a00;stroke-linejoin:round;stroke-width:2px"/></svg>