<svg width="26" height="26" viewBox="0 0 26 26" fill="none" xmlns="http://www.w3.org/2000/svg">
<rect width="26" height="26" rx="13" fill="#2F30FB"/>
<path d="M6.06665 17.9V8.19573H9.46582C10.6433 8.19573 11.5364 8.42234 12.1452 8.87556C12.7539 9.32434 13.0583 9.98418 13.0583 10.8551C13.0583 11.3305 12.9361 11.7504 12.6917 12.1148C12.4473 12.4747 12.1074 12.7391 11.6719 12.9079C12.1696 13.0323 12.5606 13.2834 12.845 13.6611C13.1338 14.0387 13.2782 14.5009 13.2782 15.0474C13.2782 15.9805 12.9805 16.687 12.3851 17.1669C11.7897 17.6468 10.941 17.8911 9.83906 17.9H6.06665ZM8.06616 13.6744V16.2937H9.77908C10.2501 16.2937 10.6167 16.1827 10.8788 15.9605C11.1454 15.7339 11.2787 15.4229 11.2787 15.0274C11.2787 14.1387 10.8188 13.6877 9.89905 13.6744H8.06616ZM8.06616 12.2614H9.5458C10.5544 12.2436 11.0588 11.8415 11.0588 11.055C11.0588 10.6151 10.9299 10.2997 10.6722 10.1086C10.4189 9.91309 10.0168 9.81533 9.46582 9.81533H8.06616V12.2614ZM16.784 14.4809V17.9H14.7845V8.19573H18.5703C19.299 8.19573 19.9388 8.32903 20.4898 8.59563C21.0452 8.86223 21.4718 9.24214 21.7695 9.73535C22.0672 10.2241 22.216 10.7818 22.216 11.4083C22.216 12.3592 21.8895 13.1101 21.2363 13.6611C20.5875 14.2076 19.6878 14.4809 18.5369 14.4809H16.784ZM16.784 12.8613H18.5703C19.099 12.8613 19.5011 12.7368 19.7766 12.488C20.0566 12.2392 20.1965 11.8837 20.1965 11.4216C20.1965 10.9462 20.0566 10.5618 19.7766 10.2686C19.4967 9.97529 19.1101 9.82422 18.6169 9.81533H16.784V12.8613Z" fill="white"/>
</svg>
