<svg id="Layer_1" data-name="Layer 1" xmlns="http://www.w3.org/2000/svg" viewBox="0 0 135.15 135.15"><defs><style>.cls-1{fill:#0500a9;}.cls-2{fill:#fff;}</style></defs><circle class="cls-1" cx="67.58" cy="67.58" r="67.58"/><path class="cls-2" d="M57.75,32.69a5.2,5.2,0,0,0-4.8-.33L38.47,39.1a4.94,4.94,0,0,0-5-4.67H25.12A24.06,24.06,0,0,0,11,28.85c-4.68-.1-8.91-.14-10.88-.15V26.45H-14V52.51H.11V49.4c2.12,1.16,6.33,3.39,10.65,5.26A58.19,58.19,0,0,0,17,57a18,18,0,0,0,5.2,1h.37A30.83,30.83,0,0,0,32,55.37a119.94,119.94,0,0,0,11.19-5.69c7.42-4.19,13.66-8.38,14.35-8.84a4.61,4.61,0,0,0,.17-8.07ZM-11.67,50.21V28.73h9.4V50.21ZM56.2,38.94c-.54.36-6.57,4.37-13.41,8.3-4.21,2.39-7.94,4.33-11.11,5.75a29.22,29.22,0,0,1-9.22,2.84,15,15,0,0,1-4.78-.9c-2.11-.73-4.17-1.55-6.2-2.48-5.19-2.31-10-4.94-11.3-5.69V31h0c2,0,6.16,0,10.83.15a21.31,21.31,0,0,1,12.93,5.29l.43.29h9.14a2.58,2.58,0,0,1,2.62,2.5,2.29,2.29,0,0,1-.36,1.27l-.21.21v.08a2.72,2.72,0,0,1-2.05.94h-17A1.15,1.15,0,0,0,16.22,44a.66.66,0,0,0,.28,0H33.44a5,5,0,0,0,4-1.9L53.78,34.6H54l.15-.17a2.69,2.69,0,0,1,2.33.2,2.36,2.36,0,0,1,1.19,2.06A5.07,5.07,0,0,1,56.2,38.94Z" transform="translate(44.58 45.08)"/><path class="cls-2" d="M-7,43.39a2,2,0,0,0-2,2,2,2,0,0,0,2,2,2,2,0,0,0,2-2A2,2,0,0,0-7,43.39Z" transform="translate(44.58 45.08)"/><path class="cls-2" d="M21.79,25.63A19.72,19.72,0,0,0,41.93,6.34v0A19.73,19.73,0,0,0,21.81-13h0A19.73,19.73,0,0,0,1.62,6.26v0A19.73,19.73,0,0,0,21.73,25.63Zm0-36.36a17.43,17.43,0,0,1,17.75,17,17.42,17.42,0,0,1-17.75,17A17.41,17.41,0,0,1,4,6.3,17.42,17.42,0,0,1,21.79-10.73Z" transform="translate(44.58 45.08)"/><path class="cls-2" d="M21.79-7.21A1.28,1.28,0,0,0,23.1-8.46h0a1.29,1.29,0,0,0-1.31-1.26,1.28,1.28,0,0,0-1.3,1.26h0a1.26,1.26,0,0,0,1.28,1.25Z" transform="translate(44.58 45.08)"/><path class="cls-2" d="M21.79,19.82A1.25,1.25,0,1,0,23,21.07,1.25,1.25,0,0,0,21.79,19.82Z" transform="translate(44.58 45.08)"/><path class="cls-2" d="M11.83-3.27A1.2,1.2,0,0,0,11.89-5L11.83-5A1.5,1.5,0,0,0,10-5a1.2,1.2,0,0,0-.06,1.71l.06.06A1.35,1.35,0,0,0,11.83-3.27Z" transform="translate(44.58 45.08)"/><path class="cls-2" d="M33.6,17.57a1.22,1.22,0,0,0,.06-1.72l-.06,0a1.33,1.33,0,0,0-1.85,0,1.22,1.22,0,0,0,0,1.74l0,0A1.36,1.36,0,0,0,33.6,17.57Z" transform="translate(44.58 45.08)"/><path class="cls-2" d="M6.39,5.05a1.25,1.25,0,0,0,0,2.5h0a1.25,1.25,0,0,0,0-2.5Z" transform="translate(44.58 45.08)"/><path class="cls-2" d="M37.19,7.55A1.25,1.25,0,1,0,35.94,6.3,1.25,1.25,0,0,0,37.19,7.55Z" transform="translate(44.58 45.08)"/><path class="cls-2" d="M10,15.93a1.23,1.23,0,0,0,0,1.74l0,0a1.34,1.34,0,0,0,1.84,0A1.22,1.22,0,0,0,11.87,16l-.06-.05A1.34,1.34,0,0,0,10,15.93Z" transform="translate(44.58 45.08)"/><path class="cls-2" d="M33.6-3.25A1.22,1.22,0,0,0,33.66-5L33.6-5a1.32,1.32,0,0,0-1.84,0,1.2,1.2,0,0,0-.05,1.71l.05.06A1.36,1.36,0,0,0,33.6-3.25Z" transform="translate(44.58 45.08)"/><path class="cls-2" d="M15.12,14.53l5.6-5.37v6.39a1.16,1.16,0,0,0,1.17,1.14h0a1.17,1.17,0,0,0,1.2-1.14h0V8.45a2.29,2.29,0,0,0,1.15-2.68l1.09-1a1.09,1.09,0,0,0,.11-1.53.57.57,0,0,0-.11-.11,1.22,1.22,0,0,0-1.65,0l-.54.52V-4A1.16,1.16,0,0,0,22-5.17h0a1.15,1.15,0,0,0-1.18,1.11V4.43A2.25,2.25,0,0,0,19.6,7.07L13.47,13a1.15,1.15,0,0,0,0,1.61l0,0A1.26,1.26,0,0,0,15.12,14.53Z" transform="translate(44.58 45.08)"/></svg>