<svg id="Layer_1" data-name="Layer 1" xmlns="http://www.w3.org/2000/svg" viewBox="0 0 135.15 135.15"><defs><style>.cls-1{fill:#0500a9;}.cls-2{fill:#fff;}</style></defs><circle class="cls-1" cx="67.58" cy="67.58" r="67.58"/><path class="cls-2" d="M53.24,49.84H50.9a.83.83,0,0,1,0-1.66h2.34a3.8,3.8,0,0,0,3.86-3.82V-6.31a3.81,3.81,0,0,0-3.86-3.83H-9.24A3.81,3.81,0,0,0-13.1-6.31V44.1a3.8,3.8,0,0,0,3.86,3.82H25.38a.83.83,0,1,1,0,1.66H-9.24a5.5,5.5,0,0,1-5.51-5.48V-6.31a5.5,5.5,0,0,1,5.51-5.48H53.24a5.5,5.5,0,0,1,5.51,5.48V44.36A5.5,5.5,0,0,1,53.24,49.84Z" transform="translate(45.58 45.08)"/><path class="cls-2" d="M43.58,61.53,36.88,50l-7.64,6.46V27.83L52.85,43.36,44.1,45.88,51,57ZM37.32,47.48l6.84,11.76,4.55-2.75L41.55,44.9l7.39-2.13L30.9,30.9v22Z" transform="translate(45.58 45.08)"/><path class="cls-2" d="M16.58,34.45l-4.21-4.18L8.16,34.45V17.59l1.48,2a3.41,3.41,0,0,0,2.73,1.22,3.77,3.77,0,0,0,2.8-1.31l1.41-1.4ZM9.81,21.81v8.67l2.56-2.54,2.55,2.54V21.75A5.33,5.33,0,0,1,9.81,21.81Z" transform="translate(45.58 45.08)"/><path class="cls-2" d="M12.37,22.44A5.48,5.48,0,1,1,17.88,17,5.51,5.51,0,0,1,12.37,22.44Zm0-9.31A3.83,3.83,0,1,0,16.22,17,3.85,3.85,0,0,0,12.37,13.13Z" transform="translate(45.58 45.08)"/><path class="cls-2" d="M30.33,39H4.56a3.43,3.43,0,0,1-3.43-3.41v-31A3.43,3.43,0,0,1,4.56,1.13H10V-2.48H40.27V35.31a.83.83,0,0,1-1.66,0V-.83h-27V2.79H4.56A1.77,1.77,0,0,0,2.78,4.55v31a1.78,1.78,0,0,0,1.78,1.76H30.33a.83.83,0,1,1,0,1.65Z" transform="translate(45.58 45.08)"/><path class="cls-2" d="M10.81,6.93A.83.83,0,0,1,10,6.1V.15a.83.83,0,0,1,.83-.83.83.83,0,0,1,.82.83V6.1A.83.83,0,0,1,10.81,6.93Z" transform="translate(45.58 45.08)"/><path class="cls-2" d="M22.52,39.5h-18a3.43,3.43,0,0,1-3.43-3.41v-31H2.78A1.63,1.63,0,0,0,4.56,6.82H19.92a3.43,3.43,0,0,1,3.43,3.41V18a.76.76,0,0,0,.27.71l.11.12a5.29,5.29,0,0,0,.59.71,3,3,0,0,1,.79,1.17A3.11,3.11,0,0,1,26,22.9V36.09A3.43,3.43,0,0,1,22.52,39.5ZM2.78,8V36.09a1.77,1.77,0,0,0,1.78,1.75h18a1.77,1.77,0,0,0,1.78-1.75V22.9a1.51,1.51,0,0,0-.54-1.22l-.25-.24v-.35l-.41-.44a8.65,8.65,0,0,1-.7-.84A2.3,2.3,0,0,1,21.69,18V10.23a1.77,1.77,0,0,0-1.77-1.75H4.56A3.67,3.67,0,0,1,2.78,8ZM25.17,21.09h0Z" transform="translate(45.58 45.08)"/><path class="cls-2" d="M30.69,19.19a5,5,0,0,1-4.81-3.58.83.83,0,0,1,1.61-.41,3.33,3.33,0,0,0,3.94,2.24,2.88,2.88,0,0,0,2.24-2.81,2.51,2.51,0,0,0-1.56-2.33L32,12.22a12.15,12.15,0,0,0-2-.85,9.41,9.41,0,0,1-1-.39,3.8,3.8,0,0,1-2.8-3.85c0-2.11,2.34-4.19,4.73-4.19a4.48,4.48,0,0,1,4.38,2.79.82.82,0,1,1-1.47.74A2.87,2.87,0,0,0,30.85,4.6c-1.59,0-3.08,1.43-3.08,2.53a2.23,2.23,0,0,0,1.78,2.32c.27.13.59.23,1,.37a13.71,13.71,0,0,1,2.29,1,4.19,4.19,0,0,1,2.52,3.84,4.53,4.53,0,0,1-3.49,4.42A4.94,4.94,0,0,1,30.69,19.19Z" transform="translate(45.58 45.08)"/><path class="cls-2" d="M30.59,21.14a.83.83,0,0,1-.83-.82V2.48a.83.83,0,0,1,1.66,0V20.32A.83.83,0,0,1,30.59,21.14Z" transform="translate(45.58 45.08)"/></svg>