<svg id="Layer_1" data-name="Layer 1" xmlns="http://www.w3.org/2000/svg" viewBox="0 0 135.15 135.15"><defs><style>.cls-1{fill:#0500a9;}.cls-2{fill:#fff;}</style></defs><circle class="cls-1" cx="67.58" cy="67.58" r="67.58"/><path class="cls-2" d="M32.45,48.8H-6.28A7.83,7.83,0,0,1-14.07,41V-4A7.83,7.83,0,0,1-6.28-11.8H46.28A7.83,7.83,0,0,1,54.07-4V19.13a1.51,1.51,0,1,1-3,0V-4a4.78,4.78,0,0,0-4.78-4.77H-6.28A4.77,4.77,0,0,0-11.06-4V40.76a4.78,4.78,0,0,0,4.78,4.77H32.45A1.63,1.63,0,0,1,34,47,1.66,1.66,0,0,1,32.45,48.8Z" transform="translate(47.58 49.08)"/><path class="cls-2" d="M7.3,41.26a1.63,1.63,0,0,1-1.51-1.51V9.57A1.63,1.63,0,0,1,7.3,8.06,1.62,1.62,0,0,1,8.81,9.57V39.75A1.45,1.45,0,0,1,7.3,41.26Z" transform="translate(47.58 49.08)"/><path class="cls-2" d="M19.88,41.26a1.62,1.62,0,0,1-1.51-1.51V9.57a1.62,1.62,0,0,1,1.51-1.51,1.62,1.62,0,0,1,1.5,1.51V39.75A1.44,1.44,0,0,1,19.88,41.26Z" transform="translate(47.58 49.08)"/><path class="cls-2" d="M32.45,41.26a1.62,1.62,0,0,1-1.51-1.51V9.57a1.51,1.51,0,1,1,3,0V39.75A1.45,1.45,0,0,1,32.45,41.26Z" transform="translate(47.58 49.08)"/><path class="cls-2" d="M45,21.14H-5.27a1.62,1.62,0,0,1-1.51-1.51,1.63,1.63,0,0,1,1.51-1.51H45a1.62,1.62,0,0,1,1.51,1.51A1.62,1.62,0,0,1,45,21.14Z" transform="translate(47.58 49.08)"/><path class="cls-2" d="M45,28.18H-5.27v3H45Z" transform="translate(47.58 49.08)"/><path class="cls-2" d="M43.26,41.26H-3.51A3.33,3.33,0,0,1-6.78,38V11.33A3.33,3.33,0,0,1-3.51,8.06H43.26a3.33,3.33,0,0,1,3.27,3.27V38A3.33,3.33,0,0,1,43.26,41.26ZM-3.51,11.08a.24.24,0,0,0-.25.25V38a.24.24,0,0,0,.25.25H43.26a.25.25,0,0,0,.26-.25V11.33a.25.25,0,0,0-.26-.25Z" transform="translate(47.58 49.08)"/></svg>