<svg id="Layer_1" data-name="Layer 1" xmlns="http://www.w3.org/2000/svg" viewBox="0 0 135.15 135.15"><defs><style>.cls-1{fill:#0500a9;}.cls-2{fill:#fff;}</style></defs><circle class="cls-1" cx="67.58" cy="67.58" r="67.58"/><path class="cls-2" d="M15.3,46.74H14.1V37.2L2.18,25.9a3,3,0,0,0-4,0l-.25.24A2.47,2.47,0,0,0-2.8,28,2.51,2.51,0,0,0-2,29.81l7.82,7.41L5,38.09l-7.82-7.41A3.73,3.73,0,0,1-4,28a3.71,3.71,0,0,1,1.13-2.7l.25-.24A4.24,4.24,0,0,1,3,25L15.3,36.68Z" transform="translate(47.58 47.08)"/><path class="cls-2" d="M1.67,46.74H.48V45.32l-8.9-8.43a14.11,14.11,0,0,1-4.73-10.71V8A4,4,0,0,1-9,4.06,3.92,3.92,0,0,1-5.14,8V22.59h-1.2V8A2.72,2.72,0,0,0-9,5.26,2.75,2.75,0,0,0-11.95,8V26.18A13,13,0,0,0-7.62,36l9.29,8.8Z" transform="translate(47.58 47.08)"/><path class="cls-2" d="M25.65,46.74h-1.2V36.68L36.75,25a4.24,4.24,0,0,1,5.62,0l.25.24a3.8,3.8,0,0,1,0,5.41L34.8,38.09,34,37.22l7.82-7.41A2.55,2.55,0,0,0,42.55,28a2.51,2.51,0,0,0-.76-1.83l-.25-.24a3,3,0,0,0-4,0L25.65,37.2Z" transform="translate(47.58 47.08)"/><path class="cls-2" d="M39.52,46.74H38.33V44.81L47.6,36A13,13,0,0,0,52,26.18V8a2.94,2.94,0,0,0-5.87,0V22.59H44.89V8a4.13,4.13,0,0,1,8.26,0V26.18A14.13,14.13,0,0,1,48.4,36.91l-8.88,8.41Z" transform="translate(47.58 47.08)"/><polygon class="cls-2" points="64.64 100.27 63.45 100.27 63.45 97.52 47.49 97.52 47.49 100.27 46.29 100.27 46.29 96.32 64.64 96.32 64.64 100.27"/><polygon class="cls-2" points="88.36 100.27 87.16 100.27 87.16 97.52 71.45 97.52 71.45 100.27 70.26 100.27 70.26 96.32 88.36 96.32 88.36 100.27"/><path class="cls-2" d="M19.74,2.39A7.49,7.49,0,0,1,12.08-4.9a7.68,7.68,0,0,1,7.66-7.29A7.68,7.68,0,0,1,27.41-4.9,7.68,7.68,0,0,1,19.74,2.39Zm0-13.38A6.44,6.44,0,0,0,13.28-4.9a6.29,6.29,0,0,0,6.46,6.09A6.45,6.45,0,0,0,26.21-4.9,6.45,6.45,0,0,0,19.74-11Z" transform="translate(47.58 47.08)"/><path class="cls-2" d="M20,29.65A2.74,2.74,0,0,1,17.82,29L2.46,16.36a.58.58,0,0,1-.22-.46V11.12A5.52,5.52,0,0,1,7.89,5.74h24a6.41,6.41,0,0,1,6.14,5s0,.08,0,.12v4.54a.58.58,0,0,1-.22.46L22.15,29a.57.57,0,0,1-.13.08A5.33,5.33,0,0,1,20,29.65Zm-16.56-14L18.61,28.11c.35.32.63.34,1.39.34a4.27,4.27,0,0,0,1.44-.39L36.81,15.14v-4.2a5.26,5.26,0,0,0-5-4h-24a4.32,4.32,0,0,0-4.45,4.18Z" transform="translate(47.58 47.08)"/></svg>