<?xml version="1.0" encoding="UTF-8"?> <svg xmlns="http://www.w3.org/2000/svg" viewBox="0 0 87.14 114.182"> <defs> <style>.cls-1{fill:#9de2eb;}.cls-1,.cls-2{fill-rule:evenodd;}.cls-2{fill:#fff;}</style> </defs> <title>Asset 1</title> <g id="Layer_2" data-name="Layer 2"> <g id="Layer_1-2" data-name="Layer 1"> <path class="cls-1" d="M43.57,0A43.576,43.576,0,0,1,60.664,83.657L55.045,93.69,43.57,114.182,32.1,93.69,26.476,83.657A43.576,43.576,0,0,1,43.57,0Z"></path> <path class="cls-2" d="M22.981,30.521H54.4V29.144a7.344,7.344,0,0,1,1.912-5.388,7.386,7.386,0,0,1,5.421-1.844h4.745v2.835H61.736A4.771,4.771,0,0,0,58.3,25.771a4.711,4.711,0,0,0-1.071,3.407l-.008,12.574v10.17H57.2a7.059,7.059,0,0,1-1.9,4.907,7.386,7.386,0,0,1-5.421,1.844H32.388V55.838H49.88a4.763,4.763,0,0,0,3.438-1.025,4.3,4.3,0,0,0,1.053-2.891H28.9L28.556,51l-6.9-18.565-.71-1.911Zm27.26,35.686a1.471,1.471,0,0,0,1.04-2.512V63.69a1.473,1.473,0,1,0-1.04,2.517Zm3.045,1.573a4.308,4.308,0,1,1,0-6.086l0,0a4.3,4.3,0,0,1,0,6.089ZM40.02,66.207a1.471,1.471,0,0,0,1.041-.431l0,0a1.481,1.481,0,0,0,0-2.084l0,0a1.473,1.473,0,1,0-1.044,2.514Zm3.044,1.573a4.307,4.307,0,1,1-.005-6.089h.005a4.3,4.3,0,0,1,0,6.084v0Zm11.32-34.424H25.015l5.844,15.731H54.384V33.356Z"></path> </g> </g> </svg> 