<?xml version="1.0" encoding="UTF-8"?> <svg xmlns="http://www.w3.org/2000/svg" viewBox="0 0 87.14 114.182"> <defs> <style>.cls-1{fill:#9de2eb;}.cls-1,.cls-2{fill-rule:evenodd;}.cls-2{fill:#fff;}</style> </defs> <title>Asset 1</title> <g id="Layer_2" data-name="Layer 2"> <g id="Layer_1-2" data-name="Layer 1"> <path class="cls-1" d="M43.57,0A43.577,43.577,0,0,1,60.664,83.658L55.045,93.69,43.57,114.182,32.1,93.69,26.476,83.658A43.577,43.577,0,0,1,43.57,0Z"></path> <path class="cls-2" d="M69.924,44.422v-.038h0A2.7,2.7,0,0,0,68.5,42.351a9.641,9.641,0,0,0-5.261-1.25h-.384L50.5,41.343l-.766.015-.43-.635L39.159,25.768l-1.711-.279,3.427,15.126.356,1.57-1.607.147-10.96,1-.593.054-.448-.381-4.887-4.15H21.79l1.76,5.107.158.46-.158.459-1.76,5.108h.946l4.887-4.15.448-.381.593.054,10.96,1,1.607.147-.356,1.569L37.448,63.355l1.711-.278L49.3,48.121l.43-.635.766.015,12.355.243h.384a9.641,9.641,0,0,0,5.261-1.25,2.7,2.7,0,0,0,1.427-2.033h0v-.038Zm2.823-.083v.177a5.422,5.422,0,0,1-2.7,4.347,12.4,12.4,0,0,1-6.811,1.714l-.44-.01-11.589-.228L41.152,65.166l-.342.506-.6.1-4.377.712-2.068.337.463-2.042,3.534-15.6-8.76-.8-4.837,4.107-.4.337H17.816l.647-1.876,2.248-6.525L18.463,37.9l-.647-1.876h5.953l.4.337L29,40.465l8.76-.8-3.534-15.6-.463-2.042,2.068.337,4.377.713.6.1.342.506L51.207,38.505,62.8,38.277l.44-.01a12.394,12.394,0,0,1,6.811,1.714,5.421,5.421,0,0,1,2.7,4.347Z"></path> </g> </g> </svg> 