<?xml version="1.0" encoding="UTF-8"?> <svg xmlns="http://www.w3.org/2000/svg" viewBox="0 0 87.14 114.182"> <defs> <style>.cls-1,.cls-5{fill:#9de2eb;}.cls-1,.cls-3,.cls-4,.cls-5{fill-rule:evenodd;}.cls-2,.cls-3,.cls-4{fill:none;}.cls-2,.cls-3,.cls-4,.cls-5{stroke:#fff;stroke-miterlimit:10;stroke-width:2.5px;}.cls-4{stroke-linecap:round;}.cls-5{stroke-linecap:square;}</style> </defs> <title>Asset 1</title> <g id="Layer_2" data-name="Layer 2"> <g id="Layer_1-2" data-name="Layer 1"> <path class="cls-1" d="M43.57,0A43.576,43.576,0,0,1,60.664,83.657L55.045,93.69,43.57,114.182,32.1,93.69,26.476,83.657A43.576,43.576,0,0,1,43.57,0Z"></path> <rect class="cls-2" x="21.164" y="24.758" width="45.355" height="31.43"></rect> <path class="cls-3" d="M66.534,30.88c-3.539,0-3.705,3.7-7.415,3.7s-4.135-3.7-7.716-3.7-4,3.7-7.561,3.7-4.072-3.7-7.564-3.7-3.959,3.7-7.564,3.7-3.967-3.7-7.565-3.7"></path> <path class="cls-4" d="M60.131,56.187A17.682,17.682,0,0,1,61.7,49.143"></path> <path class="cls-4" d="M27.553,56.187a17.7,17.7,0,0,0-1.569-7.044"></path> <path class="cls-4" d="M66.057,44.786a15.655,15.655,0,0,1-12.848-8.167"></path> <path class="cls-4" d="M21.626,44.786a15.658,15.658,0,0,0,12.849-8.167"></path> <path class="cls-5" d="M27.834,66.2V64.461A3.976,3.976,0,0,1,31.8,60.5h.089a3.977,3.977,0,0,1,3.965,3.965V66.2"></path> <path class="cls-5" d="M39.833,66.2V64.461A3.976,3.976,0,0,1,43.8,60.5h.088a3.976,3.976,0,0,1,3.965,3.965V66.2"></path> <path class="cls-5" d="M51.831,66.2V64.461A3.976,3.976,0,0,1,55.8,60.5h.089a3.977,3.977,0,0,1,3.965,3.965V66.2"></path> </g> </g> </svg> 