<?xml version="1.0" encoding="UTF-8"?> <svg xmlns="http://www.w3.org/2000/svg" viewBox="0 0 87.141 114.181"> <defs> <style>.cls-1{fill:#9de2eb;}.cls-1,.cls-2{fill-rule:evenodd;}.cls-2{fill:#fff;}</style> </defs> <title>Asset 1</title> <g id="Layer_2" data-name="Layer 2"> <g id="Layer_1-2" data-name="Layer 1"> <path class="cls-1" d="M43.57,0a43.576,43.576,0,0,1,17.1,83.657L55.046,93.69,43.57,114.181,32.1,93.69l-5.62-10.033A43.576,43.576,0,0,1,43.57,0Z"></path> <path class="cls-2" d="M44.987,47.384V58.718H53.78V22.4H33.36v36.32h8.793V47.384ZM40.8,27.828v4.684h5.535V27.828h2.835v12.2H46.338V35.347H40.8v4.684H37.968v-12.2Zm15.812,5.208h11V61.553H19.524V33.036h11V19.563H56.615V33.036ZM30.526,35.871H22.359V58.718h8.167V35.871ZM56.615,58.718h8.166V35.871H56.615Z"></path> </g> </g> </svg> 