<?xml version="1.0" encoding="UTF-8"?> <svg xmlns="http://www.w3.org/2000/svg" viewBox="0 0 87.14 114.182"> <defs> <style>.cls-1{fill:#9de2eb;}.cls-1,.cls-2{fill-rule:evenodd;}.cls-2{fill:#fff;}</style> </defs> <title>Asset 1</title> <g id="Layer_2" data-name="Layer 2"> <g id="Layer_1-2" data-name="Layer 1"> <path class="cls-1" d="M43.57,0A43.577,43.577,0,0,1,60.664,83.658L55.045,93.69,43.57,114.182,32.1,93.69l-5.62-10.032A43.577,43.577,0,0,1,43.57,0Z"></path> <path class="cls-2" d="M22.077,61.506l.006-.72c.073-9.157.179-22.218,1.465-30.344a15.63,15.63,0,0,1,4.677-9.375A13.645,13.645,0,0,1,37.708,17.7V17.69H49.433V17.7a13.639,13.639,0,0,1,9.481,3.371,15.628,15.628,0,0,1,4.678,9.375c1.286,8.126,1.392,21.187,1.466,30.344l0,.72.012,1.429H53.29l3.445,5.96-2.446,1.417-4.265-7.377H37.115l-4.264,7.377L30.4,68.9l3.446-5.96H22.064l.013-1.429Zm7.087-7.49-.06,1.473H58.035l-.059-1.473c-.074-1.861-.171-3.649-.3-5.256-.133-1.655-.3-3.223-.528-4.633h0A11.9,11.9,0,0,0,54.033,37.3,10.059,10.059,0,0,0,46.6,34.65v0H40.54v0A10.067,10.067,0,0,0,33.106,37.3a11.9,11.9,0,0,0-3.115,6.824v.006c-.224,1.413-.395,2.979-.527,4.627-.129,1.607-.226,3.4-.3,5.256Zm3.123-5.034c-.1,1.206-.174,2.437-.234,3.672H55.088c-.062-1.235-.138-2.466-.235-3.672-.13-1.639-.294-3.139-.5-4.412v-.005a9.191,9.191,0,0,0-2.306-5.246A7.386,7.386,0,0,0,46.6,37.474v.005H40.54v-.005a7.384,7.384,0,0,0-5.451,1.845,9.206,9.206,0,0,0-2.308,5.251h0c-.2,1.267-.362,2.768-.493,4.412ZM43.57,23.017a4.641,4.641,0,0,0-3.285,7.925l.005.006a4.644,4.644,0,1,0,3.28-7.931Zm1.28,3.365a1.813,1.813,0,0,0-2.567,2.562l.006.005a1.813,1.813,0,0,0,2.561-2.567Zm-18.511,4.5c-1.223,7.725-1.354,20.2-1.427,29.215H62.228c-.073-9.019-.2-21.49-1.426-29.215a12.883,12.883,0,0,0-3.782-7.726,10.91,10.91,0,0,0-7.587-2.64v.005H37.708v-.005a10.914,10.914,0,0,0-7.589,2.64A12.881,12.881,0,0,0,26.339,30.885Z"></path> </g> </g> </svg> 