<svg width="68" height="71" viewBox="0 0 68 71" fill="none" xmlns="http://www.w3.org/2000/svg">
<path d="M1.54545 1.87057V68.3839H66.4545V1.87057H1.54545ZM1.54545 0.248291H66.4545C67.3081 0.248291 68 0.974609 68 1.87057V68.3839C68 69.2799 67.3081 70.0062 66.4545 70.0062H1.54545C0.691923 70.0062 0 69.2799 0 68.3839V1.87057C0 0.974609 0.691923 0.248291 1.54545 0.248291Z" fill="#040DAE"/>
<path d="M0.38623 9.1709H67.7271V7.54871H0.38623V9.1709Z" fill="#040DAE"/>
<path d="M12.7499 5.92639C13.3901 5.92639 13.909 5.38164 13.909 4.70966C13.909 4.03767 13.3901 3.49292 12.7499 3.49292C12.1098 3.49292 11.5908 4.03767 11.5908 4.70966C11.5908 5.38164 12.1098 5.92639 12.7499 5.92639Z" fill="#040DAE"/>
<path d="M5.02286 5.92639C5.663 5.92639 6.18195 5.38164 6.18195 4.70966C6.18195 4.03767 5.663 3.49292 5.02286 3.49292C4.38271 3.49292 3.86377 4.03767 3.86377 4.70966C3.86377 5.38164 4.38271 5.92639 5.02286 5.92639Z" fill="#040DAE"/>
<path d="M8.88617 5.92639C9.52633 5.92639 10.0453 5.38164 10.0453 4.70966C10.0453 4.03767 9.52633 3.49292 8.88617 3.49292C8.24601 3.49292 7.72705 4.03767 7.72705 4.70966C7.72705 5.38164 8.24601 5.92639 8.88617 5.92639Z" fill="#040DAE"/>
<path d="M12.3639 54.5946C14.9245 54.5946 17.0003 52.4157 17.0003 49.7278C17.0003 47.0399 14.9245 44.861 12.3639 44.861C9.80332 44.861 7.72754 47.0399 7.72754 49.7278C7.72754 52.4157 9.80332 54.5946 12.3639 54.5946Z" stroke="#00B4F6" stroke-width="2"/>
<path d="M27.0455 42.4276C29.6061 42.4276 31.6819 40.2487 31.6819 37.5609C31.6819 34.873 29.6061 32.6941 27.0455 32.6941C24.4849 32.6941 22.4092 34.873 22.4092 37.5609C22.4092 40.2487 24.4849 42.4276 27.0455 42.4276Z" stroke="#00B4F6" stroke-width="2"/>
<path d="M41.7277 49.7278C44.2882 49.7278 46.364 47.5489 46.364 44.861C46.364 42.1732 44.2882 39.9943 41.7277 39.9943C39.1671 39.9943 37.0913 42.1732 37.0913 44.861C37.0913 47.5489 39.1671 49.7278 41.7277 49.7278Z" stroke="#00B4F6" stroke-width="2"/>
<path d="M55.6368 33.5051C58.1974 33.5051 60.2732 31.3261 60.2732 28.6382C60.2732 25.9503 58.1974 23.7714 55.6368 23.7714C53.0763 23.7714 51.0005 25.9503 51.0005 28.6382C51.0005 31.3261 53.0763 33.5051 55.6368 33.5051Z" stroke="#00B4F6" stroke-width="2"/>
<path d="M17.0005 46.4834L22.4095 41.6165" stroke="black" stroke-width="2" stroke-linecap="square"/>
<path d="M17.0005 46.4834L22.4095 41.6165" stroke="#00B4F6" stroke-width="2" stroke-linecap="square"/>
<path d="M32.4551 39.9943L36.3187 42.4276" stroke="#00B4F6" stroke-width="2" stroke-linecap="square"/>
<path d="M45.5913 41.6165L51.7732 33.5051" stroke="#00B4F6" stroke-width="2" stroke-linecap="square"/>
</svg>
