<svg width="68" height="69" viewBox="0 0 68 69" fill="none" xmlns="http://www.w3.org/2000/svg">
<path d="M39.6666 46.6455H20.3999V49.0249H39.6666V46.6455Z" fill="#00B4F6"/>
<path d="M43.0666 41.8867H28.3333V44.2661H43.0666V41.8867Z" fill="#00B4F6"/>
<path d="M66.8667 58.5421H65.7333V39.5074C66.0339 39.5074 66.3222 39.382 66.5347 39.1589C66.7473 38.9358 66.8667 38.6332 66.8667 38.3177V24.0417C66.8667 23.7262 66.7473 23.4236 66.5347 23.2005C66.3222 22.9773 66.0339 22.852 65.7333 22.852V15.714C65.7333 14.4519 65.2557 13.2415 64.4055 12.3491C63.5554 11.4567 62.4023 10.9553 61.2 10.9553H53.2667V5.00697C53.2667 3.74489 52.789 2.5345 51.9389 1.64208C51.0887 0.74965 49.9356 0.248291 48.7333 0.248291H19.2667C18.0644 0.248291 16.9113 0.74965 16.0611 1.64208C15.211 2.5345 14.7333 3.74489 14.7333 5.00697V10.9553H6.8C5.59769 10.9553 4.44461 11.4567 3.59445 12.3491C2.74428 13.2415 2.26667 14.4519 2.26667 15.714V24.9696C1.91036 25.3005 1.62506 25.707 1.42966 26.1623C1.23426 26.6176 1.13322 27.1113 1.13322 27.6107C1.13322 28.1101 1.23426 28.6037 1.42966 29.059C1.62506 29.5143 1.91036 29.9209 2.26667 30.2518V58.5421H1.13333C0.832755 58.5421 0.544487 58.6674 0.331946 58.8905C0.119404 59.1136 0 59.4162 0 59.7318V63.3008C0 64.5629 0.477618 65.7732 1.32778 66.6657C2.17795 67.5581 3.33102 68.0594 4.53333 68.0594H63.4667C64.669 68.0594 65.8221 67.5581 66.6722 66.6657C67.5224 65.7732 68 64.5629 68 63.3008V59.7318C68 59.4162 67.8806 59.1136 67.6681 58.8905C67.4555 58.6674 67.1672 58.5421 66.8667 58.5421ZM53.2667 19.283H57.8V22.852H53.2667V19.283ZM64.6 25.2313V37.128H55.5333C55.2328 37.1281 54.9446 37.2535 54.7321 37.4766L52.1333 40.2045L49.5346 37.4766C49.3221 37.2535 49.0339 37.1281 48.7333 37.128H41.9333V25.2313H64.6ZM61.2 13.3347C61.8012 13.3347 62.3777 13.5853 62.8028 14.0315C63.2279 14.4778 63.4667 15.083 63.4667 15.714V22.852H60.0667V18.0933C60.0667 17.7778 59.9473 17.4752 59.7347 17.2521C59.5222 17.029 59.2339 16.9037 58.9333 16.9037H53.2667V13.3347H61.2ZM19.2667 2.62763H48.7333C49.3345 2.62763 49.911 2.87831 50.3361 3.32452C50.7612 3.77073 51 4.37593 51 5.00697V9.76565H17V5.00697C17 4.37593 17.2388 3.77073 17.6639 3.32452C18.089 2.87831 18.6655 2.62763 19.2667 2.62763ZM3.4 27.6107C3.4 27.2952 3.5194 26.9926 3.73195 26.7695C3.94449 26.5464 4.23275 26.421 4.53333 26.421H5.66667V28.8004H4.53333C4.23275 28.8004 3.94449 28.675 3.73195 28.4519C3.5194 28.2288 3.4 27.9262 3.4 27.6107ZM7.93333 25.2313V24.0417H14.7333V31.1797H7.93333V25.2313ZM10.2 21.6623V19.283H14.7333V21.6623H10.2ZM10.2 33.559H12.4667V39.5074C12.4667 39.8229 12.3473 40.1255 12.1347 40.3486C11.9222 40.5717 11.6339 40.697 11.3333 40.697C11.0328 40.697 10.7445 40.5717 10.5319 40.3486C10.3194 40.1255 10.2 39.8229 10.2 39.5074V33.559ZM17 23.7811L28.3333 20.807V34.4144L17 31.4402V23.7811ZM4.53333 15.714C4.53333 15.083 4.77214 14.4778 5.19722 14.0315C5.62231 13.5853 6.19884 13.3347 6.8 13.3347H14.7333V16.9037H9.06667C8.76609 16.9037 8.47782 17.029 8.26528 17.2521C8.05274 17.4752 7.93333 17.7778 7.93333 18.0933V21.6623H6.8C6.49942 21.6623 6.21115 21.7877 5.99861 22.0108C5.78607 22.2339 5.66667 22.5365 5.66667 22.852V24.0417H4.53333V15.714ZM4.53333 31.1797H5.66667V32.3694C5.66667 32.6849 5.78607 32.9875 5.99861 33.2106C6.21115 33.4337 6.49942 33.559 6.8 33.559H7.93333V39.5074C7.93333 40.4539 8.29155 41.3617 8.92917 42.031C9.56679 42.7004 10.4316 43.0764 11.3333 43.0764C12.2351 43.0764 13.0999 42.7004 13.7375 42.031C14.3751 41.3617 14.7333 40.4539 14.7333 39.5074V33.559H15.7284L29.1913 37.0924C29.3584 37.1363 29.5328 37.1397 29.7014 37.1022C29.8699 37.0648 30.0281 36.9875 30.1639 36.8762C30.2997 36.765 30.4096 36.6227 30.4852 36.4602C30.5607 36.2977 30.6 36.1192 30.6 35.9384V19.283C30.6 19.1022 30.5607 18.9237 30.4852 18.7612C30.4096 18.5987 30.2997 18.4564 30.1639 18.3451C30.0281 18.2339 29.8699 18.1566 29.7014 18.1192C29.5328 18.0817 29.3584 18.0851 29.1913 18.129L17 21.3292V12.145H51V22.852H40.8C40.4994 22.852 40.2112 22.9773 39.9986 23.2005C39.7861 23.4236 39.6667 23.7262 39.6667 24.0417V38.3177C39.6667 38.6332 39.7861 38.9358 39.9986 39.1589C40.2112 39.382 40.4994 39.5074 40.8 39.5074H48.2641L51.3321 42.7278C51.5446 42.9508 51.8328 43.0761 52.1333 43.0761C52.4339 43.0761 52.7221 42.9508 52.9346 42.7278L56.0025 39.5074H63.4667V58.5421H44.2C43.8994 58.5422 43.6112 58.6675 43.3987 58.8907L41.4641 60.9214H26.5359L24.6013 58.8907C24.3888 58.6675 24.1006 58.5422 23.8 58.5421H4.53333V31.1797ZM65.7333 63.3008C65.7333 63.9318 65.4945 64.537 65.0694 64.9832C64.6444 65.4294 64.0678 65.6801 63.4667 65.6801H4.53333C3.93218 65.6801 3.35564 65.4294 2.93056 64.9832C2.50548 64.537 2.26667 63.9318 2.26667 63.3008V60.9214H23.3308L25.2654 62.9522C25.4779 63.1753 25.7661 63.3007 26.0667 63.3008H41.9333C42.2339 63.3007 42.5221 63.1753 42.7346 62.9522L44.6692 60.9214H65.7333V63.3008Z" fill="#0541C7"/>
<path d="M35.1334 56.1628H32.8667V58.5421H35.1334V56.1628Z" fill="#00B4F6"/>
<path d="M58.9333 53.7836C59.2339 53.7836 59.5222 53.6582 59.7347 53.4351C59.9472 53.212 60.0667 52.9094 60.0667 52.5939V44.2662H57.8V51.4042H53.2667V47.8352H51V51.4042H17V47.8352H14.7333V51.4042H10.2V44.2662H7.93335V52.5939C7.93335 52.9094 8.05275 53.212 8.2653 53.4351C8.47784 53.6582 8.7661 53.7836 9.06668 53.7836H58.9333Z" fill="#00B4F6"/>
<path d="M60.0668 32.3693H44.2002V34.7489H60.0668V32.3693Z" fill="#00B4F6"/>
<path d="M62.3334 27.6107H49.8667V29.99H62.3334V27.6107Z" fill="#00B4F6"/>
<path d="M26.0667 41.8867H23.8V44.2661H26.0667V41.8867Z" fill="#00B4F6"/>
<path d="M21.5333 5.00708H19.2666V7.38647H21.5333V5.00708Z" fill="#00B4F6"/>
<path d="M26.0667 5.00708H23.8V7.38647H26.0667V5.00708Z" fill="#00B4F6"/>
<path d="M30.5999 5.00708H28.3333V7.38647H30.5999V5.00708Z" fill="#00B4F6"/>
<path d="M47.5997 27.6107H45.333V29.99H47.5997V27.6107Z" fill="#00B4F6"/>
</svg>
