<svg width="68" height="72" viewBox="0 0 68 72" fill="none" xmlns="http://www.w3.org/2000/svg">
<path d="M38 39.1538C37.9 39.1538 37.8 39.1538 37.8 39.1538L34.4 42.7228C35.5 43.1427 36.8 43.3527 38 43.3527C44.2 43.3527 49.3 37.9992 49.3 31.491C49.3 24.9828 44.2 19.6293 38 19.6293C31.8 19.6293 26.7 24.9828 26.7 31.491C26.7 32.8556 26.8999 34.1152 27.2999 35.2699L30.7 31.7009C30.7 31.5959 30.7 31.491 30.7 31.491C30.7 27.2921 34 23.8281 38 23.8281C42 23.8281 45.3 27.2921 45.3 31.491C45.3 35.6898 42 39.1538 38 39.1538Z" fill="#040DAE"/>
<path d="M27.4001 50.071C30.5 52.0654 34.1 53.2201 38 53.2201C49.4 53.2201 58.7 43.4578 58.7 31.4911C58.7 19.5244 49.4 9.76208 38 9.76208C26.6 9.76208 17.3 19.5244 17.3 31.4911C17.3 35.585 18.4 39.3639 20.3 42.618L23.2 39.5739C22 37.1595 21.3 34.4303 21.3 31.4911C21.3 21.8338 28.8 13.9609 38 13.9609C47.2 13.9609 54.7 21.8338 54.7 31.4911C54.7 41.1484 47.2 49.0213 38 49.0213C35.2 49.0213 32.6 48.2865 30.3 47.0268L27.4001 50.071Z" fill="#040DAE"/>
<path d="M38 0C21.5 0 8 14.171 8 31.4911C8 38.3142 10.1 44.6125 13.6 49.756L16.5 46.7119C13.6 42.4081 12 37.1596 12 31.4911C12 16.4804 23.7 4.19882 38 4.19882C52.3 4.19882 64 16.4804 64 31.4911C64 46.5019 52.3 58.7835 38 58.7835C32.6 58.7835 27.6 57.104 23.5 54.1648L20.6 57.2089C25.5 60.7779 31.5 62.9823 38 62.9823C54.5 62.9823 68 48.8113 68 31.4911C68 14.171 54.5 0 38 0Z" fill="#040DAE"/>
<path d="M39.4 32.9606C39.8 32.5407 40 32.0159 40 31.491C40 30.3363 39.1 29.3916 38 29.3916C37.4 29.3916 36.9 29.6015 36.6 30.0214L15.2 52.4853H6V56.6841H14V65.0818H18V55.4244L39.4 32.9606Z" fill="#00B4F6"/>
<path d="M0 62.9824H8V71.38H12V58.7836H0V62.9824Z" fill="#00B4F6"/>
</svg>
