<svg width="24" height="24" viewBox="0 0 24 24" fill="none" xmlns="http://www.w3.org/2000/svg">
<mask id="mask0_9721_11" style="mask-type:alpha" maskUnits="userSpaceOnUse" x="0" y="0" width="24" height="24">
<rect width="24" height="24" fill="#D9D9D9"/>
</mask>
<g mask="url(#mask0_9721_11)">
<path d="M5.6155 21.3745C5.15517 21.3745 4.77083 21.2107 4.4625 20.883C4.15417 20.5553 4 20.1469 4 19.6577V6.08755C4 5.59834 4.15417 5.1899 4.4625 4.86222C4.77083 4.53454 5.15517 4.3707 5.6155 4.3707H7.3845V2.57228C7.3845 2.40738 7.4355 2.27073 7.5375 2.16233C7.6395 2.05411 7.768 2 7.923 2C8.07817 2 8.20675 2.05411 8.30875 2.16233C8.41058 2.27073 8.4615 2.40738 8.4615 2.57228V4.3707H15.6155V2.53137C15.6155 2.38011 15.6632 2.25373 15.7587 2.15224C15.8542 2.05075 15.9732 2 16.1155 2C16.2577 2 16.3765 2.05075 16.472 2.15224C16.5677 2.25373 16.6155 2.38011 16.6155 2.53137V4.3707H18.3845C18.8448 4.3707 19.2292 4.53454 19.5375 4.86222C19.8458 5.1899 20 5.59834 20 6.08755V19.6577C20 20.1469 19.8458 20.5553 19.5375 20.883C19.2292 21.2107 18.8448 21.3745 18.3845 21.3745H5.6155ZM5.6155 20.3118H18.3845C18.5385 20.3118 18.6796 20.2437 18.8077 20.1075C18.9359 19.9712 19 19.8213 19 19.6577V10.3385H5V19.6577C5 19.8213 5.06408 19.9712 5.19225 20.1075C5.32042 20.2437 5.4615 20.3118 5.6155 20.3118ZM5 9.2755H19V6.08755C19 5.92389 18.9359 5.77396 18.8077 5.63775C18.6796 5.50154 18.5385 5.43344 18.3845 5.43344H5.6155C5.4615 5.43344 5.32042 5.50154 5.19225 5.63775C5.06408 5.77396 5 5.92389 5 6.08755V9.2755Z" fill="url(#paint0_linear_9721_11)"/>
</g>
<defs>
<linearGradient id="paint0_linear_9721_11" x1="-2.93983" y1="11.6716" x2="23.657" y2="11.6209" gradientUnits="userSpaceOnUse">
<stop offset="0.317708" stop-color="#E43425"/>
<stop offset="0.71875" stop-color="#441FD8"/>
<stop offset="1" stop-color="#0A26B8"/>
</linearGradient>
</defs>
</svg>
