<svg id="Layer_1" data-name="Layer 1" xmlns="http://www.w3.org/2000/svg" width="331.1" height="331.1" viewBox="0 0 331.1 331.1"><path d="M466.6,294.5v-.9c0-.3-.1-.7-.1-1v-.8c-.1-.4-.1-.8-.2-1.2a1.3,1.3,0,0,0-.1-.6c-.1-.5-.1-1-.2-1.5v-.2a36.1,36.1,0,0,0-35.4-29H390.1V237a13.2,13.2,0,0,0-13.2-13.1H356.2A13.2,13.2,0,0,0,343,237v22.4H260.2V237A13.2,13.2,0,0,0,247,223.9H226.4A13,13,0,0,0,213.2,237v22.3H172.8a36.2,36.2,0,0,0-35.5,29v.2c-.1.5-.1,1-.2,1.5a1.3,1.3,0,0,0-.1.6c-.1.4-.1.8-.2,1.2v.8c0,.3-.1.7-.1,1v1.9h0V517.9A36.1,36.1,0,0,0,172.7,554H430.6a36.1,36.1,0,0,0,36.1-36.1V295.6h0A3.8,3.8,0,0,1,466.6,294.5ZM438.8,517.9a8.2,8.2,0,0,1-8.2,8.2H172.7a8.2,8.2,0,0,1-8.2-8.2V353.2H438.8V517.9Z" transform="translate(-136.1 -223.4)" style="fill:#fff;stroke:#231f20;stroke-miterlimit:10"/></svg>