<svg width="34" height="30" viewBox="0 0 34 30" fill="none" xmlns="http://www.w3.org/2000/svg">
<mask id="mask0_429_19416" style="mask-type:alpha" maskUnits="userSpaceOnUse" x="3" y="0" width="9" height="8">
<path d="M7.26202 7.98884C8.32112 7.98791 9.33659 7.56677 10.0855 6.81787C10.8344 6.06897 11.2555 5.05354 11.2565 3.99444C11.2555 2.93534 10.8344 1.91986 10.0855 1.17097C9.33659 0.422067 8.32112 0.000925385 7.26202 0C6.2032 0.00184786 5.18827 0.423291 4.43957 1.17199C3.69087 1.92069 3.26943 2.93562 3.26758 3.99444C3.26943 5.05326 3.69087 6.06819 4.43957 6.81689C5.18827 7.56559 6.2032 7.98699 7.26202 7.98884ZM7.26202 1.47824C7.92907 1.47917 8.56853 1.74458 9.0402 2.21626C9.51188 2.68793 9.77725 3.32739 9.77817 3.99444C9.77725 4.66149 9.51188 5.30095 9.0402 5.77262C8.56853 6.2443 7.92907 6.50967 7.26202 6.51059C6.59497 6.50967 5.95551 6.2443 5.48383 5.77262C5.01216 5.30095 4.74679 4.66149 4.74586 3.99444C4.75047 3.32982 5.01746 2.69391 5.48874 2.22526C5.96002 1.7566 6.59738 1.49314 7.26202 1.49224V1.47824Z" fill="#001464"/>
</mask>
<g mask="url(#mask0_429_19416)">
<rect y="-4" width="33.56" height="33.56" fill="url(#paint0_linear_429_19416)"/>
</g>
<mask id="mask1_429_19416" style="mask-type:alpha" maskUnits="userSpaceOnUse" x="12" y="0" width="9" height="8">
<path d="M16.8235 7.98884C17.8823 7.98699 18.8973 7.56559 19.6459 6.81689C20.3946 6.06819 20.8161 5.05326 20.8179 3.99444C20.8161 2.93562 20.3946 1.92069 19.6459 1.17199C18.8973 0.423291 17.8823 0.00184786 16.8235 0C15.7644 0.000925385 14.7489 0.422067 14 1.17097C13.2511 1.91986 12.83 2.93534 12.8291 3.99444C12.83 5.05354 13.2511 6.06897 14 6.81787C14.7489 7.56677 15.7644 7.98791 16.8235 7.98884ZM16.8235 1.47824C17.4905 1.47917 18.13 1.74458 18.6017 2.21626C19.0734 2.68793 19.3388 3.32739 19.3397 3.99444C19.3388 4.66149 19.0734 5.30095 18.6017 5.77262C18.13 6.2443 17.4905 6.50967 16.8235 6.51059C16.1565 6.50967 15.517 6.2443 15.0453 5.77262C14.5736 5.30095 14.3083 4.66149 14.3073 3.99444C14.312 3.32982 14.5789 2.69391 15.0502 2.22526C15.5215 1.7566 16.1589 1.49314 16.8235 1.49224V1.47824Z" fill="#001464"/>
</mask>
<g mask="url(#mask1_429_19416)">
<rect y="-4" width="33.56" height="33.56" fill="url(#paint1_linear_429_19416)"/>
</g>
<mask id="mask2_429_19416" style="mask-type:alpha" maskUnits="userSpaceOnUse" x="12" y="11" width="10" height="19">
<path d="M20.6051 11.599C20.508 11.599 20.4118 11.6181 20.3221 11.6554C20.2324 11.6927 20.151 11.7473 20.0825 11.8161C20.0139 11.885 19.9597 11.9667 19.9229 12.0566C19.886 12.1464 19.8673 12.2427 19.8677 12.3398V27.6465C19.8677 28.0589 19.6616 28.4747 19.2003 28.4747C18.9849 28.4702 18.7801 28.3804 18.6308 28.2252C18.4815 28.07 18.3997 27.8619 18.4035 27.6465V20.6571C18.4035 20.2379 18.2372 19.8358 17.941 19.539C17.6449 19.2422 17.2431 19.075 16.8239 19.0741C16.404 19.0741 16.0014 19.2409 15.7045 19.5378C15.4076 19.8346 15.2408 20.2373 15.2408 20.6571V27.6465C15.2445 27.8619 15.1628 28.07 15.0134 28.2252C14.8641 28.3804 14.6594 28.4702 14.444 28.4747C13.9862 28.4747 13.78 28.0589 13.78 27.6465V12.3258C13.78 12.1293 13.7019 11.9409 13.563 11.802C13.4241 11.663 13.2356 11.585 13.0391 11.585C12.942 11.585 12.8458 11.6042 12.7561 11.6414C12.6664 11.6787 12.585 11.7333 12.5165 11.8022C12.448 11.871 12.3937 11.9527 12.3569 12.0426C12.32 12.1324 12.3013 12.2287 12.3018 12.3258V27.6326C12.3018 28.9501 13.2209 29.9425 14.444 29.9425C15.0517 29.937 15.6325 29.6907 16.0589 29.2577C16.4854 28.8247 16.7228 28.2403 16.719 27.6326V20.6432C16.72 20.616 16.7314 20.5902 16.751 20.5713C16.7705 20.5524 16.7967 20.5418 16.8239 20.5418C16.8507 20.5418 16.8765 20.5525 16.8955 20.5715C16.9145 20.5905 16.9252 20.6163 16.9252 20.6432V27.6326C16.9215 28.2403 17.1589 28.8247 17.5853 29.2577C18.0118 29.6907 18.5925 29.937 19.2003 29.9425C20.4234 29.9425 21.346 28.9501 21.346 27.6326V12.3258C21.3423 12.1318 21.2626 11.9469 21.1241 11.811C20.9855 11.675 20.7992 11.5989 20.6051 11.599Z" fill="#001464"/>
</mask>
<g mask="url(#mask2_429_19416)">
<rect y="-4" width="33.56" height="33.56" fill="url(#paint2_linear_429_19416)"/>
</g>
<mask id="mask3_429_19416" style="mask-type:alpha" maskUnits="userSpaceOnUse" x="22" y="0" width="9" height="8">
<path d="M26.3006 7.98884C27.3594 7.98699 28.3744 7.56559 29.1231 6.81689C29.8718 6.06819 30.2932 5.05326 30.2951 3.99444C30.2932 2.93562 29.8718 1.92069 29.1231 1.17199C28.3744 0.423291 27.3594 0.00184786 26.3006 0C25.2412 0.000923647 24.2254 0.421954 23.4759 1.17075C22.7265 1.91955 22.3046 2.93502 22.3027 3.99444C22.3046 5.05386 22.7265 6.06929 23.4759 6.81809C24.2254 7.56688 25.2412 7.98791 26.3006 7.98884ZM26.3006 1.47824C26.9674 1.47917 27.6065 1.7447 28.0776 2.21647C28.5487 2.68824 28.8133 3.32772 28.8133 3.99444C28.8133 4.66117 28.5487 5.30064 28.0776 5.77241C27.6065 6.24418 26.9674 6.50967 26.3006 6.51059C25.6336 6.50967 24.9941 6.2443 24.5224 5.77262C24.0508 5.30095 23.7854 4.66149 23.7845 3.99444C23.7891 3.32982 24.0561 2.69391 24.5274 2.22526C24.9986 1.7566 25.636 1.49314 26.3006 1.49224V1.47824Z" fill="#001464"/>
</mask>
<g mask="url(#mask3_429_19416)">
<rect y="-4" width="33.56" height="33.56" fill="url(#paint3_linear_429_19416)"/>
</g>
<mask id="mask4_429_19416" style="mask-type:alpha" maskUnits="userSpaceOnUse" x="0" y="8" width="34" height="22">
<path d="M29.5056 8.13232H4.05732C2.98182 8.13417 1.95091 8.56225 1.19042 9.32274C0.429923 10.0832 0.00184795 11.1141 0 12.1896V18.0013C0 19.2489 0.877196 20.1925 2.04093 20.1925C2.27879 20.1908 2.51482 20.1507 2.73986 20.0737V27.6571C2.73986 28.9746 3.66242 29.9671 4.88556 29.9671C5.49329 29.9616 6.07403 29.7153 6.50048 29.2823C6.92694 28.8493 7.16433 28.2649 7.1606 27.6571V20.6677C7.1606 20.6409 7.17129 20.6151 7.19029 20.5961C7.2093 20.5771 7.23508 20.5664 7.26196 20.5664C7.28884 20.5664 7.31462 20.5771 7.33363 20.5961C7.35263 20.6151 7.36332 20.6409 7.36332 20.6677V27.6571C7.36052 28.2652 7.59868 28.8496 8.0257 29.2825C8.45271 29.7154 9.03381 29.9616 9.64186 29.9671C10.865 29.9671 11.7841 28.9746 11.7841 27.6571V12.3259C11.7845 12.2288 11.7658 12.1325 11.7289 12.0427C11.6921 11.9528 11.6379 11.8711 11.5694 11.8023C11.5008 11.7335 11.4194 11.6788 11.3297 11.6416C11.24 11.6043 11.1438 11.5851 11.0467 11.5851C10.8502 11.5851 10.6618 11.6631 10.5228 11.8021C10.3839 11.941 10.3058 12.1295 10.3058 12.3259V27.6327C10.3058 28.045 10.0997 28.4609 9.64186 28.4609C9.42651 28.4563 9.22173 28.3666 9.0724 28.2113C8.92306 28.0561 8.84131 27.848 8.84506 27.6327V20.6433C8.84506 20.2234 8.67828 19.8208 8.38139 19.5239C8.08451 19.227 7.68182 19.0602 7.26196 19.0602C6.84238 19.0611 6.44024 19.2282 6.14355 19.5249C5.84686 19.8216 5.67978 20.2237 5.67886 20.6433V27.6327C5.68118 27.7391 5.66249 27.845 5.62387 27.9443C5.58525 28.0436 5.5275 28.1342 5.45383 28.2111C5.38016 28.288 5.29204 28.3497 5.19454 28.3925C5.09704 28.4354 4.99204 28.4586 4.88556 28.4609C4.42426 28.4609 4.21811 28.045 4.21811 27.6327V12.3259C4.21857 12.2288 4.19984 12.1325 4.16299 12.0427C4.12614 11.9528 4.07187 11.8711 4.00336 11.8023C3.93484 11.7335 3.85339 11.6788 3.76369 11.6416C3.674 11.6043 3.57786 11.5851 3.48073 11.5851C3.28424 11.5851 3.09577 11.6631 2.95683 11.8021C2.81789 11.941 2.73986 12.1295 2.73986 12.3259V17.8231C2.73453 17.8742 2.73453 17.9257 2.73986 17.9769C2.73986 18.1622 2.66621 18.34 2.53514 18.4711C2.40406 18.6021 2.22629 18.6758 2.04093 18.6758C1.5971 18.6758 1.48174 18.2285 1.48174 17.9769V12.1652C1.48266 11.4821 1.75423 10.8271 2.23695 10.3438C2.71966 9.86039 3.3742 9.58797 4.05732 9.58612H29.5056C30.1887 9.58797 30.8433 9.86039 31.326 10.3438C31.8087 10.8271 32.0803 11.4821 32.0812 12.1652V17.9769C32.0812 18.239 31.9624 18.6758 31.5221 18.6758C31.3367 18.6758 31.1589 18.6021 31.0278 18.4711C30.8967 18.34 30.8231 18.1622 30.8231 17.9769C30.8286 17.9246 30.8286 17.8718 30.8231 17.8196V12.3259C30.8231 12.1295 30.7451 11.941 30.6061 11.8021C30.4672 11.6631 30.2787 11.5851 30.0823 11.5851C29.8858 11.5851 29.6973 11.6631 29.5583 11.8021C29.4194 11.941 29.3414 12.1295 29.3414 12.3259V27.6327C29.3414 28.045 29.1387 28.4609 28.6774 28.4609C28.462 28.4563 28.2573 28.3666 28.1079 28.2113C27.9586 28.0561 27.8768 27.848 27.8806 27.6327V20.6433C27.8806 20.224 27.7143 19.8219 27.4182 19.5251C27.122 19.2283 26.7202 19.0611 26.301 19.0602C25.8811 19.0602 25.4785 19.227 25.1816 19.5239C24.8847 19.8208 24.7179 20.2234 24.7179 20.6433V27.6327C24.7216 27.848 24.6399 28.0561 24.4905 28.2113C24.3412 28.3666 24.1365 28.4563 23.9211 28.4609C23.4633 28.4609 23.2571 28.045 23.2571 27.6327V12.3259C23.2571 12.1295 23.1791 11.941 23.0401 11.8021C22.9012 11.6631 22.7127 11.5851 22.5163 11.5851C22.3198 11.5851 22.1313 11.6631 21.9924 11.8021C21.8534 11.941 21.7754 12.1295 21.7754 12.3259V27.6327C21.7754 28.9502 22.698 29.9426 23.9211 29.9426C24.5289 29.9371 25.1096 29.6908 25.5361 29.2578C25.9625 28.8248 26.1999 28.2404 26.1962 27.6327V20.6433C26.1962 20.6297 26.1989 20.6162 26.2042 20.6037C26.2095 20.5911 26.2173 20.5798 26.2271 20.5704C26.2368 20.5609 26.2484 20.5535 26.2611 20.5486C26.2738 20.5438 26.2874 20.5415 26.301 20.5419C26.3279 20.5419 26.3536 20.5526 26.3727 20.5716C26.3917 20.5906 26.4023 20.6164 26.4023 20.6433V27.6327C26.3986 28.2404 26.636 28.8248 27.0625 29.2578C27.4889 29.6908 28.0697 29.9371 28.6774 29.9426C29.9005 29.9426 30.8231 28.9502 30.8231 27.6327V20.0492C31.0482 20.1262 31.2842 20.1663 31.5221 20.168C32.6858 20.168 33.5629 19.2245 33.5629 17.9769V12.1652C33.5547 11.0939 33.1237 10.0693 32.3639 9.31404C31.6041 8.55882 30.5769 8.13413 29.5056 8.13232Z" fill="#001464"/>
</mask>
<g mask="url(#mask4_429_19416)">
<rect y="-4" width="33.56" height="33.56" fill="url(#paint4_linear_429_19416)"/>
</g>
<defs>
<linearGradient id="paint0_linear_429_19416" x1="-25" y1="39" x2="39.4166" y2="-6.91559" gradientUnits="userSpaceOnUse">
<stop offset="0.317708" stop-color="#E43425"/>
<stop offset="0.800657" stop-color="#441FD8"/>
<stop offset="1" stop-color="#0A26B8"/>
</linearGradient>
<linearGradient id="paint1_linear_429_19416" x1="-25" y1="39" x2="39.4166" y2="-6.91559" gradientUnits="userSpaceOnUse">
<stop offset="0.317708" stop-color="#E43425"/>
<stop offset="0.800657" stop-color="#441FD8"/>
<stop offset="1" stop-color="#0A26B8"/>
</linearGradient>
<linearGradient id="paint2_linear_429_19416" x1="-25" y1="39" x2="39.4166" y2="-6.91559" gradientUnits="userSpaceOnUse">
<stop offset="0.317708" stop-color="#E43425"/>
<stop offset="0.800657" stop-color="#441FD8"/>
<stop offset="1" stop-color="#0A26B8"/>
</linearGradient>
<linearGradient id="paint3_linear_429_19416" x1="-25" y1="39" x2="39.4166" y2="-6.91559" gradientUnits="userSpaceOnUse">
<stop offset="0.317708" stop-color="#E43425"/>
<stop offset="0.800657" stop-color="#441FD8"/>
<stop offset="1" stop-color="#0A26B8"/>
</linearGradient>
<linearGradient id="paint4_linear_429_19416" x1="-25" y1="39" x2="39.4166" y2="-6.91559" gradientUnits="userSpaceOnUse">
<stop offset="0.317708" stop-color="#E43425"/>
<stop offset="0.800657" stop-color="#441FD8"/>
<stop offset="1" stop-color="#0A26B8"/>
</linearGradient>
</defs>
</svg>
