<svg id="Layer_1" data-name="Layer 1" xmlns="http://www.w3.org/2000/svg" viewBox="0 0 24 24"><defs><style>.cls-1{fill:#fff;}</style></defs><title>iconmonstr-phone-13</title><path class="cls-1" d="M2.59,1.32,5.43,0,9.48,7.89,6.75,9.23c-.54,1.26,2.16,6.29,3.3,6.37l2.67-1.32,4.11,7.93L14,23.6a4.32,4.32,0,0,1-1.85.4C6.48,24,.05,13.57,0,6.67,0,4.26.75,2.28,2.59,1.32ZM4.52,2.6l-1,.5c-5.3,2.76,4.17,21.18,9.64,18.69l1-.48-2.27-4.38-1,.5C7.66,19,2.56,9.21,5.76,7.49l1-.5ZM20,17H19V4h1Zm-2-2H17V6h1Zm4-1H21V7h1Zm-6-1H15V8h1Zm-2-1H13V9h1Zm10,0H23V9h1ZM12,11H11V10h1Z" transform="translate(0)"/></svg>