<svg width="52" height="41" viewBox="0 0 52 41" fill="none" xmlns="http://www.w3.org/2000/svg">
<path d="M25.9218 24.5093C25.749 24.5093 25.5763 24.4723 25.4152 24.3981L1.51184 13.3283C1.09166 13.1337 0.823242 12.7144 0.823242 12.2535C0.823242 11.7925 1.09169 11.3732 1.51184 11.1787L25.4152 0.111185C25.735 -0.0370617 26.1061 -0.0370617 26.426 0.111185L50.3293 11.1787C50.7495 11.3733 51.0179 11.7925 51.0179 12.2535C51.0179 12.7144 50.7495 13.1337 50.3293 13.3283L26.426 24.3981C26.2672 24.4723 26.0945 24.5093 25.9217 24.5093H25.9218ZM4.84496 12.2535L25.9218 22.0146L46.9985 12.2535L25.9218 2.4947L4.84496 12.2535ZM26.4279 32.3059L50.3313 21.2384C50.9289 20.9604 51.188 20.2563 50.9102 19.6609C50.6301 19.068 49.9228 18.8108 49.3229 19.0888L25.9215 29.9227L2.52487 19.087C1.92729 18.8114 1.21532 19.0662 0.937566 19.6592C0.657448 20.2545 0.916557 20.9586 1.51648 21.2366L25.4198 32.3041C25.5809 32.3783 25.7536 32.4153 25.9264 32.4153C26.0945 32.4176 26.2672 32.3806 26.4283 32.3065L26.4279 32.3059ZM26.4279 40.2116L50.3313 29.1441C50.9289 28.8661 51.188 28.162 50.9102 27.5666C50.6301 26.9737 49.9228 26.7142 49.3229 26.9945L25.9215 37.8284L2.52487 26.9927C1.92729 26.7171 1.21532 26.9719 0.937566 27.5649C0.657448 28.1602 0.916557 28.8643 1.51648 29.1423L25.4198 40.2098C25.5762 40.2863 25.749 40.3233 25.9217 40.3233C26.0945 40.3233 26.2672 40.2863 26.4283 40.2122L26.4279 40.2116Z" fill="#00A8FF"/>
</svg>
