<?xml version="1.0" encoding="utf-8"?>
<!-- Generator: Adobe Illustrator 24.2.0, SVG Export Plug-In . SVG Version: 6.00 Build 0)  -->
<svg version="1.1" id="Layer_1" xmlns="http://www.w3.org/2000/svg" xmlns:xlink="http://www.w3.org/1999/xlink" x="0px" y="0px"
	 viewBox="0 0 87 72" style="enable-background:new 0 0 87 72;" xml:space="preserve">
<style type="text/css">
	.st0{clip-path:url(#SVGID_2_);}
	.st1{fill:#FFFFFF;}
</style>
<g>
	<defs>
		<rect id="SVGID_1_" width="87" height="72"/>
	</defs>
	<clipPath id="SVGID_2_">
		<use xlink:href="#SVGID_1_"  style="overflow:visible;"/>
	</clipPath>
	<g class="st0">
		<path class="st1" d="M29.3,58.9h-3.5c-1.4,0-2.7-1.1-3-2.5L22,53.2c-1.4-0.5-3-1.1-4.3-1.9l-2.7,1.6c-1.4,0.8-2.7,0.5-3.8-0.5
			l-4.9-4.9c-1.1-1.1-1.1-2.7-0.5-3.8l1.6-2.7c-0.8-1.4-1.4-2.7-1.9-4.4l-3.3-0.8C1.1,35.5,0,34.4,0,33v-7.1c0-1.4,1.1-2.7,2.4-3
			l3-0.8c0.5-1.6,1.1-3,1.9-4.4L5.7,15c-0.8-1.4-0.5-3,0.5-3.8l4.9-4.9c0.8-0.8,2.2-1.4,4.1-0.5l2.7,1.6C19,6.5,20.3,6,22,5.5
			l0.8-3.3C23,1.1,24.4,0,25.7,0h6.8c1.4,0,2.7,1.1,3,2.5l1.1,3c1.4,0.5,3,1.1,4.3,1.9l2.7-1.6c1.4-0.8,2.7-0.5,3.8,0.5l4.9,4.9
			c1.1,1.1,1.4,2.7,0.5,3.8l-1.6,2.7c0.8,1.4,1.4,2.7,1.9,4.4l3.3,0.8c1.4,0.3,2.4,1.6,2.4,3v3.5c0,0.8-0.8,1.6-1.6,1.6
			c-0.8,0-1.6-0.8-1.6-1.6v-3.5l-4.1-0.8c-0.5-0.3-1.1-0.5-1.1-1.1c-0.5-1.9-1.4-3.5-2.2-5.2c-0.3-0.5-0.3-1.1,0-1.6l2.2-3.5L45.5,9
			L42,11.2c-0.8-0.3-1.4-0.3-1.9-0.5C38.5,9.5,36.6,9,35,8.5c-0.5-0.3-1.1-0.5-1.1-1.1l-1.4-4.1h-6.8l-0.8,4.1
			c-0.3,0.5-0.5,1.1-1.4,1.1C22,9,20.1,9.8,18.4,10.6c-0.5,0.3-1.1,0.3-1.6,0l-3.5-1.9l-4.9,4.6l2.2,3.5c0.3,0.5,0.3,1.1,0,1.6
			c-0.8,1.6-1.6,3.5-2.2,5.2c0,0.8-0.5,1.1-1.1,1.4l-4.1,1.1V33l4.1,0.8c0.5,0.3,1.1,0.5,1.1,1.1c0.5,1.9,1.4,3.5,2.2,5.2
			c0.3,0.8,0.3,1.4,0,1.9l-2.2,3.5l4.9,4.6l3.5-2.2c0.5-0.3,1.1-0.3,1.6,0c1.6,1.1,3.5,1.6,5.1,2.2c0.5,0.3,1.1,0.5,1.1,1.1l1.1,4.1
			H29c0.8,0,1.6,0.8,1.6,1.6S30.1,58.9,29.3,58.9z"/>
		<path class="st1" d="M76.4,72H38.2c-5.7,0-10.6-4.9-10.6-11.2V39c0-6.3,4.6-11.2,10.6-11.2h38.5c5.7,0,10.6,4.9,10.6,11.2v21.8
			C87,66.8,82.4,72,76.4,72z M38.2,31.1c-4.1,0-7.3,3.5-7.3,7.9v21.8c0,4.4,3.3,7.9,7.3,7.9h38.5c4.1,0,7.3-3.5,7.3-7.9V39
			c0-4.4-3.3-7.9-7.3-7.9H38.2z"/>
		<path class="st1" d="M51,62.5c-0.5,0-1.1-0.3-1.6-0.5c-0.8-0.5-1.4-1.6-1.4-2.7V40.1c0-1.1,0.5-1.9,1.4-2.7c0.8-0.5,2.2-0.5,3,0
			l17.3,9.5c0.3,0,0.5,0.3,0.5,0.5l0.3,0.5c0.5,0.5,0.5,1.4,0.5,1.9c0,1.1-0.5,2.2-1.6,2.7L52,62.2C52,62.5,51.5,62.5,51,62.5z
			 M51.2,40.6v18.3L68,49.6L51.2,40.6z"/>
		<path class="st1" d="M29.3,43.4c-7.6,0-13.8-6.3-13.8-13.9s6.2-13.9,13.8-13.9s13.8,6.3,13.8,13.9c0,0.8-0.8,1.6-1.6,1.6
			c-0.8,0-1.6-0.8-1.6-1.6c0-6-4.9-10.6-10.6-10.6c-6,0-10.6,4.9-10.6,10.6s4.9,10.6,10.6,10.6c0.8,0,1.6,0.8,1.6,1.6
			C30.9,42.5,30.1,43.4,29.3,43.4z"/>
	</g>
</g>
</svg>
