<?xml version="1.0" encoding="utf-8"?>
<!-- Generator: Adobe Illustrator 24.2.0, SVG Export Plug-In . SVG Version: 6.00 Build 0)  -->
<svg version="1.1" id="Layer_1" xmlns="http://www.w3.org/2000/svg" xmlns:xlink="http://www.w3.org/1999/xlink" x="0px" y="0px"
	 viewBox="0 0 75 73" style="enable-background:new 0 0 75 73;" xml:space="preserve">
<style type="text/css">
	.st0{clip-path:url(#SVGID_2_);}
	.st1{fill:#FFFFFF;}
</style>
<g>
	<defs>
		<rect id="SVGID_1_" width="75" height="73"/>
	</defs>
	<clipPath id="SVGID_2_">
		<use xlink:href="#SVGID_1_"  style="overflow:visible;"/>
	</clipPath>
	<g class="st0">
		<path class="st1" d="M5.4,68.9c-0.8,0-1.6-0.8-1.6-1.6V23c0-1.1,0.8-1.6,1.6-1.6h10.2c0.8,0,1.6,0.8,1.6,1.6v34.2
			c0,0.8-0.8,1.6-1.6,1.6c-0.8,0-1.6-0.8-1.6-1.6V24.6H7v42.9C7,68.4,6.5,68.9,5.4,68.9z"/>
		<path class="st1" d="M23.9,49.2c-0.8,0-1.6-0.8-1.6-1.6V15.3c0-0.8,0.8-1.6,1.6-1.6h10.2c0.8,0,1.6,0.8,1.6,1.6V47
			c0,0.8-0.8,1.6-1.6,1.6c-0.8,0-1.6-0.8-1.6-1.6V17h-7v30.6C25.5,48.4,25,49.2,23.9,49.2z"/>
		<path class="st1" d="M42.5,51.9c-0.8,0-1.6-0.8-1.6-1.6V1.6c0-0.8,0.8-1.6,1.6-1.6h10.2c0.8,0,1.6,0.8,1.6,1.6v37.7
			c0,0.8-0.8,1.6-1.6,1.6c-0.8,0-1.6-0.8-1.6-1.6V3.3h-7v47C44.1,51.1,43.6,51.9,42.5,51.9z"/>
		<path class="st1" d="M73.4,32.5c-0.8,0-1.6-0.8-1.6-1.6V20.5h-9.9c-0.8,0-1.6-0.8-1.6-1.6c0-0.8,0.8-1.6,1.6-1.6h11.6
			c0.8,0,1.6,0.8,1.6,1.6v11.8C75,31.7,74.5,32.5,73.4,32.5z"/>
		<path class="st1" d="M1.6,73c-0.5,0-0.8-0.3-1.1-0.5c-0.5-0.5-0.5-1.6,0-2.2l28-28.4c0.3-0.3,0.8-0.5,1.1-0.5
			c0.5,0,0.8,0.3,1.1,0.5l9.1,9.3l32.5-33.4c0.5-0.5,1.6-0.5,2.2,0c0.5,0.5,0.5,1.6,0,2.2L41.1,54.1c-0.5,0.5-1.6,0.5-2.2,0l-9.4-9
			L2.7,72.5C2.4,72.7,2.2,73,1.6,73z"/>
	</g>
</g>
</svg>
