<?xml version="1.0" encoding="utf-8"?>
<!-- Generator: Adobe Illustrator 24.2.0, SVG Export Plug-In . SVG Version: 6.00 Build 0)  -->
<svg version="1.1" id="Layer_1" xmlns="http://www.w3.org/2000/svg" xmlns:xlink="http://www.w3.org/1999/xlink" x="0px" y="0px"
	 viewBox="0 0 80 80" style="enable-background:new 0 0 80 80;" xml:space="preserve">
<style type="text/css">
	.st0{fill:#FFFFFF;stroke:#FFFFFF;stroke-width:1.2;stroke-miterlimit:10;}
</style>
<path class="st0" d="M34.7,78.7c-18.3,0-33.4-14.9-33.4-33.4s15.1-33.4,33.4-33.4s33.4,14.9,33.4,33.4S53,78.7,34.7,78.7z M34.7,14
	C17.4,14,3.1,28.1,3.1,45.6s14.1,31.6,31.6,31.6c17.2,0,31.6-14.1,31.6-31.6S51.9,14,34.7,14z"/>
<path class="st0" d="M34.7,71.3c-14.3,0-26-11.7-26-26c0-14.3,11.7-26,26-26s26,11.7,26,26C60.7,59.6,49,71.3,34.7,71.3z M34.7,21.2
	c-13.3,0-24.1,10.9-24.1,24.1c0,13.3,10.9,24.1,24.1,24.1s24.1-10.9,24.1-24.1C58.8,32,48,21.2,34.7,21.2z"/>
<path class="st0" d="M34.7,64.1c-10.3,0-18.8-8.5-18.8-18.8c0-10.3,8.5-18.8,18.8-18.8c10.3,0,18.8,8.5,18.8,18.8
	C53.5,55.7,45,64.1,34.7,64.1z M34.7,28.6c-9.3,0-17,7.7-17,17s7.7,17,17,17c9.3,0,17-7.7,17-17C51.7,36,44,28.6,34.7,28.6z"/>
<path class="st0" d="M34.7,57c-6.4,0-11.4-5-11.4-11.4c0-6.4,5-11.4,11.4-11.4c6.4,0,11.4,5,11.4,11.4C46.1,51.9,41.1,57,34.7,57z
	 M34.7,35.8c-5.3,0-9.6,4.2-9.6,9.6c0,5.3,4.2,9.6,9.6,9.6s9.6-4.2,9.6-9.6C44.2,40,40,35.8,34.7,35.8z"/>
<path class="st0" d="M34.7,46.4c-0.3,0-0.5,0-0.8-0.3s-0.3-1.1,0-1.3l28.4-28.4c0.3-0.3,1.1-0.3,1.3,0c0.3,0.3,0.3,1.1,0,1.3
	L35.5,46.1C35.2,46.1,35,46.4,34.7,46.4z"/>
<path class="st0" d="M68.9,18h-5.8c-0.5,0-1.1-0.5-1.1-1.1v-5.6c0-0.5,0.5-1.1,1.1-1.1c0.5,0,1.1,0.5,1.1,1.1v5h5
	c0.5,0,1.1,0.5,1.1,1.1C69.7,17.7,69.5,18,68.9,18z"/>
<path class="st0" d="M73.4,13.7h-6.1c-0.5,0-1.1-0.5-1.1-1.1V6.8c0-0.5,0.5-1.1,1.1-1.1c0.5,0,1.1,0.5,1.1,1.1v4.8h5
	c0.5,0,1.1,0.5,1.1,1.1C74.2,13.2,74,13.7,73.4,13.7z"/>
<path class="st0" d="M77.9,9.2h-5.8c-0.5,0-1.1-0.5-1.1-1.1V2.3c0-0.5,0.5-1.1,1.1-1.1s1.1,0.5,1.1,1.1v5h4.8c0.5,0,1.1,0.5,1.1,1.1
	S78.5,9.2,77.9,9.2z"/>
</svg>
