<svg width="235" height="235" viewBox="0 0 235 235" fill="none" xmlns="http://www.w3.org/2000/svg">
<path d="M117.5 235C52.6255 235 0 182.375 0 117.5C0 52.6255 52.6255 0 117.5 0C182.375 0 235 52.6255 235 117.5C235 182.375 182.375 235 117.5 235ZM117.5 10.888C58.9768 10.888 10.888 58.9768 10.888 117.5C10.888 176.023 58.9768 224.112 117.5 224.112C176.023 224.112 224.112 176.477 224.112 117.5C224.112 58.5232 176.477 10.888 117.5 10.888Z" fill="url(#paint0_linear)"/>
<path d="M117.5 31.3032C69.8648 31.3032 30.8494 69.865 30.8494 117.954C30.8494 136.366 36.5284 152.984 46.1881 166.839C49.2239 171.193 55.7806 169.934 58.5153 165.384C68.5002 148.774 86.7528 137.462 107.519 137.462L134.739 137.915C153.34 137.915 168.764 122.49 168.764 103.436C168.764 97.0851 173.755 92.0947 180.106 92.0947C186.457 92.0947 191.448 97.0851 191.448 103.436C191.448 134.74 166.042 160.599 134.286 160.599L107.066 160.145C90.4018 160.145 76.7983 172.004 73.6325 187.643C73.109 190.228 74.45 192.787 76.7744 194.035C88.7107 200.444 102.693 204.151 117.046 204.151C165.135 204.151 204.151 165.135 204.151 117.5C204.151 69.865 165.135 31.3032 117.5 31.3032ZM119.768 127.027C106.612 127.027 95.7239 116.139 95.7239 102.983C95.7239 89.8264 106.612 78.9384 119.768 78.9384C132.925 78.9384 143.813 89.8264 143.813 102.983C143.359 116.139 132.925 127.027 119.768 127.027Z" fill="url(#paint1_linear)"/>
<defs>
<linearGradient id="paint0_linear" x1="127.479" y1="8.80542e-06" x2="127.479" y2="235" gradientUnits="userSpaceOnUse">
<stop stop-color="#0ED1CE"/>
<stop offset="0.286458" stop-color="#00C8FF"/>
<stop offset="1" stop-color="#035ED2"/>
</linearGradient>
<linearGradient id="paint1_linear" x1="124.859" y1="31.3032" x2="124.859" y2="204.151" gradientUnits="userSpaceOnUse">
<stop stop-color="#0ED1CE"/>
<stop offset="0.286458" stop-color="#00C8FF"/>
<stop offset="1" stop-color="#035ED2"/>
</linearGradient>
</defs>
</svg>
