<?xml version="1.0" encoding="utf-8"?>
<!-- Generator: Adobe Illustrator 24.2.0, SVG Export Plug-In . SVG Version: 6.00 Build 0)  -->
<svg version="1.1" id="Layer_1" xmlns="http://www.w3.org/2000/svg" xmlns:xlink="http://www.w3.org/1999/xlink" x="0px" y="0px"
	 viewBox="0 0 77 75" style="enable-background:new 0 0 77 75;" xml:space="preserve">
<style type="text/css">
	.st0{clip-path:url(#SVGID_2_);}
	.st1{fill:#FFFFFF;}
</style>
<g>
	<defs>
		<rect id="SVGID_1_" width="77" height="75"/>
	</defs>
	<clipPath id="SVGID_2_">
		<use xlink:href="#SVGID_1_"  style="overflow:visible;"/>
	</clipPath>
	<g class="st0">
		<path class="st1" d="M21.1,66.4v-3.2h34.2c0.8,0,1.4-0.3,1.9-0.5l14.9-9.4c0,0,1.4-0.8,1.9-2.2c0.3-0.8,0-1.6-0.5-2.4
			c-1.6-2.4-4.9-0.8-4.9-0.8L55,54.5H40.1c-1.6,0-3-1.3-3-3.2c0-1.6,1.4-3,3-3h11.1c1.9,0,3.5-1.6,3.5-3.5c0-1.9-1.6-3.5-3.5-3.5
			H31.7c-2.7,0-5.4,1.1-7,1.9l-8.9,5.4l-1.6-2.7l8.9-5.4c2.2-1.1,5.2-2.4,8.7-2.4h19.5c3.8,0,6.8,3,6.8,6.7c0,3-2.2,5.7-4.9,6.5h1.1
			L67,44.8c3-1.3,7-1.3,9.2,1.9c1.1,1.6,1.4,3.2,0.8,4.9c-0.5,2.7-2.7,4-3.3,4.3l-14.6,9.4c-1.1,0.5-2.2,1.1-3.5,1.1H21.1z"/>
		<path class="st1" d="M11.1,75c-0.5,0-0.8,0-1.4-0.3c-0.8-0.3-1.4-1.1-1.6-1.6L0.3,51.8c-0.5-1.6,0.3-3.2,1.9-4l9.8-3.8
			c0.8-0.3,1.6-0.3,2.4,0c0.8,0.3,1.1,0.8,1.6,1.6l7.9,20.5l0.3,1.1c0.5,1.6-0.3,3.2-1.9,4L12.5,75C11.7,75,11.4,75,11.1,75z
			 M12.7,47.2l-9.5,3.5l8.1,21l9.5-3.8l-2.2-5.1l-0.3-0.8L12.7,47.2z"/>
		<path class="st1" d="M56.4,37.2c-4.1,0-7.6-3.5-7.6-7.6c0-4,3.5-7.6,7.6-7.6s7.6,3.5,7.6,7.6C64,33.7,60.7,37.2,56.4,37.2z
			 M56.4,25.1c-2.4,0-4.3,1.9-4.3,4.3c0,2.4,1.9,4.3,4.3,4.3c2.4,0,4.3-1.9,4.3-4.3C60.7,27.2,58.8,25.1,56.4,25.1z"/>
		<path class="st1" d="M36.9,32.6c-4.1,0-7.6-3.5-7.6-7.6s3.5-7.6,7.6-7.6s7.6,3.5,7.6,7.6S41.2,32.6,36.9,32.6z M36.9,20.8
			c-2.4,0-4.3,1.9-4.3,4.3c0,2.4,1.9,4.3,4.3,4.3c2.4,0,4.3-1.9,4.3-4.3C41.2,22.7,39.3,20.8,36.9,20.8z"/>
		<path class="st1" d="M47.2,15.1c-4.1,0-7.6-3.5-7.6-7.6c0-4,3.5-7.6,7.6-7.6s7.6,3.5,7.6,7.6C54.8,11.6,51.5,15.1,47.2,15.1z
			 M47.2,3.2c-2.4,0-4.3,1.9-4.3,4.3c0,2.4,1.9,4.3,4.3,4.3c2.4,0,4.3-1.9,4.3-4.3C51.5,5.1,49.6,3.2,47.2,3.2z"/>
	</g>
</g>
</svg>
