<svg xmlns="http://www.w3.org/2000/svg" viewBox="0 0 129.64 130.1"><title>disco_ball</title><path d="M562.53,242.48c3.27.36,3.62.4,5.93.81,6.42,1.45,6.8,1.54,10.73,3h0a52.74,52.74,0,0,0-5.91-1.88,64.91,64.91,0,0,0-8.53-1.64,65.87,65.87,0,0,0-6.65-.48h-.05c.69,0,2.11,0,3.79.18l.68,0" transform="translate(-491.81 -242.22)" style="fill:#a2d9ea"/><path d="M559.3,242.27c.37,0,.75,0,1.12.06l.32,0c-1.23-.08-1.94-.09-2.83-.11h.92l.47,0" transform="translate(-491.81 -242.22)" style="fill:#a2d9ea"/><path d="M557.61,242.23h0" transform="translate(-491.81 -242.22)" style="fill:#a2d9ea"/><path d="M556.9,242.22h0" transform="translate(-491.81 -242.22)" style="fill:#a2d9ea"/><path d="M556.24,242.22h0" transform="translate(-491.81 -242.22)" style="fill:#a2d9ea"/><path d="M555.1,242.24h0" transform="translate(-491.81 -242.22)" style="fill:#a2d9ea"/><path d="M552.7,242.34c.37,0,.75-.05,1.13-.06l.4,0,1.11,0h-.11c-1,0-1.68,0-3.1.13l.57,0" transform="translate(-491.81 -242.22)" style="fill:#a2d9ea"/><path d="M539.85,244.42c-2.88.78-4.79,1.44-5.89,1.85-.05,0,0,0,0,0,6.21-2,6.58-2.17,10.55-2.94,3.4-.57,3.67-.62,6.06-.85l.49-.05c1.41-.11,2.76-.18,4-.19h0a65.73,65.73,0,0,0-6.66.5,64.63,64.63,0,0,0-8.53,1.66" transform="translate(-491.81 -242.22)" style="fill:#a2d9ea"/><path d="M599.74,258.64a38.85,38.85,0,0,0-4.21-3.51,64,64,0,0,0-7-4.57,49.78,49.78,0,0,0-5.87-2.91,66.61,66.61,0,0,1,17.1,11" transform="translate(-491.81 -242.22)" style="fill:#a2d9ea"/><path d="M517.61,255.22a33.59,33.59,0,0,0-4.49,3.76c4.81-4,9-7.5,17.4-11.29h0a54.64,54.64,0,0,0-5.84,2.92,65.72,65.72,0,0,0-7,4.6" transform="translate(-491.81 -242.22)" style="fill:#a2d9ea"/><path d="M614,276.69c-.52-1-.8-1.52-1.45-2.62a65.5,65.5,0,0,0-4.73-6.92,47.57,47.57,0,0,0-3.51-4c4.08,4.76,6.14,7.14,9.69,13.57" transform="translate(-491.81 -242.22)" style="fill:#a2d9ea"/><path d="M500.6,274.19c-.39.66-1.41,2.4-2.09,3.9,3.7-6.67,5-8.88,10.79-15.37a41.36,41.36,0,0,0-4,4.54,65.54,65.54,0,0,0-4.72,6.93" transform="translate(-491.81 -242.22)" style="fill:#a2d9ea"/><path d="M493.07,293.34c.52-2,1.19-4.61,1.81-6.56-.41,1.21-.76,2.41-.92,3-.33,1.18-.62,2.37-.89,3.57" transform="translate(-491.81 -242.22)" style="fill:#a2d9ea"/><path d="M541,244.62a62.84,62.84,0,0,1-6.3,1.95,3.85,3.85,0,0,1-.76-.09,31.37,31.37,0,0,1,5.93-2,66.81,66.81,0,0,1,8.54-1.68c1-.11,3.55-.43,6.65-.5h0a56.51,56.51,0,0,0-6.14.58,57.29,57.29,0,0,0-8,1.76" transform="translate(-491.81 -242.22)" style="fill:#a2d9ea"/><path d="M544.42,244.78c-4.28,1.69-5,2-5.83,2l-1.78-.08-.11-.06c.38-.47,2.13-1.23,4.68-2a54.37,54.37,0,0,1,13.82-2.35h.16a33.8,33.8,0,0,0-4.74.64,35.83,35.83,0,0,0-6.2,1.84" transform="translate(-491.81 -242.22)" style="fill:#a2d9ea"/><path d="M549.63,244.89c-1.25.87-3.07,2-4.45,2.09l-2.63,0c-.73-.07-.09-.63.21-.86a12.24,12.24,0,0,1,2.36-1.27A33.1,33.1,0,0,1,551,243a30.93,30.93,0,0,1,4.62-.64h.21a11,11,0,0,0-2.63.68,15.24,15.24,0,0,0-3.54,1.9" transform="translate(-491.81 -242.22)" style="fill:#a2d9ea"/><path d="M556.06,244.93a2.45,2.45,0,0,1-2.42,2.13h-3.23c-1.27-.09-1-1.09-.07-2l.21-.19a12.9,12.9,0,0,1,3.08-1.91,10.3,10.3,0,0,1,2.5-.68h.24c0,.11,0,.69,0,.7-.09.45-.18,1.1-.26,1.92" transform="translate(-491.81 -242.22)" style="fill:#a2d9ea"/><path d="M562.64,244.89c1.65,1.41,1,2.05.37,2.13l-.21,0-3.23,0a2.49,2.49,0,0,1-2.44-2.13c-.09-.82-.19-1.47-.28-1.92-.05-.23,0-.46-.09-.69H557a10.07,10.07,0,0,1,2.55.68,13.15,13.15,0,0,1,3.1,1.9" transform="translate(-491.81 -242.22)" style="fill:#a2d9ea"/><path d="M568.06,244.78c3,1.28,3.05,1.94,2.85,2.07a.71.71,0,0,1-.26.06L568,247c-1.38-.06-3.2-1.22-4.46-2.08A15.42,15.42,0,0,0,560,243a11.38,11.38,0,0,0-2.64-.67h.18a32.49,32.49,0,0,1,10.53,2.48" transform="translate(-491.81 -242.22)" style="fill:#a2d9ea"/><path d="M571.79,244.62c3.17,1,4.64,1.77,4.67,2.07-.61,0-1.21.07-1.86.09s-1.45-.29-5.84-2a35.75,35.75,0,0,0-6.22-1.83,33.49,33.49,0,0,0-4.66-.63s0,0,0,0a56,56,0,0,1,6.1.57,54.69,54.69,0,0,1,7.77,1.76" transform="translate(-491.81 -242.22)" style="fill:#a2d9ea"/><path d="M573.3,244.42a35.29,35.29,0,0,1,5.87,2,1.09,1.09,0,0,1-.59.15c-2.24-.31-4.26-1.31-6.4-1.95a58.55,58.55,0,0,0-8-1.75,56.36,56.36,0,0,0-6.15-.56h.05a64.65,64.65,0,0,1,6.65.49,66.78,66.78,0,0,1,8.54,1.66" transform="translate(-491.81 -242.22)" style="fill:#a2d9ea"/><path d="M520.25,255.67c-3.25,2.64-5.1,3.89-5.83,3.94-.57-.06-1-.12-1.28-.18,0-.39,1.89-2.17,4.48-4.14a65.8,65.8,0,0,1,7-4.61,34,34,0,0,1,5.81-2.77l.83.11c-.07.24-.07.24-4.49,3a61.18,61.18,0,0,0-6.54,4.67" transform="translate(-491.81 -242.22)" style="fill:#a2d9ea"/><path d="M528.26,256.05c-2.4,2.48-4.65,3.95-6.17,4l-3.42-.15c-1-.17-.41-1.66,2.5-4.18a60.44,60.44,0,0,1,6.38-4.69c3.37-2.09,5.68-2.82,6.28-2.85l2,.09a.79.79,0,0,1,.22.06c0,.22.12.61-2.74,3a50.34,50.34,0,0,0-5.1,4.74" transform="translate(-491.81 -242.22)" style="fill:#a2d9ea"/><path d="M540.39,256.3c-1.39,2.43-3.55,4-5.65,4.09l-5.07-.1c-1.79-.18-1.7-1.9.23-4.19a47.83,47.83,0,0,1,4.81-4.75c2.24-1.86,4.58-2.88,5.72-2.93l3,.06c1.58.14.41,2.17-.16,3a47.14,47.14,0,0,0-2.92,4.79" transform="translate(-491.81 -242.22)" style="fill:#a2d9ea"/><path d="M555.39,256.4a4.42,4.42,0,0,1-4.44,4.14l-6.19,0c-2.29-.15-3.17-1.83-2.2-4.18a47.44,47.44,0,0,1,2.52-4.79,6.24,6.24,0,0,1,4.4-3l3.71,0c1.47.09,2.42,1.27,2.41,3-.07,1.46-.15,3.06-.21,4.81" transform="translate(-491.81 -242.22)" style="fill:#a2d9ea"/><path d="M583.34,256.05c1.94,2.3,2,4,.25,4.19l-5.06.11c-2.09-.08-4.26-1.65-5.66-4.07a46.11,46.11,0,0,0-2.94-4.79c-.58-.86-1.76-2.89-.19-3l3-.07c1.14.05,3.48,1.07,5.73,2.92a50.09,50.09,0,0,1,4.83,4.74" transform="translate(-491.81 -242.22)" style="fill:#a2d9ea"/><path d="M592,255.68c3.15,2.71,3.37,4.07,2.52,4.17-1,.06-2.16.11-3.41.16-1.51-.07-3.76-1.53-6.17-4a51.5,51.5,0,0,0-5.12-4.73c-2.76-2.25-2.79-2.72-2.8-2.88a.53.53,0,0,1,.26-.13l2-.1c.6,0,2.91.76,6.28,2.84a60.58,60.58,0,0,1,6.4,4.68" transform="translate(-491.81 -242.22)" style="fill:#a2d9ea"/><path d="M595.55,255.22c2.59,2,4.53,3.75,4.5,4.14-.27.06-.7.12-1.27.19s-2.57-1.3-5.82-3.94a61.46,61.46,0,0,0-6.57-4.66c-3.87-2.39-4.28-2.64-4.52-2.91.36-.1.62-.14.78-.18a32,32,0,0,1,5.87,2.77,64.78,64.78,0,0,1,7,4.59" transform="translate(-491.81 -242.22)" style="fill:#a2d9ea"/><path d="M504.39,274.85c-1.87,3.35-3.57,5.39-4.53,5.47a17.3,17.3,0,0,1-1.72-.26c-.41-.73,2-4.93,2.47-5.77a64.61,64.61,0,0,1,4.73-6.93c2.52-3.2,4-4.41,4.39-4.61.38.06.84.12,1.46.19.77.27-1.17,3.2-2.4,4.92a66.87,66.87,0,0,0-4.4,7" transform="translate(-491.81 -242.22)" style="fill:#a2d9ea"/><path d="M515.9,275.39c-1.5,3.32-3.69,5.44-5.71,5.53-1.69-.06-3.23-.13-4.61-.2-1.54-.26-1.48-2.58.14-5.78a67.71,67.71,0,0,1,4.29-7c2-2.73,4.31-4.62,5.75-4.69,1.11.06,2.34.11,3.69.16s1.42,2-.12,4.94a70.42,70.42,0,0,0-3.43,7" transform="translate(-491.81 -242.22)" style="fill:#a2d9ea"/><path d="M554.88,275.89a5.85,5.85,0,0,1-5.86,5.67l-8.33,0c-3.11-.2-4.77-2.45-4.24-5.73.51-2.45,1.08-4.81,1.69-7.06a6.54,6.54,0,0,1,5.72-4.83l6.66,0a4.65,4.65,0,0,1,4.5,4.88q-.07,3.38-.14,7.07" transform="translate(-491.81 -242.22)" style="fill:#a2d9ea"/><path d="M576.89,275.76c.54,3.28-1.12,5.53-4.23,5.73-2.7,0-5.48.05-8.32.06a5.87,5.87,0,0,1-5.88-5.66q-.08-3.69-.16-7.07a4.64,4.64,0,0,1,4.48-4.89l6.66-.05a6.54,6.54,0,0,1,5.73,4.82c.62,2.25,1.2,4.6,1.72,7.06" transform="translate(-491.81 -242.22)" style="fill:#a2d9ea"/><path d="M595,275.39c1.19,3.27.36,5.54-2.11,5.77-2.15.06-4.42.1-6.8.15-2.78-.12-5.19-2.32-6.13-5.6q-.9-3.68-2-7c-.8-2.86,0-4.75,2.2-4.93,1.9,0,3.72-.07,5.44-.12,2.13.1,4.54,2,6.13,4.76a74,74,0,0,1,3.25,7" transform="translate(-491.81 -242.22)" style="fill:#a2d9ea"/><path d="M607.54,274.86c1.63,3.2,1.69,5.52.16,5.78l-4.59.21c-2-.1-4.2-2.21-5.71-5.53a72.6,72.6,0,0,0-3.45-7c-1.55-2.9-1.6-4.74-.15-4.94s2.58-.11,3.68-.17c1.44.07,3.75,1.95,5.75,4.68a66.17,66.17,0,0,1,4.31,7" transform="translate(-491.81 -242.22)" style="fill:#a2d9ea"/><path d="M612.59,274.2c1.68,2.89,2.68,5.14,2.55,5.72a9.13,9.13,0,0,1-1.76.3c-1-.07-2.64-2.11-4.53-5.46a66.81,66.81,0,0,0-4.41-7c-1.23-1.72-3.18-4.65-2.42-4.92a10.84,10.84,0,0,0,1.36-.2c.67.22,2.42,2,4.47,4.61a64.7,64.7,0,0,1,4.74,6.93" transform="translate(-491.81 -242.22)" style="fill:#a2d9ea"/><path d="M496.56,299c-.54,3.89-1.49,6.36-2.49,6.45a16.24,16.24,0,0,1-1.89-.28c-.67-.77-.19-5,0-6.81a64.69,64.69,0,0,1,1.76-8.5c.92-3.23,1.85-5.49,2.42-5.89.48.07,1.07.16,1.86.24.85.27.83,2.67-.06,6.27a72,72,0,0,0-1.64,8.52" transform="translate(-491.81 -242.22)" style="fill:#a2d9ea"/><path d="M529.85,300.07c-.37,3.83-2.58,6.4-5.64,6.55l-7.51-.15c-2.75-.26-4.4-2.91-4.18-6.74q.4-4.37,1.2-8.54c.81-3.54,3-5.91,5.65-6,2.22.06,4.56.1,7,.14,2.85.23,4.46,2.61,4.2,6.22-.32,2.78-.56,5.64-.73,8.55" transform="translate(-491.81 -242.22)" style="fill:#a2d9ea"/><path d="M554.64,300.22c-.2,3.84-2.7,6.44-6.38,6.62-3.13,0-6.2,0-9.18,0-3.44-.23-5.65-2.85-5.64-6.69q.21-4.37.63-8.55c.52-3.61,2.88-5.94,6.17-6.09l8.57,0a6,6,0,0,1,5.88,6.15q0,4.18-.05,8.55" transform="translate(-491.81 -242.22)" style="fill:#a2d9ea"/><path d="M580,300.07c0,3.84-2.19,6.47-5.62,6.7-3,0-6.05.05-9.18.06-3.67-.18-6.18-2.78-6.39-6.61,0-2.91,0-5.77-.06-8.55a6,6,0,0,1,5.86-6.17c2.92,0,5.79,0,8.56-.06,3.29.15,5.66,2.48,6.19,6.08.28,2.79.5,5.64.64,8.55" transform="translate(-491.81 -242.22)" style="fill:#a2d9ea"/><path d="M615.22,299c.39,3.83-.5,6.5-2.27,6.79-1.51.08-3.2.16-5.06.23-2.14-.11-3.85-2.65-4.34-6.48q-.45-4.36-1.29-8.54c-.63-3.6.2-6,2.17-6.25,1.73-.07,3.31-.14,4.72-.22,1.72.09,3.47,2.43,4.45,6a69.88,69.88,0,0,1,1.62,8.51" transform="translate(-491.81 -242.22)" style="fill:#a2d9ea"/><path d="M621,298.28c.46,3.5.52,6.09.15,6.75a11,11,0,0,1-1.95.34c-1-.09-1.94-2.56-2.49-6.44a67.89,67.89,0,0,0-1.66-8.52c-.89-3.6-.92-6-.08-6.27.78-.09,1.37-.18,1.75-.26.84.37,2,4.25,2.51,5.9a66,66,0,0,1,1.77,8.5" transform="translate(-491.81 -242.22)" style="fill:#a2d9ea"/><path d="M498.1,325c.87,3.63.88,5.85,0,5.92a15.27,15.27,0,0,1-1.77-.26c-.86-.7-2-4.63-2.48-6.28a64.54,64.54,0,0,1-1.7-8.52c-.43-3.51-.46-6-.08-6.42.5.08,1.14.17,2,.26,1,.29,1.93,2.9,2.45,6.8a69.31,69.31,0,0,0,1.59,8.5" transform="translate(-491.81 -242.22)" style="fill:#a2d9ea"/><path d="M511,325.6c.61,3.56-.25,5.84-2.23,5.94l-4.76-.21c-1.73-.27-3.47-2.71-4.43-6.23a69.25,69.25,0,0,1-1.54-8.5c-.37-3.82.55-6.36,2.32-6.47,1.52.08,3.23.16,5.09.23,2.15.27,3.84,2.92,4.31,6.75A85,85,0,0,0,511,325.6" transform="translate(-491.81 -242.22)" style="fill:#a2d9ea"/><path d="M530.55,326c.25,3.56-1.37,5.85-4.23,6l-7-.13c-2.64-.24-4.85-2.66-5.64-6.17q-.78-4.14-1.17-8.49c-.2-3.82,1.46-6.37,4.21-6.5l7.52.15c3,.24,5.26,2.87,5.62,6.69q.24,4.35.72,8.48" transform="translate(-491.81 -242.22)" style="fill:#a2d9ea"/><path d="M579.39,326c-.52,3.56-2.88,5.9-6.18,6.11l-8.59.06a5.94,5.94,0,0,1-5.89-6c0-2.75,0-5.58,0-8.47a6.58,6.58,0,0,1,6.37-6.64l9.19-.06c3.44.16,5.66,2.73,5.65,6.55q-.19,4.33-.6,8.48" transform="translate(-491.81 -242.22)" style="fill:#a2d9ea"/><path d="M599.74,325.61c-.78,3.51-3,5.94-5.62,6.18l-7,.15c-2.86-.13-4.48-2.42-4.22-6,.31-2.75.54-5.59.7-8.48.36-3.82,2.56-6.46,5.61-6.71l7.5-.16c2.75.13,4.41,2.68,4.21,6.5-.26,2.9-.64,5.73-1.16,8.49" transform="translate(-491.81 -242.22)" style="fill:#a2d9ea"/><path d="M613.76,325c-1,3.53-2.68,6-4.4,6.24-1.42.08-3,.15-4.74.22-2-.1-2.83-2.37-2.23-5.94.54-2.75,1-5.59,1.23-8.48.46-3.83,2.15-6.49,4.29-6.77,1.85-.07,3.55-.15,5.06-.23,1.77.11,2.68,2.64,2.32,6.46a69.24,69.24,0,0,1-1.53,8.5" transform="translate(-491.81 -242.22)" style="fill:#a2d9ea"/><path d="M619.42,324.27c-.9,3.24-1.8,5.63-2.37,6.23a10.87,10.87,0,0,1-1.83.32c-.86-.08-.86-2.29,0-5.92a69.8,69.8,0,0,0,1.57-8.51c.52-3.9,1.45-6.51,2.43-6.8.83-.1,1.46-.19,1.87-.28.65.43.21,4.64,0,6.43a65,65,0,0,1-1.68,8.53" transform="translate(-491.81 -242.22)" style="fill:#a2d9ea"/><path d="M508.26,347.06c1.2,1.7,3.09,4.57,2.31,4.64-.62-.07-1.09-.13-1.4-.2a3.13,3.13,0,0,1-.78-.66,66.13,66.13,0,0,1-9.9-14.41,7.45,7.45,0,0,1-.83-2.27l.09-.08a17.13,17.13,0,0,0,1.73.26c1,.25,2.63,2.41,4.47,5.77a65.6,65.6,0,0,0,4.31,6.95" transform="translate(-491.81 -242.22)" style="fill:#a2d9ea"/><path d="M518.93,347.56c1.5,2.83,1.51,4.56,0,4.63s-2.63-.1-3.75-.16c-1.46-.21-3.76-2.17-5.72-4.88a66.44,66.44,0,0,1-4.2-6.95c-1.58-3.18-1.6-5.37-.05-5.46l4.65.21c2,.24,4.2,2.42,5.68,5.7a67,67,0,0,0,3.36,6.91" transform="translate(-491.81 -242.22)" style="fill:#a2d9ea"/><path d="M535.08,347.9c.78,2.77-.1,4.55-2.3,4.65l-5.53-.11c-2.17-.19-4.58-2.08-6.13-4.81a68.22,68.22,0,0,1-3.17-6.91c-1.15-3.21-.28-5.36,2.21-5.47l6.87.13c2.81.22,5.22,2.43,6.13,5.64.58,2.4,1.23,4.7,1.92,6.88" transform="translate(-491.81 -242.22)" style="fill:#a2d9ea"/><path d="M555.06,348a4.55,4.55,0,0,1-4.56,4.68c-2.31,0-4.57,0-6.77,0a6.61,6.61,0,0,1-5.75-4.74c-.61-2.18-1.17-4.48-1.67-6.88-.52-3.21,1.17-5.37,4.3-5.51l8.4,0a5.87,5.87,0,0,1,5.91,5.57q.06,3.6.14,6.87" transform="translate(-491.81 -242.22)" style="fill:#a2d9ea"/><path d="M575.46,347.9a6.61,6.61,0,0,1-5.76,4.75c-2.19,0-4.45,0-6.76.05a4.55,4.55,0,0,1-4.56-4.68c.06-2.17.11-4.47.15-6.86a5.87,5.87,0,0,1,5.91-5.58c2.86,0,5.67,0,8.39-.06,3.13.14,4.82,2.3,4.3,5.51q-.75,3.6-1.67,6.87" transform="translate(-491.81 -242.22)" style="fill:#a2d9ea"/><path d="M592.29,347.57c-1.56,2.74-4,4.63-6.12,4.82l-5.53.12c-2.19-.09-3.07-1.87-2.29-4.65.7-2.18,1.34-4.48,1.93-6.88.91-3.21,3.31-5.43,6.11-5.65l6.86-.14c2.48.11,3.35,2.25,2.2,5.47a70.44,70.44,0,0,1-3.16,6.91" transform="translate(-491.81 -242.22)" style="fill:#a2d9ea"/><path d="M604.86,350.83a2.75,2.75,0,0,1-.7.59,11.29,11.29,0,0,1-1.38.2h-.11c-.1-.18-.38-.64,2.42-4.64a65.75,65.75,0,0,0,4.31-7c1.83-3.36,3.5-5.52,4.45-5.78a14.17,14.17,0,0,0,1.71-.26l.09.09a6.07,6.07,0,0,1-.73,2c-2.48,4.52-5.28,9.65-10.06,14.73" transform="translate(-491.81 -242.22)" style="fill:#a2d9ea"/><path d="M526,363.78c4.38,2.7,4.38,2.7,4.46,2.79a6,6,0,0,1-.84-.11c-5.54-2.81-10.33-5.24-17-11.37-.05-.06-.12-.14-.16-.2a13.11,13.11,0,0,1,1.31.13c.73.17,2.4,1.37,5.8,4.14a60,60,0,0,0,6.48,4.62" transform="translate(-491.81 -242.22)" style="fill:#a2d9ea"/><path d="M532.78,364.1c2.83,2.22,2.72,2.53,2.66,2.71a.59.59,0,0,1-.23,0l-2.13-.09a21.89,21.89,0,0,1-6.27-2.93,57.54,57.54,0,0,1-6.32-4.6c-3.38-2.92-3-3.81-2.6-3.9h.19c1,.06,2.21.11,3.49.15,1.53.18,3.77,1.66,6.16,4.08a48.82,48.82,0,0,0,5,4.55" transform="translate(-491.81 -242.22)" style="fill:#a2d9ea"/><path d="M555.66,364.39a2.52,2.52,0,0,1-2.5,2.76l-3.85,0a6.4,6.4,0,0,1-4.47-2.8,41,41,0,0,1-2.5-4.5c-1-2.23,0-3.8,2.28-3.9l6.31,0a4.41,4.41,0,0,1,4.51,3.94c.07,1.64.14,3.14.22,4.49" transform="translate(-491.81 -242.22)" style="fill:#a2d9ea"/><path d="M568.57,364.31a6.45,6.45,0,0,1-4.47,2.81l-3.86,0a2.49,2.49,0,0,1-2.48-2.75c.08-1.35.16-2.85.23-4.49a4.42,4.42,0,0,1,4.52-3.95l6.3,0c2.33.1,3.24,1.66,2.28,3.9a41,41,0,0,1-2.52,4.5" transform="translate(-491.81 -242.22)" style="fill:#a2d9ea"/><path d="M579.23,364.1a13.11,13.11,0,0,1-5.76,2.86l-3.15.07c-1.63-.07-.49-1.94.08-2.74a40.29,40.29,0,0,0,2.9-4.51,7.77,7.77,0,0,1,5.69-4l5.14-.11c1.84.07,1.78,1.68-.14,3.89a46.19,46.19,0,0,1-4.76,4.55" transform="translate(-491.81 -242.22)" style="fill:#a2d9ea"/><path d="M586.56,363.78a22.06,22.06,0,0,1-6.27,2.94c-.63,0-1.34.07-2.12.1l-.23,0c-.06-.18-.16-.49,2.67-2.72a49,49,0,0,0,5.06-4.56c2.39-2.42,4.63-3.91,6.16-4.08l3.47-.16c1.18.06-.08,1.84-2,3.52l-.45.39a59,59,0,0,1-6.32,4.61" transform="translate(-491.81 -242.22)" style="fill:#a2d9ea"/><path d="M548.53,371.81c1.1.14,1.62.2,2.71.29l-.52,0c-3.28-.36-3.62-.4-5.93-.81-6.51-1.47-6.9-1.56-11.23-3.15.14,0,.36.06.64.09,2.21.43,4.25,1.38,6.39,2a55.61,55.61,0,0,0,7.94,1.63" transform="translate(-491.81 -242.22)" style="fill:#a2d9ea"/><path d="M550.33,371.9a33.8,33.8,0,0,0,4,.38h-.39c-.37,0-.75,0-1.12-.06l-.35,0c-1.68-.11-2.61-.22-3.73-.36a52.64,52.64,0,0,1-7.74-1.62c-3.61-1.06-4.48-1.67-4.61-1.78l.08-.08,1.82.08c.53.05.53.05,5.85,1.92a35.49,35.49,0,0,0,6.19,1.55" transform="translate(-491.81 -242.22)" style="fill:#a2d9ea"/><path d="M553,372a10.35,10.35,0,0,0,2.53.36H555a33.83,33.83,0,0,1-4.29-.39,31,31,0,0,1-5.82-1.54c-3-1.14-3-1.71-2.8-1.78a.57.57,0,0,1,.26,0l2.7.05a12,12,0,0,1,4.48,1.86A13,13,0,0,0,553,372" transform="translate(-491.81 -242.22)" style="fill:#a2d9ea"/><path d="M556.41,372c0,.06.06.27,0,.34h-.29a9.24,9.24,0,0,1-2.58-.36,10.68,10.68,0,0,1-3.06-1.49c-1.57-1.13-1-1.73-.31-1.8h3.51a2.46,2.46,0,0,1,2.47,1.83,10.78,10.78,0,0,0,.27,1.47" transform="translate(-491.81 -242.22)" style="fill:#a2d9ea"/><path d="M559.84,372a9.54,9.54,0,0,1-2.56.37H557c-.06-.08,0-.32,0-.34a12.42,12.42,0,0,0,.28-1.48,2.47,2.47,0,0,1,2.48-1.82l3.3,0c1.32,0,1,.9.31,1.48-.12.11-.29.23-.42.33a10.75,10.75,0,0,1-3.08,1.48" transform="translate(-491.81 -242.22)" style="fill:#a2d9ea"/><path d="M562.67,371.9a31.47,31.47,0,0,1-4.29.4h-.6a10.73,10.73,0,0,0,2.54-.36,13.72,13.72,0,0,0,3.56-1.5,12.21,12.21,0,0,1,4.48-1.87l2.7-.05c.15,0,.6,0,.15.45a9.17,9.17,0,0,1-2.7,1.37,32,32,0,0,1-5.84,1.55" transform="translate(-491.81 -242.22)" style="fill:#a2d9ea"/><path d="M564.62,371.81c-1.12.15-2,.26-3.71.37l-.36,0c-.38,0-.75.05-1.13.06l-.39,0a33.7,33.7,0,0,0,4-.39,35.85,35.85,0,0,0,6.2-1.56c5.32-1.88,5.32-1.88,5.85-1.93l1.81-.08.11,0c-.3.31-1.69,1-4.65,1.84a54,54,0,0,1-7.74,1.62" transform="translate(-491.81 -242.22)" style="fill:#a2d9ea"/><path d="M568.74,371.19c-3.39.57-3.67.62-6.06.85l-.54,0c1.07-.09,1.6-.15,2.68-.29a56.88,56.88,0,0,0,7.95-1.64c2.14-.62,4.18-1.57,6.38-2,.28,0,.5-.06.64-.09-5.75,1.95-7.12,2.42-11,3.13" transform="translate(-491.81 -242.22)" style="fill:#a2d9ea"/></svg>