<?xml version="1.0" encoding="UTF-8"?>
<svg id="Layer_1" data-name="Layer 1" xmlns="http://www.w3.org/2000/svg" viewBox="0 0 149 149">
  <path d="M74.5,0C33.4,0,0,33.4,0,74.5s33.4,74.5,74.5,74.5,74.5-33.4,74.5-74.5S115.6,0,74.5,0Zm0,133.3c-32.5,0-58.8-26.3-58.8-58.8S42,15.7,74.5,15.7s58.8,26.3,58.8,58.8-26.3,58.8-58.8,58.8Z" style="fill: #a6d9eb;"/>
  <path d="M101,34.3H48c-4.4,0-8,3.6-8,8V106.7c0,4.4,3.6,8,8,8h53.1c4.4,0,8-3.6,8-8V42.3c0-4.4-3.6-8-8-8Zm-5.5,70H53.4v-6.9h42.2v6.9Zm0-13.2H53.4v-6.9h42.2v6.9Zm0-13.2H53.4v-6.9h42.2v6.9Zm0-13.2H53.4v-6.9h42.2v6.9Zm0-13.2H53.4v-6.9h42.2v6.9Z" style="fill: #a6d9eb;"/>
</svg>