<svg id="Layer_1" data-name="Layer 1" xmlns="http://www.w3.org/2000/svg" viewBox="0 0 421.04 602.15"><defs><style>.cls-1{fill:#fff;}</style></defs><title>Untitled-1</title><path class="cls-1" d="M404.79,95.93v.5q-87.43,0-159.18,40.89T135.17,250.16q-38.7,72-38.69,162.2v54.21h0q.8,68.57,28.05,121.05t76.11,80.71q48.87,28.24,111,28.24,57.31,0,104.37-26.24a187.16,187.16,0,0,0,73.29-72.69q26.24-46.47,26.24-102.15,0-89.83-44.86-145.06T350.17,295.2q-69.71,0-115.3,44.83l-1.11,1.09.27-1.53q11.25-64.8,60.23-101.31t125-36.44h5.53V96.43h-20v-1h21V202.84h-6.53q-75.78,0-124.39,36.24T235,339.76l-.49-.08-.35-.36q45.91-45.1,116-45.12,76.08,0,121.26,55.6t45.09,145.69q0,55.93-26.37,102.64a188.13,188.13,0,0,1-73.68,73.08q-47.3,26.37-104.85,26.36-62.35,0-111.48-28.37t-76.49-81.12q-27.37-52.73-28.17-121.5h0V412.36q0-90.45,38.81-162.67T245.12,136.45q72-41,159.67-41ZM359.21,425.41l.39-.3q21.21,27.25,21.19,70.38,0,41.88-20.78,69.77c-13.85,18.57-31.24,27.91-52,27.91-51.47-.12-77.12-37.38-77.2-111.34V441.16l.05-.1q8.88-18.19,27.07-30.72t45.26-12.53c23.42,0,42.28,9.11,56.41,27.3l-.39.3-.4.31c-14-18-32.46-26.9-55.62-26.91q-26.81,0-44.69,12.36t-26.74,30.32l-.45-.22h.5v40.56c.06,73.83,25.39,110.3,76.2,110.34,20.45,0,37.47-9.14,51.2-27.51s20.58-41.41,20.58-69.17q0-42.86-21-69.77Z" transform="translate(-95.48 -95.43)"/></svg>