<?xml version="1.0" encoding="UTF-8"?><svg id="Layer_1" xmlns="http://www.w3.org/2000/svg" xmlns:xlink="http://www.w3.org/1999/xlink" viewBox="0 0 16.5 13.2"><defs><mask id="mask" x="-1.7" y="-3.3" width="19.8" height="19.8" maskUnits="userSpaceOnUse"><g id="mask0_2714_724"><rect x="-1.7" y="-3.3" width="19.8" height="19.8" style="fill:#d9d9d9;"/></g></mask></defs><g style="mask:url(#mask);"><path d="m1.7,13.2c-.5,0-.8-.2-1.2-.5-.3-.3-.5-.7-.5-1.2V1.7c0-.5.2-.8.5-1.2.3-.3.7-.5,1.2-.5h13.2c.5,0,.8.2,1.2.5.3.3.5.7.5,1.2v9.9c0,.5-.2.8-.5,1.2-.3.3-.7.5-1.2.5H1.7Zm6.6-5.8L1.7,3.3v8.3h13.2V3.3l-6.6,4.1Zm0-1.7L14.9,1.7H1.7l6.6,4.1ZM1.7,3.3v-1.7,9.9V3.3Z" style="fill:#001464;"/></g></svg>