<?xml version="1.0" encoding="UTF-8"?> <svg xmlns="http://www.w3.org/2000/svg" id="Layer_2" data-name="Layer 2" viewBox="0 0 27.51 27.51"> <defs> <style>.cls-1,.cls-2,.cls-3{fill:none;stroke:#9de2eb;}.cls-1,.cls-2{stroke-miterlimit:10;}.cls-2{stroke-linecap:round;}.cls-3{stroke-linejoin:round;}</style> </defs> <title>audiences</title> <path class="cls-1" d="M408.06,483.53a1.37,1.37,0,1,1-1.37,1.36A1.36,1.36,0,0,1,408.06,483.53Z" transform="translate(-402.5 -473)"></path> <path class="cls-2" d="M405.13,489.86V488a1.25,1.25,0,0,1,1.24-1.24h3.38a1.23,1.23,0,0,1,.87.36,1.27,1.27,0,0,1,.36.88v1.9" transform="translate(-402.5 -473)"></path> <path class="cls-1" d="M424.46,483.53a1.37,1.37,0,1,1-1.37,1.36A1.36,1.36,0,0,1,424.46,483.53Z" transform="translate(-402.5 -473)"></path> <path class="cls-2" d="M421.53,489.86V488a1.25,1.25,0,0,1,1.24-1.24h3.38a1.23,1.23,0,0,1,.87.36,1.27,1.27,0,0,1,.36.88v1.9" transform="translate(-402.5 -473)"></path> <path class="cls-1" d="M416.26,475.78a1.37,1.37,0,1,1-1.37,1.37A1.36,1.36,0,0,1,416.26,475.78Z" transform="translate(-402.5 -473)"></path> <path class="cls-2" d="M413.33,482.11v-1.9a1.25,1.25,0,0,1,1.24-1.24H418a1.19,1.19,0,0,1,.87.37,1.23,1.23,0,0,1,.36.87v1.9" transform="translate(-402.5 -473)"></path> <path class="cls-1" d="M416.26,483.53a1.37,1.37,0,1,1-1.37,1.36A1.36,1.36,0,0,1,416.26,483.53Z" transform="translate(-402.5 -473)"></path> <path class="cls-2" d="M413.33,489.86V488a1.25,1.25,0,0,1,1.24-1.24H418a1.23,1.23,0,0,1,.87.36,1.27,1.27,0,0,1,.36.88v1.9" transform="translate(-402.5 -473)"></path> <path class="cls-1" d="M416.26,491.27a1.37,1.37,0,1,1-1.37,1.37A1.37,1.37,0,0,1,416.26,491.27Z" transform="translate(-402.5 -473)"></path> <path class="cls-2" d="M413.33,497.61V495.7a1.24,1.24,0,0,1,1.24-1.23H418a1.23,1.23,0,0,1,1.23,1.23v1.91" transform="translate(-402.5 -473)"></path> <rect class="cls-3" x="0.5" y="0.5" width="26.51" height="26.51" rx="10.09" ry="10.09"></rect> </svg> 