<svg id="Layer_2" data-name="Layer 2" xmlns="http://www.w3.org/2000/svg" viewBox="0 0 28.41 22.79"><defs><style>.cls-1{fill:none;stroke:#9de2eb;stroke-linecap:round;stroke-linejoin:round;}</style></defs><title>eye_catching</title><rect class="cls-1" x="0.5" y="0.5" width="27.41" height="21.79"/><line class="cls-1" x1="23.52" y1="0.5" x2="23.52" y2="22.29"/><line class="cls-1" x1="4.93" y1="0.5" x2="4.93" y2="22.29"/><line class="cls-1" x1="27.91" y1="4.96" x2="23.52" y2="4.96"/><line class="cls-1" x1="4.93" y1="4.96" x2="0.5" y2="4.96"/><line class="cls-1" x1="27.91" y1="9.3" x2="23.52" y2="9.3"/><line class="cls-1" x1="4.93" y1="9.3" x2="0.5" y2="9.3"/><line class="cls-1" x1="27.91" y1="13.63" x2="23.52" y2="13.63"/><line class="cls-1" x1="4.93" y1="13.63" x2="0.5" y2="13.63"/><line class="cls-1" x1="27.91" y1="17.96" x2="23.52" y2="17.96"/><line class="cls-1" x1="4.93" y1="17.96" x2="0.5" y2="17.96"/><path class="cls-1" d="M585.52,509.88a5.49,5.49,0,1,0-11,0,5.44,5.44,0,0,0,.82,2.88h0c.94,1.71,2.3,2.75,2.3,4.79V521h4.77v-3.41c0-2,1.35-3.08,2.3-4.79h0A5.44,5.44,0,0,0,585.52,509.88Z" transform="translate(-565.83 -501.28)"/><line class="cls-1" x1="11.81" y1="16.27" x2="16.58" y2="16.27"/><polygon class="cls-1" points="10.82 9.85 14.18 13.2 17.53 9.85 10.82 9.85"/><line class="cls-1" x1="14.17" y1="13.2" x2="14.17" y2="16.17"/></svg>