<svg id="893f7048-ad32-48a1-b663-908f3c063f3b" data-name="Layer 1" xmlns="http://www.w3.org/2000/svg" viewBox="0 0 91.68 79.397"><defs><style>.fbfcff31-cdba-435b-91b4-2b71ccc7aea2{fill:#cbeaf1;}</style></defs><title>icon_flexible_options</title><path class="fbfcff31-cdba-435b-91b4-2b71ccc7aea2" d="M645.261,333.426h-45.84l-22.92,39.7,22.92,39.7h45.84l22.92-39.7ZM593.226,352.5a2,2,0,0,1-.249-.3c-.018-.027-.029-.057-.046-.084a2,2,0,0,1-.139-.259c-.016-.038-.023-.079-.037-.118a1.8,1.8,0,0,1,0-1.3c.014-.039.021-.08.037-.118a2,2,0,0,1,.139-.259c.016-.027.028-.058.046-.084a2,2,0,0,1,.249-.3l4.951-4.95a2,2,0,0,1,2.828,2.828l-1.538,1.537H622.6c.029,0,.056.007.085.009a24.062,24.062,0,0,1,15.063,42.559h-7.579a20.077,20.077,0,0,0-7.823-38.568c-.587,0-1.164.039-1.738.088v-.088H599.467l1.538,1.538a2,2,0,1,1-2.828,2.828ZM622.341,390.3a16.785,16.785,0,1,1,16.785-16.785A16.785,16.785,0,0,1,622.341,390.3Zm29.687,5.523a1.175,1.175,0,0,1-.165.4c-.027.049-.049.1-.081.148a2.013,2.013,0,0,1-.251.307l-4.951,4.951a2,2,0,0,1-2.828-2.828l1.538-1.538H622.164a2,2,0,0,1-.37-.037,24.056,24.056,0,0,1-15.146-42.3h7.346a20.064,20.064,0,0,0,8.348,38.314c.235,0,.462-.027.7-.035v.059h22.255l-1.538-1.538a2,2,0,0,1,2.828-2.828l4.951,4.951a2.013,2.013,0,0,1,.251.307c.032.047.053.1.081.148a1.175,1.175,0,0,1,.165.4c.017.058.039.113.051.173a2,2,0,0,1,0,.783C652.068,395.711,652.046,395.766,652.029,395.824Z" transform="translate(-576.501 -333.426)"/><rect class="fbfcff31-cdba-435b-91b4-2b71ccc7aea2" x="38.283" y="27.961" width="14.485" height="2.996" rx="0.36" ry="0.36"/><rect class="fbfcff31-cdba-435b-91b4-2b71ccc7aea2" x="38.283" y="40.441" width="14.485" height="2.996" rx="0.36" ry="0.36"/><rect class="fbfcff31-cdba-435b-91b4-2b71ccc7aea2" x="38.283" y="44.601" width="14.485" height="2.996" rx="0.36" ry="0.36"/><rect class="fbfcff31-cdba-435b-91b4-2b71ccc7aea2" x="38.283" y="48.761" width="14.485" height="2.996" rx="0.36" ry="0.36"/><rect class="fbfcff31-cdba-435b-91b4-2b71ccc7aea2" x="36.827" y="36.281" width="14.485" height="2.996" rx="0.36" ry="0.36"/><rect class="fbfcff31-cdba-435b-91b4-2b71ccc7aea2" x="40.877" y="32.121" width="14.485" height="2.996" rx="0.36" ry="0.36"/></svg>