<?xml version="1.0" encoding="UTF-8"?><svg id="Layer_1" xmlns="http://www.w3.org/2000/svg" viewBox="0 0 210.99 156.61"><path d="m74.77,82.7c18.64,12.41,37.2,24.76,55.66,37.05-18.36,12.22-36.83,24.51-55.38,36.86v-20.94c-2.31-.43-4.65-.85-6.98-1.31-1.48-.29-2.97-.54-4.41-.97-3.38-1.01-6.73-2.1-10.09-3.18-7.58-2.44-14.79-5.74-21.7-9.68-4.72-2.69-9.26-5.67-13.33-9.29-2.19-1.95-4.46-3.85-6.39-6.04-3.84-4.35-7.14-9.1-9.42-14.47-.64-1.52-.63-3.33-1.35-4.81-.9-1.87-1.07-3.81-1.23-5.76-.37-4.51-.12-8.93,1.08-13.38,1.97-7.31,5.92-13.33,10.82-18.93,5.24-5.99,11.59-10.54,18.29-14.67,5.66-3.49,11.71-6.17,17.88-8.6,1.53-.6,3.14-.99,4.7-1.51,2.36-.78,4.69-1.66,7.08-2.37,2.12-.62,4.3-1.05,6.44-1.59,1.55-.39,3.1-.81,4.81-1.26,0,1.08,0,2,0,2.93,0,2.4-.04,4.8-.03,7.2,0,.84-.32,1.18-1.19,1.15-1.02-.03-1.95.11-2.92.71-1.04.64-2.38.8-3.57,1.2-2.09.71-4.23,1.31-6.25,2.19-3.29,1.43-6.65,2.79-9.7,4.64-3.74,2.26-7.27,4.89-10.74,7.55-3.86,2.96-6.63,6.86-8.87,11.14-1.26,2.4-2.07,5-2.06,7.71.02,3.3-.05,6.68.65,9.87.64,2.88,2.12,5.58,3.74,8.16,4.21,6.68,10.07,11.5,16.98,15.06,3.77,1.94,7.73,3.62,11.75,4.95,4.91,1.62,10.07,2.23,15.25,2.58.7.05.85-.24.85-.86-.08-6.71-.14-13.41-.22-20.12,0-.4-.1-.8-.15-1.22Z" style="fill:#fff;"/><path d="m127.9,47.42c-11.67-8.26-23.67-15.83-35.66-23.94.52-.21.92-.37,1.32-.53,11.41-7.62,22.87-15.28,34.34-22.95v15.93c2.92.45,5.96.76,8.94,1.4,5.01,1.08,10.03,2.16,14.92,3.65,5.82,1.78,11.6,3.77,17.23,6.07,6.99,2.86,13.52,6.67,19.56,11.21,3.2,2.4,6.39,4.94,9.07,7.88,6.11,6.75,11.06,14.24,12.74,23.43.96,5.27.79,10.49-.53,15.73-2.02,8.02-6.36,14.57-11.91,20.55-4.48,4.83-9.62,8.79-15.01,12.47-.65.44-1.34.81-2.02,1.2-.89.51-1.68.19-2.44-.31-3.26-2.13-6.49-4.29-9.76-6.4-5.8-3.76-11.62-7.49-17.43-11.23-.93-.6-1.89-1.13-2.84-1.7,8.5-3.5,16.14-8.25,22.24-15.23,2.92-3.34,4.89-7.15,6.11-11.48.96-3.38.89-6.77.63-10.08-.22-2.83-1.45-5.62-2.9-8.2-3.28-5.84-7.92-10.35-13.48-13.96-2.57-1.67-5.18-3.27-7.88-4.71-2.22-1.18-4.56-2.14-6.9-3.08-2.11-.84-4.3-1.49-6.44-2.27-3.67-1.34-7.45-2.26-11.28-3.01-.16-.03-.33,0-.63,0v19.56Z" style="fill:#fff;"/></svg>