<svg width="54" height="54" viewBox="0 0 54 54" fill="none" xmlns="http://www.w3.org/2000/svg">
<rect width="54" height="54" rx="8" fill="url(#paint0_linear)"/>
<path d="M23.1879 31.8V42H17.3309V12.9938H27.2121C30.0809 12.9938 32.3652 13.8836 34.0652 15.6633C35.7785 17.443 36.6352 19.7539 36.6352 22.5961C36.6352 25.4383 35.7918 27.6828 34.1051 29.3297C32.4184 30.9766 30.0809 31.8 27.0926 31.8H23.1879ZM23.1879 26.9191H27.2121C28.3277 26.9191 29.191 26.5539 29.802 25.8234C30.4129 25.093 30.7184 24.0305 30.7184 22.6359C30.7184 21.1883 30.4062 20.0395 29.782 19.1895C29.1578 18.3262 28.3211 17.8879 27.2719 17.8746H23.1879V26.9191Z" fill="white"/>
<defs>
<linearGradient id="paint0_linear" x1="1.35" y1="-7.24061" x2="84.3182" y2="27.1014" gradientUnits="userSpaceOnUse">
<stop offset="0.125" stop-color="#0500A9"/>
<stop offset="0.791667" stop-color="#FF0000"/>
</linearGradient>
</defs>
</svg>
