<svg width="233" height="233" viewBox="0 0 233 233" fill="none" xmlns="http://www.w3.org/2000/svg">
<path d="M116.5 233C52.1776 233 0 180.822 0 116.5C0 52.1776 52.1776 0 116.5 0C180.822 0 233 52.1776 233 116.5C233 180.822 180.822 233 116.5 233ZM116.5 10.7954C58.4749 10.7954 10.7954 58.4749 10.7954 116.5C10.7954 174.525 58.4749 222.205 116.5 222.205C174.525 222.205 222.205 174.975 222.205 116.5C222.205 58.0251 174.975 10.7954 116.5 10.7954Z" fill="url(#paint0_linear)"/>
<path d="M116.5 31.0369C69.2702 31.0369 30.5869 69.2705 30.5869 116.95C30.5869 164.63 69.2702 202.413 116.5 202.413C163.73 202.413 202.413 163.73 202.413 116.5C202.413 69.2705 163.73 31.0369 116.5 31.0369ZM72.4189 99.4075C76.4672 94.9095 83.2143 94.0098 88.1621 98.0581L104.355 112.002V60.2743C104.355 53.5272 109.753 48.5793 116.5 48.5793C123.247 48.5793 128.645 53.977 128.645 60.2743V111.552L144.838 98.0581C149.336 94.0098 156.533 94.9095 160.581 99.4075C164.629 103.906 163.73 111.103 159.232 115.151L124.147 144.388C122.797 145.738 120.548 146.637 118.749 147.087C118.749 147.087 118.749 147.087 118.299 147.087C118.299 147.087 118.299 147.087 117.849 147.087C116.05 146.637 113.801 145.738 112.452 144.388L77.3668 115.151C69.2703 111.103 68.8204 103.906 72.4189 99.4075ZM163.28 167.778C163.28 173.176 158.782 177.674 153.384 177.674H79.6158C74.2181 177.674 69.7201 173.176 69.7201 167.778C69.7201 162.38 74.2181 157.882 79.6158 157.882H153.384C158.782 157.882 163.28 162.38 163.28 167.778Z" fill="url(#paint1_linear)"/>
<defs>
<linearGradient id="paint0_linear" x1="127.595" y1="233" x2="125.746" y2="-1.1761e-05" gradientUnits="userSpaceOnUse">
<stop stop-color="#FF0000"/>
<stop offset="0.991319" stop-color="#FF6A00"/>
</linearGradient>
<linearGradient id="paint1_linear" x1="124.682" y1="202.413" x2="123.326" y2="31.0368" gradientUnits="userSpaceOnUse">
<stop stop-color="#FF0000"/>
<stop offset="0.991319" stop-color="#FF6A00"/>
</linearGradient>
</defs>
</svg>
