<svg width="54" height="54" viewBox="0 0 54 54" fill="none" xmlns="http://www.w3.org/2000/svg">
<rect width="54" height="54" rx="8" fill="url(#paint0_linear)"/>
<path d="M16.3309 42V12.9938H24.0008C27.3875 12.9938 30.0836 14.0695 32.0891 16.2211C34.1078 18.3727 35.1371 21.3211 35.177 25.0664V29.768C35.177 33.5797 34.1676 36.5746 32.1488 38.7527C30.1434 40.9176 27.3742 42 23.8414 42H16.3309ZM22.1879 17.8746V37.1391H23.941C25.8934 37.1391 27.268 36.6277 28.0648 35.6051C28.8617 34.5691 29.2801 32.7895 29.3199 30.266V25.2258C29.3199 22.5164 28.9414 20.6305 28.1844 19.568C27.4273 18.4922 26.1391 17.9277 24.3195 17.8746H22.1879Z" fill="white"/>
<defs>
<linearGradient id="paint0_linear" x1="50.7709" y1="-23.9741" x2="-18.2729" y2="10.9909" gradientUnits="userSpaceOnUse">
<stop stop-color="#17C7D2"/>
<stop offset="0.581455" stop-color="#0B78D2"/>
<stop offset="0.912993" stop-color="#440FDB"/>
</linearGradient>
</defs>
</svg>
