<svg width="54" height="54" viewBox="0 0 54 54" fill="none" xmlns="http://www.w3.org/2000/svg">
<rect width="54" height="54" rx="8" fill="url(#paint0_linear)"/>
<path d="M36.9937 32.3379C36.8477 35.6449 35.918 38.1484 34.2047 39.8484C32.4914 41.5484 30.0742 42.3984 26.9531 42.3984C23.6727 42.3984 21.1559 41.3227 19.4027 39.1711C17.6629 37.0063 16.793 33.925 16.793 29.9273V25.0465C16.793 21.0621 17.6961 17.9941 19.5023 15.8426C21.3086 13.6777 23.8187 12.5953 27.0328 12.5953C30.1937 12.5953 32.591 13.4785 34.2246 15.2449C35.8715 17.0113 36.8078 19.548 37.0336 22.8551H31.1566C31.1035 20.8098 30.7848 19.402 30.2004 18.6316C29.6293 17.848 28.5734 17.4563 27.0328 17.4563C25.4656 17.4563 24.3566 18.0074 23.7059 19.1098C23.0551 20.1988 22.7098 21.9984 22.6699 24.5086V29.9871C22.6699 32.8691 22.9887 34.848 23.6262 35.9238C24.277 36.9996 25.3859 37.5375 26.9531 37.5375C28.4937 37.5375 29.5562 37.1656 30.1406 36.4219C30.725 35.6648 31.057 34.3035 31.1367 32.3379H36.9937Z" fill="white"/>
<defs>
<linearGradient id="paint0_linear" x1="0.6" y1="54" x2="44.3702" y2="65.117" gradientUnits="userSpaceOnUse">
<stop stop-color="#00C8FF"/>
<stop offset="0.53125" stop-color="#0500A9"/>
<stop offset="0.984375" stop-color="#FF0000"/>
</linearGradient>
</defs>
</svg>
