<svg id="5fc668d4-9252-4d6e-99b3-0dfd1427a484" data-name="Layer 1" xmlns="http://www.w3.org/2000/svg" viewBox="0 0 241.818 358.023"><defs><style>.\30 a5e30e1-b405-4077-8bf5-2ed2df9c532f{fill:#e1e1e1;}.\39 f48c47d-1ae9-45bd-8ed3-b757bdb944ff{fill:#caeaf3;}</style></defs><title>icon_scalable_workflows</title><polygon class="0a5e30e1-b405-4077-8bf5-2ed2df9c532f" points="241.818 139.908 241.818 218.115 241.818 218.108 241.818 139.915 241.818 139.908"/><path class="9f48c47d-1ae9-45bd-8ed3-b757bdb944ff" d="M373.993,369.26l-74.159-42.817-80.607-46.537-65.948-38.074a9.75,9.75,0,0,0-14.659,8.462V588.746a9.772,9.772,0,0,0,14.659,8.46l29.561-17.068V474.313h-16.49l27.947-30.6,27.949,30.556H206.008v92.49l13.218-7.632,29.271-16.9V437.843H231.8l28.091-30.732,28.215,30.857H271.417V529l28.417-16.406,14.228-8.214V397.826H297.3l28.187-30.81,27.806,30.4H337.216V491.01l36.777-21.233a12.893,12.893,0,0,0,6.444-11.156V380.414A12.887,12.887,0,0,0,373.993,369.26Z" transform="translate(-138.619 -240.507)"/></svg>