<svg id="5eb35e47-e850-4836-a207-cfc6154fa1d9" data-name="Layer 1" xmlns="http://www.w3.org/2000/svg" viewBox="0 0 494 441.867"><defs><style>.\39 cd33bd6-678c-4ddc-9ad5-232c2ac54d76{fill:#caeaf3;}</style></defs><title>icon_hand_typing_nip</title><path class="9cd33bd6-678c-4ddc-9ad5-232c2ac54d76" d="M747,302.133c-136.414,0-247,110.586-247,247A246.567,246.567,0,0,0,595.221,744H898.779A246.567,246.567,0,0,0,994,549.133C994,412.719,883.414,302.133,747,302.133Zm17.618,103.934a3.229,3.229,0,0,1,3.229-3.229h32.729a3.229,3.229,0,0,1,3.229,3.229V438.8a3.229,3.229,0,0,1-3.229,3.229H767.847a3.229,3.229,0,0,1-3.229-3.229Zm0,63.373a3.229,3.229,0,0,1,3.229-3.229h32.729a3.229,3.229,0,0,1,3.229,3.229V502.17a3.229,3.229,0,0,1-3.229,3.229H767.847a3.229,3.229,0,0,1-3.229-3.229Zm-60.74-63.373a3.229,3.229,0,0,1,3.229-3.229h32.729a3.229,3.229,0,0,1,3.229,3.229V438.8a3.229,3.229,0,0,1-3.229,3.229H707.106a3.229,3.229,0,0,1-3.229-3.229Zm-60.74,0a3.229,3.229,0,0,1,3.229-3.229H679.1a3.229,3.229,0,0,1,3.229,3.229V438.8a3.229,3.229,0,0,1-3.229,3.229H646.366a3.229,3.229,0,0,1-3.229-3.229Zm0,63.373a3.229,3.229,0,0,1,3.229-3.229H679.1a3.229,3.229,0,0,1,3.229,3.229V502.17A3.229,3.229,0,0,1,679.1,505.4H646.366a3.229,3.229,0,0,1-3.229-3.229ZM621.584,692.411a3.229,3.229,0,0,1-3.229,3.229H585.625a3.229,3.229,0,0,1-3.229-3.229V659.682a3.229,3.229,0,0,1,3.229-3.229h32.729a3.229,3.229,0,0,1,3.229,3.229Zm0-63.373a3.229,3.229,0,0,1-3.229,3.229H585.625a3.229,3.229,0,0,1-3.229-3.229V596.309a3.229,3.229,0,0,1,3.229-3.229h32.729a3.229,3.229,0,0,1,3.229,3.229Zm0-63.495a3.229,3.229,0,0,1-3.229,3.229H585.625a3.229,3.229,0,0,1-3.229-3.229V532.814a3.229,3.229,0,0,1,3.229-3.229h32.729a3.229,3.229,0,0,1,3.229,3.229Zm0-63.373a3.229,3.229,0,0,1-3.229,3.229H585.625a3.229,3.229,0,0,1-3.229-3.229V469.44a3.229,3.229,0,0,1,3.229-3.229h32.729a3.229,3.229,0,0,1,3.229,3.229Zm0-63.373a3.229,3.229,0,0,1-3.229,3.229H585.625A3.229,3.229,0,0,1,582.4,438.8V406.067a3.229,3.229,0,0,1,3.229-3.229h32.729a3.229,3.229,0,0,1,3.229,3.229Zm60.74,253.615a3.229,3.229,0,0,1-3.229,3.229H646.366a3.229,3.229,0,0,1-3.229-3.229V659.682a3.229,3.229,0,0,1,3.229-3.229H679.1a3.229,3.229,0,0,1,3.229,3.229Zm182.221,0a3.229,3.229,0,0,1-3.229,3.229H828.587a3.229,3.229,0,0,1-3.229-3.229V665.169q-2.987,13.481-7.206,26.615a147.016,147.016,0,0,0-3.962,14.864,4.983,4.983,0,0,1-4.886,4.019c-6.7,0-3.99-9.957-3.99-9.957.7-2.907,1.808-7.156,3.361-11.979a289.263,289.263,0,0,0,13.74-81.169,4.841,4.841,0,0,1,.1-.757V584.69a9.835,9.835,0,0,0-9.822-9.824h-9.824v26.765a4.978,4.978,0,0,1-9.957,0V565.788a9.835,9.835,0,0,0-9.823-9.824h-9.824v32.829a4.978,4.978,0,0,1-9.957,0V554.729a9.835,9.835,0,0,0-9.822-9.823h-9.823v32.829a4.978,4.978,0,1,1-9.957,0V500.607a9.824,9.824,0,0,0-19.647,0V610.191a4.978,4.978,0,0,1-9.624,1.786l-10.208-26.554c-1.854-4.82-2.532-8.06-7.7-8.06a12.586,12.586,0,0,0-12.57,12.572c0,17.077,8.353,33.661,16.908,47.961,3.751,6.268,28.173,65.755,28.378,66.938a4.978,4.978,0,0,1-9.807,1.718c-.045-.263-23.039-56.732-27.115-63.541-9.48-15.846-18.32-34.2-18.32-53.076a22.567,22.567,0,0,1,14.8-21.162H646.366a3.229,3.229,0,0,1-3.229-3.229V532.814a3.229,3.229,0,0,1,3.229-3.229H679.1a3.229,3.229,0,0,1,3.229,3.229v32.729a3.211,3.211,0,0,1-1.25,2.534,22.488,22.488,0,0,1,5.457-.672c9.255,0,13.666,5.8,16.989,14.445l.583,1.517V500.607a19.741,19.741,0,0,1,.233-2.874,10.68,10.68,0,0,1-.459-3.052V476.928a10.717,10.717,0,0,1,10.717-10.717h17.753a10.717,10.717,0,0,1,10.717,10.717v17.753c0,.334-.02.664-.05.991a19.681,19.681,0,0,1,.648,4.935V534.95h9.823a19.783,19.783,0,0,1,17.725,11.058h11.877a19.789,19.789,0,0,1,19.736,18.9h9.868a19.8,19.8,0,0,1,19.779,19.78v23a4.96,4.96,0,0,1-.137,1.118,301.961,301.961,0,0,1-5.257,48.031,3.193,3.193,0,0,1,1.51-.391h32.729a3.229,3.229,0,0,1,3.229,3.229Zm0-126.868a3.229,3.229,0,0,1-3.229,3.229H828.587a3.229,3.229,0,0,1-3.229-3.229V532.814a3.229,3.229,0,0,1,3.229-3.229h32.729a3.229,3.229,0,0,1,3.229,3.229Zm0-63.373a3.229,3.229,0,0,1-3.229,3.229H828.587a3.229,3.229,0,0,1-3.229-3.229V469.44a3.229,3.229,0,0,1,3.229-3.229h32.729a3.229,3.229,0,0,1,3.229,3.229Zm0-63.373a3.229,3.229,0,0,1-3.229,3.229H828.587a3.229,3.229,0,0,1-3.229-3.229V406.067a3.229,3.229,0,0,1,3.229-3.229h32.729a3.229,3.229,0,0,1,3.229,3.229Zm60.74,253.615a3.229,3.229,0,0,1-3.229,3.229H889.328a3.229,3.229,0,0,1-3.229-3.229V659.682a3.229,3.229,0,0,1,3.229-3.229h32.729a3.229,3.229,0,0,1,3.229,3.229Zm0-63.373a3.229,3.229,0,0,1-3.229,3.229H889.328a3.229,3.229,0,0,1-3.229-3.229V596.309a3.229,3.229,0,0,1,3.229-3.229h32.729a3.229,3.229,0,0,1,3.229,3.229Zm0-63.495a3.229,3.229,0,0,1-3.229,3.229H889.328a3.229,3.229,0,0,1-3.229-3.229V532.814a3.229,3.229,0,0,1,3.229-3.229h32.729a3.229,3.229,0,0,1,3.229,3.229Zm0-63.373a3.229,3.229,0,0,1-3.229,3.229H889.328a3.229,3.229,0,0,1-3.229-3.229V469.44a3.229,3.229,0,0,1,3.229-3.229h32.729a3.229,3.229,0,0,1,3.229,3.229Zm-3.229-60.144H889.328A3.229,3.229,0,0,1,886.1,438.8V406.067a3.229,3.229,0,0,1,3.229-3.229h32.729a3.229,3.229,0,0,1,3.229,3.229V438.8A3.229,3.229,0,0,1,922.057,442.026Z" transform="translate(-500 -302.133)"/></svg>