<?xml version="1.0" encoding="UTF-8"?> <svg xmlns="http://www.w3.org/2000/svg" id="Layer_2" data-name="Layer 2" viewBox="0 0 27.63 27.63"> <defs> <style>.cls-1,.cls-2{fill:none;stroke:#9de2eb;stroke-linejoin:round;}.cls-2{stroke-linecap:round;}.cls-3{fill:#9de2eb;}</style> </defs> <title>impactful</title> <path class="cls-1" d="M530,488.81a13.32,13.32,0,1,0,13.32,13.31A13.32,13.32,0,0,0,530,488.81Z" transform="translate(-516.18 -488.31)"></path> <path class="cls-2" d="M536,506.87a8.18,8.18,0,0,0,1.43-4.62,8.07,8.07,0,0,0-1.57-4.8" transform="translate(-516.18 -488.31)"></path> <path class="cls-2" d="M534.65,505.28a5.79,5.79,0,0,0,.86-3,5.86,5.86,0,0,0-1-3.26" transform="translate(-516.18 -488.31)"></path> <path class="cls-2" d="M537.37,508.41a10.13,10.13,0,0,0-.12-12.48" transform="translate(-516.18 -488.31)"></path> <path class="cls-3" d="M523.91,500.79v2.35a14.27,14.27,0,0,0-1.54-.09c-.29,0-.48,0-.57,0-.6,0-.9-.39-.91-1.11s.31-1.1.89-1.1c.09,0,.29,0,.59,0a14.27,14.27,0,0,0,1.54-.09m1-1.15a14.66,14.66,0,0,1-2.54.24c-.35,0-.54,0-.54,0h0a1.9,1.9,0,0,0-1.92,2.1,1.93,1.93,0,0,0,1.93,2.11h0s.19,0,.54,0a14.66,14.66,0,0,1,2.54.24v-4.65Z" transform="translate(-516.18 -488.31)"></path> <path class="cls-3" d="M532.53,496.94h0m-1,1v8a7.55,7.55,0,0,0-2.26-1.34,18.77,18.77,0,0,0-2.79-1v-3.29a18.76,18.76,0,0,0,2.84-1,10.83,10.83,0,0,0,2.21-1.43m.72-1.89c-.12,0-.29.08-.53.32a9.61,9.61,0,0,1-2.82,2.09,17.71,17.71,0,0,1-3.42,1.11v4.87a17.62,17.62,0,0,1,3.42,1.1,6.09,6.09,0,0,1,2.76,2c.25.37.43.5.56.5.31,0,.31-.76.31-.76V496.61s0-.6-.28-.6Z" transform="translate(-516.18 -488.31)"></path> <path class="cls-3" d="M524.81,506.34a5.64,5.64,0,0,1,.78,1.39h-.51a11.58,11.58,0,0,0-.27-1.38m-1.08-1.53a5.8,5.8,0,0,0-.69,0,6.93,6.93,0,0,1,1.11,3.54c0,.3.83.34,1.28.34h.31l1-.24A6.69,6.69,0,0,0,525,505a3.77,3.77,0,0,0-1.27-.19Z" transform="translate(-516.18 -488.31)"></path> </svg> 