<?xml version="1.0" encoding="utf-8"?>
<!-- Generator: Adobe Illustrator 24.0.1, SVG Export Plug-In . SVG Version: 6.00 Build 0)  -->
<svg width="42" height="40" version="1.1" id="Calque_1" xmlns="http://www.w3.org/2000/svg" xmlns:xlink="http://www.w3.org/1999/xlink" x="0px" y="0px"
	 viewBox="0 0 42 40" style="enable-background:new 0 0 42 40;" xml:space="preserve">
<style type="text/css">
	.st0{clip-path:url(#SVGID_2_);}
	.st1{fill:none;stroke:#EE6A00;stroke-width:1.2;stroke-miterlimit:10;}
	.st2{fill:none;stroke:#EE6A00;stroke-width:1.2;stroke-linecap:round;stroke-linejoin:round;stroke-miterlimit:10;}
</style>
<g>
	<defs>
		<rect id="SVGID_1_" y="0" width="42" height="39.4"/>
	</defs>
	<clipPath id="SVGID_2_">
		<use xlink:href="#SVGID_1_"  style="overflow:visible;"/>
	</clipPath>
	<g class="st0">
		<path class="st1" d="M17.8,35.6v-5.8l-7.5-6.8c-0.8-0.7-2.2-0.7-3,0l-0.2,0.1c-0.8,0.7-0.8,2,0,2.7l4.8,4.4"/>
		<path class="st1" d="M5.2,21.2v-8.7c0-1.1-0.9-2-2-2c-1.2,0-2.2,0.9-2.2,2v10.8c0,2.3,0.9,4.6,2.8,6.1l5.6,5.1v1"/>
		<path class="st1" d="M24.2,35.6v-5.8l7.5-6.8c0.8-0.7,2.2-0.7,3,0l0.2,0.1c0.8,0.7,0.8,2,0,2.7L30,30.2"/>
		<path class="st1" d="M36.8,21.2v-8.7c0-1,0.9-2,2.2-2c1.1,0,2.2,0.9,2.2,2v10.8c0,2.3-0.9,4.6-2.8,6.1l-5.6,5.1v1"/>
		<path class="st1" d="M8.3,39.5v-2h10.6v2"/>
		<path class="st1" d="M23.1,39.5v-2h10.5v2"/>
		<path class="st2" d="M20.9,8.9c2.3,0,4.4-1.9,4.4-4s-2-4-4.4-4s-4.4,1.9-4.4,4C16.5,7.1,18.6,8.9,20.9,8.9z"/>
		<path class="st2" d="M28.4,11.6H13.6c-1.7,0-3.1,1.3-3.1,2.8v2.8l9.5,7.5c0.3,0.3,0.6,0.3,1.1,0.3c0.3,0,0.8-0.1,1.1-0.3l9.7-7.8
			v-2.7C31.5,12.8,30.1,11.6,28.4,11.6z"/>
	</g>
</g>
</svg>
