<svg id="Layer_1" data-name="Layer 1" xmlns="http://www.w3.org/2000/svg" viewBox="0 0 168.1 23.1"><defs><style>.cls-1{fill:#ff8a00;}.cls-2{fill:#fff;}</style></defs><polygon class="cls-1" points="154.8 23.1 168.1 11.6 154.8 0 131.8 0.1 0 0.1 0 23.1 154.8 23.1"/><path class="cls-2" d="M37,7.4l2.7,7.1,2.7-7.1h2.1v9.3H42.9V13.6L43,9.5l-2.7,7.1H39.2L36.5,9.5l.2,4.1v3.1H35.1V7.4Z"/><path class="cls-2" d="M51.8,12.5H48v2.9h4.4v1.3H46.3V7.4h6V8.7H47.9v2.6h3.8Z"/><path class="cls-2" d="M53.7,16.6V7.4h2.7a5.45,5.45,0,0,1,2.2.5,4.31,4.31,0,0,1,1.5,1.5,4.56,4.56,0,0,1,.5,2.3v.5a5.93,5.93,0,0,1-.5,2.3A3.62,3.62,0,0,1,58.6,16a3.57,3.57,0,0,1-2.2.5Zm1.6-8v6.7h1.1a2.36,2.36,0,0,0,1.9-.8,3.89,3.89,0,0,0,.7-2.3v-.5a3.79,3.79,0,0,0-.6-2.3,2.73,2.73,0,0,0-1.9-.8Z"/><path class="cls-2" d="M63.9,16.6H62.3V7.4h1.6Z"/><path class="cls-2" d="M71.2,14.5H67.6l-.8,2.2H65.1l3.5-9.3H70l3.5,9.3H72Zm-3.1-1.3h2.7L69.5,9.4Z"/><path class="cls-2" d="M85.3,12.3a5.19,5.19,0,0,1-.5,2.4,3.44,3.44,0,0,1-1.3,1.6,2.88,2.88,0,0,1-2,.5,4.55,4.55,0,0,1-2-.5,3.64,3.64,0,0,1-1.4-1.6,5.93,5.93,0,0,1-.5-2.3v-.5a5.19,5.19,0,0,1,.5-2.4,3.64,3.64,0,0,1,1.4-1.6,2.88,2.88,0,0,1,2-.5,4.55,4.55,0,0,1,2,.5,3.64,3.64,0,0,1,1.4,1.6,6.87,6.87,0,0,1,.5,2.4Zm-1.6-.5a5.33,5.33,0,0,0-.6-2.4A2.07,2.07,0,0,0,80.2,9c-.2.1-.3.3-.4.4a4.65,4.65,0,0,0-.6,2.3v.5a4.1,4.1,0,0,0,.6,2.4,1.82,1.82,0,0,0,1.6.8,1.94,1.94,0,0,0,1.6-.8,4.75,4.75,0,0,0,.6-2.4v-.4Z"/><path class="cls-2" d="M94.2,14.4l1.4-7h1.6l-2.1,9.3H93.6L91.8,9.9,90,16.6H88.5L86.4,7.3H88l1.4,7,1.8-7h1.4Z"/><path class="cls-2" d="M105.8,16.6h-1.6L100.1,10v6.6H98.5V7.4h1.6l4.1,6.6V7.4h1.6Z"/><path class="cls-2" d="M113.1,12.5h-3.8v2.9h4.5v1.3h-6.1V7.4h6V8.7h-4.4v2.6h3.8Z"/><path class="cls-2" d="M118.4,13.1h-1.8v3.6H115V7.4h3.3a3.67,3.67,0,0,1,2.5.7,2.72,2.72,0,0,1,.9,2.1,2.35,2.35,0,0,1-.5,1.6,2.68,2.68,0,0,1-1.3,1l2.1,3.9v.1h-1.7Zm-1.7-1.3h1.7a2,2,0,0,0,1.3-.4,1.61,1.61,0,0,0,.5-1.1,1.5,1.5,0,0,0-.4-1.1,2,2,0,0,0-1.3-.4h-1.7Z"/><path class="cls-2" d="M128,14.3a1,1,0,0,0-.4-.9,10.09,10.09,0,0,0-1.5-.7,7.1,7.1,0,0,1-1.8-.8A2.33,2.33,0,0,1,123,9.8a2.14,2.14,0,0,1,.9-1.8,3.56,3.56,0,0,1,2.4-.7,3.29,3.29,0,0,1,1.7.4,2.94,2.94,0,0,1,1.2,1,2.41,2.41,0,0,1,.4,1.5H128a1.27,1.27,0,0,0-.5-1.1,2,2,0,0,0-1.3-.4A2.38,2.38,0,0,0,125,9a.87.87,0,0,0-.4.9,1.19,1.19,0,0,0,.5.9,10.09,10.09,0,0,0,1.5.7,8.65,8.65,0,0,1,1.7.7,2.19,2.19,0,0,1,1,.9,2.77,2.77,0,0,1,.3,1.3,2.14,2.14,0,0,1-.9,1.8,4.2,4.2,0,0,1-2.4.7,4.33,4.33,0,0,1-1.9-.4,3.25,3.25,0,0,1-1.3-1,2.69,2.69,0,0,1-.5-1.5h1.5a1.66,1.66,0,0,0,.5,1.2,2,2,0,0,0,1.5.4,3.08,3.08,0,0,0,1.3-.3C127.9,14.9,128,14.6,128,14.3Z"/></svg>