<?xml version="1.0" encoding="utf-8"?>
<!-- Generator: Adobe Illustrator 24.1.1, SVG Export Plug-In . SVG Version: 6.00 Build 0)  -->
<svg version="1.1" id="Layer_1" xmlns="http://www.w3.org/2000/svg" xmlns:xlink="http://www.w3.org/1999/xlink" x="0px" y="0px"
	 viewBox="0 0 168.1 23.1" style="enable-background:new 0 0 168.1 23.1;" xml:space="preserve">
<style type="text/css">
	.st0{fill:#00FF8A;}
	.st1{fill:#353535;}
</style>
<polygon class="st0" points="154.8,23.1 168.1,11.6 154.8,0 131.8,0.1 0,0.1 0,23.1 "/>
<path class="st1" d="M39.6,7.4l2.7,7.1l2.7-7.1H47v9.3h-1.6v-3.1l0.2-4.1l-2.7,7.1h-1.1l-2.7-7.1l0.2,4.1v3.1h-1.6V7.4H39.6z"/>
<path class="st1" d="M54.3,12.5h-3.8v2.9h4.5v1.3h-6.1V7.4h6v1.3h-4.4v2.6h3.8V12.5z"/>
<path class="st1" d="M56.3,16.6V7.4H59c0.8,0,1.5,0.2,2.2,0.5c0.6,0.4,1.2,0.9,1.5,1.5c0.4,0.7,0.5,1.5,0.5,2.3v0.5
	c0,0.8-0.2,1.6-0.5,2.3c-0.3,0.6-0.9,1.2-1.5,1.5c-0.7,0.4-1.5,0.6-2.2,0.5H56.3z M57.9,8.6v6.7h1c0.7,0,1.4-0.2,1.9-0.8
	c0.5-0.7,0.7-1.5,0.7-2.3v-0.5c0.1-0.8-0.2-1.6-0.6-2.3c-0.5-0.5-1.2-0.8-1.9-0.8L57.9,8.6z"/>
<path class="st1" d="M66.5,16.6h-1.6V7.4h1.6V16.6z"/>
<path class="st1" d="M73.7,14.5h-3.6l-0.8,2.2h-1.7l3.5-9.3h1.4l3.5,9.3h-1.7L73.7,14.5z M70.6,13.2h2.7l-1.3-3.8L70.6,13.2z"/>
<path class="st1" d="M80.5,16.6V7.4h3.2c0.8-0.1,1.7,0.2,2.4,0.6c0.6,0.5,0.9,1.2,0.8,1.9c0,0.4-0.1,0.8-0.3,1.1
	c-0.2,0.4-0.6,0.6-1,0.8c0.5,0.1,0.9,0.4,1.2,0.8c0.3,0.4,0.4,0.9,0.4,1.4c0,0.8-0.3,1.5-0.8,2c-0.7,0.5-1.5,0.8-2.4,0.7L80.5,16.6z
	 M82.1,11.3h1.6c0.4,0,0.8-0.1,1.2-0.3c0.3-0.2,0.5-0.6,0.4-1c0-0.4-0.1-0.7-0.4-1c-0.4-0.2-0.8-0.3-1.2-0.3h-1.6L82.1,11.3z
	 M82.1,12.5v2.9h1.8c0.4,0,0.9-0.1,1.2-0.4c0.3-0.3,0.4-0.7,0.4-1c0.1-0.7-0.4-1.4-1.2-1.5c-0.1,0-0.2,0-0.3,0L82.1,12.5z"/>
<path class="st1" d="M95.5,7.4v6.2c0,0.9-0.3,1.7-0.9,2.3c-1.5,1.1-3.5,1.1-5,0c-0.6-0.6-1-1.5-0.9-2.4V7.4h1.6v6.2
	c0,0.5,0.1,1,0.5,1.4c0.4,0.4,0.9,0.5,1.4,0.5c1.2,0,1.9-0.6,1.9-2V7.3L95.5,7.4z"/>
<path class="st1" d="M100.3,11.8l2.1-4.4h1.8l-3.1,5.9v3.4h-1.6v-3.4l-3.1-5.9h1.8L100.3,11.8z"/>
<path class="st1" d="M110.6,12.5h-3.8v2.9h4.4v1.3h-6V7.4h6v1.3h-4.4v2.6h3.8L110.6,12.5z"/>
<path class="st1" d="M115.9,13.1h-1.8v3.6h-1.6V7.4h3.3c0.9-0.1,1.8,0.2,2.5,0.7c0.6,0.5,0.9,1.3,0.9,2.1c0,0.6-0.1,1.1-0.5,1.6
	c-0.3,0.4-0.7,0.8-1.3,1l2.1,3.9v0.1h-1.7L115.9,13.1z M114.1,11.8h1.7c0.5,0,0.9-0.1,1.3-0.4c0.3-0.3,0.5-0.7,0.5-1.1
	c0-0.4-0.1-0.8-0.4-1.1c-0.4-0.3-0.8-0.4-1.3-0.4h-1.7L114.1,11.8z"/>
<path class="st1" d="M125.5,14.3c0-0.4-0.1-0.7-0.4-0.9c-0.5-0.3-1-0.5-1.5-0.7c-0.6-0.2-1.2-0.4-1.8-0.8c-0.8-0.4-1.3-1.2-1.3-2.1
	c0-0.7,0.3-1.4,0.9-1.8c0.7-0.5,1.5-0.8,2.4-0.7c0.6,0,1.2,0.1,1.7,0.4c0.5,0.2,0.9,0.6,1.2,1c0.3,0.4,0.4,0.9,0.4,1.5h-1.6
	c0-0.4-0.1-0.8-0.5-1.1c-0.8-0.5-1.7-0.5-2.5-0.1c-0.3,0.2-0.5,0.6-0.4,0.9c0,0.3,0.2,0.7,0.5,0.9c0.5,0.3,1,0.5,1.6,0.7
	c0.6,0.2,1.2,0.4,1.7,0.7c0.4,0.2,0.8,0.5,1,0.9c0.2,0.4,0.3,0.8,0.3,1.3c0,0.7-0.3,1.4-0.9,1.8c-0.7,0.5-1.6,0.7-2.4,0.7
	c-0.6,0-1.3-0.1-1.8-0.4c-0.5-0.2-1-0.6-1.3-1c-0.3-0.4-0.5-1-0.5-1.5h1.6c0,0.5,0.2,0.9,0.5,1.2c0.4,0.3,1,0.5,1.5,0.4
	c0.4,0,0.9-0.1,1.3-0.3C125.4,14.9,125.5,14.6,125.5,14.3z"/>
</svg>
