<?xml version="1.0" encoding="utf-8"?>
<!-- Generator: Adobe Illustrator 24.1.1, SVG Export Plug-In . SVG Version: 6.00 Build 0)  -->
<svg version="1.1" id="Layer_1" xmlns="http://www.w3.org/2000/svg" xmlns:xlink="http://www.w3.org/1999/xlink" x="0px" y="0px"
	 viewBox="0 0 106.9 17" style="enable-background:new 0 0 106.9 17;" xml:space="preserve">
<style type="text/css">
	.st0{fill:#00FF8A;}
	.st1{fill:#353535;}
</style>
<polygon class="st0" points="9.8,0 0,8.5 9.8,17 9.8,17 106.9,17 106.9,0 "/>
<path class="st1" d="M25.4,5.4l2.1,5.5l2.1-5.5h1.6v7.2h-1.3v-2.4L30,7l-2.1,5.6H27L24.9,7l0.1,3.2v2.4h-1.3V5.4H25.4z"/>
<path class="st1" d="M36.9,9.4h-3v2.2h3.5v1h-4.7V5.3h4.7v1h-3.4v2h3L36.9,9.4z"/>
<path class="st1" d="M38.4,12.6V5.4h2.1c0.6,0,1.2,0.1,1.7,0.4c0.5,0.3,0.9,0.7,1.1,1.2c0.3,0.6,0.4,1.2,0.4,1.8v0.4
	c0,0.6-0.1,1.2-0.4,1.8c-0.3,0.5-0.7,0.9-1.2,1.2c-0.5,0.3-1.1,0.4-1.7,0.4L38.4,12.6z M39.7,6.4v5.2h0.8c0.6,0,1.1-0.2,1.5-0.6
	c0.4-0.5,0.6-1.1,0.5-1.8V8.8c0-0.6-0.1-1.3-0.5-1.8c-0.4-0.4-0.9-0.7-1.5-0.6L39.7,6.4z"/>
<path class="st1" d="M46.3,12.6h-1.3V5.4h1.3V12.6z"/>
<path class="st1" d="M52,10.9h-2.8l-0.6,1.7h-1.3l2.7-7.2h1.1l2.7,7.2h-1.3L52,10.9z M49.6,9.9h2.1l-1-3L49.6,9.9z"/>
<path class="st1" d="M57.3,12.6V5.4h2.5c0.7,0,1.3,0.1,1.9,0.5c0.4,0.4,0.7,0.9,0.6,1.5c0,0.3-0.1,0.6-0.3,0.9
	c-0.2,0.3-0.5,0.5-0.8,0.6c0.4,0.1,0.7,0.3,0.9,0.6c0.2,0.3,0.3,0.7,0.3,1.1c0,0.6-0.2,1.2-0.6,1.6c-0.5,0.4-1.2,0.6-1.9,0.5
	L57.3,12.6z M58.5,8.4h1.2c0.3,0,0.6-0.1,0.9-0.3C60.9,8,61,7.7,61,7.4c0-0.3-0.1-0.6-0.3-0.8c-0.3-0.2-0.6-0.3-1-0.2h-1.2V8.4z
	 M58.5,9.3v2.3h1.4c0.3,0,0.7-0.1,0.9-0.3c0.2-0.2,0.4-0.5,0.3-0.8c0.1-0.5-0.3-1.1-0.8-1.1c-0.1,0-0.2,0-0.3,0H58.5z"/>
<path class="st1" d="M69,5.4v4.8c0,0.7-0.2,1.4-0.7,1.8c-1.2,0.9-2.8,0.9-3.9,0c-0.5-0.5-0.8-1.1-0.7-1.8V5.4h1.3v4.8
	c0,0.4,0.1,0.8,0.4,1.1c0.3,0.3,0.7,0.4,1.1,0.4c1,0,1.5-0.5,1.5-1.5V5.4L69,5.4z"/>
<path class="st1" d="M72.7,8.8l1.7-3.4h1.4l-2.4,4.6v2.7H72V9.9l-2.4-4.6H71L72.7,8.8z"/>
<path class="st1" d="M80.7,9.4h-3v2.2h3.5v1h-4.7V5.3h4.7v1h-3.4v2h3L80.7,9.4z"/>
<path class="st1" d="M84.9,9.8h-1.4v2.8h-1.3V5.4h2.5c0.7,0,1.4,0.2,1.9,0.6c0.5,0.4,0.7,1,0.7,1.6c0,0.4-0.1,0.9-0.4,1.2
	c-0.3,0.3-0.6,0.6-1,0.8l1.6,3v0.1h-1.4L84.9,9.8z M83.5,8.8h1.3c0.4,0,0.7-0.1,1-0.3c0.2-0.2,0.4-0.6,0.4-0.9
	c0-0.3-0.1-0.7-0.3-0.9c-0.3-0.2-0.6-0.3-1-0.3h-1.4L83.5,8.8z"/>
<path class="st1" d="M92.3,10.7c0-0.3-0.1-0.6-0.3-0.7c-0.4-0.2-0.8-0.4-1.2-0.5c-0.5-0.1-1-0.3-1.4-0.6c-0.6-0.3-1-0.9-1-1.6
	c0-0.6,0.3-1.1,0.7-1.4c0.5-0.4,1.2-0.6,1.8-0.6c0.5,0,0.9,0.1,1.4,0.3C92.7,5.7,93,6,93.3,6.3c0.2,0.3,0.3,0.7,0.3,1.1h-1.2
	c0-0.3-0.1-0.7-0.4-0.9c-0.3-0.2-0.6-0.3-1-0.3c-0.3,0-0.7,0.1-1,0.3c-0.2,0.2-0.4,0.4-0.3,0.7c0,0.3,0.1,0.5,0.4,0.7
	c0.4,0.2,0.8,0.4,1.2,0.5c0.5,0.1,0.9,0.3,1.4,0.6c0.3,0.2,0.6,0.4,0.8,0.7c0.2,0.3,0.3,0.7,0.2,1c0,0.6-0.2,1.1-0.7,1.4
	c-0.5,0.4-1.2,0.6-1.9,0.5c-0.5,0-1-0.1-1.4-0.3c-0.4-0.2-0.7-0.5-1-0.8c-0.3-0.3-0.4-0.8-0.4-1.2h1.2c0,0.4,0.1,0.7,0.4,1
	c0.3,0.2,0.8,0.4,1.2,0.3c0.4,0,0.7-0.1,1-0.3C92.3,11.3,92.4,11,92.3,10.7z"/>
</svg>
