<?xml version="1.0" encoding="utf-8"?>
<!-- Generator: Adobe Illustrator 24.1.1, SVG Export Plug-In . SVG Version: 6.00 Build 0)  -->
<svg version="1.1" id="Layer_1" xmlns="http://www.w3.org/2000/svg" xmlns:xlink="http://www.w3.org/1999/xlink" x="0px" y="0px"
	 viewBox="0 0 106.9 17" style="enable-background:new 0 0 106.9 17;" xml:space="preserve">
<style type="text/css">
	.st0{fill:#1C2BFF;}
	.st1{fill:#FFFFFF;}
</style>
<polygon class="st0" points="9.8,0 0,8.5 9.8,17 9.8,17 106.9,17 106.9,0 "/>
<path class="st1" d="M34.6,9.9v2.6h-1.3V5.3h2.8c0.7,0,1.4,0.2,1.9,0.6c0.5,0.4,0.7,1,0.7,1.7c0,0.6-0.2,1.2-0.7,1.6
	c-0.6,0.4-1.2,0.6-2,0.6L34.6,9.9z M34.6,8.9h1.5c0.4,0,0.7-0.1,1-0.3c0.2-0.2,0.4-0.6,0.4-0.9c0-0.3-0.1-0.7-0.4-0.9
	c-0.3-0.2-0.6-0.4-1-0.4h-1.5V8.9z"/>
<path class="st1" d="M42.5,9.8h-1.4v2.7h-1.3V5.3h2.5c0.7,0,1.4,0.2,1.9,0.6c0.5,0.4,0.7,1,0.7,1.6c0,0.4-0.1,0.9-0.4,1.2
	c-0.3,0.3-0.6,0.6-1,0.8l1.6,3v0.1h-1.3L42.5,9.8z M41.1,8.8h1.3c0.4,0,0.7-0.1,1-0.3c0.2-0.2,0.4-0.5,0.4-0.9
	c0-0.3-0.1-0.7-0.3-0.9c-0.3-0.2-0.6-0.4-1-0.3h-1.3V8.8z"/>
<path class="st1" d="M51.9,9.2c0,0.6-0.1,1.3-0.4,1.9c-0.2,0.5-0.5,0.9-1,1.2c-1,0.6-2.2,0.6-3.1,0C47,12,46.6,11.5,46.4,11
	C46.1,10.5,46,9.8,46,9.2V8.8c0-0.6,0.1-1.3,0.4-1.9c0.4-1,1.5-1.7,2.6-1.7c0.6,0,1.1,0.1,1.6,0.4c0.5,0.3,0.8,0.7,1,1.2
	C51.8,7.5,52,8.1,52,8.8L51.9,9.2z M50.7,8.8c0-0.6-0.1-1.3-0.5-1.8c-0.5-0.7-1.5-0.9-2.2-0.3c-0.1,0.1-0.2,0.2-0.3,0.3
	c-0.3,0.5-0.5,1.2-0.5,1.8v0.4c0,0.6,0.1,1.3,0.5,1.8c0.3,0.4,0.8,0.7,1.3,0.6c0.5,0,1-0.2,1.3-0.6c0.3-0.6,0.5-1.2,0.5-1.9V8.8z"/>
<path class="st1" d="M53.2,12.5V5.3h2.1c0.6,0,1.2,0.1,1.7,0.4C57.5,6,57.9,6.5,58.2,7c0.3,0.6,0.4,1.2,0.4,1.8v0.4
	c0,0.6-0.1,1.3-0.4,1.8c-0.3,0.5-0.7,0.9-1.2,1.2c-0.5,0.3-1.1,0.4-1.7,0.4L53.2,12.5z M54.4,6.3v5.2h0.8c0.6,0,1.1-0.2,1.5-0.6
	c0.4-0.5,0.6-1.1,0.5-1.8V8.8c0-0.6-0.1-1.3-0.5-1.8c-0.4-0.4-0.9-0.7-1.5-0.6L54.4,6.3z"/>
<path class="st1" d="M65.1,5.4v4.8c0,0.7-0.2,1.3-0.7,1.8c-1.2,0.9-2.8,0.9-3.9,0c-0.5-0.5-0.8-1.1-0.7-1.8V5.4h1.3v4.8
	c0,0.4,0.1,0.8,0.4,1.1c0.3,0.3,0.7,0.4,1.1,0.4c1,0,1.5-0.5,1.5-1.5V5.4L65.1,5.4z"/>
<path class="st1" d="M71.9,10.2c0,0.7-0.3,1.3-0.9,1.8c-0.6,0.5-1.3,0.7-2,0.6c-0.5,0-1.1-0.1-1.5-0.4c-0.4-0.3-0.8-0.7-1-1.2
	c-0.2-0.5-0.4-1.1-0.4-1.8V8.7c0-0.6,0.1-1.2,0.4-1.8c0.2-0.5,0.6-0.9,1-1.2c0.5-0.3,1-0.4,1.6-0.4c0.7,0,1.4,0.2,1.9,0.6
	c0.5,0.5,0.8,1.1,0.9,1.8h-1.3c0-0.4-0.2-0.8-0.5-1.1c-0.3-0.3-0.7-0.4-1.1-0.4c-0.5,0-1,0.2-1.3,0.6c-0.3,0.5-0.5,1.1-0.5,1.8v0.6
	c0,0.6,0.1,1.2,0.4,1.8c0.3,0.4,0.7,0.6,1.2,0.6c0.4,0,0.8-0.1,1.1-0.3c0.3-0.3,0.5-0.7,0.5-1.1L71.9,10.2z"/>
<path class="st1" d="M78.1,6.4h-2.3v6.2h-1.3V6.3h-2.2v-1h5.7V6.4z"/>
<path class="st1" d="M82.8,10.7c0-0.3-0.1-0.6-0.3-0.7c-0.4-0.2-0.8-0.4-1.2-0.5c-0.5-0.1-1-0.3-1.4-0.6c-0.6-0.3-1-0.9-1-1.6
	c0-0.6,0.3-1.1,0.7-1.4c0.5-0.4,1.2-0.6,1.8-0.6c0.5,0,0.9,0.1,1.4,0.3c0.4,0.2,0.7,0.4,0.9,0.8C83.9,6.7,84,7.1,84,7.5h-1.3
	c0-0.3-0.1-0.7-0.4-0.9c-0.3-0.2-0.6-0.3-1-0.3c-0.3,0-0.7,0.1-1,0.3c-0.2,0.2-0.4,0.5-0.3,0.7c0,0.3,0.1,0.5,0.4,0.7
	c0.4,0.2,0.8,0.4,1.2,0.5c0.5,0.1,0.9,0.3,1.4,0.6c0.3,0.2,0.6,0.4,0.8,0.7c0.2,0.3,0.3,0.7,0.2,1c0,0.6-0.2,1.1-0.7,1.4
	c-0.6,0.4-1.2,0.6-1.9,0.5c-0.5,0-1-0.1-1.4-0.3c-0.4-0.2-0.7-0.4-1-0.8c-0.2-0.3-0.4-0.8-0.4-1.2h1.3c0,0.4,0.1,0.7,0.4,0.9
	c0.3,0.2,0.8,0.4,1.2,0.3c0.4,0,0.7-0.1,1-0.3C82.7,11.3,82.8,11,82.8,10.7z"/>
</svg>
