<?xml version="1.0" encoding="utf-8"?>
<!-- Generator: Adobe Illustrator 24.1.1, SVG Export Plug-In . SVG Version: 6.00 Build 0)  -->
<svg version="1.1" id="Layer_1" xmlns="http://www.w3.org/2000/svg" xmlns:xlink="http://www.w3.org/1999/xlink" x="0px" y="0px"
	 viewBox="0 0 168.1 23.1" style="enable-background:new 0 0 168.1 23.1;" xml:space="preserve">
<style type="text/css">
	.st0{fill:#1C2BFF;}
	.st1{fill:#FFFFFF;}
</style>
<polygon class="st0" points="154.8,23.1 168.1,11.6 154.8,0 131.8,0.1 0,0.1 0,23.1 "/>
<path class="st1" d="M51.4,13.2v3.4h-1.6V7.4h3.5c0.9,0,1.8,0.2,2.5,0.8c0.6,0.5,0.9,1.3,0.9,2.1c0,0.8-0.3,1.6-0.9,2.1
	c-0.7,0.5-1.6,0.8-2.5,0.8H51.4z M51.4,11.9h1.9c0.5,0,0.9-0.1,1.3-0.4c0.3-0.3,0.5-0.7,0.5-1.2c0-0.4-0.1-0.9-0.5-1.2
	c-0.3-0.3-0.8-0.5-1.3-0.5h-2L51.4,11.9z"/>
<path class="st1" d="M61.5,13.1h-1.8v3.6h-1.6V7.4h3.3c0.9-0.1,1.8,0.2,2.5,0.7c0.6,0.5,0.9,1.3,0.9,2.1c0,0.6-0.1,1.1-0.5,1.6
	c-0.3,0.4-0.7,0.8-1.3,1l2.1,3.9v0.1h-1.7L61.5,13.1z M59.7,11.8h1.7c0.5,0,0.9-0.1,1.3-0.4c0.3-0.3,0.5-0.7,0.5-1.1
	c0-0.4-0.1-0.8-0.4-1.1c-0.4-0.3-0.8-0.4-1.3-0.4h-1.7L59.7,11.8z"/>
<path class="st1" d="M73.6,12.3c0,0.8-0.1,1.6-0.5,2.4c-0.3,0.6-0.8,1.2-1.4,1.6c-0.6,0.4-1.3,0.6-2,0.5c-0.7,0-1.4-0.2-2-0.5
	c-0.6-0.4-1.1-0.9-1.4-1.6c-0.3-0.7-0.5-1.5-0.5-2.4v-0.5c0-0.8,0.1-1.6,0.5-2.4c0.3-0.7,0.8-1.2,1.4-1.6c1.2-0.7,2.8-0.7,4,0
	c0.6,0.4,1.1,0.9,1.4,1.6c0.3,0.8,0.5,1.6,0.5,2.4L73.6,12.3z M72,11.8c0.1-0.8-0.1-1.7-0.6-2.4c-0.7-0.9-2-1.1-2.9-0.4
	c-0.2,0.1-0.3,0.3-0.4,0.4c-0.4,0.7-0.6,1.5-0.6,2.3v0.5c-0.1,0.8,0.2,1.7,0.6,2.4c0.4,0.5,1,0.9,1.6,0.8c0.7,0,1.3-0.3,1.6-0.8
	c0.4-0.7,0.6-1.5,0.6-2.4V11.8z"/>
<path class="st1" d="M75.2,16.6V7.4H78c0.8,0,1.5,0.2,2.2,0.5c0.6,0.4,1.1,0.9,1.5,1.5c0.4,0.7,0.5,1.5,0.5,2.3v0.5
	c0,0.8-0.2,1.6-0.5,2.3c-0.3,0.7-0.9,1.2-1.5,1.5c-0.7,0.4-1.4,0.6-2.2,0.5L75.2,16.6z M76.8,8.6v6.7h1c0.7,0,1.5-0.2,2-0.8
	c0.5-0.7,0.7-1.5,0.7-2.3v-0.5c0.1-0.8-0.2-1.6-0.7-2.3c-0.5-0.5-1.2-0.8-1.9-0.8L76.8,8.6z"/>
<path class="st1" d="M90.5,7.4v6.2c0,0.9-0.3,1.7-0.9,2.3c-0.7,0.6-1.6,0.9-2.5,0.9c-0.9,0.1-1.8-0.3-2.5-0.9
	c-0.6-0.6-1-1.5-0.9-2.4V7.4h1.6v6.2c0,0.5,0.1,1,0.5,1.4c0.4,0.3,0.9,0.5,1.4,0.5c1.2,0,1.9-0.7,1.9-2V7.3L90.5,7.4z"/>
<path class="st1" d="M99.3,13.6c0,0.9-0.4,1.7-1.1,2.3c-0.7,0.6-1.6,0.9-2.5,0.8c-0.7,0-1.4-0.2-2-0.5c-0.6-0.4-1-0.9-1.3-1.5
	c-0.3-0.7-0.5-1.5-0.5-2.3v-0.9c0-0.8,0.1-1.6,0.5-2.3c0.3-0.6,0.8-1.2,1.3-1.5c0.6-0.4,1.3-0.6,2-0.5c0.9,0,1.8,0.3,2.5,0.8
	c0.6,0.6,1,1.5,1.1,2.4h-1.6c0-0.5-0.2-1-0.6-1.4c-0.4-0.3-0.9-0.5-1.4-0.4c-0.6,0-1.2,0.3-1.6,0.8c-0.4,0.7-0.6,1.5-0.6,2.3v0.8
	c0,0.8,0.1,1.6,0.5,2.3c0.4,0.5,1,0.8,1.6,0.8c0.5,0,1-0.1,1.4-0.4c0.4-0.4,0.6-0.9,0.6-1.4L99.3,13.6z"/>
<path class="st1" d="M107.3,8.7h-2.9v8h-1.6v-8h-2.9V7.4h7.4V8.7z"/>
<path class="st1" d="M113.2,14.3c0-0.4-0.1-0.7-0.4-0.9c-0.5-0.3-1-0.5-1.5-0.7c-0.6-0.2-1.2-0.4-1.8-0.8c-0.8-0.4-1.3-1.2-1.3-2.1
	c0-0.7,0.3-1.4,0.9-1.8c0.7-0.5,1.5-0.8,2.4-0.7c0.6,0,1.2,0.1,1.7,0.4c0.5,0.2,0.9,0.6,1.2,1c0.3,0.4,0.4,0.9,0.4,1.5h-1.6
	c0-0.4-0.1-0.8-0.5-1.1c-0.4-0.3-0.8-0.4-1.3-0.4c-0.4,0-0.9,0.1-1.2,0.3c-0.3,0.2-0.5,0.6-0.4,1c0,0.3,0.2,0.7,0.5,0.9
	c0.5,0.3,1,0.5,1.5,0.7c0.6,0.2,1.2,0.4,1.7,0.7c0.4,0.2,0.8,0.5,1,0.9c0.2,0.4,0.3,0.8,0.3,1.3c0,0.7-0.3,1.4-0.9,1.8
	c-0.7,0.5-1.6,0.7-2.4,0.7c-0.6,0-1.3-0.1-1.9-0.4c-0.5-0.2-1-0.6-1.3-1c-0.3-0.4-0.5-1-0.5-1.5h1.6c0,0.5,0.2,0.9,0.5,1.2
	c0.4,0.3,1,0.5,1.5,0.4c0.4,0,0.9-0.1,1.3-0.3C113.1,15,113.3,14.6,113.2,14.3z"/>
</svg>
