<svg id="Layer_1" data-name="Layer 1" xmlns="http://www.w3.org/2000/svg" viewBox="0 0 106.9 17"><defs><style>.cls-1{fill:#ff8a00;}.cls-2{fill:#fff;}</style></defs><polygon class="cls-1" points="9.8 0 0 8.5 9.8 17 9.8 17 106.9 17 106.9 0 9.8 0"/><path class="cls-2" d="M23.4,5.4l2.1,5.5,2.1-5.5h1.6v7.2H28V10.2L28.1,7,26,12.6h-.9L22.9,7l.1,3.2v2.4H21.7V5.4Z"/><path class="cls-2" d="M34.9,9.4h-3v2.2h3.5v1H30.7V5.3h4.7v1H32v2h3Z"/><path class="cls-2" d="M36.4,12.6V5.4h2.1a3.29,3.29,0,0,1,1.7.4A3.45,3.45,0,0,1,41.4,7a3.92,3.92,0,0,1,.4,1.8v.4a3.92,3.92,0,0,1-.4,1.8,3.45,3.45,0,0,1-1.2,1.2,3.29,3.29,0,0,1-1.7.4Zm1.3-6.2v5.2h.7a2,2,0,0,0,1.5-.6,2.27,2.27,0,0,0,.5-1.8V8.8A2.9,2.9,0,0,0,39.9,7a1.72,1.72,0,0,0-1.5-.6Z"/><path class="cls-2" d="M44.4,12.6H43.1V5.4h1.3Z"/><path class="cls-2" d="M50.1,10.9H47.3l-.6,1.7H45.4l2.7-7.2h1.1l2.7,7.2H50.6Zm-2.5-1h2.1l-1-3Z"/><path class="cls-2" d="M61.1,9.2a4.33,4.33,0,0,1-.4,1.9,2.94,2.94,0,0,1-1,1.2,2.89,2.89,0,0,1-3.1,0A3,3,0,0,1,55.4,11,3.92,3.92,0,0,1,55,9.2V8.8a4.33,4.33,0,0,1,.4-1.9,3.18,3.18,0,0,1,1.1-1.2,3.4,3.4,0,0,1,3.2,0,2.34,2.34,0,0,1,1,1.2,4.06,4.06,0,0,1,.4,1.9Zm-1.3-.4A2.9,2.9,0,0,0,59.3,7,1.69,1.69,0,0,0,57,6.7a1.24,1.24,0,0,0-.2.3,3.74,3.74,0,0,0-.5,1.8v.4a2.9,2.9,0,0,0,.5,1.8,1.6,1.6,0,0,0,2.3.3l.3-.3a4.14,4.14,0,0,0,.5-1.9V8.8Z"/><path class="cls-2" d="M68,10.8l1.1-5.4h1.3l-1.7,7.2H67.5L66.1,7.3l-1.4,5.3H63.5L61.8,5.4H63l1.1,5.4,1.4-5.4h1Z"/><path class="cls-2" d="M77,12.6H75.7L72.5,7.5v5.1H71.2V5.4h1.3l3.2,5.1V5.4H77Z"/><path class="cls-2" d="M82.7,9.4h-3v2.2h3.5v1H78.5V5.3h4.7v1H79.8v2h3Z"/><path class="cls-2" d="M86.9,9.8H85.5v2.8H84.2V5.4h2.5a3.08,3.08,0,0,1,1.9.6,2,2,0,0,1,.7,1.6,1.75,1.75,0,0,1-.4,1.2,3.92,3.92,0,0,1-1,.8l1.6,3v.1H88.1Zm-1.4-1h1.3a1.69,1.69,0,0,0,1-.3,1.27,1.27,0,0,0,.4-.9,1.4,1.4,0,0,0-.3-.9,1.21,1.21,0,0,0-1-.3H85.6Z"/><path class="cls-2" d="M94.3,10.7A.78.78,0,0,0,94,10a6.12,6.12,0,0,0-1.2-.5,3.51,3.51,0,0,1-1.4-.6,1.78,1.78,0,0,1-1-1.6,1.75,1.75,0,0,1,.7-1.4A3.08,3.08,0,0,1,93,5.3a2.77,2.77,0,0,1,1.3.3,1.6,1.6,0,0,1,.9.7,2,2,0,0,1,.3,1.1H94.2a1.09,1.09,0,0,0-.4-.9,1.82,1.82,0,0,0-2,0c-.2.2-.4.4-.3.7a.75.75,0,0,0,.4.7,6.12,6.12,0,0,0,1.2.5,4.24,4.24,0,0,1,1.4.6,2.7,2.7,0,0,1,.8.7,1.23,1.23,0,0,1,.2,1,1.51,1.51,0,0,1-.7,1.4,2.51,2.51,0,0,1-1.9.5,3.19,3.19,0,0,1-1.4-.3,3.92,3.92,0,0,1-1-.8,1.75,1.75,0,0,1-.4-1.2h1.3a1.28,1.28,0,0,0,.4,1,2.15,2.15,0,0,0,2.2,0C94.2,11.3,94.4,11,94.3,10.7Z"/></svg>