<svg xmlns="http://www.w3.org/2000/svg" viewBox="0 0 2411.21 2445"><defs><style>.a,.c{fill:#fff;}.b,.c{fill-rule:evenodd;}</style></defs><title>language</title><polygon points="1204.57 359.16 271.83 29.96 271.83 2060.05 1204.57 1758.28 1204.57 359.16"/><polygon class="a" points="1182.18 358.14 2150.63 28.95 2150.63 2059.04 1182.18 1757.27 1182.18 358.14"/><polygon class="a" points="29.96 2415.43 1182.18 2031.38 1182.18 357.92 29.96 741.97 29.96 2415.43"/><path d="M-488.76-38.75c-6.12-6,8,49.11,27.58,68.94,34.77,35.08,61.93,39.6,76.39,40.18,32,1.28,71.49-8,94.94-17.8,22.69-9.68,62.45-30,77.5-59.59,3.19-6.33,11.9-17,6.43-43.22-4.15-20.2-17-27.27-32.69-26.15s-63.15,13.72-86.11,20.78S-395-34.24-415.62-29.77-481.54-31.84-488.76-38.75Z" transform="translate(910.5 973.5)"/><path d="M92.6,620.17c-9.08-3.3-196.94-81.12-223.57-93.87-21.79-10.48-75.22-33.07-100.36-43.33,70.81-109.18,115.51-191.57,121.46-204.12,11-23,86-169.62,87.71-178.65s3.83-42.95,2.18-51c-1.65-8.19-29.13,7.55-66.44,20.2S-194.81,128.21-222.24,134s-115.51,39.07-160.53,54S-512.95,228.94-548,238.4s-65.7,10.21-85.32,16.16c0,0,2.61,27.48,7.82,35.72s23.71,28.44,45.29,34.08,57.3,3.4,73.57-.32,44.43-17.54,48.21-23.55-2-24.93,4.46-30.62,92.23-25.67,124.6-35.45C-297,224.47-173.07,181.79-156.27,184c-5.32,17.65-105,215.07-137.09,274S-512,775.92-551.7,821.58c-30.14,34.71-103.18,123.53-128.48,143.57,6.38,1.76,51.61-2.12,59.85-7.22C-569,926.3-483.45,819.83-455.91,787.4-374,691.4-302.13,590.56-245.1,504h.06c11.11,4.63,100.94,77.82,124.38,94s115.94,67.82,136,76.38,97.06,44.18,100.3,32.16S101.69,623.62,92.6,620.17Z" transform="translate(910.5 973.5)"/><path class="b" d="M240.5,1035.5l-1090,363v-1608l1090-363Zm61-1655v1680a34,34,0,0,1-7,15c-2,3-6,7-9,8-25,10-1151,388-1166,388-12,0-23-8-29-21,0-1-1-2-1-4v-1681c2-5,3-12,7-16,8-11,22-13,31-16,17-6,1126-378,1142-378C279.5-644.5,301.5-637.5,301.5-619.5Z" transform="translate(910.5 973.5)"/><path class="b" d="M1209.5,1043.5l-907-282v-1355l907-308Zm61-1985v2023c-1,23-17,33-32,33-13,0-107-32-123-37-126-39-253-78-378-117-28-9-57-18-84-27-24-7-50-15-74-23-107-33-216-66-323-102-4-1-14-15-14-18v-1413c2-5,4-11,9-15,8-9,351-123,486-168,36-13,487-168,501-168C1256.5-973.5,1270.5-960.5,1270.5-941.5Z" transform="translate(910.5 973.5)"/><polygon points="2411.21 2440.71 1199.5 2054.5 1204.57 373.2 2411.21 757.25 2411.21 2440.71"/><path class="c" d="M889.85,151.05,770.92,438.51l218.65,66.28ZM818.48-120.31,974.59-73,1259,952l-160.35-48.65L1041,692.92,709.66,592.48,638.4,763.9,478,715.24Z" transform="translate(910.5 973.5)"/></svg>