<?xml version="1.0" encoding="utf-8"?>
<!-- Generator: Adobe Illustrator 27.4.0, SVG Export Plug-In . SVG Version: 6.00 Build 0)  -->
<svg version="1.1" id="Layer_1" xmlns="http://www.w3.org/2000/svg" xmlns:xlink="http://www.w3.org/1999/xlink" x="0px" y="0px"
	 viewBox="0 0 14 14" style="enable-background:new 0 0 14 14;" xml:space="preserve">
<style type="text/css">
	.st0{fill:#001464;}
</style>
<path class="st0" d="M3.8,5.2H1.4v7.6h2.4V5.2z"/>
<path class="st0" d="M2.6,4.2c0.4,0,0.7-0.1,1-0.4C3.8,3.5,4,3.2,4,2.8s-0.1-0.7-0.4-1C3.3,1.6,3,1.4,2.6,1.4s-0.7,0.1-1,0.4
	c-0.3,0.3-0.4,0.6-0.4,1s0.1,0.7,0.4,1C1.9,4.1,2.2,4.2,2.6,4.2z"/>
<path class="st0" d="M7.5,8.8C7.5,7.8,8,7.1,9,7.1c0.9,0,1.3,0.6,1.3,1.7v4h2.4V8c0.1-0.6-0.1-1.2-0.4-1.8c-0.3-0.5-0.8-0.9-1.4-1.1
	c-0.6-0.2-1.2-0.2-1.8,0C8.4,5.3,7.9,5.7,7.6,6.2v-1H5.4v7.6h2.2L7.5,8.8z"/>
</svg>
