<?xml version="1.0" encoding="UTF-8"?>
<svg id="Layer_1" data-name="Layer 1" xmlns="http://www.w3.org/2000/svg" viewBox="0 0 20 20">
  <rect width="20" height="20" rx="3.1" ry="3.1" style="fill: #001464;"/>
  <path d="M15.6,11.2v4.5h-2.5v-4.2c0-1.1-.4-1.8-1.3-1.8s-1.1,.5-1.3,1c0,.2,0,.4,0,.6v4.4h-2.5s0-7.2,0-7.9h2.5v1.1s0,0,0,0h0c.3-.6,.9-1.3,2.2-1.3s2.9,1.1,2.9,3.6h0ZM5.4,4c-.9,0-1.4,.6-1.4,1.4s.5,1.4,1.4,1.4h0c.9,0,1.4-.6,1.4-1.4,0-.8-.5-1.4-1.4-1.4Zm-1.3,11.7h2.5V7.8h-2.5v7.9Z" style="fill: #fff;"/>
</svg>