<svg id="Capa_1" data-name="Capa 1" xmlns="http://www.w3.org/2000/svg" viewBox="0 0 512 512"><defs><style>.cls-1{fill:#fff;}</style></defs><path class="cls-1" d="M256,0a15,15,0,0,0-15,15v96.4a15,15,0,0,0,30,0V15A15,15,0,0,0,256,0Z"/><path class="cls-1" d="M256,385.6a15,15,0,0,0-15,15V497a15,15,0,0,0,30,0V400.6A15,15,0,0,0,256,385.6Z"/><path class="cls-1" d="M196.69,123.27l-48.2-83.48a15,15,0,0,0-26,15l48.2,83.48a15,15,0,1,0,26-15Z"/><path class="cls-1" d="M389.49,457.21l-48.2-83.48a15,15,0,1,0-26,15l48.2,83.48a15,15,0,0,0,26-15Z"/><path class="cls-1" d="M138.27,170.71l-83.48-48.2a15,15,0,1,0-15,26l83.48,48.2a15,15,0,0,0,15-26Z"/><path class="cls-1" d="M472.21,363.51l-83.48-48.2a15,15,0,0,0-15,26l83.48,48.2a15,15,0,1,0,15-26Z"/><path class="cls-1" d="M111.4,241H15a15,15,0,0,0,0,30h96.4a15,15,0,0,0,0-30Z"/><path class="cls-1" d="M497,241H400.6a15,15,0,0,0,0,30H497a15,15,0,0,0,0-30Z"/><path class="cls-1" d="M143.76,320.8a15,15,0,0,0-20.48-5.49l-83.49,48.2a15,15,0,1,0,15,26l83.48-48.2A15,15,0,0,0,143.76,320.8Z"/><path class="cls-1" d="M477.7,128a15,15,0,0,0-20.49-5.49l-83.48,48.2a15,15,0,1,0,15,26l83.48-48.2A15,15,0,0,0,477.7,128Z"/><path class="cls-1" d="M191.2,368.24a15,15,0,0,0-20.49,5.49l-48.2,83.48a15,15,0,1,0,26,15l48.2-83.48A15,15,0,0,0,191.2,368.24Z"/><path class="cls-1" d="M384,34.3a15,15,0,0,0-20.49,5.49l-48.2,83.48a15,15,0,1,0,26,15l48.2-83.48A15,15,0,0,0,384,34.3Z"/></svg>