<svg id="Layer_2" data-name="Layer 2" xmlns="http://www.w3.org/2000/svg" viewBox="0 0 29.2 25.23"><defs><style>.cls-1,.cls-2{fill:none;stroke:#0500A9;stroke-linecap:round;}.cls-1{stroke-linejoin:round;}.cls-2{stroke-miterlimit:10;}</style></defs><title>blog</title><polygon class="cls-1" points="19.28 12.48 28.7 3.07 26.12 0.5 16.71 9.91 16.71 9.91 16.71 9.91 16.68 9.94 16.7 9.96 15.37 13.82 19.24 12.5 19.25 12.51 19.28 12.48 19.28 12.48 19.28 12.48"/><path class="cls-2" d="M821.75,671.41H802.92a3.67,3.67,0,0,0-3.68,3.67v9.78a3.67,3.67,0,0,0,3.68,3.67h2.62v6.35l6.34-6.35h11.87a3.67,3.67,0,0,0,3.67-3.67v-7.78" transform="translate(-798.74 -670.86)"/><line class="cls-2" x1="5.3" y1="4.8" x2="18.43" y2="4.8"/><line class="cls-2" x1="5.3" y1="7.8" x2="14.43" y2="7.8"/><line class="cls-2" x1="5.3" y1="10.8" x2="11.43" y2="10.8"/><line class="cls-2" x1="5.3" y1="13.8" x2="11.43" y2="13.8"/></svg>