<svg id="Layer_2" data-name="Layer 2" xmlns="http://www.w3.org/2000/svg" viewBox="0 0 28.3 25.67"><defs><style>.cls-1{fill:none;stroke:#636F89;stroke-miterlimit:10;}</style></defs><title>training</title><polyline class="cls-1" points="18.56 15.41 0.5 15.41 0.5 0.5 22.94 0.5"/><line class="cls-1" x1="10.41" y1="6.62" x2="14.96" y2="8.87"/><line class="cls-1" x1="23.52" y1="17.02" x2="23.52" y2="25.67"/><path class="cls-1" d="M854.82,689.25a2.08,2.08,0,1,1-2-2.09A2,2,0,0,1,854.82,689.25Z" transform="translate(-848.31 -669.64)"/><path class="cls-1" d="M849.06,695.16a2.38,2.38,0,0,1,2.38-2.38H854a2.38,2.38,0,0,1,2.38,2.38" transform="translate(-848.31 -669.64)"/><path class="cls-1" d="M865,689.25a2.08,2.08,0,1,1-2-2.09A2,2,0,0,1,865,689.25Z" transform="translate(-848.31 -669.64)"/><path class="cls-1" d="M859.23,695.16a2.38,2.38,0,0,1,2.38-2.38h2.6a2.38,2.38,0,0,1,2.38,2.38" transform="translate(-848.31 -669.64)"/><line class="cls-1" x1="25.74" y1="25.67" x2="25.74" y2="11.32"/><path class="cls-1" d="M875,686.8a1.14,1.14,0,0,0,1.14-1.14v-6.94a.06.06,0,0,0,0,0,1.14,1.14,0,0,0-1.15-1.15h-10.5a1.15,1.15,0,0,0,0,2.29h5.15v15.49" transform="translate(-848.31 -669.64)"/><path class="cls-1" d="M873.85,673.86a2.06,2.06,0,0,1-2.07,2.07,2.08,2.08,0,1,1,0-4.16A2,2,0,0,1,873.85,673.86Z" transform="translate(-848.31 -669.64)"/><line class="cls-1" x1="2.91" y1="3.96" x2="14.76" y2="3.96"/><line class="cls-1" x1="2.91" y1="9.43" x2="8.5" y2="9.43"/><line class="cls-1" x1="2.91" y1="11.95" x2="10.85" y2="11.95"/><line class="cls-1" x1="3.04" y1="6.58" x2="5" y2="6.58"/></svg>