<svg id="Layer_2" data-name="Layer 2" xmlns="http://www.w3.org/2000/svg" viewBox="0 0 28.58 25.03"><defs><style>.cls-1,.cls-2{fill:none;stroke:#636F89;}.cls-1{stroke-miterlimit:10;}.cls-2{stroke-linecap:round;stroke-linejoin:round;}</style></defs><title>documentation</title><g id="manual"><path class="cls-1" d="M800.28,717.24h-.45a.89.89,0,0,0-.89.89v19.13a.89.89,0,0,0,.89.89h9.79a.43.43,0,0,1,.44.44.93.93,0,0,0,.89.89h3.56a.93.93,0,0,0,.89-.89.43.43,0,0,1,.45-.44h9.78a.89.89,0,0,0,.89-.89V718.13a.89.89,0,0,0-.89-.89h-.44" transform="translate(-798.44 -714.95)"/><path class="cls-2" d="M801.61,735.48s9.79-.52,11.12,1.33V717.07c-.85-1.78-11.12-1.61-11.12-1.61Z" transform="translate(-798.44 -714.95)"/><path class="cls-2" d="M823.85,735.48s-9.78-.52-11.12,1.33V717.07c.86-1.78,11.12-1.61,11.12-1.61Z" transform="translate(-798.44 -714.95)"/><polyline class="cls-1" points="18.29 8.51 20.07 8.51 20.07 13.85"/><line class="cls-1" x1="18.29" y1="14.29" x2="21.41" y2="14.29"/><circle class="cls-1" cx="20.07" cy="6.73" r="0.44"/></g></svg>