<svg width="30" height="22" viewBox="0 0 30 22" fill="none" xmlns="http://www.w3.org/2000/svg">
<path d="M24.9231 0H5.07692C2.27345 0 0 2.40817 0 5.37778V16.6222C0 19.5918 2.27345 22 5.07692 22H24.9231C27.7266 22 30 19.5918 30 16.6222V5.37778C30 2.40817 27.7266 0 24.9231 0ZM20.8756 11.2156L11.8756 16.1045C11.8035 16.1427 11.7188 16.1408 11.6503 16.0969C11.5817 16.0529 11.5385 15.9746 11.5385 15.8887V6.11091C11.5385 6.02498 11.5817 5.94668 11.6503 5.90275C11.7188 5.85883 11.8035 5.85692 11.8756 5.89511L20.8756 10.784C20.9531 10.826 21.0018 10.91 21.0018 11.0017C21.0018 11.0934 20.9531 11.1774 20.8756 11.2194V11.2156Z" fill="#636F89"/>
</svg>
