<svg id="Layer_2" data-name="Layer 2" xmlns="http://www.w3.org/2000/svg" viewBox="0 0 28.78 26.92"><defs><style>.cls-1,.cls-2{fill:none;stroke:#636F89;stroke-miterlimit:10;}.cls-2{stroke-linecap:round;}</style></defs><title>static</title><rect class="cls-1" x="0.5" y="2.91" width="27.78" height="15.47"/><path class="cls-1" d="M848.92,604.31s2.69-2.84,13.3,0,13.63,0,13.63,0" transform="translate(-847.99 -579.15)"/><line class="cls-1" x1="12.39" y1="24.26" x2="12.39" y2="18.43"/><line class="cls-1" x1="16.39" y1="25.26" x2="16.39" y2="18.43"/><line class="cls-2" x1="3.22" y1="0.5" x2="6.56" y2="0.5"/><line class="cls-1" x1="4.89" y1="3.05" x2="4.89" y2="0.53"/><line class="cls-2" x1="12.72" y1="0.5" x2="16.06" y2="0.5"/><line class="cls-1" x1="14.39" y1="3.05" x2="14.39" y2="0.53"/><line class="cls-2" x1="22.22" y1="0.5" x2="25.56" y2="0.5"/><line class="cls-1" x1="23.89" y1="3.05" x2="23.89" y2="0.53"/><polygon class="cls-1" points="5.92 13.56 14.2 13.56 10.06 7.23 5.92 13.56"/><polygon class="cls-1" points="3.12 13.56 8.71 13.56 5.91 9.29 3.12 13.56"/><line class="cls-1" x1="15.66" y1="7.55" x2="25.5" y2="7.55"/><line class="cls-1" x1="15.66" y1="9.55" x2="25.5" y2="9.55"/><line class="cls-1" x1="15.66" y1="11.55" x2="25.5" y2="11.55"/><line class="cls-1" x1="15.66" y1="13.55" x2="25.5" y2="13.55"/></svg>