<svg id="Layer_2" data-name="Layer 2" xmlns="http://www.w3.org/2000/svg" viewBox="0 0 31.12 27.18"><defs><style>.cls-1{fill:none;stroke:#636F89;stroke-miterlimit:10;}.cls-2{fill:#3363ad;}</style></defs><title>programmatic</title><path class="cls-1" d="M904.89,597.5a8.53,8.53,0,0,1-4.09-2.37l-2,.76-1.7-2.94,1.67-1.37a8.4,8.4,0,0,1,0-4.73l-1.67-1.37,1.7-2.94,2,.76a8.38,8.38,0,0,1,4.09-2.37l.35-2.13h3.4l.35,2.13a8.38,8.38,0,0,1,4.09,2.37l2-.76,1.7,2.94-1.67,1.37" transform="translate(-896.43 -578.3)"/><path class="cls-1" d="M910.24,586.46a4.29,4.29,0,1,0-5.39,6.5" transform="translate(-896.43 -578.3)"/><g id="_3" data-name="3"><path class="cls-2" d="M924.77,603.65h-13.7a.31.31,0,1,1,0-.62h13.7a.31.31,0,1,1,0,.62Z" transform="translate(-896.43 -578.3)"/><path class="cls-2" d="M908.68,604a.27.27,0,0,1-.28-.28V603a.27.27,0,0,1,.28-.28.28.28,0,0,1,.28.28v.69A.28.28,0,0,1,908.68,604Z" transform="translate(-896.43 -578.3)"/><path class="cls-2" d="M909.43,604a.27.27,0,0,1-.28-.28V603a.27.27,0,0,1,.28-.28.28.28,0,0,1,.28.28v.69A.28.28,0,0,1,909.43,604Z" transform="translate(-896.43 -578.3)"/></g><line class="cls-1" x1="10.51" y1="23.4" x2="30.62" y2="23.4"/><rect class="cls-1" x="10.51" y="10.9" width="20.11" height="15.77" rx="0.54"/><path class="cls-1" d="M908.64,599.61l.35-2.13a8.43,8.43,0,0,0,4.09-2.36l2,.76,1.7-2.94-1.67-1.37c.09-.32.16-.64.22-1" transform="translate(-896.43 -578.3)"/><path class="cls-1" d="M911,590.61a4.31,4.31,0,0,1-2.65,2.64" transform="translate(-896.43 -578.3)"/></svg>