<svg id="Layer_2" data-name="Layer 2" xmlns="http://www.w3.org/2000/svg" viewBox="0 0 30.24 24.26"><defs><style>.cls-1,.cls-2{fill:none;stroke:#636F89;}.cls-1{stroke-linejoin:round;}.cls-2{stroke-miterlimit:10;}</style></defs><title>forDsps</title><path class="cls-1" d="M862.58,639.12a4.78,4.78,0,1,0-8,3.56h0l3.18,3.18,3.18-3.18h0A4.76,4.76,0,0,0,862.58,639.12Z" transform="translate(-846.9 -624.53)"/><rect class="cls-2" x="0.5" y="7.77" width="21.97" height="15.99" rx="0.78"/><path class="cls-2" d="M870.69,644.64h1.56a.78.78,0,0,0,.78-.78V629.43a.78.78,0,0,0-.78-.78H851.84a.78.78,0,0,0-.78.78v1.4" transform="translate(-846.9 -624.53)"/><path class="cls-2" d="M874.31,641h1.55a.78.78,0,0,0,.78-.78V625.81a.78.78,0,0,0-.78-.78H855.45a.78.78,0,0,0-.78.78v1.4" transform="translate(-846.9 -624.53)"/><circle class="cls-2" cx="10.9" cy="14.59" r="2.61"/></svg>