<svg id="Layer_2" data-name="Layer 2" xmlns="http://www.w3.org/2000/svg" viewBox="0 0 30.92 26.98"><defs><style>.cls-1,.cls-2,.cls-3{fill:none;stroke:#636F89;}.cls-1,.cls-3{stroke-miterlimit:10;}.cls-2{stroke-linejoin:round;}.cls-3{stroke-linecap:round;}</style></defs><title>ebooks_webinars</title><path class="cls-1" d="M867.18,722.31V715a1.43,1.43,0,0,0-1.44-1.44H850a1.43,1.43,0,0,0-1.44,1.44v12.13" transform="translate(-846.67 -713.1)"/><path class="cls-1" d="M862.9,727.17H847.17v1.42a.71.71,0,0,0,.71.71h15" transform="translate(-846.67 -713.1)"/><circle class="cls-1" cx="11.24" cy="7.48" r="3.44"/><polygon class="cls-2" points="10.47 5.89 10.47 9.05 12.89 7.47 10.47 5.89"/><path class="cls-1" d="M862.94,723.54V738a1.52,1.52,0,0,0,1.53,1.53h12.62V725.19H864.47a1.53,1.53,0,0,1-1.53-1.53v0a1.53,1.53,0,0,1,1.53-1.53h11.18" transform="translate(-846.67 -713.1)"/><line class="cls-3" x1="17.86" y1="10.56" x2="29.7" y2="10.56"/></svg>