<svg width="49" height="50" viewBox="0 0 49 50" fill="none" xmlns="http://www.w3.org/2000/svg">
<g clip-path="url(#clip0)">
<path d="M16.0094 18.1354C15.7546 18.1354 15.4828 18.0472 15.279 17.871C14.7524 17.448 14.6675 16.6725 15.0751 16.1438C15.4489 15.6503 18.8463 11.35 22.6174 11.35C24.6389 11.35 26.0658 11.8082 27.2209 12.1784C28.0873 12.4603 28.7667 12.6718 29.5142 12.6718C30.7712 12.6718 31.8754 12.5308 32.8606 12.2136C31.5187 11.632 30.4824 10.8213 28.8177 8.724C27.2549 6.73246 22.9062 2.29115 16.519 3.91258L16.0094 3.94783C15.3469 3.94783 14.8203 3.40148 14.8203 2.71413C14.8203 2.02679 15.3469 1.48044 16.0094 1.48044H16.0944C23.7216 -0.352485 28.8177 4.82904 30.6523 7.15545C32.6228 9.64047 33.2174 9.83433 35.7315 10.5746L38.7891 11.5086L36.7337 12.9714C34.0327 14.8925 31.3148 15.104 29.5142 15.104C28.41 15.104 27.4927 14.8044 26.5244 14.5048C25.4203 14.1523 24.2821 13.7822 22.6174 13.7822C20.3921 13.7822 17.7591 16.5668 16.9437 17.6419C16.7059 17.9767 16.3492 18.1354 16.0094 18.1354Z" fill="#4CD9ED"/>
<path d="M15.57 40.5182C14.9075 40.5182 14.3809 39.9718 14.3809 39.2845V1.2337C14.3809 0.546352 14.9075 0 15.57 0C16.2325 0 16.7591 0.546352 16.7591 1.2337V39.2845C16.7591 39.9718 16.2155 40.5182 15.57 40.5182Z" fill="#4CD9ED"/>
<path d="M12.4954 36.1121C10.6438 36.9052 9.55664 38.3327 9.55664 39.9366C9.55664 42.4392 12.2066 44.3955 15.5701 44.3955C18.9335 44.3955 21.5835 42.4392 21.5835 39.9366C21.5835 38.3151 20.4793 36.8876 18.6108 36.0945C18.3899 35.9887 18.1012 35.9006 17.9313 35.9006V38.4914C18.6957 38.8791 19.2053 39.4254 19.2053 39.9366C19.2053 40.8706 17.6425 41.9281 15.5701 41.9281C13.4976 41.9281 11.9348 40.8883 11.9348 39.9366C11.9348 39.4254 12.4275 38.8967 13.1919 38.509V35.9359C12.971 35.9535 12.7332 36.0063 12.4954 36.1121Z" fill="#4CD9ED"/>
<path d="M24.7423 30.0141C22.517 30.0141 20.2917 30.1375 18.1173 30.4018C18.0494 30.4018 17.9984 30.4195 17.9135 30.4371V32.9573C18.0664 32.9221 18.2192 32.8869 18.3721 32.8692C20.4615 32.6225 22.6019 32.4991 24.7423 32.4991C37.3637 32.4991 46.163 36.4646 46.163 40.0247C46.163 43.5848 37.3637 47.5502 24.7423 47.5502C12.1209 47.5502 3.32155 43.5671 3.32155 40.007C3.32155 37.6454 7.17763 35.1956 13.1401 33.7681C13.1571 33.7681 13.1741 33.7504 13.1911 33.7504V31.2125C12.9872 31.2654 12.8173 31.3183 12.6135 31.3712C5.19013 33.1336 0.943359 36.2883 0.943359 40.007C0.943359 46.4928 13.208 50 24.7423 50C36.2765 50 48.5412 46.4928 48.5412 40.007C48.5582 33.5213 36.2935 30.0141 24.7423 30.0141Z" fill="#4CD9ED"/>
</g>
<defs>
<clipPath id="clip0">
<rect width="47.6148" height="50" fill="white" transform="translate(0.943359)"/>
</clipPath>
</defs>
</svg>
