<svg id="Layer_1" data-name="Layer 1" xmlns="http://www.w3.org/2000/svg" viewBox="0 0 194 194"><defs><style>.cls-1{fill:#fff;}</style></defs><path class="cls-1" d="M49.05,177c-1.55,2.31-4.31,2.44-6.94.71-2.89-1.93-3.66-4.17-1.8-6.93l4.43-6.6-.89-.71,1-1.41,4.11,2.76-.9,1.35-.58-.33c-.32-.19-.51-.19-.77.26l-4.11,6.16c-1.22,1.79-.58,2.94.84,3.91s2.76.83,3.78-.71l4.5-6.73-.84-.64,1-1.41,3.91,2.63-.9,1.34-.57-.32a.54.54,0,0,0-.84.2Z"/><path class="cls-1" d="M61.88,187.78l-2.24-1-1.54-12H58l-3.53,7.82,1,.51-.71,1.54-4.43-2,.65-1.47.64.19c.32.13.51.06.7-.32l4.18-9.3-1-.51.71-1.54,3.47,1.54L61.18,183h.06l3.47-7.7-1-.51.71-1.54,4.43,2-.64,1.47-.65-.19c-.38-.13-.57-.06-.77.39Z"/><path class="cls-1" d="M70.49,177.4,69.4,177l.51-1.6,4.75,1.41-.45,1.54-.64-.13c-.39-.07-.58,0-.71.45l-3,9.68,1.09.38-.51,1.61-4.75-1.42.45-1.53.64.12c.38.07.58,0,.7-.51Z"/><path class="cls-1" d="M79.67,189.64l4.75-9-1.09-.26.32-1.66,4.49.83-.26,1.6-.45-.06c-.38-.06-.57.06-.83.58l-6,11-2.95-.51-1.93-13-1.09-.26.32-1.66,5,.9-.26,1.6-.64-.07c-.51,0-.71.13-.64.77Z"/><path class="cls-1" d="M88,192l.52-.06c.57-.07.7-.13.7-.71l.39-10.06-1.16-.13.07-1.67,9.75.32L98.16,183l-2.06.13.07-1c0-.38-.13-.57-.52-.57l-3.34-.13-.12,4,5.13.19-.06,2-5.14-.19-.32,4.48,3.59.13c.45,0,.52-.13.52-.58l.06-1.08,2.06.25L97.9,194l-10-.38Z"/><path class="cls-1" d="M100.79,192.33l.64-.12c.38-.07.51-.2.45-.71l-1.09-10.07-1.16.07-.19-1.67,5.91-.64c3.14-.32,5.26.45,5.58,3.27a3.68,3.68,0,0,1-2.5,4.1,2.63,2.63,0,0,1,1.67,1.29l2.05,3.2,1-.06.2,1.66-5,.52-.19-1.61.77-.13c.38-.06.38-.31.19-.7l-1.34-2.12a1.64,1.64,0,0,0-1.74-.89l-1.93.19.39,3.85,1-.07.2,1.67-4.75.51Zm5.26-6.41a2.36,2.36,0,0,0,2.31-2.88c-.19-1.93-1.35-2.18-3.4-1.93l-1.48.13.52,4.87Z"/><path class="cls-1" d="M121.71,186.5c-.32-1.35-1.6-1.54-3.14-1.54-2.06,0-4.3-.32-4.94-3s.9-4.55,3.78-5.32a11.05,11.05,0,0,1,4-.26l.83,3.27-2,.64L120,179c-.06-.32-.19-.51-.51-.51a7.53,7.53,0,0,0-1.54.19c-1.09.25-2.12,1-1.8,2.31s1.54,1.41,3.27,1.53c2.06.13,4.24.32,4.88,3s-.77,4.74-4,5.58a10,10,0,0,1-4.3.31l-.84-3.33,2-.7.39,1.41c.06.32.19.51.51.51a5.63,5.63,0,0,0,1.67-.26C121,188.87,122.1,188.1,121.71,186.5Z"/><path class="cls-1" d="M124.67,176.63l-1.09.32-.58-1.61,4.62-1.73.58,1.54-.58.32c-.32.19-.45.32-.26.77l3.54,9.49,1.09-.32.57,1.6-4.62,1.73-.58-1.54.58-.25c.32-.19.45-.32.26-.84Z"/><path class="cls-1" d="M133.27,173.16l-1.73.9c-.39.19-.39.39-.26.71l.58,1.15-1.93.77-1.6-3.21,10.46-5.25,1.61,3.2-1.8,1.09-.58-1.15c-.19-.32-.32-.45-.7-.26l-1.74.84,4.75,9.42,1.41-.64.77,1.54-5.07,2.56-.7-1.41.83-.51c.39-.26.45-.45.26-.84Z"/><path class="cls-1" d="M147.52,173.1l-7.19-3.65-.7.38-1-1.41,4.11-2.82.9,1.35-.45.38c-.32.26-.26.58.19.83l4.11,2.25h.07l-.77-5.39-.84.52-1-1.42,3.53-2.43.9,1.34-.32.32c-.32.26-.32.52-.26,1l.84,7.24,2,3,1.15-.71,1,1.41-4.5,3.08-.89-1.35.64-.51c.32-.32.38-.45.13-.9Z"/><path class="cls-1" d="M31.91,151.11l-.45-.51c-.26-.26-.45-.32-.84,0l-8.15,6,.58,1-1.35,1-3.6-4.93c-1.86-2.57-1.79-5,.58-6.67,2.63-1.92,5.27-1,7.19,1.6L27,150,29.59,148l-1.09-1.6,1.35-1,3.4,4.62ZM24.52,150c-1.09-1.54-2.44-2.12-4-1-1.86,1.35-1.41,2.63-.26,4.24l.84,1.15,4.43-3.21Z"/><path class="cls-1" d="M24.59,140.92l-.39-.58c-.19-.32-.38-.39-.83-.13l-9,4.62.45,1-1.48.77-2.69-5.25c-1.42-2.83-1.48-5.07,1.09-6.35a3.67,3.67,0,0,1,4.68.83,2.36,2.36,0,0,1,.58-2l2.25-3.07-.39-.9,1.48-.77,2.25,4.42-1.42.71-.38-.64c-.19-.32-.45-.26-.71.06l-1.47,2.05a1.54,1.54,0,0,0-.2,1.93l.9,1.66,3.41-1.73-.39-.9,1.48-.77L26,140.15Zm-7.83-2.57a2.36,2.36,0,0,0-3.54-1.09c-1.73.9-1.54,2-.57,3.91l.7,1.29,4.37-2.25Z"/><path class="cls-1" d="M18.55,122.84c1.22,3.65-.45,6.6-5.07,8.07-5.2,1.74-8.09-.83-9-3.71-1-3.08,0-6.29,5.2-8C14.25,117.71,17.4,119.25,18.55,122.84Zm-2.12.57c-.83-2.5-3.46-2.43-5.9-1.6-2.06.71-4.82,2.18-3.92,4.94.84,2.5,3.53,2.56,5.91,1.79S17.4,126.3,16.43,123.41Z"/><path class="cls-1" d="M12.39,107.32l-3.34.51.13,1.42-1.67.25-.77-4.93,1.61-.26.12.58c.13.38.26.51.71.44l4-.64a8.35,8.35,0,0,1,2.06,4.62c.64,4.1-1.35,6.73-6.29,7.5-5.46.83-7.83-2-8.41-5.71a10.34,10.34,0,0,1,.19-4.35l3.34-.52.45,2-1.48.26c-.38.06-.51.13-.58.45a8.16,8.16,0,0,0,.07,1.73c.45,3,2.63,4,5.78,3.53,3.33-.52,5.2-1.93,4.75-4.62A3.6,3.6,0,0,0,12.39,107.32Z"/><path class="cls-1" d="M12.52,102.32l-.07-.64c-.06-.39-.12-.51-.64-.51L1.73,101.1l-.06,1.16H0l.06-5.9c0-3.14,1.1-5.19,3.92-5.13a3.63,3.63,0,0,1,3.79,3,2.49,2.49,0,0,1,1.47-1.54L12.65,91l.06-1h1.67l-.06,5H12.71l-.06-.77c-.07-.38-.32-.45-.65-.25L9.76,95.08a1.63,1.63,0,0,0-1.09,1.66v1.93h3.85l.06-1h1.67l-.06,4.74Zm-5.78-5.9a2.42,2.42,0,0,0-2.57-2.63c-1.92,0-2.31,1.09-2.31,3.15v1.47l4.88.06Z"/><path class="cls-1" d="M14.19,89.82l-1.61-.26v-.51a.8.8,0,0,0-.51-.83L2.7,83.09l-.32,1.09L.71,83.92l.77-4.61,13-2.25L14.76,76l1.67.26-.89,5L13.93,81l.06-.7c0-.39-.12-.58-.57-.52l-1.8.32-.84,4.81L12.9,86,13.16,85l1.67.25ZM9.24,84.11l.71-4L3.66,81v.06Z"/><path class="cls-1" d="M4.88,66.23,15,66.35v-.06L7.38,59.56l1.48-4,1.54.58-.13.58c-.13.38,0,.64.45.83l9.69,3,.45-1,1.61.58L20.8,64.5l-1.54-.58.19-.64c.13-.39,0-.52-.51-.71L11.3,60.14v.06l7.06,6.41-.71,1.86-9.43.06v.07l7.89,3.52.45-1,1.61.58L16.5,76,15,75.46l.19-.64c.06-.39,0-.58-.45-.77L5.52,69.88l-.45,1-1.6-.58Z"/><path class="cls-1" d="M13.48,47.63l9.89,2.25.06-.07-6.1-8.2L19.64,38l1.35.9-.25.51a.6.6,0,0,0,.25.9l8.86,4.93.64-.9,1.42.9-2.57,4L28,48.34l.32-.64c.19-.39.06-.51-.38-.77l-7-4V43l5.58,7.69-1.09,1.67-9.24-1.92v.06l7,5.06.65-.89,1.41.89-2.57,3.91-1.35-.89.32-.58c.2-.32.13-.58-.32-.9l-8.09-6-.64.89-1.41-.89Z"/><path class="cls-1" d="M32.23,45.07,31.07,44l.32-.38c.32-.39.19-.65,0-1l-4.94-9.42-.84.7L24.39,32.7l3.21-3.4,12.07,5.38.84-.7,1.22,1.15L38.2,38.85,37,37.76l.45-.58c.26-.32.19-.57-.19-.7l-1.67-.71L32.29,39.3l1.16,2.12.77-.77,1.22,1.15Zm-1-7.44L34,34.75,28.25,32v.07Z"/><path class="cls-1" d="M36.53,23.72,35,24.94c-.32.26-.32.51-.07.77l.77,1L34,27.89l-2.24-2.82L41,17.76l2.24,2.82L41.66,22l-.77-1c-.25-.26-.45-.39-.77-.13l-1.47,1.22,6.54,8.2,1.22-.89,1,1.34L43,34.3,42,33l.71-.64c.39-.32.39-.52.06-.9Z"/><path class="cls-1" d="M45,17.37,44,18l-.89-1.41,4.17-2.63.83,1.35-.51.38c-.32.26-.39.45-.13.84l5.39,8.59,1-.58.9,1.41-4.17,2.63-.84-1.35.52-.38c.32-.26.38-.45.12-.9Z"/><path class="cls-1" d="M56.94,10.9c-2.5,1.15-2.95,3.46-1.6,6.35s3.4,4.42,6.22,3.07a6.57,6.57,0,0,0,1.35-.83.52.52,0,0,0,.07-.77l-.65-1.41,1.93-.77,1.48,3.14a8.77,8.77,0,0,1-3.47,2.57c-3.85,1.86-7.19.77-9.31-3.66-2.37-5-.19-8.14,2.83-9.61a10.43,10.43,0,0,1,4.1-1L61.37,11l-1.8,1-.64-1.34c-.13-.32-.26-.45-.64-.39A10.5,10.5,0,0,0,56.94,10.9Z"/><path class="cls-1" d="M70.87,16.73l.58-.25c.32-.13.51-.26.38-.71L69.46,6l-1.09.19L68,4.49l5.65-1.35c4-1,7,.51,8.09,4.87,1.35,5.45-1.28,8.15-4.62,9L71.32,18.4Zm3.6-1.15,1.86-.45C79,14.49,80,12.5,79.15,9c-1-4-3-4.49-5.26-3.92L72,5.51Z"/><path class="cls-1" d="M84.67,2.82l-1.15.07-.19-1.67L88.27.64l.19,1.6-.64.13c-.39.07-.51.26-.45.71l1.16,10.06,1.15-.06.19,1.67-4.94.57-.19-1.6.64-.13c.39-.06.51-.19.45-.77Z"/><path class="cls-1" d="M100.14,12.18V8.78l-1.41-.06V7.05h5v1.6l-.58.07c-.38.06-.51.19-.51.64v4.1a8.86,8.86,0,0,1-4.88,1.29c-4.11,0-6.48-2.44-6.42-7.38,0-5.51,3.27-7.37,7-7.37a9.66,9.66,0,0,1,4.3.9V4.3l-2.05.12V3c0-.39-.07-.51-.39-.64a6.42,6.42,0,0,0-1.73-.19c-3,0-4.37,2-4.43,5.12,0,3.4,1.09,5.39,3.78,5.45A4.9,4.9,0,0,0,100.14,12.18Z"/><path class="cls-1" d="M107.72,2.63l-1.09-.19.19-1.67,4.88.64L111.51,3h-.64c-.39,0-.58.13-.65.58l-1.28,10.07,1.09.19-.19,1.66L105,14.87l.19-1.6h.64c.39,0,.58-.06.65-.58Z"/><path class="cls-1" d="M118.12,4.55l-1.93-.45c-.38-.13-.57.07-.64.39l-.32,1.22-1.92-.65.83-3.46L125.5,4.36l-.83,3.46-2.06-.32.32-1.22c.07-.38.07-.57-.38-.7l-1.86-.45-2.51,10.26,1.48.45-.38,1.66-5.53-1.34.39-1.54,1,.13c.45.06.65,0,.77-.52Z"/><path class="cls-1" d="M120.88,17.76l.58-1.48.51.13c.52.13.64-.06.9-.32L129.8,8l-1-.51L129.48,6l4.37,1.73L133.4,20.9l1,.51L133.72,23,129,21.09l.58-1.47.7.19c.39.13.58,0,.58-.45l.07-1.79-4.56-1.8-1.54,1.86,1,.45-.64,1.54Zm6.55-3.66,3.72,1.48.39-6.35h-.07Z"/><path class="cls-1" d="M141.55,13.08l-1-.64.83-1.48,4.31,2.5-.84,1.41-.64-.25c-.39-.2-.58-.13-.84.32l-5,8.59,3,1.79c.39.26.58.2.77-.19l.71-1.22,1.73,1.16-1.86,3.2-8.54-5,.84-1.41.58.26c.38.13.57.13.77-.32Z"/><path class="cls-1" d="M151.63,35.58c-2.89-2.56-2.89-6,.32-9.55,3.66-4.1,7.38-3.33,9.7-1.28s3.2,5.45-.45,9.49C158,37.89,154.52,38.15,151.63,35.58ZM153.24,34c2,1.73,4.23.39,5.9-1.54,1.48-1.6,3-4.29.9-6.21-2-1.74-4.3-.45-6,1.41C152.46,29.56,151,32.06,153.24,34Z"/><path class="cls-1" d="M168,47c-2.18,1.73-4.81,1.09-6.8-1.41-2.19-2.75-2.25-5.06.38-7.18l6.16-4.93-.64-1,1.35-1,3.08,3.85-1.28,1-.45-.45c-.26-.25-.45-.32-.84,0l-5.77,4.62c-1.67,1.34-1.42,2.69-.39,4a2.42,2.42,0,0,0,3.79.45l6.29-5.06-.64-.9,1.35-1,2.95,3.66-1.28,1-.46-.45c-.25-.25-.44-.32-.83-.06Z"/><path class="cls-1" d="M178.72,48.85l-1-1.73c-.19-.38-.45-.38-.77-.19l-1.09.64-.9-1.86,3.08-1.79,5.78,10.13-3.09,1.79-1.15-1.73,1.09-.64c.32-.19.45-.39.26-.77L180,51l-9.19,5.26.71,1.35-1.48.83-2.82-4.94,1.41-.77.58.77c.26.39.45.45.9.2Z"/><path class="cls-1" d="M178.21,58.92l2.24,5.13-1.79.77-2.25-5.13Z"/><path class="cls-1" d="M175.9,73.86c-1.1-3.66.7-6.61,5.33-8,5.26-1.54,8,1.09,8.92,4s-.19,6.29-5.39,7.83C180.07,79.11,177,77.51,175.9,73.86Zm2.18-.45c.77,2.56,3.4,2.5,5.84,1.79,2.12-.64,4.88-2,4-4.81-.76-2.5-3.4-2.69-5.84-2S177.24,70.46,178.08,73.41Z"/><path class="cls-1" d="M179.75,80.84l.19.64c.13.39.19.52.71.45l10-1.34-.06-1.09,1.67-.26,1.41,10.13-3.28.45-.44-2,1-.13c.38-.06.58-.19.51-.64l-.51-3.85-4.17.58.7,5.32-1.92.26L184.82,84l-4.37.57.13,1.61-1.67.25-.7-5.32Z"/><path class="cls-1" d="M186.62,91.68l.19,5.58-2,.06-.19-5.58Z"/><path class="cls-1" d="M192.14,101l.19-1.09,1.67.19-.51,4.94-1.61-.19v-.65c0-.38-.13-.57-.58-.64l-3.53-.38-.64,6.15,4.11.39.19-1.09,1.67.19-.51,4.81-1.61-.19v-.65c0-.38-.06-.57-.58-.57l-10.07-1-.2,1.09-1.67-.19.52-4.87,1.6.19v.64c0,.39.13.58.58.58l3.92.38.64-6.15-4.56-.45-.19,1.09-1.67-.19.51-4.88,1.61.2v.64c0,.38.06.57.57.64Z"/><path class="cls-1" d="M176.22,119.31c1-3.65,4-5.19,8.73-3.91,5.33,1.47,6.23,5.19,5.39,8.14s-3.53,5.26-8.73,3.78C176.92,126,175.19,123,176.22,119.31Zm2.12.77c-.71,2.56,1.54,3.91,4,4.62,2.11.57,5.2.83,6-1.93.7-2.5-1.48-4.1-3.92-4.74S179.17,117.19,178.34,120.08Z"/><path class="cls-1" d="M185.27,137l-10.08-1.1V136l6.93,7.44-1.92,3.78-1.48-.71.19-.57a.59.59,0,0,0-.32-.84l-9.31-3.91-.57,1-1.54-.76,2.11-4.24,1.48.71-.26.64c-.19.38,0,.51.45.77l7.39,3.2v-.06l-6.42-7,.9-1.73,9.37.9v-.07l-7.51-4.29-.52,1-1.54-.77,2.12-4.17,1.48.71-.26.57c-.13.39-.06.58.39.84l8.73,5.06.57-1,1.55.77Z"/><path class="cls-1" d="M167.68,143l-.26.45c-.32.51-.25.64.2,1l8.08,6,.77-.83,1.35,1L172,158.42l-2.63-1.93,1.09-1.79.84.58c.32.25.51.25.77-.13l2-2.69L170.82,150l-3,4.1L166.2,153l3-4.1-3.53-2.57-2.12,2.89c-.26.32-.19.51.19.77l.9.64-1.35,1.6-2.76-2,5.91-8Z"/><path class="cls-1" d="M92.57,91.1l-1.16,3.46h2.32Z"/><path class="cls-1" d="M121.59,91.1l-1.16,3.46h2.31Z"/><path class="cls-1" d="M86.09,92.19c0-1.09-.65-1.28-1.8-1.28h-.84v2.82h1.16A1.43,1.43,0,0,0,86.09,92.19Z"/><path class="cls-1" d="M143.54,42.51H49.17a8.29,8.29,0,0,0-8.28,8.27v56.54c0,18.08,6.87,39.49,43.08,57.7,2.89,1.41,5.9,2.89,9.11,4.23a8.45,8.45,0,0,0,6.62,0c3.21-1.41,6.29-2.82,9.11-4.23,36.21-18.21,43.08-39.68,43.08-57.7V50.78A8.35,8.35,0,0,0,143.54,42.51Zm-3.4,47.12a6,6,0,0,1,2.37.45V92l-1.15.06v-.83c0-.19,0-.32-.19-.38a3.18,3.18,0,0,0-.9-.13c-1.54,0-2.38,1.09-2.38,2.88s.65,3.14,2.44,3.14a4.63,4.63,0,0,0,.9-.12c.19-.07.26-.13.26-.39v-.9l1.15.07v2a5,5,0,0,1-2.37.52c-2.44,0-3.85-1.35-3.85-4.17C136.35,90.72,138.21,89.63,140.14,89.63Zm-4.94,7.31v1h-2.83V97l.39-.06c.19,0,.32-.07.32-.39V90.78l-.64-.06v-1h2.82v.89l-.38.07c-.2,0-.33.13-.33.38v5.77ZM101.94,66.42V54.11h30.75V69.24l-3.14.32-2.76.32V87h-3.53V69.69c0-1.86.45-2.69,1.47-3.08a6.82,6.82,0,0,1,1.29-.26l3.14-.32V57.64H105.47v8.78l3.15.19,2.25.13V87h-3.54V70.07l-2-.13-3.34-.19Zm28.25,24.43H129.1v6l.9.07v1h-3.28V97l.58-.06c.26,0,.32-.13.32-.39v-5.7h-1.15c-.26,0-.33.12-.33.32v.7L125,91.74v-2h6.68v2l-1.16.13v-.64C130.51,91,130.45,90.85,130.19,90.85Zm-6.87,5.7-.32-1h-2.76l-.45,1.28.64.07v1H117.8V97l.32-.06a.48.48,0,0,0,.38-.39l2-5.77-.65-.06v-1h2.64l2.5,7.11.64.07v1h-2.89V97l.39-.06C123.32,96.94,123.38,96.81,123.32,96.55Zm-8.15-.06-.26-4.56-2,5.07h-1.16l-1.92-5-.26,4.94.64.06v1h-2.69V97l.38-.06c.2,0,.32-.13.32-.39l.39-5.7-.64-.07v-1h2.37l2,5.45h.07l2-5.45h2.44v.9l-.32.06c-.26,0-.39.13-.32.39l.38,5.77.65.06v1h-2.7V97l.38-.06C115.1,96.94,115.17,96.81,115.17,96.49ZM97.06,97l.39-.06c.19,0,.32-.13.32-.39l.39-5.7-.65-.07v-1h2.38l2,5.45h.06L104,89.82h2.44v.9l-.32.06c-.26,0-.39.13-.33.39l.39,5.77.64.06v1h-2.69V97l.38-.06c.26,0,.26-.13.26-.45l-.26-4.56-2,5.07h-1.16l-1.92-5-.26,4.94.64.06v1H97.13V97Zm7.58,19.43c1.8-1.67,2.69-4.36,2.69-7.89v-7.89h3.54v7.89c0,3.85-.9,6.86-2.57,9-.13.19-.26.32-.39.51a2.19,2.19,0,0,1-.38.45,1,1,0,0,0-.2.26l-.44.45c-.26.19-.45.38-.71.57a9.6,9.6,0,0,1-1.35.84c-.19.13-.38.19-.58.32s-.19.06-.32.13-.38.19-.57.25-.2.07-.33.13l-.64.19c-.25.07-.51.13-.7.2s-.39.06-.58.12a20.39,20.39,0,0,1-4,.39c-8.47,0-14.5-3.34-14.5-14.43v-7.31h3.53V108c0,4.17,1,7.05,2.82,8.72,1.73,1.48,4.37,2.18,8.15,2.18C100.34,118.86,102.91,118,104.64,116.43ZM81.27,90.78v-1h3.4c1.8,0,3,.58,3,2.18A2.17,2.17,0,0,1,86,94.18c.45.13.64.45.9.83l1,1.93.58.06v1H85.57V97l.45-.06c.19,0,.26-.2.13-.39l-.64-1.28a.89.89,0,0,0-1-.58h-1.1v2.18l.58.07v1H81.34V97l.38-.06c.26,0,.32-.07.32-.39V90.78ZM96,96.87l.64.07v1H93.73V97l.38-.06c.26,0,.32-.13.19-.39l-.32-1H91.16l-.45,1.28.64.07v1H88.72V97l.32-.06a.48.48,0,0,0,.38-.39l2-5.77-.64-.06v-1H93.4ZM60.09,66.42V54.11H91.86V69.24l-3.21.32L86,69.82V87H82.43V69.69a4.81,4.81,0,0,1,.38-2.18c0-.07.07-.07.07-.13s.06-.13.13-.19a1.71,1.71,0,0,1,.51-.45c.06-.06.13-.06.19-.13A5,5,0,0,1,85,66.29L88.33,66v-8.4H63.62v8.78l3.66.26,2,.13V86.93H65.74V70l-2.44-.19L60,69.56V66.42ZM78.19,91a4.1,4.1,0,0,0-1-.12c-1.74,0-2.51,1.15-2.51,2.94s.65,3.08,2.19,3.08a3,3,0,0,0,1.34-.32V94.63l-.77-.07v-1h2.83v.9l-.32.06c-.19,0-.32.13-.32.39v2.37a5.38,5.38,0,0,1-2.76.77c-2.38,0-3.66-1.35-3.66-4.17,0-3.14,1.86-4.23,4-4.23a5.15,5.15,0,0,1,2.44.51v1.93l-1.16.06v-.83C78.45,91.1,78.38,91,78.19,91Zm-6.1,2.89c0,2.76-1.41,4.17-3.59,4.17S65,96.62,65,93.86c0-3.14,1.86-4.23,3.66-4.23S72.09,90.78,72.09,93.86ZM57.46,97l.38-.06c.26,0,.32-.07.32-.39V90.78l-.64-.06v-1h3.4c1.8,0,2.95.57,2.95,2.17a2.17,2.17,0,0,1-1.66,2.18c.45.13.64.45.89.84l1,1.92.58.07v1H61.82V97l.45-.06c.19,0,.26-.2.13-.39l-.64-1.28a.9.9,0,0,0-1-.58H59.7v2.18l.58.07v1h-2.7V97Zm-7.39,0,.39-.06c.19,0,.25-.13.25-.39V90.78l-.64-.06v-1h3.47c1.8,0,2.89.83,2.89,2.5,0,1.85-1.35,2.75-3.15,2.75H52.19v1.86l1.09.07v1H50.07Zm.2,8.65H53l1.73,3,1.74-3h2.63a.28.28,0,0,1,.26.26c0,.06,0,.06-.07.13l-1,1.73-1.22,2.12L56,111.81a.35.35,0,0,1-.32.19H53.6a.36.36,0,0,1-.32-.19l-1.15-1.92-1.22-2.12-1-1.73C49.94,105.85,50.07,105.65,50.27,105.65Zm0,8.4c-.13-.12,0-.38.19-.38l2-.26.7-.13L55.27,116l1.29-3.21.64-.06,2-.26a.35.35,0,0,1,.32.2v.12l-.77,1.86-.9,2.25L57,119c-.07.13-.13.19-.26.19l-2.06.26a.49.49,0,0,1-.32-.13L53,117.51l-1.48-1.92Zm1.41,8.34c-.13-.13-.13-.39.06-.45l1.86-.71.65-.25,2.69,2.24.58-3.46.64-.26,1.86-.7a.23.23,0,0,1,.32.13v.12L60,121l-.38,2.37-.39,2.18c0,.13-.13.2-.19.26l-1.93.71a.29.29,0,0,1-.32-.07l-1.73-1.41-1.86-1.54Zm4.75,8.91-1.74-1a.25.25,0,0,1,0-.45l1.74-1,.64-.38,3.08,1.67-.06-3.47.58-.32,1.73-1c.13-.07.26,0,.38.06s.07.06.07.13l.06,2L63,130,63,132.2a.36.36,0,0,1-.19.32l-1.74,1.09a.3.3,0,0,1-.32,0l-2-1.09ZM61.24,138l-1.86-.64a.25.25,0,0,1-.06-.45l1.47-1.28.52-.45,3.27,1.09-.71-3.4.52-.45,1.47-1.28c.13-.13.26-.07.39,0a.21.21,0,0,1,.06.13l.39,1.92.45,2.37.45,2.18c0,.13,0,.26-.13.32l-1.54,1.35a.28.28,0,0,1-.32.06l-2.12-.7Zm6,5.9-2-.33a.23.23,0,0,1-.13-.38l1.29-1.54.45-.58,3.46.58-1.22-3.27.45-.51,1.29-1.54c.06-.13.25-.13.38-.06s.07.06.07.12l.7,1.86.9,2.25.77,2.11a.28.28,0,0,1-.06.32l-1.29,1.61a.49.49,0,0,1-.32.12l-2.18-.38Zm6.1,4.74-2-.13c-.19,0-.32-.26-.19-.38l1.09-1.67.39-.58,3.46.19-1.54-3.14.39-.57L76,140.66c.06-.13.25-.13.38-.06s.07.06.07.12l.9,1.8,1.09,2.18,1,2a.27.27,0,0,1,0,.32l-1.15,1.73c-.07.13-.19.13-.32.13l-2.25-.13Zm9,4-2.44.07-2,.06a.27.27,0,0,1-.25-.38l1-1.73L79,150l3.47-.07-1.8-2.95.32-.57,1-1.74c.07-.12.26-.19.32-.12a.06.06,0,0,1,.07.06l1,1.73,1.28,2,1.16,1.93a.3.3,0,0,1,0,.32l-1,1.79a.33.33,0,0,1-.25.19Zm10.21,1.09-.9,1.86c-.06.13-.13.2-.26.2l-2.24.19-2.44.19-2,.19a.28.28,0,0,1-.26-.38l.84-1.8.32-.64,3.46-.32-2-2.88.26-.58.84-1.8a.23.23,0,0,1,.32-.12c.06,0,.06.06.12.06l1.16,1.6,1.41,2,1.29,1.86A.31.31,0,0,1,92.57,153.67Zm3.66-17.43a47,47,0,0,1-12.65-1.54,25.24,25.24,0,0,1-9.82-5.2,22.76,22.76,0,0,1-6.1-9.16,37,37,0,0,1-1.92-12.51v-7.24h3.53v7.31c0,17.5,9.24,24.81,26.9,24.81,16,0,27-8.4,27-23v-9.11h3.53v9.11a27.55,27.55,0,0,1-2.24,11.15,23.24,23.24,0,0,1-6.49,8.47C112.54,133.86,105,136.24,96.23,136.24Zm11.75,20-2-.19-2.44-.2-2.25-.19c-.13,0-.26-.06-.26-.19l-.9-1.86a.3.3,0,0,1,0-.32l1.29-1.86,1.41-2,1.16-1.6c0-.06.06-.06.13-.06a.24.24,0,0,1,.32.12l.83,1.8.26.58-2,2.88,3.46.32.32.64.84,1.8C108.3,156.05,108.17,156.24,108,156.24Zm6.87-3.59-2-.07-2.44-.06-2.25-.06c-.13,0-.26-.07-.26-.2l-1-1.79a.3.3,0,0,1,0-.32l1.16-1.93,1.28-2.05,1-1.73a.06.06,0,0,1,.06-.06.23.23,0,0,1,.32.13l1,1.73.33.57-1.8,2.95,3.46.07.33.64,1,1.73C115.17,152.46,115,152.65,114.85,152.65Zm6.54-4.17-2,.13-2.44.13-2.24.13a.5.5,0,0,1-.32-.13L113.24,147a.3.3,0,0,1,0-.32l1-2,1.09-2.18.9-1.8c0-.06.06-.06.06-.12a.3.3,0,0,1,.39.06l1.09,1.67.38.57L116.64,146l3.47-.19.39.58,1.09,1.67C121.71,148.22,121.59,148.42,121.39,148.48Zm6.17-4.94-2,.33-2.38.38-2.18.38c-.13,0-.26,0-.32-.12l-1.29-1.61a.29.29,0,0,1-.06-.32l.77-2.11.9-2.25.7-1.86c0-.06.07-.06.07-.12a.3.3,0,0,1,.39.06l1.28,1.54.45.51-1.22,3.27,3.46-.58.45.58,1.29,1.54C127.81,143.29,127.75,143.54,127.56,143.54Zm5.84-6.21-1.86.64-2.31.77-2.12.7a.28.28,0,0,1-.32-.06L125.25,138a.45.45,0,0,1-.13-.32l.45-2.18.45-2.37.38-1.92c0-.07,0-.07.07-.13s.25-.13.38,0l1.48,1.28.51.45-.71,3.4,3.28-1.09.51.45,1.48,1.28C133.59,137.07,133.59,137.26,133.4,137.33Zm4.62-7-1.73,1-2.12,1.15-2,1.09c-.13.07-.26.07-.32,0l-1.74-1.09a.36.36,0,0,1-.19-.32l.07-2.24.06-2.44.06-2c0-.06,0-.06.07-.12a.24.24,0,0,1,.38-.07l1.74,1,.57.32-.06,3.46,3.08-1.67.64.39,1.74,1C138.21,130,138.21,130.27,138,130.34Zm3.08-8-1.54,1.28-1.86,1.54L136,126.62a.28.28,0,0,1-.32.06l-1.93-.7c-.13-.07-.19-.13-.19-.26l-.39-2.18-.38-2.37-.32-2v-.13a.23.23,0,0,1,.32-.12l1.86.7.64.26.58,3.46,2.7-2.24.64.25,1.86.71C141.23,122,141.23,122.26,141.1,122.39Zm1.41-8.34-1.22,1.61-1.47,1.92-1.35,1.8a.49.49,0,0,1-.32.12l-2.05-.25c-.13,0-.2-.13-.26-.2l-.84-2-.9-2.24-.76-1.86v-.13a.22.22,0,0,1,.32-.19l2,.25.64.07,1.28,3.21,2.12-2.76.71.13,2,.25C142.51,113.67,142.64,113.93,142.51,114.05Zm.2-8-1,1.73-1.22,2.12-1.16,1.92a.34.34,0,0,1-.32.19h-2a.34.34,0,0,1-.32-.19l-1.09-1.92-1.22-2.12-1-1.73c0-.07-.07-.07-.07-.13a.28.28,0,0,1,.26-.26h2.63l1.73,3,1.74-3h2.69C142.64,105.65,142.77,105.85,142.71,106Z"/><path class="cls-1" d="M62.27,92.19c0-1.09-.64-1.28-1.8-1.28h-.83v2.82h1.15A1.43,1.43,0,0,0,62.27,92.19Z"/><path class="cls-1" d="M55,92.38c0-1.34-.7-1.53-1.86-1.53h-.83v3.07h.89C54.18,94,55,93.6,55,92.38Z"/><path class="cls-1" d="M66.57,93.79c0,1.41.32,3,2.06,3,1.54,0,1.92-1.41,1.92-2.89,0-1.22-.32-3-2-3C67.08,90.91,66.57,92.38,66.57,93.79Z"/></svg>