<svg width="32" height="34" viewBox="0 0 32 34" fill="none" xmlns="http://www.w3.org/2000/svg">
<path d="M30.4002 17C30.8408 17 31.2002 16.6406 31.2002 16.2V12.2V12.1594V12.0797V12C31.2002 11.9594 31.2002 11.9594 31.1595 11.9203C31.1595 11.8797 31.1189 11.8797 31.1189 11.8406C31.1189 11.8 31.0783 11.8 31.0783 11.7609C31.0783 11.7203 31.0377 11.7203 31.0377 11.6812C31.0377 11.6406 30.9971 11.6406 30.9971 11.6016C30.9971 11.5609 30.9564 11.5609 30.9174 11.5609L30.8767 11.5203L16.4767 0.720313C16.1971 0.520312 15.7971 0.520312 15.5174 0.720313L1.11738 11.5203L1.07675 11.5609C1.03613 11.5609 1.03613 11.6016 0.997065 11.6016C0.997065 11.6016 0.956442 11.6422 0.956442 11.6812C0.956442 11.7219 0.915817 11.7219 0.915817 11.7609C0.915817 11.8016 0.875193 11.8016 0.875193 11.8406C0.875193 11.8812 0.83457 11.8812 0.83457 11.9203C0.83457 11.9609 0.834569 11.9609 0.793945 12V12.0797V12.1594V12.2V16.2C0.793945 16.6406 1.15332 17 1.59395 17H3.19395V27.8H1.59395C1.15331 27.8 0.793945 28.1594 0.793945 28.6V32.6C0.793945 33.0406 1.15332 33.4 1.59395 33.4H30.3939C30.8346 33.4 31.1939 33.0406 31.1939 32.6L31.2002 28.6C31.2002 28.1594 30.8408 27.8 30.4002 27.8H28.8002V17H30.4002ZM16.0002 2.4L28.0002 11.4H4.00017L16.0002 2.4ZM29.6002 29.4V31.8H2.40017V29.4H29.6002ZM4.80017 27.8V17H6.40017V27.8H4.80017ZM8.00017 27.8V17H13.6002V27.8H8.00017ZM15.2002 27.8V17H16.8002V27.8H15.2002ZM18.4002 27.8V17H24.0002V27.8H18.4002ZM25.6002 27.8V17H27.2002V27.8H25.6002ZM28.0002 15.4H2.40017V13H29.6002V15.4H28.0002Z" fill="#E02B2B"/>
</svg>
