<svg width="39" height="34" viewBox="0 0 39 34" fill="none" xmlns="http://www.w3.org/2000/svg">
<path fill-rule="evenodd" clip-rule="evenodd" d="M20.3367 1.48109L19.5003 0.979858L18.664 1.48109L2.41503 11.2311L0.0917969 12.625L2.41503 14.019L6.50106 16.4702V24.0007C6.50106 26.9044 8.15095 29.3815 10.5122 31.0679C12.8766 32.7558 16.0592 33.7507 19.5005 33.7507C22.9419 33.7507 26.1243 32.7558 28.4889 31.0679C30.8502 29.3815 32.5 26.9043 32.5 24.0007V16.4702L36.586 14.019L38.9093 12.625L36.586 11.2311L20.3367 1.48109ZM29.2501 18.4203L20.3367 23.7692L19.5003 24.2704L18.664 23.7692L9.75054 18.4203V24.0009C9.75054 25.5837 10.6463 27.1696 12.4013 28.4235C14.1548 29.6757 16.6593 30.4999 19.5005 30.4999C22.3416 30.4999 24.8462 29.6757 26.5997 28.4235C28.3547 27.1697 29.2505 25.5838 29.2505 24.0009L29.2501 18.4203ZM19.5001 20.48L6.40941 12.625L19.5001 4.77003L32.5909 12.625L19.5001 20.48Z" fill="#47CFE1"/>
</svg>
