<svg width="27" height="35" viewBox="0 0 27 35" fill="none" xmlns="http://www.w3.org/2000/svg">
<path d="M25.8847 0.843694H15.6347C15.1639 0.843694 14.7811 1.22647 14.7811 1.69731V8.53119C14.7811 8.75701 14.8708 8.97481 15.031 9.135C15.1911 9.29519 15.4089 9.38485 15.6348 9.38485H16.916V23.5905L14.8148 26.0409H12.185L10.0837 23.5905V9.38485H11.365C11.5908 9.38485 11.8086 9.29516 11.9688 9.135C12.129 8.97484 12.2186 8.75703 12.2186 8.53119V1.69731C12.2186 1.47149 12.1289 1.25369 11.9688 1.09351C11.8086 0.933319 11.5908 0.843661 11.365 0.843661H1.11498C0.642541 0.843661 0.259766 1.22643 0.259766 1.69728V8.53116C0.259766 8.75698 0.351056 8.97478 0.51121 9.13497C0.671368 9.29512 0.887578 9.38481 1.11502 9.38481H2.39627V28.1776C2.39627 28.4034 2.48756 28.6196 2.64771 28.7798L7.77271 33.9048C7.93287 34.0649 8.14908 34.1546 8.37492 34.1562H18.6249C18.8507 34.1546 19.0669 34.0649 19.2271 33.9048L24.3521 28.7798C24.5123 28.6196 24.6036 28.4034 24.6036 28.1776V9.38481H25.8848C26.1122 9.38481 26.3284 9.29513 26.4886 9.13497C26.6488 8.97481 26.7401 8.757 26.7401 8.53116V1.69728C26.7401 1.47146 26.6488 1.25366 26.4886 1.09347C26.3285 0.933319 26.1123 0.843628 25.8848 0.843628L25.8847 0.843694ZM25.0311 7.67757H23.7499C23.2774 7.67757 22.8962 8.05875 22.8962 8.53119V27.8221L18.271 32.4473H8.7291L4.10389 27.8221V8.53119C4.10389 8.30537 4.0142 8.08757 3.85405 7.92739C3.69389 7.7672 3.47608 7.67754 3.25024 7.67754H1.96899V2.55254H10.5101V7.67754H9.22886C8.75802 7.67754 8.37524 8.05871 8.37524 8.53116V23.9062C8.37524 24.1096 8.44731 24.3065 8.58024 24.4619L11.1427 27.452V27.4504C11.3045 27.641 11.5415 27.7499 11.7914 27.7499H15.2091C15.4589 27.7499 15.696 27.641 15.8577 27.4504L18.4202 24.4603V24.4619C18.5531 24.3066 18.6252 24.1096 18.6252 23.9062V8.53116C18.6252 8.30534 18.5355 8.08754 18.3754 7.92735C18.2152 7.76717 17.9974 7.67751 17.7715 7.67751H16.4903V2.55251H25.0314L25.0311 7.67757Z" fill="#692CBE"/>
</svg>
