<svg width="38" height="31" viewBox="0 0 38 31" fill="none" xmlns="http://www.w3.org/2000/svg">
<path d="M30.12 30.6C27 30.6 24.64 29.32 23.04 26.76C21.68 24.6 21 21.96 21 18.84C21 14.84 22 11.24 24 8.03999C26.08 4.84 29.2 2.28 33.36 0.359993L34.44 2.51999C31.96 3.55999 29.8 5.19999 27.96 7.43999C26.2 9.67999 25.32 11.96 25.32 14.28C25.32 15.24 25.44 16.08 25.68 16.8C26.96 15.76 28.44 15.24 30.12 15.24C32.28 15.24 34.08 15.96 35.52 17.4C37.04 18.76 37.8 20.6 37.8 22.92C37.8 25.08 37.04 26.92 35.52 28.44C34.08 29.88 32.28 30.6 30.12 30.6ZM9.72 30.6C6.6 30.6 4.24 29.32 2.64 26.76C1.28 24.6 0.6 21.96 0.6 18.84C0.6 14.84 1.6 11.24 3.6 8.03999C5.68 4.84 8.8 2.28 12.96 0.359993L14.04 2.51999C11.56 3.55999 9.4 5.19999 7.56 7.43999C5.8 9.67999 4.92 11.96 4.92 14.28C4.92 15.24 5.04 16.08 5.28 16.8C6.56 15.76 8.04 15.24 9.72 15.24C11.88 15.24 13.68 15.96 15.12 17.4C16.64 18.76 17.4 20.6 17.4 22.92C17.4 25.08 16.64 26.92 15.12 28.44C13.68 29.88 11.88 30.6 9.72 30.6Z" fill="#606060"/>
</svg>
