<svg xmlns="http://www.w3.org/2000/svg" viewBox="0 0 163.68 163.68"><title>quote_bubble</title><circle cx="81.84" cy="81.84" r="81.84" style="fill:#caeaf3"/><path d="M498.58,774c2.18-9.18,4.35-18.36,6.63-28-3,0-5.68,0-8.37,0-7.18,0-11.1-3.91-11.13-11q0-9.82,0-19.66c0-6.59,3.93-10.6,10.5-10.68q10.13-.13,20.27,0c6.34.07,10.3,3.71,10.44,10.07.2,8.85.1,17.72-.09,26.58a12.17,12.17,0,0,1-1.63,5.74C518.48,758.06,508.43,765.86,498.58,774Z" transform="translate(-401.2 -656.65)" style="fill:#fff"/><path d="M451.83,774.39c2.28-9.63,4.46-18.81,6.73-28.38-3.11,0-5.91,0-8.7,0-6.79-.09-10.75-4-10.79-10.71s0-13.5,0-20.26c0-6.19,4-10.25,10.18-10.36q10.42-.16,20.86,0c6.11.1,10.05,3.9,10.17,10,.17,8.75.25,17.52-.12,26.26a18,18,0,0,1-2.86,8.11C473.54,755.3,458.39,770.06,451.83,774.39Z" transform="translate(-401.2 -656.65)" style="fill:#fff"/></svg>