<svg xmlns="http://www.w3.org/2000/svg" viewBox="0 0 163.68 163.68"><title>quote_round</title><circle cx="81.84" cy="81.84" r="81.84" style="fill:#caeaf3"/><path d="M540.34,683.77a23.88,23.88,0,0,1-12.62.41,22.68,22.68,0,0,1-17.16-23.67c.69-11,9.25-19.66,20.62-21a22.37,22.37,0,0,1,23.66,16c3.51,12.68,2.69,24.95-4.7,36.31a72.67,72.67,0,0,1-25.93,24.44c-3.07,1.7-5.72,1.2-7.14-1.3s-.51-5,2.45-6.68c8.07-4.67,14.74-10.71,18.94-19.17.68-1.37,1.18-2.84,1.74-4.27A5.54,5.54,0,0,0,540.34,683.77Z" transform="translate(-427.02 -594.34)" style="fill:#fff"/><path d="M491.18,683.24a24.69,24.69,0,0,1-13.11.55c-10.93-2.76-17.94-12.58-17.13-24.06.75-10.68,9.36-19.29,20.55-20.56a22.37,22.37,0,0,1,23.74,16.2c3.45,12.85,2.52,25.22-5.09,36.64A73,73,0,0,1,474,716.22c-2.65,1.44-5.28.75-6.6-1.62s-.54-4.78,1.95-6.36c.74-.47,1.48-.92,2.23-1.37A44,44,0,0,0,488.14,690C489.21,688,490,685.87,491.18,683.24Z" transform="translate(-427.02 -594.34)" style="fill:#fff"/></svg>