<svg xmlns="http://www.w3.org/2000/svg" viewBox="0 0 163.68 163.68"><title>quote_square</title><circle cx="81.84" cy="81.84" r="81.84" style="fill:#caeaf3"/><path d="M333,673.08H315.12c-3.12,0-3.55-.42-3.55-3.48V631.75c0-2.85.5-3.36,3.3-3.36h39c2.55,0,3.19.62,3.19,3.13,0,12.86.1,25.72.1,38.58,0,18.35-11.1,32.39-29.6,37.23a113.19,113.19,0,0,1-12.71,2.17c-2.48.36-3.23-.44-3.24-3q0-6.84,0-13.67c0-2.48.5-3,3-3.16C324.45,689,331.7,682.57,333,673.08Z" transform="translate(-277.54 -585.15)" style="fill:#fff"/><path d="M385,673.08h-18.1c-2.81,0-3.3-.49-3.3-3.34v-38c0-2.81.5-3.3,3.36-3.3h38.77c2.75,0,3.31.58,3.32,3.37q0,19,.11,38c.07,18.53-11,32.63-29.67,37.54a112.81,112.81,0,0,1-12.71,2.17c-2.38.34-3.17-.48-3.18-2.84,0-4.55,0-9.11,0-13.66,0-2.71.39-3.1,3.23-3.31,9.4-.68,16.35-6.71,18.07-15.68C385,673.79,385,673.54,385,673.08Z" transform="translate(-277.54 -585.15)" style="fill:#fff"/></svg>