<svg id="Layer_1" data-name="Layer 1" xmlns="http://www.w3.org/2000/svg" viewBox="0 0 24 24"><defs><style>.cls-1{fill:#596969;}</style></defs><path class="cls-1" d="M14.2,15.3a.3.3,0,0,1,0,.4,3.2,3.2,0,0,1-2.2.6h0a3.2,3.2,0,0,1-2.2-.6.3.3,0,0,1,0-.4h.3a2.4,2.4,0,0,0,1.9.6h0a2.4,2.4,0,0,0,1.9-.6Zm-3.4-2.4a.9.9,0,1,0-.9.9A.9.9,0,0,0,10.8,12.9ZM24,12A12,12,0,1,1,12,0,12,12,0,0,1,24,12Zm-5-.1a1.6,1.6,0,0,0-1.5-1.6,1.4,1.4,0,0,0-1.1.5,7.6,7.6,0,0,0-4.1-1.2l.9-2.8,2.3.6h0a1.3,1.3,0,1,0,2.6,0,1.2,1.2,0,0,0-1.3-1.2,1.2,1.2,0,0,0-1.2.8l-2.5-.6h-.3l-.9,3.1a8.1,8.1,0,0,0-4.3,1.1,1.8,1.8,0,0,0-1.1-.4,1.5,1.5,0,0,0-.7,2.9.9.9,0,0,0-.1.5c0,2.3,2.8,4.1,6.3,4.1s6.2-1.8,6.2-4.1v-.5A1.3,1.3,0,0,0,19,11.9Zm-4.9.1a.9.9,0,0,0,0,1.8,1,1,0,0,0,1-.9A1,1,0,0,0,14.1,12Z" transform="translate(0 0)"/></svg>