<svg id="622d3f9a-9956-4610-8a64-6df7affed46f" data-name="graphics" xmlns="http://www.w3.org/2000/svg" viewBox="0 0 108.75 110.75"><defs><style>.\30 a3b5bfb-ea01-4261-b956-43c335e34460{fill:#caeaf3;}</style></defs><title>icon_detailed_reports</title><rect class="0a3b5bfb-ea01-4261-b956-43c335e34460" x="35.48" y="53.245" width="36.78" height="5.604"/><rect class="0a3b5bfb-ea01-4261-b956-43c335e34460" x="35.48" y="76.185" width="36.78" height="5.604"/><path class="0a3b5bfb-ea01-4261-b956-43c335e34460" d="M5867.594,5247.215a9.284,9.284,0,0,0,9.193-8.093h-10.377v-10.378a9.273,9.273,0,0,0,1.184,18.471Z" transform="translate(-5824.821 -5198.874)"/><path class="0a3b5bfb-ea01-4261-b956-43c335e34460" d="M5868.778,5228.744v8.009h8.008A9.284,9.284,0,0,0,5868.778,5228.744Z" transform="translate(-5824.821 -5198.874)"/><rect class="0a3b5bfb-ea01-4261-b956-43c335e34460" x="35.48" y="64.714" width="36.78" height="5.605"/><path class="0a3b5bfb-ea01-4261-b956-43c335e34460" d="M5901.071,5198.874h-43.75a32.536,32.536,0,0,0-32.5,32.5v45.75a32.536,32.536,0,0,0,32.5,32.5h43.75a32.536,32.536,0,0,0,32.5-32.5v-45.75A32.536,32.536,0,0,0,5901.071,5198.874Zm8.084,81.957a9.172,9.172,0,0,1-9.052,9.051h-42.647a9.264,9.264,0,0,1-9.232-9.051l0-52.62a9.021,9.021,0,0,1,9.232-8.773h42.647a8.926,8.926,0,0,1,9.052,8.773Z" transform="translate(-5824.821 -5198.874)"/><rect class="0a3b5bfb-ea01-4261-b956-43c335e34460" x="55.614" y="41.774" width="16.646" height="5.604"/><rect class="0a3b5bfb-ea01-4261-b956-43c335e34460" x="55.614" y="30.304" width="16.646" height="5.605"/></svg>