<svg width="51" height="45" viewBox="0 0 51 45" fill="none" xmlns="http://www.w3.org/2000/svg">
<path d="M15.4475 44.7841H50.199V41.697H46.337L46.3338 14.4664H36.2941V41.697H30.8886V22.1864H20.8489V41.697H15.4434L15.4466 29.9073H5.40694V41.697H1.54492V44.7841H15.4475ZM39.3815 17.5534H43.2435V41.694H39.3815V17.5534ZM23.9397 25.2775H27.8017V41.6972H23.9397V25.2775ZM8.49456 32.9982H12.3566V41.697H8.49456V32.9982Z" fill="#00A8FF"/>
<path d="M2.27512 25.1222L39.0387 5.5348L36.8978 9.09005C36.4587 9.81982 36.6944 10.7691 37.4274 11.2116C37.676 11.3601 37.9505 11.4311 38.2218 11.4311C38.7481 11.4311 39.2583 11.1664 39.5457 10.682L44.5637 2.3411C44.5702 2.33141 44.5734 2.31526 44.5799 2.30558C44.5992 2.27329 44.6122 2.24099 44.6283 2.2087C44.6445 2.17318 44.6606 2.13443 44.6767 2.09891C44.6864 2.07308 44.6961 2.05048 44.7058 2.02142C44.7155 1.99235 44.722 1.96006 44.7316 1.92777C44.7413 1.88902 44.751 1.85027 44.7575 1.8083C44.7639 1.78246 44.7672 1.75663 44.7704 1.7308C44.7768 1.69205 44.7768 1.65653 44.7768 1.62423C44.7801 1.5984 44.7833 1.57257 44.7833 1.54674C44.7833 1.53059 44.7801 1.5209 44.7801 1.50799C44.7801 1.48538 44.7801 1.46278 44.7768 1.44018C44.7736 1.40143 44.7672 1.36268 44.7575 1.32393C44.751 1.28196 44.7478 1.24321 44.7381 1.20446C44.7316 1.18508 44.7284 1.16571 44.722 1.14633C44.7123 1.10758 44.6993 1.07206 44.6864 1.03977C44.6703 1.00102 44.6606 0.959043 44.6412 0.923527C44.6315 0.904153 44.6218 0.88155 44.6122 0.862175C44.6057 0.849258 44.6025 0.836342 44.596 0.823425C44.5831 0.804051 44.567 0.784677 44.554 0.762073C44.5347 0.729782 44.5153 0.69749 44.4959 0.665197C44.4798 0.645823 44.4636 0.62322 44.4475 0.603846C44.4249 0.571555 44.399 0.542492 44.37 0.513427C44.3474 0.487594 44.3248 0.46499 44.3022 0.439157C44.2828 0.419782 44.2634 0.403638 44.2408 0.384263C44.2118 0.35843 44.1795 0.335826 44.1472 0.309993C44.1181 0.290618 44.0891 0.268016 44.0568 0.248641C44.0438 0.242183 44.0374 0.232495 44.0245 0.226037C44.0148 0.219579 43.9986 0.21635 43.9857 0.206662C43.9567 0.187287 43.9244 0.174371 43.8921 0.158226C43.8566 0.138852 43.821 0.125935 43.7855 0.109789C43.7597 0.100102 43.7306 0.0904149 43.7048 0.0807275C43.6757 0.0710399 43.6434 0.0645824 43.6111 0.0581238C43.5724 0.0484363 43.5336 0.0387496 43.4981 0.032291C43.4691 0.0258332 43.44 0.0226033 43.4109 0.0161455C43.3754 0.00968771 43.3399 0.0129178 43.3044 0.00968887C43.2785 0.00645915 43.2559 0 43.2269 0H33.2038C32.3513 0 31.6602 0.69103 31.6602 1.54674C31.6602 2.39918 32.3513 3.09026 33.2038 3.09026H37.0593L0.819034 22.3967C0.0666507 22.7971 -0.220727 23.7335 0.182901 24.4858C0.460606 25.0057 0.99664 25.3028 1.54877 25.3028C1.79419 25.3028 2.04283 25.2447 2.27533 25.122L2.27512 25.1222Z" fill="#00A8FF"/>
</svg>
