<?xml version="1.0" encoding="utf-8"?>
<!-- Generator: Adobe Illustrator 24.1.3, SVG Export Plug-In . SVG Version: 6.00 Build 0)  -->
<svg width="48" height="47" version="1.1" id="Calque_1" xmlns="http://www.w3.org/2000/svg" xmlns:xlink="http://www.w3.org/1999/xlink" x="0px" y="0px"
	 viewBox="0 0 48 47" style="enable-background:new 0 0 48 47;" xml:space="preserve">
<style type="text/css">
	.st0{fill:#EE6A00;stroke:#EE6A00;stroke-width:1.2;}
	.st1{fill:#EE6A00;}
</style>
<path class="st0" d="M44.3,33l0.3,0.5c0.7-0.4,1.1-1,1.1-1.8c0-0.7-0.4-1.4-1-1.8c-0.6-0.4-1.4-0.4-2.1-0.1c0,0,0,0,0,0l-10.1,4.6
	l-0.1,0.1l-0.1,0.1c-0.4,0.6-1.2,0.9-2,0.9H20c-0.1,0-0.1-0.1-0.1-0.1c0,0,0-0.1,0.1-0.1h10.3c0.8,0,1.4-0.4,1.8-0.9l0,0l0,0
	c0,0,0,0,0,0l0,0l0,0c0.2-0.3,0.3-0.7,0.3-1.1c0-1.2-1-2.1-2.2-2.1h0l-5.3,0c0,0,0,0,0,0h0c0,0-0.1,0-0.1,0c-2.4-2-5.4-3.3-8.2-3.4
	h0c-2.8-0.1-5.4-0.1-6.6-0.1l-0.6,0v0.6v9.6v0.4l0.3,0.2c1.6,0.9,4.3,2.3,6.9,3.5c1.3,0.6,2.7,1.1,3.9,1.5c1.2,0.4,2.3,0.6,3.1,0.6
	h0c1.5-0.1,3.6-0.8,5.8-1.8c2.2-1,4.6-2.3,6.8-3.5c4.4-2.5,8.1-5,8.2-5.1l0,0c0,0,0,0,0,0L44.3,33z M10.4,39l-0.9-0.5v1v1.3H2.1
	V26.1h7.4v0.8v0.6l0.6,0c1.2,0,3.8,0,6.6,0.1h0c2.8,0.1,5.8,1.3,8.2,3.3l0.2,0.1l0.2,0l5.1,0c0,0,0,0,0,0c1.4,0,2.4,1,2.5,2.3l0,0.9
	l0.8-0.4l8.8-4.1l0,0c0.8-0.4,1.6-0.3,2.4,0.1c0.7,0.4,1.1,1.1,1.1,1.9c0,0.8-0.4,1.5-1.2,2l0,0l0,0c-0.5,0.3-4.3,2.9-8.7,5.4
	c-2.2,1.3-4.6,2.5-6.8,3.4c-2.2,0.9-4.1,1.6-5.5,1.6c-0.1,0-0.1,0-0.2,0h0c-0.8,0-1.8-0.2-3-0.6c-1.2-0.4-2.5-0.9-3.8-1.4
	C14.2,41,11.7,39.7,10.4,39z M8.6,40.6h0.6V40V26.9v-0.6H8.6H2.9H2.3v0.6V40v0.6h0.6H8.6z"/>
<path class="st1" d="M5.8,38.3C6.5,38.3,7,37.7,7,37c0-0.7-0.6-1.2-1.3-1.2c-0.7,0-1.3,0.5-1.3,1.2C4.5,37.7,5.1,38.3,5.8,38.3z"/>
<path class="st1" d="M23.3,25c6.8,0,12.3-5.3,12.3-11.8c0-6.5-5.5-11.8-12.3-11.8S11,6.8,11,13.3C11,19.7,16.5,25,23.3,25z
	 M23.3,2.9c6,0,10.8,4.6,10.8,10.4c0,5.7-4.8,10.4-10.8,10.4c-6,0-10.8-4.6-10.8-10.4C12.5,7.6,17.3,2.9,23.3,2.9z"/>
<path class="st1" d="M23.3,5c0.4,0,0.8-0.3,0.8-0.8c0-0.4-0.4-0.8-0.8-0.8c-0.4,0-0.8,0.3-0.8,0.8C22.5,4.7,22.8,5,23.3,5z"/>
<path class="st1" d="M23.3,21.5c-0.4,0-0.8,0.3-0.8,0.8c0,0.4,0.4,0.8,0.8,0.8C24.3,23,24.3,21.5,23.3,21.5z"/>
<path class="st1" d="M17.2,7.4c0.3-0.3,0.3-0.8,0-1.1c-0.3-0.3-0.8-0.3-1.1,0c-0.3,0.3-0.3,0.8,0,1.1C16.4,7.7,16.9,7.7,17.2,7.4z"
	/>
<path class="st1" d="M30.5,20.2c0.3-0.3,0.3-0.8,0-1.1c-0.3-0.3-0.8-0.3-1.1,0c-0.3,0.3-0.3,0.8,0,1.1
	C29.6,20.4,30.1,20.5,30.5,20.2z"/>
<path class="st1" d="M13.9,12.5c-0.4,0-0.8,0.3-0.8,0.8c0,0.4,0.4,0.8,0.8,0.8c0.4,0,0.8-0.3,0.8-0.8C14.7,12.8,14.3,12.5,13.9,12.5
	z"/>
<path class="st1" d="M32.6,14c1,0,1.1-1.5,0-1.5c-0.4,0-0.8,0.3-0.8,0.8S32.2,14,32.6,14z"/>
<path class="st1" d="M16.1,19.1c-0.3,0.3-0.3,0.8,0,1.1c0.3,0.3,0.8,0.3,1.1,0c0.3-0.3,0.3-0.8,0-1.1C16.9,18.8,16.4,18.8,16.1,19.1
	z"/>
<path class="st1" d="M30.5,7.5c0.3-0.3,0.3-0.8,0-1.1c-0.3-0.3-0.8-0.3-1.1,0c-0.3,0.3-0.3,0.8,0,1.1C29.6,7.7,30.1,7.7,30.5,7.5z"
	/>
<path class="st1" d="M19.2,18.3l3.4-3.3v3.9c0,0.4,0.3,0.7,0.7,0.7c0.4,0,0.7-0.3,0.7-0.7v-4.3c0.6-0.3,0.9-0.9,0.7-1.6l0.7-0.6
	c0.3-0.3,0.3-0.7,0-1c-0.3-0.3-0.7-0.3-1,0l-0.3,0.3V7c0-0.4-0.3-0.7-0.7-0.7c-0.4,0-0.7,0.3-0.7,0.7v5.1c-0.6,0.3-0.9,0.9-0.7,1.6
	l-3.7,3.6c-0.3,0.3-0.3,0.7,0,1C18.5,18.5,18.9,18.5,19.2,18.3z"/>
<path class="st0" d="M31,41.5"/>
</svg>
