<svg width="18" height="18" viewBox="0 0 18 18" fill="none" xmlns="http://www.w3.org/2000/svg">
<path d="M12.7549 11H11.9649L11.6849 10.73C12.6649 9.59 13.2549 8.11 13.2549 6.5C13.2549 2.91 10.3449 0 6.75488 0C3.16488 0 0.254883 2.91 0.254883 6.5C0.254883 10.09 3.16488 13 6.75488 13C8.36488 13 9.84488 12.41 10.9849 11.43L11.2549 11.71V12.5L16.2549 17.49L17.7449 16L12.7549 11ZM6.75488 11C4.26488 11 2.25488 8.99 2.25488 6.5C2.25488 4.01 4.26488 2 6.75488 2C9.24488 2 11.2549 4.01 11.2549 6.5C11.2549 8.99 9.24488 11 6.75488 11Z" fill="#001464"/>
</svg>
