<?xml version="1.0" encoding="utf-8"?>
<!-- Generator: Adobe Illustrator 24.3.0, SVG Export Plug-In . SVG Version: 6.00 Build 0)  -->
<svg version="1.1" id="Layer_1" xmlns="http://www.w3.org/2000/svg" xmlns:xlink="http://www.w3.org/1999/xlink" x="0px" y="0px"
	 viewBox="0 0 100 100" style="enable-background:new 0 0 100 100;" xml:space="preserve">
<style type="text/css">
	.st0{fill:#FFFFFF;}
	.st1{fill:#9EDAE4;}
</style>
<g>
	<g>
		<g>
			<g>
				<g>
					<path class="st0" d="M50.1,96c-0.5,0-9.5-0.4-18.6-9.7C19.5,74.1,13.4,53,13.4,23.5v-0.9l36.6-8.5l36.6,8.5v0.9
						c0,29.4-6.1,50.5-18.1,62.8C59.5,95.6,50.5,96,50.1,96z"/>
					<path class="st1" d="M50.1,20.1l30.9,7.1c-0.5,25.9-6,44.4-16.4,55.1c-6.8,6.9-13.3,7.8-14.4,7.9c-1.2-0.1-7.7-1-14.5-7.9
						C25.2,71.7,19.7,53.2,19.2,27.2L50.1,20.1 M50.1,14.2l-36.6,8.5v0.9c0,29.4,6.1,50.5,18.1,62.8c9.1,9.3,18.1,9.7,18.6,9.7
						c0.4,0,9.4-0.4,18.5-9.7c12-12.2,18.1-33.3,18.1-62.8v-0.9L50.1,14.2L50.1,14.2z"/>
				</g>
			</g>
		</g>
	</g>
	<g>
		<g>
			<g>
				<g>
					<path class="st1" d="M74.1,15.5c-0.2,0-0.4,0-0.7-0.1l-23.4-5.4l-23.4,5.4c-1.6,0.4-3.1-0.6-3.4-2.2c-0.4-1.5,0.6-3.1,2.2-3.4
						l24.7-5.7l24.7,5.7c1.5,0.4,2.5,1.9,2.2,3.4C76.6,14.6,75.4,15.5,74.1,15.5z"/>
				</g>
			</g>
		</g>
	</g>
	<path class="st1" d="M67,68.2H33.1V43.5H67V68.2z M36,65.3h28.1v-19H36V65.3z"/>
	<g>
		<g>
			<g>
				<path class="st1" d="M54.6,64.4h-9v-6.6c-1-1.1-1.6-2.6-1.6-4.2c0-3.4,2.8-6.1,6.1-6.1c3.4,0,6.1,2.8,6.1,6.1
					c0,1.6-0.6,3-1.6,4.2V64.4z M48.4,61.5h3.3v-5l0.5-0.4c0.7-0.6,1.1-1.5,1.1-2.5c0-1.8-1.5-3.3-3.3-3.3s-3.3,1.5-3.3,3.3
					c0,1,0.4,1.8,1.1,2.5l0.5,0.4V61.5z"/>
			</g>
		</g>
	</g>
	<path class="st1" d="M63.5,45.6h-2.9v-3.3c0-6-4.9-10.8-10.8-10.8S39,36.3,39,42.3v3.3h-2.9v-3.3c0-7.6,6.1-13.7,13.7-13.7
		s13.7,6.1,13.7,13.7V45.6z"/>
</g>
</svg>
