<svg id="Layer_1" data-name="Layer 1" xmlns="http://www.w3.org/2000/svg" viewBox="0 0 21.6 21.6"><defs><style>.cls-1{fill:#ff8a00;}.cls-2{fill:none;stroke:#ff8a00;stroke-miterlimit:10;}</style></defs><path class="cls-1" d="M15.7,20.6c.1.1.3.1.5.2a2.25,2.25,0,0,1,1.2.5,1.27,1.27,0,0,1,.4.9,1,1,0,0,1-.4.9,2.13,2.13,0,0,1-1.2.3,3,3,0,0,1-1-.2,1.79,1.79,0,0,1-.7-.5,1.08,1.08,0,0,1-.2-.8h1.2c0,.2.1.4.2.4s.3.1.6.1c.1,0,.3,0,.3-.1a.37.37,0,0,0,.1-.3c0-.1-.1-.2-.2-.3s-.3-.1-.6-.2a6.37,6.37,0,0,1-.7-.2c-.2-.1-.3-.2-.5-.3a1.38,1.38,0,0,1-.3-.4.9.9,0,0,1-.1-.5,1.07,1.07,0,0,1,.2-.6.92.92,0,0,1,.6-.4,2.35,2.35,0,0,1,.8-.2,1.84,1.84,0,0,1,1.3.4,1.23,1.23,0,0,1,.5,1H16.5c0-.1-.1-.2-.2-.3H16a.6.6,0,0,0-.4.1.37.37,0,0,0-.1.3Zm5.8-.5h-2v.6h1.6v.9H19.5v.8h1.9v.9H18.3V19.1h3.2Zm3.3,3.2h-3V19.1H23v3.2h1.8Zm.4,0V19.1h1.2v3.2h1.8v.9h-3Z" transform="translate(-10.5 -10.5)"/><circle class="cls-2" cx="10.8" cy="10.8" r="10.3"/></svg>