<svg id="Layer_1" data-name="Layer 1" xmlns="http://www.w3.org/2000/svg" width="40.3" height="40.3" viewBox="0 0 40.3 40.3"><path d="M0,20.2A20.2,20.2,0,1,1,20.2,40.3h0A20.1,20.1,0,0,1,0,20.2Zm16.5-.6v2.2h3.6a3.3,3.3,0,0,1-3.6,2.7,4,4,0,1,1,0-8,3.5,3.5,0,0,1,2.5,1l1.8-1.7a6.3,6.3,0,0,0-4.3-1.7,6.5,6.5,0,0,0-6.7,6.2A6.4,6.4,0,0,0,16,26.9h.5a5.9,5.9,0,0,0,6.2-5.6v-.7c0-.3-.1-.7-.1-1Zm11.9,0h1.8v1.8H28.4v1.8H26.5V21.4H24.7V19.6h1.8V17.8h1.8Z" transform="translate(0 0)" style="fill:#1056fb;fill-rule:evenodd"/></svg>