<svg id="Layer_1" data-name="Layer 1" xmlns="http://www.w3.org/2000/svg" width="40.3" height="40.3" viewBox="0 0 40.3 40.3"><path d="M0,20.2A20.2,20.2,0,1,1,20.2,40.3h0A20.1,20.1,0,0,1,0,20.2Zm23.3-9.5a1.9,1.9,0,0,0-3.6,1.2l.6,2-4,1.3-.6-2A1.9,1.9,0,0,0,13.3,12,2,2,0,0,0,12,14.4h0l.7,2-2,.6a1.9,1.9,0,0,0,1.1,3.6h.1l2-.6,1.3,4-2,.6A2,2,0,0,0,11.9,27a1.9,1.9,0,0,0,2.4,1.3h0l2-.7.7,2a2.1,2.1,0,0,0,2.5,1.2,2,2,0,0,0,1.1-2.4l-.6-2,4-1.3.6,2A1.9,1.9,0,0,0,28.3,26l-.7-2,1.9-.6A1.9,1.9,0,0,0,30.8,21a2,2,0,0,0-2.4-1.3h0l-2,.6-1.3-4,1.9-.6A1.9,1.9,0,1,0,25.9,12h0l-2,.6Zm-1.8,6.8-4,1.3,1.3,4,4-1.3Z" transform="translate(0 0)" style="fill:#001464;fill-rule:evenodd"/></svg>