<svg width="26" height="26" viewBox="0 0 26 26" fill="none" xmlns="http://www.w3.org/2000/svg">
<rect width="26" height="26" rx="13" fill="#1D8C99"/>
<path d="M9.07339 15.0671C9.13936 14.6933 8.95559 14.4074 8.52209 14.2095L7.6127 13.8467C6.55723 13.3755 6.05619 12.7268 6.10959 11.9007C6.13158 11.5174 6.25723 11.1782 6.48655 10.8829C6.71586 10.5876 7.03784 10.3567 7.45249 10.1903C7.86714 10.0206 8.31477 9.93896 8.79539 9.94524C9.45819 9.9578 9.99378 10.1557 10.4021 10.5389C10.8105 10.919 11.0116 11.4295 11.0053 12.0703H9.62939C9.6451 11.7593 9.57599 11.5174 9.42207 11.3447C9.27129 11.1719 9.03569 11.0824 8.71528 11.0761C8.40116 11.0698 8.12786 11.1421 7.89541 11.2928C7.66296 11.4405 7.52474 11.6447 7.48076 11.9054C7.42108 12.2478 7.65039 12.5195 8.1687 12.7206L8.79067 12.9562L9.14878 13.1211C10.0755 13.5797 10.509 14.2237 10.4493 15.053C10.421 15.4582 10.2906 15.8084 10.0582 16.1037C9.82887 16.3958 9.51474 16.6205 9.1158 16.7775C8.71999 16.9346 8.28336 17.0084 7.80588 16.999C7.31899 16.9896 6.88549 16.8875 6.5054 16.6927C6.1253 16.4979 5.8363 16.2231 5.6384 15.8681C5.45307 15.5383 5.36668 15.1613 5.37925 14.7373L6.75984 14.742C6.71586 15.4865 7.08182 15.865 7.85771 15.8775C8.19383 15.8775 8.47026 15.8037 8.68701 15.6561C8.90376 15.5084 9.03255 15.3121 9.07339 15.0671ZM14.8785 15.0671C14.9444 14.6933 14.7607 14.4074 14.3272 14.2095L13.4178 13.8467C12.3623 13.3755 11.8613 12.7268 11.9147 11.9007C11.9367 11.5174 12.0623 11.1782 12.2916 10.8829C12.5209 10.5876 12.8429 10.3567 13.2576 10.1903C13.6722 10.0206 14.1198 9.93896 14.6005 9.94524C15.2633 9.9578 15.7989 10.1557 16.2072 10.5389C16.6156 10.919 16.8166 11.4295 16.8104 12.0703H15.4345C15.4502 11.7593 15.3811 11.5174 15.2271 11.3447C15.0764 11.1719 14.8408 11.0824 14.5204 11.0761C14.2062 11.0698 13.9329 11.1421 13.7005 11.2928C13.468 11.4405 13.3298 11.6447 13.2858 11.9054C13.2262 12.2478 13.4555 12.5195 13.9738 12.7206L14.5958 12.9562L14.9539 13.1211C15.8805 13.5797 16.314 14.2237 16.2543 15.053C16.2261 15.4582 16.0957 15.8084 15.8633 16.1037C15.6339 16.3958 15.3198 16.6205 14.9209 16.7775C14.5251 16.9346 14.0884 17.0084 13.611 16.999C13.1241 16.9896 12.6906 16.8875 12.3105 16.6927C11.9304 16.4979 11.6414 16.2231 11.4435 15.8681C11.2581 15.5383 11.1718 15.1613 11.1843 14.7373L12.5649 14.742C12.5209 15.4865 12.8869 15.865 13.6628 15.8775C13.9989 15.8775 14.2753 15.8037 14.4921 15.6561C14.7088 15.5084 14.8376 15.3121 14.8785 15.0671ZM18.714 14.4828L18.2899 16.9H16.9093L18.1014 10.0395L20.5045 10.0442C21.2458 10.0442 21.8285 10.2499 22.2526 10.6615C22.6767 11.073 22.862 11.6101 22.8086 12.2729C22.7584 12.9452 22.4772 13.4823 21.9652 13.8844C21.4563 14.2865 20.8061 14.4875 20.0145 14.4875L18.714 14.4828ZM18.9072 13.3378L20.0569 13.3472C20.4275 13.3472 20.7354 13.2514 20.9804 13.0598C21.2254 12.8682 21.3715 12.609 21.4186 12.2823C21.4657 11.9557 21.4123 11.6949 21.2584 11.5002C21.1076 11.3054 20.883 11.2017 20.5846 11.1892L19.2841 11.1845L18.9072 13.3378Z" fill="white"/>
</svg>
