<?xml version="1.0" encoding="utf-8"?>
<!-- Generator: Adobe Illustrator 24.0.1, SVG Export Plug-In . SVG Version: 6.00 Build 0)  -->
<svg width="48" height="48" version="1.1" id="Calque_1" xmlns="http://www.w3.org/2000/svg" xmlns:xlink="http://www.w3.org/1999/xlink" x="0px" y="0px"
	 viewBox="0 0 48 48" style="enable-background:new 0 0 48 48;" xml:space="preserve">
<style type="text/css">
	.st0{fill:#EF6A00;}
</style>
<path class="st0" d="M26.6,13.6c-0.2-0.2-0.5-0.4-0.8-0.5c-0.3-0.1-0.7-0.3-1.2-0.4l-0.1,0v-2.6c0.4,0.1,0.7,0.2,0.9,0.3
	c0.3,0.2,0.5,0.4,0.7,0.6l0.9-0.8c-0.3-0.4-0.6-0.7-1-0.9c-0.4-0.2-0.9-0.3-1.4-0.4V7.9h-1.1V9c-0.8,0.1-1.4,0.3-1.8,0.7
	c-0.4,0.4-0.7,0.9-0.7,1.6c0,0.6,0.2,1.1,0.6,1.5c0.4,0.4,1.1,0.7,2,0.9v2.8c-0.4-0.1-0.8-0.2-1.1-0.4c-0.3-0.2-0.6-0.4-0.9-0.8
	l-0.9,0.8c0.3,0.4,0.7,0.7,1.1,0.9c0.4,0.3,1,0.4,1.6,0.5v1.1h1.1v-1.1c0.8-0.1,1.5-0.4,1.9-0.8c0.4-0.4,0.7-1,0.7-1.7
	c0-0.3,0-0.6-0.1-0.9C26.9,14,26.8,13.8,26.6,13.6z M23.6,12.5c-0.4-0.1-0.8-0.3-1-0.4c-0.2-0.2-0.3-0.4-0.3-0.8
	c0-0.3,0.1-0.6,0.3-0.8c0.2-0.2,0.5-0.3,0.9-0.4L23.6,12.5L23.6,12.5z M25.5,16c-0.2,0.2-0.5,0.4-1,0.4v-2.6c0.5,0.1,0.8,0.3,1,0.5
	c0.2,0.2,0.3,0.5,0.3,0.8C25.8,15.5,25.7,15.8,25.5,16z"/>
<path class="st0" d="M24.7,28.1v-3.5c5.9-0.3,10.6-5.2,10.6-11.1c0-6.1-5.1-11.1-11.3-11.1c-6.2,0-11.3,5-11.3,11.1
	c0,5.9,4.7,10.7,10.6,11.1v6.3c0,0.3-0.1,0.5-0.1,0.8c0,0,0,0.1,0,0.1c-1.1-1.2-2.7-2-4.4-2H13v5.8c0,3.2,2.6,5.8,5.9,5.8
	c1.8,0,3.4-0.8,4.5-2.1v5.6h1.4v-9.3v-0.2c1,1.1,2.5,1.8,4.1,1.8c3.1,0,5.5-2.5,5.5-5.5v-5.5h-5.5C27.2,26.2,25.7,26.9,24.7,28.1z
	 M22.4,38.2l-5-4.9l-1,0.9l5,4.9c-0.7,0.5-1.7,0.9-2.7,0.9c-2.5,0-4.5-2-4.5-4.4v-4.4h4.5c2.5,0,4.5,2,4.5,4.4
	C23.3,36.6,23,37.5,22.4,38.2z M14.1,13.5c0-5.4,4.5-9.8,9.9-9.8s9.9,4.4,9.9,9.8c0,5.4-4.5,9.8-9.9,9.8S14.1,18.9,14.1,13.5z
	 M33,31.7c0,2.3-1.9,4.1-4.2,4.1c-0.9,0-1.7-0.3-2.4-0.8l4.6-4.6l-1-0.9l-4.6,4.6c-0.5-0.7-0.8-1.5-0.8-2.4c0-2.3,1.9-4.1,4.2-4.1
	H33V31.7z"/>
</svg>
