<svg width="51" height="46" viewBox="0 0 51 46" fill="none" xmlns="http://www.w3.org/2000/svg">
<path d="M35.9485 45.7531H6.57089C3.27919 45.7531 0.646484 43.1204 0.646484 39.8287V13.4111C0.646484 10.1194 3.27919 7.48672 6.57089 7.48672H35.9485C39.2402 7.48672 41.8729 10.1194 41.8729 13.4111V39.8287C41.8761 43.1204 39.1598 45.7531 35.9485 45.7531ZM6.57089 9.95582C4.6775 9.95582 3.03165 11.5181 3.03165 13.4951V39.9126C3.03165 41.806 4.59389 43.4518 6.57089 43.4518H35.9485C37.8419 43.4518 39.4877 41.8896 39.4877 39.9126V13.4119C39.4877 11.5186 37.9255 9.87271 35.9485 9.87271H6.57089V9.95582Z" fill="#00A8FF"/>
<path d="M44.9208 38.2628H40.6422C39.9832 38.2628 39.4078 37.6874 39.4078 37.0284C39.4078 36.3694 39.9832 35.794 40.6422 35.794H44.9208C46.8142 35.794 48.46 34.2318 48.46 32.2548V5.92119C48.46 4.0278 46.8978 2.38195 44.9208 2.38195L15.5432 2.38517C13.6498 2.38517 12.0039 3.94741 12.0039 5.9244V8.72103C12.0039 9.38002 11.4285 9.95542 10.7695 9.95542C10.1106 9.95542 9.53516 9.38002 9.53516 8.72103V5.9244C9.53516 2.6327 12.1679 0 15.4596 0H44.8372C48.1289 0 50.7616 2.6327 50.7616 5.9244V32.3419C50.8451 35.6304 48.2124 38.2631 44.9207 38.2631L44.9208 38.2628Z" fill="#00A8FF"/>
<path d="M40.6423 17.7736H1.88087C1.22189 17.7736 0.646484 17.1982 0.646484 16.5392C0.646484 15.8802 1.22189 15.3048 1.88087 15.3048H40.6423C41.3013 15.3048 41.8767 15.8802 41.8767 16.5392C41.8767 17.1982 41.2981 17.7736 40.6423 17.7736Z" fill="#00A8FF"/>
</svg>
