<svg width="48" height="43" viewBox="0 0 48 43" fill="none" xmlns="http://www.w3.org/2000/svg">
<path d="M44.3894 6.9893H33.5115V3.31262C33.5115 1.48613 32.0253 0 30.1989 0H17.8011C15.9746 0 14.4885 1.48613 14.4885 3.31262V6.9893H3.6106C1.61953 6.9893 0 8.61008 0 10.5999V39.1406C0 41.1316 1.61953 42.7512 3.6106 42.7512H44.3894C46.3805 42.7512 48 41.1304 48 39.1406V10.5999C48 8.61008 46.3792 6.9893 44.3894 6.9893ZM16.9808 3.31262C16.9808 2.8613 17.3486 2.49351 17.7999 2.49351H30.1976C30.6489 2.49351 31.0167 2.8613 31.0167 3.31262V6.9893H16.9808V3.31262ZM3.6106 9.48281H44.3894C45.0053 9.48281 45.5065 9.984 45.5065 10.5999V20.2922H31.4045C31.1751 18.5193 29.6727 17.1404 27.84 17.1404H20.1575C18.3235 17.1404 16.8224 18.5193 16.5943 20.2922H2.49351V10.5999C2.49351 9.984 2.99345 9.48281 3.6106 9.48281ZM28.9583 20.7522V22.3281C28.9583 22.944 28.4571 23.4452 27.8412 23.4452H20.1588C19.5429 23.4452 19.0417 22.944 19.0417 22.3281V20.7522C19.0417 20.1363 19.5416 19.6351 20.1588 19.6351H27.8412C28.4559 19.6351 28.9583 20.1363 28.9583 20.7522ZM44.3894 40.2589H3.6106C2.9947 40.2589 2.49351 39.7577 2.49351 39.1418V22.7869H16.5943C16.8237 24.5598 18.3248 25.9387 20.1575 25.9387H27.84C29.674 25.9387 31.1763 24.5598 31.4045 22.7869H45.5065V39.1406C45.5065 39.7565 45.0053 40.2589 44.3894 40.2589Z" fill="#0541C7"/>
</svg>
