<?xml version="1.0" encoding="utf-8"?>
<!-- Generator: Adobe Illustrator 22.1.0, SVG Export Plug-In . SVG Version: 6.00 Build 0)  -->
<svg version="1.1" id="Capa_1" xmlns="http://www.w3.org/2000/svg" xmlns:xlink="http://www.w3.org/1999/xlink" x="0px" y="0px"
	 viewBox="0 0 409 409" style="enable-background:new 0 0 409 409;" xml:space="preserve">
<style type="text/css">
	.st0{fill:#001464;}
</style>
<path class="st0" d="M383.6,23.1C351.5-9,297.5-7.5,263.4,26.7c-7.2,7.2-13,15.3-17.3,24l-22.9,1.9c-6.7,0.6-13,3.5-17.7,8.2
	l-195,195c-11.1,11.1-11.1,29,0,40.1l104.8,104.8c11.1,11.1,29,11.1,40.1,0l195-195c4.7-4.7,7.7-11,8.2-17.7l2.5-29.9
	c6.9-4,13.3-8.9,19-14.6C414.2,109.3,415.8,55.3,383.6,23.1z M363.5,128.8l4.6-55.2c0.7-8.3-2.3-16.5-8.2-22.4s-14.1-8.9-22.4-8.2
	L302.4,46c-1.9,1.5-3.7,3.1-5.4,4.9c-16.7,16.7-22.5,40-17.1,60c4.5,1.7,8.8,4.3,12.5,8c13.6,13.6,13.6,35.5,0,49.1
	c-13.6,13.6-35.5,13.6-49.1,0c-13.2-13.2-13.5-34.4-1-48.1c3.9,9.9,9.7,19.1,17.6,27.1c4.3,4.3,11.3,4.3,15.6,0s4.3-11.3,0-15.6
	c-23.6-23.6-22-63.6,3.5-89.1c25.5-25.5,65.5-27.1,89.1-3.5c23.6,23.6,22,63.6-3.5,89.1C364.2,128.2,363.9,128.5,363.5,128.8z"/>
</svg>
