<?xml version="1.0" encoding="utf-8"?>
<!-- Generator: Adobe Illustrator 24.0.1, SVG Export Plug-In . SVG Version: 6.00 Build 0)  -->
<svg width="34" height="42" version="1.1" id="Calque_1" xmlns="http://www.w3.org/2000/svg" xmlns:xlink="http://www.w3.org/1999/xlink" x="0px" y="0px"
	 viewBox="0 0 34 42" style="enable-background:new 0 0 38 42;" xml:space="preserve">
<style type="text/css">
	.st0{fill:none;stroke:#EE6A00;stroke-width:1.2;stroke-linejoin:round;stroke-miterlimit:10;}
	.st1{fill:none;stroke:#EE6A00;stroke-width:1.2;stroke-linecap:round;stroke-linejoin:round;stroke-miterlimit:10;}
</style>
<path class="st0" d="M23.9,0.8H10.3v5.4h13.6V0.8z"/>
<path class="st0" d="M17,3.4V0.8"/>
<path class="st0" d="M10.3,3.4H0.8v37.8h32.4V3.4h-9.4"/>
<path class="st0" d="M14.3,37.2H0.8"/>
<path class="st0" d="M33.2,37.2H19.7"/>
<path class="st1" d="M21.1,12.9l2.8,2.6l4.1-5.3"/>
<path class="st0" d="M4.8,14.3h9.5"/>
<path class="st0" d="M15.6,14.3h2.8"/>
<path class="st1" d="M21.1,21l2.8,2.8l4.1-5.4"/>
<path class="st0" d="M4.8,22.4h2.7"/>
<path class="st0" d="M8.9,22.4h9.5"/>
<path class="st1" d="M21.1,29.1l2.8,2.8l4.1-5.4"/>
<path class="st0" d="M4.8,30.5h5.5"/>
<path class="st0" d="M11.5,30.5h6.9"/>
</svg>
