<?xml version="1.0" encoding="UTF-8"?> <svg xmlns="http://www.w3.org/2000/svg" id="Capa_1" data-name="Capa 1" viewBox="0 0 9.38 8.44"> <defs> <style>.cls-1{fill:#fff;}</style> </defs> <title>plane</title> <g id="airplane"> <path class="cls-1" d="M154.27,190.56h-.05c-.13,0-.27-.12-.41-.34h-.11a.6.6,0,0,1-.35-.1,2.11,2.11,0,0,0,.16.3,2.73,2.73,0,0,1-1.19-.91,5.77,5.77,0,0,0,.77.22.9.9,0,0,1,0-.43l-.06,0s0,0,0,.08a4.78,4.78,0,0,1-.7-.22l-.25,0v-.07L152,189a4.31,4.31,0,0,1-.41-1.11,8.3,8.3,0,0,0,.92.19.81.81,0,0,1,.37-.12h0l.89,0,.08-.15-.66,0c0-.32-.05-.67-.05-1s0-.72.05-1l.32,0a5.57,5.57,0,0,0-1-.08h-.31l-.44,0v-.09l-.2.05c.05-.21.11-.4.17-.59a1.47,1.47,0,0,1,.61-1.1,2.68,2.68,0,0,1,1.17-.89,2.88,2.88,0,0,0-.29.61l3.38.36a3.87,3.87,0,0,0-.45-.58,3.92,3.92,0,0,1,.76.58l.29-.24a4.22,4.22,0,1,0-3,7.21h.09l0-.24A.68.68,0,0,0,154.27,190.56Zm1.85-6.65a4.23,4.23,0,0,0-.88-.24,3,3,0,0,0-.31-.67A2.73,2.73,0,0,1,156.12,183.91Zm-1.29-.3a4.67,4.67,0,0,0-1.22,0c.2-.48.42-.74.61-.74S154.63,183.13,154.83,183.61Zm-2,2.1c0,.34,0,.67,0,1s0,.67,0,1a7.51,7.51,0,0,1-1.32-.26,5.5,5.5,0,0,1,0-1.48A8.45,8.45,0,0,1,152.81,185.71Zm-.52-2.32a3.23,3.23,0,0,1-1.4,1.4A3.84,3.84,0,0,1,152.29,183.39Zm-.88,1.43a6,6,0,0,0-.24.88,3,3,0,0,0-.67.31A2.73,2.73,0,0,1,151.41,184.82Zm-.3,1.29a4.67,4.67,0,0,0,0,1.22c-.48-.2-.74-.42-.74-.61S150.63,186.31,151.11,186.11Zm.06,1.63a6,6,0,0,0,.24.88,2.73,2.73,0,0,1-.91-1.19A3,3,0,0,0,151.17,187.74Zm-.28.91a4.11,4.11,0,0,0,.81.59,4.11,4.11,0,0,0,.59.81A3.91,3.91,0,0,1,150.89,188.65Z" transform="translate(-150 -182.5)"></path> <path class="cls-1" d="M157.44,188.83a3.86,3.86,0,0,1-1.29,1.22,4.11,4.11,0,0,0,.59-.81,3.64,3.64,0,0,0,.67-.47c0-.11-.1-.23-.16-.34l-.22.19c.05-.13.09-.25.13-.39L157,188l-.21.2a5.16,5.16,0,0,1-.33.8,4.18,4.18,0,0,1-1.11.41.19.19,0,0,0,0-.07l0,0,.07.4a7.36,7.36,0,0,0,.71-.21,2.72,2.72,0,0,1-.65.62l0,.08a.79.79,0,0,1-.19.57,4.26,4.26,0,0,0,2.29-1.54Z" transform="translate(-150 -182.5)"></path> <path class="cls-1" d="M158.32,190.56a1.06,1.06,0,0,0,1-1.13l-1-3.76c.83-1.2,1.24-2.19.94-2.45s-1.2.25-2.26,1.22l-3.89-.41a1.06,1.06,0,0,0-1,1.13,6.1,6.1,0,0,1,3.41.79,13.52,13.52,0,0,0-1.56,2.43l-1.13,0a.37.37,0,0,0-.35.39,5.48,5.48,0,0,1,1.12.3c-.11.31-.23.6-.08.72s.42,0,.72-.19a2.53,2.53,0,0,1,.43,1.08.36.36,0,0,0,.34-.4l-.18-1.11a13.76,13.76,0,0,0,2.18-1.85A6.91,6.91,0,0,1,158.32,190.56Z" transform="translate(-150 -182.5)"></path> </g> </svg> 