<svg id="Layer_1" data-name="Layer 1" xmlns="http://www.w3.org/2000/svg" viewBox="0 0 75 71.1"><defs><style>.cls-1{fill:#9de2eb;}</style></defs><path class="cls-1" d="M73.7,53H1.3A1.3,1.3,0,0,0,0,54.3V69.8a1.3,1.3,0,0,0,1.3,1.3H73.7A1.3,1.3,0,0,0,75,69.8V54.3A1.3,1.3,0,0,0,73.7,53ZM72.4,68.5H2.6V55.6H72.4Z" transform="translate(0 0)"/><path class="cls-1" d="M29.7,63.4H45.4a1.2,1.2,0,0,0,1.2-1.3,1.2,1.2,0,0,0-1.2-1.3H29.7a1.2,1.2,0,0,0-1.3,1.3A1.3,1.3,0,0,0,29.7,63.4Z" transform="translate(0 0)"/><path class="cls-1" d="M44.5,38.3A1.2,1.2,0,0,0,43.3,37H42.2a1.3,1.3,0,0,0-1.3,1.3v1a1.3,1.3,0,0,0,1.3,1.3h1.1a1.2,1.2,0,0,0,1.2-1.3Z" transform="translate(0 0)"/><path class="cls-1" d="M43.3,44.3H42.2a1.3,1.3,0,0,0-1.3,1.3v1a1.3,1.3,0,0,0,1.3,1.3h1.1a1.2,1.2,0,0,0,1.2-1.3v-1A1.2,1.2,0,0,0,43.3,44.3Z" transform="translate(0 0)"/><path class="cls-1" d="M52.2,38.3A1.3,1.3,0,0,0,50.9,37h-1a1.3,1.3,0,0,0-1.3,1.3v1a1.2,1.2,0,0,0,1.3,1.3h1a1.3,1.3,0,0,0,1.3-1.3Z" transform="translate(0 0)"/><path class="cls-1" d="M50.9,44.3h-1a1.3,1.3,0,0,0-1.3,1.3v1a1.3,1.3,0,0,0,1.3,1.3h1a1.3,1.3,0,0,0,1.3-1.3v-1A1.3,1.3,0,0,0,50.9,44.3Z" transform="translate(0 0)"/><path class="cls-1" d="M59.8,38.3A1.3,1.3,0,0,0,58.5,37h-1a1.3,1.3,0,0,0-1.3,1.3v1a1.3,1.3,0,0,0,1.3,1.3h1a1.3,1.3,0,0,0,1.3-1.3Z" transform="translate(0 0)"/><path class="cls-1" d="M58.5,44.3h-1a1.3,1.3,0,0,0-1.3,1.3v1a1.3,1.3,0,0,0,1.3,1.3h1a1.3,1.3,0,0,0,1.3-1.3v-1A1.3,1.3,0,0,0,58.5,44.3Z" transform="translate(0 0)"/><path class="cls-1" d="M3.8,49.9h.4A1.3,1.3,0,0,0,5.4,49l4.8-14.9V17.9h3.6a1.3,1.3,0,0,0,1.3-1.3,1.3,1.3,0,0,0-1.3-1.3H8.9a1.3,1.3,0,0,0-1.3,1.3v17L2.9,48.3A1.3,1.3,0,0,0,3.8,49.9Z" transform="translate(0 0)"/><path class="cls-1" d="M36.9,17.9H64.8V34.1L69.6,49a1.3,1.3,0,0,0,1.2.9h.4a1.2,1.2,0,0,0,.8-1.6L67.3,33.6v-17A1.3,1.3,0,0,0,66,15.3H51.6V11.7h8a1.2,1.2,0,0,0,1.3-1.3V1.3A1.3,1.3,0,0,0,59.6,0H40.9a1.3,1.3,0,0,0-1.3,1.3v9.1a1.3,1.3,0,0,0,1.3,1.3H49v3.6H36.8a1.3,1.3,0,0,0-1.3,1.3A1.3,1.3,0,0,0,36.9,17.9ZM42.3,2.6H58.4V9.1H42.3Z" transform="translate(0 0)"/><path class="cls-1" d="M59.9,23.8a1.3,1.3,0,0,0-1.3-1.3H42.1a1.3,1.3,0,0,0-1.3,1.3v6.5a1.3,1.3,0,0,0,1.3,1.3H58.6a1.3,1.3,0,0,0,1.3-1.3ZM57.3,29H43.4V25.1H57.3Z" transform="translate(0 0)"/><path class="cls-1" d="M14.5,37.6a1.3,1.3,0,0,0-1.3,1.3,1.3,1.3,0,0,0,1.3,1.3H36.2a1.3,1.3,0,0,0,1.3-1.3,1.3,1.3,0,0,0-1.3-1.3H33.3V10.5A1.3,1.3,0,0,0,32,9.2H18.7a1.3,1.3,0,0,0-1.3,1.3V37.6ZM20,11.8H30.7V37.6H20Z" transform="translate(0 0)"/></svg>