<svg id="Layer_1" data-name="Layer 1" xmlns="http://www.w3.org/2000/svg" viewBox="0 0 84.5 79.4"><defs><style>.cls-1{fill:#9de2eb;}</style></defs><path class="cls-1" d="M17.2,15.1l-2-2A37.9,37.9,0,0,1,58.7,5.4L57.5,7.9A35.1,35.1,0,0,0,17.2,15.1Z" transform="translate(0 0)"/><path class="cls-1" d="M51,8.3l6.3-2L55.4,0l3.5,1.9,1.9,6.3-6.3,1.9Z" transform="translate(0 0)"/><path class="cls-1" d="M42.2,77.6A36.8,36.8,0,0,1,26,74l1.2-2.5a35.3,35.3,0,0,0,39.1-6.1,14.5,14.5,0,0,0,1.8-1.7l2,1.8-1.9,2A38.3,38.3,0,0,1,42.2,77.6Z" transform="translate(0 0)"/><path class="cls-1" d="M33.6,71.1l-6.3,2,2,6.3-3.6-1.8-1.9-6.4,6.3-1.9Z" transform="translate(0 0)"/><path class="cls-1" d="M19.7,46a2.4,2.4,0,0,1-2.4-2.4,2.4,2.4,0,0,1,4.8,0A2.4,2.4,0,0,1,19.7,46Zm0-2.7c-.2,0-.4.1-.4.3a.4.4,0,0,0,.8,0C20.1,43.4,19.9,43.3,19.7,43.3Z" transform="translate(0 0)"/><path class="cls-1" d="M56.3,46a2.4,2.4,0,0,1-2.4-2.4,2.4,2.4,0,0,1,4.8,0A2.4,2.4,0,0,1,56.3,46Zm0-2.7c-.2,0-.4.1-.4.3a.4.4,0,0,0,.8,0C56.7,43.4,56.5,43.3,56.3,43.3Z" transform="translate(0 0)"/><path class="cls-1" d="M74.7,65.8H1.4A1.4,1.4,0,0,1,0,64.4V22.8a1.3,1.3,0,0,1,1.4-1.3H74.7A1.3,1.3,0,0,1,76,22.8V64.4A1.3,1.3,0,0,1,74.7,65.8ZM2.8,63H73.3V24.2H2.8Z" transform="translate(0 0)"/><path class="cls-1" d="M83.1,58.9a1.3,1.3,0,0,1-1.4-1.3V16H9.1a1.4,1.4,0,0,1,0-2.8h74a1.4,1.4,0,0,1,1.4,1.4v43A1.3,1.3,0,0,1,83.1,58.9Z" transform="translate(0 0)"/><path class="cls-1" d="M61.7,58.1H14.3a1.4,1.4,0,0,1-1.4-1.4,3.9,3.9,0,0,0-3.8-3.9,1.4,1.4,0,0,1-1.4-1.4V35.8a1.4,1.4,0,0,1,1.4-1.4,3.8,3.8,0,0,0,3.8-3.8,1.4,1.4,0,0,1,1.4-1.4H61.7a1.4,1.4,0,0,1,1.4,1.4A3.8,3.8,0,0,0,67,34.4a1.4,1.4,0,0,1,1.3,1.4V51.4A1.3,1.3,0,0,1,67,52.8a3.9,3.9,0,0,0-3.9,3.9A1.4,1.4,0,0,1,61.7,58.1ZM15.6,55.3H60.5a6.5,6.5,0,0,1,5.1-5.1V37a6.4,6.4,0,0,1-5.1-5.1H15.6A6.6,6.6,0,0,1,10.4,37V50.2A6.8,6.8,0,0,1,15.6,55.3Z" transform="translate(0 0)"/><path class="cls-1" d="M38,51.9a8.1,8.1,0,0,1-7.8-8.3A8.1,8.1,0,0,1,38,35.3a8.1,8.1,0,0,1,7.8,8.3A8.1,8.1,0,0,1,38,51.9Zm0-13.8a5.3,5.3,0,0,0-5,5.5c0,3.1,2.2,5.6,5,5.6a5.6,5.6,0,0,0,0-11.1Z" transform="translate(0 0)"/></svg>