<svg id="Capa_1" data-name="Capa 1" xmlns="http://www.w3.org/2000/svg" viewBox="0 0 10.006 7.342"><defs><style>.cls-1{fill:#fff;}</style></defs><title>sports</title><path class="cls-1" d="M184.268,199.5a.087.087,0,0,0,.01-.051.145.145,0,0,0,.043-.039,1.939,1.939,0,0,0,.279-1.02.078.078,0,0,0-.021-.039.245.245,0,0,0,.015-.046,2.337,2.337,0,0,0-.034-.282h0a.075.075,0,0,1-.014.017l0,0,0,0,0,0s0,0-.008,0l0,0-.005,0-.006,0,0,0v0h0v0l0,0-.012.01-.007,0-.01,0-.008,0-.015,0h0l-.012,0c-.012,0-.024,0-.038,0s-.007-.025-.012-.038l-.011-.03a.089.089,0,0,0-.007-.019l-.013-.029a.024.024,0,0,0-.006-.015c-.005-.012-.011-.023-.017-.038a.174.174,0,0,1-.015-.026v0a.119.119,0,0,0-.009-.015v0c-.006-.013-.013-.023-.018-.036l0-.006-.007-.011a.445.445,0,0,0-.026-.043l0-.01c-.01-.017-.021-.032-.031-.049l0,0c-.01-.017-.023-.035-.035-.052a.394.394,0,0,1-.026-.04l-.012-.013-.015-.024c-.036-.045-.065-.083-.094-.114a.206.206,0,0,0-.029-.03l-.009-.009-.009-.008-.015-.012a.4.4,0,0,0,.014-.045.385.385,0,0,0,.012-.078c0-.016,0-.035,0-.052v-.066a.3.3,0,0,0,0-.043v-.019l-.006-.038a.042.042,0,0,0,0-.016v0c0-.017,0-.032-.007-.05a1.141,1.141,0,0,1,.125.08h0l.009.007,0,0,.008,0,0,0,0,0,.01.009a.014.014,0,0,1,.007-.008.056.056,0,0,0-.016-.03,2.1,2.1,0,0,0-.878-.595c-.012-.009-.016,0-.032.008a.017.017,0,0,0-.014-.026,2.02,2.02,0,0,0-.646-.1,2,2,0,0,0-.627.1l-.014.021a.657.657,0,0,0-.11.025,2,2,0,0,0-.83.624.053.053,0,0,0,0,.034c.031-.021.124-.1.207-.158l0,0,.016-.009.007-.006.017-.007.006,0,.015-.006h0v0h0a.052.052,0,0,1,.019-.008.041.041,0,0,1,0,.019v0l0,.021h0a.32.32,0,0,0-.008.048c0,.012,0,.023,0,.035v0c0,.01,0,.024,0,.034v.012a.151.151,0,0,0,0,.03v.116c0,.014,0,.028,0,.041l0,.013v.006c0,.019,0,.036.007.053-.018.014-.032.025-.049.04l-.018.016c-.006,0-.011.01-.016.013a.121.121,0,0,0-.023.022.141.141,0,0,0-.017.018.1.1,0,0,1-.019.017l-.019.021-.028.032-.014.018a.01.01,0,0,1-.006.008l-.012.015a.216.216,0,0,0-.024.035l0,.006-.012.02c-.008.01-.013.02-.02.03l0,0-.007.01a.381.381,0,0,0-.022.046l0,0c-.008.015-.016.033-.023.05a.474.474,0,0,0-.024.058v0c0,.018-.013.035-.018.053v0a.911.911,0,0,0-.024.1c0,.02,0,.037-.007.055h-.014l-.006,0H180.8l-.008,0h-.009l-.007,0-.01,0h0l-.014,0-.006,0h-.013a.2.2,0,0,0-.029,0l-.016,0-.012,0h-.02v0h0a.055.055,0,0,0-.018,0h-.01l-.009,0h0l0-.016c-.008,0-.017,0-.026.007a2.25,2.25,0,0,0-.027.319,1.975,1.975,0,0,0,.258.979.258.258,0,0,0,.088.1c-.01.022-.009.032,0,.043a2,2,0,0,0,1.061.794.409.409,0,0,0,.119.008.508.508,0,0,0,.106.05,2.07,2.07,0,0,0,.813-.011.37.37,0,0,0,.107-.049c.015.01.03,0,.058,0A1.9,1.9,0,0,0,184.268,199.5Zm-2.1.07a.119.119,0,0,1-.016.022l0,0c-.007.006-.012.015-.019.022v0a.135.135,0,0,1-.021.02l0,.006,0,0-.01.012a.071.071,0,0,0-.016.018l-.005,0a.2.2,0,0,0-.025.025l0,0a.134.134,0,0,0-.027.026l-.021.017-.01.011c-.009.006-.017.016-.026.023l0,0s-.013.01-.02.017l-.007.007-.014.01-.008.008-.007.007-.021.015,0,0v0l0,0a.118.118,0,0,1-.018.013l0,.006-.005,0h0l-.009.006h0l0,0,0,0-.017.014,0,0-.009,0a.016.016,0,0,1-.009.009l-.016.011a1.769,1.769,0,0,1-.664-.453c0-.017-.01-.035-.013-.05v0l0-.013,0-.01,0-.007v0a.064.064,0,0,0,0-.02v0l0-.016a.111.111,0,0,0,0-.023v0a.066.066,0,0,1,0-.025l0,0c0-.022,0-.041-.007-.062-.007-.072-.011-.142-.012-.207v-.128c0-.009,0-.017,0-.024v-.009a.086.086,0,0,1,0-.021v-.009l0-.023.029,0a.174.174,0,0,1,.022,0h.012l.025,0h.01l.031.005h0l.035,0h0l.065,0,0,0c.021,0,.041,0,.063,0h0c.023,0,.044,0,.067,0h.072l.014,0h.07l.056,0h.077c.02,0,.038,0,.052,0,.012.026.022.05.034.073v0c.008.013.014.028.022.043s.01.02.015.03l.011.025c.011.018.02.035.031.054a.069.069,0,0,0,.01.017c.012.026.027.05.04.073l0,0c.036.058.072.114.1.167h0a.4.4,0,0,0,.028.043.162.162,0,0,0,.013.019.056.056,0,0,0,.014.02c.031.047.058.087.075.116Zm.821-1.424h-.032l-.015,0-.031,0h-.069c-.011,0-.024,0-.033,0h-.094c-.023,0-.047,0-.069,0h-.183a.151.151,0,0,0-.03,0h-.083c-.019,0-.036,0-.054,0h-.029a.3.3,0,0,0-.031,0c-.014,0-.025,0-.039,0a2.4,2.4,0,0,1-.27-.714,1.763,1.763,0,0,1,.687-.433l.032.013h0l.01,0,.007,0,.009.005.01,0,.015.006.01.007h0c.054.026.116.057.178.093l0,0a.773.773,0,0,1,.067.039l.006.006c.022.012.043.027.065.042h0l.066.047.012.009c.02.016.04.029.059.046l0,0c.019.016.039.03.059.049l.014.012c.018.015.037.033.058.05,0,.013-.008.027-.011.041l0,.009a.337.337,0,0,1-.01.034v.012a.258.258,0,0,0-.01.038l0,.008c0,.015-.009.029-.012.045l0,0c0,.015-.008.031-.015.048v0c0,.018-.009.035-.015.052v0c-.013.038-.025.081-.039.119l0,.008h0l-.007.022-.008.024h0l-.007.019c0,.011-.006.019-.01.027v0l-.006.015v0a.153.153,0,0,1-.008.026h0c-.008.018-.015.037-.021.054l-.011.026h0l-.006.009v0a.113.113,0,0,0-.008.022h0c-.005.013-.011.025-.016.035s-.028,0-.042,0A.285.285,0,0,0,182.986,198.149Zm.463,1.806a.062.062,0,0,1-.014-.014l0,0-.006,0-.008-.006,0,0a.028.028,0,0,0-.013-.01v0l0,0h0l0,0v0h0l0,0-.019-.014,0,0,0,0-.01-.008v0l0,0-.015-.011-.01-.01a.146.146,0,0,1-.019-.016l-.007-.008a.285.285,0,0,1-.032-.027l-.009-.007,0,0a.227.227,0,0,0-.028-.026l0,0-.083-.083v0c-.007-.009-.017-.017-.025-.028l-.005-.006a.162.162,0,0,1-.018-.02l-.007-.01-.014-.017-.007-.011a.231.231,0,0,0-.018-.023l.01-.009a3.277,3.277,0,0,0,.3-.423l.007-.015a.116.116,0,0,1,.018-.027.123.123,0,0,0,.011-.023l.014-.023a.142.142,0,0,1,.013-.022l.011-.022a.2.2,0,0,0,.014-.025.07.07,0,0,1,.009-.017.131.131,0,0,0,.012-.027l.007-.012c.007-.013.012-.025.018-.035h.176c.064,0,.133,0,.2,0h.272a.759.759,0,0,1,.018.128l0,0,0,.028v.148c0,.022,0,.043,0,.061v.006l0,.021,0,.014v.035a.05.05,0,0,1,0,.018.044.044,0,0,1,0,.017v.015c0,.006,0,.01,0,.016v.027l0,0v.011a.233.233,0,0,1,0,.028s-.01.012-.018.022l0,.005a.249.249,0,0,0-.017.024l-.008,0a.34.34,0,0,1-.026.029l0,0c-.01.011-.024.023-.036.037a2.221,2.221,0,0,1-.2.168,1.215,1.215,0,0,1-.369.192Z" transform="translate(-180.546 -194.281)"/><path class="cls-1" d="M189.819,194.913a2.961,2.961,0,0,0-4.121.491,3.059,3.059,0,0,0-.5,3.86l-1.587,1.32a.577.577,0,0,0,.024.812l.075.071a.574.574,0,0,0,.812-.024l1.226-1.661a3.051,3.051,0,0,0,3.82-.728A2.959,2.959,0,0,0,189.819,194.913Zm-.637,3.775a2.162,2.162,0,1,1,.2-3.312A2.364,2.364,0,0,1,189.182,198.688Z" transform="translate(-180.546 -194.281)"/><path class="cls-1" d="M189.282,196.919l.542-.015a2.254,2.254,0,0,0-.032-.387l-.521.016-.016-.6.324-.01a1.666,1.666,0,0,0-.294-.378l-.042,0,0-.045a1.732,1.732,0,0,0-.394-.267l.01.322-.607.018-.016-.519a2.143,2.143,0,0,0-.385-.009l.015.54-.607.018-.013-.433a2.551,2.551,0,0,0-.38.162l.009.282-.456.013a2.621,2.621,0,0,0-.289.268,2.871,2.871,0,0,0-.232.278l.014.463-.293.009a2.907,2.907,0,0,0-.145.389l.45-.013.018.609-.56.015a2.119,2.119,0,0,0,.025.384l.545-.015.018.607-.355.01a1.667,1.667,0,0,0,.283.378l.083,0v.085a1.811,1.811,0,0,0,.4.26l-.011-.357.6-.018.018.544a2.339,2.339,0,0,0,.384,0l-.016-.56.607-.018.013.449a2.361,2.361,0,0,0,.38-.169l0-.292.459-.013a3.04,3.04,0,0,0,.264-.245,2.837,2.837,0,0,0,.25-.306l-.012-.456.282-.009a2.984,2.984,0,0,0,.141-.388l-.434.01Zm-3-.9.608-.018.015.605-.605.019Zm.028.991.607-.017.019.607-.608.017Zm.048,1.6-.018-.6.607-.019.017.607Zm.915-2.62.608-.017.017.607-.607.017Zm.03.992.6-.016.02.606-.607.017Zm.048,1.6-.02-.607.608-.016.017.606Zm.916-2.621.606-.018.018.607-.607.018Zm.027.994.608-.017.018.606-.608.017Zm.048,1.6-.017-.606.607-.017.016.606Z" transform="translate(-180.546 -194.281)"/><path class="cls-1" d="M186.045,200.183a.72.72,0,1,0,.72.719A.719.719,0,0,0,186.045,200.183Z" transform="translate(-180.546 -194.281)"/></svg>