<?xml version="1.0" encoding="UTF-8"?> <svg xmlns="http://www.w3.org/2000/svg" id="Capa_1" data-name="Capa 1" viewBox="0 0 9.66 8.89"> <defs> <style>.cls-1{fill:#fff;}</style> </defs> <title>medical</title> <g id="bag"> <path class="cls-1" d="M182.07,128.27h-9.66v2.78h4.36V131a.47.47,0,0,1,.93,0v.09h4.37Z" transform="translate(-172.41 -126.96)"></path> <path class="cls-1" d="M177.24,130.82a.23.23,0,0,0-.23.23v.4a.23.23,0,1,0,.46,0v-.4A.23.23,0,0,0,177.24,130.82Z" transform="translate(-172.41 -126.96)"></path> <path class="cls-1" d="M175.44,127.73a.47.47,0,0,1,.47-.47h2.66a.47.47,0,0,1,.47.47V128h.45v-.44a.6.6,0,0,0-.59-.59h-3.32a.59.59,0,0,0-.59.59V128h.45Z" transform="translate(-172.41 -126.96)"></path> <path class="cls-1" d="M181.77,131.39a.56.56,0,0,1-.31.09l-3.76,0v.12a.47.47,0,0,1-.93,0v-.11l-3.79,0a.56.56,0,0,1-.31-.09l0,3.87c0,.33.28.51.63.51h7.84a.61.61,0,0,0,.62-.6Zm-3.05,3.08h-.88v.87h-1.21v-.87h-.87v-1.21h.87v-.88h1.21v.88h.88Z" transform="translate(-172.41 -126.96)"></path> </g> </svg> 