<svg id="Layer_1" data-name="Layer 1" xmlns="http://www.w3.org/2000/svg" viewBox="0 0 82 74"><defs><style>.cls-1{fill:#9de2eb;}</style></defs><path class="cls-1" d="M65.5,45.1a1.5,1.5,0,0,0-2,0L49,59.7a1.3,1.3,0,0,0,0,2,1.4,1.4,0,0,0,2,0L65.5,47.2A1.5,1.5,0,0,0,65.5,45.1Z" transform="translate(0 0)"/><path class="cls-1" d="M59.5,62.1a1.4,1.4,0,0,0,1-.5l6-5.9a1.5,1.5,0,0,0,0-2.1,1.5,1.5,0,0,0-2,0l-6,6a1.3,1.3,0,0,0,0,2A1.4,1.4,0,0,0,59.5,62.1Z" transform="translate(0 0)"/><path class="cls-1" d="M20.2,48.4v4.8a1.4,1.4,0,0,0,1.4,1.4,1.5,1.5,0,0,0,1.5-1.4V48.4a1.5,1.5,0,0,0-1.5-1.5A1.5,1.5,0,0,0,20.2,48.4Z" transform="translate(0 0)"/><path class="cls-1" d="M11.2,32.8a8.7,8.7,0,0,0,7.4-4.1,8.4,8.4,0,0,0,7.3,4.1,8.8,8.8,0,0,0,7.5-4.1,8.9,8.9,0,0,0,15,0,8.7,8.7,0,0,0,7.5,4.1,8.9,8.9,0,0,0,7.5-4.1,8.9,8.9,0,0,0,16.4-4.8V17.4a1.1,1.1,0,0,0-.2-.7L70.5.7A1.4,1.4,0,0,0,69.3,0H13a1.4,1.4,0,0,0-1.2.7l-9.3,16a2.5,2.5,0,0,0-.2.7v6.5A8.9,8.9,0,0,0,11.2,32.8Zm-6.1-15L13.8,2.9h7.9L20,10.2a1.4,1.4,0,0,0,1.1,1.7h.3a1.4,1.4,0,0,0,1.4-1.1l1.9-8h8.8L33,10.4a1.5,1.5,0,0,0,1.4,1.5h0a1.5,1.5,0,0,0,1.5-1.3l.5-7.8h9l.4,7.8a1.5,1.5,0,0,0,1.5,1.3h.1a1.5,1.5,0,0,0,1.3-1.5l-.5-7.6H57l1.9,8a1.5,1.5,0,0,0,1.4,1.1h.4a1.4,1.4,0,0,0,1-1.7L60,2.9h8.4L75.9,16h-64a1.4,1.4,0,1,0,0,2.8h65v5.1a6.1,6.1,0,1,1-12.1,0,1.5,1.5,0,0,0-1.5-1.4,1.4,1.4,0,0,0-1.4,1.4A6.1,6.1,0,0,1,55.8,30a6.1,6.1,0,0,1-6.1-6.1,1.4,1.4,0,0,0-2.8,0,6.1,6.1,0,1,1-12.1,0,1.4,1.4,0,0,0-1.4-1.4,1.5,1.5,0,0,0-1.5,1.4,6,6,0,1,1-12,0,1.4,1.4,0,0,0-2.8,0,6,6,0,1,1-12,0V17.8Z" transform="translate(0 0)"/><path class="cls-1" d="M80.6,71.2H75.4V36.7a1.4,1.4,0,0,0-2.8,0V71.2H30.2V36.7a1.4,1.4,0,1,0-2.8,0V71.2H9.4V36.7a1.4,1.4,0,0,0-2.8,0V71.2H1.4a1.4,1.4,0,1,0,0,2.8H80.6a1.4,1.4,0,1,0,0-2.8Z" transform="translate(0 0)"/></svg>