<?xml version="1.0" encoding="UTF-8"?> <svg xmlns="http://www.w3.org/2000/svg" id="Capa_1" data-name="Capa 1" viewBox="0 0 7.16 8.83"> <defs> <style>.cls-1{fill:#fff;}</style> </defs> <title>Bus</title> <g id="train"> <path class="cls-1" d="M138.24,237.42h0a.67.67,0,0,1,.67-.68h2.91a.68.68,0,0,1,.68.68h-4.26Z" transform="translate(-136.79 -236.74)"></path> <path class="cls-1" d="M142.44,237.58h-4.15a.89.89,0,0,0-.89.9v3.84a.91.91,0,0,0,.71.88l.19,0h4.15l.19,0a.91.91,0,0,0,.71-.88v-3.84A.9.9,0,0,0,142.44,237.58Zm-3.82,5.29a.64.64,0,0,1-.63-.64.63.63,0,0,1,1.26,0A.64.64,0,0,1,138.62,242.87Zm3.49,0a.63.63,0,0,1-.62-.64.62.62,0,0,1,.62-.62.63.63,0,0,1,.64.62A.64.64,0,0,1,142.11,242.87Zm.72-2.59a.45.45,0,0,1-.45.45h-4a.46.46,0,0,1-.46-.45V238.6a.46.46,0,0,1,.46-.45h4a.45.45,0,0,1,.45.45Z" transform="translate(-136.79 -236.74)"></path> <path class="cls-1" d="M143.86,245.07l-.28-.29h.18a.16.16,0,0,0,.16-.15.16.16,0,0,0-.16-.16h-.5l-.58-.59h.12a.11.11,0,1,0,0-.22h-.35l-.28-.29h-.85l.29.29h-2.48l.29-.29h-.85l-.29.29h-.35a.11.11,0,1,0,0,.22h.13l-.59.59H137a.16.16,0,0,0-.16.16.16.16,0,0,0,.16.15h.19l-.29.29a.31.31,0,0,0,0,.42.3.3,0,0,0,.43,0l.7-.71h4.73l.71.71a.3.3,0,0,0,.42-.42Zm-5.54-.6.58-.59h2.93l.59.59Z" transform="translate(-136.79 -236.74)"></path> </g> </svg> 