<?xml version="1.0" encoding="UTF-8"?> <svg xmlns="http://www.w3.org/2000/svg" id="Capa_1" data-name="Capa 1" viewBox="0 0 7.33 8.2"> <defs> <style>.cls-1{fill:#fff;}</style> </defs> <title>stores</title> <path class="cls-1" d="M153.91,131.2v-3a.23.23,0,0,0-.23-.23h-.6a.23.23,0,0,0-.23.23v3Z" transform="translate(-150.33 -127.94)"></path> <path class="cls-1" d="M152.85,131.34a.45.45,0,0,0,.45.46h.15a.46.46,0,0,0,.46-.46Z" transform="translate(-150.33 -127.94)"></path> <path class="cls-1" d="M153.91,131.2v-3a.23.23,0,0,0-.23-.23h-.6a.23.23,0,0,0-.23.23v3Z" transform="translate(-150.33 -127.94)"></path> <path class="cls-1" d="M155.16,131.2v-3a.22.22,0,0,0-.22-.23h-.6a.23.23,0,0,0-.23.23v3Z" transform="translate(-150.33 -127.94)"></path> <path class="cls-1" d="M154.1,131.34a.46.46,0,0,0,.46.46h.14a.45.45,0,0,0,.46-.46Z" transform="translate(-150.33 -127.94)"></path> <path class="cls-1" d="M155.16,131.2v-3a.22.22,0,0,0-.22-.23h-.6a.23.23,0,0,0-.23.23v3Z" transform="translate(-150.33 -127.94)"></path> <path class="cls-1" d="M154.1,131.34a.46.46,0,0,0,.46.46h.14a.45.45,0,0,0,.46-.46Z" transform="translate(-150.33 -127.94)"></path> <path class="cls-1" d="M156.41,131.2v-3a.23.23,0,0,0-.23-.23h-.6a.23.23,0,0,0-.23.23v3Z" transform="translate(-150.33 -127.94)"></path> <path class="cls-1" d="M155.36,131.34a.45.45,0,0,0,.45.46H156a.45.45,0,0,0,.45-.46Z" transform="translate(-150.33 -127.94)"></path> <path class="cls-1" d="M156.41,131.2v-3a.23.23,0,0,0-.23-.23h-.6a.23.23,0,0,0-.23.23v3Z" transform="translate(-150.33 -127.94)"></path> <path class="cls-1" d="M157.66,131.2v-3a.23.23,0,0,0-.23-.23h-.6a.23.23,0,0,0-.23.23v3Z" transform="translate(-150.33 -127.94)"></path> <path class="cls-1" d="M156.61,131.34a.45.45,0,0,0,.45.46h.15a.46.46,0,0,0,.46-.46Z" transform="translate(-150.33 -127.94)"></path> <path class="cls-1" d="M157.66,131.2v-3a.23.23,0,0,0-.23-.23h-.6a.23.23,0,0,0-.23.23v3Z" transform="translate(-150.33 -127.94)"></path> <path class="cls-1" d="M156.61,131.34a.45.45,0,0,0,.45.46h.15a.46.46,0,0,0,.46-.46Z" transform="translate(-150.33 -127.94)"></path> <path class="cls-1" d="M151.4,131.2v-3a.23.23,0,0,0-.23-.23h-.6a.23.23,0,0,0-.23.23v3Z" transform="translate(-150.33 -127.94)"></path> <path class="cls-1" d="M150.34,131.34a.46.46,0,0,0,.46.46H151a.45.45,0,0,0,.45-.46Z" transform="translate(-150.33 -127.94)"></path> <path class="cls-1" d="M151.4,131.2v-3a.23.23,0,0,0-.23-.23h-.6a.23.23,0,0,0-.23.23v3Z" transform="translate(-150.33 -127.94)"></path> <path class="cls-1" d="M152.65,131.2v-3a.23.23,0,0,0-.23-.23h-.6a.23.23,0,0,0-.23.23v3Z" transform="translate(-150.33 -127.94)"></path> <path class="cls-1" d="M151.6,131.34a.45.45,0,0,0,.45.46h.15a.45.45,0,0,0,.45-.46Z" transform="translate(-150.33 -127.94)"></path> <path class="cls-1" d="M152.65,131.2v-3a.23.23,0,0,0-.23-.23h-.6a.23.23,0,0,0-.23.23v3Z" transform="translate(-150.33 -127.94)"></path> <path class="cls-1" d="M151.6,131.34a.45.45,0,0,0,.45.46h.15a.45.45,0,0,0,.45-.46Z" transform="translate(-150.33 -127.94)"></path> <path class="cls-1" d="M157.55,131.8a.55.55,0,0,1-.15.08V136a.11.11,0,0,0,.11.11h0a.11.11,0,0,0,.12-.11v-4.34Z" transform="translate(-150.33 -127.94)"></path> <path class="cls-1" d="M154.4,131.89v2.52a.11.11,0,0,1-.11.11h-3.57a.11.11,0,0,1-.11-.11v-2.5l-.18-.12a.53.53,0,0,1-.1-.12V136a.11.11,0,0,0,.12.11h4.13a.11.11,0,0,0,.11-.11v-4.12h-.06Z" transform="translate(-150.33 -127.94)"></path> <path class="cls-1" d="M155.55,133.82a.13.13,0,0,1-.14.13H155a.13.13,0,0,1-.14-.13h0a.14.14,0,0,1,.14-.14h.38a.14.14,0,0,1,.14.14Z" transform="translate(-150.33 -127.94)"></path> </svg> 