<svg width="48" height="48" viewBox="0 0 48 48" fill="none" xmlns="http://www.w3.org/2000/svg">
<mask id="mask0_8911_1074" style="mask-type:alpha" maskUnits="userSpaceOnUse" x="0" y="0" width="48" height="48">
<rect width="48" height="48" fill="#D9D9D9"/>
</mask>
<g mask="url(#mask0_8911_1074)">
<path d="M41.0115 21.7925V37.769C41.0115 38.6897 40.7032 39.4583 40.0865 40.075C39.4698 40.6917 38.7013 41 37.781 41H10.2425C9.32183 41 8.55317 40.6917 7.9365 40.075C7.31983 39.4583 7.0115 38.6897 7.0115 37.769V21.7155C6.16783 21.0925 5.5505 20.2758 5.1595 19.2655C4.7685 18.2552 4.76017 17.177 5.1345 16.031L7.081 9.6155C7.34767 8.80017 7.77767 8.16033 8.371 7.696C8.96467 7.232 9.69867 7 10.573 7H37.373C38.2473 7 38.9793 7.21733 39.569 7.652C40.159 8.08667 40.5912 8.7155 40.8655 9.5385L42.8885 16.031C43.2628 17.177 43.2545 18.2642 42.8635 19.2925C42.4725 20.3205 41.8552 21.1538 41.0115 21.7925ZM28.4115 21C29.6962 21 30.6552 20.6403 31.2885 19.921C31.9218 19.202 32.1885 18.4592 32.0885 17.6925L30.7575 9H25.0115V17.4C25.0115 18.382 25.3473 19.2275 26.019 19.9365C26.691 20.6455 27.4885 21 28.4115 21ZM19.4115 21C20.4858 21 21.3545 20.6455 22.0175 19.9365C22.6802 19.2275 23.0115 18.382 23.0115 17.4V9H17.2655L15.9345 17.846C15.8525 18.4667 16.1237 19.1475 16.748 19.8885C17.3723 20.6295 18.2602 21 19.4115 21ZM10.5115 21C11.3935 21 12.1428 20.7 12.7595 20.1C13.3762 19.5 13.7602 18.7513 13.9115 17.854L15.1655 9H10.573C10.137 9 9.79083 9.09617 9.5345 9.2885C9.27817 9.48083 9.08583 9.76933 8.9575 10.154L7.1115 16.469C6.78317 17.5203 6.9235 18.5383 7.5325 19.523C8.1415 20.5077 9.1345 21 10.5115 21ZM37.5115 21C38.7088 21 39.6653 20.5333 40.381 19.6C41.0963 18.6667 41.2732 17.623 40.9115 16.469L38.9655 10.077C38.8372 9.69233 38.6448 9.41667 38.3885 9.25C38.1322 9.08333 37.786 9 37.35 9H32.8575L34.1115 17.854C34.2628 18.7513 34.6468 19.5 35.2635 20.1C35.8802 20.7 36.6295 21 37.5115 21ZM10.2425 39H37.781C38.1397 39 38.4345 38.8847 38.6655 38.654C38.8962 38.423 39.0115 38.128 39.0115 37.769V22.746C38.7422 22.8383 38.4863 22.9038 38.244 22.9425C38.002 22.9808 37.7578 23 37.5115 23C36.6115 23 35.8198 22.8243 35.1365 22.473C34.4532 22.1217 33.8038 21.5615 33.1885 20.7925C32.6655 21.4435 32.0207 21.9742 31.254 22.3845C30.4873 22.7948 29.5552 23 28.4575 23C27.6602 23 26.9018 22.8142 26.1825 22.4425C25.4635 22.0705 24.7398 21.5205 24.0115 20.7925C23.3422 21.5205 22.6005 22.0705 21.7865 22.4425C20.9725 22.8142 20.1962 23 19.4575 23C18.6192 23 17.802 22.8397 17.006 22.519C16.2097 22.1987 15.5115 21.6232 14.9115 20.7925C13.9295 21.7745 13.0712 22.3878 12.3365 22.6325C11.6018 22.8775 10.9935 23 10.5115 23C10.2655 23 10.0175 22.9808 9.7675 22.9425C9.5175 22.9038 9.2655 22.8383 9.0115 22.746V37.769C9.0115 38.128 9.12683 38.423 9.3575 38.654C9.5885 38.8847 9.8835 39 10.2425 39Z" fill="url(#paint0_linear_8911_1074)"/>
</g>
<defs>
<linearGradient id="paint0_linear_8911_1074" x1="-11.7538" y1="23.9725" x2="51.9175" y2="23.8069" gradientUnits="userSpaceOnUse">
<stop offset="0.317708" stop-color="#E43425"/>
<stop offset="0.71875" stop-color="#441FD8"/>
<stop offset="1" stop-color="#0A26B8"/>
</linearGradient>
</defs>
</svg>
