<svg width="48" height="48" viewBox="0 0 48 48" fill="none" xmlns="http://www.w3.org/2000/svg">
<mask id="mask0_8911_1087" style="mask-type:alpha" maskUnits="userSpaceOnUse" x="0" y="0" width="48" height="48">
<rect width="48" height="48" fill="#D9D9D9"/>
</mask>
<g mask="url(#mask0_8911_1087)">
<path d="M1 45V6.231C1 5.336 1.31467 4.57367 1.944 3.944C2.57367 3.31467 3.336 3 4.231 3H17.769C18.664 3 19.4263 3.31467 20.056 3.944C20.6853 4.57367 21 5.336 21 6.231V45H19V41H3V45H1ZM31.231 45V33.4155L35.531 29.2385L33.7885 21.154C32.5142 23.1667 31.1122 24.5993 29.5825 25.452C28.0532 26.3047 26.3975 26.795 24.6155 26.923V24.923C26.3692 24.7693 27.8037 24.3475 28.919 23.6575C30.0347 22.9678 31.0245 21.9167 31.8885 20.504L33.7345 17.5155C34.2088 16.7335 34.8397 16.263 35.627 16.104C36.414 15.945 37.228 16.0488 38.069 16.4155L47 20.123V28H45V21.4655L39.2655 19.073L44.6925 45H42.669L38.9655 30.0075L33.231 35.4925V45H31.231ZM3 39H19V6.231C19 5.872 18.8847 5.577 18.654 5.346C18.423 5.11533 18.128 5 17.769 5H4.231C3.872 5 3.577 5.11533 3.346 5.346C3.11533 5.577 3 5.872 3 6.231V39ZM8.231 25.6155L14.5385 22L8.231 18.3845V25.6155ZM34 13.3845C33.054 13.3845 32.2533 13.057 31.598 12.402C30.943 11.7467 30.6155 10.946 30.6155 10C30.6155 9.054 30.943 8.25333 31.598 7.598C32.2533 6.943 33.054 6.6155 34 6.6155C34.946 6.6155 35.7467 6.943 36.402 7.598C37.057 8.25333 37.3845 9.054 37.3845 10C37.3845 10.946 37.057 11.7467 36.402 12.402C35.7467 13.057 34.946 13.3845 34 13.3845Z" fill="url(#paint0_linear_8911_1087)"/>
</g>
<defs>
<linearGradient id="paint0_linear_8911_1087" x1="-18.952" y1="23.9661" x2="57.5135" y2="23.7727" gradientUnits="userSpaceOnUse">
<stop offset="0.317708" stop-color="#E43425"/>
<stop offset="0.71875" stop-color="#441FD8"/>
<stop offset="1" stop-color="#0A26B8"/>
</linearGradient>
</defs>
</svg>
