<svg width="48" height="48" viewBox="0 0 48 48" fill="none" xmlns="http://www.w3.org/2000/svg">
<mask id="mask0_8911_1038" style="mask-type:alpha" maskUnits="userSpaceOnUse" x="0" y="0" width="48" height="48">
<rect width="48" height="48" fill="#D9D9D9"/>
</mask>
<g mask="url(#mask0_8911_1038)">
<path d="M11.231 42.0001C10.3103 42.0001 9.54167 41.6917 8.925 41.0751C8.30833 40.4584 8 39.6897 8 38.7691V13.2311C8 12.3104 8.30833 11.5417 8.925 10.9251C9.54167 10.3084 10.3103 10.0001 11.231 10.0001H14.769V5.53857H16.923V10.0001H31.231V5.53857H33.231V10.0001H36.769C37.6897 10.0001 38.4583 10.3084 39.075 10.9251C39.6917 11.5417 40 12.3104 40 13.2311V38.7691C40 39.6897 39.6917 40.4584 39.075 41.0751C38.4583 41.6917 37.6897 42.0001 36.769 42.0001H11.231ZM11.231 40.0001H36.769C37.077 40.0001 37.3592 39.8719 37.6155 39.6156C37.8718 39.3592 38 39.0771 38 38.7691V21.2311H10V38.7691C10 39.0771 10.1282 39.3592 10.3845 39.6156C10.6408 39.8719 10.923 40.0001 11.231 40.0001ZM10 19.2306H38V13.2311C38 12.9231 37.8718 12.6409 37.6155 12.3846C37.3592 12.1282 37.077 12.0001 36.769 12.0001H11.231C10.923 12.0001 10.6408 12.1282 10.3845 12.3846C10.1282 12.6409 10 12.9231 10 13.2311V19.2306Z" fill="url(#paint0_linear_8911_1038)"/>
</g>
<defs>
<linearGradient id="paint0_linear_8911_1038" x1="-5.87965" y1="23.7399" x2="47.3139" y2="23.6321" gradientUnits="userSpaceOnUse">
<stop offset="0.317708" stop-color="#E43425"/>
<stop offset="0.71875" stop-color="#441FD8"/>
<stop offset="1" stop-color="#0A26B8"/>
</linearGradient>
</defs>
</svg>
