<svg width="48" height="48" viewBox="0 0 48 48" fill="none" xmlns="http://www.w3.org/2000/svg">
<mask id="mask0_8911_1044" style="mask-type:alpha" maskUnits="userSpaceOnUse" x="0" y="0" width="48" height="48">
<rect width="48" height="48" fill="#D9D9D9"/>
</mask>
<g mask="url(#mask0_8911_1044)">
<path d="M14.6155 42.231C13.7718 42.231 13.0608 41.9418 12.4825 41.3635C11.9045 40.7852 11.6155 40.0743 11.6155 39.231C11.6155 38.3873 11.9045 37.6763 12.4825 37.098C13.0608 36.52 13.7718 36.231 14.6155 36.231C15.4592 36.231 16.17 36.52 16.748 37.098C17.3263 37.6763 17.6155 38.3873 17.6155 39.231C17.6155 40.0743 17.3263 40.7852 16.748 41.3635C16.17 41.9418 15.4592 42.231 14.6155 42.231ZM33.3845 42.231C32.5408 42.231 31.83 41.9418 31.252 41.3635C30.6737 40.7852 30.3845 40.0743 30.3845 39.231C30.3845 38.3873 30.6737 37.6763 31.252 37.098C31.83 36.52 32.5408 36.231 33.3845 36.231C34.2282 36.231 34.9392 36.52 35.5175 37.098C36.0955 37.6763 36.3845 38.3873 36.3845 39.231C36.3845 40.0743 36.0955 40.7852 35.5175 41.3635C34.9392 41.9418 34.2282 42.231 33.3845 42.231ZM11.7615 11L17.1 22.231H30.369C30.6 22.231 30.8052 22.1732 30.9845 22.0575C31.1642 21.9422 31.318 21.782 31.446 21.577L36.677 12.077C36.8307 11.795 36.8435 11.545 36.7155 11.327C36.5872 11.109 36.3692 11 36.0615 11H11.7615ZM10.7845 9H36.823C37.6923 9 38.3462 9.3545 38.7845 10.0635C39.2232 10.7725 39.2463 11.5027 38.854 12.254L33.1385 22.669C32.8488 23.1563 32.4725 23.5385 32.0095 23.8155C31.5468 24.0925 31.0385 24.231 30.4845 24.231H16.2L13.769 28.6925C13.564 29.0002 13.5577 29.3335 13.75 29.6925C13.9423 30.0515 14.2308 30.231 14.6155 30.231H36.3845V32.231H14.6155C13.4488 32.231 12.5783 31.7393 12.004 30.756C11.4297 29.7727 11.4155 28.7848 11.9615 27.7925L14.969 22.431L7.6155 7H4V5H8.8845L10.7845 9Z" fill="url(#paint0_linear_8911_1044)"/>
</g>
<defs>
<linearGradient id="paint0_linear_8911_1044" x1="-11.2381" y1="23.5854" x2="47.1615" y2="23.4582" gradientUnits="userSpaceOnUse">
<stop offset="0.317708" stop-color="#E43425"/>
<stop offset="0.71875" stop-color="#441FD8"/>
<stop offset="1" stop-color="#0A26B8"/>
</linearGradient>
</defs>
</svg>
