<?xml version="1.0" encoding="UTF-8"?><svg id="Layer_1" xmlns="http://www.w3.org/2000/svg" xmlns:xlink="http://www.w3.org/1999/xlink" viewBox="0 0 162 244.1"><defs><linearGradient id="linear-gradient" x1="0" y1="107.3" x2="159.5" y2="107.3" gradientTransform="translate(0 237) scale(1 -1)" gradientUnits="userSpaceOnUse"><stop offset="0" stop-color="#444b89"/><stop offset="1" stop-color="#26264f"/></linearGradient><linearGradient id="linear-gradient-2" x1="91.9" y1="57.6" x2="162" y2="57.6" gradientTransform="translate(0 237) scale(1 -1)" gradientUnits="userSpaceOnUse"><stop offset="0" stop-color="#444b89"/><stop offset="1" stop-color="#26264f"/></linearGradient><linearGradient id="linear-gradient-3" x1="74.5" y1="102.9" x2="125.7" y2="102.9" gradientTransform="translate(0 237) scale(1 -1)" gradientUnits="userSpaceOnUse"><stop offset="0" stop-color="#444b89"/><stop offset="1" stop-color="#26264f"/></linearGradient><linearGradient id="linear-gradient-4" x1="2.4" y1="164.5" x2="147.5" y2="164.5" gradientTransform="translate(0 237) scale(1 -1)" gradientUnits="userSpaceOnUse"><stop offset="0" stop-color="#444b89"/><stop offset="1" stop-color="#26264f"/></linearGradient></defs><g style="fill:none; opacity:.2;"><path d="m158.9,230.7l-42.5-72.3c0-.1.2-.2.3-.3,4.6-5.3,6.7-11.9,6.6-18.4,13.4-13.1,21.7-31.3,21.8-51.5.2-40.1-32.1-72.7-72.2-72.9C32.8,15.2.2,47.5,0,87.6c-.2,40.1,32.1,72.7,72.2,72.9,1.5,0,3,0,4.6-.1.3.3.6.6.9.8,5.5,4.7,12.2,6.8,18.8,6.6l43.6,74.1c1.3,2.3,4.3,3,6.5,1.7l10.7-6.3c2.3-1.3,3-4.3,1.7-6.5h0ZM9.3,87.6c.2-34.9,28.6-63.1,63.5-62.9,34.9.2,63.1,28.6,62.9,63.5-.2,34.9-28.6,63.1-63.5,62.9-34.9-.2-63.1-28.6-62.9-63.5Z" style="fill:url(#linear-gradient);"/></g><path d="m161.3,215.3l-50.1-85.2c-.3.4-.5.7-.8,1.1-2.9,3.7-7.1,5.8-11.5,6.4-2.1,1.4-4.5,2.4-7,2.9l50.5,85.9c1.3,2.2,4.3,3,6.5,1.7l10.7-6.3c2.3-1.3,3-4.3,1.7-6.5Z" style="fill:url(#linear-gradient-2);"/><path d="m124.1,115.6c-1.3,4.3-3.9,8.2-7.6,10.8-12.6,8.8-26.7,15.4-42.2,12.5,1.5,2.4,3.3,4.6,5.6,6.6,11.6,9.9,29.1,8.6,39-3,6.6-7.7,8.2-17.9,5.2-26.9h0Z" style="fill:#229fff;"/><path d="m124.2,115.8c-1.3,4.3-3.9,8.2-7.6,10.8-12.6,8.8-26.7,15.4-42.2,12.5,1.5,2.4,3.3,4.6,5.6,6.6,11.6,9.9,29.1,8.6,39-3,6.6-7.7,8.2-17.9,5.2-26.9h0Z" style="fill:url(#linear-gradient-3);"/><path d="m147.5,72.9C147.7,32.8,115.4.2,75.3,0,35.3-.2,2.6,32.1,2.4,72.2c-.2,40.1,32.1,72.7,72.2,72.9,40.1.2,72.7-32.1,72.9-72.2Zm-72.8,62.9c-34.9-.2-63.1-28.6-62.9-63.5.2-34.9,28.6-63.1,63.5-62.9,34.9.2,63.1,28.6,62.9,63.5-.2,34.9-28.6,63.1-63.5,62.9Z" style="fill:url(#linear-gradient-4);"/><path d="m96.6,132c32.8-11.9,49.7-48.2,37.8-81C122.4,18.2,86.2,1.2,53.4,13.2,20.6,25.1,3.6,61.4,15.6,94.2c11.9,32.8,48.2,49.7,81,37.8Z" style="fill:#7397ed; isolation:isolate; opacity:.2;"/></svg>