<?xml version="1.0" encoding="UTF-8"?><svg id="Layer_1" xmlns="http://www.w3.org/2000/svg" xmlns:xlink="http://www.w3.org/1999/xlink" viewBox="0 0 66.8 128.1"><defs><linearGradient id="linear-gradient" x1="49.8" y1="70.9" x2="60.1" y2="70.9" gradientTransform="translate(0 139.9) scale(1 -1)" gradientUnits="userSpaceOnUse"><stop offset="0" stop-color="#26264f"/><stop offset=".2" stop-color="#2a2b57"/><stop offset=".6" stop-color="#35396e"/><stop offset="1" stop-color="#444b8b"/></linearGradient><linearGradient id="linear-gradient-2" x1="41.6" y1="59.7" x2="66.8" y2="59.7" gradientTransform="translate(0 139.9) scale(1 -1)" gradientUnits="userSpaceOnUse"><stop offset="0" stop-color="#26264f"/><stop offset=".2" stop-color="#2a2b57"/><stop offset=".6" stop-color="#35396e"/><stop offset="1" stop-color="#444b8b"/></linearGradient><linearGradient id="linear-gradient-3" x1="27.9" y1="54.8" x2="44.5" y2="54.8" gradientTransform="translate(0 139.9) scale(1 -1)" gradientUnits="userSpaceOnUse"><stop offset="0" stop-color="#e9b764"/><stop offset="1" stop-color="#d77a5c"/></linearGradient><linearGradient id="linear-gradient-4" x1="3.8" y1="52.3" x2="28.8" y2="52.3" gradientTransform="translate(0 139.9) scale(1 -1)" gradientUnits="userSpaceOnUse"><stop offset="0" stop-color="#e9b764"/><stop offset="1" stop-color="#d77a5c"/></linearGradient><linearGradient id="linear-gradient-5" x1="3.7" y1="18.6" x2="3.8" y2="18.6" gradientTransform="translate(0 139.9) scale(1 -1)" gradientUnits="userSpaceOnUse"><stop offset="0" stop-color="#e9b764"/><stop offset="1" stop-color="#d77a5c"/></linearGradient><linearGradient id="linear-gradient-6" x1="37.7" y1="17.7" x2="40.5" y2="17.7" gradientTransform="translate(0 139.9) scale(1 -1)" gradientUnits="userSpaceOnUse"><stop offset="0" stop-color="#26264f"/><stop offset=".2" stop-color="#2a2b57"/><stop offset=".6" stop-color="#35396e"/><stop offset="1" stop-color="#444b8b"/></linearGradient><linearGradient id="linear-gradient-7" x1="38" y1="20.9" x2="50.7" y2="20.9" gradientTransform="translate(0 139.9) scale(1 -1)" gradientUnits="userSpaceOnUse"><stop offset="0" stop-color="#26264f"/><stop offset=".2" stop-color="#2a2b57"/><stop offset=".6" stop-color="#35396e"/><stop offset="1" stop-color="#444b8b"/></linearGradient><linearGradient id="linear-gradient-8" x1="0" y1="18.1" x2="8.7" y2="18.1" gradientTransform="translate(0 139.9) scale(1 -1)" gradientUnits="userSpaceOnUse"><stop offset="0" stop-color="#26264f"/><stop offset=".2" stop-color="#2a2b57"/><stop offset=".6" stop-color="#35396e"/><stop offset="1" stop-color="#444b8b"/></linearGradient><linearGradient id="linear-gradient-9" x1="12.7" y1="74.5" x2="45.8" y2="74.5" gradientTransform="translate(0 139.9) scale(1 -1)" gradientUnits="userSpaceOnUse"><stop offset="0" stop-color="#05c8ff"/><stop offset=".8" stop-color="#18d4a7"/></linearGradient><linearGradient id="linear-gradient-10" x1="12.7" y1="74.5" x2="45.8" y2="74.5" gradientTransform="translate(0 139.9) scale(1 -1)" gradientUnits="userSpaceOnUse"><stop offset="0" stop-color="#0057d2"/><stop offset="0" stop-color="#0057d2"/><stop offset=".4" stop-color="#0085e4"/><stop offset=".7" stop-color="#00b4f7"/><stop offset=".9" stop-color="#00c7ff"/><stop offset="1" stop-color="#00c7ff"/></linearGradient><linearGradient id="linear-gradient-11" x1="11.4" y1="124.6" x2="33.2" y2="124.6" gradientTransform="translate(0 139.9) scale(1 -1)" gradientUnits="userSpaceOnUse"><stop offset="0" stop-color="#331809"/><stop offset="0" stop-color="#331809"/><stop offset=".2" stop-color="#3d1c08"/><stop offset=".7" stop-color="#6c3406"/><stop offset=".9" stop-color="#7f3d06"/><stop offset="1" stop-color="#7f3d06"/></linearGradient><linearGradient id="linear-gradient-12" x1="21.7" y1="120.9" x2="35.5" y2="120.9" gradientTransform="translate(0 139.9) scale(1 -1)" gradientUnits="userSpaceOnUse"><stop offset="0" stop-color="#331809"/><stop offset="0" stop-color="#331809"/><stop offset=".2" stop-color="#3d1c08"/><stop offset=".7" stop-color="#6c3406"/><stop offset=".9" stop-color="#7f3d06"/><stop offset="1" stop-color="#7f3d06"/></linearGradient><linearGradient id="linear-gradient-13" x1="24.4" y1="124.7" x2="32.8" y2="124.7" gradientTransform="translate(0 139.9) scale(1 -1)" gradientUnits="userSpaceOnUse"><stop offset="0" stop-color="#e9b764"/><stop offset="1" stop-color="#d77a5c"/></linearGradient><linearGradient id="linear-gradient-14" x1="53.7" y1="74.2" x2="57.6" y2="74.2" gradientTransform="translate(0 139.9) scale(1 -1)" gradientUnits="userSpaceOnUse"><stop offset="0" stop-color="#e9b764"/><stop offset="1" stop-color="#d77a5c"/></linearGradient><linearGradient id="linear-gradient-15" x1="52.7" y1="78.2" x2="57.9" y2="78.2" gradientTransform="translate(0 139.9) scale(1 -1)" gradientUnits="userSpaceOnUse"><stop offset="0" stop-color="#e9b764"/><stop offset="1" stop-color="#d77a5c"/></linearGradient><linearGradient id="linear-gradient-16" x1="55" y1="99.4" x2="28.8" y2="100.6" gradientTransform="translate(0 139.9) scale(1 -1)" gradientUnits="userSpaceOnUse"><stop offset="0" stop-color="#ceddfe"/><stop offset="1" stop-color="#7399ef"/></linearGradient><linearGradient id="linear-gradient-17" x1="27" y1="132.4" x2="36.8" y2="132.4" gradientTransform="translate(0 139.9) scale(1 -1)" gradientUnits="userSpaceOnUse"><stop offset="0" stop-color="#e9b764"/><stop offset="1" stop-color="#d77a5c"/></linearGradient><linearGradient id="linear-gradient-18" x1="28.3" y1="135.4" x2="33" y2="135.4" gradientTransform="translate(0 139.9) scale(1 -1)" gradientUnits="userSpaceOnUse"><stop offset="0" stop-color="#331809"/><stop offset="0" stop-color="#331809"/><stop offset=".2" stop-color="#3d1c08"/><stop offset=".7" stop-color="#6c3406"/><stop offset=".9" stop-color="#7f3d06"/><stop offset="1" stop-color="#7f3d06"/></linearGradient><linearGradient id="linear-gradient-19" x1="41.3" y1="107" x2="15.5" y2="108.8" gradientTransform="translate(0 139.9) scale(1 -1)" gradientUnits="userSpaceOnUse"><stop offset="0" stop-color="#ceddfe"/><stop offset="1" stop-color="#7399ef"/></linearGradient><linearGradient id="linear-gradient-20" x1="23.9" y1="86.6" x2="32" y2="86.6" gradientTransform="translate(0 139.9) scale(1 -1)" gradientUnits="userSpaceOnUse"><stop offset="0" stop-color="#e9b764"/><stop offset="1" stop-color="#d77a5c"/></linearGradient><linearGradient id="linear-gradient-21" x1="23.4" y1="83.7" x2="33.2" y2="83.7" gradientTransform="translate(0 139.9) scale(1 -1)" gradientUnits="userSpaceOnUse"><stop offset="0" stop-color="#e9b764"/><stop offset="1" stop-color="#d77a5c"/></linearGradient><linearGradient id="linear-gradient-22" x1="23.8" y1="107.3" x2="6.8" y2="108.2" gradientTransform="translate(0 139.9) scale(1 -1)" gradientUnits="userSpaceOnUse"><stop offset="0" stop-color="#ceddfe"/><stop offset="1" stop-color="#7399ef"/></linearGradient><linearGradient id="linear-gradient-23" x1="25.2" y1="92.4" x2="6.6" y2="94" gradientTransform="translate(0 139.9) scale(1 -1)" gradientUnits="userSpaceOnUse"><stop offset="0" stop-color="#ceddfe"/><stop offset="1" stop-color="#7399ef"/></linearGradient></defs><path d="m58.6,74.2c-.3-3.6-1.6-9-3.3-9h0c-2.1,0-3.6,4.9-4,6.6l-1.5-.3c.2-.8,1.7-7.7,5.4-7.8h0c3.7,0,4.6,8.6,4.8,10.4h-1.5c0,.1,0,.1,0,.1Z" style="fill:url(#linear-gradient);"/><path d="m41.7,84.2l1.5-11.1c.2-1.7,1.8-2.9,3.4-2.6l17.5,2.3c1.7.2,2.9,1.8,2.6,3.4l-1.5,11.1c-.2,1.7-1.8,2.9-3.4,2.6l-17.5-2.3c-1.7-.2-2.9-1.8-2.6-3.4Z" style="fill:url(#linear-gradient-2);"/><path d="m34.1,96.5c-.8-4.5.2-9.9.2-9.9l-6.5-20.6s5.1-17,10-9.5c4.9,7.5,4.6,31.4,4.6,31.4.2,11.6,1.3,23.1,2,27.8l-4.7-.4c-.2-5.2-5-14.7-5.7-18.7Z" style="fill:url(#linear-gradient-3);"/><path d="m28.7,59l-6-6.3c-1.3-.2-2.7.3-3.2,1.4-2.1,4.3-3.5,5.7-4.6,28.5,0,1.4-.2,2.5-.3,3.4-2.2,3.7-6.3,9.3-8.1,21.3-1.9,11.9-2.5,14-2.7,14.2.3.8,1.4,2.8,3.9-1.9,0,0-.2-1.9,5.9-12.2,5.7-9.6,7.3-13.5,8.4-18.2,0-.1.1-.2.2-.3,7.7-13,6.5-29.6,6.5-29.6h0Z" style="fill:url(#linear-gradient-4);"/><path d="m3.8,121.4c0-.2,0-.3,0-.3,0,0,0,.3,0,.3Z" style="fill:url(#linear-gradient-5);"/><path d="m22.4,45.4s-4.3,3.3-6.7,10.2c-1.7,4.8-3,27.5-3,27.5,0,0,6.2,3.5,20.1,2,9.1-1,13-2.9,13-2.9-1-13.4-3.2-26-8.3-36.5l-15.1-.3h0Z" style="fill:#fff;"/><path d="m40.2,124.3l-2.6-.3.3-3.9,2.6.3-.3,3.9Z" style="fill:url(#linear-gradient-6);"/><path d="m45.3,116.2s-.7-2.5-.7-2.6c-.1-.3-.4-.2-.6-.1-.1,0-.2.1-.3.2-1.2,1.1-4.5,1.2-4.5,1.2,0,.7.2,1.5-.4,2.4-.8,1.5-.8,2.7-.8,2.7,3.4,1.7,4.2,2.3,5.4,3.6.2.2.6.5,1.1.8,1,.6,6.2-.7,6.2-.7.3-1.9-.8-2.6-2-2.6-1.1,0-2.1-.9-2.3-2l-1-2.9h0Z" style="fill:url(#linear-gradient-7);"/><path d="m.2,125.3s-.5-1.4,1.7-4c1.2-1.4,1.9-3.3,2.8-4.2,0-.5.1-1,.2-1.5.9-.2,2.3.4,3.9,1.4-.3.7-.5,1.3-.7,1.7,0,.5,0,1.4-.6,2.4-.7,1.5-1.8,4.9-1.8,4.9,0,0-6.8,5.3-5.5-.8Z" style="fill:url(#linear-gradient-8);"/><path d="m22.4,45.4s-4.3,3.3-6.7,10.2c-1.7,4.8-3,27.5-3,27.5,0,0,6.2,3.5,20.1,2,9.1-1,13-2.9,13-2.9-1-13.4-3.2-26-8.3-36.5l-15.1-.3h0Z" style="fill:url(#linear-gradient-9); isolation:isolate; opacity:.9;"/><path d="m22.4,45.4s-4.3,3.3-6.7,10.2c-1.7,4.8-3,27.5-3,27.5,0,0,6.2,3.5,20.1,2,9.1-1,13-2.9,13-2.9-1-13.4-3.2-26-8.3-36.5l-15.1-.3h0Z" style="fill:url(#linear-gradient-10); isolation:isolate; opacity:.9;"/><path d="m33.1,3.8c.4-1.7-.9-3.1-2.5-3.5-2.9-.8-5.9,0-7.5,2.5-2.7,4.2-1.9,9.8-8,12.6-7.6,3.4-.8,9.2-.8,9.2.7.9,1.6,1.5,1.3,2.6-.3,1-1.3,2.8-.3,3.1,3.8,1,9-3.2,9.4-7.4,0,0,7.1-6.7,7.7-12.1l.8-7.2h0Z" style="fill:url(#linear-gradient-11);"/><path d="m31.6,9.3c-.5-.9-5.2-1.6-3.8-.5,1.7,1.3,1.2,5.4,1.1,7.3-.1,3.2-4.2,2.9-6.4,7-2.9,5.4,4,4.6,4,4.6,1,0,2.1,0,2.5.6.3.6.3,1.9,1.3,1.5,3.6-1.3,5.9-5.7,4.1-7.8,0,0,2.5-6.4.2-9.1l-3-3.6h0Z" style="fill:url(#linear-gradient-12);"/><path d="m32.8,12.3c0,0-1.3,8.8-1.3,8.8-3.2-.5-6.2-1.1-7-3.1,3-3.2,3.5-8.1,3.5-8.1.7-1.8,2,1.5,3.4,2.7l1.4-.3Z" style="fill:url(#linear-gradient-13);"/><path d="m57.6,64.5l-2,2.1s-.4.5-.7.3c0,0-.5.7-.6,0,0,0-.3.4-.5,0-.2-.5.7-1.9.7-1.9,0,0,2.3-1.6,3.1-.4Z" style="fill:url(#linear-gradient-14);"/><path d="m54.2,58.1s3.4,3.3,3.7,5.4c.3,2.1-3.5,1.8-3.5,1.8l-1.6-4.8,1.4-2.5h0Z" style="fill:url(#linear-gradient-15);"/><path d="m50.1,46c-.5-1.2-1.1-2.3-1.9-3.3l-1-1.3s-1.4-6.8-3.1-12.6c-.6-2.4-1.3-4.6-2.1-6.2-.7-1.4-1.6-2.2-2.5-2.6-2.7-1.4-6,.3-6,.3-2.4.9-1.4,2.7-.5,4.5,1.7,3.2,7.4,16,7.9,17h0s.4,1.3,2.4,5.3c2.6,5.2,9,13.5,9,13.5l2.6-2.2-4.7-12.5h0Z" style="fill:url(#linear-gradient-16);"/><path d="m36.6,7.8c-.4-.2-.7-.4-.9-.6-1-.9-.5-1.9-1.3-3.4-.7-1.3-2.3-2.2-2.8-2.4,0,0,0,0-.1,0-1.2,2.9-1.6,6.7-1.6,6.7,0,0-.9-1.6-2.1-.9-.9.5-1,2,0,3.3.8,1,1.7.4,1.7.4,0,0,.5,2.1,1.7,2.4.4.1,1.1.2,1.8.3,1.3.1,2.5.2,2.5.2.9,0,1.1-.5,1.2-.9,0-.2,0-.5-.1-.7l-.2-.4s0,0,.4-.3c.8-.7-1.2-.7-1.2-.7.5-.2,1.6-.7,1.2-.9-.4-.2-.2-.6-.2-.6,1-.8.3-1.3.3-1.3h0Z" style="fill:url(#linear-gradient-17);"/><path d="m31.9.9s2.5,1.4,0,3.9c-1.4,1.3-1.8,2.7-1.9,3.2,0,0,0,0-.1,0-.2-.3-.7-1-1.4-1.1-.9,0,1.2-6.3,3.4-6h0Z" style="fill:url(#linear-gradient-18);"/><path d="m40.1,27.9c-2.7-4.4-2-8.2-2-8.2l-6.2-1.6c0,2.6-5.4,2-7.6,0l-5.9,2.1s-.7,10.5,3.5,23.9l.3,1.6h15.2v-1.9c0,0,0,0,0,0l1.4-8.7s4-2.7,1.3-7.2h0Z" style="fill:url(#linear-gradient-19);"/><path d="m24.9,52s3.2.5,3.7.6c.6.1,1.2.4,1.2.4.7.5,1.5,1.1,2.3,1.1,0,0-.5,1-1.7.4-.6-.3-2.2-.4-2.2-.4,0,0-.6.2-.3.5,0,0-4-1.4-4-1.4,0-.7,1-1.2,1-1.2Z" style="fill:url(#linear-gradient-20);"/><path d="m23.4,53.4c0,.4.1,1.3.9,2,1.2,1.2,2.5,2.6,2.5,2.6,0,0,2.5,2.4,3.1,2.2.6-.2,0-.6,0-.6,0,0-2.1-1.7-2-2,0-.1,0,0,0,0,0,0,2.4,1.9,3.6,1.9,0,0,.8-.3-.2-.7-.9-.5-2.8-1.9-2.8-1.9h.1c0,0,3.3,2.3,4.1,2,.7-.3-.5-1.1-.5-1.1,0,0-2.1-1-2.9-1.7h0c0-.1,2.8,1.5,3.5,1.4.7,0,.7-.3.3-.5-.4-.2-3-1.7-3.3-2.1-.1-.2-.8-1.2-1.1-1.5-.4-.4-1.7-.9-2-.9-.6,0-1.7-.2-2,0-.1,0,.2-.1,0-.1-.3,0-.1-.1-.3,0,0,0-.9.8-.9,1.1h0Z" style="fill:url(#linear-gradient-21);"/><path d="m21.6,20.7s-3.8-2.6-6.6,2.5c-5.8,10.6-6.3,18.3-6.3,20.4,0,.3.3.6.6.6l4.4-.5,8.1-13.3s4-6.6-.2-9.8h0Z" style="fill:url(#linear-gradient-22);"/><path d="m25,51.5s-5.4-7.3-10.3-10.3c-4.9-3.1-5.1-2.6-5.1-2.6l-.9,4.9c-.1.7.2,1.2.7,1.6l.5.5c2.7,2.5,5.7,4.7,8.8,6.6l4.4,2.7,1.7-3.4Z" style="fill:url(#linear-gradient-23);"/></svg>