<svg width="498" height="380" viewBox="0 0 498 380" fill="none" xmlns="http://www.w3.org/2000/svg">
<mask id="mask0_2175_56317" style="mask-type:alpha" maskUnits="userSpaceOnUse" x="0" y="0" width="498" height="380">
<rect width="498" height="380" fill="#D9D9D9"/>
</mask>
<g mask="url(#mask0_2175_56317)">
<ellipse cx="155" cy="362.5" rx="48" ry="17.5" fill="#F8F9FF"/>
<ellipse cx="49" cy="190.422" rx="48" ry="17.5" fill="#F8F9FF"/>
<ellipse cx="238" cy="126.5" rx="48" ry="17.5" fill="#F8F9FF"/>
<ellipse cx="344" cy="331.5" rx="48" ry="17.5" fill="#F8F9FF"/>
<ellipse cx="450" cy="184.496" rx="48" ry="17.5" fill="#F8F9FF"/>
<path d="M187.782 315.221C187.463 311.581 186.199 306.243 184.513 306.243H184.488C182.368 306.294 180.873 311.147 180.516 312.833L179.009 312.514C179.175 311.722 180.733 304.8 184.436 304.71H184.5C188.191 304.71 189.136 313.356 189.289 315.093L187.757 315.234L187.782 315.221Z" fill="url(#paint0_linear_2175_56317)"/>
<path d="M170.872 325.217L172.333 314.138C172.555 312.454 174.101 311.279 175.772 311.5L193.308 313.812C194.992 314.034 196.167 315.58 195.946 317.251L194.486 328.33C194.264 330.014 192.718 331.188 191.046 330.968L173.51 328.656C171.826 328.434 170.652 326.888 170.872 325.217Z" fill="url(#paint1_linear_2175_56317)"/>
<path d="M163.326 337.519C162.521 333.011 163.556 327.571 163.556 327.571L157.081 306.958C157.081 306.958 162.189 289.96 167.106 297.495C172.01 305.03 171.704 328.899 171.704 328.899C171.908 340.482 173.006 351.963 173.683 356.663L169.022 356.254C168.779 351.082 164.041 341.568 163.326 337.519Z" fill="url(#paint2_linear_2175_56317)"/>
<path d="M157.962 300.036L151.947 293.765C150.683 293.548 149.291 294.034 148.729 295.183C146.622 299.487 145.217 300.879 144.131 323.637C144.067 325.067 143.94 326.178 143.825 327.021C141.628 330.686 137.567 336.318 135.677 348.272C133.812 360.123 133.212 362.269 133.021 362.435C133.327 363.214 134.464 365.27 136.941 360.494C136.941 360.494 136.737 358.591 142.841 348.272C148.499 338.706 150.185 334.747 151.245 330.022C151.321 329.907 151.385 329.792 151.462 329.677C159.201 316.715 157.962 300.049 157.962 300.049V300.036Z" fill="url(#paint3_linear_2175_56317)"/>
<path d="M133.034 362.422C132.97 362.269 132.944 362.167 132.944 362.167C132.944 362.167 132.944 362.499 133.034 362.422Z" fill="url(#paint4_linear_2175_56317)"/>
<path d="M151.577 286.371C151.577 286.371 147.324 289.704 144.872 296.524C143.161 301.326 141.922 324.033 141.922 324.033C141.922 324.033 148.141 327.532 162.011 326.05C171.155 325.067 175.024 323.164 175.024 323.164C174.028 309.729 171.87 297.188 166.698 286.69L151.589 286.371H151.577Z" fill="white"/>
<path d="M169.418 365.257L166.864 365.002L167.196 361.056L169.75 361.311L169.418 365.257Z" fill="url(#paint5_linear_2175_56317)"/>
<path d="M174.513 357.225C174.513 357.225 173.824 354.773 173.785 354.632C173.67 354.3 173.351 354.402 173.147 354.504C173.044 354.555 172.942 354.632 172.866 354.709C171.704 355.794 168.332 355.871 168.332 355.871C168.383 356.522 168.485 357.391 167.974 358.297C167.144 359.766 167.208 361.03 167.208 361.03C170.644 362.767 171.435 363.329 172.572 364.657C172.776 364.9 173.211 365.194 173.67 365.475C174.692 366.088 179.851 364.734 179.851 364.734C180.171 362.818 179.06 362.18 177.846 362.129C176.71 362.078 175.765 361.26 175.522 360.149L174.539 357.225H174.513Z" fill="url(#paint6_linear_2175_56317)"/>
<path d="M129.368 366.254C129.368 366.254 128.832 364.823 131.028 362.256C132.191 360.902 132.893 358.936 133.813 358.029C133.889 357.557 133.953 357.071 134.03 356.548C134.975 356.369 136.341 356.931 137.95 357.914C137.644 358.629 137.427 359.204 137.286 359.651C137.286 360.123 137.235 361.056 136.712 362.077C135.984 363.546 134.885 367.02 134.885 367.02C134.885 367.02 128.117 372.294 129.368 366.254Z" fill="url(#paint7_linear_2175_56317)"/>
<path opacity="0.85" d="M151.577 286.371C151.577 286.371 147.324 289.704 144.872 296.524C143.161 301.326 141.922 324.033 141.922 324.033C141.922 324.033 148.141 327.532 162.011 326.05C171.155 325.067 175.024 323.164 175.024 323.164C174.028 309.729 171.87 297.188 166.698 286.69L151.589 286.371H151.577Z" fill="url(#paint8_linear_2175_56317)"/>
<path opacity="0.85" d="M151.577 286.371C151.577 286.371 147.324 289.704 144.872 296.524C143.161 301.326 141.922 324.033 141.922 324.033C141.922 324.033 148.141 327.532 162.011 326.05C171.155 325.067 175.024 323.164 175.024 323.164C174.028 309.729 171.87 297.188 166.698 286.69L151.589 286.371H151.577Z" fill="url(#paint9_linear_2175_56317)"/>
<path d="M162.317 244.789C162.687 243.116 161.436 241.737 159.788 241.29C156.902 240.498 153.875 241.354 152.279 243.831C149.597 247.982 150.402 253.665 144.259 256.436C136.622 259.884 143.454 265.682 143.454 265.682C144.144 266.563 145.102 267.189 144.782 268.326C144.501 269.335 143.48 271.148 144.489 271.416C148.256 272.4 153.505 268.211 153.863 264.048C153.863 264.048 160.95 257.368 161.538 251.966L162.317 244.802V244.789Z" fill="url(#paint10_linear_2175_56317)"/>
<path d="M160.785 250.255C160.249 249.323 155.6 248.659 156.941 249.706C158.678 251.047 158.116 255.121 158.039 257.011C157.911 260.165 153.876 259.923 151.654 264.048C148.716 269.488 155.702 268.632 155.702 268.632C156.737 268.709 157.848 268.543 158.154 269.207C158.435 269.795 158.499 271.11 159.482 270.752C163.122 269.437 165.37 265.057 163.543 263C163.543 263 166.047 256.628 163.786 253.895L160.785 250.268V250.255Z" fill="url(#paint11_linear_2175_56317)"/>
<path d="M161.998 253.307C162.074 253.358 160.708 262.093 160.708 262.093C157.502 261.634 154.527 261.021 153.658 259.016C156.685 255.81 157.17 250.944 157.145 250.919C157.796 249.08 159.099 252.387 160.593 253.652L161.998 253.307Z" fill="url(#paint12_linear_2175_56317)"/>
<path d="M186.85 305.553L184.883 307.686C184.883 307.686 184.5 308.158 184.168 307.941C184.168 307.941 183.619 308.618 183.542 307.967C183.542 307.967 183.223 308.414 182.993 307.89C182.763 307.367 183.708 305.975 183.708 305.975C183.708 305.975 185.994 304.34 186.85 305.553Z" fill="url(#paint13_linear_2175_56317)"/>
<path d="M183.377 299.091C183.377 299.091 186.812 302.373 187.106 304.518C187.412 306.664 183.568 306.319 183.568 306.319L181.959 301.568L183.364 299.091H183.377Z" fill="url(#paint14_linear_2175_56317)"/>
<path d="M179.29 286.958C178.83 285.745 178.179 284.621 177.349 283.625L176.314 282.374C176.314 282.374 174.948 275.618 173.249 269.807C172.624 267.406 171.921 265.171 171.168 263.651C170.491 262.285 169.597 261.48 168.639 261.033C165.919 259.629 162.624 261.302 162.624 261.302C160.185 262.157 161.206 263.983 162.151 265.771C163.863 269.002 169.571 281.748 170.044 282.808H169.967C169.967 282.808 170.376 284.059 172.368 288.108C174.922 293.331 181.346 301.594 181.346 301.594L183.99 299.436L179.277 286.958H179.29Z" fill="url(#paint15_linear_2175_56317)"/>
<path d="M165.83 248.786C165.434 248.608 165.14 248.416 164.91 248.212C163.94 247.343 164.374 246.322 163.582 244.815C162.918 243.538 161.309 242.631 160.823 242.375C160.772 242.35 160.734 242.337 160.683 242.312C159.457 245.223 159.099 248.965 159.099 248.965C159.099 248.965 158.218 247.394 156.979 248.071C156.085 248.557 155.932 250.115 156.89 251.328C157.643 252.286 158.55 251.762 158.55 251.762C158.55 251.762 159.074 253.818 160.249 254.137C160.657 254.252 161.322 254.342 162.011 254.406C163.301 254.533 164.501 254.572 164.501 254.572C165.395 254.546 165.625 254.086 165.664 253.703C165.689 253.473 165.638 253.231 165.536 253.026L165.332 252.579C165.332 252.579 165.395 252.605 165.702 252.324C166.455 251.647 164.501 251.609 164.501 251.609C165.038 251.443 166.085 250.906 165.676 250.664C165.268 250.421 165.459 250.025 165.459 250.025C166.494 249.246 165.791 248.774 165.791 248.774L165.83 248.786Z" fill="url(#paint16_linear_2175_56317)"/>
<path d="M161.117 241.954C161.117 241.954 163.658 243.346 161.129 245.811C159.776 247.126 159.329 248.518 159.214 248.965C159.201 249.016 159.137 249.029 159.112 248.978C158.933 248.684 158.448 247.994 157.745 247.918C156.838 247.828 158.946 241.583 161.129 241.941L161.117 241.954Z" fill="url(#paint17_linear_2175_56317)"/>
<path d="M169.354 268.913C166.621 264.495 167.349 260.689 167.349 260.689L161.193 259.042C161.142 261.647 155.804 261.008 153.607 259.042L147.745 261.187C147.745 261.187 147.017 271.672 151.283 285.082L151.538 286.716H166.697L166.787 284.775H166.71L168.102 276.091C168.102 276.091 172.1 273.358 169.367 268.926L169.354 268.913Z" fill="url(#paint18_linear_2175_56317)"/>
<path d="M154.119 292.974C154.119 292.974 157.286 293.459 157.835 293.548C158.397 293.65 158.997 293.97 158.997 293.97C159.738 294.468 160.478 295.03 161.257 295.081C161.257 295.081 160.798 296.09 159.559 295.438C158.933 295.106 157.35 295.043 157.35 295.043C157.35 295.043 156.711 295.285 157.069 295.566C157.132 295.617 153.071 294.161 153.071 294.161C153.071 293.446 154.119 292.974 154.119 292.974Z" fill="url(#paint19_linear_2175_56317)"/>
<path d="M152.637 294.404C152.662 294.813 152.777 295.732 153.492 296.422C154.706 297.623 155.944 298.989 155.944 298.989C155.944 298.989 158.46 301.364 159.061 301.173C159.661 300.969 159.061 300.534 159.061 300.534C159.061 300.534 156.979 298.849 157.03 298.555C157.055 298.453 157.03 298.619 157.03 298.619C157.03 298.619 159.418 300.522 160.657 300.496C160.657 300.496 161.423 300.241 160.491 299.755C159.559 299.27 157.681 297.84 157.681 297.84L157.783 297.75C157.783 297.75 161.117 300.126 161.857 299.794C162.585 299.462 161.347 298.721 161.347 298.721C161.347 298.721 159.239 297.75 158.422 297.022L158.396 296.92C158.396 296.92 161.206 298.491 161.87 298.402C162.534 298.312 162.521 298.108 162.164 297.916C161.806 297.725 159.124 296.192 158.818 295.784C158.677 295.592 158.064 294.596 157.758 294.328C157.311 293.932 156.021 293.459 155.778 293.459C155.204 293.472 154.067 293.306 153.748 293.408C153.646 293.434 153.914 293.293 153.837 293.293C153.543 293.293 153.697 293.166 153.505 293.344C153.505 293.344 152.637 294.136 152.649 294.404H152.637Z" fill="url(#paint20_linear_2175_56317)"/>
<path d="M150.849 261.697C150.849 261.697 147.081 259.079 144.284 264.201C138.499 274.788 138.001 282.476 137.988 284.647C137.988 284.979 138.269 285.234 138.601 285.209L143.02 284.723L151.079 271.467C151.079 271.467 155.114 264.839 150.849 261.71V261.697Z" fill="url(#paint21_linear_2175_56317)"/>
<path d="M154.233 292.514C154.233 292.514 148.869 285.247 143.94 282.17C139.01 279.079 138.882 279.564 138.882 279.564L138.001 284.456C137.886 285.107 138.218 285.669 138.729 286.078L139.278 286.576C141.999 289.066 144.961 291.275 148.116 293.204L152.496 295.873L154.233 292.514Z" fill="url(#paint22_linear_2175_56317)"/>
<path d="M37.7864 186.475L37.8247 183.78L32.678 182.107L31.9756 185.657C31.9756 185.657 36.3688 189.463 37.7864 186.475Z" fill="url(#paint23_linear_2175_56317)"/>
<path d="M59.3558 185.363C59.3558 185.363 59.5474 183.409 58.6406 181.583C57.7339 179.757 64.643 180.012 64.643 180.012C64.643 180.012 65.1666 184.38 67.5803 185.81C69.994 187.241 61.131 189.258 59.3686 185.35L59.3558 185.363Z" fill="url(#paint24_linear_2175_56317)"/>
<path d="M33.0612 114.932C33.0867 114.395 33.0867 113.846 32.959 113.731H43.3801V113.616L44.3762 113.731H55.8829V116.094H55.819L56.5086 120.308L62.2045 148.468L65.857 184.112L58.884 185.019C58.884 185.019 51.4897 161.763 51.7068 152.427L45.0786 132.07C44.3379 141.968 42.0264 169.464 38.3356 185.07L31.899 184.457C31.899 184.457 29.5875 127.881 33.0356 114.906L33.0612 114.932Z" fill="white"/>
<path opacity="0.85" d="M33.0612 114.932C33.0867 114.395 33.0867 113.846 32.959 113.731H43.3801V113.616L44.3762 113.731H55.8829V116.094H55.819L56.5086 120.308L62.2045 148.468L65.857 184.112L58.884 185.019C58.884 185.019 51.4897 161.763 51.7068 152.427L45.0786 132.07C44.3379 141.968 42.0264 169.464 38.3356 185.07L31.899 184.457C31.899 184.457 29.5875 127.881 33.0356 114.906L33.0612 114.932Z" fill="url(#paint25_linear_2175_56317)"/>
<path d="M74.7194 190.229H58.5769C58.5769 190.229 58.4875 188.186 59.3431 185.363C59.3431 185.363 62.4209 186.219 64.2089 185.197L65.8308 183.32L70.0963 186.653L74.1958 187.764C74.1958 187.764 75.3069 188.786 74.7066 190.242L74.7194 190.229Z" fill="url(#paint26_linear_2175_56317)"/>
<path d="M41.5283 73.298L42.831 74.7411L46.1386 70.7183L41.6816 70.0542L41.5283 73.298Z" fill="url(#paint27_linear_2175_56317)"/>
<path d="M41.7325 78.1127V71.2803H42.2689C42.1922 71.0121 42.0901 70.7567 41.924 70.4629C41.5281 69.7094 41.4132 68.2791 42.933 68.1897C44.4527 68.1003 44.7209 69.9138 44.5038 71.1909L44.0568 71.2931H48.4117V78.3682L50.0464 78.8662C52.3707 83.5659 45.4616 84.4216 45.4616 84.4216L38.4248 79.211L41.7325 78.1255V78.1127Z" fill="url(#paint28_linear_2175_56317)"/>
<path d="M50.0588 78.8535L56.4826 80.7819C58.4748 81.4588 60.1734 83.0424 61.144 84.9197C61.5909 85.7754 61.808 86.8354 62.1273 88.0358C63.4427 93.0165 65.6138 105.111 65.6138 105.111L56.8529 106.426L54.2987 94.6767L49.7012 86.8481L50.0588 78.8535Z" fill="url(#paint29_linear_2175_56317)"/>
<path d="M37.3005 88.649L39.6376 78.7515C39.6376 78.7515 41.4638 81.1652 44.9375 81.1652C48.1941 81.1652 50.0459 78.8664 50.0459 78.8664L53.3025 82.2635C54.3497 83.349 55.0649 84.7027 55.3842 86.1714L57.402 95.3793L57.1849 121.483H31.6174L31.2471 90.2198L37.3005 88.6617V88.649Z" fill="url(#paint30_linear_2175_56317)"/>
<path d="M23.0101 110.028C24.8364 108.993 29.3318 109.249 29.3318 109.249C29.3318 109.249 29.3573 110.143 29.7532 113.731C30.1236 117.064 29.0125 127.933 28.8592 129.478C29.1913 130.219 29.6383 131.33 29.8681 132.39C30.264 134.216 30.4556 137.204 30.4556 137.204C30.4556 137.204 30.4556 137.945 29.9575 137.983C29.4467 138.022 29.0763 137.472 29.0763 137.472C29.0763 137.472 28.6804 138.06 28.1441 137.983C27.6077 137.907 27.4289 137.281 27.4289 137.281C27.4289 137.281 27.0074 137.587 26.4328 137.511C25.8708 137.421 25.8708 136.578 25.8708 136.578C25.8708 136.578 25.2834 136.77 24.9258 136.578C24.5682 136.387 24.6704 135.685 24.6704 135.685C24.6704 135.685 24.134 135.71 23.9296 135.186C23.7381 134.688 25.36 130.793 25.526 130.372L22.6526 114.715C22.461 113.054 22.5248 110.309 22.9974 110.04L23.0101 110.028Z" fill="url(#paint31_linear_2175_56317)"/>
<path d="M22.2949 109.172C22.3205 109.044 22.3588 108.942 22.3971 108.827L27.3139 87.6529C27.5055 86.5929 27.8247 85.6734 28.2206 84.9199C29.1912 83.0554 30.8898 81.4718 32.882 80.7821L39.6762 78.7388V80.2074C39.6762 84.5496 38.5013 88.8151 36.3047 92.5697L35.0659 94.6769L32.7032 101.893L31.4389 105.686L30.6727 108.751L29.7659 128.724L24.5554 129.069C24.5554 129.069 20.9667 116.617 22.2949 109.159V109.172Z" fill="url(#paint32_linear_2175_56317)"/>
<path d="M39.5324 104.902L35.1901 106.7C34.9033 106.818 34.7671 107.147 34.8858 107.434L38.8477 117.003C38.9664 117.29 39.2951 117.426 39.5819 117.308L43.9241 115.51C44.2109 115.391 44.3471 115.062 44.2284 114.776L40.2665 105.206C40.1478 104.919 39.8191 104.783 39.5324 104.902Z" fill="url(#paint33_linear_2175_56317)"/>
<path d="M34.798 110.947C34.7341 110.449 35.4493 110.296 35.4493 110.296C35.4493 110.296 38.4249 109.862 40.2895 109.874C41.2473 109.874 42.2818 110.04 43.0608 110.194C44.4528 109.747 54.9633 106.375 58.3093 106.056C61.898 105.711 62.7792 105.545 62.7792 105.545C62.7792 105.545 63.9541 109.9 63.3155 111.892C63.1495 112.416 60.4676 113.041 58.8074 113.195L43.214 113.603V113.654C43.214 113.654 39.3317 116.336 38.7825 116.247C38.2206 116.158 38.144 115.621 38.144 115.621C38.144 115.621 37.4799 115.864 37.2117 115.557C36.9563 115.251 37.0074 114.638 37.0074 114.638C37.0074 114.638 36.19 114.817 35.9857 114.28C35.7813 113.744 35.9985 113.271 35.9985 113.271C35.9985 113.271 35.3599 113.233 35.1683 112.722C34.9768 112.211 35.4748 111.701 35.4748 111.701C35.4748 111.701 34.8618 111.445 34.798 110.947Z" fill="url(#paint34_linear_2175_56317)"/>
<path d="M65.5633 104.932C65.5633 104.932 66.0869 108.763 64.6566 110.883C62.6132 113.923 56.2022 113.539 56.2022 113.539L52.8945 105.021L57.5432 103.693C58.4754 103.425 59.4716 103.412 60.4166 103.642L65.5506 104.932H65.5633Z" fill="url(#paint35_linear_2175_56317)"/>
<path d="M43.5588 61.7913C43.5588 61.7913 49.1397 59.914 51.8982 66.6698C51.8982 66.6698 52.3069 67.7426 51.911 68.6493L51.7961 68.8537L52.8177 70.7565C52.8177 70.7565 52.8816 71.2291 52.4474 71.344C52.0132 71.4589 51.8854 71.4462 51.8854 71.4462L52.4985 72.3785L52.2558 72.9659C52.2558 72.9659 52.5112 73.5278 52.192 73.7449C51.8727 73.9621 51.6428 74.2813 51.6428 74.2813L51.6683 75.2519C51.6683 75.2519 51.5151 76.0309 50.8893 76.1842C50.2635 76.3374 48.4884 75.9671 48.4884 75.9671C48.4884 75.9671 45.4233 75.5073 44.8486 74.6772C44.274 73.8471 44.2612 72.9915 44.2612 72.9915L44.3761 71.9059L43.8397 71.9826C43.2267 72.0592 42.6265 71.8038 42.2817 71.2929C41.6559 70.3734 40.8003 68.8154 40.8769 67.3722C41.0046 65.1246 40.3022 62.8385 43.5588 61.8169V61.7913Z" fill="url(#paint36_linear_2175_56317)"/>
<path d="M46.0357 67.066C46.0357 67.066 46.4827 66.402 47.9386 66.453L47.1851 64.1032L41.1061 63.1709C39.7396 64.4352 39.2799 66.1593 39.1394 67.7046C38.884 70.412 41.5403 73.311 41.5403 73.311L42.3704 71.6764C42.2938 71.2421 42.1533 70.9229 41.9234 70.4887C41.5275 69.7352 41.4126 68.3048 42.9324 68.2154C44.4521 68.126 44.9757 70.7824 44.9757 70.7952L46.2656 70.5142C46.2656 70.5142 44.6181 68.8923 46.0357 67.0788V67.066Z" fill="url(#paint37_linear_2175_56317)"/>
<path d="M50.7867 64.5884C47.8749 60.3484 43.5583 61.8043 43.5583 61.8043C42.2557 62.213 41.3107 62.8771 40.6338 63.6817L50.8122 64.7161C50.8122 64.7161 50.7995 64.6395 50.7867 64.6012V64.5884Z" fill="url(#paint38_linear_2175_56317)"/>
<path d="M41.2215 63.1069C41.2215 63.1069 38.1948 63.9753 39.1398 61.4339C40.0849 58.8925 43.6097 60.0546 42.7157 62.3917L41.2215 63.1069Z" fill="url(#paint39_linear_2175_56317)"/>
<path d="M37.5436 185.542C37.5436 185.542 38.6036 188.569 38.4631 190.242H28.8721C28.8721 190.242 28.54 188.76 30.1109 187.305L31.4518 185.351C31.4518 185.351 31.835 183.69 33.3036 183.984C36.2409 184.572 35.3214 185.299 37.5436 185.555V185.542Z" fill="url(#paint40_linear_2175_56317)"/>
<path d="M441.191 173.22C441.191 173.22 441.012 174.918 440.654 176.476C440.641 176.515 440.616 176.54 440.603 176.591C439.888 178.941 438.521 179.465 438.521 179.465L445.558 179.337L445.456 178.673H445.558C445.226 177.971 445.724 175.467 446.056 173.13C446.427 170.448 441.191 173.233 441.191 173.233V173.22Z" fill="url(#paint41_linear_2175_56317)"/>
<path d="M466.937 178.188C466.937 178.188 466.937 178.098 466.912 178.034C466.848 177.868 466.81 177.702 466.758 177.524C466.746 177.46 466.72 177.396 466.707 177.332C466.337 175.685 466.478 173.59 466.478 173.59C466.478 173.59 461.484 170.78 461.625 173.488C461.765 176.195 461.676 177.932 461.676 177.932C461.676 177.932 461.765 177.958 461.893 177.996L461.535 179.324L467.154 179.452C467.154 179.452 467.18 179.171 466.937 178.188Z" fill="url(#paint42_linear_2175_56317)"/>
<path d="M432.941 183.666L445.636 183.475C445.636 183.475 446.134 183.258 446.198 182.351C446.261 181.559 445.687 178.775 445.533 178.034C445.508 177.932 445.406 177.868 445.304 177.907C445.035 178.009 444.55 178.264 444.154 178.903C443.592 179.822 442.187 178.341 441.906 177.562C441.625 176.783 440.451 176.859 440.451 176.859L434.882 180.448L434.001 180.64C433.375 180.78 432.826 181.151 432.507 181.712C432.213 182.236 432.086 183.092 432.928 183.654L432.941 183.666Z" fill="url(#paint43_linear_2175_56317)"/>
<path d="M458.981 183.667L467.461 183.475C467.461 183.475 467.959 183.258 468.023 182.351C468.099 181.432 467.205 177.856 467.205 177.856C467.205 177.856 466.707 177.562 466.669 178.916C466.643 179.989 465.954 178.916 465.175 177.575C464.753 176.873 462.608 176.796 462.608 176.796L461.586 177.358L460.679 179.401C459.287 180.487 458.138 183.105 458.981 183.667Z" fill="url(#paint44_linear_2175_56317)"/>
<path d="M469.479 110.872C468.661 108.969 467.512 106.913 465.916 104.959L453.158 105.559C452.187 105.036 451.063 104.819 449.748 105.036L449.479 105.725H449.186C448.662 106.849 446.095 113.656 445.712 115.316V115.355C443.835 123.477 442.494 136.733 442.494 147.614L440.08 173.961L446.772 175.097C446.772 175.097 450.016 167.639 451.344 162.224C452.864 156.017 452.979 150.104 452.902 147.078L457.04 130.092L460.424 174.561L467.895 174.65C467.895 174.65 471.471 138.585 472.544 123.873C472.901 119.033 471.203 114.333 469.466 110.885L469.479 110.872Z" fill="url(#paint45_linear_2175_56317)"/>
<path d="M438.803 92.9925C438.803 92.9925 432.456 86.7347 430.182 84.7808C430.182 84.7425 430.182 84.7169 430.182 84.7169C430.182 84.7169 428.79 81.9712 428.535 81.4859C428.279 81.0006 427.794 80.5408 427.794 80.5408C427.117 80.0044 426.389 79.5064 426.108 78.8167C426.108 78.8167 425.329 79.5319 426.287 80.477C426.504 80.6941 426.734 81.09 426.913 81.4731C426.53 81.3582 426.121 81.256 425.993 81.2049C425.534 81.0517 423.324 79.0466 423.043 78.7912C422.762 78.523 422.558 78.5741 422.686 79.2126C422.801 79.8384 425.087 81.9456 425.087 81.9456H424.985C424.078 81.4348 422.558 79.7873 422.558 79.7873C422.558 79.7873 421.511 78.8806 421.421 79.6341C421.332 80.4003 424.512 82.7374 424.512 82.7374L424.461 82.8524C424.461 82.8524 422.596 81.5625 421.868 80.8601C421.14 80.1577 421.14 80.9367 421.14 80.9367C421.473 82.0223 423.695 83.5165 423.912 83.6569C423.452 83.6186 421.587 82.4054 421.587 82.4054C421.587 82.4054 421 81.9839 421 82.5842C421 83.1972 423.925 84.7808 423.925 84.7808C423.925 84.7808 425.559 85.496 427.015 86.2494C427.449 86.4793 427.896 86.5432 428.279 86.5304C431.702 90.234 434.192 93.5417 434.192 93.5417L434.882 94.6911L439.02 97.0154C441.05 93.3118 438.79 92.9797 438.79 92.9797L438.803 92.9925ZM424.027 83.6569C424.027 83.6569 424.091 83.6186 424.027 83.6569V83.6569Z" fill="url(#paint46_linear_2175_56317)"/>
<path d="M467.601 93.21L467.55 93.095C469.262 85.1515 468.815 79.4301 468.815 79.4301L462.748 77.2974C459.07 78.4851 454.882 79.3535 455.162 77.2974L448.994 78.8554C448.994 78.8554 450.041 83.2614 447.296 87.6802C445.904 89.9278 446.465 92.6991 447.13 94.0529L448.509 105.904V105.93H449.53L449.607 105.904H467.461V97.3222C467.563 95.1129 467.614 93.3122 467.589 93.1844L467.601 93.21Z" fill="white"/>
<path d="M454.218 84.0404C455.163 82.2525 456.197 80.4263 453.745 79.5706C453.745 79.5706 450.463 77.8976 447.73 79.3024C446.772 79.7494 445.878 80.5412 445.201 81.9205C444.448 83.4402 443.746 85.6751 443.12 88.0761C442.507 90.1705 441.932 92.3799 441.459 94.3594C437.59 89.9406 431.702 84.5768 431.702 84.5768L429.174 87.8079L436.338 99.0591C437.028 100.157 437.909 101.115 438.918 101.933L440.514 103.21C443.975 103.848 445.342 102.686 446.3 101.217C446.3 101.217 446.3 101.192 446.274 101.154C446.274 101.154 452.43 87.3992 454.205 84.0404H454.218Z" fill="white"/>
<path opacity="0.85" d="M467.601 93.21L467.55 93.095C469.262 85.1515 468.815 79.4301 468.815 79.4301L462.748 77.2974C459.07 78.4851 454.882 79.3535 455.162 77.2974L448.994 78.8554C448.994 78.8554 450.041 83.2614 447.296 87.6802C445.904 89.9278 446.465 92.6991 447.13 94.0529L448.509 105.904V105.93H449.53L449.607 105.904H467.461V97.3222C467.563 95.1129 467.614 93.3122 467.589 93.1844L467.601 93.21Z" fill="url(#paint47_linear_2175_56317)"/>
<path d="M455.52 79.5192L454.83 74.1299C454.83 74.1299 451.778 75.5475 452.225 77.4376C452.672 79.3277 455.533 79.5192 455.533 79.5192H455.52Z" fill="white"/>
<path d="M467.014 73.5679C465.558 72.9038 459.109 72.8016 455.392 73.9255L452.812 77.9611L459.185 79.0977L467.014 73.5807V73.5679Z" fill="white"/>
<path d="M458.01 98.0885C457.461 97.335 456.478 95.9941 456.235 95.6876C455.903 95.2533 455.354 94.883 455.354 94.883C454.6 94.4743 453.796 94.0912 453.4 93.4526C453.4 93.4526 452.748 94.2955 453.847 95.049C454.102 95.2278 454.383 95.5854 454.626 95.9302C454.217 95.8791 453.808 95.8408 453.681 95.828C453.195 95.7514 450.692 94.1423 450.373 93.9252C450.054 93.7081 449.862 93.7974 450.092 94.3977C450.309 94.9979 452.902 96.6965 452.902 96.6965L452.812 96.722C451.829 96.3516 450.067 94.9852 450.067 94.9852C450.067 94.9852 448.879 94.2572 448.917 95.0235C448.955 95.7897 452.468 97.5904 452.468 97.5904L452.429 97.7181C452.429 97.7181 450.386 96.7475 449.543 96.1729C448.713 95.5982 448.841 96.3644 448.841 96.3644C449.351 97.3733 451.778 98.4972 452.021 98.5993C451.561 98.6376 449.517 97.7437 449.517 97.7437C449.517 97.7437 448.866 97.4244 448.968 98.0246C449.07 98.6249 452.212 99.7104 452.212 99.7104C452.212 99.7104 453.936 100.145 455.494 100.655C456.005 100.821 456.478 100.796 456.873 100.707L458.355 101.409L459.44 98.4461L457.997 98.1013L458.01 98.0885ZM452.123 98.5738C452.123 98.5738 452.187 98.5355 452.123 98.5738V98.5738Z" fill="url(#paint48_linear_2175_56317)"/>
<path opacity="0.85" d="M446.274 101.166C446.274 101.166 446.81 99.9657 447.615 98.1906L447.143 94.0783C446.478 92.7246 445.917 89.9533 447.309 87.7056C450.042 83.2868 449.007 78.8809 449.007 78.8809H449.045C448.611 78.9575 448.164 79.098 447.743 79.3151C446.785 79.7621 445.891 80.5539 445.214 81.9331C444.461 83.4529 443.758 85.6878 443.132 88.0887C442.519 90.1832 441.945 92.3925 441.472 94.372C437.603 89.9533 431.715 84.5895 431.715 84.5895L429.187 87.8205L436.351 99.0718C437.041 100.17 437.922 101.128 438.931 101.945L440.527 103.222C443.988 103.861 445.355 102.699 446.312 101.23C446.312 101.23 446.312 101.205 446.287 101.166H446.274Z" fill="url(#paint49_linear_2175_56317)"/>
<path d="M478.367 102.992C478.367 102.992 478.38 102.941 478.38 102.903C478.367 100.732 477.856 93.0435 472.084 82.4564C469.287 77.3353 465.519 79.9533 465.519 79.9533C461.254 83.0822 466.043 90.0807 466.043 90.0807L470.589 99.1608C465.443 98.0114 459.479 97.9093 459.479 97.9093L457.793 101.728L468.137 105.521L473.821 107.053C474.038 107.117 474.434 107.015 474.906 106.823C476.554 106.134 478.086 104.64 478.393 103.03V102.979L478.367 102.992Z" fill="white"/>
<path opacity="0.85" d="M478.367 102.992C478.367 102.992 478.38 102.941 478.38 102.903C478.367 100.732 477.856 93.0435 472.084 82.4564C469.287 77.3353 465.519 79.9533 465.519 79.9533C461.254 83.0822 466.043 90.0807 466.043 90.0807L470.589 99.1608C465.443 98.0114 459.479 97.9093 459.479 97.9093L457.793 101.728L468.137 105.521L473.821 107.053C474.038 107.117 474.434 107.015 474.906 106.823C476.554 106.134 478.086 104.64 478.393 103.03V102.979L478.367 102.992Z" fill="url(#paint50_linear_2175_56317)"/>
<path opacity="0.85" d="M455.52 79.5192L454.83 74.1299C454.83 74.1299 451.778 75.5475 452.225 77.4376C452.672 79.3277 455.533 79.5192 455.533 79.5192H455.52Z" fill="url(#paint51_linear_2175_56317)"/>
<path opacity="0.85" d="M467.014 73.5679C465.558 72.9038 459.108 72.8016 455.392 73.9255L455.89 78.6124L458.508 78.97L467.014 73.5679Z" fill="url(#paint52_linear_2175_56317)"/>
<path d="M454.358 71.576C454.281 71.6271 455.328 78.2297 455.328 78.2297L462.697 77.2846C459.67 74.0791 459.185 69.2134 459.211 69.1878C458.559 67.3488 457.257 70.6565 455.762 71.9208L454.358 71.576Z" fill="url(#paint53_linear_2175_56317)"/>
<path d="M456.733 71.8566C456.478 72.4696 455.98 72.9677 455.354 73.2103L452.736 74.2703C452.366 74.4236 451.944 74.4746 451.548 74.3852C451.331 74.3342 451.114 74.2575 450.948 74.0915C450.642 73.8233 450.731 73.2997 450.756 72.8144L450.003 72.5845C450.003 72.5845 449.735 71.9715 450.386 71.6139C450.386 71.6139 451.574 71.7672 450.041 71.3074C449.364 71.1031 449.633 70.5284 449.633 70.5284C449.633 70.5284 450.258 70.273 450.246 69.9154C450.373 69.6728 449.645 69.6089 449.416 69.2641C449.326 69.1364 449.403 68.7405 449.518 68.6383C449.837 68.3701 450.769 67.5783 450.769 66.646C450.769 66.1863 450.424 64.4622 452.276 62.7254C454.371 60.7714 457.87 60.4904 459.811 61.8697C461.28 62.9042 463.719 65.5861 462.519 68.6C461.318 71.6012 459.134 72.4951 459.134 72.4951L459.109 70.7583L458.636 70.9754C458.215 71.1797 457.704 71.0648 457.397 70.7072L457.244 70.5284L456.708 71.8183L456.733 71.8566Z" fill="url(#paint54_linear_2175_56317)"/>
<path d="M452.812 62.3041C452.812 62.3041 453.515 62.4445 453.962 63.3385C454.473 64.373 454.805 64.6539 455.086 64.8072C455.622 65.1009 455.916 65.9182 455.788 66.5185C455.456 68.051 456.465 68.7023 456.465 68.7023C456.465 68.7023 457.436 67.0804 458.662 67.5785C461.037 68.5235 458.649 71.2948 458.649 71.2948C458.649 71.2948 459.16 72.342 459.99 71.9972C460.271 71.8823 461.446 70.8351 461.982 70.0177C462.748 68.8428 465.047 65.4968 461.612 61.6783C459.3 59.1113 453.017 60.8226 452.812 62.2913V62.3041Z" fill="url(#paint55_linear_2175_56317)"/>
<path d="M462.48 64.5262C462.569 64.9093 462.837 65.1903 463.17 65.3308C463.067 65.5479 463.042 65.8033 463.106 66.0587C463.246 66.6845 463.872 67.0676 464.498 66.9271C464.536 66.9271 464.574 66.9144 464.6 66.9016C464.523 67.1059 464.498 67.3486 464.549 67.5784C464.689 68.2042 465.315 68.5873 465.941 68.4469C466.094 68.4086 466.235 68.3447 466.362 68.2553C466.669 68.7278 467.243 68.9832 467.831 68.8555C468.508 68.7023 468.942 68.0765 468.878 67.3996C469.236 67.8339 469.823 68.051 470.411 67.9233C471.241 67.7317 471.752 66.9016 471.56 66.0715C471.483 65.765 471.33 65.4968 471.113 65.3052C471.522 65.0115 471.739 64.5006 471.624 63.9898C471.509 63.5045 471.139 63.1597 470.679 63.0448C470.704 62.9043 470.704 62.7766 470.692 62.6233C470.615 61.6272 469.747 60.8865 468.75 60.9631C468.457 60.9886 468.176 61.078 467.946 61.2313C467.69 60.465 466.937 59.9414 466.094 60.0053C465.341 60.0691 464.74 60.58 464.523 61.244C464.319 61.1802 464.102 61.1802 463.885 61.2313C463.208 61.3845 462.786 62.0742 462.94 62.751C462.978 62.9298 463.055 63.0831 463.157 63.2235C462.646 63.4407 462.339 63.9898 462.48 64.5517V64.5262Z" fill="url(#paint56_linear_2175_56317)"/>
<path d="M454.307 78.3953L467.014 73.5679C467.869 73.8744 470.858 76.1604 467.525 78.9828C465.468 80.7196 454.307 78.3953 454.307 78.3953Z" fill="white"/>
<path opacity="0.85" d="M454.307 78.3953L467.014 73.5679C467.869 73.8744 470.858 76.1604 467.525 78.9828C465.468 80.7196 454.307 78.3953 454.307 78.3953Z" fill="url(#paint57_linear_2175_56317)"/>
<path d="M241.722 17.6021C241.193 16.9751 240.271 14.297 239.68 12.4788C239.653 12.4877 239.635 12.5056 239.608 12.5146C239.599 12.5146 239.581 12.5146 239.563 12.5146C239.527 12.5146 239.483 12.5235 239.42 12.5325C239.402 12.5325 239.375 12.5325 239.357 12.5325C239.303 12.5325 239.241 12.5325 239.169 12.5325C239.133 12.5325 239.106 12.5325 239.071 12.5235C239.008 12.5235 238.936 12.5056 238.865 12.4877C238.829 12.4787 238.784 12.4608 238.748 12.4519C238.685 12.434 238.614 12.3981 238.551 12.3623C238.506 12.3354 238.461 12.3175 238.426 12.2906C238.363 12.2459 238.309 12.1921 238.255 12.1384C238.211 12.1026 238.175 12.0667 238.13 12.013C238.076 11.9503 238.032 11.8607 237.987 11.7801C237.96 11.7264 237.924 11.6726 237.897 11.6099C237.834 11.4487 237.781 11.2606 237.745 11.0456C237.727 10.9202 237.709 10.8128 237.691 10.7142C238.067 10.5888 238.479 10.3112 238.605 9.7021C238.838 8.51979 238.524 7.29268 237.369 7.34643C235.9 7.40912 236.052 9.11991 236.052 9.11991C236.052 9.11991 235.085 10.4097 235.183 8.67206C235.264 7.18521 234.073 5.85957 234.073 5.85957C234.073 5.85957 234.449 5.16094 234.207 4.16673C233.956 3.17251 231.009 2.93066 231.009 2.93066C230.759 3.36955 230.257 4.2742 229.89 5.1699C229.621 5.82375 229.63 6.54925 229.827 7.22998C229.899 7.46286 229.54 7.67784 229.415 7.91072L228.26 9.71104C228.26 9.71104 228.107 10.338 228.6 10.3112C229.272 10.2753 229.245 10.5799 229.245 10.5799C229.245 10.5799 229.325 11.1173 229.101 11.3681C228.698 11.8338 229.352 12.1294 229.594 12.1742C229.827 12.219 229.316 12.2011 229.227 12.6758C229.137 13.1505 229.531 13.1953 229.531 13.1953C230.006 13.5536 228.976 14.7807 230.329 15.2106C231.269 15.5151 234.968 15.1031 235.927 13.5894L236.312 12.622C236.312 12.622 236.321 12.6937 236.312 12.7206C236.312 12.7743 236.294 12.8191 236.285 12.8728C236.267 12.9714 236.258 13.0699 236.222 13.1684C236.204 13.2222 236.177 13.2669 236.16 13.3207C236.124 13.4103 236.079 13.4998 236.025 13.5894C235.998 13.6342 235.962 13.67 235.936 13.7148C235.461 14.3507 234.574 14.8613 233.437 15.2106L234.046 17.7454L232.586 19.5368C232.586 19.5368 236.822 24.8931 240.298 23.5764C243.773 22.2508 242.403 18.3993 241.74 17.6111L241.722 17.6021Z" fill="url(#paint58_linear_2175_56317)"/>
<path d="M249.174 117.839L249.299 122.738L244.633 124.001L244.221 117.499L249.174 117.839Z" fill="url(#paint59_linear_2175_56317)"/>
<path d="M224.91 117.839L224.399 123.867L229.603 123.41L229.863 117.499L224.91 117.839Z" fill="url(#paint60_linear_2175_56317)"/>
<path d="M250.671 62.1016L237.11 62.6748L223.549 62.1016C222.842 77.9912 222.94 97.2217 224.149 121.128H230.392L237.101 73.7008L243.81 121.128H250.053C251.432 103.948 251.441 83.8669 250.653 62.1016H250.671Z" fill="url(#paint61_linear_2175_56317)"/>
<path d="M229.747 123.052C229.747 123.052 230.804 126.071 230.67 127.737H221.086C221.086 127.737 220.755 126.25 222.322 124.799L223.666 122.846C223.666 122.846 224.042 121.189 225.52 121.476C228.449 122.058 227.535 122.783 229.756 123.043L229.747 123.052Z" fill="url(#paint62_linear_2175_56317)"/>
<path d="M244.499 123.052C244.499 123.052 243.442 126.071 243.576 127.737H253.16C253.16 127.737 253.492 126.25 251.924 124.799L250.581 122.846C250.581 122.846 250.204 121.189 248.726 121.476C245.798 122.058 246.711 122.783 244.49 123.043L244.499 123.052Z" fill="url(#paint63_linear_2175_56317)"/>
<path d="M218.513 68.0933C219.059 65.2987 220.644 56.8792 220.582 54.0399C220.51 50.6183 220.564 49.7674 220.564 49.7674C220.564 49.7674 216.327 49.1315 214.518 49.9555C214.034 50.1705 213.747 52.759 213.783 54.3444L215.019 68.2276C214.598 69.0158 213.04 72.0343 213.174 72.4822C213.326 73.0017 213.837 73.0196 213.837 73.0196C213.837 73.0196 213.685 73.6734 213.998 73.8884C214.321 74.1034 214.894 73.978 214.894 73.978C214.894 73.978 214.813 74.7751 215.342 74.9005C215.87 75.0349 216.3 74.7751 216.3 74.7751C216.3 74.7751 216.408 75.3753 216.909 75.5007C217.411 75.6171 217.841 75.1065 217.841 75.1065C217.841 75.1065 218.145 75.6619 218.629 75.6619C219.113 75.6619 219.166 74.9722 219.166 74.9722C219.166 74.9722 219.247 72.1239 219.032 70.3683C218.934 69.5801 218.719 68.774 218.521 68.1022L218.513 68.0933Z" fill="url(#paint64_linear_2175_56317)"/>
<path d="M236.435 0.512155C233.963 0.341973 232.467 0.843554 231.213 0.0284732C230.765 -0.258149 230.03 1.68553 231.007 2.8768C231.016 2.89471 231.034 2.91262 231.043 2.93054C231.401 2.96637 233.963 3.23507 234.195 4.15763C234.446 5.15185 234.061 5.85048 234.061 5.85048C234.061 5.85048 234.688 6.55808 235.002 7.50752C235.324 10.8574 232.924 10.9559 232.368 11.2963C231.795 11.6456 229.842 10.114 229.215 10.526C228.588 10.947 228.624 11.6456 228.911 11.6994C229.171 11.7441 229.574 11.771 230.013 11.7889C230.245 11.7889 230.792 12.0039 230.837 12.2278C230.926 12.6667 230.505 13.0071 229.645 13.3922C229.009 13.6788 229.896 15.3717 229.896 15.3717C229.896 15.3717 230.353 15.8196 232.091 15.524C234.742 15.0761 236.623 13.8849 236.264 12.2547C236.005 11.0634 236.041 9.43326 236.076 8.654C236.139 8.14346 236.399 7.38212 237.366 7.33733C238.522 7.28359 238.835 8.51069 238.602 9.69301C238.486 10.3021 238.065 10.5708 237.689 10.7051C237.707 10.8037 237.724 10.9112 237.742 11.0365C237.975 12.6936 239.31 12.5682 239.596 12.5234C241.791 11.8158 242.355 9.39744 242.651 7.13134C243.116 3.61127 239.964 0.754001 236.426 0.521121L236.435 0.512155Z" fill="url(#paint65_linear_2175_56317)"/>
<path opacity="0.85" d="M232.62 16.9666L237.009 39.7799L242.589 17.1457C238.881 16.5994 235.513 16.6262 232.611 16.9577L232.62 16.9666Z" fill="url(#paint66_linear_2175_56317)"/>
<path d="M213.944 66.8827L219.443 67.5276C219.443 67.5276 221.459 58.6154 222.363 49.2823L229.941 31.8432C229.941 31.8432 231.007 23.4953 226.421 20.6649C221.835 17.8345 219.533 21.8741 219.533 21.8741C219.533 21.8741 213.612 31.0729 212.564 44.2306C211.516 57.3883 213.944 66.8827 213.944 66.8827Z" fill="white"/>
<path d="M221.197 20.3079C221.197 20.3079 235 12.2377 253.451 20.3079L250.881 48.8268L251.445 62.7907L223.23 64.3492L223.741 49.7673L221.197 20.3079Z" fill="white"/>
<path d="M253.453 20.3066C253.453 20.3066 262.867 26.7735 266.763 43.4245L259.239 53.9041C259.239 53.9041 254.018 40.0387 251.196 36.9486C248.375 33.8585 253.453 20.3066 253.453 20.3066Z" fill="white"/>
<path d="M250.546 61.2313C250.546 61.2313 256.386 44.1415 257.192 41.1857C257.998 38.2299 266.704 43.004 266.704 43.004C266.704 43.004 267.036 57.5231 250.573 68.9522L250.537 61.2313H250.546Z" fill="white"/>
<path opacity="0.7" d="M266.763 43.4245C266.745 43.3439 266.719 43.2722 266.701 43.2006C266.701 43.0752 266.701 43.0035 266.701 43.0035L266.638 42.9677C262.679 26.6661 253.453 20.3066 253.453 20.3066C253.453 20.3066 248.375 33.8585 251.196 36.9486C252.477 38.3548 254.259 41.9914 255.818 45.5383C253.838 51.5932 250.542 61.2309 250.542 61.2309L250.578 68.9517C265.196 58.7946 266.566 46.219 266.692 43.532L266.763 43.4334V43.4245Z" fill="url(#paint67_linear_2175_56317)"/>
<path opacity="0.7" d="M221.201 20.3071C221.201 20.3071 221.514 20.1279 222.106 19.8413C220.395 20.3698 219.526 21.8656 219.526 21.8656C219.526 21.8656 213.605 31.0643 212.557 44.2221C211.51 57.3798 213.937 66.8741 213.937 66.8741L219.436 67.519C219.436 67.519 221.452 58.6069 222.356 49.2738L223.476 46.6942L221.192 20.3071H221.201Z" fill="url(#paint68_linear_2175_56317)"/>
<path opacity="0.8" d="M250.554 62.8347V61.2224C250.554 61.2224 250.84 60.3625 251.297 59.01L250.885 48.817L251.879 37.8269C251.647 37.4865 251.414 37.1731 251.208 36.9402C248.386 33.85 253.465 20.2982 253.465 20.2982C235.014 12.228 221.211 20.2982 221.211 20.2982L223.755 49.7575L223.244 64.3394L250.554 62.8257V62.8347Z" fill="url(#paint69_linear_2175_56317)"/>
<path d="M332.162 326.402C332.294 326.366 332.374 326.34 332.374 326.34C332.374 326.34 332.286 324.63 332.427 321.955C332.569 319.28 327.635 322.052 327.635 322.052C327.635 322.052 327.768 324.116 327.405 325.746C327.387 325.808 327.369 325.87 327.352 325.932C327.307 326.109 327.263 326.286 327.201 326.446C327.183 326.499 327.183 326.543 327.174 326.588C326.935 327.562 326.962 327.837 326.962 327.837L332.507 327.704L332.153 326.402H332.162Z" fill="url(#paint70_linear_2175_56317)"/>
<path d="M335.022 331.991L326.651 331.805C326.651 331.805 326.164 331.592 326.093 330.697C326.022 329.794 326.899 326.26 326.899 326.26C326.899 326.26 327.395 325.976 327.422 327.305C327.448 328.368 328.13 327.305 328.901 325.985C329.317 325.285 331.434 325.223 331.434 325.223L332.435 325.772L333.339 327.792C334.712 328.864 335.846 331.45 335.013 332L335.022 331.991Z" fill="url(#paint71_linear_2175_56317)"/>
<path d="M358.637 329.183C358.637 329.183 355.563 326.986 354.855 324.666C354.801 324.497 354.73 324.364 354.651 324.258C354.376 322.885 354.234 321.574 354.234 321.574C354.234 321.574 349.07 318.819 349.433 321.477C349.752 323.789 350.248 326.26 349.921 326.933L350.027 326.951L349.965 327.367L358.646 329.183H358.637Z" fill="url(#paint72_linear_2175_56317)"/>
<path d="M362.374 331.894L349.84 331.708C349.84 331.708 349.353 331.495 349.282 330.601C349.22 329.821 349.787 327.066 349.938 326.34C349.955 326.234 350.07 326.18 350.168 326.216C350.434 326.313 350.912 326.579 351.293 327.199C351.851 328.103 353.233 326.641 353.516 325.879C353.791 325.117 354.951 325.179 354.951 325.179L360.452 328.723L361.32 328.918C361.931 329.059 362.49 329.422 362.791 329.972C363.083 330.494 363.207 331.336 362.374 331.894Z" fill="url(#paint73_linear_2175_56317)"/>
<path d="M344.217 254.066L327.785 254.535L327.245 255.793C325.393 258.46 321.097 265.528 321.637 272.943C322.7 287.461 326.226 323.062 326.226 323.062L333.605 322.973L337.033 277.947L342.844 295.079C343.234 306.533 348.123 323.531 348.123 323.531L355.458 322.504C357.522 272.491 344.217 254.057 344.217 254.057V254.066Z" fill="white"/>
<path opacity="0.8" d="M344.212 254.066L344.301 252.144L327.913 252.427L327.771 254.544L327.231 255.802C325.38 258.468 321.083 265.537 321.624 272.951C322.687 287.47 326.212 323.07 326.212 323.07L333.591 322.982L337.019 277.956L342.83 295.088C343.22 306.541 348.11 323.54 348.11 323.54L355.444 322.512C357.508 272.5 344.203 254.066 344.203 254.066H344.212Z" fill="url(#paint74_linear_2175_56317)"/>
<path d="M352.312 250.176C352.312 250.176 350.301 236.756 347.75 231.592C345.199 226.428 339.485 229.351 339.485 229.351C337.076 230.201 338.086 232 339.025 233.762C340.114 235.826 342.683 241.354 344.473 245.26L344.419 245.579L347.307 252.267C347.307 252.267 347.839 251.443 348.184 249.654L352.321 250.176H352.312Z" fill="url(#paint75_linear_2175_56317)"/>
<path d="M341.112 217.703C341.112 217.703 342.299 213.212 340.191 211.37C338.101 209.545 335.957 209.421 335.957 209.421L341.112 217.703Z" fill="url(#paint76_linear_2175_56317)"/>
<path d="M357.333 232.87C357.333 232.87 356.234 229.911 356.048 229.379C355.862 228.848 355.854 228.175 355.854 228.175C355.924 227.298 356.057 226.394 355.729 225.695C355.729 225.695 356.819 225.606 356.846 226.988C356.863 227.688 357.563 229.087 357.563 229.087C357.563 229.087 358.086 229.53 358.148 229.087C358.157 229.007 358.856 233.206 358.856 233.206C358.236 233.543 357.333 232.878 357.333 232.878V232.87Z" fill="url(#paint77_linear_2175_56317)"/>
<path d="M359.285 233.462C359.63 233.241 360.356 232.7 360.622 231.752C361.074 230.131 361.667 228.404 361.667 228.404C361.667 228.404 362.509 225.091 362.048 224.666C361.588 224.241 361.499 224.985 361.499 224.985C361.499 224.985 361.047 227.598 360.755 227.687C360.649 227.722 360.808 227.66 360.808 227.66C360.808 227.66 361.295 224.684 360.693 223.63C360.693 223.63 360.108 223.089 360.126 224.126C360.153 225.171 359.825 227.465 359.825 227.465L359.692 227.421C359.692 227.421 360.135 223.399 359.506 222.93C358.868 222.46 358.824 223.886 358.824 223.886C358.824 223.886 359.001 226.172 358.762 227.217L358.691 227.288C358.691 227.288 358.691 224.108 358.301 223.576C357.911 223.045 357.734 223.151 357.734 223.55C357.734 223.948 357.708 226.996 357.504 227.456C357.407 227.678 356.849 228.67 356.76 229.068C356.627 229.644 356.84 230.982 356.964 231.194C357.256 231.69 357.655 232.736 357.885 232.966C357.956 233.037 357.708 232.886 357.743 232.948C357.894 233.196 357.699 233.134 357.947 233.205C357.947 233.205 359.045 233.577 359.267 233.436L359.285 233.462Z" fill="url(#paint78_linear_2175_56317)"/>
<path d="M340.219 218.066C339.688 217.145 341.362 220.281 339.785 220.865C337.296 221.778 335.214 223.594 335.143 225.454C335.019 228.563 332.858 227.925 330.661 231.982C327.756 237.35 341.831 239.14 343.612 231.628C343.807 227.225 341.964 222.309 340.219 218.066Z" fill="url(#paint79_linear_2175_56317)"/>
<path d="M338.708 221.371C338.779 221.425 337.432 230.052 337.432 230.052C334.27 229.601 331.329 228.998 330.479 227.014C333.473 223.843 333.942 219.051 333.924 219.024C334.562 217.199 335.847 220.468 337.326 221.717L338.717 221.371H338.708Z" fill="url(#paint80_linear_2175_56317)"/>
<path d="M345.966 236.785C343.264 232.418 343.991 228.671 343.991 228.671L337.905 227.042C337.861 229.619 332.59 228.99 330.42 227.042L324.636 229.15C324.636 229.15 324.813 236.094 325.885 244.217C326.133 246.627 326.629 251.968 327.258 254.05H331.536L331.536 253.997L344.505 253.899L344.708 243.845C344.708 243.845 348.659 241.144 345.957 236.777L345.966 236.785Z" fill="url(#paint81_linear_2175_56317)"/>
<path d="M327.694 229.663C327.694 229.663 323.973 227.076 321.218 232.134C315.514 242.587 315.009 250.178 315 252.322C315 252.65 315.283 252.906 315.611 252.871L319.978 252.384L327.933 239.3C327.933 239.3 331.91 232.754 327.703 229.663H327.694Z" fill="url(#paint82_linear_2175_56317)"/>
<path d="M360.388 233.214C360.388 233.214 357.828 243.986 354.78 249.274C354.072 250.514 353.416 251.285 352.885 251.781C352.539 252.109 351.503 252.773 350.546 253.216C349.705 253.606 348.704 253.455 348.004 252.844L347.242 252.188L347.862 247.954C348.172 246.634 348.704 245.367 349.43 244.216L356.898 232.364L360.388 233.205V233.214Z" fill="url(#paint83_linear_2175_56317)"/>
<path d="M342.461 217.474L341.035 215.826C340.991 215.773 340.964 215.702 340.955 215.632C340.769 212.877 338.838 211.415 338.838 211.415C338.298 210.999 337.775 210.706 337.545 210.591L337.376 210.653C336.207 213.523 335.702 217.394 335.702 217.394C335.702 217.394 334.994 215.552 333.771 216.216C332.894 216.695 332.744 218.236 333.683 219.432C334.427 220.38 335.321 219.866 335.321 219.866C335.321 219.866 335.844 221.894 336.996 222.213C337.394 222.328 339.024 222.479 339.024 222.479C339.75 222.576 340.521 222.638 341.239 222.612C341.239 222.612 342.815 222.541 342.009 220.893L342.443 220.504C342.443 220.504 342.576 220.123 341.699 219.883C341.699 219.883 342.638 219.538 342.399 219.095L342.045 218.634C341.965 218.528 341.983 218.378 342.089 218.298L342.461 217.997C342.461 217.997 342.62 217.704 342.488 217.465L342.461 217.474Z" fill="url(#paint84_linear_2175_56317)"/>
<path d="M335.692 217.27C335.904 214.914 338.978 213.426 338.526 210.874C338.526 210.874 338.331 209.82 336.055 210.042C333.778 210.263 335.692 217.27 335.692 217.27Z" fill="url(#paint85_linear_2175_56317)"/>
<path d="M324.726 266.742C324.726 266.742 327.171 268.744 327.596 269.107C328.022 269.47 328.376 270.055 328.376 270.055C328.757 270.852 329.102 271.694 329.731 272.128C329.731 272.128 328.837 272.748 328.119 271.57C327.756 270.976 326.436 270.117 326.436 270.117C326.436 270.117 325.763 270.002 325.931 270.418C325.958 270.489 323.247 267.212 323.247 267.212C323.619 266.609 324.726 266.733 324.726 266.733V266.742Z" fill="url(#paint86_linear_2175_56317)"/>
<path d="M322.743 267.211C322.557 267.574 322.193 268.407 322.45 269.355C322.875 270.985 323.23 272.774 323.23 272.774C323.23 272.774 324.169 276.06 324.78 276.202C325.391 276.335 325.09 275.653 325.09 275.653C325.09 275.653 324.169 273.173 324.372 272.951C324.443 272.871 324.337 272.995 324.337 272.995C324.337 272.995 325.409 275.812 326.463 276.424C326.463 276.424 327.242 276.601 326.702 275.715C326.162 274.829 325.285 272.677 325.285 272.677L325.418 272.65C325.418 272.65 327.056 276.353 327.836 276.432C328.615 276.521 327.942 275.263 327.942 275.263C327.942 275.263 326.64 273.376 326.321 272.349L326.348 272.251C326.348 272.251 327.942 274.997 328.545 275.263C329.147 275.529 329.253 275.343 329.041 274.997C328.837 274.652 327.331 272.003 327.278 271.507C327.251 271.268 327.234 270.125 327.11 269.736C326.932 269.169 326.082 268.123 325.861 267.999C325.365 267.716 324.488 267.007 324.169 266.928C324.071 266.901 324.364 266.91 324.302 266.874C324.045 266.733 324.248 266.688 323.992 266.759C323.992 266.759 322.849 266.99 322.734 267.229L322.743 267.211Z" fill="url(#paint87_linear_2175_56317)"/>
<path d="M325.061 266.414C325.061 266.414 324.175 257.547 321.553 252.445C318.931 247.343 318.577 247.679 318.577 247.679L315.361 251.382C314.936 251.878 314.927 252.516 315.157 253.127L315.37 253.827C316.433 257.308 317.815 260.683 319.524 263.907L321.89 268.39L325.061 266.414Z" fill="url(#paint88_linear_2175_56317)"/>
<path d="M336.515 209.51C333.663 208.73 330.687 209.572 329.101 212.017C326.807 215.56 323.875 224.64 323.149 229.644V229.68C323.149 229.68 323.131 229.768 323.131 229.813C323.202 229.76 323.273 229.724 323.335 229.68H333.699C332.157 227.51 333.849 219.706 333.849 219.706H333.831C333.831 219.706 333.84 219.644 333.849 219.626C333.796 219.573 333.734 219.52 333.681 219.449C332.742 218.244 332.884 216.703 333.769 216.233C334.992 215.569 335.701 217.411 335.701 217.411C335.701 217.411 336.205 213.54 337.375 210.67L337.543 210.608C337.773 210.723 338.296 211.016 338.836 211.432L338.898 211.476C338.526 210.537 337.623 209.82 336.524 209.519L336.515 209.51Z" fill="url(#paint89_linear_2175_56317)"/>
</g>
<defs>
<linearGradient id="paint0_linear_2175_56317" x1="179.034" y1="309.972" x2="189.315" y2="309.972" gradientUnits="userSpaceOnUse">
<stop stop-color="#26264F"/>
<stop offset="0.24" stop-color="#2A2B57"/>
<stop offset="0.63" stop-color="#35396E"/>
<stop offset="1" stop-color="#444B8B"/>
</linearGradient>
<linearGradient id="paint1_linear_2175_56317" x1="170.863" y1="321.23" x2="196.009" y2="321.23" gradientUnits="userSpaceOnUse">
<stop stop-color="#26264F"/>
<stop offset="0.24" stop-color="#2A2B57"/>
<stop offset="0.63" stop-color="#35396E"/>
<stop offset="1" stop-color="#444B8B"/>
</linearGradient>
<linearGradient id="paint2_linear_2175_56317" x1="157.082" y1="326.035" x2="173.697" y2="326.035" gradientUnits="userSpaceOnUse">
<stop stop-color="#E9B764"/>
<stop offset="1" stop-color="#D77A5C"/>
</linearGradient>
<linearGradient id="paint3_linear_2175_56317" x1="133.022" y1="328.54" x2="158.056" y2="328.54" gradientUnits="userSpaceOnUse">
<stop stop-color="#E9B764"/>
<stop offset="1" stop-color="#D77A5C"/>
</linearGradient>
<linearGradient id="paint4_linear_2175_56317" x1="132.944" y1="362.3" x2="133.034" y2="362.3" gradientUnits="userSpaceOnUse">
<stop stop-color="#E9B764"/>
<stop offset="1" stop-color="#D77A5C"/>
</linearGradient>
<linearGradient id="paint5_linear_2175_56317" x1="166.864" y1="363.163" x2="169.75" y2="363.163" gradientUnits="userSpaceOnUse">
<stop stop-color="#26264F"/>
<stop offset="0.24" stop-color="#2A2B57"/>
<stop offset="0.63" stop-color="#35396E"/>
<stop offset="1" stop-color="#444B8B"/>
</linearGradient>
<linearGradient id="paint6_linear_2175_56317" x1="167.183" y1="360.021" x2="179.877" y2="360.021" gradientUnits="userSpaceOnUse">
<stop stop-color="#26264F"/>
<stop offset="0.24" stop-color="#2A2B57"/>
<stop offset="0.63" stop-color="#35396E"/>
<stop offset="1" stop-color="#444B8B"/>
</linearGradient>
<linearGradient id="paint7_linear_2175_56317" x1="129.215" y1="362.831" x2="137.95" y2="362.831" gradientUnits="userSpaceOnUse">
<stop stop-color="#26264F"/>
<stop offset="0.24" stop-color="#2A2B57"/>
<stop offset="0.63" stop-color="#35396E"/>
<stop offset="1" stop-color="#444B8B"/>
</linearGradient>
<linearGradient id="paint8_linear_2175_56317" x1="141.922" y1="306.396" x2="175.011" y2="306.396" gradientUnits="userSpaceOnUse">
<stop stop-color="#05C8FF"/>
<stop offset="0.84" stop-color="#18D4A7"/>
</linearGradient>
<linearGradient id="paint9_linear_2175_56317" x1="141.913" y1="306.399" x2="175.015" y2="306.399" gradientUnits="userSpaceOnUse">
<stop stop-color="#0057D2"/>
<stop offset="0.1" stop-color="#0057D2"/>
<stop offset="0.39" stop-color="#0085E4"/>
<stop offset="0.73" stop-color="#00B4F7"/>
<stop offset="0.9" stop-color="#00C7FF"/>
<stop offset="1" stop-color="#00C7FF"/>
</linearGradient>
<linearGradient id="paint10_linear_2175_56317" x1="140.63" y1="256.281" x2="162.37" y2="256.281" gradientUnits="userSpaceOnUse">
<stop stop-color="#331809"/>
<stop offset="0.1" stop-color="#331809"/>
<stop offset="0.19" stop-color="#3D1C08"/>
<stop offset="0.66" stop-color="#6C3406"/>
<stop offset="0.9" stop-color="#7F3D06"/>
<stop offset="1" stop-color="#7F3D06"/>
</linearGradient>
<linearGradient id="paint11_linear_2175_56317" x1="150.925" y1="259.992" x2="164.724" y2="259.992" gradientUnits="userSpaceOnUse">
<stop stop-color="#331809"/>
<stop offset="0.1" stop-color="#331809"/>
<stop offset="0.19" stop-color="#3D1C08"/>
<stop offset="0.66" stop-color="#6C3406"/>
<stop offset="0.9" stop-color="#7F3D06"/>
<stop offset="1" stop-color="#7F3D06"/>
</linearGradient>
<linearGradient id="paint12_linear_2175_56317" x1="153.659" y1="256.219" x2="162.008" y2="256.219" gradientUnits="userSpaceOnUse">
<stop stop-color="#E9B764"/>
<stop offset="1" stop-color="#D77A5C"/>
</linearGradient>
<linearGradient id="paint13_linear_2175_56317" x1="182.957" y1="306.673" x2="186.853" y2="306.673" gradientUnits="userSpaceOnUse">
<stop stop-color="#E9B764"/>
<stop offset="1" stop-color="#D77A5C"/>
</linearGradient>
<linearGradient id="paint14_linear_2175_56317" x1="181.959" y1="302.706" x2="187.127" y2="302.706" gradientUnits="userSpaceOnUse">
<stop stop-color="#E9B764"/>
<stop offset="1" stop-color="#D77A5C"/>
</linearGradient>
<linearGradient id="paint15_linear_2175_56317" x1="184.352" y1="279.664" x2="158.132" y2="278.418" gradientUnits="userSpaceOnUse">
<stop stop-color="#CEDDFE"/>
<stop offset="1" stop-color="#7399EF"/>
</linearGradient>
<linearGradient id="paint16_linear_2175_56317" x1="156.238" y1="248.425" x2="166.033" y2="248.425" gradientUnits="userSpaceOnUse">
<stop stop-color="#E9B764"/>
<stop offset="1" stop-color="#D77A5C"/>
</linearGradient>
<linearGradient id="paint17_linear_2175_56317" x1="157.527" y1="245.468" x2="162.247" y2="245.468" gradientUnits="userSpaceOnUse">
<stop stop-color="#331809"/>
<stop offset="0.1" stop-color="#331809"/>
<stop offset="0.19" stop-color="#3D1C08"/>
<stop offset="0.66" stop-color="#6C3406"/>
<stop offset="0.9" stop-color="#7F3D06"/>
<stop offset="1" stop-color="#7F3D06"/>
</linearGradient>
<linearGradient id="paint18_linear_2175_56317" x1="170.681" y1="271.958" x2="144.821" y2="270.151" gradientUnits="userSpaceOnUse">
<stop stop-color="#CEDDFE"/>
<stop offset="1" stop-color="#7399EF"/>
</linearGradient>
<linearGradient id="paint19_linear_2175_56317" x1="153.072" y1="294.312" x2="161.264" y2="294.312" gradientUnits="userSpaceOnUse">
<stop stop-color="#E9B764"/>
<stop offset="1" stop-color="#D77A5C"/>
</linearGradient>
<linearGradient id="paint20_linear_2175_56317" x1="152.637" y1="297.206" x2="162.416" y2="297.206" gradientUnits="userSpaceOnUse">
<stop stop-color="#E9B764"/>
<stop offset="1" stop-color="#D77A5C"/>
</linearGradient>
<linearGradient id="paint21_linear_2175_56317" x1="153.041" y1="272.315" x2="136.068" y2="271.426" gradientUnits="userSpaceOnUse">
<stop stop-color="#CEDDFE"/>
<stop offset="1" stop-color="#7399EF"/>
</linearGradient>
<linearGradient id="paint22_linear_2175_56317" x1="154.491" y1="287.161" x2="135.955" y2="285.585" gradientUnits="userSpaceOnUse">
<stop stop-color="#CEDDFE"/>
<stop offset="1" stop-color="#7399EF"/>
</linearGradient>
<linearGradient id="paint23_linear_2175_56317" x1="37.8375" y1="184.865" x2="31.9756" y2="184.865" gradientUnits="userSpaceOnUse">
<stop stop-color="#AA316D"/>
<stop offset="1" stop-color="#792D3D"/>
</linearGradient>
<linearGradient id="paint24_linear_2175_56317" x1="67.989" y1="183.831" x2="58.5512" y2="183.831" gradientUnits="userSpaceOnUse">
<stop stop-color="#AA316D"/>
<stop offset="1" stop-color="#792D3D"/>
</linearGradient>
<linearGradient id="paint25_linear_2175_56317" x1="31.143" y1="149.343" x2="65.87" y2="149.343" gradientUnits="userSpaceOnUse">
<stop stop-color="#9D0051"/>
<stop offset="0.1" stop-color="#9D0051"/>
<stop offset="0.91" stop-color="#301C90"/>
<stop offset="1" stop-color="#301C90"/>
</linearGradient>
<linearGradient id="paint26_linear_2175_56317" x1="74.8982" y1="186.781" x2="58.5897" y2="186.781" gradientUnits="userSpaceOnUse">
<stop stop-color="#26264F"/>
<stop offset="0.26" stop-color="#282853"/>
<stop offset="0.52" stop-color="#2E2F5F"/>
<stop offset="0.77" stop-color="#383C73"/>
<stop offset="1" stop-color="#444B8B"/>
</linearGradient>
<linearGradient id="paint27_linear_2175_56317" x1="46.1386" y1="72.3913" x2="41.5411" y2="72.3913" gradientUnits="userSpaceOnUse">
<stop stop-color="#AA316D"/>
<stop offset="1" stop-color="#792D3D"/>
</linearGradient>
<linearGradient id="paint28_linear_2175_56317" x1="48.2074" y1="71.9188" x2="41.7197" y2="82.1356" gradientUnits="userSpaceOnUse">
<stop stop-color="#AA316D"/>
<stop offset="1" stop-color="#792D3D"/>
</linearGradient>
<linearGradient id="paint29_linear_2175_56317" x1="65.866" y1="91.7223" x2="36.8839" y2="90.8885" gradientUnits="userSpaceOnUse">
<stop stop-color="#CEDDFE"/>
<stop offset="1" stop-color="#7399EF"/>
</linearGradient>
<linearGradient id="paint30_linear_2175_56317" x1="57.8166" y1="98.6954" x2="27.8569" y2="97.1283" gradientUnits="userSpaceOnUse">
<stop stop-color="#CEDDFE"/>
<stop offset="1" stop-color="#7399EF"/>
</linearGradient>
<linearGradient id="paint31_linear_2175_56317" x1="30.4684" y1="123.603" x2="22.5632" y2="123.603" gradientUnits="userSpaceOnUse">
<stop stop-color="#AA316D"/>
<stop offset="1" stop-color="#792D3D"/>
</linearGradient>
<linearGradient id="paint32_linear_2175_56317" x1="39.9564" y1="102.229" x2="19.6717" y2="101.62" gradientUnits="userSpaceOnUse">
<stop stop-color="#CEDDFE"/>
<stop offset="1" stop-color="#7399EF"/>
</linearGradient>
<linearGradient id="paint33_linear_2175_56317" x1="44.2827" y1="111.1" x2="34.8577" y2="111.1" gradientUnits="userSpaceOnUse">
<stop stop-color="#26264F"/>
<stop offset="0.26" stop-color="#282853"/>
<stop offset="0.52" stop-color="#2E2F5F"/>
<stop offset="0.77" stop-color="#383C73"/>
<stop offset="1" stop-color="#444B8B"/>
</linearGradient>
<linearGradient id="paint34_linear_2175_56317" x1="63.5199" y1="110.909" x2="34.798" y2="110.909" gradientUnits="userSpaceOnUse">
<stop stop-color="#AA316D"/>
<stop offset="1" stop-color="#792D3D"/>
</linearGradient>
<linearGradient id="paint35_linear_2175_56317" x1="65.8592" y1="108.182" x2="51.3701" y2="106.614" gradientUnits="userSpaceOnUse">
<stop stop-color="#CEDDFE"/>
<stop offset="1" stop-color="#7399EF"/>
</linearGradient>
<linearGradient id="paint36_linear_2175_56317" x1="52.1536" y1="64.818" x2="42.8564" y2="72.3146" gradientUnits="userSpaceOnUse">
<stop stop-color="#AA316D"/>
<stop offset="1" stop-color="#792D3D"/>
</linearGradient>
<linearGradient id="paint37_linear_2175_56317" x1="47.9386" y1="68.2282" x2="39.1266" y2="68.2282" gradientUnits="userSpaceOnUse">
<stop stop-color="#26264F"/>
<stop offset="0.26" stop-color="#282853"/>
<stop offset="0.52" stop-color="#2E2F5F"/>
<stop offset="0.77" stop-color="#383C73"/>
<stop offset="1" stop-color="#444B8B"/>
</linearGradient>
<linearGradient id="paint38_linear_2175_56317" x1="50.8122" y1="63.1325" x2="40.6338" y2="63.1325" gradientUnits="userSpaceOnUse">
<stop stop-color="#26264F"/>
<stop offset="0.26" stop-color="#282853"/>
<stop offset="0.52" stop-color="#2E2F5F"/>
<stop offset="0.77" stop-color="#383C73"/>
<stop offset="1" stop-color="#444B8B"/>
</linearGradient>
<linearGradient id="paint39_linear_2175_56317" x1="42.869" y1="61.6255" x2="38.961" y2="61.6255" gradientUnits="userSpaceOnUse">
<stop stop-color="#26264F"/>
<stop offset="0.26" stop-color="#282853"/>
<stop offset="0.52" stop-color="#2E2F5F"/>
<stop offset="0.77" stop-color="#383C73"/>
<stop offset="1" stop-color="#444B8B"/>
</linearGradient>
<linearGradient id="paint40_linear_2175_56317" x1="38.4886" y1="187.087" x2="28.8465" y2="187.087" gradientUnits="userSpaceOnUse">
<stop stop-color="#26264F"/>
<stop offset="0.26" stop-color="#282853"/>
<stop offset="0.52" stop-color="#2E2F5F"/>
<stop offset="0.77" stop-color="#383C73"/>
<stop offset="1" stop-color="#444B8B"/>
</linearGradient>
<linearGradient id="paint41_linear_2175_56317" x1="438.521" y1="175.71" x2="446.069" y2="175.71" gradientUnits="userSpaceOnUse">
<stop stop-color="#EBB964"/>
<stop offset="1" stop-color="#D97A5C"/>
</linearGradient>
<linearGradient id="paint42_linear_2175_56317" x1="461.522" y1="175.889" x2="467.142" y2="175.889" gradientUnits="userSpaceOnUse">
<stop stop-color="#EBB964"/>
<stop offset="1" stop-color="#D97A5C"/>
</linearGradient>
<linearGradient id="paint43_linear_2175_56317" x1="432.29" y1="180.269" x2="446.198" y2="180.269" gradientUnits="userSpaceOnUse">
<stop stop-color="#444B8B"/>
<stop offset="0.27" stop-color="#3E4480"/>
<stop offset="0.73" stop-color="#2F3262"/>
<stop offset="1" stop-color="#26264F"/>
</linearGradient>
<linearGradient id="paint44_linear_2175_56317" x1="458.687" y1="180.231" x2="468.023" y2="180.231" gradientUnits="userSpaceOnUse">
<stop stop-color="#444B8B"/>
<stop offset="0.27" stop-color="#3E4480"/>
<stop offset="0.73" stop-color="#2F3262"/>
<stop offset="1" stop-color="#26264F"/>
</linearGradient>
<linearGradient id="paint45_linear_2175_56317" x1="473.107" y1="137.691" x2="435.823" y2="136.214" gradientUnits="userSpaceOnUse">
<stop stop-color="#CEDDFE"/>
<stop offset="1" stop-color="#7399EF"/>
</linearGradient>
<linearGradient id="paint46_linear_2175_56317" x1="421" y1="87.8203" x2="439.875" y2="87.8203" gradientUnits="userSpaceOnUse">
<stop stop-color="#EBB964"/>
<stop offset="1" stop-color="#D97A5C"/>
</linearGradient>
<linearGradient id="paint47_linear_2175_56317" x1="446.436" y1="91.6136" x2="468.876" y2="91.6136" gradientUnits="userSpaceOnUse">
<stop stop-color="#9D0051"/>
<stop offset="0.1" stop-color="#9D0051"/>
<stop offset="0.91" stop-color="#301C90"/>
<stop offset="1" stop-color="#301C90"/>
</linearGradient>
<linearGradient id="paint48_linear_2175_56317" x1="448.841" y1="97.4244" x2="459.453" y2="97.4244" gradientUnits="userSpaceOnUse">
<stop stop-color="#EBB964"/>
<stop offset="1" stop-color="#D97A5C"/>
</linearGradient>
<linearGradient id="paint49_linear_2175_56317" x1="429.188" y1="91.1412" x2="449.207" y2="91.1412" gradientUnits="userSpaceOnUse">
<stop stop-color="#9D0051"/>
<stop offset="0.1" stop-color="#9D0051"/>
<stop offset="0.91" stop-color="#301C90"/>
<stop offset="1" stop-color="#301C90"/>
</linearGradient>
<linearGradient id="paint50_linear_2175_56317" x1="457.794" y1="93.1782" x2="478.4" y2="93.1782" gradientUnits="userSpaceOnUse">
<stop stop-color="#9D0051"/>
<stop offset="0.1" stop-color="#9D0051"/>
<stop offset="0.91" stop-color="#301C90"/>
<stop offset="1" stop-color="#301C90"/>
</linearGradient>
<linearGradient id="paint51_linear_2175_56317" x1="452.18" y1="76.8246" x2="455.534" y2="76.8246" gradientUnits="userSpaceOnUse">
<stop stop-color="#9D0051"/>
<stop offset="0.1" stop-color="#9D0051"/>
<stop offset="0.91" stop-color="#301C90"/>
<stop offset="1" stop-color="#301C90"/>
</linearGradient>
<linearGradient id="paint52_linear_2175_56317" x1="455.393" y1="76.0214" x2="467.018" y2="76.0214" gradientUnits="userSpaceOnUse">
<stop stop-color="#9D0051"/>
<stop offset="0.1" stop-color="#9D0051"/>
<stop offset="0.91" stop-color="#301C90"/>
<stop offset="1" stop-color="#301C90"/>
</linearGradient>
<linearGradient id="paint53_linear_2175_56317" x1="454.358" y1="73.4406" x2="462.697" y2="73.4406" gradientUnits="userSpaceOnUse">
<stop stop-color="#EBB964"/>
<stop offset="1" stop-color="#D97A5C"/>
</linearGradient>
<linearGradient id="paint54_linear_2175_56317" x1="449.377" y1="67.7443" x2="462.863" y2="67.7443" gradientUnits="userSpaceOnUse">
<stop stop-color="#EBB964"/>
<stop offset="1" stop-color="#D97A5C"/>
</linearGradient>
<linearGradient id="paint55_linear_2175_56317" x1="453.259" y1="67.7062" x2="463.438" y2="64.6029" gradientUnits="userSpaceOnUse">
<stop stop-color="#331809"/>
<stop offset="0.1" stop-color="#331809"/>
<stop offset="0.19" stop-color="#3D1C08"/>
<stop offset="0.66" stop-color="#6C3406"/>
<stop offset="0.9" stop-color="#7F3D06"/>
<stop offset="1" stop-color="#7F3D06"/>
</linearGradient>
<linearGradient id="paint56_linear_2175_56317" x1="462.454" y1="64.424" x2="471.649" y2="64.424" gradientUnits="userSpaceOnUse">
<stop stop-color="#331809"/>
<stop offset="0.1" stop-color="#331809"/>
<stop offset="0.19" stop-color="#3D1C08"/>
<stop offset="0.66" stop-color="#6C3406"/>
<stop offset="0.9" stop-color="#7F3D06"/>
<stop offset="1" stop-color="#7F3D06"/>
</linearGradient>
<linearGradient id="paint57_linear_2175_56317" x1="454.308" y1="76.5975" x2="469.07" y2="76.5975" gradientUnits="userSpaceOnUse">
<stop stop-color="#9D0051"/>
<stop offset="0.1" stop-color="#9D0051"/>
<stop offset="0.91" stop-color="#301C90"/>
<stop offset="1" stop-color="#301C90"/>
</linearGradient>
<linearGradient id="paint58_linear_2175_56317" x1="228.224" y1="13.3476" x2="242.546" y2="13.3476" gradientUnits="userSpaceOnUse">
<stop stop-color="#F8C9C6"/>
<stop offset="1" stop-color="#F26F56"/>
</linearGradient>
<linearGradient id="paint59_linear_2175_56317" x1="244.221" y1="120.75" x2="249.299" y2="120.75" gradientUnits="userSpaceOnUse">
<stop stop-color="#F8C9C6"/>
<stop offset="1" stop-color="#F26F56"/>
</linearGradient>
<linearGradient id="paint60_linear_2175_56317" x1="224.399" y1="120.687" x2="229.863" y2="120.687" gradientUnits="userSpaceOnUse">
<stop stop-color="#F8C9C6"/>
<stop offset="1" stop-color="#F26F56"/>
</linearGradient>
<linearGradient id="paint61_linear_2175_56317" x1="251.627" y1="89.6505" x2="219.433" y2="88.3419" gradientUnits="userSpaceOnUse">
<stop stop-color="#CEDDFE"/>
<stop offset="1" stop-color="#7399EF"/>
</linearGradient>
<linearGradient id="paint62_linear_2175_56317" x1="221.05" y1="124.593" x2="230.679" y2="124.593" gradientUnits="userSpaceOnUse">
<stop stop-color="#444B8B"/>
<stop offset="0.27" stop-color="#3E4480"/>
<stop offset="0.73" stop-color="#2F3262"/>
<stop offset="1" stop-color="#26264F"/>
</linearGradient>
<linearGradient id="paint63_linear_2175_56317" x1="243.567" y1="124.593" x2="253.196" y2="124.593" gradientUnits="userSpaceOnUse">
<stop stop-color="#444B8B"/>
<stop offset="0.27" stop-color="#3E4480"/>
<stop offset="0.73" stop-color="#2F3262"/>
<stop offset="1" stop-color="#26264F"/>
</linearGradient>
<linearGradient id="paint64_linear_2175_56317" x1="213.165" y1="62.5937" x2="220.582" y2="62.5937" gradientUnits="userSpaceOnUse">
<stop stop-color="#F8C9C6"/>
<stop offset="1" stop-color="#F26F56"/>
</linearGradient>
<linearGradient id="paint65_linear_2175_56317" x1="235.705" y1="0" x2="235.705" y2="15.6249" gradientUnits="userSpaceOnUse">
<stop stop-color="#FFFB96"/>
<stop offset="1" stop-color="#FFD583"/>
</linearGradient>
<linearGradient id="paint66_linear_2175_56317" x1="232.62" y1="28.2523" x2="242.589" y2="28.2523" gradientUnits="userSpaceOnUse">
<stop stop-color="#05C8FF"/>
<stop offset="0.84" stop-color="#18D4A7"/>
</linearGradient>
<linearGradient id="paint67_linear_2175_56317" x1="266.767" y1="44.6372" x2="250.344" y2="44.6372" gradientUnits="userSpaceOnUse">
<stop stop-color="#530085"/>
<stop offset="0.1" stop-color="#530085"/>
<stop offset="0.9" stop-color="#0052F2"/>
<stop offset="1" stop-color="#0052F2"/>
</linearGradient>
<linearGradient id="paint68_linear_2175_56317" x1="223.478" y1="43.6881" x2="212.296" y2="43.6881" gradientUnits="userSpaceOnUse">
<stop stop-color="#530085"/>
<stop offset="0.1" stop-color="#530085"/>
<stop offset="0.9" stop-color="#0052F2"/>
<stop offset="1" stop-color="#0052F2"/>
</linearGradient>
<linearGradient id="paint69_linear_2175_56317" x1="253.471" y1="40.5333" x2="221.214" y2="40.5333" gradientUnits="userSpaceOnUse">
<stop stop-color="#530085"/>
<stop offset="0.1" stop-color="#530085"/>
<stop offset="0.9" stop-color="#0052F2"/>
<stop offset="1" stop-color="#0052F2"/>
</linearGradient>
<linearGradient id="paint70_linear_2175_56317" x1="325.657" y1="323.478" x2="336.65" y2="323.478" gradientUnits="userSpaceOnUse">
<stop stop-color="#F26F56"/>
<stop offset="1" stop-color="#F8C9C6"/>
</linearGradient>
<linearGradient id="paint71_linear_2175_56317" x1="326.102" y1="328.598" x2="335.305" y2="328.598" gradientUnits="userSpaceOnUse">
<stop stop-color="#444B89"/>
<stop offset="0.27" stop-color="#3E437E"/>
<stop offset="0.75" stop-color="#2F3160"/>
<stop offset="1" stop-color="#26264F"/>
</linearGradient>
<linearGradient id="paint72_linear_2175_56317" x1="347.244" y1="323.701" x2="365.542" y2="323.701" gradientUnits="userSpaceOnUse">
<stop stop-color="#F26F56"/>
<stop offset="1" stop-color="#F8C9C6"/>
</linearGradient>
<linearGradient id="paint73_linear_2175_56317" x1="349.282" y1="328.537" x2="363.012" y2="328.537" gradientUnits="userSpaceOnUse">
<stop stop-color="#444B89"/>
<stop offset="0.27" stop-color="#3E437E"/>
<stop offset="0.75" stop-color="#2F3160"/>
<stop offset="1" stop-color="#26264F"/>
</linearGradient>
<linearGradient id="paint74_linear_2175_56317" x1="355.668" y1="287.854" x2="321.581" y2="287.854" gradientUnits="userSpaceOnUse">
<stop stop-color="#530085"/>
<stop offset="0.1" stop-color="#530085"/>
<stop offset="0.9" stop-color="#0052F2"/>
<stop offset="1" stop-color="#0052F2"/>
</linearGradient>
<linearGradient id="paint75_linear_2175_56317" x1="352.548" y1="239.607" x2="326.451" y2="238.822" gradientUnits="userSpaceOnUse">
<stop stop-color="#CEDDFE"/>
<stop offset="1" stop-color="#7399EF"/>
</linearGradient>
<linearGradient id="paint76_linear_2175_56317" x1="335.957" y1="213.558" x2="341.449" y2="213.558" gradientUnits="userSpaceOnUse">
<stop stop-color="#331809"/>
<stop offset="0.1" stop-color="#331809"/>
<stop offset="0.19" stop-color="#3D1C08"/>
<stop offset="0.66" stop-color="#6C3406"/>
<stop offset="0.9" stop-color="#7F3D06"/>
<stop offset="1" stop-color="#7F3D06"/>
</linearGradient>
<linearGradient id="paint77_linear_2175_56317" x1="354.994" y1="228.595" x2="361.192" y2="228.595" gradientUnits="userSpaceOnUse">
<stop stop-color="#F26F56"/>
<stop offset="1" stop-color="#F8C9C6"/>
</linearGradient>
<linearGradient id="paint78_linear_2175_56317" x1="355.432" y1="226.89" x2="366.271" y2="226.89" gradientUnits="userSpaceOnUse">
<stop stop-color="#F26F56"/>
<stop offset="1" stop-color="#F8C9C6"/>
</linearGradient>
<linearGradient id="paint79_linear_2175_56317" x1="330.271" y1="227.27" x2="343.621" y2="227.27" gradientUnits="userSpaceOnUse">
<stop stop-color="#331809"/>
<stop offset="0.1" stop-color="#331809"/>
<stop offset="0.19" stop-color="#3D1C08"/>
<stop offset="0.66" stop-color="#6C3406"/>
<stop offset="0.9" stop-color="#7F3D06"/>
<stop offset="1" stop-color="#7F3D06"/>
</linearGradient>
<linearGradient id="paint80_linear_2175_56317" x1="328.541" y1="222.895" x2="344.871" y2="222.895" gradientUnits="userSpaceOnUse">
<stop stop-color="#F26F56"/>
<stop offset="1" stop-color="#F8C9C6"/>
</linearGradient>
<linearGradient id="paint81_linear_2175_56317" x1="347.255" y1="239.647" x2="306.735" y2="237.982" gradientUnits="userSpaceOnUse">
<stop stop-color="#CEDDFE"/>
<stop offset="1" stop-color="#7399EF"/>
</linearGradient>
<linearGradient id="paint82_linear_2175_56317" x1="329.866" y1="240.143" x2="303.215" y2="239.329" gradientUnits="userSpaceOnUse">
<stop stop-color="#CEDDFE"/>
<stop offset="1" stop-color="#7399EF"/>
</linearGradient>
<linearGradient id="paint83_linear_2175_56317" x1="360.596" y1="242.196" x2="336.657" y2="241.452" gradientUnits="userSpaceOnUse">
<stop stop-color="#CEDDFE"/>
<stop offset="1" stop-color="#7399EF"/>
</linearGradient>
<linearGradient id="paint84_linear_2175_56317" x1="330.81" y1="215.178" x2="349.636" y2="215.178" gradientUnits="userSpaceOnUse">
<stop stop-color="#F26F56"/>
<stop offset="1" stop-color="#F8C9C6"/>
</linearGradient>
<linearGradient id="paint85_linear_2175_56317" x1="334.939" y1="213.647" x2="338.571" y2="213.647" gradientUnits="userSpaceOnUse">
<stop stop-color="#331809"/>
<stop offset="0.1" stop-color="#331809"/>
<stop offset="0.19" stop-color="#3D1C08"/>
<stop offset="0.66" stop-color="#6C3406"/>
<stop offset="0.9" stop-color="#7F3D06"/>
<stop offset="1" stop-color="#7F3D06"/>
</linearGradient>
<linearGradient id="paint86_linear_2175_56317" x1="321.722" y1="268.846" x2="334.575" y2="268.846" gradientUnits="userSpaceOnUse">
<stop stop-color="#F26F56"/>
<stop offset="1" stop-color="#F8C9C6"/>
</linearGradient>
<linearGradient id="paint87_linear_2175_56317" x1="320.767" y1="270.43" x2="334.206" y2="270.43" gradientUnits="userSpaceOnUse">
<stop stop-color="#F26F56"/>
<stop offset="1" stop-color="#F8C9C6"/>
</linearGradient>
<linearGradient id="paint88_linear_2175_56317" x1="325.22" y1="257.343" x2="306.904" y2="256.9" gradientUnits="userSpaceOnUse">
<stop stop-color="#CEDDFE"/>
<stop offset="1" stop-color="#7399EF"/>
</linearGradient>
<linearGradient id="paint89_linear_2175_56317" x1="323.122" y1="219.52" x2="338.889" y2="219.52" gradientUnits="userSpaceOnUse">
<stop stop-color="#331809"/>
<stop offset="0.1" stop-color="#331809"/>
<stop offset="0.19" stop-color="#3D1C08"/>
<stop offset="0.66" stop-color="#6C3406"/>
<stop offset="0.9" stop-color="#7F3D06"/>
<stop offset="1" stop-color="#7F3D06"/>
</linearGradient>
</defs>
</svg>
