<?xml version="1.0" encoding="UTF-8"?><svg id="Layer_1" xmlns="http://www.w3.org/2000/svg" xmlns:xlink="http://www.w3.org/1999/xlink" viewBox="0 0 57.4 123.7"><defs><linearGradient id="linear-gradient" x1="17.5" y1="26.2" x2="25.1" y2="26.2" gradientTransform="translate(0 141.9) scale(1 -1)" gradientUnits="userSpaceOnUse"><stop offset="0" stop-color="#ebb964"/><stop offset="1" stop-color="#d97a5c"/></linearGradient><linearGradient id="linear-gradient-2" x1="40.5" y1="26" x2="46.1" y2="26" gradientTransform="translate(0 141.9) scale(1 -1)" gradientUnits="userSpaceOnUse"><stop offset="0" stop-color="#ebb964"/><stop offset="1" stop-color="#d97a5c"/></linearGradient><linearGradient id="linear-gradient-3" x1="11.3" y1="21.6" x2="25.2" y2="21.6" gradientTransform="translate(0 141.9) scale(1 -1)" gradientUnits="userSpaceOnUse"><stop offset="0" stop-color="#444b8b"/><stop offset=".3" stop-color="#3e4480"/><stop offset=".7" stop-color="#2f3262"/><stop offset="1" stop-color="#26264f"/></linearGradient><linearGradient id="linear-gradient-4" x1="37.7" y1="21.7" x2="47" y2="21.7" gradientTransform="translate(0 141.9) scale(1 -1)" gradientUnits="userSpaceOnUse"><stop offset="0" stop-color="#444b8b"/><stop offset=".3" stop-color="#3e4480"/><stop offset=".7" stop-color="#2f3262"/><stop offset="1" stop-color="#26264f"/></linearGradient><linearGradient id="linear-gradient-5" x1="52" y1="61.2" x2="14.7" y2="62.7" gradientTransform="translate(0 141.9) scale(1 -1)" gradientUnits="userSpaceOnUse"><stop offset="0" stop-color="#ceddfe"/><stop offset="1" stop-color="#7399ef"/></linearGradient><linearGradient id="linear-gradient-6" x1="0" y1="114.1" x2="18.9" y2="114.1" gradientTransform="translate(0 141.9) scale(1 -1)" gradientUnits="userSpaceOnUse"><stop offset="0" stop-color="#ebb964"/><stop offset="1" stop-color="#d97a5c"/></linearGradient><linearGradient id="linear-gradient-7" x1="25.4" y1="110.3" x2="47.9" y2="110.3" gradientTransform="translate(0 141.9) scale(1 -1)" gradientUnits="userSpaceOnUse"><stop offset="0" stop-color="#9d0051"/><stop offset="0" stop-color="#9d0051"/><stop offset=".9" stop-color="#301c90"/><stop offset="1" stop-color="#301c90"/></linearGradient><linearGradient id="linear-gradient-8" x1="27.8" y1="104.5" x2="38.4" y2="104.5" gradientTransform="translate(0 141.9) scale(1 -1)" gradientUnits="userSpaceOnUse"><stop offset="0" stop-color="#ebb964"/><stop offset="1" stop-color="#d97a5c"/></linearGradient><linearGradient id="linear-gradient-9" x1="8.2" y1="110.7" x2="28.2" y2="110.7" gradientTransform="translate(0 141.9) scale(1 -1)" gradientUnits="userSpaceOnUse"><stop offset="0" stop-color="#9d0051"/><stop offset="0" stop-color="#9d0051"/><stop offset=".9" stop-color="#301c90"/><stop offset="1" stop-color="#301c90"/></linearGradient><linearGradient id="linear-gradient-10" x1="36.8" y1="108.7" x2="57.4" y2="108.7" gradientTransform="translate(0 141.9) scale(1 -1)" gradientUnits="userSpaceOnUse"><stop offset="0" stop-color="#9d0051"/><stop offset="0" stop-color="#9d0051"/><stop offset=".9" stop-color="#301c90"/><stop offset="1" stop-color="#301c90"/></linearGradient><linearGradient id="linear-gradient-11" x1="31.2" y1="125.1" x2="34.5" y2="125.1" gradientTransform="translate(0 141.9) scale(1 -1)" gradientUnits="userSpaceOnUse"><stop offset="0" stop-color="#9d0051"/><stop offset="0" stop-color="#9d0051"/><stop offset=".9" stop-color="#301c90"/><stop offset="1" stop-color="#301c90"/></linearGradient><linearGradient id="linear-gradient-12" x1="34.4" y1="125.9" x2="46" y2="125.9" gradientTransform="translate(0 141.9) scale(1 -1)" gradientUnits="userSpaceOnUse"><stop offset="0" stop-color="#9d0051"/><stop offset="0" stop-color="#9d0051"/><stop offset=".9" stop-color="#301c90"/><stop offset="1" stop-color="#301c90"/></linearGradient><linearGradient id="linear-gradient-13" x1="33.4" y1="128.5" x2="41.7" y2="128.5" gradientTransform="translate(0 141.9) scale(1 -1)" gradientUnits="userSpaceOnUse"><stop offset="0" stop-color="#ebb964"/><stop offset="1" stop-color="#d97a5c"/></linearGradient><linearGradient id="linear-gradient-14" x1="28.4" y1="134.2" x2="41.9" y2="134.2" gradientTransform="translate(0 141.9) scale(1 -1)" gradientUnits="userSpaceOnUse"><stop offset="0" stop-color="#ebb964"/><stop offset="1" stop-color="#d97a5c"/></linearGradient><linearGradient id="linear-gradient-15" x1="32.3" y1="134.2" x2="42.4" y2="137.3" gradientTransform="translate(0 141.9) scale(1 -1)" gradientUnits="userSpaceOnUse"><stop offset="0" stop-color="#331809"/><stop offset="0" stop-color="#331809"/><stop offset=".2" stop-color="#3d1c08"/><stop offset=".7" stop-color="#6c3406"/><stop offset=".9" stop-color="#7f3d06"/><stop offset="1" stop-color="#7f3d06"/></linearGradient><linearGradient id="linear-gradient-16" x1="41.4" y1="137.4" x2="50.6" y2="137.4" gradientTransform="translate(0 141.9) scale(1 -1)" gradientUnits="userSpaceOnUse"><stop offset="0" stop-color="#331809"/><stop offset="0" stop-color="#331809"/><stop offset=".2" stop-color="#3d1c08"/><stop offset=".7" stop-color="#6c3406"/><stop offset=".9" stop-color="#7f3d06"/><stop offset="1" stop-color="#7f3d06"/></linearGradient><linearGradient id="linear-gradient-17" x1="33.3" y1="125.3" x2="48.1" y2="125.3" gradientTransform="translate(0 141.9) scale(1 -1)" gradientUnits="userSpaceOnUse"><stop offset="0" stop-color="#9d0051"/><stop offset="0" stop-color="#9d0051"/><stop offset=".9" stop-color="#301c90"/><stop offset="1" stop-color="#301c90"/></linearGradient></defs><path d="m20.2,113.2s-.2,1.7-.5,3.3c0,0,0,0,0,.1-.7,2.3-2.1,2.9-2.1,2.9h7c0-.1-.1-.8-.1-.8h.1c-.3-.7.2-3.2.5-5.5.4-2.7-4.9.1-4.9.1h0Z" style="fill:url(#linear-gradient);"/><path d="m45.9,118.2s0,0,0-.2c0-.2-.1-.3-.2-.5,0,0,0-.1,0-.2-.4-1.6-.2-3.7-.2-3.7,0,0-5-2.8-4.9-.1.1,2.7,0,4.4,0,4.4,0,0,0,0,.2,0l-.4,1.3h5.6c0,.1,0-.2-.2-1.1Z" style="fill:url(#linear-gradient-2);"/><path d="m11.9,123.7l12.7-.2s.5-.2.6-1.1c0-.8-.5-3.6-.7-4.3,0-.1-.1-.2-.2-.1-.3.1-.8.4-1.1,1-.6.9-2-.6-2.2-1.3-.3-.8-1.5-.7-1.5-.7l-5.6,3.6-.9.2c-.6.1-1.2.5-1.5,1.1-.3.5-.4,1.4.4,1.9h0Z" style="fill:url(#linear-gradient-3);"/><path d="m38,123.7l8.5-.2s.5-.2.6-1.1c0-.9-.8-4.5-.8-4.5,0,0-.5-.3-.5,1.1,0,1.1-.7,0-1.5-1.3-.4-.7-2.6-.8-2.6-.8l-1,.6-.9,2c-1.4,1.1-2.5,3.7-1.7,4.3Z" style="fill:url(#linear-gradient-4);"/><path d="m48.5,50.9c-.8-1.9-2-4-3.6-5.9l-12.8.6c-1-.5-2.1-.7-3.4-.5l-.3.7h-.3c-.5,1.1-3.1,7.9-3.5,9.6h0c-1.9,8.2-3.2,21.4-3.2,32.3l-2.4,26.3,6.7,1.1s3.2-7.5,4.6-12.9c1.5-6.2,1.6-12.1,1.6-15.1l4.1-17,3.4,44.5h7.5c0,0,3.6-36,4.6-50.7.4-4.8-1.3-9.5-3.1-13h0Z" style="fill:url(#linear-gradient-5);"/><path d="m17.8,33s-6.3-6.3-8.6-8.2h0c0,0-1.4-2.8-1.6-3.3-.3-.5-.7-.9-.7-.9-.7-.5-1.4-1-1.7-1.7,0,0-.8.7.2,1.7.2.2.4.6.6,1-.4-.1-.8-.2-.9-.3-.5-.2-2.7-2.2-3-2.4-.3-.3-.5-.2-.4.4.1.6,2.4,2.7,2.4,2.7h-.1c-.9-.5-2.4-2.2-2.4-2.2,0,0-1-.9-1.1-.2,0,.8,3.1,3.1,3.1,3.1h0c0,.1-1.9-1.2-2.6-1.9-.7-.7-.7,0-.7,0,.3,1.1,2.6,2.6,2.8,2.7-.5,0-2.3-1.3-2.3-1.3,0,0-.6-.4-.6.2s2.9,2.2,2.9,2.2c0,0,1.6.7,3.1,1.5.4.2.9.3,1.3.3,3.4,3.7,5.9,7,5.9,7l.7,1.1,4.1,2.3c2-3.7-.2-4-.2-4h0ZM3,23.7s0,0,0,0h0Z" style="fill:url(#linear-gradient-6);"/><path d="m46.6,33.2h0c1.7-8.1,1.3-13.8,1.3-13.8l-6.1-2.1c-3.7,1.2-7.9,2.1-7.6,0l-6.2,1.6s1,4.4-1.7,8.8c-1.4,2.2-.8,5-.2,6.4l1.4,11.9h0s1,0,1,0h0s17.9,0,17.9,0v-8.6c.1-2.2.2-4,.1-4.1h0Z" style="fill:#fff;"/><path d="m33.2,24c.9-1.8,2-3.6-.5-4.5,0,0-3.3-1.7-6-.3-1,.4-1.9,1.2-2.5,2.6-.8,1.5-1.5,3.8-2.1,6.2-.6,2.1-1.2,4.3-1.7,6.3-3.9-4.4-9.8-9.8-9.8-9.8l-2.5,3.2,7.2,11.3c.7,1.1,1.6,2.1,2.6,2.9l1.6,1.3c3.5.6,4.8-.5,5.8-2,0,0,0,0,0,0,0,0,6.2-13.8,7.9-17.1h0Z" style="fill:#fff;"/><path d="m46.6,33.2h0c1.7-8.1,1.3-13.8,1.3-13.8l-6.1-2.1c-3.7,1.2-7.9,2.1-7.6,0l-6.2,1.6s1,4.4-1.7,8.8c-1.4,2.2-.8,5-.2,6.4l1.4,11.9h0s1,0,1,0h0s17.9,0,17.9,0v-8.6c.1-2.2.2-4,.1-4.1h0Z" style="fill:url(#linear-gradient-7); isolation:isolate; opacity:.9;"/><path d="m34.5,19.5l-.7-5.4s-3.1,1.4-2.6,3.3c.4,1.9,3.3,2.1,3.3,2.1h0Z" style="fill:#fff;"/><path d="m46,13.6c-1.5-.7-7.9-.8-11.6.4l-2.6,4,6.4,1.1,7.8-5.5h0Z" style="fill:#fff;"/><path d="m37,38.1c-.5-.8-1.5-2.1-1.8-2.4-.3-.4-.9-.8-.9-.8-.8-.4-1.6-.8-2-1.4,0,0-.7.8.4,1.6.3.2.5.5.8.9-.4,0-.8,0-.9-.1-.5,0-3-1.7-3.3-1.9-.3-.2-.5-.1-.3.5.2.6,2.8,2.3,2.8,2.3h0c-1-.3-2.7-1.7-2.7-1.7,0,0-1.2-.7-1.1,0,0,.8,3.6,2.6,3.6,2.6h0c0,.1-2-.8-2.9-1.4-.8-.6-.7.2-.7.2.5,1,2.9,2.1,3.2,2.2-.5,0-2.5-.9-2.5-.9,0,0-.7-.3-.5.3.1.6,3.2,1.7,3.2,1.7,0,0,1.7.4,3.3.9.5.2,1,.1,1.4,0l1.5.7,1.1-3-1.4-.3h0Zm-5.9.5s0,0,0,0h0Z" style="fill:url(#linear-gradient-8);"/><path d="m25.3,41.2s.5-1.2,1.3-3l-.5-4.1c-.7-1.4-1.2-4.1.2-6.4,2.7-4.4,1.7-8.8,1.7-8.8h0c-.4,0-.9.2-1.3.4-1,.4-1.9,1.2-2.5,2.6-.8,1.5-1.5,3.8-2.1,6.2-.6,2.1-1.2,4.3-1.7,6.3-3.9-4.4-9.8-9.8-9.8-9.8l-2.5,3.2,7.2,11.3c.7,1.1,1.6,2.1,2.6,2.9l1.6,1.3c3.5.6,4.8-.5,5.8-2,0,0,0,0,0,0h0Z" style="fill:url(#linear-gradient-9); isolation:isolate; opacity:.9;"/><path d="m57.4,43s0,0,0,0c0-2.2-.5-9.9-6.3-20.4-2.8-5.1-6.6-2.5-6.6-2.5-4.3,3.1.5,10.1.5,10.1l4.5,9.1c-5.1-1.1-11.1-1.3-11.1-1.3l-1.7,3.8,10.3,3.8,5.7,1.5c.2,0,.6,0,1.1-.2,1.6-.7,3.2-2.2,3.5-3.8h0c0,0,0,0,0,0Z" style="fill:#fff;"/><path d="m57.4,43s0,0,0,0c0-2.2-.5-9.9-6.3-20.4-2.8-5.1-6.6-2.5-6.6-2.5-4.3,3.1.5,10.1.5,10.1l4.5,9.1c-5.1-1.1-11.1-1.3-11.1-1.3l-1.7,3.8,10.3,3.8,5.7,1.5c.2,0,.6,0,1.1-.2,1.6-.7,3.2-2.2,3.5-3.8h0c0,0,0,0,0,0Z" style="fill:url(#linear-gradient-10); isolation:isolate; opacity:.9;"/><path d="m34.5,19.5l-.7-5.4s-3.1,1.4-2.6,3.3c.4,1.9,3.3,2.1,3.3,2.1h0Z" style="fill:url(#linear-gradient-11); isolation:isolate; opacity:.9;"/><path d="m46,13.6c-1.5-.7-7.9-.8-11.6.4l.5,4.7,2.6.4,8.5-5.4Z" style="fill:url(#linear-gradient-12); isolation:isolate; opacity:.9;"/><path d="m33.4,11.6c0,0,1,6.7,1,6.7l7.4-.9c-3-3.2-3.5-8.1-3.5-8.1-.7-1.8-2,1.5-3.4,2.7l-1.4-.3Z" style="fill:url(#linear-gradient-13);"/><path d="m35.7,11.9c-.3.6-.8,1.1-1.4,1.4l-2.6,1.1c-.4.2-.8.2-1.2.1-.2,0-.4-.1-.6-.3-.3-.3-.2-.8-.2-1.3l-.8-.2s-.3-.6.4-1c0,0,1.2.2-.3-.3-.7-.2-.4-.8-.4-.8,0,0,.6-.3.6-.6.1-.2-.6-.3-.8-.7,0-.1,0-.5.1-.6.3-.3,1.3-1.1,1.3-2s-.3-2.2,1.5-3.9c2.1-2,5.6-2.2,7.5-.9,1.5,1,3.9,3.7,2.7,6.7-1.2,3-3.4,3.9-3.4,3.9v-1.7s-.5.2-.5.2c-.4.2-.9,0-1.2-.3l-.2-.2-.5,1.3h0Z" style="fill:url(#linear-gradient-14);"/><path d="m31.8,2.3s.7.1,1.1,1c.5,1,.8,1.3,1.1,1.5.5.3.8,1.1.7,1.7-.3,1.5.7,2.2.7,2.2,0,0,1-1.6,2.2-1.1,2.4.9,0,3.7,0,3.7,0,0,.5,1,1.3.7.3-.1,1.5-1.2,2-2,.8-1.2,3.1-4.5-.4-8.3-2.3-2.6-8.6-.9-8.8.6h0Z" style="fill:url(#linear-gradient-15);"/><path d="m41.5,4.5c0,.4.4.7.7.8-.1.2-.1.5,0,.7.1.6.8,1,1.4.9,0,0,0,0,.1,0,0,.2-.1.4,0,.7.1.6.8,1,1.4.9.2,0,.3-.1.4-.2.3.5.9.7,1.5.6.7-.2,1.1-.8,1-1.5.4.4.9.7,1.5.5.8-.2,1.3-1,1.1-1.9,0-.3-.2-.6-.4-.8.4-.3.6-.8.5-1.3-.1-.5-.5-.8-.9-.9,0-.1,0-.3,0-.4,0-1-.9-1.7-1.9-1.7-.3,0-.6.1-.8.3-.3-.8-1-1.3-1.9-1.2-.8,0-1.4.6-1.6,1.2-.2,0-.4,0-.6,0-.7.2-1.1.8-.9,1.5,0,.2.1.3.2.5-.5.2-.8.8-.7,1.3h0Z" style="fill:url(#linear-gradient-16);"/><path d="m33.3,18.4l12.7-4.8c.9.3,3.8,2.6.5,5.4-2.1,1.7-13.2-.6-13.2-.6Z" style="fill:#fff;"/><path d="m33.3,18.4l12.7-4.8c.9.3,3.8,2.6.5,5.4-2.1,1.7-13.2-.6-13.2-.6Z" style="fill:url(#linear-gradient-17); isolation:isolate; opacity:.9;"/></svg>