<?xml version="1.0" encoding="UTF-8"?><svg id="Layer_1" xmlns="http://www.w3.org/2000/svg" xmlns:xlink="http://www.w3.org/1999/xlink" viewBox="0 0 48 122.8"><defs><linearGradient id="linear-gradient" x1="10.7" y1="24.3" x2="21.7" y2="24.3" gradientTransform="translate(0 139.4) scale(1 -1)" gradientUnits="userSpaceOnUse"><stop offset="0" stop-color="#f26f56"/><stop offset="1" stop-color="#f8c9c6"/></linearGradient><linearGradient id="linear-gradient-2" x1="11.1" y1="20" x2="20.3" y2="20" gradientTransform="translate(0 139.4) scale(1 -1)" gradientUnits="userSpaceOnUse"><stop offset="0" stop-color="#444b89"/><stop offset=".3" stop-color="#3e437e"/><stop offset=".8" stop-color="#2f3160"/><stop offset="1" stop-color="#26264f"/></linearGradient><linearGradient id="linear-gradient-3" x1="32.2" y1="23.9" x2="50.5" y2="23.9" gradientTransform="translate(0 139.4) scale(1 -1)" gradientUnits="userSpaceOnUse"><stop offset="0" stop-color="#f26f56"/><stop offset="1" stop-color="#f8c9c6"/></linearGradient><linearGradient id="linear-gradient-4" x1="34.3" y1="20.1" x2="48" y2="20.1" gradientTransform="translate(0 139.4) scale(1 -1)" gradientUnits="userSpaceOnUse"><stop offset="0" stop-color="#444b89"/><stop offset=".3" stop-color="#3e437e"/><stop offset=".8" stop-color="#2f3160"/><stop offset="1" stop-color="#26264f"/></linearGradient><linearGradient id="linear-gradient-5" x1="40.7" y1="60.8" x2="6.6" y2="60.8" gradientTransform="translate(0 139.4) scale(1 -1)" gradientUnits="userSpaceOnUse"><stop offset="0" stop-color="#530085"/><stop offset="0" stop-color="#530085"/><stop offset=".9" stop-color="#0052f2"/><stop offset="1" stop-color="#0052f2"/></linearGradient><linearGradient id="linear-gradient-6" x1="37.5" y1="108" x2="11.4" y2="108.8" gradientTransform="translate(0 139.4) scale(1 -1)" gradientUnits="userSpaceOnUse"><stop offset="0" stop-color="#ceddfe"/><stop offset="1" stop-color="#7399ef"/></linearGradient><linearGradient id="linear-gradient-7" x1="21" y1="135.1" x2="26.4" y2="135.1" gradientTransform="translate(0 139.4) scale(1 -1)" gradientUnits="userSpaceOnUse"><stop offset="0" stop-color="#331809"/><stop offset="0" stop-color="#331809"/><stop offset=".2" stop-color="#3d1c08"/><stop offset=".7" stop-color="#6c3406"/><stop offset=".9" stop-color="#7f3d06"/><stop offset="1" stop-color="#7f3d06"/></linearGradient><linearGradient id="linear-gradient-8" x1="40" y1="119.2" x2="46.2" y2="119.2" gradientTransform="translate(0 139.4) scale(1 -1)" gradientUnits="userSpaceOnUse"><stop offset="0" stop-color="#f26f56"/><stop offset="1" stop-color="#f8c9c6"/></linearGradient><linearGradient id="linear-gradient-9" x1="40.4" y1="120.5" x2="51.3" y2="120.5" gradientTransform="translate(0 139.4) scale(1 -1)" gradientUnits="userSpaceOnUse"><stop offset="0" stop-color="#f26f56"/><stop offset="1" stop-color="#f8c9c6"/></linearGradient><linearGradient id="linear-gradient-10" x1="15.3" y1="121.4" x2="28.6" y2="121.4" gradientTransform="translate(0 139.4) scale(1 -1)" gradientUnits="userSpaceOnUse"><stop offset="0" stop-color="#331809"/><stop offset="0" stop-color="#331809"/><stop offset=".2" stop-color="#3d1c08"/><stop offset=".7" stop-color="#6c3406"/><stop offset=".9" stop-color="#7f3d06"/><stop offset="1" stop-color="#7f3d06"/></linearGradient><linearGradient id="linear-gradient-11" x1="13.5" y1="124.4" x2="29.9" y2="124.4" gradientTransform="translate(0 139.4) scale(1 -1)" gradientUnits="userSpaceOnUse"><stop offset="0" stop-color="#f26f56"/><stop offset="1" stop-color="#f8c9c6"/></linearGradient><linearGradient id="linear-gradient-12" x1="32.2" y1="107.5" x2="-8.3" y2="109.2" gradientTransform="translate(0 139.4) scale(1 -1)" gradientUnits="userSpaceOnUse"><stop offset="0" stop-color="#ceddfe"/><stop offset="1" stop-color="#7399ef"/></linearGradient><linearGradient id="linear-gradient-13" x1="14.8" y1="107.4" x2="-11.8" y2="108.3" gradientTransform="translate(0 139.4) scale(1 -1)" gradientUnits="userSpaceOnUse"><stop offset="0" stop-color="#ceddfe"/><stop offset="1" stop-color="#7399ef"/></linearGradient><linearGradient id="linear-gradient-14" x1="45.6" y1="105.5" x2="21.6" y2="106.3" gradientTransform="translate(0 139.4) scale(1 -1)" gradientUnits="userSpaceOnUse"><stop offset="0" stop-color="#ceddfe"/><stop offset="1" stop-color="#7399ef"/></linearGradient><linearGradient id="linear-gradient-15" x1="15.8" y1="132.1" x2="34.6" y2="132.1" gradientTransform="translate(0 139.4) scale(1 -1)" gradientUnits="userSpaceOnUse"><stop offset="0" stop-color="#f26f56"/><stop offset="1" stop-color="#f8c9c6"/></linearGradient><linearGradient id="linear-gradient-16" x1="19.9" y1="135" x2="23.6" y2="135" gradientTransform="translate(0 139.4) scale(1 -1)" gradientUnits="userSpaceOnUse"><stop offset="0" stop-color="#331809"/><stop offset="0" stop-color="#331809"/><stop offset=".2" stop-color="#3d1c08"/><stop offset=".7" stop-color="#6c3406"/><stop offset=".9" stop-color="#7f3d06"/><stop offset="1" stop-color="#7f3d06"/></linearGradient><linearGradient id="linear-gradient-17" x1="6.7" y1="79.2" x2="19.6" y2="79.2" gradientTransform="translate(0 139.4) scale(1 -1)" gradientUnits="userSpaceOnUse"><stop offset="0" stop-color="#f26f56"/><stop offset="1" stop-color="#f8c9c6"/></linearGradient><linearGradient id="linear-gradient-18" x1="5.8" y1="77.1" x2="19.2" y2="77.1" gradientTransform="translate(0 139.4) scale(1 -1)" gradientUnits="userSpaceOnUse"><stop offset="0" stop-color="#f26f56"/><stop offset="1" stop-color="#f8c9c6"/></linearGradient><linearGradient id="linear-gradient-19" x1="10.2" y1="90.5" x2="-8.1" y2="91" gradientTransform="translate(0 139.4) scale(1 -1)" gradientUnits="userSpaceOnUse"><stop offset="0" stop-color="#ceddfe"/><stop offset="1" stop-color="#7399ef"/></linearGradient><linearGradient id="linear-gradient-20" x1="8.1" y1="129.1" x2="23.9" y2="129.1" gradientTransform="translate(0 139.4) scale(1 -1)" gradientUnits="userSpaceOnUse"><stop offset="0" stop-color="#331809"/><stop offset="0" stop-color="#331809"/><stop offset=".2" stop-color="#3d1c08"/><stop offset=".7" stop-color="#6c3406"/><stop offset=".9" stop-color="#7f3d06"/><stop offset="1" stop-color="#7f3d06"/></linearGradient></defs><path d="m17.2,117.2c.1,0,.2,0,.2,0,0,0,0-1.7,0-4.4.1-2.7-4.8,0-4.8,0,0,0,.1,2.1-.2,3.7,0,0,0,.1,0,.2,0,.2,0,.4-.2.5,0,0,0,0,0,.1-.2,1-.2,1.2-.2,1.2h5.5c0-.1-.4-1.4-.4-1.4h0Z" style="fill:url(#linear-gradient);"/><path d="m20,122.8l-8.4-.2s-.5-.2-.6-1.1c0-.9.8-4.4.8-4.4,0,0,.5-.3.5,1,0,1.1.7,0,1.5-1.3.4-.7,2.5-.8,2.5-.8l1,.5.9,2c1.4,1.1,2.5,3.7,1.7,4.2h0Z" style="fill:url(#linear-gradient-2);"/><path d="m43.6,120s-3.1-2.2-3.8-4.5c0-.2-.1-.3-.2-.4-.3-1.4-.4-2.7-.4-2.7,0,0-5.2-2.8-4.8,0,.3,2.3.8,4.8.5,5.5h.1s0,.4,0,.4l8.7,1.8h0Z" style="fill:url(#linear-gradient-3);"/><path d="m47.4,122.7l-12.5-.2s-.5-.2-.6-1.1c0-.8.5-3.5.7-4.3,0-.1.1-.2.2-.1.3,0,.7.4,1.1,1,.6.9,1.9-.6,2.2-1.3.3-.8,1.4-.7,1.4-.7l5.5,3.5.9.2c.6.1,1.2.5,1.5,1.1.3.5.4,1.4-.4,1.9Z" style="fill:url(#linear-gradient-4);"/><path d="m29.2,44.8l-16.4.5-.5,1.3c-1.9,2.7-6.1,9.7-5.6,17.1,1.1,14.5,4.6,50.1,4.6,50.1h7.4c0,0,3.4-45.1,3.4-45.1l5.8,17.1c.4,11.5,5.3,28.5,5.3,28.5l7.3-1c2.1-50-11.2-68.4-11.2-68.4h0Z" style="fill:#fff;"/><path d="m29.2,44.8v-1.9c0,0-16.3.3-16.3.3v2.1c-.1,0-.7,1.3-.7,1.3-1.9,2.7-6.1,9.7-5.6,17.1,1.1,14.5,4.6,50.1,4.6,50.1h7.4c0,0,3.4-45.1,3.4-45.1l5.8,17.1c.4,11.5,5.3,28.5,5.3,28.5l7.3-1c2.1-50-11.2-68.4-11.2-68.4h0Z" style="fill:url(#linear-gradient-5); isolation:isolate; opacity:.8;"/><path d="m37.3,40.9s-2-13.4-4.6-18.6c-2.6-5.2-8.3-2.2-8.3-2.2-2.4.9-1.4,2.6-.5,4.4,1.1,2.1,3.7,7.6,5.4,11.5v.3c0,0,2.8,6.7,2.8,6.7,0,0,.5-.8.9-2.6l4.1.5h0Z" style="fill:url(#linear-gradient-6);"/><path d="m26.1,8.5s1.2-4.5-.9-6.3C23.1.3,21,.2,21,.2l5.2,8.3Z" style="fill:url(#linear-gradient-7);"/><path d="m42.3,23.6s-1.1-3-1.3-3.5-.2-1.2-.2-1.2c0-.9.2-1.8-.1-2.5,0,0,1.1,0,1.1,1.3,0,.7.7,2.1.7,2.1,0,0,.5.4.6,0,0,0,.7,4.1.7,4.1-.6.3-1.5-.3-1.5-.3h0Z" style="fill:url(#linear-gradient-8);"/><path d="m44.3,24.2c.3-.2,1.1-.8,1.3-1.7.5-1.6,1-3.3,1-3.3,0,0,.8-3.3.4-3.7-.5-.4-.5.3-.5.3,0,0-.5,2.6-.7,2.7-.1,0,0,0,0,0,0,0,.5-3-.1-4,0,0-.6-.5-.6.5,0,1-.3,3.3-.3,3.3h-.1s.4-4.1-.2-4.5c-.6-.5-.7,1-.7,1,0,0,.2,2.3,0,3.3h0c0,0,0-3.1-.4-3.6-.4-.5-.6-.4-.6,0s0,3.4-.2,3.9c0,.2-.7,1.2-.7,1.6-.1.6,0,1.9.2,2.1.3.5.7,1.5.9,1.8,0,0-.2,0-.1,0,.2.2,0,.2.2.3,0,0,1.1.4,1.3.2h0Z" style="fill:url(#linear-gradient-9);"/><path d="m25.2,8.8c-.5-.9,1.1,2.2-.4,2.8-2.5.9-4.6,2.7-4.6,4.6-.1,3.1-2.3,2.5-4.5,6.5-2.9,5.4,11.2,7.2,13-.4.2-4.4-1.6-9.3-3.4-13.6Z" style="fill:url(#linear-gradient-10);"/><path d="m23.7,12.1c0,0-1.3,8.7-1.3,8.7-3.2-.5-6.1-1.1-7-3,3-3.2,3.5-8,3.4-8,.6-1.8,1.9,1.4,3.4,2.7l1.4-.3h0Z" style="fill:url(#linear-gradient-11);"/><path d="m31,27.6c-2.7-4.4-2-8.1-2-8.1l-6.1-1.6c0,2.6-5.3,1.9-7.5,0l-5.8,2.1s.2,6.9,1.2,15.1c.2,2.4.7,7.8,1.4,9.8h4.3c0,0,13-.2,13-.2l.2-10.1s4-2.7,1.2-7.1h0Z" style="fill:url(#linear-gradient-12);"/><path d="m12.7,20.4s-3.7-2.6-6.5,2.5C.5,33.4,0,40.9,0,43.1c0,.3.3.6.6.5l4.4-.5,8-13.1s4-6.5-.2-9.6h0Z" style="fill:url(#linear-gradient-13);"/><path d="m45.4,24s-2.6,10.8-5.6,16.1c-.7,1.2-1.4,2-1.9,2.5-.3.3-1.4,1-2.3,1.4-.8.4-1.8.2-2.5-.4l-.8-.7.6-4.2c.3-1.3.8-2.6,1.6-3.7l7.5-11.9,3.5.8h0Z" style="fill:url(#linear-gradient-14);"/><path d="m27.5,8.2l-1.4-1.6c0,0,0-.1,0-.2-.2-2.8-2.1-4.2-2.1-4.2-.5-.4-1.1-.7-1.3-.8h-.2c-1.2,2.9-1.7,6.8-1.7,6.8,0,0-.7-1.8-1.9-1.2-.9.5-1,2,0,3.2.7.9,1.6.4,1.6.4,0,0,.5,2,1.7,2.3.4.1,2,.3,2,.3.7,0,1.5.2,2.2.1,0,0,1.6,0,.8-1.7l.4-.4s.1-.4-.7-.6c0,0,.9-.3.7-.8l-.4-.5c0-.1,0-.3,0-.3l.4-.3s.2-.3,0-.5h0Z" style="fill:url(#linear-gradient-15);"/><path d="m20.7,8c.2-2.4,3.3-3.8,2.8-6.4,0,0-.2-1.1-2.5-.8-2.3.2-.4,7.2-.4,7.2Z" style="fill:url(#linear-gradient-16);"/><path d="m9.7,57.5s2.4,2,2.9,2.4.8.9.8.9c.4.8.7,1.6,1.4,2.1,0,0-.9.6-1.6-.6-.4-.6-1.7-1.5-1.7-1.5,0,0-.7-.1-.5.3,0,0-2.7-3.2-2.7-3.2.4-.6,1.5-.5,1.5-.5h0Z" style="fill:url(#linear-gradient-17);"/><path d="m7.7,58c-.2.4-.5,1.2-.3,2.1.4,1.6.8,3.4.8,3.4,0,0,.9,3.3,1.6,3.4.6.1.3-.5.3-.5,0,0-.9-2.5-.7-2.7,0,0,0,0,0,0,0,0,1.1,2.8,2.1,3.4,0,0,.8.2.2-.7-.5-.9-1.4-3-1.4-3h.1s1.6,3.7,2.4,3.8c.8,0,.1-1.2.1-1.2,0,0-1.3-1.9-1.6-2.9h0c0,0,1.6,2.6,2.2,2.9.6.3.7,0,.5-.3-.2-.3-1.7-3-1.8-3.5,0-.2,0-1.4-.2-1.8-.2-.6-1-1.6-1.2-1.7-.5-.3-1.4-1-1.7-1.1,0,0,.2,0,.1,0-.3-.1,0-.2-.3-.1,0,0-1.1.2-1.3.5h0Z" style="fill:url(#linear-gradient-18);"/><path d="m10.1,57.2s-.9-8.9-3.5-14c-2.6-5.1-3-4.8-3-4.8l-3.2,3.7c-.4.5-.4,1.1-.2,1.7l.2.7c1.1,3.5,2.4,6.9,4.2,10.1l2.4,4.5,3.2-2Z" style="fill:url(#linear-gradient-19);"/><path d="m21.5.3c-2.9-.8-5.8,0-7.4,2.5-2.3,3.5-5.2,12.6-6,17.6h0s0,.1,0,.2c0,0,.1,0,.2-.1h10.4c-1.5-2.2.2-10,.2-10h0s0,0,0,0c0,0-.1-.1-.2-.2-.9-1.2-.8-2.7,0-3.2,1.2-.7,1.9,1.2,1.9,1.2,0,0,.5-3.9,1.7-6.7h.2c.2,0,.8.3,1.3.8h0c-.4-.9-1.3-1.6-2.4-1.9h0Z" style="fill:url(#linear-gradient-20);"/></svg>