<?xml version="1.0" encoding="UTF-8"?><svg id="Layer_1" xmlns="http://www.w3.org/2000/svg" xmlns:xlink="http://www.w3.org/1999/xlink" viewBox="0 0 54.5 127.7"><defs><linearGradient id="linear-gradient" x1="15.9" y1="130.5" x2="30.3" y2="130.5" gradientTransform="translate(0 143.9) scale(1 -1)" gradientUnits="userSpaceOnUse"><stop offset="0" stop-color="#f8c9c6"/><stop offset="1" stop-color="#f26f56"/></linearGradient><linearGradient id="linear-gradient-2" x1="31.9" y1="23.1" x2="37" y2="23.1" gradientTransform="translate(0 143.9) scale(1 -1)" gradientUnits="userSpaceOnUse"><stop offset="0" stop-color="#f8c9c6"/><stop offset="1" stop-color="#f26f56"/></linearGradient><linearGradient id="linear-gradient-3" x1="12.1" y1="23.2" x2="17.6" y2="23.2" gradientTransform="translate(0 143.9) scale(1 -1)" gradientUnits="userSpaceOnUse"><stop offset="0" stop-color="#f8c9c6"/><stop offset="1" stop-color="#f26f56"/></linearGradient><linearGradient id="linear-gradient-4" x1="39.2" y1="51.7" x2="7" y2="53" gradientTransform="translate(0 143.9) scale(1 -1)" gradientUnits="userSpaceOnUse"><stop offset="0" stop-color="#ceddfe"/><stop offset="1" stop-color="#7399ef"/></linearGradient><linearGradient id="linear-gradient-5" x1="8.8" y1="19.3" x2="18.4" y2="19.3" gradientTransform="translate(0 143.9) scale(1 -1)" gradientUnits="userSpaceOnUse"><stop offset="0" stop-color="#444b8b"/><stop offset=".3" stop-color="#3e4480"/><stop offset=".7" stop-color="#2f3262"/><stop offset="1" stop-color="#26264f"/></linearGradient><linearGradient id="linear-gradient-6" x1="31.3" y1="19.3" x2="40.9" y2="19.3" gradientTransform="translate(0 143.9) scale(1 -1)" gradientUnits="userSpaceOnUse"><stop offset="0" stop-color="#444b8b"/><stop offset=".3" stop-color="#3e4480"/><stop offset=".7" stop-color="#2f3262"/><stop offset="1" stop-color="#26264f"/></linearGradient><linearGradient id="linear-gradient-7" x1=".9" y1="81.3" x2="8.3" y2="81.3" gradientTransform="translate(0 143.9) scale(1 -1)" gradientUnits="userSpaceOnUse"><stop offset="0" stop-color="#f8c9c6"/><stop offset="1" stop-color="#f26f56"/></linearGradient><linearGradient id="linear-gradient-8" x1="23.4" y1="143.9" x2="23.4" y2="128.3" gradientTransform="translate(0 143.9) scale(1 -1)" gradientUnits="userSpaceOnUse"><stop offset="0" stop-color="#fffb96"/><stop offset="1" stop-color="#ffd583"/></linearGradient><linearGradient id="linear-gradient-9" x1="20.3" y1="115.6" x2="30.3" y2="115.6" gradientTransform="translate(0 143.9) scale(1 -1)" gradientUnits="userSpaceOnUse"><stop offset="0" stop-color="#05c8ff"/><stop offset=".8" stop-color="#18d4a7"/></linearGradient><linearGradient id="linear-gradient-10" x1="54.5" y1="99.3" x2="38" y2="99.3" gradientTransform="translate(0 143.9) scale(1 -1)" gradientUnits="userSpaceOnUse"><stop offset="0" stop-color="#530085"/><stop offset="0" stop-color="#530085"/><stop offset=".9" stop-color="#0052f2"/><stop offset="1" stop-color="#0052f2"/></linearGradient><linearGradient id="linear-gradient-11" x1="11.2" y1="100.2" x2="0" y2="100.2" gradientTransform="translate(0 143.9) scale(1 -1)" gradientUnits="userSpaceOnUse"><stop offset="0" stop-color="#530085"/><stop offset="0" stop-color="#530085"/><stop offset=".9" stop-color="#0052f2"/><stop offset="1" stop-color="#0052f2"/></linearGradient><linearGradient id="linear-gradient-12" x1="41.2" y1="103.4" x2="8.9" y2="103.4" gradientTransform="translate(0 143.9) scale(1 -1)" gradientUnits="userSpaceOnUse"><stop offset="0" stop-color="#530085"/><stop offset="0" stop-color="#530085"/><stop offset=".9" stop-color="#0052f2"/><stop offset="1" stop-color="#0052f2"/></linearGradient></defs><path d="m29.4,17.6c-.5-.6-1.5-3.3-2-5.1,0,0,0,0,0,0h0s0,0-.1,0h-.3s0,0,0,0c0,0-.1,0-.2,0,0,0,0,0-.1,0,0,0-.1,0-.2,0,0,0,0,0-.1,0,0,0-.1,0-.2-.2,0,0,0,0-.1-.1,0,0,0-.2-.1-.2,0,0,0-.1,0-.2,0-.2-.1-.3-.2-.6,0-.1,0-.2,0-.3.4-.1.8-.4.9-1,.2-1.2,0-2.4-1.2-2.4-1.5,0-1.3,1.8-1.3,1.8,0,0-1,1.3-.9-.4,0-1.5-1.1-2.8-1.1-2.8,0,0,.4-.7.1-1.7-.3-1-3.2-1.2-3.2-1.2-.3.4-.8,1.3-1.1,2.2-.3.7-.3,1.4,0,2.1,0,.2-.3.4-.4.7l-1.2,1.8s-.2.6.3.6c.7,0,.6.3.6.3,0,0,0,.5-.1.8-.4.5.3.8.5.8.2,0-.3,0-.4.5,0,.5.3.5.3.5.5.4-.6,1.6.8,2,.9.3,4.6-.1,5.6-1.6l.4-1s0,0,0,0c0,0,0,0,0,.2,0,0,0,.2,0,.3,0,0,0,0,0,.2,0,0,0,.2-.1.3,0,0,0,0,0,.1-.5.6-1.4,1.1-2.5,1.5l.6,2.5-1.5,1.8s4.2,5.4,7.7,4c3.5-1.3,2.1-5.2,1.4-6h0Z" style="fill:url(#linear-gradient);"/><path d="m36.9,117.8v4.9c.1,0-4.5,1.3-4.5,1.3l-.4-6.5,5,.3Z" style="fill:url(#linear-gradient-2);"/><path d="m12.6,117.8l-.5,6,5.2-.5.3-5.9-5,.3Z" style="fill:url(#linear-gradient-3);"/><path d="m38.4,62.1l-13.6.6-13.6-.6c-.7,15.9-.6,35.1.6,59h6.2l6.7-47.4,6.7,47.4h6.2c1.4-17.2,1.4-37.3.6-59h0Z" style="fill:url(#linear-gradient-4);"/><path d="m17.5,123.1s1.1,3,.9,4.7h-9.6s-.3-1.5,1.2-2.9l1.3-2s.4-1.7,1.9-1.4c2.9.6,2,1.3,4.2,1.6h0Z" style="fill:url(#linear-gradient-5);"/><path d="m32.2,123.1s-1.1,3-.9,4.7h9.6s.3-1.5-1.2-2.9l-1.3-2s-.4-1.7-1.9-1.4c-2.9.6-2,1.3-4.2,1.6h0Z" style="fill:url(#linear-gradient-6);"/><path d="m6.2,68.1c.5-2.8,2.1-11.2,2.1-14.1,0-3.4,0-4.3,0-4.3,0,0-4.2-.6-6,.2-.5.2-.8,2.8-.7,4.4l1.2,13.9c-.4.8-2,3.8-1.8,4.3.2.5.7.5.7.5,0,0-.2.7.2.9.3.2.9,0,.9,0,0,0,0,.8.4.9.5.1,1-.1,1-.1,0,0,.1.6.6.7.5.1.9-.4.9-.4,0,0,.3.6.8.6s.5-.7.5-.7c0,0,0-2.8-.1-4.6,0-.8-.3-1.6-.5-2.3h0Z" style="fill:url(#linear-gradient-7);"/><path d="m24.1.5c-2.5-.2-4,.3-5.2-.5-.4-.3-1.2,1.7-.2,2.8,0,0,0,0,0,0,.4,0,2.9.3,3.2,1.2.3,1-.1,1.7-.1,1.7,0,0,.6.7.9,1.7.3,3.3-2.1,3.4-2.6,3.8-.6.3-2.5-1.2-3.2-.8-.6.4-.6,1.1-.3,1.2.3,0,.7,0,1.1,0,.2,0,.8.2.8.4,0,.4-.3.8-1.2,1.2-.6.3.3,2,.3,2,0,0,.5.4,2.2.2,2.7-.4,4.5-1.6,4.2-3.3-.3-1.2-.2-2.8-.2-3.6,0-.5.3-1.3,1.3-1.3,1.2,0,1.5,1.2,1.2,2.4-.1.6-.5.9-.9,1,0,0,0,.2,0,.3.2,1.7,1.6,1.5,1.9,1.5,2.2-.7,2.8-3.1,3.1-5.4.5-3.5-2.7-6.4-6.2-6.6h0Z" style="fill:url(#linear-gradient-8);"/><path d="m20.3,17l4.4,22.8,5.6-22.6c-3.7-.5-7.1-.5-10-.2h0Z" style="fill:url(#linear-gradient-9); isolation:isolate; opacity:.9;"/><path d="m1.6,66.9l5.5.6s2-8.9,2.9-18.2l7.6-17.4s1.1-8.3-3.5-11.2-6.9,1.2-6.9,1.2c0,0-5.9,9.2-7,22.4-1,13.2,1.4,22.7,1.4,22.7Z" style="fill:#fff;"/><path d="m8.9,20.3s13.8-8.1,32.3,0l-2.6,28.5.6,14-28.2,1.6.5-14.6-2.5-29.5Z" style="fill:#fff;"/><path d="m41.2,20.3s9.4,6.5,13.3,23.1l-7.5,10.5s-5.2-13.9-8-17c-2.8-3.1,2.3-16.6,2.3-16.6Z" style="fill:#fff;"/><path d="m38.3,61.2s5.8-17.1,6.6-20,9.5,1.8,9.5,1.8c0,0,.3,14.5-16.1,25.9v-7.7s0,0,0,0Z" style="fill:#fff;"/><path d="m54.5,43.4c0,0,0-.2,0-.2v-.2h0c-4-16.3-13.2-22.7-13.2-22.7,0,0-5.1,13.6-2.3,16.6,1.3,1.4,3.1,5,4.6,8.6-2,6.1-5.3,15.7-5.3,15.7v7.7c14.7-10.2,16-22.7,16.1-25.4h0Z" style="fill:url(#linear-gradient-10); isolation:isolate; opacity:.7;"/><path d="m8.9,20.3s.3-.2.9-.5c-1.7.5-2.6,2-2.6,2,0,0-5.9,9.2-7,22.4-1,13.2,1.4,22.7,1.4,22.7l5.5.6s2-8.9,2.9-18.2l1.1-2.6-2.3-26.4h0Z" style="fill:url(#linear-gradient-11); isolation:isolate; opacity:.7;"/><path d="m38.3,62.8v-1.6s.3-.9.7-2.2l-.4-10.2,1-11c-.2-.3-.5-.7-.7-.9-2.8-3.1,2.3-16.6,2.3-16.6-18.5-8.1-32.3,0-32.3,0l2.5,29.5-.5,14.6,27.3-1.5h0Z" style="fill:url(#linear-gradient-12); isolation:isolate; opacity:.8;"/></svg>