<svg width="255" height="344" viewBox="0 0 255 344" fill="none" xmlns="http://www.w3.org/2000/svg">
<rect x="6.26371" y="55.9048" width="155.122" height="297.475" rx="17.0227" transform="rotate(-18.6638 6.26371 55.9048)" fill="url(#paint0_linear_2175_55776)" stroke="url(#paint1_linear_2175_55776)" stroke-width="9.88413"/>
<path d="M31.6014 79.1362L34.1137 78.2796L31.345 70.1741L29.3375 70.8577L29.0219 69.9425C29.9675 69.4274 30.5929 68.8969 31.0678 68.3362L32.1601 67.9681L35.5111 77.8063L37.7823 77.0286L38.1843 78.1963L31.9732 80.3075L31.5713 79.1399L31.6014 79.1362Z" fill="#352D4D"/>
<path d="M38.0845 72.0648C36.8185 68.3736 37.4831 65.9417 39.6828 65.179C41.8786 64.4352 43.8732 65.9618 45.1392 69.653C46.4052 73.3442 45.7743 75.8516 43.5784 76.5954C41.3712 77.3467 39.343 75.7447 38.0845 72.0648ZM43.7606 70.1302C42.6561 66.9023 41.3503 65.8958 40.0697 66.324C38.7778 66.7598 38.3661 68.3711 39.463 71.5877C40.5675 74.8157 41.8958 75.9049 43.1915 75.4503C44.4646 75.0108 44.8575 73.3468 43.753 70.1189L43.7606 70.1302Z" fill="#352D4D"/>
<path d="M46.4869 67.4667C46.2652 66.815 46.5745 66.2015 47.1507 66.0137C47.7082 65.8221 48.3255 66.1126 48.5471 66.7642C48.765 67.3856 48.4483 67.9879 47.8908 68.1794C47.3221 68.3786 46.7048 68.0881 46.4869 67.4667ZM48.6056 73.6889C48.384 73.0373 48.6932 72.4238 49.2695 72.236C49.827 72.0444 50.4442 72.3348 50.6659 72.9865C50.8838 73.6079 50.567 74.2102 50.0096 74.4017C49.4408 74.6009 48.8235 74.3104 48.6056 73.6889Z" fill="#352D4D"/>
<path d="M50.9507 67.6781C49.6847 63.9869 50.3493 61.5549 52.549 60.7923C54.7449 60.0485 56.7394 61.5751 58.0054 65.2663C59.2714 68.9575 58.6405 71.4649 56.4446 72.2087C54.2374 72.96 52.2092 71.358 50.9507 67.6781ZM56.6268 65.7435C55.5223 62.5155 54.2165 61.5091 52.9359 61.9373C51.644 62.3731 51.2323 63.9844 52.3292 67.201C53.4337 70.4289 54.762 71.5182 56.0577 71.0636C57.3308 70.6241 57.7237 68.9601 56.6193 65.7321L56.6268 65.7435Z" fill="#352D4D"/>
<path d="M59.519 64.7484C58.253 61.0572 58.9177 58.6253 61.1173 57.8626C63.3132 57.1188 65.3077 58.6454 66.5737 62.3366C67.8398 66.0278 67.2089 68.5352 65.013 69.279C62.8058 70.0303 60.7775 68.4283 59.519 64.7484ZM65.1951 62.8138C64.0907 59.5858 62.7849 58.5794 61.5043 59.0076C60.2124 59.4434 59.8006 61.0547 60.8976 64.2713C62.002 67.4992 63.3304 68.5885 64.6261 68.1339C65.8992 67.6944 66.2921 66.0304 65.1876 62.8025L65.1951 62.8138Z" fill="#352D4D"/>
<mask id="mask0_2175_55776" style="mask-type:alpha" maskUnits="userSpaceOnUse" x="112" y="21" width="38" height="38">
<rect x="121.899" y="58.1162" width="28.7146" height="28.7146" transform="rotate(-108.102 121.899 58.1162)" fill="#352D4D"/>
</mask>
<g mask="url(#mask0_2175_55776)">
<path d="M143.944 40.8418C144.049 41.164 144.029 41.4697 143.882 41.7589C143.735 42.0482 143.501 42.2454 143.178 42.3508L124.983 48.2988C124.661 48.4041 124.355 48.3834 124.066 48.2367C123.777 48.09 123.579 47.8556 123.474 47.5333L122.73 45.2589L120.456 46.0024L118.969 41.4535L121.243 40.71L120.5 38.4356C120.395 38.1134 120.415 37.8077 120.562 37.5184C120.709 37.2292 120.943 37.0319 121.265 36.9266L139.461 30.9786C139.783 30.8732 140.089 30.8939 140.378 31.0406C140.667 31.1874 140.865 31.4218 140.97 31.744L143.944 40.8418ZM127.651 44.9091L125.421 38.0858L123.146 38.8293L125.377 45.6526L127.651 44.9091Z" fill="#352D4D"/>
</g>
<defs>
<linearGradient id="paint0_linear_2175_55776" x1="164.962" y1="206.522" x2="-0.0962671" y2="206.522" gradientUnits="userSpaceOnUse">
<stop stop-color="white"/>
<stop offset="0.35" stop-color="#FBFCFD"/>
<stop offset="0.62" stop-color="#F2F3F7"/>
<stop offset="0.87" stop-color="#E1E4EE"/>
<stop offset="1" stop-color="#D5D9E8"/>
</linearGradient>
<linearGradient id="paint1_linear_2175_55776" x1="0.00928379" y1="206.498" x2="165.002" y2="206.498" gradientUnits="userSpaceOnUse">
<stop stop-color="#444B8B"/>
<stop offset="0.99" stop-color="#26264F"/>
</linearGradient>
</defs>
</svg>
