<?xml version="1.0" encoding="UTF-8"?><svg id="Layer_1" xmlns="http://www.w3.org/2000/svg" xmlns:xlink="http://www.w3.org/1999/xlink" viewBox="0 0 52.9 130.2"><defs><linearGradient id="linear-gradient" x1="15.8" y1="23" x2="10" y2="23" gradientTransform="translate(0 147.9) scale(1 -1)" gradientUnits="userSpaceOnUse"><stop offset="0" stop-color="#aa316d"/><stop offset="1" stop-color="#792d3d"/></linearGradient><linearGradient id="linear-gradient-2" x1="46" y1="24.1" x2="36.6" y2="24.1" gradientTransform="translate(0 147.9) scale(1 -1)" gradientUnits="userSpaceOnUse"><stop offset="0" stop-color="#aa316d"/><stop offset="1" stop-color="#792d3d"/></linearGradient><linearGradient id="linear-gradient-3" x1="9.1" y1="58.5" x2="43.9" y2="58.5" gradientTransform="translate(0 147.9) scale(1 -1)" gradientUnits="userSpaceOnUse"><stop offset="0" stop-color="#9d0051"/><stop offset="0" stop-color="#9d0051"/><stop offset=".9" stop-color="#301c90"/><stop offset="1" stop-color="#301c90"/></linearGradient><linearGradient id="linear-gradient-4" x1="52.9" y1="21.1" x2="36.6" y2="21.1" gradientTransform="translate(0 147.9) scale(1 -1)" gradientUnits="userSpaceOnUse"><stop offset="0" stop-color="#26264f"/><stop offset=".3" stop-color="#282853"/><stop offset=".5" stop-color="#2e2f5f"/><stop offset=".8" stop-color="#383c73"/><stop offset="1" stop-color="#444b8b"/></linearGradient><linearGradient id="linear-gradient-5" x1="24.1" y1="135.5" x2="19.5" y2="135.5" gradientTransform="translate(0 147.9) scale(1 -1)" gradientUnits="userSpaceOnUse"><stop offset="0" stop-color="#aa316d"/><stop offset="1" stop-color="#792d3d"/></linearGradient><linearGradient id="linear-gradient-6" x1="26.2" y1="136" x2="19.7" y2="125.8" gradientTransform="translate(0 147.9) scale(1 -1)" gradientUnits="userSpaceOnUse"><stop offset="0" stop-color="#aa316d"/><stop offset="1" stop-color="#792d3d"/></linearGradient><linearGradient id="linear-gradient-7" x1="43.8" y1="114.9" x2="14.8" y2="115.7" gradientTransform="translate(0 147.9) scale(1 -1)" gradientUnits="userSpaceOnUse"><stop offset="0" stop-color="#ceddfe"/><stop offset="1" stop-color="#7399ef"/></linearGradient><linearGradient id="linear-gradient-8" x1="35.7" y1="106.8" x2="5.7" y2="108.4" gradientTransform="translate(0 147.9) scale(1 -1)" gradientUnits="userSpaceOnUse"><stop offset="0" stop-color="#ceddfe"/><stop offset="1" stop-color="#7399ef"/></linearGradient><linearGradient id="linear-gradient-9" x1="8.5" y1="84.3" x2=".6" y2="84.3" gradientTransform="translate(0 147.9) scale(1 -1)" gradientUnits="userSpaceOnUse"><stop offset="0" stop-color="#aa316d"/><stop offset="1" stop-color="#792d3d"/></linearGradient><linearGradient id="linear-gradient-10" x1="17.9" y1="103.8" x2="-2.4" y2="104.4" gradientTransform="translate(0 147.9) scale(1 -1)" gradientUnits="userSpaceOnUse"><stop offset="0" stop-color="#ceddfe"/><stop offset="1" stop-color="#7399ef"/></linearGradient><linearGradient id="linear-gradient-11" x1="22.3" y1="96.8" x2="12.9" y2="96.8" gradientTransform="translate(0 147.9) scale(1 -1)" gradientUnits="userSpaceOnUse"><stop offset="0" stop-color="#26264f"/><stop offset=".3" stop-color="#282853"/><stop offset=".5" stop-color="#2e2f5f"/><stop offset=".8" stop-color="#383c73"/><stop offset="1" stop-color="#444b8b"/></linearGradient><linearGradient id="linear-gradient-12" x1="41.5" y1="97" x2="12.8" y2="97" gradientTransform="translate(0 147.9) scale(1 -1)" gradientUnits="userSpaceOnUse"><stop offset="0" stop-color="#aa316d"/><stop offset="1" stop-color="#792d3d"/></linearGradient><linearGradient id="linear-gradient-13" x1="43.7" y1="98.5" x2="29.2" y2="100.1" gradientTransform="translate(0 147.9) scale(1 -1)" gradientUnits="userSpaceOnUse"><stop offset="0" stop-color="#ceddfe"/><stop offset="1" stop-color="#7399ef"/></linearGradient><linearGradient id="linear-gradient-14" x1="30.2" y1="143.1" x2="20.9" y2="135.6" gradientTransform="translate(0 147.9) scale(1 -1)" gradientUnits="userSpaceOnUse"><stop offset="0" stop-color="#aa316d"/><stop offset="1" stop-color="#792d3d"/></linearGradient><linearGradient id="linear-gradient-15" x1="25.9" y1="139.6" x2="17.1" y2="139.6" gradientTransform="translate(0 147.9) scale(1 -1)" gradientUnits="userSpaceOnUse"><stop offset="0" stop-color="#26264f"/><stop offset=".3" stop-color="#282853"/><stop offset=".5" stop-color="#2e2f5f"/><stop offset=".8" stop-color="#383c73"/><stop offset="1" stop-color="#444b8b"/></linearGradient><linearGradient id="linear-gradient-16" x1="28.8" y1="144.8" x2="18.6" y2="144.8" gradientTransform="translate(0 147.9) scale(1 -1)" gradientUnits="userSpaceOnUse"><stop offset="0" stop-color="#26264f"/><stop offset=".3" stop-color="#282853"/><stop offset=".5" stop-color="#2e2f5f"/><stop offset=".8" stop-color="#383c73"/><stop offset="1" stop-color="#444b8b"/></linearGradient><linearGradient id="linear-gradient-17" x1="20.9" y1="146.3" x2="17" y2="146.3" gradientTransform="translate(0 147.9) scale(1 -1)" gradientUnits="userSpaceOnUse"><stop offset="0" stop-color="#26264f"/><stop offset=".3" stop-color="#282853"/><stop offset=".5" stop-color="#2e2f5f"/><stop offset=".8" stop-color="#383c73"/><stop offset="1" stop-color="#444b8b"/></linearGradient><linearGradient id="linear-gradient-18" x1="16.5" y1="20.8" x2="6.9" y2="20.8" gradientTransform="translate(0 147.9) scale(1 -1)" gradientUnits="userSpaceOnUse"><stop offset="0" stop-color="#26264f"/><stop offset=".3" stop-color="#282853"/><stop offset=".5" stop-color="#2e2f5f"/><stop offset=".8" stop-color="#383c73"/><stop offset="1" stop-color="#444b8b"/></linearGradient></defs><path d="m15.8,126.5v-2.7s-5.1-1.7-5.1-1.7l-.7,3.5s4.4,3.8,5.8.8Z" style="fill:url(#linear-gradient);"/><path d="m37.4,125.4s.2-2-.7-3.8c-.9-1.8,6-1.6,6-1.6,0,0,.5,4.4,2.9,5.8,2.4,1.4-6.4,3.4-8.2-.5h0Z" style="fill:url(#linear-gradient-2);"/><path d="m11.1,54.9c0-.5,0-1.1-.1-1.2h10.4c0-.1,1,0,1,0h11.5v2.4h0l.7,4.2,5.7,28.2,3.7,35.6-7,.9s-7.4-23.3-7.2-32.6l-6.6-20.4c-.7,9.9-3.1,37.4-6.7,53l-6.4-.6s-2.3-56.6,1.1-69.6h0Z" style="fill:#fff;"/><path d="m11.1,54.9c0-.5,0-1.1-.1-1.2h10.4c0-.1,1,0,1,0h11.5v2.4h0l.7,4.2,5.7,28.2,3.7,35.6-7,.9s-7.4-23.3-7.2-32.6l-6.6-20.4c-.7,9.9-3.1,37.4-6.7,53l-6.4-.6s-2.3-56.6,1.1-69.6h0Z" style="fill:url(#linear-gradient-3); isolation:isolate; opacity:.9;"/><path d="m52.7,130.2h-16.1s0-2,.8-4.9c0,0,3.1.9,4.9-.2l1.6-1.9,4.3,3.3,4.1,1.1s1.1,1,.5,2.5h0Z" style="fill:url(#linear-gradient-4);"/><path d="m19.5,13.3l1.3,1.4,3.3-4-4.5-.7-.2,3.2Z" style="fill:url(#linear-gradient-5);"/><path d="m19.7,18.1v-6.8h.5c0-.3-.2-.5-.3-.8-.4-.8-.5-2.2,1-2.3,1.5,0,1.8,1.7,1.6,3h-.4c0,.1,4.4.1,4.4.1v7.1l1.6.5c2.3,4.7-4.6,5.6-4.6,5.6l-7-5.2,3.3-1.1h0Z" style="fill:url(#linear-gradient-6);"/><path d="m28.1,18.9l6.4,1.9c2,.7,3.7,2.3,4.7,4.1.4.9.7,1.9,1,3.1,1.3,5,3.5,17.1,3.5,17.1l-8.8,1.3-2.6-11.7-4.6-7.8.4-8Z" style="fill:url(#linear-gradient-7);"/><path d="m15.3,28.6l2.3-9.9s1.8,2.4,5.3,2.4,5.1-2.3,5.1-2.3l3.3,3.4c1,1.1,1.8,2.4,2.1,3.9l2,9.2-.2,26.1H9.6l-.4-31.3,6.1-1.6h0Z" style="fill:url(#linear-gradient-8);"/><path d="m1,50c1.8-1,6.3-.8,6.3-.8,0,0,0,.9.4,4.5.4,3.3-.7,14.2-.9,15.7.3.7.8,1.9,1,2.9.4,1.8.6,4.8.6,4.8,0,0,0,.7-.5.8-.5,0-.9-.5-.9-.5,0,0-.4.6-.9.5-.5,0-.7-.7-.7-.7,0,0-.4.3-1,.2-.6,0-.6-.9-.6-.9,0,0-.6.2-.9,0-.4-.2-.3-.9-.3-.9,0,0-.5,0-.7-.5-.2-.5,1.4-4.4,1.6-4.8l-2.9-15.7c-.2-1.7-.1-4.4.3-4.7h0Z" style="fill:url(#linear-gradient-9);"/><path d="m.3,49.2c0-.1,0-.2.1-.3l4.9-21.2c.2-1.1.5-2,.9-2.7,1-1.9,2.7-3.4,4.7-4.1l6.8-2v1.5c0,4.3-1.2,8.6-3.4,12.4l-1.2,2.1-2.4,7.2-1.3,3.8-.8,3.1-.9,20-5.2.3S-1,56.6.3,49.2H.3Z" style="fill:url(#linear-gradient-10);"/><path d="m17.5,44.9l-4.3,1.8c-.3.1-.4.4-.3.7l4,9.6c.1.3.4.4.7.3l4.3-1.8c.3-.1.4-.4.3-.7l-4-9.6c-.1-.3-.4-.4-.7-.3Z" style="fill:url(#linear-gradient-11);"/><path d="m12.8,50.9c0-.5.7-.7.7-.7,0,0,3-.4,4.8-.4,1,0,2,.2,2.8.3,1.4-.4,11.9-3.8,15.2-4.1,3.6-.3,4.5-.5,4.5-.5,0,0,1.2,4.4.5,6.3-.2.5-2.8,1.1-4.5,1.3l-15.6.4h0c0,0-3.9,2.7-4.4,2.6-.6,0-.6-.6-.6-.6,0,0-.7.2-.9,0-.3-.3-.2-.9-.2-.9,0,0-.8.2-1-.4-.2-.5,0-1,0-1,0,0-.6,0-.8-.5-.2-.5.3-1,.3-1,0,0-.6-.3-.7-.8Z" style="fill:url(#linear-gradient-12);"/><path d="m43.6,44.9s.5,3.8-.9,6c-2,3-8.5,2.7-8.5,2.7l-3.3-8.5,4.6-1.3c.9-.3,1.9-.3,2.9,0l5.1,1.3h0Z" style="fill:url(#linear-gradient-13);"/><path d="m21.6,1.8S27.1,0,29.9,6.7c0,0,.4,1.1,0,2v.2c-.1,0,.9,1.9.9,1.9,0,0,0,.5-.4.6-.4.1-.6.1-.6.1l.6.9-.2.6s.3.6,0,.8c-.3.2-.5.5-.5.5v1s-.1.8-.8.9c-.6.2-2.4-.2-2.4-.2,0,0-3.1-.5-3.6-1.3-.6-.8-.6-1.7-.6-1.7v-1.1c.1,0-.4,0-.4,0-.6,0-1.2-.2-1.6-.7-.6-.9-1.5-2.5-1.4-3.9.1-2.2-.6-4.5,2.7-5.6h0Z" style="fill:url(#linear-gradient-14);"/><path d="m24,7.1s.4-.7,1.9-.6l-.8-2.3-6.1-.9c-1.4,1.3-1.8,3-2,4.5-.3,2.7,2.4,5.6,2.4,5.6l.8-1.6c0-.4-.2-.8-.4-1.2-.4-.8-.5-2.2,1-2.3,1.5,0,2,2.6,2,2.6l1.3-.3s-1.6-1.6-.2-3.4h0Z" style="fill:url(#linear-gradient-15);"/><path d="m28.8,4.6c-2.9-4.2-7.2-2.8-7.2-2.8-1.3.4-2.2,1.1-2.9,1.9l10.2,1s0,0,0-.1h0Z" style="fill:url(#linear-gradient-16);"/><path d="m19.2,3.1s-3,.9-2.1-1.7c.9-2.5,4.5-1.4,3.6,1l-1.5.7Z" style="fill:url(#linear-gradient-17);"/><path d="m15.5,125.5s1.1,3,.9,4.7H6.9s-.3-1.5,1.2-2.9l1.3-2s.4-1.7,1.9-1.4c2.9.6,2,1.3,4.2,1.6h0Z" style="fill:url(#linear-gradient-18);"/></svg>