<svg width="21" height="22" viewBox="0 0 21 22" fill="none" xmlns="http://www.w3.org/2000/svg">
<path d="M10.5 7C12.43 7 14 8.57 14 10.5C14 12.43 12.43 14 10.5 14C8.57 14 7 12.43 7 10.5C7 8.57 8.57 7 10.5 7ZM15.03 7.38L19 3.42V6H21V0H15V2H17.58L13.61 5.97C12.73 5.36 11.66 5 10.5 5C9.34 5 8.27 5.36 7.39 5.97L6.74 5.32L8.15 3.91L6.74 2.49L5.32 3.9L3.42 2H6V0H0V6H2V3.42L3.91 5.32L2.49 6.74L3.9 8.15L5.31 6.74L5.96 7.39C5.36 8.27 5 9.34 5 10.5C5 13.2 6.94 15.44 9.5 15.91V18H7.5V20H9.5V22H11.5V20H13.5V18H11.5V15.91C14.06 15.44 16 13.2 16 10.5C16 9.34 15.64 8.27 15.03 7.38Z" fill="#001464"/>
</svg>
