<svg width="408" height="427" viewBox="0 0 408 427" fill="none" xmlns="http://www.w3.org/2000/svg">
<mask id="mask0_2175_55578" style="mask-type:alpha" maskUnits="userSpaceOnUse" x="0" y="0" width="408" height="427">
<rect width="408" height="427" rx="10" fill="url(#paint0_linear_2175_55578)"/>
</mask>
<g mask="url(#mask0_2175_55578)">
<path d="M169.339 29.4536L262.327 38.7242C272.258 39.7079 279.515 48.5662 278.515 58.5043L270.707 136.849C269.502 136.908 268.291 137.084 267.084 137.421L237.319 151.237C218.674 156.532 225.296 182.734 247.343 176.449L260.728 173.939L241.125 186.626C228.037 191.867 234.134 212.632 247.936 212.039L246.222 212.854C232.653 216.208 237.91 240.202 253.97 236.218L260.901 235.336L256.626 278.233C255.642 288.164 246.784 295.421 236.846 294.421L143.859 285.151C133.928 284.167 126.67 275.309 127.67 265.371L136.4 177.761L155.971 164.106C164.344 156.699 169.957 151.489 172.846 146.487C177.881 137.772 168.513 127.795 159.449 132.156L140.026 141.501L149.58 45.6236C150.564 35.6925 159.422 28.4354 169.36 29.4351L169.339 29.4536Z" fill="url(#paint1_linear_2175_55578)"/>
<path d="M167.297 35.7826L263.516 45.3771C269.034 45.9328 273.059 50.8424 272.515 56.365L264.315 138.725L237.337 151.257C218.692 156.551 225.314 182.753 247.361 176.468L260.746 173.959L241.143 186.645C228.055 191.887 234.152 212.652 247.954 212.059L246.24 212.874C232.671 216.227 237.928 240.221 253.988 236.238L254.602 236.16L251.884 263.429C251.328 268.947 246.419 272.971 240.896 272.427L144.676 262.833C139.158 262.277 135.134 257.367 135.678 251.845L143.55 172.795L155.957 164.14C164.33 156.733 169.943 151.523 172.832 146.521C177.867 137.806 168.499 127.828 159.434 132.19L147.013 138.17L156.32 44.7856C156.876 39.2675 161.786 35.243 167.308 35.7871L167.297 35.7826Z" fill="url(#paint2_linear_2175_55578)"/>
<path d="M163.065 54.6938L165.47 54.935L166.244 47.1743L164.322 46.981L164.407 46.1035C165.385 46.0347 166.104 45.832 166.709 45.5474L167.753 45.6557L166.806 55.0718L168.981 55.2871L168.873 56.4062L162.93 55.8047L163.039 54.6855L163.065 54.6938Z" fill="#352D4D"/>
<path d="M171.111 51.2907C171.459 47.7545 172.929 45.9918 175.04 46.1925C177.14 46.4074 178.214 48.4264 177.866 51.9625C177.518 55.4986 176.047 57.3366 173.946 57.1217C171.834 56.9088 170.76 54.8146 171.111 51.2907ZM176.544 51.8361C176.85 48.7448 176.15 47.4171 174.927 47.2872C173.692 47.1593 172.741 48.338 172.433 51.4171C172.126 54.5084 172.814 55.9132 174.059 56.027C175.28 56.1447 176.235 54.9152 176.542 51.8239L176.544 51.8361Z" fill="#352D4D"/>
<path d="M179.809 50.6615C179.872 50.0379 180.36 49.6468 180.909 49.7093C181.443 49.7616 181.844 50.2357 181.781 50.8592C181.727 51.4564 181.236 51.8353 180.702 51.783C180.156 51.7327 179.754 51.2586 179.809 50.6615ZM179.21 56.6165C179.273 55.993 179.761 55.6019 180.309 55.6644C180.843 55.7166 181.245 56.1907 181.182 56.8143C181.127 57.4114 180.637 57.7904 180.103 57.7381C179.556 57.6878 179.155 57.2137 179.21 56.6165Z" fill="#352D4D"/>
<path d="M183.425 52.525C183.773 48.9889 185.244 47.2262 187.354 47.4269C189.454 47.6417 190.529 49.6608 190.18 53.1969C189.832 56.733 188.361 58.5709 186.261 58.3561C184.149 58.1432 183.075 56.0489 183.425 52.525ZM188.858 53.0704C189.165 49.9791 188.464 48.6515 187.241 48.5216C186.007 48.3937 185.056 49.5724 184.747 52.6515C184.441 55.7428 185.129 57.1476 186.374 57.2613C187.594 57.379 188.549 56.1495 188.856 53.0582L188.858 53.0704Z" fill="#352D4D"/>
<path d="M191.63 53.3409C191.978 49.8048 193.449 48.0421 195.559 48.2428C197.659 48.4577 198.734 50.4767 198.385 54.0128C198.037 57.5489 196.566 59.3868 194.466 59.172C192.354 58.9591 191.28 56.8649 191.63 53.3409ZM197.063 53.8864C197.37 50.7951 196.669 49.4674 195.446 49.3375C194.212 49.2096 193.261 50.3883 192.952 53.4674C192.646 56.5587 193.334 57.9635 194.579 58.0773C195.8 58.1949 196.755 56.9655 197.061 53.8742L197.063 53.8864Z" fill="#352D4D"/>
<path d="M67.4009 360.388C86.0259 362.362 136.012 370.875 163.146 406.535C165.704 409.901 166.163 414.423 164.413 418.278L143.475 464.497C140.629 470.778 132.971 473.208 127.017 469.733L37.599 417.435C31.896 414.098 30.1221 406.698 33.6825 401.135L56.4007 365.691C58.7689 361.985 63.0245 359.935 67.3964 360.4L67.4009 360.388Z" fill="white"/>
<path opacity="0.7" d="M67.4009 360.388C86.0259 362.362 136.012 370.875 163.146 406.535C165.704 409.901 166.163 414.423 164.413 418.278L143.475 464.497C140.629 470.778 132.971 473.208 127.017 469.733L37.599 417.435C31.896 414.098 30.1221 406.698 33.6825 401.135L56.4007 365.691C58.7689 361.985 63.0245 359.935 67.3964 360.4L67.4009 360.388Z" fill="url(#paint3_linear_2175_55578)"/>
<path d="M51.3855 409.055C27.6099 397.76 -1.82296 408.494 -17.9286 434.314L-45.9995 479.319L126.998 547.107L140.581 520.643C157.23 488.184 146.671 449.565 117.776 437.273L51.39 409.043L51.3855 409.055Z" fill="white"/>
<path opacity="0.7" d="M51.3855 409.055C27.6099 397.76 -1.82296 408.494 -17.9286 434.314L-45.9995 479.319L126.998 547.107L140.581 520.643C157.23 488.184 146.671 449.565 117.776 437.273L51.39 409.043L51.3855 409.055Z" fill="url(#paint4_linear_2175_55578)"/>
<path d="M253.981 236.222C237.925 240.194 232.669 216.2 246.233 212.858L247.947 212.043C234.145 212.636 228.044 191.882 241.136 186.629L260.738 173.943L247.354 176.452C225.295 182.733 218.674 156.531 237.33 151.241L267.095 137.424C275.943 134.97 285.186 140.185 287.645 149.022L288.054 150.484C290.502 159.316 285.275 168.554 276.427 171.009L271.782 171.884C276.283 173.342 280.389 177.195 282.495 182.561L283.056 183.976C286.404 192.511 283.441 201.733 276.477 204.461L276.298 204.51C279.437 206.63 281.997 210.195 283.059 214.635L283.381 215.982C285.314 224.095 281.625 231.984 275.192 233.526L268.836 234.329C265.792 244.674 262.156 254.561 258.092 263.883L260.939 235.337L254.008 236.219L253.981 236.222Z" fill="url(#paint5_linear_2175_55578)"/>
<path d="M270.174 135.936L284.913 134.781C289.336 133.726 291.384 126.23 289.451 118.117L289.13 116.769C287.197 108.656 281.995 102.887 277.556 103.949L263.073 112.415C253.753 114.751 259.151 138.721 270.174 135.936Z" fill="url(#paint6_linear_2175_55578)"/>
<path d="M108.652 161.392C110.1 157.763 112.803 154.627 116.573 152.798L159.44 132.179C168.52 127.811 177.877 137.784 172.837 146.511C169.948 151.513 164.339 156.711 155.962 164.13L136.391 177.785L132.588 215.954L132.265 218.032C132.265 218.032 132.302 218.073 132.36 218.162L127.65 265.389C127.587 265.989 127.564 266.591 127.557 267.185C127.563 267.373 127.58 267.566 127.586 267.754C127.6 268.158 127.615 268.562 127.65 268.948C127.677 269.184 127.713 269.397 127.739 269.633C127.788 269.984 127.825 270.331 127.905 270.668C127.955 270.913 128.021 271.151 128.071 271.397C128.144 271.717 128.222 272.027 128.312 272.341C128.385 272.595 128.478 272.831 128.567 273.078C128.666 273.369 128.764 273.66 128.879 273.944C128.979 274.195 129.096 274.44 129.212 274.685C129.336 274.946 129.455 275.218 129.594 275.472C129.722 275.721 129.866 275.964 130.006 276.218C130.138 276.455 130.282 276.698 130.431 276.928C130.586 277.175 130.758 277.415 130.93 277.655C131.087 277.863 131.229 278.078 131.391 278.274C131.574 278.518 131.773 278.756 131.977 278.981C132.143 279.166 132.31 279.351 132.465 279.531C132.68 279.762 132.907 279.996 133.138 280.22C133.302 280.377 133.478 280.539 133.658 280.689C133.905 280.905 134.163 281.126 134.427 281.336C134.6 281.47 134.773 281.604 134.95 281.727C135.23 281.929 135.52 282.136 135.816 282.331C135.986 282.438 136.157 282.545 136.328 282.651C136.639 282.84 136.962 283.033 137.293 283.202C137.457 283.293 137.618 283.356 137.786 283.435C138.134 283.598 138.489 283.777 138.857 283.921C139.007 283.98 139.156 284.039 139.295 284.093C139.686 284.246 140.082 284.388 140.487 284.507C140.602 284.552 140.719 284.558 140.838 284.592C141.282 284.712 141.738 284.838 142.195 284.924C142.738 285.03 143.289 285.114 143.85 285.174L236.837 294.445C238.714 294.636 240.552 294.519 242.313 294.16C224.019 324.142 202.772 344.311 188.717 349.345L162.661 405.948C135.43 370.807 85.9097 362.357 67.3974 360.401C67.2963 360.388 67.1976 360.402 67.0965 360.389L93.501 316.723L89.372 267.691C87.9683 262.667 91.2503 249.852 92.2357 244.728L108.294 161.357L108.631 161.41L108.652 161.392Z" fill="url(#paint7_linear_2175_55578)"/>
<path d="M157.942 336.33C157.942 336.33 149.342 337.54 144.89 331.215" stroke="#352D4D" stroke-width="0.988981" stroke-linecap="round" stroke-linejoin="round"/>
<mask id="mask1_2175_55578" style="mask-type:alpha" maskUnits="userSpaceOnUse" x="236" y="44" width="30" height="30">
<rect x="236.867" y="70.7666" width="26.1461" height="26.1461" transform="rotate(-83.5486 236.867 70.7666)" fill="#352D4D"/>
</mask>
<g mask="url(#mask1_2175_55578)">
<path d="M261.661 64.8007C261.626 65.1074 261.493 65.3528 261.262 65.5368C261.031 65.7208 260.762 65.7955 260.456 65.7608L243.135 63.8023C242.829 63.7676 242.583 63.6348 242.399 63.4038C242.215 63.1729 242.14 62.9041 242.175 62.5974L242.42 60.4323L240.255 60.1875L240.745 55.8574L242.91 56.1022L243.154 53.9372C243.189 53.6305 243.322 53.3851 243.553 53.2011C243.784 53.0171 244.053 52.9424 244.359 52.9771L261.68 54.9356C261.986 54.9703 262.232 55.1031 262.416 55.334C262.6 55.565 262.674 55.8338 262.64 56.1405L261.661 64.8007ZM246.628 62.0045L247.362 55.5093L245.197 55.2645L244.463 61.7597L246.628 62.0045Z" fill="#352D4D"/>
</g>
</g>
<defs>
<linearGradient id="paint0_linear_2175_55578" x1="-199.475" y1="-193.887" x2="556.208" y2="-111.056" gradientUnits="userSpaceOnUse">
<stop offset="0.317708" stop-color="#E43425"/>
<stop offset="0.71875" stop-color="#441FD8"/>
<stop offset="1" stop-color="#0A26B8"/>
</linearGradient>
<linearGradient id="paint1_linear_2175_55578" x1="289.649" y1="195.854" x2="116.559" y2="128.03" gradientUnits="userSpaceOnUse">
<stop stop-color="#26264F"/>
<stop offset="0.26" stop-color="#282853"/>
<stop offset="0.53" stop-color="#2E305F"/>
<stop offset="0.79" stop-color="#383C73"/>
<stop offset="1" stop-color="#444B89"/>
</linearGradient>
<linearGradient id="paint2_linear_2175_55578" x1="125.226" y1="123.234" x2="283.09" y2="185.091" gradientUnits="userSpaceOnUse">
<stop stop-color="white"/>
<stop offset="0.35" stop-color="#FBFCFD"/>
<stop offset="0.62" stop-color="#F2F3F7"/>
<stop offset="0.87" stop-color="#E1E4EE"/>
<stop offset="1" stop-color="#D5D9E8"/>
</linearGradient>
<linearGradient id="paint3_linear_2175_55578" x1="157.759" y1="435.305" x2="38.3805" y2="388.528" gradientUnits="userSpaceOnUse">
<stop stop-color="#0057D3"/>
<stop offset="0.1" stop-color="#0057D3"/>
<stop offset="0.4" stop-color="#0086E5"/>
<stop offset="0.73" stop-color="#00B6F8"/>
<stop offset="0.9" stop-color="#00C8FF"/>
<stop offset="1" stop-color="#00C8FF"/>
</linearGradient>
<linearGradient id="paint4_linear_2175_55578" x1="148.57" y1="501.27" x2="-27.5581" y2="432.255" gradientUnits="userSpaceOnUse">
<stop stop-color="#0057D3"/>
<stop offset="0.1" stop-color="#0057D3"/>
<stop offset="0.4" stop-color="#0086E5"/>
<stop offset="0.73" stop-color="#00B6F8"/>
<stop offset="0.9" stop-color="#00C8FF"/>
<stop offset="1" stop-color="#00C8FF"/>
</linearGradient>
<linearGradient id="paint5_linear_2175_55578" x1="311.464" y1="202.175" x2="171.192" y2="147.21" gradientUnits="userSpaceOnUse">
<stop stop-color="#F26F56"/>
<stop offset="1" stop-color="#F8C9C6"/>
</linearGradient>
<linearGradient id="paint6_linear_2175_55578" x1="299.335" y1="125.746" x2="238.16" y2="101.775" gradientUnits="userSpaceOnUse">
<stop stop-color="#F26F56"/>
<stop offset="1" stop-color="#F8C9C6"/>
</linearGradient>
<linearGradient id="paint7_linear_2175_55578" x1="289.675" y1="284.945" x2="-30.0392" y2="159.668" gradientUnits="userSpaceOnUse">
<stop stop-color="#F26F56"/>
<stop offset="1" stop-color="#F8C9C6"/>
</linearGradient>
</defs>
</svg>
