<svg width="16" height="17" viewBox="0 0 16 17" fill="none" xmlns="http://www.w3.org/2000/svg">
<path d="M8 1.95756C9.16 1.95756 10.1 2.9067 10.1 4.07799C10.1 5.24928 9.16 6.19843 8 6.19843C6.84 6.19843 5.9 5.24928 5.9 4.07799C5.9 2.9067 6.84 1.95756 8 1.95756ZM8 11.0451C10.97 11.0451 14.1 12.5194 14.1 13.1656V14.2763H1.9V13.1656C1.9 12.5194 5.03 11.0451 8 11.0451ZM8 0.0390625C5.79 0.0390625 4 1.84648 4 4.07799C4 6.3095 5.79 8.11693 8 8.11693C10.21 8.11693 12 6.3095 12 4.07799C12 1.84648 10.21 0.0390625 8 0.0390625ZM8 9.12666C5.33 9.12666 0 10.4797 0 13.1656V16.1948H16V13.1656C16 10.4797 10.67 9.12666 8 9.12666Z" fill="url(#paint0_linear_2254_84)"/>
<defs>
<linearGradient id="paint0_linear_2254_84" x1="-6.93983" y1="8.10387" x2="19.6569" y2="8.04305" gradientUnits="userSpaceOnUse">
<stop offset="0.317708" stop-color="#E43425"/>
<stop offset="0.71875" stop-color="#441FD8"/>
<stop offset="1" stop-color="#0A26B8"/>
</linearGradient>
</defs>
</svg>
