<svg width="24" height="24" viewBox="0 0 24 24" fill="none" xmlns="http://www.w3.org/2000/svg">
<mask id="mask0_2531_292" style="mask-type:alpha" maskUnits="userSpaceOnUse" x="0" y="0" width="24" height="24">
<rect x="0.5" y="0.5" width="23" height="23" fill="#D9D9D9" stroke="url(#paint0_linear_2531_292)"/>
</mask>
<g mask="url(#mask0_2531_292)">
<path d="M5.5 17V17.5H6H18H18.5V17V4V3.5H18H6H5.5V4V17ZM6 18.5C5.5836 18.5 5.23939 18.3577 4.94043 18.0593C4.64222 17.7604 4.5 17.4163 4.5 17V4C4.5 3.58365 4.64226 3.23949 4.94055 2.94055C5.23949 2.64226 5.58365 2.5 6 2.5H18C18.4163 2.5 18.7605 2.64226 19.0595 2.94056C19.3577 3.23949 19.5 3.58365 19.5 4V17C19.5 17.4162 19.3578 17.7603 19.0597 18.0592C18.7607 18.3577 18.4164 18.5 18 18.5H6Z" fill="#001464" stroke="url(#paint1_linear_2531_292)"/>
<line x1="10" y1="19" x2="10" y2="22" stroke="url(#paint2_linear_2531_292)" stroke-width="2"/>
<line x1="14" y1="19" x2="14" y2="22" stroke="url(#paint3_linear_2531_292)" stroke-width="2"/>
</g>
<path d="M10.3125 8.58391L13.1866 10.5L10.3125 12.4161V8.58391Z" fill="#001464" stroke="url(#paint4_linear_2531_292)" stroke-width="0.625"/>
<defs>
<linearGradient id="paint0_linear_2531_292" x1="-10.4097" y1="11.9806" x2="29.4854" y2="11.8885" gradientUnits="userSpaceOnUse">
<stop offset="0.317708" stop-color="#E43425"/>
<stop offset="0.71875" stop-color="#441FD8"/>
<stop offset="1" stop-color="#0A26B8"/>
</linearGradient>
<linearGradient id="paint1_linear_2531_292" x1="-2.93983" y1="10.4863" x2="23.6569" y2="10.4285" gradientUnits="userSpaceOnUse">
<stop offset="0.317708" stop-color="#E43425"/>
<stop offset="0.71875" stop-color="#441FD8"/>
<stop offset="1" stop-color="#0A26B8"/>
</linearGradient>
<linearGradient id="paint2_linear_2531_292" x1="8.50081" y1="17.6988" x2="8.53535" y2="22.6855" gradientUnits="userSpaceOnUse">
<stop offset="0.317708" stop-color="#E43425"/>
<stop offset="0.71875" stop-color="#441FD8"/>
<stop offset="1" stop-color="#0A26B8"/>
</linearGradient>
<linearGradient id="paint3_linear_2531_292" x1="12.5008" y1="17.6988" x2="12.5354" y2="22.6855" gradientUnits="userSpaceOnUse">
<stop offset="0.317708" stop-color="#E43425"/>
<stop offset="0.71875" stop-color="#441FD8"/>
<stop offset="1" stop-color="#0A26B8"/>
</linearGradient>
<linearGradient id="paint4_linear_2531_292" x1="8.37348" y1="10.496" x2="14.6071" y2="10.4852" gradientUnits="userSpaceOnUse">
<stop offset="0.317708" stop-color="#E43425"/>
<stop offset="0.71875" stop-color="#441FD8"/>
<stop offset="1" stop-color="#0A26B8"/>
</linearGradient>
</defs>
</svg>
