<svg width="347" height="347" viewBox="0 0 347 347" fill="none" xmlns="http://www.w3.org/2000/svg">
<mask id="mask0_10761_725" style="mask-type:alpha" maskUnits="userSpaceOnUse" x="58" y="59" width="230" height="230">
<path fill-rule="evenodd" clip-rule="evenodd" d="M167.91 59.3613C231.018 56.5409 284.459 105.407 287.28 168.515C290.1 231.622 241.234 285.064 178.126 287.884C115.019 290.705 61.5772 241.839 58.7568 178.731C55.9364 115.623 104.803 62.1817 167.91 59.3613Z" fill="url(#paint0_linear_10761_725)"/>
</mask>
<g mask="url(#mask0_10761_725)">
<path fill-rule="evenodd" clip-rule="evenodd" d="M167.91 59.3613C231.018 56.5409 284.459 105.407 287.28 168.515C290.1 231.622 241.234 285.064 178.126 287.884C115.019 290.705 61.5772 241.839 58.7568 178.731C55.9364 115.623 104.803 62.1817 167.91 59.3613Z" fill="#769EFE"/>
<mask id="path-3-inside-1_10761_725" fill="white">
<path fill-rule="evenodd" clip-rule="evenodd" d="M58.0851 223.321C46.3087 157.198 70.7131 90.3889 120.093 47.4045C121.401 53.6245 122.73 63.2913 119.712 67.9924C115.054 75.2558 111.101 85.0189 122.754 100.968C134.406 116.917 131.878 120.625 130.189 134.617C128.489 148.613 127.679 147.067 138.342 161.553C148.991 176.03 150.748 191.279 145.948 196.298C141.145 201.305 128.889 203.556 121.859 205.014C114.829 206.471 108.029 224.661 99.6271 228.013C91.2257 231.365 67.6032 231.231 58.0851 223.321Z"/>
</mask>
<path fill-rule="evenodd" clip-rule="evenodd" d="M58.0851 223.321C46.3087 157.198 70.7131 90.3889 120.093 47.4045C121.401 53.6245 122.73 63.2913 119.712 67.9924C115.054 75.2558 111.101 85.0189 122.754 100.968C134.406 116.917 131.878 120.625 130.189 134.617C128.489 148.613 127.679 147.067 138.342 161.553C148.991 176.03 150.748 191.279 145.948 196.298C141.145 201.305 128.889 203.556 121.859 205.014C114.829 206.471 108.029 224.661 99.6271 228.013C91.2257 231.365 67.6032 231.231 58.0851 223.321Z" fill="#C5FB96" stroke="#001464" stroke-width="3.14176" mask="url(#path-3-inside-1_10761_725)"/>
<mask id="path-4-inside-2_10761_725" fill="white">
<path fill-rule="evenodd" clip-rule="evenodd" d="M274.52 236.298C268.61 247.379 261.592 257.812 253.592 267.429C253.128 267.462 252.699 267.473 252.337 267.462C245.692 267.294 178.001 263.202 178.419 258.36C178.838 253.518 184.883 246.753 192.85 235.504C200.817 224.255 198.501 191.659 205.191 185.072C211.881 178.486 221.735 185.386 224.99 196.568C228.244 207.739 228.481 212.759 235.94 209.08C243.398 205.401 262.564 207.694 262.248 214.627C262.056 218.809 268.994 228.929 274.52 236.298Z"/>
</mask>
<path fill-rule="evenodd" clip-rule="evenodd" d="M274.52 236.298C268.61 247.379 261.592 257.812 253.592 267.429C253.128 267.462 252.699 267.473 252.337 267.462C245.692 267.294 178.001 263.202 178.419 258.36C178.838 253.518 184.883 246.753 192.85 235.504C200.817 224.255 198.501 191.659 205.191 185.072C211.881 178.486 221.735 185.386 224.99 196.568C228.244 207.739 228.481 212.759 235.94 209.08C243.398 205.401 262.564 207.694 262.248 214.627C262.056 218.809 268.994 228.929 274.52 236.298Z" fill="#C5FB96"/>
<path d="M253.592 267.429L253.705 268.995L254.372 268.947L254.799 268.433L253.592 267.429ZM252.337 267.462L252.386 265.892L252.377 265.892L252.337 267.462ZM224.99 196.568L223.481 197.007L223.481 197.007L224.99 196.568ZM262.248 214.627L263.817 214.699L263.817 214.698L262.248 214.627ZM273.134 235.558C267.274 246.546 260.316 256.889 252.384 266.424L254.799 268.433C262.868 258.734 269.946 248.213 275.906 237.037L273.134 235.558ZM253.478 265.862C253.056 265.892 252.682 265.901 252.386 265.892L252.289 269.032C252.716 269.045 253.201 269.032 253.705 268.995L253.478 265.862ZM252.377 265.892C249.103 265.809 230.558 264.747 212.875 263.1C204.034 262.276 195.45 261.309 189.117 260.252C185.939 259.721 183.391 259.178 181.676 258.636C180.805 258.361 180.245 258.116 179.939 257.925C179.786 257.83 179.777 257.797 179.818 257.849C179.872 257.92 180.014 258.151 179.984 258.495L176.854 258.225C176.798 258.872 177.048 259.404 177.334 259.774C177.607 260.126 177.955 260.391 178.276 260.591C178.919 260.992 179.778 261.332 180.73 261.632C182.662 262.242 185.386 262.814 188.6 263.351C195.048 264.427 203.724 265.402 212.584 266.228C230.304 267.879 248.926 268.947 252.298 269.032L252.377 265.892ZM179.984 258.495C180.153 256.547 181.51 253.969 184.096 250.228C185.359 248.401 186.859 246.371 188.557 244.073C190.249 241.783 192.13 239.239 194.132 236.412L191.568 234.596C189.587 237.393 187.724 239.913 186.03 242.206C184.34 244.492 182.809 246.565 181.512 248.441C178.979 252.105 177.104 255.331 176.854 258.225L179.984 258.495ZM194.132 236.412C196.317 233.326 197.718 228.916 198.735 224.131C199.76 219.311 200.434 213.907 201.059 208.728C201.689 203.512 202.267 198.543 203.1 194.463C203.515 192.427 203.984 190.663 204.533 189.232C205.089 187.784 205.685 186.79 206.293 186.192L204.089 183.953C203.024 185.001 202.229 186.467 201.6 188.106C200.964 189.763 200.454 191.713 200.021 193.835C199.158 198.07 198.563 203.189 197.94 208.351C197.312 213.55 196.653 218.816 195.662 223.478C194.664 228.174 193.367 232.057 191.568 234.596L194.132 236.412ZM206.293 186.192C207.715 184.792 209.231 184.168 210.735 184.086C212.261 184.003 213.907 184.472 215.55 185.492C218.86 187.545 221.938 191.704 223.481 197.007L226.498 196.129C224.787 190.249 221.31 185.368 217.206 182.822C215.143 181.542 212.867 180.823 210.563 180.949C208.236 181.076 206.012 182.06 204.089 183.953L206.293 186.192ZM223.481 197.007C224.266 199.699 224.933 202.252 225.52 204.205C226.117 206.191 226.736 207.94 227.564 209.238C228.436 210.604 229.636 211.612 231.362 211.809C232.944 211.989 234.696 211.446 236.635 210.489L235.245 207.672C233.455 208.555 232.38 208.763 231.718 208.687C231.2 208.628 230.739 208.374 230.213 207.548C229.642 206.654 229.125 205.283 228.529 203.301C227.923 201.285 227.341 199.022 226.498 196.128L223.481 197.007ZM236.635 210.489C238.241 209.697 240.609 209.175 243.349 208.987C246.064 208.802 249.023 208.953 251.743 209.422C254.483 209.894 256.869 210.67 258.506 211.661C260.17 212.67 260.719 213.668 260.679 214.555L263.817 214.698C263.935 212.119 262.207 210.23 260.134 208.974C258.032 207.701 255.221 206.834 252.276 206.326C249.312 205.815 246.101 205.65 243.134 205.853C240.193 206.054 237.368 206.624 235.245 207.672L236.635 210.489ZM260.679 214.555C260.613 215.976 261.137 217.67 261.864 219.361C262.614 221.106 263.676 223.061 264.895 225.08C267.337 229.119 270.489 233.54 273.264 237.24L275.777 235.355C273.026 231.686 269.946 227.362 267.584 223.455C266.402 221.499 265.421 219.68 264.751 218.121C264.058 216.508 263.786 215.369 263.817 214.699L260.679 214.555Z" fill="#001464" mask="url(#path-4-inside-2_10761_725)"/>
<mask id="path-6-inside-3_10761_725" fill="white">
<path fill-rule="evenodd" clip-rule="evenodd" d="M200.429 50.0742C239.593 72.5178 270.991 104.919 292.369 142.912C274.883 144.445 256.151 149.43 252.112 152.214C245.344 156.866 217.77 145.211 221.38 125.374C224.991 105.537 194.7 95.9803 202.237 80.0458C209.775 64.1113 200.666 67.2987 197.464 58.3116C196.048 54.318 197.872 51.7338 200.429 50.0742Z"/>
</mask>
<path fill-rule="evenodd" clip-rule="evenodd" d="M200.429 50.0742C239.593 72.5178 270.991 104.919 292.369 142.912C274.883 144.445 256.151 149.43 252.112 152.214C245.344 156.866 217.77 145.211 221.38 125.374C224.991 105.537 194.7 95.9803 202.237 80.0458C209.775 64.1113 200.666 67.2987 197.464 58.3116C196.048 54.318 197.872 51.7338 200.429 50.0742Z" fill="#C5FB96"/>
<path d="M292.369 142.912L292.507 144.477L294.933 144.264L293.739 142.142L292.369 142.912ZM252.112 152.214L253.002 153.508L253.004 153.507L252.112 152.214ZM197.464 58.3116L195.984 58.8366L195.984 58.8388L197.464 58.3116ZM199.648 51.4372C238.559 73.7358 269.757 105.929 291 143.682L293.739 142.142C272.225 103.908 240.626 71.2997 201.21 48.7113L199.648 51.4372ZM292.232 141.347C283.399 142.122 274.266 143.766 266.828 145.567C263.108 146.468 259.795 147.413 257.142 148.314C254.54 149.198 252.427 150.089 251.221 150.92L253.004 153.507C253.817 152.947 255.559 152.17 258.153 151.289C260.694 150.425 263.914 149.506 267.568 148.621C274.877 146.851 283.853 145.236 292.507 144.477L292.232 141.347ZM251.222 150.919C250.694 151.282 249.835 151.564 248.602 151.642C247.386 151.719 245.916 151.589 244.278 151.236C241.001 150.532 237.212 148.972 233.72 146.667C226.691 142.026 221.281 134.693 222.926 125.656L219.835 125.093C217.869 135.893 224.441 144.305 231.989 149.288C235.785 151.795 239.933 153.516 243.617 154.308C245.459 154.704 247.226 154.877 248.799 154.778C250.355 154.68 251.838 154.308 253.002 153.508L251.222 150.919ZM222.926 125.656C224.893 114.851 217.555 106.914 211.504 100.195C208.375 96.7218 205.571 93.5772 203.961 90.3586C202.406 87.2482 202.021 84.1771 203.657 80.7176L200.817 79.3741C198.685 83.8818 199.26 87.9807 201.151 91.7637C202.989 95.4386 206.118 98.9107 209.169 102.298C215.476 109.3 221.479 116.061 219.835 125.093L222.926 125.656ZM203.657 80.7176C205.571 76.6728 206.511 73.6776 206.688 71.3087C206.873 68.8385 206.225 67.0879 205.136 65.6321C204.621 64.9443 204.026 64.3459 203.454 63.8C202.854 63.2277 202.313 62.7422 201.744 62.1602C200.662 61.0524 199.646 59.7541 198.944 57.7843L195.984 58.8388C196.884 61.3626 198.207 63.0361 199.497 64.3562C200.115 64.9882 200.769 65.5807 201.284 66.0727C201.828 66.5912 202.268 67.0434 202.621 67.5148C203.266 68.3774 203.682 69.3793 203.555 71.074C203.421 72.8698 202.673 75.4516 200.817 79.3741L203.657 80.7176ZM198.945 57.7865C198.352 56.1162 198.478 54.8916 198.893 53.9534C199.327 52.9732 200.159 52.1218 201.284 51.3919L199.574 48.7566C198.141 49.6862 196.783 50.9568 196.02 52.682C195.238 54.4491 195.16 56.5134 195.984 58.8366L198.945 57.7865Z" fill="#001464" mask="url(#path-6-inside-3_10761_725)"/>
<mask id="path-8-inside-4_10761_725" fill="white">
<path fill-rule="evenodd" clip-rule="evenodd" d="M167.91 59.3613C231.018 56.5409 284.459 105.407 287.28 168.515C290.1 231.622 241.234 285.064 178.126 287.884C115.019 290.705 61.5772 241.839 58.7568 178.731C55.9364 115.623 104.803 62.1817 167.91 59.3613Z"/>
</mask>
<path fill-rule="evenodd" clip-rule="evenodd" d="M167.91 59.3613C231.018 56.5409 284.459 105.407 287.28 168.515C290.1 231.622 241.234 285.064 178.126 287.884C115.019 290.705 61.5772 241.839 58.7568 178.731C55.9364 115.623 104.803 62.1817 167.91 59.3613Z" stroke="#001464" stroke-width="3.14176" mask="url(#path-8-inside-4_10761_725)"/>
</g>
<rect x="157.641" y="1" width="31.3116" height="55.2745" rx="2.55605" fill="white" stroke="#001464" stroke-width="1.49103"/>
<rect x="165.171" y="56.4039" width="16.218" height="3.18567" fill="#001464"/>
<mask id="mask1_10761_725" style="mask-type:alpha" maskUnits="userSpaceOnUse" x="162" y="18" width="22" height="22">
<rect x="163.602" y="18.8926" width="19.3833" height="19.3833" fill="#D9D9D9" stroke="#001464" stroke-width="1.49103"/>
</mask>
<g mask="url(#mask1_10761_725)">
<mask id="path-12-outside-5_10761_725" maskUnits="userSpaceOnUse" x="163.838" y="19.1291" width="19" height="19" fill="black">
<rect fill="white" x="163.838" y="19.1291" width="19" height="19"/>
<path d="M172.623 33.8028H173.927V32.871C174.548 32.7591 175.083 32.5168 175.53 32.1441C175.977 31.7713 176.201 31.2184 176.201 30.4853C176.201 29.9635 176.052 29.4851 175.754 29.0502C175.455 28.6153 174.859 28.2363 173.964 27.9133C173.219 27.6648 172.703 27.4473 172.418 27.261C172.132 27.0746 171.989 26.8199 171.989 26.4968C171.989 26.1738 172.104 25.919 172.334 25.7327C172.564 25.5463 172.896 25.4531 173.331 25.4531C173.728 25.4531 174.039 25.5494 174.263 25.742C174.486 25.9346 174.648 26.1738 174.747 26.4595L175.94 25.975C175.803 25.5401 175.552 25.1611 175.185 24.838C174.819 24.515 174.412 24.3348 173.964 24.2976V23.3657H172.66V24.2976C172.039 24.4342 171.554 24.7076 171.206 25.1176C170.858 25.5276 170.684 25.9874 170.684 26.4968C170.684 27.0808 170.855 27.553 171.197 27.9133C171.538 28.2736 172.076 28.5843 172.809 28.8452C173.592 29.131 174.135 29.3857 174.44 29.6093C174.744 29.833 174.896 30.125 174.896 30.4853C174.896 30.8953 174.75 31.1967 174.458 31.3892C174.166 31.5818 173.815 31.6781 173.405 31.6781C172.995 31.6781 172.632 31.5508 172.315 31.2961C171.998 31.0413 171.765 30.6593 171.616 30.1498L170.386 30.6344C170.56 31.2308 170.83 31.7123 171.197 32.0788C171.563 32.4454 172.039 32.697 172.623 32.8337V33.8028ZM173.294 36.0394C172.262 36.0394 171.293 35.8437 170.386 35.4523C169.479 35.0609 168.69 34.5297 168.019 33.8588C167.348 33.1878 166.817 32.3988 166.425 31.4918C166.034 30.5847 165.838 29.6155 165.838 28.5843C165.838 27.553 166.034 26.5838 166.425 25.6768C166.817 24.7697 167.348 23.9807 168.019 23.3097C168.69 22.6388 169.479 22.1076 170.386 21.7162C171.293 21.3248 172.262 21.1291 173.294 21.1291C174.325 21.1291 175.294 21.3248 176.201 21.7162C177.108 22.1076 177.897 22.6388 178.568 23.3097C179.239 23.9807 179.77 24.7697 180.162 25.6768C180.553 26.5838 180.749 27.553 180.749 28.5843C180.749 29.6155 180.553 30.5847 180.162 31.4918C179.77 32.3988 179.239 33.1878 178.568 33.8588C177.897 34.5297 177.108 35.0609 176.201 35.4523C175.294 35.8437 174.325 36.0394 173.294 36.0394Z"/>
</mask>
<path d="M172.623 33.8028H173.927V32.871C174.548 32.7591 175.083 32.5168 175.53 32.1441C175.977 31.7713 176.201 31.2184 176.201 30.4853C176.201 29.9635 176.052 29.4851 175.754 29.0502C175.455 28.6153 174.859 28.2363 173.964 27.9133C173.219 27.6648 172.703 27.4473 172.418 27.261C172.132 27.0746 171.989 26.8199 171.989 26.4968C171.989 26.1738 172.104 25.919 172.334 25.7327C172.564 25.5463 172.896 25.4531 173.331 25.4531C173.728 25.4531 174.039 25.5494 174.263 25.742C174.486 25.9346 174.648 26.1738 174.747 26.4595L175.94 25.975C175.803 25.5401 175.552 25.1611 175.185 24.838C174.819 24.515 174.412 24.3348 173.964 24.2976V23.3657H172.66V24.2976C172.039 24.4342 171.554 24.7076 171.206 25.1176C170.858 25.5276 170.684 25.9874 170.684 26.4968C170.684 27.0808 170.855 27.553 171.197 27.9133C171.538 28.2736 172.076 28.5843 172.809 28.8452C173.592 29.131 174.135 29.3857 174.44 29.6093C174.744 29.833 174.896 30.125 174.896 30.4853C174.896 30.8953 174.75 31.1967 174.458 31.3892C174.166 31.5818 173.815 31.6781 173.405 31.6781C172.995 31.6781 172.632 31.5508 172.315 31.2961C171.998 31.0413 171.765 30.6593 171.616 30.1498L170.386 30.6344C170.56 31.2308 170.83 31.7123 171.197 32.0788C171.563 32.4454 172.039 32.697 172.623 32.8337V33.8028ZM173.294 36.0394C172.262 36.0394 171.293 35.8437 170.386 35.4523C169.479 35.0609 168.69 34.5297 168.019 33.8588C167.348 33.1878 166.817 32.3988 166.425 31.4918C166.034 30.5847 165.838 29.6155 165.838 28.5843C165.838 27.553 166.034 26.5838 166.425 25.6768C166.817 24.7697 167.348 23.9807 168.019 23.3097C168.69 22.6388 169.479 22.1076 170.386 21.7162C171.293 21.3248 172.262 21.1291 173.294 21.1291C174.325 21.1291 175.294 21.3248 176.201 21.7162C177.108 22.1076 177.897 22.6388 178.568 23.3097C179.239 23.9807 179.77 24.7697 180.162 25.6768C180.553 26.5838 180.749 27.553 180.749 28.5843C180.749 29.6155 180.553 30.5847 180.162 31.4918C179.77 32.3988 179.239 33.1878 178.568 33.8588C177.897 34.5297 177.108 35.0609 176.201 35.4523C175.294 35.8437 174.325 36.0394 173.294 36.0394Z" fill="#18D4A7"/>
<path d="M172.623 33.8028H173.927V32.871C174.548 32.7591 175.083 32.5168 175.53 32.1441C175.977 31.7713 176.201 31.2184 176.201 30.4853C176.201 29.9635 176.052 29.4851 175.754 29.0502C175.455 28.6153 174.859 28.2363 173.964 27.9133C173.219 27.6648 172.703 27.4473 172.418 27.261C172.132 27.0746 171.989 26.8199 171.989 26.4968C171.989 26.1738 172.104 25.919 172.334 25.7327C172.564 25.5463 172.896 25.4531 173.331 25.4531C173.728 25.4531 174.039 25.5494 174.263 25.742C174.486 25.9346 174.648 26.1738 174.747 26.4595L175.94 25.975C175.803 25.5401 175.552 25.1611 175.185 24.838C174.819 24.515 174.412 24.3348 173.964 24.2976V23.3657H172.66V24.2976C172.039 24.4342 171.554 24.7076 171.206 25.1176C170.858 25.5276 170.684 25.9874 170.684 26.4968C170.684 27.0808 170.855 27.553 171.197 27.9133C171.538 28.2736 172.076 28.5843 172.809 28.8452C173.592 29.131 174.135 29.3857 174.44 29.6093C174.744 29.833 174.896 30.125 174.896 30.4853C174.896 30.8953 174.75 31.1967 174.458 31.3892C174.166 31.5818 173.815 31.6781 173.405 31.6781C172.995 31.6781 172.632 31.5508 172.315 31.2961C171.998 31.0413 171.765 30.6593 171.616 30.1498L170.386 30.6344C170.56 31.2308 170.83 31.7123 171.197 32.0788C171.563 32.4454 172.039 32.697 172.623 32.8337V33.8028ZM173.294 36.0394C172.262 36.0394 171.293 35.8437 170.386 35.4523C169.479 35.0609 168.69 34.5297 168.019 33.8588C167.348 33.1878 166.817 32.3988 166.425 31.4918C166.034 30.5847 165.838 29.6155 165.838 28.5843C165.838 27.553 166.034 26.5838 166.425 25.6768C166.817 24.7697 167.348 23.9807 168.019 23.3097C168.69 22.6388 169.479 22.1076 170.386 21.7162C171.293 21.3248 172.262 21.1291 173.294 21.1291C174.325 21.1291 175.294 21.3248 176.201 21.7162C177.108 22.1076 177.897 22.6388 178.568 23.3097C179.239 23.9807 179.77 24.7697 180.162 25.6768C180.553 26.5838 180.749 27.553 180.749 28.5843C180.749 29.6155 180.553 30.5847 180.162 31.4918C179.77 32.3988 179.239 33.1878 178.568 33.8588C177.897 34.5297 177.108 35.0609 176.201 35.4523C175.294 35.8437 174.325 36.0394 173.294 36.0394Z" stroke="#001464" stroke-width="2.98205" mask="url(#path-12-outside-5_10761_725)"/>
</g>
<rect x="188.953" y="345.59" width="31.3116" height="55.2745" rx="2.55605" transform="rotate(-180 188.953 345.59)" fill="white" stroke="#001464" stroke-width="1.49103"/>
<rect x="181.422" y="290.186" width="16.218" height="3.18567" transform="rotate(-180 181.422 290.186)" fill="#001464"/>
<mask id="mask2_10761_725" style="mask-type:alpha" maskUnits="userSpaceOnUse" x="162" y="307" width="22" height="22">
<rect x="182.992" y="327.697" width="19.3833" height="19.3833" transform="rotate(-180 182.992 327.697)" fill="#D9D9D9" stroke="#001464" stroke-width="1.49103"/>
</mask>
<g mask="url(#mask2_10761_725)">
<mask id="path-16-outside-6_10761_725" maskUnits="userSpaceOnUse" x="163.755" y="308.461" width="19" height="19" fill="black">
<rect fill="white" x="163.755" y="308.461" width="19" height="19"/>
<path d="M173.971 312.787L172.667 312.787L172.667 313.719C172.045 313.831 171.511 314.073 171.064 314.446C170.616 314.819 170.393 315.371 170.393 316.105C170.393 316.626 170.542 317.105 170.84 317.54C171.138 317.975 171.735 318.353 172.629 318.677C173.375 318.925 173.89 319.142 174.176 319.329C174.462 319.515 174.605 319.77 174.605 320.093C174.605 320.416 174.49 320.671 174.26 320.857C174.03 321.044 173.698 321.137 173.263 321.137C172.865 321.137 172.555 321.04 172.331 320.848C172.107 320.655 171.946 320.416 171.846 320.13L170.654 320.615C170.79 321.05 171.042 321.429 171.408 321.752C171.775 322.075 172.182 322.255 172.629 322.292L172.629 323.224L173.934 323.224L173.934 322.292C174.555 322.156 175.04 321.882 175.388 321.472C175.736 321.062 175.91 320.602 175.91 320.093C175.91 319.509 175.739 319.037 175.397 318.677C175.055 318.316 174.518 318.006 173.785 317.745C173.002 317.459 172.458 317.204 172.154 316.981C171.85 316.757 171.697 316.465 171.697 316.105C171.697 315.695 171.843 315.393 172.135 315.201C172.427 315.008 172.778 314.912 173.188 314.912C173.598 314.912 173.962 315.039 174.279 315.294C174.596 315.549 174.829 315.931 174.978 316.44L176.208 315.955C176.034 315.359 175.764 314.878 175.397 314.511C175.03 314.144 174.555 313.893 173.971 313.756L173.971 312.787ZM173.3 310.55C174.332 310.55 175.301 310.746 176.208 311.138C177.115 311.529 177.904 312.06 178.575 312.731C179.246 313.402 179.777 314.191 180.168 315.098C180.56 316.005 180.755 316.974 180.755 318.006C180.755 319.037 180.56 320.006 180.168 320.913C179.777 321.82 179.246 322.609 178.575 323.28C177.904 323.951 177.115 324.482 176.208 324.874C175.301 325.265 174.332 325.461 173.3 325.461C172.269 325.461 171.3 325.265 170.393 324.874C169.486 324.482 168.697 323.951 168.026 323.28C167.355 322.609 166.824 321.82 166.432 320.913C166.041 320.006 165.845 319.037 165.845 318.006C165.845 316.974 166.041 316.005 166.432 315.098C166.824 314.191 167.355 313.402 168.026 312.731C168.697 312.06 169.486 311.529 170.393 311.138C171.3 310.746 172.269 310.55 173.3 310.55Z"/>
</mask>
<path d="M173.971 312.787L172.667 312.787L172.667 313.719C172.045 313.831 171.511 314.073 171.064 314.446C170.616 314.819 170.393 315.371 170.393 316.105C170.393 316.626 170.542 317.105 170.84 317.54C171.138 317.975 171.735 318.353 172.629 318.677C173.375 318.925 173.89 319.142 174.176 319.329C174.462 319.515 174.605 319.77 174.605 320.093C174.605 320.416 174.49 320.671 174.26 320.857C174.03 321.044 173.698 321.137 173.263 321.137C172.865 321.137 172.555 321.04 172.331 320.848C172.107 320.655 171.946 320.416 171.846 320.13L170.654 320.615C170.79 321.05 171.042 321.429 171.408 321.752C171.775 322.075 172.182 322.255 172.629 322.292L172.629 323.224L173.934 323.224L173.934 322.292C174.555 322.156 175.04 321.882 175.388 321.472C175.736 321.062 175.91 320.602 175.91 320.093C175.91 319.509 175.739 319.037 175.397 318.677C175.055 318.316 174.518 318.006 173.785 317.745C173.002 317.459 172.458 317.204 172.154 316.981C171.85 316.757 171.697 316.465 171.697 316.105C171.697 315.695 171.843 315.393 172.135 315.201C172.427 315.008 172.778 314.912 173.188 314.912C173.598 314.912 173.962 315.039 174.279 315.294C174.596 315.549 174.829 315.931 174.978 316.44L176.208 315.955C176.034 315.359 175.764 314.878 175.397 314.511C175.03 314.144 174.555 313.893 173.971 313.756L173.971 312.787ZM173.3 310.55C174.332 310.55 175.301 310.746 176.208 311.138C177.115 311.529 177.904 312.06 178.575 312.731C179.246 313.402 179.777 314.191 180.168 315.098C180.56 316.005 180.755 316.974 180.755 318.006C180.755 319.037 180.56 320.006 180.168 320.913C179.777 321.82 179.246 322.609 178.575 323.28C177.904 323.951 177.115 324.482 176.208 324.874C175.301 325.265 174.332 325.461 173.3 325.461C172.269 325.461 171.3 325.265 170.393 324.874C169.486 324.482 168.697 323.951 168.026 323.28C167.355 322.609 166.824 321.82 166.432 320.913C166.041 320.006 165.845 319.037 165.845 318.006C165.845 316.974 166.041 316.005 166.432 315.098C166.824 314.191 167.355 313.402 168.026 312.731C168.697 312.06 169.486 311.529 170.393 311.138C171.3 310.746 172.269 310.55 173.3 310.55Z" fill="#18D4A7"/>
<path d="M173.971 312.787L172.667 312.787L172.667 313.719C172.045 313.831 171.511 314.073 171.064 314.446C170.616 314.819 170.393 315.371 170.393 316.105C170.393 316.626 170.542 317.105 170.84 317.54C171.138 317.975 171.735 318.353 172.629 318.677C173.375 318.925 173.89 319.142 174.176 319.329C174.462 319.515 174.605 319.77 174.605 320.093C174.605 320.416 174.49 320.671 174.26 320.857C174.03 321.044 173.698 321.137 173.263 321.137C172.865 321.137 172.555 321.04 172.331 320.848C172.107 320.655 171.946 320.416 171.846 320.13L170.654 320.615C170.79 321.05 171.042 321.429 171.408 321.752C171.775 322.075 172.182 322.255 172.629 322.292L172.629 323.224L173.934 323.224L173.934 322.292C174.555 322.156 175.04 321.882 175.388 321.472C175.736 321.062 175.91 320.602 175.91 320.093C175.91 319.509 175.739 319.037 175.397 318.677C175.055 318.316 174.518 318.006 173.785 317.745C173.002 317.459 172.458 317.204 172.154 316.981C171.85 316.757 171.697 316.465 171.697 316.105C171.697 315.695 171.843 315.393 172.135 315.201C172.427 315.008 172.778 314.912 173.188 314.912C173.598 314.912 173.962 315.039 174.279 315.294C174.596 315.549 174.829 315.931 174.978 316.44L176.208 315.955C176.034 315.359 175.764 314.878 175.397 314.511C175.03 314.144 174.555 313.893 173.971 313.756L173.971 312.787ZM173.3 310.55C174.332 310.55 175.301 310.746 176.208 311.138C177.115 311.529 177.904 312.06 178.575 312.731C179.246 313.402 179.777 314.191 180.168 315.098C180.56 316.005 180.755 316.974 180.755 318.006C180.755 319.037 180.56 320.006 180.168 320.913C179.777 321.82 179.246 322.609 178.575 323.28C177.904 323.951 177.115 324.482 176.208 324.874C175.301 325.265 174.332 325.461 173.3 325.461C172.269 325.461 171.3 325.265 170.393 324.874C169.486 324.482 168.697 323.951 168.026 323.28C167.355 322.609 166.824 321.82 166.432 320.913C166.041 320.006 165.845 319.037 165.845 318.006C165.845 316.974 166.041 316.005 166.432 315.098C166.824 314.191 167.355 313.402 168.026 312.731C168.697 312.06 169.486 311.529 170.393 311.138C171.3 310.746 172.269 310.55 173.3 310.55Z" stroke="#001464" stroke-width="2.98205" mask="url(#path-16-outside-6_10761_725)"/>
</g>
<rect x="1" y="188.951" width="31.3116" height="55.2745" rx="2.55605" transform="rotate(-90 1 188.951)" fill="white" stroke="#001464" stroke-width="1.49103"/>
<rect x="56.4038" y="181.42" width="16.218" height="3.18567" transform="rotate(-90 56.4038 181.42)" fill="#001464"/>
<mask id="mask3_10761_725" style="mask-type:alpha" maskUnits="userSpaceOnUse" x="18" y="162" width="22" height="22">
<rect x="18.8927" y="182.99" width="19.3833" height="19.3833" transform="rotate(-90 18.8927 182.99)" fill="#D9D9D9" stroke="#001464" stroke-width="1.49103"/>
</mask>
<g mask="url(#mask3_10761_725)">
<mask id="path-20-outside-7_10761_725" maskUnits="userSpaceOnUse" x="19.1294" y="163.754" width="19" height="19" fill="black">
<rect fill="white" x="19.1294" y="163.754" width="19" height="19"/>
<path d="M33.8031 173.969L33.8031 172.665L32.8712 172.665C32.7594 172.044 32.5171 171.509 32.1444 171.062C31.7716 170.615 31.2187 170.391 30.4856 170.391C29.9637 170.391 29.4854 170.54 29.0505 170.838C28.6156 171.137 28.2366 171.733 27.9136 172.628C27.6651 173.373 27.4476 173.889 27.2612 174.174C27.0749 174.46 26.8201 174.603 26.4971 174.603C26.174 174.603 25.9193 174.488 25.7329 174.258C25.5466 174.028 25.4534 173.696 25.4534 173.261C25.4534 172.864 25.5497 172.553 25.7423 172.329C25.9348 172.106 26.174 171.944 26.4598 171.845L25.9752 170.652C25.5403 170.789 25.1614 171.04 24.8383 171.407C24.5153 171.773 24.3351 172.18 24.2978 172.628L23.3659 172.628L23.3659 173.932L24.2978 173.932C24.4345 174.553 24.7079 175.038 25.1179 175.386C25.5279 175.734 25.9877 175.908 26.4971 175.908C27.0811 175.908 27.5532 175.737 27.9136 175.395C28.2739 175.054 28.5845 174.516 28.8455 173.783C29.1312 173 29.386 172.457 29.6096 172.152C29.8333 171.848 30.1253 171.696 30.4856 171.696C30.8956 171.696 31.1969 171.842 31.3895 172.134C31.5821 172.426 31.6784 172.777 31.6784 173.187C31.6784 173.597 31.551 173.96 31.2963 174.277C31.0416 174.594 30.6595 174.827 30.1501 174.976L30.6347 176.206C31.2311 176.032 31.7126 175.762 32.0791 175.395C32.4457 175.029 32.6973 174.553 32.834 173.969L33.8031 173.969ZM36.0397 173.298C36.0397 174.33 35.844 175.299 35.4526 176.206C35.0612 177.113 34.53 177.902 33.859 178.573C33.1881 179.244 32.3991 179.775 31.492 180.167C30.585 180.558 29.6158 180.754 28.5845 180.754C27.5532 180.754 26.5841 180.558 25.677 180.167C24.77 179.775 23.981 179.244 23.31 178.573C22.6391 177.902 22.1079 177.113 21.7165 176.206C21.3251 175.299 21.1294 174.33 21.1294 173.298C21.1294 172.267 21.3251 171.298 21.7165 170.391C22.1079 169.484 22.6391 168.695 23.31 168.024C23.981 167.353 24.77 166.822 25.677 166.43C26.5841 166.039 27.5532 165.843 28.5845 165.843C29.6158 165.843 30.585 166.039 31.492 166.43C32.3991 166.822 33.1881 167.353 33.859 168.024C34.53 168.695 35.0612 169.484 35.4526 170.391C35.844 171.298 36.0397 172.267 36.0397 173.298Z"/>
</mask>
<path d="M33.8031 173.969L33.8031 172.665L32.8712 172.665C32.7594 172.044 32.5171 171.509 32.1444 171.062C31.7716 170.615 31.2187 170.391 30.4856 170.391C29.9637 170.391 29.4854 170.54 29.0505 170.838C28.6156 171.137 28.2366 171.733 27.9136 172.628C27.6651 173.373 27.4476 173.889 27.2612 174.174C27.0749 174.46 26.8201 174.603 26.4971 174.603C26.174 174.603 25.9193 174.488 25.7329 174.258C25.5466 174.028 25.4534 173.696 25.4534 173.261C25.4534 172.864 25.5497 172.553 25.7423 172.329C25.9348 172.106 26.174 171.944 26.4598 171.845L25.9752 170.652C25.5403 170.789 25.1614 171.04 24.8383 171.407C24.5153 171.773 24.3351 172.18 24.2978 172.628L23.3659 172.628L23.3659 173.932L24.2978 173.932C24.4345 174.553 24.7079 175.038 25.1179 175.386C25.5279 175.734 25.9877 175.908 26.4971 175.908C27.0811 175.908 27.5532 175.737 27.9136 175.395C28.2739 175.054 28.5845 174.516 28.8455 173.783C29.1312 173 29.386 172.457 29.6096 172.152C29.8333 171.848 30.1253 171.696 30.4856 171.696C30.8956 171.696 31.1969 171.842 31.3895 172.134C31.5821 172.426 31.6784 172.777 31.6784 173.187C31.6784 173.597 31.551 173.96 31.2963 174.277C31.0416 174.594 30.6595 174.827 30.1501 174.976L30.6347 176.206C31.2311 176.032 31.7126 175.762 32.0791 175.395C32.4457 175.029 32.6973 174.553 32.834 173.969L33.8031 173.969ZM36.0397 173.298C36.0397 174.33 35.844 175.299 35.4526 176.206C35.0612 177.113 34.53 177.902 33.859 178.573C33.1881 179.244 32.3991 179.775 31.492 180.167C30.585 180.558 29.6158 180.754 28.5845 180.754C27.5532 180.754 26.5841 180.558 25.677 180.167C24.77 179.775 23.981 179.244 23.31 178.573C22.6391 177.902 22.1079 177.113 21.7165 176.206C21.3251 175.299 21.1294 174.33 21.1294 173.298C21.1294 172.267 21.3251 171.298 21.7165 170.391C22.1079 169.484 22.6391 168.695 23.31 168.024C23.981 167.353 24.77 166.822 25.677 166.43C26.5841 166.039 27.5532 165.843 28.5845 165.843C29.6158 165.843 30.585 166.039 31.492 166.43C32.3991 166.822 33.1881 167.353 33.859 168.024C34.53 168.695 35.0612 169.484 35.4526 170.391C35.844 171.298 36.0397 172.267 36.0397 173.298Z" fill="#18D4A7"/>
<path d="M33.8031 173.969L33.8031 172.665L32.8712 172.665C32.7594 172.044 32.5171 171.509 32.1444 171.062C31.7716 170.615 31.2187 170.391 30.4856 170.391C29.9637 170.391 29.4854 170.54 29.0505 170.838C28.6156 171.137 28.2366 171.733 27.9136 172.628C27.6651 173.373 27.4476 173.889 27.2612 174.174C27.0749 174.46 26.8201 174.603 26.4971 174.603C26.174 174.603 25.9193 174.488 25.7329 174.258C25.5466 174.028 25.4534 173.696 25.4534 173.261C25.4534 172.864 25.5497 172.553 25.7423 172.329C25.9348 172.106 26.174 171.944 26.4598 171.845L25.9752 170.652C25.5403 170.789 25.1614 171.04 24.8383 171.407C24.5153 171.773 24.3351 172.18 24.2978 172.628L23.3659 172.628L23.3659 173.932L24.2978 173.932C24.4345 174.553 24.7079 175.038 25.1179 175.386C25.5279 175.734 25.9877 175.908 26.4971 175.908C27.0811 175.908 27.5532 175.737 27.9136 175.395C28.2739 175.054 28.5845 174.516 28.8455 173.783C29.1312 173 29.386 172.457 29.6096 172.152C29.8333 171.848 30.1253 171.696 30.4856 171.696C30.8956 171.696 31.1969 171.842 31.3895 172.134C31.5821 172.426 31.6784 172.777 31.6784 173.187C31.6784 173.597 31.551 173.96 31.2963 174.277C31.0416 174.594 30.6595 174.827 30.1501 174.976L30.6347 176.206C31.2311 176.032 31.7126 175.762 32.0791 175.395C32.4457 175.029 32.6973 174.553 32.834 173.969L33.8031 173.969ZM36.0397 173.298C36.0397 174.33 35.844 175.299 35.4526 176.206C35.0612 177.113 34.53 177.902 33.859 178.573C33.1881 179.244 32.3991 179.775 31.492 180.167C30.585 180.558 29.6158 180.754 28.5845 180.754C27.5532 180.754 26.5841 180.558 25.677 180.167C24.77 179.775 23.981 179.244 23.31 178.573C22.6391 177.902 22.1079 177.113 21.7165 176.206C21.3251 175.299 21.1294 174.33 21.1294 173.298C21.1294 172.267 21.3251 171.298 21.7165 170.391C22.1079 169.484 22.6391 168.695 23.31 168.024C23.981 167.353 24.77 166.822 25.677 166.43C26.5841 166.039 27.5532 165.843 28.5845 165.843C29.6158 165.843 30.585 166.039 31.492 166.43C32.3991 166.822 33.1881 167.353 33.859 168.024C34.53 168.695 35.0612 169.484 35.4526 170.391C35.844 171.298 36.0397 172.267 36.0397 173.298Z" stroke="#001464" stroke-width="2.98205" mask="url(#path-20-outside-7_10761_725)"/>
</g>
<rect x="345.594" y="157.639" width="31.3116" height="55.2745" rx="2.55605" transform="rotate(90 345.594 157.639)" fill="white" stroke="#001464" stroke-width="1.49103"/>
<rect x="290.19" y="165.17" width="16.218" height="3.18567" transform="rotate(90 290.19 165.17)" fill="#001464"/>
<mask id="mask4_10761_725" style="mask-type:alpha" maskUnits="userSpaceOnUse" x="307" y="162" width="22" height="22">
<rect x="327.701" y="163.6" width="19.3833" height="19.3833" transform="rotate(90 327.701 163.6)" fill="#D9D9D9" stroke="#001464" stroke-width="1.49103"/>
</mask>
<g mask="url(#mask4_10761_725)">
<mask id="path-24-outside-8_10761_725" maskUnits="userSpaceOnUse" x="308.464" y="163.836" width="19" height="19" fill="black">
<rect fill="white" x="308.464" y="163.836" width="19" height="19"/>
<path d="M312.791 172.62L312.791 173.925L313.723 173.925C313.834 174.546 314.077 175.081 314.449 175.528C314.822 175.975 315.375 176.199 316.108 176.199C316.63 176.199 317.108 176.05 317.543 175.752C317.978 175.453 318.357 174.857 318.68 173.962C318.929 173.217 319.146 172.701 319.333 172.415C319.519 172.13 319.774 171.987 320.097 171.987C320.42 171.987 320.674 172.102 320.861 172.331C321.047 172.561 321.14 172.894 321.14 173.329C321.14 173.726 321.044 174.037 320.851 174.261C320.659 174.484 320.42 174.646 320.134 174.745L320.619 175.938C321.053 175.801 321.432 175.55 321.755 175.183C322.078 174.817 322.259 174.41 322.296 173.962L323.228 173.962L323.228 172.658L322.296 172.658C322.159 172.036 321.886 171.552 321.476 171.204C321.066 170.856 320.606 170.682 320.097 170.682C319.513 170.682 319.041 170.853 318.68 171.195C318.32 171.536 318.009 172.074 317.748 172.807C317.463 173.59 317.208 174.133 316.984 174.438C316.76 174.742 316.468 174.894 316.108 174.894C315.698 174.894 315.397 174.748 315.204 174.456C315.012 174.164 314.915 173.813 314.915 173.403C314.915 172.993 315.043 172.63 315.297 172.313C315.552 171.996 315.934 171.763 316.444 171.614L315.959 170.384C315.363 170.558 314.881 170.828 314.515 171.195C314.148 171.561 313.896 172.036 313.76 172.62L312.791 172.62ZM310.554 173.291C310.554 172.26 310.75 171.291 311.141 170.384C311.533 169.477 312.064 168.688 312.735 168.017C313.406 167.346 314.195 166.815 315.102 166.423C316.009 166.032 316.978 165.836 318.009 165.836C319.041 165.836 320.01 166.032 320.917 166.423C321.824 166.815 322.613 167.346 323.284 168.017C323.955 168.688 324.486 169.477 324.877 170.384C325.269 171.291 325.464 172.26 325.464 173.291C325.464 174.323 325.269 175.292 324.877 176.199C324.486 177.106 323.955 177.895 323.284 178.566C322.613 179.237 321.824 179.768 320.917 180.159C320.01 180.551 319.041 180.746 318.009 180.746C316.978 180.746 316.009 180.551 315.102 180.159C314.195 179.768 313.406 179.237 312.735 178.566C312.064 177.895 311.533 177.106 311.141 176.199C310.75 175.292 310.554 174.323 310.554 173.291Z"/>
</mask>
<path d="M312.791 172.62L312.791 173.925L313.723 173.925C313.834 174.546 314.077 175.081 314.449 175.528C314.822 175.975 315.375 176.199 316.108 176.199C316.63 176.199 317.108 176.05 317.543 175.752C317.978 175.453 318.357 174.857 318.68 173.962C318.929 173.217 319.146 172.701 319.333 172.415C319.519 172.13 319.774 171.987 320.097 171.987C320.42 171.987 320.674 172.102 320.861 172.331C321.047 172.561 321.14 172.894 321.14 173.329C321.14 173.726 321.044 174.037 320.851 174.261C320.659 174.484 320.42 174.646 320.134 174.745L320.619 175.938C321.053 175.801 321.432 175.55 321.755 175.183C322.078 174.817 322.259 174.41 322.296 173.962L323.228 173.962L323.228 172.658L322.296 172.658C322.159 172.036 321.886 171.552 321.476 171.204C321.066 170.856 320.606 170.682 320.097 170.682C319.513 170.682 319.041 170.853 318.68 171.195C318.32 171.536 318.009 172.074 317.748 172.807C317.463 173.59 317.208 174.133 316.984 174.438C316.76 174.742 316.468 174.894 316.108 174.894C315.698 174.894 315.397 174.748 315.204 174.456C315.012 174.164 314.915 173.813 314.915 173.403C314.915 172.993 315.043 172.63 315.297 172.313C315.552 171.996 315.934 171.763 316.444 171.614L315.959 170.384C315.363 170.558 314.881 170.828 314.515 171.195C314.148 171.561 313.896 172.036 313.76 172.62L312.791 172.62ZM310.554 173.291C310.554 172.26 310.75 171.291 311.141 170.384C311.533 169.477 312.064 168.688 312.735 168.017C313.406 167.346 314.195 166.815 315.102 166.423C316.009 166.032 316.978 165.836 318.009 165.836C319.041 165.836 320.01 166.032 320.917 166.423C321.824 166.815 322.613 167.346 323.284 168.017C323.955 168.688 324.486 169.477 324.877 170.384C325.269 171.291 325.464 172.26 325.464 173.291C325.464 174.323 325.269 175.292 324.877 176.199C324.486 177.106 323.955 177.895 323.284 178.566C322.613 179.237 321.824 179.768 320.917 180.159C320.01 180.551 319.041 180.746 318.009 180.746C316.978 180.746 316.009 180.551 315.102 180.159C314.195 179.768 313.406 179.237 312.735 178.566C312.064 177.895 311.533 177.106 311.141 176.199C310.75 175.292 310.554 174.323 310.554 173.291Z" fill="#18D4A7"/>
<path d="M312.791 172.62L312.791 173.925L313.723 173.925C313.834 174.546 314.077 175.081 314.449 175.528C314.822 175.975 315.375 176.199 316.108 176.199C316.63 176.199 317.108 176.05 317.543 175.752C317.978 175.453 318.357 174.857 318.68 173.962C318.929 173.217 319.146 172.701 319.333 172.415C319.519 172.13 319.774 171.987 320.097 171.987C320.42 171.987 320.674 172.102 320.861 172.331C321.047 172.561 321.14 172.894 321.14 173.329C321.14 173.726 321.044 174.037 320.851 174.261C320.659 174.484 320.42 174.646 320.134 174.745L320.619 175.938C321.053 175.801 321.432 175.55 321.755 175.183C322.078 174.817 322.259 174.41 322.296 173.962L323.228 173.962L323.228 172.658L322.296 172.658C322.159 172.036 321.886 171.552 321.476 171.204C321.066 170.856 320.606 170.682 320.097 170.682C319.513 170.682 319.041 170.853 318.68 171.195C318.32 171.536 318.009 172.074 317.748 172.807C317.463 173.59 317.208 174.133 316.984 174.438C316.76 174.742 316.468 174.894 316.108 174.894C315.698 174.894 315.397 174.748 315.204 174.456C315.012 174.164 314.915 173.813 314.915 173.403C314.915 172.993 315.043 172.63 315.297 172.313C315.552 171.996 315.934 171.763 316.444 171.614L315.959 170.384C315.363 170.558 314.881 170.828 314.515 171.195C314.148 171.561 313.896 172.036 313.76 172.62L312.791 172.62ZM310.554 173.291C310.554 172.26 310.75 171.291 311.141 170.384C311.533 169.477 312.064 168.688 312.735 168.017C313.406 167.346 314.195 166.815 315.102 166.423C316.009 166.032 316.978 165.836 318.009 165.836C319.041 165.836 320.01 166.032 320.917 166.423C321.824 166.815 322.613 167.346 323.284 168.017C323.955 168.688 324.486 169.477 324.877 170.384C325.269 171.291 325.464 172.26 325.464 173.291C325.464 174.323 325.269 175.292 324.877 176.199C324.486 177.106 323.955 177.895 323.284 178.566C322.613 179.237 321.824 179.768 320.917 180.159C320.01 180.551 319.041 180.746 318.009 180.746C316.978 180.746 316.009 180.551 315.102 180.159C314.195 179.768 313.406 179.237 312.735 178.566C312.064 177.895 311.533 177.106 311.141 176.199C310.75 175.292 310.554 174.323 310.554 173.291Z" stroke="#001464" stroke-width="2.98205" mask="url(#path-24-outside-8_10761_725)"/>
</g>
<rect x="16.2539" y="100.705" width="31.3116" height="55.2745" rx="2.55605" transform="rotate(-60 16.2539 100.705)" fill="white" stroke="#001464" stroke-width="1.49103"/>
<rect x="68.0005" y="121.885" width="16.218" height="3.18567" transform="rotate(-60 68.0005 121.885)" fill="#001464"/>
<mask id="mask5_10761_725" style="mask-type:alpha" maskUnits="userSpaceOnUse" x="33" y="86" width="30" height="30">
<rect x="34.7297" y="104.489" width="19.3833" height="19.3833" transform="rotate(-60 34.7297 104.489)" fill="#D9D9D9" stroke="#001464" stroke-width="1.49103"/>
</mask>
<g mask="url(#mask5_10761_725)">
<mask id="path-28-outside-9_10761_725" maskUnits="userSpaceOnUse" x="35.0526" y="87.9479" width="25.9545" height="25.9545" fill="black">
<rect fill="white" x="35.0526" y="87.9479" width="25.9545" height="25.9545"/>
<path d="M52.1525 104.132L52.8048 103.002L51.9978 102.536C52.2116 101.942 52.2689 101.358 52.1697 100.785C52.0706 100.211 51.7036 99.7407 51.0687 99.3742C50.6167 99.1132 50.1279 99.0032 49.6022 99.044C49.0765 99.0848 48.4501 99.4118 47.723 100.025C47.135 100.546 46.6889 100.884 46.3846 101.039C46.0803 101.193 45.7882 101.189 45.5085 101.028C45.2287 100.866 45.0656 100.639 45.0191 100.347C44.9726 100.055 45.0581 99.7204 45.2755 99.3438C45.4743 98.9994 45.7131 98.7785 45.9917 98.6812C46.2703 98.5838 46.5582 98.5635 46.8554 98.6203L47.0321 97.345C46.5872 97.2459 46.1332 97.2743 45.6701 97.4302C45.2071 97.5861 44.8476 97.8484 44.5917 98.2172L43.7846 97.7512L43.1323 98.8811L43.9393 99.347C43.7471 99.9534 43.7415 100.51 43.9227 101.016C44.1038 101.522 44.415 101.903 44.8561 102.158C45.3619 102.45 45.8562 102.538 46.3391 102.422C46.822 102.306 47.3597 101.996 47.9522 101.492C48.5911 100.957 49.0835 100.613 49.4294 100.461C49.7753 100.31 50.1043 100.324 50.4164 100.504C50.7715 100.709 50.9594 100.986 50.9802 101.335C51.001 101.684 50.9089 102.037 50.7039 102.392C50.4988 102.747 50.2068 102.998 49.8278 103.145C49.4488 103.292 49.0014 103.303 48.4857 103.177L48.2903 104.485C48.8938 104.632 49.4459 104.639 49.9466 104.505C50.4473 104.371 50.9028 104.085 51.3132 103.647L52.1525 104.132ZM54.4249 104.669C53.9093 105.562 53.2552 106.304 52.4627 106.894C51.6702 107.483 50.8157 107.901 49.8992 108.147C48.9826 108.392 48.0337 108.458 47.0525 108.343C46.0713 108.229 45.1341 107.914 44.241 107.398C43.3479 106.882 42.6064 106.228 42.0166 105.436C41.4268 104.643 41.009 103.789 40.7635 102.872C40.5179 101.956 40.4524 101.007 40.5669 100.026C40.6815 99.0443 40.9966 98.1072 41.5122 97.214C42.0279 96.3209 42.6819 95.5794 43.4744 94.9896C44.2669 94.3998 45.1214 93.9821 46.038 93.7365C46.9545 93.4909 47.9034 93.4254 48.8846 93.54C49.8658 93.6545 50.803 93.9696 51.6961 94.4853C52.5893 95.0009 53.3307 95.655 53.9206 96.4475C54.5104 97.2399 54.9281 98.0945 55.1737 99.011C55.4193 99.9276 55.4848 100.876 55.3702 101.858C55.2557 102.839 54.9405 103.776 54.4249 104.669Z"/>
</mask>
<path d="M52.1525 104.132L52.8048 103.002L51.9978 102.536C52.2116 101.942 52.2689 101.358 52.1697 100.785C52.0706 100.211 51.7036 99.7407 51.0687 99.3742C50.6167 99.1132 50.1279 99.0032 49.6022 99.044C49.0765 99.0848 48.4501 99.4118 47.723 100.025C47.135 100.546 46.6889 100.884 46.3846 101.039C46.0803 101.193 45.7882 101.189 45.5085 101.028C45.2287 100.866 45.0656 100.639 45.0191 100.347C44.9726 100.055 45.0581 99.7204 45.2755 99.3438C45.4743 98.9994 45.7131 98.7785 45.9917 98.6812C46.2703 98.5838 46.5582 98.5635 46.8554 98.6203L47.0321 97.345C46.5872 97.2459 46.1332 97.2743 45.6701 97.4302C45.2071 97.5861 44.8476 97.8484 44.5917 98.2172L43.7846 97.7512L43.1323 98.8811L43.9393 99.347C43.7471 99.9534 43.7415 100.51 43.9227 101.016C44.1038 101.522 44.415 101.903 44.8561 102.158C45.3619 102.45 45.8562 102.538 46.3391 102.422C46.822 102.306 47.3597 101.996 47.9522 101.492C48.5911 100.957 49.0835 100.613 49.4294 100.461C49.7753 100.31 50.1043 100.324 50.4164 100.504C50.7715 100.709 50.9594 100.986 50.9802 101.335C51.001 101.684 50.9089 102.037 50.7039 102.392C50.4988 102.747 50.2068 102.998 49.8278 103.145C49.4488 103.292 49.0014 103.303 48.4857 103.177L48.2903 104.485C48.8938 104.632 49.4459 104.639 49.9466 104.505C50.4473 104.371 50.9028 104.085 51.3132 103.647L52.1525 104.132ZM54.4249 104.669C53.9093 105.562 53.2552 106.304 52.4627 106.894C51.6702 107.483 50.8157 107.901 49.8992 108.147C48.9826 108.392 48.0337 108.458 47.0525 108.343C46.0713 108.229 45.1341 107.914 44.241 107.398C43.3479 106.882 42.6064 106.228 42.0166 105.436C41.4268 104.643 41.009 103.789 40.7635 102.872C40.5179 101.956 40.4524 101.007 40.5669 100.026C40.6815 99.0443 40.9966 98.1072 41.5122 97.214C42.0279 96.3209 42.6819 95.5794 43.4744 94.9896C44.2669 94.3998 45.1214 93.9821 46.038 93.7365C46.9545 93.4909 47.9034 93.4254 48.8846 93.54C49.8658 93.6545 50.803 93.9696 51.6961 94.4853C52.5893 95.0009 53.3307 95.655 53.9206 96.4475C54.5104 97.2399 54.9281 98.0945 55.1737 99.011C55.4193 99.9276 55.4848 100.876 55.3702 101.858C55.2557 102.839 54.9405 103.776 54.4249 104.669Z" fill="#18D4A7"/>
<path d="M52.1525 104.132L52.8048 103.002L51.9978 102.536C52.2116 101.942 52.2689 101.358 52.1697 100.785C52.0706 100.211 51.7036 99.7407 51.0687 99.3742C50.6167 99.1132 50.1279 99.0032 49.6022 99.044C49.0765 99.0848 48.4501 99.4118 47.723 100.025C47.135 100.546 46.6889 100.884 46.3846 101.039C46.0803 101.193 45.7882 101.189 45.5085 101.028C45.2287 100.866 45.0656 100.639 45.0191 100.347C44.9726 100.055 45.0581 99.7204 45.2755 99.3438C45.4743 98.9994 45.7131 98.7785 45.9917 98.6812C46.2703 98.5838 46.5582 98.5635 46.8554 98.6203L47.0321 97.345C46.5872 97.2459 46.1332 97.2743 45.6701 97.4302C45.2071 97.5861 44.8476 97.8484 44.5917 98.2172L43.7846 97.7512L43.1323 98.8811L43.9393 99.347C43.7471 99.9534 43.7415 100.51 43.9227 101.016C44.1038 101.522 44.415 101.903 44.8561 102.158C45.3619 102.45 45.8562 102.538 46.3391 102.422C46.822 102.306 47.3597 101.996 47.9522 101.492C48.5911 100.957 49.0835 100.613 49.4294 100.461C49.7753 100.31 50.1043 100.324 50.4164 100.504C50.7715 100.709 50.9594 100.986 50.9802 101.335C51.001 101.684 50.9089 102.037 50.7039 102.392C50.4988 102.747 50.2068 102.998 49.8278 103.145C49.4488 103.292 49.0014 103.303 48.4857 103.177L48.2903 104.485C48.8938 104.632 49.4459 104.639 49.9466 104.505C50.4473 104.371 50.9028 104.085 51.3132 103.647L52.1525 104.132ZM54.4249 104.669C53.9093 105.562 53.2552 106.304 52.4627 106.894C51.6702 107.483 50.8157 107.901 49.8992 108.147C48.9826 108.392 48.0337 108.458 47.0525 108.343C46.0713 108.229 45.1341 107.914 44.241 107.398C43.3479 106.882 42.6064 106.228 42.0166 105.436C41.4268 104.643 41.009 103.789 40.7635 102.872C40.5179 101.956 40.4524 101.007 40.5669 100.026C40.6815 99.0443 40.9966 98.1072 41.5122 97.214C42.0279 96.3209 42.6819 95.5794 43.4744 94.9896C44.2669 94.3998 45.1214 93.9821 46.038 93.7365C46.9545 93.4909 47.9034 93.4254 48.8846 93.54C49.8658 93.6545 50.803 93.9696 51.6961 94.4853C52.5893 95.0009 53.3307 95.655 53.9206 96.4475C54.5104 97.2399 54.9281 98.0945 55.1737 99.011C55.4193 99.9276 55.4848 100.876 55.3702 101.858C55.2557 102.839 54.9405 103.776 54.4249 104.669Z" stroke="#001464" stroke-width="2.98205" mask="url(#path-28-outside-9_10761_725)"/>
</g>
<rect x="330.34" y="245.885" width="31.3116" height="55.2745" rx="2.55605" transform="rotate(120 330.34 245.885)" fill="white" stroke="#001464" stroke-width="1.49103"/>
<rect x="278.593" y="224.705" width="16.218" height="3.18567" transform="rotate(120 278.593 224.705)" fill="#001464"/>
<mask id="mask6_10761_725" style="mask-type:alpha" maskUnits="userSpaceOnUse" x="284" y="231" width="29" height="29">
<rect x="311.864" y="242.101" width="19.3833" height="19.3833" transform="rotate(120 311.864 242.101)" fill="#D9D9D9" stroke="#001464" stroke-width="1.49103"/>
</mask>
<g mask="url(#mask6_10761_725)">
<mask id="path-32-outside-10_10761_725" maskUnits="userSpaceOnUse" x="285.587" y="232.687" width="25.9545" height="25.9545" fill="black">
<rect fill="white" x="285.587" y="232.687" width="25.9545" height="25.9545"/>
<path d="M294.441 242.458L293.789 243.588L294.596 244.054C294.382 244.648 294.325 245.231 294.424 245.805C294.523 246.379 294.89 246.849 295.525 247.216C295.977 247.477 296.466 247.587 296.992 247.546C297.517 247.505 298.144 247.178 298.871 246.565C299.459 246.043 299.905 245.706 300.209 245.551C300.513 245.397 300.806 245.401 301.085 245.562C301.365 245.724 301.528 245.951 301.575 246.243C301.621 246.535 301.536 246.869 301.318 247.246C301.119 247.59 300.881 247.811 300.602 247.909C300.323 248.006 300.036 248.026 299.738 247.97L299.562 249.245C300.007 249.344 300.461 249.316 300.924 249.16C301.387 249.004 301.746 248.741 302.002 248.373L302.809 248.839L303.461 247.709L302.654 247.243C302.847 246.636 302.852 246.08 302.671 245.574C302.49 245.067 302.179 244.687 301.738 244.432C301.232 244.14 300.738 244.052 300.255 244.168C299.772 244.284 299.234 244.594 298.642 245.098C298.003 245.633 297.51 245.977 297.164 246.128C296.818 246.28 296.489 246.266 296.177 246.086C295.822 245.881 295.634 245.604 295.614 245.255C295.593 244.905 295.685 244.553 295.89 244.198C296.095 243.843 296.387 243.592 296.766 243.445C297.145 243.298 297.592 243.287 298.108 243.413L298.303 242.105C297.7 241.958 297.148 241.951 296.647 242.085C296.146 242.219 295.691 242.505 295.281 242.942L294.441 242.458ZM292.169 241.921C292.684 241.028 293.339 240.286 294.131 239.696C294.924 239.106 295.778 238.689 296.695 238.443C297.611 238.198 298.56 238.132 299.541 238.247C300.522 238.361 301.46 238.676 302.353 239.192C303.246 239.708 303.987 240.362 304.577 241.154C305.167 241.947 305.585 242.801 305.83 243.718C306.076 244.634 306.141 245.583 306.027 246.564C305.912 247.545 305.597 248.483 305.082 249.376C304.566 250.269 303.912 251.01 303.119 251.6C302.327 252.19 301.472 252.608 300.556 252.853C299.639 253.099 298.69 253.164 297.709 253.05C296.728 252.935 295.791 252.62 294.898 252.105C294.004 251.589 293.263 250.935 292.673 250.142C292.083 249.35 291.666 248.495 291.42 247.579C291.174 246.662 291.109 245.713 291.224 244.732C291.338 243.751 291.653 242.814 292.169 241.921Z"/>
</mask>
<path d="M294.441 242.458L293.789 243.588L294.596 244.054C294.382 244.648 294.325 245.231 294.424 245.805C294.523 246.379 294.89 246.849 295.525 247.216C295.977 247.477 296.466 247.587 296.992 247.546C297.517 247.505 298.144 247.178 298.871 246.565C299.459 246.043 299.905 245.706 300.209 245.551C300.513 245.397 300.806 245.401 301.085 245.562C301.365 245.724 301.528 245.951 301.575 246.243C301.621 246.535 301.536 246.869 301.318 247.246C301.119 247.59 300.881 247.811 300.602 247.909C300.323 248.006 300.036 248.026 299.738 247.97L299.562 249.245C300.007 249.344 300.461 249.316 300.924 249.16C301.387 249.004 301.746 248.741 302.002 248.373L302.809 248.839L303.461 247.709L302.654 247.243C302.847 246.636 302.852 246.08 302.671 245.574C302.49 245.067 302.179 244.687 301.738 244.432C301.232 244.14 300.738 244.052 300.255 244.168C299.772 244.284 299.234 244.594 298.642 245.098C298.003 245.633 297.51 245.977 297.164 246.128C296.818 246.28 296.489 246.266 296.177 246.086C295.822 245.881 295.634 245.604 295.614 245.255C295.593 244.905 295.685 244.553 295.89 244.198C296.095 243.843 296.387 243.592 296.766 243.445C297.145 243.298 297.592 243.287 298.108 243.413L298.303 242.105C297.7 241.958 297.148 241.951 296.647 242.085C296.146 242.219 295.691 242.505 295.281 242.942L294.441 242.458ZM292.169 241.921C292.684 241.028 293.339 240.286 294.131 239.696C294.924 239.106 295.778 238.689 296.695 238.443C297.611 238.198 298.56 238.132 299.541 238.247C300.522 238.361 301.46 238.676 302.353 239.192C303.246 239.708 303.987 240.362 304.577 241.154C305.167 241.947 305.585 242.801 305.83 243.718C306.076 244.634 306.141 245.583 306.027 246.564C305.912 247.545 305.597 248.483 305.082 249.376C304.566 250.269 303.912 251.01 303.119 251.6C302.327 252.19 301.472 252.608 300.556 252.853C299.639 253.099 298.69 253.164 297.709 253.05C296.728 252.935 295.791 252.62 294.898 252.105C294.004 251.589 293.263 250.935 292.673 250.142C292.083 249.35 291.666 248.495 291.42 247.579C291.174 246.662 291.109 245.713 291.224 244.732C291.338 243.751 291.653 242.814 292.169 241.921Z" fill="#18D4A7"/>
<path d="M294.441 242.458L293.789 243.588L294.596 244.054C294.382 244.648 294.325 245.231 294.424 245.805C294.523 246.379 294.89 246.849 295.525 247.216C295.977 247.477 296.466 247.587 296.992 247.546C297.517 247.505 298.144 247.178 298.871 246.565C299.459 246.043 299.905 245.706 300.209 245.551C300.513 245.397 300.806 245.401 301.085 245.562C301.365 245.724 301.528 245.951 301.575 246.243C301.621 246.535 301.536 246.869 301.318 247.246C301.119 247.59 300.881 247.811 300.602 247.909C300.323 248.006 300.036 248.026 299.738 247.97L299.562 249.245C300.007 249.344 300.461 249.316 300.924 249.16C301.387 249.004 301.746 248.741 302.002 248.373L302.809 248.839L303.461 247.709L302.654 247.243C302.847 246.636 302.852 246.08 302.671 245.574C302.49 245.067 302.179 244.687 301.738 244.432C301.232 244.14 300.738 244.052 300.255 244.168C299.772 244.284 299.234 244.594 298.642 245.098C298.003 245.633 297.51 245.977 297.164 246.128C296.818 246.28 296.489 246.266 296.177 246.086C295.822 245.881 295.634 245.604 295.614 245.255C295.593 244.905 295.685 244.553 295.89 244.198C296.095 243.843 296.387 243.592 296.766 243.445C297.145 243.298 297.592 243.287 298.108 243.413L298.303 242.105C297.7 241.958 297.148 241.951 296.647 242.085C296.146 242.219 295.691 242.505 295.281 242.942L294.441 242.458ZM292.169 241.921C292.684 241.028 293.339 240.286 294.131 239.696C294.924 239.106 295.778 238.689 296.695 238.443C297.611 238.198 298.56 238.132 299.541 238.247C300.522 238.361 301.46 238.676 302.353 239.192C303.246 239.708 303.987 240.362 304.577 241.154C305.167 241.947 305.585 242.801 305.83 243.718C306.076 244.634 306.141 245.583 306.027 246.564C305.912 247.545 305.597 248.483 305.082 249.376C304.566 250.269 303.912 251.01 303.119 251.6C302.327 252.19 301.472 252.608 300.556 252.853C299.639 253.099 298.69 253.164 297.709 253.05C296.728 252.935 295.791 252.62 294.898 252.105C294.004 251.589 293.263 250.935 292.673 250.142C292.083 249.35 291.666 248.495 291.42 247.579C291.174 246.662 291.109 245.713 291.224 244.732C291.338 243.751 291.653 242.814 292.169 241.921Z" stroke="#001464" stroke-width="2.98205" mask="url(#path-32-outside-10_10761_725)"/>
</g>
<rect x="73.5898" y="31.9092" width="31.3116" height="55.2745" rx="2.55605" transform="rotate(-30 73.5898 31.9092)" fill="white" stroke="#001464" stroke-width="1.49103"/>
<rect x="107.813" y="76.1249" width="16.218" height="3.18567" transform="rotate(-30 107.813 76.1249)" fill="#001464"/>
<mask id="mask7_10761_725" style="mask-type:alpha" maskUnits="userSpaceOnUse" x="86" y="33" width="30" height="30">
<rect x="87.6984" y="44.4241" width="19.3833" height="19.3833" transform="rotate(-30 87.6984 44.4241)" fill="#D9D9D9" stroke="#001464" stroke-width="1.49103"/>
</mask>
<g mask="url(#mask7_10761_725)">
<mask id="path-36-outside-11_10761_725" maskUnits="userSpaceOnUse" x="88.0214" y="35.0107" width="25.9545" height="25.9545" fill="black">
<rect fill="white" x="88.0214" y="35.0107" width="25.9545" height="25.9545"/>
<path d="M102.966 52.8264L104.095 52.1741L103.629 51.3671C104.112 50.9596 104.453 50.4826 104.654 49.9361C104.855 49.3897 104.772 48.799 104.406 48.1641C104.145 47.7122 103.777 47.3724 103.301 47.1449C102.825 46.9174 102.119 46.8874 101.183 47.055C100.413 47.2125 99.8577 47.282 99.5171 47.2635C99.1764 47.245 98.9253 47.0958 98.7637 46.8161C98.6022 46.5363 98.5744 46.2582 98.6803 45.9819C98.7862 45.7055 99.0274 45.4586 99.404 45.2412C99.7484 45.0424 100.066 44.9705 100.356 45.0254C100.645 45.0804 100.905 45.2068 101.134 45.4046L101.925 44.3885C101.589 44.0802 101.181 43.8778 100.703 43.7813C100.224 43.6848 99.7811 43.7323 99.375 43.9236L98.9091 43.1166L97.7792 43.7689L98.2452 44.576C97.7755 45.005 97.4925 45.484 97.3962 46.013C97.2999 46.5421 97.3792 47.0272 97.6339 47.4684C97.9259 47.9741 98.3099 48.2976 98.786 48.4388C99.2621 48.58 99.8828 48.5803 100.648 48.4398C101.469 48.2959 102.067 48.2447 102.443 48.2861C102.818 48.3276 103.096 48.5044 103.276 48.8164C103.481 49.1715 103.505 49.5055 103.349 49.8183C103.192 50.1311 102.936 50.39 102.581 50.595C102.226 50.8 101.848 50.8714 101.446 50.8092C101.044 50.7471 100.651 50.5327 100.267 50.166L99.4444 51.2007C99.8933 51.6303 100.368 51.9121 100.869 52.0463C101.369 52.1805 101.907 52.1607 102.481 51.9871L102.966 52.8264ZM104.665 54.4278C103.772 54.9435 102.835 55.2586 101.853 55.3732C100.872 55.4877 99.9233 55.4222 99.0067 55.1766C98.0902 54.931 97.2357 54.5133 96.4432 53.9235C95.6507 53.3337 94.9966 52.5922 94.481 51.6991C93.9653 50.8059 93.6502 49.8688 93.5357 48.8876C93.4211 47.9063 93.4866 46.9575 93.7322 46.0409C93.9778 45.1244 94.3955 44.2698 94.9853 43.4774C95.5752 42.6849 96.3166 42.0308 97.2098 41.5152C98.1029 40.9995 99.0401 40.6844 100.021 40.5699C101.002 40.4553 101.951 40.5208 102.868 40.7664C103.784 41.012 104.639 41.4297 105.431 42.0195C106.224 42.6093 106.878 43.3508 107.394 44.2439C107.909 45.1371 108.224 46.0742 108.339 47.0555C108.454 48.0367 108.388 48.9856 108.142 49.9021C107.897 50.8187 107.479 51.6732 106.889 52.4656C106.299 53.2581 105.558 53.9122 104.665 54.4278Z"/>
</mask>
<path d="M102.966 52.8264L104.095 52.1741L103.629 51.3671C104.112 50.9596 104.453 50.4826 104.654 49.9361C104.855 49.3897 104.772 48.799 104.406 48.1641C104.145 47.7122 103.777 47.3724 103.301 47.1449C102.825 46.9174 102.119 46.8874 101.183 47.055C100.413 47.2125 99.8577 47.282 99.5171 47.2635C99.1764 47.245 98.9253 47.0958 98.7637 46.8161C98.6022 46.5363 98.5744 46.2582 98.6803 45.9819C98.7862 45.7055 99.0274 45.4586 99.404 45.2412C99.7484 45.0424 100.066 44.9705 100.356 45.0254C100.645 45.0804 100.905 45.2068 101.134 45.4046L101.925 44.3885C101.589 44.0802 101.181 43.8778 100.703 43.7813C100.224 43.6848 99.7811 43.7323 99.375 43.9236L98.9091 43.1166L97.7792 43.7689L98.2452 44.576C97.7755 45.005 97.4925 45.484 97.3962 46.013C97.2999 46.5421 97.3792 47.0272 97.6339 47.4684C97.9259 47.9741 98.3099 48.2976 98.786 48.4388C99.2621 48.58 99.8828 48.5803 100.648 48.4398C101.469 48.2959 102.067 48.2447 102.443 48.2861C102.818 48.3276 103.096 48.5044 103.276 48.8164C103.481 49.1715 103.505 49.5055 103.349 49.8183C103.192 50.1311 102.936 50.39 102.581 50.595C102.226 50.8 101.848 50.8714 101.446 50.8092C101.044 50.7471 100.651 50.5327 100.267 50.166L99.4444 51.2007C99.8933 51.6303 100.368 51.9121 100.869 52.0463C101.369 52.1805 101.907 52.1607 102.481 51.9871L102.966 52.8264ZM104.665 54.4278C103.772 54.9435 102.835 55.2586 101.853 55.3732C100.872 55.4877 99.9233 55.4222 99.0067 55.1766C98.0902 54.931 97.2357 54.5133 96.4432 53.9235C95.6507 53.3337 94.9966 52.5922 94.481 51.6991C93.9653 50.8059 93.6502 49.8688 93.5357 48.8876C93.4211 47.9063 93.4866 46.9575 93.7322 46.0409C93.9778 45.1244 94.3955 44.2698 94.9853 43.4774C95.5752 42.6849 96.3166 42.0308 97.2098 41.5152C98.1029 40.9995 99.0401 40.6844 100.021 40.5699C101.002 40.4553 101.951 40.5208 102.868 40.7664C103.784 41.012 104.639 41.4297 105.431 42.0195C106.224 42.6093 106.878 43.3508 107.394 44.2439C107.909 45.1371 108.224 46.0742 108.339 47.0555C108.454 48.0367 108.388 48.9856 108.142 49.9021C107.897 50.8187 107.479 51.6732 106.889 52.4656C106.299 53.2581 105.558 53.9122 104.665 54.4278Z" fill="#18D4A7"/>
<path d="M102.966 52.8264L104.095 52.1741L103.629 51.3671C104.112 50.9596 104.453 50.4826 104.654 49.9361C104.855 49.3897 104.772 48.799 104.406 48.1641C104.145 47.7122 103.777 47.3724 103.301 47.1449C102.825 46.9174 102.119 46.8874 101.183 47.055C100.413 47.2125 99.8577 47.282 99.5171 47.2635C99.1764 47.245 98.9253 47.0958 98.7637 46.8161C98.6022 46.5363 98.5744 46.2582 98.6803 45.9819C98.7862 45.7055 99.0274 45.4586 99.404 45.2412C99.7484 45.0424 100.066 44.9705 100.356 45.0254C100.645 45.0804 100.905 45.2068 101.134 45.4046L101.925 44.3885C101.589 44.0802 101.181 43.8778 100.703 43.7813C100.224 43.6848 99.7811 43.7323 99.375 43.9236L98.9091 43.1166L97.7792 43.7689L98.2452 44.576C97.7755 45.005 97.4925 45.484 97.3962 46.013C97.2999 46.5421 97.3792 47.0272 97.6339 47.4684C97.9259 47.9741 98.3099 48.2976 98.786 48.4388C99.2621 48.58 99.8828 48.5803 100.648 48.4398C101.469 48.2959 102.067 48.2447 102.443 48.2861C102.818 48.3276 103.096 48.5044 103.276 48.8164C103.481 49.1715 103.505 49.5055 103.349 49.8183C103.192 50.1311 102.936 50.39 102.581 50.595C102.226 50.8 101.848 50.8714 101.446 50.8092C101.044 50.7471 100.651 50.5327 100.267 50.166L99.4444 51.2007C99.8933 51.6303 100.368 51.9121 100.869 52.0463C101.369 52.1805 101.907 52.1607 102.481 51.9871L102.966 52.8264ZM104.665 54.4278C103.772 54.9435 102.835 55.2586 101.853 55.3732C100.872 55.4877 99.9233 55.4222 99.0067 55.1766C98.0902 54.931 97.2357 54.5133 96.4432 53.9235C95.6507 53.3337 94.9966 52.5922 94.481 51.6991C93.9653 50.8059 93.6502 49.8688 93.5357 48.8876C93.4211 47.9063 93.4866 46.9575 93.7322 46.0409C93.9778 45.1244 94.3955 44.2698 94.9853 43.4774C95.5752 42.6849 96.3166 42.0308 97.2098 41.5152C98.1029 40.9995 99.0401 40.6844 100.021 40.5699C101.002 40.4553 101.951 40.5208 102.868 40.7664C103.784 41.012 104.639 41.4297 105.431 42.0195C106.224 42.6093 106.878 43.3508 107.394 44.2439C107.909 45.1371 108.224 46.0742 108.339 47.0555C108.454 48.0367 108.388 48.9856 108.142 49.9021C107.897 50.8187 107.479 51.6732 106.889 52.4656C106.299 53.2581 105.558 53.9122 104.665 54.4278Z" stroke="#001464" stroke-width="2.98205" mask="url(#path-36-outside-11_10761_725)"/>
</g>
<rect x="273.004" y="314.681" width="31.3116" height="55.2745" rx="2.55605" transform="rotate(150 273.004 314.681)" fill="white" stroke="#001464" stroke-width="1.49103"/>
<rect x="238.78" y="270.465" width="16.218" height="3.18567" transform="rotate(150 238.78 270.465)" fill="#001464"/>
<mask id="mask8_10761_725" style="mask-type:alpha" maskUnits="userSpaceOnUse" x="231" y="284" width="29" height="29">
<rect x="258.895" y="302.166" width="19.3833" height="19.3833" transform="rotate(150 258.895 302.166)" fill="#D9D9D9" stroke="#001464" stroke-width="1.49103"/>
</mask>
<g mask="url(#mask8_10761_725)">
<mask id="path-40-outside-12_10761_725" maskUnits="userSpaceOnUse" x="232.618" y="285.625" width="25.9545" height="25.9545" fill="black">
<rect fill="white" x="232.618" y="285.625" width="25.9545" height="25.9545"/>
<path d="M243.628 293.763L242.498 294.416L242.964 295.223C242.482 295.63 242.141 296.107 241.94 296.654C241.739 297.2 241.821 297.791 242.188 298.426C242.449 298.878 242.817 299.217 243.293 299.445C243.769 299.672 244.475 299.702 245.411 299.535C246.181 299.377 246.736 299.308 247.077 299.326C247.417 299.345 247.668 299.494 247.83 299.774C247.992 300.054 248.019 300.332 247.913 300.608C247.808 300.884 247.566 301.131 247.19 301.349C246.845 301.547 246.528 301.619 246.238 301.564C245.948 301.509 245.689 301.383 245.46 301.185L244.669 302.201C245.005 302.51 245.412 302.712 245.891 302.809C246.37 302.905 246.813 302.858 247.219 302.666L247.685 303.473L248.815 302.821L248.349 302.014C248.818 301.585 249.101 301.106 249.198 300.577C249.294 300.048 249.215 299.563 248.96 299.121C248.668 298.616 248.284 298.292 247.808 298.151C247.332 298.01 246.711 298.01 245.946 298.15C245.125 298.294 244.527 298.345 244.151 298.304C243.776 298.262 243.498 298.085 243.318 297.773C243.113 297.418 243.089 297.084 243.245 296.772C243.402 296.459 243.658 296.2 244.013 295.995C244.368 295.79 244.746 295.718 245.148 295.781C245.55 295.843 245.942 296.057 246.326 296.424L247.149 295.389C246.7 294.96 246.226 294.678 245.725 294.544C245.224 294.409 244.687 294.429 244.113 294.603L243.628 293.763ZM241.929 292.162C242.822 291.646 243.759 291.331 244.74 291.217C245.722 291.102 246.67 291.168 247.587 291.413C248.504 291.659 249.358 292.077 250.151 292.666C250.943 293.256 251.597 293.998 252.113 294.891C252.628 295.784 252.944 296.721 253.058 297.702C253.173 298.684 253.107 299.632 252.862 300.549C252.616 301.465 252.198 302.32 251.608 303.112C251.019 303.905 250.277 304.559 249.384 305.075C248.491 305.59 247.554 305.905 246.572 306.02C245.591 306.135 244.642 306.069 243.726 305.823C242.809 305.578 241.955 305.16 241.162 304.57C240.37 303.981 239.716 303.239 239.2 302.346C238.684 301.453 238.369 300.516 238.255 299.534C238.14 298.553 238.206 297.604 238.451 296.688C238.697 295.771 239.115 294.917 239.704 294.124C240.294 293.332 241.036 292.678 241.929 292.162Z"/>
</mask>
<path d="M243.628 293.763L242.498 294.416L242.964 295.223C242.482 295.63 242.141 296.107 241.94 296.654C241.739 297.2 241.821 297.791 242.188 298.426C242.449 298.878 242.817 299.217 243.293 299.445C243.769 299.672 244.475 299.702 245.411 299.535C246.181 299.377 246.736 299.308 247.077 299.326C247.417 299.345 247.668 299.494 247.83 299.774C247.992 300.054 248.019 300.332 247.913 300.608C247.808 300.884 247.566 301.131 247.19 301.349C246.845 301.547 246.528 301.619 246.238 301.564C245.948 301.509 245.689 301.383 245.46 301.185L244.669 302.201C245.005 302.51 245.412 302.712 245.891 302.809C246.37 302.905 246.813 302.858 247.219 302.666L247.685 303.473L248.815 302.821L248.349 302.014C248.818 301.585 249.101 301.106 249.198 300.577C249.294 300.048 249.215 299.563 248.96 299.121C248.668 298.616 248.284 298.292 247.808 298.151C247.332 298.01 246.711 298.01 245.946 298.15C245.125 298.294 244.527 298.345 244.151 298.304C243.776 298.262 243.498 298.085 243.318 297.773C243.113 297.418 243.089 297.084 243.245 296.772C243.402 296.459 243.658 296.2 244.013 295.995C244.368 295.79 244.746 295.718 245.148 295.781C245.55 295.843 245.942 296.057 246.326 296.424L247.149 295.389C246.7 294.96 246.226 294.678 245.725 294.544C245.224 294.409 244.687 294.429 244.113 294.603L243.628 293.763ZM241.929 292.162C242.822 291.646 243.759 291.331 244.74 291.217C245.722 291.102 246.67 291.168 247.587 291.413C248.504 291.659 249.358 292.077 250.151 292.666C250.943 293.256 251.597 293.998 252.113 294.891C252.628 295.784 252.944 296.721 253.058 297.702C253.173 298.684 253.107 299.632 252.862 300.549C252.616 301.465 252.198 302.32 251.608 303.112C251.019 303.905 250.277 304.559 249.384 305.075C248.491 305.59 247.554 305.905 246.572 306.02C245.591 306.135 244.642 306.069 243.726 305.823C242.809 305.578 241.955 305.16 241.162 304.57C240.37 303.981 239.716 303.239 239.2 302.346C238.684 301.453 238.369 300.516 238.255 299.534C238.14 298.553 238.206 297.604 238.451 296.688C238.697 295.771 239.115 294.917 239.704 294.124C240.294 293.332 241.036 292.678 241.929 292.162Z" fill="#18D4A7"/>
<path d="M243.628 293.763L242.498 294.416L242.964 295.223C242.482 295.63 242.141 296.107 241.94 296.654C241.739 297.2 241.821 297.791 242.188 298.426C242.449 298.878 242.817 299.217 243.293 299.445C243.769 299.672 244.475 299.702 245.411 299.535C246.181 299.377 246.736 299.308 247.077 299.326C247.417 299.345 247.668 299.494 247.83 299.774C247.992 300.054 248.019 300.332 247.913 300.608C247.808 300.884 247.566 301.131 247.19 301.349C246.845 301.547 246.528 301.619 246.238 301.564C245.948 301.509 245.689 301.383 245.46 301.185L244.669 302.201C245.005 302.51 245.412 302.712 245.891 302.809C246.37 302.905 246.813 302.858 247.219 302.666L247.685 303.473L248.815 302.821L248.349 302.014C248.818 301.585 249.101 301.106 249.198 300.577C249.294 300.048 249.215 299.563 248.96 299.121C248.668 298.616 248.284 298.292 247.808 298.151C247.332 298.01 246.711 298.01 245.946 298.15C245.125 298.294 244.527 298.345 244.151 298.304C243.776 298.262 243.498 298.085 243.318 297.773C243.113 297.418 243.089 297.084 243.245 296.772C243.402 296.459 243.658 296.2 244.013 295.995C244.368 295.79 244.746 295.718 245.148 295.781C245.55 295.843 245.942 296.057 246.326 296.424L247.149 295.389C246.7 294.96 246.226 294.678 245.725 294.544C245.224 294.409 244.687 294.429 244.113 294.603L243.628 293.763ZM241.929 292.162C242.822 291.646 243.759 291.331 244.74 291.217C245.722 291.102 246.67 291.168 247.587 291.413C248.504 291.659 249.358 292.077 250.151 292.666C250.943 293.256 251.597 293.998 252.113 294.891C252.628 295.784 252.944 296.721 253.058 297.702C253.173 298.684 253.107 299.632 252.862 300.549C252.616 301.465 252.198 302.32 251.608 303.112C251.019 303.905 250.277 304.559 249.384 305.075C248.491 305.59 247.554 305.905 246.572 306.02C245.591 306.135 244.642 306.069 243.726 305.823C242.809 305.578 241.955 305.16 241.162 304.57C240.37 303.981 239.716 303.239 239.2 302.346C238.684 301.453 238.369 300.516 238.255 299.534C238.14 298.553 238.206 297.604 238.451 296.688C238.697 295.771 239.115 294.917 239.704 294.124C240.294 293.332 241.036 292.678 241.929 292.162Z" stroke="#001464" stroke-width="2.98205" mask="url(#path-40-outside-12_10761_725)"/>
</g>
<rect x="245.887" y="16.2529" width="31.3116" height="55.2745" rx="2.55605" transform="rotate(30 245.887 16.2529)" fill="white" stroke="#001464" stroke-width="1.49103"/>
<rect x="224.707" y="67.9995" width="16.218" height="3.18567" transform="rotate(30 224.707 67.9995)" fill="#001464"/>
<mask id="mask9_10761_725" style="mask-type:alpha" maskUnits="userSpaceOnUse" x="231" y="33" width="29" height="30">
<rect x="242.103" y="34.7289" width="19.3833" height="19.3833" transform="rotate(30 242.103 34.7289)" fill="#D9D9D9" stroke="#001464" stroke-width="1.49103"/>
</mask>
<g mask="url(#mask9_10761_725)">
<mask id="path-44-outside-13_10761_725" maskUnits="userSpaceOnUse" x="232.689" y="35.052" width="25.9545" height="25.9545" fill="black">
<rect fill="white" x="232.689" y="35.052" width="25.9545" height="25.9545"/>
<path d="M242.46 52.1519L243.59 52.8042L244.056 51.9972C244.65 52.2109 245.233 52.2683 245.807 52.1691C246.381 52.0699 246.851 51.7029 247.218 51.068C247.479 50.6161 247.589 50.1273 247.548 49.6015C247.507 49.0758 247.18 48.4494 246.567 47.7223C246.045 47.1344 245.707 46.6882 245.553 46.3839C245.399 46.0796 245.402 45.7876 245.564 45.5078C245.726 45.2281 245.952 45.0649 246.245 45.0185C246.537 44.972 246.871 45.0575 247.248 45.2749C247.592 45.4737 247.813 45.7124 247.911 45.991C248.008 46.2696 248.028 46.5576 247.971 46.8547L249.247 47.0315C249.346 46.5865 249.317 46.1325 249.162 45.6695C249.006 45.2064 248.743 44.847 248.375 44.591L248.841 43.784L247.711 43.1317L247.245 43.9387C246.638 43.7464 246.082 43.7409 245.576 43.922C245.069 44.1032 244.689 44.4143 244.434 44.8555C244.142 45.3613 244.054 45.8556 244.17 46.3385C244.286 46.8214 244.596 47.3591 245.1 47.9516C245.635 48.5905 245.978 49.0829 246.13 49.4288C246.282 49.7747 246.268 50.1037 246.088 50.4157C245.883 50.7708 245.606 50.9588 245.256 50.9796C244.907 51.0003 244.555 50.9082 244.2 50.7032C243.845 50.4982 243.594 50.2062 243.447 49.8272C243.3 49.4482 243.289 49.0008 243.415 48.4851L242.107 48.2897C241.96 48.8932 241.953 49.4452 242.087 49.946C242.221 50.4467 242.507 50.9022 242.944 51.3126L242.46 52.1519ZM241.923 54.4243C241.029 53.9086 240.288 53.2546 239.698 52.4621C239.108 51.6696 238.691 50.8151 238.445 49.8985C238.199 48.982 238.134 48.0331 238.249 47.0519C238.363 46.0707 238.678 45.1335 239.194 44.2404C239.709 43.3472 240.364 42.6058 241.156 42.0159C241.948 41.4261 242.803 41.0084 243.72 40.7628C244.636 40.5172 245.585 40.4517 246.566 40.5663C247.547 40.6808 248.485 40.9959 249.378 41.5116C250.271 42.0272 251.012 42.6813 251.602 43.4738C252.192 44.2663 252.61 45.1208 252.855 46.0373C253.101 46.9539 253.166 47.9028 253.052 48.884C252.937 49.8652 252.622 50.8024 252.106 51.6955C251.591 52.5886 250.937 53.3301 250.144 53.9199C249.352 54.5097 248.497 54.9274 247.581 55.173C246.664 55.4186 245.715 55.4841 244.734 55.3696C243.753 55.255 242.816 54.9399 241.923 54.4243Z"/>
</mask>
<path d="M242.46 52.1519L243.59 52.8042L244.056 51.9972C244.65 52.2109 245.233 52.2683 245.807 52.1691C246.381 52.0699 246.851 51.7029 247.218 51.068C247.479 50.6161 247.589 50.1273 247.548 49.6015C247.507 49.0758 247.18 48.4494 246.567 47.7223C246.045 47.1344 245.707 46.6882 245.553 46.3839C245.399 46.0796 245.402 45.7876 245.564 45.5078C245.726 45.2281 245.952 45.0649 246.245 45.0185C246.537 44.972 246.871 45.0575 247.248 45.2749C247.592 45.4737 247.813 45.7124 247.911 45.991C248.008 46.2696 248.028 46.5576 247.971 46.8547L249.247 47.0315C249.346 46.5865 249.317 46.1325 249.162 45.6695C249.006 45.2064 248.743 44.847 248.375 44.591L248.841 43.784L247.711 43.1317L247.245 43.9387C246.638 43.7464 246.082 43.7409 245.576 43.922C245.069 44.1032 244.689 44.4143 244.434 44.8555C244.142 45.3613 244.054 45.8556 244.17 46.3385C244.286 46.8214 244.596 47.3591 245.1 47.9516C245.635 48.5905 245.978 49.0829 246.13 49.4288C246.282 49.7747 246.268 50.1037 246.088 50.4157C245.883 50.7708 245.606 50.9588 245.256 50.9796C244.907 51.0003 244.555 50.9082 244.2 50.7032C243.845 50.4982 243.594 50.2062 243.447 49.8272C243.3 49.4482 243.289 49.0008 243.415 48.4851L242.107 48.2897C241.96 48.8932 241.953 49.4452 242.087 49.946C242.221 50.4467 242.507 50.9022 242.944 51.3126L242.46 52.1519ZM241.923 54.4243C241.029 53.9086 240.288 53.2546 239.698 52.4621C239.108 51.6696 238.691 50.8151 238.445 49.8985C238.199 48.982 238.134 48.0331 238.249 47.0519C238.363 46.0707 238.678 45.1335 239.194 44.2404C239.709 43.3472 240.364 42.6058 241.156 42.0159C241.948 41.4261 242.803 41.0084 243.72 40.7628C244.636 40.5172 245.585 40.4517 246.566 40.5663C247.547 40.6808 248.485 40.9959 249.378 41.5116C250.271 42.0272 251.012 42.6813 251.602 43.4738C252.192 44.2663 252.61 45.1208 252.855 46.0373C253.101 46.9539 253.166 47.9028 253.052 48.884C252.937 49.8652 252.622 50.8024 252.106 51.6955C251.591 52.5886 250.937 53.3301 250.144 53.9199C249.352 54.5097 248.497 54.9274 247.581 55.173C246.664 55.4186 245.715 55.4841 244.734 55.3696C243.753 55.255 242.816 54.9399 241.923 54.4243Z" fill="#18D4A7"/>
<path d="M242.46 52.1519L243.59 52.8042L244.056 51.9972C244.65 52.2109 245.233 52.2683 245.807 52.1691C246.381 52.0699 246.851 51.7029 247.218 51.068C247.479 50.6161 247.589 50.1273 247.548 49.6015C247.507 49.0758 247.18 48.4494 246.567 47.7223C246.045 47.1344 245.707 46.6882 245.553 46.3839C245.399 46.0796 245.402 45.7876 245.564 45.5078C245.726 45.2281 245.952 45.0649 246.245 45.0185C246.537 44.972 246.871 45.0575 247.248 45.2749C247.592 45.4737 247.813 45.7124 247.911 45.991C248.008 46.2696 248.028 46.5576 247.971 46.8547L249.247 47.0315C249.346 46.5865 249.317 46.1325 249.162 45.6695C249.006 45.2064 248.743 44.847 248.375 44.591L248.841 43.784L247.711 43.1317L247.245 43.9387C246.638 43.7464 246.082 43.7409 245.576 43.922C245.069 44.1032 244.689 44.4143 244.434 44.8555C244.142 45.3613 244.054 45.8556 244.17 46.3385C244.286 46.8214 244.596 47.3591 245.1 47.9516C245.635 48.5905 245.978 49.0829 246.13 49.4288C246.282 49.7747 246.268 50.1037 246.088 50.4157C245.883 50.7708 245.606 50.9588 245.256 50.9796C244.907 51.0003 244.555 50.9082 244.2 50.7032C243.845 50.4982 243.594 50.2062 243.447 49.8272C243.3 49.4482 243.289 49.0008 243.415 48.4851L242.107 48.2897C241.96 48.8932 241.953 49.4452 242.087 49.946C242.221 50.4467 242.507 50.9022 242.944 51.3126L242.46 52.1519ZM241.923 54.4243C241.029 53.9086 240.288 53.2546 239.698 52.4621C239.108 51.6696 238.691 50.8151 238.445 49.8985C238.199 48.982 238.134 48.0331 238.249 47.0519C238.363 46.0707 238.678 45.1335 239.194 44.2404C239.709 43.3472 240.364 42.6058 241.156 42.0159C241.948 41.4261 242.803 41.0084 243.72 40.7628C244.636 40.5172 245.585 40.4517 246.566 40.5663C247.547 40.6808 248.485 40.9959 249.378 41.5116C250.271 42.0272 251.012 42.6813 251.602 43.4738C252.192 44.2663 252.61 45.1208 252.855 46.0373C253.101 46.9539 253.166 47.9028 253.052 48.884C252.937 49.8652 252.622 50.8024 252.106 51.6955C251.591 52.5886 250.937 53.3301 250.144 53.9199C249.352 54.5097 248.497 54.9274 247.581 55.173C246.664 55.4186 245.715 55.4841 244.734 55.3696C243.753 55.255 242.816 54.9399 241.923 54.4243Z" stroke="#001464" stroke-width="2.98205" mask="url(#path-44-outside-13_10761_725)"/>
</g>
<rect x="100.707" y="330.337" width="31.3116" height="55.2745" rx="2.55605" transform="rotate(-150 100.707 330.337)" fill="white" stroke="#001464" stroke-width="1.49103"/>
<rect x="121.887" y="278.59" width="16.218" height="3.18567" transform="rotate(-150 121.887 278.59)" fill="#001464"/>
<mask id="mask10_10761_725" style="mask-type:alpha" maskUnits="userSpaceOnUse" x="86" y="284" width="30" height="29">
<rect x="104.491" y="311.861" width="19.3833" height="19.3833" transform="rotate(-150 104.491 311.861)" fill="#D9D9D9" stroke="#001464" stroke-width="1.49103"/>
</mask>
<g mask="url(#mask10_10761_725)">
<mask id="path-48-outside-14_10761_725" maskUnits="userSpaceOnUse" x="87.9499" y="285.583" width="25.9545" height="25.9545" fill="black">
<rect fill="white" x="87.9499" y="285.583" width="25.9545" height="25.9545"/>
<path d="M104.134 294.438L103.004 293.786L102.538 294.593C101.944 294.379 101.36 294.322 100.787 294.421C100.213 294.52 99.7427 294.887 99.3762 295.522C99.1152 295.974 99.0052 296.463 99.046 296.988C99.0868 297.514 99.4138 298.14 100.027 298.868C100.548 299.455 100.886 299.902 101.041 300.206C101.195 300.51 101.191 300.802 101.03 301.082C100.868 301.362 100.641 301.525 100.349 301.571C100.057 301.618 99.7224 301.532 99.3457 301.315C99.0014 301.116 98.7805 300.877 98.6831 300.599C98.5857 300.32 98.5654 300.032 98.6223 299.735L97.3469 299.558C97.2479 300.003 97.2763 300.457 97.4322 300.92C97.5881 301.383 97.8504 301.743 98.2192 301.999L97.7532 302.806L98.8831 303.458L99.349 302.651C99.9554 302.843 100.512 302.849 101.018 302.668C101.524 302.487 101.905 302.176 102.16 301.734C102.452 301.229 102.54 300.734 102.424 300.251C102.308 299.768 101.998 299.231 101.494 298.638C100.959 297.999 100.615 297.507 100.463 297.161C100.312 296.815 100.326 296.486 100.506 296.174C100.711 295.819 100.988 295.631 101.337 295.61C101.686 295.589 102.039 295.682 102.394 295.887C102.749 296.092 103 296.384 103.147 296.763C103.294 297.142 103.305 297.589 103.179 298.105L104.487 298.3C104.634 297.697 104.641 297.145 104.507 296.644C104.373 296.143 104.087 295.688 103.649 295.277L104.134 294.438ZM104.671 292.166C105.564 292.681 106.306 293.335 106.896 294.128C107.485 294.92 107.903 295.775 108.149 296.691C108.394 297.608 108.46 298.557 108.345 299.538C108.231 300.519 107.916 301.456 107.4 302.349C106.884 303.243 106.23 303.984 105.438 304.574C104.645 305.164 103.791 305.581 102.874 305.827C101.958 306.073 101.009 306.138 100.028 306.024C99.0463 305.909 98.1092 305.594 97.216 305.078C96.3229 304.563 95.5814 303.909 94.9916 303.116C94.4018 302.324 93.9841 301.469 93.7385 300.553C93.4929 299.636 93.4274 298.687 93.5419 297.706C93.6565 296.725 93.9716 295.787 94.4873 294.894C95.0029 294.001 95.657 293.26 96.4495 292.67C97.2419 292.08 98.0964 291.662 99.013 291.417C99.9295 291.171 100.878 291.106 101.86 291.22C102.841 291.335 103.778 291.65 104.671 292.166Z"/>
</mask>
<path d="M104.134 294.438L103.004 293.786L102.538 294.593C101.944 294.379 101.36 294.322 100.787 294.421C100.213 294.52 99.7427 294.887 99.3762 295.522C99.1152 295.974 99.0052 296.463 99.046 296.988C99.0868 297.514 99.4138 298.14 100.027 298.868C100.548 299.455 100.886 299.902 101.041 300.206C101.195 300.51 101.191 300.802 101.03 301.082C100.868 301.362 100.641 301.525 100.349 301.571C100.057 301.618 99.7224 301.532 99.3457 301.315C99.0014 301.116 98.7805 300.877 98.6831 300.599C98.5857 300.32 98.5654 300.032 98.6223 299.735L97.3469 299.558C97.2479 300.003 97.2763 300.457 97.4322 300.92C97.5881 301.383 97.8504 301.743 98.2192 301.999L97.7532 302.806L98.8831 303.458L99.349 302.651C99.9554 302.843 100.512 302.849 101.018 302.668C101.524 302.487 101.905 302.176 102.16 301.734C102.452 301.229 102.54 300.734 102.424 300.251C102.308 299.768 101.998 299.231 101.494 298.638C100.959 297.999 100.615 297.507 100.463 297.161C100.312 296.815 100.326 296.486 100.506 296.174C100.711 295.819 100.988 295.631 101.337 295.61C101.686 295.589 102.039 295.682 102.394 295.887C102.749 296.092 103 296.384 103.147 296.763C103.294 297.142 103.305 297.589 103.179 298.105L104.487 298.3C104.634 297.697 104.641 297.145 104.507 296.644C104.373 296.143 104.087 295.688 103.649 295.277L104.134 294.438ZM104.671 292.166C105.564 292.681 106.306 293.335 106.896 294.128C107.485 294.92 107.903 295.775 108.149 296.691C108.394 297.608 108.46 298.557 108.345 299.538C108.231 300.519 107.916 301.456 107.4 302.349C106.884 303.243 106.23 303.984 105.438 304.574C104.645 305.164 103.791 305.581 102.874 305.827C101.958 306.073 101.009 306.138 100.028 306.024C99.0463 305.909 98.1092 305.594 97.216 305.078C96.3229 304.563 95.5814 303.909 94.9916 303.116C94.4018 302.324 93.9841 301.469 93.7385 300.553C93.4929 299.636 93.4274 298.687 93.5419 297.706C93.6565 296.725 93.9716 295.787 94.4873 294.894C95.0029 294.001 95.657 293.26 96.4495 292.67C97.2419 292.08 98.0964 291.662 99.013 291.417C99.9295 291.171 100.878 291.106 101.86 291.22C102.841 291.335 103.778 291.65 104.671 292.166Z" fill="#18D4A7"/>
<path d="M104.134 294.438L103.004 293.786L102.538 294.593C101.944 294.379 101.36 294.322 100.787 294.421C100.213 294.52 99.7427 294.887 99.3762 295.522C99.1152 295.974 99.0052 296.463 99.046 296.988C99.0868 297.514 99.4138 298.14 100.027 298.868C100.548 299.455 100.886 299.902 101.041 300.206C101.195 300.51 101.191 300.802 101.03 301.082C100.868 301.362 100.641 301.525 100.349 301.571C100.057 301.618 99.7224 301.532 99.3457 301.315C99.0014 301.116 98.7805 300.877 98.6831 300.599C98.5857 300.32 98.5654 300.032 98.6223 299.735L97.3469 299.558C97.2479 300.003 97.2763 300.457 97.4322 300.92C97.5881 301.383 97.8504 301.743 98.2192 301.999L97.7532 302.806L98.8831 303.458L99.349 302.651C99.9554 302.843 100.512 302.849 101.018 302.668C101.524 302.487 101.905 302.176 102.16 301.734C102.452 301.229 102.54 300.734 102.424 300.251C102.308 299.768 101.998 299.231 101.494 298.638C100.959 297.999 100.615 297.507 100.463 297.161C100.312 296.815 100.326 296.486 100.506 296.174C100.711 295.819 100.988 295.631 101.337 295.61C101.686 295.589 102.039 295.682 102.394 295.887C102.749 296.092 103 296.384 103.147 296.763C103.294 297.142 103.305 297.589 103.179 298.105L104.487 298.3C104.634 297.697 104.641 297.145 104.507 296.644C104.373 296.143 104.087 295.688 103.649 295.277L104.134 294.438ZM104.671 292.166C105.564 292.681 106.306 293.335 106.896 294.128C107.485 294.92 107.903 295.775 108.149 296.691C108.394 297.608 108.46 298.557 108.345 299.538C108.231 300.519 107.916 301.456 107.4 302.349C106.884 303.243 106.23 303.984 105.438 304.574C104.645 305.164 103.791 305.581 102.874 305.827C101.958 306.073 101.009 306.138 100.028 306.024C99.0463 305.909 98.1092 305.594 97.216 305.078C96.3229 304.563 95.5814 303.909 94.9916 303.116C94.4018 302.324 93.9841 301.469 93.7385 300.553C93.4929 299.636 93.4274 298.687 93.5419 297.706C93.6565 296.725 93.9716 295.787 94.4873 294.894C95.0029 294.001 95.657 293.26 96.4495 292.67C97.2419 292.08 98.0964 291.662 99.013 291.417C99.9295 291.171 100.878 291.106 101.86 291.22C102.841 291.335 103.778 291.65 104.671 292.166Z" stroke="#001464" stroke-width="2.98205" mask="url(#path-48-outside-14_10761_725)"/>
</g>
<rect x="314.684" y="73.5879" width="31.3116" height="55.2745" rx="2.55605" transform="rotate(60 314.684 73.5879)" fill="white" stroke="#001464" stroke-width="1.49103"/>
<rect x="270.468" y="107.812" width="16.218" height="3.18567" transform="rotate(60 270.468 107.812)" fill="#001464"/>
<mask id="mask11_10761_725" style="mask-type:alpha" maskUnits="userSpaceOnUse" x="284" y="86" width="29" height="30">
<rect x="302.169" y="87.6965" width="19.3833" height="19.3833" transform="rotate(60 302.169 87.6965)" fill="#D9D9D9" stroke="#001464" stroke-width="1.49103"/>
</mask>
<g mask="url(#mask11_10761_725)">
<mask id="path-52-outside-15_10761_725" maskUnits="userSpaceOnUse" x="285.628" y="88.0197" width="25.9545" height="25.9545" fill="black">
<rect fill="white" x="285.628" y="88.0197" width="25.9545" height="25.9545"/>
<path d="M293.766 102.964L294.419 104.094L295.226 103.628C295.633 104.11 296.11 104.451 296.657 104.652C297.203 104.853 297.794 104.771 298.429 104.404C298.881 104.143 299.22 103.775 299.448 103.299C299.675 102.823 299.705 102.117 299.538 101.181C299.38 100.411 299.311 99.856 299.329 99.5153C299.348 99.1747 299.497 98.9236 299.777 98.762C300.057 98.6005 300.335 98.5727 300.611 98.6786C300.887 98.7844 301.134 99.0257 301.352 99.4023C301.55 99.7467 301.622 100.064 301.567 100.354C301.512 100.644 301.386 100.903 301.188 101.132L302.204 101.923C302.513 101.587 302.715 101.18 302.812 100.701C302.908 100.222 302.861 99.7793 302.669 99.3733L303.476 98.9074L302.824 97.7775L302.017 98.2435C301.588 97.7738 301.109 97.4908 300.58 97.3945C300.051 97.2982 299.566 97.3775 299.124 97.6322C298.619 97.9242 298.295 98.3082 298.154 98.7843C298.013 99.2604 298.012 99.8811 298.153 100.646C298.297 101.467 298.348 102.065 298.307 102.441C298.265 102.816 298.088 103.094 297.776 103.274C297.421 103.479 297.087 103.503 296.775 103.347C296.462 103.19 296.203 102.934 295.998 102.579C295.793 102.224 295.721 101.846 295.784 101.444C295.846 101.042 296.06 100.65 296.427 100.266L295.392 99.4427C294.963 99.8916 294.681 100.366 294.547 100.867C294.412 101.368 294.432 101.905 294.606 102.479L293.766 102.964ZM292.165 104.663C291.649 103.77 291.334 102.833 291.22 101.852C291.105 100.87 291.171 99.9216 291.416 99.005C291.662 98.0885 292.08 97.2339 292.669 96.4415C293.259 95.649 294.001 94.9949 294.894 94.4793C295.787 93.9636 296.724 93.6485 297.705 93.534C298.686 93.4194 299.635 93.4849 300.552 93.7305C301.468 93.9761 302.323 94.3938 303.115 94.9836C303.908 95.5734 304.562 96.3149 305.078 97.208C305.593 98.1012 305.908 99.0383 306.023 100.02C306.138 101.001 306.072 101.95 305.826 102.866C305.581 103.783 305.163 104.637 304.573 105.43C303.983 106.222 303.242 106.876 302.349 107.392C301.456 107.908 300.519 108.223 299.537 108.337C298.556 108.452 297.607 108.386 296.691 108.141C295.774 107.895 294.92 107.477 294.127 106.888C293.335 106.298 292.681 105.556 292.165 104.663Z"/>
</mask>
<path d="M293.766 102.964L294.419 104.094L295.226 103.628C295.633 104.11 296.11 104.451 296.657 104.652C297.203 104.853 297.794 104.771 298.429 104.404C298.881 104.143 299.22 103.775 299.448 103.299C299.675 102.823 299.705 102.117 299.538 101.181C299.38 100.411 299.311 99.856 299.329 99.5153C299.348 99.1747 299.497 98.9236 299.777 98.762C300.057 98.6005 300.335 98.5727 300.611 98.6786C300.887 98.7844 301.134 99.0257 301.352 99.4023C301.55 99.7467 301.622 100.064 301.567 100.354C301.512 100.644 301.386 100.903 301.188 101.132L302.204 101.923C302.513 101.587 302.715 101.18 302.812 100.701C302.908 100.222 302.861 99.7793 302.669 99.3733L303.476 98.9074L302.824 97.7775L302.017 98.2435C301.588 97.7738 301.109 97.4908 300.58 97.3945C300.051 97.2982 299.566 97.3775 299.124 97.6322C298.619 97.9242 298.295 98.3082 298.154 98.7843C298.013 99.2604 298.012 99.8811 298.153 100.646C298.297 101.467 298.348 102.065 298.307 102.441C298.265 102.816 298.088 103.094 297.776 103.274C297.421 103.479 297.087 103.503 296.775 103.347C296.462 103.19 296.203 102.934 295.998 102.579C295.793 102.224 295.721 101.846 295.784 101.444C295.846 101.042 296.06 100.65 296.427 100.266L295.392 99.4427C294.963 99.8916 294.681 100.366 294.547 100.867C294.412 101.368 294.432 101.905 294.606 102.479L293.766 102.964ZM292.165 104.663C291.649 103.77 291.334 102.833 291.22 101.852C291.105 100.87 291.171 99.9216 291.416 99.005C291.662 98.0885 292.08 97.2339 292.669 96.4415C293.259 95.649 294.001 94.9949 294.894 94.4793C295.787 93.9636 296.724 93.6485 297.705 93.534C298.686 93.4194 299.635 93.4849 300.552 93.7305C301.468 93.9761 302.323 94.3938 303.115 94.9836C303.908 95.5734 304.562 96.3149 305.078 97.208C305.593 98.1012 305.908 99.0383 306.023 100.02C306.138 101.001 306.072 101.95 305.826 102.866C305.581 103.783 305.163 104.637 304.573 105.43C303.983 106.222 303.242 106.876 302.349 107.392C301.456 107.908 300.519 108.223 299.537 108.337C298.556 108.452 297.607 108.386 296.691 108.141C295.774 107.895 294.92 107.477 294.127 106.888C293.335 106.298 292.681 105.556 292.165 104.663Z" fill="#18D4A7"/>
<path d="M293.766 102.964L294.419 104.094L295.226 103.628C295.633 104.11 296.11 104.451 296.657 104.652C297.203 104.853 297.794 104.771 298.429 104.404C298.881 104.143 299.22 103.775 299.448 103.299C299.675 102.823 299.705 102.117 299.538 101.181C299.38 100.411 299.311 99.856 299.329 99.5153C299.348 99.1747 299.497 98.9236 299.777 98.762C300.057 98.6005 300.335 98.5727 300.611 98.6786C300.887 98.7844 301.134 99.0257 301.352 99.4023C301.55 99.7467 301.622 100.064 301.567 100.354C301.512 100.644 301.386 100.903 301.188 101.132L302.204 101.923C302.513 101.587 302.715 101.18 302.812 100.701C302.908 100.222 302.861 99.7793 302.669 99.3733L303.476 98.9074L302.824 97.7775L302.017 98.2435C301.588 97.7738 301.109 97.4908 300.58 97.3945C300.051 97.2982 299.566 97.3775 299.124 97.6322C298.619 97.9242 298.295 98.3082 298.154 98.7843C298.013 99.2604 298.012 99.8811 298.153 100.646C298.297 101.467 298.348 102.065 298.307 102.441C298.265 102.816 298.088 103.094 297.776 103.274C297.421 103.479 297.087 103.503 296.775 103.347C296.462 103.19 296.203 102.934 295.998 102.579C295.793 102.224 295.721 101.846 295.784 101.444C295.846 101.042 296.06 100.65 296.427 100.266L295.392 99.4427C294.963 99.8916 294.681 100.366 294.547 100.867C294.412 101.368 294.432 101.905 294.606 102.479L293.766 102.964ZM292.165 104.663C291.649 103.77 291.334 102.833 291.22 101.852C291.105 100.87 291.171 99.9216 291.416 99.005C291.662 98.0885 292.08 97.2339 292.669 96.4415C293.259 95.649 294.001 94.9949 294.894 94.4793C295.787 93.9636 296.724 93.6485 297.705 93.534C298.686 93.4194 299.635 93.4849 300.552 93.7305C301.468 93.9761 302.323 94.3938 303.115 94.9836C303.908 95.5734 304.562 96.3149 305.078 97.208C305.593 98.1012 305.908 99.0383 306.023 100.02C306.138 101.001 306.072 101.95 305.826 102.866C305.581 103.783 305.163 104.637 304.573 105.43C303.983 106.222 303.242 106.876 302.349 107.392C301.456 107.908 300.519 108.223 299.537 108.337C298.556 108.452 297.607 108.386 296.691 108.141C295.774 107.895 294.92 107.477 294.127 106.888C293.335 106.298 292.681 105.556 292.165 104.663Z" stroke="#001464" stroke-width="2.98205" mask="url(#path-52-outside-15_10761_725)"/>
</g>
<rect x="31.9102" y="273.002" width="31.3116" height="55.2745" rx="2.55605" transform="rotate(-120 31.9102 273.002)" fill="white" stroke="#001464" stroke-width="1.49103"/>
<rect x="76.126" y="238.778" width="16.218" height="3.18567" transform="rotate(-120 76.126 238.778)" fill="#001464"/>
<mask id="mask12_10761_725" style="mask-type:alpha" maskUnits="userSpaceOnUse" x="33" y="231" width="30" height="29">
<rect x="44.4249" y="258.893" width="19.3833" height="19.3833" transform="rotate(-120 44.4249 258.893)" fill="#D9D9D9" stroke="#001464" stroke-width="1.49103"/>
</mask>
<g mask="url(#mask12_10761_725)">
<mask id="path-56-outside-16_10761_725" maskUnits="userSpaceOnUse" x="35.0116" y="232.616" width="25.9545" height="25.9545" fill="black">
<rect fill="white" x="35.0116" y="232.616" width="25.9545" height="25.9545"/>
<path d="M52.8273 243.626L52.175 242.496L51.368 242.962C50.9605 242.48 50.4835 242.138 49.9371 241.937C49.3906 241.736 48.7999 241.819 48.165 242.186C47.7131 242.447 47.3734 242.815 47.1458 243.291C46.9183 243.766 46.8883 244.472 47.0559 245.409C47.2134 246.179 47.2829 246.734 47.2644 247.074C47.2459 247.415 47.0967 247.666 46.817 247.828C46.5372 247.989 46.2591 248.017 45.9828 247.911C45.7065 247.805 45.4596 247.564 45.2421 247.188C45.0433 246.843 44.9714 246.526 45.0264 246.236C45.0813 245.946 45.2077 245.687 45.4055 245.458L44.3894 244.667C44.0811 245.003 43.8787 245.41 43.7822 245.889C43.6857 246.368 43.7332 246.81 43.9245 247.217L43.1175 247.682L43.7698 248.812L44.5769 248.346C45.0059 248.816 45.4849 249.099 46.0139 249.195C46.543 249.292 47.0281 249.212 47.4693 248.958C47.975 248.666 48.2985 248.282 48.4397 247.806C48.5809 247.329 48.5813 246.709 48.4407 245.943C48.2968 245.123 48.2456 244.524 48.2871 244.149C48.3285 243.774 48.5053 243.496 48.8174 243.316C49.1725 243.111 49.5064 243.086 49.8192 243.243C50.132 243.4 50.3909 243.655 50.5959 244.01C50.8009 244.366 50.8723 244.744 50.8102 245.146C50.748 245.547 50.5336 245.94 50.167 246.324L51.2017 247.147C51.6312 246.698 51.913 246.223 52.0472 245.723C52.1814 245.222 52.1616 244.685 51.988 244.111L52.8273 243.626ZM54.4288 241.927C54.9444 242.82 55.2595 243.757 55.3741 244.738C55.4886 245.719 55.4231 246.668 55.1775 247.585C54.9319 248.501 54.5142 249.356 53.9244 250.148C53.3346 250.941 52.5931 251.595 51.7 252.111C50.8069 252.626 49.8697 252.941 48.8885 253.056C47.9073 253.17 46.9584 253.105 46.0418 252.859C45.1253 252.614 44.2708 252.196 43.4783 251.606C42.6858 251.016 42.0317 250.275 41.5161 249.382C41.0004 248.489 40.6853 247.552 40.5708 246.57C40.4562 245.589 40.5217 244.64 40.7673 243.724C41.0129 242.807 41.4306 241.953 42.0204 241.16C42.6103 240.368 43.3517 239.714 44.2449 239.198C45.138 238.682 46.0752 238.367 47.0564 238.253C48.0376 238.138 48.9865 238.204 49.903 238.449C50.8196 238.695 51.6741 239.112 52.4666 239.702C53.259 240.292 53.9131 241.034 54.4288 241.927Z"/>
</mask>
<path d="M52.8273 243.626L52.175 242.496L51.368 242.962C50.9605 242.48 50.4835 242.138 49.9371 241.937C49.3906 241.736 48.7999 241.819 48.165 242.186C47.7131 242.447 47.3734 242.815 47.1458 243.291C46.9183 243.766 46.8883 244.472 47.0559 245.409C47.2134 246.179 47.2829 246.734 47.2644 247.074C47.2459 247.415 47.0967 247.666 46.817 247.828C46.5372 247.989 46.2591 248.017 45.9828 247.911C45.7065 247.805 45.4596 247.564 45.2421 247.188C45.0433 246.843 44.9714 246.526 45.0264 246.236C45.0813 245.946 45.2077 245.687 45.4055 245.458L44.3894 244.667C44.0811 245.003 43.8787 245.41 43.7822 245.889C43.6857 246.368 43.7332 246.81 43.9245 247.217L43.1175 247.682L43.7698 248.812L44.5769 248.346C45.0059 248.816 45.4849 249.099 46.0139 249.195C46.543 249.292 47.0281 249.212 47.4693 248.958C47.975 248.666 48.2985 248.282 48.4397 247.806C48.5809 247.329 48.5813 246.709 48.4407 245.943C48.2968 245.123 48.2456 244.524 48.2871 244.149C48.3285 243.774 48.5053 243.496 48.8174 243.316C49.1725 243.111 49.5064 243.086 49.8192 243.243C50.132 243.4 50.3909 243.655 50.5959 244.01C50.8009 244.366 50.8723 244.744 50.8102 245.146C50.748 245.547 50.5336 245.94 50.167 246.324L51.2017 247.147C51.6312 246.698 51.913 246.223 52.0472 245.723C52.1814 245.222 52.1616 244.685 51.988 244.111L52.8273 243.626ZM54.4288 241.927C54.9444 242.82 55.2595 243.757 55.3741 244.738C55.4886 245.719 55.4231 246.668 55.1775 247.585C54.9319 248.501 54.5142 249.356 53.9244 250.148C53.3346 250.941 52.5931 251.595 51.7 252.111C50.8069 252.626 49.8697 252.941 48.8885 253.056C47.9073 253.17 46.9584 253.105 46.0418 252.859C45.1253 252.614 44.2708 252.196 43.4783 251.606C42.6858 251.016 42.0317 250.275 41.5161 249.382C41.0004 248.489 40.6853 247.552 40.5708 246.57C40.4562 245.589 40.5217 244.64 40.7673 243.724C41.0129 242.807 41.4306 241.953 42.0204 241.16C42.6103 240.368 43.3517 239.714 44.2449 239.198C45.138 238.682 46.0752 238.367 47.0564 238.253C48.0376 238.138 48.9865 238.204 49.903 238.449C50.8196 238.695 51.6741 239.112 52.4666 239.702C53.259 240.292 53.9131 241.034 54.4288 241.927Z" fill="#18D4A7"/>
<path d="M52.8273 243.626L52.175 242.496L51.368 242.962C50.9605 242.48 50.4835 242.138 49.9371 241.937C49.3906 241.736 48.7999 241.819 48.165 242.186C47.7131 242.447 47.3734 242.815 47.1458 243.291C46.9183 243.766 46.8883 244.472 47.0559 245.409C47.2134 246.179 47.2829 246.734 47.2644 247.074C47.2459 247.415 47.0967 247.666 46.817 247.828C46.5372 247.989 46.2591 248.017 45.9828 247.911C45.7065 247.805 45.4596 247.564 45.2421 247.188C45.0433 246.843 44.9714 246.526 45.0264 246.236C45.0813 245.946 45.2077 245.687 45.4055 245.458L44.3894 244.667C44.0811 245.003 43.8787 245.41 43.7822 245.889C43.6857 246.368 43.7332 246.81 43.9245 247.217L43.1175 247.682L43.7698 248.812L44.5769 248.346C45.0059 248.816 45.4849 249.099 46.0139 249.195C46.543 249.292 47.0281 249.212 47.4693 248.958C47.975 248.666 48.2985 248.282 48.4397 247.806C48.5809 247.329 48.5813 246.709 48.4407 245.943C48.2968 245.123 48.2456 244.524 48.2871 244.149C48.3285 243.774 48.5053 243.496 48.8174 243.316C49.1725 243.111 49.5064 243.086 49.8192 243.243C50.132 243.4 50.3909 243.655 50.5959 244.01C50.8009 244.366 50.8723 244.744 50.8102 245.146C50.748 245.547 50.5336 245.94 50.167 246.324L51.2017 247.147C51.6312 246.698 51.913 246.223 52.0472 245.723C52.1814 245.222 52.1616 244.685 51.988 244.111L52.8273 243.626ZM54.4288 241.927C54.9444 242.82 55.2595 243.757 55.3741 244.738C55.4886 245.719 55.4231 246.668 55.1775 247.585C54.9319 248.501 54.5142 249.356 53.9244 250.148C53.3346 250.941 52.5931 251.595 51.7 252.111C50.8069 252.626 49.8697 252.941 48.8885 253.056C47.9073 253.17 46.9584 253.105 46.0418 252.859C45.1253 252.614 44.2708 252.196 43.4783 251.606C42.6858 251.016 42.0317 250.275 41.5161 249.382C41.0004 248.489 40.6853 247.552 40.5708 246.57C40.4562 245.589 40.5217 244.64 40.7673 243.724C41.0129 242.807 41.4306 241.953 42.0204 241.16C42.6103 240.368 43.3517 239.714 44.2449 239.198C45.138 238.682 46.0752 238.367 47.0564 238.253C48.0376 238.138 48.9865 238.204 49.903 238.449C50.8196 238.695 51.6741 239.112 52.4666 239.702C53.259 240.292 53.9131 241.034 54.4288 241.927Z" stroke="#001464" stroke-width="2.98205" mask="url(#path-56-outside-16_10761_725)"/>
</g>
<defs>
<linearGradient id="paint0_linear_10761_725" x1="123.097" y1="104.168" x2="256.624" y2="289.939" gradientUnits="userSpaceOnUse">
<stop stop-color="#7398EE"/>
<stop offset="0.09" stop-color="#80A4EF"/>
<stop offset="0.31" stop-color="#9BBEF3"/>
<stop offset="0.54" stop-color="#AFD1F5"/>
<stop offset="0.77" stop-color="#BBDDF7"/>
<stop offset="1" stop-color="#BFE1F8"/>
</linearGradient>
</defs>
</svg>
