<?xml version="1.0" encoding="UTF-8"?>
<svg id="robot" xmlns="http://www.w3.org/2000/svg" width="2.68in" height="2.37in" xmlns:xlink="http://www.w3.org/1999/xlink" viewBox="0 0 193.05 170.9">
  <defs>
    <style>
      .cls-1 {
        fill: url(#linear-gradient-11);
      }

      .cls-1, .cls-2, .cls-3, .cls-4, .cls-5, .cls-6, .cls-7, .cls-8, .cls-9, .cls-10, .cls-11, .cls-12, .cls-13 {
        stroke: #001464;
        stroke-miterlimit: 2.38;
        stroke-width: .61px;
      }

      .cls-14 {
        fill: url(#linear-gradient-13);
      }

      .cls-2 {
        fill: url(#linear-gradient-10);
      }

      .cls-3 {
        fill: url(#linear-gradient-7);
      }

      .cls-4 {
        fill: url(#linear-gradient-12);
      }

      .cls-5 {
        fill: url(#linear-gradient-4);
      }

      .cls-15 {
        fill: #fff;
      }

      .cls-16 {
        fill: #7399ef;
      }

      .cls-6 {
        fill: url(#linear-gradient-3);
      }

      .cls-7 {
        fill: url(#linear-gradient-8);
      }

      .cls-8 {
        fill: url(#linear-gradient-9);
      }

      .cls-9 {
        fill: url(#linear-gradient-6);
      }

      .cls-10 {
        fill: url(#linear-gradient-5);
      }

      .cls-17 {
        fill: url(#linear-gradient-14);
      }

      .cls-11 {
        fill: url(#linear-gradient-2);
      }

      .cls-12 {
        fill: url(#linear-gradient);
      }

      .cls-13 {
        fill: url(#linear-gradient-15);
      }

	@keyframes bodyBounce {
		0%{
			transform:translate(0%,0%) rotate(0deg);
		}

		0.5%{
			transform:translate(0%,1%) rotate(0deg);
		}

		2.5%{
			transform:translate(0%, -1%) rotate(0deg);
		}

		4.5%{
			transform:translate(2%, 2%) rotate(10deg);
		}

		5%{
			transform:translate(2%, 1%) rotate(10deg);
		}

		45%{
			transform:translate(2%, 1%) rotate(10deg);
		}

		50%{
			transform:translate(0%,2%) rotate(0deg);
		}

		/* Little dance begins */

		58%{
			transform:translate(0%,-1%) rotate(0deg);
		}

		62%{
			transform:translate(0%, 1%) rotate(-3deg);
		}

		66%{
			transform:translate(0%,-1%) rotate(0deg);
		}

		68%{
			transform:translate(0%,1%) rotate(0deg);
		}

		70%{
			transform:translate(0%,-1%) rotate(0deg);
		}

		74%{
			transform:translate(-0%, 1%) rotate(3deg);
		}

		78%{
			transform:translate(0%,-1%) rotate(0deg);
		}

		80%{
			transform:translate(0%,1%) rotate(0deg);
		}

		82%{
			transform:translate(0%,-1%) rotate(0deg);
		}

		86%{
			transform:translate(0%, 1%) rotate(-3deg);
		}

		90%{
			transform:translate(0%,-1%) rotate(0deg);
		}

		92%{
			transform:translate(0%,1%) rotate(0deg);
		}

		94%{
			transform:translate(0%, 0%) rotate(0deg);
		}
	}

	  #body{
		transform-origin:50% 50%;
		animation:bodyBounce 10s linear 0s infinite;
	  }


	  @keyframes headTilt {
		0%{
			transform: rotate(0deg);
		}

		5%{
			transform: rotate(-10deg);
		}

		45%{
			transform: rotate(-10deg);
		}

		50%{
			transform: rotate(0deg);
		}
	}

	#head {
		transform-origin:50% 30%;
		animation:headTilt 10s linear 0s infinite;
	}


	 @keyframes rightArm {
		0%{
			transform: rotate(0deg);
		}

		5%{
			transform: rotate(20deg);
		}

		45%{
			transform: rotate(20deg);
		}

		50%{
			transform: rotate(0deg);
		}

		58%{
			transform: rotate(0deg);
		}

		70%{
			transform: rotate(20deg);
		}

		94%{
			transform: rotate(0deg);
		}
	}

	#right_arm {
		transform-origin:69% 43%;
		animation:rightArm 10s linear 0s infinite;
	}

	@keyframes rightElbow {
		0%{
			transform: rotate(0deg);
		}

		5%{
			transform: rotate(70deg);
		}

		25%{
			transform: rotate(80deg);
		}

		45%{
			transform: rotate(70deg);
		}

		50%{
			transform: rotate(0deg);
		}

		58%{
			transform: rotate(0deg);
		}

		80%{
			transform: rotate(-20deg);
		}

		94%{
			transform: rotate(0deg);
		}
	}

	#right_elbow {
		transform-origin:78% 52%;
		animation:rightElbow 10s linear 0s infinite;
	}

	@keyframes leftArm {
		0%{
			transform: rotate(0deg);
		}

		5%{
			transform: rotate(22deg);
		}

		45%{
			transform: rotate(22deg);
		}

		50%{
			transform: rotate(0deg);
		}

		75%{
			transform: rotate(0deg);
		}

		90%{
			transform: rotate(-20deg);
		}

		98%{
			transform: rotate(0deg);
		}
	}

	#left_arm {
		transform-origin:30% 44%;
		animation:leftArm 10s linear 0s infinite;
	}

	@keyframes leftElbow {
		0% {
			transform: rotate(0deg);
		}

		5% {
			transform: rotate(20deg);
		}

		8% {
			transform: rotate(10deg);
		}

		15% {
			transform: rotate(-40deg);
		}

		20% {
			transform: rotate(0deg);
		}

		25% {
			transform: rotate(-40deg);
		}

		30% {
			transform: rotate(0deg);
		}

		35% {
			transform: rotate(-40deg);
		}

		45% {
			transform: rotate(0deg);
		}

		75%{
			transform: rotate(0deg);
		}

		85%{
			transform: rotate(20deg);
		}

		95%{
			transform: rotate(0deg);
		}
	}

	#left_elbow {
		transform-origin: 19.6% 36%;
		animation: leftElbow 10s linear 0s infinite;
	}

	@keyframes blink {
		0%{
			transform:scaleY(1);
		}
		1%{
			transform:scaleY(0);
		}
		2%{
			transform:scaleY(1);
		}
		4%{
			transform:scaleY(1);
		}
		6%{
			transform:scaleY(0);
		}
		8%{
			transform:scaleY(1);
		}
	}

	#right_eye,#left_eye {
		animation: blink 4s linear 0s infinite;
		transform-origin: 50% 22%;
	}



    </style>
    <linearGradient id="linear-gradient" x1="266.09" y1="932.25" x2="288.76" y2="932.25" gradientTransform="translate(-83.93 -419.63) scale(.59)" gradientUnits="userSpaceOnUse">
      <stop offset="0" stop-color="#fff"/>
      <stop offset=".35" stop-color="#fbfcfd"/>
      <stop offset=".62" stop-color="#f2f3f7"/>
      <stop offset=".87" stop-color="#e1e4ee"/>
      <stop offset="1" stop-color="#d5d9e8"/>
    </linearGradient>
    <linearGradient id="linear-gradient-2" x1="261.08" y1="972.74" x2="293.57" y2="972.74" gradientTransform="translate(-83.93 -419.63) scale(.59)" gradientUnits="userSpaceOnUse">
      <stop offset="0" stop-color="#fff"/>
      <stop offset=".35" stop-color="#fbfcfd"/>
      <stop offset=".62" stop-color="#f2f3f7"/>
      <stop offset=".87" stop-color="#e1e4ee"/>
      <stop offset="1" stop-color="#d5d9e8"/>
    </linearGradient>
    <linearGradient id="linear-gradient-3" x1="313.82" y1="932.25" x2="336.49" y2="932.25" gradientTransform="translate(-83.93 -419.63) scale(.59)" gradientUnits="userSpaceOnUse">
      <stop offset="0" stop-color="#fff"/>
      <stop offset=".35" stop-color="#fbfcfd"/>
      <stop offset=".62" stop-color="#f2f3f7"/>
      <stop offset=".87" stop-color="#e1e4ee"/>
      <stop offset="1" stop-color="#d5d9e8"/>
    </linearGradient>
    <linearGradient id="linear-gradient-4" x1="308.81" y1="972.74" x2="341.29" y2="972.74" gradientTransform="translate(-83.93 -419.63) scale(.59)" gradientUnits="userSpaceOnUse">
      <stop offset="0" stop-color="#fff"/>
      <stop offset=".35" stop-color="#fbfcfd"/>
      <stop offset=".62" stop-color="#f2f3f7"/>
      <stop offset=".87" stop-color="#e1e4ee"/>
      <stop offset="1" stop-color="#d5d9e8"/>
    </linearGradient>
    <linearGradient id="linear-gradient-5" x1="223.54" y1="838.31" x2="251.69" y2="823.45" gradientTransform="translate(-83.93 -419.63) scale(.59)" gradientUnits="userSpaceOnUse">
      <stop offset="0" stop-color="#fff"/>
      <stop offset=".35" stop-color="#fbfcfd"/>
      <stop offset=".62" stop-color="#f2f3f7"/>
      <stop offset=".87" stop-color="#e1e4ee"/>
      <stop offset="1" stop-color="#d5d9e8"/>
    </linearGradient>
    <linearGradient id="linear-gradient-6" x1="194.49" y1="812.44" x2="213.76" y2="802.26" gradientTransform="translate(-83.93 -419.63) scale(.59)" gradientUnits="userSpaceOnUse">
      <stop offset="0" stop-color="#fff"/>
      <stop offset=".35" stop-color="#fbfcfd"/>
      <stop offset=".62" stop-color="#f2f3f7"/>
      <stop offset=".87" stop-color="#e1e4ee"/>
      <stop offset="1" stop-color="#d5d9e8"/>
    </linearGradient>
    <linearGradient id="linear-gradient-7" x1="195.69" y1="775.82" x2="218.71" y2="787.3" gradientTransform="translate(-83.93 -419.63) scale(.59)" gradientUnits="userSpaceOnUse">
      <stop offset="0" stop-color="#fff"/>
      <stop offset=".35" stop-color="#fbfcfd"/>
      <stop offset=".62" stop-color="#f2f3f7"/>
      <stop offset=".87" stop-color="#e1e4ee"/>
      <stop offset="1" stop-color="#d5d9e8"/>
    </linearGradient>
    <linearGradient id="linear-gradient-8" x1="358.56" y1="815.09" x2="371.82" y2="844.02" gradientTransform="translate(-83.93 -419.63) scale(.59)" gradientUnits="userSpaceOnUse">
      <stop offset="0" stop-color="#fff"/>
      <stop offset=".35" stop-color="#fbfcfd"/>
      <stop offset=".62" stop-color="#f2f3f7"/>
      <stop offset=".87" stop-color="#e1e4ee"/>
      <stop offset="1" stop-color="#d5d9e8"/>
    </linearGradient>
    <linearGradient id="linear-gradient-9" x1="518.45" y1="714.43" x2="541.47" y2="725.91" gradientTransform="translate(-33.27 -415.68) rotate(14.76) scale(.59)" gradientUnits="userSpaceOnUse">
      <stop offset="0" stop-color="#fff"/>
      <stop offset=".35" stop-color="#fbfcfd"/>
      <stop offset=".62" stop-color="#f2f3f7"/>
      <stop offset=".87" stop-color="#e1e4ee"/>
      <stop offset="1" stop-color="#d5d9e8"/>
    </linearGradient>
    <linearGradient id="linear-gradient-10" x1="390.31" y1="847.28" x2="399.4" y2="867.1" gradientTransform="translate(-83.93 -419.63) scale(.59)" gradientUnits="userSpaceOnUse">
      <stop offset="0" stop-color="#fff"/>
      <stop offset=".35" stop-color="#fbfcfd"/>
      <stop offset=".62" stop-color="#f2f3f7"/>
      <stop offset=".87" stop-color="#e1e4ee"/>
      <stop offset="1" stop-color="#d5d9e8"/>
    </linearGradient>
    <linearGradient id="linear-gradient-11" x1="293.88" y1="724.19" x2="308.48" y2="724.19" gradientTransform="translate(-83.93 -419.63) scale(.59)" gradientUnits="userSpaceOnUse">
      <stop offset="0" stop-color="#fff"/>
      <stop offset=".35" stop-color="#fbfcfd"/>
      <stop offset=".62" stop-color="#f2f3f7"/>
      <stop offset=".87" stop-color="#e1e4ee"/>
      <stop offset="1" stop-color="#d5d9e8"/>
    </linearGradient>
    <linearGradient id="linear-gradient-12" x1="269.55" y1="769.37" x2="332.87" y2="769.37" gradientTransform="translate(-83.93 -419.63) scale(.59)" gradientUnits="userSpaceOnUse">
      <stop offset="0" stop-color="#fff"/>
      <stop offset=".35" stop-color="#fbfcfd"/>
      <stop offset=".62" stop-color="#f2f3f7"/>
      <stop offset=".87" stop-color="#e1e4ee"/>
      <stop offset="1" stop-color="#d5d9e8"/>
    </linearGradient>
    <linearGradient id="linear-gradient-13" x1="326.66" y1="766.98" x2="309.66" y2="766.98" gradientTransform="translate(-83.93 -419.63) scale(.59)" gradientUnits="userSpaceOnUse">
      <stop offset="0" stop-color="#7399ef"/>
      <stop offset="1" stop-color="#134fe8"/>
    </linearGradient>
    <linearGradient id="linear-gradient-14" x1="292.67" y1="766.98" x2="275.67" y2="766.98" gradientTransform="translate(-83.93 -419.63) scale(.59)" gradientUnits="userSpaceOnUse">
      <stop offset="0" stop-color="#7399ef"/>
      <stop offset="1" stop-color="#134fe8"/>
    </linearGradient>
    <linearGradient id="linear-gradient-15" x1="252.82" y1="854.02" x2="349.84" y2="854.02" gradientTransform="translate(-83.93 -419.63) scale(.59)" gradientUnits="userSpaceOnUse">
      <stop offset="0" stop-color="#fff"/>
      <stop offset=".35" stop-color="#fbfcfd"/>
      <stop offset=".62" stop-color="#f2f3f7"/>
      <stop offset=".87" stop-color="#e1e4ee"/>
      <stop offset="1" stop-color="#d5d9e8"/>
    </linearGradient>
  </defs>
  <g id="left_leg" data-name="left leg">
    <path class="cls-15" d="M77.09,108.71h7.51v31.69h-7.51v-31.69Z"/>
    <path class="cls-16" d="M77.21,108.81h7.32v41.96h-7.32v-41.96Z"/>
    <path id="left_knee" data-name="left knee" class="cls-12" d="M76.78,128.32h8.13c1.64,0,2.97,1.33,2.97,2.97v5.67c0,1.64-1.33,2.97-2.97,2.97h-8.13c-1.64,0-2.97-1.33-2.97-2.97v-5.67c0-1.64,1.33-2.97,2.97-2.97Z"/>
    <path id="left_foot" data-name="left foot" class="cls-11" d="M77.27,150.31h7.03c.84,0,1.68.17,2.47.49.78.32,1.49.8,2.09,1.39.6.6,1.07,1.31,1.4,2.08.33.78.49,1.62.49,2.46v4.39c0,1.31-.52,2.56-1.44,3.49-.93.93-2.18,1.44-3.49,1.44h-10.03c-.65,0-1.29-.12-1.89-.37s-1.14-.61-1.6-1.07c-.46-.46-.82-1-1.07-1.6-.25-.6-.37-1.24-.37-1.89v-4.39c0-1.7.68-3.34,1.88-4.54s2.85-1.88,4.55-1.88h-.01Z"/>
  </g>
  <g id="right_leg" data-name="right leg">
    <path class="cls-15" d="M105.45,108.71h7.51v31.69h-7.51v-31.69Z"/>
    <path class="cls-16" d="M105.52,108.81h7.32v41.96h-7.32s0-41.96,0-41.96Z"/>
    <path id="riight_knee" data-name="riight knee" class="cls-6" d="M105.13,128.32h8.13c1.64,0,2.97,1.33,2.97,2.97v5.67c0,1.64-1.33,2.97-2.97,2.97h-8.13c-1.64,0-2.97-1.33-2.97-2.97v-5.67c0-1.64,1.33-2.97,2.97-2.97Z"/>
    <path id="right_foot" data-name="right foot" class="cls-5" d="M105.62,150.31h7.03c.84,0,1.68.17,2.47.49.78.32,1.49.8,2.08,1.39s1.07,1.31,1.4,2.08c.32.78.49,1.62.49,2.46v4.39c0,1.31-.52,2.56-1.44,3.49-.93.93-2.18,1.44-3.49,1.44h-10.03c-.65,0-1.29-.12-1.89-.37s-1.14-.61-1.6-1.07c-.46-.46-.82-1-1.07-1.6-.25-.6-.37-1.24-.37-1.89v-4.39c0-1.7.68-3.34,1.88-4.54s2.85-1.88,4.55-1.88h-.01Z"/>
  </g>
  <g id="body">
    <path id="neck" class="cls-16" d="M87.01,49.08h15.93v9.18h-15.93v-9.18Z"/>
    <g id="left_arm" data-name="left arm">
      <path class="cls-16" d="M42.86,59.22l13.88,11.52-5.23,4.85-12.59-10.02,3.94-6.34h0Z"/>
      <path class="cls-10" d="M52.65,65.29c-4.76,2.51-6.59,8.41-4.07,13.17,2.51,4.76,8.41,6.58,13.17,4.07,4.76-2.51,6.59-8.41,4.07-13.17-2.51-4.76-8.41-6.58-13.17-4.07Z"/>
      <g id="left_elbow" data-name="left elbow">
        <path class="cls-16" d="M34.22,56.26l7.59.84.75-6.81-7.59-.84s-.75,6.81-.75,6.81Z"/>
        <path class="cls-9" d="M34.15,53.94c-3.31,1.75-4.58,5.84-2.83,9.15,1.75,3.31,5.84,4.57,9.15,2.83,3.31-1.75,4.58-5.84,2.83-9.15-1.75-3.31-5.84-4.57-9.15-2.83Z"/>
        <path class="cls-3" d="M36.51,36.36l-.06-.12-.13-.04h0l-.12-.04-.11.06c-1.29.68-2.36,1.71-3.1,2.96-.74,1.25-1.12,2.69-1.1,4.15.02,1.46.44,2.88,1.22,4.12.78,1.24,1.88,2.23,3.18,2.88s2.76.93,4.22.81,2.85-.64,4.02-1.5,2.09-2.03,2.65-3.37c.56-1.35.73-2.82.5-4.26l-.05-.3-.3.05-2.04.33-.3.05.05.3c.15.96.04,1.93-.33,2.82-.37.89-.97,1.66-1.75,2.23-.78.57-1.7.91-2.66,1s-1.93-.1-2.79-.53-1.59-1.09-2.11-1.91c-.51-.82-.79-1.76-.81-2.73-.01-.96.24-1.91.73-2.74.49-.83,1.2-1.51,2.06-1.97l.27-.14-.14-.27-.97-1.83h0Z"/>
      </g>
    </g>
    <g id="right_arm" data-name="right arm">
      <path class="cls-16" d="M151.7,86.44l-12.82-12.68-4.31,5.68,11.21,11.55,5.93-4.54Z"/>
      <path class="cls-7" d="M141.85,69.06c-2.25-4.9-8.03-7.05-12.93-4.81-4.89,2.25-7.04,8.03-4.8,12.93,2.25,4.89,8.03,7.05,12.93,4.81,4.89-2.25,7.04-8.03,4.8-12.93Z"/>
      <g id="right_elbow" data-name="right elbow">
        <path class="cls-16" d="M151.43,83.41l5.54,5.26,4.73-4.97-5.54-5.26-4.73,4.97Z"/>
        <path class="cls-8" d="M161.72,69.54l-.03-.13-.11-.07h0l-.11-.07-.12.03c-1.42.33-2.72,1.05-3.75,2.07-1.04,1.02-1.77,2.32-2.13,3.73-.35,1.41-.31,2.9.12,4.29.43,1.39,1.25,2.64,2.34,3.6s2.44,1.6,3.87,1.85,2.92.1,4.27-.43c1.35-.53,2.54-1.43,3.42-2.59.88-1.16,1.43-2.54,1.57-3.99l.03-.3-.3-.03-2.06-.21-.3-.03-.03.3c-.1.96-.46,1.88-1.04,2.64-.58.77-1.37,1.36-2.26,1.72-.9.35-1.88.45-2.83.29s-1.84-.59-2.57-1.23c-.72-.64-1.27-1.46-1.55-2.38-.29-.92-.31-1.91-.08-2.84.23-.94.72-1.79,1.41-2.47.69-.68,1.54-1.15,2.49-1.37l.3-.07-.07-.3-.47-2.01h-.02Z"/>
        <path class="cls-2" d="M156.76,86.71c-1.56-3.4-5.58-4.9-8.98-3.34-3.4,1.56-4.89,5.58-3.33,8.98s5.58,4.9,8.98,3.34c3.4-1.56,4.89-5.58,3.33-8.98Z"/>
      </g>
    </g>
    <g id="head">
      <g id="antenna">
        <path class="cls-16" d="M92.57,12.6h4.79v15.14h-4.79v-15.14Z"/>
        <path class="cls-1" d="M91.57,7.25h6.8c.69,0,1.25.56,1.25,1.25v4.07c0,.69-.56,1.25-1.25,1.25h-6.8c-.69,0-1.25-.56-1.25-1.25v-4.07c0-.69.56-1.25,1.25-1.25Z"/>
      </g>
      <path class="cls-16" d="M77.16,26.83h-4.54c-.39,0-.78.08-1.13.23-.36.15-.69.37-.96.64-.27.27-.49.6-.64.96s-.23.75-.23,1.13v7c0,.79.31,1.54.87,2.1.56.56,1.31.87,2.1.87h4.54v-12.94h-.01Z"/>
      <path class="cls-16" d="M112.77,39.77h4.54c.79,0,1.54-.31,2.1-.87.56-.56.87-1.31.87-2.1v-7c0-.78-.31-1.54-.87-2.1-.56-.56-1.31-.87-2.1-.87h-4.54v12.94h0Z"/>
      <path class="cls-4" d="M79.65,23.16h30.63c2.09,0,3.79,1.7,3.79,3.79v20.84c0,2.09-1.7,3.79-3.79,3.79h-30.63c-2.1,0-3.79-1.7-3.79-3.79v-20.84c0-2.09,1.7-3.79,3.79-3.79Z"/>
      <g id="right_eye" data-name="right eye">
        <path id="right_eye-2" data-name="right eye-2" class="cls-14" d="M105.05,40.99c-2.79,0-5.05-2.26-5.05-5.04s2.26-5.04,5.05-5.04,5.05,2.26,5.05,5.04-2.26,5.04-5.05,5.04Z"/>
      </g>
      <path id="left_eye" data-name="left eye" class="cls-17" d="M84.86,40.99c-2.79,0-5.05-2.26-5.05-5.04s2.26-5.04,5.05-5.04,5.05,2.26,5.05,5.04-2.26,5.04-5.05,5.04Z"/>
    </g>
    <path class="cls-16" d="M123.01,84.78h3.99c.42,0,.82-.17,1.12-.46s.46-.69.46-1.12v-18.45c0-.42-.17-.82-.46-1.12s-.69-.46-1.12-.46h-3.99v21.6h0Z"/>
    <path class="cls-16" d="M66.83,63.18h-3.99c-.42,0-.82.17-1.12.46s-.46.69-.46,1.12v18.45c0,.42.17.82.46,1.12s.69.46,1.12.46h3.99v-21.6h0Z"/>
    <path class="cls-13" d="M71.47,57.22h47.11c3.1,0,5.55,2.83,5.55,6.24v48.41c0,3.41-2.45,6.24-5.55,6.24h-47.11c-3.1,0-5.55-2.83-5.55-6.24v-48.41c0-3.41,2.45-6.24,5.55-6.24Z"/>
  </g>
</svg>