<?xml version="1.0" encoding="UTF-8"?>
<svg id="Layer_1" xmlns="http://www.w3.org/2000/svg" version="1.1" xmlns:xlink="http://www.w3.org/1999/xlink" viewBox="0 0 132 101">
  <!-- Generator: Adobe Illustrator 29.4.0, SVG Export Plug-In . SVG Version: 2.1.0 Build 152)  -->
  <defs>
    <style>
      .st0 {
        stroke-width: 5.1px;
      }

      .st0, .st1, .st2, .st3 {
        stroke: #fff;
      }

      .st0, .st1, .st4, .st3 {
        fill: none;
      }

      .st1 {
        stroke-width: 12.76px;
      }

      .st2 {
        stroke-width: 4.5px;
      }

      .st2, .st5 {
        fill: #fff;
      }

      .st6 {
        mask: url(#mask);
      }

      .st7 {
        opacity: .4;
      }

      .st4 {
        stroke: #001464;
        stroke-width: 2.36px;
      }

      .st8 {
        fill: url(#linear-gradient);
        isolation: isolate;
        opacity: .8;
      }

      .st3 {
        stroke-width: 5.58px;
      }
    </style>
    <linearGradient id="linear-gradient" x1="5.28" y1="42.95" x2="127.1" y2="42.95" gradientTransform="translate(0 102) scale(1 -1)" gradientUnits="userSpaceOnUse">
      <stop offset="0" stop-color="#0057d2"/>
      <stop offset=".1" stop-color="#0057d2"/>
      <stop offset=".39" stop-color="#0085e4"/>
      <stop offset=".73" stop-color="#00b4f7"/>
      <stop offset=".9" stop-color="#00c7ff"/>
      <stop offset="1" stop-color="#00c7ff"/>
    </linearGradient>
    <mask id="mask" x="-13.86" y="6.12" width="140.96" height="93.18" maskUnits="userSpaceOnUse">
      <g id="mask0_10899_124">
        <rect class="st5" x="5.28" y="22.16" width="121.82" height="73.78" rx="7.2" ry="7.2"/>
      </g>
    </mask>
  </defs>
  <path class="st5" d="M48.01,3.63l7.02.54,5.31,4.59,1.89,3.87,4.41,3.15,3.87-4.41,5.22-6.39,4.59-1.98,5.58,1.98,3.24,3.78-1.26,6.3-4.41,5.31-11.16,1.08-19.07-.54-5.22-1.89-5.04-6.39,1.26-4.5,3.78-4.5Z"/>
  <path class="st3" d="M78.82,3.54c5.13-1.54,10.33,2.11,10.33,7.27,0,6.41-6.19,10.45-12.91,10.69h-.65s-19.38.01-19.38.01l8.7-5.18.62-.39c3.01-1.94,4.52-4.05,5.97-6.12,1.53-2.19,3.31-4.95,7.09-6.21l.24-.08Z"/>
  <path class="st3" d="M53.66,3.54c-5.13-1.54-10.33,2.11-10.33,7.27,0,6.41,6.19,10.45,12.91,10.69h.65s19.38.01,19.38.01l-8.7-5.18-.62-.39c-3.01-1.94-4.52-4.05-5.97-6.12-1.53-2.19-3.31-4.95-7.09-6.21l-.24-.08Z"/>
  <rect class="st2" x="3.03" y="19.92" width="126.32" height="78.28" rx="9.45" ry="9.45"/>
  <rect class="st8" x="5.28" y="22.16" width="121.82" height="73.78" rx="7.2" ry="7.2"/>
  <g class="st7">
    <g class="st6">
      <g>
        <line class="st1" x1="-9.32" y1="87.64" x2="66.7" y2="10.6"/>
        <line class="st0" x1="2.12" y1="97.51" x2="78.14" y2="20.47"/>
      </g>
    </g>
  </g>
  <path class="st4" d="M75.58,18.72h-9.26c7.91-4.72,7.58-10.61,13.13-12.46,3.54-1.18,6.9,1.35,6.9,4.55,0,4.38-4.55,7.91-10.77,7.91Z"/>
  <path class="st4" d="M56.9,18.72h9.26c-7.91-4.72-7.58-10.61-13.13-12.46-3.54-1.18-6.9,1.35-6.9,4.55,0,4.38,4.55,7.91,10.77,7.91Z"/>
  <path class="st5" d="M37.29,44.37v4.08c-.17.19-.43.39-.78.6-.35.21-.78.39-1.31.54-.53.15-1.15.23-1.86.23-.66,0-1.26-.1-1.79-.31-.54-.21-1-.53-1.38-.93-.38-.41-.68-.92-.89-1.51-.2-.6-.31-1.29-.31-2.06v-.55c0-.77.1-1.46.31-2.06.21-.6.5-1.1.88-1.51.38-.41.83-.73,1.34-.94.52-.21,1.09-.32,1.7-.32.91,0,1.66.15,2.23.44.57.29,1.01.68,1.3,1.19.3.5.48,1.09.54,1.75h-2.3c-.05-.33-.13-.6-.26-.83-.12-.23-.3-.41-.53-.53-.23-.12-.53-.18-.9-.18-.29,0-.55.06-.78.18-.23.12-.43.31-.59.56-.16.25-.29.55-.38.93-.09.37-.13.81-.13,1.31v.57c0,.5.04.93.12,1.3.09.37.21.68.38.93.17.25.39.43.65.56.27.12.58.18.95.18.25,0,.47-.02.65-.06.18-.05.33-.1.45-.16.12-.07.22-.13.28-.19v-1.54h-1.66v-1.64h4.06ZM41.93,39.74v9.93h-2.39v-9.93h2.39ZM46.71,39.74v9.93h-2.39v-9.93h2.39ZM50.57,43.88v1.84h-4.54v-1.84h4.54ZM50.96,39.74v1.85h-4.93v-1.85h4.93ZM57.6,39.74v9.93h-2.39v-9.93h2.39ZM60.58,39.74v1.85h-8.3v-1.85h8.3ZM71.71,46.31h2.39c-.03.69-.22,1.3-.56,1.83-.34.53-.81.94-1.42,1.23-.6.29-1.31.44-2.13.44-.66,0-1.26-.11-1.78-.33-.52-.22-.96-.54-1.32-.96-.36-.42-.63-.93-.83-1.52-.19-.6-.28-1.27-.28-2.01v-.54c0-.75.1-1.42.29-2.01.2-.6.48-1.11.85-1.53.37-.42.81-.75,1.32-.97.51-.22,1.08-.33,1.71-.33.86,0,1.59.15,2.19.46.6.31,1.06.73,1.38,1.28.33.54.52,1.15.58,1.83h-2.39c0-.37-.07-.68-.19-.93-.12-.25-.3-.45-.56-.57s-.59-.19-1.02-.19c-.3,0-.55.05-.77.16-.22.11-.4.28-.55.52-.15.24-.25.54-.33.92-.07.37-.1.82-.1,1.35v.55c0,.53.03.98.1,1.35.06.37.17.68.31.91.14.24.32.41.55.53.23.11.5.16.83.16.36,0,.67-.06.92-.17.25-.12.44-.3.58-.53.14-.24.21-.55.22-.92ZM80.14,41.83l-2.42,7.84h-2.57l3.65-9.93h1.63l-.29,2.09ZM82.14,49.67l-2.43-7.84-.31-2.09h1.65l3.67,9.93h-2.58ZM82.05,45.97v1.85h-5.09v-1.85h5.09ZM86.15,39.74h3.91c.76,0,1.43.11,1.99.34.56.23,1,.56,1.3,1.01.31.45.46,1,.46,1.65,0,.57-.09,1.04-.27,1.43-.18.38-.43.7-.74.95-.31.25-.68.45-1.1.61l-.78.44h-3.28v-1.85s2.41,0,2.41,0c.3,0,.56-.05.76-.16.2-.11.35-.26.45-.46.1-.2.16-.45.16-.73s-.05-.53-.16-.74c-.1-.2-.26-.36-.46-.47-.2-.11-.45-.16-.74-.16h-1.51v8.08h-2.39v-9.93ZM91.58,49.67l-2.2-4.39h2.54s2.22,4.29,2.22,4.29v.1h-2.56ZM99.18,49.67h-2.2v-1.84h2.2c.45,0,.84-.11,1.15-.33.32-.22.56-.54.72-.98.17-.44.25-.97.25-1.61v-.43c0-.48-.05-.9-.14-1.25-.09-.36-.23-.67-.41-.91-.18-.25-.41-.43-.68-.55-.27-.12-.58-.18-.93-.18h-2.21v-1.85h2.21c.67,0,1.29.12,1.85.35.56.23,1.05.55,1.46.98.41.42.73.93.95,1.51.23.58.34,1.22.34,1.92v.42c0,.7-.11,1.34-.34,1.92-.22.58-.54,1.08-.95,1.51-.41.42-.89.75-1.45.98-.56.23-1.16.34-1.83.34ZM98.35,39.74v9.93h-2.39v-9.93h2.39Z"/>
  <path class="st5" d="M38.85,53.92v4.36h-2.38v-4.36h2.38ZM38.56,78.37v4.04h-2.38v-4.04h2.38ZM39.56,73.37c0-.55-.08-1-.25-1.36-.17-.36-.44-.67-.82-.94-.38-.27-.88-.54-1.51-.81-1.33-.54-2.5-1.09-3.52-1.66-1.01-.57-1.8-1.28-2.38-2.13-.57-.85-.85-1.95-.85-3.31,0-1.24.3-2.32.91-3.23.62-.92,1.47-1.63,2.55-2.13,1.09-.51,2.34-.76,3.76-.76,1.08,0,2.06.16,2.95.48.89.32,1.66.78,2.31,1.39.65.6,1.15,1.34,1.5,2.22.35.87.52,1.86.52,2.97h-5.05c0-.57-.06-1.06-.18-1.47-.11-.41-.27-.74-.48-1-.21-.26-.45-.45-.73-.57-.28-.13-.58-.19-.91-.19-.5,0-.9.11-1.21.33-.31.21-.53.49-.67.84-.14.35-.21.74-.21,1.17s.07.84.22,1.18c.16.33.43.64.81.93.38.28.9.57,1.56.87,1.3.55,2.46,1.12,3.47,1.71,1.02.59,1.82,1.31,2.4,2.17.59.85.88,1.95.88,3.29s-.3,2.41-.91,3.32c-.61.91-1.46,1.6-2.55,2.08-1.09.48-2.35.72-3.77.72-.96,0-1.91-.12-2.86-.37-.94-.25-1.8-.65-2.58-1.21-.77-.57-1.38-1.32-1.84-2.26-.46-.94-.69-2.09-.69-3.46h5.05c0,.67.08,1.23.24,1.68.16.45.37.81.64,1.08.28.26.59.45.94.57.35.11.71.16,1.09.16.51,0,.92-.1,1.24-.3.32-.21.55-.48.7-.82.16-.35.24-.73.24-1.15ZM64.05,75.26v3.89h-15.22v-3.29l7.01-7.37c.62-.71,1.12-1.34,1.5-1.9.38-.57.65-1.08.82-1.54.18-.46.27-.87.27-1.24,0-.63-.09-1.15-.28-1.57-.18-.43-.45-.75-.81-.97-.35-.22-.78-.33-1.3-.33s-.97.15-1.36.45c-.39.3-.69.71-.91,1.23-.21.52-.31,1.1-.31,1.75h-5.06c0-1.34.32-2.56.97-3.67.66-1.11,1.57-1.99,2.74-2.65,1.17-.67,2.52-1,4.06-1s2.96.25,4.04.75c1.09.5,1.91,1.22,2.46,2.17.56.94.84,2.07.84,3.4,0,.76-.12,1.49-.36,2.19-.24.7-.58,1.39-1.03,2.08-.45.68-1,1.38-1.65,2.1-.64.72-1.37,1.48-2.19,2.29l-2.82,3.25h8.6ZM72.47,69.43l-4.01-.94,1.32-11.14h12.75v3.92h-8.63l-.49,4.33c.24-.14.64-.3,1.21-.49.58-.2,1.22-.3,1.92-.3,1.08,0,2.03.16,2.86.49.84.32,1.55.79,2.13,1.42.58.62,1.01,1.38,1.3,2.29.3.91.45,1.95.45,3.12,0,.94-.15,1.85-.46,2.73-.3.87-.76,1.65-1.39,2.35-.62.69-1.4,1.24-2.35,1.65-.95.4-2.07.6-3.37.6-.97,0-1.91-.15-2.83-.45-.92-.3-1.75-.73-2.49-1.29-.73-.57-1.31-1.25-1.74-2.05-.42-.81-.62-1.71-.61-2.71h5.08c.03.53.15.99.37,1.38.22.39.51.69.88.91.38.21.81.31,1.3.31s.91-.1,1.24-.3c.33-.2.59-.47.78-.82.19-.35.32-.75.4-1.2.08-.46.12-.94.12-1.45,0-.54-.06-1.02-.18-1.45-.11-.43-.29-.79-.54-1.09-.25-.31-.57-.54-.97-.7-.39-.16-.86-.24-1.41-.24-.73,0-1.3.12-1.72.37-.42.25-.72.5-.91.76ZM102.63,66.26v3.98c0,1.57-.18,2.93-.56,4.09-.36,1.16-.88,2.12-1.56,2.88-.67.76-1.47,1.32-2.4,1.69-.93.37-1.95.55-3.07.55-.9,0-1.74-.11-2.52-.34-.78-.24-1.48-.6-2.11-1.08-.62-.49-1.15-1.1-1.6-1.83-.45-.73-.79-1.59-1.03-2.58-.24-1-.36-2.13-.36-3.38v-3.98c0-1.58.18-2.94.54-4.09.37-1.16.89-2.12,1.57-2.88.68-.76,1.48-1.32,2.41-1.69.93-.37,1.95-.55,3.07-.55.9,0,1.73.12,2.5.36.78.23,1.48.59,2.11,1.08.63.48,1.16,1.08,1.6,1.81.45.73.79,1.59,1.03,2.59.24.99.36,2.11.36,3.37ZM97.58,70.86v-5.24c0-.7-.04-1.31-.12-1.83-.07-.52-.18-.96-.33-1.32-.14-.36-.31-.65-.52-.87-.21-.23-.45-.39-.72-.49-.26-.11-.55-.16-.87-.16-.4,0-.76.08-1.08.25-.31.16-.57.42-.79.78-.22.36-.39.84-.51,1.44-.11.6-.16,1.33-.16,2.2v5.24c0,.71.04,1.33.1,1.86.08.52.19.96.33,1.33.15.36.33.65.54.88.21.22.45.38.72.48.27.1.56.15.88.15.39,0,.74-.08,1.05-.24.31-.16.57-.42.79-.78.23-.37.4-.85.51-1.45.12-.61.18-1.35.18-2.23Z"/>
</svg>