<svg width="132" height="101" viewBox="0 0 132 101" fill="none" xmlns="http://www.w3.org/2000/svg">
<path d="M48.0141 3.62981L55.032 4.16965L60.3404 8.75827L62.2298 12.6271L66.6385 15.7762L70.5073 11.3675L75.7257 4.9794L80.3143 3L85.8927 4.9794L89.1317 8.75827L87.8721 15.0564L83.4634 20.3648L72.3068 21.4444L53.2325 20.9046L48.0141 19.0152L42.9756 12.6271L44.2352 8.12846L48.0141 3.62981Z" fill="white"/>
<path d="M78.8188 3.54053C83.952 1.99663 89.1477 5.65514 89.1479 10.8101C89.1479 17.2186 82.9536 21.2564 76.2358 21.5024L75.5845 21.5142H56.2017L64.897 16.3296L65.52 15.9438C68.5297 14.0037 70.041 11.8987 71.4868 9.82471C73.0154 7.63199 74.796 4.87736 78.5747 3.61768L78.8188 3.54053Z" stroke="white" stroke-width="5.57832"/>
<path d="M53.6641 3.54053C48.5309 1.99663 43.3352 5.65514 43.335 10.8101C43.335 17.2186 49.5293 21.2564 56.2471 21.5024L56.8984 21.5142H76.2812L67.5859 16.3296L66.9629 15.9438C63.9532 14.0037 62.4419 11.8987 60.9961 9.82471C59.4675 7.63199 57.6869 4.87736 53.9082 3.61768L53.6641 3.54053Z" stroke="white" stroke-width="5.57832"/>
<rect x="3.02778" y="19.9152" width="126.322" height="78.2764" rx="9.44715" fill="white" stroke="white" stroke-width="4.49865"/>
<rect opacity="0.8" x="5.2771" y="22.1646" width="121.823" height="73.7778" rx="7.19783" fill="url(#paint0_linear_10899_124)"/>
<g opacity="0.4">
<mask id="mask0_10899_124" style="mask-type:alpha" maskUnits="userSpaceOnUse" x="5" y="22" width="123" height="74">
<rect x="5.2771" y="22.1646" width="121.823" height="73.7778" rx="7.19783" fill="white"/>
</mask>
<g mask="url(#mask0_10899_124)">
<line x1="58.68" y1="111.64" x2="134.7" y2="34.6001" stroke="white" stroke-width="12.755"/>
<line x1="72.1178" y1="123.511" x2="148.137" y2="46.4709" stroke="white" stroke-width="5.10199"/>
</g>
</g>
<path d="M75.5845 18.7249L66.3257 18.7249C74.2378 14.0076 73.9011 8.11588 79.4564 6.26395C82.9915 5.08544 86.3584 7.61197 86.3584 10.8105C86.3584 15.1874 81.8131 18.7249 75.5845 18.7249Z" stroke="#001464" stroke-width="2.35679"/>
<path d="M56.8984 18.7249L66.1572 18.7249C58.2452 14.0076 58.5818 8.11588 53.0266 6.26395C49.4914 5.08544 46.1245 7.61197 46.1245 10.8105C46.1245 15.1874 50.6698 18.7249 56.8984 18.7249Z" stroke="#001464" stroke-width="2.35679"/>
<path d="M37.2945 44.3664V48.4444C37.1263 48.6308 36.8672 48.8308 36.5171 49.0445C36.1716 49.2536 35.7352 49.4332 35.2078 49.5832C34.6804 49.7332 34.0599 49.8083 33.3461 49.8083C32.6869 49.8083 32.0891 49.7037 31.5527 49.4946C31.0162 49.2809 30.5548 48.9695 30.1683 48.5603C29.7865 48.1466 29.4909 47.642 29.2818 47.0464C29.0772 46.4463 28.975 45.7599 28.975 44.987V44.4346C28.975 43.6618 29.0795 42.9753 29.2886 42.3752C29.4978 41.7751 29.791 41.2705 30.1683 40.8613C30.5502 40.4476 30.998 40.1339 31.5117 39.9203C32.03 39.7066 32.5983 39.5997 33.2166 39.5997C34.1304 39.5997 34.8737 39.7452 35.4465 40.0362C36.0193 40.3226 36.4535 40.7204 36.749 41.2296C37.0445 41.7342 37.2241 42.3184 37.2877 42.9821H34.9896C34.9441 42.6548 34.8577 42.3775 34.7305 42.1502C34.6077 41.9183 34.4304 41.7433 34.1985 41.6251C33.9667 41.5023 33.6666 41.441 33.2984 41.441C33.012 41.441 32.7506 41.5023 32.5142 41.6251C32.2823 41.7478 32.0846 41.9342 31.9209 42.1843C31.7572 42.4298 31.6299 42.7389 31.539 43.1117C31.4526 43.4845 31.4095 43.9209 31.4095 44.421V44.987C31.4095 45.4825 31.4504 45.9167 31.5322 46.2895C31.6186 46.6623 31.7459 46.9737 31.9141 47.2237C32.0868 47.4692 32.3051 47.6556 32.5687 47.7829C32.837 47.9057 33.1529 47.967 33.5166 47.967C33.7712 47.967 33.9894 47.9466 34.1713 47.9057C34.3531 47.8602 34.5031 47.8057 34.6213 47.742C34.7441 47.6738 34.8373 47.6102 34.9009 47.5511V46.0099H33.237V44.3664H37.2945ZM41.9344 39.743V49.6719H39.5476V39.743H41.9344ZM46.7106 39.743V49.6719H44.317V39.743H46.7106ZM50.5704 43.8755V45.7167H46.0287V43.8755H50.5704ZM50.9591 39.743V41.591H46.0287V39.743H50.9591ZM57.597 39.743V49.6719H55.2034V39.743H57.597ZM60.5838 39.743V41.591H52.2847V39.743H60.5838ZM71.7116 46.31H74.0984C74.0665 47.001 73.8801 47.6102 73.5392 48.1375C73.1982 48.6649 72.7254 49.0763 72.1208 49.3718C71.5207 49.6628 70.8114 49.8083 69.9931 49.8083C69.3294 49.8083 68.7361 49.6969 68.2133 49.4741C67.695 49.2514 67.254 48.9308 66.8903 48.5126C66.5312 48.0943 66.2561 47.5874 66.0652 46.9919C65.8788 46.3963 65.7856 45.7258 65.7856 44.9802V44.4415C65.7856 43.6959 65.8834 43.0253 66.0788 42.4298C66.2789 41.8297 66.5607 41.3205 66.9244 40.9022C67.2927 40.4794 67.7337 40.1567 68.2474 39.9339C68.7611 39.7111 69.3317 39.5997 69.959 39.5997C70.8228 39.5997 71.5525 39.7543 72.148 40.0635C72.7436 40.3726 73.205 40.7977 73.5324 41.3387C73.8597 41.8751 74.0529 42.4866 74.112 43.1731H71.7252C71.7161 42.8003 71.6525 42.4889 71.5343 42.2388C71.4161 41.9842 71.2297 41.7933 70.9751 41.666C70.7205 41.5387 70.3818 41.4751 69.959 41.4751C69.6635 41.4751 69.4067 41.5296 69.1884 41.6387C68.9702 41.7478 68.7884 41.9206 68.6429 42.157C68.4974 42.3934 68.3883 42.7003 68.3156 43.0776C68.2474 43.4504 68.2133 43.9005 68.2133 44.4278V44.9802C68.2133 45.5075 68.2451 45.9576 68.3088 46.3304C68.3724 46.7032 68.4747 47.0078 68.6156 47.2442C68.7566 47.4806 68.9384 47.6556 69.1612 47.7693C69.3885 47.8784 69.6658 47.933 69.9931 47.933C70.3568 47.933 70.6637 47.8761 70.9137 47.7625C71.1638 47.6443 71.357 47.467 71.4934 47.2306C71.6298 46.9896 71.7025 46.6827 71.7116 46.31ZM80.1362 41.8297L77.7153 49.6719H75.1444L78.7928 39.743H80.4226L80.1362 41.8297ZM82.141 49.6719L79.7134 41.8297L79.3997 39.743H81.05L84.7187 49.6719H82.141ZM82.0456 45.969V47.817H76.9516V45.969H82.0456ZM86.1467 39.743H90.0542C90.8179 39.743 91.4817 39.8566 92.0454 40.0839C92.6092 40.3112 93.0433 40.6477 93.3479 41.0932C93.6571 41.5387 93.8116 42.0888 93.8116 42.7435C93.8116 43.3117 93.723 43.7868 93.5457 44.1687C93.3684 44.5506 93.1206 44.8665 92.8024 45.1166C92.4887 45.3621 92.1227 45.5644 91.7045 45.7235L90.9202 46.1667H87.6401L87.6265 44.3187H90.0542C90.3588 44.3187 90.6111 44.2642 90.8111 44.1551C91.0112 44.0459 91.1612 43.8914 91.2612 43.6913C91.3658 43.4868 91.418 43.2435 91.418 42.9617C91.418 42.6753 91.3658 42.4298 91.2612 42.2252C91.1566 42.0206 91.0021 41.8638 90.7975 41.7547C90.5975 41.6455 90.3497 41.591 90.0542 41.591H88.5403V49.6719H86.1467V39.743ZM91.5817 49.6719L89.3859 45.2802L91.9227 45.2666L94.1458 49.5696V49.6719H91.5817ZM99.1811 49.6719H96.9785L96.9921 47.8307H99.1811C99.6358 47.8307 100.02 47.7216 100.334 47.5033C100.652 47.2851 100.893 46.9601 101.056 46.5282C101.225 46.0917 101.309 45.5553 101.309 44.9188V44.4892C101.309 44.0118 101.261 43.5936 101.166 43.2344C101.075 42.8707 100.938 42.5684 100.756 42.3275C100.575 42.082 100.347 41.8979 100.074 41.7751C99.8063 41.6524 99.4971 41.591 99.1471 41.591H96.9376V39.743H99.1471C99.8199 39.743 100.436 39.8589 100.995 40.0907C101.559 40.3181 102.045 40.6454 102.454 41.0727C102.868 41.4955 103.186 41.9979 103.409 42.5798C103.636 43.1572 103.75 43.7982 103.75 44.5028V44.9188C103.75 45.6189 103.636 46.2599 103.409 46.8419C103.186 47.4238 102.87 47.9261 102.461 48.3489C102.052 48.7717 101.568 49.0991 101.009 49.3309C100.454 49.5582 99.8449 49.6719 99.1811 49.6719ZM98.3492 39.743V49.6719H95.9556V39.743H98.3492Z" fill="white"/>
<path d="M38.8547 53.9161V58.2744H36.4734V53.9161H38.8547ZM38.5552 78.3735V82.4173H36.1738V78.3735H38.5552ZM39.5586 73.3712C39.5586 72.8221 39.4737 72.3678 39.304 72.0083C39.1343 71.6489 38.8597 71.3344 38.4803 71.0648C38.1008 70.7952 37.5966 70.5256 36.9676 70.256C35.6396 69.7169 34.4664 69.1627 33.448 68.5936C32.4396 68.0245 31.6458 67.3155 31.0667 66.4668C30.4975 65.6182 30.213 64.5148 30.213 63.1569C30.213 61.9188 30.5175 60.8405 31.1266 59.9219C31.7456 59.0033 32.5943 58.2944 33.6727 57.7952C34.761 57.286 36.0141 57.0314 37.4319 57.0314C38.5102 57.0314 39.4937 57.1911 40.3823 57.5106C41.271 57.8301 42.0398 58.2944 42.6888 58.9035C43.3378 59.5026 43.837 60.2414 44.1865 61.1201C44.536 61.9887 44.7107 62.9772 44.7107 64.0855H39.6634C39.6634 63.5164 39.6035 63.0271 39.4837 62.6178C39.3739 62.2084 39.2141 61.8739 39.0045 61.6143C38.7948 61.3547 38.5502 61.165 38.2706 61.0452C37.991 60.9154 37.6865 60.8505 37.357 60.8505C36.8578 60.8505 36.4534 60.9603 36.1439 61.18C35.8343 61.3897 35.6097 61.6692 35.4699 62.0187C35.3301 62.3682 35.2602 62.7576 35.2602 63.1869C35.2602 63.6362 35.3351 64.0306 35.4849 64.3701C35.6446 64.6996 35.9142 65.0091 36.2936 65.2986C36.673 65.5782 37.1922 65.8678 37.8512 66.1673C39.1492 66.7165 40.3075 67.2856 41.3259 67.8747C42.3443 68.4638 43.1431 69.1877 43.7222 70.0463C44.3113 70.895 44.6058 71.9934 44.6058 73.3413C44.6058 74.6393 44.3013 75.7476 43.6923 76.6662C43.0832 77.5748 42.2345 78.2687 41.1462 78.748C40.0578 79.2272 38.7998 79.4669 37.372 79.4669C36.4134 79.4669 35.4599 79.3421 34.5114 79.0924C33.5728 78.8428 32.7141 78.4384 31.9353 77.8793C31.1665 77.3102 30.5525 76.5563 30.0932 75.6178C29.6339 74.6792 29.4042 73.526 29.4042 72.1581H34.4515C34.4515 72.8271 34.5313 73.3862 34.6911 73.8355C34.8508 74.2848 35.0655 74.6443 35.3351 74.9139C35.6147 75.1735 35.9292 75.3632 36.2787 75.483C36.6281 75.5928 36.9926 75.6477 37.372 75.6477C37.8812 75.6477 38.2956 75.5479 38.6151 75.3482C38.9346 75.1385 39.1692 74.8639 39.319 74.5245C39.4787 74.175 39.5586 73.7906 39.5586 73.3712ZM64.0519 75.2583V79.1523H48.8353V75.8574L55.8446 68.4887C56.4636 67.7798 56.9628 67.1458 57.3423 66.5867C57.7217 66.0175 57.9963 65.5033 58.166 65.044C58.3457 64.5847 58.4356 64.1704 58.4356 63.8009C58.4356 63.1719 58.3407 62.6477 58.151 62.2284C57.9713 61.799 57.7017 61.4745 57.3423 61.2549C56.9928 61.0352 56.5585 60.9254 56.0393 60.9254C55.5201 60.9254 55.0658 61.0751 54.6764 61.3747C54.287 61.6742 53.9824 62.0836 53.7628 62.6028C53.5531 63.122 53.4483 63.7061 53.4483 64.3551H48.386C48.386 63.0172 48.7105 61.794 49.3595 60.6857C50.0185 59.5774 50.9321 58.6938 52.1003 58.0348C53.2685 57.3658 54.6214 57.0314 56.1591 57.0314C57.7666 57.0314 59.1145 57.281 60.2029 57.7802C61.2912 58.2794 62.1099 59.0033 62.6591 59.9519C63.2182 60.8904 63.4978 62.0237 63.4978 63.3516C63.4978 64.1105 63.378 64.8394 63.1384 65.5383C62.8987 66.2372 62.5543 66.9311 62.1049 67.6201C61.6556 68.299 61.1065 68.998 60.4575 69.7169C59.8185 70.4357 59.0896 71.1996 58.2708 72.0083L55.4552 75.2583H64.0519ZM72.475 69.4323L68.4612 68.4887L69.7791 57.3459H82.5245V61.2698H73.8978L73.4036 65.5982C73.6432 65.4584 74.0476 65.2937 74.6167 65.1039C75.1958 64.9043 75.8348 64.8044 76.5338 64.8044C77.6121 64.8044 78.5656 64.9692 79.3944 65.2986C80.2331 65.6182 80.942 66.0924 81.5211 66.7215C82.1002 67.3405 82.5345 68.1043 82.8241 69.0129C83.1236 69.9215 83.2734 70.9599 83.2734 72.1281C83.2734 73.0667 83.1186 73.9753 82.8091 74.854C82.5096 75.7226 82.0453 76.5064 81.4162 77.2053C80.7972 77.8943 80.0134 78.4434 79.0649 78.8528C78.1163 79.2522 76.9931 79.4519 75.695 79.4519C74.7265 79.4519 73.783 79.3021 72.8644 79.0026C71.9458 78.703 71.1171 78.2737 70.3782 77.7146C69.6493 77.1454 69.0702 76.4615 68.6409 75.6627C68.2215 74.854 68.0169 73.9503 68.0268 72.9519H73.104C73.134 73.4811 73.2588 73.9404 73.4785 74.3298C73.6981 74.7192 73.9927 75.0237 74.3621 75.2434C74.7415 75.453 75.1758 75.5579 75.6651 75.5579C76.1643 75.5579 76.5787 75.458 76.9082 75.2583C77.2377 75.0586 77.4973 74.7841 77.687 74.4346C77.8767 74.0851 78.0115 73.6857 78.0914 73.2364C78.1712 72.7771 78.2112 72.2929 78.2112 71.7837C78.2112 71.2445 78.1513 70.7602 78.0315 70.3309C77.9216 69.9016 77.7419 69.5371 77.4923 69.2376C77.2427 68.9281 76.9182 68.6934 76.5188 68.5337C76.1294 68.3739 75.6601 68.294 75.1109 68.294C74.3821 68.294 73.8079 68.4188 73.3886 68.6685C72.9692 68.9181 72.6647 69.1727 72.475 69.4323ZM102.63 66.2572V70.241C102.63 71.8086 102.445 73.1715 102.075 74.3298C101.716 75.488 101.197 76.4465 100.518 77.2053C99.8489 77.9642 99.0501 78.5283 98.1216 78.8977C97.193 79.2672 96.1696 79.4519 95.0513 79.4519C94.1527 79.4519 93.314 79.3371 92.5352 79.1074C91.7564 78.8678 91.0524 78.5083 90.4234 78.0291C89.8044 77.5398 89.2702 76.9308 88.8209 76.2019C88.3716 75.473 88.0271 74.6143 87.7875 73.6258C87.5478 72.6274 87.428 71.4991 87.428 70.241V66.2572C87.428 64.6796 87.6077 63.3167 87.9672 62.1685C88.3366 61.0102 88.8608 60.0517 89.5398 59.2929C90.2187 58.534 91.0225 57.9699 91.9511 57.6005C92.8796 57.231 93.9031 57.0463 95.0213 57.0463C95.92 57.0463 96.7537 57.1661 97.5225 57.4058C98.3013 57.6354 99.0052 57.9949 99.6342 58.4841C100.263 58.9634 100.797 59.5675 101.237 60.2963C101.686 61.0252 102.031 61.8889 102.27 62.8874C102.51 63.8758 102.63 64.9991 102.63 66.2572ZM97.5824 70.8551V65.6132C97.5824 64.9142 97.5425 64.3052 97.4626 63.786C97.3927 63.2668 97.2829 62.8274 97.1331 62.468C96.9933 62.1085 96.8186 61.819 96.6089 61.5993C96.3992 61.3697 96.1596 61.2049 95.89 61.1051C95.6304 60.9953 95.3408 60.9403 95.0213 60.9403C94.6219 60.9403 94.2625 61.0252 93.943 61.195C93.6335 61.3547 93.3689 61.6143 93.1492 61.9738C92.9295 62.3332 92.7598 62.8125 92.64 63.4115C92.5302 64.0106 92.4752 64.7445 92.4752 65.6132V70.8551C92.4752 71.564 92.5102 72.1831 92.5801 72.7122C92.66 73.2314 92.7698 73.6758 92.9096 74.0452C93.0593 74.4046 93.2391 74.6992 93.4488 74.9288C93.6584 75.1485 93.8981 75.3083 94.1676 75.4081C94.4372 75.5079 94.7318 75.5579 95.0513 75.5579C95.4407 75.5579 95.7902 75.478 96.0997 75.3182C96.4092 75.1585 96.6738 74.8989 96.8935 74.5394C97.1231 74.17 97.2928 73.6857 97.4027 73.0867C97.5225 72.4776 97.5824 71.7338 97.5824 70.8551Z" fill="white"/>
<defs>
<linearGradient id="paint0_linear_10899_124" x1="5.24327" y1="59.0635" x2="127.067" y2="59.0635" gradientUnits="userSpaceOnUse">
<stop stop-color="#0057D2"/>
<stop offset="0.1" stop-color="#0057D2"/>
<stop offset="0.39" stop-color="#0085E4"/>
<stop offset="0.73" stop-color="#00B4F7"/>
<stop offset="0.9" stop-color="#00C7FF"/>
<stop offset="1" stop-color="#00C7FF"/>
</linearGradient>
</defs>
</svg>
