<svg width="18" height="19" viewBox="0 0 18 19" fill="none" xmlns="http://www.w3.org/2000/svg">
<path d="M15.5455 1.72727H14.6818V0.863636C14.6818 0.388636 14.2932 0 13.8182 0C13.3432 0 12.9545 0.388636 12.9545 0.863636V1.72727H4.31818V0.863636C4.31818 0.388636 3.92955 0 3.45455 0C2.97955 0 2.59091 0.388636 2.59091 0.863636V1.72727H1.72727C0.777273 1.72727 0 2.50455 0 3.45455V17.2727C0 18.2227 0.777273 19 1.72727 19H15.5455C16.4955 19 17.2727 18.2227 17.2727 17.2727V3.45455C17.2727 2.50455 16.4955 1.72727 15.5455 1.72727ZM14.6818 17.2727H2.59091C2.11591 17.2727 1.72727 16.8841 1.72727 16.4091V6.04545H15.5455V16.4091C15.5455 16.8841 15.1568 17.2727 14.6818 17.2727Z" fill="#001464"/>
</svg>
