<svg width="372" height="391" viewBox="0 0 372 391" fill="none" xmlns="http://www.w3.org/2000/svg">
<g filter="url(#filter0_d_5579_3192)">
<path d="M146.436 115.018C146.192 114.791 146.025 114.48 145.995 114.123L145.671 110.075C145.602 109.217 146.684 108.779 147.224 109.448C147.534 109.832 147.775 110.439 148.109 111.334L148.595 113.313L151.518 114.789L151.673 114.879C151.673 114.879 151.678 114.877 151.687 114.875L155.303 116.702C155.349 116.726 155.396 116.746 155.443 116.765C155.459 116.77 155.475 116.775 155.49 116.78C155.522 116.791 155.555 116.803 155.587 116.812C155.606 116.817 155.624 116.821 155.644 116.826C155.674 116.833 155.702 116.84 155.732 116.844C155.753 116.848 155.774 116.85 155.795 116.854C155.823 116.858 155.85 116.861 155.877 116.863C155.9 116.865 155.921 116.865 155.944 116.866C155.97 116.867 155.996 116.868 156.022 116.868C156.046 116.867 156.069 116.866 156.092 116.864C156.116 116.862 156.142 116.861 156.166 116.858C156.19 116.855 156.214 116.851 156.238 116.848C156.261 116.844 156.285 116.84 156.308 116.836C156.332 116.831 156.357 116.825 156.381 116.818C156.402 116.812 156.424 116.807 156.445 116.801C156.47 116.794 156.495 116.785 156.519 116.776C156.539 116.768 156.559 116.761 156.578 116.754C156.603 116.744 156.628 116.733 156.653 116.721C156.671 116.713 156.689 116.704 156.707 116.694C156.731 116.681 156.757 116.667 156.782 116.653C156.798 116.643 156.814 116.634 156.829 116.623C156.854 116.607 156.879 116.59 156.904 116.573C156.917 116.563 156.931 116.552 156.945 116.542C156.97 116.523 156.995 116.503 157.019 116.482C157.031 116.472 157.041 116.461 157.052 116.45C157.076 116.427 157.101 116.404 157.124 116.38C157.133 116.369 157.142 116.359 157.151 116.35C157.175 116.324 157.199 116.296 157.221 116.268C157.228 116.26 157.232 116.251 157.238 116.242C157.261 116.211 157.285 116.178 157.306 116.144C157.332 116.105 157.355 116.063 157.377 116.02L158.164 111.634C158.237 111.491 159.202 111.486 159.227 111.334C161.053 113.713 162.344 114.746 162.313 116.02L166.463 118.888C162.827 119.976 161.743 123.008 161.018 124.422C161.014 124.43 161.012 124.438 161.008 124.446L158.342 121.001L154.31 119.822C153.866 119.779 152.947 119.124 152.569 118.888L146.422 115.046L146.437 115.02L146.436 115.018Z" fill="url(#paint0_linear_5579_3192)"/>
<path d="M140.711 102.555L146.517 97.0835C147.137 96.4988 148.114 96.5274 148.698 97.1485L153.309 102.04L159.105 108.189L161.629 110.867C162.214 111.487 162.185 112.464 161.564 113.049L155.758 118.52C155.138 119.105 154.161 119.076 153.577 118.455L148.421 112.985L146.288 110.72L140.646 104.734C140.061 104.114 140.09 103.137 140.711 102.553L140.711 102.555Z" fill="url(#paint1_linear_5579_3192)"/>
<path d="M141.005 103.041L147.013 97.379C147.358 97.0546 147.9 97.0703 148.225 97.4147L153.072 102.557L158.806 108.64L160.41 110.343C160.735 110.688 160.719 111.23 160.375 111.555L154.367 117.217C154.022 117.541 153.48 117.526 153.155 117.181L148.502 112.246L146.466 110.083L140.97 104.252C140.646 103.907 140.662 103.366 141.006 103.04L141.005 103.041Z" fill="url(#paint2_linear_5579_3192)"/>
<path d="M148.237 98.5761L148.084 98.7155L147.634 98.2229L147.756 98.1115L147.706 98.0557C147.635 98.1009 147.575 98.1237 147.519 98.1351L147.453 98.1959L147.999 98.7932L147.861 98.9191L147.926 98.9903L148.303 98.6454L148.238 98.5742L148.237 98.5761Z" fill="#352D4D"/>
<path d="M147.512 98.7532C147.307 98.5285 147.116 98.4828 146.982 98.6043C146.849 98.7264 146.878 98.9197 147.083 99.1444C147.288 99.3691 147.482 99.42 147.615 99.2979C147.749 99.1754 147.716 98.977 147.512 98.7532ZM147.167 99.0682C146.988 98.8719 146.968 98.745 147.046 98.6737C147.124 98.6018 147.249 98.634 147.428 98.8294C147.607 99.0257 147.631 99.1572 147.552 99.2286C147.474 99.2991 147.346 99.2636 147.167 99.0672L147.167 99.0682Z" fill="#352D4D"/>
<path d="M146.883 99.1534C146.847 99.1139 146.793 99.112 146.759 99.1443C146.725 99.1752 146.722 99.2282 146.758 99.2677C146.792 99.3059 146.845 99.3068 146.879 99.276C146.914 99.2446 146.917 99.1916 146.883 99.1534ZM147.228 99.5312C147.192 99.4916 147.139 99.4897 147.104 99.522C147.07 99.5529 147.067 99.6059 147.103 99.6455C147.138 99.6836 147.191 99.6846 147.225 99.6537C147.259 99.6223 147.263 99.5693 147.228 99.5312Z" fill="#352D4D"/>
<path d="M146.731 99.4658C146.527 99.2411 146.336 99.1954 146.201 99.317C146.068 99.439 146.098 99.6324 146.302 99.857C146.507 100.082 146.702 100.133 146.835 100.011C146.969 99.8881 146.935 99.6896 146.731 99.4658ZM146.386 99.7808C146.207 99.5845 146.188 99.4577 146.265 99.3863C146.343 99.3144 146.468 99.3467 146.647 99.5421C146.826 99.7384 146.85 99.8699 146.771 99.9413C146.693 100.012 146.565 99.9762 146.386 99.7799L146.386 99.7808Z" fill="#352D4D"/>
<path d="M146.211 99.9402C146.007 99.7155 145.816 99.6698 145.682 99.7914C145.549 99.9134 145.578 100.107 145.783 100.331C145.987 100.556 146.182 100.607 146.315 100.485C146.449 100.362 146.416 100.164 146.211 99.9402ZM145.867 100.255C145.688 100.059 145.668 99.932 145.745 99.8607C145.823 99.7888 145.949 99.8211 146.127 100.016C146.306 100.213 146.331 100.344 146.251 100.416C146.174 100.486 146.045 100.451 145.866 100.254L145.867 100.255Z" fill="#352D4D"/>
<mask id="mask0_5579_3192" style="mask-type:alpha" maskUnits="userSpaceOnUse" x="140" y="101" width="5" height="5">
<rect width="2.23223" height="2.23223" transform="matrix(-0.683775 -0.729693 -0.729693 0.683775 144.054 103.508)" fill="#352D4D"/>
</mask>
<g mask="url(#mask0_5579_3192)">
<path d="M142.053 104.364C142.071 104.383 142.092 104.393 142.117 104.394C142.143 104.395 142.165 104.387 142.184 104.369L143.27 103.351C143.289 103.333 143.299 103.311 143.3 103.286C143.301 103.261 143.292 103.239 143.274 103.219L143.147 103.084L143.283 102.957L143.028 102.685L142.893 102.812L142.766 102.677C142.747 102.657 142.726 102.647 142.701 102.646C142.675 102.646 142.653 102.654 142.634 102.672L141.548 103.69C141.529 103.708 141.519 103.729 141.518 103.755C141.517 103.78 141.526 103.802 141.544 103.821L142.053 104.364ZM142.939 103.406L142.558 102.999L142.693 102.872L143.075 103.279L142.939 103.406Z" fill="#352D4D"/>
</g>
<path d="M146.437 115.018C146.192 114.791 146.026 114.48 145.996 114.123L145.671 110.075C145.603 109.217 146.685 108.779 147.225 109.448C147.534 109.832 147.776 110.439 148.109 111.334L148.595 113.313L151.518 114.789L151.674 114.879C151.674 114.879 150.397 114.224 150.609 114.33C151.886 112.71 157.951 113.313 159.228 115.252C160.505 117.191 155.291 117.806 155.444 116.765C155.459 116.77 155.475 116.775 155.49 116.78C155.523 116.791 155.556 116.803 155.587 116.812C155.607 116.817 155.625 116.821 155.645 116.826C155.674 116.833 155.703 116.84 155.732 116.844C155.753 116.848 155.774 116.85 155.795 116.854C155.823 116.858 155.85 116.861 155.878 116.863C155.9 116.865 155.922 116.865 155.945 116.866C155.971 116.867 155.997 116.868 156.023 116.868C156.046 116.867 156.069 116.866 156.092 116.864C156.117 116.862 156.142 116.861 156.167 116.858C156.191 116.855 156.214 116.851 156.239 116.848C156.262 116.844 156.286 116.84 156.309 116.836C156.333 116.831 156.357 116.825 156.382 116.818C156.403 116.812 156.425 116.807 156.445 116.801C156.47 116.794 156.495 116.785 156.52 116.776C156.539 116.768 156.559 116.761 156.578 116.754C156.603 116.744 156.629 116.733 156.654 116.721C156.671 116.713 156.69 116.704 156.707 116.694C156.732 116.681 156.758 116.667 156.782 116.653C156.798 116.643 156.814 116.634 156.83 116.623C156.854 116.607 156.88 116.59 156.904 116.573C156.918 116.563 156.932 116.552 156.946 116.542C156.97 116.523 156.995 116.503 157.019 116.482C157.031 116.472 157.041 116.461 157.053 116.45C157.077 116.427 157.102 116.404 157.125 116.38C157.134 116.369 157.143 116.359 157.152 116.35C157.176 116.324 157.199 116.296 157.221 116.268C157.228 116.26 157.232 116.251 157.239 116.242C157.262 116.211 157.286 116.178 157.307 116.144C157.332 116.105 157.356 116.063 157.378 116.02L159.228 115.252L160.399 114.123C162.224 116.502 162.207 114.72 162.314 116.02L166.464 118.888C162.828 119.976 161.744 123.008 161.019 124.422C161.015 124.43 161.013 124.438 161.009 124.446L158.343 121.001L154.31 119.822C153.867 119.779 152.947 119.124 152.57 118.888L146.423 115.046L146.438 115.02L146.437 115.018Z" fill="url(#paint3_linear_5579_3192)"/>
<path fill-rule="evenodd" clip-rule="evenodd" d="M155.198 191.289C156.499 189.074 156.2 186.73 155.991 185.68L155.909 185.695C155.775 185.022 153.088 183.63 153.088 183.63C152.846 183.49 152.786 183.451 152.745 183.467C152.738 183.469 152.733 183.472 152.727 183.477C151.999 183.176 151.361 183.066 151.361 183.066L151.344 183.082C151.344 183.082 143.793 186.371 142.457 186.983C141.122 187.596 139.84 188.797 139.84 188.797C139.659 189.002 139.479 189.208 139.3 189.415C137.966 190.948 136.634 192.48 134.952 193.053C134.952 193.053 136.758 195.262 139.404 192.811C140.002 192.263 141.105 191.718 142.145 191.282C142.019 191.639 141.901 191.987 141.798 192.29C141.657 192.707 141.544 193.041 141.477 193.202C140.98 194.419 135.299 199.984 134.55 200.705C133.8 201.426 133.921 201.952 135.626 201.723C137.33 201.494 143.309 195.738 143.309 195.738L143.304 196C141.772 198.341 137.154 202.144 137.154 202.144C137.154 202.144 134.553 204.809 136.59 205.158C138.611 205.491 145.371 197.38 145.371 197.38L145.694 197.549C145.694 197.549 141.974 202.318 139.961 204.16C137.98 206.002 140.054 206.123 140.054 206.123C142.988 205.383 147.419 199.602 147.812 199.083C147.665 200.276 144.061 205.186 144.061 205.186C144.061 205.186 142.823 206.699 144.456 206.796C146.089 206.892 150.794 199.314 150.794 199.314C150.794 199.314 152.968 195.072 155.198 191.289ZM147.794 198.897C147.699 198.698 147.774 198.883 147.816 198.986C147.814 198.951 147.806 198.921 147.794 198.897Z" fill="url(#paint4_linear_5579_3192)"/>
<path fill-rule="evenodd" clip-rule="evenodd" d="M184.001 143.944C183.994 144.291 183.975 144.586 183.945 144.813C183.857 145.515 184.207 146.289 184.6 147.16C185.262 148.625 186.047 150.363 185.083 152.493C178.568 167.028 156.182 189.088 156.182 189.088L156.163 189.102L149.043 183.012L171.321 143.731C171.338 139.309 171.576 106.421 175.081 93.3329C178.699 83.3311 192.886 89.8777 192.886 89.8777C199.064 92.058 196.629 96.6259 194.217 101.148C194.174 101.229 194.131 101.309 194.089 101.39C191.245 106.776 184.541 121.201 179.872 131.395L202.393 132.228L194.857 149.681C194.857 149.681 193.47 147.531 192.568 142.861L184.001 143.944Z" fill="white"/>
<path opacity="0.8" fill-rule="evenodd" clip-rule="evenodd" d="M184.001 143.944C183.994 144.291 183.975 144.586 183.945 144.813C183.857 145.515 184.207 146.289 184.6 147.16C185.262 148.625 186.047 150.363 185.083 152.493C178.568 167.027 156.182 189.088 156.182 189.088L156.163 189.101L149.043 183.012L171.321 143.731C171.337 139.371 171.573 107.366 175.074 94.2907C177.281 88.9572 181.595 87.8113 184.037 87.1627C184.177 87.1255 184.311 87.0899 184.438 87.0553C186.779 86.4169 196.539 96.7897 194.089 101.39C191.245 106.776 184.541 121.201 179.872 131.396L202.393 132.228L194.857 149.681C194.857 149.681 193.47 147.531 192.568 142.861L184.001 143.944Z" fill="url(#paint5_linear_5579_3192)"/>
<path d="M211.376 343.149C211.029 343.057 210.821 342.987 210.821 342.987C210.821 342.987 211.052 338.526 210.682 331.545C210.312 324.563 223.188 331.799 223.188 331.799C223.188 331.799 222.842 337.185 223.789 341.439C223.836 341.6 223.882 341.762 223.928 341.924C224.044 342.386 224.159 342.849 224.321 343.265C224.367 343.403 224.367 343.519 224.39 343.635C225.015 346.177 224.945 346.894 224.945 346.894L210.474 346.547L211.399 343.149H211.376Z" fill="url(#paint6_linear_5579_3192)"/>
<path d="M203.909 357.735L225.754 357.249C225.754 357.249 227.026 356.694 227.211 354.36C227.396 352.002 225.107 342.778 225.107 342.778C225.107 342.778 223.813 342.038 223.743 345.506C223.674 348.28 221.894 345.506 219.883 342.062C218.796 340.235 213.271 340.073 213.271 340.073L210.659 341.507L208.301 346.777C204.718 349.575 201.759 356.325 203.932 357.758L203.909 357.735Z" fill="url(#paint7_linear_5579_3192)"/>
<path d="M142.282 350.407C142.282 350.407 150.304 344.674 152.153 338.618C152.292 338.179 152.477 337.832 152.685 337.554C153.401 333.971 153.771 330.55 153.771 330.55C153.771 330.55 167.248 323.361 166.3 330.296C165.468 336.329 164.174 342.779 165.029 344.536L164.752 344.582L164.913 345.668L142.259 350.407H142.282Z" fill="url(#paint8_linear_5579_3192)"/>
<path d="M132.529 357.482L165.239 356.996C165.239 356.996 166.51 356.441 166.695 354.106C166.857 352.072 165.378 344.883 164.985 342.987C164.938 342.71 164.638 342.571 164.384 342.664C163.69 342.918 162.442 343.611 161.448 345.23C159.991 347.588 156.385 343.773 155.645 341.785C154.929 339.797 151.9 339.959 151.9 339.959L137.545 349.206L135.279 349.714C133.684 350.084 132.228 351.032 131.442 352.465C130.679 353.829 130.356 356.025 132.529 357.482Z" fill="url(#paint9_linear_5579_3192)"/>
<path d="M179.926 154.377L181.823 149.36L222.461 150.1L222.831 155.625L222.831 171.007C226.899 183.563 232.326 196.105 230.916 215.454C228.142 253.342 226.899 334.456 226.899 334.456C219.48 336.187 215.392 336.183 207.643 334.225L198.49 203.354L181.617 261.43C180.6 291.32 167.839 335.681 167.839 335.681C160.635 336.492 157.277 335.946 152.742 333C151.035 207.61 183.055 169.092 183.055 169.092L179.926 154.377Z" fill="url(#paint10_linear_5579_3192)"/>
<path opacity="0.8" d="M179.926 154.377L181.823 149.36L222.461 150.1L222.831 155.625L222.831 171.007C226.899 183.563 232.326 196.105 230.916 215.454C228.142 253.342 226.899 334.456 226.899 334.456C219.48 336.187 215.392 336.183 207.643 334.225L198.49 203.354L181.617 261.43C180.6 291.32 167.839 335.681 167.839 335.681C160.635 336.492 157.277 335.946 152.742 333C151.035 207.61 183.055 169.092 183.055 169.092L179.926 154.377Z" fill="url(#paint11_linear_5579_3192)"/>
<path d="M184.813 67.1245C184.813 67.1245 178.296 56.9031 182.073 50.6484C185.821 44.4519 191.051 42.441 191.051 42.441L184.813 67.1245Z" fill="url(#paint12_linear_5579_3192)"/>
<path d="M187.324 67.3163C187.913 64.6041 186.242 73.7289 190.626 73.9299C197.538 74.2211 204.155 77.0819 205.809 81.6498C208.587 89.2804 213.453 85.9783 222.136 94.3187C233.623 105.355 200.054 120.983 189.662 103.724C185.68 92.9345 186.356 79.25 187.324 67.3163Z" fill="url(#paint13_linear_5579_3192)"/>
<path d="M194.292 69.0548C194.107 69.1935 197.621 91.7092 197.621 91.7092C205.874 90.5303 213.549 88.9583 215.768 83.7802C207.954 75.5044 206.729 62.9982 206.775 62.9288C205.111 58.1668 201.759 66.6969 197.899 69.9563L194.269 69.0548H194.292Z" fill="url(#paint14_linear_5579_3192)"/>
<path d="M175.349 109.281C182.4 97.8844 184.545 86.9495 184.545 86.9495L196.385 83.8525C196.501 90.5795 210.256 88.9382 215.919 83.8525L231.014 89.3543C231.014 89.3543 230.552 107.478 227.755 128.676C227.108 134.964 225.813 165.756 224.172 171.188C224.172 171.188 211.791 173.496 199.236 173.496C186.68 173.496 179.163 170.795 179.163 170.795L178.632 127.705C178.632 127.705 168.322 120.654 175.372 109.258L175.349 109.281Z" fill="white"/>
<path opacity="0.8" d="M175.349 109.281C182.4 97.8844 184.545 86.9495 184.545 86.9495L196.385 83.8525C196.501 90.5795 210.255 88.9382 215.919 83.8525L230.271 90.0346C230.271 90.0346 232.186 93.5465 233.463 103.761C232.816 110.049 225.813 165.756 224.172 171.188C224.172 171.188 211.791 173.496 199.235 173.496C186.68 173.496 179.163 170.795 179.163 170.795L178.632 127.705C178.632 127.705 168.321 120.654 175.372 109.258L175.349 109.281Z" fill="url(#paint15_linear_5579_3192)"/>
<path d="M181.28 67.6245L183.517 62.396C183.585 62.2287 183.595 62.0315 183.56 61.8483C181.835 54.8523 185.474 49.6852 185.474 49.6852C186.487 48.2211 187.554 47.0793 188.035 46.6101L188.503 46.6306C193.689 52.8365 198.018 62.0583 198.018 62.0583C198.018 62.0583 198.317 56.9152 201.883 57.5958C204.443 58.0884 206.041 61.8003 204.657 65.5188C203.56 68.4659 200.928 67.8994 200.928 67.8994C200.928 67.8994 201.24 73.3571 198.631 75.0644C197.731 75.6673 193.799 77.3361 193.799 77.3361C192.071 78.1553 190.204 78.9215 188.4 79.4253C188.4 79.4253 184.424 80.5015 185.119 75.7655L183.73 75.1413C183.73 75.1413 183.098 74.3 185.088 73.0089C185.088 73.0089 182.479 72.8959 182.722 71.605L183.237 70.1785C183.351 69.8509 183.187 69.4906 182.859 69.3769L181.695 68.9237C181.695 68.9237 181.067 68.3237 181.207 67.6236L181.28 67.6245Z" fill="url(#paint16_linear_5579_3192)"/>
<path d="M197.947 61.7415C195.547 56.053 186.724 54.7949 185.821 48.0943C185.821 48.0943 185.468 45.3191 191.303 44.0615C197.138 42.8039 197.947 61.7415 197.947 61.7415Z" fill="url(#paint17_linear_5579_3192)"/>
<path fill-rule="evenodd" clip-rule="evenodd" d="M232.638 105.037C239.072 91.4527 227.899 87.5812 227.899 87.5812C217.317 83.8366 211.22 101.977 211.22 101.977L196.159 138.124C186.192 126.986 166.046 116.523 166.046 116.523L158.192 122.3L166.771 132.366C172.934 139.627 179.779 146.239 187.19 152.181L191.467 155.578C192.726 156.727 194.281 157.322 195.894 156.771L204.629 148.469C204.713 148.398 204.798 148.324 204.885 148.247C204.918 148.282 205.013 148.38 204.898 148.235C210.027 143.708 220.468 130.789 232.638 105.037Z" fill="white"/>
<path opacity="0.8" fill-rule="evenodd" clip-rule="evenodd" d="M232.638 105.037C239.072 91.4527 227.899 87.5812 227.899 87.5812C217.317 83.8366 211.22 101.977 211.22 101.977L196.159 138.124C186.192 126.986 166.046 116.523 166.046 116.523L158.192 122.3L166.771 132.366C172.934 139.627 179.779 146.239 187.19 152.181L191.467 155.578C192.726 156.727 194.281 157.322 195.894 156.771L204.629 148.469C204.713 148.398 204.798 148.324 204.885 148.247C204.918 148.282 205.013 148.38 204.898 148.235C210.027 143.708 220.468 130.789 232.638 105.037Z" fill="url(#paint18_linear_5579_3192)"/>
<path d="M189.733 43.105C196.204 38.9018 204.271 38.6298 210.155 43.4481C218.672 50.4339 226.405 69.0194 232.185 80.8839L232.185 80.8838C228.674 86.2034 223.931 93.0589 212.755 91.0077C214.863 84.3886 204.459 66.3326 204.459 66.3326L204.503 66.3185C204.503 66.3185 204.432 66.1714 204.395 66.1344C204.485 65.9601 204.597 65.7787 204.673 65.5603C206.05 61.8198 204.474 58.1009 201.899 57.6373C198.333 56.9567 198.034 62.0998 198.034 62.0998C198.034 62.0998 193.705 52.878 188.519 46.6721L188.051 46.6516C187.57 47.1208 186.503 48.2626 185.49 49.7267L185.371 49.8861C185.55 47.2564 187.227 44.7552 189.718 43.1341L189.733 43.105Z" fill="url(#paint19_linear_5579_3192)"/>
<path d="M244.133 152.261C243.582 147.029 240.196 150.162 240.196 150.162C240.196 150.162 233.801 151.621 225.899 156.065C218.572 160.185 199.379 173.529 196.466 176.132C194.475 176.544 191.565 177.269 189.046 178.367C184.746 180.231 178.359 184.238 178.359 184.238C178.359 184.238 176.854 185.323 177.511 186.405C178.169 187.487 179.85 187.45 179.85 187.45C179.85 187.45 179.252 189.117 180.191 190.102C181.14 191.081 182.658 190.521 182.658 190.521C182.658 190.521 182.648 191.84 183.651 192.872C184.663 193.896 186.363 192.656 186.363 192.656C186.363 192.656 186.85 194.136 187.762 194.576C188.675 195.017 189.966 193.782 189.966 193.782C189.966 193.782 190.694 194.919 192.072 194.567C193.375 194.238 198.926 185.219 199.529 184.235L229.385 164.793C233.043 162.736 240.197 158.426 240.197 158.426L244.133 152.261Z" fill="url(#paint20_linear_5579_3192)"/>
<path d="M227.06 146.109C218.455 153.875 207.441 163.22 196.859 169.517L204.205 182.635C217.498 176.863 229.998 168.042 232.307 166.572C237.816 163.066 242.247 157.915 245.162 151.356C247.261 146.634 256.707 116.988 258.543 109.904C260.38 102.821 261.428 87.6047 253.557 85.2432C248.31 83.6689 245.424 84.8734 242.014 90.4901C237.554 97.836 230.733 133.516 227.06 146.109Z" fill="url(#paint21_linear_5579_3192)"/>
<rect width="13.8268" height="16.8117" transform="matrix(-0.679525 0.733652 0.733652 0.679525 319.87 321.247)" fill="url(#paint22_linear_5579_3192)"/>
<path d="M266.59 345.622C266.59 345.622 264.31 341.259 264.576 336.193C264.842 331.127 250.013 337.879 250.013 337.879C250.013 337.879 253.012 348.497 249.117 353.973C245.211 359.454 266.453 356.261 266.596 345.606L266.59 345.622Z" fill="url(#paint23_linear_5579_3192)"/>
<path d="M228.143 357.563H268.658C268.658 357.563 268.869 352.415 266.728 345.349C266.728 345.349 259.006 347.49 254.514 344.916L250.442 340.201L239.726 348.566L229.43 351.351C229.43 351.351 226.645 353.925 228.143 357.563Z" fill="url(#paint24_linear_5579_3192)"/>
<path d="M233.764 255.452V187.818H262.647C259.759 207.142 253.982 247.723 253.982 255.452C253.982 263.182 263.851 312.62 268.664 338.063C261.925 343.861 249.891 340.962 247.243 335.648C242.75 312.781 233.764 264.728 233.764 255.452Z" fill="white"/>
<path opacity="0.8" d="M233.764 255.452V187.818H262.647C259.759 207.142 253.982 247.723 253.982 255.452C253.982 263.182 263.851 312.62 268.664 338.063C261.925 343.861 249.891 340.962 247.243 335.648C242.75 312.781 233.764 264.728 233.764 255.452Z" fill="url(#paint25_linear_5579_3192)"/>
<path d="M255.023 267.405C251.031 257.162 243.046 205.186 243.046 180.583H284.061C280.262 206.034 281.569 252.733 281.569 262.914C284.061 272.515 315.974 305.992 327.948 321.46C327.948 326.45 318.782 337.868 307.306 333.377C300.82 325.892 259.458 278.788 255.023 267.405Z" fill="white"/>
<path opacity="0.8" d="M255.023 267.405C251.031 257.162 243.046 205.186 243.046 180.583H284.061C280.262 206.034 281.569 252.733 281.569 262.914C284.061 272.515 315.974 305.992 327.948 321.46C327.948 326.45 318.782 337.868 307.306 333.377C300.82 325.892 259.458 278.788 255.023 267.405Z" fill="url(#paint26_linear_5579_3192)"/>
<path fill-rule="evenodd" clip-rule="evenodd" d="M188.883 187.842C190.187 187.842 191.243 188.899 191.243 190.202C191.243 191.505 190.187 192.561 188.883 192.561H177.544C175.485 192.561 173.786 193.418 172.502 194.616C171.174 195.856 170.443 197.322 170.262 198.224L170.262 198.225L170.26 198.233L170.255 198.259C170.251 198.282 170.246 198.311 170.239 198.348C170.226 198.423 170.209 198.521 170.189 198.644C170.147 198.89 170.091 199.224 170.023 199.642C169.885 200.478 169.696 201.642 169.461 203.094C168.993 205.999 168.344 210.05 167.565 214.928C166.008 224.682 163.933 237.733 161.745 251.505C160.931 256.627 160.102 261.848 159.278 267.036L159.277 267.038L159.276 267.045C155.669 289.754 152.163 311.83 150.506 322.147C149.975 325.452 148.595 329.138 146.021 332.043C143.391 335.01 139.583 337.072 134.51 337.072H134.469H134.426H134.383H134.338H134.292H134.245H134.197H134.148H134.098H134.046H133.994H133.941H133.886H133.83H133.774H133.716H133.657H133.597H133.537H133.475H133.412H133.348H133.283H133.217H133.15H133.082H133.013H132.943H132.871H132.799H132.726H132.652H132.577H132.501H132.424H132.346H132.267H132.187H132.106H132.024H131.941H131.857H131.772H131.686H131.599H131.512H131.423H131.334H131.243H131.152H131.059H130.966H130.872H130.777H130.681H130.584H130.486H130.387H130.287H130.187H130.086H129.983H129.88H129.776H129.671H129.565H129.459H129.351H129.243H129.133H129.023H128.912H128.8H128.688H128.574H128.46H128.345H128.229H128.112H127.994H127.876H127.757H127.637H127.516H127.394H127.272H127.149H127.025H126.9H126.774H126.648H126.521H126.393H126.264H126.135H126.004H125.873H125.742H125.609H125.476H125.342H125.208H125.072H124.936H124.799H124.662H124.523H124.384H124.245H124.104H123.963H123.821H123.679H123.535H123.391H123.247H123.102H122.956H122.809H122.662H122.514H122.365H122.216H122.066H121.915H121.764H121.612H121.46H121.307H121.153H120.999H120.844H120.688H120.532H120.375H120.217H120.059H119.901H119.741H119.581H119.421H119.26H119.098H118.936H118.773H118.61H118.446H118.281H118.116H117.951H117.785H117.618H117.451H117.283H117.114H116.946H116.776H116.606H116.436H116.265H116.093H115.921H115.749H115.576H115.402H115.228H115.054H114.879H114.703H114.527H114.351H114.174H113.997H113.819H113.64H113.462H113.282H113.103H112.923H112.742H112.561H112.38H112.198H112.015H111.833H111.649H111.466H111.282H111.097H110.913H110.727H110.542H110.356H110.169H109.982H109.795H109.608H109.42H109.231H109.043H108.854H108.664H108.475H108.284H108.094H107.903H107.712H107.52H107.329H107.136H106.944H106.751H106.558H106.364H106.171H105.976H105.782H105.587H105.392H105.197H105.001H104.806H104.609H104.413H104.216H104.019H103.822H103.624H103.427H103.229H103.03H102.832H102.633H102.434H102.235H102.035H101.835H101.635H101.435H101.235H101.034H100.833H100.632H100.431H100.229H100.028H99.8259H99.6239H99.4216H99.2192H99.0166H98.8138H98.6109H98.4077H98.2045H98.001H97.7974H97.5937H97.3898H97.1857H96.9815H96.7772H96.5727H96.3681H96.1634H95.9586H95.7536H95.5485H95.3433H95.138H94.9326H94.7271H94.5215H94.3158H94.1101H93.9042H93.6982H93.4922H93.2861H93.0799H92.8737H92.6674H92.461H92.2546H92.0481H91.8416H91.635H91.4284H91.2217H91.0151H90.8083H90.6016H90.3948H90.1881H89.9813H89.7745H89.5676H89.3608H89.154H88.9472H88.7404H88.5336H88.3268H88.1201H87.9133H87.7066H87.4999H87.2933H87.0867H86.8801H86.6736H86.4671H86.2607H86.0543H85.848H85.6417H85.4356H85.2295H85.0234H84.8175H84.6116H84.4058H84.2001H83.9945H83.789H83.5836H83.3783H83.1731H82.968H82.7631H82.5582H82.3535H82.1489H81.9445H81.7401H81.5359H81.3319H81.128H80.9242H80.7206H80.5172H80.3139H80.1108H79.9079H79.7051H79.5025H79.3H79.0978H78.8958H78.6939H78.4922H78.2908H78.0895H77.8884H77.6876H77.4869H77.2865H77.0863H76.8863H76.6866H76.4871H76.2878H76.0887H75.8899H75.6914H75.4931H75.295H75.0972H74.8997H74.7024H74.5055H74.3087H74.1123H73.9161H73.7202H73.5246H73.3293H73.1343H72.9396H72.7452H72.5511H72.3573H72.1638H71.9707H71.7779H71.5854H71.3932H71.2013H71.0098H70.8186H70.6278H70.4373H70.2472H70.0574H69.868H69.6789H69.4902H69.3019H69.114H68.9264H68.7392H68.5524H68.366H68.18H67.9944H67.8092H67.6243H67.4399H67.2559H67.0723H66.8892H66.7064H66.5241H66.3422H66.1607H65.9797H65.7991H65.619H65.4393H65.2601H65.0813H64.903H64.7251H64.5478H64.3708H64.1944H64.0184H63.8429H63.668H63.4934H63.3194H63.1459H62.9729H62.8004H62.6284H62.4569H62.2859H62.1155H61.9455H61.7761H61.6073H61.4389H61.2711H61.1039H60.9371H60.771H60.6054H60.4403H60.2758H60.1119H59.9485H59.7857H59.6235H59.4619H59.3008H59.1404H58.9805H58.8212H58.6625H58.5044H58.347H58.1901H58.0338H57.8782H57.7232H57.5688H57.415H57.2619H57.1094H56.9575H56.8063H56.6557H56.5058H56.3566H56.2079H56.06H55.9127H55.7661H55.6202H55.4749H55.3303H55.1864H55.0432H54.9007H54.7589H54.6177H54.4773H54.3376H54.1986H54.0603H53.9227H53.7858H53.6497H53.5143H53.3796H53.2457H53.1125H52.9801H52.8484H52.7174H52.5872H52.4578H52.3291H52.2012H52.0741H51.9477H51.8221H51.6973H51.5733H51.45H51.3276H51.2059C49.9028 337.072 48.8465 336.015 48.8465 334.712C48.8465 333.409 49.9028 332.353 51.2059 332.353H51.3276H51.45H51.5733H51.6973H51.8221H51.9477H52.0741H52.2012H52.3291H52.4578H52.5872H52.7174H52.8484H52.9801H53.1125H53.2457H53.3796H53.5143H53.6497H53.7858H53.9227H54.0603H54.1986H54.3376H54.4773H54.6177H54.7589H54.9007H55.0432H55.1864H55.3303H55.4749H55.6202H55.7661H55.9127H56.06H56.2079H56.3566H56.5058H56.6557H56.8063H56.9575H57.1094H57.2619H57.415H57.5688H57.7232H57.8782H58.0338H58.1901H58.347H58.5044H58.6625H58.8212H58.9805H59.1404H59.3008H59.4619H59.6235H59.7857H59.9485H60.1119H60.2758H60.4403H60.6054H60.771H60.9371H61.1039H61.2711H61.4389H61.6073H61.7761H61.9455H62.1155H62.2859H62.4569H62.6284H62.8004H62.9729H63.1459H63.3194H63.4934H63.668H63.8429H64.0184H64.1944H64.3708H64.5478H64.7251H64.903H65.0813H65.2601H65.4393H65.619H65.7991H65.9797H66.1607H66.3422H66.5241H66.7064H66.8892H67.0723H67.2559H67.4399H67.6243H67.8092H67.9944H68.18H68.366H68.5524H68.7392H68.9264H69.114H69.3019H69.4902H69.6789H69.868H70.0574H70.2472H70.4373H70.6278H70.8186H71.0098H71.2013H71.3932H71.5854H71.7779H71.9707H72.1638H72.3573H72.5511H72.7452H72.9396H73.1343H73.3293H73.5246H73.7202H73.9161H74.1123H74.3087H74.5055H74.7024H74.8997H75.0972H75.295H75.4931H75.6914H75.8899H76.0887H76.2878H76.4871H76.6866H76.8863H77.0863H77.2865H77.4869H77.6876H77.8884H78.0895H78.2908H78.4922H78.6939H78.8958H79.0978H79.3H79.5025H79.7051H79.9079H80.1108H80.3139H80.5172H80.7206H80.9242H81.128H81.3319H81.5359H81.7401H81.9445H82.1489H82.3535H82.5582H82.7631H82.968H83.1731H83.3783H83.5836H83.789H83.9945H84.2001H84.4058H84.6116H84.8175H85.0234H85.2295H85.4356H85.6417H85.848H86.0543H86.2607H86.4671H86.6736H86.8801H87.0867H87.2933H87.4999H87.7066H87.9133H88.1201H88.3268H88.5336H88.7404H88.9472H89.154H89.3608H89.5676H89.7745H89.9813H90.1881H90.3948H90.6016H90.8083H91.0151H91.2217H91.4284H91.635H91.8416H92.0481H92.2546H92.461H92.6674H92.8737H93.0799H93.2861H93.4922H93.6982H93.9042H94.1101H94.3158H94.5215H94.7271H94.9326H95.138H95.3433H95.5485H95.7536H95.9586H96.1634H96.3681H96.5727H96.7772H96.9815H97.1857H97.3898H97.5937H97.7974H98.001H98.2045H98.4077H98.6109H98.8138H99.0166H99.2192H99.4216H99.6239H99.8259H100.028H100.229H100.431H100.632H100.833H101.034H101.235H101.435H101.635H101.835H102.035H102.235H102.434H102.633H102.832H103.03H103.229H103.427H103.624H103.822H104.019H104.216H104.413H104.609H104.806H105.001H105.197H105.392H105.587H105.782H105.976H106.171H106.364H106.558H106.751H106.944H107.136H107.329H107.52H107.712H107.903H108.094H108.284H108.475H108.664H108.854H109.043H109.231H109.42H109.608H109.795H109.982H110.169H110.356H110.542H110.727H110.913H111.097H111.282H111.466H111.649H111.833H112.015H112.198H112.38H112.561H112.742H112.923H113.103H113.282H113.462H113.64H113.819H113.997H114.174H114.351H114.527H114.703H114.879H115.054H115.228H115.402H115.576H115.749H115.921H116.093H116.265H116.436H116.606H116.776H116.946H117.114H117.283H117.451H117.618H117.785H117.951H118.116H118.281H118.446H118.61H118.773H118.936H119.098H119.26H119.421H119.581H119.741H119.901H120.059H120.217H120.375H120.532H120.688H120.844H120.999H121.153H121.307H121.46H121.612H121.764H121.915H122.066H122.216H122.365H122.514H122.662H122.809H122.956H123.102H123.247H123.391H123.535H123.679H123.821H123.963H124.104H124.245H124.384H124.523H124.662H124.799H124.936H125.072H125.208H125.342H125.476H125.609H125.742H125.873H126.004H126.135H126.264H126.393H126.521H126.648H126.774H126.9H127.025H127.149H127.272H127.394H127.516H127.637H127.757H127.876H127.994H128.112H128.229H128.345H128.46H128.574H128.688H128.8H128.912H129.023H129.133H129.243H129.351H129.459H129.565H129.671H129.776H129.88H129.983H130.086H130.187H130.287H130.387H130.486H130.584H130.681H130.777H130.872H130.966H131.059H131.152H131.243H131.334H131.423H131.512H131.599H131.686H131.772H131.857H131.941H132.024H132.106H132.187H132.267H132.346H132.424H132.501H132.577H132.652H132.726H132.799H132.871H132.943H133.013H133.082H133.15H133.217H133.283H133.348H133.412H133.475H133.537H133.597H133.657H133.716H133.774H133.83H133.886H133.941H133.994H134.046H134.098H134.148H134.197H134.245H134.292H134.338H134.383H134.426H134.469H134.51C138.161 332.353 140.707 330.925 142.49 328.913C144.328 326.838 145.42 324.055 145.847 321.399C146.66 316.338 147.921 308.423 149.423 298.981H47.1373C45.9689 298.981 44.9764 298.126 44.8037 296.971L33.0257 218.173C32.9242 217.494 33.1236 216.804 33.5718 216.284C34.02 215.764 34.6726 215.465 35.3593 215.465H162.701C164.378 204.957 165.51 197.922 165.635 197.299C166.036 195.294 167.34 192.98 169.282 191.166C171.27 189.311 174.077 187.842 177.544 187.842H188.883ZM127.847 294.262H150.174C150.917 289.587 151.706 284.62 152.52 279.499H129.724L127.847 294.262ZM96.9686 294.262H77.31L75.4336 279.499H96.9686V294.262ZM101.688 294.262V279.499H124.967L123.09 294.262H101.688ZM96.9686 274.78H74.8338L72.9206 259.728H96.9686V274.78ZM101.688 259.728V274.78H125.567L127.48 259.728H101.688ZM96.9686 255.009H72.3208L70.5922 241.41H96.9686V255.009ZM101.688 241.41V255.009H128.08L129.808 241.41H101.688ZM96.9686 236.691H69.9924L67.8944 220.184H96.9686V236.691ZM101.688 220.184V236.691H130.408L132.506 220.184H101.688ZM49.1703 294.262H72.553L70.6766 279.499H46.9637L49.1703 294.262ZM46.2583 274.78H70.0768L68.1636 259.728H44.0084L46.2583 274.78ZM43.3031 255.009H67.5638L65.8353 241.41H41.2703L43.3031 255.009ZM40.565 236.691H65.2355L63.1374 220.184H38.0977L40.565 236.691ZM132.237 259.728H155.66L154.523 266.889L154.522 266.892L153.269 274.785C153.219 274.782 153.17 274.78 153.12 274.78H130.324L132.237 259.728ZM132.836 255.009H156.41C157.143 250.395 157.868 245.83 158.571 241.41H134.565L132.836 255.009ZM137.263 220.184H161.948C161.151 225.185 160.263 230.769 159.321 236.691H135.165L137.263 220.184Z" fill="url(#paint27_linear_5579_3192)"/>
<ellipse cx="10.0672" cy="10.2245" rx="10.0672" ry="10.2245" transform="matrix(-1 0 0 1 132.256 337.12)" fill="url(#paint28_linear_5579_3192)"/>
<circle cx="10.2245" cy="10.2245" r="10.2245" transform="matrix(-1 0 0 1 79.7175 337.12)" fill="url(#paint29_linear_5579_3192)"/>
<path d="M263.147 66.711L259.88 70.3493L251.589 60.2514L262.775 58.556L263.147 66.711Z" fill="url(#paint30_linear_5579_3192)"/>
<path d="M262.671 78.8135V61.6619H261.322C261.533 60.9937 261.792 60.3625 262.176 59.6076C263.154 57.7019 263.451 54.1132 259.639 53.9028C255.828 53.6924 255.159 58.234 255.704 61.4267L256.818 61.6743H245.866V79.4322L241.974 89.0758C236.133 100.881 253.278 94.6287 253.278 94.6287L270.962 81.5359L262.671 78.8259V78.8135Z" fill="url(#paint31_linear_5579_3192)"/>
<path d="M258.075 37.8342C258.075 37.8342 244.066 33.1194 237.149 50.073C237.149 50.073 236.134 52.7708 237.112 55.0354L237.384 55.5426L234.835 60.3317C234.835 60.3317 234.674 61.5198 235.75 61.8044C236.827 62.089 237.174 62.0518 237.174 62.0518L235.651 64.3783L236.258 65.8386C236.258 65.8386 235.614 67.2617 236.406 67.8062C237.198 68.3507 237.78 69.155 237.78 69.155L237.706 71.5806C237.706 71.5806 238.089 73.5233 239.649 73.9193C241.208 74.3153 245.675 73.3749 245.675 73.3749C245.675 73.3749 253.372 72.2117 254.808 70.1327C256.243 68.0413 256.293 65.9004 256.293 65.9004L256.008 63.1904L257.357 63.376C258.891 63.5864 260.414 62.9181 261.28 61.6311C262.839 59.317 265.005 55.419 264.794 51.7684C264.485 46.113 266.255 40.3834 258.062 37.8342H258.075Z" fill="url(#paint32_linear_5579_3192)"/>
<path d="M251.856 51.0429C251.856 51.0429 250.742 49.3847 247.079 49.5084L248.96 43.6056L264.231 41.2668C267.671 44.4224 268.81 48.766 269.181 52.6393C269.837 59.4455 263.167 66.7096 263.167 66.7096L261.075 62.5888C261.261 61.4874 261.62 60.6954 262.189 59.6064C263.167 57.7007 263.464 54.1119 259.652 53.9016C255.841 53.6912 254.542 60.3613 254.529 60.386L251.275 59.6683C251.275 59.6683 255.42 55.6092 251.856 51.0429Z" fill="url(#paint33_linear_5579_3192)"/>
<path d="M239.934 44.8203C247.247 34.1779 258.075 37.8161 258.075 37.8161C261.355 38.8432 263.731 40.5137 265.426 42.5185L239.872 45.1173C239.884 45.0183 239.921 44.9193 239.934 44.8203Z" fill="url(#paint34_linear_5579_3192)"/>
<path d="M263.914 41.1174C263.914 41.1174 271.524 43.2954 269.148 36.9223C266.772 30.5493 257.937 33.4449 260.152 39.323L263.914 41.1174Z" fill="url(#paint35_linear_5579_3192)"/>
<path d="M241.762 89.5021C244.103 91.843 246.657 93.3326 249.21 93.3326C256.233 93.3326 262.83 75.8826 262.83 75.8826L276.769 82.3731C278.575 82.9175 281.633 90.9323 281.77 92.8006L282.509 103.361L284.962 195.479C256.011 201.577 253.16 201.92 232.165 195.479C232.165 195.479 234.527 122.7 235.804 112.485C237.08 102.27 240.06 90.779 241.762 89.5021Z" fill="url(#paint36_linear_5579_3192)"/>
<path d="M248.437 155.184C247.886 149.953 244.5 153.085 244.5 153.085C244.5 153.085 238.105 154.544 230.203 158.988C222.876 163.108 203.683 176.452 200.77 179.055C198.779 179.468 195.869 180.192 193.35 181.29C189.05 183.154 182.663 187.161 182.663 187.161C182.663 187.161 181.157 188.246 181.815 189.328C182.473 190.41 184.154 190.373 184.154 190.373C184.154 190.373 183.556 192.04 184.495 193.026C185.444 194.004 186.962 193.444 186.962 193.444C186.962 193.444 186.952 194.763 187.955 195.795C188.967 196.819 190.667 195.579 190.667 195.579C190.667 195.579 191.154 197.059 192.066 197.499C192.979 197.94 194.27 196.705 194.27 196.705C194.27 196.705 194.998 197.842 196.376 197.49C197.679 197.161 203.23 188.142 203.833 187.159L233.689 167.716C237.347 165.66 244.501 161.349 244.501 161.349L248.437 155.184Z" fill="url(#paint37_linear_5579_3192)"/>
<path d="M249.617 142.917C241.012 150.683 215.336 165.742 204.755 172.038L212.1 185.156C225.393 179.384 252.555 164.85 254.864 163.381C260.373 159.875 264.804 154.723 267.719 148.164C269.818 143.442 279.264 113.796 281.1 106.712C282.937 99.6289 283.985 84.4128 276.114 82.0513C270.867 80.477 267.982 81.6815 264.571 87.2982C260.111 94.6441 253.29 130.324 249.617 142.917Z" fill="url(#paint38_linear_5579_3192)"/>
<path d="M300.834 357.761H317.308L339.12 334.653C339.12 334.653 333.694 329.759 328.906 327.631C328.906 327.631 324.862 334.653 320.074 336.249L313.796 335.93L312.417 348.765L302.121 351.549C302.121 351.549 299.336 354.123 300.834 357.761Z" fill="url(#paint39_linear_5579_3192)"/>
</g>
<defs>
<filter id="filter0_d_5579_3192" x="0.204937" y="0.526348" width="371.71" height="390.03" filterUnits="userSpaceOnUse" color-interpolation-filters="sRGB">
<feFlood flood-opacity="0" result="BackgroundImageFix"/>
<feColorMatrix in="SourceAlpha" type="matrix" values="0 0 0 0 0 0 0 0 0 0 0 0 0 0 0 0 0 0 127 0" result="hardAlpha"/>
<feOffset/>
<feGaussianBlur stdDeviation="16.3974"/>
<feComposite in2="hardAlpha" operator="out"/>
<feColorMatrix type="matrix" values="0 0 0 0 0.0638342 0 0 0 0 0.13671 0 0 0 0 0.297412 0 0 0 0.46 0"/>
<feBlend mode="normal" in2="BackgroundImageFix" result="effect1_dropShadow_5579_3192"/>
<feBlend mode="normal" in="SourceGraphic" in2="effect1_dropShadow_5579_3192" result="shape"/>
</filter>
<linearGradient id="paint0_linear_5579_3192" x1="158.897" y1="107.399" x2="143.645" y2="124.04" gradientUnits="userSpaceOnUse">
<stop stop-color="#F26F56"/>
<stop offset="1" stop-color="#F8C9C6"/>
</linearGradient>
<linearGradient id="paint1_linear_5579_3192" x1="158.171" y1="104.125" x2="144.106" y2="111.478" gradientUnits="userSpaceOnUse">
<stop stop-color="#26264F"/>
<stop offset="0.26" stop-color="#282853"/>
<stop offset="0.53" stop-color="#2E305F"/>
<stop offset="0.79" stop-color="#383C73"/>
<stop offset="1" stop-color="#444B89"/>
</linearGradient>
<linearGradient id="paint2_linear_5579_3192" x1="157.102" y1="103.945" x2="144.278" y2="110.649" gradientUnits="userSpaceOnUse">
<stop stop-color="#7399EF"/>
<stop offset="0.14" stop-color="#8BB0F2"/>
<stop offset="0.32" stop-color="#A2C6F5"/>
<stop offset="0.51" stop-color="#B3D5F7"/>
<stop offset="0.73" stop-color="#BCDFF8"/>
<stop offset="1" stop-color="#C0E2F9"/>
</linearGradient>
<linearGradient id="paint3_linear_5579_3192" x1="158.33" y1="108.018" x2="143.989" y2="123.666" gradientUnits="userSpaceOnUse">
<stop stop-color="#F26F56"/>
<stop offset="1" stop-color="#F8C9C6"/>
</linearGradient>
<linearGradient id="paint4_linear_5579_3192" x1="134.453" y1="188.034" x2="157.618" y2="212.098" gradientUnits="userSpaceOnUse">
<stop stop-color="#F26F56"/>
<stop offset="1" stop-color="#F8C9C6"/>
</linearGradient>
<linearGradient id="paint5_linear_5579_3192" x1="189.624" y1="121.423" x2="149.023" y2="138.065" gradientUnits="userSpaceOnUse">
<stop stop-color="#9D0051"/>
<stop offset="0.1" stop-color="#9D0051"/>
<stop offset="0.91" stop-color="#301C90"/>
<stop offset="1" stop-color="#301C90"/>
</linearGradient>
<linearGradient id="paint6_linear_5579_3192" x1="228.351" y1="335.52" x2="199.662" y2="335.52" gradientUnits="userSpaceOnUse">
<stop stop-color="#F26F56"/>
<stop offset="1" stop-color="#F8C9C6"/>
</linearGradient>
<linearGradient id="paint7_linear_5579_3192" x1="227.188" y1="348.881" x2="203.169" y2="348.881" gradientUnits="userSpaceOnUse">
<stop stop-color="#444B89"/>
<stop offset="0.27" stop-color="#3E437E"/>
<stop offset="0.75" stop-color="#2F3160"/>
<stop offset="1" stop-color="#26264F"/>
</linearGradient>
<linearGradient id="paint8_linear_5579_3192" x1="172.013" y1="336.1" x2="124.263" y2="336.1" gradientUnits="userSpaceOnUse">
<stop stop-color="#F26F56"/>
<stop offset="1" stop-color="#F8C9C6"/>
</linearGradient>
<linearGradient id="paint9_linear_5579_3192" x1="166.695" y1="348.72" x2="130.864" y2="348.72" gradientUnits="userSpaceOnUse">
<stop stop-color="#444B89"/>
<stop offset="0.27" stop-color="#3E437E"/>
<stop offset="0.75" stop-color="#2F3160"/>
<stop offset="1" stop-color="#26264F"/>
</linearGradient>
<linearGradient id="paint10_linear_5579_3192" x1="232.582" y1="242.686" x2="152.676" y2="242.686" gradientUnits="userSpaceOnUse">
<stop stop-color="#134FE8"/>
<stop offset="1" stop-color="#7399EF"/>
</linearGradient>
<linearGradient id="paint11_linear_5579_3192" x1="232.582" y1="242.686" x2="152.676" y2="242.686" gradientUnits="userSpaceOnUse">
<stop stop-color="#134FE8"/>
<stop offset="1" stop-color="#7399EF"/>
</linearGradient>
<linearGradient id="paint12_linear_5579_3192" x1="194.336" y1="52.7245" x2="180.684" y2="57.0865" gradientUnits="userSpaceOnUse">
<stop stop-color="#331809"/>
<stop offset="0.1" stop-color="#331809"/>
<stop offset="0.19" stop-color="#3D1C08"/>
<stop offset="0.66" stop-color="#6C3406"/>
<stop offset="0.9" stop-color="#7F3D06"/>
<stop offset="1" stop-color="#7F3D06"/>
</linearGradient>
<linearGradient id="paint13_linear_5579_3192" x1="219.362" y1="82.2944" x2="186.178" y2="92.8969" gradientUnits="userSpaceOnUse">
<stop stop-color="#331809"/>
<stop offset="0.1" stop-color="#331809"/>
<stop offset="0.19" stop-color="#3D1C08"/>
<stop offset="0.66" stop-color="#6C3406"/>
<stop offset="0.9" stop-color="#7F3D06"/>
<stop offset="1" stop-color="#7F3D06"/>
</linearGradient>
<linearGradient id="paint14_linear_5579_3192" x1="220.823" y1="73.0317" x2="178.209" y2="73.0317" gradientUnits="userSpaceOnUse">
<stop stop-color="#F26F56"/>
<stop offset="1" stop-color="#F8C9C6"/>
</linearGradient>
<linearGradient id="paint15_linear_5579_3192" x1="246.657" y1="119.295" x2="179.836" y2="145.258" gradientUnits="userSpaceOnUse">
<stop stop-color="#9D0051"/>
<stop offset="0.1" stop-color="#9D0051"/>
<stop offset="0.91" stop-color="#301C90"/>
<stop offset="1" stop-color="#301C90"/>
</linearGradient>
<linearGradient id="paint16_linear_5579_3192" x1="208.421" y1="52.6639" x2="161.622" y2="67.6162" gradientUnits="userSpaceOnUse">
<stop stop-color="#F26F56"/>
<stop offset="1" stop-color="#F8C9C6"/>
</linearGradient>
<linearGradient id="paint17_linear_5579_3192" x1="196.941" y1="52.1372" x2="187.913" y2="55.0218" gradientUnits="userSpaceOnUse">
<stop stop-color="#331809"/>
<stop offset="0.1" stop-color="#331809"/>
<stop offset="0.19" stop-color="#3D1C08"/>
<stop offset="0.66" stop-color="#6C3406"/>
<stop offset="0.9" stop-color="#7F3D06"/>
<stop offset="1" stop-color="#7F3D06"/>
</linearGradient>
<linearGradient id="paint18_linear_5579_3192" x1="168.769" y1="119.294" x2="251.125" y2="90.7782" gradientUnits="userSpaceOnUse">
<stop stop-color="#9D0051"/>
<stop offset="0.1" stop-color="#9D0051"/>
<stop offset="0.91" stop-color="#301C90"/>
<stop offset="1" stop-color="#301C90"/>
</linearGradient>
<linearGradient id="paint19_linear_5579_3192" x1="230.978" y1="57.3496" x2="191.782" y2="69.8727" gradientUnits="userSpaceOnUse">
<stop stop-color="#331809"/>
<stop offset="0.1" stop-color="#331809"/>
<stop offset="0.19" stop-color="#3D1C08"/>
<stop offset="0.66" stop-color="#6C3406"/>
<stop offset="0.9" stop-color="#7F3D06"/>
<stop offset="1" stop-color="#7F3D06"/>
</linearGradient>
<linearGradient id="paint20_linear_5579_3192" x1="190.901" y1="185.265" x2="200.69" y2="159.728" gradientUnits="userSpaceOnUse">
<stop stop-color="#A8316D"/>
<stop offset="1" stop-color="#792D3D"/>
</linearGradient>
<linearGradient id="paint21_linear_5579_3192" x1="234.313" y1="117.592" x2="206.666" y2="167.203" gradientUnits="userSpaceOnUse">
<stop stop-color="#CEDDFE"/>
<stop offset="1" stop-color="#7399EF"/>
</linearGradient>
<linearGradient id="paint22_linear_5579_3192" x1="13.8272" y1="8.42629" x2="-0.0391735" y2="8.42629" gradientUnits="userSpaceOnUse">
<stop stop-color="#AA316D"/>
<stop offset="1" stop-color="#792D3D"/>
</linearGradient>
<linearGradient id="paint23_linear_5579_3192" x1="246.323" y1="349.7" x2="266.879" y2="341.321" gradientUnits="userSpaceOnUse">
<stop stop-color="#A8316D"/>
<stop offset="1" stop-color="#792D3D"/>
</linearGradient>
<linearGradient id="paint24_linear_5579_3192" x1="227.697" y1="348.876" x2="268.671" y2="348.876" gradientUnits="userSpaceOnUse">
<stop stop-color="#26264F"/>
<stop offset="0.26" stop-color="#282853"/>
<stop offset="0.53" stop-color="#2E305F"/>
<stop offset="0.79" stop-color="#383C73"/>
<stop offset="1" stop-color="#444B89"/>
</linearGradient>
<linearGradient id="paint25_linear_5579_3192" x1="260.276" y1="259.746" x2="233.774" y2="264.555" gradientUnits="userSpaceOnUse">
<stop stop-color="#0057D2"/>
<stop offset="0.1" stop-color="#0057D2"/>
<stop offset="0.39" stop-color="#0085E4"/>
<stop offset="0.73" stop-color="#00B4F7"/>
<stop offset="0.9" stop-color="#00C7FF"/>
<stop offset="1" stop-color="#00C7FF"/>
</linearGradient>
<linearGradient id="paint26_linear_5579_3192" x1="311.775" y1="247.404" x2="247.933" y2="266.131" gradientUnits="userSpaceOnUse">
<stop stop-color="#0057D2"/>
<stop offset="0.1" stop-color="#0057D2"/>
<stop offset="0.39" stop-color="#0085E4"/>
<stop offset="0.73" stop-color="#00B4F7"/>
<stop offset="0.9" stop-color="#00C7FF"/>
<stop offset="1" stop-color="#00C7FF"/>
</linearGradient>
<linearGradient id="paint27_linear_5579_3192" x1="191.234" y1="262.464" x2="33.0039" y2="262.464" gradientUnits="userSpaceOnUse">
<stop stop-color="#444B8B"/>
<stop offset="0.99" stop-color="#26264F"/>
</linearGradient>
<linearGradient id="paint28_linear_5579_3192" x1="0.00113282" y1="10.2254" x2="20.1338" y2="10.2254" gradientUnits="userSpaceOnUse">
<stop stop-color="#444B8B"/>
<stop offset="0.99" stop-color="#26264F"/>
</linearGradient>
<linearGradient id="paint29_linear_5579_3192" x1="0.00115052" y1="10.2254" x2="20.4484" y2="10.2254" gradientUnits="userSpaceOnUse">
<stop stop-color="#444B8B"/>
<stop offset="0.99" stop-color="#26264F"/>
</linearGradient>
<linearGradient id="paint30_linear_5579_3192" x1="251.589" y1="64.4465" x2="263.147" y2="64.4465" gradientUnits="userSpaceOnUse">
<stop stop-color="#A8316D"/>
<stop offset="1" stop-color="#792D3D"/>
</linearGradient>
<linearGradient id="paint31_linear_5579_3192" x1="246.41" y1="63.2335" x2="262.708" y2="88.8867" gradientUnits="userSpaceOnUse">
<stop stop-color="#A8316D"/>
<stop offset="1" stop-color="#792D3D"/>
</linearGradient>
<linearGradient id="paint32_linear_5579_3192" x1="236.493" y1="45.4076" x2="259.832" y2="64.2546" gradientUnits="userSpaceOnUse">
<stop stop-color="#A8316D"/>
<stop offset="1" stop-color="#792D3D"/>
</linearGradient>
<linearGradient id="paint33_linear_5579_3192" x1="247.067" y1="53.9758" x2="269.218" y2="53.9758" gradientUnits="userSpaceOnUse">
<stop stop-color="#26264F"/>
<stop offset="0.26" stop-color="#282853"/>
<stop offset="0.53" stop-color="#2E305F"/>
<stop offset="0.79" stop-color="#383C73"/>
<stop offset="1" stop-color="#444B89"/>
</linearGradient>
<linearGradient id="paint34_linear_5579_3192" x1="239.859" y1="41.1697" x2="265.426" y2="41.1697" gradientUnits="userSpaceOnUse">
<stop stop-color="#26264F"/>
<stop offset="0.26" stop-color="#282853"/>
<stop offset="0.53" stop-color="#2E305F"/>
<stop offset="0.79" stop-color="#383C73"/>
<stop offset="1" stop-color="#444B89"/>
</linearGradient>
<linearGradient id="paint35_linear_5579_3192" x1="259.805" y1="37.3926" x2="269.619" y2="37.3926" gradientUnits="userSpaceOnUse">
<stop stop-color="#26264F"/>
<stop offset="0.26" stop-color="#282853"/>
<stop offset="0.53" stop-color="#2E305F"/>
<stop offset="0.79" stop-color="#383C73"/>
<stop offset="1" stop-color="#444B89"/>
</linearGradient>
<linearGradient id="paint36_linear_5579_3192" x1="232.165" y1="138.029" x2="284.96" y2="138.029" gradientUnits="userSpaceOnUse">
<stop stop-color="#7399EF"/>
<stop offset="1" stop-color="#134FE8"/>
</linearGradient>
<linearGradient id="paint37_linear_5579_3192" x1="198.563" y1="196.756" x2="196.86" y2="179.731" gradientUnits="userSpaceOnUse">
<stop stop-color="#A8316D"/>
<stop offset="1" stop-color="#792D3D"/>
</linearGradient>
<linearGradient id="paint38_linear_5579_3192" x1="211.576" y1="185.156" x2="215.951" y2="81.7115" gradientUnits="userSpaceOnUse">
<stop stop-color="#CEDDFE"/>
<stop offset="1" stop-color="#7399EF"/>
</linearGradient>
<linearGradient id="paint39_linear_5579_3192" x1="300.388" y1="349.074" x2="341.361" y2="349.074" gradientUnits="userSpaceOnUse">
<stop stop-color="#26264F"/>
<stop offset="0.26" stop-color="#282853"/>
<stop offset="0.53" stop-color="#2E305F"/>
<stop offset="0.79" stop-color="#383C73"/>
<stop offset="1" stop-color="#444B89"/>
</linearGradient>
</defs>
</svg>
