<svg width="48" height="48" viewBox="0 0 48 48" fill="none" xmlns="http://www.w3.org/2000/svg">
<mask id="mask0_5579_4766" style="mask-type:alpha" maskUnits="userSpaceOnUse" x="0" y="0" width="48" height="48">
<rect width="48" height="48" fill="#D9D9D9"/>
</mask>
<g mask="url(#mask0_5579_4766)">
<path d="M36.077 24.769V23.231H42.3075V24.769H36.077ZM38.3075 37.923L33.296 34.1925L34.25 32.9845L39.2615 36.7155L38.3075 37.923ZM34.169 14.85L33.2155 13.6425L38.154 9.92297L39.1075 11.131L34.169 14.85ZM11.231 35.923V28.3075H8.4615C7.7135 28.3075 7.06501 28.033 6.51601 27.484C5.96701 26.935 5.6925 26.2865 5.6925 25.5385V22.4615C5.6925 21.7135 5.96701 21.065 6.51601 20.516C7.06501 19.967 7.7135 19.6925 8.4615 19.6925H16.3845L24.3075 15V33L16.3845 28.3075H12.769V35.923H11.231ZM22.769 30.277V17.723L16.8 21.231H8.4615C8.15384 21.231 7.87184 21.3591 7.6155 21.6155C7.35917 21.8718 7.231 22.1538 7.231 22.4615V25.5385C7.231 25.8461 7.35917 26.1281 7.6155 26.3845C7.87184 26.6408 8.15384 26.769 8.4615 26.769H16.8L22.769 30.277ZM27.846 29.777V18.223C28.5153 18.8436 29.0545 19.6585 29.4635 20.6675C29.8725 21.6765 30.077 22.7873 30.077 24C30.077 25.2126 29.8725 26.3235 29.4635 27.3325C29.0545 28.3415 28.5153 29.1563 27.846 29.777Z" fill="url(#paint0_linear_5579_4766)"/>
</g>
<defs>
<linearGradient id="paint0_linear_5579_4766" x1="5.69418" y1="23.661" x2="42.3092" y2="23.661" gradientUnits="userSpaceOnUse">
<stop stop-color="#52BAE2"/>
<stop offset="0.08" stop-color="#4495C8"/>
<stop offset="0.16" stop-color="#3671B0"/>
<stop offset="0.25" stop-color="#2C569E"/>
<stop offset="0.34" stop-color="#244290"/>
<stop offset="0.43" stop-color="#203688"/>
<stop offset="0.52" stop-color="#1F3386"/>
<stop offset="0.6" stop-color="#313687"/>
<stop offset="0.75" stop-color="#603E8C"/>
<stop offset="0.96" stop-color="#AB4B94"/>
<stop offset="1" stop-color="#BB4E96"/>
</linearGradient>
</defs>
</svg>
