<svg width="48" height="48" viewBox="0 0 48 48" fill="none" xmlns="http://www.w3.org/2000/svg">
<mask id="mask0_5579_4777" style="mask-type:alpha" maskUnits="userSpaceOnUse" x="0" y="0" width="48" height="48">
<rect width="48" height="48" fill="#D9D9D9"/>
</mask>
<g mask="url(#mask0_5579_4777)">
<path d="M23.9955 28.6885C24.3112 28.6885 24.5697 28.5893 24.771 28.391C24.9723 28.1923 25.073 27.9352 25.073 27.6195C25.073 27.3038 24.9738 27.0453 24.7755 26.844C24.5768 26.643 24.3198 26.5425 24.0045 26.5425C23.6888 26.5425 23.4303 26.6417 23.229 26.84C23.0277 27.0383 22.927 27.2953 22.927 27.611C22.927 27.9267 23.0262 28.1852 23.2245 28.3865C23.4232 28.5878 23.6802 28.6885 23.9955 28.6885ZM23.231 23.1655H24.769V10.769H23.231V23.1655ZM6 40.154V8.769C6 8.00067 6.26933 7.347 6.808 6.808C7.347 6.26933 8.00067 6 8.769 6H39.231C39.9993 6 40.653 6.26933 41.192 6.808C41.7307 7.347 42 8.00067 42 8.769V31.231C42 31.9993 41.7307 32.653 41.192 33.192C40.653 33.7307 39.9993 34 39.231 34H12.154L6 40.154ZM11.469 32.4615H39.231C39.5387 32.4615 39.8207 32.3333 40.077 32.077C40.3333 31.8207 40.4615 31.5387 40.4615 31.231V8.769C40.4615 8.46133 40.3333 8.17933 40.077 7.923C39.8207 7.66667 39.5387 7.5385 39.231 7.5385H8.769C8.46133 7.5385 8.17933 7.66667 7.923 7.923C7.66667 8.17933 7.5385 8.46133 7.5385 8.769V36.5385L11.469 32.4615Z" fill="url(#paint0_linear_5579_4777)"/>
</g>
<defs>
<linearGradient id="paint0_linear_5579_4777" x1="6.00165" y1="22.7574" x2="42.0016" y2="22.7574" gradientUnits="userSpaceOnUse">
<stop stop-color="#52BAE2"/>
<stop offset="0.08" stop-color="#4495C8"/>
<stop offset="0.16" stop-color="#3671B0"/>
<stop offset="0.25" stop-color="#2C569E"/>
<stop offset="0.34" stop-color="#244290"/>
<stop offset="0.43" stop-color="#203688"/>
<stop offset="0.52" stop-color="#1F3386"/>
<stop offset="0.6" stop-color="#313687"/>
<stop offset="0.75" stop-color="#603E8C"/>
<stop offset="0.96" stop-color="#AB4B94"/>
<stop offset="1" stop-color="#BB4E96"/>
</linearGradient>
</defs>
</svg>
