<svg width="48" height="48" viewBox="0 0 48 48" fill="none" xmlns="http://www.w3.org/2000/svg">
<mask id="mask0_5579_4786" style="mask-type:alpha" maskUnits="userSpaceOnUse" x="0" y="0" width="48" height="48">
<rect width="48" height="48" fill="#D9D9D9"/>
</mask>
<g mask="url(#mask0_5579_4786)">
<path d="M39.2615 40.296L26.4575 27.4925C25.4678 28.3865 24.3135 29.0683 22.9945 29.538C21.6758 30.0076 20.3495 30.2425 19.0155 30.2425C15.8291 30.2425 13.1326 29.142 10.926 26.941C8.71898 24.74 7.61548 22.0566 7.61548 18.891C7.61548 15.7253 8.71598 13.0398 10.917 10.8345C13.118 8.62948 15.8003 7.52698 18.964 7.52698C22.1276 7.52698 24.8195 8.62798 27.0395 10.83C29.2591 13.0323 30.369 15.715 30.369 18.878C30.369 20.2516 30.123 21.5986 29.631 22.919C29.1386 24.2396 28.4513 25.3936 27.569 26.381L40.3845 39.1345L39.2615 40.296ZM19.004 28.704C21.7593 28.704 24.086 27.7585 25.984 25.8675C27.882 23.9765 28.831 21.6488 28.831 18.8845C28.831 16.1205 27.882 13.793 25.984 11.902C24.086 10.011 21.7593 9.06548 19.004 9.06548C16.242 9.06548 13.9098 10.011 12.0075 11.902C10.1051 13.793 9.15398 16.1205 9.15398 18.8845C9.15398 21.6488 10.1051 23.9765 12.0075 25.8675C13.9098 27.7585 16.242 28.704 19.004 28.704Z" fill="url(#paint0_linear_5579_4786)"/>
</g>
<defs>
<linearGradient id="paint0_linear_5579_4786" x1="7.61698" y1="23.6048" x2="40.386" y2="23.6048" gradientUnits="userSpaceOnUse">
<stop stop-color="#52BAE2"/>
<stop offset="0.08" stop-color="#4495C8"/>
<stop offset="0.16" stop-color="#3671B0"/>
<stop offset="0.25" stop-color="#2C569E"/>
<stop offset="0.34" stop-color="#244290"/>
<stop offset="0.43" stop-color="#203688"/>
<stop offset="0.52" stop-color="#1F3386"/>
<stop offset="0.6" stop-color="#313687"/>
<stop offset="0.75" stop-color="#603E8C"/>
<stop offset="0.96" stop-color="#AB4B94"/>
<stop offset="1" stop-color="#BB4E96"/>
</linearGradient>
</defs>
</svg>
