<svg width="380" height="50" viewBox="0 0 380 50" fill="none" xmlns="http://www.w3.org/2000/svg">
<path d="M74.2201 14.5949C74.5199 14.6698 74.7197 14.8946 74.7197 15.1944V20.6648C74.7197 20.7897 74.6448 20.9396 74.5448 21.0145C74.4449 21.0895 74.32 21.1145 74.1951 21.0895C73.4458 20.8896 72.7214 20.6898 71.7721 20.7897C70.5232 20.8896 69.5989 21.5141 68.6248 22.2135V35.8272C68.6248 36.0021 68.5498 36.1519 68.4499 36.2519C68.325 36.3767 68.1751 36.4267 68.0253 36.4267H62.7796C62.4299 36.4267 62.1551 36.1519 62.1551 35.8022V15.0695C62.1551 14.7198 62.4299 14.445 62.7796 14.445H67.0011C67.3258 14.445 67.6256 14.6448 67.7505 14.9446C68.0253 15.644 68.2751 16.4933 68.4499 17.2677C68.4749 17.2427 68.4749 17.2177 68.4999 17.2177C69.499 15.9687 70.4982 14.6698 72.3217 14.42C72.9711 14.3701 73.6955 14.445 74.2201 14.5949ZM206.385 21.9637C206.385 16.7681 204.112 14.1203 199.616 14.1203C197.118 14.1203 195.394 15.2943 194.045 16.4433C193.895 15.9188 193.746 15.4192 193.571 14.9696C193.446 14.6698 193.146 14.47 192.821 14.47H188.625C188.275 14.47 188 14.7448 188 15.0945V35.8272C188 36.1769 188.275 36.4517 188.625 36.4517H193.87C194.22 36.4517 194.495 36.1769 194.495 35.8272V21.1894C194.895 20.8147 195.919 19.9904 197.268 19.9904C199.141 19.9904 199.965 21.0645 199.965 23.4625V35.8272C199.965 36.1769 200.24 36.4517 200.59 36.4517H205.811C206.16 36.4517 206.435 36.1769 206.435 35.8272C206.385 33.729 206.385 26.0603 206.385 21.9637ZM162.896 14.47H157.651C157.301 14.47 157.026 14.7448 157.026 15.0945V35.8272C157.026 36.1769 157.301 36.4517 157.651 36.4517H162.896C163.246 36.4517 163.521 36.1769 163.521 35.8272V15.0945C163.521 14.7448 163.246 14.47 162.896 14.47ZM162.122 4.87798C161.722 4.65316 161.248 4.50329 160.673 4.45333C159.974 4.40337 159.374 4.47831 158.8 4.7281C157.626 5.22769 156.452 6.6515 156.676 8.54992C156.801 9.62403 157.326 10.4983 158.175 11.1228C158.775 11.5724 159.499 11.7972 160.273 11.7972C160.298 11.7972 160.298 11.7972 160.323 11.7972C160.873 11.7972 161.373 11.6973 161.822 11.5224C163.196 10.9479 164.07 9.47415 163.995 7.95042C163.895 6.60154 163.271 5.57739 162.122 4.87798ZM55.3858 20.8896C56.6347 21.2643 57.7838 22.0137 58.6081 23.0628C59.6073 24.3368 60.1068 25.9354 60.1068 27.8339C60.1068 33.1544 56.5848 36.4517 51.0144 36.4517H39.9736C39.7988 36.4517 39.6489 36.3767 39.549 36.2768C39.4241 36.1519 39.3741 36.0021 39.3741 35.8522V7.20104C39.3741 6.85133 39.6489 6.57656 39.9986 6.57656H50.6148C55.9353 6.57656 59.3075 9.47415 59.3075 14.1453C59.3075 18.7664 56.8845 20.3151 55.4357 20.8397H55.4108C55.3858 20.8397 55.3608 20.8647 55.3358 20.8647C55.3358 20.8647 55.3358 20.8896 55.3858 20.8896ZM46.3433 30.9812H49.5157C51.5889 30.9812 52.688 29.6573 52.688 27.1844C52.688 24.8863 51.4391 23.5624 49.2159 23.5374H46.3183L46.3433 30.9812ZM49.4158 18.5666C51.3142 18.5666 52.3383 17.3426 52.3383 15.1194C52.3383 13.271 51.1893 12.2219 49.166 12.2219H46.2934V18.5666H49.4158ZM85.136 14.0703C88.2834 14.0703 90.8812 15.1694 92.6548 17.2427C94.3533 19.241 95.2526 22.1136 95.2526 25.5108C95.2526 32.1553 91.0061 36.9763 85.136 36.9763C81.9886 36.9763 79.3908 35.8772 77.6173 33.8039C75.9187 31.8056 75.0194 28.9329 75.0194 25.5358C75.0194 18.8913 79.2909 14.0703 85.136 14.0703ZM88.5332 25.5358C88.5332 21.4392 87.3841 19.5408 85.136 19.5408C82.8879 19.5408 81.7388 21.4142 81.7388 25.5358C81.7388 29.6573 82.8879 31.5308 85.136 31.5308C87.3841 31.5308 88.5332 29.6324 88.5332 25.5358ZM185.652 14.47C185.902 14.5449 186.077 14.7947 186.077 15.0695V19.5907C186.077 19.7156 186.027 19.8405 185.927 19.9404C185.827 20.0154 185.702 20.0653 185.577 20.0154C184.828 19.8405 183.954 19.8155 183.179 19.8905C183.429 20.5899 183.554 21.3393 183.554 22.0637C183.554 26.9596 180.132 30.107 174.836 30.107C174.686 30.107 174.537 30.107 174.387 30.107H174.362C173.612 30.057 173.088 30.1569 172.838 30.4067C172.713 30.5066 172.663 30.6565 172.663 30.8314C172.663 31.281 172.888 31.6557 174.562 31.7306C174.562 31.7306 174.836 31.7306 177.834 31.8805C182.855 32.1303 185.403 34.3784 185.403 38.475C185.403 40.4484 184.553 42.3218 182.98 43.6457C181.081 45.2693 178.258 46.0937 174.612 46.0937C168.891 46.0937 165.319 43.8705 165.319 40.4234C165.319 38.4001 166.768 36.4767 168.766 35.7772C167.467 34.8031 166.943 33.4292 166.943 32.2552C166.943 30.9063 167.767 29.6324 169.216 28.6832C167.193 27.3093 166.094 24.9862 166.094 22.0886C166.094 17.1927 169.541 14.0453 174.861 14.0453C176.91 14.0453 179.008 14.7697 180.557 16.0187C181.731 14.9196 183.055 14.3451 184.478 14.3451C184.853 14.3201 185.278 14.3701 185.652 14.47ZM172.688 37.0262C171.564 37.5758 170.99 38.3751 170.99 39.3493C170.99 40.898 172.263 41.5974 174.786 41.5974C177.584 41.5974 179.083 40.848 179.108 39.2743C179.158 37.9754 178.234 37.301 176.36 37.2011L172.688 37.0262ZM177.334 21.9138C177.334 19.9654 176.385 18.8164 174.811 18.8164C173.238 18.8164 172.288 19.9654 172.288 21.9138C172.288 23.8622 173.238 25.0112 174.811 25.0112C176.385 25.0112 177.334 23.8372 177.334 21.9138ZM105.644 14.1203C111.339 14.1203 113.887 16.818 113.887 22.3384V35.8272C113.887 36.1769 113.612 36.4517 113.263 36.4517H109.241C108.916 36.4517 108.616 36.2519 108.492 35.9521C108.367 35.6024 108.217 35.2027 108.092 34.7781C107.043 36.0021 105.094 36.8264 103.221 36.8264C99.1993 36.8264 96.4766 33.9787 96.4766 29.7573C96.4766 25.4359 99.8488 22.6382 105.094 22.6382C105.969 22.6382 106.793 22.6632 107.442 22.7381L107.467 22.2885C107.467 20.5399 106.918 19.4658 104.195 19.4658C102.297 19.4658 99.8238 20.3401 98.6747 20.8397C98.5499 20.8896 98.375 20.8896 98.2501 20.8147C98.1252 20.7398 98.0503 20.5899 98.0503 20.44V16.1436C98.0503 15.8189 98.2251 15.5441 98.5249 15.4192C99.9986 14.7947 103.221 14.1203 105.644 14.1203ZM102.796 29.3076C102.796 30.2818 103.596 31.256 105.144 31.256C105.969 31.256 106.768 30.9563 107.442 30.3817V27.3842C107.093 27.3343 106.568 27.3343 105.994 27.3343C104.12 27.3093 102.796 28.1336 102.796 29.3076ZM135.194 5.72727C135.544 5.72727 135.819 6.00204 135.819 6.35175V35.8272C135.819 36.1769 135.544 36.4517 135.194 36.4517H130.948C130.623 36.4517 130.323 36.2519 130.199 35.9521C130.049 35.6024 129.924 35.2027 129.799 34.7531C128.225 36.4017 126.052 37.0012 124.528 37.0012C119.432 37.0012 116.26 32.6049 116.26 25.5358C116.26 18.5916 119.507 14.0953 124.528 14.0953C125.752 14.0953 127.601 14.47 129.149 15.5441V6.32677C129.149 5.97706 129.424 5.70229 129.774 5.70229L135.194 5.72727ZM126.152 31.281C127.551 31.281 128.625 30.2319 129.174 29.2577V21.7639C128.625 20.7897 127.551 19.7656 126.152 19.7656C124.054 19.7656 123.029 21.639 123.029 25.4858C123.004 29.3826 124.029 31.281 126.152 31.281ZM148.958 22.9379C146.685 21.9388 144.961 21.4142 144.961 20.44C144.961 19.9404 145.461 19.3659 147.034 19.3659C149.033 19.3659 150.981 19.9404 153.304 21.0395C153.604 21.1894 153.929 20.9646 153.929 20.6399V16.0437C153.929 15.7439 153.754 15.4941 153.504 15.3692C151.855 14.5949 149.283 14.0453 147.034 14.0453C142.313 14.0453 138.392 16.2185 138.392 20.6898C138.392 24.2369 140.565 26.2602 144.611 27.9338C146.76 28.833 148.358 29.2827 148.333 30.3068C148.333 30.8064 147.909 31.4059 145.86 31.4059C143.762 31.4059 141.314 30.6066 139.341 29.6324C139.041 29.4825 138.691 29.7073 138.691 30.032V34.7781C138.691 35.0778 138.866 35.3276 139.116 35.4525C141.064 36.4017 143.487 36.8264 145.835 36.8264C150.656 36.8264 154.903 34.5533 154.903 30.057C154.928 26.485 152.855 24.6615 148.958 22.9379Z" fill="white"/>
<path d="M19.4088 10.3479L9.71691 4.7526L1.77352 0.156429C0.99917 -0.293197 0 0.281326 0 1.18058V10.3479V21.5386V32.7293V41.8967C0 42.7959 0.97419 43.3705 1.77352 42.9208L9.71691 38.3496L19.4088 32.7543L28.3264 27.6086C28.801 27.3338 29.1008 26.8092 29.1008 26.2597V16.8425C29.1008 16.293 28.801 15.7684 28.3264 15.4937L19.4088 10.3479ZM9.69193 27.134V15.9433L19.3839 21.5386L9.69193 27.134Z" fill="white"/>
<mask id="mask0_5579_3272" style="mask-type:alpha" maskUnits="userSpaceOnUse" x="209" y="3" width="47" height="47">
<rect x="209.257" y="3.83984" width="46.0749" height="46.0749" fill="#D9D9D9"/>
</mask>
<g mask="url(#mask0_5579_3272)">
<path d="M225.383 36.4753L222.695 33.7876L229.606 26.8764L222.695 20.0131L225.383 17.3254L232.294 24.2367L239.157 17.3254L241.845 20.0131L234.934 26.8764L241.845 33.7876L239.157 36.4753L232.294 29.5641L225.383 36.4753Z" fill="white"/>
</g>
<path d="M360.788 35.965C359.174 34.6274 358.366 32.8236 358.366 30.5535C358.366 28.351 359.218 26.6233 360.921 25.3704C362.624 24.1176 364.885 23.2703 367.703 22.8286L371.232 22.2691C372.408 22.0666 373.24 21.8211 373.729 21.5328C374.217 21.2445 374.461 20.7114 374.461 19.9333C374.476 19.3657 374.352 18.8031 374.102 18.2945C373.851 17.786 373.481 17.3469 373.024 17.0156C372.064 16.288 370.878 15.9236 369.467 15.9224C367.887 15.9224 366.584 16.3291 365.559 17.1427C364.533 17.9562 363.971 19.1421 363.87 20.7005H358.821C359.022 18.0574 360.098 15.4916 362.048 13.9161C363.998 12.3405 366.453 11.5476 369.411 11.5476C371.21 11.5221 372.991 11.8953 374.63 12.6409C376.154 13.3351 377.449 14.4548 378.362 15.8674C379.287 17.2908 379.75 19.0014 379.75 20.9991V34.2143C379.756 35.3025 379.84 36.3887 380 37.465H375.411C375.269 36.4352 375.202 35.3964 375.211 34.3568V34.053C373.629 36.6618 370.904 37.9661 367.035 37.9661C364.484 37.9707 362.401 37.3036 360.788 35.965ZM365.024 32.9924C365.932 33.6697 367.092 34.0084 368.504 34.0084C370.285 34.0084 371.722 33.4935 372.815 32.4638C373.907 31.434 374.454 29.9689 374.455 28.0684V25.4768C374.051 25.5781 373.444 25.6983 372.639 25.8321L368.754 26.4928C367.141 26.764 365.891 27.1645 365.007 27.6943C364.122 28.224 363.677 29.0793 363.67 30.26C363.655 30.7925 363.771 31.3205 364.007 31.7971C364.244 32.2736 364.592 32.6842 365.024 32.9924Z" fill="white"/>
<path d="M338.51 16.9358C339.21 15.3297 340.346 13.9554 341.787 12.9712C343.2 12.0238 344.932 11.5496 346.981 11.5484C349.604 11.5484 351.731 12.4546 353.361 14.267C354.992 16.0794 355.807 18.5427 355.807 21.6573V37.464H350.51V22.9822C350.51 20.9158 350.023 19.2899 349.049 18.1045C348.075 16.9191 346.696 16.3259 344.914 16.3247C342.829 16.3247 341.239 17.0365 340.145 18.4598C339.05 19.8831 338.504 21.6956 338.506 23.897V37.4555H333.214V1.92017H338.51V16.9358Z" fill="white"/>
<path d="M325.413 27.384C325.119 28.5993 324.562 29.7343 323.783 30.7084C322.493 32.3171 320.72 33.1214 318.462 33.1214C317.724 33.1241 316.988 33.0229 316.277 32.8211C315.058 32.4951 314.063 31.7519 313.237 30.7324C312.629 29.9745 312.157 29.1155 311.842 28.1941C311.794 28.043 311.747 27.892 311.704 27.7358C311.426 26.7687 311.286 25.7667 311.289 24.7598C311.289 22.3571 311.936 20.3502 313.23 18.7392C314.525 17.1282 316.298 16.3233 318.551 16.3244C319.338 16.3164 320.122 16.4321 320.874 16.6676C320.942 16.69 321.011 16.7139 321.077 16.7397L321.218 16.7946C322.221 17.1985 323.102 17.8594 323.773 18.7117C324.385 19.4769 324.858 20.3441 325.173 21.2741C325.219 21.4166 325.265 21.5589 325.304 21.7083C325.304 21.7083 325.362 21.9297 325.389 22.0395H330.773C330.707 21.6603 330.63 21.2844 330.535 20.9153C329.96 18.2987 328.537 15.9495 326.49 14.2391C324.806 12.8331 322.756 11.9454 320.585 11.6819C319.882 11.5789 319.173 11.5285 318.462 11.5308C315.302 11.5308 312.655 12.429 310.519 14.2254C308.383 16.0217 307.013 18.3421 306.409 21.1865C306.135 22.3574 306.001 23.5569 306.009 24.7598C306.005 26.0587 306.171 27.3526 306.503 28.6077C307.094 31.2039 308.517 33.5315 310.553 35.2308C312.074 36.5117 313.902 37.3681 315.855 37.7142C315.903 37.7245 315.952 37.7313 316.001 37.7399C316.124 37.7622 316.25 37.7829 316.374 37.8C317.099 37.9147 317.832 37.9721 318.566 37.9716C321.691 37.9716 324.331 37.0654 326.485 35.2531C328.639 33.4407 330.016 31.1152 330.617 28.2764C330.688 27.9813 330.75 27.6832 330.802 27.3823L325.413 27.384Z" fill="white"/>
<path d="M303.916 1.92017H298.617V7.25947H303.916V1.92017Z" fill="white"/>
<path d="M298.619 7.25879H293.319V12.768H288.02V17.9408H293.361V29.5376C293.361 32.2836 294.126 34.5303 295.657 35.8878C297.188 37.2454 299.234 37.9731 301.788 37.9731C302.931 37.9731 304.142 37.5937 305.117 37.2145V32.3317C304.435 32.7058 303.543 33.0834 302.603 33.0834C301.354 33.0834 300.37 32.7018 299.651 31.9387C298.929 31.1767 298.663 29.8929 298.663 28.4701V17.9408H303.895V12.7766L298.615 12.7628L298.619 7.25879Z" fill="white"/>
<path d="M288.019 17.9414H282.724V37.4656H288.019V17.9414Z" fill="white"/>
<path d="M265.623 32.3291L279.572 17.9347H279.586V17.921V17.9193V12.7637H259.669V17.9347H273.058L259.171 32.3273L259.173 32.3291H259.171V37.4641H279.918V32.3291H265.623Z" fill="white"/>
</svg>
