<svg width="48" height="48" viewBox="0 0 48 48" fill="none" xmlns="http://www.w3.org/2000/svg">
<mask id="mask0_9071_1052" style="mask-type:alpha" maskUnits="userSpaceOnUse" x="0" y="0" width="48" height="48">
<rect width="48" height="48" fill="#D9D9D9"/>
</mask>
<g mask="url(#mask0_9071_1052)">
<path d="M22.9077 40.3C21.7647 40.3 20.7964 39.9108 20.0027 39.1325C19.2087 38.3545 18.8117 37.4007 18.8117 36.271C18.8117 35.1413 19.2087 34.1733 20.0027 33.367C20.7964 32.5607 21.7637 32.1575 22.9047 32.1575L24.1122 31.009C24.3805 30.7337 24.6962 30.5127 25.0592 30.346C25.4222 30.1793 25.7939 30.096 26.1742 30.096C26.9885 30.096 27.672 30.3877 28.2247 30.971C28.7777 31.5543 29.0542 32.2325 29.0542 33.0055V33.919C29.0542 34.5857 29.283 35.148 29.7407 35.606C30.1984 36.0637 30.7605 36.2925 31.4272 36.2925C31.9365 36.2925 32.3949 36.1368 32.8022 35.8255C33.2095 35.5142 33.4982 35.1165 33.6682 34.6325L34.3002 32.919C34.6002 32.1037 35.0752 31.429 35.7252 30.895C36.3752 30.3607 37.156 30.0935 38.0677 30.0935C38.4277 29.1542 38.716 28.168 38.9327 27.135C39.1494 26.1017 39.2577 25.0528 39.2577 23.9885C39.2577 20.9228 38.5149 18.1558 37.0292 15.6875C35.5432 13.2188 33.5592 11.2602 31.0772 9.8115V11.6845C31.0772 12.7882 30.6785 13.7448 29.8812 14.5545C29.0835 15.3642 28.1249 15.769 27.0052 15.769H24.9692V19.8655C24.9692 20.4198 24.7647 20.9013 24.3557 21.31C23.9464 21.7183 23.4637 21.9225 22.9077 21.9225H20.8462V25.401C20.8462 26.1453 20.5929 26.7768 20.0862 27.2955C19.5795 27.8138 18.9547 28.073 18.2117 28.073C17.7547 28.073 17.3219 27.9647 16.9132 27.748C16.5045 27.5313 16.1797 27.2525 15.9387 26.9115L12.6557 21.927H10.6042V23.9595C10.6042 25.0098 10.2654 25.9172 9.58771 26.6815C8.91005 27.4458 8.06671 27.893 7.05771 28.023C7.96538 31.5793 9.88005 34.5147 12.8017 36.829C15.723 39.143 19.0917 40.3 22.9077 40.3ZM27.0067 28.073C26.4307 28.073 25.9472 27.8683 25.5562 27.459C25.1649 27.0497 24.9692 26.5672 24.9692 26.0115C24.9692 25.4448 25.1649 24.966 25.5562 24.575C25.9472 24.184 26.4307 23.9885 27.0067 23.9885H29.0397C29.616 23.9885 30.0997 24.184 30.4907 24.575C30.8817 24.966 31.0772 25.4448 31.0772 26.0115C31.0772 26.5782 30.8817 27.0635 30.4907 27.4675C30.0997 27.8712 29.616 28.073 29.0397 28.073H27.0067ZM31.7817 21.927C31.112 21.927 30.5734 21.6583 30.1657 21.121C29.758 20.584 29.6564 19.9953 29.8607 19.355L30.6272 17.131C30.7682 16.6977 31.015 16.3623 31.3677 16.125C31.72 15.8877 32.0872 15.769 32.4692 15.769C33.1489 15.769 33.6925 16.0377 34.1002 16.575C34.5079 17.1123 34.615 17.6998 34.4217 18.3375L33.6002 20.5655C33.4592 20.9988 33.2212 21.334 32.8862 21.571C32.5515 21.8083 32.1834 21.927 31.7817 21.927ZM22.9277 42C20.422 42 18.0812 41.5277 15.9052 40.583C13.7289 39.6383 11.8247 38.348 10.1927 36.712C8.56072 35.076 7.27188 33.1725 6.32621 31.0015C5.38055 28.8302 4.90771 26.4967 4.90771 24.001C4.90771 21.505 5.38005 19.164 6.32471 16.978C7.26938 14.7923 8.55971 12.889 10.1957 11.268C11.832 9.647 13.7357 8.36383 15.9067 7.4185C18.0777 6.47283 20.4112 6 22.9072 6C25.4029 6 27.7437 6.47233 29.9297 7.417C32.1157 8.36167 34.019 9.64367 35.6397 11.263C37.2607 12.8823 38.544 14.7867 39.4897 16.976C40.435 19.165 40.9077 21.4997 40.9077 23.98C40.9077 26.486 40.4354 28.827 39.4907 31.003C38.5464 33.179 37.2644 35.08 35.6447 36.706C34.0254 38.332 32.1212 39.6208 29.9322 40.5725C27.7429 41.5242 25.408 42 22.9277 42Z" fill="url(#paint0_linear_9071_1052)"/>
</g>
<defs>
<linearGradient id="paint0_linear_9071_1052" x1="-10.7069" y1="23.9709" x2="49.1358" y2="23.8327" gradientUnits="userSpaceOnUse">
<stop offset="0.317708" stop-color="#E43425"/>
<stop offset="0.71875" stop-color="#441FD8"/>
<stop offset="1" stop-color="#0A26B8"/>
</linearGradient>
</defs>
</svg>
