<svg width="48" height="48" viewBox="0 0 48 48" fill="none" xmlns="http://www.w3.org/2000/svg">
<mask id="mask0_9071_1067" style="mask-type:alpha" maskUnits="userSpaceOnUse" x="0" y="0" width="48" height="48">
<rect width="48" height="48" fill="#D9D9D9"/>
</mask>
<g mask="url(#mask0_9071_1067)">
<path d="M23.4038 39.8844C23.6651 39.8844 23.9329 39.8254 24.2073 39.7074C24.4816 39.5898 24.7034 39.4463 24.8728 39.2769L40.4653 23.6844C40.9676 23.1821 41.3554 22.6681 41.6288 22.1424C41.9018 21.6168 42.0383 21.0398 42.0383 20.4114C42.0383 19.7754 41.9018 19.1581 41.6288 18.5594C41.3554 17.9608 40.9676 17.4139 40.4653 16.9189L32.9653 9.41893C32.4703 8.91659 31.9619 8.54809 31.4403 8.31343C30.9183 8.07876 30.3394 7.96143 29.7038 7.96143C29.0754 7.96143 28.4921 8.07876 27.9538 8.31343C27.4151 8.54809 26.9074 8.91659 26.4308 9.41893L24.6883 11.1614L28.3883 14.8729C28.7856 15.2626 29.0818 15.7063 29.2768 16.2039C29.4714 16.7013 29.5688 17.2063 29.5688 17.7189C29.5688 18.7603 29.2284 19.6213 28.5478 20.3019C27.8671 20.9826 27.0063 21.3229 25.9653 21.3229C25.4523 21.3229 24.9516 21.2448 24.4633 21.0884C23.9749 20.9321 23.5358 20.6589 23.1458 20.2689L19.3188 16.4539L10.6843 25.0884C10.4819 25.2911 10.3301 25.5213 10.2288 25.7789C10.1274 26.0366 10.0768 26.2961 10.0768 26.5574C10.0768 27.0294 10.2281 27.4186 10.5308 27.7249C10.8331 28.0313 11.2203 28.1844 11.6923 28.1844C11.9536 28.1844 12.2214 28.1254 12.4958 28.0074C12.7701 27.8898 12.9919 27.7463 13.1613 27.5769L19.4998 21.2384L20.9153 22.6539L14.5883 28.9924C14.3856 29.1948 14.2336 29.4248 14.1323 29.6824C14.0313 29.9401 13.9808 30.1998 13.9808 30.4614C13.9808 30.9078 14.1384 31.2886 14.4538 31.6039C14.7691 31.9193 15.1498 32.0769 15.5958 32.0769C15.8574 32.0769 16.1254 32.0179 16.3998 31.8999C16.6741 31.7819 16.8959 31.6383 17.0653 31.4689L23.8653 24.6809L25.2808 26.0959L18.4923 32.8959C18.3153 33.0653 18.1698 33.2871 18.0558 33.5614C17.9414 33.8358 17.8843 34.1038 17.8843 34.3654C17.8843 34.8114 18.0419 35.1921 18.3573 35.5074C18.6729 35.8231 19.0538 35.9809 19.4998 35.9809C19.7614 35.9809 20.0211 35.9303 20.2788 35.8289C20.5364 35.7276 20.7664 35.5756 20.9688 35.3729L27.7688 28.5844L29.1843 29.9999L22.3843 36.7999C22.1819 37.0026 22.0301 37.2456 21.9288 37.5289C21.8274 37.8123 21.7768 38.0718 21.7768 38.3074C21.7768 38.7794 21.9428 39.1603 22.2748 39.4499C22.6068 39.7396 22.9831 39.8844 23.4038 39.8844ZM23.3923 41.8844C22.3639 41.8844 21.4838 41.5083 20.7518 40.7559C20.0198 40.0033 19.6986 39.0743 19.7883 37.9689C18.6549 37.9819 17.7113 37.6436 16.9573 36.9539C16.2036 36.2639 15.8459 35.3011 15.8843 34.0654C14.6486 34.0781 13.6749 33.7249 12.9633 33.0059C12.2516 32.2866 11.9279 31.3384 11.9923 30.1614C10.8793 30.1744 9.94843 29.8616 9.19977 29.2229C8.4511 28.5846 8.07677 27.6961 8.07677 26.5574C8.07677 26.0448 8.1761 25.5314 8.37477 25.0174C8.57343 24.5031 8.8676 24.0511 9.25727 23.6614L19.3188 13.6114L24.4843 18.7769C24.6536 18.9539 24.8626 19.0994 25.1113 19.2134C25.3599 19.3274 25.6408 19.3844 25.9538 19.3844C26.3818 19.3844 26.7599 19.2351 27.0883 18.9364C27.4166 18.6378 27.5808 18.2486 27.5808 17.7689C27.5808 17.4563 27.5236 17.1756 27.4093 16.9269C27.2953 16.6783 27.1498 16.4693 26.9728 16.2999L20.0923 9.41893C19.5973 8.91659 19.0824 8.54809 18.5478 8.31343C18.0131 8.07876 17.4279 7.96143 16.7923 7.96143C16.1639 7.96143 15.5934 8.07876 15.0808 8.31343C14.5678 8.54809 14.0599 8.91659 13.5573 9.41893L7.46877 15.5189C7.04077 15.9473 6.69477 16.4576 6.43077 17.0499C6.16643 17.6423 6.0266 18.2538 6.01127 18.8844C5.99593 19.3358 6.03443 19.7698 6.12677 20.1864C6.2191 20.6031 6.36527 20.9948 6.56527 21.3614L5.04977 22.8769C4.71377 22.3409 4.45093 21.7236 4.26127 21.0249C4.0716 20.3263 3.98443 19.6128 3.99977 18.8844C4.0151 17.9768 4.1971 17.1069 4.54577 16.2749C4.89443 15.4429 5.39327 14.7026 6.04227 14.0539L12.0923 8.00393C12.7896 7.31393 13.5274 6.80109 14.3058 6.46543C15.0838 6.12943 15.9254 5.96143 16.8308 5.96143C17.7358 5.96143 18.5709 6.12943 19.3363 6.46543C20.1016 6.80109 20.8291 7.31393 21.5188 8.00393L23.2613 9.74593L25.0038 8.00393C25.7011 7.31393 26.4324 6.80109 27.1978 6.46543C27.9631 6.12943 28.7984 5.96143 29.7038 5.96143C30.6088 5.96143 31.4504 6.12943 32.2288 6.46543C33.0068 6.80109 33.7408 7.31393 34.4308 8.00393L41.8808 15.4539C42.5704 16.1436 43.1024 16.9179 43.4768 17.7769C43.8511 18.6359 44.0383 19.5179 44.0383 20.4229C44.0383 21.3283 43.8511 22.1636 43.4768 22.9289C43.1024 23.6943 42.5704 24.4218 41.8808 25.1114L26.2883 40.6924C25.8729 41.1078 25.4209 41.4103 24.9323 41.5999C24.4439 41.7896 23.9306 41.8844 23.3923 41.8844Z" fill="url(#paint0_linear_9071_1067)"/>
</g>
<defs>
<linearGradient id="paint0_linear_9071_1067" x1="-13.369" y1="23.8939" x2="53.1896" y2="23.7226" gradientUnits="userSpaceOnUse">
<stop offset="0.317708" stop-color="#E43425"/>
<stop offset="0.71875" stop-color="#441FD8"/>
<stop offset="1" stop-color="#0A26B8"/>
</linearGradient>
</defs>
</svg>
