<?xml version="1.0" encoding="UTF-8"?>
<svg id="Layer_1" xmlns="http://www.w3.org/2000/svg" version="1.1" xmlns:xlink="http://www.w3.org/1999/xlink" viewBox="0 0 105 29.3">
  <!-- Generator: Adobe Illustrator 29.2.1, SVG Export Plug-In . SVG Version: 2.1.0 Build 116)  -->
  <defs>
    <style>
      .st0, .st1 {
        fill: #001464;
      }

      .st1 {
        isolation: isolate;
        opacity: .7;
      }
    </style>
  </defs>
  <path class="st0" d="M39.8,11.9c-.7,0-1.3.1-1.9.3-.6.2-1.1.5-1.6.8l.7,1.5h0c.4-.3.8-.5,1.1-.6.4-.2.8-.2,1.2-.2s.5,0,.7.1c.2,0,.3.2.4.3,0,.1.2.3.2.5v.5c-.8,0-1.6.2-2.2.4-.4.1-.7.2-1,.4-.2,0-.4.2-.5.3-.4.3-.7.6-.9.9-.2.4-.3.8-.3,1.2,0,.8.2,1.4.7,1.8.5.5,1.1.7,1.9.7s1-.1,1.4-.3h0c.4-.2.8-.5,1.2-.8v.9h1.9v-5.1c0-1.2-.3-2.1-.8-2.7-.5-.6-1.3-1-2.4-1h.2ZM40.9,18.3c-.3.3-.6.5-.9.6-.3.2-.6.2-.9.2s-.6,0-.8-.2-.3-.4-.3-.8,0-.4,0-.5c0-.2.3-.3.5-.5.2-.1.5-.3.9-.4s.8-.2,1.3-.3v1.8h.1ZM29.7,16.3c.1.3.2.7.2,1.1s0,.9-.3,1.3c-.2.4-.5.8-.8,1.1-.4.3-.8.6-1.3.7-.5.2-1.1.3-1.7.3s-.8,0-1.2-.1c-.3,0-.7-.2-1-.3-.7-.3-1.2-.6-1.6-1h0l.9-1.9.2.2c.4.4.8.7,1.3.9.4.2.7.3,1.1.3h.4c.6,0,1.1-.1,1.4-.4.3-.2.5-.6.5-1s0-.4-.1-.5c0-.2-.2-.3-.3-.4-.2-.1-.3-.2-.5-.3h0c-.2,0-.4-.2-.6-.3l-1.5-.7c-.2,0-.4-.2-.5-.3-.1,0-.2-.1-.3-.2-.3-.2-.5-.4-.7-.6s-.4-.5-.5-.9c-.1-.3-.2-.7-.2-1.1s.1-.9.3-1.3c.2-.4.5-.7.8-1s.7-.5,1.2-.7,1-.2,1.5-.2h.7c.4,0,.8.2,1.2.3.6.2,1,.5,1.4.9h0l-.8,1.7-.3-.2c-.3-.3-.7-.5-1-.6-.4-.2-.8-.3-1.3-.3s-.1,0-.2,0c-.4,0-.8.1-1.1.3-.3.2-.4.5-.4.9s0,.4.1.5c0,.1.2.3.4.4h0c.2.1.3.2.5.3.2,0,.4.2.7.3l1.5.6h0c.3.2.6.3.9.5s.5.4.7.6.4.5.5.9l-.2.2ZM32.9,13.8v3.9c0,.9.4,1.4,1.1,1.4s.3,0,.4,0,.3,0,.4-.1h0l.4,1.6h0c-.2.1-.5.2-.8.2h-.9c-.5,0-.9,0-1.3-.2-.2,0-.4-.2-.5-.3-.1,0-.2-.2-.3-.3-.2-.3-.4-.6-.5-1s-.1-.8-.1-1.3v-7.9h2.1v2.3h2.6l-.8,1.7s-1.8,0-1.8,0ZM50.1,18.4l.7,1.6h0c-.4.3-.6.5-1.1.6-.5.2-1,.3-1.5.3s-.8,0-1.2-.2c0,0-.3,0-.4-.1-.5-.2-.9-.5-1.3-.9l-.3-.3c-.2-.3-.4-.7-.6-1.1-.2-.5-.3-1.2-.3-1.9s0-1.3.3-1.9c.2-.4.4-.8.7-1.2,0,0,0-.2.2-.2.4-.4.9-.7,1.4-.9,0,0,.3-.1.4-.1.4-.1.8-.2,1.2-.2s1,0,1.4.3c.4.2.5.3.8.5h0l-.8,1.7h0l-.2-.2c-.2-.2-.4-.3-.5-.3-.2-.1-.4-.2-.7-.2h-.5c-.4.1-.8.3-1,.7,0,.1-.2.3-.3.5-.2.4-.3.9-.3,1.5s0,1,.2,1.4c0,.2.2.4.4.6.3.3.5.5.9.6.2,0,.4.1.7.1s.6,0,.9-.2c.2,0,.4-.2.6-.3l.2-.2h0ZM82.5,11.9c-.7,0-1.3.1-1.9.3s-1.1.5-1.6.8l.7,1.5h0c.4-.3.8-.5,1.1-.6.4-.2.8-.2,1.2-.2s.5,0,.7.1c.2,0,.3.2.4.3,0,.1.2.3.2.5v.5c-.8,0-1.6.2-2.2.4-.4.1-.7.2-1,.4-.2,0-.4.2-.5.3-.4.3-.7.6-.9.9-.2.4-.3.8-.3,1.2,0,.8.2,1.4.7,1.8.5.5,1.1.7,1.9.7s1-.1,1.4-.3h0c.4-.2.8-.5,1.2-.8v.9h1.9v-5.1c0-1.2-.3-2.1-.8-2.7-.5-.6-1.3-1-2.4-1h.2ZM83.6,18.3c-.3.3-.6.5-.9.6-.3.2-.6.2-.9.2s-.6,0-.8-.2c-.2-.2-.3-.4-.3-.8s0-.4,0-.5c0-.2.3-.3.5-.5.2-.1.5-.3.9-.4s.8-.2,1.3-.3v1.8h.1ZM94.1,13.1c-.3-.4-.6-.7-1.1-.9-.4-.2-.9-.3-1.4-.3s-.9.1-1.4.3c-.4.2-.8.5-1.1.7l-.4-.9h-1.5v11.9h2.1v-3.9c.3.2.6.4.9.6.9.4,1.7.3,2.5,0,.4-.2.8-.5,1.2-.9.3-.4.6-.9.8-1.5.2-.6.3-1.2.3-1.9s0-1.3-.2-1.8-.4-1-.7-1.4ZM92.3,18.3c-.4.5-.8.7-1.3.7s-.5,0-.8-.2c-.3,0-.5-.3-.8-.5v-3.8c.6-.6,1.2-.9,1.8-.9s1,.2,1.3.7.4,1.1.4,1.9-.2,1.6-.5,2.1h0ZM59.7,20.6h-2.3l-2.2-3.8-1.1,1.2v2.5h-2.1v-11.4h2.1v6.2l3-3.4h2.4v.2c0,0-3,3.2-3,3.2l3.3,5.2h-.1ZM100.4,18.9l.4,1.6h0c-.2.1-.5.2-.8.2h-.9c-.5,0-.9,0-1.3-.2-.2,0-.4-.2-.5-.3,0,0-.2-.2-.3-.3-.2-.3-.4-.6-.5-1s0-.8,0-1.3v-7.9h2.1v2.3h2.6l-.8,1.7h-1.8v3.9c0,.9.4,1.4,1.1,1.4s.3,0,.4,0,.3,0,.4-.1h0ZM65.8,9.3h-2.4l-3.7,11.2h0c0,.1,2.2.1,2.2.1l.9-3h3.6l.9,3h2.3l-3.7-11.3h-.1ZM63.2,15.9l.4-1.3c.2-.6.4-1.2.5-1.8,0-.6.3-1.1.4-1.7,0,.6.3,1.1.4,1.7.2.6.3,1.2.5,1.8l.4,1.3h-2.7,0ZM75.4,11.5v1.2c-.2-.2-.5-.4-.8-.6-.3-.2-.8-.3-1.2-.3s-.9.1-1.4.3c-.4.2-.8.5-1.2.9-.3.4-.6.9-.8,1.4-.2.6-.3,1.2-.3,1.9,0,1.4.3,2.5,1,3.3.6.8,1.5,1.2,2.6,1.2s.9-.1,1.3-.3c.4-.2.7-.5,1-.8v.9h1.9v-11.3h-2.1v2.2ZM75.4,18.2c-.5.6-1.1.9-1.7.9s-1-.2-1.3-.7-.5-1.1-.5-2,.2-1.5.5-2c.4-.5.8-.7,1.3-.7s.5,0,.8.2c.3,0,.5.3.8.5v3.9h0Z"/>
  <path class="st1" d="M12.8,9.2l1.9-4.1h-7c-2.6,0-5,1.5-6.1,3.9-1.1,2.4-.7,5.2,1,7.2l3.7,4.4-1.9,4.1h7c2.6,0,5-1.5,6.1-3.9s.7-5.2-1-7.2c0,0-3.7-4.4-3.7-4.4ZM15.4,19.9c-.2.5-.7.8-1.2.8h-6.7l1.5-3.1-5.1-6.1c-.3-.4-.4-.9-.2-1.4s.7-.8,1.2-.8h6.7l-1.5,3.1,5.1,6.1c.3.4.4.9.2,1.4Z"/>
</svg>