<svg width="192" height="48" viewBox="0 0 192 48" fill="none" xmlns="http://www.w3.org/2000/svg">
<g clip-path="url(#clip0_9194_12525)">
<path fill-rule="evenodd" clip-rule="evenodd" d="M159.041 25.8452C155.396 25.836 150.233 25.823 150.233 29.4977C150.233 32.7435 152.667 34.5692 155.102 34.5692C158.753 34.5692 159.565 32.3377 159.565 32.3377V32.5406C159.565 33.661 160.473 34.5692 161.593 34.5692C162.714 34.5692 163.622 33.661 163.622 32.5406V25.8461C163.622 22.6003 162.405 19.7603 157.13 19.7603C154.404 19.7603 152.575 20.6073 151.622 21.2067C151.113 21.5272 150.944 22.1492 151.11 22.7278C151.392 23.7157 152.496 24.1878 153.449 23.8045C154.592 23.3453 155.818 23.0061 157.13 23.0061C159.159 23.0061 159.565 23.8175 159.565 25.8461C159.394 25.8461 159.22 25.8457 159.041 25.8452ZM159.565 28.0755C157.875 27.9402 154.494 27.8744 154.494 29.9014C154.494 31.323 155.914 31.5241 156.725 31.5241C157.537 31.5241 159.565 30.9157 159.565 28.0755Z" fill="#001464"/>
<path opacity="0.4" fill-rule="evenodd" clip-rule="evenodd" d="M13.5223 8.95116C14.7898 7.6836 16.8449 7.6836 18.1125 8.95116L30.6841 21.5227C31.9517 22.7903 31.9517 24.8454 30.6841 26.113L18.1125 38.6846C16.8449 39.9521 14.7898 39.9521 13.5223 38.6846L0.950673 26.113C-0.316892 24.8454 -0.316891 22.7903 0.950674 21.5227L13.5223 8.95116ZM9.95795 19.3532L12.2531 21.6483L12.2518 21.6496L16.3194 25.7172L14.0243 28.0123L9.95666 23.9447L5.96196 27.9394L3.66683 25.6443L7.66152 21.6496L9.95665 19.3545L9.95795 19.3532ZM22.1634 25.7172L19.8683 28.0123L13.5055 21.6496L15.8006 19.3545L22.1634 25.7172ZM25.5475 28.0123L27.8426 25.7172L21.4799 19.3545L19.1847 21.6496L25.5475 28.0123Z" fill="#001464"/>
<path fill-rule="evenodd" clip-rule="evenodd" d="M46.923 29.9024L45.5488 33.1507C45.1852 34.0101 44.3426 34.5685 43.4095 34.5685C41.9528 34.5685 40.9892 33.0555 41.6052 31.7354L49.4569 14.9103C50.3278 13.0441 52.9782 13.0351 53.8618 14.8953L61.8034 31.6144C62.4549 32.986 61.4547 34.5685 59.9362 34.5685C58.9674 34.5685 58.0926 33.9887 57.7151 33.0965L56.3638 29.9024H46.923ZM48.4679 26.2509H54.8189L51.6434 18.7452L48.4679 26.2509Z" fill="#001464"/>
<path fill-rule="evenodd" clip-rule="evenodd" d="M96.2729 21.586C96.2729 20.5777 97.0904 19.7603 98.0987 19.7603H98.5044C99.5128 19.7603 100.33 20.5777 100.33 21.586V21.7726C100.914 21.0757 102.321 19.7603 104.636 19.7603C107.262 19.7603 108.432 21.2541 108.925 22.2755C109.259 21.7567 110.747 19.7603 113.932 19.7603C117.954 19.7603 118.589 23.6146 118.589 24.629V32.5432C118.589 33.5515 117.772 34.3664 116.763 34.3664H116.181C115.173 34.3664 114.355 33.5489 114.355 32.5406V26.049C114.355 26.049 114.567 23.2089 112.239 23.2089C109.91 23.2089 109.469 25.4404 109.257 27.0633L109.255 27.0379V32.5406C109.255 33.5489 108.438 34.3664 107.429 34.3664H106.882C105.873 34.3664 105.056 33.5489 105.056 32.5406V26.049C105.056 26.049 105.266 23.2089 102.956 23.2089C101.374 23.2089 100.679 24.2561 100.33 25.4374V32.5406C100.33 33.5489 99.5128 34.3664 98.5044 34.3664H98.0987C97.0904 34.3664 96.2729 33.5489 96.2729 32.5406V21.586Z" fill="#001464"/>
<path d="M167.272 21.5855C167.272 20.5772 168.089 19.7598 169.098 19.7598H169.503C170.512 19.7598 171.329 20.5772 171.329 21.5855V32.5401C171.329 33.5485 170.512 34.3659 169.503 34.3659H169.098C168.089 34.3659 167.272 33.5485 167.272 32.5401V21.5855Z" fill="#001464"/>
<path d="M166.868 15.0943C166.868 14.086 167.685 13.2686 168.693 13.2686H169.911C170.919 13.2686 171.736 14.086 171.736 15.0943V15.5C171.736 16.5084 170.919 17.3258 169.911 17.3258H168.693C167.685 17.3258 166.868 16.5084 166.868 15.5V15.0943Z" fill="#001464"/>
<path fill-rule="evenodd" clip-rule="evenodd" d="M141.103 19.7603C140.095 19.7603 139.277 20.5777 139.277 21.586V32.5406C139.277 33.5489 140.095 34.3664 141.103 34.3664H141.509C142.517 34.3664 143.335 33.5489 143.335 32.5406V26.9806C143.372 25.379 144.493 23.6146 146.782 23.6146H147.188C148.196 23.6146 149.014 22.7972 149.014 21.7889V20.9774C149.014 20.3052 148.469 19.7603 147.797 19.7603C145.3 19.7603 143.945 21.081 143.335 21.9212V21.586C143.335 20.5777 142.517 19.7603 141.509 19.7603H141.103Z" fill="#001464"/>
<path fill-rule="evenodd" clip-rule="evenodd" d="M131.161 27.0818L131.16 27.0633C130.948 28.6862 130.507 30.9177 128.179 30.9177C125.85 30.9177 126.062 28.0776 126.062 28.0776L126.062 21.586C126.062 20.5777 125.244 19.7603 124.236 19.7603H123.654C122.646 19.7603 121.828 20.5751 121.828 21.5834V29.4977C121.828 30.512 122.463 34.3664 126.485 34.3664C129.049 34.3664 130.514 33.0722 131.161 32.2971V32.5406C131.161 33.5489 131.979 34.3664 132.987 34.3664H133.393C134.401 34.3664 135.219 33.5489 135.219 32.5406L135.219 21.586C135.219 20.5777 134.401 19.7603 133.393 19.7603H132.987C131.979 19.7603 131.161 20.5777 131.161 21.586L131.161 27.0818Z" fill="#001464"/>
<path fill-rule="evenodd" clip-rule="evenodd" d="M76.1856 13.6743C75.1772 13.6743 74.3598 14.4917 74.3598 15.5001V21.8718C73.1367 20.5666 71.474 19.7606 69.694 19.7606C66.1088 19.7606 63.4053 22.6007 63.4053 27.0637C63.4053 31.7295 66.1088 34.5696 69.694 34.5696C71.474 34.5696 73.1367 33.7136 74.3598 32.358V32.5405C74.3598 33.5489 75.1772 34.3663 76.1856 34.3663H76.5913C77.5996 34.3663 78.4171 33.5489 78.4171 32.5405V15.5001C78.4171 14.4917 77.5996 13.6743 76.5913 13.6743H76.1856ZM74.3598 26.9547V27.1739C74.3134 29.3705 72.8785 31.3243 71.1152 31.3243C69.0865 31.3243 67.8694 29.7014 67.8694 27.0642C67.8694 24.427 69.3226 23.007 71.1152 23.007C72.8785 23.007 74.3134 24.7646 74.3598 26.9547Z" fill="#001464"/>
<path d="M86.7354 31.5258C86.1619 31.5258 84.7781 31.1205 83.4429 30.5963C82.5838 30.259 81.5805 30.6487 81.2492 31.5101C81.0117 32.1276 81.1813 32.8407 81.7398 33.1953C83.0695 34.0398 84.7704 34.5687 86.7354 34.5687C89.779 34.5687 93.4418 33.7573 93.6334 30.3086C93.8362 26.6571 91.199 26.2514 88.5618 25.8456C85.9246 25.4399 85.316 25.0342 85.316 24.2227C85.316 23.4113 86.1275 22.8027 87.7504 22.8027C88.8164 22.8027 89.97 23.1528 91.0386 23.5656C91.904 23.8999 92.8828 23.4844 93.1948 22.6107C93.4505 21.8948 93.1693 21.096 92.4709 20.7958C91.298 20.2915 89.5707 19.7598 87.7504 19.7598C84.5046 19.7598 81.8667 21.3827 81.461 23.817C81.0553 26.2514 82.5449 28.0002 85.924 28.4829C88.7647 28.8886 89.779 29.0914 89.779 30.1058C89.779 31.3229 88.1561 31.5258 86.7354 31.5258Z" fill="#001464"/>
</g>
<defs>
<clipPath id="clip0_9194_12525">
<rect width="192" height="48" fill="white"/>
</clipPath>
</defs>
</svg>
