<svg width="192" height="48" viewBox="0 0 192 48" fill="none" xmlns="http://www.w3.org/2000/svg">
<g clip-path="url(#clip0_9196_58)">
<mask id="mask0_9196_58" style="mask-type:alpha" maskUnits="userSpaceOnUse" x="0" y="0" width="192" height="48">
<rect width="191.94" height="48" fill="#D9D9D9"/>
</mask>
<g mask="url(#mask0_9196_58)">
<path opacity="0.6" d="M96.5202 26.8644C96.5202 24.2915 94.4619 22.27 91.8645 22.27C89.3039 22.27 87.2088 24.2915 87.2088 26.8644C87.2088 29.4373 89.3039 31.4589 91.8645 31.4589C94.4619 31.4589 96.5202 29.4373 96.5202 26.8644ZM100.318 19.3418V34.3993H96.4467V33.0394C95.099 34.1543 93.396 34.7791 91.546 34.7791C86.9638 34.7791 83.3862 31.2628 83.3862 26.8644C83.3862 22.4783 86.976 18.9497 91.546 18.9497C93.396 18.9497 95.099 19.5746 96.4467 20.6895V19.3418H100.318ZM113.183 30.9811H110.267C109.385 30.9811 108.809 30.6012 108.809 29.7926V22.7478H113.17V19.3418H108.809V15.0537H104.9V19.3418H101.96V22.7601H104.9V30.7605C104.9 32.7821 106.358 34.3871 108.98 34.3871H113.17V30.9811H113.183ZM122.004 34.7791C126.476 34.7791 129 32.6841 129 29.7926C129 27.7343 127.505 26.2028 124.381 25.5412L121.073 24.8796C119.162 24.5366 118.549 24.1813 118.549 23.4829C118.549 22.5763 119.468 22.025 121.171 22.025C123.021 22.025 124.369 22.515 124.761 24.1813H128.632C128.424 21.0448 126.108 18.9497 121.428 18.9497C117.385 18.9497 114.543 20.5915 114.543 23.7647C114.543 25.9578 116.111 27.3913 119.48 28.0896L123.168 28.9227C124.626 29.2045 125.018 29.5843 125.018 30.1724C125.018 31.1158 123.915 31.7039 122.139 31.7039C119.909 31.7039 118.623 31.2138 118.132 29.5476H114.224C114.8 32.6841 117.177 34.7791 122.004 34.7791ZM67.7651 14H82.3571V17.4795H71.7102V22.466H82.0753V25.8475H71.7102V30.8953H82.3571V34.3748H67.7651V14Z" fill="#001464"/>
<path d="M60.8304 22.1475V19.4153H59.789C58.135 19.4153 56.9098 20.1749 56.1747 21.3634V19.5256H53.2098V34.3626H56.1992V25.9333C56.1992 23.6299 57.6204 22.1475 59.5807 22.1475H60.8304ZM39.3162 25.578C39.8552 23.3114 41.7175 21.7922 43.9351 21.7922C46.1527 21.7922 48.0272 23.2991 48.5295 25.578H39.3162ZM43.9964 19.2438C39.5857 19.2438 36.2287 22.7601 36.2287 26.9502C36.2287 31.3731 39.7205 34.6934 44.2659 34.6934C47.0226 34.6934 49.2769 33.5049 50.7839 31.5201L48.6153 29.9519C47.4881 31.4344 46.0057 32.1327 44.2537 32.1327C41.7053 32.1327 39.6592 30.3317 39.2426 27.9181H51.5435V26.9625C51.5558 22.5273 48.358 19.2438 43.9964 19.2438ZM26.8928 32.1327C23.9891 32.1327 21.6735 29.8294 21.6735 26.987C21.6735 24.1078 24.0136 21.8412 26.8928 21.8412C29.7352 21.8412 32.0753 24.1078 32.0753 26.987C32.0876 29.8294 29.7475 32.1327 26.8928 32.1327ZM18.7453 34.3748H21.7103V32.5125C23.0702 33.8847 25.006 34.7179 27.1011 34.7179C31.5485 34.7179 35.0403 31.2506 35.0403 26.9747C35.0403 22.6743 31.5485 19.207 27.1011 19.207C24.9938 19.207 23.0947 20.0524 21.7348 21.4124V14H18.7453V34.3748ZM8.22099 31.9857C11.1002 31.9857 13.3178 29.8049 13.3178 26.5704V14H16.4297V34.3626H13.3423V32.4758C11.9455 33.897 10.022 34.7179 7.85343 34.7179C3.40601 34.7179 0 31.5446 0 26.7419V14H3.12422V26.5704C3.12422 29.8661 5.3173 31.9857 8.22099 31.9857Z" fill="#001464"/>
</g>
</g>
<defs>
<clipPath id="clip0_9196_58">
<rect width="191.94" height="48" fill="white"/>
</clipPath>
</defs>
</svg>
