<?xml version="1.0" encoding="UTF-8"?>
<svg id="Layer_1" xmlns="http://www.w3.org/2000/svg" version="1.1" xmlns:xlink="http://www.w3.org/1999/xlink" viewBox="0 0 93.8 35.3">
  <!-- Generator: Adobe Illustrator 29.2.1, SVG Export Plug-In . SVG Version: 2.1.0 Build 116)  -->
  <defs>
    <style>
      .st0 {
        fill: none;
      }

      .st1 {
        fill: #001464;
      }

      .st2 {
        clip-path: url(#clippath);
      }
    </style>
    <clipPath id="clippath">
      <rect class="st0" x=".8" y="5.2" width="81" height="24.9"/>
    </clipPath>
  </defs>
  <g class="st2">
    <g>
      <path class="st1" d="M13.7,5.2C6.6,5.2.8,10.9.8,18.1s3.3,10,8,12l3.3-5.7c-2.8-.7-4.8-3.3-4.8-6.3s2.9-6.5,6.4-6.5,6.4,2.9,6.4,6.5-2.1,5.5-4.8,6.3l3.3,5.7c4.7-1.9,8-6.6,8-12s-5.8-12.9-12.9-12.9Z"/>
      <path class="st1" d="M50.4,20c0,.8-.4,1.3-1.1,1.3s-1.1-.5-1.1-1.3v-4.6h-3v4.8c0,2.6,1.8,3.9,4.1,3.9s4.1-1.2,4.1-3.9v-4.8h-3v4.6h0ZM41.1,23.9h3v-12.3h-3v12.3ZM36.9,23.9h3v-12.3h-3v12.3ZM64.7,15.2c-1.2,0-2,.4-2.5,1.3-.5-.8-1.4-1.3-2.5-1.3s-1.8.4-2.3,1.1l-.5-.9h-2.4v8.5h3v-4.5c0-.9.5-1.3,1-1.3s1.1.5,1.1,1.3v4.6h3v-4.5c0-.9.5-1.3,1-1.3s1.1.5,1.1,1.3v4.6h3v-5.5c0-2-1.2-3.2-3.1-3.2h0v-.2ZM78.4,15.2c-1,0-1.8.4-2.3,1.1l-.5-.9h-2.4v8.5h3v-4.5c0-.9.4-1.3,1-1.3s1.1.5,1.1,1.3v4.6h3v-5.5c0-2-1.3-3.2-3-3.2h.1ZM34.2,11.2c-1,0-1.7.8-1.7,1.7s.8,1.7,1.7,1.7,1.7-.8,1.7-1.7-.8-1.7-1.7-1.7ZM32.7,23.9h3v-8.5h-3v8.5ZM70.5,11.2c-1,0-1.7.8-1.7,1.7s.8,1.7,1.7,1.7,1.7-.8,1.7-1.7-.8-1.7-1.7-1.7ZM69,23.9h3v-8.5h-3v8.5Z"/>
    </g>
  </g>
</svg>