<?xml version="1.0" encoding="UTF-8"?>
<svg id="Layer_1" xmlns="http://www.w3.org/2000/svg" version="1.1" xmlns:xlink="http://www.w3.org/1999/xlink" viewBox="0 0 150.7 43.5">
  <!-- Generator: Adobe Illustrator 29.2.1, SVG Export Plug-In . SVG Version: 2.1.0 Build 116)  -->
  <defs>
    <style>
      .st0 {
        fill: #001464;
      }
    </style>
  </defs>
  <path class="st0" d="M27.2,27.2v-12.6c0-.6-.4-1.2-.9-1.5l-11-6.3c-.5-.3-1.2-.3-1.7,0L2.7,13.2c-.5.3-.8.9-.8,1.5v12.6c0,.3,0,.6.3.9s.4.5.6.6l7.4,4.2v3.9c0,.5.6.9,1.1.6l4.2-2.5,1.2-.7,9.7-5.7c.5-.3.8-.9.8-1.5h0ZM5.3,26.3v-10.6l9.1-5.4,9.2,5.3v10.6l-9.1,5.4-9.2-5.3Z"/>
  <path class="st0" d="M44.6,16.8c-.8-.4-1.7-.6-2.9-.6-3.1,0-5.6,2.1-5.6,6.2s2.5,6.2,5.6,6.2,2-.3,2.9-.9v.6h3.1V11.8h-3.1v5ZM42.5,26.1c-2.7,0-3.3-1.6-3.3-3.7s.9-3.7,3.3-3.7,1.6.4,2.2,1v5.4c-.6.6-1.3,1-2.2,1h0Z"/>
  <path class="st0" d="M54.4,12h-3.1v2.8h3.1v-2.8Z"/>
  <path class="st0" d="M49.7,16.5v2.5h1.6v9.2h3.1v-11.7s-4.7,0-4.7,0Z"/>
  <path class="st0" d="M73.6,16.1c-1.1,0-2,.3-2.9.9v-.6h-3.1v16.8h3.1v-5.3c.8.4,1.7.6,2.9.6,3.1,0,5.6-2.1,5.6-6.2s-2.5-6.2-5.6-6.2h0ZM72.9,26c-.8,0-1.6-.4-2.2-1v-5.4c.6-.6,1.3-1,2.2-1,2.7,0,3.3,1.6,3.3,3.7s-.9,3.7-3.3,3.7h0Z"/>
  <path class="st0" d="M84.2,25.2v-13.4h-3.1v14.4c0,1.1,1,2,1.9,2.2.9.1,2,.2,3.3-.2v-2.6s-2.2.6-2.2-.4h0Z"/>
  <path class="st0" d="M111.5,22.4c0,4.2,2.9,6.4,6.4,6.4s2.9-.4,3.8-1v-2.6c-.7.4-1.6.7-2.8.7-2.7,0-4.2-.6-4.2-3.5s1.2-3.5,4.2-3.5,2.1.2,2.8.7v-2.6c-1-.6-2.2-.9-3.8-.9-3.5,0-6.4,2.1-6.4,6.4h0Z"/>
  <path class="st0" d="M133.8,22.3c0-4.3-1.7-6.3-5.5-6.3s-5.8,1.5-5.8,6.3,3.3,6,6.6,6,2.9-.3,4-.7v-2.7c-1,.3-2.5.7-4,.7s-2.8-.3-3.2-2h8v-1.3h-.1ZM125.8,21.2c0-1.3.8-2.3,2.6-2.3s2.4.7,2.5,2.3h-5.1Z"/>
  <path class="st0" d="M62,20.9c-.2,0-.3-.1-.5-.2-.3-.1-.7-.2-1-.3-.8-.2-1.2-.4-1.2-.7,0-.7.6-.9,2-.9s2.2.3,3.5.8v-2.8c-1.3-.4-2.6-.6-3.8-.6-4.8,0-4.8,2.6-4.8,3.5,0,2.7,2.3,3.4,3.5,3.7.3,0,.5.1.7.2.2,0,.4.1.6.2,1.2.4,1.6.7,1.6,1.1s0,.3,0,.3c-.2.2-.5.5-2,.5h0c-.6,0-2.1-.2-3.7-.9h0v3c1.5.5,2.9.8,3.8.8h0c.9,0,3.1,0,4.4-1.3.7-.7.9-1.3.9-2.3,0-2.7-2.6-3.6-3.8-4h-.2Z"/>
  <path class="st0" d="M92.6,16.1c-1.6,0-3.1.4-4.1.8v2.6c.8-.2,2.4-.6,3.9-.6,2.5,0,2.7.8,2.7,1.9h-3.6c-2.5,0-4.4,1.3-4.4,4.1s2.9,3.5,4.3,3.5,2.8-.4,3.7-1v.9h3.1v-7.6c0-2.3-.8-4.8-5.6-4.8h0v.2ZM95.1,24.8c-.6.5-1.7,1.3-2.9,1.3-1.8,0-2.3-.6-2.3-1.4s.7-1.5,1.6-1.5h3.6v1.5h0Z"/>
  <path class="st0" d="M108.5,16.4c-.8,1.8-2.1,4.9-3.2,7.5l-3.3-7.5h-3.4l5,11.4c-.2.6-.4,1-.5,1.1-.4.8-3.6.5-3.6.5v2.6s5,1.8,6.8-2.8c.3-.7,4.6-10.7,5.5-12.8h-3.4,0Z"/>
</svg>