<svg width="192" height="48" viewBox="0 0 192 48" fill="none" xmlns="http://www.w3.org/2000/svg">
<path d="M154.616 15.1641H137.023V32.7565H154.616V15.1641Z" fill="#001464"/>
<path d="M147.82 23.9434H143.773V27.99H147.82V23.9434Z" fill="white"/>
<path opacity="0.4" d="M147.82 23.9434H143.773V27.99H147.82V23.9434Z" fill="#001464"/>
<path d="M143.773 19.8633H139.727V23.9099H143.773V19.8633Z" fill="white"/>
<path opacity="0.5" d="M143.773 19.8633H139.727V23.9099H143.773V19.8633Z" fill="#001464"/>
<path d="M147.82 19.8633H143.773V23.9099H147.82V19.8633Z" fill="white"/>
<path d="M151.84 27.9648H147.82V31.9844H151.84V27.9648Z" fill="white"/>
<path d="M151.84 23.9434H147.82V27.9629H151.84V23.9434Z" fill="white"/>
<path opacity="0.2" d="M151.84 23.9434H147.82V27.9629H151.84V23.9434Z" fill="#001464"/>
<mask id="mask0_9196_26" style="mask-type:luminance" maskUnits="userSpaceOnUse" x="143" y="15" width="5" height="5">
<path d="M147.832 15.8164H143.785V19.8696H147.832V15.8164Z" fill="white"/>
</mask>
<g mask="url(#mask0_9196_26)">
<path d="M147.832 15.8164H143.785V19.8696H147.832V15.8164Z" fill="url(#paint0_linear_9196_26)"/>
</g>
<path d="M93.8086 32.3715V15.3281H98.5014V28.1744H103.196V32.3715H93.8086Z" fill="#001464"/>
<path d="M16.7021 32.3742L15.7683 26.6955C15.6833 26.1244 15.5989 25.5258 15.515 24.8996C15.4324 24.2674 15.348 23.5832 15.2636 22.8414H15.2133C14.9439 24.289 14.5991 25.7784 14.1789 27.3097L12.8229 32.3742H8.44087L7.10291 27.8575C6.86345 27.0673 6.64913 26.2471 6.45995 25.3971C6.27078 24.547 6.11514 23.6927 5.99302 22.8343H5.92657C5.84276 23.6927 5.75834 24.4584 5.67334 25.1313C5.58833 25.8041 5.50394 26.4626 5.42013 27.1068L4.72151 32.3742H0L2.82679 15.3398H8.12658L9.92251 21.2449C10.1069 21.8339 10.2709 22.4356 10.4146 23.0498C10.5583 23.664 10.6972 24.3494 10.8313 25.1061H10.8815C11.0168 24.3877 11.1599 23.7191 11.3108 23.1001C11.4616 22.4811 11.6466 21.8375 11.8657 21.1694L13.6832 15.3398H18.8303L21.632 32.3742H16.7021Z" fill="#001464"/>
<path d="M24.2578 32.3715V15.3281H34.2252V19.3151H28.9506V21.7127H33.945V25.547H28.947V28.3235H34.2216V32.3715H24.2578Z" fill="#001464"/>
<path d="M51.8099 27.3067C51.4033 28.3787 50.7656 29.3481 49.9422 30.146C49.1124 30.9327 48.1224 31.5306 47.0399 31.8989C45.8289 32.3074 44.5573 32.5078 43.2793 32.4915C41.3959 32.4915 39.5958 32.4412 37.8789 32.3407V15.3817C38.5506 15.3482 39.4294 15.3146 40.5153 15.2811C41.6013 15.2476 42.7668 15.2302 44.012 15.229C45.1627 15.2189 46.3098 15.3589 47.4243 15.6457C48.4077 15.8975 49.3217 16.3677 50.0984 17.0214C50.8802 17.7093 51.4788 18.5807 51.8405 19.5572C52.2512 20.6096 52.4571 21.9015 52.4583 23.4328C52.4851 24.7532 52.2652 26.067 51.8099 27.3067ZM47.2662 21.9889C47.1979 21.4686 47.0218 20.9682 46.749 20.5198C46.4777 20.0977 46.0931 19.7603 45.6391 19.5465C45.0474 19.2865 44.4046 19.1637 43.7588 19.1873H43.0781C42.9087 19.1886 42.7398 19.2055 42.5735 19.2376V28.3734C42.9291 28.436 43.2902 28.4613 43.651 28.4489C44.1525 28.4532 44.6499 28.3586 45.1147 28.1705C45.5704 27.984 45.9762 27.6937 46.3 27.3228C46.6601 26.9029 46.9308 26.4141 47.0956 25.8861C47.3022 25.2182 47.4004 24.5215 47.3866 23.8226C47.3917 23.2092 47.3515 22.5963 47.2662 21.9889Z" fill="#001464"/>
<path d="M54.9297 32.3715V15.3281H59.626V32.3715H54.9297Z" fill="#001464"/>
<path d="M72.8333 32.3742L71.9497 29.5977H66.702L65.8435 32.3742H61.1992L66.7522 15.3398H72.1274L77.957 32.3742H72.8333ZM70.0837 23.7538C69.9316 23.2665 69.7844 22.7876 69.6419 22.317C69.4927 21.821 69.3787 21.3151 69.3007 20.8031H69.2504C69.1666 21.2916 69.0528 21.813 68.9091 22.3673C68.7655 22.9217 68.6014 23.4772 68.4171 24.0339L67.837 25.9017H70.7572L70.0837 23.7538Z" fill="#001464"/>
<path d="M91.2765 23.2796C91.0063 24.027 90.5775 24.7071 90.0194 25.2731C89.416 25.8714 88.6933 26.3358 87.8984 26.6362C86.9425 26.9918 85.9279 27.1631 84.9082 27.1408H84.6316C84.4882 27.14 84.3449 27.1317 84.2024 27.1157V32.3742H79.5078V15.3308C80.298 15.2973 81.1182 15.2679 81.9682 15.2428C82.8183 15.2177 83.7163 15.2051 84.6621 15.2051C86.9502 15.2051 88.6958 15.684 89.8991 16.6418C91.1024 17.5997 91.701 19.0214 91.695 20.9072C91.6966 21.7165 91.5549 22.5197 91.2765 23.2796ZM86.3539 19.6428C86.0259 19.2405 85.4583 19.0394 84.6514 19.0394H84.4718C84.379 19.0402 84.2864 19.0492 84.1952 19.0663V23.197C84.2612 23.2123 84.3286 23.2207 84.3963 23.2221H84.5472C85.1297 23.2307 85.6969 23.0357 86.151 22.6708C86.6131 22.3032 86.8442 21.768 86.8442 21.0652C86.8544 20.548 86.6807 20.0439 86.3539 19.6428Z" fill="#001464"/>
<path d="M118.533 28.8048C118.221 29.6464 117.716 30.4026 117.057 31.012C116.385 31.6117 115.587 32.0519 114.722 32.2997C113.718 32.5898 112.676 32.7302 111.631 32.7163C110.267 32.7163 109.14 32.5481 108.249 32.2117C107.439 31.9295 106.711 31.4528 106.128 30.8234C105.605 30.2297 105.229 29.5209 105.031 28.7545C104.816 27.9217 104.709 27.0645 104.715 26.2043V15.3281H109.41V25.978C109.41 26.8867 109.582 27.5806 109.927 28.0595C110.272 28.5384 110.93 28.7778 111.902 28.7778C112.846 28.7778 113.498 28.5545 113.858 28.108C114.219 27.6614 114.398 26.9089 114.397 25.8505V15.3281H119.041V25.599C119.07 26.6897 118.897 27.7764 118.533 28.8048Z" fill="#001464"/>
<path d="M132.421 29.0837C132.082 29.8098 131.592 30.4552 130.984 30.9766C130.308 31.5423 129.528 31.9694 128.687 32.2337C127.701 32.5488 126.67 32.7022 125.634 32.6881C125.045 32.6881 124.456 32.663 123.867 32.6127C123.28 32.5624 122.698 32.4694 122.125 32.3343L122.378 28.0438C122.928 28.2334 123.494 28.377 124.068 28.4731C124.709 28.5908 125.359 28.6509 126.011 28.6527C126.489 28.6775 126.964 28.5593 127.374 28.3132C127.531 28.2169 127.661 28.0812 127.749 27.9196C127.838 27.758 127.882 27.5761 127.879 27.3919C127.886 27.206 127.847 27.0214 127.765 26.8541C127.684 26.6869 127.562 26.5422 127.412 26.4329C127.053 26.1716 126.658 25.9636 126.239 25.8151C125.767 25.6355 125.255 25.4451 124.7 25.2332C124.145 25.0234 123.626 24.7303 123.159 24.364C122.669 23.9697 122.269 23.4748 121.986 22.9129C121.674 22.3142 121.518 21.5276 121.52 20.553C121.52 18.8529 122.138 17.5023 123.375 16.5014C124.612 15.5005 126.357 15 128.612 15C129.049 15 129.541 15.0251 130.088 15.0754C130.635 15.1257 131.177 15.1934 131.715 15.2784L131.464 19.3408C130.973 19.2056 130.476 19.0959 129.975 19.0121C129.465 18.9285 128.95 18.8864 128.434 18.8864C127.778 18.8864 127.302 19.0001 127.008 19.2276C126.872 19.3226 126.76 19.4491 126.684 19.5964C126.607 19.7437 126.567 19.9074 126.568 20.0735C126.566 20.2443 126.608 20.4127 126.69 20.5626C126.772 20.7126 126.89 20.8391 127.035 20.9302C127.403 21.1802 127.796 21.392 128.208 21.5623C128.678 21.7635 129.191 21.9778 129.747 22.2053C130.299 22.4318 130.817 22.734 131.286 23.1032C131.77 23.4891 132.17 23.9701 132.46 24.5166C132.772 25.0877 132.927 25.8193 132.927 26.7113C132.935 27.5297 132.762 28.3397 132.421 29.0837Z" fill="#001464"/>
<mask id="mask1_9196_26" style="mask-type:luminance" maskUnits="userSpaceOnUse" x="147" y="27" width="5" height="6">
<path d="M151.863 27.9512H147.816V32.0043H151.863V27.9512Z" fill="white"/>
</mask>
<g mask="url(#mask1_9196_26)">
<path d="M151.863 27.9512H147.816V32.0043H151.863V27.9512Z" fill="url(#paint1_linear_9196_26)"/>
</g>
<defs>
<linearGradient id="paint0_linear_9196_26" x1="145.741" y1="19.8396" x2="145.741" y2="15.816" gradientUnits="userSpaceOnUse">
<stop stop-color="white"/>
<stop offset="1" stop-color="#001464"/>
</linearGradient>
<linearGradient id="paint1_linear_9196_26" x1="149.854" y1="27.9405" x2="149.854" y2="32.0088" gradientUnits="userSpaceOnUse">
<stop stop-color="#001464" stop-opacity="0.2"/>
<stop offset="0.18" stop-color="#001464" stop-opacity="0.4"/>
<stop offset="0.57" stop-color="#001464" stop-opacity="0.6"/>
<stop offset="0.85" stop-color="#001464" stop-opacity="0.8"/>
<stop offset="1" stop-color="#001464"/>
</linearGradient>
</defs>
</svg>
