<svg width="195" height="136" viewBox="0 0 195 136" fill="none" xmlns="http://www.w3.org/2000/svg">
<path d="M3.09938 104.903H5.87642L11.0958 118.826L16.3027 104.903H19.0798L12.1868 122.954H9.98L3.09938 104.903ZM1.83483 104.903H4.4755L4.93421 116.954V122.954H1.83483V104.903ZM17.7036 104.903H20.3567V122.954H17.2449V116.954L17.7036 104.903ZM29.9127 104.903V122.954H26.8009V104.903H29.9127ZM47.6263 120.487V122.954H38.5637V120.487H47.6263ZM39.4315 104.903V122.954H36.3197V104.903H39.4315ZM59.8477 107.308L54.4548 122.954H51.1943L57.9881 104.903H60.0709L59.8477 107.308ZM64.3604 122.954L58.9551 107.308L58.7196 104.903H60.8147L67.6334 122.954H64.3604ZM64.1001 116.259V118.727H54.2813V116.259H64.1001ZM86.5123 104.903V122.954H83.4005L75.305 110.023V122.954H72.1932V104.903H75.305L83.4253 117.859V104.903H86.5123Z" fill="url(#paint0_linear_7779_456)"/>
<path d="M20.8169 44.1288C8.65654 44.1288 1.3397 35.5753 1.3397 25.5276C1.3397 15.4798 8.65654 6.9263 20.8169 6.9263C32.9773 6.9263 40.2941 15.4798 40.2941 25.5276C40.2941 35.5753 32.9773 44.1288 20.8169 44.1288ZM20.8169 34.8539C26.3303 34.8539 29.4735 30.5772 29.4735 25.5276C29.4735 20.4779 26.3303 16.2012 20.8169 16.2012C15.3035 16.2012 12.1604 20.4779 12.1604 25.5276C12.1604 30.5772 15.3035 34.8539 20.8169 34.8539ZM62.431 44.1288C50.2706 44.1288 42.9538 35.5753 42.9538 25.5276C42.9538 15.4798 50.2706 6.9263 62.431 6.9263C74.5914 6.9263 81.9082 15.4798 81.9082 25.5276C81.9082 35.5753 74.5914 44.1288 62.431 44.1288ZM62.431 34.8539C67.9444 34.8539 71.0876 30.5772 71.0876 25.5276C71.0876 20.4779 67.9444 16.2012 62.431 16.2012C56.9176 16.2012 53.7745 20.4779 53.7745 25.5276C53.7745 30.5772 56.9176 34.8539 62.431 34.8539ZM89.463 43.562C87.4534 43.562 86.3714 42.4799 86.3714 40.4704V10.5847C86.3714 8.57516 87.4534 7.4931 89.463 7.4931H94.1004C96.11 7.4931 97.192 8.57516 97.192 10.5847V21.8691H107.755V10.5847C107.755 8.57516 108.837 7.4931 110.847 7.4931H115.484C117.494 7.4931 118.576 8.57516 118.576 10.5847V40.4704C118.576 42.4799 117.494 43.562 115.484 43.562H110.847C108.837 43.562 107.755 42.4799 107.755 40.4704V30.6803H97.192V40.4704C97.192 42.4799 96.11 43.562 94.1004 43.562H89.463ZM16.0249 93.1288C8.91417 93.1288 3.76147 90.1918 1.70039 84.8845C0.979013 82.9265 2.00955 81.5868 3.96758 81.123L6.90462 80.4532C8.70807 80.0409 9.63555 80.8139 10.7176 82.4627C11.7997 84.0601 13.5516 84.8845 16.0249 84.8845C18.4982 84.8845 20.2501 84.0601 20.2501 82.3081C20.2501 81.4322 19.7864 80.2986 17.21 79.4741L13.1394 77.9283C11.3875 77.3615 2.62788 75.0428 2.52482 67.3653C2.52482 60.4092 8.3989 55.9263 16.2825 55.9263C21.8475 55.9263 25.7635 58.142 28.0822 62.2641C29.1643 64.1191 28.2883 65.6649 26.2788 66.2317L23.4963 67.0046C21.7444 67.5199 20.7654 66.7985 19.4772 65.3557C18.8074 64.6344 17.8799 64.1706 16.4886 64.1706C14.7367 64.1706 13.0879 64.892 13.0879 66.4378C13.0879 67.4684 13.8092 68.3958 16.0249 69.1687L20.044 70.56C28.0822 73.3424 30.6071 76.8463 30.7616 81.9474C30.7616 89.625 23.857 93.1288 16.0249 93.1288ZM52.9207 93.1288C40.7603 93.1288 33.4435 84.5753 33.4435 74.5276C33.4435 64.4798 40.7603 55.9263 52.9207 55.9263C65.081 55.9263 72.3979 64.4798 72.3979 74.5276C72.3979 84.5753 65.081 93.1288 52.9207 93.1288ZM52.9207 83.8539C58.4341 83.8539 61.5772 79.5772 61.5772 74.5276C61.5772 69.4779 58.4341 65.2012 52.9207 65.2012C47.4073 65.2012 44.2641 69.4779 44.2641 74.5276C44.2641 79.5772 47.4073 83.8539 52.9207 83.8539ZM95.1016 93.1288C82.9412 93.1288 75.006 84.5753 75.006 74.5276C75.006 64.4798 82.9412 55.9263 95.1016 55.9263C99.8421 55.9263 103.397 57.4206 106.541 59.7393C108.189 60.9244 108.292 62.5733 106.953 64.0676L104.892 66.4378C103.604 67.9321 102.264 67.829 100.563 66.6954C98.76 65.5619 96.802 65.2012 95.1016 65.2012C89.4851 65.2012 85.8267 69.3233 85.8267 74.5276C85.8267 79.7318 89.4851 83.8539 95.1016 83.8539C96.802 83.8539 98.7085 83.4933 100.563 82.3597C102.264 81.2261 103.604 81.123 104.892 82.6173L106.953 84.9875C108.292 86.5334 108.292 88.0276 106.798 89.1612C103.552 91.583 99.9451 93.1288 95.1016 93.1288ZM115.78 92.562C113.77 92.562 112.688 91.4799 112.688 89.4704V59.5847C112.688 57.5752 113.77 56.4931 115.78 56.4931H120.417C122.427 56.4931 123.509 57.5752 123.509 59.5847V89.4704C123.509 91.4799 122.427 92.562 120.417 92.562H115.78ZM130.209 92.562C127.942 92.562 126.963 91.1193 127.787 89.0066L139.433 58.9149C140.051 57.266 141.236 56.4931 142.988 56.4931H147.368C149.12 56.4931 150.253 57.266 150.923 58.9149L162.826 89.0066C163.65 91.1193 162.723 92.562 160.404 92.562H155.406C153.654 92.562 152.469 91.7891 151.851 90.1402L150.459 86.5334H139.742L138.454 90.0887C137.835 91.7376 136.702 92.562 134.95 92.562H130.209ZM141.442 78.0829H148.656L145.204 67.9321L141.442 78.0829ZM170.075 92.562C168.065 92.562 166.983 91.4799 166.983 89.4704V59.5847C166.983 57.5752 168.065 56.4931 170.075 56.4931H174.712C176.722 56.4931 177.804 57.5752 177.804 59.5847V83.2871H190.892C192.901 83.2871 193.983 84.3692 193.983 86.3788V89.4704C193.983 91.4799 192.901 92.562 190.892 92.562H170.075Z" fill="#001464"/>
<mask id="mask0_7779_456" style="mask-type:alpha" maskUnits="userSpaceOnUse" x="120" y="0" width="50" height="51">
<rect x="120" y="0.5" width="49.8" height="49.8" fill="#D9D9D9"/>
</mask>
<g mask="url(#mask0_7779_456)">
<path d="M143.344 40.4444V28.5531L128.596 11.9531C128.378 11.7297 128.201 11.4714 128.065 11.1781C127.93 10.8848 127.862 10.5845 127.862 10.277C127.862 9.5508 128.111 8.95026 128.61 8.47543C129.109 8.0006 129.719 7.76318 130.439 7.76318H159.362C160.082 7.76318 160.692 7.99991 161.191 8.47335C161.69 8.94645 161.939 9.54492 161.939 10.2687C161.939 10.5748 161.871 10.8757 161.735 11.1714C161.6 11.4671 161.423 11.7276 161.205 11.9531L146.457 28.5531V40.4444H154.757C155.198 40.4444 155.567 40.5937 155.865 40.8921C156.164 41.1906 156.313 41.5603 156.313 42.0012C156.313 42.4425 156.164 42.812 155.865 43.1098C155.567 43.4079 155.198 43.5569 154.757 43.5569H135.044C134.603 43.5569 134.234 43.4077 133.936 43.1093C133.637 42.8108 133.488 42.4411 133.488 42.0002C133.488 41.5589 133.637 41.1894 133.936 40.8916C134.234 40.5935 134.603 40.4444 135.044 40.4444H143.344ZM135.459 15.0257H154.342L158.077 10.8757H131.724L135.459 15.0257ZM144.9 25.6082L151.576 18.1382H138.225L144.9 25.6082Z" fill="#001464"/>
</g>
<defs>
<linearGradient id="paint0_linear_7779_456" x1="-38.6028" y1="114.92" x2="109.339" y2="114.196" gradientUnits="userSpaceOnUse">
<stop offset="0.317708" stop-color="#E43425"/>
<stop offset="0.71875" stop-color="#441FD8"/>
<stop offset="1" stop-color="#0A26B8"/>
</linearGradient>
</defs>
</svg>
