<svg width="36" height="36" viewBox="0 0 36 36" fill="none" xmlns="http://www.w3.org/2000/svg">
<g filter="url(#filter0_d_50_32112)">
<mask id="mask0_50_32112" style="mask-type:alpha" maskUnits="userSpaceOnUse" x="1" y="1" width="34" height="34">
<rect x="1" y="1" width="34" height="34" fill="#D9D9D9"/>
</mask>
<g mask="url(#mask0_50_32112)">
<path d="M8.08333 30.75C7.30417 30.75 6.63692 30.4728 6.08158 29.9184C5.52719 29.3631 5.25 28.6958 5.25 27.9167V8.08333C5.25 7.30417 5.52719 6.63692 6.08158 6.08158C6.63692 5.52719 7.30417 5.25 8.08333 5.25H23.6667L30.75 12.3333V27.9167C30.75 28.6958 30.4728 29.3631 29.9184 29.9184C29.3631 30.4728 28.6958 30.75 27.9167 30.75H8.08333ZM8.08333 27.9167H27.9167V13.75H22.25V8.08333H8.08333V27.9167ZM10.9167 25.0833H25.0833V22.25H10.9167V25.0833ZM10.9167 13.75H18V10.9167H10.9167V13.75ZM10.9167 19.4167H25.0833V16.5833H10.9167V19.4167Z" fill="black"/>
</g>
</g>
<defs>
<filter id="filter0_d_50_32112" x="0.25" y="0.25" width="35.5" height="35.5" filterUnits="userSpaceOnUse" color-interpolation-filters="sRGB">
<feFlood flood-opacity="0" result="BackgroundImageFix"/>
<feColorMatrix in="SourceAlpha" type="matrix" values="0 0 0 0 0 0 0 0 0 0 0 0 0 0 0 0 0 0 127 0" result="hardAlpha"/>
<feOffset/>
<feGaussianBlur stdDeviation="2.5"/>
<feComposite in2="hardAlpha" operator="out"/>
<feColorMatrix type="matrix" values="0 0 0 0 0.447059 0 0 0 0 0.92549 0 0 0 0 0.972549 0 0 0 1 0"/>
<feBlend mode="normal" in2="BackgroundImageFix" result="effect1_dropShadow_50_32112"/>
<feBlend mode="normal" in="SourceGraphic" in2="effect1_dropShadow_50_32112" result="shape"/>
</filter>
</defs>
</svg>
