<svg width="40" height="40" viewBox="0 0 40 40" fill="none" xmlns="http://www.w3.org/2000/svg">
<g filter="url(#filter0_d_50_32106)">
<mask id="mask0_50_32106" style="mask-type:alpha" maskUnits="userSpaceOnUse" x="3" y="3" width="34" height="34">
<rect x="3" y="3" width="34" height="34" fill="#D9D9D9"/>
</mask>
<g mask="url(#mask0_50_32106)">
<path d="M20.0002 34.1668C18.0404 34.1668 16.1988 33.7947 14.4752 33.0505C12.7516 32.3072 11.2522 31.2981 9.97725 30.0231C8.70225 28.7481 7.69311 27.2488 6.94983 25.5252C6.20561 23.8016 5.8335 21.9599 5.8335 20.0002C5.8335 18.0404 6.20561 16.1988 6.94983 14.4752C7.69311 12.7516 8.70225 11.2522 9.97725 9.97725C11.2522 8.70225 12.7516 7.69264 14.4752 6.94841C16.1988 6.20513 18.0404 5.8335 20.0002 5.8335C21.9599 5.8335 23.8016 6.20513 25.5252 6.94841C27.2488 7.69264 28.7481 8.70225 30.0231 9.97725C31.2981 11.2522 32.3072 12.7516 33.0505 14.4752C33.7947 16.1988 34.1668 18.0404 34.1668 20.0002C34.1668 21.9599 33.7947 23.8016 33.0505 25.5252C32.3072 27.2488 31.2981 28.7481 30.0231 30.0231C28.7481 31.2981 27.2488 32.3072 25.5252 33.0505C23.8016 33.7947 21.9599 34.1668 20.0002 34.1668ZM18.5835 31.2627V28.5002C17.8043 28.5002 17.1376 28.223 16.5832 27.6686C16.0278 27.1132 15.7502 26.446 15.7502 25.6668V24.2502L8.95016 17.4502C8.87933 17.8752 8.81416 18.3002 8.75466 18.7252C8.69611 19.1502 8.66683 19.5752 8.66683 20.0002C8.66683 22.8571 9.60561 25.3599 11.4832 27.5085C13.3598 29.6571 15.7266 30.9085 18.5835 31.2627ZM28.3585 27.6502C29.3266 26.5877 30.0642 25.401 30.5713 24.0901C31.0794 22.7801 31.3335 21.4168 31.3335 20.0002C31.3335 17.6863 30.6903 15.5731 29.404 13.6606C28.1167 11.7481 26.3988 10.3668 24.2502 9.51683V10.0835C24.2502 10.8627 23.973 11.5294 23.4186 12.0838C22.8632 12.6392 22.196 12.9168 21.4168 12.9168H18.5835V15.7502C18.5835 16.1516 18.448 16.4878 18.1769 16.7588C17.9049 17.0308 17.5682 17.1668 17.1668 17.1668H14.3335V20.0002H22.8335C23.2349 20.0002 23.5716 20.1357 23.8436 20.4067C24.1146 20.6787 24.2502 21.0154 24.2502 21.4168V25.6668H25.6668C26.2807 25.6668 26.8356 25.8496 27.3314 26.2151C27.8272 26.5815 28.1696 27.0599 28.3585 27.6502Z" fill="black"/>
</g>
</g>
<defs>
<filter id="filter0_d_50_32106" x="0.833496" y="0.833496" width="38.3335" height="38.3335" filterUnits="userSpaceOnUse" color-interpolation-filters="sRGB">
<feFlood flood-opacity="0" result="BackgroundImageFix"/>
<feColorMatrix in="SourceAlpha" type="matrix" values="0 0 0 0 0 0 0 0 0 0 0 0 0 0 0 0 0 0 127 0" result="hardAlpha"/>
<feOffset/>
<feGaussianBlur stdDeviation="2.5"/>
<feComposite in2="hardAlpha" operator="out"/>
<feColorMatrix type="matrix" values="0 0 0 0 0.447059 0 0 0 0 0.92549 0 0 0 0 0.972549 0 0 0 1 0"/>
<feBlend mode="normal" in2="BackgroundImageFix" result="effect1_dropShadow_50_32106"/>
<feBlend mode="normal" in="SourceGraphic" in2="effect1_dropShadow_50_32106" result="shape"/>
</filter>
</defs>
</svg>
