<svg width="40" height="40" viewBox="0 0 40 40" fill="none" xmlns="http://www.w3.org/2000/svg">
<g filter="url(#filter0_d_50_32103)">
<mask id="mask0_50_32103" style="mask-type:alpha" maskUnits="userSpaceOnUse" x="3" y="3" width="34" height="34">
<rect x="3" y="3" width="34" height="34" fill="#D9D9D9"/>
</mask>
<g mask="url(#mask0_50_32103)">
<path d="M18.7252 29.9168H21.2043V28.146C22.3849 27.9335 23.4002 27.4731 24.2502 26.7647C25.1002 26.0564 25.5252 25.0057 25.5252 23.6127C25.5252 22.621 25.2418 21.712 24.6752 20.8856C24.1085 20.0592 22.9752 19.3391 21.2752 18.7252C19.8585 18.2529 18.8786 17.8397 18.3356 17.4856C17.7925 17.1314 17.521 16.6474 17.521 16.0335C17.521 15.4196 17.7396 14.9356 18.1769 14.5814C18.6132 14.2272 19.2446 14.0502 20.071 14.0502C20.8266 14.0502 21.4168 14.2334 21.8418 14.5998C22.2668 14.9653 22.5738 15.4196 22.7627 15.9627L25.0293 15.0418C24.7696 14.2154 24.2917 13.4953 23.5957 12.8814C22.8987 12.2675 22.1252 11.9252 21.2752 11.8543V10.0835H18.796V11.8543C17.6154 12.1141 16.6946 12.6335 16.0335 13.4127C15.3724 14.1918 15.0418 15.0654 15.0418 16.0335C15.0418 17.1432 15.3667 18.0404 16.0165 18.7252C16.6653 19.4099 17.6863 20.0002 19.0793 20.496C20.5668 21.0391 21.6001 21.5231 22.179 21.9481C22.757 22.3731 23.046 22.9279 23.046 23.6127C23.046 24.3918 22.7683 24.9642 22.213 25.3297C21.6586 25.6961 20.9918 25.8793 20.2127 25.8793C19.4335 25.8793 18.7431 25.6371 18.1415 25.1526C17.5389 24.669 17.096 23.9432 16.8127 22.9752L14.4752 23.896C14.8057 25.0293 15.3195 25.9445 16.0165 26.6415C16.7126 27.3376 17.6154 27.8154 18.7252 28.0752V29.9168ZM20.0002 34.1668C18.0404 34.1668 16.1988 33.7947 14.4752 33.0505C12.7516 32.3072 11.2522 31.2981 9.97725 30.0231C8.70225 28.7481 7.69311 27.2488 6.94983 25.5252C6.20561 23.8016 5.8335 21.9599 5.8335 20.0002C5.8335 18.0404 6.20561 16.1988 6.94983 14.4752C7.69311 12.7516 8.70225 11.2522 9.97725 9.97725C11.2522 8.70225 12.7516 7.69264 14.4752 6.94841C16.1988 6.20513 18.0404 5.8335 20.0002 5.8335C21.9599 5.8335 23.8016 6.20513 25.5252 6.94841C27.2488 7.69264 28.7481 8.70225 30.0231 9.97725C31.2981 11.2522 32.3072 12.7516 33.0505 14.4752C33.7947 16.1988 34.1668 18.0404 34.1668 20.0002C34.1668 21.9599 33.7947 23.8016 33.0505 25.5252C32.3072 27.2488 31.2981 28.7481 30.0231 30.0231C28.7481 31.2981 27.2488 32.3072 25.5252 33.0505C23.8016 33.7947 21.9599 34.1668 20.0002 34.1668ZM20.0002 31.3335C23.1641 31.3335 25.8439 30.2356 28.0397 28.0397C30.2356 25.8439 31.3335 23.1641 31.3335 20.0002C31.3335 16.8363 30.2356 14.1564 28.0397 11.9606C25.8439 9.76475 23.1641 8.66683 20.0002 8.66683C16.8363 8.66683 14.1564 9.76475 11.9606 11.9606C9.76475 14.1564 8.66683 16.8363 8.66683 20.0002C8.66683 23.1641 9.76475 25.8439 11.9606 28.0397C14.1564 30.2356 16.8363 31.3335 20.0002 31.3335Z" fill="black"/>
</g>
</g>
<defs>
<filter id="filter0_d_50_32103" x="0.833496" y="0.833496" width="38.3335" height="38.3335" filterUnits="userSpaceOnUse" color-interpolation-filters="sRGB">
<feFlood flood-opacity="0" result="BackgroundImageFix"/>
<feColorMatrix in="SourceAlpha" type="matrix" values="0 0 0 0 0 0 0 0 0 0 0 0 0 0 0 0 0 0 127 0" result="hardAlpha"/>
<feOffset/>
<feGaussianBlur stdDeviation="2.5"/>
<feComposite in2="hardAlpha" operator="out"/>
<feColorMatrix type="matrix" values="0 0 0 0 0.447059 0 0 0 0 0.92549 0 0 0 0 0.972549 0 0 0 1 0"/>
<feBlend mode="normal" in2="BackgroundImageFix" result="effect1_dropShadow_50_32103"/>
<feBlend mode="normal" in="SourceGraphic" in2="effect1_dropShadow_50_32103" result="shape"/>
</filter>
</defs>
</svg>
