<svg width="42" height="34" viewBox="0 0 42 34" fill="none" xmlns="http://www.w3.org/2000/svg">
<g filter="url(#filter0_d_50_32109)">
<mask id="mask0_50_32109" style="mask-type:alpha" maskUnits="userSpaceOnUse" x="4" y="0" width="34" height="34">
<rect x="4" width="34" height="34" fill="#D9D9D9"/>
</mask>
<g mask="url(#mask0_50_32109)">
<path d="M5.4165 28.3332V22.6665C5.4165 21.8637 5.69417 21.1908 6.2495 20.6478C6.80389 20.1047 7.47067 19.8332 8.24984 19.8332H12.8894C13.3616 19.8332 13.8103 19.9512 14.2353 20.1873C14.6603 20.4234 15.0026 20.7422 15.2623 21.1436C15.9471 22.0644 16.7914 22.7846 17.7953 23.304C18.7983 23.8234 19.8665 24.0832 20.9998 24.0832C22.1568 24.0832 23.2372 23.8234 24.2412 23.304C25.2442 22.7846 26.0762 22.0644 26.7373 21.1436C27.0443 20.7422 27.4041 20.4234 27.8168 20.1873C28.2305 19.9512 28.6616 19.8332 29.1103 19.8332H33.7498C34.5526 19.8332 35.2255 20.1047 35.7686 20.6478C36.3116 21.1908 36.5832 21.8637 36.5832 22.6665V28.3332H26.6665V25.1103C25.8401 25.7005 24.949 26.1491 23.9933 26.4561C23.0365 26.763 22.0387 26.9165 20.9998 26.9165C19.9846 26.9165 18.9929 26.7574 18.0248 26.4391C17.0568 26.1199 16.1596 25.6651 15.3332 25.0748V28.3332H5.4165ZM20.9998 22.6665C20.1026 22.6665 19.2526 22.4597 18.4498 22.046C17.6471 21.6333 16.9741 21.0609 16.4311 20.329C16.0297 19.7387 15.5282 19.2726 14.9266 18.9308C14.324 18.5879 13.6686 18.4165 12.9603 18.4165C13.4797 17.5429 14.5776 16.852 16.254 16.3439C17.9304 15.8368 19.5123 15.5832 20.9998 15.5832C22.4873 15.5832 24.0693 15.8368 25.7457 16.3439C27.4221 16.852 28.52 17.5429 29.0394 18.4165C28.3547 18.4165 27.7054 18.5879 27.0915 18.9308C26.4776 19.2726 25.97 19.7387 25.5686 20.329C25.0491 21.0846 24.388 21.663 23.5853 22.0644C22.7825 22.4658 21.9207 22.6665 20.9998 22.6665ZM9.6665 18.4165C8.48595 18.4165 7.48248 18.0033 6.65609 17.1769C5.8297 16.3505 5.4165 15.3471 5.4165 14.1665C5.4165 12.9623 5.8297 11.9527 6.65609 11.1377C7.48248 10.3236 8.48595 9.9165 9.6665 9.9165C10.8707 9.9165 11.8803 10.3236 12.6953 11.1377C13.5094 11.9527 13.9165 12.9623 13.9165 14.1665C13.9165 15.3471 13.5094 16.3505 12.6953 17.1769C11.8803 18.0033 10.8707 18.4165 9.6665 18.4165ZM32.3332 18.4165C31.1526 18.4165 30.1491 18.0033 29.3228 17.1769C28.4964 16.3505 28.0832 15.3471 28.0832 14.1665C28.0832 12.9623 28.4964 11.9527 29.3228 11.1377C30.1491 10.3236 31.1526 9.9165 32.3332 9.9165C33.5373 9.9165 34.5469 10.3236 35.362 11.1377C36.1761 11.9527 36.5832 12.9623 36.5832 14.1665C36.5832 15.3471 36.1761 16.3505 35.362 17.1769C34.5469 18.0033 33.5373 18.4165 32.3332 18.4165ZM20.9998 14.1665C19.8193 14.1665 18.8158 13.7533 17.9894 12.9269C17.163 12.1005 16.7498 11.0971 16.7498 9.9165C16.7498 8.71234 17.163 7.70273 17.9894 6.88767C18.8158 6.07356 19.8193 5.6665 20.9998 5.6665C22.204 5.6665 23.2131 6.07356 24.0273 6.88767C24.8423 7.70273 25.2498 8.71234 25.2498 9.9165C25.2498 11.0971 24.8423 12.1005 24.0273 12.9269C23.2131 13.7533 22.204 14.1665 20.9998 14.1665Z" fill="black"/>
</g>
</g>
<defs>
<filter id="filter0_d_50_32109" x="0.416504" y="0.666504" width="41.1665" height="32.6665" filterUnits="userSpaceOnUse" color-interpolation-filters="sRGB">
<feFlood flood-opacity="0" result="BackgroundImageFix"/>
<feColorMatrix in="SourceAlpha" type="matrix" values="0 0 0 0 0 0 0 0 0 0 0 0 0 0 0 0 0 0 127 0" result="hardAlpha"/>
<feOffset/>
<feGaussianBlur stdDeviation="2.5"/>
<feComposite in2="hardAlpha" operator="out"/>
<feColorMatrix type="matrix" values="0 0 0 0 0.447059 0 0 0 0 0.92549 0 0 0 0 0.972549 0 0 0 1 0"/>
<feBlend mode="normal" in2="BackgroundImageFix" result="effect1_dropShadow_50_32109"/>
<feBlend mode="normal" in="SourceGraphic" in2="effect1_dropShadow_50_32109" result="shape"/>
</filter>
</defs>
</svg>
