<svg width="276" height="62" viewBox="0 0 276 62" fill="none" xmlns="http://www.w3.org/2000/svg">
	<path d="M125.427 13.8277C125.427 13.2894 125.311 12.7807 125.105 12.3233C125.315 11.8559 125.427 11.3446 125.427 10.8211V6.40237L125.174 6.52733C124.647 5.13273 123.293 4.15696 121.736 4.15696H112.534C111.07 4.15696 109.738 5.02446 109.155 6.3788L109.153 6.38419L106.017 13.708L102.873 6.37825L102.872 6.37462C102.289 5.02028 100.957 4.15278 99.4929 4.15278H90.3419C89.0729 4.15278 87.8905 4.80647 87.2194 5.88738C86.5857 6.90798 86.4821 8.19946 86.9943 9.32526C86.5731 10.2635 86.5561 11.3595 86.9985 12.3319C86.5774 13.2701 86.5603 14.3661 87.0027 15.3384C86.5816 16.2767 86.5646 17.3727 87.0069 18.345C86.5634 19.3332 86.5681 20.4964 87.0857 21.5058L98.0506 43.1681V54.8788C98.0506 56.9261 99.7189 58.5447 101.725 58.5447H110.365C112.371 58.5447 114.039 56.9261 114.039 54.8788V43.1692L124.993 21.5705C125.275 21.0439 125.427 20.4507 125.427 19.8409C125.427 19.3026 125.311 18.7939 125.105 18.3365C125.315 17.869 125.427 17.3578 125.427 16.8343C125.427 16.296 125.311 15.7873 125.105 15.3299C125.315 14.8624 125.427 14.3512 125.427 13.8277Z" fill="white" stroke="white" stroke-width="5.4835" />
	<path d="M233.621 36.8861C234.475 34.9507 234.864 32.7628 234.864 30.4244C234.864 29.9281 234.839 29.4504 234.797 28.99C234.839 28.4856 234.864 27.9621 234.864 27.4178C234.864 26.9124 234.839 26.4303 234.799 25.9729C234.839 25.4774 234.864 24.959 234.864 24.4112C234.864 23.906 234.839 23.4242 234.799 22.9669C234.839 22.472 234.864 21.951 234.864 21.4046C234.864 20.9067 234.843 20.416 234.8 19.9332C234.839 19.4461 234.864 18.9349 234.864 18.398C234.864 14.0141 233.243 10.2992 229.906 7.69753L233.621 36.8861ZM233.621 36.8861L235.658 40.7885C235.95 41.3405 236.079 41.9294 236.079 42.4926V42.8564V49.4312L236.039 49.3915C236 49.6741 235.928 49.9446 235.829 50.2001M233.621 36.8861L235.829 50.2001M216.098 48.8106V54.8911C216.098 56.9384 214.43 58.557 212.424 58.557H203.897C201.891 58.557 200.223 56.9384 200.223 54.8911V7.82264C200.223 5.77532 201.891 4.15675 203.897 4.15675H217.812C222.584 4.15675 226.753 5.23724 229.906 7.69688L216.098 48.8106ZM216.098 48.8106L219.981 56.5268M216.098 48.8106L219.981 56.5268M219.981 56.5268C219.982 56.5294 219.984 56.5319 219.985 56.5345C220.61 57.7832 221.888 58.5612 223.271 58.5612H232.401C234.407 58.5612 236.075 56.9426 236.075 54.8953V54.5315C236.075 54.097 235.998 53.6472 235.829 53.2109M219.981 56.5268L235.829 53.2109M235.829 53.2109C235.987 52.803 236.075 52.3567 236.075 51.8845V51.5207C236.075 51.0862 235.998 50.6364 235.829 50.2001M235.829 53.2109V50.2001" fill="white" stroke="white" stroke-width="5.4835" />
	<path d="M272.599 19.2005C272.686 18.8899 272.734 18.5606 272.734 18.2183C272.734 15.4007 271.975 12.7702 270.436 10.4825L270.432 10.4764C268.903 8.21538 266.773 6.49169 264.18 5.33902C261.655 4.21239 258.837 3.67176 255.85 3.67176C252.901 3.67176 250.021 4.15758 247.461 5.16777L247.461 5.16776L247.456 5.16976C244.84 6.20771 242.639 7.74424 241.052 9.81219L272.599 19.2005ZM272.599 19.2005C272.69 19.8582 272.738 20.5323 272.738 21.2249C272.738 21.5732 272.689 21.9105 272.598 22.2299C272.689 22.8772 272.738 23.5458 272.738 24.2356C272.738 24.5835 272.689 24.9162 272.601 25.2286C272.691 25.8833 272.738 26.5552 272.738 27.2422C272.738 27.5888 272.69 27.9203 272.602 28.2316C272.693 28.8956 272.738 29.5699 272.738 30.253C272.738 30.632 272.68 30.997 272.574 31.3399C272.683 32.0437 272.738 32.7646 272.738 33.5021C272.738 34.0187 272.711 34.5238 272.66 35.017C272.711 35.4994 272.738 35.9911 272.738 36.5087C272.738 37.0253 272.711 37.5304 272.66 38.0236C272.711 38.506 272.738 38.9977 272.738 39.5153C272.738 40.0322 272.711 40.5375 272.66 41.031C272.711 41.5131 272.738 42.0023 272.738 42.5219C272.738 43.049 272.708 43.5551 272.656 44.0403C272.708 44.5154 272.738 45.0115 272.738 45.5285C272.738 49.6973 271.07 53.2054 267.778 55.6744C264.667 58.0106 260.609 59.038 255.977 59.038C252.66 59.038 249.532 58.4329 246.716 57.197L246.715 57.1968C243.846 55.9374 241.492 54.1048 239.886 51.6747C238.296 49.2725 237.515 46.5092 237.515 43.5297C237.515 43.1903 237.562 42.8654 237.647 42.5598C237.561 41.9009 237.515 41.2222 237.515 40.5231C237.515 40.1837 237.562 39.8588 237.647 39.5532C237.561 38.8943 237.515 38.2156 237.515 37.5165C237.515 37.1771 237.562 36.8522 237.647 36.5466C237.561 35.8877 237.515 35.209 237.515 34.5099C237.515 34.1705 237.562 33.8456 237.647 33.5401C237.561 32.8811 237.515 32.2024 237.515 31.5033C237.515 30.4867 237.926 29.5758 238.586 28.9162C238.596 28.5085 238.627 28.111 238.673 27.7265C238.616 27.2333 238.582 26.7177 238.582 26.2094C238.582 25.6927 238.619 25.203 238.676 24.7428C238.615 24.2344 238.582 23.708 238.582 23.1986C238.582 22.6883 238.615 22.1925 238.672 21.7167C238.612 21.21 238.582 20.696 238.582 20.192C238.582 19.6781 238.616 19.184 238.672 18.7094C238.612 18.2056 238.582 17.6973 238.582 17.1812C238.582 14.4558 239.411 11.9498 241.052 9.81274L272.599 19.2005Z" fill="white" stroke="white" stroke-width="5.4835" />
	<path d="M198.805 41.5811L185.744 6.54697C185.744 6.54593 185.743 6.54489 185.743 6.54385C185.743 6.54361 185.743 6.54338 185.743 6.54314C185.204 5.09521 183.821 4.15278 182.296 4.15278H174.289C172.762 4.15278 171.379 5.09689 170.841 6.54696L170.84 6.54939L157.875 41.5853C157.875 41.5859 157.875 41.5865 157.875 41.5871C157.538 42.4967 157.58 43.4883 157.965 44.3507L157.875 44.5919C157.875 44.5925 157.875 44.5931 157.875 44.5937C157.538 45.5033 157.58 46.495 157.965 47.3573L157.875 47.5985C157.875 47.5991 157.875 47.5997 157.875 47.6003C157.538 48.5099 157.58 49.5016 157.965 50.3639L157.875 50.605C157.875 50.6057 157.875 50.6063 157.875 50.6069C157.538 51.5165 157.58 52.5082 157.965 53.3705L157.875 53.6116C157.875 53.6123 157.875 53.6129 157.875 53.6135C157.455 54.7473 157.624 56.0085 158.311 56.988C158.995 57.9633 160.118 58.553 161.319 58.553H170.424C172.005 58.553 173.452 57.5349 173.934 55.9684L175.167 52.0088H181.442L182.698 55.9882L182.7 55.9941C183.185 57.5206 184.604 58.553 186.203 58.553H195.354C196.54 58.553 197.666 57.981 198.361 56.9957L198.367 56.988C199.054 56.008 199.223 54.7459 198.802 53.6116L198.8 53.6062L198.713 53.3715C199.098 52.5083 199.14 51.5155 198.802 50.605L198.8 50.5996L198.713 50.3649C199.098 49.5017 199.14 48.5089 198.802 47.5984L198.8 47.593L198.714 47.3634C199.102 46.499 199.145 45.5041 198.806 44.5918L198.804 44.5864L198.717 44.3517C199.102 43.4885 199.144 42.4957 198.806 41.5853L198.805 41.5811Z" fill="white" stroke="white" stroke-width="5.4835" />
	<path d="M158.298 36.3583C158.298 34.7567 157.277 33.4174 155.872 32.9102V29.8385C157.303 29.3455 158.348 27.9934 158.348 26.3726V7.82285C158.348 6.8795 157.994 6.02718 157.416 5.38228V4.15278H154.674H130.271C128.265 4.15278 126.597 5.77134 126.597 7.81867V54.8871C126.597 56.9345 128.265 58.553 130.271 58.553H154.623C156.629 58.553 158.298 56.9345 158.298 54.8871V36.3583Z" fill="white" stroke="white" stroke-width="5.4835" />
	<path d="M122.669 10.8295C122.669 10.3194 122.252 9.90537 121.737 9.90537H121.724L122.551 8.27453C122.627 8.14072 122.669 7.986 122.669 7.82292C122.669 7.31276 122.252 6.89877 121.737 6.89877H112.535C112.16 6.89877 111.822 7.1204 111.675 7.46329L106.021 20.6689L100.355 7.45911C100.207 7.11622 99.8695 6.89459 99.494 6.89459H90.3429C90.018 6.89459 89.7184 7.06186 89.5497 7.33366C89.3809 7.60547 89.364 7.94836 89.5117 8.23272L90.3555 9.90119H90.3471C90.0222 9.90119 89.7227 10.0685 89.5539 10.3403C89.3851 10.6121 89.3683 10.955 89.5159 11.2393L90.3597 12.9078H90.3513C90.0264 12.9078 89.7269 13.075 89.5581 13.3469C89.3893 13.6187 89.3725 13.9616 89.5201 14.2459L90.364 15.9144H90.3555C90.0306 15.9144 89.7311 16.0816 89.5623 16.3535C89.3936 16.6253 89.3767 16.9682 89.5244 17.2525L90.3682 18.921H90.3597C90.0349 18.921 89.7353 19.0882 89.5665 19.36C89.3978 19.6319 89.3809 19.9747 89.5286 20.2591L100.794 42.5138V54.8789C100.794 55.389 101.211 55.803 101.726 55.803H110.367C110.881 55.803 111.299 55.389 111.299 54.8789V42.5138L122.568 20.2925C122.644 20.1587 122.686 20.004 122.686 19.8409C122.686 19.3308 122.269 18.9168 121.754 18.9168H121.741L122.568 17.286C122.644 17.1521 122.686 16.9974 122.686 16.8343C122.686 16.3242 122.269 15.9102 121.754 15.9102H121.741L122.568 14.2794C122.644 14.1455 122.686 13.9908 122.686 13.8277C122.686 13.3176 122.269 12.9036 121.754 12.9036H121.741L122.568 11.2728C122.644 11.139 122.686 10.9842 122.686 10.8211L122.669 10.8295ZM99.494 7.82292L106.025 23.0315L112.535 7.82292H121.737L110.35 30.2741V42.8567H101.709V30.2741L90.3429 7.82292H99.494ZM110.35 51.8848H101.709V49.8023H110.35V51.8848ZM110.35 48.8782H101.709V46.7957H110.35V48.8782ZM110.35 45.8716H101.709V43.7892H110.35V45.8716ZM90.3429 10.8295H90.8196L100.772 30.4916V31.4366L91.8659 13.8361L91.3976 12.912L90.3429 10.8295ZM90.8196 13.8361L100.772 33.4981V34.4432L91.8659 16.8469L91.5664 16.2573L90.3429 13.8361H90.8196ZM90.3429 16.8427H90.8196L100.772 36.5047V37.4498L91.7225 19.5649L91.4018 18.9252L90.3471 16.8427H90.3429ZM90.3429 19.8493H90.8196L100.772 39.5113V40.4522L90.3429 19.8535V19.8493ZM110.346 54.8872H101.705V52.8048H110.346V54.8872ZM121.733 19.8493L111.278 40.4606V39.5155L121.252 19.8535H121.733V19.8493ZM121.733 16.8427L120.678 18.9252L120.438 19.4019L111.282 37.454V36.5047L121.256 16.8427H121.737H121.733ZM121.733 13.8361L111.278 34.4474V33.4981L121.252 13.8361H121.733ZM120.678 12.912L120.438 13.3887L111.282 31.4408V30.4916L121.256 10.8295H121.737L120.682 12.912H120.678Z" fill="url(#paint0_linear_1625_4059)" />
	<path d="M233.341 42.8566V42.4928C233.341 42.3464 233.307 42.2 233.235 42.0662L230.535 36.8935C231.59 35.1623 232.126 32.9879 232.126 30.4246C232.126 29.9353 232.096 29.4628 232.046 29.0028C232.096 28.4926 232.126 27.9658 232.126 27.418C232.126 26.9245 232.096 26.4478 232.05 25.9837C232.096 25.4735 232.126 24.955 232.126 24.4114C232.126 23.9179 232.096 23.4412 232.05 22.9771C232.096 22.4711 232.126 21.9484 232.126 21.4048C232.126 20.903 232.101 20.4179 232.05 19.9496C232.096 19.4478 232.126 18.9334 232.126 18.3982C232.126 14.7518 230.814 11.879 228.223 9.85928C225.704 7.89391 222.203 6.89868 217.815 6.89868H203.9C203.385 6.89868 202.968 7.31266 202.968 7.82282V54.8913C202.968 55.4015 203.385 55.8154 203.9 55.8154H212.427C212.942 55.8154 213.359 55.4015 213.359 54.8913V43.4253H216.46L222.439 55.3053C222.595 55.6189 222.92 55.8196 223.274 55.8196H232.404C232.919 55.8196 233.337 55.4056 233.337 54.8955V54.5317C233.337 54.3853 233.303 54.239 233.231 54.1052L232.548 52.7963C232.995 52.7252 233.337 52.3489 233.337 51.8847V51.5209C233.337 51.3745 233.303 51.2282 233.231 51.0944L232.548 49.7855C232.995 49.7144 233.337 49.3381 233.337 48.8739V48.5101C233.337 48.3638 233.303 48.2174 233.231 48.0836L232.548 46.7747C232.995 46.7037 233.337 46.3273 233.337 45.8632V45.4994C233.337 45.353 233.303 45.2066 233.231 45.0728L232.548 43.764C232.995 43.6929 233.337 43.3165 233.337 42.8524L233.341 42.8566ZM230.025 35.9109L229.62 35.1373C229.945 34.7609 230.24 34.372 230.493 33.958C230.662 33.6862 230.814 33.3977 230.957 33.105C230.763 34.142 230.455 35.0745 230.021 35.9109H230.025ZM229.7 33.4772C229.535 33.7448 229.354 33.9999 229.156 34.2466L228.59 33.1677C229.354 32.4986 229.991 31.7627 230.493 30.9514C230.658 30.6838 230.809 30.4037 230.949 30.1151C230.712 31.3863 230.299 32.507 229.696 33.473L229.7 33.4772ZM229.7 30.4706C229.282 31.1438 228.763 31.7543 228.147 32.3188L227.472 31.0267C228.746 30.1528 229.763 29.1241 230.493 27.949C230.662 27.6772 230.814 27.3887 230.957 27.0918C230.721 28.3714 230.299 29.5004 229.696 30.4706H229.7ZM229.7 27.464C229.054 28.5052 228.164 29.4168 227.042 30.1988L226.291 28.7561C228.143 27.7441 229.552 26.4646 230.497 24.9424C230.666 24.6706 230.818 24.3821 230.961 24.0852C230.725 25.3648 230.303 26.4938 229.7 27.464ZM212.427 51.8847H203.9V49.8023H212.427V51.8847ZM212.427 48.8781H203.9V46.7957H212.427V48.8781ZM212.427 45.8715H203.9V43.7891H212.427V45.8715ZM212.427 54.8955H203.9V52.813H212.427V54.8955ZM232.404 54.8955H223.274L217.038 42.5011H213.359V40.4187H216.46L222.439 52.2987C222.595 52.6123 222.92 52.813 223.274 52.813H231.506L232.404 54.5317V54.8955ZM231.025 51.8889H223.274L217.038 39.4945H213.359V37.4121H216.46L222.439 49.2921C222.595 49.6057 222.92 49.8064 223.274 49.8064H231.506L232.404 51.5251V51.8889H231.025ZM231.025 48.8823H223.274L217.038 36.4879H213.359V34.4055H216.46L222.439 46.2855C222.595 46.5991 222.92 46.7998 223.274 46.7998H231.506L232.404 48.5185V48.8823H231.025ZM231.025 45.8757H223.274L217.038 33.4813H213.359V31.3989H216.46L222.439 43.2789C222.595 43.5925 222.92 43.7932 223.274 43.7932H231.506L232.404 45.5119V45.8757H231.025ZM231.025 42.8691H223.274L217.038 30.4747H212.427V42.8691H203.9V7.82282H217.815C222.004 7.82282 225.283 8.74278 227.645 10.5869C229.48 12.017 230.599 13.9071 231.012 16.253C231.071 16.5875 231.117 16.9346 231.147 17.2859C231.147 17.2984 231.147 17.3068 231.147 17.3193C231.177 17.6706 231.193 18.0302 231.193 18.3982C231.193 18.6742 231.185 18.9418 231.172 19.2052C231.16 19.4687 231.139 19.7238 231.113 19.9747C230.94 21.7184 230.468 23.2112 229.7 24.4532C228.704 26.0589 227.147 27.3552 225.029 28.3505L227.81 33.6821L227.852 33.7657L232.404 42.4969V42.8607H231.025V42.8691Z" fill="url(#paint1_linear_1625_4059)" />
	<path d="M221.457 15.6089C220.634 14.7475 219.419 14.321 217.815 14.321H212.428V23.968H217.815C219.296 23.968 220.44 23.6126 221.25 22.9059C221.326 22.839 221.402 22.7762 221.469 22.7052C221.554 22.6215 221.63 22.5295 221.701 22.4375C222.364 21.6179 222.697 20.5307 222.697 19.1675C222.697 17.6579 222.288 16.4703 221.461 15.6089H221.457ZM213.36 15.2451H217.815C219.166 15.2451 220.132 15.5713 220.777 16.2445C221.406 16.8969 221.722 17.7959 221.752 18.9751C221.659 18.8497 221.562 18.7284 221.452 18.6155C220.63 17.7541 219.415 17.3276 217.811 17.3276H213.356V15.2451H213.36ZM213.36 18.2517H217.815C219.166 18.2517 220.132 18.5779 220.777 19.2511C221.149 19.6358 221.406 20.1084 221.566 20.6729C221.486 20.9531 221.385 21.2081 221.254 21.4381C220.44 20.7063 219.296 20.3342 217.815 20.3342H213.36V18.2517ZM213.36 23.0397V21.2583H217.815C219.098 21.2583 220.035 21.5594 220.676 22.1657C220.043 22.7428 219.085 23.0397 217.815 23.0397H213.36Z" fill="url(#paint2_linear_1625_4059)" />
	<path d="M269.755 18.833C269.903 18.6699 269.996 18.4524 269.996 18.2183C269.996 15.91 269.38 13.8192 268.165 12.0127C266.945 10.2104 265.233 8.80541 263.068 7.84363C260.942 6.8944 258.512 6.41351 255.853 6.41351C253.195 6.41351 250.664 6.85258 248.47 7.71818C246.226 8.60887 244.462 9.87591 243.23 11.4817C241.968 13.125 241.327 15.0402 241.327 17.1812C241.327 17.7039 241.365 18.2099 241.441 18.7075C241.369 19.1884 241.327 19.6818 241.327 20.192C241.327 20.7022 241.365 21.2207 241.441 21.7141C241.369 22.195 241.327 22.6926 241.327 23.1986C241.327 23.7046 241.369 24.244 241.445 24.7458C241.374 25.2225 241.327 25.7076 241.327 26.2094C241.327 26.7112 241.369 27.2381 241.441 27.7315C241.369 28.2124 241.327 28.71 241.327 29.216C241.327 29.6801 241.361 30.1317 241.42 30.5792H241.192C240.677 30.5792 240.26 30.9932 240.26 31.5033C240.26 32.3396 240.34 33.1425 240.483 33.9161C240.344 34.0792 240.26 34.2841 240.26 34.5099C240.26 35.3462 240.34 36.1491 240.483 36.9227C240.344 37.0858 240.26 37.2907 240.26 37.5165C240.26 38.3528 240.34 39.1557 240.483 39.9293C240.344 40.0924 240.26 40.2973 240.26 40.5231C240.26 41.3594 240.34 42.1623 240.483 42.9359C240.344 43.099 240.26 43.3039 240.26 43.5297C240.26 46.0136 240.905 48.2424 242.175 50.1618C243.441 52.077 245.344 53.5991 247.82 54.6863C250.251 55.7526 252.997 56.2962 255.98 56.2962C260.233 56.2962 263.646 55.3512 266.135 53.482C268.701 51.5584 270 48.8822 270 45.5285C270 45.0184 269.962 44.5249 269.899 44.044C269.962 43.5506 270 43.0446 270 42.5219C270 41.9992 269.966 41.5183 269.903 41.0333C269.966 40.544 270 40.038 270 39.5153C270 38.9926 269.966 38.5076 269.903 38.0267C269.966 37.5374 270 37.0314 270 36.5087C270 35.986 269.966 35.501 269.903 35.0201C269.966 34.5308 270 34.0248 270 33.5021C270 32.6031 269.899 31.7459 269.705 30.9263C269.886 30.759 270 30.5206 270 30.253C270 29.425 269.92 28.6264 269.76 27.8569C269.907 27.6939 270 27.4806 270 27.2422C270 26.4143 269.916 25.6156 269.76 24.8503C269.907 24.6873 270 24.474 270 24.2356C270 23.4077 269.911 22.6132 269.755 21.8479C269.907 21.6848 270 21.4674 270 21.2249C270 20.3969 269.916 19.6024 269.76 18.833H269.755ZM269.063 24.2315H264.709C264.418 24.0391 264.119 23.8509 263.802 23.6711C262.878 23.1442 261.802 22.6341 260.6 22.149H268.869C269 22.8181 269.068 23.508 269.068 24.2315H269.063ZM267.975 27.2381C267.422 26.4937 266.751 25.7996 265.967 25.1556H268.861C268.992 25.8247 269.063 26.5146 269.063 27.2381H267.975ZM268.979 28.8773C268.861 28.6347 268.734 28.3964 268.595 28.1622H268.865C268.912 28.3964 268.95 28.6347 268.979 28.8773ZM251.664 17.2481C251.664 16.5122 251.968 15.9393 252.622 15.45C253.335 14.9106 254.356 14.6388 255.664 14.6388C256.972 14.6388 257.917 14.9566 258.621 15.5838C259.305 16.1902 259.634 17.0516 259.634 18.2141C259.634 18.2517 259.642 18.2894 259.646 18.327C259.524 18.1765 259.393 18.0343 259.246 17.9046C258.364 17.1185 257.17 16.7212 255.664 16.7212C254.157 16.7212 252.938 17.0558 252.056 17.7207C251.972 17.7834 251.896 17.8503 251.82 17.9172C251.715 17.6997 251.664 17.4781 251.664 17.2523V17.2481ZM269.063 21.2207H260.562C260.562 20.3676 260.402 19.6275 260.085 19.0044C260.224 19.088 260.389 19.1382 260.562 19.1382H268.865C268.992 19.8073 269.063 20.4973 269.063 21.2207ZM252.622 18.4566C253.335 17.9172 254.356 17.6454 255.664 17.6454C256.972 17.6454 257.917 17.9632 258.621 18.5904C259.305 19.1968 259.634 20.0582 259.634 21.2207C259.634 21.4758 259.739 21.7099 259.908 21.8772C259.182 21.6012 258.414 21.3336 257.6 21.0743C255.267 20.33 253.638 19.6191 252.757 18.9584C252.622 18.8581 252.504 18.7535 252.394 18.649C252.466 18.5821 252.542 18.5193 252.626 18.4566H252.622ZM241.568 43.5297C241.504 43.2914 241.458 43.0405 241.412 42.7937C241.635 43.2579 241.888 43.7137 242.175 44.1486C243.441 46.0638 245.344 47.5859 247.82 48.6731C250.251 49.7394 252.997 50.283 255.98 50.283C260.233 50.283 263.646 49.338 266.135 47.4688C267.363 46.5488 268.296 45.4533 268.941 44.1988C268.582 46.4778 267.456 48.326 265.574 49.7394C263.241 51.4915 260.047 52.3655 255.984 52.3655C253.12 52.3655 250.525 51.8553 248.204 50.835C245.884 49.8189 244.133 48.4222 242.96 46.6492C242.323 45.6916 241.867 44.6504 241.576 43.5339L241.568 43.5297ZM241.412 39.7871C241.635 40.2513 241.888 40.7071 242.175 41.142C243.441 43.0572 245.344 44.5793 247.82 45.6665C250.251 46.7328 252.997 47.2764 255.98 47.2764C260.233 47.2764 263.646 46.3314 266.135 44.4622C267.363 43.5422 268.296 42.4467 268.941 41.1922C268.582 43.4712 267.456 45.3194 265.574 46.7328C263.241 48.4849 260.047 49.3589 255.984 49.3589C253.12 49.3589 250.525 48.8487 248.204 47.8284C245.884 46.8123 244.133 45.4156 242.96 43.6426C242.323 42.685 241.867 41.6438 241.576 40.5273C241.513 40.2848 241.466 40.038 241.416 39.7913L241.412 39.7871ZM265.57 43.7221C263.237 45.4742 260.043 46.3481 255.98 46.3481C253.115 46.3481 250.521 45.838 248.2 44.8176C245.88 43.8015 244.129 42.4048 242.956 40.6318C242.319 39.6742 241.863 38.633 241.572 37.5165C241.509 37.2782 241.462 37.0273 241.416 36.7805C241.639 37.2447 241.893 37.7005 242.179 38.1354C243.445 40.0506 245.344 41.5727 247.825 42.6599C250.255 43.7262 253.001 44.2699 255.984 44.2699C260.237 44.2699 263.65 43.3248 266.14 41.4556C267.367 40.5357 268.3 39.4401 268.945 38.1856C268.587 40.4646 267.46 42.3129 265.578 43.7262L265.57 43.7221ZM265.57 52.746C263.237 54.4981 260.043 55.3721 255.98 55.3721C253.115 55.3721 250.521 54.8619 248.2 53.8416C245.88 52.8255 244.129 51.4288 242.956 49.6558C242.179 48.4808 241.665 47.1886 241.399 45.7794C241.627 46.2519 241.88 46.7161 242.175 47.1552C243.441 49.0704 245.344 50.5925 247.82 51.6797C250.251 52.746 252.997 53.2896 255.98 53.2896C260.233 53.2896 263.646 52.3446 266.135 50.4754C267.363 49.5554 268.296 48.4599 268.941 47.2054C268.582 49.4844 267.456 51.3326 265.57 52.746ZM269.021 32.5445C269.025 32.5947 269.03 32.6407 269.034 32.6909C269.055 32.9543 269.068 33.2262 269.068 33.498C269.068 33.7447 269.059 33.983 269.042 34.2214C269.042 34.259 269.038 34.2967 269.034 34.3301C269.017 34.5308 268.996 34.7315 268.971 34.9281C268.971 34.949 268.962 34.9699 268.958 34.995C268.958 35.0033 268.958 35.0075 268.958 35.0159C268.625 37.366 267.498 39.2686 265.566 40.7155C263.233 42.4676 260.039 43.3415 255.976 43.3415C253.111 43.3415 250.516 42.8314 248.196 41.8111C245.875 40.7949 244.124 39.3982 242.952 37.6252C242.314 36.6676 241.859 35.6264 241.568 34.5099C241.488 34.2088 241.424 33.8994 241.369 33.5858C241.255 32.9167 241.192 32.2226 241.192 31.5033H249.736C249.736 33.0087 250.056 34.1921 250.685 35.0619C250.841 35.2752 251.01 35.4759 251.204 35.6557C252.187 36.5464 253.773 36.9896 255.976 36.9896C256.604 36.9896 257.174 36.9269 257.685 36.8056C258.098 36.7053 258.474 36.5715 258.811 36.3917C258.988 36.2997 259.153 36.1993 259.309 36.0864C259.457 35.9777 259.587 35.8564 259.71 35.731C259.731 35.71 259.752 35.685 259.773 35.664C259.819 35.6139 259.862 35.5637 259.904 35.5093C259.933 35.4759 259.959 35.4382 259.984 35.4006C260.018 35.3546 260.051 35.3086 260.081 35.2584C260.115 35.2041 260.144 35.1497 260.174 35.0912C260.41 34.6437 260.532 34.1294 260.532 33.544C260.532 32.3146 260.094 31.3486 259.212 30.6586C258.33 29.9728 256.782 29.2578 254.562 28.5176C252.347 27.7817 250.533 27.0708 249.128 26.3808C245.804 24.7625 243.694 22.7052 242.783 20.2087C242.698 19.9787 242.627 19.7446 242.559 19.5104C242.496 19.272 242.441 19.0337 242.399 18.787C242.395 18.7577 242.386 18.7284 242.382 18.6992C242.344 18.4566 242.31 18.2141 242.289 17.9632C242.289 17.9632 242.289 17.9548 242.289 17.9506C242.268 17.6997 242.255 17.4447 242.255 17.1854C242.255 16.9596 242.264 16.7338 242.281 16.5163C242.298 16.2989 242.319 16.0815 242.352 15.8682C242.555 14.459 243.095 13.1878 243.968 12.0462C245.107 10.5617 246.723 9.40756 248.812 8.5796C250.896 7.75582 253.246 7.34184 255.849 7.34184C258.452 7.34184 260.667 7.78927 262.684 8.68832C264.701 9.58737 266.266 10.867 267.384 12.5271C268.152 13.6686 268.65 14.9273 268.89 16.2905C268.941 16.5832 268.979 16.8801 269.009 17.1812C269.009 17.2105 269.013 17.2356 269.017 17.2649C269.042 17.5785 269.059 17.8921 269.059 18.2183H260.558C260.558 16.7923 260.119 15.6842 259.237 14.8981C258.355 14.1119 257.161 13.7146 255.655 13.7146C254.149 13.7146 252.93 14.0492 252.048 14.7141C251.162 15.3789 250.723 16.2278 250.723 17.2523C250.723 17.7457 250.875 18.2183 251.17 18.6615C251.25 18.7828 251.343 18.8999 251.445 19.017C251.457 19.0295 251.466 19.0421 251.474 19.0546C251.58 19.1717 251.693 19.2929 251.824 19.4059C251.934 19.5062 252.052 19.6024 252.179 19.6986C253.149 20.4262 254.858 21.1789 257.301 21.9566C259.524 22.6633 261.38 23.4244 262.882 24.2315C263.03 24.3109 263.182 24.3904 263.321 24.474C263.705 24.6914 264.064 24.9214 264.41 25.1598H264.414C265.545 25.9334 266.473 26.799 267.19 27.7566C267.232 27.8151 267.275 27.8778 267.317 27.9364C267.836 28.664 268.245 29.4418 268.532 30.2697C268.633 30.5666 268.717 30.8677 268.789 31.1772C268.836 31.3737 268.874 31.5702 268.907 31.7709C268.95 32.026 268.979 32.2853 269.004 32.5487L269.021 32.5445ZM257.794 35.8146C256.95 35.3964 255.883 34.9657 254.571 34.5308C253.17 34.0667 251.93 33.6109 250.85 33.1634C250.732 32.6742 250.672 32.1222 250.672 31.5033C250.672 31.3277 250.622 31.1688 250.537 31.0308C251.626 31.4782 252.875 31.9382 254.276 32.4024C256.377 33.1049 257.849 33.7739 258.647 34.397C258.857 34.5601 259.026 34.7525 259.165 34.9615C259.052 35.1037 258.921 35.2292 258.76 35.3462C258.486 35.547 258.166 35.7017 257.794 35.8188V35.8146ZM256.064 36.0613C256.035 36.0613 256.01 36.0613 255.98 36.0613C254.031 36.0613 252.639 35.6933 251.837 34.9699C251.643 34.7901 251.47 34.5852 251.322 34.3468C252.217 34.6939 253.191 35.0493 254.271 35.409C254.934 35.6306 255.529 35.848 256.064 36.0613ZM254.571 31.5242C252.356 30.7883 250.542 30.0774 249.137 29.3874C245.167 27.4555 242.922 24.8922 242.39 21.7099C242.39 21.689 242.395 21.6639 242.399 21.643C243.563 23.8635 245.677 25.7285 248.723 27.2088C250.149 27.9071 252.018 28.6431 254.276 29.3916C256.377 30.0941 257.849 30.7632 258.647 31.3862C259.296 31.8964 259.613 32.6031 259.613 33.544C259.613 33.6987 259.6 33.845 259.579 33.9872C259.469 33.8743 259.355 33.7656 259.225 33.6652C258.343 32.9794 256.794 32.2644 254.575 31.5242H254.571ZM248.723 30.2154C248.964 30.3366 249.225 30.4537 249.495 30.575H246.15C243.985 28.9107 242.724 26.9203 242.369 24.5994C243.53 26.8408 245.652 28.7225 248.719 30.2154H248.723ZM244.711 30.575H243.428C242.884 29.6467 242.53 28.6473 242.369 27.5809C242.926 28.664 243.707 29.6634 244.711 30.575Z" fill="url(#paint3_linear_1625_4059)" />
	<path d="M196.129 46.3943C196.302 46.1476 196.344 45.8298 196.238 45.5454L195.572 43.7599C195.795 43.7097 195.994 43.5801 196.129 43.3877C196.302 43.141 196.344 42.8232 196.238 42.5388L183.176 7.50093C183.041 7.13713 182.691 6.89459 182.299 6.89459H174.291C173.898 6.89459 173.548 7.13713 173.413 7.50093L160.448 42.5388C160.342 42.8232 160.385 43.141 160.558 43.3877C160.688 43.5759 160.887 43.7055 161.11 43.7557L160.448 45.5454C160.342 45.8298 160.385 46.1476 160.558 46.3943C160.688 46.5825 160.887 46.7121 161.11 46.7623L160.448 48.552C160.342 48.8364 160.385 49.1542 160.558 49.4009C160.688 49.5891 160.887 49.7187 161.11 49.7689L160.448 51.5586C160.342 51.843 160.385 52.1608 160.558 52.4075C160.688 52.5957 160.887 52.7253 161.11 52.7755L160.448 54.5652C160.342 54.8496 160.385 55.1674 160.558 55.4141C160.731 55.6608 161.018 55.8113 161.321 55.8113H170.426C170.835 55.8113 171.198 55.5479 171.316 55.159L173.152 49.2671H183.455L185.315 55.1632C185.438 55.5479 185.796 55.8113 186.205 55.8113H195.357C195.66 55.8113 195.947 55.665 196.124 55.4141C196.297 55.1674 196.34 54.8496 196.234 54.5652L195.568 52.7797C195.791 52.7295 195.989 52.5999 196.124 52.4075C196.297 52.1608 196.34 51.843 196.234 51.5586L195.568 49.7731C195.791 49.7229 195.989 49.5933 196.124 49.4009C196.297 49.1542 196.34 48.8364 196.234 48.552L195.568 46.7665C195.791 46.7163 195.989 46.5867 196.124 46.3943H196.129ZM161.325 42.8566L174.291 7.82291H182.299L195.361 42.8608H186.21L184.147 36.3166H172.468L170.43 42.8608H161.325V42.8566ZM172.51 39.319L173.16 37.2365H183.463L184.121 39.319H172.514H172.51ZM183.463 40.2431L184.121 42.3256H172.514L173.164 40.2431H183.467H183.463ZM173.16 43.2497H183.463L184.121 45.3322H172.514L173.164 43.2497H173.16ZM161.325 45.8591L162.098 43.7766H170.43C170.751 43.7766 171.042 43.6135 171.211 43.3543L170.43 45.8591H161.325ZM161.325 48.8657L162.098 46.7832H170.43C170.751 46.7832 171.042 46.6201 171.211 46.3609L170.43 48.8657H161.325ZM161.325 51.8722L162.098 49.7898H170.43C170.751 49.7898 171.042 49.6267 171.211 49.3675L170.43 51.8722H161.325ZM170.43 54.8788H161.325L162.098 52.7964H170.43C170.751 52.7964 171.042 52.6333 171.211 52.374L170.43 54.8788ZM172.51 48.3346L173.16 46.2521H183.463L184.121 48.3346H172.514H172.51ZM186.214 54.8788L185.412 52.3406C185.577 52.6166 185.876 52.7964 186.214 52.7964H194.589L195.365 54.8788H186.214ZM194.243 51.8722H186.214L185.412 49.334C185.577 49.61 185.876 49.7898 186.214 49.7898H194.589L195.365 51.8722H194.243ZM194.243 48.8657H186.214L185.412 46.3274C185.577 46.6034 185.876 46.7832 186.214 46.7832H194.589L195.365 48.8657H194.243ZM194.243 45.8591H186.214L185.412 43.3208C185.577 43.5968 185.876 43.7766 186.214 43.7766H194.589L195.365 45.8591H194.243Z" fill="url(#paint4_linear_1625_4059)" />
	<path d="M174.509 29.7932H182.107L178.293 17.6414L174.509 29.7932Z" fill="url(#paint5_linear_1625_4059)" />
	<path d="M154.676 6.89459H130.273C129.759 6.89459 129.341 7.30857 129.341 7.81873V54.8872C129.341 55.3974 129.759 55.8113 130.273 55.8113H154.626C155.141 55.8113 155.558 55.3974 155.558 54.8872V36.3584C155.558 35.8482 155.141 35.4342 154.626 35.4342H153.132V27.2968H154.676C155.191 27.2968 155.609 26.8828 155.609 26.3726V7.82291C155.609 7.31276 155.191 6.89877 154.676 6.89877V6.89459ZM154.676 18.2728V20.3553H139.732V18.2728H154.676ZM139.732 17.3487V15.2662H154.676V17.3487H139.732ZM153.014 21.2836H154.676V23.4288H153.132V21.731C153.132 21.5679 153.086 21.4174 153.01 21.2836H153.014ZM154.626 54.8914H130.273V52.8089H154.626V54.8914ZM154.626 51.5252V51.8848H130.273V49.8023H154.626V51.5252ZM154.626 47.469V48.8782H130.273V46.7957H154.626V47.469ZM154.626 44.4624V45.8716H130.273V43.7892H154.626V44.4624ZM154.626 36.3626V42.8608H130.273V7.82291H154.676V14.3421H138.796V21.731H152.2V27.9868H138.796V36.3626H154.626ZM139.732 34.0041V31.9217H152.2V34.0041H139.732ZM152.2 34.9283V35.4342H139.732V34.9283H152.2ZM139.732 30.9933V28.9109H152.2V30.9933H139.732ZM153.136 26.3726V24.3529H154.681V26.3726H153.136Z" fill="url(#paint6_linear_1625_4059)" />
	<path d="M45.6963 58.4116C45.1555 59.1522 44.2807 59.6334 43.2935 59.6334H5.53959C3.89774 59.6334 2.56662 58.3023 2.56662 56.6604V43.3285C2.56662 42.3289 2.95086 41.3683 3.63856 40.644L3.6394 40.6431L9.92027 34.0394H4.76203C3.12018 34.0394 1.78906 32.7083 1.78906 31.0664V25.3487C1.78906 21.4762 2.7794 17.8257 4.73185 14.5192M45.6963 58.4116L4.73185 14.5192M45.6963 58.4116C48.318 59.2168 51.057 59.6333 53.8044 59.6334L45.6963 58.4116ZM4.73185 14.5192C6.70182 11.1826 9.4625 8.54384 12.9172 6.68497L12.9175 6.68477C16.2514 4.89224 19.961 3.99121 23.9241 3.99121C29.9585 3.99121 35.0333 5.56992 38.8823 8.81009M4.73185 14.5192L38.8823 8.81009M38.8823 8.81009C43.3175 5.96289 48.5042 4.42341 53.8044 4.42341C69.0275 4.42341 81.4089 16.8059 81.4089 32.0279C81.4089 47.2495 69.027 59.6329 53.8054 59.6334L38.8823 8.81009Z" fill="white" stroke="white" stroke-width="2.79687" />
	<path d="M53.8059 55.8847C49.8507 55.8847 45.967 54.8946 42.5186 53.0452V55.8847H6.31564V43.269L18.6605 30.2907H5.53809V25.3484C5.53809 22.1493 6.35243 19.1474 7.95965 16.4254C9.57607 13.6861 11.8413 11.5199 14.693 9.98731C17.4661 8.49656 20.5722 7.73944 23.9246 7.73944C29.1918 7.73944 33.4403 9.08816 36.5515 11.7488C37.2647 12.3578 37.9064 13.0281 38.4734 13.7545C42.7444 10.1774 48.1842 8.17164 53.8049 8.17164C66.959 8.17164 77.6619 18.8735 77.6619 32.0287C77.6619 45.1838 66.96 55.8857 53.8049 55.8857L53.8059 55.8847Z" fill="white" />
	<path d="M53.8054 56.3149C50.0525 56.3149 46.3139 55.4311 42.9482 53.7524V55.8848C42.9482 56.1228 42.7551 56.3149 42.5181 56.3149H6.31514C6.07707 56.3149 5.88498 56.1218 5.88498 55.8848V43.2691C5.88498 43.1588 5.92789 43.0525 6.0035 42.9728L17.6567 30.7219H5.53758C5.29951 30.7219 5.10742 30.5288 5.10742 30.2918V25.3495C5.10742 22.0728 5.9422 18.9963 7.58927 16.2069C9.24656 13.3991 11.568 11.1788 14.4892 9.60834C17.3256 8.08286 20.5002 7.30939 23.9251 7.30939C29.2975 7.30939 33.64 8.69285 36.832 11.422C37.4491 11.9502 38.0213 12.5285 38.5363 13.1467C42.8573 9.65841 48.2624 7.74159 53.8054 7.74159C67.1976 7.74159 78.0926 18.6366 78.0926 32.0288C78.0926 45.421 67.1976 56.316 53.8054 56.316V56.3149ZM42.5181 52.6141C42.5875 52.6141 42.658 52.6315 42.7214 52.6652C46.1228 54.4901 49.9565 55.4536 53.8054 55.4536C66.7225 55.4536 77.2313 44.9448 77.2313 32.0278C77.2313 19.1107 66.7225 8.60191 53.8054 8.60191C48.3176 8.60191 42.9707 10.5484 38.7498 14.0836C38.6599 14.1582 38.5444 14.193 38.428 14.1817C38.3115 14.1695 38.2062 14.1102 38.1337 14.0182C37.585 13.3163 36.9587 12.6624 36.271 12.0749C33.2395 9.48369 29.085 8.16869 23.9231 8.16869C20.6422 8.16869 17.6056 8.90742 14.8959 10.3644C12.1146 11.8603 9.9056 13.9723 8.33005 16.6421C6.76267 19.2966 5.96774 22.226 5.96774 25.3465V29.8575H18.659C18.8317 29.8575 18.987 29.9597 19.0544 30.1181C19.1219 30.2765 19.0892 30.4594 18.9706 30.585L6.74428 43.4387V55.4515H42.0859V53.0422C42.0859 52.891 42.1656 52.75 42.2953 52.6724C42.3638 52.6315 42.4394 52.6111 42.516 52.6111L42.5181 52.6141Z" fill="url(#paint7_linear_1625_4059)" />
	<path d="M53.8051 53.9406C47.9525 53.9406 42.4493 51.661 38.3112 47.5229C34.1721 43.3848 31.8936 37.8816 31.8936 32.029C31.8936 26.1763 34.1731 20.6732 38.3112 16.535C42.4504 12.3959 47.9525 10.1174 53.8051 10.1174C59.6578 10.1174 65.161 12.3969 69.2991 16.535C73.4372 20.6732 75.7167 26.1763 75.7167 32.029C75.7167 37.8816 73.4372 43.3848 69.2991 47.5229C65.1599 51.662 59.6578 53.9406 53.8051 53.9406ZM53.8051 10.9777C42.198 10.9777 32.7539 20.4208 32.7539 32.029C32.7539 43.6372 42.197 53.0802 53.8051 53.0802C65.4133 53.0802 74.8564 43.6372 74.8564 32.029C74.8564 20.4208 65.4133 10.9777 53.8051 10.9777Z" fill="url(#paint8_linear_1625_4059)" />
	<path d="M58.3441 25.8932L53.0309 22.8259L48.6844 20.3165C48.2552 20.0682 47.7178 20.3788 47.7178 20.8744V43.1824C47.7178 43.678 48.2542 43.9886 48.6844 43.7403L53.0309 41.2308L58.3441 38.1635L63.2321 35.3414C63.4947 35.1892 63.6572 34.9092 63.6572 34.6058V29.452C63.6572 29.1486 63.4958 28.8676 63.2321 28.7164L58.3441 25.8943V25.8932ZM53.0309 35.0952V28.9606L58.3441 32.0279L53.0309 35.0952Z" fill="url(#paint9_linear_1625_4059)" />
	<path d="M40.1419 53.9403H8.68916C8.45109 53.9403 8.259 53.7472 8.259 53.5101V44.2183C8.259 44.1079 8.30192 44.0017 8.37753 43.922L21.1658 30.4777C24.5969 26.5602 24.8636 24.8294 24.8636 24.3921C24.8636 23.1425 24.5857 22.7133 24.4998 22.6112C24.365 22.4497 23.9992 22.416 23.7162 22.416C23.4331 22.416 23.2165 22.4497 22.8957 22.887C22.4492 23.496 22.2326 24.3022 22.2326 25.3505V27.9171C22.2326 28.1552 22.0395 28.3473 21.8024 28.3473H7.91161C7.67354 28.3473 7.48145 28.1542 7.48145 27.9171V25.3505C7.48145 22.5039 8.20587 19.834 9.63327 17.4155C11.0668 14.9868 13.0786 13.0638 15.6126 11.7008C18.0996 10.3633 20.8951 9.68591 23.9236 9.68591C28.7146 9.68591 32.538 10.8783 35.2876 13.2283C38.1761 15.6979 39.6402 19.1923 39.6402 23.6155C39.6402 25.47 39.2918 27.299 38.6042 29.0503C37.9543 30.7055 36.953 32.4343 35.6299 34.1897C34.3802 35.847 32.4726 37.9539 29.7977 40.6319L29.295 41.2123H40.1419C40.38 41.2123 40.5721 41.4054 40.5721 41.6424V53.5112C40.5721 53.7492 40.379 53.9413 40.1419 53.9413V53.9403ZM9.11932 53.079H39.7108V42.0705H28.3508C28.1823 42.0705 28.029 41.9724 27.9595 41.8192C27.889 41.6659 27.9156 41.4861 28.0259 41.3584L29.156 40.0536C29.1621 40.0454 29.1693 40.0383 29.1764 40.0311C31.8279 37.3766 33.7141 35.2942 34.9412 33.6676C36.2184 31.9745 37.1809 30.3142 37.8021 28.7325C38.4499 27.0824 38.7789 25.3597 38.7789 23.6125C38.7789 19.4529 37.4159 16.1792 34.7276 13.8802C32.1385 11.6671 28.5031 10.5442 23.9236 10.5442C21.0402 10.5442 18.3805 11.1879 16.0213 12.4569C13.6273 13.7443 11.7279 15.559 10.3751 17.8508C9.02634 20.1344 8.34279 22.6571 8.34279 25.3484V27.4849H21.3712V25.3484C21.3712 24.1101 21.643 23.1384 22.2009 22.3761C22.629 21.7917 23.0684 21.5526 23.7162 21.5526C24.6327 21.5526 24.979 21.8397 25.1599 22.0563C25.4174 22.3649 25.7249 23.0199 25.7249 24.39C25.7249 25.2074 25.2161 27.161 21.8075 31.0499C21.8034 31.0539 21.7993 31.059 21.7952 31.0631L9.11932 44.3899V53.079Z" fill="url(#paint10_linear_1625_4059)" />
	<defs>
		<linearGradient id="paint0_linear_1625_4059" x1="89.4104" y1="31.3572" x2="122.669" y2="31.3572" gradientUnits="userSpaceOnUse">
			<stop stop-color="#FF0000">
				<animate attributeName="offset" values="-1.97;.03" dur="3s" repeatCount="indefinite" />
			</stop>
			<stop stop-color="#0505a9">
				<animate attributeName="offset" values="-1.4;.6" dur="3s" repeatCount="indefinite" />
			</stop>
			<stop stop-color="#0538bf">
				<animate attributeName="offset" values="-1.31;.69" dur="3s" repeatCount="indefinite" />
			</stop>
			<stop stop-color="#0585e1">
				<animate attributeName="offset" values="-1.18;.82" dur="3s" repeatCount="indefinite" />
			</stop>
			<stop stop-color="#05b5f6">
				<animate attributeName="offset" values="-1.08;.92" dur="3s" repeatCount="indefinite" />
			</stop>
			<stop stop-color="#05c8ff">
				<animate attributeName="offset" values="-1.03;.97" dur="3s" repeatCount="indefinite" />
			</stop>
			<stop stop-color="#05c8ff">
				<animate attributeName="offset" values="-.97;1.03" dur="3s" repeatCount="indefinite" />
			</stop>
			<stop stop-color="#05b5f6">
				<animate attributeName="offset" values="-.92;1.08" dur="3s" repeatCount="indefinite" />
			</stop>
			<stop stop-color="#0585e1">
				<animate attributeName="offset" values="-.82;1.18" dur="3s" repeatCount="indefinite" />
			</stop>
			<stop stop-color="#0538bf">
				<animate attributeName="offset" values="-.69;0.31" dur="3s" repeatCount="indefinite" />
			</stop>
			<stop stop-color="#0505a9">
				<animate attributeName="offset" values="-.6;1.4" dur="3s" repeatCount="indefinite" />
			</stop>
			<stop stop-color="#FF0000">
				<animate attributeName="offset" values="-.03;1.97" dur="3s" repeatCount="indefinite" />
			</stop>
			<stop stop-color="#FF0000">
				<animate attributeName="offset" values=".03;2.03" dur="3s" repeatCount="indefinite" />
			</stop>
			<stop stop-color="#0505a9">
				<animate attributeName="offset" values=".6;2.6" dur="3s" repeatCount="indefinite" />
			</stop>
			<stop stop-color="#0538bf">
				<animate attributeName="offset" values=".69;2.69" dur="3s" repeatCount="indefinite" />
			</stop>
			<stop stop-color="#0585e1">
				<animate attributeName="offset" values=".82;2.82" dur="3s" repeatCount="indefinite" />
			</stop>
			<stop stop-color="#05b5f6">
				<animate attributeName="offset" values=".92;2.92" dur="3s" repeatCount="indefinite" />
			</stop>
			<stop stop-color="#05c8ff">
				<animate attributeName="offset" values=".97;2.97" dur="3s" repeatCount="indefinite" />
			</stop>
		</linearGradient>
		<linearGradient id="paint1_linear_1625_4059" x1="202.972" y1="6.41361" x2="233.341" y2="6.41361" gradientUnits="userSpaceOnUse">
			<stop stop-color="#FF0000">
				<animate attributeName="offset" values="-1.97;.03" dur="3s" repeatCount="indefinite" />
			</stop>
			<stop stop-color="#0505a9">
				<animate attributeName="offset" values="-1.4;.6" dur="3s" repeatCount="indefinite" />
			</stop>
			<stop stop-color="#0538bf">
				<animate attributeName="offset" values="-1.31;.69" dur="3s" repeatCount="indefinite" />
			</stop>
			<stop stop-color="#0585e1">
				<animate attributeName="offset" values="-1.18;.82" dur="3s" repeatCount="indefinite" />
			</stop>
			<stop stop-color="#05b5f6">
				<animate attributeName="offset" values="-1.08;.92" dur="3s" repeatCount="indefinite" />
			</stop>
			<stop stop-color="#05c8ff">
				<animate attributeName="offset" values="-1.03;.97" dur="3s" repeatCount="indefinite" />
			</stop>
			<stop stop-color="#05c8ff">
				<animate attributeName="offset" values="-.97;1.03" dur="3s" repeatCount="indefinite" />
			</stop>
			<stop stop-color="#05b5f6">
				<animate attributeName="offset" values="-.92;1.08" dur="3s" repeatCount="indefinite" />
			</stop>
			<stop stop-color="#0585e1">
				<animate attributeName="offset" values="-.82;1.18" dur="3s" repeatCount="indefinite" />
			</stop>
			<stop stop-color="#0538bf">
				<animate attributeName="offset" values="-.69;0.31" dur="3s" repeatCount="indefinite" />
			</stop>
			<stop stop-color="#0505a9">
				<animate attributeName="offset" values="-.6;1.4" dur="3s" repeatCount="indefinite" />
			</stop>
			<stop stop-color="#FF0000">
				<animate attributeName="offset" values="-.03;1.97" dur="3s" repeatCount="indefinite" />
			</stop>
			<stop stop-color="#FF0000">
				<animate attributeName="offset" values=".03;2.03" dur="3s" repeatCount="indefinite" />
			</stop>
			<stop stop-color="#0505a9">
				<animate attributeName="offset" values=".6;2.6" dur="3s" repeatCount="indefinite" />
			</stop>
			<stop stop-color="#0538bf">
				<animate attributeName="offset" values=".69;2.69" dur="3s" repeatCount="indefinite" />
			</stop>
			<stop stop-color="#0585e1">
				<animate attributeName="offset" values=".82;2.82" dur="3s" repeatCount="indefinite" />
			</stop>
			<stop stop-color="#05b5f6">
				<animate attributeName="offset" values=".92;2.92" dur="3s" repeatCount="indefinite" />
			</stop>
			<stop stop-color="#05c8ff">
				<animate attributeName="offset" values=".97;2.97" dur="3s" repeatCount="indefinite" />
			</stop>
		</linearGradient>
		<linearGradient id="paint2_linear_1625_4059" x1="202.5" y1="19.1424" x2="232.325" y2="19.1424" gradientUnits="userSpaceOnUse">
			<stop stop-color="#FF0000">
				<animate attributeName="offset" values="-1.97;.03" dur="3s" repeatCount="indefinite" />
			</stop>
			<stop stop-color="#0505a9">
				<animate attributeName="offset" values="-1.4;.6" dur="3s" repeatCount="indefinite" />
			</stop>
			<stop stop-color="#0538bf">
				<animate attributeName="offset" values="-1.31;.69" dur="3s" repeatCount="indefinite" />
			</stop>
			<stop stop-color="#0585e1">
				<animate attributeName="offset" values="-1.18;.82" dur="3s" repeatCount="indefinite" />
			</stop>
			<stop stop-color="#05b5f6">
				<animate attributeName="offset" values="-1.08;.92" dur="3s" repeatCount="indefinite" />
			</stop>
			<stop stop-color="#05c8ff">
				<animate attributeName="offset" values="-1.03;.97" dur="3s" repeatCount="indefinite" />
			</stop>
			<stop stop-color="#05c8ff">
				<animate attributeName="offset" values="-.97;1.03" dur="3s" repeatCount="indefinite" />
			</stop>
			<stop stop-color="#05b5f6">
				<animate attributeName="offset" values="-.92;1.08" dur="3s" repeatCount="indefinite" />
			</stop>
			<stop stop-color="#0585e1">
				<animate attributeName="offset" values="-.82;1.18" dur="3s" repeatCount="indefinite" />
			</stop>
			<stop stop-color="#0538bf">
				<animate attributeName="offset" values="-.69;0.31" dur="3s" repeatCount="indefinite" />
			</stop>
			<stop stop-color="#0505a9">
				<animate attributeName="offset" values="-.6;1.4" dur="3s" repeatCount="indefinite" />
			</stop>
			<stop stop-color="#FF0000">
				<animate attributeName="offset" values="-.03;1.97" dur="3s" repeatCount="indefinite" />
			</stop>
			<stop stop-color="#FF0000">
				<animate attributeName="offset" values=".03;2.03" dur="3s" repeatCount="indefinite" />
			</stop>
			<stop stop-color="#0505a9">
				<animate attributeName="offset" values=".6;2.6" dur="3s" repeatCount="indefinite" />
			</stop>
			<stop stop-color="#0538bf">
				<animate attributeName="offset" values=".69;2.69" dur="3s" repeatCount="indefinite" />
			</stop>
			<stop stop-color="#0585e1">
				<animate attributeName="offset" values=".82;2.82" dur="3s" repeatCount="indefinite" />
			</stop>
			<stop stop-color="#05b5f6">
				<animate attributeName="offset" values=".92;2.92" dur="3s" repeatCount="indefinite" />
			</stop>
			<stop stop-color="#05c8ff">
				<animate attributeName="offset" values=".97;2.97" dur="3s" repeatCount="indefinite" />
			</stop>
		</linearGradient>
		<linearGradient id="paint3_linear_1625_4059" x1="240.256" y1="6.41351" x2="269.996" y2="6.41351" gradientUnits="userSpaceOnUse">
			<stop stop-color="#FF0000">
				<animate attributeName="offset" values="-1.97;.03" dur="3s" repeatCount="indefinite" />
			</stop>
			<stop stop-color="#0505a9">
				<animate attributeName="offset" values="-1.4;.6" dur="3s" repeatCount="indefinite" />
			</stop>
			<stop stop-color="#0538bf">
				<animate attributeName="offset" values="-1.31;.69" dur="3s" repeatCount="indefinite" />
			</stop>
			<stop stop-color="#0585e1">
				<animate attributeName="offset" values="-1.18;.82" dur="3s" repeatCount="indefinite" />
			</stop>
			<stop stop-color="#05b5f6">
				<animate attributeName="offset" values="-1.08;.92" dur="3s" repeatCount="indefinite" />
			</stop>
			<stop stop-color="#05c8ff">
				<animate attributeName="offset" values="-1.03;.97" dur="3s" repeatCount="indefinite" />
			</stop>
			<stop stop-color="#05c8ff">
				<animate attributeName="offset" values="-.97;1.03" dur="3s" repeatCount="indefinite" />
			</stop>
			<stop stop-color="#05b5f6">
				<animate attributeName="offset" values="-.92;1.08" dur="3s" repeatCount="indefinite" />
			</stop>
			<stop stop-color="#0585e1">
				<animate attributeName="offset" values="-.82;1.18" dur="3s" repeatCount="indefinite" />
			</stop>
			<stop stop-color="#0538bf">
				<animate attributeName="offset" values="-.69;0.31" dur="3s" repeatCount="indefinite" />
			</stop>
			<stop stop-color="#0505a9">
				<animate attributeName="offset" values="-.6;1.4" dur="3s" repeatCount="indefinite" />
			</stop>
			<stop stop-color="#FF0000">
				<animate attributeName="offset" values="-.03;1.97" dur="3s" repeatCount="indefinite" />
			</stop>
			<stop stop-color="#FF0000">
				<animate attributeName="offset" values=".03;2.03" dur="3s" repeatCount="indefinite" />
			</stop>
			<stop stop-color="#0505a9">
				<animate attributeName="offset" values=".6;2.6" dur="3s" repeatCount="indefinite" />
			</stop>
			<stop stop-color="#0538bf">
				<animate attributeName="offset" values=".69;2.69" dur="3s" repeatCount="indefinite" />
			</stop>
			<stop stop-color="#0585e1">
				<animate attributeName="offset" values=".82;2.82" dur="3s" repeatCount="indefinite" />
			</stop>
			<stop stop-color="#05b5f6">
				<animate attributeName="offset" values=".92;2.92" dur="3s" repeatCount="indefinite" />
			</stop>
			<stop stop-color="#05c8ff">
				<animate attributeName="offset" values=".97;2.97" dur="3s" repeatCount="indefinite" />
			</stop>
		</linearGradient>
		<linearGradient id="paint4_linear_1625_4059" x1="160.393" y1="6.4137" x2="196.297" y2="6.4137" gradientUnits="userSpaceOnUse">
			<stop stop-color="#FF0000">
				<animate attributeName="offset" values="-1.97;.03" dur="3s" repeatCount="indefinite" />
			</stop>
			<stop stop-color="#0505a9">
				<animate attributeName="offset" values="-1.4;.6" dur="3s" repeatCount="indefinite" />
			</stop>
			<stop stop-color="#0538bf">
				<animate attributeName="offset" values="-1.31;.69" dur="3s" repeatCount="indefinite" />
			</stop>
			<stop stop-color="#0585e1">
				<animate attributeName="offset" values="-1.18;.82" dur="3s" repeatCount="indefinite" />
			</stop>
			<stop stop-color="#05b5f6">
				<animate attributeName="offset" values="-1.08;.92" dur="3s" repeatCount="indefinite" />
			</stop>
			<stop stop-color="#05c8ff">
				<animate attributeName="offset" values="-1.03;.97" dur="3s" repeatCount="indefinite" />
			</stop>
			<stop stop-color="#05c8ff">
				<animate attributeName="offset" values="-.97;1.03" dur="3s" repeatCount="indefinite" />
			</stop>
			<stop stop-color="#05b5f6">
				<animate attributeName="offset" values="-.92;1.08" dur="3s" repeatCount="indefinite" />
			</stop>
			<stop stop-color="#0585e1">
				<animate attributeName="offset" values="-.82;1.18" dur="3s" repeatCount="indefinite" />
			</stop>
			<stop stop-color="#0538bf">
				<animate attributeName="offset" values="-.69;0.31" dur="3s" repeatCount="indefinite" />
			</stop>
			<stop stop-color="#0505a9">
				<animate attributeName="offset" values="-.6;1.4" dur="3s" repeatCount="indefinite" />
			</stop>
			<stop stop-color="#FF0000">
				<animate attributeName="offset" values="-.03;1.97" dur="3s" repeatCount="indefinite" />
			</stop>
			<stop stop-color="#FF0000">
				<animate attributeName="offset" values=".03;2.03" dur="3s" repeatCount="indefinite" />
			</stop>
			<stop stop-color="#0505a9">
				<animate attributeName="offset" values=".6;2.6" dur="3s" repeatCount="indefinite" />
			</stop>
			<stop stop-color="#0538bf">
				<animate attributeName="offset" values=".69;2.69" dur="3s" repeatCount="indefinite" />
			</stop>
			<stop stop-color="#0585e1">
				<animate attributeName="offset" values=".82;2.82" dur="3s" repeatCount="indefinite" />
			</stop>
			<stop stop-color="#05b5f6">
				<animate attributeName="offset" values=".92;2.92" dur="3s" repeatCount="indefinite" />
			</stop>
			<stop stop-color="#05c8ff">
				<animate attributeName="offset" values=".97;2.97" dur="3s" repeatCount="indefinite" />
			</stop>
		</linearGradient>
		<linearGradient id="paint5_linear_1625_4059" x1="159.915" y1="23.7173" x2="196.241" y2="23.7173" gradientUnits="userSpaceOnUse">
			<stop stop-color="#FF0000">
				<animate attributeName="offset" values="-1.97;.03" dur="3s" repeatCount="indefinite" />
			</stop>
			<stop stop-color="#0505a9">
				<animate attributeName="offset" values="-1.4;.6" dur="3s" repeatCount="indefinite" />
			</stop>
			<stop stop-color="#0538bf">
				<animate attributeName="offset" values="-1.31;.69" dur="3s" repeatCount="indefinite" />
			</stop>
			<stop stop-color="#0585e1">
				<animate attributeName="offset" values="-1.18;.82" dur="3s" repeatCount="indefinite" />
			</stop>
			<stop stop-color="#05b5f6">
				<animate attributeName="offset" values="-1.08;.92" dur="3s" repeatCount="indefinite" />
			</stop>
			<stop stop-color="#05c8ff">
				<animate attributeName="offset" values="-1.03;.97" dur="3s" repeatCount="indefinite" />
			</stop>
			<stop stop-color="#05c8ff">
				<animate attributeName="offset" values="-.97;1.03" dur="3s" repeatCount="indefinite" />
			</stop>
			<stop stop-color="#05b5f6">
				<animate attributeName="offset" values="-.92;1.08" dur="3s" repeatCount="indefinite" />
			</stop>
			<stop stop-color="#0585e1">
				<animate attributeName="offset" values="-.82;1.18" dur="3s" repeatCount="indefinite" />
			</stop>
			<stop stop-color="#0538bf">
				<animate attributeName="offset" values="-.69;0.31" dur="3s" repeatCount="indefinite" />
			</stop>
			<stop stop-color="#0505a9">
				<animate attributeName="offset" values="-.6;1.4" dur="3s" repeatCount="indefinite" />
			</stop>
			<stop stop-color="#FF0000">
				<animate attributeName="offset" values="-.03;1.97" dur="3s" repeatCount="indefinite" />
			</stop>
			<stop stop-color="#FF0000">
				<animate attributeName="offset" values=".03;2.03" dur="3s" repeatCount="indefinite" />
			</stop>
			<stop stop-color="#0505a9">
				<animate attributeName="offset" values=".6;2.6" dur="3s" repeatCount="indefinite" />
			</stop>
			<stop stop-color="#0538bf">
				<animate attributeName="offset" values=".69;2.69" dur="3s" repeatCount="indefinite" />
			</stop>
			<stop stop-color="#0585e1">
				<animate attributeName="offset" values=".82;2.82" dur="3s" repeatCount="indefinite" />
			</stop>
			<stop stop-color="#05b5f6">
				<animate attributeName="offset" values=".92;2.92" dur="3s" repeatCount="indefinite" />
			</stop>
			<stop stop-color="#05c8ff">
				<animate attributeName="offset" values=".97;2.97" dur="3s" repeatCount="indefinite" />
			</stop>
		</linearGradient>
		<linearGradient id="paint6_linear_1625_4059" x1="129.341" y1="6.4137" x2="155.613" y2="6.4137" gradientUnits="userSpaceOnUse">
			<stop stop-color="#FF0000">
				<animate attributeName="offset" values="-1.97;.03" dur="3s" repeatCount="indefinite" />
			</stop>
			<stop stop-color="#0505a9">
				<animate attributeName="offset" values="-1.4;.6" dur="3s" repeatCount="indefinite" />
			</stop>
			<stop stop-color="#0538bf">
				<animate attributeName="offset" values="-1.31;.69" dur="3s" repeatCount="indefinite" />
			</stop>
			<stop stop-color="#0585e1">
				<animate attributeName="offset" values="-1.18;.82" dur="3s" repeatCount="indefinite" />
			</stop>
			<stop stop-color="#05b5f6">
				<animate attributeName="offset" values="-1.08;.92" dur="3s" repeatCount="indefinite" />
			</stop>
			<stop stop-color="#05c8ff">
				<animate attributeName="offset" values="-1.03;.97" dur="3s" repeatCount="indefinite" />
			</stop>
			<stop stop-color="#05c8ff">
				<animate attributeName="offset" values="-.97;1.03" dur="3s" repeatCount="indefinite" />
			</stop>
			<stop stop-color="#05b5f6">
				<animate attributeName="offset" values="-.92;1.08" dur="3s" repeatCount="indefinite" />
			</stop>
			<stop stop-color="#0585e1">
				<animate attributeName="offset" values="-.82;1.18" dur="3s" repeatCount="indefinite" />
			</stop>
			<stop stop-color="#0538bf">
				<animate attributeName="offset" values="-.69;0.31" dur="3s" repeatCount="indefinite" />
			</stop>
			<stop stop-color="#0505a9">
				<animate attributeName="offset" values="-.6;1.4" dur="3s" repeatCount="indefinite" />
			</stop>
			<stop stop-color="#FF0000">
				<animate attributeName="offset" values="-.03;1.97" dur="3s" repeatCount="indefinite" />
			</stop>
			<stop stop-color="#FF0000">
				<animate attributeName="offset" values=".03;2.03" dur="3s" repeatCount="indefinite" />
			</stop>
			<stop stop-color="#0505a9">
				<animate attributeName="offset" values=".6;2.6" dur="3s" repeatCount="indefinite" />
			</stop>
			<stop stop-color="#0538bf">
				<animate attributeName="offset" values=".69;2.69" dur="3s" repeatCount="indefinite" />
			</stop>
			<stop stop-color="#0585e1">
				<animate attributeName="offset" values=".82;2.82" dur="3s" repeatCount="indefinite" />
			</stop>
			<stop stop-color="#05b5f6">
				<animate attributeName="offset" values=".92;2.92" dur="3s" repeatCount="indefinite" />
			</stop>
			<stop stop-color="#05c8ff">
				<animate attributeName="offset" values=".97;2.97" dur="3s" repeatCount="indefinite" />
			</stop>
		</linearGradient>
		<linearGradient id="paint7_linear_1625_4059" x1="5.10742" y1="31.8122" x2="78.0926" y2="31.8122" gradientUnits="userSpaceOnUse">
			<stop stop-color="#FF0000">
				<animate attributeName="offset" values="-1.97;.03" dur="3s" repeatCount="indefinite" />
			</stop>
			<stop stop-color="#0505a9">
				<animate attributeName="offset" values="-1.4;.6" dur="3s" repeatCount="indefinite" />
			</stop>
			<stop stop-color="#0538bf">
				<animate attributeName="offset" values="-1.31;.69" dur="3s" repeatCount="indefinite" />
			</stop>
			<stop stop-color="#0585e1">
				<animate attributeName="offset" values="-1.18;.82" dur="3s" repeatCount="indefinite" />
			</stop>
			<stop stop-color="#05b5f6">
				<animate attributeName="offset" values="-1.08;.92" dur="3s" repeatCount="indefinite" />
			</stop>
			<stop stop-color="#05c8ff">
				<animate attributeName="offset" values="-1.03;.97" dur="3s" repeatCount="indefinite" />
			</stop>
			<stop stop-color="#05c8ff">
				<animate attributeName="offset" values="-.97;1.03" dur="3s" repeatCount="indefinite" />
			</stop>
			<stop stop-color="#05b5f6">
				<animate attributeName="offset" values="-.92;1.08" dur="3s" repeatCount="indefinite" />
			</stop>
			<stop stop-color="#0585e1">
				<animate attributeName="offset" values="-.82;1.18" dur="3s" repeatCount="indefinite" />
			</stop>
			<stop stop-color="#0538bf">
				<animate attributeName="offset" values="-.69;0.31" dur="3s" repeatCount="indefinite" />
			</stop>
			<stop stop-color="#0505a9">
				<animate attributeName="offset" values="-.6;1.4" dur="3s" repeatCount="indefinite" />
			</stop>
			<stop stop-color="#FF0000">
				<animate attributeName="offset" values="-.03;1.97" dur="3s" repeatCount="indefinite" />
			</stop>
			<stop stop-color="#FF0000">
				<animate attributeName="offset" values=".03;2.03" dur="3s" repeatCount="indefinite" />
			</stop>
			<stop stop-color="#0505a9">
				<animate attributeName="offset" values=".6;2.6" dur="3s" repeatCount="indefinite" />
			</stop>
			<stop stop-color="#0538bf">
				<animate attributeName="offset" values=".69;2.69" dur="3s" repeatCount="indefinite" />
			</stop>
			<stop stop-color="#0585e1">
				<animate attributeName="offset" values=".82;2.82" dur="3s" repeatCount="indefinite" />
			</stop>
			<stop stop-color="#05b5f6">
				<animate attributeName="offset" values=".92;2.92" dur="3s" repeatCount="indefinite" />
			</stop>
			<stop stop-color="#05c8ff">
				<animate attributeName="offset" values=".97;2.97" dur="3s" repeatCount="indefinite" />
			</stop>
		</linearGradient>
		<linearGradient id="paint8_linear_1625_4059" x1="31.8925" y1="32.0279" x2="75.7167" y2="32.0279" gradientUnits="userSpaceOnUse">
			<stop stop-color="#FF0000">
				<animate attributeName="offset" values="-1.97;.03" dur="3s" repeatCount="indefinite" />
			</stop>
			<stop stop-color="#0505a9">
				<animate attributeName="offset" values="-1.4;.6" dur="3s" repeatCount="indefinite" />
			</stop>
			<stop stop-color="#0538bf">
				<animate attributeName="offset" values="-1.31;.69" dur="3s" repeatCount="indefinite" />
			</stop>
			<stop stop-color="#0585e1">
				<animate attributeName="offset" values="-1.18;.82" dur="3s" repeatCount="indefinite" />
			</stop>
			<stop stop-color="#05b5f6">
				<animate attributeName="offset" values="-1.08;.92" dur="3s" repeatCount="indefinite" />
			</stop>
			<stop stop-color="#05c8ff">
				<animate attributeName="offset" values="-1.03;.97" dur="3s" repeatCount="indefinite" />
			</stop>
			<stop stop-color="#05c8ff">
				<animate attributeName="offset" values="-.97;1.03" dur="3s" repeatCount="indefinite" />
			</stop>
			<stop stop-color="#05b5f6">
				<animate attributeName="offset" values="-.92;1.08" dur="3s" repeatCount="indefinite" />
			</stop>
			<stop stop-color="#0585e1">
				<animate attributeName="offset" values="-.82;1.18" dur="3s" repeatCount="indefinite" />
			</stop>
			<stop stop-color="#0538bf">
				<animate attributeName="offset" values="-.69;0.31" dur="3s" repeatCount="indefinite" />
			</stop>
			<stop stop-color="#0505a9">
				<animate attributeName="offset" values="-.6;1.4" dur="3s" repeatCount="indefinite" />
			</stop>
			<stop stop-color="#FF0000">
				<animate attributeName="offset" values="-.03;1.97" dur="3s" repeatCount="indefinite" />
			</stop>
			<stop stop-color="#FF0000">
				<animate attributeName="offset" values=".03;2.03" dur="3s" repeatCount="indefinite" />
			</stop>
			<stop stop-color="#0505a9">
				<animate attributeName="offset" values=".6;2.6" dur="3s" repeatCount="indefinite" />
			</stop>
			<stop stop-color="#0538bf">
				<animate attributeName="offset" values=".69;2.69" dur="3s" repeatCount="indefinite" />
			</stop>
			<stop stop-color="#0585e1">
				<animate attributeName="offset" values=".82;2.82" dur="3s" repeatCount="indefinite" />
			</stop>
			<stop stop-color="#05b5f6">
				<animate attributeName="offset" values=".92;2.92" dur="3s" repeatCount="indefinite" />
			</stop>
			<stop stop-color="#05c8ff">
				<animate attributeName="offset" values=".97;2.97" dur="3s" repeatCount="indefinite" />
			</stop>
		</linearGradient>
		<linearGradient id="paint9_linear_1625_4059" x1="55.6017" y1="39.8361" x2="55.7151" y2="23.8977" gradientUnits="userSpaceOnUse">
			<stop offset="0.03" stop-color="#FF0000" />
			<stop offset="0.6" stop-color="#0505A9" />
			<stop offset="0.69" stop-color="#0538BF" />
			<stop offset="0.82" stop-color="#0585E1" />
			<stop offset="0.92" stop-color="#05B5F6" />
			<stop offset="0.97" stop-color="#05C8FF" />
		</linearGradient>
		<linearGradient id="paint10_linear_1625_4059" x1="7.48145" y1="5.38942" x2="40.5731" y2="5.38942" gradientUnits="userSpaceOnUse">
			<stop stop-color="#FF0000">
				<animate attributeName="offset" values="-1.97;.03" dur="3s" repeatCount="indefinite" />
			</stop>
			<stop stop-color="#0505a9">
				<animate attributeName="offset" values="-1.4;.6" dur="3s" repeatCount="indefinite" />
			</stop>
			<stop stop-color="#0538bf">
				<animate attributeName="offset" values="-1.31;.69" dur="3s" repeatCount="indefinite" />
			</stop>
			<stop stop-color="#0585e1">
				<animate attributeName="offset" values="-1.18;.82" dur="3s" repeatCount="indefinite" />
			</stop>
			<stop stop-color="#05b5f6">
				<animate attributeName="offset" values="-1.08;.92" dur="3s" repeatCount="indefinite" />
			</stop>
			<stop stop-color="#05c8ff">
				<animate attributeName="offset" values="-1.03;.97" dur="3s" repeatCount="indefinite" />
			</stop>
			<stop stop-color="#05c8ff">
				<animate attributeName="offset" values="-.97;1.03" dur="3s" repeatCount="indefinite" />
			</stop>
			<stop stop-color="#05b5f6">
				<animate attributeName="offset" values="-.92;1.08" dur="3s" repeatCount="indefinite" />
			</stop>
			<stop stop-color="#0585e1">
				<animate attributeName="offset" values="-.82;1.18" dur="3s" repeatCount="indefinite" />
			</stop>
			<stop stop-color="#0538bf">
				<animate attributeName="offset" values="-.69;0.31" dur="3s" repeatCount="indefinite" />
			</stop>
			<stop stop-color="#0505a9">
				<animate attributeName="offset" values="-.6;1.4" dur="3s" repeatCount="indefinite" />
			</stop>
			<stop stop-color="#FF0000">
				<animate attributeName="offset" values="-.03;1.97" dur="3s" repeatCount="indefinite" />
			</stop>
			<stop stop-color="#FF0000">
				<animate attributeName="offset" values=".03;2.03" dur="3s" repeatCount="indefinite" />
			</stop>
			<stop stop-color="#0505a9">
				<animate attributeName="offset" values=".6;2.6" dur="3s" repeatCount="indefinite" />
			</stop>
			<stop stop-color="#0538bf">
				<animate attributeName="offset" values=".69;2.69" dur="3s" repeatCount="indefinite" />
			</stop>
			<stop stop-color="#0585e1">
				<animate attributeName="offset" values=".82;2.82" dur="3s" repeatCount="indefinite" />
			</stop>
			<stop stop-color="#05b5f6">
				<animate attributeName="offset" values=".92;2.92" dur="3s" repeatCount="indefinite" />
			</stop>
			<stop stop-color="#05c8ff">
				<animate attributeName="offset" values=".97;2.97" dur="3s" repeatCount="indefinite" />
			</stop>
		</linearGradient>
	</defs>
</svg>