<svg width="358" height="95" viewBox="0 0 358 95" fill="none" xmlns="http://www.w3.org/2000/svg">
	<g clip-path="url(#clip0_2011_306)">
		<path d="M357.25 27.88C357.25 26.07 357.03 24.33 356.61 22.68C357 22.32 357.25 21.8 357.25 21.22C357.25 17.07 356.15 13.31 353.98 10.05C351.82 6.80999 348.77 4.28999 344.91 2.54999C341.13 0.84999 336.83 -0.0100098 332.12 -0.0100098C327.41 -0.0100098 322.93 0.76999 319.05 2.31999C315.07 3.90999 311.93 6.18999 309.72 9.08999C307.46 12.06 306.31 15.52 306.31 19.38C306.31 20.53 306.42 21.63 306.62 22.71C306.42 23.78 306.31 24.89 306.31 26.04C306.31 27.19 306.42 28.29 306.62 29.37C306.42 30.44 306.31 31.55 306.31 32.7C306.31 33.85 306.41 34.97 306.61 36.05C306.41 37.12 306.31 38.22 306.31 39.36C306.31 40.5 306.42 41.61 306.62 42.69H306.44C305.34 42.69 304.44 43.59 304.44 44.69C304.44 46.52 304.64 48.26 305.03 49.93C304.67 50.29 304.44 50.79 304.44 51.34C304.44 53.17 304.64 54.91 305.03 56.58C304.67 56.94 304.44 57.44 304.44 57.99C304.44 59.82 304.64 61.56 305.03 63.23C304.67 63.59 304.44 64.09 304.44 64.64C304.44 66.47 304.64 68.21 305.03 69.88C304.67 70.24 304.44 70.74 304.44 71.29C304.44 75.75 305.59 79.76 307.85 83.21C310.11 86.66 313.49 89.39 317.9 91.34C322.2 93.25 327.06 94.21 332.34 94.21C339.87 94.21 345.92 92.51 350.34 89.17C354.93 85.7 357.26 80.87 357.26 74.82C357.26 73.66 357.16 72.54 356.98 71.45C357.15 70.39 357.26 69.3 357.26 68.16C357.26 67.02 357.16 65.88 356.98 64.79C357.15 63.73 357.26 62.65 357.26 61.5C357.26 60.35 357.16 59.22 356.98 58.13C357.15 57.07 357.26 55.99 357.26 54.84C357.26 53.69 357.17 52.54 356.99 51.45C357.15 50.4 357.26 49.32 357.26 48.18C357.26 46.25 357.01 44.42 356.52 42.69C356.97 42.32 357.26 41.77 357.26 41.15C357.26 39.34 357.04 37.6 356.62 35.95C357.01 35.59 357.26 35.07 357.26 34.49C357.26 32.68 357.04 30.94 356.62 29.29C357.01 28.93 357.26 28.41 357.26 27.83L357.25 27.88ZM355.19 26.34C355.23 26.85 355.25 27.36 355.25 27.88H340.67C340.57 27.84 340.47 27.8 340.37 27.76C340.34 25.3 339.58 23.38 338.06 22.02C336.52 20.63 334.43 19.94 331.79 19.94C329.39 19.94 327.47 20.44 325.98 21.4C325.17 20.49 325.16 19.8 325.16 19.54C325.16 18.36 325.65 17.44 326.69 16.64C327.87 15.74 329.59 15.29 331.79 15.29C333.99 15.29 335.55 15.8 336.72 16.86C337.83 17.86 338.37 19.29 338.37 21.24C338.37 22.34 339.27 23.24 340.37 23.24H354.69C354.89 24.06 355.04 24.9 355.13 25.77C355.15 25.96 355.17 26.16 355.19 26.35V26.34ZM355.19 33C355.23 33.51 355.25 34.02 355.25 34.54H351.54C350.05 33.08 348.28 31.74 346.21 30.55C345.82 30.33 345.42 30.11 345 29.89H354.68C354.88 30.71 355.03 31.55 355.12 32.42C355.14 32.62 355.16 32.81 355.18 33.01L355.19 33ZM338.3 26.97C337.33 26.62 336.33 26.27 335.28 25.94C331.79 24.82 329.22 23.74 327.61 22.73C328.7 22.21 330.1 21.94 331.78 21.94C333.92 21.94 335.54 22.45 336.71 23.51C337.64 24.34 338.14 25.5 338.3 26.97ZM338.03 49.89C338.03 49.89 338.02 49.88 338.01 49.87C336.46 48.65 333.75 47.39 329.87 46.08C327.26 45.2 324.98 44.35 323.01 43.51C322.65 43.02 322.07 42.69 321.41 42.69H321.18C320.9 42.56 320.61 42.42 320.35 42.29C313.67 39.01 309.79 34.71 308.67 29.39C308.57 28.9 308.49 28.39 308.43 27.88C308.43 27.84 308.43 27.8 308.42 27.76C310.53 31.6 314.21 34.84 319.47 37.42C322 38.67 325.29 39.98 329.24 41.3C333.78 42.83 335.85 44.02 336.78 44.76C337.84 45.6 338.34 46.72 338.34 48.29C338.34 48.89 338.24 49.41 338.04 49.86L338.03 49.89ZM336.68 51.37C335.62 52.04 334.18 52.39 332.33 52.39C329.01 52.39 326.65 51.77 325.33 50.56C324.24 49.56 323.62 47.98 323.45 45.86C325.18 46.56 327.1 47.27 329.23 47.98C333.64 49.46 335.71 50.63 336.68 51.37ZM311.95 42.7C311.08 41.65 310.35 40.55 309.79 39.39C309.67 39.13 309.56 38.87 309.45 38.6C309.37 38.41 309.3 38.23 309.23 38.04C309.13 37.76 309.04 37.48 308.96 37.19C308.85 36.82 308.74 36.46 308.66 36.08V36.06C308.55 35.52 308.46 34.98 308.4 34.42C310.14 37.61 312.98 40.37 316.9 42.7H311.95ZM308.87 41.86C309.05 42.14 309.24 42.42 309.44 42.7H308.68C308.74 42.42 308.8 42.14 308.87 41.86ZM307.85 56.62C310.11 60.07 313.49 62.8 317.9 64.75C322.2 66.66 327.06 67.62 332.34 67.62C339.87 67.62 345.92 65.92 350.34 62.58C352.39 61.03 353.96 59.19 355.1 57.11C355.05 57.48 355.01 57.85 354.95 58.2C354.26 62.06 352.33 65.21 349.13 67.64C345.05 70.73 339.45 72.27 332.33 72.27C327.31 72.27 322.77 71.37 318.7 69.57C314.63 67.77 311.57 65.3 309.52 62.17C308.66 60.87 308 59.48 307.5 58.01C307.28 57.36 307.09 56.69 306.94 56.01C306.83 55.52 306.74 55.03 306.67 54.53C307.03 55.24 307.41 55.94 307.85 56.62ZM307.85 63.28C310.11 66.73 313.49 69.46 317.9 71.41C322.2 73.32 327.06 74.28 332.34 74.28C339.87 74.28 345.92 72.58 350.34 69.24C352.39 67.69 353.96 65.85 355.1 63.77C355.06 64.13 355.01 64.5 354.95 64.85C354.26 68.71 352.33 71.87 349.13 74.3C345.05 77.39 339.45 78.93 332.33 78.93C327.31 78.93 322.77 78.03 318.7 76.23C314.63 74.43 311.57 71.96 309.52 68.83C308.66 67.53 308 66.13 307.5 64.66C307.28 64.01 307.09 63.35 306.94 62.67C306.83 62.18 306.74 61.69 306.67 61.18C307.03 61.89 307.41 62.59 307.85 63.27V63.28ZM307.85 69.94C310.11 73.39 313.49 76.12 317.9 78.07C322.2 79.98 327.06 80.94 332.34 80.94C339.87 80.94 345.92 79.24 350.34 75.9C352.39 74.35 353.96 72.51 355.1 70.43C355.05 70.8 355.01 71.17 354.95 71.53C354.26 75.38 352.33 78.53 349.13 80.96C345.05 84.05 339.45 85.59 332.33 85.59C327.31 85.59 322.77 84.69 318.7 82.89C314.63 81.09 311.57 78.62 309.52 75.49C308.66 74.18 308 72.79 307.5 71.32C307.28 70.68 307.1 70.02 306.95 69.35C306.84 68.86 306.75 68.36 306.67 67.85C307.03 68.56 307.41 69.26 307.85 69.94ZM349.13 87.62C345.05 90.71 339.45 92.25 332.33 92.25C327.31 92.25 322.77 91.35 318.7 89.55C314.63 87.75 311.57 85.28 309.52 82.15C308.01 79.86 307.07 77.31 306.66 74.5C307.02 75.21 307.4 75.91 307.84 76.59C310.1 80.04 313.48 82.77 317.89 84.72C322.19 86.63 327.05 87.59 332.33 87.59C339.86 87.59 345.91 85.89 350.33 82.55C352.39 80.99 353.98 79.13 355.12 77.04C354.63 81.43 352.64 84.96 349.12 87.62H349.13ZM355.22 47.06C355.24 47.45 355.26 47.84 355.26 48.24C355.26 48.83 355.23 49.4 355.18 49.96C355.13 50.5 355.05 51.03 354.96 51.55C354.27 55.41 352.34 58.57 349.14 60.99C345.06 64.08 339.46 65.62 332.34 65.62C327.32 65.62 322.78 64.72 318.71 62.92C314.64 61.12 311.58 58.65 309.53 55.52C308.67 54.22 308.01 52.82 307.51 51.35C307.35 50.89 307.22 50.41 307.09 49.93C307.07 49.84 307.04 49.75 307.02 49.66C306.91 49.22 306.83 48.78 306.75 48.32C306.73 48.22 306.72 48.13 306.7 48.03C306.63 47.6 306.58 47.16 306.54 46.71C306.53 46.59 306.51 46.48 306.51 46.36C306.47 45.81 306.45 45.26 306.45 44.69H321.42C321.42 48.01 322.28 50.45 323.99 52.02C325.7 53.59 328.49 54.38 332.34 54.38C334.81 54.38 336.76 53.85 338.19 52.79C338.43 52.62 338.63 52.42 338.83 52.23C338.87 52.19 338.91 52.15 338.94 52.11C339.86 51.12 340.33 49.86 340.33 48.31C340.33 46.13 339.56 44.43 338.01 43.21C336.46 41.99 333.75 40.73 329.87 39.42C325.99 38.12 322.81 36.86 320.35 35.64C313.67 32.36 309.79 28.06 308.67 22.74C308.57 22.25 308.49 21.74 308.43 21.23C308.43 21.16 308.41 21.08 308.4 21.01C308.35 20.48 308.32 19.95 308.32 19.4C308.32 18.85 308.35 18.33 308.4 17.81C308.67 15.03 309.63 12.53 311.31 10.33C313.31 7.70999 316.14 5.66999 319.79 4.20999C323.45 2.74999 327.56 2.01999 332.12 2.01999C336.68 2.01999 340.56 2.80999 344.09 4.39999C347.62 5.98999 350.36 8.24999 352.32 11.18C353.81 13.42 354.73 15.9 355.08 18.63C355.13 19.05 355.18 19.48 355.21 19.92C355.24 20.36 355.25 20.8 355.25 21.24H340.37C340.37 18.72 339.6 16.76 338.05 15.37C336.5 13.98 334.42 13.29 331.78 13.29C329.14 13.29 327.01 13.88 325.47 15.05C323.93 16.23 323.15 17.72 323.15 19.54C323.15 20.66 323.58 21.71 324.43 22.68C324.6 22.87 324.78 23.06 324.98 23.25C324.99 23.26 325.01 23.28 325.02 23.29C325.23 23.48 325.45 23.67 325.7 23.86C327.4 25.15 330.39 26.48 334.67 27.86C336.24 28.36 337.71 28.88 339.07 29.42C339.45 29.57 339.81 29.71 340.17 29.86C342.07 30.64 343.75 31.46 345.21 32.3C346.43 33 347.54 33.76 348.54 34.56C349.33 35.2 350.05 35.86 350.7 36.56C352.03 37.98 353.08 39.54 353.82 41.22C353.95 41.51 354.06 41.8 354.17 42.09C354.18 42.13 354.2 42.17 354.22 42.21C354.34 42.54 354.45 42.88 354.55 43.22C354.8 44.09 354.99 44.99 355.1 45.93C355.15 46.31 355.18 46.69 355.21 47.07L355.22 47.06ZM353.34 36.55H354.69C354.92 37.46 355.09 38.4 355.17 39.37C354.66 38.39 354.04 37.45 353.34 36.55Z" fill="url(#paint0_linear_2011_306)" />
		<path d="M290.51 0.849976H275.63C274.53 0.849976 273.63 1.74998 273.63 2.84998V33.81L255.47 1.85998C255.11 1.22998 254.45 0.849976 253.73 0.849976H238.81C237.71 0.849976 236.81 1.74998 236.81 2.84998V91.39C236.81 92.49 237.71 93.39 238.81 93.39H253.73C254.83 93.39 255.73 92.49 255.73 91.39V60.42L273.93 92.38C274.29 93 274.95 93.39 275.67 93.39H290.51C291.61 93.39 292.51 92.49 292.51 91.39V2.84998C292.51 1.74998 291.61 0.849976 290.51 0.849976ZM238.81 2.84998H253.73L275.63 41.37V2.84998H290.51V64.76H275.67L253.73 26.24V64.76H238.81V2.84998ZM290.51 84.73H275.67L255.73 49.72V47.1L273.93 79.06C274.29 79.68 274.95 80.07 275.67 80.07H290.51V84.73ZM290.51 78.07H275.67L255.73 43.06V40.44L273.93 72.4C274.29 73.02 274.95 73.41 275.67 73.41H290.51V78.07ZM290.51 71.41H275.67L255.73 36.4V33.78L273.93 65.74C274.29 66.36 274.95 66.75 275.67 66.75H290.51V71.41ZM253.73 84.72H238.81V80.06H253.73V84.72ZM253.73 78.06H238.81V73.4H253.73V78.06ZM253.73 71.4H238.81V66.74H253.73V71.4ZM253.73 91.37H238.81V86.71H253.73V91.37ZM290.51 91.37H275.67L255.73 56.36V53.74L273.93 85.7C274.29 86.32 274.95 86.71 275.67 86.71H290.51V91.37Z" fill="url(#paint1_linear_2011_306)" />
		<path d="M187.379 41.6699H189.429H189.469H191.529H192.399H194.469H194.489H196.559H198.629L191.949 20.2L191.759 20.82L191.139 22.82L185.319 41.6699H187.379Z" fill="url(#paint2_linear_2011_306)" />
		<path d="M223.49 72.56C223.86 72.02 223.95 71.34 223.72 70.72L222.24 66.71C222.74 66.61 223.19 66.33 223.49 65.9C223.86 65.36 223.95 64.68 223.72 64.06L200.85 2.15998C200.56 1.36998 199.81 0.849976 198.97 0.849976H184.94C184.1 0.849976 183.35 1.36998 183.06 2.15998L160.35 64.07C160.13 64.68 160.21 65.37 160.59 65.9C160.89 66.32 161.33 66.6 161.83 66.71L160.36 70.73C160.14 71.34 160.22 72.03 160.6 72.56C160.9 72.98 161.34 73.26 161.84 73.37L160.37 77.39C160.15 78 160.23 78.69 160.61 79.22C160.91 79.64 161.35 79.92 161.85 80.03L160.38 84.05C160.16 84.66 160.24 85.35 160.62 85.88C160.92 86.3 161.36 86.58 161.86 86.69L160.39 90.71C160.17 91.32 160.25 92.01 160.63 92.54C161 93.08 161.62 93.39 162.27 93.39H178.22C179.1 93.39 179.87 92.82 180.13 91.98L183.27 81.83H200.78L203.95 91.99C204.21 92.82 204.98 93.39 205.86 93.39H221.89C222.54 93.39 223.16 93.07 223.53 92.53C223.9 91.99 223.99 91.31 223.76 90.69L222.28 86.68C222.78 86.58 223.23 86.3 223.53 85.87C223.9 85.33 223.99 84.65 223.76 84.03L222.28 80.02C222.78 79.92 223.23 79.64 223.53 79.21C223.9 78.67 223.99 77.99 223.76 77.37L222.28 73.36C222.78 73.26 223.23 72.98 223.53 72.55L223.49 72.56ZM162.24 64.76L184.94 2.84998H198.97L221.85 64.76H205.82L202.21 53.2H181.76L178.19 64.76H162.24ZM181.79 59.85L183.23 55.19H200.74L202.2 59.85H181.8H181.79ZM200.73 61.85L202.18 66.51H181.78L183.22 61.85H200.73ZM183.22 68.51H200.73L202.19 73.17H181.79L183.23 68.51H183.22ZM162.23 71.42L163.94 66.76H178.18C178.98 66.76 179.68 66.27 179.99 65.55L178.18 71.42H162.23ZM162.23 78.08L163.94 73.42H178.18C178.98 73.42 179.68 72.93 179.99 72.21L178.18 78.08H162.23ZM162.23 84.74L163.94 80.08H178.18C178.98 80.08 179.68 79.59 179.99 78.87L178.18 84.74H162.23ZM178.18 91.4H162.23L163.94 86.74H178.18C178.98 86.74 179.68 86.25 179.99 85.53L178.18 91.4ZM181.79 79.84L183.23 75.18H200.74L202.2 79.84H181.8H181.79ZM205.82 91.4L203.95 85.42C204.24 86.21 204.97 86.74 205.82 86.74H220.13L221.85 91.4H205.82ZM219.39 84.74H205.82L203.95 78.76C204.24 79.55 204.97 80.08 205.82 80.08H220.13L221.85 84.74H219.39ZM219.39 78.08H205.82L203.95 72.1C204.24 72.89 204.97 73.42 205.82 73.42H220.13L221.85 78.08H219.39ZM219.39 71.42H205.82L203.95 65.44C204.24 66.23 204.97 66.76 205.82 66.76H220.13L221.85 71.42H219.39Z" fill="url(#paint3_linear_2011_306)" />
		<path d="M90.9495 88.45C80.0195 88.45 69.7395 84.19 62.0095 76.46C54.2795 68.73 50.0195 58.45 50.0195 47.52C50.0195 36.59 54.2795 26.31 62.0095 18.58C69.7395 10.85 80.0195 6.58997 90.9495 6.58997C101.88 6.58997 112.16 10.85 119.89 18.58C127.62 26.31 131.88 36.59 131.88 47.52C131.88 58.45 127.62 68.73 119.89 76.46C112.16 84.19 101.88 88.45 90.9495 88.45ZM90.9495 8.20997C80.4495 8.20997 70.5795 12.3 63.1495 19.73C55.7195 27.16 51.6295 37.03 51.6295 47.53C51.6295 58.03 55.7195 67.9 63.1495 75.33C70.5795 82.76 80.4495 86.85 90.9495 86.85C101.45 86.85 111.32 82.76 118.75 75.33C126.18 67.9 130.27 58.03 130.27 47.53C130.27 37.03 126.18 27.16 118.75 19.73C111.32 12.3 101.45 8.20997 90.9495 8.20997Z" fill="url(#paint4_linear_2011_306)" />
		<path d="M99.4298 36.0699L89.5098 30.3399L81.3898 25.6499C80.5898 25.1899 79.5898 25.7699 79.5898 26.6899V68.3499C79.5898 69.2799 80.5898 69.8499 81.3898 69.3899L89.5098 64.6999L99.4298 58.9699L108.56 53.6999C109.05 53.4199 109.35 52.8899 109.35 52.3299V42.6999C109.35 42.1299 109.05 41.6099 108.56 41.3299L99.4298 36.0599V36.0699ZM89.5098 53.2599V41.7999L99.4298 47.5299L89.5098 53.2599Z" fill="url(#paint5_linear_2011_306)" />
		<path d="M90.95 92.88C83.94 92.88 76.96 91.23 70.67 88.09V92.07C70.67 92.51 70.31 92.87 69.87 92.87H2.26C1.82 92.87 1.46 92.51 1.46 92.07V68.51C1.46 68.3 1.54 68.11 1.68 67.96L23.44 45.08H0.8C0.36 45.08 0 44.72 0 44.28V35.05C0 28.93 1.56 23.18 4.63 17.98C7.72 12.74 12.06 8.59 17.52 5.66C22.82 2.81 28.75 1.37 35.14 1.37C45.17 1.37 53.28 3.95 59.25 9.05C60.4 10.04 61.47 11.12 62.43 12.27C70.5 5.76 80.59 2.18 90.95 2.18C115.96 2.18 136.31 22.53 136.31 47.54C136.31 72.55 115.96 92.9 90.95 92.9V92.88ZM69.87 85.97C70 85.97 70.13 86 70.25 86.07C76.6 89.48 83.76 91.28 90.95 91.28C115.07 91.28 134.7 71.65 134.7 47.53C134.7 23.41 115.07 3.77999 90.95 3.77999C80.7 3.77999 70.72 7.42 62.83 14.02C62.66 14.16 62.45 14.23 62.23 14.2C62.01 14.18 61.82 14.07 61.68 13.9C60.66 12.59 59.49 11.37 58.2 10.27C52.54 5.43 44.78 2.98 35.14 2.98C29.01 2.98 23.34 4.36 18.28 7.08C13.09 9.87 8.96 13.82 6.02 18.8C3.09 23.76 1.61 29.23 1.61 35.06V43.49H25.31C25.63 43.49 25.92 43.68 26.05 43.98C26.18 44.28 26.12 44.62 25.89 44.85L3.06 68.84V91.28H69.06V86.78C69.06 86.5 69.21 86.24 69.45 86.09C69.58 86.01 69.72 85.98 69.86 85.98L69.87 85.97Z" fill="url(#paint6_linear_2011_306)" />
		<path d="M65.4304 88.4499H6.69043C6.25043 88.4499 5.89043 88.0899 5.89043 87.6499V70.2999C5.89043 70.0899 5.97043 69.8999 6.11043 69.7499L29.9904 44.6399C36.4004 37.3199 36.9004 34.0899 36.9004 33.2699C36.9004 32.2699 36.7604 30.9299 36.1104 30.2399C35.6904 29.7999 35.2504 29.5799 34.7604 29.5799C34.2404 29.5799 33.8304 29.6399 33.2304 30.4599C32.4004 31.5999 31.9904 33.0999 31.9904 35.0599V39.8499C31.9904 40.2899 31.6304 40.6499 31.1904 40.6499H5.24043C4.80043 40.6499 4.44043 40.2899 4.44043 39.8499V35.0599C4.44043 29.7399 5.79043 24.7599 8.46043 20.2399C11.1404 15.6999 14.9004 12.1099 19.6304 9.56994C24.2704 7.06994 29.5004 5.80994 35.1504 5.80994C44.1004 5.80994 51.2404 8.03994 56.3704 12.4299C61.7604 17.0399 64.5004 23.5699 64.5004 31.8299C64.5004 35.2899 63.8504 38.7099 62.5604 41.9799C61.3504 45.0699 59.4804 48.2999 57.0004 51.5799C54.6704 54.6799 51.1004 58.6099 46.1104 63.6099L45.1704 64.6899H65.4304C65.8704 64.6899 66.2304 65.0499 66.2304 65.4899V87.6599C66.2304 88.0999 65.8704 88.4599 65.4304 88.4599V88.4499ZM7.49043 86.8399H64.6204V66.2799H43.4104C43.1004 66.2799 42.8104 66.0999 42.6804 65.8099C42.5504 65.5199 42.6004 65.1899 42.8004 64.9499L44.9104 62.5099C44.9104 62.5099 44.9404 62.4799 44.9504 62.4699C49.9004 57.5099 53.4204 53.6299 55.7204 50.5899C58.1004 47.4299 59.9004 44.3299 61.0604 41.3699C62.2704 38.2899 62.8804 35.0699 62.8804 31.8099C62.8804 24.0399 60.3304 17.9299 55.3104 13.6299C50.4704 9.49994 43.6804 7.39994 35.1304 7.39994C29.7404 7.39994 24.7804 8.59994 20.3704 10.9699C15.9004 13.3699 12.3504 16.7599 9.83043 21.0399C7.31043 25.3099 6.03043 30.0199 6.03043 35.0399V39.0299H30.3604V35.0399C30.3604 32.7299 30.8704 30.9099 31.9104 29.4899C32.7104 28.3999 33.5304 27.9499 34.7404 27.9499C35.6704 27.9499 36.5404 28.3499 37.2604 29.1199C38.0804 29.9899 38.4904 31.3799 38.4904 33.2499C38.4904 34.7799 37.5404 38.4199 31.1704 45.6899C31.1704 45.6899 31.1604 45.7099 31.1504 45.7099L7.48043 70.5999V86.8299L7.49043 86.8399Z" fill="url(#paint7_linear_2011_306)" />
	</g>
	<defs>
		<linearGradient id="paint0_linear_2011_306" x1="304.44" y1="47.12" x2="357.25" y2="47.12" gradientUnits="userSpaceOnUse">
			<stop stop-color="#FF0000">
				<animate attributeName="offset" values="-1.97;.03" dur="3s" repeatCount="indefinite" />
			</stop>
			<stop stop-color="#0505a9">
				<animate attributeName="offset" values="-1.4;.6" dur="3s" repeatCount="indefinite" />
			</stop>
			<stop stop-color="#0538bf">
				<animate attributeName="offset" values="-1.31;.69" dur="3s" repeatCount="indefinite" />
			</stop>
			<stop stop-color="#0585e1">
				<animate attributeName="offset" values="-1.18;.82" dur="3s" repeatCount="indefinite" />
			</stop>
			<stop stop-color="#05b5f6">
				<animate attributeName="offset" values="-1.08;.92" dur="3s" repeatCount="indefinite" />
			</stop>
			<stop stop-color="#05c8ff">
				<animate attributeName="offset" values="-1.03;.97" dur="3s" repeatCount="indefinite" />
			</stop>
			<stop stop-color="#05c8ff">
				<animate attributeName="offset" values="-.97;1.03" dur="3s" repeatCount="indefinite" />
			</stop>
			<stop stop-color="#05b5f6">
				<animate attributeName="offset" values="-.92;1.08" dur="3s" repeatCount="indefinite" />
			</stop>
			<stop stop-color="#0585e1">
				<animate attributeName="offset" values="-.82;1.18" dur="3s" repeatCount="indefinite" />
			</stop>
			<stop stop-color="#0538bf">
				<animate attributeName="offset" values="-.69;0.31" dur="3s" repeatCount="indefinite" />
			</stop>
			<stop stop-color="#0505a9">
				<animate attributeName="offset" values="-.6;1.4" dur="3s" repeatCount="indefinite" />
			</stop>
			<stop stop-color="#FF0000">
				<animate attributeName="offset" values="-.03;1.97" dur="3s" repeatCount="indefinite" />
			</stop>
			<stop stop-color="#FF0000">
				<animate attributeName="offset" values=".03;2.03" dur="3s" repeatCount="indefinite" />
			</stop>
			<stop stop-color="#0505a9">
				<animate attributeName="offset" values=".6;2.6" dur="3s" repeatCount="indefinite" />
			</stop>
			<stop stop-color="#0538bf">
				<animate attributeName="offset" values=".69;2.69" dur="3s" repeatCount="indefinite" />
			</stop>
			<stop stop-color="#0585e1">
				<animate attributeName="offset" values=".82;2.82" dur="3s" repeatCount="indefinite" />
			</stop>
			<stop stop-color="#05b5f6">
				<animate attributeName="offset" values=".92;2.92" dur="3s" repeatCount="indefinite" />
			</stop>
			<stop stop-color="#05c8ff">
				<animate attributeName="offset" values=".97;2.97" dur="3s" repeatCount="indefinite" />
			</stop>
		</linearGradient>
		<linearGradient id="paint1_linear_2011_306" x1="236.8" y1="47.12" x2="292.51" y2="47.12" gradientUnits="userSpaceOnUse">
			<stop stop-color="#FF0000">
				<animate attributeName="offset" values="-1.97;.03" dur="3s" repeatCount="indefinite" />
			</stop>
			<stop stop-color="#0505a9">
				<animate attributeName="offset" values="-1.4;.6" dur="3s" repeatCount="indefinite" />
			</stop>
			<stop stop-color="#0538bf">
				<animate attributeName="offset" values="-1.31;.69" dur="3s" repeatCount="indefinite" />
			</stop>
			<stop stop-color="#0585e1">
				<animate attributeName="offset" values="-1.18;.82" dur="3s" repeatCount="indefinite" />
			</stop>
			<stop stop-color="#05b5f6">
				<animate attributeName="offset" values="-1.08;.92" dur="3s" repeatCount="indefinite" />
			</stop>
			<stop stop-color="#05c8ff">
				<animate attributeName="offset" values="-1.03;.97" dur="3s" repeatCount="indefinite" />
			</stop>
			<stop stop-color="#05c8ff">
				<animate attributeName="offset" values="-.97;1.03" dur="3s" repeatCount="indefinite" />
			</stop>
			<stop stop-color="#05b5f6">
				<animate attributeName="offset" values="-.92;1.08" dur="3s" repeatCount="indefinite" />
			</stop>
			<stop stop-color="#0585e1">
				<animate attributeName="offset" values="-.82;1.18" dur="3s" repeatCount="indefinite" />
			</stop>
			<stop stop-color="#0538bf">
				<animate attributeName="offset" values="-.69;0.31" dur="3s" repeatCount="indefinite" />
			</stop>
			<stop stop-color="#0505a9">
				<animate attributeName="offset" values="-.6;1.4" dur="3s" repeatCount="indefinite" />
			</stop>
			<stop stop-color="#FF0000">
				<animate attributeName="offset" values="-.03;1.97" dur="3s" repeatCount="indefinite" />
			</stop>
			<stop stop-color="#FF0000">
				<animate attributeName="offset" values=".03;2.03" dur="3s" repeatCount="indefinite" />
			</stop>
			<stop stop-color="#0505a9">
				<animate attributeName="offset" values=".6;2.6" dur="3s" repeatCount="indefinite" />
			</stop>
			<stop stop-color="#0538bf">
				<animate attributeName="offset" values=".69;2.69" dur="3s" repeatCount="indefinite" />
			</stop>
			<stop stop-color="#0585e1">
				<animate attributeName="offset" values=".82;2.82" dur="3s" repeatCount="indefinite" />
			</stop>
			<stop stop-color="#05b5f6">
				<animate attributeName="offset" values=".92;2.92" dur="3s" repeatCount="indefinite" />
			</stop>
			<stop stop-color="#05c8ff">
				<animate attributeName="offset" values=".97;2.97" dur="3s" repeatCount="indefinite" />
			</stop>
		</linearGradient>
		<linearGradient id="paint2_linear_2011_306" x1="161.519" y1="30.94" x2="224.459" y2="30.94" gradientUnits="userSpaceOnUse">
			<stop stop-color="#FF0000">
				<animate attributeName="offset" values="-1.97;.03" dur="3s" repeatCount="indefinite" />
			</stop>
			<stop stop-color="#0505a9">
				<animate attributeName="offset" values="-1.4;.6" dur="3s" repeatCount="indefinite" />
			</stop>
			<stop stop-color="#0538bf">
				<animate attributeName="offset" values="-1.31;.69" dur="3s" repeatCount="indefinite" />
			</stop>
			<stop stop-color="#0585e1">
				<animate attributeName="offset" values="-1.18;.82" dur="3s" repeatCount="indefinite" />
			</stop>
			<stop stop-color="#05b5f6">
				<animate attributeName="offset" values="-1.08;.92" dur="3s" repeatCount="indefinite" />
			</stop>
			<stop stop-color="#05c8ff">
				<animate attributeName="offset" values="-1.03;.97" dur="3s" repeatCount="indefinite" />
			</stop>
			<stop stop-color="#05c8ff">
				<animate attributeName="offset" values="-.97;1.03" dur="3s" repeatCount="indefinite" />
			</stop>
			<stop stop-color="#05b5f6">
				<animate attributeName="offset" values="-.92;1.08" dur="3s" repeatCount="indefinite" />
			</stop>
			<stop stop-color="#0585e1">
				<animate attributeName="offset" values="-.82;1.18" dur="3s" repeatCount="indefinite" />
			</stop>
			<stop stop-color="#0538bf">
				<animate attributeName="offset" values="-.69;0.31" dur="3s" repeatCount="indefinite" />
			</stop>
			<stop stop-color="#0505a9">
				<animate attributeName="offset" values="-.6;1.4" dur="3s" repeatCount="indefinite" />
			</stop>
			<stop stop-color="#FF0000">
				<animate attributeName="offset" values="-.03;1.97" dur="3s" repeatCount="indefinite" />
			</stop>
			<stop stop-color="#FF0000">
				<animate attributeName="offset" values=".03;2.03" dur="3s" repeatCount="indefinite" />
			</stop>
			<stop stop-color="#0505a9">
				<animate attributeName="offset" values=".6;2.6" dur="3s" repeatCount="indefinite" />
			</stop>
			<stop stop-color="#0538bf">
				<animate attributeName="offset" values=".69;2.69" dur="3s" repeatCount="indefinite" />
			</stop>
			<stop stop-color="#0585e1">
				<animate attributeName="offset" values=".82;2.82" dur="3s" repeatCount="indefinite" />
			</stop>
			<stop stop-color="#05b5f6">
				<animate attributeName="offset" values=".92;2.92" dur="3s" repeatCount="indefinite" />
			</stop>
			<stop stop-color="#05c8ff">
				<animate attributeName="offset" values=".97;2.97" dur="3s" repeatCount="indefinite" />
			</stop>
		</linearGradient>
		<linearGradient id="paint3_linear_2011_306" x1="160.23" y1="47.12" x2="223.85" y2="47.12" gradientUnits="userSpaceOnUse">
			<stop stop-color="#FF0000">
				<animate attributeName="offset" values="-1.97;.03" dur="3s" repeatCount="indefinite" />
			</stop>
			<stop stop-color="#0505a9">
				<animate attributeName="offset" values="-1.4;.6" dur="3s" repeatCount="indefinite" />
			</stop>
			<stop stop-color="#0538bf">
				<animate attributeName="offset" values="-1.31;.69" dur="3s" repeatCount="indefinite" />
			</stop>
			<stop stop-color="#0585e1">
				<animate attributeName="offset" values="-1.18;.82" dur="3s" repeatCount="indefinite" />
			</stop>
			<stop stop-color="#05b5f6">
				<animate attributeName="offset" values="-1.08;.92" dur="3s" repeatCount="indefinite" />
			</stop>
			<stop stop-color="#05c8ff">
				<animate attributeName="offset" values="-1.03;.97" dur="3s" repeatCount="indefinite" />
			</stop>
			<stop stop-color="#05c8ff">
				<animate attributeName="offset" values="-.97;1.03" dur="3s" repeatCount="indefinite" />
			</stop>
			<stop stop-color="#05b5f6">
				<animate attributeName="offset" values="-.92;1.08" dur="3s" repeatCount="indefinite" />
			</stop>
			<stop stop-color="#0585e1">
				<animate attributeName="offset" values="-.82;1.18" dur="3s" repeatCount="indefinite" />
			</stop>
			<stop stop-color="#0538bf">
				<animate attributeName="offset" values="-.69;0.31" dur="3s" repeatCount="indefinite" />
			</stop>
			<stop stop-color="#0505a9">
				<animate attributeName="offset" values="-.6;1.4" dur="3s" repeatCount="indefinite" />
			</stop>
			<stop stop-color="#FF0000">
				<animate attributeName="offset" values="-.03;1.97" dur="3s" repeatCount="indefinite" />
			</stop>
			<stop stop-color="#FF0000">
				<animate attributeName="offset" values=".03;2.03" dur="3s" repeatCount="indefinite" />
			</stop>
			<stop stop-color="#0505a9">
				<animate attributeName="offset" values=".6;2.6" dur="3s" repeatCount="indefinite" />
			</stop>
			<stop stop-color="#0538bf">
				<animate attributeName="offset" values=".69;2.69" dur="3s" repeatCount="indefinite" />
			</stop>
			<stop stop-color="#0585e1">
				<animate attributeName="offset" values=".82;2.82" dur="3s" repeatCount="indefinite" />
			</stop>
			<stop stop-color="#05b5f6">
				<animate attributeName="offset" values=".92;2.92" dur="3s" repeatCount="indefinite" />
			</stop>
			<stop stop-color="#05c8ff">
				<animate attributeName="offset" values=".97;2.97" dur="3s" repeatCount="indefinite" />
			</stop>
		</linearGradient>
		<linearGradient id="paint4_linear_2011_306" x1="50.0195" y1="47.53" x2="131.87" y2="47.53" gradientUnits="userSpaceOnUse">
			<stop stop-color="#FF0000">
				<animate attributeName="offset" values="-1.97;.03" dur="3s" repeatCount="indefinite" />
			</stop>
			<stop stop-color="#0505a9">
				<animate attributeName="offset" values="-1.4;.6" dur="3s" repeatCount="indefinite" />
			</stop>
			<stop stop-color="#0538bf">
				<animate attributeName="offset" values="-1.31;.69" dur="3s" repeatCount="indefinite" />
			</stop>
			<stop stop-color="#0585e1">
				<animate attributeName="offset" values="-1.18;.82" dur="3s" repeatCount="indefinite" />
			</stop>
			<stop stop-color="#05b5f6">
				<animate attributeName="offset" values="-1.08;.92" dur="3s" repeatCount="indefinite" />
			</stop>
			<stop stop-color="#05c8ff">
				<animate attributeName="offset" values="-1.03;.97" dur="3s" repeatCount="indefinite" />
			</stop>
			<stop stop-color="#05c8ff">
				<animate attributeName="offset" values="-.97;1.03" dur="3s" repeatCount="indefinite" />
			</stop>
			<stop stop-color="#05b5f6">
				<animate attributeName="offset" values="-.92;1.08" dur="3s" repeatCount="indefinite" />
			</stop>
			<stop stop-color="#0585e1">
				<animate attributeName="offset" values="-.82;1.18" dur="3s" repeatCount="indefinite" />
			</stop>
			<stop stop-color="#0538bf">
				<animate attributeName="offset" values="-.69;0.31" dur="3s" repeatCount="indefinite" />
			</stop>
			<stop stop-color="#0505a9">
				<animate attributeName="offset" values="-.6;1.4" dur="3s" repeatCount="indefinite" />
			</stop>
			<stop stop-color="#FF0000">
				<animate attributeName="offset" values="-.03;1.97" dur="3s" repeatCount="indefinite" />
			</stop>
			<stop stop-color="#FF0000">
				<animate attributeName="offset" values=".03;2.03" dur="3s" repeatCount="indefinite" />
			</stop>
			<stop stop-color="#0505a9">
				<animate attributeName="offset" values=".6;2.6" dur="3s" repeatCount="indefinite" />
			</stop>
			<stop stop-color="#0538bf">
				<animate attributeName="offset" values=".69;2.69" dur="3s" repeatCount="indefinite" />
			</stop>
			<stop stop-color="#0585e1">
				<animate attributeName="offset" values=".82;2.82" dur="3s" repeatCount="indefinite" />
			</stop>
			<stop stop-color="#05b5f6">
				<animate attributeName="offset" values=".92;2.92" dur="3s" repeatCount="indefinite" />
			</stop>
			<stop stop-color="#05c8ff">
				<animate attributeName="offset" values=".97;2.97" dur="3s" repeatCount="indefinite" />
			</stop>
		</linearGradient>
		<linearGradient id="paint5_linear_2011_306" x1="94.2998" y1="62.1099" x2="94.5198" y2="32.3399" gradientUnits="userSpaceOnUse">
			<stop offset="0.03" stop-color="#FF0000" />
			<stop offset="0.6" stop-color="#0505A9" />
			<stop offset="0.69" stop-color="#0538BF" />
			<stop offset="0.82" stop-color="#0585E1" />
			<stop offset="0.92" stop-color="#05B5F6" />
			<stop offset="0.97" stop-color="#05C8FF" />
		</linearGradient>
		<linearGradient id="paint6_linear_2011_306" x1="0" y1="47.12" x2="136.31" y2="47.12" gradientUnits="userSpaceOnUse">
			<stop stop-color="#FF0000">
				<animate attributeName="offset" values="-1.97;.03" dur="3s" repeatCount="indefinite" />
			</stop>
			<stop stop-color="#0505a9">
				<animate attributeName="offset" values="-1.4;.6" dur="3s" repeatCount="indefinite" />
			</stop>
			<stop stop-color="#0538bf">
				<animate attributeName="offset" values="-1.31;.69" dur="3s" repeatCount="indefinite" />
			</stop>
			<stop stop-color="#0585e1">
				<animate attributeName="offset" values="-1.18;.82" dur="3s" repeatCount="indefinite" />
			</stop>
			<stop stop-color="#05b5f6">
				<animate attributeName="offset" values="-1.08;.92" dur="3s" repeatCount="indefinite" />
			</stop>
			<stop stop-color="#05c8ff">
				<animate attributeName="offset" values="-1.03;.97" dur="3s" repeatCount="indefinite" />
			</stop>
			<stop stop-color="#05c8ff">
				<animate attributeName="offset" values="-.97;1.03" dur="3s" repeatCount="indefinite" />
			</stop>
			<stop stop-color="#05b5f6">
				<animate attributeName="offset" values="-.92;1.08" dur="3s" repeatCount="indefinite" />
			</stop>
			<stop stop-color="#0585e1">
				<animate attributeName="offset" values="-.82;1.18" dur="3s" repeatCount="indefinite" />
			</stop>
			<stop stop-color="#0538bf">
				<animate attributeName="offset" values="-.69;0.31" dur="3s" repeatCount="indefinite" />
			</stop>
			<stop stop-color="#0505a9">
				<animate attributeName="offset" values="-.6;1.4" dur="3s" repeatCount="indefinite" />
			</stop>
			<stop stop-color="#FF0000">
				<animate attributeName="offset" values="-.03;1.97" dur="3s" repeatCount="indefinite" />
			</stop>
			<stop stop-color="#FF0000">
				<animate attributeName="offset" values=".03;2.03" dur="3s" repeatCount="indefinite" />
			</stop>
			<stop stop-color="#0505a9">
				<animate attributeName="offset" values=".6;2.6" dur="3s" repeatCount="indefinite" />
			</stop>
			<stop stop-color="#0538bf">
				<animate attributeName="offset" values=".69;2.69" dur="3s" repeatCount="indefinite" />
			</stop>
			<stop stop-color="#0585e1">
				<animate attributeName="offset" values=".82;2.82" dur="3s" repeatCount="indefinite" />
			</stop>
			<stop stop-color="#05b5f6">
				<animate attributeName="offset" values=".92;2.92" dur="3s" repeatCount="indefinite" />
			</stop>
			<stop stop-color="#05c8ff">
				<animate attributeName="offset" values=".97;2.97" dur="3s" repeatCount="indefinite" />
			</stop>
		</linearGradient>
		<linearGradient id="paint7_linear_2011_306" x1="4.44043" y1="47.1199" x2="66.2404" y2="47.1199" gradientUnits="userSpaceOnUse">
			<stop stop-color="#FF0000">
				<animate attributeName="offset" values="-1.97;.03" dur="3s" repeatCount="indefinite" />
			</stop>
			<stop stop-color="#0505a9">
				<animate attributeName="offset" values="-1.4;.6" dur="3s" repeatCount="indefinite" />
			</stop>
			<stop stop-color="#0538bf">
				<animate attributeName="offset" values="-1.31;.69" dur="3s" repeatCount="indefinite" />
			</stop>
			<stop stop-color="#0585e1">
				<animate attributeName="offset" values="-1.18;.82" dur="3s" repeatCount="indefinite" />
			</stop>
			<stop stop-color="#05b5f6">
				<animate attributeName="offset" values="-1.08;.92" dur="3s" repeatCount="indefinite" />
			</stop>
			<stop stop-color="#05c8ff">
				<animate attributeName="offset" values="-1.03;.97" dur="3s" repeatCount="indefinite" />
			</stop>
			<stop stop-color="#05c8ff">
				<animate attributeName="offset" values="-.97;1.03" dur="3s" repeatCount="indefinite" />
			</stop>
			<stop stop-color="#05b5f6">
				<animate attributeName="offset" values="-.92;1.08" dur="3s" repeatCount="indefinite" />
			</stop>
			<stop stop-color="#0585e1">
				<animate attributeName="offset" values="-.82;1.18" dur="3s" repeatCount="indefinite" />
			</stop>
			<stop stop-color="#0538bf">
				<animate attributeName="offset" values="-.69;0.31" dur="3s" repeatCount="indefinite" />
			</stop>
			<stop stop-color="#0505a9">
				<animate attributeName="offset" values="-.6;1.4" dur="3s" repeatCount="indefinite" />
			</stop>
			<stop stop-color="#FF0000">
				<animate attributeName="offset" values="-.03;1.97" dur="3s" repeatCount="indefinite" />
			</stop>
			<stop stop-color="#FF0000">
				<animate attributeName="offset" values=".03;2.03" dur="3s" repeatCount="indefinite" />
			</stop>
			<stop stop-color="#0505a9">
				<animate attributeName="offset" values=".6;2.6" dur="3s" repeatCount="indefinite" />
			</stop>
			<stop stop-color="#0538bf">
				<animate attributeName="offset" values=".69;2.69" dur="3s" repeatCount="indefinite" />
			</stop>
			<stop stop-color="#0585e1">
				<animate attributeName="offset" values=".82;2.82" dur="3s" repeatCount="indefinite" />
			</stop>
			<stop stop-color="#05b5f6">
				<animate attributeName="offset" values=".92;2.92" dur="3s" repeatCount="indefinite" />
			</stop>
			<stop stop-color="#05c8ff">
				<animate attributeName="offset" values=".97;2.97" dur="3s" repeatCount="indefinite" />
			</stop>
		</linearGradient>
		<clipPath id="clip0_2011_306">
			<rect width="357.25" height="94.24" fill="white" />
		</clipPath>
	</defs>
</svg>