<svg width="428" height="111" viewBox="0 0 428 111" fill="none" xmlns="http://www.w3.org/2000/svg">
	<g clip-path="url(#clip0_2011_289)">
		<path d="M427.82 43.69C427.82 41.88 427.6 40.1401 427.18 38.4901C427.57 38.1301 427.82 37.61 427.82 37.03C427.82 32.88 426.72 29.12 424.55 25.86C422.39 22.62 419.34 20.1 415.48 18.36C411.7 16.66 407.4 15.8 402.69 15.8C397.98 15.8 393.5 16.58 389.62 18.13C385.64 19.72 382.5 22 380.29 24.9C378.03 27.87 376.88 31.33 376.88 35.19C376.88 36.34 376.99 37.4401 377.19 38.5201C376.99 39.59 376.88 40.7 376.88 41.85C376.88 43 376.99 44.1 377.19 45.18C376.99 46.25 376.88 47.36 376.88 48.51C376.88 49.66 376.98 50.78 377.18 51.8601C376.98 52.93 376.88 54.03 376.88 55.17C376.88 56.31 376.99 57.42 377.19 58.5H377.01C375.91 58.5 375.01 59.4001 375.01 60.5C375.01 62.3301 375.21 64.07 375.6 65.74C375.24 66.1 375.01 66.6001 375.01 67.1501C375.01 68.9801 375.21 70.7201 375.6 72.39C375.24 72.75 375.01 73.2501 375.01 73.8001C375.01 75.6301 375.21 77.3701 375.6 79.0401C375.24 79.4001 375.01 79.9 375.01 80.45C375.01 82.28 375.21 84.0201 375.6 85.69C375.24 86.05 375.01 86.55 375.01 87.1C375.01 91.56 376.16 95.57 378.42 99.02C380.68 102.47 384.06 105.2 388.47 107.15C392.77 109.06 397.63 110.02 402.91 110.02C410.44 110.02 416.49 108.32 420.91 104.98C425.5 101.51 427.83 96.68 427.83 90.63C427.83 89.47 427.73 88.35 427.55 87.26C427.72 86.2001 427.83 85.11 427.83 83.97C427.83 82.83 427.73 81.69 427.55 80.6C427.72 79.54 427.83 78.46 427.83 77.31C427.83 76.16 427.73 75.0301 427.55 73.9401C427.72 72.8801 427.83 71.8001 427.83 70.6501C427.83 69.5 427.74 68.3501 427.56 67.2601C427.72 66.2101 427.83 65.1301 427.83 63.9901C427.83 62.0601 427.58 60.23 427.09 58.5C427.54 58.1301 427.83 57.58 427.83 56.96C427.83 55.15 427.61 53.41 427.19 51.76C427.58 51.4 427.83 50.8801 427.83 50.3C427.83 48.49 427.61 46.75 427.19 45.1C427.58 44.74 427.83 44.22 427.83 43.64L427.82 43.69ZM425.76 42.1501C425.8 42.6601 425.82 43.17 425.82 43.69H411.24C411.14 43.65 411.04 43.6101 410.94 43.57C410.91 41.1101 410.15 39.1901 408.63 37.8301C407.09 36.4401 405 35.75 402.36 35.75C399.96 35.75 398.04 36.25 396.55 37.21C395.74 36.3 395.73 35.61 395.73 35.35C395.73 34.17 396.22 33.25 397.26 32.4501C398.44 31.5501 400.16 31.1 402.36 31.1C404.56 31.1 406.12 31.61 407.29 32.67C408.4 33.67 408.94 35.1 408.94 37.05C408.94 38.15 409.84 39.05 410.94 39.05H425.26C425.46 39.87 425.61 40.7101 425.7 41.5801C425.72 41.7701 425.74 41.97 425.76 42.16V42.1501ZM425.76 48.8101C425.8 49.32 425.82 49.83 425.82 50.35H422.11C420.62 48.89 418.85 47.5501 416.78 46.3601C416.39 46.1401 415.99 45.92 415.57 45.7001H425.25C425.45 46.5201 425.6 47.36 425.69 48.23C425.71 48.43 425.73 48.62 425.75 48.82L425.76 48.8101ZM408.87 42.78C407.9 42.43 406.9 42.08 405.85 41.75C402.36 40.63 399.79 39.5501 398.18 38.5401C399.27 38.0201 400.67 37.75 402.35 37.75C404.49 37.75 406.11 38.26 407.28 39.32C408.21 40.15 408.71 41.31 408.87 42.78ZM408.6 65.7C408.6 65.7 408.59 65.69 408.58 65.68C407.03 64.46 404.32 63.2001 400.44 61.89C397.83 61.01 395.55 60.16 393.58 59.32C393.22 58.83 392.64 58.5 391.98 58.5H391.75C391.47 58.37 391.18 58.23 390.92 58.1C384.24 54.82 380.36 50.5201 379.24 45.2001C379.14 44.7101 379.06 44.2 379 43.69C379 43.65 379 43.6101 378.99 43.57C381.1 47.41 384.78 50.65 390.04 53.23C392.57 54.48 395.86 55.7901 399.81 57.1101C404.35 58.64 406.42 59.83 407.35 60.57C408.41 61.41 408.91 62.53 408.91 64.1C408.91 64.7 408.81 65.22 408.61 65.67L408.6 65.7ZM407.25 67.18C406.19 67.85 404.75 68.2 402.9 68.2C399.58 68.2 397.22 67.5801 395.9 66.3701C394.81 65.3701 394.19 63.79 394.02 61.67C395.75 62.37 397.67 63.0801 399.8 63.7901C404.21 65.2701 406.28 66.44 407.25 67.18ZM382.52 58.51C381.65 57.46 380.92 56.3601 380.36 55.2001C380.24 54.9401 380.13 54.68 380.02 54.41C379.94 54.2201 379.87 54.04 379.8 53.85C379.7 53.57 379.61 53.2901 379.53 53C379.42 52.6301 379.31 52.2701 379.23 51.89V51.87C379.12 51.33 379.03 50.7901 378.97 50.23C380.71 53.42 383.55 56.18 387.47 58.51H382.52ZM379.44 57.67C379.62 57.95 379.81 58.23 380.01 58.51H379.25C379.31 58.23 379.37 57.95 379.44 57.67ZM378.42 72.43C380.68 75.8801 384.06 78.61 388.47 80.56C392.77 82.47 397.63 83.43 402.91 83.43C410.44 83.43 416.49 81.73 420.91 78.39C422.96 76.84 424.53 75 425.67 72.92C425.62 73.29 425.58 73.6601 425.52 74.0101C424.83 77.8701 422.9 81.02 419.7 83.45C415.62 86.54 410.02 88.08 402.9 88.08C397.88 88.08 393.34 87.18 389.27 85.38C385.2 83.58 382.14 81.1101 380.09 77.9801C379.23 76.6801 378.57 75.2901 378.07 73.82C377.85 73.17 377.66 72.5 377.51 71.82C377.4 71.33 377.31 70.84 377.24 70.34C377.6 71.05 377.98 71.75 378.42 72.43ZM378.42 79.09C380.68 82.54 384.06 85.2701 388.47 87.22C392.77 89.1301 397.63 90.09 402.91 90.09C410.44 90.09 416.49 88.39 420.91 85.05C422.96 83.5 424.53 81.66 425.67 79.5801C425.63 79.94 425.58 80.3101 425.52 80.66C424.83 84.5201 422.9 87.68 419.7 90.11C415.62 93.2 410.02 94.74 402.9 94.74C397.88 94.74 393.34 93.84 389.27 92.04C385.2 90.24 382.14 87.77 380.09 84.64C379.23 83.34 378.57 81.94 378.07 80.47C377.85 79.82 377.66 79.1601 377.51 78.4801C377.4 77.9901 377.31 77.5 377.24 76.99C377.6 77.7 377.98 78.4001 378.42 79.0801V79.09ZM378.42 85.75C380.68 89.2 384.06 91.93 388.47 93.88C392.77 95.79 397.63 96.75 402.91 96.75C410.44 96.75 416.49 95.05 420.91 91.71C422.96 90.16 424.53 88.32 425.67 86.24C425.62 86.61 425.58 86.98 425.52 87.34C424.83 91.19 422.9 94.34 419.7 96.77C415.62 99.86 410.02 101.4 402.9 101.4C397.88 101.4 393.34 100.5 389.27 98.7C385.2 96.9 382.14 94.43 380.09 91.3C379.23 89.9901 378.57 88.6 378.07 87.13C377.85 86.49 377.67 85.83 377.52 85.16C377.41 84.6701 377.32 84.1701 377.24 83.66C377.6 84.37 377.98 85.07 378.42 85.75ZM419.7 103.43C415.62 106.52 410.02 108.06 402.9 108.06C397.88 108.06 393.34 107.16 389.27 105.36C385.2 103.56 382.14 101.09 380.09 97.96C378.58 95.67 377.64 93.12 377.23 90.31C377.59 91.02 377.97 91.72 378.41 92.4C380.67 95.85 384.05 98.58 388.46 100.53C392.76 102.44 397.62 103.4 402.9 103.4C410.43 103.4 416.48 101.7 420.9 98.36C422.96 96.8 424.55 94.94 425.69 92.85C425.2 97.24 423.21 100.77 419.69 103.43H419.7ZM425.79 62.87C425.81 63.26 425.83 63.6501 425.83 64.0501C425.83 64.6401 425.8 65.21 425.75 65.77C425.7 66.31 425.62 66.84 425.53 67.3601C424.84 71.2201 422.91 74.3801 419.71 76.8001C415.63 79.8901 410.03 81.43 402.91 81.43C397.89 81.43 393.35 80.5301 389.28 78.7301C385.21 76.9301 382.15 74.4601 380.1 71.3301C379.24 70.0301 378.58 68.6301 378.08 67.1601C377.92 66.7001 377.79 66.22 377.66 65.74C377.64 65.65 377.61 65.5601 377.59 65.4701C377.48 65.0301 377.4 64.59 377.32 64.13C377.3 64.03 377.29 63.94 377.27 63.84C377.2 63.41 377.15 62.9701 377.11 62.5201C377.1 62.4001 377.08 62.29 377.08 62.17C377.04 61.62 377.02 61.07 377.02 60.5H391.99C391.99 63.82 392.85 66.2601 394.56 67.8301C396.27 69.4001 399.06 70.1901 402.91 70.1901C405.38 70.1901 407.33 69.66 408.76 68.6C409 68.43 409.2 68.23 409.4 68.0401C409.44 68 409.48 67.96 409.51 67.92C410.43 66.93 410.9 65.6701 410.9 64.1201C410.9 61.9401 410.13 60.2401 408.58 59.0201C407.03 57.8 404.32 56.5401 400.44 55.23C396.56 53.93 393.38 52.6701 390.92 51.4501C384.24 48.1701 380.36 43.87 379.24 38.55C379.14 38.06 379.06 37.5501 379 37.0401C379 36.9701 378.98 36.89 378.97 36.82C378.92 36.29 378.89 35.76 378.89 35.21C378.89 34.66 378.92 34.14 378.97 33.62C379.24 30.84 380.2 28.34 381.88 26.14C383.88 23.52 386.71 21.48 390.36 20.02C394.02 18.56 398.13 17.83 402.69 17.83C407.25 17.83 411.13 18.62 414.66 20.21C418.19 21.8 420.93 24.06 422.89 26.99C424.38 29.23 425.3 31.71 425.65 34.44C425.7 34.86 425.75 35.29 425.78 35.73C425.81 36.17 425.82 36.61 425.82 37.05H410.94C410.94 34.53 410.17 32.57 408.62 31.18C407.07 29.79 404.99 29.1 402.35 29.1C399.71 29.1 397.58 29.69 396.04 30.86C394.5 32.04 393.72 33.53 393.72 35.35C393.72 36.47 394.15 37.5201 395 38.4901C395.17 38.6801 395.35 38.8701 395.55 39.0601C395.56 39.0701 395.58 39.09 395.59 39.1C395.8 39.29 396.02 39.48 396.27 39.67C397.97 40.96 400.96 42.29 405.24 43.67C406.81 44.17 408.28 44.69 409.64 45.23C410.02 45.38 410.38 45.52 410.74 45.67C412.64 46.45 414.32 47.2701 415.78 48.1101C417 48.8101 418.11 49.57 419.11 50.37C419.9 51.01 420.62 51.67 421.27 52.37C422.6 53.79 423.65 55.35 424.39 57.03C424.52 57.32 424.63 57.6101 424.74 57.9001C424.75 57.9401 424.77 57.98 424.79 58.0201C424.91 58.3501 425.02 58.69 425.12 59.03C425.37 59.9 425.56 60.8001 425.67 61.7401C425.72 62.1201 425.75 62.5 425.78 62.8801L425.79 62.87ZM423.91 52.3601H425.26C425.49 53.2701 425.66 54.21 425.74 55.18C425.23 54.2001 424.61 53.2601 423.91 52.3601Z" fill="url(#paint0_linear_2011_289)" />
		<path d="M362.82 48.0499C362.79 41.8099 361.55 36.1899 359.15 31.3199C356.71 26.3899 353.23 22.5299 348.81 19.8499C344.4 17.1699 339.33 15.8199 333.74 15.8199C328.15 15.8199 322.97 17.1899 318.52 19.8999C314.05 22.6099 310.58 26.5099 308.19 31.4799C305.84 36.3599 304.65 42.0599 304.65 48.3999V51.8899C304.65 52.2399 304.68 52.5899 304.7 52.9399C304.67 53.6399 304.65 54.3399 304.65 55.0599V58.5499C304.65 58.9199 304.68 59.2799 304.7 59.6499C304.67 60.3299 304.65 61.0199 304.65 61.7199V65.2099C304.65 65.5899 304.68 65.9499 304.7 66.3199C304.67 66.9999 304.65 67.6799 304.65 68.3799V71.8699C304.65 72.25 304.68 72.61 304.7 72.9799C304.67 73.66 304.65 74.3399 304.65 75.0399V78.5299C304.77 84.6799 306.05 90.1999 308.46 94.9499C310.9 99.7799 314.37 103.55 318.77 106.16C323.15 108.76 328.21 110.08 333.82 110.08C339.43 110.08 344.53 108.72 348.95 106.03C353.39 103.33 356.86 99.4299 359.26 94.4499C361.62 89.5499 362.82 83.8699 362.82 77.5499V74.6999C362.82 74.0799 362.8 73.4699 362.77 72.8699C362.8 72.2199 362.82 71.5599 362.82 70.8899V68.0399C362.82 67.4199 362.8 66.8099 362.77 66.2099C362.8 65.5599 362.82 64.8999 362.82 64.2299V61.3799C362.82 60.7599 362.8 60.1499 362.77 59.5399C362.8 58.8899 362.82 58.2299 362.82 57.5699V54.7199C362.82 54.1099 362.8 53.5099 362.77 52.9099C362.8 52.2499 362.82 51.5899 362.82 50.9099V48.0599V48.0499ZM308.46 81.6099C310.9 86.4399 314.37 90.2099 318.77 92.8199C323.15 95.4199 328.21 96.7399 333.82 96.7399C339.43 96.7399 344.53 95.38 348.95 92.6899C353.39 89.99 356.86 86.09 359.26 81.1099C359.5 80.6099 359.72 80.0999 359.93 79.5899C359.37 82.1899 358.55 84.63 357.46 86.8999C355.22 91.5499 352.04 95.1299 347.91 97.6399C343.79 100.15 339.09 101.4 333.82 101.4C328.55 101.4 323.87 100.19 319.79 97.7599C315.71 95.3299 312.53 91.8699 310.24 87.3699C309.02 84.9699 308.13 82.3699 307.53 79.5999C307.82 80.2899 308.13 80.9599 308.46 81.6199V81.6099ZM307.53 72.9299C307.82 73.6199 308.13 74.2899 308.46 74.9499C310.9 79.7799 314.37 83.5499 318.77 86.16C323.15 88.7599 328.21 90.0799 333.82 90.0799C339.43 90.0799 344.53 88.7199 348.95 86.0299C353.39 83.3299 356.86 79.4299 359.26 74.4499C359.5 73.9499 359.72 73.4399 359.93 72.9299C359.37 75.5299 358.55 77.9699 357.46 80.2399C355.22 84.8899 352.04 88.4699 347.91 90.9799C343.79 93.49 339.09 94.7399 333.82 94.7399C328.55 94.7399 323.87 93.5299 319.79 91.0999C315.71 88.6699 312.53 85.2099 310.24 80.7099C309.02 78.3099 308.13 75.7199 307.53 72.9399V72.9299ZM357.46 73.5799C355.22 78.2299 352.04 81.8099 347.91 84.3199C343.79 86.8299 339.09 88.0799 333.82 88.0799C328.55 88.0799 323.87 86.8699 319.79 84.4399C315.71 82.0099 312.53 78.5499 310.24 74.0499C309.02 71.6499 308.13 69.0499 307.53 66.2799C307.82 66.9699 308.13 67.6399 308.46 68.2999C310.9 73.13 314.37 76.8999 318.77 79.5099C323.15 82.1099 328.21 83.4299 333.82 83.4299C339.43 83.4299 344.53 82.0699 348.95 79.3799C353.39 76.6799 356.86 72.7799 359.26 67.7999C359.5 67.2999 359.72 66.7899 359.93 66.2799C359.37 68.8799 358.55 71.3199 357.46 73.5899V73.5799ZM357.46 93.5499C355.22 98.2 352.04 101.78 347.91 104.29C343.79 106.8 339.09 108.05 333.82 108.05C328.55 108.05 323.87 106.84 319.79 104.41C315.71 101.98 312.53 98.5199 310.24 94.0199C309.02 91.6199 308.13 89.0199 307.53 86.2499C307.82 86.9399 308.13 87.6099 308.46 88.2699C310.9 93.0999 314.37 96.8699 318.77 99.4799C323.15 102.08 328.21 103.4 333.82 103.4C339.43 103.4 344.53 102.04 348.95 99.3499C353.39 96.6499 356.86 92.7499 359.26 87.7699C359.5 87.2699 359.72 86.7599 359.93 86.2499C359.37 88.8499 358.55 91.2899 357.46 93.5599V93.5499ZM360.59 43.7699V43.7899C360.66 44.4699 360.72 45.1599 360.75 45.8599C360.79 46.5699 360.81 47.2999 360.81 48.0299V50.8799C360.81 51.4999 360.78 52.0999 360.75 52.6999C360.75 52.7899 360.75 52.8899 360.75 52.9799C360.52 58.1599 359.42 62.81 357.44 66.91C355.2 71.56 352.02 75.1399 347.89 77.6499C343.77 80.16 339.07 81.41 333.8 81.41C328.53 81.41 323.85 80.1999 319.77 77.7699C315.69 75.3399 312.51 71.8799 310.22 67.3799C308.08 63.1599 306.91 58.3499 306.68 52.9699C306.68 52.9599 306.68 52.9399 306.68 52.9299C306.66 52.5699 306.64 52.2199 306.63 51.8599V48.3699C306.63 47.5899 306.65 46.8299 306.69 46.0799C306.69 46.0099 306.7 45.9399 306.71 45.8599C306.75 45.1699 306.79 44.4999 306.86 43.8299C306.86 43.8199 306.86 43.8099 306.86 43.7899C307.01 42.3299 307.23 40.9299 307.52 39.5599C308.08 36.9799 308.89 34.5599 309.97 32.3099C312.19 27.6799 315.38 24.0999 319.54 21.5799C323.69 19.0599 328.42 17.7899 333.72 17.7899C339.02 17.7899 343.64 19.0399 347.75 21.5299C351.86 24.0199 355.06 27.5699 357.34 32.1799C358.5 34.5199 359.36 37.0399 359.94 39.7199C360.22 41.0199 360.43 42.3599 360.58 43.7399L360.59 43.7699Z" fill="url(#paint1_linear_2011_289)" />
		<path d="M333.741 29.5099C326.261 29.5099 322.301 35.1199 321.881 46.3499L321.841 50.8999C321.841 51.8999 321.881 52.8499 321.931 53.7799C321.951 54.1399 321.971 54.4999 322.001 54.8399C322.031 55.1499 322.061 55.4399 322.091 55.7399C322.121 56.0199 322.151 56.3099 322.191 56.5799C322.231 56.8899 322.281 57.1999 322.321 57.4999C322.361 57.7199 322.401 57.9399 322.441 58.1599C322.551 58.7299 322.671 59.2899 322.801 59.8199C322.931 60.3399 323.081 60.8399 323.241 61.3199C323.271 61.4299 323.311 61.5399 323.341 61.6399C323.341 61.6699 323.361 61.6899 323.371 61.7199C323.371 61.7199 323.371 61.7399 323.381 61.7499C323.461 61.9899 323.551 62.2199 323.641 62.4499C323.691 62.5699 323.741 62.6899 323.791 62.8199C323.791 62.8299 323.791 62.8399 323.801 62.8499C323.891 63.0599 323.981 63.2699 324.071 63.4699C324.131 63.5999 324.201 63.7199 324.261 63.8499C324.441 64.2099 324.631 64.5599 324.831 64.8899C326.841 68.1499 329.831 69.7799 333.801 69.7799C337.461 69.7799 340.301 68.2599 342.331 65.2299C342.391 65.1399 342.461 65.0599 342.511 64.9699C342.721 64.6399 342.911 64.2999 343.091 63.9399C343.181 63.7799 343.261 63.6099 343.341 63.4399C343.391 63.3399 343.441 63.2199 343.481 63.1199C343.551 62.9599 343.631 62.7999 343.701 62.6299C343.811 62.3699 343.911 62.1099 344.011 61.8399C344.071 61.6699 344.131 61.4999 344.191 61.3199C344.291 61.0299 344.381 60.7399 344.471 60.4399C344.511 60.2999 344.541 60.1599 344.581 60.0199C344.601 59.9499 344.621 59.8799 344.641 59.8099C344.911 58.7499 345.131 57.5999 345.281 56.3799C345.301 56.2499 345.321 56.1199 345.331 55.9799C345.381 55.5599 345.421 55.1299 345.461 54.6999C345.471 54.5599 345.481 54.4299 345.491 54.2899C345.561 53.2899 345.611 52.2599 345.621 51.1599V48.3099C345.621 42.1599 344.591 37.4899 342.541 34.2999C340.491 31.1099 337.541 29.5199 333.721 29.5199L333.741 29.5099ZM333.741 31.5099C336.871 31.5099 339.201 32.7699 340.881 35.3799C341.971 37.0699 342.731 39.2999 343.181 42.0099C342.991 41.6399 342.781 41.2899 342.571 40.9499C340.521 37.7599 337.571 36.1699 333.751 36.1699C329.441 36.1699 326.301 38.0499 324.331 41.7799C326.031 31.5199 331.721 31.5199 333.751 31.5199L333.741 31.5099ZM342.561 47.6099C340.511 44.4199 337.561 42.8299 333.741 42.8299C329.421 42.8299 326.291 44.7199 324.321 48.4599C326.011 38.1799 331.711 38.1699 333.741 38.1699C336.871 38.1699 339.201 39.4299 340.881 42.0399C341.971 43.7299 342.731 45.9599 343.181 48.6899C342.981 48.3199 342.781 47.9499 342.561 47.6099ZM343.181 55.3399C342.991 54.9699 342.781 54.6099 342.561 54.2699C340.511 51.0799 337.561 49.4899 333.741 49.4899C329.431 49.4899 326.291 51.3699 324.321 55.0999C326.021 44.8399 331.711 44.8299 333.741 44.8299C336.871 44.8299 339.201 46.0899 340.881 48.6999C341.971 50.3899 342.731 52.6199 343.181 55.3499V55.3399ZM324.801 59.5199C326.901 51.4899 331.871 51.4899 333.751 51.4899C336.881 51.4899 339.211 52.7499 340.891 55.3599C341.641 56.5199 342.231 57.9399 342.671 59.5999C342.571 59.9599 342.471 60.3099 342.361 60.6399C340.321 57.6599 337.451 56.1499 333.751 56.1499C330.051 56.1499 327.081 57.6299 325.101 60.5299C325.001 60.2099 324.901 59.8699 324.811 59.5299L324.801 59.5199ZM340.861 63.8999C339.201 66.5099 336.901 67.7799 333.831 67.7799C330.581 67.7799 328.201 66.4899 326.561 63.8399C326.371 63.5299 326.191 63.1999 326.021 62.8599C328.431 58.1499 332.171 58.1499 333.741 58.1499C336.871 58.1499 339.201 59.4099 340.881 62.0199C341.071 62.3099 341.241 62.6199 341.401 62.9399C341.231 63.2799 341.051 63.6099 340.851 63.9099L340.861 63.8999Z" fill="url(#paint2_linear_2011_289)" />
		<path d="M90.9495 104.26C80.0195 104.26 69.7395 99.9999 62.0095 92.2699C54.2795 84.5399 50.0195 74.2599 50.0195 63.3299C50.0195 52.3999 54.2795 42.1199 62.0095 34.3899C69.7395 26.6599 80.0195 22.3999 90.9495 22.3999C101.88 22.3999 112.16 26.6599 119.89 34.3899C127.62 42.1199 131.88 52.3999 131.88 63.3299C131.88 74.2599 127.62 84.5399 119.89 92.2699C112.16 99.9999 101.88 104.26 90.9495 104.26ZM90.9495 24.0199C80.4495 24.0199 70.5795 28.1099 63.1495 35.5399C55.7195 42.9699 51.6295 52.8399 51.6295 63.3399C51.6295 73.8399 55.7195 83.7099 63.1495 91.1399C70.5795 98.5699 80.4495 102.66 90.9495 102.66C101.45 102.66 111.32 98.5699 118.75 91.1399C126.18 83.7099 130.27 73.8399 130.27 63.3399C130.27 52.8399 126.18 42.9699 118.75 35.5399C111.32 28.1099 101.45 24.0199 90.9495 24.0199Z" fill="url(#paint3_linear_2011_289)" />
		<path d="M99.4298 51.88L89.5098 46.15L81.3898 41.46C80.5898 41 79.5898 41.58 79.5898 42.5V84.16C79.5898 85.09 80.5898 85.66 81.3898 85.2L89.5098 80.51L99.4298 74.78L108.56 69.51C109.05 69.23 109.35 68.7 109.35 68.14V58.51C109.35 57.94 109.05 57.42 108.56 57.14L99.4298 51.87V51.88ZM89.5098 69.07V57.61L99.4298 63.34L89.5098 69.07Z" fill="url(#paint4_linear_2011_289)" />
		<path d="M90.95 108.7C83.94 108.7 76.96 107.05 70.67 103.91V107.89C70.67 108.33 70.31 108.69 69.87 108.69H2.26C1.82 108.69 1.46 108.33 1.46 107.89V84.3299C1.46 84.1199 1.54 83.9299 1.68 83.7799L23.44 60.8999H0.8C0.36 60.8999 0 60.5399 0 60.0999V50.8699C0 44.7499 1.56 38.9999 4.63 33.7999C7.72 28.5599 12.06 24.4099 17.52 21.4799C22.82 18.6299 28.75 17.1899 35.14 17.1899C45.17 17.1899 53.28 19.7699 59.25 24.8699C60.4 25.8599 61.47 26.9399 62.43 28.0899C70.5 21.5799 80.59 17.9999 90.95 17.9999C115.96 17.9999 136.31 38.3499 136.31 63.3599C136.31 88.3699 115.96 108.72 90.95 108.72V108.7ZM69.87 101.79C70 101.79 70.13 101.82 70.25 101.89C76.6 105.3 83.76 107.1 90.95 107.1C115.07 107.1 134.7 87.4699 134.7 63.3499C134.7 39.2299 115.07 19.5999 90.95 19.5999C80.7 19.5999 70.72 23.2399 62.83 29.8399C62.66 29.9799 62.45 30.0499 62.23 30.0199C62.01 29.9999 61.82 29.8899 61.68 29.7199C60.66 28.4099 59.49 27.1899 58.2 26.0899C52.54 21.2499 44.78 18.7999 35.14 18.7999C29.01 18.7999 23.34 20.1799 18.28 22.8999C13.09 25.6899 8.96 29.6399 6.02 34.6199C3.09 39.5799 1.61 45.0499 1.61 50.8799V59.3099H25.31C25.63 59.3099 25.92 59.4999 26.05 59.7999C26.18 60.0999 26.12 60.4399 25.89 60.6699L3.06 84.6599V107.1H69.06V102.6C69.06 102.32 69.21 102.06 69.45 101.91C69.58 101.83 69.72 101.8 69.86 101.8L69.87 101.79Z" fill="url(#paint5_linear_2011_289)" />
		<path d="M65.4304 104.26H6.69043C6.25043 104.26 5.89043 103.9 5.89043 103.46V86.11C5.89043 85.9 5.97043 85.71 6.11043 85.56L29.9904 60.45C36.4004 53.13 36.9004 49.9 36.9004 49.08C36.9004 48.08 36.7604 46.74 36.1104 46.05C35.6904 45.61 35.2504 45.39 34.7604 45.39C34.2404 45.39 33.8304 45.45 33.2304 46.27C32.4004 47.41 31.9904 48.91 31.9904 50.87V55.66C31.9904 56.1 31.6304 56.46 31.1904 56.46H5.24043C4.80043 56.46 4.44043 56.1 4.44043 55.66V50.87C4.44043 45.55 5.79043 40.57 8.46043 36.05C11.1404 31.51 14.9004 27.92 19.6304 25.38C24.2704 22.88 29.5004 21.62 35.1504 21.62C44.1004 21.62 51.2404 23.85 56.3704 28.24C61.7604 32.85 64.5004 39.38 64.5004 47.64C64.5004 51.1 63.8504 54.52 62.5604 57.79C61.3504 60.88 59.4804 64.11 57.0004 67.39C54.6704 70.49 51.1004 74.42 46.1104 79.42L45.1704 80.5H65.4304C65.8704 80.5 66.2304 80.86 66.2304 81.3V103.47C66.2304 103.91 65.8704 104.27 65.4304 104.27V104.26ZM7.49043 102.65H64.6204V82.09H43.4104C43.1004 82.09 42.8104 81.91 42.6804 81.62C42.5504 81.33 42.6004 81 42.8004 80.76L44.9104 78.32C44.9104 78.32 44.9404 78.29 44.9504 78.28C49.9004 73.32 53.4204 69.44 55.7204 66.4C58.1004 63.24 59.9004 60.14 61.0604 57.18C62.2704 54.1 62.8804 50.88 62.8804 47.62C62.8804 39.85 60.3304 33.74 55.3104 29.44C50.4704 25.31 43.6804 23.21 35.1304 23.21C29.7404 23.21 24.7804 24.41 20.3704 26.78C15.9004 29.18 12.3504 32.57 9.83043 36.85C7.31043 41.12 6.03043 45.83 6.03043 50.85V54.84H30.3604V50.85C30.3604 48.54 30.8704 46.72 31.9104 45.3C32.7104 44.21 33.5304 43.76 34.7404 43.76C35.6704 43.76 36.5404 44.16 37.2604 44.93C38.0804 45.8 38.4904 47.19 38.4904 49.06C38.4904 50.59 37.5404 54.23 31.1704 61.5C31.1704 61.5 31.1604 61.52 31.1504 61.52L7.48043 86.41V102.64L7.49043 102.65Z" fill="url(#paint6_linear_2011_289)" />
		<path d="M187.379 57.49H189.429H189.469H191.529H192.399H194.469H194.489H196.559H198.629L191.949 36.02L191.759 36.64L191.139 38.64L185.319 57.49H187.379Z" fill="url(#paint7_linear_2011_289)" />
		<path d="M223.49 88.38C223.86 87.84 223.95 87.16 223.72 86.54L222.24 82.53C222.74 82.43 223.19 82.15 223.49 81.72C223.86 81.18 223.95 80.5 223.72 79.88L200.84 17.97C200.55 17.18 199.8 16.66 198.96 16.66H184.93C184.09 16.66 183.34 17.18 183.05 17.97L160.34 79.88C160.12 80.49 160.2 81.18 160.58 81.71C160.88 82.13 161.32 82.41 161.82 82.52L160.35 86.54C160.13 87.15 160.21 87.84 160.59 88.37C160.89 88.79 161.33 89.07 161.83 89.18L160.36 93.2C160.14 93.81 160.22 94.5 160.6 95.03C160.9 95.45 161.34 95.73 161.84 95.84L160.37 99.86C160.15 100.47 160.23 101.16 160.61 101.69C160.91 102.11 161.35 102.39 161.85 102.5L160.38 106.52C160.16 107.13 160.24 107.82 160.62 108.35C160.99 108.89 161.61 109.2 162.26 109.2H178.21C179.09 109.2 179.86 108.63 180.12 107.79L183.26 97.64H200.77L203.94 107.8C204.2 108.63 204.97 109.2 205.85 109.2H221.88C222.53 109.2 223.15 108.88 223.52 108.34C223.89 107.8 223.98 107.12 223.75 106.5L222.27 102.49C222.77 102.39 223.22 102.11 223.52 101.68C223.89 101.14 223.98 100.46 223.75 99.84L222.27 95.83C222.77 95.73 223.22 95.45 223.52 95.02C223.89 94.48 223.98 93.8 223.75 93.18L222.27 89.17C222.77 89.07 223.22 88.79 223.52 88.36L223.49 88.38ZM162.24 80.58L184.95 18.67H198.98L221.86 80.58H205.83L202.22 69.02H181.77L178.2 80.58H162.25H162.24ZM181.79 75.67L183.23 71.01H200.74L202.2 75.67H181.8H181.79ZM200.73 77.67L202.18 82.33H181.78L183.22 77.67H200.73ZM183.22 84.33H200.73L202.19 88.99H181.79L183.23 84.33H183.22ZM162.23 87.24L163.94 82.58H178.18C178.98 82.58 179.68 82.09 179.99 81.37L178.18 87.24H162.23ZM162.23 93.9L163.94 89.24H178.18C178.98 89.24 179.68 88.75 179.99 88.03L178.18 93.9H162.23ZM162.23 100.56L163.94 95.9H178.18C178.98 95.9 179.68 95.41 179.99 94.69L178.18 100.56H162.23ZM178.18 107.22H162.23L163.94 102.56H178.18C178.98 102.56 179.68 102.07 179.99 101.35L178.18 107.22ZM181.79 95.66L183.23 91H200.74L202.2 95.66H181.8H181.79ZM205.82 107.22L203.95 101.24C204.24 102.03 204.97 102.56 205.82 102.56H220.13L221.85 107.22H205.82ZM219.39 100.56H205.82L203.95 94.58C204.24 95.37 204.97 95.9 205.82 95.9H220.13L221.85 100.56H219.39ZM219.39 93.9H205.82L203.95 87.92C204.24 88.71 204.97 89.24 205.82 89.24H220.13L221.85 93.9H219.39ZM219.39 87.24H205.82L203.95 81.26C204.24 82.05 204.97 82.58 205.82 82.58H220.13L221.85 87.24H219.39Z" fill="url(#paint8_linear_2011_289)" />
		<path d="M187.379 57.49H189.429H189.469H191.529H192.399H194.469H194.489H196.559H198.629L191.949 36.02L191.759 36.64L191.139 38.64L185.319 57.49H187.379Z" fill="url(#paint9_linear_2011_289)" />
		<path d="M223.49 88.38C223.86 87.84 223.95 87.16 223.72 86.54L222.24 82.53C222.74 82.43 223.19 82.15 223.49 81.72C223.86 81.18 223.95 80.5 223.72 79.88L200.84 17.97C200.55 17.18 199.8 16.66 198.96 16.66H184.93C184.09 16.66 183.34 17.18 183.05 17.97L160.34 79.88C160.12 80.49 160.2 81.18 160.58 81.71C160.88 82.13 161.32 82.41 161.82 82.52L160.35 86.54C160.13 87.15 160.21 87.84 160.59 88.37C160.89 88.79 161.33 89.07 161.83 89.18L160.36 93.2C160.14 93.81 160.22 94.5 160.6 95.03C160.9 95.45 161.34 95.73 161.84 95.84L160.37 99.86C160.15 100.47 160.23 101.16 160.61 101.69C160.91 102.11 161.35 102.39 161.85 102.5L160.38 106.52C160.16 107.13 160.24 107.82 160.62 108.35C160.99 108.89 161.61 109.2 162.26 109.2H178.21C179.09 109.2 179.86 108.63 180.12 107.79L183.26 97.64H200.77L203.94 107.8C204.2 108.63 204.97 109.2 205.85 109.2H221.88C222.53 109.2 223.15 108.88 223.52 108.34C223.89 107.8 223.98 107.12 223.75 106.5L222.27 102.49C222.77 102.39 223.22 102.11 223.52 101.68C223.89 101.14 223.98 100.46 223.75 99.84L222.27 95.83C222.77 95.73 223.22 95.45 223.52 95.02C223.89 94.48 223.98 93.8 223.75 93.18L222.27 89.17C222.77 89.07 223.22 88.79 223.52 88.36L223.49 88.38ZM162.24 80.58L184.95 18.67H198.98L221.86 80.58H205.83L202.22 69.02H181.77L178.2 80.58H162.25H162.24ZM181.79 75.67L183.23 71.01H200.74L202.2 75.67H181.8H181.79ZM200.73 77.67L202.18 82.33H181.78L183.22 77.67H200.73ZM183.22 84.33H200.73L202.19 88.99H181.79L183.23 84.33H183.22ZM162.23 87.24L163.94 82.58H178.18C178.98 82.58 179.68 82.09 179.99 81.37L178.18 87.24H162.23ZM162.23 93.9L163.94 89.24H178.18C178.98 89.24 179.68 88.75 179.99 88.03L178.18 93.9H162.23ZM162.23 100.56L163.94 95.9H178.18C178.98 95.9 179.68 95.41 179.99 94.69L178.18 100.56H162.23ZM178.18 107.22H162.23L163.94 102.56H178.18C178.98 102.56 179.68 102.07 179.99 101.35L178.18 107.22ZM181.79 95.66L183.23 91H200.74L202.2 95.66H181.8H181.79ZM205.82 107.22L203.95 101.24C204.24 102.03 204.97 102.56 205.82 102.56H220.13L221.85 107.22H205.82ZM219.39 100.56H205.82L203.95 94.58C204.24 95.37 204.97 95.9 205.82 95.9H220.13L221.85 100.56H219.39ZM219.39 93.9H205.82L203.95 87.92C204.24 88.71 204.97 89.24 205.82 89.24H220.13L221.85 93.9H219.39ZM219.39 87.24H205.82L203.95 81.26C204.24 82.05 204.97 82.58 205.82 82.58H220.13L221.85 87.24H219.39Z" fill="url(#paint10_linear_2011_289)" />
		<path d="M290.51 16.67H283.06C283.07 16.38 283.09 16.09 283.09 15.79C283.09 15.14 282.78 14.56 282.29 14.2C282.82 12.64 283.09 10.95 283.09 9.14C283.09 8.49 282.78 7.91 282.29 7.55C282.82 5.99 283.09 4.3 283.09 2.49C283.09 1.43 282.26 0.56 281.21 0.49L273.3 0C273.3 0 273.22 0 273.18 0C272.67 0 272.18 0.19 271.81 0.54C271.41 0.92 271.18 1.44 271.18 2C271.18 2.72 271.05 3.26 270.81 3.49C270.53 3.76 270.25 3.87 269.86 3.87C269.34 3.87 268.84 3.82 268.38 3.71C268.21 3.67 267.43 3.43 264.39 2.05C261.81 0.87 259.71 0.3 257.99 0.3C254.62 0.3 251.77 1.7 249.49 4.47C247.31 7.12 246.21 10.3 246.21 13.9C246.21 14.56 246.53 15.15 247.03 15.52C246.9 15.89 246.79 16.28 246.69 16.67H238.79C237.69 16.67 236.79 17.57 236.79 18.67V107.21C236.79 108.31 237.69 109.21 238.79 109.21H253.71C254.81 109.21 255.71 108.31 255.71 107.21V76.24L273.91 108.2C274.27 108.82 274.93 109.21 275.65 109.21H290.49C291.59 109.21 292.49 108.31 292.49 107.21V18.67C292.49 17.57 291.59 16.67 290.49 16.67H290.51ZM248.26 13.07C248.42 10.28 249.34 7.83 251.06 5.74C252.94 3.44 255.26 2.3 258.01 2.3C259.43 2.3 261.28 2.82 263.58 3.87C265.88 4.92 267.33 5.51 267.94 5.66C268.55 5.81 269.19 5.87 269.88 5.87C270.79 5.87 271.57 5.56 272.22 4.92C272.87 4.28 273.2 3.31 273.2 2L281.11 2.47C281.11 4.14 280.85 5.67 280.35 7.08C280.23 7.42 280.09 7.75 279.94 8.08C279.79 8.4 279.63 8.72 279.45 9.03C279.11 9.61 278.73 10.17 278.28 10.7C276.39 12.95 274.06 14.08 271.28 14.08C269.41 14.08 267.33 13.49 265.03 12.29C262.73 11.1 260.88 10.5 259.46 10.5C258.55 10.5 257.78 10.81 257.14 11.44C256.5 12.06 256.18 13.03 256.18 14.33L248.41 13.91H248.23C248.23 13.62 248.25 13.34 248.26 13.06V13.07ZM249.04 15.96L256.07 16.34C256.07 16.34 256.14 16.34 256.18 16.34C256.69 16.34 257.18 16.14 257.56 15.79C257.96 15.41 258.18 14.89 258.18 14.34C258.18 13.63 258.31 13.1 258.53 12.88C258.8 12.62 259.06 12.51 259.45 12.51C260.2 12.51 261.61 12.78 264.1 14.07C266.67 15.4 269.08 16.08 271.27 16.08C274.65 16.08 277.52 14.7 279.8 11.98C280.27 11.42 280.68 10.82 281.05 10.2C280.96 11.46 280.72 12.63 280.33 13.73C280.09 14.41 279.79 15.06 279.43 15.68C279.23 16.02 279.02 16.34 278.79 16.66H275.63C274.53 16.66 273.63 17.56 273.63 18.66V20.41C272.88 20.61 272.1 20.72 271.27 20.72C269.4 20.72 267.32 20.13 265.02 18.93C262.72 17.74 260.87 17.14 259.45 17.14C258.54 17.14 257.77 17.45 257.13 18.08C256.8 18.4 256.56 18.81 256.4 19.31L255.46 17.66C255.1 17.03 254.44 16.65 253.72 16.65H248.8C248.87 16.41 248.94 16.17 249.03 15.93L249.04 15.96ZM273.63 40.4C272.88 40.6 272.1 40.71 271.27 40.71C270.33 40.71 269.35 40.56 268.3 40.26L265.02 34.49C267.24 35.52 269.34 36.05 271.26 36.05C272.08 36.05 272.86 35.97 273.62 35.81V40.4H273.63ZM273.63 42.47V49.64L268.81 41.16L269.63 42.6C270.19 42.68 270.74 42.72 271.27 42.72C272.09 42.72 272.87 42.64 273.63 42.48V42.47ZM273.63 33.74C272.88 33.94 272.1 34.05 271.27 34.05C269.4 34.05 267.32 33.46 265.02 32.26C264.41 31.95 263.84 31.68 263.3 31.45L260.13 25.88C260.96 26.01 262.22 26.41 264.1 27.38C266.67 28.71 269.08 29.39 271.27 29.39C272.09 29.39 272.87 29.31 273.63 29.15V33.74ZM273.63 27.08C272.88 27.28 272.1 27.39 271.27 27.39C269.4 27.39 267.32 26.8 265.02 25.6C262.72 24.41 260.87 23.81 259.45 23.81C259.29 23.81 259.14 23.83 258.98 23.85L259.18 24.2L257.24 20.79L257.9 21.95C258.07 21.65 258.17 21.32 258.17 20.97C258.17 20.26 258.3 19.73 258.52 19.51C258.79 19.25 259.05 19.14 259.44 19.14C260.19 19.14 261.6 19.41 264.09 20.7C266.66 22.03 269.07 22.71 271.26 22.71C272.08 22.71 272.86 22.63 273.62 22.47V27.06L273.63 27.08ZM253.73 107.21H238.81V102.55H253.73V107.21ZM253.73 100.55H238.81V95.89H253.73V100.55ZM253.73 93.89H238.81V89.23H253.73V93.89ZM253.73 87.23H238.81V82.57H253.73V87.23ZM290.51 107.2H275.67L255.73 72.19V69.57L273.93 101.53C274.29 102.15 274.95 102.54 275.67 102.54H290.51V107.2ZM290.51 100.54H275.67L255.73 65.53V62.91L273.93 94.87C274.29 95.49 274.95 95.88 275.67 95.88H290.51V100.54ZM290.51 93.88H275.67L255.73 58.87V56.25L273.93 88.21C274.29 88.83 274.95 89.22 275.67 89.22H290.51V93.88ZM290.51 87.22H275.67L255.73 52.21V49.59L273.93 81.55C274.29 82.17 274.95 82.56 275.67 82.56H290.51V87.22ZM290.51 23.31V80.56H275.67L253.73 42.04V80.56H238.81V18.67H253.73L275.63 57.19V18.67H290.51V23.33V23.31Z" fill="url(#paint11_linear_2011_289)" />
	</g>
	<defs>
		<linearGradient id="paint0_linear_2011_289" x1="375.01" y1="62.94" x2="427.82" y2="62.94" gradientUnits="userSpaceOnUse">
			<stop stop-color="#FF0000">
				<animate attributeName="offset" values="-1.97;.03" dur="3s" repeatCount="indefinite" />
			</stop>
			<stop stop-color="#0505a9">
				<animate attributeName="offset" values="-1.4;.6" dur="3s" repeatCount="indefinite" />
			</stop>
			<stop stop-color="#0538bf">
				<animate attributeName="offset" values="-1.31;.69" dur="3s" repeatCount="indefinite" />
			</stop>
			<stop stop-color="#0585e1">
				<animate attributeName="offset" values="-1.18;.82" dur="3s" repeatCount="indefinite" />
			</stop>
			<stop stop-color="#05b5f6">
				<animate attributeName="offset" values="-1.08;.92" dur="3s" repeatCount="indefinite" />
			</stop>
			<stop stop-color="#05c8ff">
				<animate attributeName="offset" values="-1.03;.97" dur="3s" repeatCount="indefinite" />
			</stop>
			<stop stop-color="#05c8ff">
				<animate attributeName="offset" values="-.97;1.03" dur="3s" repeatCount="indefinite" />
			</stop>
			<stop stop-color="#05b5f6">
				<animate attributeName="offset" values="-.92;1.08" dur="3s" repeatCount="indefinite" />
			</stop>
			<stop stop-color="#0585e1">
				<animate attributeName="offset" values="-.82;1.18" dur="3s" repeatCount="indefinite" />
			</stop>
			<stop stop-color="#0538bf">
				<animate attributeName="offset" values="-.69;0.31" dur="3s" repeatCount="indefinite" />
			</stop>
			<stop stop-color="#0505a9">
				<animate attributeName="offset" values="-.6;1.4" dur="3s" repeatCount="indefinite" />
			</stop>
			<stop stop-color="#FF0000">
				<animate attributeName="offset" values="-.03;1.97" dur="3s" repeatCount="indefinite" />
			</stop>
			<stop stop-color="#FF0000">
				<animate attributeName="offset" values=".03;2.03" dur="3s" repeatCount="indefinite" />
			</stop>
			<stop stop-color="#0505a9">
				<animate attributeName="offset" values=".6;2.6" dur="3s" repeatCount="indefinite" />
			</stop>
			<stop stop-color="#0538bf">
				<animate attributeName="offset" values=".69;2.69" dur="3s" repeatCount="indefinite" />
			</stop>
			<stop stop-color="#0585e1">
				<animate attributeName="offset" values=".82;2.82" dur="3s" repeatCount="indefinite" />
			</stop>
			<stop stop-color="#05b5f6">
				<animate attributeName="offset" values=".92;2.92" dur="3s" repeatCount="indefinite" />
			</stop>
			<stop stop-color="#05c8ff">
				<animate attributeName="offset" values=".97;2.97" dur="3s" repeatCount="indefinite" />
			</stop>
		</linearGradient>
		<linearGradient id="paint1_linear_2011_289" x1="304.65" y1="62.9399" x2="362.82" y2="62.9399" gradientUnits="userSpaceOnUse">
			<stop stop-color="#FF0000">
				<animate attributeName="offset" values="-1.97;.03" dur="3s" repeatCount="indefinite" />
			</stop>
			<stop stop-color="#0505a9">
				<animate attributeName="offset" values="-1.4;.6" dur="3s" repeatCount="indefinite" />
			</stop>
			<stop stop-color="#0538bf">
				<animate attributeName="offset" values="-1.31;.69" dur="3s" repeatCount="indefinite" />
			</stop>
			<stop stop-color="#0585e1">
				<animate attributeName="offset" values="-1.18;.82" dur="3s" repeatCount="indefinite" />
			</stop>
			<stop stop-color="#05b5f6">
				<animate attributeName="offset" values="-1.08;.92" dur="3s" repeatCount="indefinite" />
			</stop>
			<stop stop-color="#05c8ff">
				<animate attributeName="offset" values="-1.03;.97" dur="3s" repeatCount="indefinite" />
			</stop>
			<stop stop-color="#05c8ff">
				<animate attributeName="offset" values="-.97;1.03" dur="3s" repeatCount="indefinite" />
			</stop>
			<stop stop-color="#05b5f6">
				<animate attributeName="offset" values="-.92;1.08" dur="3s" repeatCount="indefinite" />
			</stop>
			<stop stop-color="#0585e1">
				<animate attributeName="offset" values="-.82;1.18" dur="3s" repeatCount="indefinite" />
			</stop>
			<stop stop-color="#0538bf">
				<animate attributeName="offset" values="-.69;0.31" dur="3s" repeatCount="indefinite" />
			</stop>
			<stop stop-color="#0505a9">
				<animate attributeName="offset" values="-.6;1.4" dur="3s" repeatCount="indefinite" />
			</stop>
			<stop stop-color="#FF0000">
				<animate attributeName="offset" values="-.03;1.97" dur="3s" repeatCount="indefinite" />
			</stop>
			<stop stop-color="#FF0000">
				<animate attributeName="offset" values=".03;2.03" dur="3s" repeatCount="indefinite" />
			</stop>
			<stop stop-color="#0505a9">
				<animate attributeName="offset" values=".6;2.6" dur="3s" repeatCount="indefinite" />
			</stop>
			<stop stop-color="#0538bf">
				<animate attributeName="offset" values=".69;2.69" dur="3s" repeatCount="indefinite" />
			</stop>
			<stop stop-color="#0585e1">
				<animate attributeName="offset" values=".82;2.82" dur="3s" repeatCount="indefinite" />
			</stop>
			<stop stop-color="#05b5f6">
				<animate attributeName="offset" values=".92;2.92" dur="3s" repeatCount="indefinite" />
			</stop>
			<stop stop-color="#05c8ff">
				<animate attributeName="offset" values=".97;2.97" dur="3s" repeatCount="indefinite" />
			</stop>
		</linearGradient>
		<linearGradient id="paint2_linear_2011_289" x1="305.751" y1="49.6399" x2="364.341" y2="49.6399" gradientUnits="userSpaceOnUse">
			<stop stop-color="#FF0000">
				<animate attributeName="offset" values="-1.97;.03" dur="3s" repeatCount="indefinite" />
			</stop>
			<stop stop-color="#0505a9">
				<animate attributeName="offset" values="-1.4;.6" dur="3s" repeatCount="indefinite" />
			</stop>
			<stop stop-color="#0538bf">
				<animate attributeName="offset" values="-1.31;.69" dur="3s" repeatCount="indefinite" />
			</stop>
			<stop stop-color="#0585e1">
				<animate attributeName="offset" values="-1.18;.82" dur="3s" repeatCount="indefinite" />
			</stop>
			<stop stop-color="#05b5f6">
				<animate attributeName="offset" values="-1.08;.92" dur="3s" repeatCount="indefinite" />
			</stop>
			<stop stop-color="#05c8ff">
				<animate attributeName="offset" values="-1.03;.97" dur="3s" repeatCount="indefinite" />
			</stop>
			<stop stop-color="#05c8ff">
				<animate attributeName="offset" values="-.97;1.03" dur="3s" repeatCount="indefinite" />
			</stop>
			<stop stop-color="#05b5f6">
				<animate attributeName="offset" values="-.92;1.08" dur="3s" repeatCount="indefinite" />
			</stop>
			<stop stop-color="#0585e1">
				<animate attributeName="offset" values="-.82;1.18" dur="3s" repeatCount="indefinite" />
			</stop>
			<stop stop-color="#0538bf">
				<animate attributeName="offset" values="-.69;0.31" dur="3s" repeatCount="indefinite" />
			</stop>
			<stop stop-color="#0505a9">
				<animate attributeName="offset" values="-.6;1.4" dur="3s" repeatCount="indefinite" />
			</stop>
			<stop stop-color="#FF0000">
				<animate attributeName="offset" values="-.03;1.97" dur="3s" repeatCount="indefinite" />
			</stop>
			<stop stop-color="#FF0000">
				<animate attributeName="offset" values=".03;2.03" dur="3s" repeatCount="indefinite" />
			</stop>
			<stop stop-color="#0505a9">
				<animate attributeName="offset" values=".6;2.6" dur="3s" repeatCount="indefinite" />
			</stop>
			<stop stop-color="#0538bf">
				<animate attributeName="offset" values=".69;2.69" dur="3s" repeatCount="indefinite" />
			</stop>
			<stop stop-color="#0585e1">
				<animate attributeName="offset" values=".82;2.82" dur="3s" repeatCount="indefinite" />
			</stop>
			<stop stop-color="#05b5f6">
				<animate attributeName="offset" values=".92;2.92" dur="3s" repeatCount="indefinite" />
			</stop>
			<stop stop-color="#05c8ff">
				<animate attributeName="offset" values=".97;2.97" dur="3s" repeatCount="indefinite" />
			</stop>
		</linearGradient>
		<linearGradient id="paint3_linear_2011_289" x1="50.0195" y1="63.3399" x2="131.87" y2="63.3399" gradientUnits="userSpaceOnUse">
			<stop stop-color="#FF0000">
				<animate attributeName="offset" values="-1.97;.03" dur="3s" repeatCount="indefinite" />
			</stop>
			<stop stop-color="#0505a9">
				<animate attributeName="offset" values="-1.4;.6" dur="3s" repeatCount="indefinite" />
			</stop>
			<stop stop-color="#0538bf">
				<animate attributeName="offset" values="-1.31;.69" dur="3s" repeatCount="indefinite" />
			</stop>
			<stop stop-color="#0585e1">
				<animate attributeName="offset" values="-1.18;.82" dur="3s" repeatCount="indefinite" />
			</stop>
			<stop stop-color="#05b5f6">
				<animate attributeName="offset" values="-1.08;.92" dur="3s" repeatCount="indefinite" />
			</stop>
			<stop stop-color="#05c8ff">
				<animate attributeName="offset" values="-1.03;.97" dur="3s" repeatCount="indefinite" />
			</stop>
			<stop stop-color="#05c8ff">
				<animate attributeName="offset" values="-.97;1.03" dur="3s" repeatCount="indefinite" />
			</stop>
			<stop stop-color="#05b5f6">
				<animate attributeName="offset" values="-.92;1.08" dur="3s" repeatCount="indefinite" />
			</stop>
			<stop stop-color="#0585e1">
				<animate attributeName="offset" values="-.82;1.18" dur="3s" repeatCount="indefinite" />
			</stop>
			<stop stop-color="#0538bf">
				<animate attributeName="offset" values="-.69;0.31" dur="3s" repeatCount="indefinite" />
			</stop>
			<stop stop-color="#0505a9">
				<animate attributeName="offset" values="-.6;1.4" dur="3s" repeatCount="indefinite" />
			</stop>
			<stop stop-color="#FF0000">
				<animate attributeName="offset" values="-.03;1.97" dur="3s" repeatCount="indefinite" />
			</stop>
			<stop stop-color="#FF0000">
				<animate attributeName="offset" values=".03;2.03" dur="3s" repeatCount="indefinite" />
			</stop>
			<stop stop-color="#0505a9">
				<animate attributeName="offset" values=".6;2.6" dur="3s" repeatCount="indefinite" />
			</stop>
			<stop stop-color="#0538bf">
				<animate attributeName="offset" values=".69;2.69" dur="3s" repeatCount="indefinite" />
			</stop>
			<stop stop-color="#0585e1">
				<animate attributeName="offset" values=".82;2.82" dur="3s" repeatCount="indefinite" />
			</stop>
			<stop stop-color="#05b5f6">
				<animate attributeName="offset" values=".92;2.92" dur="3s" repeatCount="indefinite" />
			</stop>
			<stop stop-color="#05c8ff">
				<animate attributeName="offset" values=".97;2.97" dur="3s" repeatCount="indefinite" />
			</stop>
		</linearGradient>
		<linearGradient id="paint4_linear_2011_289" x1="94.2998" y1="77.92" x2="94.5198" y2="48.16" gradientUnits="userSpaceOnUse">
			<stop offset="0.03" stop-color="#FF0000" />
			<stop offset="0.6" stop-color="#0505A9" />
			<stop offset="0.69" stop-color="#0538BF" />
			<stop offset="0.82" stop-color="#0585E1" />
			<stop offset="0.92" stop-color="#05B5F6" />
			<stop offset="0.97" stop-color="#05C8FF" />
		</linearGradient>
		<linearGradient id="paint5_linear_2011_289" x1="0" y1="62.9399" x2="136.31" y2="62.9399" gradientUnits="userSpaceOnUse">
			<stop stop-color="#FF0000">
				<animate attributeName="offset" values="-1.97;.03" dur="3s" repeatCount="indefinite" />
			</stop>
			<stop stop-color="#0505a9">
				<animate attributeName="offset" values="-1.4;.6" dur="3s" repeatCount="indefinite" />
			</stop>
			<stop stop-color="#0538bf">
				<animate attributeName="offset" values="-1.31;.69" dur="3s" repeatCount="indefinite" />
			</stop>
			<stop stop-color="#0585e1">
				<animate attributeName="offset" values="-1.18;.82" dur="3s" repeatCount="indefinite" />
			</stop>
			<stop stop-color="#05b5f6">
				<animate attributeName="offset" values="-1.08;.92" dur="3s" repeatCount="indefinite" />
			</stop>
			<stop stop-color="#05c8ff">
				<animate attributeName="offset" values="-1.03;.97" dur="3s" repeatCount="indefinite" />
			</stop>
			<stop stop-color="#05c8ff">
				<animate attributeName="offset" values="-.97;1.03" dur="3s" repeatCount="indefinite" />
			</stop>
			<stop stop-color="#05b5f6">
				<animate attributeName="offset" values="-.92;1.08" dur="3s" repeatCount="indefinite" />
			</stop>
			<stop stop-color="#0585e1">
				<animate attributeName="offset" values="-.82;1.18" dur="3s" repeatCount="indefinite" />
			</stop>
			<stop stop-color="#0538bf">
				<animate attributeName="offset" values="-.69;0.31" dur="3s" repeatCount="indefinite" />
			</stop>
			<stop stop-color="#0505a9">
				<animate attributeName="offset" values="-.6;1.4" dur="3s" repeatCount="indefinite" />
			</stop>
			<stop stop-color="#FF0000">
				<animate attributeName="offset" values="-.03;1.97" dur="3s" repeatCount="indefinite" />
			</stop>
			<stop stop-color="#FF0000">
				<animate attributeName="offset" values=".03;2.03" dur="3s" repeatCount="indefinite" />
			</stop>
			<stop stop-color="#0505a9">
				<animate attributeName="offset" values=".6;2.6" dur="3s" repeatCount="indefinite" />
			</stop>
			<stop stop-color="#0538bf">
				<animate attributeName="offset" values=".69;2.69" dur="3s" repeatCount="indefinite" />
			</stop>
			<stop stop-color="#0585e1">
				<animate attributeName="offset" values=".82;2.82" dur="3s" repeatCount="indefinite" />
			</stop>
			<stop stop-color="#05b5f6">
				<animate attributeName="offset" values=".92;2.92" dur="3s" repeatCount="indefinite" />
			</stop>
			<stop stop-color="#05c8ff">
				<animate attributeName="offset" values=".97;2.97" dur="3s" repeatCount="indefinite" />
			</stop>
		</linearGradient>
		<linearGradient id="paint6_linear_2011_289" x1="4.44043" y1="62.94" x2="66.2404" y2="62.94" gradientUnits="userSpaceOnUse">
			<stop stop-color="#FF0000">
				<animate attributeName="offset" values="-1.97;.03" dur="3s" repeatCount="indefinite" />
			</stop>
			<stop stop-color="#0505a9">
				<animate attributeName="offset" values="-1.4;.6" dur="3s" repeatCount="indefinite" />
			</stop>
			<stop stop-color="#0538bf">
				<animate attributeName="offset" values="-1.31;.69" dur="3s" repeatCount="indefinite" />
			</stop>
			<stop stop-color="#0585e1">
				<animate attributeName="offset" values="-1.18;.82" dur="3s" repeatCount="indefinite" />
			</stop>
			<stop stop-color="#05b5f6">
				<animate attributeName="offset" values="-1.08;.92" dur="3s" repeatCount="indefinite" />
			</stop>
			<stop stop-color="#05c8ff">
				<animate attributeName="offset" values="-1.03;.97" dur="3s" repeatCount="indefinite" />
			</stop>
			<stop stop-color="#05c8ff">
				<animate attributeName="offset" values="-.97;1.03" dur="3s" repeatCount="indefinite" />
			</stop>
			<stop stop-color="#05b5f6">
				<animate attributeName="offset" values="-.92;1.08" dur="3s" repeatCount="indefinite" />
			</stop>
			<stop stop-color="#0585e1">
				<animate attributeName="offset" values="-.82;1.18" dur="3s" repeatCount="indefinite" />
			</stop>
			<stop stop-color="#0538bf">
				<animate attributeName="offset" values="-.69;0.31" dur="3s" repeatCount="indefinite" />
			</stop>
			<stop stop-color="#0505a9">
				<animate attributeName="offset" values="-.6;1.4" dur="3s" repeatCount="indefinite" />
			</stop>
			<stop stop-color="#FF0000">
				<animate attributeName="offset" values="-.03;1.97" dur="3s" repeatCount="indefinite" />
			</stop>
			<stop stop-color="#FF0000">
				<animate attributeName="offset" values=".03;2.03" dur="3s" repeatCount="indefinite" />
			</stop>
			<stop stop-color="#0505a9">
				<animate attributeName="offset" values=".6;2.6" dur="3s" repeatCount="indefinite" />
			</stop>
			<stop stop-color="#0538bf">
				<animate attributeName="offset" values=".69;2.69" dur="3s" repeatCount="indefinite" />
			</stop>
			<stop stop-color="#0585e1">
				<animate attributeName="offset" values=".82;2.82" dur="3s" repeatCount="indefinite" />
			</stop>
			<stop stop-color="#05b5f6">
				<animate attributeName="offset" values=".92;2.92" dur="3s" repeatCount="indefinite" />
			</stop>
			<stop stop-color="#05c8ff">
				<animate attributeName="offset" values=".97;2.97" dur="3s" repeatCount="indefinite" />
			</stop>
		</linearGradient>
		<linearGradient id="paint7_linear_2011_289" x1="161.519" y1="46.75" x2="224.459" y2="46.75" gradientUnits="userSpaceOnUse">
			<stop stop-color="#FF0000">
				<animate attributeName="offset" values="-1.97;.03" dur="3s" repeatCount="indefinite" />
			</stop>
			<stop stop-color="#0505a9">
				<animate attributeName="offset" values="-1.4;.6" dur="3s" repeatCount="indefinite" />
			</stop>
			<stop stop-color="#0538bf">
				<animate attributeName="offset" values="-1.31;.69" dur="3s" repeatCount="indefinite" />
			</stop>
			<stop stop-color="#0585e1">
				<animate attributeName="offset" values="-1.18;.82" dur="3s" repeatCount="indefinite" />
			</stop>
			<stop stop-color="#05b5f6">
				<animate attributeName="offset" values="-1.08;.92" dur="3s" repeatCount="indefinite" />
			</stop>
			<stop stop-color="#05c8ff">
				<animate attributeName="offset" values="-1.03;.97" dur="3s" repeatCount="indefinite" />
			</stop>
			<stop stop-color="#05c8ff">
				<animate attributeName="offset" values="-.97;1.03" dur="3s" repeatCount="indefinite" />
			</stop>
			<stop stop-color="#05b5f6">
				<animate attributeName="offset" values="-.92;1.08" dur="3s" repeatCount="indefinite" />
			</stop>
			<stop stop-color="#0585e1">
				<animate attributeName="offset" values="-.82;1.18" dur="3s" repeatCount="indefinite" />
			</stop>
			<stop stop-color="#0538bf">
				<animate attributeName="offset" values="-.69;0.31" dur="3s" repeatCount="indefinite" />
			</stop>
			<stop stop-color="#0505a9">
				<animate attributeName="offset" values="-.6;1.4" dur="3s" repeatCount="indefinite" />
			</stop>
			<stop stop-color="#FF0000">
				<animate attributeName="offset" values="-.03;1.97" dur="3s" repeatCount="indefinite" />
			</stop>
			<stop stop-color="#FF0000">
				<animate attributeName="offset" values=".03;2.03" dur="3s" repeatCount="indefinite" />
			</stop>
			<stop stop-color="#0505a9">
				<animate attributeName="offset" values=".6;2.6" dur="3s" repeatCount="indefinite" />
			</stop>
			<stop stop-color="#0538bf">
				<animate attributeName="offset" values=".69;2.69" dur="3s" repeatCount="indefinite" />
			</stop>
			<stop stop-color="#0585e1">
				<animate attributeName="offset" values=".82;2.82" dur="3s" repeatCount="indefinite" />
			</stop>
			<stop stop-color="#05b5f6">
				<animate attributeName="offset" values=".92;2.92" dur="3s" repeatCount="indefinite" />
			</stop>
			<stop stop-color="#05c8ff">
				<animate attributeName="offset" values=".97;2.97" dur="3s" repeatCount="indefinite" />
			</stop>
		</linearGradient>
		<linearGradient id="paint8_linear_2011_289" x1="160.23" y1="62.94" x2="223.85" y2="62.94" gradientUnits="userSpaceOnUse">
			<stop stop-color="#FF0000">
				<animate attributeName="offset" values="-1.97;.03" dur="3s" repeatCount="indefinite" />
			</stop>
			<stop stop-color="#0505a9">
				<animate attributeName="offset" values="-1.4;.6" dur="3s" repeatCount="indefinite" />
			</stop>
			<stop stop-color="#0538bf">
				<animate attributeName="offset" values="-1.31;.69" dur="3s" repeatCount="indefinite" />
			</stop>
			<stop stop-color="#0585e1">
				<animate attributeName="offset" values="-1.18;.82" dur="3s" repeatCount="indefinite" />
			</stop>
			<stop stop-color="#05b5f6">
				<animate attributeName="offset" values="-1.08;.92" dur="3s" repeatCount="indefinite" />
			</stop>
			<stop stop-color="#05c8ff">
				<animate attributeName="offset" values="-1.03;.97" dur="3s" repeatCount="indefinite" />
			</stop>
			<stop stop-color="#05c8ff">
				<animate attributeName="offset" values="-.97;1.03" dur="3s" repeatCount="indefinite" />
			</stop>
			<stop stop-color="#05b5f6">
				<animate attributeName="offset" values="-.92;1.08" dur="3s" repeatCount="indefinite" />
			</stop>
			<stop stop-color="#0585e1">
				<animate attributeName="offset" values="-.82;1.18" dur="3s" repeatCount="indefinite" />
			</stop>
			<stop stop-color="#0538bf">
				<animate attributeName="offset" values="-.69;0.31" dur="3s" repeatCount="indefinite" />
			</stop>
			<stop stop-color="#0505a9">
				<animate attributeName="offset" values="-.6;1.4" dur="3s" repeatCount="indefinite" />
			</stop>
			<stop stop-color="#FF0000">
				<animate attributeName="offset" values="-.03;1.97" dur="3s" repeatCount="indefinite" />
			</stop>
			<stop stop-color="#FF0000">
				<animate attributeName="offset" values=".03;2.03" dur="3s" repeatCount="indefinite" />
			</stop>
			<stop stop-color="#0505a9">
				<animate attributeName="offset" values=".6;2.6" dur="3s" repeatCount="indefinite" />
			</stop>
			<stop stop-color="#0538bf">
				<animate attributeName="offset" values=".69;2.69" dur="3s" repeatCount="indefinite" />
			</stop>
			<stop stop-color="#0585e1">
				<animate attributeName="offset" values=".82;2.82" dur="3s" repeatCount="indefinite" />
			</stop>
			<stop stop-color="#05b5f6">
				<animate attributeName="offset" values=".92;2.92" dur="3s" repeatCount="indefinite" />
			</stop>
			<stop stop-color="#05c8ff">
				<animate attributeName="offset" values=".97;2.97" dur="3s" repeatCount="indefinite" />
			</stop>
		</linearGradient>
		<linearGradient id="paint9_linear_2011_289" x1="161.519" y1="46.75" x2="224.459" y2="46.75" gradientUnits="userSpaceOnUse">
			<stop stop-color="#FF0000">
				<animate attributeName="offset" values="-1.97;.03" dur="3s" repeatCount="indefinite" />
			</stop>
			<stop stop-color="#0505a9">
				<animate attributeName="offset" values="-1.4;.6" dur="3s" repeatCount="indefinite" />
			</stop>
			<stop stop-color="#0538bf">
				<animate attributeName="offset" values="-1.31;.69" dur="3s" repeatCount="indefinite" />
			</stop>
			<stop stop-color="#0585e1">
				<animate attributeName="offset" values="-1.18;.82" dur="3s" repeatCount="indefinite" />
			</stop>
			<stop stop-color="#05b5f6">
				<animate attributeName="offset" values="-1.08;.92" dur="3s" repeatCount="indefinite" />
			</stop>
			<stop stop-color="#05c8ff">
				<animate attributeName="offset" values="-1.03;.97" dur="3s" repeatCount="indefinite" />
			</stop>
			<stop stop-color="#05c8ff">
				<animate attributeName="offset" values="-.97;1.03" dur="3s" repeatCount="indefinite" />
			</stop>
			<stop stop-color="#05b5f6">
				<animate attributeName="offset" values="-.92;1.08" dur="3s" repeatCount="indefinite" />
			</stop>
			<stop stop-color="#0585e1">
				<animate attributeName="offset" values="-.82;1.18" dur="3s" repeatCount="indefinite" />
			</stop>
			<stop stop-color="#0538bf">
				<animate attributeName="offset" values="-.69;0.31" dur="3s" repeatCount="indefinite" />
			</stop>
			<stop stop-color="#0505a9">
				<animate attributeName="offset" values="-.6;1.4" dur="3s" repeatCount="indefinite" />
			</stop>
			<stop stop-color="#FF0000">
				<animate attributeName="offset" values="-.03;1.97" dur="3s" repeatCount="indefinite" />
			</stop>
			<stop stop-color="#FF0000">
				<animate attributeName="offset" values=".03;2.03" dur="3s" repeatCount="indefinite" />
			</stop>
			<stop stop-color="#0505a9">
				<animate attributeName="offset" values=".6;2.6" dur="3s" repeatCount="indefinite" />
			</stop>
			<stop stop-color="#0538bf">
				<animate attributeName="offset" values=".69;2.69" dur="3s" repeatCount="indefinite" />
			</stop>
			<stop stop-color="#0585e1">
				<animate attributeName="offset" values=".82;2.82" dur="3s" repeatCount="indefinite" />
			</stop>
			<stop stop-color="#05b5f6">
				<animate attributeName="offset" values=".92;2.92" dur="3s" repeatCount="indefinite" />
			</stop>
			<stop stop-color="#05c8ff">
				<animate attributeName="offset" values=".97;2.97" dur="3s" repeatCount="indefinite" />
			</stop>
		</linearGradient>
		<linearGradient id="paint10_linear_2011_289" x1="160.23" y1="62.94" x2="223.85" y2="62.94" gradientUnits="userSpaceOnUse">
			<stop stop-color="#FF0000">
				<animate attributeName="offset" values="-1.97;.03" dur="3s" repeatCount="indefinite" />
			</stop>
			<stop stop-color="#0505a9">
				<animate attributeName="offset" values="-1.4;.6" dur="3s" repeatCount="indefinite" />
			</stop>
			<stop stop-color="#0538bf">
				<animate attributeName="offset" values="-1.31;.69" dur="3s" repeatCount="indefinite" />
			</stop>
			<stop stop-color="#0585e1">
				<animate attributeName="offset" values="-1.18;.82" dur="3s" repeatCount="indefinite" />
			</stop>
			<stop stop-color="#05b5f6">
				<animate attributeName="offset" values="-1.08;.92" dur="3s" repeatCount="indefinite" />
			</stop>
			<stop stop-color="#05c8ff">
				<animate attributeName="offset" values="-1.03;.97" dur="3s" repeatCount="indefinite" />
			</stop>
			<stop stop-color="#05c8ff">
				<animate attributeName="offset" values="-.97;1.03" dur="3s" repeatCount="indefinite" />
			</stop>
			<stop stop-color="#05b5f6">
				<animate attributeName="offset" values="-.92;1.08" dur="3s" repeatCount="indefinite" />
			</stop>
			<stop stop-color="#0585e1">
				<animate attributeName="offset" values="-.82;1.18" dur="3s" repeatCount="indefinite" />
			</stop>
			<stop stop-color="#0538bf">
				<animate attributeName="offset" values="-.69;0.31" dur="3s" repeatCount="indefinite" />
			</stop>
			<stop stop-color="#0505a9">
				<animate attributeName="offset" values="-.6;1.4" dur="3s" repeatCount="indefinite" />
			</stop>
			<stop stop-color="#FF0000">
				<animate attributeName="offset" values="-.03;1.97" dur="3s" repeatCount="indefinite" />
			</stop>
			<stop stop-color="#FF0000">
				<animate attributeName="offset" values=".03;2.03" dur="3s" repeatCount="indefinite" />
			</stop>
			<stop stop-color="#0505a9">
				<animate attributeName="offset" values=".6;2.6" dur="3s" repeatCount="indefinite" />
			</stop>
			<stop stop-color="#0538bf">
				<animate attributeName="offset" values=".69;2.69" dur="3s" repeatCount="indefinite" />
			</stop>
			<stop stop-color="#0585e1">
				<animate attributeName="offset" values=".82;2.82" dur="3s" repeatCount="indefinite" />
			</stop>
			<stop stop-color="#05b5f6">
				<animate attributeName="offset" values=".92;2.92" dur="3s" repeatCount="indefinite" />
			</stop>
			<stop stop-color="#05c8ff">
				<animate attributeName="offset" values=".97;2.97" dur="3s" repeatCount="indefinite" />
			</stop>
		</linearGradient>
		<linearGradient id="paint11_linear_2011_289" x1="236.8" y1="54.6" x2="292.51" y2="54.6" gradientUnits="userSpaceOnUse">
			<stop stop-color="#FF0000">
				<animate attributeName="offset" values="-1.97;.03" dur="3s" repeatCount="indefinite" />
			</stop>
			<stop stop-color="#0505a9">
				<animate attributeName="offset" values="-1.4;.6" dur="3s" repeatCount="indefinite" />
			</stop>
			<stop stop-color="#0538bf">
				<animate attributeName="offset" values="-1.31;.69" dur="3s" repeatCount="indefinite" />
			</stop>
			<stop stop-color="#0585e1">
				<animate attributeName="offset" values="-1.18;.82" dur="3s" repeatCount="indefinite" />
			</stop>
			<stop stop-color="#05b5f6">
				<animate attributeName="offset" values="-1.08;.92" dur="3s" repeatCount="indefinite" />
			</stop>
			<stop stop-color="#05c8ff">
				<animate attributeName="offset" values="-1.03;.97" dur="3s" repeatCount="indefinite" />
			</stop>
			<stop stop-color="#05c8ff">
				<animate attributeName="offset" values="-.97;1.03" dur="3s" repeatCount="indefinite" />
			</stop>
			<stop stop-color="#05b5f6">
				<animate attributeName="offset" values="-.92;1.08" dur="3s" repeatCount="indefinite" />
			</stop>
			<stop stop-color="#0585e1">
				<animate attributeName="offset" values="-.82;1.18" dur="3s" repeatCount="indefinite" />
			</stop>
			<stop stop-color="#0538bf">
				<animate attributeName="offset" values="-.69;0.31" dur="3s" repeatCount="indefinite" />
			</stop>
			<stop stop-color="#0505a9">
				<animate attributeName="offset" values="-.6;1.4" dur="3s" repeatCount="indefinite" />
			</stop>
			<stop stop-color="#FF0000">
				<animate attributeName="offset" values="-.03;1.97" dur="3s" repeatCount="indefinite" />
			</stop>
			<stop stop-color="#FF0000">
				<animate attributeName="offset" values=".03;2.03" dur="3s" repeatCount="indefinite" />
			</stop>
			<stop stop-color="#0505a9">
				<animate attributeName="offset" values=".6;2.6" dur="3s" repeatCount="indefinite" />
			</stop>
			<stop stop-color="#0538bf">
				<animate attributeName="offset" values=".69;2.69" dur="3s" repeatCount="indefinite" />
			</stop>
			<stop stop-color="#0585e1">
				<animate attributeName="offset" values=".82;2.82" dur="3s" repeatCount="indefinite" />
			</stop>
			<stop stop-color="#05b5f6">
				<animate attributeName="offset" values=".92;2.92" dur="3s" repeatCount="indefinite" />
			</stop>
			<stop stop-color="#05c8ff">
				<animate attributeName="offset" values=".97;2.97" dur="3s" repeatCount="indefinite" />
			</stop>
		</linearGradient>
		<clipPath id="clip0_2011_289">
			<rect width="427.82" height="110.06" fill="white" />
		</clipPath>
	</defs>
</svg>