<?xml version="1.0" encoding="UTF-8"?>
<svg id="Layer_1" xmlns="http://www.w3.org/2000/svg" xmlns:xlink="http://www.w3.org/1999/xlink" viewBox="0 0 1584.24 500.01">
	<defs>
		<clipPath id="clippath">
			<rect width="1584.23" height="800" y="-150" style="fill:none;" />
		</clipPath>
		<clipPath id="clippath20">
			<rect width="740" height="500" x="0" y="0" style="fill:none; transform-origin:left center;">
				<animate attributeName="opacity" from="0" to="1" dur="2s" fill="freeze" />
				<animateTransform attributeName="transform" type="scale" from="3" to="1" dur="2s" fill="freeze" />
			</rect>
		</clipPath>
		<linearGradient id="linear-gradient" x1="515.77" y1="711.16" x2="515.77" y2="471.96" gradientTransform="translate(0 -340.18)" gradientUnits="userSpaceOnUse">
			<stop offset=".03" stop-color="red" />
			<stop offset=".6" stop-color="#0505a9" />
			<stop offset=".69" stop-color="#0538bf" />
			<stop offset=".82" stop-color="#0585e1" />
			<stop offset=".92" stop-color="#05b5f6" />
			<stop offset=".97" stop-color="#05c8ff" />
		</linearGradient>
		<linearGradient id="linear-gradient-2" x1="273.28" y1="592.37" x2="696.25" y2="592.37" gradientTransform="translate(0 -340.18)" gradientUnits="userSpaceOnUse">
			<stop stop-color="#FF0000">
				<animate attributeName="offset" values="-1.97;.03" dur="3s" repeatCount="indefinite" />
			</stop>
			<stop stop-color="#0505a9">
				<animate attributeName="offset" values="-1.4;.6" dur="3s" repeatCount="indefinite" />
			</stop>
			<stop stop-color="#0538bf">
				<animate attributeName="offset" values="-1.31;.69" dur="3s" repeatCount="indefinite" />
			</stop>
			<stop stop-color="#0585e1">
				<animate attributeName="offset" values="-1.18;.82" dur="3s" repeatCount="indefinite" />
			</stop>
			<stop stop-color="#05b5f6">
				<animate attributeName="offset" values="-1.08;.92" dur="3s" repeatCount="indefinite" />
			</stop>
			<stop stop-color="#05c8ff">
				<animate attributeName="offset" values="-1.03;.97" dur="3s" repeatCount="indefinite" />
			</stop>
			<stop stop-color="#05c8ff">
				<animate attributeName="offset" values="-.97;1.03" dur="3s" repeatCount="indefinite" />
			</stop>
			<stop stop-color="#05b5f6">
				<animate attributeName="offset" values="-.92;1.08" dur="3s" repeatCount="indefinite" />
			</stop>
			<stop stop-color="#0585e1">
				<animate attributeName="offset" values="-.82;1.18" dur="3s" repeatCount="indefinite" />
			</stop>
			<stop stop-color="#0538bf">
				<animate attributeName="offset" values="-.69;0.31" dur="3s" repeatCount="indefinite" />
			</stop>
			<stop stop-color="#0505a9">
				<animate attributeName="offset" values="-.6;1.4" dur="3s" repeatCount="indefinite" />
			</stop>
			<stop stop-color="#FF0000">
				<animate attributeName="offset" values="-.03;1.97" dur="3s" repeatCount="indefinite" />
			</stop>
			<stop stop-color="#FF0000">
				<animate attributeName="offset" values=".03;2.03" dur="3s" repeatCount="indefinite" />
			</stop>
			<stop stop-color="#0505a9">
				<animate attributeName="offset" values=".6;2.6" dur="3s" repeatCount="indefinite" />
			</stop>
			<stop stop-color="#0538bf">
				<animate attributeName="offset" values=".69;2.69" dur="3s" repeatCount="indefinite" />
			</stop>
			<stop stop-color="#0585e1">
				<animate attributeName="offset" values=".82;2.82" dur="3s" repeatCount="indefinite" />
			</stop>
			<stop stop-color="#05b5f6">
				<animate attributeName="offset" values=".92;2.92" dur="3s" repeatCount="indefinite" />
			</stop>
			<stop stop-color="#05c8ff">
				<animate attributeName="offset" values=".97;2.97" dur="3s" repeatCount="indefinite" />
			</stop>
		</linearGradient>
		<linearGradient id="linear-gradient-3" x1="0" y1="590.18" x2="723.02" y2="590.18" gradientTransform="translate(0 -340.18)" gradientUnits="userSpaceOnUse">
			<stop stop-color="#FF0000">
				<animate attributeName="offset" values="-1.97;.03" dur="3s" repeatCount="indefinite" />
			</stop>
			<stop stop-color="#0505a9">
				<animate attributeName="offset" values="-1.4;.6" dur="3s" repeatCount="indefinite" />
			</stop>
			<stop stop-color="#0538bf">
				<animate attributeName="offset" values="-1.31;.69" dur="3s" repeatCount="indefinite" />
			</stop>
			<stop stop-color="#0585e1">
				<animate attributeName="offset" values="-1.18;.82" dur="3s" repeatCount="indefinite" />
			</stop>
			<stop stop-color="#05b5f6">
				<animate attributeName="offset" values="-1.08;.92" dur="3s" repeatCount="indefinite" />
			</stop>
			<stop stop-color="#05c8ff">
				<animate attributeName="offset" values="-1.03;.97" dur="3s" repeatCount="indefinite" />
			</stop>
			<stop stop-color="#05c8ff">
				<animate attributeName="offset" values="-.97;1.03" dur="3s" repeatCount="indefinite" />
			</stop>
			<stop stop-color="#05b5f6">
				<animate attributeName="offset" values="-.92;1.08" dur="3s" repeatCount="indefinite" />
			</stop>
			<stop stop-color="#0585e1">
				<animate attributeName="offset" values="-.82;1.18" dur="3s" repeatCount="indefinite" />
			</stop>
			<stop stop-color="#0538bf">
				<animate attributeName="offset" values="-.69;0.31" dur="3s" repeatCount="indefinite" />
			</stop>
			<stop stop-color="#0505a9">
				<animate attributeName="offset" values="-.6;1.4" dur="3s" repeatCount="indefinite" />
			</stop>
			<stop stop-color="#FF0000">
				<animate attributeName="offset" values="-.03;1.97" dur="3s" repeatCount="indefinite" />
			</stop>
			<stop stop-color="#FF0000">
				<animate attributeName="offset" values=".03;2.03" dur="3s" repeatCount="indefinite" />
			</stop>
			<stop stop-color="#0505a9">
				<animate attributeName="offset" values=".6;2.6" dur="3s" repeatCount="indefinite" />
			</stop>
			<stop stop-color="#0538bf">
				<animate attributeName="offset" values=".69;2.69" dur="3s" repeatCount="indefinite" />
			</stop>
			<stop stop-color="#0585e1">
				<animate attributeName="offset" values=".82;2.82" dur="3s" repeatCount="indefinite" />
			</stop>
			<stop stop-color="#05b5f6">
				<animate attributeName="offset" values=".92;2.92" dur="3s" repeatCount="indefinite" />
			</stop>
			<stop stop-color="#05c8ff">
				<animate attributeName="offset" values=".97;2.97" dur="3s" repeatCount="indefinite" />
			</stop>
		</linearGradient>
		<linearGradient id="linear-gradient-4" x1="24.24" y1="590.21" x2="361.87" y2="590.21" gradientTransform="translate(0 -340.18)" gradientUnits="userSpaceOnUse">
			<stop stop-color="#FF0000">
				<animate attributeName="offset" values="-1.97;.03" dur="3s" repeatCount="indefinite" />
			</stop>
			<stop stop-color="#0505a9">
				<animate attributeName="offset" values="-1.4;.6" dur="3s" repeatCount="indefinite" />
			</stop>
			<stop stop-color="#0538bf">
				<animate attributeName="offset" values="-1.31;.69" dur="3s" repeatCount="indefinite" />
			</stop>
			<stop stop-color="#0585e1">
				<animate attributeName="offset" values="-1.18;.82" dur="3s" repeatCount="indefinite" />
			</stop>
			<stop stop-color="#05b5f6">
				<animate attributeName="offset" values="-1.08;.92" dur="3s" repeatCount="indefinite" />
			</stop>
			<stop stop-color="#05c8ff">
				<animate attributeName="offset" values="-1.03;.97" dur="3s" repeatCount="indefinite" />
			</stop>
			<stop stop-color="#05c8ff">
				<animate attributeName="offset" values="-.97;1.03" dur="3s" repeatCount="indefinite" />
			</stop>
			<stop stop-color="#05b5f6">
				<animate attributeName="offset" values="-.92;1.08" dur="3s" repeatCount="indefinite" />
			</stop>
			<stop stop-color="#0585e1">
				<animate attributeName="offset" values="-.82;1.18" dur="3s" repeatCount="indefinite" />
			</stop>
			<stop stop-color="#0538bf">
				<animate attributeName="offset" values="-.69;0.31" dur="3s" repeatCount="indefinite" />
			</stop>
			<stop stop-color="#0505a9">
				<animate attributeName="offset" values="-.6;1.4" dur="3s" repeatCount="indefinite" />
			</stop>
			<stop stop-color="#FF0000">
				<animate attributeName="offset" values="-.03;1.97" dur="3s" repeatCount="indefinite" />
			</stop>
			<stop stop-color="#FF0000">
				<animate attributeName="offset" values=".03;2.03" dur="3s" repeatCount="indefinite" />
			</stop>
			<stop stop-color="#0505a9">
				<animate attributeName="offset" values=".6;2.6" dur="3s" repeatCount="indefinite" />
			</stop>
			<stop stop-color="#0538bf">
				<animate attributeName="offset" values=".69;2.69" dur="3s" repeatCount="indefinite" />
			</stop>
			<stop stop-color="#0585e1">
				<animate attributeName="offset" values=".82;2.82" dur="3s" repeatCount="indefinite" />
			</stop>
			<stop stop-color="#05b5f6">
				<animate attributeName="offset" values=".92;2.92" dur="3s" repeatCount="indefinite" />
			</stop>
			<stop stop-color="#05c8ff">
				<animate attributeName="offset" values=".97;2.97" dur="3s" repeatCount="indefinite" />
			</stop>
		</linearGradient>
	</defs>
	<g width="1584.23" height="800" style="clip-path:url(#clippath);">
		<g style="clip-path:url(#clippath20); transform-origin: 0% 50%;" height="800">
			<animate attributeName="opacity" from="0" to="1" dur="2s" begin="0s" fill="freeze" />
			<animateTransform attributeName="transform" type="scale" from="3" to="1" dur="2s" begin="0s" fill="freeze" />
			<path d="m357.45,475.76H36.55c-2.42,0-4.39-1.96-4.39-4.39v-94.8c0-1.12.43-2.22,1.2-3.03l130.48-137.16c35.01-39.97,37.72-57.63,37.72-62.09,0-12.74-2.84-17.13-3.71-18.17-1.38-1.65-5.1-1.98-8-1.98s-5.1.35-8.36,4.8c-4.56,6.21-6.76,14.43-6.76,25.13v26.19c0,2.42-1.96,4.39-4.39,4.39H28.63c-2.42,0-4.39-1.96-4.39-4.39v-26.19c0-29.04,7.38-56.29,21.96-80.95,14.62-24.78,35.15-44.39,61.01-58.3,25.38-13.64,53.9-20.56,84.79-20.56,48.87,0,87.89,12.17,115.95,36.15,29.47,25.19,44.41,60.85,44.41,105.97,0,18.93-3.57,37.58-10.57,55.45-6.64,16.89-16.84,34.52-30.35,52.44-12.75,16.9-32.21,38.4-59.5,65.73l-5.13,5.93h110.67c2.42,0,4.39,1.96,4.39,4.39v121.1c0,2.42-1.96,4.39-4.39,4.39l-.02-.03v-.02Zm-316.51-8.79h312.11v-112.31h-115.9c-1.73,0-3.28-1-3.99-2.57s-.44-3.41.68-4.7l11.53-13.31s.14-.16.21-.22c27.06-27.09,46.29-48.32,58.81-64.92,13.02-17.27,22.84-34.2,29.18-50.35,6.61-16.84,9.97-34.41,9.97-52.23,0-42.44-13.91-75.84-41.33-99.3-26.42-22.59-63.51-34.03-110.23-34.03-29.42,0-56.54,6.56-80.62,19.52-24.43,13.13-43.8,31.65-57.6,55.04-13.75,23.3-20.74,49.05-20.74,76.49v21.8h132.93v-21.8c0-12.63,2.77-22.54,8.48-30.32,4.37-5.97,8.86-8.4,15.46-8.4,9.35,0,12.88,2.93,14.73,5.13,2.63,3.15,5.77,9.82,5.77,23.81,0,8.35-5.2,28.26-39.97,67.95-.05.05-.08.1-.13.13L40.95,378.32v88.65h-.02.01Z" style="fill:url(#linear-gradient-4);" />
			<path d="m718.78,353.51h-5.5c-38.2,81.27-120.84,137.69-216.44,137.69-39.27,0-78.37-9.84-113.08-28.45-.65-.35-1.36-.52-2.08-.52-.78,0-1.57.21-2.25.62-1.33.79-2.14,2.22-2.14,3.77v24.59H16.71v-122.57l124.74-131.14c1.2-1.27,1.55-3.15.86-4.75-.7-1.62-2.28-2.66-4.04-2.66H8.79v-46.02c0-31.84,8.11-61.72,24.1-88.81,16.08-27.25,38.62-48.79,67-64.05,27.64-14.86,58.63-22.4,92.11-22.4,52.66,0,95.04,13.4,125.98,39.84,7.02,5.99,13.4,12.66,18.99,19.83.73.93,1.82,1.54,2.99,1.66,1.19.11,2.36-.24,3.28-1,43.06-36.07,97.62-55.94,153.61-55.94,95.15,0,177.48,55.89,215.92,136.58h3.8c2.04,0,4.02.08,6,.21C683.55,64.19,597.05,4.4,496.85,4.4c-56.56,0-111.7,19.55-155.79,55.15-5.26-6.31-11.09-12.2-17.39-17.58C291.1,14.12,246.79,0,191.98,0c-34.93,0-67.33,7.89-96.26,23.45-29.8,16.03-53.48,38.69-70.4,67.33C8.52,119.23,0,150.61,0,184.06v50.43c0,2.42,1.96,4.39,4.39,4.39h123.63L9.14,363.85c-.78.82-1.2,1.9-1.2,3.03v128.72c0,2.42,1.96,4.39,4.39,4.39h369.36c2.42,0,4.39-1.96,4.39-4.39v-21.75c34.33,17.13,72.48,26.16,110.77,26.16,100.6,0,187.38-60.26,226.17-146.57-1.39.06-2.8.09-4.23.09v-.02h0Z" style="fill:url(#linear-gradient-3);" />
			<path d="m686.33,353.51c-9.85,18.38-22.46,35.39-37.63,50.55-40.57,40.57-94.5,62.91-151.86,62.91s-111.31-22.34-151.86-62.91c-40.56-40.57-62.91-94.5-62.91-151.86s22.34-111.31,62.91-151.86c40.57-40.57,94.5-62.91,151.86-62.91s111.31,22.34,151.86,62.91c14.84,14.84,27.25,31.49,37.01,49.43h9.95c-10.47-20.28-24.13-39.04-40.73-55.65-42.22-42.22-98.36-65.48-158.08-65.48s-115.86,23.26-158.09,65.48c-42.22,42.22-65.48,98.37-65.48,158.08s23.26,115.86,65.48,158.07c42.22,42.22,98.36,65.48,158.09,65.48s115.86-23.26,158.08-65.48c16.9-16.9,30.77-36.06,41.32-56.76h-9.92Z" style="fill:url(#linear-gradient-2);" />
		</g>
		<path d="m761.07,260.26c-4.59-5.85-10.99-10.01-17.95-12.1-.28,0-.28-.14-.28-.14.14,0,.28-.14.41-.14h.14c8.06-2.91,21.56-11.55,21.56-37.28s-18.77-42.14-48.4-42.14h-59.12c-1.95,0-3.47,1.54-3.47,3.47v159.55c0,.84.28,1.66.97,2.36.55.55,1.39.97,2.36.97h61.48c31.02,0,50.63-18.36,50.63-47.99,0-10.57-2.79-19.47-8.35-26.57l.02.02h0Zm-68.58-60.38h16c11.26,0,17.66,5.85,17.66,16.13,0,12.37-5.7,19.2-16.27,19.2h-17.38v-35.33h-.02.01Zm17.95,104.46h-17.81v-41.44h16.13c12.37.14,19.33,7.51,19.33,20.31,0,13.77-6.11,21.15-17.66,21.15l.02-.02h-.01Z" style="fill:#041460;" />
		<path d="m848,213.11c1.66.41,2.79,1.66,2.79,3.34v30.47c0,.7-.41,1.54-.97,1.95-.55.41-1.25.55-1.95.41-4.17-1.11-8.21-2.22-13.5-1.66-6.96.55-12.1,4.04-17.52,7.92v75.81c0,.97-.41,1.81-.97,2.36-.7.7-1.54.97-2.36.97h-29.21c-1.95,0-3.47-1.54-3.47-3.47v-115.44c0-1.95,1.54-3.47,3.47-3.47h23.51c1.81,0,3.47,1.11,4.17,2.79,1.54,3.9,2.91,8.62,3.9,12.94.14-.14.14-.28.28-.28,5.56-6.95,11.12-14.2,21.28-15.57,3.61-.28,7.65.14,10.57.97l-.02-.02v-.02Zm735.96,41.03c0-28.93-12.66-43.68-37.69-43.68-13.91,0-23.5,6.54-31.02,12.94-.84-2.92-1.66-5.7-2.65-8.21-.7-1.66-2.36-2.79-4.16-2.79h-23.36c-1.95,0-3.47,1.54-3.47,3.47v115.44c0,1.95,1.53,3.47,3.47,3.47h29.21c1.95,0,3.47-1.54,3.47-3.47v-81.51c2.22-2.09,7.92-6.67,15.44-6.67,10.43,0,15.03,5.99,15.03,19.33v68.85c0,1.95,1.53,3.47,3.47,3.47h29.07c1.94,0,3.47-1.54,3.47-3.47-.29-11.69-.29-54.39-.29-77.2m-242.17-41.73h-29.21c-1.94,0-3.47,1.54-3.47,3.47v115.44c0,1.95,1.53,3.47,3.47,3.47h29.21c1.95,0,3.48-1.54,3.48-3.47v-115.44c0-1.95-1.54-3.47-3.48-3.47Zm-4.3-53.42c-2.22-1.25-4.86-2.09-8.06-2.36-3.91-.28-7.24.14-10.43,1.54-6.54,2.79-13.06,10.71-11.82,21.28.7,5.99,3.62,10.85,8.35,14.32,3.35,2.5,7.37,3.75,11.7,3.75h.28c3.06,0,5.85-.55,8.35-1.54,7.65-3.2,12.51-11.41,12.11-19.9-.56-7.51-4.05-13.21-10.44-17.11m-428.69,51.19c17.52,0,31.99,6.11,41.87,17.66,9.46,11.12,14.46,27.12,14.46,46.04,0,36.99-23.65,63.84-56.33,63.84-17.52,0-31.99-6.12-41.87-17.66-9.46-11.12-14.46-27.12-14.46-46.04,0-36.99,23.78-63.84,56.34-63.84h-.01Zm18.92,63.84c0-22.81-6.4-33.38-18.92-33.38s-18.92,10.43-18.92,33.38,6.4,33.38,18.92,33.38,18.92-10.57,18.92-33.38Zm540.81-61.63c1.39.41,2.36,1.81,2.36,3.34v25.17c0,.7-.29,1.39-.84,1.95-.56.41-1.26.7-1.95.41-4.16-.97-9.05-1.11-13.35-.7,1.39,3.9,2.09,8.06,2.09,12.1,0,27.26-19.06,44.79-48.54,44.79h-2.65c-4.16-.28-7.09.28-8.49,1.66-.7.55-.97,1.39-.97,2.36,0,2.5,1.26,4.59,10.57,5.01,0,0,1.53,0,18.21.84,27.96,1.39,42.15,13.91,42.15,36.72,0,10.99-4.74,21.42-13.5,28.79-10.57,9.05-26.28,13.62-46.59,13.62-31.86,0-51.74-12.37-51.74-31.57,0-11.26,8.06-21.97,19.2-25.87-7.24-5.42-10.15-13.07-10.15-19.61,0-7.51,4.59-14.61,12.65-19.9-11.27-7.65-17.38-20.58-17.38-36.72,0-27.26,19.2-44.79,48.82-44.79,11.41,0,23.09,4.04,31.71,10.99,6.55-6.11,13.91-9.32,21.83-9.32,2.09-.14,4.45.14,6.55.7m-72.2,125.6c-6.26,3.06-9.46,7.51-9.46,12.94,0,8.62,7.09,12.52,21.15,12.52,15.57,0,23.92-4.17,24.06-12.94.29-7.24-4.86-10.99-15.3-11.55l-20.46-.97h0Zm25.88-84.15c0-10.85-5.29-17.25-14.05-17.25s-14.06,6.4-14.06,17.25,5.29,17.25,14.06,17.25,14.05-6.54,14.05-17.25Zm-399.22-43.39c31.72,0,45.9,15.02,45.9,45.77v75.11c0,1.95-1.54,3.47-3.48,3.47h-22.4c-1.8,0-3.47-1.11-4.16-2.79-.7-1.95-1.53-4.17-2.22-6.54-5.84,6.81-16.7,11.41-27.12,11.41-22.4,0-37.56-15.86-37.56-39.37s18.77-39.64,47.98-39.64c4.87,0,9.47.14,13.07.55l.15-2.5c0-9.74-3.06-15.72-18.22-15.72-10.56,0-24.33,4.86-30.73,7.65-.7.28-1.66.28-2.36-.14-.7-.43-1.11-1.25-1.11-2.09v-23.92c0-1.81.97-3.34,2.65-4.04,8.21-3.47,26.16-7.24,39.64-7.24m-15.86,84.57c0,5.42,4.45,10.85,13.07,10.85,4.59,0,9.05-1.66,12.8-4.86v-16.7c-1.95-.28-4.86-.28-8.06-.28-10.44-.14-17.82,4.45-17.82,10.99h.01Zm180.41-131.3c1.95,0,3.48,1.54,3.48,3.47v164.13c0,1.95-1.54,3.47-3.48,3.47h-23.65c-1.8,0-3.47-1.11-4.16-2.79-.84-1.95-1.53-4.17-2.21-6.67-8.77,9.17-20.86,12.52-29.36,12.52-28.37,0-46.03-24.48-46.03-63.84s18.07-63.7,46.03-63.7c6.82,0,17.12,2.09,25.74,8.06v-51.33c0-1.95,1.53-3.47,3.47-3.47h30.18m-50.35,142.44c7.79,0,13.76-5.85,16.82-11.26v-41.73c-3.06-5.42-9.05-11.12-16.82-11.12-11.7,0-17.39,10.42-17.39,31.86-.14,21.7,5.57,32.27,17.39,32.27m126.99-46.47c-12.65-5.56-22.26-8.49-22.26-13.91,0-2.79,2.79-5.99,11.55-5.99,11.12,0,21.98,3.2,34.92,9.32,1.66.84,3.47-.41,3.47-2.22v-25.6c0-1.66-.97-3.06-2.36-3.76-9.18-4.31-23.51-7.37-36.03-7.37-26.28,0-48.12,12.1-48.12,36.99,0,19.76,12.11,31.02,34.63,40.33,11.96,5.01,20.86,7.51,20.71,13.21,0,2.79-2.36,6.11-13.76,6.11s-25.32-4.45-36.32-9.87c-1.66-.84-3.61.41-3.61,2.22v26.43c0,1.66.97,3.06,2.36,3.75,10.85,5.29,24.33,7.65,37.41,7.65,26.85,0,50.5-12.66,50.5-37.69.14-19.9-11.41-30.04-33.11-39.64h0l.02.04Z" style="fill:#041460;" />
		<path d="m542.77,189.41l-54.02-31.19-44.2-25.52c-4.37-2.52-9.82.63-9.82,5.67v226.8c0,5.04,5.45,8.19,9.82,5.67l44.2-25.52,54.02-31.19,49.7-28.69c2.68-1.54,4.33-4.39,4.33-7.48v-52.39c0-3.09-1.65-5.94-4.33-7.48l-49.7-28.69v.02h0Zm-54.02,93.55v-62.37l54.02,31.19-54.02,31.19v-.02h0Z" style="fill:url(#linear-gradient);" />
	</g>
</svg>