<svg id="Layer_1" data-name="Layer 1" xmlns="http://www.w3.org/2000/svg" viewBox="0 0 247.62 68.68"><defs><style>.cls-1{fill:#ff6c00;}.cls-2{fill:#a0a0a0;}</style></defs><path class="cls-1" d="M120.26,50.08A21.69,21.69,0,0,1,98.62,28.41V8a7.35,7.35,0,1,1,14.7,0V28.41a7,7,0,0,0,13.94,0V8.21a7.35,7.35,0,1,1,14.7,0v20.2a21.71,21.71,0,0,1-21.67,21.67" transform="translate(0 0)"/><path class="cls-1" d="M166.16,49.69H156.3a7.35,7.35,0,0,1,0-14.7h9.86a9.8,9.8,0,0,0,0-19.6h-9.95a7.35,7.35,0,0,1,0-14.7h9.95a24.5,24.5,0,1,1,0,49" transform="translate(0 0)"/><path class="cls-1" d="M77.24,29.8,62.8,4.08a7.49,7.49,0,0,0-13.11,7.24l14.7,26.06" transform="translate(0 0)"/><path class="cls-1" d="M66.28,49.12a7.74,7.74,0,0,0,11-7V29.84H61.8V42.12a7.74,7.74,0,0,0,4.48,7" transform="translate(0 0)"/><path class="cls-1" d="M30.49,1.26a7.72,7.72,0,0,0-9.44,1.56l5.69,21.11,6.78-12.15a7.73,7.73,0,0,0-3-10.51Z" transform="translate(0 0)"/><path class="cls-1" d="M15.52,12.27,1,38.35a7.74,7.74,0,0,0,13.55,7.49L26.71,24Z" transform="translate(0 0)"/><path class="cls-1" d="M46.33,49.81a7.75,7.75,0,0,0,7.15-8.31,7.63,7.63,0,0,0-.94-3.16l-19-34.06A7.74,7.74,0,1,0,20,11.77L39,45.83a7.72,7.72,0,0,0,7.34,4" transform="translate(0 0)"/><path class="cls-1" d="M224.27,1.39A7.72,7.72,0,0,0,214.83,3l5.69,21.11,6.78-12.15a7.73,7.73,0,0,0-3-10.51Z" transform="translate(0 0)"/><path class="cls-1" d="M209.3,12.4,194.75,38.48A7.74,7.74,0,1,0,208.3,46h0l12.19-21.85Z" transform="translate(0 0)"/><path class="cls-1" d="M240.11,50a7.75,7.75,0,0,0,7.15-8.31,7.63,7.63,0,0,0-.94-3.16l-19-34.06a7.74,7.74,0,1,0-13.55,7.49l19,34.06a7.76,7.76,0,0,0,7.34,4" transform="translate(0 0)"/><path class="cls-1" d="M84.84.94A7.49,7.49,0,0,0,74.67,3.86h0l-3.9,6.93,6.48,19L68.68,14.53,62.74,25.09l12.88,7.66L87.76,11.12A7.5,7.5,0,0,0,84.84.94Z" transform="translate(0 0)"/><path class="cls-2" d="M7.9,65.5H3.18l-1.06,3H.62L4.89,57.21h1.3L10.5,68.48H9ZM3.62,64.28H7.45L5.53,59Z" transform="translate(0 0)"/><path class="cls-2" d="M20.7,68.44V57.21h3.18a5.13,5.13,0,0,1,2.6.65,4.4,4.4,0,0,1,1.75,1.85,6,6,0,0,1,.62,2.76v.72A6,6,0,0,1,28.23,66a4.28,4.28,0,0,1-1.76,1.84,5.49,5.49,0,0,1-2.66.66Zm1.49-10v8.77h1.56a3.38,3.38,0,0,0,2.67-1,4.41,4.41,0,0,0,1-3v-.66a4.48,4.48,0,0,0-.9-3A3.2,3.2,0,0,0,24,58.47H22.19Z" transform="translate(0 0)"/><path class="cls-2" d="M35.06,68.44H33.62V57.21h1.49Z" transform="translate(0 0)"/><path class="cls-2" d="M43.89,66.47l3.22-9.26h1.63L44.56,68.48H43.24L39.07,57.21h1.62Z" transform="translate(0 0)"/><path class="cls-2" d="M54.21,68.44H52.72V57.21h1.49Z" transform="translate(0 0)"/><path class="cls-2" d="M62.62,63.42a7.13,7.13,0,0,1-2.78-1.35,2.58,2.58,0,0,1-.87-2A2.7,2.7,0,0,1,60,57.87,4.19,4.19,0,0,1,62.8,57a4.63,4.63,0,0,1,2.07.45,3.32,3.32,0,0,1,1.41,1.24,3.22,3.22,0,0,1,.5,1.73H65.3a2.08,2.08,0,0,0-.65-1.61,2.65,2.65,0,0,0-1.83-.6,2.68,2.68,0,0,0-1.71.49A1.62,1.62,0,0,0,60.49,60a1.46,1.46,0,0,0,.58,1.17,5.59,5.59,0,0,0,2,.87,8.7,8.7,0,0,1,2.2.87,3.39,3.39,0,0,1,1.18,1.11,2.78,2.78,0,0,1,.38,1.49,2.65,2.65,0,0,1-1.07,2.19,4.55,4.55,0,0,1-2.86.83,5.21,5.21,0,0,1-2.17-.45,3.65,3.65,0,0,1-1.55-1.22,3,3,0,0,1-.56-1.69h1.49a1.9,1.9,0,0,0,.75,1.61,3.25,3.25,0,0,0,2,.59,2.93,2.93,0,0,0,1.8-.48,1.57,1.57,0,0,0,.63-1.31,1.51,1.51,0,0,0-.58-1.28A7,7,0,0,0,62.62,63.42Z" transform="translate(0 0)"/><path class="cls-2" d="M72.68,68.44H71.19V57.21h1.49Z" transform="translate(0 0)"/><path class="cls-2" d="M86.45,63.21a7,7,0,0,1-.56,2.89A4.26,4.26,0,0,1,84.31,68a4.36,4.36,0,0,1-6-1.29,3.91,3.91,0,0,1-.31-.57,6.77,6.77,0,0,1-.58-2.81V62.5A6.9,6.9,0,0,1,78,59.63a4.17,4.17,0,0,1,4-2.57,4.48,4.48,0,0,1,2.39.65,4.21,4.21,0,0,1,1.59,1.9,7,7,0,0,1,.56,2.89ZM85,62.49a5.08,5.08,0,0,0-.8-3.08,2.87,2.87,0,0,0-4.47,0,4.85,4.85,0,0,0-.83,3v.8a5,5,0,0,0,.82,3,2.86,2.86,0,0,0,4,.52,3.41,3.41,0,0,0,.47-.46,5,5,0,0,0,.81-3v-.78Z" transform="translate(0 0)"/><path class="cls-2" d="M99.71,68.44H98.22l-5.67-8.68v8.68H91.06V57.21h1.49l5.69,8.72V57.21h1.48V68.44Z" transform="translate(0 0)"/><path class="cls-2" d="M119.7,63.21a7,7,0,0,1-.56,2.89A4.26,4.26,0,0,1,117.56,68a4.36,4.36,0,0,1-6-1.29,3.91,3.91,0,0,1-.31-.57,6.62,6.62,0,0,1-.58-2.81V62.5a6.9,6.9,0,0,1,.56-2.87,4.17,4.17,0,0,1,4-2.57,4.48,4.48,0,0,1,2.39.65,4.21,4.21,0,0,1,1.59,1.9,7,7,0,0,1,.56,2.89v.71Zm-1.48-.72a5.08,5.08,0,0,0-.8-3.08,2.87,2.87,0,0,0-4-.43,2.5,2.5,0,0,0-.43.43,4.85,4.85,0,0,0-.83,3v.8a5,5,0,0,0,.82,3,2.86,2.86,0,0,0,4,.52,3.41,3.41,0,0,0,.47-.46,5,5,0,0,0,.81-3v-.78Z" transform="translate(0 0)"/><path class="cls-2" d="M130.52,63.47h-4.73v5H124.3V57.21h7v1.22h-5.49v3.86h4.73V63.5Z" transform="translate(0 0)"/><path class="cls-2" d="M141.29,68.44V57.21h4.05a5.82,5.82,0,0,1,3.31.8,2.94,2.94,0,0,1,.73,3.8,2.25,2.25,0,0,1-1.19.91,2.32,2.32,0,0,1,1.35.87,2.53,2.53,0,0,1,.47,1.55,3,3,0,0,1-1,2.49,5,5,0,0,1-3.11.85ZM144,61.87h1.42a2,2,0,0,0,1.27-.33,1.18,1.18,0,0,0,.38-.94,1.22,1.22,0,0,0-.41-1,2.19,2.19,0,0,0-1.32-.31H144v2.58Zm0,1.79v2.7h1.78a1.63,1.63,0,0,0,1.13-.34,1.19,1.19,0,0,0,.4-1,1.25,1.25,0,0,0-1.06-1.42,1.29,1.29,0,0,0-.34,0H144Z" transform="translate(0 0)"/><path class="cls-2" d="M158.07,64.46h-1.45v4H153.9V57.21h4.43a4.92,4.92,0,0,1,3.13.89,3,3,0,0,1,1.13,2.51,3.69,3.69,0,0,1-.48,2,3.3,3.3,0,0,1-1.49,1.25L163,68.36v.12h-2.91Zm-1.45-2.09h1.72a1.63,1.63,0,0,0,1.56-1.7,1.67,1.67,0,0,0-.4-1,1.51,1.51,0,0,0-1.16-.42h-1.72Z" transform="translate(0 0)"/><path class="cls-2" d="M176.15,63a6.66,6.66,0,0,1-.61,2.92,4.56,4.56,0,0,1-1.74,2,5.23,5.23,0,0,1-5.12,0,4.6,4.6,0,0,1-1.74-1.89,6.41,6.41,0,0,1-.65-2.82v-.63a6.66,6.66,0,0,1,.61-2.92,4.5,4.5,0,0,1,1.74-1.95,5.16,5.16,0,0,1,5.13,0,4.68,4.68,0,0,1,1.75,1.94,6.37,6.37,0,0,1,.63,2.88Zm-2.77-.47a4.8,4.8,0,0,0-.56-2.55,1.81,1.81,0,0,0-1.61-.87c-1.36,0-2.08,1-2.16,3.07v.83a4.91,4.91,0,0,0,.55,2.55,1.81,1.81,0,0,0,1.63.89,1.78,1.78,0,0,0,1.59-.87,4.69,4.69,0,0,0,.56-2.52v-.53Z" transform="translate(0 0)"/><path class="cls-2" d="M186.16,66.34h-3.72l-.65,2.1h-2.9L183,57.21h2.6l4.16,11.27h-2.92Zm-3.07-2.1h2.42l-1.22-3.91Z" transform="translate(0 0)"/><path class="cls-2" d="M192.94,68.44V57.21h3.68a5.38,5.38,0,0,1,2.69.68,4.81,4.81,0,0,1,1.86,1.91,5.79,5.79,0,0,1,.68,2.77v.52a5.82,5.82,0,0,1-.65,2.77,4.79,4.79,0,0,1-1.84,1.92,5.36,5.36,0,0,1-2.65.7Zm2.71-9.17v7.08h1a2.11,2.11,0,0,0,1.8-.83,4.05,4.05,0,0,0,.63-2.47v-.49a4,4,0,0,0-.63-2.46,2.17,2.17,0,0,0-1.83-.83Z" transform="translate(0 0)"/><path class="cls-2" d="M211.37,65.45a1.11,1.11,0,0,0-.42-.93,5.4,5.4,0,0,0-1.48-.69,13.55,13.55,0,0,1-1.73-.69,3.28,3.28,0,0,1-2.19-3,2.66,2.66,0,0,1,.54-1.65,3.45,3.45,0,0,1,1.55-1.11,5.89,5.89,0,0,1,2.24-.4,5.44,5.44,0,0,1,2.18.43,3.42,3.42,0,0,1,1.5,1.24,3.21,3.21,0,0,1,.53,1.83h-2.71a1.35,1.35,0,0,0-.42-1.07,1.64,1.64,0,0,0-1.14-.38,1.88,1.88,0,0,0-1.15.32,1,1,0,0,0-.42.82,1,1,0,0,0,.46.79,5.7,5.7,0,0,0,1.63.73,9.53,9.53,0,0,1,1.92.81,3.2,3.2,0,0,1,1.83,2.9A2.74,2.74,0,0,1,213,67.72a5,5,0,0,1-3.06.84,6,6,0,0,1-2.48-.49,3.75,3.75,0,0,1-1.67-1.35,3.54,3.54,0,0,1-.56-2h2.72a1.75,1.75,0,0,0,.47,1.34,2.19,2.19,0,0,0,1.52.43A1.72,1.72,0,0,0,211,66.2,1,1,0,0,0,211.37,65.45Z" transform="translate(0 0)"/><path class="cls-2" d="M220.75,68.44H218V57.21h2.71Z" transform="translate(0 0)"/><path class="cls-2" d="M234.24,67.05a4.45,4.45,0,0,1-1.83,1.12,8,8,0,0,1-2.65.43,4.75,4.75,0,0,1-3.54-1.39,5.52,5.52,0,0,1-1.42-3.77v-1a6.77,6.77,0,0,1,.59-2.91,4.27,4.27,0,0,1,1.68-1.91A4.68,4.68,0,0,1,229.6,57a5,5,0,0,1,3.27,1,4.06,4.06,0,0,1,1.36,2.88h-2.61a2.13,2.13,0,0,0-.6-1.35,2,2,0,0,0-1.32-.4,1.76,1.76,0,0,0-1.58.87,4.57,4.57,0,0,0-.56,2.48v.68a4.48,4.48,0,0,0,.58,2.53,2,2,0,0,0,1.81.85,2.3,2.3,0,0,0,1.58-.47V64.27h-1.91V62.4h4.61v4.65Z" transform="translate(0 0)"/><path class="cls-2" d="M247.62,68.44h-2.7l-4-7v7H238.2V57.21h2.72l4,7v-7h2.7V68.44Z" transform="translate(0 0)"/></svg>