<svg id="Layer_1" data-name="Layer 1" xmlns="http://www.w3.org/2000/svg" xmlns:xlink="http://www.w3.org/1999/xlink" viewBox="0 0 64.5 64.5"><defs><style>.cls-1{fill:url(#linear-gradient);}.cls-2{fill:#fff;}</style><linearGradient id="linear-gradient" x1="564.67" y1="745.42" x2="629.19" y2="745.42" gradientTransform="translate(-298.9 -324.9)" gradientUnits="userSpaceOnUse"><stop offset="0" stop-color="#910050"/><stop offset="0.1" stop-color="#910050"/><stop offset="0.91" stop-color="#2d1d8c"/><stop offset="1" stop-color="#2d1d8c"/></linearGradient></defs><rect class="cls-1" x="265.7" y="388.2" width="64.5" height="64.52" rx="9" transform="translate(-388.2 330.3) rotate(-90)"/><path class="cls-2" d="M297.8,428.5a6.3,6.3,0,0,1,6.3-6.2h11v-7.9a2.1,2.1,0,0,0-1-1.7l-11.5-6.6-12.5-7.2L279.9,393l-.7-.2a1.5,1.5,0,0,0-1.5,1.5v15.8l17.8,10.3-17.8,10.3v16a1.5,1.5,0,0,0,2.2,1.3l10.2-5.9,7.7-4.4Z" transform="translate(-265.7 -388.2)"/><path class="cls-2" d="M320.3,425.8H304.1a2.8,2.8,0,0,0-2.8,2.7v16.3a2.8,2.8,0,0,0,2.8,2.7h16.2a2.7,2.7,0,0,0,2.7-2.7V428.5A2.7,2.7,0,0,0,320.3,425.8Zm-6,19-1.3-4.5c-.4-1.5-.9-1.8-2.1-1.8h-.5v6.3h-4.2V429.2h5.7c4.4,0,6.1,2.4,6.1,4.5a4.1,4.1,0,0,1-3,4c1.3.3,2,1.4,2.5,3l1.2,4.1Z" transform="translate(-265.7 -388.2)"/><path class="cls-2" d="M311.7,432.3h-1.3v3.5h1.3c1.4,0,2-.5,2-1.8S313,432.3,311.7,432.3Z" transform="translate(-265.7 -388.2)"/></svg>