<svg id="Layer_1" data-name="Layer 1" xmlns="http://www.w3.org/2000/svg" xmlns:xlink="http://www.w3.org/1999/xlink" viewBox="0 0 783.37 273.98"><defs><style>.cls-1{fill:url(#linear-gradient);}.cls-2{fill:#001464;}</style><linearGradient id="linear-gradient" x1="-163.48" y1="-34.83" x2="-160.02" y2="-34.83" gradientTransform="translate(2811.72 -12445.27) rotate(-90) scale(77.83)" gradientUnits="userSpaceOnUse"><stop offset="0" stop-color="indigo"/><stop offset="0.1" stop-color="indigo"/><stop offset="0.9" stop-color="#0050eb"/><stop offset="1" stop-color="#0050eb"/></linearGradient></defs><path class="cls-1" d="M188.7,105.5,132,72.79,70.25,37.22,19.91,8a7.31,7.31,0,0,0-3.67-1,7.59,7.59,0,0,0-7.61,7.5V92.39l88.22,50.93L8.64,194.25v79.23A7.54,7.54,0,0,0,19.92,280l50.49-29.21L132,215.21l56.69-32.71a10,10,0,0,0,4.92-8.57V114.07A10,10,0,0,0,188.7,105.5Z" transform="translate(-8.63 -7.01)"/><path class="cls-2" d="M370.14,68.09A2,2,0,0,1,371.73,70V87.46a1.53,1.53,0,0,1-.56,1.12,1.37,1.37,0,0,1-1.11.24,19.76,19.76,0,0,0-7.73-.95c-4,.31-6.94,2.31-10,4.54v43.44a1.91,1.91,0,0,1-.56,1.35,1.87,1.87,0,0,1-1.36.56H333.63a2,2,0,0,1-2-2V69.61a2,2,0,0,1,2-2H347.1a2.62,2.62,0,0,1,2.39,1.59,52.94,52.94,0,0,1,2.23,7.42c.08-.08.08-.16.16-.16,3.19-4,6.37-8.13,12.2-8.93a18.72,18.72,0,0,1,6.06.55M791.85,91.61c0-16.58-7.25-25-21.6-25-8,0-13.47,3.75-17.77,7.41-.48-1.67-1-3.27-1.51-4.7a2.61,2.61,0,0,0-2.39-1.59H735.19a2,2,0,0,0-2,2v66.15a2,2,0,0,0,2,2h16.74a2,2,0,0,0,2-2V89.14a13.47,13.47,0,0,1,8.84-3.83c6,0,8.61,3.43,8.61,11.08v39.46a2,2,0,0,0,2,2H790a2,2,0,0,0,2-2c-.15-6.7-.15-31.17-.15-44.24M653.08,67.69H636.35a2,2,0,0,0-2,2v66.15a2,2,0,0,0,2,2h16.73a2,2,0,0,0,2-2V69.69a2,2,0,0,0-2-2m-2.47-30.6A11.26,11.26,0,0,0,646,35.73a12.26,12.26,0,0,0-6,.88,11.76,11.76,0,0,0-6.78,12.2A11.62,11.62,0,0,0,638,57a11,11,0,0,0,6.69,2.15h.16a13,13,0,0,0,4.78-.88,11.94,11.94,0,0,0,1-21.2M310,88.18a20.69,20.69,0,0,1,10.28,6.94c3.19,4.07,4.78,9.17,4.78,15.23,0,17-11.24,27.5-29,27.5H260.86a1.93,1.93,0,0,1-1.36-.56,1.87,1.87,0,0,1-.56-1.36V44.5a2,2,0,0,1,2-2h33.88c17,0,27.74,9.25,27.74,24.15,0,14.75-7.73,19.69-12.35,21.36h-.08c-.08,0-.16.08-.24.08s0,.08.16.08m-28.85,32.2h10.12c6.61,0,10.12-4.22,10.12-12.11,0-7.33-4-11.56-11.08-11.64H281.1v23.75ZM291,80.77c6.06,0,9.33-3.91,9.33-11,0-5.9-3.66-9.25-10.12-9.25H281V80.76H291M405,66.42c10,0,18.33,3.51,24,10.12,5.42,6.38,8.29,15.54,8.29,26.38,0,21.2-13.55,36.58-32.28,36.58-10,0-18.33-3.5-24-10.12-5.42-6.37-8.29-15.54-8.29-26.38,0-21.19,13.62-36.58,32.28-36.58M415.81,103c0-13.07-3.67-19.13-10.84-19.13s-10.84,6-10.84,19.13,3.67,19.13,10.84,19.13,10.84-6,10.84-19.13M725.7,67.69a2,2,0,0,1,1.35,1.91V84a1.58,1.58,0,0,1-.48,1.12,1.15,1.15,0,0,1-1.12.24,24.51,24.51,0,0,0-7.65-.4,20.71,20.71,0,0,1,1.2,6.93c0,15.62-10.92,25.66-27.82,25.66h-1.52c-2.39-.16-4.07.16-4.87,1a1.63,1.63,0,0,0-.56,1.35c0,1.43.72,2.63,6.06,2.87,0,0,.88,0,10.44.48,16,.8,24.15,8,24.15,21a21.4,21.4,0,0,1-7.73,16.5c-6.06,5.18-15.06,7.81-26.7,7.81-18.25,0-29.65-7.09-29.65-18.09,0-6.46,4.62-12.6,11-14.82A14.12,14.12,0,0,1,666,124.44c0-4.31,2.63-8.37,7.25-11.4-6.46-4.38-10-11.79-10-21,0-15.62,11-25.66,28-25.66a29.53,29.53,0,0,1,18.17,6.3,18.12,18.12,0,0,1,12.52-5.34,12.35,12.35,0,0,1,3.76.39m-41.37,72c-3.59,1.75-5.42,4.3-5.42,7.41,0,4.94,4.06,7.17,12.12,7.17,8.92,0,13.71-2.39,13.79-7.42.16-4.14-2.79-6.3-8.77-6.61l-11.72-.55m14.83-48.22c0-6.22-3-9.89-8-9.89s-8.05,3.67-8.05,9.89,3,9.88,8.05,9.88,8-3.75,8-9.88M470.4,66.58c18.17,0,26.3,8.61,26.3,26.22v43a2,2,0,0,1-2,2H481.88a2.62,2.62,0,0,1-2.39-1.59c-.4-1.11-.88-2.39-1.27-3.75-3.35,3.91-9.57,6.54-15.54,6.54-12.83,0-21.52-9.09-21.52-22.56,0-13.79,10.76-22.71,27.49-22.71a69,69,0,0,1,7.49.32l.08-1.44c0-5.58-1.75-9-10.44-9-6.06,0-13.95,2.79-17.62,4.38a1.6,1.6,0,0,1-1.35-.08,1.41,1.41,0,0,1-.64-1.2V73a2.44,2.44,0,0,1,1.51-2.31c4.71-2,15-4.14,22.72-4.14M461.32,115c0,3.11,2.55,6.22,7.49,6.22a11.25,11.25,0,0,0,7.33-2.79v-9.56a38.06,38.06,0,0,0-4.62-.16c-6-.09-10.2,2.54-10.2,6.29M564.7,39.8a2,2,0,0,1,2,2v94.05a2,2,0,0,1-2,2H551.15a2.62,2.62,0,0,1-2.39-1.59,30.13,30.13,0,0,1-1.27-3.83,24.07,24.07,0,0,1-16.82,7.18c-16.26,0-26.38-14-26.38-36.59,0-22.15,10.36-36.5,26.38-36.5a27.19,27.19,0,0,1,14.75,4.62V41.71a2,2,0,0,1,2-2h17.3m-28.87,81.61c4.46,0,7.89-3.34,9.64-6.45V91c-1.75-3.11-5.18-6.37-9.64-6.37-6.7,0-10,6-10,18.25-.07,12.43,3.2,18.48,10,18.48m72.77-26.62c-7.25-3.19-12.75-4.86-12.75-8,0-1.59,1.59-3.43,6.62-3.43,6.37,0,12.59,1.83,20,5.34a1.38,1.38,0,0,0,2-1.28V72.72a2.39,2.39,0,0,0-1.36-2.15c-5.26-2.47-13.47-4.23-20.64-4.23-15.06,0-27.58,6.94-27.58,21.2,0,11.31,6.94,17.77,19.84,23.11,6.86,2.87,12,4.31,11.88,7.57,0,1.59-1.36,3.51-7.89,3.51-6.7,0-14.51-2.55-20.8-5.66a1.44,1.44,0,0,0-2.08,1.28v15.14a2.41,2.41,0,0,0,1.36,2.15c6.22,3,13.95,4.39,21.44,4.39,15.38,0,28.93-7.25,28.93-21.6.08-11.4-6.54-17.22-19-22.72" transform="translate(-8.63 -7.01)"/><path class="cls-2" d="M320.86,211.82c0-21.85,11.05-35.18,27.69-35.18s28.11,13.33,28.11,35.18-11.19,35.32-27.84,35.32-28-13.46-28-35.32m43.25.14c0-14.15-5.05-26.22-15.42-26.22s-15.28,11.93-15.28,26.08,5,26.22,15.42,26.22S364.11,226,364.11,212" transform="translate(-8.63 -7.01)"/><path class="cls-2" d="M532,211.82c0-21.85,11-35.18,27.7-35.18s28.11,13.33,28.11,35.18S576.6,247.14,560,247.14s-28-13.46-28-35.32m43.26.14c0-14.15-5-26.22-15.42-26.22s-15.28,11.93-15.28,26.08S549.59,238,560,238,575.24,226,575.24,212" transform="translate(-8.63 -7.01)"/><path class="cls-2" d="M389.19,178.39h9.15l1.77,8.29c6-5.88,12.83-10,20.88-10,9.82,0,16.51,7.42,16.51,18.79v50H425.77V200.28c0-7.62-2.18-12.24-8.32-12.24-5.46,0-11.6,3.75-16.51,8V245.4H389.2v-67Z" transform="translate(-8.63 -7.01)"/><path class="cls-2" d="M455.2,178.39V161.13l11.74-2.54v19.8H481v9.36H466.94v44c0,4.28,1.77,6.15,5.59,6.15a26.65,26.65,0,0,0,8.66-1.87v8.56c-3.14,1.47-5.39,2.54-9.62,2.54-9.28,0-16.37-3.61-16.37-14.32V187.74" transform="translate(-8.63 -7.01)"/><path class="cls-2" d="M494.89,178.39H504l1.91,9.5c5.05-6.15,10.37-10.7,18.28-10.7a11.88,11.88,0,0,1,2.45.27v12h-.27a14.74,14.74,0,0,0-4.23-.54c-6.28,0-10.51,2.67-15.56,7.23v49.22H494.88v-67Z" transform="translate(-8.63 -7.01)"/><rect class="cls-2" x="593.47" y="141.54" width="11.74" height="96.85"/><path class="cls-2" d="M256.89,202.81c0-25,11-44.28,35.48-44.28,9,0,16.16,2,21.6,6.3v8.24c-4.52-3.2-15.09-4.95-21.6-4.95-16.77,0-22.06,13-22.06,34.19,0,21.48,5.29,34.56,22.46,34.56,7.18,0,16.55-2.49,21.2-5.93v8.36c-6.11,4.31-11.9,7.16-21.6,7.16-23.81,0-35.48-17.5-35.48-43.65" transform="translate(-8.63 -7.01)"/></svg>