<?xml version="1.0" encoding="utf-8"?>
<!-- Generator: Adobe Illustrator 24.1.3, SVG Export Plug-In . SVG Version: 6.00 Build 0)  -->
<svg version="1.1" id="Layer_1" xmlns="http://www.w3.org/2000/svg" xmlns:xlink="http://www.w3.org/1999/xlink" x="0px" y="0px"
	 viewBox="0 0 72 72" style="enable-background:new 0 0 72 72;" xml:space="preserve">
<style type="text/css">
	.st0{fill:url(#SVGID_1_);}
	.st1{fill:url(#SVGID_2_);}
	.st2{fill:url(#SVGID_3_);}
</style>
<g>
	<linearGradient id="SVGID_1_" gradientUnits="userSpaceOnUse" x1="33.7007" y1="18.3523" x2="33.7007" y2="51.7431">
		<stop  offset="0" style="stop-color:#911B53"/>
		<stop  offset="0.1" style="stop-color:#911B53"/>
		<stop  offset="0.9051" style="stop-color:#332E86"/>
		<stop  offset="1" style="stop-color:#332E86"/>
	</linearGradient>
	<path class="st0" d="M34.61,40.57c0-2.11,1.72-3.83,3.83-3.83h6.75v-4.82c0-0.43-0.24-0.85-0.61-1.06l-7.04-4.06l-7.67-4.41
		l-6.25-3.63c-0.15-0.08-0.3-0.12-0.46-0.12c-0.49,0-0.94,0.39-0.94,0.93v7.23v2.43l10.95,6.32l-10.95,6.32v2.6v7.23
		c0,0.71,0.77,1.16,1.4,0.81l6.27-3.63l4.72-2.72V40.57z"/>
	<g>
		<linearGradient id="SVGID_2_" gradientUnits="userSpaceOnUse" x1="43.4162" y1="18.3523" x2="43.4162" y2="51.7431">
			<stop  offset="0" style="stop-color:#911B53"/>
			<stop  offset="0.1" style="stop-color:#911B53"/>
			<stop  offset="0.9051" style="stop-color:#332E86"/>
			<stop  offset="1" style="stop-color:#332E86"/>
		</linearGradient>
		<path class="st1" d="M48.4,38.89h-9.96c-0.93,0-1.68,0.75-1.68,1.68v9.96c0,0.93,0.75,1.68,1.68,1.68h9.96
			c0.93,0,1.68-0.75,1.68-1.68v-9.96C50.08,39.64,49.33,38.89,48.4,38.89z M44.71,50.58l-0.78-2.81c-0.26-0.9-0.59-1.07-1.28-1.07
			h-0.32v3.88h-2.58v-9.62h3.5c2.68,0,3.72,1.49,3.72,2.78c0,1.11-0.63,2.13-1.82,2.45c0.82,0.2,1.22,0.85,1.52,1.84l0.73,2.55
			H44.71z"/>
		<linearGradient id="SVGID_3_" gradientUnits="userSpaceOnUse" x1="43.3417" y1="18.3523" x2="43.3417" y2="51.7431">
			<stop  offset="0" style="stop-color:#911B53"/>
			<stop  offset="0.1" style="stop-color:#911B53"/>
			<stop  offset="0.9051" style="stop-color:#332E86"/>
			<stop  offset="1" style="stop-color:#332E86"/>
		</linearGradient>
		<path class="st2" d="M43.12,42.86h-0.79v2.16h0.79c0.85,0,1.24-0.32,1.24-1.12C44.36,43.17,43.92,42.86,43.12,42.86z"/>
	</g>
</g>
</svg>
