<?xml version="1.0" encoding="utf-8"?>
<!-- Generator: Adobe Illustrator 24.1.3, SVG Export Plug-In . SVG Version: 6.00 Build 0)  -->
<svg version="1.1" id="Layer_1" xmlns="http://www.w3.org/2000/svg" xmlns:xlink="http://www.w3.org/1999/xlink" x="0px" y="0px"
	 viewBox="0 0 72 72" style="enable-background:new 0 0 72 72;" xml:space="preserve">
<style type="text/css">
	.st0{fill:url(#SVGID_1_);}
	.st1{fill:url(#SVGID_2_);}
	.st2{fill:url(#SVGID_3_);}
</style>
<g>
	<linearGradient id="SVGID_1_" gradientUnits="userSpaceOnUse" x1="33.7007" y1="52.7029" x2="33.7007" y2="17.7473">
		<stop  offset="0" style="stop-color:#345EAC"/>
		<stop  offset="0.1" style="stop-color:#345EAC"/>
		<stop  offset="0.2261" style="stop-color:#356FB7"/>
		<stop  offset="0.5519" style="stop-color:#349AD5"/>
		<stop  offset="0.7846" style="stop-color:#35B8EA"/>
		<stop  offset="0.9" style="stop-color:#32C5F4"/>
		<stop  offset="1" style="stop-color:#32C5F4"/>
	</linearGradient>
	<path class="st0" d="M34.61,40.57c0-2.11,1.72-3.83,3.83-3.83h6.75v-4.82c0-0.43-0.24-0.85-0.61-1.06l-7.04-4.06l-7.67-4.41
		l-6.25-3.63c-0.15-0.08-0.3-0.12-0.46-0.12c-0.49,0-0.94,0.39-0.94,0.93v7.23v2.43l10.95,6.32l-10.95,6.32v2.6v7.23
		c0,0.71,0.77,1.16,1.4,0.81l6.27-3.63l4.72-2.72V40.57z"/>
	<g>
		<linearGradient id="SVGID_2_" gradientUnits="userSpaceOnUse" x1="43.4131" y1="52.7029" x2="43.4131" y2="17.7473">
			<stop  offset="0" style="stop-color:#345EAC"/>
			<stop  offset="0.1" style="stop-color:#345EAC"/>
			<stop  offset="0.2261" style="stop-color:#356FB7"/>
			<stop  offset="0.5519" style="stop-color:#349AD5"/>
			<stop  offset="0.7846" style="stop-color:#35B8EA"/>
			<stop  offset="0.9" style="stop-color:#32C5F4"/>
			<stop  offset="1" style="stop-color:#32C5F4"/>
		</linearGradient>
		<path class="st1" d="M43.07,42.58h-1v6.11h1.05c1.19,0,1.64-0.51,1.64-3.21C44.75,43.07,44.28,42.58,43.07,42.58z"/>
		<linearGradient id="SVGID_3_" gradientUnits="userSpaceOnUse" x1="43.4162" y1="52.7029" x2="43.4162" y2="17.7473">
			<stop  offset="0" style="stop-color:#345EAC"/>
			<stop  offset="0.1" style="stop-color:#345EAC"/>
			<stop  offset="0.2261" style="stop-color:#356FB7"/>
			<stop  offset="0.5519" style="stop-color:#349AD5"/>
			<stop  offset="0.7846" style="stop-color:#35B8EA"/>
			<stop  offset="0.9" style="stop-color:#32C5F4"/>
			<stop  offset="1" style="stop-color:#32C5F4"/>
		</linearGradient>
		<path class="st2" d="M48.4,38.89h-9.96c-0.93,0-1.68,0.75-1.68,1.68v9.96c0,0.93,0.75,1.68,1.68,1.68h9.96
			c0.93,0,1.68-0.75,1.68-1.68v-9.96C50.08,39.64,49.33,38.89,48.4,38.89z M43.25,50.46h-3.39v-9.63h3.3c2.59,0,3.98,1.21,3.98,4.71
			C47.14,48.71,46.17,50.46,43.25,50.46z"/>
	</g>
</g>
</svg>
