<svg id="Layer_1" data-name="Layer 1" xmlns="http://www.w3.org/2000/svg" xmlns:xlink="http://www.w3.org/1999/xlink" viewBox="0 0 783.37 273.99"><defs><style>.cls-1{fill:url(#linear-gradient);}.cls-2{fill:#001464;}</style><linearGradient id="linear-gradient" x1="-254.26" y1="574.62" x2="-250.8" y2="574.62" gradientTransform="matrix(0, -77.83, -77.83, 0, 44824.99, -19510.5)" gradientUnits="userSpaceOnUse"><stop offset="0" stop-color="#00b4ff"/><stop offset="0.2" stop-color="#00b4ff"/><stop offset="0.65" stop-color="#00ddd9"/><stop offset="0.9" stop-color="#00f0c8"/><stop offset="1" stop-color="#00f0c8"/></linearGradient></defs><path class="cls-1" d="M188.7,105.5,132,72.79,70.25,37.22,19.91,8a7.26,7.26,0,0,0-3.67-1,7.59,7.59,0,0,0-7.6,7.5V92.39l88.22,50.93L8.64,194.25v79.24A7.53,7.53,0,0,0,19.91,280l50.5-29.22L132,215.21l56.68-32.7a10,10,0,0,0,4.92-8.58V114.07A10,10,0,0,0,188.7,105.5Z" transform="translate(-8.64 -7.01)"/><path class="cls-2" d="M370.14,68.09A2,2,0,0,1,371.73,70V87.46a1.53,1.53,0,0,1-.56,1.12,1.37,1.37,0,0,1-1.11.24,19.75,19.75,0,0,0-7.73-1c-4,.32-6.94,2.31-10.05,4.54v43.44a1.93,1.93,0,0,1-.56,1.36,1.86,1.86,0,0,1-1.35.55H333.63a2,2,0,0,1-2-2V69.61a2,2,0,0,1,2-2H347.1a2.59,2.59,0,0,1,2.39,1.59,53.21,53.21,0,0,1,2.23,7.41c.08-.08.08-.16.16-.16,3.19-4,6.38-8.13,12.2-8.92a18.72,18.72,0,0,1,6.06.55M791.85,91.61c0-16.58-7.25-25-21.6-25-8,0-13.47,3.75-17.77,7.41-.48-1.67-1-3.27-1.52-4.7a2.61,2.61,0,0,0-2.39-1.6H735.18a2,2,0,0,0-2,2v66.15a2,2,0,0,0,2,2h16.74a2,2,0,0,0,2-2V89.14a13.47,13.47,0,0,1,8.84-3.83c6,0,8.62,3.43,8.62,11.08v39.45a2,2,0,0,0,2,2H790a2,2,0,0,0,2-2c-.16-6.69-.16-31.16-.16-44.23M653.08,67.69H636.35a2,2,0,0,0-2,2v66.15a2,2,0,0,0,2,2h16.73a2,2,0,0,0,2-2V69.69a2,2,0,0,0-2-2m-2.47-30.6A11.16,11.16,0,0,0,646,35.73a12.39,12.39,0,0,0-6,.88,11.76,11.76,0,0,0-6.77,12.2A11.55,11.55,0,0,0,638,57a11.07,11.07,0,0,0,6.69,2.15h.16a13.09,13.09,0,0,0,4.79-.88,11.94,11.94,0,0,0,1-21.2M310,88.18a20.56,20.56,0,0,1,10.28,6.93c3.19,4.07,4.78,9.17,4.78,15.23,0,17-11.24,27.5-29,27.5H260.86a2,2,0,0,1-1.35-.56,1.87,1.87,0,0,1-.56-1.36V44.5a2,2,0,0,1,2-2h33.87c17,0,27.74,9.24,27.74,24.15,0,14.74-7.73,19.69-12.35,21.36h-.08c-.08,0-.16.08-.24.08s0,.08.16.08m-28.85,32.2h10.12c6.61,0,10.12-4.22,10.12-12.11,0-7.34-4-11.56-11.08-11.64H281.1v23.75ZM291,80.77c6.06,0,9.32-3.91,9.32-11,0-5.9-3.66-9.25-10.12-9.25H281V80.77h10M405,66.42c10,0,18.33,3.51,24,10.12,5.42,6.38,8.29,15.55,8.29,26.39,0,21.19-13.55,36.58-32.28,36.58-10,0-18.34-3.51-24-10.12-5.41-6.38-8.28-15.55-8.28-26.39,0-21.19,13.62-36.58,32.28-36.58M415.81,103c0-13.07-3.67-19.13-10.84-19.13s-10.84,6-10.84,19.13,3.66,19.13,10.84,19.13,10.84-6,10.84-19.13M725.7,67.69a2,2,0,0,1,1.35,1.92V84a1.58,1.58,0,0,1-.48,1.12,1.15,1.15,0,0,1-1.12.24,24.49,24.49,0,0,0-7.65-.4,20.71,20.71,0,0,1,1.2,6.93c0,15.63-10.92,25.67-27.82,25.67h-1.51c-2.39-.16-4.07.16-4.86,1a1.62,1.62,0,0,0-.56,1.35c0,1.43.71,2.63,6,2.87,0,0,.88,0,10.45.48,16,.8,24.15,8,24.15,21a21.4,21.4,0,0,1-7.73,16.5c-6.06,5.18-15.07,7.81-26.7,7.81-18.26,0-29.65-7.09-29.65-18.09,0-6.46,4.62-12.6,11-14.83A14.09,14.09,0,0,1,666,124.45c0-4.31,2.63-8.37,7.25-11.4-6.46-4.39-10-11.8-10-21,0-15.63,11-25.67,28-25.67a29.51,29.51,0,0,1,18.17,6.3A18.09,18.09,0,0,1,722,67.3a12.32,12.32,0,0,1,3.75.39m-41.37,72c-3.59,1.75-5.42,4.3-5.42,7.41,0,4.94,4.06,7.18,12.11,7.18,8.93,0,13.71-2.4,13.79-7.42.16-4.14-2.79-6.3-8.77-6.61l-11.71-.56m14.83-48.22c0-6.22-3-9.89-8.06-9.89s-8.05,3.67-8.05,9.89,3,9.88,8.05,9.88,8.06-3.75,8.06-9.88M470.4,66.58c18.18,0,26.3,8.61,26.3,26.22v43a2,2,0,0,1-2,2H481.88a2.61,2.61,0,0,1-2.39-1.6c-.4-1.11-.88-2.39-1.27-3.74-3.35,3.9-9.57,6.53-15.54,6.53-12.84,0-21.53-9.08-21.53-22.56,0-13.78,10.76-22.71,27.5-22.71a69,69,0,0,1,7.49.32l.08-1.44c0-5.58-1.75-9-10.44-9-6.06,0-13.95,2.79-17.61,4.38a1.62,1.62,0,0,1-1.36-.08,1.41,1.41,0,0,1-.64-1.2V73a2.44,2.44,0,0,1,1.52-2.31c4.7-2,15-4.14,22.71-4.14M461.32,115c0,3.11,2.54,6.22,7.49,6.22a11.25,11.25,0,0,0,7.33-2.79V108.9a38.06,38.06,0,0,0-4.62-.16c-6-.08-10.2,2.55-10.2,6.3M564.7,39.8a2,2,0,0,1,2,2v94.05a2,2,0,0,1-2,2H551.14a2.62,2.62,0,0,1-2.39-1.6,30.13,30.13,0,0,1-1.27-3.83,24,24,0,0,1-16.82,7.18c-16.26,0-26.38-14-26.38-36.59,0-22.15,10.36-36.5,26.38-36.5a27.16,27.16,0,0,1,14.74,4.62V41.71a2,2,0,0,1,2-2h17.3m-28.86,81.61c4.46,0,7.89-3.34,9.64-6.45V91c-1.75-3.11-5.18-6.38-9.64-6.38-6.7,0-10,6-10,18.26-.08,12.43,3.19,18.48,10,18.48m72.77-26.62c-7.25-3.19-12.75-4.86-12.75-8,0-1.59,1.59-3.42,6.61-3.42,6.38,0,12.59,1.83,20,5.34a1.38,1.38,0,0,0,2-1.28V72.72a2.4,2.4,0,0,0-1.35-2.15c-5.27-2.48-13.47-4.23-20.65-4.23-15.06,0-27.57,6.94-27.57,21.2,0,11.32,6.93,17.78,19.84,23.12,6.86,2.86,12,4.3,11.88,7.57,0,1.59-1.36,3.5-7.89,3.5-6.7,0-14.51-2.55-20.8-5.65a1.44,1.44,0,0,0-2.08,1.27V132.5a2.41,2.41,0,0,0,1.36,2.15c6.22,3,13.95,4.38,21.44,4.38,15.38,0,28.93-7.25,28.93-21.6.08-11.4-6.54-17.22-19-22.72" transform="translate(-8.64 -7.01)"/><path class="cls-2" d="M259,158.84H286.4c19,0,28.53,9.31,28.53,25.91,0,16.84-8.43,26.78-27,26.78H271.45v33.95H259Zm27.31,42.88c10.46,0,15.49-4.15,15.49-16.34s-4.62-16.6-16-16.6H271.45v32.94Z" transform="translate(-8.64 -7.01)"/><path class="cls-2" d="M326.94,230.08V178.37h12.45v48.09c0,7.91,2.89,10.59,9.41,10.59,5.79,0,12-3.63,17.37-8V178.37h12.45v67.11h-9.7l-1.88-8.3c-6.08,5.76-13,10-21.57,10-10.42,0-18.53-5.49-18.53-17.14" transform="translate(-8.64 -7.01)"/><path class="cls-2" d="M408.72,239.05l-2,6.43H397v-97h12.45v36.83c5.21-5.08,11.72-8.7,19.39-8.7,13.9,0,24.76,10.8,24.76,34.83,0,21.62-8,35.77-24.9,35.77-8,0-15.78-3.76-20-8.18m31.56-26.79c0-18-3.77-25.72-13.61-25.72-7.09,0-12,3.35-17.22,7.9v36.31a24.74,24.74,0,0,0,16.06,6.56c10.28,0,14.77-7.05,14.77-25.05" transform="translate(-8.64 -7.01)"/><rect class="cls-2" x="459.58" y="141.49" width="12.45" height="96.99"/><path class="cls-2" d="M510.91,178.37v67.11H498.46V178.37m-2.61-20.63a8.37,8.37,0,0,1,8.69-8.31c5.07,0,8.83,3.48,8.83,8.31,0,4.55-3.76,8.17-9,8.17a8.22,8.22,0,0,1-8.55-8.17" transform="translate(-8.64 -7.01)"/><path class="cls-2" d="M523.61,241.66v-8.57a59.27,59.27,0,0,0,22,4.49c9.85,0,12.89-3.62,12.89-9.91,0-7.5-4.47-8.31-15.77-12.2-9.89-3.37-18.11-7.23-18.11-20.49,0-9.78,6.81-18.35,22.73-18.35A39.85,39.85,0,0,1,566,181.05v9.27a44.34,44.34,0,0,0-18.18-3.91c-7.83,0-11.44,2.54-11.44,8.3,0,6.3,3.7,7.37,13.45,10.72,10.88,3.72,20.85,6.56,20.85,21.7,0,13.93-8.53,20.09-25.62,20.09-5.77,0-15.57-1.74-21.42-5.56" transform="translate(-8.64 -7.01)"/><path class="cls-2" d="M582.63,148.49h12.45v37.38c6.37-5.49,12.88-9.24,21.28-9.24,10.42,0,17.51,5,17.51,16.34v52.51H621.42V196.59c0-7.64-2.31-9.78-8.83-9.78-5.79,0-12.3,3.75-17.51,8v50.63H582.63Z" transform="translate(-8.64 -7.01)"/></svg>