<svg id="Layer_1" data-name="Layer 1" xmlns="http://www.w3.org/2000/svg" xmlns:xlink="http://www.w3.org/1999/xlink" width="95" height="15.96" viewBox="0 0 95 15.96"><defs><linearGradient id="linear-gradient" x1="78.76" y1="682.44" x2="78.76" y2="667.57" gradientTransform="translate(-73.7 -667.57)" gradientUnits="userSpaceOnUse"><stop offset="0.03" stop-color="red"/><stop offset="0.6" stop-color="#0505a9"/><stop offset="0.69" stop-color="#0539c0"/><stop offset="0.82" stop-color="#0585e2"/><stop offset="0.92" stop-color="#05b6f7"/><stop offset="0.97" stop-color="#05c8ff"/></linearGradient></defs><path d="M25.83,5.05a.22.22,0,0,1,.17.21V7.15a.16.16,0,0,1-.06.13.16.16,0,0,1-.12,0A2,2,0,0,0,25,7.2a2.12,2.12,0,0,0-1.1.49V12.4a.19.19,0,0,1-.06.15.2.2,0,0,1-.15.06H21.85a.22.22,0,0,1-.22-.22V5.22A.22.22,0,0,1,21.85,5h1.47a.3.3,0,0,1,.26.17,6.91,6.91,0,0,1,.24.81s0,0,0,0a2.11,2.11,0,0,1,1.33-1A2.32,2.32,0,0,1,25.83,5.05Zm46,2.55c0-1.79-.79-2.71-2.36-2.71a2.89,2.89,0,0,0-1.94.8c0-.18-.1-.35-.16-.51A.29.29,0,0,0,67.11,5H65.65a.22.22,0,0,0-.22.22V12.4a.22.22,0,0,0,.22.22h1.82a.22.22,0,0,0,.22-.22V7.34a1.49,1.49,0,0,1,1-.42c.65,0,.94.37.94,1.2V12.4a.21.21,0,0,0,.21.22h1.82a.22.22,0,0,0,.22-.22c0-.72,0-3.38,0-4.8ZM56.69,5H54.87a.22.22,0,0,0-.22.22V12.4a.22.22,0,0,0,.22.22h1.82a.22.22,0,0,0,.22-.22V5.23A.21.21,0,0,0,56.69,5Zm-.27-3.32a1.18,1.18,0,0,0-.5-.15,1.39,1.39,0,0,0-.65.1,1.29,1.29,0,0,0-.22,2.21,1.18,1.18,0,0,0,.73.23h0A1.46,1.46,0,0,0,56.32,4a1.29,1.29,0,0,0,.76-1.24,1.31,1.31,0,0,0-.66-1.06ZM19.27,7.23A2.28,2.28,0,0,1,20.4,8a2.67,2.67,0,0,1,.52,1.66,2.86,2.86,0,0,1-3.17,3H13.91a.25.25,0,0,1-.15-.06.22.22,0,0,1-.06-.15V2.49a.21.21,0,0,1,.22-.21h3.69c1.86,0,3,1,3,2.62a2.17,2.17,0,0,1-1.35,2.32h0s0,0,0,0Zm-3.14,3.5h1.1c.72,0,1.11-.46,1.11-1.32a1.13,1.13,0,0,0-1.21-1.26h-1v2.58Zm1.07-4.3c.66,0,1-.42,1-1.19s-.4-1-1.11-1h-1v2.2ZM29.63,4.87A3.32,3.32,0,0,1,32.25,6a4.35,4.35,0,0,1,.9,2.86c0,2.3-1.47,4-3.52,4A3.3,3.3,0,0,1,27,11.7a4.28,4.28,0,0,1-.91-2.86C26.11,6.54,27.6,4.87,29.63,4.87Zm1.18,4c0-1.42-.4-2.07-1.18-2.07s-1.18.64-1.18,2.07.4,2.08,1.18,2.08S30.81,10.26,30.81,8.84ZM64.62,5a.22.22,0,0,1,.14.21V6.78a.13.13,0,0,1-.05.12.11.11,0,0,1-.12,0,2.56,2.56,0,0,0-.83,0,2.41,2.41,0,0,1,.13.75,2.74,2.74,0,0,1-3,2.78h-.16c-.27,0-.45,0-.53.11a.14.14,0,0,0-.06.14c0,.16.07.29.66.31L61.9,11c1.74.08,2.63.86,2.63,2.28a2.35,2.35,0,0,1-.84,1.79,4.46,4.46,0,0,1-2.92.85c-2,0-3.23-.77-3.23-2a1.75,1.75,0,0,1,1.2-1.6,1.55,1.55,0,0,1-.64-1.22,1.53,1.53,0,0,1,.8-1.24,2.62,2.62,0,0,1-1.09-2.28,2.74,2.74,0,0,1,3-2.79,3.2,3.2,0,0,1,2,.69A2,2,0,0,1,64.21,5a1.43,1.43,0,0,1,.41,0ZM60.1,12.82a.9.9,0,0,0-.59.8c0,.54.45.78,1.33.78s1.49-.26,1.5-.8-.31-.69-1-.72Zm1.62-5.23c0-.68-.33-1.08-.88-1.08S60,6.91,60,7.59s.33,1.07.87,1.07S61.72,8.25,61.72,7.59ZM36.77,4.89c2,0,2.87.93,2.87,2.84V12.4a.22.22,0,0,1-.22.22H38a.29.29,0,0,1-.26-.17c0-.12-.1-.26-.14-.41a2.33,2.33,0,0,1-1.69.71,2.28,2.28,0,0,1-2.35-2.45c0-1.46,1.17-2.46,3-2.46.3,0,.59,0,.82,0V7.72c0-.61-.19-1-1.14-1a5.5,5.5,0,0,0-1.92.48.23.23,0,0,1-.14,0,.15.15,0,0,1-.07-.13V5.59a.26.26,0,0,1,.16-.25,7.69,7.69,0,0,1,2.48-.45Zm-1,5.26a.73.73,0,0,0,.82.67,1.25,1.25,0,0,0,.8-.3v-1h-.51c-.65,0-1.11.27-1.11.68ZM47.05,2a.22.22,0,0,1,.22.22V12.4a.22.22,0,0,1-.22.22H45.57a.3.3,0,0,1-.26-.17c-.05-.12-.09-.26-.14-.42a2.61,2.61,0,0,1-1.83.78c-1.77,0-2.88-1.52-2.88-4s1.13-4,2.88-4a3,3,0,0,1,1.61.5V2.19A.22.22,0,0,1,45.17,2h1.88ZM43.9,10.83a1.29,1.29,0,0,0,1.06-.7V7.53a1.31,1.31,0,0,0-1.06-.69c-.73,0-1.08.65-1.08,2s.35,2,1.08,2Zm7.94-2.89c-.79-.34-1.39-.53-1.39-.86,0-.18.17-.38.72-.38a5,5,0,0,1,2.18.58.15.15,0,0,0,.22-.13V5.55a.25.25,0,0,0-.15-.23,5.78,5.78,0,0,0-2.25-.46c-1.64,0-3,.76-3,2.3,0,1.23.75,1.93,2.16,2.51.75.31,1.3.47,1.3.82,0,.17-.15.38-.86.38a5.5,5.5,0,0,1-2.27-.61.16.16,0,0,0-.23.14V12a.25.25,0,0,0,.15.23,5.48,5.48,0,0,0,2.34.48c1.67,0,3.15-.79,3.15-2.35,0-1.23-.71-1.86-2.07-2.46Z" transform="translate(0 0)" style="fill:#001464"/><path d="M81.19,10.13h-4l-.91,2.48h-.79l3.36-8.82h.71l3.36,8.82h-.78Zm-3.8-.63H81L79.17,4.7,77.39,9.5Z" transform="translate(0 0)" style="fill:#595e62"/><path d="M83.35,9.27A3.94,3.94,0,0,1,84,6.84a2.2,2.2,0,0,1,1.86-.9,2.29,2.29,0,0,1,2,1V3.31h.73v9.3H88l0-.87a2.34,2.34,0,0,1-2,1,2.19,2.19,0,0,1-1.84-.91,4,4,0,0,1-.7-2.46V9.27Zm.74.13a3.45,3.45,0,0,0,.5,2A1.66,1.66,0,0,0,86,12.1a2,2,0,0,0,1.91-1.18V7.85A1.94,1.94,0,0,0,86,6.57a1.66,1.66,0,0,0-1.43.72A3.61,3.61,0,0,0,84.09,9.4Z" transform="translate(0 0)" style="fill:#595e62"/><path d="M94.27,10.94a1,1,0,0,0-.44-.86,3.24,3.24,0,0,0-1.31-.51,6.26,6.26,0,0,1-1.36-.43,1.86,1.86,0,0,1-.72-.58,1.51,1.51,0,0,1-.23-.84,1.58,1.58,0,0,1,.65-1.28,2.67,2.67,0,0,1,1.67-.5,2.75,2.75,0,0,1,1.77.54A1.74,1.74,0,0,1,95,7.9h-.73a1.17,1.17,0,0,0-.48-1,1.87,1.87,0,0,0-1.22-.38,1.94,1.94,0,0,0-1.16.31,1,1,0,0,0-.43.83.88.88,0,0,0,.36.76A3.83,3.83,0,0,0,92.62,9a6.28,6.28,0,0,1,1.44.48,1.88,1.88,0,0,1,.71.61,1.61,1.61,0,0,1,.23.87,1.55,1.55,0,0,1-.67,1.32,2.85,2.85,0,0,1-1.76.5,2.92,2.92,0,0,1-1.86-.55,1.7,1.7,0,0,1-.72-1.4h.73a1.28,1.28,0,0,0,.54,1,2.26,2.26,0,0,0,1.31.35,2.08,2.08,0,0,0,1.23-.33,1,1,0,0,0,.47-.84Z" transform="translate(0 0)" style="fill:#595e62"/><path d="M6.75,3.58,3.38,1.64.61.05A.42.42,0,0,0,.05.2.54.54,0,0,0,0,.41v14.1a.4.4,0,0,0,.41.4.35.35,0,0,0,.2-.05l2.77-1.59,3.37-1.94L9.86,9.55a.53.53,0,0,0,.27-.46V5.83a.55.55,0,0,0-.27-.47ZM3.38,9.4V5.52L6.75,7.46Z" transform="translate(0 0)" style="fill:url(#linear-gradient)"/></svg>