<svg id="Layer_1" data-name="Layer 1" xmlns="http://www.w3.org/2000/svg" xmlns:xlink="http://www.w3.org/1999/xlink" viewBox="0 0 783.36 273.99"><defs><style>.cls-1{fill:#001464;}.cls-2{fill:url(#linear-gradient);}</style><linearGradient id="linear-gradient" x1="385.03" y1="-1.88" x2="388.49" y2="-1.88" gradientTransform="translate(239.12 30238.35) rotate(-90) scale(77.83)" gradientUnits="userSpaceOnUse"><stop offset="0" stop-color="#2d048e"/><stop offset="0.46" stop-color="#0505a9"/><stop offset="0.64" stop-color="#053cc1"/><stop offset="0.87" stop-color="#057dde"/><stop offset="0.88" stop-color="#057fdf"/><stop offset="1" stop-color="#05a4ef"/></linearGradient></defs><path class="cls-1" d="M354.92,204.86c0-23.18,11-35.17,27.69-35.17S409,181,409,203v4.55H367.92c.25,16.09,4.38,22.86,16.07,22.86,8.74,0,16.1-2.13,22.59-4.34v8.19a48.87,48.87,0,0,1-22.87,5.92c-18.51,0-28.79-12.4-28.79-35.31m13.14-6h28.11c0-15.38-3.67-20.06-13.84-20.06-8.19,0-13.28,4-14.27,20.06" transform="translate(0 0.01)"/><path class="cls-1" d="M418.82,218.67c0-13,10.14-21.66,33.31-21.66h5.8v-4.22c0-7.49-2.19-13-11.37-13a52.33,52.33,0,0,0-21.77,5.2v-9.65c5.39-3.1,14-5.62,23-5.62,13.84,0,22.24,8.38,22.24,22.69v46h-9.46l-2-6.69c-4.09,4.28-10,8.43-17.8,8.43-13.56,0-22-10-22-21.53M457.88,223V205.3h-4.25c-17.8,0-21.87,5.84-21.87,13.37,0,6.6,3.65,12.43,10.57,12.43s12.16-4.41,15.55-8" transform="translate(0 0.01)"/><path class="cls-1" d="M317.46,171.4h9.69l2,9.5c5.35-6.15,9.84-10.71,18.23-10.71a3.94,3.94,0,0,1,1.88.41v12.31a21.06,21.06,0,0,0-5.07-.54c-6.65,0-9,2.28-14.32,6.83v49.26H317.46Z" transform="translate(0 0.01)"/><path class="cls-1" d="M486.26,171.4V154.13l12.44-2.54V171.4h14.89v9.37H498.7v44c0,4.28,1.88,6.15,5.93,6.15a29.73,29.73,0,0,0,9.18-1.87v8.57c-3.32,1.47-5.71,2.54-10.2,2.54-9.83,0-17.35-3.61-17.35-14.32V180.77" transform="translate(0 0.01)"/><path class="cls-2" d="M180.06,98.49l-56.7-32.71L61.61,30.21,11.27,1A7.28,7.28,0,0,0,7.6,0,7.59,7.59,0,0,0,0,7.49V85.38l88.22,50.93L0,187.24v79.24A7.52,7.52,0,0,0,7.56,274a7.44,7.44,0,0,0,3.71-1l50.5-29.22,61.59-35.57L180,175.5a10,10,0,0,0,4.92-8.58V107.06A10,10,0,0,0,180.06,98.49Z" transform="translate(0 0.01)"/><path class="cls-1" d="M361.5,61.08A2,2,0,0,1,363.09,63V80.45a1.53,1.53,0,0,1-.56,1.12,1.37,1.37,0,0,1-1.11.24,19.86,19.86,0,0,0-7.73-1c-4,.32-6.94,2.31-10.05,4.54v43.44a1.92,1.92,0,0,1-.56,1.36,1.85,1.85,0,0,1-1.35.55H325a2,2,0,0,1-2-2V62.6a2,2,0,0,1,2-2h13.47a2.6,2.6,0,0,1,2.39,1.59,53.1,53.1,0,0,1,2.23,7.41c.08-.08.08-.16.16-.16,3.19-4,6.38-8.13,12.2-8.92a18.75,18.75,0,0,1,6.06.55M783.21,84.6c0-16.58-7.25-25-21.6-25-8,0-13.47,3.75-17.77,7.41-.48-1.67-1-3.27-1.52-4.7a2.61,2.61,0,0,0-2.39-1.6H726.54a2,2,0,0,0-2,2v66.15a2,2,0,0,0,2,2h16.74a2,2,0,0,0,2-2V82.13a13.46,13.46,0,0,1,8.84-3.83c6,0,8.62,3.43,8.62,11.08v39.45a2,2,0,0,0,2,2h16.62a2,2,0,0,0,2-2c-.16-6.69-.16-31.16-.16-44.23M644.44,60.68H627.71a2,2,0,0,0-2,2v66.15a2,2,0,0,0,2,2h16.73a2,2,0,0,0,2-2V62.68a2,2,0,0,0-2-2M642,30.08a11.14,11.14,0,0,0-4.61-1.36,12.33,12.33,0,0,0-6,.88,11.75,11.75,0,0,0-6.77,12.2A11.55,11.55,0,0,0,629.36,50a11.11,11.11,0,0,0,6.69,2.15h.16a13.08,13.08,0,0,0,4.79-.88,11.94,11.94,0,0,0,1-21.2M301.36,81.17a20.58,20.58,0,0,1,10.28,6.93c3.19,4.07,4.78,9.17,4.78,15.23,0,17-11.24,27.5-29,27.5h-35.2a2,2,0,0,1-1.35-.56,1.88,1.88,0,0,1-.56-1.36V37.49a2,2,0,0,1,2-2h33.87c17,0,27.74,9.24,27.74,24.15,0,14.74-7.73,19.69-12.35,21.36h-.08c-.08,0-.16.08-.24.08s0,.08.16.08m-28.85,32.2h10.12c6.61,0,10.12-4.22,10.12-12.11,0-7.34-4-11.56-11.08-11.64h-9.26v23.75Zm9.8-39.6c6.06,0,9.32-3.91,9.32-11,0-5.9-3.66-9.25-10.12-9.25h-9.2V73.76h10m114-14.35c10,0,18.33,3.51,24,10.12,5.42,6.38,8.29,15.55,8.29,26.39,0,21.19-13.55,36.58-32.28,36.58-10,0-18.34-3.51-24-10.12C367,116,364.09,106.83,364.09,96c0-21.19,13.62-36.58,32.28-36.58M407.17,96c0-13.07-3.67-19.13-10.84-19.13s-10.84,6-10.84,19.13,3.66,19.13,10.84,19.13,10.84-6,10.84-19.13M717.06,60.68a2,2,0,0,1,1.35,1.92V77a1.58,1.58,0,0,1-.48,1.12,1.17,1.17,0,0,1-1.12.24,24.55,24.55,0,0,0-7.65-.4,20.7,20.7,0,0,1,1.2,6.93c0,15.63-10.92,25.67-27.82,25.67H681c-2.39-.16-4.07.16-4.86,1a1.63,1.63,0,0,0-.56,1.35c0,1.43.71,2.63,6,2.87,0,0,.88,0,10.45.48,16,.8,24.15,8,24.15,21a21.38,21.38,0,0,1-7.73,16.5c-6.06,5.18-15.07,7.81-26.7,7.81-18.26,0-29.65-7.09-29.65-18.09,0-6.46,4.62-12.6,11-14.83a14.08,14.08,0,0,1-5.77-11.2c0-4.31,2.63-8.37,7.25-11.4-6.46-4.39-10-11.8-10-21,0-15.63,11-25.67,28-25.67a29.49,29.49,0,0,1,18.17,6.3,18.1,18.1,0,0,1,12.58-5.38,12.47,12.47,0,0,1,3.75.39m-41.37,72c-3.59,1.75-5.42,4.3-5.42,7.41,0,4.94,4.06,7.18,12.11,7.18,8.93,0,13.71-2.4,13.79-7.42.16-4.14-2.79-6.3-8.77-6.61l-11.71-.56m14.83-48.22c0-6.22-3-9.89-8.06-9.89s-8,3.67-8,9.89,3,9.88,8,9.88,8.06-3.75,8.06-9.88M461.76,59.57c18.18,0,26.3,8.61,26.3,26.22v43a2,2,0,0,1-2,2H473.24a2.61,2.61,0,0,1-2.39-1.6c-.4-1.11-.88-2.39-1.27-3.74C466.23,129.35,460,132,454,132c-12.84,0-21.53-9.08-21.53-22.56,0-13.78,10.76-22.71,27.5-22.71a69.39,69.39,0,0,1,7.49.32l.08-1.44c0-5.58-1.75-9-10.44-9-6.06,0-13.95,2.79-17.61,4.38a1.62,1.62,0,0,1-1.36-.08,1.41,1.41,0,0,1-.64-1.2V66a2.44,2.44,0,0,1,1.52-2.31c4.7-2,15-4.14,22.71-4.14M452.68,108c0,3.11,2.54,6.22,7.49,6.22a11.24,11.24,0,0,0,7.33-2.79v-9.53a37.55,37.55,0,0,0-4.62-.16c-6-.08-10.2,2.55-10.2,6.3M556.06,32.79a2,2,0,0,1,2,2v94.05a2,2,0,0,1-2,2H542.5a2.63,2.63,0,0,1-2.39-1.6,30.68,30.68,0,0,1-1.27-3.83A24,24,0,0,1,522,132.59c-16.26,0-26.38-14-26.38-36.59,0-22.15,10.36-36.5,26.38-36.5a27.17,27.17,0,0,1,14.74,4.62V34.7a2,2,0,0,1,2-2h17.3M527.2,114.31c4.46,0,7.89-3.34,9.64-6.45V84c-1.75-3.11-5.18-6.38-9.64-6.38-6.7,0-10,6-10,18.26-.08,12.43,3.19,18.48,10,18.48M600,87.73c-7.25-3.19-12.75-4.86-12.75-8,0-1.59,1.59-3.42,6.61-3.42,6.38,0,12.59,1.83,20,5.34a1.38,1.38,0,0,0,1.85-.61,1.32,1.32,0,0,0,.15-.67V65.71a2.39,2.39,0,0,0-1.35-2.15c-5.27-2.48-13.47-4.23-20.65-4.23-15.06,0-27.57,6.94-27.57,21.2,0,11.32,6.93,17.78,19.84,23.12,6.86,2.86,12,4.3,11.88,7.57,0,1.59-1.36,3.5-7.89,3.5-6.7,0-14.51-2.55-20.8-5.65a1.44,1.44,0,0,0-1.93.65,1.32,1.32,0,0,0-.15.62v15.15a2.4,2.4,0,0,0,1.36,2.15c6.22,3,13.95,4.38,21.44,4.38,15.38,0,28.93-7.25,28.93-21.6.08-11.4-6.54-17.22-19-22.72" transform="translate(0 0.01)"/><path class="cls-1" d="M248.25,195.8c0-25,11-44.28,35.48-44.28,9,0,16.16,2,21.6,6.31v8.23c-4.52-3.19-15.09-4.95-21.6-4.95-16.77,0-22.06,13-22.06,34.19,0,21.48,5.29,34.57,22.46,34.57,7.18,0,16.55-2.49,21.2-5.93v8.36c-6.11,4.3-11.9,7.16-21.6,7.16-23.81,0-35.48-17.51-35.48-43.66" transform="translate(0 0.01)"/><path class="cls-1" d="M587.51,171.38h9.15l1.91,9.49c5-6.15,10.37-10.7,18.28-10.7a12.69,12.69,0,0,1,2.46.27v12H619a14.75,14.75,0,0,0-4.23-.54c-6.28,0-10.51,2.68-15.56,7.23v49.26H587.51Z" transform="translate(0 0.01)"/><path class="cls-1" d="M521,204.81c0-21.85,11-35.17,27.7-35.17s28.11,13.32,28.11,35.17-11.19,35.32-27.84,35.32-28-13.46-28-35.32m43.25.14c0-14.15-5-26.22-15.41-26.22s-15.28,11.94-15.28,26.08,5,26.22,15.41,26.22,15.31-12,15.31-26" transform="translate(0 0.01)"/></svg>