<svg width="17" height="17" viewBox="0 0 17 17" fill="none" xmlns="http://www.w3.org/2000/svg">
<path d="M0 2.37133L0 14.6287C0 15.9383 1.06168 17 2.37133 17H14.6287C15.9383 17 17 15.9383 17 14.6287V2.37133C17 1.06168 15.9383 0 14.6287 0H2.37133C1.06168 0 0 1.06168 0 2.37133Z" fill="url(#paint0_linear_498_1104)"/>
<path d="M8.46446 10.6184C8.46446 9.71174 9.20192 8.97428 10.1085 8.97428H13.004V6.90555C13.004 6.7194 12.9025 6.54175 12.7418 6.44859L9.72196 4.70609L6.43143 2.81127L3.74968 1.25441C3.68695 1.21803 3.61997 1.20154 3.55418 1.20154C3.34508 1.20154 3.1489 1.36967 3.1489 1.60121V5.75006L7.84872 8.46343L3.1489 11.1768V15.3982C3.1489 15.7029 3.47887 15.8974 3.74968 15.745L6.43976 14.1887L8.46463 13.0198V10.6182L8.46446 10.6184Z" fill="white"/>
<path d="M12.0008 13.2759H12.4918L12.2463 12.3556L12.0008 13.2759Z" fill="white"/>
<path d="M14.3839 9.89587H10.1086C9.70965 9.89587 9.38614 10.2194 9.38614 10.6184V14.8935C9.38614 15.2927 9.70965 15.616 10.1086 15.616H14.3839C14.7828 15.616 15.1064 15.2925 15.1064 14.8935V10.6184C15.1064 10.2194 14.7828 9.89587 14.3839 9.89587ZM12.9325 14.9291L12.7076 14.086H11.7847L11.56 14.9291H10.5949L11.8097 10.8083H12.6828L13.8976 14.9291H12.9325Z" fill="white"/>
<defs>
<linearGradient id="paint0_linear_498_1104" x1="8.5" y1="17" x2="8.5" y2="0" gradientUnits="userSpaceOnUse">
<stop stop-color="#FF0000"/>
<stop offset="0.12" stop-color="#FF0000"/>
<stop offset="0.13" stop-color="#FF0300"/>
<stop offset="0.26" stop-color="#FF2000"/>
<stop offset="0.39" stop-color="#FF3700"/>
<stop offset="0.53" stop-color="#FF4800"/>
<stop offset="0.69" stop-color="#FF5100"/>
<stop offset="0.9" stop-color="#FF5500"/>
<stop offset="1" stop-color="#FF5500"/>
</linearGradient>
</defs>
</svg>
