<svg id="Layer_1" data-name="Layer 1" xmlns="http://www.w3.org/2000/svg" xmlns:xlink="http://www.w3.org/1999/xlink" viewBox="0 0 64.5 64.5"><defs><style>.cls-1{fill:url(#linear-gradient);}.cls-2{fill:#fff;}</style><linearGradient id="linear-gradient" x1="564.67" y1="745.42" x2="629.19" y2="745.42" gradientTransform="translate(-298.9 -324.9)" gradientUnits="userSpaceOnUse"><stop offset="0" stop-color="#0057d3"/><stop offset="0.1" stop-color="#0057d3"/><stop offset="0.4" stop-color="#0086e5"/><stop offset="0.73" stop-color="#00b6f8"/><stop offset="0.9" stop-color="#00c8ff"/><stop offset="1" stop-color="#00c8ff"/></linearGradient></defs><rect class="cls-1" x="265.7" y="388.2" width="64.5" height="64.52" rx="9" transform="translate(-388.2 330.3) rotate(-90)"/><path class="cls-2" d="M297.9,428.5a6.2,6.2,0,0,1,6.2-6.2h11v-7.9a2.1,2.1,0,0,0-1-1.7l-11.5-6.6-12.5-7.2L280,393l-.8-.2a1.5,1.5,0,0,0-1.5,1.5v15.8l17.8,10.3-17.8,10.3v16A1.5,1.5,0,0,0,280,448l10.2-5.9,7.7-4.4Z" transform="translate(-265.7 -388.2)"/><path class="cls-2" d="M311.7,431.8H310v10h1.7c2,0,2.7-.9,2.7-5.3S313.6,431.8,311.7,431.8Z" transform="translate(-265.7 -388.2)"/><path class="cls-2" d="M320.3,425.8H304.1a2.7,2.7,0,0,0-2.7,2.7v16.3a2.7,2.7,0,0,0,2.7,2.7h16.2a2.8,2.8,0,0,0,2.8-2.7V428.5A2.8,2.8,0,0,0,320.3,425.8Zm-8.4,18.8h-5.5V429h5.4c4.2,0,6.5,1.9,6.5,7.6S316.7,444.6,311.9,444.6Z" transform="translate(-265.7 -388.2)"/></svg>