<svg id="Layer_1" data-name="Layer 1" xmlns="http://www.w3.org/2000/svg" viewBox="0 0 178.36 29.62"><defs><style>.cls-1{fill:#fff;}</style></defs><title>campsite_no_division_white</title><path class="cls-1" d="M46,7.31a8.41,8.41,0,0,1,7,3.4L49.12,13.5A3.67,3.67,0,0,0,46,11.91a3.82,3.82,0,0,0-4,3.64v.11a3.92,3.92,0,0,0,4,3.85h0a3.65,3.65,0,0,0,3.08-1.6L53,20.65a8.74,8.74,0,0,1-15.69-5C37.32,10.57,41.44,7.31,46,7.31Zm21.41,14.6C66.45,23.45,64,24,62.77,24a8.17,8.17,0,0,1-8.17-8.19v-.15a8.2,8.2,0,0,1,8-8.35h.14a6,6,0,0,1,4.68,2.13V7.66h4.73v16H67.45ZM63.57,19.5a3.81,3.81,0,0,0,0-7.62h0A3.82,3.82,0,1,0,63,19.5,5,5,0,0,0,63.57,19.5Zm27.1-4.26v8.48H85.89V15c0-2-1.27-3.09-2.64-3.09s-2.78.83-2.78,3.27v8.48H75.69v-16h4.78V10a4.6,4.6,0,0,1,4.18-2.65c2.55,0,4.26,1,5.15,2.82a5.53,5.53,0,0,1,4.81-2.85c3.81,0,6.18,2.44,6.18,7.28v9.1H96.05V15.14c0-2.1-1.23-3.2-2.64-3.2s-2.74,1-2.74,3.27Zm18.11-7.55v2a5.28,5.28,0,0,1,4.7-2.34c4.12,0,7.76,3.27,7.76,8.32s-3.64,8.42-7.76,8.42a5.25,5.25,0,0,1-4.7-2.31v7.84H104v-22Zm3.82,11.88A3.66,3.66,0,0,0,116.31,16v-.2a3.66,3.66,0,0,0-3.45-3.87h-.26a3.73,3.73,0,0,0-3.72,3.76v.12a3.64,3.64,0,0,0,3.5,3.78h.22Zm15.73-2.44c-4.81-1.31-4.84-3.75-4.81-5.22,0-2.37,2.89-4.57,6.25-4.57,3.19,0,6.56,1.41,6.59,5.32h-4.5c0-1.2-1.06-1.41-1.81-1.41-1,0-1.72.48-1.68,1.2,0,.48.45,1,1.41,1.2l2.71.72c3.88,1.07,4.36,3.64,4.36,4.68,0,3.4-3.57,5-6.94,5s-6.66-2-6.69-5.53h4.46a2.26,2.26,0,0,0,2.37,1.85c1.06,0,1.95-.51,1.95-1.33s-.41-1.07-1.58-1.38Zm49.12,3.67c-1.62,2.41-4.6,3.27-7.31,3.27a8.17,8.17,0,0,1-8.38-7.95c0-.16,0-.31,0-.47a8.3,8.3,0,0,1,16.59-.43,5.23,5.23,0,0,1,0,.56,14.68,14.68,0,0,1-.08,1.48H166.53c.24,1.86,2.26,2.68,4,2.68A4.46,4.46,0,0,0,174,18.43Zm-3.92-6.52a3.25,3.25,0,0,0-3.41-2.77,3.5,3.5,0,0,0-3.57,2.74ZM140.12,4.81V0h4.8V4.81Zm0,18.88V7.77h4.8V23.69Zm19.71-4.39a4.2,4.2,0,0,1-2.11.49,2.11,2.11,0,0,1-2.29-1.89,2.16,2.16,0,0,1,0-.36V11.28h3.39V7.46h-3.41V1.24h-4.8V7.46h-3v3.82h3v4.21h0v2.1c0,4.17,2.58,6.49,6.63,6.49a7.16,7.16,0,0,0,3.78-1ZM11.75,17.36l-5,2.32L12.81,8.27l6.07,11.41-5-2.32v6.33H25.67L12.83,0,0,23.69H11.75ZM21.49,0H17.12L30,23.69h4.33Z"/></svg>