<svg xmlns="http://www.w3.org/2000/svg" viewBox="0 0 247 247"><defs><style>.cls-1{fill:#b053d1;}.cls-2{fill:none;stroke:#fff;stroke-width:5.79px;}.cls-3{fill:#fff;}</style></defs><g id="Layer_2" data-name="Layer 2"><g id="Layer_1-2" data-name="Layer 1"><rect class="cls-1" width="247" height="247" rx="10"/><rect class="cls-2" x="75.76" y="64.89" width="84.47" height="56.7" rx="2.89"/><path class="cls-3" d="M100.62,95.17l1.3-12.76H115v3H104.68l-.77,7a8.24,8.24,0,0,1,4.27-1.11,7.06,7.06,0,0,1,5.55,2.32,9,9,0,0,1,2.06,6.24,8.74,8.74,0,0,1-2.14,6.24,7.76,7.76,0,0,1-6,2.27,8.07,8.07,0,0,1-5.54-1.88,7.5,7.5,0,0,1-2.44-5.2h3.07a5.19,5.19,0,0,0,1.57,3.32,4.86,4.86,0,0,0,3.34,1.11,4.38,4.38,0,0,0,3.55-1.55,6.46,6.46,0,0,0,1.3-4.27,5.86,5.86,0,0,0-1.41-4.11,4.68,4.68,0,0,0-3.71-1.57,5.39,5.39,0,0,0-3.34.93l-.86.71Zm34.77,1.91q0,5.72-1.95,8.49c-1.3,1.86-3.34,2.78-6.1,2.78s-4.75-.9-6.07-2.7-2-4.53-2-8.13V93.18c0-3.76.65-6.56,2-8.38s3.34-2.75,6.11-2.75,4.79.89,6.09,2.66,2,4.48,2,8.16Zm-3.25-4.44c0-2.76-.39-4.76-1.16-6a4,4,0,0,0-3.68-1.89,3.92,3.92,0,0,0-3.63,1.88,11.48,11.48,0,0,0-1.18,5.78v5.2a12.34,12.34,0,0,0,1.19,6.14,4,4,0,0,0,3.66,2,3.9,3.9,0,0,0,3.57-1.87A11.7,11.7,0,0,0,132.14,98Z"/><path class="cls-3" d="M75.76,107.13h0a2.89,2.89,0,0,1,2.9,2.89v30.09a2.89,2.89,0,0,1-2.9,2.89h0a2.89,2.89,0,0,1-2.89-2.89V110A2.89,2.89,0,0,1,75.76,107.13Z"/><path class="cls-3" d="M160.24,107.13h0a2.89,2.89,0,0,1,2.89,2.89v30.09a2.89,2.89,0,0,1-2.89,2.89h0a2.89,2.89,0,0,1-2.9-2.89V110A2.89,2.89,0,0,1,160.24,107.13Z"/><path class="cls-3" d="M54.1,198.07a1.39,1.39,0,0,0-.53-1.16,6.39,6.39,0,0,0-1.9-.82,9,9,0,0,1-2.19-.92,2.93,2.93,0,0,1-1.55-2.55,2.76,2.76,0,0,1,1.12-2.26,4.57,4.57,0,0,1,2.91-.89,4.82,4.82,0,0,1,2.12.44,3.43,3.43,0,0,1,1.46,1.25,3.19,3.19,0,0,1,.53,1.79h-2a1.8,1.8,0,0,0-.56-1.4,2.32,2.32,0,0,0-1.6-.5,2.39,2.39,0,0,0-1.5.41,1.37,1.37,0,0,0-.53,1.16,1.26,1.26,0,0,0,.57,1,6.83,6.83,0,0,0,1.91.82,8.3,8.3,0,0,1,2.13.9,3.26,3.26,0,0,1,1.18,1.15,3,3,0,0,1,.38,1.52,2.72,2.72,0,0,1-1.1,2.27,4.68,4.68,0,0,1-2.95.84,5.48,5.48,0,0,1-2.27-.46,3.81,3.81,0,0,1-1.61-1.26,3.17,3.17,0,0,1-.57-1.88h2a1.84,1.84,0,0,0,.63,1.5,2.78,2.78,0,0,0,1.84.53,2.43,2.43,0,0,0,1.55-.41A1.35,1.35,0,0,0,54.1,198.07ZM60,190.49v2.06H61.5V194H60v4.72a1.14,1.14,0,0,0,.18.71,1,1,0,0,0,.69.21,3.14,3.14,0,0,0,.67-.08V201a4.72,4.72,0,0,1-1.25.18c-1.46,0-2.19-.81-2.19-2.42V194H56.72v-1.4h1.39v-2.06ZM68,201a2.56,2.56,0,0,1-.22-.79,3,3,0,0,1-2.22.95,3,3,0,0,1-2.08-.73,2.33,2.33,0,0,1-.8-1.8,2.39,2.39,0,0,1,1-2.07,4.89,4.89,0,0,1,2.87-.72h1.17v-.56a1.33,1.33,0,0,0-1.49-1.44,1.71,1.71,0,0,0-1.06.32,1,1,0,0,0-.41.82h-1.9a2.06,2.06,0,0,1,.46-1.29,3,3,0,0,1,1.25-1,4.58,4.58,0,0,1,1.77-.34,3.54,3.54,0,0,1,2.37.75,2.62,2.62,0,0,1,.9,2.09v3.82a4.4,4.4,0,0,0,.32,1.82V201Zm-2.09-1.37a2.17,2.17,0,0,0,1.06-.27,1.84,1.84,0,0,0,.75-.74V197h-1a2.73,2.73,0,0,0-1.58.37,1.17,1.17,0,0,0-.53,1,1.15,1.15,0,0,0,.35.87A1.43,1.43,0,0,0,65.92,199.63ZM74,190.49v2.06h1.49V194H74v4.72a1.08,1.08,0,0,0,.19.71.92.92,0,0,0,.69.21,3,3,0,0,0,.66-.08V201a4.66,4.66,0,0,1-1.25.18c-1.46,0-2.19-.81-2.19-2.42V194H70.7v-1.4h1.39v-2.06ZM79,201h-1.9v-8.45H79Zm-2-10.65a1,1,0,0,1,.27-.73,1.27,1.27,0,0,1,1.59,0,1,1,0,0,1,.28.73,1,1,0,0,1-.28.72,1.27,1.27,0,0,1-1.59,0A1,1,0,0,1,77,190.35Zm7.56,9.29a1.75,1.75,0,0,0,1.18-.41,1.44,1.44,0,0,0,.5-1H88a2.79,2.79,0,0,1-.5,1.48,3.23,3.23,0,0,1-1.25,1.08,3.77,3.77,0,0,1-1.7.4A3.62,3.62,0,0,1,81.72,200a4.59,4.59,0,0,1-1-3.17v-.2a4.47,4.47,0,0,1,1-3.09,3.59,3.59,0,0,1,2.81-1.16,3.45,3.45,0,0,1,2.46.88,3.16,3.16,0,0,1,1,2.31H86.19a1.75,1.75,0,0,0-.5-1.2,1.6,1.6,0,0,0-1.18-.47,1.65,1.65,0,0,0-1.42.68,3.28,3.28,0,0,0-.51,2v.3a3.5,3.5,0,0,0,.49,2.06A1.67,1.67,0,0,0,84.51,199.64Zm18.11-4a6.86,6.86,0,0,1-.52,2.8,4.48,4.48,0,0,1-1.43,1.88l2,1.52L101.34,203l-2.42-1.92a4.76,4.76,0,0,1-1,.11,4.55,4.55,0,0,1-2.46-.68,4.39,4.39,0,0,1-1.67-1.93,6.85,6.85,0,0,1-.6-2.88V195a7,7,0,0,1,.59-2.94,4.41,4.41,0,0,1,1.66-1.94,4.86,4.86,0,0,1,4.94,0,4.29,4.29,0,0,1,1.66,1.92,7,7,0,0,1,.6,2.92Zm-2-.59a4.93,4.93,0,0,0-.72-2.92,2.53,2.53,0,0,0-4,0,4.84,4.84,0,0,0-.73,2.83v.66a5,5,0,0,0,.72,2.88,2.34,2.34,0,0,0,2,1,2.31,2.31,0,0,0,2-1,5,5,0,0,0,.71-2.92Zm8.93,5.15a2.92,2.92,0,0,1-2.37,1,2.64,2.64,0,0,1-2.09-.81,3.42,3.42,0,0,1-.7-2.33v-5.47h1.9V198c0,1.07.44,1.61,1.33,1.61a1.88,1.88,0,0,0,1.87-1v-6.07h1.9V201h-1.79Zm8.82.83a3.3,3.3,0,0,1-.22-.79,2.94,2.94,0,0,1-2.21.95,3,3,0,0,1-2.08-.73,2.31,2.31,0,0,1-.81-1.8,2.41,2.41,0,0,1,1-2.07,4.9,4.9,0,0,1,2.88-.72h1.16v-.56a1.32,1.32,0,0,0-1.48-1.44,1.72,1.72,0,0,0-1.07.32,1,1,0,0,0-.41.82h-1.9a2.12,2.12,0,0,1,.46-1.29,3.11,3.11,0,0,1,1.25-1,4.63,4.63,0,0,1,1.78-.34,3.5,3.5,0,0,1,2.36.75,2.66,2.66,0,0,1,.91,2.09v3.82a4.4,4.4,0,0,0,.32,1.82V201Zm-2.08-1.37a2.16,2.16,0,0,0,1-.27,1.84,1.84,0,0,0,.75-.74V197h-1a2.79,2.79,0,0,0-1.59.37,1.19,1.19,0,0,0-.53,1,1.12,1.12,0,0,0,.36.87A1.41,1.41,0,0,0,116.3,199.63Zm7.45-7.08,0,1a3.07,3.07,0,0,1,2.47-1.13c1.76,0,2.65,1,2.68,3V201h-1.9v-5.48a1.67,1.67,0,0,0-.35-1.18,1.43,1.43,0,0,0-1.13-.39,1.82,1.82,0,0,0-1.71,1v6H122v-8.45Zm9.52-2.06v2.06h1.5V194h-1.5v4.72a1.14,1.14,0,0,0,.19.71.92.92,0,0,0,.69.21,3,3,0,0,0,.66-.08V201a4.66,4.66,0,0,1-1.25.18c-1.46,0-2.18-.81-2.18-2.42V194H130v-1.4h1.4v-2.06Zm5,10.51h-1.9v-8.45h1.9Zm-2-10.65a1,1,0,0,1,.27-.73,1.07,1.07,0,0,1,.8-.28,1,1,0,0,1,.79.28,1,1,0,0,1,.29.73,1,1,0,0,1-.29.72,1,1,0,0,1-.79.28,1.07,1.07,0,0,1-.8-.28A1,1,0,0,1,136.23,190.35Zm6.47.14v2.06h1.49V194H142.7v4.72a1.14,1.14,0,0,0,.18.71.92.92,0,0,0,.69.21,3,3,0,0,0,.66-.08V201a4.66,4.66,0,0,1-1.25.18c-1.45,0-2.18-.81-2.18-2.42V194h-1.39v-1.4h1.39v-2.06Zm5.9,7.79,1.72-5.73h2L149,202.28a2.72,2.72,0,0,1-2.62,2.13,3.11,3.11,0,0,1-.91-.14V202.8l.35,0a1.79,1.79,0,0,0,1.08-.27,1.65,1.65,0,0,0,.58-.87l.27-.73-3-8.41h2Zm15.38.07h-4.41l-.92,2.65h-2.06l4.3-11.38h1.77L167,201h-2.06Zm-3.86-1.59h3.3L161.77,192Zm10.55,1.83,1.79-6h2L171.49,201h-1.65l-3-8.45h2Zm9.87,2.41a2.88,2.88,0,0,1-.22-.79,3,3,0,0,1-2.22.95,3,3,0,0,1-2.08-.73,2.33,2.33,0,0,1-.8-1.8,2.39,2.39,0,0,1,1-2.07,4.89,4.89,0,0,1,2.87-.72h1.17v-.56a1.49,1.49,0,0,0-.37-1.05,1.47,1.47,0,0,0-1.12-.39,1.71,1.71,0,0,0-1.06.32,1,1,0,0,0-.41.82h-1.9a2.06,2.06,0,0,1,.46-1.29,3,3,0,0,1,1.25-1,4.58,4.58,0,0,1,1.77-.34,3.54,3.54,0,0,1,2.37.75,2.66,2.66,0,0,1,.91,2.09v3.82a4.24,4.24,0,0,0,.32,1.82V201Zm-2.09-1.37a2.17,2.17,0,0,0,1.06-.27,1.84,1.84,0,0,0,.75-.74V197h-1a2.73,2.73,0,0,0-1.58.37,1.17,1.17,0,0,0-.53,1,1.12,1.12,0,0,0,.36.87A1.39,1.39,0,0,0,178.45,199.63Zm7.71,1.37h-1.89v-8.45h1.89Zm-2-10.65a1,1,0,0,1,.27-.73,1.28,1.28,0,0,1,1.6,0,1.05,1.05,0,0,1,.28.73,1,1,0,0,1-.28.72,1.28,1.28,0,0,1-1.6,0A1,1,0,0,1,184.15,190.35ZM190.26,201h-1.9V189h1.9Zm6.81-2.3a.86.86,0,0,0-.42-.77,4.5,4.5,0,0,0-1.38-.47,7.21,7.21,0,0,1-1.62-.51,2.16,2.16,0,0,1-1.42-2,2.24,2.24,0,0,1,.92-1.83,3.67,3.67,0,0,1,2.34-.73,3.79,3.79,0,0,1,2.45.75,2.4,2.4,0,0,1,.94,2H197a1.16,1.16,0,0,0-.41-.91,1.52,1.52,0,0,0-1.08-.37,1.71,1.71,0,0,0-1,.29.91.91,0,0,0-.39.78.75.75,0,0,0,.37.67,4.75,4.75,0,0,0,1.48.5,6.72,6.72,0,0,1,1.75.58,2.4,2.4,0,0,1,.94.82,2,2,0,0,1,.32,1.15,2.21,2.21,0,0,1-.95,1.85,4,4,0,0,1-2.47.71,4.41,4.41,0,0,1-1.86-.38,3,3,0,0,1-1.26-1,2.46,2.46,0,0,1-.45-1.41h1.84a1.36,1.36,0,0,0,.51,1,2,2,0,0,0,1.24.35,1.92,1.92,0,0,0,1.14-.28A.89.89,0,0,0,197.07,198.7Z"/></g></g></svg>