<svg id="Layer_1" data-name="Layer 1" xmlns="http://www.w3.org/2000/svg" xmlns:xlink="http://www.w3.org/1999/xlink" viewBox="0 0 562.33 240.36"><defs><style>.cls-1{fill:#fff;}.cls-2{opacity:0.2;}.cls-3{fill:#b1c4e5;}.cls-4{fill:#dde8ff;}.cls-5{fill:#799acc;}.cls-13,.cls-6{fill:#eff3fa;}.cls-6{fill-opacity:0.5;}.cls-7{fill:#999;}.cls-22,.cls-8{opacity:0.1;}.cls-11,.cls-15,.cls-17,.cls-22,.cls-8{isolation:isolate;}.cls-9{fill:#f2f2f2;}.cls-10{fill:#cbd5e8;}.cls-11,.cls-22{fill:#1a1a1a;}.cls-11,.cls-17{opacity:0.05;}.cls-12{fill:#c2ccde;}.cls-14{fill:#e4ebf5;}.cls-15{fill:#8ea0c0;opacity:0.08;}.cls-16{fill:#e6e6e6;}.cls-18{fill:#d3d3d4;}.cls-19{fill:#f37771;}.cls-20{fill:#e1e2e3;}.cls-21{fill:#ccc;}.cls-23{mask:url(#mask);}.cls-24{fill:#b1a6ff;}.cls-25{fill:#5f40d5;}.cls-26{fill:#8d8af0;}.cls-27{fill:#ffbe7d;}.cls-28{fill:#ffe49b;}.cls-29{fill:#ff9e3f;}.cls-30{fill:#ff9b00;}.cls-31{fill:#ffd400;}.cls-32{fill:#ff5f00;}.cls-33{fill:#ffc1c5;}.cls-34{fill:#a7d2fc;}.cls-35{fill:#96caf0;}.cls-36{fill:#32187c;}.cls-37{fill:#1f0d52;}.cls-38{fill:#060673;}.cls-39{fill:#f0b1b5;}.cls-40{fill:#070040;}.cls-41{fill:#ffb000;}.cls-42{fill:#89b8e6;}.cls-43{fill:#0f00a7;}.cls-44{fill:url(#linear-gradient);}.cls-45{fill:#ff3d53;}.cls-46{fill:url(#linear-gradient-2);}.cls-47{fill:#d0cedc;}</style><mask id="mask" x="440.58" y="112.28" width="67.01" height="79.36" maskUnits="userSpaceOnUse"><g transform="translate(0)"><g id="mask0"><path class="cls-1" d="M507.59,112.28h-61.1v65.18h61.1Z"/></g></g></mask><linearGradient id="linear-gradient" x1="303.79" y1="125.46" x2="300.1" y2="99.6" gradientTransform="matrix(1, 0, 0, -1, 0, 242)" gradientUnits="userSpaceOnUse"><stop offset="0" stop-color="#05000e" stop-opacity="0"/><stop offset="1" stop-color="#05000e"/></linearGradient><linearGradient id="linear-gradient-2" x1="335.76" y1="81.82" x2="322.91" y2="116.07" xlink:href="#linear-gradient"/></defs><g class="cls-2"><path class="cls-3" d="M24.34,187.43S0,187.43,0,167.91s15.34-25,12.17-39.28,9.52-28.38,27-19.76,3.94,38.23,10.06,47.23S57.14,188.8,24.34,187.43Z" transform="translate(0)"/><path class="cls-4" d="M24.34,226.26a.85.85,0,0,0,.56-.2.63.63,0,0,0,.23-.48V157.24a.68.68,0,0,0-.24-.47.91.91,0,0,0-1.11,0,.68.68,0,0,0-.24.47v68.34a.67.67,0,0,0,.23.48A.88.88,0,0,0,24.34,226.26Z" transform="translate(0)"/><path class="cls-5" d="M24.34,136.12c4.93-10.9,19-9.08,11.63-25.43-.51-1.15-1-2.36-1.46-3.62a27.36,27.36,0,0,1,4.64,1.8C56.6,117.5,43.08,147.1,49.2,156.1c5.07,7.46,7.16,25-10.89,30a14.29,14.29,0,0,1-.75-1.39c-5.29-11.36,8.11-18.17-3-24.07S18.76,148.42,24.34,136.12Z" transform="translate(0)"/><path class="cls-4" d="M62.43,196.07S45,194.25,39.68,182.9s8.11-18.17-3-24.07-15.8-12.22-10.22-24.52c4.93-10.9,19-9.09,11.64-25.43s.58-36,27-35.88c21.67.1,29.12,6.36,30.71,26.34s9.52,16.35,14.81,24.07,4.76,17.24-12.17,25-11.64,11.36-3.17,15.9S95.59,196.07,62.43,196.07Z" transform="translate(0)"/><path class="cls-5" d="M63.49,226.26a.85.85,0,0,0,.56-.2.62.62,0,0,0,.23-.48V88.89a.64.64,0,0,0-.24-.46.89.89,0,0,0-.55-.19.87.87,0,0,0-.55.19.65.65,0,0,0-.25.46V225.58a.63.63,0,0,0,.24.48A.85.85,0,0,0,63.49,226.26Z" transform="translate(0)"/><path class="cls-5" d="M63.49,115.91a1,1,0,0,0,.38-.08.76.76,0,0,0,.29-.24.66.66,0,0,0,.12-.32.59.59,0,0,0-.08-.34c-4.17-7.33-10.86-19.42-11-20.62a.57.57,0,0,0-.06-.25.62.62,0,0,0-.17-.22,1.1,1.1,0,0,0-.26-.15,1,1,0,0,0-.3,0,.88.88,0,0,0-.57.2.71.71,0,0,0-.23.49c0,1.41,8.57,16.58,11.2,21.19a.71.71,0,0,0,.29.28A.84.84,0,0,0,63.49,115.91Z" transform="translate(0)"/><path class="cls-5" d="M63.49,124.09a.85.85,0,0,0,.38-.09.73.73,0,0,0,.29-.23l13.75-18.62a.51.51,0,0,0,.11-.25.57.57,0,0,0,0-.26.74.74,0,0,0-.35-.43.89.89,0,0,0-.6-.09.8.8,0,0,0-.5.3L62.82,123a.62.62,0,0,0-.13.34.6.6,0,0,0,.1.35.73.73,0,0,0,.29.26A.92.92,0,0,0,63.49,124.09Z" transform="translate(0)"/><path class="cls-5" d="M63.49,138.16a.77.77,0,0,0,.37-.08.68.68,0,0,0,.38-.4.6.6,0,0,0-.06-.52L53.07,119.45a.78.78,0,0,0-.47-.33,1,1,0,0,0-.3,0,1,1,0,0,0-.3.08.81.81,0,0,0-.24.17.63.63,0,0,0-.17.5.63.63,0,0,0,.09.25l11.11,17.71a.73.73,0,0,0,.29.26A.91.91,0,0,0,63.49,138.16Z" transform="translate(0)"/><path class="cls-5" d="M63.49,145.88a.89.89,0,0,0,.36-.07.74.74,0,0,0,.28-.21l11.11-13.16a.62.62,0,0,0-.18-.95.86.86,0,0,0-.59-.12.82.82,0,0,0-.52.27L62.84,144.81a.64.64,0,0,0-.14.35.52.52,0,0,0,.08.36.84.84,0,0,0,.29.27,1,1,0,0,0,.42.1Z" transform="translate(0)"/><path class="cls-5" d="M63.49,173.13a.86.86,0,0,0,.39-.09.79.79,0,0,0,.29-.25.58.58,0,0,0,0-.68L45.65,144.87a.73.73,0,0,0-.48-.31.89.89,0,0,0-.6.07.69.69,0,0,0-.36.41.58.58,0,0,0,.07.51L62.8,172.8a.76.76,0,0,0,.29.24A.9.9,0,0,0,63.49,173.13Z" transform="translate(0)"/><path class="cls-5" d="M63.48,177.67a.79.79,0,0,0,.38-.08.72.72,0,0,0,.29-.22L77.91,159.2a.62.62,0,0,0,.11-.51.71.71,0,0,0-.35-.43.92.92,0,0,0-.59-.1.8.8,0,0,0-.5.3L62.82,176.62a.65.65,0,0,0-.13.35.64.64,0,0,0,.1.35.73.73,0,0,0,.29.26.91.91,0,0,0,.4.1Z" transform="translate(0)"/></g><path class="cls-6" d="M553.79,176.86V157.12H533.58V49.54h-13.3v50.61H485.72V84.6H465.51v15.55H455.6v36.06H443.7V38.93h-35V73.14H397.9V0H387.53V136.21h-8.35V20.11h-23V57.47H330.48V22.41h1.92c2.12,0,3.85-2.22,3.85-5V14.18c0-2.76-1.73-5-3.85-5h-2.34c0-5.1-3.17-9.2-7.08-9.2s-7.07,4.1-7.07,9.2h-2.35c-2.12,0-3.85,2.22-3.85,5v3.25c0,2.76,1.73,5,3.85,5h2.35v113.8H294.65V93.83h-13.3v83H270.53V43.52H231.64v104.1h-6.1v29.24h-8.8V100.15h4.79V91.53h-4.79V85.21h-3.81V73.14H199.3V85.21h-3.59v6.32h-4.66v8.62h4.66v76.71H183.26V73.14H178l1.7-8.39H157.54v8.39H154V176.86h-2.38V90.65h-7.37v86.21H138V114.4H123.35v62.46h-6V101.57H107.6V81.19H83.35v95.67H81.06V110.5H62.12v66.36H60v50.07H557.6V176.86Zm-484.56-1.8H64.6v-6h4.63Zm0-11.11H64.6v-6h4.63Zm0-11.12H64.6v-6h4.63Zm0-11.11H64.6v-6h4.63Zm0-11.11H64.6v-6h4.63Zm0-11.11H64.6v-6h4.63Zm8.54,55.56H73.14v-6h4.63Zm0-11.11H73.14v-6h4.63Zm0-11.12H73.14v-6h4.63Zm0-11.11H73.14v-6h4.63Zm0-11.11H73.14v-6h4.63Zm0-11.11H73.14v-6h4.63Zm11.61,36.05H86.12v-4.21h3.26Zm0-21.49H86.12v-4.21h3.26Zm0-21.46H86.12v-4.21h3.26Zm0-21.45H86.12V86.93h3.26Zm7.23,73.79H93.35v-4.21h3.26Zm0-21.49H93.35v-4.22h3.26Zm0-21.46H93.35v-4.21h3.26Zm0-21.45H93.35V96.32h3.26Zm7.24,73.79h-3.26v-4.22h3.26Zm0-21.5h-3.26v-4.21h3.26Zm0-21.45h-3.26v-4.22h3.26Zm0-21.46h-3.26v-4.21h3.26Zm7.24,52.3h-3.26V158h3.26Zm0-21.46h-3.26v-4.21h3.26Zm0-21.45h-3.26V115.1h3.26Zm24.35,51.49H125.11v-3h10.33Zm0-6.59H125.11v-3h10.33Zm0-6.55H125.11v-3h10.33Zm0-6.59H125.11v-3h10.33Zm0-6.59H125.11v-3h10.33Zm0-6.55H125.11v-3h10.33Zm0-6.59H125.11v-3h10.33Zm0-6.55H125.11v-3h10.33Zm27.74-1.65h-5v-6.51h5Zm0-36.21h-5V80.42h5Zm8.64,52.88h-5v-6.52h5Zm2.51-38.43h-5V94.86h5Zm5-14.45h-5V80.42h5Zm57.7-28.73h5v6.51h-5Zm0,39.92h5v6.52h-5Zm7.53,61.26h-5v-6.51h5Zm4.79-36.24h-5v-6.51h5Zm11.84-32.95h-5V83.68h5Zm0-22.22h-5V61.46h5Zm34.23,109h-7.05v-9.16h7.05Zm20.4-12.3h-7v-9.16h7Zm31.53,4.56h-7v-9.16h7Zm8.77-33.06H330.45V64.75h25.69Zm4.69-106.36h5v6.51h-5Zm2.51,63.6h-5V86.93h5Zm0-35.25h5v6.51h-5Zm8.54,94.67h-7v-9.16h7Zm2.32-46.7h-5V103.1h5Zm29.6-19.24h10.27v6.52H403.8Zm-.26,29.7h10.23v6.51H403.54ZM418.4,177h-7v-9.16h7ZM420.65,58.2h10.27v6.51H420.65ZM436,106.36H425.74V99.85H436Zm31.36,66h-7V140h7Zm.42-55.74H459.9V106.36h7.89Zm23.93,54h-7.89V160.38h7.89Zm3.94-42.38h-7.89V118h7.89Zm21-11.64h-7.89V106.36h7.89Zm10.26,44.63H519V151h7.88Z" transform="translate(0)"/><path class="cls-7" d="M455.24,159a2.77,2.77,0,0,1-2.62,2.89H427.91a2.91,2.91,0,0,1,0-5.79h24.71A2.78,2.78,0,0,1,455.24,159Z" transform="translate(0)"/><path class="cls-7" d="M452.83,163.08a1.13,1.13,0,0,1-1.08,1.18H428.68a1.19,1.19,0,0,1,0-2.37h23.07A1.16,1.16,0,0,1,452.83,163.08Z" transform="translate(0)"/><path class="cls-1" d="M524.29,95.5H257V199.36H524.29Z" transform="translate(0)"/><path class="cls-8" d="M257,147.43V95.5H524.25Z" transform="translate(0)"/><path class="cls-9" d="M257,88.18H229.07V224.11H257Z" transform="translate(0)"/><path class="cls-10" d="M254.51,86.44h-23v142.2h23Z" transform="translate(0)"/><path class="cls-11" d="M231.51,174.41v-88h23Z" transform="translate(0)"/><path class="cls-1" d="M246.5,75.28h-7V86.43h7Z" transform="translate(0)"/><path class="cls-1" d="M528.22,193.68H526V121.74h2.23a1.5,1.5,0,1,0,0-3H526V75.28h-4.88v43.47H519a1.5,1.5,0,1,0,0,3h2.16v71.91H519a1.5,1.5,0,1,0,0,3h2.16v32H526v-32h2.23a1.5,1.5,0,0,0,0-3Z" transform="translate(0)"/><path class="cls-10" d="M528.91,193.68h-2.23V121.74h2.23a1.5,1.5,0,1,0,0-3h-2.23V75.28H521.8v43.47h-2.16a1.5,1.5,0,0,0,0,3h2.16v71.91h-2.16a1.5,1.5,0,0,0,0,3h2.16v32h4.88v-32h2.23a1.5,1.5,0,0,0,0-3Z" transform="translate(0)"/><path class="cls-12" d="M290.52,227.42V201.63H285v25.79h-3.66v1.22h12.72v-1.22Z" transform="translate(0)"/><path class="cls-12" d="M495.53,227.42V201.63H490v25.79h-3.66v1.22h12.72v-1.22Z" transform="translate(0)"/><path class="cls-12" d="M391.28,227.42V201.63h-5.5v25.79h-3.66v1.22h12.72v-1.22Z" transform="translate(0)"/><path class="cls-1" d="M345.42,227.42V196.68h2.23a1.5,1.5,0,0,0,0-3h-2.23V121.74h2.23a1.5,1.5,0,1,0,0-3h-2.23V75.28h-4.88v43.47h-2.16a1.5,1.5,0,1,0,0,3h2.16v71.91h-2.16a1.5,1.5,0,1,0,0,3h2.16v30.74h-3.9v1.22h12.72v-1.22h-3.94Z" transform="translate(0)"/><path class="cls-10" d="M346.46,227.42V196.68h2.23a1.5,1.5,0,0,0,0-3h-2.23V121.74h2.23a1.5,1.5,0,1,0,0-3h-2.23V75.28h-4.88v43.47h-2.16a1.5,1.5,0,1,0,0,3h2.16v71.91h-2.16a1.5,1.5,0,1,0,0,3h2.16v30.74h-3.9v1.22H350.4v-1.22h-3.94Z" transform="translate(0)"/><path class="cls-1" d="M428.85,227.42V196.68h2.23a1.5,1.5,0,0,0,0-3h-2.23V121.74h2.23a1.5,1.5,0,1,0,0-3h-2.23V75.28H424v43.47h-2.16a1.5,1.5,0,1,0,0,3H424v71.91h-2.16a1.5,1.5,0,1,0,0,3H424v30.74h-3.9v1.22h12.72v-1.22h-3.94Z" transform="translate(0)"/><path class="cls-10" d="M429.9,227.42V196.68h2.24a1.5,1.5,0,0,0,0-3H429.9V121.74h2.24a1.5,1.5,0,0,0,0-3H429.9V75.28H425v43.47h-2.16a1.5,1.5,0,1,0,0,3H425v71.91h-2.16a1.5,1.5,0,1,0,0,3H425v30.74h-3.9v1.22h12.72v-1.22H429.9Z" transform="translate(0)"/><path class="cls-9" d="M502.92,194.31H278.28v7.28H502.92Z" transform="translate(0)"/><path class="cls-13" d="M559.66,75.28a48.78,48.78,0,0,0-47.33-36.94H240.47a48.8,48.8,0,0,0-47.33,36.94Z" transform="translate(0)"/><path class="cls-14" d="M282.23,38.34h-11.5A48.78,48.78,0,0,0,223.4,75.28h11.5A48.78,48.78,0,0,1,282.23,38.34Z" transform="translate(0)"/><path class="cls-14" d="M330.67,38.34h-11.5a48.8,48.8,0,0,0-47.33,36.94h11.5A48.8,48.8,0,0,1,330.67,38.34Z" transform="translate(0)"/><path class="cls-14" d="M363.57,38.34h-7.8c-15.58,0-28.65,15.72-32.24,36.94h11.08C338.17,54.06,348,38.34,363.57,38.34Z" transform="translate(0)"/><path class="cls-14" d="M488.7,38.34h11.5a48.79,48.79,0,0,1,47.33,36.94H536A48.83,48.83,0,0,0,488.7,38.34Z" transform="translate(0)"/><path class="cls-14" d="M440.25,38.34h11.51a48.8,48.8,0,0,1,47.33,36.94H487.58A48.78,48.78,0,0,0,440.25,38.34Z" transform="translate(0)"/><path class="cls-14" d="M407.32,38.34h7.84c15.58,0,28.65,15.72,32.24,36.94H436.14C432.55,54.06,422.9,38.34,407.32,38.34Z" transform="translate(0)"/><path class="cls-14" d="M380.4,38.34c-1.84,5.61-4,16.66-3.24,36.94h11.16c.73-20.28-1.43-31.33-3.24-36.94Z" transform="translate(0)"/><path class="cls-15" d="M395.11,39H240.46a48.8,48.8,0,0,0-47.33,37h77.52C287.9,67,329.9,48.45,395.11,39Z" transform="translate(0)"/><path class="cls-16" d="M143.65,224.11a4.53,4.53,0,0,1-4.53,4.53H117.68a4.52,4.52,0,0,1-4.53-4.53V184.9a4.52,4.52,0,0,1,4.53-4.53h21.44a4.53,4.53,0,0,1,4.53,4.53Z" transform="translate(0)"/><path class="cls-10" d="M121.1,222a2.1,2.1,0,0,1-4.19,0V184.55a2.1,2.1,0,0,1,4.19,0Z" transform="translate(0)"/><path class="cls-7" d="M130.51,222a2.09,2.09,0,0,1-4.18,0V184.55a2.09,2.09,0,1,1,4.18,0Z" transform="translate(0)"/><path class="cls-10" d="M139.92,222a2.1,2.1,0,0,1-4.19,0V184.55a2.1,2.1,0,0,1,4.19,0Z" transform="translate(0)"/><path class="cls-17" d="M143.33,183.23a4.52,4.52,0,0,0-4.21-2.86H117.68a4.52,4.52,0,0,0-4.53,4.53v39.21a4.41,4.41,0,0,0,2,3.73C116.11,213.48,134.3,192.71,143.33,183.23Z" transform="translate(0)"/><path class="cls-1" d="M123.64,179.67c.52-.56,2.26-1.29,4.77-1.29s4.25.7,4.78,1.29h1.88c-.35-2-3.52-3-6.66-3s-6.34,1-6.66,3Z" transform="translate(0)"/><path class="cls-8" d="M113.14,184.9v1.39h30.5V184.9a4.55,4.55,0,0,0-2.79-4.19H115.93A4.55,4.55,0,0,0,113.14,184.9Z" transform="translate(0)"/><path class="cls-16" d="M146.53,182.46a2.8,2.8,0,0,1-2.79,2.79H113.07a2.79,2.79,0,0,1,0-5.58h30.67A2.79,2.79,0,0,1,146.53,182.46Z" transform="translate(0)"/><path class="cls-18" d="M128.41,179.67H113.07a2.79,2.79,0,0,0,0,5.58h15.34Z" transform="translate(0)"/><path class="cls-9" d="M163.23,120.17h-2.85V228.64h2.85Z" transform="translate(0)"/><path class="cls-19" d="M161.8,132.44a22.13,22.13,0,1,0-22.13-22.13A22.13,22.13,0,0,0,161.8,132.44Z" transform="translate(0)"/><path class="cls-9" d="M161.81,129a18.65,18.65,0,1,0-18.65-18.65A18.65,18.65,0,0,0,161.81,129Z" transform="translate(0)"/><path class="cls-20" d="M143.75,111.36a18.65,18.65,0,0,1,34.47-9.87A18.64,18.64,0,1,0,146,120.17,18.26,18.26,0,0,1,143.75,111.36Z" transform="translate(0)"/><path class="cls-21" d="M171.77,105.36h3.94l-.14-1.18h-29v11.64h2.3a2.54,2.54,0,1,1,5.08,0h15.86a2.55,2.55,0,1,1,5.09,0h2l-.9-7.43H171.7v-3Zm-19.9,3h-3v-3h3Zm3.59,0h-3v-3h3Zm3.62,0h-3v-3h3Zm3.63,0h-3v-3h3Zm3.59,0h-3v-3h3Zm3.62,0h-3v-3h3Z" transform="translate(0)"/><path class="cls-21" d="M151.41,113.73a2.06,2.06,0,1,0,2.06,2A2.06,2.06,0,0,0,151.41,113.73Z" transform="translate(0)"/><path class="cls-21" d="M172.36,113.73a2.06,2.06,0,1,0,0,4.11,2.08,2.08,0,0,0,2.06-2.06A2,2,0,0,0,172.36,113.73Z" transform="translate(0)"/><path class="cls-17" d="M150.82,129.55l23.64-37.36a22.13,22.13,0,1,0-23.64,37.36Z" transform="translate(0)"/><path class="cls-10" d="M510.88,109.09H443.26v72.15h67.62Z" transform="translate(0)"/><path class="cls-1" d="M507.63,112.57H446.54v65.18h61.09Z" transform="translate(0)"/><path class="cls-22" d="M443.26,133V109.09h67.61Z" transform="translate(0)"/><path class="cls-16" d="M562.33,228.12H60v3.54H562.33Z" transform="translate(0)"/><path class="cls-12" d="M112.84,228.64H82.76v3.55h30.08Z" transform="translate(0)"/><path class="cls-12" d="M175.57,228.64H145.49v3.55h30.08Z" transform="translate(0)"/><path class="cls-12" d="M238.31,228.64H208.23v3.55h30.08Z" transform="translate(0)"/><path class="cls-12" d="M301.05,228.64H271v3.55h30.08Z" transform="translate(0)"/><path class="cls-12" d="M363.78,228.64H333.7v3.55h30.08Z" transform="translate(0)"/><path class="cls-12" d="M426.52,228.64H396.45v3.55h30.07Z" transform="translate(0)"/><path class="cls-12" d="M489.26,228.64H459.18v3.55h30.08Z" transform="translate(0)"/><path class="cls-12" d="M552,228.64H521.91v3.55H552Z" transform="translate(0)"/><g class="cls-23"><path class="cls-24" d="M467.75,157.67h-1.36a16.22,16.22,0,0,1-4.86-6.79,21.59,21.59,0,0,1-1.24-5.09,4.76,4.76,0,0,1,.11-1.35c.68-1.81,5.43-3.17,8.59-2.38a14.55,14.55,0,0,1,5,2.15,6.78,6.78,0,0,0-3.17,1,8.1,8.1,0,0,0-2.37,2.15c-.11.11-.23.22-.23.34C465.94,151.22,467.75,157.44,467.75,157.67Z" transform="translate(0)"/><path class="cls-25" d="M467.75,157.67c-.11-.23-1.92-7,.68-10.18a7.45,7.45,0,0,1,5.65-3.16S476.23,145.34,467.75,157.67Z" transform="translate(0)"/><path class="cls-24" d="M483,159.14a6.62,6.62,0,0,0-2.83-2.49,11.16,11.16,0,0,0-2.38-.9,5,5,0,0,0-2.26-.12c-3.28.46-6.56,2.94-6.78,2.94l-.45-.79-.12-.22a64.8,64.8,0,0,1,6.56-6.22,13.54,13.54,0,0,1,2.72-1.81,2.87,2.87,0,0,1,1.24-.34c1.81,0,3.28,2.49,4,5.2A11.94,11.94,0,0,1,483,159.14Z" transform="translate(0)"/><path class="cls-25" d="M468.88,158.68c.11-.11,5.09-3.84,8.93-2.82s5.2,3.28,5.2,3.28S480.64,162.64,468.88,158.68Z" transform="translate(0)"/><path class="cls-26" d="M469.46,158.69a1.6,1.6,0,0,1-1.24,1,1.51,1.51,0,0,1-1.24-.11,1.32,1.32,0,0,1-.45-.34,1.93,1.93,0,0,1-.46-2.15,1.88,1.88,0,0,1,.79-.79,2.75,2.75,0,0,1,.91-.22,2.13,2.13,0,0,1,.79.22,1.61,1.61,0,0,1,.9,1A1,1,0,0,1,469.46,158.69Z" transform="translate(0)"/><path class="cls-27" d="M466.52,157.9,453.9,184.2l15.49,7.44L482,165.34Z" transform="translate(0)"/><path class="cls-28" d="M453.2,151.45l-12.62,26.29,21.81,10.47L475,161.91Z" transform="translate(0)"/><path class="cls-29" d="M452.59,152.61l-3.86,8,28.84,13.85,3.87-8Z" transform="translate(0)"/><path class="cls-27" d="M482.91,165.76l-16.41-7.87-3.87,8.05L479,173.82Z" transform="translate(0)"/><path class="cls-28" d="M475.32,162.08,452.18,151,448.32,159l23.14,11.1Z" transform="translate(0)"/><path class="cls-24" d="M479.6,164.19l-1.84-.88-12.62,26.3,1.84.88Z" transform="translate(0)"/><path class="cls-24" d="M467.41,158.35s.57,5.54-5,15.72c0,0,3.84.45,5.65-.46,0,0,4.07-10,1.36-14.36C469.33,159.25,468.66,158.12,467.41,158.35Z" transform="translate(0)"/><path class="cls-24" d="M466.73,158s-7.12,8-12.1,12.89c0,0-1-3.73-1.35-5.54,0,0,6.44-7.69,11.3-8.48A2.93,2.93,0,0,1,466.73,158Z" transform="translate(0)"/><path class="cls-24" d="M484.32,132.94l-.18.55-.06.19a9.33,9.33,0,0,1-4.56,1.46,12.52,12.52,0,0,1-3-.22,2.64,2.64,0,0,1-.72-.3c-.87-.69-.77-3.53.22-5.12a8.23,8.23,0,0,1,2.05-2.34,3.88,3.88,0,0,0,0,1.91,4.43,4.43,0,0,0,.75,1.68c0,.08.08.16.15.18C480.48,132.79,484.2,132.9,484.32,132.94Z" transform="translate(0)"/><path class="cls-25" d="M484.33,132.94c-.15,0-4.17-.19-5.44-2.17a4.29,4.29,0,0,1-.74-3.65S479.09,126.13,484.33,132.94Z" transform="translate(0)"/><path class="cls-24" d="M487.82,124.86A3.77,3.77,0,0,0,486,126a6.52,6.52,0,0,0-.92,1.14,2.94,2.94,0,0,0-.46,1.21,12,12,0,0,0,.41,4.23l-.51.11-.14,0A36.51,36.51,0,0,1,482.1,128a7.9,7.9,0,0,1-.5-1.8,1.6,1.6,0,0,1,0-.74c.32-1,1.94-1.36,3.54-1.25A6.61,6.61,0,0,1,487.82,124.86Z" transform="translate(0)"/><path class="cls-25" d="M485.09,132.5c0-.08-1.21-3.46,0-5.38a4.42,4.42,0,0,1,2.71-2.26S489.32,126.77,485.09,132.5Z" transform="translate(0)"/><path class="cls-26" d="M485.18,132.19a1.08,1.08,0,0,1,.06,1.52.87.87,0,0,1-.26.18,1.11,1.11,0,0,1-1.26-.13,1,1,0,0,1-.29-.57,1.61,1.61,0,0,1,0-.54,1.37,1.37,0,0,1,.27-.39.9.9,0,0,1,.71-.31A.58.58,0,0,1,485.18,132.19Z" transform="translate(0)"/><path class="cls-27" d="M484.23,133.65l12.15,11.53,6.79-7.15L491,126.49Z" transform="translate(0)"/><path class="cls-28" d="M478.35,139.79l12.15,11.53,9.57-10.07-12.15-11.53Z" transform="translate(0)"/><path class="cls-29" d="M478.88,140.33l3.71,3.53,12.66-13.32L491.53,127Z" transform="translate(0)"/><path class="cls-27" d="M491.42,126.08l-7.2,7.58,3.72,3.53,7.2-7.57Z" transform="translate(0)"/><path class="cls-28" d="M488.07,129.58l-10.15,10.68,3.72,3.53,10.15-10.68Z" transform="translate(0)"/><path class="cls-24" d="M490,127.62l-.81.84L501.31,140l.8-.85Z" transform="translate(0)"/><path class="cls-24" d="M484.63,133.24s3.13.67,7.71,5.49a7.8,7.8,0,0,0,.75-3.17s-4.72-4-7.61-3.27C485.46,132.35,484.72,132.52,484.63,133.24Z" transform="translate(0)"/><path class="cls-24" d="M484.32,133.55s3.13,5.31,4.91,8.88c0,0-2.22-.1-3.26-.23,0,0-3.07-4.88-2.64-7.68C483.33,134.52,483.67,133.68,484.32,133.55Z" transform="translate(0)"/><path class="cls-30" d="M470.52,130.63l-2.6-4.73.1-7-15.13,1-1.13.77,6.65,5.57Z" transform="translate(0)"/><path class="cls-31" d="M467.13,129.61l0-9.73-15.33.76,1.57,10.68Z" transform="translate(0)"/><path class="cls-31" d="M466.55,125.74l4,4.89-5-1.47Z" transform="translate(0)"/><path class="cls-32" d="M456.12,124a1.89,1.89,0,0,1,.13-1.36,1.33,1.33,0,0,1,1-.61,1.4,1.4,0,0,1,1.15.21,1.92,1.92,0,0,1,.63,1.22,2,2,0,0,1-.13,1.36,1.35,1.35,0,0,1-1,.61,1.41,1.41,0,0,1-1.15-.21A1.88,1.88,0,0,1,456.12,124Zm1-.18a1.57,1.57,0,0,0,.32.82.41.41,0,0,0,.34.1.44.44,0,0,0,.29-.22,1.83,1.83,0,0,0,0-.88,1.66,1.66,0,0,0-.32-.82.35.35,0,0,0-.34-.1.42.42,0,0,0-.29.22A1.57,1.57,0,0,0,457.1,123.78Zm2.4,4.9-.92.17,2.19-7.57.91-.17Zm1.69-2.09a1.89,1.89,0,0,1,.14-1.36,1.28,1.28,0,0,1,1-.61,1.51,1.51,0,0,1,1.15.2,2,2,0,0,1,.62,1.23,1.88,1.88,0,0,1-.13,1.36,1.36,1.36,0,0,1-1,.61,1.39,1.39,0,0,1-1.15-.21A1.92,1.92,0,0,1,461.19,126.59Zm1-.19a1.58,1.58,0,0,0,.32.83.32.32,0,0,0,.34.09.4.4,0,0,0,.29-.21,1.83,1.83,0,0,0,0-.88,1.77,1.77,0,0,0-.31-.83.4.4,0,0,0-.35-.09.37.37,0,0,0-.28.21A1.55,1.55,0,0,0,462.17,126.4Z" transform="translate(0)"/></g><path class="cls-33" d="M239.66,113.13c-.11,0-.11,0-.23.12V113a1,1,0,0,0-.36-.71c-.7-.47-1.41-.12-2.12.12-.12,0-.12.12-.24.12-.94.23-1.89.59-2.59.82a3.21,3.21,0,0,1-1.42.24s1.54-.59,1.77-.71a.68.68,0,0,0,.24-1.18c-1.18-.71-2.72.24-3.66.83a3.58,3.58,0,0,0-1.89,3.18.77.77,0,0,0,.35.6,5.54,5.54,0,0,0,.36,1.06.6.6,0,0,0,.35.82c.12,0,.24.12.36.12a.42.42,0,0,0,.35.12c2.6.71,7.55.94,8.26-.71.12-.35-.12-.71-.12-.83.59-.35,1-.35,1.07-1.06A1.69,1.69,0,0,0,240,115a1.44,1.44,0,0,0,.35-1.07C240.37,113.48,240,113,239.66,113.13Z" transform="translate(0)"/><path class="cls-33" d="M163.07,162c-.24.83.35,1.06.71,1.77s.47,4.72,1.53,5.08c1.42.47-.12-2.72.71-2.48.24.12.71,4.25,1.65,3.42.48-.35.12-3.54.71-2.83.36.94.47,3.89,1.3,3.66.47-.12.59-2,.35-2.72-.47-2.24.36-2,.95.12.23,1.06,1.06,1.3,1.18.12.23-2.36-2.25-5-3.9-6.37C167.44,161.28,163.54,160.34,163.07,162Z" transform="translate(0)"/><path class="cls-33" d="M166.14,161.4c-.59.12-.47.95,0,1.06a2.55,2.55,0,0,0,1.77.48c.36,0,.71-.12,1.18-.12a3.35,3.35,0,0,1,1.54.47c.35.12.82,0,.82-.35C171.45,160.93,167.44,161.16,166.14,161.4Z" transform="translate(0)"/><path class="cls-34" d="M216.66,145.7a11.92,11.92,0,0,1,1.18.48,11.28,11.28,0,0,0,6.37.58c2.95-.94,5.2-4.83,6.61-9.67.12-.36.24-.83.36-1.18a56.39,56.39,0,0,0,1.41-8.74,4,4,0,0,1,.12-1.18,25.91,25.91,0,0,0-.47-7.31l-3.19-1.54s-.71,2.12-2.24,5.78c-.12.36-.35.71-.47,1.18a10,10,0,0,0-.59,1.18,37.67,37.67,0,0,1-2,3.78,2.43,2.43,0,0,1-.47.71l-.71,1.06a8,8,0,0,1-2.24,2.24,2.09,2.09,0,0,1-1.89,0,5.11,5.11,0,0,1-1.06-.7,14.36,14.36,0,0,1-2.13-2.36c-3.66-4.49-10-12.87-15.46-11C186.92,123.28,204,140.86,216.66,145.7Z" transform="translate(0)"/><path class="cls-35" d="M218.66,146.41a68.71,68.71,0,0,0-5.55-19.12s-4.48-6.14-9.32-8.14c0,0,4.48,20.3,9.68,24.9C214.88,145.35,218.66,146.41,218.66,146.41Z" transform="translate(0)"/><path class="cls-33" d="M202.26,232l-.95,4.84h-2.24L198,231.51Z" transform="translate(0)"/><path class="cls-25" d="M213.22,159.51a289.11,289.11,0,0,1-3.54,39.9,291.08,291.08,0,0,1-7.79,32.93h-4.13s-1.53-20.89-2.36-34.11c-.82-12.52-4.36-36.47-4.36-36.47Z" transform="translate(0)"/><path class="cls-25" d="M203.09,233.4a1,1,0,0,0,.59-1.3s.23-.71.11-.95-6.49-.82-6.84,0a.89.89,0,0,0,.23,1.19s-.82.59,0,.82A13.05,13.05,0,0,0,203.09,233.4Z" transform="translate(0)"/><path class="cls-36" d="M205.09,158s-.36,10.38-2.13,28c-1.77,18.29-5.78,39.89-5.78,39.89s-1.42-22.54-2.36-32.22c-.71-8.14-4-31.87-4-31.87Z" transform="translate(0)"/><path class="cls-37" d="M201.67,235.29s9.92,0,11.92,5.07H197.3s-1.29-3.54,1.54-5C198.84,235.4,199.9,236.35,201.67,235.29Z" transform="translate(0)"/><path class="cls-38" d="M203.08,237.41c0,.12.12.12.12,0a2.22,2.22,0,0,1,.94-2c.24,0,.59.12.83.12a2.35,2.35,0,0,0-.83,1.89c0,.12.12.12.12,0a2.11,2.11,0,0,1,.82-1.77v-.12a1.38,1.38,0,0,0,.95-.35,1.3,1.3,0,0,0,.47-1.42,1.41,1.41,0,0,0-.24-1.65c-1.41-1.06-2.83,2.12-2.59,3.19h.12A2.7,2.7,0,0,0,203.08,237.41Zm3.54-3.78c-.36-.47-1.18-.23-1.54,0a2.39,2.39,0,0,0-.94,1.42c-.12-.59.35-1.3.59-1.77s1.53-1.77,2-.47A1.69,1.69,0,0,1,206.62,233.63Zm-1.77.48a1.43,1.43,0,0,1,.94-.48c.24,0,.59,0,.71.24a4.41,4.41,0,0,1-2.36,1.42A2,2,0,0,1,204.85,234.11Zm-.36,1.18a4.76,4.76,0,0,0,2.13-1.18,1.39,1.39,0,0,1-1.06,1.18A1.78,1.78,0,0,1,204.49,235.29Z" transform="translate(0)"/><path class="cls-38" d="M197.18,239.42H213a.3.3,0,0,1,0,.59H197.18C196.83,240,196.83,239.42,197.18,239.42Z" transform="translate(0)"/><path class="cls-25" d="M175.7,159.51s-2.6,15.11-4,36.36c-.83,12,2.12,36.7,2.12,36.7l4.25-1.18L198,161.76Z" transform="translate(0)"/><path class="cls-33" d="M173.81,232l.82,4.84h2.25l1.06-5.31Z" transform="translate(0)"/><path class="cls-25" d="M172.86,233.4a1,1,0,0,1-.59-1.3s-.23-.71-.12-.94,6.5-.83,6.85,0a.89.89,0,0,1-.24,1.18s.83.59,0,.82A13,13,0,0,1,172.86,233.4Z" transform="translate(0)"/><path class="cls-37" d="M174.29,235.29s-9.92,0-11.92,5.07h16.28s1.3-3.54-1.53-5C177.24,235.4,176.06,236.35,174.29,235.29Z" transform="translate(0)"/><path class="cls-38" d="M172,235.4c.36-1.06-1.06-4.25-2.47-3.18a1.41,1.41,0,0,0-.24,1.65c-.23.47.12,1.06.47,1.42a1.38,1.38,0,0,0,.95.35v.12a2.11,2.11,0,0,1,.82,1.77c0,.12.12.12.12,0a2.34,2.34,0,0,0-.82-1.89,2,2,0,0,0,.82-.12,2.52,2.52,0,0,1,.95,2c0,.12.11.12.11,0A2,2,0,0,0,172,235.4Zm-2.71-2.59c.47-1.3,1.65-.12,2,.47s.7,1.18.59,1.77a2.36,2.36,0,0,0-1-1.42,1.11,1.11,0,0,0-1.53,0A.94.94,0,0,1,169.33,232.81Zm2.48,2.48a4.9,4.9,0,0,1-2.36-1.42c.12-.24.47-.24.71-.24a1.43,1.43,0,0,1,.94.48A2,2,0,0,1,171.81,235.29Zm-1.42,0a1.39,1.39,0,0,1-1.06-1.18c.35.7,1.3.94,2.13,1.18A1.78,1.78,0,0,1,170.39,235.29Z" transform="translate(0)"/><path class="cls-38" d="M163.08,239.3h15.81a.3.3,0,0,1,0,.59H163.08C162.6,239.89,162.6,239.3,163.08,239.3Z" transform="translate(0)"/><path class="cls-34" d="M173,163.17a79.7,79.7,0,0,0,8.73,1.18c.36,0,.83.12,1.18.12,4,.35,7.68.47,11,.47h1.18a73.25,73.25,0,0,0,13.57-1.53,4.2,4.2,0,0,1,1.18-.24,30.69,30.69,0,0,0,6.26-2c-.35-2.25-.59-4.49-.83-6.5,0-.35-.11-.82-.11-1.18-.6-4.25-1.07-8-1.66-11.45-.11-.35-.11-.82-.23-1.17a76.45,76.45,0,0,0-3.07-12.63,4.54,4.54,0,0,0-.47-1.07c-2.72-6.72-6.85-10-14.17-10.38a15.58,15.58,0,0,0-11.8,4.36l-.71.71a27.29,27.29,0,0,0-5.66,9.56l-.36,1.07a65.21,65.21,0,0,0-3.07,13.21c0,.36-.11.71-.11,1.18q-.54,5-.71,8.86v1.18A36.37,36.37,0,0,0,173,163.17Z" transform="translate(0)"/><path class="cls-35" d="M173,163.17s-.6-21.72,4.13-30.57l4,3.19s-2,7.08-3.19,12.27a68.29,68.29,0,0,0-1.89,15.58Z" transform="translate(0)"/><path class="cls-35" d="M187.61,118.2s1.66,12-6.61,17.71l-.59,2.24s3.31-.35,6.38-5.43c4.13-6.84,3.07-15.34,3.07-15.34Z" transform="translate(0)"/><path class="cls-34" d="M157.88,158.21c.23.36.58.59.82.95a35.84,35.84,0,0,0,3.9,3.54l1.29-.24,1.3-.23,2.24-.36a32.32,32.32,0,0,1-2.59-5.9c-.12-.35-.24-.82-.35-1.18a17.06,17.06,0,0,1-.71-7.67,5.23,5.23,0,0,1,.47-1.3l.35-.71a11.36,11.36,0,0,1,3.31-3.42c.35-.23.59-.47.94-.71a26.55,26.55,0,0,1,5.43-2.83c.35-.12.71-.35,1.06-.47a49.12,49.12,0,0,1,5.2-1.77,18.66,18.66,0,0,0,6.25-9.09,2.78,2.78,0,0,0,.24-.94,18.46,18.46,0,0,0,.47-7.8,53.62,53.62,0,0,0-10.74,2.72c-.47.24-.94.35-1.42.59a44.89,44.89,0,0,0-11.8,7.32c-.35.35-.71.59-1.06.94a30.3,30.3,0,0,0-7.91,11,15.71,15.71,0,0,0-1.06,4.37,3.92,3.92,0,0,0-.12,1.18C153.15,151.25,155.16,155,157.88,158.21Z" transform="translate(0)"/><path class="cls-39" d="M198.71,117s-1.76,3.19-7.19-.12a10.66,10.66,0,0,0,.23-5.9l5.43,1.3A6.14,6.14,0,0,0,198.71,117Z" transform="translate(0)"/><path class="cls-33" d="M200.42,106.52c-.54-4-3.28-6.94-6.12-6.56s-4.71,3.94-4.17,8,3.28,6.94,6.12,6.56S201,110.53,200.42,106.52Z" transform="translate(0)"/><path class="cls-33" d="M199,106.17a23.05,23.05,0,0,1,2.12,3.89c.12.24,0,.47-.24.47a22.26,22.26,0,0,1-2.59.36C197.41,110.77,199,106.17,199,106.17Z" transform="translate(0)"/><path class="cls-33" d="M199.19,103.1A10.48,10.48,0,0,1,200,105a5.07,5.07,0,0,1-3.66-.94c-2.6-2.12-5.66-.24-5.66-.24l.59-2.36,7.55-1.06Z" transform="translate(0)"/><path class="cls-40" d="M191.16,105.1a1.76,1.76,0,0,0,1.77-1.3c.59-1.41,2.24-.82,3.77-.35,5.55,2,3.43-1.65,2.72-2.71s-4.37-4.14-5.55-3.07-3,1.53-4.13,1.88c-2.24.71-2.24,4-1.89,4.73,1.06,2.24.36,3.18-.35,3.89s0,2.83,2,3C192.57,111.47,190.21,106.64,191.16,105.1Z" transform="translate(0)"/><path class="cls-33" d="M191.63,106.52s-.94-1.3-1.89-.36.12,3.9,1.54,3.07S191.63,106.52,191.63,106.52Z" transform="translate(0)"/><path class="cls-31" d="M188.33,105.93a6.62,6.62,0,0,1,1.06-2.72c.12-.11.12-.23.24-.23a.12.12,0,0,1,.12-.12,10.82,10.82,0,0,1,3.42-2.12,1,1,0,0,1,.59-.12,8.92,8.92,0,0,1,5.78.23c.83-2.12-3.07-6.73-8.14-4.48l-.71.35a.12.12,0,0,0-.12.12c-.12,0-.12.12-.23.12C185.26,99.91,188.33,105.93,188.33,105.93Z" transform="translate(0)"/><path class="cls-41" d="M189,103.1c.11.11.23.23.35.23a.25.25,0,0,0,.23-.23V103c-.7-1.89.12-3.54.83-5.31.36.47.71,1.06,1.06,1.53s1.18.94,1.54,1.65a1,1,0,0,1,.59-.12v-.11A6.87,6.87,0,0,0,192.1,99c-.47-.59-.82-1.29-1.29-1.77h.11a4.63,4.63,0,0,1,5.32,2.25c.23.35.7,0,.47-.36a5.23,5.23,0,0,0-5.43-2.71.68.68,0,0,0-.47.12.25.25,0,0,0-.24.23v.12h-.12c-.12,0-.12.12-.23.12C189.27,99,188.21,101,189,103.1Z" transform="translate(0)"/><path class="cls-30" d="M192.7,101s3.89-1.89,4.37-2.24c3.66-2.13,7.43-2.48,8.14-1,1.53,3.54-5.78,3.19-5.78,3.19S198.13,99.55,192.7,101Z" transform="translate(0)"/><path class="cls-30" d="M190.34,97.43a.59.59,0,1,0-.59-.59A.58.58,0,0,0,190.34,97.43Z" transform="translate(0)"/><path class="cls-42" d="M163.07,164.71a17,17,0,0,0,5.78-3.43l-.59-1.88s-6.85,3.54-7.32,3.54Z" transform="translate(0)"/><path class="cls-33" d="M229,117.73c0,1,1.42,2.36,2.72,1.53a7.49,7.49,0,0,0,1.65-2.59c.24-1-.24-1.06-.12-2a.73.73,0,0,0-.35-.71c-.12-.23-.24-.59-.47-.7a4.5,4.5,0,0,0-2.48.23C228.93,114.19,229,116.55,229,117.73Z" transform="translate(0)"/><path class="cls-42" d="M228.46,116.55s4.6.71,5.43,2.13l-.24,2.12-5.78-2.48Z" transform="translate(0)"/><path class="cls-33" d="M309,232l.82,4.84H312l1.18-5.31Z" transform="translate(0)"/><path class="cls-34" d="M320.16,161.87s-3.3,22-4.25,34.82c0,.47-.11,1.06-.11,1.54-.12,2.12-.36,4.36-.48,6.72-.82,12.51-1.89,27.39-1.89,27.39H309.3s-.94-3.31-2.36-8.27c-1.77-6.49-4-15.81-5.43-24.55a293.15,293.15,0,0,1-3.54-40l4.49.48,1.18.11,3.78.36,1.18.11,3.54.36.94.12Z" transform="translate(0)"/><path class="cls-37" d="M309.53,235.29s-9.91,0-11.92,5.07H313.9s1.3-3.54-1.53-5A2.43,2.43,0,0,1,309.53,235.29Z" transform="translate(0)"/><path class="cls-38" d="M307.17,235.4c.35-1.06-1.06-4.24-2.48-3.18a1.39,1.39,0,0,0-.23,1.65c-.24.47.11,1.06.47,1.42a1.35,1.35,0,0,0,.94.35v.12a2.12,2.12,0,0,1,.83,1.77c0,.12.12.12.12,0a2.35,2.35,0,0,0-.83-1.89,2,2,0,0,0,.83-.12,2.53,2.53,0,0,1,.94,2c0,.12.12.12.12,0A2,2,0,0,0,307.17,235.4Zm-2.6-2.59c.48-1.3,1.66-.12,2,.47s.71,1.18.59,1.77a2.39,2.39,0,0,0-.94-1.42,1.12,1.12,0,0,0-1.54,0A.71.71,0,0,1,304.57,232.81Zm2.36,2.48a5,5,0,0,1-2.36-1.42c.12-.24.48-.24.71-.24a1.46,1.46,0,0,1,1,.48A1.56,1.56,0,0,1,306.93,235.29Zm-1.41,0a1.39,1.39,0,0,1-1.06-1.18c.35.71,1.29.94,2.12,1.18A1.74,1.74,0,0,1,305.52,235.29Z" transform="translate(0)"/><path class="cls-43" d="M308,233.4a1,1,0,0,1-.59-1.3s-.23-.71-.11-.95,6.49-.82,6.84,0a.9.9,0,0,1-.24,1.19s.83.59,0,.82A13,13,0,0,1,308,233.4Z" transform="translate(0)"/><path class="cls-35" d="M306,158s.35,10.39,2.12,28c1.77,18.29,5.78,39.9,5.78,39.9s1.42-22.55,2.37-32.23c.7-8.14,4-31.86,4-31.86Z" transform="translate(0)"/><path class="cls-34" d="M337.39,232.57l-.47-.12-1.19-.35-2.59-.71-1.65-5.55-1.07-3.77L325.47,205l-1.66-5.78-10.62-37.3,6.38-.71.58-.11,15.35-1.65s2.6,15.1,4,36.35C340.22,207.9,337.39,232.57,337.39,232.57Z" transform="translate(0)"/><path class="cls-33" d="M337.4,232l-.83,4.84h-2.36l-1.06-5.31Z" transform="translate(0)"/><path class="cls-37" d="M336.8,235.29s9.92,0,11.93,5.07H332.44s-1.3-3.54,1.53-5A2.43,2.43,0,0,0,336.8,235.29Z" transform="translate(0)"/><path class="cls-38" d="M338.21,237.41c0,.12.12.12.12,0a2.21,2.21,0,0,1,.95-2c.23,0,.59.11.82.11a2.35,2.35,0,0,0-.82,1.89c0,.12.11.12.11,0a2.12,2.12,0,0,1,.83-1.77v-.12a1.33,1.33,0,0,0,.95-.35,1.31,1.31,0,0,0,.47-1.42,1.44,1.44,0,0,0-.24-1.65c-1.42-1.06-2.83,2.13-2.6,3.19h.12A3.31,3.31,0,0,0,338.21,237.41Zm3.55-3.78c-.36-.47-1.18-.23-1.54,0a2.34,2.34,0,0,0-.94,1.42,4.42,4.42,0,0,1,.59-1.77c.35-.59,1.53-1.77,2-.47A1.83,1.83,0,0,1,341.76,233.63Zm-1.78.48a1.48,1.48,0,0,1,.95-.48c.24,0,.59,0,.71.24a5.35,5.35,0,0,1-2.36,1.42A2.81,2.81,0,0,1,340,234.11Zm-.35,1.18a4.81,4.81,0,0,0,2.13-1.18,1.39,1.39,0,0,1-1.07,1.18A1.61,1.61,0,0,1,339.63,235.29Z" transform="translate(0)"/><path class="cls-43" d="M338.34,233.4a1,1,0,0,0,.59-1.3s.24-.71.12-.95-6.49-.82-6.85,0a.9.9,0,0,0,.24,1.19s-.83.59,0,.82S336.1,234,338.34,233.4Z" transform="translate(0)"/><path class="cls-33" d="M281,150.07c-7.09-1.77-9.8-19-7.91-24.31l2.95-2.25s1.06,2.72,2.59,5.91c1.78,3.54,4.14,7.55,6.5,8.73,1.53.71,3.18-.71,5.07-2.72,3.66-3.89,10.51-15,17.35-11.56C322.05,131.07,291.6,152.79,281,150.07Z" transform="translate(0)"/><path class="cls-39" d="M284.87,140.75c-5.43-1.07-6.37-11.1-6.37-11.33,1.77,3.54,4.13,7.55,6.49,8.73,1.54.71,3.19-.71,5.08-2.72,5.78-7.78,10.15-10.62,10.15-10.62l-.71,8.26C299.63,133.07,291.25,142,284.87,140.75Z" transform="translate(0)"/><path class="cls-33" d="M266,124.22a1,1,0,0,1-.24-1.65,1.17,1.17,0,0,1,1.06-.12.75.75,0,0,1,.48-1.06c.82-.12,1.53.71,2.12,1.06,2,1,3.89,1,4,.59s-.59-1.06-1.18-1.18c-.23,0-.59-.23-.59-.47s.12-.47.36-.59a3.38,3.38,0,0,1,2.59,1c2.13,3,2.95,5.9,2.36,7.2-.23.47-3.77-.6-3.66-1.19-2.12.36-6.37.24-6.37-1.41C265.87,126.11,265.16,124.81,266,124.22Z" transform="translate(0)"/><path class="cls-40" d="M337.27,115.49a5.13,5.13,0,0,0-2.71-1.77c-1.89-.83-2.48-1.89-3.31-3.78a11,11,0,0,0-1.06-2,5.59,5.59,0,0,0-3.54-2.12,14.38,14.38,0,0,1-2.36-.24c-1.89-.59-2-2.24-2.71-3.65a5.62,5.62,0,0,0-6.85-2.72h-.12c-5.43,0-7.67,8.73-4.84,12.51A6.37,6.37,0,0,0,311,113c1.3,1.06,1.42.71,2.36,2.36,1.07,1.89.59,1.89,0,3.66a9.44,9.44,0,0,0-.35,2.6,8.07,8.07,0,0,0,3.9,6.72c6.25,3.31,14.63-.23,18.88-5.19C337.51,121,339,118,337.27,115.49Z" transform="translate(0)"/><path class="cls-1" d="M330.43,112.42c-1.41-.59-.94-2.83-1.88-3.89a3.54,3.54,0,0,0-2.72-1.3c-.35,0-.35.59,0,.59a3,3,0,0,1,2.13.94,4.34,4.34,0,0,1,.82,2.36,2.61,2.61,0,0,0,1.42,2C330.67,113.13,330.79,112.54,330.43,112.42Z" transform="translate(0)"/><path class="cls-1" d="M335.39,116.79a.29.29,0,1,0-.47.35,3.57,3.57,0,0,1-.35,4.25c-.24.24.11.71.47.47A4.26,4.26,0,0,0,335.39,116.79Z" transform="translate(0)"/><path class="cls-40" d="M313.67,103.8a.6.6,0,0,0-.47-1.06c-.12,0-.24.12-.35.12s-.24,0-.24.12c-2.12.7-3.66.82-5.19,2.48a14.68,14.68,0,0,0-2,3.18c-.24,1,0,.83-.24,1.77-.35,1.89-.7,2.24-2.47,3-2.13.83-4.72,3.54-4.61,5.79,0,2.59,3,5.43,5.08,6.61,3.54,2,7.2,3,9.68-2.25,1.53-3.18,1.89-6.84,2-10.38C314.74,109.94,315,106.75,313.67,103.8Z" transform="translate(0)"/><path class="cls-1" d="M301.64,114.9c-1.78,1.3-3,3.3-2.25,5.55.12.35.71.23.59-.12a4.38,4.38,0,0,1,1.89-4.84C302.23,115.25,302,114.66,301.64,114.9Z" transform="translate(0)"/><path class="cls-25" d="M306.94,118.56s4.37,8.85-1.65,17.23l-3,7.43s-10.15-7.43-11.22-12.86A41.79,41.79,0,0,1,306.94,118.56Z" transform="translate(0)"/><path class="cls-44" d="M298.92,140.51l3.42,2.71,4.6-24.66s-3.19,1.53-5.66,3C299,126.58,296.91,131.78,298.92,140.51Z" transform="translate(0)"/><path class="cls-25" d="M296.55,160.22s13.93,7,41.79,2c0,0,0-49-25.85-45.44C293.6,119.38,305.41,142.52,296.55,160.22Z" transform="translate(0)"/><path class="cls-39" d="M310,117.26a7.62,7.62,0,0,0,1.06,4.36,21.26,21.26,0,0,1,5.66-5,10.55,10.55,0,0,1-.12-5.67l-5.43,1.3A6,6,0,0,1,310,117.26Z" transform="translate(0)"/><path class="cls-33" d="M318.39,107.87c.54-4-1.33-7.56-4.17-7.94s-5.59,2.55-6.13,6.56,1.33,7.56,4.17,7.94S317.85,111.88,318.39,107.87Z" transform="translate(0)"/><path class="cls-33" d="M309.42,106.16a23.29,23.29,0,0,0-2.12,3.9.3.3,0,0,0,.23.47,22.41,22.41,0,0,0,2.6.36C311,110.77,309.42,106.16,309.42,106.16Z" transform="translate(0)"/><path class="cls-45" d="M309.19,103.1a10.48,10.48,0,0,0-.83,1.88A5.07,5.07,0,0,0,312,104c2.59-2.12,5.66-.24,5.66-.24l-.59-2.36-7.55-1.06Z" transform="translate(0)"/><path class="cls-40" d="M317.33,105.1a1.76,1.76,0,0,1-1.77-1.3c-.59-1.41-2.48-1.18-3.78-.35s-2.59,1.42-4.13.59c-1.18-.59,2.25-5.78,3.78-6,5.43-1.18,8.14,1.06,9.21,2.36,1.53,1.77.47,3.31.11,4-1.06,2.25-.35,3.19.36,3.9s0,2.83-2,2.95C315.8,111.48,318.28,106.64,317.33,105.1Z" transform="translate(0)"/><path class="cls-33" d="M316.85,106.52s.95-1.3,1.89-.36-.12,3.9-1.54,3.07S316.85,106.52,316.85,106.52Z" transform="translate(0)"/><path class="cls-46" d="M338.22,162.23s0-19-5.43-30.45l-12.16-4.37s-.82,12.16,9.09,19.47c4,3.07-.47,16.76-.47,16.76Z" transform="translate(0)"/><path class="cls-40" d="M312.25,97.9a6.58,6.58,0,0,0-5.9,7s9.56,1.41,11.92,0l.35-4.13Z" transform="translate(0)"/><path class="cls-1" d="M310.6,99.2a10.05,10.05,0,0,0-2,1.89,5.57,5.57,0,0,0-.83,2.36c0,.35.47.59.59.12a4.41,4.41,0,0,1,.83-2.36,13.13,13.13,0,0,1,1.88-1.77C311.31,99.32,310.84,99,310.6,99.2Z" transform="translate(0)"/><path class="cls-1" d="M310,101.44a3.32,3.32,0,0,0-.71,2.13c0,.35.59.35.59,0a2.91,2.91,0,0,1,.59-1.77C310.72,101.44,310.25,101.21,310,101.44Z" transform="translate(0)"/><path class="cls-37" d="M317.79,149.12s-5.55-29.74,5.31-32.1,17.59,28.8,17.59,28.8l-1.89.59s-7.91-28.33-15-28.09c-8.5.35-4.13,30.8-4.13,30.8Z" transform="translate(0)"/><path class="cls-37" d="M340.56,145.59s2.71,11.8,3.3,18.41a1.79,1.79,0,0,1-1.29,1.89c-3.43.94-12.75,3.3-21.13,2.59a1.85,1.85,0,0,1-1.65-1.53c-.59-3.54-2.72-15.93-2.13-18.65C317.54,148.3,332.77,144.88,340.56,145.59Z" transform="translate(0)"/><path class="cls-47" d="M317.55,148.3s4.25,8,4.37,15.93c0,0,13.57,1.06,22.31-2.59,0,0-.71-11.22-3.66-15.94C340.57,145.59,330.53,144.4,317.55,148.3Z" transform="translate(0)"/><path class="cls-32" d="M333.37,161.16a1.06,1.06,0,1,0-1.07-1.06A1.06,1.06,0,0,0,333.37,161.16Z" transform="translate(0)"/><path class="cls-33" d="M349.9,145.59c-1.3,7-22.78,12.74-29.86,14l-.59-4.13s4.72-3.3,8-5.07c3.65-2.13,7.9-4.84,8.85-7.09.71-1.53-1.06-3-3.43-4.48-4.6-3.07-11.92-6.61-10.62-11.8C325.94,111.36,351.79,135.32,349.9,145.59Z" transform="translate(0)"/><path class="cls-39" d="M339.29,143c-.59,5.19-11.45,7.32-11.81,7.32,3.66-2.13,7.91-4.84,8.86-7.08.71-1.54-1.07-3-3.43-4.49a40.28,40.28,0,0,0-4.36-2.83l.71-5.9C329.37,130,340,136.85,339.29,143Z" transform="translate(0)"/><path class="cls-25" d="M322.76,118.68s-7.09,13.45,4.72,20.41c0,0,11.09-5.66,13.57-11.09A29.76,29.76,0,0,0,322.76,118.68Z" transform="translate(0)"/><path class="cls-33" d="M321.58,155.15a5.18,5.18,0,0,0-1.3-1,9.08,9.08,0,0,1-2.36-1.3c-.47-.35-1.18.24-.83.71a2.6,2.6,0,0,0,1.77,1.54,4.31,4.31,0,0,0-1.77.94,2.12,2.12,0,0,0-1.18,1.65.8.8,0,0,0,.48.71,1.3,1.3,0,0,0,0,1,.7.7,0,0,0,.7.35.65.65,0,0,0,.36.59,1,1,0,0,0,.82.12c.12.11.24.35.48.35a1.72,1.72,0,0,0,1.3-.24,3.74,3.74,0,0,0,1.53-1.17C327.13,155,324.65,153.14,321.58,155.15Z" transform="translate(0)"/></svg>