<svg xmlns="http://www.w3.org/2000/svg" xmlns:xlink="http://www.w3.org/1999/xlink" viewBox="0 0 699.97 665"><defs><style>.cls-1{fill:none;}.cls-2{clip-path:url(#clip-path);}.cls-3{fill:url(#linear-gradient);}.cls-4{fill:#bfc6d1;}.cls-5{fill:#fff;}.cls-6{fill:url(#linear-gradient-2);}.cls-7{fill:url(#linear-gradient-3);}.cls-8{fill:url(#linear-gradient-4);}.cls-9{fill:url(#linear-gradient-5);}.cls-10{fill:url(#linear-gradient-6);}.cls-11{fill:url(#linear-gradient-7);}.cls-12,.cls-13{opacity:0.3;}.cls-13,.cls-21,.cls-24,.cls-34{isolation:isolate;}.cls-13{fill:url(#linear-gradient-8);}.cls-14{fill:#f2ad9d;}.cls-15{fill:#34028b;fill-opacity:0.08;}.cls-16{fill:url(#linear-gradient-9);}.cls-17{fill:url(#linear-gradient-10);}.cls-18{fill:url(#linear-gradient-11);}.cls-19{fill:url(#linear-gradient-12);}.cls-20{fill:url(#linear-gradient-13);}.cls-21,.cls-24{opacity:0.4;}.cls-21{fill:url(#linear-gradient-14);}.cls-22{fill:url(#linear-gradient-15);}.cls-23{fill:url(#linear-gradient-16);}.cls-24{fill:url(#linear-gradient-17);}.cls-25{fill:url(#linear-gradient-18);}.cls-26{fill:url(#linear-gradient-19);}.cls-27{fill:url(#linear-gradient-20);}.cls-28{fill:url(#linear-gradient-21);}.cls-29{fill:url(#linear-gradient-22);}.cls-30{fill:url(#linear-gradient-23);}.cls-31{fill:url(#linear-gradient-24);}.cls-32{fill:url(#linear-gradient-25);}.cls-33{fill:url(#linear-gradient-26);}.cls-34{opacity:0.5;fill:url(#linear-gradient-27);}.cls-35{fill:url(#linear-gradient-28);}</style><clipPath id="clip-path" transform="translate(0 0)"><rect class="cls-1" width="700" height="665"/></clipPath><linearGradient id="linear-gradient" y1="333.5" x2="699.97" y2="333.5" gradientTransform="matrix(1, 0, 0, -1, 0, 666)" gradientUnits="userSpaceOnUse"><stop offset="0" stop-color="#e48cee"/><stop offset="0.02" stop-color="#e290ef"/><stop offset="0.18" stop-color="#d6aef3"/><stop offset="0.35" stop-color="#cdc5f6"/><stop offset="0.54" stop-color="#c6d6f8"/><stop offset="0.74" stop-color="#c2e0fa"/><stop offset="1" stop-color="#c1e3fa"/></linearGradient><linearGradient id="linear-gradient-2" x1="393.07" y1="309.24" x2="-4.18" y2="599.86" gradientTransform="matrix(1, 0, 0, -1, 0, 666)" gradientUnits="userSpaceOnUse"><stop offset="0" stop-color="#444b8c"/><stop offset="1" stop-color="#26264f"/></linearGradient><linearGradient id="linear-gradient-3" x1="317.93" y1="425.21" x2="302.94" y2="225.22" gradientTransform="matrix(1, 0, 0, -1, 0, 666)" gradientUnits="userSpaceOnUse"><stop offset="0" stop-color="#aa80f9"/><stop offset="1" stop-color="#6165d7"/></linearGradient><linearGradient id="linear-gradient-4" x1="252.23" y1="357.58" x2="-18.47" y2="7.9" xlink:href="#linear-gradient-3"/><linearGradient id="linear-gradient-5" x1="299.73" y1="264.76" x2="299.73" y2="579.15" gradientTransform="matrix(1, 0, 0, -1, 0, 666)" gradientUnits="userSpaceOnUse"><stop offset="0" stop-color="#ff6c00"/><stop offset="0.08" stop-color="#ff5d00"/><stop offset="0.27" stop-color="red"/><stop offset="0.49" stop-color="#0505a9"/><stop offset="0.55" stop-color="#0539c0"/><stop offset="0.66" stop-color="#0585e2"/><stop offset="0.73" stop-color="#05b6f7"/><stop offset="0.77" stop-color="#05c8ff"/><stop offset="0.93" stop-color="#18d5a8"/></linearGradient><linearGradient id="linear-gradient-6" x1="327.27" y1="249.98" x2="251.78" y2="61.39" xlink:href="#linear-gradient-3"/><linearGradient id="linear-gradient-7" x1="222.96" y1="324.12" x2="366.87" y2="324.12" xlink:href="#linear-gradient"/><linearGradient id="linear-gradient-8" x1="44.89" y1="411.05" x2="337.03" y2="411.05" gradientTransform="matrix(1, 0, 0, -1, 0, 666)" gradientUnits="userSpaceOnUse"><stop offset="0" stop-color="#311944"/><stop offset="1" stop-color="#6b3976"/></linearGradient><linearGradient id="linear-gradient-9" x1="532.98" y1="139.89" x2="548.94" y2="139.15" xlink:href="#linear-gradient-2"/><linearGradient id="linear-gradient-10" x1="546.24" y1="158.39" x2="537.54" y2="144.09" gradientTransform="matrix(1, 0, 0, -1, 0, 666)" gradientUnits="userSpaceOnUse"><stop offset="0" stop-color="#ffc444"/><stop offset="1" stop-color="#f36f56"/></linearGradient><linearGradient id="linear-gradient-11" x1="526.31" y1="135.45" x2="537.73" y2="265.99" xlink:href="#linear-gradient-8"/><linearGradient id="linear-gradient-12" x1="549.58" y1="133.4" x2="571.57" y2="133.4" xlink:href="#linear-gradient-2"/><linearGradient id="linear-gradient-13" x1="561.7" y1="134.43" x2="570.19" y2="151.97" xlink:href="#linear-gradient-10"/><linearGradient id="linear-gradient-14" x1="515.88" y1="142.59" x2="549.87" y2="264.48" gradientTransform="matrix(1, 0, 0, -1, 0, 666)" gradientUnits="userSpaceOnUse"><stop offset="0" stop-color="#311944"/><stop offset="1" stop-color="#893976"/></linearGradient><linearGradient id="linear-gradient-15" x1="585.08" y1="145.94" x2="555.28" y2="257.46" xlink:href="#linear-gradient-8"/><linearGradient id="linear-gradient-16" x1="530.5" y1="355.09" x2="508.31" y2="306.62" gradientTransform="matrix(1, 0, 0, -1, 0, 666)" gradientUnits="userSpaceOnUse"><stop offset="0" stop-color="#ff9085"/><stop offset="1" stop-color="#fb6fbb"/></linearGradient><linearGradient id="linear-gradient-17" x1="555.17" y1="191.76" x2="605.14" y2="270.48" xlink:href="#linear-gradient-14"/><linearGradient id="linear-gradient-18" x1="531.96" y1="345.75" x2="575.44" y2="234.26" xlink:href="#linear-gradient-16"/><linearGradient id="linear-gradient-19" x1="524.66" y1="310.18" x2="561.57" y2="271.08" xlink:href="#linear-gradient-10"/><linearGradient id="linear-gradient-20" x1="516.12" y1="327.82" x2="539.38" y2="291.5" xlink:href="#linear-gradient-2"/><linearGradient id="linear-gradient-21" x1="524.77" y1="310.28" x2="561.68" y2="271.18" xlink:href="#linear-gradient-10"/><linearGradient id="linear-gradient-22" x1="552.48" y1="345.47" x2="536.12" y2="379.5" gradientTransform="matrix(1, 0, 0, -1, 0, 666)" gradientUnits="userSpaceOnUse"><stop offset="0.27" stop-color="#ffc444"/><stop offset="1" stop-color="#f36f56"/></linearGradient><linearGradient id="linear-gradient-23" x1="551.71" y1="353.27" x2="540.45" y2="380.26" xlink:href="#linear-gradient-8"/><linearGradient id="linear-gradient-24" x1="541.88" y1="372.67" x2="540.74" y2="332.98" xlink:href="#linear-gradient-10"/><linearGradient id="linear-gradient-25" x1="548.46" y1="351.9" x2="537.19" y2="378.91" xlink:href="#linear-gradient-8"/><linearGradient id="linear-gradient-26" x1="537.45" y1="368.05" x2="538.11" y2="363.09" gradientTransform="matrix(1, 0, 0, -1, 0, 666)" gradientUnits="userSpaceOnUse"><stop offset="0" stop-color="#ffc444"/><stop offset="1" stop-color="#f36f56"/></linearGradient><linearGradient id="linear-gradient-27" x1="566.62" y1="309.7" x2="536.73" y2="233.07" xlink:href="#linear-gradient-16"/><linearGradient id="linear-gradient-28" x1="556.28" y1="345.94" x2="594.86" y2="247.02" xlink:href="#linear-gradient-16"/></defs><g id="Layer_2" data-name="Layer 2"><g id="Layer_1-2" data-name="Layer 1"><g class="cls-2"><path class="cls-3" d="M193.38,46.82c-70-5-154.68,46.08-188.67,163.42-16.91,58.49,9.53,173.67,114.57,192.39,135.61,24.3,192.09,129.76,254.86,216.51,62.94,86.75,213,43,221.58-68.93s52-143.44,87.77-193.29,14-170.26-72.66-191.13S502,99,468,43.94C433.85-10.95,366.58-6.81,325.21,15.33,292.12,33,263.34,51.86,193.38,46.82Z" transform="translate(0 0)"/><path class="cls-4" d="M398.56,131.74c5.58.54,10.43-4,10.8-9.9.53-5.94-3.6-11.16-9-11.7h-.9a49.41,49.41,0,0,0-1.44-9c.18-.18.54-.18.72-.35,5-2.52,7.2-9,4.86-14.4s-8.27-7.74-13.31-5a1.36,1.36,0,0,1-.72.36,51.89,51.89,0,0,0-5.4-7c.19-.18.37-.54.54-.72a11.4,11.4,0,0,0-2.33-15.12,9.38,9.38,0,0,0-13.85,2.88,1.36,1.36,0,0,0-.36.72,60,60,0,0,0-7.92-3.06c0-.36.18-.54.18-.9.54-5.94,1.62-12.6-3.95-13.14-12.77-.9-15.47,5.4-16,11.34v.9a60.79,60.79,0,0,0-8.27,1.62c-.18-.36-.18-.54-.36-.9-2.34-5.4-2-9-7.2-7-11.51,4.32-13.31,11-11,16.38.18.36.18.54.36.9a50.65,50.65,0,0,0-6.47,5.94,2.48,2.48,0,0,0-.72-.54A9.38,9.38,0,0,0,293,76.85,11.39,11.39,0,0,0,295.33,92c.18.18.54.36.72.54a44.39,44.39,0,0,0-2.88,8.63c-.36,0-.54-.18-.9-.18-5.58-.53-10.43,4-10.79,9.9-.54,5.94,3.59,11.16,9,11.7h.9a49.41,49.41,0,0,0,1.44,9c-.18.18-.54.18-.72.36-5,2.52-7.2,9-4.86,14.4s8.28,7.74,13.31,5a1.36,1.36,0,0,1,.72-.36,51.89,51.89,0,0,0,5.4,7c-.18.18-.36.54-.54.72a11.39,11.39,0,0,0,2.33,15.11c4.5,3.42,14.21,1.8,17.45-3.06.18-.18-3.24-.18-3.06-.54a60,60,0,0,0,7.92,3.06c0,.36-.18.54-.18.9-.54,5.94,3.59,11.16,9,11.7,5.58.54,10.43-4,10.79-9.9v-.9a61.24,61.24,0,0,0,8.28-1.62c.18.36.18.54.35.9,2.34,5.4,8.28,7.74,13.31,5,5-2.52,7.2-9,4.86-14.39-.18-.36-.18-.55-.36-.91a49.94,49.94,0,0,0,6.48-5.93,2.42,2.42,0,0,0,.71.54,9.38,9.38,0,0,0,13.85-2.88,11.4,11.4,0,0,0-2.33-15.12c-.18-.18-.54-.36-.72-.54a43.59,43.59,0,0,0,2.87-8.64A1.62,1.62,0,0,0,398.56,131.74ZM342.09,155.5c-20-1.62-34.71-20.52-32.92-42.12s19.43-37.79,39.39-36.17,34.72,20.52,32.92,42.11C379.68,141.1,362.05,157.3,342.09,155.5Z" transform="translate(0 0)"/><path class="cls-4" d="M398.92,100.79c5-2.52,7.19-9,4.86-14.4s-8.28-7.74-13.31-5a1.36,1.36,0,0,1-.72.36,51.89,51.89,0,0,0-5.4-7c.18-.18.36-.54.54-.72,3.24-4.86,5.58-14.76.72-17.64-9.17-5.58-14,.36-17.09,5.4a1.42,1.42,0,0,0-.35.72,60,60,0,0,0-7.92-3.06c0-.36.18-.54.18-.9a10.75,10.75,0,0,0-2.7-8.46c-1.25,9.36-2.33,18.72-3.41,27.9,17.08,4.32,29.13,21.6,27.33,41.21-1.43,16.56-12.23,30.06-26.07,34.56v5.4c0,4.86-.36,9.89-.72,14.75,1.44-.36,2.69-.54,3.95-.9.18.36.18.54.36.9,2.34,5.4,7.56,8.64,16.73,4.32,5-2.34,3.78-8.27,1.44-13.68-.18-.36-.18-.53-.36-.89a50,50,0,0,0,6.47-5.94,2.48,2.48,0,0,0,.72.54c4.5,3.42,14.57,1.44,17.81-3.42s-1.8-11-6.3-14.4c-.18-.18-.54-.36-.72-.54a44.27,44.27,0,0,0,2.88-8.64c.36,0,.54.18.9.18,5.58.54,10.43-4,10.79-9.9.54-5.94-3.6-11.16-9-11.7h-.9a49.3,49.3,0,0,0-1.44-9C398.38,101,398.56,101,398.92,100.79Z" transform="translate(0 0)"/><path class="cls-5" d="M403.6,130.3c5.57.54,10.43-4,10.79-9.9.54-5.94-3.6-11.16-9-11.7h-.9a49.16,49.16,0,0,0-1.44-9c.18-.18.54-.18.72-.36,5-2.52,7.19-9,4.85-14.4s-8.27-7.74-13.3-5a1.4,1.4,0,0,1-.72.36,51.89,51.89,0,0,0-5.4-7c.18-.18.36-.54.54-.72a11.39,11.39,0,0,0-2.34-15.12,9.39,9.39,0,0,0-13.85,2.88,1.36,1.36,0,0,0-.36.72A59.91,59.91,0,0,0,365.29,58c0-.36.18-.54.18-.9.54-5.94-3.6-11.16-9-11.7-5.58-.54-10.44,4-10.8,9.9v.9a61.4,61.4,0,0,0-8.27,1.62c-.18-.36-.18-.54-.36-.9-2.34-5.4-8.27-7.74-13.31-5-5,2.52-7.19,9-4.85,14.4.18.36.18.54.36.9a50.74,50.74,0,0,0-6.48,5.94,2.48,2.48,0,0,0-.72-.54,9.38,9.38,0,0,0-13.85,2.88c-3.06,5-2.16,11.7,2.34,15.12.18.18.54.36.72.54a44.27,44.27,0,0,0-2.88,8.64c-.36,0-.54-.18-.9-.18-5.57-.54-10.43,4-10.79,9.89-.54,5.94,3.6,11.16,9,11.7h.9a49.41,49.41,0,0,0,1.44,9c-.18.18-.54.18-.72.36-5,2.52-7.19,9-4.85,14.4s8.27,7.74,13.31,5a1.36,1.36,0,0,1,.72-.36,51.82,51.82,0,0,0,5.39,7c-.18.18-.36.54-.54.72a11.39,11.39,0,0,0,2.34,15.11,9.39,9.39,0,0,0,13.85-2.87,1.44,1.44,0,0,0,.36-.72,61.86,61.86,0,0,0,7.91,3.05c0,.36-.18.54-.18.9-.54,5.94,3.6,11.16,9,11.7,5.57.54,10.43-4,10.79-9.9v-.9a61.4,61.4,0,0,0,8.27-1.62c.18.36.18.54.36.9,2.34,5.4,8.27,7.74,13.31,5,5-2.52,7.19-9,4.86-14.39-.18-.36-.18-.54-.36-.9a51.33,51.33,0,0,0,6.47-5.94,2.48,2.48,0,0,0,.72.54,9.38,9.38,0,0,0,13.85-2.88,11.39,11.39,0,0,0-2.34-15.12c-.18-.18-.54-.36-.72-.54a44.27,44.27,0,0,0,2.88-8.64A2,2,0,0,0,403.6,130.3Zm-56.48,23.76c-20-1.62-34.71-20.52-32.91-42.12s19.42-37.79,39.39-36.17,34.71,20.52,32.91,42.11C384.71,139.66,367.09,155.86,347.12,154.06Z" transform="translate(0 0)"/><path class="cls-4" d="M499.1,261c5.58.54,10.43-4,10.79-9.9.54-5.94-3.59-11.16-9-11.7H500a49.16,49.16,0,0,0-1.44-9c.18-.19.54-.19.72-.36,5-2.52,7.2-9,4.86-14.4s-8.28-7.74-13.31-5a1.36,1.36,0,0,1-.72.36,51.89,51.89,0,0,0-5.4-7c.18-.18.36-.54.54-.72a11.4,11.4,0,0,0-2.33-15.12A9.38,9.38,0,0,0,469.07,191a1.36,1.36,0,0,0-.36.72,60,60,0,0,0-7.92-3.06c0-.36.18-.54.18-.9.54-5.94,1.62-12.6-4-13.14-12.77-.9-15.47,5.4-16,11.34v.9a60.79,60.79,0,0,0-8.27,1.62c-.18-.36-.18-.54-.36-.9-2.34-5.4-2-9-7.2-7-11.51,4.32-13.31,11-11,16.38.18.36.18.54.36.9a50,50,0,0,0-6.47,5.94,2.48,2.48,0,0,0-.72-.54,9.38,9.38,0,0,0-13.85,2.88,11.4,11.4,0,0,0,2.33,15.12c.19.18.54.36.72.54a44.92,44.92,0,0,0-2.87,8.64c-.36,0-.54-.19-.9-.19-5.58-.53-10.43,4-10.79,9.9-.54,5.94,3.59,11.16,9,11.7h.9a49.41,49.41,0,0,0,1.44,9c-.18.18-.54.18-.72.36-5,2.52-7.2,9-4.86,14.4s8.28,7.74,13.31,5a1.36,1.36,0,0,1,.72-.36,51.89,51.89,0,0,0,5.4,7c-.18.18-.36.54-.54.72A11.39,11.39,0,0,0,409,303.07c4.5,3.42,14.21,1.8,17.45-3.05.18-.19-3.24-.19-3.06-.54a61.48,61.48,0,0,0,7.92,3.06c0,.35-.18.53-.18.89-.54,5.94,3.59,11.16,9,11.7,5.57.54,10.43-4,10.79-9.9v-.9a60.79,60.79,0,0,0,8.27-1.62c.18.36.18.54.36.9,2.34,5.4,8.28,7.74,13.31,5,5-2.52,7.2-9,4.86-14.39-.18-.36-.18-.54-.36-.9a50.74,50.74,0,0,0,6.48-5.94,2.29,2.29,0,0,0,.71.54,9.38,9.38,0,0,0,13.85-2.88A11.4,11.4,0,0,0,496.05,270c-.19-.18-.54-.36-.72-.54a44.92,44.92,0,0,0,2.87-8.64A1.62,1.62,0,0,1,499.1,261Zm-56.47,23.76c-20-1.62-34.71-20.52-32.92-42.12s19.43-37.79,39.39-36.17S483.82,227,482,248.54,462.59,286.34,442.63,284.72Z" transform="translate(0 0)"/><path class="cls-4" d="M499.46,230c5-2.52,7.19-9,4.86-14.4s-8.28-7.74-13.31-5a1.36,1.36,0,0,1-.72.36,51.89,51.89,0,0,0-5.4-7c.18-.18.36-.54.54-.72,3.24-4.86,5.58-14.76.72-17.64-9.17-5.58-14,.36-17.09,5.4a1.36,1.36,0,0,0-.36.72,59.38,59.38,0,0,0-7.91-3.06c0-.36.18-.54.18-.9a10.75,10.75,0,0,0-2.7-8.46c-1.26,9.36-2.34,18.72-3.41,27.9,17.08,4.32,29.13,21.6,27.33,41.21-1.43,16.56-12.23,30.06-26.08,34.56v5.4c0,4.86-.35,9.89-.72,14.76,1.44-.37,2.7-.54,4-.91.18.37.18.54.36.91,2.34,5.39,7.56,8.63,16.73,4.31,5-2.34,3.77-8.28,1.44-13.67-.18-.36-.18-.54-.36-.9a50.65,50.65,0,0,0,6.47-5.94,2.48,2.48,0,0,0,.72.54c4.5,3.42,14.57,1.44,17.81-3.42s-1.8-11-6.3-14.4c-.18-.18-.54-.36-.72-.54a44.27,44.27,0,0,0,2.88-8.64c.36,0,.54.18.9.18,5.58.54,10.43-4,10.79-9.9.54-5.94-3.6-11.16-9-11.7h-.9a49.3,49.3,0,0,0-1.44-9C498.92,230.19,499.1,230,499.46,230Z" transform="translate(0 0)"/><path class="cls-5" d="M504.32,259.52c5.57.54,10.43-4,10.79-9.9.54-5.94-3.6-11.16-9-11.7h-.9a49.3,49.3,0,0,0-1.44-9c.18-.18.54-.18.72-.36,5-2.52,7.19-9,4.85-14.4s-8.27-7.74-13.31-5a1.36,1.36,0,0,1-.72.36,51,51,0,0,0-5.39-7c.18-.18.36-.54.54-.72a11.39,11.39,0,0,0-2.34-15.12,9.38,9.38,0,0,0-13.85,2.88,1.36,1.36,0,0,0-.36.72,59.91,59.91,0,0,0-7.91-3.06c0-.36.18-.54.18-.9.54-5.94-3.6-11.16-9-11.7-5.58-.54-10.44,4-10.8,9.9v.9a61.4,61.4,0,0,0-8.27,1.62c-.18-.36-.18-.54-.36-.9-2.34-5.4-8.27-7.74-13.31-5-5,2.52-7.19,9-4.85,14.4.18.36.18.54.35.9a51.33,51.33,0,0,0-6.47,5.94,2.48,2.48,0,0,0-.72-.54,9.38,9.38,0,0,0-13.85,2.88,11.39,11.39,0,0,0,2.34,15.12c.18.18.54.36.72.54a44.27,44.27,0,0,0-2.88,8.64c-.36,0-.54-.18-.9-.18-5.57-.54-10.43,4-10.79,9.89-.54,5.94,3.6,11.16,9,11.7h.9a49.41,49.41,0,0,0,1.44,9c-.18.18-.54.18-.72.36-5,2.52-7.19,9-4.85,14.4s8.27,7.74,13.31,5a1.33,1.33,0,0,1,.72-.36,51,51,0,0,0,5.39,7c-.18.18-.36.54-.54.72a11.39,11.39,0,0,0,2.34,15.12,9.4,9.4,0,0,0,13.85-2.88,1.4,1.4,0,0,0,.36-.72,59.91,59.91,0,0,0,7.91,3.06c0,.35-.18.54-.18.89-.54,5.94,3.6,11.16,9,11.7,5.58.54,10.44-4,10.8-9.9v-.9a59.88,59.88,0,0,0,8.27-1.62c.18.37.18.55.36.9,2.34,5.4,8.27,7.74,13.31,5,5-2.52,7.19-9,4.85-14.39-.18-.36-.18-.54-.36-.9A50.74,50.74,0,0,0,489,286a2.48,2.48,0,0,0,.72.54,9.39,9.39,0,0,0,13.85-2.88,11.4,11.4,0,0,0-2.34-15.12c-.18-.18-.54-.36-.72-.54a44.27,44.27,0,0,0,2.88-8.64A7.8,7.8,0,0,0,504.32,259.52Zm-56.66,23.76c-20-1.62-34.71-20.52-32.91-42.12s19.42-37.79,39.39-36.17,34.71,20.52,32.91,42.11S467.63,284.9,447.66,283.28Z" transform="translate(0 0)"/><path class="cls-6" d="M400.18,102.58,186.87,94.85l-2.34-8.1L173,87.11c-5.57-.18-10.07,3.24-10.07,7.74V425.64s-.9,12.95,21.58,12.77c1.62-1.62-1.26-3.77-5.21-5.93l59-6.66v47l-21.4,2.88a5,5,0,0,0-4.32,4.68v6.3c0,.54,0,1.08.18,1.08v.18a5.63,5.63,0,0,0,1.62,2c2,1.8,6.29,4.32,14.21,5.58,0-2.7,0-5-.18-6.84l132-18.72-.18,1.8s12.23-4.32,16.37-10.08c-7.73-4-11.87-5-13.49-5.4a7.8,7.8,0,0,1-.9-.18h-.72l-19.42,2.7V414.3l56.65-6.3c4.5-.54,8.46-4.68,8.46-8.64V104.92C407,100.79,404.68,102.76,400.18,102.58Z" transform="translate(0 0)"/><path class="cls-7" d="M354.86,462l-103.6,13.5V416.28l103.6-10.8Z" transform="translate(0 0)"/><path class="cls-8" d="M411.69,97,185.79,86.93c-5.57-.18-10.07,3.24-10.07,7.92v336c0,4.68,4.5,8.27,10.07,7.73l225.9-25.73a9.39,9.39,0,0,0,8.1-8.82V104.92C420,100.61,416.19,97.19,411.69,97Z" transform="translate(0 0)"/><path class="cls-9" d="M407.74,115.9V393.78c0,3.24-2.34,6.12-5.58,7.56a13.48,13.48,0,0,1-2.88.72L201.44,423.3c-5.57.54-9.71-2.34-9.71-7V108.34c0-4.67,4.14-8.09,9.71-7.91l197.84,7.73C404,108.34,407.74,111.76,407.74,115.9Z" transform="translate(0 0)"/><path class="cls-10" d="M379.5,470.63c0,2.16-2.52,4.14-4.68,4.5L230,495.65c-2.52.36-4.68-1.26-4.68-3.6v-6.3a5,5,0,0,1,4.5-4.68l145-19.62c2.16-.36,4.5,1.26,4.5,3.24v5.94Z" transform="translate(0 0)"/><path class="cls-11" d="M223,421c-.18-10.62-.7-70.23,27.54-112.35,6.48-9.72,18-26.81,40.11-38a99.7,99.7,0,0,1,21.76-7.92c6.3.9,12.59,1.8,18.89,2.88a112.43,112.43,0,0,1,21.4,26.28c4.5,7.73,12.23,20.51,13.85,37.07,2,19.26-5.58,26.82-11.87,56.69C351.26,401.88,351.36,398,351,407c-21.76,1.8-45.24,5.7-67,7.5-.36-10.26-.73-6.14-2.52-18.56a300.19,300.19,0,0,0-7.2-34.73,257.7,257.7,0,0,0-6.83,40.67c-.9,10.62-1.13,5.3-.95,14.12-3.5.5-13.5,1.5-27,3C233.5,419.67,230,419.94,223,421Z" transform="translate(0 0)"/><path class="cls-5" d="M351.62,195.63c-.18,8.1-5.22,16-15.47,31.68-11.87,18.35-18,27.71-30.39,33.83a58.77,58.77,0,0,1-25.18,5.4c-13.31-.18-18.89-5.22-28.78-7.38a46.83,46.83,0,0,0-7.91-1.08A55.67,55.67,0,0,0,216,264.2c-25.18,12.06-23.56,34.73-41.91,42.83-18.88,8.46-42.62-6.3-51.8-12C94.07,277.34,70.14,241,71,200.31a97.94,97.94,0,0,1,2-17.46c1.08-5,12-54.89,59.18-73.79,8.81-3.6,44.24-16.19,71.76.36,25,15.12,27.34,44.64,49.46,46.8,8.09.72,7.73-3.06,23.56-5.76,12.23-2,31.83-5.22,49.28,5C338.67,162.7,352.16,178.17,351.62,195.63Z" transform="translate(0 0)"/><g class="cls-12"><path class="cls-13" d="M337.05,223.71a12.11,12.11,0,0,1-1.26,2c-11.33,18.71-17.44,28.07-29.67,34.37A56,56,0,0,1,280.94,266c-13.31,0-19.07-4.86-29.32-6.84a46.83,46.83,0,0,0-7.91-1.08,55.67,55.67,0,0,0-27.88,6.12c-25.18,12.06-23.56,34.73-41.91,42.83-18.88,8.46-42.62-6.3-51.8-12C93.89,277.34,70,241,70.86,200.31c10.44,43.91,20.69,57.59,29.86,57.95,13,.54,20.14-26.1,39.75-26.27,17.8-.19,22.84,21,39,20.51,20.32-.72,22.12-35.27,44.78-41,27-7,45.86,36.53,77.88,34C312.05,244.76,323.92,239.72,337.05,223.71Z" transform="translate(0 0)"/></g><path class="cls-14" d="M328.24,234.32s.54,13.68,0,22.86c-.36,6.66,5.4,10.62,5.4,10.62s3.23,5.4-14,6.3-34,0-34,0,16.91-11.16,20.69-14.22,5.93-25.2,3.41-39.41Z" transform="translate(0 0)"/><path class="cls-14" d="M347.12,200.31c1.26,4.68,6.12,26.28-6.11,39.95-.36.36-5.58,6.12-12.59,5.76-8.46-.54-16.55-9.9-19.07-23.93,0,0-2.7,2.7-5.93-2.7s1.26-25.38,8.27-16a20.6,20.6,0,0,1,6.3-12.24c6.83-5.94,18-6.12,23.92-.9C343,191.13,345.14,193.29,347.12,200.31Z" transform="translate(0 0)"/><path class="cls-15" d="M259.89,392.88c7.56-11.88-3.95-22.32.9-41.21,4.14-16,17.81-28.62,22.84-26.64,7,2.88-6.65,31.86,7,45.35,9.17,9,21,2,33.09,9.9,8.1,5.22,11.72,1.08,12.26,29-18.7,1.62-33.84,3.62-52.37,5.24-.36-10.26-.36-6.32-2.15-18.74a300.19,300.19,0,0,0-7.2-34.73,257.7,257.7,0,0,0-6.83,40.67c-.9,10.62-1.13,5.48-.95,14.3-4,.5-15,1.5-28,3-2,.23-10.28,1.36-11,1,.36-6.12,6.67-4.62,11.17-10.74C246.22,399.36,254.32,401.52,259.89,392.88Z" transform="translate(0 0)"/><path class="cls-16" d="M546.22,518.5c2.88,2.34,3.06,4,2.88,4.68-.18,1.26-1.08,1.8-3.42,4.14-3.06,3.24-2.7,3.78-4.31,4.86-3.6,2.7-8.46,2.52-8.82,1.62-.18-.54,2-1.08,4.68-4.14a15.47,15.47,0,0,0,3.42-6.3,15.83,15.83,0,0,0,.54-3.6Z" transform="translate(0 0)"/><path class="cls-17" d="M536.69,511.48l5.57,9.72c1.26.54,2.7.36,3.78-1.44l-2.16-11.88Z" transform="translate(0 0)"/><path class="cls-18" d="M529.86,386.22a117.67,117.67,0,0,0-9.36,99.71c4.68,12.59,13,25.91,17.63,32.21,3.24-1.26,5-3.42,8.27-4.86-.54-1.8-2-7.56-2.87-11-.72-2.69-2-7.55-2.34-8.63-2.34-8.82-.54-15.3-1.08-26.28-.72-12.6-3.6-11.16-3.24-18.9.72-11.34,7-14,14.39-30.41,5-11.34,10.43-23,5.58-29.52C550.72,380.64,532,385.68,529.86,386.22Z" transform="translate(0 0)"/><path class="cls-19" d="M569.42,527.5c1.62,1.08,2.7,3.6,2,5.22s-2.7,1.08-7.37,2.52c-5,1.62-6.12,3.06-9.72,3.06-1.43,0-4.31-.18-4.49-1.26-.18-.72,1.08-1.44,4.85-4,5.4-3.6,5.4-3.78,6.66-4.32C564,527.5,567.08,526.06,569.42,527.5Z" transform="translate(0 0)"/><path class="cls-20" d="M561.33,519.76l2.16,9.54a5.44,5.44,0,0,0,5.4,0l-.72-9.54Z" transform="translate(0 0)"/><path class="cls-21" d="M556.83,388.74c-6.11-8.1-24.82-3.06-27-2.34a138,138,0,0,0-7.73,15.48c6.66-1.26,9.53-.18,10.79,1.44,5.22,6.12-11.15,19.62-7.73,39.95,1.26,7.92,4.67,11.52,4.14,21.42-.54,7.2-2.7,11-4.32,16.2a44,44,0,0,0-1.62,11.88c4.68,10.25,10.79,20.15,14.75,25.19,3.24-1.26,5-3.42,8.27-4.86-.54-1.8-2-7.56-2.88-11-.72-2.7-2-7.55-2.33-8.63-2.34-8.82-.54-15.3-1.08-26.28-.72-12.6-3.6-11.16-3.24-18.9.72-11.34,7-14,14.39-30.41C556.47,406.92,561.69,395.22,556.83,388.74Z" transform="translate(0 0)"/><path class="cls-22" d="M544.42,391.26a485.65,485.65,0,0,0,3.78,72.89,490.8,490.8,0,0,0,11.51,59.39,8.3,8.3,0,0,0,5.58.9,7.94,7.94,0,0,0,4-2A66.74,66.74,0,0,1,568.7,507c.72-11.15,3.42-13.49,4.5-25a90,90,0,0,0-.54-22.32c-1.62-11.88-3.6-12.06-3.78-19.26,0-11,4.86-14.93,7.74-25.19,1.79-7,2.87-17.28-1.8-31.5C564.75,386.22,554.67,388.74,544.42,391.26Z" transform="translate(0 0)"/><path class="cls-23" d="M536.33,306.67c-3.6,0-16.73,1.8-22.84,7.2-24.82,22-17.09,45-9.17,52.74,5.39,5.21,18.34,3.59,22.84-2.53,3.24-4.49.9-10.07-.18-18.17C525.72,337.45,530.22,322.87,536.33,306.67Z" transform="translate(0 0)"/><path class="cls-24" d="M574.82,383.7c-2.88.72-5.94,1.44-8.82,2.16a46.72,46.72,0,0,1,1.26,22.5c-2.52,12.6-8.81,15.3-9.71,26.63-.9,10.26,4,12.24,6.3,25.92,2.33,13.86-1.26,20.52-2,32.22-.54,7.92.36,18.35,5.21,31.13a13.54,13.54,0,0,0,2.52-1.44,66.74,66.74,0,0,1-.54-15.48c.72-11.16,3.42-13.49,4.5-25A90,90,0,0,0,573,460c-1.62-11.88-3.6-12.06-3.78-19.26,0-11,4.86-14.93,7.74-25.19C578.41,408.18,579.49,397.92,574.82,383.7Z" transform="translate(0 0)"/><path class="cls-25" d="M527.52,312.25a33.88,33.88,0,0,0-7,9.9c-3.77,8.82.36,16.56,1.62,31,1.44,15.84-.54,42.29-5,51.83,0,.18-.36.72-.18,1.26,1.25,9.18,64.2,7,63.12-5.22-1.07-13.86-9-24.66-8.63-56.87a99.8,99.8,0,0,1,5.94-32.22A71.67,71.67,0,0,0,554.85,306a64.71,64.71,0,0,0-18.34.72A25.44,25.44,0,0,0,527.52,312.25Z" transform="translate(0 0)"/><path class="cls-26" d="M518.52,355.09a7.11,7.11,0,0,1,6.12-4.68c2.34-.36,6.12.18,7.55,3.24,1.44,2.7.36,6.66-2.87,8.82-.54-1.08-1.26-2.52-2.7-3.06-2.7-.9-4.86,2.52-6.84,1.62C518.34,360.31,517.8,357.25,518.52,355.09Z" transform="translate(0 0)"/><path class="cls-27" d="M529.32,372.72l8.63,1.44a2.38,2.38,0,0,0,2.7-2.88l-3.06-14.57a2.14,2.14,0,0,0-2.16-1.8l-10.25-.54a2.42,2.42,0,0,0-2.34,3.24l4.86,13.67C527.7,372,528.42,372.54,529.32,372.72Z" transform="translate(0 0)"/><path class="cls-28" d="M544.24,371.46c-.71-5-2.87-6.48-3.59-6.84-1.26-.72-2-.17-6.48-.17-3.95,0-5-.55-5.57.17-.9,1.27,1.08,4.68,3.24,6.84a12.75,12.75,0,0,0,8.63,3.06Z" transform="translate(0 0)"/><path class="cls-29" d="M544.78,291.92c.54,7.56,2.88,11.87,4.86,12.77s3.06,0,7,1.62a1.44,1.44,0,0,1,1.08,1.8c-.36,3.42-17.62,1.62-20.5.72a8.91,8.91,0,0,1-2.34-.72c-.18-.9,4.86-1.08,5.94-3.78.36-1.07.72-2.51-1.08-5.22C541,297,543.53,294.26,544.78,291.92Z" transform="translate(0 0)"/><path class="cls-30" d="M535.43,293.36a5.67,5.67,0,0,1,0-6.84c1.26-1.8,3.42-2,4.67-2.16,3.6-.54,8.28.9,9.9,4.14.9,2-.9,6.12-1.26,6.84-.36.9-.9,1.08-1.62,1.8-.9.9-2.16,2.34-4.14,4.68-.18-.72-.54-1.44-.9-2.52a15.35,15.35,0,0,0-1.8-2.88C538.31,294.44,536.69,295,535.43,293.36Z" transform="translate(0 0)"/><path class="cls-31" d="M545.86,299.83a8.22,8.22,0,0,1-7,3.78c-4.31-.18-5-9.71-2.51-11.69a5.27,5.27,0,0,1,4.13-.72c.9.18,1.26.54,2.7.9,1.26.36,1.62.18,2.16.54s.9,1.44.18,4.14a2.21,2.21,0,0,1,2.52-.9q.27,0,.54.54C549.1,297.67,548,298.93,545.86,299.83Z" transform="translate(0 0)"/><path class="cls-32" d="M545.5,292.1c-.18.18.36.9.54,2a5,5,0,0,1-4.14,4.85c-1.25.18-1.62-.54-3.77-.72a8.16,8.16,0,0,0-3.06.18c-.54,2.34,0,4.69,1.62,5.58,1.62,1.08,3.78.36,4.67,0a5.91,5.91,0,0,0,3.42-2.7c.9-1.79,0-2.88,1.08-4.13.54-.72,1.44-.9,2.16-2.16.18-.36.36-.54.36-.9C547.3,293.18,545.68,291.92,545.5,292.1Z" transform="translate(0 0)"/><path class="cls-33" d="M536.51,299.3a4.33,4.33,0,0,0,2.52.35h.18a1.75,1.75,0,0,1-2,.55c-.72-.18-1.26-.72-1.08-.9Z" transform="translate(0 0)"/><path class="cls-34" d="M571.4,350.05c-3.06-.18-7.73,0-11,2.88-6.83,6.12-1.44,17.81-7.73,22.31-5,3.6-11.33-2.52-16.19,1.26-5.58,4.32-.54,14.58-6.65,20.16-3.24,3.06-7.92,3.24-11.15,3.06a24.19,24.19,0,0,1-1.8,5c0,.18-.36.72-.18,1.26,1.25,9.18,64.2,7,63.13-5.22C579,388,571.94,377.58,571.4,350.05Z" transform="translate(0 0)"/><path class="cls-35" d="M540.65,374.52c11.15,11.34,27.16,14.94,39.39,9.18,17.08-7.92,24.64-29.51,20.68-43.55-6.65-23.4-25.36-33.66-34.53-27.54-6.66,4.5-21.59,18-13.67,26.64,7,7.92,17.81,5.94,20.86,13.86,2.16,5.94-2,12.06-2.34,12.41-4.67,6.48-15.1,8.64-24.82,4.33C544.25,371.64,542.45,373.08,540.65,374.52Z" transform="translate(0 0)"/></g></g></g></svg>