<svg id="Layer_1" data-name="Layer 1" xmlns="http://www.w3.org/2000/svg" viewBox="0 0 191 191"><defs><style>.cls-1{fill:#de6a26;}.cls-2{fill:#fff;}</style></defs><title>ayuda_splash_box_cloud_extender_configs</title><rect class="cls-1" width="191" height="191" rx="10"/><path class="cls-2" d="M342,363.09a12.67,12.67,0,0,1,4.21,4.46,11.81,11.81,0,0,1,1.6,6.05,12.35,12.35,0,0,1-3.43,8.69,10.88,10.88,0,0,1-8.31,3.71H275a12.41,12.41,0,0,1-6.8-22.75,16.52,16.52,0,0,1,16.52-14.81,15.67,15.67,0,0,1,2.16.14c.7.09,1.4.2,2.06.33a16.65,16.65,0,0,1,16.34-13.81,16.11,16.11,0,0,1,10.81,3.95,16.27,16.27,0,0,1,5.61,9.76c.63-.12,1.26-.22,1.88-.28s1.26-.09,1.88-.09a16.17,16.17,0,0,1,11.13,4.21A15.77,15.77,0,0,1,342,363.09Zm-42,5.17v-2.55l-3.67-.47A5.17,5.17,0,0,0,296,364l-.42-1,2.53-2.15-1.31-2.17-3,1.23-.75-.76c-.26-.25-.51-.49-.75-.75l1.31-3.1L291.37,354l-2.1,2.63-1-.38a5.33,5.33,0,0,0-1-.28l-.47-3.56h-2.62l-.48,3.56a5.82,5.82,0,0,0-1.13.33l-1,.42L279.28,354,277,355.29l1.4,3.29c-.25.25-.51.49-.75.71a2.85,2.85,0,0,0-.66.8l-3.1-1.32L272.6,361l2.63,2.16a8.21,8.21,0,0,0-.33,1,9.7,9.7,0,0,0-.23,1.07l-3.57.47v2.55l3.66.56a5.71,5.71,0,0,0,.28,1.08,10.36,10.36,0,0,0,.47,1.08l-2.81,2.25,1.32,2.26,3.38-1.41.56.56a3.1,3.1,0,0,0,.56.47l-1.31,3.39,2.34,1.31,2.17-2.81.94.37a4,4,0,0,0,1,.28l.47,3.58h2.62l.47-3.58a4.87,4.87,0,0,0,1.13-.32c.38-.16.75-.3,1.13-.43l2.16,2.64,2.25-1.41L292.61,375l.56-.57.57-.56,3.38,1.27,1.32-2.25-2.73-2.26a5,5,0,0,1,.29-.93,6.33,6.33,0,0,0,.28-.94ZM290.26,362a6.67,6.67,0,0,0-9.44-.13l-.13.13a6.68,6.68,0,0,0-1.95,4.83,6.77,6.77,0,0,0,11.55,4.79,6.52,6.52,0,0,0,2-4.79A6.65,6.65,0,0,0,290.26,362Zm17.95-5.62,1.59,1.69,1.4-1-1-1.94a5,5,0,0,0,.37-.43c.13-.15.25-.29.38-.42l2.25.75.75-1.5-2-1.31a2,2,0,0,0,.23-.71,3.29,3.29,0,0,1,.15-.6l2.25-.47-.09-1.69-2.35-.22a2,2,0,0,0-.14-.8,4.45,4.45,0,0,1-.24-.7l1.6-1.5-1-1.41-1.88.94a3,3,0,0,1-.52-.42,3.35,3.35,0,0,0-.51-.42l.65-2.07-1.5-.84-1.31,1.78a4.29,4.29,0,0,0-.62-.14,5.36,5.36,0,0,0-.7-.05l-.47-2.25-1.69.1L303.6,343a5.73,5.73,0,0,0-.7.23,4.45,4.45,0,0,1-.7.24l-1.6-1.68-1.41.94,1,2.07a2.91,2.91,0,0,1-.43.51,4.33,4.33,0,0,0-.42.52l-2.06-.66-.85,1.5,1.88,1.32a2.9,2.9,0,0,0-.14.65,3.51,3.51,0,0,1-.14.66l-2.16.47.1,1.69,2.25.29.23.66a4.41,4.41,0,0,0,.33.65L297,354.73l.94,1.4,2.25-1.13.37.38a1.29,1.29,0,0,0,.38.28l-.75,2.35,1.6.75,1.31-2a4.15,4.15,0,0,0,.61.14,3.1,3.1,0,0,1,.7.14l.47,2.26,1.69-.1.21-2.34.7-.19a2,2,0,0,0,.7-.28Zm.19-9.67a4.54,4.54,0,1,0,1.31,3.19,4.36,4.36,0,0,0-1.31-3.16Zm31,21.51v-2.52l-3.58-.47a4.35,4.35,0,0,0-.33-1.21l-.42-1,2.54-2.15-1.3-2.17-3,1.23-.75-.76-.75-.75,1.31-3.1L330.85,354l-2.16,2.63-.95-.38a5.14,5.14,0,0,0-1-.28l-.46-3.56h-2.63l-.47,3.56a5.44,5.44,0,0,0-1.13.33l-1,.42L318.75,354l-2.25,1.31,1.4,3.29c-.25.25-.51.49-.75.71a2.85,2.85,0,0,0-.66.8l-3.1-1.32L312.07,361l2.64,2.16a8.84,8.84,0,0,0-.33,1c-.09.34-.17.7-.24,1.07l-3.57.47v2.55l3.57.56c.12.37.25.7.38,1.08s.25.7.38,1.08l-2.73,2.25,1.31,2.26,3.39-1.41.56.56a3.58,3.58,0,0,0,.56.47l-1.35,3.38L319,379.8l2.16-2.81.94.38a5.23,5.23,0,0,0,1,.28l.47,3.57h2.63l.47-3.57a4.44,4.44,0,0,0,1.13-.33c.38-.16.75-.3,1.13-.42l2.15,2.63,2.26-1.41L332,375a7,7,0,0,0,.66-.56l.56-.57,3.38,1.32,1.32-2.25-2.81-2.26.38-.94a5.08,5.08,0,0,0,.28-.94ZM329.71,362a6.68,6.68,0,0,0-9.46-.12l-.12.12a6.69,6.69,0,0,0-2,4.84,6.77,6.77,0,1,0,13.53.43v-.43a6.71,6.71,0,0,0-2-4.81Z" transform="translate(-210.5 -301)"/><path class="cls-2" d="M264.85,435.66a2.73,2.73,0,0,0-1-1.72,3.17,3.17,0,0,0-1.88-.56,3,3,0,0,0-2.68,1.32,5.22,5.22,0,0,0-.84,3,5.45,5.45,0,0,0,.84,3.15,3,3,0,0,0,1.11,1,3.16,3.16,0,0,0,1.58.37,2.7,2.7,0,0,0,2.13-.88,3.46,3.46,0,0,0,.86-2.21h1.39q-.48,4.22-4.49,4.29a4.29,4.29,0,0,1-3.6-1.61,6.34,6.34,0,0,1-1.2-4,6.23,6.23,0,0,1,1.27-4,4.38,4.38,0,0,1,3.64-1.65,4.56,4.56,0,0,1,2.84.89,3.87,3.87,0,0,1,1.43,2.59Z" transform="translate(-210.5 -301)"/><path class="cls-2" d="M267.88,432.44h1.23v10.71h-1.23Z" transform="translate(-210.5 -301)"/><path class="cls-2" d="M270.36,439.28a4.4,4.4,0,0,1,.94-2.9,3.27,3.27,0,0,1,2.7-1.16,3.36,3.36,0,0,1,2.74,1.16,4.49,4.49,0,0,1,.91,2.9,4.41,4.41,0,0,1-.91,2.86,3.41,3.41,0,0,1-2.74,1.19,3.34,3.34,0,0,1-2.7-1.18A4.37,4.37,0,0,1,270.36,439.28Zm1.3,0a3.13,3.13,0,0,0,.7,2.16,2.06,2.06,0,0,0,1.65.76,2.09,2.09,0,0,0,1.66-.76,3.23,3.23,0,0,0,.68-2.16,3.27,3.27,0,0,0-.68-2.18,2.09,2.09,0,0,0-1.66-.76,2.06,2.06,0,0,0-1.65.76A3.17,3.17,0,0,0,271.66,439.28Z" transform="translate(-210.5 -301)"/><path class="cls-2" d="M285.22,443.15h-1.17v-1.23h0a2.61,2.61,0,0,1-2.43,1.41,2.34,2.34,0,0,1-2-.81,3.17,3.17,0,0,1-.57-2v-5.11h1.23v5.25a1.4,1.4,0,0,0,1.53,1.56,2.07,2.07,0,0,0,1.69-.7,2.69,2.69,0,0,0,.54-1.73v-4.38h1.23Z" transform="translate(-210.5 -301)"/><path class="cls-2" d="M293.67,443.15h-1.23v-1h0a2,2,0,0,1-1,.91,3.24,3.24,0,0,1-1.44.31,3.06,3.06,0,0,1-2.59-1.23,4.6,4.6,0,0,1-.87-2.85,4.71,4.71,0,0,1,.85-2.86,3.09,3.09,0,0,1,2.58-1.17,4.88,4.88,0,0,1,.64,0,4.2,4.2,0,0,1,.66.21,2.3,2.3,0,0,1,1.13,1h0v-4h1.23Zm-5.81-3.81a3.4,3.4,0,0,0,.57,2,2,2,0,0,0,1.76.9,1.94,1.94,0,0,0,1.78-.93,3.86,3.86,0,0,0,.52-2,3.8,3.8,0,0,0-.54-2,2,2,0,0,0-1.84-.89,1.9,1.9,0,0,0-1.74.92A3.94,3.94,0,0,0,287.86,439.34Z" transform="translate(-210.5 -301)"/><path class="cls-2" d="M299.48,432.44h7.16v1.2h-5.79v3.41h5.4v1.2h-5.4V442h5.83v1.2h-7.2Z" transform="translate(-210.5 -301)"/><path class="cls-2" d="M310.09,439.06l-2.62-3.67h1.58l1.8,2.71,1.88-2.71h1.48L311.63,439l2.9,4.18H313l-2.1-3.21-2.09,3.21h-1.5Z" transform="translate(-210.5 -301)"/><path class="cls-2" d="M317.16,435.39h1.5v1.13h-1.5v4.81a.61.61,0,0,0,.19.56,1.23,1.23,0,0,0,.74.13h.57v1.13h-.94a2.11,2.11,0,0,1-1.37-.33,1.7,1.7,0,0,1-.42-1.36v-4.94h-1.28v-1.13h1.28v-2.32h1.23Z" transform="translate(-210.5 -301)"/><path class="cls-2" d="M326.2,440.69a3,3,0,0,1-3.2,2.64,3.23,3.23,0,0,1-2.66-1.16,4.74,4.74,0,0,1-.94-2.92,4.25,4.25,0,0,1,1-2.9,3.2,3.2,0,0,1,2.52-1.13,2.87,2.87,0,0,1,2.73,1.49,5.43,5.43,0,0,1,.67,2.94H320.7a2.62,2.62,0,0,0,.55,1.77,2.12,2.12,0,0,0,1.79.78,1.82,1.82,0,0,0,1.95-1.51ZM325,438.53a2.4,2.4,0,0,0-.64-1.56,2.06,2.06,0,0,0-1.53-.63,2,2,0,0,0-1.51.63,2.56,2.56,0,0,0-.64,1.56Z" transform="translate(-210.5 -301)"/><path class="cls-2" d="M327.49,435.39h1.16v1.22h0a2.65,2.65,0,0,1,2.44-1.39,2.46,2.46,0,0,1,2.05.77,3.49,3.49,0,0,1,.54,2.06v5.1h-1.23V437.9a1.41,1.41,0,0,0-1.53-1.56,2.08,2.08,0,0,0-1.66.68,2.61,2.61,0,0,0-.57,1.75v4.38h-1.23Z" transform="translate(-210.5 -301)"/><path class="cls-2" d="M342.16,443.15h-1.23v-1h0a2,2,0,0,1-1,.91,3.25,3.25,0,0,1-1.45.31,3.05,3.05,0,0,1-2.58-1.23,4.61,4.61,0,0,1-.88-2.85,4.71,4.71,0,0,1,.86-2.86,3.09,3.09,0,0,1,2.58-1.17,4.88,4.88,0,0,1,.64,0,4.2,4.2,0,0,1,.66.21,2.3,2.3,0,0,1,1.13,1h0v-4h1.23Zm-5.81-3.81a3.4,3.4,0,0,0,.57,2,2,2,0,0,0,1.76.9,1.94,1.94,0,0,0,1.78-.93,3.86,3.86,0,0,0,.52-2,3.8,3.8,0,0,0-.54-2,2,2,0,0,0-1.84-.89,1.9,1.9,0,0,0-1.74.92A3.94,3.94,0,0,0,336.35,439.34Z" transform="translate(-210.5 -301)"/><path class="cls-2" d="M350.37,440.69a3,3,0,0,1-3.2,2.64,3.22,3.22,0,0,1-2.66-1.16,4.81,4.81,0,0,1-.95-2.92,4.3,4.3,0,0,1,1-2.9,3.22,3.22,0,0,1,2.53-1.13,2.87,2.87,0,0,1,2.73,1.49,5.52,5.52,0,0,1,.67,2.94h-5.62a2.62,2.62,0,0,0,.55,1.77,2.12,2.12,0,0,0,1.79.78,1.82,1.82,0,0,0,2-1.51Zm-1.18-2.16a2.4,2.4,0,0,0-.64-1.56,2.06,2.06,0,0,0-1.53-.63,2,2,0,0,0-1.52.63,2.55,2.55,0,0,0-.63,1.56Z" transform="translate(-210.5 -301)"/><path class="cls-2" d="M351.61,435.39h1.16V437h0a2.7,2.7,0,0,1,2.76-1.8v1.34c-1.86,0-2.77,1.08-2.72,3.14v3.45h-1.23Z" transform="translate(-210.5 -301)"/><path class="cls-2" d="M258.42,456.66a2.72,2.72,0,0,0-1-1.72,3.18,3.18,0,0,0-1.89-.56,3,3,0,0,0-2.68,1.32,5.29,5.29,0,0,0-.83,3,5.52,5.52,0,0,0,.83,3.15,3.23,3.23,0,0,0,2.69,1.33,2.71,2.71,0,0,0,2.14-.88,3.51,3.51,0,0,0,.86-2.21h1.38c-.32,2.81-1.81,4.24-4.49,4.29a4.32,4.32,0,0,1-3.6-1.61,6.39,6.39,0,0,1-1.19-4,6.22,6.22,0,0,1,1.26-4,4.41,4.41,0,0,1,3.65-1.65,4.58,4.58,0,0,1,2.84.89,3.91,3.91,0,0,1,1.43,2.59Z" transform="translate(-210.5 -301)"/><path class="cls-2" d="M261,460.28a4.4,4.4,0,0,1,.94-2.9,3.27,3.27,0,0,1,2.7-1.16,3.36,3.36,0,0,1,2.73,1.16,4.5,4.5,0,0,1,.92,2.9,4.42,4.42,0,0,1-.92,2.86,3.41,3.41,0,0,1-2.73,1.19,3.34,3.34,0,0,1-2.7-1.18A4.37,4.37,0,0,1,261,460.28Zm1.3,0a3.13,3.13,0,0,0,.7,2.16,2.17,2.17,0,0,0,3.3,0,3.18,3.18,0,0,0,.69-2.16,3.22,3.22,0,0,0-.69-2.18,2.17,2.17,0,0,0-3.3,0A3.17,3.17,0,0,0,262.28,460.28Z" transform="translate(-210.5 -301)"/><path class="cls-2" d="M269.62,456.39h1.16v1.22h0a2.64,2.64,0,0,1,2.44-1.39,2.46,2.46,0,0,1,2.05.77,3.48,3.48,0,0,1,.53,2.06v5.1H274.6V458.9a1.4,1.4,0,0,0-1.53-1.56,2.08,2.08,0,0,0-1.65.68,2.61,2.61,0,0,0-.57,1.75v4.38h-1.23Z" transform="translate(-210.5 -301)"/><path class="cls-2" d="M278.09,457.52h-1.26v-1.13h1.26v-1.15c0-1.27.7-1.91,2.08-1.92a2.66,2.66,0,0,1,.79.12v1.1a2.75,2.75,0,0,0-.7-.1,1.2,1.2,0,0,0-.68.17.83.83,0,0,0-.26.7v1.08h1.46v1.13h-1.46v6.63h-1.23Z" transform="translate(-210.5 -301)"/><path class="cls-2" d="M283,455h-1.23v-1.55H283Zm-1.23,1.4H283v7.76h-1.23Z" transform="translate(-210.5 -301)"/><path class="cls-2" d="M291.08,463.48q0,3.81-3.48,3.82a4.24,4.24,0,0,1-2.05-.51A2.08,2.08,0,0,1,284.5,465h1.23a.91.91,0,0,0,.23.58,1.51,1.51,0,0,0,.46.4,2.93,2.93,0,0,0,1.25.29,2,2,0,0,0,1.74-.83,3.9,3.9,0,0,0,.51-2.13v-.51h0a2.41,2.41,0,0,1-1,1.06,2.79,2.79,0,0,1-1.38.36,3,3,0,0,1-2.5-1.18,4.44,4.44,0,0,1-.86-2.75,6.06,6.06,0,0,1,.19-1.44,4.17,4.17,0,0,1,.58-1.31,3,3,0,0,1,2.71-1.34,2.44,2.44,0,0,1,2.24,1.29h0v-1.12h1.16Zm-3.46-.37a1.93,1.93,0,0,0,1.75-1,4.33,4.33,0,0,0,.49-2,3.73,3.73,0,0,0-.48-1.9,1.83,1.83,0,0,0-1.66-.87,1.92,1.92,0,0,0-1.7.84,3.45,3.45,0,0,0-.52,2,4,4,0,0,0,.47,2A1.73,1.73,0,0,0,287.62,463.11Z" transform="translate(-210.5 -301)"/><path class="cls-2" d="M299.05,464.15h-1.16v-1.23h0a2.61,2.61,0,0,1-2.44,1.41,2.36,2.36,0,0,1-2-.81,3.23,3.23,0,0,1-.56-2v-5.11h1.23v5.25a1.39,1.39,0,0,0,1.53,1.56,2.07,2.07,0,0,0,1.69-.7,2.68,2.68,0,0,0,.53-1.73v-4.38h1.23Z" transform="translate(-210.5 -301)"/><path class="cls-2" d="M300.76,456.39h1.16V458h0a2.7,2.7,0,0,1,2.75-1.8v1.34c-1.85,0-2.76,1.08-2.71,3.14v3.45h-1.23Z" transform="translate(-210.5 -301)"/><path class="cls-2" d="M312.07,464.12a1.56,1.56,0,0,1-.89.21c-.68,0-1-.39-1-1.2a3.37,3.37,0,0,1-2.65,1.2,2.78,2.78,0,0,1-1.75-.53,1.91,1.91,0,0,1-.74-1.64,2.31,2.31,0,0,1,.23-1.1,1.64,1.64,0,0,1,.57-.67,3.63,3.63,0,0,1,.84-.41,6.7,6.7,0,0,1,.91-.21c.35-.07.68-.12,1-.16a6.58,6.58,0,0,0,.81-.15.81.81,0,0,0,.74-.83,1.7,1.7,0,0,0-.13-.69,1.12,1.12,0,0,0-.41-.37,2.93,2.93,0,0,0-2.43.07,1.37,1.37,0,0,0-.58,1.17h-1.23a2.43,2.43,0,0,1,1-2,4,4,0,0,1,2.18-.57c.35,0,.69,0,1,0a2.74,2.74,0,0,1,.9.32,1.84,1.84,0,0,1,.66.64,2.36,2.36,0,0,1,.22,1.11v4a1.58,1.58,0,0,0,.07.65c0,.15.14.22.33.22a1.23,1.23,0,0,0,.37-.07Zm-2-4a1.89,1.89,0,0,1-1,.33l-1.27.2a2.39,2.39,0,0,0-1.06.39,1.09,1.09,0,0,0-.46,1,1,1,0,0,0,.46.89,1.86,1.86,0,0,0,1,.25,2.64,2.64,0,0,0,1.06-.19,2,2,0,0,0,.72-.44,1.67,1.67,0,0,0,.52-1.12Z" transform="translate(-210.5 -301)"/><path class="cls-2" d="M314.81,456.39h1.5v1.13h-1.5v4.81a.61.61,0,0,0,.19.56,1.21,1.21,0,0,0,.74.13h.57v1.13h-.94a2.1,2.1,0,0,1-1.37-.33,1.7,1.7,0,0,1-.42-1.36v-4.94H312.3v-1.13h1.28v-2.32h1.23Z" transform="translate(-210.5 -301)"/><path class="cls-2" d="M318.76,455h-1.23v-1.55h1.23Zm-1.23,1.4h1.23v7.76h-1.23Z" transform="translate(-210.5 -301)"/><path class="cls-2" d="M320,460.28a4.45,4.45,0,0,1,.94-2.9,3.29,3.29,0,0,1,2.71-1.16,3.36,3.36,0,0,1,2.73,1.16,4.49,4.49,0,0,1,.91,2.9,4.41,4.41,0,0,1-.91,2.86,3.41,3.41,0,0,1-2.73,1.19,3.36,3.36,0,0,1-2.71-1.18A4.42,4.42,0,0,1,320,460.28Zm1.3,0a3.13,3.13,0,0,0,.7,2.16,2.18,2.18,0,0,0,3.31,0,3.23,3.23,0,0,0,.68-2.16,3.27,3.27,0,0,0-.68-2.18,2.18,2.18,0,0,0-3.31,0A3.17,3.17,0,0,0,321.3,460.28Z" transform="translate(-210.5 -301)"/><path class="cls-2" d="M328.64,456.39h1.17v1.22h0a2.66,2.66,0,0,1,2.44-1.39,2.46,2.46,0,0,1,2.05.77,3.42,3.42,0,0,1,.54,2.06v5.1h-1.23V458.9a1.41,1.41,0,0,0-1.53-1.56,2.08,2.08,0,0,0-1.66.68,2.61,2.61,0,0,0-.57,1.75v4.38h-1.23Z" transform="translate(-210.5 -301)"/><path class="cls-2" d="M337.36,461.7a1.35,1.35,0,0,0,.65,1.17,2.56,2.56,0,0,0,1.37.33,3.21,3.21,0,0,0,.63-.06,1.91,1.91,0,0,0,.59-.16,1.33,1.33,0,0,0,.45-.36.94.94,0,0,0,.16-.57,1,1,0,0,0-.2-.62,1.52,1.52,0,0,0-.55-.39,9.68,9.68,0,0,0-1.71-.43l-.44-.14-.45-.13a3.16,3.16,0,0,1-.78-.39,1.72,1.72,0,0,1-.56-.61,1.79,1.79,0,0,1-.23-.92,2,2,0,0,1,.26-1,2.18,2.18,0,0,1,.65-.67,3.61,3.61,0,0,1,1.89-.5,4,4,0,0,1,2.13.49,2.28,2.28,0,0,1,.95,1.94h-1.23a1.31,1.31,0,0,0-.6-1,2.4,2.4,0,0,0-1.14-.27,2.91,2.91,0,0,0-1.07.2.81.81,0,0,0-.54.79.71.71,0,0,0,.23.54,1.83,1.83,0,0,0,.59.36,5.42,5.42,0,0,0,.8.23l.84.22a5.41,5.41,0,0,1,.92.25,2.67,2.67,0,0,1,.79.4,1.7,1.7,0,0,1,.55.61,1.94,1.94,0,0,1,.2.95,2.05,2.05,0,0,1-1,1.9,4.43,4.43,0,0,1-2.18.54,3.84,3.84,0,0,1-2.19-.6,2.52,2.52,0,0,1-1-2Z" transform="translate(-210.5 -301)"/><path class="cls-2" d="M354.42,452.24a7.6,7.6,0,1,0,7.61,7.6A7.6,7.6,0,0,0,354.42,452.24Zm-.91,11.1a.7.7,0,1,1-1-1l2.51-2.51-2.51-2.51a.7.7,0,0,1,1-1l3.48,3.52Z" transform="translate(-210.5 -301)"/></svg>