<svg id="Layer_1" data-name="Layer 1" xmlns="http://www.w3.org/2000/svg" viewBox="0 0 191 191"><defs><style>.cls-1{fill:#09b392;}.cls-2{fill:#fff;}</style></defs><title>ayuda_splash_box_sites</title><rect class="cls-1" width="191" height="191" rx="10"/><path class="cls-2" d="M287.28,446.57a2.3,2.3,0,0,0-2.56-2.19,3.35,3.35,0,0,0-1.6.38,1.53,1.53,0,0,0-.72,1.45,1,1,0,0,0,.3.78,2,2,0,0,0,.74.51,6.9,6.9,0,0,0,1.08.33l1.2.29.64.13.59.2A3.8,3.8,0,0,1,288,449a2.15,2.15,0,0,1,.75.86,2.87,2.87,0,0,1,.28,1.33,2.69,2.69,0,0,1-1.31,2.44,5.2,5.2,0,0,1-2.74.75,4.85,4.85,0,0,1-3-.91,3.37,3.37,0,0,1-1.28-2.86H282a2.26,2.26,0,0,0,.93,2,3.54,3.54,0,0,0,2.1.61,4.47,4.47,0,0,0,1-.1,2.79,2.79,0,0,0,.84-.3,1.75,1.75,0,0,0,.61-.6,1.86,1.86,0,0,0,.22-.95,1.47,1.47,0,0,0-.27-.91,2.06,2.06,0,0,0-.76-.56,5.76,5.76,0,0,0-1-.37c-.4-.09-.81-.18-1.24-.26l-.59-.18-.61-.16-.55-.23a4.39,4.39,0,0,1-.53-.27,2.15,2.15,0,0,1-1-2,2.69,2.69,0,0,1,1.19-2.39,4.41,4.41,0,0,1,2.56-.75,4.33,4.33,0,0,1,2.68.8,3.38,3.38,0,0,1,1.13,2.59Z" transform="translate(-210.5 -301)"/><path class="cls-2" d="M291.73,445H290.5v-1.55h1.23Zm-1.23,1.4h1.23v7.76H290.5Z" transform="translate(-210.5 -301)"/><path class="cls-2" d="M295.09,446.39h1.5v1.13h-1.5v4.81a.61.61,0,0,0,.19.56,1.21,1.21,0,0,0,.74.13h.57v1.13h-.94a2.11,2.11,0,0,1-1.37-.33,1.7,1.7,0,0,1-.42-1.36v-4.94h-1.28v-1.13h1.28v-2.32h1.23Z" transform="translate(-210.5 -301)"/><path class="cls-2" d="M304.13,451.69a3,3,0,0,1-3.2,2.64,3.23,3.23,0,0,1-2.66-1.16,4.81,4.81,0,0,1-.95-2.92,4.3,4.3,0,0,1,1-2.9,3.22,3.22,0,0,1,2.53-1.13,2.87,2.87,0,0,1,2.73,1.49,5.43,5.43,0,0,1,.67,2.94h-5.62a2.62,2.62,0,0,0,.55,1.77,2.12,2.12,0,0,0,1.79.78,1.82,1.82,0,0,0,1.95-1.51ZM303,449.53a2.4,2.4,0,0,0-.64-1.56,2.06,2.06,0,0,0-1.53-.63,2,2,0,0,0-1.51.63,2.5,2.5,0,0,0-.64,1.56Z" transform="translate(-210.5 -301)"/><path class="cls-2" d="M306.16,451.7a1.38,1.38,0,0,0,.66,1.17,2.56,2.56,0,0,0,1.37.33,3.36,3.36,0,0,0,.63-.06,1.77,1.77,0,0,0,.58-.16,1.27,1.27,0,0,0,.46-.36,1,1,0,0,0,.16-.57,1,1,0,0,0-.2-.62,1.56,1.56,0,0,0-.56-.39,9.68,9.68,0,0,0-1.71-.43l-.43-.14-.45-.13a3.42,3.42,0,0,1-.79-.39,1.78,1.78,0,0,1-.55-.61,1.7,1.7,0,0,1-.24-.92,2,2,0,0,1,.27-1,2.18,2.18,0,0,1,.65-.67,3.61,3.61,0,0,1,1.89-.5,4,4,0,0,1,2.13.49,2.28,2.28,0,0,1,.94,1.94h-1.22a1.31,1.31,0,0,0-.6-1,2.41,2.41,0,0,0-1.15-.27,2.86,2.86,0,0,0-1.06.2.81.81,0,0,0-.54.79.71.71,0,0,0,.23.54,1.78,1.78,0,0,0,.58.36,5.56,5.56,0,0,0,.81.23l.84.22a5.41,5.41,0,0,1,.92.25,2.8,2.8,0,0,1,.79.4,1.79,1.79,0,0,1,.55.61,2.3,2.3,0,0,1-.82,2.85,4.4,4.4,0,0,1-2.18.54,3.8,3.8,0,0,1-2.18-.6,2.53,2.53,0,0,1-1-2Z" transform="translate(-210.5 -301)"/><path class="cls-2" d="M323.42,442a7.15,7.15,0,1,0,7.14,7.15A7.15,7.15,0,0,0,323.42,442Zm-.87,10.44a.66.66,0,0,1-.93-.93l2.36-2.36-2.36-2.36a.66.66,0,0,1,.93-.93l3.28,3.31Z" transform="translate(-210.5 -301)"/><path class="cls-2" d="M301.88,362.48a2.52,2.52,0,0,1,.41,1.48v30.32a2.7,2.7,0,0,1-.41,1.43,1.12,1.12,0,0,1-.94.62h-2.51V407a1.82,1.82,0,0,1-.4,1.21,1.3,1.3,0,0,1-1,.5,1.2,1.2,0,0,1-.94-.5,1.77,1.77,0,0,1-.4-1.21V396.33H266.93V407.1a1.85,1.85,0,0,1-.41,1.21,1.15,1.15,0,0,1-.94.49,1.26,1.26,0,0,1-1-.49,1.9,1.9,0,0,1-.4-1.21V396.33h-2.59a1.12,1.12,0,0,1-.94-.62,2.6,2.6,0,0,1-.4-1.43V364a2.44,2.44,0,0,1,.4-1.48,1.15,1.15,0,0,1,.94-.58h2.6a2.4,2.4,0,0,1,.49-1.21,1.16,1.16,0,0,1,1.61-.28,1.07,1.07,0,0,1,.28.28,1.88,1.88,0,0,1,.4,1.21h28.7a1.88,1.88,0,0,1,.4-1.21,1.15,1.15,0,0,1,.94-.49,1.27,1.27,0,0,1,1,.49,1.88,1.88,0,0,1,.4,1.21h2.51A1.14,1.14,0,0,1,301.88,362.48Zm-1.3,31.7V364H261.84V394.2Zm24.48-31.66V346.65H286.32v16.42a3.15,3.15,0,0,0-.81-.1,3.21,3.21,0,0,0-.81.1V346.65a2.7,2.7,0,0,1,.41-1.52,1.15,1.15,0,0,1,.94-.63h2.6a2.24,2.24,0,0,1,.5-1.12,1.18,1.18,0,0,1,.94-.5,1.19,1.19,0,0,1,.94.5,1.69,1.69,0,0,1,.4,1.12h28.7a1.88,1.88,0,0,1,.4-1.21,1.22,1.22,0,0,1,1-.5,1.3,1.3,0,0,1,1,.5,1.82,1.82,0,0,1,.4,1.21h2.51a1.13,1.13,0,0,1,.94.63,2.78,2.78,0,0,1,.41,1.52V362.8l-.9-.18a4.48,4.48,0,0,0-.81-.1ZM301,379a6.56,6.56,0,0,0,.09-1.08,3.35,3.35,0,0,0-.18-1.08h10.13a6.52,6.52,0,0,0,0,2.16Zm49.86-17.13a1.13,1.13,0,0,1,1,.58,2.85,2.85,0,0,1,.36,1.48v30.32a2.87,2.87,0,0,1-.36,1.43,1.1,1.1,0,0,1-1,.62h-2.51V407a1.88,1.88,0,0,1-.4,1.21,1.22,1.22,0,0,1-.94.5,1.27,1.27,0,0,1-1-.49,1.88,1.88,0,0,1-.41-1.22V396.33H317V407.1a1.84,1.84,0,0,1-.4,1.21,1.25,1.25,0,0,1-1,.49,1.18,1.18,0,0,1-.95-.49,1.9,1.9,0,0,1-.4-1.21V396.33h-2.68a1.15,1.15,0,0,1-.95-.62,2.6,2.6,0,0,1-.4-1.43V364a2.58,2.58,0,0,1,.4-1.48,1.18,1.18,0,0,1,.95-.58h2.68a1.88,1.88,0,0,1,.4-1.21,1.16,1.16,0,0,1,1.61-.28,1.07,1.07,0,0,1,.28.28,2.35,2.35,0,0,1,.49,1.21H345.6a1.83,1.83,0,0,1,.41-1.21,1.25,1.25,0,0,1,1-.49,1.15,1.15,0,0,1,.94.49,1.88,1.88,0,0,1,.4,1.21Zm-.35,32.28V364H311.88V394.2Z" transform="translate(-210.5 -301)"/></svg>