<svg xmlns="http://www.w3.org/2000/svg" viewBox="0 0 251 230.28"><defs><style>.cls-1{fill:#268ed9;}.cls-2{fill:#fff;}.cls-15,.cls-3{fill:#ea7a70;}.cls-4{fill:#bdb8ec;}.cls-5{fill:#ffaea7;}.cls-6{fill:#dadaff;}.cls-7{fill:#ffc1c5;}.cls-8{fill:#ffb7bb;}.cls-9{fill:#441fd8;}.cls-10{fill:#3111ae;}.cls-11{fill:#1f0d52;}.cls-12{fill:#acdcff;}.cls-13{fill:#333;}.cls-14{fill:#453286;}.cls-14,.cls-15{fill-rule:evenodd;}</style></defs><g id="Layer_2" data-name="Layer 2"><g id="Layer_1-2" data-name="Layer 1"><rect class="cls-1" width="211" height="211" rx="10"/><path class="cls-2" d="M89.17,128.41h15.5a1.88,1.88,0,0,0,1.41-.65,2.36,2.36,0,0,0,.59-1.58v-19.9a2.36,2.36,0,0,0-.59-1.58,1.88,1.88,0,0,0-1.41-.65H89.17a2.12,2.12,0,0,0-2,2.23v19.9a2.4,2.4,0,0,0,.58,1.58,1.91,1.91,0,0,0,1.42.65Zm2-19.89h11.5v15.42H91.17Z"/><path class="cls-2" d="M155.57,83a2.46,2.46,0,0,0,.1-2.12l-7.1-16.32a9.05,9.05,0,0,0-8.1-5.59H84.87a8.86,8.86,0,0,0-7.8,4.92l-8.8,16.77a2.43,2.43,0,0,0,0,2.21A2,2,0,0,0,70,84h4.2v48a11.86,11.86,0,0,0,2.93,7.9,9.47,9.47,0,0,0,7.07,3.27h55.5a9.49,9.49,0,0,0,7.07-3.27,11.91,11.91,0,0,0,2.93-7.9V84.15H154a2,2,0,0,0,1.6-1.12Zm-36.2,55.67V111.87a3.19,3.19,0,0,1,3-3.35h7.5a3.19,3.19,0,0,1,3,3.35V138.7Zm26.3-6.71c0,3.71-2.68,6.71-6,6.71h-2.9V111.87a8.34,8.34,0,0,0-2.05-5.53,6.64,6.64,0,0,0-4.95-2.29h-7.4c-3.87,0-7,3.5-7,7.82V138.7H84.27c-3.32,0-6-3-6-6.71V84.15h67.4ZM73.47,79.68l7.1-13.53h0a5,5,0,0,1,4.3-2.8h55.6a5,5,0,0,1,4.5,3.13l5.8,13.08Z"/><path class="cls-2" d="M75.13,166.77V171h-2V159.62h4.35a4.38,4.38,0,0,1,3,1,3.32,3.32,0,0,1,1.13,2.62,3.2,3.2,0,0,1-1.11,2.6,4.58,4.58,0,0,1-3.07.93Zm0-1.58h2.38a2.4,2.4,0,0,0,1.61-.49,1.85,1.85,0,0,0,.55-1.44,2,2,0,0,0-.56-1.47,2.17,2.17,0,0,0-1.55-.57H75.13Zm13,5.81a3,3,0,0,1-.21-.79,3.19,3.19,0,0,1-4.3.22,2.31,2.31,0,0,1-.81-1.8,2.41,2.41,0,0,1,1-2.07,4.92,4.92,0,0,1,2.88-.72h1.16v-.56a1.31,1.31,0,0,0-1.48-1.44,1.69,1.69,0,0,0-1.06.32,1,1,0,0,0-.42.82H83a2.12,2.12,0,0,1,.46-1.29,3.11,3.11,0,0,1,1.25-1,4.67,4.67,0,0,1,1.78-.34,3.54,3.54,0,0,1,2.37.75,2.64,2.64,0,0,1,.9,2.09v3.82a4.4,4.4,0,0,0,.32,1.82V171Zm-2.08-1.37a2.16,2.16,0,0,0,1-.27,1.73,1.73,0,0,0,.75-.74V167h-1a2.79,2.79,0,0,0-1.59.37,1.19,1.19,0,0,0-.53,1,1.12,1.12,0,0,0,.36.87A1.41,1.41,0,0,0,86.08,169.63Zm9.16,0a1.73,1.73,0,0,0,1.18-.41,1.44,1.44,0,0,0,.5-1h1.79a2.78,2.78,0,0,1-.49,1.48A3.38,3.38,0,0,1,97,170.76a3.8,3.8,0,0,1-1.7.4A3.64,3.64,0,0,1,92.45,170a4.59,4.59,0,0,1-1-3.17v-.2a4.48,4.48,0,0,1,1-3.09,3.56,3.56,0,0,1,2.81-1.16,3.44,3.44,0,0,1,2.45.88,3.12,3.12,0,0,1,1,2.31H96.92a1.75,1.75,0,0,0-.5-1.2,1.6,1.6,0,0,0-1.18-.47,1.67,1.67,0,0,0-1.42.68,3.42,3.42,0,0,0-.51,2v.3A3.57,3.57,0,0,0,93.8,169,1.7,1.7,0,0,0,95.24,169.64Zm7.65-2.26-.84.86V171h-1.9V159h1.9v6.92l.59-.74,2.34-2.63h2.28l-3.14,3.52,3.47,4.93H105.4Zm16.15,1h-4.41l-.92,2.65h-2L116,159.62h1.78L122,171H120Zm-3.85-1.59h3.29L116.84,162Zm10.54,1.83,1.79-6h2L126.56,171h-1.65l-3-8.45h2ZM135.6,171a3.3,3.3,0,0,1-.22-.79,3,3,0,0,1-2.22.95,3,3,0,0,1-2.07-.73,2.31,2.31,0,0,1-.81-1.8,2.41,2.41,0,0,1,1-2.07,4.9,4.9,0,0,1,2.88-.72h1.16v-.56a1.32,1.32,0,0,0-1.48-1.44,1.72,1.72,0,0,0-1.07.32,1,1,0,0,0-.41.82h-1.9a2.12,2.12,0,0,1,.46-1.29,3.11,3.11,0,0,1,1.25-1,4.59,4.59,0,0,1,1.78-.34,3.53,3.53,0,0,1,2.36.75,2.65,2.65,0,0,1,.91,2.09v3.82a4.4,4.4,0,0,0,.32,1.82V171Zm-2.08-1.37a2.16,2.16,0,0,0,1-.27,1.84,1.84,0,0,0,.75-.74V167h-1a2.77,2.77,0,0,0-1.59.37,1.19,1.19,0,0,0-.53,1,1.12,1.12,0,0,0,.36.87A1.4,1.4,0,0,0,133.52,169.63Zm7.71,1.37h-1.9v-8.45h1.9Zm-2-10.65a1,1,0,0,1,.27-.73,1.28,1.28,0,0,1,1.6,0,1,1,0,0,1,.28.73,1,1,0,0,1-.28.72,1.28,1.28,0,0,1-1.6,0A1,1,0,0,1,139.21,160.35ZM145.32,171h-1.9V159h1.9Zm6.81-2.3a.87.87,0,0,0-.42-.77,4.5,4.5,0,0,0-1.38-.47,7.21,7.21,0,0,1-1.62-.51,2.16,2.16,0,0,1-1.42-2,2.28,2.28,0,0,1,.92-1.83,3.65,3.65,0,0,1,2.34-.73,3.77,3.77,0,0,1,2.45.75,2.4,2.4,0,0,1,.94,2H152a1.16,1.16,0,0,0-.41-.91,1.52,1.52,0,0,0-1.08-.37,1.73,1.73,0,0,0-1,.29.91.91,0,0,0-.39.78.75.75,0,0,0,.37.67,4.85,4.85,0,0,0,1.48.5,6.59,6.59,0,0,1,1.75.58,2.51,2.51,0,0,1,.95.82,2,2,0,0,1,.31,1.15,2.21,2.21,0,0,1-.95,1.85,4,4,0,0,1-2.47.71,4.34,4.34,0,0,1-1.85-.38,3,3,0,0,1-1.27-1,2.46,2.46,0,0,1-.45-1.41h1.84a1.4,1.4,0,0,0,.51,1,2,2,0,0,0,1.24.35,1.92,1.92,0,0,0,1.14-.28A.89.89,0,0,0,152.13,168.7Z"/><path class="cls-3" d="M162.4,230.28h.19a1.52,1.52,0,0,0,1.06-1.76l-6.31-54.84c-.13-.84-.75-1.45-1.44-1.3a1.53,1.53,0,0,0-1.07,1.75l6.32,54.78C161.28,229.67,161.78,230.28,162.4,230.28Z"/><path class="cls-3" d="M182.42,230.28h.18a1.53,1.53,0,0,0,1.07-1.76l-6.32-54.84c-.12-.84-.75-1.45-1.44-1.3a1.53,1.53,0,0,0-1.06,1.75l6.32,54.78A1.4,1.4,0,0,0,182.42,230.28Z"/><path class="cls-3" d="M161.28,218.14h20.07v3.05H161.28Z"/><path class="cls-3" d="M160,207.06H180.1v3.06H160Z"/><path class="cls-3" d="M158.71,196h20.08V199H158.71Z"/><path class="cls-3" d="M157.46,184.91h20.08V188H157.46Z"/><path class="cls-4" d="M156.21,173.83h20.08v3H156.21Z"/><path class="cls-5" d="M169.28,230.28a1.37,1.37,0,0,0,1.25-1.3l6.32-54.85a1.53,1.53,0,0,0-1.06-1.75c-.69-.15-1.32.46-1.44,1.3L168,228.52a1.52,1.52,0,0,0,1.06,1.76C169.15,230.21,169.22,230.28,169.28,230.28Z"/><path class="cls-5" d="M149.27,230.28a1.38,1.38,0,0,0,1.25-1.3l6.32-54.85a1.53,1.53,0,0,0-1.07-1.75c-.68-.15-1.31.46-1.43,1.3L148,228.52a1.52,1.52,0,0,0,1.06,1.76C149.14,230.21,149.21,230.28,149.27,230.28Z"/><path class="cls-5" d="M150.33,218.14h20.08v3.05H150.33Z"/><path class="cls-5" d="M151.58,207.06h20.08v3.06H151.58Z"/><path class="cls-5" d="M152.83,196h20.08V199H152.83Z"/><path class="cls-5" d="M154.15,184.91h20.07V188H154.15Z"/><path class="cls-6" d="M155.4,173.83h20.07v3H155.4Z"/><path class="cls-3" d="M155.27,179h22.08a2.45,2.45,0,0,0,2.19-2.68v-5.65a2.45,2.45,0,0,0-2.19-2.67H155.27a2.44,2.44,0,0,0-2.19,2.67v5.65A2.5,2.5,0,0,0,155.27,179Z"/><path class="cls-5" d="M153,179H175.1a2.45,2.45,0,0,0,2.19-2.68v-5.65A2.45,2.45,0,0,0,175.1,168H153a2.44,2.44,0,0,0-2.19,2.67v5.65A2.5,2.5,0,0,0,153,179Z"/><path class="cls-7" d="M199.55,137.34a14.7,14.7,0,0,0,9.36-3.13c.28-.22.47-.34.74-.56l1.12-1c.46-.44.83-.89,1.29-1.34l.19-.22a11.68,11.68,0,0,0,2.87-5.37,23.14,23.14,0,0,0,.56-3.46s4.63-15.43,1.48-14.2-7.69,6.38-11.12,11.74v.11c-.19.34-.37.56-.56.9a1.93,1.93,0,0,1-.37.56c-1.76,2.68-3.06,4.69-3.52,4.91-.83.34-6.4-14.3-7-14.53,0,0-2.88,1.12-3.15,2.46C190.74,118.22,195.38,137.34,199.55,137.34Z"/><path class="cls-8" d="M199.46,124.82a9.24,9.24,0,0,0,.46,2.35c.28.56.84,1.12,1.39,1a3.38,3.38,0,0,0,2-1.23c6.12-6.7,5.56-11.29,5.38-11.4-.19.34-3.15,4.92-3.34,5.14a1.7,1.7,0,0,1-.37.56c-1.76,2.69-3,4.81-3.52,4.92S199.27,123,199.46,124.82Z"/><path class="cls-7" d="M210.12,219.38c.46-.56,4.44.56,4.44.89,0,.9-.09,4.36-.55,4.81s-4.45-.22-4.45-1.12S209.65,219.83,210.12,219.38Z"/><path class="cls-7" d="M242.65,216.92c.09-.67,3.9-2.68,4-2.46.46.67,2,3.69,1.85,4.25s-3.7,3-4.17,2.23C244,220.39,242.56,217.59,242.65,216.92Z"/><path class="cls-9" d="M224,158.13c-.28.89-.56,1.67-.83,2.68-2,6.15-4.45,13.41-4.73,17.21-.47,7-3.15,24-3.15,32.3,0,6.71-1.58,11.29-1.39,12.86l-5.1-1.23c-1.95-9.72-4-33.2-4-43.82s.74-28.27,4-36.66c3.06-7.93,15.39,6.49,16.78,8.5C226.24,150.75,225.32,154,224,158.13Z"/><path class="cls-10" d="M223.93,158a.34.34,0,0,0-.46,0c-1.21-2-3.9-3.92-5.38-1-.83,1.68.09,3.58.19,5.25.18,3.36-1.58,6.49-2.69,9.5-3.89,10.62-.74,22.36-1.86,33.54-.55,5.81-2.87,11.4-2.5,17.43,1.21.67,3,1.23,3.89.56.47-2.23,2.79-38.11,3.25-45,.28-3.8,2.69-11,4.73-17.21l.83-2.69C224,158.13,223.93,158.13,223.93,158Z"/><path class="cls-9" d="M222,147v1.12c.09,4.36.46,21,2,37.44,1,10.51,12.14,27.83,19.47,34.65l4.08-2.68.92-.56S244,207,241.73,203c-5.75-10.62-4.55-16.77-4.55-23.81-.09-14.42,3.06-21.46-.18-32.19-.19-.45-.28-1-.47-1.45a50,50,0,0,0-2.41-5.7,1.57,1.57,0,0,0-.74-.67,2.4,2.4,0,0,0-1.29-.11c-2.32.33-5.94,2.68-9.09,6.7A12.12,12.12,0,0,0,222,147Z"/><path class="cls-10" d="M234.22,187.41A94.1,94.1,0,0,0,239,205.18c1.94,4.92,5.37,8.61,8.62,12.19l.92-.56s-4.54-9.95-6.76-14c-5.75-10.62-4.55-16.77-4.55-23.81-.09-14.42,3.06-21.46-.18-32.19a11,11,0,0,0-2.41.89.24.24,0,0,0-.19.23c-.18.11-.18.33-.18.56,1.67,6.93,1.11,13.41,0,20.45A53.36,53.36,0,0,0,234.22,187.41Z"/><path class="cls-11" d="M214.1,223.85s1.21,3.58-.46,5.81c0,0-9.27-1.67-12-2.9,0,0,.65-4.36,3.06-4.14a32.07,32.07,0,0,1,4.82.9S212,225.75,214.1,223.85Z"/><path class="cls-11" d="M248.22,217.48s2.87,1.9,2.78,4.81c0,0-8.07,5.81-10.75,6.92,0,0-1.76-3.8.18-5.47a35.11,35.11,0,0,1,4.17-3A3.9,3.9,0,0,0,248.22,217.48Z"/><path class="cls-12" d="M215.86,110.29c.28,3.24.46,6,.46,6s3,1.46,3.16,3.58a6.62,6.62,0,0,1-.93,3.47c-.83,1.78-2,3.69-2.87,5.59-5.75-1-9.37-6.82-9.92-11.74,1.94-6,4.54-13.86,7.14-16.43C214.47,99.11,215.4,105.26,215.86,110.29Z"/><path class="cls-12" d="M208.27,141.36c0,1.34,25.3,8.27,27.9,7.71,1-.22,1.67-.56,1.85-1,.47-1.23-1.2-13.64-1-21.91,0-1.56.1-3.24.1-4.8,0-8.28-.47-16.1-2-17.55-.38-.34-.75-.67-1.21-1a24.52,24.52,0,0,0-2.32-1.68,20.74,20.74,0,0,0-4.82-2.23,16.48,16.48,0,0,0-9.64-.23,16.11,16.11,0,0,0-2.69,1c-.18.11-.46.22-.64.34-3.06,1.45-2.6,9.5-2.14,16.2.19,3.13.47,5.93.37,7.72a12.07,12.07,0,0,1-.18,1.78C211,130.52,208.73,137.79,208.27,141.36Z"/><path class="cls-7" d="M219.57,94.64v3.58s-.74,1.56,0,1.67c1.58.34,3.8-1.67,3.8-1.67V92.74Z"/><path class="cls-8" d="M223.37,95.42V93s-1.66,2.58-3.52,2.69C219.85,95.65,221.89,96.65,223.37,95.42Z"/><path class="cls-7" d="M217.44,86.71a31.24,31.24,0,0,0-.37,6.93c.19,2.23,4.08,4.13,6.21.22s.37-8.38.37-8.38Z"/><path class="cls-9" d="M239.13,150.3c-.65.45-18.08-2.79-18.08-2.79-1.2-4.69-5-24.37-4.82-26.27C216.88,109,226.34,99,226.34,99c3.7-.22,8.43,5,8.43,5-1.11-2.68-5.93-2.46-6.67-1.12-1.58,2.91-1.11,12,.28,15.65,4.17,10.84,8.25,11.4,8.25,11.4Z"/><path class="cls-9" d="M218.09,125.94c.56,1.67-6.86,18.66-6.86,18.66s-5.19-1.22-5.28-1.34,2.22-7,3.8-12.07a19.09,19.09,0,0,0,.83-2.79v-.11a22.55,22.55,0,0,0,.65-2.58,4.35,4.35,0,0,0,.19-1.78c.09-1.79-1.21-5.14-1.3-8.28-.09-5.58,1.58-15,3.06-15.64.19-.12.28-.12.46-.23s.19,0,.19-.11a24.43,24.43,0,0,1,2.69-1S214.66,115.43,218.09,125.94Z"/><path class="cls-13" d="M219,86.93c.74-.11,1.48-.45,2.22-.56a2.75,2.75,0,0,1,1.67.22c0,.67.09,1.46.09,1.68,0,1.12-.28,2.46.28,3.47a1.11,1.11,0,0,0,1.58.55,1.21,1.21,0,0,0,.46-1.11,7.67,7.67,0,0,0-.28-5.59c-.18-1.68-3.15-2.35-4.08-2.46-1.2-.11-5-.67-4.54,1.9C215.49,86.82,217.81,87.15,219,86.93Z"/><path class="cls-14" d="M219.39,123.81a3,3,0,0,0,1.57,3.58,2.29,2.29,0,0,0,3-1.9,3,3,0,0,0-1.58-3.58A2.4,2.4,0,0,0,219.39,123.81Zm.83.34c.28-1,1.12-1.57,1.95-1.23a1.94,1.94,0,0,1,1,2.35,1.51,1.51,0,0,1-1.95,1.23A2,2,0,0,1,220.22,124.15Z"/><path class="cls-15" d="M210.86,145.72l9.92,3.69a2,2,0,0,0,2.41-1.57l4.72-18.44a2.5,2.5,0,0,0-1.29-2.9l-9.92-3.69a2,2,0,0,0-2.41,1.56l-4.73,18.44A2.47,2.47,0,0,0,210.86,145.72Z"/><path class="cls-7" d="M235.15,145.05a1.34,1.34,0,0,1-.65-.11c-7.23-1.12-20-7.83-20-7.83,0-.67-.18-3.68-.18-3.68.28,0,12.14.33,17.06.44h1a1.88,1.88,0,0,0,1.11,0h.09c.74-.22-.09-7.37-1.39-10.28-.56-1.23-1.2-2.46-1.67-3.58a15.2,15.2,0,0,1-1.58-8.6,14.33,14.33,0,0,1,2.32-6.6c1.39-2.23,4.27-2,5.57.34a75.09,75.09,0,0,1,6.2,14.42v.11C246.36,129.07,242.1,145.83,235.15,145.05Z"/><path class="cls-8" d="M242.47,117.11s-3.15-2.24-2.13,1.56c.55,5.14.83,13-.56,17.89-.93,3.24-2.78,5.92-5.93,5.25-2.23-.45-9.64-1.57-14.09-2.8-1.3-.33-3.9-1.78-5.19-2v.12s12.7,6.81,20,7.82c.18,0,.46.11.65.11C242.1,145.83,246.73,129.85,242.47,117.11Z"/><path class="cls-12" d="M243.12,116.88c-.28-1.23-2-9.38-5.93-13-1.76-1.68-6.68-4-8.62-1.57-4.17,5.37-1.11,14.53,1.85,21C235.06,123.81,239.6,121.24,243.12,116.88Z"/><path class="cls-7" d="M211,135.21a1,1,0,0,1,.09-1.11l.1-.11a.79.79,0,0,1-.1-.9.8.8,0,0,1,.65-.45.43.43,0,0,1,.1-.33c.37-1.23,2,.22,2.59.56.19.11.28.33.19.45l.09.11a3.93,3.93,0,0,1,.09,2.9,1.72,1.72,0,0,1-2.13,1.12c-.65-.11-2-.56-2-1.57A.59.59,0,0,1,211,135.21Z"/><path class="cls-7" d="M212.62,130.52a1.92,1.92,0,0,1,1.85.45,9,9,0,0,1,1.21,2.79c.28.23-.09.23-.56.23a1,1,0,0,1-1.3-.9c0-.33.1-.67-.18-.89a1.89,1.89,0,0,0-1-.56C212.25,131.41,212.15,130.52,212.62,130.52Z"/><path class="cls-7" d="M184.07,110.62c.09-.33.28-.55.55-.55a1.94,1.94,0,0,1-.37-1.35c.1-.67.47-.67.93-.67h.28v-.11c0-.11.18-.22.28-.33a3.06,3.06,0,0,1,2.13.67c1.85,1.11,2.87,1,3.61.78-.46-.67-.55-.78-1-.89a.73.73,0,0,1-.55-.56c-.09-.45.09-.56.37-.67s1.2,0,1.67,0a.93.93,0,0,1,.74.56c1.95,3.12,2.69,6.7,2.13,8.15-.18.56-3.52-.67-3.43-1.34-1.94.34-5.19,0-5.38-1.34C184.9,112.53,183.7,111.85,184.07,110.62Z"/></g></g></svg>