<svg id="Layer_1" data-name="Layer 1" xmlns="http://www.w3.org/2000/svg" xmlns:xlink="http://www.w3.org/1999/xlink" viewBox="0 0 579.32 331.66"><defs><style>.cls-1{fill:none;}.cls-2{opacity:0.4;}.cls-3{clip-path:url(#clip-path);}.cls-4{fill:#dcecf7;}.cls-5{fill:#bedff6;}.cls-6{fill:#f5f5f5;}.cls-7{fill:#fff;}.cls-8{fill:#e6e6e6;}.cls-9{fill:#d5e2eb;}.cls-10{fill:#1056fb;}.cls-11{fill:#f1f7fc;}.cls-12{fill:#3054d2;}.cls-13{fill:#aab4c4;}.cls-14{clip-path:url(#clip-path-2);}.cls-15{clip-path:url(#clip-path-3);}.cls-16{fill:#13395b;}.cls-17{clip-path:url(#clip-path-5);}.cls-18{clip-path:url(#clip-path-6);}.cls-19{fill:#0045ff;}.cls-20{clip-path:url(#clip-path-7);}.cls-21{fill:#e5f2fb;}.cls-22{clip-path:url(#clip-path-8);}.cls-23{clip-path:url(#clip-path-10);}.cls-24{clip-path:url(#clip-path-11);}.cls-25{clip-path:url(#clip-path-12);}.cls-26{fill:#191c3c;}.cls-27{clip-path:url(#clip-path-13);}.cls-28{clip-path:url(#clip-path-14);}.cls-29{clip-path:url(#clip-path-15);}.cls-30{clip-path:url(#clip-path-17);}.cls-31{clip-path:url(#clip-path-18);}.cls-32{clip-path:url(#clip-path-19);}.cls-33{clip-path:url(#clip-path-20);}.cls-34{clip-path:url(#clip-path-21);}.cls-35{clip-path:url(#clip-path-22);}.cls-36{clip-path:url(#clip-path-23);}.cls-37{clip-path:url(#clip-path-24);}</style><clipPath id="clip-path" transform="translate(0 0)"><rect class="cls-1" y="-66.34" width="579.32" height="398"/></clipPath><clipPath id="clip-path-2" transform="translate(0 0)"><path class="cls-1" d="M400.32,14.66,390.89,2.13a2.29,2.29,0,0,0-3.21-.44,2.32,2.32,0,0,0-.68.84L377,23.77a1,1,0,0,0,1.25,1.36l2.63-1v45a5.5,5.5,0,0,0,5.5,5.5,5.44,5.44,0,0,0,1.92-.35l.12,0a12.75,12.75,0,0,0,8.29-11.93V18.24l2.84-1.06a1.64,1.64,0,0,0,1-2.09A1.61,1.61,0,0,0,400.32,14.66Z"/></clipPath><clipPath id="clip-path-3" transform="translate(0 0)"><path class="cls-1" d="M432.07,54.86a5.18,5.18,0,0,0-.16-1.47,1.87,1.87,0,0,0-.45-.83,1.09,1.09,0,0,0-.68-.3,2.52,2.52,0,0,0-.86.12,3.24,3.24,0,0,0-.84.4,2.35,2.35,0,0,0-.66.71,4.31,4.31,0,0,0-.42,1.1,6.91,6.91,0,0,0-.15,1.57,5.51,5.51,0,0,0,.15,1.4,2,2,0,0,0,.42.8,1,1,0,0,0,.66.29,2.4,2.4,0,0,0,.84-.11,3,3,0,0,0,.86-.41,2.39,2.39,0,0,0,.68-.7,3.48,3.48,0,0,0,.45-1.07A5.84,5.84,0,0,0,432.07,54.86Zm4.58-1.4a7.44,7.44,0,0,1-.56,2.83,10.36,10.36,0,0,1-1.48,2.53,10.68,10.68,0,0,1-2.14,2,9.6,9.6,0,0,1-2.55,1.25,7.36,7.36,0,0,1-2.68.35,4.51,4.51,0,0,1-2.11-.69,3.91,3.91,0,0,1-1.39-1.65,5.72,5.72,0,0,1-.5-2.51,8.09,8.09,0,0,1,.5-2.88,9.46,9.46,0,0,1,1.39-2.53,9.77,9.77,0,0,1,2.11-2,9.51,9.51,0,0,1,2.68-1.3,7.07,7.07,0,0,1,2.7-.34,4.38,4.38,0,0,1,2.13.7,4,4,0,0,1,1.39,1.67A6,6,0,0,1,436.65,53.46ZM416,45.94a5.77,5.77,0,0,0-.16-1.49,1.87,1.87,0,0,0-.45-.83,1.09,1.09,0,0,0-.68-.3,2.52,2.52,0,0,0-.86.12,3,3,0,0,0-.85.41,2.2,2.2,0,0,0-.65.71,3.58,3.58,0,0,0-.42,1.1,7,7,0,0,0-.15,1.58,5.51,5.51,0,0,0,.15,1.4,1.77,1.77,0,0,0,.42.8,1.08,1.08,0,0,0,.65.29,2,2,0,0,0,.85-.12,3.54,3.54,0,0,0,.86-.4,2.52,2.52,0,0,0,.68-.7,3.48,3.48,0,0,0,.45-1.07A5.84,5.84,0,0,0,416,45.94Zm13.38-9.67a5.82,5.82,0,0,1,.71-.78,3.07,3.07,0,0,1,1.17-.62l4.34-1.33L414.48,65.66a3.92,3.92,0,0,1-.72.8,3,3,0,0,1-1.05.54l-4.46,1.37Zm-8.81,8.27a7.38,7.38,0,0,1-.55,2.82,10.12,10.12,0,0,1-1.48,2.52,10.68,10.68,0,0,1-2.14,2,9,9,0,0,1-2.55,1.25,7,7,0,0,1-2.68.35,4.33,4.33,0,0,1-2.12-.69,4.07,4.07,0,0,1-1.39-1.63,5.82,5.82,0,0,1-.5-2.5,8.61,8.61,0,0,1,.5-2.89,9.26,9.26,0,0,1,1.39-2.52,9.82,9.82,0,0,1,2.12-2,9.51,9.51,0,0,1,2.68-1.3,7.28,7.28,0,0,1,2.7-.34,4.38,4.38,0,0,1,2.13.7A4,4,0,0,1,420,42a6,6,0,0,1,.54,2.58Z"/></clipPath><clipPath id="clip-path-5" transform="translate(0 0)"><path class="cls-1" d="M323.55,81.66l10.73-8.38,13.14-1.68s-7.09,20.09-.46,25.5c5.77,4.7-4.85,9.92-11.24,8.6s-14.23-.8-9.54-9C328,93.48,323.55,81.66,323.55,81.66Z"/></clipPath><clipPath id="clip-path-6" transform="translate(0 0)"><path class="cls-1" d="M318,41.52a24.44,24.44,0,0,1,11-1.06c5.51.63,11.68,1.18,16.65,3.74,7.24,3.73,2.24,20.79,2.31,28.24a22.77,22.77,0,0,1-.35,5.65c-.58,2.44-7.86,12.59-15.28,14.63-12.53,1.67-17.49.89-17.81-3.28-.35-4.6-1.88-34.65-1.85-38C313.54,45.59,311.08,43.81,318,41.52Z"/></clipPath><clipPath id="clip-path-7" transform="translate(0 0)"><path class="cls-1" d="M254,93.58c1.84,1.6,4.54,3.52,4.56-.57,0-1-1.12-3.06-.59-3.92.91-1.51,2.43.82,3.08,1.67,4.58,6,7.45,15.52,1.15,21.28-4.75,4.34-11.79,1.68-16-1.86s-6.71-8.32-5.56-13.71a27.52,27.52,0,0,0,.9-4,36.3,36.3,0,0,1,.13-3.9c.14-.77,1-3.53,1.79-3.7,1-.22,2.74,1.6,3.39,2.16,2.26,2,4.45,4.1,6.69,6.11Z"/></clipPath><clipPath id="clip-path-8" transform="translate(0 0)"><path class="cls-1" d="M455.08,158.86c-2.35.65-5.61,1.22-3.86-2.48.42-.89,2.33-2.28,2.23-3.29-.17-1.75-2.55-.3-3.5.19-6.74,3.47-13.44,10.78-10.25,18.7,2.4,6,9.91,6.58,15.28,5.23s9.66-4.62,10.95-10a29,29,0,0,1,.92-4,33.39,33.39,0,0,0,1.58-3.57c.21-.76.65-3.6,0-4.11-.82-.63-3.16.26-4,.49-2.9.81-5.79,1.78-8.68,2.63Z"/></clipPath><clipPath id="clip-path-10" transform="translate(0 0)"><path class="cls-1" d="M187.67,222.59l10.91-6.54a5,5,0,0,0,2.13-2.67l8.48-22.91a3.18,3.18,0,0,0,1.51-2.35l-.14-1.05c-.18-.8-.07-1.51-.67-1.95l-.36-.26-.32-2,.69-2,1.25-.8a1.43,1.43,0,0,0,.62-1.92h0l-.44.34-2.24,1.08a1.66,1.66,0,0,0-.78.77l-.76,1.38-2.78,3.91a2.67,2.67,0,0,0-.44,2l.15,6.16L196.89,209a6.71,6.71,0,0,1-2.73,2.55l-10.39,5.27Z"/></clipPath><clipPath id="clip-path-11" transform="translate(0 0)"><rect class="cls-1" x="180.81" y="317.95" width="4.95" height="7.42"/></clipPath><clipPath id="clip-path-12" transform="translate(0 0)"><polygon class="cls-1" points="168.64 317.15 173.51 318.06 172.22 325.36 167.35 324.45 168.64 317.15"/></clipPath><clipPath id="clip-path-13" transform="translate(0 0)"><path class="cls-1" d="M178.21,212.43h7.39a15.78,15.78,0,0,1,1.07-9c.91-1.83-8.46-1.69-8.46-1.69Z"/></clipPath><clipPath id="clip-path-14" transform="translate(0 0)"><path class="cls-1" d="M181,191.9c1.18-1.56,3.28-2.71,5-1.88v.5c.76,2.85,3.49,4.82,4.14,7.71a5.81,5.81,0,0,1-3.59,6.57,10.26,10.26,0,0,1-3.82.33,1.6,1.6,0,0,1-.68-.12,1.65,1.65,0,0,1-.53-.49,11.7,11.7,0,0,1-2.41-6.23A9.51,9.51,0,0,1,181,191.9Z"/></clipPath><clipPath id="clip-path-15" transform="translate(0 0)"><path class="cls-1" d="M182.65,219.13l-4.55,15.45a10.17,10.17,0,0,0-.27,4.62l2.62,15.68,1.73,3.92a2.35,2.35,0,0,1-.44,2.55l-.73.75-.32,3.71a2.26,2.26,0,0,1-1.55,2L178,266.43l-1.1-1.22a2.87,2.87,0,0,1-.6-1.13l-.41-1.59a3.12,3.12,0,0,1-.06-1.14l.74-4.78-4.68-19.48a4.76,4.76,0,0,1,0-2.37l4.85-17.44a3.1,3.1,0,0,1,3-2.34,3.17,3.17,0,0,1,3.07,3.28A3.11,3.11,0,0,1,182.65,219.13Z"/></clipPath><clipPath id="clip-path-17" transform="translate(0 0)"><rect class="cls-1" x="132.32" y="318.32" width="4.45" height="6.64"/></clipPath><clipPath id="clip-path-18" transform="translate(0 0)"><rect class="cls-1" x="103.42" y="318.32" width="4.45" height="6.64"/></clipPath><clipPath id="clip-path-19" transform="translate(0 0)"><path class="cls-1" d="M116.56,211.21H107.1V199h10.34C115,202,116.56,211.21,116.56,211.21Z"/></clipPath><clipPath id="clip-path-20" transform="translate(0 0)"><path class="cls-1" d="M120.72,196.66a19.12,19.12,0,0,0-2-6.85,33.08,33.08,0,0,0-1.64-3.12,7.39,7.39,0,0,1-.6-1.06,1.35,1.35,0,0,0-1.11-.77A4.19,4.19,0,0,0,114,185a26.27,26.27,0,0,0-5.68,1.74,11.89,11.89,0,0,0-2,1.12,5.94,5.94,0,0,0-2,2.64,10.21,10.21,0,0,0,0,5.59,3.75,3.75,0,0,0,2.49,3.09c1.07.59,2.14,1.16,3.24,1.7a12,12,0,0,0,2,.81,12.78,12.78,0,0,0,3.8.3,6,6,0,0,0,2.89-.56,3.68,3.68,0,0,0,1.64-2.11A6.61,6.61,0,0,0,120.72,196.66Z"/></clipPath><clipPath id="clip-path-21" transform="translate(0 0)"><path class="cls-1" d="M134.35,217.59l5.94,12.87a4.43,4.43,0,0,1,.18,3.28l-8.73,24.66-2.86-4.21,3.86-19.29a4.39,4.39,0,0,0-.59-3.35L128,225Z"/></clipPath><clipPath id="clip-path-22" transform="translate(0 0)"><path class="cls-1" d="M89.4,223.57l-5.08,12.85a4.49,4.49,0,0,0,.35,4l16.16,20.17,2.87-4.22L93.34,240.31a4.71,4.71,0,0,1,.1-4.38l5-8.66S92.38,229.48,89.4,223.57Z"/></clipPath><clipPath id="clip-path-23" transform="translate(0 0)"><path class="cls-1" d="M103.7,256.37l1.85.32,1.28,1.15a1.12,1.12,0,0,1,.09,1.58l-.38.42.56.9A1,1,0,0,1,107,262l-1.79,2.15a1.07,1.07,0,0,1-1.37.23l-1.94-1.18a1.81,1.81,0,0,1-.82-1.16l-.27-1.39Z"/></clipPath><clipPath id="clip-path-24" transform="translate(0 0)"><path class="cls-1" d="M128.88,254.19l-1.85.32-.93,1.1a1.59,1.59,0,0,0,.18,2.24l-.55.61a1.13,1.13,0,0,0,0,1.48l1.59,1.9a1.17,1.17,0,0,0,1.51.25l1.86-1.13a1.71,1.71,0,0,0,.82-1.17l.27-1.39Z"/></clipPath></defs><title>ayuda_splash_aside_manage_static</title><g class="cls-2"><g class="cls-3"><rect class="cls-4" x="471.65" y="102.1" width="53.97" height="175.19"/><rect class="cls-5" x="525.61" y="102.1" width="32.31" height="175.19"/><rect class="cls-6" x="541.77" y="151.18" width="32.84" height="4.1"/><rect class="cls-6" x="541.77" y="190.71" width="37.55" height="4.1"/><rect class="cls-6" x="541.77" y="240.12" width="29.56" height="4.1"/><rect class="cls-6" x="471.65" y="111.66" width="41.69" height="4.1"/><rect class="cls-6" x="471.65" y="121.53" width="41.69" height="4.1"/><rect class="cls-6" x="471.65" y="131.42" width="41.69" height="4.1"/><rect class="cls-6" x="471.65" y="141.3" width="41.69" height="4.1"/><rect class="cls-6" x="471.65" y="151.18" width="41.69" height="4.1"/><rect class="cls-6" x="471.65" y="161.07" width="41.69" height="4.1"/><rect class="cls-6" x="471.65" y="170.95" width="41.69" height="4.1"/><rect class="cls-6" x="471.65" y="180.83" width="41.69" height="4.1"/><rect class="cls-6" x="471.65" y="190.71" width="41.69" height="4.1"/><rect class="cls-6" x="471.65" y="200.6" width="41.69" height="4.1"/><rect class="cls-6" x="471.65" y="210.48" width="41.69" height="4.1"/><rect class="cls-6" x="471.65" y="220.36" width="41.69" height="4.1"/><rect class="cls-6" x="471.65" y="230.24" width="41.69" height="4.1"/><rect class="cls-6" x="471.65" y="240.12" width="41.69" height="4.1"/><rect class="cls-6" x="471.65" y="250.01" width="41.69" height="4.1"/><rect class="cls-6" x="471.65" y="259.89" width="41.69" height="4.1"/><rect class="cls-6" x="471.65" y="269.78" width="41.69" height="4.1"/><rect class="cls-7" x="471.65" y="141.3" width="13.66" height="4.1"/><rect class="cls-7" x="485.3" y="161.07" width="3.27" height="4.1"/><rect class="cls-7" x="506.66" y="121.53" width="6.67" height="4.1"/><rect class="cls-7" x="490.24" y="131.42" width="3.21" height="4.1"/><rect class="cls-7" x="499.23" y="180.83" width="10.65" height="4.1"/><rect class="cls-7" x="476.9" y="111.69" width="2.95" height="4.07"/><rect class="cls-7" x="482.13" y="131.42" width="3.18" height="4.1"/><rect class="cls-4" x="265.93" y="117.93" width="24.8" height="159.36"/><rect class="cls-4" x="351.52" y="69.79" width="28.82" height="207.5"/><rect class="cls-4" x="306.2" y="69.79" width="45.32" height="207.5"/><rect class="cls-4" x="388.82" y="37.43" width="62.88" height="239.86"/><rect class="cls-8" x="271.04" y="128.76" width="4.27" height="148.53"/><rect class="cls-6" x="271.04" y="138.64" width="4.27" height="4.1"/><rect class="cls-6" x="271.04" y="158.4" width="4.27" height="13.99"/><rect class="cls-6" x="271.04" y="207.82" width="4.27" height="4.1"/><rect class="cls-6" x="306.2" y="79.34" width="45.32" height="4.1"/><rect class="cls-6" x="306.2" y="89.23" width="45.32" height="4.1"/><rect class="cls-6" x="306.2" y="99.11" width="45.32" height="4.1"/><rect class="cls-6" x="306.2" y="108.99" width="45.32" height="4.1"/><rect class="cls-6" x="306.2" y="118.87" width="45.32" height="4.1"/><rect class="cls-6" x="306.2" y="128.76" width="45.32" height="4.1"/><rect class="cls-6" x="306.2" y="138.64" width="45.32" height="4.1"/><rect class="cls-6" x="306.2" y="148.52" width="45.32" height="4.1"/><rect class="cls-6" x="306.2" y="158.4" width="45.32" height="4.1"/><rect class="cls-6" x="306.2" y="168.28" width="45.32" height="4.1"/><rect class="cls-6" x="306.2" y="178.17" width="45.32" height="4.1"/><rect class="cls-6" x="306.2" y="188.05" width="45.32" height="4.1"/><rect class="cls-6" x="306.2" y="197.93" width="45.32" height="4.1"/><rect class="cls-6" x="306.2" y="207.82" width="45.32" height="4.1"/><rect class="cls-6" x="306.2" y="217.7" width="45.32" height="4.1"/><rect class="cls-6" x="306.2" y="227.58" width="45.32" height="4.1"/><rect class="cls-6" x="306.2" y="237.46" width="45.32" height="4.1"/><rect class="cls-8" x="351.52" y="79.34" width="18.68" height="4.1"/><rect class="cls-8" x="351.52" y="89.23" width="18.68" height="4.1"/><rect class="cls-8" x="351.52" y="99.11" width="18.68" height="4.1"/><rect class="cls-8" x="351.52" y="108.99" width="18.68" height="4.1"/><rect class="cls-8" x="351.52" y="118.87" width="18.68" height="4.1"/><rect class="cls-8" x="351.52" y="128.76" width="18.68" height="4.1"/><rect class="cls-8" x="351.52" y="138.64" width="18.68" height="4.1"/><rect class="cls-8" x="351.52" y="148.52" width="18.68" height="4.1"/><rect class="cls-8" x="351.52" y="158.4" width="18.68" height="4.1"/><rect class="cls-8" x="351.52" y="168.28" width="18.68" height="4.1"/><rect class="cls-8" x="351.52" y="178.17" width="18.68" height="4.1"/><rect class="cls-8" x="351.52" y="188.05" width="18.68" height="4.1"/><rect class="cls-8" x="351.52" y="197.93" width="18.68" height="4.1"/><rect class="cls-8" x="351.52" y="207.82" width="18.68" height="4.1"/><rect class="cls-8" x="351.52" y="217.7" width="18.68" height="4.1"/><rect class="cls-8" x="351.52" y="227.58" width="18.68" height="4.1"/><rect class="cls-8" x="351.52" y="237.46" width="18.68" height="4.1"/><rect class="cls-7" x="312.27" y="79.34" width="4.1" height="4.1"/><rect class="cls-7" x="334.86" y="99.11" width="16.66" height="4.1"/><rect class="cls-7" x="321" y="138.64" width="4.1" height="4.1"/><rect class="cls-7" x="333.05" y="148.52" width="13.99" height="4.1"/><rect class="cls-7" x="315.59" y="168.28" width="3.91" height="4.1"/><rect class="cls-7" x="328.86" y="168.28" width="3.78" height="4.1"/><rect class="cls-7" x="315.59" y="178.17" width="3.91" height="4.1"/><rect class="cls-6" x="356.54" y="148.52" width="3.56" height="4.1"/><rect class="cls-6" x="363.37" y="108.99" width="6.83" height="4.1"/><rect class="cls-6" x="356.54" y="89.23" width="3.61" height="4.1"/><rect class="cls-7" x="394.41" y="47.54" width="1.39" height="229.75"/><rect class="cls-7" x="400.7" y="47.54" width="1.39" height="229.75"/><rect class="cls-7" x="406.99" y="47.54" width="1.39" height="229.75"/><rect class="cls-7" x="413.27" y="47.54" width="1.39" height="229.75"/><rect class="cls-6" x="419.56" y="47.54" width="1.39" height="229.75"/><rect class="cls-6" x="425.85" y="47.54" width="1.39" height="132.04"/><rect class="cls-7" x="432.13" y="47.54" width="1.39" height="229.75"/><rect class="cls-6" x="438.42" y="47.54" width="1.39" height="112.4"/><rect class="cls-6" x="444.71" y="47.54" width="1.39" height="108.55"/><rect class="cls-5" x="451.7" y="150.64" width="19.95" height="126.65"/><rect class="cls-9" x="355.96" y="61" width="14.63" height="8.8"/><rect class="cls-5" x="518.3" y="93.3" width="14.63" height="8.8"/><rect class="cls-5" x="501.43" y="93.3" width="16.87" height="8.8"/><rect class="cls-4" x="222.49" y="134.11" width="25.71" height="143.17"/><rect class="cls-4" x="106.74" y="102.1" width="53.97" height="175.19"/><rect class="cls-5" x="160.71" y="102.1" width="32.31" height="175.19"/><rect class="cls-4" x="176.87" y="134.46" width="45.62" height="142.83"/><rect class="cls-6" x="176.87" y="141.3" width="41.69" height="4.1"/><rect class="cls-6" x="176.87" y="151.18" width="32.84" height="4.1"/><rect class="cls-6" x="176.87" y="161.07" width="41.69" height="4.1"/><rect class="cls-6" x="195.64" y="170.95" width="22.91" height="4.1"/><rect class="cls-6" x="176.87" y="180.83" width="41.69" height="4.1"/><rect class="cls-6" x="176.87" y="190.71" width="37.55" height="4.1"/><rect class="cls-6" x="205.47" y="200.6" width="13.09" height="4.1"/><rect class="cls-6" x="182.56" y="210.48" width="36" height="4.1"/><rect class="cls-6" x="199.68" y="220.36" width="18.88" height="4.1"/><rect class="cls-6" x="176.87" y="230.24" width="41.69" height="4.1"/><rect class="cls-6" x="176.87" y="240.12" width="29.56" height="4.1"/><rect class="cls-6" x="176.87" y="250.01" width="41.69" height="4.1"/><rect class="cls-6" x="176.87" y="259.89" width="41.69" height="17.39"/><rect class="cls-8" x="225.87" y="259.89" width="9.46" height="17.39"/><rect class="cls-6" x="106.75" y="111.66" width="41.69" height="4.1"/><rect class="cls-6" x="106.75" y="121.53" width="41.69" height="4.1"/><rect class="cls-6" x="106.75" y="131.42" width="41.69" height="4.1"/><rect class="cls-6" x="106.75" y="141.3" width="41.69" height="4.1"/><rect class="cls-6" x="106.75" y="151.18" width="41.69" height="4.1"/><rect class="cls-6" x="106.75" y="161.07" width="41.69" height="4.1"/><rect class="cls-6" x="106.75" y="170.95" width="41.69" height="4.1"/><rect class="cls-6" x="106.75" y="180.83" width="41.69" height="4.1"/><rect class="cls-6" x="106.75" y="190.71" width="41.69" height="4.1"/><rect class="cls-6" x="106.75" y="200.6" width="41.69" height="4.1"/><rect class="cls-6" x="106.75" y="210.48" width="41.69" height="4.1"/><rect class="cls-6" x="106.75" y="220.36" width="41.69" height="4.1"/><rect class="cls-6" x="106.75" y="230.24" width="41.69" height="4.1"/><rect class="cls-6" x="106.75" y="240.12" width="41.69" height="4.1"/><rect class="cls-6" x="106.75" y="250.01" width="41.69" height="4.1"/><rect class="cls-6" x="106.75" y="259.89" width="41.69" height="4.1"/><rect class="cls-6" x="106.75" y="269.78" width="41.69" height="4.1"/><rect class="cls-7" x="106.75" y="141.3" width="13.66" height="4.1"/><rect class="cls-7" x="120.4" y="161.07" width="3.27" height="4.1"/><rect class="cls-7" x="141.76" y="121.53" width="6.67" height="4.1"/><rect class="cls-7" x="125.34" y="131.42" width="3.21" height="4.1"/><rect class="cls-7" x="134.32" y="180.83" width="10.65" height="4.1"/><rect class="cls-7" x="112" y="111.69" width="2.95" height="4.07"/><rect class="cls-7" x="117.22" y="131.42" width="3.18" height="4.1"/><rect class="cls-5" x="153.39" y="93.3" width="14.63" height="8.8"/><rect class="cls-5" x="136.52" y="93.3" width="16.87" height="8.8"/><rect class="cls-4" x="25.59" y="197.87" width="59.59" height="79.82"/><rect class="cls-4" x="102.72" y="166.12" width="22.39" height="111.17"/><rect class="cls-5" x="85.18" y="198.13" width="17.54" height="79.15"/><rect class="cls-6" x="52.61" y="210.48" width="32.57" height="4.1"/><rect class="cls-6" x="27.83" y="220.36" width="55.09" height="4.5"/><rect class="cls-6" y="230.24" width="50.43" height="4.1"/><rect class="cls-6" x="64.88" y="240.12" width="20.3" height="4.1"/><rect class="cls-6" x="18.21" y="250.01" width="60.4" height="4.1"/><rect class="cls-6" x="32.33" y="259.71" width="52.84" height="17.99"/><rect class="cls-5" x="77.84" y="189.34" width="14.63" height="8.8"/><rect class="cls-4" x="60.96" y="189.34" width="16.87" height="8.8"/></g></g><path class="cls-10" d="M406.78,318h-19V221c0-4.76,19-5.64,19-.89Z" transform="translate(0 0)"/><polygon class="cls-11" points="457.47 221.2 264.03 226.58 264.03 66.69 457.47 3.12 457.47 221.2"/><polygon class="cls-7" points="450.38 213.48 267.92 220.57 267.92 71.32 450.38 13.38 450.38 213.48"/><polygon class="cls-12" points="448.25 211.17 269.23 218.73 269.23 72.72 448.25 16.47 448.25 211.17"/><polygon class="cls-7" points="472.3 223.64 457.48 221.22 457.48 3.12 472.3 7.05 472.3 223.64"/><polygon class="cls-13" points="264.03 226.58 278.85 228.99 472.3 223.64 457.47 221.22 264.03 226.58"/><polygon class="cls-10" points="472.3 7.05 480.01 16.47 480.01 220.56 472.3 223.64 472.3 7.05"/><path class="cls-10" d="M480.07,225.58l-255.59,6a2.69,2.69,0,0,1-.12-5.38h0l255.59-6Z" transform="translate(0 0)"/><path class="cls-11" d="M240,207.12a16.66,16.66,0,0,0-2.32,6,3,3,0,0,0,2.51,3.42,2.92,2.92,0,0,0,.59,0l14.36-.88a2.76,2.76,0,0,0,2.6-2.91l0-.28-.9-5.06a2.86,2.86,0,0,0-3-2.37l-11.57.76A2.87,2.87,0,0,0,240,207.12Z" transform="translate(0 0)"/><path class="cls-10" d="M243.14,230.46a1.49,1.49,0,0,1-1.43-1.13l-1.85-7.77a1.4,1.4,0,0,1,.06-.86l4.55-12a1.47,1.47,0,0,1,2.75,1l-4.39,11.62,1.75,7.33a1.45,1.45,0,0,1-1.06,1.75h0A1,1,0,0,1,243.14,230.46Z" transform="translate(0 0)"/><path class="cls-11" d="M380.32,202a17.8,17.8,0,0,0-2.49,6.43,3.18,3.18,0,0,0,2.61,3.66,3.48,3.48,0,0,0,.72,0l15.41-.94a3,3,0,0,0,2.77-3.21,1.64,1.64,0,0,0,0-.22l-1-5.43a3.07,3.07,0,0,0-3.24-2.53l-12.42.81A3.07,3.07,0,0,0,380.32,202Z" transform="translate(0 0)"/><path class="cls-10" d="M383.67,226.92a1.48,1.48,0,0,1-1.43-1.13l-2-8.34a1.48,1.48,0,0,1,.05-.86l4.89-12.93a1.47,1.47,0,0,1,2.76,1l-4.72,12.49,1.88,7.9a1.46,1.46,0,0,1-1.08,1.76h0A1.35,1.35,0,0,1,383.67,226.92Z" transform="translate(0 0)"/><path class="cls-7" d="M400.32,14.66,390.89,2.13a2.29,2.29,0,0,0-3.21-.44,2.32,2.32,0,0,0-.68.84L377,23.77a1,1,0,0,0,1.25,1.36l2.63-1v45a5.5,5.5,0,0,0,5.5,5.5,5.44,5.44,0,0,0,1.92-.35l.12,0a12.75,12.75,0,0,0,8.29-11.93V18.24l2.84-1.06a1.64,1.64,0,0,0,1-2.09A1.61,1.61,0,0,0,400.32,14.66Z" transform="translate(0 0)"/><g class="cls-14"><path class="cls-4" d="M400,18.31a2.85,2.85,0,0,0,1.3-4.4l-1.93,1.45a.44.44,0,0,1-.07.62l-.13.07Zm-2.83,1.06L400,18.31l-.84-2.26-2.84,1.07Zm.78,43V18.24h-2.41V62.33Zm-9.07,13.06A13.94,13.94,0,0,0,398,62.37h-2.41A11.55,11.55,0,0,1,388,73.18Zm-.1,0,.11-.05L388,73.14l-.12,0Zm-9.07-6.27a6.71,6.71,0,0,0,9.05,6.28l-.84-2.26a4.29,4.29,0,0,1-5.53-2.53,4.12,4.12,0,0,1-.27-1.47Zm0-45v45h2.41v-45Zm-1,2.11,2.63-1L380.5,23l-2.63,1Zm-2.76-3a2.2,2.2,0,0,0,2.76,3L377.87,24a.29.29,0,0,1,.13,0,.15.15,0,0,1,.09.06.19.19,0,0,1,.05.1.24.24,0,0,1,0,.12ZM386,2,376,23.27l2.18,1L388.13,3Zm5.94-.61A3.48,3.48,0,0,0,387,.7,3.41,3.41,0,0,0,386,2l2.18,1a1.09,1.09,0,0,1,1.44-.52,1.16,1.16,0,0,1,.4.33Zm9.43,12.52L391.89,1.4,390,2.84l9.43,12.53Zm-1.7,3.27-.42-1.13h0Zm-2.84,1.06-.42-1.12-.79.29v.83Zm-8.29,56-.42-1.12h0Zm-.12,0,.42,1.13h0ZM381,24.14h1.2V22.42l-1.62.6Zm-2.63,1L377.9,24h0ZM377,23.77l1.09.51h0ZM387,2.51,385.91,2h0Zm3.89-.4-1,.72h0Zm9.43,12.55,1-.73h0Z" transform="translate(0 0)"/></g><path class="cls-7" d="M432.07,54.86a5.18,5.18,0,0,0-.16-1.47,1.87,1.87,0,0,0-.45-.83,1.09,1.09,0,0,0-.68-.3,2.52,2.52,0,0,0-.86.12,3.24,3.24,0,0,0-.84.4,2.35,2.35,0,0,0-.66.71,4.31,4.31,0,0,0-.42,1.1,6.91,6.91,0,0,0-.15,1.57,5.51,5.51,0,0,0,.15,1.4,2,2,0,0,0,.42.8,1,1,0,0,0,.66.29,2.4,2.4,0,0,0,.84-.11,3,3,0,0,0,.86-.41,2.39,2.39,0,0,0,.68-.7,3.48,3.48,0,0,0,.45-1.07A5.84,5.84,0,0,0,432.07,54.86Zm4.58-1.4a7.44,7.44,0,0,1-.56,2.83,10.36,10.36,0,0,1-1.48,2.53,10.68,10.68,0,0,1-2.14,2,9.6,9.6,0,0,1-2.55,1.25,7.36,7.36,0,0,1-2.68.35,4.51,4.51,0,0,1-2.11-.69,3.91,3.91,0,0,1-1.39-1.65,5.72,5.72,0,0,1-.5-2.51,8.09,8.09,0,0,1,.5-2.88,9.46,9.46,0,0,1,1.39-2.53,9.77,9.77,0,0,1,2.11-2,9.51,9.51,0,0,1,2.68-1.3,7.07,7.07,0,0,1,2.7-.34,4.38,4.38,0,0,1,2.13.7,4,4,0,0,1,1.39,1.67A6,6,0,0,1,436.65,53.46ZM416,45.94a5.77,5.77,0,0,0-.16-1.49,1.87,1.87,0,0,0-.45-.83,1.09,1.09,0,0,0-.68-.3,2.52,2.52,0,0,0-.86.12,3,3,0,0,0-.85.41,2.2,2.2,0,0,0-.65.71,3.58,3.58,0,0,0-.42,1.1,7,7,0,0,0-.15,1.58,5.51,5.51,0,0,0,.15,1.4,1.77,1.77,0,0,0,.42.8,1.08,1.08,0,0,0,.65.29,2,2,0,0,0,.85-.12,3.54,3.54,0,0,0,.86-.4,2.52,2.52,0,0,0,.68-.7,3.48,3.48,0,0,0,.45-1.07A5.84,5.84,0,0,0,416,45.94Zm13.38-9.67a5.82,5.82,0,0,1,.71-.78,3.07,3.07,0,0,1,1.17-.62l4.34-1.33L414.48,65.66a3.92,3.92,0,0,1-.72.8,3,3,0,0,1-1.05.54l-4.46,1.37Zm-8.81,8.27a7.38,7.38,0,0,1-.55,2.82,10.12,10.12,0,0,1-1.48,2.52,10.68,10.68,0,0,1-2.14,2,9,9,0,0,1-2.55,1.25,7,7,0,0,1-2.68.35,4.33,4.33,0,0,1-2.12-.69,4.07,4.07,0,0,1-1.39-1.63,5.82,5.82,0,0,1-.5-2.5,8.61,8.61,0,0,1,.5-2.89,9.26,9.26,0,0,1,1.39-2.52,9.82,9.82,0,0,1,2.12-2,9.51,9.51,0,0,1,2.68-1.3,7.28,7.28,0,0,1,2.7-.34,4.38,4.38,0,0,1,2.13.7A4,4,0,0,1,420,42a6,6,0,0,1,.54,2.58Z" transform="translate(0 0)"/><g class="cls-15"><path class="cls-4" d="M433.08,56.66a7.26,7.26,0,0,0,.2-1.8h-2.41a4.92,4.92,0,0,1-.12,1.21Zm-.61,1.44a4.7,4.7,0,0,0,.61-1.44l-2.33-.59a2.53,2.53,0,0,1-.29.7Zm-1,1a4,4,0,0,0,1-1l-2-1.33a1.33,1.33,0,0,1-.35.36Zm-1.18.56a4.57,4.57,0,0,0,1.18-.56l-1.34-2a1.72,1.72,0,0,1-.53.25Zm-1.29.16a3.75,3.75,0,0,0,1.29-.16l-.69-2.31a1.14,1.14,0,0,1-.41.07Zm-1.39-.63a2.12,2.12,0,0,0,1.42.63l.14-2.4a.06.06,0,0,1,.06,0h0Zm-.74-1.32a3,3,0,0,0,.72,1.31l1.71-1.7-.12-.28Zm-.2-1.74a6.37,6.37,0,0,0,.2,1.74l2.31-.67a4.27,4.27,0,0,1-.1-1.07Zm.18-1.84a8.09,8.09,0,0,0-.18,1.84h2.41a6.19,6.19,0,0,1,.11-1.29Zm.57-1.45a4.77,4.77,0,0,0-.57,1.45l2.34.55a3,3,0,0,1,.28-.75Zm1-1.08a3.47,3.47,0,0,0-1,1.09l2.07,1.23a1.08,1.08,0,0,1,.3-.34Zm1.19-.56a4,4,0,0,0-1.18.56l1.35,2a2.08,2.08,0,0,1,.52-.25Zm1.27-.17a3.64,3.64,0,0,0-1.27.17l.69,2.3a1.62,1.62,0,0,1,.44-.07Zm1.44.63a2.23,2.23,0,0,0-1.44-.63l-.14,2.4h0ZM433.1,53a3,3,0,0,0-.78-1.37l-1.66,1.74h0a1.86,1.86,0,0,1,.1.25Zm.21,1.8a6.82,6.82,0,0,0-.21-1.8l-2.31.67a4.76,4.76,0,0,1,.11,1.13Zm1.78-3.46a4.85,4.85,0,0,1,.39,2.06h2.4a7,7,0,0,0-.62-3.1Zm-1-1.19a2.73,2.73,0,0,1,1,1.18l2.18-1a5.2,5.2,0,0,0-1.81-2.16Zm-1.56-.5a3.1,3.1,0,0,1,1.56.5l1.34-2a5.57,5.57,0,0,0-2.7-.9Zm-2.24.29a5.86,5.86,0,0,1,2.24-.29l.2-2.4a8.41,8.41,0,0,0-3.15.39Zm-2.35,1.14A8.25,8.25,0,0,1,430.29,50l-.71-2.3a10.59,10.59,0,0,0-3,1.47Zm-1.85,1.75a8.78,8.78,0,0,1,1.85-1.75l-1.38-2a10.73,10.73,0,0,0-2.37,2.24Zm-1.21,2.2a8.15,8.15,0,0,1,1.21-2.2l-1.9-1.48a10.36,10.36,0,0,0-1.57,2.86Zm-.43,2.47a7,7,0,0,1,.43-2.47l-2.26-.82a9.24,9.24,0,0,0-.58,3.29Zm.39,2a4.58,4.58,0,0,1-.39-2H422a6.9,6.9,0,0,0,.62,3Zm1,1.15a2.65,2.65,0,0,1-1-1.15l-2.18,1a5.15,5.15,0,0,0,1.82,2.13Zm1.55.5a3.16,3.16,0,0,1-1.55-.5l-1.33,2a5.62,5.62,0,0,0,2.69.89Zm2.23-.3a6,6,0,0,1-2.22.3l-.21,2.4a8.57,8.57,0,0,0,3.14-.4Zm2.22-1.09a8.34,8.34,0,0,1-2.22,1.09l.71,2.3a10.56,10.56,0,0,0,2.88-1.41ZM433.73,58a9.3,9.3,0,0,1-1.89,1.76l1.37,2a11.77,11.77,0,0,0,2.39-2.23Zm1.3-2.22A9,9,0,0,1,433.72,58l1.88,1.51a11.19,11.19,0,0,0,1.66-2.83Zm.47-2.38a6.27,6.27,0,0,1-.47,2.38l2.23.9a8.79,8.79,0,0,0,.64-3.28ZM417,47.74a7.26,7.26,0,0,0,.2-1.8h-2.4a4.42,4.42,0,0,1-.13,1.2Zm-.61,1.43a4.65,4.65,0,0,0,.61-1.43l-2.33-.6a2,2,0,0,1-.29.7Zm-1,1a3.4,3.4,0,0,0,1-1l-2-1.33a1.2,1.2,0,0,1-.34.37Zm-1.17.56a4.51,4.51,0,0,0,1.17-.56l-1.33-2a1.89,1.89,0,0,1-.54.25Zm-1.29.16a3.75,3.75,0,0,0,1.29-.16l-.7-2.31a1.41,1.41,0,0,1-.41.07Zm-1.4-.63a2.18,2.18,0,0,0,1.42.63l.14-2.4h.12Zm-.74-1.33a3,3,0,0,0,.73,1.32l1.7-1.7a1.39,1.39,0,0,1-.12-.28Zm-.2-1.73a6.37,6.37,0,0,0,.2,1.74l2.31-.68a4.19,4.19,0,0,1-.1-1.06Zm.19-1.86a8.27,8.27,0,0,0-.19,1.86H413a5.76,5.76,0,0,1,.12-1.31Zm.56-1.45a5,5,0,0,0-.56,1.45l2.34.55a2.52,2.52,0,0,1,.28-.75Zm1-1.07a3.33,3.33,0,0,0-1,1.08l2.08,1.23a.86.86,0,0,1,.3-.33Zm1.18-.57a4.21,4.21,0,0,0-1.17.56l1.35,2a2.08,2.08,0,0,1,.52-.25Zm1.27-.17a3.64,3.64,0,0,0-1.27.17l.7,2.3a1.31,1.31,0,0,1,.44-.07Zm1.44.63a2.23,2.23,0,0,0-1.44-.63l-.13,2.4h-.05Zm.78,1.37a3,3,0,0,0-.78-1.37l-1.65,1.75h0a1.06,1.06,0,0,1,.09.25Zm.21,1.82a6.21,6.21,0,0,0-.21-1.82l-2.31.66a4.53,4.53,0,0,1,.12,1.16ZM409.31,69,430.4,36.9l-2-1.33L407.24,67.66Zm3.09-3.18L408,67.17l.7,2.3,4.46-1.36Zm.64-.32a1.75,1.75,0,0,1-.64.32l.71,2.3a4,4,0,0,0,1.46-.77Zm.48-.53a2.43,2.43,0,0,1-.48.53l1.53,1.85a5,5,0,0,0,1-1Zm21.1-32.12L413.52,65l2,1.32,21.1-32.11Zm-3,3.15L436,34.65l-.7-2.31-4.35,1.33Zm-.71.36a1.77,1.77,0,0,1,.71-.36l-.7-2.31a4.1,4.1,0,0,0-1.64.89Zm-.55.6a5.32,5.32,0,0,1,.55-.61l-1.67-1.67a6.93,6.93,0,0,0-.87,1ZM419,42.48a4.85,4.85,0,0,1,.39,2.06h2.41a7.3,7.3,0,0,0-.62-3.09Zm-1-1.19a2.73,2.73,0,0,1,1,1.18l2.18-1a5.2,5.2,0,0,0-1.81-2.16Zm-1.56-.5a3.23,3.23,0,0,1,1.56.5l1.34-2a5.57,5.57,0,0,0-2.7-.9Zm-2.25.29a6.15,6.15,0,0,1,2.25-.29l.2-2.4a8.41,8.41,0,0,0-3.15.39Zm-2.34,1.14a8.91,8.91,0,0,1,2.34-1.14l-.7-2.3a10.87,10.87,0,0,0-3,1.47ZM410,44a8.62,8.62,0,0,1,1.86-1.76l-1.38-2a10.73,10.73,0,0,0-2.37,2.24Zm-1.21,2.19A8.43,8.43,0,0,1,410,44l-1.9-1.47a10.3,10.3,0,0,0-1.57,2.85Zm-.42,2.48a7.51,7.51,0,0,1,.42-2.48l-2.26-.82a9.79,9.79,0,0,0-.57,3.3Zm.38,2a4.72,4.72,0,0,1-.38-2H406a6.9,6.9,0,0,0,.62,3Zm1,1.14a2.69,2.69,0,0,1-1-1.14l-2.17,1a5.17,5.17,0,0,0,1.81,2.12Zm1.55.5a3.22,3.22,0,0,1-1.54-.49l-1.33,2a5.59,5.59,0,0,0,2.69.89Zm2.24-.3a6,6,0,0,1-2.23.3L411,54.66a8.51,8.51,0,0,0,3.13-.4Zm2.21-1.09A7.77,7.77,0,0,1,413.53,52l.71,2.3a10.28,10.28,0,0,0,2.88-1.41Zm1.89-1.75a9,9,0,0,1-1.89,1.75l1.37,2a11,11,0,0,0,2.39-2.23Zm1.3-2.22a8.68,8.68,0,0,1-1.3,2.22l1.87,1.5a11.07,11.07,0,0,0,1.66-2.81Zm.47-2.37a6.22,6.22,0,0,1-.47,2.37l2.23.91a8.57,8.57,0,0,0,.65-3.28ZM432,56.38l1.17.3h0Zm-2.9,2.28.09-1.2h0Zm-.66-.29-.85.85h0Zm-.42-.8,1.16-.33h0Zm.42-4.07,1,.63h0Zm.66-.71-.68-1h0Zm1.7-.52.07-1.2h0Zm5.36-1.38-1.09.51h0Zm-1.39-1.67.67-1h0Zm-2.13-.7-.1,1.2h0Zm-2.7.34-.35-1.15h0Zm-2.68,1.3-.68-1h0Zm-2.11,2-.95-.74h0Zm0,9.57.66-1h0Zm2.11.69.11-1.2h0Zm2.68-.35.36,1.15h0Zm4.69-3.24.94.75h0ZM413,49.73l.09-1.2h0Zm-.65-.29-.85.85h0Zm-.42-.8,1.16-.33h0Zm.42-4.08,1,.62h0Zm.65-.71-.67-1h0Zm1.71-.53.06-1.2h0Zm1.13,1.13,1.15-.33h0Zm-7.56,23.91-1-.66-1.83,2.79,3.19-1ZM412.74,67l.35,1.16h0Zm1.77-1.34,1,.67h0ZM435.6,33.54l1,.66,1.83-2.79-3.19,1Zm-4.34,1.33.35,1.15h0Zm-1.17.62-.82-.89h0Zm-.71.78-1-.7h0ZM420,42l-1.09.51h0Zm-1.39-1.67.67-1h0Zm-2.13-.7-.1,1.2h0Zm-5.38,1.64-.69-1h0Zm-2.12,2-.94-.75h0Zm-1.39,7.91-1.08.51h0ZM409,52.77l.67-1h0Zm2.12.69.1-1.2h0Zm2.68-.35.35,1.15h0Z" transform="translate(0 0)"/></g><g class="cls-3"><path class="cls-16" d="M263.82,103.66l16.87,65.57-5.61,3.86a10.08,10.08,0,0,1-14-2.59,10.51,10.51,0,0,1-.76-1.3l-1.16-2.4-5-61.43Z" transform="translate(0 0)"/><path class="cls-16" d="M267.26,154.88c2.13-5.47,6.92-14.62,13.66-27.21,20.85-38.94,26.52-26.79,26.52-26.79,17.09,8.31,5.45,23-1.84,35.77C295.69,154,271.72,189.17,260,167.53,258.37,164.42,266.33,157.26,267.26,154.88Z" transform="translate(0 0)"/><path class="cls-16" d="M372.7,101.82C372.65,96.7,366.08,91,338,94.88s-39.67,3.32-39.33,8.44L308.23,212c.29,4.3,3.32,3.34,7.09,3.2l26.21-1h.84l26.22-1c3.76-.14,6.78-3.73,6.74-8l-2.94-9.77Z" transform="translate(0 0)"/><path class="cls-16" d="M380.19,176.31c-3.28-4.72-12.87-32-19.71-44.21-17-30.23-2.34-34.85-2.34-34.85,16.5-5.57,16.77,6.92,23.16,19.82,8.69,17.52,15.32,41.41,21.54,59.74C404,180.08,381.62,178.35,380.19,176.31Z" transform="translate(0 0)"/><path class="cls-7" d="M323.55,81.66l10.73-8.38,13.14-1.68s-7.09,20.09-.46,25.5c5.77,4.7-4.85,9.92-11.24,8.6s-14.23-.8-9.54-9C328,93.48,323.55,81.66,323.55,81.66Z" transform="translate(0 0)"/><g class="cls-17"><path class="cls-4" d="M325.14,96.07A2.63,2.63,0,0,0,325.4,95a10.16,10.16,0,0,0,0-1.91,32,32,0,0,0-1-4.84c-.43-1.65-.92-3.21-1.31-4.35-.19-.58-.36-1.05-.47-1.37l-.14-.37v-.1h0l1.13-.42,1.13-.43h0v.11l.14.39c.12.34.29.82.49,1.41.4,1.18.91,2.79,1.36,4.5a35.61,35.61,0,0,1,1,5.22,13.28,13.28,0,0,1,.06,2.36,5,5,0,0,1-.57,2.06Zm10.33,10.76c-1.57-.33-3.17-.52-4.8-.8a16.52,16.52,0,0,1-4.41-1.22,4.41,4.41,0,0,1-2.66-3.29c-.23-1.53.32-3.33,1.54-5.45l2.09,1.2c-1.14,2-1.36,3.17-1.25,3.88s.46,1.07,1.34,1.5a14.34,14.34,0,0,0,3.75,1c1.49.25,3.27.48,4.89.81Zm12.25-10.71c1.68,1.36,2.42,3,2,4.73a6.75,6.75,0,0,1-3.16,3.78,16.4,16.4,0,0,1-11.07,2.2l.49-2.36a14,14,0,0,0,9.3-1.88,4.47,4.47,0,0,0,2.11-2.32c.14-.54,0-1.31-1.17-2.29Zm-.3-24.57,1.13.4h0v.16c-.05.14-.12.36-.21.63-.18.55-.42,1.34-.7,2.31A66.06,66.06,0,0,0,346,82.42a32.12,32.12,0,0,0-.46,8.19c.26,2.53,1,4.4,2.29,5.46l-1.52,1.86c-2-1.65-2.88-4.31-3.16-7.07a34,34,0,0,1,.47-8.84,76.56,76.56,0,0,1,1.74-7.63c.29-1,.54-1.82.73-2.39.09-.28.17-.51.22-.66a.64.64,0,0,1,.06-.18h0ZM334.13,72l13.13-1.68.31,2.39-13.14,1.68Zm-11.32,8.63,10.73-8.38,1.48,1.9-10.73,8.38Zm3.37,16-1-.6h0Zm9.54,9,.24-1.18h0ZM347,97.06l-.76.93h0Zm.46-25.5-.16-1.2,1.94-.24L348.55,72Zm-13.14,1.68-.74-.95.26-.2h.33Zm-10.73,8.42-1.13.42-.31-.83.7-.54Z" transform="translate(0 0)"/></g><path class="cls-7" d="M318,41.52a24.44,24.44,0,0,1,11-1.06c5.51.63,11.68,1.18,16.65,3.74,7.24,3.73,2.24,20.79,2.31,28.24a22.77,22.77,0,0,1-.35,5.65c-.58,2.44-7.86,12.59-15.28,14.63-12.53,1.67-17.49.89-17.81-3.28-.35-4.6-1.88-34.65-1.85-38C313.54,45.59,311.08,43.81,318,41.52Z" transform="translate(0 0)"/><g class="cls-18"><path class="cls-4" d="M311.42,51.24a21.73,21.73,0,0,0,.25-3.51,12.58,12.58,0,0,1,.21-2.87,4.5,4.5,0,0,1,1.74-2.6,13.45,13.45,0,0,1,4-1.88l.76,2.28a10.83,10.83,0,0,0-3.25,1.51,2.11,2.11,0,0,0-.87,1.26,11.27,11.27,0,0,0-.15,2.32,25,25,0,0,1-.27,3.87Zm1.84,38.29c-.35-4.6-1.89-34.69-1.86-38.11h2.41c0,3.3,1.5,33.3,1.85,37.9Zm19.17,4.38c-6.26.84-10.81,1.09-13.86.54a7.47,7.47,0,0,1-3.76-1.61,4.75,4.75,0,0,1-1.55-3.31l2.4-.18a2.34,2.34,0,0,0,.76,1.7,5.17,5.17,0,0,0,2.58,1c2.64.47,6.84.27,13.11-.56Zm16.29-15.55A12.6,12.6,0,0,1,347,81.78a37.91,37.91,0,0,1-3.59,4.58c-2.87,3.15-6.73,6.41-10.78,7.52L332,91.56c3.38-.93,6.86-3.77,9.64-6.82A35.73,35.73,0,0,0,345,80.45a11,11,0,0,0,1.42-2.64Zm-.82-5.92,1.2-.08h0a.21.21,0,0,1,0,.11v1.85a20.73,20.73,0,0,1-.42,4l-2.34-.55a18.51,18.51,0,0,0,.36-3.48v-1.8h0Zm-1.76-29.31a8.27,8.27,0,0,1,4,5.72,28.21,28.21,0,0,1,.47,8.15c-.17,2.88-.56,5.87-.91,8.56a58.64,58.64,0,0,0-.62,6.87h-2.4a57.81,57.81,0,0,1,.63-7.2c.35-2.72.74-5.62.9-8.4a25.38,25.38,0,0,0-.41-7.43A5.87,5.87,0,0,0,345,45.24Zm-17.07-3.87c5.43.62,11.86,1.19,17.07,3.87L345,45.27c-4.74-2.43-10.65-3-16.24-3.61Zm-11.49,1.12a25.44,25.44,0,0,1,11.49-1.12l-.27,2.4a22.91,22.91,0,0,0-10.46,1Zm-5,11H311.4V51.2Zm1.85,38,1.2-.09h0Zm17.81,3.28.32,1.16h-.16ZM347.52,78l1.17.27h0Zm.35-5.65-1.2.09V72.4Zm-2.31-28.24.55-1.07h0ZM328.91,40.4l-.14,1.2h0Zm-11,1.06-.38-1.14h0Z" transform="translate(0 0)"/></g><path class="cls-16" d="M441.41,165.35l-61.22,11,5.48,11.93c4.56,10.2,10.82,7.43,17.21,4.47L443.47,176Z" transform="translate(0 0)"/><path class="cls-10" d="M363.51,51.39a17.45,17.45,0,0,0,.23-6.32c-.7-4.6-2.08-9.52-6.13-12.29-1.71-1.16-5-3.76-7.15-2.89.24-.09-2.2-3.55-2.41-3.77a9.28,9.28,0,0,0-4-2.4c-3.18-.94-6.72-.29-9.92.15-4.92.69-10.4,1.56-14.75,4.1-4.13,2.43-5.06,5.81-6.39,10.08-1,3.18-3.76,4.53-6.61,5.69a3,3,0,0,0,1.54,2.44c1.21.8,1.84.47.56,1.64a8.11,8.11,0,0,1-7.13,1.28c.18,1.7,1.83,3.51,3.11,4.58s2.69,2.16,4.11,3.14c3.39,2.25,11.47,3.31,17.9,1.73,2.13-.53,4.2-1.23,6.3-1.85a22.16,22.16,0,0,0,7.12-3.14c1.27-.94,2-2.37,3.24-3.39a50.16,50.16,0,0,0,.54,14c.43,2.22.82,5,1.55,7.51a90,90,0,0,1,12.14-7.48C360,60.27,362.53,56,363.51,51.39Z" transform="translate(0 0)"/><path class="cls-7" d="M307.91,46.18c1.21.79,1.84.47.56,1.64a6.8,6.8,0,0,1-3.35,1.46,8,8,0,0,0,5.42-1.6c1.27-1.17.64-.85-.56-1.64a3,3,0,0,1-1.55-2.44c2.86-1.16,5.62-2.51,6.61-5.7,1.34-4.27,2.26-7.65,6.4-10.07,4.34-2.55,9.82-3.42,14.74-4.1,1.2-.17,2.45-.36,3.71-.49a50.79,50.79,0,0,0-5.78.62c-4.92.69-10.39,1.56-14.74,4.11-4.13,2.42-5.06,5.8-6.4,10.07-1,3.18-3.75,4.53-6.61,5.69A3,3,0,0,0,307.91,46.18Z" transform="translate(0 0)"/><path class="cls-7" d="M343.6,96.58a45,45,0,0,0,.67-5.43h.16A32.09,32.09,0,0,1,343.6,96.58Z" transform="translate(0 0)"/><path class="cls-19" d="M332.32,103.38a4.2,4.2,0,0,1,2.88-.21c2.53,1.22,4.86,5.38,5.2,5.83l-5.4,4.89s-3.7,53-1.27,60.83l-7.24,12.63L319.71,176c-5.1-25,11.64-61.42,11.64-61.84s-2.57-5.67-2.57-5.67Z" transform="translate(0 0)"/><path class="cls-7" d="M254,93.58c1.84,1.6,4.54,3.52,4.56-.57,0-1-1.12-3.06-.59-3.92.91-1.51,2.43.82,3.08,1.67,4.58,6,7.45,15.52,1.15,21.28-4.75,4.34-11.79,1.68-16-1.86s-6.71-8.32-5.56-13.71a27.52,27.52,0,0,0,.9-4,36.3,36.3,0,0,1,.13-3.9c.14-.77,1-3.53,1.79-3.7,1-.22,2.74,1.6,3.39,2.16,2.26,2,4.45,4.1,6.69,6.11Z" transform="translate(0 0)"/><g class="cls-20"><path class="cls-4" d="M254.28,92.22l.26.23.25.22-1.56,1.83-.28-.25-.24-.21Zm-6.68-6.1c2.25,1.95,4.53,4.17,6.7,6.12L252.69,94c-2.31-2.08-4.4-4.12-6.67-6.1Zm-4.44-2.46a2.65,2.65,0,0,1,1.64.26,6.46,6.46,0,0,1,1.2.74c.66.51,1.39,1.23,1.61,1.42L246,87.93c-.43-.37-.89-.85-1.51-1.33a3.9,3.9,0,0,0-.74-.48c-.23-.11-.23-.06-.1-.08Zm-2.71,4.67a12.68,12.68,0,0,1,.71-2.32,8.65,8.65,0,0,1,.65-1.29,3.79,3.79,0,0,1,.48-.58,1.92,1.92,0,0,1,.87-.48l.51,2.36a.9.9,0,0,0,.21-.08h0l-.08.11a5.86,5.86,0,0,0-.43.87,13,13,0,0,0-.58,1.83Zm-.15,4V90.47a11.26,11.26,0,0,1,.14-2.17l2.37.42a9,9,0,0,0-.11,1.72v2Zm-.88,3.84c.17-.76.39-1.49.55-2.09a8.71,8.71,0,0,0,.33-1.75l2.4.16a11.14,11.14,0,0,1-.41,2.22c-.19.7-.37,1.29-.51,2Zm6,14.89c-4.4-3.66-7.24-8.93-6-14.89l2.36.5c-1,4.82,1.19,9.25,5.15,12.54ZM263,112.93a10.32,10.32,0,0,1-9.25,2.32,19.78,19.78,0,0,1-8.38-4.14l1.54-1.85a17.21,17.21,0,0,0,7.3,3.63,7.9,7.9,0,0,0,7.17-1.74ZM262,90a24.84,24.84,0,0,1,4.89,11.31A12.8,12.8,0,0,1,263,112.93l-1.62-1.78a10.39,10.39,0,0,0,3.12-9.49,22.2,22.2,0,0,0-4.42-10.17Zm-5-1.58a2,2,0,0,1,1.89-1.07,2.81,2.81,0,0,1,1.57.74,13.94,13.94,0,0,1,1.61,1.9l-1.92,1.46A11.06,11.06,0,0,0,258.88,90c-.24-.21-.28-.16-.16-.16a.46.46,0,0,0,.3-.07c.08,0,.08-.08,0,0Zm.42,4.55a2.85,2.85,0,0,0-.12-.58l-.15-.51-.18-.58a9.68,9.68,0,0,1-.27-1.3,2.55,2.55,0,0,1,.3-1.58l2.06,1.25c.07-.11,0-.14,0,.1a4.27,4.27,0,0,0,.19.86c.05.18.1.36.16.55l.17.56a5.19,5.19,0,0,1,.21,1.24Zm-2.62-.35a15.49,15.49,0,0,0,1.36,1.06,3.16,3.16,0,0,0,1,.51h0a2.67,2.67,0,0,0,.21-1.31h2.41a4.57,4.57,0,0,1-.72,2.76,2.26,2.26,0,0,1-2.31.83,5.64,5.64,0,0,1-1.92-.86,17.86,17.86,0,0,1-1.61-1.26Zm-1.3.45-.79.91h0ZM246.81,87l.79-.9h0Zm-3.39-2.16-.26-1.18h0Zm-1.79,3.7-1.18-.21h0Zm-.13,3.9,1.2.08h0Zm-.9,4,1.18.25h0Zm5.56,13.71-.77.93h0Zm16,1.86-.81-.89h0ZM261,90.73l1-.73h0Zm-3-1.64-1-.63h0Zm.59,3.92Zm-4.56.57.78-.91h0Z" transform="translate(0 0)"/></g><path class="cls-10" d="M262.55,84.38a26.74,26.74,0,0,1,.29,5.86,45.94,45.94,0,0,1-.55,5.1,28.89,28.89,0,0,1-1.52,5.06c-.76,1.94-1.37,3.41-1.84,4.38s-1.26,2.52-2.34,4.6-1.81,3.52-2.16,4.27a13,13,0,0,1-7.18,1.86,19.37,19.37,0,0,1-8.54-1.83,9,9,0,0,1-5.11-5.07c1.44-.84,2.62-1.54,3.53-2.13a22.41,22.41,0,0,0,2.83-2.21,9.5,9.5,0,0,0,2.12-2.56,6.9,6.9,0,0,0,.74-2.92,7.89,7.89,0,0,0-.7-3.52,7,7,0,0,0,2.73-4.43,8.3,8.3,0,0,0-.84-5.36,9,9,0,0,0-4.09-4,74.3,74.3,0,0,1,9.78.56C252,82.34,256.09,82.92,262.55,84.38Z" transform="translate(0 0)"/><path class="cls-21" d="M241.07,61l.93-6.34a59.8,59.8,0,0,1-12.93-5.39,54.65,54.65,0,0,0,18.87,6.59l24.61,3.54a8,8,0,0,1,6.94,8.93l0,.24L278,78.38a8.09,8.09,0,0,1-3.19,5.54,8,8,0,0,1-6.1,1.69l-6.24-.9v-.16c-6.45-1.45-10.54-2.13-12.83-2.43a72.65,72.65,0,0,0-9.78-.6h.23a11.12,11.12,0,0,0-2-.07l.95-6.62Z" transform="translate(0 0)"/><path class="cls-16" d="M196.35,86.46l7.05-48.8,1.16-8a128.43,128.43,0,0,0,15.85,14.27.58.58,0,0,1,.21.1c.44.33.93.65,1.38,1,.28.22.61.42.92.62s.71.49,1.07.71.77.51,1.16.74.76.49,1.14.72c.83.5,2,1,2.77,1.47A60,60,0,0,0,242,54.66L241.09,61l-2,14-1,6.37s-32.68,3.91-43,13.2Z" transform="translate(0 0)"/><path class="cls-7" d="M455.08,158.86c-2.35.65-5.61,1.22-3.86-2.48.42-.89,2.33-2.28,2.23-3.29-.17-1.75-2.55-.3-3.5.19-6.74,3.47-13.44,10.78-10.25,18.7,2.4,6,9.91,6.58,15.28,5.23s9.66-4.62,10.95-10a29,29,0,0,1,.92-4,33.39,33.39,0,0,0,1.58-3.57c.21-.76.65-3.6,0-4.11-.82-.63-3.16.26-4,.49-2.9.81-5.79,1.78-8.68,2.63Z" transform="translate(0 0)"/><g class="cls-22"><path class="cls-4" d="M456.06,159.84l-.66.18-.64-2.32.67-.19Zm8.69-2.64c-2.91.81-5.68,1.75-8.66,2.63l-.68-2.31c2.8-.82,5.82-1.84,8.7-2.64Zm2.94-.7c.1.09.13,0-.13,0a4.24,4.24,0,0,0-.87.12c-.77.17-1.39.4-1.94.55l-.65-2.32c.29-.07,1.25-.4,2.07-.58a6.62,6.62,0,0,1,1.4-.17,2.57,2.57,0,0,1,1.59.47Zm-.42,2.84a11,11,0,0,0,.28-1.9,5.57,5.57,0,0,0,0-1v-.13h0a1.29,1.29,0,0,0,.16.17l1.47-1.91a1.92,1.92,0,0,1,.58.8,3.2,3.2,0,0,1,.18.74,6.93,6.93,0,0,1,0,1.44,13.91,13.91,0,0,1-.36,2.4Zm-1.53,3.44c.27-.67.61-1.31.87-1.85a9.29,9.29,0,0,0,.66-1.6l2.32.65a11.21,11.21,0,0,1-.82,2c-.31.62-.58,1.12-.8,1.68Zm-1,4.18c.16-.68.25-1.28.38-2a10.2,10.2,0,0,1,.6-2.18l2.23.9a9.29,9.29,0,0,0-.46,1.72c-.11.61-.23,1.37-.41,2.12ZM454.66,176c5-1.26,8.92-4.3,10.08-9.09l2.34.57c-1.43,5.92-6.27,9.45-11.83,10.86Zm-13.87-4.51a7.87,7.87,0,0,0,5.72,4.64,17.15,17.15,0,0,0,8.15-.13l.59,2.34a19.67,19.67,0,0,1-9.34.12,10.28,10.28,0,0,1-7.35-6.07Zm9.69-17.18a22.38,22.38,0,0,0-8.39,7.27,10.38,10.38,0,0,0-1.3,9.91l-2.23.9c-1.78-4.41-.77-8.63,1.51-12.13a24.8,24.8,0,0,1,9.31-8.09Zm1.76-1.14h0a.5.5,0,0,0,.24.19c.11,0,.09,0-.22.07a11.05,11.05,0,0,0-1.81.85l-1.1-2.14a11.78,11.78,0,0,1,2.27-1,2.73,2.73,0,0,1,1.74,0A2,2,0,0,1,454.6,153Zm-2.13,2.66a4.7,4.7,0,0,1,.72-1c.21-.23.6-.65.78-.86a5.13,5.13,0,0,0,.54-.69c.13-.21.07-.22.08-.08l2.4-.23a2.58,2.58,0,0,1-.42,1.55,7,7,0,0,1-.8,1l-.77.84a2.73,2.73,0,0,0-.35.47Zm5.27,4.15a17,17,0,0,1-2,.44,5.55,5.55,0,0,1-2.11-.05,2.27,2.27,0,0,1-1.73-1.74,4.59,4.59,0,0,1,.56-2.81l2.18,1a2.55,2.55,0,0,0-.38,1.28h0v-.07H452a3.18,3.18,0,0,0,1.15,0,12.12,12.12,0,0,0,1.69-.37Zm.35-1.35.34,1.16h0Zm8.68-2.63.32,1.16h0Zm4-.49-.73,1h0Zm0,4.11,1.16.32h0Zm-1.58,3.57,1.17.43h0Zm-.92,4,1.17.28h0Zm-11,10,.29,1.17h0ZM439.68,172l-1.12.45h0ZM450,153.28l.55,1.07h0Zm3.5-.19,1.2-.12h0Zm-2.23,3.29,1.09.51h0Zm3.86,2.48.32,1.16h0Z" transform="translate(0 0)"/></g></g><path class="cls-11" d="M307.73,203.3a17.75,17.75,0,0,0-2.49,6.42,3.18,3.18,0,0,0,2.6,3.67,3,3,0,0,0,.73,0l15.41-.94a3,3,0,0,0,2.78-3.21l0-.23-1-5.43a3.09,3.09,0,0,0-3.24-2.53l-12.42.81A3,3,0,0,0,307.73,203.3Z" transform="translate(0 0)"/><path class="cls-10" d="M311.07,228.23a1.47,1.47,0,0,1-1.43-1.13l-2-8.34a1.48,1.48,0,0,1,.05-.86L312.58,205a1.47,1.47,0,0,1,2.75,1l-4.72,12.49,1.88,7.9a1.46,1.46,0,0,1-1.08,1.76h0A1,1,0,0,1,311.07,228.23Z" transform="translate(0 0)"/><g class="cls-3"><path class="cls-7" d="M187.67,222.59l10.91-6.54a5,5,0,0,0,2.13-2.67l8.48-22.91a3.18,3.18,0,0,0,1.51-2.35l-.14-1.05c-.18-.8-.07-1.51-.67-1.95l-.36-.26-.32-2,.69-2,1.25-.8a1.43,1.43,0,0,0,.62-1.92h0l-.44.34-2.24,1.08a1.66,1.66,0,0,0-.78.77l-.76,1.38-2.78,3.91a2.67,2.67,0,0,0-.44,2l.15,6.16L196.89,209a6.71,6.71,0,0,1-2.73,2.55l-10.39,5.27Z" transform="translate(0 0)"/><g class="cls-23"><path class="cls-4" d="M184.19,216.53l3.9,5.78-.83.56-3.9-5.78Zm10.2-4.54L184,217.25l-.45-.89,10.39-5.27Zm2.93-2.75a7.27,7.27,0,0,1-1.28,1.59,5.51,5.51,0,0,1-1.69,1.17l-.37-.92a4.83,4.83,0,0,0,1.37-1,6.94,6.94,0,0,0,1.11-1.37ZM204.93,194l-7.59,15.21-.9-.44L204,193.55Zm-.1-6.39.15,6.15h-1l-.15-6.16Zm.34-1.66a2.18,2.18,0,0,0-.35,1.59l-1,.16a3.08,3.08,0,0,1,.52-2.32ZM208,182,205.17,186l-.81-.57,2.78-3.95Zm.78-1.43L208,182l-.88-.48.76-1.38Zm.57-.56a1.19,1.19,0,0,0-.56.55l-.89-.46a2.2,2.2,0,0,1,1-1Zm2.24-1.08L209.31,180l-.44-.9,2.25-1.08Zm.53-.4-.44.34-.61-.79.43-.34Zm-1.15,1.1a.94.94,0,0,0,.4-1.26l.88-.47a1.93,1.93,0,0,1-.81,2.61h0Zm-1.3.82,1.26-.8.53.85-1.26.79Zm-.89,2.29.68-2,1,.32-.68,2Zm.29,2.18-.31-1.94,1-.16.31,2Zm.56.59-.36-.26.59-.81.36.26Zm.48,1.66c0-.21-.08-.42-.1-.63a2.18,2.18,0,0,0-.08-.49.76.76,0,0,0-.3-.54l.59-.81a1.78,1.78,0,0,1,.69,1.14,5.21,5.21,0,0,0,.09.57,5.07,5.07,0,0,0,.09.54Zm.13,1-.14-1.05,1-.13.15,1Zm-1.29,1.88a3.18,3.18,0,0,0,.9-.89,3.28,3.28,0,0,0,.4-1.15l1,.19a4.16,4.16,0,0,1-.53,1.49,3.87,3.87,0,0,1-1.18,1.17Zm-8.66,23.15,8.48-22.92.93.35-8.48,22.91Zm-1.93,2.45a4.52,4.52,0,0,0,1.92-2.4l.95.32a5.6,5.6,0,0,1-2.35,2.94Zm-10.91,6.54,10.91-6.54.51.86-10.9,6.54Zm-3.64-5.35-.41.28-.36-.47.51-.26Zm10.39-5.27-.22-.45h0Zm2.73-2.55.45.22h0Zm7.59-15.21h.5v.24Zm-.15-6.16.49-.08v.08Zm.44-2-.41-.28h0Zm2.78-3.94.44.24h0Zm.76-1.38.44.23h0Zm.78-.77-.22-.45h0Zm2.24-1.08.31.39h0Zm.44-.34-.31-.4.48-.37.27.53Zm-.62,1.93-.26-.42h0Zm-1.25.8-.48-.16.06-.17.15-.09Zm-.69,2-.49.08v-.24Zm.32,2-.3.4-.16-.12v-.21Zm.36.26-.3.4h0Zm.67,1.95.49-.11h0Zm.14,1.05.5-.07v.16Zm-1.51,2.35-.46-.18.05-.14.13-.09Zm-8.48,22.91-.47-.16h0ZM198.58,216l.26.43h0Zm-10.91,6.54.26.43-.41.25-.26-.4Z" transform="translate(0 0)"/></g><path class="cls-10" d="M193,211.55l-10.52,3.74,4.37,8.52,8.63-3.62C194.29,218.48,193,211.55,193,211.55Z" transform="translate(0 0)"/><rect class="cls-7" x="180.81" y="317.95" width="4.95" height="7.42"/><g class="cls-24"><path class="cls-4" d="M185.26,325.37V318h1v7.42Zm-4.45-.5h4.95v1h-4.95Zm.5-6.92v7.42h-1V318Zm4.45.5h-4.95v-1h4.95Zm0,6.92h.5v.5h-.5Zm-4.95,0v.5h-.5v-.5Zm0-7.42h-.5v-.5h.5Zm4.95,0v-.5h.5v.5Z" transform="translate(0 0)"/></g><path class="cls-10" d="M180.1,324.42v3.83h15.08v-1.67a1.56,1.56,0,0,0-1.18-1.42l-7.28-2-1,1.29Z" transform="translate(0 0)"/><polygon class="cls-7" points="168.64 317.15 173.51 318.07 172.22 325.37 167.35 324.45 168.64 317.15"/><g class="cls-25"><path class="cls-4" d="M171.73,325.27,173,318l1,.18-1.29,7.31ZM167.44,324l4.87.91-.18,1-4.87-.92Zm1.69-6.72-1.29,7.3-1-.18,1.29-7.3Zm4.29,1.31-4.87-.91.18-1,4.87.91Zm-1.2,6.81.49.1-.09.49-.49-.09Zm-4.87-.91-.09.49-.49-.09.09-.49Zm1.29-7.3-.49-.09.09-.49.49.09Zm4.87.91.09-.49.49.09-.09.49Z" transform="translate(0 0)"/></g><polygon class="cls-16" points="191.45 253.19 190.29 291.81 186.09 320.39 180.06 320.39 182.13 289.63 182.39 267.8 191.45 253.19"/><path class="cls-16" d="M173.59,249.12s-3.59,5.36,0,14.61l-.83,24.51-5.13,32.14h6l8.8-31.7L190.34,256v-9.62Z" transform="translate(0 0)"/><path class="cls-10" d="M171.7,223.48s4.94,17.25-.39,29.54c0,0,16,7.14,22.15,1.14,0,0-3.78-19.27-3.67-25.59a3.84,3.84,0,0,0,3.17-4.41,3.73,3.73,0,0,0-.49-1.35c-2.2-3.72-5.15-8.48-6.87-10.38H174S170.11,217.4,171.7,223.48Z" transform="translate(0 0)"/><path class="cls-26" d="M186.66,189.35h-.06S186.68,189.32,186.66,189.35Z" transform="translate(0 0)"/><path class="cls-10" d="M181.39,194.71a5.36,5.36,0,0,1,.47-1q1.5-2.61,3-5.14l1.7.77h0s.06.09.11.11a2.76,2.76,0,0,1,1.7,2.67,4.64,4.64,0,0,1-1.24,2.57,9.2,9.2,0,0,0-1.62,2.38,5.49,5.49,0,0,1-.48,1.24,2.19,2.19,0,0,1-1.39.88,5.91,5.91,0,0,1-1.68,0,.73.73,0,0,1-.35-.09.48.48,0,0,1-.18-.26,2.42,2.42,0,0,1-.12-.76,9.45,9.45,0,0,0-.07-1.43A5.75,5.75,0,0,1,181.39,194.71Z" transform="translate(0 0)"/><path class="cls-7" d="M178.21,212.43h7.39a15.78,15.78,0,0,1,1.07-9c.91-1.83-8.46-1.69-8.46-1.69Z" transform="translate(0 0)"/><g class="cls-27"><path class="cls-4" d="M178.71,201.66v10.73h-1V201.66Zm7.51,1.47h0a1.69,1.69,0,0,0-.63-.31,13.06,13.06,0,0,0-2.84-.47c-1.1-.1-2.23-.14-3.09-.15h-1.44v-1h1.47c.87,0,2,.05,3.15.15a14.4,14.4,0,0,1,3.06.52,2.61,2.61,0,0,1,1,.56,1,1,0,0,1,.2,1.17Zm-.62,9.26-.49.09h0v-.22c0-.07-.06-.37-.09-.64a20.09,20.09,0,0,1-.12-2.19,14.54,14.54,0,0,1,1.36-6.29l.9.44a13.57,13.57,0,0,0-1.26,5.85c0,.85.06,1.57.11,2.08a3.36,3.36,0,0,0,.08.59c0,.14,0,.12,0,.15h0Zm-7.39-.5h7.39v1h-7.39Zm0-10.23h-.5v-.49h.49Zm8.46,1.69-.45-.22h0Zm-1.07,9,.49-.1.12.6h-.61Zm-7.39,0v.5h-.5v-.5Z" transform="translate(0 0)"/></g><path class="cls-7" d="M181,191.9c1.18-1.56,3.28-2.71,5-1.88v.5c.76,2.85,3.49,4.82,4.14,7.71a5.81,5.81,0,0,1-3.59,6.57,10.26,10.26,0,0,1-3.82.33,1.6,1.6,0,0,1-.68-.12,1.65,1.65,0,0,1-.53-.49,11.7,11.7,0,0,1-2.41-6.23A9.51,9.51,0,0,1,181,191.9Z" transform="translate(0 0)"/><g class="cls-28"><path class="cls-4" d="M178.65,198.32a10.12,10.12,0,0,1,1.92-6.73l.8.61a9.07,9.07,0,0,0-1.73,6Zm2.51,6.5a12,12,0,0,1-2.51-6.5l1-.07a11.24,11.24,0,0,0,2.32,6Zm.71.64a2.14,2.14,0,0,1-.71-.63l.79-.62a1.54,1.54,0,0,0,.36.36Zm.88.17a2.17,2.17,0,0,1-.87-.16l.42-.91a1.17,1.17,0,0,0,.49.07Zm4-.36a10.81,10.81,0,0,1-4,.36v-1a10.17,10.17,0,0,0,3.64-.3Zm3.91-7.15a6.31,6.31,0,0,1-3.92,7.15l-.32-.94a5.31,5.31,0,0,0,3.26-6Zm-4.14-7.73a11.76,11.76,0,0,0,2,3.68,11.49,11.49,0,0,1,2.11,4l-1,.22a10.57,10.57,0,0,0-1.95-3.69,12.77,12.77,0,0,1-2.18-4Zm0-.42v.51l-1,.09-.05-.51Zm-5.93,1.62a6.53,6.53,0,0,1,2.51-2,3.72,3.72,0,0,1,3.13,0l-.43.9a2.74,2.74,0,0,0-2.31,0,5.37,5.37,0,0,0-2.1,1.68Zm1,12.93-.4.31h0Zm.53.49-.21.46h0Zm.68.12v.5h0Zm3.82-.33-.16-.47h0Zm3.59-6.57.49-.11h0ZM186,190.52l-.48.13v-.08Zm0-.5.21-.45.26.12V190Zm-5,1.88.4.3h0Z" transform="translate(0 0)"/></g><path class="cls-7" d="M182.65,219.13l-4.55,15.45a10.17,10.17,0,0,0-.27,4.62l2.62,15.68,1.73,3.92a2.35,2.35,0,0,1-.44,2.55l-.73.75-.32,3.71a2.26,2.26,0,0,1-1.55,2L178,266.43l-1.1-1.22a2.87,2.87,0,0,1-.6-1.13l-.41-1.59a3.12,3.12,0,0,1-.06-1.14l.74-4.78-4.68-19.48a4.76,4.76,0,0,1,0-2.37l4.85-17.44a3.1,3.1,0,0,1,3-2.34,3.17,3.17,0,0,1,3.07,3.28A3.11,3.11,0,0,1,182.65,219.13Z" transform="translate(0 0)"/><g class="cls-29"><path class="cls-4" d="M179.72,214.44a3.67,3.67,0,0,1,3.4,4.84l-1-.31a2.68,2.68,0,0,0-1.69-3.39,2.55,2.55,0,0,0-.77-.14Zm-3.46,2.71a3.6,3.6,0,0,1,3.45-2.71v1a2.6,2.6,0,0,0-2.49,2Zm-4.86,17.43,4.86-17.44,1,.27-4.85,17.44Zm0,2.62a5.24,5.24,0,0,1,0-2.61l1,.26a4.23,4.23,0,0,0,0,2.12Zm4.65,19.46-4.69-19.49,1-.23L177,256.46Zm-.75,4.58.74-4.77,1,.15-.74,4.77Zm.07,1.35a3.41,3.41,0,0,1-.07-1.35l1,.15a2.34,2.34,0,0,0,0,.95Zm.4,1.59-.4-1.59,1-.25.4,1.59Zm.72,1.33a3.24,3.24,0,0,1-.71-1.33l1-.26a2.28,2.28,0,0,0,.5.93Zm1.1,1.22-1.1-1.21.75-.67,1.09,1.21Zm1.18,1.34-1.18-1.34.75-.66,1.18,1.34Zm2.42-2.25a2.77,2.77,0,0,1-1.89,2.4l-.31-1a1.76,1.76,0,0,0,1.2-1.54Zm.32-3.71-.32,3.71-1-.09.32-3.71Zm.59-.45-.73.75-.72-.69.73-.75Zm.54-3.09a2.84,2.84,0,0,1-.54,3.09l-.72-.69a1.86,1.86,0,0,0,.35-2Zm-1.73-3.91,1.73,3.92-.91.41L180,255.08Zm-2.59-15.56,2.62,15.68-1,.16-2.62-15.68Zm.26-4.4a9.73,9.73,0,0,0-.26,4.39l-1,.17a10.71,10.71,0,0,1,.28-4.84Zm4.55-15.45-4.55,15.45-1-.28L182.13,219Zm-3.42-4.33v-.5h0Zm-3,2.34.48.13h0Zm-4.85,17.44-.49-.13h0Zm0,2.37.48-.12h0Zm4.68,19.48.49-.11v.19Zm-.74,4.78-.49-.08h0Zm.06,1.14-.48.13h0Zm.41,1.59-.48.13h0Zm.6,1.13-.37.34h0Zm1.1,1.22.37-.34h0Zm1.18,1.34.16.48-.31.1-.22-.25Zm1.55-2h0ZM181,262l-.5-.05v-.18l.12-.12Zm.73-.75.36.34h0Zm.44-2.55-.45.21h0Zm-1.73-3.92-.46.2v-.12Zm-2.62-15.68.49-.09h0Zm.27-4.62.48.14h0Zm4.55-15.45-.48-.14h0Z" transform="translate(0 0)"/></g><path class="cls-10" d="M183.08,218.51,181.23,228c-3-2.19-6.43-.13-7.64-1.7l3.27-9.71A3.26,3.26,0,0,1,180,214.1a3.33,3.33,0,0,1,3.26,3.4A3.52,3.52,0,0,1,183.08,218.51Z" transform="translate(0 0)"/><path class="cls-10" d="M168.93,216c.3-1.33.87-2.57,1.18-3.9a18.8,18.8,0,0,0,.39-3.35,48.32,48.32,0,0,0,0-9.62c-.24-1.86-.7-3.76-.3-5.6a8,8,0,0,1,5.27-5.44,22.62,22.62,0,0,1,7.71-.93c1,0,2.83-.05,3.43,1s-.63,2.66-1.18,3.36a12.88,12.88,0,0,0-2.09,2.94,5.72,5.72,0,0,0-.34,3.17c.18,1.06.74,1.94,1,3a7.83,7.83,0,0,1,.08,3,9.07,9.07,0,0,1-1.4,3.18,16.81,16.81,0,0,1-1.52,2.13,21.05,21.05,0,0,0-3,3.46c-1.59,2.95-.18,6.66-.79,10a8,8,0,0,1-5.48,6.16,12.78,12.78,0,0,0-.65-3.41c-.41-1-1.07-1.91-1.57-2.89A9.35,9.35,0,0,1,168.93,216Z" transform="translate(0 0)"/><path class="cls-10" d="M166.7,324.42v3.83h15.08v-1.67a1.55,1.55,0,0,0-1.16-1.42l-7.28-2-1,1.29Z" transform="translate(0 0)"/></g><g class="cls-3"><rect class="cls-7" x="132.32" y="318.32" width="4.45" height="6.64"/><g class="cls-30"><path class="cls-4" d="M133.32,325v-6.63h-2V325Zm3.45-1h-4.45v2h4.45Zm-1-5.63V325h2v-6.63Zm-3.45,1h4.45v-2h-4.45Zm0,5.63h-1v1h1Zm4.45,0v1h1v-1Zm0-6.63h1v-1h-1Zm-4.45,0v-1h-1v1Z" transform="translate(0 0)"/></g><path class="cls-16" d="M131.72,323.24a26.2,26.2,0,0,1-1,5.12c-.1.3-.34.54-.34.86v2.44h10.51v-1.3a2.77,2.77,0,0,0-.56-1.66c-.89-1.18-3.55-3.63-3.13-5.46Z" transform="translate(0 0)"/><path class="cls-26" d="M131.74,323.24h0v0Z" transform="translate(0 0)"/><rect class="cls-7" x="103.42" y="318.32" width="4.45" height="6.64"/><g class="cls-31"><path class="cls-4" d="M104.42,325v-6.63h-2V325Zm3.44-1h-4.44v2h4.44Zm-1-5.63V325h2v-6.63Zm-3.44,1h4.44v-2h-4.44Zm0,5.63h-1v1h1Zm4.44,0v1h1v-1Zm0-6.63h1v-1h-1Zm-4.44,0v-1h-1v1Z" transform="translate(0 0)"/></g><path class="cls-10" d="M115.55,267.53c1.24,3,8.75,23.44,8.75,23.44l6.78,31.21h6.63l-3.42-35.42-2.5-37.61-14.36,1.67-2.6,12.58Z" transform="translate(0 0)"/><polygon class="cls-10" points="100.5 256.25 100.91 287.68 102.49 322.19 108.8 322.19 111.34 294.67 117.44 262.27 117.44 250.84 101.7 252.25 100.5 256.25"/><path class="cls-7" d="M116.56,211.21H107.1V199h10.34C115,202,116.56,211.21,116.56,211.21Z" transform="translate(0 0)"/><g class="cls-32"><path class="cls-4" d="M117.05,198.66a7.32,7.32,0,0,0-1.25,3.43,23,23,0,0,0-.2,4.15,29.35,29.35,0,0,0,.26,3.53,6.08,6.08,0,0,0,.14,1.09.59.59,0,0,1,0,.3v.1h0l.5-.08.49-.08h0v-.36c0-.13-.08-.62-.14-1.07-.1-.9-.21-2.12-.25-3.44a24.31,24.31,0,0,1,.18-4,6.52,6.52,0,0,1,1-3Zm-10,.81h10.34v-1H107.1Zm.5,11.72V199h-1v12.22Zm9-.5H107.1v1h9.46Zm.88-11.72.39.31.64-.81h-1Zm-10.34,0v-.5h-.5v.5Zm0,12.22h-.5v.5h.5Zm9.46,0v.5h.59l-.1-.58Z" transform="translate(0 0)"/></g><path class="cls-7" d="M101.7,254.83c.31,7.23,24.18-4.43,29.38-1.73l-6.3-42.54s-5.79-2.26-8.24-.49c-3.37,2.42-9.46,0-9.46,0l-4.24,1.64S101.44,248.66,101.7,254.83Z" transform="translate(0 0)"/><path class="cls-16" d="M116.12,203.55s-1.71,28.08,12.46,45.87c0,0,4.33,10.5,7.83,11,0,0,3.66-9.1-.81-16.29-2.74-4.42-8-14.09-8.36-19.26l-.89-14.81Z" transform="translate(0 0)"/><path class="cls-16" d="M107.1,203.55s4.14,18.41,4.24,27.8c.09,7.65-12,33.13-12,33.13S91.86,256.83,95.8,248c2.6-5.82,5.5-10.42,5.13-14.26l.1-26.29Z" transform="translate(0 0)"/><path class="cls-7" d="M120.72,196.66a19.12,19.12,0,0,0-2-6.85,33.08,33.08,0,0,0-1.64-3.12,7.39,7.39,0,0,1-.6-1.06,1.35,1.35,0,0,0-1.11-.77A4.19,4.19,0,0,0,114,185a26.27,26.27,0,0,0-5.68,1.74,11.89,11.89,0,0,0-2,1.12,5.94,5.94,0,0,0-2,2.64,10.21,10.21,0,0,0,0,5.59,3.75,3.75,0,0,0,2.49,3.09c1.07.59,2.14,1.16,3.24,1.7a12,12,0,0,0,2,.81,12.78,12.78,0,0,0,3.8.3,6,6,0,0,0,2.89-.56,3.68,3.68,0,0,0,1.64-2.11A6.61,6.61,0,0,0,120.72,196.66Z" transform="translate(0 0)"/><g class="cls-33"><path class="cls-4" d="M120.9,199.53a7.21,7.21,0,0,0,.32-2.88l-1,.07a5.92,5.92,0,0,1-.26,2.47Zm-1.9,2.38a4.24,4.24,0,0,0,1.87-2.39l-1-.32a3.25,3.25,0,0,1-1.41,1.84Zm-3.13.62a6.63,6.63,0,0,0,3.13-.62l-.49-.87a5.78,5.78,0,0,1-2.66.49Zm-4-.32a13.13,13.13,0,0,0,4,.32v-1a12.13,12.13,0,0,1-3.65-.28Zm-2.07-.85a11.7,11.7,0,0,0,2.07.85l.27-1a10.84,10.84,0,0,1-1.9-.78Zm-3.17-1.7c1.07.6,2.15,1.18,3.26,1.72l.44-.9c-1.09-.53-2.16-1.1-3.21-1.69Zm-2.28-2a5.33,5.33,0,0,0,2.28,2l.49-.87a4.51,4.51,0,0,1-1.89-1.57Zm-.46-1.45a5.7,5.7,0,0,0,.46,1.45l.88-.47a4.54,4.54,0,0,1-.36-1.19Zm0-5.86a10.8,10.8,0,0,0,0,5.86l1-.2a9.81,9.81,0,0,1,0-5.32Zm2.13-2.87a6.46,6.46,0,0,0-2.13,2.87l.94.34a5.36,5.36,0,0,1,1.79-2.41Zm2.06-1.17a12.7,12.7,0,0,0-2.06,1.17l.6.8a10.68,10.68,0,0,1,1.89-1.07Zm5.78-1.78a26.49,26.49,0,0,0-5.78,1.78l.43.9a25.25,25.25,0,0,1,5.57-1.7Zm1.58-.16a4.44,4.44,0,0,0-1.58.16l.22,1a3.65,3.65,0,0,1,1.23-.15Zm1.52,1.08a1.83,1.83,0,0,0-1.52-1.08l-.13,1a.88.88,0,0,1,.72.45Zm.56,1a9.81,9.81,0,0,1-.56-1l-.93.37a8.34,8.34,0,0,0,.63,1.13Zm1.67,3.16a35.5,35.5,0,0,0-1.67-3.17l-.86.51a32.13,32.13,0,0,1,1.62,3.08Zm2,7a19.89,19.89,0,0,0-2-7l-.91.42a18.53,18.53,0,0,1,1.91,6.67Zm-.79,2.71-.47-.17h0Zm-1.64,2.11.25.44h0Zm-2.89.56v-.5h0Zm-3.8-.3.14-.48h0Zm-2-.81.22-.45h0Zm-3.24-1.7.25-.44h0Zm-2.08-1.78-.44.24h0Zm-.41-1.31-.49.1h0Zm0-5.59.47.17h0Zm2-2.64-.3-.4h0Zm2-1.12-.21-.45h0ZM114,185l-.11-.49h0Zm2.52.61-.46.18h0Zm.6,1.06-.43.25h0Zm1.64,3.12-.45.21h0Zm2,6.85h0Z" transform="translate(0 0)"/></g><path class="cls-10" d="M117.79,179.57a12.59,12.59,0,0,1-6.58,2.33,34.6,34.6,0,0,0-7,1.1c-1.39.46-3.56,1.32-4.22,2.71a11.13,11.13,0,0,0-.27,6.89,10.15,10.15,0,0,0,2.18,4.22,12,12,0,0,0,4.16,2.73l.38.19a3.38,3.38,0,0,0,.41.24c.27.05.33-.39.33-.6a2.19,2.19,0,0,0-.37-1.11,6.55,6.55,0,0,0-.67-.81,4.56,4.56,0,0,1-.69-2.72,3.12,3.12,0,0,1,.09-1.39,1.32,1.32,0,0,1,1-.91,1.78,1.78,0,0,1,1.34.54,6.93,6.93,0,0,1,1.78,2.31c0-.81,0-1.63.07-2.44a6.76,6.76,0,0,1,.21-1.67c.24-.7.74-1.39.56-2.11a8.35,8.35,0,0,1-.35-1,1.3,1.3,0,0,1,.76-1.18,5.55,5.55,0,0,1,1.44-.37c.77-.13,1.5-.38,2.25-.58a4.94,4.94,0,0,0,2-.92,3.75,3.75,0,0,0,1.08-1.94,9.75,9.75,0,0,0,.19-2.22A8,8,0,0,0,117.79,179.57Z" transform="translate(0 0)"/><path class="cls-7" d="M134.35,217.59l5.94,12.87a4.43,4.43,0,0,1,.18,3.28l-8.73,24.66-2.86-4.21,3.86-19.29a4.39,4.39,0,0,0-.59-3.35L128,225Z" transform="translate(0 0)"/><g class="cls-34"><path class="cls-4" d="M128.37,225.31l6.36-7.4-.76-.65-6.36,7.4Zm4.21,6-4.17-6.56-.84.53,4.16,6.57Zm.65,3.73a5,5,0,0,0-.65-3.73l-.85.54a4,4,0,0,1,.53,3Zm-3.86,19.27L133.23,235l-1-.2-3.87,19.29Zm2.79,3.84-2.87-4.21-.83.56,2.87,4.21ZM140,233.58l-8.73,24.65.95.34,8.72-24.66Zm-.16-2.91a4,4,0,0,1,.16,2.91l.94.32a5,5,0,0,0-.19-3.65ZM133.9,217.8l5.94,12.86.9-.42-5.93-12.87ZM128,225l-.38-.33-.24.28.2.31Zm4.16,6.56.43-.27h0Zm.59,3.35-.48-.11h0Zm-3.86,19.29-.5-.1v.2l.12.18Zm2.86,4.21-.41.28.56.82.33-.93Zm8.73-24.66.47.17h0Zm-.18-3.28.46-.21h0Zm-5.94-12.87.46-.21-.33-.71-.51.59Z" transform="translate(0 0)"/></g><path class="cls-7" d="M89.4,223.57l-5.08,12.85a4.49,4.49,0,0,0,.35,4l16.16,20.17,2.87-4.22L93.34,240.31a4.71,4.71,0,0,1,.1-4.38l5-8.66S92.38,229.48,89.4,223.57Z" transform="translate(0 0)"/><g class="cls-35"><path class="cls-4" d="M98.8,227.66a.73.73,0,0,0-.28-.85H98.1a5.73,5.73,0,0,1-.69.16,8.23,8.23,0,0,1-2.27.11,6.39,6.39,0,0,1-5.25-3.79l-.89.45a7.35,7.35,0,0,0,6,4.33,9.09,9.09,0,0,0,2.55-.12c.33-.06.59-.12.78-.17l.21-.07h-.2a.73.73,0,0,1-.29-.85Zm-4.93,8.55,5-8.66-.87-.5-5,8.61Zm-.09,3.91a4.24,4.24,0,0,1,.1-3.92l-.88-.54a5.24,5.24,0,0,0-.11,4.84Zm10.34,16L93.76,240l-.85.54,10.37,16.08Zm-2.88,4.77,2.87-4.22-.82-.56-2.87,4.21Zm-17-20.14,16.16,20.17.78-.63L85.06,240.12Zm-.43-4.5a5,5,0,0,0,.4,4.45l.85-.52a3.94,3.94,0,0,1-.32-3.56ZM88.9,223.4l-5.09,12.85.93.37,5.09-12.85Zm9.51,3.88-.35-.35h0V227Zm-5,8.66-.41-.28h0Zm-.1,4.38-.45.22v.05Zm10.36,16.07.41.28.19-.27-.18-.28Zm-2.87,4.22-.39.31.42.53.38-.56ZM84.67,240.43l-.42.26h0Zm-.35-4,.46.19h0Zm5.08-12.85.45-.22-.5-1-.41,1Z" transform="translate(0 0)"/></g><path class="cls-7" d="M103.7,256.37l1.85.32,1.28,1.15a1.12,1.12,0,0,1,.09,1.58l-.38.42.56.9A1,1,0,0,1,107,262l-1.79,2.15a1.07,1.07,0,0,1-1.37.23l-1.94-1.18a1.81,1.81,0,0,1-.82-1.16l-.27-1.39Z" transform="translate(0 0)"/><g class="cls-36"><path class="cls-4" d="M101.25,260.88l2.86-4.23-.83-.56-2.85,4.23Zm.35,1-.27-1.39-1,.19.27,1.39Zm.59.83a1.23,1.23,0,0,1-.59-.83l-1,.19a2.22,2.22,0,0,0,1.06,1.5Zm1.94,1.18-1.94-1.18-.52.86,1.94,1.17Zm.73-.12a.58.58,0,0,1-.73.12l-.52.85a1.58,1.58,0,0,0,2-.33Zm1.79-2.15-1.79,2.15.77.64,1.79-2.16Zm0-.62a.54.54,0,0,1,0,.62l.78.63a1.52,1.52,0,0,0,.1-1.79Zm-.58-.9.57.9.85-.54-.57-.89Zm.43-1-.38.42.75.67.38-.43Zm0-.87a.62.62,0,0,1,0,.87l.75.66a1.61,1.61,0,0,0-.12-2.27h0Zm-1.29-1.16,1.29,1.16.67-.75-1.29-1.15Zm-1.6-.2,1.85.32.17-1-1.85-.32Zm-2.77,3.74-.41-.28-.12.17v.2Zm.27,1.39.49-.1h0Zm.82,1.16.26-.43h0Zm1.94,1.18.26-.43h0Zm1.37-.23.39.32h0ZM107,262l.39.31h0Zm.07-1.21-.42.27h0Zm-.56-.9-.38-.33-.25.28.2.32Zm.38-.42.37.33h0Zm-.09-1.58-.33.38h0Zm-1.28-1.19.33-.37-.1-.1h-.15Zm-1.85-.32.08-.49-.31-.06-.19.27Z" transform="translate(0 0)"/></g><path class="cls-7" d="M128.88,254.19l-1.85.32-.93,1.1a1.59,1.59,0,0,0,.18,2.24l-.55.61a1.13,1.13,0,0,0,0,1.48l1.59,1.9a1.17,1.17,0,0,0,1.51.25l1.86-1.13a1.71,1.71,0,0,0,.82-1.17l.27-1.39Z" transform="translate(0 0)"/><g class="cls-37"><path class="cls-4" d="M132.17,258.12l-2.87-4.21-.83.56,2.87,4.21Zm-.2,1.77.28-1.39-1-.2-.25,1.36Zm-1.05,1.5a2.23,2.23,0,0,0,1.05-1.5l-1-.19a1.26,1.26,0,0,1-.59.83Zm-1.86,1.13,1.86-1.14-.52-.85-1.86,1.13Zm-2.16-.36a1.69,1.69,0,0,0,2.16.36l-.52-.86a.66.66,0,0,1-.87-.14Zm-1.58-1.9,1.58,1.9.77-.64-1.59-1.9Zm0-2.14a1.63,1.63,0,0,0,0,2.13l.78-.63a.61.61,0,0,1,0-.82Zm.55-.6-.55.61.74.67.55-.61Zm-.19-2.23a2.08,2.08,0,0,0,.22,2.93h0l.65-.75a1.11,1.11,0,0,1-.12-1.55Zm.93-1.11-.93,1.11.76.64.94-1.1Zm2.15-.49-1.85.32.17,1,1.92-.35Zm3,4.71.5.1v-.21l-.12-.17Zm-.27,1.39-.44-.13h0Zm-.82,1.17-.26-.43h0Zm-1.86,1.13.26.43h0Zm-1.51-.25.38-.32h0Zm-1.59-1.9-.39.31h0Zm0-1.48.37.34h0Zm.55-.61.37.34.34-.38-.39-.33Zm-.11-2.19-.38-.32h0Zm.93-1.1-.08-.5h-.18l-.12.14Zm1.85-.32.42-.28-.18-.27h-.32Z" transform="translate(0 0)"/></g><path class="cls-16" d="M102.82,323.24a6.09,6.09,0,0,1-1.55,5.12,1.36,1.36,0,0,0-.34.86v2.44h10v-1.3a2.77,2.77,0,0,0-.56-1.66c-.89-1.18-2.5-3.63-2.08-5.46Z" transform="translate(0 0)"/><path class="cls-26" d="M102.84,323.24h0v0Z" transform="translate(0 0)"/><path class="cls-16" d="M107.1,203.55l-6.6,4.22-2.93,1.37a8.12,8.12,0,0,0-4.14,4.37l-5.3,11.81c5.72,1.09,6,6.15,10,5.21L104,216.88l3.08-6.8Z" transform="translate(0 0)"/><path class="cls-16" d="M116.13,203.55l6.6,2.79,3.68.94a7.83,7.83,0,0,1,5.15,4.26l6.15,12c-4,0-8.05,5.18-8.68,4.18l-7.55-13Z" transform="translate(0 0)"/></g></svg>