<svg id="Layer_1" data-name="Layer 1" xmlns="http://www.w3.org/2000/svg" viewBox="0 0 191 191"><defs><style>.cls-1{fill:#34495e;}.cls-2{fill:#fff;}</style></defs><title>ayuda_splash_box_work_orders</title><rect class="cls-1" width="191" height="191" rx="10"/><path class="cls-2" d="M129.16,141a7.15,7.15,0,1,0,7.14,7.16h0A7.16,7.16,0,0,0,129.16,141Zm-.87,10.44a.66.66,0,0,1-.93-.08.65.65,0,0,1,0-.85l2.36-2.36-2.36-2.36a.66.66,0,0,1,.93-.93l3.28,3.31Z" transform="translate(9.06)"/><path class="cls-2" d="M47.46,153.16H46L43.46,144h0l-2.53,9.18H39.39L36.6,142.25h1.48l2.14,9.07h0l2.45-9.07h1.57l2.41,9.07h0l2.22-9.07h1.45Z" transform="translate(9.06)"/><path class="cls-2" d="M50.13,149.22a4.52,4.52,0,0,1,1-3,3.34,3.34,0,0,1,2.75-1.18,3.44,3.44,0,0,1,2.79,1.18,4.6,4.6,0,0,1,.93,3,4.54,4.54,0,0,1-.93,2.92,3.52,3.52,0,0,1-2.79,1.21,3.42,3.42,0,0,1-2.75-1.21A4.45,4.45,0,0,1,50.13,149.22Zm1.32,0a3.22,3.22,0,0,0,.71,2.2,2.22,2.22,0,0,0,3.38,0,3.27,3.27,0,0,0,.69-2.2,3.36,3.36,0,0,0-.69-2.23,2.26,2.26,0,0,0-3.38,0A3.31,3.31,0,0,0,51.45,149.22Z" transform="translate(9.06)"/><path class="cls-2" d="M58.73,145.26h1.19v1.65h0a2.76,2.76,0,0,1,2.81-1.83v1.37q-2.85,0-2.77,3.19v3.52H58.73Z" transform="translate(9.06)"/><path class="cls-2" d="M63.41,142.25h1.25v6.46l3.5-3.45h1.68l-3,2.87,3.26,5h-1.6L65.85,149l-1.19,1.14v3H63.41Z" transform="translate(9.06)"/><path class="cls-2" d="M74.06,147.7a6.3,6.3,0,0,1,1.29-4A4.51,4.51,0,0,1,79.12,142a4.56,4.56,0,0,1,3.8,1.74,6.82,6.82,0,0,1,0,7.93,4.95,4.95,0,0,1-7.57,0A6.27,6.27,0,0,1,74.06,147.7Zm1.4,0a5.82,5.82,0,0,0,.23,1.62,4.94,4.94,0,0,0,.65,1.44,3.42,3.42,0,0,0,5.58,0,5,5,0,0,0,.67-1.44,5.27,5.27,0,0,0,.15-.81,7.09,7.09,0,0,0,0-.81,5.62,5.62,0,0,0-.86-3.09,3,3,0,0,0-1.12-1,3.53,3.53,0,0,0-1.68-.38,3.4,3.4,0,0,0-1.64.38,3.1,3.1,0,0,0-1.14,1A5.55,5.55,0,0,0,75.46,147.7Z" transform="translate(9.06)"/><path class="cls-2" d="M85.48,145.26h1.19v1.65h0a2.76,2.76,0,0,1,2.81-1.83v1.37c-1.89,0-2.82,1.09-2.77,3.19v3.52H85.48Z" transform="translate(9.06)"/><path class="cls-2" d="M96.64,153.16H95.39V152.1h0a2,2,0,0,1-1,.93,3.31,3.31,0,0,1-1.47.32,3.16,3.16,0,0,1-2.63-1.26,4.62,4.62,0,0,1-.89-2.9,4.76,4.76,0,0,1,.87-2.91,3.14,3.14,0,0,1,2.62-1.2,5.07,5.07,0,0,1,.66,0,4.79,4.79,0,0,1,.68.21,2.41,2.41,0,0,1,1.14,1h0v-4.07h1.25Zm-5.93-3.88a3.53,3.53,0,0,0,.58,2,2,2,0,0,0,1.8.92,2,2,0,0,0,1.81-.95,4.2,4.2,0,0,0,0-4.12,2.06,2.06,0,0,0-1.87-.9,1.92,1.92,0,0,0-1.77.93A4,4,0,0,0,90.71,149.28Z" transform="translate(9.06)"/><path class="cls-2" d="M104.85,150.65a3.11,3.11,0,0,1-3.26,2.7,3.32,3.32,0,0,1-2.71-1.18,4.87,4.87,0,0,1-1-3,4.36,4.36,0,0,1,1-3,3.3,3.3,0,0,1,2.58-1.15,2.92,2.92,0,0,1,2.78,1.52,5.65,5.65,0,0,1,.68,3H99.24a2.66,2.66,0,0,0,.57,1.8,2.14,2.14,0,0,0,1.82.8,1.86,1.86,0,0,0,2-1.55Zm-1.2-2.2a2.44,2.44,0,0,0-.65-1.58,2.1,2.1,0,0,0-1.56-.64,2,2,0,0,0-1.55.64,2.6,2.6,0,0,0-.65,1.58Z" transform="translate(9.06)"/><path class="cls-2" d="M106,145.26h1.19v1.65h0a2.74,2.74,0,0,1,2.8-1.83v1.37q-2.83,0-2.77,3.19v3.52H106Z" transform="translate(9.06)"/><path class="cls-2" d="M111.32,150.67a1.39,1.39,0,0,0,.67,1.19,2.58,2.58,0,0,0,1.4.34,3.39,3.39,0,0,0,.64-.06,2.21,2.21,0,0,0,.6-.17,1.39,1.39,0,0,0,.46-.37,1,1,0,0,0,.16-.58,1,1,0,0,0-.2-.63,1.52,1.52,0,0,0-.57-.39,9.19,9.19,0,0,0-1.74-.44,3.81,3.81,0,0,0-.44-.15l-.46-.13a3.74,3.74,0,0,1-.8-.4,1.78,1.78,0,0,1-.57-.62,1.75,1.75,0,0,1-.24-.94,2,2,0,0,1,.27-1,2.2,2.2,0,0,1,.67-.69,3.73,3.73,0,0,1,1.92-.51,4.09,4.09,0,0,1,2.18.5,2.35,2.35,0,0,1,1,2H115a1.32,1.32,0,0,0-.6-1.05,2.52,2.52,0,0,0-1.17-.27,2.82,2.82,0,0,0-1.09.2.81.81,0,0,0-.55.8.69.69,0,0,0,.24.55,1.65,1.65,0,0,0,.6.37,5.56,5.56,0,0,0,.81.23l.86.23a5.64,5.64,0,0,1,.94.25,2.75,2.75,0,0,1,.8.41,1.78,1.78,0,0,1,.57.62,2.15,2.15,0,0,1,.2,1,2.08,2.08,0,0,1-1,1.93,4.46,4.46,0,0,1-2.22.56,3.84,3.84,0,0,1-2.22-.62,2.52,2.52,0,0,1-1-2.06Z" transform="translate(9.06)"/><path class="cls-2" d="M106.2,75.67h-3.55a25.84,25.84,0,0,1-1,3,21.42,21.42,0,0,1-1.41,2.84l3.22,3.22a5.26,5.26,0,0,1,0,7.5l-1.81,1.81a5.28,5.28,0,0,1-7.51,0l-3.29-3.21c-.88.49-1.8.94-2.76,1.36a23.19,23.19,0,0,1-3,1v3.38a5.21,5.21,0,0,1-5.28,5.27H77.18a5.19,5.19,0,0,1-5.27-5.27V93.23a22.2,22.2,0,0,1-3-1c-1-.42-1.88-.87-2.76-1.36l-3.3,3.21a5.26,5.26,0,0,1-7.5,0l-1.82-1.81a5.29,5.29,0,0,1,0-7.5l3.22-3.22a20.19,20.19,0,0,1-1.4-2.84c-.39-1-.74-2-1.07-3H50.8a5.14,5.14,0,0,1-3.71-1.53,5,5,0,0,1-1.56-3.75V67.76a5.34,5.34,0,0,1,5.27-5.28h3.47a24.1,24.1,0,0,1,1-3,23.3,23.3,0,0,1,1.31-2.76l-3-3.13a5.19,5.19,0,0,1,0-7.42l1.82-1.9a5.29,5.29,0,0,1,7.5,0l3,3.05a23.44,23.44,0,0,1,2.88-1.44,33,33,0,0,1,3.14-1.11V41.21a5.13,5.13,0,0,1,1.52-3.71,5,5,0,0,1,3.75-1.56h2.64a5,5,0,0,1,3.75,1.56,5.14,5.14,0,0,1,1.53,3.71v3.55c1.09.33,2.14.7,3.13,1.11a22.76,22.76,0,0,1,2.88,1.44l3-3.05a5.3,5.3,0,0,1,7.51,0l1.81,1.9a5.17,5.17,0,0,1,0,7.42l-3,3.13a25,25,0,0,1,1.32,2.76,27.91,27.91,0,0,1,1,3h3.46a5.34,5.34,0,0,1,5.27,5.28v2.63a5,5,0,0,1-1.56,3.75A5.14,5.14,0,0,1,106.2,75.67Zm-27.7-21A14.49,14.49,0,0,0,64,69.16a14.12,14.12,0,0,0,4.25,10.3,14.41,14.41,0,0,0,20.52,0,14.57,14.57,0,0,0,0-20.57A14,14,0,0,0,78.5,54.65Zm0,20.94a6.62,6.62,0,1,1,4.66-1.94A6.37,6.37,0,0,1,78.5,75.59Z" transform="translate(9.06)"/><path class="cls-2" d="M124.82,118.16h-1.7a12.79,12.79,0,0,1-.48,1.44A9.63,9.63,0,0,1,122,121l1.54,1.55a2.52,2.52,0,0,1,0,3.61l-.87.87a2.55,2.55,0,0,1-3.61,0l-1.58-1.55c-.43.24-.87.46-1.33.66a10.3,10.3,0,0,1-1.45.49v1.63a2.51,2.51,0,0,1-2.54,2.54h-1.27a2.51,2.51,0,0,1-2.53-2.54V126.6a9.5,9.5,0,0,1-1.45-.49,13.72,13.72,0,0,1-1.33-.66L104,127a2.45,2.45,0,0,1-1.8.75,2.49,2.49,0,0,1-1.81-.75l-.87-.87a2.55,2.55,0,0,1,0-3.61L101,121a9.69,9.69,0,0,1-.68-1.37q-.27-.69-.51-1.44H98.17a2.47,2.47,0,0,1-1.78-.74,2.42,2.42,0,0,1-.75-1.8v-1.27a2.58,2.58,0,0,1,2.53-2.54h1.67a13.64,13.64,0,0,1,.47-1.45A11.5,11.5,0,0,1,101,109l-1.47-1.51a2.5,2.5,0,0,1,0-3.57l.87-.91a2.5,2.5,0,0,1,1.81-.76,2.46,2.46,0,0,1,1.8.76l1.47,1.47a10.64,10.64,0,0,1,1.39-.7,12.74,12.74,0,0,1,1.51-.53v-1.71a2.45,2.45,0,0,1,.73-1.78,2.4,2.4,0,0,1,1.8-.76h1.27a2.4,2.4,0,0,1,1.81.76,2.45,2.45,0,0,1,.73,1.78v1.71a13.4,13.4,0,0,1,1.51.53,10.52,10.52,0,0,1,1.38.7l1.47-1.47a2.52,2.52,0,0,1,3.61,0l.87.91a2.48,2.48,0,0,1,0,3.57L122.05,109a11.45,11.45,0,0,1,.63,1.32,13.68,13.68,0,0,1,.48,1.45h1.66a2.58,2.58,0,0,1,2.54,2.54v1.27a2.42,2.42,0,0,1-.75,1.8A2.5,2.5,0,0,1,124.82,118.16ZM111.5,108A7,7,0,0,0,106.56,120a6.94,6.94,0,0,0,9.87,0,6.76,6.76,0,0,0,2-5,7,7,0,0,0-7-7Zm0,10.08a3.18,3.18,0,1,1,2.24-.93A3.06,3.06,0,0,1,111.5,118.12Z" transform="translate(9.06)"/></svg>