<svg id="Layer_1" data-name="Layer 1" xmlns="http://www.w3.org/2000/svg" viewBox="0 0 191 191"><defs><style>.cls-1{fill:#2c4153;}.cls-2{fill:#fff;}</style></defs><title>ayuda_splash_box_frames</title><rect class="cls-1" width="191" height="191" rx="10"/><path class="cls-2" d="M273.14,441.44H280v1.2h-5.44v3.41h4.77v1.2h-4.77v4.9h-1.37Z" transform="translate(-210.5 -301)"/><path class="cls-2" d="M281.12,444.39h1.16V446h0a2.7,2.7,0,0,1,2.76-1.8v1.34c-1.86,0-2.77,1.08-2.72,3.14v3.45h-1.23Z" transform="translate(-210.5 -301)"/><path class="cls-2" d="M292.43,452.12a1.56,1.56,0,0,1-.89.21c-.68,0-1-.39-1-1.2a3.37,3.37,0,0,1-2.65,1.2,2.78,2.78,0,0,1-1.75-.53,1.91,1.91,0,0,1-.74-1.64,2.31,2.31,0,0,1,.23-1.1,1.64,1.64,0,0,1,.57-.67A3.63,3.63,0,0,1,287,448a6.7,6.7,0,0,1,.91-.21c.36-.07.69-.12,1-.16a6.58,6.58,0,0,0,.81-.15.81.81,0,0,0,.74-.83,1.55,1.55,0,0,0-.13-.69,1.12,1.12,0,0,0-.41-.37,2.93,2.93,0,0,0-2.43.07,1.37,1.37,0,0,0-.58,1.17h-1.23a2.43,2.43,0,0,1,1-2,4,4,0,0,1,2.18-.57c.35,0,.69,0,1,0a2.74,2.74,0,0,1,.9.32,1.84,1.84,0,0,1,.66.64,2.36,2.36,0,0,1,.22,1.11v4a1.78,1.78,0,0,0,.07.65.3.3,0,0,0,.33.22,1.23,1.23,0,0,0,.37-.07Zm-2-4a2,2,0,0,1-1,.33l-1.27.2a2.44,2.44,0,0,0-1.06.39,1.09,1.09,0,0,0-.46,1,1,1,0,0,0,.46.89,1.88,1.88,0,0,0,1,.25,2.64,2.64,0,0,0,1.06-.19,2,2,0,0,0,.72-.44,1.68,1.68,0,0,0,.53-1.12Z" transform="translate(-210.5 -301)"/><path class="cls-2" d="M293.32,444.39h1.19v1.14h0a2.83,2.83,0,0,1,2.5-1.31,2.77,2.77,0,0,1,1.3.3,1.67,1.67,0,0,1,.82,1,2.84,2.84,0,0,1,2.42-1.32,3.07,3.07,0,0,1,1.87.5,2.08,2.08,0,0,1,.7,1.74v5.69h-1.23v-5.08a2.33,2.33,0,0,0-.27-1.23,1.44,1.44,0,0,0-1.25-.5,1.83,1.83,0,0,0-2,2v4.82h-1.23v-5.08a2.32,2.32,0,0,0-.29-1.24,1.38,1.38,0,0,0-1.18-.49,1.88,1.88,0,0,0-1.61.77,2.16,2.16,0,0,0-.49,1.22v4.82h-1.23Z" transform="translate(-210.5 -301)"/><path class="cls-2" d="M312.28,449.69a3,3,0,0,1-3.2,2.64,3.23,3.23,0,0,1-2.66-1.16,4.74,4.74,0,0,1-.94-2.92,4.25,4.25,0,0,1,1-2.9,3.19,3.19,0,0,1,2.52-1.13,2.87,2.87,0,0,1,2.73,1.49,5.43,5.43,0,0,1,.67,2.94h-5.62a2.62,2.62,0,0,0,.55,1.77,2.12,2.12,0,0,0,1.79.78,1.82,1.82,0,0,0,1.95-1.51Zm-1.18-2.16a2.4,2.4,0,0,0-.64-1.56,2.06,2.06,0,0,0-1.53-.63,2,2,0,0,0-1.51.63,2.56,2.56,0,0,0-.64,1.56Z" transform="translate(-210.5 -301)"/><path class="cls-2" d="M314.31,449.7a1.38,1.38,0,0,0,.66,1.17,2.56,2.56,0,0,0,1.37.33,3.36,3.36,0,0,0,.63-.06,1.77,1.77,0,0,0,.58-.16,1.27,1.27,0,0,0,.46-.36.94.94,0,0,0,.16-.57,1,1,0,0,0-.2-.62,1.48,1.48,0,0,0-.56-.39,9.56,9.56,0,0,0-1.7-.43l-.44-.14-.45-.13A3.16,3.16,0,0,1,314,448a1.8,1.8,0,0,1-.79-1.53,2,2,0,0,1,.26-1,2.18,2.18,0,0,1,.65-.67,3.61,3.61,0,0,1,1.89-.5,4,4,0,0,1,2.13.49,2.31,2.31,0,0,1,.95,1.94H317.9a1.31,1.31,0,0,0-.6-1,2.41,2.41,0,0,0-1.15-.27,2.89,2.89,0,0,0-1.06.2.81.81,0,0,0-.54.79.71.71,0,0,0,.23.54,1.73,1.73,0,0,0,.59.36,5.42,5.42,0,0,0,.8.23l.84.22a5.41,5.41,0,0,1,.92.25,2.8,2.8,0,0,1,.79.4,1.79,1.79,0,0,1,.55.61,2.31,2.31,0,0,1-.81,2.85,4.44,4.44,0,0,1-2.19.54,3.8,3.8,0,0,1-2.18-.6,2.53,2.53,0,0,1-1-2Z" transform="translate(-210.5 -301)"/><path class="cls-2" d="M330.26,440.47a7.15,7.15,0,1,0,7.15,7.15A7.15,7.15,0,0,0,330.26,440.47Zm-.86,10.45a.66.66,0,1,1-.94-.94l2.36-2.36-2.36-2.36a.66.66,0,1,1,.94-.93l3.28,3.31Z" transform="translate(-210.5 -301)"/><path class="cls-2" d="M340.89,398.11v12h-12v-3H281v3H269v-12h3V350.16h-3v-12h12v3H328.9v-3h12v12h-3v47.93ZM278,341.19h-6v6h6Zm-6,65.92h6v-6h-6Zm56.92-59.93H281v3h-3v47.93h3v3h47.94v-3h3V350.16h-3Zm9-6h-6v6h6Zm-6,59.93v6h6v-6Z" transform="translate(-210.5 -301)"/></svg>