<svg id="Layer_1" data-name="Layer 1" xmlns="http://www.w3.org/2000/svg" viewBox="0 0 191 191"><defs><style>.cls-1{fill:#3db76a;}.cls-2{fill:#fff;}</style></defs><title>ayuda_splash_box_fleet_list_management</title><rect class="cls-1" width="191" height="191" rx="10"/><path class="cls-2" d="M297.23,381.1a6,6,0,0,1,2.66,1.46,5,5,0,0,1,1.62,3.84v12.41h-3.84v3.94c0,2.45-1.17,3.67-3.51,3.64s-3.51-1.25-3.51-3.64v-3.94H265.32v3.94c0,2.39-1.18,3.61-3.52,3.64s-3.5-1.19-3.5-3.64v-3.94h-3.77V386.42a4.69,4.69,0,0,1,1.54-3.84,5.91,5.91,0,0,1,2.66-1.46l3.95-9.77a5.73,5.73,0,0,1,1.75-2.4,5.33,5.33,0,0,1,3.47-1h5.48v-2.56a1.57,1.57,0,0,1,.39-1.15,1.45,1.45,0,0,1,1.07-.4h6.4a1.43,1.43,0,0,1,1.06.39,1.48,1.48,0,0,1,.39,1.15v2.56h5.4a5.29,5.29,0,0,1,3.46,1,6.43,6.43,0,0,1,1.84,2.42Zm-35.35,10.11a3.12,3.12,0,0,0,2.31-1,3.22,3.22,0,0,0,.94-2.27,3.3,3.3,0,0,0-.94-2.35,3.19,3.19,0,0,0-4.52-.11l-.11.11a3.3,3.3,0,0,0-.94,2.35,3.22,3.22,0,0,0,.94,2.27,3.11,3.11,0,0,0,2.33,1Zm31.35-10.36-2.91-7.53a3.63,3.63,0,0,0-.77-1.33,1.53,1.53,0,0,0-1.41-.47H267.88a1.64,1.64,0,0,0-1.5.47,3.76,3.76,0,0,0-.73,1.33l-2.91,7.53h30.49Zm3.2,9.37a3.14,3.14,0,0,0,.94-2.27,3.25,3.25,0,0,0-5.46-2.45.94.94,0,0,0-.1.1,3.32,3.32,0,0,0-1,2.33,3.26,3.26,0,0,0,5.47,2.37l.09-.1Zm55.51-35.91L354.42,373v25.84h-4.28v4q0,3.69-3.63,3.69t-3.64-3.69v-4H315.22v4q0,3.69-3.64,3.69t-3.64-3.69v-4h-4.31V373l2.48-18.66a6.35,6.35,0,0,1,2.1-3.77,16.47,16.47,0,0,1,4.1-2.28,37.06,37.06,0,0,1,7.4-2,42.82,42.82,0,0,1,18.67,0,37.24,37.24,0,0,1,7.4,2,16.15,16.15,0,0,1,4.06,2.31A6.25,6.25,0,0,1,351.94,354.31ZM314,389.71a3.26,3.26,0,0,0,1-2.44,3.52,3.52,0,0,0-7,0,3.26,3.26,0,0,0,1,2.44,3.63,3.63,0,0,0,5,0Zm14.71-14.77h19.2c.91.06,1.5-.18,1.76-.73a3.51,3.51,0,0,0,.29-1.84l-2-13.53a4,4,0,0,0-.77-2,2.8,2.8,0,0,0-2.23-.73H313.08a2.81,2.81,0,0,0-2.23.73,4.66,4.66,0,0,0-.82,2l-1.92,13.53a2.86,2.86,0,0,0,.26,1.84c.28.55.89.79,1.79.73ZM318.55,350a1.5,1.5,0,1,0-.19,3h21.1a1.51,1.51,0,0,0,1.6-1.41,1.49,1.49,0,0,0-1.4-1.59H318.55Zm10.2-4.8ZM349,389.71a3.26,3.26,0,0,0,1-2.44,3.52,3.52,0,0,0-7,0,3.26,3.26,0,0,0,1,2.44,3.63,3.63,0,0,0,5,0Z" transform="translate(-210.5 -301)"/><path class="cls-2" d="M228.17,439.15h6.35v1.12h-5.07v3.18h4.45v1.12h-4.45v4.58h-1.28Z" transform="translate(-210.5 -301)"/><path class="cls-2" d="M235.73,439.15h1.14v10h-1.14Z" transform="translate(-210.5 -301)"/><path class="cls-2" d="M244.39,446.85a2.85,2.85,0,0,1-3,2.47,3,3,0,0,1-2.49-1.08,4.52,4.52,0,0,1-.88-2.73,4,4,0,0,1,.94-2.71,3,3,0,0,1,2.35-1.06,2.7,2.7,0,0,1,2.55,1.4,5.2,5.2,0,0,1,.63,2.75h-5.25a2.38,2.38,0,0,0,.52,1.64,2,2,0,0,0,1.67.74,1.71,1.71,0,0,0,1.82-1.42Zm-1.11-2a2.21,2.21,0,0,0-.59-1.45,1.94,1.94,0,0,0-1.43-.58,1.84,1.84,0,0,0-1.41.58,2.32,2.32,0,0,0-.6,1.45Z" transform="translate(-210.5 -301)"/><path class="cls-2" d="M251.56,446.85a2.85,2.85,0,0,1-3,2.47,3,3,0,0,1-2.49-1.08,4.52,4.52,0,0,1-.88-2.73,4,4,0,0,1,.94-2.71,3,3,0,0,1,2.35-1.06,2.7,2.7,0,0,1,2.55,1.4,5.2,5.2,0,0,1,.63,2.75h-5.25a2.38,2.38,0,0,0,.52,1.64,2,2,0,0,0,1.67.74,1.71,1.71,0,0,0,1.82-1.42Zm-1.11-2a2.21,2.21,0,0,0-.59-1.45,1.94,1.94,0,0,0-1.43-.58,1.84,1.84,0,0,0-1.41.58,2.32,2.32,0,0,0-.6,1.45Z" transform="translate(-210.5 -301)"/><path class="cls-2" d="M254.35,441.91h1.4v1h-1.4v4.49a.58.58,0,0,0,.17.52,1.26,1.26,0,0,0,.7.13h.53v1h-.88a2,2,0,0,1-1.28-.31,1.59,1.59,0,0,1-.39-1.27V443H252v-1h1.19v-2.17h1.15Z" transform="translate(-210.5 -301)"/><path class="cls-2" d="M260.55,439.15h1.28V448H267v1.12h-6.41Z" transform="translate(-210.5 -301)"/><path class="cls-2" d="M269,440.6h-1.15v-1.45H269Zm-1.15,1.31H269v7.24h-1.15Z" transform="translate(-210.5 -301)"/><path class="cls-2" d="M271.25,446.87a1.28,1.28,0,0,0,.61,1.09,2.41,2.41,0,0,0,1.28.31,3,3,0,0,0,.59-.06,1.88,1.88,0,0,0,.54-.16,1.18,1.18,0,0,0,.43-.33,1,1,0,0,0,0-1.11,1.46,1.46,0,0,0-.52-.36,8.77,8.77,0,0,0-1.59-.4,3.84,3.84,0,0,0-.41-.13l-.42-.13a2.76,2.76,0,0,1-.73-.36,1.58,1.58,0,0,1-.52-.57,1.6,1.6,0,0,1-.22-.86,1.9,1.9,0,0,1,.24-1,2,2,0,0,1,.61-.62,3.4,3.4,0,0,1,1.76-.48,4,4,0,0,1,2,.46,2.14,2.14,0,0,1,.88,1.81h-1.15a1.2,1.2,0,0,0-.56-1,2.18,2.18,0,0,0-1.06-.25,2.73,2.73,0,0,0-1,.18.74.74,0,0,0-.5.74.63.63,0,0,0,.22.5,1.35,1.35,0,0,0,.54.34,6.17,6.17,0,0,0,.75.21q.39.09.78.21a5.7,5.7,0,0,1,.86.23,2.7,2.7,0,0,1,.74.37,1.59,1.59,0,0,1,.51.58,1.77,1.77,0,0,1,.19.88,1.9,1.9,0,0,1-.95,1.77,4.05,4.05,0,0,1-2,.51,3.57,3.57,0,0,1-2-.56,2.34,2.34,0,0,1-.94-1.89Z" transform="translate(-210.5 -301)"/><path class="cls-2" d="M278.79,441.91h1.4v1h-1.4v4.49a.58.58,0,0,0,.17.52,1.28,1.28,0,0,0,.7.13h.53v1h-.88a2,2,0,0,1-1.28-.31,1.59,1.59,0,0,1-.38-1.27V443h-1.2v-1h1.2v-2.17h1.14Z" transform="translate(-210.5 -301)"/><path class="cls-2" d="M285,439.15h1.76l3.05,8.41,3.07-8.41h1.76v10h-1.22v-8.32h0l-3,8.32h-1.1l-3-8.32h0v8.32H285Z" transform="translate(-210.5 -301)"/><path class="cls-2" d="M302.85,449.12a1.47,1.47,0,0,1-.83.2c-.64,0-1-.37-1-1.12a3.15,3.15,0,0,1-2.48,1.12,2.69,2.69,0,0,1-1.63-.49,1.79,1.79,0,0,1-.69-1.54,2,2,0,0,1,.22-1,1.5,1.5,0,0,1,.53-.63,3.13,3.13,0,0,1,.78-.38,5.85,5.85,0,0,1,.85-.2l.93-.15c.28,0,.53-.09.75-.14A.75.75,0,0,0,301,444a1.46,1.46,0,0,0-.12-.64,1.06,1.06,0,0,0-.38-.35,2.31,2.31,0,0,0-1.06-.21,2.26,2.26,0,0,0-1.21.28,1.3,1.3,0,0,0-.55,1.09h-1.14a2.29,2.29,0,0,1,.93-1.89,3.68,3.68,0,0,1,2-.54,7.77,7.77,0,0,1,1,.06,2.53,2.53,0,0,1,.84.29,1.6,1.6,0,0,1,.61.6,2.21,2.21,0,0,1,.21,1v3.72a1.51,1.51,0,0,0,.06.6.28.28,0,0,0,.31.22,1.52,1.52,0,0,0,.35-.07ZM301,445.41a2,2,0,0,1-.92.31l-1.18.18a2.3,2.3,0,0,0-1,.37,1,1,0,0,0-.43.93.89.89,0,0,0,.43.83,1.75,1.75,0,0,0,.94.24,2.33,2.33,0,0,0,1-.19,1.84,1.84,0,0,0,.67-.4,1.63,1.63,0,0,0,.49-1.05Z" transform="translate(-210.5 -301)"/><path class="cls-2" d="M303.81,441.91h1.09v1.14h0a2.46,2.46,0,0,1,2.27-1.31,2.31,2.31,0,0,1,1.91.73,3.16,3.16,0,0,1,.51,1.92v4.76h-1.15v-4.9A1.31,1.31,0,0,0,307,442.8a2,2,0,0,0-1.55.62,2.5,2.5,0,0,0-.53,1.64v4.09h-1.15Z" transform="translate(-210.5 -301)"/><path class="cls-2" d="M317.45,449.12a1.44,1.44,0,0,1-.82.2c-.64,0-1-.37-1-1.12a3.13,3.13,0,0,1-2.47,1.12,2.65,2.65,0,0,1-1.63-.49,1.79,1.79,0,0,1-.69-1.54,2.15,2.15,0,0,1,.21-1,1.57,1.57,0,0,1,.53-.63,3.13,3.13,0,0,1,.78-.38,6,6,0,0,1,.86-.2l.92-.15c.29,0,.54-.09.75-.14a.75.75,0,0,0,.69-.77,1.46,1.46,0,0,0-.12-.64,1,1,0,0,0-.37-.35,2.36,2.36,0,0,0-1.07-.21,2.28,2.28,0,0,0-1.21.28,1.27,1.27,0,0,0-.54,1.09h-1.15a2.29,2.29,0,0,1,.93-1.89,3.69,3.69,0,0,1,2-.54,7.89,7.89,0,0,1,1,.06,2.53,2.53,0,0,1,.84.29,1.67,1.67,0,0,1,.61.6,2.21,2.21,0,0,1,.21,1v3.72a1.51,1.51,0,0,0,.06.6c0,.15.13.22.31.22a1.46,1.46,0,0,0,.34-.07Zm-1.86-3.71a2,2,0,0,1-.91.31l-1.19.18a2.3,2.3,0,0,0-1,.37,1,1,0,0,0-.42.93.9.9,0,0,0,.42.83,1.78,1.78,0,0,0,.94.24,2.33,2.33,0,0,0,1-.19,1.76,1.76,0,0,0,.67-.4,1.58,1.58,0,0,0,.49-1.05Z" transform="translate(-210.5 -301)"/><path class="cls-2" d="M324.46,448.53q0,3.54-3.25,3.56a4,4,0,0,1-1.91-.48,1.94,1.94,0,0,1-1-1.65h1.15a.87.87,0,0,0,.21.54,1.45,1.45,0,0,0,.43.38,2.84,2.84,0,0,0,1.17.26,1.84,1.84,0,0,0,1.63-.77,3.73,3.73,0,0,0,.47-2v-.47h0a2.13,2.13,0,0,1-.89,1,2.54,2.54,0,0,1-1.29.34,2.76,2.76,0,0,1-2.33-1.1,4.07,4.07,0,0,1-.8-2.56,5.31,5.31,0,0,1,.17-1.35,3.92,3.92,0,0,1,.54-1.22,2.8,2.8,0,0,1,2.53-1.26,2.27,2.27,0,0,1,2.09,1.21h0v-1h1.08Zm-3.23-.35a1.81,1.81,0,0,0,1.64-.9,4,4,0,0,0,.45-1.9,3.52,3.52,0,0,0-.44-1.77,1.69,1.69,0,0,0-1.55-.81,1.81,1.81,0,0,0-1.59.78,3.25,3.25,0,0,0-.49,1.84,3.78,3.78,0,0,0,.44,1.86A1.62,1.62,0,0,0,321.23,448.18Z" transform="translate(-210.5 -301)"/><path class="cls-2" d="M332.07,446.85a2.84,2.84,0,0,1-3,2.47,3,3,0,0,1-2.48-1.08,4.45,4.45,0,0,1-.88-2.73,4,4,0,0,1,.93-2.71,3,3,0,0,1,2.36-1.06,2.7,2.7,0,0,1,2.55,1.4,5.09,5.09,0,0,1,.62,2.75h-5.25a2.48,2.48,0,0,0,.52,1.64,2,2,0,0,0,1.68.74,1.7,1.7,0,0,0,1.81-1.42Zm-1.1-2a2.22,2.22,0,0,0-.6-1.45,1.92,1.92,0,0,0-1.42-.58,1.87,1.87,0,0,0-1.42.58,2.44,2.44,0,0,0-.6,1.45Z" transform="translate(-210.5 -301)"/><path class="cls-2" d="M333.13,441.91h1.12V443h0a2.64,2.64,0,0,1,2.33-1.23,2.55,2.55,0,0,1,1.21.29,1.56,1.56,0,0,1,.77,1,2.63,2.63,0,0,1,2.26-1.24,2.85,2.85,0,0,1,1.74.48,1.94,1.94,0,0,1,.66,1.62v5.31H342.1v-4.74a2.15,2.15,0,0,0-.26-1.15,1.33,1.33,0,0,0-1.16-.46,1.71,1.71,0,0,0-1.92,1.85v4.5h-1.15v-4.74a2.14,2.14,0,0,0-.27-1.16,1.29,1.29,0,0,0-1.1-.45,1.86,1.86,0,0,0-.89.19,2,2,0,0,0-.61.52,2,2,0,0,0-.46,1.14v4.5h-1.15Z" transform="translate(-210.5 -301)"/><path class="cls-2" d="M350.83,446.85a2.84,2.84,0,0,1-3,2.47,3,3,0,0,1-2.48-1.08,4.52,4.52,0,0,1-.88-2.73,4,4,0,0,1,.93-2.71,3,3,0,0,1,2.36-1.06,2.7,2.7,0,0,1,2.55,1.4,5.2,5.2,0,0,1,.63,2.75H345.7a2.42,2.42,0,0,0,.51,1.64,2,2,0,0,0,1.68.74,1.72,1.72,0,0,0,1.82-1.42Zm-1.1-2a2.17,2.17,0,0,0-.6-1.45,1.9,1.9,0,0,0-1.42-.58,1.87,1.87,0,0,0-1.42.58,2.37,2.37,0,0,0-.59,1.45Z" transform="translate(-210.5 -301)"/><path class="cls-2" d="M352,441.91h1.09v1.14h0a2.49,2.49,0,0,1,2.28-1.31,2.31,2.31,0,0,1,1.91.73,3.16,3.16,0,0,1,.5,1.92v4.76h-1.14v-4.9a1.31,1.31,0,0,0-1.43-1.45,2,2,0,0,0-1.55.62,2.5,2.5,0,0,0-.53,1.64v4.09H352Z" transform="translate(-210.5 -301)"/><path class="cls-2" d="M361.06,441.91h1.4v1h-1.4v4.49a.58.58,0,0,0,.17.52,1.26,1.26,0,0,0,.7.13h.53v1h-.88a2,2,0,0,1-1.28-.31,1.59,1.59,0,0,1-.39-1.27V443h-1.19v-1h1.19v-2.17h1.15Z" transform="translate(-210.5 -301)"/><path class="cls-2" d="M373.74,438.47a7.15,7.15,0,1,0,7.14,7.15A7.15,7.15,0,0,0,373.74,438.47Zm-.87,10.45a.66.66,0,1,1-.93-.94l2.35-2.36-2.35-2.36a.66.66,0,1,1,.93-.93l3.28,3.31Z" transform="translate(-210.5 -301)"/></svg>