<svg id="Layer_1" data-name="Layer 1" xmlns="http://www.w3.org/2000/svg" viewBox="0 0 191 191"><defs><style>.cls-1{fill:#f3bb2e;}.cls-2{fill:#fff;}</style></defs><title>ayuda_splash_box_faces</title><rect class="cls-1" width="191" height="191" rx="10"/><path class="cls-2" d="M280.79,441.81h6.63V443h-5.29v3.32h4.64v1.17h-4.64v4.77h-1.34Z" transform="translate(-210.5 -301)"/><path class="cls-2" d="M295.07,452.2a1.45,1.45,0,0,1-.86.21q-1,0-1-1.17a3.28,3.28,0,0,1-2.58,1.17,2.75,2.75,0,0,1-1.7-.51,1.88,1.88,0,0,1-.72-1.61,2.23,2.23,0,0,1,.23-1.07,1.53,1.53,0,0,1,.55-.65,3,3,0,0,1,.81-.39,6.55,6.55,0,0,1,.9-.21c.34-.07.66-.12,1-.16a6.38,6.38,0,0,0,.78-.15.78.78,0,0,0,.72-.8,1.64,1.64,0,0,0-.12-.67,1.06,1.06,0,0,0-.4-.36,2.9,2.9,0,0,0-2.37.07,1.36,1.36,0,0,0-.57,1.14h-1.19a2.38,2.38,0,0,1,1-2,3.81,3.81,0,0,1,2.12-.56,8.43,8.43,0,0,1,1,.06,2.48,2.48,0,0,1,.88.3,1.73,1.73,0,0,1,.63.63,2.22,2.22,0,0,1,.23,1.08v3.88a1.68,1.68,0,0,0,.06.63c0,.15.14.22.32.22a1.18,1.18,0,0,0,.36-.07Zm-1.94-3.87a1.94,1.94,0,0,1-.95.32l-1.24.2a2.34,2.34,0,0,0-1,.37,1.08,1.08,0,0,0-.45,1,.91.91,0,0,0,.45.86,1.81,1.81,0,0,0,1,.25,2.53,2.53,0,0,0,1-.19,2.07,2.07,0,0,0,.7-.42,1.65,1.65,0,0,0,.51-1.1Z" transform="translate(-210.5 -301)"/><path class="cls-2" d="M301,447.11a1.7,1.7,0,0,0-1.81-1.5,1.93,1.93,0,0,0-1.78.89,3.72,3.72,0,0,0-.5,2.05,3.35,3.35,0,0,0,.51,1.89,1.76,1.76,0,0,0,1.62.87,1.88,1.88,0,0,0,2-1.84h1.23a3,3,0,0,1-3.22,2.94,3.12,3.12,0,0,1-2.54-1.1,4.1,4.1,0,0,1-.88-2.76,4.58,4.58,0,0,1,.86-2.87,3,3,0,0,1,2.59-1.17,3.64,3.64,0,0,1,2.15.61,2.69,2.69,0,0,1,1,2Z" transform="translate(-210.5 -301)"/><path class="cls-2" d="M309.79,449.83a3,3,0,0,1-3.12,2.58,3.17,3.17,0,0,1-2.59-1.13,4.66,4.66,0,0,1-.92-2.84,4.18,4.18,0,0,1,1-2.83,3.16,3.16,0,0,1,2.46-1.1,2.81,2.81,0,0,1,2.66,1.45,5.35,5.35,0,0,1,.65,2.87h-5.47a2.55,2.55,0,0,0,.54,1.72,2,2,0,0,0,1.74.76,1.78,1.78,0,0,0,1.9-1.48Zm-1.16-2.1a2.28,2.28,0,0,0-.62-1.51,2,2,0,0,0-1.49-.61,1.92,1.92,0,0,0-1.47.61,2.42,2.42,0,0,0-.62,1.51Z" transform="translate(-210.5 -301)"/><path class="cls-2" d="M311.76,449.85a1.33,1.33,0,0,0,.64,1.14,2.54,2.54,0,0,0,1.34.32,3.15,3.15,0,0,0,.61-.06,1.79,1.79,0,0,0,.57-.16,1.18,1.18,0,0,0,.44-.35,1,1,0,0,0,.15-.56.87.87,0,0,0-.19-.59,1.38,1.38,0,0,0-.54-.38,8.54,8.54,0,0,0-1.66-.42l-.42-.14-.45-.13a3.57,3.57,0,0,1-.76-.37,1.82,1.82,0,0,1-.77-1.5,1.87,1.87,0,0,1,.26-1,2.09,2.09,0,0,1,.63-.66,3.55,3.55,0,0,1,1.84-.49,3.93,3.93,0,0,1,2.08.48,2.26,2.26,0,0,1,.92,1.89h-1.2a1.23,1.23,0,0,0-.58-1,2.29,2.29,0,0,0-1.12-.26,2.73,2.73,0,0,0-1,.19.78.78,0,0,0-.53.77.67.67,0,0,0,.23.52,1.49,1.49,0,0,0,.57.35,4,4,0,0,0,.78.22l.82.22a6.11,6.11,0,0,1,.89.24,2.79,2.79,0,0,1,.77.39,1.72,1.72,0,0,1,.54.6,1.93,1.93,0,0,1,.19.92,2,2,0,0,1-1,1.85,4.3,4.3,0,0,1-2.12.53,3.68,3.68,0,0,1-2.12-.59,2.44,2.44,0,0,1-1-2Z" transform="translate(-210.5 -301)"/><path class="cls-2" d="M328.85,441a7.15,7.15,0,1,0,7.15,7.15A7.15,7.15,0,0,0,328.85,441ZM328,451.4a.66.66,0,0,1-.94,0,.65.65,0,0,1,0-.93l2.36-2.36-2.36-2.36a.65.65,0,0,1,0-.93.66.66,0,0,1,.94,0l3.27,3.31Z" transform="translate(-210.5 -301)"/><path class="cls-2" d="M343.07,343.36a2.21,2.21,0,0,1,1.79.9,3.42,3.42,0,0,1,.72,2.24v45.73a3.56,3.56,0,0,1-.72,2.2,2.16,2.16,0,0,1-1.79.94h-4.58V411.5a2.39,2.39,0,0,1-.75,1.75,2.53,2.53,0,0,1-1.85.77,2.35,2.35,0,0,1-1.79-.77,2.42,2.42,0,0,1-.71-1.75V395.37H280.75V411.6a2.34,2.34,0,0,1-.76,1.79,2.46,2.46,0,0,1-1.76.74,2.51,2.51,0,0,1-1.83-.72,2.3,2.3,0,0,1-.77-1.79V395.37H270.8a2.17,2.17,0,0,1-1.79-.94,3.56,3.56,0,0,1-.72-2.2V346.5a3.48,3.48,0,0,1,.72-2.24,2.21,2.21,0,0,1,1.79-.9h4.84a2.83,2.83,0,0,1,.81-1.79,2.52,2.52,0,0,1,3.53,0,2.37,2.37,0,0,1,.76,1.79h52.65v-.09a2.46,2.46,0,0,1,.71-1.75,2.34,2.34,0,0,1,1.79-.76,2.52,2.52,0,0,1,1.85.76,2.42,2.42,0,0,1,.75,1.75v.09Zm-.63,3.14h-71.1v45.64h71.1Z" transform="translate(-210.5 -301)"/></svg>