<svg id="Layer_1" data-name="Layer 1" xmlns="http://www.w3.org/2000/svg" xmlns:xlink="http://www.w3.org/1999/xlink" viewBox="0 0 498.27 282.06"><defs><style>.cls-1{fill:#fff;stroke:#441fd8;}.cls-1,.cls-6{stroke-width:4px;}.cls-2{opacity:0.2;}.cls-3{fill:#b1c4e5;}.cls-4{fill:#dde8ff;}.cls-5{fill:#799acc;}.cls-6,.cls-7{fill:#f8faff;}.cls-6{stroke:#eff3fa;}.cls-8{mask:url(#mask);}.cls-9{fill:#b1a6ff;}.cls-10{fill:#5f40d5;}.cls-11{fill:#8d8af0;}.cls-12{fill:#ffbe7d;}.cls-13{fill:#ffe49b;}.cls-14{fill:#ff9e3f;}.cls-15{fill:#ff9b00;}.cls-16{fill:#ffd400;}.cls-17{fill:#ff5f00;}.cls-18{fill:#9eb0ff;}.cls-19{fill:#ffc1c5;}.cls-20{fill:#f0b1b5;}.cls-21{fill:#ffb000;}.cls-22{fill:#060673;}.cls-23{fill:url(#linear-gradient);}.cls-24{fill:#ff3d53;}.cls-25{fill:url(#linear-gradient-2);}.cls-26{fill:#5a47e2;}.cls-27{fill:#c4d0ff;}.cls-28{fill:#839aef;}.cls-29{fill:#ffd883;}.cls-30{fill:#1f0d52;}.cls-31{fill:#d3e7ec;}.cls-32{fill:#b8d3d8;}.cls-33{fill:#32187c;}.cls-34{fill:#ff505c;}</style><mask id="mask" x="175" y="3" width="323.27" height="258.55" maskUnits="userSpaceOnUse"><g transform="translate(-1)"><g id="mask0"><rect class="cls-1" x="178" y="5" width="291" height="136"/></g></g></mask><linearGradient id="linear-gradient" x1="398.54" y1="199.87" x2="372.8" y2="176.53" gradientTransform="matrix(1, 0, 0, -1, 0, 284)" gradientUnits="userSpaceOnUse"><stop offset="0" stop-color="#05000e" stop-opacity="0"/><stop offset="1" stop-color="#05000e"/></linearGradient><linearGradient id="linear-gradient-2" x1="433.37" y1="137.27" x2="409.95" y2="199.72" xlink:href="#linear-gradient"/></defs><g class="cls-2"><path class="cls-3" d="M77.69,224.44s20.89,0,20.89-19.53-13.17-25-10.45-39.28S80,137.25,65,145.87,61.6,184.1,56.34,193.1,49.53,225.8,77.69,224.44Z" transform="translate(-1)"/><path class="cls-4" d="M77.69,263.26a.68.68,0,0,1-.68-.68V194.24a.64.64,0,0,1,.21-.47.67.67,0,0,1,.47-.19.68.68,0,0,1,.68.66v68.34a.66.66,0,0,1-.2.48A.67.67,0,0,1,77.69,263.26Z" transform="translate(-1)"/><path class="cls-5" d="M77.69,173.12c-4.24-10.9-16.35-9.08-10-25.43.44-1.15.87-2.36,1.26-3.62a21.29,21.29,0,0,0-4,1.8c-15,8.63-3.38,38.22-8.63,47.23-4.35,7.46-6.15,25,9.35,30,.23-.45.45-.91.64-1.39,4.54-11.36-7-18.17,2.57-24.07S82.47,185.42,77.69,173.12Z" transform="translate(-1)"/><path class="cls-4" d="M45,233.07s15-1.82,19.53-13.17-7-18.17,2.57-24.07,13.57-12.22,8.78-24.52c-4.24-10.9-16.35-9.08-10-25.43s-.5-36-23.15-35.88c-18.6.1-25,6.36-26.35,26.34S8.21,152.69,3.66,160.41s-4.08,17.24,10.45,25,10,11.36,2.72,15.9S16.53,233.07,45,233.07Z" transform="translate(-1)"/><path class="cls-5" d="M44.08,263.26a.67.67,0,0,1-.48-.2.66.66,0,0,1-.2-.48V125.89a.68.68,0,0,1,.21-.46.69.69,0,0,1,1,0,.67.67,0,0,1,.2.46V262.58a.68.68,0,0,1-.68.68Z" transform="translate(-1)"/><path class="cls-5" d="M44.08,152.91a.76.76,0,0,1-.33-.08.69.69,0,0,1-.24-.24.65.65,0,0,1-.11-.32.8.8,0,0,1,.07-.34c3.58-7.33,9.32-19.42,9.47-20.62a.74.74,0,0,1,.05-.25.86.86,0,0,1,.15-.22.64.64,0,0,1,.22-.14.58.58,0,0,1,.26,0,.7.7,0,0,1,.48.2.71.71,0,0,1,.2.49c0,1.41-7.35,16.58-9.61,21.19a.62.62,0,0,1-.25.28A.63.63,0,0,1,44.08,152.91Z" transform="translate(-1)"/><path class="cls-5" d="M44.09,161.09a.63.63,0,0,1-.33-.09.61.61,0,0,1-.25-.23L31.7,142.15a.75.75,0,0,1-.09-.25.57.57,0,0,1,0-.26.7.7,0,0,1,.3-.43.73.73,0,0,1,.52-.09.68.68,0,0,1,.42.3L44.66,160a.68.68,0,0,1,.11.34.68.68,0,0,1-.09.35.63.63,0,0,1-.25.26A.67.67,0,0,1,44.09,161.09Z" transform="translate(-1)"/><path class="cls-5" d="M44.09,175.16a.62.62,0,0,1-.33-.08.64.64,0,0,1-.32-.4.63.63,0,0,1,.05-.52L53,156.45a.65.65,0,0,1,.17-.2.7.7,0,0,1,.24-.13.74.74,0,0,1,.26,0,.53.53,0,0,1,.25.08.68.68,0,0,1,.21.17.51.51,0,0,1,.12.23.63.63,0,0,1,0,.27.81.81,0,0,1-.08.25l-9.53,17.71a.65.65,0,0,1-.26.26A.67.67,0,0,1,44.09,175.16Z" transform="translate(-1)"/><path class="cls-5" d="M44.09,182.88a.64.64,0,0,1-.31-.07.72.72,0,0,1-.25-.21L34,169.44a.67.67,0,0,1-.12-.51.61.61,0,0,1,.27-.44.66.66,0,0,1,.51-.12.69.69,0,0,1,.44.27l9.54,13.17a.7.7,0,0,1,.12.35.65.65,0,0,1-.07.36.72.72,0,0,1-.25.27.74.74,0,0,1-.35.1Z" transform="translate(-1)"/><path class="cls-5" d="M44.08,210.13a.66.66,0,0,1-.33-.09.68.68,0,0,1-.25-.93l15.89-27.24a.63.63,0,0,1,.42-.31.66.66,0,0,1,.51.07.67.67,0,0,1,.31.41.65.65,0,0,1-.06.51L44.67,209.8a.64.64,0,0,1-.25.24A.67.67,0,0,1,44.08,210.13Z" transform="translate(-1)"/><path class="cls-5" d="M44.09,214.67a.62.62,0,0,1-.33-.08.64.64,0,0,1-.24-.22L31.71,196.2a.68.68,0,1,1,1.14-.74l11.81,18.16a.69.69,0,0,1,0,.7.65.65,0,0,1-.26.26.67.67,0,0,1-.34.1Z" transform="translate(-1)"/></g><g class="cls-2"><path class="cls-3" d="M406.34,223.43s-24.34,0-24.34-19.52,15.34-25,12.17-39.28,9.52-28.38,27-19.76,3.93,38.23,10.06,47.23S439.14,224.8,406.34,223.43Z" transform="translate(-1)"/><path class="cls-4" d="M406.34,262.26a.85.85,0,0,0,.56-.2.63.63,0,0,0,.23-.48V193.24a.68.68,0,0,0-.24-.47.9.9,0,0,0-.56-.19.85.85,0,0,0-.54.19.65.65,0,0,0-.25.47v68.34a.67.67,0,0,0,.23.48A.88.88,0,0,0,406.34,262.26Z" transform="translate(-1)"/><path class="cls-5" d="M406.34,172.12c4.93-10.9,19-9.08,11.64-25.43-.53-1.15-1-2.36-1.47-3.62a27.69,27.69,0,0,1,4.64,1.8c17.45,8.63,3.93,38.23,10.05,47.23,5.07,7.46,7.16,25-10.89,30a14.29,14.29,0,0,1-.75-1.39c-5.29-11.36,8.11-18.17-3-24.07S400.76,184.42,406.34,172.12Z" transform="translate(-1)"/><path class="cls-4" d="M444.43,232.07S427,230.25,421.68,218.9s8.11-18.17-3-24.07-15.8-12.22-10.22-24.52c4.93-10.9,19-9.08,11.64-25.43s.58-36,27-35.88c21.67.1,29.12,6.36,30.71,26.34s9.52,16.35,14.81,24.07,4.76,17.24-12.17,25-11.64,11.36-3.17,15.9S477.59,232.07,444.43,232.07Z" transform="translate(-1)"/><path class="cls-5" d="M445.49,262.26a.85.85,0,0,0,.56-.2.62.62,0,0,0,.23-.48V124.89a.64.64,0,0,0-.24-.46.89.89,0,0,0-.55-.19.85.85,0,0,0-.55.19.65.65,0,0,0-.25.46V261.58a.63.63,0,0,0,.24.48A.85.85,0,0,0,445.49,262.26Z" transform="translate(-1)"/><path class="cls-5" d="M445.49,151.91a1,1,0,0,0,.38-.08.76.76,0,0,0,.29-.24.66.66,0,0,0,.12-.32.59.59,0,0,0-.08-.34c-4.17-7.33-10.86-19.42-11-20.62a.57.57,0,0,0-.06-.25.62.62,0,0,0-.17-.22,1.35,1.35,0,0,0-.26-.15,1,1,0,0,0-.3,0,.89.89,0,0,0-.56.2.68.68,0,0,0-.24.49c0,1.41,8.57,16.58,11.19,21.19a.74.74,0,0,0,.3.28A.84.84,0,0,0,445.49,151.91Z" transform="translate(-1)"/><path class="cls-5" d="M445.48,160.09a.86.86,0,0,0,.39-.09.8.8,0,0,0,.29-.23l13.75-18.62a.51.51,0,0,0,.11-.25.57.57,0,0,0,0-.26.74.74,0,0,0-.35-.43,1,1,0,0,0-.6-.09.8.8,0,0,0-.5.3L444.82,159a.62.62,0,0,0-.13.34.6.6,0,0,0,.1.35.73.73,0,0,0,.29.26A.91.91,0,0,0,445.48,160.09Z" transform="translate(-1)"/><path class="cls-5" d="M445.49,174.16a.77.77,0,0,0,.37-.08.68.68,0,0,0,.38-.4.6.6,0,0,0-.06-.52l-11.11-17.71a.72.72,0,0,0-.19-.2.9.9,0,0,0-.28-.13,1,1,0,0,0-.3,0,.74.74,0,0,0-.3.08.81.81,0,0,0-.24.17.55.55,0,0,0-.14.23.59.59,0,0,0,.06.52l11.11,17.71a.73.73,0,0,0,.29.26A.91.91,0,0,0,445.49,174.16Z" transform="translate(-1)"/><path class="cls-5" d="M445.48,181.88a.94.94,0,0,0,.37-.07.83.83,0,0,0,.28-.21l11.11-13.16a.62.62,0,0,0-.18-.95.86.86,0,0,0-.59-.12.82.82,0,0,0-.52.27l-11.11,13.17a.64.64,0,0,0-.14.35.52.52,0,0,0,.08.36.84.84,0,0,0,.29.27,1,1,0,0,0,.41.1Z" transform="translate(-1)"/><path class="cls-5" d="M445.49,209.13a.86.86,0,0,0,.39-.09.79.79,0,0,0,.29-.25.58.58,0,0,0,0-.68l-18.52-27.24a.73.73,0,0,0-.48-.31.89.89,0,0,0-.6.07.69.69,0,0,0-.36.41.58.58,0,0,0,.07.51L444.8,208.8a.76.76,0,0,0,.29.24A.9.9,0,0,0,445.49,209.13Z" transform="translate(-1)"/><path class="cls-5" d="M445.48,213.67a.79.79,0,0,0,.38-.08.72.72,0,0,0,.29-.22l13.76-18.17a.62.62,0,0,0,.11-.51.71.71,0,0,0-.35-.43.92.92,0,0,0-.59-.1.8.8,0,0,0-.5.3l-13.76,18.16a.65.65,0,0,0-.13.35.64.64,0,0,0,.1.35.73.73,0,0,0,.29.26.91.91,0,0,0,.4.1Z" transform="translate(-1)"/></g><rect class="cls-6" x="173" y="2" width="299" height="143"/><rect class="cls-7" x="312" y="148" width="20" height="119"/><g class="cls-8"><path class="cls-9" d="M230.21,94H229a14.27,14.27,0,0,1-4.3-6,19.38,19.38,0,0,1-1.1-4.5,4.12,4.12,0,0,1,.1-1.2c.6-1.6,4.8-2.8,7.6-2.1a12.72,12.72,0,0,1,4.4,1.9,6,6,0,0,0-2.8.9,7.22,7.22,0,0,0-2.1,1.9c-.1.1-.2.2-.2.3C228.61,88.3,230.21,93.8,230.21,94Z" transform="translate(-1)"/><path class="cls-10" d="M230.21,94c-.1-.2-1.7-6.2.6-9a6.61,6.61,0,0,1,5-2.8S237.71,83.1,230.21,94Z" transform="translate(-1)"/><path class="cls-9" d="M243.71,95.3a5.86,5.86,0,0,0-2.5-2.2,10.23,10.23,0,0,0-2.1-.8,4.44,4.44,0,0,0-2-.1c-2.9.4-5.8,2.6-6,2.6l-.4-.7-.1-.2a57.42,57.42,0,0,1,5.8-5.5,12.41,12.41,0,0,1,2.4-1.6,2.61,2.61,0,0,1,1.1-.3c1.6,0,2.9,2.2,3.5,4.6A10.41,10.41,0,0,1,243.71,95.3Z" transform="translate(-1)"/><path class="cls-10" d="M231.21,94.9c.11-.1,4.5-3.4,7.91-2.5s4.59,2.9,4.59,2.9S241.62,98.4,231.21,94.9Z" transform="translate(-1)"/><path class="cls-11" d="M231.71,94.9a1.43,1.43,0,0,1-1.09.9,1.4,1.4,0,0,1-1.11-.1,1.32,1.32,0,0,1-.39-.3,1.72,1.72,0,0,1-.41-1.9,1.63,1.63,0,0,1,.7-.7,2.35,2.35,0,0,1,.8-.2,1.85,1.85,0,0,1,.7.2,1.37,1.37,0,0,1,.8.9A.91.91,0,0,1,231.71,94.9Z" transform="translate(-1)"/><path class="cls-12" d="M229.12,94.21,218,117.47l13.7,6.58,11.17-23.26Z" transform="translate(-1)"/><path class="cls-13" d="M217.34,88.5l-11.16,23.26L225.47,121l11.16-23.26Z" transform="translate(-1)"/><path class="cls-14" d="M216.79,89.53l-3.41,7.12,25.51,12.25,3.42-7.12Z" transform="translate(-1)"/><path class="cls-12" d="M243.61,101.16l-14.51-7-3.42,7.12,14.51,7Z" transform="translate(-1)"/><path class="cls-13" d="M236.9,97.91l-20.46-9.83L213,95.21,233.49,105Z" transform="translate(-1)"/><path class="cls-9" d="M240.68,99.77,239.06,99,227.9,122.26l1.62.78Z" transform="translate(-1)"/><path class="cls-9" d="M229.91,94.6s.5,4.9-4.4,13.9c0,0,3.4.4,5-.4,0,0,3.6-8.8,1.2-12.7C231.61,95.4,231,94.4,229.91,94.6Z" transform="translate(-1)"/><path class="cls-9" d="M229.31,94.3s-6.3,7.1-10.7,11.4c0,0-.9-3.3-1.2-4.9,0,0,5.7-6.8,10-7.5A2.61,2.61,0,0,1,229.31,94.3Z" transform="translate(-1)"/><path class="cls-9" d="M260.79,44.59l-.27.86-.1.29a14.28,14.28,0,0,1-7,2.25,20,20,0,0,1-4.62-.34,4.41,4.41,0,0,1-1.11-.46c-1.34-1.07-1.19-5.43.34-7.88a12.75,12.75,0,0,1,3.16-3.61,6.05,6.05,0,0,0,0,2.95,7.4,7.4,0,0,0,1.17,2.58c.06.12.13.25.22.28C254.88,44.37,260.6,44.53,260.79,44.59Z" transform="translate(-1)"/><path class="cls-10" d="M260.79,44.59c-.22,0-6.42-.28-8.38-3.33a6.63,6.63,0,0,1-1.13-5.62S252.72,34.11,260.79,44.59Z" transform="translate(-1)"/><path class="cls-9" d="M266.18,32.15a5.82,5.82,0,0,0-2.86,1.7,10.43,10.43,0,0,0-1.41,1.75,4.39,4.39,0,0,0-.71,1.88c-.51,2.88.69,6.31.63,6.5l-.79.17-.22,0A57.11,57.11,0,0,1,257.37,37a12.34,12.34,0,0,1-.79-2.77,2.6,2.6,0,0,1,.06-1.14c.49-1.52,3-2.08,5.45-1.92A10.4,10.4,0,0,1,266.18,32.15Z" transform="translate(-1)"/><path class="cls-10" d="M262,43.92c-.07-.13-1.86-5.33.05-8.29s4.17-3.48,4.17-3.48S268.48,35.1,262,43.92Z" transform="translate(-1)"/><path class="cls-11" d="M262.11,43.44a1.46,1.46,0,0,1,.52,1.33,1.37,1.37,0,0,1-.43,1,1.42,1.42,0,0,1-.41.29,1.72,1.72,0,0,1-1.93-.2,1.53,1.53,0,0,1-.45-.88,2.29,2.29,0,0,1,0-.83,1.79,1.79,0,0,1,.41-.6,1.4,1.4,0,0,1,1.1-.48A.91.91,0,0,1,262.11,43.44Z" transform="translate(-1)"/><path class="cls-12" d="M260.66,45.7l18.7,17.77,10.47-11L271.12,34.68Z" transform="translate(-1)"/><path class="cls-13" d="M251.6,55.15l18.7,17.77L285,57.41l-18.7-17.77Z" transform="translate(-1)"/><path class="cls-14" d="M252.41,56l5.73,5.44,19.49-20.51-5.73-5.45Z" transform="translate(-1)"/><path class="cls-12" d="M271.72,34,260.63,45.71l5.73,5.45,11.09-11.68Z" transform="translate(-1)"/><path class="cls-13" d="M266.56,39.43,250.93,55.88l5.72,5.44,15.64-16.45Z" transform="translate(-1)"/><path class="cls-9" d="M269.5,36.41l-1.24,1.3L287,55.48l1.24-1.31Z" transform="translate(-1)"/><path class="cls-9" d="M261.27,45.06s4.81,1,11.87,8.46c0,0,1.43-3.11,1.16-4.88,0,0-7.27-6.13-11.72-5C262.55,43.69,261.42,44,261.27,45.06Z" transform="translate(-1)"/><path class="cls-9" d="M260.8,45.54s4.82,8.18,7.56,13.69c0,0-3.42-.16-5-.36,0,0-4.72-7.52-4.07-11.83C259.26,47,259.79,45.74,260.8,45.54Z" transform="translate(-1)"/><path class="cls-15" d="M378.77,41.9l-6.57-12,.26-17.71-38.24,2.49-2.85,1.94,16.79,14.06Z" transform="translate(-1)"/><path class="cls-16" d="M370.19,39.32l-.05-24.58-38.77,1.92,4,27Z" transform="translate(-1)"/><path class="cls-16" d="M368.74,29.53l10,12.37-12.59-3.71Z" transform="translate(-1)"/><path class="cls-17" d="M342.38,25.05a4.8,4.8,0,0,1,.33-3.45,3.38,3.38,0,0,1,2.44-1.53,3.49,3.49,0,0,1,2.9.52,4.87,4.87,0,0,1,1.58,3.08,4.79,4.79,0,0,1-.33,3.45,3.4,3.4,0,0,1-2.44,1.54,3.57,3.57,0,0,1-2.9-.52A4.81,4.81,0,0,1,342.38,25.05Zm2.47-.47a4.08,4.08,0,0,0,.81,2.08,1,1,0,0,0,1.59-.31,4.49,4.49,0,0,0,0-2.22,4.3,4.3,0,0,0-.81-2.08,1,1,0,0,0-.87-.25,1.16,1.16,0,0,0-.72.55A4.1,4.1,0,0,0,344.85,24.58ZM350.92,37l-2.31.44,5.52-19.13,2.31-.43Zm4.28-5.27a4.79,4.79,0,0,1,.34-3.45A3.37,3.37,0,0,1,358,26.71a3.67,3.67,0,0,1,2.9.52,4.87,4.87,0,0,1,1.58,3.08,4.68,4.68,0,0,1-.33,3.45,3.42,3.42,0,0,1-2.44,1.54,3.57,3.57,0,0,1-2.9-.52A5,5,0,0,1,355.2,31.69Zm2.47-.47a4.08,4.08,0,0,0,.81,2.08.8.8,0,0,0,.87.24,1,1,0,0,0,.72-.55,4.49,4.49,0,0,0,0-2.22,4.35,4.35,0,0,0-.81-2.08,1,1,0,0,0-1.59.31A4.06,4.06,0,0,0,357.67,31.22Z" transform="translate(-1)"/><path class="cls-18" d="M399.07,144.16s-1.29,27.27,5.71,66c2.21,12.16,16,51.42,16,51.42h6.64s.92-24.51,1.47-56c.55-26.53,11.61-46.25,7.56-57.86C434.45,142.13,399.07,144.16,399.07,144.16Z" transform="translate(-1)"/><path class="cls-19" d="M333.46,96.61c-6.82-9.21,7.19-32.62,14.75-37.23l5.71.19s-1.47,4.42-2.77,9.58c-1.47,6.08-2.57,13.27-.92,17,1.11,2.39,4.43,2.39,8.85,1.84,8.29-.92,27.46-7.56,32.43,3.5C401.83,114.67,343.42,110.43,333.46,96.61Z" transform="translate(-1)"/><path class="cls-20" d="M347.47,89.24c-5.35-6.64,3.31-19.72,3.68-20.09-1.47,6.08-2.58,13.27-.92,17,1.11,2.39,4.42,2.39,8.85,1.84,14.56-3.5,22.85-2.58,22.85-2.58l-9,9.21S353.92,97.16,347.47,89.24Z" transform="translate(-1)"/><path class="cls-16" d="M436.11,77.63a8.18,8.18,0,0,0-4.24-2.77c-2.95-1.29-3.87-2.94-5.16-5.89a16.72,16.72,0,0,0-1.66-3.14,8.72,8.72,0,0,0-5.53-3.31,23,23,0,0,1-3.68-.37c-2.95-.92-3.14-3.5-4.24-5.71a8.78,8.78,0,0,0-10.69-4.24h-.18c-8.48,0-12,13.63-7.56,19.53a9.64,9.64,0,0,0,1.84,2c2,1.66,2.22,1.1,3.69,3.68,1.66,3,.92,3,0,5.72a14.31,14.31,0,0,0-.55,4,12.63,12.63,0,0,0,6.08,10.51c9.76,5.16,22.85-.37,29.48-8.11C436.48,86.29,438.87,81.5,436.11,77.63Z" transform="translate(-1)"/><path class="cls-21" d="M425.42,72.84c-2.21-.92-1.48-4.43-2.95-6.08a5.52,5.52,0,0,0-4.24-2,.46.46,0,0,0,0,.92,4.62,4.62,0,0,1,3.32,1.47,6.94,6.94,0,0,1,1.29,3.69c.37,1.47.92,2.58,2.21,3.13C425.79,73.94,426,73,425.42,72.84Z" transform="translate(-1)"/><path class="cls-21" d="M433.16,79.66a.46.46,0,1,0-.74.55,5.55,5.55,0,0,1-.55,6.63c-.37.37.18,1.11.74.74A6.67,6.67,0,0,0,433.16,79.66Z" transform="translate(-1)"/><path class="cls-16" d="M399.25,59.38a.94.94,0,0,0-.74-1.65c-.18,0-.37.18-.55.18s-.37,0-.37.18c-3.32,1.11-5.71,1.29-8.11,3.87a22.93,22.93,0,0,0-3.13,5c-.37,1.48,0,1.29-.37,2.77-.55,2.94-1.1,3.5-3.87,4.6-3.32,1.29-7.37,5.53-7.19,9,0,4.06,4.61,8.48,7.93,10.32,5.53,3.14,11.24,4.61,15.11-3.5,2.4-5,3-10.69,3.13-16.22C400.91,69,401.09,64,399.25,59.38Z" transform="translate(-1)"/><path class="cls-21" d="M380.46,76.71c-2.77,2-4.61,5.16-3.51,8.66.19.55,1.11.37.93-.19a6.81,6.81,0,0,1,2.95-7.55C381.38,77.26,381,76.34,380.46,76.71Z" transform="translate(-1)"/><path class="cls-22" d="M396.12,84.63s5,20.83-10.51,25.06H366.08s-4.79-19.16-.74-26.72C365.34,83,378.8,79.66,396.12,84.63Z" transform="translate(-1)"/><path class="cls-23" d="M373.82,109.51h11.79l10.51-25.06s-5.35-1.29-9.77-2C378.61,86.48,373.82,95,373.82,109.51Z" transform="translate(-1)"/><path class="cls-22" d="M372.35,147.47s21.74,10.88,65.23,3.14c0,0,0-76.48-40.35-71C367.92,83.71,386.35,119.83,372.35,147.47Z" transform="translate(-1)"/><path class="cls-20" d="M393.35,80.39A12.05,12.05,0,0,0,395,87.21a33.51,33.51,0,0,1,8.85-7.74,16.3,16.3,0,0,1-.19-8.84l-8.47,2C395.38,72.65,396.49,76.34,393.35,80.39Z" transform="translate(-1)"/><path class="cls-19" d="M406.57,65.67c.84-6.25-2.08-11.8-6.52-12.4s-8.72,4-9.56,10.24,2.08,11.81,6.52,12.41S405.72,71.93,406.57,65.67Z" transform="translate(-1)"/><path class="cls-19" d="M392.62,63.07a36.72,36.72,0,0,0-3.32,6.08c-.19.37,0,.74.37.74a36.1,36.1,0,0,0,4.05.55C395,70.26,392.62,63.07,392.62,63.07Z" transform="translate(-1)"/><path class="cls-24" d="M392.24,58.28A17,17,0,0,0,391,61.23a8,8,0,0,0,5.72-1.48c4.05-3.31,8.84-.37,8.84-.37l-.92-3.68L392.8,54Z" transform="translate(-1)"/><path class="cls-16" d="M404.78,61.41a2.74,2.74,0,0,1-2.76-2c-.92-2.21-3.87-1.84-5.9-.55s-4.05,2.21-6.45.92c-1.84-.92,3.5-9,5.9-9.4,8.48-1.84,12.72,1.66,14.37,3.69,2.4,2.76.74,5.16.19,6.27-1.66,3.5-.55,5,.55,6.08,1.11,1.29,0,4.42-3.13,4.6C402.57,71.36,406.26,63.81,404.78,61.41Z" transform="translate(-1)"/><path class="cls-19" d="M404,63.62s1.48-2,2.95-.55c1.48,1.29-.18,6.08-2.39,4.79C402.2,66.57,404,63.62,404,63.62Z" transform="translate(-1)"/><path class="cls-25" d="M437.58,150.61s-1.66-34.1-10.32-52l-12-14.93s-6.45,31.7,9,43.12c6.26,4.79-.74,26.17-.74,26.17Z" transform="translate(-1)"/><path class="cls-16" d="M397,50.17s-9.22.74-9.22,10.87c0,0,14.93,2.22,18.62,0l.55-6.45Z" transform="translate(-1)"/><path class="cls-21" d="M394.27,52.2a16.07,16.07,0,0,0-3.13,2.95,8.82,8.82,0,0,0-1.29,3.68c0,.55.74.92.92.19a6.94,6.94,0,0,1,1.29-3.69c.74-1.11,2-1.84,2.95-2.76C395.38,52.38,394.83,51.83,394.27,52.2Z" transform="translate(-1)"/><path class="cls-21" d="M393.36,55.7A5.14,5.14,0,0,0,392.25,59a.46.46,0,0,0,.92,0,4.56,4.56,0,0,1,.92-2.77C394.65,55.7,393.72,55.15,393.36,55.7Z" transform="translate(-1)"/><path class="cls-19" d="M464.11,90c8.85-8.85,9.4-23.59,11.06-37.05l3.13-3.31-3.87-.92-4.79,3.5S466,69.7,457.3,75.79c-6.45,4.42-29.12,2.76-32.07,9.95C416.57,106.93,453.61,100.67,464.11,90Z" transform="translate(-1)"/><path class="cls-22" d="M413.81,82.6s1.66,14.56,16.77,19.17l12.9-.37s2.58-15.66-1.1-23C442.38,78.37,431.14,78.37,413.81,82.6Z" transform="translate(-1)"/><path class="cls-19" d="M348,52.75s-2.77,3.5-1.66,6.63a4.46,4.46,0,0,1-1.29,5l6.45.37s2.94-5.35,2.76-6.82C353.91,56.44,348,52.75,348,52.75Z" transform="translate(-1)"/><path class="cls-19" d="M351.34,52a1,1,0,0,0-.93,1.29c0,.19.19.37.37.56.74.55,1.66,1.29,1.29,2.21a19.84,19.84,0,0,0-.55,4.42c.18.37,2,.37,2,.18.37-1.1,2.21-4.79.55-7.18A4.11,4.11,0,0,0,351.34,52Z" transform="translate(-1)"/><path class="cls-22" d="M496.92,60.31a.57.57,0,0,0,0-.74c-.37-.55-10.14-12.72-17.32-13.64A5.11,5.11,0,0,0,475.54,47c-7,5.89,5.9,26.72,6.45,27.64.19.37.56.37.92.18s.37-.55.19-.92c-3.5-5.71-11.61-21.56-6.64-25.8a4.6,4.6,0,0,1,3.14-.92c6.63.74,16.21,12.9,16.4,13.09,0,.36.55.36.92,0Z" transform="translate(-1)"/><path class="cls-26" d="M499.13,58.09a.84.84,0,0,0,0-.92c-.55-.73-15.85-16.77-22.85-10.87s7.37,25.43,7.92,26.17a.63.63,0,0,0,.92.18.64.64,0,0,0,.19-.92c-3.87-5.34-13.09-20.09-8.11-24.32s16.77,6.26,21,10.68c0,.37.55.37.92,0Z" transform="translate(-1)"/><path class="cls-27" d="M334,71.73c-.19-.18-.37-.55-.19-.74.19-.55,6.09-15.11,12.9-17.87a5.65,5.65,0,0,1,4.24,0c8.3,3.68,1.85,27.27,1.48,28.38a1,1,0,0,1-.92.55,1,1,0,0,1-.56-.92c1.85-6.45,5.16-24-.73-26.72a4.58,4.58,0,0,0-3.14,0c-6.26,2.58-12,17-12.16,17.14C334.94,71.73,334.39,71.92,334,71.73Z" transform="translate(-1)"/><path class="cls-18" d="M322.22,61.78l34.09,19.54-14.37,35L299,94.77Z" transform="translate(-1)"/><path class="cls-28" d="M360,80.58l-3.69.74-14.37,35L353,118Z" transform="translate(-1)"/><path class="cls-26" d="M322.23,61.78l3.31-.18,34.47,19-3.69.74Z" transform="translate(-1)"/><path class="cls-22" d="M331.43,71.36A1.47,1.47,0,1,0,330,69.89,1.47,1.47,0,0,0,331.43,71.36Z" transform="translate(-1)"/><path class="cls-22" d="M348.94,81.5A1.48,1.48,0,1,0,347.47,80,1.48,1.48,0,0,0,348.94,81.5Z" transform="translate(-1)"/><path class="cls-28" d="M331.25,70.07a.8.8,0,0,1-.18-.92c.37-.92,10.5-20.45,19-16.77,8.29,3.69,0,26.36-.37,27.28a.67.67,0,0,1-.92.37.69.69,0,0,1-.37-.93c2.4-6.26,7-23,1.11-25.61s-14.38,10.69-17.14,16.22c-.19.55-.55.73-1.11.36Z" transform="translate(-1)"/><path class="cls-19" d="M353.17,58.65a1.15,1.15,0,0,0,.19-1.48c-.37-.37-.92.37-.92.37.18-.18.37-.55.55-.74.18-.55.37-1.65-.74-1.65a2.69,2.69,0,0,0-1.1.36,1.78,1.78,0,0,0-.19-1.65c-.55-.93-1.29-.56-2,0,.36-.74.55-1.48-.37-2a2.82,2.82,0,0,0-2,.55,7.9,7.9,0,0,0-2.21,2,1.39,1.39,0,0,0,1.1,2c.37,0,.56-.19.93-.19a1.24,1.24,0,0,0-.19,1.84,1.92,1.92,0,0,0,2.21,0c0,.37,0,.93.37,1.11a1.21,1.21,0,0,0,1.11,0v.18C350.41,60.49,352.07,59.94,353.17,58.65Z" transform="translate(-1)"/></g><path class="cls-12" d="M124.88,271.65a2,2,0,0,0,1.81-2.22l-2.93-33.34-6.66.6,5.45,33A2.27,2.27,0,0,0,124.88,271.65Z" transform="translate(-1)"/><path class="cls-12" d="M104.67,272.56a2.1,2.1,0,0,0,2.12-1.92l1.31-39-6.67-.1,1.22,39A2,2,0,0,0,104.67,272.56Z" transform="translate(-1)"/><path class="cls-12" d="M4.94,271.65a2,2,0,0,1-1.82-2.22l4.35-43,6.67.6L7.27,269.83A2.28,2.28,0,0,1,4.94,271.65Z" transform="translate(-1)"/><path class="cls-12" d="M25.15,272.56A2.1,2.1,0,0,1,23,270.64L21.72,227.5l6.67-.1-1.22,43.24A2,2,0,0,1,25.15,272.56Z" transform="translate(-1)"/><path class="cls-13" d="M131.44,238.91a3.36,3.36,0,0,1-3.33,3.34H29.29s-.81-.2-2-.61c-5.05-1.61-18-5.86-18.89-7.17C7.27,232.75,4.24,202,4.24,202h98.81a3.45,3.45,0,0,1,3.64,3.13L107.8,227a9.34,9.34,0,0,0,9.29,8.59h11A3.23,3.23,0,0,1,131.44,238.91Z" transform="translate(-1)"/><path class="cls-29" d="M131.44,238.91a3.36,3.36,0,0,1-3.33,3.34H27.27v-6.77H128.11A3.38,3.38,0,0,1,131.44,238.91Z" transform="translate(-1)"/><path class="cls-12" d="M29.19,242.25h-11A16.23,16.23,0,0,1,2.11,227.5L1,205.67A3.45,3.45,0,0,1,4.13,202a3.45,3.45,0,0,1,3.64,3.13L8.88,227a9.36,9.36,0,0,0,9.3,8.59h11a3.37,3.37,0,0,1,3.34,3.33A3.25,3.25,0,0,1,29.19,242.25Z" transform="translate(-1)"/><path class="cls-19" d="M127.31,198.4a.47.47,0,0,0-.31-.51,1,1,0,0,0,.51-.8c0-.41-.2-.61-.61-.71h-.2v-.1c0-.1-.1-.21-.2-.31a2.81,2.81,0,0,0-1.82-.1c-1.72.31-2.53,0-3-.4.5-.3.6-.4,1-.4.2,0,.5,0,.6-.21s0-.4-.1-.5a6.6,6.6,0,0,0-1.31-.41.63.63,0,0,0-.71.21,5.76,5.76,0,0,0-2.52,5.05,8.63,8.63,0,0,0,1.31,2.22c.1-.3,1.62-1.82,1.62-2.32,1.51.7,3.33,1.11,3.63.3C126.29,199.51,127.31,199.31,127.31,198.4Z" transform="translate(-1)"/><path class="cls-19" d="M102.75,208.4a23.39,23.39,0,0,0,6.47,3.54c1.11.4,2.32-.1,3.54-1C117,207.7,121.44,199,121.44,199c0-1.22-2.32-2.43-2.32-2.43-1.92,2-8.59,8.59-9,8.29s-6-11.12-5.66-11.32c.91-.81-8.89-.61-8.89-.61C94.57,198.8,97.6,204.46,102.75,208.4Z" transform="translate(-1)"/><path class="cls-20" d="M101.34,199.81a.75.75,0,0,1,.5-.1.56.56,0,0,1,.51.31,26.31,26.31,0,0,0,3.94,6.46c1.41,1.62,3.84,4.45,6.26,4.35.1,0,.2,0,.2.1-1.31,1-2.52,1.41-3.53,1a28.26,28.26,0,0,1-6.47-3.54c-.1-.1-.1-.1-.1-.2a16.27,16.27,0,0,1-2.83-6.47C99.62,200.42,100.43,200.52,101.34,199.81Z" transform="translate(-1)"/><path class="cls-12" d="M126.8,238.91h-4.25V223.46a2.67,2.67,0,0,0-2.62-2.63H104.67v-4.24H120a6.88,6.88,0,0,1,6.87,6.87v15.45Z" transform="translate(-1)"/><path class="cls-19" d="M47.59,204.56s6.06,13.34,12.42,16c4.15,1.71,4.55,6.36,11.62,6.46a3.41,3.41,0,0,0,2.23-1.31C72.64,224,64,214,62.64,212.85c-.4-.41-7.38-23.14-10.31-25.46S47.59,204.56,47.59,204.56Z" transform="translate(-1)"/><path class="cls-19" d="M76.08,266.7c-.5-.4-4.65,1.52-4.65,1.72.11.81.91,3.84,1.52,4.14s4.75-1.21,4.55-1.92S76.59,267,76.08,266.7Z" transform="translate(-1)"/><path class="cls-20" d="M65.37,223c-5.36-.91-9-4.14-11.42-9a13.13,13.13,0,0,1-1.11-7.07c.2-2.53.3-5.26,1.82-7.38.4-.5,1.11.1.81.61-.1.1-.1.2-.21.3v.1c.51,4.35.71,10.51,3.74,14,2.33,2.72,5.36,4.14,6.87,7.67A.47.47,0,0,1,65.37,223Z" transform="translate(-1)"/><path class="cls-30" d="M72.24,271.75s-1,3.44,1.11,5.15c0,0,10.31-2.92,13.24-4.44,0,0-1.22-3.74-3.94-3.23a54.58,54.58,0,0,0-5.36,1.51S74.87,273.17,72.24,271.75Z" transform="translate(-1)"/><path class="cls-31" d="M38.19,228.91c2.73,5.36,12.33,7.48,19.4,9.4,4.24,1.11,7.68,2.12,8.08,3.74,1.82,6.06,3,22,4.75,27.68.61.71,1.82.71,3.13.51A25,25,0,0,0,78,268.82c-.4-12.43.61-24.15-1.31-32.73-3.34-14.55-25.36-21.22-25.36-21.22C47.39,210.52,33.44,219.62,38.19,228.91Z" transform="translate(-1)"/><path class="cls-19" d="M53.55,271.35c-.3-.61-4.65-1.31-4.85-1-.3.81-1.31,3.74-1,4.24s4.65,1.62,4.85.81C52.84,274.78,53.75,272,53.55,271.35Z" transform="translate(-1)"/><path class="cls-32" d="M48.19,218a.37.37,0,0,1,.51.4.1.1,0,0,1,.1.11c4.34,3,10.2,4.24,13.44,8.58A14,14,0,0,1,64.46,233c.6,3.24,1.92,5.76,3.33,8.69a75,75,0,0,1,5.26,17,31.22,31.22,0,0,1,.7,8.69,15.34,15.34,0,0,1-.3,2.93c-1.31.2-2.52.2-3.13-.51-1.72-5.56-2.93-21.62-4.75-27.68-.51-1.52-3.84-2.63-8.08-3.74a68.41,68.41,0,0,0-5.05-5.56c-2.33-2.32-5.06-4.24-7.28-6.57C41.93,222.65,44,219.21,48.19,218Z" transform="translate(-1)"/><path class="cls-30" d="M47.69,273.57s-2.73,2.32-1.92,4.95c0,0,10.3,3.24,13.54,3.54,0,0,1.11-3.84-1.52-4.85a43.75,43.75,0,0,0-5.35-1.62S49,276.2,47.69,273.57Z" transform="translate(-1)"/><path class="cls-31" d="M24.75,229.52c4.35,8.49,21,6.06,22.23,10.2,1.82,6.07,2.93,28.09.6,31.63a5,5,0,0,0,.71.6,16.48,16.48,0,0,0,5.26,2.13c3.84-8.49,7.67-25.06,8.28-34.66.91-14.85-24-24.15-24-24.15-3.13-3.43-13,1.92-14,9.1A9.46,9.46,0,0,0,24.75,229.52Z" transform="translate(-1)"/><path class="cls-10" d="M46.68,195.67a15.82,15.82,0,0,0-.61,3.13A14.12,14.12,0,0,0,47.59,207c1.61,3,12.12-7.18,10.71-10.81-2.13-5.46-5.06-12.43-8-14.75S46.68,195.67,46.68,195.67Z" transform="translate(-1)"/><path class="cls-32" d="M23.84,224.47a4.54,4.54,0,0,1,2.63-.51c.51,0,.51.71.2.91,2.33,6.47,9.6,8.18,15.66,9.4,4.35.81,7.78,2.12,8.69,6.77a76.14,76.14,0,0,1,.71,8.48c.2,2.73.5,5.56.5,8.29a26.28,26.28,0,0,1-3.94,14,4.35,4.35,0,0,1-.7-.6c2.32-3.54,1.11-25.57-.61-31.63-1.21-4.14-18-1.72-22.23-10.2A7.94,7.94,0,0,1,23.84,224.47Z" transform="translate(-1)"/><path class="cls-33" d="M50.62,181.83a14.16,14.16,0,0,1,2.83,10.51c-.4,3.43-.91,11.11,0,12.12-1.31,2.53-7.07,2.63-6.57,1.31l-1.21-3.33s-1.31-3.74-.81-4.34S50.62,181.83,50.62,181.83Z" transform="translate(-1)"/><path class="cls-34" d="M55.47,216.18c-.1.51-6.77,4.25-10.41,5.66-6.36,2.42-17.17,4.24-20,3.74-1.11-.2-1.82-.51-2-.91-.51-1.11,1.31-12.33,1.11-19.8,0-1.42-.1-2.93-.1-4.35,0-7.48.5-14.55,2.22-15.86a13,13,0,0,1,1.31-.91,28.16,28.16,0,0,1,2.53-1.52,25.28,25.28,0,0,1,5.25-2,22.77,22.77,0,0,1,10.51-.2,19.45,19.45,0,0,1,2.93.91c.2.1.51.2.71.3,3.33,1.32,2.83,8.59,2.32,14.65a69.58,69.58,0,0,0-.4,7,8.86,8.86,0,0,0,.2,1.61C52.44,208.81,54.86,213,55.47,216.18Z" transform="translate(-1)"/><path class="cls-10" d="M56.88,216.38c-.1.51-8.89,4.55-13.74,6.57-6.26,2.63-15.25,3.13-18.08,2.63-1.12-.2-1.82-.51-2-.91-.51-1.11,1.31-12.33,1.11-19.8,0-1.42-.1-2.93-.1-4.35,0-7.48.5-14.55,2.22-15.86a13,13,0,0,1,1.31-.91,28.16,28.16,0,0,1,2.53-1.52,25.28,25.28,0,0,1,5.25-2,22.77,22.77,0,0,1,10.51-.2,19.45,19.45,0,0,1,2.93.91c.2.1.51.2.71.3,3.33,1.32,2.83,8.59,2.32,14.65C51.63,198.6,57.59,216,56.88,216.38Z" transform="translate(-1)"/><path class="cls-19" d="M43,176.27v3.24s.81,1.41,0,1.51c-1.72.3-4.14-1.51-4.14-1.51v-5Z" transform="translate(-1)"/><path class="cls-20" d="M38.9,177v-2.22s1.81,2.32,3.83,2.42A3.82,3.82,0,0,1,38.9,177Z" transform="translate(-1)"/><path class="cls-19" d="M44.05,168A22.3,22.3,0,0,1,46,174c.3,2-3.43,4.75-6.47,1.82s-2.22-7.28-2.22-7.28Z" transform="translate(-1)"/><path class="cls-33" d="M27.78,211.43a110.26,110.26,0,0,1-2.72,14c-1.12-.21-1.82-.51-2-.91-.5-1.11,1.32-12.33,1.12-19.81,0-1.41-.11-2.93-.11-4.34a36.77,36.77,0,0,1,2.13-3.84A79.23,79.23,0,0,0,32,186.38a10.91,10.91,0,0,0-1.82-2.93,5.64,5.64,0,0,1,3.23,1.41c5.56,4.55,6.77,13.64,3.34,18.49C34.45,206.79,28.29,207.19,27.78,211.43Z" transform="translate(-1)"/><path class="cls-33" d="M46.47,167.08c-1.31,2.12-4.85,2.32-7.57,2.42,0,.31.1.61.1.81.1,1,.7,2.12.3,3.13a1.33,1.33,0,0,1-1.62.81,1.12,1.12,0,0,1-.7-.81,6.06,6.06,0,0,1-.21-6.26,4.42,4.42,0,0,1,2.83-1.52,6.78,6.78,0,0,0,2.43-.81,3.74,3.74,0,0,1,1.41-.7C45.67,163.54,47.89,164.85,46.47,167.08Z" transform="translate(-1)"/><path class="cls-12" d="M29.09,240H24.85V224.57a2.67,2.67,0,0,0-2.63-2.63H6.87V217.7H22.22a6.88,6.88,0,0,1,6.87,6.87Z" transform="translate(-1)"/><path class="cls-19" d="M73.15,224.16c-.91-.91-2.43-1.71-3.44-.6l-.3.3a4.26,4.26,0,0,0,.2,3.84c.3.4,1,.2.91-.3a15.19,15.19,0,0,1-.1-2.13,2.91,2.91,0,0,1,.5,4.25c-.2.3.1.71.51.71a.78.78,0,0,0,.71-.51c-.11.3-.11.51-.21.81-.1.5.41.71.81.5a1.8,1.8,0,0,0,.71-.8c.3.2.81.2.81-.31s.1-.7.1-1.11a.37.37,0,0,0,.4-.4A5.49,5.49,0,0,0,73.15,224.16Z" transform="translate(-1)"/><path class="cls-19" d="M125.18,264.07c-.4-.5-4.44,0-4.54.31-.1.8-.41,3.94,0,4.34s4.44.2,4.54-.5S125.49,264.58,125.18,264.07Z" transform="translate(-1)"/><path class="cls-30" d="M120.33,267.81s-2,2.93-.71,5.26c0,0,9.91.2,12.84-.41,0,0,.2-3.94-2.33-4.14a30.53,30.53,0,0,0-5.15-.1S122.15,269.93,120.33,267.81Z" transform="translate(-1)"/><path class="cls-10" d="M89.82,225.17c2.43,5.36,11.22,7.48,17.68,9.4,3.94,1.11,7,2.12,7.38,3.74,1.62,6.06,2.73,22.13,4.34,27.68.51.71,1.72.71,2.93.51a21.68,21.68,0,0,0,4-1.42c-.3-12.42.61-24.14-1.21-32.73-3-14.55-23.13-21.22-23.13-21.22C98.31,206.89,85.58,215.88,89.82,225.17Z" transform="translate(-1)"/><path class="cls-19" d="M103.86,267.61c-.2-.61-4.24-1.31-4.34-1-.3.81-1.21,3.74-.91,4.24s4.25,1.62,4.45.81C103.16,271.05,104.07,268.22,103.86,267.61Z" transform="translate(-1)"/><path class="cls-33" d="M98.91,214.26c.3-.1.51.1.51.41a.1.1,0,0,1,.1.1c3.94,3,9.29,4.24,12.22,8.58a14.88,14.88,0,0,1,2,5.87,42.26,42.26,0,0,0,3,8.68,79.37,79.37,0,0,1,4.75,17,41.24,41.24,0,0,1,.71,8.69,28.84,28.84,0,0,1-.2,2.93c-1.21.2-2.33.2-2.93-.51-1.52-5.55-2.73-21.62-4.35-27.68-.4-1.52-3.53-2.63-7.37-3.74a62.21,62.21,0,0,0-4.65-5.56c-2.12-2.32-4.55-4.24-6.67-6.56C93.25,218.91,95.07,215.48,98.91,214.26Z" transform="translate(-1)"/><path class="cls-30" d="M98.41,269.83s-2.53,2.33-1.72,4.95c0,0,9.4,3.24,12.33,3.54,0,0,1-3.84-1.42-4.85a33.8,33.8,0,0,0-4.85-1.62S99.72,272.46,98.41,269.83Z" transform="translate(-1)"/><path class="cls-10" d="M77.6,225.78c3.94,8.49,19.19,6.06,20.3,10.21,1.62,6.06,2.63,28.08.61,31.62.2.2.41.4.61.61a14,14,0,0,0,4.75,2.12c3.53-8.49,7.07-25.06,7.57-34.66.81-14.85-21.92-24.15-21.92-24.15-2.83-3.43-11.92,1.92-12.73,9.1A9.26,9.26,0,0,0,77.6,225.78Z" transform="translate(-1)"/><path class="cls-33" d="M76.79,220.73c.7-.41,2.32,8.18,16.87,9.8,3.94.4,7.07,2.12,7.88,6.77a76.32,76.32,0,0,1,.71,8.49c.2,2.72.4,5.55.4,8.28a29,29,0,0,1-3.53,14,3.16,3.16,0,0,1-.61-.6c2.12-3.54,1-25.56-.61-31.63-1.11-4.14-16.36-1.71-20.3-10.2A8.52,8.52,0,0,1,76.79,220.73Z" transform="translate(-1)"/><path class="cls-33" d="M96.59,171.42c1-2.73,5-5.86,7.88-3.53,1.61,1.31,1.82,3.94,2,6,.1,1.41.1,2.93.3,4.34a7.33,7.33,0,0,0,1.11,3c.71.91,3.84,2.83,3.14.31-.11-.41.3-.61.7-.61,2,.51,1.72,3.64.71,5-1.52,2-5.46,2-7.78,1.92-2.63-.1-4.24-1.72-5-4.24a57.5,57.5,0,0,1-1.11-5.86c-.41-2-1.82-3.74-2-5.76v-.1C96.49,171.62,96.49,171.52,96.59,171.42Z" transform="translate(-1)"/><path class="cls-31" d="M93.25,199.11A13.85,13.85,0,0,0,99,200.93a5,5,0,0,0,1.21.1,31,31,0,0,0,8-1.92c.1-1-1.42-7.38-3.74-11.62a15.41,15.41,0,0,0-2.43-3.34c-1-1.11-2.12-1.92-3.33-1.72a1.48,1.48,0,0,0-.61.21C94.16,184.46,93.45,192.94,93.25,199.11Z" transform="translate(-1)"/><path class="cls-32" d="M96.69,198.9A20.57,20.57,0,0,1,99,201c.41.4.71.7.91.91.1-.21.1-.51.2-.81,1.12-3.44,4.35-11,3.44-13.54a12.65,12.65,0,0,0-1.62-3.34c-1-1.11-2.12-1.92-3.33-1.71.6,1,1.72,3,2.22,3.84a12.52,12.52,0,0,1-.3,7.47C100.43,194.16,96.79,198.4,96.69,198.9Z" transform="translate(-1)"/><path class="cls-31" d="M76.38,213.55c.11,0,.11.11.21.11.3.1.7.3,1,.4h.1c.3.1.71.2,1,.3s.5.1.71.21.3.1.4.1.5.1.71.2c10.81,2.42,24.15-1.72,24.75-1.92,0-.1-.1-.2-.2-.51,0-.1,0-.1-.1-.2s-.1-.2-.1-.3a11.93,11.93,0,0,1-.61-1.52,4.59,4.59,0,0,1-.3-.71.31.31,0,0,0-.1-.2,1.42,1.42,0,0,1-.2-.6c-.51-1.32-1.22-2.93-1.92-4.55-.21-.51-.41-1-.61-1.41-.51-1-.91-2-1.42-2.93-.1-.11-.1-.21-.2-.41s-.1-.2-.2-.3c-.91-2.12-.51-3.34.4-4.55.51-.71,1.12-1.31,1.82-2.12a6.24,6.24,0,0,0,1.52-3.64c.1-2.22-1.42-4.95-3.94-6.57-.81-.5-1.72-1-2.53-1.41a49.49,49.49,0,0,0-4.65-2,32.66,32.66,0,0,0-4.44,0,12.87,12.87,0,0,0-3.13.61c-7.08,2.22-4.45,9.39-3.14,15.56a14.64,14.64,0,0,1,.31,2c0,.3.1.7.1,1,0,.81-1,7.37-1,7.37s-.31.91-.41,1.11a6.06,6.06,0,0,1-.7,1.42c-.1.3-.31.5-.41.81l-.2.4-.3.61c-.31.5-.51.91-.81,1.41a2.28,2.28,0,0,1-.3.51A10.09,10.09,0,0,0,76.38,213.55Z" transform="translate(-1)"/><path class="cls-32" d="M86.79,194.46c-.61,2.12-4,5.56-5.36,6.57,0-.31.31-3.54.31-3.94-.11-.71-.21-1.32-.31-2a9.9,9.9,0,0,1,2.23-2.83c2.93-2.73,1.31-11.83,1.31-11.83C89.62,182.84,87.39,192.13,86.79,194.46Z" transform="translate(-1)"/><path class="cls-19" d="M93.76,176.78v2.83s.81,1.41,0,1.51c-1.72.31-4.14-2.32-4.14-2.32V175Z" transform="translate(-1)"/><path class="cls-20" d="M93.76,178.7v-2.23A12.64,12.64,0,0,1,89.92,178C89.92,178.09,92.65,179.81,93.76,178.7Z" transform="translate(-1)"/><path class="cls-19" d="M89.32,169.2a22.3,22.3,0,0,0-1.92,6c-.31,2,3.43,4.75,6.46,1.82s2.23-7.28,2.23-7.28Z" transform="translate(-1)"/><path class="cls-33" d="M90.22,167.08c2.53-1.52,6.27-1.42,7.88,2,.71,1.51-.3,4.34-1.31,5.86-.71,1.11-2.12,2-2.93.61a5.65,5.65,0,0,1-.4-3.44v-1.21a3.08,3.08,0,0,0-2.33-1.42c-.2.21-2.52,2.73-3.64,1C84.77,166.27,89.92,167.38,90.22,167.08Z" transform="translate(-1)"/><path class="cls-34" d="M93.76,171.42s1.21-.6,1.42.41a1.09,1.09,0,0,1-1.12,1.41A1.7,1.7,0,0,1,93.76,171.42Z" transform="translate(-1)"/><path class="cls-19" d="M95.58,210.52s-1.62,2.93-1.82,3.24c0,0-1.21.3-3,.6a16.76,16.76,0,0,1-3.44.31h-2c-5-.1-11.41-1.12-15.86-3.54C63.35,207.9,68,195,74.87,190.21c0,0,8.79,5.36,7.78,5.87-.41.2-6.37,8.58-6,9s1.12,1.61,2.23,2a56.92,56.92,0,0,0,6.67,1.72c.3.1.7.1,1,.2s.5.1.7.1C91.64,209.92,95.38,210.42,95.58,210.52Z" transform="translate(-1)"/><path class="cls-20" d="M86.49,209.51c-3.54,1.11-9.5.21-12.33-2.42-3.13-2.93,2.83-8.29,5-10.31-.1-.4,1.82.91,2.12,1.32-1.71,2.32-4.44,6.36-4.24,7a3.59,3.59,0,0,0,2,2,55.91,55.91,0,0,0,7.78,1.82C86.79,209.21,86.79,209.41,86.49,209.51Z" transform="translate(-1)"/><path class="cls-31" d="M82,198.8c.61-.8,4.85-6.67,4.85-11.41,0-2.23-.4-7.08-3.13-7.28-4.45-.3-9.09,6.77-12.33,12A13.83,13.83,0,0,0,82,198.8Z" transform="translate(-1)"/><path class="cls-19" d="M91.74,213.45c.2.71,1.31.81,1.82,1.12.7.3,2.12,2.32,2.93,2.22,1.21-.1-.91-1.52-.31-1.82.21-.1,3,2.32,2.53.51-.1-.41-1.52-1.72-.81-1.62.71.4,2.12,1.72,2.53,1,.2-.3-.51-1.11-1-1.42-2.12-1.41-.91-1.11.5-.1.71.51,1.22.2.81-.6-1-1.82-3.64-2.33-5.45-2.23C94.67,210.52,91.23,211.84,91.74,213.45Z" transform="translate(-1)"/><path class="cls-19" d="M96.08,210.83a3.38,3.38,0,0,1,.91-.31,2.58,2.58,0,0,0,.91-.5c.41-.4-.1-.61-.5-.61-.71,0-2.12,1-2.73,1.42A6.35,6.35,0,0,0,96.08,210.83Z" transform="translate(-1)"/><path class="cls-19" d="M38.19,209.11l-2,3.43s-16.37,10.31-20.92,6.17c-4.34-4-3.23-11.62-.1-18.8.1-.1.61-1.51,1.52-3.33a4.11,4.11,0,0,1,.5-.91c1.32-2.32,3.23-5,5.46-6.16s8.08,6.46,7,8.79c-.3.71-1.21,2.42-2.22,4.24-2.33,4.45-5.06,10.11-2.23,9.09a43.93,43.93,0,0,1,7.08-2A48.38,48.38,0,0,1,38.19,209.11Z" transform="translate(-1)"/><path class="cls-20" d="M32.33,209.72A4.59,4.59,0,0,1,30,211.53c-1.21.51-2.53,1-3.74,1.52a3.9,3.9,0,0,1-1.52.5c-2.12.21-2.62-1.61-2.52-3.33a14.45,14.45,0,0,1,.5-2.22c.31-1.62.21-1.52-.8-2.33a33.27,33.27,0,0,1-3.74-3,6,6,0,0,1-1.52-6h-.1c-.5-.4-.1-1.21.4-.91a.58.58,0,0,1,.81.51c2,1.21,4,2.52,6,3.74.91.6,2.83,1.31,3.44,2.42,0,.1.1.2.1.3-2.32,4.45-5.05,10.11-2.22,9.1A41.72,41.72,0,0,1,32.33,209.72Z" transform="translate(-1)"/><path class="cls-10" d="M27.38,203.85c.81-.8,6.06-6.26,6.77-11.61.3-2.43-.61-8.19-3.64-8.79-4.85-.91-10.91,6.16-15.16,11.51C17.48,199.51,21.92,202.64,27.38,203.85Z" transform="translate(-1)"/><path class="cls-19" d="M37.08,208.1c1.71-.71,4.44-1.11,6,.2.71.61.3,1.11-.51.91-1.61-.5-2.93-.4-.4.3.5.11,1.51.61,1.41,1-.2.81-1.92.1-2.72-.1-.71.2,1.11.91,1.31,1.32,1,1.51-2.43.2-2.63.3-.5.5,1.92,1.11.81,1.62-.81.4-2.83-1-3.54-1.12s-1.11.31-1.51-.2C34.15,211,36.37,208.4,37.08,208.1Z" transform="translate(-1)"/><path class="cls-19" d="M36.37,208.6c.41-.6,1.42-2,2.12-2.22.41-.1.91-.1.71.41-.1.3-.51.6-.71.8a3.47,3.47,0,0,1-.7.61A3.3,3.3,0,0,1,36.37,208.6Z" transform="translate(-1)"/></svg>