<svg id="Layer_1" data-name="Layer 1" xmlns="http://www.w3.org/2000/svg" viewBox="0 0 191 191"><defs><style>.cls-1{fill:#168dcd;}.cls-2{fill:#fff;}</style></defs><title>ayuda_splash_box_vehicles</title><rect class="cls-1" width="191" height="191" rx="10"/><path class="cls-2" d="M278.09,452.15h-1.57l-3.66-10.71h1.5l3,9.29h0l3-9.29h1.43Z" transform="translate(-210.5 -301)"/><path class="cls-2" d="M288.16,449.69a3,3,0,0,1-3.2,2.64,3.23,3.23,0,0,1-2.66-1.16,4.8,4.8,0,0,1-.94-2.92,4.25,4.25,0,0,1,1-2.9,3.2,3.2,0,0,1,2.52-1.13,2.87,2.87,0,0,1,2.73,1.49,5.43,5.43,0,0,1,.67,2.94h-5.62a2.62,2.62,0,0,0,.55,1.77,2.13,2.13,0,0,0,1.8.78,1.81,1.81,0,0,0,1.94-1.51ZM287,447.53a2.4,2.4,0,0,0-.64-1.56,2.06,2.06,0,0,0-1.53-.63,2,2,0,0,0-1.51.63,2.56,2.56,0,0,0-.64,1.56Z" transform="translate(-210.5 -301)"/><path class="cls-2" d="M289.45,441.44h1.23v4.1h0a2.11,2.11,0,0,1,1-1,3.16,3.16,0,0,1,1.35-.3,2.46,2.46,0,0,1,2.05.77,3.42,3.42,0,0,1,.54,2.06v5.1h-1.23V446.9a1.41,1.41,0,0,0-1.53-1.56,2.08,2.08,0,0,0-1.66.68,2.61,2.61,0,0,0-.57,1.75v4.38h-1.23Z" transform="translate(-210.5 -301)"/><path class="cls-2" d="M298.72,443h-1.23v-1.55h1.23Zm-1.23,1.4h1.23v7.76h-1.23Z" transform="translate(-210.5 -301)"/><path class="cls-2" d="M305.47,446.89a1.76,1.76,0,0,0-1.86-1.55,2,2,0,0,0-1.83.92,3.91,3.91,0,0,0-.51,2.11,3.39,3.39,0,0,0,.52,1.93,1.8,1.8,0,0,0,1.67.9,1.93,1.93,0,0,0,2.06-1.88h1.27a3.12,3.12,0,0,1-3.31,3,3.21,3.21,0,0,1-2.62-1.13,4.21,4.21,0,0,1-.9-2.83,4.69,4.69,0,0,1,.89-2.95,3.12,3.12,0,0,1,2.65-1.2,3.78,3.78,0,0,1,2.22.63,2.76,2.76,0,0,1,1,2Z" transform="translate(-210.5 -301)"/><path class="cls-2" d="M308.13,441.44h1.23v10.71h-1.23Z" transform="translate(-210.5 -301)"/><path class="cls-2" d="M317.41,449.69a3.06,3.06,0,0,1-3.21,2.64,3.25,3.25,0,0,1-2.66-1.16,4.8,4.8,0,0,1-.94-2.92,4.25,4.25,0,0,1,1-2.9,3.22,3.22,0,0,1,2.53-1.13,2.89,2.89,0,0,1,2.73,1.49,5.52,5.52,0,0,1,.67,2.94H311.9a2.63,2.63,0,0,0,.56,1.77,2.11,2.11,0,0,0,1.79.78,1.82,1.82,0,0,0,1.95-1.51Zm-1.18-2.16a2.4,2.4,0,0,0-.64-1.56,2.06,2.06,0,0,0-1.53-.63,2,2,0,0,0-1.52.63,2.62,2.62,0,0,0-.64,1.56Z" transform="translate(-210.5 -301)"/><path class="cls-2" d="M319.44,449.7a1.38,1.38,0,0,0,.66,1.17,2.53,2.53,0,0,0,1.37.33,3.18,3.18,0,0,0,.62-.06,1.83,1.83,0,0,0,.59-.16,1.27,1.27,0,0,0,.46-.36,1,1,0,0,0,.15-.57.91.91,0,0,0-.2-.62,1.44,1.44,0,0,0-.55-.39,9.68,9.68,0,0,0-1.71-.43l-.43-.14-.46-.13a3.16,3.16,0,0,1-.78-.39,1.87,1.87,0,0,1-.79-1.53,2,2,0,0,1,.26-1,2.34,2.34,0,0,1,.66-.67,3.6,3.6,0,0,1,1.88-.5,4,4,0,0,1,2.14.49,2.3,2.3,0,0,1,.94,1.94H323a1.28,1.28,0,0,0-.6-1,2.34,2.34,0,0,0-1.14-.27,3,3,0,0,0-1.07.2.81.81,0,0,0-.54.79.68.68,0,0,0,.24.54,1.68,1.68,0,0,0,.58.36,5.22,5.22,0,0,0,.81.23l.84.22a5.3,5.3,0,0,1,.91.25,2.56,2.56,0,0,1,.79.4,1.72,1.72,0,0,1,.56.61,2.3,2.3,0,0,1-.82,2.85,4.43,4.43,0,0,1-2.18.54,3.8,3.8,0,0,1-2.18-.6,2.53,2.53,0,0,1-1-2Z" transform="translate(-210.5 -301)"/><path class="cls-2" d="M335.63,441a7.15,7.15,0,1,0,7.15,7.14A7.15,7.15,0,0,0,335.63,441Zm-.86,10.44a.66.66,0,1,1-.94-.94l2.36-2.36-2.36-2.36a.65.65,0,0,1,0-.93.66.66,0,0,1,.94,0l3.27,3.31Z" transform="translate(-210.5 -301)"/><path class="cls-2" d="M349.77,350a5.64,5.64,0,0,1,5.6,5.61v5.69a5.65,5.65,0,0,1-5.6,5.61h-1.95v38.59a5.51,5.51,0,0,1-1.06,3.3,5.35,5.35,0,0,1-2.74,2V414A7.56,7.56,0,0,1,329,415.09a7,7,0,0,1,0-1.12v-2.74H287.67V414a7.56,7.56,0,1,1-15.11,0v-3.12a5.37,5.37,0,0,1-2.75-2,5.52,5.52,0,0,1-1-3.3V366.93h-2a5.66,5.66,0,0,1-5.6-5.61v-5.69a5.66,5.66,0,0,1,5.6-5.61h2v-9.37a9.12,9.12,0,0,1,1.47-4.81,8.78,8.78,0,0,1,3.59-3.4l1.93-.82A48.8,48.8,0,0,1,281.9,330a96.47,96.47,0,0,1,10.7-1.71,150.9,150.9,0,0,1,31.42,0A97.73,97.73,0,0,1,334.77,330a50,50,0,0,1,6.12,1.69l1.93.83a8.73,8.73,0,0,1,3.58,3.39,9.15,9.15,0,0,1,1.47,4.81v9.37Zm-9.46,1.84a1.88,1.88,0,0,0-1.84-1.84H278.21a1.87,1.87,0,0,0-1.84,1.84V382a1.87,1.87,0,0,0,.54,1.38,1.78,1.78,0,0,0,1.3.55h60.26a1.75,1.75,0,0,0,1.29-.55,1.92,1.92,0,0,0,.55-1.38Zm-59.26,51.81a4.5,4.5,0,0,0,3.31-1.37,4.61,4.61,0,0,0,1.37-3.4,4.67,4.67,0,0,0-8-3.31,4.5,4.5,0,0,0-1.37,3.3,4.55,4.55,0,0,0,1.37,3.4A4.48,4.48,0,0,0,281.05,403.67Zm8.45-66.78v3.76a1.73,1.73,0,0,0,.56,1.28,1.86,1.86,0,0,0,1.37.56h33.81a1.87,1.87,0,0,0,1.38-.56,1.72,1.72,0,0,0,.55-1.28v-3.76a1.87,1.87,0,0,0-1.84-1.93h-33.9a1.88,1.88,0,0,0-1.93,1.84Zm49.44,65.4a4.6,4.6,0,0,0,1.38-3.4,4.69,4.69,0,0,0-9.38,0,4.69,4.69,0,0,0,7.95,3.44l0,0Z" transform="translate(-210.5 -301)"/></svg>