<svg id="Layer_1" data-name="Layer 1" xmlns="http://www.w3.org/2000/svg" viewBox="0 0 191 191"><defs><style>.cls-1{fill:#9351a0;}.cls-2{fill:#fff;}</style></defs><title>ayuda_splash_box_locations</title><rect class="cls-1" width="191" height="191" rx="10"/><path class="cls-2" d="M267.92,442.44h1.38V452h5.49v1.2h-6.87Z" transform="translate(-210.5 -301)"/><path class="cls-2" d="M275.27,449.28a4.4,4.4,0,0,1,1-2.9,3.27,3.27,0,0,1,2.7-1.16,3.36,3.36,0,0,1,2.73,1.16,4.5,4.5,0,0,1,.92,2.9,4.42,4.42,0,0,1-.92,2.86,3.41,3.41,0,0,1-2.73,1.19,3.34,3.34,0,0,1-2.7-1.18A4.37,4.37,0,0,1,275.27,449.28Zm1.31,0a3.18,3.18,0,0,0,.69,2.16,2.18,2.18,0,0,0,3.31,0,3.18,3.18,0,0,0,.69-2.16,3.22,3.22,0,0,0-.69-2.18,2.18,2.18,0,0,0-3.31,0A3.22,3.22,0,0,0,276.58,449.28Z" transform="translate(-210.5 -301)"/><path class="cls-2" d="M289,447.89a1.75,1.75,0,0,0-1.86-1.55,2,2,0,0,0-1.83.92,3.91,3.91,0,0,0-.51,2.11,3.39,3.39,0,0,0,.52,1.93,1.81,1.81,0,0,0,1.67.9,1.94,1.94,0,0,0,2.07-1.88h1.26a3.12,3.12,0,0,1-3.31,3,3.18,3.18,0,0,1-2.61-1.13,4.21,4.21,0,0,1-.9-2.83,4.68,4.68,0,0,1,.88-2.95,3.12,3.12,0,0,1,2.66-1.2,3.77,3.77,0,0,1,2.21.63,2.81,2.81,0,0,1,1,2Z" transform="translate(-210.5 -301)"/><path class="cls-2" d="M298.25,453.12a1.58,1.58,0,0,1-.89.21q-1,0-1.05-1.2a3.37,3.37,0,0,1-2.65,1.2,2.73,2.73,0,0,1-1.74-.53,1.89,1.89,0,0,1-.74-1.64,2.19,2.19,0,0,1,.23-1.1,1.5,1.5,0,0,1,.57-.67,3.38,3.38,0,0,1,.83-.41,6.51,6.51,0,0,1,.92-.21c.35-.07.68-.12,1-.16a6.76,6.76,0,0,0,.8-.15.81.81,0,0,0,.74-.83,1.55,1.55,0,0,0-.13-.69,1.18,1.18,0,0,0-.4-.37,2.5,2.5,0,0,0-1.14-.23,2.48,2.48,0,0,0-1.3.3,1.4,1.4,0,0,0-.58,1.17h-1.23a2.46,2.46,0,0,1,1-2,4,4,0,0,1,2.18-.57c.35,0,.69,0,1,0a2.92,2.92,0,0,1,.9.32,1.81,1.81,0,0,1,.65.64,2.35,2.35,0,0,1,.23,1.11v4a1.83,1.83,0,0,0,.06.65.3.3,0,0,0,.33.22,1.28,1.28,0,0,0,.38-.07Zm-2-4a1.93,1.93,0,0,1-1,.33l-1.27.2a2.44,2.44,0,0,0-1.06.39,1.09,1.09,0,0,0-.46,1,1,1,0,0,0,.46.89,1.88,1.88,0,0,0,1,.25A2.69,2.69,0,0,0,295,452a2.14,2.14,0,0,0,.72-.44,1.71,1.71,0,0,0,.52-1.12Z" transform="translate(-210.5 -301)"/><path class="cls-2" d="M301,445.39h1.5v1.13H301v4.81a.63.63,0,0,0,.19.56,1.26,1.26,0,0,0,.75.13h.56v1.13h-.94a2.11,2.11,0,0,1-1.37-.33,1.7,1.7,0,0,1-.41-1.36v-4.94h-1.28v-1.13h1.28v-2.32H301Z" transform="translate(-210.5 -301)"/><path class="cls-2" d="M304.93,444H303.7v-1.55h1.23Zm-1.23,1.4h1.23v7.76H303.7Z" transform="translate(-210.5 -301)"/><path class="cls-2" d="M306.18,449.28a4.4,4.4,0,0,1,.94-2.9,3.27,3.27,0,0,1,2.7-1.16,3.36,3.36,0,0,1,2.73,1.16,4.5,4.5,0,0,1,.92,2.9,4.42,4.42,0,0,1-.92,2.86,3.41,3.41,0,0,1-2.73,1.19,3.34,3.34,0,0,1-2.7-1.18A4.37,4.37,0,0,1,306.18,449.28Zm1.3,0a3.18,3.18,0,0,0,.69,2.16,2.18,2.18,0,0,0,3.31,0,3.18,3.18,0,0,0,.69-2.16,3.22,3.22,0,0,0-.69-2.18,2.18,2.18,0,0,0-3.31,0A3.22,3.22,0,0,0,307.48,449.28Z" transform="translate(-210.5 -301)"/><path class="cls-2" d="M314.82,445.39H316v1.22h0a2.64,2.64,0,0,1,2.44-1.39,2.47,2.47,0,0,1,2.05.77,3.48,3.48,0,0,1,.53,2.06v5.1H319.8V447.9a1.4,1.4,0,0,0-1.53-1.56,2.08,2.08,0,0,0-1.65.68,2.61,2.61,0,0,0-.57,1.75v4.38h-1.23Z" transform="translate(-210.5 -301)"/><path class="cls-2" d="M323.53,450.7a1.38,1.38,0,0,0,.66,1.17,2.53,2.53,0,0,0,1.37.33,3.18,3.18,0,0,0,.62-.06,1.83,1.83,0,0,0,.59-.16,1.27,1.27,0,0,0,.46-.36,1,1,0,0,0,.15-.57.91.91,0,0,0-.2-.62,1.44,1.44,0,0,0-.55-.39,9.68,9.68,0,0,0-1.71-.43l-.43-.14-.46-.13a3.16,3.16,0,0,1-.78-.39,1.87,1.87,0,0,1-.79-1.53,2,2,0,0,1,.26-1,2.34,2.34,0,0,1,.66-.67,3.6,3.6,0,0,1,1.88-.5,4,4,0,0,1,2.14.49,2.3,2.3,0,0,1,.94,1.94h-1.23a1.28,1.28,0,0,0-.6-1,2.34,2.34,0,0,0-1.14-.27,3,3,0,0,0-1.07.2.81.81,0,0,0-.54.79.68.68,0,0,0,.24.54,1.68,1.68,0,0,0,.58.36,5.22,5.22,0,0,0,.81.23l.84.22a5.3,5.3,0,0,1,.91.25,2.56,2.56,0,0,1,.79.4,1.72,1.72,0,0,1,.56.61,2.3,2.3,0,0,1-.82,2.85,4.43,4.43,0,0,1-2.18.54,3.8,3.8,0,0,1-2.18-.6,2.53,2.53,0,0,1-1-2Z" transform="translate(-210.5 -301)"/><path class="cls-2" d="M340.56,441a7.15,7.15,0,1,0,7.15,7.15A7.15,7.15,0,0,0,340.56,441Zm-.87,10.44a.66.66,0,0,1-.93-.93l2.36-2.36-2.36-2.36a.66.66,0,0,1,.93-.93l3.28,3.31Z" transform="translate(-210.5 -301)"/><path class="cls-2" d="M309.56,400.07v-2.85a35.22,35.22,0,0,1,12.51,2.3q5.15,2.12,5.15,5c0,2-1.87,3.79-5.61,5.29a41.75,41.75,0,0,1-27,0c-3.74-1.5-5.61-3.27-5.61-5.29s1.72-3.55,5.15-5a35.18,35.18,0,0,1,12.51-2.3v2.85a42.74,42.74,0,0,0-10.44,1.45q-4.28,1.25-4.28,3c0,1.16,1.58,2.33,4.74,3.31a45.11,45.11,0,0,0,22.9,0c3.15-1,4.74-2.06,4.74-3.31s-1.43-2.16-4.28-3A42.81,42.81,0,0,0,309.56,400.07ZM296.75,343.2a15.77,15.77,0,0,1,11.5-4.74,16.16,16.16,0,0,1,3.67,31.91l-3.86,38.9-3.86-39a16.42,16.42,0,0,1-8.74-5.7,15.38,15.38,0,0,1-3.49-9.93A15.56,15.56,0,0,1,296.75,343.2Zm10.05,4a4.44,4.44,0,1,0,1.29,3.13A4.25,4.25,0,0,0,306.8,347.22Z" transform="translate(-210.5 -301)"/></svg>