<svg id="Layer_1" data-name="Layer 1" xmlns="http://www.w3.org/2000/svg" viewBox="0 0 191 191"><defs><style>.cls-1{fill:#e67e22;}.cls-2{fill:#fff;}</style></defs><title>ayuda_splash_box_screens</title><rect class="cls-1" width="191" height="191" rx="10"/><path class="cls-2" d="M123.67,141a7.15,7.15,0,1,0,7.14,7.16h0A7.15,7.15,0,0,0,123.67,141Zm-.87,10.44a.66.66,0,0,1-.93-.08.65.65,0,0,1,0-.85l2.36-2.36-2.36-2.36a.66.66,0,0,1,.08-.93.65.65,0,0,1,.85,0l3.28,3.31Z" transform="translate(0.35)"/><path class="cls-2" d="M66.75,145.44a2.34,2.34,0,0,0-2.61-2.23,3.4,3.4,0,0,0-1.62.38,1.58,1.58,0,0,0-.75,1.49,1.07,1.07,0,0,0,.31.79,2.17,2.17,0,0,0,.76.52,8.28,8.28,0,0,0,1.09.34c.41.09.82.18,1.23.29l.65.13.61.2a4.09,4.09,0,0,1,1.07.58,2.27,2.27,0,0,1,.76.89,2.87,2.87,0,0,1,.28,1.35,2.74,2.74,0,0,1-1.33,2.48,5.25,5.25,0,0,1-2.8.77,5,5,0,0,1-3.07-.93,3.47,3.47,0,0,1-1.3-2.92h1.33a2.29,2.29,0,0,0,1,2,3.58,3.58,0,0,0,2.13.63,4.6,4.6,0,0,0,1-.11,2.82,2.82,0,0,0,.86-.3,1.87,1.87,0,0,0,.63-.62,1.89,1.89,0,0,0,.22-1,1.45,1.45,0,0,0-.28-.93,2.24,2.24,0,0,0-.77-.57,5.82,5.82,0,0,0-1.07-.38l-1.25-.26-.61-.19-.62-.16-.56-.23a3.45,3.45,0,0,1-.54-.28,2.17,2.17,0,0,1-1.06-2,2.74,2.74,0,0,1,1.21-2.43,4.53,4.53,0,0,1,2.61-.76,4.38,4.38,0,0,1,2.73.81,3.46,3.46,0,0,1,1.16,2.64Z" transform="translate(0.35)"/><path class="cls-2" d="M75,147.8a1.78,1.78,0,0,0-1.9-1.57,2,2,0,0,0-1.86.93,4,4,0,0,0-.52,2.15,3.45,3.45,0,0,0,.53,2,1.83,1.83,0,0,0,1.7.92,2,2,0,0,0,2.11-1.93h1.28A3.19,3.19,0,0,1,73,153.35a3.28,3.28,0,0,1-2.66-1.15,4.28,4.28,0,0,1-.92-2.89,4.79,4.79,0,0,1,.9-3A3.17,3.17,0,0,1,73,145.08a3.8,3.8,0,0,1,2.25.64,2.86,2.86,0,0,1,1,2.08Z" transform="translate(0.35)"/><path class="cls-2" d="M77.44,145.26h1.18v1.65h0a2.76,2.76,0,0,1,2.81-1.83v1.37q-2.85,0-2.77,3.19v3.52H77.44Z" transform="translate(0.35)"/><path class="cls-2" d="M88.28,150.65a3.12,3.12,0,0,1-3.27,2.7,3.35,3.35,0,0,1-2.71-1.18,4.93,4.93,0,0,1-1-3,4.36,4.36,0,0,1,1-3,3.29,3.29,0,0,1,2.57-1.15,2.93,2.93,0,0,1,2.79,1.52,5.65,5.65,0,0,1,.68,3H82.67a2.66,2.66,0,0,0,.57,1.8,2.14,2.14,0,0,0,1.82.8,1.86,1.86,0,0,0,2-1.55Zm-1.2-2.2a2.4,2.4,0,0,0-.66-1.58,2.06,2.06,0,0,0-1.55-.64,2,2,0,0,0-1.55.64,2.6,2.6,0,0,0-.65,1.58Z" transform="translate(0.35)"/><path class="cls-2" d="M96,150.65a3.13,3.13,0,0,1-3.27,2.7A3.33,3.33,0,0,1,90,152.17a4.93,4.93,0,0,1-1-3,4.36,4.36,0,0,1,1-3,3.29,3.29,0,0,1,2.57-1.15,2.92,2.92,0,0,1,2.78,1.52,5.57,5.57,0,0,1,.69,3H90.35a2.66,2.66,0,0,0,.56,1.8,2.18,2.18,0,0,0,1.83.8,1.85,1.85,0,0,0,2-1.55Zm-1.21-2.2a2.44,2.44,0,0,0-.65-1.58,2.1,2.1,0,0,0-1.56-.64,2,2,0,0,0-1.54.64,2.48,2.48,0,0,0-.65,1.58Z" transform="translate(0.35)"/><path class="cls-2" d="M97.11,145.26H98.3v1.24h0a2.69,2.69,0,0,1,2.48-1.42,2.51,2.51,0,0,1,2.09.79,3.51,3.51,0,0,1,.55,2.09v5.2H102.2v-5.35a1.43,1.43,0,0,0-1.57-1.58,2.13,2.13,0,0,0-1.69.68,2.73,2.73,0,0,0-.58,1.79v4.46H97.11Z" transform="translate(0.35)"/><path class="cls-2" d="M105.84,150.67a1.39,1.39,0,0,0,.67,1.19,2.54,2.54,0,0,0,1.39.34,3.31,3.31,0,0,0,.64-.06,2.21,2.21,0,0,0,.6-.17,1.43,1.43,0,0,0,.47-.37,1,1,0,0,0,.16-.58.94.94,0,0,0-.21-.63A1.56,1.56,0,0,0,109,150a9.19,9.19,0,0,0-1.74-.44l-.44-.15-.47-.13a4,4,0,0,1-.8-.4,1.88,1.88,0,0,1-.8-1.56,2,2,0,0,1,.27-1,2.29,2.29,0,0,1,.66-.69,3.79,3.79,0,0,1,1.93-.51,4.06,4.06,0,0,1,2.17.5,2.35,2.35,0,0,1,1,2h-1.25a1.33,1.33,0,0,0-.61-1.05,2.46,2.46,0,0,0-1.17-.27,2.8,2.8,0,0,0-1.08.2.81.81,0,0,0-.55.8.69.69,0,0,0,.24.55,1.61,1.61,0,0,0,.59.37,5.7,5.7,0,0,0,.82.23l.86.23a5.28,5.28,0,0,1,.93.25,2.81,2.81,0,0,1,.81.41,1.85,1.85,0,0,1,.56.62,2,2,0,0,1,.2,1,2.06,2.06,0,0,1-1,1.93,4.46,4.46,0,0,1-2.22.56,3.9,3.9,0,0,1-2.23-.62,2.58,2.58,0,0,1-1-2.06Z" transform="translate(0.35)"/><polygon class="cls-2" points="99.47 99.42 91.53 99.42 91.53 103.71 83.58 105 83.58 107.79 107.42 107.79 107.42 105.22 99.69 103.71 99.47 99.42"/><path class="cls-2" d="M129.85,44.84a5.24,5.24,0,0,0-3.87-1.5H64.32a5.32,5.32,0,0,0-3.76,1.5,5,5,0,0,0-1.62,3.87v37.6a5.52,5.52,0,0,0,5.38,5.37H126a5.06,5.06,0,0,0,3.87-1.61,5.36,5.36,0,0,0,1.5-3.76V48.71A5.24,5.24,0,0,0,129.85,44.84Zm-33.09,42a2.86,2.86,0,0,1-1.93.75A2.49,2.49,0,0,1,93,86.85a2.8,2.8,0,0,1-.75-2,2.56,2.56,0,0,1,2.58-2.57,2.86,2.86,0,0,1,1.93.75,2.34,2.34,0,0,1,.86,1.82A2.61,2.61,0,0,1,96.76,86.85ZM126,78.14H64.32V48.71H126Z" transform="translate(0.35)"/></svg>