<svg id="global" xmlns="http://www.w3.org/2000/svg" viewBox="0 0 692.1 547.7">
	<defs>
		<style>
			.cls-1 {
				fill: #30df7a;
			}

			.cls-11,
			.cls-16,
			.cls-17,
			.cls-18,
			.cls-19,
			.cls-2,
			.cls-29,
			.cls-5,
			.cls-6 {
				fill: none;
			}

			.cls-2,
			.cls-5 {
				stroke: #fff;
			}

			.cls-2 {
				stroke-opacity: 0.2;
				stroke-width: 0.72px;
			}

			.cls-10,
			.cls-27,
			.cls-3 {
				fill: #fff;
			}

			.cls-4 {
				fill: #cc60ff;
			}

			.cls-5 {
				stroke-width: 2.12px;
			}

			.cls-10,
			.cls-16,
			.cls-18,
			.cls-19,
			.cls-24,
			.cls-6,
			.cls-8,
			.cls-9 {
				stroke: #e6e6e6;
			}

			.cls-10,
			.cls-6,
			.cls-7,
			.cls-8,
			.cls-9 {
				stroke-width: 0.46px;
			}

			.cls-7 {
				fill: #e4f0ff;
				stroke: #628bbe;
			}

			.cls-8 {
				fill: #fff2cb;
			}

			.cls-9 {
				fill: #ffd6b5;
			}

			.cls-11,
			.cls-29 {
				stroke: #d0d0d0;
			}

			.cls-11,
			.cls-16 {
				stroke-width: 0.93px;
			}

			.cls-12 {
				fill: #c6c2c2;
			}

			.cls-13 {
				fill: #f4f4f4;
			}

			.cls-14 {
				fill: #3368a9;
			}

			.cls-15 {
				fill-rule: evenodd;
			}

			.cls-17 {
				stroke: #f7f7f7;
			}

			.cls-17,
			.cls-19,
			.cls-29 {
				stroke-width: 1.22px;
			}

			.cls-18,
			.cls-24 {
				stroke-width: 0.61px;
			}

			.cls-20 {
				fill: #54c654;
			}

			.cls-21 {
				fill: #4567c4;
			}

			.cls-22 {
				fill: #ff9d29;
			}

			.cls-23 {
				fill: #fe857b;
			}

			.cls-24 {
				fill: #f6f6f6;
			}

			.cls-25 {
				fill: #707070;
			}

			.cls-26 {
				fill: #66b55d;
			}

			.cls-27 {
				stroke: #676767;
				stroke-width: 0.83px;
			}

			.cls-28 {
				fill: #676767;
			}

			.cls-30 {
				fill: #f7f7f7;
			}

			.cls-31 {
				fill: #eae3e3;
			}

			.cls-32 {
				fill: #c6c1c1;
			}



			@keyframes wobble1 {
				0% {
					transform: rotate(0deg) translate(2px, -2px) rotate(0deg) translate(4px, -4px);
				}

				100% {
					transform: rotate(360deg) translate(2px, -2px) rotate(-360deg) translate(4px, -4px);
				}
			}

			@keyframes wobble2 {
				0% {
					transform: rotate(0deg) translate(2px, -2px) rotate(0deg) translate(0px, 4px);
				}

				100% {
					transform: rotate(360deg) translate(2px, -2px) rotate(-360deg) translate(0px, 4px);
				}
			}

			@keyframes wobble3 {
				0% {
					transform: rotate(0deg) translate(2px, -2px) rotate(0deg) translate(0px, -4px);
				}

				100% {
					transform: rotate(360deg) translate(2px, -2px) rotate(-360deg) translate(0px, -4px);
				}
			}

			#Window1 {
				animation: 9s linear 0s infinite normal forwards wobble1;
			}

			#Window2 {
				animation: 8s linear 0s infinite normal forwards wobble2;
			}

			#Window3 {
				animation: 7s linear 0s infinite reverse forwards wobble3;
			}

			#Icon1 {
				animation: 6s linear 0s infinite normal forwards wobble1;
			}

			#Icon2 {
				animation: 5s linear 0s infinite reverse forwards wobble2;
			}
		</style>
	</defs>
	<g id="Icon1">
		<rect class="cls-1" x="604" y="237" width="56" height="56" rx="7.2" />
		<rect class="cls-2" x="604.4" y="237.4" width="55.3" height="55.28" rx="6.8" />
		<path class="cls-3" d="M623.2,263.7a13.5,13.5,0,1,1,13.3,15.7,13.6,13.6,0,0,1-11.9-7,1,1,0,0,1,.4-1.2.9.9,0,0,1,1.2.4,11.8,11.8,0,0,0,10.3,6A11.5,11.5,0,1,0,625,263.8h3.4l-4.5,4.3-4.4-4.4h3.7Z" transform="translate(-4 0)" />
		<path class="cls-3" d="M641.2,268.2a.8.8,0,0,1,.3,1.2.9.9,0,0,1-1.3.2l-4.2-2.8a.9.9,0,0,1-.4-.8v-6.8a.9.9,0,0,1,1.8,0v6.4l3.8,2.6Z" transform="translate(-4 0)" />
	</g>
	<g id="Icon2">
		<rect class="cls-4" x="113" y="156" width="58" height="58" rx="7.4" />
		<rect class="cls-5" x="126.7" y="171.2" width="31" height="20.82" rx="1.1" />
		<path class="cls-3" d="M139.8,182.2l.5-4.7h4.8v1.1h-3.8l-.3,2.6a2.9,2.9,0,0,1,1.6-.4,2.3,2.3,0,0,1,2,.8,3.7,3.7,0,0,1,0,4.6,2.6,2.6,0,0,1-2.2.8,2.7,2.7,0,0,1-2-.7,2.9,2.9,0,0,1-.9-1.9h1.1a1.7,1.7,0,0,0,.6,1.2,1.7,1.7,0,0,0,1.2.5,1.5,1.5,0,0,0,1.3-.6,2.5,2.5,0,0,0,.5-1.6,2.5,2.5,0,0,0-.5-1.5,1.7,1.7,0,0,0-1.4-.6,1.6,1.6,0,0,0-1.2.4l-.3.2Zm12.8.7a5.3,5.3,0,0,1-.7,3.1,2.5,2.5,0,0,1-2.3,1,2.5,2.5,0,0,1-2.2-1,4.6,4.6,0,0,1-.7-2.9v-1.6a5.3,5.3,0,0,1,.7-3.1,2.5,2.5,0,0,1,2.2-1,2.6,2.6,0,0,1,2.3,1,5.4,5.4,0,0,1,.7,2.9Zm-1.2-1.6a4.1,4.1,0,0,0-.4-2.2,1.5,1.5,0,0,0-1.4-.7,1.5,1.5,0,0,0-1.3.6,4.3,4.3,0,0,0-.4,2.2v1.9a4.3,4.3,0,0,0,.4,2.2,1.4,1.4,0,0,0,1.3.8,1.7,1.7,0,0,0,1.4-.7,5.7,5.7,0,0,0,.4-2.2Z" transform="translate(-4 0)" />
		<path class="cls-3" d="M130.7,186.7h0a1.1,1.1,0,0,1,1.1,1.1v11a1.1,1.1,0,0,1-1.1,1.1h0a1.1,1.1,0,0,1-1.1-1.1v-11A1.1,1.1,0,0,1,130.7,186.7Z" transform="translate(-4 0)" />
		<path class="cls-3" d="M161.7,186.7h0a1.1,1.1,0,0,1,1.1,1.1v11a1.1,1.1,0,0,1-1.1,1.1h0a1,1,0,0,1-1-1.1v-11A1,1,0,0,1,161.7,186.7Z" transform="translate(-4 0)" />
	</g>
	<g id="Window2">
		<rect class="cls-3" x="191" width="501.1" height="216.21" rx="9.3" />
		<rect class="cls-6" x="191.2" y="0.2" width="500.6" height="215.75" rx="9" />
		<rect class="cls-7" x="191.2" y="98.6" width="182.3" height="21.81" />
		<rect class="cls-7" x="373.1" y="98.6" width="182.3" height="21.81" />
		<rect class="cls-7" x="555.9" y="98.6" width="135.9" height="21.81" />
		<rect class="cls-8" x="373.1" y="121.8" width="182.3" height="46.86" />
		<rect class="cls-9" x="373.1" y="148.7" width="182.3" height="19.95" />
		<rect class="cls-10" x="555.9" y="121.8" width="135.9" height="46.86" />
		<rect class="cls-10" x="191.2" y="121.8" width="182.3" height="46.86" />
		<rect class="cls-11" x="212.8" y="136.9" width="8.4" height="8.35" rx="1.4" />
		<path d="M238.9,142.4l.2.9.2-.8,1.3-4.6h.7l1.3,4.6.2.8v-.9l1-4.5h.9l-1.6,6.6h-.8l-1.4-4.8v0l-1.4,4.8h-.8l-1.6-6.6h.9Zm10.5-.8h-2.8v2.9h-.8v-6.6h4.1v.7h-3.3v2.3h2.8Zm3.4-.1a3,3,0,0,1-1.6-.8,1.6,1.6,0,0,1,.1-2.4,2.9,2.9,0,0,1,2.9-.2,1.8,1.8,0,0,1,.8.7,1.7,1.7,0,0,1,.3,1h-.9a1,1,0,0,0-.4-.9,1.2,1.2,0,0,0-1.1-.4,1.7,1.7,0,0,0-1,.3,1,1,0,0,0-.3.8,1.1,1.1,0,0,0,.3.7l1.2.5,1.3.5.7.6a2.9,2.9,0,0,1,.2.9,1.6,1.6,0,0,1-.6,1.3,3.1,3.1,0,0,1-1.7.5,2.8,2.8,0,0,1-1.3-.3,2.2,2.2,0,0,1-.9-.7,1.9,1.9,0,0,1-.3-1h.9a1,1,0,0,0,.4.9,2.1,2.1,0,0,0,1.2.4,1.5,1.5,0,0,0,1-.3.9.9,0,0,0,.4-.8.8.8,0,0,0-.3-.7Zm3.6,3v-6.6h1.9a2.8,2.8,0,0,1,1.5.4,2.4,2.4,0,0,1,1,1,4.3,4.3,0,0,1,.4,1.7v.4a2.9,2.9,0,0,1-.4,1.6,2.7,2.7,0,0,1-1,1.1,4.2,4.2,0,0,1-1.6.4Zm.9-5.9v5.2h.9a1.9,1.9,0,0,0,1.6-.7,2.9,2.9,0,0,0,.5-1.7V141a3,3,0,0,0-.5-1.8,2,2,0,0,0-1.5-.6Zm6.8,3.4h-2.2v-.7h2.2Zm.6,0a2.8,2.8,0,0,1,.3-1.3,1.8,1.8,0,0,1,.8-.9,2,2,0,0,1,1.1-.3,1.9,1.9,0,0,1,1.6.7,2.3,2.3,0,0,1,.7,1.8h0a2.8,2.8,0,0,1-.3,1.3l-.8.9a2.1,2.1,0,0,1-1.2.3,2.4,2.4,0,0,1-1.6-.7,2.9,2.9,0,0,1-.6-1.9Zm.8.1a2.5,2.5,0,0,0,.4,1.3,1.4,1.4,0,0,0,1,.5,1.4,1.4,0,0,0,1.1-.5,2.6,2.6,0,0,0,.3-1.4,1.7,1.7,0,0,0-.4-1.3c-.2-.4-.5-.5-1-.5a1.1,1.1,0,0,0-1,.5A2.6,2.6,0,0,0,265.5,142.1Zm5.5-2.5v.6a1.8,1.8,0,0,1,1.5-.7,1.5,1.5,0,0,1,1.6,1.7v3.3h-.9v-3.3a1.1,1.1,0,0,0-.2-.8l-.7-.2-.8.2a1.3,1.3,0,0,0-.4.6v3.5h-.9v-4.9Zm7.8-1.2v1.2h.9v.6h-.9v3.1c0,.2,0,.3.1.4l.4.2h.4v.7h-.6a1,1,0,0,1-.9-.4,1.2,1.2,0,0,1-.3-.9v-3.1H277v-.6h.9v-1.2Zm2.7,1.8a1.8,1.8,0,0,1,1.5-.7c1,0,1.5.6,1.5,1.7v3.3h-.8v-3.3a1.1,1.1,0,0,0-.3-.8l-.7-.2-.7.2c-.2.2-.4.3-.5.6v3.5h-.8v-7h.8Zm6.3,4.4a2,2,0,0,1-1.6-.7,2.4,2.4,0,0,1-.6-1.7V142a2.8,2.8,0,0,1,.3-1.3,1.6,1.6,0,0,1,.7-.9,2.3,2.3,0,0,1,1.1-.3,1.9,1.9,0,0,1,1.5.6,2.4,2.4,0,0,1,.5,1.8v.4h-3.3a2.1,2.1,0,0,0,.4,1.1,1.4,1.4,0,0,0,1.1.5l.7-.2.6-.5.5.4A2.1,2.1,0,0,1,287.8,144.6Zm-.1-4.4a1.1,1.1,0,0,0-.8.3,1.9,1.9,0,0,0-.5,1.1h2.5a1.3,1.3,0,0,0-.4-1A1,1,0,0,0,287.7,140.2Zm7.7.1H295a1.1,1.1,0,0,0-1.2.7v3.5H293v-4.9h.8v.5a1.4,1.4,0,0,1,1.2-.6h.4Zm.4,1.7a2.8,2.8,0,0,1,.3-1.3,2.4,2.4,0,0,1,.8-.9,2.1,2.1,0,0,1,1.2-.3,2,2,0,0,1,1.6.7,2.6,2.6,0,0,1,.6,1.8h0a2.8,2.8,0,0,1-.3,1.3,3.2,3.2,0,0,1-.8.9,2,2,0,0,1-1.1.3,2.2,2.2,0,0,1-1.6-.7,2.5,2.5,0,0,1-.7-1.9Zm.9.1a1.8,1.8,0,0,0,.4,1.3,1.2,1.2,0,0,0,1,.5,1.4,1.4,0,0,0,1-.5,2.6,2.6,0,0,0,.4-1.4,2.2,2.2,0,0,0-.4-1.3,1.1,1.1,0,0,0-1-.5,1,1,0,0,0-1,.5A2,2,0,0,0,296.7,142.1Zm4.4-.1a2.8,2.8,0,0,1,.3-1.3,2.4,2.4,0,0,1,.8-.9,2.1,2.1,0,0,1,1.2-.3,2,2,0,0,1,1.6.7,2.6,2.6,0,0,1,.6,1.8h0a2.8,2.8,0,0,1-.3,1.3,3.2,3.2,0,0,1-.8.9,2,2,0,0,1-1.1.3,2.6,2.6,0,0,1-1.7-.7,2.9,2.9,0,0,1-.6-1.9Zm.9.1a1.8,1.8,0,0,0,.4,1.3,1.1,1.1,0,0,0,1,.5,1.4,1.4,0,0,0,1-.5,2.6,2.6,0,0,0,.4-1.4,2.2,2.2,0,0,0-.4-1.3,1.1,1.1,0,0,0-1-.5c-.5,0-.8.1-1,.5A2,2,0,0,0,302,142.1Zm5.1,2.4v-4.3h-.8v-.6h.8v-.5c0-.6.1-1,.4-1.2a1.7,1.7,0,0,1,1.2-.5h.5v.7h-.5a.9.9,0,0,0-.6.3,1.2,1.2,0,0,0-.2.7v.5h1v.6h-1v4.3Zm9.2-2.4a3.5,3.5,0,0,1-.5,1.8,1.7,1.7,0,0,1-1.4.7,1.8,1.8,0,0,1-1.4-.6v2.4h-.8v-6.8h.7v.5a1.9,1.9,0,0,1,2.8,0,3.6,3.6,0,0,1,.5,1.9Zm-.8-.1a1.7,1.7,0,0,0-.4-1.3,1.1,1.1,0,0,0-.9-.5,1.2,1.2,0,0,0-1.2.7v2.3a1.2,1.2,0,0,0,1.2.7,1.1,1.1,0,0,0,.9-.5A2,2,0,0,0,315.5,142Zm4.9,2.5a4.3,4.3,0,0,1-.1-.5,2,2,0,0,1-1.4.6,2.1,2.1,0,0,1-1.2-.4,1.6,1.6,0,0,1-.5-1.1,1.4,1.4,0,0,1,.6-1.2,2.9,2.9,0,0,1,1.7-.4h.8v-.4a.9.9,0,0,0-.3-.7c-.2-.2-.4-.2-.8-.2a.8.8,0,0,0-.7.2.5.5,0,0,0-.3.5h-.9a1.3,1.3,0,0,1,.3-.7,1.8,1.8,0,0,1,.7-.5l1-.2a1.7,1.7,0,0,1,1.3.4,1.7,1.7,0,0,1,.5,1.2v2.2a3.1,3.1,0,0,0,.2,1.1h-.9Zm-1.4-.7a1.2,1.2,0,0,0,.8-.2l.5-.5v-1h-.7q-1.5,0-1.5.9a.7.7,0,0,0,.9.8Zm5.8-3.5h-.4a1,1,0,0,0-1.1.7v3.5h-.9v-4.9h.8v.5a1.1,1.1,0,0,1,1.1-.6h.4Zm2.1,1.9-.5.6v1.7h-.8v-7h.8v4.2l.5-.5,1.5-1.6h1l-1.9,2,2.1,2.9h-.9Zm4.3,2.3h-.8v-4.9h.8Zm-.9-6.2c0-.2,0-.3.1-.4h.7a.5.5,0,0,1,.2.4l-.2.3-.3.2-.4-.2A.4.4,0,0,1,330.3,138.3Zm3,1.3v.6a1.5,1.5,0,0,1,1.4-.7c1.1,0,1.6.6,1.6,1.7v3.3h-.8v-3.3a1.1,1.1,0,0,0-.3-.8l-.7-.2-.7.2a1,1,0,0,0-.5.6v3.5h-.9v-4.9Zm4.2,2.4a2.4,2.4,0,0,1,.5-1.8,1.5,1.5,0,0,1,1.4-.7,1.7,1.7,0,0,1,1.4.6v-.5h.8v4.8a2,2,0,0,1-.6,1.5,2.1,2.1,0,0,1-1.5.5l-1-.2-.8-.6.4-.5a1.8,1.8,0,0,0,1.4.6,1.2,1.2,0,0,0,.9-.3,1.8,1.8,0,0,0,.4-1V144a1.8,1.8,0,0,1-1.4.6,1.7,1.7,0,0,1-1.4-.7A2.9,2.9,0,0,1,337.5,142Zm.8.1a2.5,2.5,0,0,0,.3,1.3,1.4,1.4,0,0,0,1,.5,1.4,1.4,0,0,0,1.2-.8v-2.2a1.3,1.3,0,0,0-1.2-.7,1.4,1.4,0,0,0-1,.5A2.6,2.6,0,0,0,338.3,142.1Zm-100,13.4h-.8v-7h.8Zm1.1-2.5a2.8,2.8,0,0,1,.3-1.3,2.4,2.4,0,0,1,.8-.9,2.1,2.1,0,0,1,1.2-.3,2,2,0,0,1,1.6.7,2.6,2.6,0,0,1,.6,1.8h0a2.8,2.8,0,0,1-.3,1.3,3.2,3.2,0,0,1-.8.9,2,2,0,0,1-1.1.3,2.6,2.6,0,0,1-1.7-.7,2.9,2.9,0,0,1-.6-1.9Zm.9.1a2.5,2.5,0,0,0,.3,1.3,1.4,1.4,0,0,0,1.1.5,1.4,1.4,0,0,0,1-.5,2.6,2.6,0,0,0,.4-1.4,2.2,2.2,0,0,0-.4-1.3,1.1,1.1,0,0,0-1-.5c-.5,0-.8.1-1,.5A2,2,0,0,0,240.3,153.1Zm5.8-3.7v1.2h.9v.6h-.9v3.1c0,.2,0,.3.1.4l.4.2h.4v.7h-.6a1,1,0,0,1-.9-.4,1.2,1.2,0,0,1-.3-.9v-3.1h-.8v-.6h.8v-1.2Zm7.2,6.1a4.3,4.3,0,0,1-.1-.5,2,2,0,0,1-1.4.6,2.1,2.1,0,0,1-1.2-.4,1.6,1.6,0,0,1-.5-1.1,1.4,1.4,0,0,1,.6-1.2,2.9,2.9,0,0,1,1.7-.4h.8v-.4a.9.9,0,0,0-.3-.7c-.2-.2-.4-.2-.8-.2a.8.8,0,0,0-.7.2.5.5,0,0,0-.3.5h-.9a1.3,1.3,0,0,1,.3-.7,1.8,1.8,0,0,1,.7-.5l1-.2a1.7,1.7,0,0,1,1.3.4,1.7,1.7,0,0,1,.5,1.2v2.2a3.1,3.1,0,0,0,.2,1.1h-.9Zm-1.4-.7a1.4,1.4,0,0,0,1.3-.7v-1h-.7q-1.5,0-1.5.9a.7.7,0,0,0,.9.8Zm5.4.1a1.1,1.1,0,0,0,.8-.3,1.6,1.6,0,0,0,.4-.7h.7a1.9,1.9,0,0,1-.2.8,1.6,1.6,0,0,1-.8.6l-.9.3a2.2,2.2,0,0,1-1.6-.7,2.6,2.6,0,0,1-.6-1.8v-.2a2.4,2.4,0,0,1,.3-1.2,2.2,2.2,0,0,1,.7-.9,2.4,2.4,0,0,1,1.2-.3,1.9,1.9,0,0,1,1.4.5,1.7,1.7,0,0,1,.5,1.3h-.7a1.5,1.5,0,0,0-.4-.8,1.1,1.1,0,0,0-.8-.3,1.2,1.2,0,0,0-1,.4,2.6,2.6,0,0,0-.4,1.4h0a2.2,2.2,0,0,0,.4,1.3A1.2,1.2,0,0,0,257.3,154.9Zm5.3-3.6h-.5a1.1,1.1,0,0,0-1.1.7v3.5h-.8v-4.9h.8v.5a1.4,1.4,0,0,1,1.2-.6h.4Zm.4,1.7a2.8,2.8,0,0,1,.3-1.3,2.4,2.4,0,0,1,.8-.9,2,2,0,0,1,1.1-.3,2.1,2.1,0,0,1,1.7.7,2.6,2.6,0,0,1,.6,1.8h0a2.8,2.8,0,0,1-.3,1.3,3.2,3.2,0,0,1-.8.9,2,2,0,0,1-1.1.3,2.4,2.4,0,0,1-1.7-.7,2.9,2.9,0,0,1-.6-1.9Zm.9.1a2.5,2.5,0,0,0,.3,1.3,1.4,1.4,0,0,0,1.1.5,1.4,1.4,0,0,0,1-.5,2.6,2.6,0,0,0,.3-1.4,2.3,2.3,0,0,0-.3-1.3,1.2,1.2,0,0,0-1.1-.5,1.1,1.1,0,0,0-1,.5A2.6,2.6,0,0,0,263.9,153.1Zm7.5,1.1a.5.5,0,0,0-.3-.5c-.1-.2-.4-.3-.9-.4l-1-.3-.5-.5a.8.8,0,0,1-.2-.6,1.4,1.4,0,0,1,.5-1,1.8,1.8,0,0,1,1.3-.4,2.1,2.1,0,0,1,1.4.4,1.6,1.6,0,0,1,.5,1.1h-.9a.9.9,0,0,0-.3-.6l-.7-.2a.8.8,0,0,0-.7.2.5.5,0,0,0-.3.5c0,.2.1.3.3.5l.8.2,1.1.4.5.5c.2.1.2.4.2.6a1.4,1.4,0,0,1-.5,1.1,2.9,2.9,0,0,1-1.4.4l-1-.2-.7-.6a1.3,1.3,0,0,1-.3-.8h.9a.7.7,0,0,0,.3.6,1.1,1.1,0,0,0,.8.3l.8-.2A.5.5,0,0,0,271.4,154.2Zm4.8,0a.5.5,0,0,0-.3-.5,1.9,1.9,0,0,0-.9-.4l-1-.3-.5-.5c-.2-.1-.2-.3-.2-.6a1.4,1.4,0,0,1,.5-1,2.3,2.3,0,0,1,2.6,0,1.4,1.4,0,0,1,.6,1.1h-.9a.9.9,0,0,0-.3-.6l-.7-.2c-.3,0-.6,0-.7.2a.5.5,0,0,0-.3.5c0,.2.1.3.3.5l.8.2,1,.4a1,1,0,0,1,.6.5,1.1,1.1,0,0,1,.2.6,1.4,1.4,0,0,1-.5,1.1,2.9,2.9,0,0,1-1.4.4l-1-.2a2.2,2.2,0,0,1-.7-.6,1.3,1.3,0,0,1-.3-.8h.9a.7.7,0,0,0,.3.6,1.1,1.1,0,0,0,.8.3l.8-.2A.5.5,0,0,0,276.2,154.2Zm4.6,1.3v-4.3H280v-.6h.8v-.5a1.7,1.7,0,0,1,.4-1.2,1.7,1.7,0,0,1,1.2-.5h.6v.7h-.5a.6.6,0,0,0-.6.3c-.2.1-.2.4-.2.7v.5h1v.6h-1v4.3Zm5.2-4.2h-.4a1,1,0,0,0-1.1.7v3.5h-.9v-4.9h.8v.5a1.1,1.1,0,0,1,1.1-.6h.4Zm.5,1.7a5.1,5.1,0,0,1,.2-1.3,2.4,2.4,0,0,1,.8-.9,2.7,2.7,0,0,1,1.2-.3,1.9,1.9,0,0,1,1.6.7,2.6,2.6,0,0,1,.6,1.8h0a2.9,2.9,0,0,1-1,2.2l-1.2.3a2.2,2.2,0,0,1-1.6-.7,2.9,2.9,0,0,1-.6-1.9Zm.8.1a1.8,1.8,0,0,0,.4,1.3,1.3,1.3,0,0,0,2,0,2,2,0,0,0,.4-1.4,1.7,1.7,0,0,0-.4-1.3,1.1,1.1,0,0,0-1-.5,1,1,0,0,0-1,.5A2,2,0,0,0,287.3,153.1Zm5.5-2.5v.5a1.7,1.7,0,0,1,1.4-.6c.7,0,1.2.2,1.4.8a1.3,1.3,0,0,1,.7-.6l.9-.2c1.1,0,1.6.6,1.6,1.7v3.3H298v-3.3a1.2,1.2,0,0,0-.2-.7,1.1,1.1,0,0,0-.8-.3,1,1,0,0,0-.8.3,1.6,1.6,0,0,0-.4.7v3.3H295v-3.2a1,1,0,0,0-1.1-1.1,1.1,1.1,0,0,0-1.1.7v3.6H292v-4.9Zm10.8-1.2v1.2h.9v.6h-.9v3.1c0,.2,0,.3.1.4a.5.5,0,0,0,.4.2h.4v.7h-.7a.9.9,0,0,1-.8-.4,1.2,1.2,0,0,1-.3-.9v-3.1h-.9v-.6h.9v-1.2Zm2.7,1.8a1.6,1.6,0,0,1,1.4-.7c1.1,0,1.6.6,1.6,1.7v3.3h-.8v-3.3a1.1,1.1,0,0,0-.3-.8l-.7-.2-.7.2c-.2.2-.4.3-.5.6v3.5h-.8v-7h.8Zm6.3,4.4a1.9,1.9,0,0,1-1.6-.7,2.4,2.4,0,0,1-.7-1.7V153a2.8,2.8,0,0,1,.3-1.3,2.4,2.4,0,0,1,.8-.9,2.2,2.2,0,0,1,2.6.3,3,3,0,0,1,.5,1.8v.4h-3.3a1.5,1.5,0,0,0,.4,1.1,1.4,1.4,0,0,0,1,.5l.8-.2a1.2,1.2,0,0,0,.5-.5l.5.4A1.9,1.9,0,0,1,312.6,155.6Zm-.1-4.4a1.6,1.6,0,0,0-.9.3,2.8,2.8,0,0,0-.4,1.1h2.5a3,3,0,0,0-.4-1A1.1,1.1,0,0,0,312.5,151.2Zm3,3.8a.4.4,0,0,1,.1-.3l.4-.2.4.2a.4.4,0,0,1,.1.3c0,.2,0,.3-.1.4h-.8C315.5,155.3,315.5,155.2,315.5,155Zm2.4,0,.2-.3.4-.2.4.2c0,.1.1.2.1.3s-.1.3-.1.4h-.8A.5.5,0,0,1,317.9,155Z" transform="translate(-4 0)" />
		<rect class="cls-12" x="248.5" y="188.4" width="67.7" height="9.28" rx="1.9" />
		<rect class="cls-11" x="212.8" y="187" width="8.4" height="8.35" rx="1.4" />
		<rect class="cls-10" x="373.1" y="169.1" width="182.3" height="46.86" />
		<rect class="cls-13" x="430.4" y="188.4" width="67.7" height="9.28" rx="1.9" />
		<rect class="cls-13" x="603" y="188.4" width="67.7" height="9.28" rx="1.9" />
		<rect class="cls-13" x="603" y="141" width="67.7" height="9.28" rx="1.9" />
		<path d="M441.6,137.2h-2.8l-.6,1.7h-.9l2.5-6.6h.8l2.5,6.6h-.9Zm-2.5-.7h2.2l-1.1-3.1Zm7.1-1.7h-.4a1.2,1.2,0,0,0-1.1.7v3.5h-.8V134h.8v.6a1.3,1.3,0,0,1,1.2-.7h.3Zm1.6-.8v.6a1.8,1.8,0,0,1,1.5-.7,1.5,1.5,0,0,1,1.4.8l.6-.6,1-.2a1.5,1.5,0,0,1,1.6,1.7v3.3h-.8v-3.2a1,1,0,0,0-.3-.8c-.1-.2-.4-.3-.8-.3a1.1,1.1,0,0,0-.8.3,1,1,0,0,0-.3.8v3.2H450v-3.2c0-.7-.3-1.1-1-1.1a1.1,1.1,0,0,0-1.1.7v3.6H447V134Zm10.4,4.9a.7.7,0,0,1-.1-.5,2,2,0,0,1-1.4.6,1.6,1.6,0,0,1-1.2-.4,1.4,1.4,0,0,1-.5-1,1.2,1.2,0,0,1,.6-1.2,2.5,2.5,0,0,1,1.6-.5h.9v-.3a.8.8,0,0,0-.3-.7,1,1,0,0,0-.8-.3l-.7.2a.9.9,0,0,0-.3.6h-.9a.9.9,0,0,1,.3-.7,1.3,1.3,0,0,1,.7-.6l1-.2a2.5,2.5,0,0,1,1.3.4,1.7,1.7,0,0,1,.5,1.2v2.3a2.5,2.5,0,0,0,.2,1h-.9Zm-1.4-.6.7-.2c.3-.2.5-.3.6-.6v-1h-.7q-1.5,0-1.5.9c0,.3,0,.5.2.6A.9.9,0,0,0,456.8,138.3ZM461,134v.6a2.1,2.1,0,0,1,1.5-.7c1,0,1.6.6,1.6,1.8v3.2h-.9v-3.2a1.5,1.5,0,0,0-.2-.8,1,1,0,0,0-.8-.3l-.7.2-.5.6v3.5h-.8V134Zm5.2,4.9h-.8V134h.8Zm-.9-6.2.2-.3.3-.2a.5.5,0,0,1,.4.2.4.4,0,0,1,.1.3c0,.1,0,.3-.1.3l-.4.2-.3-.2C465.4,133,465.3,132.8,465.3,132.7Zm6.3,3.7h-2.2v-.6h2.2Zm4.2,1.8h3.1v.7h-4v-6.6h.9Zm7.8-1h-2.8l-.6,1.7h-.9l2.5-6.6h.8l2.5,6.6h-.9Zm-2.5-.7h2.3l-1.2-3.1Zm5,3h-.8l2.8-7.2h.7Zm5.7-3.5a3.4,3.4,0,0,1-1.6-.8,1.3,1.3,0,0,1-.5-1.2,1.8,1.8,0,0,1,.6-1.3,2.5,2.5,0,0,1,1.6-.5,2.4,2.4,0,0,1,1.2.3,1.9,1.9,0,0,1,.8.7,1.9,1.9,0,0,1,.3,1h-.9a1.2,1.2,0,0,0-.3-.9,1.8,1.8,0,0,0-1.1-.4,1.5,1.5,0,0,0-1,.3.9.9,0,0,0-.4.8.8.8,0,0,0,.4.7,3.8,3.8,0,0,0,1.1.5l1.3.5a1.6,1.6,0,0,1,.7.7,1.1,1.1,0,0,1,.2.8,1.5,1.5,0,0,1-.6,1.3,2.9,2.9,0,0,1-1.7.5l-1.2-.3a1.6,1.6,0,0,1-.9-.7,1.3,1.3,0,0,1-.4-1h.9a1.1,1.1,0,0,0,.5.9,1.4,1.4,0,0,0,1.1.4,1.6,1.6,0,0,0,1.1-.3,1,1,0,0,0,.4-.8,1,1,0,0,0-.4-.7A2.3,2.3,0,0,0,491.8,136Zm7.2,0h-2.8v2.9h-.8v-6.6h4v.7h-3.2v2.3H499Z" transform="translate(-4 0)" />
		<path d="M441.7,159.1h-2.9v2.3h3.3v.7H438v-6.6h4.1v.7h-3.3v2.1h2.9Zm2.2-1.9v.6a1.8,1.8,0,0,1,1.5-.7,1.5,1.5,0,0,1,1.4.8,1.7,1.7,0,0,1,.6-.6l.9-.2a1.5,1.5,0,0,1,1.7,1.7v3.3h-.9v-3.2a1.5,1.5,0,0,0-.2-.8,1,1,0,0,0-.8-.3,1.1,1.1,0,0,0-.8.3,1,1,0,0,0-.3.8v3.2h-.9v-3.2c0-.7-.3-1.1-1-1.1a1.3,1.3,0,0,0-1.2.7v3.6h-.8v-4.9Zm11.5,2.5a3,3,0,0,1-.5,1.8,1.6,1.6,0,0,1-1.4.7,1.7,1.7,0,0,1-1.4-.6V164h-.9v-6.8h.8v.6a1.8,1.8,0,0,1,1.5-.7,1.6,1.6,0,0,1,1.4.7,3,3,0,0,1,.5,1.8Zm-.9-.1a2.5,2.5,0,0,0-.3-1.3,1.2,1.2,0,0,0-2.1.2v2.3a1.1,1.1,0,0,0,1.1.7,1.1,1.1,0,0,0,1-.5A2.6,2.6,0,0,0,454.5,159.6Zm1.7,0a2.8,2.8,0,0,1,.3-1.3,2.4,2.4,0,0,1,.8-.9,2.1,2.1,0,0,1,1.2-.3,2,2,0,0,1,1.6.7,2.9,2.9,0,0,1,.6,1.9h0a2.8,2.8,0,0,1-.3,1.3,1.8,1.8,0,0,1-.8.9,2,2,0,0,1-1.1.3,2.2,2.2,0,0,1-1.7-.7,2.8,2.8,0,0,1-.6-1.8Zm.9.1a2.3,2.3,0,0,0,.3,1.3,1.2,1.2,0,0,0,1.1.5,1.4,1.4,0,0,0,1-.5,2.6,2.6,0,0,0,.4-1.4,2.5,2.5,0,0,0-.4-1.3,1.4,1.4,0,0,0-1-.5,1.4,1.4,0,0,0-1.1.5A2.6,2.6,0,0,0,457.1,159.7Zm7-1.7h-.4a1.1,1.1,0,0,0-1.1.7v3.5h-.9v-4.9h.9v.6a1.1,1.1,0,0,1,1.1-.7h.4Zm1.7,4.1H465v-4.9h.8Zm-.9-6.2a.4.4,0,0,1,.1-.3l.4-.2.4.2v.6l-.4.2-.4-.2C464.9,156.2,464.9,156,464.9,155.9Zm2,3.7a2.8,2.8,0,0,1,.3-1.3,2.4,2.4,0,0,1,.8-.9,2,2,0,0,1,1.1-.3,2.1,2.1,0,0,1,1.7.7,2.9,2.9,0,0,1,.6,1.9h0a2.8,2.8,0,0,1-.3,1.3,1.8,1.8,0,0,1-.8.9,2,2,0,0,1-1.1.3,2.1,2.1,0,0,1-1.7-.7,2.8,2.8,0,0,1-.6-1.8Zm.9.1a2.3,2.3,0,0,0,.3,1.3,1.2,1.2,0,0,0,1.1.5,1.4,1.4,0,0,0,1-.5,2.6,2.6,0,0,0,.3-1.4,2.5,2.5,0,0,0-.3-1.3,1.4,1.4,0,0,0-1.1-.5,1.4,1.4,0,0,0-1,.5A2.6,2.6,0,0,0,467.8,159.7Zm10.7.7h-2.8l-.6,1.7h-.9l2.5-6.6h.8l2.5,6.6h-.9Zm-2.5-.7h2.3l-1.2-3.1Zm7.2-1.7h-.5a1.2,1.2,0,0,0-1.1.7v3.5h-.8v-4.9h.8v.6a1.3,1.3,0,0,1,1.2-.7h.4Zm1.5-.8v.6a1.8,1.8,0,0,1,1.5-.7,1.4,1.4,0,0,1,1.4.8l.6-.6,1-.2a1.5,1.5,0,0,1,1.6,1.7v3.3H490v-3.2a1,1,0,0,0-.3-.8c-.1-.2-.4-.3-.8-.3a1.1,1.1,0,0,0-.8.3,1,1,0,0,0-.3.8v3.2h-.9v-3.2c0-.7-.3-1.1-1-1.1a1.1,1.1,0,0,0-1.1.7v3.6h-.9v-4.9Zm10.4,4.9a.7.7,0,0,1-.1-.5,2,2,0,0,1-1.4.6,1.6,1.6,0,0,1-1.2-.4,1.4,1.4,0,0,1-.5-1,1.2,1.2,0,0,1,.6-1.2,2.5,2.5,0,0,1,1.6-.5h.9v-.3a.8.8,0,0,0-.3-.7,1,1,0,0,0-.8-.3l-.7.2a.9.9,0,0,0-.3.6H492a.9.9,0,0,1,.3-.7,1.3,1.3,0,0,1,.7-.6l1-.2a2.5,2.5,0,0,1,1.3.4,1.7,1.7,0,0,1,.5,1.2V161a2.5,2.5,0,0,0,.2,1h-.9Zm-1.4-.6.8-.2c.2-.2.4-.3.5-.6v-1h-.7q-1.5,0-1.5.9a.8.8,0,0,0,.2.6A.9.9,0,0,0,493.7,161.5Zm4.2-4.3v.6a2.1,2.1,0,0,1,1.5-.7c1,0,1.6.6,1.6,1.8v3.2h-.9v-3.2c0-.4,0-.6-.2-.8a.9.9,0,0,0-.7-.3l-.8.2a2.1,2.1,0,0,0-.4.6v3.5h-.9v-4.9Zm5.2,4.9h-.8v-4.9h.8Zm-.9-6.2.2-.3.3-.2.4.2a.4.4,0,0,1,.1.3c0,.1,0,.3-.1.3l-.4.2c-.1,0-.3-.1-.3-.2S502.2,156,502.2,155.9Z" transform="translate(-4 0)" />
		<path class="cls-14" d="M459.1,108.2h1.2v4.6a2,2,0,0,1-.6,1.5,2.1,2.1,0,0,1-1.6.6,2.5,2.5,0,0,1-1.6-.5,2,2,0,0,1-.5-1.5h1.1a1,1,0,0,0,.3.8,1,1,0,0,0,1.4,0,1.2,1.2,0,0,0,.3-.9Zm5.3,6.6a4.3,4.3,0,0,1-.1-.5,1.8,1.8,0,0,1-1.3.6,2.1,2.1,0,0,1-1.2-.4,1.6,1.6,0,0,1-.5-1.1,1.4,1.4,0,0,1,.6-1.2,2.7,2.7,0,0,1,1.7-.4h.6v-.3c0-.3,0-.5-.2-.6a.6.6,0,0,0-.6-.3l-.6.2a.5.5,0,0,0-.3.5h-1.1a1.3,1.3,0,0,1,.3-.8,1.8,1.8,0,0,1,.7-.5l1-.2a2,2,0,0,1,1.4.4,1.3,1.3,0,0,1,.5,1.2v2.3a3,3,0,0,0,.2,1h-1.1Zm-1.2-.8.6-.2a.8.8,0,0,0,.4-.4v-.9h-.6l-.9.2a.6.6,0,0,0-.3.6.8.8,0,0,0,.2.5Zm4.3-4.1v.5a2,2,0,0,1,1.5-.6c1,0,1.5.6,1.5,1.7v3.3h-1.1v-3.2a.8.8,0,0,0-.2-.7l-.6-.2a1,1,0,0,0-1,.6v3.5h-1.1v-4.9Zm9.4,4.9h-1.1v-5.3l-1.6.5v-.9l2.5-.9h.2Zm6.7-6-2.7,6h-1.1l2.6-5.7H479v-.9h4.6Z" transform="translate(-4 0)" />
		<path class="cls-14" d="M631.7,108.2h1.2v4.6a2,2,0,0,1-.6,1.5,2.1,2.1,0,0,1-1.6.6,2.5,2.5,0,0,1-1.6-.5,2,2,0,0,1-.5-1.5h1.1a1,1,0,0,0,.3.8,1,1,0,0,0,1.4,0,1.2,1.2,0,0,0,.3-.9Zm5.3,6.6a4.3,4.3,0,0,1-.1-.5,1.8,1.8,0,0,1-1.3.6,2.1,2.1,0,0,1-1.2-.4,1.6,1.6,0,0,1-.5-1.1,1.4,1.4,0,0,1,.6-1.2,2.7,2.7,0,0,1,1.7-.4h.6v-.3c0-.3,0-.5-.2-.6a.6.6,0,0,0-.6-.3l-.6.2a.5.5,0,0,0-.3.5H634a1.3,1.3,0,0,1,.3-.8,1.8,1.8,0,0,1,.7-.5l1-.2a2,2,0,0,1,1.4.4,1.3,1.3,0,0,1,.5,1.2v2.3a3,3,0,0,0,.2,1H637Zm-1.2-.8.6-.2a.8.8,0,0,0,.4-.4v-.9h-.6l-.9.2a.6.6,0,0,0-.3.6.8.8,0,0,0,.2.5Zm4.3-4.1v.5a2,2,0,0,1,1.5-.6c1,0,1.5.6,1.5,1.7v3.3H642v-3.2a.7.7,0,0,0-.8-.9,1,1,0,0,0-1,.6v3.5h-1.1v-4.9Zm9.4,4.9h-1.1v-5.3l-1.6.5v-.9l2.5-.9h.2Zm6.4-4.9a2.4,2.4,0,0,1-.2.9l-.7.6a2.4,2.4,0,0,1,.8.6,1.7,1.7,0,0,1,.3,1,1.8,1.8,0,0,1-.6,1.4,2.5,2.5,0,0,1-1.6.5,2.8,2.8,0,0,1-1.6-.5,1.8,1.8,0,0,1-.6-1.4,1.7,1.7,0,0,1,.3-1,2.4,2.4,0,0,1,.8-.6l-.7-.6a2.4,2.4,0,0,1-.2-.9,1.9,1.9,0,0,1,.5-1.3,2.5,2.5,0,0,1,3,0A1.9,1.9,0,0,1,655.9,109.9Zm-.9,3a1.1,1.1,0,1,0-2.2,0,1,1,0,0,0,.3.8,1.2,1.2,0,0,0,1.6,0A1,1,0,0,0,655,112.9Zm-.2-2.9a1.2,1.2,0,0,0-.2-.7.9.9,0,0,0-.7-.3l-.7.2a1.9,1.9,0,0,0-.2.8,1.4,1.4,0,0,0,.2.7,1,1,0,0,0,1.4,0A1.4,1.4,0,0,0,654.8,110Z" transform="translate(-4 0)" />
		<path d="M244.2,27.2a1,1,0,0,0-.3-.8l-1.4-.6a8.4,8.4,0,0,1-1.6-.7,2.5,2.5,0,0,1-1.6-2.2,2.4,2.4,0,0,1,.5-1.4,1.9,1.9,0,0,1,1.2-.9,4.8,4.8,0,0,1,1.8-.3,4.7,4.7,0,0,1,1.7.3,4,4,0,0,1,1.2,1,2.8,2.8,0,0,1,.4,1.5h-1.9a1.3,1.3,0,0,0-.4-1,1.6,1.6,0,0,0-1.1-.3,2,2,0,0,0-1.1.3,1,1,0,0,0-.4.8c0,.3.2.5.5.7l1.3.6a5.4,5.4,0,0,1,2.4,1.2,2.4,2.4,0,0,1,.7,1.8,2.3,2.3,0,0,1-.9,1.9,4.3,4.3,0,0,1-2.4.7,5.3,5.3,0,0,1-1.9-.4,3.1,3.1,0,0,1-1.4-1.1,2.9,2.9,0,0,1-.4-1.6H241c0,1,.6,1.6,1.8,1.6a2,2,0,0,0,1.1-.3A1.1,1.1,0,0,0,244.2,27.2Zm5.3-6.1v1.7h1.2v1.3h-1.2v3.4a.8.8,0,0,0,.2.6h1.1v1.4l-1.2.2a1.8,1.8,0,0,1-1.9-2V24.1h-1V22.8h1V21.1Zm6.2,8.5a.8.8,0,0,1-.2-.6,2.1,2.1,0,0,1-1.7.8,2.4,2.4,0,0,1-1.7-.6,2.1,2.1,0,0,1,.1-3.2,4.3,4.3,0,0,1,2.4-.6h.8V25a1.4,1.4,0,0,0-.2-.7,1,1,0,0,0-.8-.3l-.7.2a.9.9,0,0,0-.3.6h-1.8a1.7,1.7,0,0,1,.4-1.1,2.1,2.1,0,0,1,1-.8,3.3,3.3,0,0,1,1.5-.3,3,3,0,0,1,2,.7,2.2,2.2,0,0,1,.8,1.8V28a4.9,4.9,0,0,0,.2,1.5h-1.8Zm-1.5-1.2.7-.2a1.2,1.2,0,0,0,.5-.5V26.5h-.7c-.9,0-1.4.3-1.4,1h0c0,.2,0,.4.2.5A.9.9,0,0,0,254.2,28.4Zm6.7-7.3v1.7H262v1.3h-1.1v3.4c0,.3,0,.5.1.6h1.1v1.4l-1.1.2c-1.3,0-1.9-.7-2-2V24.1h-1V22.8h1V21.1Zm4.1,8.5h-1.8V22.8H265ZM263,21a.9.9,0,0,1,.3-.7,1.1,1.1,0,0,1,.8-.3,1,1,0,0,1,.7,1.7.8.8,0,0,1-.7.2,1.1,1.1,0,0,1-.8-.2A.9.9,0,0,1,263,21Zm6.4,7.3a1.1,1.1,0,0,0,.8-.3.9.9,0,0,0,.3-.7h1.7a2.4,2.4,0,0,1-.3,1.2,2.4,2.4,0,0,1-1.1.9,2.3,2.3,0,0,1-1.4.4,2.9,2.9,0,0,1-2.3-1,3.6,3.6,0,0,1-.9-2.6h0a3.5,3.5,0,0,1,.9-2.5,2.9,2.9,0,0,1,2.3-1,2.8,2.8,0,0,1,2,.8,2.2,2.2,0,0,1,.8,1.9h-1.7a1.1,1.1,0,0,0-.3-.8.9.9,0,0,0-.8-.4,1.1,1.1,0,0,0-1,.5,2.8,2.8,0,0,0-.3,1.5v.2a2.8,2.8,0,0,0,.3,1.5A1.1,1.1,0,0,0,269.4,28.3Zm12.5-.6h-3.4l-.6,1.9h-2l3.4-9.2h1.8l3.4,9.2h-2ZM279,26.2h2.3l-1.1-3.5Zm8.5,1.2,1.3-4.6h1.9l-2.3,6.8h-1.8l-2.3-6.8h1.9Zm7.9,2.2a.8.8,0,0,1-.2-.6,2.1,2.1,0,0,1-1.7.8,2.4,2.4,0,0,1-1.7-.6,2.1,2.1,0,0,1,.1-3.2,4.3,4.3,0,0,1,2.4-.6h.8V25a.8.8,0,0,0-.2-.7,1,1,0,0,0-.8-.3l-.7.2a.9.9,0,0,0-.3.6h-1.8a1.7,1.7,0,0,1,.4-1.1,2.7,2.7,0,0,1,1-.8,4,4,0,0,1,1.5-.3,3,3,0,0,1,2,.7,2.2,2.2,0,0,1,.8,1.8V28a4.9,4.9,0,0,0,.2,1.5h-1.8Zm-1.5-1.2.7-.2a.8.8,0,0,0,.5-.5V26.5h-.7c-.9,0-1.4.3-1.4,1h0a.8.8,0,0,0,.2.5A.9.9,0,0,0,293.9,28.4Zm6.4,1.2h-1.8V22.8h1.8ZM298.4,21a1.4,1.4,0,0,1,.2-.7,1.1,1.1,0,0,1,.8-.3.8.8,0,0,1,.7.3,1,1,0,0,1,0,1.4c-.1.2-.4.2-.7.2a1.1,1.1,0,0,1-.8-.2A1.4,1.4,0,0,1,298.4,21Zm5.4,8.6h-1.9V19.9h1.9Zm5.2-1.9a.5.5,0,0,0-.3-.5l-1.1-.3c-1.6-.4-2.5-1.1-2.5-2.1a1.9,1.9,0,0,1,.8-1.5,2.7,2.7,0,0,1,2-.7,2.8,2.8,0,0,1,2.1.7,1.9,1.9,0,0,1,.8,1.6h-1.9a1.4,1.4,0,0,0-.2-.7,1.1,1.1,0,0,0-.8-.3.8.8,0,0,0-.7.3.6.6,0,0,0,0,1l1,.3,1.1.3a2,2,0,0,1,1.5,1.9,1.9,1.9,0,0,1-.8,1.5,3.7,3.7,0,0,1-2.1.6,3.1,3.1,0,0,1-2.6-1.2,2.1,2.1,0,0,1-.4-1.1h1.8a.9.9,0,0,0,.3.7l.9.3a1.5,1.5,0,0,0,.8-.2A.7.7,0,0,0,309,27.7Z" transform="translate(-4 0)" />
		<path class="cls-15" d="M228.7,19h-6v-.5c0-.5-.6-.5-.6,0V19H216a.7.7,0,0,0-.6.7v.7a.7.7,0,0,0,.6.7h.1v8.2a.7.7,0,0,0,.6.7h5.4v1.1l-2.4,2c-.3.3.1.9.4.5l2-1.6v1.4a.3.3,0,0,0,.6,0V32l1.9,1.6c.4.4.7-.2.4-.5l-2.3-2V30H228c.4,0,.6-.3.6-.7V21.1h.1c.4,0,.6-.3.6-.7v-.7c0-.4-.2-.7-.6-.7ZM228,29.3H216.7V21.1H228Zm.7-8.9H216v-.7h12.7Z" transform="translate(-4 0)" />
		<path class="cls-16" d="M214,60.3a4.2,4.2,0,0,1,4.2-4.2h44.1V78.4H218.2a4.2,4.2,0,0,1-4.2-4.2Z" transform="translate(-4 0)" />
		<path class="cls-16" d="M262.3,56.1h49.6a4.2,4.2,0,0,1,4.2,4.2V74.2a4.2,4.2,0,0,1-4.2,4.2H262.3Z" transform="translate(-4 0)" />
		<path d="M224.1,69.5h3.4v.7h-4.3v-.6l3.2-4.7h-3.2v-.7h4.2v.6Zm4-1.6a2,2,0,0,1,.3-1.1,1.1,1.1,0,0,1,.7-.8,1.7,1.7,0,0,1,1-.3,2,2,0,0,1,1.5.6,2.3,2.3,0,0,1,.5,1.7h0a2.5,2.5,0,0,1-.2,1.2,2.7,2.7,0,0,1-.7.8,2,2,0,0,1-1.1.3,1.7,1.7,0,0,1-1.4-.7,2.1,2.1,0,0,1-.6-1.6Zm.8.1a2.1,2.1,0,0,0,.3,1.2,1.1,1.1,0,0,0,.9.4,1,1,0,0,0,.9-.4,1.7,1.7,0,0,0,.4-1.3,1.4,1.4,0,0,0-.4-1.1.9.9,0,0,0-.9-.5,1.1,1.1,0,0,0-.9.4A2.5,2.5,0,0,0,228.9,68Zm4-.1a3.6,3.6,0,0,1,.2-1.1c.2-.4.4-.7.7-.8a2,2,0,0,1,1.1-.3,1.7,1.7,0,0,1,1.4.6,2.4,2.4,0,0,1,.6,1.7h0a5,5,0,0,1-.2,1.2,2,2,0,0,1-.8.8,1.7,1.7,0,0,1-1,.3,2.1,2.1,0,0,1-1.5-.7,2.5,2.5,0,0,1-.5-1.6Zm.7.1a2.1,2.1,0,0,0,.4,1.2,1.2,1.2,0,0,0,1.8,0,2.3,2.3,0,0,0,.3-1.3,1.8,1.8,0,0,0-.3-1.1.9.9,0,0,0-.9-.5,1,1,0,0,0-.9.4A2.5,2.5,0,0,0,233.6,68Zm5-2.2v.4a1.7,1.7,0,0,1,1.3-.5,1.1,1.1,0,0,1,1.2.7l.6-.5a1.3,1.3,0,0,1,.9-.2c.9,0,1.4.5,1.4,1.5v3h-.7V67.3a1,1,0,0,0-.2-.7,1,1,0,0,0-.8-.3,1.1,1.1,0,0,0-.7.3.7.7,0,0,0-.3.6v3h-.7V67.3a.9.9,0,0,0-1-1,1,1,0,0,0-1,.7v3.2h-.8V65.8Zm9.5,4.4h-.8V65.8h.8Zm-.9-5.6.2-.3h.6a.5.5,0,0,1,0,.6h-.6C247.3,64.8,247.2,64.7,247.2,64.6Zm2.8,1.2v.5a1.6,1.6,0,0,1,1.3-.6c1,0,1.4.5,1.4,1.6v2.9H252V67.3a1.5,1.5,0,0,0-.2-.8l-.7-.2-.6.2a1.2,1.2,0,0,0-.5.5v3.2h-.7V65.8Z" transform="translate(-4 0)" />
		<path d="M270.5,69.5h3.4v.7h-4.3v-.6l3.2-4.7h-3.2v-.7h4.2v.6Zm4-1.6a2,2,0,0,1,.3-1.1,1.1,1.1,0,0,1,.7-.8,1.7,1.7,0,0,1,1-.3,2,2,0,0,1,1.5.6,2.3,2.3,0,0,1,.5,1.7h0a2.5,2.5,0,0,1-.2,1.2,2.7,2.7,0,0,1-.7.8,2,2,0,0,1-1.1.3,1.7,1.7,0,0,1-1.4-.7,2.1,2.1,0,0,1-.6-1.6Zm.8.1a2.1,2.1,0,0,0,.3,1.2,1.2,1.2,0,0,0,1.8,0,1.7,1.7,0,0,0,.4-1.3,1.4,1.4,0,0,0-.4-1.1.9.9,0,0,0-.9-.5,1,1,0,0,0-.9.4A2.5,2.5,0,0,0,275.3,68Zm4-.1a3.6,3.6,0,0,1,.2-1.1c.2-.4.4-.7.7-.8a2,2,0,0,1,1.1-.3,1.7,1.7,0,0,1,1.4.6,2.4,2.4,0,0,1,.6,1.7h0a2.7,2.7,0,0,1-.3,1.2,1.3,1.3,0,0,1-.7.8,1.7,1.7,0,0,1-1,.3,2.1,2.1,0,0,1-1.5-.7,2.5,2.5,0,0,1-.5-1.6Zm.7.1a2.1,2.1,0,0,0,.4,1.2,1.2,1.2,0,0,0,1.8,0,2.3,2.3,0,0,0,.3-1.3,1.8,1.8,0,0,0-.3-1.1.9.9,0,0,0-.9-.5,1,1,0,0,0-.9.4A2.5,2.5,0,0,0,280,68Zm5-2.2v.4a1.7,1.7,0,0,1,1.3-.5,1.1,1.1,0,0,1,1.2.7l.6-.5a1.3,1.3,0,0,1,.9-.2c.9,0,1.4.5,1.4,1.5v3h-.7V67.3a1,1,0,0,0-.2-.7,1,1,0,0,0-.8-.3,1.1,1.1,0,0,0-.7.3.7.7,0,0,0-.3.6v3H287V67.3a.9.9,0,0,0-1-1,1,1,0,0,0-1,.7v3.2h-.8V65.8Zm8.4,2.1a2,2,0,0,1,.3-1.1c.2-.4.4-.7.7-.8a1.9,1.9,0,0,1,1-.3,2,2,0,0,1,1.5.6,2.4,2.4,0,0,1,.6,1.7h0a2.7,2.7,0,0,1-.3,1.2,2.7,2.7,0,0,1-.7.8,1.9,1.9,0,0,1-1,.3,2.2,2.2,0,0,1-2.1-2.3Zm.8.1a2.1,2.1,0,0,0,.3,1.2,1.3,1.3,0,0,0,1,.4,1.2,1.2,0,0,0,.9-.4,2.3,2.3,0,0,0,.3-1.3,1.8,1.8,0,0,0-.3-1.1,1.1,1.1,0,0,0-1-.5,1.2,1.2,0,0,0-.9.4A2.5,2.5,0,0,0,294.2,68Zm6.9,1.7a1.5,1.5,0,0,1-1.3.6,1.2,1.2,0,0,1-1-.5c-.3-.2-.4-.6-.4-1.2V65.8h.7v2.8c0,.7.3,1,.9,1a1.1,1.1,0,0,0,1.1-.6V65.8h.8v4.4h-.8Zm2.9-5v1.1h.9v.5H304v2.8c0,.2.1.3.1.4h.8v.6h-.6a.9.9,0,0,1-.8-.4,1.5,1.5,0,0,1-.2-.8V66.3h-.8v-.5h.8V64.7Z" transform="translate(-4 0)" />
		<path class="cls-16" d="M419.1,78.4H345.3a4.1,4.1,0,0,1-4.1-4.2V60.3a4.1,4.1,0,0,1,4.1-4.2h73.8Z" transform="translate(-4 0)" />
		<path class="cls-16" d="M419.1,56.1h73.8a4.1,4.1,0,0,1,4.1,4.2V74.2a4.1,4.1,0,0,1-4.1,4.2H419.1Z" transform="translate(-4 0)" />
		<path d="M353.3,67.8v2.4h-.8v-6h2.2a2.1,2.1,0,0,1,1.5.5,1.8,1.8,0,0,1,.6,1.3,1.7,1.7,0,0,1-.6,1.4,2.1,2.1,0,0,1-1.5.4Zm0-.6h1.4a1.7,1.7,0,0,0,1-.3,1.1,1.1,0,0,0,.3-.8,1.2,1.2,0,0,0-.3-.9,1.7,1.7,0,0,0-1-.3h-1.4Zm6.5-.8h-.4a1,1,0,0,0-1,.6v3.2h-.7V65.8h.7v.5a1.3,1.3,0,0,1,1.1-.6h.3Zm2.4,3.9a1.8,1.8,0,0,1-1.4-.6,2.3,2.3,0,0,1-.6-1.6v-.2a2,2,0,0,1,.3-1.1,1.4,1.4,0,0,1,.7-.8,1.6,1.6,0,0,1,.9-.3,2,2,0,0,1,1.4.5,2.9,2.9,0,0,1,.5,1.7v.3h-3a1.2,1.2,0,0,0,.4,1,1,1,0,0,0,.9.4h.7l.4-.5.5.4A1.9,1.9,0,0,1,362.2,70.3Zm-.1-4a.9.9,0,0,0-.7.3,1.8,1.8,0,0,0-.4,1h2.2a1.2,1.2,0,0,0-.3-.9A1,1,0,0,0,362.1,66.3Zm4.1,2.8,1.1-3.3h.8l-1.6,4.4h-.6l-1.6-4.4h.8Zm3.4,1.1h-.7V65.8h.7Zm-.8-5.6c0-.1.1-.2.1-.3h.7a.5.5,0,0,1,0,.6h-.7C368.9,64.8,368.8,64.7,368.8,64.6Zm1.9,3.3a2,2,0,0,1,.2-1.1c.2-.4.4-.7.7-.8a2,2,0,0,1,1.1-.3,1.8,1.8,0,0,1,1.4.6,2.4,2.4,0,0,1,.6,1.7h0a2.7,2.7,0,0,1-.3,1.2,1.8,1.8,0,0,1-.7.8,1.7,1.7,0,0,1-1,.3,2.1,2.1,0,0,1-1.5-.7,2.1,2.1,0,0,1-.5-1.6Zm.7.1a1.6,1.6,0,0,0,.4,1.2,1.2,1.2,0,0,0,1.8,0,2.3,2.3,0,0,0,.3-1.3,1.6,1.6,0,0,0-.3-1.1,1.1,1.1,0,0,0-.9-.5,1,1,0,0,0-.9.4A1.8,1.8,0,0,0,371.4,68Zm6.9,1.7a1.3,1.3,0,0,1-1.2.6,1.3,1.3,0,0,1-1.1-.5c-.3-.2-.4-.6-.4-1.2V65.8h.8v2.8c0,.7.2,1,.8,1a1.1,1.1,0,0,0,1.1-.6V65.8h.8v4.4h-.7Zm4.5-.7a.8.8,0,0,0-.2-.5l-.8-.3a1.2,1.2,0,0,1-.9-.3.7.7,0,0,1-.5-.4.8.8,0,0,1-.2-.5,1.1,1.1,0,0,1,.5-.9,1.5,1.5,0,0,1,1.1-.4,1.6,1.6,0,0,1,1.2.4,1,1,0,0,1,.5,1h-.7a.7.7,0,0,0-.3-.6l-.7-.2-.6.2a.4.4,0,0,0-.2.4c0,.2,0,.4.2.5l.7.2,1,.3.5.4a1.4,1.4,0,0,1,.2.6,1.2,1.2,0,0,1-.5,1,2.1,2.1,0,0,1-1.2.4l-1-.2c-.3-.2-.5-.3-.6-.6a.9.9,0,0,1-.3-.7h.8a.6.6,0,0,0,.3.6c.2.2.4.2.8.2h.6C382.7,69.3,382.8,69.2,382.8,69Zm7.7.1.9-3.3h.7l-1.3,4.4h-.6l-1.1-3.4-1,3.4h-.6l-1.3-4.4h.8l.8,3.3,1.1-3.3h.6Zm4.2,1.2a1.7,1.7,0,0,1-1.4-.6,2.3,2.3,0,0,1-.6-1.6v-.2a3.6,3.6,0,0,1,.2-1.1,1.9,1.9,0,0,1,.7-.8,1.9,1.9,0,0,1,1-.3,2.2,2.2,0,0,1,1.4.5,2.9,2.9,0,0,1,.4,1.7v.3h-2.9a1.5,1.5,0,0,0,.3,1,1.3,1.3,0,0,0,1,.4h.6a1.2,1.2,0,0,0,.5-.5l.5.4A1.9,1.9,0,0,1,394.7,70.3Zm-.1-4a.9.9,0,0,0-.7.3,1.8,1.8,0,0,0-.4,1h2.2a1.2,1.2,0,0,0-.3-.9A1.1,1.1,0,0,0,394.6,66.3Zm4.5,4a1.8,1.8,0,0,1-1.4-.6,2.3,2.3,0,0,1-.6-1.6v-.2a2,2,0,0,1,.3-1.1,1.4,1.4,0,0,1,.7-.8,1.7,1.7,0,0,1,1-.3,1.9,1.9,0,0,1,1.3.5,2.9,2.9,0,0,1,.5,1.7v.3h-3a1.2,1.2,0,0,0,.4,1,1,1,0,0,0,.9.4h.7l.5-.5.4.4A1.9,1.9,0,0,1,399.1,70.3Zm0-4a1,1,0,0,0-.8.3,3,3,0,0,0-.4,1h2.2a1.2,1.2,0,0,0-.3-.9A.9.9,0,0,0,399.1,66.3Zm3.9,1.8-.5.5v1.6h-.8V63.9h.8v3.8l.4-.5,1.4-1.4h.9l-1.7,1.8,1.9,2.6h-.9Zm5.5.9c0-.2,0-.4-.2-.5l-.8-.3a1.2,1.2,0,0,1-.9-.3,1,1,0,0,1-.5-.4.8.8,0,0,1-.2-.5,1.1,1.1,0,0,1,.5-.9,2,2,0,0,1,2.4,0,1.2,1.2,0,0,1,.5,1h-.8a.7.7,0,0,0-.3-.6l-.6-.2-.7.2a.6.6,0,0,0,0,.9l.8.2.9.3.5.4a1.4,1.4,0,0,1,.2.6,1.2,1.2,0,0,1-.5,1,2.1,2.1,0,0,1-1.2.4l-.9-.2a2,2,0,0,1-.7-.6,1.4,1.4,0,0,1-.2-.7h.7a.9.9,0,0,0,.4.6c.1.2.4.2.7.2h.7A.6.6,0,0,0,408.5,69Z" transform="translate(-4 0)" />
		<path d="M442.4,70.2h-.7l-3-4.6v4.6h-.8v-6h.8l3,4.6V64.2h.7Zm3.2.1a2,2,0,0,1-1.5-.6,2.3,2.3,0,0,1-.6-1.6v-.2a2,2,0,0,1,.3-1.1,1.4,1.4,0,0,1,.7-.8,1.7,1.7,0,0,1,1-.3,1.9,1.9,0,0,1,1.3.5,2.9,2.9,0,0,1,.5,1.7v.3h-3a1.2,1.2,0,0,0,.4,1,1,1,0,0,0,.9.4h.7l.5-.5.4.4A1.8,1.8,0,0,1,445.6,70.3Zm-.1-4a1.1,1.1,0,0,0-.8.3,3,3,0,0,0-.4,1h2.2a1.2,1.2,0,0,0-.3-.9A.9.9,0,0,0,445.5,66.3Zm4.1,1.1,1-1.6h.9L450,67.9l1.5,2.3h-.8l-1.1-1.7-1,1.7h-.9l1.5-2.3-1.4-2.1h.9Zm3.7-2.7v1.1h.8v.5h-.8v2.8c0,.2.1.3.1.4h.8v.6h-.6a.8.8,0,0,1-.8-.4c-.2-.2-.2-.4-.2-.8V66.3h-.8v-.5h.8V64.7Zm7.7,4.4.9-3.3h.7l-1.3,4.4h-.6l-1.1-3.4-1,3.4H458l-1.3-4.4h.8l.8,3.3,1-3.3h.7Zm4.2,1.2a2,2,0,0,1-1.5-.6,2.8,2.8,0,0,1-.5-1.6v-.2a3.6,3.6,0,0,1,.2-1.1,1.9,1.9,0,0,1,.7-.8,1.9,1.9,0,0,1,1-.3,2.2,2.2,0,0,1,1.4.5,2.9,2.9,0,0,1,.4,1.7v.3h-3a1.5,1.5,0,0,0,.4,1,1.2,1.2,0,0,0,.9.4h.7a1.2,1.2,0,0,0,.5-.5l.5.4A2,2,0,0,1,465.2,70.3Zm-.1-4a1.3,1.3,0,0,0-.8.3,1.7,1.7,0,0,0-.3,1h2.2a1.9,1.9,0,0,0-.3-.9A1.1,1.1,0,0,0,465.1,66.3Zm4.5,4a1.7,1.7,0,0,1-1.4-.6,2.3,2.3,0,0,1-.6-1.6v-.2a2,2,0,0,1,.3-1.1,1.4,1.4,0,0,1,.7-.8,1.6,1.6,0,0,1,.9-.3,2,2,0,0,1,1.4.5,2.9,2.9,0,0,1,.5,1.7v.3h-3a1.5,1.5,0,0,0,.3,1,1.3,1.3,0,0,0,1,.4h.7l.4-.5.5.4A1.9,1.9,0,0,1,469.6,70.3Zm-.1-4a.9.9,0,0,0-.7.3,1.8,1.8,0,0,0-.4,1h2.2a1.2,1.2,0,0,0-.3-.9A1,1,0,0,0,469.5,66.3Zm4,1.8-.5.5v1.6h-.8V63.9h.8v3.8l.4-.5,1.4-1.4h.9L474,67.6l1.9,2.6H475Zm5.5.9c0-.2,0-.4-.2-.5l-.8-.3a1.2,1.2,0,0,1-.9-.3,1,1,0,0,1-.5-.4.8.8,0,0,1-.2-.5,1.1,1.1,0,0,1,.5-.9,2,2,0,0,1,2.4,0,1.2,1.2,0,0,1,.4,1H479a.7.7,0,0,0-.3-.6l-.6-.2-.7.2a.6.6,0,0,0,0,.9l.8.2.9.3.5.4a1.4,1.4,0,0,1,.2.6,1.2,1.2,0,0,1-.5,1,2.1,2.1,0,0,1-1.2.4l-1-.2a3.4,3.4,0,0,1-.6-.6,1.4,1.4,0,0,1-.2-.7h.7a.6.6,0,0,0,.3.6,1.1,1.1,0,0,0,.8.2h.7C478.9,69.3,479,69.2,479,69Z" transform="translate(-4 0)" />
		<path class="cls-16" d="M596.3,78.4H522.6a4.2,4.2,0,0,1-4.2-4.2V60.3a4.2,4.2,0,0,1,4.2-4.2h73.7Z" transform="translate(-4 0)" />
		<path class="cls-16" d="M596.3,56.1h73.8a4.2,4.2,0,0,1,4.2,4.2V74.2a4.2,4.2,0,0,1-4.2,4.2H596.3Z" transform="translate(-4 0)" />
		<path d="M528.8,70.2v-6h2a2.6,2.6,0,0,1,1.4.4,1.7,1.7,0,0,1,.5,1.2,2.4,2.4,0,0,1-.2.8l-.7.4a1.6,1.6,0,0,1,.8.6,1.2,1.2,0,0,1,.3.9,1.4,1.4,0,0,1-.6,1.2,2,2,0,0,1-1.4.5Zm.8-2.8v2.1h1.3l.9-.2a1.1,1.1,0,0,0,.3-.8c0-.7-.4-1.1-1.2-1.1Zm0-.6h1.2a1.1,1.1,0,0,0,.8-.3.9.9,0,0,0,.3-.7.8.8,0,0,0-.3-.7,1.5,1.5,0,0,0-.8-.2h-1.2Zm4.1,1.1a2,2,0,0,1,.3-1.1,1.1,1.1,0,0,1,.7-.8,1.7,1.7,0,0,1,1-.3,2,2,0,0,1,1.5.6,2.9,2.9,0,0,1,.5,1.7h0a5,5,0,0,1-.2,1.2,2.7,2.7,0,0,1-.7.8,2,2,0,0,1-1.1.3,1.7,1.7,0,0,1-1.4-.7,2.1,2.1,0,0,1-.6-1.6Zm.8.1a2.1,2.1,0,0,0,.3,1.2,1.2,1.2,0,0,0,1.8,0,1.7,1.7,0,0,0,.4-1.3,1.2,1.2,0,0,0-.4-1.1.9.9,0,0,0-.9-.5,1,1,0,0,0-.9.4A2.5,2.5,0,0,0,534.5,68Zm4-.1a3.6,3.6,0,0,1,.2-1.1c.2-.4.4-.7.7-.8a2,2,0,0,1,1.1-.3,1.7,1.7,0,0,1,1.4.6,2.4,2.4,0,0,1,.6,1.7h0a2.7,2.7,0,0,1-.3,1.2,1.8,1.8,0,0,1-.7.8,1.7,1.7,0,0,1-1,.3,2.1,2.1,0,0,1-1.5-.7,2.5,2.5,0,0,1-.5-1.6Zm.7.1a1.6,1.6,0,0,0,.4,1.2,1.2,1.2,0,0,0,1.8,0,2.3,2.3,0,0,0,.3-1.3,1.6,1.6,0,0,0-.3-1.1.9.9,0,0,0-.9-.5,1,1,0,0,0-.9.4A1.8,1.8,0,0,0,539.2,68Zm5.5.1-.5.5v1.6h-.8V63.9h.8v3.8l.4-.5,1.4-1.4h.9l-1.7,1.8,1.9,2.6h-.9Zm3.8,2.1h-.8V65.8h.8Zm-.8-5.6a.4.4,0,0,1,.1-.3h.7c0,.1.1.2.1.3s-.1.2-.1.3h-.7A.4.4,0,0,1,547.7,64.6Zm2.7,1.2v.5a1.8,1.8,0,0,1,1.4-.6c.9,0,1.4.5,1.4,1.6v2.9h-.8V67.3a1.5,1.5,0,0,0-.2-.8l-.7-.2-.6.2a1,1,0,0,0-.4.5v3.2h-.8V65.8Zm3.7,2.1a2.5,2.5,0,0,1,.5-1.6,1.5,1.5,0,0,1,1.3-.6,1.7,1.7,0,0,1,1.2.5v-.4h.7v4.3a1.6,1.6,0,0,1-.6,1.3,1.7,1.7,0,0,1-1.3.5l-.9-.2a.9.9,0,0,1-.7-.6l.3-.4a1.7,1.7,0,0,0,1.2.6,1.1,1.1,0,0,0,1.2-1.2v-.4a1.4,1.4,0,0,1-1.2.6,1.6,1.6,0,0,1-1.3-.7A2.9,2.9,0,0,1,554.1,67.9Zm.8.1a2.1,2.1,0,0,0,.3,1.2.9.9,0,0,0,.8.4,1.1,1.1,0,0,0,1.1-.6V67a1,1,0,0,0-1-.7,1.3,1.3,0,0,0-.9.4A2.5,2.5,0,0,0,554.9,68Zm10.7.3a2.6,2.6,0,0,1-.7,1.4,2.1,2.1,0,0,1-1.6.6,2.1,2.1,0,0,1-1.7-.8,3.2,3.2,0,0,1-.6-2v-.6a3.2,3.2,0,0,1,.3-1.4,2.1,2.1,0,0,1,.8-1,2.8,2.8,0,0,1,1.3-.3,2,2,0,0,1,1.5.5,2.1,2.1,0,0,1,.7,1.4h-.8a1.6,1.6,0,0,0-.5-1,1.2,1.2,0,0,0-.9-.3,1.4,1.4,0,0,0-1.2.6,2.1,2.1,0,0,0-.4,1.5v.6a2.2,2.2,0,0,0,.4,1.5,1.1,1.1,0,0,0,1.1.6,1.5,1.5,0,0,0,1-.3,1.9,1.9,0,0,0,.5-1Zm2.7,2a1.8,1.8,0,0,1-1.4-.6,2.3,2.3,0,0,1-.6-1.6v-.2a2,2,0,0,1,.3-1.1,1.4,1.4,0,0,1,.7-.8,1.6,1.6,0,0,1,.9-.3,2,2,0,0,1,1.4.5,2.9,2.9,0,0,1,.5,1.7v.3h-3a1.2,1.2,0,0,0,.4,1,1,1,0,0,0,.9.4h.7l.4-.5.5.4A1.9,1.9,0,0,1,568.3,70.3Zm-.1-4a.9.9,0,0,0-.7.3,1.8,1.8,0,0,0-.4,1h2.2a1.2,1.2,0,0,0-.3-.9A1,1,0,0,0,568.2,66.3Zm3.5-.5v.5a1.6,1.6,0,0,1,1.3-.6c.9,0,1.4.5,1.4,1.6v2.9h-.7V67.3a1,1,0,0,0-.3-.8.8.8,0,0,0-.6-.2l-.7.2a1,1,0,0,0-.4.5v3.2h-.8V65.8Zm4.9-1.1v1.1h.8v.5h-.8v2.8c0,.2,0,.3.1.4h.7v.6h-.6a.7.7,0,0,1-.7-.4,1,1,0,0,1-.3-.8V66.3H575v-.5h.8V64.7Zm3.8,1.7H580a1,1,0,0,0-1,.6v3.2h-.7V65.8h.7v.5a1.3,1.3,0,0,1,1.1-.6h.3Zm1.5,3.8h-.7V65.8h.7Zm-.8-5.6a.4.4,0,0,1,.1-.3h.7a.5.5,0,0,1,0,.6h-.7A.4.4,0,0,1,581.1,64.6Zm3.8,5a.8.8,0,0,0,.7-.2.9.9,0,0,0,.3-.6h.8c-.1.2-.1.5-.3.7l-.6.5a1.6,1.6,0,0,1-.9.3,1.7,1.7,0,0,1-1.4-.6,2.4,2.4,0,0,1-.6-1.7h0a2.7,2.7,0,0,1,.3-1.2,1.2,1.2,0,0,1,.7-.7,1.7,1.7,0,0,1,1-.3,1.6,1.6,0,0,1,1.2.4,1.7,1.7,0,0,1,.6,1.2h-.8a1,1,0,0,0-1-1,1,1,0,0,0-.9.4,2.1,2.1,0,0,0-.3,1.2v.2a1.6,1.6,0,0,0,.3,1.1A1,1,0,0,0,584.9,69.6Z" transform="translate(-4 0)" />
		<path d="M609.4,67.8v2.4h-.8v-6h2.2a2.1,2.1,0,0,1,1.5.5,1.8,1.8,0,0,1,.6,1.3,2,2,0,0,1-.5,1.4,2.5,2.5,0,0,1-1.6.4Zm0-.6h1.4a1.5,1.5,0,0,0,1-.3,1.1,1.1,0,0,0,.3-.8,1.1,1.1,0,0,0-1.2-1.2h-1.5Zm4.1.7a2,2,0,0,1,.3-1.1,1.1,1.1,0,0,1,.7-.8,1.7,1.7,0,0,1,1-.3,2,2,0,0,1,1.5.6,2.3,2.3,0,0,1,.5,1.7h0a2.5,2.5,0,0,1-.2,1.2,2.7,2.7,0,0,1-.7.8,2,2,0,0,1-1.1.3,1.7,1.7,0,0,1-1.4-.7,2.1,2.1,0,0,1-.6-1.6Zm.8.1a2.1,2.1,0,0,0,.3,1.2,1.1,1.1,0,0,0,.9.4,1,1,0,0,0,.9-.4,1.7,1.7,0,0,0,.4-1.3,1.2,1.2,0,0,0-.4-1.1.9.9,0,0,0-.9-.5,1.1,1.1,0,0,0-.9.4A2.5,2.5,0,0,0,614.3,68Zm6.8,1a.5.5,0,0,0-.3-.5l-.8-.3a1.2,1.2,0,0,1-.9-.3,1,1,0,0,1-.5-.4.7.7,0,0,1-.1-.5,1,1,0,0,1,.4-.9,2,2,0,0,1,2.4,0,1.2,1.2,0,0,1,.5,1H621a.7.7,0,0,0-.3-.6l-.6-.2-.7.2a.6.6,0,0,0,0,.9l.8.2.9.3a1.1,1.1,0,0,1,.5.4,1.4,1.4,0,0,1,.2.6,1.2,1.2,0,0,1-.5,1,2.1,2.1,0,0,1-1.2.4l-.9-.2a2,2,0,0,1-.7-.6,1.4,1.4,0,0,1-.2-.7h.8a.6.6,0,0,0,.3.6c.1.2.4.2.7.2h.7C621,69.3,621.1,69.2,621.1,69Zm2.7-4.3v1.1h.8v.5h-.8v2.8c0,.2,0,.3.1.4h.8v.6h-.6a.8.8,0,0,1-.8-.4c-.2-.2-.2-.4-.2-.8V66.3h-.8v-.5h.8V64.7Zm2.5,5.5h-.7V65.8h.7Zm-.8-5.6c0-.1.1-.2.1-.3h.7a.5.5,0,0,1,0,.6h-.7C625.6,64.8,625.5,64.7,625.5,64.6Zm2.8,1.2v.5a1.6,1.6,0,0,1,1.3-.6c.9,0,1.4.5,1.4,1.6v2.9h-.7V67.3a1,1,0,0,0-.3-.8.8.8,0,0,0-.6-.2l-.7.2-.4.5v3.2h-.7V65.8Zm3.7,2.1a2.1,2.1,0,0,1,.5-1.6,1.4,1.4,0,0,1,1.2-.6,1.7,1.7,0,0,1,1.3.5v-.4h.7v4.3a1.9,1.9,0,0,1-.5,1.3,2,2,0,0,1-1.4.5l-.9-.2a1.3,1.3,0,0,1-.7-.6l.4-.4a1.4,1.4,0,0,0,1.2.6,1,1,0,0,0,.8-.3,1.2,1.2,0,0,0,.3-.9v-.4a1.4,1.4,0,0,1-1.2.6,1.5,1.5,0,0,1-1.2-.7A2.3,2.3,0,0,1,632,67.9Zm.7.1a2.1,2.1,0,0,0,.3,1.2,1,1,0,0,0,.9.4,1,1,0,0,0,1-.6V67a1,1,0,0,0-1-.7,1.5,1.5,0,0,0-.9.4A2.5,2.5,0,0,0,632.7,68Zm10.7.3a2.1,2.1,0,0,1-.7,1.4,2,2,0,0,1-1.5.6,2.1,2.1,0,0,1-1.7-.8,2.7,2.7,0,0,1-.7-2v-.6a3.2,3.2,0,0,1,.3-1.4,1.8,1.8,0,0,1,.9-1,2.1,2.1,0,0,1,1.2-.3,1.7,1.7,0,0,1,1.5.5,2.1,2.1,0,0,1,.7,1.4h-.8a1.5,1.5,0,0,0-.4-1,1.5,1.5,0,0,0-1-.3,1.4,1.4,0,0,0-1.2.6,2.7,2.7,0,0,0-.4,1.5v.6A3,3,0,0,0,640,69a1.4,1.4,0,0,0,1.2.6,1.7,1.7,0,0,0,1-.3,1.9,1.9,0,0,0,.4-1Zm2.8,2a2,2,0,0,1-1.5-.6,2.8,2.8,0,0,1-.5-1.6v-.2a3.6,3.6,0,0,1,.2-1.1,1.9,1.9,0,0,1,.7-.8,1.7,1.7,0,0,1,1-.3,1.7,1.7,0,0,1,1.3.5,2.3,2.3,0,0,1,.5,1.7v.3h-3a1.5,1.5,0,0,0,.4,1,1.1,1.1,0,0,0,.9.4h.7a1.2,1.2,0,0,0,.5-.5l.5.4A2,2,0,0,1,646.2,70.3Zm-.1-4a1.1,1.1,0,0,0-.8.3,3,3,0,0,0-.4,1h2.3a1.9,1.9,0,0,0-.4-.9A.8.8,0,0,0,646.1,66.3Zm3.4-.5v.5a1.8,1.8,0,0,1,1.3-.6c1,0,1.5.5,1.5,1.6v2.9h-.8V67.3a1.5,1.5,0,0,0-.2-.8l-.7-.2-.6.2a1.2,1.2,0,0,0-.5.5v3.2h-.7V65.8Zm4.9-1.1v1.1h.8v.5h-.8v2.8c0,.2.1.3.1.4h.8v.6h-.6a.8.8,0,0,1-.8-.4,1.5,1.5,0,0,1-.2-.8V66.3h-.8v-.5h.8V64.7Zm3.9,1.7h-.4a1,1,0,0,0-1,.6v3.2h-.8V65.8h.8v.5a1.1,1.1,0,0,1,1-.6h.4Zm1.5,3.8H659V65.8h.8Zm-.8-5.6a.4.4,0,0,1,.1-.3h.6l.2.3c0,.1-.1.2-.2.3h-.6A.4.4,0,0,1,659,64.6Zm3.8,5a1,1,0,0,0,.7-.2.9.9,0,0,0,.3-.6h.7a1.9,1.9,0,0,1-.2.7,1.8,1.8,0,0,1-.7.5,1.3,1.3,0,0,1-.8.3,2,2,0,0,1-1.5-.6,2.9,2.9,0,0,1-.5-1.7h0a5,5,0,0,1,.2-1.2,1.6,1.6,0,0,1,.7-.7,2,2,0,0,1,1.1-.3,1.6,1.6,0,0,1,1.2.4,1.7,1.7,0,0,1,.5,1.2h-.7a.9.9,0,0,0-.3-.7,1.1,1.1,0,0,0-.7-.3,1,1,0,0,0-.9.4,2.1,2.1,0,0,0-.4,1.2v.2a1.6,1.6,0,0,0,.4,1.1A1,1,0,0,0,662.8,69.6Z" transform="translate(-4 0)" />
	</g>
	<g id="Window3">
		<line class="cls-17" x1="302" y1="412.5" x2="583.3" y2="412.5" />
		<g id="Blah">
			<rect class="cls-3" x="302" y="237" width="281.3" height="310.68" rx="10.5" />
			<rect class="cls-18" x="302.3" y="237.3" width="280.7" height="310.07" rx="10.2" />
		</g>
		<path d="M329.6,287.6h-3.3V291h-1v-7.8h4.8v.9h-3.8v2.6h3.3Zm4.3-1.5h-.5a1.5,1.5,0,0,0-1.4.8V291h-.9v-5.8h.9v.7a1.7,1.7,0,0,1,1.4-.8h.5Zm.5,2a4.1,4.1,0,0,1,.3-1.6,3.2,3.2,0,0,1,1-1,2.1,2.1,0,0,1,1.4-.4,2.7,2.7,0,0,1,1.9.8,3.2,3.2,0,0,1,.7,2.2h0a3.3,3.3,0,0,1-.3,1.5,2.1,2.1,0,0,1-1,1.1,2.8,2.8,0,0,1-1.3.3,2.4,2.4,0,0,1-2-.8,3.6,3.6,0,0,1-.7-2.2Zm1,.1a2.3,2.3,0,0,0,.5,1.5,1.5,1.5,0,0,0,2.4,0,3.4,3.4,0,0,0,0-3.2,1.5,1.5,0,0,0-2.4,0A2.9,2.9,0,0,0,335.4,288.2Zm6.5-3v.7a2.1,2.1,0,0,1,1.7-.8,1.7,1.7,0,0,1,1.7.9,1.7,1.7,0,0,1,.8-.6,1.8,1.8,0,0,1,1.1-.3,1.8,1.8,0,0,1,1.9,2V291h-1v-3.8a1.1,1.1,0,0,0-1.2-1.2,1.7,1.7,0,0,0-1,.3,1.9,1.9,0,0,0-.4.9V291h-1v-3.8a1.1,1.1,0,0,0-1.2-1.2,1.3,1.3,0,0,0-1.4.8V291h-1v-5.8Z" transform="translate(-4 0)" />
		<path d="M329.7,381.6h-3.4v2.8h3.9v.8h-4.9v-7.8h4.9v.8h-3.9v2.6h3.4Zm2.6-2.2v.7a2.5,2.5,0,0,1,1.8-.8q1.8,0,1.8,2.1v3.8h-1v-3.8a2.2,2.2,0,0,0-.2-1,1.2,1.2,0,0,0-.9-.3,1.6,1.6,0,0,0-.9.3,1.8,1.8,0,0,0-.5.7v4.1h-1v-5.8Zm4.9,2.9a3.8,3.8,0,0,1,.6-2.2,2.3,2.3,0,0,1,1.7-.8,1.9,1.9,0,0,1,1.6.7v-3h1v8.2h-.9v-.6a1.9,1.9,0,0,1-1.6.7,2.3,2.3,0,0,1-1.7-.8,3.8,3.8,0,0,1-.6-2.2Zm1,.1a2.4,2.4,0,0,0,.4,1.5,1.3,1.3,0,0,0,1.1.6,1.4,1.4,0,0,0,1.4-.9V381a1.4,1.4,0,0,0-1.4-.9,1.4,1.4,0,0,0-1.1.6A2.7,2.7,0,0,0,338.2,382.4Zm8.3,2.8v-7.8h2.2a4.1,4.1,0,0,1,1.9.4,3.7,3.7,0,0,1,1.2,1.3,5.8,5.8,0,0,1,.4,1.9v.5a4.2,4.2,0,0,1-.4,2,3.3,3.3,0,0,1-1.3,1.3,3.4,3.4,0,0,1-1.8.4Zm1.1-7v6.2h1.1a2.2,2.2,0,0,0,1.8-.8,2.8,2.8,0,0,0,.7-2.1v-.4a2.8,2.8,0,0,0-.7-2.1,2.1,2.1,0,0,0-1.7-.8Zm9.6,7c-.1-.1-.1-.3-.1-.6a2.3,2.3,0,0,1-1.7.7,1.7,1.7,0,0,1-1.4-.5,1.4,1.4,0,0,1-.6-1.2,1.7,1.7,0,0,1,.7-1.4,3.7,3.7,0,0,1,2-.5h.9v-.5a1.1,1.1,0,0,0-.3-.8,1.2,1.2,0,0,0-.9-.3,1.6,1.6,0,0,0-.9.3.7.7,0,0,0-.3.6h-1a1.1,1.1,0,0,1,.3-.8,2.7,2.7,0,0,1,.8-.7l1.2-.2a2.3,2.3,0,0,1,1.5.5,1.7,1.7,0,0,1,.6,1.4v2.7a3.7,3.7,0,0,0,.2,1.2h-1Zm-1.7-.7a1.2,1.2,0,0,0,.9-.3,1.2,1.2,0,0,0,.6-.6v-1.2h-.7c-1.3,0-1.9.4-1.9,1.1a.9.9,0,0,0,.3.7A1.3,1.3,0,0,0,355.5,384.5Zm5.4-6.5v1.4H362v.8h-1.1v3.6a.8.8,0,0,0,.2.5l.5.2h.5v.8h-.8a1.2,1.2,0,0,1-1-.4,1.6,1.6,0,0,1-.3-1.1v-3.6h-1.1v-.8H360V378Zm4.7,7.3a2.5,2.5,0,0,1-1.9-.7,3.2,3.2,0,0,1-.8-2.1v-.2a4.2,4.2,0,0,1,.4-1.6,2.2,2.2,0,0,1,.9-1,2,2,0,0,1,1.3-.4,2.4,2.4,0,0,1,1.8.7,3.6,3.6,0,0,1,.6,2.2v.4h-4a2.9,2.9,0,0,0,.5,1.4,2.1,2.1,0,0,0,1.3.5l.9-.2a1.7,1.7,0,0,0,.6-.6l.6.5A2.3,2.3,0,0,1,365.6,385.3Zm-.1-5.2a1.2,1.2,0,0,0-1,.5,1.5,1.5,0,0,0-.5,1.2h2.9a2.1,2.1,0,0,0-.4-1.2A1.8,1.8,0,0,0,365.5,380.1Z" transform="translate(-4 0)" />
		<path class="cls-19" d="M488.9,296.9a5.5,5.5,0,0,1-5.5,5.5H391.6a5.5,5.5,0,0,1-5.5-5.5V278.6a5.5,5.5,0,0,1,5.5-5.5h91.8a5.5,5.5,0,0,1,5.5,5.5Z" transform="translate(-4 0)" />
		<path d="M402.9,291h-1v-6.6l-2,.7v-.9l2.8-1h.2Zm6.2,0h-1v-6.6l-2,.7v-.9l2.8-1h.2Zm3.2.7h-.9l3.3-8.5h.8Zm9.3-.7h-5.1v-.7l2.7-3a3.3,3.3,0,0,0,.8-1.1,1.6,1.6,0,0,0,.3-.9,1.3,1.3,0,0,0-.4-1,1.2,1.2,0,0,0-1-.4,1.4,1.4,0,0,0-1.5,1.6h-1a2.1,2.1,0,0,1,.7-1.7,2.1,2.1,0,0,1,1.8-.7,2.4,2.4,0,0,1,1.7.6,1.8,1.8,0,0,1,.7,1.5,4.1,4.1,0,0,1-1.5,2.7l-2.1,2.3h3.9Zm4.4,0h-1v-6.6l-2,.7v-.9l2.8-1h.2Zm3.2.7h-.9l3.3-8.5h.8Zm9.3-.7h-5.1v-.7l2.7-3a3.3,3.3,0,0,0,.8-1.1,1.6,1.6,0,0,0,.3-.9,1.3,1.3,0,0,0-.4-1,1.2,1.2,0,0,0-1-.4,1.4,1.4,0,0,0-1.5,1.6h-1a2.1,2.1,0,0,1,.7-1.7,2.1,2.1,0,0,1,1.8-.7,2.4,2.4,0,0,1,1.7.6,1.8,1.8,0,0,1,.7,1.5,4.1,4.1,0,0,1-1.5,2.7l-2.1,2.3h3.9Zm6-3.3a4.5,4.5,0,0,1-.6,2.6,2,2,0,0,1-1.9.8,1.9,1.9,0,0,1-1.8-.8,4.2,4.2,0,0,1-.6-2.5v-1.3a4.8,4.8,0,0,1,.6-2.6,2.2,2.2,0,0,1,1.8-.8,2.3,2.3,0,0,1,1.9.8,4.2,4.2,0,0,1,.6,2.5Zm-1-1.4a4.2,4.2,0,0,0-.3-1.8,1.4,1.4,0,0,0-1.2-.6,1.1,1.1,0,0,0-1.1.6,4.2,4.2,0,0,0-.3,1.8v1.6a4.2,4.2,0,0,0,.3,1.8,1.3,1.3,0,0,0,1.1.6,1.3,1.3,0,0,0,1.1-.5,3,3,0,0,0,.4-1.8Zm7.4,4.7h-5.1v-.7l2.7-3a3.3,3.3,0,0,0,.8-1.1,1.5,1.5,0,0,0,.2-.9,1.7,1.7,0,0,0-.3-1,1.3,1.3,0,0,0-1-.4,1.4,1.4,0,0,0-1.6,1.6h-1a2.4,2.4,0,0,1,.7-1.7,2.5,2.5,0,0,1,1.9-.7,2.4,2.4,0,0,1,1.7.6,2,2,0,0,1,.6,1.5,3.9,3.9,0,0,1-1.4,2.7l-2.1,2.3h3.9Zm6-3.3a4.5,4.5,0,0,1-.6,2.6,2.7,2.7,0,0,1-3.8,0,4.2,4.2,0,0,1-.6-2.5v-1.3a4.8,4.8,0,0,1,.6-2.6,2.3,2.3,0,0,1,1.9-.8,2.4,2.4,0,0,1,1.9.8,5.1,5.1,0,0,1,.6,2.5Zm-1-1.4a3,3,0,0,0-.4-1.8,1.3,1.3,0,0,0-2.2,0,3,3,0,0,0-.4,1.8v1.6a3,3,0,0,0,.4,1.8,1.1,1.1,0,0,0,1.1.6,1.3,1.3,0,0,0,1.1-.5,4,4,0,0,0,.4-1.8Z" transform="translate(-4 0)" />
		<path class="cls-19" d="M488.9,391.1a5.5,5.5,0,0,1-5.5,5.5H391.6a5.5,5.5,0,0,1-5.5-5.5V372.8a5.5,5.5,0,0,1,5.5-5.5h91.8a5.5,5.5,0,0,1,5.5,5.5Z" transform="translate(-4 0)" />
		<path d="M402.9,385.2h-1v-6.6l-2,.7v-.9l2.8-1h.2Zm8,0h-5.1v-.7l2.7-3a4.8,4.8,0,0,0,.8-1.1,1.6,1.6,0,0,0,.3-.9,1.8,1.8,0,0,0-.4-1,1.3,1.3,0,0,0-1-.4,1.6,1.6,0,0,0-1.2.4,2.1,2.1,0,0,0-.4,1.2h-1a2.4,2.4,0,0,1,.7-1.7,2.5,2.5,0,0,1,1.9-.7,2.4,2.4,0,0,1,1.7.6,1.8,1.8,0,0,1,.7,1.5,4.4,4.4,0,0,1-1.5,2.7l-2.1,2.3h3.9Zm1.4.7h-.9l3.3-8.5h.8Zm9.3-.7h-5.1v-.7l2.7-3a4.8,4.8,0,0,0,.8-1.1,1.6,1.6,0,0,0,.3-.9,1.3,1.3,0,0,0-.4-1,1.2,1.2,0,0,0-1-.4,1.2,1.2,0,0,0-1.1.4,1.6,1.6,0,0,0-.4,1.2h-1a2.1,2.1,0,0,1,.7-1.7,2.1,2.1,0,0,1,1.8-.7,2.4,2.4,0,0,1,1.7.6,1.6,1.6,0,0,1,.7,1.5,4.4,4.4,0,0,1-1.5,2.7l-2.1,2.3h3.9Zm4.4,0h-1v-6.6l-2,.7v-.9l2.8-1h.2Zm3.2.7h-.9l3.3-8.5h.8Zm9.3-.7h-5.1v-.7l2.7-3a4.8,4.8,0,0,0,.8-1.1,1.6,1.6,0,0,0,.3-.9,1.3,1.3,0,0,0-.4-1,1.2,1.2,0,0,0-1-.4,1.2,1.2,0,0,0-1.1.4,1.6,1.6,0,0,0-.4,1.2h-1a2.1,2.1,0,0,1,.7-1.7,2.1,2.1,0,0,1,1.8-.7,2.4,2.4,0,0,1,1.7.6,1.6,1.6,0,0,1,.7,1.5,4.4,4.4,0,0,1-1.5,2.7l-2.1,2.3h3.9Zm6-3.3a4.8,4.8,0,0,1-.6,2.6,2.3,2.3,0,0,1-1.9.8,2.2,2.2,0,0,1-1.8-.8,4.4,4.4,0,0,1-.6-2.5v-1.3a4.5,4.5,0,0,1,.6-2.6,2.2,2.2,0,0,1,1.8-.8,2.3,2.3,0,0,1,1.9.8,4.2,4.2,0,0,1,.6,2.5Zm-1-1.4a4.2,4.2,0,0,0-.3-1.8,1.4,1.4,0,0,0-1.2-.6,1.1,1.1,0,0,0-1.1.6,3.7,3.7,0,0,0-.3,1.7V382a4.4,4.4,0,0,0,.3,1.9,1.3,1.3,0,0,0,1.1.6,1.1,1.1,0,0,0,1.1-.6,2.6,2.6,0,0,0,.4-1.8Zm7.4,4.7h-5.1v-.7l2.7-3a4.8,4.8,0,0,0,.8-1.1,1.5,1.5,0,0,0,.2-.9,1.7,1.7,0,0,0-.3-1,1.3,1.3,0,0,0-1-.4,1.6,1.6,0,0,0-1.2.4,2.1,2.1,0,0,0-.4,1.2h-1a2.4,2.4,0,0,1,.7-1.7,2.5,2.5,0,0,1,1.9-.7,2.4,2.4,0,0,1,1.7.6,1.8,1.8,0,0,1,.6,1.5,4.1,4.1,0,0,1-1.4,2.7l-2.1,2.3h3.9Zm6-3.3a4.8,4.8,0,0,1-.6,2.6,2.7,2.7,0,0,1-3.8,0,4.4,4.4,0,0,1-.6-2.5v-1.3a4.5,4.5,0,0,1,.6-2.6,2.3,2.3,0,0,1,1.9-.8,2.4,2.4,0,0,1,1.9.8,5.1,5.1,0,0,1,.6,2.5Zm-1-1.4a3,3,0,0,0-.4-1.8,1.3,1.3,0,0,0-2.2,0,2.7,2.7,0,0,0-.4,1.7V382a3.2,3.2,0,0,0,.4,1.9,1.3,1.3,0,0,0,2.2,0,3.4,3.4,0,0,0,.4-1.8Z" transform="translate(-4 0)" />
		<path d="M325.3,335.1v-7.9h2.2a4.1,4.1,0,0,1,1.8.5,3,3,0,0,1,1.2,1.3,3.8,3.8,0,0,1,.4,1.9v.5a3.8,3.8,0,0,1-.4,1.9,3,3,0,0,1-1.2,1.3,4.1,4.1,0,0,1-1.9.5Zm1-7v6.1h1.1a2.1,2.1,0,0,0,1.8-.7,2.8,2.8,0,0,0,.7-2.1v-.5a3.3,3.3,0,0,0-.6-2.1,2.7,2.7,0,0,0-1.8-.7Zm9.6,6.4a2.2,2.2,0,0,1-1.7.7,1.7,1.7,0,0,1-1.4-.6,2.3,2.3,0,0,1-.5-1.6v-3.7h1V333c0,.9.4,1.3,1.1,1.3a1.6,1.6,0,0,0,1.5-.8v-4.2h1v5.8h-1Zm5.3-4.4h-.5a1.3,1.3,0,0,0-1.3.8v4.2h-1v-5.8h1v.6a1.6,1.6,0,0,1,1.4-.8h.4Zm4.3,5c-.1-.1-.1-.3-.1-.6a2.8,2.8,0,0,1-1.7.7,2.2,2.2,0,0,1-1.4-.5,1.4,1.4,0,0,1-.6-1.2,2.1,2.1,0,0,1,.7-1.5,3.7,3.7,0,0,1,2-.5h.9v-.4a1.2,1.2,0,0,0-1.2-1.2,1.6,1.6,0,0,0-.9.3.9.9,0,0,0-.3.7h-1a1.6,1.6,0,0,1,.3-.9,2.4,2.4,0,0,1,.8-.6,2.7,2.7,0,0,1,1.2-.3,1.9,1.9,0,0,1,1.5.6,1.5,1.5,0,0,1,.6,1.3v2.7a4.4,4.4,0,0,0,.2,1.3h-1Zm-1.6-.8.8-.2a1.3,1.3,0,0,0,.6-.7v-1.2h-.7c-1.3,0-1.9.4-1.9,1.1a.8.8,0,0,0,.3.7A1.4,1.4,0,0,0,343.9,334.3Zm5.3-6.5v1.5h1.1v.7h-1.1v3.6a1.1,1.1,0,0,0,.2.6h1v.8h-.8a1.5,1.5,0,0,1-1-.4,2.1,2.1,0,0,1-.3-1.2V330h-1.1v-.7h1.1v-1.5Zm3.4,7.3h-1v-5.8h1Zm-1.1-7.4c0-.2.1-.3.1-.4l.5-.2a.6.6,0,0,1,.4,1l-.4.2-.5-.2C351.6,328,351.5,327.9,351.5,327.7Zm2.4,4.4a3.3,3.3,0,0,1,.3-1.5,3.6,3.6,0,0,1,1-1.1,2.9,2.9,0,0,1,1.4-.4,2.5,2.5,0,0,1,1.9.9,2.9,2.9,0,0,1,.7,2.2h0a4.1,4.1,0,0,1-.3,1.6,2.8,2.8,0,0,1-.9,1,2.5,2.5,0,0,1-1.4.4,2.8,2.8,0,0,1-2-.8,3.8,3.8,0,0,1-.7-2.2Zm1,.1a2.5,2.5,0,0,0,.5,1.6,1.5,1.5,0,0,0,2.4,0,2.9,2.9,0,0,0,.4-1.7,2.4,2.4,0,0,0-.4-1.5,1.4,1.4,0,0,0-1.2-.6,1.7,1.7,0,0,0-1.2.5A2.9,2.9,0,0,0,354.9,332.2Zm6.5-2.9v.7a2.3,2.3,0,0,1,1.8-.9q1.8,0,1.8,2.1v3.9h-1v-3.9a1.2,1.2,0,0,0-.3-.9c-.1-.2-.4-.3-.8-.3l-.9.2-.6.7v4.2h-.9v-5.8Z" transform="translate(-4 0)" />
		<path class="cls-19" d="M424,342.2a5.5,5.5,0,0,1-5.5,5.5H391.6a5.5,5.5,0,0,1-5.5-5.5V323.8a5.5,5.5,0,0,1,5.5-5.5h26.9a5.5,5.5,0,0,1,5.5,5.5Z" transform="translate(-4 0)" />
		<path d="M403.8,333.7h1.1v.8h-1.1v1.8h-1v-1.8h-3.6v-.6l3.5-5.4h1.1Zm-3.4,0h2.4V330Z" transform="translate(-4 0)" />
		<path class="cls-19" d="M488.9,342.2a5.6,5.6,0,0,1-5.6,5.5h-44a5.5,5.5,0,0,1-5.5-5.5V323.8a5.5,5.5,0,0,1,5.5-5.5h44a5.6,5.6,0,0,1,5.6,5.5Z" transform="translate(-4 0)" />
		<path d="M443.1,333.8l.2,1.1.2-1,1.6-5.4h.8l1.5,5.4.2,1,.2-1.1,1.2-5.3h1.1l-1.9,7.8h-1l-1.6-5.7v0l-1.7,5.7h-.9l-1.9-7.8h1Zm10.2,2.6a2.6,2.6,0,0,1-1.9-.8,2.9,2.9,0,0,1-.8-2.1h0a2.9,2.9,0,0,1,.4-1.6,2.2,2.2,0,0,1,.9-1,2,2,0,0,1,1.3-.4,2.1,2.1,0,0,1,1.7.7,2.9,2.9,0,0,1,.7,2.2v.4h-4a2.4,2.4,0,0,0,.5,1.4,2.1,2.1,0,0,0,1.3.5l.9-.2.6-.6.6.5A2.5,2.5,0,0,1,453.3,336.4Zm-.1-5.2a1.2,1.2,0,0,0-1,.4,1.7,1.7,0,0,0-.5,1.3h2.9a3.4,3.4,0,0,0-.4-1.2A1.3,1.3,0,0,0,453.2,331.2Zm5.9,5.2a2.7,2.7,0,0,1-1.9-.8,2.8,2.8,0,0,1-.7-2.1h0a4.1,4.1,0,0,1,.3-1.6,2.5,2.5,0,0,1,2.2-1.4,2.1,2.1,0,0,1,1.8.7,3.4,3.4,0,0,1,.6,2.2v.4h-3.9a2.4,2.4,0,0,0,.5,1.4,1.7,1.7,0,0,0,1.2.5l.9-.2.6-.6.6.5A2.5,2.5,0,0,1,459.1,336.4Zm-.1-5.2a1.3,1.3,0,0,0-1,.4,2.2,2.2,0,0,0-.5,1.3h2.9a1.6,1.6,0,0,0-.4-1.2A1.2,1.2,0,0,0,459,331.2Zm5.2,2.4-.6.6v2.1h-1V328h1v5l.5-.6,1.8-1.9h1.2l-2.2,2.4,2.5,3.4h-1.2Zm7.3,1.1a.9.9,0,0,0-.3-.6l-1-.4-1.2-.3-.7-.6a1.4,1.4,0,0,1-.2-.7,1.4,1.4,0,0,1,.6-1.2,2.1,2.1,0,0,1,1.6-.5,2.4,2.4,0,0,1,1.6.5,1.6,1.6,0,0,1,.6,1.3h-1a.8.8,0,0,0-.4-.7,1.1,1.1,0,0,0-.8-.3l-.9.2a.9.9,0,0,0-.3.6.6.6,0,0,0,.3.6l1,.3,1.2.4a2.2,2.2,0,0,1,.7.6,1.1,1.1,0,0,1,.2.8,1.4,1.4,0,0,1-.6,1.2,2.8,2.8,0,0,1-1.6.5l-1.3-.2a2.7,2.7,0,0,1-.8-.7,1.9,1.9,0,0,1-.3-1h1a.9.9,0,0,0,.4.8,1.5,1.5,0,0,0,1,.3l.9-.2A.9.9,0,0,0,471.5,334.7Z" transform="translate(-4 0)" />
		<rect class="cls-20" x="320.3" y="459.6" width="96.6" height="29.36" rx="14.7" />
		<rect class="cls-3" x="332.6" y="468.2" width="12.2" height="12.23" rx="2.4" />
		<path class="cls-3" d="M364.4,475.7h-3.6l-.9,2.3h-1.1l3.3-8.7h1l3.3,8.7h-1.2Zm-3.3-1h3l-1.5-4Zm8.1,1.8,1.6-5H372l-2.4,6.5h-.8l-2.3-6.5h1.1Zm7.7,1.5c0-.2-.1-.4-.1-.7a2.7,2.7,0,0,1-1.9.8,2,2,0,0,1-1.5-.6,1.7,1.7,0,0,1-.7-1.3,1.9,1.9,0,0,1,.8-1.6,3.4,3.4,0,0,1,2.2-.6h1v-.5a1.2,1.2,0,0,0-.3-.9,1.5,1.5,0,0,0-1-.3,1.7,1.7,0,0,0-1,.3.8.8,0,0,0-.4.7h-1.1a1.6,1.6,0,0,1,.3-.9,2.3,2.3,0,0,1,.9-.8l1.3-.2a3,3,0,0,1,1.8.5,2.6,2.6,0,0,1,.7,1.6v2.9a3.4,3.4,0,0,0,.2,1.5h-1.2Zm-1.8-.9a1.9,1.9,0,0,0,1-.3,1.1,1.1,0,0,0,.6-.7v-1.3h-.8c-1.4,0-2,.4-2,1.2a1,1,0,0,0,.3.8A1.2,1.2,0,0,0,375.1,477.1Zm5.7.9h-1.1v-6.5h1.1Zm-1.2-8.2c0-.2,0-.4.2-.5a.5.5,0,0,1,.4-.2.6.6,0,0,1,.5.2.8.8,0,0,1,.2.5.5.5,0,0,1-.2.4.6.6,0,0,1-.5.2.5.5,0,0,1-.4-.2C379.6,470.1,379.6,470,379.6,469.8Zm4.2,8.2h-1.1v-9.2h1.1Zm5.7,0c0-.2-.1-.4-.1-.7a2.7,2.7,0,0,1-1.9.8,2,2,0,0,1-1.5-.6,1.7,1.7,0,0,1-.7-1.3,1.9,1.9,0,0,1,.8-1.6,3.4,3.4,0,0,1,2.2-.6h1.1v-.5a1.3,1.3,0,0,0-.4-.9,1.5,1.5,0,0,0-1-.3,1.7,1.7,0,0,0-1,.3.8.8,0,0,0-.4.7h-1.1a1.6,1.6,0,0,1,.3-.9,2.5,2.5,0,0,1,1-.8l1.2-.2a3,3,0,0,1,1.8.5,2.6,2.6,0,0,1,.7,1.6v2.9a3.4,3.4,0,0,0,.2,1.5h-1.2Zm-1.8-.9a1.9,1.9,0,0,0,1-.3,1.6,1.6,0,0,0,.7-.7v-1.3h-.9c-1.4,0-2,.4-2,1.2a1,1,0,0,0,.3.8A1.2,1.2,0,0,0,387.7,477.1Zm10-2.3a4.3,4.3,0,0,1-.7,2.4,2.3,2.3,0,0,1-1.9.9,2,2,0,0,1-1.8-.9v.8h-1v-9.2h1.1v3.4a2.1,2.1,0,0,1,1.8-.8,2.3,2.3,0,0,1,1.9.9,4.3,4.3,0,0,1,.7,2.4Zm-1.1-.1a3,3,0,0,0-.5-1.8,1.4,1.4,0,0,0-1.2-.6,1.5,1.5,0,0,0-1.6,1v2.8a1.6,1.6,0,0,0,1.6,1,1.4,1.4,0,0,0,1.2-.6A3,3,0,0,0,396.6,474.7Zm3.7,3.3h-1.1v-9.2h1.1Zm4.4.1a2.6,2.6,0,0,1-2.1-.9,3,3,0,0,1-.9-2.3v-.2a4.7,4.7,0,0,1,.4-1.7,4,4,0,0,1,1-1.2,2.8,2.8,0,0,1,1.5-.4,2.1,2.1,0,0,1,1.9.8,3.4,3.4,0,0,1,.7,2.4v.4h-4.3a2.5,2.5,0,0,0,.5,1.6,1.8,1.8,0,0,0,1.4.6,1.7,1.7,0,0,0,1-.3,1.9,1.9,0,0,0,.7-.6l.6.5A2.5,2.5,0,0,1,404.7,478.1Zm-.1-5.8a1.2,1.2,0,0,0-1.1.5,1.8,1.8,0,0,0-.6,1.3h3.2a2.8,2.8,0,0,0-.4-1.3A1.5,1.5,0,0,0,404.6,472.3Z" transform="translate(-4 0)" />
		<rect class="cls-21" x="424.3" y="459.6" width="146.8" height="29.36" rx="14.7" />
		<rect class="cls-3" x="436.6" y="468.2" width="12.2" height="12.23" rx="2.4" />
		<path class="cls-3" d="M464.7,474.5V478h-1.1v-8.7h3.2a3.1,3.1,0,0,1,2.2.7,2.2,2.2,0,0,1,.8,1.9,2.3,2.3,0,0,1-.8,2,3.4,3.4,0,0,1-2.2.6Zm0-.9h2.1a2,2,0,0,0,1.4-.4,1.7,1.7,0,0,0,.5-1.3,1.7,1.7,0,0,0-.5-1.2,2,2,0,0,0-1.4-.5h-2.1ZM475,478c0-.2-.1-.4-.1-.7a2.6,2.6,0,0,1-1.9.8,2,2,0,0,1-1.5-.6,1.6,1.6,0,0,1-.6-1.3,1.9,1.9,0,0,1,.7-1.6,3.6,3.6,0,0,1,2.2-.6h1.1v-.5a1.3,1.3,0,0,0-.4-.9,1.5,1.5,0,0,0-1-.3,1.7,1.7,0,0,0-1,.3.8.8,0,0,0-.4.7H471a1.6,1.6,0,0,1,.3-.9,2.5,2.5,0,0,1,1-.8l1.3-.2a2.9,2.9,0,0,1,1.7.5,2.2,2.2,0,0,1,.7,1.6v2.9a3.4,3.4,0,0,0,.2,1.5H475Zm-1.8-.9a1.9,1.9,0,0,0,1-.3,1.6,1.6,0,0,0,.7-.7v-1.3H474c-1.4,0-2,.4-2,1.2a1,1,0,0,0,.3.8A1.2,1.2,0,0,0,473.2,477.1Zm7.6-4.6h-.5a1.6,1.6,0,0,0-1.5,1V478h-1.1v-6.5h1.1v.7a1.9,1.9,0,0,1,1.5-.8h.5Zm2.8-2.6v1.6h1.3v.8h-1.3v4.1a.8.8,0,0,0,.2.5c.1.2.3.2.6.2h.5v.9H484a1.4,1.4,0,0,1-1.1-.5,2.1,2.1,0,0,1-.4-1.2v-4.1h-1.1v-.8h1.1v-1.6Zm3.7,8.1h-1.1v-6.5h1.1Zm-1.1-8.2a.7.7,0,0,1,.1-.5l.5-.2.5.2a.8.8,0,0,1,.2.5.5.5,0,0,1-.2.4l-.5.2-.5-.2C486.2,470.1,486.2,470,486.2,469.8Zm6.9,8.2a1.5,1.5,0,0,1-.1-.7,2.9,2.9,0,0,1-1.9.8,2.5,2.5,0,0,1-1.6-.6,1.6,1.6,0,0,1-.6-1.3,1.9,1.9,0,0,1,.8-1.6,3.4,3.4,0,0,1,2.2-.6h1v-.5a1.2,1.2,0,0,0-.3-.9,1.8,1.8,0,0,0-2,0,.8.8,0,0,0-.4.7h-1.1a1.6,1.6,0,0,1,.3-.9,1.8,1.8,0,0,1,.9-.8l1.3-.2a3,3,0,0,1,1.8.5,2.1,2.1,0,0,1,.6,1.6v2.9a3.3,3.3,0,0,0,.3,1.5h-1.2Zm-1.8-.9a1.9,1.9,0,0,0,1-.3,1.1,1.1,0,0,0,.6-.7v-1.3h-.8q-2.1,0-2.1,1.2a1,1,0,0,0,.4.8A1.2,1.2,0,0,0,491.3,477.1Zm5.7.9h-1.1v-9.2H497Zm2.9,0h-1.1v-9.2h1.1Zm3.9-1.7,1.5-4.8h1.2l-2.6,7.5c-.4,1-1,1.6-1.9,1.6h-.6v-.9h.3l.9-.2a3.6,3.6,0,0,0,.5-.9l.2-.6-2.3-6.4h1.2Zm11.7-.6h-3.6l-.8,2.3h-1.2l3.3-8.7h1l3.3,8.7h-1.1Zm-3.3-1h3l-1.5-4Zm8.2,1.8,1.6-5h1.1l-2.3,6.5h-.9l-2.3-6.5h1.1ZM528,478c0-.2-.1-.4-.1-.7a2.5,2.5,0,0,1-1.8.8,2.1,2.1,0,0,1-1.6-.6,1.6,1.6,0,0,1-.6-1.3,1.9,1.9,0,0,1,.7-1.6,3.8,3.8,0,0,1,2.2-.6h1.1v-.5a1,1,0,0,0-.4-.9,1.3,1.3,0,0,0-1-.3,1.7,1.7,0,0,0-1,.3.8.8,0,0,0-.4.7H524a1.6,1.6,0,0,1,.3-.9,2.5,2.5,0,0,1,1-.8l1.3-.2a2.9,2.9,0,0,1,1.7.5,2.2,2.2,0,0,1,.7,1.6v2.9a6.1,6.1,0,0,0,.2,1.5H528Zm-1.8-.9a1.7,1.7,0,0,0,1-.3,1.6,1.6,0,0,0,.7-.7v-1.3H527c-1.3,0-2,.4-2,1.2a1,1,0,0,0,.3.8A1.6,1.6,0,0,0,526.2,477.1Zm5.7.9h-1.1v-6.5h1.1Zm-1.2-8.2a.8.8,0,0,1,.2-.5l.5-.2.5.2a.7.7,0,0,1,.1.5c0,.2,0,.3-.1.4l-.5.2-.5-.2A.5.5,0,0,1,530.7,469.8Zm4.2,8.2h-1.1v-9.2h1.1Zm5.8,0a1.4,1.4,0,0,1-.2-.7,2.5,2.5,0,0,1-1.8.8,2.1,2.1,0,0,1-1.6-.6,1.6,1.6,0,0,1-.6-1.3,1.9,1.9,0,0,1,.7-1.6,3.8,3.8,0,0,1,2.2-.6h1.1v-.5a1,1,0,0,0-.4-.9,1.3,1.3,0,0,0-1-.3,1.7,1.7,0,0,0-1,.3,1,1,0,0,0-.4.7h-1.1a1.6,1.6,0,0,1,.3-.9,2.5,2.5,0,0,1,1-.8l1.3-.2a2.9,2.9,0,0,1,1.7.5,2.2,2.2,0,0,1,.7,1.6v2.9a6.1,6.1,0,0,0,.2,1.5h-1.1Zm-1.9-.9a1.7,1.7,0,0,0,1-.3,1.6,1.6,0,0,0,.7-.7v-1.3h-.9c-1.3,0-2,.4-2,1.2a1,1,0,0,0,.3.8Zm10-2.3a3.6,3.6,0,0,1-.7,2.4,2.1,2.1,0,0,1-1.8.9,2.2,2.2,0,0,1-1.9-.9v.8h-1v-9.2h1.1v3.4a2.2,2.2,0,0,1,1.9-.8,2.1,2.1,0,0,1,1.8.9,3.6,3.6,0,0,1,.7,2.4Zm-1.1-.1a3,3,0,0,0-.5-1.8,1.3,1.3,0,0,0-1.2-.6,1.6,1.6,0,0,0-1.6,1v2.8a1.7,1.7,0,0,0,1.6,1,1.4,1.4,0,0,0,1.2-.6A3,3,0,0,0,547.7,474.7Zm3.7,3.3h-1.1v-9.2h1.1Zm4.4.1a2.9,2.9,0,0,1-2.1-.9,3.4,3.4,0,0,1-.8-2.3v-.2a4.7,4.7,0,0,1,.3-1.7,3.2,3.2,0,0,1,1.1-1.2,2.3,2.3,0,0,1,1.4-.4,2.4,2.4,0,0,1,2,.8,4,4,0,0,1,.7,2.4v.4H554a2.5,2.5,0,0,0,.5,1.6,1.8,1.8,0,0,0,1.4.6,1.7,1.7,0,0,0,1-.3,1.3,1.3,0,0,0,.7-.6l.7.5A2.8,2.8,0,0,1,555.8,478.1Zm-.1-5.8a1.3,1.3,0,0,0-1.1.5,2.3,2.3,0,0,0-.6,1.3h3.3a2.9,2.9,0,0,0-.5-1.3A1.4,1.4,0,0,0,555.7,472.3Z" transform="translate(-4 0)" />
		<rect class="cls-22" x="317.9" y="501.2" width="135.8" height="29.36" rx="14.7" />
		<rect class="cls-3" x="330.1" y="509.8" width="12.2" height="12.23" rx="2.4" />
		<path class="cls-3" d="M358.6,510.8l2.9,7.1,2.8-7.1h1.5v8.7h-1.1v-7l-2.9,7H361l-2.8-7v7h-1.1v-8.7Zm13.1,8.7a.8.8,0,0,1-.2-.6,2.5,2.5,0,0,1-1.8.8,2.1,2.1,0,0,1-1.6-.6,1.6,1.6,0,0,1-.6-1.3,1.9,1.9,0,0,1,.7-1.6,3.8,3.8,0,0,1,2.2-.6h1.1v-.5a1,1,0,0,0-.4-.9,1.3,1.3,0,0,0-1-.4,2.9,2.9,0,0,0-1,.3,1.2,1.2,0,0,0-.4.8h-1.1a1.3,1.3,0,0,1,.4-1,2.2,2.2,0,0,1,.9-.7,2.7,2.7,0,0,1,1.3-.2,2.3,2.3,0,0,1,1.7.5,1.9,1.9,0,0,1,.7,1.6V518a4.6,4.6,0,0,0,.2,1.4h-1.1Zm-1.9-.8a1.7,1.7,0,0,0,1-.3,1.6,1.6,0,0,0,.7-.7v-1.3h-.9c-1.3,0-2,.4-2,1.2a1.1,1.1,0,0,0,.3.8A1.6,1.6,0,0,0,369.8,518.7Zm6.5-.8,1.5-4.8H379l-2.6,7.4c-.4,1.1-1,1.7-1.9,1.7h-.6v-.9h.3l.9-.2a3.6,3.6,0,0,0,.5-.9l.2-.6-2.3-6.4h1.2Zm9.2-1.5a3.6,3.6,0,0,1-.7,2.4,2.1,2.1,0,0,1-1.8.9,2.2,2.2,0,0,1-1.9-.9v.7h-1v-9.1h1.1v3.4a2.2,2.2,0,0,1,1.9-.8,2.3,2.3,0,0,1,1.8.8,3.9,3.9,0,0,1,.7,2.5Zm-1.1-.1a3,3,0,0,0-.5-1.8,1.3,1.3,0,0,0-1.2-.6,1.6,1.6,0,0,0-1.6,1v2.8a1.7,1.7,0,0,0,1.6,1,1.4,1.4,0,0,0,1.2-.6A3,3,0,0,0,384.4,516.3Zm5.2,3.4a2.9,2.9,0,0,1-2.2-.9,3.4,3.4,0,0,1-.8-2.3v-.2a3.1,3.1,0,0,1,.4-1.7,2.9,2.9,0,0,1,1-1.2,2.8,2.8,0,0,1,3.4.4,3.3,3.3,0,0,1,.7,2.4v.4h-4.4a2.1,2.1,0,0,0,.6,1.6,1.6,1.6,0,0,0,1.3.6,1.7,1.7,0,0,0,1-.3,1.3,1.3,0,0,0,.7-.6l.7.5A2.8,2.8,0,0,1,389.6,519.7Zm-.2-5.8a1.3,1.3,0,0,0-1.1.5,2.3,2.3,0,0,0-.6,1.3H391a2.5,2.5,0,0,0-.5-1.3A1.2,1.2,0,0,0,389.4,513.9Zm12,3.4h-3.7l-.8,2.2h-1.2l3.4-8.7h1l3.3,8.7h-1.2Zm-3.3-1H401l-1.4-4Zm8.1,1.7,1.6-4.9h1.1l-2.3,6.4h-.8l-2.4-6.4h1.2Zm7.7,1.5c-.1-.1-.1-.3-.2-.6a2.5,2.5,0,0,1-1.8.8,2.3,2.3,0,0,1-1.6-.6,1.6,1.6,0,0,1-.6-1.3,1.9,1.9,0,0,1,.8-1.6,3.4,3.4,0,0,1,2.2-.6h1v-.5a1.2,1.2,0,0,0-.3-.9,1.5,1.5,0,0,0-1-.4,2.4,2.4,0,0,0-1,.3.9.9,0,0,0-.4.8h-1.1a1.7,1.7,0,0,1,.3-1,2.2,2.2,0,0,1,.9-.7,3,3,0,0,1,1.3-.2,2.4,2.4,0,0,1,1.8.5,2.1,2.1,0,0,1,.6,1.6V518a2.6,2.6,0,0,0,.3,1.4h-1.2Zm-1.8-.8,1-.3a1.1,1.1,0,0,0,.6-.7v-1.3h-.8q-2.1,0-2.1,1.2a.9.9,0,0,0,.4.8A1.2,1.2,0,0,0,412.1,518.7Zm5.7.8h-1.1v-6.4h1.1Zm-1.2-8.1a.7.7,0,0,1,.1-.5l.5-.2.5.2a.6.6,0,0,1,0,.9l-.5.2-.5-.2A.6.6,0,0,1,416.6,511.4Zm4.1,8.1h-1.1v-9.1h1.1Zm5.8,0c-.1-.1-.1-.3-.2-.6a2.5,2.5,0,0,1-1.8.8,2.3,2.3,0,0,1-1.6-.6,1.6,1.6,0,0,1-.6-1.3,1.9,1.9,0,0,1,.8-1.6,3.4,3.4,0,0,1,2.2-.6h1v-.5a1.2,1.2,0,0,0-.3-.9,1.5,1.5,0,0,0-1-.4,2.4,2.4,0,0,0-1,.3.9.9,0,0,0-.4.8h-1.1a1.7,1.7,0,0,1,.3-1,2.2,2.2,0,0,1,.9-.7,3,3,0,0,1,1.3-.2,2.4,2.4,0,0,1,1.8.5,2.1,2.1,0,0,1,.6,1.6V518a2.6,2.6,0,0,0,.3,1.4h-1.2Zm-1.8-.8,1-.3a1.1,1.1,0,0,0,.6-.7v-1.3h-.8q-2.1,0-2.1,1.2a.9.9,0,0,0,.4.8A1.2,1.2,0,0,0,424.7,518.7Zm9.9-2.3a4.3,4.3,0,0,1-.6,2.4,2.5,2.5,0,0,1-3.8,0v.7h-1v-9.1h1.1v3.4a1.9,1.9,0,0,1,1.8-.8,2.6,2.6,0,0,1,1.9.8,4.6,4.6,0,0,1,.6,2.5Zm-1.1-.1a3,3,0,0,0-.4-1.8,1.7,1.7,0,0,0-2.8.4v2.8a1.5,1.5,0,0,0,1.6,1,1.4,1.4,0,0,0,1.2-.6A3,3,0,0,0,433.5,516.3Zm3.7,3.2h-1.1v-9.1h1.1Zm4.5.2a2.6,2.6,0,0,1-2.1-.9,3,3,0,0,1-.9-2.3v-.2a4.3,4.3,0,0,1,.4-1.7,2.9,2.9,0,0,1,1-1.2,2.6,2.6,0,0,1,1.5-.4,2.2,2.2,0,0,1,1.9.8,3.3,3.3,0,0,1,.7,2.4v.4h-4.4a2.6,2.6,0,0,0,.6,1.6,1.7,1.7,0,0,0,1.4.6,1.4,1.4,0,0,0,.9-.3,1.6,1.6,0,0,0,.8-.6l.6.5A2.7,2.7,0,0,1,441.7,519.7Zm-.1-5.8a1.3,1.3,0,0,0-1.2.5,1.7,1.7,0,0,0-.5,1.3h3.2a2.5,2.5,0,0,0-.4-1.3A1.5,1.5,0,0,0,441.6,513.9Z" transform="translate(-4 0)" />
		<rect class="cls-23" x="458.6" y="501.2" width="112.5" height="29.36" rx="14.7" />
		<rect class="cls-3" x="470.8" y="509.8" width="12.2" height="12.23" rx="2.4" />
		<path class="cls-3" d="M504.5,519.5h-1.2l-4.3-6.7v6.7h-1.2v-8.7H499l4.4,6.8v-6.8h1.1Zm1.6-3.2a4.8,4.8,0,0,1,.3-1.8,2.3,2.3,0,0,1,1.1-1.1,2.4,2.4,0,0,1,1.5-.4,2.6,2.6,0,0,1,2.1.9,3.2,3.2,0,0,1,.9,2.4h0a4.7,4.7,0,0,1-.4,1.7,2.2,2.2,0,0,1-1,1.1,3,3,0,0,1-1.6.5,2.4,2.4,0,0,1-2.1-1,3.2,3.2,0,0,1-.8-2.4Zm1.1.1a2.3,2.3,0,0,0,.5,1.7,1.7,1.7,0,0,0,1.3.7,1.9,1.9,0,0,0,1.4-.7,3.2,3.2,0,0,0,.5-1.8,2.6,2.6,0,0,0-.6-1.8,1.5,1.5,0,0,0-1.3-.6,1.6,1.6,0,0,0-1.3.6A3.6,3.6,0,0,0,507.2,516.4Zm7.6-4.9v1.6H516v.8h-1.2v4a.8.8,0,0,0,.2.6c.1.2.3.2.5.2h.6v.9l-.9.2a1.4,1.4,0,0,1-1.1-.5,2.2,2.2,0,0,1-.4-1.3v-4h-1.1v-.8h1.1v-1.6Zm10.6,5.8h-3.7l-.8,2.2h-1.2l3.3-8.7h1l3.4,8.7h-1.2Zm-3.3-1H525l-1.5-4Zm8.1,1.7,1.6-4.9h1.1l-2.3,6.4h-.8l-2.4-6.4h1.1Zm7.7,1.5c-.1-.1-.1-.3-.2-.6a2.5,2.5,0,0,1-1.8.8,2.1,2.1,0,0,1-1.6-.6,1.6,1.6,0,0,1-.6-1.3,1.9,1.9,0,0,1,.8-1.6,3.3,3.3,0,0,1,2.1-.6h1.1v-.5a1.2,1.2,0,0,0-.3-.9,1.8,1.8,0,0,0-1.1-.3,1.7,1.7,0,0,0-1,.3.8.8,0,0,0-.4.7h-1.1a1.3,1.3,0,0,1,.4-1,2.2,2.2,0,0,1,.9-.7,3.8,3.8,0,0,1,3.1.3,2.1,2.1,0,0,1,.6,1.6V518a4.6,4.6,0,0,0,.2,1.4h-1.1Zm-1.9-.8a1.7,1.7,0,0,0,1-.3,1.2,1.2,0,0,0,.7-.7v-1.3h-.9c-1.3,0-2,.4-2,1.2a.9.9,0,0,0,.4.8A1.1,1.1,0,0,0,536,518.7Zm5.7.8h-1.1v-6.4h1.1Zm-1.2-8.1a.8.8,0,0,1,.2-.5l.5-.2.5.2a.6.6,0,0,1,0,.9l-.5.2-.5-.2A.8.8,0,0,1,540.5,511.4Zm4.2,8.1h-1.1v-9.1h1.1Zm5.8,0c-.1-.1-.1-.3-.2-.6a2.5,2.5,0,0,1-1.8.8,2.1,2.1,0,0,1-1.6-.6,1.6,1.6,0,0,1-.6-1.3,1.9,1.9,0,0,1,.8-1.6,3.3,3.3,0,0,1,2.1-.6h1.1v-.5a1.2,1.2,0,0,0-.3-.9,1.8,1.8,0,0,0-1.1-.3,1.7,1.7,0,0,0-1,.3.8.8,0,0,0-.4.7h-1.1a1.3,1.3,0,0,1,.4-1,2.2,2.2,0,0,1,.9-.7,3.8,3.8,0,0,1,3.1.3,2.1,2.1,0,0,1,.6,1.6V518a4.6,4.6,0,0,0,.2,1.4h-1.1Zm-1.9-.8a1.7,1.7,0,0,0,1-.3,1.2,1.2,0,0,0,.7-.7v-1.3h-.9c-1.3,0-2,.4-2,1.2a.9.9,0,0,0,.4.8A1.1,1.1,0,0,0,548.6,518.7Zm10-2.3a3.6,3.6,0,0,1-.7,2.4,2,2,0,0,1-1.8.9,2.3,2.3,0,0,1-1.9-.9v.7h-1.1v-9.1h1.1v3.4a2.2,2.2,0,0,1,1.9-.8,2,2,0,0,1,1.8.9,3.4,3.4,0,0,1,.7,2.4Zm-1.1-.1a3,3,0,0,0-.4-1.8,1.5,1.5,0,0,0-1.3-.6,1.7,1.7,0,0,0-1.6,1v2.8a1.7,1.7,0,0,0,1.6,1,1.5,1.5,0,0,0,1.3-.6A3,3,0,0,0,557.5,516.3Zm3.7,3.2h-1.1v-9.1h1.1Zm4.5.2a2.9,2.9,0,0,1-2.2-.9,3.4,3.4,0,0,1-.8-2.3v-.2a3.1,3.1,0,0,1,.4-1.7,2.9,2.9,0,0,1,1-1.2,2.8,2.8,0,0,1,3.4.4,3.3,3.3,0,0,1,.7,2.4v.4h-4.4a2.1,2.1,0,0,0,.6,1.6,1.6,1.6,0,0,0,1.3.6,1.7,1.7,0,0,0,1-.3,1.3,1.3,0,0,0,.7-.6l.7.5A2.8,2.8,0,0,1,565.7,519.7Zm-.2-5.8a1.3,1.3,0,0,0-1.1.5,2.3,2.3,0,0,0-.6,1.3h3.3a2.5,2.5,0,0,0-.5-1.3A1.2,1.2,0,0,0,565.5,513.9Z" transform="translate(-4 0)" />
	</g>
	<g id="Window1">
		<rect class="cls-3" y="234" width="281.3" height="188.37" rx="10.5" />
		<rect class="cls-18" x="0.3" y="234.3" width="280.7" height="187.76" rx="10.2" />
		<path class="cls-24" d="M4.3,245.7a10.2,10.2,0,0,1,10.2-10.2H274.8A10.2,10.2,0,0,1,285,245.7v21H4.3Z" transform="translate(-4 0)" />
		<path class="cls-25" d="M249.9,234h24.9a10.5,10.5,0,0,1,10.5,10.5V267H249.9Z" transform="translate(-4 0)" />
		<path class="cls-26" d="M214.4,234h35.5v33H214.4Z" transform="translate(-4 0)" />
		<path d="M36.8,247.4l3,7.9,3-7.9h2.3v10.4H43.3v-3.5l.2-4.6-3.1,8.1H39.1l-3.1-8,.2,4.5v3.5H34.4V247.4Zm13.7,10.5a3.6,3.6,0,0,1-2.7-1,3.7,3.7,0,0,1-1-2.8v-.2a4.6,4.6,0,0,1,.5-2.1,3.3,3.3,0,0,1,1.2-1.4,4.1,4.1,0,0,1,1.8-.5,3,3,0,0,1,2.5,1,4.8,4.8,0,0,1,.8,2.9v.7h-5a2,2,0,0,0,.6,1.5,1.9,1.9,0,0,0,1.4.5,2.5,2.5,0,0,0,2-.9l.9.9a2.9,2.9,0,0,1-1.2,1A3.7,3.7,0,0,1,50.5,257.9Zm-.2-6.6a1.3,1.3,0,0,0-1.1.5,2.6,2.6,0,0,0-.6,1.4h3.3a2,2,0,0,0-.5-1.4A1.2,1.2,0,0,0,50.3,251.3Zm4.4,2.6a4.3,4.3,0,0,1,.8-2.9,2.7,2.7,0,0,1,2.2-1.1,2.8,2.8,0,0,1,2,.8v-3.9h1.8v11H59.9V257a2.6,2.6,0,0,1-2.1.9,2.5,2.5,0,0,1-2.2-1.1A4.3,4.3,0,0,1,54.7,253.9Zm1.7.1a3.6,3.6,0,0,0,.5,1.9,1.5,1.5,0,0,0,1.3.6,1.6,1.6,0,0,0,1.5-.9v-3.4a1.6,1.6,0,0,0-1.5-.9,1.4,1.4,0,0,0-1.3.7A3.4,3.4,0,0,0,56.4,254Zm8.7,3.8H63.4V250h1.7ZM63.3,248a1.1,1.1,0,0,1,.2-.6,1,1,0,0,1,.8-.3.9.9,0,0,1,.7.3c.2.1.2.4.2.6a.8.8,0,0,1-.2.7l-.7.2-.8-.2A1.4,1.4,0,0,1,63.3,248Zm8.4,9.8a1.4,1.4,0,0,1-.2-.7,3.2,3.2,0,0,1-2.1.8,2.9,2.9,0,0,1-1.9-.6,2.2,2.2,0,0,1-.7-1.7,2.3,2.3,0,0,1,.9-1.9,4.7,4.7,0,0,1,2.6-.7h1.1v-.5a1.2,1.2,0,0,0-.3-.9,1.4,1.4,0,0,0-1.1-.4,1.2,1.2,0,0,0-.9.3.9.9,0,0,0-.4.8H66.9a1.7,1.7,0,0,1,.5-1.2,2.4,2.4,0,0,1,1.1-.9,4.1,4.1,0,0,1,1.6-.3,2.9,2.9,0,0,1,2.2.7,2.1,2.1,0,0,1,.8,1.9V256a4.3,4.3,0,0,0,.3,1.7H71.7Zm-2-1.3,1-.2a1.6,1.6,0,0,0,.7-.7v-1.5h-.9a2.7,2.7,0,0,0-1.5.4,1.1,1.1,0,0,0-.5.9.8.8,0,0,0,.4.8A1.1,1.1,0,0,0,69.7,256.5Z" transform="translate(-4 0)" />
		<path class="cls-3" d="M236.7,247.3l-.6.7-5.5,5.6-2.5-2-.7-.6-1.2,1.4.7.6,3.2,2.6.6.5.6-.6c2-1.9,4.1-4.3,6.1-6.2l.6-.7Z" transform="translate(-4 0)" />
		<path class="cls-3" d="M273,246.7H261.8c-.1.1-.1.2-.1.4l1.2,10.1a.5.5,0,0,0,.5.3h8.4c.2,0,.4-.1.4-.3l1.3-10.1c0-.2,0-.3-.1-.4Zm-1.6,10.1h-7.6l-1.2-9.2h10Z" transform="translate(-4 0)" />
		<path class="cls-3" d="M262.1,246H273a.5.5,0,0,0,.5-.5.5.5,0,0,0-.5-.4h-2.9v-.5a1.2,1.2,0,0,0-1.2-1.2h-2.6a1.2,1.2,0,0,0-1.2,1.2v.5h-3a.4.4,0,0,0-.4.4.5.5,0,0,0,.4.5Zm3.9-1.4h0a.3.3,0,0,1,.3-.3h2.6a.3.3,0,0,1,.3.3v.5H266Z" transform="translate(-4 0)" />
		<path class="cls-3" d="M267.6,255.2a.5.5,0,0,0,.4-.5V249a.4.4,0,1,0-.8,0v5.7A.5.5,0,0,0,267.6,255.2Z" transform="translate(-4 0)" />
		<path class="cls-3" d="M264.8,254.8a.4.4,0,0,0,.4.4h.1l.3-.2c0-.1.1-.2.1-.3l-.7-5.8c0-.2-.2-.4-.4-.3a.4.4,0,0,0-.4.4Z" transform="translate(-4 0)" />
		<path class="cls-3" d="M269.9,255.2h.1a.4.4,0,0,0,.4-.4l.6-5.8h0a.5.5,0,0,0-.4-.5.7.7,0,0,0-.5.4l-.6,5.8a.4.4,0,0,0,.1.3l.3.2Z" transform="translate(-4 0)" />
		<rect class="cls-27" x="29.8" y="279.7" width="73.8" height="18.24" rx="3.7" />
		<path class="cls-28" d="M33.4,283.4a4.1,4.1,0,0,1,4.1-4.1H72.3v19H37.5a4.1,4.1,0,0,1-4.1-4.1Z" transform="translate(-4 0)" />
		<path class="cls-3" d="M45.6,287H43.7v5.2h-.8V287H41v-.7h4.6Zm3,5.2c-.1-.1-.1-.2-.1-.4a2.1,2.1,0,0,1-1.3.5,1.5,1.5,0,0,1-1-.3,1.3,1.3,0,0,1-.4-1,1,1,0,0,1,.5-1,2,2,0,0,1,1.4-.4h.8v-.4a.9.9,0,0,0-.3-.6l-.7-.2c-.2,0-.5,0-.6.2a.5.5,0,0,0-.3.5h-.8a.9.9,0,0,1,.3-.7.9.9,0,0,1,.6-.4,1.5,1.5,0,0,1,.9-.2,1.6,1.6,0,0,1,1.2.4,1.2,1.2,0,0,1,.4,1v2a3,3,0,0,0,.2,1h-.8Zm-1.3-.5.7-.2.5-.5v-.9h-.6c-.9,0-1.4.3-1.4.8a1.4,1.4,0,0,0,.2.6Zm5.2-3.2h-.4a1,1,0,0,0-1,.6v3.1h-.7v-4.3h.7v.5a1.3,1.3,0,0,1,1.1-.6h.3Zm.4,1.5a2.5,2.5,0,0,1,.5-1.6,1.5,1.5,0,0,1,1.3-.6,1.7,1.7,0,0,1,1.2.5v-.4h.6v4.2a1.7,1.7,0,0,1-.5,1.4,1.9,1.9,0,0,1-1.3.5l-.9-.2a2.2,2.2,0,0,1-.7-.6l.4-.4a1.6,1.6,0,0,0,1.1.5,1.2,1.2,0,0,0,.9-.3,1.1,1.1,0,0,0,.3-.8v-.4a1.7,1.7,0,0,1-1.2.5,1.5,1.5,0,0,1-1.3-.6A2.9,2.9,0,0,1,52.9,290Zm.8.1a2.1,2.1,0,0,0,.3,1.2,1.2,1.2,0,0,0,.8.4,1.1,1.1,0,0,0,1.1-.7v-2a1.1,1.1,0,0,0-1-.6,1,1,0,0,0-.9.4A2.3,2.3,0,0,0,53.7,290.1Zm5.9,2.2a2,2,0,0,1-1.5-.6,2.5,2.5,0,0,1-.5-1.5V290a3.6,3.6,0,0,1,.2-1.1,1.9,1.9,0,0,1,.7-.8,1.7,1.7,0,0,1,1-.3,1.7,1.7,0,0,1,1.3.5,2.5,2.5,0,0,1,.5,1.6v.4h-3a1.8,1.8,0,0,0,.4,1,1.2,1.2,0,0,0,.9.4l.7-.2.5-.4.4.4A1.8,1.8,0,0,1,59.6,292.3Zm-.1-3.9a1.1,1.1,0,0,0-.8.3,1.2,1.2,0,0,0-.3.9h2.1a1.2,1.2,0,0,0-.3-.9A.8.8,0,0,0,59.5,288.4Zm3.7-1.6v1.1H64v.5h-.8v2.7c0,.2,0,.4.1.4l.4.2H64v.6h-.6a.9.9,0,0,1-.7-.3,1.2,1.2,0,0,1-.3-.9v-2.7h-.8v-.5h.8v-1.1Z" transform="translate(-4 0)" />
		<path class="cls-28" d="M82.1,290.7H79.6l-.5,1.5h-.8l2.2-5.9h.7l2.2,5.9h-.8Zm-2.3-.6h2l-1-2.8Zm5.6,1.1,1-3.3h.8l-1.6,4.3h-.5l-1.6-4.3h.7Zm2.3-1.2a2.5,2.5,0,0,1,.2-1.2,1.6,1.6,0,0,1,.7-.7,1.9,1.9,0,0,1,1-.3,2,2,0,0,1,1.5.6,2.2,2.2,0,0,1,.5,1.6h0a2,2,0,0,1-.2,1.1,1.9,1.9,0,0,1-.7.8,1.7,1.7,0,0,1-1,.3,2,2,0,0,1-1.5-.6,2.2,2.2,0,0,1-.5-1.6Zm.7.1a1.6,1.6,0,0,0,.4,1.2,1,1,0,0,0,.9.4,1.2,1.2,0,0,0,.9-.4,2.5,2.5,0,0,0,.3-1.3,2.1,2.1,0,0,0-.3-1.2,1.3,1.3,0,0,0-1-.4.9.9,0,0,0-.8.4A1.7,1.7,0,0,0,88.4,290.1Zm5,2.1h-.7v-4.3h.7Zm-.8-5.5a.4.4,0,0,1,.1-.3h.7c0,.1.1.2.1.3s-.1.2-.1.3h-.7A.4.4,0,0,1,92.6,286.7Zm1.8,3.3a2.5,2.5,0,0,1,.5-1.6,1.5,1.5,0,0,1,1.3-.6,1.3,1.3,0,0,1,1.2.5V286h.7v6.2h-.7v-.4a1.7,1.7,0,0,1-1.3.5,1.4,1.4,0,0,1-1.2-.6,2.8,2.8,0,0,1-.5-1.6Zm.8.1a2.1,2.1,0,0,0,.3,1.2,1.2,1.2,0,0,0,.8.4,1.1,1.1,0,0,0,1.1-.7v-2a1.3,1.3,0,0,0-1.1-.6.9.9,0,0,0-.8.4A2.3,2.3,0,0,0,95.2,290.1Z" transform="translate(-4 0)" />
		<path class="cls-15" d="M34.9,319.7a.2.2,0,1,0,.3.3l1.4-1.5c.1,0,.1-.2,0-.2l-1.4-1.5a.2.2,0,0,0-.3.3l1.4,1.3Z" transform="translate(-4 0)" />
		<path class="cls-15" d="M34.9,374.8c-.1.1-.1.2,0,.2a.2.2,0,0,0,.3,0l1.4-1.4a.2.2,0,0,0,0-.3l-1.4-1.5h-.3a.2.2,0,0,0,0,.3l1.4,1.3Z" transform="translate(-4 0)" />
		<path class="cls-15" d="M34.9,396.8a.2.2,0,0,0,0,.3h.3l1.4-1.5a.2.2,0,0,0,0-.3l-1.4-1.4h-.3c-.1,0-.1.2,0,.2l1.4,1.4Z" transform="translate(-4 0)" />
		<path class="cls-15" d="M34.9,346.6a.2.2,0,1,0,.3.3l1.4-1.5c.1,0,.1-.1,0-.2l-1.4-1.5h-.3a.2.2,0,0,0,0,.3l1.4,1.3Z" transform="translate(-4 0)" />
		<rect class="cls-29" x="37.3" y="312.9" width="11" height="11.01" rx="1.8" />
		<path d="M64.9,319.8H61.2l-.8,2.3H59.2l3.3-8.7h1l3.4,8.7H65.7Zm-3.3-1h2.9l-1.5-4Zm7.5,3.3H67.9v-6.5h1.2Zm-1.2-8.2a.9.9,0,0,1,.1-.5l.5-.2.5.2c.1.2.2.3.2.5a.5.5,0,0,1-.2.4c-.1.2-.3.2-.5.2s-.4,0-.5-.2S67.9,314.1,67.9,313.9Zm6.1,2.7h-.6a1.6,1.6,0,0,0-1.5,1v4.6H70.8v-6.5h1.1v.7a1.9,1.9,0,0,1,1.6-.8H74Zm6.4,2.3a4.3,4.3,0,0,1-.6,2.4,2.3,2.3,0,0,1-1.9.9,2.2,2.2,0,0,1-1.8-.8v3.1H75v-8.9h1v.7a2.6,2.6,0,0,1,1.9-.8,2.3,2.3,0,0,1,1.9.9,4,4,0,0,1,.6,2.4Zm-1.1-.1a3.2,3.2,0,0,0-.4-1.8,1.6,1.6,0,0,0-1.3-.6,1.6,1.6,0,0,0-1.5.9v3.1a1.6,1.6,0,0,0,1.5.9,1.8,1.8,0,0,0,1.3-.6A3.6,3.6,0,0,0,79.3,318.8Zm2.2,0a4.3,4.3,0,0,1,.4-1.7,3.2,3.2,0,0,1,1.1-1.2,2.4,2.4,0,0,1,1.5-.4,2.6,2.6,0,0,1,2.1.9,3.2,3.2,0,0,1,.8,2.4h0a4.7,4.7,0,0,1-.3,1.7,3.2,3.2,0,0,1-1.1,1.2,3.3,3.3,0,0,1-1.5.4,2.6,2.6,0,0,1-2.1-.9,3.3,3.3,0,0,1-.9-2.5Zm1.2.1a2.3,2.3,0,0,0,.5,1.7,1.6,1.6,0,0,0,2.6,0,2.4,2.4,0,0,0,.5-1.8,2.7,2.7,0,0,0-.5-1.8,1.6,1.6,0,0,0-1.3-.6,1.5,1.5,0,0,0-1.3.6A2.9,2.9,0,0,0,82.7,318.9Zm9.2-2.3h-.5a1.6,1.6,0,0,0-1.5,1v4.6H88.8v-6.5h1.1v.7a1.9,1.9,0,0,1,1.6-.8h.4Zm2.9-2.6v1.6H96v.9H94.8v4a.7.7,0,0,0,.1.5c.1.2.3.2.6.2H96v.9h-.9a1.6,1.6,0,0,1-1.1-.5,2.1,2.1,0,0,1-.3-1.2v-4H92.5v-.9h1.2V314Zm5.7,8.1v-8.7h2.4a3.3,3.3,0,0,1,2,.5,3.2,3.2,0,0,1,1.4,1.4,4.6,4.6,0,0,1,.5,2.1v.6a4.6,4.6,0,0,1-.5,2.1,4,4,0,0,1-1.4,1.5,4.2,4.2,0,0,1-2,.5Zm1.1-7.8v6.8h1.2a2.9,2.9,0,0,0,2.1-.8,3.2,3.2,0,0,0,.7-2.3v-.6a3.5,3.5,0,0,0-.7-2.3,2.4,2.4,0,0,0-1.9-.8Zm7.9,7.8h-1.1v-6.5h1.1Zm-1.2-8.2c0-.2.1-.3.2-.5l.5-.2.5.2a.9.9,0,0,1,.1.5c0,.2,0,.3-.1.4s-.3.2-.5.2-.4,0-.5-.2A.5.5,0,0,1,108.3,313.9Zm2.7,4.9a4.3,4.3,0,0,1,.7-2.4,2.3,2.3,0,0,1,1.9-.9,2.2,2.2,0,0,1,1.8.8v-.7h1v6.3a2.8,2.8,0,0,1-.8,2,2.4,2.4,0,0,1-1.9.7,3.2,3.2,0,0,1-1.4-.3,2.1,2.1,0,0,1-1-.8l.5-.7a2.3,2.3,0,0,0,1.8.9,1.6,1.6,0,0,0,1.2-.4,2.1,2.1,0,0,0,.5-1.3v-.6a2.5,2.5,0,0,1-1.8.8,2.3,2.3,0,0,1-1.9-.9A4.6,4.6,0,0,1,111,318.8Zm1.1.1a2.9,2.9,0,0,0,.5,1.7,1.4,1.4,0,0,0,1.2.6,1.7,1.7,0,0,0,1.6-.9v-3a1.8,1.8,0,0,0-1.5-.9,1.5,1.5,0,0,0-1.3.6A3.6,3.6,0,0,0,112.1,318.9Zm7.3,3.2h-1.1v-6.5h1.1Zm-1.2-8.2a.9.9,0,0,1,.1-.5l.5-.2.5.2c.1.2.2.3.2.5a.5.5,0,0,1-.2.4c-.1.2-.3.2-.5.2s-.4,0-.5-.2S118.2,314.1,118.2,313.9Zm4.4.1v1.6h1.2v.9h-1.2v4a.8.8,0,0,0,.2.5c.1.2.3.2.6.2h.5v.9H123a1.4,1.4,0,0,1-1.1-.5,2.1,2.1,0,0,1-.4-1.2v-4h-1.1v-.9h1.1V314Zm6.5,8.1c0-.2-.1-.4-.1-.7a2.7,2.7,0,0,1-1.9.8,2,2,0,0,1-1.5-.6,1.6,1.6,0,0,1-.6-1.3,1.9,1.9,0,0,1,.7-1.6,3.6,3.6,0,0,1,2.2-.6H129v-.5a1.3,1.3,0,0,0-.4-.9,1.5,1.5,0,0,0-1-.3,1.7,1.7,0,0,0-1,.3.8.8,0,0,0-.4.7h-1.1a1.6,1.6,0,0,1,.3-.9,3.9,3.9,0,0,1,1-.8l1.3-.2a2.9,2.9,0,0,1,1.7.5,2.6,2.6,0,0,1,.7,1.6v2.9a3.4,3.4,0,0,0,.2,1.5h-1.2Zm-1.8-.9,1-.2.7-.7v-1.4h-.9c-1.4,0-2,.4-2,1.2a1,1,0,0,0,.3.8A1.2,1.2,0,0,0,127.3,321.2Zm5.7.9h-1.1v-9.2H133Z" transform="translate(-4 0)" />
		<rect class="cls-29" x="37.3" y="366.7" width="11" height="11.01" rx="1.8" />
		<rect class="cls-29" x="37.3" y="339.8" width="11" height="11.01" rx="1.8" />
		<rect class="cls-29" x="37.3" y="388.7" width="11" height="11.01" rx="1.8" />
		<rect class="cls-30" x="56.3" y="390.6" width="102.7" height="4.89" />
		<rect class="cls-31" x="56.3" y="370" width="102.7" height="4.89" />
		<rect class="cls-32" x="56.3" y="344" width="102.7" height="4.89" />
	</g>
</svg>