<svg xmlns="http://www.w3.org/2000/svg" viewBox="0 0 221 227.88"><defs><style>.cls-1{fill:#3ace78;}.cls-2{fill:#fff;}.cls-3{fill:none;stroke:#fff;stroke-width:5.79px;}.cls-4{fill:#f3f3f3;}.cls-5{fill:#ffaea7;}.cls-6{fill:#ea7a70;}</style></defs><g id="Layer_2" data-name="Layer 2"><g id="Layer_1-2" data-name="Layer 1"><rect class="cls-1" x="10" width="211" height="211" rx="10"/><path class="cls-2" d="M120.15,73.12a14.75,14.75,0,1,1,1.59,9.6,1,1,0,0,1,.4-1.33,1,1,0,0,1,1.36.39,12.7,12.7,0,1,0-1.31-8.63l3.72,0-5,4.8L116,73.07l4.11.05Z"/><path class="cls-2" d="M140.1,78a1,1,0,0,1,.27,1.37,1,1,0,0,1-1.4.26l-4.68-3.13a1,1,0,0,1-.43-.87V68.08a1,1,0,0,1,2,0v7.09L140.1,78Z"/><rect class="cls-3" x="84.76" y="46.89" width="84.47" height="56.7" rx="2.89"/><rect class="cls-2" x="81.87" y="89.13" width="5.79" height="35.87" rx="2.89"/><path class="cls-2" d="M169.23,89.13h0a2.89,2.89,0,0,1,2.9,2.89v30.09a2.9,2.9,0,0,1-2.9,2.89h0a2.9,2.9,0,0,1-2.89-2.89V92A2.89,2.89,0,0,1,169.23,89.13Z"/><path class="cls-2" d="M67.1,160.07a1.39,1.39,0,0,0-.53-1.16,6.39,6.39,0,0,0-1.9-.82,8.83,8.83,0,0,1-2.19-.92,2.93,2.93,0,0,1-1.55-2.55A2.77,2.77,0,0,1,62,152.36a4.6,4.6,0,0,1,2.92-.89,5,5,0,0,1,2.12.44,3.5,3.5,0,0,1,1.46,1.25,3.19,3.19,0,0,1,.53,1.79h-2a1.8,1.8,0,0,0-.56-1.4,2.32,2.32,0,0,0-1.6-.5,2.37,2.37,0,0,0-1.5.41,1.38,1.38,0,0,0-.54,1.16,1.27,1.27,0,0,0,.58,1,6.83,6.83,0,0,0,1.91.82,8.62,8.62,0,0,1,2.13.9,3.26,3.26,0,0,1,1.18,1.15,3,3,0,0,1,.38,1.52,2.72,2.72,0,0,1-1.1,2.27,4.7,4.7,0,0,1-3,.84,5.48,5.48,0,0,1-2.27-.46,3.81,3.81,0,0,1-1.61-1.26,3.17,3.17,0,0,1-.57-1.88h2a1.85,1.85,0,0,0,.64,1.5,2.78,2.78,0,0,0,1.84.53,2.43,2.43,0,0,0,1.55-.41A1.35,1.35,0,0,0,67.1,160.07ZM73,152.49v2.06H74.5V156H73v4.72a1.14,1.14,0,0,0,.18.71.92.92,0,0,0,.69.21,3,3,0,0,0,.66-.08V163a4.61,4.61,0,0,1-1.25.18c-1.45,0-2.18-.81-2.18-2.42V156H69.72v-1.4h1.39v-2.06ZM81,163a2.56,2.56,0,0,1-.22-.79,3,3,0,0,1-2.22.95,3,3,0,0,1-2.08-.73,2.3,2.3,0,0,1-.8-1.8,2.39,2.39,0,0,1,1-2.07,4.89,4.89,0,0,1,2.87-.72h1.16v-.56a1.31,1.31,0,0,0-1.48-1.44,1.69,1.69,0,0,0-1.06.32,1,1,0,0,0-.42.82H75.87a2.06,2.06,0,0,1,.46-1.29,3,3,0,0,1,1.25-1,4.58,4.58,0,0,1,1.77-.34,3.54,3.54,0,0,1,2.37.75,2.61,2.61,0,0,1,.9,2.09v3.82a4.4,4.4,0,0,0,.32,1.82V163Zm-2.09-1.37a2.13,2.13,0,0,0,1-.27,1.73,1.73,0,0,0,.75-.74V159h-1a2.73,2.73,0,0,0-1.58.37,1.18,1.18,0,0,0-.54,1,1.12,1.12,0,0,0,.36.87A1.41,1.41,0,0,0,78.92,161.63ZM87,152.49v2.06h1.49V156H87v4.72a1.08,1.08,0,0,0,.19.71.92.92,0,0,0,.69.21,3.05,3.05,0,0,0,.66-.08V163a4.66,4.66,0,0,1-1.25.18c-1.46,0-2.19-.81-2.19-2.42V156H83.7v-1.4h1.39v-2.06ZM92,163h-1.9v-8.45H92Zm-2-10.65a1,1,0,0,1,.28-.73,1,1,0,0,1,.79-.28,1.07,1.07,0,0,1,.8.28,1,1,0,0,1,.28.73,1,1,0,0,1-.28.72,1.07,1.07,0,0,1-.8.28,1,1,0,0,1-.79-.28A1,1,0,0,1,89.94,152.35Zm7.57,9.29a1.76,1.76,0,0,0,1.18-.41,1.47,1.47,0,0,0,.5-1H101a2.78,2.78,0,0,1-.49,1.48,3.3,3.3,0,0,1-1.25,1.08,3.77,3.77,0,0,1-1.7.4A3.62,3.62,0,0,1,94.72,162a4.54,4.54,0,0,1-1-3.17v-.2a4.47,4.47,0,0,1,1-3.09,3.58,3.58,0,0,1,2.81-1.16,3.43,3.43,0,0,1,2.45.88,3.12,3.12,0,0,1,1,2.31H99.19a1.8,1.8,0,0,0-.5-1.2,1.61,1.61,0,0,0-1.18-.47,1.68,1.68,0,0,0-1.43.68,3.35,3.35,0,0,0-.5,2v.3a3.5,3.5,0,0,0,.49,2.06A1.67,1.67,0,0,0,97.51,161.64Zm15.43-1.29h-4.4l-.93,2.65h-2l4.3-11.38h1.77L115.94,163h-2.07Zm-3.85-1.59h3.3L110.74,154Zm10.55,1.83,1.79-6h2L120.46,163h-1.65l-3-8.45h2Zm9.87,2.41a2.56,2.56,0,0,1-.22-.79,3,3,0,0,1-2.22.95,3,3,0,0,1-2.08-.73,2.3,2.3,0,0,1-.8-1.8,2.39,2.39,0,0,1,1-2.07,4.89,4.89,0,0,1,2.87-.72h1.16v-.56a1.31,1.31,0,0,0-1.48-1.44,1.69,1.69,0,0,0-1.06.32,1,1,0,0,0-.42.82h-1.9a2.07,2.07,0,0,1,.47-1.29,3,3,0,0,1,1.25-1,4.58,4.58,0,0,1,1.77-.34,3.54,3.54,0,0,1,2.37.75,2.64,2.64,0,0,1,.9,2.09v3.82a4.4,4.4,0,0,0,.32,1.82V163Zm-2.09-1.37a2.13,2.13,0,0,0,1-.27,1.73,1.73,0,0,0,.75-.74V159h-1a2.79,2.79,0,0,0-1.59.37,1.19,1.19,0,0,0-.53,1,1.12,1.12,0,0,0,.36.87A1.41,1.41,0,0,0,127.42,161.63Zm7.71,1.37h-1.9v-8.45h1.9Zm-2-10.65a1.05,1.05,0,0,1,.28-.73,1.27,1.27,0,0,1,1.59,0,1,1,0,0,1,.28.73,1,1,0,0,1-.28.72,1.27,1.27,0,0,1-1.59,0A1,1,0,0,1,133.11,152.35ZM139.22,163h-1.89V151h1.89Zm6.82-2.3a.86.86,0,0,0-.43-.77,4.31,4.31,0,0,0-1.38-.47,7.56,7.56,0,0,1-1.62-.51,2.18,2.18,0,0,1-1.42-2,2.28,2.28,0,0,1,.92-1.83,3.66,3.66,0,0,1,2.35-.73,3.76,3.76,0,0,1,2.44.75,2.37,2.37,0,0,1,.94,2h-1.9a1.16,1.16,0,0,0-.4-.91,1.52,1.52,0,0,0-1.08-.37,1.69,1.69,0,0,0-1,.29.9.9,0,0,0-.4.78.77.77,0,0,0,.37.67,4.94,4.94,0,0,0,1.49.5,6.86,6.86,0,0,1,1.75.58,2.47,2.47,0,0,1,.94.82,2,2,0,0,1,.31,1.15,2.2,2.2,0,0,1-.94,1.85,4.05,4.05,0,0,1-2.48.71,4.37,4.37,0,0,1-1.85-.38,3.1,3.1,0,0,1-1.27-1,2.46,2.46,0,0,1-.45-1.41h1.85a1.35,1.35,0,0,0,.5,1,2,2,0,0,0,1.25.35,1.92,1.92,0,0,0,1.14-.28A.89.89,0,0,0,146,160.7Z"/><path class="cls-4" d="M9.44,206.26H30v.41H9.44Z"/><path class="cls-4" d="M9.44,205.44H30v.41H9.44Z"/><path class="cls-4" d="M9.44,204.62H30V205H9.44Z"/><path class="cls-4" d="M9.44,203.91H30v.41H9.44Z"/><path class="cls-4" d="M9.44,203.09H30v.41H9.44Z"/><path class="cls-4" d="M9.44,202.27H30v.41H9.44Z"/><path class="cls-4" d="M9.44,201.55H30V202H9.44Z"/><path class="cls-4" d="M9.44,200.73H30v.41H9.44Z"/><path class="cls-4" d="M29.05,199.91s1.56.1,2.48,3.79c0,0-5.69-3.58-8.16-3.79Z"/><path class="cls-4" d="M10.63,200.32a2.63,2.63,0,0,0-2.84,2.25s5-1.84,7.06-2.25Z"/><path class="cls-5" d="M10.54,200.63H34.92v27.25H10.54Z"/><path class="cls-6" d="M3.57,200.63h7.24v27.25H3.57Z"/><path class="cls-6" d="M3.67,200.63h7.14l-3.57-8.09H0Z"/><path class="cls-5" d="M34.92,200.63H27.68l3.57-8.09h7.24Z"/><path class="cls-2" d="M5,204h4.4v2.56H5Z"/></g></g></svg>