<?xml version="1.0" encoding="UTF-8"?>
<svg id="Layer_1" data-name="Layer 1" xmlns="http://www.w3.org/2000/svg" xmlns:xlink="http://www.w3.org/1999/xlink" viewBox="0 0 425.9 350">
<style>
@keyframes bobble {
	0% {
		transform:rotate(0deg);
	}
	30% {
		transform:rotate(-8deg);
	}
	60% {
		transform:rotate(8deg);
	}
	100% {
		transform:rotate(0deg);
	}
}

@keyframes leg_left_bend {
	0% {
		transform:rotate(0deg);
	}
	30% {
		transform:rotate(-3deg);
	}
	60% {
		transform:rotate(5deg);
	}
	100% {
		transform:rotate(0deg);
	}
}

@keyframes leg_right_bend {
	0% {
		transform:rotate(2deg);
	}
	40% {
		transform:rotate(8deg);
	}
	100% {
		transform:rotate(2deg);
	}
}

@keyframes knee_left_bend {
	0% {
		transform:rotate(0deg);
	}
	20% {
		transform:rotate(-15deg);
	}
	60% {
		transform:rotate(-5deg);
	}
	100% {
		transform:rotate(0deg);
	}
}

@keyframes knee_right_bend {
	0% {
		transform:rotate(0deg);
	}
	40% {
		transform:rotate(-40deg);
	}
	100% {
		transform:rotate(0deg);
	}
}

#global{top:20px;position:relative;}

#bot_head{
	animation:bobble 4s ease-in-out 0s infinite;
	transform-origin:60% 25%;
}

#bot_leg_left{
	animation:leg_left_bend 5s ease-in-out 0s infinite;
	transform-origin:60% 40%;
	z-index:10;
}

#bot_leg_left #bottom_joint-2 {
	animation:knee_left_bend 5s ease-in-out 0s infinite;
	transform-origin:50% 78%;
}

#bot_leg_left #shin {}

#bot_leg_right{
	animation:leg_right_bend 6s ease-in-out 0s infinite;
	transform-origin:60% 40%;
	z-index:5;
}

#bot_leg_right #bottom_joint {
	animation:knee_right_bend 6s ease-in-out 0s infinite;
	transform-origin:38% 74%;
}

#bot_leg_right #shin {}

#overflow {
	opacity:0;
}
</style>
  <defs>
    <linearGradient id="linear-gradient" x1="181.8" y1="97.6" x2="190.4" y2="83.4" gradientTransform="translate(0 329.2) scale(1 -1)" gradientUnits="userSpaceOnUse">
      <stop offset="0" stop-color="#9d0051"/>
      <stop offset="0" stop-color="#9d0051"/>
      <stop offset=".9" stop-color="#301c90"/>
      <stop offset="1" stop-color="#301c90"/>
    </linearGradient>
    <linearGradient id="linear-gradient-2" x1="143.7" y1="74.3" x2="152.3" y2="60.1" xlink:href="#linear-gradient"/>
    <linearGradient id="linear-gradient-3" x1="122.2" y1="78.2" x2="120.8" y2="24.7" gradientTransform="translate(0 329.2) scale(1 -1)" gradientUnits="userSpaceOnUse">
      <stop offset="0" stop-color="#9dbfff"/>
      <stop offset=".5" stop-color="#7aa3f3"/>
      <stop offset="1" stop-color="#0050eb"/>
    </linearGradient>
    <linearGradient id="linear-gradient-4" x1="162.9" y1="95.2" x2="162.6" y2="57.4" gradientTransform="translate(0 329.2) scale(1 -1)" gradientUnits="userSpaceOnUse">
      <stop offset="0" stop-color="#9dbfff"/>
      <stop offset=".5" stop-color="#7aa3f3"/>
      <stop offset="1" stop-color="#0050eb"/>
    </linearGradient>
    <linearGradient id="linear-gradient-5" x1="225.6" y1="82.3" x2="238" y2="71.2" gradientTransform="translate(0 329.2) scale(1 -1)" gradientUnits="userSpaceOnUse">
      <stop offset="0" stop-color="#9d0051"/>
      <stop offset="0" stop-color="#9d0051"/>
      <stop offset=".9" stop-color="#301c90"/>
      <stop offset="1" stop-color="#301c90"/>
    </linearGradient>
    <linearGradient id="linear-gradient-6" x1="197.9" y1="51.3" x2="210.4" y2="40.1" xlink:href="#linear-gradient-5"/>
    <linearGradient id="linear-gradient-7" x1="177.3" y1="50" x2="191.6" y2="-1.6" gradientTransform="translate(0 329.2) scale(1 -1)" gradientUnits="userSpaceOnUse">
      <stop offset="0" stop-color="#9dbfff"/>
      <stop offset=".5" stop-color="#7aa3f3"/>
      <stop offset="1" stop-color="#0050eb"/>
    </linearGradient>
    <linearGradient id="linear-gradient-8" x1="211.4" y1="78.2" x2="222.1" y2="41.9" gradientTransform="translate(0 329.2) scale(1 -1)" gradientUnits="userSpaceOnUse">
      <stop offset="0" stop-color="#9dbfff"/>
      <stop offset=".5" stop-color="#7aa3f3"/>
      <stop offset="1" stop-color="#0050eb"/>
    </linearGradient>
    <linearGradient id="linear-gradient-9" x1="236" y1="243.9" x2="266.5" y2="237.6" gradientTransform="translate(0 329.2) scale(1 -1)" gradientUnits="userSpaceOnUse">
      <stop offset="0" stop-color="#9d0051"/>
      <stop offset="0" stop-color="#9d0051"/>
      <stop offset=".9" stop-color="#301c90"/>
      <stop offset="1" stop-color="#301c90"/>
    </linearGradient>
    <linearGradient id="linear-gradient-10" x1="244.7" y1="303.7" x2="254.1" y2="304.4" gradientTransform="translate(0 329.2) scale(1 -1)" gradientUnits="userSpaceOnUse">
      <stop offset="0" stop-color="#9d0051"/>
      <stop offset="0" stop-color="#9d0051"/>
      <stop offset=".9" stop-color="#301c90"/>
      <stop offset="1" stop-color="#301c90"/>
    </linearGradient>
    <linearGradient id="linear-gradient-11" x1="286" y1="280.9" x2="300.7" y2="282" gradientTransform="translate(0 329.2) scale(1 -1)" gradientUnits="userSpaceOnUse">
      <stop offset="0" stop-color="#9d0051"/>
      <stop offset="0" stop-color="#9d0051"/>
      <stop offset=".9" stop-color="#301c90"/>
      <stop offset="1" stop-color="#301c90"/>
    </linearGradient>
    <linearGradient id="linear-gradient-12" x1="216.5" y1="275.9" x2="201.8" y2="274.8" gradientTransform="translate(0 329.2) scale(1 -1)" gradientUnits="userSpaceOnUse">
      <stop offset="0" stop-color="#9d0051"/>
      <stop offset="0" stop-color="#9d0051"/>
      <stop offset=".9" stop-color="#301c90"/>
      <stop offset="1" stop-color="#301c90"/>
    </linearGradient>
    <linearGradient id="linear-gradient-13" x1="212.3" y1="293.4" x2="291.4" y2="247.5" gradientTransform="translate(0 329.2) scale(1 -1)" gradientUnits="userSpaceOnUse">
      <stop offset="0" stop-color="#9dbfff"/>
      <stop offset=".5" stop-color="#7aa3f3"/>
      <stop offset="1" stop-color="#0050eb"/>
    </linearGradient>
    <linearGradient id="linear-gradient-14" x1="239.3" y1="328.4" x2="256.8" y2="317.4" gradientTransform="translate(0 329.2) scale(1 -1)" gradientUnits="userSpaceOnUse">
      <stop offset="0" stop-color="#9dbfff"/>
      <stop offset=".5" stop-color="#7aa3f3"/>
      <stop offset="1" stop-color="#0050eb"/>
    </linearGradient>
    <linearGradient id="linear-gradient-15" x1="331" y1="166.2" x2="309.6" y2="151.5" gradientTransform="translate(0 329.2) scale(1 -1)" gradientUnits="userSpaceOnUse">
      <stop offset="0" stop-color="#9d0051"/>
      <stop offset="0" stop-color="#9d0051"/>
      <stop offset=".9" stop-color="#301c90"/>
      <stop offset="1" stop-color="#301c90"/>
    </linearGradient>
    <linearGradient id="linear-gradient-16" x1="295.7" y1="212.6" x2="325.3" y2="169.5" gradientTransform="translate(0 329.2) scale(1 -1)" gradientUnits="userSpaceOnUse">
      <stop offset="0" stop-color="#9dbfff"/>
      <stop offset=".5" stop-color="#7aa3f3"/>
      <stop offset="1" stop-color="#0050eb"/>
    </linearGradient>
    <linearGradient id="linear-gradient-17" x1="341.1" y1="124.1" x2="328.2" y2="115.4" gradientTransform="translate(0 329.2) scale(1 -1)" gradientUnits="userSpaceOnUse">
      <stop offset="0" stop-color="#9d0051"/>
      <stop offset="0" stop-color="#9d0051"/>
      <stop offset=".9" stop-color="#301c90"/>
      <stop offset="1" stop-color="#301c90"/>
    </linearGradient>
    <linearGradient id="linear-gradient-18" x1="294.9" y1="188.8" x2="306" y2="186.9" gradientTransform="translate(0 329.2) scale(1 -1)" gradientUnits="userSpaceOnUse">
      <stop offset="0" stop-color="#9d0051"/>
      <stop offset="0" stop-color="#9d0051"/>
      <stop offset=".9" stop-color="#301c90"/>
      <stop offset="1" stop-color="#301c90"/>
    </linearGradient>
    <linearGradient id="linear-gradient-19" x1="347.1" y1="137.5" x2="304.5" y2="130.6" gradientTransform="translate(0 329.2) scale(1 -1)" gradientUnits="userSpaceOnUse">
      <stop offset="0" stop-color="#9dbfff"/>
      <stop offset=".5" stop-color="#7aa3f3"/>
      <stop offset="1" stop-color="#0050eb"/>
    </linearGradient>
    <linearGradient id="linear-gradient-20" x1="367.5" y1="119.9" x2="320.1" y2="85.8" gradientTransform="translate(0 329.2) scale(1 -1)" gradientUnits="userSpaceOnUse">
      <stop offset="0" stop-color="#9dbfff"/>
      <stop offset=".5" stop-color="#7aa3f3"/>
      <stop offset="1" stop-color="#0050eb"/>
    </linearGradient>
    <linearGradient id="linear-gradient-21" x1="155.8" y1="188" x2="176" y2="171.6" gradientTransform="translate(0 329.2) scale(1 -1)" gradientUnits="userSpaceOnUse">
      <stop offset="0" stop-color="#9d0051"/>
      <stop offset="0" stop-color="#9d0051"/>
      <stop offset=".9" stop-color="#301c90"/>
      <stop offset="1" stop-color="#301c90"/>
    </linearGradient>
    <linearGradient id="linear-gradient-22" x1="200.7" y1="230.1" x2="158.1" y2="199.9" gradientTransform="translate(0 329.2) scale(1 -1)" gradientUnits="userSpaceOnUse">
      <stop offset="0" stop-color="#9dbfff"/>
      <stop offset=".5" stop-color="#7aa3f3"/>
      <stop offset="1" stop-color="#0050eb"/>
    </linearGradient>
    <linearGradient id="linear-gradient-23" x1="142.5" y1="146.9" x2="154.6" y2="137.2" gradientTransform="translate(0 329.2) scale(1 -1)" gradientUnits="userSpaceOnUse">
      <stop offset="0" stop-color="#9d0051"/>
      <stop offset="0" stop-color="#9d0051"/>
      <stop offset=".9" stop-color="#301c90"/>
      <stop offset="1" stop-color="#301c90"/>
    </linearGradient>
    <linearGradient id="linear-gradient-24" x1="193.3" y1="207.5" x2="182.2" y2="209.6" gradientTransform="translate(0 329.2) scale(1 -1)" gradientUnits="userSpaceOnUse">
      <stop offset="0" stop-color="#9d0051"/>
      <stop offset="0" stop-color="#9d0051"/>
      <stop offset=".9" stop-color="#301c90"/>
      <stop offset="1" stop-color="#301c90"/>
    </linearGradient>
    <linearGradient id="linear-gradient-25" x1="136.4" y1="160.7" x2="178.3" y2="150.5" gradientTransform="translate(0 329.2) scale(1 -1)" gradientUnits="userSpaceOnUse">
      <stop offset="0" stop-color="#9dbfff"/>
      <stop offset=".5" stop-color="#7aa3f3"/>
      <stop offset="1" stop-color="#0050eb"/>
    </linearGradient>
    <linearGradient id="linear-gradient-26" x1="115.8" y1="144.7" x2="160.3" y2="107" gradientTransform="translate(0 329.2) scale(1 -1)" gradientUnits="userSpaceOnUse">
      <stop offset="0" stop-color="#9dbfff"/>
      <stop offset=".5" stop-color="#7aa3f3"/>
      <stop offset="1" stop-color="#0050eb"/>
    </linearGradient>
    <linearGradient id="linear-gradient-27" x1="174.1" y1="200.2" x2="300.8" y2="124.8" gradientTransform="translate(0 329.2) scale(1 -1)" gradientUnits="userSpaceOnUse">
      <stop offset="0" stop-color="#9dbfff"/>
      <stop offset=".3" stop-color="#7aa3f3"/>
      <stop offset="1" stop-color="#0050eb"/>
    </linearGradient>
  </defs>
  <g id="global" transform="translate(0 10)">
	<path d="m62.1,179c19.1-4,108-2.2,169.6,5.5,35.2-6.6,160.8,24.2,188.4,47.4,16.6,13.9-5.5,41.9-27.5,50.7-27.8,11.1-96.9,11-136.6,7.7-39.7-3.3-104.6,34.1-154.2,34.1S17,287,2.6,249.5c-14.3-37.5,33-65,59.5-70.5Z" style="fill: #e3f7fa;"/>
	<g id="bot_leg_right">
		<path d="m213.6,231.7l-8.5-14.1-46.5,28.1,8.5,14.1,46.5-28.1Z" style="fill: url(#linear-gradient); isolation: isolate; opacity: .8;"/>
		<g id="bottom_joint">
		<g id="shin">
			<path d="m169.9,258.5l-8.5-14.1-35.2,21.1,8.5,14.1,35.2-21.1Z" style="fill: url(#linear-gradient-2); isolation: isolate; opacity: .8;"/>
			<path d="m132.3,262.5l8,13.2c1.8,3,2.4,6.7,1.6,10.2-.8,3.5-3,6.4-6.1,8.3l-8.2,5c-1.1.7-2.4,1.1-3.7,1.4-1.3.2-2.7.1-4-.2-1.3-.3-2.5-.9-3.6-1.7-1.1-.8-2-1.8-2.7-2.9l-11.4-18.8c-1.4-2.3-1.8-5.1-1.2-7.7.6-2.6,2.3-4.9,4.6-6.3l8.2-5c1.5-.9,3.2-1.5,4.9-1.8,1.7-.3,3.5-.2,5.2.2,1.7.4,3.3,1.2,4.8,2.2,1.4,1,2.6,2.4,3.5,3.9Z" style="fill: url(#linear-gradient-3);"/>
		</g>
		<path d="m177.7,254.2l-9.2-15.3c-1.7-2.8-5.3-3.6-8-2l-10.6,6.4c-2.8,1.7-3.6,5.3-2,8l9.2,15.2c1.7,2.8,5.3,3.6,8,2l10.6-6.4c2.8-1.7,3.6-5.3,2-8Z" style="fill: url(#linear-gradient-4);"/>
		</g>
	</g>
	<g id="bot_leg_left">
		<path d="m253.6,240.2l-12.3-11-31.5,35.5,12.3,11,31.5-35.5Z" style="fill: url(#linear-gradient-5); isolation: isolate; opacity: .8;"/>
		<g id="bottom_joint-2" data-name="bottom_joint">
		<g>
			<path d="m222.9,275l-12.3-11-25.2,27.8,12.3,11,25.2-27.8Z" style="fill: url(#linear-gradient-6); isolation: isolate; opacity: .8;"/>
			<path d="m190.4,287.3l11.5,10.3c2.7,2.4,4.3,5.7,4.5,9.3.2,3.6-1,7-3.4,9.7l-6.4,7.2c-.9,1-2,1.8-3.2,2.4-1.2.6-2.5.9-3.8,1-1.3,0-2.7-.1-3.9-.6-1.3-.4-2.4-1.1-3.4-2l-16.4-14.7c-2-1.8-3.2-4.3-3.4-7-.2-2.7.8-5.3,2.6-7.3l6.4-7.2c1.2-1.3,2.6-2.4,4.2-3.1,1.6-.8,3.3-1.2,5.1-1.3,1.8,0,3.5.2,5.2.7,1.7.6,3.2,1.5,4.5,2.7Z" style="fill: url(#linear-gradient-7);"/>
		</g>
		<path id="shin-2" data-name="shin" d="m231.4,266.1l-13.3-11.9c-2.4-2.2-6.1-1.9-8.3.5l-8.3,9.3c-2.2,2.4-1.9,6.1.5,8.2l13.3,11.9c2.4,2.2,6.1,1.9,8.3-.5l8.3-9.3c2.2-2.4,1.9-6.1-.5-8.3Z" style="fill: url(#linear-gradient-8);"/>
		</g>
	</g>
	<path d="m268.4,82.8l-30.5-6.3-3.6,17.6,30.5,6.3,3.6-17.6Z" style="fill: #fff;"/>
	<path id="overflow" d="M0 500 H400 V10" style="fill: #fff;"/>
	<path d="m296.1,44l8.7,1.8c.7.2,1.5.5,2.1.9s1.2,1,1.6,1.6c.4.6.7,1.4.9,2.1.1.7.1,1.5,0,2.3l-2.8,13.4c-.3,1.5-1.2,2.8-2.5,3.7-1.3.8-2.9,1.1-4.4.8l-8.7-1.8,5.1-24.8Z" style="fill: #fff;"/>
	<path d="m222.7,54.7l-8.7-1.8c-1.5-.3-2.8-1.2-3.7-2.5-.8-1.3-1.1-2.9-.8-4.4l2.8-13.4c.3-1.5,1.2-2.8,2.5-3.7,1.3-.8,2.9-1.1,4.4-.8l8.7,1.8-5.1,24.8Z" style="fill: #fff;"/>
	<path d="m268.4,82.8l-30.5-6.3-3.6,17.6,30.5,6.3,3.6-17.6Z" style="fill: url(#linear-gradient-9); isolation: isolate; opacity: .8;"/>
	<g id="bot_head">
		<path d="m253,10l-9.4.7,2.1,29.6,9.4-.7-2.1-29.6Z" style="fill: url(#linear-gradient-10); isolation: isolate; opacity: .8;"/>
		<path d="m285.1,35.6l8.9-.6c.8,0,1.5,0,2.3.3s1.4.6,2,1.1c.6.5,1.1,1.1,1.4,1.8.3.7.5,1.4.6,2.2l1,13.7c.1,1.5-.4,3.1-1.4,4.2-1,1.2-2.4,1.9-4,2l-8.9.6-1.8-25.3Z" style="fill: url(#linear-gradient-11); isolation: isolate; opacity: .8;"/>
		<path d="m217.4,65.9l-8.9.6c-1.5.1-3.1-.4-4.2-1.4-1.2-1-1.9-2.4-2-4l-1-13.7c-.1-1.5.4-3.1,1.4-4.2s2.4-1.9,4-2l8.9-.6,1.8,25.3Z" style="fill: url(#linear-gradient-12); isolation: isolate; opacity: .8;"/>
		<path d="m279.8,29.4l-59.8,4.3c-3.8.3-6.6,3.5-6.3,7.3l3,40.7c.3,3.8,3.5,6.6,7.3,6.3l59.8-4.3c3.8-.3,6.6-3.5,6.3-7.3l-3-40.7c-.3-3.8-3.5-6.6-7.3-6.3Z" style="fill: url(#linear-gradient-13);"/>
		<path d="m254.3,0l-13.3,1c-1,0-1.8,1-1.7,2l.6,8c0,1,1,1.8,2,1.7l13.3-1c1,0,1.8-1,1.7-2l-.6-8c0-1-1-1.8-2-1.7Z" style="fill: url(#linear-gradient-14);"/>
		<path d="m237.3,77c5.5-7.7,25.3-6.6,30.8,0" style="fill: none; stroke: #001464; stroke-width: 1.1px;"/>
		<ellipse cx="237.8" cy="54.4" rx="2.8" ry="5" style="fill: #001464;"/>
		<ellipse cx="262.1" cy="53.3" rx="2.8" ry="5" style="fill: #001464;"/>
	</g>
	<path d="m331.3,185.6l-9.2-35.5-13.5,5.4,7.5,31.9,15.1-1.8Z" style="fill: url(#linear-gradient-15); isolation: isolate; opacity: .8;"/>
	<path d="m325.9,128.3c8.4,6.5,10,18.5,3.5,26.9-6.5,8.4-18.5,10-26.9,3.5-8.4-6.5-10-18.5-3.5-26.9,6.5-8.4,18.5-10,26.9-3.5Z" style="fill: url(#linear-gradient-16);"/>
	<path d="m298.6,118.7l8,1.4c.8.1,1.6.6,2.1,1.3.5.7.7,1.6.5,2.4l-6.4,37c-.1.8-.6,1.6-1.3,2.1-.7.5-1.6.7-2.4.5l-8-1.4,7.5-43.3Z" style="fill: #fff;"/>
	<path d="m324.3,207.9l12.9-8.7,7.8,11.6-12.9,8.7-7.8-11.6Z" style="fill: url(#linear-gradient-17); isolation: isolate; opacity: .8;"/>
	<path d="m298.6,118.7l8,1.4c.8.1,1.6.6,2.1,1.3.5.7.7,1.6.5,2.4l-6.4,37c-.1.8-.6,1.6-1.3,2.1-.7.5-1.6.7-2.4.5l-8-1.4,7.5-43.3Z" style="fill: url(#linear-gradient-18); isolation: isolate; opacity: .8;"/>
	<path d="m333.1,205.7c-5.8,4.4-14.1,3.2-18.4-2.6s-3.2-14.1,2.6-18.4c5.8-4.4,14.1-3.2,18.4,2.6s3.2,14.1-2.6,18.4Z" style="fill: url(#linear-gradient-19);"/>
	<path d="m346.6,241.6v-4.2c-2.1,0-4.1-.6-5.9-1.7s-3.2-2.6-4.1-4.5c-.9-1.9-1.4-3.9-1.2-6,.2-2.1.9-4.1,2.1-5.7,1.2-1.7,2.9-3,4.8-3.8,1.9-.8,4-1.1,6.1-.8,2.1.3,4,1.2,5.6,2.5s2.8,3.1,3.5,5l4-1.4c-.9-2.7-2.6-5.1-4.7-6.9-2.2-1.8-4.8-3-7.7-3.4-2.8-.4-5.7,0-8.3,1.1-2.6,1.1-4.9,2.9-6.6,5.2-1.7,2.3-2.7,5-2.9,7.9-.2,2.8.4,5.7,1.6,8.2,1.3,2.5,3.3,4.7,5.7,6.2,2.4,1.5,5.2,2.3,8.1,2.3h0Z" style="fill: url(#linear-gradient-20);"/>
	<path d="m153.7,163.7l11.9-34.7,13,6.5-10,31.2-14.9-2.9Z" style="fill: url(#linear-gradient-21); isolation: isolate; opacity: .8;"/>
	<path d="m168.3,99.7c-10.1,3.2-15.8,14-12.6,24.1,3.2,10.1,14,15.7,24.1,12.6,10.1-3.2,15.8-14,12.6-24.1-3.2-10.1-14-15.7-24.1-12.6Z" style="fill: url(#linear-gradient-22);"/>
	<path d="m158.9,186.5l-12.1-9.7-8.7,10.9,12.1,9.7,8.7-10.9Z" style="fill: url(#linear-gradient-23); isolation: isolate; opacity: .8;"/>
	<path d="m197.3,100l-8-1.5c-.8-.2-1.7,0-2.4.5-.7.5-1.2,1.2-1.3,2.1l-6.8,36.9c-.2.8,0,1.7.5,2.4.5.7,1.2,1.2,2.1,1.3l8,1.5,7.9-43.2Z" style="fill: #fff;"/>
	<path d="m197.3,100l-8-1.5c-.8-.2-1.7,0-2.4.5-.7.5-1.2,1.2-1.3,2.1l-6.8,36.9c-.2.8,0,1.7.5,2.4.5.7,1.2,1.2,2.1,1.3l8,1.5,7.9-43.2Z" style="fill: url(#linear-gradient-24); isolation: isolate; opacity: .8;"/>
	<path d="m149.2,183.6c5.4,4.8,13.8,4.3,18.6-1.1,4.8-5.4,4.3-13.8-1.1-18.6-5.4-4.8-13.8-4.3-18.6,1.1-4.8,5.4-4.3,13.8,1.1,18.6Z" style="fill: url(#linear-gradient-25);"/>
	<path d="m134,218.3l.3-4.2c2.1.2,4.1-.3,6-1.2,1.8-.9,3.4-2.4,4.5-4.2,1.1-1.8,1.7-3.8,1.7-5.9,0-2.1-.6-4.1-1.6-5.9-1.1-1.8-2.6-3.2-4.5-4.2-1.8-1-3.9-1.4-6-1.2-2.1.1-4.1.9-5.8,2.1-1.7,1.2-3,2.8-3.8,4.8l-3.9-1.7c1.1-2.6,3-4.9,5.3-6.5,2.3-1.6,5.1-2.6,7.9-2.8,2.8-.2,5.7.4,8.2,1.7,2.5,1.3,4.7,3.3,6.1,5.7,1.5,2.4,2.3,5.2,2.2,8.1,0,2.9-.8,5.6-2.3,8.1-1.5,2.4-3.6,4.4-6.2,5.7-2.5,1.3-5.4,1.9-8.2,1.7h0Z" style="fill: url(#linear-gradient-26);"/>
	<path d="m292.1,105l-84.2-15.3c-5.2-.9-10.5,4.4-11.9,12l-20.2,111.4c-1.4,7.5,1.7,14.4,6.9,15.4l84.2,15.3c5.2.9,10.5-4.4,11.9-12l20.2-111.4c1.4-7.5-1.7-14.4-6.9-15.4Z" style="fill: url(#linear-gradient-27);"/>
  </g>
</svg>