<svg id="Layer_1" data-name="Layer 1" xmlns="http://www.w3.org/2000/svg" xmlns:xlink="http://www.w3.org/1999/xlink" viewBox="0 0 538.03 561.52"><defs><style>.cls-1{fill:none;}.cls-2{clip-path:url(#clip-path);}.cls-3{fill:#ccc;}.cls-4{fill:#92d4d2;}.cls-5{fill:#fea789;}.cls-6{fill:#f16a70;}.cls-7{fill:#6fb9b8;}.cls-8{fill:#fff;}</style><clipPath id="clip-path" transform="translate(0 23.49)"><rect class="cls-1" width="538" height="538"/></clipPath></defs><g class="cls-2"><path class="cls-3" d="M178.92,51.34,166.11,20.42a269.39,269.39,0,0,0-87.35,58.4l23.66,23.66A235.35,235.35,0,0,1,178.92,51.34Z" transform="translate(0 23.49)"/><path class="cls-3" d="M102.42,102.48,78.76,78.82a269.32,269.32,0,0,0-58.34,87.26l30.92,12.81A235.7,235.7,0,0,1,102.42,102.48Z" transform="translate(0 23.49)"/><path class="cls-3" d="M269,33.46h.06V0H269A268.27,268.27,0,0,0,166.11,20.42l12.81,30.92A234.74,234.74,0,0,1,269,33.46Z" transform="translate(0 23.49)"/><path class="cls-4" d="M358.56,51.11,371.37,20.2A268.35,268.35,0,0,0,269.05,0V33.46A235,235,0,0,1,358.56,51.11Z" transform="translate(0 23.49)"/><path class="cls-3" d="M33.46,269a234.74,234.74,0,0,1,17.88-90.1L20.42,166.11A268.27,268.27,0,0,0,0,269v.13H33.46Z" transform="translate(0 23.49)"/><path class="cls-5" d="M33.46,269.11H0A268.24,268.24,0,0,0,20.49,372.05L51.4,359.24A234.22,234.22,0,0,1,33.46,269.11Z" transform="translate(0 23.49)"/><path class="cls-6" d="M51.4,359.28,20.49,372.09a269.44,269.44,0,0,0,57.84,86.66L102,435.09A235.9,235.9,0,0,1,51.4,359.28Z" transform="translate(0 23.49)"/><path class="cls-6" d="M102,435.09,78.33,458.75a268.83,268.83,0,0,0,87.09,58.56l12.82-30.91A235.17,235.17,0,0,1,102,435.09Z" transform="translate(0 23.49)"/><path class="cls-4" d="M435.09,102l23.66-23.66A269.58,269.58,0,0,0,371.37,20.2L358.56,51.11A236,236,0,0,1,435.09,102Z" transform="translate(0 23.49)"/><path class="cls-4" d="M486.69,179l30.92-12.81A269.88,269.88,0,0,0,458.75,78.3L435.09,102A236.64,236.64,0,0,1,486.69,179Z" transform="translate(0 23.49)"/><path class="cls-4" d="M504.57,269v.13H538V269a268.43,268.43,0,0,0-20.39-102.85L486.73,179A234.93,234.93,0,0,1,504.57,269Z" transform="translate(0 23.49)"/><path class="cls-4" d="M504.57,269.11a234.76,234.76,0,0,1-17.91,90.07L517.58,372A268.25,268.25,0,0,0,538,269.11Z" transform="translate(0 23.49)"/><path class="cls-7" d="M269,504.57a234.79,234.79,0,0,1-90.75-18.14l-12.81,30.92A268.39,268.39,0,0,0,269,538h.06V504.57Z" transform="translate(0 23.49)"/><path class="cls-7" d="M269.05,504.57V538A268.44,268.44,0,0,0,372,517.58l-12.81-30.92A235.4,235.4,0,0,1,269.05,504.57Z" transform="translate(0 23.49)"/><path class="cls-7" d="M435.52,435.58l23.66,23.66A269.92,269.92,0,0,0,517.54,372l-30.91-12.81A235.31,235.31,0,0,1,435.52,435.58Z" transform="translate(0 23.49)"/><path class="cls-7" d="M359.21,486.63,372,517.54a269.18,269.18,0,0,0,87.19-58.3l-23.66-23.66A236.12,236.12,0,0,1,359.21,486.63Z" transform="translate(0 23.49)"/><path class="cls-3" d="M199.67,101.47l-13-31.31a215.44,215.44,0,0,0-69.87,46.7l24,24A182.29,182.29,0,0,1,199.67,101.47Z" transform="translate(0 23.49)"/><path class="cls-3" d="M140.78,140.85l-24-24A215.09,215.09,0,0,0,70.2,186.7l31.27,13A181.88,181.88,0,0,1,140.78,140.85Z" transform="translate(0 23.49)"/><path class="cls-3" d="M269,87.71h.06V53.86H269A214,214,0,0,0,186.73,70.2l13,31.3A180.52,180.52,0,0,1,269,87.71Z" transform="translate(0 23.49)"/><path class="cls-4" d="M337.77,101.27l13-31.27a214.22,214.22,0,0,0-81.67-16.11V87.74A180.71,180.71,0,0,1,337.77,101.27Z" transform="translate(0 23.49)"/><path class="cls-3" d="M87.71,269a180.58,180.58,0,0,1,13.76-69.35l-31.27-13A214,214,0,0,0,53.86,269v.13H87.71S87.71,269.05,87.71,269Z" transform="translate(0 23.49)"/><path class="cls-5" d="M87.74,269.11H53.86a214.26,214.26,0,0,0,16.4,82.32l31.28-13A180.38,180.38,0,0,1,87.74,269.11Z" transform="translate(0 23.49)"/><path class="cls-6" d="M101.53,338.49l-31.27,13a215.12,215.12,0,0,0,46.18,69.18l23.95-23.95A181.68,181.68,0,0,1,101.53,338.49Z" transform="translate(0 23.49)"/><path class="cls-6" d="M140.36,396.73l-24,23.95A215.7,215.7,0,0,0,186,467.58l13-31.28A182.6,182.6,0,0,1,140.36,396.73Z" transform="translate(0 23.49)"/><path class="cls-4" d="M396.73,140.36l23.95-24A215.38,215.38,0,0,0,350.75,70l-13,31.27A181.91,181.91,0,0,1,396.73,140.36Z" transform="translate(0 23.49)"/><path class="cls-4" d="M420.65,116.44,396.7,140.39a181.94,181.94,0,0,1,39.83,59.38l31.28-13A214.48,214.48,0,0,0,420.65,116.44Z" transform="translate(0 23.49)"/><path class="cls-4" d="M450.29,269v.13h33.85V269a214.46,214.46,0,0,0-16.3-82.23l-31.28,13A180.5,180.5,0,0,1,450.29,269Z" transform="translate(0 23.49)"/><path class="cls-4" d="M436.5,338.43l31.27,13a214.6,214.6,0,0,0,16.37-82.25H450.29A181.22,181.22,0,0,1,436.5,338.43Z" transform="translate(0 23.49)"/><path class="cls-7" d="M269,450.29a180.86,180.86,0,0,1-70-14l-13,31.27A214.24,214.24,0,0,0,269,484.14h.07V450.29Z" transform="translate(0 23.49)"/><path class="cls-7" d="M269.05,450.29v33.85a214.36,214.36,0,0,0,82.35-16.37l-13-31.27A181,181,0,0,1,269.05,450.29Z" transform="translate(0 23.49)"/><path class="cls-7" d="M397.15,397.22l24,23.95a215.8,215.8,0,0,0,46.66-69.77l-31.27-13A182.13,182.13,0,0,1,397.15,397.22Z" transform="translate(0 23.49)"/><path class="cls-7" d="M338.43,436.5l13,31.27a215.38,215.38,0,0,0,69.71-46.6l-24-23.95A181.53,181.53,0,0,1,338.43,436.5Z" transform="translate(0 23.49)"/><path class="cls-3" d="M269,141.31h.06V106.7H269A161.36,161.36,0,0,0,207,119l13.23,32A127.05,127.05,0,0,1,269,141.31Z" transform="translate(0 23.49)"/><path class="cls-4" d="M269.05,141.31a127.08,127.08,0,0,1,48.2,9.47l13.24-32a161.51,161.51,0,0,0-61.44-12.09Z" transform="translate(0 23.49)"/><path class="cls-3" d="M220.19,151,207,119a162.25,162.25,0,0,0-52.75,35.26l24.48,24.48A127.35,127.35,0,0,1,220.19,151Z" transform="translate(0 23.49)"/><path class="cls-3" d="M178.69,178.76l-24.48-24.48A163.07,163.07,0,0,0,119,206.93l32,13.23A127.89,127.89,0,0,1,178.69,178.76Z" transform="translate(0 23.49)"/><path class="cls-3" d="M141.31,269a127.16,127.16,0,0,1,9.7-48.83L119,207A161.51,161.51,0,0,0,106.7,269v.13h34.61C141.34,269.08,141.31,269.05,141.31,269Z" transform="translate(0 23.49)"/><path class="cls-5" d="M141.34,269.11H106.7a161.51,161.51,0,0,0,12.38,62.09l32-13.23A126.45,126.45,0,0,1,141.34,269.11Z" transform="translate(0 23.49)"/><path class="cls-6" d="M151.08,318l-32,13.24a162.82,162.82,0,0,0,34.71,52.06l24.48-24.48A127.5,127.5,0,0,1,151.08,318Z" transform="translate(0 23.49)"/><path class="cls-6" d="M178.27,358.82,153.79,383.3a162.65,162.65,0,0,0,52.48,35.42l13.24-32A127.53,127.53,0,0,1,178.27,358.82Z" transform="translate(0 23.49)"/><path class="cls-4" d="M358.82,178.27l24.48-24.48a163.1,163.1,0,0,0-52.78-35l-13.24,32A128.4,128.4,0,0,1,358.82,178.27Z" transform="translate(0 23.49)"/><path class="cls-4" d="M387,220.26,419,207a162.43,162.43,0,0,0-35.72-53.2L358.82,178.3A127,127,0,0,1,387,220.26Z" transform="translate(0 23.49)"/><path class="cls-4" d="M396.7,269v.13h34.6V269A161.82,161.82,0,0,0,419,207l-32,13.24A127.21,127.21,0,0,1,396.7,269Z" transform="translate(0 23.49)"/><path class="cls-4" d="M387,317.9l32,13.24a161.9,161.9,0,0,0,12.35-62H396.7A127.7,127.7,0,0,1,387,317.9Z" transform="translate(0 23.49)"/><path class="cls-7" d="M269,396.7a127.18,127.18,0,0,1-49.48-9.94l-13.23,32A161.54,161.54,0,0,0,269,431.33h.06v-34.6A.09.09,0,0,0,269,396.7Z" transform="translate(0 23.49)"/><path class="cls-7" d="M269.05,396.7v34.6A161.83,161.83,0,0,0,331.17,419l-13.23-32A127.49,127.49,0,0,1,269.05,396.7Z" transform="translate(0 23.49)"/><path class="cls-7" d="M359.24,359.31l24.48,24.48A162.37,162.37,0,0,0,419,331.14L387,317.9A127.25,127.25,0,0,1,359.24,359.31Z" transform="translate(0 23.49)"/><path class="cls-7" d="M317.94,387l13.23,32a162,162,0,0,0,52.55-35.13l-24.47-24.48A128.52,128.52,0,0,1,317.94,387Z" transform="translate(0 23.49)"/><path class="cls-3" d="M192.41,192.48l24.09,24.09a74.27,74.27,0,0,1,24.15-16.15l-13-31.47A108.39,108.39,0,0,0,192.41,192.48Z" transform="translate(0 23.49)"/><path class="cls-3" d="M216.5,216.57l-24.09-24.09A108.64,108.64,0,0,0,169,227.61l31.47,13A74.21,74.21,0,0,1,216.5,216.57Z" transform="translate(0 23.49)"/><path class="cls-3" d="M269,194.8h.06V160.72H269a108.49,108.49,0,0,0-41.41,8.2l13,31.47A74.21,74.21,0,0,1,269,194.8Z" transform="translate(0 23.49)"/><path class="cls-4" d="M296.8,200.19l13-31.47a107.73,107.73,0,0,0-40.78-8V194.8A73.87,73.87,0,0,1,296.8,200.19Z" transform="translate(0 23.49)"/><path class="cls-3" d="M194.8,269a73.89,73.89,0,0,1,5.62-28.37l-31.47-13a107.78,107.78,0,0,0-8.2,41.41v.13H194.8Z" transform="translate(0 23.49)"/><path class="cls-5" d="M194.8,269.11H160.72A108.46,108.46,0,0,0,169,310.55l31.47-13A73.8,73.8,0,0,1,194.8,269.11Z" transform="translate(0 23.49)"/><path class="cls-6" d="M200.49,297.51l-31.47,13a108.82,108.82,0,0,0,23,34.54L216.07,321A73.73,73.73,0,0,1,200.49,297.51Z" transform="translate(0 23.49)"/><path class="cls-6" d="M216.07,321,192,345.09a108.59,108.59,0,0,0,35,23.73l13-31.47A74.49,74.49,0,0,1,216.07,321Z" transform="translate(0 23.49)"/><path class="cls-4" d="M321,216.08,345.1,192a108.56,108.56,0,0,0-35.27-23.27l-13,31.47A74.67,74.67,0,0,1,321,216.08Z" transform="translate(0 23.49)"/><path class="cls-4" d="M337.61,240.72l31.47-13a108.41,108.41,0,0,0-24-35.69L321,216.08A73.39,73.39,0,0,1,337.61,240.72Z" transform="translate(0 23.49)"/><path class="cls-4" d="M343.23,269v.13h34V269a107.35,107.35,0,0,0-8.2-41.34l-31.47,13A73.39,73.39,0,0,1,343.23,269Z" transform="translate(0 23.49)"/><path class="cls-4" d="M337.54,297.45l31.47,13a107.46,107.46,0,0,0,8.24-41.38H343.2A73.65,73.65,0,0,1,337.54,297.45Z" transform="translate(0 23.49)"/><path class="cls-7" d="M269,343.23a74,74,0,0,1-29-5.88l-13,31.47A107.81,107.81,0,0,0,269,377.28h.06v-34Z" transform="translate(0 23.49)"/><path class="cls-7" d="M269.05,343.23v34a108.1,108.1,0,0,0,41.44-8.23l-13-31.47A74.58,74.58,0,0,1,269.05,343.23Z" transform="translate(0 23.49)"/><path class="cls-7" d="M321.43,321.5l24.09,24.08A109,109,0,0,0,369,310.49l-31.48-13A73.37,73.37,0,0,1,321.43,321.5Z" transform="translate(0 23.49)"/><path class="cls-7" d="M297.45,337.55l13,31.47a108.64,108.64,0,0,0,35-23.44L321.43,321.5A73.59,73.59,0,0,1,297.45,337.55Z" transform="translate(0 23.49)"/><path class="cls-3" d="M261,249.51l-12.94-31.25a54.66,54.66,0,0,0-17.88,12l23.89,23.89A21.72,21.72,0,0,1,261,249.51Z" transform="translate(0 23.49)"/><path class="cls-3" d="M254.08,254.15,230.2,230.26a54.3,54.3,0,0,0-11.87,17.81L249.57,261A20,20,0,0,1,254.08,254.15Z" transform="translate(0 23.49)"/><path class="cls-3" d="M269,247.94h.06V214.12H269a55.31,55.31,0,0,0-20.95,4.14L261,249.51A20.8,20.8,0,0,1,269,247.94Z" transform="translate(0 23.49)"/><path class="cls-4" d="M276.43,249.31l12.95-31.24a54.49,54.49,0,0,0-20.33-3.95v33.79A21.14,21.14,0,0,1,276.43,249.31Z" transform="translate(0 23.49)"/><path class="cls-3" d="M214.15,269.11h33.79V269a20.26,20.26,0,0,1,1.6-8L218.3,248A54.54,54.54,0,0,0,214.15,269C214.12,269.05,214.15,269.08,214.15,269.11Z" transform="translate(0 23.49)"/><path class="cls-5" d="M247.94,269.11H214.15a54.53,54.53,0,0,0,4.21,21l31.24-13A20.35,20.35,0,0,1,247.94,269.11Z" transform="translate(0 23.49)"/><path class="cls-6" d="M249.57,277.19l-31.24,12.94a54.18,54.18,0,0,0,11.41,17.19l23.92-23.89A21.47,21.47,0,0,1,249.57,277.19Z" transform="translate(0 23.49)"/><path class="cls-6" d="M253.66,283.43l-23.92,23.89a54.53,54.53,0,0,0,17.64,12.12l12.95-31.24A21.55,21.55,0,0,1,253.66,283.43Z" transform="translate(0 23.49)"/><path class="cls-4" d="M283.43,253.66l23.92-23.89a54.41,54.41,0,0,0-17.94-11.67l-13,31.24A21,21,0,0,1,283.43,253.66Z" transform="translate(0 23.49)"/><path class="cls-4" d="M288.53,261l31.24-12.94a55.07,55.07,0,0,0-12.42-18.36l-23.92,23.88A22.12,22.12,0,0,1,288.53,261Z" transform="translate(0 23.49)"/><path class="cls-4" d="M290.06,269v.13h33.79V269a54.25,54.25,0,0,0-4.15-20.89l-31.24,12.95A20.08,20.08,0,0,1,290.06,269Z" transform="translate(0 23.49)"/><path class="cls-4" d="M288.46,277.12l31.24,12.94a54.26,54.26,0,0,0,4.18-20.91H290.06A21.07,21.07,0,0,1,288.46,277.12Z" transform="translate(0 23.49)"/><path class="cls-7" d="M269,290.06a21.11,21.11,0,0,1-8.66-1.86l-13,31.24A54.79,54.79,0,0,0,269,323.89h.06V290.06Z" transform="translate(0 23.49)"/><path class="cls-7" d="M269.05,290.06v33.83a54.51,54.51,0,0,0,21-4.19l-12.94-31.24A21.08,21.08,0,0,1,269.05,290.06Z" transform="translate(0 23.49)"/><path class="cls-7" d="M283.85,283.92l23.89,23.89A55.4,55.4,0,0,0,319.67,290l-31.24-12.94A20.38,20.38,0,0,1,283.85,283.92Z" transform="translate(0 23.49)"/><path class="cls-7" d="M277.12,288.46l12.94,31.24a55.51,55.51,0,0,0,17.72-11.83L283.89,284A22.13,22.13,0,0,1,277.12,288.46Z" transform="translate(0 23.49)"/><rect class="cls-8" x="266.2" width="6.71" height="300.88"/></g></svg>