<svg width="234" height="46" viewBox="0 0 234 46" fill="none" xmlns="http://www.w3.org/2000/svg">
<path d="M40.2678 12.9184C40.4304 12.959 40.5388 13.081 40.5388 13.2436V16.2116C40.5388 16.2793 40.4982 16.3606 40.4439 16.4013C40.3897 16.442 40.322 16.4555 40.2542 16.442C39.8476 16.3335 39.4546 16.2251 38.9396 16.2793C38.262 16.3335 37.7606 16.6724 37.2321 17.0518V24.4378C37.2321 24.5327 37.1914 24.614 37.1372 24.6682C37.0694 24.736 36.9881 24.7631 36.9068 24.7631H34.0608C33.8711 24.7631 33.722 24.614 33.722 24.4243V13.1759C33.722 12.9861 33.8711 12.8371 34.0608 12.8371H36.3512C36.5273 12.8371 36.69 12.9455 36.7577 13.1081C36.9068 13.4876 37.0423 13.9483 37.1372 14.3685C37.1507 14.3549 37.1507 14.3414 37.1643 14.3414C37.7064 13.6637 38.2485 12.959 39.2378 12.8235C39.5902 12.7964 39.9832 12.8371 40.2678 12.9184ZM111.973 16.9163C111.973 14.0974 110.74 12.6609 108.3 12.6609C106.945 12.6609 106.01 13.2978 105.278 13.9212C105.197 13.6366 105.116 13.3656 105.021 13.1216C104.953 12.959 104.79 12.8506 104.614 12.8506H102.337C102.148 12.8506 101.999 12.9997 101.999 13.1894V24.4378C101.999 24.6276 102.148 24.7766 102.337 24.7766H105.183C105.373 24.7766 105.522 24.6276 105.522 24.4378V16.4962C105.739 16.2929 106.295 15.8457 107.026 15.8457C108.043 15.8457 108.49 16.4284 108.49 17.7294V24.4378C108.49 24.6276 108.639 24.7766 108.829 24.7766H111.661C111.851 24.7766 112 24.6276 112 24.4378C111.973 23.2994 111.973 19.1389 111.973 16.9163ZM88.3784 12.8506H85.5325C85.3427 12.8506 85.1937 12.9997 85.1937 13.1894V24.4378C85.1937 24.6276 85.3427 24.7766 85.5325 24.7766H88.3784C88.5682 24.7766 88.7173 24.6276 88.7173 24.4378V13.1894C88.7173 12.9997 88.5682 12.8506 88.3784 12.8506ZM87.9583 7.64652C87.7415 7.52455 87.484 7.44323 87.1723 7.41613C86.7928 7.38903 86.4676 7.42968 86.1559 7.5652C85.5189 7.83625 84.882 8.60873 85.0039 9.63871C85.0717 10.2215 85.3563 10.6958 85.8171 11.0346C86.1423 11.2785 86.5353 11.4005 86.9555 11.4005C86.969 11.4005 86.969 11.4005 86.9826 11.4005C87.2807 11.4005 87.5518 11.3463 87.7957 11.2514C88.5411 10.9397 89.0154 10.1401 88.9748 9.31345C88.9205 8.58163 88.5817 8.02598 87.9583 7.64652ZM30.0493 16.3335C30.7269 16.5368 31.3504 16.9434 31.7976 17.5126C32.3397 18.2038 32.6107 19.0711 32.6107 20.1011C32.6107 22.9877 30.6998 24.7766 27.6777 24.7766H21.6876C21.5927 24.7766 21.5114 24.736 21.4572 24.6818C21.3894 24.614 21.3623 24.5327 21.3623 24.4514V8.90688C21.3623 8.71715 21.5114 8.56808 21.7011 8.56808H27.4608C30.3475 8.56808 32.177 10.1401 32.177 12.6744C32.177 15.1816 30.8625 16.0218 30.0764 16.3064H30.0629C30.0493 16.3064 30.0358 16.32 30.0222 16.32C30.0222 16.32 30.0222 16.3335 30.0493 16.3335ZM25.1434 21.8087H26.8645C27.9894 21.8087 28.5857 21.0904 28.5857 19.7487C28.5857 18.5019 27.9081 17.7836 26.7019 17.7701H25.1298L25.1434 21.8087ZM26.8103 15.0732C27.8403 15.0732 28.396 14.4091 28.396 13.203C28.396 12.2001 27.7725 11.6309 26.6748 11.6309H25.1163V15.0732H26.8103ZM46.1901 12.6338C47.8977 12.6338 49.3072 13.2301 50.2694 14.3549C51.1909 15.4391 51.6788 16.9976 51.6788 18.8407C51.6788 22.4456 49.3749 25.0612 46.1901 25.0612C44.4825 25.0612 43.0731 24.4649 42.1109 23.3401C41.1893 22.2559 40.7014 20.6974 40.7014 18.8543C40.7014 15.2494 43.0189 12.6338 46.1901 12.6338ZM48.0332 18.8543C48.0332 16.6317 47.4098 15.6017 46.1901 15.6017C44.9704 15.6017 44.347 16.6181 44.347 18.8543C44.347 21.0904 44.9704 22.1068 46.1901 22.1068C47.4098 22.1068 48.0332 21.0769 48.0332 18.8543ZM100.725 12.8506C100.86 12.8913 100.955 13.0268 100.955 13.1759V15.6288C100.955 15.6966 100.928 15.7643 100.874 15.8186C100.819 15.8592 100.752 15.8863 100.684 15.8592C100.277 15.7643 99.803 15.7508 99.3829 15.7915C99.5184 16.1709 99.5862 16.5775 99.5862 16.9705C99.5862 19.6268 97.7295 21.3343 94.8564 21.3343C94.7751 21.3343 94.6938 21.3343 94.6125 21.3343H94.599C94.1924 21.3072 93.9078 21.3615 93.7723 21.497C93.7045 21.5512 93.6774 21.6325 93.6774 21.7274C93.6774 21.9713 93.7994 22.1746 94.7074 22.2152C94.7074 22.2152 94.8564 22.2152 96.4827 22.2966C99.2067 22.4321 100.589 23.6518 100.589 25.8744C100.589 26.945 100.128 27.9614 99.2745 28.6797C98.2445 29.5606 96.7131 30.0078 94.7345 30.0078C91.631 30.0078 89.693 28.8017 89.693 26.9314C89.693 25.8337 90.479 24.7902 91.5632 24.4107C90.8585 23.8822 90.5739 23.1368 90.5739 22.4998C90.5739 21.768 91.0211 21.0769 91.8072 20.5619C90.7094 19.8165 90.1131 18.5561 90.1131 16.9841C90.1131 14.3278 91.9834 12.6202 94.87 12.6202C95.9813 12.6202 97.1197 13.0132 97.9599 13.6908C98.5969 13.0945 99.3152 12.7828 100.088 12.7828C100.291 12.7693 100.521 12.7964 100.725 12.8506ZM93.6909 25.0883C93.0811 25.3865 92.7694 25.8202 92.7694 26.3487C92.7694 27.1889 93.4606 27.5684 94.8293 27.5684C96.3472 27.5684 97.1603 27.1618 97.1739 26.308C97.201 25.6033 96.6996 25.2374 95.6831 25.1832L93.6909 25.0883ZM96.2117 16.8892C96.2117 15.8321 95.6967 15.2087 94.8429 15.2087C93.9891 15.2087 93.4741 15.8321 93.4741 16.8892C93.4741 17.9463 93.9891 18.5697 94.8429 18.5697C95.6967 18.5697 96.2117 17.9327 96.2117 16.8892ZM57.3166 12.6609C60.4065 12.6609 61.7888 14.1245 61.7888 17.1196V24.4378C61.7888 24.6276 61.6397 24.7766 61.45 24.7766H59.2681C59.0919 24.7766 58.9293 24.6682 58.8615 24.5056C58.7938 24.3159 58.7125 24.099 58.6447 23.8686C58.0755 24.5327 57.0184 24.9799 56.002 24.9799C53.8201 24.9799 52.3429 23.435 52.3429 21.1446C52.3429 18.8001 54.1724 17.2822 57.0184 17.2822C57.4927 17.2822 57.94 17.2958 58.2923 17.3364L58.3059 17.0925C58.3059 16.1438 58.0077 15.5611 56.5305 15.5611C55.5006 15.5611 54.1589 16.0354 53.5355 16.3064C53.4677 16.3335 53.3728 16.3335 53.3051 16.2929C53.2373 16.2522 53.1967 16.1709 53.1967 16.0896V13.7586C53.1967 13.5824 53.2915 13.4334 53.4542 13.3656C54.2537 13.0268 56.002 12.6609 57.3166 12.6609ZM55.7716 20.9007C55.7716 21.4292 56.2053 21.9578 57.0455 21.9578C57.4927 21.9578 57.9264 21.7951 58.2923 21.4834V19.8571C58.1026 19.83 57.818 19.83 57.5063 19.83C56.4899 19.8165 55.7716 20.2637 55.7716 20.9007ZM73.3489 8.1073C73.5387 8.1073 73.6878 8.25637 73.6878 8.4461V24.4378C73.6878 24.6276 73.5387 24.7766 73.3489 24.7766H71.0451C70.8689 24.7766 70.7062 24.6682 70.6385 24.5056C70.5572 24.3159 70.4894 24.099 70.4216 23.8551C69.5678 24.7495 68.3888 25.0748 67.5621 25.0748C64.7974 25.0748 63.0763 22.6896 63.0763 18.8543C63.0763 15.0867 64.8381 12.6473 67.5621 12.6473C68.2262 12.6473 69.229 12.8506 70.0693 13.4334V8.43255C70.0693 8.24282 70.2184 8.09374 70.4081 8.09374L73.3489 8.1073ZM68.443 21.9713C69.2019 21.9713 69.7847 21.4021 70.0828 20.8736V16.8079C69.7847 16.2793 69.2019 15.7237 68.443 15.7237C67.3046 15.7237 66.749 16.7401 66.749 18.8272C66.7354 20.9413 67.2911 21.9713 68.443 21.9713ZM80.8163 17.4448C79.583 16.9027 78.6479 16.6181 78.6479 16.0896C78.6479 15.8186 78.9189 15.5069 79.7727 15.5069C80.8569 15.5069 81.914 15.8186 83.1744 16.4149C83.337 16.4962 83.5132 16.3742 83.5132 16.198V13.7044C83.5132 13.5418 83.4183 13.4062 83.2828 13.3385C82.3883 12.9184 80.9924 12.6202 79.7727 12.6202C77.2113 12.6202 75.0836 13.7993 75.0836 16.2251C75.0836 18.1496 76.2627 19.2473 78.4582 20.1553C79.6237 20.6432 80.491 20.8871 80.4775 21.4428C80.4775 21.7138 80.2471 22.0391 79.1358 22.0391C77.9974 22.0391 76.6693 21.6054 75.5986 21.0769C75.436 20.9955 75.2463 21.1175 75.2463 21.2937V23.8686C75.2463 24.0313 75.3411 24.1668 75.4767 24.2345C76.5337 24.7495 77.8483 24.9799 79.1222 24.9799C81.7378 24.9799 84.0417 23.7467 84.0417 21.3072C84.0553 19.3693 82.9304 18.3799 80.8163 17.4448Z" fill="#001464"/>
<path d="M10.5301 10.6142L5.27185 7.57849L0.962214 5.08487C0.542093 4.84093 0 5.15263 0 5.64051V10.6142V16.6856V22.7571V27.7308C0 28.2187 0.528541 28.5304 0.962214 28.2864L5.27185 25.8063L10.5301 22.7706L15.3683 19.9789C15.6258 19.8298 15.7884 19.5452 15.7884 19.247V14.1378C15.7884 13.8397 15.6258 13.5551 15.3683 13.406L10.5301 10.6142ZM5.25829 19.7214V13.6499L10.5166 16.6856L5.25829 19.7214Z" fill="url(#paint0_linear_3524_3703)"/>
<path d="M214.379 18.7769H153V29.2047H214.379V18.7769Z" fill="#73FBFB"/>
<path d="M234 31.8643H178.26V37.7664H234V31.8643Z" fill="#73FBFB"/>
<path fill-rule="evenodd" clip-rule="evenodd" d="M168.473 21.1797C168.473 21.2964 168.473 21.343 168.496 21.273V21.0631C168.473 20.9931 168.473 21.0631 168.473 21.1797Z" fill="#848484"/>
<path fill-rule="evenodd" clip-rule="evenodd" d="M166.818 25.3321C166.702 25.4488 166.632 25.5188 166.655 25.5188C166.679 25.5188 166.772 25.4254 166.865 25.3321C166.982 25.2155 167.051 25.1455 167.028 25.1455C167.005 25.1455 166.912 25.2155 166.818 25.3321Z" fill="#848484"/>
<path fill-rule="evenodd" clip-rule="evenodd" d="M157.404 26.8954H160.853C161.785 26.8954 161.016 26.8721 159.105 26.8721C157.194 26.8721 156.425 26.8954 157.404 26.8954Z" fill="#848484"/>
<path fill-rule="evenodd" clip-rule="evenodd" d="M168.426 5.43283C167.983 2.5401 166.585 0.930432 163.999 0.440534C163.276 0.300563 162.274 0.253906 158.895 0.253906H155.68V26.8484H159.292C161.529 26.8484 163.067 26.825 163.323 26.8017C166.306 26.4751 167.914 24.8888 168.426 21.8561C168.496 21.2262 168.519 6.10936 168.426 5.43283ZM164.325 20.9463C164.208 22.1594 163.789 22.7426 162.88 22.9992C162.717 23.0458 162.344 23.0692 161.272 23.0925L159.874 23.1158V4.07978H161.133C161.832 4.07978 162.531 4.10311 162.67 4.12643C163.486 4.24308 164.045 4.80296 164.255 5.71277C164.348 6.0627 164.395 20.1064 164.325 20.9463Z" fill="black"/>
<path fill-rule="evenodd" clip-rule="evenodd" d="M226.986 13.1776C226.986 13.1776 231.297 0.416935 231.32 0.370278L227.498 0.300293C227.498 0.300293 224.283 10.0283 224.259 10.0283C224.236 10.0283 221.114 0.323621 221.114 0.323621H216.826C216.826 0.34695 221.16 13.1776 221.16 13.1776C221.16 13.1776 216.523 26.7781 216.523 26.8015C216.523 26.8248 220.368 26.8248 220.368 26.8248L223.84 16.3503C223.863 16.3736 227.265 26.8248 227.265 26.8248C227.265 26.8248 231.646 26.8481 231.646 26.8248C231.67 26.8481 226.986 13.1776 226.986 13.1776Z" fill="#73FBFB"/>
<path fill-rule="evenodd" clip-rule="evenodd" d="M183.457 5.64259C183.2 2.72652 181.592 0.720275 179.076 0.183719C178.283 0.02042 176.676 -0.0495654 175.976 0.0437485C173.04 0.510318 171.432 2.11998 170.943 5.0827C170.827 5.78256 170.827 21.296 170.943 22.0192C171.502 25.4018 173.623 27.1748 177.165 27.1748C180.707 27.1748 182.711 25.5185 183.317 22.4391C183.48 21.6226 183.48 21.2027 183.48 13.5976C183.503 9.04854 183.48 5.94586 183.457 5.64259ZM179.239 21.7392C178.959 22.859 178.307 23.3722 177.165 23.3722C175.86 23.3722 175.207 22.7424 175.021 21.3193C174.951 20.8294 174.951 6.36577 175.021 5.80588C175.207 4.21955 176.443 3.40305 177.934 3.86962C178.68 4.10291 179.122 4.70945 179.262 5.71257C179.379 6.41243 179.355 21.296 179.239 21.7392Z" fill="black"/>
<path fill-rule="evenodd" clip-rule="evenodd" d="M198.463 5.40954C198.067 2.30685 196.413 0.533883 193.477 0.0673129C192.894 -0.026001 191.403 -0.026001 190.797 0.0906414C187.907 0.58054 186.229 2.49348 185.926 5.64282C185.857 6.27269 185.857 20.853 185.926 21.5295C186.253 25.1688 188.49 27.175 192.218 27.175C195.947 27.175 198.044 25.2854 198.487 21.7628C198.556 20.9463 198.556 6.2027 198.463 5.40954ZM194.339 21.2262C194.199 22.6959 193.523 23.3725 192.195 23.3725C191.03 23.3725 190.377 22.8359 190.098 21.6928C190.028 21.3895 190.028 20.783 190.028 13.5512V5.73613L190.121 5.38621C190.47 4.10314 191.426 3.54326 192.777 3.84653C193.523 4.00983 193.989 4.4764 194.245 5.36288C194.362 5.71281 194.432 20.1998 194.339 21.2262Z" fill="black"/>
<path fill-rule="evenodd" clip-rule="evenodd" d="M201.237 13.5746V26.8718H205.384V15.4875H210.138V26.8718H214.379V0.277344H210.185V11.6616H205.431V0.277344H201.283V13.5746" fill="black"/>
<path d="M155.68 33.8701H156.705C157.567 33.8701 157.917 34.2667 157.917 35.0132V35.1998C157.917 35.923 157.66 36.1097 157.451 36.203C157.684 36.2963 158.01 36.4829 158.01 37.2061V37.5793C158.01 38.4192 157.66 38.8857 156.775 38.8857H155.68V33.8701ZM156.612 35.923C157.055 35.923 157.171 35.7831 157.171 35.2932V35.1065C157.171 34.6866 157.031 34.5233 156.658 34.5233H156.425V35.923H156.612ZM156.425 38.2792H156.682C157.124 38.2792 157.241 38.0926 157.241 37.6027V37.2761C157.241 36.7862 157.124 36.5762 156.612 36.5762H156.402V38.2792H156.425Z" fill="#73FBFB"/>
<path d="M159.268 36.6462V38.8857H158.499V33.8701H159.571C160.34 33.8701 160.783 34.1734 160.783 35.0832V35.2698C160.783 36.0397 160.457 36.2496 160.27 36.3196C160.573 36.4596 160.736 36.6695 160.736 37.3461C160.736 37.766 160.736 38.5825 160.783 38.8857H160.037C159.967 38.5825 159.991 37.766 159.991 37.3927C159.991 36.7862 159.921 36.6462 159.455 36.6462H159.268ZM159.268 36.0163H159.455C159.874 36.0163 160.014 35.853 160.014 35.3165V35.1532C160.014 34.7566 159.944 34.5233 159.501 34.5233H159.292V36.0163H159.268Z" fill="#73FBFB"/>
<path d="M163.696 35.2V37.5562C163.696 38.5127 163.276 38.9792 162.437 38.9792C161.599 38.9792 161.249 38.5127 161.249 37.5795V35.2C161.249 34.2435 161.738 33.8003 162.484 33.8003C163.253 33.8003 163.696 34.2435 163.696 35.2ZM162.041 35.13V37.6495C162.041 38.0694 162.181 38.256 162.461 38.256C162.764 38.256 162.904 38.0694 162.904 37.6262V35.1067C162.904 34.7101 162.787 34.4768 162.461 34.4768C162.204 34.5001 162.041 34.7101 162.041 35.13Z" fill="#73FBFB"/>
<path d="M165.024 33.8701V37.696C165.024 38.0692 165.141 38.2792 165.444 38.2792C165.747 38.2792 165.84 38.0459 165.84 37.696V33.8701H166.609V37.6727C166.609 38.4658 166.259 38.9557 165.42 38.9557C164.628 38.9557 164.232 38.5125 164.232 37.6727V33.8701H165.024Z" fill="#73FBFB"/>
<path d="M169.545 38.9092H168.939C168.916 38.8159 168.892 38.6293 168.892 38.536C168.753 38.8626 168.473 38.9792 168.147 38.9792C167.401 38.9792 167.168 38.4427 167.168 37.5795V35.2233C167.168 34.4068 167.494 33.8003 168.356 33.8003C169.405 33.8003 169.522 34.5701 169.522 35.1067V35.27H168.753V35.06C168.753 34.8034 168.706 34.4768 168.356 34.4768C168.077 34.4768 167.96 34.6634 167.96 35.0834V37.6495C167.96 38.0461 168.077 38.256 168.356 38.256C168.683 38.256 168.776 37.9761 168.776 37.4629V36.7397H168.333V36.0632H169.545V38.9092Z" fill="#73FBFB"/>
<path d="M170.197 33.8701H170.966V35.853H171.805V33.8701H172.574V38.9091H171.805V36.5762H170.966V38.9091H170.197V33.8701Z" fill="#73FBFB"/>
<path d="M173.716 34.5933H172.9V33.8701H175.301V34.5933H174.485V38.9091H173.716V34.5933Z" fill="#73FBFB"/>
<path d="M156.425 41.1482H155.68V40.4717H157.893V41.1482H157.148V45.1374H156.425V41.1482Z" fill="#73FBFB"/>
<path d="M160.364 41.7316V43.9011C160.364 44.7876 159.991 45.2075 159.198 45.2075C158.453 45.2075 158.103 44.7643 158.103 43.9011V41.7082C158.103 40.8218 158.546 40.4019 159.245 40.4019C159.944 40.4252 160.364 40.8218 160.364 41.7316ZM158.826 41.6616V43.9944C158.826 44.391 158.965 44.5543 159.222 44.5543C159.501 44.5543 159.618 44.391 159.618 43.9711V41.6383C159.618 41.265 159.501 41.0551 159.222 41.0551C158.965 41.0784 158.826 41.265 158.826 41.6616Z" fill="#73FBFB"/>
<path d="M162.321 45.1374V43.4811C162.321 43.4111 162.321 43.3877 162.298 43.3178L161.436 40.4717H162.228C162.414 41.2182 162.624 42.0813 162.694 42.5946C162.787 42.0347 162.997 41.2182 163.16 40.4717H163.929L163.043 43.3877C163.043 43.4111 163.02 43.4577 163.02 43.5744V45.1374H162.321Z" fill="#73FBFB"/>
<path d="M166.352 41.7316V43.9011C166.352 44.7876 165.98 45.2075 165.187 45.2075C164.442 45.2075 164.092 44.7643 164.092 43.9011V41.7082C164.092 40.8218 164.535 40.4019 165.234 40.4019C165.956 40.4252 166.352 40.8218 166.352 41.7316ZM164.838 41.6616V43.9944C164.838 44.391 164.978 44.5543 165.234 44.5543C165.514 44.5543 165.63 44.391 165.63 43.9711V41.6383C165.63 41.265 165.514 41.0551 165.234 41.0551C164.978 41.0784 164.838 41.265 164.838 41.6616Z" fill="#73FBFB"/>
<path d="M167.588 40.4951V44.041C167.588 44.391 167.704 44.5776 167.984 44.5776C168.263 44.5776 168.356 44.3676 168.356 44.041V40.4951H169.079V44.0177C169.079 44.7409 168.753 45.2075 167.984 45.2075C167.215 45.2075 166.888 44.8109 166.888 44.0177V40.4951H167.588Z" fill="#73FBFB"/>
<path d="M170.57 40.4951H171.525C172.341 40.4951 172.644 40.8684 172.644 41.5449V41.7082C172.644 42.3614 172.411 42.548 172.225 42.6413C172.434 42.7347 172.737 42.898 172.737 43.5745V43.9244C172.737 44.7176 172.411 45.1142 171.595 45.1142H170.57V40.4951ZM171.456 42.3847C171.852 42.3847 171.968 42.2681 171.968 41.8015V41.6149C171.968 41.2183 171.828 41.0783 171.479 41.0783H171.246V42.3847H171.456ZM171.269 44.5543H171.502C171.922 44.5543 172.015 44.3676 172.015 43.9244V43.6211C172.015 43.1779 171.898 42.9679 171.432 42.9679H171.246V44.5543H171.269Z" fill="#73FBFB"/>
<path d="M173.693 45.1374V43.4811C173.693 43.4111 173.693 43.3877 173.669 43.3178L172.807 40.4717H173.599C173.786 41.2182 173.996 42.0813 174.065 42.5946C174.159 42.0347 174.368 41.2182 174.532 40.4717H175.301L174.415 43.3877C174.415 43.4111 174.392 43.4577 174.392 43.5744V45.1374H173.693Z" fill="#73FBFB"/>
<path d="M178.26 33.8701H180.567C182.524 33.8701 183.27 34.7799 183.27 36.4363V36.8562C183.27 38.4658 182.711 38.9091 182.221 39.119C182.734 39.329 183.48 39.7489 183.48 41.3819V42.245C183.48 44.158 182.688 45.1611 180.73 45.1611H178.26V33.8701ZM180.381 38.4658C181.359 38.4658 181.639 38.1626 181.639 37.0428V36.5996C181.639 35.6664 181.313 35.2932 180.474 35.2932H179.938V38.4425H180.381V38.4658ZM179.938 43.7381H180.52C181.522 43.7381 181.779 43.2948 181.779 42.1984V41.4519C181.779 40.3554 181.499 39.8889 180.404 39.8889H179.938V43.7381Z" fill="black"/>
<path d="M186.346 40.0988V45.1378H184.598V33.8701H186.999C188.723 33.8701 189.725 34.5466 189.725 36.5996V37.0195C189.725 38.7458 189.003 39.189 188.583 39.3756C189.236 39.6789 189.608 40.1688 189.608 41.6852C189.608 42.6416 189.585 44.4613 189.702 45.1611H188.024C187.884 44.4846 187.907 42.6183 187.907 41.8018C187.907 40.4254 187.721 40.0988 186.719 40.0988H186.346ZM186.346 38.6758H186.742C187.651 38.6758 188.001 38.3259 188.001 37.1128V36.7162C188.001 35.853 187.814 35.3165 186.835 35.3165H186.346V38.6758Z" fill="black"/>
<path d="M196.273 36.8564V42.1286C196.273 44.2982 195.364 45.3246 193.453 45.3246C191.543 45.3246 190.797 44.2748 190.797 42.1753V36.8564C190.797 34.6868 191.892 33.707 193.57 33.707C195.248 33.707 196.273 34.6868 196.273 36.8564ZM192.568 36.6931V42.3619C192.568 43.295 192.917 43.7383 193.523 43.7383C194.199 43.7383 194.502 43.3184 194.502 42.3386V36.6697C194.502 35.7833 194.222 35.27 193.523 35.27C192.894 35.2934 192.568 35.7366 192.568 36.6931Z" fill="black"/>
<path d="M199.023 42.1288L198.627 45.1382H196.856L198.673 33.8472H201.143L203.031 45.1382H201.213L200.771 42.1288H199.023ZM200.561 40.5424C200.305 38.6295 200.048 36.8099 199.932 35.5268H199.862C199.815 36.46 199.466 38.8628 199.256 40.5424H200.561Z" fill="black"/>
<path d="M203.846 33.8701H206.27C208.67 33.8701 209.253 35.1065 209.253 37.2061V41.5452C209.253 43.2715 208.95 45.1611 206.27 45.1611H203.87V33.8701H203.846ZM205.594 43.6681H206.153C207.295 43.6681 207.482 42.9216 207.482 41.7551V37.0428C207.482 36.0163 207.295 35.3398 206.153 35.3398H205.617V43.6681H205.594Z" fill="black"/>
<path d="M211.839 41.8252V42.5251C211.839 43.3649 212.095 43.8315 212.748 43.8315C213.4 43.8315 213.61 43.1783 213.61 42.4551C213.61 41.242 213.354 40.8688 212.142 39.9123C210.93 38.9558 210.278 38.3493 210.278 36.6696C210.278 35.1766 210.721 33.6836 212.771 33.6836C214.822 33.6836 215.171 35.1766 215.171 36.3897V36.9962H213.447V36.4364C213.447 35.6432 213.307 35.1766 212.748 35.1766C212.189 35.1766 212.025 35.6665 212.025 36.413C212.025 37.2062 212.165 37.6028 213.167 38.326C214.845 39.5857 215.381 40.3089 215.381 42.1985C215.381 43.8082 214.822 45.3245 212.725 45.3245C210.627 45.3245 210.138 43.9948 210.138 42.5018V41.8252H211.839Z" fill="black"/>
<path d="M218.178 33.8701V45.1611H216.43V33.8701H218.178Z" fill="black"/>
<path d="M224.795 45.1613H223.444C223.397 44.9514 223.374 44.5548 223.351 44.3215C223.048 45.068 222.395 45.3246 221.649 45.3246C219.995 45.3246 219.459 44.1115 219.459 42.1986V36.903C219.459 35.0601 220.181 33.707 222.139 33.707C224.516 33.707 224.749 35.4567 224.749 36.6697V37.043H223.001V36.5998C223.001 35.9932 222.908 35.3167 222.115 35.3167C221.486 35.3167 221.207 35.7599 221.207 36.6464V42.4319C221.207 43.3417 221.463 43.8083 222.092 43.8083C222.838 43.8083 223.024 43.1784 223.024 42.012V40.3556H222.046V38.8626H224.772V45.1613H224.795Z" fill="black"/>
<path d="M226.217 45.1611V33.8701H228.221C228.664 35.4565 230.015 41.032 230.132 41.6385H230.155C230.085 40.2621 230.062 38.6525 230.062 36.8095V33.8701H231.67V45.1611H229.736C229.386 43.8081 227.872 37.626 227.778 37.1594H227.755C227.848 38.5358 227.825 40.0522 227.825 42.0817V45.1611H226.217Z" fill="black"/>
<mask id="mask0_3524_3703" style="mask-type:alpha" maskUnits="userSpaceOnUse" x="121" y="10" width="18" height="18">
<rect x="121" y="10" width="18" height="18" fill="#D9D9D9"/>
</mask>
<g mask="url(#mask0_3524_3703)">
<path d="M125.8 24.8504L124.15 23.2004L128.35 19.0004L124.15 14.8004L125.8 13.1504L130 17.3504L134.2 13.1504L135.85 14.8004L131.65 19.0004L135.85 23.2004L134.2 24.8504L130 20.6504L125.8 24.8504Z" fill="#263F5D"/>
</g>
<defs>
<linearGradient id="paint0_linear_3524_3703" x1="7.89422" y1="28.3" x2="7.89422" y2="4.99354" gradientUnits="userSpaceOnUse">
<stop offset="0.03" stop-color="#FF0000"/>
<stop offset="0.6" stop-color="#0505A9"/>
<stop offset="0.6867" stop-color="#0539C0"/>
<stop offset="0.8236" stop-color="#0585E2"/>
<stop offset="0.9215" stop-color="#05B6F7"/>
<stop offset="0.97" stop-color="#05C8FF"/>
</linearGradient>
</defs>
</svg>
