<svg id="Layer_1" data-name="Layer 1" xmlns="http://www.w3.org/2000/svg" xmlns:xlink="http://www.w3.org/1999/xlink" viewBox="0 0 263.37 365.47"><defs><style>.cls-1{fill:#c9e9f0;}.cls-2{fill:none;}.cls-3{fill:url(#linear-gradient);}</style><linearGradient id="linear-gradient" x1="495.02" y1="399.27" x2="593.13" y2="442.99" gradientTransform="matrix(0.62, 0.79, 0.79, -0.62, -396.72, 203.95)" gradientUnits="userSpaceOnUse"><stop offset="0" stop-color="#00c8ff"/><stop offset="0.53" stop-color="#0500a9"/><stop offset="0.98" stop-color="red"/></linearGradient></defs><title>buy_blobs_01_v2</title><path class="cls-1" d="M446.2,100.47A88.87,88.87,0,0,0,321.43,85.31L201.75,179.06V404.87l229.3-179.63A88.86,88.86,0,0,0,446.2,100.47Z" transform="translate(-201.75 -66.39)"/><path class="cls-2" d="M201.75,379.42l95.15-74.53a20.65,20.65,0,0,1,29,3.51h0a20.64,20.64,0,0,1-3.52,29L201.75,431.86" transform="translate(-201.75 -66.39)"/><path class="cls-3" d="M325.88,308.41h0a20.65,20.65,0,0,0-29-3.51l-95.15,74.53v52.44l120.61-94.48A20.64,20.64,0,0,0,325.88,308.41Z" transform="translate(-201.75 -66.39)"/><line class="cls-2" y1="313.03" y2="365.47"/></svg>