<svg id="Capa_1" data-name="Capa 1" xmlns="http://www.w3.org/2000/svg" viewBox="0 0 1045.7 478.5"><path d="M276.4,148.5a6.1,6.1,0,0,1-6.2,6.1h-23a6.1,6.1,0,0,1-6.2-6.1h0V125.4a6.1,6.1,0,0,1,6.2-6.1h23a6.1,6.1,0,0,1,6.2,6.1h0Zm48.1-23a6.1,6.1,0,0,0-6.1-6.1H295.3a6.1,6.1,0,0,0-6.1,6.1h0v23a6.1,6.1,0,0,0,6.1,6.2h23.1a6.1,6.1,0,0,0,6.1-6.2h0Zm48.2,0a6.1,6.1,0,0,0-6.2-6.1h-23a6.1,6.1,0,0,0-6.2,6.1h0v23a6.2,6.2,0,0,0,6.2,6.2h23a6.2,6.2,0,0,0,6.2-6.2h0Zm-96.3,46.8a6.2,6.2,0,0,0-6.2-6.1h-23a6.2,6.2,0,0,0-6.2,6.1h0v23.1a6.1,6.1,0,0,0,6.2,6.1h23a6.1,6.1,0,0,0,6.2-6.1h0Zm48.1,0a6.1,6.1,0,0,0-6.1-6.1H295.3a6.1,6.1,0,0,0-6.1,6.1h0v23.1a6.1,6.1,0,0,0,6.1,6.1h23.1a6.1,6.1,0,0,0,6.1-6.1h0Zm42-6.1h-23a6.2,6.2,0,0,0-6.2,6.1h0v23.1a6.1,6.1,0,0,0,6.2,6.1h23a6.1,6.1,0,0,0,6.2-6.1h0V172.3a6.2,6.2,0,0,0-6.2-6.1ZM222,213.1H199a6.1,6.1,0,0,0-6.1,6.1h0v23.1a6.1,6.1,0,0,0,6.1,6.1h23.1a6.1,6.1,0,0,0,6.1-6.1h0V219.2A6.1,6.1,0,0,0,222,213.1Zm6.2-40.8a6.1,6.1,0,0,0-6.1-6.1H199a6.1,6.1,0,0,0-6.1,6.1h0v23.1a6.1,6.1,0,0,0,6.1,6.1h23.1a6.1,6.1,0,0,0,6.1-6.1h0Zm90.2,40.8H295.3a6.1,6.1,0,0,0-6.1,6.1h0v23.1a6.1,6.1,0,0,0,6.1,6.1h23.1a6.1,6.1,0,0,0,6.1-6.1h0V219.2a6.1,6.1,0,0,0-6.1-6.1Zm-48.2,0h-23a6.1,6.1,0,0,0-6.2,6.1h0v23.1a6.2,6.2,0,0,0,6.2,6.1h23a6.2,6.2,0,0,0,6.2-6.1h0V219.2a6.1,6.1,0,0,0-6.2-6.1Zm144.5-58.4a6.2,6.2,0,0,0,6.1-6.2h0v-23a6.1,6.1,0,0,0-6.1-6.1H391.6a6.1,6.1,0,0,0-6.1,6.1h0v23a6.1,6.1,0,0,0,6.1,6.2h23.1Zm-237,143.7H352.6a94,94,0,0,1-4.4-27.9H177.7a8.2,8.2,0,0,1-8.2-8.2V97.6H443.8v76.6a95.1,95.1,0,0,1,27.9,4.4V39.9A36.3,36.3,0,0,0,435.5,3.7H395V-18.6a13.2,13.2,0,0,0-13.2-13.1H361.3a13.2,13.2,0,0,0-13.2,13.1V3.8h-83V-18.6A13.1,13.1,0,0,0,252-31.7H231.4a13.2,13.2,0,0,0-13.2,13.1h0V3.8H177.7A36.2,36.2,0,0,0,141.6,40V262.3A36.1,36.1,0,0,0,177.7,298.4Zm334.8-28.9a69.1,69.1,0,1,1-69.1-69.1,69.1,69.1,0,0,1,69.1,69.1Zm-34.2-17.9a8.3,8.3,0,0,0-2.5-5.9,8.2,8.2,0,0,0-11.6,0h-.1l-30,30.1-11.6-11.6a8.2,8.2,0,0,0-11.6,0h-.1a7.8,7.8,0,0,0-2.4,5.9,7.5,7.5,0,0,0,2.4,5.8l17.4,17.4a8.1,8.1,0,0,0,11.6,0h.1l35.9-35.9a7.9,7.9,0,0,0,2.5-5.8Z" transform="translate(-141.6 31.7)" style="fill:#fff"/><path d="M651.6,445.4H628.5V378l-22.6,6V368l43.6-13.9h2.1Z" transform="translate(-141.6 31.7)" style="fill:#fff"/><path d="M711.2,445.4h-23V378l-22.6,6V368l43.5-13.9h2.1Z" transform="translate(-141.6 31.7)" style="fill:#fff"/><path d="M782.8,432.7H758.4l-4.3,12.7H735l27.1-68.3H779l27.4,68.3H787.2Zm-20.2-12.8h16l-8-23.6Z" transform="translate(-141.6 31.7)" style="fill:#fff"/><path d="M835.3,377.1l16.6,47.6,16.5-47.6H892v68.3H874V429.5l1.7-32.6-17.9,48.5H845.9L828,396.8l1.7,32.7v15.9H811.8V377.1Z" transform="translate(-141.6 31.7)" style="fill:#fff"/><path d="M1001.6,406.7H963.9v21.8h44.5v16.9H940V354.1h68.6v17H963.9v19.2h37.7Z" transform="translate(-141.6 31.7)" style="fill:#fff"/><path d="M1069.3,421.1a8.4,8.4,0,0,0-3.7-7.5c-2.4-1.7-6.8-3.7-13-5.5a115.6,115.6,0,0,1-15.2-5.7c-12.9-5.8-19.4-13.8-19.4-23.9a20.9,20.9,0,0,1,4.8-13.4c3.2-3.9,7.7-6.9,13.6-9a56,56,0,0,1,19.8-3.3,50.3,50.3,0,0,1,19.2,3.5,29.9,29.9,0,0,1,13.2,10.1,24.4,24.4,0,0,1,4.7,14.8h-23.9c0-3.7-1.2-6.6-3.7-8.6a15.5,15.5,0,0,0-10-3.1c-4.2,0-7.7.8-10.2,2.6a7.6,7.6,0,0,0-3.7,6.6c0,2.7,1.4,4.5,4.1,6.3s7.5,3.9,14.4,5.9a98.8,98.8,0,0,1,16.9,6.6c10.7,5.7,16.1,13.5,16.1,23.5a22,22,0,0,1-9.8,18.9c-6.6,4.5-15.5,6.8-27,6.8a58,58,0,0,1-21.8-3.9c-6.5-2.7-11.5-6.4-14.8-11a26.9,26.9,0,0,1-4.8-16H1039c0,4.9,1.4,8.5,4.2,10.9s7.2,3.4,13.3,3.4c4,0,7.1-.7,9.5-2.3A7.4,7.4,0,0,0,1069.3,421.1Z" transform="translate(-141.6 31.7)" style="fill:#fff"/><path d="M1183.5,371.1h-29.8v74.3h-23.9V371.1h-29.2v-17h82.9Z" transform="translate(-141.6 31.7)" style="fill:#fff"/><path d="M652,80c0,4.3-.8,7.7-2.5,10a7.6,7.6,0,0,1-6.4,3.1c-3.2,0-5.4-.9-6.7-2.5s-2.1-5-2.1-9.3V78.8H602.9v2.5c0,11.7,3.6,20.9,10.7,27.4s17,9.6,29.5,9.6a43.2,43.2,0,0,0,20.5-4.8,35.2,35.2,0,0,0,14.5-13.6A38.4,38.4,0,0,0,683.3,80V2.5H652Z" transform="translate(-141.6 31.7)" style="fill:#fff"/><path d="M768.2,8a52.7,52.7,0,0,0-52.4,0,45.8,45.8,0,0,0-17.9,20.1c-4,8.4-6.1,18.3-6.1,29.4v6.2c.2,10.7,2.4,20.2,6.6,28.4a45.9,45.9,0,0,0,17.8,19.5,51.4,51.4,0,0,0,26,6.7,50.6,50.6,0,0,0,26.3-7,47.2,47.2,0,0,0,17.8-20c4.1-8.5,6.2-18.4,6.2-29.3V56.8a67.2,67.2,0,0,0-6.4-29A47.6,47.6,0,0,0,768.2,8Zm-7.6,49.3v5.1c0,10-1.8,17.8-5.1,23s-7.5,7.3-13.3,7.3a15.2,15.2,0,0,1-13.6-7.4c-3.1-5.1-5-13.2-5-23.3V54c.7-18.4,6.7-27.3,18.4-27.3a15.1,15.1,0,0,1,13.6,7.2C758.9,39.1,760.6,47,760.6,57.3Z" transform="translate(-141.6 31.7)" style="fill:#fff"/><rect x="661.2" y="34.3" width="31.3" height="114.33" style="fill:#fff"/><polygon points="770.8 95.3 736.2 34.3 705.8 34.3 705.8 148.5 737.2 148.5 737.2 87.6 772 148.5 802.2 148.5 802.2 34.3 770.8 34.3 770.8 95.3" style="fill:#fff"/><path d="M1053,76.4c0,6.1-1.2,10.5-3.6,12.9s-5.7,3.8-10.5,3.8c-9.4,0-13.9-5-14.1-15.5V2.5H993.3V77.1c.1,12.7,4.3,22.8,12.5,30.2s19.2,11,33.1,11c9.2,0,17.2-1.6,24-4.9a35.9,35.9,0,0,0,16-14.6c3.6-6.2,5.5-13.7,5.5-22.3V2.5H1053Z" transform="translate(-141.6 31.7)" style="fill:#fff"/><path d="M1183.5,40V37.5a33.4,33.4,0,0,0-5.6-19.2,35.4,35.4,0,0,0-15.5-12.9A54.7,54.7,0,0,0,1140.2,1a63.3,63.3,0,0,0-22.8,4c-6.8,2.8-12.2,6.7-16,11.7a29,29,0,0,0-5.8,17.5c0,13.2,7.7,23.6,22.7,30.9a114.9,114.9,0,0,0,17.1,6.8c6.5,2.3,11.1,4.4,13.6,6.3s3.1,4,3.1,7.1-.8,4.5-2.7,5.8a15.1,15.1,0,0,1-8.8,2.4c-6.1,0-10.6-1.2-13.1-3.5s-3.7-6-3.7-11.1V76.4h-31.5v2.5a36,36,0,0,0,5.9,20.4c3.9,6,9.7,10.7,17.3,14a61.8,61.8,0,0,0,25.1,5c13.1,0,23.5-2.9,31.1-8.6s11.8-14.2,11.8-24.6c0-12.8-6.4-23.1-18.9-30.4a101.1,101.1,0,0,0-19.2-8c-7.2-2.3-12.3-4.5-15.1-6.6s-3.5-3.6-3.5-5.6a7.3,7.3,0,0,1,3.1-6c2.3-1.7,5.6-2.6,9.7-2.6s7.1,1,9.4,3,3.2,4.8,3.2,8.6V40Z" transform="translate(-141.6 31.7)" style="fill:#fff"/><path d="M677.3,183.3a59.6,59.6,0,0,0-30.1-7.6H605.4V302H648a59.2,59.2,0,0,0,29.8-7.9,54.3,54.3,0,0,0,20.8-21.7c4.9-9.1,7.3-19.6,7.3-31v-5.6a64,64,0,0,0-7.6-30.9A53.9,53.9,0,0,0,677.3,183.3Zm-7,52.9v5.2c0,10.9-2,19.2-6,24.6s-9.4,7.7-16.8,7.7h-7.1V204.1h6.8c7.6,0,13.2,2.5,17.1,7.6S670.3,225.3,670.3,236.2Z" transform="translate(-141.6 31.7)" style="fill:#fff"/><polygon points="573.2 333.7 662.1 333.7 662.1 305.4 608.2 305.4 608.2 282.7 653.8 282.7 653.8 255.2 608.2 255.2 608.2 235.8 662.3 235.8 662.3 207.4 573.2 207.4 573.2 333.7" style="fill:#fff"/><path d="M846.4,209.3c2.8-4.5,7.2-6.6,13.3-6.6s11,1.3,13.9,3.9,4.4,7.3,4.5,13.7v2.9h35.1l-.2-3.2c-1.3-14.3-6.8-25.6-16.2-33.8s-21.9-12.3-37.2-12.3c-10.6,0-20.2,2.6-28.3,7.7a50.4,50.4,0,0,0-18.9,21.8c-4.2,9.2-6.4,20-6.4,32.2v5.9c0,19.5,4.8,34.8,14.4,45.7s22.9,16.4,39.6,16.4a62,62,0,0,0,26.8-5.6,43.8,43.8,0,0,0,18.7-16,46.8,46.8,0,0,0,7.2-23.6l.2-3.2H878.1v2.9c-.2,6-1.8,10.3-4.6,12.8s-7.4,4-13.3,4-11.4-2.2-14.1-6.8-4.4-13.7-4.4-26v-8.4C841.8,222.4,843.4,214.2,846.4,209.3Z" transform="translate(-141.6 31.7)" style="fill:#fff"/><path d="M1018.3,261.6c8.3-8.3,14.4-15,18.1-20a63.1,63.1,0,0,0,8.7-14.9,40.2,40.2,0,0,0,2.8-14.9c0-12.1-3.9-21.6-11.6-28.1s-18.3-9.8-32-9.8a48.5,48.5,0,0,0-23.4,5.7,41.8,41.8,0,0,0-16.5,15.8,42.5,42.5,0,0,0-5.9,21.9v3h33.9v-3c0-4.8,1.1-8.6,3.4-11.7a9.1,9.1,0,0,1,7.9-4.2c3.4,0,5.8,1,7.5,3s2.7,5.4,2.7,9.9-2.3,11.1-13.5,23.8l-39.5,41.5V302h90V274.5h-43.8Z" transform="translate(-141.6 31.7)" style="fill:#fff"/><polygon points="957 236.5 937 201.2 915.3 201.2 915.3 277.4 938.2 277.4 938.2 242.1 958.3 277.4 979.9 277.4 979.9 201.2 957 201.2 957 236.5" style="fill:#fff"/><path d="M1182.7,187.2a32.9,32.9,0,0,0-12.8-13.1,35.7,35.7,0,0,0-18.2-4.6h-25.6v76.1h26.1a34.4,34.4,0,0,0,18-4.8,31.8,31.8,0,0,0,12.6-13.1,38.6,38.6,0,0,0,4.5-18.7v-3.2A39.7,39.7,0,0,0,1182.7,187.2ZM1164,206v3c0,6.2-1.1,10.7-3.3,13.6s-4.9,4-8.8,4h-2.8V188.5h2.6c4.1,0,7,1.3,9,4S1164,199.9,1164,206Z" transform="translate(-141.6 31.7)" style="fill:#fff"/></svg>