<svg xmlns="http://www.w3.org/2000/svg" viewBox="0 0 516.287 306.667"><defs><style>.a{fill:#c8f0f5;}</style></defs><title>casino_video_player</title><path class="a" d="M215.852,347.3,193.5,334.4l-24.354-14.024L149.3,308.856a2.867,2.867,0,0,0-1.447-.391,3,3,0,0,0-3,2.958v30.708l34.785,20.083L144.85,382.3v31.244a2.973,2.973,0,0,0,4.447,2.567l19.91-11.52L193.5,390.563l22.352-12.9a3.94,3.94,0,0,0,1.939-3.38v-23.6A3.946,3.946,0,0,0,215.852,347.3Z" transform="translate(-40 -220.833)"/><path class="a" d="M287.392,332.552a.771.771,0,0,1,.629.753v6.883a.6.6,0,0,1-.221.441.545.545,0,0,1-.439.094,6.869,6.869,0,0,0-7.008,1.414v17.129a.753.753,0,0,1-.221.533.735.735,0,0,1-.534.22H273a.779.779,0,0,1-.786-.786V333.148a.778.778,0,0,1,.786-.784h5.312a1.028,1.028,0,0,1,.942.627,21.156,21.156,0,0,1,.88,2.924c.031-.032.031-.062.063-.062,1.257-1.573,2.513-3.207,4.809-3.52a7.3,7.3,0,0,1,2.388.219m166.285,9.272c0-6.537-2.86-9.869-8.518-9.869a10.467,10.467,0,0,0-7.008,2.923c-.188-.661-.378-1.289-.6-1.855a1.03,1.03,0,0,0-.943-.629h-5.279a.779.779,0,0,0-.786.787v26.085a.78.78,0,0,0,.786.786h6.6a.778.778,0,0,0,.785-.786V340.85a5.317,5.317,0,0,1,3.488-1.51c2.358,0,3.4,1.352,3.4,4.369v15.557a.778.778,0,0,0,.785.786h6.567a.778.778,0,0,0,.786-.786c-.062-2.64-.062-12.288-.062-17.442m-54.717-9.43h-6.6a.778.778,0,0,0-.787.787v26.085a.779.779,0,0,0,.787.786h6.6a.779.779,0,0,0,.787-.786V333.181a.779.779,0,0,0-.787-.787m-.973-12.068a4.463,4.463,0,0,0-1.823-.534,4.863,4.863,0,0,0-2.358.346,4.635,4.635,0,0,0-2.671,4.809,4.563,4.563,0,0,0,1.886,3.237,4.343,4.343,0,0,0,2.639.848h.063a5.161,5.161,0,0,0,1.886-.345,4.645,4.645,0,0,0,2.734-4.494,4.693,4.693,0,0,0-2.356-3.867M263.7,340.471a8.145,8.145,0,0,1,4.054,2.734,9.462,9.462,0,0,1,1.884,6c0,6.694-4.431,10.843-11.44,10.843H244.305a.768.768,0,0,1-.535-.22.737.737,0,0,1-.219-.534V323.249a.777.777,0,0,1,.784-.785h13.357c6.694,0,10.937,3.645,10.937,9.522,0,5.814-3.049,7.763-4.87,8.422h-.033c-.03,0-.063.033-.093.033,0,0,0,.03.063.03m-11.377,12.7h3.992c2.608,0,3.989-1.665,3.989-4.776,0-2.891-1.57-4.558-4.368-4.588h-3.646v9.364Zm3.865-15.619c2.39,0,3.677-1.539,3.677-4.337,0-2.325-1.444-3.645-3.992-3.645h-3.613v7.982h3.928m44.942-5.657a11.987,11.987,0,0,1,9.46,3.991c2.137,2.515,3.268,6.129,3.268,10.4,0,8.359-5.343,14.425-12.728,14.425a11.989,11.989,0,0,1-9.461-3.991c-2.136-2.514-3.268-6.129-3.268-10.4,0-8.358,5.374-14.424,12.729-14.424m4.274,14.424c0-5.152-1.447-7.542-4.274-7.542s-4.274,2.358-4.274,7.542,1.445,7.544,4.274,7.544,4.274-2.388,4.274-7.544m122.192-13.922a.784.784,0,0,1,.533.754v5.689a.618.618,0,0,1-.188.44.448.448,0,0,1-.44.1,9.68,9.68,0,0,0-3.017-.158,8.177,8.177,0,0,1,.472,2.733c0,6.16-4.306,10.12-10.969,10.12h-.6a2.578,2.578,0,0,0-1.919.379.647.647,0,0,0-.219.533c0,.565.282,1.037,2.388,1.131,0,0,.346,0,4.118.189,6.317.314,9.522,3.143,9.522,8.3a8.447,8.447,0,0,1-3.048,6.507c-2.388,2.041-5.94,3.078-10.528,3.078-7.2,0-11.691-2.8-11.691-7.133a6.426,6.426,0,0,1,4.336-5.846,5.172,5.172,0,0,1,.566-8.926c-2.547-1.728-3.928-4.651-3.928-8.3,0-6.161,4.336-10.12,11.031-10.12a11.652,11.652,0,0,1,7.164,2.482,7.136,7.136,0,0,1,4.936-2.106,4.834,4.834,0,0,1,1.477.157m-16.31,28.381a3.253,3.253,0,0,0-2.139,2.922c0,1.948,1.6,2.829,4.778,2.829,3.518,0,5.405-.944,5.436-2.924.063-1.634-1.1-2.482-3.457-2.608l-4.618-.219m5.845-19.014c0-2.452-1.195-3.9-3.175-3.9s-3.175,1.446-3.175,3.9,1.195,3.9,3.175,3.9,3.175-1.478,3.175-3.9m-90.2-9.806c7.166,0,10.371,3.393,10.371,10.339v16.972a.778.778,0,0,1-.786.786h-5.06a1.03,1.03,0,0,1-.942-.629c-.157-.439-.345-.944-.5-1.477a8.421,8.421,0,0,1-6.128,2.578c-5.06,0-8.486-3.583-8.486-8.895,0-5.437,4.242-8.957,10.841-8.957a27.367,27.367,0,0,1,2.954.125l.033-.566c0-2.2-.691-3.551-4.117-3.551a20.453,20.453,0,0,0-6.947,1.728.639.639,0,0,1-.533-.03.554.554,0,0,1-.252-.472V334.5a.958.958,0,0,1,.6-.911,27.978,27.978,0,0,1,8.957-1.634m-3.583,19.108c0,1.226,1,2.452,2.954,2.452a4.43,4.43,0,0,0,2.891-1.1v-3.771a15.033,15.033,0,0,0-1.822-.063c-2.356-.031-4.023,1-4.023,2.483m40.763-29.669a.78.78,0,0,1,.786.786v37.086a.78.78,0,0,1-.786.786h-5.343a1.035,1.035,0,0,1-.944-.629,12.3,12.3,0,0,1-.5-1.51,9.48,9.48,0,0,1-6.631,2.83c-6.412,0-10.4-5.532-10.4-14.427,0-8.735,4.085-14.393,10.4-14.393a10.713,10.713,0,0,1,5.814,1.824v-11.6a.777.777,0,0,1,.785-.786h6.821m-11.377,32.181a4.624,4.624,0,0,0,3.8-2.545v-9.429a4.6,4.6,0,0,0-3.8-2.513c-2.641,0-3.93,2.357-3.93,7.2-.03,4.9,1.258,7.29,3.93,7.29m28.693-10.5c-2.86-1.257-5.029-1.916-5.029-3.142,0-.629.629-1.352,2.609-1.352a18.208,18.208,0,0,1,7.889,2.106.543.543,0,0,0,.786-.5v-5.781a.945.945,0,0,0-.535-.849,20.957,20.957,0,0,0-8.14-1.666c-5.939,0-10.874,2.734-10.874,8.36,0,4.461,2.735,7.008,7.825,9.114,2.7,1.13,4.715,1.7,4.683,2.985,0,.629-.534,1.383-3.111,1.383a19.924,19.924,0,0,1-8.2-2.231.567.567,0,0,0-.818.5v5.971a.945.945,0,0,0,.534.848,19.757,19.757,0,0,0,8.455,1.73c6.065,0,11.407-2.86,11.407-8.519.033-4.494-2.576-6.788-7.479-8.957" transform="translate(-40 -220.833)"/><path class="a" d="M267.963,389.226c0-8.617,4.357-13.871,10.92-13.871s11.085,5.254,11.085,13.871-4.411,13.926-10.977,13.926-11.028-5.31-11.028-13.926m17.055.053c0-5.578-1.991-10.337-6.08-10.337s-6.026,4.706-6.026,10.284c0,5.527,1.991,10.338,6.079,10.338s6.027-4.759,6.027-10.285" transform="translate(-40 -220.833)"/><path class="a" d="M351.21,389.226c0-8.617,4.357-13.871,10.921-13.871s11.085,5.254,11.085,13.871-4.412,13.926-10.977,13.926-11.029-5.31-11.029-13.926m17.054.053c0-5.578-1.989-10.337-6.079-10.337s-6.025,4.706-6.025,10.284c0,5.527,1.989,10.338,6.079,10.338s6.025-4.759,6.025-10.285" transform="translate(-40 -220.833)"/><path class="a" d="M294.906,376.041h3.606l.7,3.269c2.369-2.319,5.058-3.955,8.232-3.955,3.873,0,6.509,2.925,6.509,7.41v19.7h-4.626V384.674c0-3.006-.86-4.825-3.282-4.825-2.152,0-4.572,1.479-6.51,3.166v19.45h-4.628Z" transform="translate(-40 -220.833)"/><path class="a" d="M320.935,376.041v-6.805l4.628-1v7.807H331.1v3.691h-5.541v17.353c0,1.686.7,2.425,2.2,2.425a10.462,10.462,0,0,0,3.416-.739v3.377a7.754,7.754,0,0,1-3.793,1c-3.658,0-6.456-1.424-6.456-5.644V379.732" transform="translate(-40 -220.833)"/><path class="a" d="M336.583,376.041h3.608l.752,3.744c1.989-2.425,4.087-4.219,7.209-4.219a4.9,4.9,0,0,1,.968.105v4.747h-.107a5.828,5.828,0,0,0-1.667-.211c-2.477,0-4.144,1.054-6.135,2.849v19.409h-4.628Z" transform="translate(-40 -220.833)"/><rect class="a" x="338.856" y="143.445" width="4.628" height="38.187"/><path class="a" d="M242.738,385.671c0-9.873,4.34-17.459,13.991-17.459,3.563,0,6.37.787,8.518,2.486v3.248c-1.783-1.261-5.951-1.952-8.518-1.952-6.613,0-8.7,5.113-8.7,13.482,0,8.469,2.087,13.628,8.857,13.628,2.831,0,6.526-.979,8.361-2.339v3.3a13.382,13.382,0,0,1-8.518,2.825c-9.391,0-13.991-6.9-13.991-17.216" transform="translate(-40 -220.833)"/><path class="a" d="M544.642,220.833h-493A11.68,11.68,0,0,0,40,232.479V515.854A11.68,11.68,0,0,0,51.646,527.5h493a11.68,11.68,0,0,0,11.645-11.646V232.479A11.68,11.68,0,0,0,544.642,220.833ZM523.534,521.92a4.246,4.246,0,1,1,4.246-4.246A4.246,4.246,0,0,1,523.534,521.92Zm20.38-19.913a4.867,4.867,0,0,1-4.853,4.852H57.226a4.867,4.867,0,0,1-4.853-4.852V238.526a4.867,4.867,0,0,1,4.853-4.852H539.061a4.867,4.867,0,0,1,4.853,4.852Z" transform="translate(-40 -220.833)"/></svg>