<svg width="15" height="12" viewBox="0 0 15 12" fill="none" xmlns="http://www.w3.org/2000/svg">
<path d="M13.2913 0.000742992C12.8599 0.0141206 12.45 0.199173 12.1494 0.518C9.55744 3.19569 7.56023 5.44085 5.18563 7.9468L2.77205 5.8421C2.43793 5.53332 1.99564 5.37613 1.54796 5.40735C1.10028 5.43857 0.682886 5.65595 0.393078 6.00934C0.102191 6.36273 -0.0362216 6.82202 0.0081257 7.28351C0.0513795 7.74392 0.275217 8.16755 0.626662 8.45515L4.22538 11.5944C4.885 12.1707 5.86363 12.1283 6.47458 11.4963C9.46124 8.41071 11.5839 5.95013 14.5025 2.93478C14.9902 2.44204 15.1351 1.69068 14.8669 1.04189C14.5998 0.394215 13.9737 -0.0193904 13.2914 0.000700534L13.2913 0.000742992Z" fill="white"/>
</svg>
