<?xml version="1.0" encoding="utf-8"?>
<!-- Generator: Adobe Illustrator 24.0.2, SVG Export Plug-In . SVG Version: 6.00 Build 0)  -->
<svg version="1.1" id="Layer_1" xmlns="http://www.w3.org/2000/svg" xmlns:xlink="http://www.w3.org/1999/xlink" x="0px" y="0px"
	 viewBox="0 0 15 12" style="enable-background:new 0 0 15 12;" xml:space="preserve">
<style type="text/css">
	.st0{fill:#1056FB;}
</style>
<title>check_blue</title>
<path class="st0" d="M13.3,0c-0.4,0-0.8,0.2-1.1,0.5C9.6,3.2,7.6,5.4,5.2,8L2.8,5.8C2.4,5.5,2,5.4,1.5,5.4C1.1,5.4,0.7,5.7,0.4,6
	C0.1,6.4,0,6.8,0,7.3c0,0.5,0.3,0.9,0.6,1.2l3.6,3.1c0.6,0.6,1.6,0.5,2.2-0.1c3-3.1,5.1-5.6,8-8.6C15,2.4,15.1,1.7,14.9,1
	C14.6,0.4,14,0,13.3,0z"/>
</svg>
