<?xml version="1.0" encoding="utf-8"?>
<!-- Generator: Adobe Illustrator 24.2.0, SVG Export Plug-In . SVG Version: 6.00 Build 0)  -->
<svg version="1.1" id="Layer_1" xmlns="http://www.w3.org/2000/svg" xmlns:xlink="http://www.w3.org/1999/xlink" x="0px" y="0px"
	 viewBox="0 0 546 380" style="enable-background:new 0 0 546 380;" xml:space="preserve">
<style type="text/css">
	.st0{fill:#4324A6;}
	.st1{fill:#9E86F4;}
	.st2{fill:#FFFFFF;stroke:#E7E7E7;stroke-width:2.8207;}
	.st3{fill:#291972;}
	.st4{fill:#FFFFFF;}
	.st5{fill:#F4F4F4;}
	.st6{fill:#FEC49E;}
	.st7{fill:#FF8977;}
	.st8{fill:#3F63AD;}
	.st9{clip-path:url(#SVGID_2_);}
	.st10{fill:#2399F8;}
	.st11{fill:#36E554;}
	.st12{fill:#74AFBD;}
	.st13{fill:#2CE0AC;}
	.st14{fill:#26DDE1;}
	.st15{fill:#9990FC;}
	.st16{fill:#FFFFFF;stroke:#231F20;stroke-width:1.5;stroke-miterlimit:10;}
</style>
<path class="st0" d="M529.3,37.2H142.6c-7.6,0-13.7,6.1-13.7,13.7v252.8c0,7.6,6.1,13.7,13.7,13.7h386.7c7.6,0,13.7-6.1,13.7-13.7
	V50.9C543,43.3,536.8,37.2,529.3,37.2z"/>
<path class="st1" d="M542.6,379.9H135.4c-1.9,0-3.4-1.5-3.4-3.4v-2.3c0-1.9,1.5-3.4,3.4-3.4h407.2c1.9,0,3.4,1.5,3.4,3.4v2.3
	C546,378.4,544.5,379.9,542.6,379.9z"/>
<path class="st2" d="M529.3,50.9H142.6v252.8h386.7V50.9z"/>
<path class="st0" d="M424.9,365.6H247v9.8h177.9V365.6z"/>
<path class="st3" d="M388,317.3h-51.8h-0.4H284l-12.2,48.3h64h0.4h64L388,317.3z"/>
<path class="st4" d="M354.3,31.3c3.6-10.1-1.8-21.3-11.9-24.8c-10.1-3.6-21.3,1.8-24.8,11.9c-3.6,10.1,1.8,21.3,11.9,24.8
	C339.6,46.8,350.7,41.4,354.3,31.3z"/>
<path class="st1" d="M336,34.4c5.3,0,9.6-4.3,9.6-9.6s-4.3-9.6-9.6-9.6c-5.3,0-9.6,4.3-9.6,9.6S330.7,34.4,336,34.4z"/>
<path class="st4" d="M338,23c0.3-1.9-1-3.7-2.9-4c-1.9-0.3-3.7,1-4,2.9c-0.3,1.9,1,3.7,2.9,4C335.9,26.3,337.7,25,338,23z"/>
<path class="st1" d="M97.3,379.9h-70c-1.7,0-3.1-1.4-3.1-3.1v-2.1c0-1.7,1.4-3.1,3.1-3.1h70c1.7,0,3.1,1.4,3.1,3.1v2.1
	C100.4,378.5,99,379.9,97.3,379.9z"/>
<path class="st0" d="M63.4,288.9c0,0-59.2-28-41.5-53.6s25.8-21.7,22.5-35.1c-3.3-13.4-5.7-17.5,5.6-30.3
	c11.4-12.8,12.7-18.8,17.1-35.4c4.4-16.6,19.6-18.8,24.4-5.7c4.8,13.1,1.2,26.5,13.4,36.8c12.2,10.3,23.5,15.1,15.8,34
	c-7.7,18.9-12.3,17.2-0.7,28.4c11.6,11.2,18,20.9,5.5,37.4C113.1,281.9,92.8,294,63.4,288.9z"/>
<path class="st1" d="M70.6,277.2c10.7,0.1,21-1.8,30.5-5.7c7.6-3.1,14.9-7.5,21.4-13.1c4-3.4,7.2-6.8,9.8-9.7c0-0.8-0.1-1.5-0.2-2.2
	c-2.6,3.2-6.2,7-10.7,10.8c-6.4,5.4-13.5,9.7-21,12.8c-9.3,3.8-19.2,5.7-29.6,5.6c1.8-7.4,3.4-15,4.8-22.7
	c16.1-0.6,28.2-8.2,35.5-14.7c4.1-3.6,7.2-7.1,9.2-9.8c-0.1-0.1-0.3-0.3-0.4-0.4c-0.2-0.2-0.5-0.5-0.7-0.7c-2,2.6-5.1,6.2-9.2,9.8
	c-7,6.2-18.7,13.5-34.2,14.2c0.2-1.3,0.5-2.6,0.7-3.9c0.2-1.3,0.4-2.5,0.6-3.8l0,0.3c8.6-1.6,17.8-6.5,27.6-14.7
	c2.3-1.9,5.5-4.7,8.9-8.3c-0.3-0.5-0.5-1-0.6-1.6c-16.4,17.2-29.9,21.7-35.6,22.8c1.2-7.1,2.2-14.4,3.1-21.7
	c10-0.5,20.2-8.9,30.4-25c3.8-6,6.8-11.9,9-16.5c-0.4-0.5-0.7-0.9-1.1-1.4c-6.2,13.1-20.9,40.1-38.2,41.2c0.8-7.1,1.6-14.3,2.1-21.6
	c10.4-5.6,17.8-16.1,22.2-24c1-1.9,2-3.7,2.7-5.3c-0.4-0.3-0.8-0.7-1.3-1c-4.3,9.1-12.1,21.9-23.5,28.4c0.3-3.9,0.6-7.7,0.8-11.6
	c0.1-1.7,0.2-3.4,0.3-5c5.8-3.7,10.7-10.6,14.7-20.3c0,0,0-0.1,0.1-0.2c-0.4-0.6-0.7-1.3-1-1.9c-2.7,7.1-7.2,15.6-13.7,20.4
	c1.3-29.1,0.2-50.6-0.1-56.1c-0.5-0.2-1-0.3-1.4-0.4c0.2,3.8,0.9,18.8,0.5,40c-10.2-4.8-12.5-21.1-12.7-33.6c-0.6,0.8-1,1.7-1.5,2.6
	c0,1.4,0.1,2.8,0.2,4.3c1.2,13.9,5,22.9,11.5,27.1c0.8,0.5,1.6,0.9,2.4,1.3c-0.2,6.9-0.4,14.4-0.9,22.3c-0.1,1.6-0.2,3.3-0.3,5.1
	c-11.7-5.4-18.4-21.4-21.9-33.4c-0.3,0.6-0.7,1.3-1.1,2c0.5,1.7,1.1,3.4,1.7,5.2c4.6,12.7,10.6,21.5,17.7,26.1
	c1.1,0.7,2.3,1.3,3.4,1.8c-0.8,11-2.1,23.3-4,36.4c-7.7-4.2-14.2-10.1-19.2-17.4c-4.2-6.1-7.4-13.3-9.6-21.3
	c-1.4-5.3-2.2-10.2-2.6-14.3c-0.5,0.7-1,1.3-1.4,2c0.5,3.8,1.2,8.1,2.5,12.7c2.2,8.2,5.5,15.5,9.8,21.8c4.4,6.4,9.9,11.7,16.3,15.8
	c1.3,0.8,2.6,1.6,4,2.3c-1.6,10.6-3.6,21.6-6.1,32.8c-9.4-2.8-17.3-7.3-23.5-13.4c-5.1-5-9-11-11.8-17.9c-1.4-3.4-2.3-6.6-2.9-9.6
	c-0.4,0.4-0.8,0.9-1.3,1.4c0.6,2.7,1.6,5.7,2.8,8.7c2.9,7.1,7,13.3,12.1,18.5c2.5,2.5,5.4,4.8,8.5,6.8c4.7,3,10,5.4,15.8,7.1
	c-1.1,4.9-2.3,9.8-3.5,14.7c-9.1-2.2-17.2-6.2-24.3-11.9c-5.9-4.8-11-10.8-15.2-17.8c-2.8-4.8-4.9-9.4-6.3-13.2
	c-0.4,0.6-0.7,1.1-1,1.7c1.4,3.7,3.3,7.9,5.9,12.3c4.3,7.2,9.5,13.3,15.5,18.2c1.8,1.4,3.6,2.8,5.6,4c5.8,3.7,12.3,6.5,19.3,8.2
	c-0.8,3.1-1.7,6.2-2.5,9.3c0.9,0.2,1.8,0.3,2.7,0.4c1.2-4.2,2.3-8.4,3.3-12.8L70.6,277.2z"/>
<path class="st0" d="M67.3,289.5c-0.9-0.1-1.8-0.2-2.7-0.4c-2.3,8-4.9,16-7.7,24l3.2-0.6C62.7,305.1,65.1,297.5,67.3,289.5z"/>
<path class="st1" d="M52.3,294.6c0,0-52.2,0.4-48.3-24.2c3.9-24.5,11-24.5,4-33c-7-8.5-10.2-10.6-6.4-23.7c3.7-13.1,2.6-17.9,0-31.4
	c-2.6-13.5,7.6-20.3,15.5-12.5c8,7.8,10,18.6,22.3,21.8c12.3,3.2,22.1,2.7,23.1,19s-2.9,16.6,9.3,20.7c12.2,4.1,20.1,8.8,16.9,25
	C85.6,272.4,75.2,288.1,52.3,294.6z"/>
<path class="st3" d="M55.3,293.6c-0.7,0.2-1.4,0.4-2.1,0.7c1.1,6.3,2,12.6,2.6,19l2.2-0.4C57.4,306.6,56.5,300.2,55.3,293.6z"/>
<path class="st3" d="M53.4,283.6c7.7-3.6,14.5-8.5,20-14.7c4.4-4.9,8.1-10.5,10.9-16.8c1.7-3.8,2.9-7.4,3.7-10.4
	c-0.3-0.5-0.6-1-0.9-1.5c-0.8,3.2-2,7.2-3.9,11.4c-2.7,6.1-6.3,11.6-10.6,16.4c-5.4,5.9-11.9,10.7-19.4,14.2
	c-1.3-5.9-2.7-11.9-4.4-18c11.4-6,17.4-15.7,20.5-22.8c1.7-4,2.7-7.6,3.3-10.2c-0.2,0-0.3-0.1-0.4-0.2c-0.3-0.1-0.5-0.2-0.8-0.2
	c-0.6,2.6-1.5,6.2-3.2,10.2c-2.9,6.9-8.7,16.2-19.6,22c-0.3-1-0.6-2-0.8-3c-0.3-1-0.6-2-0.8-2.9l0.1,0.2c5.6-4.1,10.6-10.9,14.7-20
	c1-2.2,2.3-5.3,3.5-9c-0.4-0.3-0.7-0.6-1-0.9c-5.9,18-14,25.9-17.7,28.7c-1.6-5.5-3.4-11.1-5.3-16.7c7-3.8,11.5-13.4,13.2-28.4
	c0.7-5.6,0.8-10.9,0.8-14.9c-0.4-0.2-0.8-0.4-1.3-0.6c0.1,11.5-1.2,36-13.2,42.8c-1.8-5.4-3.8-10.8-5.9-16.2
	c5.5-7.6,7.2-17.7,7.7-24.9c0.1-1.7,0.2-3.3,0.2-4.8c-0.4-0.1-0.8-0.2-1.3-0.3c0,8-1.2,19.9-7.1,28.6c-1.1-2.9-2.3-5.7-3.5-8.6
	c-0.5-1.2-1-2.5-1.6-3.7c2.9-4.7,4.1-11.3,3.5-19.7c0,0,0-0.1,0-0.1c-0.5-0.3-0.9-0.7-1.4-1c0.5,6.1,0.3,13.7-2.8,19.4
	c-9.1-21.4-17.3-36.4-19.5-40.3c-0.4,0-0.8,0.1-1.2,0.2c1.5,2.7,7.2,13.2,14.1,28.6c-9,0-16.2-10.9-20.7-19.7
	c-0.1,0.8-0.2,1.6-0.2,2.4c0.5,1,1.1,2,1.6,2.9c5.6,9.6,11.5,14.8,17.6,15.5c0.7,0.1,1.4,0.1,2.2,0.1c2.3,5,4.7,10.5,7,16.3
	c0.5,1.2,1,2.5,1.5,3.7c-10.3,0.1-20.6-9-27.2-16.4c0,0.6,0,1.2-0.1,1.8c1,1,2,2.1,3,3.1c7.7,7.6,15,11.8,21.7,12.6
	c1,0.1,2.1,0.2,3.1,0.1c3.2,8.2,6.5,17.4,9.7,27.6c-7-0.4-13.7-2.3-19.8-5.9c-5.1-2.9-9.9-7-14.3-12c-2.8-3.3-5.1-6.6-6.8-9.4
	c-0.1,0.6-0.2,1.3-0.3,1.9c1.6,2.5,3.7,5.4,6.2,8.3c4.4,5.1,9.3,9.2,14.6,12.3c5.4,3.1,11.2,5,17.2,5.8c1.2,0.2,2.5,0.2,3.7,0.3
	c2.5,8.1,4.9,16.8,7,25.7c-7.7,1.2-14.9,0.7-21.5-1.5c-5.3-1.8-10.3-4.8-14.7-8.8c-2.2-2-3.9-4-5.5-5.9c-0.2,0.5-0.3,1-0.4,1.5
	c1.4,1.7,3.1,3.5,5,5.3c4.5,4.1,9.6,7.2,15.1,9.1c2.7,0.9,5.5,1.6,8.4,1.9c4.4,0.6,9,0.4,13.8-0.4c0.9,3.9,1.8,7.8,2.5,11.8
	c-7.3,1.6-14.5,1.5-21.5-0.2c-5.9-1.4-11.6-3.9-17-7.5c-3.7-2.5-6.7-5.1-9.1-7.3c-0.1,0.5-0.1,1-0.2,1.6c2.3,2.2,5.1,4.5,8.5,6.8
	c5.5,3.7,11.4,6.3,17.4,7.7c1.8,0.4,3.6,0.8,5.4,1c5.5,0.7,11.1,0.4,16.7-0.8c0.5,2.5,1,5.1,1.4,7.6c0.7-0.2,1.4-0.4,2.1-0.7
	c-0.6-3.4-1.3-6.8-2-10.4V283.6z"/>
<path class="st5" d="M92.2,303.5h7.7c1.7,0,3.1,1.4,3.1,3.1c0,3.8-0.1,10.6-0.3,18.3c-2.8,0.2-6.3,0.6-10.5,0.8V303.5z"/>
<path class="st5" d="M92.2,336.3c3.3-0.2,6.7-0.5,10.2-0.8c-0.1,2.5-0.2,4.9-0.4,7.2c-0.8,14.3-10.4,26.7-13.5,30.3
	c-0.6,0.7-1.4,1.1-2.3,1.1h-5.5c10.4-10.1,11.5-33.3,11.5-33.3L92.2,336.3L92.2,336.3z"/>
<path class="st5" d="M29.3,346.6c0.4,7.8,8.1,22.3,13.7,27.6h-2c-0.9,0-1.8-0.4-2.3-1.1c-3.1-3.6-12.7-16-13.5-30.3
	c-0.2-2.4-0.3-4.9-0.4-7.4c1.2,0.1,2.6,0.3,4.3,0.4C29.1,340.4,29.2,344.4,29.3,346.6z"/>
<path class="st5" d="M24.4,324.5c-0.2-7.5-0.2-14.2-0.3-18c0-1.7,1.4-3.1,3.1-3.1h2c0,4.8-0.1,13.2-0.2,21.4
	C27.5,324.8,26,324.7,24.4,324.5z"/>
<path class="st4" d="M29.1,324.9c0-8.2,0.1-16.6,0.2-21.4h34.3h28.6v22.1C77.5,326.5,55,327.1,29.1,324.9z"/>
<path class="st4" d="M29.3,346.6c-0.1-2.2-0.2-6.1-0.2-10.8c12,1.1,34.8,2.4,63.1,0.6v4.5c0,0-1.1,23.2-11.5,33.3h-17H43
	C37.4,368.8,29.7,354.4,29.3,346.6z"/>
<path class="st3" d="M92.2,325.6c4.2-0.2,7.7-0.6,10.5-0.8c-0.1,3.5-0.2,7.1-0.4,10.7c-3.5,0.3-6.9,0.6-10.2,0.8V325.6z"/>
<path class="st3" d="M29.1,324.9c0,3.7,0,7.5,0,10.8c-1.6-0.2-3-0.3-4.3-0.4c-0.2-3.6-0.3-7.3-0.4-10.8
	C26,324.7,27.5,324.8,29.1,324.9z"/>
<path class="st0" d="M92.2,325.6v10.7c-28.3,1.9-51.1,0.6-63.1-0.6c0-3.3,0-7,0-10.8C55,327.1,77.5,326.5,92.2,325.6z"/>
<path class="st3" d="M499.2,152.8h-98.7c-8.3,0-15.1-6.8-15.1-15.1V83.6c0-8.3,6.8-15.1,15.1-15.1h98.7c8.3,0,15.1,6.8,15.1,15.1
	v54.1C514.3,146,507.5,152.8,499.2,152.8z"/>
<path class="st6" d="M438.6,141.1c2.2-0.3,4.7-0.5,7.3-0.7c0.3-1.2,0.8-2.9,1.1-4.3c-6.9-2.9-11.7-12.1-12.7-18.7
	c-0.2-1.5-0.3-2.9-0.2-4.3c4.4-1.5,14.6-6.4,18.8-19.6c1.7,7.4,7.8,15.4,10.5,18.6c-0.1,9.8-2.1,23.5-10.6,24.8l0.8,3.4
	c3.9,0.2,7.8,0.8,11.1,2.1c4.2,1.6,7.7,4.3,9.7,8.4c0.1,0.2,0.2,0.4,0.3,0.7c2.1-4.5,7.1-16.1,5.7-22.6c-1.8-8.2-6.4-11.7-9.9-13.7
	c-3.5-2,2-18.8-1.3-24.3c-3.3-5.5-15.2-4.4-15.2-4.4s-1.3-4.6-12.8-3.1c-11.5,1.6-13.2,18.3-13.5,24.5c-0.2,6.2-3.7,11.9-7.3,17.4
	c-2.9,4.5,4.9,15.8,7.8,19.6c2.1-1.8,4.5-3.2,7.2-3.6C436.4,141.4,437.4,141.2,438.6,141.1z"/>
<path class="st7" d="M453.6,137.4l-0.8-3.4c8.6-1.3,10.6-15,10.6-24.8c-2.7-3.3-8.8-11.3-10.5-18.6c-4.3,13.2-14.4,18-18.8,19.6
	c-0.1,1.4,0,2.9,0.2,4.3c1,6.6,5.9,15.8,12.7,18.7c-0.4,1.4-0.8,3-1.1,4.3c-2.6,0.2-5.1,0.4-7.3,0.7c1,2-1.6,15,11.7,13.9
	c16.4-1.3,14.5-12.5,14.5-12.5C461.3,138.2,457.4,137.6,453.6,137.4z"/>
<path class="st8" d="M474.8,144.2c-0.1-0.2-0.2-0.4-0.3-0.7c-2-4.2-5.5-6.8-9.7-8.4c0,0,2,11.1-14.5,12.5
	c-13.3,1.1-10.8-11.9-11.7-13.9c-1.1,0.2-2.2,0.3-3.1,0.4c-2.7,0.4-5.1,1.8-7.2,3.6c-5.3,4.7-8.7,12.5-9.7,14.7h60.1
	C478.1,151.2,476.9,148.7,474.8,144.2z"/>
<g>
	<defs>
		<rect id="SVGID_1_" x="172.8" y="122.5" width="152.4" height="152.4"/>
	</defs>
	<clipPath id="SVGID_2_">
		<use xlink:href="#SVGID_1_"  style="overflow:visible;"/>
	</clipPath>
	<g class="st9">
		<path d="M242.2,186.5h-2.1v5.8h-1.2v-5.8h-2.1v-1h5.4L242.2,186.5L242.2,186.5z M241.8,189.7c0-0.5,0.1-0.9,0.3-1.3
			c0.2-0.4,0.5-0.7,0.8-0.9c0.4-0.2,0.7-0.3,1.2-0.3c0.7,0,1.2,0.2,1.6,0.6c0.4,0.4,0.6,1,0.7,1.7v0.2c0,0.5-0.1,0.9-0.3,1.3
			c-0.2,0.4-0.5,0.7-0.8,0.9c-0.4,0.2-0.8,0.3-1.2,0.3c-0.7,0-1.3-0.2-1.7-0.7C242,191.2,241.7,190.5,241.8,189.7L241.8,189.7z
			 M242.9,189.8c0,0.5,0.1,0.9,0.3,1.2c0.2,0.3,0.5,0.4,0.9,0.4s0.7-0.1,0.9-0.5c0.2-0.3,0.3-0.8,0.3-1.3c0-0.5-0.1-0.9-0.3-1.2
			c-0.2-0.3-0.5-0.5-0.9-0.5c-0.4,0-0.7,0.1-0.9,0.4C243,188.8,242.9,189.2,242.9,189.8z M248.8,186v1.2h0.9v0.8h-0.9v2.8
			c0,0.2,0,0.3,0.1,0.4c0.1,0.1,0.2,0.1,0.4,0.1c0.1,0,0.2,0,0.4,0v0.9c-0.2,0.1-0.5,0.1-0.8,0.1c-0.9,0-1.3-0.5-1.3-1.4v-2.9h-0.8
			v-0.8h0.8v-1.2L248.8,186L248.8,186z M253.6,192.3c0-0.1-0.1-0.2-0.1-0.5c-0.4,0.4-0.8,0.6-1.3,0.6c-0.5,0-0.9-0.1-1.2-0.4
			c-0.3-0.3-0.5-0.6-0.5-1.1c0-0.5,0.2-1,0.6-1.2c0.4-0.3,1-0.4,1.7-0.4h0.7v-0.3c0-0.2-0.1-0.5-0.2-0.6c-0.1-0.1-0.4-0.2-0.7-0.2
			c-0.2,0-0.5,0.1-0.6,0.2c-0.2,0.1-0.2,0.3-0.2,0.5h-1.1c0-0.3,0.1-0.5,0.3-0.8c0.2-0.2,0.4-0.4,0.7-0.6c0.3-0.1,0.7-0.2,1.1-0.2
			c0.6,0,1.1,0.1,1.4,0.5c0.4,0.3,0.5,0.7,0.5,1.2v2.3c0,0.5,0.1,0.8,0.2,1.1v0.1H253.6z M252.3,191.5c0.2,0,0.4-0.1,0.6-0.2
			c0.2-0.1,0.4-0.2,0.5-0.4v-1h-0.6c-0.4,0-0.7,0.1-0.9,0.2c-0.2,0.1-0.3,0.4-0.3,0.6c0,0.2,0.1,0.4,0.2,0.5
			C251.9,191.4,252.1,191.5,252.3,191.5z M256.9,192.3h-1.1v-7.1h1.1V192.3z M258.9,191.1c0.2,0,0.4,0.1,0.5,0.2
			c0.1,0.1,0.2,0.2,0.2,0.5c0,0.2-0.1,0.3-0.2,0.4s-0.3,0.2-0.5,0.2c-0.2,0-0.4-0.1-0.5-0.2c-0.1-0.1-0.2-0.2-0.2-0.4
			c0-0.2,0.1-0.3,0.2-0.5C258.5,191.2,258.7,191.1,258.9,191.1z M258.9,187.2c0.2,0,0.4,0.1,0.5,0.2c0.1,0.1,0.2,0.2,0.2,0.5
			c0,0.2-0.1,0.3-0.2,0.4s-0.3,0.2-0.5,0.2c-0.2,0-0.4-0.1-0.5-0.2c-0.1-0.1-0.2-0.2-0.2-0.4c0-0.2,0.1-0.3,0.2-0.5
			C258.5,187.2,258.7,187.2,258.9,187.2z"/>
		<path class="st10" d="M216.9,208.4c0-0.4-0.1-0.6-0.4-0.9c-0.2-0.2-0.6-0.5-1.1-0.6c-0.5-0.2-1-0.4-1.2-0.5
			c-1-0.5-1.5-1.3-1.5-2.4c0-0.7,0.2-1.3,0.6-1.7c0.4-0.5,1-0.7,1.7-0.8V200h1v1.4c0.8,0.1,1.3,0.4,1.7,1c0.4,0.5,0.6,1.2,0.6,2
			h-1.5c0-0.5-0.1-1-0.4-1.2c-0.2-0.3-0.6-0.5-1-0.5s-0.7,0.1-1,0.3c-0.2,0.2-0.4,0.5-0.4,1c0,0.4,0.1,0.7,0.4,0.9
			c0.2,0.2,0.6,0.4,1.2,0.6c0.5,0.2,1,0.4,1.3,0.6c0.3,0.2,0.6,0.4,0.8,0.6c0.2,0.2,0.4,0.5,0.5,0.8c0.1,0.3,0.2,0.6,0.2,1
			c0,0.7-0.2,1.3-0.7,1.7c-0.4,0.5-1,0.7-1.9,0.8v1.2h-1v-1.2c-0.9-0.1-1.5-0.4-2-0.9c-0.5-0.5-0.7-1.2-0.7-2h1.6
			c0,0.5,0.1,1,0.4,1.2c0.3,0.3,0.6,0.4,1.1,0.4s0.9-0.1,1.1-0.4C216.7,209,216.9,208.7,216.9,208.4z M224,210.8h-1.6v-7.5l-2.3,0.8
			v-1.3l3.6-1.3h0.2V210.8z M231.4,210.8h-1.5v-7.5l-2.3,0.8v-1.3l3.6-1.3h0.2L231.4,210.8L231.4,210.8z M235.1,206.1l0.5-4.7h5v1.4
			h-3.7l-0.2,2.2c0.4-0.2,0.9-0.4,1.5-0.4c0.9,0,1.6,0.3,2.1,0.9c0.5,0.6,0.8,1.3,0.8,2.3c0,1-0.3,1.7-0.8,2.2
			c-0.5,0.6-1.3,0.8-2.2,0.8c-0.9,0-1.6-0.2-2.1-0.7c-0.6-0.5-0.9-1.1-0.9-1.9h1.5c0.1,0.5,0.2,0.8,0.5,1c0.2,0.2,0.6,0.4,1,0.4
			c0.5,0,0.9-0.2,1.1-0.5c0.3-0.4,0.4-0.8,0.4-1.4c0-0.6-0.1-1-0.4-1.4c-0.3-0.3-0.7-0.5-1.2-0.5c-0.3,0-0.5,0-0.7,0.1
			c-0.2,0.1-0.4,0.2-0.6,0.4L235.1,206.1z M242.4,212.9l-0.8-0.5c0.2-0.4,0.4-0.7,0.5-1c0.1-0.3,0.1-0.6,0.1-0.9v-1.2h1.4v1.1
			c0,0.5-0.1,0.9-0.4,1.4C243,212.2,242.7,212.6,242.4,212.9z M249.2,210.8h-1.5v-7.5l-2.3,0.8v-1.3l3.6-1.3h0.2L249.2,210.8
			L249.2,210.8z M257.2,201.4v1.3H257c-0.9,0-1.6,0.2-2.1,0.7c-0.5,0.5-0.8,1.1-0.9,2c0.5-0.5,1.1-0.8,1.9-0.8
			c0.8,0,1.5,0.3,1.9,0.9c0.5,0.6,0.7,1.3,0.7,2.2c0,1-0.3,1.7-0.8,2.3c-0.6,0.6-1.3,0.9-2.2,0.9c-0.9,0-1.7-0.4-2.2-1
			c-0.6-0.7-0.9-1.6-0.9-2.7v-0.5c0-1.6,0.4-2.9,1.2-3.8c0.8-0.9,1.9-1.4,3.4-1.4L257.2,201.4L257.2,201.4z M255.6,205.9
			c-0.4,0-0.6,0.1-0.9,0.3c-0.3,0.2-0.5,0.5-0.6,0.8v0.5c0,0.7,0.1,1.2,0.4,1.6c0.3,0.4,0.7,0.6,1.1,0.6s0.8-0.2,1.1-0.5
			c0.3-0.4,0.4-0.8,0.4-1.4s-0.1-1-0.4-1.4C256.4,206,256,205.9,255.6,205.9z M264,210.8h-1.5v-7.5l-2.3,0.8v-1.3l3.6-1.3h0.2
			L264,210.8L264,210.8z M268.3,209.1c0.3,0,0.5,0.1,0.7,0.2c0.1,0.2,0.2,0.4,0.2,0.6s-0.1,0.4-0.2,0.6c-0.1,0.1-0.4,0.2-0.7,0.2
			c-0.3,0-0.5-0.1-0.6-0.2c-0.2-0.1-0.2-0.4-0.2-0.6s0.1-0.5,0.2-0.6C267.8,209.2,268,209.1,268.3,209.1z M277.1,202.3l-3.7,8.5
			h-1.6l3.7-8.1h-4.8v-1.2h6.5V202.3z M280.2,205.4h1c0.5,0,0.9-0.1,1.1-0.4c0.3-0.2,0.4-0.6,0.4-1.1c0-0.4-0.1-0.8-0.4-1
			c-0.2-0.2-0.6-0.4-1.1-0.4c-0.4,0-0.7,0.1-1,0.4c-0.3,0.2-0.4,0.5-0.4,0.9h-1.6c0-0.5,0.1-0.9,0.4-1.3c0.2-0.4,0.6-0.7,1.1-0.9
			c0.5-0.2,1-0.3,1.5-0.3c0.9,0,1.6,0.2,2.2,0.7c0.5,0.5,0.8,1.1,0.8,1.9c0,0.4-0.1,0.8-0.4,1.2c-0.2,0.4-0.6,0.6-1,0.8
			c0.5,0.2,0.9,0.5,1.2,0.8c0.3,0.4,0.4,0.8,0.4,1.4c0,0.8-0.3,1.5-0.9,2c-0.6,0.5-1.3,0.7-2.2,0.7c-0.9,0-1.6-0.2-2.2-0.7
			c-0.6-0.5-0.9-1.1-0.9-1.9h1.6c0,0.4,0.1,0.7,0.4,1c0.3,0.2,0.6,0.4,1.1,0.4c0.5,0,0.9-0.1,1.1-0.4c0.3-0.2,0.4-0.6,0.4-1.1
			c0-0.5-0.1-0.9-0.4-1.1c-0.3-0.2-0.7-0.4-1.3-0.4h-0.9L280.2,205.4L280.2,205.4z"/>
		<path class="st11" d="M248.9,122.5c-0.2,0-0.4,0-0.6,0v25c0.2,0,0.4,0,0.6,0c28.2,0,51.2,23,51.2,51.2h25
			C325.2,156.7,291,122.5,248.9,122.5z"/>
		<path class="st12" d="M195.1,144.9c-14.4,14.4-22.3,33.5-22.3,53.9h25c0-28,22.7-50.8,50.6-51.2v-25
			C228.2,122.7,209.3,130.6,195.1,144.9z"/>
		<path class="st13" d="M248.9,274.9c42,0,76.2-34.2,76.2-76.2h-25c0,28.2-23,51.2-51.2,51.2s-51.2-23-51.2-51.2h-25
			C172.8,240.7,206.9,274.9,248.9,274.9z"/>
		<path class="st4" d="M248.9,122.5h-1.2v25h1.2V122.5z"/>
		<path class="st4" d="M325.2,197.5H172.8v1.2h152.4V197.5z"/>
	</g>
</g>
<path d="M367.4,179.4c0,0.8-0.1,1.4-0.4,2c-0.2,0.6-0.6,1-1.1,1.3c-0.4,0.3-1,0.4-1.6,0.4c-0.6,0-1.1-0.2-1.6-0.4
	c-0.5-0.3-0.8-0.7-1.1-1.2c-0.2-0.6-0.4-1.2-0.4-1.9v-0.6c0-0.7,0.1-1.4,0.4-1.9c0.2-0.6,0.6-1,1.1-1.3c0.5-0.3,1-0.4,1.6-0.4
	c0.6,0,1.2,0.2,1.6,0.4c0.5,0.3,0.8,0.7,1.1,1.3c0.2,0.6,0.4,1.2,0.4,2V179.4z M366.4,178.9c0-0.9-0.2-1.6-0.6-2.1
	c-0.4-0.5-0.9-0.7-1.5-0.7s-1.1,0.2-1.5,0.7c-0.4,0.5-0.6,1.2-0.6,2v0.6c0,0.9,0.2,1.6,0.6,2c0.4,0.5,0.9,0.8,1.5,0.8
	c0.6,0,1.2-0.2,1.5-0.7c0.4-0.5,0.5-1.2,0.6-2L366.4,178.9L366.4,178.9z M372.2,182.4c-0.4,0.4-0.9,0.7-1.6,0.7
	c-0.6,0-1-0.2-1.4-0.5c-0.3-0.4-0.5-0.9-0.5-1.6v-3.7h1v3.6c0,0.8,0.4,1.3,1,1.3c0.7,0,1.2-0.3,1.5-0.8v-4.1h1v5.6h-0.9L372.2,182.4
	z M375.9,175.9v1.4h1v0.8h-1v3.5c0,0.2,0,0.4,0.2,0.5c0.1,0.1,0.2,0.2,0.5,0.2c0.1,0,0.3,0,0.4-0.1v0.8c-0.2,0.1-0.5,0.1-0.7,0.1
	c-0.4,0-0.8-0.1-1-0.4c-0.2-0.3-0.3-0.6-0.3-1.1v-3.5h-1v-0.8h1v-1.4H375.9z M378.2,182.9v-7.6h2.2c0.7,0,1.2,0.2,1.8,0.4
	c0.5,0.3,0.9,0.7,1.2,1.2c0.3,0.5,0.4,1.2,0.4,1.8v0.5c0,0.7-0.1,1.4-0.4,1.9c-0.3,0.5-0.7,1-1.2,1.2c-0.5,0.3-1.1,0.4-1.8,0.4
	L378.2,182.9L378.2,182.9z M379.2,176.2v5.9h1c0.8,0,1.4-0.2,1.8-0.7c0.4-0.5,0.6-1.2,0.6-2v-0.4c0-0.9-0.2-1.5-0.6-2
	c-0.4-0.5-1-0.7-1.7-0.7L379.2,176.2L379.2,176.2z M384.8,180.1c0-0.6,0.1-1,0.3-1.5s0.5-0.8,0.9-1c0.4-0.2,0.8-0.4,1.3-0.4
	c0.8,0,1.4,0.3,1.9,0.8c0.5,0.5,0.7,1.2,0.7,2.1v0.1c0,0.6-0.1,1-0.3,1.5c-0.2,0.4-0.5,0.8-0.9,1c-0.4,0.2-0.8,0.4-1.4,0.4
	c-0.8,0-1.4-0.3-1.9-0.8C385,181.7,384.7,181,384.8,180.1L384.8,180.1L384.8,180.1z M385.7,180.2c0,0.6,0.2,1.1,0.4,1.5
	c0.3,0.4,0.7,0.6,1.2,0.6s0.9-0.2,1.2-0.6c0.3-0.4,0.4-0.9,0.4-1.6c0-0.6-0.2-1.1-0.4-1.5c-0.3-0.4-0.7-0.6-1.2-0.6
	s-0.8,0.2-1.2,0.6C385.9,178.9,385.7,179.5,385.7,180.2z M390.8,180.1c0-0.6,0.1-1,0.3-1.5c0.2-0.4,0.5-0.8,0.9-1
	c0.4-0.2,0.8-0.4,1.3-0.4c0.8,0,1.4,0.3,1.9,0.8c0.5,0.5,0.7,1.2,0.7,2.1v0.1c0,0.6-0.1,1-0.3,1.5c-0.2,0.4-0.5,0.8-0.9,1
	c-0.4,0.2-0.8,0.4-1.4,0.4c-0.8,0-1.4-0.3-1.9-0.8C391,181.7,390.8,181,390.8,180.1L390.8,180.1L390.8,180.1z M391.8,180.2
	c0,0.6,0.2,1.1,0.4,1.5c0.3,0.4,0.7,0.6,1.2,0.6s0.9-0.2,1.2-0.6c0.3-0.4,0.4-0.9,0.4-1.6c0-0.6-0.2-1.1-0.4-1.5
	c-0.3-0.4-0.7-0.6-1.2-0.6s-0.8,0.2-1.2,0.6C391.9,178.9,391.8,179.5,391.8,180.2z M398.1,178c0.4-0.5,1-0.8,1.7-0.8
	c1.2,0,1.8,0.7,1.8,2v3.7h-1v-3.7c0-0.4-0.1-0.7-0.3-0.9c-0.2-0.2-0.5-0.3-0.8-0.3c-0.3,0-0.6,0.1-0.8,0.2c-0.2,0.2-0.4,0.4-0.6,0.6
	v4h-1v-8h1V178z M405.3,183c-0.8,0-1.4-0.2-1.9-0.8c-0.5-0.5-0.7-1.2-0.7-2v-0.2c0-0.6,0.1-1,0.3-1.5s0.5-0.8,0.9-1
	c0.4-0.2,0.8-0.4,1.2-0.4c0.7,0,1.3,0.2,1.7,0.7c0.4,0.5,0.6,1.2,0.6,2.1v0.4h-3.8c0,0.6,0.2,1,0.5,1.4c0.3,0.3,0.7,0.5,1.2,0.5
	c0.3,0,0.6-0.1,0.9-0.2c0.2-0.1,0.4-0.3,0.6-0.6l0.6,0.4C406.9,182.7,406.3,183,405.3,183z M405.2,178c-0.4,0-0.7,0.2-1,0.4
	c-0.3,0.3-0.4,0.7-0.5,1.2h2.8v-0.1c0-0.5-0.2-0.9-0.4-1.1C405.9,178.1,405.6,178,405.2,178z M408.4,180.1c0-0.9,0.2-1.6,0.6-2.1
	c0.4-0.5,1-0.8,1.6-0.8c0.6,0,1.2,0.2,1.6,0.7V175h1v8h-0.9l0-0.6c-0.4,0.5-0.9,0.7-1.6,0.7c-0.6,0-1.2-0.3-1.6-0.8
	c-0.4-0.5-0.6-1.2-0.6-2.1V180.1z M409.3,180.2c0,0.6,0.1,1.2,0.4,1.5c0.3,0.4,0.6,0.6,1.1,0.6c0.6,0,1-0.3,1.3-0.8v-2.6
	c-0.3-0.5-0.7-0.8-1.3-0.8c-0.5,0-0.8,0.2-1.1,0.6C409.5,178.9,409.3,179.5,409.3,180.2z"/>
<path d="M431.2,180.9c0-0.3-0.1-0.5-0.2-0.7s-0.4-0.3-0.8-0.5c-0.4-0.2-0.7-0.3-1-0.4c-0.3-0.2-0.5-0.3-0.7-0.5
	c-0.2-0.2-0.4-0.4-0.4-0.6c-0.1-0.2-0.2-0.5-0.2-0.9c0-0.6,0.2-1.1,0.6-1.4c0.4-0.4,0.9-0.6,1.5-0.6v-1.1h0.8v1.1
	c0.6,0.1,1.1,0.4,1.4,0.8c0.4,0.4,0.5,1,0.5,1.6h-1.5c0-0.4-0.1-0.7-0.3-0.9c-0.2-0.2-0.4-0.3-0.7-0.3c-0.3,0-0.5,0.1-0.7,0.2
	c-0.2,0.2-0.2,0.4-0.2,0.7c0,0.3,0.1,0.5,0.2,0.6c0.2,0.2,0.4,0.3,0.8,0.5c0.4,0.2,0.8,0.3,1,0.5c0.3,0.2,0.5,0.3,0.7,0.5
	c0.2,0.2,0.3,0.4,0.4,0.6c0.1,0.2,0.2,0.5,0.2,0.8c0,0.6-0.2,1.1-0.6,1.4c-0.4,0.4-0.9,0.6-1.5,0.6v1h-0.8v-1
	c-0.7-0.1-1.3-0.3-1.6-0.8c-0.4-0.4-0.6-1-0.6-1.7h1.5c0,0.4,0.1,0.7,0.3,1c0.2,0.2,0.5,0.3,0.8,0.3c0.3,0,0.6-0.1,0.7-0.2
	C431.1,181.4,431.2,181.2,431.2,180.9z M438.1,180.1h0.8v1.2h-0.8v1.6h-1.5v-1.6h-3.1l-0.1-1l3.1-5h1.5L438.1,180.1L438.1,180.1z
	 M434.9,180.1h1.7v-2.7l-0.1,0.2L434.9,180.1z M440,179.2l0.4-3.8h4.2v1.2h-3l-0.2,1.6c0.4-0.2,0.7-0.3,1.2-0.3
	c0.7,0,1.3,0.2,1.7,0.7c0.4,0.4,0.6,1.1,0.6,1.9c0,0.5-0.1,0.9-0.3,1.3c-0.2,0.4-0.5,0.7-0.9,0.9c-0.4,0.2-0.8,0.3-1.4,0.3
	c-0.4,0-0.9-0.1-1.3-0.3c-0.4-0.2-0.7-0.4-0.9-0.8c-0.2-0.3-0.4-0.7-0.4-1.2h1.5c0,0.3,0.2,0.6,0.3,0.7c0.2,0.2,0.4,0.3,0.8,0.3
	c0.4,0,0.6-0.1,0.8-0.4c0.2-0.2,0.3-0.6,0.3-1c0-0.4-0.1-0.8-0.3-1c-0.2-0.2-0.5-0.4-0.9-0.4c-0.4,0-0.6,0.1-0.9,0.3l-0.2,0.1
	L440,179.2z M446.3,184.8l-0.8-0.4l0.2-0.3c0.2-0.4,0.4-0.8,0.4-1.3v-1.2h1.3v1c0,0.4-0.1,0.8-0.3,1.2
	C446.9,184.2,446.7,184.6,446.3,184.8z M452.9,180.1h0.8v1.2h-0.8v1.6h-1.5v-1.6h-3.1l-0.1-1l3.1-5h1.5V180.1z M449.8,180.1h1.7
	v-2.7l-0.1,0.2L449.8,180.1z M458.6,175.3v1.2h-0.2c-0.7,0-1.2,0.2-1.6,0.5c-0.4,0.4-0.7,0.8-0.8,1.4c0.4-0.4,0.9-0.6,1.5-0.6
	c0.6,0,1.2,0.2,1.6,0.7c0.4,0.5,0.6,1.1,0.6,1.9c0,0.5-0.1,0.9-0.3,1.3c-0.2,0.4-0.5,0.7-0.9,0.9c-0.4,0.2-0.8,0.3-1.3,0.3
	c-0.8,0-1.4-0.3-1.9-0.8c-0.5-0.6-0.7-1.3-0.7-2.2v-0.6c0-0.8,0.2-1.6,0.5-2.1c0.3-0.6,0.8-1.1,1.3-1.5c0.6-0.4,1.2-0.5,2-0.5
	L458.6,175.3L458.6,175.3z M457.2,179.1c-0.2,0-0.5,0.1-0.7,0.2c-0.2,0.1-0.4,0.3-0.4,0.5v0.4c0,0.5,0.1,0.9,0.3,1.2
	c0.2,0.3,0.5,0.4,0.8,0.4c0.3,0,0.6-0.1,0.8-0.4c0.2-0.2,0.3-0.6,0.3-1c0-0.4-0.1-0.8-0.3-1C457.8,179.2,457.5,179.1,457.2,179.1z
	 M465.8,179.8c0,1-0.2,1.8-0.6,2.4c-0.4,0.6-1.1,0.8-1.9,0.8s-1.4-0.3-1.9-0.8c-0.4-0.6-0.7-1.3-0.7-2.3v-1.4c0-1,0.2-1.9,0.6-2.4
	c0.4-0.6,1.1-0.8,1.9-0.8s1.4,0.3,1.9,0.8c0.4,0.6,0.7,1.3,0.7,2.3V179.8z M464.3,178.3c0-0.6-0.1-1.1-0.3-1.4
	c-0.2-0.3-0.4-0.4-0.8-0.4s-0.6,0.1-0.8,0.4c-0.2,0.3-0.2,0.7-0.3,1.3v1.8c0,0.6,0.1,1.1,0.2,1.4c0.2,0.3,0.4,0.4,0.8,0.4
	c0.4,0,0.6-0.2,0.8-0.4c0.2-0.3,0.2-0.7,0.2-1.3L464.3,178.3L464.3,178.3z M466.9,182.2c0-0.2,0.1-0.4,0.2-0.6
	c0.2-0.2,0.4-0.2,0.6-0.2c0.2,0,0.4,0.1,0.6,0.2c0.2,0.2,0.2,0.4,0.2,0.6s-0.1,0.4-0.2,0.6c-0.2,0.2-0.4,0.2-0.6,0.2
	c-0.2,0-0.4-0.1-0.6-0.2C467,182.6,466.9,182.4,466.9,182.2z M473.4,179.9c-0.4,0.4-0.8,0.6-1.4,0.6c-0.7,0-1.2-0.2-1.6-0.7
	c-0.4-0.5-0.6-1.1-0.6-1.9c0-0.5,0.1-1,0.3-1.4c0.2-0.4,0.5-0.7,0.9-1c0.4-0.2,0.8-0.4,1.3-0.4c0.5,0,1,0.1,1.3,0.4
	c0.4,0.2,0.7,0.6,0.9,1.1c0.2,0.5,0.3,1,0.3,1.6v0.6c0,1.3-0.3,2.2-1,3c-0.6,0.7-1.5,1.1-2.7,1.2h-0.4v-1.2h0.3
	C472.6,181.7,473.3,181.1,473.4,179.9z M472.4,179.3c0.2,0,0.4-0.1,0.6-0.2c0.2-0.1,0.3-0.3,0.4-0.4v-0.6c0-0.5-0.1-0.9-0.3-1.2
	c-0.2-0.3-0.4-0.4-0.8-0.4c-0.3,0-0.6,0.1-0.8,0.4c-0.2,0.3-0.3,0.6-0.3,1c0,0.4,0.1,0.8,0.3,1C471.8,179.2,472.1,179.3,472.4,179.3
	z M480.4,180.1h0.8v1.2h-0.8v1.6h-1.5v-1.6h-3.1l-0.1-1l3.1-5h1.5L480.4,180.1L480.4,180.1z M477.2,180.1h1.7v-2.7l-0.1,0.2
	L477.2,180.1z"/>
<path class="st14" d="M350,182.2c2.2,0,4-1.8,4-4s-1.8-4-4-4c-2.2,0-4,1.8-4,4S347.8,182.2,350,182.2z"/>
<path d="M431.2,203.5c0-0.3-0.1-0.5-0.2-0.7c-0.2-0.2-0.4-0.3-0.8-0.5c-0.4-0.2-0.7-0.3-1-0.4c-0.3-0.2-0.5-0.3-0.7-0.5
	c-0.2-0.2-0.4-0.4-0.4-0.6c-0.1-0.2-0.2-0.5-0.2-0.9c0-0.6,0.2-1.1,0.6-1.4c0.4-0.4,0.9-0.6,1.5-0.6v-1.1h0.8v1.1
	c0.6,0.1,1.1,0.4,1.4,0.8c0.4,0.4,0.5,1,0.5,1.6h-1.5c0-0.4-0.1-0.7-0.3-0.9c-0.2-0.2-0.4-0.3-0.7-0.3c-0.3,0-0.5,0.1-0.7,0.2
	c-0.2,0.2-0.2,0.4-0.2,0.7c0,0.3,0.1,0.5,0.2,0.6c0.2,0.2,0.4,0.3,0.8,0.5c0.4,0.2,0.8,0.3,1,0.5c0.3,0.2,0.5,0.3,0.7,0.5
	c0.2,0.2,0.3,0.4,0.4,0.6c0.1,0.2,0.2,0.5,0.2,0.8c0,0.6-0.2,1.1-0.6,1.4c-0.4,0.4-0.9,0.6-1.5,0.6v1h-0.8v-1
	c-0.7-0.1-1.3-0.3-1.6-0.8c-0.4-0.4-0.6-1-0.6-1.7h1.5c0,0.4,0.1,0.7,0.3,1c0.2,0.2,0.5,0.3,0.8,0.3c0.3,0,0.6-0.1,0.7-0.2
	C431.1,204,431.2,203.8,431.2,203.5z M435.2,201.1h0.8c0.4,0,0.7-0.1,0.8-0.3c0.2-0.2,0.3-0.4,0.3-0.8c0-0.3-0.1-0.6-0.3-0.7
	c-0.2-0.2-0.4-0.2-0.8-0.2c-0.3,0-0.5,0.1-0.7,0.2c-0.2,0.2-0.3,0.4-0.3,0.6h-1.5c0-0.4,0.1-0.8,0.3-1.1c0.2-0.3,0.5-0.6,0.9-0.7
	c0.4-0.2,0.8-0.3,1.3-0.3c0.8,0,1.4,0.2,1.9,0.6c0.4,0.4,0.7,0.9,0.7,1.6c0,0.4-0.1,0.7-0.3,1c-0.2,0.3-0.5,0.5-0.8,0.7
	c0.4,0.2,0.8,0.4,1,0.7c0.2,0.3,0.3,0.7,0.3,1.1c0,0.7-0.2,1.2-0.7,1.6c-0.5,0.4-1.1,0.6-2,0.6c-0.8,0-1.4-0.2-1.9-0.6
	c-0.5-0.4-0.7-0.9-0.7-1.6h1.5c0,0.3,0.1,0.5,0.3,0.7c0.2,0.2,0.5,0.3,0.8,0.3c0.4,0,0.6-0.1,0.8-0.3s0.3-0.4,0.3-0.8
	c0-0.8-0.4-1.1-1.2-1.1h-0.8V201.1z M444.7,200c0,0.4-0.1,0.7-0.3,1c-0.2,0.3-0.4,0.5-0.8,0.7c0.4,0.2,0.7,0.4,0.9,0.7
	c0.2,0.3,0.3,0.7,0.3,1.1c0,0.7-0.2,1.2-0.7,1.6c-0.4,0.4-1.1,0.6-1.9,0.6c-0.8,0-1.4-0.2-1.9-0.6c-0.5-0.4-0.7-0.9-0.7-1.6
	c0-0.4,0.1-0.8,0.3-1.1c0.2-0.3,0.5-0.6,0.9-0.7c-0.3-0.2-0.6-0.4-0.8-0.7c-0.2-0.3-0.3-0.6-0.3-1c0-0.6,0.2-1.2,0.6-1.6
	c0.4-0.4,1-0.6,1.8-0.6c0.7,0,1.3,0.2,1.8,0.6C444.5,198.8,444.7,199.3,444.7,200z M443.4,203.3c0-0.3-0.1-0.6-0.3-0.8
	c-0.2-0.2-0.4-0.3-0.8-0.3s-0.6,0.1-0.8,0.3c-0.2,0.2-0.3,0.4-0.3,0.8c0,0.3,0.1,0.6,0.3,0.8c0.2,0.2,0.4,0.3,0.8,0.3
	c0.3,0,0.6-0.1,0.8-0.3C443.3,203.9,443.4,203.7,443.4,203.3z M443.2,200c0-0.3-0.1-0.5-0.2-0.7c-0.2-0.2-0.4-0.3-0.7-0.3
	c-0.3,0-0.5,0.1-0.6,0.3c-0.2,0.2-0.2,0.4-0.2,0.7c0,0.3,0.1,0.6,0.2,0.7c0.2,0.2,0.4,0.3,0.7,0.3c0.3,0,0.5-0.1,0.6-0.3
	C443.1,200.6,443.2,200.3,443.2,200z M446,204.8c0-0.2,0.1-0.4,0.2-0.6c0.2-0.2,0.4-0.2,0.6-0.2c0.2,0,0.4,0.1,0.6,0.2
	c0.2,0.2,0.2,0.4,0.2,0.6c0,0.2-0.1,0.4-0.2,0.6c-0.2,0.2-0.4,0.2-0.6,0.2c-0.2,0-0.4-0.1-0.6-0.2C446.1,205.2,446,205,446,204.8z
	 M449.4,207.4l-0.8-0.4l0.2-0.3c0.2-0.4,0.4-0.8,0.4-1.3v-1.2h1.3v1c0,0.4-0.1,0.8-0.3,1.2C450,206.8,449.7,207.1,449.4,207.4z
	 M456,202.7h0.8v1.2H456v1.6h-1.5v-1.6h-3.1l-0.1-1l3.1-5h1.5L456,202.7L456,202.7z M452.8,202.7h1.7V200l-0.1,0.2L452.8,202.7z
	 M462.8,202.4c0,1-0.2,1.8-0.6,2.4c-0.4,0.6-1.1,0.8-1.9,0.8c-0.8,0-1.4-0.3-1.9-0.8c-0.4-0.6-0.7-1.3-0.7-2.3v-1.4
	c0-1,0.2-1.9,0.6-2.4c0.4-0.6,1.1-0.8,1.9-0.8c0.8,0,1.4,0.3,1.9,0.8c0.4,0.6,0.7,1.3,0.7,2.3V202.4z M461.3,200.8
	c0-0.6-0.1-1.1-0.2-1.4c-0.2-0.3-0.4-0.4-0.8-0.4c-0.4,0-0.6,0.1-0.8,0.4c-0.2,0.3-0.2,0.7-0.3,1.3v1.8c0,0.6,0.1,1.1,0.2,1.4
	c0.2,0.3,0.4,0.4,0.8,0.4c0.4,0,0.6-0.2,0.8-0.4c0.2-0.3,0.2-0.7,0.2-1.3L461.3,200.8L461.3,200.8z M468.9,202.4
	c0,1-0.2,1.8-0.6,2.4c-0.4,0.6-1.1,0.8-1.9,0.8c-0.8,0-1.4-0.3-1.9-0.8c-0.4-0.6-0.7-1.3-0.7-2.3v-1.4c0-1,0.2-1.9,0.6-2.4
	c0.4-0.6,1.1-0.8,1.9-0.8c0.8,0,1.4,0.3,1.9,0.8c0.4,0.6,0.7,1.3,0.7,2.3V202.4z M467.4,200.8c0-0.6-0.1-1.1-0.2-1.4
	c-0.2-0.3-0.4-0.4-0.8-0.4c-0.4,0-0.6,0.1-0.8,0.4c-0.2,0.3-0.2,0.7-0.3,1.3v1.8c0,0.6,0.1,1.1,0.2,1.4c0.2,0.3,0.4,0.4,0.8,0.4
	c0.4,0,0.6-0.2,0.8-0.4c0.2-0.3,0.2-0.7,0.2-1.3L467.4,200.8L467.4,200.8z M470,204.8c0-0.2,0.1-0.4,0.2-0.6
	c0.2-0.2,0.4-0.2,0.6-0.2c0.2,0,0.4,0.1,0.6,0.2c0.2,0.2,0.2,0.4,0.2,0.6c0,0.2-0.1,0.4-0.2,0.6c-0.2,0.2-0.4,0.2-0.6,0.2
	c-0.2,0-0.4-0.1-0.6-0.2C470.1,205.2,470,205,470,204.8z M478.2,205.5H473v-1l2.4-2.6c0.3-0.4,0.6-0.7,0.8-1
	c0.2-0.3,0.2-0.5,0.2-0.8c0-0.3-0.1-0.6-0.2-0.8s-0.4-0.3-0.7-0.3c-0.4,0-0.6,0.1-0.8,0.4c-0.2,0.2-0.3,0.6-0.3,0.9h-1.5
	c0-0.5,0.1-0.9,0.3-1.3c0.2-0.4,0.5-0.7,0.9-0.9c0.4-0.2,0.9-0.3,1.4-0.3c0.8,0,1.4,0.2,1.8,0.6c0.4,0.4,0.6,0.9,0.6,1.6
	c0,0.4-0.1,0.8-0.3,1.2c-0.2,0.4-0.5,0.8-1,1.4l-1.7,1.8h3.3V205.5z M482.7,205.5h-1.5v-5.8l-1.8,0.6V199l3.1-1.1h0.2V205.5z"/>
<path d="M361.5,205.5v-7.6h2.1c0.7,0,1.2,0.2,1.8,0.4c0.5,0.3,0.9,0.7,1.2,1.2c0.3,0.5,0.4,1.2,0.4,1.8v0.5c0,0.7-0.1,1.4-0.4,1.9
	c-0.3,0.5-0.7,1-1.2,1.2c-0.5,0.3-1.1,0.4-1.8,0.4L361.5,205.5L361.5,205.5z M362.5,198.8v5.9h1c0.8,0,1.4-0.2,1.8-0.7
	c0.4-0.5,0.6-1.2,0.6-2v-0.4c0-0.9-0.2-1.5-0.6-2c-0.4-0.5-1-0.7-1.7-0.7L362.5,198.8L362.5,198.8z M368.1,202.6
	c0-0.6,0.1-1,0.3-1.5c0.2-0.4,0.5-0.8,0.9-1c0.4-0.2,0.8-0.4,1.3-0.4c0.8,0,1.4,0.3,1.9,0.8c0.5,0.5,0.7,1.2,0.7,2.1v0.1
	c0,0.6-0.1,1-0.3,1.5s-0.5,0.8-0.9,1c-0.4,0.2-0.8,0.4-1.4,0.4c-0.8,0-1.4-0.3-1.9-0.8C368.3,204.3,368.1,203.5,368.1,202.6
	L368.1,202.6L368.1,202.6z M369.1,202.7c0,0.6,0.2,1.1,0.4,1.5c0.3,0.4,0.7,0.6,1.2,0.6s0.9-0.2,1.2-0.6c0.3-0.4,0.4-0.9,0.4-1.6
	c0-0.6-0.2-1.1-0.4-1.5c-0.3-0.4-0.7-0.6-1.2-0.6s-0.8,0.2-1.2,0.6C369.2,201.5,369.1,202.1,369.1,202.7z M374.2,202.6
	c0-0.6,0.1-1,0.3-1.5c0.2-0.4,0.5-0.8,0.9-1c0.4-0.2,0.8-0.4,1.3-0.4c0.8,0,1.4,0.3,1.8,0.8c0.5,0.5,0.7,1.2,0.7,2.1v0.1
	c0,0.6-0.1,1-0.3,1.5s-0.5,0.8-0.9,1c-0.4,0.2-0.8,0.4-1.4,0.4c-0.8,0-1.4-0.3-1.8-0.8C374.4,204.3,374.1,203.5,374.2,202.6
	L374.2,202.6L374.2,202.6z M375.1,202.7c0,0.6,0.2,1.1,0.4,1.5c0.3,0.4,0.7,0.6,1.2,0.6c0.5,0,0.9-0.2,1.2-0.6
	c0.3-0.4,0.4-0.9,0.4-1.6c0-0.6-0.2-1.1-0.4-1.5c-0.3-0.4-0.7-0.6-1.2-0.6c-0.5,0-0.9,0.2-1.2,0.6
	C375.3,201.5,375.1,202.1,375.1,202.7z M381.5,200.6c0.4-0.5,1-0.8,1.7-0.8c1.2,0,1.8,0.7,1.8,2v3.7h-1v-3.7c0-0.4-0.1-0.7-0.3-0.9
	c-0.2-0.2-0.5-0.3-0.8-0.3c-0.3,0-0.6,0.1-0.8,0.2c-0.2,0.2-0.4,0.4-0.6,0.6v4h-1v-8h1V200.6z M387.8,197.9l2.5,6.2l2.5-6.2h1.3v7.6
	h-1v-2.9l0.1-3.2l-2.5,6.1h-0.8l-2.5-6.1l0.1,3.1v2.9h-1v-7.6H387.8z M395.4,202.6c0-0.6,0.1-1,0.3-1.5c0.2-0.4,0.5-0.8,0.9-1
	c0.4-0.2,0.8-0.4,1.3-0.4c0.8,0,1.4,0.3,1.9,0.8c0.5,0.5,0.7,1.2,0.7,2.1v0.1c0,0.6-0.1,1-0.3,1.5c-0.2,0.4-0.5,0.8-0.9,1
	c-0.4,0.2-0.8,0.4-1.4,0.4c-0.8,0-1.4-0.3-1.9-0.8C395.6,204.3,395.3,203.5,395.4,202.6L395.4,202.6L395.4,202.6z M396.3,202.7
	c0,0.6,0.2,1.1,0.4,1.5c0.3,0.4,0.7,0.6,1.2,0.6s0.9-0.2,1.2-0.6c0.3-0.4,0.4-0.9,0.4-1.6c0-0.6-0.2-1.1-0.4-1.5
	c-0.3-0.4-0.7-0.6-1.2-0.6s-0.8,0.2-1.2,0.6C396.5,201.5,396.3,202.1,396.3,202.7z M404.4,200.8c-0.2,0-0.3,0-0.5,0
	c-0.6,0-1.1,0.3-1.3,0.8v4h-1v-5.6h0.9v0.6c0.3-0.5,0.8-0.8,1.4-0.8c0.2,0,0.3,0,0.4,0.1V200.8z M407.5,205.6
	c-0.8,0-1.4-0.2-1.9-0.8c-0.5-0.5-0.7-1.2-0.7-2v-0.2c0-0.6,0.1-1,0.3-1.5c0.2-0.4,0.5-0.8,0.9-1c0.4-0.2,0.8-0.4,1.2-0.4
	c0.7,0,1.3,0.2,1.7,0.7c0.4,0.5,0.6,1.2,0.6,2.1v0.4h-3.8c0,0.6,0.2,1,0.5,1.4c0.3,0.4,0.7,0.5,1.2,0.5c0.3,0,0.6-0.1,0.9-0.2
	c0.2-0.1,0.4-0.3,0.6-0.6l0.6,0.4C409.1,205.3,408.5,205.6,407.5,205.6z M407.4,200.6c-0.4,0-0.7,0.2-1,0.4
	c-0.3,0.3-0.4,0.7-0.5,1.2h2.8v-0.1c0-0.5-0.2-0.9-0.4-1.1C408.1,200.7,407.8,200.6,407.4,200.6z"/>
<path class="st15" d="M350,204.7c2.2,0,4-1.8,4-4c0-2.2-1.8-4-4-4c-2.2,0-4,1.8-4,4C346.1,202.9,347.8,204.7,350,204.7z"/>
<path d="M431.2,226.1c0-0.3-0.1-0.5-0.2-0.7c-0.2-0.2-0.4-0.3-0.8-0.5c-0.4-0.2-0.7-0.3-1-0.4c-0.3-0.2-0.5-0.3-0.7-0.5
	c-0.2-0.2-0.4-0.4-0.4-0.6c-0.1-0.2-0.2-0.6-0.2-0.9c0-0.6,0.2-1.1,0.6-1.4c0.4-0.4,0.9-0.6,1.5-0.6v-1.1h0.8v1.1
	c0.6,0.1,1.1,0.4,1.4,0.8c0.4,0.4,0.5,1,0.5,1.6h-1.5c0-0.4-0.1-0.7-0.2-0.9c-0.2-0.2-0.4-0.3-0.7-0.3c-0.3,0-0.5,0.1-0.7,0.2
	c-0.2,0.2-0.2,0.4-0.2,0.7c0,0.3,0.1,0.5,0.2,0.6c0.2,0.2,0.4,0.3,0.8,0.5c0.4,0.2,0.8,0.3,1,0.5c0.3,0.2,0.5,0.3,0.7,0.5
	c0.2,0.2,0.3,0.4,0.4,0.6c0.1,0.2,0.2,0.5,0.2,0.8c0,0.6-0.2,1.1-0.6,1.4s-0.9,0.6-1.5,0.6v1h-0.8v-1c-0.7-0.1-1.3-0.3-1.6-0.8
	c-0.4-0.4-0.6-1-0.6-1.7h1.5c0,0.4,0.1,0.7,0.3,1c0.2,0.2,0.5,0.3,0.8,0.3c0.3,0,0.6-0.1,0.7-0.2
	C431.1,226.6,431.2,226.4,431.2,226.1z M435.2,223.6h0.8c0.4,0,0.7-0.1,0.8-0.3c0.2-0.2,0.3-0.4,0.3-0.8c0-0.3-0.1-0.6-0.3-0.7
	c-0.2-0.2-0.4-0.2-0.8-0.2c-0.3,0-0.5,0.1-0.7,0.2c-0.2,0.2-0.3,0.4-0.3,0.6h-1.5c0-0.4,0.1-0.8,0.3-1.1c0.2-0.3,0.5-0.6,0.9-0.7
	c0.4-0.2,0.8-0.3,1.3-0.3c0.8,0,1.4,0.2,1.9,0.6c0.4,0.4,0.7,0.9,0.7,1.6c0,0.4-0.1,0.7-0.3,1c-0.2,0.3-0.5,0.5-0.8,0.7
	c0.4,0.2,0.8,0.4,1,0.7c0.2,0.3,0.3,0.7,0.3,1.1c0,0.7-0.2,1.2-0.7,1.6c-0.5,0.4-1.1,0.6-2,0.6c-0.8,0-1.4-0.2-1.9-0.6
	c-0.5-0.4-0.7-0.9-0.7-1.6h1.5c0,0.3,0.1,0.5,0.3,0.7c0.2,0.2,0.5,0.3,0.8,0.3c0.4,0,0.6-0.1,0.8-0.3c0.2-0.2,0.3-0.4,0.3-0.8
	c0-0.8-0.4-1.1-1.2-1.1h-0.8V223.6z M443.4,228.1H442v-5.8l-1.8,0.6v-1.2l3.1-1.1h0.2L443.4,228.1L443.4,228.1z M446,227.3
	c0-0.2,0.1-0.4,0.2-0.6c0.2-0.2,0.4-0.2,0.6-0.2c0.2,0,0.4,0.1,0.6,0.2c0.2,0.2,0.2,0.4,0.2,0.6s-0.1,0.4-0.2,0.6
	c-0.2,0.2-0.4,0.2-0.6,0.2c-0.2,0-0.4-0.1-0.6-0.2C446.1,227.7,446,227.6,446,227.3z M450.5,223.6h0.8c0.4,0,0.7-0.1,0.8-0.3
	c0.2-0.2,0.3-0.4,0.3-0.8c0-0.3-0.1-0.6-0.3-0.7c-0.2-0.2-0.4-0.2-0.8-0.2c-0.3,0-0.5,0.1-0.7,0.2c-0.2,0.2-0.3,0.4-0.3,0.6h-1.5
	c0-0.4,0.1-0.8,0.3-1.1c0.2-0.3,0.5-0.6,0.9-0.7c0.4-0.2,0.8-0.3,1.3-0.3c0.8,0,1.4,0.2,1.9,0.6c0.4,0.4,0.7,0.9,0.7,1.6
	c0,0.4-0.1,0.7-0.3,1c-0.2,0.3-0.5,0.5-0.8,0.7c0.4,0.2,0.8,0.4,1,0.7c0.2,0.3,0.3,0.7,0.3,1.1c0,0.7-0.2,1.2-0.7,1.6
	c-0.5,0.4-1.1,0.6-2,0.6c-0.8,0-1.4-0.2-1.9-0.6c-0.5-0.4-0.7-0.9-0.7-1.6h1.5c0,0.3,0.1,0.5,0.3,0.7c0.2,0.2,0.5,0.3,0.8,0.3
	c0.4,0,0.6-0.1,0.8-0.3c0.2-0.2,0.3-0.4,0.3-0.8c0-0.8-0.4-1.1-1.2-1.1h-0.8V223.6z M460.2,225c0,1-0.2,1.8-0.6,2.4
	c-0.4,0.6-1.1,0.8-1.9,0.8s-1.4-0.3-1.9-0.8c-0.4-0.6-0.7-1.3-0.7-2.4v-1.4c0-1,0.2-1.9,0.6-2.4c0.4-0.6,1.1-0.8,1.9-0.8
	s1.4,0.3,1.9,0.8c0.4,0.6,0.7,1.3,0.7,2.3V225z M458.7,223.4c0-0.6-0.1-1.1-0.2-1.4c-0.2-0.3-0.4-0.4-0.8-0.4
	c-0.4,0-0.6,0.1-0.8,0.4c-0.2,0.3-0.2,0.7-0.3,1.3v1.8c0,0.6,0.1,1.1,0.2,1.4c0.2,0.3,0.4,0.4,0.8,0.4s0.6-0.2,0.8-0.4
	c0.2-0.3,0.2-0.7,0.2-1.3L458.7,223.4L458.7,223.4z M466.3,225c0,1-0.2,1.8-0.6,2.4c-0.4,0.6-1.1,0.8-1.9,0.8s-1.4-0.3-1.9-0.8
	c-0.4-0.6-0.7-1.3-0.7-2.4v-1.4c0-1,0.2-1.9,0.6-2.4c0.4-0.6,1.1-0.8,1.9-0.8s1.4,0.3,1.9,0.8c0.4,0.6,0.7,1.3,0.7,2.3V225z
	 M464.8,223.4c0-0.6-0.1-1.1-0.2-1.4c-0.2-0.3-0.4-0.4-0.8-0.4c-0.4,0-0.6,0.1-0.8,0.4c-0.2,0.3-0.2,0.7-0.3,1.3v1.8
	c0,0.6,0.1,1.1,0.2,1.4c0.2,0.3,0.4,0.4,0.8,0.4c0.4,0,0.6-0.2,0.8-0.4c0.2-0.3,0.2-0.7,0.2-1.3L464.8,223.4L464.8,223.4z
	 M467.4,227.3c0-0.2,0.1-0.4,0.2-0.6c0.2-0.2,0.4-0.2,0.6-0.2c0.2,0,0.4,0.1,0.6,0.2c0.2,0.2,0.2,0.4,0.2,0.6s-0.1,0.4-0.2,0.6
	c-0.2,0.2-0.4,0.2-0.6,0.2c-0.2,0-0.4-0.1-0.6-0.2C467.5,227.7,467.4,227.6,467.4,227.3z M470.6,224.4l0.4-3.8h4.2v1.2h-3l-0.2,1.6
	c0.4-0.2,0.7-0.3,1.2-0.3c0.7,0,1.3,0.2,1.7,0.7c0.4,0.4,0.6,1.1,0.6,1.9c0,0.5-0.1,0.9-0.3,1.3c-0.2,0.4-0.5,0.7-0.9,0.9
	c-0.4,0.2-0.8,0.3-1.4,0.3c-0.4,0-0.9-0.1-1.3-0.3s-0.7-0.4-0.9-0.8c-0.2-0.3-0.4-0.7-0.4-1.2h1.5c0,0.3,0.2,0.6,0.3,0.7
	c0.2,0.2,0.4,0.3,0.8,0.3c0.4,0,0.6-0.1,0.8-0.4c0.2-0.2,0.3-0.6,0.3-1s-0.1-0.8-0.3-1c-0.2-0.2-0.5-0.4-0.9-0.4
	c-0.4,0-0.6,0.1-0.9,0.3l-0.2,0.1L470.6,224.4z M481.4,222.5c0,0.4-0.1,0.7-0.3,1c-0.2,0.3-0.4,0.5-0.8,0.7c0.4,0.2,0.6,0.4,0.9,0.7
	c0.2,0.3,0.3,0.7,0.3,1.1c0,0.7-0.2,1.2-0.7,1.6c-0.4,0.4-1.1,0.6-1.9,0.6c-0.8,0-1.4-0.2-1.9-0.6c-0.5-0.4-0.7-0.9-0.7-1.6
	c0-0.4,0.1-0.8,0.3-1.1c0.2-0.3,0.5-0.6,0.9-0.7c-0.3-0.2-0.6-0.4-0.8-0.7c-0.2-0.3-0.3-0.6-0.3-1c0-0.6,0.2-1.2,0.6-1.6
	c0.4-0.4,1-0.6,1.8-0.6c0.7,0,1.3,0.2,1.8,0.6C481.2,221.3,481.4,221.9,481.4,222.5z M480.1,225.9c0-0.3-0.1-0.6-0.3-0.8
	c-0.2-0.2-0.4-0.3-0.8-0.3c-0.3,0-0.6,0.1-0.8,0.3c-0.2,0.2-0.3,0.4-0.3,0.8c0,0.3,0.1,0.6,0.3,0.8c0.2,0.2,0.4,0.3,0.8,0.3
	c0.3,0,0.6-0.1,0.8-0.3C479.9,226.5,480.1,226.2,480.1,225.9z M479.9,222.6c0-0.3-0.1-0.5-0.2-0.7c-0.2-0.2-0.4-0.3-0.7-0.3
	c-0.3,0-0.5,0.1-0.6,0.2c-0.2,0.2-0.2,0.4-0.2,0.7c0,0.3,0.1,0.6,0.2,0.7c0.2,0.2,0.4,0.3,0.7,0.3c0.3,0,0.5-0.1,0.6-0.3
	C479.8,223.1,479.9,222.9,479.9,222.6z"/>
<path d="M362.3,227.3h4.3v0.8h-5.5v-0.8l4.1-6h-4.1v-0.8h5.3v0.7L362.3,227.3z M367.4,225.2c0-0.6,0.1-1,0.3-1.5s0.5-0.8,0.9-1
	c0.4-0.2,0.8-0.4,1.3-0.4c0.8,0,1.4,0.3,1.9,0.8c0.5,0.5,0.7,1.2,0.7,2.1v0.1c0,0.6-0.1,1-0.3,1.5c-0.2,0.4-0.5,0.8-0.9,1
	c-0.4,0.2-0.8,0.4-1.4,0.4c-0.8,0-1.4-0.3-1.9-0.8C367.6,226.8,367.4,226.1,367.4,225.2L367.4,225.2L367.4,225.2z M368.4,225.3
	c0,0.6,0.2,1.1,0.4,1.5c0.3,0.4,0.7,0.6,1.2,0.6c0.5,0,0.9-0.2,1.2-0.6c0.3-0.4,0.4-0.9,0.4-1.6c0-0.6-0.2-1.1-0.4-1.5
	c-0.3-0.4-0.7-0.6-1.2-0.6c-0.5,0-0.8,0.2-1.2,0.6C368.5,224.1,368.4,224.6,368.4,225.3z M373.5,225.2c0-0.6,0.1-1,0.3-1.5
	c0.2-0.4,0.5-0.8,0.9-1c0.4-0.2,0.8-0.4,1.3-0.4c0.8,0,1.4,0.3,1.9,0.8c0.5,0.5,0.7,1.2,0.7,2.1v0.1c0,0.6-0.1,1-0.3,1.5
	c-0.2,0.4-0.5,0.8-0.9,1s-0.8,0.4-1.4,0.4c-0.8,0-1.4-0.3-1.9-0.8S373.4,226.1,373.5,225.2L373.5,225.2L373.5,225.2z M374.4,225.3
	c0,0.6,0.2,1.1,0.4,1.5c0.3,0.4,0.7,0.6,1.2,0.6s0.9-0.2,1.2-0.6c0.3-0.4,0.4-0.9,0.4-1.6c0-0.6-0.2-1.1-0.4-1.5
	c-0.3-0.4-0.7-0.6-1.2-0.6s-0.8,0.2-1.2,0.6C374.6,224.1,374.4,224.6,374.4,225.3z M380.7,222.5l0,0.6c0.4-0.5,1-0.7,1.7-0.7
	c0.8,0,1.3,0.3,1.6,0.9c0.2-0.3,0.4-0.5,0.7-0.6c0.3-0.2,0.6-0.2,1.1-0.2c1.2,0,1.9,0.6,1.9,2v3.7h-1v-3.7c0-0.4-0.1-0.7-0.3-0.9
	c-0.2-0.2-0.5-0.3-0.9-0.3c-0.4,0-0.6,0.1-0.9,0.3c-0.2,0.2-0.4,0.5-0.4,0.9v3.7h-1v-3.7c0-0.8-0.4-1.2-1.2-1.2
	c-0.6,0-1.1,0.3-1.3,0.8v4.1h-1v-5.6L380.7,222.5L380.7,222.5z M389.2,228.1v-7.6h2.2c0.7,0,1.2,0.2,1.8,0.4
	c0.5,0.3,0.9,0.7,1.2,1.2c0.3,0.5,0.4,1.2,0.4,1.8v0.5c0,0.7-0.1,1.4-0.4,1.9c-0.3,0.5-0.7,1-1.2,1.2c-0.5,0.3-1.1,0.4-1.8,0.4
	L389.2,228.1L389.2,228.1z M390.2,221.3v5.9h1c0.8,0,1.4-0.2,1.8-0.7c0.4-0.5,0.6-1.2,0.6-2v-0.4c0-0.9-0.2-1.5-0.6-2
	c-0.4-0.5-1-0.7-1.7-0.7L390.2,221.3L390.2,221.3z M395.8,225.2c0-0.6,0.1-1,0.3-1.5c0.2-0.4,0.5-0.8,0.9-1c0.4-0.2,0.8-0.4,1.3-0.4
	c0.8,0,1.4,0.3,1.9,0.8c0.5,0.5,0.7,1.2,0.7,2.1v0.1c0,0.6-0.1,1-0.3,1.5c-0.2,0.4-0.5,0.8-0.9,1c-0.4,0.2-0.8,0.4-1.4,0.4
	c-0.8,0-1.4-0.3-1.8-0.8C396,226.8,395.8,226.1,395.8,225.2L395.8,225.2z M396.7,225.3c0,0.6,0.2,1.1,0.4,1.5
	c0.3,0.4,0.7,0.6,1.2,0.6s0.9-0.2,1.2-0.6c0.3-0.4,0.4-0.9,0.4-1.6c0-0.6-0.2-1.1-0.4-1.5c-0.3-0.4-0.7-0.6-1.2-0.6
	s-0.9,0.2-1.2,0.6C396.9,224.1,396.7,224.6,396.7,225.3z M401.8,225.2c0-0.6,0.1-1,0.3-1.5s0.5-0.8,0.9-1c0.4-0.2,0.8-0.4,1.3-0.4
	c0.8,0,1.4,0.3,1.8,0.8c0.5,0.5,0.7,1.2,0.7,2.1v0.1c0,0.6-0.1,1-0.3,1.5c-0.2,0.4-0.5,0.8-0.9,1c-0.4,0.2-0.8,0.4-1.4,0.4
	c-0.8,0-1.4-0.3-1.8-0.8C402,226.8,401.8,226.1,401.8,225.2L401.8,225.2L401.8,225.2z M402.8,225.3c0,0.6,0.2,1.1,0.4,1.5
	c0.3,0.4,0.7,0.6,1.2,0.6s0.9-0.2,1.2-0.6c0.3-0.4,0.4-0.9,0.4-1.6c0-0.6-0.2-1.1-0.4-1.5c-0.3-0.4-0.7-0.6-1.2-0.6
	s-0.9,0.2-1.2,0.6C403,224.1,402.8,224.6,402.8,225.3z M409.1,223.1c0.4-0.5,1-0.8,1.7-0.8c1.2,0,1.8,0.7,1.8,2v3.7h-1v-3.7
	c0-0.4-0.1-0.7-0.3-0.9c-0.2-0.2-0.5-0.3-0.8-0.3c-0.3,0-0.6,0.1-0.8,0.2c-0.2,0.2-0.4,0.4-0.6,0.6v4h-1v-8h1V223.1z"/>
<path class="st11" d="M350,227.3c2.2,0,4-1.8,4-4c0-2.2-1.8-4-4-4c-2.2,0-4,1.8-4,4C346.1,225.5,347.8,227.3,350,227.3z"/>
<path d="M187,97.5h-3.4v9.3h-2.3v-9.3h-3.4v-1.9h9.1V97.5z M186.2,102.6c0-0.8,0.2-1.6,0.5-2.2c0.3-0.6,0.8-1.2,1.4-1.5
	c0.6-0.4,1.3-0.5,2.1-0.5c1.1,0,2,0.4,2.7,1c0.7,0.7,1.1,1.6,1.2,2.8v0.6c0,1.3-0.4,2.3-1.1,3.1c-0.7,0.8-1.7,1.2-2.9,1.2
	c-1.2,0-2.2-0.4-2.9-1.2C186.5,105.1,186.2,104,186.2,102.6L186.2,102.6L186.2,102.6z M188.4,102.8c0,0.8,0.2,1.4,0.4,1.8
	c0.3,0.4,0.7,0.6,1.3,0.6c0.5,0,1-0.2,1.3-0.6c0.3-0.4,0.4-1.1,0.4-2c0-0.8-0.2-1.4-0.4-1.8c-0.3-0.4-0.7-0.6-1.3-0.6
	c-0.6,0-1,0.2-1.3,0.6C188.6,101.2,188.4,101.9,188.4,102.8z M202.9,102.8c0,1.3-0.3,2.3-0.9,3.1c-0.6,0.8-1.4,1.2-2.3,1.2
	c-0.8,0-1.5-0.3-2-0.9v3.9h-2.2V98.5h2.1l0.1,0.8c0.5-0.6,1.2-1,2.1-1c1,0,1.8,0.4,2.4,1.2c0.6,0.8,0.8,1.8,0.8,3.1V102.8z
	 M200.7,102.6c0-0.8-0.1-1.4-0.4-1.8c-0.3-0.4-0.7-0.6-1.2-0.6c-0.7,0-1.2,0.3-1.4,0.8v3.4c0.3,0.6,0.8,0.8,1.4,0.8
	C200.2,105.2,200.7,104.3,200.7,102.6z M208.4,106.9V95.7h3.4c1,0,1.9,0.2,2.6,0.7c0.8,0.4,1.4,1.1,1.8,1.9c0.4,0.8,0.6,1.8,0.6,2.8
	v0.5c0,1-0.2,2-0.6,2.8c-0.4,0.8-1,1.4-1.8,1.9c-0.8,0.4-1.7,0.7-2.6,0.7H208.4z M210.7,97.5v7.4h1.1c0.9,0,1.6-0.3,2.1-0.9
	c0.5-0.6,0.7-1.4,0.7-2.5V101c0-1.2-0.2-2-0.7-2.6s-1.2-0.9-2.1-0.9H210.7z M224.4,103.9c0-0.4-0.2-0.8-0.5-1
	c-0.3-0.2-0.9-0.5-1.7-0.8c-0.8-0.3-1.4-0.5-1.9-0.8c-1.3-0.7-1.9-1.6-1.9-2.8c0-0.6,0.2-1.2,0.5-1.6c0.4-0.5,0.8-0.8,1.5-1.1
	c0.6-0.3,1.4-0.4,2.2-0.4c0.8,0,1.5,0.2,2.2,0.4c0.6,0.3,1.1,0.7,1.4,1.2c0.4,0.5,0.5,1.1,0.5,1.8h-2.3c0-0.5-0.2-0.9-0.5-1.2
	c-0.3-0.3-0.8-0.4-1.4-0.4c-0.6,0-1,0.1-1.3,0.4s-0.5,0.6-0.5,1c0,0.4,0.2,0.7,0.6,0.9c0.4,0.2,0.9,0.5,1.6,0.7
	c1.3,0.4,2.3,0.9,2.9,1.5c0.6,0.6,0.9,1.3,0.9,2.2c0,1-0.4,1.7-1.1,2.3c-0.7,0.6-1.7,0.8-2.9,0.8c-0.9,0-1.6-0.2-2.3-0.5
	c-0.7-0.3-1.2-0.8-1.6-1.3c-0.4-0.6-0.6-1.2-0.6-1.9h2.3c0,1.2,0.7,1.8,2.2,1.8c0.6,0,1-0.1,1.3-0.3
	C224.2,104.6,224.4,104.3,224.4,103.9z M230.6,102.9v3.9h-2.3V95.7h4.4c0.8,0,1.6,0.2,2.2,0.5s1.1,0.8,1.5,1.3
	c0.4,0.6,0.5,1.2,0.5,1.9c0,1.1-0.4,2-1.1,2.6c-0.8,0.6-1.8,1-3.1,1H230.6z M230.6,101h2.1c0.6,0,1.1-0.2,1.4-0.4
	c0.3-0.3,0.5-0.7,0.5-1.2c0-0.6-0.2-1-0.5-1.3c-0.3-0.3-0.8-0.5-1.4-0.5h-2.1V101z M244.2,103.9c0-0.4-0.2-0.8-0.5-1
	c-0.3-0.2-0.9-0.5-1.7-0.8c-0.8-0.3-1.4-0.5-1.9-0.8c-1.3-0.7-1.9-1.6-1.9-2.8c0-0.6,0.2-1.2,0.5-1.6c0.4-0.5,0.8-0.8,1.5-1.1
	c0.6-0.3,1.4-0.4,2.2-0.4c0.8,0,1.5,0.2,2.1,0.4c0.6,0.3,1.1,0.7,1.4,1.2c0.4,0.5,0.5,1.1,0.5,1.8h-2.3c0-0.5-0.2-0.9-0.5-1.2
	s-0.8-0.4-1.4-0.4c-0.6,0-1,0.1-1.3,0.4c-0.3,0.2-0.5,0.6-0.5,1c0,0.4,0.2,0.7,0.6,0.9c0.4,0.2,0.9,0.5,1.6,0.7
	c1.3,0.4,2.3,0.9,2.9,1.5c0.6,0.6,0.9,1.3,0.9,2.2c0,1-0.4,1.7-1.1,2.3c-0.7,0.6-1.7,0.8-2.9,0.8c-0.9,0-1.6-0.2-2.3-0.5
	c-0.7-0.3-1.2-0.8-1.6-1.3c-0.4-0.6-0.6-1.2-0.6-1.9h2.3c0,1.2,0.7,1.8,2.2,1.8c0.6,0,1-0.1,1.3-0.3
	C244.1,104.6,244.2,104.3,244.2,103.9z"/>
<path class="st16" d="M448.4,266v15.5l4.2-3.5l4.2,7l3.5-2.1l-4.2-7l4.9-1.4L448.4,266z"/>
</svg>
