<svg xmlns="http://www.w3.org/2000/svg" viewBox="0 0 411.42 186.01"><defs><style>.cls-1,.cls-13{fill:#fff;}.cls-12,.cls-2{fill:none;}.cls-2{stroke:#e6e6e6;}.cls-2,.cls-3,.cls-4{stroke-width:0.43px;}.cls-3{fill:#f9f9f9;}.cls-3,.cls-4{stroke:#e7e7e7;}.cls-4{fill:#efeded;}.cls-5,.cls-6,.cls-7{fill:#c6c2c2;}.cls-5{fill-opacity:0.8;}.cls-6{fill-opacity:0.5;}.cls-7{fill-opacity:0.3;}.cls-8{fill:#606060;}.cls-9{fill:#d7d7d7;}.cls-10{fill:#f2efef;}.cls-11{fill:#f8611f;}.cls-12{stroke:#dbdbdb;}.cls-12,.cls-13{stroke-width:0.92px;}.cls-13{stroke:#bebebe;}</style></defs><g id="Layer_2" data-name="Layer 2"><g id="Layer_1-2" data-name="Layer 1"><rect class="cls-1" width="411.42" height="186.01" rx="6.41"/><rect class="cls-2" x="0.21" y="0.21" width="411" height="185.59" rx="6.2"/><rect class="cls-3" x="39.61" y="52.44" width="59.14" height="20.65"/><rect class="cls-3" x="15.79" y="52.44" width="23.4" height="20.65"/><rect class="cls-3" x="15.79" y="73.52" width="380.76" height="93.95"/><rect class="cls-4" x="15.79" y="101.01" width="380.76" height="21.57"/><rect class="cls-4" x="15.79" y="145.91" width="380.76" height="21.57"/><rect class="cls-5" x="122.79" y="131.03" width="32.07" height="4.58" rx="1.7"/><rect class="cls-6" x="204.34" y="131.03" width="32.07" height="4.58" rx="1.7"/><rect class="cls-7" x="296.88" y="131.03" width="32.07" height="4.58" rx="1.7"/><rect class="cls-5" x="122.79" y="154.86" width="32.07" height="4.58" rx="1.7"/><rect class="cls-6" x="204.34" y="154.86" width="32.07" height="4.58" rx="1.7"/><rect class="cls-7" x="296.88" y="154.86" width="32.07" height="4.58" rx="1.7"/><rect class="cls-3" x="185.31" y="52.44" width="85.71" height="20.65"/><rect class="cls-3" x="99.17" y="52.44" width="85.71" height="20.65"/><rect class="cls-3" x="271.44" y="52.44" width="85.71" height="20.65"/><path class="cls-8" d="M125.43,65.53h-1.05V59.48h1.05Zm3.71-1.22a.45.45,0,0,0-.23-.41,2.08,2.08,0,0,0-.73-.25,3.34,3.34,0,0,1-.86-.28,1.14,1.14,0,0,1-.76-1,1.23,1.23,0,0,1,.49-1A2,2,0,0,1,128.3,61a2,2,0,0,1,1.3.4,1.28,1.28,0,0,1,.5,1h-1a.61.61,0,0,0-.22-.49.8.8,0,0,0-.57-.19.91.91,0,0,0-.54.15.49.49,0,0,0-.21.41.42.42,0,0,0,.19.37,3.06,3.06,0,0,0,.79.26,3.35,3.35,0,0,1,.93.31,1.2,1.2,0,0,1,.5.43,1.09,1.09,0,0,1,.17.61,1.19,1.19,0,0,1-.5,1,2.17,2.17,0,0,1-1.32.37,2.2,2.2,0,0,1-1-.2,1.58,1.58,0,0,1-.67-.54,1.28,1.28,0,0,1-.25-.76h1a.77.77,0,0,0,.27.56,1.12,1.12,0,0,0,.66.19,1,1,0,0,0,.61-.15A.49.49,0,0,0,129.14,64.31Zm7.92-1a2.64,2.64,0,0,1-.47,1.66,1.51,1.51,0,0,1-1.27.62,1.52,1.52,0,0,1-1.18-.48v2.13h-1V61h.93l0,.45a1.49,1.49,0,0,1,1.21-.54,1.51,1.51,0,0,1,1.28.62,2.69,2.69,0,0,1,.47,1.7Zm-1-.09a1.88,1.88,0,0,0-.27-1.07.87.87,0,0,0-.76-.39.92.92,0,0,0-.89.51v2a.93.93,0,0,0,.89.53.86.86,0,0,0,.75-.39A2,2,0,0,0,136.06,63.24ZM140.27,62a2.73,2.73,0,0,0-.41,0,.91.91,0,0,0-.93.53v3.07h-1V61h1l0,.5a1.13,1.13,0,0,1,1-.59,1,1,0,0,1,.36.06ZM142,65.53h-1V61h1Zm-1.07-5.66a.56.56,0,0,1,.15-.39.66.66,0,0,1,.84,0,.56.56,0,0,1,.15.39.52.52,0,0,1-.15.38.66.66,0,0,1-.84,0A.52.52,0,0,1,140.91,59.87ZM144,61l0,.52a1.6,1.6,0,0,1,1.31-.61c.93,0,1.41.54,1.43,1.61v3h-1V62.62a.86.86,0,0,0-.19-.63.75.75,0,0,0-.6-.21,1,1,0,0,0-.91.55v3.2h-1V61ZM149.08,60V61h.8v.74h-.8v2.51a.64.64,0,0,0,.1.38.51.51,0,0,0,.37.11,2.21,2.21,0,0,0,.35,0v.78a2.61,2.61,0,0,1-.66.09c-.78,0-1.17-.43-1.17-1.28V61.78h-.74V61h.74V60Zm3.55,5.66a2.11,2.11,0,0,1-1.56-.6,2.22,2.22,0,0,1-.59-1.61v-.13a2.57,2.57,0,0,1,.26-1.19,1.91,1.91,0,0,1,.73-.83,1.89,1.89,0,0,1,1-.3,1.77,1.77,0,0,1,1.42.59,2.49,2.49,0,0,1,.5,1.66v.4h-2.94a1.42,1.42,0,0,0,.37.88,1.13,1.13,0,0,0,.83.33,1.38,1.38,0,0,0,1.13-.56l.54.52a1.89,1.89,0,0,1-.72.62A2.23,2.23,0,0,1,152.63,65.61Zm-.12-3.85a.86.86,0,0,0-.67.29,1.58,1.58,0,0,0-.33.81h1.92v-.07a1.17,1.17,0,0,0-.27-.76A.8.8,0,0,0,152.51,61.76ZM155,63.25a2.64,2.64,0,0,1,.48-1.66A1.52,1.52,0,0,1,156.8,61a1.49,1.49,0,0,1,1.16.5v-2.3h1v6.38h-.91l-.05-.47a1.47,1.47,0,0,1-1.21.55,1.56,1.56,0,0,1-1.28-.63A2.82,2.82,0,0,1,155,63.25Zm1,.09a1.86,1.86,0,0,0,.26,1.07.88.88,0,0,0,.75.38,1,1,0,0,0,.91-.55V62.32a1,1,0,0,0-.9-.54.87.87,0,0,0-.76.39A2.16,2.16,0,0,0,156,63.34Zm4.91.41a2.35,2.35,0,0,1,.14-.88,2.24,2.24,0,0,1,.54-.72,3.85,3.85,0,0,0,.51-.56,1,1,0,0,0,.17-.54.85.85,0,0,0-.19-.6.74.74,0,0,0-.57-.21.81.81,0,0,0-.58.21.7.7,0,0,0-.21.54h-1a1.45,1.45,0,0,1,.5-1.16,1.89,1.89,0,0,1,1.3-.43,1.86,1.86,0,0,1,1.3.42,1.54,1.54,0,0,1,.47,1.19,1.94,1.94,0,0,1-.63,1.33l-.51.5a1.31,1.31,0,0,0-.28.91ZM160.88,65a.5.5,0,0,1,.16-.39.56.56,0,0,1,.41-.15.57.57,0,0,1,.42.15A.56.56,0,0,1,162,65a.54.54,0,0,1-.15.39.66.66,0,0,1-.84,0A.54.54,0,0,1,160.88,65Z"/><path class="cls-8" d="M220.53,65.53V59.48h1.78a2.75,2.75,0,0,1,1.42.36,2.48,2.48,0,0,1,1,1,3.32,3.32,0,0,1,.34,1.51v.3a3.18,3.18,0,0,1-.35,1.51,2.36,2.36,0,0,1-1,1,3,3,0,0,1-1.45.35Zm1.05-5.2v4.36h.68a1.59,1.59,0,0,0,1.27-.51,2.23,2.23,0,0,0,.45-1.49v-.34a2.35,2.35,0,0,0-.42-1.5,1.52,1.52,0,0,0-1.25-.52Zm7.09,5.2a2.26,2.26,0,0,1-.12-.42,1.58,1.58,0,0,1-1.18.5,1.62,1.62,0,0,1-1.1-.38,1.27,1.27,0,0,1-.43-1,1.29,1.29,0,0,1,.53-1.1,2.58,2.58,0,0,1,1.53-.39h.62v-.29a.79.79,0,0,0-.19-.56.78.78,0,0,0-.6-.21.84.84,0,0,0-.56.18.51.51,0,0,0-.22.43h-1a1.16,1.16,0,0,1,.24-.69,1.71,1.71,0,0,1,.67-.5,2.19,2.19,0,0,1,.94-.19,1.9,1.9,0,0,1,1.26.4,1.45,1.45,0,0,1,.48,1.12v2a2.34,2.34,0,0,0,.17,1v.07Zm-1.11-.73a1.19,1.19,0,0,0,.56-.14,1,1,0,0,0,.4-.39v-.85H228a1.5,1.5,0,0,0-.85.2.64.64,0,0,0-.28.55.61.61,0,0,0,.19.46A.74.74,0,0,0,227.56,64.8ZM231.85,60V61h.79v.74h-.79v2.51a.58.58,0,0,0,.1.38.51.51,0,0,0,.37.11,2.21,2.21,0,0,0,.35,0v.78a2.63,2.63,0,0,1-.67.09c-.77,0-1.16-.43-1.16-1.28V61.78h-.74V61h.74V60Zm3.55,5.66a2.11,2.11,0,0,1-1.56-.6,2.17,2.17,0,0,1-.59-1.61v-.13a2.7,2.7,0,0,1,.25-1.19,2,2,0,0,1,.73-.83,1.94,1.94,0,0,1,1.05-.3,1.78,1.78,0,0,1,1.42.59,2.49,2.49,0,0,1,.5,1.66v.4h-2.94a1.37,1.37,0,0,0,.37.88,1.11,1.11,0,0,0,.82.33,1.37,1.37,0,0,0,1.13-.56l.55.52a1.85,1.85,0,0,1-.73.62A2.16,2.16,0,0,1,235.4,65.61Zm-.12-3.85a.88.88,0,0,0-.68.29,1.57,1.57,0,0,0-.32.81h1.92v-.07a1.17,1.17,0,0,0-.27-.76A.82.82,0,0,0,235.28,61.76Z"/><path class="cls-8" d="M311,60.33h-1.89v5.2h-1v-5.2h-1.87v-.85H311ZM313,64.08l.91-3H315l-1.79,5.17a1.44,1.44,0,0,1-1.39,1.13,1.81,1.81,0,0,1-.49-.07v-.78h.19a1,1,0,0,0,.58-.14.87.87,0,0,0,.3-.47l.15-.38L310.92,61H312Zm6.51-.75A2.64,2.64,0,0,1,319,65a1.49,1.49,0,0,1-1.27.62,1.52,1.52,0,0,1-1.18-.48v2.13h-1V61h.93l0,.45a1.49,1.49,0,0,1,1.21-.54,1.53,1.53,0,0,1,1.29.62,2.75,2.75,0,0,1,.47,1.7Zm-1-.09a1.88,1.88,0,0,0-.27-1.07.87.87,0,0,0-.76-.39.92.92,0,0,0-.89.51v2a.94.94,0,0,0,.9.53.86.86,0,0,0,.75-.39A2.08,2.08,0,0,0,318.46,63.24Zm3.84,2.37a2.11,2.11,0,0,1-1.56-.6,2.22,2.22,0,0,1-.59-1.61v-.13a2.7,2.7,0,0,1,.26-1.19,2,2,0,0,1,.73-.83,1.89,1.89,0,0,1,1-.3,1.76,1.76,0,0,1,1.42.59,2.44,2.44,0,0,1,.5,1.66v.4h-2.93a1.32,1.32,0,0,0,.37.88,1.11,1.11,0,0,0,.82.33,1.38,1.38,0,0,0,1.13-.56l.54.52a1.89,1.89,0,0,1-.72.62A2.23,2.23,0,0,1,322.3,65.61Zm-.12-3.85a.86.86,0,0,0-.67.29,1.58,1.58,0,0,0-.33.81h1.93v-.07a1.29,1.29,0,0,0-.27-.76A.84.84,0,0,0,322.18,61.76Z"/><path class="cls-8" d="M64.63,63H62.15v1.86h2.9v.84h-4V59.68H65v.85H62.15V62.2h2.48Zm.9.42A2.69,2.69,0,0,1,66,61.78a1.57,1.57,0,0,1,1.3-.63,1.47,1.47,0,0,1,1.15.5v-2.3h1v6.38h-.91l0-.47a1.5,1.5,0,0,1-1.21.55A1.53,1.53,0,0,1,66,65.17,2.77,2.77,0,0,1,65.53,63.45Zm1,.08a2,2,0,0,0,.26,1.08.88.88,0,0,0,.76.38,1,1,0,0,0,.9-.55V62.52a.94.94,0,0,0-.9-.54.85.85,0,0,0-.75.39A2,2,0,0,0,66.54,63.53Zm5,2.2h-1v-4.5h1Zm-1.07-5.66a.53.53,0,0,1,.15-.39.57.57,0,0,1,.42-.15.58.58,0,0,1,.43.15.53.53,0,0,1,.15.39.52.52,0,0,1-.15.38.58.58,0,0,1-.43.15.57.57,0,0,1-.42-.15A.52.52,0,0,1,70.52,60.07Zm3.44.07v1.09h.79V62H74v2.51a.53.53,0,0,0,.1.37.47.47,0,0,0,.37.12,1.48,1.48,0,0,0,.35,0v.78a2.27,2.27,0,0,1-.67.1c-.77,0-1.16-.43-1.16-1.28V62h-.74v-.75H73V60.14Z"/><path d="M39.81,27.16V18.69h2.6a3.92,3.92,0,0,1,2,.51,3.46,3.46,0,0,1,1.38,1.43,4.52,4.52,0,0,1,.49,2.1v.39a4.34,4.34,0,0,1-.49,2.1,3.54,3.54,0,0,1-1.36,1.43,4.15,4.15,0,0,1-2,.51Zm1.74-7v5.65h.85A1.91,1.91,0,0,0,44,25.09a3.06,3.06,0,0,0,.55-1.91v-.45a3.14,3.14,0,0,0-.53-2,1.91,1.91,0,0,0-1.57-.66Zm8.79,7.16a3.08,3.08,0,0,1-2.26-.85,3,3,0,0,1-.86-2.26V24a3.85,3.85,0,0,1,.36-1.69,2.7,2.7,0,0,1,1-1.15,2.92,2.92,0,0,1,1.53-.41,2.58,2.58,0,0,1,2,.82,3.26,3.26,0,0,1,.74,2.3v.69h-4a1.57,1.57,0,0,0,.49,1,1.52,1.52,0,0,0,1,.37,1.82,1.82,0,0,0,1.51-.7l.83.92a2.49,2.49,0,0,1-1,.84A3.51,3.51,0,0,1,50.34,27.27Zm-.2-5.16a1,1,0,0,0-.81.34,1.73,1.73,0,0,0-.39,1h2.33v-.13a1.26,1.26,0,0,0-.3-.86A1.06,1.06,0,0,0,50.14,22.11Zm7.15,3.31a.51.51,0,0,0-.31-.48,3.27,3.27,0,0,0-1-.32c-1.49-.32-2.24-.95-2.24-1.91a1.71,1.71,0,0,1,.69-1.39,2.79,2.79,0,0,1,1.82-.57,3,3,0,0,1,1.91.57,1.76,1.76,0,0,1,.72,1.46H57.22a.77.77,0,0,0-.23-.59,1,1,0,0,0-.72-.24,1,1,0,0,0-.66.19.59.59,0,0,0-.23.49.51.51,0,0,0,.26.45,3,3,0,0,0,.89.3,6.41,6.41,0,0,1,1.06.28,1.73,1.73,0,0,1,1.33,1.69,1.62,1.62,0,0,1-.74,1.39,3.12,3.12,0,0,1-1.9.53A3.32,3.32,0,0,1,54.87,27a2.32,2.32,0,0,1-1-.77,1.82,1.82,0,0,1-.35-1.06h1.6a.83.83,0,0,0,.33.68,1.29,1.29,0,0,0,.82.24A1.23,1.23,0,0,0,57,25.9.56.56,0,0,0,57.29,25.42Zm4.49,1.74H60.1V20.87h1.68ZM60,19.24a.81.81,0,0,1,.25-.62,1,1,0,0,1,.69-.25,1,1,0,0,1,.68.25.88.88,0,0,1,0,1.25,1,1,0,0,1-.68.24,1,1,0,0,1-.69-.24A.82.82,0,0,1,60,19.24ZM62.93,24a3.76,3.76,0,0,1,.68-2.34,2.26,2.26,0,0,1,1.86-.88,2,2,0,0,1,1.61.71l.07-.59h1.52V27a2.65,2.65,0,0,1-.37,1.43,2.38,2.38,0,0,1-1,.93,3.66,3.66,0,0,1-1.6.32,3.37,3.37,0,0,1-1.35-.28,2.28,2.28,0,0,1-1-.71l.74-1a2,2,0,0,0,1.53.71,1.45,1.45,0,0,0,1-.37A1.31,1.31,0,0,0,67,27v-.33a2,2,0,0,1-1.53.65,2.25,2.25,0,0,1-1.84-.88A3.73,3.73,0,0,1,62.93,24Zm1.68.12A2.29,2.29,0,0,0,65,25.43a1.09,1.09,0,0,0,.94.48,1.17,1.17,0,0,0,1.1-.57V22.69a1.18,1.18,0,0,0-1.09-.57,1.1,1.1,0,0,0-1,.49A2.59,2.59,0,0,0,64.61,24.09Zm6.91-3.22,0,.72a2.2,2.2,0,0,1,1.81-.84,1.85,1.85,0,0,1,1.49.59,2.76,2.76,0,0,1,.5,1.75v4.07H73.69v-4a1.06,1.06,0,0,0-.24-.77,1,1,0,0,0-.77-.24,1.15,1.15,0,0,0-1.06.6v4.44H69.94V20.87Zm13,4.54H81.44l-.58,1.75H79l3.15-8.47h1.62l3.17,8.47H85.08ZM81.91,24H84L83,20.83Zm8.32,1.92a1.11,1.11,0,0,0,.76-.26.9.9,0,0,0,.3-.68h1.58a2.23,2.23,0,0,1-.35,1.18,2.35,2.35,0,0,1-.94.82,2.9,2.9,0,0,1-1.32.29,2.7,2.7,0,0,1-2.12-.85,3.4,3.4,0,0,1-.78-2.37v-.11a3.32,3.32,0,0,1,.77-2.32,2.68,2.68,0,0,1,2.12-.87,2.62,2.62,0,0,1,1.89.68,2.35,2.35,0,0,1,.73,1.78H91.29a1.15,1.15,0,0,0-.3-.79,1,1,0,0,0-.77-.31,1,1,0,0,0-.89.43A2.48,2.48,0,0,0,89,23.93v.17a2.46,2.46,0,0,0,.29,1.39A1,1,0,0,0,90.23,25.92Zm5.61-6.6v1.55h1.07V22.1H95.84v3.14a.75.75,0,0,0,.13.5.67.67,0,0,0,.51.15,2.53,2.53,0,0,0,.5,0v1.27a3.5,3.5,0,0,1-1,.15,1.6,1.6,0,0,1-1.8-1.78V22.1h-.92V20.87h.92V19.32Zm3.78,7.84H97.93V20.87h1.69Zm-1.78-7.92a.81.81,0,0,1,.25-.62,1.06,1.06,0,0,1,1.37,0,.88.88,0,0,1,0,1.25,1,1,0,0,1-.68.24,1,1,0,0,1-.69-.24A.82.82,0,0,1,97.84,19.24Zm5.52,5.86,1.17-4.23h1.76l-2.12,6.29h-1.61l-2.12-6.29h1.76Zm5.44,2.06h-1.68V20.87h1.68ZM107,19.24a.81.81,0,0,1,.25-.62,1.08,1.08,0,0,1,1.38,0,.81.81,0,0,1,.25.62.79.79,0,0,1-.26.63,1.08,1.08,0,0,1-1.36,0A.79.79,0,0,1,107,19.24Zm5.18.08v1.55h1.08V22.1H112.2v3.14a.75.75,0,0,0,.14.5.67.67,0,0,0,.51.15,2.37,2.37,0,0,0,.49,0v1.27a3.43,3.43,0,0,1-1,.15,1.61,1.61,0,0,1-1.81-1.78V22.1h-.91V20.87h.91V19.32ZM116,27.16H114.3V20.87H116Zm-1.79-7.92a.85.85,0,0,1,.25-.62,1,1,0,0,1,.7-.25,1,1,0,0,1,.68.25.88.88,0,0,1,0,1.25,1.1,1.1,0,0,1-1.37,0A.83.83,0,0,1,114.2,19.24Zm6.07,8a3.07,3.07,0,0,1-2.25-.85,3,3,0,0,1-.87-2.26V24a3.72,3.72,0,0,1,.37-1.69,2.68,2.68,0,0,1,1-1.15,2.93,2.93,0,0,1,1.54-.41,2.56,2.56,0,0,1,2,.82,3.27,3.27,0,0,1,.75,2.3v.69h-4a1.62,1.62,0,0,0,.49,1,1.54,1.54,0,0,0,1,.37,1.83,1.83,0,0,0,1.52-.7l.82.92a2.49,2.49,0,0,1-1,.84A3.48,3.48,0,0,1,120.27,27.27Zm-.19-5.16a1,1,0,0,0-.81.34,1.73,1.73,0,0,0-.4,1h2.34v-.13a1.26,1.26,0,0,0-.3-.86A1.08,1.08,0,0,0,120.08,22.11Zm7.14,3.31a.52.52,0,0,0-.3-.48,3.37,3.37,0,0,0-1-.32c-1.5-.32-2.24-.95-2.24-1.91a1.71,1.71,0,0,1,.69-1.39,2.77,2.77,0,0,1,1.82-.57,3,3,0,0,1,1.91.57,1.76,1.76,0,0,1,.72,1.46h-1.68a.81.81,0,0,0-.23-.59,1,1,0,0,0-.73-.24,1,1,0,0,0-.66.19.62.62,0,0,0-.23.49.53.53,0,0,0,.26.45,3.08,3.08,0,0,0,.9.3,6.41,6.41,0,0,1,1.06.28,1.74,1.74,0,0,1,1.33,1.69,1.64,1.64,0,0,1-.74,1.39,3.15,3.15,0,0,1-1.91.53,3.3,3.3,0,0,1-1.4-.28,2.32,2.32,0,0,1-1-.77,1.75,1.75,0,0,1-.35-1.06h1.59a.89.89,0,0,0,.33.68,1.32,1.32,0,0,0,.83.24,1.19,1.19,0,0,0,.72-.18A.56.56,0,0,0,127.22,25.42Z"/><path d="M210.3,22.67a4.86,4.86,0,0,1-1.94-.93,1.8,1.8,0,0,1-.6-1.38,1.89,1.89,0,0,1,.74-1.52,2.89,2.89,0,0,1,1.92-.61,3.27,3.27,0,0,1,1.43.31,2.36,2.36,0,0,1,1,.86,2.24,2.24,0,0,1,.35,1.2h-1a1.42,1.42,0,0,0-.45-1.11,2.21,2.21,0,0,0-2.46-.07,1.12,1.12,0,0,0-.43.93,1,1,0,0,0,.41.81,3.94,3.94,0,0,0,1.38.6,5.74,5.74,0,0,1,1.52.61,2.25,2.25,0,0,1,.82.76,2,2,0,0,1,.27,1,1.85,1.85,0,0,1-.75,1.53,3.21,3.21,0,0,1-2,.56A3.79,3.79,0,0,1,209,26a2.65,2.65,0,0,1-1.08-.85,2.07,2.07,0,0,1-.37-1.22h1a1.37,1.37,0,0,0,.52,1.12,2.18,2.18,0,0,0,1.4.41,2,2,0,0,0,1.25-.33,1.09,1.09,0,0,0,.44-.91,1,1,0,0,0-.4-.88A4.57,4.57,0,0,0,210.3,22.67Zm6.48,3.59a2.55,2.55,0,0,1-1.93-.77,2.91,2.91,0,0,1-.74-2.08v-.18a3.45,3.45,0,0,1,.33-1.54,2.58,2.58,0,0,1,.92-1.06,2.32,2.32,0,0,1,1.29-.39,2.15,2.15,0,0,1,1.76.75,3.2,3.2,0,0,1,.63,2.13v.42h-3.93a2.07,2.07,0,0,0,.5,1.39,1.58,1.58,0,0,0,1.22.52,1.75,1.75,0,0,0,.89-.21,2,2,0,0,0,.64-.57l.61.47A2.44,2.44,0,0,1,216.78,26.26Zm-.13-5.2a1.31,1.31,0,0,0-1,.44,2.07,2.07,0,0,0-.5,1.22h2.91v-.07a1.94,1.94,0,0,0-.41-1.18A1.26,1.26,0,0,0,216.65,21.06Zm4.63,5.1h-1V17.91h1Zm4,.1a2.51,2.51,0,0,1-1.92-.77,2.91,2.91,0,0,1-.74-2.08v-.18a3.45,3.45,0,0,1,.33-1.54,2.58,2.58,0,0,1,.92-1.06,2.32,2.32,0,0,1,1.29-.39,2.18,2.18,0,0,1,1.76.75,3.2,3.2,0,0,1,.63,2.13v.42h-3.94a2.12,2.12,0,0,0,.5,1.39,1.59,1.59,0,0,0,1.23.52,1.78,1.78,0,0,0,.89-.21,2.29,2.29,0,0,0,.64-.57l.6.47A2.42,2.42,0,0,1,225.28,26.26Zm-.12-5.2a1.3,1.3,0,0,0-1,.44,2.14,2.14,0,0,0-.51,1.22h2.91v-.07a1.87,1.87,0,0,0-.4-1.18A1.29,1.29,0,0,0,225.16,21.06ZM231,25.45a1.39,1.39,0,0,0,.93-.32,1.1,1.1,0,0,0,.44-.8h.94a1.83,1.83,0,0,1-.34,1,2.31,2.31,0,0,1-.85.72,2.52,2.52,0,0,1-1.12.26,2.4,2.4,0,0,1-1.89-.79,3.17,3.17,0,0,1-.7-2.16v-.17a3.46,3.46,0,0,1,.32-1.51,2.28,2.28,0,0,1,.89-1,2.5,2.5,0,0,1,1.38-.37,2.32,2.32,0,0,1,1.62.59,2.09,2.09,0,0,1,.69,1.51h-.94a1.35,1.35,0,0,0-.43-.92,1.31,1.31,0,0,0-.94-.36,1.4,1.4,0,0,0-1.18.54,2.56,2.56,0,0,0-.41,1.58v.18a2.49,2.49,0,0,0,.41,1.55A1.4,1.4,0,0,0,231,25.45Zm4.77-6.51v1.41h1.09v.77H235.8v3.6a.77.77,0,0,0,.15.52.6.6,0,0,0,.49.18,2.75,2.75,0,0,0,.48-.07v.81a3,3,0,0,1-.77.1,1.23,1.23,0,0,1-1-.4,1.71,1.71,0,0,1-.34-1.14v-3.6h-1.06v-.77h1.06V18.94Zm4.67,7.32a2.55,2.55,0,0,1-1.93-.77,2.91,2.91,0,0,1-.74-2.08v-.18a3.45,3.45,0,0,1,.33-1.54,2.58,2.58,0,0,1,.92-1.06,2.32,2.32,0,0,1,1.29-.39,2.16,2.16,0,0,1,1.76.75,3.2,3.2,0,0,1,.63,2.13v.42H238.8a2.11,2.11,0,0,0,.49,1.39,1.6,1.6,0,0,0,1.23.52,1.75,1.75,0,0,0,.89-.21,2.16,2.16,0,0,0,.64-.57l.61.47A2.44,2.44,0,0,1,240.47,26.26Zm-.13-5.2a1.3,1.3,0,0,0-1,.44,2.07,2.07,0,0,0-.5,1.22h2.91v-.07a1.94,1.94,0,0,0-.41-1.18A1.26,1.26,0,0,0,240.34,21.06Zm3.3,2.14a3.33,3.33,0,0,1,.64-2.14,2.14,2.14,0,0,1,3.27-.12v-3h1v8.25h-.92l0-.63a2,2,0,0,1-1.65.73,2,2,0,0,1-1.65-.82,3.41,3.41,0,0,1-.64-2.16Zm1,.12a2.56,2.56,0,0,0,.4,1.54,1.32,1.32,0,0,0,1.13.56,1.44,1.44,0,0,0,1.38-.85V21.9a1.46,1.46,0,0,0-1.37-.82,1.34,1.34,0,0,0-1.14.57A2.84,2.84,0,0,0,244.64,23.32Z"/><path class="cls-9" d="M274.9,25.21a.5.5,0,0,0-.2-.41,1.92,1.92,0,0,0-.71-.26,3.41,3.41,0,0,1-.8-.26,1.19,1.19,0,0,1-.43-.35.84.84,0,0,1-.14-.5,1,1,0,0,1,.4-.8,1.57,1.57,0,0,1,1-.33,1.62,1.62,0,0,1,1.07.34,1.07,1.07,0,0,1,.41.87h-.67a.61.61,0,0,0-.23-.47.87.87,0,0,0-.58-.2.9.9,0,0,0-.57.16.5.5,0,0,0-.2.41.39.39,0,0,0,.19.36,2.52,2.52,0,0,0,.68.24,3.68,3.68,0,0,1,.81.26,1.21,1.21,0,0,1,.45.37.92.92,0,0,1,.15.53,1,1,0,0,1-.41.83,1.75,1.75,0,0,1-1.08.31,1.94,1.94,0,0,1-.82-.16,1.28,1.28,0,0,1-.56-.46,1.09,1.09,0,0,1-.21-.64h.67a.7.7,0,0,0,.26.53,1.05,1.05,0,0,0,.66.19,1.07,1.07,0,0,0,.6-.15A.48.48,0,0,0,274.9,25.21Zm3.13,1.1a1.71,1.71,0,0,1-1.28-.51,1.94,1.94,0,0,1-.49-1.39v-.12a2.29,2.29,0,0,1,.22-1,1.61,1.61,0,0,1,.61-.7,1.5,1.5,0,0,1,.86-.26,1.41,1.41,0,0,1,1.17.5,2.13,2.13,0,0,1,.42,1.42v.28h-2.62a1.37,1.37,0,0,0,.33.92,1.05,1.05,0,0,0,.82.35,1.1,1.1,0,0,0,.59-.14,1.55,1.55,0,0,0,.43-.38l.4.32A1.63,1.63,0,0,1,278,26.31ZM278,22.84a.86.86,0,0,0-.67.3,1.37,1.37,0,0,0-.34.81h1.94V23.9a1.25,1.25,0,0,0-.27-.78A.81.81,0,0,0,278,22.84Zm4.75,3.4a1.49,1.49,0,0,1-.09-.41,1.47,1.47,0,0,1-1.1.48,1.34,1.34,0,0,1-.94-.32,1,1,0,0,1-.37-.82,1.09,1.09,0,0,1,.46-.94,2.21,2.21,0,0,1,1.3-.34h.64v-.3a.72.72,0,0,0-.21-.55.82.82,0,0,0-.61-.21.94.94,0,0,0-.59.18.52.52,0,0,0-.24.43h-.67a1,1,0,0,1,.2-.56,1.41,1.41,0,0,1,.56-.42,1.85,1.85,0,0,1,.78-.16,1.54,1.54,0,0,1,1.05.33,1.23,1.23,0,0,1,.39.92v1.79a2.16,2.16,0,0,0,.14.84v.06Zm-1.1-.5a1.28,1.28,0,0,0,.6-.16,1,1,0,0,0,.4-.42v-.8h-.52c-.81,0-1.22.24-1.22.72a.59.59,0,0,0,.21.48A.79.79,0,0,0,281.6,25.74ZM286.17,23l-.32,0a.88.88,0,0,0-.89.55v2.75h-.66V22.37h.64l0,.45a1,1,0,0,1,.92-.52.56.56,0,0,1,.29.05Zm2.1,2.81a1,1,0,0,0,.62-.21.77.77,0,0,0,.29-.54h.63a1.35,1.35,0,0,1-.23.64,1.39,1.39,0,0,1-.57.47,1.72,1.72,0,0,1-2-.34,2.14,2.14,0,0,1-.47-1.45v-.11a2.34,2.34,0,0,1,.21-1,1.57,1.57,0,0,1,.59-.68,1.73,1.73,0,0,1,.92-.24,1.52,1.52,0,0,1,1.08.39,1.4,1.4,0,0,1,.47,1h-.63a.91.91,0,0,0-.29-.61.85.85,0,0,0-.63-.25.91.91,0,0,0-.78.37,1.66,1.66,0,0,0-.28,1.05v.12a1.62,1.62,0,0,0,.28,1A.92.92,0,0,0,288.27,25.77Zm2.94-2.93a1.43,1.43,0,0,1,1.15-.54c.82,0,1.23.46,1.24,1.38v2.56h-.67V23.68a.85.85,0,0,0-.19-.62.77.77,0,0,0-.58-.2,1,1,0,0,0-.57.17,1.27,1.27,0,0,0-.38.45v2.76h-.66v-5.5h.66Zm5,1.43a2.28,2.28,0,0,1,.43-1.43,1.44,1.44,0,0,1,2.18-.08v-2h.66v5.5h-.61l0-.41a1.34,1.34,0,0,1-1.1.48,1.32,1.32,0,0,1-1.1-.55,2.29,2.29,0,0,1-.43-1.44Zm.67.08a1.73,1.73,0,0,0,.27,1,.87.87,0,0,0,.75.37,1,1,0,0,0,.92-.56V23.41a1,1,0,0,0-.91-.55.86.86,0,0,0-.76.38A1.89,1.89,0,0,0,296.91,24.35Zm5.24,2a1.71,1.71,0,0,1-1.28-.51,1.94,1.94,0,0,1-.5-1.39v-.12a2.43,2.43,0,0,1,.22-1,1.7,1.7,0,0,1,.62-.7,1.48,1.48,0,0,1,.86-.26,1.42,1.42,0,0,1,1.17.5,2.13,2.13,0,0,1,.42,1.42v.28H301a1.37,1.37,0,0,0,.33.92,1,1,0,0,0,.82.35,1.1,1.1,0,0,0,.59-.14,1.7,1.7,0,0,0,.43-.38l.4.32A1.63,1.63,0,0,1,302.15,26.31Zm-.08-3.47a.9.9,0,0,0-.68.3,1.37,1.37,0,0,0-.33.81H303V23.9a1.25,1.25,0,0,0-.27-.78A.84.84,0,0,0,302.07,22.84Zm4.62,2.37a.48.48,0,0,0-.21-.41,1.86,1.86,0,0,0-.7-.26,3.26,3.26,0,0,1-.8-.26,1.24,1.24,0,0,1-.44-.35.92.92,0,0,1-.14-.5,1,1,0,0,1,.4-.8,1.81,1.81,0,0,1,2.1,0,1.07,1.07,0,0,1,.41.87h-.66a.59.59,0,0,0-.24-.47,1,1,0,0,0-1.14,0,.48.48,0,0,0-.21.41.41.41,0,0,0,.19.36,2.62,2.62,0,0,0,.69.24,3.41,3.41,0,0,1,.8.26,1.17,1.17,0,0,1,.46.37.92.92,0,0,1,.15.53,1,1,0,0,1-.42.83,1.71,1.71,0,0,1-1.08.31,1.94,1.94,0,0,1-.82-.16,1.34,1.34,0,0,1-.56-.46,1.15,1.15,0,0,1-.2-.64h.66a.68.68,0,0,0,.27.53,1,1,0,0,0,.65.19,1.08,1.08,0,0,0,.61-.15A.48.48,0,0,0,306.69,25.21Zm2.24,1h-.66V22.37h.66Zm-.72-4.9a.41.41,0,0,1,.1-.27.38.38,0,0,1,.29-.11.38.38,0,1,1,0,.76.38.38,0,0,1-.29-.11A.41.41,0,0,1,308.21,21.34Zm1.62,2.93a2.28,2.28,0,0,1,.42-1.44,1.36,1.36,0,0,1,1.11-.53,1.32,1.32,0,0,1,1.11.5l0-.43h.61v3.78a1.54,1.54,0,0,1-.45,1.18,1.66,1.66,0,0,1-1.2.44,2,2,0,0,1-.82-.18,1.43,1.43,0,0,1-.61-.49l.35-.4a1.29,1.29,0,0,0,1,.53,1,1,0,0,0,.75-.28,1,1,0,0,0,.27-.76v-.33a1.37,1.37,0,0,1-1.08.45,1.35,1.35,0,0,1-1.11-.54A2.43,2.43,0,0,1,309.83,24.27Zm.67.08a1.73,1.73,0,0,0,.27,1,.87.87,0,0,0,.75.37,1,1,0,0,0,.92-.57V23.41a1,1,0,0,0-.91-.55.87.87,0,0,0-.76.38A1.89,1.89,0,0,0,310.5,24.35Zm4.24-2,0,.49a1.38,1.38,0,0,1,1.16-.56c.81,0,1.23.46,1.23,1.38v2.56h-.66V23.68a.85.85,0,0,0-.19-.62.77.77,0,0,0-.58-.2,1,1,0,0,0-.57.17,1.27,1.27,0,0,0-.38.45v2.76h-.66V22.37Zm7.62,3.87a1.19,1.19,0,0,1-.09-.41,1.49,1.49,0,0,1-1.1.48,1.34,1.34,0,0,1-.94-.32,1,1,0,0,1-.37-.82,1.09,1.09,0,0,1,.46-.94,2.2,2.2,0,0,1,1.29-.34h.65v-.3a.72.72,0,0,0-.21-.55.82.82,0,0,0-.61-.21,1,1,0,0,0-.6.18.54.54,0,0,0-.23.43h-.67a1,1,0,0,1,.2-.56,1.41,1.41,0,0,1,.56-.42,1.85,1.85,0,0,1,.78-.16,1.57,1.57,0,0,1,1,.33,1.23,1.23,0,0,1,.39.92v1.79a2.16,2.16,0,0,0,.14.84v.06Zm-1.1-.5a1.21,1.21,0,0,0,.59-.16,1,1,0,0,0,.41-.42v-.8h-.52c-.81,0-1.22.24-1.22.72a.59.59,0,0,0,.21.48A.79.79,0,0,0,321.26,25.74Zm4.25,0a1,1,0,0,0,.62-.21.75.75,0,0,0,.3-.54h.62a1.25,1.25,0,0,1-.23.64,1.43,1.43,0,0,1-.56.47,1.66,1.66,0,0,1-.75.18,1.62,1.62,0,0,1-1.26-.52,2.14,2.14,0,0,1-.46-1.45v-.11a2.49,2.49,0,0,1,.2-1,1.59,1.59,0,0,1,.6-.68,1.73,1.73,0,0,1,.92-.24,1.56,1.56,0,0,1,1.08.39,1.39,1.39,0,0,1,.46,1h-.62a.91.91,0,0,0-.29-.61.85.85,0,0,0-.63-.25.93.93,0,0,0-.79.37,1.73,1.73,0,0,0-.27,1.05v.12a1.69,1.69,0,0,0,.27,1A1,1,0,0,0,325.51,25.77Zm3.18-4.34v.94h.73v.51h-.73v2.4a.56.56,0,0,0,.1.35.42.42,0,0,0,.33.12l.32,0v.53a1.89,1.89,0,0,1-.51.07.84.84,0,0,1-.67-.26,1.18,1.18,0,0,1-.23-.77v-2.4h-.7v-.51h.7v-.94Zm2.22,4.81h-.66V22.37h.66Zm-.71-4.9a.4.4,0,0,1,.09-.27.41.41,0,0,1,.3-.11.38.38,0,0,1,.29.11.41.41,0,0,1,0,.54.38.38,0,0,1-.29.11.41.41,0,0,1-.3-.11A.4.4,0,0,1,330.2,21.34Zm3.05,4,1-3h.68l-1.39,3.87H333l-1.41-3.87h.68Zm3,.9h-.67V22.37h.67Zm-.72-4.9a.36.36,0,0,1,.1-.27.44.44,0,0,1,.58,0,.41.41,0,0,1,0,.54.44.44,0,0,1-.58,0A.36.36,0,0,1,335.53,21.34Zm2.68.09v.94h.72v.51h-.72v2.4a.56.56,0,0,0,.09.35.42.42,0,0,0,.33.12l.32,0v.53a1.79,1.79,0,0,1-.51.07.86.86,0,0,1-.67-.26,1.18,1.18,0,0,1-.22-.77v-2.4h-.71v-.51h.71v-.94Zm2.22,4.81h-.66V22.37h.66Zm-.72-4.9a.36.36,0,0,1,.1-.27.38.38,0,0,1,.29-.11.38.38,0,1,1,0,.76.38.38,0,0,1-.29-.11A.36.36,0,0,1,339.71,21.34Zm3.39,5a1.69,1.69,0,0,1-1.28-.51,1.94,1.94,0,0,1-.5-1.39v-.12a2.43,2.43,0,0,1,.22-1,1.63,1.63,0,0,1,.62-.7,1.48,1.48,0,0,1,.86-.26,1.42,1.42,0,0,1,1.17.5,2.13,2.13,0,0,1,.42,1.42v.28H342a1.38,1.38,0,0,0,.34.92,1,1,0,0,0,.81.35,1.11,1.11,0,0,0,.6-.14,1.51,1.51,0,0,0,.42-.38l.41.32A1.64,1.64,0,0,1,343.1,26.31ZM343,22.84a.88.88,0,0,0-.68.3A1.37,1.37,0,0,0,342,24H344V23.9a1.2,1.2,0,0,0-.28-.78A.81.81,0,0,0,343,22.84Zm4.61,2.37a.5.5,0,0,0-.2-.41,1.85,1.85,0,0,0-.71-.26,3.16,3.16,0,0,1-.79-.26,1.15,1.15,0,0,1-.44-.35.92.92,0,0,1-.14-.5,1,1,0,0,1,.4-.8,1.57,1.57,0,0,1,1-.33,1.6,1.6,0,0,1,1.07.34,1.07,1.07,0,0,1,.41.87h-.67a.58.58,0,0,0-.23-.47.87.87,0,0,0-.58-.2.85.85,0,0,0-.56.16.48.48,0,0,0-.21.41.39.39,0,0,0,.19.36,2.66,2.66,0,0,0,.68.24,3.51,3.51,0,0,1,.81.26,1.07,1.07,0,0,1,.45.37.92.92,0,0,1,.15.53,1,1,0,0,1-.41.83,1.75,1.75,0,0,1-1.08.31,1.94,1.94,0,0,1-.82-.16,1.28,1.28,0,0,1-.56-.46,1.08,1.08,0,0,1-.2-.64h.66a.7.7,0,0,0,.26.53,1.05,1.05,0,0,0,.66.19,1.07,1.07,0,0,0,.6-.15A.46.46,0,0,0,347.63,25.21Z"/><path d="M21.44,23.43a1.07,1.07,0,1,0-1.06-1.07A1.06,1.06,0,0,0,21.44,23.43Zm0-1.67a.61.61,0,1,1-.6.6A.6.6,0,0,1,21.44,21.76Z"/><path d="M21.05,26.59a.18.18,0,0,0,.19.19h7.32a.19.19,0,0,0,.19-.19.17.17,0,0,0,0-.12l-.06-.07h0l-2.81-3.53a.2.2,0,0,0-.31,0l-1.48,1.86-.63-.79a.19.19,0,0,0-.15-.08.21.21,0,0,0-.16.08l-2,2.53a.2.2,0,0,0-.05.13Zm2.22-2.13.78,1,1.63-2.05L28,26.33H21.79Z"/><path d="M29.64,19.81h-.89v-.88a.6.6,0,0,0-.6-.6H18a.6.6,0,0,0-.6.6v7.25a.6.6,0,0,0,.6.6h.89v.89a.6.6,0,0,0,.6.6H29.64a.6.6,0,0,0,.6-.6V20.41a.6.6,0,0,0-.6-.6Zm-10.74.6v5.92h-1V18.78H28.29v1H19.5a.6.6,0,0,0-.6.6Zm10.88,7.4H19.35V20.27H29.78Z"/><circle class="cls-10" cx="145.24" cy="23.37" r="4.12"/><path d="M145.82,21.61V22h-.09a1.26,1.26,0,0,0-.86.32,1.32,1.32,0,0,0-.37.88,1,1,0,0,1,.79-.33.94.94,0,0,1,.76.34A1.46,1.46,0,0,1,146,25a1.06,1.06,0,0,1-.83.34,1,1,0,0,1-.85-.4,1.6,1.6,0,0,1-.33-1V23.7a2.38,2.38,0,0,1,.43-1.54,1.59,1.59,0,0,1,1.29-.55Zm-.61,1.65a.77.77,0,0,0-.44.14.74.74,0,0,0-.28.36v.17a1.24,1.24,0,0,0,.2.73.61.61,0,0,0,.51.28.59.59,0,0,0,.49-.23,1.12,1.12,0,0,0,0-1.22A.59.59,0,0,0,145.21,23.26Z"/><circle class="cls-10" cx="257.94" cy="23.37" r="4.12"/><path d="M258.53,21.61V22h-.09a1.26,1.26,0,0,0-.86.32,1.3,1.3,0,0,0-.37.88,1,1,0,0,1,.79-.33.93.93,0,0,1,.76.34,1.46,1.46,0,0,1,0,1.77,1.06,1.06,0,0,1-.83.34,1,1,0,0,1-.85-.4,1.6,1.6,0,0,1-.33-1V23.7a2.38,2.38,0,0,1,.43-1.54,1.56,1.56,0,0,1,1.29-.55Zm-.61,1.65a.77.77,0,0,0-.44.14.74.74,0,0,0-.28.36v.17a1.24,1.24,0,0,0,.2.73.61.61,0,0,0,.51.28.58.58,0,0,0,.49-.23.93.93,0,0,0,.19-.61,1,1,0,0,0-.19-.61A.59.59,0,0,0,257.92,23.26Z"/><path class="cls-11" d="M162,18.33h-5.83a2.19,2.19,0,0,0-2.2,2.2v5.83a2.2,2.2,0,0,0,2.2,2.2H162a2.22,2.22,0,0,0,2.2-2.2V20.53a2.2,2.2,0,0,0-2.2-2.2Zm1.74,8h0A1.74,1.74,0,0,1,162,28.1h-5.83a1.78,1.78,0,0,1-1.23-.51,1.73,1.73,0,0,1-.51-1.23V20.53a1.74,1.74,0,0,1,1.74-1.74H162a1.73,1.73,0,0,1,1.23.51,1.78,1.78,0,0,1,.51,1.23Z"/><path class="cls-11" d="M162.27,23.37h-3v-3a.23.23,0,0,0-.46,0v3h-3a.23.23,0,0,0-.23.23.23.23,0,0,0,.23.23h3v3a.23.23,0,0,0,.46,0v-3h3a.23.23,0,0,0,.23-.23A.23.23,0,0,0,162.27,23.37Z"/><rect class="cls-12" x="266.19" y="13.29" width="130.12" height="19.24" rx="4.12"/><rect class="cls-13" x="24.28" y="60.02" width="6.41" height="6.41" rx="0.46"/><path class="cls-8" d="M142.18,88.51h-3.8v-.79h3.8Zm3.84,0h-3.81v-.79H146Z"/><path class="cls-8" d="M203.86,91.38h-1V86.53l-1.48.51v-.85l2.36-.87h.13Zm4.83,0h-1V86.53L206.2,87v-.85l2.36-.87h.13Zm2.45.52h-.79l2.37-6.56h.8Zm6.43-2.67h.75V90h-.75v1.34h-1V90H214l0-.62,2.6-4.08h1Zm-2.6,0h1.59V86.71l-.08.13Zm4.36,2.67h-.79l2.38-6.56h.79Zm7.08-.52h-4.06v-.69l2-2.2a5,5,0,0,0,.62-.8,1.38,1.38,0,0,0,.19-.66,1,1,0,0,0-.25-.7.82.82,0,0,0-.65-.26,1,1,0,0,0-.76.29,1.19,1.19,0,0,0-.27.82h-1a1.92,1.92,0,0,1,.25-1,1.71,1.71,0,0,1,.72-.69,2.32,2.32,0,0,1,1.08-.24,2,2,0,0,1,1.39.44,1.52,1.52,0,0,1,.51,1.22,2.1,2.1,0,0,1-.26,1,5.34,5.34,0,0,1-.84,1.13l-1.47,1.58h2.8Zm4.71-2.54a3.29,3.29,0,0,1-.49,2,1.72,1.72,0,0,1-1.48.66,1.76,1.76,0,0,1-1.48-.65,3.18,3.18,0,0,1-.51-1.91v-1a3.25,3.25,0,0,1,.49-2,1.73,1.73,0,0,1,1.49-.65,1.76,1.76,0,0,1,1.48.63,3.12,3.12,0,0,1,.5,1.9Zm-1-1.13a2.64,2.64,0,0,0-.23-1.25.9.9,0,0,0-1.47,0,2.44,2.44,0,0,0-.24,1.17V89a2.62,2.62,0,0,0,.24,1.27.79.79,0,0,0,.74.41.8.8,0,0,0,.72-.38,2.58,2.58,0,0,0,.24-1.2Zm6,3.67H232v-.69l2-2.2a5.68,5.68,0,0,0,.62-.8,1.37,1.37,0,0,0,.18-.66,1,1,0,0,0-.24-.7.82.82,0,0,0-.65-.26,1,1,0,0,0-.76.29,1.19,1.19,0,0,0-.27.82h-1a1.92,1.92,0,0,1,.25-1,1.69,1.69,0,0,1,.71-.69,2.38,2.38,0,0,1,1.08-.24,2,2,0,0,1,1.39.44,1.52,1.52,0,0,1,.51,1.22,2,2,0,0,1-.26,1,4.92,4.92,0,0,1-.83,1.13l-1.48,1.58h2.81Zm4.71-2.54a3.36,3.36,0,0,1-.49,2,2,2,0,0,1-3,0,3.18,3.18,0,0,1-.51-1.91v-1a3.18,3.18,0,0,1,.49-2,2,2,0,0,1,3,0,3.12,3.12,0,0,1,.51,1.9Zm-1-1.13a2.51,2.51,0,0,0-.24-1.25.89.89,0,0,0-1.46,0,2.31,2.31,0,0,0-.25,1.17V89a2.62,2.62,0,0,0,.24,1.27.81.81,0,0,0,.74.41.78.78,0,0,0,.72-.38,2.44,2.44,0,0,0,.25-1.2Z"/><path class="cls-8" d="M300.88,90h-2.34l-.49,1.4H297l2.28-6h.95l2.29,6h-1.1Zm-2-.85h1.75l-.88-2.51Zm5.3,2.25h-1V85h1Zm2.18,0h-1V85h1Zm.91-2.28a2.7,2.7,0,0,1,.26-1.19,1.77,1.77,0,0,1,.74-.81,1.94,1.94,0,0,1,1.08-.29,2,2,0,0,1,1.48.58A2.3,2.3,0,0,1,311.4,89v.23a2.67,2.67,0,0,1-.26,1.19,1.85,1.85,0,0,1-.73.81,2.1,2.1,0,0,1-1.1.29,2,2,0,0,1-1.52-.63,2.45,2.45,0,0,1-.57-1.69Zm1,.08a1.81,1.81,0,0,0,.28,1.09,1,1,0,0,0,.8.39.89.89,0,0,0,.79-.4,1.89,1.89,0,0,0,.29-1.16,1.8,1.8,0,0,0-.29-1.08.93.93,0,0,0-.8-.4.91.91,0,0,0-.78.39A1.91,1.91,0,0,0,308.24,89.18Zm5.86,1.48a.9.9,0,0,0,.63-.22.73.73,0,0,0,.27-.54H316a1.48,1.48,0,0,1-.26.78,1.89,1.89,0,0,1-.67.58,2,2,0,0,1-.9.21,2,2,0,0,1-1.5-.61,2.42,2.42,0,0,1-.55-1.69v-.1a2.34,2.34,0,0,1,.55-1.64,1.89,1.89,0,0,1,1.49-.62,1.86,1.86,0,0,1,1.31.47A1.7,1.7,0,0,1,316,88.5H315a.89.89,0,0,0-.27-.63.82.82,0,0,0-.63-.25.88.88,0,0,0-.75.36,1.74,1.74,0,0,0-.27,1.07v.16a1.88,1.88,0,0,0,.26,1.09A.89.89,0,0,0,314.1,90.66Zm5.29.72a1.52,1.52,0,0,1-.11-.42,1.57,1.57,0,0,1-1.18.51,1.6,1.6,0,0,1-1.11-.39,1.24,1.24,0,0,1-.42-1,1.25,1.25,0,0,1,.53-1.1,2.54,2.54,0,0,1,1.53-.39h.61v-.29a.7.7,0,0,0-.78-.77.94.94,0,0,0-.57.17.52.52,0,0,0-.22.44h-1a1.07,1.07,0,0,1,.25-.69,1.55,1.55,0,0,1,.66-.51,2.39,2.39,0,0,1,.94-.18,1.85,1.85,0,0,1,1.26.4,1.41,1.41,0,0,1,.48,1.11v2a2.33,2.33,0,0,0,.17,1v.07Zm-1.11-.72a1.16,1.16,0,0,0,.57-.15.87.87,0,0,0,.39-.39v-.84h-.54a1.49,1.49,0,0,0-.84.19.63.63,0,0,0-.29.55.6.6,0,0,0,.2.47A.77.77,0,0,0,318.28,90.66Zm4.29-4.86v1.09h.8v.75h-.8v2.51a.61.61,0,0,0,.1.37.47.47,0,0,0,.37.11,1.45,1.45,0,0,0,.35,0v.78a2.25,2.25,0,0,1-.66.1q-1.17,0-1.17-1.29V87.64h-.73v-.75h.73V85.8Zm3.55,5.67a2.11,2.11,0,0,1-1.56-.6,2.26,2.26,0,0,1-.59-1.62v-.12a2.58,2.58,0,0,1,.26-1.2A1.92,1.92,0,0,1,326,86.81a1.76,1.76,0,0,1,1.42.58,2.51,2.51,0,0,1,.5,1.66v.41H325a1.34,1.34,0,0,0,.37.88,1.12,1.12,0,0,0,.82.32,1.35,1.35,0,0,0,1.13-.56l.54.52a1.83,1.83,0,0,1-.72.63A2.37,2.37,0,0,1,326.12,91.47ZM326,87.62a.86.86,0,0,0-.67.29,1.51,1.51,0,0,0-.33.81h1.92v-.08a1.19,1.19,0,0,0-.27-.76A.83.83,0,0,0,326,87.62Z"/><rect class="cls-13" x="24.28" y="85.87" width="6.41" height="6.41" rx="0.46"/><path d="M67.81,84.3a4.58,4.58,0,1,0,4.58,4.58A4.58,4.58,0,0,0,67.81,84.3ZM70,87.65l-3.1,3.1s0,0,0,0h0l-1.33.36.36-1.33h0v0l3.1-3.1s0,0,0,0h0a.29.29,0,0,1,.33.06l.57.58h0a.27.27,0,0,1,.06.32s0,0,0,0Z"/><rect class="cls-13" x="24.28" y="131.69" width="6.41" height="6.41" rx="0.46"/><path d="M67.81,130.12a4.58,4.58,0,1,0,4.58,4.58A4.58,4.58,0,0,0,67.81,130.12Zm2.2,3.35-3.1,3.1h0l-1.33.35.36-1.32h0a0,0,0,0,1,0,0l3.1-3.1h0a.31.31,0,0,1,.33,0l.57.58h0a.28.28,0,0,1,.06.32,0,0,0,0,1,0,0Z"/><path class="cls-8" d="M142.18,111.42h-3.8v-.79h3.8Zm3.84,0h-3.81v-.79H146Z"/><path class="cls-8" d="M205.06,111.75a3.29,3.29,0,0,1-.49,2,1.7,1.7,0,0,1-1.48.66,1.77,1.77,0,0,1-1.48-.65,3.25,3.25,0,0,1-.5-1.91v-1a3.26,3.26,0,0,1,.48-2,2,2,0,0,1,3,0,3.06,3.06,0,0,1,.5,1.9Zm-1-1.13a2.51,2.51,0,0,0-.24-1.25.8.8,0,0,0-.74-.4.78.78,0,0,0-.72.38,2.31,2.31,0,0,0-.25,1.17v1.37a2.55,2.55,0,0,0,.24,1.26.79.79,0,0,0,.74.42.78.78,0,0,0,.72-.38,2.46,2.46,0,0,0,.25-1.21Zm4.76,1.14a1.58,1.58,0,0,1-1.19.54,1.6,1.6,0,0,1-1.27-.56,2.22,2.22,0,0,1-.47-1.47,2.38,2.38,0,0,1,.24-1.08,1.81,1.81,0,0,1,.69-.76,1.93,1.93,0,0,1,1-.27,1.74,1.74,0,0,1,1.45.69,2.9,2.9,0,0,1,.53,1.82V111a3.77,3.77,0,0,1-.74,2.5,2.79,2.79,0,0,1-2.2.87h-.12v-.84h.14a2.06,2.06,0,0,0,1.37-.43A1.78,1.78,0,0,0,208.82,111.76Zm-1-.25a1,1,0,0,0,.56-.17,1.19,1.19,0,0,0,.42-.49v-.39a1.94,1.94,0,0,0-.28-1.08.82.82,0,0,0-.71-.4.83.83,0,0,0-.7.36,1.52,1.52,0,0,0-.25.9,1.46,1.46,0,0,0,.26.92A.84.84,0,0,0,207.85,111.51Zm3.29,3.3h-.79l2.37-6.56h.8Zm5.74-.52h-1v-4.85l-1.48.51v-.86l2.36-.86h.12Zm2.45.52h-.79l2.38-6.56h.79Zm7.08-.52h-4.06v-.69l2-2.2a4.6,4.6,0,0,0,.62-.81,1.35,1.35,0,0,0,.19-.65,1,1,0,0,0-.25-.7.83.83,0,0,0-.65-.27,1,1,0,0,0-.76.3,1.18,1.18,0,0,0-.27.82h-1a1.92,1.92,0,0,1,.25-1,1.71,1.71,0,0,1,.72-.69,2.33,2.33,0,0,1,1.08-.25,2,2,0,0,1,1.39.45,1.52,1.52,0,0,1,.51,1.22,2.1,2.1,0,0,1-.26,1,5.31,5.31,0,0,1-.84,1.12l-1.47,1.59h2.8Zm4.71-2.54a3.29,3.29,0,0,1-.49,2,1.72,1.72,0,0,1-1.48.66,1.76,1.76,0,0,1-1.48-.65,3.18,3.18,0,0,1-.51-1.91v-1a3.25,3.25,0,0,1,.49-2,1.74,1.74,0,0,1,1.49-.66,1.77,1.77,0,0,1,1.48.64,3.12,3.12,0,0,1,.5,1.9Zm-1-1.13a2.64,2.64,0,0,0-.23-1.25.89.89,0,0,0-1.47,0,2.44,2.44,0,0,0-.24,1.17v1.37a2.55,2.55,0,0,0,.24,1.26.78.78,0,0,0,.74.42.8.8,0,0,0,.72-.38,2.59,2.59,0,0,0,.24-1.21Zm6,3.67H232v-.69l2-2.2a5.16,5.16,0,0,0,.62-.81,1.33,1.33,0,0,0,.18-.65,1,1,0,0,0-.24-.7.83.83,0,0,0-.65-.27,1,1,0,0,0-.76.3,1.18,1.18,0,0,0-.27.82h-1a1.92,1.92,0,0,1,.25-1,1.69,1.69,0,0,1,.71-.69,2.39,2.39,0,0,1,1.08-.25,2,2,0,0,1,1.39.45,1.52,1.52,0,0,1,.51,1.22,2,2,0,0,1-.26,1,4.9,4.9,0,0,1-.83,1.12l-1.48,1.59h2.81Zm4.71-2.54a3.36,3.36,0,0,1-.49,2,2,2,0,0,1-3,0,3.18,3.18,0,0,1-.51-1.91v-1a3.18,3.18,0,0,1,.49-2,2,2,0,0,1,3,0,3.12,3.12,0,0,1,.51,1.9Zm-1-1.13a2.51,2.51,0,0,0-.24-1.25.88.88,0,0,0-1.46,0,2.31,2.31,0,0,0-.25,1.17v1.37a2.55,2.55,0,0,0,.24,1.26.8.8,0,0,0,.74.42.78.78,0,0,0,.72-.38,2.46,2.46,0,0,0,.25-1.21Z"/><path class="cls-8" d="M299.72,112h-1.17v2.33H297.5v-6h2.13a2.43,2.43,0,0,1,1.61.47,1.64,1.64,0,0,1,.57,1.35,1.73,1.73,0,0,1-.29,1,1.94,1.94,0,0,1-.82.63l1.36,2.52v.05h-1.13Zm-1.17-.84h1.08a1.18,1.18,0,0,0,.83-.27.93.93,0,0,0,.3-.73,1,1,0,0,0-.28-.75,1.16,1.16,0,0,0-.82-.28h-1.11Zm6.14,3.26a2.12,2.12,0,0,1-1.56-.61,2.22,2.22,0,0,1-.59-1.61V112a2.71,2.71,0,0,1,.25-1.2,2,2,0,0,1,.74-.83,2,2,0,0,1,1-.29,1.76,1.76,0,0,1,1.42.58,2.49,2.49,0,0,1,.5,1.66v.41h-2.94a1.39,1.39,0,0,0,.37.88,1.16,1.16,0,0,0,.83.32,1.39,1.39,0,0,0,1.13-.56l.54.52a1.83,1.83,0,0,1-.72.63A2.37,2.37,0,0,1,304.69,114.38Zm-.12-3.85a.86.86,0,0,0-.68.29,1.59,1.59,0,0,0-.32.81h1.92v-.08a1.17,1.17,0,0,0-.27-.76A.8.8,0,0,0,304.57,110.53Zm4.55,3a.91.91,0,0,0,.63-.22.77.77,0,0,0,.26-.54h1a1.5,1.5,0,0,1-.27.78,1.67,1.67,0,0,1-.66.57,2,2,0,0,1-.91.22,1.92,1.92,0,0,1-1.49-.62,2.38,2.38,0,0,1-.55-1.68V112a2.34,2.34,0,0,1,.55-1.64,1.86,1.86,0,0,1,1.49-.62,1.79,1.79,0,0,1,1.3.47,1.66,1.66,0,0,1,.54,1.22h-1a.91.91,0,0,0-.26-.63.82.82,0,0,0-.63-.25.89.89,0,0,0-.75.35,1.79,1.79,0,0,0-.27,1.08v.16a1.81,1.81,0,0,0,.26,1.09A.89.89,0,0,0,309.12,113.57Zm4.59.81a2.12,2.12,0,0,1-1.56-.61,2.18,2.18,0,0,1-.6-1.61V112a2.71,2.71,0,0,1,.26-1.2,2,2,0,0,1,.73-.83,2,2,0,0,1,1-.29,1.78,1.78,0,0,1,1.42.58,2.49,2.49,0,0,1,.5,1.66v.41h-2.94a1.39,1.39,0,0,0,.37.88,1.14,1.14,0,0,0,.82.32,1.37,1.37,0,0,0,1.13-.56l.55.52a1.8,1.8,0,0,1-.73.63A2.3,2.3,0,0,1,313.71,114.38Zm-.12-3.85a.84.84,0,0,0-.68.29,1.5,1.5,0,0,0-.32.81h1.92v-.08a1.17,1.17,0,0,0-.27-.76A.82.82,0,0,0,313.59,110.53Zm3.78,3.76h-1V109.8h1Zm-1.07-5.66a.51.51,0,0,1,.14-.38.54.54,0,0,1,.42-.16.54.54,0,0,1,.43.16.52.52,0,0,1,.15.38.54.54,0,0,1-.15.39.62.62,0,0,1-.43.14.61.61,0,0,1-.42-.14A.54.54,0,0,1,316.3,108.63Zm3.75,4.38.95-3.21h1.05l-1.56,4.49h-.88L318,109.8h1Zm4.55,1.37a2.12,2.12,0,0,1-1.56-.61,2.22,2.22,0,0,1-.59-1.61V112a2.58,2.58,0,0,1,.26-1.2,1.91,1.91,0,0,1,.73-.83,2,2,0,0,1,1-.29,1.75,1.75,0,0,1,1.42.58,2.49,2.49,0,0,1,.5,1.66v.41h-2.93a1.34,1.34,0,0,0,.37.88,1.12,1.12,0,0,0,.82.32,1.38,1.38,0,0,0,1.13-.56l.54.52a1.83,1.83,0,0,1-.72.63A2.37,2.37,0,0,1,324.6,114.38Zm-.12-3.85a.82.82,0,0,0-.67.29,1.51,1.51,0,0,0-.33.81h1.93v-.08a1.29,1.29,0,0,0-.27-.76A.83.83,0,0,0,324.48,110.53Zm8.31,2.35h-2.34l-.49,1.41h-1.1l2.29-6h.94l2.29,6h-1.1Zm-2.05-.84h1.75l-.87-2.51Zm6.58-1.32a2.73,2.73,0,0,0-.41,0,.93.93,0,0,0-.93.53v3.07h-1V109.8h1l0,.5a1.15,1.15,0,0,1,1-.58.88.88,0,0,1,.35.06Zm2.11-2v1.09h.79v.75h-.79v2.5a.56.56,0,0,0,.1.38.5.5,0,0,0,.36.11,1.47,1.47,0,0,0,.36,0v.78a2.65,2.65,0,0,1-.67.1c-.77,0-1.16-.43-1.16-1.29v-2.54h-.74v-.75h.74v-1.09Zm5.51,4.19.72-3.1h1l-1.22,4.49h-.83l-1-3.08-.94,3.08h-.83l-1.23-4.49h1l.73,3.07.92-3.07H344Zm2.19-.9a2.53,2.53,0,0,1,.26-1.18,1.89,1.89,0,0,1,.73-.82,2.08,2.08,0,0,1,1.09-.28,2,2,0,0,1,1.48.58,2.34,2.34,0,0,1,.61,1.56v.23a2.7,2.7,0,0,1-.25,1.19,1.92,1.92,0,0,1-.73.81,2.12,2.12,0,0,1-1.1.29,2,2,0,0,1-1.52-.64,2.42,2.42,0,0,1-.57-1.69Zm1,.09a1.83,1.83,0,0,0,.28,1.09.94.94,0,0,0,.8.39.9.9,0,0,0,.79-.4,2,2,0,0,0,.29-1.17,1.72,1.72,0,0,0-.3-1.07.9.9,0,0,0-.79-.4.91.91,0,0,0-.78.39A1.91,1.91,0,0,0,348.14,112.09Zm6.37-1.37a2.73,2.73,0,0,0-.41,0,.94.94,0,0,0-.94.53v3.07h-1V109.8h1l0,.5a1.14,1.14,0,0,1,1-.58.88.88,0,0,1,.35.06Zm3,0a2.73,2.73,0,0,0-.41,0,.93.93,0,0,0-.94.53v3.07h-1V109.8h1l0,.5a1.14,1.14,0,0,1,1-.58.88.88,0,0,1,.35.06Zm2.09,1.65-.44.46v1.46h-1v-6.37h1v3.67l.31-.39,1.24-1.4h1.22l-1.67,1.87,1.84,2.62h-1.16Z"/><rect class="cls-13" x="24.28" y="108.78" width="6.41" height="6.41" rx="0.46"/><path d="M67.81,107.21a4.58,4.58,0,1,0,4.58,4.58A4.58,4.58,0,0,0,67.81,107.21Zm2.2,3.35-3.1,3.1s0,0,0,0h0l-1.33.36.36-1.33h0a0,0,0,0,1,0,0l3.1-3.1s0,0,0,0h0a.31.31,0,0,1,.33,0l.57.58h0a.29.29,0,0,1,.06.33v0Z"/><rect class="cls-13" x="24.28" y="154.6" width="6.41" height="6.41" rx="0.46"/><path d="M67.81,153a4.59,4.59,0,1,0,4.58,4.59A4.58,4.58,0,0,0,67.81,153Zm2.2,3.36-3.1,3.1h0l-1.33.35.36-1.32h0s0,0,0,0l3.1-3.1a0,0,0,0,1,0,0h0a.27.27,0,0,1,.33,0L70,156h0a.27.27,0,0,1,.06.32,0,0,0,0,1,0,0Z"/></g></g></svg>