<?xml version="1.0" encoding="utf-8"?>
<!-- Generator: Adobe Illustrator 24.2.0, SVG Export Plug-In . SVG Version: 6.00 Build 0)  -->
<svg version="1.1" id="Layer_1" xmlns="http://www.w3.org/2000/svg" xmlns:xlink="http://www.w3.org/1999/xlink" x="0px" y="0px"
	 viewBox="0 0 442 266" style="enable-background:new 0 0 442 266;" xml:space="preserve">
<style type="text/css">
	.st0{fill:#FFFFFF;stroke:#E6E6E6;stroke-width:0.3641;}
	.st1{fill:none;stroke:#D0D0D0;stroke-width:0.7282;}
	.st2{fill:#C6C2C2;}
	.st3{fill:#F4F4F4;}
	.st4{fill:#D5D5D5;}
	.st5{fill:#FFFFFF;}
	.st6{fill:#337CB9;}
	.st7{fill:none;stroke:#E6E6E6;stroke-width:0.3641;}
	.st8{opacity:0.2;fill:none;stroke:#FFFFFF;stroke-width:0.7282;enable-background:new    ;}
	.st9{fill:none;stroke:#FFFFFF;stroke-width:0.7282;}
	.st10{fill:#262626;}
	.st11{fill:none;stroke:#337CB9;stroke-width:0.7282;}
	.st12{fill:#B8D3D8;}
	.st13{fill:#D3E7EC;}
	.st14{fill:#FF8888;}
	.st15{fill:#EA7A70;}
	.st16{fill:#BDB8EC;}
	.st17{fill:#FFAEA7;}
	.st18{fill:#DADAFF;}
	.st19{fill:#FFC1C5;}
	.st20{fill:#FFB7BB;}
	.st21{fill:#441FD8;}
	.st22{fill:#3111AE;}
	.st23{fill:#1F0D52;}
	.st24{fill:#ACDCFF;}
	.st25{fill:#333333;}
	.st26{fill-rule:evenodd;clip-rule:evenodd;fill:#453286;}
	.st27{fill-rule:evenodd;clip-rule:evenodd;fill:#EA7A70;}
	.st28{fill:#FFAFB4;}
	.st29{fill:#88C0E9;}
	.st30{fill:#FFB4B7;}
	.st31{fill:#252525;}
	.st32{fill:#5F40D4;}
</style>
<path class="st0" d="M18.9,118.3h377.2c3.9,0,7.1,3.2,7.1,7.1v106.3c0,3.9-3.2,7.1-7.1,7.1H18.9c-3.9,0-7.1-3.2-7.1-7.1V125.4
	C11.8,121.5,15,118.3,18.9,118.3z"/>
<path d="M32.8,141.7h-1.5v-7.2h1.5V141.7z M35.4,136.3l0,0.6c0.4-0.5,0.9-0.7,1.5-0.7c0.6,0,1,0.2,1.3,0.5c0.3,0.3,0.4,0.8,0.4,1.5
	v3.5h-1.4v-3.4c0-0.3-0.1-0.5-0.2-0.7c-0.1-0.1-0.4-0.2-0.7-0.2c-0.4,0-0.7,0.2-0.9,0.5v3.8h-1.4v-5.4H35.4z M41.8,139.9l1-3.6h1.5
	l-1.8,5.4h-1.4l-1.8-5.4h1.5L41.8,139.9z M47.4,141.8c-0.8,0-1.4-0.2-1.9-0.7c-0.5-0.5-0.7-1.1-0.7-1.9V139c0-0.5,0.1-1,0.3-1.4
	c0.2-0.4,0.5-0.8,0.9-1c0.4-0.2,0.8-0.3,1.3-0.3c0.7,0,1.3,0.2,1.7,0.7c0.4,0.5,0.6,1.1,0.6,2v0.6h-3.4c0,0.4,0.2,0.6,0.4,0.8
	c0.2,0.2,0.5,0.3,0.9,0.3c0.6,0,1-0.2,1.3-0.6l0.7,0.8c-0.2,0.3-0.5,0.5-0.9,0.7C48.2,141.7,47.8,141.8,47.4,141.8z M47.2,137.4
	c-0.3,0-0.5,0.1-0.7,0.3c-0.2,0.2-0.3,0.5-0.3,0.8h2v-0.1c0-0.3-0.1-0.6-0.3-0.7C47.8,137.4,47.5,137.4,47.2,137.4z M51.8,136.3
	l0,0.6c0.4-0.5,0.9-0.7,1.5-0.7c0.6,0,1,0.2,1.3,0.5c0.3,0.3,0.4,0.8,0.4,1.5v3.5h-1.4v-3.4c0-0.3-0.1-0.5-0.2-0.7
	c-0.1-0.1-0.4-0.2-0.7-0.2c-0.4,0-0.7,0.2-0.9,0.5v3.8h-1.4v-5.4H51.8z M57.9,135v1.3h0.9v1.1h-0.9v2.7c0,0.2,0,0.3,0.1,0.4
	c0.1,0.1,0.2,0.1,0.4,0.1c0.2,0,0.3,0,0.4,0v1.1c-0.3,0.1-0.6,0.1-0.9,0.1c-1,0-1.5-0.5-1.5-1.5v-2.9h-0.8v-1.1h0.8V135H57.9z
	 M62.7,141.7c-0.1-0.1-0.1-0.3-0.1-0.5c-0.3,0.4-0.8,0.6-1.4,0.6c-0.5,0-1-0.2-1.3-0.5c-0.3-0.3-0.5-0.7-0.5-1.2
	c0-0.6,0.2-1,0.6-1.3c0.4-0.3,1-0.5,1.8-0.5h0.7v-0.3c0-0.2-0.1-0.4-0.2-0.6c-0.1-0.1-0.3-0.2-0.6-0.2c-0.2,0-0.4,0.1-0.6,0.2
	c-0.1,0.1-0.2,0.3-0.2,0.5h-1.4c0-0.3,0.1-0.6,0.3-0.9c0.2-0.3,0.5-0.5,0.8-0.6c0.4-0.2,0.7-0.2,1.2-0.2c0.7,0,1.2,0.2,1.6,0.5
	c0.4,0.3,0.6,0.8,0.6,1.4v2.3c0,0.5,0.1,0.9,0.2,1.2v0.1H62.7z M61.5,140.7c0.2,0,0.4,0,0.6-0.1c0.2-0.1,0.3-0.2,0.4-0.4v-0.9H62
	c-0.7,0-1.1,0.2-1.1,0.7l0,0.1c0,0.2,0.1,0.3,0.2,0.4C61.1,140.6,61.3,140.7,61.5,140.7z M66.6,141.7h-1.4v-5.4h1.4V141.7z
	 M65,134.9c0-0.2,0.1-0.4,0.2-0.5c0.1-0.1,0.3-0.2,0.6-0.2c0.2,0,0.4,0.1,0.6,0.2c0.1,0.1,0.2,0.3,0.2,0.5c0,0.2-0.1,0.4-0.2,0.5
	c-0.1,0.1-0.3,0.2-0.6,0.2c-0.2,0-0.4-0.1-0.6-0.2C65.1,135.3,65,135.1,65,134.9z M70.8,137.6c-0.2,0-0.4,0-0.5,0
	c-0.5,0-0.9,0.2-1.1,0.6v3.5h-1.4v-5.4h1.4l0,0.6c0.3-0.5,0.7-0.7,1.2-0.7c0.2,0,0.3,0,0.4,0.1L70.8,137.6z M73.9,141.8
	c-0.8,0-1.4-0.2-1.9-0.7c-0.5-0.5-0.7-1.1-0.7-1.9V139c0-0.5,0.1-1,0.3-1.4c0.2-0.4,0.5-0.8,0.9-1c0.4-0.2,0.8-0.3,1.3-0.3
	c0.7,0,1.3,0.2,1.7,0.7c0.4,0.5,0.6,1.1,0.6,2v0.6h-3.4c0,0.4,0.2,0.6,0.4,0.8c0.2,0.2,0.5,0.3,0.9,0.3c0.6,0,1-0.2,1.3-0.6l0.7,0.8
	c-0.2,0.3-0.5,0.5-0.9,0.7C74.7,141.7,74.3,141.8,73.9,141.8z M73.7,137.4c-0.3,0-0.5,0.1-0.7,0.3c-0.2,0.2-0.3,0.5-0.3,0.8h2v-0.1
	c0-0.3-0.1-0.6-0.3-0.7C74.2,137.4,74,137.4,73.7,137.4z M80.8,136.3l0,0.6c0.4-0.5,0.9-0.7,1.5-0.7c0.6,0,1,0.2,1.3,0.5
	c0.3,0.3,0.4,0.8,0.4,1.5v3.5h-1.4v-3.4c0-0.3-0.1-0.5-0.2-0.7c-0.1-0.1-0.4-0.2-0.7-0.2c-0.4,0-0.7,0.2-0.9,0.5v3.8h-1.4v-5.4H80.8
	z M88.4,141.1c-0.4,0.4-0.8,0.6-1.5,0.6c-0.6,0-1-0.2-1.3-0.5c-0.3-0.3-0.5-0.8-0.5-1.5v-3.5h1.4v3.5c0,0.6,0.3,0.8,0.8,0.8
	c0.5,0,0.8-0.2,1-0.5v-3.8h1.4v5.4h-1.4L88.4,141.1z M92.2,136.3l0,0.6c0.4-0.5,0.9-0.7,1.5-0.7c0.7,0,1.2,0.3,1.4,0.8
	c0.4-0.5,0.9-0.8,1.6-0.8c0.6,0,1,0.2,1.3,0.5c0.3,0.3,0.4,0.9,0.4,1.5v3.4h-1.4v-3.4c0-0.3-0.1-0.5-0.2-0.7
	c-0.1-0.1-0.3-0.2-0.6-0.2c-0.4,0-0.7,0.2-0.9,0.6l0,3.7H94v-3.4c0-0.3-0.1-0.5-0.2-0.7c-0.1-0.1-0.3-0.2-0.6-0.2
	c-0.4,0-0.7,0.2-0.9,0.5v3.8h-1.4v-5.4H92.2z M102.2,141.8c-0.8,0-1.4-0.2-1.9-0.7c-0.5-0.5-0.7-1.1-0.7-1.9V139
	c0-0.5,0.1-1,0.3-1.4c0.2-0.4,0.5-0.8,0.9-1c0.4-0.2,0.8-0.3,1.3-0.3c0.7,0,1.3,0.2,1.7,0.7c0.4,0.5,0.6,1.1,0.6,2v0.6H101
	c0,0.4,0.2,0.6,0.4,0.8c0.2,0.2,0.5,0.3,0.9,0.3c0.6,0,1-0.2,1.3-0.6l0.7,0.8c-0.2,0.3-0.5,0.5-0.9,0.7
	C103,141.7,102.6,141.8,102.2,141.8z M102,137.4c-0.3,0-0.5,0.1-0.7,0.3c-0.2,0.2-0.3,0.5-0.3,0.8h2v-0.1c0-0.3-0.1-0.6-0.3-0.7
	C102.5,137.4,102.3,137.4,102,137.4z M102.1,134h1.6l-1.4,1.5h-1.2L102.1,134z M108.2,137.6c-0.2,0-0.4,0-0.5,0
	c-0.5,0-0.9,0.2-1.1,0.6v3.5h-1.4v-5.4h1.4l0,0.6c0.3-0.5,0.7-0.7,1.2-0.7c0.2,0,0.3,0,0.4,0.1L108.2,137.6z M110.4,141.7H109v-5.4
	h1.4V141.7z M108.9,134.9c0-0.2,0.1-0.4,0.2-0.5c0.1-0.1,0.3-0.2,0.6-0.2c0.2,0,0.4,0.1,0.6,0.2c0.1,0.1,0.2,0.3,0.2,0.5
	c0,0.2-0.1,0.4-0.2,0.5c-0.1,0.1-0.3,0.2-0.6,0.2c-0.2,0-0.4-0.1-0.6-0.2C109,135.3,108.9,135.1,108.9,134.9z M111.4,138.9
	c0-0.8,0.2-1.5,0.6-2c0.4-0.5,0.9-0.7,1.6-0.7c0.6,0,1,0.2,1.4,0.7l0.1-0.6h1.3v7.5h-1.4v-2.5c-0.3,0.4-0.8,0.6-1.3,0.6
	c-0.6,0-1.2-0.2-1.5-0.7C111.6,140.5,111.4,139.8,111.4,138.9z M112.8,139c0,0.5,0.1,0.9,0.3,1.2c0.2,0.3,0.4,0.4,0.8,0.4
	c0.4,0,0.8-0.2,0.9-0.5v-2.2c-0.2-0.3-0.5-0.5-0.9-0.5c-0.3,0-0.6,0.1-0.8,0.4C112.9,138,112.8,138.5,112.8,139z M120.6,141.1
	c-0.4,0.4-0.8,0.6-1.5,0.6c-0.6,0-1-0.2-1.3-0.5c-0.3-0.3-0.5-0.8-0.5-1.5v-3.5h1.4v3.5c0,0.6,0.3,0.8,0.8,0.8c0.5,0,0.8-0.2,1-0.5
	v-3.8h1.4v5.4h-1.4L120.6,141.1z M125.6,141.8c-0.8,0-1.4-0.2-1.9-0.7c-0.5-0.5-0.7-1.1-0.7-1.9V139c0-0.5,0.1-1,0.3-1.4
	c0.2-0.4,0.5-0.8,0.9-1c0.4-0.2,0.8-0.3,1.3-0.3c0.7,0,1.3,0.2,1.7,0.7c0.4,0.5,0.6,1.1,0.6,2v0.6h-3.4c0,0.4,0.2,0.6,0.4,0.8
	c0.2,0.2,0.5,0.3,0.9,0.3c0.6,0,1-0.2,1.3-0.6l0.7,0.8c-0.2,0.3-0.5,0.5-0.9,0.7C126.4,141.7,126,141.8,125.6,141.8z M125.4,137.4
	c-0.3,0-0.5,0.1-0.7,0.3c-0.2,0.2-0.3,0.5-0.3,0.8h2v-0.1c0-0.3-0.1-0.6-0.3-0.7C126,137.4,125.7,137.4,125.4,137.4z"/>
<path class="st1" d="M29.1,179.6h4.4c0.6,0,1.1,0.5,1.1,1.1v4.4c0,0.6-0.5,1.1-1.1,1.1h-4.4c-0.6,0-1.1-0.5-1.1-1.1v-4.4
	C28,180.1,28.5,179.6,29.1,179.6z"/>
<path class="st2" d="M43.7,179.3h50.2c0.8,0,1.5,0.7,1.5,1.5v4.4c0,0.8-0.7,1.5-1.5,1.5H43.7c-0.8,0-1.5-0.7-1.5-1.5v-4.4
	C42.2,179.9,42.9,179.3,43.7,179.3z"/>
<path class="st3" d="M114.3,179.3h41.5c0.8,0,1.5,0.7,1.5,1.5v4.4c0,0.8-0.7,1.5-1.5,1.5h-41.5c-0.8,0-1.5-0.7-1.5-1.5v-4.4
	C112.9,179.9,113.5,179.3,114.3,179.3z"/>
<path class="st4" d="M178.4,179.3h25.5c0.8,0,1.5,0.7,1.5,1.5v4.4c0,0.8-0.7,1.5-1.5,1.5h-25.5c-0.8,0-1.5-0.7-1.5-1.5v-4.4
	C176.9,179.9,177.6,179.3,178.4,179.3z"/>
<path class="st4" d="M300.7,179.3h25.5c0.8,0,1.5,0.7,1.5,1.5v4.4c0,0.8-0.7,1.5-1.5,1.5h-25.5c-0.8,0-1.5-0.7-1.5-1.5v-4.4
	C299.3,179.9,299.9,179.3,300.7,179.3z"/>
<path class="st4" d="M228.6,179.3H276c0.8,0,1.5,0.7,1.5,1.5v4.4c0,0.8-0.7,1.5-1.5,1.5h-47.3c-0.8,0-1.5-0.7-1.5-1.5v-4.4
	C227.2,179.9,227.8,179.3,228.6,179.3z"/>
<path class="st1" d="M29.1,197.1h4.4c0.6,0,1.1,0.5,1.1,1.1v4.4c0,0.6-0.5,1.1-1.1,1.1h-4.4c-0.6,0-1.1-0.5-1.1-1.1v-4.4
	C28,197.6,28.5,197.1,29.1,197.1z"/>
<path class="st2" d="M43.7,196.8h50.2c0.8,0,1.5,0.7,1.5,1.5v4.4c0,0.8-0.7,1.5-1.5,1.5H43.7c-0.8,0-1.5-0.7-1.5-1.5v-4.4
	C42.2,197.4,42.9,196.8,43.7,196.8z"/>
<path class="st3" d="M114.3,196.8h41.5c0.8,0,1.5,0.7,1.5,1.5v4.4c0,0.8-0.7,1.5-1.5,1.5h-41.5c-0.8,0-1.5-0.7-1.5-1.5v-4.4
	C112.9,197.4,113.5,196.8,114.3,196.8z"/>
<path class="st4" d="M178.4,196.8h25.5c0.8,0,1.5,0.7,1.5,1.5v4.4c0,0.8-0.7,1.5-1.5,1.5h-25.5c-0.8,0-1.5-0.7-1.5-1.5v-4.4
	C176.9,197.4,177.6,196.8,178.4,196.8z"/>
<path class="st4" d="M300.7,196.8h25.5c0.8,0,1.5,0.7,1.5,1.5v4.4c0,0.8-0.7,1.5-1.5,1.5h-25.5c-0.8,0-1.5-0.7-1.5-1.5v-4.4
	C299.3,197.4,299.9,196.8,300.7,196.8z"/>
<path class="st4" d="M228.6,196.8H276c0.8,0,1.5,0.7,1.5,1.5v4.4c0,0.8-0.7,1.5-1.5,1.5h-47.3c-0.8,0-1.5-0.7-1.5-1.5v-4.4
	C227.2,197.4,227.8,196.8,228.6,196.8z"/>
<path class="st1" d="M29.1,216.1h4.4c0.6,0,1.1,0.5,1.1,1.1v4.4c0,0.6-0.5,1.1-1.1,1.1h-4.4c-0.6,0-1.1-0.5-1.1-1.1v-4.4
	C28,216.5,28.5,216.1,29.1,216.1z"/>
<path class="st2" d="M43.7,215.7h50.2c0.8,0,1.5,0.7,1.5,1.5v4.4c0,0.8-0.7,1.5-1.5,1.5H43.7c-0.8,0-1.5-0.7-1.5-1.5v-4.4
	C42.2,216.3,42.9,215.7,43.7,215.7z"/>
<path class="st3" d="M114.3,215.7h41.5c0.8,0,1.5,0.7,1.5,1.5v4.4c0,0.8-0.7,1.5-1.5,1.5h-41.5c-0.8,0-1.5-0.7-1.5-1.5v-4.4
	C112.9,216.3,113.5,215.7,114.3,215.7z"/>
<path class="st4" d="M178.4,215.7h25.5c0.8,0,1.5,0.7,1.5,1.5v4.4c0,0.8-0.7,1.5-1.5,1.5h-25.5c-0.8,0-1.5-0.7-1.5-1.5v-4.4
	C176.9,216.3,177.6,215.7,178.4,215.7z"/>
<path class="st4" d="M300.7,215.7h25.5c0.8,0,1.5,0.7,1.5,1.5v4.4c0,0.8-0.7,1.5-1.5,1.5h-25.5c-0.8,0-1.5-0.7-1.5-1.5v-4.4
	C299.3,216.3,299.9,215.7,300.7,215.7z"/>
<path class="st4" d="M228.6,215.7H276c0.8,0,1.5,0.7,1.5,1.5v4.4c0,0.8-0.7,1.5-1.5,1.5h-47.3c-0.8,0-1.5-0.7-1.5-1.5v-4.4
	C227.2,216.3,227.8,215.7,228.6,215.7z"/>
<path class="st1" d="M29.1,162.2h4.4c0.6,0,1.1,0.5,1.1,1.1v4.4c0,0.6-0.5,1.1-1.1,1.1h-4.4c-0.6,0-1.1-0.5-1.1-1.1v-4.4
	C28,162.7,28.5,162.2,29.1,162.2z"/>
<path d="M48.4,168.9h-1l-3.9-6v6h-1v-7.8h1l3.9,6v-6h1V168.9z M53.6,168.9c-0.1-0.1-0.1-0.3-0.1-0.6c-0.5,0.5-1,0.7-1.6,0.7
	c-0.6,0-1-0.2-1.4-0.5c-0.4-0.3-0.5-0.7-0.5-1.2c0-0.6,0.2-1.1,0.7-1.4c0.5-0.3,1.1-0.5,1.9-0.5h1v-0.5c0-0.3-0.1-0.6-0.3-0.8
	c-0.2-0.2-0.5-0.3-0.9-0.3c-0.4,0-0.6,0.1-0.9,0.3c-0.2,0.2-0.4,0.4-0.4,0.6h-1c0-0.3,0.1-0.6,0.3-0.8c0.2-0.3,0.5-0.5,0.8-0.6
	c0.4-0.2,0.7-0.2,1.2-0.2c0.7,0,1.2,0.2,1.6,0.5c0.4,0.3,0.6,0.8,0.6,1.4v2.7c0,0.5,0.1,1,0.2,1.3v0.1H53.6z M52,168.1
	c0.3,0,0.6-0.1,0.9-0.2c0.3-0.2,0.5-0.4,0.6-0.6v-1.2h-0.8c-1.2,0-1.8,0.4-1.8,1.1c0,0.3,0.1,0.6,0.3,0.7
	C51.4,168.1,51.7,168.1,52,168.1z M56.9,163.1l0,0.6c0.4-0.5,1-0.7,1.7-0.7c0.8,0,1.4,0.3,1.7,0.9c0.2-0.3,0.4-0.5,0.7-0.7
	c0.3-0.2,0.7-0.3,1.1-0.3c1.3,0,1.9,0.7,1.9,2v3.9h-1v-3.8c0-0.4-0.1-0.7-0.3-0.9c-0.2-0.2-0.5-0.3-1-0.3c-0.4,0-0.7,0.1-0.9,0.3
	c-0.2,0.2-0.4,0.5-0.4,0.9v3.8h-1v-3.8c0-0.8-0.4-1.3-1.2-1.3c-0.6,0-1.1,0.3-1.3,0.8v4.2h-1v-5.8H56.9z M68,169
	c-0.8,0-1.4-0.3-1.9-0.8c-0.5-0.5-0.7-1.2-0.7-2.1V166c0-0.6,0.1-1.1,0.3-1.5c0.2-0.5,0.5-0.8,0.9-1.1c0.4-0.3,0.8-0.4,1.3-0.4
	c0.8,0,1.3,0.2,1.8,0.7c0.4,0.5,0.6,1.2,0.6,2.1v0.4h-3.9c0,0.6,0.2,1,0.5,1.4c0.3,0.3,0.7,0.5,1.2,0.5c0.3,0,0.6-0.1,0.9-0.2
	c0.2-0.1,0.5-0.3,0.6-0.6l0.6,0.5C69.7,168.6,69,169,68,169z M67.9,163.8c-0.4,0-0.7,0.1-1,0.4c-0.3,0.3-0.4,0.7-0.5,1.2h2.9v-0.1
	c0-0.5-0.2-0.9-0.4-1.2C68.6,164,68.3,163.8,67.9,163.8z"/>
<path d="M119.2,167h-3.3l-0.7,2h-1.1l3-7.8h0.9l3,7.8h-1.1L119.2,167z M116.2,166.1h2.6l-1.3-3.6L116.2,166.1z M121.6,166.1
	c0-0.9,0.2-1.6,0.6-2.1c0.4-0.5,1-0.8,1.7-0.8c0.7,0,1.2,0.2,1.6,0.7v-3h1v8.2h-0.9l0-0.6c-0.4,0.5-0.9,0.7-1.7,0.7
	c-0.7,0-1.2-0.3-1.6-0.8C121.9,167.7,121.6,167,121.6,166.1L121.6,166.1z M122.6,166.2c0,0.7,0.1,1.2,0.4,1.5
	c0.3,0.4,0.6,0.6,1.1,0.6c0.6,0,1.1-0.3,1.4-0.8v-2.7c-0.3-0.5-0.8-0.8-1.4-0.8c-0.5,0-0.9,0.2-1.1,0.6
	C122.8,164.9,122.6,165.4,122.6,166.2z M127.8,166.1c0-0.9,0.2-1.6,0.6-2.1c0.4-0.5,1-0.8,1.7-0.8c0.7,0,1.2,0.2,1.6,0.7v-3h1v8.2
	h-0.9l0-0.6c-0.4,0.5-0.9,0.7-1.7,0.7c-0.7,0-1.2-0.3-1.6-0.8C128,167.7,127.8,167,127.8,166.1L127.8,166.1z M128.8,166.2
	c0,0.7,0.1,1.2,0.4,1.5c0.3,0.4,0.6,0.6,1.1,0.6c0.6,0,1.1-0.3,1.4-0.8v-2.7c-0.3-0.5-0.7-0.8-1.4-0.8c-0.5,0-0.9,0.2-1.1,0.6
	C128.9,164.9,128.8,165.4,128.8,166.2z M137,164.1c-0.1,0-0.3,0-0.5,0c-0.6,0-1.1,0.3-1.3,0.8v4.1h-1v-5.8h1l0,0.7
	c0.3-0.5,0.8-0.8,1.4-0.8c0.2,0,0.3,0,0.4,0.1V164.1z M140.2,169.1c-0.8,0-1.4-0.3-1.9-0.8c-0.5-0.5-0.7-1.2-0.7-2.1v-0.2
	c0-0.6,0.1-1.1,0.3-1.5c0.2-0.5,0.5-0.8,0.9-1.1c0.4-0.3,0.8-0.4,1.3-0.4c0.8,0,1.3,0.2,1.8,0.7c0.4,0.5,0.6,1.2,0.6,2.1v0.4h-3.9
	c0,0.6,0.2,1,0.5,1.4c0.3,0.3,0.7,0.5,1.2,0.5c0.3,0,0.6-0.1,0.9-0.2c0.2-0.1,0.5-0.3,0.6-0.6l0.6,0.5
	C141.9,168.7,141.2,169.1,140.2,169.1z M140.1,163.9c-0.4,0-0.7,0.1-1,0.4c-0.3,0.3-0.4,0.7-0.5,1.2h2.9v-0.1c0-0.5-0.2-0.9-0.4-1.2
	C140.8,164.1,140.5,163.9,140.1,163.9z M147,167.5c0-0.3-0.1-0.5-0.3-0.6c-0.2-0.1-0.6-0.3-1.1-0.4c-0.5-0.1-0.9-0.2-1.2-0.4
	c-0.3-0.1-0.5-0.3-0.7-0.5c-0.1-0.2-0.2-0.5-0.2-0.7c0-0.5,0.2-0.9,0.6-1.2c0.4-0.3,0.9-0.5,1.5-0.5c0.7,0,1.2,0.2,1.6,0.5
	c0.4,0.3,0.6,0.8,0.6,1.3h-1c0-0.3-0.1-0.5-0.3-0.7c-0.2-0.2-0.5-0.3-0.9-0.3c-0.4,0-0.6,0.1-0.8,0.2s-0.3,0.4-0.3,0.6
	c0,0.2,0.1,0.4,0.3,0.5c0.2,0.1,0.5,0.2,1,0.3c0.5,0.1,0.9,0.2,1.2,0.4c0.3,0.2,0.5,0.3,0.7,0.6c0.2,0.2,0.2,0.5,0.2,0.8
	c0,0.5-0.2,0.9-0.6,1.2c-0.4,0.3-0.9,0.5-1.6,0.5c-0.5,0-0.9-0.1-1.2-0.2c-0.4-0.2-0.6-0.4-0.8-0.7c-0.2-0.3-0.3-0.6-0.3-1h1
	c0,0.3,0.2,0.6,0.4,0.8c0.2,0.2,0.6,0.3,1,0.3c0.4,0,0.7-0.1,0.9-0.2C146.9,167.9,147,167.7,147,167.5z M152.6,167.5
	c0-0.3-0.1-0.5-0.3-0.6c-0.2-0.1-0.6-0.3-1.1-0.4c-0.5-0.1-0.9-0.2-1.2-0.4c-0.3-0.1-0.5-0.3-0.7-0.5c-0.1-0.2-0.2-0.5-0.2-0.7
	c0-0.5,0.2-0.9,0.6-1.2c0.4-0.3,0.9-0.5,1.5-0.5c0.7,0,1.2,0.2,1.6,0.5c0.4,0.3,0.6,0.8,0.6,1.3h-1c0-0.3-0.1-0.5-0.3-0.7
	c-0.2-0.2-0.5-0.3-0.9-0.3c-0.4,0-0.6,0.1-0.8,0.2c-0.2,0.2-0.3,0.4-0.3,0.6c0,0.2,0.1,0.4,0.3,0.5c0.2,0.1,0.5,0.2,1,0.3
	c0.5,0.1,0.9,0.2,1.2,0.4s0.5,0.3,0.7,0.6c0.2,0.2,0.2,0.5,0.2,0.8c0,0.5-0.2,0.9-0.6,1.2c-0.4,0.3-0.9,0.5-1.6,0.5
	c-0.5,0-0.9-0.1-1.2-0.2c-0.4-0.2-0.6-0.4-0.8-0.7c-0.2-0.3-0.3-0.6-0.3-1h1c0,0.3,0.2,0.6,0.4,0.8c0.2,0.2,0.6,0.3,1,0.3
	c0.4,0,0.7-0.1,0.9-0.2C152.5,167.9,152.6,167.7,152.6,167.5z M157.3,169.1c-0.8,0-1.4-0.3-1.9-0.8c-0.5-0.5-0.7-1.2-0.7-2.1v-0.2
	c0-0.6,0.1-1.1,0.3-1.5c0.2-0.5,0.5-0.8,0.9-1.1c0.4-0.3,0.8-0.4,1.3-0.4c0.8,0,1.3,0.2,1.8,0.7c0.4,0.5,0.6,1.2,0.6,2.1v0.4h-3.9
	c0,0.6,0.2,1,0.5,1.4c0.3,0.3,0.7,0.5,1.2,0.5c0.3,0,0.6-0.1,0.9-0.2c0.2-0.1,0.5-0.3,0.6-0.6l0.6,0.5
	C159,168.7,158.3,169.1,157.3,169.1z M157.2,163.9c-0.4,0-0.7,0.1-1,0.4c-0.3,0.3-0.4,0.7-0.5,1.2h2.9v-0.1c0-0.5-0.2-0.9-0.4-1.2
	C157.9,164.1,157.6,163.9,157.2,163.9z"/>
<path d="M178.5,166.1c0-0.9,0.2-1.6,0.6-2.1c0.4-0.5,1-0.8,1.6-0.8c0.7,0,1.2,0.2,1.6,0.7v-3h1v8.2h-0.9l0-0.6
	c-0.4,0.5-0.9,0.7-1.7,0.7c-0.7,0-1.2-0.3-1.6-0.8C178.7,167.7,178.5,167,178.5,166.1L178.5,166.1z M179.5,166.2
	c0,0.7,0.1,1.2,0.4,1.5c0.3,0.4,0.6,0.6,1.1,0.6c0.6,0,1.1-0.3,1.4-0.8v-2.7c-0.3-0.5-0.8-0.8-1.4-0.8c-0.5,0-0.9,0.2-1.1,0.6
	C179.6,164.9,179.5,165.4,179.5,166.2z M186,169h-1v-5.8h1V169z M184.9,161.7c0-0.2,0-0.3,0.1-0.4c0.1-0.1,0.2-0.2,0.4-0.2
	c0.2,0,0.3,0.1,0.4,0.2c0.1,0.1,0.1,0.2,0.1,0.4s-0.1,0.3-0.1,0.4c-0.1,0.1-0.2,0.2-0.4,0.2c-0.2,0-0.3-0.1-0.4-0.2
	C185,162,184.9,161.8,184.9,161.7z M190.9,167.5c0-0.3-0.1-0.5-0.3-0.6c-0.2-0.1-0.6-0.3-1.1-0.4c-0.5-0.1-0.9-0.2-1.2-0.4
	c-0.3-0.1-0.5-0.3-0.7-0.5c-0.1-0.2-0.2-0.5-0.2-0.7c0-0.5,0.2-0.9,0.6-1.2c0.4-0.3,0.9-0.5,1.5-0.5c0.7,0,1.2,0.2,1.6,0.5
	c0.4,0.3,0.6,0.8,0.6,1.3h-1c0-0.3-0.1-0.5-0.3-0.7c-0.2-0.2-0.5-0.3-0.9-0.3c-0.4,0-0.6,0.1-0.8,0.2s-0.3,0.4-0.3,0.6
	c0,0.2,0.1,0.4,0.3,0.5c0.2,0.1,0.5,0.2,1,0.3c0.5,0.1,0.9,0.2,1.2,0.4c0.3,0.2,0.5,0.3,0.7,0.6c0.1,0.2,0.2,0.5,0.2,0.8
	c0,0.5-0.2,0.9-0.6,1.2c-0.4,0.3-0.9,0.5-1.6,0.5c-0.5,0-0.9-0.1-1.2-0.2c-0.4-0.2-0.6-0.4-0.8-0.7c-0.2-0.3-0.3-0.6-0.3-1h1
	c0,0.3,0.1,0.6,0.4,0.8c0.2,0.2,0.6,0.3,1,0.3c0.4,0,0.7-0.1,0.9-0.2C190.8,167.9,190.9,167.7,190.9,167.5z M198.1,166.2
	c0,0.9-0.2,1.6-0.6,2.1c-0.4,0.5-0.9,0.8-1.6,0.8c-0.7,0-1.3-0.2-1.7-0.7v2.8h-1v-8h0.9l0,0.6c0.4-0.5,1-0.7,1.7-0.7
	c0.7,0,1.2,0.3,1.6,0.8C197.9,164.4,198.1,165.2,198.1,166.2L198.1,166.2z M197.1,166.1c0-0.7-0.1-1.2-0.4-1.5
	c-0.3-0.4-0.7-0.6-1.1-0.6c-0.6,0-1,0.3-1.3,0.8v2.8c0.3,0.5,0.7,0.8,1.4,0.8c0.5,0,0.9-0.2,1.1-0.6
	C197,167.4,197.1,166.8,197.1,166.1z M199.1,166.1c0-0.6,0.1-1.1,0.3-1.5c0.2-0.5,0.5-0.8,0.9-1c0.4-0.2,0.9-0.4,1.4-0.4
	c0.8,0,1.4,0.3,1.9,0.8c0.5,0.5,0.7,1.3,0.7,2.2v0.1c0,0.6-0.1,1.1-0.3,1.5c-0.2,0.4-0.5,0.8-0.9,1c-0.4,0.2-0.9,0.4-1.4,0.4
	c-0.8,0-1.4-0.3-1.9-0.8C199.3,167.7,199.1,167,199.1,166.1L199.1,166.1z M200.1,166.2c0,0.6,0.1,1.2,0.4,1.5
	c0.3,0.4,0.7,0.6,1.2,0.6c0.5,0,0.9-0.2,1.2-0.6c0.3-0.4,0.4-0.9,0.4-1.7c0-0.6-0.2-1.1-0.5-1.5c-0.3-0.4-0.7-0.6-1.2-0.6
	c-0.5,0-0.9,0.2-1.2,0.6S200.1,165.5,200.1,166.2z M205.4,162.7c0-0.5,0.1-0.9,0.4-1.2c0.3-0.3,0.7-0.5,1.1-0.5
	c0.5,0,0.9,0.2,1.1,0.5c0.3,0.3,0.4,0.7,0.4,1.2v0.4c0,0.5-0.2,0.9-0.4,1.2c-0.3,0.3-0.7,0.4-1.1,0.4c-0.5,0-0.8-0.1-1.1-0.4
	c-0.3-0.3-0.5-0.7-0.5-1.2V162.7z M206.2,163.1c0,0.3,0.1,0.5,0.2,0.7c0.2,0.2,0.4,0.3,0.6,0.3c0.3,0,0.5-0.1,0.6-0.3
	c0.2-0.2,0.2-0.4,0.2-0.7v-0.4c0-0.3-0.1-0.5-0.2-0.7c-0.2-0.2-0.4-0.3-0.6-0.3c-0.3,0-0.5,0.1-0.6,0.3c-0.2,0.2-0.2,0.4-0.2,0.7
	V163.1z M209.2,167.1c0-0.5,0.1-0.8,0.4-1.1c0.3-0.3,0.7-0.5,1.1-0.5c0.5,0,0.8,0.1,1.1,0.4c0.3,0.3,0.4,0.7,0.4,1.2v0.4
	c0,0.5-0.1,0.9-0.4,1.2c-0.3,0.3-0.7,0.4-1.1,0.4s-0.8-0.1-1.1-0.4c-0.3-0.3-0.5-0.7-0.5-1.2V167.1z M209.9,167.5
	c0,0.3,0.1,0.5,0.2,0.7c0.2,0.2,0.4,0.3,0.6,0.3c0.3,0,0.5-0.1,0.6-0.3c0.2-0.2,0.2-0.4,0.2-0.7v-0.4c0-0.3-0.1-0.5-0.2-0.7
	c-0.2-0.2-0.4-0.3-0.6-0.3c-0.3,0-0.5,0.1-0.6,0.3c-0.2,0.2-0.2,0.4-0.2,0.7V167.5z M207.2,168.4l-0.6-0.4l3.8-6.1l0.6,0.4
	L207.2,168.4z"/>
<path d="M234.2,162h-2.5v6.9h-1V162h-2.5v-0.8h6V162z M238.2,168.9c-0.1-0.1-0.1-0.3-0.1-0.6c-0.5,0.5-1,0.7-1.6,0.7
	c-0.6,0-1-0.2-1.4-0.5c-0.4-0.3-0.5-0.7-0.5-1.2c0-0.6,0.2-1.1,0.7-1.4c0.5-0.3,1.1-0.5,1.9-0.5h1v-0.5c0-0.3-0.1-0.6-0.3-0.8
	c-0.2-0.2-0.5-0.3-0.9-0.3c-0.4,0-0.6,0.1-0.9,0.3c-0.2,0.2-0.4,0.4-0.4,0.6h-1c0-0.3,0.1-0.6,0.3-0.8c0.2-0.3,0.5-0.5,0.8-0.6
	c0.4-0.2,0.7-0.2,1.2-0.2c0.7,0,1.2,0.2,1.6,0.5c0.4,0.3,0.6,0.8,0.6,1.4v2.7c0,0.5,0.1,1,0.2,1.3v0.1H238.2z M236.5,168.1
	c0.3,0,0.6-0.1,0.9-0.2s0.5-0.4,0.6-0.6v-1.2h-0.8c-1.2,0-1.8,0.4-1.8,1.1c0,0.3,0.1,0.6,0.3,0.7
	C235.9,168.1,236.2,168.1,236.5,168.1z M244.1,168.3c-0.4,0.5-0.9,0.7-1.7,0.7c-0.6,0-1.1-0.2-1.4-0.5c-0.3-0.4-0.5-0.9-0.5-1.6
	v-3.8h1v3.7c0,0.9,0.4,1.3,1.1,1.3c0.8,0,1.3-0.3,1.5-0.8v-4.2h1v5.8h-0.9L244.1,168.3z M248.5,165.2l1.3-2.1h1.2l-1.9,2.9l1.9,2.9
	h-1.1l-1.3-2.2l-1.3,2.2H246l2-2.9l-1.9-2.9h1.1L248.5,165.2z"/>
<path d="M306.7,165.5h-3.3v3.4h-1v-7.8h4.8v0.8h-3.8v2.7h3.3V165.5z M309.3,168.9h-1v-5.8h1V168.9z M308.3,161.6
	c0-0.2,0-0.3,0.1-0.4c0.1-0.1,0.2-0.2,0.4-0.2c0.2,0,0.3,0.1,0.4,0.2c0.1,0.1,0.1,0.2,0.1,0.4s-0.1,0.3-0.1,0.4
	c-0.1,0.1-0.2,0.2-0.4,0.2c-0.2,0-0.3-0.1-0.4-0.2C308.3,161.9,308.3,161.7,308.3,161.6z M312,168.9h-1v-8.2h1V168.9z M314.6,168.9
	h-1v-8.2h1V168.9z M322,165.8h-1.8v3.1h-1v-7.8h2.6c0.9,0,1.5,0.2,2,0.6c0.5,0.4,0.7,1,0.7,1.7c0,0.5-0.1,0.9-0.4,1.3
	c-0.3,0.4-0.6,0.6-1.1,0.8l1.8,3.3v0.1h-1.1L322,165.8z M320.1,164.9h1.6c0.5,0,0.9-0.1,1.2-0.4c0.3-0.3,0.5-0.6,0.5-1.1
	c0-0.5-0.1-0.8-0.4-1.1c-0.3-0.3-0.7-0.4-1.2-0.4h-1.6V164.9z M329.3,168.9c-0.1-0.1-0.1-0.3-0.1-0.6c-0.5,0.5-1,0.7-1.6,0.7
	c-0.6,0-1-0.2-1.4-0.5c-0.4-0.3-0.5-0.7-0.5-1.2c0-0.6,0.2-1.1,0.7-1.4c0.5-0.3,1.1-0.5,1.9-0.5h1v-0.5c0-0.3-0.1-0.6-0.3-0.8
	c-0.2-0.2-0.5-0.3-0.9-0.3c-0.4,0-0.6,0.1-0.9,0.3c-0.2,0.2-0.4,0.4-0.4,0.6h-1c0-0.3,0.1-0.6,0.3-0.8c0.2-0.3,0.5-0.5,0.8-0.6
	c0.4-0.2,0.7-0.2,1.2-0.2c0.7,0,1.2,0.2,1.6,0.5c0.4,0.3,0.6,0.8,0.6,1.4v2.7c0,0.5,0.1,1,0.2,1.3v0.1H329.3z M327.6,168.1
	c0.3,0,0.6-0.1,0.9-0.2s0.5-0.4,0.6-0.6v-1.2h-0.8c-1.2,0-1.8,0.4-1.8,1.1c0,0.3,0.1,0.6,0.3,0.7C327,168.1,327.3,168.1,327.6,168.1
	z M333,161.7v1.4h1.1v0.8H333v3.6c0,0.2,0,0.4,0.1,0.5c0.1,0.1,0.3,0.2,0.5,0.2c0.1,0,0.3,0,0.5-0.1v0.8c-0.3,0.1-0.5,0.1-0.8,0.1
	c-0.4,0-0.8-0.1-1-0.4c-0.2-0.3-0.3-0.6-0.3-1.1v-3.6h-1.1v-0.8h1.1v-1.4H333z M337.6,169c-0.8,0-1.4-0.3-1.9-0.8
	c-0.5-0.5-0.7-1.2-0.7-2.1V166c0-0.6,0.1-1.1,0.3-1.5c0.2-0.5,0.5-0.8,0.9-1.1c0.4-0.3,0.8-0.4,1.3-0.4c0.8,0,1.3,0.2,1.8,0.7
	c0.4,0.5,0.6,1.2,0.6,2.1v0.4H336c0,0.6,0.2,1,0.5,1.4c0.3,0.3,0.7,0.5,1.2,0.5c0.3,0,0.6-0.1,0.9-0.2c0.2-0.1,0.5-0.3,0.6-0.6
	l0.6,0.5C339.3,168.6,338.6,169,337.6,169z M337.5,163.8c-0.4,0-0.7,0.1-1,0.4c-0.3,0.3-0.4,0.7-0.5,1.2h2.9v-0.1
	c0-0.5-0.2-0.9-0.4-1.2C338.2,164,337.9,163.8,337.5,163.8z"/>
<path class="st5" d="M153.6,39.5h110.7c4,0,7.3,3.3,7.3,7.3v52.7c0,4-3.3,7.3-7.3,7.3H153.6c-4,0-7.3-3.3-7.3-7.3V46.8
	C146.4,42.7,149.6,39.5,153.6,39.5z"/>
<path class="st6" d="M185.5,54c-0.7,0-1.3,0.6-1.3,1.3v9.2c0,0.6,0.5,1.1,1.1,1.1h10.9c0.6,0,1.1-0.5,1.1-1.1v-7.4
	c0-0.6-0.5-1.1-1.1-1.1h-0.8v-1.6c0-0.2-0.2-0.3-0.3-0.3H185.5z M185.5,54.7h9.3V56h-9.3c-0.4,0-0.6-0.3-0.6-0.6
	C184.9,55,185.1,54.7,185.5,54.7z M184.9,56.5c0.2,0.1,0.4,0.2,0.6,0.2c3.6,0,7.6,0,10.7,0c0.3,0,0.5,0.2,0.5,0.5v1.9h-4.6
	c-0.4,0-0.8,0.4-0.8,0.8v1.9c0,0.4,0.4,0.8,0.8,0.8h4.6v1.9c0,0.3-0.2,0.5-0.5,0.5h-10.9c-0.3,0-0.5-0.2-0.5-0.5V56.5z M192.1,59.7
	h4.6V62h-4.6c-0.1,0-0.2-0.1-0.2-0.2v-1.9C191.9,59.8,192,59.7,192.1,59.7z M193.7,60.2c-0.4,0-0.6,0.3-0.6,0.6
	c0,0.4,0.3,0.6,0.6,0.6c0.4,0,0.6-0.3,0.6-0.6C194.3,60.5,194,60.2,193.7,60.2z"/>
<path d="M188.2,86.3c0-0.4-0.1-0.8-0.4-1c-0.3-0.3-0.7-0.5-1.3-0.7c-0.6-0.2-1.1-0.4-1.5-0.6c-1.2-0.6-1.7-1.5-1.7-2.8
	c0-0.8,0.3-1.5,0.8-2c0.5-0.5,1.2-0.8,2-0.9v-1.6h1.2v1.6c0.9,0.1,1.5,0.5,2,1.1c0.5,0.6,0.7,1.4,0.7,2.4h-1.8
	c0-0.6-0.1-1.1-0.4-1.5c-0.3-0.4-0.7-0.5-1.1-0.5c-0.5,0-0.9,0.1-1.1,0.4c-0.3,0.3-0.4,0.6-0.4,1.1c0,0.4,0.1,0.8,0.4,1
	c0.3,0.3,0.7,0.5,1.4,0.7c0.6,0.2,1.1,0.5,1.5,0.6c0.4,0.2,0.7,0.4,0.9,0.7c0.2,0.3,0.4,0.5,0.6,0.9c0.1,0.3,0.2,0.7,0.2,1.2
	c0,0.8-0.3,1.5-0.8,2c-0.5,0.5-1.2,0.8-2.1,0.9v1.5h-1.2v-1.4c-1-0.1-1.7-0.5-2.3-1.1c-0.5-0.6-0.8-1.4-0.8-2.4h1.8
	c0,0.6,0.2,1.1,0.5,1.5c0.3,0.3,0.8,0.5,1.3,0.5c0.6,0,1-0.1,1.3-0.4C188,87.1,188.2,86.8,188.2,86.3z M196.5,89.2h-1.8v-8.7
	l-2.7,0.9v-1.5l4.2-1.6h0.2V89.2z M207.5,89.2h-7.3v-1.2l3.6-3.9c0.5-0.6,0.9-1.1,1.1-1.5c0.2-0.4,0.3-0.8,0.3-1.2
	c0-0.5-0.1-0.9-0.4-1.3c-0.3-0.3-0.7-0.5-1.2-0.5c-0.6,0-1,0.2-1.4,0.5c-0.3,0.4-0.5,0.8-0.5,1.5H200c0-0.7,0.1-1.3,0.4-1.8
	c0.3-0.5,0.7-0.9,1.3-1.2c0.6-0.3,1.2-0.4,1.9-0.4c1.1,0,1.9,0.3,2.5,0.8c0.6,0.5,0.9,1.3,0.9,2.2c0,0.5-0.2,1.1-0.5,1.7
	c-0.3,0.6-0.8,1.3-1.5,2l-2.7,2.8h5V89.2z M209.3,91.6l-1-0.6c0.3-0.5,0.5-0.8,0.6-1.2c0.1-0.3,0.2-0.7,0.2-1v-1.4h1.6l0,1.3
	c0,0.5-0.1,1.1-0.4,1.6C210.1,90.8,209.7,91.3,209.3,91.6z M219.4,84.6c0,1.6-0.3,2.7-0.9,3.5c-0.6,0.8-1.5,1.2-2.7,1.2
	c-1.2,0-2.1-0.4-2.7-1.2c-0.6-0.8-0.9-1.9-0.9-3.4v-1.9c0-1.6,0.3-2.7,0.9-3.5c0.6-0.8,1.5-1.2,2.7-1.2c1.2,0,2.1,0.4,2.7,1.1
	c0.6,0.8,0.9,1.9,0.9,3.4V84.6z M217.6,82.5c0-1-0.1-1.8-0.4-2.2c-0.3-0.5-0.7-0.7-1.3-0.7c-0.6,0-1,0.2-1.3,0.7
	c-0.3,0.4-0.4,1.1-0.4,2.1v2.5c0,1,0.1,1.8,0.4,2.3c0.3,0.5,0.7,0.7,1.3,0.7c0.6,0,1-0.2,1.3-0.7c0.3-0.5,0.4-1.2,0.4-2.2V82.5z
	 M228.1,84.6c0,1.6-0.3,2.7-0.9,3.5c-0.6,0.8-1.5,1.2-2.7,1.2c-1.2,0-2.1-0.4-2.7-1.2c-0.6-0.8-0.9-1.9-0.9-3.4v-1.9
	c0-1.6,0.3-2.7,0.9-3.5c0.6-0.8,1.5-1.2,2.7-1.2c1.2,0,2.1,0.4,2.7,1.1c0.6,0.8,0.9,1.9,0.9,3.4V84.6z M226.3,82.5
	c0-1-0.1-1.8-0.4-2.2c-0.3-0.5-0.7-0.7-1.3-0.7c-0.6,0-1,0.2-1.3,0.7c-0.3,0.4-0.4,1.1-0.4,2.1v2.5c0,1,0.1,1.8,0.4,2.3
	c0.3,0.5,0.7,0.7,1.3,0.7c0.6,0,1-0.2,1.3-0.7c0.3-0.5,0.4-1.2,0.4-2.2V82.5z M236.8,84.6c0,1.6-0.3,2.7-0.9,3.5
	c-0.6,0.8-1.5,1.2-2.7,1.2c-1.2,0-2.1-0.4-2.7-1.2c-0.6-0.8-0.9-1.9-0.9-3.4v-1.9c0-1.6,0.3-2.7,0.9-3.5c0.6-0.8,1.5-1.2,2.7-1.2
	c1.2,0,2.1,0.4,2.7,1.1c0.6,0.8,0.9,1.9,0.9,3.4V84.6z M234.9,82.5c0-1-0.1-1.8-0.4-2.2c-0.3-0.5-0.7-0.7-1.3-0.7
	c-0.6,0-1,0.2-1.3,0.7c-0.3,0.4-0.4,1.1-0.4,2.1v2.5c0,1,0.1,1.8,0.4,2.3c0.3,0.5,0.7,0.7,1.3,0.7c0.6,0,1-0.2,1.3-0.7
	c0.3-0.5,0.4-1.2,0.4-2.2V82.5z"/>
<path d="M203.5,64v-7.8h2.5c0.8,0,1.5,0.2,1.9,0.5c0.4,0.3,0.6,0.9,0.6,1.5c0,0.4-0.1,0.7-0.3,1c-0.2,0.3-0.5,0.5-0.8,0.6
	c0.4,0.1,0.8,0.3,1,0.7c0.2,0.3,0.4,0.7,0.4,1.2c0,0.7-0.2,1.2-0.7,1.6c-0.5,0.4-1.1,0.6-1.9,0.6H203.5z M204.6,60.4v2.8h1.7
	c0.5,0,0.9-0.1,1.1-0.4c0.3-0.2,0.4-0.6,0.4-1c0-0.9-0.5-1.4-1.5-1.4H204.6z M204.6,59.6h1.5c0.4,0,0.8-0.1,1.1-0.3
	c0.3-0.2,0.4-0.5,0.4-0.9c0-0.4-0.1-0.7-0.4-0.9c-0.2-0.2-0.6-0.3-1.1-0.3h-1.5V59.6z M213.7,63.5c-0.4,0.5-0.9,0.7-1.7,0.7
	c-0.6,0-1.1-0.2-1.4-0.5c-0.3-0.4-0.5-0.9-0.5-1.6v-3.8h1V62c0,0.9,0.4,1.3,1.1,1.3c0.8,0,1.3-0.3,1.5-0.8v-4.2h1V64h-0.9
	L213.7,63.5z M216,61.1c0-0.9,0.2-1.6,0.6-2.1c0.4-0.5,1-0.8,1.6-0.8c0.7,0,1.2,0.2,1.6,0.7v-3h1V64h-0.9l0-0.6
	c-0.4,0.5-0.9,0.7-1.6,0.7c-0.7,0-1.2-0.3-1.6-0.8C216.2,62.8,216,62.1,216,61.1L216,61.1z M217,61.2c0,0.7,0.1,1.2,0.4,1.5
	c0.3,0.4,0.6,0.6,1.1,0.6c0.6,0,1.1-0.3,1.4-0.8v-2.7c-0.3-0.5-0.7-0.8-1.4-0.8c-0.5,0-0.9,0.2-1.1,0.6
	C217.1,59.9,217,60.5,217,61.2z M222.1,61.1c0-0.9,0.2-1.6,0.6-2.1c0.4-0.5,1-0.8,1.7-0.8c0.7,0,1.3,0.2,1.6,0.7l0-0.6h0.9v5.6
	c0,0.7-0.2,1.3-0.7,1.8c-0.4,0.4-1,0.6-1.8,0.6c-0.4,0-0.8-0.1-1.2-0.3c-0.4-0.2-0.7-0.4-0.9-0.7l0.5-0.6c0.4,0.5,0.9,0.8,1.6,0.8
	c0.5,0,0.9-0.1,1.1-0.4c0.3-0.3,0.4-0.7,0.4-1.1v-0.5c-0.4,0.5-0.9,0.7-1.6,0.7c-0.7,0-1.2-0.3-1.6-0.8
	C222.4,62.8,222.1,62,222.1,61.1z M223.1,61.2c0,0.7,0.1,1.2,0.4,1.5c0.3,0.4,0.6,0.6,1.1,0.6c0.6,0,1.1-0.3,1.4-0.8v-2.6
	c-0.3-0.6-0.8-0.8-1.4-0.8c-0.5,0-0.9,0.2-1.1,0.6C223.3,59.9,223.1,60.5,223.1,61.2z M230.9,64.1c-0.8,0-1.4-0.3-1.9-0.8
	c-0.5-0.5-0.7-1.2-0.7-2.1v-0.2c0-0.6,0.1-1.1,0.3-1.5c0.2-0.5,0.5-0.8,0.9-1.1c0.4-0.3,0.8-0.4,1.3-0.4c0.8,0,1.3,0.2,1.7,0.7
	c0.4,0.5,0.6,1.2,0.6,2.1v0.4h-3.9c0,0.6,0.2,1,0.5,1.4c0.3,0.3,0.7,0.5,1.2,0.5c0.3,0,0.6-0.1,0.9-0.2c0.2-0.1,0.5-0.3,0.6-0.6
	l0.6,0.5C232.6,63.8,231.9,64.1,230.9,64.1z M230.8,59c-0.4,0-0.7,0.1-1,0.4c-0.3,0.3-0.4,0.7-0.5,1.2h2.9v-0.1
	c0-0.5-0.2-0.9-0.4-1.2C231.5,59.1,231.2,59,230.8,59z M235.6,56.9v1.4h1.1V59h-1.1v3.6c0,0.2,0,0.4,0.1,0.5
	c0.1,0.1,0.3,0.2,0.5,0.2c0.1,0,0.3,0,0.5-0.1V64c-0.3,0.1-0.5,0.1-0.8,0.1c-0.4,0-0.8-0.1-1-0.4c-0.2-0.3-0.3-0.6-0.3-1.1V59h-1.1
	v-0.8h1.1v-1.4H235.6z"/>
<path class="st5" d="M21.8,39.5h110.7c4,0,7.3,3.3,7.3,7.3v52.7c0,4-3.3,7.3-7.3,7.3H21.8c-4,0-7.3-3.3-7.3-7.3V46.8
	C14.6,42.7,17.8,39.5,21.8,39.5z"/>
<path d="M75.8,89.2h-7.3v-1.2l3.6-3.9c0.5-0.6,0.9-1.1,1.1-1.5c0.2-0.4,0.3-0.8,0.3-1.2c0-0.5-0.1-0.9-0.4-1.3
	c-0.3-0.3-0.7-0.5-1.2-0.5c-0.6,0-1,0.2-1.4,0.5c-0.3,0.4-0.5,0.8-0.5,1.5h-1.8c0-0.7,0.1-1.3,0.4-1.8c0.3-0.5,0.7-0.9,1.3-1.2
	c0.6-0.3,1.2-0.4,1.9-0.4c1.1,0,1.9,0.3,2.5,0.8c0.6,0.5,0.9,1.3,0.9,2.2c0,0.5-0.2,1.1-0.5,1.7c-0.3,0.6-0.8,1.3-1.5,2l-2.7,2.8h5
	V89.2z M77.7,83.8l0.6-5.5h5.8v1.6h-4.3l-0.3,2.6c0.5-0.3,1.1-0.4,1.7-0.4c1,0,1.8,0.3,2.4,1c0.6,0.7,0.9,1.6,0.9,2.7
	c0,1.1-0.3,2-1,2.6c-0.6,0.7-1.5,1-2.6,1c-1,0-1.8-0.3-2.5-0.8c-0.7-0.6-1-1.3-1.1-2.2h1.8c0.1,0.5,0.3,0.9,0.6,1.2
	c0.3,0.3,0.7,0.4,1.2,0.4c0.6,0,1-0.2,1.3-0.6c0.3-0.4,0.5-0.9,0.5-1.6c0-0.7-0.2-1.2-0.5-1.6c-0.3-0.4-0.8-0.6-1.4-0.6
	c-0.3,0-0.6,0-0.8,0.1c-0.2,0.1-0.5,0.3-0.7,0.5L77.7,83.8z"/>
<path d="M70.3,63.1h-4.6v3.8H71V68h-6.8V57.3h6.7v1.2h-5.3v3.4h4.6V63.1z M68.2,54.4h1.6l-2,2.2h-1.1L68.2,54.4z M75.6,67
	c0.5,0,0.9-0.1,1.3-0.4c0.4-0.3,0.6-0.7,0.6-1.1h1.3c0,0.5-0.2,0.9-0.5,1.3c-0.3,0.4-0.7,0.7-1.2,1c-0.5,0.2-1,0.4-1.5,0.4
	c-1.1,0-1.9-0.4-2.6-1.1c-0.6-0.7-1-1.7-1-3v-0.2c0-0.8,0.1-1.5,0.4-2.1c0.3-0.6,0.7-1.1,1.2-1.4c0.5-0.3,1.2-0.5,1.9-0.5
	c0.9,0,1.6,0.3,2.2,0.8c0.6,0.5,0.9,1.2,0.9,2.1h-1.3c0-0.5-0.2-0.9-0.6-1.3c-0.3-0.3-0.8-0.5-1.3-0.5c-0.7,0-1.2,0.2-1.6,0.7
	c-0.4,0.5-0.6,1.2-0.6,2.1v0.3c0,0.9,0.2,1.6,0.6,2.1C74.3,66.8,74.9,67,75.6,67z M84.1,61.3c-0.2,0-0.4-0.1-0.7-0.1
	c-0.9,0-1.5,0.4-1.8,1.1V68h-1.4v-7.9h1.3l0,0.9c0.4-0.7,1.1-1.1,1.9-1.1c0.3,0,0.5,0,0.6,0.1V61.3z M89.9,68
	c-0.1-0.2-0.1-0.4-0.2-0.8c-0.6,0.7-1.4,1-2.3,1c-0.8,0-1.4-0.2-1.9-0.7c-0.5-0.4-0.7-1-0.7-1.7c0-0.8,0.3-1.5,0.9-1.9
	c0.6-0.5,1.5-0.7,2.7-0.7h1.3v-0.6c0-0.5-0.1-0.8-0.4-1.1C89,61.2,88.6,61,88,61c-0.5,0-0.9,0.1-1.2,0.4c-0.3,0.2-0.5,0.5-0.5,0.9
	H85c0-0.4,0.1-0.8,0.4-1.1c0.3-0.4,0.7-0.7,1.1-0.9c0.5-0.2,1-0.3,1.6-0.3c0.9,0,1.6,0.2,2.1,0.7c0.5,0.5,0.8,1.1,0.8,1.9v3.6
	c0,0.7,0.1,1.3,0.3,1.7V68H89.9z M87.7,67c0.4,0,0.8-0.1,1.2-0.3c0.4-0.2,0.7-0.5,0.8-0.9v-1.6h-1.1c-1.7,0-2.5,0.5-2.5,1.5
	c0,0.4,0.1,0.8,0.4,1C86.9,66.8,87.2,67,87.7,67z M94.5,60.1l0,1c0.6-0.8,1.4-1.1,2.4-1.1c1.7,0,2.5,0.9,2.5,2.8V68h-1.4v-5.2
	c0-0.6-0.1-1-0.4-1.3c-0.3-0.3-0.7-0.4-1.2-0.4c-0.4,0-0.8,0.1-1.2,0.4c-0.3,0.2-0.6,0.5-0.8,0.9V68h-1.4v-7.9H94.5z M106.1,65.9
	c0-0.4-0.1-0.6-0.4-0.8c-0.3-0.2-0.8-0.4-1.4-0.5c-0.7-0.1-1.2-0.3-1.6-0.5c-0.4-0.2-0.7-0.4-0.9-0.7c-0.2-0.3-0.3-0.6-0.3-1
	c0-0.6,0.3-1.2,0.8-1.6c0.6-0.4,1.3-0.7,2.1-0.7c0.9,0,1.6,0.2,2.2,0.7c0.6,0.5,0.8,1.1,0.8,1.8H106c0-0.4-0.2-0.7-0.5-1
	c-0.3-0.3-0.7-0.4-1.2-0.4c-0.5,0-0.9,0.1-1.2,0.3c-0.3,0.2-0.4,0.5-0.4,0.8c0,0.3,0.1,0.6,0.4,0.7s0.7,0.3,1.4,0.5
	c0.7,0.2,1.2,0.3,1.6,0.5c0.4,0.2,0.7,0.5,0.9,0.8c0.2,0.3,0.3,0.7,0.3,1.1c0,0.7-0.3,1.3-0.8,1.7c-0.6,0.4-1.3,0.6-2.2,0.6
	c-0.6,0-1.2-0.1-1.7-0.3s-0.9-0.5-1.2-0.9c-0.3-0.4-0.4-0.8-0.4-1.3h1.4c0,0.5,0.2,0.8,0.5,1.1c0.3,0.3,0.8,0.4,1.3,0.4
	c0.5,0,0.9-0.1,1.2-0.3C105.9,66.5,106.1,66.2,106.1,65.9z"/>
<path class="st6" d="M54,55.1v10.8H36.8V55.1H54z M54.1,54H36.7c-0.5,0-1,0.4-1,1v10.9c0,0.6,0.4,1.1,1,1.1H54c0.5,0,1-0.4,1-1V55
	C55.1,54.5,54.7,54,54.1,54L54.1,54z"/>
<path class="st6" d="M47.9,68.6H43c-0.3,0-0.5-0.2-0.5-0.5c0-0.3,0.2-0.5,0.5-0.5h4.9c0.3,0,0.5,0.2,0.5,0.5
	C48.4,68.4,48.1,68.6,47.9,68.6z"/>
<g>
	<path class="st5" d="M285.4,46h110.7c4,0,7.3,3.3,7.3,7.3V106c0,4-3.3,7.3-7.3,7.3H285.4c-4,0-7.3-3.3-7.3-7.3V53.3
		C278.2,49.3,281.4,46,285.4,46z"/>
</g>
<path d="M330.2,92.9c0-0.4-0.1-0.8-0.4-1c-0.3-0.3-0.7-0.5-1.3-0.7c-0.6-0.2-1.1-0.4-1.5-0.6c-1.2-0.6-1.7-1.5-1.7-2.8
	c0-0.8,0.3-1.5,0.8-2c0.5-0.5,1.2-0.8,2-0.9v-1.6h1.2v1.6c0.9,0.1,1.5,0.5,2,1.1c0.5,0.6,0.7,1.4,0.7,2.4h-1.8
	c0-0.6-0.1-1.1-0.4-1.5c-0.3-0.4-0.7-0.5-1.1-0.5c-0.5,0-0.9,0.1-1.1,0.4c-0.3,0.3-0.4,0.6-0.4,1.1c0,0.4,0.1,0.8,0.4,1
	c0.3,0.3,0.7,0.5,1.4,0.7c0.6,0.2,1.1,0.5,1.5,0.6c0.4,0.2,0.7,0.4,0.9,0.7c0.2,0.3,0.4,0.5,0.6,0.9c0.1,0.3,0.2,0.7,0.2,1.2
	c0,0.8-0.3,1.5-0.8,2c-0.5,0.5-1.2,0.8-2.2,0.9v1.5h-1.2v-1.4c-1-0.1-1.7-0.5-2.3-1.1c-0.5-0.6-0.8-1.4-0.8-2.4h1.8
	c0,0.6,0.2,1.1,0.5,1.5c0.3,0.3,0.8,0.5,1.3,0.5c0.6,0,1-0.1,1.3-0.4C330,93.7,330.2,93.3,330.2,92.9z M340.6,91.1
	c0,1.6-0.3,2.7-0.9,3.5c-0.6,0.8-1.5,1.2-2.7,1.2c-1.2,0-2.1-0.4-2.7-1.2c-0.6-0.8-0.9-1.9-0.9-3.4v-1.9c0-1.6,0.3-2.7,0.9-3.5
	c0.6-0.8,1.5-1.2,2.7-1.2c1.2,0,2.1,0.4,2.7,1.1c0.6,0.8,0.9,1.9,0.9,3.4V91.1z M338.8,89.1c0-1-0.1-1.8-0.4-2.2
	c-0.3-0.5-0.7-0.7-1.3-0.7c-0.6,0-1,0.2-1.3,0.7c-0.3,0.4-0.4,1.1-0.4,2.1v2.5c0,1,0.1,1.8,0.4,2.3c0.3,0.5,0.7,0.7,1.3,0.7
	c0.6,0,1-0.2,1.3-0.7c0.3-0.5,0.4-1.2,0.4-2.2V89.1z M343.5,93.8c0.3,0,0.6,0.1,0.8,0.3c0.2,0.2,0.3,0.4,0.3,0.7
	c0,0.3-0.1,0.5-0.3,0.7c-0.2,0.2-0.4,0.3-0.8,0.3c-0.3,0-0.6-0.1-0.8-0.3c-0.2-0.2-0.3-0.4-0.3-0.7c0-0.3,0.1-0.5,0.3-0.7
	C342.9,93.9,343.1,93.8,343.5,93.8z M353.8,95.7h-7.3v-1.2l3.6-3.9c0.5-0.6,0.9-1.1,1.1-1.5c0.2-0.4,0.3-0.8,0.3-1.2
	c0-0.5-0.1-0.9-0.4-1.3c-0.3-0.3-0.7-0.5-1.2-0.5c-0.6,0-1,0.2-1.4,0.5c-0.3,0.4-0.5,0.8-0.5,1.5h-1.8c0-0.7,0.1-1.3,0.4-1.8
	c0.3-0.5,0.7-0.9,1.3-1.2c0.6-0.3,1.2-0.4,1.9-0.4c1.1,0,1.9,0.3,2.5,0.8c0.6,0.5,0.9,1.3,0.9,2.2c0,0.5-0.2,1.1-0.5,1.7
	c-0.3,0.6-0.8,1.3-1.5,2l-2.7,2.8h5V95.7z"/>
<path d="M341,68.1c-0.1,0.8-0.4,1.5-0.9,1.9c-0.5,0.4-1.2,0.7-2,0.7c-0.9,0-1.7-0.3-2.2-1c-0.6-0.7-0.8-1.5-0.8-2.6v-0.7
	c0-0.7,0.1-1.4,0.4-1.9c0.3-0.5,0.6-1,1.1-1.3c0.5-0.3,1-0.4,1.6-0.4c0.8,0,1.5,0.2,2,0.7c0.5,0.5,0.8,1.1,0.9,1.9h-1
	c-0.1-0.6-0.3-1.1-0.6-1.3c-0.3-0.3-0.7-0.4-1.2-0.4c-0.7,0-1.2,0.2-1.5,0.7c-0.4,0.5-0.6,1.2-0.6,2.1v0.8c0,0.8,0.2,1.5,0.5,2
	s0.8,0.7,1.5,0.7c0.6,0,1-0.1,1.3-0.4c0.3-0.3,0.5-0.7,0.6-1.3H341z M343.5,67.6v3h-1v-7.8h2.9c0.9,0,1.5,0.2,2,0.7
	c0.5,0.4,0.7,1,0.7,1.7c0,0.8-0.2,1.3-0.7,1.7c-0.5,0.4-1.1,0.6-2,0.6H343.5z M343.5,66.7h1.8c0.5,0,1-0.1,1.3-0.4
	c0.3-0.3,0.4-0.6,0.4-1.1c0-0.5-0.1-0.8-0.4-1.1c-0.3-0.3-0.7-0.4-1.2-0.4h-1.9V66.7z M350.7,62.8l2.5,6.3l2.5-6.3h1.3v7.8h-1v-3
	l0.1-3.3l-2.5,6.3h-0.8l-2.5-6.3l0.1,3.2v3h-1v-7.8H350.7z"/>
<path class="st6" d="M325.6,61.7v10.8h-17.3V61.7H325.6z M325.7,60.6h-17.5c-0.5,0-1,0.4-1,1v10.9c0,0.6,0.4,1.1,1,1.1h17.4
	c0.5,0,1-0.4,1-1v-11C326.7,61,326.3,60.6,325.7,60.6L325.7,60.6z"/>
<path class="st6" d="M319.5,75.2h-4.9c-0.3,0-0.5-0.2-0.5-0.5c0-0.3,0.2-0.5,0.5-0.5h4.9c0.3,0,0.5,0.2,0.5,0.5
	C320,74.9,319.7,75.2,319.5,75.2z"/>
<g>
	<path class="st6" d="M263.3,22h154.9c3.5,0,6.3,2.8,6.3,6.3v211c0,3.5-2.8,6.3-6.3,6.3H263.3c-3.5,0-6.3-2.8-6.3-6.3v-211
		C257,24.8,259.8,22,263.3,22z"/>
	<path class="st7" d="M263.3,22.2h154.9c3.4,0,6.1,2.7,6.1,6.1v211c0,3.4-2.7,6.1-6.1,6.1H263.3c-3.4,0-6.1-2.7-6.1-6.1v-211
		C257.2,24.9,260,22.2,263.3,22.2z"/>
</g>
<path class="st5" d="M281.9,35.9c0,0.6-0.1,1.2-0.3,1.6c-0.2,0.5-0.5,0.8-0.9,1.1c-0.4,0.3-0.9,0.4-1.4,0.4c-0.5,0-1-0.1-1.4-0.4
	c-0.4-0.2-0.7-0.6-0.9-1.1c-0.2-0.5-0.3-1-0.3-1.6v-0.3c0-0.6,0.1-1.2,0.3-1.6c0.2-0.5,0.5-0.8,0.9-1.1c0.4-0.3,0.9-0.4,1.4-0.4
	c0.5,0,1,0.1,1.4,0.4c0.4,0.2,0.7,0.6,0.9,1.1c0.2,0.5,0.3,1,0.3,1.6V35.9z M280.6,35.6c0-0.7-0.1-1.2-0.4-1.5
	c-0.2-0.3-0.6-0.5-1-0.5c-0.4,0-0.8,0.2-1,0.5c-0.2,0.3-0.4,0.8-0.4,1.5v0.3c0,0.6,0.1,1.1,0.4,1.5c0.2,0.4,0.6,0.5,1,0.5
	c0.4,0,0.8-0.2,1-0.5c0.2-0.3,0.3-0.8,0.4-1.5V35.6z M287,36.6c0,0.7-0.2,1.3-0.5,1.7c-0.3,0.4-0.8,0.6-1.3,0.6
	c-0.5,0-0.8-0.2-1.1-0.5v2.2h-1.2v-6.4h1.1l0,0.5c0.3-0.4,0.7-0.5,1.2-0.5c0.6,0,1,0.2,1.3,0.6C286.8,35.2,287,35.8,287,36.6
	L287,36.6z M285.7,36.5c0-0.4-0.1-0.8-0.2-1c-0.2-0.2-0.4-0.4-0.7-0.4c-0.4,0-0.7,0.1-0.8,0.4v1.9c0.2,0.3,0.4,0.5,0.8,0.5
	C285.4,38,285.7,37.5,285.7,36.5z M289.2,33.1v1.1h0.8v0.9h-0.8v2.3c0,0.2,0,0.3,0.1,0.4c0.1,0.1,0.2,0.1,0.4,0.1c0.1,0,0.3,0,0.4,0
	v0.9c-0.2,0.1-0.5,0.1-0.8,0.1c-0.9,0-1.3-0.4-1.3-1.3v-2.5h-0.7v-0.9h0.7v-1.1H289.2z M292,38.9h-1.2v-4.6h1.2V38.9z M290.7,33.1
	c0-0.2,0.1-0.3,0.2-0.5c0.1-0.1,0.3-0.2,0.5-0.2c0.2,0,0.4,0.1,0.5,0.2c0.1,0.1,0.2,0.3,0.2,0.5c0,0.2-0.1,0.3-0.2,0.5
	c-0.1,0.1-0.3,0.2-0.5,0.2c-0.2,0-0.4-0.1-0.5-0.2C290.7,33.4,290.7,33.2,290.7,33.1z M292.8,36.5c0-0.5,0.1-0.9,0.3-1.2
	s0.4-0.6,0.8-0.8c0.3-0.2,0.7-0.3,1.2-0.3c0.6,0,1.1,0.2,1.5,0.6c0.4,0.4,0.6,0.9,0.7,1.6l0,0.3c0,0.7-0.2,1.3-0.6,1.7
	c-0.4,0.4-0.9,0.6-1.6,0.6s-1.2-0.2-1.6-0.6C293,37.9,292.8,37.3,292.8,36.5L292.8,36.5z M294.1,36.6c0,0.4,0.1,0.8,0.2,1
	c0.2,0.2,0.4,0.3,0.7,0.3c0.3,0,0.5-0.1,0.7-0.3c0.2-0.2,0.3-0.6,0.3-1.1c0-0.4-0.1-0.8-0.3-1c-0.2-0.2-0.4-0.4-0.7-0.4
	c-0.3,0-0.5,0.1-0.7,0.4C294.1,35.8,294.1,36.1,294.1,36.6z M299.1,34.3l0,0.5c0.3-0.4,0.8-0.6,1.3-0.6c0.5,0,0.9,0.1,1.1,0.4
	c0.2,0.3,0.4,0.7,0.4,1.3v3h-1.2v-3c0-0.3-0.1-0.5-0.2-0.6c-0.1-0.1-0.3-0.2-0.6-0.2c-0.3,0-0.6,0.1-0.8,0.4v3.3H298v-4.6H299.1z
	 M305.4,37.6c0-0.2-0.1-0.3-0.2-0.4c-0.1-0.1-0.4-0.2-0.7-0.2c-1.1-0.2-1.7-0.7-1.7-1.4c0-0.4,0.2-0.8,0.5-1
	c0.3-0.3,0.8-0.4,1.3-0.4c0.6,0,1.1,0.1,1.4,0.4c0.4,0.3,0.5,0.6,0.5,1.1h-1.2c0-0.2-0.1-0.3-0.2-0.4c-0.1-0.1-0.3-0.2-0.5-0.2
	c-0.2,0-0.4,0-0.5,0.1c-0.1,0.1-0.2,0.2-0.2,0.4c0,0.1,0.1,0.2,0.2,0.3c0.1,0.1,0.4,0.2,0.7,0.2c0.3,0.1,0.6,0.1,0.8,0.2
	c0.7,0.2,1,0.7,1,1.2c0,0.4-0.2,0.8-0.5,1c-0.4,0.3-0.8,0.4-1.4,0.4c-0.4,0-0.7-0.1-1-0.2c-0.3-0.1-0.5-0.3-0.7-0.6
	c-0.2-0.2-0.3-0.5-0.3-0.8h1.2c0,0.2,0.1,0.4,0.2,0.5s0.4,0.2,0.6,0.2c0.2,0,0.4,0,0.5-0.1C305.3,37.9,305.4,37.8,305.4,37.6z"/>
<path class="st5" d="M375.5,36.1h-2.6v2.8h-0.8v-6.2h3.9v0.7h-3v2.1h2.6V36.1z M377.7,38.9h-0.8v-4.6h0.8V38.9z M376.8,33
	c0-0.1,0-0.2,0.1-0.3c0.1-0.1,0.2-0.1,0.4-0.1c0.2,0,0.3,0,0.4,0.1c0.1,0.1,0.1,0.2,0.1,0.3c0,0.1,0,0.2-0.1,0.3
	c-0.1,0.1-0.2,0.1-0.4,0.1c-0.2,0-0.3,0-0.4-0.1C376.9,33.3,376.8,33.2,376.8,33z M379.8,38.9H379v-6.6h0.8V38.9z M382.2,33.1v1.1
	h0.9v0.6h-0.9v2.9c0,0.2,0,0.3,0.1,0.4c0.1,0.1,0.2,0.1,0.4,0.1c0.1,0,0.2,0,0.4-0.1v0.6c-0.2,0.1-0.4,0.1-0.6,0.1
	c-0.4,0-0.6-0.1-0.8-0.3c-0.2-0.2-0.3-0.5-0.3-0.9v-2.9h-0.8v-0.6h0.8v-1.1H382.2z M386.2,35c-0.1,0-0.2,0-0.4,0
	c-0.5,0-0.9,0.2-1.1,0.7v3.3H384v-4.6h0.8l0,0.5c0.3-0.4,0.6-0.6,1.1-0.6c0.2,0,0.3,0,0.4,0.1V35z M388.8,39c-0.6,0-1.1-0.2-1.5-0.6
	c-0.4-0.4-0.6-1-0.6-1.7v-0.1c0-0.5,0.1-0.9,0.3-1.2c0.2-0.4,0.4-0.6,0.7-0.8c0.3-0.2,0.7-0.3,1-0.3c0.6,0,1.1,0.2,1.4,0.6
	c0.3,0.4,0.5,1,0.5,1.7v0.3h-3.1c0,0.5,0.1,0.8,0.4,1.1c0.3,0.3,0.6,0.4,1,0.4c0.3,0,0.5-0.1,0.7-0.2c0.2-0.1,0.4-0.3,0.5-0.5
	l0.5,0.4C390.1,38.7,389.5,39,388.8,39z M388.7,34.8c-0.3,0-0.6,0.1-0.8,0.4c-0.2,0.2-0.4,0.6-0.4,1h2.3v-0.1c0-0.4-0.1-0.7-0.3-0.9
	C389.3,34.9,389,34.8,388.7,34.8z M394.2,37.7c0-0.2-0.1-0.4-0.2-0.5c-0.2-0.1-0.4-0.2-0.8-0.3c-0.4-0.1-0.7-0.2-1-0.3
	c-0.2-0.1-0.4-0.3-0.5-0.4c-0.1-0.2-0.2-0.4-0.2-0.6c0-0.4,0.2-0.7,0.5-1c0.3-0.3,0.7-0.4,1.2-0.4c0.5,0,1,0.1,1.3,0.4
	c0.3,0.3,0.5,0.6,0.5,1h-0.8c0-0.2-0.1-0.4-0.3-0.6c-0.2-0.2-0.4-0.2-0.7-0.2c-0.3,0-0.5,0.1-0.7,0.2c-0.2,0.1-0.2,0.3-0.2,0.5
	c0,0.2,0.1,0.3,0.2,0.4c0.2,0.1,0.4,0.2,0.8,0.3c0.4,0.1,0.7,0.2,1,0.3c0.2,0.1,0.4,0.3,0.5,0.4c0.1,0.2,0.2,0.4,0.2,0.6
	c0,0.4-0.2,0.7-0.5,1c-0.3,0.2-0.8,0.4-1.3,0.4c-0.4,0-0.7-0.1-1-0.2c-0.3-0.1-0.5-0.3-0.7-0.5c-0.2-0.2-0.2-0.5-0.2-0.8h0.8
	c0,0.3,0.1,0.5,0.3,0.6c0.2,0.2,0.5,0.2,0.8,0.2c0.3,0,0.5-0.1,0.7-0.2C394.1,38,394.2,37.9,394.2,37.7z"/>
<line class="st8" x1="257" y1="48.6" x2="424.5" y2="48.6"/>
<line class="st9" x1="257" y1="48.6" x2="340.1" y2="48.6"/>
<path class="st5" d="M271.6,67.9v-6.2h1.8c0.5,0,1,0.1,1.4,0.4c0.4,0.2,0.7,0.6,1,1c0.2,0.4,0.3,1,0.3,1.5v0.4
	c0,0.6-0.1,1.1-0.3,1.5c-0.2,0.4-0.6,0.8-1,1c-0.4,0.2-0.9,0.4-1.5,0.4H271.6z M272.4,62.3v4.9h0.9c0.6,0,1.1-0.2,1.5-0.6
	c0.4-0.4,0.5-1,0.5-1.7v-0.4c0-0.7-0.2-1.3-0.5-1.6c-0.3-0.4-0.8-0.6-1.4-0.6H272.4z M280.1,67.4c-0.3,0.4-0.8,0.5-1.4,0.5
	c-0.5,0-0.9-0.1-1.1-0.4c-0.3-0.3-0.4-0.7-0.4-1.3v-3h0.8v3c0,0.7,0.3,1.1,0.9,1.1c0.6,0,1-0.2,1.2-0.7v-3.4h0.8v4.6h-0.8
	L280.1,67.4z M284.3,63.9c-0.1,0-0.2,0-0.4,0c-0.5,0-0.9,0.2-1.1,0.7v3.3h-0.8v-4.6h0.8l0,0.5c0.3-0.4,0.6-0.6,1.1-0.6
	c0.2,0,0.3,0,0.4,0.1V63.9z M286.9,68c-0.6,0-1.1-0.2-1.5-0.6c-0.4-0.4-0.6-1-0.6-1.7v-0.1c0-0.5,0.1-0.9,0.3-1.2
	c0.2-0.4,0.4-0.6,0.7-0.8c0.3-0.2,0.7-0.3,1-0.3c0.6,0,1.1,0.2,1.4,0.6c0.3,0.4,0.5,1,0.5,1.7v0.3h-3.1c0,0.5,0.1,0.8,0.4,1.1
	c0.3,0.3,0.6,0.4,1,0.4c0.3,0,0.5-0.1,0.7-0.2c0.2-0.1,0.4-0.3,0.5-0.5l0.5,0.4C288.2,67.7,287.7,68,286.9,68z M286.8,63.8
	c-0.3,0-0.6,0.1-0.8,0.4c-0.2,0.2-0.4,0.6-0.4,1h2.3v-0.1c0-0.4-0.1-0.7-0.3-0.9C287.4,63.9,287.1,63.8,286.8,63.8z M287.2,61.3h1
	l-1.1,1.3h-0.6L287.2,61.3z M291.5,68c-0.6,0-1.1-0.2-1.5-0.6c-0.4-0.4-0.6-1-0.6-1.7v-0.1c0-0.5,0.1-0.9,0.3-1.2
	c0.2-0.4,0.4-0.6,0.7-0.8c0.3-0.2,0.7-0.3,1-0.3c0.6,0,1.1,0.2,1.4,0.6c0.3,0.4,0.5,1,0.5,1.7v0.3h-3.1c0,0.5,0.1,0.8,0.4,1.1
	c0.3,0.3,0.6,0.4,1,0.4c0.3,0,0.5-0.1,0.7-0.2c0.2-0.1,0.4-0.3,0.5-0.5l0.5,0.4C292.9,67.7,292.3,68,291.5,68z M291.4,63.8
	c-0.3,0-0.6,0.1-0.8,0.4c-0.2,0.2-0.4,0.6-0.4,1h2.3v-0.1c0-0.4-0.1-0.7-0.3-0.9C292,63.9,291.8,63.8,291.4,63.8z"/>
<path class="st5" d="M274.5,73.7H402c2,0,3.6,1.6,3.6,3.6v16c0,2-1.6,3.6-3.6,3.6H274.5c-2,0-3.6-1.6-3.6-3.6v-16
	C270.9,75.3,272.5,73.7,274.5,73.7z"/>
<path class="st10" d="M284.6,88h-0.7v-4.4l-1.3,0.5v-0.6l1.9-0.7h0.1V88z M289.8,85.8c0,0.8-0.1,1.3-0.4,1.7
	c-0.3,0.4-0.7,0.6-1.2,0.6c-0.6,0-1-0.2-1.2-0.5c-0.3-0.4-0.4-0.9-0.4-1.6V85c0-0.8,0.1-1.3,0.4-1.7c0.3-0.4,0.7-0.6,1.2-0.6
	c0.6,0,1,0.2,1.2,0.5c0.3,0.4,0.4,0.9,0.4,1.6V85.8z M289.1,84.9c0-0.6-0.1-1-0.2-1.2c-0.2-0.3-0.4-0.4-0.7-0.4
	c-0.3,0-0.6,0.1-0.7,0.4c-0.2,0.3-0.2,0.6-0.2,1.2v1.1c0,0.6,0.1,1,0.2,1.2c0.2,0.3,0.4,0.4,0.7,0.4c0.3,0,0.6-0.1,0.7-0.4
	c0.2-0.3,0.2-0.6,0.2-1.2V84.9z M294.7,87c0-0.2-0.1-0.3-0.2-0.4c-0.1-0.1-0.4-0.2-0.7-0.3c-0.3-0.1-0.6-0.2-0.8-0.3
	c-0.2-0.1-0.3-0.2-0.4-0.4c-0.1-0.1-0.1-0.3-0.1-0.5c0-0.3,0.1-0.6,0.4-0.8c0.3-0.2,0.6-0.3,1-0.3c0.4,0,0.8,0.1,1.1,0.3
	c0.3,0.2,0.4,0.5,0.4,0.9h-0.7c0-0.2-0.1-0.3-0.2-0.5c-0.2-0.1-0.3-0.2-0.6-0.2c-0.2,0-0.4,0.1-0.6,0.2s-0.2,0.2-0.2,0.4
	c0,0.2,0.1,0.3,0.2,0.4c0.1,0.1,0.4,0.2,0.7,0.2c0.3,0.1,0.6,0.2,0.8,0.3c0.2,0.1,0.4,0.2,0.5,0.4c0.1,0.1,0.1,0.3,0.1,0.5
	c0,0.3-0.1,0.6-0.4,0.8c-0.3,0.2-0.6,0.3-1.1,0.3c-0.3,0-0.6-0.1-0.8-0.2c-0.2-0.1-0.4-0.3-0.6-0.5c-0.1-0.2-0.2-0.4-0.2-0.6h0.7
	c0,0.2,0.1,0.4,0.3,0.5c0.2,0.1,0.4,0.2,0.7,0.2c0.2,0,0.4,0,0.6-0.1C294.6,87.3,294.7,87.1,294.7,87z M297.8,88.1
	c-0.5,0-0.9-0.2-1.3-0.5c-0.3-0.3-0.5-0.8-0.5-1.4v-0.1c0-0.4,0.1-0.7,0.2-1c0.1-0.3,0.4-0.5,0.6-0.7c0.3-0.2,0.5-0.3,0.9-0.3
	c0.5,0,0.9,0.2,1.2,0.5c0.3,0.3,0.4,0.8,0.4,1.4v0.3h-2.6c0,0.4,0.1,0.7,0.3,0.9c0.2,0.2,0.5,0.3,0.8,0.3c0.2,0,0.4,0,0.6-0.1
	c0.2-0.1,0.3-0.2,0.4-0.4l0.4,0.3C299,87.8,298.5,88.1,297.8,88.1z M297.8,84.6c-0.3,0-0.5,0.1-0.7,0.3c-0.2,0.2-0.3,0.5-0.3,0.8
	h1.9v0c0-0.3-0.1-0.6-0.3-0.8C298.2,84.7,298,84.6,297.8,84.6z M301.6,87.5c0.2,0,0.4-0.1,0.6-0.2c0.2-0.1,0.3-0.3,0.3-0.5h0.6
	c0,0.2-0.1,0.4-0.2,0.6c-0.1,0.2-0.3,0.4-0.6,0.5c-0.2,0.1-0.5,0.2-0.7,0.2c-0.5,0-0.9-0.2-1.3-0.5c-0.3-0.4-0.5-0.8-0.5-1.4V86
	c0-0.4,0.1-0.7,0.2-1c0.1-0.3,0.3-0.5,0.6-0.7c0.3-0.2,0.6-0.2,0.9-0.2c0.4,0,0.8,0.1,1.1,0.4c0.3,0.3,0.4,0.6,0.5,1h-0.6
	c0-0.2-0.1-0.5-0.3-0.6c-0.2-0.2-0.4-0.2-0.6-0.2c-0.3,0-0.6,0.1-0.8,0.4c-0.2,0.2-0.3,0.6-0.3,1v0.1c0,0.4,0.1,0.8,0.3,1
	C301,87.4,301.3,87.5,301.6,87.5z M303.7,86c0-0.4,0.1-0.7,0.2-1c0.2-0.3,0.4-0.5,0.6-0.7c0.3-0.2,0.6-0.2,0.9-0.2
	c0.5,0,0.9,0.2,1.3,0.5c0.3,0.4,0.5,0.8,0.5,1.4v0c0,0.4-0.1,0.7-0.2,1c-0.1,0.3-0.3,0.5-0.6,0.7c-0.3,0.2-0.6,0.2-0.9,0.2
	c-0.5,0-0.9-0.2-1.3-0.5C303.9,87.2,303.7,86.7,303.7,86L303.7,86z M304.4,86.1c0,0.4,0.1,0.8,0.3,1c0.2,0.3,0.5,0.4,0.8,0.4
	c0.3,0,0.6-0.1,0.8-0.4c0.2-0.3,0.3-0.6,0.3-1.1c0-0.4-0.1-0.8-0.3-1c-0.2-0.3-0.5-0.4-0.8-0.4c-0.3,0-0.6,0.1-0.8,0.4
	S304.4,85.6,304.4,86.1z M308.7,84.2l0,0.5c0.3-0.4,0.7-0.6,1.2-0.6c0.8,0,1.2,0.5,1.2,1.4V88h-0.7v-2.5c0-0.3-0.1-0.5-0.2-0.6
	c-0.1-0.1-0.3-0.2-0.6-0.2c-0.2,0-0.4,0.1-0.6,0.2c-0.2,0.1-0.3,0.3-0.4,0.4V88h-0.7v-3.8H308.7z M311.9,86c0-0.6,0.1-1.1,0.4-1.4
	c0.3-0.4,0.6-0.5,1.1-0.5c0.5,0,0.8,0.2,1.1,0.5v-2h0.7V88h-0.6l0-0.4c-0.3,0.3-0.6,0.5-1.1,0.5c-0.4,0-0.8-0.2-1.1-0.5
	C312.1,87.2,311.9,86.7,311.9,86L311.9,86z M312.6,86.1c0,0.4,0.1,0.8,0.3,1c0.2,0.2,0.4,0.4,0.7,0.4c0.4,0,0.7-0.2,0.9-0.6v-1.8
	c-0.2-0.4-0.5-0.5-0.9-0.5c-0.3,0-0.6,0.1-0.8,0.4C312.7,85.3,312.6,85.6,312.6,86.1z M317.8,88.1c-0.5,0-0.9-0.2-1.3-0.5
	c-0.3-0.3-0.5-0.8-0.5-1.4v-0.1c0-0.4,0.1-0.7,0.2-1c0.1-0.3,0.4-0.5,0.6-0.7c0.3-0.2,0.5-0.3,0.9-0.3c0.5,0,0.9,0.2,1.2,0.5
	c0.3,0.3,0.4,0.8,0.4,1.4v0.3h-2.6c0,0.4,0.1,0.7,0.3,0.9c0.2,0.2,0.5,0.3,0.8,0.3c0.2,0,0.4,0,0.6-0.1c0.2-0.1,0.3-0.2,0.4-0.4
	l0.4,0.3C318.9,87.8,318.4,88.1,317.8,88.1z M317.7,84.6c-0.3,0-0.5,0.1-0.7,0.3c-0.2,0.2-0.3,0.5-0.3,0.8h1.9v0
	c0-0.3-0.1-0.6-0.3-0.8C318.2,84.7,318,84.6,317.7,84.6z M322.3,87c0-0.2-0.1-0.3-0.2-0.4c-0.1-0.1-0.4-0.2-0.7-0.3
	c-0.3-0.1-0.6-0.2-0.8-0.3c-0.2-0.1-0.3-0.2-0.4-0.4c-0.1-0.1-0.1-0.3-0.1-0.5c0-0.3,0.1-0.6,0.4-0.8c0.3-0.2,0.6-0.3,1-0.3
	c0.4,0,0.8,0.1,1.1,0.3c0.3,0.2,0.4,0.5,0.4,0.9h-0.7c0-0.2-0.1-0.3-0.2-0.5c-0.2-0.1-0.3-0.2-0.6-0.2c-0.2,0-0.4,0.1-0.6,0.2
	s-0.2,0.2-0.2,0.4c0,0.2,0.1,0.3,0.2,0.4c0.1,0.1,0.4,0.2,0.7,0.2c0.3,0.1,0.6,0.2,0.8,0.3c0.2,0.1,0.4,0.2,0.5,0.4
	c0.1,0.1,0.1,0.3,0.1,0.5c0,0.3-0.1,0.6-0.4,0.8c-0.3,0.2-0.6,0.3-1.1,0.3c-0.3,0-0.6-0.1-0.8-0.2c-0.2-0.1-0.4-0.3-0.6-0.5
	c-0.1-0.2-0.2-0.4-0.2-0.6h0.7c0,0.2,0.1,0.4,0.3,0.5c0.2,0.1,0.4,0.2,0.7,0.2c0.2,0,0.4,0,0.6-0.1C322.2,87.3,322.3,87.1,322.3,87z
	"/>
<path class="st11" d="M391.8,84.6l2.4-1.6l2.4,1.6"/>
<path class="st11" d="M396.5,86.5l-2.4,1.6l-2.4-1.6"/>
<path class="st5" d="M277,158.4h-2v5.6h-0.8v-5.6h-2v-0.7h4.8V158.4z M279,162.8l1.1-3.5h0.8l-1.9,5.3c-0.3,0.8-0.7,1.2-1.4,1.2
	l-0.1,0l-0.3-0.1v-0.6l0.2,0c0.3,0,0.5-0.1,0.6-0.2c0.2-0.1,0.3-0.3,0.4-0.6l0.2-0.5l-1.7-4.6h0.9L279,162.8z M285.6,161.7
	c0,0.7-0.2,1.3-0.5,1.7s-0.8,0.6-1.3,0.6c-0.6,0-1-0.2-1.3-0.5v2.2h-0.8v-6.4h0.7l0,0.5c0.3-0.4,0.8-0.6,1.3-0.6
	c0.6,0,1,0.2,1.3,0.6C285.4,160.3,285.6,160.9,285.6,161.7L285.6,161.7z M284.8,161.6c0-0.5-0.1-0.9-0.3-1.2
	c-0.2-0.3-0.5-0.5-0.9-0.5c-0.5,0-0.8,0.2-1.1,0.6v2.2c0.2,0.4,0.6,0.6,1.1,0.6c0.4,0,0.7-0.1,0.9-0.4
	C284.7,162.7,284.8,162.2,284.8,161.6z M288.5,164.1c-0.6,0-1.1-0.2-1.5-0.6c-0.4-0.4-0.6-1-0.6-1.7v-0.1c0-0.5,0.1-0.9,0.3-1.2
	c0.2-0.4,0.4-0.6,0.7-0.8c0.3-0.2,0.7-0.3,1-0.3c0.6,0,1.1,0.2,1.4,0.6c0.3,0.4,0.5,1,0.5,1.7v0.3h-3.1c0,0.5,0.1,0.8,0.4,1.1
	c0.3,0.3,0.6,0.4,1,0.4c0.3,0,0.5-0.1,0.7-0.2c0.2-0.1,0.4-0.3,0.5-0.5l0.5,0.4C289.9,163.8,289.3,164.1,288.5,164.1z M288.4,159.9
	c-0.3,0-0.6,0.1-0.8,0.4c-0.2,0.2-0.4,0.6-0.4,1h2.3v-0.1c0-0.4-0.1-0.7-0.3-0.9C289,160,288.8,159.9,288.4,159.9z M293.2,161.6
	c0-0.7,0.2-1.3,0.5-1.7c0.3-0.4,0.8-0.7,1.3-0.7c0.5,0,1,0.2,1.3,0.6v-2.4h0.8v6.6h-0.7l0-0.5c-0.3,0.4-0.8,0.6-1.3,0.6
	c-0.5,0-1-0.2-1.3-0.7C293.4,163,293.2,162.4,293.2,161.6L293.2,161.6z M294,161.7c0,0.5,0.1,0.9,0.3,1.2s0.5,0.4,0.9,0.4
	c0.5,0,0.9-0.2,1.1-0.7v-2.1c-0.2-0.4-0.6-0.7-1.1-0.7c-0.4,0-0.7,0.2-0.9,0.4C294.1,160.7,294,161.1,294,161.7z M298.4,159.5
	l-0.4-0.3c0.3-0.4,0.4-0.8,0.4-1.2v-0.6h0.8v0.6c0,0.3-0.1,0.6-0.2,0.9C298.8,159.1,298.7,159.3,298.4,159.5z M302.8,164
	c0-0.1-0.1-0.3-0.1-0.5c-0.4,0.4-0.8,0.6-1.3,0.6c-0.5,0-0.8-0.1-1.1-0.4c-0.3-0.3-0.4-0.6-0.4-1c0-0.5,0.2-0.9,0.5-1.1
	c0.4-0.3,0.9-0.4,1.6-0.4h0.8v-0.4c0-0.3-0.1-0.5-0.2-0.7c-0.2-0.2-0.4-0.2-0.7-0.2c-0.3,0-0.5,0.1-0.7,0.2
	c-0.2,0.1-0.3,0.3-0.3,0.5h-0.8c0-0.2,0.1-0.5,0.2-0.7c0.2-0.2,0.4-0.4,0.7-0.5c0.3-0.1,0.6-0.2,0.9-0.2c0.5,0,1,0.1,1.3,0.4
	c0.3,0.3,0.5,0.6,0.5,1.1v2.1c0,0.4,0.1,0.8,0.2,1v0.1H302.8z M301.5,163.4c0.2,0,0.5-0.1,0.7-0.2c0.2-0.1,0.4-0.3,0.5-0.5v-1H302
	c-1,0-1.5,0.3-1.5,0.9c0,0.2,0.1,0.4,0.2,0.6C301,163.3,301.2,163.4,301.5,163.4z M306.6,163.4c0.3,0,0.5-0.1,0.7-0.3
	c0.2-0.2,0.3-0.4,0.4-0.6h0.7c0,0.3-0.1,0.5-0.3,0.8c-0.2,0.2-0.4,0.4-0.7,0.6c-0.3,0.1-0.6,0.2-0.9,0.2c-0.6,0-1.1-0.2-1.5-0.6
	c-0.4-0.4-0.6-1-0.6-1.7v-0.1c0-0.5,0.1-0.9,0.2-1.2c0.2-0.4,0.4-0.6,0.7-0.8c0.3-0.2,0.7-0.3,1.1-0.3c0.5,0,1,0.2,1.3,0.5
	c0.3,0.3,0.5,0.7,0.6,1.2h-0.7c0-0.3-0.1-0.5-0.3-0.7c-0.2-0.2-0.5-0.3-0.8-0.3c-0.4,0-0.7,0.1-0.9,0.4c-0.2,0.3-0.3,0.7-0.3,1.3
	v0.2c0,0.5,0.1,0.9,0.3,1.2C305.8,163.3,306.2,163.4,306.6,163.4z M310.1,159.9c0.4-0.4,0.8-0.6,1.4-0.6c1,0,1.5,0.6,1.5,1.7v3.1
	h-0.8v-3.1c0-0.3-0.1-0.6-0.2-0.7c-0.1-0.2-0.4-0.2-0.7-0.2c-0.3,0-0.5,0.1-0.7,0.2c-0.2,0.1-0.3,0.3-0.5,0.5v3.3h-0.8v-6.6h0.8
	V159.9z M317,164c0-0.1-0.1-0.3-0.1-0.5c-0.4,0.4-0.8,0.6-1.3,0.6c-0.5,0-0.8-0.1-1.1-0.4c-0.3-0.3-0.4-0.6-0.4-1
	c0-0.5,0.2-0.9,0.5-1.1c0.4-0.3,0.9-0.4,1.6-0.4h0.8v-0.4c0-0.3-0.1-0.5-0.2-0.7c-0.2-0.2-0.4-0.2-0.7-0.2c-0.3,0-0.5,0.1-0.7,0.2
	c-0.2,0.1-0.3,0.3-0.3,0.5h-0.8c0-0.2,0.1-0.5,0.2-0.7c0.2-0.2,0.4-0.4,0.7-0.5c0.3-0.1,0.6-0.2,0.9-0.2c0.5,0,1,0.1,1.3,0.4
	c0.3,0.3,0.5,0.6,0.5,1.1v2.1c0,0.4,0.1,0.8,0.2,1v0.1H317z M315.7,163.4c0.2,0,0.5-0.1,0.7-0.2c0.2-0.1,0.4-0.3,0.5-0.5v-1h-0.6
	c-1,0-1.5,0.3-1.5,0.9c0,0.2,0.1,0.4,0.2,0.6C315.2,163.3,315.4,163.4,315.7,163.4z M320,158.2v1.1h0.9v0.6H320v2.9
	c0,0.2,0,0.3,0.1,0.4c0.1,0.1,0.2,0.1,0.4,0.1c0.1,0,0.2,0,0.4-0.1v0.6c-0.2,0.1-0.4,0.1-0.6,0.1c-0.4,0-0.6-0.1-0.8-0.3
	c-0.2-0.2-0.3-0.5-0.3-0.9V160h-0.8v-0.6h0.8v-1.1H320z"/>
<path class="st5" d="M274.5,169.8H402c2,0,3.6,1.6,3.6,3.6v16c0,2-1.6,3.6-3.6,3.6H274.5c-2,0-3.6-1.6-3.6-3.6v-16
	C270.9,171.4,272.5,169.8,274.5,169.8z"/>
<path class="st10" d="M286.6,181.6c0,0.5-0.1,1-0.3,1.3c-0.2,0.4-0.4,0.7-0.7,0.9c-0.3,0.2-0.7,0.3-1.1,0.3c-0.4,0-0.8-0.1-1.1-0.3
	c-0.3-0.2-0.6-0.5-0.7-0.9c-0.2-0.4-0.3-0.8-0.3-1.3v-0.4c0-0.5,0.1-0.9,0.3-1.3c0.2-0.4,0.4-0.7,0.7-0.9c0.3-0.2,0.7-0.3,1.1-0.3
	c0.4,0,0.8,0.1,1.1,0.3c0.3,0.2,0.6,0.5,0.7,0.9c0.2,0.4,0.3,0.8,0.3,1.3V181.6z M285.9,181.2c0-0.6-0.1-1.1-0.4-1.4
	c-0.2-0.3-0.6-0.5-1-0.5c-0.4,0-0.8,0.2-1,0.5c-0.2,0.3-0.4,0.8-0.4,1.4v0.4c0,0.6,0.1,1.1,0.4,1.4c0.3,0.3,0.6,0.5,1,0.5
	c0.4,0,0.8-0.2,1-0.5c0.2-0.3,0.4-0.8,0.4-1.4V181.2z M290.8,182.1c0,0.6-0.1,1.1-0.4,1.4c-0.3,0.4-0.6,0.5-1.1,0.5
	c-0.5,0-0.9-0.2-1.1-0.5l0,0.4h-0.6v-5.5h0.7v2c0.3-0.3,0.6-0.5,1.1-0.5c0.5,0,0.8,0.2,1.1,0.5C290.6,181,290.8,181.4,290.8,182.1
	L290.8,182.1z M290.1,182c0-0.4-0.1-0.8-0.3-1c-0.2-0.2-0.4-0.4-0.7-0.4c-0.4,0-0.7,0.2-0.9,0.6v1.7c0.2,0.4,0.5,0.6,0.9,0.6
	c0.3,0,0.6-0.1,0.7-0.4C290,182.9,290.1,182.5,290.1,182z M292.3,180.2v4.3c0,0.7-0.3,1.1-1,1.1c-0.1,0-0.3,0-0.4-0.1V185
	c0.1,0,0.2,0,0.3,0c0.1,0,0.3,0,0.3-0.1c0.1-0.1,0.1-0.2,0.1-0.4v-4.3H292.3z M291.5,179.1c0-0.1,0-0.2,0.1-0.3
	c0.1-0.1,0.2-0.1,0.3-0.1c0.1,0,0.2,0,0.3,0.1c0.1,0.1,0.1,0.2,0.1,0.3c0,0.1,0,0.2-0.1,0.3c-0.1,0.1-0.2,0.1-0.3,0.1
	s-0.2,0-0.3-0.1S291.5,179.2,291.5,179.1z M294.9,184.1c-0.5,0-0.9-0.2-1.3-0.5c-0.3-0.3-0.5-0.8-0.5-1.4v-0.1c0-0.4,0.1-0.7,0.2-1
	c0.1-0.3,0.4-0.5,0.6-0.7c0.3-0.2,0.5-0.3,0.9-0.3c0.5,0,0.9,0.2,1.2,0.5c0.3,0.3,0.4,0.8,0.4,1.4v0.3h-2.6c0,0.4,0.1,0.7,0.3,0.9
	c0.2,0.2,0.5,0.3,0.8,0.3c0.2,0,0.4,0,0.6-0.1c0.2-0.1,0.3-0.2,0.4-0.4l0.4,0.3C296.1,183.8,295.6,184.1,294.9,184.1z M294.9,180.6
	c-0.3,0-0.5,0.1-0.7,0.3c-0.2,0.2-0.3,0.5-0.3,0.8h1.9v0c0-0.3-0.1-0.6-0.3-0.8C295.3,180.7,295.1,180.6,294.9,180.6z M298.7,183.5
	c0.2,0,0.4-0.1,0.6-0.2c0.2-0.1,0.3-0.3,0.3-0.5h0.6c0,0.2-0.1,0.4-0.2,0.6c-0.1,0.2-0.3,0.4-0.6,0.5c-0.2,0.1-0.5,0.2-0.7,0.2
	c-0.5,0-0.9-0.2-1.3-0.5c-0.3-0.4-0.5-0.8-0.5-1.4V182c0-0.4,0.1-0.7,0.2-1c0.1-0.3,0.3-0.5,0.6-0.7c0.3-0.2,0.6-0.2,0.9-0.2
	c0.4,0,0.8,0.1,1.1,0.4c0.3,0.3,0.4,0.6,0.5,1h-0.6c0-0.2-0.1-0.5-0.3-0.6c-0.2-0.2-0.4-0.2-0.6-0.2c-0.3,0-0.6,0.1-0.8,0.4
	c-0.2,0.2-0.3,0.6-0.3,1v0.1c0,0.4,0.1,0.8,0.3,1C298.1,183.4,298.4,183.5,298.7,183.5z M301.9,179.2v0.9h0.7v0.5h-0.7v2.4
	c0,0.2,0,0.3,0.1,0.3c0.1,0.1,0.2,0.1,0.3,0.1c0.1,0,0.2,0,0.3,0v0.5c-0.2,0-0.3,0.1-0.5,0.1c-0.3,0-0.5-0.1-0.7-0.3
	c-0.1-0.2-0.2-0.4-0.2-0.8v-2.4h-0.7v-0.5h0.7v-0.9H301.9z M304.1,184h-0.7v-3.8h0.7V184z M303.4,179.1c0-0.1,0-0.2,0.1-0.3
	c0.1-0.1,0.2-0.1,0.3-0.1s0.2,0,0.3,0.1c0.1,0.1,0.1,0.2,0.1,0.3c0,0.1,0,0.2-0.1,0.3c-0.1,0.1-0.2,0.1-0.3,0.1s-0.2,0-0.3-0.1
	C303.4,179.3,303.4,179.2,303.4,179.1z M305.5,184v-3.3h-0.6v-0.5h0.6v-0.4c0-0.4,0.1-0.7,0.3-1c0.2-0.2,0.5-0.3,0.9-0.3
	c0.2,0,0.3,0,0.5,0.1l0,0.5c-0.1,0-0.2,0-0.4,0c-0.2,0-0.4,0.1-0.5,0.2c-0.1,0.1-0.2,0.3-0.2,0.5v0.4h0.8v0.5h-0.8v3.3H305.5z
	 M309.9,183c0-0.2-0.1-0.3-0.2-0.4c-0.1-0.1-0.4-0.2-0.7-0.3c-0.3-0.1-0.6-0.2-0.8-0.3c-0.2-0.1-0.3-0.2-0.4-0.4
	c-0.1-0.1-0.1-0.3-0.1-0.5c0-0.3,0.1-0.6,0.4-0.8c0.3-0.2,0.6-0.3,1-0.3c0.4,0,0.8,0.1,1.1,0.3c0.3,0.2,0.4,0.5,0.4,0.9h-0.7
	c0-0.2-0.1-0.3-0.2-0.5c-0.2-0.1-0.3-0.2-0.6-0.2c-0.2,0-0.4,0.1-0.6,0.2c-0.1,0.1-0.2,0.2-0.2,0.4c0,0.2,0.1,0.3,0.2,0.4
	c0.1,0.1,0.4,0.2,0.7,0.2c0.3,0.1,0.6,0.2,0.8,0.3c0.2,0.1,0.4,0.2,0.5,0.4c0.1,0.1,0.1,0.3,0.1,0.5c0,0.3-0.1,0.6-0.4,0.8
	c-0.3,0.2-0.6,0.3-1.1,0.3c-0.3,0-0.6-0.1-0.8-0.2c-0.2-0.1-0.4-0.3-0.6-0.5c-0.1-0.2-0.2-0.4-0.2-0.6h0.7c0,0.2,0.1,0.4,0.3,0.5
	c0.2,0.1,0.4,0.2,0.7,0.2c0.2,0,0.4-0.1,0.6-0.1C309.9,183.3,309.9,183.1,309.9,183z M313.4,184v-5.2h1.7c0.6,0,1,0.1,1.3,0.3
	c0.3,0.2,0.4,0.6,0.4,1c0,0.2-0.1,0.5-0.2,0.6c-0.1,0.2-0.3,0.3-0.6,0.4c0.3,0.1,0.5,0.2,0.7,0.4c0.2,0.2,0.2,0.5,0.2,0.8
	c0,0.5-0.2,0.8-0.5,1.1c-0.3,0.3-0.7,0.4-1.3,0.4H313.4z M314,181.6v1.9h1.1c0.3,0,0.6-0.1,0.8-0.2c0.2-0.2,0.3-0.4,0.3-0.7
	c0-0.6-0.3-0.9-1-0.9H314z M314,181h1c0.3,0,0.5-0.1,0.7-0.2c0.2-0.1,0.3-0.4,0.3-0.6c0-0.3-0.1-0.5-0.2-0.6
	c-0.2-0.1-0.4-0.2-0.8-0.2h-1V181z M320.2,183.6c-0.3,0.3-0.6,0.5-1.1,0.5c-0.4,0-0.7-0.1-0.9-0.4c-0.2-0.2-0.3-0.6-0.3-1.1v-2.5
	h0.7v2.5c0,0.6,0.2,0.9,0.7,0.9c0.5,0,0.8-0.2,1-0.6v-2.8h0.7v3.8h-0.6L320.2,183.6z M321.6,182c0-0.6,0.1-1.1,0.4-1.4
	c0.3-0.4,0.6-0.5,1.1-0.5c0.5,0,0.8,0.2,1.1,0.5v-2h0.7v5.5h-0.6l0-0.4c-0.3,0.3-0.6,0.5-1.1,0.5c-0.4,0-0.8-0.2-1.1-0.5
	C321.8,183.2,321.6,182.7,321.6,182L321.6,182z M322.3,182.1c0,0.4,0.1,0.8,0.3,1c0.2,0.2,0.4,0.4,0.7,0.4c0.4,0,0.7-0.2,0.9-0.6
	v-1.8c-0.2-0.4-0.5-0.5-0.9-0.5c-0.3,0-0.6,0.1-0.8,0.4C322.4,181.3,322.3,181.6,322.3,182.1z M325.8,182c0-0.6,0.1-1.1,0.4-1.4
	c0.3-0.4,0.6-0.5,1.1-0.5c0.5,0,0.8,0.2,1.1,0.5l0-0.4h0.6v3.8c0,0.5-0.1,0.9-0.4,1.2c-0.3,0.3-0.7,0.4-1.2,0.4
	c-0.3,0-0.5-0.1-0.8-0.2c-0.3-0.1-0.5-0.3-0.6-0.5l0.3-0.4c0.3,0.3,0.6,0.5,1,0.5c0.3,0,0.6-0.1,0.7-0.3c0.2-0.2,0.3-0.4,0.3-0.8
	v-0.3c-0.3,0.3-0.6,0.5-1.1,0.5c-0.5,0-0.8-0.2-1.1-0.5C325.9,183.2,325.8,182.7,325.8,182z M326.4,182.1c0,0.4,0.1,0.8,0.3,1
	c0.2,0.2,0.4,0.4,0.7,0.4c0.4,0,0.7-0.2,0.9-0.6v-1.8c-0.2-0.4-0.5-0.6-0.9-0.6c-0.3,0-0.6,0.1-0.8,0.4S326.4,181.6,326.4,182.1z
	 M331.6,184.1c-0.5,0-0.9-0.2-1.3-0.5c-0.3-0.3-0.5-0.8-0.5-1.4v-0.1c0-0.4,0.1-0.7,0.2-1c0.1-0.3,0.4-0.5,0.6-0.7
	c0.3-0.2,0.5-0.3,0.9-0.3c0.5,0,0.9,0.2,1.2,0.5c0.3,0.3,0.4,0.8,0.4,1.4v0.3h-2.6c0,0.4,0.1,0.7,0.3,0.9c0.2,0.2,0.5,0.3,0.8,0.3
	c0.2,0,0.4,0,0.6-0.1s0.3-0.2,0.4-0.4l0.4,0.3C332.7,183.8,332.2,184.1,331.6,184.1z M331.5,180.6c-0.3,0-0.5,0.1-0.7,0.3
	c-0.2,0.2-0.3,0.5-0.3,0.8h1.9v0c0-0.3-0.1-0.6-0.3-0.8C332,180.7,331.8,180.6,331.5,180.6z M334.8,179.2v0.9h0.7v0.5h-0.7v2.4
	c0,0.2,0,0.3,0.1,0.3c0.1,0.1,0.2,0.1,0.3,0.1c0.1,0,0.2,0,0.3,0v0.5c-0.2,0-0.3,0.1-0.5,0.1c-0.3,0-0.5-0.1-0.7-0.3
	c-0.1-0.2-0.2-0.4-0.2-0.8v-2.4h-0.7v-0.5h0.7v-0.9H334.8z"/>
<path class="st11" d="M391.8,180.7l2.4-1.6l2.4,1.6"/>
<path class="st11" d="M396.5,182.6l-2.4,1.6l-2.4-1.6"/>
<path class="st5" d="M274.5,200.4H402c2,0,3.6,1.6,3.6,3.6v16c0,2-1.6,3.6-3.6,3.6H274.5c-2,0-3.6-1.6-3.6-3.6v-16
	C270.9,202,272.5,200.4,274.5,200.4z"/>
<path class="st10" d="M282.5,212.1l0.3-2.6h2.7v0.6h-2.1l-0.2,1.4c0.3-0.1,0.5-0.2,0.9-0.2c0.5,0,0.8,0.2,1.1,0.5
	c0.3,0.3,0.4,0.7,0.4,1.3c0,0.5-0.1,1-0.4,1.3c-0.3,0.3-0.7,0.5-1.2,0.5c-0.5,0-0.8-0.1-1.1-0.4c-0.3-0.3-0.5-0.6-0.5-1.1h0.6
	c0,0.3,0.1,0.5,0.3,0.7c0.2,0.1,0.4,0.2,0.7,0.2c0.3,0,0.5-0.1,0.7-0.3c0.2-0.2,0.3-0.5,0.3-0.9c0-0.3-0.1-0.6-0.3-0.8
	c-0.2-0.2-0.4-0.3-0.8-0.3c-0.3,0-0.5,0.1-0.7,0.2l-0.2,0.1L282.5,212.1z M289.6,212.5c0,0.8-0.1,1.3-0.4,1.7
	c-0.3,0.4-0.7,0.6-1.2,0.6c-0.6,0-1-0.2-1.2-0.5c-0.3-0.4-0.4-0.9-0.4-1.6v-0.9c0-0.8,0.1-1.3,0.4-1.7c0.3-0.4,0.7-0.6,1.2-0.6
	c0.6,0,1,0.2,1.2,0.5c0.3,0.4,0.4,0.9,0.4,1.6V212.5z M288.9,211.6c0-0.6-0.1-1-0.2-1.2c-0.2-0.3-0.4-0.4-0.7-0.4
	c-0.3,0-0.6,0.1-0.7,0.4c-0.2,0.3-0.2,0.6-0.2,1.2v1.1c0,0.6,0.1,1,0.2,1.2c0.2,0.3,0.4,0.4,0.7,0.4c0.3,0,0.6-0.1,0.7-0.4
	c0.2-0.3,0.2-0.6,0.2-1.2V211.6z M290.5,215.7l-0.4-0.3c0.2-0.3,0.3-0.6,0.3-1v-0.6h0.6v0.5c0,0.2-0.1,0.5-0.2,0.7
	C290.8,215.4,290.6,215.6,290.5,215.7z M295.1,212.5c0,0.8-0.1,1.3-0.4,1.7c-0.3,0.4-0.7,0.6-1.2,0.6c-0.6,0-1-0.2-1.2-0.5
	c-0.3-0.4-0.4-0.9-0.4-1.6v-0.9c0-0.8,0.1-1.3,0.4-1.7c0.3-0.4,0.7-0.6,1.2-0.6c0.6,0,1,0.2,1.2,0.5c0.3,0.4,0.4,0.9,0.4,1.6V212.5z
	 M294.4,211.6c0-0.6-0.1-1-0.2-1.2c-0.2-0.3-0.4-0.4-0.7-0.4c-0.3,0-0.6,0.1-0.7,0.4c-0.2,0.3-0.2,0.6-0.2,1.2v1.1
	c0,0.6,0.1,1,0.2,1.2c0.2,0.3,0.4,0.4,0.7,0.4c0.3,0,0.6-0.1,0.7-0.4c0.2-0.3,0.2-0.6,0.2-1.2V211.6z M299.2,212.5
	c0,0.8-0.1,1.3-0.4,1.7c-0.3,0.4-0.7,0.6-1.2,0.6c-0.6,0-1-0.2-1.2-0.5c-0.3-0.4-0.4-0.9-0.4-1.6v-0.9c0-0.8,0.1-1.3,0.4-1.7
	c0.3-0.4,0.7-0.6,1.2-0.6c0.6,0,1,0.2,1.2,0.5c0.3,0.4,0.4,0.9,0.4,1.6V212.5z M298.5,211.6c0-0.6-0.1-1-0.2-1.2
	c-0.2-0.3-0.4-0.4-0.7-0.4c-0.3,0-0.6,0.1-0.7,0.4c-0.2,0.3-0.2,0.6-0.2,1.2v1.1c0,0.6,0.1,1,0.2,1.2c0.2,0.3,0.4,0.4,0.7,0.4
	c0.3,0,0.6-0.1,0.7-0.4c0.2-0.3,0.2-0.6,0.2-1.2V211.6z M303.3,212.5c0,0.8-0.1,1.3-0.4,1.7c-0.3,0.4-0.7,0.6-1.2,0.6
	c-0.6,0-1-0.2-1.2-0.5c-0.3-0.4-0.4-0.9-0.4-1.6v-0.9c0-0.8,0.1-1.3,0.4-1.7c0.3-0.4,0.7-0.6,1.2-0.6c0.6,0,1,0.2,1.2,0.5
	c0.3,0.4,0.4,0.9,0.4,1.6V212.5z M302.6,211.6c0-0.6-0.1-1-0.2-1.2c-0.2-0.3-0.4-0.4-0.7-0.4c-0.3,0-0.6,0.1-0.7,0.4
	c-0.2,0.3-0.2,0.6-0.2,1.2v1.1c0,0.6,0.1,1,0.2,1.2c0.2,0.3,0.4,0.4,0.7,0.4c0.3,0,0.6-0.1,0.7-0.4c0.2-0.3,0.2-0.6,0.2-1.2V211.6z
	 M304.2,215.7l-0.4-0.3c0.2-0.3,0.3-0.6,0.3-1v-0.6h0.6v0.5c0,0.2-0.1,0.5-0.2,0.7C304.5,215.4,304.3,215.6,304.2,215.7z
	 M308.8,212.5c0,0.8-0.1,1.3-0.4,1.7c-0.3,0.4-0.7,0.6-1.2,0.6c-0.6,0-1-0.2-1.2-0.5c-0.3-0.4-0.4-0.9-0.4-1.6v-0.9
	c0-0.8,0.1-1.3,0.4-1.7c0.3-0.4,0.7-0.6,1.2-0.6c0.6,0,1,0.2,1.2,0.5c0.3,0.4,0.4,0.9,0.4,1.6V212.5z M308.1,211.6
	c0-0.6-0.1-1-0.2-1.2c-0.2-0.3-0.4-0.4-0.7-0.4c-0.3,0-0.6,0.1-0.7,0.4c-0.2,0.3-0.2,0.6-0.2,1.2v1.1c0,0.6,0.1,1,0.2,1.2
	c0.2,0.3,0.4,0.4,0.7,0.4c0.3,0,0.6-0.1,0.7-0.4c0.2-0.3,0.2-0.6,0.2-1.2V211.6z M312.9,212.5c0,0.8-0.1,1.3-0.4,1.7
	c-0.3,0.4-0.7,0.6-1.2,0.6c-0.6,0-1-0.2-1.2-0.5c-0.3-0.4-0.4-0.9-0.4-1.6v-0.9c0-0.8,0.1-1.3,0.4-1.7c0.3-0.4,0.7-0.6,1.2-0.6
	c0.6,0,1,0.2,1.2,0.5c0.3,0.4,0.4,0.9,0.4,1.6V212.5z M312.2,211.6c0-0.6-0.1-1-0.2-1.2c-0.2-0.3-0.4-0.4-0.7-0.4
	c-0.3,0-0.6,0.1-0.7,0.4c-0.2,0.3-0.2,0.6-0.2,1.2v1.1c0,0.6,0.1,1,0.2,1.2c0.2,0.3,0.4,0.4,0.7,0.4c0.3,0,0.6-0.1,0.7-0.4
	c0.2-0.3,0.2-0.6,0.2-1.2V211.6z M317,212.5c0,0.8-0.1,1.3-0.4,1.7c-0.3,0.4-0.7,0.6-1.2,0.6c-0.6,0-1-0.2-1.2-0.5
	c-0.3-0.4-0.4-0.9-0.4-1.6v-0.9c0-0.8,0.1-1.3,0.4-1.7c0.3-0.4,0.7-0.6,1.2-0.6c0.6,0,1,0.2,1.2,0.5c0.3,0.4,0.4,0.9,0.4,1.6V212.5z
	 M316.3,211.6c0-0.6-0.1-1-0.2-1.2c-0.2-0.3-0.4-0.4-0.7-0.4c-0.3,0-0.6,0.1-0.7,0.4c-0.2,0.3-0.2,0.6-0.2,1.2v1.1
	c0,0.6,0.1,1,0.2,1.2c0.2,0.3,0.4,0.4,0.7,0.4c0.3,0,0.6-0.1,0.7-0.4c0.2-0.3,0.2-0.6,0.2-1.2V211.6z"/>
<path class="st5" d="M272.5,113.6v2.4h-0.8v-6.2h2.3c0.7,0,1.2,0.2,1.6,0.5c0.4,0.3,0.6,0.8,0.6,1.4c0,0.6-0.2,1.1-0.6,1.4
	c-0.4,0.3-0.9,0.5-1.6,0.5H272.5z M272.5,112.9h1.5c0.4,0,0.8-0.1,1-0.3c0.2-0.2,0.4-0.5,0.4-0.9c0-0.4-0.1-0.7-0.4-0.9
	c-0.2-0.2-0.6-0.3-1-0.3h-1.5V112.9z M279,116.1c-0.6,0-1.1-0.2-1.5-0.6c-0.4-0.4-0.6-1-0.6-1.7v-0.1c0-0.5,0.1-0.9,0.3-1.2
	c0.2-0.4,0.4-0.6,0.7-0.8c0.3-0.2,0.7-0.3,1-0.3c0.6,0,1.1,0.2,1.4,0.6c0.3,0.4,0.5,1,0.5,1.7v0.3h-3.1c0,0.5,0.1,0.8,0.4,1.1
	c0.3,0.3,0.6,0.4,1,0.4c0.3,0,0.5-0.1,0.7-0.2c0.2-0.1,0.4-0.3,0.5-0.5l0.5,0.4C280.4,115.8,279.8,116.1,279,116.1z M278.9,111.9
	c-0.3,0-0.6,0.1-0.8,0.4c-0.2,0.2-0.4,0.6-0.4,1h2.3v-0.1c0-0.4-0.1-0.7-0.3-0.9C279.5,112,279.2,111.9,278.9,111.9z M279.3,109.4h1
	l-1.1,1.3h-0.6L279.3,109.4z M284,112.1c-0.1,0-0.2,0-0.4,0c-0.5,0-0.9,0.2-1.1,0.7v3.3h-0.8v-4.6h0.8l0,0.5
	c0.3-0.4,0.6-0.6,1.1-0.6c0.2,0,0.3,0,0.4,0.1V112.1z M285.6,116h-0.8v-4.6h0.8V116z M284.7,110.1c0-0.1,0-0.2,0.1-0.3
	c0.1-0.1,0.2-0.1,0.4-0.1c0.2,0,0.3,0,0.4,0.1c0.1,0.1,0.1,0.2,0.1,0.3c0,0.1,0,0.2-0.1,0.3c-0.1,0.1-0.2,0.1-0.4,0.1
	c-0.2,0-0.3,0-0.4-0.1C284.7,110.4,284.7,110.3,284.7,110.1z M286.6,113.6c0-0.5,0.1-0.9,0.3-1.2c0.2-0.4,0.4-0.6,0.7-0.8
	c0.3-0.2,0.7-0.3,1.1-0.3c0.6,0,1.1,0.2,1.5,0.7c0.4,0.4,0.6,1,0.6,1.7v0.1c0,0.5-0.1,0.9-0.3,1.2c-0.2,0.4-0.4,0.6-0.7,0.8
	c-0.3,0.2-0.7,0.3-1.1,0.3c-0.6,0-1.1-0.2-1.5-0.7C286.8,115,286.6,114.4,286.6,113.6L286.6,113.6z M287.4,113.7
	c0,0.5,0.1,0.9,0.4,1.2c0.2,0.3,0.6,0.5,1,0.5c0.4,0,0.7-0.2,1-0.5c0.2-0.3,0.4-0.8,0.4-1.3c0-0.5-0.1-0.9-0.4-1.2
	c-0.2-0.3-0.6-0.5-1-0.5c-0.4,0-0.7,0.2-0.9,0.5C287.5,112.7,287.4,113.2,287.4,113.7z M291.6,113.6c0-0.7,0.2-1.3,0.5-1.7
	c0.3-0.4,0.8-0.7,1.3-0.7c0.5,0,1,0.2,1.3,0.6v-2.4h0.8v6.6h-0.7l0-0.5c-0.3,0.4-0.8,0.6-1.3,0.6c-0.5,0-1-0.2-1.3-0.7
	C291.8,115,291.6,114.4,291.6,113.6L291.6,113.6z M292.4,113.7c0,0.5,0.1,0.9,0.3,1.2c0.2,0.3,0.5,0.4,0.9,0.4
	c0.5,0,0.9-0.2,1.1-0.7v-2.1c-0.2-0.4-0.6-0.7-1.1-0.7c-0.4,0-0.7,0.1-0.9,0.4C292.5,112.7,292.4,113.1,292.4,113.7z M298.7,116.1
	c-0.6,0-1.1-0.2-1.5-0.6c-0.4-0.4-0.6-1-0.6-1.7v-0.1c0-0.5,0.1-0.9,0.3-1.2c0.2-0.4,0.4-0.6,0.7-0.8c0.3-0.2,0.7-0.3,1-0.3
	c0.6,0,1.1,0.2,1.4,0.6c0.3,0.4,0.5,1,0.5,1.7v0.3h-3.1c0,0.5,0.1,0.8,0.4,1.1c0.3,0.3,0.6,0.4,1,0.4c0.3,0,0.5-0.1,0.7-0.2
	c0.2-0.1,0.4-0.3,0.5-0.5l0.5,0.4C300.1,115.8,299.5,116.1,298.7,116.1z M298.6,111.9c-0.3,0-0.6,0.1-0.8,0.4
	c-0.2,0.2-0.4,0.6-0.4,1h2.3v-0.1c0-0.4-0.1-0.7-0.3-0.9C299.2,112,298.9,111.9,298.6,111.9z"/>
<path class="st5" d="M274.5,121.8H402c2,0,3.6,1.6,3.6,3.6v16c0,2-1.6,3.6-3.6,3.6H274.5c-2,0-3.6-1.6-3.6-3.6v-16
	C270.9,123.4,272.5,121.8,274.5,121.8z"/>
<path class="st6" d="M391.2,129.8c-0.4,0-0.7,0.3-0.7,0.7v0.3h-0.9c-0.4,0-0.7,0.3-0.7,0.7v5.7c0,0.4,0.3,0.7,0.7,0.7h7.3
	c0.4,0,0.7-0.3,0.7-0.7v-5.7c0-0.4-0.3-0.7-0.7-0.7H396v-0.3c0-0.4-0.3-0.7-0.7-0.7c-0.4,0-0.7,0.3-0.7,0.7v0.3h-2.6v-0.3
	C391.9,130.1,391.6,129.8,391.2,129.8z M391.2,130.3c0.1,0,0.1,0,0.1,0.1v1.1c0,0.1,0,0.1-0.1,0.1c-0.1,0-0.1,0-0.1-0.1v-1.1
	C391.1,130.4,391.1,130.3,391.2,130.3z M395.2,130.3c0.1,0,0.1,0,0.1,0.1v1.1c0,0.1,0,0.1-0.1,0.1c-0.1,0-0.1,0-0.1-0.1v-1.1
	C395.1,130.4,395.2,130.3,395.2,130.3z M389.6,131.3h0.9v0.3c0,0.4,0.3,0.7,0.7,0.7c0.4,0,0.7-0.3,0.7-0.7v-0.3h2.6v0.3
	c0,0.4,0.3,0.7,0.7,0.7c0.4,0,0.7-0.3,0.7-0.7v-0.3h0.9c0.1,0,0.1,0,0.1,0.1v1h-7.5v-1C389.5,131.3,389.5,131.3,389.6,131.3z
	 M389.5,133h7.5v4.1c0,0.1,0,0.1-0.1,0.1h-7.3c-0.1,0-0.1,0-0.1-0.1V133z"/>
<path class="st10" d="M287.6,136h-3.4v-0.5l1.8-2c0.3-0.3,0.4-0.5,0.5-0.7c0.1-0.2,0.2-0.4,0.2-0.6c0-0.3-0.1-0.5-0.2-0.7
	c-0.2-0.2-0.4-0.3-0.7-0.3c-0.3,0-0.6,0.1-0.8,0.3c-0.2,0.2-0.3,0.4-0.3,0.8h-0.7c0-0.5,0.2-0.9,0.5-1.2c0.3-0.3,0.7-0.4,1.2-0.4
	c0.5,0,0.9,0.1,1.1,0.4c0.3,0.3,0.4,0.6,0.4,1c0,0.5-0.3,1.1-1,1.8l-1.4,1.5h2.6V136z M291.6,133.8c0,0.8-0.1,1.3-0.4,1.7
	c-0.3,0.4-0.7,0.6-1.2,0.6c-0.6,0-1-0.2-1.2-0.5c-0.3-0.4-0.4-0.9-0.4-1.6V133c0-0.8,0.1-1.3,0.4-1.7c0.3-0.4,0.7-0.6,1.2-0.6
	c0.6,0,1,0.2,1.2,0.5c0.3,0.4,0.4,0.9,0.4,1.6V133.8z M290.9,132.9c0-0.6-0.1-1-0.2-1.2c-0.2-0.3-0.4-0.4-0.7-0.4
	c-0.3,0-0.6,0.1-0.7,0.4c-0.2,0.3-0.2,0.6-0.2,1.2v1.1c0,0.6,0.1,1,0.2,1.2c0.2,0.3,0.4,0.4,0.7,0.4c0.3,0,0.6-0.1,0.7-0.4
	c0.2-0.3,0.2-0.6,0.2-1.2V132.9z M296.6,130.8h0.7v3.7c0,0.5-0.1,0.9-0.4,1.2c-0.3,0.3-0.7,0.4-1.2,0.4c-0.5,0-0.9-0.1-1.2-0.4
	c-0.3-0.3-0.4-0.6-0.4-1.1h0.7c0,0.3,0.1,0.5,0.2,0.7c0.2,0.2,0.4,0.2,0.7,0.2c0.3,0,0.5-0.1,0.7-0.3c0.2-0.2,0.3-0.4,0.3-0.7V130.8
	z M300.7,135.6c-0.3,0.3-0.6,0.5-1.1,0.5c-0.4,0-0.7-0.1-0.9-0.4c-0.2-0.2-0.3-0.6-0.3-1.1v-2.5h0.7v2.5c0,0.6,0.2,0.9,0.7,0.9
	c0.5,0,0.8-0.2,1-0.6v-2.8h0.7v3.8h-0.6L300.7,135.6z M303,136h-0.7v-3.8h0.7V136z M302.3,131.1c0-0.1,0-0.2,0.1-0.3
	c0.1-0.1,0.2-0.1,0.3-0.1c0.1,0,0.2,0,0.3,0.1c0.1,0.1,0.1,0.2,0.1,0.3c0,0.1,0,0.2-0.1,0.3c-0.1,0.1-0.2,0.1-0.3,0.1
	c-0.1,0-0.2,0-0.3-0.1C302.4,131.3,302.3,131.2,302.3,131.1z M304.8,136h-0.7v-5.5h0.7V136z M306.6,136h-0.7v-5.5h0.7V136z
	 M309.2,136.1c-0.5,0-0.9-0.2-1.3-0.5c-0.3-0.3-0.5-0.8-0.5-1.4v-0.1c0-0.4,0.1-0.7,0.2-1c0.1-0.3,0.4-0.5,0.6-0.7
	c0.3-0.2,0.5-0.3,0.9-0.3c0.5,0,0.9,0.2,1.2,0.5c0.3,0.3,0.4,0.8,0.4,1.4v0.3h-2.6c0,0.4,0.1,0.7,0.3,0.9c0.2,0.2,0.5,0.3,0.8,0.3
	c0.2,0,0.4,0,0.6-0.1c0.2-0.1,0.3-0.2,0.4-0.4l0.4,0.3C310.4,135.8,309.9,136.1,309.2,136.1z M309.1,132.6c-0.3,0-0.5,0.1-0.7,0.3
	c-0.2,0.2-0.3,0.5-0.3,0.8h1.9v0c0-0.3-0.1-0.6-0.3-0.8C309.6,132.7,309.4,132.6,309.1,132.6z M312.4,131.2v0.9h0.7v0.5h-0.7v2.4
	c0,0.2,0,0.3,0.1,0.3c0.1,0.1,0.2,0.1,0.3,0.1c0.1,0,0.2,0,0.3,0v0.5c-0.2,0-0.3,0.1-0.5,0.1c-0.3,0-0.5-0.1-0.7-0.3
	c-0.1-0.2-0.2-0.4-0.2-0.8v-2.4H311v-0.5h0.7v-0.9H312.4z M317.1,134.1h-1.7v-0.5h1.7V134.1z M324.6,136h-3.4v-0.5l1.8-2
	c0.3-0.3,0.4-0.5,0.5-0.7c0.1-0.2,0.2-0.4,0.2-0.6c0-0.3-0.1-0.5-0.2-0.7c-0.2-0.2-0.4-0.3-0.7-0.3c-0.3,0-0.6,0.1-0.8,0.3
	c-0.2,0.2-0.3,0.4-0.3,0.8h-0.7c0-0.5,0.2-0.9,0.5-1.2c0.3-0.3,0.7-0.4,1.2-0.4c0.5,0,0.9,0.1,1.1,0.4c0.3,0.3,0.4,0.6,0.4,1
	c0,0.5-0.3,1.1-1,1.8l-1.4,1.5h2.6V136z M330.2,134.6H328l-0.5,1.4h-0.7l2-5.2h0.6l2,5.2h-0.7L330.2,134.6z M328.2,134.1h1.8
	l-0.9-2.4L328.2,134.1z M331.7,134c0-0.4,0.1-0.7,0.2-1c0.1-0.3,0.4-0.5,0.6-0.7c0.3-0.2,0.6-0.2,0.9-0.2c0.5,0,0.9,0.2,1.3,0.5
	c0.3,0.4,0.5,0.8,0.5,1.4v0c0,0.4-0.1,0.7-0.2,1c-0.1,0.3-0.3,0.5-0.6,0.7c-0.3,0.2-0.6,0.2-0.9,0.2c-0.5,0-0.9-0.2-1.3-0.5
	C331.9,135.2,331.7,134.7,331.7,134L331.7,134z M332.4,134.1c0,0.4,0.1,0.8,0.3,1c0.2,0.3,0.5,0.4,0.8,0.4c0.3,0,0.6-0.1,0.8-0.4
	c0.2-0.3,0.3-0.6,0.3-1.1c0-0.4-0.1-0.8-0.3-1c-0.2-0.3-0.5-0.4-0.8-0.4c-0.3,0-0.6,0.1-0.8,0.4
	C332.5,133.3,332.4,133.6,332.4,134.1z M338.4,135.6c-0.3,0.3-0.6,0.5-1.1,0.5c-0.4,0-0.7-0.1-0.9-0.4c-0.2-0.2-0.3-0.6-0.3-1.1
	v-2.5h0.7v2.5c0,0.6,0.2,0.9,0.7,0.9c0.5,0,0.8-0.2,1-0.6v-2.8h0.7v3.8h-0.6L338.4,135.6z M341,131.2v0.9h0.7v0.5H341v2.4
	c0,0.2,0,0.3,0.1,0.3c0.1,0.1,0.2,0.1,0.3,0.1c0.1,0,0.2,0,0.3,0v0.5c-0.2,0-0.3,0.1-0.5,0.1c-0.3,0-0.5-0.1-0.7-0.3
	c-0.1-0.2-0.2-0.4-0.2-0.8v-2.4h-0.7v-0.5h0.7v-0.9H341z"/>
<path class="st12" d="M80.7,246.2c0.3,0,0.6-0.3,0.8-0.7l11.6-43.8c0.2-0.6-0.1-1.2-0.5-1.4c-0.4-0.2-0.9,0.1-1,0.7L80,244.8
	c-0.2,0.6,0.1,1.2,0.5,1.4C80.6,246.1,80.6,246.2,80.7,246.2z"/>
<path class="st12" d="M92.4,246.2c0.1,0,0.2,0,0.3-0.1c0.4-0.2,0.6-0.8,0.5-1.4L81.6,201c-0.2-0.6-0.6-0.9-1-0.7
	c-0.4,0.2-0.6,0.8-0.5,1.4l11.6,43.8C91.7,245.9,92,246.2,92.4,246.2z"/>
<path class="st12" d="M29.2,246.2c0.3,0,0.6-0.3,0.8-0.7l11.6-43.8c0.2-0.6-0.1-1.2-0.5-1.4c-0.4-0.2-0.9,0.1-1,0.7l-11.6,43.8
	c-0.2,0.6,0.1,1.2,0.5,1.4C29.1,246.1,29.2,246.2,29.2,246.2z"/>
<path class="st12" d="M40.9,246.2c0.1,0,0.2,0,0.3-0.1c0.4-0.2,0.6-0.8,0.5-1.4L30,201c-0.2-0.6-0.6-0.9-1-0.7
	c-0.4,0.2-0.6,0.8-0.5,1.4l11.6,43.8C40.3,245.9,40.6,246.2,40.9,246.2z"/>
<path class="st5" d="M27,161.2h68v39.9H27V161.2z"/>
<path class="st12" d="M26.7,201.4h68.5V161H26.7V201.4z M94.9,201H27.2v-39.5h67.7V201L94.9,201z"/>
<path class="st13" d="M76.5,190.4c0.1,0,0.2-0.1,0.2-0.1v-24.8c0-0.1-0.1-0.1-0.2-0.1c-0.1,0-0.2,0.1-0.2,0.1v24.8
	C76.3,190.4,76.4,190.4,76.5,190.4z"/>
<path class="st13" d="M32.9,170.5h56c0.1,0,0.2-0.1,0.2-0.1c0-0.1-0.1-0.1-0.2-0.1h-56c-0.1,0-0.2,0.1-0.2,0.1
	C32.8,170.4,32.8,170.5,32.9,170.5z"/>
<path class="st13" d="M32.9,175.9h56c0.1,0,0.2-0.1,0.2-0.1s-0.1-0.1-0.2-0.1h-56c-0.1,0-0.2,0.1-0.2,0.1S32.8,175.9,32.9,175.9z"/>
<path class="st13" d="M32.9,181.3h56c0.1,0,0.2-0.1,0.2-0.1c0-0.1-0.1-0.1-0.2-0.1h-56c-0.1,0-0.2,0.1-0.2,0.1
	C32.8,181.2,32.8,181.3,32.9,181.3z"/>
<path class="st13" d="M32.9,186.7h56c0.1,0,0.2-0.1,0.2-0.1s-0.1-0.1-0.2-0.1h-56c-0.1,0-0.2,0.1-0.2,0.1S32.8,186.7,32.9,186.7z"/>
<path class="st13" d="M71.3,190.4c0.1,0,0.2-0.1,0.2-0.1v-24.8c0-0.1-0.1-0.1-0.2-0.1s-0.2,0.1-0.2,0.1v24.8
	C71.1,190.4,71.2,190.4,71.3,190.4z"/>
<path class="st13" d="M87,190.4c0.1,0,0.2-0.1,0.2-0.1v-24.8c0-0.1-0.1-0.1-0.2-0.1c-0.1,0-0.2,0.1-0.2,0.1v24.8
	C86.8,190.4,86.9,190.4,87,190.4z"/>
<path class="st13" d="M81.8,190.4c0.1,0,0.2-0.1,0.2-0.1v-24.8c0-0.1-0.1-0.1-0.2-0.1c-0.1,0-0.2,0.1-0.2,0.1v24.8
	C81.7,190.4,81.7,190.4,81.8,190.4z"/>
<path class="st13" d="M66.1,190.4c0.1,0,0.2-0.1,0.2-0.1v-24.8c0-0.1-0.1-0.1-0.2-0.1c-0.1,0-0.2,0.1-0.2,0.1v24.8
	C66,190.4,66,190.4,66.1,190.4z"/>
<path class="st13" d="M60.9,190.4c0.1,0,0.2-0.1,0.2-0.1v-24.8c0-0.1-0.1-0.1-0.2-0.1c-0.1,0-0.2,0.1-0.2,0.1v24.8
	C60.7,190.4,60.8,190.4,60.9,190.4z"/>
<path class="st13" d="M55.7,190.4c0.1,0,0.2-0.1,0.2-0.1v-24.8c0-0.1-0.1-0.1-0.2-0.1c-0.1,0-0.2,0.1-0.2,0.1v24.8
	C55.6,190.4,55.6,190.4,55.7,190.4z"/>
<path class="st13" d="M50.5,190.4c0.1,0,0.2-0.1,0.2-0.1v-24.8c0-0.1-0.1-0.1-0.2-0.1c-0.1,0-0.2,0.1-0.2,0.1v24.8
	C50.3,190.4,50.4,190.4,50.5,190.4z"/>
<path class="st13" d="M45.3,190.4c0.1,0,0.2-0.1,0.2-0.1v-24.8c0-0.1-0.1-0.1-0.2-0.1s-0.2,0.1-0.2,0.1v24.8
	C45.2,190.4,45.2,190.4,45.3,190.4z"/>
<path class="st13" d="M40.1,190.4c0.1,0,0.2-0.1,0.2-0.1v-24.8c0-0.1-0.1-0.1-0.2-0.1c-0.1,0-0.2,0.1-0.2,0.1v24.8
	C39.9,190.4,40,190.4,40.1,190.4z"/>
<path class="st13" d="M34.9,190.4c0.1,0,0.2-0.1,0.2-0.1v-24.8c0-0.1-0.1-0.1-0.2-0.1c-0.1,0-0.2,0.1-0.2,0.1v24.8
	C34.8,190.4,34.9,190.4,34.9,190.4z"/>
<path class="st14" d="M38,187.9c-0.2,0-0.3-0.1-0.4-0.1c-0.2-0.2-0.3-0.5-0.1-0.7l6.5-6.5c0.2-0.1,0.5-0.2,0.7-0.1l6.6,3.1l6.2-7.7
	c0.1-0.1,0.2-0.2,0.4-0.2c0.2,0,0.3,0,0.5,0.1l6.4,5.1l4.8-8c0.1-0.1,0.2-0.2,0.4-0.3c0.2-0.1,0.3,0,0.5,0.1l6.1,3.2l6.6-7.8
	c0.2-0.2,0.5-0.3,0.9-0.1s0.3,0.5,0.2,0.7l-6.9,8.2c-0.2,0.2-0.5,0.3-0.8,0.1l-6-3.2l-4.8,8.1c-0.1,0.1-0.2,0.2-0.4,0.3
	c-0.2,0-0.4,0-0.5-0.1l-6.5-5.2l-6.1,7.6c-0.2,0.2-0.5,0.3-0.8,0.1l-6.7-3.1l-6.2,6.2C38.3,187.8,38.1,187.9,38,187.9z"/>
<path class="st14" d="M84.9,171.2c-0.3,0-0.5-0.2-0.6-0.4l-0.5-2.8l-3.7,0.8c-0.3,0.1-0.6-0.1-0.7-0.4c-0.1-0.3,0.2-0.6,0.5-0.7
	l4.3-0.9c0.2,0,0.3,0,0.5,0.1c0.2,0.1,0.2,0.2,0.2,0.4l0.6,3.3c0.1,0.3-0.2,0.6-0.5,0.6C84.9,171.2,84.9,171.2,84.9,171.2z"/>
<path class="st13" d="M53.2,193.4h-4.7c-0.2,0-0.4-0.1-0.4-0.4c0-0.2,0.2-0.4,0.4-0.4h4.7c0.2,0,0.4,0.1,0.4,0.4
	C53.6,193.2,53.5,193.4,53.2,193.4z"/>
<path class="st13" d="M47,193.4h-0.2c-0.2,0-0.4-0.1-0.4-0.4c0-0.2,0.2-0.4,0.4-0.4H47c0.2,0,0.4,0.1,0.4,0.4
	C47.4,193.2,47.3,193.4,47,193.4z"/>
<path class="st13" d="M57.4,194.7h-4.7c-0.2,0-0.4-0.1-0.4-0.4c0-0.2,0.2-0.4,0.4-0.4h4.7c0.2,0,0.4,0.1,0.4,0.4
	C57.8,194.5,57.7,194.7,57.4,194.7z"/>
<path class="st13" d="M51.3,194.7h-0.2c-0.2,0-0.4-0.1-0.4-0.4c0-0.2,0.2-0.4,0.4-0.4h0.2c0.2,0,0.4,0.1,0.4,0.4
	C51.7,194.5,51.5,194.7,51.3,194.7z"/>
<path class="st13" d="M57.4,193.4h-2.6c-0.2,0-0.4-0.1-0.4-0.4c0-0.2,0.2-0.4,0.4-0.4h2.6c0.2,0,0.4,0.1,0.4,0.4
	C57.8,193.2,57.7,193.4,57.4,193.4z"/>
<path class="st13" d="M49.5,194.7h-2.6c-0.2,0-0.4-0.1-0.4-0.4c0-0.2,0.2-0.4,0.4-0.4h2.6c0.2,0,0.4,0.1,0.4,0.4
	C49.9,194.5,49.7,194.7,49.5,194.7z"/>
<path class="st13" d="M53.2,196h-4.7c-0.2,0-0.4-0.1-0.4-0.4c0-0.2,0.2-0.4,0.4-0.4h4.7c0.2,0,0.4,0.1,0.4,0.4
	C53.6,195.8,53.5,196,53.2,196z"/>
<path class="st13" d="M47,196h-0.2c-0.2,0-0.4-0.1-0.4-0.4c0-0.2,0.2-0.4,0.4-0.4H47c0.2,0,0.4,0.1,0.4,0.4
	C47.4,195.8,47.3,196,47,196z"/>
<path class="st13" d="M57.4,197.3h-4.7c-0.2,0-0.4-0.1-0.4-0.4c0-0.2,0.2-0.4,0.4-0.4h4.7c0.2,0,0.4,0.1,0.4,0.4
	C57.8,197.1,57.7,197.3,57.4,197.3z"/>
<path class="st13" d="M51.3,197.3h-0.2c-0.2,0-0.4-0.1-0.4-0.4c0-0.2,0.2-0.4,0.4-0.4h0.2c0.2,0,0.4,0.1,0.4,0.4
	C51.7,197.1,51.5,197.3,51.3,197.3z"/>
<path class="st13" d="M57.4,196h-2.6c-0.2,0-0.4-0.1-0.4-0.4c0-0.2,0.2-0.4,0.4-0.4h2.6c0.2,0,0.4,0.1,0.4,0.4
	C57.8,195.8,57.7,196,57.4,196z"/>
<path class="st13" d="M49.5,197.3h-2.6c-0.2,0-0.4-0.1-0.4-0.4c0-0.2,0.2-0.4,0.4-0.4h2.6c0.2,0,0.4,0.1,0.4,0.4
	C49.9,197.1,49.7,197.3,49.5,197.3z"/>
<path class="st13" d="M39.6,193.4h-4.7c-0.2,0-0.4-0.1-0.4-0.4c0-0.2,0.2-0.4,0.4-0.4h4.7c0.2,0,0.4,0.1,0.4,0.4
	C39.9,193.2,39.8,193.4,39.6,193.4z"/>
<path class="st13" d="M33.4,193.4h-0.2c-0.2,0-0.4-0.1-0.4-0.4c0-0.2,0.2-0.4,0.4-0.4h0.2c0.2,0,0.4,0.1,0.4,0.4
	C33.8,193.2,33.6,193.4,33.4,193.4z"/>
<path class="st13" d="M43.8,194.7h-4.7c-0.2,0-0.4-0.1-0.4-0.4c0-0.2,0.2-0.4,0.4-0.4h4.7c0.2,0,0.4,0.1,0.4,0.4
	C44.2,194.5,44,194.7,43.8,194.7z"/>
<path class="st13" d="M37.6,194.7h-0.2c-0.2,0-0.4-0.1-0.4-0.4c0-0.2,0.2-0.4,0.4-0.4h0.2c0.2,0,0.4,0.1,0.4,0.4
	C38,194.5,37.8,194.7,37.6,194.7z"/>
<path class="st13" d="M43.8,193.4h-2.6c-0.2,0-0.4-0.1-0.4-0.4c0-0.2,0.2-0.4,0.4-0.4h2.6c0.2,0,0.4,0.1,0.4,0.4
	C44.2,193.2,44,193.4,43.8,193.4z"/>
<path class="st13" d="M35.8,194.7h-2.6c-0.2,0-0.4-0.1-0.4-0.4c0-0.2,0.2-0.4,0.4-0.4h2.6c0.2,0,0.4,0.1,0.4,0.4
	C36.2,194.5,36,194.7,35.8,194.7z"/>
<path class="st13" d="M39.6,196h-4.7c-0.2,0-0.4-0.1-0.4-0.4c0-0.2,0.2-0.4,0.4-0.4h4.7c0.2,0,0.4,0.1,0.4,0.4
	C39.9,195.8,39.8,196,39.6,196z"/>
<path class="st13" d="M33.4,196h-0.2c-0.2,0-0.4-0.1-0.4-0.4c0-0.2,0.2-0.4,0.4-0.4h0.2c0.2,0,0.4,0.1,0.4,0.4
	C33.8,195.8,33.6,196,33.4,196z"/>
<path class="st13" d="M43.8,197.3h-4.7c-0.2,0-0.4-0.1-0.4-0.4c0-0.2,0.2-0.4,0.4-0.4h4.7c0.2,0,0.4,0.1,0.4,0.4
	C44.2,197.1,44,197.3,43.8,197.3z"/>
<path class="st13" d="M37.6,197.3h-0.2c-0.2,0-0.4-0.1-0.4-0.4c0-0.2,0.2-0.4,0.4-0.4h0.2c0.2,0,0.4,0.1,0.4,0.4
	C38,197.1,37.8,197.3,37.6,197.3z"/>
<path class="st13" d="M43.8,196h-2.6c-0.2,0-0.4-0.1-0.4-0.4c0-0.2,0.2-0.4,0.4-0.4h2.6c0.2,0,0.4,0.1,0.4,0.4
	C44.2,195.8,44,196,43.8,196z"/>
<path class="st13" d="M35.8,197.3h-2.6c-0.2,0-0.4-0.1-0.4-0.4c0-0.2,0.2-0.4,0.4-0.4h2.6c0.2,0,0.4,0.1,0.4,0.4
	C36.2,197.1,36,197.3,35.8,197.3z"/>
<path class="st13" d="M84.2,193.4h-4.7c-0.2,0-0.4-0.1-0.4-0.4c0-0.2,0.2-0.4,0.4-0.4h4.7c0.2,0,0.4,0.1,0.4,0.4
	C84.6,193.2,84.5,193.4,84.2,193.4z"/>
<path class="st13" d="M78.1,193.4h-0.2c-0.2,0-0.4-0.1-0.4-0.4c0-0.2,0.2-0.4,0.4-0.4h0.2c0.2,0,0.4,0.1,0.4,0.4
	C78.5,193.2,78.3,193.4,78.1,193.4z"/>
<path class="st13" d="M88.5,194.7h-4.7c-0.2,0-0.4-0.1-0.4-0.4c0-0.2,0.2-0.4,0.4-0.4h4.7c0.2,0,0.4,0.1,0.4,0.4
	C88.8,194.5,88.7,194.7,88.5,194.7z"/>
<path class="st13" d="M82.3,194.7h-0.2c-0.2,0-0.4-0.1-0.4-0.4c0-0.2,0.2-0.4,0.4-0.4h0.2c0.2,0,0.4,0.1,0.4,0.4
	C82.7,194.5,82.5,194.7,82.3,194.7z"/>
<path class="st13" d="M88.5,193.4h-2.6c-0.2,0-0.4-0.1-0.4-0.4c0-0.2,0.2-0.4,0.4-0.4h2.6c0.2,0,0.4,0.1,0.4,0.4
	C88.8,193.2,88.7,193.4,88.5,193.4z"/>
<path class="st13" d="M80.6,194.7H78c-0.2,0-0.4-0.1-0.4-0.4c0-0.2,0.2-0.4,0.4-0.4h2.6c0.2,0,0.4,0.1,0.4,0.4
	C81,194.5,80.7,194.7,80.6,194.7z"/>
<path class="st13" d="M84.2,196h-4.7c-0.2,0-0.4-0.1-0.4-0.4c0-0.2,0.2-0.4,0.4-0.4h4.7c0.2,0,0.4,0.1,0.4,0.4
	C84.6,195.8,84.5,196,84.2,196z"/>
<path class="st13" d="M78.1,196h-0.2c-0.2,0-0.4-0.1-0.4-0.4c0-0.2,0.2-0.4,0.4-0.4h0.2c0.2,0,0.4,0.1,0.4,0.4
	C78.5,195.8,78.3,196,78.1,196z"/>
<path class="st13" d="M88.5,197.3h-4.7c-0.2,0-0.4-0.1-0.4-0.4c0-0.2,0.2-0.4,0.4-0.4h4.7c0.2,0,0.4,0.1,0.4,0.4
	C88.8,197.1,88.7,197.3,88.5,197.3z"/>
<path class="st13" d="M82.3,197.3h-0.2c-0.2,0-0.4-0.1-0.4-0.4c0-0.2,0.2-0.4,0.4-0.4h0.2c0.2,0,0.4,0.1,0.4,0.4
	C82.7,197.1,82.5,197.3,82.3,197.3z"/>
<path class="st13" d="M88.5,196h-2.6c-0.2,0-0.4-0.1-0.4-0.4c0-0.2,0.2-0.4,0.4-0.4h2.6c0.2,0,0.4,0.1,0.4,0.4
	C88.8,195.8,88.7,196,88.5,196z"/>
<path class="st13" d="M80.6,197.3H78c-0.2,0-0.4-0.1-0.4-0.4c0-0.2,0.2-0.4,0.4-0.4h2.6c0.2,0,0.4,0.1,0.4,0.4
	C81,197.1,80.7,197.3,80.6,197.3z"/>
<path class="st13" d="M70.6,193.4h-4.7c-0.2,0-0.4-0.1-0.4-0.4c0-0.2,0.2-0.4,0.4-0.4h4.7c0.2,0,0.4,0.1,0.4,0.4
	C71,193.2,70.8,193.4,70.6,193.4z"/>
<path class="st13" d="M64.4,193.4h-0.2c-0.2,0-0.4-0.1-0.4-0.4c0-0.2,0.2-0.4,0.4-0.4h0.2c0.2,0,0.4,0.1,0.4,0.4
	C64.8,193.2,64.6,193.4,64.4,193.4z"/>
<path class="st13" d="M74.8,194.7h-4.7c-0.2,0-0.4-0.1-0.4-0.4c0-0.2,0.2-0.4,0.4-0.4h4.7c0.2,0,0.4,0.1,0.4,0.4
	C75.2,194.5,75,194.7,74.8,194.7z"/>
<path class="st13" d="M68.6,194.7h-0.2c-0.2,0-0.4-0.1-0.4-0.4c0-0.2,0.2-0.4,0.4-0.4h0.2c0.2,0,0.4,0.1,0.4,0.4
	C69,194.5,68.8,194.7,68.6,194.7z"/>
<path class="st13" d="M74.8,193.4h-2.6c-0.2,0-0.4-0.1-0.4-0.4c0-0.2,0.2-0.4,0.4-0.4h2.6c0.2,0,0.4,0.1,0.4,0.4
	C75.2,193.2,75,193.4,74.8,193.4z"/>
<path class="st13" d="M66.8,194.7h-2.6c-0.2,0-0.4-0.1-0.4-0.4c0-0.2,0.2-0.4,0.4-0.4h2.6c0.2,0,0.4,0.1,0.4,0.4
	C67.2,194.5,67,194.7,66.8,194.7z"/>
<path class="st13" d="M70.6,196h-4.7c-0.2,0-0.4-0.1-0.4-0.4c0-0.2,0.2-0.4,0.4-0.4h4.7c0.2,0,0.4,0.1,0.4,0.4
	C71,195.8,70.8,196,70.6,196z"/>
<path class="st13" d="M64.4,196h-0.2c-0.2,0-0.4-0.1-0.4-0.4c0-0.2,0.2-0.4,0.4-0.4h0.2c0.2,0,0.4,0.1,0.4,0.4
	C64.8,195.8,64.6,196,64.4,196z"/>
<path class="st13" d="M74.8,197.3h-4.7c-0.2,0-0.4-0.1-0.4-0.4c0-0.2,0.2-0.4,0.4-0.4h4.7c0.2,0,0.4,0.1,0.4,0.4
	C75.2,197.1,75,197.3,74.8,197.3z"/>
<path class="st13" d="M68.6,197.3h-0.2c-0.2,0-0.4-0.1-0.4-0.4c0-0.2,0.2-0.4,0.4-0.4h0.2c0.2,0,0.4,0.1,0.4,0.4
	C69,197.1,68.8,197.3,68.6,197.3z"/>
<path class="st13" d="M74.8,196h-2.6c-0.2,0-0.4-0.1-0.4-0.4c0-0.2,0.2-0.4,0.4-0.4h2.6c0.2,0,0.4,0.1,0.4,0.4
	C75.2,195.8,75,196,74.8,196z"/>
<path class="st13" d="M66.8,197.3h-2.6c-0.2,0-0.4-0.1-0.4-0.4c0-0.2,0.2-0.4,0.4-0.4h2.6c0.2,0,0.4,0.1,0.4,0.4
	C67.2,197.1,67,197.3,66.8,197.3z"/>
<path class="st13" d="M95.8,159.2H26.2c-0.4,0-0.7,0.3-0.7,0.7v2.3c0,0.4,0.3,0.7,0.7,0.7h69.6c0.4,0,0.7-0.3,0.7-0.7v-2.3
	C96.5,159.5,96.2,159.2,95.8,159.2z"/>
<path class="st13" d="M95.8,199.1H26.2c-0.4,0-0.7,0.3-0.7,0.7v2.3c0,0.4,0.3,0.7,0.7,0.7h69.6c0.4,0,0.7-0.3,0.7-0.7v-2.3
	C96.5,199.5,96.2,199.1,95.8,199.1z"/>
<path class="st15" d="M365.1,265.8c0,0,0.1,0,0.1,0c0.5-0.1,0.9-0.6,0.8-1.1l-4.6-35.7c-0.1-0.5-0.5-0.9-1-0.8
	c-0.5,0.1-0.9,0.6-0.8,1.1l4.6,35.7C364.3,265.4,364.7,265.8,365.1,265.8z"/>
<path class="st15" d="M379.7,265.8c0,0,0.1,0,0.1,0c0.5-0.1,0.9-0.6,0.8-1.1l-4.6-35.7c-0.1-0.5-0.5-0.9-1-0.8
	c-0.5,0.1-0.9,0.6-0.8,1.1l4.6,35.7C378.8,265.4,379.2,265.8,379.7,265.8z"/>
<path class="st15" d="M364.3,257.9h14.6v2h-14.6V257.9z"/>
<path class="st15" d="M363.4,250.6H378v2h-14.6V250.6z"/>
<path class="st15" d="M362.4,243.4H377v2h-14.6V243.4z"/>
<path class="st15" d="M361.5,236.2h14.6v2h-14.6V236.2z"/>
<path class="st16" d="M360.6,229h14.6v2h-14.6V229z"/>
<path class="st17" d="M370.1,265.8c0.5,0,0.8-0.3,0.9-0.8l4.6-35.7c0.1-0.5-0.3-1-0.8-1.1c-0.5-0.1-1,0.3-1,0.8l-4.6,35.7
	c-0.1,0.5,0.3,1,0.8,1.1C370,265.7,370.1,265.8,370.1,265.8z"/>
<path class="st17" d="M355.5,265.8c0.5,0,0.8-0.3,0.9-0.8l4.6-35.7c0.1-0.5-0.3-1-0.8-1.1c-0.5-0.1-1,0.3-1,0.8l-4.6,35.7
	c-0.1,0.5,0.3,1,0.8,1.1C355.5,265.7,355.5,265.8,355.5,265.8z"/>
<path class="st17" d="M356.3,257.9h14.6v2h-14.6V257.9z"/>
<path class="st17" d="M357.2,250.6h14.6v2h-14.6V250.6z"/>
<path class="st17" d="M358.1,243.4h14.6v2h-14.6V243.4z"/>
<path class="st17" d="M359.1,236.2h14.6v2h-14.6V236.2z"/>
<path class="st18" d="M360,229h14.6v2H360V229z"/>
<path class="st15" d="M359.9,232.3H376c0.9,0,1.6-0.7,1.6-1.7v-3.7c0-0.9-0.7-1.7-1.6-1.7h-16.1c-0.9,0-1.6,0.7-1.6,1.7v3.7
	C358.3,231.5,359.1,232.3,359.9,232.3z"/>
<path class="st17" d="M358.3,232.3h16.1c0.9,0,1.6-0.7,1.6-1.7v-3.7c0-0.9-0.7-1.7-1.6-1.7h-16.1c-0.9,0-1.6,0.7-1.6,1.7v3.7
	C356.7,231.5,357.4,232.3,358.3,232.3z"/>
<path class="st19" d="M392.2,205.2c2.9,0,5.2-0.9,6.8-2c0.2-0.1,0.3-0.2,0.5-0.4c0.3-0.2,0.5-0.4,0.8-0.7c0.3-0.3,0.6-0.6,0.9-0.9
	c0.1-0.1,0.1-0.1,0.1-0.1c1.2-1.3,1.8-2.2,2.1-3.5c0.3-1.3,0.4-2.3,0.4-2.3s3.4-10,1.1-9.2c-2.4,0.8-5.6,4.2-8.1,7.6c0,0,0,0,0,0.1
	c-0.1,0.2-0.3,0.4-0.4,0.6c-0.1,0.1-0.1,0.2-0.3,0.4c-1.3,1.7-2.2,3.1-2.6,3.2c-0.6,0.2-4.7-9.3-5.1-9.5c0,0-2.1,0.7-2.3,1.6
	C385.7,192.8,389.1,205.2,392.2,205.2z"/>
<path class="st20" d="M392.1,197.1c0.1,0.4,0.1,1.2,0.3,1.5c0.2,0.4,0.6,0.7,1,0.7c0.5-0.1,1.1-0.4,1.5-0.8c4.5-4.4,4.1-7.4,3.9-7.4
	c-0.1,0.2-2.3,3.2-2.4,3.3c-0.1,0.1-0.1,0.2-0.3,0.4c-1.3,1.7-2.2,3.1-2.6,3.2C393.2,198.1,392,195.9,392.1,197.1z"/>
<path class="st19" d="M399.9,258.7c0.3-0.4,3.2,0.4,3.2,0.6c0,0.6-0.1,2.8-0.4,3.1c-0.3,0.2-3.2-0.1-3.2-0.7
	C399.4,261.1,399.5,259,399.9,258.7z"/>
<path class="st19" d="M423.5,257.1c0.1-0.4,2.8-1.7,2.9-1.6c0.3,0.4,1.5,2.4,1.3,2.8c-0.1,0.4-2.7,2-3,1.5
	C424.6,259.3,423.5,257.5,423.5,257.1z"/>
<path class="st21" d="M410,218.8c-0.2,0.6-0.4,1.1-0.6,1.7c-1.5,4-3.2,8.7-3.4,11.2c-0.3,4.6-2.3,15.7-2.3,21c0,4.4-1.1,7.4-1,8.4
	l-3.7-0.8c-1.4-6.3-2.9-21.6-2.9-28.5c0-6.9,0.5-18.4,2.9-23.9c2.2-5.2,11.2,4.2,12.2,5.5C411.6,214,410.9,216.1,410,218.8z"/>
<path class="st22" d="M409.9,218.7c-0.1-0.1-0.2-0.1-0.3,0c-0.9-1.3-2.8-2.5-3.9-0.7c-0.6,1.1,0.1,2.3,0.1,3.4
	c0.1,2.2-1.1,4.2-2,6.2c-2.8,6.9-0.5,14.6-1.4,21.8c-0.4,3.8-2.1,7.4-1.8,11.4c0.9,0.4,2.2,0.8,2.8,0.4c0.3-1.5,2-24.8,2.4-29.3
	c0.2-2.5,2-7.1,3.4-11.2c0.2-0.6,0.4-1.2,0.6-1.7C410,218.8,409.9,218.8,409.9,218.7z"/>
<path class="st21" d="M408.5,211.5c0,0,0,0.2,0,0.7c0.1,2.8,0.3,13.7,1.5,24.4c0.7,6.8,8.8,18.1,14.2,22.6l3-1.7l0.7-0.4
	c0,0-3.3-6.5-4.9-9.1c-4.2-6.9-3.3-10.9-3.3-15.5c-0.1-9.4,2.2-14-0.1-21c-0.1-0.3-0.2-0.7-0.3-0.9c-0.5-1.2-1-2.4-1.8-3.7
	c-0.1-0.2-0.3-0.3-0.5-0.4c-0.3-0.1-0.6-0.1-0.9-0.1c-1.7,0.2-4.3,1.7-6.6,4.4C409,210.9,408.8,211.2,408.5,211.5z"/>
<path class="st22" d="M417.4,237.8c0.8,3.9,1.8,8,3.4,11.6c1.4,3.2,3.9,5.6,6.3,7.9l0.7-0.4c0,0-3.3-6.5-4.9-9.1
	c-4.2-6.9-3.3-10.9-3.3-15.5c-0.1-9.4,2.2-14-0.1-21c-0.7,0.1-1.3,0.4-1.8,0.6c-0.1,0-0.1,0.1-0.1,0.1c-0.1,0.1-0.1,0.2-0.1,0.4
	c1.2,4.5,0.8,8.7,0,13.3C416.7,229.8,416.6,233.8,417.4,237.8z"/>
<path class="st23" d="M402.8,261.6c0,0,0.9,2.3-0.3,3.8c0,0-6.8-1.1-8.7-1.9c0,0,0.5-2.8,2.2-2.7c1.8,0.1,3.5,0.6,3.5,0.6
	S401.2,262.8,402.8,261.6z"/>
<path class="st23" d="M427.6,257.4c0,0,2.1,1.2,2,3.1c0,0-5.9,3.8-7.8,4.5c0,0-1.3-2.5,0.1-3.6c1.4-1.1,3-2,3-2
	S427.2,259.5,427.6,257.4z"/>
<path class="st24" d="M404,187.6c0.2,2.1,0.3,3.9,0.3,3.9s2.2,0.9,2.3,2.3c0.1,0.7-0.2,1.5-0.7,2.3c-0.6,1.2-1.5,2.4-2.1,3.6
	c-4.2-0.7-6.8-4.4-7.2-7.6c1.4-3.9,3.3-9,5.2-10.7C403,180.3,403.7,184.3,404,187.6z"/>
<path class="st24" d="M398.5,207.8c0,0.9,18.4,5.4,20.3,5c0.7-0.1,1.2-0.4,1.4-0.7c0.3-0.8-0.9-8.9-0.7-14.3c0-1,0.1-2.1,0.1-3.1
	c0-5.4-0.3-10.5-1.5-11.4c-0.3-0.2-0.5-0.4-0.9-0.7c-0.5-0.4-1.1-0.7-1.7-1.1c-1-0.6-2.2-1.1-3.5-1.5c-2-0.6-4.5-0.8-7-0.1
	c-0.6,0.1-1.3,0.4-2,0.7c-0.1,0.1-0.3,0.1-0.5,0.2c-2.2,0.9-1.9,6.2-1.6,10.6c0.1,2,0.3,3.9,0.3,5c0,0.4-0.1,0.8-0.1,1.2
	C400.5,200.8,398.8,205.5,398.5,207.8z"/>
<path class="st19" d="M406.7,177.4v2.3c0,0-0.5,1,0,1.1c1.1,0.2,2.8-1.1,2.8-1.1v-3.6L406.7,177.4z"/>
<path class="st20" d="M409.5,177.9v-1.6c0,0-1.2,1.7-2.6,1.7C406.9,178.1,408.4,178.7,409.5,177.9z"/>
<path class="st19" d="M405.2,172.2c0,0-0.5,2.4-0.3,4.5c0.1,1.5,3,2.7,4.5,0.1c1.5-2.5,0.3-5.5,0.3-5.5L405.2,172.2z"/>
<path class="st21" d="M421,213.7c-0.5,0.3-13.2-1.8-13.2-1.8c-0.9-3.1-3.6-15.9-3.5-17.1c0.5-8,7.4-14.5,7.4-14.5
	c2.7-0.1,6.1,3.3,6.1,3.3c-0.8-1.7-4.3-1.6-4.9-0.7c-1.1,1.9-0.8,7.8,0.2,10.2c3,7.1,6,7.4,6,7.4L421,213.7z"/>
<path class="st21" d="M405.7,197.8c0.4,1.1-5,12.2-5,12.2s-3.8-0.8-3.8-0.9c0,0,1.6-4.6,2.8-7.9c0.3-0.7,0.5-1.2,0.6-1.8v-0.1
	c0.2-0.7,0.4-1.2,0.5-1.7c0.1-0.5,0.2-0.9,0.1-1.2c0.1-1.2-0.9-3.3-0.9-5.4c-0.1-3.6,1.1-9.8,2.2-10.2c0.1-0.1,0.2-0.1,0.3-0.1
	c0.1,0,0.1,0,0.1-0.1c0.7-0.3,1.3-0.4,2-0.7C404.5,180,403.2,190.9,405.7,197.8z"/>
<path class="st25" d="M406.3,172.4c0.5-0.1,1.1-0.3,1.6-0.4c0.5-0.1,0.8,0,1.2,0.1c0,0.4,0.1,0.9,0.1,1.1c0,0.7-0.2,1.6,0.2,2.3
	c0.3,0.4,0.7,0.6,1.1,0.4c0.3-0.1,0.3-0.4,0.3-0.7c0.4-1.2,0.4-2.6-0.2-3.6c-0.1-1.1-2.3-1.5-3-1.6c-0.9-0.1-3.6-0.4-3.3,1.2
	C403.8,172.3,405.5,172.5,406.3,172.4z"/>
<path class="st26" d="M406.6,196.4c-0.3,1,0.2,2,1.1,2.3c0.9,0.3,1.9-0.2,2.2-1.2c0.3-1-0.2-2-1.1-2.3
	C407.9,194.9,406.9,195.5,406.6,196.4z M407.2,196.6c0.2-0.7,0.8-1,1.4-0.8c0.6,0.2,0.9,0.9,0.7,1.5c-0.2,0.7-0.8,1-1.4,0.8
	C407.3,197.9,407,197.3,407.2,196.6z"/>
<path class="st27" d="M400.4,210.7l7.2,2.4c0.7,0.2,1.5-0.2,1.8-1l3.4-12c0.2-0.8-0.2-1.6-0.9-1.9l-7.2-2.4c-0.7-0.2-1.5,0.2-1.8,1
	l-3.4,12C399.2,209.6,399.6,210.5,400.4,210.7z"/>
<path class="st19" d="M418.1,210.2c-0.1,0-0.3,0-0.5-0.1c-5.3-0.7-14.6-5.1-14.6-5.1c0-0.4-0.1-2.4-0.1-2.4c0.2,0,8.8,0.2,12.4,0.3
	c0.3,0,0.5,0,0.7,0c0.3,0.1,0.6,0.1,0.8,0h0.1c0.5-0.1-0.1-4.8-1-6.7c-0.4-0.8-0.9-1.6-1.2-2.3c-0.9-1.7-1.4-3.6-1.1-5.6
	c0.2-1.9,0.9-3.3,1.7-4.3c1-1.5,3.1-1.3,4,0.2c1.8,2.9,2.6,4.4,4.5,9.4v0.1C426.2,199.8,423.1,210.8,418.1,210.2z"/>
<path class="st20" d="M423.4,192c0,0-2.3-1.5-1.6,1c0.4,3.4,0.6,8.4-0.4,11.7c-0.7,2.1-2,3.9-4.3,3.4c-1.6-0.3-7-1-10.3-1.8
	c-0.9-0.2-2.8-1.2-3.8-1.3v0.1c0,0,9.2,4.4,14.6,5.1c0.1,0,0.3,0.1,0.5,0.1C423.1,210.8,426.5,200.3,423.4,192z"/>
<path class="st24" d="M423.9,191.9c-0.2-0.8-1.5-6.1-4.3-8.4c-1.3-1.1-4.9-2.6-6.3-1c-3,3.5-0.8,9.5,1.3,13.7
	C418,196.4,421.3,194.7,423.9,191.9z"/>
<path class="st19" d="M400.5,203.8c-0.1-0.2-0.1-0.5,0.1-0.7l0.1-0.1c-0.1-0.1-0.2-0.4-0.1-0.6c0.1-0.1,0.3-0.3,0.5-0.3
	c0-0.1,0-0.1,0.1-0.2c0.3-0.8,1.5,0.1,1.9,0.4c0.1,0.1,0.2,0.2,0.1,0.3l0.1,0.1c0.3,0.5,0.3,1.4,0.1,1.9c-0.3,0.7-0.9,0.9-1.6,0.7
	c-0.5-0.1-1.4-0.4-1.4-1C400.3,204.1,400.4,203.9,400.5,203.8z"/>
<path class="st19" d="M401.7,200.8c0.5-0.1,0.9-0.1,1.3,0.3c0.3,0.4,0.7,1.3,0.9,1.8c0.2,0.1-0.1,0.1-0.4,0.1
	c-0.4,0.1-0.9-0.1-0.9-0.6c0-0.2,0.1-0.4-0.1-0.6c-0.2-0.2-0.5-0.3-0.7-0.4C401.4,201.4,401.3,200.8,401.7,200.8z"/>
<path class="st19" d="M380.9,187.8c0.1-0.2,0.2-0.4,0.4-0.4c-0.2-0.3-0.3-0.6-0.3-0.9c0.1-0.4,0.3-0.4,0.7-0.4c0.1,0,0.1,0,0.2,0
	v-0.1c0-0.1,0.1-0.1,0.2-0.2c0.5-0.1,1.1,0.1,1.6,0.4c1.4,0.7,2.1,0.7,2.6,0.5c-0.3-0.4-0.4-0.5-0.7-0.6c-0.1,0-0.3-0.1-0.4-0.4
	c-0.1-0.3,0.1-0.4,0.3-0.4c0.3-0.1,0.9,0,1.2,0c0.2,0,0.4,0.1,0.5,0.4c1.4,2,2,4.4,1.6,5.3c-0.1,0.4-2.6-0.4-2.5-0.9
	c-1.4,0.2-3.8,0-3.9-0.9C381.5,189.1,380.6,188.6,380.9,187.8z"/>
<path class="st19" d="M31.6,244.5c0,0,1.3,2.2,1.9,2.9c0.6,0.7,0.1,1.2,0.1,1.2l-1.3-0.4l-1.5-1.3l-1.8-1.5L31.6,244.5z"/>
<path class="st19" d="M3.2,241.1l2.3,1.3c0,0,1.6-2.5,2.9-4.7s10.2-12.4,10.2-12.4c2.9-4.6-1.1-13-1.1-13l-6.5,2.3
	c0,0,1.5,4.5,1.4,4.7c-0.2,0.3-0.5,0.7-0.7,1c-1,1.5-2.2,3.5-3.1,6.5c-0.5,1.7-2.7,7.2-4.1,10.9C3.7,239.7,3.2,241.1,3.2,241.1z"/>
<path class="st19" d="M22.7,213c0,0,0.6,7.8,1,9.7c0.1,0.2,0.1,0.5,0.1,0.8v0.1c0.2,1.7,1.8,6.7,4.6,18.1c0,0.1,0.1,0.2,0.1,0.3
	c0.5,2.2,0.7,3.8,0.7,3.8l2.5-1.2c0,0-0.3-2.5-0.5-5.1c-0.2-2.6,0.2-16.7,0.2-16.7c-0.7-5.5-5.2-16.2-5.2-16.2L22.7,213z"/>
<path class="st28" d="M4.5,237.7c0.1,0.1,0.5,0.1,0.5-0.1c1.2-3.1,2.5-6.1,4.2-9c1.5-2.4,2.9-4.7,3.8-7.4c0.1-0.1,0.1-0.2,0.1-0.4
	c0-0.3-0.3-0.4-0.5-0.4c-0.4-0.1-0.7-0.2-1.1-0.1c-1,1.5-2.2,3.5-3.1,6.5C8.1,228.7,6,234.2,4.5,237.7z"/>
<path class="st28" d="M23.8,223.5c0.2,1.7,1.8,6.7,4.6,18.1c0,0.1,0.1,0.2,0.1,0.3c0.1-0.1,0.3-0.9,0.3-1.1
	c0.4-5.3-1.9-10.5-1.5-15.8c0.6-0.8,1.3-1.5,2.1-2.1c0.3-0.3-0.1-0.9-0.4-0.6c-0.5,0.4-1.1,0.9-1.5,1.5c0.1-0.3,0.1-0.7,0.2-0.9
	c0.1-0.2-0.1-0.6-0.4-0.5C26.2,222.7,24.8,222.9,23.8,223.5z"/>
<path class="st21" d="M9.1,220.3c0,0,1.3,0.8,3.5,1.7c5.4,2.2,15.8,5,23.5-1.7c0,0-5.4-0.5-4.3-7.9c1.3-9.5-2.1-24.2-7.2-26.1
	c-5.2-2-12.2,1.7-12.2,1.7s-1.5,0.9-2.7,3.1c-0.9,1.5-1.6,3.7-1.6,6.6C8.2,203.6,13,207.8,9.1,220.3z"/>
<path class="st22" d="M9.1,220.3c0,0,1.3,0.8,3.5,1.7c0.2-0.4,0.3-0.9,0.5-1.2c0.5-1.3,1-2.7,1.3-4.1c0.5-2.4,0.2-4.8-0.5-7.2
	c-1.5-5.2-3.7-14.9,1.2-20.4c0.2-0.2-2.7-1.3-3.5-1.5c-0.9,1.5-3.7,5.9-3.4,10.2C8.6,203.5,13,207.8,9.1,220.3z"/>
<path class="st23" d="M28.8,243.4c0,0-0.6,0.5-0.5,1.9c0,0,2.4,1.4,3.7,4.3c0.3,0.7,2.1,0.1,2.9,0.1c0,0,0.7-0.4,0.2-1.2
	c-0.2-0.4-1.2-0.8-1.5-1.1C33.2,248.5,31.4,246.9,28.8,243.4z"/>
<path class="st23" d="M28.4,245.3l0.4,4.4l0.7,0.1l0.1-4.2L28.4,245.3z"/>
<path class="st19" d="M5.5,242.4c0,0-0.5,2.5-0.5,3.5c0,1-0.7,0.9-0.7,0.9l-0.7-1.3l-0.1-2L3.2,241L5.5,242.4z"/>
<path class="st23" d="M3.8,239.6c0,0-0.5-0.2-1.3,0.9c0,0,0.8,2.8-0.1,5.9c-0.2,0.7,1.5,1.7,1.9,2.3c0,0,0.7,0.3,0.9-0.7
	c0.1-0.4-0.4-1.5-0.3-1.9C4,246.4,3.4,244,3.8,239.6z"/>
<path class="st23" d="M2.5,240.4L0,243.9l0.5,0.5l2.7-2.9L2.5,240.4z"/>
<path class="st19" d="M35,186.6c-2.5,0-4.5-0.6-5.8-1.5c-0.2-0.1-0.3-0.2-0.5-0.3c-0.2-0.2-0.5-0.3-0.7-0.5
	c-0.3-0.2-0.5-0.4-0.8-0.6c-0.1-0.1-0.1-0.1-0.1-0.1c-1-0.9-1.5-1.6-1.8-2.5c-0.3-0.9-0.3-1.6-0.3-1.6s-2.9-7.3-0.9-6.7
	c2,0.6,4.8,3,6.9,5.5c0,0,0,0,0,0.1c0.1,0.2,0.2,0.3,0.3,0.4c0.1,0.1,0.1,0.2,0.2,0.3c1.1,1.3,1.9,2.2,2.2,2.3
	c0.5,0.2,4-6.7,4.3-6.8c0,0,1.8,0.5,2,1.2C40.5,177.6,37.6,186.6,35,186.6z"/>
<path class="st19" d="M44.4,173.9c-0.1-0.2-0.2-0.3-0.3-0.3c0.2-0.2,0.3-0.4,0.2-0.7c-0.1-0.3-0.3-0.3-0.6-0.3c-0.1,0-0.1,0-0.2,0
	v-0.1c0-0.1-0.1-0.1-0.2-0.2c-0.4-0.1-0.9,0.1-1.3,0.3c-1.1,0.5-1.7,0.5-2.2,0.4c0.3-0.3,0.3-0.4,0.6-0.4c0.1,0,0.3-0.1,0.3-0.3
	c0.1-0.2-0.1-0.3-0.2-0.3c-0.2-0.1-0.7,0-1,0c-0.2,0-0.3,0.1-0.4,0.3c-1.2,1.5-1.6,3.3-1.3,4c0.1,0.3,2.1-0.3,2-0.7
	c1.2,0.2,3.1,0,3.2-0.7C43.9,174.8,44.6,174.4,44.4,173.9z"/>
<path class="st29" d="M22.6,176.3c0,0-0.1,0.7,0.1,1.8c0.2,1.2,0.6,3,1.8,4.4c1.2,1.5,5.4-5.8,4.1-7.5c-1.8-2.8-4.2-6.3-6-7.1
	C20.9,167,22.6,176.3,22.6,176.3z"/>
<path class="st30" d="M22.9,168c0,0,1.2,0.7,1.5,2.6c0.3,2,0.6,7.4,0.1,9.4c-0.3,1.6-0.5,1.9-0.5,1.9l-1.1-1.7c0,0-1.1-1.9-0.9-2.3
	C22.3,177.5,22.9,168,22.9,168z"/>
<path class="st24" d="M30,189.9c0,0-13.5,5.5-21,0.9c0,0,4.7-5.2,4.5-10.6c0-0.2,0-0.5-0.1-0.7c-0.1-0.4-0.1-0.9-0.2-1.5
	c-1-5.5-3.5-12.3,7.1-11.7c0,0,6,3.3,5.9,6.8c-0.1,3.6-2.6,4.2-0.7,8.3C27.5,185.7,30,189.9,30,189.9z"/>
<path class="st19" d="M21.5,164.9v2c0,0,0.5,1,0,1.1c-1.1,0.2-2.7-1.7-2.7-1.7v-2.8L21.5,164.9z"/>
<path class="st28" d="M18.8,165.4v-1.6c0,0,1.4,1.5,2.7,1.5C21.5,165.4,19.9,166.2,18.8,165.4z"/>
<path class="st19" d="M22.2,158.9c0,0,1,2.2,1.3,4.3c0.2,1.5-2.3,3.4-4.3,1.3c-2-2-1.5-5.2-1.5-5.2L22.2,158.9z"/>
<path class="st31" d="M23.1,158.8c-0.1-0.1-0.3-0.1-0.5-0.2c-0.4-0.3-0.3-0.4-0.5-0.7c-0.2-0.2-0.4-0.4-0.7-0.5
	c-0.7-0.3-1.6-0.1-2.3,0c-0.2,0.1-0.3,0.3-0.2,0.5c-0.7,0.1-1.5,0.9-1.8,1.5c-0.6,1-0.7,2.8-0.1,3.8c0.5,0.8,1.4,1.5,1.9,0.4
	c0.4-0.8,0.3-1.6,0.3-2.5c0-0.3,0-0.6,0-0.9c0.4-0.6,0.9-1,1.5-1c0.1,0.1,0.3,0.4,0.4,0.6c0.2,0.2,0.5,0.4,0.7,0.6
	c0.5,0.2,1.1,0.2,1.4-0.2C23.7,159.6,23.5,159.1,23.1,158.8z"/>
<path class="st28" d="M19.5,161.2c0,0-0.8-0.4-0.9,0.3c-0.1,0.7,0.4,1.1,0.7,1C19.7,162.4,19.7,161.5,19.5,161.2z"/>
<path class="st31" d="M9,164.9c0.5,2.5,4.1,4.4,6.2,2.9c1.3-1,1.9-2.8,1.9-4.5c0-0.9-0.2-1.9-0.1-2.8c0.3-1.7,1.3-1.8,2.1-2.9
	c0,0,0-0.1,0.1-0.1c0.1-0.1,0.1-0.2,0.1-0.4c-0.7-1.7-3.4-2.5-4.8-1.4c-0.9,0.7-1.3,1.9-1.5,3c-0.2,0.9-0.2,1.8-0.3,2.8
	c-0.1,0.7-0.1,1.6-0.3,2.2c-0.7,1.5-2.3,1-3,0.9C9.3,164.4,9,164.6,9,164.9z"/>
<path class="st32" d="M17.6,158.5c0.3-0.9,1.1-1.3,1.8-1.6c0.4-0.1,0.7,0.5,0.3,0.7c-0.6,0.2-1.2,0.5-1.5,1.2
	C18.1,159.2,17.5,159,17.6,158.5z"/>
<path class="st19" d="M6.1,187c2.3,3.6,12.6,0.2,12.6,0.2l-0.1-2c0,0-6.1,0.5-7.3-1.7c-0.2-0.4,0.4-5,1.5-6.1c0.5-0.5,1-1,1.5-1.5
	c1.1-1.1,1.9-2.5,2.2-4.1c0.3-1.5,0.1-2.8-0.3-3.9c-0.5-1.4-2.1-1.8-3.1-0.9c-2.1,1.8-5.4,6.5-5.4,6.6C4.7,177.9,3.7,183.4,6.1,187z
	"/>
<path class="st29" d="M12.9,178.4c0.5-0.5,3.4-3.6,3.8-6.7c0.2-1.4-0.2-4.8-1.8-5.2c-2.6-0.7-6,3.4-8.4,6.6
	C7.6,175.7,10,177.6,12.9,178.4z"/>
<path class="st19" d="M23.9,184.8c-0.4-0.1-0.9-0.2-1.4-0.1c-0.1,0-0.1,0-0.2,0c0-0.1,0.1-0.1,0.1-0.1c0.1-0.4,0.2-1-0.3-1.2
	c-0.5-0.2-0.7,0.4-0.9,0.7c-0.3,0.4-0.6,0.7-0.9,0.9c-0.4,0.1-0.8,0.2-1.2,0.3c-0.3,0.1-0.7,0.1-0.9,0.4c-0.1,0.2-0.1,0.7-0.1,1
	c0.1,0.4,0.3,0.5,0.7,0.7c0.2,0.1,0.5,0.2,0.7,0.2c0.5,0.1,0.9,0.2,1.4,0.1c0.1,0,0.2-0.1,0.3-0.1c0.4,0.2,0.9,0.2,1.3,0.1
	c0.2-0.1,0.3-0.3,0.2-0.4c0.1,0,0.2-0.1,0.3-0.1c0.1-0.1,0.1-0.2,0.1-0.3c0.1-0.1,0.2-0.1,0.2-0.2c0.3-0.3,0.3-0.7,0.2-0.9
	c0.4,0.2,0.8,0.6,1.1,0.9c0.2,0.2,0.4,0.1,0.5-0.1C25.6,185.8,24.5,185,23.9,184.8z"/>
</svg>
