<?xml version="1.0" encoding="utf-8"?>
<!-- Generator: Adobe Illustrator 24.2.0, SVG Export Plug-In . SVG Version: 6.00 Build 0)  -->
<svg version="1.1" id="Layer_1" xmlns="http://www.w3.org/2000/svg" xmlns:xlink="http://www.w3.org/1999/xlink" x="0px" y="0px"
	 viewBox="0 0 401 388" style="enable-background:new 0 0 401 388;" xml:space="preserve">
<style type="text/css">
	.st0{fill:#FFFFFF;stroke:#E7E7E7;stroke-width:1.0035;}
	.st1{fill:#E4E2E2;}
	.st2{fill:#EDEDED;}
	.st3{fill:#EDEDED;fill-opacity:0.5;}
	.st4{fill:none;stroke:#EFEFEF;stroke-width:1.0556;}
	.st5{fill:#2399F8;}
	.st6{fill:#8F8F8F;}
	.st7{fill:#FFFFFF;}
	.st8{fill:#26DDE1;}
	.st9{fill:#9990FC;}
	.st10{fill:#36E554;}
	.st11{fill:none;stroke:#36E554;stroke-width:24.9143;}
	.st12{fill:none;filter:url(#Adobe_OpacityMaskFilter);stroke:#36E554;stroke-width:24.9143;}
	.st13{mask:url(#mask0_1_);}
	.st14{fill:none;stroke:#FFFFFF;stroke-width:1.1864;}
	.st15{fill:#FFC1C5;}
	.st16{fill:#252525;}
	.st17{fill:#F8B5BA;}
	.st18{fill:#ACDCFF;}
	.st19{fill:#96CAF0;}
	.st20{fill:#441FD8;}
	.st21{fill:#32187C;}
	.st22{fill:#1F0D52;}
	.st23{fill:#FFAEA7;}
	.st24{fill:#EA7A70;}
	.st25{fill:#EDF3FF;}
</style>
<path class="st0" d="M64.6,222.7H391c5.3,0,9.5,4.3,9.5,9.5v144.8c0,5.3-4.3,9.5-9.5,9.5H64.6c-5.3,0-9.5-4.3-9.5-9.5V232.2
	C55.1,226.9,59.3,222.7,64.6,222.7z"/>
<path d="M83.7,288.3h-3.2v8.9h-1.3v-8.9H76v-1.1h7.7V288.3z M88.8,297.2c-0.1-0.1-0.1-0.4-0.2-0.8c-0.6,0.6-1.3,0.9-2.1,0.9
	c-0.7,0-1.3-0.2-1.8-0.6c-0.5-0.4-0.7-0.9-0.7-1.6c0-0.8,0.3-1.4,0.9-1.8c0.6-0.4,1.4-0.6,2.5-0.6h1.2v-0.6c0-0.4-0.1-0.8-0.4-1.1
	c-0.3-0.3-0.7-0.4-1.2-0.4c-0.5,0-0.8,0.1-1.1,0.3c-0.3,0.2-0.5,0.5-0.5,0.8h-1.3c0-0.4,0.1-0.7,0.4-1.1c0.3-0.3,0.6-0.6,1.1-0.8
	c0.5-0.2,0.9-0.3,1.5-0.3c0.9,0,1.5,0.2,2,0.6c0.5,0.4,0.7,1,0.8,1.8v3.4c0,0.7,0.1,1.2,0.3,1.6v0.1H88.8z M86.7,296.2
	c0.4,0,0.8-0.1,1.1-0.3c0.4-0.2,0.6-0.5,0.8-0.8v-1.5h-1c-1.6,0-2.3,0.5-2.3,1.4c0,0.4,0.1,0.7,0.4,0.9
	C85.9,296.1,86.3,296.2,86.7,296.2z M93,289.8l0,0.9c0.6-0.7,1.3-1.1,2.2-1.1c1.6,0,2.4,0.9,2.4,2.7v4.9h-1.3v-4.9
	c0-0.5-0.1-0.9-0.4-1.2c-0.2-0.3-0.6-0.4-1.1-0.4c-0.4,0-0.8,0.1-1.1,0.3c-0.3,0.2-0.6,0.5-0.7,0.9v5.3h-1.3v-7.4H93z M103.9,295.2
	c0-0.3-0.1-0.6-0.4-0.8c-0.3-0.2-0.7-0.4-1.4-0.5c-0.6-0.1-1.2-0.3-1.5-0.5c-0.4-0.2-0.7-0.4-0.8-0.7c-0.2-0.3-0.3-0.6-0.3-0.9
	c0-0.6,0.3-1.1,0.8-1.5c0.5-0.4,1.2-0.6,2-0.6c0.8,0,1.5,0.2,2,0.7c0.5,0.4,0.8,1,0.8,1.7h-1.3c0-0.3-0.1-0.6-0.4-0.9
	c-0.3-0.3-0.7-0.4-1.1-0.4c-0.5,0-0.8,0.1-1.1,0.3c-0.3,0.2-0.4,0.5-0.4,0.8c0,0.3,0.1,0.5,0.4,0.7c0.2,0.2,0.7,0.3,1.3,0.4
	c0.6,0.1,1.2,0.3,1.5,0.5c0.4,0.2,0.7,0.4,0.9,0.7c0.2,0.3,0.3,0.6,0.3,1c0,0.7-0.3,1.2-0.8,1.6c-0.5,0.4-1.2,0.6-2.1,0.6
	c-0.6,0-1.1-0.1-1.6-0.3c-0.5-0.2-0.8-0.5-1.1-0.9c-0.3-0.4-0.4-0.8-0.4-1.2h1.3c0,0.4,0.2,0.8,0.5,1c0.3,0.2,0.7,0.4,1.3,0.4
	c0.5,0,0.9-0.1,1.2-0.3C103.8,295.8,103.9,295.6,103.9,295.2z M108.2,297.2H107v-7.4h1.3V297.2z M106.8,287.8c0-0.2,0.1-0.4,0.2-0.5
	c0.1-0.1,0.3-0.2,0.6-0.2s0.4,0.1,0.6,0.2c0.1,0.1,0.2,0.3,0.2,0.5c0,0.2-0.1,0.4-0.2,0.5c-0.1,0.1-0.3,0.2-0.6,0.2
	s-0.4-0.1-0.6-0.2C106.9,288.2,106.8,288,106.8,287.8z M112,288v1.8h1.4v1H112v4.6c0,0.3,0.1,0.5,0.2,0.7c0.1,0.1,0.3,0.2,0.6,0.2
	c0.1,0,0.3,0,0.6-0.1v1c-0.3,0.1-0.7,0.1-1,0.1c-0.6,0-1-0.2-1.3-0.5c-0.3-0.3-0.4-0.8-0.4-1.5v-4.6h-1.4v-1h1.4V288H112z
	 M119.9,296.1h4.7v1.1h-6.1v-10h1.3V296.1z M125.6,293.4c0-0.7,0.1-1.4,0.4-2c0.3-0.6,0.7-1,1.2-1.3c0.5-0.3,1.1-0.5,1.7-0.5
	c1,0,1.8,0.3,2.4,1c0.6,0.7,0.9,1.6,0.9,2.8v0.1c0,0.7-0.1,1.4-0.4,1.9c-0.3,0.6-0.7,1-1.2,1.3c-0.5,0.3-1.1,0.5-1.8,0.5
	c-1,0-1.8-0.4-2.4-1C125.9,295.6,125.6,294.7,125.6,293.4L125.6,293.4z M126.8,293.6c0,0.8,0.2,1.5,0.6,2c0.4,0.5,0.9,0.7,1.5,0.7
	c0.6,0,1.2-0.3,1.5-0.8c0.4-0.5,0.6-1.2,0.6-2.1c0-0.8-0.2-1.5-0.6-2c-0.4-0.5-0.9-0.8-1.5-0.8c-0.6,0-1.1,0.2-1.5,0.7
	C127,291.9,126.8,292.6,126.8,293.6z M135.1,289.8l0,0.9c0.6-0.7,1.3-1.1,2.2-1.1c1.6,0,2.4,0.9,2.4,2.7v4.9h-1.3v-4.9
	c0-0.5-0.1-0.9-0.4-1.2c-0.2-0.3-0.6-0.4-1.1-0.4c-0.4,0-0.8,0.1-1.1,0.3c-0.3,0.2-0.6,0.5-0.7,0.9v5.3h-1.3v-7.4H135.1z
	 M141.4,293.4c0-1.1,0.3-2.1,0.8-2.7c0.5-0.7,1.2-1,2.1-1c0.9,0,1.6,0.3,2.1,0.9v-3.9h1.3v10.5h-1.2l-0.1-0.8
	c-0.5,0.6-1.2,0.9-2.1,0.9c-0.9,0-1.6-0.4-2.1-1.1C141.6,295.6,141.4,294.7,141.4,293.4L141.4,293.4z M142.6,293.6
	c0,0.8,0.2,1.5,0.5,2c0.3,0.5,0.8,0.7,1.4,0.7c0.8,0,1.4-0.4,1.8-1.1v-3.4c-0.4-0.7-1-1-1.7-1c-0.6,0-1.1,0.2-1.5,0.7
	C142.8,291.9,142.6,292.6,142.6,293.6z M149.3,293.4c0-0.7,0.1-1.4,0.4-2c0.3-0.6,0.7-1,1.2-1.3c0.5-0.3,1.1-0.5,1.8-0.5
	c1,0,1.8,0.3,2.4,1c0.6,0.7,0.9,1.6,0.9,2.8v0.1c0,0.7-0.1,1.4-0.4,1.9c-0.3,0.6-0.7,1-1.2,1.3c-0.5,0.3-1.1,0.5-1.8,0.5
	c-1,0-1.8-0.4-2.4-1C149.6,295.6,149.3,294.7,149.3,293.4L149.3,293.4z M150.5,293.6c0,0.8,0.2,1.5,0.6,2c0.4,0.5,0.9,0.7,1.5,0.7
	c0.6,0,1.2-0.3,1.5-0.8c0.4-0.5,0.6-1.2,0.6-2.1c0-0.8-0.2-1.5-0.6-2c-0.4-0.5-0.9-0.8-1.5-0.8c-0.6,0-1.1,0.2-1.5,0.7
	C150.7,291.9,150.5,292.6,150.5,293.6z M158.8,289.8l0,0.9c0.6-0.7,1.3-1.1,2.2-1.1c1.6,0,2.4,0.9,2.4,2.7v4.9h-1.3v-4.9
	c0-0.5-0.1-0.9-0.4-1.2c-0.2-0.3-0.6-0.4-1.1-0.4c-0.4,0-0.8,0.1-1.1,0.3c-0.3,0.2-0.6,0.5-0.7,0.9v5.3h-1.3v-7.4H158.8z"/>
<path d="M329.8,294.3c0-0.4-0.1-0.8-0.4-1.1c-0.3-0.3-0.8-0.5-1.5-0.8c-1-0.3-1.7-0.7-2.1-1.2c-0.4-0.5-0.7-1.1-0.7-1.8
	c0-0.8,0.2-1.4,0.7-1.8c0.4-0.5,1-0.8,1.8-0.9v-1.5h1v1.5c0.8,0.1,1.4,0.4,1.8,1c0.4,0.5,0.6,1.3,0.6,2.2h-1.3
	c0-0.6-0.2-1.2-0.5-1.5c-0.3-0.4-0.7-0.6-1.2-0.6c-0.5,0-1,0.1-1.2,0.4c-0.3,0.3-0.4,0.7-0.4,1.2c0,0.5,0.2,0.8,0.5,1.1
	c0.3,0.3,0.8,0.5,1.5,0.8c0.7,0.2,1.2,0.5,1.6,0.7c0.4,0.3,0.7,0.6,0.9,0.9c0.2,0.4,0.3,0.8,0.3,1.3c0,0.8-0.2,1.4-0.7,1.9
	c-0.5,0.5-1.1,0.8-1.9,0.8v1.3h-1V297c-0.9-0.1-1.5-0.4-2-0.9c-0.5-0.5-0.7-1.2-0.7-2.2h1.3c0,0.6,0.2,1.1,0.5,1.5
	c0.3,0.3,0.8,0.5,1.4,0.5c0.6,0,1.1-0.1,1.4-0.4C329.6,295.2,329.8,294.8,329.8,294.3z M338,293.5h1.4v1H338v2.3h-1.3v-2.3h-4.5
	v-0.7l4.5-6.9h1.4V293.5z M333.6,293.5h3.1v-4.9l-0.2,0.3L333.6,293.5z M345.8,293.5h1.4v1h-1.4v2.3h-1.3v-2.3H340v-0.7l4.5-6.9h1.4
	V293.5z M341.5,293.5h3.1v-4.9l-0.2,0.3L341.5,293.5z M348.5,298.9l-0.7-0.5c0.4-0.6,0.7-1.2,0.7-1.9v-1.1h1.2v1
	c0,0.5-0.1,0.9-0.3,1.4C349.1,298.2,348.8,298.6,348.5,298.9z M356.5,293.5h1.4v1h-1.4v2.3h-1.3v-2.3h-4.5v-0.7l4.5-6.9h1.4V293.5z
	 M352.1,293.5h3.1v-4.9l-0.2,0.3L352.1,293.5z M364,286.9v1.1h-0.2c-1,0-1.8,0.3-2.4,0.9c-0.6,0.6-0.9,1.4-1,2.4
	c0.5-0.6,1.2-0.9,2.2-0.9c0.9,0,1.6,0.3,2.1,0.9c0.5,0.6,0.8,1.4,0.8,2.4c0,1-0.3,1.9-0.8,2.5c-0.6,0.6-1.3,0.9-2.2,0.9
	c-1,0-1.7-0.4-2.3-1.1c-0.6-0.7-0.9-1.7-0.9-2.8v-0.5c0-1.8,0.4-3.2,1.2-4.2c0.8-1,2-1.5,3.5-1.5H364z M362.3,291.4
	c-0.4,0-0.8,0.1-1.2,0.4c-0.4,0.3-0.6,0.6-0.8,1v0.5c0,0.8,0.2,1.5,0.6,2c0.4,0.5,0.8,0.8,1.4,0.8c0.6,0,1-0.2,1.3-0.6
	c0.3-0.4,0.5-1,0.5-1.7c0-0.7-0.2-1.2-0.5-1.7C363.3,291.6,362.9,291.4,362.3,291.4z M373.2,292.6c0,1.5-0.3,2.6-0.8,3.3
	c-0.5,0.7-1.3,1.1-2.4,1.1c-1.1,0-1.9-0.4-2.4-1.1c-0.5-0.7-0.8-1.8-0.8-3.2v-1.7c0-1.5,0.3-2.6,0.8-3.3c0.5-0.7,1.3-1.1,2.4-1.1
	c1.1,0,1.9,0.3,2.4,1c0.5,0.7,0.8,1.7,0.8,3.2V292.6z M371.9,290.9c0-1.1-0.2-1.9-0.5-2.3c-0.3-0.5-0.8-0.7-1.4-0.7
	c-0.6,0-1.1,0.2-1.4,0.7c-0.3,0.5-0.5,1.2-0.5,2.3v2c0,1.1,0.2,1.9,0.5,2.4c0.3,0.5,0.8,0.8,1.4,0.8c0.6,0,1.1-0.2,1.4-0.7
	c0.3-0.5,0.5-1.2,0.5-2.3V290.9z"/>
<path d="M78.6,245l2.6,7.2l2.6-7.2h2.7v10h-2.1v-2.7l0.2-4.7l-2.7,7.4h-1.4l-2.7-7.4l0.2,4.7v2.7h-2.1v-10H78.6z M91.5,255.1
	c-1.1,0-2-0.3-2.7-1c-0.7-0.7-1-1.6-1-2.7v-0.2c0-0.7,0.1-1.4,0.4-2c0.3-0.6,0.7-1,1.2-1.4c0.5-0.3,1.1-0.5,1.8-0.5
	c1,0,1.8,0.3,2.4,1c0.6,0.6,0.9,1.5,0.9,2.7v0.8h-4.7c0.1,0.5,0.3,0.9,0.6,1.2c0.3,0.3,0.7,0.4,1.2,0.4c0.8,0,1.4-0.3,1.8-0.8l1,1.1
	c-0.3,0.4-0.7,0.8-1.2,1C92.7,255,92.1,255.1,91.5,255.1z M91.3,249c-0.4,0-0.7,0.1-1,0.4c-0.2,0.3-0.4,0.6-0.5,1.1h2.8v-0.2
	c0-0.4-0.1-0.8-0.4-1C92,249.2,91.7,249,91.3,249z M97.8,255h-2v-7.4h2V255z M95.7,245.7c0-0.3,0.1-0.5,0.3-0.7
	c0.2-0.2,0.5-0.3,0.8-0.3c0.3,0,0.6,0.1,0.8,0.3s0.3,0.4,0.3,0.7c0,0.3-0.1,0.5-0.3,0.7c-0.2,0.2-0.5,0.3-0.8,0.3
	c-0.3,0-0.6-0.1-0.8-0.3C95.8,246.2,95.7,246,95.7,245.7z M101.5,255h-2v-10.5h2V255z M105.2,255h-2v-10.5h2V255z M110.3,255.1
	c-1.1,0-2-0.3-2.7-1c-0.7-0.7-1-1.6-1-2.7v-0.2c0-0.7,0.1-1.4,0.4-2c0.3-0.6,0.7-1,1.2-1.4c0.5-0.3,1.1-0.5,1.8-0.5
	c1,0,1.8,0.3,2.4,1c0.6,0.6,0.9,1.5,0.9,2.7v0.8h-4.7c0.1,0.5,0.3,0.9,0.6,1.2c0.3,0.3,0.7,0.4,1.2,0.4c0.8,0,1.4-0.3,1.8-0.8l1,1.1
	c-0.3,0.4-0.7,0.8-1.2,1C111.5,255,110.9,255.1,110.3,255.1z M110.1,249c-0.4,0-0.7,0.1-1,0.4c-0.2,0.3-0.4,0.6-0.5,1.1h2.8v-0.2
	c0-0.4-0.1-0.8-0.4-1C110.8,249.2,110.5,249,110.1,249z M118.9,254.2c-0.5,0.6-1.2,0.9-2,0.9c-0.8,0-1.4-0.2-1.8-0.7
	c-0.4-0.5-0.6-1.1-0.6-2v-4.9h2v4.8c0,0.8,0.4,1.2,1.1,1.2c0.7,0,1.1-0.2,1.4-0.7v-5.3h2v7.4H119L118.9,254.2z M126.5,249.4
	c-0.3,0-0.5-0.1-0.7-0.1c-0.8,0-1.2,0.3-1.5,0.8v4.9h-2v-7.4h1.9l0.1,0.9c0.4-0.7,0.9-1,1.7-1c0.2,0,0.4,0,0.6,0.1L126.5,249.4z
	 M130.7,255.1c-1.1,0-2-0.3-2.7-1c-0.7-0.7-1-1.6-1-2.7v-0.2c0-0.7,0.1-1.4,0.4-2c0.3-0.6,0.7-1,1.2-1.4c0.5-0.3,1.1-0.5,1.8-0.5
	c1,0,1.8,0.3,2.4,1c0.6,0.6,0.9,1.5,0.9,2.7v0.8h-4.7c0.1,0.5,0.3,0.9,0.6,1.2c0.3,0.3,0.7,0.4,1.2,0.4c0.8,0,1.4-0.3,1.8-0.8l1,1.1
	c-0.3,0.4-0.7,0.8-1.2,1C131.9,255,131.4,255.1,130.7,255.1z M130.5,249c-0.4,0-0.7,0.1-1,0.4c-0.2,0.3-0.4,0.6-0.5,1.1h2.8v-0.2
	c0-0.4-0.1-0.8-0.4-1C131.3,249.2,130.9,249,130.5,249z M138.9,252.9c0-0.2-0.1-0.4-0.4-0.6c-0.2-0.1-0.6-0.3-1.2-0.4
	c-1.8-0.4-2.6-1.1-2.6-2.2c0-0.7,0.3-1.2,0.8-1.6c0.5-0.4,1.3-0.7,2.1-0.7c0.9,0,1.7,0.2,2.3,0.7c0.6,0.4,0.9,1,0.9,1.7h-2
	c0-0.3-0.1-0.5-0.3-0.7c-0.2-0.2-0.5-0.3-0.9-0.3c-0.3,0-0.6,0.1-0.8,0.2s-0.3,0.3-0.3,0.6c0,0.2,0.1,0.4,0.3,0.5
	c0.2,0.1,0.6,0.2,1.1,0.4c0.5,0.1,0.9,0.2,1.2,0.3c1,0.4,1.6,1.1,1.6,2c0,0.7-0.3,1.2-0.9,1.6c-0.6,0.4-1.3,0.6-2.2,0.6
	c-0.6,0-1.2-0.1-1.7-0.3c-0.5-0.2-0.9-0.5-1.1-0.9c-0.3-0.4-0.4-0.8-0.4-1.3h1.9c0,0.4,0.1,0.6,0.4,0.8c0.2,0.2,0.6,0.3,1,0.3
	c0.4,0,0.7-0.1,0.9-0.2C138.8,253.4,138.9,253.2,138.9,252.9z M154,250.2c0,1-0.2,1.8-0.5,2.6c-0.3,0.7-0.8,1.3-1.5,1.7
	c-0.6,0.4-1.4,0.6-2.2,0.6c-0.8,0-1.6-0.2-2.2-0.6c-0.6-0.4-1.2-1-1.5-1.7c-0.4-0.7-0.5-1.6-0.5-2.6v-0.5c0-1,0.2-1.8,0.5-2.6
	c0.4-0.8,0.9-1.3,1.5-1.7c0.6-0.4,1.4-0.6,2.2-0.6s1.6,0.2,2.2,0.6c0.6,0.4,1.1,1,1.5,1.7c0.4,0.7,0.5,1.6,0.5,2.6V250.2z
	 M151.9,249.8c0-1-0.2-1.8-0.6-2.4c-0.4-0.5-0.9-0.8-1.6-0.8c-0.7,0-1.2,0.3-1.6,0.8c-0.4,0.5-0.6,1.3-0.6,2.4v0.5
	c0,1,0.2,1.8,0.6,2.4c0.4,0.6,0.9,0.8,1.6,0.8c0.7,0,1.2-0.3,1.6-0.8c0.4-0.5,0.6-1.3,0.6-2.4V249.8z M155.9,255v-6h-1.1v-1.5h1.1
	v-0.6c0-0.8,0.2-1.5,0.7-1.9c0.5-0.5,1.2-0.7,2-0.7c0.3,0,0.6,0,1,0.1l0,1.5c-0.2,0-0.4-0.1-0.6-0.1c-0.7,0-1.1,0.4-1.1,1.1v0.6h1.5
	v1.5h-1.5v6H155.9z M160.9,255v-6h-1.1v-1.5h1.1v-0.6c0-0.8,0.2-1.5,0.7-1.9c0.5-0.5,1.2-0.7,2-0.7c0.3,0,0.6,0,1,0.1l0,1.5
	c-0.2,0-0.4-0.1-0.6-0.1c-0.7,0-1.1,0.4-1.1,1.1v0.6h1.5v1.5h-1.5v6H160.9z M169.6,249.4c-0.3,0-0.5-0.1-0.7-0.1
	c-0.8,0-1.2,0.3-1.5,0.8v4.9h-2v-7.4h1.9l0.1,0.9c0.4-0.7,0.9-1,1.7-1c0.2,0,0.4,0,0.6,0.1L169.6,249.4z M173.8,255.1
	c-1.1,0-2-0.3-2.7-1c-0.7-0.7-1-1.6-1-2.7v-0.2c0-0.7,0.1-1.4,0.4-2c0.3-0.6,0.7-1,1.2-1.4c0.5-0.3,1.1-0.5,1.8-0.5
	c1,0,1.8,0.3,2.4,1c0.6,0.6,0.9,1.5,0.9,2.7v0.8h-4.7c0.1,0.5,0.3,0.9,0.6,1.2c0.3,0.3,0.7,0.4,1.2,0.4c0.8,0,1.4-0.3,1.8-0.8l1,1.1
	c-0.3,0.4-0.7,0.8-1.2,1C175,255,174.4,255.1,173.8,255.1z M173.6,249c-0.4,0-0.7,0.1-1,0.4c-0.2,0.3-0.4,0.6-0.5,1.1h2.8v-0.2
	c0-0.4-0.1-0.8-0.4-1C174.3,249.2,174,249,173.6,249z M182,252.9c0-0.2-0.1-0.4-0.4-0.6c-0.2-0.1-0.6-0.3-1.2-0.4
	c-1.8-0.4-2.6-1.1-2.6-2.2c0-0.7,0.3-1.2,0.8-1.6c0.5-0.4,1.3-0.7,2.1-0.7c0.9,0,1.7,0.2,2.3,0.7c0.6,0.4,0.9,1,0.9,1.7h-2
	c0-0.3-0.1-0.5-0.3-0.7c-0.2-0.2-0.5-0.3-0.9-0.3c-0.3,0-0.6,0.1-0.8,0.2s-0.3,0.3-0.3,0.6c0,0.2,0.1,0.4,0.3,0.5
	c0.2,0.1,0.6,0.2,1.1,0.4c0.5,0.1,0.9,0.2,1.2,0.3c1,0.4,1.6,1.1,1.6,2c0,0.7-0.3,1.2-0.9,1.6c-0.6,0.4-1.3,0.6-2.2,0.6
	c-0.6,0-1.2-0.1-1.7-0.3c-0.5-0.2-0.9-0.5-1.1-0.9c-0.3-0.4-0.4-0.8-0.4-1.3h1.9c0,0.4,0.1,0.6,0.4,0.8c0.2,0.2,0.6,0.3,1,0.3
	c0.4,0,0.7-0.1,0.9-0.2C181.9,253.4,182,253.2,182,252.9z"/>
<path class="st1" d="M77.6,308.8h161.6c2.2,0,4,1.8,4,4v5c0,2.2-1.8,4-4,4H77.6c-2.2,0-4-1.8-4-4v-5
	C73.6,310.6,75.4,308.8,77.6,308.8z"/>
<path class="st1" d="M298.2,308.8h71.5c2.2,0,4,1.8,4,4v5c0,2.2-1.8,4-4,4h-71.5c-2.2,0-4-1.8-4-4v-5
	C294.2,310.6,296,308.8,298.2,308.8z"/>
<path class="st2" d="M77.6,334.9h161.6c2.2,0,4,1.8,4,4v5c0,2.2-1.8,4-4,4H77.6c-2.2,0-4-1.8-4-4v-5
	C73.6,336.7,75.4,334.9,77.6,334.9z"/>
<path class="st3" d="M77.6,362.2h161.6c2.2,0,4,1.8,4,4v5c0,2.2-1.8,4-4,4H77.6c-2.2,0-4-1.8-4-4v-5C73.6,364,75.4,362.2,77.6,362.2
	z"/>
<path class="st2" d="M298.2,334.9h71.5c2.2,0,4,1.8,4,4v5c0,2.2-1.8,4-4,4h-71.5c-2.2,0-4-1.8-4-4v-5
	C294.2,336.7,296,334.9,298.2,334.9z"/>
<path class="st3" d="M298.2,362.2h71.5c2.2,0,4,1.8,4,4v5c0,2.2-1.8,4-4,4h-71.5c-2.2,0-4-1.8-4-4v-5
	C294.2,364,296,362.2,298.2,362.2z"/>
<rect x="243.7" y="242.9" class="st4" width="44.3" height="17.9"/>
<rect x="287.5" y="242.3" class="st5" width="45.4" height="19"/>
<rect x="332.5" y="242.5" class="st4" width="55.9" height="17.9"/>
<path class="st6" d="M248.1,255.6v-6h1.7c0.5,0,1,0.1,1.4,0.3s0.7,0.6,0.9,1c0.2,0.4,0.3,0.9,0.3,1.5v0.4c0,0.6-0.1,1.1-0.3,1.5
	c-0.2,0.4-0.5,0.8-0.9,1c-0.4,0.2-0.9,0.3-1.4,0.4H248.1z M248.9,250.3v4.7h0.8c0.6,0,1.1-0.2,1.4-0.6c0.3-0.4,0.5-0.9,0.5-1.6v-0.4
	c0-0.7-0.2-1.2-0.5-1.6c-0.3-0.4-0.8-0.6-1.4-0.6H248.9z M255.4,255.7c-0.6,0-1.1-0.2-1.5-0.6c-0.4-0.4-0.6-0.9-0.6-1.6v-0.1
	c0-0.4,0.1-0.8,0.3-1.2c0.2-0.3,0.4-0.6,0.7-0.8c0.3-0.2,0.6-0.3,1-0.3c0.6,0,1,0.2,1.4,0.6c0.3,0.4,0.5,0.9,0.5,1.6v0.3h-3
	c0,0.4,0.1,0.8,0.4,1.1c0.2,0.3,0.6,0.4,0.9,0.4c0.3,0,0.5-0.1,0.7-0.2c0.2-0.1,0.4-0.3,0.5-0.4l0.5,0.4
	C256.7,255.4,256.1,255.7,255.4,255.7z M255.3,251.7c-0.3,0-0.6,0.1-0.8,0.3c-0.2,0.2-0.3,0.5-0.4,0.9h2.2v-0.1
	c0-0.4-0.1-0.7-0.3-0.9C255.9,251.8,255.6,251.7,255.3,251.7z M260.2,251.8c-0.1,0-0.2,0-0.4,0c-0.5,0-0.8,0.2-1,0.6v3.2H258v-4.5
	h0.7l0,0.5c0.2-0.4,0.6-0.6,1.1-0.6c0.1,0,0.3,0,0.3,0.1V251.8z M263.7,251.7c0.3-0.4,0.8-0.6,1.3-0.6c0.9,0,1.4,0.5,1.4,1.6v2.9
	h-0.8v-3c0-0.3-0.1-0.6-0.2-0.7c-0.1-0.2-0.4-0.2-0.7-0.2c-0.2,0-0.5,0.1-0.7,0.2c-0.2,0.1-0.3,0.3-0.4,0.5v3.2H263v-6.3h0.8V251.7z
	 M269.5,255.7c-0.6,0-1.1-0.2-1.5-0.6c-0.4-0.4-0.6-0.9-0.6-1.6v-0.1c0-0.4,0.1-0.8,0.3-1.2c0.2-0.3,0.4-0.6,0.7-0.8
	c0.3-0.2,0.6-0.3,1-0.3c0.6,0,1,0.2,1.4,0.6c0.3,0.4,0.5,0.9,0.5,1.6v0.3h-3c0,0.4,0.1,0.8,0.4,1.1c0.2,0.3,0.6,0.4,0.9,0.4
	c0.3,0,0.5-0.1,0.7-0.2s0.4-0.3,0.5-0.4l0.5,0.4C270.8,255.4,270.2,255.7,269.5,255.7z M269.4,251.7c-0.3,0-0.6,0.1-0.8,0.3
	c-0.2,0.2-0.3,0.5-0.4,0.9h2.2v-0.1c0-0.4-0.1-0.7-0.3-0.9C270,251.8,269.7,251.7,269.4,251.7z M274.9,255.2
	c-0.3,0.3-0.7,0.5-1.3,0.5c-0.5,0-0.8-0.1-1.1-0.4c-0.2-0.3-0.4-0.7-0.4-1.2v-2.9h0.8v2.9c0,0.7,0.3,1,0.8,1c0.6,0,1-0.2,1.2-0.7
	v-3.2h0.8v4.5h-0.7L274.9,255.2z M278.9,251.8c-0.1,0-0.2,0-0.4,0c-0.5,0-0.8,0.2-1,0.6v3.2h-0.8v-4.5h0.7l0,0.5
	c0.2-0.4,0.6-0.6,1.1-0.6c0.1,0,0.3,0,0.3,0.1V251.8z M281.4,255.7c-0.6,0-1.1-0.2-1.5-0.6c-0.4-0.4-0.6-0.9-0.6-1.6v-0.1
	c0-0.4,0.1-0.8,0.3-1.2c0.2-0.3,0.4-0.6,0.7-0.8c0.3-0.2,0.6-0.3,1-0.3c0.6,0,1,0.2,1.4,0.6c0.3,0.4,0.5,0.9,0.5,1.6v0.3h-3
	c0,0.4,0.1,0.8,0.4,1.1c0.2,0.3,0.6,0.4,0.9,0.4c0.3,0,0.5-0.1,0.7-0.2c0.2-0.1,0.4-0.3,0.5-0.4l0.5,0.4
	C282.7,255.4,282.1,255.7,281.4,255.7z M281.3,251.7c-0.3,0-0.6,0.1-0.8,0.3c-0.2,0.2-0.3,0.5-0.4,0.9h2.2v-0.1
	c0-0.4-0.1-0.7-0.3-0.9C281.9,251.8,281.6,251.7,281.3,251.7z"/>
<path class="st7" d="M299.4,255.6h-4v-0.7l2-2.2c0.3-0.3,0.5-0.6,0.6-0.8c0.1-0.2,0.2-0.4,0.2-0.7c0-0.3-0.1-0.5-0.2-0.7
	c-0.2-0.2-0.4-0.3-0.6-0.3c-0.3,0-0.6,0.1-0.8,0.3c-0.2,0.2-0.3,0.5-0.3,0.8h-1c0-0.4,0.1-0.7,0.2-1c0.2-0.3,0.4-0.5,0.7-0.7
	c0.3-0.2,0.7-0.2,1.1-0.2c0.6,0,1,0.1,1.4,0.4c0.3,0.3,0.5,0.7,0.5,1.2c0,0.3-0.1,0.6-0.3,0.9c-0.2,0.3-0.4,0.7-0.8,1.1l-1.5,1.6
	h2.8V255.6z M303.6,253.5h0.7v0.8h-0.7v1.3h-1v-1.3H300l0-0.6l2.6-4.1h1V253.5z M301,253.5h1.6V251l-0.1,0.1L301,253.5z M306,251.6
	c0.3-0.4,0.7-0.6,1.2-0.6c1,0,1.4,0.5,1.4,1.6v2.9h-1v-2.9c0-0.3-0.1-0.5-0.2-0.7c-0.1-0.1-0.3-0.2-0.6-0.2c-0.4,0-0.7,0.2-0.9,0.5
	v3.2h-1v-6.3h1V251.6z"/>
<path class="st6" d="M338.5,253.3c-0.7-0.2-1.2-0.4-1.5-0.7c-0.3-0.3-0.5-0.6-0.5-1.1c0-0.5,0.2-0.9,0.6-1.2
	c0.4-0.3,0.9-0.5,1.5-0.5c0.4,0,0.8,0.1,1.1,0.2c0.3,0.2,0.6,0.4,0.8,0.7c0.2,0.3,0.3,0.6,0.3,0.9h-0.8c0-0.4-0.1-0.6-0.3-0.9
	c-0.2-0.2-0.6-0.3-1-0.3c-0.4,0-0.7,0.1-0.9,0.3c-0.2,0.2-0.3,0.4-0.3,0.7c0,0.2,0.1,0.5,0.3,0.6c0.2,0.2,0.6,0.3,1.1,0.5
	c0.5,0.1,0.9,0.3,1.2,0.5c0.3,0.2,0.5,0.4,0.6,0.6c0.1,0.2,0.2,0.5,0.2,0.8c0,0.5-0.2,0.9-0.6,1.2c-0.4,0.3-0.9,0.4-1.5,0.4
	c-0.4,0-0.8-0.1-1.2-0.2c-0.4-0.2-0.6-0.4-0.8-0.7c-0.2-0.3-0.3-0.6-0.3-0.9h0.8c0,0.4,0.1,0.7,0.4,0.9c0.3,0.2,0.6,0.3,1.1,0.3
	c0.4,0,0.7-0.1,1-0.3c0.2-0.2,0.3-0.4,0.3-0.7c0-0.3-0.1-0.5-0.3-0.7C339.4,253.6,339,253.5,338.5,253.3z M343.4,256.1
	c-0.6,0-1.1-0.2-1.5-0.6c-0.4-0.4-0.6-0.9-0.6-1.6v-0.1c0-0.4,0.1-0.8,0.3-1.2c0.2-0.3,0.4-0.6,0.7-0.8c0.3-0.2,0.6-0.3,1-0.3
	c0.6,0,1,0.2,1.4,0.6c0.3,0.4,0.5,0.9,0.5,1.6v0.3h-3c0,0.4,0.1,0.8,0.4,1.1c0.2,0.3,0.6,0.4,0.9,0.4c0.3,0,0.5-0.1,0.7-0.2
	c0.2-0.1,0.4-0.3,0.5-0.4l0.5,0.4C344.8,255.8,344.2,256.1,343.4,256.1z M343.3,252.1c-0.3,0-0.6,0.1-0.8,0.3
	c-0.2,0.2-0.3,0.5-0.4,0.9h2.2v-0.1c0-0.4-0.1-0.7-0.3-0.9C343.9,252.2,343.7,252.1,343.3,252.1z M346.8,251.5l0,0.5
	c0.3-0.4,0.8-0.6,1.3-0.6c0.6,0,1,0.2,1.3,0.7c0.1-0.2,0.3-0.4,0.6-0.5c0.2-0.1,0.5-0.2,0.8-0.2c1,0,1.5,0.5,1.5,1.6v3h-0.8v-2.9
	c0-0.3-0.1-0.6-0.2-0.7c-0.1-0.2-0.4-0.2-0.7-0.2c-0.3,0-0.5,0.1-0.7,0.3c-0.2,0.2-0.3,0.4-0.3,0.7v3h-0.8v-2.9c0-0.6-0.3-1-1-1
	c-0.5,0-0.8,0.2-1,0.6v3.3h-0.8v-4.5H346.8z M356.5,253.6v2.4h-0.8v-6h2.2c0.7,0,1.2,0.2,1.5,0.5c0.4,0.3,0.6,0.8,0.6,1.3
	c0,0.6-0.2,1-0.5,1.3c-0.4,0.3-0.9,0.5-1.6,0.5H356.5z M356.5,253h1.4c0.4,0,0.7-0.1,1-0.3c0.2-0.2,0.3-0.5,0.3-0.9
	c0-0.4-0.1-0.6-0.3-0.9c-0.2-0.2-0.5-0.3-0.9-0.3h-1.5V253z M363.6,256c0-0.1-0.1-0.2-0.1-0.5c-0.4,0.4-0.8,0.6-1.3,0.6
	c-0.4,0-0.8-0.1-1.1-0.4c-0.3-0.2-0.4-0.6-0.4-0.9c0-0.5,0.2-0.8,0.5-1.1c0.4-0.3,0.9-0.4,1.5-0.4h0.7v-0.3c0-0.3-0.1-0.5-0.2-0.6
	c-0.2-0.2-0.4-0.2-0.7-0.2c-0.3,0-0.5,0.1-0.7,0.2c-0.2,0.1-0.3,0.3-0.3,0.5h-0.8c0-0.2,0.1-0.4,0.2-0.6c0.2-0.2,0.4-0.4,0.6-0.5
	c0.3-0.1,0.6-0.2,0.9-0.2c0.5,0,0.9,0.1,1.2,0.4c0.3,0.3,0.4,0.6,0.5,1.1v2.1c0,0.4,0.1,0.7,0.2,1v0.1H363.6z M362.3,255.4
	c0.2,0,0.5-0.1,0.7-0.2c0.2-0.1,0.4-0.3,0.5-0.5v-0.9h-0.6c-0.9,0-1.4,0.3-1.4,0.8c0,0.2,0.1,0.4,0.2,0.6
	C361.9,255.4,362.1,255.4,362.3,255.4z M368,254.8c0-0.2-0.1-0.4-0.2-0.5c-0.2-0.1-0.4-0.2-0.8-0.3c-0.4-0.1-0.7-0.2-0.9-0.3
	c-0.2-0.1-0.4-0.3-0.5-0.4c-0.1-0.2-0.2-0.3-0.2-0.6c0-0.4,0.2-0.7,0.5-0.9c0.3-0.3,0.7-0.4,1.2-0.4c0.5,0,0.9,0.1,1.2,0.4
	c0.3,0.3,0.5,0.6,0.5,1H368c0-0.2-0.1-0.4-0.3-0.5c-0.2-0.2-0.4-0.2-0.7-0.2c-0.3,0-0.5,0.1-0.7,0.2c-0.2,0.1-0.2,0.3-0.2,0.5
	c0,0.2,0.1,0.3,0.2,0.4c0.1,0.1,0.4,0.2,0.8,0.3c0.4,0.1,0.7,0.2,0.9,0.3c0.2,0.1,0.4,0.3,0.5,0.4c0.1,0.2,0.2,0.4,0.2,0.6
	c0,0.4-0.2,0.7-0.5,1c-0.3,0.2-0.7,0.4-1.2,0.4c-0.4,0-0.7-0.1-0.9-0.2c-0.3-0.1-0.5-0.3-0.6-0.5c-0.2-0.2-0.2-0.5-0.2-0.7h0.8
	c0,0.3,0.1,0.5,0.3,0.6c0.2,0.1,0.4,0.2,0.8,0.2c0.3,0,0.5-0.1,0.7-0.2C368,255.2,368,255,368,254.8z M372.4,254.8
	c0-0.2-0.1-0.4-0.2-0.5c-0.2-0.1-0.4-0.2-0.8-0.3c-0.4-0.1-0.7-0.2-0.9-0.3c-0.2-0.1-0.4-0.3-0.5-0.4c-0.1-0.2-0.2-0.3-0.2-0.6
	c0-0.4,0.2-0.7,0.5-0.9c0.3-0.3,0.7-0.4,1.2-0.4c0.5,0,0.9,0.1,1.2,0.4c0.3,0.3,0.5,0.6,0.5,1h-0.8c0-0.2-0.1-0.4-0.3-0.5
	c-0.2-0.2-0.4-0.2-0.7-0.2c-0.3,0-0.5,0.1-0.7,0.2c-0.2,0.1-0.2,0.3-0.2,0.5c0,0.2,0.1,0.3,0.2,0.4c0.1,0.1,0.4,0.2,0.8,0.3
	c0.4,0.1,0.7,0.2,0.9,0.3c0.2,0.1,0.4,0.3,0.5,0.4c0.1,0.2,0.2,0.4,0.2,0.6c0,0.4-0.2,0.7-0.5,1c-0.3,0.2-0.7,0.4-1.2,0.4
	c-0.4,0-0.7-0.1-0.9-0.2c-0.3-0.1-0.5-0.3-0.6-0.5c-0.2-0.2-0.2-0.5-0.2-0.7h0.8c0,0.3,0.1,0.5,0.3,0.6c0.2,0.1,0.4,0.2,0.8,0.2
	c0.3,0,0.5-0.1,0.7-0.2C372.3,255.2,372.4,255,372.4,254.8z M376,256.1c-0.6,0-1.1-0.2-1.5-0.6c-0.4-0.4-0.6-0.9-0.6-1.6v-0.1
	c0-0.4,0.1-0.8,0.3-1.2c0.2-0.3,0.4-0.6,0.7-0.8c0.3-0.2,0.6-0.3,1-0.3c0.6,0,1,0.2,1.4,0.6c0.3,0.4,0.5,0.9,0.5,1.6v0.3h-3
	c0,0.4,0.1,0.8,0.4,1.1c0.2,0.3,0.6,0.4,0.9,0.4c0.3,0,0.5-0.1,0.7-0.2s0.4-0.3,0.5-0.4l0.5,0.4C377.3,255.8,376.8,256.1,376,256.1z
	 M375.9,252.1c-0.3,0-0.6,0.1-0.8,0.3c-0.2,0.2-0.3,0.5-0.4,0.9h2.2v-0.1c0-0.4-0.1-0.7-0.3-0.9
	C376.5,252.2,376.2,252.1,375.9,252.1z M376.3,249.7h0.9l-1.1,1.2h-0.6L376.3,249.7z M380.5,256.1c-0.6,0-1.1-0.2-1.5-0.6
	c-0.4-0.4-0.6-0.9-0.6-1.6v-0.1c0-0.4,0.1-0.8,0.3-1.2c0.2-0.3,0.4-0.6,0.7-0.8c0.3-0.2,0.6-0.3,1-0.3c0.6,0,1,0.2,1.4,0.6
	c0.3,0.4,0.5,0.9,0.5,1.6v0.3h-3c0,0.4,0.1,0.8,0.4,1.1c0.2,0.3,0.6,0.4,0.9,0.4c0.3,0,0.5-0.1,0.7-0.2c0.2-0.1,0.4-0.3,0.5-0.4
	l0.5,0.4C381.8,255.8,381.2,256.1,380.5,256.1z M380.4,252.1c-0.3,0-0.6,0.1-0.8,0.3c-0.2,0.2-0.3,0.5-0.4,0.9h2.2v-0.1
	c0-0.4-0.1-0.7-0.3-0.9C381,252.2,380.7,252.1,380.4,252.1z"/>
<path class="st0" d="M64,0.5h326.4c5.3,0,9.5,4.3,9.5,9.5v182.8c0,5.3-4.3,9.5-9.5,9.5H64c-5.3,0-9.5-4.3-9.5-9.5V10
	C54.5,4.8,58.8,0.5,64,0.5z"/>
<path d="M91.6,46l2.6,7.2l2.6-7.2h2.7v10h-2.1v-2.7l0.2-4.7L94.8,56h-1.4l-2.7-7.4l0.2,4.7V56h-2.1V46H91.6z M104.5,56.1
	c-1.1,0-2-0.3-2.7-1c-0.7-0.7-1-1.6-1-2.7v-0.2c0-0.7,0.1-1.4,0.4-2c0.3-0.6,0.7-1,1.2-1.4c0.5-0.3,1.1-0.5,1.8-0.5
	c1,0,1.8,0.3,2.4,1c0.6,0.6,0.9,1.5,0.9,2.7v0.8h-4.7c0.1,0.5,0.3,0.9,0.6,1.2c0.3,0.3,0.7,0.4,1.2,0.4c0.8,0,1.4-0.3,1.8-0.8l1,1.1
	c-0.3,0.4-0.7,0.8-1.2,1C105.7,56,105.1,56.1,104.5,56.1z M104.3,50c-0.4,0-0.7,0.1-1,0.4c-0.2,0.3-0.4,0.6-0.5,1.1h2.8v-0.2
	c0-0.4-0.1-0.8-0.4-1C105,50.2,104.7,50,104.3,50z M110.8,56h-2v-7.4h2V56z M108.7,46.7c0-0.3,0.1-0.5,0.3-0.7
	c0.2-0.2,0.5-0.3,0.8-0.3c0.3,0,0.6,0.1,0.8,0.3c0.2,0.2,0.3,0.4,0.3,0.7c0,0.3-0.1,0.5-0.3,0.7c-0.2,0.2-0.5,0.3-0.8,0.3
	s-0.6-0.1-0.8-0.3C108.8,47.2,108.7,47,108.7,46.7z M114.5,56h-2V45.5h2V56z M118.2,56h-2V45.5h2V56z M123.3,56.1
	c-1.1,0-2-0.3-2.7-1c-0.7-0.7-1-1.6-1-2.7v-0.2c0-0.7,0.1-1.4,0.4-2c0.3-0.6,0.7-1,1.2-1.4c0.5-0.3,1.1-0.5,1.8-0.5
	c1,0,1.8,0.3,2.4,1c0.6,0.6,0.9,1.5,0.9,2.7v0.8h-4.7c0.1,0.5,0.3,0.9,0.6,1.2c0.3,0.3,0.7,0.4,1.2,0.4c0.8,0,1.4-0.3,1.8-0.8l1,1.1
	c-0.3,0.4-0.7,0.8-1.2,1C124.5,56,123.9,56.1,123.3,56.1z M123.1,50c-0.4,0-0.7,0.1-1,0.4c-0.2,0.3-0.4,0.6-0.5,1.1h2.8v-0.2
	c0-0.4-0.1-0.8-0.4-1C123.8,50.2,123.5,50,123.1,50z M131.9,55.2c-0.5,0.6-1.2,0.9-2,0.9c-0.8,0-1.4-0.2-1.8-0.7
	c-0.4-0.5-0.6-1.1-0.6-2v-4.9h2v4.8c0,0.8,0.4,1.2,1.1,1.2c0.7,0,1.1-0.2,1.4-0.7v-5.3h2V56H132L131.9,55.2z M139.5,50.4
	c-0.3,0-0.5-0.1-0.7-0.1c-0.8,0-1.2,0.3-1.5,0.8V56h-2v-7.4h1.9l0.1,0.9c0.4-0.7,0.9-1,1.7-1c0.2,0,0.4,0,0.6,0.1L139.5,50.4z
	 M143.7,56.1c-1.1,0-2-0.3-2.7-1c-0.7-0.7-1-1.6-1-2.7v-0.2c0-0.7,0.1-1.4,0.4-2c0.3-0.6,0.7-1,1.2-1.4c0.5-0.3,1.1-0.5,1.8-0.5
	c1,0,1.8,0.3,2.4,1c0.6,0.6,0.9,1.5,0.9,2.7v0.8h-4.7c0.1,0.5,0.3,0.9,0.6,1.2c0.3,0.3,0.7,0.4,1.2,0.4c0.8,0,1.4-0.3,1.8-0.8l1,1.1
	c-0.3,0.4-0.7,0.8-1.2,1C144.9,56,144.4,56.1,143.7,56.1z M143.5,50c-0.4,0-0.7,0.1-1,0.4c-0.2,0.3-0.4,0.6-0.5,1.1h2.8v-0.2
	c0-0.4-0.1-0.8-0.4-1C144.3,50.2,143.9,50,143.5,50z M151.9,53.9c0-0.2-0.1-0.4-0.4-0.6c-0.2-0.1-0.6-0.3-1.2-0.4
	c-1.8-0.4-2.6-1.1-2.6-2.2c0-0.7,0.3-1.2,0.8-1.6c0.5-0.4,1.3-0.7,2.1-0.7c0.9,0,1.7,0.2,2.3,0.7c0.6,0.4,0.9,1,0.9,1.7h-2
	c0-0.3-0.1-0.5-0.3-0.7c-0.2-0.2-0.5-0.3-0.9-0.3c-0.3,0-0.6,0.1-0.8,0.2c-0.2,0.2-0.3,0.3-0.3,0.6c0,0.2,0.1,0.4,0.3,0.5
	c0.2,0.1,0.6,0.2,1.1,0.3c0.5,0.1,0.9,0.2,1.2,0.3c1,0.4,1.6,1,1.6,2c0,0.7-0.3,1.2-0.9,1.6c-0.6,0.4-1.3,0.6-2.2,0.6
	c-0.6,0-1.2-0.1-1.7-0.3c-0.5-0.2-0.9-0.5-1.1-0.9c-0.3-0.4-0.4-0.8-0.4-1.3h1.9c0,0.4,0.1,0.6,0.4,0.8c0.2,0.2,0.6,0.3,1,0.3
	c0.4,0,0.7-0.1,0.9-0.2C151.8,54.4,151.9,54.2,151.9,53.9z M158.8,56V46h3.1c0.9,0,1.7,0.2,2.4,0.6c0.7,0.4,1.2,1,1.6,1.7
	c0.4,0.7,0.6,1.6,0.6,2.5v0.5c0,0.9-0.2,1.8-0.6,2.5c-0.4,0.7-0.9,1.3-1.6,1.7c-0.7,0.4-1.5,0.6-2.4,0.6H158.8z M160.8,47.7v6.7h1
	c0.8,0,1.4-0.3,1.8-0.8c0.4-0.5,0.6-1.3,0.7-2.3v-0.5c0-1-0.2-1.8-0.6-2.3c-0.4-0.5-1-0.8-1.8-0.8H160.8z M173.1,53.4
	c0-0.4-0.1-0.7-0.4-0.9c-0.3-0.2-0.8-0.4-1.5-0.7c-0.7-0.2-1.3-0.5-1.7-0.7c-1.1-0.6-1.7-1.4-1.7-2.5c0-0.5,0.2-1,0.5-1.4
	c0.3-0.4,0.7-0.8,1.3-1c0.6-0.2,1.2-0.4,1.9-0.4c0.7,0,1.3,0.1,1.9,0.4c0.6,0.3,1,0.6,1.3,1.1c0.3,0.5,0.5,1,0.5,1.6h-2.1
	c0-0.5-0.1-0.8-0.4-1.1c-0.3-0.3-0.7-0.4-1.2-0.4c-0.5,0-0.9,0.1-1.2,0.3c-0.3,0.2-0.4,0.5-0.4,0.8c0,0.3,0.2,0.6,0.5,0.8
	c0.3,0.2,0.8,0.4,1.4,0.6c1.2,0.4,2,0.8,2.6,1.3c0.5,0.5,0.8,1.2,0.8,1.9c0,0.9-0.3,1.5-1,2c-0.7,0.5-1.5,0.7-2.6,0.7
	c-0.8,0-1.5-0.1-2.1-0.4c-0.6-0.3-1.1-0.7-1.4-1.2c-0.3-0.5-0.5-1.1-0.5-1.7h2.1c0,1.1,0.7,1.7,2,1.7c0.5,0,0.9-0.1,1.1-0.3
	C173,54,173.1,53.7,173.1,53.4z M178.6,52.5V56h-2.1V46h3.9c0.8,0,1.4,0.1,2,0.4c0.6,0.3,1,0.7,1.3,1.2c0.3,0.5,0.5,1.1,0.5,1.7
	c0,1-0.3,1.8-1,2.3c-0.7,0.6-1.6,0.8-2.8,0.8H178.6z M178.6,50.8h1.8c0.5,0,1-0.1,1.2-0.4c0.3-0.3,0.4-0.6,0.4-1.1
	c0-0.5-0.1-0.9-0.4-1.2c-0.3-0.3-0.7-0.5-1.2-0.5h-1.9V50.8z M190.8,53.4c0-0.4-0.1-0.7-0.4-0.9c-0.3-0.2-0.8-0.4-1.5-0.7
	c-0.7-0.2-1.3-0.5-1.7-0.7c-1.1-0.6-1.7-1.4-1.7-2.5c0-0.5,0.2-1,0.5-1.4c0.3-0.4,0.7-0.8,1.3-1c0.6-0.2,1.2-0.4,1.9-0.4
	c0.7,0,1.3,0.1,1.9,0.4c0.6,0.3,1,0.6,1.3,1.1c0.3,0.5,0.5,1,0.5,1.6h-2.1c0-0.5-0.1-0.8-0.4-1.1c-0.3-0.3-0.7-0.4-1.2-0.4
	c-0.5,0-0.9,0.1-1.2,0.3c-0.3,0.2-0.4,0.5-0.4,0.8c0,0.3,0.2,0.6,0.5,0.8c0.3,0.2,0.8,0.4,1.4,0.6c1.2,0.4,2,0.8,2.6,1.3
	c0.5,0.5,0.8,1.2,0.8,1.9c0,0.9-0.3,1.5-1,2c-0.7,0.5-1.5,0.7-2.6,0.7c-0.8,0-1.5-0.1-2.1-0.4c-0.6-0.3-1.1-0.7-1.4-1.2
	c-0.3-0.5-0.5-1.1-0.5-1.7h2.1c0,1.1,0.7,1.7,2,1.7c0.5,0,0.9-0.1,1.1-0.3C190.7,54,190.8,53.7,190.8,53.4z"/>
<path d="M110.6,133.9v-6.7h1.9c0.6,0,1.1,0.1,1.6,0.4c0.5,0.3,0.8,0.6,1,1.1c0.2,0.5,0.4,1,0.4,1.7v0.4c0,0.6-0.1,1.2-0.4,1.7
	c-0.2,0.5-0.6,0.8-1.1,1.1c-0.5,0.3-1,0.4-1.6,0.4H110.6z M111.5,127.9v5.3h0.9c0.7,0,1.2-0.2,1.6-0.6c0.4-0.4,0.6-1,0.6-1.8v-0.4
	c0-0.8-0.2-1.4-0.5-1.8c-0.4-0.4-0.9-0.6-1.5-0.6H111.5z M118.7,134c-0.7,0-1.2-0.2-1.7-0.7c-0.4-0.4-0.6-1-0.6-1.8v-0.2
	c0-0.5,0.1-0.9,0.3-1.3c0.2-0.4,0.5-0.7,0.8-0.9c0.3-0.2,0.7-0.3,1.1-0.3c0.7,0,1.2,0.2,1.5,0.6c0.4,0.4,0.5,1,0.5,1.8v0.4h-3.4
	c0,0.5,0.2,0.9,0.4,1.2c0.3,0.3,0.6,0.5,1.1,0.5c0.3,0,0.6-0.1,0.8-0.2c0.2-0.1,0.4-0.3,0.6-0.5l0.5,0.4
	C120.2,133.7,119.6,134,118.7,134z M118.6,129.5c-0.3,0-0.6,0.1-0.9,0.4c-0.2,0.2-0.4,0.6-0.4,1.1h2.5v-0.1c0-0.4-0.1-0.8-0.4-1
	C119.3,129.6,119,129.5,118.6,129.5z M124.1,129.7c-0.1,0-0.3,0-0.4,0c-0.6,0-0.9,0.2-1.1,0.7v3.6h-0.9v-5h0.8l0,0.6
	c0.3-0.4,0.7-0.7,1.2-0.7c0.2,0,0.3,0,0.4,0.1V129.7z M124.4,133.5c0-0.1,0-0.3,0.1-0.4c0.1-0.1,0.2-0.1,0.4-0.1
	c0.2,0,0.3,0,0.4,0.1c0.1,0.1,0.1,0.2,0.1,0.4c0,0.1,0,0.3-0.1,0.4c-0.1,0.1-0.2,0.1-0.4,0.1c-0.2,0-0.3,0-0.4-0.1
	C124.4,133.7,124.4,133.6,124.4,133.5z M130.1,129.5c0.4-0.5,0.9-0.7,1.5-0.7c1.1,0,1.6,0.6,1.6,1.8v3.3h-0.9v-3.3
	c0-0.4-0.1-0.6-0.2-0.8c-0.2-0.2-0.4-0.3-0.8-0.3c-0.3,0-0.5,0.1-0.7,0.2c-0.2,0.1-0.4,0.3-0.5,0.6v3.6h-0.9v-7.1h0.9V129.5z
	 M136.5,134c-0.7,0-1.2-0.2-1.7-0.7c-0.4-0.4-0.6-1-0.6-1.8v-0.2c0-0.5,0.1-0.9,0.3-1.3c0.2-0.4,0.5-0.7,0.8-0.9
	c0.3-0.2,0.7-0.3,1.1-0.3c0.7,0,1.2,0.2,1.5,0.6c0.4,0.4,0.5,1,0.5,1.8v0.4h-3.4c0,0.5,0.2,0.9,0.4,1.2c0.3,0.3,0.6,0.5,1.1,0.5
	c0.3,0,0.6-0.1,0.8-0.2c0.2-0.1,0.4-0.3,0.6-0.5l0.5,0.4C138,133.7,137.3,134,136.5,134z M136.4,129.5c-0.3,0-0.6,0.1-0.9,0.4
	c-0.2,0.2-0.4,0.6-0.4,1.1h2.5v-0.1c0-0.4-0.1-0.8-0.4-1C137,129.6,136.8,129.5,136.4,129.5z M142.6,133.4c-0.3,0.4-0.8,0.6-1.5,0.6
	c-0.5,0-0.9-0.2-1.2-0.5c-0.3-0.3-0.4-0.8-0.4-1.4v-3.3h0.9v3.2c0,0.8,0.3,1.1,0.9,1.1c0.7,0,1.1-0.2,1.3-0.7v-3.6h0.9v5h-0.8
	L142.6,133.4z M147.1,129.7c-0.1,0-0.3,0-0.4,0c-0.6,0-0.9,0.2-1.1,0.7v3.6h-0.9v-5h0.8l0,0.6c0.3-0.4,0.7-0.7,1.2-0.7
	c0.2,0,0.3,0,0.4,0.1V129.7z M149.9,134c-0.7,0-1.2-0.2-1.7-0.7c-0.4-0.4-0.6-1-0.6-1.8v-0.2c0-0.5,0.1-0.9,0.3-1.3
	c0.2-0.4,0.5-0.7,0.8-0.9c0.3-0.2,0.7-0.3,1.1-0.3c0.7,0,1.2,0.2,1.5,0.6c0.4,0.4,0.5,1,0.5,1.8v0.4h-3.4c0,0.5,0.2,0.9,0.4,1.2
	c0.3,0.3,0.6,0.5,1.1,0.5c0.3,0,0.6-0.1,0.8-0.2c0.2-0.1,0.4-0.3,0.6-0.5l0.5,0.4C151.4,133.7,150.7,134,149.9,134z M149.8,129.5
	c-0.3,0-0.6,0.1-0.9,0.4c-0.2,0.2-0.4,0.6-0.4,1.1h2.5v-0.1c0-0.4-0.1-0.8-0.4-1C150.4,129.6,150.2,129.5,149.8,129.5z"/>
<path d="M172.8,132.1c0-0.3-0.1-0.5-0.2-0.6c-0.1-0.2-0.4-0.3-0.7-0.4c-0.3-0.1-0.6-0.3-0.9-0.4c-0.2-0.1-0.5-0.3-0.6-0.4
	c-0.2-0.2-0.3-0.4-0.4-0.6c-0.1-0.2-0.1-0.5-0.1-0.8c0-0.5,0.2-0.9,0.5-1.3c0.3-0.3,0.8-0.5,1.3-0.6v-1h0.7v1c0.5,0.1,1,0.3,1.3,0.7
	c0.3,0.4,0.5,0.9,0.5,1.5h-1.3c0-0.4-0.1-0.6-0.2-0.8c-0.2-0.2-0.4-0.3-0.6-0.3c-0.3,0-0.4,0.1-0.6,0.2c-0.1,0.1-0.2,0.3-0.2,0.6
	c0,0.2,0.1,0.4,0.2,0.6c0.1,0.1,0.4,0.3,0.8,0.4c0.4,0.1,0.7,0.3,0.9,0.4c0.2,0.1,0.4,0.3,0.6,0.4c0.2,0.2,0.3,0.4,0.4,0.6
	c0.1,0.2,0.1,0.5,0.1,0.7c0,0.5-0.2,1-0.5,1.3c-0.3,0.3-0.8,0.5-1.4,0.6v0.9h-0.7V134c-0.6-0.1-1.1-0.3-1.5-0.7
	c-0.3-0.4-0.5-0.9-0.5-1.5h1.3c0,0.4,0.1,0.6,0.3,0.8c0.2,0.2,0.4,0.3,0.8,0.3c0.3,0,0.5-0.1,0.6-0.2
	C172.7,132.6,172.8,132.4,172.8,132.1z M179,131.4h0.8v1.1H179v1.5h-1.3v-1.5h-2.8l-0.1-0.8l2.8-4.4h1.4V131.4z M176.1,131.4h1.5
	V129l-0.1,0.2L176.1,131.4z M180.7,130.6l0.4-3.4h3.8v1.1h-2.7l-0.2,1.5c0.3-0.2,0.7-0.3,1-0.3c0.6,0,1.1,0.2,1.5,0.6
	c0.4,0.4,0.5,1,0.5,1.7c0,0.4-0.1,0.8-0.3,1.2c-0.2,0.3-0.4,0.6-0.8,0.8c-0.3,0.2-0.7,0.3-1.2,0.3c-0.4,0-0.8-0.1-1.1-0.2
	c-0.3-0.2-0.6-0.4-0.8-0.7c-0.2-0.3-0.3-0.6-0.3-1h1.3c0,0.3,0.1,0.5,0.3,0.7c0.2,0.2,0.4,0.2,0.7,0.2c0.3,0,0.5-0.1,0.7-0.3
	c0.2-0.2,0.2-0.5,0.2-0.9c0-0.4-0.1-0.7-0.3-0.9c-0.2-0.2-0.5-0.3-0.8-0.3c-0.3,0-0.6,0.1-0.8,0.2l-0.1,0.1L180.7,130.6z
	 M186.3,135.6l-0.7-0.4l0.2-0.3c0.2-0.4,0.3-0.8,0.3-1.1v-1h1.1l0,0.9c0,0.3-0.1,0.7-0.3,1C186.8,135.1,186.6,135.4,186.3,135.6z
	 M192.2,131.4h0.8v1.1h-0.8v1.5h-1.3v-1.5h-2.8l-0.1-0.8l2.8-4.4h1.4V131.4z M189.4,131.4h1.5V129l-0.1,0.2L189.4,131.4z
	 M197.3,127.1v1.1h-0.1c-0.6,0-1.1,0.2-1.5,0.5c-0.4,0.3-0.6,0.7-0.7,1.3c0.4-0.4,0.8-0.5,1.4-0.5c0.6,0,1.1,0.2,1.4,0.6
	s0.5,1,0.5,1.7c0,0.4-0.1,0.8-0.3,1.2c-0.2,0.4-0.5,0.6-0.8,0.8c-0.3,0.2-0.7,0.3-1.2,0.3c-0.7,0-1.3-0.2-1.7-0.7
	c-0.4-0.5-0.7-1.2-0.7-2v-0.5c0-0.7,0.1-1.4,0.4-1.9c0.3-0.6,0.7-1,1.2-1.3c0.5-0.3,1.1-0.5,1.8-0.5H197.3z M196,130.5
	c-0.2,0-0.4,0.1-0.6,0.2c-0.2,0.1-0.3,0.3-0.4,0.4v0.4c0,0.4,0.1,0.8,0.3,1.1c0.2,0.3,0.4,0.4,0.7,0.4c0.3,0,0.5-0.1,0.7-0.3
	c0.2-0.2,0.3-0.5,0.3-0.9c0-0.4-0.1-0.7-0.3-0.9C196.6,130.6,196.3,130.5,196,130.5z M203.7,131.1c0,0.9-0.2,1.6-0.6,2.1
	c-0.4,0.5-1,0.7-1.7,0.7c-0.7,0-1.3-0.2-1.7-0.7c-0.4-0.5-0.6-1.2-0.6-2.1v-1.2c0-0.9,0.2-1.7,0.6-2.1c0.4-0.5,1-0.7,1.7-0.7
	c0.7,0,1.3,0.2,1.7,0.7c0.4,0.5,0.6,1.2,0.6,2.1V131.1z M202.3,129.8c0-0.6-0.1-1-0.2-1.2c-0.2-0.3-0.4-0.4-0.7-0.4
	c-0.3,0-0.5,0.1-0.7,0.4c-0.1,0.2-0.2,0.6-0.2,1.1v1.6c0,0.6,0.1,1,0.2,1.2c0.2,0.3,0.4,0.4,0.7,0.4c0.3,0,0.6-0.1,0.7-0.4
	c0.1-0.3,0.2-0.6,0.2-1.2V129.8z M204.7,133.2c0-0.2,0.1-0.4,0.2-0.5c0.1-0.1,0.3-0.2,0.5-0.2c0.2,0,0.4,0.1,0.5,0.2
	c0.1,0.1,0.2,0.3,0.2,0.5c0,0.2-0.1,0.4-0.2,0.5c-0.1,0.1-0.3,0.2-0.5,0.2c-0.2,0-0.4-0.1-0.5-0.2
	C204.8,133.6,204.7,133.5,204.7,133.2z M210.5,131.2c-0.3,0.3-0.8,0.5-1.2,0.5c-0.6,0-1.1-0.2-1.4-0.6c-0.4-0.4-0.5-1-0.5-1.7
	c0-0.4,0.1-0.8,0.3-1.2c0.2-0.4,0.5-0.7,0.8-0.9c0.3-0.2,0.7-0.3,1.2-0.3c0.4,0,0.8,0.1,1.2,0.3c0.3,0.2,0.6,0.5,0.8,1
	c0.2,0.4,0.3,0.9,0.3,1.4v0.5c0,1.1-0.3,2-0.8,2.7c-0.6,0.6-1.4,1-2.4,1l-0.3,0v-1.1l0.3,0C209.8,132.8,210.4,132.2,210.5,131.2z
	 M209.6,130.7c0.2,0,0.4-0.1,0.6-0.2c0.2-0.1,0.3-0.2,0.4-0.4v-0.6c0-0.5-0.1-0.8-0.3-1.1c-0.2-0.3-0.4-0.4-0.7-0.4
	c-0.3,0-0.5,0.1-0.7,0.4c-0.2,0.2-0.3,0.6-0.3,0.9c0,0.4,0.1,0.7,0.2,0.9C209,130.6,209.3,130.7,209.6,130.7z M216.8,131.4h0.8v1.1
	h-0.8v1.5h-1.3v-1.5h-2.8l-0.1-0.8l2.8-4.4h1.4V131.4z M213.9,131.4h1.5V129l-0.1,0.2L213.9,131.4z"/>
<circle class="st8" cx="100.3" cy="129.6" r="3.6"/>
<path d="M172.8,152.3c0-0.3-0.1-0.5-0.2-0.6c-0.1-0.2-0.4-0.3-0.7-0.4c-0.3-0.1-0.6-0.3-0.9-0.4c-0.2-0.1-0.5-0.3-0.6-0.4
	c-0.2-0.2-0.3-0.4-0.4-0.6c-0.1-0.2-0.1-0.5-0.1-0.8c0-0.5,0.2-1,0.5-1.3c0.3-0.3,0.8-0.5,1.3-0.6v-1h0.7v1c0.5,0.1,1,0.3,1.3,0.7
	c0.3,0.4,0.5,0.9,0.5,1.5h-1.3c0-0.4-0.1-0.6-0.2-0.8c-0.2-0.2-0.4-0.3-0.6-0.3c-0.3,0-0.4,0.1-0.6,0.2c-0.1,0.1-0.2,0.3-0.2,0.6
	c0,0.2,0.1,0.4,0.2,0.6s0.4,0.3,0.8,0.4c0.4,0.1,0.7,0.3,0.9,0.4c0.2,0.1,0.4,0.3,0.6,0.4c0.2,0.2,0.3,0.4,0.4,0.6
	c0.1,0.2,0.1,0.5,0.1,0.7c0,0.5-0.2,1-0.5,1.3c-0.3,0.3-0.8,0.5-1.4,0.6v0.9h-0.7v-0.9c-0.6-0.1-1.1-0.3-1.5-0.7
	c-0.3-0.4-0.5-0.9-0.5-1.5h1.3c0,0.4,0.1,0.7,0.3,0.8c0.2,0.2,0.4,0.3,0.8,0.3c0.3,0,0.5-0.1,0.6-0.2
	C172.7,152.7,172.8,152.5,172.8,152.3z M176.4,150.1h0.7c0.3,0,0.6-0.1,0.8-0.3c0.2-0.2,0.2-0.4,0.2-0.7c0-0.3-0.1-0.5-0.2-0.6
	c-0.2-0.2-0.4-0.2-0.7-0.2c-0.3,0-0.5,0.1-0.6,0.2c-0.2,0.1-0.3,0.3-0.3,0.5h-1.3c0-0.4,0.1-0.7,0.3-0.9c0.2-0.3,0.5-0.5,0.8-0.7
	c0.3-0.2,0.7-0.2,1.1-0.2c0.7,0,1.3,0.2,1.7,0.5c0.4,0.3,0.6,0.8,0.6,1.4c0,0.3-0.1,0.6-0.3,0.9c-0.2,0.3-0.4,0.5-0.7,0.6
	c0.4,0.1,0.7,0.3,0.8,0.6c0.2,0.3,0.3,0.6,0.3,1c0,0.6-0.2,1.1-0.7,1.4c-0.4,0.4-1,0.5-1.7,0.5c-0.7,0-1.2-0.2-1.7-0.5
	c-0.4-0.4-0.6-0.8-0.6-1.4h1.3c0,0.3,0.1,0.5,0.3,0.6c0.2,0.2,0.4,0.2,0.7,0.2c0.3,0,0.6-0.1,0.7-0.3c0.2-0.2,0.3-0.4,0.3-0.7
	c0-0.7-0.4-1-1.1-1h-0.7V150.1z M184.9,149.1c0,0.3-0.1,0.6-0.2,0.9c-0.2,0.3-0.4,0.5-0.7,0.6c0.3,0.2,0.6,0.4,0.8,0.7
	c0.2,0.3,0.3,0.6,0.3,1c0,0.6-0.2,1.1-0.6,1.4c-0.4,0.3-1,0.5-1.7,0.5c-0.7,0-1.3-0.2-1.7-0.5c-0.4-0.3-0.6-0.8-0.6-1.4
	c0-0.4,0.1-0.7,0.3-1c0.2-0.3,0.4-0.5,0.8-0.6c-0.3-0.2-0.5-0.4-0.7-0.6c-0.2-0.3-0.2-0.5-0.2-0.9c0-0.6,0.2-1,0.6-1.4
	c0.4-0.3,0.9-0.5,1.6-0.5c0.7,0,1.2,0.2,1.6,0.5C184.7,148.1,184.9,148.5,184.9,149.1z M183.7,152.1c0-0.3-0.1-0.5-0.3-0.7
	c-0.2-0.2-0.4-0.3-0.7-0.3c-0.3,0-0.5,0.1-0.7,0.3c-0.2,0.2-0.3,0.4-0.3,0.7c0,0.3,0.1,0.5,0.2,0.7c0.2,0.2,0.4,0.3,0.7,0.3
	c0.3,0,0.5-0.1,0.7-0.3C183.6,152.7,183.7,152.4,183.7,152.1z M183.5,149.2c0-0.3-0.1-0.5-0.2-0.6c-0.1-0.2-0.3-0.2-0.6-0.2
	c-0.2,0-0.4,0.1-0.6,0.2c-0.1,0.2-0.2,0.4-0.2,0.6c0,0.3,0.1,0.5,0.2,0.6c0.1,0.2,0.3,0.2,0.6,0.2c0.3,0,0.4-0.1,0.6-0.2
	C183.5,149.7,183.5,149.5,183.5,149.2z M186,153.4c0-0.2,0.1-0.4,0.2-0.5c0.1-0.1,0.3-0.2,0.5-0.2c0.2,0,0.4,0.1,0.5,0.2
	c0.1,0.1,0.2,0.3,0.2,0.5c0,0.2-0.1,0.4-0.2,0.5c-0.1,0.1-0.3,0.2-0.5,0.2c-0.2,0-0.4-0.1-0.5-0.2C186.1,153.8,186,153.6,186,153.4z
	 M189.1,155.8l-0.7-0.4l0.2-0.3c0.2-0.4,0.3-0.8,0.3-1.1v-1h1.1l0,0.9c0,0.3-0.1,0.7-0.3,1S189.3,155.5,189.1,155.8z M195,151.5h0.8
	v1.1H195v1.5h-1.3v-1.5h-2.8l-0.1-0.8l2.8-4.4h1.4V151.5z M192.1,151.5h1.5v-2.4l-0.1,0.2L192.1,151.5z M201,151.3
	c0,0.9-0.2,1.6-0.6,2.1c-0.4,0.5-1,0.7-1.7,0.7c-0.7,0-1.3-0.2-1.7-0.7c-0.4-0.5-0.6-1.2-0.6-2.1v-1.2c0-0.9,0.2-1.7,0.6-2.1
	c0.4-0.5,1-0.7,1.7-0.7s1.3,0.2,1.7,0.7c0.4,0.5,0.6,1.2,0.6,2.1V151.3z M199.6,149.9c0-0.6-0.1-1-0.2-1.2c-0.2-0.3-0.4-0.4-0.7-0.4
	c-0.3,0-0.5,0.1-0.7,0.4c-0.1,0.2-0.2,0.6-0.2,1.1v1.6c0,0.6,0.1,1,0.2,1.2c0.2,0.3,0.4,0.4,0.7,0.4c0.3,0,0.6-0.1,0.7-0.4
	c0.1-0.3,0.2-0.6,0.2-1.2V149.9z M206.4,151.3c0,0.9-0.2,1.6-0.6,2.1c-0.4,0.5-1,0.7-1.7,0.7c-0.7,0-1.3-0.2-1.7-0.7
	c-0.4-0.5-0.6-1.2-0.6-2.1v-1.2c0-0.9,0.2-1.7,0.6-2.1c0.4-0.5,1-0.7,1.7-0.7s1.3,0.2,1.7,0.7c0.4,0.5,0.6,1.2,0.6,2.1V151.3z
	 M205.1,149.9c0-0.6-0.1-1-0.2-1.2c-0.2-0.3-0.4-0.4-0.7-0.4c-0.3,0-0.5,0.1-0.7,0.4c-0.1,0.2-0.2,0.6-0.2,1.1v1.6
	c0,0.6,0.1,1,0.2,1.2c0.2,0.3,0.4,0.4,0.7,0.4c0.3,0,0.6-0.1,0.7-0.4c0.1-0.3,0.2-0.6,0.2-1.2V149.9z M207.5,153.4
	c0-0.2,0.1-0.4,0.2-0.5c0.1-0.1,0.3-0.2,0.5-0.2c0.2,0,0.4,0.1,0.5,0.2c0.1,0.1,0.2,0.3,0.2,0.5c0,0.2-0.1,0.4-0.2,0.5
	c-0.1,0.1-0.3,0.2-0.5,0.2c-0.2,0-0.4-0.1-0.5-0.2C207.5,153.8,207.5,153.6,207.5,153.4z M214.7,154.1h-4.6v-0.9l2.2-2.3
	c0.3-0.3,0.5-0.6,0.7-0.9c0.1-0.2,0.2-0.5,0.2-0.7c0-0.3-0.1-0.5-0.2-0.7c-0.2-0.2-0.4-0.3-0.6-0.3c-0.3,0-0.5,0.1-0.7,0.3
	c-0.2,0.2-0.3,0.5-0.3,0.8H210c0-0.4,0.1-0.8,0.3-1.1c0.2-0.3,0.5-0.6,0.8-0.8c0.4-0.2,0.8-0.3,1.2-0.3c0.7,0,1.2,0.2,1.6,0.5
	c0.4,0.3,0.6,0.8,0.6,1.4c0,0.3-0.1,0.7-0.3,1c-0.2,0.3-0.5,0.7-0.9,1.2l-1.5,1.6h2.9V154.1z M218.8,154.1h-1.3v-5.2l-1.6,0.5v-1.1
	l2.8-1h0.1V154.1z"/>
<path d="M114.8,154.1h-4.4v-0.6l2.3-2.6c0.3-0.4,0.6-0.7,0.7-1c0.1-0.2,0.2-0.5,0.2-0.8c0-0.4-0.1-0.6-0.3-0.9
	c-0.2-0.2-0.5-0.3-0.9-0.3c-0.4,0-0.8,0.1-1,0.4c-0.2,0.2-0.4,0.6-0.4,1h-0.9c0-0.6,0.2-1.1,0.6-1.5c0.4-0.4,0.9-0.6,1.6-0.6
	c0.6,0,1.1,0.2,1.5,0.5c0.4,0.3,0.5,0.8,0.5,1.3c0,0.7-0.4,1.5-1.3,2.4l-1.8,2h3.4V154.1z M119.3,151.8h0.9v0.7h-0.9v1.6h-0.9v-1.6
	h-3.1V152l3-4.7h0.9V151.8z M116.3,151.8h2.1v-3.3l-0.1,0.2L116.3,151.8z M122,149.7c0.4-0.5,0.9-0.7,1.5-0.7c1.1,0,1.6,0.6,1.6,1.8
	v3.3h-0.9v-3.3c0-0.4-0.1-0.6-0.2-0.8c-0.2-0.2-0.4-0.3-0.8-0.3c-0.3,0-0.5,0.1-0.7,0.2c-0.2,0.1-0.4,0.3-0.5,0.6v3.6h-0.9V147h0.9
	V149.7z"/>
<circle class="st9" cx="100.3" cy="149.8" r="3.6"/>
<path d="M172.8,172.5c0-0.3-0.1-0.5-0.2-0.6c-0.1-0.2-0.4-0.3-0.7-0.4c-0.3-0.1-0.6-0.3-0.9-0.4c-0.2-0.1-0.5-0.3-0.6-0.4
	c-0.2-0.2-0.3-0.4-0.4-0.6c-0.1-0.2-0.1-0.5-0.1-0.8c0-0.5,0.2-0.9,0.5-1.3c0.3-0.3,0.8-0.5,1.3-0.6v-1h0.7v1c0.5,0.1,1,0.3,1.3,0.7
	c0.3,0.4,0.5,0.9,0.5,1.5h-1.3c0-0.4-0.1-0.6-0.2-0.8c-0.2-0.2-0.4-0.3-0.6-0.3c-0.3,0-0.4,0.1-0.6,0.2c-0.1,0.1-0.2,0.3-0.2,0.6
	c0,0.2,0.1,0.4,0.2,0.6s0.4,0.3,0.8,0.4c0.4,0.1,0.7,0.3,0.9,0.4c0.2,0.1,0.4,0.3,0.6,0.4c0.2,0.2,0.3,0.4,0.4,0.6
	c0.1,0.2,0.1,0.5,0.1,0.7c0,0.5-0.2,1-0.5,1.3c-0.3,0.3-0.8,0.5-1.4,0.6v0.9h-0.7v-0.9c-0.6-0.1-1.1-0.3-1.5-0.7
	c-0.3-0.4-0.5-0.9-0.5-1.5h1.3c0,0.4,0.1,0.6,0.3,0.8c0.2,0.2,0.4,0.3,0.8,0.3c0.3,0,0.5-0.1,0.6-0.2
	C172.7,172.9,172.8,172.7,172.8,172.5z M176.4,170.3h0.7c0.3,0,0.6-0.1,0.8-0.3c0.2-0.2,0.2-0.4,0.2-0.7c0-0.3-0.1-0.5-0.2-0.6
	c-0.2-0.2-0.4-0.2-0.7-0.2c-0.3,0-0.5,0.1-0.6,0.2c-0.2,0.1-0.3,0.3-0.3,0.5h-1.3c0-0.4,0.1-0.7,0.3-0.9c0.2-0.3,0.5-0.5,0.8-0.7
	c0.3-0.2,0.7-0.2,1.1-0.2c0.7,0,1.3,0.2,1.7,0.5c0.4,0.3,0.6,0.8,0.6,1.4c0,0.3-0.1,0.6-0.3,0.9c-0.2,0.3-0.4,0.5-0.7,0.6
	c0.4,0.1,0.7,0.3,0.8,0.6c0.2,0.3,0.3,0.6,0.3,1c0,0.6-0.2,1.1-0.7,1.4c-0.4,0.4-1,0.5-1.7,0.5c-0.7,0-1.2-0.2-1.7-0.5
	c-0.4-0.4-0.6-0.8-0.6-1.4h1.3c0,0.3,0.1,0.5,0.3,0.6c0.2,0.2,0.4,0.2,0.7,0.2c0.3,0,0.6-0.1,0.7-0.3c0.2-0.2,0.3-0.4,0.3-0.7
	c0-0.7-0.4-1-1.1-1h-0.7V170.3z M183.7,174.2h-1.3v-5.2l-1.6,0.5v-1.1l2.8-1h0.1V174.2z M186,173.6c0-0.2,0.1-0.4,0.2-0.5
	c0.1-0.1,0.3-0.2,0.5-0.2c0.2,0,0.4,0.1,0.5,0.2c0.1,0.1,0.2,0.3,0.2,0.5c0,0.2-0.1,0.4-0.2,0.5c-0.1,0.1-0.3,0.2-0.5,0.2
	c-0.2,0-0.4-0.1-0.5-0.2C186.1,174,186,173.8,186,173.6z M190,170.3h0.7c0.3,0,0.6-0.1,0.8-0.3c0.2-0.2,0.2-0.4,0.2-0.7
	c0-0.3-0.1-0.5-0.2-0.6c-0.2-0.2-0.4-0.2-0.7-0.2c-0.3,0-0.5,0.1-0.6,0.2c-0.2,0.1-0.3,0.3-0.3,0.5h-1.3c0-0.4,0.1-0.7,0.3-0.9
	c0.2-0.3,0.5-0.5,0.8-0.7c0.3-0.2,0.7-0.2,1.1-0.2c0.7,0,1.3,0.2,1.7,0.5c0.4,0.3,0.6,0.8,0.6,1.4c0,0.3-0.1,0.6-0.3,0.9
	c-0.2,0.3-0.4,0.5-0.7,0.6c0.4,0.1,0.7,0.3,0.8,0.6c0.2,0.3,0.3,0.6,0.3,1c0,0.6-0.2,1.1-0.7,1.4c-0.4,0.4-1,0.5-1.7,0.5
	c-0.7,0-1.2-0.2-1.7-0.5c-0.4-0.4-0.6-0.8-0.6-1.4h1.3c0,0.3,0.1,0.5,0.3,0.6c0.2,0.2,0.4,0.2,0.7,0.2c0.3,0,0.6-0.1,0.7-0.3
	c0.2-0.2,0.3-0.4,0.3-0.7c0-0.7-0.4-1-1.1-1H190V170.3z M198.7,171.5c0,0.9-0.2,1.6-0.6,2.1c-0.4,0.5-1,0.7-1.7,0.7
	c-0.7,0-1.3-0.2-1.7-0.7c-0.4-0.5-0.6-1.2-0.6-2.1v-1.2c0-0.9,0.2-1.7,0.6-2.1c0.4-0.5,1-0.7,1.7-0.7s1.3,0.2,1.7,0.7
	c0.4,0.5,0.6,1.2,0.6,2.1V171.5z M197.3,170.1c0-0.6-0.1-1-0.2-1.2c-0.2-0.3-0.4-0.4-0.7-0.4c-0.3,0-0.5,0.1-0.7,0.4
	c-0.1,0.2-0.2,0.6-0.2,1.1v1.6c0,0.6,0.1,1,0.2,1.2c0.2,0.3,0.4,0.4,0.7,0.4c0.3,0,0.6-0.1,0.7-0.4c0.1-0.3,0.2-0.6,0.2-1.2V170.1z
	 M204.1,171.5c0,0.9-0.2,1.6-0.6,2.1c-0.4,0.5-1,0.7-1.7,0.7c-0.7,0-1.3-0.2-1.7-0.7c-0.4-0.5-0.6-1.2-0.6-2.1v-1.2
	c0-0.9,0.2-1.7,0.6-2.1c0.4-0.5,1-0.7,1.7-0.7s1.3,0.2,1.7,0.7c0.4,0.5,0.6,1.2,0.6,2.1V171.5z M202.8,170.1c0-0.6-0.1-1-0.2-1.2
	c-0.2-0.3-0.4-0.4-0.7-0.4c-0.3,0-0.5,0.1-0.7,0.4c-0.1,0.2-0.2,0.6-0.2,1.1v1.6c0,0.6,0.1,1,0.2,1.2c0.2,0.3,0.4,0.4,0.7,0.4
	c0.3,0,0.6-0.1,0.7-0.4c0.1-0.3,0.2-0.6,0.2-1.2V170.1z M205.2,173.6c0-0.2,0.1-0.4,0.2-0.5c0.1-0.1,0.3-0.2,0.5-0.2
	c0.2,0,0.4,0.1,0.5,0.2c0.1,0.1,0.2,0.3,0.2,0.5c0,0.2-0.1,0.4-0.2,0.5c-0.1,0.1-0.3,0.2-0.5,0.2c-0.2,0-0.4-0.1-0.5-0.2
	C205.2,174,205.2,173.8,205.2,173.6z M208,170.9l0.4-3.4h3.8v1.1h-2.7l-0.2,1.5c0.3-0.2,0.7-0.3,1-0.3c0.6,0,1.1,0.2,1.5,0.6
	c0.4,0.4,0.5,1,0.5,1.7c0,0.4-0.1,0.8-0.3,1.2c-0.2,0.3-0.4,0.6-0.8,0.8c-0.3,0.2-0.7,0.3-1.2,0.3c-0.4,0-0.8-0.1-1.1-0.2
	c-0.3-0.2-0.6-0.4-0.8-0.7c-0.2-0.3-0.3-0.6-0.3-1h1.3c0,0.3,0.1,0.5,0.3,0.7c0.2,0.2,0.4,0.2,0.7,0.2c0.3,0,0.5-0.1,0.7-0.3
	c0.2-0.2,0.2-0.5,0.2-0.9c0-0.4-0.1-0.7-0.3-0.9c-0.2-0.2-0.5-0.3-0.8-0.3c-0.3,0-0.6,0.1-0.8,0.2l-0.1,0.1L208,170.9z M217.6,169.3
	c0,0.3-0.1,0.6-0.2,0.9c-0.2,0.3-0.4,0.5-0.7,0.6c0.3,0.2,0.6,0.4,0.8,0.7c0.2,0.3,0.3,0.6,0.3,1c0,0.6-0.2,1.1-0.6,1.4
	c-0.4,0.3-1,0.5-1.7,0.5c-0.7,0-1.3-0.2-1.7-0.5c-0.4-0.3-0.6-0.8-0.6-1.4c0-0.4,0.1-0.7,0.3-1c0.2-0.3,0.4-0.5,0.8-0.6
	c-0.3-0.2-0.5-0.4-0.7-0.6c-0.2-0.3-0.2-0.5-0.2-0.9c0-0.6,0.2-1,0.6-1.4c0.4-0.3,0.9-0.5,1.6-0.5c0.7,0,1.2,0.2,1.6,0.5
	C217.4,168.2,217.6,168.7,217.6,169.3z M216.4,172.3c0-0.3-0.1-0.5-0.3-0.7c-0.2-0.2-0.4-0.3-0.7-0.3c-0.3,0-0.5,0.1-0.7,0.3
	c-0.2,0.2-0.3,0.4-0.3,0.7c0,0.3,0.1,0.5,0.2,0.7c0.2,0.2,0.4,0.3,0.7,0.3c0.3,0,0.5-0.1,0.7-0.3
	C216.4,172.8,216.4,172.6,216.4,172.3z M216.3,169.4c0-0.3-0.1-0.5-0.2-0.6c-0.1-0.2-0.3-0.2-0.6-0.2c-0.3,0-0.4,0.1-0.6,0.2
	c-0.1,0.2-0.2,0.4-0.2,0.6c0,0.3,0.1,0.5,0.2,0.6c0.1,0.2,0.3,0.2,0.6,0.2c0.3,0,0.4-0.1,0.6-0.2
	C216.2,169.8,216.3,169.6,216.3,169.4z"/>
<path d="M110.8,171c-0.8-0.2-1.3-0.5-1.7-0.8c-0.3-0.3-0.5-0.7-0.5-1.2c0-0.5,0.2-1,0.6-1.3c0.4-0.3,1-0.5,1.7-0.5
	c0.5,0,0.9,0.1,1.2,0.3c0.4,0.2,0.6,0.4,0.8,0.7c0.2,0.3,0.3,0.7,0.3,1h-0.9c0-0.4-0.1-0.7-0.4-1c-0.3-0.2-0.6-0.4-1.1-0.4
	c-0.4,0-0.8,0.1-1,0.3c-0.2,0.2-0.4,0.5-0.4,0.8c0,0.3,0.1,0.5,0.3,0.7c0.2,0.2,0.6,0.4,1.2,0.5c0.6,0.2,1,0.3,1.3,0.5
	c0.3,0.2,0.6,0.4,0.7,0.7c0.2,0.3,0.2,0.6,0.2,0.9c0,0.5-0.2,1-0.6,1.3c-0.4,0.3-1,0.5-1.7,0.5c-0.5,0-0.9-0.1-1.3-0.3
	c-0.4-0.2-0.7-0.4-0.9-0.7c-0.2-0.3-0.3-0.7-0.3-1.1h0.9c0,0.4,0.2,0.7,0.4,1c0.3,0.2,0.7,0.4,1.2,0.4c0.5,0,0.8-0.1,1.1-0.3
	c0.2-0.2,0.4-0.5,0.4-0.8c0-0.3-0.1-0.6-0.3-0.8C111.8,171.3,111.4,171.2,110.8,171z M116.4,174.1c-0.7,0-1.2-0.2-1.7-0.7
	c-0.4-0.4-0.6-1-0.6-1.8v-0.2c0-0.5,0.1-0.9,0.3-1.3c0.2-0.4,0.5-0.7,0.8-0.9c0.3-0.2,0.7-0.3,1.1-0.3c0.7,0,1.2,0.2,1.5,0.6
	c0.4,0.4,0.5,1,0.5,1.8v0.4h-3.4c0,0.5,0.2,0.9,0.4,1.2c0.3,0.3,0.6,0.5,1.1,0.5c0.3,0,0.6-0.1,0.8-0.2c0.2-0.1,0.4-0.3,0.6-0.5
	l0.5,0.4C117.8,173.8,117.2,174.1,116.4,174.1z M116.3,169.6c-0.3,0-0.6,0.1-0.9,0.4c-0.2,0.3-0.4,0.6-0.4,1.1h2.5V171
	c0-0.4-0.1-0.8-0.4-1C116.9,169.7,116.6,169.6,116.3,169.6z M120.1,169l0,0.6c0.4-0.4,0.9-0.6,1.5-0.6c0.7,0,1.2,0.3,1.4,0.8
	c0.2-0.2,0.4-0.4,0.6-0.6c0.3-0.1,0.6-0.2,1-0.2c1.1,0,1.7,0.6,1.7,1.7v3.4h-0.9v-3.3c0-0.4-0.1-0.6-0.2-0.8
	c-0.2-0.2-0.4-0.3-0.8-0.3c-0.3,0-0.6,0.1-0.8,0.3c-0.2,0.2-0.3,0.4-0.4,0.8v3.3h-0.9v-3.3c0-0.7-0.4-1.1-1.1-1.1
	c-0.6,0-0.9,0.2-1.2,0.7v3.7h-0.9v-5H120.1z M131,171.4v2.6h-0.9v-6.7h2.5c0.7,0,1.3,0.2,1.7,0.6c0.4,0.4,0.6,0.9,0.6,1.5
	c0,0.7-0.2,1.2-0.6,1.5c-0.4,0.4-1,0.5-1.8,0.5H131z M131,170.6h1.6c0.5,0,0.8-0.1,1.1-0.3c0.3-0.2,0.4-0.6,0.4-1
	c0-0.4-0.1-0.7-0.4-1c-0.3-0.2-0.6-0.4-1-0.4H131V170.6z M139,174c0-0.1-0.1-0.3-0.1-0.5c-0.4,0.4-0.9,0.6-1.4,0.6
	c-0.5,0-0.9-0.1-1.2-0.4c-0.3-0.3-0.5-0.6-0.5-1.1c0-0.5,0.2-0.9,0.6-1.2c0.4-0.3,1-0.4,1.7-0.4h0.8v-0.4c0-0.3-0.1-0.5-0.3-0.7
	c-0.2-0.2-0.4-0.3-0.8-0.3c-0.3,0-0.6,0.1-0.8,0.2c-0.2,0.2-0.3,0.3-0.3,0.6h-0.9c0-0.2,0.1-0.5,0.3-0.7c0.2-0.2,0.4-0.4,0.7-0.6
	c0.3-0.1,0.6-0.2,1-0.2c0.6,0,1,0.1,1.4,0.4c0.3,0.3,0.5,0.7,0.5,1.2v2.3c0,0.5,0.1,0.8,0.2,1.1v0.1H139z M137.6,173.3
	c0.3,0,0.5-0.1,0.8-0.2c0.2-0.1,0.4-0.3,0.5-0.5v-1h-0.7c-1.1,0-1.6,0.3-1.6,0.9c0,0.3,0.1,0.5,0.3,0.6
	C137.1,173.3,137.3,173.3,137.6,173.3z M144,172.7c0-0.2-0.1-0.4-0.3-0.5c-0.2-0.1-0.5-0.2-0.9-0.3c-0.4-0.1-0.8-0.2-1-0.3
	c-0.3-0.1-0.4-0.3-0.6-0.5c-0.1-0.2-0.2-0.4-0.2-0.6c0-0.4,0.2-0.8,0.5-1c0.3-0.3,0.8-0.4,1.3-0.4c0.6,0,1,0.1,1.4,0.4
	c0.4,0.3,0.5,0.7,0.5,1.1H144c0-0.2-0.1-0.4-0.3-0.6c-0.2-0.2-0.4-0.3-0.8-0.3c-0.3,0-0.6,0.1-0.7,0.2c-0.2,0.1-0.3,0.3-0.3,0.5
	c0,0.2,0.1,0.4,0.2,0.5s0.5,0.2,0.9,0.3c0.4,0.1,0.8,0.2,1,0.3c0.3,0.1,0.5,0.3,0.6,0.5c0.1,0.2,0.2,0.4,0.2,0.7
	c0,0.4-0.2,0.8-0.5,1.1c-0.4,0.3-0.8,0.4-1.4,0.4c-0.4,0-0.8-0.1-1.1-0.2c-0.3-0.1-0.6-0.3-0.7-0.6c-0.2-0.3-0.3-0.5-0.3-0.8h0.9
	c0,0.3,0.1,0.5,0.3,0.7c0.2,0.2,0.5,0.2,0.9,0.2c0.3,0,0.6-0.1,0.8-0.2C143.9,173.1,144,172.9,144,172.7z M148.9,172.7
	c0-0.2-0.1-0.4-0.3-0.5c-0.2-0.1-0.5-0.2-0.9-0.3c-0.4-0.1-0.8-0.2-1-0.3c-0.3-0.1-0.4-0.3-0.6-0.5c-0.1-0.2-0.2-0.4-0.2-0.6
	c0-0.4,0.2-0.8,0.5-1c0.3-0.3,0.8-0.4,1.3-0.4c0.6,0,1,0.1,1.4,0.4c0.4,0.3,0.5,0.7,0.5,1.1h-0.9c0-0.2-0.1-0.4-0.3-0.6
	c-0.2-0.2-0.4-0.3-0.8-0.3c-0.3,0-0.6,0.1-0.7,0.2c-0.2,0.1-0.3,0.3-0.3,0.5c0,0.2,0.1,0.4,0.2,0.5s0.5,0.2,0.9,0.3
	c0.4,0.1,0.8,0.2,1,0.3c0.3,0.1,0.5,0.3,0.6,0.5c0.1,0.2,0.2,0.4,0.2,0.7c0,0.4-0.2,0.8-0.5,1.1c-0.4,0.3-0.8,0.4-1.4,0.4
	c-0.4,0-0.8-0.1-1.1-0.2c-0.3-0.1-0.6-0.3-0.7-0.6c-0.2-0.3-0.3-0.5-0.3-0.8h0.9c0,0.3,0.1,0.5,0.3,0.7c0.2,0.2,0.5,0.2,0.9,0.2
	c0.3,0,0.6-0.1,0.8-0.2C148.8,173.1,148.9,172.9,148.9,172.7z M153,174.1c-0.7,0-1.2-0.2-1.7-0.7c-0.4-0.4-0.6-1-0.6-1.8v-0.2
	c0-0.5,0.1-0.9,0.3-1.3c0.2-0.4,0.5-0.7,0.8-0.9c0.3-0.2,0.7-0.3,1.1-0.3c0.7,0,1.2,0.2,1.5,0.6c0.4,0.4,0.5,1,0.5,1.8v0.4h-3.4
	c0,0.5,0.2,0.9,0.4,1.2c0.3,0.3,0.6,0.5,1.1,0.5c0.3,0,0.6-0.1,0.8-0.2c0.2-0.1,0.4-0.3,0.6-0.5l0.5,0.4
	C154.4,173.8,153.8,174.1,153,174.1z M152.9,169.6c-0.3,0-0.6,0.1-0.9,0.4c-0.2,0.3-0.4,0.6-0.4,1.1h2.5V171c0-0.4-0.1-0.8-0.4-1
	C153.5,169.7,153.2,169.6,152.9,169.6z M153.3,166.9h1l-1.2,1.4h-0.7L153.3,166.9z M158,174.1c-0.7,0-1.2-0.2-1.7-0.7
	c-0.4-0.4-0.6-1-0.6-1.8v-0.2c0-0.5,0.1-0.9,0.3-1.3c0.2-0.4,0.5-0.7,0.8-0.9c0.3-0.2,0.7-0.3,1.1-0.3c0.7,0,1.2,0.2,1.5,0.6
	c0.4,0.4,0.5,1,0.5,1.8v0.4h-3.4c0,0.5,0.2,0.9,0.4,1.2c0.3,0.3,0.6,0.5,1.1,0.5c0.3,0,0.6-0.1,0.8-0.2c0.2-0.1,0.4-0.3,0.6-0.5
	l0.5,0.4C159.5,173.8,158.8,174.1,158,174.1z M157.9,169.6c-0.3,0-0.6,0.1-0.9,0.4c-0.2,0.3-0.4,0.6-0.4,1.1h2.5V171
	c0-0.4-0.1-0.8-0.4-1C158.5,169.7,158.2,169.6,157.9,169.6z"/>
<circle class="st10" cx="100.3" cy="170" r="3.6"/>
<path d="M306.2,103.7h-2.1v5.8h-1.2v-5.8h-2.1v-0.9h5.4V103.7z M305.8,107c0-0.5,0.1-0.9,0.3-1.3c0.2-0.4,0.5-0.7,0.8-0.9
	c0.4-0.2,0.8-0.3,1.2-0.3c0.7,0,1.2,0.2,1.6,0.7c0.4,0.4,0.7,1,0.7,1.7l0,0.3c0,0.5-0.1,0.9-0.3,1.3c-0.2,0.4-0.5,0.7-0.8,0.9
	c-0.4,0.2-0.8,0.3-1.2,0.3c-0.7,0-1.3-0.2-1.7-0.7C306,108.4,305.8,107.8,305.8,107L305.8,107z M306.9,107.1c0,0.5,0.1,0.9,0.3,1.2
	c0.2,0.3,0.5,0.4,0.9,0.4c0.4,0,0.7-0.1,0.9-0.4c0.2-0.3,0.3-0.7,0.3-1.3c0-0.5-0.1-0.9-0.3-1.2c-0.2-0.3-0.5-0.4-0.9-0.4
	c-0.4,0-0.7,0.1-0.9,0.4C307,106,306.9,106.5,306.9,107.1z M312.8,103.3v1.2h0.9v0.8h-0.9v2.8c0,0.2,0,0.3,0.1,0.4
	c0.1,0.1,0.2,0.1,0.4,0.1c0.1,0,0.3,0,0.4,0v0.9c-0.3,0.1-0.5,0.1-0.7,0.1c-0.9,0-1.3-0.5-1.3-1.4v-2.8h-0.8v-0.8h0.8v-1.2H312.8z
	 M317.5,109.5c0-0.1-0.1-0.3-0.1-0.5c-0.4,0.4-0.8,0.6-1.3,0.6c-0.5,0-0.9-0.1-1.2-0.4s-0.5-0.6-0.5-1.1c0-0.5,0.2-0.9,0.6-1.2
	c0.4-0.3,1-0.4,1.7-0.4h0.7v-0.3c0-0.3-0.1-0.5-0.2-0.6c-0.1-0.2-0.4-0.2-0.7-0.2c-0.3,0-0.5,0.1-0.6,0.2c-0.2,0.1-0.2,0.3-0.2,0.5
	h-1.1c0-0.3,0.1-0.5,0.3-0.8c0.2-0.2,0.4-0.4,0.7-0.6c0.3-0.1,0.7-0.2,1.1-0.2c0.6,0,1.1,0.1,1.4,0.4c0.4,0.3,0.5,0.7,0.5,1.2v2.3
	c0,0.5,0.1,0.8,0.2,1.1v0.1H317.5z M316.3,108.7c0.2,0,0.4-0.1,0.6-0.2c0.2-0.1,0.3-0.3,0.4-0.4v-0.9h-0.6c-0.4,0-0.7,0.1-0.9,0.2
	c-0.2,0.1-0.3,0.4-0.3,0.6c0,0.2,0.1,0.4,0.2,0.5C315.9,108.6,316.1,108.7,316.3,108.7z M320.9,109.5h-1.1v-7.1h1.1V109.5z
	 M322.8,108.3c0.2,0,0.4,0.1,0.5,0.2c0.1,0.1,0.2,0.3,0.2,0.4c0,0.2-0.1,0.3-0.2,0.4c-0.1,0.1-0.3,0.2-0.5,0.2
	c-0.2,0-0.4-0.1-0.5-0.2c-0.1-0.1-0.2-0.3-0.2-0.4c0-0.2,0.1-0.3,0.2-0.4C322.4,108.4,322.6,108.3,322.8,108.3z M322.8,104.4
	c0.2,0,0.4,0.1,0.5,0.2c0.1,0.1,0.2,0.3,0.2,0.4c0,0.2-0.1,0.3-0.2,0.4c-0.1,0.1-0.3,0.2-0.5,0.2c-0.2,0-0.4-0.1-0.5-0.2
	c-0.1-0.1-0.2-0.3-0.2-0.4s0.1-0.3,0.2-0.4C322.4,104.4,322.6,104.4,322.8,104.4z"/>
<path class="st5" d="M280.9,125.5c0-0.4-0.1-0.7-0.3-0.9c-0.2-0.2-0.6-0.5-1.1-0.6c-0.5-0.2-1-0.4-1.2-0.5c-1-0.5-1.5-1.3-1.5-2.4
	c0-0.7,0.2-1.3,0.6-1.7c0.4-0.5,1-0.7,1.7-0.8v-1.4h1v1.4c0.7,0.1,1.3,0.4,1.7,0.9c0.4,0.5,0.6,1.2,0.6,2h-1.5c0-0.5-0.1-1-0.4-1.3
	c-0.2-0.3-0.6-0.5-1-0.5c-0.4,0-0.7,0.1-1,0.3c-0.2,0.2-0.3,0.5-0.3,0.9c0,0.4,0.1,0.7,0.3,0.9c0.2,0.2,0.6,0.4,1.2,0.6
	c0.5,0.2,1,0.4,1.3,0.6s0.6,0.4,0.8,0.6c0.2,0.2,0.4,0.5,0.5,0.8c0.1,0.3,0.2,0.6,0.2,1c0,0.7-0.2,1.3-0.7,1.7
	c-0.4,0.4-1.1,0.7-1.8,0.8v1.2h-1V128c-0.8-0.1-1.5-0.4-1.9-0.9c-0.5-0.5-0.7-1.2-0.7-2h1.5c0,0.5,0.1,0.9,0.4,1.2
	c0.3,0.3,0.7,0.4,1.1,0.4c0.5,0,0.9-0.1,1.1-0.4C280.8,126.2,280.9,125.9,280.9,125.5z M288,127.9h-1.5v-7.4l-2.3,0.8V120l3.6-1.3
	h0.2V127.9z M295.4,127.9h-1.5v-7.4l-2.3,0.8V120l3.6-1.3h0.2V127.9z M299.1,123.3l0.5-4.7h5v1.3h-3.7l-0.3,2.2
	c0.4-0.2,0.9-0.4,1.5-0.4c0.9,0,1.6,0.3,2.1,0.8c0.5,0.6,0.7,1.3,0.7,2.3c0,0.9-0.3,1.7-0.8,2.3c-0.5,0.6-1.3,0.8-2.2,0.8
	c-0.8,0-1.6-0.2-2.1-0.7c-0.6-0.5-0.9-1.1-0.9-1.9h1.5c0.1,0.4,0.2,0.8,0.5,1c0.3,0.2,0.6,0.4,1,0.4c0.5,0,0.8-0.2,1.1-0.5
	c0.3-0.3,0.4-0.8,0.4-1.4c0-0.6-0.1-1-0.4-1.3c-0.3-0.3-0.7-0.5-1.2-0.5c-0.3,0-0.5,0-0.7,0.1c-0.2,0.1-0.4,0.2-0.6,0.4L299.1,123.3
	z M306.4,130l-0.8-0.5c0.2-0.4,0.4-0.7,0.5-1c0.1-0.3,0.1-0.6,0.1-0.9v-1.2h1.4l0,1.1c0,0.5-0.1,0.9-0.3,1.4
	C307,129.4,306.7,129.7,306.4,130z M313.1,127.9h-1.5v-7.4l-2.3,0.8V120l3.6-1.3h0.2V127.9z M321.2,118.6v1.3H321
	c-0.9,0-1.6,0.3-2.1,0.7c-0.5,0.5-0.8,1.1-0.9,2c0.5-0.5,1.1-0.8,1.9-0.8c0.8,0,1.5,0.3,1.9,0.9c0.5,0.6,0.7,1.3,0.7,2.2
	c0,0.9-0.3,1.7-0.8,2.3c-0.6,0.6-1.3,0.9-2.2,0.9c-0.9,0-1.7-0.3-2.3-1c-0.6-0.7-0.9-1.6-0.9-2.7v-0.5c0-1.6,0.4-2.9,1.2-3.8
	c0.8-0.9,1.9-1.4,3.4-1.4H321.2z M319.5,123c-0.3,0-0.7,0.1-0.9,0.3c-0.3,0.2-0.5,0.4-0.6,0.8v0.5c0,0.7,0.1,1.2,0.4,1.6
	c0.3,0.4,0.7,0.6,1.1,0.6c0.5,0,0.8-0.2,1.1-0.5c0.3-0.3,0.4-0.8,0.4-1.4c0-0.6-0.1-1-0.4-1.4C320.3,123.2,320,123,319.5,123z
	 M328,127.9h-1.5v-7.4l-2.3,0.8V120l3.6-1.3h0.2V127.9z M332.2,126.3c0.3,0,0.5,0.1,0.7,0.2c0.2,0.2,0.2,0.4,0.2,0.6
	c0,0.2-0.1,0.4-0.2,0.6c-0.2,0.2-0.4,0.2-0.7,0.2c-0.3,0-0.5-0.1-0.7-0.2c-0.2-0.2-0.2-0.4-0.2-0.6c0-0.2,0.1-0.4,0.2-0.6
	C331.7,126.4,332,126.3,332.2,126.3z M341,119.5l-3.7,8.4h-1.6l3.7-8h-4.8v-1.2h6.4V119.5z M344,122.6h0.9c0.5,0,0.9-0.1,1.1-0.4
	c0.3-0.2,0.4-0.6,0.4-1.1c0-0.4-0.1-0.8-0.4-1c-0.2-0.2-0.6-0.4-1.1-0.4c-0.4,0-0.8,0.1-1,0.4c-0.3,0.2-0.4,0.6-0.4,0.9h-1.5
	c0-0.5,0.1-0.9,0.4-1.3c0.3-0.4,0.6-0.7,1.1-0.9c0.5-0.2,1-0.3,1.5-0.3c0.9,0,1.7,0.2,2.2,0.7c0.5,0.5,0.8,1.1,0.8,1.9
	c0,0.4-0.1,0.8-0.4,1.2c-0.3,0.4-0.6,0.6-1,0.8c0.5,0.2,0.9,0.4,1.2,0.8c0.3,0.4,0.4,0.8,0.4,1.3c0,0.8-0.3,1.5-0.9,2
	c-0.6,0.5-1.3,0.7-2.2,0.7c-0.9,0-1.6-0.2-2.2-0.7c-0.6-0.5-0.9-1.1-0.9-1.9h1.5c0,0.4,0.1,0.7,0.4,1c0.3,0.3,0.6,0.4,1.1,0.4
	c0.5,0,0.9-0.1,1.1-0.4c0.3-0.3,0.4-0.6,0.4-1.1c0-0.5-0.1-0.9-0.4-1.1c-0.3-0.3-0.7-0.4-1.3-0.4H344V122.6z"/>
<circle class="st11" cx="312.9" cy="115.9" r="63.5"/>
<defs>
	<filter id="Adobe_OpacityMaskFilter" filterUnits="userSpaceOnUse" x="185.4" y="12.1" width="229" height="200.5">
		<feColorMatrix  type="matrix" values="1 0 0 0 0  0 1 0 0 0  0 0 1 0 0  0 0 0 1 0"/>
	</filter>
</defs>
<mask maskUnits="userSpaceOnUse" x="185.4" y="12.1" width="229" height="200.5" id="mask0_1_">
	<circle class="st12" cx="312.9" cy="115.9" r="63.5"/>
</mask>
<g class="st13">
	<path class="st9" d="M312.3,129V12.1L185.4,129H312.3z"/>
	<path class="st8" d="M414.4,115.9H210.9v5.3l19,84.8l144.1,6.5L414.4,115.9z"/>
</g>
<line class="st14" x1="312.3" y1="40" x2="312.3" y2="64.9"/>
<line class="st14" x1="237" y1="115.3" x2="388.9" y2="115.3"/>
<rect x="87.5" y="82.7" class="st4" width="44.3" height="17.9"/>
<rect x="131.3" y="82.2" class="st5" width="45.4" height="19"/>
<rect x="176.2" y="82.5" class="st4" width="52.9" height="17.9"/>
<path class="st6" d="M91.9,95.5v-6h1.7c0.5,0,1,0.1,1.4,0.3c0.4,0.2,0.7,0.6,0.9,1c0.2,0.4,0.3,0.9,0.3,1.5v0.4
	c0,0.6-0.1,1.1-0.3,1.5c-0.2,0.4-0.5,0.8-0.9,1c-0.4,0.2-0.9,0.3-1.4,0.4H91.9z M92.7,90.1v4.7h0.8c0.6,0,1.1-0.2,1.4-0.6
	c0.3-0.4,0.5-0.9,0.5-1.6v-0.4c0-0.7-0.2-1.2-0.5-1.6c-0.3-0.4-0.8-0.6-1.4-0.6H92.7z M99.2,95.5c-0.6,0-1.1-0.2-1.5-0.6
	c-0.4-0.4-0.6-0.9-0.6-1.6v-0.1c0-0.4,0.1-0.8,0.3-1.2c0.2-0.3,0.4-0.6,0.7-0.8c0.3-0.2,0.6-0.3,1-0.3c0.6,0,1,0.2,1.4,0.6
	c0.3,0.4,0.5,0.9,0.5,1.6v0.3h-3c0,0.4,0.1,0.8,0.4,1.1c0.2,0.3,0.6,0.4,0.9,0.4c0.3,0,0.5-0.1,0.7-0.2c0.2-0.1,0.4-0.3,0.5-0.4
	l0.5,0.4C100.5,95.3,99.9,95.5,99.2,95.5z M99.1,91.5c-0.3,0-0.6,0.1-0.8,0.3c-0.2,0.2-0.3,0.5-0.4,0.9h2.2v-0.1
	c0-0.4-0.1-0.7-0.3-0.9C99.7,91.7,99.4,91.5,99.1,91.5z M104,91.7c-0.1,0-0.2,0-0.4,0c-0.5,0-0.8,0.2-1,0.6v3.2h-0.8V91h0.7l0,0.5
	c0.2-0.4,0.6-0.6,1.1-0.6c0.1,0,0.3,0,0.3,0.1V91.7z M107.5,91.5c0.3-0.4,0.8-0.6,1.3-0.6c0.9,0,1.4,0.5,1.4,1.6v2.9h-0.8v-3
	c0-0.3-0.1-0.6-0.2-0.7c-0.1-0.2-0.4-0.2-0.7-0.2c-0.2,0-0.5,0.1-0.7,0.2c-0.2,0.1-0.3,0.3-0.4,0.5v3.2h-0.8v-6.3h0.8V91.5z
	 M113.3,95.5c-0.6,0-1.1-0.2-1.5-0.6c-0.4-0.4-0.6-0.9-0.6-1.6v-0.1c0-0.4,0.1-0.8,0.3-1.2c0.2-0.3,0.4-0.6,0.7-0.8
	c0.3-0.2,0.6-0.3,1-0.3c0.6,0,1,0.2,1.4,0.6c0.3,0.4,0.5,0.9,0.5,1.6v0.3h-3c0,0.4,0.1,0.8,0.4,1.1c0.2,0.3,0.6,0.4,0.9,0.4
	c0.3,0,0.5-0.1,0.7-0.2c0.2-0.1,0.4-0.3,0.5-0.4l0.5,0.4C114.6,95.3,114,95.5,113.3,95.5z M113.2,91.5c-0.3,0-0.6,0.1-0.8,0.3
	c-0.2,0.2-0.3,0.5-0.4,0.9h2.2v-0.1c0-0.4-0.1-0.7-0.3-0.9C113.8,91.7,113.5,91.5,113.2,91.5z M118.7,95c-0.3,0.3-0.7,0.5-1.3,0.5
	c-0.5,0-0.8-0.1-1.1-0.4c-0.2-0.3-0.4-0.7-0.4-1.2V91h0.8v2.9c0,0.7,0.3,1,0.8,1c0.6,0,1-0.2,1.2-0.7V91h0.8v4.5h-0.7L118.7,95z
	 M122.7,91.7c-0.1,0-0.2,0-0.4,0c-0.5,0-0.8,0.2-1,0.6v3.2h-0.8V91h0.7l0,0.5c0.2-0.4,0.6-0.6,1.1-0.6c0.1,0,0.3,0,0.3,0.1V91.7z
	 M125.2,95.5c-0.6,0-1.1-0.2-1.5-0.6c-0.4-0.4-0.6-0.9-0.6-1.6v-0.1c0-0.4,0.1-0.8,0.3-1.2c0.2-0.3,0.4-0.6,0.7-0.8
	c0.3-0.2,0.6-0.3,1-0.3c0.6,0,1,0.2,1.4,0.6c0.3,0.4,0.5,0.9,0.5,1.6v0.3h-3c0,0.4,0.1,0.8,0.4,1.1c0.2,0.3,0.6,0.4,0.9,0.4
	c0.3,0,0.5-0.1,0.7-0.2c0.2-0.1,0.4-0.3,0.5-0.4l0.5,0.4C126.5,95.3,125.9,95.5,125.2,95.5z M125.1,91.5c-0.3,0-0.6,0.1-0.8,0.3
	c-0.2,0.2-0.3,0.5-0.4,0.9h2.2v-0.1c0-0.4-0.1-0.7-0.3-0.9C125.7,91.7,125.4,91.5,125.1,91.5z"/>
<path class="st7" d="M143.2,95.5h-4v-0.7l2-2.2c0.3-0.3,0.5-0.6,0.6-0.8c0.1-0.2,0.2-0.4,0.2-0.7c0-0.3-0.1-0.5-0.2-0.7
	c-0.2-0.2-0.4-0.3-0.6-0.3c-0.3,0-0.6,0.1-0.8,0.3c-0.2,0.2-0.3,0.5-0.3,0.8h-1c0-0.4,0.1-0.7,0.2-1c0.2-0.3,0.4-0.5,0.7-0.7
	c0.3-0.2,0.7-0.2,1.1-0.2c0.6,0,1,0.1,1.4,0.4c0.3,0.3,0.5,0.7,0.5,1.2c0,0.3-0.1,0.6-0.3,0.9c-0.2,0.3-0.4,0.7-0.8,1.1l-1.5,1.6
	h2.8V95.5z M147.4,93.3h0.7v0.8h-0.7v1.3h-1v-1.3h-2.6l0-0.6l2.6-4.1h1V93.3z M144.8,93.3h1.6v-2.5l-0.1,0.1L144.8,93.3z
	 M149.8,91.5c0.3-0.4,0.7-0.6,1.2-0.6c1,0,1.4,0.5,1.4,1.6v2.9h-1v-2.9c0-0.3-0.1-0.5-0.2-0.7c-0.1-0.1-0.3-0.2-0.6-0.2
	c-0.4,0-0.7,0.2-0.9,0.5v3.2h-1v-6.3h1V91.5z"/>
<path class="st6" d="M182.1,92.3c-0.7-0.2-1.2-0.4-1.5-0.7c-0.3-0.3-0.5-0.6-0.5-1.1c0-0.5,0.2-0.9,0.6-1.2c0.4-0.3,0.9-0.5,1.5-0.5
	c0.4,0,0.8,0.1,1.1,0.2c0.3,0.2,0.6,0.4,0.8,0.7c0.2,0.3,0.3,0.6,0.3,0.9h-0.8c0-0.4-0.1-0.6-0.3-0.9c-0.2-0.2-0.6-0.3-1-0.3
	c-0.4,0-0.7,0.1-0.9,0.3c-0.2,0.2-0.3,0.4-0.3,0.7c0,0.2,0.1,0.5,0.3,0.6c0.2,0.2,0.6,0.3,1.1,0.5c0.5,0.1,0.9,0.3,1.2,0.5
	c0.3,0.2,0.5,0.4,0.6,0.6c0.1,0.2,0.2,0.5,0.2,0.8c0,0.5-0.2,0.9-0.6,1.2c-0.4,0.3-0.9,0.4-1.5,0.4c-0.4,0-0.8-0.1-1.2-0.2
	c-0.4-0.2-0.6-0.4-0.8-0.7c-0.2-0.3-0.3-0.6-0.3-0.9h0.8c0,0.4,0.1,0.7,0.4,0.9c0.3,0.2,0.6,0.3,1.1,0.3c0.4,0,0.7-0.1,1-0.3
	c0.2-0.2,0.3-0.4,0.3-0.7c0-0.3-0.1-0.5-0.3-0.7C183,92.6,182.6,92.5,182.1,92.3z M187.1,95.1c-0.6,0-1.1-0.2-1.5-0.6
	c-0.4-0.4-0.6-0.9-0.6-1.6v-0.1c0-0.4,0.1-0.8,0.3-1.2c0.2-0.3,0.4-0.6,0.7-0.8c0.3-0.2,0.6-0.3,1-0.3c0.6,0,1,0.2,1.4,0.6
	c0.3,0.4,0.5,0.9,0.5,1.6V93h-3c0,0.4,0.1,0.8,0.4,1.1c0.2,0.3,0.6,0.4,0.9,0.4c0.3,0,0.5-0.1,0.7-0.2c0.2-0.1,0.4-0.3,0.5-0.4
	l0.5,0.4C188.4,94.8,187.8,95.1,187.1,95.1z M187,91.1c-0.3,0-0.6,0.1-0.8,0.3c-0.2,0.2-0.3,0.5-0.4,0.9h2.2v-0.1
	c0-0.4-0.1-0.7-0.3-0.9C187.6,91.2,187.3,91.1,187,91.1z M190.4,90.5l0,0.5c0.3-0.4,0.8-0.6,1.3-0.6c0.6,0,1,0.2,1.3,0.7
	c0.1-0.2,0.3-0.4,0.6-0.5c0.2-0.1,0.5-0.2,0.8-0.2c1,0,1.5,0.5,1.5,1.6v3h-0.8v-2.9c0-0.3-0.1-0.6-0.2-0.7c-0.1-0.2-0.4-0.2-0.7-0.2
	c-0.3,0-0.5,0.1-0.7,0.3c-0.2,0.2-0.3,0.4-0.3,0.7v3h-0.8v-2.9c0-0.6-0.3-1-1-1c-0.5,0-0.8,0.2-1,0.6V95h-0.8v-4.5H190.4z
	 M200.1,92.6V95h-0.8v-6h2.2c0.7,0,1.2,0.2,1.5,0.5c0.4,0.3,0.6,0.8,0.6,1.3c0,0.6-0.2,1-0.5,1.3c-0.4,0.3-0.9,0.5-1.6,0.5H200.1z
	 M200.1,92h1.4c0.4,0,0.7-0.1,1-0.3c0.2-0.2,0.3-0.5,0.3-0.9c0-0.4-0.1-0.6-0.3-0.9c-0.2-0.2-0.5-0.3-0.9-0.3h-1.5V92z M207.2,95
	c0-0.1-0.1-0.2-0.1-0.5c-0.4,0.4-0.8,0.6-1.3,0.6c-0.4,0-0.8-0.1-1.1-0.4c-0.3-0.3-0.4-0.6-0.4-0.9c0-0.5,0.2-0.8,0.5-1.1
	c0.4-0.3,0.9-0.4,1.5-0.4h0.7v-0.4c0-0.3-0.1-0.5-0.2-0.6c-0.2-0.2-0.4-0.2-0.7-0.2c-0.3,0-0.5,0.1-0.7,0.2
	c-0.2,0.1-0.3,0.3-0.3,0.5h-0.8c0-0.2,0.1-0.4,0.2-0.6c0.2-0.2,0.4-0.4,0.6-0.5c0.3-0.1,0.6-0.2,0.9-0.2c0.5,0,0.9,0.1,1.2,0.4
	c0.3,0.3,0.4,0.6,0.5,1.1V94c0,0.4,0.1,0.7,0.2,1V95H207.2z M206,94.4c0.2,0,0.5-0.1,0.7-0.2c0.2-0.1,0.4-0.3,0.5-0.5v-0.9h-0.6
	c-0.9,0-1.4,0.3-1.4,0.8c0,0.2,0.1,0.4,0.2,0.6C205.5,94.4,205.7,94.4,206,94.4z M211.7,93.8c0-0.2-0.1-0.4-0.2-0.5
	c-0.2-0.1-0.4-0.2-0.8-0.3c-0.4-0.1-0.7-0.2-0.9-0.3c-0.2-0.1-0.4-0.3-0.5-0.4c-0.1-0.2-0.2-0.3-0.2-0.6c0-0.4,0.2-0.7,0.5-0.9
	c0.3-0.3,0.7-0.4,1.2-0.4c0.5,0,0.9,0.1,1.2,0.4c0.3,0.3,0.5,0.6,0.5,1h-0.8c0-0.2-0.1-0.4-0.3-0.5c-0.2-0.2-0.4-0.2-0.7-0.2
	c-0.3,0-0.5,0.1-0.7,0.2c-0.2,0.1-0.2,0.3-0.2,0.5c0,0.2,0.1,0.3,0.2,0.4c0.1,0.1,0.4,0.2,0.8,0.3c0.4,0.1,0.7,0.2,0.9,0.3
	c0.2,0.1,0.4,0.3,0.5,0.4c0.1,0.2,0.2,0.4,0.2,0.6c0,0.4-0.2,0.7-0.5,1c-0.3,0.2-0.7,0.4-1.2,0.4c-0.4,0-0.7-0.1-0.9-0.2
	c-0.3-0.1-0.5-0.3-0.6-0.5c-0.2-0.2-0.2-0.5-0.2-0.7h0.8c0,0.3,0.1,0.5,0.3,0.6c0.2,0.1,0.4,0.2,0.8,0.2c0.3,0,0.5-0.1,0.7-0.2
	C211.6,94.2,211.7,94,211.7,93.8z M216,93.8c0-0.2-0.1-0.4-0.2-0.5c-0.2-0.1-0.4-0.2-0.8-0.3c-0.4-0.1-0.7-0.2-0.9-0.3
	c-0.2-0.1-0.4-0.3-0.5-0.4c-0.1-0.2-0.2-0.3-0.2-0.6c0-0.4,0.2-0.7,0.5-0.9c0.3-0.3,0.7-0.4,1.2-0.4c0.5,0,0.9,0.1,1.2,0.4
	c0.3,0.3,0.5,0.6,0.5,1H216c0-0.2-0.1-0.4-0.3-0.5c-0.2-0.2-0.4-0.2-0.7-0.2c-0.3,0-0.5,0.1-0.7,0.2c-0.2,0.1-0.2,0.3-0.2,0.5
	c0,0.2,0.1,0.3,0.2,0.4c0.1,0.1,0.4,0.2,0.8,0.3c0.4,0.1,0.7,0.2,0.9,0.3c0.2,0.1,0.4,0.3,0.5,0.4c0.1,0.2,0.2,0.4,0.2,0.6
	c0,0.4-0.2,0.7-0.5,1c-0.3,0.2-0.7,0.4-1.2,0.4c-0.4,0-0.7-0.1-0.9-0.2c-0.3-0.1-0.5-0.3-0.6-0.5c-0.2-0.2-0.2-0.5-0.2-0.7h0.8
	c0,0.3,0.1,0.5,0.3,0.6c0.2,0.1,0.4,0.2,0.8,0.2c0.3,0,0.5-0.1,0.7-0.2C215.9,94.2,216,94,216,93.8z M219.6,95.1
	c-0.6,0-1.1-0.2-1.5-0.6c-0.4-0.4-0.6-0.9-0.6-1.6v-0.1c0-0.4,0.1-0.8,0.3-1.2c0.2-0.3,0.4-0.6,0.7-0.8c0.3-0.2,0.6-0.3,1-0.3
	c0.6,0,1,0.2,1.4,0.6c0.3,0.4,0.5,0.9,0.5,1.6V93h-3c0,0.4,0.1,0.8,0.4,1.1c0.2,0.3,0.6,0.4,0.9,0.4c0.3,0,0.5-0.1,0.7-0.2
	c0.2-0.1,0.3-0.3,0.5-0.4l0.5,0.4C220.9,94.8,220.4,95.1,219.6,95.1z M219.5,91.1c-0.3,0-0.6,0.1-0.8,0.3c-0.2,0.2-0.3,0.5-0.4,0.9
	h2.2v-0.1c0-0.4-0.1-0.7-0.3-0.9C220.1,91.2,219.9,91.1,219.5,91.1z M219.9,88.7h0.9l-1.1,1.2h-0.6L219.9,88.7z M224.1,95.1
	c-0.6,0-1.1-0.2-1.5-0.6c-0.4-0.4-0.6-0.9-0.6-1.6v-0.1c0-0.4,0.1-0.8,0.3-1.2c0.2-0.3,0.4-0.6,0.7-0.8c0.3-0.2,0.6-0.3,1-0.3
	c0.6,0,1,0.2,1.4,0.6c0.3,0.4,0.5,0.9,0.5,1.6V93h-3c0,0.4,0.1,0.8,0.4,1.1c0.2,0.3,0.6,0.4,0.9,0.4c0.3,0,0.5-0.1,0.7-0.2
	c0.2-0.1,0.3-0.3,0.5-0.4l0.5,0.4C225.4,94.8,224.9,95.1,224.1,95.1z M224,91.1c-0.3,0-0.6,0.1-0.8,0.3c-0.2,0.2-0.3,0.5-0.4,0.9
	h2.2v-0.1c0-0.4-0.1-0.7-0.3-0.9C224.6,91.2,224.3,91.1,224,91.1z"/>
<path class="st15" d="M54.5,373.2c0,0,2.3,3.5,3.3,4.6c1,1.2,0.2,2,0.2,2l-2.3-0.7l-2.5-2.1l-3.1-2.4L54.5,373.2z"/>
<path class="st15" d="M39.4,275.3c1.6,3.3,3.8,7.6,6.6,10.8c1.8,2.3,4,4.1,6.3,5.1c0.1,0,0.2,0.1,0.3,0.1c7.3,2.4,16.1,3.3,16.1,3.3
	c-0.1-0.3,1.7-3,1.7-3c-0.6,0-10.7-7.7-13.2-8.5c-0.8-0.2-13.2-26.6-14.4-27.4c-1.5-1.2-3.2-1.7-4.5-0.8
	C34,258,35.1,266.6,39.4,275.3z"/>
<path class="st16" d="M44.8,256.7c0.6,1.3-10.1,0.6-12.2-0.3c-3.9-1.8-5.5-8.2-4.1-12.1c0.6-2,1.8-4.1,3.3-5.5
	c1.4-1.3,2.6-0.7,4.4-0.6h0.1c0.2-0.1,2.1,1.4,2.2,1.7c1.4,3.2,1.3,5.2,2.6,8.4C41.6,249.5,42.7,252.3,44.8,256.7z"/>
<path class="st15" d="M5.5,367.8l3.9,2.1c0,0,2.8-4,5.2-7.4C17,359.2,32.2,343,32.2,343c5-7.4-1.8-20.5-1.8-20.5l-11.2,3.7
	c0,0,2.6,7.1,2.4,7.4c-0.3,0.5-0.7,1-1.2,1.6c-1.7,2.4-3.8,5.5-5.4,10.2c-0.9,2.8-4.6,11.4-7,17.2C6.4,365.7,5.5,367.8,5.5,367.8z"
	/>
<path class="st15" d="M39,323.4c0,0,1,12.3,1.7,15.3c0.1,0.3,0.1,0.8,0.2,1.3v0.1c0.3,2.6,3.1,10.6,7.9,28.6c0,0.2,0.1,0.3,0.1,0.5
	c0.9,3.5,1.2,6,1.2,6l4.3-1.8c0,0-0.6-4-0.9-8.1c-0.3-4.1,0.3-26.4,0.3-26.4c-1.2-8.8-8.9-25.6-8.9-25.6L39,323.4z"/>
<path class="st17" d="M14.9,345.4c1.5-4.7,3.7-7.9,5.4-10.2c0.6-0.1,1.2,0,1.8,0.2c0.3-0.1,0.8,0.1,0.8,0.6c0,0.2,0,0.5-0.2,0.6
	c-1.7,4.3-4,7.9-6.6,11.7c-3,4.5-5.2,9.2-7.3,14.2c-0.2,0.5-0.7,0.5-0.9,0.2C10.2,356.9,13.9,348.3,14.9,345.4z"/>
<path class="st17" d="M46.7,338.4c0.5-0.1,0.7,0.3,0.7,0.8c-0.1,0.5-0.2,1-0.3,1.5c0.7-0.8,1.6-1.5,2.5-2.3c0.6-0.5,1.4,0.5,0.7,0.9
	c-1.3,1-2.5,2.1-3.6,3.3c-0.7,8.3,3.3,16.6,2.6,25c0,0.3-0.2,1.5-0.5,1.7c0-0.1-0.1-0.3-0.1-0.5c-4.8-18-7.6-25.9-7.9-28.6
	C42.6,339.1,45.1,338.8,46.7,338.4z"/>
<path class="st18" d="M15.7,335c0,0,2.3,1.3,6.1,2.6c9.3,3.5,27.2,7.8,40.5-2.6c0,0-9.3-0.8-7.5-12.6c2.3-15.1-3.6-38.2-12.4-41.2
	c-8.9-3.1-21,2.8-21,2.8s-2.5,1.5-4.6,5c-1.5,2.4-2.8,5.9-2.8,10.5C14,308.5,22.3,315.2,15.7,335z"/>
<path class="st19" d="M14,299.4c-0.5-6.8,4.4-13.6,5.9-16.1c1.5,0.3,6.4,2.1,6.1,2.4c-8.5,8.6-4.6,24-2.1,32.2
	c1.2,3.7,1.6,7.5,0.8,11.4c-0.5,2.2-1.4,4.4-2.2,6.4c-0.2,0.6-0.5,1.3-0.8,2c-3.8-1.4-6.1-2.6-6.1-2.6
	C22.3,315.2,14.7,308.4,14,299.4z"/>
<path class="st20" d="M48.4,283.3c-17.3,7.6-29.1,0.1-28.1-2.2c0.6-1.2,0.8-2.5,0.9-4c0.2-2.3,0.1-4.6,0-6.1
	c-0.1-0.8-0.1-1.3-0.2-1.6v-0.1c-1.4-6.9-4.4-15.2,3.7-17.7c1-0.3,2.2-0.6,3.6-0.7c1.5-0.1,3.1-0.1,5.1,0c0,0,2.4,0.8,5.3,2.3
	c0.9,0.5,2,1,3,1.6c2.9,1.8,3.6,5.5,3.5,7.9c-0.1,1.7-2.5,6.4-2.4,7.4C43.9,276.8,47,280.9,48.4,283.3z"/>
<path class="st21" d="M38.2,270c-2.5,2-6.1,2-9.1,3.1c-2.6,1-5.3,3.5-8.1,4c0.2-2.3,0.1-4.6,0-6.1c0,0,0-0.1,0.1-0.1
	c-0.1-0.5-0.1-0.9-0.2-1.5c0,0,0,0,0-0.1c0.5-0.9,1.3-2.1,2.5-3.2c3.3-3.1,3-10.9,3-10.9c0.8,3.9,0.3,9.8-0.9,12.2
	c-0.6,1-1.5,2.5-2.6,3.8v0.1c-0.1,1.3,7.7-1.3,8.6-1.6c2.1-0.6,4.1-0.8,6.3-0.7C38.6,268.9,38.7,269.7,38.2,270z"/>
<path class="st15" d="M36.5,248.4v3.2c0,0,0.9,1.6,0,1.7c-2,0.3-4.7-2.6-4.7-2.6v-4.4L36.5,248.4z"/>
<path class="st17" d="M31.8,249.2v-2.5c0,0,2.4,2.3,4.7,2.4C36.5,249.2,33.7,250.5,31.8,249.2z"/>
<path class="st15" d="M37.4,239c0,0,1.7,3.5,2.2,6.8c0.3,2.3-3.9,5.4-7.4,2.1s-2.5-8.3-2.5-8.3L37.4,239z"/>
<path class="st22" d="M49.6,371.5c0,0-1,0.8-0.8,3c0,0,4.1,2.2,6.4,6.8c0.6,1,3.7,0.2,5,0.2c0,0,1.3-0.6,0.3-2
	c-0.3-0.6-2.1-1.3-2.5-1.7C57.2,379.6,54,377.1,49.6,371.5z"/>
<path class="st22" d="M48.8,374.5l0.7,6.9l1.2,0.1l0.1-6.6L48.8,374.5z"/>
<path class="st15" d="M9.4,369.9c0,0-0.8,4-0.8,5.5c0,1.6-1.3,1.5-1.3,1.5l-1.2-2.1L6,371.6l-0.5-3.9L9.4,369.9z"/>
<path class="st22" d="M6.6,365.4c0,0-0.8-0.3-2.2,1.4c0,0,1.4,4.5-0.1,9.3c-0.3,1.2,2.5,2.8,3.3,3.6c0,0,1.3,0.5,1.5-1.2
	c0.1-0.7-0.7-2.3-0.6-3C6.9,376.2,5.9,372.4,6.6,365.4z"/>
<path class="st22" d="M4.4,366.8L0,372.2l0.9,0.8l4.6-4.6L4.4,366.8z"/>
<path class="st15" d="M9.1,264c-0.2-0.6,12-12.7,16.7-10.9c2.9,1.2,1.7,6.6,1,9c-1.6,5.2-14.5,16.5-14,16.9c0.5,0.3,2.6,1.2,3.9,1.4
	c2.4,0.5,5.8,0.7,9,0.9c5.2,0.2,10,0.2,10.2,0.3c0,0-1.4,3.6-1.5,3.9c0,0-1.3,0.6-3.3,1.2c-5.3,1.6-16.9,2.5-24.5-0.2
	C-0.3,283.8,2.8,270.8,9.1,264z"/>
<path class="st17" d="M11.3,281.1c-4-2.8,1.5-5.6,3.7-8.3c2.5-0.9,4.8-2.3,5.3-2c-2.3,2.4-7.5,7.9-7.5,7.9c0.5,0.3,2.6,1.2,3.9,1.4
	c2.4,0.5,5.8,0.7,9,0.9C25.9,281.5,14.8,283.7,11.3,281.1z"/>
<path class="st15" d="M36.7,281.1c1.8-0.5,4.7-0.2,6,1.4c0.6,0.8,0.1,1.3-0.7,0.8c-1.6-0.8-2.9-0.9-0.5,0.2c0.5,0.2,1.4,0.9,1.3,1.3
	c-0.3,0.8-2-0.2-2.8-0.6c-0.7,0,0.9,1.2,1.2,1.5c0.7,1.7-2.5-0.3-2.8-0.1c-0.7,0.5,1.7,1.5,0.6,1.7c-0.9,0.2-2.6-1.6-3.3-1.8
	c-0.6-0.2-1.2,0.1-1.5-0.6C33.3,283.6,36,281.4,36.7,281.1z"/>
<path class="st15" d="M36,281.5c0.6-0.5,1.8-1.7,2.5-1.8c0.5-0.1,0.9,0.1,0.6,0.6c-0.2,0.3-0.6,0.6-0.9,0.7
	c-0.2,0.1-0.6,0.3-0.8,0.5C37.2,281.6,35.9,281.6,36,281.5z"/>
<path class="st16" d="M39.5,240.8c-0.6,0.8-1.6,0.7-2.4,0.3c-0.5-0.2-0.9-0.6-1.3-0.9c-0.2-0.2-0.5-0.7-0.7-0.9c-1,0-2,0.7-2.6,1.6
	c0,0.3,0.1,0.8,0,1.4c-2.8,8.2,3,14,4.4,16.8c0.2,0.3-0.1,0.7-0.5,0.8c-5.3,1-16.4,2.8-15.8-5.9c0.2-4,2.1-8.1,4.5-11.2
	c2-2.4,4.1-6.1,7.4-6.4c1.3-0.1,2.5,0,3.8,0.2C39.6,237.2,40.1,240.1,39.5,240.8z"/>
<path class="st23" d="M74.1,326.7l26.4-15.5c1.5-0.8,2-2.8,1-4.1l-11.7-19.9c-0.8-1.5-2.8-2-4.1-1l-26.4,15.5c-1.5,0.8-2,2.8-1,4.1
	L70,325.7C70.9,327.2,72.8,327.7,74.1,326.7z"/>
<path class="st24" d="M63.3,314.4L95,295.8c1-0.7,1.4-2.1,0.8-3.1l-4.4-7.4c-0.7-1-2.1-1.4-3.1-0.8l-31.7,18.7
	c-1,0.7-1.4,2.1-0.8,3.1l4.4,7.4C60.9,314.8,62.3,315.1,63.3,314.4z"/>
<path class="st24" d="M70.7,301.7l9.6-5.6c0.9-0.6,1.3-1.8,0.7-2.8l-1.4-2.3c-1.6-2.8-5.2-3.7-7.9-2.1l-3.1,1.8
	c-2.8,1.6-3.7,5.2-2.1,7.9l1.4,2.3C68.5,302,69.8,302.3,70.7,301.7z M72.8,290.7c1.8-1,4.1-0.5,5.3,1.4l1.4,2.3v0.1l-9.6,5.6h-0.1
	l-1.4-2.3c-1-1.8-0.5-4.1,1.4-5.2L72.8,290.7z"/>
<path class="st25" d="M76.5,308.5l7-4.1c0.7-0.5,1-1.4,0.6-2.2c-0.5-0.7-1.4-1-2.2-0.6l-7,4.1c-0.7,0.5-1,1.4-0.6,2.2
	C74.7,308.7,75.8,309,76.5,308.5z"/>
<path class="st15" d="M71.4,290.2c0.5,0.6,0.7,1.2,0.7,1.8c0,0.3-0.5,0.6-0.8,0.6c0,0.1,0.1,0.2,0.1,0.3c0,0.3-0.3,0.6-0.8,0.6
	c0,0.3-0.5,0.6-0.9,0.6c0,0.5-0.8,0.8-1.3,0.3c-0.3-0.3-0.6-0.7-0.8-1c-0.2-0.5,0.3-0.8,0.8-0.7c0-0.1-0.1-0.1-0.1-0.2
	c-0.2-0.3,0.2-0.7,0.7-0.7c0,0,0,0-0.1-0.1c-0.6-0.5,0.6-1.2,1.2-0.7c0.1,0.1,0.2,0.2,0.3,0.3c-0.1-0.1-0.1-0.2-0.2-0.3
	C69.8,290.3,70.9,289.7,71.4,290.2z"/>
<path class="st15" d="M70.2,289.8c-0.7-0.1-1.4,0.1-2,0.5c-0.1,0-0.1,0-0.2,0c-0.6,0.1-0.5,0.9,0,1c0.1,0,0.2,0.1,0.3,0
	c0,0,0,0,0.1,0c0.8-0.1,1.6-0.1,2.4,0.1c0.5,0.1,0.8-0.2,0.7-0.7C71.5,290,70.7,289.8,70.2,289.8z"/>
</svg>
