<?xml version="1.0" encoding="utf-8"?>
<!-- Generator: Adobe Illustrator 24.2.0, SVG Export Plug-In . SVG Version: 6.00 Build 0)  -->
<svg version="1.1" id="Layer_1" xmlns="http://www.w3.org/2000/svg" xmlns:xlink="http://www.w3.org/1999/xlink" x="0px" y="0px"
	 viewBox="0 0 442 266" style="enable-background:new 0 0 442 266;" xml:space="preserve">
<style type="text/css">
	.st0{fill:#FFFFFF;stroke:#E6E6E6;stroke-width:0.3641;}
	.st1{fill:none;stroke:#D0D0D0;stroke-width:0.7282;}
	.st2{fill:#C6C2C2;}
	.st3{fill:#F4F4F4;}
	.st4{fill:#D5D5D5;}
	.st5{fill:#FFFFFF;}
	.st6{fill:#337CB9;}
	.st7{fill:none;stroke:#E6E6E6;stroke-width:0.3641;}
	.st8{opacity:0.2;fill:none;stroke:#FFFFFF;stroke-width:0.7282;enable-background:new    ;}
	.st9{fill:none;stroke:#FFFFFF;stroke-width:0.7282;}
	.st10{fill:#262626;}
	.st11{fill:none;stroke:#337CB9;stroke-width:0.7282;}
	.st12{fill:#B8D3D8;}
	.st13{fill:#D3E7EC;}
	.st14{fill:#FF8888;}
	.st15{fill:#EA7A70;}
	.st16{fill:#BDB8EC;}
	.st17{fill:#FFAEA7;}
	.st18{fill:#DADAFF;}
	.st19{fill:#FFC1C5;}
	.st20{fill:#FFB7BB;}
	.st21{fill:#441FD8;}
	.st22{fill:#3111AE;}
	.st23{fill:#1F0D52;}
	.st24{fill:#ACDCFF;}
	.st25{fill:#333333;}
	.st26{fill-rule:evenodd;clip-rule:evenodd;fill:#453286;}
	.st27{fill-rule:evenodd;clip-rule:evenodd;fill:#EA7A70;}
	.st28{fill:#FFAFB4;}
	.st29{fill:#88C0E9;}
	.st30{fill:#FFB4B7;}
	.st31{fill:#252525;}
	.st32{fill:#5F40D4;}
</style>
<path class="st0" d="M18.9,118.3h377.2c3.9,0,7.1,3.2,7.1,7.1v106.3c0,3.9-3.2,7.1-7.1,7.1H18.9c-3.9,0-7.1-3.2-7.1-7.1V125.4
	C11.8,121.5,15,118.3,18.9,118.3z"/>
<path d="M31.2,141.7v-7.2h2.2c0.6,0,1.2,0.1,1.7,0.4c0.5,0.3,0.9,0.7,1.2,1.2c0.3,0.5,0.4,1.1,0.4,1.8v0.3c0,0.7-0.1,1.3-0.4,1.8
	c-0.3,0.5-0.7,0.9-1.2,1.2c-0.5,0.3-1.1,0.4-1.7,0.4H31.2z M32.7,135.6v4.8h0.7c0.6,0,1-0.2,1.3-0.6c0.3-0.4,0.5-0.9,0.5-1.6v-0.4
	c0-0.7-0.2-1.3-0.5-1.7c-0.3-0.4-0.8-0.6-1.3-0.6H32.7z M39.3,141.7h-1.4v-5.4h1.4V141.7z M37.8,134.9c0-0.2,0.1-0.4,0.2-0.5
	c0.1-0.1,0.3-0.2,0.6-0.2c0.2,0,0.4,0.1,0.6,0.2c0.1,0.1,0.2,0.3,0.2,0.5c0,0.2-0.1,0.4-0.2,0.5c-0.1,0.1-0.3,0.2-0.6,0.2
	c-0.2,0-0.4-0.1-0.6-0.2C37.8,135.3,37.8,135.1,37.8,134.9z M40.3,138.9c0-0.8,0.2-1.5,0.6-2c0.4-0.5,0.9-0.8,1.6-0.8
	c0.6,0,1.1,0.2,1.4,0.6l0.1-0.5h1.3v5.2c0,0.5-0.1,0.9-0.3,1.2c-0.2,0.3-0.5,0.6-0.9,0.8c-0.4,0.2-0.8,0.3-1.4,0.3
	c-0.4,0-0.8-0.1-1.2-0.2c-0.4-0.2-0.7-0.4-0.9-0.6l0.6-0.9c0.4,0.4,0.8,0.6,1.3,0.6c0.4,0,0.7-0.1,0.9-0.3c0.2-0.2,0.3-0.5,0.3-0.9
	v-0.3c-0.3,0.4-0.8,0.6-1.3,0.6c-0.6,0-1.2-0.3-1.6-0.8C40.5,140.5,40.3,139.8,40.3,138.9L40.3,138.9z M41.7,139.1
	c0,0.5,0.1,0.9,0.3,1.1c0.2,0.3,0.5,0.4,0.8,0.4c0.4,0,0.8-0.2,0.9-0.5v-2.3c-0.2-0.3-0.5-0.5-0.9-0.5c-0.3,0-0.6,0.1-0.8,0.4
	C41.8,138.1,41.7,138.5,41.7,139.1z M47.8,141.7h-1.4v-5.4h1.4V141.7z M46.3,134.9c0-0.2,0.1-0.4,0.2-0.5c0.1-0.1,0.3-0.2,0.6-0.2
	c0.2,0,0.4,0.1,0.6,0.2c0.1,0.1,0.2,0.3,0.2,0.5c0,0.2-0.1,0.4-0.2,0.5c-0.1,0.1-0.3,0.2-0.6,0.2c-0.2,0-0.4-0.1-0.6-0.2
	C46.4,135.3,46.3,135.1,46.3,134.9z M50.7,135v1.3h0.9v1.1h-0.9v2.7c0,0.2,0,0.3,0.1,0.4c0.1,0.1,0.2,0.1,0.4,0.1c0.2,0,0.3,0,0.4,0
	v1.1c-0.3,0.1-0.6,0.1-0.9,0.1c-1,0-1.5-0.5-1.5-1.5v-2.9h-0.8v-1.1h0.8V135H50.7z M55.6,141.7c-0.1-0.1-0.1-0.3-0.1-0.5
	c-0.3,0.4-0.8,0.6-1.4,0.6c-0.5,0-1-0.2-1.3-0.5c-0.3-0.3-0.5-0.7-0.5-1.2c0-0.6,0.2-1,0.6-1.3c0.4-0.3,1-0.5,1.8-0.5h0.7v-0.3
	c0-0.2-0.1-0.4-0.2-0.6c-0.1-0.1-0.3-0.2-0.6-0.2c-0.2,0-0.4,0.1-0.6,0.2c-0.1,0.1-0.2,0.3-0.2,0.5h-1.4c0-0.3,0.1-0.6,0.3-0.9
	c0.2-0.3,0.5-0.5,0.8-0.6c0.4-0.2,0.7-0.2,1.2-0.2c0.7,0,1.2,0.2,1.6,0.5c0.4,0.3,0.6,0.8,0.6,1.4v2.3c0,0.5,0.1,0.9,0.2,1.2v0.1
	H55.6z M54.4,140.7c0.2,0,0.4,0,0.6-0.1c0.2-0.1,0.3-0.2,0.4-0.4v-0.9h-0.5c-0.7,0-1.1,0.2-1.1,0.7l0,0.1c0,0.2,0.1,0.3,0.2,0.4
	C54,140.6,54.2,140.7,54.4,140.7z M59.4,141.7H58V134h1.4V141.7z M64.8,141.7h-1.5v-7.2h1.5V141.7z M67.5,136.3l0,0.6
	c0.4-0.5,0.9-0.7,1.5-0.7c0.6,0,1,0.2,1.3,0.5c0.3,0.3,0.4,0.8,0.4,1.5v3.5h-1.4v-3.4c0-0.3-0.1-0.5-0.2-0.7
	c-0.1-0.1-0.4-0.2-0.7-0.2c-0.4,0-0.7,0.2-0.9,0.5v3.8h-1.4v-5.4H67.5z M73.9,139.9l1-3.6h1.5l-1.8,5.4h-1.4l-1.8-5.4h1.5
	L73.9,139.9z M79.4,141.8c-0.8,0-1.4-0.2-1.9-0.7c-0.5-0.5-0.7-1.1-0.7-1.9V139c0-0.5,0.1-1,0.3-1.4c0.2-0.4,0.5-0.8,0.9-1
	c0.4-0.2,0.8-0.3,1.3-0.3c0.7,0,1.3,0.2,1.7,0.7c0.4,0.5,0.6,1.1,0.6,2v0.6h-3.4c0,0.4,0.2,0.6,0.4,0.8c0.2,0.2,0.5,0.3,0.9,0.3
	c0.6,0,1-0.2,1.3-0.6l0.7,0.8c-0.2,0.3-0.5,0.5-0.9,0.7C80.3,141.7,79.9,141.8,79.4,141.8z M79.3,137.4c-0.3,0-0.5,0.1-0.7,0.3
	c-0.2,0.2-0.3,0.5-0.3,0.8h2v-0.1c0-0.3-0.1-0.6-0.3-0.7C79.8,137.4,79.6,137.4,79.3,137.4z M83.8,136.3l0,0.6
	c0.4-0.5,0.9-0.7,1.5-0.7c0.6,0,1,0.2,1.3,0.5c0.3,0.3,0.4,0.8,0.4,1.5v3.5h-1.4v-3.4c0-0.3-0.1-0.5-0.2-0.7
	c-0.1-0.1-0.4-0.2-0.7-0.2c-0.4,0-0.7,0.2-0.9,0.5v3.8h-1.4v-5.4H83.8z M89.9,135v1.3h0.9v1.1h-0.9v2.7c0,0.2,0,0.3,0.1,0.4
	c0.1,0.1,0.2,0.1,0.4,0.1c0.2,0,0.3,0,0.4,0v1.1c-0.3,0.1-0.6,0.1-0.9,0.1c-1,0-1.5-0.5-1.5-1.5v-2.9h-0.8v-1.1h0.8V135H89.9z
	 M91.2,138.9c0-0.5,0.1-1,0.3-1.4c0.2-0.4,0.5-0.7,0.9-1c0.4-0.2,0.8-0.3,1.3-0.3c0.7,0,1.3,0.2,1.8,0.7c0.5,0.4,0.7,1,0.8,1.8
	l0,0.4c0,0.8-0.2,1.5-0.7,2c-0.5,0.5-1.1,0.7-1.9,0.7c-0.8,0-1.4-0.2-1.9-0.7C91.5,140.5,91.2,139.9,91.2,138.9L91.2,138.9z
	 M92.7,139c0,0.5,0.1,0.9,0.3,1.2c0.2,0.3,0.5,0.4,0.8,0.4c0.3,0,0.6-0.1,0.8-0.4c0.2-0.3,0.3-0.7,0.3-1.3c0-0.5-0.1-0.9-0.3-1.2
	c-0.2-0.3-0.5-0.4-0.8-0.4c-0.4,0-0.6,0.1-0.8,0.4C92.8,138,92.7,138.5,92.7,139z M100.3,137.6c-0.2,0-0.4,0-0.5,0
	c-0.5,0-0.9,0.2-1.1,0.6v3.5h-1.4v-5.4h1.4l0,0.6c0.3-0.5,0.7-0.7,1.2-0.7c0.2,0,0.3,0,0.4,0.1L100.3,137.6z M103.1,139.6l1-3.3h1.5
	l-2.2,6.2l-0.1,0.3c-0.3,0.7-0.9,1.1-1.6,1.1c-0.2,0-0.4,0-0.6-0.1v-1.1l0.2,0c0.3,0,0.5,0,0.6-0.1c0.1-0.1,0.2-0.2,0.3-0.4l0.2-0.4
	l-1.9-5.4h1.5L103.1,139.6z"/>
<path class="st1" d="M29.1,179.6h4.4c0.6,0,1.1,0.5,1.1,1.1v4.4c0,0.6-0.5,1.1-1.1,1.1h-4.4c-0.6,0-1.1-0.5-1.1-1.1v-4.4
	C28,180.1,28.5,179.6,29.1,179.6z"/>
<path class="st2" d="M43.7,179.3h50.2c0.8,0,1.5,0.7,1.5,1.5v4.4c0,0.8-0.7,1.5-1.5,1.5H43.7c-0.8,0-1.5-0.7-1.5-1.5v-4.4
	C42.2,179.9,42.9,179.3,43.7,179.3z"/>
<path class="st3" d="M114.3,179.3h41.5c0.8,0,1.5,0.7,1.5,1.5v4.4c0,0.8-0.7,1.5-1.5,1.5h-41.5c-0.8,0-1.5-0.7-1.5-1.5v-4.4
	C112.9,179.9,113.5,179.3,114.3,179.3z"/>
<path class="st4" d="M178.4,179.3h25.5c0.8,0,1.5,0.7,1.5,1.5v4.4c0,0.8-0.7,1.5-1.5,1.5h-25.5c-0.8,0-1.5-0.7-1.5-1.5v-4.4
	C176.9,179.9,177.6,179.3,178.4,179.3z"/>
<path class="st4" d="M300.7,179.3h25.5c0.8,0,1.5,0.7,1.5,1.5v4.4c0,0.8-0.7,1.5-1.5,1.5h-25.5c-0.8,0-1.5-0.7-1.5-1.5v-4.4
	C299.3,179.9,299.9,179.3,300.7,179.3z"/>
<path class="st4" d="M228.6,179.3H276c0.8,0,1.5,0.7,1.5,1.5v4.4c0,0.8-0.7,1.5-1.5,1.5h-47.3c-0.8,0-1.5-0.7-1.5-1.5v-4.4
	C227.2,179.9,227.8,179.3,228.6,179.3z"/>
<path class="st1" d="M29.1,197.1h4.4c0.6,0,1.1,0.5,1.1,1.1v4.4c0,0.6-0.5,1.1-1.1,1.1h-4.4c-0.6,0-1.1-0.5-1.1-1.1v-4.4
	C28,197.6,28.5,197.1,29.1,197.1z"/>
<path class="st2" d="M43.7,196.8h50.2c0.8,0,1.5,0.7,1.5,1.5v4.4c0,0.8-0.7,1.5-1.5,1.5H43.7c-0.8,0-1.5-0.7-1.5-1.5v-4.4
	C42.2,197.4,42.9,196.8,43.7,196.8z"/>
<path class="st3" d="M114.3,196.8h41.5c0.8,0,1.5,0.7,1.5,1.5v4.4c0,0.8-0.7,1.5-1.5,1.5h-41.5c-0.8,0-1.5-0.7-1.5-1.5v-4.4
	C112.9,197.4,113.5,196.8,114.3,196.8z"/>
<path class="st4" d="M178.4,196.8h25.5c0.8,0,1.5,0.7,1.5,1.5v4.4c0,0.8-0.7,1.5-1.5,1.5h-25.5c-0.8,0-1.5-0.7-1.5-1.5v-4.4
	C176.9,197.4,177.6,196.8,178.4,196.8z"/>
<path class="st4" d="M300.7,196.8h25.5c0.8,0,1.5,0.7,1.5,1.5v4.4c0,0.8-0.7,1.5-1.5,1.5h-25.5c-0.8,0-1.5-0.7-1.5-1.5v-4.4
	C299.3,197.4,299.9,196.8,300.7,196.8z"/>
<path class="st4" d="M228.6,196.8H276c0.8,0,1.5,0.7,1.5,1.5v4.4c0,0.8-0.7,1.5-1.5,1.5h-47.3c-0.8,0-1.5-0.7-1.5-1.5v-4.4
	C227.2,197.4,227.8,196.8,228.6,196.8z"/>
<path class="st1" d="M29.1,216.1h4.4c0.6,0,1.1,0.5,1.1,1.1v4.4c0,0.6-0.5,1.1-1.1,1.1h-4.4c-0.6,0-1.1-0.5-1.1-1.1v-4.4
	C28,216.5,28.5,216.1,29.1,216.1z"/>
<path class="st2" d="M43.7,215.7h50.2c0.8,0,1.5,0.7,1.5,1.5v4.4c0,0.8-0.7,1.5-1.5,1.5H43.7c-0.8,0-1.5-0.7-1.5-1.5v-4.4
	C42.2,216.3,42.9,215.7,43.7,215.7z"/>
<path class="st3" d="M114.3,215.7h41.5c0.8,0,1.5,0.7,1.5,1.5v4.4c0,0.8-0.7,1.5-1.5,1.5h-41.5c-0.8,0-1.5-0.7-1.5-1.5v-4.4
	C112.9,216.3,113.5,215.7,114.3,215.7z"/>
<path class="st4" d="M178.4,215.7h25.5c0.8,0,1.5,0.7,1.5,1.5v4.4c0,0.8-0.7,1.5-1.5,1.5h-25.5c-0.8,0-1.5-0.7-1.5-1.5v-4.4
	C176.9,216.3,177.6,215.7,178.4,215.7z"/>
<path class="st4" d="M300.7,215.7h25.5c0.8,0,1.5,0.7,1.5,1.5v4.4c0,0.8-0.7,1.5-1.5,1.5h-25.5c-0.8,0-1.5-0.7-1.5-1.5v-4.4
	C299.3,216.3,299.9,215.7,300.7,215.7z"/>
<path class="st4" d="M228.6,215.7H276c0.8,0,1.5,0.7,1.5,1.5v4.4c0,0.8-0.7,1.5-1.5,1.5h-47.3c-0.8,0-1.5-0.7-1.5-1.5v-4.4
	C227.2,216.3,227.8,215.7,228.6,215.7z"/>
<path class="st1" d="M29.1,162.2h4.4c0.6,0,1.1,0.5,1.1,1.1v4.4c0,0.6-0.5,1.1-1.1,1.1h-4.4c-0.6,0-1.1-0.5-1.1-1.1v-4.4
	C28,162.7,28.5,162.2,29.1,162.2z"/>
<path d="M48.4,168.9h-1l-3.9-6v6h-1v-7.8h1l3.9,6v-6h1V168.9z M53.6,168.9c-0.1-0.1-0.1-0.3-0.1-0.6c-0.5,0.5-1,0.7-1.6,0.7
	c-0.6,0-1-0.2-1.4-0.5c-0.4-0.3-0.5-0.7-0.5-1.2c0-0.6,0.2-1.1,0.7-1.4c0.5-0.3,1.1-0.5,1.9-0.5h1v-0.5c0-0.3-0.1-0.6-0.3-0.8
	c-0.2-0.2-0.5-0.3-0.9-0.3c-0.4,0-0.6,0.1-0.9,0.3c-0.2,0.2-0.4,0.4-0.4,0.6h-1c0-0.3,0.1-0.6,0.3-0.8c0.2-0.3,0.5-0.5,0.8-0.6
	c0.4-0.2,0.7-0.2,1.2-0.2c0.7,0,1.2,0.2,1.6,0.5c0.4,0.3,0.6,0.8,0.6,1.4v2.7c0,0.5,0.1,1,0.2,1.3v0.1H53.6z M52,168.1
	c0.3,0,0.6-0.1,0.9-0.2c0.3-0.2,0.5-0.4,0.6-0.6v-1.2h-0.8c-1.2,0-1.8,0.4-1.8,1.1c0,0.3,0.1,0.6,0.3,0.7
	C51.4,168.1,51.7,168.1,52,168.1z M56.9,163.1l0,0.6c0.4-0.5,1-0.7,1.7-0.7c0.8,0,1.4,0.3,1.7,0.9c0.2-0.3,0.4-0.5,0.7-0.7
	c0.3-0.2,0.7-0.3,1.1-0.3c1.3,0,1.9,0.7,1.9,2v3.9h-1v-3.8c0-0.4-0.1-0.7-0.3-0.9c-0.2-0.2-0.5-0.3-1-0.3c-0.4,0-0.7,0.1-0.9,0.3
	c-0.2,0.2-0.4,0.5-0.4,0.9v3.8h-1v-3.8c0-0.8-0.4-1.3-1.2-1.3c-0.6,0-1.1,0.3-1.3,0.8v4.2h-1v-5.8H56.9z M68,169
	c-0.8,0-1.4-0.3-1.9-0.8c-0.5-0.5-0.7-1.2-0.7-2.1V166c0-0.6,0.1-1.1,0.3-1.5c0.2-0.5,0.5-0.8,0.9-1.1c0.4-0.3,0.8-0.4,1.3-0.4
	c0.8,0,1.3,0.2,1.8,0.7c0.4,0.5,0.6,1.2,0.6,2.1v0.4h-3.9c0,0.6,0.2,1,0.5,1.4c0.3,0.3,0.7,0.5,1.2,0.5c0.3,0,0.6-0.1,0.9-0.2
	c0.2-0.1,0.5-0.3,0.6-0.6l0.6,0.5C69.7,168.6,69,169,68,169z M67.9,163.8c-0.4,0-0.7,0.1-1,0.4c-0.3,0.3-0.4,0.7-0.5,1.2h2.9v-0.1
	c0-0.5-0.2-0.9-0.4-1.2C68.6,164,68.3,163.8,67.9,163.8z"/>
<path d="M118.8,166.9h-3.3l-0.7,2h-1.1l3-7.8h0.9l3,7.8h-1.1L118.8,166.9z M115.8,166h2.6l-1.3-3.6L115.8,166z M121.2,166
	c0-0.9,0.2-1.6,0.6-2.1c0.4-0.5,1-0.8,1.7-0.8c0.7,0,1.2,0.2,1.6,0.7v-3h1v8.2h-0.9l0-0.6c-0.4,0.5-0.9,0.7-1.7,0.7
	c-0.7,0-1.2-0.3-1.6-0.8C121.4,167.6,121.2,166.9,121.2,166L121.2,166z M122.2,166.1c0,0.7,0.1,1.2,0.4,1.5c0.3,0.4,0.6,0.6,1.1,0.6
	c0.6,0,1.1-0.3,1.4-0.8v-2.7c-0.3-0.5-0.7-0.8-1.4-0.8c-0.5,0-0.9,0.2-1.1,0.6C122.4,164.8,122.2,165.3,122.2,166.1z M127.4,166
	c0-0.9,0.2-1.6,0.6-2.1c0.4-0.5,1-0.8,1.6-0.8c0.7,0,1.2,0.2,1.6,0.7v-3h1v8.2h-0.9l0-0.6c-0.4,0.5-0.9,0.7-1.6,0.7
	c-0.7,0-1.2-0.3-1.6-0.8C127.6,167.6,127.4,166.9,127.4,166L127.4,166z M128.4,166.1c0,0.7,0.1,1.2,0.4,1.5c0.3,0.4,0.6,0.6,1.1,0.6
	c0.6,0,1.1-0.3,1.4-0.8v-2.7c-0.3-0.5-0.8-0.8-1.4-0.8c-0.5,0-0.9,0.2-1.1,0.6C128.5,164.8,128.4,165.3,128.4,166.1z M136.6,164
	c-0.2,0-0.3,0-0.5,0c-0.6,0-1.1,0.3-1.3,0.8v4.1h-1v-5.8h1l0,0.7c0.3-0.5,0.8-0.8,1.4-0.8c0.2,0,0.3,0,0.4,0.1V164z M139.8,169
	c-0.8,0-1.4-0.3-1.9-0.8c-0.5-0.5-0.7-1.2-0.7-2.1V166c0-0.6,0.1-1.1,0.3-1.5c0.2-0.5,0.5-0.8,0.9-1.1c0.4-0.3,0.8-0.4,1.3-0.4
	c0.8,0,1.3,0.2,1.8,0.7c0.4,0.5,0.6,1.2,0.6,2.1v0.4h-3.9c0,0.6,0.2,1,0.5,1.4c0.3,0.3,0.7,0.5,1.2,0.5c0.3,0,0.6-0.1,0.9-0.2
	c0.2-0.1,0.5-0.3,0.6-0.6l0.6,0.5C141.5,168.6,140.8,169,139.8,169z M139.7,163.8c-0.4,0-0.7,0.1-1,0.4c-0.3,0.3-0.4,0.7-0.5,1.2
	h2.9v-0.1c0-0.5-0.2-0.9-0.4-1.2C140.4,164,140.1,163.8,139.7,163.8z M146.6,167.4c0-0.3-0.1-0.5-0.3-0.6c-0.2-0.2-0.5-0.3-1.1-0.4
	c-0.5-0.1-0.9-0.2-1.2-0.4c-0.3-0.2-0.5-0.3-0.7-0.5c-0.1-0.2-0.2-0.5-0.2-0.7c0-0.5,0.2-0.9,0.6-1.2c0.4-0.3,0.9-0.5,1.5-0.5
	c0.7,0,1.2,0.2,1.6,0.5c0.4,0.3,0.6,0.8,0.6,1.3h-1c0-0.3-0.1-0.5-0.3-0.7c-0.2-0.2-0.5-0.3-0.9-0.3c-0.4,0-0.6,0.1-0.8,0.2
	c-0.2,0.2-0.3,0.4-0.3,0.6c0,0.2,0.1,0.4,0.3,0.5c0.2,0.1,0.5,0.2,1,0.3c0.5,0.1,0.9,0.2,1.2,0.4c0.3,0.2,0.5,0.3,0.7,0.6
	c0.1,0.2,0.2,0.5,0.2,0.8c0,0.5-0.2,0.9-0.6,1.2c-0.4,0.3-0.9,0.5-1.6,0.5c-0.5,0-0.9-0.1-1.2-0.2c-0.4-0.2-0.6-0.4-0.8-0.7
	c-0.2-0.3-0.3-0.6-0.3-1h1c0,0.3,0.1,0.6,0.4,0.8c0.2,0.2,0.6,0.3,1,0.3c0.4,0,0.7-0.1,0.9-0.2C146.5,167.8,146.6,167.6,146.6,167.4
	z M152.2,167.4c0-0.3-0.1-0.5-0.3-0.6c-0.2-0.2-0.6-0.3-1.1-0.4c-0.5-0.1-0.9-0.2-1.2-0.4c-0.3-0.2-0.5-0.3-0.7-0.5
	c-0.1-0.2-0.2-0.5-0.2-0.7c0-0.5,0.2-0.9,0.6-1.2c0.4-0.3,0.9-0.5,1.5-0.5c0.7,0,1.2,0.2,1.6,0.5c0.4,0.3,0.6,0.8,0.6,1.3h-1
	c0-0.3-0.1-0.5-0.3-0.7c-0.2-0.2-0.5-0.3-0.9-0.3c-0.4,0-0.6,0.1-0.8,0.2c-0.2,0.2-0.3,0.4-0.3,0.6c0,0.2,0.1,0.4,0.3,0.5
	c0.2,0.1,0.5,0.2,1,0.3c0.5,0.1,0.9,0.2,1.2,0.4c0.3,0.2,0.5,0.3,0.7,0.6c0.2,0.2,0.2,0.5,0.2,0.8c0,0.5-0.2,0.9-0.6,1.2
	c-0.4,0.3-0.9,0.5-1.6,0.5c-0.5,0-0.9-0.1-1.2-0.2c-0.4-0.2-0.6-0.4-0.8-0.7c-0.2-0.3-0.3-0.6-0.3-1h1c0,0.3,0.2,0.6,0.4,0.8
	c0.2,0.2,0.6,0.3,1,0.3c0.4,0,0.7-0.1,0.9-0.2C152.1,167.8,152.2,167.6,152.2,167.4z"/>
<path d="M182.9,166.9h-3.3l-0.7,2h-1.1l3-7.8h0.9l3,7.8h-1.1L182.9,166.9z M179.9,166h2.6l-1.3-3.6L179.9,166z M187.2,167.6l1.4-4.4
	h1l-2.1,5.8h-0.8l-2.1-5.8h1L187.2,167.6z M194.1,168.9c-0.1-0.1-0.1-0.3-0.1-0.6c-0.5,0.5-1,0.7-1.6,0.7c-0.6,0-1-0.2-1.4-0.5
	c-0.4-0.3-0.5-0.7-0.5-1.2c0-0.6,0.2-1.1,0.7-1.4c0.5-0.3,1.1-0.5,1.9-0.5h1v-0.5c0-0.3-0.1-0.6-0.3-0.8c-0.2-0.2-0.5-0.3-0.9-0.3
	c-0.4,0-0.6,0.1-0.9,0.3c-0.2,0.2-0.4,0.4-0.4,0.6h-1c0-0.3,0.1-0.6,0.3-0.8c0.2-0.3,0.5-0.5,0.8-0.6c0.4-0.2,0.7-0.2,1.2-0.2
	c0.7,0,1.2,0.2,1.6,0.5c0.4,0.3,0.6,0.8,0.6,1.4v2.7c0,0.5,0.1,1,0.2,1.3v0.1H194.1z M192.4,168.1c0.3,0,0.6-0.1,0.9-0.2
	s0.5-0.4,0.6-0.6v-1.2h-0.8c-1.2,0-1.8,0.4-1.8,1.1c0,0.3,0.1,0.6,0.3,0.7C191.8,168.1,192.1,168.1,192.4,168.1z M197.5,168.9h-1
	v-5.8h1V168.9z M196.5,161.6c0-0.2,0-0.3,0.1-0.4c0.1-0.1,0.2-0.2,0.4-0.2s0.3,0.1,0.4,0.2c0.1,0.1,0.1,0.2,0.1,0.4
	s-0.1,0.3-0.1,0.4c-0.1,0.1-0.2,0.2-0.4,0.2s-0.3-0.1-0.4-0.2C196.5,161.9,196.5,161.7,196.5,161.6z M200.2,168.9h-1v-8.2h1V168.9z
	 M201.6,162.6c0-0.5,0.1-0.9,0.4-1.2c0.3-0.3,0.7-0.5,1.1-0.5c0.5,0,0.9,0.2,1.1,0.5c0.3,0.3,0.4,0.7,0.4,1.2v0.4
	c0,0.5-0.2,0.9-0.4,1.2c-0.3,0.3-0.7,0.4-1.1,0.4c-0.5,0-0.8-0.1-1.1-0.4c-0.3-0.3-0.5-0.7-0.5-1.2V162.6z M202.3,163
	c0,0.3,0.1,0.5,0.2,0.7c0.2,0.2,0.4,0.3,0.6,0.3c0.3,0,0.5-0.1,0.6-0.3c0.2-0.2,0.2-0.4,0.2-0.7v-0.4c0-0.3-0.1-0.5-0.2-0.7
	c-0.2-0.2-0.4-0.3-0.6-0.3c-0.3,0-0.5,0.1-0.6,0.3c-0.2,0.2-0.2,0.4-0.2,0.7V163z M205.4,167c0-0.5,0.1-0.8,0.4-1.1
	c0.3-0.3,0.7-0.5,1.1-0.5c0.5,0,0.8,0.2,1.1,0.4c0.3,0.3,0.4,0.7,0.4,1.2v0.4c0,0.5-0.1,0.9-0.4,1.2c-0.3,0.3-0.7,0.4-1.1,0.4
	s-0.8-0.1-1.1-0.4c-0.3-0.3-0.5-0.7-0.5-1.2V167z M206.1,167.4c0,0.3,0.1,0.5,0.2,0.7c0.2,0.2,0.4,0.3,0.6,0.3
	c0.3,0,0.5-0.1,0.6-0.3c0.2-0.2,0.2-0.4,0.2-0.7V167c0-0.3-0.1-0.5-0.2-0.7c-0.2-0.2-0.4-0.3-0.6-0.3c-0.3,0-0.5,0.1-0.6,0.3
	c-0.2,0.2-0.2,0.4-0.2,0.7V167.4z M203.4,168.3l-0.6-0.4l3.8-6.1l0.6,0.4L203.4,168.3z"/>
<path d="M233.1,166.9h-3.3l-0.7,2h-1.1l3-7.8h0.9l3,7.8h-1.1L233.1,166.9z M230.2,166h2.6l-1.3-3.6L230.2,166z M237.4,167.6l1.4-4.4
	h1l-2.1,5.8h-0.8l-2.1-5.8h1L237.4,167.6z M244.3,168.9c-0.1-0.1-0.1-0.3-0.1-0.6c-0.5,0.5-1,0.7-1.6,0.7c-0.6,0-1-0.2-1.4-0.5
	c-0.4-0.3-0.5-0.7-0.5-1.2c0-0.6,0.2-1.1,0.7-1.4c0.5-0.3,1.1-0.5,1.9-0.5h1v-0.5c0-0.3-0.1-0.6-0.3-0.8c-0.2-0.2-0.5-0.3-0.9-0.3
	c-0.4,0-0.6,0.1-0.9,0.3c-0.2,0.2-0.4,0.4-0.4,0.6h-1c0-0.3,0.1-0.6,0.3-0.8c0.2-0.3,0.5-0.5,0.8-0.6c0.4-0.2,0.7-0.2,1.2-0.2
	c0.7,0,1.2,0.2,1.6,0.5c0.4,0.3,0.6,0.8,0.6,1.4v2.7c0,0.5,0.1,1,0.2,1.3v0.1H244.3z M242.7,168.1c0.3,0,0.6-0.1,0.9-0.2
	c0.3-0.2,0.5-0.4,0.6-0.6v-1.2h-0.8c-1.2,0-1.8,0.4-1.8,1.1c0,0.3,0.1,0.6,0.3,0.7C242.1,168.1,242.4,168.1,242.7,168.1z
	 M247.8,168.9h-1v-5.8h1V168.9z M246.7,161.6c0-0.2,0-0.3,0.1-0.4c0.1-0.1,0.2-0.2,0.4-0.2s0.3,0.1,0.4,0.2c0.1,0.1,0.1,0.2,0.1,0.4
	s0,0.3-0.1,0.4c-0.1,0.1-0.2,0.2-0.4,0.2s-0.3-0.1-0.4-0.2C246.8,161.9,246.7,161.7,246.7,161.6z M250.4,168.9h-1v-8.2h1V168.9z
	 M258.1,167.4c0-0.3-0.1-0.5-0.3-0.6c-0.2-0.2-0.5-0.3-1.1-0.4c-0.5-0.1-0.9-0.2-1.2-0.4c-0.3-0.2-0.5-0.3-0.7-0.5
	c-0.1-0.2-0.2-0.5-0.2-0.7c0-0.5,0.2-0.9,0.6-1.2c0.4-0.3,0.9-0.5,1.5-0.5c0.7,0,1.2,0.2,1.6,0.5c0.4,0.3,0.6,0.8,0.6,1.3h-1
	c0-0.3-0.1-0.5-0.3-0.7c-0.2-0.2-0.5-0.3-0.9-0.3c-0.4,0-0.6,0.1-0.8,0.2c-0.2,0.2-0.3,0.4-0.3,0.6c0,0.2,0.1,0.4,0.3,0.5
	c0.2,0.1,0.5,0.2,1,0.3c0.5,0.1,0.9,0.2,1.2,0.4s0.5,0.3,0.7,0.6c0.1,0.2,0.2,0.5,0.2,0.8c0,0.5-0.2,0.9-0.6,1.2
	c-0.4,0.3-0.9,0.5-1.6,0.5c-0.5,0-0.9-0.1-1.2-0.2c-0.4-0.2-0.6-0.4-0.8-0.7c-0.2-0.3-0.3-0.6-0.3-1h1c0,0.3,0.2,0.6,0.4,0.8
	c0.2,0.2,0.6,0.3,1,0.3c0.4,0,0.7-0.1,0.9-0.2C258,167.8,258.1,167.6,258.1,167.4z M261.4,168.9h-1v-8.2h1V168.9z M262.8,166
	c0-0.6,0.1-1.1,0.3-1.5c0.2-0.5,0.5-0.8,0.9-1c0.4-0.2,0.9-0.4,1.4-0.4c0.8,0,1.4,0.3,1.9,0.8c0.5,0.5,0.7,1.3,0.7,2.2v0.1
	c0,0.6-0.1,1.1-0.3,1.5c-0.2,0.4-0.5,0.8-0.9,1c-0.4,0.2-0.9,0.4-1.4,0.4c-0.8,0-1.4-0.3-1.9-0.8C263,167.6,262.8,166.9,262.8,166
	L262.8,166z M263.8,166.1c0,0.6,0.1,1.2,0.4,1.5c0.3,0.4,0.7,0.6,1.2,0.6c0.5,0,0.9-0.2,1.2-0.6c0.3-0.4,0.4-0.9,0.4-1.7
	c0-0.6-0.2-1.1-0.5-1.5c-0.3-0.4-0.7-0.6-1.2-0.6c-0.5,0-0.9,0.2-1.2,0.6S263.8,165.3,263.8,166.1z M270.6,161.7v1.4h1.1v0.8h-1.1
	v3.6c0,0.2,0,0.4,0.1,0.5c0.1,0.1,0.3,0.2,0.5,0.2c0.1,0,0.3,0,0.5-0.1v0.8c-0.3,0.1-0.5,0.1-0.8,0.1c-0.4,0-0.8-0.1-1-0.4
	c-0.2-0.3-0.3-0.6-0.3-1.1v-3.6h-1.1v-0.8h1.1v-1.4H270.6z M276.2,167.4c0-0.3-0.1-0.5-0.3-0.6c-0.2-0.2-0.6-0.3-1.1-0.4
	c-0.5-0.1-0.9-0.2-1.2-0.4c-0.3-0.2-0.5-0.3-0.7-0.5c-0.1-0.2-0.2-0.5-0.2-0.7c0-0.5,0.2-0.9,0.6-1.2c0.4-0.3,0.9-0.5,1.5-0.5
	c0.7,0,1.2,0.2,1.6,0.5c0.4,0.3,0.6,0.8,0.6,1.3h-1c0-0.3-0.1-0.5-0.3-0.7c-0.2-0.2-0.5-0.3-0.9-0.3c-0.4,0-0.6,0.1-0.8,0.2
	c-0.2,0.2-0.3,0.4-0.3,0.6c0,0.2,0.1,0.4,0.3,0.5c0.2,0.1,0.5,0.2,1,0.3c0.5,0.1,0.9,0.2,1.2,0.4c0.3,0.2,0.5,0.3,0.7,0.6
	c0.1,0.2,0.2,0.5,0.2,0.8c0,0.5-0.2,0.9-0.6,1.2c-0.4,0.3-0.9,0.5-1.6,0.5c-0.5,0-0.9-0.1-1.2-0.2c-0.4-0.2-0.6-0.4-0.8-0.7
	c-0.2-0.3-0.3-0.6-0.3-1h1c0,0.3,0.1,0.6,0.4,0.8c0.2,0.2,0.6,0.3,1,0.3c0.4,0,0.7-0.1,0.9-0.2C276.1,167.8,276.2,167.6,276.2,167.4
	z"/>
<path d="M306.7,165.5h-3.3v3.4h-1v-7.8h4.8v0.8h-3.8v2.7h3.3V165.5z M309.3,168.9h-1v-5.8h1V168.9z M308.3,161.6
	c0-0.2,0-0.3,0.1-0.4c0.1-0.1,0.2-0.2,0.4-0.2c0.2,0,0.3,0.1,0.4,0.2c0.1,0.1,0.1,0.2,0.1,0.4s-0.1,0.3-0.1,0.4
	c-0.1,0.1-0.2,0.2-0.4,0.2c-0.2,0-0.3-0.1-0.4-0.2C308.3,161.9,308.3,161.7,308.3,161.6z M312,168.9h-1v-8.2h1V168.9z M314.6,168.9
	h-1v-8.2h1V168.9z M322,165.8h-1.8v3.1h-1v-7.8h2.6c0.9,0,1.5,0.2,2,0.6c0.5,0.4,0.7,1,0.7,1.7c0,0.5-0.1,0.9-0.4,1.3
	c-0.3,0.4-0.6,0.6-1.1,0.8l1.8,3.3v0.1h-1.1L322,165.8z M320.1,164.9h1.6c0.5,0,0.9-0.1,1.2-0.4c0.3-0.3,0.5-0.6,0.5-1.1
	c0-0.5-0.1-0.8-0.4-1.1c-0.3-0.3-0.7-0.4-1.2-0.4h-1.6V164.9z M329.3,168.9c-0.1-0.1-0.1-0.3-0.1-0.6c-0.5,0.5-1,0.7-1.6,0.7
	c-0.6,0-1-0.2-1.4-0.5c-0.4-0.3-0.5-0.7-0.5-1.2c0-0.6,0.2-1.1,0.7-1.4c0.5-0.3,1.1-0.5,1.9-0.5h1v-0.5c0-0.3-0.1-0.6-0.3-0.8
	c-0.2-0.2-0.5-0.3-0.9-0.3c-0.4,0-0.6,0.1-0.9,0.3c-0.2,0.2-0.4,0.4-0.4,0.6h-1c0-0.3,0.1-0.6,0.3-0.8c0.2-0.3,0.5-0.5,0.8-0.6
	c0.4-0.2,0.7-0.2,1.2-0.2c0.7,0,1.2,0.2,1.6,0.5c0.4,0.3,0.6,0.8,0.6,1.4v2.7c0,0.5,0.1,1,0.2,1.3v0.1H329.3z M327.6,168.1
	c0.3,0,0.6-0.1,0.9-0.2s0.5-0.4,0.6-0.6v-1.2h-0.8c-1.2,0-1.8,0.4-1.8,1.1c0,0.3,0.1,0.6,0.3,0.7C327,168.1,327.3,168.1,327.6,168.1
	z M333,161.7v1.4h1.1v0.8H333v3.6c0,0.2,0,0.4,0.1,0.5c0.1,0.1,0.3,0.2,0.5,0.2c0.1,0,0.3,0,0.5-0.1v0.8c-0.3,0.1-0.5,0.1-0.8,0.1
	c-0.4,0-0.8-0.1-1-0.4c-0.2-0.3-0.3-0.6-0.3-1.1v-3.6h-1.1v-0.8h1.1v-1.4H333z M337.6,169c-0.8,0-1.4-0.3-1.9-0.8
	c-0.5-0.5-0.7-1.2-0.7-2.1V166c0-0.6,0.1-1.1,0.3-1.5c0.2-0.5,0.5-0.8,0.9-1.1c0.4-0.3,0.8-0.4,1.3-0.4c0.8,0,1.3,0.2,1.8,0.7
	c0.4,0.5,0.6,1.2,0.6,2.1v0.4H336c0,0.6,0.2,1,0.5,1.4c0.3,0.3,0.7,0.5,1.2,0.5c0.3,0,0.6-0.1,0.9-0.2c0.2-0.1,0.5-0.3,0.6-0.6
	l0.6,0.5C339.3,168.6,338.6,169,337.6,169z M337.5,163.8c-0.4,0-0.7,0.1-1,0.4c-0.3,0.3-0.4,0.7-0.5,1.2h2.9v-0.1
	c0-0.5-0.2-0.9-0.4-1.2C338.2,164,337.9,163.8,337.5,163.8z"/>
<path class="st5" d="M153.6,39.5h110.7c4,0,7.3,3.3,7.3,7.3v52.7c0,4-3.3,7.3-7.3,7.3H153.6c-4,0-7.3-3.3-7.3-7.3V46.8
	C146.4,42.7,149.6,39.5,153.6,39.5z"/>
<path class="st6" d="M185.5,54c-0.7,0-1.3,0.6-1.3,1.3v9.2c0,0.6,0.5,1.1,1.1,1.1h10.9c0.6,0,1.1-0.5,1.1-1.1v-7.4
	c0-0.6-0.5-1.1-1.1-1.1h-0.8v-1.6c0-0.2-0.2-0.3-0.3-0.3H185.5z M185.5,54.7h9.3V56h-9.3c-0.4,0-0.6-0.3-0.6-0.6
	C184.9,55,185.1,54.7,185.5,54.7z M184.9,56.5c0.2,0.1,0.4,0.2,0.6,0.2c3.6,0,7.6,0,10.7,0c0.3,0,0.5,0.2,0.5,0.5v1.9h-4.6
	c-0.4,0-0.8,0.4-0.8,0.8v1.9c0,0.4,0.4,0.8,0.8,0.8h4.6v1.9c0,0.3-0.2,0.5-0.5,0.5h-10.9c-0.3,0-0.5-0.2-0.5-0.5V56.5z M192.1,59.7
	h4.6V62h-4.6c-0.1,0-0.2-0.1-0.2-0.2v-1.9C191.9,59.8,192,59.7,192.1,59.7z M193.7,60.2c-0.4,0-0.6,0.3-0.6,0.6
	c0,0.4,0.3,0.6,0.6,0.6c0.4,0,0.6-0.3,0.6-0.6C194.3,60.5,194,60.2,193.7,60.2z"/>
<path d="M188.2,86.3c0-0.4-0.1-0.8-0.4-1c-0.3-0.3-0.7-0.5-1.3-0.7c-0.6-0.2-1.1-0.4-1.5-0.6c-1.2-0.6-1.7-1.5-1.7-2.8
	c0-0.8,0.3-1.5,0.8-2c0.5-0.5,1.2-0.8,2-0.9v-1.6h1.2v1.6c0.9,0.1,1.5,0.5,2,1.1c0.5,0.6,0.7,1.4,0.7,2.4h-1.8
	c0-0.6-0.1-1.1-0.4-1.5c-0.3-0.4-0.7-0.5-1.1-0.5c-0.5,0-0.9,0.1-1.1,0.4c-0.3,0.3-0.4,0.6-0.4,1.1c0,0.4,0.1,0.8,0.4,1
	c0.3,0.3,0.7,0.5,1.4,0.7c0.6,0.2,1.1,0.5,1.5,0.6c0.4,0.2,0.7,0.4,0.9,0.7c0.2,0.3,0.4,0.5,0.6,0.9c0.1,0.3,0.2,0.7,0.2,1.2
	c0,0.8-0.3,1.5-0.8,2c-0.5,0.5-1.2,0.8-2.1,0.9v1.5h-1.2v-1.4c-1-0.1-1.7-0.5-2.3-1.1c-0.5-0.6-0.8-1.4-0.8-2.4h1.8
	c0,0.6,0.2,1.1,0.5,1.5c0.3,0.3,0.8,0.5,1.3,0.5c0.6,0,1-0.1,1.3-0.4C188,87.1,188.2,86.8,188.2,86.3z M196.5,89.2h-1.8v-8.7
	l-2.7,0.9v-1.5l4.2-1.6h0.2V89.2z M207.5,89.2h-7.3v-1.2l3.6-3.9c0.5-0.6,0.9-1.1,1.1-1.5c0.2-0.4,0.3-0.8,0.3-1.2
	c0-0.5-0.1-0.9-0.4-1.3c-0.3-0.3-0.7-0.5-1.2-0.5c-0.6,0-1,0.2-1.4,0.5c-0.3,0.4-0.5,0.8-0.5,1.5H200c0-0.7,0.1-1.3,0.4-1.8
	c0.3-0.5,0.7-0.9,1.3-1.2c0.6-0.3,1.2-0.4,1.9-0.4c1.1,0,1.9,0.3,2.5,0.8c0.6,0.5,0.9,1.3,0.9,2.2c0,0.5-0.2,1.1-0.5,1.7
	c-0.3,0.6-0.8,1.3-1.5,2l-2.7,2.8h5V89.2z M209.3,91.6l-1-0.6c0.3-0.5,0.5-0.8,0.6-1.2c0.1-0.3,0.2-0.7,0.2-1v-1.4h1.6l0,1.3
	c0,0.5-0.1,1.1-0.4,1.6C210.1,90.8,209.7,91.3,209.3,91.6z M219.4,84.6c0,1.6-0.3,2.7-0.9,3.5c-0.6,0.8-1.5,1.2-2.7,1.2
	c-1.2,0-2.1-0.4-2.7-1.2c-0.6-0.8-0.9-1.9-0.9-3.4v-1.9c0-1.6,0.3-2.7,0.9-3.5c0.6-0.8,1.5-1.2,2.7-1.2c1.2,0,2.1,0.4,2.7,1.1
	c0.6,0.8,0.9,1.9,0.9,3.4V84.6z M217.6,82.5c0-1-0.1-1.8-0.4-2.2c-0.3-0.5-0.7-0.7-1.3-0.7c-0.6,0-1,0.2-1.3,0.7
	c-0.3,0.4-0.4,1.1-0.4,2.1v2.5c0,1,0.1,1.8,0.4,2.3c0.3,0.5,0.7,0.7,1.3,0.7c0.6,0,1-0.2,1.3-0.7c0.3-0.5,0.4-1.2,0.4-2.2V82.5z
	 M228.1,84.6c0,1.6-0.3,2.7-0.9,3.5c-0.6,0.8-1.5,1.2-2.7,1.2c-1.2,0-2.1-0.4-2.7-1.2c-0.6-0.8-0.9-1.9-0.9-3.4v-1.9
	c0-1.6,0.3-2.7,0.9-3.5c0.6-0.8,1.5-1.2,2.7-1.2c1.2,0,2.1,0.4,2.7,1.1c0.6,0.8,0.9,1.9,0.9,3.4V84.6z M226.3,82.5
	c0-1-0.1-1.8-0.4-2.2c-0.3-0.5-0.7-0.7-1.3-0.7c-0.6,0-1,0.2-1.3,0.7c-0.3,0.4-0.4,1.1-0.4,2.1v2.5c0,1,0.1,1.8,0.4,2.3
	c0.3,0.5,0.7,0.7,1.3,0.7c0.6,0,1-0.2,1.3-0.7c0.3-0.5,0.4-1.2,0.4-2.2V82.5z M236.8,84.6c0,1.6-0.3,2.7-0.9,3.5
	c-0.6,0.8-1.5,1.2-2.7,1.2c-1.2,0-2.1-0.4-2.7-1.2c-0.6-0.8-0.9-1.9-0.9-3.4v-1.9c0-1.6,0.3-2.7,0.9-3.5c0.6-0.8,1.5-1.2,2.7-1.2
	c1.2,0,2.1,0.4,2.7,1.1c0.6,0.8,0.9,1.9,0.9,3.4V84.6z M234.9,82.5c0-1-0.1-1.8-0.4-2.2c-0.3-0.5-0.7-0.7-1.3-0.7
	c-0.6,0-1,0.2-1.3,0.7c-0.3,0.4-0.4,1.1-0.4,2.1v2.5c0,1,0.1,1.8,0.4,2.3c0.3,0.5,0.7,0.7,1.3,0.7c0.6,0,1-0.2,1.3-0.7
	c0.3-0.5,0.4-1.2,0.4-2.2V82.5z"/>
<path d="M203.5,64v-7.8h2.5c0.8,0,1.5,0.2,1.9,0.5c0.4,0.3,0.6,0.9,0.6,1.5c0,0.4-0.1,0.7-0.3,1c-0.2,0.3-0.5,0.5-0.8,0.6
	c0.4,0.1,0.8,0.3,1,0.7c0.2,0.3,0.4,0.7,0.4,1.2c0,0.7-0.2,1.2-0.7,1.6c-0.5,0.4-1.1,0.6-1.9,0.6H203.5z M204.6,60.4v2.8h1.7
	c0.5,0,0.9-0.1,1.1-0.4c0.3-0.2,0.4-0.6,0.4-1c0-0.9-0.5-1.4-1.5-1.4H204.6z M204.6,59.6h1.5c0.4,0,0.8-0.1,1.1-0.3
	c0.3-0.2,0.4-0.5,0.4-0.9c0-0.4-0.1-0.7-0.4-0.9c-0.2-0.2-0.6-0.3-1.1-0.3h-1.5V59.6z M213.7,63.5c-0.4,0.5-0.9,0.7-1.7,0.7
	c-0.6,0-1.1-0.2-1.4-0.5c-0.3-0.4-0.5-0.9-0.5-1.6v-3.8h1V62c0,0.9,0.4,1.3,1.1,1.3c0.8,0,1.3-0.3,1.5-0.8v-4.2h1V64h-0.9
	L213.7,63.5z M216,61.1c0-0.9,0.2-1.6,0.6-2.1c0.4-0.5,1-0.8,1.6-0.8c0.7,0,1.2,0.2,1.6,0.7v-3h1V64h-0.9l0-0.6
	c-0.4,0.5-0.9,0.7-1.6,0.7c-0.7,0-1.2-0.3-1.6-0.8C216.2,62.8,216,62.1,216,61.1L216,61.1z M217,61.2c0,0.7,0.1,1.2,0.4,1.5
	c0.3,0.4,0.6,0.6,1.1,0.6c0.6,0,1.1-0.3,1.4-0.8v-2.7c-0.3-0.5-0.7-0.8-1.4-0.8c-0.5,0-0.9,0.2-1.1,0.6
	C217.1,59.9,217,60.5,217,61.2z M222.1,61.1c0-0.9,0.2-1.6,0.6-2.1c0.4-0.5,1-0.8,1.7-0.8c0.7,0,1.3,0.2,1.6,0.7l0-0.6h0.9v5.6
	c0,0.7-0.2,1.3-0.7,1.8c-0.4,0.4-1,0.6-1.8,0.6c-0.4,0-0.8-0.1-1.2-0.3c-0.4-0.2-0.7-0.4-0.9-0.7l0.5-0.6c0.4,0.5,0.9,0.8,1.6,0.8
	c0.5,0,0.9-0.1,1.1-0.4c0.3-0.3,0.4-0.7,0.4-1.1v-0.5c-0.4,0.5-0.9,0.7-1.6,0.7c-0.7,0-1.2-0.3-1.6-0.8
	C222.4,62.8,222.1,62,222.1,61.1z M223.1,61.2c0,0.7,0.1,1.2,0.4,1.5c0.3,0.4,0.6,0.6,1.1,0.6c0.6,0,1.1-0.3,1.4-0.8v-2.6
	c-0.3-0.6-0.8-0.8-1.4-0.8c-0.5,0-0.9,0.2-1.1,0.6C223.3,59.9,223.1,60.5,223.1,61.2z M230.9,64.1c-0.8,0-1.4-0.3-1.9-0.8
	c-0.5-0.5-0.7-1.2-0.7-2.1v-0.2c0-0.6,0.1-1.1,0.3-1.5c0.2-0.5,0.5-0.8,0.9-1.1c0.4-0.3,0.8-0.4,1.3-0.4c0.8,0,1.3,0.2,1.7,0.7
	c0.4,0.5,0.6,1.2,0.6,2.1v0.4h-3.9c0,0.6,0.2,1,0.5,1.4c0.3,0.3,0.7,0.5,1.2,0.5c0.3,0,0.6-0.1,0.9-0.2c0.2-0.1,0.5-0.3,0.6-0.6
	l0.6,0.5C232.6,63.8,231.9,64.1,230.9,64.1z M230.8,59c-0.4,0-0.7,0.1-1,0.4c-0.3,0.3-0.4,0.7-0.5,1.2h2.9v-0.1
	c0-0.5-0.2-0.9-0.4-1.2C231.5,59.1,231.2,59,230.8,59z M235.6,56.9v1.4h1.1V59h-1.1v3.6c0,0.2,0,0.4,0.1,0.5
	c0.1,0.1,0.3,0.2,0.5,0.2c0.1,0,0.3,0,0.5-0.1V64c-0.3,0.1-0.5,0.1-0.8,0.1c-0.4,0-0.8-0.1-1-0.4c-0.2-0.3-0.3-0.6-0.3-1.1V59h-1.1
	v-0.8h1.1v-1.4H235.6z"/>
<path class="st5" d="M21.8,39.5h110.7c4,0,7.3,3.3,7.3,7.3v52.7c0,4-3.3,7.3-7.3,7.3H21.8c-4,0-7.3-3.3-7.3-7.3V46.8
	C14.6,42.7,17.8,39.5,21.8,39.5z"/>
<path d="M75.8,89.2h-7.3v-1.2l3.6-3.9c0.5-0.6,0.9-1.1,1.1-1.5c0.2-0.4,0.3-0.8,0.3-1.2c0-0.5-0.1-0.9-0.4-1.3
	c-0.3-0.3-0.7-0.5-1.2-0.5c-0.6,0-1,0.2-1.4,0.5c-0.3,0.4-0.5,0.8-0.5,1.5h-1.8c0-0.7,0.1-1.3,0.4-1.8c0.3-0.5,0.7-0.9,1.3-1.2
	c0.6-0.3,1.2-0.4,1.9-0.4c1.1,0,1.9,0.3,2.5,0.8c0.6,0.5,0.9,1.3,0.9,2.2c0,0.5-0.2,1.1-0.5,1.7c-0.3,0.6-0.8,1.3-1.5,2l-2.7,2.8h5
	V89.2z M77.7,83.8l0.6-5.5h5.8v1.6h-4.3l-0.3,2.6c0.5-0.3,1.1-0.4,1.7-0.4c1,0,1.8,0.3,2.4,1c0.6,0.7,0.9,1.6,0.9,2.7
	c0,1.1-0.3,2-1,2.6c-0.6,0.7-1.5,1-2.6,1c-1,0-1.8-0.3-2.5-0.8c-0.7-0.6-1-1.3-1.1-2.2h1.8c0.1,0.5,0.3,0.9,0.6,1.2
	c0.3,0.3,0.7,0.4,1.2,0.4c0.6,0,1-0.2,1.3-0.6c0.3-0.4,0.5-0.9,0.5-1.6c0-0.7-0.2-1.2-0.5-1.6c-0.3-0.4-0.8-0.6-1.4-0.6
	c-0.3,0-0.6,0-0.8,0.1c-0.2,0.1-0.5,0.3-0.7,0.5L77.7,83.8z"/>
<path d="M66,60.6c-0.9-0.3-1.5-0.6-1.9-0.9c-0.4-0.4-0.6-0.8-0.6-1.4c0-0.6,0.2-1.1,0.7-1.5c0.5-0.4,1.1-0.6,1.9-0.6
	c0.5,0,1,0.1,1.4,0.3c0.4,0.2,0.7,0.5,1,0.9c0.2,0.4,0.3,0.8,0.3,1.2h-1c0-0.5-0.1-0.8-0.4-1.1c-0.3-0.3-0.7-0.4-1.3-0.4
	c-0.5,0-0.9,0.1-1.2,0.3c-0.3,0.2-0.4,0.5-0.4,0.9c0,0.3,0.1,0.6,0.4,0.8c0.3,0.2,0.7,0.4,1.4,0.6c0.6,0.2,1.2,0.4,1.5,0.6
	c0.4,0.2,0.6,0.5,0.8,0.8c0.2,0.3,0.3,0.6,0.3,1c0,0.6-0.2,1.1-0.7,1.5c-0.5,0.4-1.1,0.6-2,0.6c-0.5,0-1-0.1-1.5-0.3
	c-0.5-0.2-0.8-0.5-1.1-0.8c-0.2-0.4-0.4-0.8-0.4-1.2h1c0,0.5,0.2,0.8,0.5,1.1c0.3,0.3,0.8,0.4,1.4,0.4c0.5,0,1-0.1,1.2-0.3
	c0.3-0.2,0.4-0.5,0.4-0.9c0-0.4-0.1-0.7-0.4-0.9C67.2,61,66.7,60.8,66,60.6z M72.4,63.3c0.4,0,0.7-0.1,0.9-0.3
	c0.3-0.2,0.4-0.5,0.4-0.8h0.9c0,0.3-0.1,0.6-0.3,0.9c-0.2,0.3-0.5,0.5-0.8,0.7c-0.3,0.2-0.7,0.3-1.1,0.3c-0.8,0-1.4-0.3-1.9-0.8
	c-0.5-0.5-0.7-1.2-0.7-2.2V61c0-0.6,0.1-1.1,0.3-1.5c0.2-0.4,0.5-0.8,0.9-1c0.4-0.2,0.8-0.4,1.4-0.4c0.6,0,1.2,0.2,1.6,0.6
	c0.4,0.4,0.7,0.9,0.7,1.5h-0.9c0-0.4-0.2-0.7-0.4-0.9c-0.3-0.2-0.6-0.4-0.9-0.4c-0.5,0-0.9,0.2-1.2,0.5c-0.3,0.4-0.4,0.9-0.4,1.6
	v0.2c0,0.7,0.1,1.2,0.4,1.5C71.5,63.2,71.9,63.3,72.4,63.3z M78.6,59.2c-0.1,0-0.3,0-0.5,0c-0.6,0-1.1,0.3-1.3,0.8V64h-1v-5.8h1
	l0,0.7c0.3-0.5,0.8-0.8,1.4-0.8c0.2,0,0.3,0,0.4,0.1V59.2z M81.8,64.1c-0.8,0-1.4-0.3-1.9-0.8c-0.5-0.5-0.7-1.2-0.7-2.1v-0.2
	c0-0.6,0.1-1.1,0.3-1.5c0.2-0.5,0.5-0.8,0.9-1.1c0.4-0.3,0.8-0.4,1.3-0.4c0.8,0,1.3,0.2,1.7,0.7c0.4,0.5,0.6,1.2,0.6,2.1v0.4h-3.9
	c0,0.6,0.2,1,0.5,1.4c0.3,0.3,0.7,0.5,1.2,0.5c0.3,0,0.6-0.1,0.9-0.2c0.2-0.1,0.5-0.3,0.6-0.6l0.6,0.5
	C83.5,63.8,82.7,64.1,81.8,64.1z M81.6,59c-0.4,0-0.7,0.1-1,0.4c-0.3,0.3-0.4,0.7-0.5,1.2H83v-0.1c0-0.5-0.2-0.9-0.4-1.2
	C82.4,59.1,82.1,59,81.6,59z M87.6,64.1c-0.8,0-1.4-0.3-1.9-0.8c-0.5-0.5-0.7-1.2-0.7-2.1v-0.2c0-0.6,0.1-1.1,0.3-1.5
	c0.2-0.5,0.5-0.8,0.9-1.1c0.4-0.3,0.8-0.4,1.3-0.4c0.8,0,1.3,0.2,1.7,0.7c0.4,0.5,0.6,1.2,0.6,2.1v0.4h-3.9c0,0.6,0.2,1,0.5,1.4
	c0.3,0.3,0.7,0.5,1.2,0.5c0.3,0,0.6-0.1,0.9-0.2c0.2-0.1,0.5-0.3,0.6-0.6l0.6,0.5C89.2,63.8,88.5,64.1,87.6,64.1z M87.4,59
	c-0.4,0-0.7,0.1-1,0.4c-0.3,0.3-0.4,0.7-0.5,1.2h2.9v-0.1c0-0.5-0.2-0.9-0.4-1.2C88.2,59.1,87.8,59,87.4,59z M91.9,58.3l0,0.7
	c0.4-0.6,1-0.8,1.7-0.8c1.2,0,1.8,0.7,1.8,2.1V64h-1v-3.8c0-0.4-0.1-0.7-0.3-0.9C94,59.1,93.7,59,93.3,59c-0.3,0-0.6,0.1-0.8,0.3
	s-0.4,0.4-0.6,0.7V64h-1v-5.8H91.9z M100.3,62.5c0-0.3-0.1-0.5-0.3-0.6c-0.2-0.1-0.5-0.3-1.1-0.4c-0.5-0.1-0.9-0.2-1.2-0.4
	c-0.3-0.1-0.5-0.3-0.7-0.5c-0.1-0.2-0.2-0.5-0.2-0.7c0-0.5,0.2-0.9,0.6-1.2c0.4-0.3,0.9-0.5,1.5-0.5c0.7,0,1.2,0.2,1.6,0.5
	c0.4,0.3,0.6,0.8,0.6,1.3h-1c0-0.3-0.1-0.5-0.3-0.7c-0.2-0.2-0.5-0.3-0.9-0.3c-0.4,0-0.6,0.1-0.8,0.2c-0.2,0.2-0.3,0.4-0.3,0.6
	c0,0.2,0.1,0.4,0.3,0.5c0.2,0.1,0.5,0.2,1,0.3c0.5,0.1,0.9,0.2,1.2,0.4c0.3,0.2,0.5,0.3,0.7,0.6c0.1,0.2,0.2,0.5,0.2,0.8
	c0,0.5-0.2,0.9-0.6,1.2c-0.4,0.3-0.9,0.5-1.6,0.5c-0.5,0-0.9-0.1-1.2-0.2c-0.4-0.2-0.6-0.4-0.8-0.7c-0.2-0.3-0.3-0.6-0.3-1h1
	c0,0.3,0.1,0.6,0.4,0.8c0.2,0.2,0.6,0.3,1,0.3c0.4,0,0.7-0.1,0.9-0.2C100.2,63,100.3,62.8,100.3,62.5z"/>
<path class="st6" d="M54,55.1v10.8H36.8V55.1H54z M54.1,54H36.7c-0.5,0-1,0.4-1,1v10.9c0,0.6,0.4,1.1,1,1.1H54c0.5,0,1-0.4,1-1V55
	C55.1,54.5,54.7,54,54.1,54L54.1,54z"/>
<path class="st6" d="M47.9,68.6H43c-0.3,0-0.5-0.2-0.5-0.5c0-0.3,0.2-0.5,0.5-0.5h4.9c0.3,0,0.5,0.2,0.5,0.5
	C48.4,68.4,48.1,68.6,47.9,68.6z"/>
<g>
	<path class="st5" d="M285.4,46h110.7c4,0,7.3,3.3,7.3,7.3V106c0,4-3.3,7.3-7.3,7.3H285.4c-4,0-7.3-3.3-7.3-7.3V53.3
		C278.2,49.3,281.4,46,285.4,46z"/>
</g>
<path d="M330.2,92.9c0-0.4-0.1-0.8-0.4-1c-0.3-0.3-0.7-0.5-1.3-0.7c-0.6-0.2-1.1-0.4-1.5-0.6c-1.2-0.6-1.7-1.5-1.7-2.8
	c0-0.8,0.3-1.5,0.8-2c0.5-0.5,1.2-0.8,2-0.9v-1.6h1.2v1.6c0.9,0.1,1.5,0.5,2,1.1c0.5,0.6,0.7,1.4,0.7,2.4h-1.8
	c0-0.6-0.1-1.1-0.4-1.5c-0.3-0.4-0.7-0.5-1.1-0.5c-0.5,0-0.9,0.1-1.1,0.4c-0.3,0.3-0.4,0.6-0.4,1.1c0,0.4,0.1,0.8,0.4,1
	c0.3,0.3,0.7,0.5,1.4,0.7c0.6,0.2,1.1,0.5,1.5,0.6c0.4,0.2,0.7,0.4,0.9,0.7c0.2,0.3,0.4,0.5,0.6,0.9c0.1,0.3,0.2,0.7,0.2,1.2
	c0,0.8-0.3,1.5-0.8,2c-0.5,0.5-1.2,0.8-2.2,0.9v1.5h-1.2v-1.4c-1-0.1-1.7-0.5-2.3-1.1c-0.5-0.6-0.8-1.4-0.8-2.4h1.8
	c0,0.6,0.2,1.1,0.5,1.5c0.3,0.3,0.8,0.5,1.3,0.5c0.6,0,1-0.1,1.3-0.4C330,93.7,330.2,93.3,330.2,92.9z M340.6,91.1
	c0,1.6-0.3,2.7-0.9,3.5c-0.6,0.8-1.5,1.2-2.7,1.2c-1.2,0-2.1-0.4-2.7-1.2c-0.6-0.8-0.9-1.9-0.9-3.4v-1.9c0-1.6,0.3-2.7,0.9-3.5
	c0.6-0.8,1.5-1.2,2.7-1.2c1.2,0,2.1,0.4,2.7,1.1c0.6,0.8,0.9,1.9,0.9,3.4V91.1z M338.8,89.1c0-1-0.1-1.8-0.4-2.2
	c-0.3-0.5-0.7-0.7-1.3-0.7c-0.6,0-1,0.2-1.3,0.7c-0.3,0.4-0.4,1.1-0.4,2.1v2.5c0,1,0.1,1.8,0.4,2.3c0.3,0.5,0.7,0.7,1.3,0.7
	c0.6,0,1-0.2,1.3-0.7c0.3-0.5,0.4-1.2,0.4-2.2V89.1z M343.5,93.8c0.3,0,0.6,0.1,0.8,0.3c0.2,0.2,0.3,0.4,0.3,0.7
	c0,0.3-0.1,0.5-0.3,0.7c-0.2,0.2-0.4,0.3-0.8,0.3c-0.3,0-0.6-0.1-0.8-0.3c-0.2-0.2-0.3-0.4-0.3-0.7c0-0.3,0.1-0.5,0.3-0.7
	C342.9,93.9,343.1,93.8,343.5,93.8z M353.8,95.7h-7.3v-1.2l3.6-3.9c0.5-0.6,0.9-1.1,1.1-1.5c0.2-0.4,0.3-0.8,0.3-1.2
	c0-0.5-0.1-0.9-0.4-1.3c-0.3-0.3-0.7-0.5-1.2-0.5c-0.6,0-1,0.2-1.4,0.5c-0.3,0.4-0.5,0.8-0.5,1.5h-1.8c0-0.7,0.1-1.3,0.4-1.8
	c0.3-0.5,0.7-0.9,1.3-1.2c0.6-0.3,1.2-0.4,1.9-0.4c1.1,0,1.9,0.3,2.5,0.8c0.6,0.5,0.9,1.3,0.9,2.2c0,0.5-0.2,1.1-0.5,1.7
	c-0.3,0.6-0.8,1.3-1.5,2l-2.7,2.8h5V95.7z"/>
<path d="M341,68.1c-0.1,0.8-0.4,1.5-0.9,1.9c-0.5,0.4-1.2,0.7-2,0.7c-0.9,0-1.7-0.3-2.2-1c-0.6-0.7-0.8-1.5-0.8-2.6v-0.7
	c0-0.7,0.1-1.4,0.4-1.9c0.3-0.5,0.6-1,1.1-1.3c0.5-0.3,1-0.4,1.6-0.4c0.8,0,1.5,0.2,2,0.7c0.5,0.5,0.8,1.1,0.9,1.9h-1
	c-0.1-0.6-0.3-1.1-0.6-1.3c-0.3-0.3-0.7-0.4-1.2-0.4c-0.7,0-1.2,0.2-1.5,0.7c-0.4,0.5-0.6,1.2-0.6,2.1v0.8c0,0.8,0.2,1.5,0.5,2
	s0.8,0.7,1.5,0.7c0.6,0,1-0.1,1.3-0.4c0.3-0.3,0.5-0.7,0.6-1.3H341z M343.5,67.6v3h-1v-7.8h2.9c0.9,0,1.5,0.2,2,0.7
	c0.5,0.4,0.7,1,0.7,1.7c0,0.8-0.2,1.3-0.7,1.7c-0.5,0.4-1.1,0.6-2,0.6H343.5z M343.5,66.7h1.8c0.5,0,1-0.1,1.3-0.4
	c0.3-0.3,0.4-0.6,0.4-1.1c0-0.5-0.1-0.8-0.4-1.1c-0.3-0.3-0.7-0.4-1.2-0.4h-1.9V66.7z M350.7,62.8l2.5,6.3l2.5-6.3h1.3v7.8h-1v-3
	l0.1-3.3l-2.5,6.3h-0.8l-2.5-6.3l0.1,3.2v3h-1v-7.8H350.7z"/>
<path class="st6" d="M325.6,61.7v10.8h-17.3V61.7H325.6z M325.7,60.6h-17.5c-0.5,0-1,0.4-1,1v10.9c0,0.6,0.4,1.1,1,1.1h17.4
	c0.5,0,1-0.4,1-1v-11C326.7,61,326.3,60.6,325.7,60.6L325.7,60.6z"/>
<path class="st6" d="M319.5,75.2h-4.9c-0.3,0-0.5-0.2-0.5-0.5c0-0.3,0.2-0.5,0.5-0.5h4.9c0.3,0,0.5,0.2,0.5,0.5
	C320,74.9,319.7,75.2,319.5,75.2z"/>
<g>
	<path class="st6" d="M263.3,22h154.9c3.5,0,6.3,2.8,6.3,6.3v211c0,3.5-2.8,6.3-6.3,6.3H263.3c-3.5,0-6.3-2.8-6.3-6.3v-211
		C257,24.8,259.8,22,263.3,22z"/>
	<path class="st7" d="M263.3,22.2h154.9c3.4,0,6.1,2.7,6.1,6.1v211c0,3.4-2.7,6.1-6.1,6.1H263.3c-3.4,0-6.1-2.7-6.1-6.1v-211
		C257.2,24.9,260,22.2,263.3,22.2z"/>
</g>
<path class="st5" d="M279.3,37.6h-2.3l-0.4,1.3h-1.4l2.3-6.2h1.2l2.3,6.2h-1.4L279.3,37.6z M277.4,36.6h1.6l-0.8-2.3L277.4,36.6z
	 M281.4,36.5c0-0.7,0.2-1.3,0.5-1.7c0.3-0.4,0.8-0.6,1.3-0.6c0.5,0,0.8,0.2,1.1,0.5v-2.4h1.2v6.6h-1.1l-0.1-0.5
	c-0.3,0.4-0.7,0.6-1.2,0.6c-0.5,0-1-0.2-1.3-0.6C281.6,37.9,281.4,37.3,281.4,36.5z M282.7,36.6c0,0.4,0.1,0.8,0.2,1
	c0.2,0.2,0.4,0.3,0.7,0.3c0.4,0,0.7-0.2,0.8-0.5v-1.8c-0.2-0.3-0.4-0.5-0.8-0.5C283,35.2,282.7,35.7,282.7,36.6z M292.1,37.3
	c0-0.2-0.1-0.4-0.3-0.6c-0.2-0.1-0.5-0.3-0.9-0.4c-0.4-0.1-0.8-0.3-1.1-0.4c-0.7-0.4-1.1-0.9-1.1-1.5c0-0.3,0.1-0.6,0.3-0.9
	c0.2-0.3,0.5-0.5,0.8-0.6c0.4-0.1,0.8-0.2,1.2-0.2c0.4,0,0.8,0.1,1.2,0.2c0.3,0.2,0.6,0.4,0.8,0.7c0.2,0.3,0.3,0.6,0.3,1h-1.3
	c0-0.3-0.1-0.5-0.3-0.7c-0.2-0.2-0.4-0.2-0.8-0.2c-0.3,0-0.6,0.1-0.7,0.2c-0.2,0.1-0.3,0.3-0.3,0.5c0,0.2,0.1,0.4,0.3,0.5
	c0.2,0.1,0.5,0.3,0.9,0.4c0.7,0.2,1.3,0.5,1.6,0.8c0.3,0.3,0.5,0.7,0.5,1.2c0,0.5-0.2,1-0.6,1.3c-0.4,0.3-1,0.5-1.6,0.5
	c-0.5,0-0.9-0.1-1.3-0.3c-0.4-0.2-0.7-0.4-0.9-0.7c-0.2-0.3-0.3-0.7-0.3-1.1h1.3c0,0.7,0.4,1,1.2,1c0.3,0,0.5-0.1,0.7-0.2
	C292,37.7,292.1,37.5,292.1,37.3z M296.3,39c-0.7,0-1.2-0.2-1.7-0.6c-0.4-0.4-0.6-1-0.6-1.7v-0.1c0-0.5,0.1-0.9,0.3-1.2
	c0.2-0.4,0.4-0.7,0.8-0.8c0.3-0.2,0.7-0.3,1.1-0.3c0.6,0,1.1,0.2,1.5,0.6c0.4,0.4,0.5,1,0.5,1.7V37h-3c0,0.3,0.2,0.5,0.4,0.7
	c0.2,0.2,0.5,0.3,0.8,0.3c0.5,0,0.8-0.2,1.1-0.5l0.6,0.7c-0.2,0.3-0.4,0.5-0.8,0.6C297,38.9,296.7,39,296.3,39z M296.1,35.2
	c-0.2,0-0.4,0.1-0.6,0.2c-0.2,0.2-0.2,0.4-0.3,0.7h1.7V36c0-0.3-0.1-0.5-0.2-0.6C296.6,35.2,296.4,35.2,296.1,35.2z M300.4,33.1v1.1
	h0.8v0.9h-0.8v2.3c0,0.2,0,0.3,0.1,0.4c0.1,0.1,0.2,0.1,0.4,0.1c0.1,0,0.3,0,0.4,0v0.9c-0.2,0.1-0.5,0.1-0.8,0.1
	c-0.9,0-1.3-0.4-1.3-1.3v-2.5h-0.7v-0.9h0.7v-1.1H300.4z M303.3,33.1v1.1h0.8v0.9h-0.8v2.3c0,0.2,0,0.3,0.1,0.4
	c0.1,0.1,0.2,0.1,0.4,0.1c0.1,0,0.3,0,0.4,0v0.9c-0.2,0.1-0.5,0.1-0.8,0.1c-0.9,0-1.3-0.4-1.3-1.3v-2.5h-0.7v-0.9h0.7v-1.1H303.3z
	 M306.1,38.9h-1.2v-4.6h1.2V38.9z M304.8,33.1c0-0.2,0.1-0.3,0.2-0.5c0.1-0.1,0.3-0.2,0.5-0.2c0.2,0,0.4,0.1,0.5,0.2
	c0.1,0.1,0.2,0.3,0.2,0.5c0,0.2-0.1,0.3-0.2,0.5c-0.1,0.1-0.3,0.2-0.5,0.2c-0.2,0-0.4-0.1-0.5-0.2C304.9,33.4,304.8,33.2,304.8,33.1
	z M308.3,34.3l0,0.5c0.3-0.4,0.8-0.6,1.3-0.6c0.5,0,0.9,0.1,1.1,0.4c0.2,0.3,0.4,0.7,0.4,1.3v3h-1.2v-3c0-0.3-0.1-0.5-0.2-0.6
	c-0.1-0.1-0.3-0.2-0.6-0.2c-0.3,0-0.6,0.1-0.8,0.4v3.3h-1.2v-4.6H308.3z M311.9,36.5c0-0.7,0.2-1.3,0.5-1.7c0.3-0.4,0.8-0.7,1.4-0.7
	c0.5,0,0.9,0.2,1.2,0.5l0.1-0.4h1.1v4.5c0,0.4-0.1,0.8-0.3,1.1c-0.2,0.3-0.4,0.5-0.8,0.7c-0.3,0.2-0.7,0.2-1.2,0.2
	c-0.3,0-0.7-0.1-1-0.2c-0.3-0.1-0.6-0.3-0.7-0.5l0.5-0.8c0.3,0.3,0.7,0.5,1.1,0.5c0.3,0,0.6-0.1,0.8-0.3c0.2-0.2,0.3-0.4,0.3-0.7
	v-0.2c-0.3,0.3-0.7,0.5-1.1,0.5c-0.6,0-1-0.2-1.4-0.7C312.1,37.9,311.9,37.3,311.9,36.5L311.9,36.5z M313.1,36.6
	c0,0.4,0.1,0.7,0.3,1c0.2,0.2,0.4,0.4,0.7,0.4c0.4,0,0.6-0.1,0.8-0.4v-1.9c-0.2-0.3-0.4-0.4-0.8-0.4c-0.3,0-0.5,0.1-0.7,0.4
	C313.2,35.8,313.1,36.1,313.1,36.6z M319.6,37.6c0-0.2-0.1-0.3-0.2-0.4c-0.1-0.1-0.4-0.2-0.7-0.2c-1.1-0.2-1.7-0.7-1.7-1.4
	c0-0.4,0.2-0.8,0.5-1c0.3-0.3,0.8-0.4,1.3-0.4c0.6,0,1.1,0.1,1.4,0.4c0.4,0.3,0.5,0.6,0.5,1.1h-1.2c0-0.2-0.1-0.3-0.2-0.4
	c-0.1-0.1-0.3-0.2-0.5-0.2c-0.2,0-0.4,0-0.5,0.1c-0.1,0.1-0.2,0.2-0.2,0.4c0,0.1,0.1,0.2,0.2,0.3c0.1,0.1,0.4,0.2,0.7,0.2
	c0.3,0.1,0.6,0.1,0.8,0.2c0.7,0.2,1,0.7,1,1.2c0,0.4-0.2,0.8-0.5,1c-0.4,0.3-0.8,0.4-1.4,0.4c-0.4,0-0.7-0.1-1-0.2
	c-0.3-0.1-0.5-0.3-0.7-0.6c-0.2-0.2-0.3-0.5-0.3-0.8h1.2c0,0.2,0.1,0.4,0.2,0.5c0.2,0.1,0.4,0.2,0.6,0.2c0.2,0,0.4,0,0.5-0.1
	C319.5,37.9,319.6,37.8,319.6,37.6z"/>
<path class="st5" d="M375.5,36.1h-2.6v2.8h-0.8v-6.2h3.9v0.7h-3v2.1h2.6V36.1z M377.7,38.9h-0.8v-4.6h0.8V38.9z M376.8,33
	c0-0.1,0-0.2,0.1-0.3c0.1-0.1,0.2-0.1,0.4-0.1c0.2,0,0.3,0,0.4,0.1c0.1,0.1,0.1,0.2,0.1,0.3c0,0.1,0,0.2-0.1,0.3
	c-0.1,0.1-0.2,0.1-0.4,0.1c-0.2,0-0.3,0-0.4-0.1C376.9,33.3,376.8,33.2,376.8,33z M379.8,38.9H379v-6.6h0.8V38.9z M382.2,33.1v1.1
	h0.9v0.6h-0.9v2.9c0,0.2,0,0.3,0.1,0.4c0.1,0.1,0.2,0.1,0.4,0.1c0.1,0,0.2,0,0.4-0.1v0.6c-0.2,0.1-0.4,0.1-0.6,0.1
	c-0.4,0-0.6-0.1-0.8-0.3c-0.2-0.2-0.3-0.5-0.3-0.9v-2.9h-0.8v-0.6h0.8v-1.1H382.2z M385.9,39c-0.6,0-1.1-0.2-1.5-0.6
	c-0.4-0.4-0.6-1-0.6-1.7v-0.1c0-0.5,0.1-0.9,0.3-1.2c0.2-0.4,0.4-0.6,0.7-0.8c0.3-0.2,0.7-0.3,1-0.3c0.6,0,1.1,0.2,1.4,0.6
	c0.3,0.4,0.5,1,0.5,1.7v0.3h-3.1c0,0.5,0.1,0.8,0.4,1.1c0.3,0.3,0.6,0.4,1,0.4c0.3,0,0.5-0.1,0.7-0.2c0.2-0.1,0.4-0.3,0.5-0.5
	l0.5,0.4C387.2,38.7,386.7,39,385.9,39z M385.8,34.8c-0.3,0-0.6,0.1-0.8,0.4c-0.2,0.2-0.4,0.6-0.4,1h2.3v-0.1c0-0.4-0.1-0.7-0.3-0.9
	C386.4,34.9,386.1,34.8,385.8,34.8z M390.8,35c-0.1,0-0.2,0-0.4,0c-0.5,0-0.9,0.2-1.1,0.7v3.3h-0.8v-4.6h0.8l0,0.5
	c0.3-0.4,0.6-0.6,1.1-0.6c0.2,0,0.3,0,0.4,0.1V35z M394.3,37.7c0-0.2-0.1-0.4-0.2-0.5c-0.2-0.1-0.4-0.2-0.8-0.3
	c-0.4-0.1-0.7-0.2-1-0.3c-0.2-0.1-0.4-0.3-0.5-0.4c-0.1-0.2-0.2-0.4-0.2-0.6c0-0.4,0.2-0.7,0.5-1c0.3-0.3,0.7-0.4,1.2-0.4
	c0.5,0,1,0.1,1.3,0.4c0.3,0.3,0.5,0.6,0.5,1h-0.8c0-0.2-0.1-0.4-0.3-0.6c-0.2-0.2-0.4-0.2-0.7-0.2c-0.3,0-0.5,0.1-0.7,0.2
	c-0.2,0.1-0.2,0.3-0.2,0.5c0,0.2,0.1,0.3,0.2,0.4s0.4,0.2,0.8,0.3c0.4,0.1,0.7,0.2,1,0.3s0.4,0.3,0.5,0.4c0.1,0.2,0.2,0.4,0.2,0.6
	c0,0.4-0.2,0.7-0.5,1c-0.3,0.2-0.8,0.4-1.3,0.4c-0.4,0-0.7-0.1-1-0.2c-0.3-0.1-0.5-0.3-0.7-0.5c-0.2-0.2-0.2-0.5-0.2-0.8h0.8
	c0,0.3,0.1,0.5,0.3,0.6c0.2,0.2,0.5,0.2,0.8,0.2c0.3,0,0.5-0.1,0.7-0.2C394.2,38,394.3,37.9,394.3,37.7z"/>
<line class="st8" x1="257" y1="48.6" x2="424.5" y2="48.6"/>
<line class="st9" x1="257" y1="48.6" x2="340.1" y2="48.6"/>
<path class="st5" d="M275,66.2h-2.6l-0.6,1.6H271l2.4-6.2h0.7l2.4,6.2h-0.8L275,66.2z M272.7,65.6h2.1l-1.1-2.9L272.7,65.6z
	 M277,65.5c0-0.7,0.2-1.3,0.5-1.7c0.3-0.4,0.8-0.7,1.3-0.7c0.5,0,1,0.2,1.3,0.6v-2.4h0.8v6.6h-0.7l0-0.5c-0.3,0.4-0.8,0.6-1.3,0.6
	c-0.5,0-1-0.2-1.3-0.7C277.2,66.9,277,66.3,277,65.5L277,65.5z M277.8,65.6c0,0.5,0.1,0.9,0.3,1.2c0.2,0.3,0.5,0.4,0.9,0.4
	c0.5,0,0.9-0.2,1.1-0.7v-2.1c-0.2-0.4-0.6-0.7-1.1-0.7c-0.4,0-0.7,0.2-0.9,0.4C277.9,64.6,277.8,65,277.8,65.6z M285.3,67.2h3v0.7
	h-3.8v-6.2h0.8V67.2z M291,68c-0.6,0-1.1-0.2-1.5-0.6c-0.4-0.4-0.6-1-0.6-1.7v-0.1c0-0.5,0.1-0.9,0.3-1.2c0.2-0.4,0.4-0.6,0.7-0.8
	c0.3-0.2,0.7-0.3,1-0.3c0.6,0,1.1,0.2,1.4,0.6c0.3,0.4,0.5,1,0.5,1.7v0.3h-3.1c0,0.5,0.1,0.8,0.4,1.1c0.3,0.3,0.6,0.4,1,0.4
	c0.3,0,0.5-0.1,0.7-0.2c0.2-0.1,0.4-0.3,0.5-0.5l0.5,0.4C292.3,67.7,291.8,68,291,68z M290.9,63.8c-0.3,0-0.6,0.1-0.8,0.4
	c-0.2,0.2-0.4,0.6-0.4,1h2.3v-0.1c0-0.4-0.1-0.7-0.3-0.9C291.5,63.9,291.2,63.8,290.9,63.8z M294.5,63.2l0,0.6
	c0.4-0.4,0.8-0.7,1.4-0.7c1,0,1.5,0.6,1.5,1.7v3.1h-0.8v-3.1c0-0.3-0.1-0.6-0.2-0.7c-0.1-0.2-0.4-0.2-0.7-0.2
	c-0.3,0-0.5,0.1-0.7,0.2c-0.2,0.1-0.3,0.3-0.5,0.5v3.3h-0.8v-4.6H294.5z M298.4,65.5c0-0.7,0.2-1.3,0.5-1.7c0.3-0.4,0.8-0.6,1.3-0.6
	c0.6,0,1,0.2,1.3,0.6l0-0.5h0.7v4.5c0,0.6-0.2,1.1-0.5,1.4c-0.4,0.3-0.8,0.5-1.4,0.5c-0.3,0-0.7-0.1-1-0.2c-0.3-0.1-0.6-0.3-0.7-0.6
	l0.4-0.5c0.3,0.4,0.8,0.6,1.2,0.6c0.4,0,0.7-0.1,0.9-0.3c0.2-0.2,0.3-0.5,0.3-0.9v-0.4c-0.3,0.4-0.8,0.5-1.3,0.5
	c-0.5,0-1-0.2-1.3-0.7C298.5,66.9,298.4,66.3,298.4,65.5z M299.2,65.6c0,0.5,0.1,0.9,0.3,1.2c0.2,0.3,0.5,0.4,0.9,0.4
	c0.5,0,0.9-0.2,1.1-0.7v-2.1c-0.2-0.4-0.6-0.7-1.1-0.7c-0.4,0-0.7,0.2-0.9,0.4C299.3,64.6,299.2,65,299.2,65.6z M304.5,62.1v1.1h0.9
	v0.6h-0.9v2.9c0,0.2,0,0.3,0.1,0.4c0.1,0.1,0.2,0.1,0.4,0.1c0.1,0,0.2,0,0.4-0.1v0.6c-0.2,0.1-0.4,0.1-0.6,0.1
	c-0.4,0-0.6-0.1-0.8-0.3c-0.2-0.2-0.3-0.5-0.3-0.9v-2.9h-0.8v-0.6h0.8v-1.1H304.5z M307.1,63.8c0.4-0.4,0.8-0.6,1.4-0.6
	c1,0,1.5,0.6,1.5,1.7v3.1h-0.8v-3.1c0-0.3-0.1-0.6-0.2-0.7c-0.1-0.2-0.4-0.2-0.7-0.2c-0.3,0-0.5,0.1-0.7,0.2
	c-0.2,0.1-0.3,0.3-0.5,0.5v3.3h-0.8v-6.6h0.8V63.8z"/>
<path class="st5" d="M274.5,73.7H402c2,0,3.6,1.6,3.6,3.6v16c0,2-1.6,3.6-3.6,3.6H274.5c-2,0-3.6-1.6-3.6-3.6v-16
	C270.9,75.3,272.5,73.7,274.5,73.7z"/>
<path class="st10" d="M284.4,88h-0.7v-4.4l-1.3,0.5v-0.6l1.9-0.7h0.1V88z M289.6,85.8c0,0.8-0.1,1.3-0.4,1.7
	c-0.3,0.4-0.7,0.6-1.2,0.6c-0.6,0-1-0.2-1.2-0.5c-0.3-0.4-0.4-0.9-0.4-1.6V85c0-0.8,0.1-1.3,0.4-1.7c0.3-0.4,0.7-0.6,1.2-0.6
	c0.6,0,1,0.2,1.2,0.5c0.3,0.4,0.4,0.9,0.4,1.6V85.8z M288.9,84.9c0-0.6-0.1-1-0.2-1.2c-0.2-0.3-0.4-0.4-0.7-0.4
	c-0.3,0-0.6,0.1-0.7,0.4c-0.2,0.3-0.2,0.6-0.2,1.2v1.1c0,0.6,0.1,1,0.2,1.2c0.2,0.3,0.4,0.4,0.7,0.4c0.3,0,0.6-0.1,0.7-0.4
	c0.2-0.3,0.2-0.6,0.2-1.2V84.9z M294.5,87c0-0.2-0.1-0.3-0.2-0.4c-0.1-0.1-0.4-0.2-0.7-0.3c-0.3-0.1-0.6-0.2-0.8-0.3
	c-0.2-0.1-0.3-0.2-0.4-0.4c-0.1-0.1-0.1-0.3-0.1-0.5c0-0.3,0.1-0.6,0.4-0.8c0.3-0.2,0.6-0.3,1-0.3c0.4,0,0.8,0.1,1.1,0.3
	c0.3,0.2,0.4,0.5,0.4,0.9h-0.7c0-0.2-0.1-0.3-0.2-0.5c-0.2-0.1-0.3-0.2-0.6-0.2c-0.2,0-0.4,0.1-0.6,0.2c-0.1,0.1-0.2,0.2-0.2,0.4
	c0,0.2,0.1,0.3,0.2,0.4c0.1,0.1,0.4,0.2,0.7,0.2c0.3,0.1,0.6,0.2,0.8,0.3c0.2,0.1,0.4,0.2,0.5,0.4c0.1,0.1,0.1,0.3,0.1,0.5
	c0,0.3-0.1,0.6-0.4,0.8c-0.3,0.2-0.6,0.3-1.1,0.3c-0.3,0-0.6-0.1-0.8-0.2c-0.2-0.1-0.4-0.3-0.6-0.5c-0.1-0.2-0.2-0.4-0.2-0.6h0.7
	c0,0.2,0.1,0.4,0.3,0.5c0.2,0.1,0.4,0.2,0.7,0.2c0.2,0,0.4,0,0.6-0.1C294.4,87.3,294.5,87.1,294.5,87z M297.6,88.1
	c-0.5,0-0.9-0.2-1.3-0.5c-0.3-0.3-0.5-0.8-0.5-1.4V86c0-0.4,0.1-0.7,0.2-1c0.1-0.3,0.4-0.5,0.6-0.7c0.3-0.2,0.5-0.3,0.9-0.3
	c0.5,0,0.9,0.2,1.2,0.5c0.3,0.3,0.4,0.8,0.4,1.4v0.3h-2.6c0,0.4,0.1,0.7,0.3,0.9c0.2,0.2,0.5,0.3,0.8,0.3c0.2,0,0.4,0,0.6-0.1
	c0.2-0.1,0.3-0.2,0.4-0.4l0.4,0.3C298.8,87.8,298.3,88.1,297.6,88.1z M297.6,84.6c-0.3,0-0.5,0.1-0.7,0.3c-0.2,0.2-0.3,0.5-0.3,0.8
	h1.9v0c0-0.3-0.1-0.6-0.3-0.8C298,84.7,297.8,84.6,297.6,84.6z M301.4,87.5c0.2,0,0.4-0.1,0.6-0.2c0.2-0.1,0.3-0.3,0.3-0.5h0.6
	c0,0.2-0.1,0.4-0.2,0.6c-0.1,0.2-0.3,0.4-0.6,0.5c-0.2,0.1-0.5,0.2-0.7,0.2c-0.5,0-0.9-0.2-1.3-0.5c-0.3-0.4-0.5-0.8-0.5-1.4V86
	c0-0.4,0.1-0.7,0.2-1c0.1-0.3,0.3-0.5,0.6-0.7c0.3-0.2,0.6-0.2,0.9-0.2c0.4,0,0.8,0.1,1.1,0.4c0.3,0.3,0.4,0.6,0.5,1h-0.6
	c0-0.2-0.1-0.5-0.3-0.6c-0.2-0.2-0.4-0.2-0.6-0.2c-0.3,0-0.6,0.1-0.8,0.4c-0.2,0.2-0.3,0.6-0.3,1v0.1c0,0.4,0.1,0.8,0.3,1
	C300.8,87.4,301.1,87.5,301.4,87.5z M303.5,86c0-0.4,0.1-0.7,0.2-1c0.1-0.3,0.4-0.5,0.6-0.7c0.3-0.2,0.6-0.2,0.9-0.2
	c0.5,0,0.9,0.2,1.3,0.5c0.3,0.4,0.5,0.8,0.5,1.4v0c0,0.4-0.1,0.7-0.2,1c-0.1,0.3-0.3,0.5-0.6,0.7c-0.3,0.2-0.6,0.2-0.9,0.2
	c-0.5,0-0.9-0.2-1.3-0.5C303.7,87.1,303.5,86.7,303.5,86L303.5,86z M304.2,86.1c0,0.4,0.1,0.8,0.3,1c0.2,0.3,0.5,0.4,0.8,0.4
	c0.3,0,0.6-0.1,0.8-0.4c0.2-0.3,0.3-0.6,0.3-1.1c0-0.4-0.1-0.8-0.3-1c-0.2-0.3-0.5-0.4-0.8-0.4c-0.3,0-0.6,0.1-0.8,0.4
	C304.3,85.3,304.2,85.6,304.2,86.1z M308.5,84.1l0,0.5c0.3-0.4,0.7-0.6,1.2-0.6c0.8,0,1.2,0.5,1.2,1.4V88h-0.7v-2.5
	c0-0.3-0.1-0.5-0.2-0.6c-0.1-0.1-0.3-0.2-0.6-0.2c-0.2,0-0.4,0.1-0.6,0.2c-0.2,0.1-0.3,0.3-0.4,0.4V88h-0.7v-3.8H308.5z M311.7,86
	c0-0.6,0.1-1.1,0.4-1.4c0.3-0.4,0.6-0.5,1.1-0.5c0.5,0,0.8,0.2,1.1,0.5v-2h0.7V88h-0.6l0-0.4c-0.3,0.3-0.6,0.5-1.1,0.5
	c-0.4,0-0.8-0.2-1.1-0.5C311.9,87.1,311.7,86.7,311.7,86L311.7,86z M312.4,86.1c0,0.4,0.1,0.8,0.3,1c0.2,0.2,0.4,0.4,0.7,0.4
	c0.4,0,0.7-0.2,0.9-0.6v-1.8c-0.2-0.4-0.5-0.5-0.9-0.5c-0.3,0-0.6,0.1-0.8,0.4S312.4,85.6,312.4,86.1z M318.2,87
	c0-0.2-0.1-0.3-0.2-0.4c-0.1-0.1-0.4-0.2-0.7-0.3c-0.3-0.1-0.6-0.2-0.8-0.3c-0.2-0.1-0.3-0.2-0.4-0.4c-0.1-0.1-0.1-0.3-0.1-0.5
	c0-0.3,0.1-0.6,0.4-0.8c0.3-0.2,0.6-0.3,1-0.3c0.4,0,0.8,0.1,1.1,0.3c0.3,0.2,0.4,0.5,0.4,0.9h-0.7c0-0.2-0.1-0.3-0.2-0.5
	c-0.2-0.1-0.3-0.2-0.6-0.2c-0.2,0-0.4,0.1-0.6,0.2c-0.1,0.1-0.2,0.2-0.2,0.4c0,0.2,0.1,0.3,0.2,0.4c0.1,0.1,0.4,0.2,0.7,0.2
	c0.3,0.1,0.6,0.2,0.8,0.3c0.2,0.1,0.4,0.2,0.5,0.4c0.1,0.1,0.1,0.3,0.1,0.5c0,0.3-0.1,0.6-0.4,0.8c-0.3,0.2-0.6,0.3-1.1,0.3
	c-0.3,0-0.6-0.1-0.8-0.2c-0.2-0.1-0.4-0.3-0.6-0.5c-0.1-0.2-0.2-0.4-0.2-0.6h0.7c0,0.2,0.1,0.4,0.3,0.5c0.2,0.1,0.4,0.2,0.7,0.2
	c0.2,0,0.4,0,0.6-0.1C318.2,87.3,318.2,87.1,318.2,87z"/>
<path class="st11" d="M391.8,84.6l2.4-1.6l2.4,1.6"/>
<path class="st11" d="M396.5,86.5l-2.4,1.6l-2.4-1.6"/>
<path class="st5" d="M275.9,158.4h-2v5.6h-0.8v-5.6h-2v-0.7h4.8V158.4z M277.9,162.8l1.1-3.5h0.8l-1.9,5.4c-0.3,0.8-0.7,1.2-1.4,1.2
	l-0.1,0l-0.3-0.1v-0.6l0.2,0c0.3,0,0.5-0.1,0.6-0.2c0.2-0.1,0.3-0.3,0.4-0.6l0.2-0.5l-1.7-4.6h0.9L277.9,162.8z M284.5,161.7
	c0,0.7-0.2,1.3-0.5,1.7c-0.3,0.4-0.8,0.6-1.3,0.6c-0.6,0-1-0.2-1.3-0.5v2.2h-0.8v-6.4h0.7l0,0.5c0.3-0.4,0.8-0.6,1.3-0.6
	c0.6,0,1,0.2,1.3,0.6C284.3,160.3,284.5,160.9,284.5,161.7L284.5,161.7z M283.7,161.6c0-0.5-0.1-0.9-0.3-1.2
	c-0.2-0.3-0.5-0.5-0.9-0.5c-0.5,0-0.8,0.2-1.1,0.6v2.2c0.2,0.4,0.6,0.6,1.1,0.6c0.4,0,0.7-0.1,0.9-0.4
	C283.6,162.7,283.7,162.2,283.7,161.6z M287.4,164.1c-0.6,0-1.1-0.2-1.5-0.6c-0.4-0.4-0.6-1-0.6-1.7v-0.1c0-0.5,0.1-0.9,0.3-1.2
	c0.2-0.4,0.4-0.6,0.7-0.8c0.3-0.2,0.7-0.3,1-0.3c0.6,0,1.1,0.2,1.4,0.6c0.3,0.4,0.5,1,0.5,1.7v0.3h-3.1c0,0.5,0.1,0.8,0.4,1.1
	c0.3,0.3,0.6,0.4,1,0.4c0.3,0,0.5-0.1,0.7-0.2c0.2-0.1,0.4-0.3,0.5-0.5l0.5,0.4C288.8,163.8,288.2,164.1,287.4,164.1z M287.3,159.9
	c-0.3,0-0.6,0.1-0.8,0.4c-0.2,0.2-0.4,0.6-0.4,1h2.3v-0.1c0-0.4-0.1-0.7-0.3-0.9C287.9,160,287.6,159.9,287.3,159.9z M292.1,161.6
	c0-0.5,0.1-0.9,0.3-1.2c0.2-0.4,0.4-0.6,0.7-0.8c0.3-0.2,0.7-0.3,1.1-0.3c0.6,0,1.1,0.2,1.5,0.7c0.4,0.4,0.6,1,0.6,1.7v0.1
	c0,0.5-0.1,0.9-0.3,1.2c-0.2,0.4-0.4,0.6-0.7,0.8c-0.3,0.2-0.7,0.3-1.1,0.3c-0.6,0-1.1-0.2-1.5-0.7
	C292.3,163,292.1,162.4,292.1,161.6L292.1,161.6z M292.9,161.7c0,0.5,0.1,0.9,0.4,1.2c0.2,0.3,0.6,0.5,1,0.5c0.4,0,0.7-0.2,1-0.5
	c0.2-0.3,0.4-0.8,0.4-1.3c0-0.5-0.1-0.9-0.4-1.2c-0.2-0.3-0.6-0.5-1-0.5c-0.4,0-0.7,0.2-0.9,0.5C293,160.7,292.9,161.1,292.9,161.7z
	 M297.7,164v-4H297v-0.6h0.7v-0.5c0-0.5,0.1-0.9,0.4-1.2c0.3-0.3,0.6-0.4,1.1-0.4c0.2,0,0.4,0,0.5,0.1l0,0.6c-0.1,0-0.3,0-0.4,0
	c-0.3,0-0.5,0.1-0.6,0.2c-0.1,0.1-0.2,0.4-0.2,0.6v0.5h1v0.6h-1v4H297.7z M302.7,164v-6.2h2c0.7,0,1.2,0.1,1.5,0.4
	c0.3,0.3,0.5,0.7,0.5,1.2c0,0.3-0.1,0.5-0.2,0.8c-0.2,0.2-0.4,0.4-0.7,0.5c0.3,0.1,0.6,0.3,0.8,0.5c0.2,0.3,0.3,0.6,0.3,0.9
	c0,0.6-0.2,1-0.5,1.3c-0.4,0.3-0.9,0.5-1.5,0.5H302.7z M303.5,161.1v2.2h1.4c0.4,0,0.7-0.1,0.9-0.3c0.2-0.2,0.3-0.5,0.3-0.8
	c0-0.8-0.4-1.1-1.2-1.1H303.5z M303.5,160.4h1.2c0.4,0,0.6-0.1,0.9-0.3c0.2-0.2,0.3-0.4,0.3-0.7c0-0.3-0.1-0.6-0.3-0.7
	c-0.2-0.2-0.5-0.2-0.9-0.2h-1.2V160.4z M310.9,163.5c-0.3,0.4-0.8,0.5-1.4,0.5c-0.5,0-0.9-0.1-1.1-0.4c-0.3-0.3-0.4-0.7-0.4-1.3v-3
	h0.8v3c0,0.7,0.3,1.1,0.9,1.1c0.6,0,1-0.2,1.2-0.7v-3.4h0.8v4.6h-0.8L310.9,163.5z M314.4,162.8l1.1-3.5h0.8l-1.9,5.4
	c-0.3,0.8-0.7,1.2-1.4,1.2l-0.1,0l-0.3-0.1v-0.6l0.2,0c0.3,0,0.5-0.1,0.6-0.2c0.2-0.1,0.3-0.3,0.4-0.6l0.2-0.5l-1.7-4.6h0.9
	L314.4,162.8z"/>
<path class="st5" d="M274.5,169.8H402c2,0,3.6,1.6,3.6,3.6v16c0,2-1.6,3.6-3.6,3.6H274.5c-2,0-3.6-1.6-3.6-3.6v-16
	C270.9,171.4,272.5,169.8,274.5,169.8z"/>
<path class="st10" d="M282.4,184.1v-5.2h1.7c0.6,0,1,0.1,1.3,0.3c0.3,0.2,0.4,0.6,0.4,1c0,0.2-0.1,0.5-0.2,0.6
	c-0.1,0.2-0.3,0.3-0.6,0.4c0.3,0.1,0.5,0.2,0.7,0.4c0.2,0.2,0.2,0.5,0.2,0.8c0,0.5-0.2,0.8-0.5,1.1c-0.3,0.3-0.7,0.4-1.3,0.4H282.4z
	 M283.1,181.7v1.9h1.1c0.3,0,0.6-0.1,0.8-0.2c0.2-0.2,0.3-0.4,0.3-0.7c0-0.6-0.3-0.9-1-0.9H283.1z M283.1,181.1h1
	c0.3,0,0.5-0.1,0.7-0.2c0.2-0.1,0.3-0.4,0.3-0.6c0-0.3-0.1-0.5-0.2-0.6c-0.2-0.1-0.4-0.2-0.8-0.2h-1V181.1z M289.2,183.7
	c-0.3,0.3-0.6,0.5-1.1,0.5c-0.4,0-0.7-0.1-0.9-0.4c-0.2-0.2-0.3-0.6-0.3-1.1v-2.5h0.7v2.5c0,0.6,0.2,0.9,0.7,0.9
	c0.5,0,0.8-0.2,1-0.6v-2.8h0.7v3.8h-0.6L289.2,183.7z M290.7,182.1c0-0.6,0.1-1.1,0.4-1.4c0.3-0.4,0.6-0.5,1.1-0.5
	c0.4,0,0.8,0.2,1.1,0.5v-2h0.7v5.5h-0.6l0-0.4c-0.3,0.3-0.6,0.5-1.1,0.5c-0.4,0-0.8-0.2-1.1-0.5
	C290.8,183.3,290.7,182.8,290.7,182.1L290.7,182.1z M291.4,182.2c0,0.4,0.1,0.8,0.3,1c0.2,0.2,0.4,0.4,0.7,0.4
	c0.4,0,0.7-0.2,0.9-0.6v-1.8c-0.2-0.4-0.5-0.5-0.9-0.5c-0.3,0-0.6,0.1-0.8,0.4C291.4,181.4,291.4,181.7,291.4,182.2z M294.8,182.1
	c0-0.6,0.1-1.1,0.4-1.4c0.3-0.4,0.6-0.5,1.1-0.5c0.5,0,0.8,0.2,1.1,0.5l0-0.4h0.6v3.8c0,0.5-0.1,0.9-0.4,1.2
	c-0.3,0.3-0.7,0.4-1.2,0.4c-0.3,0-0.5-0.1-0.8-0.2c-0.3-0.1-0.5-0.3-0.6-0.5l0.3-0.4c0.3,0.3,0.6,0.5,1,0.5c0.3,0,0.6-0.1,0.7-0.3
	c0.2-0.2,0.3-0.4,0.3-0.8v-0.3c-0.3,0.3-0.6,0.5-1.1,0.5c-0.5,0-0.8-0.2-1.1-0.5C294.9,183.3,294.8,182.8,294.8,182.1z M295.5,182.2
	c0,0.4,0.1,0.8,0.3,1c0.2,0.2,0.4,0.4,0.7,0.4c0.4,0,0.7-0.2,0.9-0.6v-1.8c-0.2-0.4-0.5-0.6-0.9-0.6c-0.3,0-0.6,0.1-0.8,0.4
	C295.6,181.4,295.5,181.7,295.5,182.2z M300.6,184.2c-0.5,0-0.9-0.2-1.3-0.5c-0.3-0.3-0.5-0.8-0.5-1.4v-0.1c0-0.4,0.1-0.7,0.2-1
	c0.1-0.3,0.4-0.5,0.6-0.7c0.3-0.2,0.5-0.3,0.9-0.3c0.5,0,0.9,0.2,1.2,0.5c0.3,0.3,0.4,0.8,0.4,1.4v0.3h-2.6c0,0.4,0.1,0.7,0.3,0.9
	c0.2,0.2,0.5,0.3,0.8,0.3c0.2,0,0.4,0,0.6-0.1c0.2-0.1,0.3-0.2,0.4-0.4l0.4,0.3C301.8,183.9,301.3,184.2,300.6,184.2z M300.6,180.7
	c-0.3,0-0.5,0.1-0.7,0.3c-0.2,0.2-0.3,0.5-0.3,0.8h1.9v-0.1c0-0.3-0.1-0.6-0.3-0.8C301.1,180.8,300.8,180.7,300.6,180.7z
	 M303.8,179.3v0.9h0.7v0.5h-0.7v2.4c0,0.2,0,0.3,0.1,0.3c0.1,0.1,0.2,0.1,0.3,0.1c0.1,0,0.2,0,0.3,0v0.5c-0.2,0-0.3,0.1-0.5,0.1
	c-0.3,0-0.5-0.1-0.7-0.3c-0.1-0.2-0.2-0.4-0.2-0.8v-2.4h-0.7v-0.5h0.7v-0.9H303.8z M311,183.4c-0.2,0.3-0.4,0.4-0.7,0.6
	c-0.3,0.1-0.7,0.2-1.1,0.2c-0.4,0-0.8-0.1-1.1-0.3c-0.3-0.2-0.6-0.5-0.8-0.8c-0.2-0.4-0.3-0.8-0.3-1.3v-0.5c0-0.8,0.2-1.4,0.5-1.8
	c0.4-0.4,0.9-0.6,1.5-0.6c0.5,0,1,0.1,1.3,0.4c0.3,0.3,0.5,0.7,0.6,1.2h-0.7c-0.1-0.7-0.5-1-1.2-1c-0.5,0-0.8,0.2-1,0.5
	c-0.2,0.3-0.4,0.8-0.4,1.4v0.4c0,0.6,0.1,1,0.4,1.4c0.3,0.3,0.6,0.5,1.1,0.5c0.3,0,0.5,0,0.7-0.1c0.2-0.1,0.4-0.2,0.5-0.3v-1.2h-1.2
	v-0.6h1.9V183.4z M311.9,182.1c0-0.4,0.1-0.7,0.2-1c0.1-0.3,0.4-0.5,0.6-0.7c0.3-0.2,0.6-0.2,0.9-0.2c0.5,0,0.9,0.2,1.3,0.5
	c0.3,0.4,0.5,0.8,0.5,1.4v0c0,0.4-0.1,0.7-0.2,1c-0.1,0.3-0.3,0.5-0.6,0.7c-0.3,0.2-0.6,0.2-0.9,0.2c-0.5,0-0.9-0.2-1.3-0.5
	C312.1,183.3,311.9,182.8,311.9,182.1L311.9,182.1z M312.6,182.2c0,0.4,0.1,0.8,0.3,1c0.2,0.3,0.5,0.4,0.8,0.4
	c0.3,0,0.6-0.1,0.8-0.4c0.2-0.3,0.3-0.6,0.3-1.1c0-0.4-0.1-0.8-0.3-1c-0.2-0.3-0.5-0.4-0.8-0.4c-0.3,0-0.6,0.1-0.8,0.4
	C312.7,181.4,312.6,181.7,312.6,182.2z M318.6,184.1c0-0.1-0.1-0.2-0.1-0.4c-0.3,0.3-0.7,0.5-1.1,0.5c-0.4,0-0.7-0.1-0.9-0.3
	c-0.2-0.2-0.4-0.5-0.4-0.8c0-0.4,0.2-0.7,0.5-0.9c0.3-0.2,0.7-0.3,1.3-0.3h0.6v-0.3c0-0.2-0.1-0.4-0.2-0.5c-0.1-0.1-0.3-0.2-0.6-0.2
	c-0.2,0-0.4,0.1-0.6,0.2c-0.2,0.1-0.2,0.3-0.2,0.4h-0.7c0-0.2,0.1-0.4,0.2-0.6c0.1-0.2,0.3-0.3,0.6-0.4c0.2-0.1,0.5-0.2,0.8-0.2
	c0.4,0,0.8,0.1,1,0.3c0.3,0.2,0.4,0.5,0.4,0.9v1.8c0,0.4,0,0.6,0.1,0.8v0.1H318.6z M317.5,183.6c0.2,0,0.4-0.1,0.6-0.2
	c0.2-0.1,0.3-0.2,0.4-0.4v-0.8H318c-0.8,0-1.2,0.2-1.2,0.7c0,0.2,0.1,0.4,0.2,0.5C317.1,183.5,317.3,183.6,317.5,183.6z
	 M320.9,184.1h-0.7v-5.5h0.7V184.1z"/>
<path class="st11" d="M391.8,180.7l2.4-1.6l2.4,1.6"/>
<path class="st11" d="M396.5,182.6l-2.4,1.6l-2.4-1.6"/>
<path class="st5" d="M274.5,200.4H402c2,0,3.6,1.6,3.6,3.6v16c0,2-1.6,3.6-3.6,3.6H274.5c-2,0-3.6-1.6-3.6-3.6v-16
	C270.9,202,272.5,200.4,274.5,200.4z"/>
<path class="st10" d="M282.5,212.1l0.3-2.6h2.7v0.6h-2.1l-0.2,1.4c0.3-0.1,0.5-0.2,0.9-0.2c0.5,0,0.8,0.2,1.1,0.5
	c0.3,0.3,0.4,0.7,0.4,1.3c0,0.5-0.1,1-0.4,1.3c-0.3,0.3-0.7,0.5-1.2,0.5c-0.5,0-0.8-0.1-1.1-0.4c-0.3-0.3-0.5-0.6-0.5-1.1h0.6
	c0,0.3,0.1,0.5,0.3,0.7c0.2,0.1,0.4,0.2,0.7,0.2c0.3,0,0.5-0.1,0.7-0.3c0.2-0.2,0.3-0.5,0.3-0.9c0-0.3-0.1-0.6-0.3-0.8
	c-0.2-0.2-0.4-0.3-0.8-0.3c-0.3,0-0.5,0.1-0.7,0.2l-0.2,0.1L282.5,212.1z M289.6,212.5c0,0.8-0.1,1.3-0.4,1.7
	c-0.3,0.4-0.7,0.6-1.2,0.6c-0.6,0-1-0.2-1.2-0.5c-0.3-0.4-0.4-0.9-0.4-1.6v-0.9c0-0.8,0.1-1.3,0.4-1.7c0.3-0.4,0.7-0.6,1.2-0.6
	c0.6,0,1,0.2,1.2,0.5c0.3,0.4,0.4,0.9,0.4,1.6V212.5z M288.9,211.6c0-0.6-0.1-1-0.2-1.2c-0.2-0.3-0.4-0.4-0.7-0.4
	c-0.3,0-0.6,0.1-0.7,0.4c-0.2,0.3-0.2,0.6-0.2,1.2v1.1c0,0.6,0.1,1,0.2,1.2c0.2,0.3,0.4,0.4,0.7,0.4c0.3,0,0.6-0.1,0.7-0.4
	c0.2-0.3,0.2-0.6,0.2-1.2V211.6z M290.5,215.7l-0.4-0.3c0.2-0.3,0.3-0.6,0.3-1v-0.6h0.6v0.5c0,0.2-0.1,0.5-0.2,0.7
	C290.8,215.4,290.6,215.6,290.5,215.7z M295.1,212.5c0,0.8-0.1,1.3-0.4,1.7c-0.3,0.4-0.7,0.6-1.2,0.6c-0.6,0-1-0.2-1.2-0.5
	c-0.3-0.4-0.4-0.9-0.4-1.6v-0.9c0-0.8,0.1-1.3,0.4-1.7c0.3-0.4,0.7-0.6,1.2-0.6c0.6,0,1,0.2,1.2,0.5c0.3,0.4,0.4,0.9,0.4,1.6V212.5z
	 M294.4,211.6c0-0.6-0.1-1-0.2-1.2c-0.2-0.3-0.4-0.4-0.7-0.4c-0.3,0-0.6,0.1-0.7,0.4c-0.2,0.3-0.2,0.6-0.2,1.2v1.1
	c0,0.6,0.1,1,0.2,1.2c0.2,0.3,0.4,0.4,0.7,0.4c0.3,0,0.6-0.1,0.7-0.4c0.2-0.3,0.2-0.6,0.2-1.2V211.6z M299.2,212.5
	c0,0.8-0.1,1.3-0.4,1.7c-0.3,0.4-0.7,0.6-1.2,0.6c-0.6,0-1-0.2-1.2-0.5c-0.3-0.4-0.4-0.9-0.4-1.6v-0.9c0-0.8,0.1-1.3,0.4-1.7
	c0.3-0.4,0.7-0.6,1.2-0.6c0.6,0,1,0.2,1.2,0.5c0.3,0.4,0.4,0.9,0.4,1.6V212.5z M298.5,211.6c0-0.6-0.1-1-0.2-1.2
	c-0.2-0.3-0.4-0.4-0.7-0.4c-0.3,0-0.6,0.1-0.7,0.4c-0.2,0.3-0.2,0.6-0.2,1.2v1.1c0,0.6,0.1,1,0.2,1.2c0.2,0.3,0.4,0.4,0.7,0.4
	c0.3,0,0.6-0.1,0.7-0.4c0.2-0.3,0.2-0.6,0.2-1.2V211.6z M303.3,212.5c0,0.8-0.1,1.3-0.4,1.7c-0.3,0.4-0.7,0.6-1.2,0.6
	c-0.6,0-1-0.2-1.2-0.5c-0.3-0.4-0.4-0.9-0.4-1.6v-0.9c0-0.8,0.1-1.3,0.4-1.7c0.3-0.4,0.7-0.6,1.2-0.6c0.6,0,1,0.2,1.2,0.5
	c0.3,0.4,0.4,0.9,0.4,1.6V212.5z M302.6,211.6c0-0.6-0.1-1-0.2-1.2c-0.2-0.3-0.4-0.4-0.7-0.4c-0.3,0-0.6,0.1-0.7,0.4
	c-0.2,0.3-0.2,0.6-0.2,1.2v1.1c0,0.6,0.1,1,0.2,1.2c0.2,0.3,0.4,0.4,0.7,0.4c0.3,0,0.6-0.1,0.7-0.4c0.2-0.3,0.2-0.6,0.2-1.2V211.6z
	 M304.2,215.7l-0.4-0.3c0.2-0.3,0.3-0.6,0.3-1v-0.6h0.6v0.5c0,0.2-0.1,0.5-0.2,0.7C304.5,215.4,304.3,215.6,304.2,215.7z
	 M308.8,212.5c0,0.8-0.1,1.3-0.4,1.7c-0.3,0.4-0.7,0.6-1.2,0.6c-0.6,0-1-0.2-1.2-0.5c-0.3-0.4-0.4-0.9-0.4-1.6v-0.9
	c0-0.8,0.1-1.3,0.4-1.7c0.3-0.4,0.7-0.6,1.2-0.6c0.6,0,1,0.2,1.2,0.5c0.3,0.4,0.4,0.9,0.4,1.6V212.5z M308.1,211.6
	c0-0.6-0.1-1-0.2-1.2c-0.2-0.3-0.4-0.4-0.7-0.4c-0.3,0-0.6,0.1-0.7,0.4c-0.2,0.3-0.2,0.6-0.2,1.2v1.1c0,0.6,0.1,1,0.2,1.2
	c0.2,0.3,0.4,0.4,0.7,0.4c0.3,0,0.6-0.1,0.7-0.4c0.2-0.3,0.2-0.6,0.2-1.2V211.6z M312.9,212.5c0,0.8-0.1,1.3-0.4,1.7
	c-0.3,0.4-0.7,0.6-1.2,0.6c-0.6,0-1-0.2-1.2-0.5c-0.3-0.4-0.4-0.9-0.4-1.6v-0.9c0-0.8,0.1-1.3,0.4-1.7c0.3-0.4,0.7-0.6,1.2-0.6
	c0.6,0,1,0.2,1.2,0.5c0.3,0.4,0.4,0.9,0.4,1.6V212.5z M312.2,211.6c0-0.6-0.1-1-0.2-1.2c-0.2-0.3-0.4-0.4-0.7-0.4
	c-0.3,0-0.6,0.1-0.7,0.4c-0.2,0.3-0.2,0.6-0.2,1.2v1.1c0,0.6,0.1,1,0.2,1.2c0.2,0.3,0.4,0.4,0.7,0.4c0.3,0,0.6-0.1,0.7-0.4
	c0.2-0.3,0.2-0.6,0.2-1.2V211.6z M317,212.5c0,0.8-0.1,1.3-0.4,1.7c-0.3,0.4-0.7,0.6-1.2,0.6c-0.6,0-1-0.2-1.2-0.5
	c-0.3-0.4-0.4-0.9-0.4-1.6v-0.9c0-0.8,0.1-1.3,0.4-1.7c0.3-0.4,0.7-0.6,1.2-0.6c0.6,0,1,0.2,1.2,0.5c0.3,0.4,0.4,0.9,0.4,1.6V212.5z
	 M316.3,211.6c0-0.6-0.1-1-0.2-1.2c-0.2-0.3-0.4-0.4-0.7-0.4c-0.3,0-0.6,0.1-0.7,0.4c-0.2,0.3-0.2,0.6-0.2,1.2v1.1
	c0,0.6,0.1,1,0.2,1.2c0.2,0.3,0.4,0.4,0.7,0.4c0.3,0,0.6-0.1,0.7-0.4c0.2-0.3,0.2-0.6,0.2-1.2V211.6z"/>
<path class="st5" d="M275,113.2h-2.6v2.8h-0.8v-6.2h3.9v0.7h-3v2.1h2.6V113.2z M277.2,115.9h-0.8v-6.6h0.8V115.9z M279.3,115.9h-0.8
	v-4.6h0.8V115.9z M278.5,110.1c0-0.1,0-0.2,0.1-0.3c0.1-0.1,0.2-0.1,0.4-0.1c0.2,0,0.3,0,0.4,0.1c0.1,0.1,0.1,0.2,0.1,0.3
	c0,0.1,0,0.2-0.1,0.3c-0.1,0.1-0.2,0.1-0.4,0.1c-0.2,0-0.3,0-0.4-0.1C278.5,110.3,278.5,110.2,278.5,110.1z M280.4,113.6
	c0-0.7,0.2-1.3,0.5-1.7c0.3-0.4,0.8-0.6,1.3-0.6c0.6,0,1,0.2,1.3,0.6l0-0.5h0.7v4.5c0,0.6-0.2,1.1-0.5,1.4c-0.4,0.3-0.8,0.5-1.4,0.5
	c-0.3,0-0.7-0.1-1-0.2c-0.3-0.1-0.6-0.3-0.7-0.6l0.4-0.5c0.3,0.4,0.8,0.6,1.2,0.6c0.4,0,0.7-0.1,0.9-0.3c0.2-0.2,0.3-0.5,0.3-0.9
	v-0.4c-0.3,0.4-0.8,0.5-1.3,0.5c-0.5,0-1-0.2-1.3-0.7C280.6,114.9,280.4,114.3,280.4,113.6z M281.2,113.7c0,0.5,0.1,0.9,0.3,1.2
	c0.2,0.3,0.5,0.4,0.9,0.4c0.5,0,0.9-0.2,1.1-0.7v-2.1c-0.2-0.4-0.6-0.7-1.1-0.7c-0.4,0-0.7,0.2-0.9,0.4
	C281.3,112.6,281.2,113.1,281.2,113.7z M286.3,111.8c0.4-0.4,0.8-0.6,1.4-0.6c1,0,1.5,0.6,1.5,1.7v3.1h-0.8v-3.1
	c0-0.3-0.1-0.6-0.2-0.7c-0.1-0.2-0.4-0.2-0.7-0.2c-0.3,0-0.5,0.1-0.7,0.2c-0.2,0.1-0.3,0.3-0.5,0.5v3.3h-0.8v-6.6h0.8V111.8z
	 M291.4,110.2v1.1h0.9v0.6h-0.9v2.9c0,0.2,0,0.3,0.1,0.4c0.1,0.1,0.2,0.1,0.4,0.1c0.1,0,0.2,0,0.4-0.1v0.6c-0.2,0.1-0.4,0.1-0.6,0.1
	c-0.4,0-0.6-0.1-0.8-0.3c-0.2-0.2-0.3-0.5-0.3-0.9v-2.9h-0.8v-0.6h0.8v-1.1H291.4z"/>
<path class="st5" d="M274.5,121.8H402c2,0,3.6,1.6,3.6,3.6v16c0,2-1.6,3.6-3.6,3.6H274.5c-2,0-3.6-1.6-3.6-3.6v-16
	C270.9,123.4,272.5,121.8,274.5,121.8z"/>
<path class="st6" d="M391.2,129.8c-0.4,0-0.7,0.3-0.7,0.7v0.3h-0.9c-0.4,0-0.7,0.3-0.7,0.7v5.7c0,0.4,0.3,0.7,0.7,0.7h7.3
	c0.4,0,0.7-0.3,0.7-0.7v-5.7c0-0.4-0.3-0.7-0.7-0.7H396v-0.3c0-0.4-0.3-0.7-0.7-0.7c-0.4,0-0.7,0.3-0.7,0.7v0.3h-2.6v-0.3
	C391.9,130.1,391.6,129.8,391.2,129.8z M391.2,130.3c0.1,0,0.1,0,0.1,0.1v1.1c0,0.1,0,0.1-0.1,0.1c-0.1,0-0.1,0-0.1-0.1v-1.1
	C391.1,130.4,391.1,130.3,391.2,130.3z M395.2,130.3c0.1,0,0.1,0,0.1,0.1v1.1c0,0.1,0,0.1-0.1,0.1c-0.1,0-0.1,0-0.1-0.1v-1.1
	C395.1,130.4,395.2,130.3,395.2,130.3z M389.6,131.3h0.9v0.3c0,0.4,0.3,0.7,0.7,0.7c0.4,0,0.7-0.3,0.7-0.7v-0.3h2.6v0.3
	c0,0.4,0.3,0.7,0.7,0.7c0.4,0,0.7-0.3,0.7-0.7v-0.3h0.9c0.1,0,0.1,0,0.1,0.1v1h-7.5v-1C389.5,131.3,389.5,131.3,389.6,131.3z
	 M389.5,133h7.5v4.1c0,0.1,0,0.1-0.1,0.1h-7.3c-0.1,0-0.1,0-0.1-0.1V133z"/>
<path class="st10" d="M284.6,130.9h0.7v3.7c0,0.5-0.1,0.9-0.4,1.2c-0.3,0.3-0.7,0.4-1.2,0.4c-0.5,0-0.9-0.1-1.2-0.4
	c-0.3-0.3-0.4-0.6-0.4-1.1h0.7c0,0.3,0.1,0.5,0.2,0.7c0.2,0.2,0.4,0.2,0.7,0.2c0.3,0,0.5-0.1,0.7-0.3c0.2-0.2,0.3-0.4,0.3-0.7V130.9
	z M288.7,135.7c-0.3,0.3-0.6,0.5-1.1,0.5c-0.4,0-0.7-0.1-0.9-0.4c-0.2-0.2-0.3-0.6-0.3-1.1v-2.5h0.7v2.5c0,0.6,0.2,0.9,0.7,0.9
	c0.5,0,0.8-0.2,1-0.6v-2.8h0.7v3.8h-0.6L288.7,135.7z M291,136h-0.7v-5.5h0.7V136z M297.2,136h-3.4v-0.5l1.8-2
	c0.3-0.3,0.4-0.5,0.5-0.7c0.1-0.2,0.2-0.4,0.2-0.6c0-0.3-0.1-0.5-0.2-0.7c-0.2-0.2-0.4-0.3-0.7-0.3c-0.3,0-0.6,0.1-0.8,0.3
	c-0.2,0.2-0.3,0.4-0.3,0.8h-0.7c0-0.5,0.2-0.9,0.5-1.2c0.3-0.3,0.7-0.4,1.2-0.4c0.5,0,0.9,0.1,1.1,0.4c0.3,0.3,0.4,0.6,0.4,1
	c0,0.5-0.3,1.1-1,1.8l-1.4,1.5h2.6V136z M301.2,133.8c0,0.8-0.1,1.3-0.4,1.7c-0.3,0.4-0.7,0.6-1.2,0.6c-0.6,0-1-0.2-1.2-0.5
	c-0.3-0.4-0.4-0.9-0.4-1.6V133c0-0.8,0.1-1.3,0.4-1.7c0.3-0.4,0.7-0.6,1.2-0.6c0.6,0,1,0.2,1.2,0.5c0.3,0.4,0.4,0.9,0.4,1.6V133.8z
	 M300.5,132.9c0-0.6-0.1-1-0.2-1.2c-0.2-0.3-0.4-0.4-0.7-0.4c-0.3,0-0.6,0.1-0.7,0.4c-0.2,0.3-0.2,0.6-0.2,1.2v1.1
	c0,0.6,0.1,1,0.2,1.2c0.2,0.3,0.4,0.4,0.7,0.4c0.3,0,0.6-0.1,0.7-0.4c0.2-0.3,0.2-0.6,0.2-1.2V132.9z M303,131.3v0.9h0.7v0.5H303
	v2.4c0,0.2,0,0.3,0.1,0.3c0.1,0.1,0.2,0.1,0.3,0.1c0.1,0,0.2,0,0.3,0v0.5c-0.2,0-0.3,0.1-0.5,0.1c-0.3,0-0.5-0.1-0.7-0.3
	c-0.2-0.2-0.2-0.4-0.2-0.8v-2.4h-0.7v-0.5h0.7v-0.9H303z M305.1,132.7c0.3-0.4,0.7-0.5,1.1-0.5c0.8,0,1.2,0.5,1.2,1.4v2.5h-0.7v-2.5
	c0-0.3-0.1-0.5-0.2-0.6c-0.1-0.1-0.3-0.2-0.6-0.2c-0.2,0-0.4,0.1-0.6,0.2c-0.2,0.1-0.3,0.3-0.4,0.4v2.7h-0.7v-5.5h0.7V132.7z
	 M311.7,134.1h-1.7v-0.5h1.7V134.1z M317.1,134.7h-2.2l-0.5,1.4h-0.7l2-5.2h0.6l2,5.2h-0.7L317.1,134.7z M315.1,134.1h1.8l-0.9-2.4
	L315.1,134.1z M321.2,135.7c-0.3,0.3-0.6,0.5-1.1,0.5c-0.4,0-0.7-0.1-0.9-0.4c-0.2-0.2-0.3-0.6-0.3-1.1v-2.5h0.7v2.5
	c0,0.6,0.2,0.9,0.7,0.9c0.5,0,0.8-0.2,1-0.6v-2.8h0.7v3.8h-0.6L321.2,135.7z M322.7,134.1c0-0.6,0.1-1.1,0.4-1.4
	c0.3-0.4,0.6-0.5,1.1-0.5c0.5,0,0.8,0.2,1.1,0.5l0-0.4h0.6v3.8c0,0.5-0.1,0.9-0.4,1.2c-0.3,0.3-0.7,0.4-1.2,0.4
	c-0.3,0-0.5-0.1-0.8-0.2c-0.3-0.1-0.5-0.3-0.6-0.5l0.3-0.4c0.3,0.3,0.6,0.5,1,0.5c0.3,0,0.6-0.1,0.7-0.3c0.2-0.2,0.3-0.4,0.3-0.8
	v-0.3c-0.3,0.3-0.6,0.5-1.1,0.5c-0.5,0-0.8-0.2-1.1-0.5C322.8,135.2,322.7,134.7,322.7,134.1z M323.3,134.2c0,0.4,0.1,0.8,0.3,1
	c0.2,0.2,0.4,0.4,0.7,0.4c0.4,0,0.7-0.2,0.9-0.6v-1.8c-0.2-0.4-0.5-0.6-0.9-0.6c-0.3,0-0.6,0.1-0.8,0.4
	C323.4,133.3,323.3,133.7,323.3,134.2z M332.1,136h-3.4v-0.5l1.8-2c0.3-0.3,0.4-0.5,0.5-0.7c0.1-0.2,0.2-0.4,0.2-0.6
	c0-0.3-0.1-0.5-0.2-0.7c-0.2-0.2-0.4-0.3-0.7-0.3c-0.3,0-0.6,0.1-0.8,0.3c-0.2,0.2-0.3,0.4-0.3,0.8h-0.7c0-0.5,0.2-0.9,0.5-1.2
	c0.3-0.3,0.7-0.4,1.2-0.4c0.5,0,0.9,0.1,1.1,0.4c0.3,0.3,0.4,0.6,0.4,1c0,0.5-0.3,1.1-1,1.8l-1.4,1.5h2.6V136z M333.4,132.2l0,0.5
	c0.3-0.4,0.7-0.6,1.2-0.6c0.8,0,1.2,0.5,1.2,1.4v2.5h-0.7v-2.5c0-0.3-0.1-0.5-0.2-0.6c-0.1-0.1-0.3-0.2-0.6-0.2
	c-0.2,0-0.4,0.1-0.6,0.2c-0.2,0.1-0.3,0.3-0.4,0.4v2.7h-0.7v-3.8H333.4z M336.7,134.1c0-0.6,0.1-1.1,0.4-1.4
	c0.3-0.4,0.6-0.5,1.1-0.5c0.5,0,0.8,0.2,1.1,0.5v-2h0.7v5.5h-0.6l0-0.4c-0.3,0.3-0.6,0.5-1.1,0.5c-0.4,0-0.8-0.2-1.1-0.5
	C336.8,135.2,336.7,134.7,336.7,134.1L336.7,134.1z M337.3,134.2c0,0.4,0.1,0.8,0.3,1c0.2,0.2,0.4,0.4,0.7,0.4
	c0.4,0,0.7-0.2,0.9-0.6v-1.8c-0.2-0.4-0.5-0.5-0.9-0.5c-0.3,0-0.6,0.1-0.8,0.4C337.4,133.3,337.3,133.7,337.3,134.2z"/>
<path class="st12" d="M80.7,246.2c0.3,0,0.6-0.3,0.8-0.7l11.6-43.8c0.2-0.6-0.1-1.2-0.5-1.4c-0.4-0.2-0.9,0.1-1,0.7L80,244.8
	c-0.2,0.6,0.1,1.2,0.5,1.4C80.6,246.1,80.6,246.2,80.7,246.2z"/>
<path class="st12" d="M92.4,246.2c0.1,0,0.2,0,0.3-0.1c0.4-0.2,0.6-0.8,0.5-1.4L81.6,201c-0.2-0.6-0.6-0.9-1-0.7
	c-0.4,0.2-0.6,0.8-0.5,1.4l11.6,43.8C91.7,245.9,92,246.2,92.4,246.2z"/>
<path class="st12" d="M29.2,246.2c0.3,0,0.6-0.3,0.8-0.7l11.6-43.8c0.2-0.6-0.1-1.2-0.5-1.4c-0.4-0.2-0.9,0.1-1,0.7l-11.6,43.8
	c-0.2,0.6,0.1,1.2,0.5,1.4C29.1,246.1,29.2,246.2,29.2,246.2z"/>
<path class="st12" d="M40.9,246.2c0.1,0,0.2,0,0.3-0.1c0.4-0.2,0.6-0.8,0.5-1.4L30,201c-0.2-0.6-0.6-0.9-1-0.7
	c-0.4,0.2-0.6,0.8-0.5,1.4l11.6,43.8C40.3,245.9,40.6,246.2,40.9,246.2z"/>
<path class="st5" d="M27,161.2h68v39.9H27V161.2z"/>
<path class="st12" d="M26.7,201.4h68.5V161H26.7V201.4z M94.9,201H27.2v-39.5h67.7V201z"/>
<path class="st13" d="M76.5,190.4c0.1,0,0.2-0.1,0.2-0.1v-24.8c0-0.1-0.1-0.1-0.2-0.1c-0.1,0-0.2,0.1-0.2,0.1v24.8
	C76.3,190.4,76.4,190.4,76.5,190.4z"/>
<path class="st13" d="M32.9,170.5h56c0.1,0,0.2-0.1,0.2-0.1c0-0.1-0.1-0.1-0.2-0.1h-56c-0.1,0-0.2,0.1-0.2,0.1
	C32.8,170.4,32.8,170.5,32.9,170.5z"/>
<path class="st13" d="M32.9,175.9h56c0.1,0,0.2-0.1,0.2-0.1s-0.1-0.1-0.2-0.1h-56c-0.1,0-0.2,0.1-0.2,0.1S32.8,175.9,32.9,175.9z"/>
<path class="st13" d="M32.9,181.3h56c0.1,0,0.2-0.1,0.2-0.1c0-0.1-0.1-0.1-0.2-0.1h-56c-0.1,0-0.2,0.1-0.2,0.1
	C32.8,181.2,32.8,181.3,32.9,181.3z"/>
<path class="st13" d="M32.9,186.7h56c0.1,0,0.2-0.1,0.2-0.1s-0.1-0.1-0.2-0.1h-56c-0.1,0-0.2,0.1-0.2,0.1S32.8,186.7,32.9,186.7z"/>
<path class="st13" d="M71.3,190.4c0.1,0,0.2-0.1,0.2-0.1v-24.8c0-0.1-0.1-0.1-0.2-0.1s-0.2,0.1-0.2,0.1v24.8
	C71.1,190.4,71.2,190.4,71.3,190.4z"/>
<path class="st13" d="M87,190.4c0.1,0,0.2-0.1,0.2-0.1v-24.8c0-0.1-0.1-0.1-0.2-0.1c-0.1,0-0.2,0.1-0.2,0.1v24.8
	C86.8,190.4,86.9,190.4,87,190.4z"/>
<path class="st13" d="M81.8,190.4c0.1,0,0.2-0.1,0.2-0.1v-24.8c0-0.1-0.1-0.1-0.2-0.1c-0.1,0-0.2,0.1-0.2,0.1v24.8
	C81.7,190.4,81.7,190.4,81.8,190.4z"/>
<path class="st13" d="M66.1,190.4c0.1,0,0.2-0.1,0.2-0.1v-24.8c0-0.1-0.1-0.1-0.2-0.1c-0.1,0-0.2,0.1-0.2,0.1v24.8
	C66,190.4,66,190.4,66.1,190.4z"/>
<path class="st13" d="M60.9,190.4c0.1,0,0.2-0.1,0.2-0.1v-24.8c0-0.1-0.1-0.1-0.2-0.1c-0.1,0-0.2,0.1-0.2,0.1v24.8
	C60.7,190.4,60.8,190.4,60.9,190.4z"/>
<path class="st13" d="M55.7,190.4c0.1,0,0.2-0.1,0.2-0.1v-24.8c0-0.1-0.1-0.1-0.2-0.1c-0.1,0-0.2,0.1-0.2,0.1v24.8
	C55.6,190.4,55.6,190.4,55.7,190.4z"/>
<path class="st13" d="M50.5,190.4c0.1,0,0.2-0.1,0.2-0.1v-24.8c0-0.1-0.1-0.1-0.2-0.1c-0.1,0-0.2,0.1-0.2,0.1v24.8
	C50.3,190.4,50.4,190.4,50.5,190.4z"/>
<path class="st13" d="M45.3,190.4c0.1,0,0.2-0.1,0.2-0.1v-24.8c0-0.1-0.1-0.1-0.2-0.1c-0.1,0-0.2,0.1-0.2,0.1v24.8
	C45.2,190.4,45.2,190.4,45.3,190.4z"/>
<path class="st13" d="M40.1,190.4c0.1,0,0.2-0.1,0.2-0.1v-24.8c0-0.1-0.1-0.1-0.2-0.1c-0.1,0-0.2,0.1-0.2,0.1v24.8
	C39.9,190.4,40,190.4,40.1,190.4z"/>
<path class="st13" d="M34.9,190.4c0.1,0,0.2-0.1,0.2-0.1v-24.8c0-0.1-0.1-0.1-0.2-0.1c-0.1,0-0.2,0.1-0.2,0.1v24.8
	C34.8,190.4,34.9,190.4,34.9,190.4z"/>
<path class="st14" d="M38,187.9c-0.2,0-0.3-0.1-0.4-0.1c-0.2-0.2-0.3-0.5-0.1-0.7l6.5-6.5c0.2-0.1,0.5-0.2,0.7-0.1l6.6,3.1l6.2-7.7
	c0.1-0.1,0.2-0.2,0.4-0.2c0.2,0,0.3,0,0.5,0.1l6.4,5.1l4.8-8c0.1-0.1,0.2-0.2,0.4-0.3c0.2-0.1,0.3,0,0.5,0.1l6.1,3.2l6.6-7.8
	c0.2-0.2,0.5-0.3,0.9-0.1s0.3,0.5,0.2,0.7l-6.9,8.2c-0.2,0.2-0.5,0.3-0.8,0.1l-6-3.2l-4.8,8.1c-0.1,0.1-0.2,0.2-0.4,0.3
	c-0.2,0-0.4,0-0.5-0.1l-6.5-5.2l-6.1,7.6c-0.2,0.2-0.5,0.3-0.8,0.1l-6.7-3.1l-6.2,6.2C38.3,187.8,38.1,187.9,38,187.9z"/>
<path class="st14" d="M84.9,171.2c-0.3,0-0.5-0.2-0.6-0.4l-0.5-2.8l-3.7,0.8c-0.3,0.1-0.6-0.1-0.7-0.4c-0.1-0.3,0.2-0.6,0.5-0.7
	l4.3-0.9c0.2,0,0.3,0,0.5,0.1c0.2,0.1,0.2,0.2,0.2,0.4l0.6,3.3c0.1,0.3-0.2,0.6-0.5,0.6C84.9,171.2,84.9,171.2,84.9,171.2z"/>
<path class="st13" d="M53.2,193.4h-4.7c-0.2,0-0.4-0.1-0.4-0.4c0-0.2,0.2-0.4,0.4-0.4h4.7c0.2,0,0.4,0.1,0.4,0.4
	C53.6,193.2,53.5,193.4,53.2,193.4z"/>
<path class="st13" d="M47,193.4h-0.2c-0.2,0-0.4-0.1-0.4-0.4c0-0.2,0.2-0.4,0.4-0.4H47c0.2,0,0.4,0.1,0.4,0.4
	C47.4,193.2,47.3,193.4,47,193.4z"/>
<path class="st13" d="M57.4,194.7h-4.7c-0.2,0-0.4-0.1-0.4-0.4c0-0.2,0.2-0.4,0.4-0.4h4.7c0.2,0,0.4,0.1,0.4,0.4
	C57.8,194.5,57.7,194.7,57.4,194.7z"/>
<path class="st13" d="M51.3,194.7h-0.2c-0.2,0-0.4-0.1-0.4-0.4c0-0.2,0.2-0.4,0.4-0.4h0.2c0.2,0,0.4,0.1,0.4,0.4
	C51.7,194.5,51.5,194.7,51.3,194.7z"/>
<path class="st13" d="M57.4,193.4h-2.6c-0.2,0-0.4-0.1-0.4-0.4c0-0.2,0.2-0.4,0.4-0.4h2.6c0.2,0,0.4,0.1,0.4,0.4
	C57.8,193.2,57.7,193.4,57.4,193.4z"/>
<path class="st13" d="M49.5,194.7h-2.6c-0.2,0-0.4-0.1-0.4-0.4c0-0.2,0.2-0.4,0.4-0.4h2.6c0.2,0,0.4,0.1,0.4,0.4
	C49.9,194.5,49.7,194.7,49.5,194.7z"/>
<path class="st13" d="M53.2,196h-4.7c-0.2,0-0.4-0.1-0.4-0.4c0-0.2,0.2-0.4,0.4-0.4h4.7c0.2,0,0.4,0.1,0.4,0.4
	C53.6,195.8,53.5,196,53.2,196z"/>
<path class="st13" d="M47,196h-0.2c-0.2,0-0.4-0.1-0.4-0.4c0-0.2,0.2-0.4,0.4-0.4H47c0.2,0,0.4,0.1,0.4,0.4
	C47.4,195.8,47.3,196,47,196z"/>
<path class="st13" d="M57.4,197.3h-4.7c-0.2,0-0.4-0.1-0.4-0.4c0-0.2,0.2-0.4,0.4-0.4h4.7c0.2,0,0.4,0.1,0.4,0.4
	C57.8,197.1,57.7,197.3,57.4,197.3z"/>
<path class="st13" d="M51.3,197.3h-0.2c-0.2,0-0.4-0.1-0.4-0.4c0-0.2,0.2-0.4,0.4-0.4h0.2c0.2,0,0.4,0.1,0.4,0.4
	C51.7,197.1,51.5,197.3,51.3,197.3z"/>
<path class="st13" d="M57.4,196h-2.6c-0.2,0-0.4-0.1-0.4-0.4c0-0.2,0.2-0.4,0.4-0.4h2.6c0.2,0,0.4,0.1,0.4,0.4
	C57.8,195.8,57.7,196,57.4,196z"/>
<path class="st13" d="M49.5,197.3h-2.6c-0.2,0-0.4-0.1-0.4-0.4c0-0.2,0.2-0.4,0.4-0.4h2.6c0.2,0,0.4,0.1,0.4,0.4
	C49.9,197.1,49.7,197.3,49.5,197.3z"/>
<path class="st13" d="M39.6,193.4h-4.7c-0.2,0-0.4-0.1-0.4-0.4c0-0.2,0.2-0.4,0.4-0.4h4.7c0.2,0,0.4,0.1,0.4,0.4
	C39.9,193.2,39.8,193.4,39.6,193.4z"/>
<path class="st13" d="M33.4,193.4h-0.2c-0.2,0-0.4-0.1-0.4-0.4c0-0.2,0.2-0.4,0.4-0.4h0.2c0.2,0,0.4,0.1,0.4,0.4
	C33.8,193.2,33.6,193.4,33.4,193.4z"/>
<path class="st13" d="M43.8,194.7h-4.7c-0.2,0-0.4-0.1-0.4-0.4c0-0.2,0.2-0.4,0.4-0.4h4.7c0.2,0,0.4,0.1,0.4,0.4
	C44.2,194.5,44,194.7,43.8,194.7z"/>
<path class="st13" d="M37.6,194.7h-0.2c-0.2,0-0.4-0.1-0.4-0.4c0-0.2,0.2-0.4,0.4-0.4h0.2c0.2,0,0.4,0.1,0.4,0.4
	C38,194.5,37.8,194.7,37.6,194.7z"/>
<path class="st13" d="M43.8,193.4h-2.6c-0.2,0-0.4-0.1-0.4-0.4c0-0.2,0.2-0.4,0.4-0.4h2.6c0.2,0,0.4,0.1,0.4,0.4
	C44.2,193.2,44,193.4,43.8,193.4z"/>
<path class="st13" d="M35.8,194.7h-2.6c-0.2,0-0.4-0.1-0.4-0.4c0-0.2,0.2-0.4,0.4-0.4h2.6c0.2,0,0.4,0.1,0.4,0.4
	C36.2,194.5,36,194.7,35.8,194.7z"/>
<path class="st13" d="M39.6,196h-4.7c-0.2,0-0.4-0.1-0.4-0.4c0-0.2,0.2-0.4,0.4-0.4h4.7c0.2,0,0.4,0.1,0.4,0.4
	C39.9,195.8,39.8,196,39.6,196z"/>
<path class="st13" d="M33.4,196h-0.2c-0.2,0-0.4-0.1-0.4-0.4c0-0.2,0.2-0.4,0.4-0.4h0.2c0.2,0,0.4,0.1,0.4,0.4
	C33.8,195.8,33.6,196,33.4,196z"/>
<path class="st13" d="M43.8,197.3h-4.7c-0.2,0-0.4-0.1-0.4-0.4c0-0.2,0.2-0.4,0.4-0.4h4.7c0.2,0,0.4,0.1,0.4,0.4
	C44.2,197.1,44,197.3,43.8,197.3z"/>
<path class="st13" d="M37.6,197.3h-0.2c-0.2,0-0.4-0.1-0.4-0.4c0-0.2,0.2-0.4,0.4-0.4h0.2c0.2,0,0.4,0.1,0.4,0.4
	C38,197.1,37.8,197.3,37.6,197.3z"/>
<path class="st13" d="M43.8,196h-2.6c-0.2,0-0.4-0.1-0.4-0.4c0-0.2,0.2-0.4,0.4-0.4h2.6c0.2,0,0.4,0.1,0.4,0.4
	C44.2,195.8,44,196,43.8,196z"/>
<path class="st13" d="M35.8,197.3h-2.6c-0.2,0-0.4-0.1-0.4-0.4c0-0.2,0.2-0.4,0.4-0.4h2.6c0.2,0,0.4,0.1,0.4,0.4
	C36.2,197.1,36,197.3,35.8,197.3z"/>
<path class="st13" d="M84.2,193.4h-4.7c-0.2,0-0.4-0.1-0.4-0.4c0-0.2,0.2-0.4,0.4-0.4h4.7c0.2,0,0.4,0.1,0.4,0.4
	C84.6,193.2,84.5,193.4,84.2,193.4z"/>
<path class="st13" d="M78.1,193.4h-0.2c-0.2,0-0.4-0.1-0.4-0.4c0-0.2,0.2-0.4,0.4-0.4h0.2c0.2,0,0.4,0.1,0.4,0.4
	C78.5,193.2,78.3,193.4,78.1,193.4z"/>
<path class="st13" d="M88.5,194.7h-4.7c-0.2,0-0.4-0.1-0.4-0.4c0-0.2,0.2-0.4,0.4-0.4h4.7c0.2,0,0.4,0.1,0.4,0.4
	C88.8,194.5,88.7,194.7,88.5,194.7z"/>
<path class="st13" d="M82.3,194.7h-0.2c-0.2,0-0.4-0.1-0.4-0.4c0-0.2,0.2-0.4,0.4-0.4h0.2c0.2,0,0.4,0.1,0.4,0.4
	C82.7,194.5,82.5,194.7,82.3,194.7z"/>
<path class="st13" d="M88.5,193.4h-2.6c-0.2,0-0.4-0.1-0.4-0.4c0-0.2,0.2-0.4,0.4-0.4h2.6c0.2,0,0.4,0.1,0.4,0.4
	C88.8,193.2,88.7,193.4,88.5,193.4z"/>
<path class="st13" d="M80.6,194.7H78c-0.2,0-0.4-0.1-0.4-0.4c0-0.2,0.2-0.4,0.4-0.4h2.6c0.2,0,0.4,0.1,0.4,0.4
	C81,194.5,80.7,194.7,80.6,194.7z"/>
<path class="st13" d="M84.2,196h-4.7c-0.2,0-0.4-0.1-0.4-0.4c0-0.2,0.2-0.4,0.4-0.4h4.7c0.2,0,0.4,0.1,0.4,0.4
	C84.6,195.8,84.5,196,84.2,196z"/>
<path class="st13" d="M78.1,196h-0.2c-0.2,0-0.4-0.1-0.4-0.4c0-0.2,0.2-0.4,0.4-0.4h0.2c0.2,0,0.4,0.1,0.4,0.4
	C78.5,195.8,78.3,196,78.1,196z"/>
<path class="st13" d="M88.5,197.3h-4.7c-0.2,0-0.4-0.1-0.4-0.4c0-0.2,0.2-0.4,0.4-0.4h4.7c0.2,0,0.4,0.1,0.4,0.4
	C88.8,197.1,88.7,197.3,88.5,197.3z"/>
<path class="st13" d="M82.3,197.3h-0.2c-0.2,0-0.4-0.1-0.4-0.4c0-0.2,0.2-0.4,0.4-0.4h0.2c0.2,0,0.4,0.1,0.4,0.4
	C82.7,197.1,82.5,197.3,82.3,197.3z"/>
<path class="st13" d="M88.5,196h-2.6c-0.2,0-0.4-0.1-0.4-0.4c0-0.2,0.2-0.4,0.4-0.4h2.6c0.2,0,0.4,0.1,0.4,0.4
	C88.8,195.8,88.7,196,88.5,196z"/>
<path class="st13" d="M80.6,197.3H78c-0.2,0-0.4-0.1-0.4-0.4c0-0.2,0.2-0.4,0.4-0.4h2.6c0.2,0,0.4,0.1,0.4,0.4
	C81,197.1,80.7,197.3,80.6,197.3z"/>
<path class="st13" d="M70.6,193.4h-4.7c-0.2,0-0.4-0.1-0.4-0.4c0-0.2,0.2-0.4,0.4-0.4h4.7c0.2,0,0.4,0.1,0.4,0.4
	C71,193.2,70.8,193.4,70.6,193.4z"/>
<path class="st13" d="M64.4,193.4h-0.2c-0.2,0-0.4-0.1-0.4-0.4c0-0.2,0.2-0.4,0.4-0.4h0.2c0.2,0,0.4,0.1,0.4,0.4
	C64.8,193.2,64.6,193.4,64.4,193.4z"/>
<path class="st13" d="M74.8,194.7h-4.7c-0.2,0-0.4-0.1-0.4-0.4c0-0.2,0.2-0.4,0.4-0.4h4.7c0.2,0,0.4,0.1,0.4,0.4
	C75.2,194.5,75,194.7,74.8,194.7z"/>
<path class="st13" d="M68.6,194.7h-0.2c-0.2,0-0.4-0.1-0.4-0.4c0-0.2,0.2-0.4,0.4-0.4h0.2c0.2,0,0.4,0.1,0.4,0.4
	C69,194.5,68.8,194.7,68.6,194.7z"/>
<path class="st13" d="M74.8,193.4h-2.6c-0.2,0-0.4-0.1-0.4-0.4c0-0.2,0.2-0.4,0.4-0.4h2.6c0.2,0,0.4,0.1,0.4,0.4
	C75.2,193.2,75,193.4,74.8,193.4z"/>
<path class="st13" d="M66.8,194.7h-2.6c-0.2,0-0.4-0.1-0.4-0.4c0-0.2,0.2-0.4,0.4-0.4h2.6c0.2,0,0.4,0.1,0.4,0.4
	C67.2,194.5,67,194.7,66.8,194.7z"/>
<path class="st13" d="M70.6,196h-4.7c-0.2,0-0.4-0.1-0.4-0.4c0-0.2,0.2-0.4,0.4-0.4h4.7c0.2,0,0.4,0.1,0.4,0.4
	C71,195.8,70.8,196,70.6,196z"/>
<path class="st13" d="M64.4,196h-0.2c-0.2,0-0.4-0.1-0.4-0.4c0-0.2,0.2-0.4,0.4-0.4h0.2c0.2,0,0.4,0.1,0.4,0.4
	C64.8,195.8,64.6,196,64.4,196z"/>
<path class="st13" d="M74.8,197.3h-4.7c-0.2,0-0.4-0.1-0.4-0.4c0-0.2,0.2-0.4,0.4-0.4h4.7c0.2,0,0.4,0.1,0.4,0.4
	C75.2,197.1,75,197.3,74.8,197.3z"/>
<path class="st13" d="M68.6,197.3h-0.2c-0.2,0-0.4-0.1-0.4-0.4c0-0.2,0.2-0.4,0.4-0.4h0.2c0.2,0,0.4,0.1,0.4,0.4
	C69,197.1,68.8,197.3,68.6,197.3z"/>
<path class="st13" d="M74.8,196h-2.6c-0.2,0-0.4-0.1-0.4-0.4c0-0.2,0.2-0.4,0.4-0.4h2.6c0.2,0,0.4,0.1,0.4,0.4
	C75.2,195.8,75,196,74.8,196z"/>
<path class="st13" d="M66.8,197.3h-2.6c-0.2,0-0.4-0.1-0.4-0.4c0-0.2,0.2-0.4,0.4-0.4h2.6c0.2,0,0.4,0.1,0.4,0.4
	C67.2,197.1,67,197.3,66.8,197.3z"/>
<path class="st13" d="M95.8,159.2H26.2c-0.4,0-0.7,0.3-0.7,0.7v2.3c0,0.4,0.3,0.7,0.7,0.7h69.6c0.4,0,0.7-0.3,0.7-0.7v-2.3
	C96.5,159.5,96.2,159.2,95.8,159.2z"/>
<path class="st13" d="M95.8,199.1H26.2c-0.4,0-0.7,0.3-0.7,0.7v2.3c0,0.4,0.3,0.7,0.7,0.7h69.6c0.4,0,0.7-0.3,0.7-0.7v-2.3
	C96.5,199.5,96.2,199.1,95.8,199.1z"/>
<path class="st15" d="M365.1,265.8c0,0,0.1,0,0.1,0c0.5-0.1,0.9-0.6,0.8-1.1l-4.6-35.7c-0.1-0.5-0.5-0.9-1-0.8
	c-0.5,0.1-0.9,0.6-0.8,1.1l4.6,35.7C364.3,265.4,364.7,265.8,365.1,265.8z"/>
<path class="st15" d="M379.7,265.8c0,0,0.1,0,0.1,0c0.5-0.1,0.9-0.6,0.8-1.1l-4.6-35.7c-0.1-0.5-0.5-0.9-1-0.8
	c-0.5,0.1-0.9,0.6-0.8,1.1l4.6,35.7C378.8,265.4,379.2,265.8,379.7,265.8z"/>
<path class="st15" d="M364.3,257.9h14.6v2h-14.6V257.9z"/>
<path class="st15" d="M363.4,250.6H378v2h-14.6V250.6z"/>
<path class="st15" d="M362.4,243.4H377v2h-14.6V243.4z"/>
<path class="st15" d="M361.5,236.2h14.6v2h-14.6V236.2z"/>
<path class="st16" d="M360.6,229h14.6v2h-14.6V229z"/>
<path class="st17" d="M370.1,265.8c0.5,0,0.8-0.3,0.9-0.8l4.6-35.7c0.1-0.5-0.3-1-0.8-1.1c-0.5-0.1-1,0.3-1,0.8l-4.6,35.7
	c-0.1,0.5,0.3,1,0.8,1.1C370,265.7,370.1,265.8,370.1,265.8z"/>
<path class="st17" d="M355.5,265.8c0.5,0,0.8-0.3,0.9-0.8l4.6-35.7c0.1-0.5-0.3-1-0.8-1.1c-0.5-0.1-1,0.3-1,0.8l-4.6,35.7
	c-0.1,0.5,0.3,1,0.8,1.1C355.5,265.7,355.5,265.8,355.5,265.8z"/>
<path class="st17" d="M356.3,257.9h14.6v2h-14.6V257.9z"/>
<path class="st17" d="M357.2,250.6h14.6v2h-14.6V250.6z"/>
<path class="st17" d="M358.1,243.4h14.6v2h-14.6V243.4z"/>
<path class="st17" d="M359.1,236.2h14.6v2h-14.6V236.2z"/>
<path class="st18" d="M360,229h14.6v2H360V229z"/>
<path class="st15" d="M359.9,232.3H376c0.9,0,1.6-0.7,1.6-1.7v-3.7c0-0.9-0.7-1.7-1.6-1.7h-16.1c-0.9,0-1.6,0.7-1.6,1.7v3.7
	C358.3,231.5,359.1,232.3,359.9,232.3z"/>
<path class="st17" d="M358.3,232.3h16.1c0.9,0,1.6-0.7,1.6-1.7v-3.7c0-0.9-0.7-1.7-1.6-1.7h-16.1c-0.9,0-1.6,0.7-1.6,1.7v3.7
	C356.7,231.5,357.4,232.3,358.3,232.3z"/>
<path class="st19" d="M392.2,205.2c2.9,0,5.2-0.9,6.8-2c0.2-0.1,0.3-0.2,0.5-0.4c0.3-0.2,0.5-0.4,0.8-0.7c0.3-0.3,0.6-0.6,0.9-0.9
	c0.1-0.1,0.1-0.1,0.1-0.1c1.2-1.3,1.8-2.2,2.1-3.5c0.3-1.3,0.4-2.3,0.4-2.3s3.4-10,1.1-9.2c-2.4,0.8-5.6,4.2-8.1,7.6c0,0,0,0,0,0.1
	c-0.1,0.2-0.3,0.4-0.4,0.6c-0.1,0.1-0.1,0.2-0.3,0.4c-1.3,1.7-2.2,3.1-2.6,3.2c-0.6,0.2-4.7-9.3-5.1-9.5c0,0-2.1,0.7-2.3,1.6
	C385.7,192.8,389.1,205.2,392.2,205.2z"/>
<path class="st20" d="M392.1,197.1c0.1,0.4,0.1,1.2,0.3,1.5c0.2,0.4,0.6,0.7,1,0.7c0.5-0.1,1.1-0.4,1.5-0.8c4.5-4.4,4.1-7.4,3.9-7.4
	c-0.1,0.2-2.3,3.2-2.4,3.3c-0.1,0.1-0.1,0.2-0.3,0.4c-1.3,1.7-2.2,3.1-2.6,3.2C393.2,198.1,392,195.9,392.1,197.1z"/>
<path class="st19" d="M399.9,258.7c0.3-0.4,3.2,0.4,3.2,0.6c0,0.6-0.1,2.8-0.4,3.1c-0.3,0.2-3.2-0.1-3.2-0.7
	C399.4,261.1,399.5,259,399.9,258.7z"/>
<path class="st19" d="M423.5,257.1c0.1-0.4,2.8-1.7,2.9-1.6c0.3,0.4,1.5,2.4,1.3,2.8c-0.1,0.4-2.7,2-3,1.5
	C424.6,259.3,423.5,257.5,423.5,257.1z"/>
<path class="st21" d="M410,218.8c-0.2,0.6-0.4,1.1-0.6,1.7c-1.5,4-3.2,8.7-3.4,11.2c-0.3,4.6-2.3,15.7-2.3,21c0,4.4-1.1,7.4-1,8.4
	l-3.7-0.8c-1.4-6.3-2.9-21.6-2.9-28.5c0-6.9,0.5-18.4,2.9-23.9c2.2-5.2,11.2,4.2,12.2,5.5C411.6,214,410.9,216.1,410,218.8z"/>
<path class="st22" d="M409.9,218.7c-0.1-0.1-0.2-0.1-0.3,0c-0.9-1.3-2.8-2.5-3.9-0.7c-0.6,1.1,0.1,2.3,0.1,3.4
	c0.1,2.2-1.1,4.2-2,6.2c-2.8,6.9-0.5,14.6-1.4,21.8c-0.4,3.8-2.1,7.4-1.8,11.4c0.9,0.4,2.2,0.8,2.8,0.4c0.3-1.5,2-24.8,2.4-29.3
	c0.2-2.5,2-7.1,3.4-11.2c0.2-0.6,0.4-1.2,0.6-1.7C410,218.8,409.9,218.8,409.9,218.7z"/>
<path class="st21" d="M408.5,211.5c0,0,0,0.2,0,0.7c0.1,2.8,0.3,13.7,1.5,24.4c0.7,6.8,8.8,18.1,14.2,22.6l3-1.7l0.7-0.4
	c0,0-3.3-6.5-4.9-9.1c-4.2-6.9-3.3-10.9-3.3-15.5c-0.1-9.4,2.2-14-0.1-21c-0.1-0.3-0.2-0.7-0.3-0.9c-0.5-1.2-1-2.4-1.8-3.7
	c-0.1-0.2-0.3-0.3-0.5-0.4c-0.3-0.1-0.6-0.1-0.9-0.1c-1.7,0.2-4.3,1.7-6.6,4.4C409,210.9,408.8,211.2,408.5,211.5z"/>
<path class="st22" d="M417.4,237.8c0.8,3.9,1.8,8,3.4,11.6c1.4,3.2,3.9,5.6,6.3,7.9l0.7-0.4c0,0-3.3-6.5-4.9-9.1
	c-4.2-6.9-3.3-10.9-3.3-15.5c-0.1-9.4,2.2-14-0.1-21c-0.7,0.1-1.3,0.4-1.8,0.6c-0.1,0-0.1,0.1-0.1,0.1c-0.1,0.1-0.1,0.2-0.1,0.4
	c1.2,4.5,0.8,8.7,0,13.3C416.7,229.8,416.6,233.8,417.4,237.8z"/>
<path class="st23" d="M402.8,261.6c0,0,0.9,2.3-0.3,3.8c0,0-6.8-1.1-8.7-1.9c0,0,0.5-2.8,2.2-2.7c1.8,0.1,3.5,0.6,3.5,0.6
	S401.2,262.8,402.8,261.6z"/>
<path class="st23" d="M427.6,257.4c0,0,2.1,1.2,2,3.1c0,0-5.9,3.8-7.8,4.5c0,0-1.3-2.5,0.1-3.6c1.4-1.1,3-2,3-2
	S427.2,259.5,427.6,257.4z"/>
<path class="st24" d="M404,187.6c0.2,2.1,0.3,3.9,0.3,3.9s2.2,0.9,2.3,2.3c0.1,0.7-0.2,1.5-0.7,2.3c-0.6,1.2-1.5,2.4-2.1,3.6
	c-4.2-0.7-6.8-4.4-7.2-7.6c1.4-3.9,3.3-9,5.2-10.7C403,180.3,403.7,184.3,404,187.6z"/>
<path class="st24" d="M398.5,207.8c0,0.9,18.4,5.4,20.3,5c0.7-0.1,1.2-0.4,1.4-0.7c0.3-0.8-0.9-8.9-0.7-14.3c0-1,0.1-2.1,0.1-3.1
	c0-5.4-0.3-10.5-1.5-11.4c-0.3-0.2-0.5-0.4-0.9-0.7c-0.5-0.4-1.1-0.7-1.7-1.1c-1-0.6-2.2-1.1-3.5-1.5c-2-0.6-4.5-0.8-7-0.1
	c-0.6,0.1-1.3,0.4-2,0.7c-0.1,0.1-0.3,0.1-0.5,0.2c-2.2,0.9-1.9,6.2-1.6,10.6c0.1,2,0.3,3.9,0.3,5c0,0.4-0.1,0.8-0.1,1.2
	C400.5,200.8,398.8,205.5,398.5,207.8z"/>
<path class="st19" d="M406.7,177.4v2.3c0,0-0.5,1,0,1.1c1.1,0.2,2.8-1.1,2.8-1.1v-3.6L406.7,177.4z"/>
<path class="st20" d="M409.5,177.9v-1.6c0,0-1.2,1.7-2.6,1.7C406.9,178.1,408.4,178.7,409.5,177.9z"/>
<path class="st19" d="M405.2,172.2c0,0-0.5,2.4-0.3,4.5c0.1,1.5,3,2.7,4.5,0.1c1.5-2.5,0.3-5.5,0.3-5.5L405.2,172.2z"/>
<path class="st21" d="M421,213.7c-0.5,0.3-13.2-1.8-13.2-1.8c-0.9-3.1-3.6-15.9-3.5-17.1c0.5-8,7.4-14.5,7.4-14.5
	c2.7-0.1,6.1,3.3,6.1,3.3c-0.8-1.7-4.3-1.6-4.9-0.7c-1.1,1.9-0.8,7.8,0.2,10.2c3,7.1,6,7.4,6,7.4L421,213.7z"/>
<path class="st21" d="M405.7,197.8c0.4,1.1-5,12.2-5,12.2s-3.8-0.8-3.8-0.9c0,0,1.6-4.6,2.8-7.9c0.3-0.7,0.5-1.2,0.6-1.8v-0.1
	c0.2-0.7,0.4-1.2,0.5-1.7c0.1-0.5,0.2-0.9,0.1-1.2c0.1-1.2-0.9-3.3-0.9-5.4c-0.1-3.6,1.1-9.8,2.2-10.2c0.1-0.1,0.2-0.1,0.3-0.1
	c0.1,0,0.1,0,0.1-0.1c0.7-0.3,1.3-0.4,2-0.7C404.5,180,403.2,190.9,405.7,197.8z"/>
<path class="st25" d="M406.3,172.4c0.5-0.1,1.1-0.3,1.6-0.4c0.5-0.1,0.8,0,1.2,0.1c0,0.4,0.1,0.9,0.1,1.1c0,0.7-0.2,1.6,0.2,2.3
	c0.3,0.4,0.7,0.6,1.1,0.4c0.3-0.1,0.3-0.4,0.3-0.7c0.4-1.2,0.4-2.6-0.2-3.6c-0.1-1.1-2.3-1.5-3-1.6c-0.9-0.1-3.6-0.4-3.3,1.2
	C403.8,172.3,405.5,172.5,406.3,172.4z"/>
<path class="st26" d="M406.6,196.4c-0.3,1,0.2,2,1.1,2.3c0.9,0.3,1.9-0.2,2.2-1.2c0.3-1-0.2-2-1.1-2.3
	C407.9,194.9,406.9,195.5,406.6,196.4z M407.2,196.6c0.2-0.7,0.8-1,1.4-0.8c0.6,0.2,0.9,0.9,0.7,1.5c-0.2,0.7-0.8,1-1.4,0.8
	C407.3,197.9,407,197.3,407.2,196.6z"/>
<path class="st27" d="M400.4,210.7l7.2,2.4c0.7,0.2,1.5-0.2,1.8-1l3.4-12c0.2-0.8-0.2-1.6-0.9-1.9l-7.2-2.4c-0.7-0.2-1.5,0.2-1.8,1
	l-3.4,12C399.2,209.6,399.6,210.5,400.4,210.7z"/>
<path class="st19" d="M418.1,210.2c-0.1,0-0.3,0-0.5-0.1c-5.3-0.7-14.6-5.1-14.6-5.1c0-0.4-0.1-2.4-0.1-2.4c0.2,0,8.8,0.2,12.4,0.3
	c0.3,0,0.5,0,0.7,0c0.3,0.1,0.6,0.1,0.8,0h0.1c0.5-0.1-0.1-4.8-1-6.7c-0.4-0.8-0.9-1.6-1.2-2.3c-0.9-1.7-1.4-3.6-1.1-5.6
	c0.2-1.9,0.9-3.3,1.7-4.3c1-1.5,3.1-1.3,4,0.2c1.8,2.9,2.6,4.4,4.5,9.4v0.1C426.2,199.8,423.1,210.8,418.1,210.2z"/>
<path class="st20" d="M423.4,192c0,0-2.3-1.5-1.6,1c0.4,3.4,0.6,8.4-0.4,11.7c-0.7,2.1-2,3.9-4.3,3.4c-1.6-0.3-7-1-10.3-1.8
	c-0.9-0.2-2.8-1.2-3.8-1.3v0.1c0,0,9.2,4.4,14.6,5.1c0.1,0,0.3,0.1,0.5,0.1C423.1,210.8,426.5,200.3,423.4,192z"/>
<path class="st24" d="M423.9,191.9c-0.2-0.8-1.5-6.1-4.3-8.4c-1.3-1.1-4.9-2.6-6.3-1c-3,3.5-0.8,9.5,1.3,13.7
	C418,196.4,421.3,194.7,423.9,191.9z"/>
<path class="st19" d="M400.5,203.8c-0.1-0.2-0.1-0.5,0.1-0.7l0.1-0.1c-0.1-0.1-0.2-0.4-0.1-0.6c0.1-0.1,0.3-0.3,0.5-0.3
	c0-0.1,0-0.1,0.1-0.2c0.3-0.8,1.5,0.1,1.9,0.4c0.1,0.1,0.2,0.2,0.1,0.3l0.1,0.1c0.3,0.5,0.3,1.4,0.1,1.9c-0.3,0.7-0.9,0.9-1.6,0.7
	c-0.5-0.1-1.4-0.4-1.4-1C400.3,204.1,400.4,203.9,400.5,203.8z"/>
<path class="st19" d="M401.7,200.8c0.5-0.1,0.9-0.1,1.3,0.3c0.3,0.4,0.7,1.3,0.9,1.8c0.2,0.1-0.1,0.1-0.4,0.1
	c-0.4,0.1-0.9-0.1-0.9-0.6c0-0.2,0.1-0.4-0.1-0.6c-0.2-0.2-0.5-0.3-0.7-0.4C401.4,201.4,401.3,200.8,401.7,200.8z"/>
<path class="st19" d="M380.9,187.8c0.1-0.2,0.2-0.4,0.4-0.4c-0.2-0.3-0.3-0.6-0.3-0.9c0.1-0.4,0.3-0.4,0.7-0.4c0.1,0,0.1,0,0.2,0
	v-0.1c0-0.1,0.1-0.1,0.2-0.2c0.5-0.1,1.1,0.1,1.6,0.4c1.4,0.7,2.1,0.7,2.6,0.5c-0.3-0.4-0.4-0.5-0.7-0.6c-0.1,0-0.3-0.1-0.4-0.4
	c-0.1-0.3,0.1-0.4,0.3-0.4c0.3-0.1,0.9,0,1.2,0c0.2,0,0.4,0.1,0.5,0.4c1.4,2,2,4.4,1.6,5.3c-0.1,0.4-2.6-0.4-2.5-0.9
	c-1.4,0.2-3.8,0-3.9-0.9C381.5,189.1,380.6,188.6,380.9,187.8z"/>
<path class="st19" d="M31.6,244.5c0,0,1.3,2.2,1.9,2.9s0.1,1.2,0.1,1.2l-1.3-0.4l-1.5-1.3l-1.8-1.5L31.6,244.5z"/>
<path class="st19" d="M3.2,241.1l2.3,1.3c0,0,1.6-2.5,2.9-4.7s10.2-12.4,10.2-12.4c2.9-4.6-1.1-13-1.1-13l-6.5,2.3
	c0,0,1.5,4.5,1.4,4.7c-0.2,0.3-0.5,0.7-0.7,1c-1,1.5-2.2,3.5-3.1,6.5c-0.5,1.7-2.7,7.2-4.1,10.9C3.7,239.7,3.2,241.1,3.2,241.1z"/>
<path class="st19" d="M22.7,213c0,0,0.6,7.8,1,9.7c0.1,0.2,0.1,0.5,0.1,0.8v0.1c0.2,1.7,1.8,6.7,4.6,18.1c0,0.1,0.1,0.2,0.1,0.3
	c0.5,2.2,0.7,3.8,0.7,3.8l2.5-1.2c0,0-0.3-2.5-0.5-5.1c-0.2-2.6,0.2-16.7,0.2-16.7c-0.7-5.5-5.2-16.2-5.2-16.2L22.7,213z"/>
<path class="st28" d="M4.5,237.7c0.1,0.1,0.5,0.1,0.5-0.1c1.2-3.1,2.5-6.1,4.2-9c1.5-2.4,2.9-4.7,3.8-7.4c0.1-0.1,0.1-0.2,0.1-0.4
	c0-0.3-0.3-0.4-0.5-0.4c-0.4-0.1-0.7-0.2-1.1-0.1c-1,1.5-2.2,3.5-3.1,6.5C8.1,228.7,6,234.2,4.5,237.7z"/>
<path class="st28" d="M23.8,223.5c0.2,1.7,1.8,6.7,4.6,18.1c0,0.1,0.1,0.2,0.1,0.3c0.1-0.1,0.3-0.9,0.3-1.1
	c0.4-5.3-1.9-10.5-1.5-15.8c0.6-0.8,1.3-1.5,2.1-2.1c0.3-0.3-0.1-0.9-0.4-0.6c-0.5,0.4-1.1,0.9-1.5,1.5c0.1-0.3,0.1-0.7,0.2-0.9
	c0.1-0.2-0.1-0.6-0.4-0.5C26.2,222.7,24.8,222.9,23.8,223.5z"/>
<path class="st21" d="M9.1,220.3c0,0,1.3,0.8,3.5,1.7c5.4,2.2,15.8,5,23.5-1.7c0,0-5.4-0.5-4.3-7.9c1.3-9.5-2.1-24.2-7.2-26.1
	c-5.2-2-12.2,1.7-12.2,1.7s-1.5,0.9-2.7,3.1c-0.9,1.5-1.6,3.7-1.6,6.6C8.2,203.6,13,207.8,9.1,220.3z"/>
<path class="st22" d="M9.1,220.3c0,0,1.3,0.8,3.5,1.7c0.2-0.4,0.3-0.9,0.5-1.2c0.5-1.3,1-2.7,1.3-4.1c0.5-2.4,0.2-4.8-0.5-7.2
	c-1.5-5.2-3.7-14.9,1.2-20.4c0.2-0.2-2.7-1.3-3.5-1.5c-0.9,1.5-3.7,5.9-3.4,10.2C8.6,203.5,13,207.8,9.1,220.3z"/>
<path class="st23" d="M28.8,243.4c0,0-0.6,0.5-0.5,1.9c0,0,2.4,1.4,3.7,4.3c0.3,0.7,2.1,0.1,2.9,0.1c0,0,0.7-0.4,0.2-1.2
	c-0.2-0.4-1.2-0.8-1.5-1.1C33.2,248.5,31.4,246.9,28.8,243.4z"/>
<path class="st23" d="M28.4,245.3l0.4,4.4l0.7,0.1l0.1-4.2L28.4,245.3z"/>
<path class="st19" d="M5.5,242.4c0,0-0.5,2.5-0.5,3.5c0,1-0.7,0.9-0.7,0.9l-0.7-1.3l-0.1-2L3.2,241L5.5,242.4z"/>
<path class="st23" d="M3.8,239.6c0,0-0.5-0.2-1.3,0.9c0,0,0.8,2.8-0.1,5.9c-0.2,0.7,1.5,1.7,1.9,2.3c0,0,0.7,0.3,0.9-0.7
	c0.1-0.4-0.4-1.5-0.3-1.9C4,246.4,3.4,244,3.8,239.6z"/>
<path class="st23" d="M2.5,240.4L0,243.9l0.5,0.5l2.7-2.9L2.5,240.4z"/>
<path class="st19" d="M35,186.6c-2.5,0-4.5-0.6-5.8-1.5c-0.2-0.1-0.3-0.2-0.5-0.3c-0.2-0.2-0.5-0.3-0.7-0.5
	c-0.3-0.2-0.5-0.4-0.8-0.6c-0.1-0.1-0.1-0.1-0.1-0.1c-1-0.9-1.5-1.6-1.8-2.5c-0.3-0.9-0.3-1.6-0.3-1.6s-2.9-7.3-0.9-6.7
	c2,0.6,4.8,3,6.9,5.5c0,0,0,0,0,0.1c0.1,0.2,0.2,0.3,0.3,0.4c0.1,0.1,0.1,0.2,0.2,0.3c1.1,1.3,1.9,2.2,2.2,2.3
	c0.5,0.2,4-6.7,4.3-6.8c0,0,1.8,0.5,2,1.2C40.5,177.6,37.6,186.6,35,186.6z"/>
<path class="st19" d="M44.4,173.9c-0.1-0.2-0.2-0.3-0.3-0.3c0.2-0.2,0.3-0.4,0.2-0.7c-0.1-0.3-0.3-0.3-0.6-0.3c-0.1,0-0.1,0-0.2,0
	v-0.1c0-0.1-0.1-0.1-0.2-0.2c-0.4-0.1-0.9,0.1-1.3,0.3c-1.1,0.5-1.7,0.5-2.2,0.4c0.3-0.3,0.3-0.4,0.6-0.4c0.1,0,0.3-0.1,0.3-0.3
	c0.1-0.2-0.1-0.3-0.2-0.3c-0.2-0.1-0.7,0-1,0c-0.2,0-0.3,0.1-0.4,0.3c-1.2,1.5-1.6,3.3-1.3,4c0.1,0.3,2.1-0.3,2-0.7
	c1.2,0.2,3.1,0,3.2-0.7C43.9,174.8,44.6,174.4,44.4,173.9z"/>
<path class="st29" d="M22.6,176.3c0,0-0.1,0.7,0.1,1.8c0.2,1.2,0.6,3,1.8,4.4c1.2,1.5,5.4-5.8,4.1-7.5c-1.8-2.8-4.2-6.3-6-7.1
	C20.9,167,22.6,176.3,22.6,176.3z"/>
<path class="st30" d="M22.9,168c0,0,1.2,0.7,1.5,2.6c0.3,2,0.6,7.4,0.1,9.4c-0.3,1.6-0.5,1.9-0.5,1.9l-1.1-1.7c0,0-1.1-1.9-0.9-2.3
	C22.3,177.5,22.9,168,22.9,168z"/>
<path class="st24" d="M30,189.9c0,0-13.5,5.5-21,0.9c0,0,4.7-5.2,4.5-10.6c0-0.2,0-0.5-0.1-0.7c-0.1-0.4-0.1-0.9-0.2-1.5
	c-1-5.5-3.5-12.3,7.1-11.7c0,0,6,3.3,5.9,6.8c-0.1,3.6-2.6,4.2-0.7,8.3C27.5,185.7,30,189.9,30,189.9z"/>
<path class="st19" d="M21.5,164.9v2c0,0,0.5,1,0,1.1c-1.1,0.2-2.7-1.7-2.7-1.7v-2.8L21.5,164.9z"/>
<path class="st28" d="M18.8,165.4v-1.6c0,0,1.4,1.5,2.7,1.5C21.5,165.4,19.9,166.2,18.8,165.4z"/>
<path class="st19" d="M22.2,158.9c0,0,1,2.2,1.3,4.3c0.2,1.5-2.3,3.4-4.3,1.3c-2-2-1.5-5.2-1.5-5.2L22.2,158.9z"/>
<path class="st31" d="M23.1,158.8c-0.1-0.1-0.3-0.1-0.5-0.2c-0.4-0.3-0.3-0.4-0.5-0.7c-0.2-0.2-0.4-0.4-0.7-0.5
	c-0.7-0.3-1.6-0.1-2.3,0c-0.2,0.1-0.3,0.3-0.2,0.5c-0.7,0.1-1.5,0.9-1.8,1.5c-0.6,1-0.7,2.8-0.1,3.8c0.5,0.8,1.4,1.5,1.9,0.4
	c0.4-0.8,0.3-1.6,0.3-2.5c0-0.3,0-0.6,0-0.9c0.4-0.6,0.9-1,1.5-1c0.1,0.1,0.3,0.4,0.4,0.6c0.2,0.2,0.5,0.4,0.7,0.6
	c0.5,0.2,1.1,0.2,1.4-0.2C23.7,159.6,23.5,159.1,23.1,158.8z"/>
<path class="st28" d="M19.5,161.2c0,0-0.8-0.4-0.9,0.3c-0.1,0.7,0.4,1.1,0.7,1C19.7,162.4,19.7,161.5,19.5,161.2z"/>
<path class="st31" d="M9,164.9c0.5,2.5,4.1,4.4,6.2,2.9c1.3-1,1.9-2.8,1.9-4.5c0-0.9-0.2-1.9-0.1-2.8c0.3-1.7,1.3-1.8,2.1-2.9
	c0,0,0-0.1,0.1-0.1c0.1-0.1,0.1-0.2,0.1-0.4c-0.7-1.7-3.4-2.5-4.8-1.4c-0.9,0.7-1.3,1.9-1.5,3c-0.2,0.9-0.2,1.8-0.3,2.8
	c-0.1,0.7-0.1,1.6-0.3,2.2c-0.7,1.5-2.3,1-3,0.9C9.3,164.4,9,164.6,9,164.9z"/>
<path class="st32" d="M17.6,158.5c0.3-0.9,1.1-1.3,1.8-1.6c0.4-0.1,0.7,0.5,0.3,0.7c-0.6,0.2-1.2,0.5-1.5,1.2
	C18.1,159.2,17.5,159,17.6,158.5z"/>
<path class="st19" d="M6.1,187c2.3,3.6,12.6,0.2,12.6,0.2l-0.1-2c0,0-6.1,0.5-7.3-1.7c-0.2-0.4,0.4-5,1.5-6.1c0.5-0.5,1-1,1.5-1.5
	c1.1-1.1,1.9-2.5,2.2-4.1c0.3-1.5,0.1-2.8-0.3-3.9c-0.5-1.4-2.1-1.8-3.1-0.9c-2.1,1.8-5.4,6.5-5.4,6.6C4.7,177.9,3.7,183.4,6.1,187z
	"/>
<path class="st29" d="M12.9,178.4c0.5-0.5,3.4-3.6,3.8-6.7c0.2-1.4-0.2-4.8-1.8-5.2c-2.6-0.7-6,3.4-8.4,6.6
	C7.6,175.7,10,177.6,12.9,178.4z"/>
<path class="st19" d="M23.9,184.8c-0.4-0.1-0.9-0.2-1.4-0.1c-0.1,0-0.1,0-0.2,0c0-0.1,0.1-0.1,0.1-0.1c0.1-0.4,0.2-1-0.3-1.2
	c-0.5-0.2-0.7,0.4-0.9,0.7c-0.3,0.4-0.6,0.7-0.9,0.9c-0.4,0.1-0.8,0.2-1.2,0.3c-0.3,0.1-0.7,0.1-0.9,0.4c-0.1,0.2-0.1,0.7-0.1,1
	c0.1,0.4,0.3,0.5,0.7,0.7c0.2,0.1,0.5,0.2,0.7,0.2c0.5,0.1,0.9,0.2,1.4,0.1c0.1,0,0.2-0.1,0.3-0.1c0.4,0.2,0.9,0.2,1.3,0.1
	c0.2-0.1,0.3-0.3,0.2-0.4c0.1,0,0.2-0.1,0.3-0.1c0.1-0.1,0.1-0.2,0.1-0.3c0.1-0.1,0.2-0.1,0.2-0.2c0.3-0.3,0.3-0.7,0.2-0.9
	c0.4,0.2,0.8,0.6,1.1,0.9c0.2,0.2,0.4,0.1,0.5-0.1C25.6,185.8,24.5,185,23.9,184.8z"/>
</svg>
