<?xml version="1.0" encoding="utf-8"?>
<!-- Generator: Adobe Illustrator 24.2.0, SVG Export Plug-In . SVG Version: 6.00 Build 0)  -->
<svg version="1.1" id="Layer_1" xmlns="http://www.w3.org/2000/svg" xmlns:xlink="http://www.w3.org/1999/xlink" x="0px" y="0px"
	 viewBox="0 0 401 377" style="enable-background:new 0 0 401 377;" xml:space="preserve">
<style type="text/css">
	.st0{fill:#FFFFFF;stroke:#E7E7E7;stroke-width:1.0035;}
	.st1{fill:#E4E2E2;}
	.st2{fill:#EDEDED;}
	.st3{fill:#EDEDED;fill-opacity:0.5;}
	.st4{fill:none;stroke:#EFEFEF;stroke-width:1.0556;}
	.st5{fill:#2399F8;}
	.st6{fill:#8F8F8F;}
	.st7{fill:#FFFFFF;}
	.st8{fill:#26DDE1;}
	.st9{fill:#9990FC;}
	.st10{fill:#36E554;}
	.st11{fill:none;stroke:#36E554;stroke-width:24.9143;}
	.st12{fill:none;filter:url(#Adobe_OpacityMaskFilter);stroke:#36E554;stroke-width:24.9143;}
	.st13{mask:url(#mask0_1_);}
	.st14{fill:none;stroke:#FFFFFF;stroke-width:1.1864;}
	.st15{fill:#FFC1C5;}
	.st16{fill:#252525;}
	.st17{fill:#F8B5BA;}
	.st18{fill:#ACDCFF;}
	.st19{fill:#96CAF0;}
	.st20{fill:#441FD8;}
	.st21{fill:#32187C;}
	.st22{fill:#1F0D52;}
	.st23{fill:#FFAEA7;}
	.st24{fill:#EA7A70;}
	.st25{fill:#EDF3FF;}
</style>
<path class="st0" d="M64.6,211.7H391c5.3,0,9.5,4.3,9.5,9.5v144.8c0,5.3-4.3,9.5-9.5,9.5H64.6c-5.3,0-9.5-4.3-9.5-9.5V221.2
	C55.1,215.9,59.3,211.7,64.6,211.7z"/>
<path d="M83.7,277.3h-3.2v8.9h-1.3v-8.9H76v-1.1h7.7V277.3z M88.8,286.2c-0.1-0.1-0.1-0.4-0.2-0.8c-0.6,0.6-1.3,0.9-2.1,0.9
	c-0.7,0-1.3-0.2-1.8-0.6c-0.5-0.4-0.7-0.9-0.7-1.6c0-0.8,0.3-1.4,0.9-1.8c0.6-0.4,1.4-0.6,2.5-0.6h1.2v-0.6c0-0.4-0.1-0.8-0.4-1.1
	c-0.3-0.3-0.7-0.4-1.2-0.4c-0.5,0-0.8,0.1-1.1,0.3c-0.3,0.2-0.5,0.5-0.5,0.8h-1.3c0-0.4,0.1-0.7,0.4-1.1c0.3-0.3,0.6-0.6,1.1-0.8
	c0.5-0.2,0.9-0.3,1.5-0.3c0.9,0,1.5,0.2,2,0.6c0.5,0.4,0.7,1,0.8,1.8v3.4c0,0.7,0.1,1.2,0.3,1.6v0.1H88.8z M86.7,285.2
	c0.4,0,0.8-0.1,1.1-0.3c0.4-0.2,0.6-0.5,0.8-0.8v-1.5h-1c-1.6,0-2.3,0.5-2.3,1.4c0,0.4,0.1,0.7,0.4,0.9
	C85.9,285.1,86.3,285.2,86.7,285.2z M93,278.8l0,0.9c0.6-0.7,1.3-1.1,2.2-1.1c1.6,0,2.4,0.9,2.4,2.7v4.9h-1.3v-4.9
	c0-0.5-0.1-0.9-0.4-1.2c-0.2-0.3-0.6-0.4-1.1-0.4c-0.4,0-0.8,0.1-1.1,0.3c-0.3,0.2-0.6,0.5-0.7,0.9v5.3h-1.3v-7.4H93z M103.9,284.2
	c0-0.3-0.1-0.6-0.4-0.8c-0.3-0.2-0.7-0.4-1.4-0.5c-0.6-0.1-1.2-0.3-1.5-0.5c-0.4-0.2-0.7-0.4-0.8-0.7c-0.2-0.3-0.3-0.6-0.3-0.9
	c0-0.6,0.3-1.1,0.8-1.5c0.5-0.4,1.2-0.6,2-0.6c0.8,0,1.5,0.2,2,0.7c0.5,0.4,0.8,1,0.8,1.7h-1.3c0-0.3-0.1-0.6-0.4-0.9
	c-0.3-0.3-0.7-0.4-1.1-0.4c-0.5,0-0.8,0.1-1.1,0.3c-0.3,0.2-0.4,0.5-0.4,0.8c0,0.3,0.1,0.5,0.4,0.7c0.2,0.2,0.7,0.3,1.3,0.4
	c0.6,0.1,1.2,0.3,1.5,0.5c0.4,0.2,0.7,0.4,0.9,0.7c0.2,0.3,0.3,0.6,0.3,1c0,0.7-0.3,1.2-0.8,1.6c-0.5,0.4-1.2,0.6-2.1,0.6
	c-0.6,0-1.1-0.1-1.6-0.3c-0.5-0.2-0.8-0.5-1.1-0.9c-0.3-0.4-0.4-0.8-0.4-1.2h1.3c0,0.4,0.2,0.8,0.5,1c0.3,0.2,0.7,0.4,1.3,0.4
	c0.5,0,0.9-0.1,1.2-0.3C103.8,284.8,103.9,284.6,103.9,284.2z M108.2,286.2H107v-7.4h1.3V286.2z M106.8,276.8c0-0.2,0.1-0.4,0.2-0.5
	c0.1-0.1,0.3-0.2,0.6-0.2s0.4,0.1,0.6,0.2c0.1,0.1,0.2,0.3,0.2,0.5c0,0.2-0.1,0.4-0.2,0.5c-0.1,0.1-0.3,0.2-0.6,0.2
	s-0.4-0.1-0.6-0.2C106.9,277.2,106.8,277,106.8,276.8z M112,277v1.8h1.4v1H112v4.6c0,0.3,0.1,0.5,0.2,0.7c0.1,0.1,0.3,0.2,0.6,0.2
	c0.1,0,0.3,0,0.6-0.1v1c-0.3,0.1-0.7,0.1-1,0.1c-0.6,0-1-0.2-1.3-0.5c-0.3-0.3-0.4-0.8-0.4-1.5v-4.6h-1.4v-1h1.4V277H112z
	 M119.9,285.1h4.7v1.1h-6.1v-10h1.3V285.1z M125.6,282.4c0-0.7,0.1-1.4,0.4-2c0.3-0.6,0.7-1,1.2-1.3c0.5-0.3,1.1-0.5,1.7-0.5
	c1,0,1.8,0.3,2.4,1c0.6,0.7,0.9,1.6,0.9,2.8v0.1c0,0.7-0.1,1.4-0.4,1.9c-0.3,0.6-0.7,1-1.2,1.3c-0.5,0.3-1.1,0.5-1.8,0.5
	c-1,0-1.8-0.4-2.4-1C125.9,284.6,125.6,283.7,125.6,282.4L125.6,282.4z M126.8,282.6c0,0.8,0.2,1.5,0.6,2c0.4,0.5,0.9,0.7,1.5,0.7
	c0.6,0,1.2-0.3,1.5-0.8c0.4-0.5,0.6-1.2,0.6-2.1c0-0.8-0.2-1.5-0.6-2c-0.4-0.5-0.9-0.8-1.5-0.8c-0.6,0-1.1,0.2-1.5,0.7
	C127,280.9,126.8,281.6,126.8,282.6z M135.1,278.8l0,0.9c0.6-0.7,1.3-1.1,2.2-1.1c1.6,0,2.4,0.9,2.4,2.7v4.9h-1.3v-4.9
	c0-0.5-0.1-0.9-0.4-1.2c-0.2-0.3-0.6-0.4-1.1-0.4c-0.4,0-0.8,0.1-1.1,0.3c-0.3,0.2-0.6,0.5-0.7,0.9v5.3h-1.3v-7.4H135.1z
	 M141.4,282.4c0-1.1,0.3-2.1,0.8-2.7c0.5-0.7,1.2-1,2.1-1c0.9,0,1.6,0.3,2.1,0.9v-3.9h1.3v10.5h-1.2l-0.1-0.8
	c-0.5,0.6-1.2,0.9-2.1,0.9c-0.9,0-1.6-0.4-2.1-1.1C141.6,284.6,141.4,283.7,141.4,282.4L141.4,282.4z M142.6,282.6
	c0,0.8,0.2,1.5,0.5,2c0.3,0.5,0.8,0.7,1.4,0.7c0.8,0,1.4-0.4,1.8-1.1v-3.4c-0.4-0.7-1-1-1.7-1c-0.6,0-1.1,0.2-1.5,0.7
	C142.8,280.9,142.6,281.6,142.6,282.6z M149.3,282.4c0-0.7,0.1-1.4,0.4-2c0.3-0.6,0.7-1,1.2-1.3c0.5-0.3,1.1-0.5,1.8-0.5
	c1,0,1.8,0.3,2.4,1c0.6,0.7,0.9,1.6,0.9,2.8v0.1c0,0.7-0.1,1.4-0.4,1.9c-0.3,0.6-0.7,1-1.2,1.3c-0.5,0.3-1.1,0.5-1.8,0.5
	c-1,0-1.8-0.4-2.4-1C149.6,284.6,149.3,283.7,149.3,282.4L149.3,282.4z M150.5,282.6c0,0.8,0.2,1.5,0.6,2c0.4,0.5,0.9,0.7,1.5,0.7
	c0.6,0,1.2-0.3,1.5-0.8c0.4-0.5,0.6-1.2,0.6-2.1c0-0.8-0.2-1.5-0.6-2c-0.4-0.5-0.9-0.8-1.5-0.8c-0.6,0-1.1,0.2-1.5,0.7
	C150.7,280.9,150.5,281.6,150.5,282.6z M158.8,278.8l0,0.9c0.6-0.7,1.3-1.1,2.2-1.1c1.6,0,2.4,0.9,2.4,2.7v4.9h-1.3v-4.9
	c0-0.5-0.1-0.9-0.4-1.2c-0.2-0.3-0.6-0.4-1.1-0.4c-0.4,0-0.8,0.1-1.1,0.3c-0.3,0.2-0.6,0.5-0.7,0.9v5.3h-1.3v-7.4H158.8z"/>
<path d="M329.8,283.3c0-0.4-0.1-0.8-0.4-1.1c-0.3-0.3-0.8-0.5-1.5-0.8c-1-0.3-1.7-0.7-2.1-1.2c-0.4-0.5-0.7-1.1-0.7-1.8
	c0-0.8,0.2-1.4,0.7-1.8c0.4-0.5,1-0.8,1.8-0.9v-1.5h1v1.5c0.8,0.1,1.4,0.4,1.8,1c0.4,0.5,0.6,1.3,0.6,2.2h-1.3
	c0-0.6-0.2-1.2-0.5-1.5c-0.3-0.4-0.7-0.6-1.2-0.6c-0.5,0-1,0.1-1.2,0.4c-0.3,0.3-0.4,0.7-0.4,1.2c0,0.5,0.2,0.8,0.5,1.1
	c0.3,0.3,0.8,0.5,1.5,0.8c0.7,0.2,1.2,0.5,1.6,0.7c0.4,0.3,0.7,0.6,0.9,0.9c0.2,0.4,0.3,0.8,0.3,1.3c0,0.8-0.2,1.4-0.7,1.9
	c-0.5,0.5-1.1,0.8-1.9,0.8v1.3h-1V286c-0.9-0.1-1.5-0.4-2-0.9c-0.5-0.5-0.7-1.2-0.7-2.2h1.3c0,0.6,0.2,1.1,0.5,1.5
	c0.3,0.3,0.8,0.5,1.4,0.5c0.6,0,1.1-0.1,1.4-0.4C329.6,284.2,329.8,283.8,329.8,283.3z M338,282.5h1.4v1H338v2.3h-1.3v-2.3h-4.5
	v-0.7l4.5-6.9h1.4V282.5z M333.6,282.5h3.1v-4.9l-0.2,0.3L333.6,282.5z M345.8,282.5h1.4v1h-1.4v2.3h-1.3v-2.3H340v-0.7l4.5-6.9h1.4
	V282.5z M341.5,282.5h3.1v-4.9l-0.2,0.3L341.5,282.5z M348.5,287.9l-0.7-0.5c0.4-0.6,0.7-1.2,0.7-1.9v-1.1h1.2v1
	c0,0.5-0.1,0.9-0.3,1.4C349.1,287.2,348.8,287.6,348.5,287.9z M356.5,282.5h1.4v1h-1.4v2.3h-1.3v-2.3h-4.5v-0.7l4.5-6.9h1.4V282.5z
	 M352.1,282.5h3.1v-4.9l-0.2,0.3L352.1,282.5z M364,275.9v1.1h-0.2c-1,0-1.8,0.3-2.4,0.9c-0.6,0.6-0.9,1.4-1,2.4
	c0.5-0.6,1.2-0.9,2.2-0.9c0.9,0,1.6,0.3,2.1,0.9c0.5,0.6,0.8,1.4,0.8,2.4c0,1-0.3,1.9-0.8,2.5c-0.6,0.6-1.3,0.9-2.2,0.9
	c-1,0-1.7-0.4-2.3-1.1c-0.6-0.7-0.9-1.7-0.9-2.8v-0.5c0-1.8,0.4-3.2,1.2-4.2c0.8-1,2-1.5,3.5-1.5H364z M362.3,280.4
	c-0.4,0-0.8,0.1-1.2,0.4c-0.4,0.3-0.6,0.6-0.8,1v0.5c0,0.8,0.2,1.5,0.6,2c0.4,0.5,0.8,0.8,1.4,0.8c0.6,0,1-0.2,1.3-0.6
	c0.3-0.4,0.5-1,0.5-1.7c0-0.7-0.2-1.2-0.5-1.7C363.3,280.6,362.9,280.4,362.3,280.4z M373.2,281.6c0,1.5-0.3,2.6-0.8,3.3
	c-0.5,0.7-1.3,1.1-2.4,1.1c-1.1,0-1.9-0.4-2.4-1.1c-0.5-0.7-0.8-1.8-0.8-3.2v-1.7c0-1.5,0.3-2.6,0.8-3.3c0.5-0.7,1.3-1.1,2.4-1.1
	c1.1,0,1.9,0.3,2.4,1c0.5,0.7,0.8,1.7,0.8,3.2V281.6z M371.9,279.9c0-1.1-0.2-1.9-0.5-2.3c-0.3-0.5-0.8-0.7-1.4-0.7
	c-0.6,0-1.1,0.2-1.4,0.7c-0.3,0.5-0.5,1.2-0.5,2.3v2c0,1.1,0.2,1.9,0.5,2.4c0.3,0.5,0.8,0.8,1.4,0.8c0.6,0,1.1-0.2,1.4-0.7
	c0.3-0.5,0.5-1.2,0.5-2.3V279.9z"/>
<path d="M83.1,235.9H80v8.3h-2.1v-8.3h-3v-1.7h8.1V235.9z M82.4,240.5c0-0.7,0.1-1.4,0.4-2c0.3-0.6,0.7-1,1.2-1.3
	c0.5-0.3,1.2-0.5,1.9-0.5c1,0,1.8,0.3,2.4,0.9c0.6,0.6,1,1.4,1.1,2.5l0,0.5c0,1.1-0.3,2.1-1,2.7c-0.6,0.7-1.5,1-2.6,1
	c-1.1,0-1.9-0.3-2.6-1C82.7,242.7,82.4,241.7,82.4,240.5L82.4,240.5z M84.3,240.6c0,0.7,0.1,1.2,0.4,1.6c0.3,0.4,0.6,0.6,1.1,0.6
	c0.5,0,0.9-0.2,1.1-0.5c0.3-0.4,0.4-1,0.4-1.8c0-0.7-0.1-1.2-0.4-1.6c-0.3-0.4-0.6-0.6-1.1-0.6c-0.5,0-0.9,0.2-1.1,0.6
	C84.5,239.2,84.3,239.8,84.3,240.6z M97.3,240.6c0,1.1-0.3,2.1-0.8,2.8c-0.5,0.7-1.2,1-2.1,1c-0.7,0-1.4-0.3-1.8-0.8v3.5h-2v-10.3
	h1.8l0.1,0.7c0.5-0.6,1.1-0.9,1.9-0.9c0.9,0,1.6,0.3,2.1,1c0.5,0.7,0.8,1.6,0.8,2.8V240.6z M95.3,240.5c0-0.7-0.1-1.2-0.4-1.6
	c-0.2-0.4-0.6-0.6-1.1-0.6c-0.6,0-1,0.2-1.3,0.7v3c0.2,0.5,0.7,0.7,1.3,0.7C94.8,242.8,95.3,242,95.3,240.5z M102.2,244.2v-10h3.1
	c0.9,0,1.7,0.2,2.4,0.6c0.7,0.4,1.2,1,1.6,1.7c0.4,0.7,0.6,1.6,0.6,2.5v0.5c0,0.9-0.2,1.8-0.6,2.5c-0.4,0.7-0.9,1.3-1.6,1.7
	c-0.7,0.4-1.5,0.6-2.4,0.6H102.2z M104.2,235.9v6.7h1c0.8,0,1.4-0.3,1.8-0.8c0.4-0.5,0.6-1.3,0.7-2.3V239c0-1-0.2-1.8-0.6-2.3
	c-0.4-0.5-1-0.8-1.8-0.8H104.2z M114.6,244.4c-1.1,0-2-0.3-2.7-1c-0.7-0.7-1-1.6-1-2.7v-0.2c0-0.7,0.1-1.4,0.4-2
	c0.3-0.6,0.7-1,1.2-1.4c0.5-0.3,1.1-0.5,1.8-0.5c1,0,1.8,0.3,2.4,1c0.6,0.6,0.9,1.5,0.9,2.7v0.8h-4.7c0.1,0.5,0.3,0.9,0.6,1.2
	c0.3,0.3,0.7,0.4,1.2,0.4c0.8,0,1.4-0.3,1.8-0.8l1,1.1c-0.3,0.4-0.7,0.8-1.2,1C115.8,244.3,115.2,244.4,114.6,244.4z M114.4,238.3
	c-0.4,0-0.7,0.1-1,0.4c-0.2,0.3-0.4,0.6-0.5,1.1h2.8v-0.2c0-0.4-0.1-0.8-0.4-1C115.1,238.4,114.8,238.3,114.4,238.3z M123.1,244.2
	c-0.1-0.2-0.2-0.4-0.2-0.7c-0.5,0.5-1.1,0.8-1.9,0.8c-0.7,0-1.3-0.2-1.8-0.6c-0.5-0.4-0.7-1-0.7-1.6c0-0.8,0.3-1.4,0.9-1.8
	c0.6-0.4,1.4-0.6,2.5-0.6h0.9v-0.4c0-0.3-0.1-0.6-0.3-0.8c-0.2-0.2-0.5-0.3-0.8-0.3c-0.3,0-0.6,0.1-0.8,0.2
	c-0.2,0.2-0.3,0.4-0.3,0.7h-2c0-0.4,0.1-0.8,0.4-1.2c0.3-0.4,0.6-0.7,1.1-0.9c0.5-0.2,1-0.3,1.6-0.3c0.9,0,1.6,0.2,2.2,0.7
	c0.5,0.5,0.8,1.1,0.8,1.9v3.2c0,0.7,0.1,1.2,0.3,1.6v0.1H123.1z M121.4,242.9c0.3,0,0.6-0.1,0.8-0.2c0.2-0.1,0.4-0.3,0.5-0.5v-1.3
	H122c-1,0-1.5,0.3-1.6,1l0,0.1c0,0.2,0.1,0.5,0.3,0.6C120.9,242.8,121.1,242.9,121.4,242.9z M128.4,244.2h-2v-10.5h2V244.2z
	 M134.1,242.2c0-0.2-0.1-0.4-0.4-0.6c-0.2-0.1-0.6-0.3-1.2-0.4c-1.8-0.4-2.6-1.1-2.6-2.2c0-0.7,0.3-1.2,0.8-1.6
	c0.5-0.4,1.3-0.7,2.1-0.7c0.9,0,1.7,0.2,2.3,0.7c0.6,0.4,0.9,1,0.9,1.7h-2c0-0.3-0.1-0.5-0.3-0.7c-0.2-0.2-0.5-0.3-0.9-0.3
	c-0.3,0-0.6,0.1-0.8,0.2c-0.2,0.2-0.3,0.3-0.3,0.6c0,0.2,0.1,0.4,0.3,0.5c0.2,0.1,0.6,0.2,1.1,0.4c0.5,0.1,0.9,0.2,1.2,0.3
	c1,0.4,1.6,1.1,1.6,2c0,0.7-0.3,1.2-0.9,1.6c-0.6,0.4-1.3,0.6-2.2,0.6c-0.6,0-1.2-0.1-1.7-0.3c-0.5-0.2-0.9-0.5-1.1-0.9
	c-0.3-0.4-0.4-0.8-0.4-1.3h1.9c0,0.4,0.1,0.6,0.4,0.8c0.2,0.2,0.6,0.3,1,0.3c0.4,0,0.7-0.1,0.9-0.2
	C134,242.6,134.1,242.4,134.1,242.2z"/>
<path class="st1" d="M77.6,297.8h161.6c2.2,0,4,1.8,4,4v5c0,2.2-1.8,4-4,4H77.6c-2.2,0-4-1.8-4-4v-5
	C73.6,299.6,75.4,297.8,77.6,297.8z"/>
<path class="st1" d="M298.2,297.8h71.5c2.2,0,4,1.8,4,4v5c0,2.2-1.8,4-4,4h-71.5c-2.2,0-4-1.8-4-4v-5
	C294.2,299.6,296,297.8,298.2,297.8z"/>
<path class="st2" d="M77.6,323.9h161.6c2.2,0,4,1.8,4,4v5c0,2.2-1.8,4-4,4H77.6c-2.2,0-4-1.8-4-4v-5
	C73.6,325.7,75.4,323.9,77.6,323.9z"/>
<path class="st3" d="M77.6,351.2h161.6c2.2,0,4,1.8,4,4v5c0,2.2-1.8,4-4,4H77.6c-2.2,0-4-1.8-4-4v-5C73.6,353,75.4,351.2,77.6,351.2
	z"/>
<path class="st2" d="M298.2,323.9h71.5c2.2,0,4,1.8,4,4v5c0,2.2-1.8,4-4,4h-71.5c-2.2,0-4-1.8-4-4v-5
	C294.2,325.7,296,323.9,298.2,323.9z"/>
<path class="st3" d="M298.2,351.2h71.5c2.2,0,4,1.8,4,4v5c0,2.2-1.8,4-4,4h-71.5c-2.2,0-4-1.8-4-4v-5
	C294.2,353,296,351.2,298.2,351.2z"/>
<rect x="243.7" y="231.9" class="st4" width="44.3" height="17.9"/>
<rect x="287.5" y="231.3" class="st5" width="45.4" height="19"/>
<rect x="332.4" y="231.9" class="st4" width="44.3" height="17.9"/>
<path class="st6" d="M248.9,244h2.8v0.6h-3.6v-6h0.8V244z M255.3,244.6c0-0.1-0.1-0.2-0.1-0.5c-0.4,0.4-0.8,0.6-1.3,0.6
	c-0.4,0-0.8-0.1-1.1-0.4c-0.3-0.2-0.4-0.6-0.4-0.9c0-0.5,0.2-0.8,0.5-1.1c0.4-0.3,0.9-0.4,1.5-0.4h0.7v-0.4c0-0.3-0.1-0.5-0.2-0.6
	c-0.2-0.2-0.4-0.2-0.7-0.2c-0.3,0-0.5,0.1-0.7,0.2c-0.2,0.1-0.3,0.3-0.3,0.5h-0.8c0-0.2,0.1-0.4,0.2-0.6c0.2-0.2,0.4-0.4,0.6-0.5
	c0.3-0.1,0.6-0.2,0.9-0.2c0.5,0,0.9,0.1,1.2,0.4c0.3,0.3,0.4,0.6,0.5,1.1v2.1c0,0.4,0.1,0.7,0.2,1v0.1H255.3z M254,244
	c0.2,0,0.5-0.1,0.7-0.2c0.2-0.1,0.4-0.3,0.5-0.5v-0.9h-0.6c-0.9,0-1.4,0.3-1.4,0.8c0,0.2,0.1,0.4,0.2,0.6
	C253.6,244,253.8,244,254,244z M259.7,243.4c0-0.2-0.1-0.4-0.2-0.5c-0.2-0.1-0.4-0.2-0.8-0.3c-0.4-0.1-0.7-0.2-0.9-0.3
	c-0.2-0.1-0.4-0.3-0.5-0.4c-0.1-0.2-0.2-0.3-0.2-0.6c0-0.4,0.2-0.7,0.5-0.9c0.3-0.3,0.7-0.4,1.2-0.4c0.5,0,0.9,0.1,1.2,0.4
	c0.3,0.3,0.5,0.6,0.5,1h-0.8c0-0.2-0.1-0.4-0.3-0.5c-0.2-0.2-0.4-0.2-0.7-0.2c-0.3,0-0.5,0.1-0.7,0.2c-0.2,0.1-0.2,0.3-0.2,0.5
	c0,0.2,0.1,0.3,0.2,0.4c0.1,0.1,0.4,0.2,0.8,0.3c0.4,0.1,0.7,0.2,0.9,0.3c0.2,0.1,0.4,0.3,0.5,0.4c0.1,0.2,0.2,0.4,0.2,0.6
	c0,0.4-0.2,0.7-0.5,1c-0.3,0.2-0.7,0.4-1.2,0.4c-0.4,0-0.7-0.1-0.9-0.2c-0.3-0.1-0.5-0.3-0.6-0.5c-0.2-0.2-0.2-0.5-0.2-0.7h0.8
	c0,0.3,0.1,0.5,0.3,0.6c0.2,0.1,0.4,0.2,0.8,0.2c0.3,0,0.5-0.1,0.7-0.2C259.7,243.8,259.7,243.6,259.7,243.4z M262.5,239.1v1.1h0.8
	v0.6h-0.8v2.8c0,0.2,0,0.3,0.1,0.4c0.1,0.1,0.2,0.1,0.4,0.1c0.1,0,0.2,0,0.4-0.1v0.6c-0.2,0.1-0.4,0.1-0.6,0.1
	c-0.3,0-0.6-0.1-0.8-0.3c-0.2-0.2-0.3-0.5-0.3-0.9v-2.8H261v-0.6h0.8v-1.1H262.5z M271.1,244.6h-0.8v-2.8h-3v2.8h-0.8v-6h0.8v2.6h3
	v-2.6h0.8V244.6z M272.2,242.4c0-0.4,0.1-0.8,0.3-1.2c0.2-0.3,0.4-0.6,0.7-0.8c0.3-0.2,0.7-0.3,1.1-0.3c0.6,0,1.1,0.2,1.5,0.6
	c0.4,0.4,0.6,1,0.6,1.7v0.1c0,0.4-0.1,0.8-0.3,1.2c-0.2,0.3-0.4,0.6-0.7,0.8c-0.3,0.2-0.7,0.3-1.1,0.3c-0.6,0-1.1-0.2-1.5-0.6
	C272.4,243.7,272.2,243.1,272.2,242.4L272.2,242.4z M272.9,242.4c0,0.5,0.1,0.9,0.3,1.2c0.2,0.3,0.5,0.4,0.9,0.4
	c0.4,0,0.7-0.2,0.9-0.5c0.2-0.3,0.3-0.7,0.3-1.3c0-0.5-0.1-0.9-0.4-1.2c-0.2-0.3-0.5-0.5-0.9-0.5c-0.4,0-0.7,0.1-0.9,0.4
	C273.1,241.5,272.9,241.9,272.9,242.4z M279.9,244.2c-0.3,0.3-0.7,0.5-1.3,0.5c-0.5,0-0.8-0.1-1.1-0.4c-0.2-0.3-0.4-0.7-0.4-1.2
	v-2.9h0.8v2.9c0,0.7,0.3,1,0.8,1c0.6,0,1-0.2,1.2-0.7v-3.2h0.8v4.5H280L279.9,244.2z M284,240.8c-0.1,0-0.2,0-0.4,0
	c-0.5,0-0.8,0.2-1,0.6v3.2h-0.8v-4.5h0.7l0,0.5c0.3-0.4,0.6-0.6,1.1-0.6c0.1,0,0.3,0,0.3,0.1V240.8z"/>
<path class="st7" d="M296.6,243.8h2.7v0.8h-3.8v-6h1V243.8z M302.7,244.6c0-0.1-0.1-0.2-0.1-0.4c-0.3,0.3-0.7,0.5-1.2,0.5
	c-0.4,0-0.8-0.1-1.1-0.4c-0.3-0.3-0.4-0.6-0.4-0.9c0-0.5,0.2-0.8,0.5-1.1c0.4-0.3,0.9-0.4,1.5-0.4h0.6v-0.3c0-0.2-0.1-0.4-0.2-0.6
	c-0.1-0.1-0.3-0.2-0.6-0.2c-0.2,0-0.4,0.1-0.6,0.2c-0.1,0.1-0.2,0.3-0.2,0.4h-1c0-0.2,0.1-0.5,0.2-0.7c0.2-0.2,0.4-0.4,0.7-0.5
	c0.3-0.1,0.6-0.2,0.9-0.2c0.5,0,0.9,0.1,1.2,0.4c0.3,0.3,0.5,0.6,0.5,1.1v2c0,0.4,0.1,0.7,0.2,1v0.1H302.7z M301.6,243.9
	c0.2,0,0.4,0,0.6-0.1c0.2-0.1,0.3-0.2,0.4-0.4v-0.8H302c-0.4,0-0.7,0.1-0.8,0.2c-0.2,0.1-0.3,0.3-0.3,0.5c0,0.2,0.1,0.3,0.2,0.5
	C301.2,243.8,301.4,243.9,301.6,243.9z M307.1,243.4c0-0.2-0.1-0.3-0.2-0.4c-0.1-0.1-0.4-0.2-0.7-0.2c-0.3-0.1-0.6-0.2-0.9-0.3
	c-0.5-0.2-0.8-0.6-0.8-1.1c0-0.4,0.2-0.7,0.5-1c0.3-0.3,0.7-0.4,1.2-0.4c0.5,0,1,0.1,1.3,0.4c0.3,0.3,0.5,0.6,0.5,1h-1
	c0-0.2-0.1-0.4-0.2-0.5c-0.1-0.1-0.3-0.2-0.6-0.2c-0.2,0-0.4,0.1-0.5,0.2c-0.1,0.1-0.2,0.2-0.2,0.4c0,0.2,0.1,0.3,0.2,0.4
	c0.1,0.1,0.4,0.2,0.8,0.3c0.4,0.1,0.7,0.2,0.9,0.3c0.2,0.1,0.4,0.3,0.5,0.4c0.1,0.2,0.2,0.4,0.2,0.6c0,0.4-0.2,0.7-0.5,1
	c-0.3,0.2-0.8,0.4-1.3,0.4c-0.4,0-0.7-0.1-1-0.2c-0.3-0.1-0.5-0.3-0.7-0.5c-0.2-0.2-0.2-0.5-0.2-0.7h1c0,0.2,0.1,0.4,0.3,0.5
	c0.2,0.1,0.4,0.2,0.7,0.2c0.3,0,0.5,0,0.6-0.1C307,243.7,307.1,243.6,307.1,243.4z M310.2,239.1v1.1h0.8v0.7h-0.8v2.5
	c0,0.2,0,0.3,0.1,0.4c0.1,0.1,0.2,0.1,0.4,0.1c0.1,0,0.2,0,0.4,0v0.8c-0.2,0.1-0.4,0.1-0.7,0.1c-0.8,0-1.2-0.4-1.2-1.3v-2.5h-0.7
	v-0.7h0.7v-1.1H310.2z M317.8,244.6h-4v-0.7l2-2.2c0.3-0.3,0.5-0.6,0.6-0.8c0.1-0.2,0.2-0.4,0.2-0.7c0-0.3-0.1-0.5-0.2-0.7
	c-0.2-0.2-0.4-0.3-0.6-0.3c-0.3,0-0.6,0.1-0.8,0.3c-0.2,0.2-0.3,0.5-0.3,0.8h-1c0-0.4,0.1-0.7,0.2-1c0.2-0.3,0.4-0.5,0.7-0.7
	c0.3-0.2,0.7-0.2,1.1-0.2c0.6,0,1,0.1,1.4,0.4c0.3,0.3,0.5,0.7,0.5,1.2c0,0.3-0.1,0.6-0.3,0.9c-0.2,0.3-0.4,0.7-0.8,1.1l-1.5,1.6
	h2.8V244.6z M322,242.5h0.7v0.8H322v1.3h-1v-1.3h-2.6l0-0.6l2.6-4.1h1V242.5z M319.4,242.5h1.6V240l-0.1,0.1L319.4,242.5z
	 M324.4,240.7c0.3-0.4,0.7-0.6,1.2-0.6c1,0,1.4,0.5,1.4,1.6v2.9h-1v-2.9c0-0.3-0.1-0.5-0.2-0.7c-0.1-0.1-0.3-0.2-0.6-0.2
	c-0.4,0-0.7,0.2-0.9,0.5v3.2h-1v-6.3h1V240.7z"/>
<path class="st6" d="M337.6,244h2.8v0.6h-3.6v-6h0.8V244z M344,244.6c0-0.1-0.1-0.2-0.1-0.5c-0.4,0.4-0.8,0.6-1.3,0.6
	c-0.4,0-0.8-0.1-1.1-0.4c-0.3-0.2-0.4-0.6-0.4-0.9c0-0.5,0.2-0.8,0.5-1.1c0.4-0.3,0.9-0.4,1.5-0.4h0.7v-0.4c0-0.3-0.1-0.5-0.2-0.6
	c-0.2-0.2-0.4-0.2-0.7-0.2c-0.3,0-0.5,0.1-0.7,0.2c-0.2,0.1-0.3,0.3-0.3,0.5h-0.8c0-0.2,0.1-0.4,0.2-0.6c0.2-0.2,0.4-0.4,0.6-0.5
	c0.3-0.1,0.6-0.2,0.9-0.2c0.5,0,0.9,0.1,1.2,0.4c0.3,0.3,0.4,0.6,0.5,1.1v2.1c0,0.4,0.1,0.7,0.2,1v0.1H344z M342.7,244
	c0.2,0,0.5-0.1,0.7-0.2c0.2-0.1,0.4-0.3,0.5-0.5v-0.9h-0.6c-0.9,0-1.4,0.3-1.4,0.8c0,0.2,0.1,0.4,0.2,0.6
	C342.3,244,342.5,244,342.7,244z M348.4,243.4c0-0.2-0.1-0.4-0.2-0.5c-0.2-0.1-0.4-0.2-0.8-0.3c-0.4-0.1-0.7-0.2-0.9-0.3
	c-0.2-0.1-0.4-0.3-0.5-0.4c-0.1-0.2-0.2-0.3-0.2-0.6c0-0.4,0.2-0.7,0.5-0.9c0.3-0.3,0.7-0.4,1.2-0.4c0.5,0,0.9,0.1,1.2,0.4
	c0.3,0.3,0.5,0.6,0.5,1h-0.8c0-0.2-0.1-0.4-0.3-0.5c-0.2-0.2-0.4-0.2-0.7-0.2c-0.3,0-0.5,0.1-0.7,0.2c-0.2,0.1-0.2,0.3-0.2,0.5
	c0,0.2,0.1,0.3,0.2,0.4c0.1,0.1,0.4,0.2,0.8,0.3c0.4,0.1,0.7,0.2,0.9,0.3c0.2,0.1,0.4,0.3,0.5,0.4c0.1,0.2,0.2,0.4,0.2,0.6
	c0,0.4-0.2,0.7-0.5,1c-0.3,0.2-0.7,0.4-1.2,0.4c-0.4,0-0.7-0.1-0.9-0.2c-0.3-0.1-0.5-0.3-0.6-0.5c-0.2-0.2-0.2-0.5-0.2-0.7h0.8
	c0,0.3,0.1,0.5,0.3,0.6c0.2,0.1,0.4,0.2,0.8,0.2c0.3,0,0.5-0.1,0.7-0.2C348.3,243.8,348.4,243.6,348.4,243.4z M351.2,239.1v1.1h0.8
	v0.6h-0.8v2.8c0,0.2,0,0.3,0.1,0.4c0.1,0.1,0.2,0.1,0.4,0.1c0.1,0,0.2,0,0.4-0.1v0.6c-0.2,0.1-0.4,0.1-0.6,0.1
	c-0.3,0-0.6-0.1-0.8-0.3c-0.2-0.2-0.3-0.5-0.3-0.9v-2.8h-0.8v-0.6h0.8v-1.1H351.2z M359,243.6l0.9-3.4h0.8l-1.3,4.5h-0.6l-1.1-3.4
	l-1.1,3.4h-0.6l-1.3-4.5h0.8l0.9,3.3l1-3.3h0.6L359,243.6z M363.2,244.7c-0.6,0-1.1-0.2-1.5-0.6c-0.4-0.4-0.6-0.9-0.6-1.6v-0.1
	c0-0.4,0.1-0.8,0.3-1.2c0.2-0.3,0.4-0.6,0.7-0.8c0.3-0.2,0.6-0.3,1-0.3c0.6,0,1,0.2,1.4,0.6c0.3,0.4,0.5,0.9,0.5,1.6v0.3h-3
	c0,0.4,0.1,0.8,0.4,1.1c0.2,0.3,0.6,0.4,0.9,0.4c0.3,0,0.5-0.1,0.7-0.2s0.4-0.3,0.5-0.4l0.5,0.4C364.5,244.4,364,244.7,363.2,244.7z
	 M363.1,240.7c-0.3,0-0.6,0.1-0.8,0.3c-0.2,0.2-0.3,0.5-0.4,0.9h2.2v-0.1c0-0.4-0.1-0.7-0.3-0.9
	C363.7,240.8,363.5,240.7,363.1,240.7z M367.7,244.7c-0.6,0-1.1-0.2-1.5-0.6c-0.4-0.4-0.6-0.9-0.6-1.6v-0.1c0-0.4,0.1-0.8,0.3-1.2
	c0.2-0.3,0.4-0.6,0.7-0.8c0.3-0.2,0.6-0.3,1-0.3c0.6,0,1,0.2,1.4,0.6c0.3,0.4,0.5,0.9,0.5,1.6v0.3h-3c0,0.4,0.1,0.8,0.4,1.1
	c0.2,0.3,0.6,0.4,0.9,0.4c0.3,0,0.5-0.1,0.7-0.2s0.4-0.3,0.5-0.4l0.5,0.4C369,244.4,368.5,244.7,367.7,244.7z M367.6,240.7
	c-0.3,0-0.6,0.1-0.8,0.3c-0.2,0.2-0.3,0.5-0.4,0.9h2.2v-0.1c0-0.4-0.1-0.7-0.3-0.9C368.2,240.8,367.9,240.7,367.6,240.7z
	 M371.6,242.6l-0.5,0.5v1.6h-0.8v-6.3h0.8v3.8l0.4-0.5l1.4-1.5h0.9l-1.7,1.9l1.9,2.6h-0.9L371.6,242.6z"/>
<path class="st0" d="M64.6,0.5H391c5.3,0,9.5,4.3,9.5,9.5v182.8c0,5.3-4.3,9.5-9.5,9.5H64.6c-5.3,0-9.5-4.3-9.5-9.5V10
	C55.1,4.8,59.3,0.5,64.6,0.5z"/>
<path d="M83,34.2H80v8.3h-2.1v-8.3h-3v-1.7H83V34.2z M82.4,38.8c0-0.7,0.1-1.4,0.4-2c0.3-0.6,0.7-1,1.2-1.3c0.5-0.3,1.2-0.5,1.9-0.5
	c1,0,1.8,0.3,2.4,0.9c0.6,0.6,1,1.4,1.1,2.5l0,0.5c0,1.1-0.3,2.1-1,2.7c-0.6,0.7-1.5,1-2.6,1c-1.1,0-1.9-0.3-2.6-1
	C82.7,41,82.4,40,82.4,38.8L82.4,38.8z M84.3,38.9c0,0.7,0.1,1.2,0.4,1.6c0.3,0.4,0.6,0.6,1.1,0.6c0.5,0,0.9-0.2,1.1-0.5
	c0.3-0.4,0.4-1,0.4-1.8c0-0.7-0.1-1.2-0.4-1.6c-0.3-0.4-0.6-0.6-1.1-0.6c-0.5,0-0.9,0.2-1.1,0.6C84.5,37.6,84.3,38.1,84.3,38.9z
	 M97.3,38.9c0,1.1-0.3,2.1-0.8,2.8c-0.5,0.7-1.2,1-2.1,1c-0.8,0-1.4-0.3-1.8-0.8v3.5h-2V35.1h1.8l0.1,0.7c0.5-0.6,1.1-0.9,1.9-0.9
	c0.9,0,1.6,0.3,2.1,1c0.5,0.7,0.8,1.6,0.8,2.8V38.9z M95.3,38.8c0-0.7-0.1-1.2-0.4-1.6c-0.2-0.4-0.6-0.6-1.1-0.6
	c-0.6,0-1,0.2-1.3,0.7v3c0.2,0.5,0.7,0.7,1.3,0.7C94.8,41.1,95.3,40.3,95.3,38.8z M102.2,42.6v-10h3.1c0.9,0,1.7,0.2,2.4,0.6
	c0.7,0.4,1.2,1,1.6,1.7c0.4,0.7,0.6,1.6,0.6,2.5v0.5c0,0.9-0.2,1.8-0.6,2.5c-0.4,0.7-0.9,1.3-1.6,1.7c-0.7,0.4-1.5,0.6-2.4,0.6
	H102.2z M104.2,34.2v6.7h1c0.8,0,1.4-0.3,1.8-0.8c0.4-0.5,0.6-1.3,0.7-2.3v-0.5c0-1-0.2-1.8-0.6-2.3c-0.4-0.5-1-0.8-1.8-0.8H104.2z
	 M116.5,39.9c0-0.4-0.1-0.7-0.4-0.9c-0.3-0.2-0.8-0.4-1.5-0.7c-0.7-0.2-1.3-0.5-1.7-0.7c-1.1-0.6-1.7-1.4-1.7-2.5
	c0-0.5,0.2-1,0.5-1.4c0.3-0.4,0.7-0.8,1.3-1c0.6-0.2,1.2-0.4,1.9-0.4c0.7,0,1.3,0.1,1.9,0.4c0.6,0.3,1,0.6,1.3,1.1
	c0.3,0.5,0.5,1,0.5,1.6h-2.1c0-0.5-0.1-0.8-0.4-1.1c-0.3-0.3-0.7-0.4-1.2-0.4c-0.5,0-0.9,0.1-1.2,0.3c-0.3,0.2-0.4,0.5-0.4,0.8
	c0,0.3,0.2,0.6,0.5,0.8c0.3,0.2,0.8,0.4,1.4,0.6c1.2,0.4,2,0.8,2.6,1.3c0.5,0.5,0.8,1.2,0.8,1.9c0,0.9-0.3,1.5-1,2
	c-0.7,0.5-1.5,0.7-2.6,0.7c-0.8,0-1.5-0.1-2.1-0.4c-0.6-0.3-1.1-0.7-1.4-1.2c-0.3-0.5-0.5-1.1-0.5-1.7h2.1c0,1.1,0.7,1.7,2,1.7
	c0.5,0,0.9-0.1,1.1-0.3C116.3,40.6,116.5,40.3,116.5,39.9z M122,39v3.5h-2.1v-10h3.9c0.8,0,1.4,0.1,2,0.4c0.6,0.3,1,0.7,1.3,1.2
	c0.3,0.5,0.5,1.1,0.5,1.7c0,1-0.3,1.8-1,2.3c-0.7,0.6-1.6,0.8-2.8,0.8H122z M122,37.4h1.8c0.5,0,1-0.1,1.2-0.4
	c0.3-0.3,0.4-0.6,0.4-1.1c0-0.5-0.1-0.9-0.4-1.2c-0.3-0.3-0.7-0.5-1.2-0.5H122V37.4z M134.2,39.9c0-0.4-0.1-0.7-0.4-0.9
	c-0.3-0.2-0.8-0.4-1.5-0.7c-0.7-0.2-1.3-0.5-1.7-0.7c-1.1-0.6-1.7-1.4-1.7-2.5c0-0.5,0.2-1,0.5-1.4c0.3-0.4,0.7-0.8,1.3-1
	c0.6-0.2,1.2-0.4,1.9-0.4c0.7,0,1.3,0.1,1.9,0.4c0.6,0.3,1,0.6,1.3,1.1c0.3,0.5,0.5,1,0.5,1.6h-2.1c0-0.5-0.1-0.8-0.4-1.1
	c-0.3-0.3-0.7-0.4-1.2-0.4c-0.5,0-0.9,0.1-1.2,0.3c-0.3,0.2-0.4,0.5-0.4,0.8c0,0.3,0.2,0.6,0.5,0.8c0.3,0.2,0.8,0.4,1.4,0.6
	c1.2,0.4,2,0.8,2.6,1.3c0.5,0.5,0.8,1.2,0.8,1.9c0,0.9-0.3,1.5-1,2c-0.7,0.5-1.5,0.7-2.6,0.7c-0.8,0-1.5-0.1-2.1-0.4
	c-0.6-0.3-1.1-0.7-1.4-1.2c-0.3-0.5-0.5-1.1-0.5-1.7h2.1c0,1.1,0.7,1.7,2,1.7c0.5,0,0.9-0.1,1.1-0.3C134,40.6,134.2,40.3,134.2,39.9
	z"/>
<path d="M93.8,119.7c0,0.7-0.1,1.2-0.3,1.7c-0.2,0.5-0.5,0.9-0.9,1.1c-0.4,0.3-0.9,0.4-1.4,0.4c-0.5,0-1-0.1-1.4-0.4
	c-0.4-0.3-0.7-0.6-1-1.1c-0.2-0.5-0.3-1-0.3-1.7v-0.5c0-0.6,0.1-1.2,0.3-1.7c0.2-0.5,0.5-0.9,1-1.1c0.4-0.3,0.9-0.4,1.4-0.4
	c0.5,0,1,0.1,1.4,0.4c0.4,0.3,0.7,0.6,1,1.1c0.2,0.5,0.3,1.1,0.3,1.7V119.7z M92.9,119.3c0-0.8-0.2-1.4-0.5-1.8
	c-0.3-0.4-0.8-0.6-1.3-0.6c-0.6,0-1,0.2-1.3,0.6c-0.3,0.4-0.5,1-0.5,1.8v0.5c0,0.8,0.2,1.4,0.5,1.8c0.3,0.4,0.8,0.7,1.3,0.7
	c0.6,0,1-0.2,1.3-0.6c0.3-0.4,0.5-1,0.5-1.8V119.3z M98.1,122.4c-0.3,0.4-0.8,0.6-1.5,0.6c-0.5,0-0.9-0.2-1.2-0.5
	c-0.3-0.3-0.4-0.8-0.4-1.4v-3.3h0.9v3.2c0,0.8,0.3,1.1,0.9,1.1c0.7,0,1.1-0.2,1.3-0.7v-3.6h0.9v5h-0.8L98.1,122.4z M101.4,116.7v1.2
	h0.9v0.7h-0.9v3.1c0,0.2,0,0.4,0.1,0.5c0.1,0.1,0.2,0.1,0.4,0.1c0.1,0,0.2,0,0.4-0.1v0.7c-0.2,0.1-0.4,0.1-0.7,0.1
	c-0.4,0-0.7-0.1-0.9-0.3c-0.2-0.2-0.3-0.6-0.3-1v-3.1h-0.9v-0.7h0.9v-1.2H101.4z M103.4,122.9v-6.7h1.9c0.6,0,1.1,0.1,1.6,0.4
	c0.5,0.3,0.8,0.6,1,1.1c0.2,0.5,0.4,1,0.4,1.7v0.4c0,0.6-0.1,1.2-0.4,1.7c-0.2,0.5-0.6,0.8-1.1,1.1c-0.5,0.3-1,0.4-1.6,0.4H103.4z
	 M104.3,116.9v5.3h0.9c0.7,0,1.2-0.2,1.6-0.6c0.4-0.4,0.6-1,0.6-1.8v-0.4c0-0.8-0.2-1.4-0.5-1.8c-0.4-0.4-0.9-0.6-1.5-0.6H104.3z
	 M109.3,120.3c0-0.5,0.1-0.9,0.3-1.3c0.2-0.4,0.5-0.7,0.8-0.9c0.3-0.2,0.7-0.3,1.2-0.3c0.7,0,1.2,0.2,1.7,0.7
	c0.4,0.5,0.6,1.1,0.6,1.9v0.1c0,0.5-0.1,0.9-0.3,1.3c-0.2,0.4-0.5,0.7-0.8,0.9c-0.3,0.2-0.7,0.3-1.2,0.3c-0.7,0-1.2-0.2-1.7-0.7
	C109.5,121.8,109.3,121.2,109.3,120.3L109.3,120.3z M110.2,120.5c0,0.6,0.1,1,0.4,1.3c0.3,0.3,0.6,0.5,1,0.5c0.4,0,0.8-0.2,1-0.5
	c0.3-0.3,0.4-0.8,0.4-1.4c0-0.5-0.1-1-0.4-1.3c-0.3-0.3-0.6-0.5-1-0.5c-0.4,0-0.8,0.2-1,0.5C110.3,119.3,110.2,119.8,110.2,120.5z
	 M114.7,120.3c0-0.5,0.1-0.9,0.3-1.3c0.2-0.4,0.5-0.7,0.8-0.9c0.3-0.2,0.7-0.3,1.2-0.3c0.7,0,1.2,0.2,1.7,0.7
	c0.4,0.5,0.6,1.1,0.6,1.9v0.1c0,0.5-0.1,0.9-0.3,1.3c-0.2,0.4-0.5,0.7-0.8,0.9c-0.3,0.2-0.7,0.3-1.2,0.3c-0.7,0-1.2-0.2-1.7-0.7
	C114.9,121.8,114.7,121.2,114.7,120.3L114.7,120.3z M115.6,120.5c0,0.6,0.1,1,0.4,1.3c0.3,0.3,0.6,0.5,1,0.5c0.4,0,0.8-0.2,1-0.5
	c0.3-0.3,0.4-0.8,0.4-1.4c0-0.5-0.1-1-0.4-1.3c-0.3-0.3-0.6-0.5-1-0.5c-0.4,0-0.8,0.2-1,0.5C115.7,119.3,115.6,119.8,115.6,120.5z
	 M121.2,118.5c0.4-0.5,0.9-0.7,1.5-0.7c1.1,0,1.6,0.6,1.6,1.8v3.3h-0.9v-3.3c0-0.4-0.1-0.6-0.2-0.8c-0.2-0.2-0.4-0.3-0.8-0.3
	c-0.3,0-0.5,0.1-0.7,0.2c-0.2,0.1-0.4,0.3-0.5,0.6v3.6h-0.9v-7.1h0.9V118.5z M127.7,123c-0.7,0-1.2-0.2-1.7-0.7
	c-0.4-0.4-0.6-1-0.6-1.8v-0.2c0-0.5,0.1-0.9,0.3-1.3c0.2-0.4,0.5-0.7,0.8-0.9c0.3-0.2,0.7-0.3,1.1-0.3c0.7,0,1.2,0.2,1.5,0.6
	c0.4,0.4,0.5,1,0.5,1.8v0.4h-3.4c0,0.5,0.2,0.9,0.4,1.2c0.3,0.3,0.6,0.5,1.1,0.5c0.3,0,0.6-0.1,0.8-0.2c0.2-0.1,0.4-0.3,0.6-0.5
	l0.5,0.4C129.1,122.7,128.5,123,127.7,123z M127.6,118.5c-0.3,0-0.6,0.1-0.9,0.4c-0.2,0.2-0.4,0.6-0.4,1.1h2.5v-0.1
	c0-0.4-0.1-0.8-0.4-1C128.2,118.6,127.9,118.5,127.6,118.5z M130.4,120.4c0-0.8,0.2-1.4,0.5-1.9c0.4-0.5,0.8-0.7,1.4-0.7
	c0.6,0,1.1,0.2,1.4,0.6v-2.6h0.9v7.1h-0.8l0-0.5c-0.3,0.4-0.8,0.6-1.4,0.6c-0.6,0-1.1-0.2-1.4-0.7
	C130.6,121.8,130.4,121.2,130.4,120.4L130.4,120.4z M131.3,120.5c0,0.6,0.1,1,0.4,1.3c0.2,0.3,0.6,0.5,1,0.5c0.5,0,0.9-0.2,1.2-0.7
	v-2.3c-0.3-0.5-0.7-0.7-1.2-0.7c-0.4,0-0.7,0.2-1,0.5C131.4,119.3,131.3,119.8,131.3,120.5z"/>
<path d="M150.8,121.1c0-0.3-0.1-0.5-0.2-0.6c-0.1-0.2-0.4-0.3-0.7-0.4c-0.3-0.1-0.6-0.3-0.9-0.4c-0.2-0.1-0.5-0.3-0.6-0.4
	c-0.2-0.2-0.3-0.4-0.4-0.6c-0.1-0.2-0.1-0.5-0.1-0.8c0-0.5,0.2-0.9,0.5-1.3c0.3-0.3,0.8-0.5,1.3-0.6v-1h0.7v1c0.5,0.1,1,0.3,1.3,0.7
	c0.3,0.4,0.5,0.9,0.5,1.5h-1.3c0-0.4-0.1-0.6-0.2-0.8c-0.2-0.2-0.4-0.3-0.6-0.3c-0.3,0-0.4,0.1-0.6,0.2c-0.1,0.1-0.2,0.3-0.2,0.6
	c0,0.2,0.1,0.4,0.2,0.6s0.4,0.3,0.8,0.4c0.4,0.1,0.7,0.3,0.9,0.4c0.2,0.1,0.4,0.3,0.6,0.4c0.2,0.2,0.3,0.4,0.4,0.6
	c0.1,0.2,0.1,0.5,0.1,0.7c0,0.5-0.2,1-0.5,1.3c-0.3,0.3-0.8,0.5-1.4,0.6v0.9h-0.7V123c-0.6-0.1-1.1-0.3-1.5-0.7
	c-0.3-0.4-0.5-0.9-0.5-1.5h1.3c0,0.4,0.1,0.6,0.3,0.8c0.2,0.2,0.4,0.3,0.8,0.3c0.3,0,0.5-0.1,0.6-0.2
	C150.7,121.6,150.8,121.4,150.8,121.1z M157,120.4h0.8v1.1H157v1.5h-1.3v-1.5h-2.8l-0.1-0.8l2.8-4.4h1.4V120.4z M154.1,120.4h1.5
	V118l-0.1,0.2L154.1,120.4z M158.7,119.6l0.4-3.4h3.8v1.1h-2.7l-0.2,1.5c0.3-0.2,0.7-0.3,1-0.3c0.6,0,1.1,0.2,1.5,0.6
	c0.4,0.4,0.5,1,0.5,1.7c0,0.4-0.1,0.8-0.3,1.2c-0.2,0.3-0.4,0.6-0.8,0.8c-0.3,0.2-0.7,0.3-1.2,0.3c-0.4,0-0.8-0.1-1.1-0.2
	c-0.3-0.2-0.6-0.4-0.8-0.7c-0.2-0.3-0.3-0.6-0.3-1h1.3c0,0.3,0.1,0.5,0.3,0.7c0.2,0.2,0.4,0.2,0.7,0.2c0.3,0,0.5-0.1,0.7-0.3
	c0.2-0.2,0.2-0.5,0.2-0.9c0-0.4-0.1-0.7-0.3-0.9c-0.2-0.2-0.5-0.3-0.8-0.3c-0.3,0-0.6,0.1-0.8,0.2l-0.1,0.1L158.7,119.6z
	 M164.3,124.6l-0.7-0.4l0.2-0.3c0.2-0.4,0.3-0.8,0.3-1.1v-1h1.1l0,0.9c0,0.3-0.1,0.7-0.3,1C164.8,124.1,164.6,124.4,164.3,124.6z
	 M170.2,120.4h0.8v1.1h-0.8v1.5h-1.3v-1.5h-2.8l-0.1-0.8l2.8-4.4h1.4V120.4z M167.4,120.4h1.5V118l-0.1,0.2L167.4,120.4z
	 M175.3,116.1v1.1h-0.1c-0.6,0-1.1,0.2-1.5,0.5c-0.4,0.3-0.6,0.7-0.7,1.3c0.4-0.4,0.8-0.5,1.4-0.5c0.6,0,1.1,0.2,1.4,0.6
	c0.3,0.4,0.5,1,0.5,1.7c0,0.4-0.1,0.8-0.3,1.2c-0.2,0.4-0.5,0.6-0.8,0.8c-0.3,0.2-0.7,0.3-1.2,0.3c-0.7,0-1.3-0.2-1.7-0.7
	c-0.4-0.5-0.7-1.2-0.7-2v-0.5c0-0.7,0.1-1.4,0.4-1.9c0.3-0.6,0.7-1,1.2-1.3c0.5-0.3,1.1-0.5,1.8-0.5H175.3z M174,119.5
	c-0.2,0-0.4,0.1-0.6,0.2c-0.2,0.1-0.3,0.3-0.4,0.4v0.4c0,0.4,0.1,0.8,0.3,1.1c0.2,0.3,0.4,0.4,0.7,0.4c0.3,0,0.5-0.1,0.7-0.3
	c0.2-0.2,0.3-0.5,0.3-0.9c0-0.4-0.1-0.7-0.3-0.9C174.6,119.6,174.3,119.5,174,119.5z M181.7,120.1c0,0.9-0.2,1.6-0.6,2.1
	c-0.4,0.5-1,0.7-1.7,0.7c-0.7,0-1.3-0.2-1.7-0.7c-0.4-0.5-0.6-1.2-0.6-2.1v-1.2c0-0.9,0.2-1.7,0.6-2.1c0.4-0.5,1-0.7,1.7-0.7
	c0.7,0,1.3,0.2,1.7,0.7c0.4,0.5,0.6,1.2,0.6,2.1V120.1z M180.3,118.8c0-0.6-0.1-1-0.2-1.2c-0.2-0.3-0.4-0.4-0.7-0.4
	c-0.3,0-0.5,0.1-0.7,0.4c-0.1,0.2-0.2,0.6-0.2,1.1v1.6c0,0.5,0.1,1,0.2,1.2c0.2,0.3,0.4,0.4,0.7,0.4c0.3,0,0.6-0.1,0.7-0.4
	c0.1-0.3,0.2-0.6,0.2-1.2V118.8z M182.7,122.2c0-0.2,0.1-0.4,0.2-0.5c0.1-0.1,0.3-0.2,0.5-0.2c0.2,0,0.4,0.1,0.5,0.2
	c0.1,0.1,0.2,0.3,0.2,0.5c0,0.2-0.1,0.4-0.2,0.5c-0.1,0.1-0.3,0.2-0.5,0.2c-0.2,0-0.4-0.1-0.5-0.2
	C182.8,122.6,182.7,122.5,182.7,122.2z M188.5,120.2c-0.3,0.3-0.8,0.5-1.2,0.5c-0.6,0-1.1-0.2-1.4-0.6c-0.4-0.4-0.5-1-0.5-1.7
	c0-0.4,0.1-0.8,0.3-1.2c0.2-0.4,0.5-0.7,0.8-0.9c0.3-0.2,0.7-0.3,1.2-0.3c0.4,0,0.8,0.1,1.2,0.3c0.3,0.2,0.6,0.5,0.8,1
	c0.2,0.4,0.3,0.9,0.3,1.4v0.5c0,1.1-0.3,2-0.8,2.7c-0.6,0.6-1.4,1-2.4,1l-0.3,0v-1.1l0.3,0C187.8,121.8,188.4,121.2,188.5,120.2z
	 M187.6,119.7c0.2,0,0.4-0.1,0.6-0.2c0.2-0.1,0.3-0.2,0.4-0.4v-0.6c0-0.5-0.1-0.8-0.3-1.1c-0.2-0.3-0.4-0.4-0.7-0.4
	c-0.3,0-0.5,0.1-0.7,0.4c-0.2,0.2-0.3,0.6-0.3,0.9c0,0.4,0.1,0.7,0.2,0.9C187,119.6,187.3,119.7,187.6,119.7z M194.8,120.4h0.8v1.1
	h-0.8v1.5h-1.3v-1.5h-2.8l-0.1-0.8l2.8-4.4h1.4V120.4z M191.9,120.4h1.5V118l-0.1,0.2L191.9,120.4z"/>
<circle class="st8" cx="78.3" cy="118.6" r="3.6"/>
<path d="M150.8,141.3c0-0.3-0.1-0.5-0.2-0.6c-0.1-0.2-0.4-0.3-0.7-0.4c-0.3-0.1-0.6-0.3-0.9-0.4c-0.2-0.1-0.5-0.3-0.6-0.4
	c-0.2-0.2-0.3-0.4-0.4-0.6c-0.1-0.2-0.1-0.5-0.1-0.8c0-0.5,0.2-1,0.5-1.3c0.3-0.3,0.8-0.5,1.3-0.6v-1h0.7v1c0.5,0.1,1,0.3,1.3,0.7
	c0.3,0.4,0.5,0.9,0.5,1.5h-1.3c0-0.4-0.1-0.6-0.2-0.8c-0.2-0.2-0.4-0.3-0.6-0.3c-0.3,0-0.4,0.1-0.6,0.2c-0.1,0.1-0.2,0.3-0.2,0.6
	c0,0.2,0.1,0.4,0.2,0.6s0.4,0.3,0.8,0.4c0.4,0.1,0.7,0.3,0.9,0.4c0.2,0.1,0.4,0.3,0.6,0.4c0.2,0.2,0.3,0.4,0.4,0.6
	c0.1,0.2,0.1,0.5,0.1,0.7c0,0.5-0.2,1-0.5,1.3c-0.3,0.3-0.8,0.5-1.4,0.6v0.9h-0.7v-0.9c-0.6-0.1-1.1-0.3-1.5-0.7
	c-0.3-0.4-0.5-0.9-0.5-1.5h1.3c0,0.4,0.1,0.7,0.3,0.8c0.2,0.2,0.4,0.3,0.8,0.3c0.3,0,0.5-0.1,0.6-0.2
	C150.7,141.7,150.8,141.5,150.8,141.3z M154.4,139.1h0.7c0.3,0,0.6-0.1,0.8-0.3c0.2-0.2,0.2-0.4,0.2-0.7c0-0.3-0.1-0.5-0.2-0.6
	c-0.2-0.2-0.4-0.2-0.7-0.2c-0.3,0-0.5,0.1-0.6,0.2c-0.2,0.1-0.3,0.3-0.3,0.5h-1.3c0-0.4,0.1-0.7,0.3-0.9c0.2-0.3,0.5-0.5,0.8-0.7
	c0.3-0.2,0.7-0.2,1.1-0.2c0.7,0,1.3,0.2,1.7,0.5c0.4,0.3,0.6,0.8,0.6,1.4c0,0.3-0.1,0.6-0.3,0.9c-0.2,0.3-0.4,0.5-0.7,0.6
	c0.4,0.1,0.7,0.3,0.8,0.6c0.2,0.3,0.3,0.6,0.3,1c0,0.6-0.2,1.1-0.7,1.4c-0.4,0.4-1,0.5-1.7,0.5c-0.7,0-1.2-0.2-1.7-0.5
	c-0.4-0.4-0.6-0.8-0.6-1.4h1.3c0,0.3,0.1,0.5,0.3,0.6c0.2,0.2,0.4,0.2,0.7,0.2c0.3,0,0.6-0.1,0.7-0.3c0.2-0.2,0.3-0.4,0.3-0.7
	c0-0.7-0.4-1-1.1-1h-0.7V139.1z M162.9,138.1c0,0.3-0.1,0.6-0.2,0.9c-0.2,0.3-0.4,0.5-0.7,0.6c0.3,0.2,0.6,0.4,0.8,0.7
	c0.2,0.3,0.3,0.6,0.3,1c0,0.6-0.2,1.1-0.6,1.4c-0.4,0.3-1,0.5-1.7,0.5c-0.7,0-1.3-0.2-1.7-0.5c-0.4-0.3-0.6-0.8-0.6-1.4
	c0-0.4,0.1-0.7,0.3-1c0.2-0.3,0.4-0.5,0.8-0.6c-0.3-0.2-0.5-0.4-0.7-0.6c-0.2-0.3-0.2-0.5-0.2-0.9c0-0.6,0.2-1,0.6-1.4
	c0.4-0.3,0.9-0.5,1.6-0.5c0.7,0,1.2,0.2,1.6,0.5C162.7,137.1,162.9,137.5,162.9,138.1z M161.7,141.1c0-0.3-0.1-0.5-0.3-0.7
	c-0.2-0.2-0.4-0.3-0.7-0.3c-0.3,0-0.5,0.1-0.7,0.3c-0.2,0.2-0.3,0.4-0.3,0.7c0,0.3,0.1,0.5,0.2,0.7c0.2,0.2,0.4,0.3,0.7,0.3
	c0.3,0,0.5-0.1,0.7-0.3C161.6,141.7,161.7,141.4,161.7,141.1z M161.5,138.2c0-0.3-0.1-0.5-0.2-0.6c-0.1-0.2-0.3-0.2-0.6-0.2
	c-0.2,0-0.4,0.1-0.6,0.2c-0.1,0.2-0.2,0.4-0.2,0.6c0,0.3,0.1,0.5,0.2,0.6c0.1,0.2,0.3,0.2,0.6,0.2c0.3,0,0.4-0.1,0.6-0.2
	C161.5,138.7,161.5,138.5,161.5,138.2z M164,142.4c0-0.2,0.1-0.4,0.2-0.5c0.1-0.1,0.3-0.2,0.5-0.2c0.2,0,0.4,0.1,0.5,0.2
	c0.1,0.1,0.2,0.3,0.2,0.5c0,0.2-0.1,0.4-0.2,0.5c-0.1,0.1-0.3,0.2-0.5,0.2c-0.2,0-0.4-0.1-0.5-0.2C164.1,142.8,164,142.6,164,142.4z
	 M167.1,144.8l-0.7-0.4l0.2-0.3c0.2-0.4,0.3-0.8,0.3-1.1v-1h1.1l0,0.9c0,0.3-0.1,0.7-0.3,1S167.3,144.5,167.1,144.8z M173,140.5h0.8
	v1.1H173v1.5h-1.3v-1.5h-2.8l-0.1-0.8l2.8-4.4h1.4V140.5z M170.1,140.5h1.5v-2.4l-0.1,0.2L170.1,140.5z M179,140.3
	c0,0.9-0.2,1.6-0.6,2.1c-0.4,0.5-1,0.7-1.7,0.7c-0.7,0-1.3-0.2-1.7-0.7c-0.4-0.5-0.6-1.2-0.6-2.1v-1.2c0-0.9,0.2-1.7,0.6-2.1
	c0.4-0.5,1-0.7,1.7-0.7s1.3,0.2,1.7,0.7c0.4,0.5,0.6,1.2,0.6,2.1V140.3z M177.6,138.9c0-0.6-0.1-1-0.2-1.2c-0.2-0.3-0.4-0.4-0.7-0.4
	c-0.3,0-0.5,0.1-0.7,0.4c-0.1,0.2-0.2,0.6-0.2,1.1v1.6c0,0.6,0.1,1,0.2,1.2c0.2,0.3,0.4,0.4,0.7,0.4c0.3,0,0.6-0.1,0.7-0.4
	c0.1-0.3,0.2-0.6,0.2-1.2V138.9z M184.4,140.3c0,0.9-0.2,1.6-0.6,2.1c-0.4,0.5-1,0.7-1.7,0.7c-0.7,0-1.3-0.2-1.7-0.7
	c-0.4-0.5-0.6-1.2-0.6-2.1v-1.2c0-0.9,0.2-1.7,0.6-2.1c0.4-0.5,1-0.7,1.7-0.7s1.3,0.2,1.7,0.7c0.4,0.5,0.6,1.2,0.6,2.1V140.3z
	 M183.1,138.9c0-0.6-0.1-1-0.2-1.2c-0.2-0.3-0.4-0.4-0.7-0.4c-0.3,0-0.5,0.1-0.7,0.4c-0.1,0.2-0.2,0.6-0.2,1.1v1.6
	c0,0.6,0.1,1,0.2,1.2c0.2,0.3,0.4,0.4,0.7,0.4c0.3,0,0.6-0.1,0.7-0.4c0.1-0.3,0.2-0.6,0.2-1.2V138.9z M185.5,142.4
	c0-0.2,0.1-0.4,0.2-0.5c0.1-0.1,0.3-0.2,0.5-0.2c0.2,0,0.4,0.1,0.5,0.2c0.1,0.1,0.2,0.3,0.2,0.5c0,0.2-0.1,0.4-0.2,0.5
	c-0.1,0.1-0.3,0.2-0.5,0.2c-0.2,0-0.4-0.1-0.5-0.2C185.5,142.8,185.5,142.6,185.5,142.4z M192.7,143.1h-4.6v-0.9l2.2-2.3
	c0.3-0.3,0.5-0.6,0.7-0.9c0.1-0.2,0.2-0.5,0.2-0.7c0-0.3-0.1-0.5-0.2-0.7c-0.2-0.2-0.4-0.3-0.6-0.3c-0.3,0-0.5,0.1-0.7,0.3
	c-0.2,0.2-0.3,0.5-0.3,0.8H188c0-0.4,0.1-0.8,0.3-1.1c0.2-0.3,0.5-0.6,0.8-0.8c0.4-0.2,0.8-0.3,1.2-0.3c0.7,0,1.2,0.2,1.6,0.5
	c0.4,0.3,0.6,0.8,0.6,1.4c0,0.3-0.1,0.7-0.3,1c-0.2,0.3-0.5,0.7-0.9,1.2l-1.5,1.6h2.9V143.1z M196.8,143.1h-1.3v-5.2l-1.6,0.5v-1.1
	l2.8-1h0.1V143.1z"/>
<path d="M88.6,143.1v-6.7h1.9c0.6,0,1.1,0.1,1.6,0.4c0.5,0.3,0.8,0.6,1,1.1c0.2,0.5,0.4,1,0.4,1.6v0.4c0,0.6-0.1,1.2-0.4,1.7
	c-0.2,0.5-0.6,0.8-1.1,1.1c-0.5,0.3-1,0.4-1.6,0.4H88.6z M89.5,137.1v5.3h0.9c0.7,0,1.2-0.2,1.6-0.6c0.4-0.4,0.6-1,0.6-1.8v-0.4
	c0-0.8-0.2-1.4-0.5-1.8c-0.4-0.4-0.9-0.6-1.5-0.6H89.5z M94.4,140.5c0-0.5,0.1-0.9,0.3-1.3c0.2-0.4,0.5-0.7,0.8-0.9
	c0.3-0.2,0.7-0.3,1.2-0.3c0.7,0,1.2,0.2,1.7,0.7c0.4,0.5,0.6,1.1,0.6,1.9v0.1c0,0.5-0.1,0.9-0.3,1.3c-0.2,0.4-0.5,0.7-0.8,0.9
	c-0.3,0.2-0.7,0.3-1.2,0.3c-0.7,0-1.2-0.2-1.7-0.7C94.7,142,94.4,141.4,94.4,140.5L94.4,140.5z M95.3,140.6c0,0.6,0.1,1,0.4,1.3
	c0.3,0.3,0.6,0.5,1,0.5c0.4,0,0.8-0.2,1-0.5c0.3-0.3,0.4-0.8,0.4-1.4c0-0.6-0.1-1-0.4-1.3c-0.3-0.3-0.6-0.5-1-0.5
	c-0.4,0-0.8,0.2-1,0.5C95.4,139.5,95.3,140,95.3,140.6z M99.9,140.5c0-0.5,0.1-0.9,0.3-1.3c0.2-0.4,0.5-0.7,0.8-0.9
	c0.3-0.2,0.7-0.3,1.2-0.3c0.7,0,1.2,0.2,1.7,0.7c0.4,0.5,0.6,1.1,0.6,1.9v0.1c0,0.5-0.1,0.9-0.3,1.3c-0.2,0.4-0.5,0.7-0.8,0.9
	c-0.3,0.2-0.7,0.3-1.2,0.3c-0.7,0-1.2-0.2-1.7-0.7C100.1,142,99.9,141.4,99.9,140.5L99.9,140.5z M100.7,140.6c0,0.6,0.1,1,0.4,1.3
	c0.3,0.3,0.6,0.5,1,0.5c0.4,0,0.8-0.2,1-0.5c0.3-0.3,0.4-0.8,0.4-1.4c0-0.6-0.1-1-0.4-1.3c-0.3-0.3-0.6-0.5-1-0.5
	c-0.4,0-0.8,0.2-1,0.5C100.8,139.5,100.7,140,100.7,140.6z M106.4,138.7c0.4-0.5,0.9-0.7,1.5-0.7c1.1,0,1.6,0.6,1.6,1.8v3.3h-0.9
	v-3.3c0-0.4-0.1-0.6-0.3-0.8c-0.2-0.2-0.4-0.3-0.8-0.3c-0.3,0-0.5,0.1-0.7,0.2c-0.2,0.1-0.4,0.3-0.5,0.6v3.6h-0.9V136h0.9V138.7z
	 M112,136.3l2.2,5.5l2.2-5.5h1.2v6.7h-0.9v-2.6l0.1-2.8l-2.2,5.5h-0.7l-2.2-5.4l0.1,2.8v2.6h-0.9v-6.7H112z M118.8,140.5
	c0-0.5,0.1-0.9,0.3-1.3c0.2-0.4,0.5-0.7,0.8-0.9c0.3-0.2,0.7-0.3,1.2-0.3c0.7,0,1.2,0.2,1.7,0.7c0.4,0.5,0.6,1.1,0.6,1.9v0.1
	c0,0.5-0.1,0.9-0.3,1.3c-0.2,0.4-0.5,0.7-0.8,0.9c-0.3,0.2-0.7,0.3-1.2,0.3c-0.7,0-1.2-0.2-1.7-0.7C119,142,118.8,141.4,118.8,140.5
	L118.8,140.5z M119.6,140.6c0,0.6,0.1,1,0.4,1.3c0.3,0.3,0.6,0.5,1,0.5c0.4,0,0.8-0.2,1-0.5c0.3-0.3,0.4-0.8,0.4-1.4
	c0-0.6-0.1-1-0.4-1.3c-0.3-0.3-0.6-0.5-1-0.5c-0.4,0-0.8,0.2-1,0.5C119.8,139.5,119.6,140,119.6,140.6z M126.8,138.8
	c-0.1,0-0.3,0-0.4,0c-0.6,0-0.9,0.2-1.1,0.7v3.6h-0.9v-5h0.8l0,0.6c0.3-0.4,0.7-0.7,1.2-0.7c0.2,0,0.3,0,0.4,0.1V138.8z
	 M129.6,143.2c-0.7,0-1.2-0.2-1.7-0.7c-0.4-0.4-0.6-1-0.6-1.8v-0.2c0-0.5,0.1-0.9,0.3-1.3c0.2-0.4,0.5-0.7,0.8-0.9
	c0.3-0.2,0.7-0.3,1.1-0.3c0.7,0,1.2,0.2,1.5,0.6c0.4,0.4,0.5,1,0.5,1.8v0.4h-3.4c0,0.5,0.2,0.9,0.4,1.2c0.3,0.3,0.6,0.5,1.1,0.5
	c0.3,0,0.6-0.1,0.8-0.2c0.2-0.1,0.4-0.3,0.6-0.5l0.5,0.4C131.1,142.8,130.5,143.2,129.6,143.2z M129.5,138.7c-0.3,0-0.6,0.1-0.9,0.4
	c-0.2,0.2-0.4,0.6-0.4,1.1h2.5V140c0-0.4-0.1-0.8-0.4-1C130.2,138.8,129.9,138.7,129.5,138.7z"/>
<circle class="st9" cx="78.3" cy="138.8" r="3.6"/>
<path d="M150.8,161.5c0-0.3-0.1-0.5-0.2-0.6c-0.1-0.2-0.4-0.3-0.7-0.4c-0.3-0.1-0.6-0.3-0.9-0.4c-0.2-0.1-0.5-0.3-0.6-0.4
	c-0.2-0.2-0.3-0.4-0.4-0.6c-0.1-0.2-0.1-0.5-0.1-0.8c0-0.5,0.2-1,0.5-1.3c0.3-0.3,0.8-0.5,1.3-0.6v-1h0.7v1c0.5,0.1,1,0.3,1.3,0.7
	c0.3,0.4,0.5,0.9,0.5,1.5h-1.3c0-0.4-0.1-0.6-0.2-0.8c-0.2-0.2-0.4-0.3-0.6-0.3c-0.3,0-0.4,0.1-0.6,0.2c-0.1,0.1-0.2,0.3-0.2,0.6
	c0,0.2,0.1,0.4,0.2,0.6c0.1,0.1,0.4,0.3,0.8,0.4c0.4,0.1,0.7,0.3,0.9,0.4c0.2,0.1,0.4,0.3,0.6,0.4c0.2,0.2,0.3,0.4,0.4,0.6
	c0.1,0.2,0.1,0.5,0.1,0.7c0,0.5-0.2,1-0.5,1.3c-0.3,0.3-0.8,0.5-1.4,0.6v0.9h-0.7v-0.9c-0.6-0.1-1.1-0.3-1.5-0.7
	c-0.3-0.4-0.5-0.9-0.5-1.5h1.3c0,0.4,0.1,0.7,0.3,0.8c0.2,0.2,0.4,0.3,0.8,0.3c0.3,0,0.5-0.1,0.6-0.2
	C150.7,161.9,150.8,161.7,150.8,161.5z M154.4,159.3h0.7c0.3,0,0.6-0.1,0.8-0.3c0.2-0.2,0.2-0.4,0.2-0.7c0-0.3-0.1-0.5-0.2-0.6
	c-0.2-0.2-0.4-0.2-0.7-0.2c-0.3,0-0.5,0.1-0.6,0.2c-0.2,0.1-0.3,0.3-0.3,0.5h-1.3c0-0.4,0.1-0.7,0.3-0.9c0.2-0.3,0.5-0.5,0.8-0.7
	c0.3-0.2,0.7-0.2,1.1-0.2c0.7,0,1.3,0.2,1.7,0.5c0.4,0.3,0.6,0.8,0.6,1.4c0,0.3-0.1,0.6-0.3,0.9c-0.2,0.3-0.4,0.5-0.7,0.6
	c0.4,0.1,0.7,0.3,0.8,0.6c0.2,0.3,0.3,0.6,0.3,1c0,0.6-0.2,1.1-0.7,1.4c-0.4,0.4-1,0.5-1.7,0.5c-0.7,0-1.2-0.2-1.7-0.5
	c-0.4-0.4-0.6-0.8-0.6-1.4h1.3c0,0.3,0.1,0.5,0.3,0.6c0.2,0.2,0.4,0.2,0.7,0.2c0.3,0,0.6-0.1,0.7-0.2c0.2-0.2,0.3-0.4,0.3-0.7
	c0-0.7-0.4-1-1.1-1h-0.7V159.3z M161.7,163.2h-1.3v-5.2l-1.6,0.5v-1.1l2.8-1h0.1V163.2z M164,162.6c0-0.2,0.1-0.4,0.2-0.5
	c0.1-0.1,0.3-0.2,0.5-0.2c0.2,0,0.4,0.1,0.5,0.2c0.1,0.1,0.2,0.3,0.2,0.5c0,0.2-0.1,0.4-0.2,0.5c-0.1,0.1-0.3,0.2-0.5,0.2
	c-0.2,0-0.4-0.1-0.5-0.2C164.1,163,164,162.8,164,162.6z M168,159.3h0.7c0.3,0,0.6-0.1,0.8-0.3c0.2-0.2,0.2-0.4,0.2-0.7
	c0-0.3-0.1-0.5-0.2-0.6c-0.2-0.2-0.4-0.2-0.7-0.2c-0.3,0-0.5,0.1-0.6,0.2c-0.2,0.1-0.3,0.3-0.3,0.5h-1.3c0-0.4,0.1-0.7,0.3-0.9
	c0.2-0.3,0.5-0.5,0.8-0.7c0.3-0.2,0.7-0.2,1.1-0.2c0.7,0,1.3,0.2,1.7,0.5c0.4,0.3,0.6,0.8,0.6,1.4c0,0.3-0.1,0.6-0.3,0.9
	c-0.2,0.3-0.4,0.5-0.7,0.6c0.4,0.1,0.7,0.3,0.8,0.6c0.2,0.3,0.3,0.6,0.3,1c0,0.6-0.2,1.1-0.7,1.4c-0.4,0.4-1,0.5-1.7,0.5
	c-0.7,0-1.2-0.2-1.7-0.5c-0.4-0.4-0.6-0.8-0.6-1.4h1.3c0,0.3,0.1,0.5,0.3,0.6c0.2,0.2,0.4,0.2,0.7,0.2c0.3,0,0.6-0.1,0.7-0.2
	c0.2-0.2,0.3-0.4,0.3-0.7c0-0.7-0.4-1-1.1-1H168V159.3z M176.7,160.4c0,0.9-0.2,1.6-0.6,2.1c-0.4,0.5-1,0.7-1.7,0.7
	c-0.7,0-1.3-0.2-1.7-0.7c-0.4-0.5-0.6-1.2-0.6-2.1v-1.2c0-0.9,0.2-1.7,0.6-2.1c0.4-0.5,1-0.7,1.7-0.7s1.3,0.2,1.7,0.7
	c0.4,0.5,0.6,1.2,0.6,2.1V160.4z M175.3,159.1c0-0.6-0.1-1-0.2-1.2c-0.2-0.3-0.4-0.4-0.7-0.4c-0.3,0-0.5,0.1-0.7,0.4
	c-0.1,0.2-0.2,0.6-0.2,1.1v1.6c0,0.5,0.1,1,0.2,1.2c0.2,0.3,0.4,0.4,0.7,0.4c0.3,0,0.6-0.1,0.7-0.4c0.1-0.3,0.2-0.6,0.2-1.2V159.1z
	 M182.1,160.4c0,0.9-0.2,1.6-0.6,2.1c-0.4,0.5-1,0.7-1.7,0.7c-0.7,0-1.3-0.2-1.7-0.7c-0.4-0.5-0.6-1.2-0.6-2.1v-1.2
	c0-0.9,0.2-1.7,0.6-2.1c0.4-0.5,1-0.7,1.7-0.7s1.3,0.2,1.7,0.7c0.4,0.5,0.6,1.2,0.6,2.1V160.4z M180.8,159.1c0-0.6-0.1-1-0.2-1.2
	c-0.2-0.3-0.4-0.4-0.7-0.4c-0.3,0-0.5,0.1-0.7,0.4c-0.1,0.2-0.2,0.6-0.2,1.1v1.6c0,0.5,0.1,1,0.2,1.2c0.2,0.3,0.4,0.4,0.7,0.4
	c0.3,0,0.6-0.1,0.7-0.4c0.1-0.3,0.2-0.6,0.2-1.2V159.1z M183.2,162.6c0-0.2,0.1-0.4,0.2-0.5c0.1-0.1,0.3-0.2,0.5-0.2
	c0.2,0,0.4,0.1,0.5,0.2c0.1,0.1,0.2,0.3,0.2,0.5c0,0.2-0.1,0.4-0.2,0.5c-0.1,0.1-0.3,0.2-0.5,0.2c-0.2,0-0.4-0.1-0.5-0.2
	C183.2,163,183.2,162.8,183.2,162.6z M186,159.9l0.4-3.4h3.8v1.1h-2.7l-0.2,1.5c0.3-0.2,0.7-0.3,1-0.3c0.6,0,1.1,0.2,1.5,0.6
	c0.4,0.4,0.5,1,0.5,1.7c0,0.4-0.1,0.8-0.3,1.2c-0.2,0.3-0.4,0.6-0.8,0.8c-0.3,0.2-0.7,0.3-1.2,0.3c-0.4,0-0.8-0.1-1.1-0.2
	c-0.3-0.2-0.6-0.4-0.8-0.7c-0.2-0.3-0.3-0.6-0.3-1h1.3c0,0.3,0.1,0.5,0.3,0.7c0.2,0.2,0.4,0.2,0.7,0.2c0.3,0,0.5-0.1,0.7-0.3
	c0.2-0.2,0.2-0.5,0.2-0.9c0-0.4-0.1-0.7-0.3-0.9c-0.2-0.2-0.5-0.3-0.8-0.3c-0.3,0-0.6,0.1-0.8,0.3l-0.1,0.1L186,159.9z M195.6,158.3
	c0,0.3-0.1,0.6-0.2,0.9c-0.2,0.3-0.4,0.5-0.7,0.6c0.3,0.2,0.6,0.4,0.8,0.7c0.2,0.3,0.3,0.6,0.3,1c0,0.6-0.2,1.1-0.6,1.4
	c-0.4,0.3-1,0.5-1.7,0.5c-0.7,0-1.3-0.2-1.7-0.5c-0.4-0.3-0.6-0.8-0.6-1.4c0-0.4,0.1-0.7,0.3-1c0.2-0.3,0.4-0.5,0.8-0.6
	c-0.3-0.2-0.5-0.4-0.7-0.6c-0.2-0.3-0.2-0.5-0.2-0.9c0-0.6,0.2-1,0.6-1.4c0.4-0.3,0.9-0.5,1.6-0.5c0.7,0,1.2,0.2,1.6,0.5
	C195.4,157.2,195.6,157.7,195.6,158.3z M194.4,161.3c0-0.3-0.1-0.5-0.3-0.7c-0.2-0.2-0.4-0.3-0.7-0.3c-0.3,0-0.5,0.1-0.7,0.3
	c-0.2,0.2-0.3,0.4-0.3,0.7c0,0.3,0.1,0.5,0.2,0.7c0.2,0.2,0.4,0.3,0.7,0.3c0.3,0,0.5-0.1,0.7-0.3
	C194.4,161.8,194.4,161.6,194.4,161.3z M194.3,158.4c0-0.3-0.1-0.5-0.2-0.6c-0.1-0.2-0.3-0.2-0.6-0.2c-0.3,0-0.4,0.1-0.6,0.2
	c-0.1,0.2-0.2,0.4-0.2,0.6c0,0.3,0.1,0.5,0.2,0.6c0.1,0.2,0.3,0.2,0.6,0.2c0.3,0,0.4-0.1,0.6-0.2
	C194.2,158.8,194.3,158.6,194.3,158.4z"/>
<path d="M89.2,162.5h3.9v0.7h-4.9v-0.7l3.7-5.3h-3.6v-0.7H93v0.7L89.2,162.5z M93.8,160.7c0-0.5,0.1-0.9,0.3-1.3
	c0.2-0.4,0.5-0.7,0.8-0.9c0.3-0.2,0.7-0.3,1.2-0.3c0.7,0,1.2,0.2,1.7,0.7c0.4,0.5,0.6,1.1,0.6,1.9v0.1c0,0.5-0.1,0.9-0.3,1.3
	c-0.2,0.4-0.5,0.7-0.8,0.9c-0.3,0.2-0.7,0.3-1.2,0.3c-0.7,0-1.2-0.2-1.7-0.7C94,162.2,93.8,161.5,93.8,160.7L93.8,160.7z
	 M94.7,160.8c0,0.6,0.1,1,0.4,1.3c0.3,0.3,0.6,0.5,1,0.5c0.4,0,0.8-0.2,1-0.5c0.3-0.3,0.4-0.8,0.4-1.4c0-0.6-0.1-1-0.4-1.3
	c-0.3-0.3-0.6-0.5-1-0.5c-0.4,0-0.8,0.2-1,0.5C94.8,159.7,94.7,160.2,94.7,160.8z M99.2,160.7c0-0.5,0.1-0.9,0.3-1.3
	c0.2-0.4,0.5-0.7,0.8-0.9c0.3-0.2,0.7-0.3,1.2-0.3c0.7,0,1.2,0.2,1.7,0.7c0.4,0.5,0.6,1.1,0.6,1.9v0.1c0,0.5-0.1,0.9-0.3,1.3
	c-0.2,0.4-0.5,0.7-0.8,0.9c-0.3,0.2-0.7,0.3-1.2,0.3c-0.7,0-1.2-0.2-1.7-0.7C99.4,162.2,99.2,161.5,99.2,160.7L99.2,160.7z
	 M100.1,160.8c0,0.6,0.1,1,0.4,1.3c0.3,0.3,0.6,0.5,1,0.5c0.4,0,0.8-0.2,1-0.5c0.3-0.3,0.4-0.8,0.4-1.4c0-0.6-0.1-1-0.4-1.3
	c-0.3-0.3-0.6-0.5-1-0.5c-0.4,0-0.8,0.2-1,0.5C100.2,159.7,100.1,160.2,100.1,160.8z M105.7,158.2l0,0.6c0.4-0.4,0.9-0.6,1.5-0.6
	c0.7,0,1.2,0.3,1.4,0.8c0.2-0.2,0.4-0.4,0.6-0.6c0.3-0.1,0.6-0.2,1-0.2c1.1,0,1.7,0.6,1.7,1.7v3.4H111v-3.3c0-0.4-0.1-0.6-0.2-0.8
	c-0.2-0.2-0.4-0.3-0.8-0.3c-0.3,0-0.6,0.1-0.8,0.3c-0.2,0.2-0.3,0.4-0.4,0.8v3.3h-0.9V160c0-0.7-0.4-1.1-1.1-1.1
	c-0.6,0-0.9,0.2-1.2,0.7v3.7h-0.9v-5H105.7z M113.3,163.2v-6.7h1.9c0.6,0,1.1,0.1,1.6,0.4c0.5,0.3,0.8,0.6,1,1.1
	c0.2,0.5,0.4,1,0.4,1.6v0.4c0,0.6-0.1,1.2-0.4,1.7c-0.2,0.5-0.6,0.8-1.1,1.1c-0.5,0.3-1,0.4-1.6,0.4H113.3z M114.2,157.2v5.3h0.9
	c0.7,0,1.2-0.2,1.6-0.6c0.4-0.4,0.6-1,0.6-1.8v-0.4c0-0.8-0.2-1.4-0.5-1.8c-0.4-0.4-0.9-0.6-1.5-0.6H114.2z M119.2,160.7
	c0-0.5,0.1-0.9,0.3-1.3c0.2-0.4,0.5-0.7,0.8-0.9c0.3-0.2,0.7-0.3,1.2-0.3c0.7,0,1.2,0.2,1.7,0.7c0.4,0.5,0.6,1.1,0.6,1.9v0.1
	c0,0.5-0.1,0.9-0.3,1.3c-0.2,0.4-0.5,0.7-0.8,0.9c-0.3,0.2-0.7,0.3-1.2,0.3c-0.7,0-1.2-0.2-1.7-0.7
	C119.4,162.2,119.2,161.5,119.2,160.7L119.2,160.7z M120,160.8c0,0.6,0.1,1,0.4,1.3c0.3,0.3,0.6,0.5,1,0.5c0.4,0,0.8-0.2,1-0.5
	c0.3-0.3,0.4-0.8,0.4-1.4c0-0.6-0.1-1-0.4-1.3c-0.3-0.3-0.6-0.5-1-0.5c-0.4,0-0.8,0.2-1,0.5C120.2,159.7,120,160.2,120,160.8z
	 M124.6,160.7c0-0.5,0.1-0.9,0.3-1.3c0.2-0.4,0.5-0.7,0.8-0.9c0.3-0.2,0.7-0.3,1.2-0.3c0.7,0,1.2,0.2,1.7,0.7
	c0.4,0.5,0.6,1.1,0.6,1.9v0.1c0,0.5-0.1,0.9-0.3,1.3c-0.2,0.4-0.5,0.7-0.8,0.9c-0.3,0.2-0.7,0.3-1.2,0.3c-0.7,0-1.2-0.2-1.7-0.7
	C124.8,162.2,124.6,161.5,124.6,160.7L124.6,160.7z M125.4,160.8c0,0.6,0.1,1,0.4,1.3c0.3,0.3,0.6,0.5,1,0.5c0.4,0,0.8-0.2,1-0.5
	c0.3-0.3,0.4-0.8,0.4-1.4c0-0.6-0.1-1-0.4-1.3c-0.3-0.3-0.6-0.5-1-0.5c-0.4,0-0.8,0.2-1,0.5C125.6,159.7,125.4,160.2,125.4,160.8z
	 M131.1,158.8c0.4-0.5,0.9-0.7,1.5-0.7c1.1,0,1.6,0.6,1.6,1.8v3.3h-0.9v-3.3c0-0.4-0.1-0.6-0.2-0.8c-0.2-0.2-0.4-0.3-0.8-0.3
	c-0.3,0-0.5,0.1-0.7,0.2c-0.2,0.1-0.4,0.3-0.5,0.6v3.6h-0.9v-7.1h0.9V158.8z"/>
<circle class="st10" cx="78.3" cy="159" r="3.6"/>
<path d="M300.5,95.7h-2.1v5.8h-1.2v-5.8h-2.1v-0.9h5.4V95.7z M300.1,99c0-0.5,0.1-0.9,0.3-1.3c0.2-0.4,0.5-0.7,0.8-0.9
	c0.4-0.2,0.8-0.3,1.2-0.3c0.7,0,1.2,0.2,1.6,0.7c0.4,0.4,0.7,1,0.7,1.7l0,0.3c0,0.5-0.1,0.9-0.3,1.3c-0.2,0.4-0.5,0.7-0.8,0.9
	c-0.4,0.2-0.8,0.3-1.2,0.3c-0.7,0-1.3-0.2-1.7-0.7C300.3,100.5,300.1,99.8,300.1,99L300.1,99z M301.2,99.1c0,0.5,0.1,0.9,0.3,1.2
	c0.2,0.3,0.5,0.4,0.9,0.4s0.7-0.1,0.9-0.4c0.2-0.3,0.3-0.7,0.3-1.3c0-0.5-0.1-0.9-0.3-1.2c-0.2-0.3-0.5-0.4-0.9-0.4
	c-0.4,0-0.7,0.1-0.9,0.4C301.4,98.1,301.2,98.5,301.2,99.1z M307.1,95.3v1.2h0.9v0.8h-0.9v2.8c0,0.2,0,0.3,0.1,0.4
	c0.1,0.1,0.2,0.1,0.4,0.1c0.1,0,0.3,0,0.4,0v0.9c-0.3,0.1-0.5,0.1-0.7,0.1c-0.9,0-1.3-0.5-1.3-1.4v-2.8h-0.8v-0.8h0.8v-1.2H307.1z
	 M311.9,101.5c0-0.1-0.1-0.3-0.1-0.5c-0.4,0.4-0.8,0.6-1.3,0.6c-0.5,0-0.9-0.1-1.2-0.4c-0.3-0.3-0.5-0.6-0.5-1.1
	c0-0.5,0.2-0.9,0.6-1.2c0.4-0.3,1-0.4,1.7-0.4h0.7v-0.3c0-0.3-0.1-0.5-0.2-0.6c-0.1-0.2-0.4-0.2-0.7-0.2c-0.3,0-0.5,0.1-0.6,0.2
	c-0.2,0.1-0.2,0.3-0.2,0.5h-1.1c0-0.3,0.1-0.5,0.3-0.8c0.2-0.2,0.4-0.4,0.7-0.6c0.3-0.1,0.7-0.2,1.1-0.2c0.6,0,1.1,0.1,1.4,0.4
	c0.3,0.3,0.5,0.7,0.5,1.2v2.3c0,0.5,0.1,0.8,0.2,1.1v0.1H311.9z M310.7,100.7c0.2,0,0.4-0.1,0.6-0.2c0.2-0.1,0.3-0.3,0.4-0.4v-0.9
	h-0.6c-0.4,0-0.7,0.1-0.9,0.2c-0.2,0.1-0.3,0.4-0.3,0.6c0,0.2,0.1,0.4,0.2,0.5C310.2,100.7,310.4,100.7,310.7,100.7z M315.2,101.5
	h-1.1v-7.1h1.1V101.5z M317.1,100.4c0.2,0,0.4,0.1,0.5,0.2c0.1,0.1,0.2,0.3,0.2,0.4c0,0.2-0.1,0.3-0.2,0.4c-0.1,0.1-0.3,0.2-0.5,0.2
	c-0.2,0-0.4-0.1-0.5-0.2c-0.1-0.1-0.2-0.3-0.2-0.4c0-0.2,0.1-0.3,0.2-0.4C316.8,100.4,316.9,100.4,317.1,100.4z M317.1,96.4
	c0.2,0,0.4,0.1,0.5,0.2c0.1,0.1,0.2,0.3,0.2,0.4c0,0.2-0.1,0.3-0.2,0.4c-0.1,0.1-0.3,0.2-0.5,0.2c-0.2,0-0.4-0.1-0.5-0.2
	c-0.1-0.1-0.2-0.3-0.2-0.4s0.1-0.3,0.2-0.4C316.8,96.5,316.9,96.4,317.1,96.4z"/>
<path class="st5" d="M275.3,117.5c0-0.4-0.1-0.7-0.3-0.9c-0.2-0.2-0.6-0.5-1.1-0.6c-0.5-0.2-1-0.4-1.2-0.5c-1-0.5-1.5-1.3-1.5-2.4
	c0-0.7,0.2-1.3,0.6-1.7c0.4-0.5,1-0.7,1.7-0.8v-1.4h1v1.4c0.7,0.1,1.3,0.4,1.7,0.9c0.4,0.5,0.6,1.2,0.6,2h-1.5c0-0.5-0.1-1-0.4-1.3
	c-0.2-0.3-0.6-0.5-1-0.5c-0.4,0-0.7,0.1-1,0.3c-0.2,0.2-0.3,0.5-0.3,0.9c0,0.4,0.1,0.7,0.3,0.9c0.2,0.2,0.6,0.4,1.2,0.6
	c0.5,0.2,1,0.4,1.3,0.6c0.3,0.2,0.6,0.4,0.8,0.6c0.2,0.2,0.4,0.5,0.5,0.8c0.1,0.3,0.2,0.6,0.2,1c0,0.7-0.2,1.3-0.7,1.7
	c-0.4,0.4-1,0.7-1.8,0.8v1.2h-1v-1.2c-0.8-0.1-1.5-0.4-1.9-0.9c-0.4-0.5-0.7-1.2-0.7-2h1.5c0,0.5,0.1,0.9,0.4,1.2
	c0.3,0.3,0.7,0.4,1.1,0.4c0.5,0,0.9-0.1,1.1-0.3C275.1,118.2,275.3,117.9,275.3,117.5z M282.3,120h-1.5v-7.4l-2.3,0.8V112l3.6-1.3
	h0.2V120z M289.8,120h-1.5v-7.4l-2.3,0.8V112l3.6-1.3h0.2V120z M293.4,115.4l0.5-4.7h5v1.3h-3.7l-0.3,2.2c0.4-0.2,0.9-0.4,1.5-0.4
	c0.9,0,1.6,0.3,2.1,0.8c0.5,0.6,0.7,1.3,0.7,2.3c0,0.9-0.3,1.7-0.8,2.3c-0.5,0.6-1.3,0.8-2.2,0.8c-0.9,0-1.6-0.2-2.1-0.7
	c-0.6-0.5-0.9-1.1-0.9-1.9h1.5c0.1,0.4,0.2,0.8,0.5,1c0.3,0.2,0.6,0.4,1,0.4c0.5,0,0.8-0.2,1.1-0.5c0.3-0.3,0.4-0.8,0.4-1.4
	c0-0.6-0.1-1-0.4-1.3c-0.3-0.3-0.7-0.5-1.2-0.5c-0.3,0-0.5,0-0.7,0.1c-0.2,0.1-0.4,0.2-0.6,0.4L293.4,115.4z M300.7,122.1l-0.8-0.5
	c0.2-0.4,0.4-0.7,0.5-1c0.1-0.3,0.1-0.6,0.1-0.9v-1.2h1.4l0,1.1c0,0.4-0.1,0.9-0.3,1.3C301.4,121.4,301.1,121.8,300.7,122.1z
	 M307.5,120h-1.5v-7.4l-2.3,0.8V112l3.6-1.3h0.2V120z M315.5,110.6v1.3h-0.2c-0.9,0-1.6,0.3-2.1,0.7c-0.5,0.5-0.8,1.1-0.9,2
	c0.5-0.5,1.1-0.8,1.9-0.8c0.8,0,1.5,0.3,1.9,0.9c0.5,0.6,0.7,1.3,0.7,2.2c0,0.9-0.3,1.7-0.8,2.3c-0.6,0.6-1.3,0.9-2.2,0.9
	c-0.9,0-1.7-0.3-2.3-1c-0.6-0.7-0.9-1.6-0.9-2.7v-0.5c0-1.6,0.4-2.9,1.2-3.8c0.8-0.9,1.9-1.4,3.4-1.4H315.5z M313.8,115.1
	c-0.3,0-0.7,0.1-0.9,0.3c-0.3,0.2-0.5,0.4-0.6,0.8v0.5c0,0.7,0.1,1.2,0.4,1.6c0.3,0.4,0.7,0.6,1.1,0.6c0.5,0,0.8-0.2,1.1-0.5
	c0.3-0.3,0.4-0.8,0.4-1.4c0-0.6-0.1-1-0.4-1.4C314.7,115.2,314.3,115.1,313.8,115.1z M322.3,120h-1.5v-7.4l-2.3,0.8V112l3.6-1.3h0.2
	V120z M326.6,118.3c0.3,0,0.5,0.1,0.7,0.2c0.2,0.2,0.2,0.4,0.2,0.6c0,0.2-0.1,0.4-0.2,0.6c-0.2,0.2-0.4,0.2-0.7,0.2
	c-0.3,0-0.5-0.1-0.7-0.2c-0.2-0.2-0.2-0.4-0.2-0.6c0-0.2,0.1-0.5,0.2-0.6C326.1,118.4,326.3,118.3,326.6,118.3z M335.3,111.5
	l-3.7,8.4H330l3.7-8h-4.8v-1.2h6.4V111.5z M338.4,114.6h0.9c0.5,0,0.9-0.1,1.1-0.4c0.3-0.2,0.4-0.6,0.4-1.1c0-0.4-0.1-0.8-0.4-1
	c-0.2-0.2-0.6-0.4-1.1-0.4c-0.4,0-0.8,0.1-1,0.4c-0.3,0.2-0.4,0.5-0.4,0.9h-1.5c0-0.5,0.1-0.9,0.4-1.3c0.3-0.4,0.6-0.7,1.1-0.9
	c0.5-0.2,1-0.3,1.5-0.3c0.9,0,1.7,0.2,2.2,0.7c0.5,0.5,0.8,1.1,0.8,1.9c0,0.4-0.1,0.8-0.4,1.2c-0.3,0.4-0.6,0.6-1,0.8
	c0.5,0.2,0.9,0.4,1.2,0.8c0.3,0.4,0.4,0.8,0.4,1.3c0,0.8-0.3,1.5-0.9,2c-0.6,0.5-1.3,0.7-2.2,0.7c-0.9,0-1.6-0.2-2.2-0.7
	c-0.6-0.5-0.9-1.1-0.9-1.9h1.5c0,0.4,0.1,0.7,0.4,1c0.3,0.3,0.6,0.4,1.1,0.4c0.5,0,0.9-0.1,1.1-0.4s0.4-0.6,0.4-1.1
	c0-0.5-0.1-0.9-0.4-1.1c-0.3-0.3-0.7-0.4-1.3-0.4h-0.9V114.6z"/>
<circle class="st11" cx="307.3" cy="108" r="63.5"/>
<defs>
	<filter id="Adobe_OpacityMaskFilter" filterUnits="userSpaceOnUse" x="179.7" y="4.2" width="229" height="200.5">
		<feColorMatrix  type="matrix" values="1 0 0 0 0  0 1 0 0 0  0 0 1 0 0  0 0 0 1 0"/>
	</filter>
</defs>
<mask maskUnits="userSpaceOnUse" x="179.7" y="4.2" width="229" height="200.5" id="mask0_1_">
	<circle class="st12" cx="307.3" cy="108" r="63.5"/>
</mask>
<g class="st13">
	<path class="st9" d="M306.7,121V4.2L179.7,121H306.7z"/>
	<path class="st8" d="M408.7,108H205.2v5.3l19,84.8l144.1,6.5L408.7,108z"/>
</g>
<line class="st14" x1="306.7" y1="32" x2="306.7" y2="56.9"/>
<line class="st14" x1="231.3" y1="107.4" x2="383.2" y2="107.4"/>
<rect x="72.9" y="71.7" class="st4" width="44.3" height="17.9"/>
<rect x="116.7" y="71.2" class="st5" width="45.4" height="19"/>
<rect x="161.6" y="71.7" class="st4" width="44.3" height="17.9"/>
<path class="st6" d="M78.1,83.8h2.8v0.6h-3.6v-6h0.8V83.8z M84.5,84.5c0-0.1-0.1-0.2-0.1-0.5c-0.4,0.4-0.8,0.6-1.3,0.6
	c-0.4,0-0.8-0.1-1.1-0.4c-0.3-0.3-0.4-0.6-0.4-0.9c0-0.5,0.2-0.8,0.5-1.1c0.4-0.3,0.9-0.4,1.5-0.4h0.7v-0.4c0-0.3-0.1-0.5-0.2-0.6
	c-0.2-0.2-0.4-0.2-0.7-0.2c-0.3,0-0.5,0.1-0.7,0.2c-0.2,0.1-0.3,0.3-0.3,0.5h-0.8c0-0.2,0.1-0.4,0.2-0.6c0.2-0.2,0.4-0.4,0.6-0.5
	c0.3-0.1,0.6-0.2,0.9-0.2c0.5,0,0.9,0.1,1.2,0.4c0.3,0.3,0.4,0.6,0.5,1.1v2.1c0,0.4,0.1,0.7,0.2,1v0.1H84.5z M83.2,83.9
	c0.2,0,0.5-0.1,0.7-0.2c0.2-0.1,0.4-0.3,0.5-0.5v-0.9h-0.6c-0.9,0-1.4,0.3-1.4,0.8c0,0.2,0.1,0.4,0.2,0.6
	C82.7,83.8,82.9,83.9,83.2,83.9z M88.9,83.3c0-0.2-0.1-0.4-0.2-0.5c-0.2-0.1-0.4-0.2-0.8-0.3c-0.4-0.1-0.7-0.2-0.9-0.3
	c-0.2-0.1-0.4-0.3-0.5-0.4c-0.1-0.2-0.2-0.3-0.2-0.6c0-0.4,0.2-0.7,0.5-0.9c0.3-0.3,0.7-0.4,1.2-0.4c0.5,0,0.9,0.1,1.2,0.4
	c0.3,0.3,0.5,0.6,0.5,1h-0.8c0-0.2-0.1-0.4-0.3-0.5c-0.2-0.2-0.4-0.2-0.7-0.2c-0.3,0-0.5,0.1-0.7,0.2C87.1,80.8,87,81,87,81.2
	c0,0.2,0.1,0.3,0.2,0.4c0.1,0.1,0.4,0.2,0.8,0.3c0.4,0.1,0.7,0.2,0.9,0.3c0.2,0.1,0.4,0.3,0.5,0.4c0.1,0.2,0.2,0.4,0.2,0.6
	c0,0.4-0.2,0.7-0.5,1c-0.3,0.2-0.7,0.4-1.2,0.4c-0.4,0-0.7-0.1-0.9-0.2c-0.3-0.1-0.5-0.3-0.6-0.5c-0.2-0.2-0.2-0.5-0.2-0.7h0.8
	c0,0.3,0.1,0.5,0.3,0.6c0.2,0.1,0.4,0.2,0.8,0.2c0.3,0,0.5-0.1,0.7-0.2C88.8,83.6,88.9,83.5,88.9,83.3z M91.7,78.9V80h0.8v0.6h-0.8
	v2.8c0,0.2,0,0.3,0.1,0.4c0.1,0.1,0.2,0.1,0.4,0.1c0.1,0,0.2,0,0.4,0v0.6c-0.2,0.1-0.4,0.1-0.6,0.1c-0.3,0-0.6-0.1-0.8-0.3
	c-0.2-0.2-0.3-0.5-0.3-0.9v-2.8h-0.8V80h0.8v-1.1H91.7z M100.2,84.5h-0.8v-2.8h-3v2.8h-0.8v-6h0.8V81h3v-2.6h0.8V84.5z M101.3,82.2
	c0-0.4,0.1-0.8,0.3-1.2c0.2-0.3,0.4-0.6,0.7-0.8c0.3-0.2,0.7-0.3,1.1-0.3c0.6,0,1.1,0.2,1.5,0.6c0.4,0.4,0.6,1,0.6,1.7v0.1
	c0,0.4-0.1,0.8-0.3,1.2c-0.2,0.3-0.4,0.6-0.7,0.8c-0.3,0.2-0.7,0.3-1.1,0.3c-0.6,0-1.1-0.2-1.5-0.6
	C101.5,83.5,101.3,82.9,101.3,82.2L101.3,82.2z M102.1,82.3c0,0.5,0.1,0.9,0.3,1.2c0.2,0.3,0.5,0.4,0.9,0.4c0.4,0,0.7-0.2,0.9-0.5
	c0.2-0.3,0.3-0.7,0.3-1.3c0-0.5-0.1-0.9-0.4-1.2c-0.2-0.3-0.5-0.5-0.9-0.5c-0.4,0-0.7,0.1-0.9,0.4C102.2,81.3,102.1,81.7,102.1,82.3
	z M109.1,84c-0.3,0.3-0.7,0.5-1.3,0.5c-0.5,0-0.8-0.1-1.1-0.4c-0.2-0.3-0.4-0.7-0.4-1.2V80h0.8v2.9c0,0.7,0.3,1,0.8,1
	c0.6,0,1-0.2,1.2-0.7V80h0.8v4.5h-0.7L109.1,84z M113.2,80.7c-0.1,0-0.2,0-0.4,0c-0.5,0-0.8,0.2-1,0.6v3.2H111V80h0.7l0,0.5
	c0.2-0.4,0.6-0.6,1.1-0.6c0.1,0,0.3,0,0.3,0.1V80.7z"/>
<path class="st7" d="M125.7,83.6h2.7v0.8h-3.8v-6h1V83.6z M131.8,84.5c0-0.1-0.1-0.2-0.1-0.4c-0.3,0.3-0.7,0.5-1.2,0.5
	c-0.4,0-0.8-0.1-1.1-0.4c-0.3-0.3-0.4-0.6-0.4-0.9c0-0.5,0.2-0.8,0.5-1.1c0.4-0.3,0.9-0.4,1.5-0.4h0.6v-0.3c0-0.2-0.1-0.4-0.2-0.6
	c-0.1-0.1-0.3-0.2-0.6-0.2c-0.2,0-0.4,0.1-0.6,0.2c-0.1,0.1-0.2,0.3-0.2,0.4h-1c0-0.2,0.1-0.5,0.2-0.7c0.2-0.2,0.4-0.4,0.7-0.5
	c0.3-0.1,0.6-0.2,0.9-0.2c0.5,0,0.9,0.1,1.2,0.4c0.3,0.3,0.5,0.6,0.5,1.1v2c0,0.4,0.1,0.7,0.2,1v0.1H131.8z M130.7,83.7
	c0.2,0,0.4,0,0.6-0.1c0.2-0.1,0.3-0.2,0.4-0.4v-0.8h-0.5c-0.4,0-0.7,0.1-0.8,0.2c-0.2,0.1-0.3,0.3-0.3,0.5c0,0.2,0.1,0.3,0.2,0.5
	C130.4,83.7,130.5,83.7,130.7,83.7z M136.2,83.2c0-0.2-0.1-0.3-0.2-0.4c-0.1-0.1-0.4-0.2-0.7-0.2c-0.3-0.1-0.6-0.2-0.9-0.3
	c-0.5-0.2-0.8-0.6-0.8-1.1c0-0.4,0.2-0.7,0.5-1c0.3-0.3,0.7-0.4,1.2-0.4c0.5,0,1,0.1,1.3,0.4c0.3,0.3,0.5,0.6,0.5,1h-1
	c0-0.2-0.1-0.4-0.2-0.5c-0.1-0.1-0.3-0.2-0.6-0.2c-0.2,0-0.4,0.1-0.5,0.2c-0.1,0.1-0.2,0.2-0.2,0.4c0,0.2,0.1,0.3,0.2,0.4
	c0.1,0.1,0.4,0.2,0.8,0.3c0.4,0.1,0.7,0.2,0.9,0.3c0.2,0.1,0.4,0.3,0.5,0.4c0.1,0.2,0.2,0.4,0.2,0.6c0,0.4-0.2,0.7-0.5,1
	c-0.3,0.2-0.8,0.4-1.3,0.4c-0.4,0-0.7-0.1-1-0.2c-0.3-0.1-0.5-0.3-0.7-0.5c-0.2-0.2-0.2-0.5-0.2-0.7h1c0,0.2,0.1,0.4,0.3,0.5
	c0.2,0.1,0.4,0.2,0.7,0.2c0.3,0,0.5,0,0.6-0.1C136.2,83.5,136.2,83.4,136.2,83.2z M139.4,78.9V80h0.8v0.7h-0.8v2.5
	c0,0.2,0,0.3,0.1,0.4c0.1,0.1,0.2,0.1,0.4,0.1c0.1,0,0.2,0,0.4,0v0.8c-0.2,0.1-0.4,0.1-0.7,0.1c-0.8,0-1.2-0.4-1.2-1.3v-2.5h-0.7V80
	h0.7v-1.1H139.4z M147,84.5h-4v-0.7l2-2.2c0.3-0.3,0.5-0.6,0.6-0.8c0.1-0.2,0.2-0.4,0.2-0.7c0-0.3-0.1-0.5-0.2-0.7
	c-0.2-0.2-0.4-0.3-0.6-0.3c-0.3,0-0.6,0.1-0.8,0.3c-0.2,0.2-0.3,0.5-0.3,0.8h-1c0-0.4,0.1-0.7,0.2-1c0.2-0.3,0.4-0.5,0.7-0.7
	c0.3-0.2,0.7-0.2,1.1-0.2c0.6,0,1,0.1,1.4,0.4c0.3,0.3,0.5,0.7,0.5,1.2c0,0.3-0.1,0.6-0.3,0.9c-0.2,0.3-0.4,0.7-0.8,1.1l-1.5,1.6
	h2.8V84.5z M151.1,82.3h0.7v0.8h-0.7v1.3h-1v-1.3h-2.6l0-0.6l2.6-4.1h1V82.3z M148.6,82.3h1.6v-2.5l-0.1,0.1L148.6,82.3z
	 M153.6,80.5c0.3-0.4,0.7-0.6,1.2-0.6c1,0,1.4,0.5,1.4,1.6v2.9h-1v-2.9c0-0.3-0.1-0.5-0.2-0.7c-0.1-0.1-0.3-0.2-0.6-0.2
	c-0.4,0-0.7,0.2-0.9,0.5v3.2h-1v-6.3h1V80.5z"/>
<path class="st6" d="M166.8,83.8h2.8v0.6H166v-6h0.8V83.8z M173.1,84.5c0-0.1-0.1-0.2-0.1-0.5c-0.4,0.4-0.8,0.6-1.3,0.6
	c-0.4,0-0.8-0.1-1.1-0.4c-0.3-0.3-0.4-0.6-0.4-0.9c0-0.5,0.2-0.8,0.5-1.1c0.4-0.3,0.9-0.4,1.5-0.4h0.7v-0.4c0-0.3-0.1-0.5-0.2-0.6
	c-0.2-0.2-0.4-0.2-0.7-0.2c-0.3,0-0.5,0.1-0.7,0.2c-0.2,0.1-0.3,0.3-0.3,0.5h-0.8c0-0.2,0.1-0.4,0.2-0.6c0.2-0.2,0.4-0.4,0.6-0.5
	c0.3-0.1,0.6-0.2,0.9-0.2c0.5,0,0.9,0.1,1.2,0.4c0.3,0.3,0.4,0.6,0.5,1.1v2.1c0,0.4,0.1,0.7,0.2,1v0.1H173.1z M171.9,83.9
	c0.2,0,0.5-0.1,0.7-0.2c0.2-0.1,0.4-0.3,0.5-0.5v-0.9h-0.6c-0.9,0-1.4,0.3-1.4,0.8c0,0.2,0.1,0.4,0.2,0.6
	C171.4,83.8,171.6,83.9,171.9,83.9z M177.6,83.3c0-0.2-0.1-0.4-0.2-0.5c-0.2-0.1-0.4-0.2-0.8-0.3c-0.4-0.1-0.7-0.2-0.9-0.3
	c-0.2-0.1-0.4-0.3-0.5-0.4c-0.1-0.2-0.2-0.3-0.2-0.6c0-0.4,0.2-0.7,0.5-0.9c0.3-0.3,0.7-0.4,1.2-0.4c0.5,0,0.9,0.1,1.2,0.4
	c0.3,0.3,0.5,0.6,0.5,1h-0.8c0-0.2-0.1-0.4-0.3-0.5c-0.2-0.2-0.4-0.2-0.7-0.2c-0.3,0-0.5,0.1-0.7,0.2c-0.2,0.1-0.2,0.3-0.2,0.5
	c0,0.2,0.1,0.3,0.2,0.4c0.1,0.1,0.4,0.2,0.8,0.3c0.4,0.1,0.7,0.2,0.9,0.3c0.2,0.1,0.4,0.3,0.5,0.4c0.1,0.2,0.2,0.4,0.2,0.6
	c0,0.4-0.2,0.7-0.5,1c-0.3,0.2-0.7,0.4-1.2,0.4c-0.4,0-0.7-0.1-0.9-0.2c-0.3-0.1-0.5-0.3-0.6-0.5c-0.2-0.2-0.2-0.5-0.2-0.7h0.8
	c0,0.3,0.1,0.5,0.3,0.6c0.2,0.1,0.4,0.2,0.8,0.2c0.3,0,0.5-0.1,0.7-0.2C177.5,83.6,177.6,83.5,177.6,83.3z M180.4,78.9V80h0.8v0.6
	h-0.8v2.8c0,0.2,0,0.3,0.1,0.4c0.1,0.1,0.2,0.1,0.4,0.1c0.1,0,0.2,0,0.4,0v0.6c-0.2,0.1-0.4,0.1-0.6,0.1c-0.3,0-0.6-0.1-0.8-0.3
	c-0.2-0.2-0.3-0.5-0.3-0.9v-2.8h-0.8V80h0.8v-1.1H180.4z M188.1,83.4L189,80h0.8l-1.3,4.5h-0.6l-1.1-3.4l-1.1,3.4h-0.6l-1.3-4.5h0.8
	l0.9,3.3l1-3.3h0.6L188.1,83.4z M192.4,84.5c-0.6,0-1.1-0.2-1.5-0.6c-0.4-0.4-0.6-0.9-0.6-1.6v-0.1c0-0.4,0.1-0.8,0.3-1.2
	c0.2-0.3,0.4-0.6,0.7-0.8c0.3-0.2,0.6-0.3,1-0.3c0.6,0,1,0.2,1.4,0.6c0.3,0.4,0.5,0.9,0.5,1.6v0.3h-3c0,0.4,0.1,0.8,0.4,1.1
	c0.2,0.3,0.6,0.4,0.9,0.4c0.3,0,0.5-0.1,0.7-0.2c0.2-0.1,0.3-0.3,0.5-0.4l0.5,0.4C193.7,84.3,193.1,84.5,192.4,84.5z M192.3,80.5
	c-0.3,0-0.6,0.1-0.8,0.3c-0.2,0.2-0.3,0.5-0.4,0.9h2.2v-0.1c0-0.4-0.1-0.7-0.3-0.9C192.9,80.7,192.6,80.5,192.3,80.5z M196.9,84.5
	c-0.6,0-1.1-0.2-1.5-0.6c-0.4-0.4-0.6-0.9-0.6-1.6v-0.1c0-0.4,0.1-0.8,0.3-1.2c0.2-0.3,0.4-0.6,0.7-0.8c0.3-0.2,0.6-0.3,1-0.3
	c0.6,0,1,0.2,1.4,0.6c0.3,0.4,0.5,0.9,0.5,1.6v0.3h-3c0,0.4,0.1,0.8,0.4,1.1c0.2,0.3,0.6,0.4,0.9,0.4c0.3,0,0.5-0.1,0.7-0.2
	c0.2-0.1,0.4-0.3,0.5-0.4l0.5,0.4C198.2,84.3,197.6,84.5,196.9,84.5z M196.8,80.5c-0.3,0-0.6,0.1-0.8,0.3c-0.2,0.2-0.3,0.5-0.4,0.9
	h2.2v-0.1c0-0.4-0.1-0.7-0.3-0.9C197.3,80.7,197.1,80.5,196.8,80.5z M200.7,82.4l-0.5,0.5v1.6h-0.8v-6.3h0.8V82l0.4-0.5l1.4-1.5h0.9
	l-1.7,1.9l1.9,2.6h-0.9L200.7,82.4z"/>
<path class="st15" d="M54.5,362.2c0,0,2.3,3.5,3.3,4.6c1,1.2,0.2,2,0.2,2l-2.3-0.7l-2.5-2.1l-3.1-2.4L54.5,362.2z"/>
<path class="st15" d="M39.4,264.3c1.6,3.3,3.8,7.6,6.6,10.8c1.8,2.3,4,4.1,6.3,5.1c0.1,0,0.2,0.1,0.3,0.1c7.3,2.4,16.1,3.3,16.1,3.3
	c-0.1-0.3,1.7-3,1.7-3c-0.6,0-10.7-7.7-13.2-8.5c-0.8-0.2-13.2-26.6-14.4-27.4c-1.5-1.2-3.2-1.7-4.5-0.8
	C34,247,35.1,255.6,39.4,264.3z"/>
<path class="st16" d="M44.8,245.7c0.6,1.3-10.1,0.6-12.2-0.3c-3.9-1.8-5.5-8.2-4.1-12.1c0.6-2,1.8-4.1,3.3-5.5
	c1.4-1.3,2.6-0.7,4.4-0.6h0.1c0.2-0.1,2.1,1.4,2.2,1.7c1.4,3.2,1.3,5.2,2.6,8.4C41.6,238.5,42.7,241.3,44.8,245.7z"/>
<path class="st15" d="M5.5,356.8l3.9,2.1c0,0,2.8-4,5.2-7.4C17,348.2,32.2,332,32.2,332c5-7.4-1.8-20.5-1.8-20.5l-11.2,3.7
	c0,0,2.6,7.1,2.4,7.4c-0.3,0.5-0.7,1-1.2,1.6c-1.7,2.4-3.8,5.5-5.4,10.2c-0.9,2.8-4.6,11.4-7,17.2C6.4,354.7,5.5,356.8,5.5,356.8z"
	/>
<path class="st15" d="M39,312.4c0,0,1,12.3,1.7,15.3c0.1,0.3,0.1,0.8,0.2,1.3v0.1c0.3,2.6,3.1,10.6,7.9,28.6c0,0.2,0.1,0.3,0.1,0.5
	c0.9,3.5,1.2,6,1.2,6l4.3-1.8c0,0-0.6-4-0.9-8.1c-0.3-4.1,0.3-26.4,0.3-26.4c-1.2-8.8-8.9-25.6-8.9-25.6L39,312.4z"/>
<path class="st17" d="M14.9,334.4c1.5-4.7,3.7-7.9,5.4-10.2c0.6-0.1,1.2,0,1.8,0.2c0.3-0.1,0.8,0.1,0.8,0.6c0,0.2,0,0.5-0.2,0.6
	c-1.7,4.3-4,7.9-6.6,11.7c-3,4.5-5.2,9.2-7.3,14.2c-0.2,0.5-0.7,0.5-0.9,0.2C10.2,345.9,13.9,337.3,14.9,334.4z"/>
<path class="st17" d="M46.7,327.4c0.5-0.1,0.7,0.3,0.7,0.8c-0.1,0.5-0.2,1-0.3,1.5c0.7-0.8,1.6-1.5,2.5-2.3c0.6-0.5,1.4,0.5,0.7,0.9
	c-1.3,1-2.5,2.1-3.6,3.3c-0.7,8.3,3.3,16.6,2.6,25c0,0.3-0.2,1.5-0.5,1.7c0-0.1-0.1-0.3-0.1-0.5c-4.8-18-7.6-25.9-7.9-28.6
	C42.6,328.1,45.1,327.8,46.7,327.4z"/>
<path class="st18" d="M15.7,324c0,0,2.3,1.3,6.1,2.6c9.3,3.5,27.2,7.8,40.5-2.6c0,0-9.3-0.8-7.5-12.6c2.3-15.1-3.6-38.2-12.4-41.2
	c-8.9-3.1-21,2.8-21,2.8s-2.5,1.5-4.6,5c-1.5,2.4-2.8,5.9-2.8,10.5C14,297.5,22.3,304.2,15.7,324z"/>
<path class="st19" d="M14,288.4c-0.5-6.8,4.4-13.6,5.9-16.1c1.5,0.3,6.4,2.1,6.1,2.4c-8.5,8.6-4.6,24-2.1,32.2
	c1.2,3.7,1.6,7.5,0.8,11.4c-0.5,2.2-1.4,4.4-2.2,6.4c-0.2,0.6-0.5,1.3-0.8,2c-3.8-1.4-6.1-2.6-6.1-2.6
	C22.3,304.2,14.7,297.4,14,288.4z"/>
<path class="st20" d="M48.4,272.3c-17.3,7.6-29.1,0.1-28.1-2.2c0.6-1.2,0.8-2.5,0.9-4c0.2-2.3,0.1-4.6,0-6.1
	c-0.1-0.8-0.1-1.3-0.2-1.6v-0.1c-1.4-6.9-4.4-15.2,3.7-17.7c1-0.3,2.2-0.6,3.6-0.7c1.5-0.1,3.1-0.1,5.1,0c0,0,2.4,0.8,5.3,2.3
	c0.9,0.5,2,1,3,1.6c2.9,1.8,3.6,5.5,3.5,7.9c-0.1,1.7-2.5,6.4-2.4,7.4C43.9,265.8,47,269.9,48.4,272.3z"/>
<path class="st21" d="M38.2,259c-2.5,2-6.1,2-9.1,3.1c-2.6,1-5.3,3.5-8.1,4c0.2-2.3,0.1-4.6,0-6.1c0,0,0-0.1,0.1-0.1
	c-0.1-0.5-0.1-0.9-0.2-1.5c0,0,0,0,0-0.1c0.5-0.9,1.3-2.1,2.5-3.2c3.3-3.1,3-10.9,3-10.9c0.8,3.9,0.3,9.8-0.9,12.2
	c-0.6,1-1.5,2.5-2.6,3.8v0.1c-0.1,1.3,7.7-1.3,8.6-1.6c2.1-0.6,4.1-0.8,6.3-0.7C38.6,257.9,38.7,258.7,38.2,259z"/>
<path class="st15" d="M36.5,237.4v3.2c0,0,0.9,1.6,0,1.7c-2,0.3-4.7-2.6-4.7-2.6v-4.4L36.5,237.4z"/>
<path class="st17" d="M31.8,238.2v-2.5c0,0,2.4,2.3,4.7,2.4C36.5,238.2,33.7,239.5,31.8,238.2z"/>
<path class="st15" d="M37.4,228c0,0,1.7,3.5,2.2,6.8c0.3,2.3-3.9,5.4-7.4,2.1s-2.5-8.3-2.5-8.3L37.4,228z"/>
<path class="st22" d="M49.6,360.5c0,0-1,0.8-0.8,3c0,0,4.1,2.2,6.4,6.8c0.6,1,3.7,0.2,5,0.2c0,0,1.3-0.6,0.3-2
	c-0.3-0.6-2.1-1.3-2.5-1.7C57.2,368.6,54,366.1,49.6,360.5z"/>
<path class="st22" d="M48.8,363.5l0.7,6.9l1.2,0.1l0.1-6.6L48.8,363.5z"/>
<path class="st15" d="M9.4,358.9c0,0-0.8,4-0.8,5.5c0,1.6-1.3,1.5-1.3,1.5l-1.2-2.1L6,360.6l-0.5-3.9L9.4,358.9z"/>
<path class="st22" d="M6.6,354.4c0,0-0.8-0.3-2.2,1.4c0,0,1.4,4.5-0.1,9.3c-0.3,1.2,2.5,2.8,3.3,3.6c0,0,1.3,0.5,1.5-1.2
	c0.1-0.7-0.7-2.3-0.6-3C6.9,365.2,5.9,361.4,6.6,354.4z"/>
<path class="st22" d="M4.4,355.8L0,361.2l0.9,0.8l4.6-4.6L4.4,355.8z"/>
<path class="st15" d="M9.1,253c-0.2-0.6,12-12.7,16.7-10.9c2.9,1.2,1.7,6.6,1,9c-1.6,5.2-14.5,16.5-14,16.9c0.5,0.3,2.6,1.2,3.9,1.4
	c2.4,0.5,5.8,0.7,9,0.9c5.2,0.2,10,0.2,10.2,0.3c0,0-1.4,3.6-1.5,3.9c0,0-1.3,0.6-3.3,1.2c-5.3,1.6-16.9,2.5-24.5-0.2
	C-0.3,272.8,2.8,259.8,9.1,253z"/>
<path class="st17" d="M11.3,270.1c-4-2.8,1.5-5.6,3.7-8.3c2.5-0.9,4.8-2.3,5.3-2c-2.3,2.4-7.5,7.9-7.5,7.9c0.5,0.3,2.6,1.2,3.9,1.4
	c2.4,0.5,5.8,0.7,9,0.9C25.9,270.5,14.8,272.7,11.3,270.1z"/>
<path class="st15" d="M36.7,270.1c1.8-0.5,4.7-0.2,6,1.4c0.6,0.8,0.1,1.3-0.7,0.8c-1.6-0.8-2.9-0.9-0.5,0.2c0.5,0.2,1.4,0.9,1.3,1.3
	c-0.3,0.8-2-0.2-2.8-0.6c-0.7,0,0.9,1.2,1.2,1.5c0.7,1.7-2.5-0.3-2.8-0.1c-0.7,0.5,1.7,1.5,0.6,1.7c-0.9,0.2-2.6-1.6-3.3-1.8
	c-0.6-0.2-1.2,0.1-1.5-0.6C33.3,272.6,36,270.4,36.7,270.1z"/>
<path class="st15" d="M36,270.5c0.6-0.5,1.8-1.7,2.5-1.8c0.5-0.1,0.9,0.1,0.6,0.6c-0.2,0.3-0.6,0.6-0.9,0.7
	c-0.2,0.1-0.6,0.3-0.8,0.5C37.2,270.6,35.9,270.6,36,270.5z"/>
<path class="st16" d="M39.5,229.8c-0.6,0.8-1.6,0.7-2.4,0.3c-0.5-0.2-0.9-0.6-1.3-0.9c-0.2-0.2-0.5-0.7-0.7-0.9c-1,0-2,0.7-2.6,1.6
	c0,0.3,0.1,0.8,0,1.4c-2.8,8.2,3,14,4.4,16.8c0.2,0.3-0.1,0.7-0.5,0.8c-5.3,1-16.4,2.8-15.8-5.9c0.2-4,2.1-8.1,4.5-11.2
	c2-2.4,4.1-6.1,7.4-6.4c1.3-0.1,2.5,0,3.8,0.2C39.6,226.2,40.1,229.1,39.5,229.8z"/>
<path class="st23" d="M74.1,315.7l26.4-15.5c1.5-0.8,2-2.8,1-4.1l-11.7-19.9c-0.8-1.5-2.8-2-4.1-1l-26.4,15.5c-1.5,0.8-2,2.8-1,4.1
	L70,314.7C70.9,316.2,72.8,316.7,74.1,315.7z"/>
<path class="st24" d="M63.3,303.4L95,284.8c1-0.7,1.4-2.1,0.8-3.1l-4.4-7.4c-0.7-1-2.1-1.4-3.1-0.8l-31.7,18.7
	c-1,0.7-1.4,2.1-0.8,3.1l4.4,7.4C60.9,303.8,62.3,304.1,63.3,303.4z"/>
<path class="st24" d="M70.7,290.7l9.6-5.6c0.9-0.6,1.3-1.8,0.7-2.8l-1.4-2.3c-1.6-2.8-5.2-3.7-7.9-2.1l-3.1,1.8
	c-2.8,1.6-3.7,5.2-2.1,7.9l1.4,2.3C68.5,291,69.8,291.3,70.7,290.7z M72.8,279.7c1.8-1,4.1-0.5,5.3,1.4l1.4,2.3v0.1l-9.6,5.6h-0.1
	l-1.4-2.3c-1-1.8-0.5-4.1,1.4-5.2L72.8,279.7z"/>
<path class="st25" d="M76.5,297.5l7-4.1c0.7-0.5,1-1.4,0.6-2.2c-0.5-0.7-1.4-1-2.2-0.6l-7,4.1c-0.7,0.5-1,1.4-0.6,2.2
	C74.7,297.7,75.8,298,76.5,297.5z"/>
<path class="st15" d="M71.4,279.2c0.5,0.6,0.7,1.2,0.7,1.8c0,0.3-0.5,0.6-0.8,0.6c0,0.1,0.1,0.2,0.1,0.3c0,0.3-0.3,0.6-0.8,0.6
	c0,0.3-0.5,0.6-0.9,0.6c0,0.5-0.8,0.8-1.3,0.3c-0.3-0.3-0.6-0.7-0.8-1c-0.2-0.5,0.3-0.8,0.8-0.7c0-0.1-0.1-0.1-0.1-0.2
	c-0.2-0.3,0.2-0.7,0.7-0.7c0,0,0,0-0.1-0.1c-0.6-0.5,0.6-1.2,1.2-0.7c0.1,0.1,0.2,0.2,0.3,0.3c-0.1-0.1-0.1-0.2-0.2-0.3
	C69.8,279.3,70.9,278.7,71.4,279.2z"/>
<path class="st15" d="M70.2,278.8c-0.7-0.1-1.4,0.1-2,0.5c-0.1,0-0.1,0-0.2,0c-0.6,0.1-0.5,0.9,0,1c0.1,0,0.2,0.1,0.3,0
	c0,0,0,0,0.1,0c0.8-0.1,1.6-0.1,2.4,0.1c0.5,0.1,0.8-0.2,0.7-0.7C71.5,279,70.7,278.8,70.2,278.8z"/>
</svg>
