<svg id="Layer_1" data-name="Layer 1" xmlns="http://www.w3.org/2000/svg" width="750" height="500" viewBox="0 0 750 500"><rect width="750" height="500" style="fill:#c60b1e"/><rect y="125" width="750" height="250" style="fill:#ffc400"/><g id="coa"><g id="supporters"><g id="crown_left" data-name="crown left"><path d="M168,222.2h-.8l-1.1-1-.7-.5-.6-.8a2.3,2.3,0,0,1,1-3.6,8.7,8.7,0,0,1,1.6-.6,4.3,4.3,0,0,1,1.1-.4l1.3-.3.6-.3.9-.2,1.1-.2a7.1,7.1,0,0,1,1.6.1h5l1.5.4,2.1.8,2.3.6a3.2,3.2,0,0,1,1.2,1.1,3,3,0,0,1,.4,1.1,2,2,0,0,1,0,1.1l-.5.8-.6,1-.8.7s-.6.5-1,.4-5-.8-8-.8a59.1,59.1,0,0,0-7.6.8Z" style="fill:#ad1519;stroke:#000;stroke-linejoin:round;stroke-width:0.25999999046325684px"/><ellipse cx="175.7" cy="215.7" rx="1.4" ry="2.5" style="fill:#c8b100;stroke:#000;stroke-width:0.25999999046325684px"/><ellipse cx="175.7" cy="215.7" rx="0.6" ry="2.3" style="fill:#c8b100;stroke:#000;stroke-width:0.25999999046325684px"/><ellipse cx="175.7" cy="213" rx="0.9" ry="0.9" style="fill:#c8b100"/><path d="M177,212.7v.6h-2.6v-.6h1v-1.3h-.6v-.6h.6v-.5h.6v.5h.6v.6H176v1.3h1" style="fill:#c8b100;stroke:#000;stroke-width:0.30000001192092896px"/><path d="M175.9,212.2a.9.9,0,0,1,.7,1.1,1.1,1.1,0,0,1-1.2.6.9.9,0,0,1,0-1.7" style="fill:none;stroke:#000;stroke-width:0.25999999046325684px"/><path d="M175.7,222.1h-4.8v-1.2l-.3-1.2-.2-1.6c-1.3-1.7-2.5-2.9-3-2.6a1.3,1.3,0,0,1,.5-.7c1.2-.7,3.6,1,5.4,3.7a3.5,3.5,0,0,1,.5.8h4c.1-.3.3-.5.4-.8,1.9-2.7,4.3-4.4,5.5-3.7s.3.4.4.7-1.6.9-2.9,2.6l-.2,1.6-.3,1.2v1.2Z" style="fill:#c8b100;stroke:#000;stroke-width:0.25999999046325684px"/><path d="M167.6,215.4c.9-.5,3,1.2,4.7,3.8m11.5-3.8c-.9-.5-3,1.2-4.7,3.8" style="fill:none;stroke:#000;stroke-width:0.25999999046325684px"/><g id="crown_pt1" data-name="crown pt1"><path d="M168.6,224.2a4.7,4.7,0,0,0-.6-1,27.2,27.2,0,0,1,7.7-1,27.7,27.7,0,0,1,7.7,1l-.6.9c-.1.3-.4.8-.3.8a25.9,25.9,0,0,0-6.8-.8,24.1,24.1,0,0,0-6.9.8l-.2-.7h0" style="fill:#c8b100;stroke:#000;stroke-width:0.25999999046325684px"/><path d="M175.7,226.7a36.3,36.3,0,0,0,6.1-.6c.6-.2,1-.5,1-.8l-.4-.4a24,24,0,0,0-6.7-.8,24.3,24.3,0,0,0-6.8.8c-.1.1-.3.2-.3.4s.3.6,1,.8A35.1,35.1,0,0,0,175.7,226.7Z" style="fill:#c8b100;stroke:#000;stroke-width:0.25999999046325684px"/><path d="M183.5,222.1l-.6-.5a2.4,2.4,0,0,1-1.3.2c-.7-.1-.9-1-.9-1a2.3,2.3,0,0,1-1.5.6,1.4,1.4,0,0,1-1-.6,2.8,2.8,0,0,1-1.4.5,2.6,2.6,0,0,1-1.2-.8s-.6.8-1.2.8a1.7,1.7,0,0,1-1.2-.5,1.2,1.2,0,0,1-1,.7,2.1,2.1,0,0,1-1.5-.6,2.2,2.2,0,0,1-1,.9c-.5.2-1.2-.3-1.2-.3l-.2.5H168v.5a31.6,31.6,0,0,1,7.6-.9,32.3,32.3,0,0,1,7.6.9l.2-.5Z" style="fill:#c8b100;stroke:#000;stroke-width:0.25999999046325684px"/><path d="M175.7,219.5h.3a.8.8,0,0,0-.1.4A1.1,1.1,0,0,0,177,221a1.2,1.2,0,0,0,1.1-.8c0,.1.1-.3.1-.3s.1.4.1.4a1.1,1.1,0,0,0,1.1.9,1.1,1.1,0,0,0,1.1-1.1h0l.3-.4.2.5v.4a1,1,0,0,0,1.1,1,1,1,0,0,0,.9-.4l.2-.3v.4a.6.6,0,0,0,.5.7,1.6,1.6,0,0,0,.9-.4l.8-.8v.5a5.3,5.3,0,0,1-.9,1.1c-.3.1-.7.3-1,.2s-.5-.3-.7-.6l-.8.2a1.5,1.5,0,0,1-1.4-.8,1.6,1.6,0,0,1-1.1.5,2,2,0,0,1-1.3-.6,1.5,1.5,0,0,1-1.1.4,1.7,1.7,0,0,1-1.3-.7,1.7,1.7,0,0,1-1.4.7,1.2,1.2,0,0,1-1-.4,2,2,0,0,1-1.3.6,1.7,1.7,0,0,1-1.2-.5,1.5,1.5,0,0,1-1.4.8l-.8-.2a.7.7,0,0,1-.7.6c-.3.1-.6-.1-.9-.2a4.1,4.1,0,0,1-1-1.1v-.5a2.4,2.4,0,0,0,.8.8,1.6,1.6,0,0,0,.9.4.8.8,0,0,0,.5-.7v-.4l.2.3a1,1,0,0,0,.9.4.9.9,0,0,0,1-1,.6.6,0,0,0-.1-.4l.2-.5.4.4h0a1,1,0,0,0,1.1,1.1,1.2,1.2,0,0,0,1.1-.9v-.4c.1,0,.2.4.2.3a1,1,0,0,0,1,.8,1.1,1.1,0,0,0,1.1-1.1v-.4Z" style="fill:#c8b100;stroke:#000;stroke-width:0.25999999046325684px"/><path d="M175.7,222.2a27.2,27.2,0,0,0-7.7,1l-.3-.2a.2.2,0,0,1,.1-.3,28.7,28.7,0,0,1,7.9-1,27.4,27.4,0,0,1,7.8,1c.1,0,.2.2.2.3l-.4.2A26.4,26.4,0,0,0,175.7,222.2Z" style="fill:#c8b100;stroke:#000;stroke-linejoin:round;stroke-width:0.25999999046325684px"/><path d="M165.4,221l-.6-.7-.7-.4.6-.2c.2,0,.3,0,.4.2v-.2s.2,0,.3.3a2.6,2.6,0,0,1,.1.7l-.2.3Z" style="fill:#c8b100;stroke:#000;stroke-width:0.25999999046325684px"/><path d="M167.3,220.2v.7h-1.6v-.2l1.1-.9.6.4" style="fill:#c8b100;stroke:#000;stroke-width:0.25999999046325684px"/><path d="M165.4,220.8c.2-.2.4-.1.6,0s.2.4.1.5a.3.3,0,0,1-.5-.1C165.4,221.1,165.3,220.9,165.4,220.8Z" style="fill:#c8b100;stroke:#000;stroke-width:0.25999999046325684px"/><path d="M168,220.9c0-.2,0-.4.2-.4s.3.1.3.2a.4.4,0,0,1-.1.5C168.2,221.2,168.1,221.1,168,220.9Z" style="fill:#c8b100;stroke:#000;stroke-width:0.25999999046325684px"/><path d="M168.7,220l.5.5,1.2-.6v-.3h-1.6l-.2.6" style="fill:#c8b100;stroke:#000;stroke-width:0.25999999046325684px"/><path d="M170.1,217.8l-.7.6.9,1.1h.2l.2-.2.3-1.3-.9-.3" style="fill:#c8b100;stroke:#000;stroke-width:0.25999999046325684px"/><path d="M172.4,219.3l-.3.6h-1.4l-.2-.2v-.2l1.2-.6.6.5" style="fill:#c8b100;stroke:#000;stroke-width:0.25999999046325684px"/><ellipse cx="170.5" cy="219.6" rx="0.5" ry="0.5" style="fill:#c8b100;stroke:#000;stroke-width:0.25999999046325684px"/><path d="M172.9,219.9c-.1-.1,0-.3.2-.3s.3.1.3.3-.1.4-.2.4S172.9,220.1,172.9,219.9Z" style="fill:#c8b100;stroke:#000;stroke-width:0.25999999046325684px"/><path d="M173.8,219.2l.4.6,1.3-.4.2-.2-.2-.2-1.3-.4-.4.6" style="fill:#c8b100;stroke:#000;stroke-width:0.25999999046325684px"/><path d="M175.7,217.1l-.9.6.6,1.4h.5l.6-1.4-.8-.6" style="fill:#c8b100;stroke:#000;stroke-width:0.25999999046325684px"/><path d="M177.6,219.2l-.4.6-1.4-.4V219l1.4-.4.4.6" style="fill:#c8b100;stroke:#000;stroke-width:0.25999999046325684px"/><ellipse cx="175.7" cy="219.2" rx="0.5" ry="0.5" style="fill:#c8b100;stroke:#000;stroke-width:0.25999999046325684px"/><path d="M178.5,219.9c0-.1-.1-.3-.2-.3s-.3.1-.3.3.1.4.2.4A.4.4,0,0,0,178.5,219.9Z" style="fill:#c8b100;stroke:#000;stroke-width:0.25999999046325684px"/><path d="M179,219.3l.2.6h1.4l.2-.2v-.2l-1.2-.6-.5.5" style="fill:#c8b100;stroke:#000;stroke-width:0.25999999046325684px"/><path d="M181.3,217.8l.6.6-.8,1.1h-.2l-.2-.2-.3-1.3.9-.3" style="fill:#c8b100;stroke:#000;stroke-width:0.25999999046325684px"/><path d="M182.7,220l-.5.5-1.3-.6v-.3h1.6l.3.6" style="fill:#c8b100;stroke:#000;stroke-width:0.25999999046325684px"/><ellipse cx="180.9" cy="219.6" rx="0.5" ry="0.5" style="fill:#c8b100;stroke:#000;stroke-width:0.25999999046325684px"/><path d="M183.3,220.9c.1-.2,0-.4-.1-.4s-.3.1-.4.2,0,.4.2.5A.3.3,0,0,0,183.3,220.9Z" style="fill:#c8b100;stroke:#000;stroke-width:0.25999999046325684px"/><path d="M185.7,221a4.3,4.3,0,0,1,.7-.7l.7-.4a1.3,1.3,0,0,0-.6-.2c-.2,0-.4,0-.5.2v-.2s-.2,0-.4.3a1.5,1.5,0,0,0,0,.7.5.5,0,0,0,.1.3Z" style="fill:#c8b100;stroke:#000;stroke-width:0.25999999046325684px"/><path d="M183.8,220.2v.7h1.7v-.2l-1-.9-.7.4" style="fill:#c8b100;stroke:#000;stroke-width:0.25999999046325684px"/><path d="M185.7,220.8c-.1-.2-.3-.1-.5,0s-.2.4-.1.5a.3.3,0,0,0,.5-.1C185.8,221.1,185.9,220.9,185.7,220.8Z" style="fill:#c8b100;stroke:#000;stroke-width:0.25999999046325684px"/></g><g id="crown_pt2" data-name="crown pt2"><path d="M168.1,224.3l.3-.5h.6l-.4.6-.6-.2" style="fill:#ad1519;stroke:#000;stroke-width:0.25999999046325684px"/><path d="M170.9,223.8h-.7c-.2,0-.4-.1-.4-.2s.1-.4.3-.4h1.4c.1,0,.3.1.3.2a.3.3,0,0,1-.2.4h-.8" style="fill:#058e6e;stroke:#000;stroke-width:0.25999999046325684px"/><ellipse cx="173.2" cy="223.3" rx="0.4" ry="0.4" style="fill:#fff;stroke:#000;stroke-width:0.25999999046325684px"/><path d="M175.7,223.5h-1a.5.5,0,0,1-.3-.3.3.3,0,0,1,.3-.3h2a.3.3,0,0,1,.3.3.3.3,0,0,1-.3.3h-1" style="fill:#ad1519;stroke:#000;stroke-width:0.25999999046325684px"/><ellipse cx="178.2" cy="223.3" rx="0.4" ry="0.4" style="fill:#fff;stroke:#000;stroke-width:0.25999999046325684px"/><path d="M180.5,223.8h.7a.5.5,0,0,0,.4-.2c0-.2-.1-.4-.3-.4h-1.4c-.2,0-.4.1-.4.2s.1.4.3.4h.7" style="fill:#058e6e;stroke:#000;stroke-width:0.25999999046325684px"/><path d="M183.2,224.3l-.2-.5h-.7l.3.5h.6" style="fill:#ad1519;stroke:#000;stroke-width:0.25999999046325684px"/><path d="M175.7,226.2a26.8,26.8,0,0,1-6.3-.7,26.8,26.8,0,0,1,6.3-.7,28.1,28.1,0,0,1,6.3.7A28.1,28.1,0,0,1,175.7,226.2Z" style="fill:#ad1519;stroke:#000;stroke-linejoin:round;stroke-width:0.25999999046325684px"/><path d="M176.8,226.1v-1.2m-.6,1.2v-1.2m-.4,1.2v-1.2" style="fill:none;stroke:#000;stroke-width:0.009999999776482582px"/><path d="M175.4,226.1v-1.2" style="fill:none;stroke:#000;stroke-width:0.019999999552965164px"/><path d="M175.1,226.1v-1.2" style="fill:none;stroke:#000;stroke-width:0.029999999329447746px"/><path d="M174.8,226.1v-1.2" style="fill:none;stroke:#000;stroke-width:0.03999999910593033px"/><path d="M174.4,226.1v-1.2" style="fill:none;stroke:#000;stroke-width:0.03999999910593033px"/><path d="M174.2,226.1v-1.2" style="fill:none;stroke:#000;stroke-width:0.05000000074505806px"/><path d="M173.6,226.1v-1.2m.3,1.2v-1.2" style="fill:none;stroke:#000;stroke-width:0.05999999865889549px"/><path d="M173.1,226v-1m.3,1.1v-1.2" style="fill:none;stroke:#000;stroke-width:0.07000000029802322px"/><path d="M172.4,226v-1m.2,1v-1m.3,1v-1" style="fill:none;stroke:#000;stroke-width:0.07999999821186066px"/><path d="M172.2,226v-.9" style="fill:none;stroke:#000;stroke-width:0.09000000357627869px"/><path d="M172,225.9v-.8" style="fill:none;stroke:#000;stroke-width:0.10000000149011612px"/><path d="M171.7,225.9v-.8" style="fill:none;stroke:#000;stroke-width:0.10999999940395355px"/><path d="M171.2,225.8v-.6m.3.7v-.7" style="fill:none;stroke:#000;stroke-width:0.11999999731779099px"/><path d="M171,225.8v-.6" style="fill:none;stroke:#000;stroke-width:0.11999999731779099px"/><path d="M170.8,225.7v-.4" style="fill:none;stroke:#000;stroke-width:0.12999999523162842px"/><path d="M170.5,225.7v-.4" style="fill:none;stroke:#000;stroke-width:0.14000000059604645px"/><path d="M170.3,225.6v-.2" style="fill:none;stroke:#000;stroke-width:0.15000000596046448px"/><path d="M170,225.6v-.2" style="fill:none;stroke:#000;stroke-width:0.18000000715255737px"/></g></g><g id="pillar_left" data-name="pillar left"><path d="M191.3,330.7a7.5,7.5,0,0,1-3.9-.9,9.9,9.9,0,0,0-7.8,0,9,9,0,0,1-3.9.9,9.1,9.1,0,0,1-4-.9,9.4,9.4,0,0,0-7.6,0,9.1,9.1,0,0,1-4,.9v2.4a9.1,9.1,0,0,0,4-.9,9.4,9.4,0,0,1,7.6,0,9.1,9.1,0,0,0,4,.9,7.8,7.8,0,0,0,3.9-.9,9.9,9.9,0,0,1,7.8,0,7.5,7.5,0,0,0,3.9.9v-2.4Z" style="fill:#005bbf;stroke:#000;stroke-width:0.38999998569488525px"/><path d="M191.3,333.1a7.5,7.5,0,0,1-3.9-.9,9.9,9.9,0,0,0-7.8,0,7.8,7.8,0,0,1-3.9.9,9.1,9.1,0,0,1-4-.9,9.4,9.4,0,0,0-7.6,0,9.1,9.1,0,0,1-4,.9v2.4a7.9,7.9,0,0,0,4-.9,9.4,9.4,0,0,1,7.6,0,9.1,9.1,0,0,0,4,.9,7.8,7.8,0,0,0,3.9-.9,9.9,9.9,0,0,1,7.8,0,7.5,7.5,0,0,0,3.9.9v-2.4" style="fill:#ccc;stroke:#000;stroke-width:0.38999998569488525px"/><path d="M191.3,335.5a7.5,7.5,0,0,1-3.9-.9,9.9,9.9,0,0,0-7.8,0,7.8,7.8,0,0,1-3.9.9,9.1,9.1,0,0,1-4-.9,9.4,9.4,0,0,0-7.6,0,7.9,7.9,0,0,1-4,.9v2.4a7.9,7.9,0,0,0,4-.9,9.4,9.4,0,0,1,7.6,0,7.9,7.9,0,0,0,4,.9,9,9,0,0,0,3.9-.8,7.8,7.8,0,0,1,3.9-.9,9,9,0,0,1,3.9.8,7.5,7.5,0,0,0,3.9.9v-2.4" style="fill:#005bbf;stroke:#000;stroke-width:0.38999998569488525px"/><path d="M191.3,340.3a9.5,9.5,0,0,1-4-.8,7.4,7.4,0,0,0-3.8-.9,7.8,7.8,0,0,0-3.9.9,9.6,9.6,0,0,1-7.9-.1,9.4,9.4,0,0,0-7.6,0,7.9,7.9,0,0,1-4,.9v-2.4a7.9,7.9,0,0,0,4-.9,9.4,9.4,0,0,1,7.6,0,7.9,7.9,0,0,0,4,.9,9,9,0,0,0,3.9-.8,7.8,7.8,0,0,1,3.9-.9,8.6,8.6,0,0,1,3.8.8,8.2,8.2,0,0,0,4,.9v2.4" style="fill:#ccc;stroke:#000;stroke-width:0.38999998569488525px"/><path d="M191.3,342.7a9.5,9.5,0,0,1-4-.8,8.5,8.5,0,0,0-3.8-.9,9,9,0,0,0-3.9.9,9,9,0,0,1-3.9.8,7.9,7.9,0,0,1-4-.9,8.6,8.6,0,0,0-3.8-.8,7.4,7.4,0,0,0-3.8.9,9.2,9.2,0,0,1-4,.8v-2.4a7.9,7.9,0,0,0,4-.9,9.4,9.4,0,0,1,7.6,0,7.9,7.9,0,0,0,4,.9,9,9,0,0,0,3.9-.8,7.8,7.8,0,0,1,3.9-.9,7.4,7.4,0,0,1,3.8.9,9.5,9.5,0,0,0,4,.8v2.4Z" style="fill:#005bbf;stroke:#000;stroke-width:0.38999998569488525px"/><path d="M166.9,320.8a1.4,1.4,0,0,1,.2.6,2.7,2.7,0,0,1-2.9,2.6h23a2.6,2.6,0,0,1-2.8-2.6,1.3,1.3,0,0,1,.1-.6H166.9Z" style="fill:#c8b100;stroke:#000;stroke-linejoin:round;stroke-width:0.38999998569488525px"/><path d="M167.3,319.3H184c.6,0,1,.3,1,.7s-.4.8-1,.8H167.3a.9.9,0,0,1-1-.8C166.3,319.6,166.8,319.3,167.3,319.3Z" style="fill:#c8b100;stroke:#000;stroke-width:0.38999998569488525px"/><path d="M164.3,329.9h22.8V324H164.3Z" style="fill:#c8b100;stroke:#000;stroke-width:0.38999998569488525px"/><path d="M167.6,318.3h16.2V238.7H167.6Z" style="fill:#ccc;stroke:#000;stroke-width:0.38999998569488525px"/><path d="M179.1,238.8v79.5m1.9-79.5v79.5" style="fill:none;stroke:#000;stroke-width:0.38999998569488525px"/><path d="M164.6,232.4h22.3v-5.9H164.6v5.9Z" style="fill:#c8b100;stroke:#000;stroke-width:0.38999998569488525px"/><path d="M166.9,236.3h17.6a1.4,1.4,0,0,1-1-1.4,1.4,1.4,0,0,1,1-1.3H166.9a1.2,1.2,0,0,1,1,1.2,1.5,1.5,0,0,1-1,1.4Z" style="fill:#c8b100;stroke:#000;stroke-linejoin:round;stroke-width:0.38999998569488525px"/><path d="M167.3,236.2H184c.6,0,1,.3,1,.8a.9.9,0,0,1-1,.8H167.3a1,1,0,0,1-1-.8A.9.9,0,0,1,167.3,236.2Z" style="fill:#c8b100;stroke:#000;stroke-width:0.38999998569488525px"/><path d="M167.3,232.4H184c.6,0,1.1.3,1.1.6s-.5.7-1.1.7H167.3c-.5,0-1-.3-1-.7S166.8,232.4,167.3,232.4Z" style="fill:#c8b100;stroke:#000;stroke-width:0.38999998569488525px"/></g><g id="ribbon_left" data-name="ribbon left"><path d="M162.5,298.6c-2.3,1.3-3.8,2.7-3.6,3.3s.9,1.1,1.9,1.8,2.6,3.1,1.8,4.1a5.6,5.6,0,0,0,2.2-4.5A6,6,0,0,0,162.5,298.6Z" style="fill:#ad1519;stroke:#000;stroke-width:0.38999998569488525px"/><path d="M200.4,268.5c-3.5-1.5-9.6-2.6-16.5-2.8a44.2,44.2,0,0,0-7.8.7c-9.7,1.6-17.1,5.5-16.5,8.7v.2l-3.7-8.5c-.6-3.5,7.6-7.8,18.4-9.6a55.3,55.3,0,0,1,9.5-.8c6.9,0,12.9.9,16.6,2.3v9.8" style="fill:#ad1519;stroke:#000;stroke-linejoin:round;stroke-width:0.38999998569488525px"/><path d="M167.5,278.5c-4.5-.4-7.6-1.6-7.9-3.4s1.2-3.2,4-4.7c1.2.1,2.5.3,4,.3v7.8" style="fill:#ad1519;stroke:#000;stroke-width:0.38999998569488525px"/><path d="M183.8,272.4c2.9.4,5,1.1,6,2h.1c.5,1.1-2,3.3-6.1,5.7v-7.8" style="fill:#ad1519;stroke:#000;stroke-width:0.38999998569488525px"/><path d="M157.4,293.8c-.4-1.3,4-3.8,10.2-6.1,2.8-1,5.2-2.1,8.1-3.4,8.6-3.8,15-8.2,14.2-9.8h-.1c.5.4,1.2,8.2,1.2,8.2.8,1.5-5.1,5.8-13,9.6-2.5,1.2-7.9,3.2-10.4,4.1-4.6,1.6-9.1,4.5-8.7,5.6l-1.5-8.1Z" style="fill:#ad1519;stroke:#000;stroke-linejoin:round;stroke-width:0.38999998569488525px"/></g><g id="crown_right" data-name="crown right"><path d="M324.9,220.4a4,4,0,0,1-1.3.9,1.7,1.7,0,0,1-1.2-.5,3.3,3.3,0,0,1-1.1.7c-.6.1-1.4-.7-1.4-.7a3.7,3.7,0,0,1-1.1,1c-.5.2-1.1-.3-1.1-.3l-.7.7h-.5l-.6-.4-.6-.7-.7-.2a9.7,9.7,0,0,0-.3-1.1v-.6c-.2-.6.8-1.4,2.3-1.7a3.4,3.4,0,0,1,2,0,5.4,5.4,0,0,1,3.2-.8,5.5,5.5,0,0,1,3.1.7,4.9,4.9,0,0,1,3-.7,5.4,5.4,0,0,1,3.2.8,3.4,3.4,0,0,1,2,0c1.5.3,2.5,1.1,2.3,1.7v.6l-.4,1.1-.6.2-.7.7-.5.4h-.5l-.7-.7s-.6.5-1.1.3a3.7,3.7,0,0,1-1.1-1s-.8.8-1.4.7a3.3,3.3,0,0,1-1.1-.7,1.7,1.7,0,0,1-1.2.5,3.3,3.3,0,0,1-1.2-.9Z" style="fill:#ad1519;stroke:#000;stroke-width:0.27000001072883606px"/><ellipse cx="324.8" cy="216.2" rx="1.4" ry="2" style="fill:#c8b100;stroke:#000;stroke-width:0.25999999046325684px"/><ellipse cx="324.9" cy="216.2" rx="0.6" ry="1.8" style="fill:#c8b100;stroke:#000;stroke-width:0.25999999046325684px"/><ellipse cx="324.8" cy="213.9" rx="0.9" ry="0.9" style="fill:#c8b100"/><path d="M326.1,213.6v.6h-2.5v-.6h.9v-1.3h-.6v-.5h.6v-.6h.6v.6h.7v.5h-.7v1.3h1" style="fill:#c8b100;stroke:#000;stroke-width:0.30000001192092896px"/><path d="M325.1,213.1a.9.9,0,1,1-.5,1.7.9.9,0,0,1-.7-1.1,1.1,1.1,0,0,1,.7-.6" style="fill:none;stroke:#000;stroke-width:0.25999999046325684px"/><path d="M314.4,220a3.6,3.6,0,0,1-.2-1.1A2.9,2.9,0,0,1,317,216a3.3,3.3,0,0,1,1.4.4" style="fill:none;stroke:#000;stroke-linecap:round;stroke-width:0.25999999046325684px"/><path d="M319.5,217.9a1.1,1.1,0,0,1-.3-.8,2.4,2.4,0,0,1,2.6-2.1,3.1,3.1,0,0,1,1.7.5" style="fill:none;stroke:#000;stroke-width:0.25999999046325684px"/><path d="M330.2,218a2.9,2.9,0,0,0,.2-.9,2.4,2.4,0,0,0-2.6-2.1,3.4,3.4,0,0,0-1.7.5" style="fill:none;stroke:#000;stroke-width:0.25999999046325684px"/><path d="M335.2,220a3.6,3.6,0,0,0,.2-1.1,2.8,2.8,0,0,0-2.8-2.9,3.3,3.3,0,0,0-1.4.4" style="fill:none;stroke:#000;stroke-linecap:round;stroke-width:0.25999999046325684px"/><ellipse cx="313.6" cy="218.7" rx="0.5" ry="0.4" style="fill:none;stroke:#000;stroke-width:0.20999999344348907px"/><ellipse cx="313.7" cy="217.1" rx="0.5" ry="0.4" style="fill:none;stroke:#000;stroke-width:0.20999999344348907px"/><ellipse cx="314.8" cy="215.9" rx="0.5" ry="0.4" style="fill:none;stroke:#000;stroke-width:0.20999999344348907px"/><ellipse cx="316.1" cy="215.3" rx="0.5" ry="0.4" style="fill:none;stroke:#000;stroke-width:0.20999999344348907px"/><ellipse cx="317.5" cy="215.3" rx="0.5" ry="0.4" style="fill:none;stroke:#000;stroke-width:0.20999999344348907px"/><ellipse cx="318.4" cy="217.1" rx="0.5" ry="0.4" style="fill:#fff;stroke:#000;stroke-width:0.20999999344348907px"/><ellipse cx="318.7" cy="215.6" rx="0.5" ry="0.4" style="fill:none;stroke:#000;stroke-width:0.20999999344348907px"/><ellipse cx="319.8" cy="214.6" rx="0.5" ry="0.4" style="fill:none;stroke:#000;stroke-width:0.20999999344348907px"/><ellipse cx="321.2" cy="214.2" rx="0.5" ry="0.4" style="fill:none;stroke:#000;stroke-width:0.20999999344348907px"/><ellipse cx="322.7" cy="214.2" rx="0.5" ry="0.4" style="fill:none;stroke:#000;stroke-width:0.20999999344348907px"/><ellipse cx="326.9" cy="214.2" rx="0.5" ry="0.4" style="fill:none;stroke:#000;stroke-width:0.20999999344348907px"/><ellipse cx="328.4" cy="214.2" rx="0.5" ry="0.4" style="fill:none;stroke:#000;stroke-width:0.20999999344348907px"/><ellipse cx="329.8" cy="214.6" rx="0.5" ry="0.4" style="fill:none;stroke:#000;stroke-width:0.20999999344348907px"/><ellipse cx="330.9" cy="215.6" rx="0.5" ry="0.4" style="fill:none;stroke:#000;stroke-width:0.20999999344348907px"/><ellipse cx="331.2" cy="217.1" rx="0.5" ry="0.4" style="fill:#fff;stroke:#000;stroke-width:0.20999999344348907px"/><ellipse cx="332.1" cy="215.3" rx="0.5" ry="0.4" style="fill:none;stroke:#000;stroke-width:0.20999999344348907px"/><ellipse cx="333.5" cy="215.3" rx="0.5" ry="0.4" style="fill:none;stroke:#000;stroke-width:0.20999999344348907px"/><ellipse cx="334.9" cy="215.9" rx="0.5" ry="0.4" style="fill:none;stroke:#000;stroke-width:0.20999999344348907px"/><ellipse cx="335.9" cy="217.1" rx="0.5" ry="0.4" style="fill:none;stroke:#000;stroke-width:0.20999999344348907px"/><ellipse cx="336" cy="218.7" rx="0.5" ry="0.4" style="fill:none;stroke:#000;stroke-width:0.20999999344348907px"/><g id="crown_pt1-2" data-name="crown pt1"><path d="M317.8,224.2a4.7,4.7,0,0,0-.6-1,26.4,26.4,0,0,1,7.6-1,27.2,27.2,0,0,1,7.7,1l-.5.9-.4.8a24.8,24.8,0,0,0-6.8-.8,23.3,23.3,0,0,0-6.8.8l-.3-.7h0" style="fill:#c8b100;stroke:#000;stroke-width:0.25999999046325684px"/><path d="M324.8,226.7a35.1,35.1,0,0,0,6.1-.6c.7-.2,1.1-.5,1-.8s-.2-.3-.3-.4a24.3,24.3,0,0,0-6.8-.8,24,24,0,0,0-6.7.8c-.2.1-.3.2-.3.4s.3.6.9.8A36.3,36.3,0,0,0,324.8,226.7Z" style="fill:#c8b100;stroke:#000;stroke-width:0.25999999046325684px"/><path d="M332.6,222.1l-.5-.5a2.4,2.4,0,0,1-1.3.2c-.7-.1-.9-1-.9-1a2.3,2.3,0,0,1-1.5.6,1.7,1.7,0,0,1-1.1-.6,2.8,2.8,0,0,1-1.3.5,2.6,2.6,0,0,1-1.2-.8,2,2,0,0,1-1.3.8,1.4,1.4,0,0,1-1.1-.5,1.4,1.4,0,0,1-1.1.7,2,2,0,0,1-1.4-.6,3,3,0,0,1-1,.9,1.7,1.7,0,0,1-1.3-.3l-.2.5h-.3l.2.5a30.7,30.7,0,0,1,7.5-.9,32.5,32.5,0,0,1,7.7.9l.2-.5Z" style="fill:#c8b100;stroke:#000;stroke-width:0.25999999046325684px"/><path d="M324.9,219.5h.2v.4a1.1,1.1,0,0,0,1.1,1.1,1.2,1.2,0,0,0,1.1-.8c0,.1.1-.3.1-.3s0,.4.1.4a1,1,0,0,0,1.1.9,1.1,1.1,0,0,0,1.1-1.1h0l.3-.4.2.5a.6.6,0,0,0-.1.4,1,1,0,0,0,1.1,1c.3,0,.7-.1.8-.4l.3-.3v.4a.6.6,0,0,0,.5.7,1.9,1.9,0,0,0,.9-.4l.8-.8v.5a4.1,4.1,0,0,1-1,1.1,1.3,1.3,0,0,1-.9.2.9.9,0,0,1-.7-.6l-.8.2a1.5,1.5,0,0,1-1.4-.8,1.7,1.7,0,0,1-1.2.5,1.7,1.7,0,0,1-1.2-.6,1.5,1.5,0,0,1-1.1.4,1.4,1.4,0,0,1-1.3-.7,1.7,1.7,0,0,1-1.4.7,1.5,1.5,0,0,1-1.1-.4,1.7,1.7,0,0,1-1.2.6,1.7,1.7,0,0,1-1.2-.5,1.5,1.5,0,0,1-1.4.8l-.8-.2a.9.9,0,0,1-.7.6,1.3,1.3,0,0,1-.9-.2,4.1,4.1,0,0,1-1-1.1v-.5l.8.8a1.9,1.9,0,0,0,.9.4.6.6,0,0,0,.5-.7v-.4l.3.3c.1.3.5.4.8.4a1,1,0,0,0,1.1-1,.6.6,0,0,0-.1-.4l.2-.5.3.4h0a1.1,1.1,0,0,0,1.1,1.1,1,1,0,0,0,1.1-.9c.1,0,.1-.4.1-.4s.1.4.1.3a1.2,1.2,0,0,0,1.1.8,1.1,1.1,0,0,0,1.1-1.1v-.4Z" style="fill:#c8b100;stroke:#000;stroke-width:0.25999999046325684px"/><path d="M324.8,222.2a26.4,26.4,0,0,0-7.6,1l-.4-.2c0-.1.1-.3.2-.3a27.9,27.9,0,0,1,7.8-1,28.7,28.7,0,0,1,7.9,1,.2.2,0,0,1,.1.3l-.3.2A27.2,27.2,0,0,0,324.8,222.2Z" style="fill:#c8b100;stroke:#000;stroke-linejoin:round;stroke-width:0.25999999046325684px"/><path d="M314.6,221l-.7-.7c-.1-.2-.6-.4-.6-.4l.6-.2a.4.4,0,0,1,.4.2v-.2a.4.4,0,0,1,.4.3,1.5,1.5,0,0,1,0,.7.5.5,0,0,1-.1.3Z" style="fill:#c8b100;stroke:#000;stroke-width:0.25999999046325684px"/><path d="M316.5,220.2v.7h-1.6v-.2l1.1-.9.6.4" style="fill:#c8b100;stroke:#000;stroke-width:0.25999999046325684px"/><path d="M314.6,220.8c.1-.2.4-.1.5,0s.3.4.2.5a.5.5,0,0,1-.6-.1C314.6,221.1,314.5,220.9,314.6,220.8Z" style="fill:#c8b100;stroke:#000;stroke-width:0.25999999046325684px"/><path d="M317.2,220.9c-.1-.2,0-.4.1-.4s.3.1.4.2a.4.4,0,0,1-.1.5C317.4,221.2,317.3,221.1,317.2,220.9Z" style="fill:#c8b100;stroke:#000;stroke-width:0.25999999046325684px"/><path d="M317.8,220l.5.5,1.3-.6v-.3h-1.6l-.3.6" style="fill:#c8b100;stroke:#000;stroke-width:0.25999999046325684px"/><path d="M319.2,217.8l-.6.6.8,1.1h.3v-.2l.3-1.3-.9-.3" style="fill:#c8b100;stroke:#000;stroke-width:0.25999999046325684px"/><path d="M321.5,219.3l-.2.6h-1.4l-.2-.2v-.2l1.2-.6.5.5" style="fill:#c8b100;stroke:#000;stroke-width:0.25999999046325684px"/><ellipse cx="319.7" cy="219.6" rx="0.5" ry="0.5" style="fill:#c8b100;stroke:#000;stroke-width:0.25999999046325684px"/><path d="M322,219.9c0-.1.1-.3.2-.3s.3.1.4.3-.1.4-.3.4S322.1,220.1,322,219.9Z" style="fill:#c8b100;stroke:#000;stroke-width:0.25999999046325684px"/><path d="M322.9,219.2l.4.6,1.4-.4V219l-1.4-.4-.4.6" style="fill:#c8b100;stroke:#000;stroke-width:0.25999999046325684px"/><path d="M324.8,217.1l-.8.6.6,1.4h.5l.6-1.4-.9-.6" style="fill:#c8b100;stroke:#000;stroke-width:0.25999999046325684px"/><path d="M326.7,219.2l-.4.6-1.3-.4V219l1.3-.4.4.6" style="fill:#c8b100;stroke:#000;stroke-width:0.25999999046325684px"/><ellipse cx="324.8" cy="219.2" rx="0.5" ry="0.5" style="fill:#c8b100;stroke:#000;stroke-width:0.25999999046325684px"/><path d="M327.7,219.9a.3.3,0,0,0-.3-.3c-.1-.1-.2.1-.3.3s.1.4.3.4S327.6,220.1,327.7,219.9Z" style="fill:#c8b100;stroke:#000;stroke-width:0.25999999046325684px"/><path d="M328.2,219.3l.2.6h1.4l.2-.2v-.2l-1.2-.6-.5.5" style="fill:#c8b100;stroke:#000;stroke-width:0.25999999046325684px"/><path d="M330.4,217.8l.7.6-.9,1.1H330v-.2l-.3-1.3.8-.3" style="fill:#c8b100;stroke:#000;stroke-width:0.25999999046325684px"/><path d="M331.8,220l-.5.5-1.2-.6v-.3h1.6l.2.6" style="fill:#c8b100;stroke:#000;stroke-width:0.25999999046325684px"/><ellipse cx="330" cy="219.6" rx="0.5" ry="0.5" style="fill:#c8b100;stroke:#000;stroke-width:0.25999999046325684px"/><path d="M332.5,220.9c.1-.2,0-.4-.1-.4s-.3.1-.4.2a.4.4,0,0,0,.1.5C332.3,221.2,332.4,221.1,332.5,220.9Z" style="fill:#c8b100;stroke:#000;stroke-width:0.25999999046325684px"/><path d="M334.9,221l.7-.7.6-.4-.6-.2a.4.4,0,0,0-.4.2v-.2a.4.4,0,0,0-.4.3,1.5,1.5,0,0,0,0,.7.5.5,0,0,0,.1.3Z" style="fill:#c8b100;stroke:#000;stroke-width:0.25999999046325684px"/><path d="M333,220.2v.7h1.6v-.2l-1.1-.9-.6.4" style="fill:#c8b100;stroke:#000;stroke-width:0.25999999046325684px"/><path d="M334.9,220.8c-.1-.2-.3-.1-.5,0s-.3.4-.1.5.3.1.5-.1A.2.2,0,0,0,334.9,220.8Z" style="fill:#c8b100;stroke:#000;stroke-width:0.25999999046325684px"/></g><g id="crown_pt2-2" data-name="crown pt2"><path d="M317.2,224.3l.3-.5h.7l-.4.6-.6-.2" style="fill:#ad1519;stroke:#000;stroke-width:0.25999999046325684px"/><path d="M320,223.8h-.7l-.4-.2a.4.4,0,0,1,.3-.4h1.4c.2,0,.4.1.4.2s-.1.4-.3.4H320" style="fill:#058e6e;stroke:#000;stroke-width:0.25999999046325684px"/><ellipse cx="322.4" cy="223.3" rx="0.4" ry="0.4" style="fill:#fff;stroke:#000;stroke-width:0.25999999046325684px"/><path d="M324.9,223.5h-1a.3.3,0,0,1-.3-.3.3.3,0,0,1,.3-.3h2a.3.3,0,0,1,.3.3.5.5,0,0,1-.3.3h-1" style="fill:#ad1519;stroke:#000;stroke-width:0.25999999046325684px"/><ellipse cx="327.3" cy="223.3" rx="0.4" ry="0.4" style="fill:#fff;stroke:#000;stroke-width:0.25999999046325684px"/><path d="M329.7,223.8h.7c.1,0,.3-.1.3-.2s0-.4-.2-.4h-1.4c-.2,0-.4.1-.4.2s.1.4.3.4h.7" style="fill:#058e6e;stroke:#000;stroke-width:0.25999999046325684px"/><path d="M332.4,224.3l-.2-.5h-.7l.3.5h.6" style="fill:#ad1519;stroke:#000;stroke-width:0.25999999046325684px"/><path d="M324.8,226.2a28.1,28.1,0,0,1-6.3-.7,29.2,29.2,0,0,1,12.7,0A28.4,28.4,0,0,1,324.8,226.2Z" style="fill:#ad1519;stroke:#000;stroke-linejoin:round;stroke-width:0.25999999046325684px"/><path d="M326,226.1v-1.2m-.6,1.2v-1.2m-.4,1.2v-1.2" style="fill:none;stroke:#000;stroke-width:0.009999999776482582px"/><path d="M324.6,226.1v-1.2" style="fill:none;stroke:#000;stroke-width:0.019999999552965164px"/><path d="M324.3,226.1v-1.2" style="fill:none;stroke:#000;stroke-width:0.029999999329447746px"/><path d="M323.9,226.1v-1.2" style="fill:none;stroke:#000;stroke-width:0.03999999910593033px"/><path d="M323.6,226.1v-1.2" style="fill:none;stroke:#000;stroke-width:0.03999999910593033px"/><path d="M323.3,226.1v-1.2" style="fill:none;stroke:#000;stroke-width:0.05000000074505806px"/><path d="M322.8,226.1v-1.2m.2,1.2v-1.2" style="fill:none;stroke:#000;stroke-width:0.05999999865889549px"/><path d="M322.3,226v-1m.2,1.1v-1.2" style="fill:none;stroke:#000;stroke-width:0.07000000029802322px"/><path d="M321.6,226v-1m.2,1v-1m.2,1v-1" style="fill:none;stroke:#000;stroke-width:0.07999999821186066px"/><path d="M321.4,226v-.9" style="fill:none;stroke:#000;stroke-width:0.09000000357627869px"/><path d="M321.1,225.9v-.8" style="fill:none;stroke:#000;stroke-width:0.10000000149011612px"/><path d="M320.9,225.9v-.8" style="fill:none;stroke:#000;stroke-width:0.10999999940395355px"/><path d="M320.4,225.8v-.6m.3.7v-.7" style="fill:none;stroke:#000;stroke-width:0.11999999731779099px"/><path d="M320.2,225.8v-.6" style="fill:none;stroke:#000;stroke-width:0.11999999731779099px"/><path d="M319.9,225.7v-.4" style="fill:none;stroke:#000;stroke-width:0.12999999523162842px"/><path d="M319.7,225.7v-.4" style="fill:none;stroke:#000;stroke-width:0.14000000059604645px"/><path d="M319.4,225.6v-.2" style="fill:none;stroke:#000;stroke-width:0.15000000596046448px"/><path d="M319.2,225.6v-.2" style="fill:none;stroke:#000;stroke-width:0.18000000715255737px"/></g></g><g id="pillar_right" data-name="pillar right"><g id="pillar_left-2" data-name="pillar left"><path d="M340.4,330.7a7.8,7.8,0,0,1-3.9-.9,8.6,8.6,0,0,0-3.8-.8,9,9,0,0,0-3.9.8,9.4,9.4,0,0,1-4,.9,9,9,0,0,1-3.9-.9,9.4,9.4,0,0,0-7.6,0,9.8,9.8,0,0,1-4,.9v2.4a9.8,9.8,0,0,0,4-.9,9.4,9.4,0,0,1,7.6,0,9,9,0,0,0,3.9.9,8.2,8.2,0,0,0,4-.9,8.7,8.7,0,0,1,3.9-.8,8.6,8.6,0,0,1,3.8.8,7.8,7.8,0,0,0,3.9.9v-2.4Z" style="fill:#005bbf;stroke:#000;stroke-width:0.38999998569488525px"/><path d="M340.4,333.1a7.8,7.8,0,0,1-3.9-.9,8.6,8.6,0,0,0-3.8-.8,9,9,0,0,0-3.9.8,8.2,8.2,0,0,1-4,.9,9,9,0,0,1-3.9-.9,9.4,9.4,0,0,0-7.6,0,9.8,9.8,0,0,1-4,.9v2.4a8.4,8.4,0,0,0,4-.9,9.4,9.4,0,0,1,7.6,0,9,9,0,0,0,3.9.9,8.2,8.2,0,0,0,4-.9,8.7,8.7,0,0,1,3.9-.8,8.6,8.6,0,0,1,3.8.8,7.8,7.8,0,0,0,3.9.9v-2.4" style="fill:#ccc;stroke:#000;stroke-width:0.38999998569488525px"/><path d="M340.4,335.5a7.8,7.8,0,0,1-3.9-.9,8.6,8.6,0,0,0-3.8-.8,9,9,0,0,0-3.9.8,8.2,8.2,0,0,1-4,.9,9,9,0,0,1-3.9-.9,9.4,9.4,0,0,0-7.6,0,8.4,8.4,0,0,1-4,.9v2.4a8.4,8.4,0,0,0,4-.9,9.4,9.4,0,0,1,7.6,0,7.8,7.8,0,0,0,3.9.9,9.5,9.5,0,0,0,4-.8,7.5,7.5,0,0,1,3.9-.9,8.6,8.6,0,0,1,3.8.8,7.8,7.8,0,0,0,3.9.9v-2.4" style="fill:#005bbf;stroke:#000;stroke-width:0.38999998569488525px"/><path d="M340.4,340.3a9,9,0,0,1-3.9-.8,7.4,7.4,0,0,0-3.8-.9,8.2,8.2,0,0,0-4,.9,9.4,9.4,0,0,1-7.8-.1,8.6,8.6,0,0,0-3.8-.8,9,9,0,0,0-3.9.8,7.8,7.8,0,0,1-3.9.9v-2.4a7.8,7.8,0,0,0,3.9-.9,9,9,0,0,1,3.9-.8,8.6,8.6,0,0,1,3.8.8,7.8,7.8,0,0,0,3.9.9,9,9,0,0,0,3.9-.8,8.2,8.2,0,0,1,4-.9,8.6,8.6,0,0,1,3.8.8,7.8,7.8,0,0,0,3.9.9v2.4" style="fill:#ccc;stroke:#000;stroke-width:0.38999998569488525px"/><path d="M340.4,342.7a9,9,0,0,1-3.9-.8,8.5,8.5,0,0,0-3.8-.9,9.4,9.4,0,0,0-4,.9,9,9,0,0,1-3.9.8,7.8,7.8,0,0,1-3.9-.9,8.6,8.6,0,0,0-3.8-.8,7.8,7.8,0,0,0-3.9.9,9,9,0,0,1-3.9.8v-2.4a7.8,7.8,0,0,0,3.9-.9,9,9,0,0,1,3.9-.8,8.6,8.6,0,0,1,3.8.8,7.8,7.8,0,0,0,3.9.9,9,9,0,0,0,3.9-.8,8.2,8.2,0,0,1,4-.9,7.4,7.4,0,0,1,3.8.9,9,9,0,0,0,3.9.8v2.4Z" style="fill:#005bbf;stroke:#000;stroke-width:0.38999998569488525px"/><path d="M316.1,320.8c0,.2.1.4.1.6a2.7,2.7,0,0,1-2.8,2.6h23a2.7,2.7,0,0,1-2.9-2.6c0-.2.1-.4.1-.6H316.1Z" style="fill:#c8b100;stroke:#000;stroke-linejoin:round;stroke-width:0.38999998569488525px"/><path d="M316.5,319.3h16.7c.6,0,1,.3,1,.7s-.4.8-1,.8H316.5c-.6,0-1-.3-1-.8S315.9,319.3,316.5,319.3Z" style="fill:#c8b100;stroke:#000;stroke-width:0.38999998569488525px"/><path d="M313.4,329.9h22.9V324H313.4Z" style="fill:#c8b100;stroke:#000;stroke-width:0.38999998569488525px"/><path d="M316.7,318.3H333V238.7H316.7Z" style="fill:#ccc;stroke:#000;stroke-width:0.38999998569488525px"/><path d="M328.3,238.8v79.5m1.8-79.5v79.5" style="fill:none;stroke:#000;stroke-width:0.38999998569488525px"/><path d="M313.8,232.4H336v-5.9H313.7v5.9Z" style="fill:#c8b100;stroke:#000;stroke-width:0.38999998569488525px"/><path d="M316.1,236.3h17.6a1.4,1.4,0,0,1-1-1.4,1.4,1.4,0,0,1,1-1.3H316.1a1.3,1.3,0,0,1,1,1.2,1.5,1.5,0,0,1-1,1.4Z" style="fill:#c8b100;stroke:#000;stroke-linejoin:round;stroke-width:0.38999998569488525px"/><path d="M316.5,236.2h16.7c.6,0,1,.3,1,.8a.9.9,0,0,1-1,.8H316.5a.9.9,0,0,1-1-.8C315.5,236.5,315.9,236.2,316.5,236.2Z" style="fill:#c8b100;stroke:#000;stroke-width:0.38999998569488525px"/><path d="M316.5,232.4h16.7c.6,0,1,.3,1,.6s-.4.7-1,.7H316.5c-.6,0-1-.3-1-.7S315.9,232.4,316.5,232.4Z" style="fill:#c8b100;stroke:#000;stroke-width:0.38999998569488525px"/></g></g><g id="ribbon_right" data-name="ribbon right"><g id="ribbon_left-2" data-name="ribbon left"><path d="M338.1,298.6c2.3,1.3,3.8,2.7,3.5,3.3s-.8,1.1-1.8,1.8-2.6,3.1-1.9,4.1a5.9,5.9,0,0,1-2.1-4.5A6,6,0,0,1,338.1,298.6Z" style="fill:#ad1519;stroke:#000;stroke-width:0.38999998569488525px"/><path d="M300.2,268.5c3.5-1.5,9.5-2.6,16.5-2.8a44.2,44.2,0,0,1,7.8.7c9.7,1.6,17.1,5.5,16.5,8.7,0,0,0,.2-.1.2s3.7-8.2,3.7-8.5c.7-3.5-7.5-7.8-18.3-9.6a55.6,55.6,0,0,0-9.6-.8c-6.9,0-12.9.9-16.5,2.3v9.8" style="fill:#ad1519;stroke:#000;stroke-linejoin:round;stroke-width:0.38999998569488525px"/><path d="M333.1,278.5c4.5-.4,7.5-1.6,7.9-3.4s-1.3-3.2-4-4.7c-1.2.1-2.6.3-4,.3v7.8" style="fill:#ad1519;stroke:#000;stroke-width:0.38999998569488525px"/><path d="M316.7,272.4c-2.8.4-4.9,1.1-5.9,2h-.1c-.5,1.1,1.9,3.3,6.1,5.7v-7.8" style="fill:#ad1519;stroke:#000;stroke-width:0.38999998569488525px"/><path d="M343.2,293.8c.4-1.3-4-3.8-10.2-6.1-2.9-1-5.2-2.1-8.1-3.4-8.7-3.8-15-8.2-14.2-9.8h.1c-.5.4-1.2,8.2-1.2,8.2-.8,1.5,5,5.8,13,9.6,2.5,1.2,7.9,3.2,10.4,4.1,4.6,1.6,9.1,4.5,8.6,5.6l1.6-8.1Z" style="fill:#ad1519;stroke:#000;stroke-linejoin:round;stroke-width:0.38999998569488525px"/></g></g><g id="plus_ultra" data-name="plus ultra"><path d="M166.4,264.6c2-.7,3.3-1.5,2.7-3.1s-1.4-1.2-3-.6l-2.7,1,2.4,6,.8-.3.9-.3-1.1-2.6Zm-1.2-2.9.7-.2a1.2,1.2,0,0,1,1.5.8,1.1,1.1,0,0,1-.5,1.5l-.7.4-1-2.5" style="fill:#c8b100"/><path d="M172.8,259.2l-.9.2-.9.2,1.4,6.2,4.4-.8c0-.2-.1-.3-.1-.4v-.4l-2.7.6-1.2-5.6" style="fill:#c8b100"/><path d="M181.6,264.6c.8-2.2,1.8-4.4,2.8-6.6h-1.1a47.8,47.8,0,0,1-1.9,4.8c-.8-1.5-1.7-3-2.4-4.5h-2.1c1.3,2,2.5,4.1,3.7,6.2h1" style="fill:#c8b100"/><path d="M190.7,259.8l.5-.9a4.1,4.1,0,0,0-1.8-.6c-1.8-.2-2.8.6-2.9,1.7s3.3,2,3.1,3.5-.7.9-1.5.9a1.6,1.6,0,0,1-1.5-1.2h-.2l-.5,1.1a5.3,5.3,0,0,0,1.9.6c1.8.2,3.2-.5,3.3-1.7s-3.4-2.3-3.2-3.6.5-.9,1.4-.8a1.3,1.3,0,0,1,1.2,1h.2" style="fill:#c8b100"/><path d="M310.3,265c.6-2.3,1.4-4.6,2.2-6.9h-1.1c-.4,1.6-.9,3.3-1.4,4.9a39.5,39.5,0,0,1-2.8-4.3l-1.1.2h-1c1.5,2,2.9,3.9,4.2,5.9h1" style="fill:#c8b100"/><path d="M316.5,258.2h-1.8v6.4h4.5a.6.6,0,0,1-.1-.4v-.4h-2.7v-5.7" style="fill:#c8b100"/><path d="M323.5,259.2l2.1.3v-.4c0-.1.1-.3.1-.4l-6.1-.5c0,.2.1.3,0,.4s0,.3-.1.4h2.3l-.6,5.7H323l.5-5.8" style="fill:#c8b100"/><path d="M326,265.5l.9.2.8.2.8-2.9h0l.5,1.2.9,2.2,1.1.2,1,.3-.3-.7c-.5-1-1-2-1.4-3s2-.4,2.2-1.3a1.4,1.4,0,0,0-.7-1.5,5.5,5.5,0,0,0-1.8-.6l-2.4-.6-1.6,6.3m3.2-5.4c.7.2,1.5.3,1.5,1.1v.5c-.2.9-1,1.2-2.1.9l.6-2.5" style="fill:#c8b100"/><path d="M337.6,267.5q-.2.9-.3,2.1l.9.4.8.5.6-7.2-.4-.2a.5.5,0,0,0-.4-.2l-6.3,4,.5.3.4.2,1.8-1.3,2.4,1.3Zm-1.8-1.7,2.1-1.4-.3,2.4-1.8-1" style="fill:#c8b100"/></g></g><g id="crown_crest" data-name="crown crest"><path d="M249.6,182.7c6.7,0,12.6,1,16.5,2.5a29.2,29.2,0,0,0,8.4,2.2,31.6,31.6,0,0,0,6.8.2,28.6,28.6,0,0,1,10.6,2.5,29.2,29.2,0,0,1,7.8,4.9l-1.5,1.4-.5,4-4.3,4.9-2.1,1.8-5.1,4.1-2.6.2-.8,2.3-32.9-3.9-33.1,3.9-.7-2.3-2.7-.2-5-4.1-2.2-1.8-4.3-4.9-.4-4-1.6-1.4a29.2,29.2,0,0,1,7.8-4.9,28.6,28.6,0,0,1,10.6-2.5,32.6,32.6,0,0,0,6.9-.2,30.2,30.2,0,0,0,8.4-2.2,45.4,45.4,0,0,1,16-2.5Z" style="fill:#ad1519;stroke:#000;stroke-width:0.25999999046325684px"/><path d="M225.3,191.4l1.4,1.1,2.1-3.4a7.6,7.6,0,0,1-3.8-6.5,2.8,2.8,0,0,1,.1-.9c.2-4.3,5.5-7.9,12.2-7.9a15.2,15.2,0,0,1,8.8,2.5c.1-.7.1-1.3.2-1.9a18.2,18.2,0,0,0-9-2.3c-7.8,0-13.8,4.4-14.1,9.6v.9a9.1,9.1,0,0,0,3.2,7l-1.1,1.8" style="fill:#c8b100;stroke:#000;stroke-width:0.38999998569488525px"/><path d="M225.4,191.5a9.8,9.8,0,0,1-4.2-7.6c0-3.4,2.2-6.4,5.5-8.4a9,9,0,0,0-3.5,6.2v.9a9.1,9.1,0,0,0,3.2,7l-1,1.9" style="fill:#c8b100;stroke:#000;stroke-width:0.38999998569488525px"/><path d="M202.2,194.9a9.2,9.2,0,0,1-2.4-6.1,10.6,10.6,0,0,1,.9-4c2.2-4.4,8.9-7.6,16.8-7.6a29.2,29.2,0,0,1,6.1.7l-1,1.5a27.6,27.6,0,0,0-5.1-.5c-7.3,0-13.4,2.9-15.1,6.7a6.6,6.6,0,0,0-.7,3.2,7.5,7.5,0,0,0,2.7,5.8l-2.6,4.3-1.4-1.1,1.8-2.9Z" style="fill:#c8b100;stroke:#000;stroke-width:0.38999998569488525px"/><path d="M204.9,180.5a11.5,11.5,0,0,0-4.2,4.3,10.6,10.6,0,0,0-.9,4,9.2,9.2,0,0,0,2.4,6.1l-1.6,2.6a11.2,11.2,0,0,1-2.4-6.7c0-4.2,2.7-7.9,6.7-10.3Z" style="fill:#c8b100;stroke:#000;stroke-width:0.38999998569488525px"/><path d="M250,171.3a3.7,3.7,0,0,1,3.7,2.7,31.5,31.5,0,0,1,.4,4.6v1.2a29.2,29.2,0,0,0,1.3,8.5l-5.4,5.1-5.4-5.1a29.2,29.2,0,0,0,1.3-8.5v-1.2c.1-1.7.2-3.2.4-4.6a3.8,3.8,0,0,1,3.7-2.7Z" style="fill:#c8b100;stroke:#000;stroke-width:0.38999998569488525px"/><path d="M250,172.9a2,2,0,0,1,1.9,1.4,28.7,28.7,0,0,1,.4,4.4v1.1a30,30,0,0,0,1.2,8l-3.5,3.4-3.5-3.4a30,30,0,0,0,1.2-8v-1.1a28.7,28.7,0,0,1,.4-4.4A2,2,0,0,1,250,172.9Z" style="fill:#c8b100;stroke:#000;stroke-width:0.38999998569488525px"/><path d="M274.7,191.4l-1.4,1.1-2.1-3.4a7.4,7.4,0,0,0,3.8-6.5v-.9c-.2-4.3-5.5-7.9-12.2-7.9a15.3,15.3,0,0,0-8.9,2.5,11.1,11.1,0,0,0-.2-1.9,18.6,18.6,0,0,1,9.1-2.3c7.7,0,13.7,4.4,14,9.6,0,.3.1.6.1.9a9.2,9.2,0,0,1-3.3,7l1.1,1.8" style="fill:#c8b100;stroke:#000;stroke-width:0.38999998569488525px"/><path d="M274.6,191.5c2.6-2,4.3-4.7,4.3-7.6s-2.2-6.4-5.6-8.4a8.6,8.6,0,0,1,3.5,6.2c0,.3.1.6.1.9a9.2,9.2,0,0,1-3.3,7l1,1.9" style="fill:#c8b100;stroke:#000;stroke-width:0.38999998569488525px"/><path d="M297.8,194.9a9.2,9.2,0,0,0,2.4-6.1,9,9,0,0,0-.9-4c-2.1-4.4-8.8-7.6-16.8-7.6a30,30,0,0,0-6.1.7l1.1,1.5a27.3,27.3,0,0,1,5-.5c7.3,0,13.4,2.9,15.1,6.7a6.6,6.6,0,0,1,.8,3.2,7.6,7.6,0,0,1-2.8,5.8l2.6,4.3,1.4-1.1Z" style="fill:#c8b100;stroke:#000;stroke-width:0.38999998569488525px"/><path d="M295.1,180.5a10.7,10.7,0,0,1,4.2,4.3,9,9,0,0,1,.9,4,9.2,9.2,0,0,1-2.4,6.1l1.6,2.6a10.6,10.6,0,0,0,2.4-6.7c0-4.2-2.6-7.9-6.7-10.3Z" style="fill:#c8b100;stroke:#000;stroke-width:0.38999998569488525px"/><ellipse cx="250.1" cy="167.3" rx="4.4" ry="4.2" style="fill:#005bbf;stroke:#000;stroke-width:0.25999999046325684px"/><path d="M248.9,155.5v2.3h-2.4v2.3h2.4v6.6h-3.1c0,.2-.2.4-.2.6a2.9,2.9,0,0,0,.4,1.6h8.1a2.9,2.9,0,0,0,.4-1.6c0-.2-.2-.4-.2-.6h-3v-6.6h2.4v-2.3h-2.4v-2.3Z" style="fill:#c8b100;stroke:#000;stroke-width:0.25999999046325684px"/><ellipse cx="250" cy="188.9" rx="1.9" ry="1.8" style="fill:#fff;stroke:#000;stroke-width:0.38999998569488525px"/><ellipse cx="250" cy="185.4" rx="1.9" ry="1.8" style="fill:#fff;stroke:#000;stroke-width:0.38999998569488525px"/><ellipse cx="250" cy="181.6" rx="1.5" ry="1.4" style="fill:#fff;stroke:#000;stroke-width:0.38999998569488525px"/><ellipse cx="250" cy="178.2" rx="1.1" ry="1" style="fill:#fff;stroke:#000;stroke-width:0.38999998569488525px"/><ellipse cx="250" cy="175.2" rx="0.9" ry="0.8" style="fill:#fff;stroke:#000;stroke-width:0.38999998569488525px"/><ellipse cx="198.9" cy="198.7" rx="1.1" ry="1" style="fill:#fff;stroke:#000;stroke-width:0.38999998569488525px"/><ellipse cx="197.4" cy="196" rx="1.1" ry="1" style="fill:#fff;stroke:#000;stroke-width:0.38999998569488525px"/><ellipse cx="196.4" cy="192.9" rx="1.1" ry="1" style="fill:#fff;stroke:#000;stroke-width:0.38999998569488525px"/><ellipse cx="196.3" cy="189.6" rx="1.1" ry="1" style="fill:#fff;stroke:#000;stroke-width:0.38999998569488525px"/><ellipse cx="197.1" cy="186.4" rx="1.1" ry="1" style="fill:#fff;stroke:#000;stroke-width:0.38999998569488525px"/><ellipse cx="198.8" cy="183.4" rx="1.1" ry="1" style="fill:#fff;stroke:#000;stroke-width:0.38999998569488525px"/><ellipse cx="201.1" cy="181" rx="1.1" ry="1" style="fill:#fff;stroke:#000;stroke-width:0.38999998569488525px"/><ellipse cx="203.7" cy="179" rx="1.1" ry="1" style="fill:#fff;stroke:#000;stroke-width:0.38999998569488525px"/><ellipse cx="206.8" cy="177.4" rx="1.1" ry="1" style="fill:#fff;stroke:#000;stroke-width:0.38999998569488525px"/><ellipse cx="210" cy="176.2" rx="1.1" ry="1" style="fill:#fff;stroke:#000;stroke-width:0.38999998569488525px"/><ellipse cx="213.7" cy="175.5" rx="1.1" ry="1" style="fill:#fff;stroke:#000;stroke-width:0.38999998569488525px"/><ellipse cx="217.1" cy="175.4" rx="1.1" ry="1" style="fill:#fff;stroke:#000;stroke-width:0.38999998569488525px"/><ellipse cx="220.5" cy="175.5" rx="1.1" ry="1" style="fill:#fff;stroke:#000;stroke-width:0.38999998569488525px"/><ellipse cx="224.2" cy="190.3" rx="1.1" ry="1" style="fill:#fff;stroke:#000;stroke-width:0.38999998569488525px"/><ellipse cx="222.3" cy="187.6" rx="1.1" ry="1" style="fill:#fff;stroke:#000;stroke-width:0.38999998569488525px"/><ellipse cx="221.4" cy="184.8" rx="1.1" ry="1" style="fill:#fff;stroke:#000;stroke-width:0.38999998569488525px"/><ellipse cx="221.5" cy="181.6" rx="1.1" ry="1" style="fill:#fff;stroke:#000;stroke-width:0.38999998569488525px"/><ellipse cx="222.2" cy="178.4" rx="1.1" ry="1" style="fill:#fff;stroke:#000;stroke-width:0.38999998569488525px"/><ellipse cx="223.8" cy="175.5" rx="1.1" ry="1" style="fill:#fff;stroke:#000;stroke-width:0.38999998569488525px"/><ellipse cx="226.4" cy="173.5" rx="1.1" ry="1" style="fill:#fff;stroke:#000;stroke-width:0.38999998569488525px"/><ellipse cx="229.4" cy="171.8" rx="1.1" ry="1" style="fill:#fff;stroke:#000;stroke-width:0.38999998569488525px"/><ellipse cx="232.7" cy="170.8" rx="1.1" ry="1" style="fill:#fff;stroke:#000;stroke-width:0.38999998569488525px"/><ellipse cx="236.1" cy="170.2" rx="1.1" ry="1" style="fill:#fff;stroke:#000;stroke-width:0.38999998569488525px"/><ellipse cx="239.5" cy="170.3" rx="1.1" ry="1" style="fill:#fff;stroke:#000;stroke-width:0.38999998569488525px"/><ellipse cx="243" cy="170.9" rx="1.1" ry="1" style="fill:#fff;stroke:#000;stroke-width:0.38999998569488525px"/><ellipse cx="246.2" cy="172" rx="1.1" ry="1" style="fill:#fff;stroke:#000;stroke-width:0.38999998569488525px"/><ellipse cx="253.8" cy="172" rx="1.1" ry="1" style="fill:#fff;stroke:#000;stroke-width:0.38999998569488525px"/><ellipse cx="257" cy="170.9" rx="1.1" ry="1" style="fill:#fff;stroke:#000;stroke-width:0.38999998569488525px"/><ellipse cx="260.5" cy="170.3" rx="1.1" ry="1" style="fill:#fff;stroke:#000;stroke-width:0.38999998569488525px"/><ellipse cx="263.9" cy="170.2" rx="1.1" ry="1" style="fill:#fff;stroke:#000;stroke-width:0.38999998569488525px"/><ellipse cx="267.3" cy="170.8" rx="1.1" ry="1" style="fill:#fff;stroke:#000;stroke-width:0.38999998569488525px"/><ellipse cx="270.6" cy="171.8" rx="1.1" ry="1" style="fill:#fff;stroke:#000;stroke-width:0.38999998569488525px"/><ellipse cx="273.6" cy="173.5" rx="1.1" ry="1" style="fill:#fff;stroke:#000;stroke-width:0.38999998569488525px"/><ellipse cx="276.2" cy="175.5" rx="1.1" ry="1" style="fill:#fff;stroke:#000;stroke-width:0.38999998569488525px"/><ellipse cx="277.9" cy="178.4" rx="1.1" ry="1" style="fill:#fff;stroke:#000;stroke-width:0.38999998569488525px"/><ellipse cx="278.6" cy="181.6" rx="1.1" ry="1" style="fill:#fff;stroke:#000;stroke-width:0.38999998569488525px"/><ellipse cx="278.7" cy="184.8" rx="1.1" ry="1" style="fill:#fff;stroke:#000;stroke-width:0.38999998569488525px"/><ellipse cx="277.7" cy="187.6" rx="1.1" ry="1" style="fill:#fff;stroke:#000;stroke-width:0.38999998569488525px"/><ellipse cx="275.8" cy="190.3" rx="1.1" ry="1" style="fill:#fff;stroke:#000;stroke-width:0.38999998569488525px"/><ellipse cx="279.6" cy="175.5" rx="1.1" ry="1" style="fill:#fff;stroke:#000;stroke-width:0.38999998569488525px"/><ellipse cx="282.9" cy="175.4" rx="1.1" ry="1" style="fill:#fff;stroke:#000;stroke-width:0.38999998569488525px"/><ellipse cx="286.4" cy="175.5" rx="1.1" ry="1" style="fill:#fff;stroke:#000;stroke-width:0.38999998569488525px"/><ellipse cx="290" cy="176.2" rx="1.1" ry="1" style="fill:#fff;stroke:#000;stroke-width:0.38999998569488525px"/><ellipse cx="293.2" cy="177.4" rx="1.1" ry="1" style="fill:#fff;stroke:#000;stroke-width:0.38999998569488525px"/><ellipse cx="296.4" cy="179" rx="1.1" ry="1" style="fill:#fff;stroke:#000;stroke-width:0.38999998569488525px"/><ellipse cx="299" cy="181" rx="1.1" ry="1" style="fill:#fff;stroke:#000;stroke-width:0.38999998569488525px"/><ellipse cx="301.2" cy="183.4" rx="1.1" ry="1" style="fill:#fff;stroke:#000;stroke-width:0.38999998569488525px"/><ellipse cx="302.9" cy="186.4" rx="1.1" ry="1" style="fill:#fff;stroke:#000;stroke-width:0.38999998569488525px"/><ellipse cx="303.7" cy="189.6" rx="1.1" ry="1" style="fill:#fff;stroke:#000;stroke-width:0.38999998569488525px"/><ellipse cx="303.6" cy="192.9" rx="1.1" ry="1" style="fill:#fff;stroke:#000;stroke-width:0.38999998569488525px"/><ellipse cx="302.6" cy="196" rx="1.1" ry="1" style="fill:#fff;stroke:#000;stroke-width:0.38999998569488525px"/><ellipse cx="301.1" cy="198.7" rx="1.1" ry="1" style="fill:#fff;stroke:#000;stroke-width:0.38999998569488525px"/><path d="M250.1,226.2c-12.2,0-23.2-1.5-31-3.9a1.2,1.2,0,0,1-.9-1.2,1.3,1.3,0,0,1,.9-1.2c7.8-2.3,18.8-3.8,31-3.8s23.3,1.5,31.1,3.8a1.3,1.3,0,0,1,.9,1.2,1.2,1.2,0,0,1-.9,1.2c-7.8,2.4-18.8,3.9-31.1,3.9" style="fill:#c8b100;stroke:#000;stroke-width:0.38999998569488525px"/><path d="M250.1,216.1c-12.4,0-23.6,1.6-31.4,4,.6-.3.6-1.1-.2-3.2s-2.5-2.4-2.5-2.4c8.6-2.6,20.7-4.2,34.1-4.2s25.6,1.6,34.3,4.2c0,0-1.5-.1-2.5,2.4s-.9,2.9-.2,3.2c-7.9-2.4-19.2-4-31.6-4" style="fill:#c8b100;stroke:#000;stroke-width:0.38999998569488525px"/><path d="M250.1,210.3c-13.4,0-25.5,1.6-34.1,4.2a1.2,1.2,0,0,1-1.4-.6,1.1,1.1,0,0,1,.7-1.4c8.7-2.6,21.1-4.3,34.8-4.4s26.2,1.8,34.9,4.4a1.1,1.1,0,0,1,.7,1.4,1.2,1.2,0,0,1-1.4.6c-8.6-2.6-20.7-4.2-34.2-4.2" style="fill:#c8b100;stroke:#000;stroke-width:0.38999998569488525px"/><path d="M250.2,199.8l1.2.2a4.4,4.4,0,0,0-.2,1.6,4.8,4.8,0,0,0,4.9,4.7,5.1,5.1,0,0,0,4.7-3.2c.1,0,.4-1.7.7-1.7s.1,1.8.2,1.8a4.7,4.7,0,0,0,4.8,3.9,4.8,4.8,0,0,0,5-4.6c0-.2-.1-.4-.1-.6l1.6-1.5.8,1.9a4.5,4.5,0,0,0,4.2,6.5,4.7,4.7,0,0,0,3.9-2l1-1.2v1.5a3,3,0,0,0,2.2,3.2,6.6,6.6,0,0,0,4-1.7,22.9,22.9,0,0,0,3.5-3.3l.2,1.8a15.8,15.8,0,0,1-3.9,4.1,7.4,7.4,0,0,1-4.3,1.2,4.4,4.4,0,0,1-3-2.8,6.8,6.8,0,0,1-3.5,1,6.7,6.7,0,0,1-6.3-3.9,7,7,0,0,1-5.2,2.3,7.1,7.1,0,0,1-5.6-2.6,7.1,7.1,0,0,1-4.9,1.9,6.9,6.9,0,0,1-5.9-3.1,7.2,7.2,0,0,1-6,3.1,6.7,6.7,0,0,1-4.8-1.9,7.3,7.3,0,0,1-5.6,2.6,7,7,0,0,1-5.2-2.3,6.8,6.8,0,0,1-6.3,3.9,7.2,7.2,0,0,1-3.6-1,4.2,4.2,0,0,1-3,2.8,6.9,6.9,0,0,1-4.2-1.2,15.1,15.1,0,0,1-4-4.1l.2-1.8a28,28,0,0,0,3.6,3.3,6.4,6.4,0,0,0,4,1.7c1.5-.3,2.1-1.7,2.1-3.2v-1.5l1,1.2a4.9,4.9,0,0,0,3.9,2,4.6,4.6,0,0,0,4.7-4.5,3.5,3.5,0,0,0-.5-2l.9-1.9,1.5,1.5v.6a4.8,4.8,0,0,0,4.9,4.6,4.9,4.9,0,0,0,4.9-3.9s0-1.8.2-1.8.6,1.7.7,1.7a4.9,4.9,0,0,0,9.5-1.5,4.4,4.4,0,0,0-.2-1.6l1.3-.2" style="fill:#c8b100;stroke:#000;stroke-width:0.38999998569488525px"/><path d="M208.4,206.3a2.4,2.4,0,0,0-.8-1,1.7,1.7,0,0,0-2.3-.3l-.2.3a8,8,0,0,0-2.4-2.8,7.6,7.6,0,0,0-3.5-.5,2.9,2.9,0,0,1,3-2.9,3.3,3.3,0,0,1,2.5,1.1l.2-1.1a3,3,0,0,1,2,1.8,6.9,6.9,0,0,1-.1,3.8,10.7,10.7,0,0,1,.9-1.6,8.2,8.2,0,0,1,2.5-1.6l1.3-.8a1.5,1.5,0,0,1,.1.6v.8a8.2,8.2,0,0,1,3.8.5,5.4,5.4,0,0,1-2.6,2.3l.8.7.5.5-1.3.2a10.2,10.2,0,0,1-2.7.2l-1.7-.2" style="fill:#c8b100;stroke:#000;stroke-width:0.38999998569488525px"/><path d="M205.3,205a1.7,1.7,0,0,1,2.3.3c.8.6,1.1,1.6.6,2.1a1.7,1.7,0,0,1-2.4-.2c-.8-.7-1-1.7-.5-2.2" style="fill:#ad1519;stroke:#000;stroke-width:0.38999998569488525px"/><path d="M216.4,205.9a1.3,1.3,0,0,1,.6-1.8c.6-.2,1.3.3,1.6,1.1s0,1.7-.6,1.9-1.3-.4-1.6-1.2" style="fill:#fff;stroke:#000;stroke-width:0.38999998569488525px"/><path d="M226.1,201.9a2.6,2.6,0,0,1-.7-1.1,2.1,2.1,0,0,1,.3-1.2,7.5,7.5,0,0,0-1.9-.7,10.2,10.2,0,0,0-2.3-.2h-1.2l.3.6.5.7a5.5,5.5,0,0,0-3,2.1,5.6,5.6,0,0,0,3.6,1,6.6,6.6,0,0,0-.2.9,2.8,2.8,0,0,0-.1.6l1.1-.4c.3-.2,1.5-.6,2.1-1a9.8,9.8,0,0,0,1.5-1.2" style="fill:#c8b100;stroke:#000;stroke-width:0.38999998569488525px"/><path d="M225.7,191.6a5.6,5.6,0,0,1,2.3,3.1s.1-.3.7-.6a2.7,2.7,0,0,1,1.1-.3l-.3,1.3c-.1.3-.1,1.4-.3,2.3a8.4,8.4,0,0,1-.6,1.7,2.2,2.2,0,0,0-1.6-.4,1.6,1.6,0,0,0-1.3.9,6.9,6.9,0,0,1-1.2-1.4,18.9,18.9,0,0,1-1.2-2.1l-.7-1.1a2.5,2.5,0,0,1,1.2-.1,1.5,1.5,0,0,1,.8.3,5.3,5.3,0,0,1,1.1-3.6" style="fill:#c8b100;stroke:#000;stroke-width:0.38999998569488525px"/><path d="M229,201.4a1.7,1.7,0,0,0,.2-1.2,1.7,1.7,0,0,0-.6-1.1,9.9,9.9,0,0,1,1.4-1.3,9.3,9.3,0,0,1,2.2-.9l1-.4v.6l-.2.9a5,5,0,0,1,3.6.9,5.4,5.4,0,0,1-3,2.1l.5.8a1,1,0,0,1,.2.5h-1.1a11,11,0,0,1-2.4-.2l-1.8-.7" style="fill:#c8b100;stroke:#000;stroke-width:0.38999998569488525px"/><ellipse cx="227.4" cy="200.4" rx="2.2" ry="2.1" style="fill:#ad1519;stroke:#000;stroke-width:0.38999998569488525px"/><path d="M237.8,201.8c-.2-.9.3-1.7.9-1.7s1.2.5,1.3,1.4-.3,1.6-.9,1.7-1.2-.6-1.3-1.4" style="fill:#fff;stroke:#000;stroke-width:0.38999998569488525px"/><path d="M248.5,199.8a1.9,1.9,0,0,1,0-2.6,9,9,0,0,0-1.9-1.1,12.8,12.8,0,0,0-2.6-.7l-1.3-.3a2.3,2.3,0,0,0,.2.7,4.1,4.1,0,0,0,.4.9,6.5,6.5,0,0,0-3.8,1.8,6.5,6.5,0,0,0,3.8,1.8,4.1,4.1,0,0,0-.4.9,1.7,1.7,0,0,0-.2.7l1.3-.3a12.8,12.8,0,0,0,2.6-.7,9,9,0,0,0,1.9-1.1" style="fill:#c8b100;stroke:#000;stroke-width:0.38999998569488525px"/><path d="M250.1,188.4a5.5,5.5,0,0,1,2,3.8s.1-.3.9-.5a2.2,2.2,0,0,1,1.2-.2,13,13,0,0,1-.5,1.4c-.2.4-.4,1.5-.8,2.5a13.2,13.2,0,0,1-1.1,1.8,2.1,2.1,0,0,0-3.3,0,13.2,13.2,0,0,1-1.1-1.8c-.4-1-.6-2.1-.8-2.5l-.6-1.4a2.5,2.5,0,0,1,1.3.2,1.6,1.6,0,0,1,.9.5,5.8,5.8,0,0,1,1.9-3.8" style="fill:#c8b100;stroke:#000;stroke-width:0.38999998569488525px"/><path d="M251.8,199.8a1.9,1.9,0,0,0,0-2.6,9,9,0,0,1,1.9-1.1,10.2,10.2,0,0,1,2.6-.7l1.2-.3a4.2,4.2,0,0,1-.1.7l-.4.9a6.8,6.8,0,0,1,3.8,1.8,6.8,6.8,0,0,1-3.8,1.8,4.1,4.1,0,0,1,.4.9,3.2,3.2,0,0,1,.1.7l-1.2-.3a11.3,11.3,0,0,1-2.6-.7,9,9,0,0,1-1.9-1.1" style="fill:#c8b100;stroke:#000;stroke-width:0.38999998569488525px"/><ellipse cx="250.1" cy="198.5" rx="2.2" ry="2.1" style="fill:#ad1519;stroke:#000;stroke-width:0.38999998569488525px"/><path d="M262.6,201.8c.1-.9-.3-1.7-1-1.7s-1.2.5-1.3,1.4.3,1.6.9,1.7,1.3-.6,1.4-1.4" style="fill:#fff;stroke:#000;stroke-width:0.38999998569488525px"/><path d="M271.4,201.4a2.7,2.7,0,0,1-.3-1.2,1.8,1.8,0,0,1,.7-1.1l-1.5-1.3a10.9,10.9,0,0,0-2.1-.9l-1.1-.4a2.8,2.8,0,0,0,.1.6,2.2,2.2,0,0,0,.2.9,5,5,0,0,0-3.6.9,4.8,4.8,0,0,0,3,2.1l-.5.8-.3.5h1.2a10.6,10.6,0,0,0,2.3-.2l1.9-.7" style="fill:#c8b100;stroke:#000;stroke-width:0.38999998569488525px"/><path d="M274.7,191.6a5.2,5.2,0,0,0-2.3,3.1,2.3,2.3,0,0,0-.7-.6,2.7,2.7,0,0,0-1.1-.3s.1.9.2,1.3.1,1.4.3,2.3a14.7,14.7,0,0,0,.7,1.7,2,2,0,0,1,1.5-.4,1.9,1.9,0,0,1,1.4.9,14.6,14.6,0,0,0,1.2-1.4c.5-.8.9-1.8,1.1-2.1l.7-1.1a2,2,0,0,0-1.1-.1,1.7,1.7,0,0,0-.9.3,5.2,5.2,0,0,0-1-3.6" style="fill:#c8b100;stroke:#000;stroke-width:0.38999998569488525px"/><path d="M274.2,201.9a1.9,1.9,0,0,0,.7-1.1,1.6,1.6,0,0,0-.2-1.2,7.8,7.8,0,0,1,1.8-.7,11,11,0,0,1,2.4-.2H280l-.3.6a3,3,0,0,1-.5.7,5.8,5.8,0,0,1,3.1,2.1,5.6,5.6,0,0,1-3.6,1,6.6,6.6,0,0,1,.2.9v.6l-1-.4a19.5,19.5,0,0,1-2.2-1,9.8,9.8,0,0,1-1.5-1.2" style="fill:#c8b100;stroke:#000;stroke-width:0.38999998569488525px"/><ellipse cx="273" cy="200.4" rx="2.2" ry="2.1" style="fill:#ad1519;stroke:#000;stroke-width:0.38999998569488525px"/><path d="M284,205.9c.2-.8,0-1.6-.6-1.8s-1.3.3-1.6,1.1,0,1.7.6,1.9,1.3-.4,1.6-1.2" style="fill:#fff;stroke:#000;stroke-width:0.38999998569488525px"/><path d="M292,206.3a2,2,0,0,1,.7-1,1.7,1.7,0,0,1,2.3-.3c.1.1.2.2.2.3a8,8,0,0,1,2.4-2.8,7.6,7.6,0,0,1,3.5-.5,3.1,3.1,0,0,0-5.4-1.8l-.3-1.1a3.2,3.2,0,0,0-2,1.8,6.9,6.9,0,0,0,.1,3.8,7,7,0,0,0-.8-1.6,11.7,11.7,0,0,0-2.5-1.6l-1.4-.8a2.8,2.8,0,0,1-.1.6,2.8,2.8,0,0,0,.1.8,8.6,8.6,0,0,0-3.9.5,5.4,5.4,0,0,0,2.6,2.3l-.8.7-.4.5,1.2.2a11,11,0,0,0,2.7.2l1.8-.2" style="fill:#c8b100;stroke:#000;stroke-width:0.38999998569488525px"/><path d="M295,205a1.7,1.7,0,0,0-2.3.3,1.5,1.5,0,0,0-.5,2.1,1.6,1.6,0,0,0,2.3-.2c.8-.7,1.1-1.7.5-2.2" style="fill:#ad1519;stroke:#000;stroke-width:0.38999998569488525px"/><path d="M250.1,224.6a116.8,116.8,0,0,1-28.7-3.3,117.8,117.8,0,0,1,28.7-3.2,118.1,118.1,0,0,1,28.8,3.2,117.7,117.7,0,0,1-28.8,3.3Z" style="fill:#ad1519;stroke:#000;stroke-linejoin:round;stroke-width:0.38999998569488525px"/><path d="M258,224.3v-6m-3,6.2v-6.4m-2.3,6.5v-6.5" style="fill:none;stroke:#000;stroke-width:0.05000000074505806px"/><path d="M250.9,224.6v-6.5" style="fill:none;stroke:#000;stroke-width:0.09000000357627869px"/><path d="M249.2,224.6v-6.5" style="fill:none;stroke:#000;stroke-width:0.14000000059604645px"/><path d="M247.5,224.6v-6.5" style="fill:none;stroke:#000;stroke-width:0.18000000715255737px"/><path d="M245.8,224.6v-6.5" style="fill:none;stroke:#000;stroke-width:0.23000000417232513px"/><path d="M244.3,224.6v-6.5" style="fill:none;stroke:#000;stroke-width:0.2800000011920929px"/><path d="M241.5,224.3v-6m1.4,6.1v-6.3" style="fill:none;stroke:#000;stroke-width:0.33000001311302185px"/><path d="M238.9,224v-5.5m1.3,5.7v-5.9" style="fill:none;stroke:#000;stroke-width:0.3700000047683716px"/><path d="M235.4,223.7v-4.8m1.1,4.9v-5.1m1.2,5.2v-5.2" style="fill:none;stroke:#000;stroke-width:0.41999998688697815px"/><path d="M234.1,223.7V219" style="fill:none;stroke:#000;stroke-width:0.46000000834465027px"/><path d="M233,223.4v-4.3" style="fill:none;stroke:#000;stroke-width:0.5099999904632568px"/><path d="M231.7,223.3v-4.1" style="fill:none;stroke:#000;stroke-width:0.5600000023841858px"/><path d="M229.2,222.9v-3.2m1.3,3.4v-3.6" style="fill:none;stroke:#000;stroke-width:0.6000000238418579px"/><path d="M227.9,222.7v-2.9" style="fill:none;stroke:#000;stroke-width:0.6299999952316284px"/><path d="M226.7,222.4v-2.3" style="fill:none;stroke:#000;stroke-width:0.6800000071525574px"/><path d="M225.4,222.1v-1.8" style="fill:none;stroke:#000;stroke-width:0.7300000190734863px"/><path d="M224.1,222v-1.4" style="fill:none;stroke:#000;stroke-width:0.7699999809265137px"/><path d="M222.7,221.7V221" style="fill:none;stroke:#000;stroke-width:0.9100000262260437px"/><path d="M220.1,221.7c7.8-2.2,18.3-3.6,30-3.6s22.3,1.4,30.1,3.6" style="fill:none;stroke:#000;stroke-width:0.38999998569488525px"/><path d="M216.7,217.2l1.2-1.6,3.4.4-2.7,2-1.9-.8" style="fill:#ad1519;stroke:#000;stroke-width:0.38999998569488525px"/><path d="M224,215.3a1.1,1.1,0,1,1,2.2,0,1,1,0,0,1-1.1,1,1.1,1.1,0,0,1-1.1-1" style="fill:#fff;stroke:#000;stroke-width:0.38999998569488525px"/><path d="M233.6,215.1l-2.3.2a1.1,1.1,0,0,1-1.3-.9,1.2,1.2,0,0,1,1-1.1l2.4-.3,2.4-.3a1.2,1.2,0,0,1,1.2.9,1.1,1.1,0,0,1-1,1.2l-2.4.3" style="fill:#058e6e;stroke:#000;stroke-width:0.38999998569488525px"/><path d="M240.5,213.4a1.1,1.1,0,0,1,2.2,0,1.1,1.1,0,0,1-2.2,0" style="fill:#fff;stroke:#000;stroke-width:0.38999998569488525px"/><path d="M250.1,214.2h-3.2a1.1,1.1,0,0,1-1.1-1.1,1,1,0,0,1,1.1-1h6.6a1.1,1.1,0,0,1,1.1,1,1.1,1.1,0,0,1-1.1,1.1h-3.3" style="fill:#ad1519;stroke:#000;stroke-width:0.38999998569488525px"/><path d="M257.6,213.4a1.1,1.1,0,0,1,2.2,0,1.1,1.1,0,0,1-2.2,0" style="fill:#fff;stroke:#000;stroke-width:0.38999998569488525px"/><path d="M266.7,215.1l2.3.2a1.1,1.1,0,0,0,1.3-.9,1.2,1.2,0,0,0-1-1.1l-2.4-.3-2.4-.3a1.2,1.2,0,0,0-1.2.9,1,1,0,0,0,.9,1.2l2.5.3" style="fill:#058e6e;stroke:#000;stroke-width:0.38999998569488525px"/><path d="M274.1,215.3a1.1,1.1,0,0,1,2.2,0,1,1,0,0,1-1.1,1,1.1,1.1,0,0,1-1.1-1" style="fill:#fff;stroke:#000;stroke-width:0.38999998569488525px"/><path d="M283.6,217.2l-1.2-1.6-3.4.4,2.7,2,1.9-.8" style="fill:#ad1519;stroke:#000;stroke-width:0.38999998569488525px"/></g><g id="shield"><g id="Granada"><path d="M250.5,344.3a85.9,85.9,0,0,1-37-8.5,23.7,23.7,0,0,1-13.3-21.2V281.3H300.6v33.3a23.6,23.6,0,0,1-13.4,21.2,84.6,84.6,0,0,1-36.7,8.5Z" style="fill:#ccc;stroke:#000;stroke-width:0.5199999809265137px"/><path d="M252.9,329.5a4.2,4.2,0,0,1,3.2,4.1c0,2.3-2.3,4.1-5.3,4.1s-5.5-1.8-5.5-4.1,1-3.8,3.1-4a1,1,0,0,0-.2-.5l-.7-.6a2.6,2.6,0,0,1,1.3,0l.8.4a3.1,3.1,0,0,1,.5-.7l.7-.5.6.6.2.6.8-.5.9-.3-.3.7a3.5,3.5,0,0,1-.1.7" style="fill:#ffd691;stroke:#000;stroke-width:0.5199999809265137px"/><path d="M250.3,340.3s-4-2.7-5.7-3-4.7-.1-5.7-.2l1.8,1.5a9.4,9.4,0,0,0,3.4,1.9,12.2,12.2,0,0,0,6.2-.2" style="fill:#058e6e;stroke:#000;stroke-width:0.5199999809265137px"/><path d="M251.5,340.6s2.5-2.7,5.2-3.1a15.2,15.2,0,0,1,6.4.6l-1.5.9a7,7,0,0,1-4.2,1.6c-2.2,0-4.6-.3-5-.2l-.9.2" style="fill:#058e6e;stroke:#000;stroke-width:0.5199999809265137px"/><path d="M250.7,337.3a5.1,5.1,0,0,1-1.6-3.7,4.9,4.9,0,0,1,1.6-3.7,4.9,4.9,0,0,1,1.6,3.7,5.1,5.1,0,0,1-1.6,3.7" style="fill:#ad1519;stroke:#000;stroke-width:0.5199999809265137px"/><path d="M249.7,342.7a9,9,0,0,0,.6-2.8,9.3,9.3,0,0,0-.1-2.2h.8a8.3,8.3,0,0,1,.4,2.2,18.4,18.4,0,0,1-.2,2.3l-.7.2-.8.3" style="fill:#058e6e;stroke:#000;stroke-width:0.5199999809265137px"/></g><g id="Aragon"><path d="M250.3,314.6c0,13.1-11.1,23.8-25,23.8s-25.2-10.7-25.2-23.8V281.2h50.2v33.4" style="fill:#ad1519;stroke:#000;stroke-width:0.5199999809265137px"/><path d="M200,314.1a25.7,25.7,0,0,0,5.8,15.7V280.3h-5.7v33.8Z" style="fill:#c8b100;stroke:#000;stroke-width:0.5199999809265137px"/><path d="M211.1,334.2a22.3,22.3,0,0,0,6,2.8V280h-5.9Z" style="fill:#c8b100;stroke:#000;stroke-width:0.5199999809265137px"/><path d="M222.3,338.2a22.4,22.4,0,0,0,5.8,0V280h-5.8Z" style="fill:#c8b100;stroke:#000;stroke-width:0.5199999809265137px"/><path d="M233.3,337a23.7,23.7,0,0,0,6.1-2.6V280h-5.9l-.2,57Z" style="fill:#c8b100;stroke:#000;stroke-width:0.5199999809265137px"/><path d="M244.8,329.2c2.5-2.1,4.8-7.1,5.6-12.7V280h-5.8Z" style="fill:#c8b100;stroke:#000;stroke-width:0.5199999809265137px"/></g><g id="Navarre"><path d="M300.6,281.2v33.4c0,13.1-11.2,23.8-25.1,23.8s-25.2-10.7-25.2-23.8V281.2h50.3" style="fill:#ad1519;stroke:#000;stroke-width:0.5199999809265137px"/><path id="chains_half" data-name="chains half" d="M272.7,306.1c.1-.1.1-.2.2-.4l-4.3-4.7-1.6.7-3.1-3.4,1-1.4-5.3-6h-.3v4l1.8.5v4.5l-1.8.5v4.1a2.3,2.3,0,0,1,1.7,1.6h3.2l.6-1.6h4.7l.5,1.6Zm-7-18.5v1.6h2.8v-1.6ZM258.4,308a1.1,1.1,0,1,0,0-2.2,1.1,1.1,0,1,0,0,2.2Zm16-9.7-1.7-.5v-4.5l1.7-.5v-1.9a2.8,2.8,0,0,1-1.8-1.7h-2.7l-.5,1.7h-4.7l-.5-1.7h-3.1l-.3.7,5.4,5.9,1.7-.7,3,3.4-1,1.5,4.2,4.6h.3Zm-7.2-1.4-1.3,1,1.7,2,1.3-1Zm8,36.2a2.6,2.6,0,0,1-2.5-2,24.2,24.2,0,0,1-4.8-1.3l.9-1.5a14,14,0,0,0,4,1.1,3.6,3.6,0,0,1,1.6-1.4v-5.6l-1.7-.5v-4.4l1.7-.5v-7.7h-.2l-3.9,4.4,1,1.4-3.1,3.4-1.7-.7-3.3,3.7a2.3,2.3,0,0,1-.1,2.8,14.8,14.8,0,0,0,3.3,2.8l-.9,1.4a19.5,19.5,0,0,1-3.8-3.2,2.8,2.8,0,0,1-2.6-.5,2.5,2.5,0,0,1-.3-3.6l.2-.2a16.9,16.9,0,0,1-1.4-5h1.8a15.8,15.8,0,0,0,1,4.3,3.8,3.8,0,0,1,1.5.1l3.3-3.6-1-1.5,3.1-3.4,1.7.7,3.9-4.4-.2-.5H270l-.5,1.6h-4.7l-.6-1.6H261a2.9,2.9,0,0,1-1.7,1.7v4h-1.7v-4a2.6,2.6,0,0,1-1.9-2.5,2.8,2.8,0,0,1,1.9-2.5v-4l-1.7-.5v-4.5l1.7-.5v-4a2.6,2.6,0,0,1,.9-5,2.7,2.7,0,0,1,2.6,1.7h3.1l.5-1.6h4.7l.5,1.6h2.7a2.8,2.8,0,0,1,2.6-1.7v8.3h-.9v2.6h.8v21.6h-.8V321h.8Zm-5.9-18.3-1.3-1.1-1.8,2,1.3,1Zm-10-18.5h-1.7v2.6h1.7Zm9.2,11.4v-1.6h-2.9v1.6Zm-10.6,9.7-1.8-.4-.2-4.4,1.7-.6v2.6a12.7,12.7,0,0,0,.3,2.8Zm1.4-5.5,1.8.4a15.2,15.2,0,0,1,0,2.2c0-.7.2,2.3.2,2.3l-1.7.6a13.3,13.3,0,0,1-.3-2.8Zm10.8,16.9.4-1.7a10.7,10.7,0,0,1-4.1-2.1l-1.3,1.2a18.3,18.3,0,0,0,5,2.6Zm-.8,1.5-1.3,1.2a17.6,17.6,0,0,1-4.1-2.1l.3-1.8a22.6,22.6,0,0,0,5.1,2.7Z" style="fill:#c8b100;stroke:#c8b100;stroke-width:0.25999999046325684px"/><path id="chains_half-2" data-name="chains half" d="M277.7,306.1c0-.1-.1-.2-.2-.4l4.3-4.7,1.7.7,3-3.4-1-1.4,5.4-6h.2v4l-1.7.5v4.5l1.7.5v4.1a2.3,2.3,0,0,0-1.7,1.6h-3.2l-.5-1.6H281l-.5,1.6Zm7-18.5v1.6h-2.8v-1.6ZM292,308a1.1,1.1,0,1,1,1.2-1.1A1.1,1.1,0,0,1,292,308Zm-16-9.7,1.8-.5v-4.5l-1.8-.5v-1.9a2.6,2.6,0,0,0,1.8-1.7h2.7l.5,1.7h4.7l.5-1.7h3.1l.3.7-5.4,5.9-1.6-.7-3.1,3.4,1,1.5-4.2,4.6H276Zm7.3-1.4,1.3,1-1.8,2-1.3-1Zm-8,36.2a2.8,2.8,0,0,0,2.5-2,25.2,25.2,0,0,0,4.7-1.3l-.8-1.5a14.6,14.6,0,0,1-4.1,1.1A3.2,3.2,0,0,0,276,328v-5.6l1.8-.5v-4.4L276,317v-7.7h.2l4,4.4-1,1.4,3,3.4,1.7-.7,3.3,3.7a2.4,2.4,0,0,0,.1,2.8,14.3,14.3,0,0,1-3.2,2.8l.8,1.4a19.5,19.5,0,0,0,3.8-3.2,2.7,2.7,0,0,0,2.6-.5,2.4,2.4,0,0,0,.3-3.6V321a16.8,16.8,0,0,0,1.3-5h-1.7a16,16,0,0,1-1.1,4.3,3.8,3.8,0,0,0-1.5.1l-3.3-3.6,1-1.5-3.1-3.4-1.6.7-4-4.4c.1-.1.1-.3.2-.5h2.8l.5,1.6h4.7l.5-1.6h3.2a2.9,2.9,0,0,0,1.7,1.7v4h1.7v-4a2.6,2.6,0,0,0,1.9-2.5,2.8,2.8,0,0,0-1.9-2.5v-4l1.8-.5v-4.5l-1.8-.5v-4a2.5,2.5,0,0,0-.9-5,2.8,2.8,0,0,0-2.6,1.7h-3.1l-.5-1.6H281l-.5,1.6h-2.7a2.6,2.6,0,0,0-2.5-1.7v8.3h.8v2.6h-.8v21.6h.8V321h-.8Zm5.9-18.3,1.3-1.1,1.7,2-1.3,1Zm9.9-18.5h1.7v2.6h-1.7ZM282,307.7v-1.6h2.8v1.6Zm10.6,9.7,1.7-.4.3-4.4-1.8-.6v2.6a24.6,24.6,0,0,1-.2,2.8Zm-1.5-5.5-1.7.4s-.1,2.9-.1,2.2-.2,2.3-.2,2.3l1.8.6a13.2,13.2,0,0,0,.2-2.8Zm-10.8,16.9-.4-1.7a11.9,11.9,0,0,0,4.2-2.1l1.2,1.2a17,17,0,0,1-5,2.6Zm.8,1.5,1.3,1.2a20.6,20.6,0,0,0,4.2-2.1l-.4-1.8a20.6,20.6,0,0,1-5.1,2.7Z" style="fill:#c8b100;stroke:#c8b100;stroke-width:0.25999999046325684px"/><path d="M272.6,306.9a2.7,2.7,0,0,1,2.7-2.6,2.8,2.8,0,0,1,2.8,2.6,2.7,2.7,0,0,1-2.8,2.6,2.6,2.6,0,0,1-2.7-2.6" style="fill:#058e6e"/></g><g id="Castile"><path d="M200.1,281.2h50.2V225.5H200.1Z" style="fill:#ad1519;stroke:#000;stroke-width:0.5199999809265137px"/><path d="M217.3,238.4h-.9v-.9h-1.6v3.7h1.6v2.5h-3.5v7.4h1.9v14.8h-3.7v7.6h28.4v-7.6h-3.7V251.1h1.9v-7.4h-3.5v-2.5h1.6v-3.7h-1.6v.9h-.9v-.9h-1.6v.9h-1.2v-.9h-1.6v3.7h1.6v2.5h-3.4v-8.1h1.8v-3.7h-1.8v1h-1v-1h-1.6v1h-.9v-1h-1.9v3.7h1.9v8.1h-3.5v-2.5h1.6v-3.7h-1.6v.9h-.9v-.9h-1.9v.9Zm-6.2,35.1h28.4m-28.4-1.8h28.4m-28.4-1.9h28.4M211.1,268h28.4m-28.4-2.1h28.4m-24.7-1.6h21m-21-1.9h21m-21-2h21m-21-1.9h21m-21-1.8h21m-21-1.9h21m-21-1.8h21m-22.9-1.9h24.8m-24.8-1.8h24.8m-24.8-1.9h24.8m-24.8-1.8h24.8m-21.3-1.9h17.8m-10.6-1.8H227m-3.4-1.9H227m-3.4-1.8H227m-3.4-1.9H227m-5.3-2.3h7.2m-12.5,7.9h3.7m-5.3-2.3h6.9m-6.9,33.9v-1.8m0-1.9V268m-1.9,1.8v1.9m3.5,0v-1.9m1.9,3.7v-1.8m0-1.9V268m0-2.1v-1.6m0-1.9v-2m-1.9,7.6v-2.1m-3.5,2.1v-2.1m7.2,0V268m1.6-2.1v-1.6m-5.3-1.9v1.9m3.7-1.9v1.9m3.5-1.9v1.9m-1.9-1.9v-2m1.9-1.9v1.9m0-5.6v1.9m-1.9-3.7v1.8m1.9-3.7V253m-3.5-1.9V253m-3.7-1.9V253m-1.6-3.7v1.8m3.5-1.8v1.8m3.4-1.8v1.8m1.9-3.7v1.9m-3.5-1.9v1.9m-3.7-1.9v1.9m-1.6-3.7v1.8m6.9-1.8v1.8m-3.4-5.5v1.8m15.9-1.8h-3.7m5.3-2.3h-6.9m6.9,33.9v-1.8m0-1.9V268m1.9,1.8v1.9m-3.5,0v-1.9m-1.8,3.7v-1.8m0-1.9V268m0-2.1v-1.6m0-1.9v-2m1.8,7.6v-2.1m3.5,2.1v-2.1m-7.2,0V268m-1.6-2.1v-1.6m5.3-1.9v1.9m-3.7-1.9v1.9m-3.4-1.9v1.9m1.8-1.9v-2m-1.8-1.9v1.9m0-5.6v1.9m1.8-3.7v1.8m-1.8-3.7V253m3.4-1.9V253m3.7-1.9V253m1.6-3.7v1.8m-3.4-1.8v1.8m-3.5-1.8v1.8m-1.8-3.7v1.9m3.4-1.9v1.9m3.7-1.9v1.9m1.6-3.7v1.8m-6.9-1.8v1.8m3.5-5.5v1.8m-7.2,18.7v-2m0-5.6V253m0,5.5v-1.8m0-5.6v-1.8m0-1.9v-1.8m0-3.7V240m0-1.8v-1.9m-8.8,4.9h3.7m3.5-5.6h3.5m3.4,5.6h3.7" style="fill:#c8b100;stroke:#000;stroke-width:0.46000000834465027px"/><path d="M230.1,273.5v-4.8c0-.9-.5-3.7-4.9-3.7s-4.6,2.8-4.6,3.7v4.8Z" style="fill:#c8b100;stroke:#000;stroke-width:0.46000000834465027px"/><path d="M222.2,268.9l-2.3-.2c0-.9.2-2.3.9-2.8l2.1,1.6A3.7,3.7,0,0,0,222.2,268.9Z" style="fill:#c8b100;stroke:#000;stroke-width:0.46000000834465027px"/><path d="M226.1,266.6l1.2-2.1a6.5,6.5,0,0,0-2.1-.4,6.5,6.5,0,0,0-1.9.4l1.2,2.1Z" style="fill:#c8b100;stroke:#000;stroke-width:0.46000000834465027px"/><path d="M228.4,268.9l2.3-.2c0-.9-.2-2.3-.9-2.8l-2.1,1.6A2.7,2.7,0,0,1,228.4,268.9Z" style="fill:#c8b100;stroke:#000;stroke-width:0.46000000834465027px"/><path d="M221.7,260.8v-5.1a2.5,2.5,0,0,0-5,0v5.1Z" style="fill:#c8b100;stroke:#000;stroke-width:0.46000000834465027px"/><path d="M228.9,260.8v-5.1a2.4,2.4,0,0,1,2.5-2.5,2.4,2.4,0,0,1,2.6,2.5v5.1Z" style="fill:#c8b100;stroke:#000;stroke-width:0.46000000834465027px"/><path d="M220.1,248.4l.2-4.7h-4.4l.5,4.7Z" style="fill:#c8b100;stroke:#000;stroke-width:0.46000000834465027px"/><path d="M227.1,248.4l.4-4.7h-4.4l.3,4.7Z" style="fill:#c8b100;stroke:#000;stroke-width:0.46000000834465027px"/><path d="M230.5,248.4l-.5-4.7h4.7l-.5,4.7Z" style="fill:#c8b100;stroke:#000;stroke-width:0.46000000834465027px"/><path d="M228.4,273.5v-4.1c0-.7-.4-2.8-3.2-2.8a2.8,2.8,0,0,0-3,2.8v4.1Z" style="fill:#0039f0"/><path d="M221.3,260.4V256a2.1,2.1,0,1,0-4.2,0v4.4Z" style="fill:#0039f0"/><path d="M229.4,260.4V256a2.1,2.1,0,1,1,4.1,0v4.4Z" style="fill:#0039f0"/></g><g id="Leon"><path d="M250.3,281.2h50.3V225.5H250.3Z" style="fill:#ccc;stroke:#000;stroke-width:0.5199999809265137px"/><path d="M275.9,239.3v-1a11.8,11.8,0,0,1-2.5-.1,7.1,7.1,0,0,1-2.4-1.3c-.8-.6-1.1-1.1-1.7-1.1a3.4,3.4,0,0,0-2.4.4,3.6,3.6,0,0,1,1.8,1.3,5,5,0,0,0,2,1.5,17.1,17.1,0,0,0,3.2.1l1.8.2Z" style="fill:#db4446;stroke:#000;stroke-width:0.38999998569488525px"/><path d="M283.5,237v1.4c.1.7-.2,1.2-.1,1.6l.3.9a2.4,2.4,0,0,1,.2,1l-.7-.6-.6-.4s.1.7.1,1a2.7,2.7,0,0,0,.5,1.3,6.9,6.9,0,0,1,1.1,1.3,8.8,8.8,0,0,1,.1,1.4s-.5-.7-.9-.8l-1.2-.7a2.8,2.8,0,0,1,.8,1.6,4.9,4.9,0,0,1-.4,1.6,3.3,3.3,0,0,0-.8-1.1l-1.1-.9a5.8,5.8,0,0,1,.5,1.9c0,.8-.2,2.5-.2,2.5a3,3,0,0,0-.7-1l-1.1-.8a3.8,3.8,0,0,1,.6,1.2,10.8,10.8,0,0,0,1.9,4.7c.9,1.4,2.4,3.8,5.5,3s2-5,1.3-6.9a17.5,17.5,0,0,1-.9-4.9c0-.8.5-3,.5-3.4a7.5,7.5,0,0,1,.1-3.3,12.3,12.3,0,0,1,1-2.4,3.3,3.3,0,0,0,.4-1.3,9.5,9.5,0,0,0,.1-1.4l.7,1.4a5,5,0,0,1,.2,1.5,2.3,2.3,0,0,1,.9-1.6l2.2-1.5.3-.5a7.7,7.7,0,0,1-.6,2.7l-1.8,2.1a3.9,3.9,0,0,1,1.2-.3,2.1,2.1,0,0,1,.9,0,9.5,9.5,0,0,0-1.4,1.6c-.8,1.2-.5,1.3-1,2.2s-1.1,1-1.8,1.6-.5,4.4-.4,4.9a42.4,42.4,0,0,1,2.1,5.8c0,1,.2,3.3-1.6,4.8s-3.1.9-3.5,1.2a3.1,3.1,0,0,0-1.3,2.9c0,1.8.6,2.1,1.1,2.5s1.2.2,1.3.6l.5.7a1.1,1.1,0,0,1,.3.8c-.1.4-.9,1.3-1.2,1.9a12.9,12.9,0,0,0-.9,2.5c0,.2-.1,1,.2,1.3s.9,1.1.3,1.3-.8-.3-1-.2-.8.5-1,.4-.3-.2-.4-.7,0-.7-.2-.7-.3.1-.3.4-.1.9-.3.9-.6-.4-.8-.5-.9-.2-.9-.5a1.2,1.2,0,0,1,.7-1c.4-.1.8-.3.6-.5a.6.6,0,0,0-.8,0c-.3.2-.8,0-.8-.3a2.8,2.8,0,0,0,.1-.8c0-.2-.5-.5.1-.8s.8.2,1.4.1a1.5,1.5,0,0,0,1.1-.6,1.4,1.4,0,0,0-.2-1.5c-.4-.5-.8-.5-1-.8l-.3-.9a5.6,5.6,0,0,1,0,1.3v.9l-.7-.8a3.3,3.3,0,0,1-.7-1.3v1.3c0,.4.4.7.3.9s-.9-.8-1-.9a3.7,3.7,0,0,1-1.1-1.1,12.1,12.1,0,0,1-.5-1.4c0-.2-.2-1.3,0-1.6a10,10,0,0,1,.4-1.1h-1.4c-.7,0-1.3-.2-1.6.3s-.1,1.5.2,2.9a5.9,5.9,0,0,1,.5,2.2l-.7.9a1.4,1.4,0,0,1-.9,0,3.1,3.1,0,0,0-1.3-.3h-1.4l-1.1-.4c-.3.1-.8.4-.7.8s-.2.7-.5.7l-.9-.3c-.4-.1-.9,0-.8-.4s.2-.4.4-.7.2-.5,0-.6a1,1,0,0,0-.7.2c-.2.1-.5.5-.8.3s-.4-.4-.4-1-.7-1.2-.1-1.2,1.4.5,1.6.1,0-.5-.3-.8-.8-.4-.3-.7.6-.4.7-.6.4-.8.8-.6,0,.7.6,1.4a2,2,0,0,0,2.1.8c1-.1,1.3-.2,1.3-.5s-.1-.8-.1-1,.1-1,.1-1l-.6.6-.4.8a8,8,0,0,1-.1-1.1c0-.3.1-.8.1-.9a5.6,5.6,0,0,0-.2-1,9.3,9.3,0,0,1-.3,1,5.8,5.8,0,0,0-.2,1,1.6,1.6,0,0,1-.4-1.5c.1-.8-.2-1.7.1-2.1s.7-1.6,2-1.7h2.8l2.1-.4-3.7-1.9a14.2,14.2,0,0,1-2.1-2.2,8.7,8.7,0,0,1-.6-1.6,2.1,2.1,0,0,0-1,.3l-1.3,1-.7,1.1s.1-1,.1-1.3a5.4,5.4,0,0,0-.1-.8,3.5,3.5,0,0,1-1,1.7l-1.5,1.2s.1-.7.1-.9a8.7,8.7,0,0,1,.2-1,2.6,2.6,0,0,1-1.2.9c-.8.1-1.8.1-1.9.5s.2,1.1,0,1.4l-.5.6a1.4,1.4,0,0,0-.8-.4.9.9,0,0,0-.7.1s-.3-.4-.2-.6.7-.7.5-.9-.6.1-.9.2-.8.3-.8-.2a1.8,1.8,0,0,0,.1-1c-.2-.3-.1-.5.2-.6s1.1,0,1.2-.2-.3-.5-.9-.6-.8-.5-.5-.8l.5-.6c.2-.3.2-.8.8-.5s.4.8.9,1a3.8,3.8,0,0,0,2.2-.3,13,13,0,0,0,1.5-1,14.2,14.2,0,0,0,1.6-1.1l-1-.8c-.3-.3-.8-.9-1.1-1a8.4,8.4,0,0,0-1.9-.7,9.1,9.1,0,0,1-1.7-.5,2,2,0,0,0,.8-.3c.2-.2.6-.6.9-.5h-1.2c-.3-.1-1-.6-1.3-.6h-.8a3.9,3.9,0,0,1,1.3-.6H263a4.3,4.3,0,0,1-1.2-.6,4.4,4.4,0,0,0-.6-1c-.1-.3-.3-.6-.6-.6s-.8.3-1.1.3-.6-.2-.6-.7,0-.3-.1-.5-.6-.8-.1-.9,1.3.1,1.4-.1-.5-.7-.9-.8-.9-.5-.6-.8l.8-.6c.1-.3.3-.9.7-.7s.9,1.2,1.2,1.2.3-.9.2-1.2,0-.9.3-.8.5.4,1,.4,1.1-.1,1,.2a1.7,1.7,0,0,1-.6,1.1,1.6,1.6,0,0,0-.2,1.5,4.2,4.2,0,0,0,1.1,1.5l1.9.8a9.6,9.6,0,0,0,2.2,1.5l.8.3a3.3,3.3,0,0,1,1.1-.2,11.7,11.7,0,0,0,2.7-.1c.6-.3,1.3-.7,1.1-1.2s-1.4-1-1.3-1.4.5-.4,1.3-.4,1.8.1,2-1,.3-1.6-.8-1.9-1.9-.2-2.1-1-.4-1-.2-1.2a3.4,3.4,0,0,1,1.5-.4,4.5,4.5,0,0,0,1.9-.2c.3-.2.3-.7.6-.9a7.3,7.3,0,0,1,1.6-.4,23.6,23.6,0,0,1,2.8,1.7,16.6,16.6,0,0,1,2.3,2.2" style="fill:#ed72aa;stroke:#000;stroke-width:0.38999998569488525px"/><path d="M269,243.4a2,2,0,0,0-1.1.7,1.3,1.3,0,0,0-.3,1,1.8,1.8,0,0,1,1.5-.3l1.3.3,1.3-.3s-.7.8-.6,1.4.2.9.1,1.1a3.7,3.7,0,0,1-.6,1.7l1.1-.4a5.4,5.4,0,0,0,1.7-.8,5.8,5.8,0,0,0,.9-1,6.3,6.3,0,0,0,0,1.4,7.5,7.5,0,0,1,.3,1.7,3.1,3.1,0,0,1,.8-.7,1.8,1.8,0,0,0,.9-.7,2.6,2.6,0,0,0,.3-1,3.4,3.4,0,0,0,.4,1.3,8.9,8.9,0,0,1,.7,1.8,4.3,4.3,0,0,1,.6-1.2c.3-.4.7-.8.7-1.1a2.6,2.6,0,0,0,0-.9l.3.9m-11.4.6a4.1,4.1,0,0,1,1-1.1l1.2-.8.9-.5m1,5.2,1.4-.7a4,4,0,0,0,1.2-1.2" style="fill:none;stroke:#000;stroke-width:0.38999998569488525px"/><path d="M282.6,240.9l-.5-.7-.2-.4" style="fill:none;stroke:#000;stroke-width:0.25999999046325684px"/><path d="M278.3,257.4s2.1,1.3,2,2.3a5.9,5.9,0,0,1-1.1,2.4" style="fill:none;stroke:#000;stroke-width:0.38999998569488525px"/><path d="M273,236.2l-.2-.6v-.3s.9,0,.9.3-.3.3-.4.4l-.2.2Z" style="stroke:#000;stroke-width:0.25999999046325684px"/><path d="M277.1,234.9v-.5a2,2,0,0,1,1.1.3c.6.4,1,1,.9,1s-.5-.2-.8-.3h-.5c-.2,0-.3-.1-.3-.2s0-.3,0-.3Z" style="stroke:#000;stroke-width:0.05000000074505806px"/><path d="M273.1,240.1l.3-.5.3.5h-.6" style="stroke:#000;stroke-width:0.25999999046325684px"/><path d="M273.9,240.1l.4-.5.4.5h-.8" style="stroke:#000;stroke-width:0.25999999046325684px"/><path d="M273.5,236.8l.9.3-.8.4v-.7" style="stroke:#000;stroke-width:0.25999999046325684px"/><path d="M274.5,237.1l.7.2-.5.4-.2-.6" style="stroke:#000;stroke-width:0.25999999046325684px"/><path d="M261.9,236.1l.8.4h.9a5.5,5.5,0,0,0,.1-.9,1.9,1.9,0,0,0-1.3-1.5s.3.8.1,1.1a3.1,3.1,0,0,1-.6.9Z" style="fill:#db4446;stroke:#000;stroke-width:0.38999998569488525px"/><path d="M259.6,237.1a1.3,1.3,0,0,0-1.3-.7,3.1,3.1,0,0,0-1.5.9s1-.1,1.2.1a1.2,1.2,0,0,1,.5.8l.7-.5.4-.6Z" style="fill:#db4446;stroke:#000;stroke-width:0.38999998569488525px"/><path d="M258.5,240.2a3.1,3.1,0,0,0-1.2.6,2.6,2.6,0,0,0-.4,1.4,1.7,1.7,0,0,1,1-.5l1.2.2a3.4,3.4,0,0,1-.3-.8,3,3,0,0,0-.3-.9Z" style="fill:#db4446;stroke:#000;stroke-width:0.38999998569488525px"/><path d="M261.1,250.4a1.5,1.5,0,0,0-1.2-.4,2.5,2.5,0,0,0-1.2,1,2.2,2.2,0,0,1,1-.1,1.6,1.6,0,0,1,.6.5l.5-.5.3-.5Z" style="fill:#db4446;stroke:#000;stroke-width:0.38999998569488525px"/><path d="M260.2,253.3a1.6,1.6,0,0,0-1.2.4,1.7,1.7,0,0,0-.5,1.2,1.3,1.3,0,0,1,.9-.3l.9.2s0-.5.1-.6a1.4,1.4,0,0,0-.2-.9Z" style="fill:#db4446;stroke:#000;stroke-width:0.38999998569488525px"/><path d="M261.7,256.1a2,2,0,0,0,.3,1.3,1.5,1.5,0,0,0,1.1.5l-.3-.8c0-.3.4-.7.4-.7a1.4,1.4,0,0,0-.8-.4Z" style="fill:#db4446;stroke:#000;stroke-width:0.38999998569488525px"/><path d="M269,263.1a1.8,1.8,0,0,0-1.2-.6,2.9,2.9,0,0,0-1.5.7s.9-.1,1.1.2a3.1,3.1,0,0,1,.5.7l.6-.4.5-.6Z" style="fill:#db4446;stroke:#000;stroke-width:0.38999998569488525px"/><path d="M266.8,265.9a1.9,1.9,0,0,0-1.4.4,2.4,2.4,0,0,0-.4,1.3s.6-.6,1.1-.5a3,3,0,0,1,1.1.3s-.1-.5-.2-.8a3.1,3.1,0,0,0-.2-.7Z" style="fill:#db4446;stroke:#000;stroke-width:0.38999998569488525px"/><path d="M268.8,268.9a1.1,1.1,0,0,0-.1,1.1,2.2,2.2,0,0,0,1.1.8,1.1,1.1,0,0,1-.2-.8,3,3,0,0,1,.7-.8l-1.5-.3Z" style="fill:#db4446;stroke:#000;stroke-width:0.38999998569488525px"/><path d="M281.2,270.1a1.7,1.7,0,0,0-1.2.1c-.5.2-.9,1.4-.9,1.4a3.1,3.1,0,0,1,1.3-.6l1,.3v-.7l-.2-.5Z" style="fill:#db4446;stroke:#000;stroke-width:0.38999998569488525px"/><path d="M281.6,273.1s-.6.6-.4,1.2l.7,1.1s-.1-.8.2-1a1.6,1.6,0,0,1,1-.4s-.5-.5-.7-.5Z" style="fill:#db4446;stroke:#000;stroke-width:0.38999998569488525px"/><path d="M284.8,274a1.1,1.1,0,0,0,.2,1.3,2.8,2.8,0,0,0,1.1.6,2.5,2.5,0,0,1-.3-1.2,2.1,2.1,0,0,1,.6-.8l-.9-.2-.8.3Z" style="fill:#db4446;stroke:#000;stroke-width:0.38999998569488525px"/><path d="M282.9,232.7h-.3c0,.1-.2.3-.3.4a.6.6,0,0,1-.8.1c-.1-.2-.2-.3-.2-.5a.4.4,0,0,1-.5,0,.6.6,0,0,1-.1-.8h.1v-.4h-.4v.2a.5.5,0,0,1-.7.2.5.5,0,0,1-.1-.3h-.2c-.5.2-.7-1-.8-1.3v.2a10.9,10.9,0,0,1,.1,1.3,9.1,9.1,0,0,1-.3,1.2,9.2,9.2,0,0,1,2.9,1.7,9,9,0,0,1,2.4,2.4l1.2-.5a4.8,4.8,0,0,1,1.3-.2l.2-.2c-.3,0-1.5.1-1.5-.5a.1.1,0,0,1,.1-.1h-.3c-.2-.1-.2-.4,0-.7h.2v-.4h-.5c-.3.2-.7.3-.9,0s-.2-.2-.1-.4h-.4a.5.5,0,0,1-.2-.8l.4-.3v-.3Z" style="fill:#c8b100;stroke:#000;stroke-width:0.25999999046325684px"/><path d="M280.6,233.4h.3c0,.1.1.2,0,.2h-.2c-.1,0-.1-.1-.1-.2Z" style="stroke:#000;stroke-width:0.05000000074505806px"/><path d="M281.6,234.2l-.4-.3h0c0-.1.1-.1.2,0l.3.2.3.3h-.1l-.3-.2" style="stroke:#000;stroke-width:0.05000000074505806px"/><path d="M279.8,233h-.2a.3.3,0,0,1-.1-.2h.4l.3.2h-.1l-.3-.2" style="stroke:#000;stroke-width:0.05000000074505806px"/><path d="M278.8,232.3c0-.1.2-.1.2,0v.2h-.2v-.2Z" style="stroke:#000;stroke-width:0.05000000074505806px"/><path d="M282.6,234.9c.1,0,.1-.1,0-.2h-.3c0,.1,0,.2.1.2Z" style="stroke:#000;stroke-width:0.05000000074505806px"/><path d="M283.2,235.6l.2.2h.2l-.2-.3-.2-.2H283c-.1,0-.1.1,0,.2l.2.2" style="stroke:#000;stroke-width:0.05000000074505806px"/><path d="M284.1,236.4c.1-.1.1-.2,0-.2h-.2c-.1,0-.1.1,0,.2Z" style="stroke:#000;stroke-width:0.05000000074505806px"/><path d="M281.4,230.4h-.6v1h.1l.8-.5-.3-.5" style="fill:#c8b100;stroke:#000;stroke-width:0.25999999046325684px"/><path d="M281.4,230.4h-.6v1h.1l.8-.5-.3-.5" style="fill:#c8b100;stroke:#000;stroke-width:0.25999999046325684px"/><path d="M279.8,230.8v.6h1l-.5-.7-.5.2" style="fill:#c8b100;stroke:#000;stroke-width:0.25999999046325684px"/><path d="M281.7,231.9l-.5.3-.5-.7v-.2h1v.5" style="fill:#c8b100;stroke:#000;stroke-width:0.25999999046325684px"/><path d="M280.5,231.2h.4a.2.2,0,0,1,.1.3.2.2,0,0,1-.4.1C280.5,231.5,280.4,231.4,280.5,231.2Z" style="fill:#c8b100;stroke:#000;stroke-width:0.25999999046325684px"/><path d="M278.4,230.4c-.1,0-.2-.5-.3-.8l-.4-.4a1,1,0,0,1,.9.1c.4.3-.1.9-.1.9a.1.1,0,0,1-.1.1Z" style="fill:#c8b100;stroke:#000;stroke-width:0.25999999046325684px"/><path d="M279.4,230.7l-.4.3-.7-.6h1v.6" style="fill:#c8b100;stroke:#000;stroke-width:0.25999999046325684px"/><path d="M278.2,230.3c.1-.2.2-.2.3-.2a.2.2,0,0,1,.1.3c0,.2-.2.2-.3.2S278.2,230.4,278.2,230.3Z" style="fill:#c8b100;stroke:#000;stroke-width:0.25999999046325684px"/><path d="M283.7,231.8h-.6l-.3.9h.2l.9-.4-.2-.5" style="fill:#c8b100;stroke:#000;stroke-width:0.25999999046325684px"/><path d="M282,232v.6l.9.2h.2v-.2l-.5-.8-.5.2" style="fill:#c8b100;stroke:#000;stroke-width:0.25999999046325684px"/><path d="M283.7,233.4l-.5.2-.4-.8v-.2h.1l.9.2v.6" style="fill:#c8b100;stroke:#000;stroke-width:0.25999999046325684px"/><path d="M282.6,232.5h.4a.2.2,0,0,1,.1.4h-.4c-.1-.1-.2-.2-.1-.4Z" style="fill:#c8b100;stroke:#000;stroke-width:0.25999999046325684px"/><path d="M285.6,233.6l.2.6-.9.3h-.2l.4-.8h.5" style="fill:#c8b100;stroke:#000;stroke-width:0.25999999046325684px"/><path d="M285.5,235.2h-.6l-.3-.8h.2l.9.4-.2.5" style="fill:#c8b100;stroke:#000;stroke-width:0.25999999046325684px"/><path d="M284,233.7l-.2.5.8.3h.2l-.3-.9-.5.2" style="fill:#c8b100;stroke:#000;stroke-width:0.25999999046325684px"/><path d="M284.9,234.6c.1-.1.1-.2,0-.4h-.4a.3.3,0,0,0,0,.4Z" style="fill:#c8b100;stroke:#000;stroke-width:0.25999999046325684px"/><path d="M286.3,236.4h.8l.5.3c.1,0,.1-.4-.3-.8s-.9.2-.9.2v.2Z" style="fill:#c8b100;stroke:#000;stroke-width:0.25999999046325684px"/><path d="M285.8,235.5l-.3.5.7.5h.2v-.9h-.5" style="fill:#c8b100;stroke:#000;stroke-width:0.25999999046325684px"/><path d="M286.4,236.5a.2.2,0,0,0,.1-.3h-.3c-.2.1-.2.2-.2.3Z" style="fill:#c8b100;stroke:#000;stroke-width:0.25999999046325684px"/></g><g id="inescutcheon"><ellipse cx="250.4" cy="281" rx="16.3" ry="18.3" style="fill:#ad1519;stroke:#000;stroke-width:0.6100000143051147px"/><ellipse cx="250.4" cy="281" rx="11.4" ry="13.4" style="fill:#005bbf;stroke:#000;stroke-width:0.6100000143051147px"/><g id="fdl"><path d="M245,271.7a5.5,5.5,0,0,0-1.3,2.9,6.7,6.7,0,0,0,.5,2.5,1.5,1.5,0,0,0-2.9.5,2.6,2.6,0,0,0,.3.8l.5,1a.9.9,0,0,1,1-.6,1.1,1.1,0,0,1,1,1v.3h-1.2v1H244l-.8,1.6,1-.4.8.9.9-.9,1,.4-.8-1.6h1.1v-1H246v-.3a1.1,1.1,0,0,1,1-1,.9.9,0,0,1,1,.6l.5-1a2.6,2.6,0,0,0,.3-.8,1.5,1.5,0,0,0-2.9-.5,6.7,6.7,0,0,0,.5-2.5,5.3,5.3,0,0,0-1.4-2.9Z" style="fill:#c8b100;stroke:#000;stroke-linejoin:round;stroke-width:0.3400000035762787px"/><path d="M242.9,281.1h4.3v-1h-4.3Z" style="fill:#c8b100;stroke:#000;stroke-width:0.3400000035762787px"/></g><g id="fdl-2" data-name="fdl"><path d="M255.7,271.7a5.3,5.3,0,0,0-1.4,2.9,5.8,5.8,0,0,0,.6,2.5,1.6,1.6,0,0,0-1.4-.9,1.4,1.4,0,0,0-1.5,1.4,2.4,2.4,0,0,0,.2.8l.5,1a1,1,0,0,1,1-.6,1.1,1.1,0,0,1,1.1,1,.4.4,0,0,1-.1.3h-1.2v1h1.1l-.8,1.6,1.1-.4.8.9.8-.9,1.1.4-.8-1.6h1.1v-1h-1.3v-.3a1.1,1.1,0,0,1,2.1-.4l.4-1a2.6,2.6,0,0,0,.3-.8,1.5,1.5,0,0,0-2.9-.5,5.8,5.8,0,0,0,.6-2.5,5.3,5.3,0,0,0-1.4-2.9Z" style="fill:#c8b100;stroke:#000;stroke-linejoin:round;stroke-width:0.3400000035762787px"/><path d="M253.5,281.1h4.4v-1h-4.4Z" style="fill:#c8b100;stroke:#000;stroke-width:0.3400000035762787px"/></g><g id="fdl-3" data-name="fdl"><path d="M250.3,280.9a5.4,5.4,0,0,0-1.3,2.8,6.5,6.5,0,0,0,.6,2.6,1.6,1.6,0,0,0-1.5-1,1.5,1.5,0,0,0-1.5,1.5,2.1,2.1,0,0,0,.3.7l.5,1a.9.9,0,0,1,1-.6,1.1,1.1,0,0,1,1,1.1v.2h-1.2v1h1.1l-.8,1.7,1-.5.8.9.9-.9,1.1.5-.8-1.7h1v-1h-1.2V289a1.1,1.1,0,0,1,1.1-1.1.9.9,0,0,1,.9.6l.5-1a2.1,2.1,0,0,0,.3-.7,1.5,1.5,0,0,0-1.5-1.5,1.4,1.4,0,0,0-1.4,1,7.6,7.6,0,0,0,.5-2.6,5.3,5.3,0,0,0-1.4-2.8Z" style="fill:#c8b100;stroke:#000;stroke-linejoin:round;stroke-width:0.3400000035762787px"/><path d="M248.2,290.2h4.3v-1h-4.3Z" style="fill:#c8b100;stroke:#000;stroke-width:0.3400000035762787px"/></g></g></g></g></svg>