<svg id="Layer_1" data-name="Layer 1" xmlns="http://www.w3.org/2000/svg" viewBox="0 0 823.1 320.2"><defs><style>.cls-1,.cls-6{fill:#fff;stroke:#e6e6e6;}.cls-1{stroke-width:0.54px;}.cls-2{fill:#777;}.cls-3,.cls-7{fill:none;stroke:#f4f4f4;}.cls-3{stroke-width:0.63px;}.cls-4{fill:#373737;}.cls-5{fill:#c4c4c4;}.cls-6{stroke-width:0.86px;}.cls-8{fill:#87d2fd;fill-rule:evenodd;}</style></defs><rect class="cls-1" x="0.3" y="52.3" width="606.5" height="267.46" rx="5.1"/><path d="M81.3,141.4a4.6,4.6,0,0,1-2,1.3,9.3,9.3,0,0,1-2.9.5,6.5,6.5,0,0,1-2.9-.7,4.8,4.8,0,0,1-2-2.2,7.9,7.9,0,0,1-.7-3.2v-.9a7.2,7.2,0,0,1,.7-3.3,4.6,4.6,0,0,1,1.8-2.1,5.5,5.5,0,0,1,2.9-.8,5.2,5.2,0,0,1,3.5,1.1,4.7,4.7,0,0,1,1.6,3.2H78.7a2.2,2.2,0,0,0-.8-1.6,2.1,2.1,0,0,0-1.6-.5,2.4,2.4,0,0,0-2.1,1,5.5,5.5,0,0,0-.7,3v.8a5.1,5.1,0,0,0,.8,3,2.5,2.5,0,0,0,2.2,1.1,2.9,2.9,0,0,0,2.1-.7v-2.2H76.2v-1.9h5.1Zm6.3,1.8a4.9,4.9,0,0,1-3.4-1.3,4.5,4.5,0,0,1-1.3-3.4v-.3a5.1,5.1,0,0,1,.6-2.5,3.4,3.4,0,0,1,1.5-1.8,4.6,4.6,0,0,1,2.3-.6,4,4,0,0,1,3.1,1.2,4.9,4.9,0,0,1,1.1,3.5v1.1h-6a2.6,2.6,0,0,0,.7,1.5,3,3,0,0,0,3.9-.5l1.2,1.4a3.6,3.6,0,0,1-1.5,1.2A5.4,5.4,0,0,1,87.6,143.2Zm-.3-7.8a1.3,1.3,0,0,0-1.2.5,2.6,2.6,0,0,0-.6,1.4H89v-.2a1.8,1.8,0,0,0-.4-1.3A1.7,1.7,0,0,0,87.3,135.4Zm.3-5.9h2.7l-2.4,2.7H85.8Zm7.7,4v1.1a3.2,3.2,0,0,1,2.7-1.3,2.9,2.9,0,0,1,2.3.9,4.1,4.1,0,0,1,.7,2.7V143H98.6v-6.1a1.3,1.3,0,0,0-1.5-1.5,1.7,1.7,0,0,0-1.6.9V143H92.9v-9.5Zm12.1,9.7a5.1,5.1,0,0,1-3.4-1.3,4.9,4.9,0,0,1-1.3-3.4v-.3a5.1,5.1,0,0,1,.6-2.5,4.5,4.5,0,0,1,1.5-1.8,4.8,4.8,0,0,1,2.4-.6,3.8,3.8,0,0,1,3,1.2,5,5,0,0,1,1.2,3.5v1.1h-6.1a2.6,2.6,0,0,0,.7,1.5,3,3,0,0,0,1.6.5,2.6,2.6,0,0,0,2.3-1l1.3,1.4a4,4,0,0,1-1.6,1.2A5.1,5.1,0,0,1,107.4,143.2Zm-.2-7.8a1.5,1.5,0,0,0-1.3.5,2.6,2.6,0,0,0-.6,1.4h3.6v-.2a1.9,1.9,0,0,0-.5-1.3A1.6,1.6,0,0,0,107.2,135.4Zm.2-5.9h2.8l-2.5,2.7h-2Zm10.8,6.4h-1a1.7,1.7,0,0,0-1.8,1V143h-2.6v-9.5h2.4v1.1a2.4,2.4,0,0,1,2.1-1.3h.8Zm6.4,7.1a2,2,0,0,1-.2-.9,3,3,0,0,1-2.4,1.1,3.4,3.4,0,0,1-2.3-.8,2.6,2.6,0,0,1-1-2.1,2.6,2.6,0,0,1,1.2-2.3,5.6,5.6,0,0,1,3.2-.8h1.2v-.6a1.3,1.3,0,0,0-.4-1,1.1,1.1,0,0,0-1-.4,1.3,1.3,0,0,0-1,.3.9.9,0,0,0-.4.8H119a2.3,2.3,0,0,1,.5-1.5,3.1,3.1,0,0,1,1.4-1.1,4.6,4.6,0,0,1,2.1-.4,4.1,4.1,0,0,1,2.8.9,3,3,0,0,1,1,2.5v4.1a5.6,5.6,0,0,0,.4,2.1h-2.6Zm-2.1-1.8a2,2,0,0,0,1.1-.2,2.3,2.3,0,0,0,.7-.7v-1.6h-1c-1.2,0-1.9.4-2,1.3h0a1,1,0,0,0,.3.8A1.2,1.2,0,0,0,122.5,141.2Zm9.3-10v2.3h1.6v1.9h-1.6v4.7a1.5,1.5,0,0,0,.2.8l.8.2h.7v1.9l-1.5.3a2.4,2.4,0,0,1-2.7-2.7v-5.1h-1.4v-1.9h1.4v-2.3Zm7.4,12a4.9,4.9,0,0,1-3.4-1.3,4.5,4.5,0,0,1-1.3-3.4v-.3a5.1,5.1,0,0,1,.6-2.5,3.8,3.8,0,0,1,1.5-1.8,4.6,4.6,0,0,1,2.3-.6,3.9,3.9,0,0,1,3.1,1.2,4.9,4.9,0,0,1,1.1,3.5v1.1h-6a2.6,2.6,0,0,0,.7,1.5,3,3,0,0,0,3.9-.5l1.2,1.4a3.6,3.6,0,0,1-1.5,1.2A5.4,5.4,0,0,1,139.2,143.2Zm-.3-7.8a1.3,1.3,0,0,0-1.2.5,2.6,2.6,0,0,0-.6,1.4h3.5v-.2a1.8,1.8,0,0,0-.4-1.3A1.7,1.7,0,0,0,138.9,135.4Zm11.4,6.6a3.1,3.1,0,0,1-2.6,1.2,3.2,3.2,0,0,1-2.4-.9,3.8,3.8,0,0,1-.8-2.6v-6.2h2.6v6.1c0,1,.4,1.5,1.3,1.5a1.8,1.8,0,0,0,1.8-.9v-6.7h2.5V143h-2.3Zm9.7-6.1h-.9c-1,0-1.6.3-1.9,1V143h-2.5v-9.5h2.4v1.1a2.6,2.6,0,0,1,2.2-1.3h.7Zm5.3,2.3a6.4,6.4,0,0,1,1-3.6,3.6,3.6,0,0,1,2.8-1.3,2.8,2.8,0,0,1,2.2,1.1v-4.9h2.6V143h-2.3v-1a3.2,3.2,0,0,1-2.5,1.2,3.5,3.5,0,0,1-2.7-1.3A6.7,6.7,0,0,1,165.3,138.2Zm2.6.2a3.7,3.7,0,0,0,.4,2,1.5,1.5,0,0,0,1.4.7,1.5,1.5,0,0,0,1.6-1v-3.7a1.5,1.5,0,0,0-1.6-1Q167.9,135.4,167.9,138.4Zm12.3,4.8a4.5,4.5,0,0,1-4.7-4.7v-.3a5.1,5.1,0,0,1,.6-2.5,3.8,3.8,0,0,1,1.5-1.8,4.8,4.8,0,0,1,2.4-.6,3.8,3.8,0,0,1,3,1.2,5,5,0,0,1,1.2,3.5v1.1h-6.1a2.6,2.6,0,0,0,.7,1.5,3,3,0,0,0,1.6.5,2.6,2.6,0,0,0,2.3-1l1.2,1.4a3.1,3.1,0,0,1-1.5,1.2A5.1,5.1,0,0,1,180.2,143.2Zm-.2-7.8a1.4,1.4,0,0,0-1.3.5,2.6,2.6,0,0,0-.6,1.4h3.6v-.2a2.5,2.5,0,0,0-.5-1.3A1.6,1.6,0,0,0,180,135.4Zm18.6,2.9a5.7,5.7,0,0,1-1,3.6,3.2,3.2,0,0,1-2.6,1.3,3.3,3.3,0,0,1-2.4-1v4.5h-2.5V133.5h2.3v.9a3,3,0,0,1,2.4-1.1,3.3,3.3,0,0,1,2.8,1.3,6.4,6.4,0,0,1,.9,3.6Zm-2.5-.2a3.9,3.9,0,0,0-.5-2,1.4,1.4,0,0,0-1.3-.7,1.8,1.8,0,0,0-1.7.9v3.9a1.8,1.8,0,0,0,1.7.9Q196.1,141.1,196.1,138.1Zm9.5-2.2h-.9c-1,0-1.6.3-1.9,1V143h-2.6v-9.5h2.4v1.1a2.4,2.4,0,0,1,2.1-1.3h.8Zm.5,2.3a7.1,7.1,0,0,1,.5-2.6,4.4,4.4,0,0,1,1.6-1.7,4.8,4.8,0,0,1,2.4-.6,4.1,4.1,0,0,1,3.1,1.2,4.8,4.8,0,0,1,1.4,3.2v.6a5.2,5.2,0,0,1-1.2,3.6,4.8,4.8,0,0,1-6.6,0,5.2,5.2,0,0,1-1.2-3.6Zm2.5.1a4.1,4.1,0,0,0,.5,2.1,1.8,1.8,0,0,0,1.5.7,1.5,1.5,0,0,0,1.4-.7,3.4,3.4,0,0,0,.6-2.2,3.3,3.3,0,0,0-.6-2.1,1.5,1.5,0,0,0-1.4-.7,1.8,1.8,0,0,0-1.5.7A4.2,4.2,0,0,0,208.6,138.3Zm16.6,0a5.7,5.7,0,0,1-1,3.6,3.3,3.3,0,0,1-5,.3v4.5h-2.5V133.5H219v.9a3,3,0,0,1,2.4-1.1,3,3,0,0,1,2.7,1.3,5.7,5.7,0,0,1,1,3.6Zm-2.5-.2a3.9,3.9,0,0,0-.5-2,1.5,1.5,0,0,0-1.4-.7,1.7,1.7,0,0,0-1.6.9v3.9a1.8,1.8,0,0,0,1.7.9Q222.7,141.1,222.7,138.1Zm3.7.1a5.5,5.5,0,0,1,.6-2.6,3.5,3.5,0,0,1,1.5-1.7,4.8,4.8,0,0,1,2.4-.6,4.1,4.1,0,0,1,3.1,1.2,4.4,4.4,0,0,1,1.4,3.2v.6a5.2,5.2,0,0,1-1.2,3.6,4.5,4.5,0,0,1-3.3,1.3,4.7,4.7,0,0,1-3.3-1.3,5.2,5.2,0,0,1-1.2-3.6Zm2.5.1a3.3,3.3,0,0,0,.6,2.1,1.5,1.5,0,0,0,1.4.7,1.8,1.8,0,0,0,1.5-.7,4.2,4.2,0,0,0,.5-2.2,4.1,4.1,0,0,0-.5-2.1,1.8,1.8,0,0,0-1.5-.7,1.5,1.5,0,0,0-1.4.7A3.4,3.4,0,0,0,228.9,138.3Zm13.2,2.1a.9.9,0,0,0-.4-.8l-1.5-.4c-2.3-.5-3.4-1.5-3.4-2.9a2.4,2.4,0,0,1,1-2.1,4.3,4.3,0,0,1,2.8-.9,4.4,4.4,0,0,1,2.9.9,2.7,2.7,0,0,1,1.1,2.2H242a1.2,1.2,0,0,0-.3-.9,1.2,1.2,0,0,0-1.1-.4,1.5,1.5,0,0,0-1,.3,1.2,1.2,0,0,0-.4.8.8.8,0,0,0,.4.6,3.8,3.8,0,0,0,1.4.5l1.6.4a2.7,2.7,0,0,1,2,2.6,2.8,2.8,0,0,1-1.1,2.1,5.2,5.2,0,0,1-2.9.8,6.5,6.5,0,0,1-2.1-.4,4.4,4.4,0,0,1-1.5-1.2,3,3,0,0,1-.5-1.6h2.4a1.2,1.2,0,0,0,.5,1,1.7,1.7,0,0,0,1.3.4,2,2,0,0,0,1.1-.3A.9.9,0,0,0,242.1,140.4Zm6.8,2.6h-2.5v-9.5h2.5Zm-2.7-12a1.3,1.3,0,0,1,.4-.9,1.4,1.4,0,0,1,1.1-.4,1.3,1.3,0,0,1,1,.4,1.3,1.3,0,0,1,.4.9,1.8,1.8,0,0,1-.4,1,1.7,1.7,0,0,1-1,.3,1.8,1.8,0,0,1-1.1-.3A1.8,1.8,0,0,1,246.2,131Zm7.9.2v2.3h1.6v1.9h-1.6v4.7c0,.4,0,.6.2.8l.7.2h.8v1.9l-1.5.3a2.5,2.5,0,0,1-2.8-2.7v-5.1h-1.4v-1.9h1.4v-2.3Zm5.7,11.8h-2.6v-9.5h2.6Zm-2.7-12a1,1,0,0,1,.4-.9,1.2,1.2,0,0,1,1-.4,1.4,1.4,0,0,1,1.1.4,1.2,1.2,0,0,1,.3.9,1.3,1.3,0,0,1-.4,1,1.8,1.8,0,0,1-2,0A1.3,1.3,0,0,1,257.1,131Zm4.4,7.2a7.1,7.1,0,0,1,.5-2.6,4.4,4.4,0,0,1,1.6-1.7,4.8,4.8,0,0,1,2.4-.6,4.1,4.1,0,0,1,3.1,1.2,4.8,4.8,0,0,1,1.4,3.2v.6a5.2,5.2,0,0,1-1.2,3.6,4.8,4.8,0,0,1-6.6,0,5.2,5.2,0,0,1-1.2-3.6Zm2.5.1a4.1,4.1,0,0,0,.5,2.1,1.8,1.8,0,0,0,1.5.7,1.5,1.5,0,0,0,1.4-.7,3.4,3.4,0,0,0,.6-2.2,3.3,3.3,0,0,0-.6-2.1,1.5,1.5,0,0,0-1.4-.7,1.8,1.8,0,0,0-1.5.7A4.2,4.2,0,0,0,264,138.3Zm10.4-4.8v1.1a3.2,3.2,0,0,1,2.7-1.3,2.9,2.9,0,0,1,2.3.9,4.1,4.1,0,0,1,.7,2.7V143h-2.5v-6.1a1.3,1.3,0,0,0-1.5-1.5,1.7,1.7,0,0,0-1.6.9V143H272v-9.5Zm12.9,6.9a.8.8,0,0,0-.5-.8l-1.4-.4c-2.3-.5-3.4-1.5-3.4-2.9a2.4,2.4,0,0,1,1-2.1,4.1,4.1,0,0,1,2.8-.9,4.6,4.6,0,0,1,2.9.9,2.7,2.7,0,0,1,1.1,2.2h-2.6a1.2,1.2,0,0,0-.3-.9,1.4,1.4,0,0,0-1.1-.4,1.3,1.3,0,0,0-1,.3.9.9,0,0,0-.4.8.6.6,0,0,0,.4.6,3.2,3.2,0,0,0,1.4.5l1.6.4a2.7,2.7,0,0,1,2,2.6,2.8,2.8,0,0,1-1.1,2.1,5.2,5.2,0,0,1-2.9.8,6.5,6.5,0,0,1-2.1-.4,3.6,3.6,0,0,1-1.5-1.2,3,3,0,0,1-.5-1.6h2.4a1.2,1.2,0,0,0,.5,1,2.1,2.1,0,0,0,2.3.1A.8.8,0,0,0,287.3,140.4Z" transform="translate(-46 -50)"/><path d="M99.3,184.6h-.7l-2.9-4.4v4.4h-.8v-5.7h.8l2.9,4.4v-4.4h.7Zm1.4.5h-.6l2.4-6.2h.6Zm6.5-2h-2.4l-.6,1.5h-.7l2.2-5.7h.6l2.2,5.7h-.8Zm-2.2-.6h2l-1-2.7Z" transform="translate(-46 -50)"/><path d="M144.6,178.8a.8.8,0,0,0-.2-.5,1.9,1.9,0,0,0-.9-.4l-1.1-.5a1.8,1.8,0,0,1-1.1-1.5,1.2,1.2,0,0,1,.3-.9,1.6,1.6,0,0,1,.8-.6,2.7,2.7,0,0,1,1.2-.3,2.1,2.1,0,0,1,1.2.3,1.4,1.4,0,0,1,.8.7,1.7,1.7,0,0,1,.3,1h-1.3a1.4,1.4,0,0,0-.2-.7,1.1,1.1,0,0,0-.8-.2.8.8,0,0,0-.7.2.6.6,0,0,0,0,1l.9.4a3.4,3.4,0,0,1,1.6.8,1.3,1.3,0,0,1,.5,1.2,1.5,1.5,0,0,1-.6,1.3,3.8,3.8,0,0,1-2.9.2l-1-.7a2,2,0,0,1-.3-1.1h1.3c0,.7.4,1,1.3,1a.8.8,0,0,0,.7-.2A.8.8,0,0,0,144.6,178.8Zm4.2,1.7a2.3,2.3,0,0,1-1.6-.6,2.4,2.4,0,0,1-.7-1.6v-.2a2.7,2.7,0,0,1,.3-1.2,1.8,1.8,0,0,1,.8-.9,2.2,2.2,0,0,1,2.6.3,2.3,2.3,0,0,1,.5,1.7v.5h-2.9a1.2,1.2,0,0,0,.4.8.8.8,0,0,0,.7.2c.5,0,.9-.1,1.1-.5l.7.7a1.6,1.6,0,0,1-.8.6A2,2,0,0,1,148.8,180.5Zm-.1-3.8-.6.3-.3.7h1.7c0-.3,0-.5-.2-.6A.6.6,0,0,0,148.7,176.7Zm.1-2.8h1.4l-1.2,1.3h-1Zm4,6.6h-1.3v-6.6h1.3Zm3.1,0a2.1,2.1,0,0,1-1.6-.6,2,2,0,0,1-.7-1.6v-.2a2.7,2.7,0,0,1,.3-1.2,2.2,2.2,0,0,1,.7-.9l1.2-.3a2,2,0,0,1,1.5.6,2.9,2.9,0,0,1,.5,1.7v.5h-2.9a1.1,1.1,0,0,0,.3.8,1.1,1.1,0,0,0,.8.2,1.2,1.2,0,0,0,1.1-.5l.6.7a1.3,1.3,0,0,1-.7.6A2,2,0,0,1,155.9,180.5Zm-.1-3.8a.6.6,0,0,0-.6.3.9.9,0,0,0-.3.7h1.7a.8.8,0,0,0-.2-.6Zm4.7,2.8h.5a.6.6,0,0,0,.2-.5h1.2a1.1,1.1,0,0,1-.3.8,1.1,1.1,0,0,1-.7.6,1.3,1.3,0,0,1-.9.2,2.1,2.1,0,0,1-1.6-.6,2.4,2.4,0,0,1-.6-1.7h0a2.4,2.4,0,0,1,.6-1.7,2.2,2.2,0,0,1,1.6-.7,2.4,2.4,0,0,1,1.4.5,2.2,2.2,0,0,1,.5,1.4h-1.2c0-.3,0-.5-.2-.6a.6.6,0,0,0-.6-.3.6.6,0,0,0-.6.4c-.2.2-.2.5-.2,1h0c0,.5,0,.8.2,1A.8.8,0,0,0,160.5,179.5Zm4.1-4.8v1.1h.8v.9h-.8V179c0,.2,0,.3.1.4h.7v.9h-.7c-.9,0-1.3-.4-1.4-1.3v-2.5h-.6v-.9h.6v-1.1Zm2.8,5.8h-1.3v-4.7h1.3Zm-1.3-5.9c0-.2,0-.3.1-.4l.5-.2.6.2c.1.1.1.2.1.4s0,.4-.2.5a.6.6,0,0,1-.5.2l-.5-.2A.7.7,0,0,1,166.1,174.6Zm2.1,3.5a2.1,2.1,0,0,1,.3-1.2,1.6,1.6,0,0,1,.7-.9,2.4,2.4,0,0,1,1.2-.3,2,2,0,0,1,1.5.6,2.6,2.6,0,0,1,.7,1.6v.3a2.4,2.4,0,0,1-.6,1.7,2.4,2.4,0,0,1-3.2,0,2.4,2.4,0,0,1-.6-1.7Zm1.2.1a1.5,1.5,0,0,0,.3,1,.8.8,0,0,0,.7.3.9.9,0,0,0,.7-.3c.2-.2.2-.6.2-1.1a1.5,1.5,0,0,0-.2-1,1,1,0,0,0-.7-.4.8.8,0,0,0-.7.4A1.6,1.6,0,0,0,169.4,178.2Zm5.1-2.4v.6a1.6,1.6,0,0,1,1.4-.7,1.2,1.2,0,0,1,1,.5,1.7,1.7,0,0,1,.4,1.3v3h-1.2v-3a.8.8,0,0,0-.2-.6l-.6-.2a.8.8,0,0,0-.7.5v3.3h-1.3v-4.7Zm7.1,0v.5a1.8,1.8,0,0,1,1.4-.6,1.3,1.3,0,0,1,1.2.7,1.7,1.7,0,0,1,1.4-.7,1.3,1.3,0,0,1,1.1.5,1.7,1.7,0,0,1,.4,1.3v3h-1.3v-3a1.1,1.1,0,0,0-.1-.6.8.8,0,0,0-.6-.2.7.7,0,0,0-.7.6v3.2h-1.3v-3c0-.3,0-.5-.1-.6l-.6-.2a.8.8,0,0,0-.7.5v3.3h-1.3v-4.7Zm9.1,4.7c0-.2-.1-.3-.1-.5a1.3,1.3,0,0,1-1.2.5,1.5,1.5,0,0,1-1.1-.4,1,1,0,0,1-.4-.9,1.3,1.3,0,0,1,.5-1.2,3.4,3.4,0,0,1,1.6-.4h.5v-.2a1.1,1.1,0,0,0-.1-.6h-1a.5.5,0,0,0-.2.4H188a.8.8,0,0,1,.2-.7,2,2,0,0,1,.7-.6l1-.2a2.2,2.2,0,0,1,1.4.5,1.7,1.7,0,0,1,.5,1.2v2a2.5,2.5,0,0,0,.2,1h-1.3Zm-1-.9h.5c.2-.1.3-.2.3-.4v-.7h-.4c-.6,0-1,.2-1,.6h0c0,.1,0,.2.2.3Zm4.2-3.8v.6a1.5,1.5,0,0,1,1.3-.7,1.3,1.3,0,0,1,1.1.5,1.7,1.7,0,0,1,.4,1.3v3h-1.2v-3a.7.7,0,0,0-.8-.8,1,1,0,0,0-.8.5v3.3h-1.2v-4.7Zm6.5,4.2a1.3,1.3,0,0,1-1.2.5,1.6,1.6,0,0,1-1.2-.4,2.1,2.1,0,0,1-.4-1.2v-3.1h1.3v3c0,.5.2.7.6.7a1,1,0,0,0,.9-.4v-3.3h1.2v4.7h-1.1Zm4.3.5a2.5,2.5,0,0,1-1.7-.6,2.3,2.3,0,0,1-.6-1.6v-.2a2.7,2.7,0,0,1,.3-1.2,1.6,1.6,0,0,1,.7-.9,2.4,2.4,0,0,1,1.2-.3,1.7,1.7,0,0,1,1.4.6,2.4,2.4,0,0,1,.6,1.7v.5h-3a2,2,0,0,0,.4.8,1.1,1.1,0,0,0,.8.2,1.3,1.3,0,0,0,1.1-.5l.6.7a1.2,1.2,0,0,1-.8.6A1.6,1.6,0,0,1,204.7,180.5Zm-.2-3.8-.6.3a1.4,1.4,0,0,0-.2.7h1.7a.8.8,0,0,0-.2-.6A.9.9,0,0,0,204.5,176.7Zm4.1,3.8h-1.2v-6.6h1.2Zm2.3,0h-1.2v-6.6h1.2Zm3.2,0a2.5,2.5,0,0,1-1.7-.6,2.3,2.3,0,0,1-.6-1.6v-.2a2.7,2.7,0,0,1,.3-1.2,1.6,1.6,0,0,1,.7-.9,2.4,2.4,0,0,1,1.2-.3,1.7,1.7,0,0,1,1.4.6,2.4,2.4,0,0,1,.6,1.7v.5h-3a2,2,0,0,0,.4.8,1.1,1.1,0,0,0,.8.2,1.3,1.3,0,0,0,1.1-.5l.6.7a1.2,1.2,0,0,1-.8.6A1.6,1.6,0,0,1,214.1,180.5Zm-.2-3.8a.9.9,0,0,0-.6.3,1.4,1.4,0,0,0-.2.7h1.7a.8.8,0,0,0-.2-.6A.9.9,0,0,0,213.9,176.7Z" transform="translate(-46 -50)"/><path class="cls-2" d="M141.7,194v-5.8h1.6a2.8,2.8,0,0,1,1.3.4,2,2,0,0,1,.9.9,3.2,3.2,0,0,1,.3,1.4v.4a3.2,3.2,0,0,1-.3,1.4,2.8,2.8,0,0,1-.9,1,2.8,2.8,0,0,1-1.3.3Zm.7-5.1v4.5h.8a1.7,1.7,0,0,0,1.4-.6,2.1,2.1,0,0,0,.5-1.5v-.4a2.5,2.5,0,0,0-.5-1.5,1.7,1.7,0,0,0-1.3-.5Zm7.1,5.1a2,2,0,0,1-.1-.5,1.4,1.4,0,0,1-1.2.6,1.5,1.5,0,0,1-1.1-.4,1.3,1.3,0,0,1-.4-.9,1.2,1.2,0,0,1,.5-1,2.4,2.4,0,0,1,1.5-.4h.7v-.3a.8.8,0,0,0-.2-.6.9.9,0,0,0-.7-.3l-.7.2c-.1.2-.2.3-.2.5h-.8a.9.9,0,0,1,.3-.6,1,1,0,0,1,.6-.5l.8-.2a2.1,2.1,0,0,1,1.2.4,1.3,1.3,0,0,1,.4,1v2a2,2,0,0,0,.2.9h-.8Zm-1.2-.6h.6l.5-.5v-.9h-.6c-.9,0-1.3.3-1.3.8a.8.8,0,0,0,.2.5A.7.7,0,0,0,148.3,193.4Zm4-4.7v1h.8v.6h-.8v2.6c0,.2,0,.3.1.4l.3.2h.4v.6h-.6a.8.8,0,0,1-.7-.3,1.2,1.2,0,0,1-.3-.9v-2.6h-.7v-.6h.7v-1Zm3.4,5.4a1.7,1.7,0,0,1-1.4-.6,2,2,0,0,1-.6-1.5v-.2a2,2,0,0,1,.3-1.1,1.8,1.8,0,0,1,.7-.8,1.4,1.4,0,0,1,.9-.3,1.5,1.5,0,0,1,1.3.6,2.5,2.5,0,0,1,.5,1.6v.3h-2.9a1.7,1.7,0,0,0,.3,1,1.2,1.2,0,0,0,.9.4l.7-.2.5-.4.4.4A1.9,1.9,0,0,1,155.7,194.1Zm-.1-3.9a1,1,0,0,0-.7.4,1.3,1.3,0,0,0-.4.9h2.1a1,1,0,0,0-.3-.8A.8.8,0,0,0,155.6,190.2Zm4.4,1.6a2.8,2.8,0,0,1,.5-1.6,1.5,1.5,0,0,1,2.4,0v-2.3h.7V194H163v-.5a1.5,1.5,0,0,1-2.4,0,2.8,2.8,0,0,1-.5-1.6Zm.8.1a1.6,1.6,0,0,0,.3,1.1.9.9,0,0,0,.8.5,1,1,0,0,0,1-.7v-1.9a1,1,0,0,0-1-.6.9.9,0,0,0-.8.4A2.1,2.1,0,0,0,160.8,191.9Zm5.8,2.2a2,2,0,0,1-1.5-.6,2.5,2.5,0,0,1-.5-1.5v-.2a3.6,3.6,0,0,1,.2-1.1,2.7,2.7,0,0,1,.7-.8,1.7,1.7,0,0,1,1-.3,1.6,1.6,0,0,1,1.3.6,2.5,2.5,0,0,1,.4,1.6v.3h-2.9a1.8,1.8,0,0,0,.4,1,1,1,0,0,0,.9.4l.7-.2.4-.4.5.4A1.9,1.9,0,0,1,166.6,194.1Zm-.1-3.9a1.2,1.2,0,0,0-1.1,1.3h2.1a1,1,0,0,0-.3-.8A.8.8,0,0,0,166.5,190.2Zm4.4,1.6a2.8,2.8,0,0,1,.5-1.6,1.5,1.5,0,0,1,2.4,0v-2.3h.7V194h-.7v-.5a1.5,1.5,0,0,1-2.4,0,2.8,2.8,0,0,1-.5-1.6Zm.7.1a1.6,1.6,0,0,0,.3,1.1,1.1,1.1,0,0,0,1.9-.2v-1.9a1.1,1.1,0,0,0-1-.6,1,1,0,0,0-.9.4A2.1,2.1,0,0,0,171.6,191.9Zm5.8,2.2a2,2,0,0,1-1.4-.6,2.5,2.5,0,0,1-.5-1.5v-.2a3.6,3.6,0,0,1,.2-1.1,2.7,2.7,0,0,1,.7-.8,1.6,1.6,0,0,1,.9-.3,1.5,1.5,0,0,1,1.3.6,2.5,2.5,0,0,1,.5,1.6v.3h-2.9a1.3,1.3,0,0,0,.4,1,1,1,0,0,0,.9.4l.6-.2a1,1,0,0,0,.5-.4l.4.4A1.8,1.8,0,0,1,177.4,194.1Zm-.1-3.9a1,1,0,0,0-.7.4,1.9,1.9,0,0,0-.4.9h2.2a3.4,3.4,0,0,0-.3-.8A.9.9,0,0,0,177.3,190.2Zm.4-2.3h.9l-1.1,1.2h-.6Zm5.9,4a2.5,2.5,0,0,1-.5,1.6,1.5,1.5,0,0,1-2.4,0v.5H180v-6.1h.7v2.3a1.5,1.5,0,0,1,2.4,0,2.8,2.8,0,0,1,.5,1.6Zm-.8-.1a2.7,2.7,0,0,0-.2-1.1,1,1,0,0,0-.9-.4,1,1,0,0,0-1,.6v1.9a1.2,1.2,0,0,0,1,.7.9.9,0,0,0,.8-.4A2.3,2.3,0,0,0,182.8,191.8Zm4.3,1.8a1.5,1.5,0,0,1-1.2.5,1.8,1.8,0,0,1-1.1-.4,2.1,2.1,0,0,1-.3-1.2v-2.8h.7v2.8c0,.6.3,1,.8,1a1,1,0,0,0,1.1-.7v-3.1h.7V194h-.6Zm2.9-4.9v1h.8v.6H190v2.6c0,.2,0,.3.1.4l.3.2h.4v.6h-.6a.8.8,0,0,1-.7-.3,1.2,1.2,0,0,1-.3-.9v-2.6h-.8v-.6h.8v-1Zm3.6,4.9a.4.4,0,0,1,.1-.3h.7a.5.5,0,0,1,0,.6h-.7A.4.4,0,0,1,193.6,193.6Zm0-3.5a.4.4,0,0,1,.1-.3h.7a.5.5,0,0,1,0,.6l-.3.2-.4-.2A.4.4,0,0,1,193.6,190.1Zm7.7,3.9h-3.8v-.5l2-2.2a3.5,3.5,0,0,0,.6-.9,1.4,1.4,0,0,0,.2-.6.8.8,0,0,0-.3-.7.9.9,0,0,0-.7-.3,1.2,1.2,0,0,0-.9.3,1.1,1.1,0,0,0-.3.8h-.7a1.7,1.7,0,0,1,.5-1.2,1.7,1.7,0,0,1,1.4-.5,2,2,0,0,1,1.3.4,1.4,1.4,0,0,1,.4,1.1,2.9,2.9,0,0,1-1.1,2l-1.5,1.7h2.9Zm3.2,0h-.8v-4.9l-1.4.6V189l2-.8h.2Zm6.8,0a1.3,1.3,0,0,0-.1-.5,1.4,1.4,0,0,1-1.2.6,1.2,1.2,0,0,1-1-.4,1,1,0,0,1-.4-.9,1,1,0,0,1,.5-1,2,2,0,0,1,1.4-.4h.7v-.3a.8.8,0,0,0-.2-.6.9.9,0,0,0-.7-.3.8.8,0,0,0-.6.2c-.2.2-.3.3-.3.5h-.7a.7.7,0,0,1,.2-.6,1,1,0,0,1,.6-.5l.9-.2a2.1,2.1,0,0,1,1.1.4,1.3,1.3,0,0,1,.4,1v2a2,2,0,0,0,.2.9h-.8Zm-1.2-.6h.7l.4-.5v-.9h-.6c-.9,0-1.3.3-1.3.8a.8.8,0,0,0,.2.5A.7.7,0,0,0,210.1,193.4Zm4.3-.4,1.1-3.3h.7l-1.5,4.3h-.5l-1.6-4.3h.8Zm4.6-2.6h-.3a1,1,0,0,0-1,.6v3h-.8v-4.3h.8v.5a1.1,1.1,0,0,1,1-.6h.3Zm1.5,3.6h-.7v-4.3h.7Zm-.8-5.4a.4.4,0,0,1,.1-.3h.7v.6h-.7A.4.4,0,0,1,219.7,188.6Zm2.8,5.4h-.8v-6.1h.8Z" transform="translate(-46 -50)"/><path class="cls-2" d="M238.7,194v-5.8h1.6a2.8,2.8,0,0,1,1.3.4,2,2,0,0,1,.9.9,3.2,3.2,0,0,1,.3,1.4v.4a3.2,3.2,0,0,1-.3,1.4,2.8,2.8,0,0,1-.9,1,2.8,2.8,0,0,1-1.3.3Zm.7-5.1v4.5h.8a1.7,1.7,0,0,0,1.4-.6,2.1,2.1,0,0,0,.5-1.5v-.4a2.5,2.5,0,0,0-.5-1.5,1.7,1.7,0,0,0-1.3-.5Zm7.1,5.1a2,2,0,0,1-.1-.5,1.4,1.4,0,0,1-1.2.6,1.5,1.5,0,0,1-1.1-.4,1.3,1.3,0,0,1-.4-.9,1.2,1.2,0,0,1,.5-1,2.4,2.4,0,0,1,1.5-.4h.7v-.3a.8.8,0,0,0-.2-.6.9.9,0,0,0-.7-.3l-.7.2c-.1.2-.2.3-.2.5h-.8a.9.9,0,0,1,.3-.6,1,1,0,0,1,.6-.5l.8-.2a2.1,2.1,0,0,1,1.2.4,1.3,1.3,0,0,1,.4,1v2a2,2,0,0,0,.2.9h-.8Zm-1.2-.6h.6l.5-.5v-.9h-.6c-.9,0-1.3.3-1.3.8a.8.8,0,0,0,.2.5A.7.7,0,0,0,245.3,193.4Zm4-4.7v1h.8v.6h-.8v2.6c0,.2,0,.3.1.4l.3.2h.4v.6h-.6a.8.8,0,0,1-.7-.3,1.2,1.2,0,0,1-.3-.9v-2.6h-.7v-.6h.7v-1Zm3.4,5.4a1.7,1.7,0,0,1-1.4-.6,2,2,0,0,1-.6-1.5v-.2a2,2,0,0,1,.3-1.1,1.8,1.8,0,0,1,.7-.8,1.4,1.4,0,0,1,.9-.3,1.5,1.5,0,0,1,1.3.6,2.5,2.5,0,0,1,.5,1.6v.3h-2.9a1.7,1.7,0,0,0,.3,1,1.2,1.2,0,0,0,.9.4l.7-.2.5-.4.4.4A1.9,1.9,0,0,1,252.7,194.1Zm-.1-3.9a1,1,0,0,0-.7.4,1.3,1.3,0,0,0-.4.9h2.1a1,1,0,0,0-.3-.8A.8.8,0,0,0,252.6,190.2Zm4.4,1.6a2.8,2.8,0,0,1,.5-1.6,1.5,1.5,0,0,1,2.4,0v-2.3h.7V194H260v-.5a1.5,1.5,0,0,1-2.4,0,2.8,2.8,0,0,1-.5-1.6Zm.8.1a1.6,1.6,0,0,0,.3,1.1.9.9,0,0,0,.8.5,1,1,0,0,0,1-.7v-1.9a1,1,0,0,0-1-.6.9.9,0,0,0-.8.4A2.1,2.1,0,0,0,257.8,191.9Zm5.8,2.2a2,2,0,0,1-1.5-.6,2.5,2.5,0,0,1-.5-1.5v-.2a3.6,3.6,0,0,1,.2-1.1,2.7,2.7,0,0,1,.7-.8,1.7,1.7,0,0,1,1-.3,1.6,1.6,0,0,1,1.3.6,2.5,2.5,0,0,1,.4,1.6v.3h-2.9a1.8,1.8,0,0,0,.4,1,1,1,0,0,0,.9.4l.7-.2c.1-.1.3-.2.4-.4l.5.4A1.9,1.9,0,0,1,263.6,194.1Zm-.1-3.9a1.2,1.2,0,0,0-1.1,1.3h2.1a1,1,0,0,0-.3-.8A.8.8,0,0,0,263.5,190.2Zm4.8,3.8v-3.7h-.6v-.6h.6v-.3a1.4,1.4,0,0,1,1.6-1.6l1.1.3v.6l-.9-.2a1,1,0,0,0-.7.2.8.8,0,0,0-.2.7v.3h.8v.6h-.8V194Zm3.1,0h-.8v-4.3h.8Zm1.9-4.3v.6a1.4,1.4,0,0,1,1.3-.7c.9,0,1.3.6,1.3,1.6V194h-.7v-2.8a1.2,1.2,0,0,0-.2-.7c-.1-.2-.4-.2-.7-.2a.7.7,0,0,0-.6.2.7.7,0,0,0-.4.5v3h-.7v-4.3Zm5.7,3.9v-.3h.7a.5.5,0,0,1,0,.6h-.7Zm0-3.5v-.3h.7a.5.5,0,0,1,0,.6l-.3.2-.4-.2Zm7.7,3.9h-3.8v-.5l2-2.2a3.5,3.5,0,0,0,.6-.9.7.7,0,0,0,.2-.6,1,1,0,0,0-1-1,1,1,0,0,0-.8.3,1.1,1.1,0,0,0-.3.8h-.8a1.7,1.7,0,0,1,.5-1.2,1.7,1.7,0,0,1,1.4-.5,1.8,1.8,0,0,1,1.3.4,1.4,1.4,0,0,1,.4,1.1,3.1,3.1,0,0,1-1,2l-1.6,1.7h2.9Zm4.3-4.3a1.1,1.1,0,0,1-.3.8,1,1,0,0,1-.6.5,2.2,2.2,0,0,1,.7.6,1.3,1.3,0,0,1,.3.8,1.7,1.7,0,0,1-.5,1.2,1.9,1.9,0,0,1-1.3.5,2.2,2.2,0,0,1-1.4-.5,1.6,1.6,0,0,1-.4-1.2,1.2,1.2,0,0,1,.2-.8l.7-.6-.6-.5a1.9,1.9,0,0,1-.2-.8,1.3,1.3,0,0,1,.5-1.1,1.7,1.7,0,0,1,2.9,1.1Zm-.6,2.7a1,1,0,0,0-1.1-1.1,1,1,0,0,0-.8.3,1.1,1.1,0,0,0-.3.8,1,1,0,0,0,1.1,1.1,1.1,1.1,0,0,0,.8-.3A1,1,0,0,0,290.4,192.4Zm-1.1-3.6-.7.2a1.1,1.1,0,0,0-.3.8.9.9,0,0,0,.3.7l.7.2.7-.2a.8.8,0,0,0,.2-.7,1.1,1.1,0,0,0-.2-.8Zm7.5,5.2c-.1-.1-.1-.2-.1-.5a1.8,1.8,0,0,1-1.3.6,1.3,1.3,0,0,1-1-.4,1,1,0,0,1-.4-.9,1.2,1.2,0,0,1,.5-1,2,2,0,0,1,1.4-.4h.7v-.3c0-.3,0-.5-.2-.6a.8.8,0,0,0-.7-.3l-.6.2c-.2.2-.3.3-.3.5h-.7a1.4,1.4,0,0,1,.2-.6l.6-.5.9-.2a1.6,1.6,0,0,1,1.1.4,1.4,1.4,0,0,1,.5,1v2a2.2,2.2,0,0,0,.1.9h-.7Zm-1.3-.6h.7l.4-.5v-.9h-.5c-.9,0-1.4.3-1.4.8a.5.5,0,0,0,.3.5C295.1,193.4,295.3,193.4,295.5,193.4Zm4.4-.4,1-3.3h.8l-1.6,4.3h-.5l-1.6-4.3h.8Zm4.5-2.6h-.3a1,1,0,0,0-1,.6v3h-.7v-4.3h.7v.5a1.1,1.1,0,0,1,1-.6h.3Zm1.5,3.6h-.7v-4.3h.7Zm-.8-5.4v-.3h.7a.5.5,0,0,1,0,.6h-.7Zm2.8,5.4h-.7v-6.1h.7Z" transform="translate(-46 -50)"/><path class="cls-2" d="M319.4,194.4v-5.8h1.7a2.8,2.8,0,0,1,1.3.3,2.8,2.8,0,0,1,.9,1,3.2,3.2,0,0,1,.3,1.4v.4a3.2,3.2,0,0,1-.3,1.4,2,2,0,0,1-.9.9,3.3,3.3,0,0,1-1.4.4Zm.8-5.2v4.5h.8a1.7,1.7,0,0,0,1.4-.5,2.5,2.5,0,0,0,.5-1.6v-.3a2.3,2.3,0,0,0-.5-1.5,1.6,1.6,0,0,0-1.3-.6Zm7.1,4.7a1.4,1.4,0,0,1-1.3.5,1.5,1.5,0,0,1-1-.3,1.6,1.6,0,0,1-.4-1.2v-2.8h.8v2.8c0,.6.2.9.7.9a1.2,1.2,0,0,0,1.2-.6v-3.1h.7v4.3h-.7Zm3.9-3.2h-.4a1,1,0,0,0-1,.6v3.1h-.7v-4.3h.7v.5a1.2,1.2,0,0,1,1-.6h.4Zm2.3,3.7a1.9,1.9,0,0,1-1.4-.5,2.5,2.5,0,0,1-.5-1.6h0a3.6,3.6,0,0,1,.2-1.1,1.9,1.9,0,0,1,.7-.8,1.7,1.7,0,0,1,1-.3,1.4,1.4,0,0,1,1.2.6,1.7,1.7,0,0,1,.5,1.5v.3h-2.9a1.4,1.4,0,0,0,.4,1.1,1.2,1.2,0,0,0,.9.3h.6l.5-.4.5.3A1.8,1.8,0,0,1,333.5,194.4Zm0-3.8a1.1,1.1,0,0,0-.8.3,1.9,1.9,0,0,0-.4.9h2.2a1.2,1.2,0,0,0-.3-.9A.9.9,0,0,0,333.5,190.6Zm.3-2.3h.9l-1.1,1.2H333Zm4,6.1a1.9,1.9,0,0,1-1.4-.5,2.5,2.5,0,0,1-.5-1.6h0a3.6,3.6,0,0,1,.2-1.1,1.9,1.9,0,0,1,.7-.8,1.6,1.6,0,0,1,.9-.3,1.5,1.5,0,0,1,1.3.6,2.1,2.1,0,0,1,.5,1.5v.3h-2.9a1.4,1.4,0,0,0,.4,1.1,1.2,1.2,0,0,0,.9.3h.6l.5-.4.4.3A1.5,1.5,0,0,1,337.8,194.4Zm-.1-3.8a.9.9,0,0,0-.7.3,1.9,1.9,0,0,0-.4.9h2.2a1.2,1.2,0,0,0-.3-.9A1.1,1.1,0,0,0,337.7,190.6Zm4.6,3.4c0-.1.1-.2.1-.3l.4-.2.3.2a.5.5,0,0,1,0,.6h-.7C342.4,194.2,342.3,194.1,342.3,194Zm0-3.5.2-.3c0-.1.1-.2.3-.2l.3.2.2.3-.2.3h-.6ZM350,189l-2.4,5.4h-.8l2.4-5.2h-3.1v-.6H350Zm3.6,1.1v4.8c0,.8-.3,1.2-1.1,1.2h-.4v-.6h.3a.5.5,0,0,0,.4-.2c.1-.1.1-.2.1-.4v-4.8Zm-.8-1.1a.4.4,0,0,1,.1-.3l.4-.2.3.2c.1,0,.1.1.1.3a.4.4,0,0,1-.1.3h-.7C352.9,189.2,352.8,189.1,352.8,189Zm1.8,3.2a2,2,0,0,1,.3-1.1,1.4,1.4,0,0,1,.7-.8,1.7,1.7,0,0,1,1-.3,2,2,0,0,1,1.4.6,2.8,2.8,0,0,1,.5,1.6h0a3.6,3.6,0,0,1-.2,1.1,2.7,2.7,0,0,1-.7.8,1.6,1.6,0,0,1-1,.2,1.7,1.7,0,0,1-1.4-.6,2.1,2.1,0,0,1-.6-1.6Zm.8.1a2,2,0,0,0,.3,1.1,1,1,0,0,0,.9.4,1.2,1.2,0,0,0,.9-.4,2.5,2.5,0,0,0,0-2.4,1.8,1.8,0,0,0-.9-.4,1.3,1.3,0,0,0-.9.4A2.3,2.3,0,0,0,355.4,192.3Zm6.7,1.6a1.4,1.4,0,0,1-1.3.5,1.5,1.5,0,0,1-1-.3,1.6,1.6,0,0,1-.4-1.2v-2.8h.8v2.8c0,.6.2.9.7.9a1.2,1.2,0,0,0,1.2-.6v-3.1h.7v4.3h-.7Zm3.9-3.2h-.4a1,1,0,0,0-1,.6v3.1h-.7v-4.3h.7v.5a1.2,1.2,0,0,1,1-.6h.4Zm3.1,2.5c0-.2,0-.3-.2-.4l-.8-.3-.8-.3a.7.7,0,0,1-.5-.4.8.8,0,0,1-.2-.5,1.1,1.1,0,0,1,.5-.9,1.4,1.4,0,0,1,1.1-.4,1.6,1.6,0,0,1,1.2.4,1.1,1.1,0,0,1,.4.9h-.7c0-.2-.1-.3-.3-.5l-.6-.2a.8.8,0,0,0-.6.2.5.5,0,0,0-.3.4c0,.2.1.3.3.4l.7.3.9.3a1,1,0,0,1,.5.4,1.4,1.4,0,0,1,.2.6,1.1,1.1,0,0,1-.5.9,2.1,2.1,0,0,1-1.2.3h-.9c-.3-.2-.5-.3-.6-.5a1.1,1.1,0,0,1-.2-.7h.7a.5.5,0,0,0,.3.5.8.8,0,0,0,.7.2h.7C369.1,193.6,369.1,193.4,369.1,193.2Z" transform="translate(-46 -50)"/><path d="M453.9,177.3h.7a.8.8,0,0,0,.7-.2,1.4,1.4,0,0,0,.2-.6.7.7,0,0,0-.9-.8.7.7,0,0,0-.6.2.8.8,0,0,0-.2.5h-1.2a2.9,2.9,0,0,1,.2-.9,1.6,1.6,0,0,1,.8-.6l1-.2a2.1,2.1,0,0,1,1.6.5,1.7,1.7,0,0,1,.5,1.3,1.9,1.9,0,0,1-.2.7,1.3,1.3,0,0,1-.7.6,1.6,1.6,0,0,1,.8.6,2,2,0,0,1,.2.9,1.6,1.6,0,0,1-.6,1.3,2.5,2.5,0,0,1-1.6.5,2.5,2.5,0,0,1-1.5-.5,1.6,1.6,0,0,1-.6-1.3h1.2a.9.9,0,0,0,.3.6l.6.2.7-.2a.9.9,0,0,0,.3-.7c0-.6-.4-.9-1-.9h-.7Zm8,1.1a3,3,0,0,1-.6,2,1.6,1.6,0,0,1-1.5.7,1.9,1.9,0,0,1-1.6-.7,3.3,3.3,0,0,1-.5-1.9v-1.2a2.7,2.7,0,0,1,.5-1.9,1.9,1.9,0,0,1,1.6-.7,1.7,1.7,0,0,1,1.5.7,2.5,2.5,0,0,1,.6,1.9Zm-1.3-1.2a2,2,0,0,0-.2-1.2.6.6,0,0,0-.6-.3.9.9,0,0,0-.7.3,2.7,2.7,0,0,0-.2,1.1v1.5a2.7,2.7,0,0,0,.2,1.1.7.7,0,0,0,.7.4.5.5,0,0,0,.6-.4c.2-.2.2-.6.2-1.1Zm6.2-.8a1.1,1.1,0,0,1-.3.8c-.1.3-.3.4-.6.6a1.1,1.1,0,0,1,.7.6,1.2,1.2,0,0,1,.3.9,1.6,1.6,0,0,1-.6,1.3,2.1,2.1,0,0,1-1.5.5,2.3,2.3,0,0,1-1.5-.5,1.6,1.6,0,0,1-.6-1.3,1.2,1.2,0,0,1,.3-.9,1.1,1.1,0,0,1,.7-.6,2,2,0,0,1-.7-.6,1.9,1.9,0,0,1-.2-.8,1.4,1.4,0,0,1,.6-1.2,2.2,2.2,0,0,1,2.8,0A1.4,1.4,0,0,1,466.8,176.4Zm-1.1,2.8a.9.9,0,1,0-.9.9l.6-.2A.9.9,0,0,0,465.7,179.2Zm-.2-2.7c0-.3,0-.5-.2-.6l-.5-.2-.5.2c-.2.1-.2.3-.2.6a.7.7,0,0,0,.2.6l.5.2.5-.2A.7.7,0,0,0,465.5,176.5Zm2.6,6.1-.6-.4v-.3a1.7,1.7,0,0,0,.3-1v-1H469v.9a2.2,2.2,0,0,1-.3,1A1.6,1.6,0,0,1,468.1,182.6Zm6-7.1-2.4,5.5h-1.3l2.4-5.2h-3.1v-1h4.4Zm4.5,3.2h.7v1h-.7V181h-1.3v-1.3h-2.5v-.8l2.6-4.1h1.3Zm-2.6,0h1.3v-2.2h0Zm9.1.7a.8.8,0,0,0-.2-.6l-.7-.4-.8-.3-.5-.4a2.1,2.1,0,0,1-.4-.6,1.4,1.4,0,0,1-.2-.7,1.7,1.7,0,0,1,1.7-1.7v-.9h.7v.9a2.3,2.3,0,0,1,1.2.6,2.1,2.1,0,0,1,.4,1.4h-1.2a1.9,1.9,0,0,0-.2-.8l-.6-.2c-.2,0-.4,0-.5.2s-.2.3-.2.5,0,.4.2.5.3.3.7.4l.8.4.6.4.3.6a1.5,1.5,0,0,1,.1.7,1.5,1.5,0,0,1-.4,1.1,2.3,2.3,0,0,1-1.3.6v.8h-.7v-.8a2.6,2.6,0,0,1-1.3-.6,2.5,2.5,0,0,1-.5-1.5h1.2a1,1,0,0,0,.3.8.8.8,0,0,0,.7.3l.6-.2A.8.8,0,0,0,485.1,179.4Z" transform="translate(-46 -50)"/><path class="cls-2" d="M453.6,191.9v2.3h-.7v-5.8H455a2.5,2.5,0,0,1,1.5.5,1.9,1.9,0,0,1,.5,1.3,1.4,1.4,0,0,1-.5,1.3,2.1,2.1,0,0,1-1.5.4Zm0-.6H455a1.2,1.2,0,0,0,.9-.3.8.8,0,0,0,.4-.8.9.9,0,0,0-.4-.8,1.1,1.1,0,0,0-.8-.3h-1.5Zm6.3-.7h-.3a1,1,0,0,0-1,.7v3h-.7v-4.3h.7v.5a1.1,1.1,0,0,1,1-.6h.3Zm1.5,3.6h-.7v-4.3h.7Zm-.8-5.4c0-.1.1-.2.1-.3h.7a.5.5,0,0,1,0,.6h-.7Zm3.4,2.7,1-1.6h.8l-1.4,2.1,1.5,2.2H465l-1-1.6-1,1.6h-.8l1.4-2.2-1.4-2.1h.9Zm7.1,1.6a.8.8,0,0,0-.2-.5l-.8-.3-.9-.3a1,1,0,0,1-.5-.4.7.7,0,0,1-.1-.5,1,1,0,0,1,.4-.9,2.1,2.1,0,0,1,1.2-.4,2.1,2.1,0,0,1,1.1.4,1.4,1.4,0,0,1,.5,1h-.7a.9.9,0,0,0-.3-.6l-.6-.2-.7.2a.6.6,0,0,0,0,.9l.8.2.9.3.5.4a1.3,1.3,0,0,1,.1.6,1,1,0,0,1-.4.9,1.6,1.6,0,0,1-1.2.4l-.9-.2a1,1,0,0,1-.6-.5,1.1,1.1,0,0,1-.3-.7h.8a.9.9,0,0,0,.3.6l.7.2.7-.2Zm4.3.7a1.7,1.7,0,0,1-1.2.5,1.8,1.8,0,0,1-1.1-.4,2.1,2.1,0,0,1-.3-1.2v-2.8h.7v2.8c0,.6.3.9.8.9a1.1,1.1,0,0,0,1.1-.6v-3.1h.7v4.3h-.7Zm1.7-1.8a2.5,2.5,0,0,1,.4-1.6,1.8,1.8,0,0,1,1.3-.6,1.4,1.4,0,0,1,1.2.6v-.5h.7v4.2a1.7,1.7,0,0,1-1.8,1.8l-.9-.2a2,2,0,0,1-.7-.6l.4-.4a1.4,1.4,0,0,0,1.1.6,1.1,1.1,0,0,0,1.2-1.2v-.3a1.7,1.7,0,0,1-1.2.5,1.8,1.8,0,0,1-1.3-.6A2.9,2.9,0,0,1,477.1,192Zm.7.1a1.6,1.6,0,0,0,.3,1.1.9.9,0,0,0,.8.4,1.3,1.3,0,0,0,1.1-.6v-1.9a1.2,1.2,0,0,0-1-.6,1,1,0,0,0-.9.4A1.9,1.9,0,0,0,477.8,192.1Zm3.8-.1a2.5,2.5,0,0,1,.5-1.6,1.5,1.5,0,0,1,2.4,0v-.5h.6v4.2a1.5,1.5,0,0,1-.5,1.3,1.7,1.7,0,0,1-1.3.5l-.9-.2a2,2,0,0,1-.7-.6l.4-.4a1.4,1.4,0,0,0,1.2.6,1.1,1.1,0,0,0,.8-.3,1.2,1.2,0,0,0,.3-.9v-.3a1.7,1.7,0,0,1-1.2.5,1.4,1.4,0,0,1-1.2-.6A2.9,2.9,0,0,1,481.6,192Zm.8.1a1.6,1.6,0,0,0,.3,1.1.8.8,0,0,0,.8.4,1,1,0,0,0,1-.6v-1.9a1.1,1.1,0,0,0-1-.6.8.8,0,0,0-.8.4A1.9,1.9,0,0,0,482.4,192.1Zm5.7,2.2a1.8,1.8,0,0,1-1.4-.6,2,2,0,0,1-.5-1.5V192a2,2,0,0,1,.2-1.1,2.7,2.7,0,0,1,.7-.8l.9-.3a1.5,1.5,0,0,1,1.3.6,2.3,2.3,0,0,1,.5,1.6v.3h-2.9a1.3,1.3,0,0,0,.4,1,1.3,1.3,0,0,0,.9.4l.6-.2a1,1,0,0,0,.5-.4l.4.3A1.7,1.7,0,0,1,488.1,194.3Zm-.1-3.9a.8.8,0,0,0-.7.4,1.9,1.9,0,0,0-.4.9h2.2l-.3-.9A1.1,1.1,0,0,0,488,190.4Zm.4-2.3h.9l-1.1,1.2h-.6Zm4.3,2.5h-.4a.9.9,0,0,0-.9.7v3h-.8v-4.3h.8v.5a1,1,0,0,1,1-.6h.3Zm2.4,3.7a1.7,1.7,0,0,1-1.4-.6,2,2,0,0,1-.6-1.5V192a2,2,0,0,1,.3-1.1,2.4,2.4,0,0,1,.6-.8,1.7,1.7,0,0,1,1-.3,1.6,1.6,0,0,1,1.3.6,2.4,2.4,0,0,1,.4,1.6v.3h-2.8a1.7,1.7,0,0,0,.3,1,1.8,1.8,0,0,0,.9.4l.7-.2a.8.8,0,0,0,.4-.4l.5.3A1.8,1.8,0,0,1,495.1,194.3Zm-.1-3.9a.9.9,0,0,0-.8.4,1.2,1.2,0,0,0-.3.9H496a1.2,1.2,0,0,0-.3-.9A.9.9,0,0,0,495,190.4Zm.3-2.3h.9l-1,1.2h-.6Zm2.3,5.7a.4.4,0,0,1,.1-.3h.7c0,.1.1.2.1.3v.3h-.7A.4.4,0,0,1,497.6,193.8Zm0-3.5a.4.4,0,0,1,.1-.3h.7c0,.1.1.2.1.3v.3h-.7A.4.4,0,0,1,497.6,190.3Zm5,.7h.5c.3-.1.6-.1.8-.3a.9.9,0,0,0,.3-.7c0-.7-.3-1-1-1a1.1,1.1,0,0,0-.8.2,1.4,1.4,0,0,0-.2.7h-.8a1.6,1.6,0,0,1,.5-1.1,2,2,0,0,1,1.3-.4,1.8,1.8,0,0,1,1.3.4,1.6,1.6,0,0,1,.4,1.2,1,1,0,0,1-.2.7,1.8,1.8,0,0,1-.7.5,1.6,1.6,0,0,1,.8.5,2.4,2.4,0,0,1,.2.9,1.3,1.3,0,0,1-.5,1.2,1.7,1.7,0,0,1-1.3.5,1.9,1.9,0,0,1-1.3-.5,1.6,1.6,0,0,1-.5-1.1h.7a.9.9,0,0,0,.3.7,1.1,1.1,0,0,0,.8.3,1,1,0,0,0,.8-.3,1.2,1.2,0,0,0,0-1.6c-.2-.2-.5-.2-.9-.2h-.5Zm6.5,1.3h.8v.6h-.8v1.3h-.7v-1.3h-2.6v-.5l2.5-4h.8Zm-2.5,0h1.8v-2.7Zm5-1.3h.6c.3-.1.6-.1.8-.3a.9.9,0,0,0,.3-.7c0-.7-.3-1-1-1a1.1,1.1,0,0,0-.8.2,1.4,1.4,0,0,0-.2.7h-.8a1.6,1.6,0,0,1,.5-1.1,2,2,0,0,1,1.3-.4,1.8,1.8,0,0,1,1.3.4,1.6,1.6,0,0,1,.4,1.2,1,1,0,0,1-.2.7,1.8,1.8,0,0,1-.7.5l.8.5a2.4,2.4,0,0,1,.2.9,1.3,1.3,0,0,1-.5,1.2,1.9,1.9,0,0,1-2.6,0,1.3,1.3,0,0,1-.5-1.1h.7a.9.9,0,0,0,.3.7,1.1,1.1,0,0,0,.8.3,1,1,0,0,0,.8-.3,1.2,1.2,0,0,0,0-1.6c-.2-.2-.5-.2-.9-.2h-.6Zm3.6,2.8c0-.1.1-.2.1-.3h.7a.5.5,0,0,1,0,.6h-.7Zm3.1-2.8h.6c.3-.1.6-.1.8-.3a.9.9,0,0,0,.3-.7c0-.7-.3-1-1-1a1.1,1.1,0,0,0-.8.2.9.9,0,0,0-.3.7h-.7a1.6,1.6,0,0,1,.5-1.1,1.8,1.8,0,0,1,1.3-.4,2,2,0,0,1,1.3.4,1.6,1.6,0,0,1,.4,1.2,1.9,1.9,0,0,1-.2.7,1.8,1.8,0,0,1-.7.5,1.3,1.3,0,0,1,.7.5,1.4,1.4,0,0,1,.3.9,1.7,1.7,0,0,1-.5,1.2,1.9,1.9,0,0,1-1.3.5,1.7,1.7,0,0,1-1.3-.5,1.3,1.3,0,0,1-.5-1.1h.7a.9.9,0,0,0,.3.7,1.1,1.1,0,0,0,1.6-1.6c-.2-.2-.5-.2-.9-.2h-.6Zm6.6,1.3h.8v.6h-.8v1.3h-.7v-1.3h-2.7v-.5l2.6-4h.8Zm-2.5,0h1.8v-2.7Zm6.9.4a.9.9,0,0,0-.3-.6l-.9-.5a3.4,3.4,0,0,1-1.2-.6,2.1,2.1,0,0,1-.4-1.1,1.5,1.5,0,0,1,.4-1,1.4,1.4,0,0,1,1-.5v-.9h.6v.9a1.4,1.4,0,0,1,1.1.5,2.5,2.5,0,0,1,.3,1.3h-.7a1.2,1.2,0,0,0-.3-.9.8.8,0,0,0-.7-.3l-.7.2a1.3,1.3,0,0,0,0,1.4l.9.4.9.4a1.3,1.3,0,0,1,.5.6,1.4,1.4,0,0,1,.2.7,1.5,1.5,0,0,1-.4,1.1l-1.1.5v.7h-.6v-.7a2.3,2.3,0,0,1-1.2-.6,1.6,1.6,0,0,1-.4-1.2h.7a1,1,0,0,0,.3.8,1.1,1.1,0,0,0,.8.3c.4,0,.7,0,.9-.2A.9.9,0,0,0,529.3,192.7Z" transform="translate(-46 -50)"/><rect class="cls-3" x="24.6" y="105.9" width="566.3" height="53.17" rx="5.9"/><ellipse cx="549.9" cy="135.7" rx="1.1" ry="1"/><ellipse cx="554.1" cy="135.7" rx="1.1" ry="1"/><ellipse cx="558.4" cy="135.7" rx="1.1" ry="1"/><rect class="cls-3" x="24.6" y="170.7" width="566.3" height="53.17" rx="5.9"/><ellipse cx="549.9" cy="200.6" rx="1.1" ry="1"/><ellipse cx="554.1" cy="200.6" rx="1.1" ry="1"/><ellipse cx="558.4" cy="200.6" rx="1.1" ry="1"/><path class="cls-4" d="M145.4,235.4h68.5a4.5,4.5,0,0,1,4.6,4.6h0a4.6,4.6,0,0,1-4.6,4.6H145.4a4.7,4.7,0,0,1-4.6-4.6h0A4.6,4.6,0,0,1,145.4,235.4Z" transform="translate(-46 -50)"/><path class="cls-4" d="M456.8,235.4H485a4.5,4.5,0,0,1,4.6,4.6h0a4.6,4.6,0,0,1-4.6,4.6H456.8a4.7,4.7,0,0,1-4.6-4.6h0A4.6,4.6,0,0,1,456.8,235.4Z" transform="translate(-46 -50)"/><path class="cls-5" d="M143.3,252.3H216a2.5,2.5,0,0,1,2.5,2.5h0a2.5,2.5,0,0,1-2.5,2.5H143.3a2.5,2.5,0,0,1-2.5-2.5h0A2.5,2.5,0,0,1,143.3,252.3Z" transform="translate(-46 -50)"/><path class="cls-5" d="M235.1,252.3h72.7a2.5,2.5,0,0,1,2.5,2.5h0a2.5,2.5,0,0,1-2.5,2.5H235.1a2.5,2.5,0,0,1-2.5-2.5h0A2.5,2.5,0,0,1,235.1,252.3Z" transform="translate(-46 -50)"/><path class="cls-5" d="M326.9,252.3h72.7a2.5,2.5,0,0,1,2.5,2.5h0a2.5,2.5,0,0,1-2.5,2.5H326.9a2.5,2.5,0,0,1-2.5-2.5h0A2.5,2.5,0,0,1,326.9,252.3Z" transform="translate(-46 -50)"/><path class="cls-5" d="M454.7,252.3h99.5a2.5,2.5,0,0,1,2.5,2.5h0a2.5,2.5,0,0,1-2.5,2.5H454.7a2.5,2.5,0,0,1-2.5-2.5h0A2.5,2.5,0,0,1,454.7,252.3Z" transform="translate(-46 -50)"/><path class="cls-5" d="M91.1,245.3h19a2.5,2.5,0,0,1,2.5,2.4h0a2.5,2.5,0,0,1-2.5,2.5h-19a2.5,2.5,0,0,1-2.5-2.5h0A2.5,2.5,0,0,1,91.1,245.3Z" transform="translate(-46 -50)"/><rect class="cls-3" x="24.6" y="243.5" width="566.3" height="53.17" rx="5.9"/><ellipse cx="549.9" cy="273.4" rx="1.1" ry="1"/><ellipse cx="554.1" cy="273.4" rx="1.1" ry="1"/><ellipse cx="558.4" cy="273.4" rx="1.1" ry="1"/><path class="cls-4" d="M145.4,308.2h68.5a4.6,4.6,0,0,1,4.6,4.6h0a4.6,4.6,0,0,1-4.6,4.6H145.4a4.7,4.7,0,0,1-4.6-4.6h0A4.7,4.7,0,0,1,145.4,308.2Z" transform="translate(-46 -50)"/><path class="cls-4" d="M456.8,308.2H485a4.6,4.6,0,0,1,4.6,4.6h0a4.6,4.6,0,0,1-4.6,4.6H456.8a4.7,4.7,0,0,1-4.6-4.6h0A4.7,4.7,0,0,1,456.8,308.2Z" transform="translate(-46 -50)"/><rect class="cls-5" x="94.8" y="275.1" width="77.7" height="4.94" rx="2.5"/><rect class="cls-5" x="186.6" y="275.1" width="77.7" height="4.94" rx="2.5"/><rect class="cls-5" x="278.4" y="275.1" width="77.7" height="4.94" rx="2.5"/><rect class="cls-5" x="406.2" y="275.1" width="104.5" height="4.94" rx="2.5"/><rect class="cls-5" x="42.6" y="268.1" width="24" height="4.94" rx="2.5"/><rect class="cls-6" x="564.4" y="0.4" width="258.2" height="319.37" rx="8.2"/><path d="M646,75.7h-3.9V86.4h-2.6V75.7h-3.9V73.6H646Zm4.2,7.1,1.7-5.9h2.8l-3.9,11-.2.5a2.8,2.8,0,0,1-2.8,1.8h-1.1V88.2h.4a1.8,1.8,0,0,0,1.1-.3,1,1,0,0,0,.5-.7l.3-.8-3.3-9.5h2.7Zm14-1.1a5.7,5.7,0,0,1-1,3.6,3.3,3.3,0,0,1-5,.3v4.5h-2.5V76.9H658v.9a3,3,0,0,1,2.4-1.1,3.6,3.6,0,0,1,2.8,1.3,6.4,6.4,0,0,1,.9,3.6Zm-2.5-.1a4.1,4.1,0,0,0-.5-2.1,1.5,1.5,0,0,0-1.4-.7,1.7,1.7,0,0,0-1.6.9v3.9a1.8,1.8,0,0,0,1.7.9C661.1,84.5,661.7,83.5,661.7,81.6Zm8.5,5a4.5,4.5,0,0,1-4.7-4.7v-.3a6.6,6.6,0,0,1,.5-2.5,4,4,0,0,1,1.6-1.8,4.4,4.4,0,0,1,2.3-.6A3.9,3.9,0,0,1,673,78a5,5,0,0,1,1.1,3.4v1.1H668a2.8,2.8,0,0,0,.8,1.5,2.5,2.5,0,0,0,1.6.5,2.6,2.6,0,0,0,2.2-1l1.3,1.4a4,4,0,0,1-1.6,1.2A4.6,4.6,0,0,1,670.2,86.6Zm-.3-7.8a1.3,1.3,0,0,0-1.2.5,2.6,2.6,0,0,0-.6,1.4h3.5v-.2a1.9,1.9,0,0,0-.5-1.3A1.5,1.5,0,0,0,669.9,78.8Zm9.7,2.8a6.4,6.4,0,0,1,1-3.6,3.6,3.6,0,0,1,2.8-1.3,3,3,0,0,1,2.3,1.1V72.9h2.5V86.4h-2.3v-1a3,3,0,0,1-2.5,1.2,3.5,3.5,0,0,1-2.7-1.3A6.5,6.5,0,0,1,679.6,81.6Zm2.6.2a3.7,3.7,0,0,0,.4,2,1.6,1.6,0,0,0,1.4.7,1.8,1.8,0,0,0,1.7-1V79.8a1.8,1.8,0,0,0-1.7-1Q682.2,78.8,682.2,81.8Zm9.4-7.6-.2,3.6h-1.6V72.9h1.8Zm6.6,12.2c-.2-.2-.2-.5-.3-.8a3.3,3.3,0,0,1-2.4,1,3.6,3.6,0,0,1-2.3-.8,2.7,2.7,0,0,1-.9-2.1,2.6,2.6,0,0,1,1.1-2.3,5.6,5.6,0,0,1,3.2-.8h1.2v-.5a1.8,1.8,0,0,0-.3-1.1,1.4,1.4,0,0,0-1.1-.4,1.5,1.5,0,0,0-1,.3,1,1,0,0,0-.4.9h-2.5a3,3,0,0,1,.5-1.6,4,4,0,0,1,1.4-1.1,7.8,7.8,0,0,1,2.1-.4,4.1,4.1,0,0,1,2.8.9,3,3,0,0,1,1,2.5v4.1a8.7,8.7,0,0,0,.4,2.1h-2.5Zm-2.1-1.8a1.8,1.8,0,0,0,1-.2,2.3,2.3,0,0,0,.7-.7V82.1h-.9c-1.3,0-2,.4-2.1,1.3v.2a.9.9,0,0,0,.3.7A1.7,1.7,0,0,0,696.1,84.6Zm10.2-.1a1.5,1.5,0,0,0,1.1-.4,1.6,1.6,0,0,0,.5-1h2.3a2.7,2.7,0,0,1-.5,1.8,3.3,3.3,0,0,1-1.4,1.2,4.6,4.6,0,0,1-2,.5,3.9,3.9,0,0,1-3.2-1.3,5.2,5.2,0,0,1-1.2-3.6v-.2a5.1,5.1,0,0,1,1.2-3.5,4.3,4.3,0,0,1,3.2-1.3,4.1,4.1,0,0,1,2.8,1,3.3,3.3,0,0,1,1.1,2.7h-2.3a2.2,2.2,0,0,0-.5-1.2,1.6,1.6,0,0,0-1.2-.4,1.5,1.5,0,0,0-1.3.6,4.1,4.1,0,0,0-.5,2.1v.3a3.6,3.6,0,0,0,.5,2.1A1.6,1.6,0,0,0,706.3,84.5Zm7.9-6.6a3,3,0,0,1,2.5-1.2c2.1,0,3.1,1.2,3.1,3.6v6.1h-2.5v-6a1.7,1.7,0,0,0-.3-1.2,1.6,1.6,0,0,0-1.2-.4,1.7,1.7,0,0,0-1.6.8v6.8h-2.6V72.9h2.6Zm13.1,8.5-.3-.8a3.3,3.3,0,0,1-2.4,1,3.6,3.6,0,0,1-2.3-.8,2.7,2.7,0,0,1-.9-2.1,2.8,2.8,0,0,1,1.1-2.3,5.6,5.6,0,0,1,3.2-.8h1.2v-.5a1.8,1.8,0,0,0-.3-1.1,1.4,1.4,0,0,0-1.1-.4,1.5,1.5,0,0,0-1,.3,1.3,1.3,0,0,0-.4.9h-2.5a3,3,0,0,1,.5-1.6,4,4,0,0,1,1.4-1.1,7.8,7.8,0,0,1,2.1-.4,4.1,4.1,0,0,1,2.8.9,3.1,3.1,0,0,1,1.1,2.5v4.1a5.8,5.8,0,0,0,.3,2.1h-2.5Zm-2.1-1.8a1.8,1.8,0,0,0,1-.2,1.6,1.6,0,0,0,.7-.7V82.1H726c-1.3,0-2,.4-2.1,1.3v.2a.8.8,0,0,0,.4.7A1.2,1.2,0,0,0,725.2,84.6Zm9.3-10v2.3h1.6v1.9h-1.6v4.7c0,.4,0,.6.2.8a1,1,0,0,0,.7.2h.8v2l-1.6.2a2.4,2.4,0,0,1-2.7-2.7V78.8h-1.4V76.9h1.4V74.6Z" transform="translate(-46 -50)"/><path d="M659,124.5h-3.9v4h-1.2v-9.2h5.7v1h-4.5v3.2H659Zm5-1.8h-.6a1.5,1.5,0,0,0-1.5,1v4.8h-1.2v-6.8h1.1v.8a1.8,1.8,0,0,1,1.6-.9h.5Zm3.8,6a2.9,2.9,0,0,1-2.3-1,3.6,3.6,0,0,1-.8-2.4v-.2a3.4,3.4,0,0,1,.4-1.8,2.7,2.7,0,0,1,1-1.3,2.9,2.9,0,0,1,1.6-.4,2.8,2.8,0,0,1,2,.8,4,4,0,0,1,.8,2.6v.4h-4.7a3.8,3.8,0,0,0,.6,1.7,2,2,0,0,0,1.5.6,1.7,1.7,0,0,0,1-.3,1.6,1.6,0,0,0,.8-.6l.7.5A3,3,0,0,1,667.8,128.7Zm-.1-6.2a1.7,1.7,0,0,0-1.2.5,3.4,3.4,0,0,0-.6,1.5h3.4a2,2,0,0,0-.5-1.4A1.6,1.6,0,0,0,667.7,122.5Zm.5-3.7h1.4l-1.7,1.9H667Zm3.3,6.3a4,4,0,0,1,.8-2.6,2.4,2.4,0,0,1,2-.9,2.2,2.2,0,0,1,1.9.8v-.7h1.1v9.5h-1.2v-3.3a2.5,2.5,0,0,1-3.8-.2,4.2,4.2,0,0,1-.8-2.6Zm1.2.1a3,3,0,0,0,.5,1.8,1.5,1.5,0,0,0,1.3.7,1.7,1.7,0,0,0,1.6-.9v-3.4a1.7,1.7,0,0,0-2.9-.2A3.7,3.7,0,0,0,672.7,125.2Zm10.7,2.7a2.6,2.6,0,0,1-2,.8,2.4,2.4,0,0,1-1.7-.7,3.1,3.1,0,0,1-.6-1.9v-4.4h1.2v4.4c0,1,.4,1.6,1.3,1.6a1.9,1.9,0,0,0,1.8-1v-5h1.1v6.8h-1.1Zm5.7.8a2.7,2.7,0,0,1-2.2-1,3.2,3.2,0,0,1-.9-2.4v-.2a3.4,3.4,0,0,1,.4-1.8,2.8,2.8,0,0,1,1.1-1.3,2.6,2.6,0,0,1,1.5-.4,2.9,2.9,0,0,1,2.1.8,4,4,0,0,1,.7,2.6v.4h-4.6a2.4,2.4,0,0,0,.6,1.7,1.7,1.7,0,0,0,1.4.6,2,2,0,0,0,1.1-.3,1.9,1.9,0,0,0,.7-.6l.7.5A2.9,2.9,0,0,1,689.1,128.7Zm-.1-6.2a1.7,1.7,0,0,0-1.2.5,3.4,3.4,0,0,0-.6,1.5h3.4a2.6,2.6,0,0,0-.4-1.4A1.7,1.7,0,0,0,689,122.5Zm5.3-.8v.9a2.3,2.3,0,0,1,2-1c1.5,0,2.2.8,2.2,2.4v4.5h-1.1V124a1.8,1.8,0,0,0-.4-1.1,1.3,1.3,0,0,0-1-.3,1.7,1.7,0,0,0-1,.3,1.9,1.9,0,0,0-.7.8v4.8h-1.1v-6.8Zm8.7,6a1.4,1.4,0,0,0,1.1-.4,1.1,1.1,0,0,0,.5-.9h1.1a1.7,1.7,0,0,1-.4,1.1,2.1,2.1,0,0,1-1,.8,2.8,2.8,0,0,1-1.3.4,3,3,0,0,1-2.2-1,3.7,3.7,0,0,1-.8-2.5V125a3.4,3.4,0,0,1,.4-1.8,2.6,2.6,0,0,1,2.6-1.6,2.5,2.5,0,0,1,1.9.7,2.1,2.1,0,0,1,.8,1.7h-1.1a1.2,1.2,0,0,0-.5-1,1.4,1.4,0,0,0-1.1-.5,1.6,1.6,0,0,0-1.4.7,3,3,0,0,0-.4,1.8v.2a3.6,3.6,0,0,0,.4,1.9A1.8,1.8,0,0,0,703,127.7Zm6.9,1a2.9,2.9,0,0,1-2.3-1,3.6,3.6,0,0,1-.8-2.4v-.2a4.8,4.8,0,0,1,.3-1.8,3.6,3.6,0,0,1,1.1-1.3,2.9,2.9,0,0,1,1.6-.4,2.8,2.8,0,0,1,2,.8,4,4,0,0,1,.8,2.6v.4h-4.7a2.4,2.4,0,0,0,.6,1.7,2,2,0,0,0,1.5.6,1.7,1.7,0,0,0,1-.3,2.1,2.1,0,0,0,.8-.6l.7.5A3,3,0,0,1,709.9,128.7Zm-.1-6.2a1.7,1.7,0,0,0-1.2.5,2,2,0,0,0-.6,1.5h3.4a2,2,0,0,0-.5-1.4A1.6,1.6,0,0,0,709.8,122.5Z" transform="translate(-46 -50)"/><path d="M661.1,180.7a6.1,6.1,0,0,1-.4,2.4,3.7,3.7,0,0,1-1.3,1.5,4.1,4.1,0,0,1-1.9.5,4.2,4.2,0,0,1-2-.5,4.7,4.7,0,0,1-1.3-1.5,8.6,8.6,0,0,1-.5-2.3v-.7a5.6,5.6,0,0,1,.5-2.3,3.4,3.4,0,0,1,1.3-1.6,4.1,4.1,0,0,1,1.9-.5,4.2,4.2,0,0,1,2,.5,4.2,4.2,0,0,1,1.3,1.6,5.3,5.3,0,0,1,.4,2.3Zm-1.2-.6a4.4,4.4,0,0,0-.6-2.5,2.3,2.3,0,0,0-1.9-.9,2.3,2.3,0,0,0-1.8.9,4.3,4.3,0,0,0-.6,2.4v.7a4.4,4.4,0,0,0,.6,2.5,2.3,2.3,0,0,0,1.9.9,2.3,2.3,0,0,0,1.8-.9,3.8,3.8,0,0,0,.6-2.4Zm8.7,1.6a4.1,4.1,0,0,1-.8,2.5,2.2,2.2,0,0,1-1.9.9,2.4,2.4,0,0,1-2-.9v.8h-1v-9.7h1.1v3.6a2.5,2.5,0,0,1,2-.9,2.3,2.3,0,0,1,1.9,1,4,4,0,0,1,.8,2.6Zm-1.2-.2a3,3,0,0,0-.5-1.8,1.6,1.6,0,0,0-1.3-.7,1.8,1.8,0,0,0-1.7,1.1v3a1.9,1.9,0,0,0,1.7,1,1.5,1.5,0,0,0,1.3-.6A3.4,3.4,0,0,0,667.4,181.5Zm3.8-3.3v7.6c0,1.3-.6,2-1.7,2l-.8-.2v-.9h.6a.9.9,0,0,0,.6-.3,1,1,0,0,0,.2-.7v-7.6Zm-1.2-1.8a.7.7,0,0,1,.1-.5l.5-.2c.3,0,.4,0,.5.2s.2.3.2.5a.4.4,0,0,1-.2.4c-.1.2-.2.2-.5.2s-.4,0-.5-.2A.6.6,0,0,1,670,176.4Zm6,8.7a3,3,0,0,1-2.3-.9,3.2,3.2,0,0,1-.9-2.4v-.2a5.8,5.8,0,0,1,.4-1.9,3.2,3.2,0,0,1,1.1-1.2,3,3,0,0,1,1.5-.5,2.6,2.6,0,0,1,2.1.9,3.7,3.7,0,0,1,.7,2.5v.5H674a2.5,2.5,0,0,0,.6,1.7,1.8,1.8,0,0,0,1.4.6,2,2,0,0,0,1.1-.3c.3-.1.5-.4.7-.6l.7.5A2.7,2.7,0,0,1,676,185.1Zm-.2-6.1a1.7,1.7,0,0,0-1.2.5,3,3,0,0,0-.6,1.5h3.5a2.6,2.6,0,0,0-.5-1.4A1.7,1.7,0,0,0,675.8,179Zm6.9,5.2a2.1,2.1,0,0,0,1.1-.4,1.4,1.4,0,0,0,.5-1h1.1a1.9,1.9,0,0,1-.4,1.2,2.1,2.1,0,0,1-1,.8,3.1,3.1,0,0,1-3.5-.6,4,4,0,0,1-.8-2.6h0a4.8,4.8,0,0,1,.3-1.8,3.2,3.2,0,0,1,1.1-1.2,2.8,2.8,0,0,1,1.6-.5,2.9,2.9,0,0,1,1.9.7,2.5,2.5,0,0,1,.8,1.8h-1.1a1.6,1.6,0,0,0-.5-1.1,1.4,1.4,0,0,0-1.1-.4,1.8,1.8,0,0,0-1.4.6,3.6,3.6,0,0,0-.5,1.9v.2a3,3,0,0,0,.5,1.8A1.6,1.6,0,0,0,682.7,184.2Zm5.6-7.7v1.7h1.3v.9h-1.3v4.2a.8.8,0,0,0,.2.6c.1.2.3.2.6.2h.5v.9h-.9a1.2,1.2,0,0,1-1.1-.4,2.1,2.1,0,0,1-.4-1.4v-4.2h-1.3v-.9h1.3v-1.7Zm3.9,8.5h-1.1v-6.8h1.1Zm-1.2-8.6c0-.2,0-.4.2-.5s.2-.2.5-.2.4,0,.5.2a.8.8,0,0,1,.2.5l-.2.4c-.1.2-.3.2-.5.2s-.4,0-.5-.2A.4.4,0,0,1,691,176.4Zm3.7,8.6v-5.9h-1.1v-.9h1.1v-.7a2.2,2.2,0,0,1,.6-1.7,2.1,2.1,0,0,1,1.6-.6h.8v.9H697a1.1,1.1,0,0,0-.8.3,1.2,1.2,0,0,0-.3.9v.8h1.4v.9h-1.4V185Zm6.8-3.5a3.9,3.9,0,0,1,.8-2.5,2.4,2.4,0,0,1,1.9-1,2.2,2.2,0,0,1,1.9.9v-3.6h1.2V185h-1.1v-.7a2.6,2.6,0,0,1-2,.8,2.3,2.3,0,0,1-1.9-.9,4.2,4.2,0,0,1-.8-2.6Zm1.2.2a3.5,3.5,0,0,0,.5,1.8,1.5,1.5,0,0,0,1.3.6,1.5,1.5,0,0,0,1.6-1V180a1.8,1.8,0,0,0-1.6-1,1.7,1.7,0,0,0-1.3.7A3.4,3.4,0,0,0,702.7,181.7Zm7.1-5.7v2.3h-.8v-3h.9Zm2.8,9h-1.1v-6.8h1.1Zm-1.2-8.6c0-.2,0-.4.2-.5s.2-.2.5-.2.4,0,.5.2a.6.6,0,0,1,0,.9c-.1.2-.3.2-.5.2s-.4,0-.5-.2A.4.4,0,0,1,711.4,176.4Zm4.2,1.8v.7a2.4,2.4,0,0,1,2-.9,1.9,1.9,0,0,1,1.9,1.1l.9-.8a2.8,2.8,0,0,1,1.3-.3,2.1,2.1,0,0,1,2.3,2.4V185h-1.2v-4.5a1.3,1.3,0,0,0-1.4-1.5,1.8,1.8,0,0,0-1.1.4,1.4,1.4,0,0,0-.5,1.1V185h-1.2v-4.5c0-1-.5-1.5-1.4-1.5a1.7,1.7,0,0,0-1.6,1v5h-1.2v-6.8Zm16,3.5a4.1,4.1,0,0,1-.7,2.5,2.3,2.3,0,0,1-1.9.9,2.4,2.4,0,0,1-2-.8v3.3h-1.1v-9.4h1v.7a2.4,2.4,0,0,1,2-.9,2.4,2.4,0,0,1,1.9,1,4,4,0,0,1,.7,2.6Zm-1.1-.2a3.2,3.2,0,0,0-.5-1.8,1.9,1.9,0,0,0-1.4-.7,1.7,1.7,0,0,0-1.6,1v3.2a1.7,1.7,0,0,0,1.6,1,1.6,1.6,0,0,0,1.4-.7A3.4,3.4,0,0,0,730.5,181.5Zm5.9-2.3h-.6a1.5,1.5,0,0,0-1.5,1V185h-1.2v-6.8h1.2v.8a1.7,1.7,0,0,1,1.6-1h.5Zm3.8,5.9a2.8,2.8,0,0,1-2.2-.9,3.2,3.2,0,0,1-.9-2.4v-.2a4.1,4.1,0,0,1,.4-1.9,2.9,2.9,0,0,1,1-1.2,3,3,0,0,1,1.6-.5,2.4,2.4,0,0,1,2,.9,3.7,3.7,0,0,1,.8,2.5v.5h-4.7a4.3,4.3,0,0,0,.6,1.7,2,2,0,0,0,1.5.6,1.7,1.7,0,0,0,1-.3,2.4,2.4,0,0,0,.8-.6l.7.5A2.8,2.8,0,0,1,740.2,185.1Zm-.1-6.1a1.7,1.7,0,0,0-1.2.5,3,3,0,0,0-.6,1.5h3.4a2,2,0,0,0-.5-1.4A1.4,1.4,0,0,0,740.1,179Zm8.1,4.2a.7.7,0,0,0-.4-.7,2.3,2.3,0,0,0-1.2-.5,3.8,3.8,0,0,1-1.4-.5,1.6,1.6,0,0,1-.8-.6,2,2,0,0,1-.2-.9,1.7,1.7,0,0,1,.7-1.4,2.8,2.8,0,0,1,1.8-.6,2.9,2.9,0,0,1,1.9.6,2,2,0,0,1,.7,1.6h-1.2a.9.9,0,0,0-.4-.8,1.2,1.2,0,0,0-1-.4,1.5,1.5,0,0,0-1,.3,1,1,0,0,0-.4.7.7.7,0,0,0,.4.6,3.5,3.5,0,0,0,1.2.5l1.4.4a1.9,1.9,0,0,1,.8.7,1.2,1.2,0,0,1,.3.9,1.9,1.9,0,0,1-.8,1.5,3.3,3.3,0,0,1-1.9.5,3.2,3.2,0,0,1-1.4-.3,2,2,0,0,1-1-.8,2.1,2.1,0,0,1-.4-1.1h1.2a1.1,1.1,0,0,0,.5.9,1.5,1.5,0,0,0,1.1.4,1.8,1.8,0,0,0,1.1-.3A.8.8,0,0,0,748.2,183.2Zm6.7,0a.7.7,0,0,0-.4-.7,2.3,2.3,0,0,0-1.2-.5,3.8,3.8,0,0,1-1.4-.5,1.2,1.2,0,0,1-.8-.6,1.2,1.2,0,0,1-.3-.9,1.9,1.9,0,0,1,.8-1.4,2.4,2.4,0,0,1,1.8-.6,3.1,3.1,0,0,1,1.9.6,2.4,2.4,0,0,1,.7,1.6h-1.2a.9.9,0,0,0-.4-.8,1.3,1.3,0,0,0-1-.4,1.3,1.3,0,0,0-1,.3.8.8,0,0,0-.4.7.6.6,0,0,0,.3.6l1.3.5,1.4.4a2.7,2.7,0,0,1,.8.7c.2.2.2.5.2.9a1.8,1.8,0,0,1-.7,1.5,3.6,3.6,0,0,1-1.9.5,3.2,3.2,0,0,1-1.4-.3,1.6,1.6,0,0,1-1-.8,1.5,1.5,0,0,1-.4-1.1h1.2a1.3,1.3,0,0,0,.4.9,1.6,1.6,0,0,0,1.2.4,1.8,1.8,0,0,0,1.1-.3A1,1,0,0,0,754.9,183.2Zm3.9,1.8h-1.1v-6.8h1.1Zm-1.2-8.6a.7.7,0,0,1,.1-.5c.2-.2.3-.2.6-.2s.4,0,.5.2a.8.8,0,0,1,.2.5l-.2.4c-.1.2-.3.2-.5.2s-.4,0-.6-.2A.6.6,0,0,1,757.6,176.4Zm2.8,5.1a3.9,3.9,0,0,1,.4-1.8,3.2,3.2,0,0,1,1.1-1.2,3,3,0,0,1,1.6-.5,3.3,3.3,0,0,1,2.3,1,4.2,4.2,0,0,1,.8,2.6h0a3.9,3.9,0,0,1-.4,1.8,2.5,2.5,0,0,1-1.1,1.2,2.7,2.7,0,0,1-1.6.4,2.8,2.8,0,0,1-2.2-.9,3.7,3.7,0,0,1-.9-2.6Zm1.2.2a2.7,2.7,0,0,0,.5,1.8,1.8,1.8,0,0,0,2.8,0,3,3,0,0,0,.5-2,2.7,2.7,0,0,0-.5-1.8,1.5,1.5,0,0,0-1.4-.7,1.6,1.6,0,0,0-1.4.7A2.8,2.8,0,0,0,761.6,181.7Zm7.6-3.5v.8a2.7,2.7,0,0,1,2.1-1c1.4,0,2.1.9,2.2,2.5V185h-1.2v-4.5a1.2,1.2,0,0,0-.4-1.1,1.3,1.3,0,0,0-1-.4,1.7,1.7,0,0,0-1,.3,2.7,2.7,0,0,0-.7.8V185h-1.1v-6.8Zm10,5a.7.7,0,0,0-.4-.7,2.3,2.3,0,0,0-1.2-.5,3.8,3.8,0,0,1-1.4-.5,1.2,1.2,0,0,1-.8-.6c-.2-.2-.2-.5-.2-.9a1.7,1.7,0,0,1,.7-1.4,2.6,2.6,0,0,1,1.8-.6,2.9,2.9,0,0,1,1.9.6,2,2,0,0,1,.7,1.6h-1.2a.9.9,0,0,0-.4-.8,1.3,1.3,0,0,0-1-.4,1.5,1.5,0,0,0-1,.3,1,1,0,0,0-.4.7.5.5,0,0,0,.4.6,3.5,3.5,0,0,0,1.2.5l1.4.4a1.9,1.9,0,0,1,.8.7,1.2,1.2,0,0,1,.3.9,1.9,1.9,0,0,1-.8,1.5,3.6,3.6,0,0,1-1.9.5,3.2,3.2,0,0,1-1.4-.3,2,2,0,0,1-1-.8,1.5,1.5,0,0,1-.4-1.1h1.2a1.1,1.1,0,0,0,.5.9,1.4,1.4,0,0,0,1.1.4,1.8,1.8,0,0,0,1.1-.3A.8.8,0,0,0,779.2,183.2Z" transform="translate(-46 -50)"/><path d="M655.1,216.3v3.6h-1.2v-9.2h3.4a3.6,3.6,0,0,1,2.4.7,3,3,0,0,1,.8,2.1,2.5,2.5,0,0,1-.8,2,3.6,3.6,0,0,1-2.4.8Zm0-1h2.2a2.3,2.3,0,0,0,1.5-.5,1.8,1.8,0,0,0-1.4-3.1h-2.3Zm10.9,4.6c0-.2-.1-.4-.1-.8a2.7,2.7,0,0,1-2,.9,2.1,2.1,0,0,1-1.6-.6,1.6,1.6,0,0,1-.7-1.4,2.1,2.1,0,0,1,.8-1.7,3.9,3.9,0,0,1,2.3-.6h1.1v-.5a1.5,1.5,0,0,0-.3-1,1.8,1.8,0,0,0-1.1-.4,1.2,1.2,0,0,0-1,.4c-.3.2-.5.4-.5.7h-1.1a2.2,2.2,0,0,1,.3-1l1-.7a3.2,3.2,0,0,1,1.4-.3,2.4,2.4,0,0,1,1.8.6,1.9,1.9,0,0,1,.7,1.6v3.2a3.3,3.3,0,0,0,.3,1.5H666Zm-1.9-.9a1.7,1.7,0,0,0,1-.3,1.1,1.1,0,0,0,.7-.8v-1.4h-.9c-1.4,0-2.1.5-2.1,1.3a1,1,0,0,0,.4.9A1.2,1.2,0,0,0,664.1,219Zm8-4.9h-.5a1.7,1.7,0,0,0-1.6,1v4.9h-1.2V213H670v.8a1.8,1.8,0,0,1,1.6-.9h.5Zm3-2.7V213h1.3v.9h-1.3v4.3a1.4,1.4,0,0,0,.2.6l.6.2h.5v1h-.9a1.3,1.3,0,0,1-1.1-.5,1.8,1.8,0,0,1-.4-1.3v-4.3h-1.3V213H674v-1.6Zm5.6,5a3.7,3.7,0,0,1,.7-2.5,2.3,2.3,0,0,1,2-1,2.6,2.6,0,0,1,1.9.8v-3.5h1.2v9.7h-1.1v-.8a2.2,2.2,0,0,1-1.9.9,2.3,2.3,0,0,1-2-1,3.9,3.9,0,0,1-.7-2.5Zm1.2.1a3,3,0,0,0,.4,1.8,1.6,1.6,0,0,0,1.4.7,1.7,1.7,0,0,0,1.6-1v-3.1a1.7,1.7,0,0,0-1.6-1,1.6,1.6,0,0,0-1.4.7A3.4,3.4,0,0,0,681.9,216.5Zm9.2,3.5a3.2,3.2,0,0,1-2.3-.9,3.7,3.7,0,0,1-.8-2.5v-.2a3.4,3.4,0,0,1,.4-1.8,2.9,2.9,0,0,1,1-1.2,3,3,0,0,1,1.6-.5,2.4,2.4,0,0,1,2,.9,3.7,3.7,0,0,1,.8,2.5v.5h-4.7a3.4,3.4,0,0,0,.6,1.6,2,2,0,0,0,1.5.6l1-.2a2.7,2.7,0,0,0,.8-.7l.7.6A3,3,0,0,1,691.1,220Zm-.1-6.1a1.3,1.3,0,0,0-1.2.5,2.6,2.6,0,0,0-.6,1.4h3.4a1.7,1.7,0,0,0-.5-1.3A1.2,1.2,0,0,0,691,213.9Zm9.6,4.4,1.7-5.3h1.2l-2.5,6.9h-.9l-2.4-6.9h1.2Zm3.6-1.9a3.4,3.4,0,0,1,.4-1.8,2.4,2.4,0,0,1,1.1-1.3,2.9,2.9,0,0,1,1.6-.4,2.6,2.6,0,0,1,2.2,1,3.5,3.5,0,0,1,.9,2.5h0a3.4,3.4,0,0,1-.4,1.8,2.5,2.5,0,0,1-1.1,1.2,2.8,2.8,0,0,1-1.6.5,2.9,2.9,0,0,1-2.3-1,3.9,3.9,0,0,1-.8-2.5Zm1.2.1a2.4,2.4,0,0,0,.5,1.8,1.7,1.7,0,0,0,2.8,0,2.7,2.7,0,0,0,.5-1.9,2.4,2.4,0,0,0-.5-1.8,1.6,1.6,0,0,0-1.4-.7,1.5,1.5,0,0,0-1.4.7A2.7,2.7,0,0,0,705.4,216.5Zm7.7,3.4H712V213h1.1Zm-1.2-8.7a.9.9,0,0,1,.1-.5,1.1,1.1,0,0,1,.6-.2l.5.2c.1.2.2.3.2.5a.8.8,0,0,1-.2.5l-.5.2a1.1,1.1,0,0,1-.6-.2A.7.7,0,0,1,711.9,211.2Zm5.4,4.3,1.5-2.5h1.4l-2.2,3.4,2.3,3.5h-1.4l-1.6-2.6-1.6,2.6h-1.3l2.3-3.5-2.2-3.4h1.3Z" transform="translate(-46 -50)"/><rect class="cls-7" x="590.4" y="52.4" width="203.1" height="46.36" rx="9.5"/><rect class="cls-7" x="590.4" y="106.5" width="203.1" height="186.18" rx="9.5"/><path class="cls-8" d="M812.9,124.8a1,1,0,0,1,0-1.4l.2-.2a1,1,0,0,1,1.4,0l4.5,4.5a1,1,0,0,0,1.4,0l4-4.4a1,1,0,0,1,1.4-.1l.2.2a1,1,0,0,1,.1,1.4l-5.6,6.1a1,1,0,0,1-1.5,0Z" transform="translate(-46 -50)"/><path class="cls-5" d="M656.5,237h97a3.5,3.5,0,0,1,3.5,3.5h0a3.5,3.5,0,0,1-3.5,3.5h-97a3.5,3.5,0,0,1-3.5-3.5h0A3.5,3.5,0,0,1,656.5,237Z" transform="translate(-46 -50)"/><path class="cls-5" d="M656.5,257h97a3.5,3.5,0,0,1,3.5,3.5h0a3.5,3.5,0,0,1-3.5,3.5h-97a3.5,3.5,0,0,1-3.5-3.5h0A3.5,3.5,0,0,1,656.5,257Z" transform="translate(-46 -50)"/><path class="cls-5" d="M656.5,277h97a3.5,3.5,0,0,1,3.5,3.5h0a3.5,3.5,0,0,1-3.5,3.5h-97a3.5,3.5,0,0,1-3.5-3.5h0A3.5,3.5,0,0,1,656.5,277Z" transform="translate(-46 -50)"/><path class="cls-5" d="M656.5,297h97a3.5,3.5,0,0,1,3.5,3.5h0a3.5,3.5,0,0,1-3.5,3.5h-97a3.5,3.5,0,0,1-3.5-3.5h0A3.5,3.5,0,0,1,656.5,297Z" transform="translate(-46 -50)"/></svg>