<svg id="Layer_1" data-name="Layer 1" xmlns="http://www.w3.org/2000/svg" viewBox="0 0 746 307"><defs><style>.cls-1,.cls-3{fill:#fff;}.cls-2{fill:#337cb9;}.cls-3,.cls-6{stroke:#e6e6e6;stroke-width:0.5px;}.cls-4{fill:#f4f4f4;}.cls-5{fill:#d5d5d5;}.cls-10,.cls-6,.cls-7,.cls-8{fill:none;}.cls-7,.cls-8{stroke:#fff;}.cls-7{opacity:0.2;isolation:isolate;}.cls-9{fill:#262626;}.cls-10{stroke:#337cb9;}</style></defs><rect class="cls-1" y="28" width="713" height="92" rx="10"/><path d="M93.2,127H83.1v-1.7l5-5.4a14.6,14.6,0,0,0,1.5-2,3.7,3.7,0,0,0,.5-1.7,2.5,2.5,0,0,0-.6-1.7,2.3,2.3,0,0,0-1.6-.6,2.4,2.4,0,0,0-1.9.7,2.7,2.7,0,0,0-.7,2H82.8a4.8,4.8,0,0,1,.6-2.4,4.8,4.8,0,0,1,1.8-1.7,6,6,0,0,1,2.7-.6,4.7,4.7,0,0,1,3.4,1.1,3.5,3.5,0,0,1,1.3,3,4.3,4.3,0,0,1-.7,2.3,13.5,13.5,0,0,1-2,2.8L86.2,125h7Zm2.5-7.4.8-7.5h8v2.1H98.6l-.4,3.6a4.6,4.6,0,0,1,2.3-.6,3.9,3.9,0,0,1,3.3,1.4,5.2,5.2,0,0,1,1.2,3.6,4.9,4.9,0,0,1-1.3,3.7,4.8,4.8,0,0,1-3.6,1.3,5,5,0,0,1-3.4-1.2,3.7,3.7,0,0,1-1.4-3h2.4a2.4,2.4,0,0,0,.7,1.6,2.5,2.5,0,0,0,1.7.6,2.2,2.2,0,0,0,1.8-.8,3.8,3.8,0,0,0,.6-2.2,3.1,3.1,0,0,0-.7-2.2,2.4,2.4,0,0,0-1.9-.8l-1.2.2a2.6,2.6,0,0,0-1,.7Z" transform="translate(-2 -30)"/><path d="M87.5,87.1H82.9v3.8h5.4V92H81.5V81.3h6.7v1.2H82.9v3.4h4.6Zm-2-8.7h1.6l-1.9,2.1H84.1ZM92.9,91a1.7,1.7,0,0,0,1.2-.4,1.4,1.4,0,0,0,.6-1.1H96a2.1,2.1,0,0,1-.5,1.3,2.7,2.7,0,0,1-1.1,1,4,4,0,0,1-1.5.3,3.3,3.3,0,0,1-2.6-1,4.2,4.2,0,0,1-1-3v-.2a4.6,4.6,0,0,1,.5-2.1A2.7,2.7,0,0,1,91,84.4a3.6,3.6,0,0,1,1.9-.5,3.5,3.5,0,0,1,2.2.8,2.9,2.9,0,0,1,.9,2.1H94.7a1.8,1.8,0,0,0-.6-1.3,1.7,1.7,0,0,0-1.2-.5,2.1,2.1,0,0,0-1.7.8,4.1,4.1,0,0,0-.5,2.1v.3a4.1,4.1,0,0,0,.5,2.1A2.1,2.1,0,0,0,92.9,91Zm8.5-5.7h-.7a1.7,1.7,0,0,0-1.8,1.2V92H97.5V84.1h1.4V85a2,2,0,0,1,1.9-1.1h.6Zm5.8,6.7a4.5,4.5,0,0,1-.2-.8,3.1,3.1,0,0,1-2.2.9,3.2,3.2,0,0,1-2-.6,2.4,2.4,0,0,1,.2-3.6,4.3,4.3,0,0,1,2.7-.7H107v-.6a1.6,1.6,0,0,0-.4-1.2,2.2,2.2,0,0,0-1.3-.4,1.6,1.6,0,0,0-1.2.4,1.1,1.1,0,0,0-.5.9h-1.3a1.9,1.9,0,0,1,.4-1.2,3.1,3.1,0,0,1,1.1-.8,2.9,2.9,0,0,1,1.6-.4,3.8,3.8,0,0,1,2.2.7,3,3,0,0,1,.8,1.9v3.6a7.4,7.4,0,0,0,.2,1.8h-1.4ZM105,91a1.9,1.9,0,0,0,1.2-.4,2,2,0,0,0,.8-.8V88.2h-1.1c-1.6,0-2.4.4-2.4,1.4a1.2,1.2,0,0,0,.4,1A1.8,1.8,0,0,0,105,91Zm6.8-6.9v1a2.9,2.9,0,0,1,2.4-1.2c1.7,0,2.5,1,2.5,2.9V92h-1.3V86.8a2.2,2.2,0,0,0-.4-1.3,1.6,1.6,0,0,0-1.2-.4,2.1,2.1,0,0,0-1.2.3,3.9,3.9,0,0,0-.8,1V92h-1.3V84.1Zm11.6,5.8a1.3,1.3,0,0,0-.4-.9,6.4,6.4,0,0,0-1.5-.5,5,5,0,0,1-1.6-.5,3.5,3.5,0,0,1-.9-.7,1.9,1.9,0,0,1-.3-1,2.3,2.3,0,0,1,.8-1.7,3.8,3.8,0,0,1,2.1-.7,3.6,3.6,0,0,1,2.2.7,2.3,2.3,0,0,1,.9,1.8h-1.4a1.4,1.4,0,0,0-.5-1,2.1,2.1,0,0,0-1.2-.4,1.4,1.4,0,0,0-1.1.4.9.9,0,0,0-.4.8.8.8,0,0,0,.3.7,3.8,3.8,0,0,0,1.4.5l1.7.6a2.2,2.2,0,0,1,.9.7,2,2,0,0,1,.3,1.1,2.1,2.1,0,0,1-.8,1.7,3.8,3.8,0,0,1-2.2.6,4.3,4.3,0,0,1-1.7-.3,2.7,2.7,0,0,1-1.2-.9,3.3,3.3,0,0,1-.4-1.3h1.4a1.2,1.2,0,0,0,.5,1,2.6,2.6,0,0,0,2.6.1A1,1,0,0,0,123.4,89.9Z" transform="translate(-2 -30)"/><path class="cls-2" d="M68.2,79.5V94.3H44.5V79.5Zm.1-1.5h-24A1.3,1.3,0,0,0,43,79.3v15a1.4,1.4,0,0,0,1.3,1.5H68.2a1.3,1.3,0,0,0,1.3-1.4V79.3c.2-.7-.4-1.3-1.2-1.3Z" transform="translate(-2 -30)"/><path class="cls-2" d="M59.7,98H53.1a.7.7,0,0,1-.8-.7.7.7,0,0,1,.8-.8h6.6a.7.7,0,0,1,.8.8C60.5,97.7,60,98,59.7,98Z" transform="translate(-2 -30)"/><path d="M320.4,123.1a1.7,1.7,0,0,0-.6-1.4,3.7,3.7,0,0,0-1.8-1.1l-2-.8a4.1,4.1,0,0,1-2.4-3.8,3.9,3.9,0,0,1,1-2.8,4.6,4.6,0,0,1,2.8-1.3v-2.2h1.7v2.2a4,4,0,0,1,2.7,1.5,5.2,5.2,0,0,1,1,3.3h-2.5a3.7,3.7,0,0,0-.5-2,2.1,2.1,0,0,0-1.6-.8,1.8,1.8,0,0,0-2.1,2.1,2,2,0,0,0,.5,1.4,4.8,4.8,0,0,0,1.9,1l2.1.9a4,4,0,0,1,1.2,1,2.5,2.5,0,0,1,.8,1.2,3.8,3.8,0,0,1,.3,1.6,3.9,3.9,0,0,1-1.1,2.8,5.2,5.2,0,0,1-2.9,1.3v2h-1.7v-2a5.1,5.1,0,0,1-3.1-1.5,4.8,4.8,0,0,1-1.1-3.2h2.5a2.7,2.7,0,0,0,.7,2,2.5,2.5,0,0,0,1.8.7,2.4,2.4,0,0,0,1.8-.6A2,2,0,0,0,320.4,123.1Zm11.4,3.9h-2.5V115l-3.6,1.3v-2.1l5.8-2.2h.3Zm6.9-2.6a1.4,1.4,0,0,1,1.1.4,1.5,1.5,0,0,1,.4,1,1.5,1.5,0,0,1-.4.9,1.4,1.4,0,0,1-1.1.4,1.5,1.5,0,0,1-1.1-.4,1.2,1.2,0,0,1-.3-.9,1.5,1.5,0,0,1,.3-1A1.4,1.4,0,0,1,338.7,124.4Zm4.8-4.8.8-7.5h8v2.1h-5.9l-.4,3.6a4.6,4.6,0,0,1,2.3-.6,3.9,3.9,0,0,1,3.3,1.4,5.2,5.2,0,0,1,1.2,3.6,4.9,4.9,0,0,1-1.3,3.7,4.8,4.8,0,0,1-3.6,1.3,5,5,0,0,1-3.4-1.2,3.7,3.7,0,0,1-1.4-3h2.4a2.4,2.4,0,0,0,.7,1.6,2.5,2.5,0,0,0,1.7.6,2.2,2.2,0,0,0,1.8-.8,3.8,3.8,0,0,0,.6-2.2,3.1,3.1,0,0,0-.7-2.2,2.4,2.4,0,0,0-1.9-.8l-1.2.2a2.6,2.6,0,0,0-1,.7Zm20.3-7.5,4.3,11.4,4.3-11.4h3.3V127h-2.5v-4.9l.2-6.6L369,127h-1.9l-4.4-11.5.3,6.6V127h-2.6V112.1ZM381.2,127h-2.5V115.9h2.5Zm-2.6-14a1.2,1.2,0,0,1,.3-.9,1.4,1.4,0,0,1,1.1-.4,1.2,1.2,0,0,1,1,.4,1,1,0,0,1,.4.9,1.3,1.3,0,0,1-.4,1,1.5,1.5,0,0,1-1,.3,1.8,1.8,0,0,1-1.1-.3A1.7,1.7,0,0,1,378.6,113Zm8,14h-2.5V111.3h2.5Zm5.4,0h-2.5V111.3H392Zm5.3,0h-2.4V115.9h2.4Zm-2.6-14a1,1,0,0,1,.4-.9,1.2,1.2,0,0,1,1-.4,1.1,1.1,0,0,1,1,.4,1,1,0,0,1,.4.9,1.3,1.3,0,0,1-.4,1,1.3,1.3,0,0,1-1,.3,1.5,1.5,0,0,1-1-.3A1.3,1.3,0,0,1,394.7,113Zm4.9,8.3a7.2,7.2,0,0,1,.6-2.9,5.2,5.2,0,0,1,1.9-2,4.4,4.4,0,0,1,2.6-.7,5.1,5.1,0,0,1,3.7,1.4,6.2,6.2,0,0,1,1.5,3.9v.6a6.8,6.8,0,0,1-.6,2.9,4.4,4.4,0,0,1-1.8,2,5,5,0,0,1-2.7.7,4.6,4.6,0,0,1-3.8-1.6,6,6,0,0,1-1.4-4.1Zm2.5.3a4.5,4.5,0,0,0,.7,2.7,2.4,2.4,0,0,0,2,.9,2.1,2.1,0,0,0,1.9-1,4.6,4.6,0,0,0,.7-2.9,4,4,0,0,0-.7-2.6,2.2,2.2,0,0,0-2-1,2.2,2.2,0,0,0-1.9,1A4.6,4.6,0,0,0,402.1,121.6Zm12.2-5.7v1.3a3.9,3.9,0,0,1,3.2-1.5c2.3,0,3.5,1.3,3.6,4V127h-2.5v-7.2a2.1,2.1,0,0,0-.5-1.5,1.8,1.8,0,0,0-1.5-.6,2.4,2.4,0,0,0-2.2,1.4V127H412V115.9Z" transform="translate(-2 -30)"/><path d="M347,92h-1.4V81.3H347Zm3.7-7.9V85a3,3,0,0,1,2.4-1.1,2.3,2.3,0,0,1,2.2,1.3,3.1,3.1,0,0,1,2.5-1.3c1.8,0,2.7.9,2.7,2.8V92h-1.4V86.8a2.3,2.3,0,0,0-.3-1.3,1.8,1.8,0,0,0-1.4-.4,1.6,1.6,0,0,0-1.2.4,2.3,2.3,0,0,0-.6,1.2V92h-1.3V86.8a1.5,1.5,0,0,0-1.7-1.7,2,2,0,0,0-1.9,1.1V92h-1.3V84.1Zm18.5,4a4.3,4.3,0,0,1-.8,2.9,2.4,2.4,0,0,1-2.2,1.1,3,3,0,0,1-2.3-.9V95h-1.4V84.1h1.3V85a3,3,0,0,1,2.3-1.1,2.7,2.7,0,0,1,2.3,1.1,4.5,4.5,0,0,1,.8,3Zm-1.3-.1a3.3,3.3,0,0,0-.6-2.1,1.7,1.7,0,0,0-1.6-.8,1.8,1.8,0,0,0-1.8,1.1V90a2,2,0,0,0,1.9,1,1.8,1.8,0,0,0,1.5-.7A3.7,3.7,0,0,0,367.9,88Zm6.9-2.7h-.7a1.7,1.7,0,0,0-1.8,1.2V92H371V84.1h1.3V85a2.3,2.3,0,0,1,1.9-1.1h.6Zm4.4,6.8a3.3,3.3,0,0,1-2.6-1,3.9,3.9,0,0,1-1-2.8V88a4.6,4.6,0,0,1,.4-2.1,2.9,2.9,0,0,1,1.3-1.4,2.7,2.7,0,0,1,1.7-.6,3,3,0,0,1,2.4,1,4.5,4.5,0,0,1,.9,3v.5h-5.4a2.9,2.9,0,0,0,.7,1.9,2.1,2.1,0,0,0,1.7.7,2.7,2.7,0,0,0,1.2-.3,2.8,2.8,0,0,0,.9-.7l.8.6A3.4,3.4,0,0,1,379.2,92.1ZM379,85a2,2,0,0,0-1.4.6,2.9,2.9,0,0,0-.6,1.7h3.9a2.5,2.5,0,0,0-.5-1.6A1.8,1.8,0,0,0,379,85Zm9.5,4.9a1.3,1.3,0,0,0-.4-.9l-1.5-.5A5,5,0,0,1,385,88a3.5,3.5,0,0,1-.9-.7,1.9,1.9,0,0,1-.3-1,2.3,2.3,0,0,1,.8-1.7,3.8,3.8,0,0,1,2.1-.7,3.6,3.6,0,0,1,2.2.7,2.3,2.3,0,0,1,.9,1.8h-1.4a1.4,1.4,0,0,0-.5-1,2.1,2.1,0,0,0-1.2-.4,1.4,1.4,0,0,0-1.1.4.9.9,0,0,0-.4.8.8.8,0,0,0,.3.7,3.8,3.8,0,0,0,1.4.5l1.7.6a2.2,2.2,0,0,1,.9.7,2,2,0,0,1,.3,1.1,2.1,2.1,0,0,1-.8,1.7,3.8,3.8,0,0,1-2.2.6,4.3,4.3,0,0,1-1.7-.3,2.7,2.7,0,0,1-1.2-.9,3.3,3.3,0,0,1-.4-1.3h1.4a1.2,1.2,0,0,0,.5,1,2.6,2.6,0,0,0,2.6.1A1,1,0,0,0,388.5,89.9Zm7.7,0a1,1,0,0,0-.4-.9l-1.5-.5-1.6-.5a3.5,3.5,0,0,1-.9-.7,1.9,1.9,0,0,1-.3-1,2.1,2.1,0,0,1,.9-1.7,3.5,3.5,0,0,1,4.2,0,2.3,2.3,0,0,1,.9,1.8h-1.4a1.1,1.1,0,0,0-.5-1,2.1,2.1,0,0,0-1.1-.4,1.6,1.6,0,0,0-1.2.4.9.9,0,0,0-.4.8.7.7,0,0,0,.4.7,2.7,2.7,0,0,0,1.4.5l1.6.6a2.6,2.6,0,0,1,1,.7,2,2,0,0,1,.3,1.1,2,2,0,0,1-.9,1.7,3.8,3.8,0,0,1-2.2.6,4.7,4.7,0,0,1-1.7-.3,2.4,2.4,0,0,1-1.1-.9,2.2,2.2,0,0,1-.4-1.3h1.3a1.1,1.1,0,0,0,.6,1,1.8,1.8,0,0,0,1.3.4,2.1,2.1,0,0,0,1.2-.3A1,1,0,0,0,396.2,89.9Zm4.6,2.1h-1.4V84.1h1.4Zm-1.5-10a1.4,1.4,0,0,1,.2-.6l.6-.2.6.2a.7.7,0,0,1,.2.6c0,.2,0,.4-.2.5s-.3.2-.6.2a.7.7,0,0,1-.6-.2A.8.8,0,0,1,399.3,82Zm3.3,6a4.6,4.6,0,0,1,.5-2.1,3.6,3.6,0,0,1,1.2-1.5,4.1,4.1,0,0,1,1.9-.5,3.3,3.3,0,0,1,2.6,1.1,4.4,4.4,0,0,1,1,3h0a4.6,4.6,0,0,1-.4,2.1,2.9,2.9,0,0,1-1.3,1.4,3,3,0,0,1-1.9.5,3.3,3.3,0,0,1-2.6-1.1,3.9,3.9,0,0,1-1-2.9Zm1.4.1a3.3,3.3,0,0,0,.6,2.1,1.7,1.7,0,0,0,1.6.8,1.9,1.9,0,0,0,1.7-.8,3.6,3.6,0,0,0,.6-2.2,3.3,3.3,0,0,0-.6-2.1,2.1,2.1,0,0,0-1.7-.9,1.9,1.9,0,0,0-1.6.8A3.9,3.9,0,0,0,404,88.1Zm8.8-4v1a2.8,2.8,0,0,1,2.3-1.2c1.7,0,2.5,1,2.6,2.9V92h-1.4V86.8a1.7,1.7,0,0,0-.4-1.3c-.2-.3-.6-.4-1.2-.4a2,2,0,0,0-1.1.3,2.5,2.5,0,0,0-.8,1V92h-1.4V84.1Zm11.6,5.8a1,1,0,0,0-.4-.9l-1.4-.5a5.8,5.8,0,0,1-1.7-.5,3.5,3.5,0,0,1-.9-.7,1.9,1.9,0,0,1-.3-1,2.1,2.1,0,0,1,.9-1.7,3.3,3.3,0,0,1,2.1-.7,3.8,3.8,0,0,1,2.2.7,2.5,2.5,0,0,1,.8,1.8h-1.4a1.3,1.3,0,0,0-.4-1,2.5,2.5,0,0,0-1.2-.4,1.6,1.6,0,0,0-1.2.4.9.9,0,0,0-.4.8.7.7,0,0,0,.4.7,2.7,2.7,0,0,0,1.4.5l1.6.6a2,2,0,0,1,1,.7,2,2,0,0,1,.3,1.1,2,2,0,0,1-.9,1.7,3.6,3.6,0,0,1-2.2.6,4.7,4.7,0,0,1-1.7-.3,2.4,2.4,0,0,1-1.1-.9,2.2,2.2,0,0,1-.4-1.3h1.3a1.3,1.3,0,0,0,.6,1,1.8,1.8,0,0,0,1.3.4,2.8,2.8,0,0,0,1.3-.3A.9.9,0,0,0,424.4,89.9Z" transform="translate(-2 -30)"/><path class="cls-2" d="M323.2,81c-5.4,0-9.2,6-9.2,6s2.8,6,9.2,6,9.2-6,9.2-6S328.7,81,323.2,81Zm0,9.8A3.8,3.8,0,1,1,327,87,3.8,3.8,0,0,1,323.2,90.8Z" transform="translate(-2 -30)"/><path class="cls-2" d="M324.8,87a1.6,1.6,0,1,1-1.6-1.6A1.6,1.6,0,0,1,324.8,87Z" transform="translate(-2 -30)"/><path class="cls-2" d="M186.8,78a1.8,1.8,0,0,0-1.8,1.8V92.4a1.6,1.6,0,0,0,1.5,1.6h15a1.6,1.6,0,0,0,1.5-1.6V82.2a1.5,1.5,0,0,0-1.5-1.5h-1.1V78.4a.5.5,0,0,0-.5-.4Zm0,.9h12.7v1.8H186.8a.9.9,0,0,1,0-1.8Zm-.9,2.4a1.2,1.2,0,0,0,.9.3h14.7a.6.6,0,0,1,.6.6v2.7h-6.3a1.1,1.1,0,0,0-1.1,1.1v2.7a1.1,1.1,0,0,0,1.1,1.1h6.3v2.6a.7.7,0,0,1-.6.7h-15a.7.7,0,0,1-.6-.7Zm9.9,4.5h6.3v3.1h-6.3c-.2,0-.3-.1-.3-.2V86C195.5,85.9,195.6,85.8,195.8,85.8Zm2.2.6a.9.9,0,0,0,0,1.8.9.9,0,0,0,0-1.8Z" transform="translate(-2 -30)"/><path d="M188.4,123.1a1.7,1.7,0,0,0-.6-1.4,3.7,3.7,0,0,0-1.8-1.1l-2-.8a4.1,4.1,0,0,1-2.4-3.8,3.9,3.9,0,0,1,1-2.8,4.6,4.6,0,0,1,2.8-1.3v-2.2h1.7v2.2a4,4,0,0,1,2.7,1.5,5.2,5.2,0,0,1,1,3.3h-2.5a3.7,3.7,0,0,0-.5-2,2.1,2.1,0,0,0-1.6-.8,1.8,1.8,0,0,0-2.1,2.1,2,2,0,0,0,.5,1.4,4.8,4.8,0,0,0,1.9,1l2.1.9a4,4,0,0,1,1.2,1,2.5,2.5,0,0,1,.8,1.2,3.8,3.8,0,0,1,.3,1.6,3.9,3.9,0,0,1-1.1,2.8,5.2,5.2,0,0,1-2.9,1.3v2h-1.7v-2a5.1,5.1,0,0,1-3.1-1.5,4.8,4.8,0,0,1-1.1-3.2h2.5a2.7,2.7,0,0,0,.7,2,2.5,2.5,0,0,0,1.8.7,2.4,2.4,0,0,0,1.8-.6A2,2,0,0,0,188.4,123.1Zm11.4,3.9h-2.5V115l-3.6,1.3v-2.1l5.8-2.2h.3Zm15.2,0H205v-1.7l5-5.4a14.6,14.6,0,0,0,1.5-2,3.7,3.7,0,0,0,.5-1.7,2.2,2.2,0,0,0-.7-1.7,2.1,2.1,0,0,0-1.6-.6,2.1,2.1,0,0,0-1.8.7,2.7,2.7,0,0,0-.7,2h-2.5a4.8,4.8,0,0,1,.6-2.4,3.7,3.7,0,0,1,1.8-1.7,6,6,0,0,1,2.7-.6,4.8,4.8,0,0,1,3.4,1.1,3.8,3.8,0,0,1,1.2,3,5.3,5.3,0,0,1-.6,2.3,11.3,11.3,0,0,1-2.1,2.8l-3.6,3.9H215Zm2.4,3.4-1.3-.8a6.3,6.3,0,0,0,.8-1.7,3.2,3.2,0,0,0,.2-1.4v-1.9h2.3v1.8a5.8,5.8,0,0,1-2,4Zm13.9-9.7a8.2,8.2,0,0,1-1.2,4.9,4.3,4.3,0,0,1-3.7,1.6,4.4,4.4,0,0,1-3.7-1.6,7.8,7.8,0,0,1-1.2-4.7v-2.6a7.9,7.9,0,0,1,1.2-4.8,4.2,4.2,0,0,1,3.7-1.6,4.3,4.3,0,0,1,3.6,1.5,8.5,8.5,0,0,1,1.3,4.7Zm-2.5-2.8a6.3,6.3,0,0,0-.6-3.1,2.3,2.3,0,0,0-3.6,0,5.5,5.5,0,0,0-.6,2.9v3.4a6.3,6.3,0,0,0,.6,3.1,1.9,1.9,0,0,0,1.8,1,2,2,0,0,0,1.8-.9,6.1,6.1,0,0,0,.6-3Zm14.4,2.8a8.2,8.2,0,0,1-1.2,4.9,4.2,4.2,0,0,1-3.7,1.6,4.1,4.1,0,0,1-3.6-1.6,8.5,8.5,0,0,1-1.3-4.7v-2.6a7.9,7.9,0,0,1,1.2-4.8,4.3,4.3,0,0,1,3.7-1.6,4.5,4.5,0,0,1,3.7,1.5,7.8,7.8,0,0,1,1.2,4.7Zm-2.5-2.8a6.3,6.3,0,0,0-.6-3.1,1.9,1.9,0,0,0-1.8-.9,2,2,0,0,0-1.8.9,5.5,5.5,0,0,0-.6,2.9v3.4a6.3,6.3,0,0,0,.6,3.1,1.9,1.9,0,0,0,1.8,1,2,2,0,0,0,1.8-.9,6.1,6.1,0,0,0,.6-3Zm14.4,2.8a8.2,8.2,0,0,1-1.2,4.9,4.1,4.1,0,0,1-3.6,1.6,4.3,4.3,0,0,1-3.7-1.6,7.8,7.8,0,0,1-1.2-4.7v-2.6a7.9,7.9,0,0,1,1.2-4.8,4.2,4.2,0,0,1,3.7-1.6,4.3,4.3,0,0,1,3.6,1.5,7.8,7.8,0,0,1,1.2,4.7Zm-2.5-2.8a6.4,6.4,0,0,0-.5-3.1,2,2,0,0,0-1.8-.9,1.8,1.8,0,0,0-1.8.9,5.5,5.5,0,0,0-.6,2.9v3.4a6.4,6.4,0,0,0,.5,3.1,2,2,0,0,0,1.9,1,1.8,1.8,0,0,0,1.7-.9,6.1,6.1,0,0,0,.6-3Z" transform="translate(-2 -30)"/><path d="M211.5,92V81.3H215a3.8,3.8,0,0,1,2.6.8,2.3,2.3,0,0,1,.9,2.1,2.8,2.8,0,0,1-.4,1.3,2.7,2.7,0,0,1-1.2.9,3.4,3.4,0,0,1,1.4.9,3,3,0,0,1,.5,1.6,2.8,2.8,0,0,1-1,2.3,4,4,0,0,1-2.6.8Zm1.4-5v3.9h2.3a2.1,2.1,0,0,0,1.6-.6,1.7,1.7,0,0,0,.6-1.4c0-1.2-.7-1.9-2.1-1.9Zm0-1.1H215a2.1,2.1,0,0,0,1.5-.5,1.4,1.4,0,0,0,.6-1.2,1.7,1.7,0,0,0-.5-1.3,2.5,2.5,0,0,0-1.6-.4h-2.1Zm12.6,5.3a2.9,2.9,0,0,1-2.3.9,2.4,2.4,0,0,1-1.9-.7,2.9,2.9,0,0,1-.7-2.2V84.1H222v5.1c0,1.2.5,1.8,1.4,1.8a2,2,0,0,0,2.1-1.2V84.1h1.4V92h-1.3Zm3.1-3.2a4.9,4.9,0,0,1,.9-3,2.7,2.7,0,0,1,2.2-1.1,2.6,2.6,0,0,1,2.2,1V80.8h1.4V92H234v-.8a3,3,0,0,1-2.3.9,2.4,2.4,0,0,1-2.2-1.1,4.4,4.4,0,0,1-.9-2.9Zm1.3.1a3.3,3.3,0,0,0,.6,2.1,1.9,1.9,0,0,0,1.5.8,2,2,0,0,0,1.9-1.2V86.2a2,2,0,0,0-1.8-1.1,1.9,1.9,0,0,0-1.6.7A3.9,3.9,0,0,0,229.9,88.1Zm7.2-.1a5.3,5.3,0,0,1,.8-3,3,3,0,0,1,2.3-1.1,2.8,2.8,0,0,1,2.3,1.1v-.9h1.3v7.7a3,3,0,0,1-1,2.4,3.2,3.2,0,0,1-2.4.9,5.1,5.1,0,0,1-1.7-.3,4,4,0,0,1-1.2-1l.7-.9a2.5,2.5,0,0,0,2.1,1.1,2.1,2.1,0,0,0,1.5-.5,2.1,2.1,0,0,0,.6-1.6v-.7a2.8,2.8,0,0,1-2.2.9,2.7,2.7,0,0,1-2.3-1.1A5.1,5.1,0,0,1,237.1,88Zm1.3.1a3.3,3.3,0,0,0,.6,2.1,1.8,1.8,0,0,0,1.5.8,2,2,0,0,0,1.9-1.2V86.2a2,2,0,0,0-1.9-1.1,1.8,1.8,0,0,0-1.5.7A3.9,3.9,0,0,0,238.4,88.1Zm10.7,4a3.4,3.4,0,0,1-2.6-1,3.9,3.9,0,0,1-1-2.8V88a4.6,4.6,0,0,1,.4-2.1,2.9,2.9,0,0,1,1.3-1.4,2.7,2.7,0,0,1,1.7-.6,3,3,0,0,1,2.4,1,4.5,4.5,0,0,1,.9,3v.5h-5.4a2.9,2.9,0,0,0,.7,1.9,2.1,2.1,0,0,0,1.7.7,2.1,2.1,0,0,0,1.2-.3,2.8,2.8,0,0,0,.9-.7l.8.6A3.4,3.4,0,0,1,249.1,92.1Zm-.2-7.1a1.6,1.6,0,0,0-1.3.6,2.9,2.9,0,0,0-.7,1.7h3.9a2.5,2.5,0,0,0-.5-1.6A1.8,1.8,0,0,0,248.9,85Zm6.7-2.8v1.9h1.5v1h-1.5V90a1.5,1.5,0,0,0,.2.8l.7.2h.6V92h-1a1.6,1.6,0,0,1-1.4-.5,2.5,2.5,0,0,1-.4-1.6V85.1h-1.5v-1h1.5V82.2Z" transform="translate(-2 -30)"/><path d="M502.4,123.1a1.7,1.7,0,0,0-.6-1.4,3.7,3.7,0,0,0-1.8-1.1l-2-.8a4.1,4.1,0,0,1-2.4-3.8,3.9,3.9,0,0,1,1-2.8,4.6,4.6,0,0,1,2.8-1.3v-2.2h1.7v2.2a4,4,0,0,1,2.7,1.5,5.2,5.2,0,0,1,1,3.3h-2.5a3.7,3.7,0,0,0-.5-2,2.1,2.1,0,0,0-1.6-.8,1.8,1.8,0,0,0-2.1,2.1,2,2,0,0,0,.5,1.4,4.8,4.8,0,0,0,1.9,1l2.1.9a4,4,0,0,1,1.2,1,2.5,2.5,0,0,1,.8,1.2,3.8,3.8,0,0,1,.3,1.6,3.9,3.9,0,0,1-1.1,2.8,5.2,5.2,0,0,1-2.9,1.3v2h-1.7v-2a5.1,5.1,0,0,1-3.1-1.5,4.8,4.8,0,0,1-1.1-3.2h2.5a2.7,2.7,0,0,0,.7,2,2.5,2.5,0,0,0,1.8.7,2.4,2.4,0,0,0,1.8-.6A2,2,0,0,0,502.4,123.1Zm14.1-7.1a3.6,3.6,0,0,1-.6,2,4.7,4.7,0,0,1-1.5,1.3,5,5,0,0,1,1.7,1.5,3.1,3.1,0,0,1,.7,2.1,4.4,4.4,0,0,1-1.3,3.2,5.7,5.7,0,0,1-3.6,1.1,5.2,5.2,0,0,1-3.6-1.2,3.7,3.7,0,0,1-1.3-3.1,3.7,3.7,0,0,1,.6-2.1,5.2,5.2,0,0,1,1.8-1.5,4.7,4.7,0,0,1-1.5-1.3,3.6,3.6,0,0,1-.6-2,3.8,3.8,0,0,1,1.3-3,5.5,5.5,0,0,1,6.6,0A3.8,3.8,0,0,1,516.5,116Zm-2.2,6.8a2.4,2.4,0,0,0-2.4-2.5,2.9,2.9,0,0,0-1.8.7,2.4,2.4,0,0,0,1.8,4.2,2.6,2.6,0,0,0,1.8-.6A2.4,2.4,0,0,0,514.3,122.8Zm-.3-6.7a2.3,2.3,0,0,0-.6-1.6,2.2,2.2,0,0,0-3,0,2.4,2.4,0,0,0,0,3.2,2.2,2.2,0,0,0,3,0A2.1,2.1,0,0,0,514,116.1Z" transform="translate(-2 -30)"/><path d="M501.1,91.6a3.8,3.8,0,0,1-1.3,2.6,4.1,4.1,0,0,1-2.8.9,3.8,3.8,0,0,1-3-1.3,5.7,5.7,0,0,1-1.1-3.6V89.1a5.5,5.5,0,0,1,.5-2.6,5,5,0,0,1,1.5-1.7,4.4,4.4,0,0,1,2.3-.6,3.6,3.6,0,0,1,3.9,3.6h-1.4a3.7,3.7,0,0,0-.8-1.9,2.4,2.4,0,0,0-1.7-.6,3,3,0,0,0-2.2,1,5,5,0,0,0-.7,2.9v1A4.7,4.7,0,0,0,495,93a2.3,2.3,0,0,0,2,1,3,3,0,0,0,1.8-.5,3.1,3.1,0,0,0,.9-1.9Zm3.3-.8V95H503V84.3h3.9a4.1,4.1,0,0,1,2.8.9,3.3,3.3,0,0,1,1,2.4,3,3,0,0,1-1,2.4,4.4,4.4,0,0,1-2.8.8Zm0-1.1h2.5a2.4,2.4,0,0,0,1.8-.6,1.8,1.8,0,0,0,.6-1.5,2,2,0,0,0-.6-1.5,2.4,2.4,0,0,0-1.7-.6h-2.6Zm9.9-5.4,3.5,8.7,3.5-8.7h1.8V95h-1.4V86.4L518.3,95h-1.1l-3.5-8.6.2,4.4V95h-1.4V84.3Z" transform="translate(-2 -30)"/><path class="cls-2" d="M480.7,88.8a2.8,2.8,0,0,0-.8-1.2,6.4,6.4,0,0,0-1.6-1.2,9.7,9.7,0,0,1-1.7-1.2,1.9,1.9,0,0,1-.3-1.2,1.5,1.5,0,0,1,.1-.7l.5-.2c.2,0,.4.1.4.3a2.8,2.8,0,0,1,.1,1.1v.6h3.2a1.8,1.8,0,0,0,.1-.6,3.6,3.6,0,0,0-.8-2.4,3.5,3.5,0,0,0-2.2-1V80h-1.5v1.1a4.4,4.4,0,0,0-2.4,1,3.6,3.6,0,0,0-.8,2.4,4.1,4.1,0,0,0,.4,1.9,3,3,0,0,0,.9,1.3l2,1.4c.6.4.9.7,1,1a6.5,6.5,0,0,1,.2,1.7.8.8,0,0,1-.2.6.5.5,0,0,1-.5.3.5.5,0,0,1-.5-.4c0-.2-.1-.7-.1-1.6v-.9H473v.7a4.7,4.7,0,0,0,1,3.2,3.7,3.7,0,0,0,2.2,1V96h1.5V94.7a4,4,0,0,0,2.5-1.2,5,5,0,0,0,.8-2.9,4.8,4.8,0,0,0-.3-1.8Z" transform="translate(-2 -30)"/><path class="cls-3" d="M10,141.3H705a9.8,9.8,0,0,1,9.8,9.8V297a9.7,9.7,0,0,1-9.7,9.7H10A9.8,9.8,0,0,1,.2,297V151a9.8,9.8,0,0,1,9.8-9.7Z"/><path d="M31.1,204H29V194h2.1Zm3.6-7.4v.9a2.7,2.7,0,0,1,2.2-1,2.1,2.1,0,0,1,1.7.7,2.8,2.8,0,0,1,.6,2V204h-2v-4.7c0-.4-.1-.8-.3-.9s-.4-.3-.9-.3a1.3,1.3,0,0,0-1.2.7V204h-2v-7.4Zm8.8,5,1.3-5h2.1L44.4,204H42.5L40,196.6h2.1Zm7.6,2.5a3.4,3.4,0,0,1-3.7-3.6v-.2a5.9,5.9,0,0,1,.4-2,3.5,3.5,0,0,1,1.3-1.4,3.4,3.4,0,0,1,1.8-.4,3.2,3.2,0,0,1,2.4.9,4.6,4.6,0,0,1,.8,2.7v.8H49.4a2.3,2.3,0,0,0,.6,1.2,1.6,1.6,0,0,0,1.2.4,1.9,1.9,0,0,0,1.8-.8l1,1.1a2.9,2.9,0,0,1-1.2,1A4.7,4.7,0,0,1,51.1,204.1Zm-.2-6a1.2,1.2,0,0,0-1,.4,2.3,2.3,0,0,0-.5,1.1h2.8v-.2a1.3,1.3,0,0,0-.4-1A1.2,1.2,0,0,0,50.9,198.1Zm6.2-1.5v.9a2.7,2.7,0,0,1,2.2-1,2.1,2.1,0,0,1,1.7.7,2.8,2.8,0,0,1,.6,2V204h-2v-4.7c0-.4-.1-.8-.3-.9s-.4-.3-.9-.3a1.3,1.3,0,0,0-1.2.7V204h-2v-7.4Zm8.4-1.8v1.8h1.2v1.5H65.5v3.6c0,.3,0,.5.1.6s.3.2.6.2h.6V204H65.6a1.9,1.9,0,0,1-2.1-2.1v-3.9H62.4v-1.5h1.1v-1.8Zm6.6,9.2a6.4,6.4,0,0,1-.2-.7,2.2,2.2,0,0,1-1.8.8,2.4,2.4,0,0,1-1.8-.6,1.9,1.9,0,0,1-.8-1.6,2,2,0,0,1,.9-1.8,4.4,4.4,0,0,1,2.5-.6h.9v-.4c0-.4,0-.7-.2-.9a1.2,1.2,0,0,0-.9-.3.9.9,0,0,0-.7.3.6.6,0,0,0-.3.6h-2a1.9,1.9,0,0,1,.4-1.2,3.1,3.1,0,0,1,1.1-.8,4.1,4.1,0,0,1,1.6-.3,2.9,2.9,0,0,1,2.2.7,2.1,2.1,0,0,1,.8,1.9v3.2a3.5,3.5,0,0,0,.3,1.6h-2Zm-1.6-1.4a1.4,1.4,0,0,0,1.3-.7v-1.3h-.7c-1,0-1.5.4-1.6,1.1h0a.9.9,0,0,0,.3.6Zm6.9,1.4h-2v-7.4h2Zm-2.1-9.3a.8.8,0,0,1,.3-.7,1.1,1.1,0,0,1,.8-.3,1,1,0,0,1,.8.3.8.8,0,0,1,.3.7.9.9,0,0,1-.3.7,1,1,0,0,1-.8.3,1.1,1.1,0,0,1-.8-.3A.9.9,0,0,1,75.3,194.7Zm7.9,3.8h-.7a1.6,1.6,0,0,0-1.5.8V204H79.1v-7.4h1.8v.9a1.7,1.7,0,0,1,1.6-1h.6Zm4.2,5.6a3.5,3.5,0,0,1-2.6-1,3.3,3.3,0,0,1-1-2.6v-.2a4.2,4.2,0,0,1,.4-2,4.1,4.1,0,0,1,1.2-1.4,3.4,3.4,0,0,1,1.8-.4,3.2,3.2,0,0,1,2.4.9,4,4,0,0,1,.9,2.7v.8H85.8a1.7,1.7,0,0,0,.5,1.2,2,2,0,0,0,1.3.4,2.2,2.2,0,0,0,1.8-.8l.9,1.1a2.9,2.9,0,0,1-1.2,1A4.3,4.3,0,0,1,87.4,204.1Zm-.2-6a1,1,0,0,0-.9.4,1.6,1.6,0,0,0-.5,1.1h2.7v-.2a1.7,1.7,0,0,0-.3-1A1.5,1.5,0,0,0,87.2,198.1Zm9.7-1.5v.9a2.4,2.4,0,0,1,2.1-1,2.1,2.1,0,0,1,1.8.7,3.4,3.4,0,0,1,.5,2V204H99.5v-4.7c0-.4-.1-.8-.3-.9a1.2,1.2,0,0,0-.9-.3,1.4,1.4,0,0,0-1.3.7V204H95.1v-7.4Zm10.5,6.6a2.6,2.6,0,0,1-2.1.9,2.6,2.6,0,0,1-1.8-.6,3.3,3.3,0,0,1-.6-2.1v-4.8h2v4.8c0,.8.3,1.1,1,1.1s1.2-.2,1.4-.7v-5.2h2V204h-1.9Zm5.2-6.6v.8a2.6,2.6,0,0,1,2.1-.9,1.9,1.9,0,0,1,2,1.1,2.3,2.3,0,0,1,2.2-1.1,2.1,2.1,0,0,1,1.8.7,2.9,2.9,0,0,1,.6,2.1V204h-2v-4.7a2,2,0,0,0-.2-.9,1.2,1.2,0,0,0-.9-.3,1.2,1.2,0,0,0-1.2.8V204h-2v-4.7a1.2,1.2,0,0,0-.3-.9c-.1-.2-.4-.3-.8-.3a1.1,1.1,0,0,0-1.2.7V204h-2v-7.4Zm13.7,7.5a3.3,3.3,0,0,1-2.6-1,3.3,3.3,0,0,1-1.1-2.6v-.2a4.2,4.2,0,0,1,.5-2,4.1,4.1,0,0,1,1.2-1.4,3.4,3.4,0,0,1,1.8-.4,3.2,3.2,0,0,1,2.4.9,4,4,0,0,1,.9,2.7v.8h-4.8a2.3,2.3,0,0,0,.6,1.2,1.6,1.6,0,0,0,1.2.4,1.9,1.9,0,0,0,1.8-.8l1,1.1a2.9,2.9,0,0,1-1.2,1A4.7,4.7,0,0,1,126.3,204.1Zm-.2-6a1.3,1.3,0,0,0-1,.4,1.6,1.6,0,0,0-.4,1.1h2.7v-.2a1.1,1.1,0,0,0-1.3-1.3Zm.2-4.6h2.1l-1.9,2.1h-1.6Zm8.3,5h-.7a1.4,1.4,0,0,0-1.4.8V204h-2v-7.4h1.8v.9a1.7,1.7,0,0,1,1.6-1h.7Zm3.1,5.5h-2v-7.4h2Zm-2.1-9.3a.8.8,0,0,1,.3-.7,1,1,0,0,1,.8-.3,1.1,1.1,0,0,1,.8.3.8.8,0,0,1,.3.7.9.9,0,0,1-.3.7,1.2,1.2,0,0,1-1.6,0A.9.9,0,0,1,135.6,194.7Zm3.4,5.5a4.6,4.6,0,0,1,.8-2.7,2.4,2.4,0,0,1,2.1-1,2.3,2.3,0,0,1,1.9.9v-.8h1.8v10.2h-2v-3.4a2.7,2.7,0,0,1-3.9-.3A4.8,4.8,0,0,1,139,200.2Zm2,.2a3.5,3.5,0,0,0,.3,1.6,1.2,1.2,0,0,0,1.1.5,1.4,1.4,0,0,0,1.3-.7v-3a1.4,1.4,0,0,0-1.3-.7,1.2,1.2,0,0,0-1,.5A3,3,0,0,0,141,200.4Zm10.7,2.8a2.6,2.6,0,0,1-2.1.9,2.4,2.4,0,0,1-1.8-.6,3.3,3.3,0,0,1-.6-2.1v-4.8h2v4.8c0,.8.3,1.1,1,1.1a1.4,1.4,0,0,0,1.4-.7v-5.2h2V204h-1.9Zm6.8.9a3.6,3.6,0,0,1-2.7-1,3.3,3.3,0,0,1-1-2.6v-.2a4.2,4.2,0,0,1,.4-2,4.1,4.1,0,0,1,1.2-1.4,3.9,3.9,0,0,1,1.8-.4,3,3,0,0,1,2.4.9,4,4,0,0,1,.9,2.7v.8h-4.7a2.3,2.3,0,0,0,.6,1.2,1.6,1.6,0,0,0,1.2.4,2.1,2.1,0,0,0,1.8-.8l.9,1.1a2,2,0,0,1-1.2,1A4.1,4.1,0,0,1,158.5,204.1Zm-.3-6a1,1,0,0,0-.9.4,1.6,1.6,0,0,0-.5,1.1h2.8v-.2a1.8,1.8,0,0,0-.4-1A1.3,1.3,0,0,0,158.2,198.1Z" transform="translate(-2 -30)"/><rect class="cls-4" x="139" y="225" width="61" height="10" rx="2"/><rect class="cls-5" x="227" y="225" width="39" height="10" rx="2"/><rect class="cls-5" x="411" y="225" width="39" height="10" rx="2"/><rect class="cls-5" x="504" y="225" width="80" height="10" rx="2"/><rect class="cls-5" x="635" y="227" width="108" height="9" rx="2"/><rect class="cls-5" x="296" y="225" width="69" height="10" rx="2"/><rect class="cls-4" x="139" y="249" width="61" height="10" rx="2"/><rect class="cls-5" x="227" y="249" width="39" height="10" rx="2"/><rect class="cls-5" x="411" y="249" width="39" height="10" rx="2"/><rect class="cls-5" x="504" y="249" width="80" height="10" rx="2"/><rect class="cls-5" x="635" y="249" width="108" height="10" rx="2"/><rect class="cls-5" x="296" y="249" width="69" height="10" rx="2"/><rect class="cls-4" x="139" y="275" width="61" height="10" rx="2"/><rect class="cls-5" x="227" y="275" width="39" height="10" rx="2"/><rect class="cls-5" x="411" y="275" width="39" height="10" rx="2"/><rect class="cls-5" x="504" y="275" width="80" height="10" rx="2"/><rect class="cls-5" x="635" y="274" width="108" height="9" rx="2"/><rect class="cls-5" x="296" y="275" width="69" height="10" rx="2"/><path d="M149.1,238.2h-4.4l-1,2.8h-1.5l4.1-10.7h1.2l4.1,10.7h-1.4Zm-4-1.1h3.6l-1.8-5Zm7.4-.1a4.7,4.7,0,0,1,.9-3,2.7,2.7,0,0,1,2.2-1.1,2.5,2.5,0,0,1,2.2,1v-4.2h1.4V241h-1.3v-.9a2.8,2.8,0,0,1-2.3,1,2.4,2.4,0,0,1-2.2-1.1,4.4,4.4,0,0,1-.9-2.9Zm1.4.1a3.3,3.3,0,0,0,.5,2.1,1.9,1.9,0,0,0,1.6.8,1.9,1.9,0,0,0,1.8-1.2v-3.6a1.8,1.8,0,0,0-1.8-1.1,1.9,1.9,0,0,0-1.6.7A3.9,3.9,0,0,0,153.9,237.1Zm7.1-.1a5.3,5.3,0,0,1,.8-3,3,3,0,0,1,2.3-1.1,2.6,2.6,0,0,1,2.2,1v-4.2h1.4V241h-1.3v-.9a2.8,2.8,0,0,1-2.3,1,2.7,2.7,0,0,1-2.3-1.1,5,5,0,0,1-.8-2.9Zm1.3.1a3.3,3.3,0,0,0,.6,2.1,1.9,1.9,0,0,0,1.5.8,2,2,0,0,0,1.9-1.2v-3.6a1.9,1.9,0,0,0-1.9-1.1,1.8,1.8,0,0,0-1.5.7A3.9,3.9,0,0,0,162.3,237.1Zm11.3-2.8H173a2,2,0,0,0-1.9,1.2V241h-1.3v-7.9h1.3v.9a2.3,2.3,0,0,1,1.9-1.1h.6Zm4.4,6.8a3.4,3.4,0,0,1-2.6-1,3.9,3.9,0,0,1-1-2.8V237a4.6,4.6,0,0,1,.4-2.1,4.7,4.7,0,0,1,1.3-1.5,3.5,3.5,0,0,1,1.8-.5,3.3,3.3,0,0,1,2.4,1,5.1,5.1,0,0,1,.8,3v.5h-5.4a3.6,3.6,0,0,0,.7,1.9,2.2,2.2,0,0,0,1.7.7,2.1,2.1,0,0,0,1.2-.3,2.8,2.8,0,0,0,.9-.7l.8.6A3.2,3.2,0,0,1,178,241.1Zm-.1-7.1a1.7,1.7,0,0,0-1.4.6,2.9,2.9,0,0,0-.7,1.7h4a3.4,3.4,0,0,0-.6-1.6A1.6,1.6,0,0,0,177.9,234Zm9.4,4.9a1,1,0,0,0-.4-.9l-1.4-.5a5.8,5.8,0,0,1-1.7-.5,3.5,3.5,0,0,1-.9-.7,2,2,0,0,1-.3-1.1,1.9,1.9,0,0,1,.9-1.6,2.8,2.8,0,0,1,2.1-.7,3.2,3.2,0,0,1,2.2.7,2.5,2.5,0,0,1,.8,1.8h-1.4a1.3,1.3,0,0,0-.4-1,2.5,2.5,0,0,0-1.2-.4,1.6,1.6,0,0,0-1.2.4.9.9,0,0,0-.4.8.7.7,0,0,0,.4.7,2.7,2.7,0,0,0,1.4.5,4.9,4.9,0,0,1,1.6.6,2,2,0,0,1,1,.7,2,2,0,0,1,.3,1.1,2,2,0,0,1-.9,1.7,3.6,3.6,0,0,1-2.2.6,4.7,4.7,0,0,1-1.7-.3,2.4,2.4,0,0,1-1.1-.9,2.2,2.2,0,0,1-.4-1.3h1.3a1.1,1.1,0,0,0,.6,1,1.8,1.8,0,0,0,1.3.4,2.1,2.1,0,0,0,1.2-.3A.8.8,0,0,0,187.3,238.9Zm7.8,0a1.1,1.1,0,0,0-.5-.9,4.2,4.2,0,0,0-1.4-.5,5,5,0,0,1-1.6-.5,3.5,3.5,0,0,1-.9-.7,2,2,0,0,1-.3-1.1,2.1,2.1,0,0,1,.8-1.6,3.1,3.1,0,0,1,2.1-.7,3.2,3.2,0,0,1,2.2.7,2.2,2.2,0,0,1,.8,1.8H195a1.4,1.4,0,0,0-.5-1,2.1,2.1,0,0,0-1.2-.4,1.2,1.2,0,0,0-1.1.4,1,1,0,0,0-.5.8.8.8,0,0,0,.4.7,3.8,3.8,0,0,0,1.4.5,5.6,5.6,0,0,1,1.7.6,2.2,2.2,0,0,1,.9.7,2,2,0,0,1,.3,1.1,2.1,2.1,0,0,1-.8,1.7,3.8,3.8,0,0,1-2.2.6,4.3,4.3,0,0,1-1.7-.3,2.7,2.7,0,0,1-1.2-.9,2.2,2.2,0,0,1-.4-1.3h1.4a1.2,1.2,0,0,0,.5,1,2.6,2.6,0,0,0,2.6.1A1,1,0,0,0,195.1,238.9Zm6.4,2.2a3.3,3.3,0,0,1-2.6-1,3.9,3.9,0,0,1-1.1-2.8V237a4.6,4.6,0,0,1,.5-2.1,3.7,3.7,0,0,1,1.3-1.5,3.4,3.4,0,0,1,1.7-.5,3.3,3.3,0,0,1,2.4,1,4.5,4.5,0,0,1,.9,3v.5h-5.4a2.5,2.5,0,0,0,.7,1.9,2.1,2.1,0,0,0,1.7.7,2.7,2.7,0,0,0,1.2-.3,1.8,1.8,0,0,0,.8-.7l.9.6A3.4,3.4,0,0,1,201.5,241.1Zm-.2-7.1a2,2,0,0,0-1.4.6,3.8,3.8,0,0,0-.7,1.7h4a2.5,2.5,0,0,0-.5-1.6A1.8,1.8,0,0,0,201.3,234Z" transform="translate(-2 -30)"/><path d="M231.2,241V230.3h3.1a4.8,4.8,0,0,1,2.4.6,4.2,4.2,0,0,1,1.7,1.8,5.3,5.3,0,0,1,.6,2.6v.7a5.3,5.3,0,0,1-.6,2.6,4.2,4.2,0,0,1-1.7,1.8,4.9,4.9,0,0,1-2.5.6Zm1.4-9.5v8.3h1.5a3.3,3.3,0,0,0,2.6-1,3.9,3.9,0,0,0,.9-2.8v-.7a4.1,4.1,0,0,0-.9-2.8,3,3,0,0,0-2.4-1Zm9.8,9.5H241v-7.9h1.4Zm-1.5-10a1.1,1.1,0,0,1,.2-.6c.1-.2.3-.2.6-.2s.5,0,.6.2a1.1,1.1,0,0,1,.2.6.8.8,0,0,1-.2.5c-.1.2-.3.2-.6.2s-.5,0-.6-.2A.8.8,0,0,1,240.9,231Zm8.3,7.9a1.1,1.1,0,0,0-.5-.9,4.2,4.2,0,0,0-1.4-.5,5,5,0,0,1-1.6-.5,3.5,3.5,0,0,1-.9-.7,2,2,0,0,1-.3-1.1,2.1,2.1,0,0,1,.8-1.6,3.1,3.1,0,0,1,2.1-.7,3.2,3.2,0,0,1,2.2.7,2.2,2.2,0,0,1,.8,1.8h-1.3a1.4,1.4,0,0,0-.5-1,2.1,2.1,0,0,0-1.2-.4,1.2,1.2,0,0,0-1.1.4,1,1,0,0,0-.5.8.8.8,0,0,0,.4.7,3.8,3.8,0,0,0,1.4.5,5.6,5.6,0,0,1,1.7.6,2.2,2.2,0,0,1,.9.7,2,2,0,0,1,.3,1.1,2.1,2.1,0,0,1-.8,1.7,3.8,3.8,0,0,1-2.2.6,4.3,4.3,0,0,1-1.7-.3,2.7,2.7,0,0,1-1.2-.9,2.2,2.2,0,0,1-.4-1.3h1.4a1.2,1.2,0,0,0,.5,1,2,2,0,0,0,1.4.4,2.1,2.1,0,0,0,1.2-.3A1,1,0,0,0,249.2,238.9Zm9.8-1.8a5,5,0,0,1-.8,2.9,2.6,2.6,0,0,1-2.3,1.1,3.2,3.2,0,0,1-2.3-.9v3.9h-1.3v-11h1.2v.8a2.9,2.9,0,0,1,2.3-1,3,3,0,0,1,2.3,1.1,5.1,5.1,0,0,1,.8,3Zm-1.4-.1a4.8,4.8,0,0,0-.5-2.2,1.9,1.9,0,0,0-1.6-.7,2.1,2.1,0,0,0-1.9,1.1V239a2.1,2.1,0,0,0,1.9,1,1.9,1.9,0,0,0,1.6-.7A4.6,4.6,0,0,0,257.6,237Zm2.8,0a4.6,4.6,0,0,1,.4-2.1,3.2,3.2,0,0,1,1.3-1.5,3.8,3.8,0,0,1,1.9-.5,3.6,3.6,0,0,1,2.6,1.1,4.4,4.4,0,0,1,1,3h0a4.6,4.6,0,0,1-.5,2.1,3.3,3.3,0,0,1-1.2,1.4,3.2,3.2,0,0,1-1.9.5,3,3,0,0,1-2.6-1.1,3.9,3.9,0,0,1-1-2.9Zm1.3.1a3.3,3.3,0,0,0,.6,2.1,1.9,1.9,0,0,0,1.7.8,1.7,1.7,0,0,0,1.6-.8,3.6,3.6,0,0,0,.6-2.2,3.8,3.8,0,0,0-.6-2.2,2.1,2.1,0,0,0-1.6-.8,2.3,2.3,0,0,0-1.7.8A3.9,3.9,0,0,0,261.7,237.1Zm7.3-4.7a2.1,2.1,0,0,1,.6-1.6,2.3,2.3,0,0,1,1.6-.6,2.1,2.1,0,0,1,1.6.6,2.3,2.3,0,0,1,.6,1.6v.5a2.1,2.1,0,0,1-2.2,2.2,2,2,0,0,1-1.5-.6,1.9,1.9,0,0,1-.7-1.6Zm1,.5a1.3,1.3,0,0,0,.4,1,1.2,1.2,0,0,0,.8.4,1.3,1.3,0,0,0,.9-.4,1.5,1.5,0,0,0,.3-1v-.5a1.7,1.7,0,0,0-.3-1,1.2,1.2,0,0,0-.9-.3,1.1,1.1,0,0,0-.8.3,1.3,1.3,0,0,0-.4,1Zm4.2,5.5a2.1,2.1,0,0,1,.6-1.6,2.5,2.5,0,0,1,1.6-.6,2.1,2.1,0,0,1,1.6.6,2.3,2.3,0,0,1,.6,1.6v.6a2,2,0,0,1-.6,1.5,2.2,2.2,0,0,1-1.6.7,1.8,1.8,0,0,1-1.5-.7,1.9,1.9,0,0,1-.7-1.6Zm1,.6a1.5,1.5,0,0,0,.4.9.9.9,0,0,0,.8.4,1,1,0,0,0,.9-.4,1.5,1.5,0,0,0,.3-1v-.5a1.7,1.7,0,0,0-.3-1,1.2,1.2,0,0,0-.9-.3,1.1,1.1,0,0,0-.8.3,1.8,1.8,0,0,0-.4,1Zm-3.7,1.2-.7-.5,5.2-8.3.8.4Z" transform="translate(-2 -30)"/><path d="M306.3,236.1h-4.7v3.7H307V241h-6.8V230.3H307v1.2h-5.4v3.4h4.7Zm3.5-3v.8a3.1,3.1,0,0,1,2.3-1,2.3,2.3,0,0,1,2.3,1.3,3.1,3.1,0,0,1,2.5-1.3c1.8,0,2.7.9,2.7,2.8V241h-1.4v-5.2a1.7,1.7,0,0,0-.4-1.3c-.2-.3-.7-.4-1.3-.4a1.6,1.6,0,0,0-1.2.4,1.7,1.7,0,0,0-.6,1.2V241h-1.4v-5.2c0-1.2-.5-1.7-1.7-1.7a1.7,1.7,0,0,0-1.8,1.1V241h-1.3v-7.9Zm18.6,4a4.3,4.3,0,0,1-.8,2.9,2.4,2.4,0,0,1-2.2,1.1,2.9,2.9,0,0,1-2.3-.9v3.9h-1.4v-11H323v.8a3.3,3.3,0,0,1,2.3-1,2.7,2.7,0,0,1,2.3,1.1,4.5,4.5,0,0,1,.8,3Zm-1.3-.1a3.8,3.8,0,0,0-.6-2.2,1.9,1.9,0,0,0-1.6-.7,1.8,1.8,0,0,0-1.8,1.1V239a2,2,0,0,0,1.9,1,1.8,1.8,0,0,0,1.5-.7A3.7,3.7,0,0,0,327.1,237Zm4.5,4h-1.3V229.7h1.3Zm7.1,0a4.5,4.5,0,0,1-.2-.8,2.9,2.9,0,0,1-2.2.9,3.4,3.4,0,0,1-2-.6,2.4,2.4,0,0,1,.2-3.6,4.5,4.5,0,0,1,2.7-.7h1.3v-.6a1.6,1.6,0,0,0-.4-1.2,2.2,2.2,0,0,0-1.3-.4,1.7,1.7,0,0,0-1.2.4,1.1,1.1,0,0,0-.5.9h-1.3a1.9,1.9,0,0,1,.4-1.2,3.3,3.3,0,0,1,1.1-.9,4.1,4.1,0,0,1,1.6-.3,3.2,3.2,0,0,1,2.2.7,2.6,2.6,0,0,1,.8,1.9v3.6a7.4,7.4,0,0,0,.2,1.8h-1.4Zm-2.2-1a1.9,1.9,0,0,0,1.2-.4,2,2,0,0,0,.8-.8v-1.7h-1c-1.7,0-2.5.5-2.5,1.5a1.2,1.2,0,0,0,.4,1A1.8,1.8,0,0,0,336.5,240Zm8.7,0a2,2,0,0,0,1.3-.4,2.4,2.4,0,0,0,.6-1.1h1.2a2,2,0,0,1-.4,1.3,4,4,0,0,1-1.2,1l-1.5.3a3.3,3.3,0,0,1-2.6-1,4.7,4.7,0,0,1-1-3v-.2a4.6,4.6,0,0,1,.5-2.1,3.3,3.3,0,0,1,1.2-1.4,3.8,3.8,0,0,1,1.9-.5,3.3,3.3,0,0,1,2.2.8,2.6,2.6,0,0,1,.9,2.1h-1.2a3.1,3.1,0,0,0-.6-1.3,2.1,2.1,0,0,0-1.3-.5,1.9,1.9,0,0,0-1.6.8,3.3,3.3,0,0,0-.6,2.1v.3a3.3,3.3,0,0,0,.6,2.1A1.8,1.8,0,0,0,345.2,240Zm8,1.1a3.6,3.6,0,0,1-2.7-1,4.3,4.3,0,0,1-1-2.8V237a4.6,4.6,0,0,1,.5-2.1,4.4,4.4,0,0,1,1.2-1.5,4.1,4.1,0,0,1,1.8-.5,3.3,3.3,0,0,1,2.4,1,4.5,4.5,0,0,1,.9,3v.5h-5.4a2.5,2.5,0,0,0,.7,1.9,2,2,0,0,0,1.6.7,2.1,2.1,0,0,0,1.2-.3,1.6,1.6,0,0,0,.9-.7l.8.6A3.2,3.2,0,0,1,353.2,241.1ZM353,234a1.8,1.8,0,0,0-1.4.6,2.9,2.9,0,0,0-.7,1.7h4a2.1,2.1,0,0,0-.6-1.6A1.5,1.5,0,0,0,353,234Zm6.1-.9v.8a3.3,3.3,0,0,1,2.4-1,2.3,2.3,0,0,1,2.3,1.3,2.2,2.2,0,0,1,1-.9,2.4,2.4,0,0,1,1.5-.4c1.7,0,2.6.9,2.6,2.8V241h-1.3v-5.2a1.5,1.5,0,0,0-1.7-1.7,2,2,0,0,0-1.3.4,1.7,1.7,0,0,0-.5,1.2V241h-1.4v-5.2a1.5,1.5,0,0,0-1.7-1.7,1.7,1.7,0,0,0-1.8,1.1V241h-1.4v-7.9Zm15.2,8a3.3,3.3,0,0,1-2.6-1,3.9,3.9,0,0,1-1-2.8V237a4.6,4.6,0,0,1,.4-2.1,3.7,3.7,0,0,1,1.3-1.5,3.4,3.4,0,0,1,1.7-.5,3,3,0,0,1,2.4,1,4.5,4.5,0,0,1,.9,3v.5H372a2.9,2.9,0,0,0,.7,1.9,2.1,2.1,0,0,0,1.7.7,2.4,2.4,0,0,0,1.2-.3,2.8,2.8,0,0,0,.9-.7l.8.6A3.4,3.4,0,0,1,374.3,241.1Zm-.2-7.1a2,2,0,0,0-1.4.6,2.9,2.9,0,0,0-.6,1.7H376a2.5,2.5,0,0,0-.5-1.6A1.8,1.8,0,0,0,374.1,234Zm6.2-.9v1a2.9,2.9,0,0,1,2.4-1.2c1.6,0,2.5,1,2.5,2.9V241h-1.3v-5.3a3.4,3.4,0,0,0-.4-1.2,1.6,1.6,0,0,0-1.2-.4,2.1,2.1,0,0,0-1.2.3l-.8.9V241H379v-7.9Zm8.8-2v2h1.5v1h-1.5V239a1.5,1.5,0,0,0,.2.8l.7.2h.6V241h-1a1.6,1.6,0,0,1-1.4-.5,2.5,2.5,0,0,1-.5-1.6v-4.9h-1.4v-1h1.4v-2Zm7.7,7.8a1,1,0,0,0-.4-.9l-1.5-.5a5,5,0,0,1-1.6-.5,3.5,3.5,0,0,1-.9-.7,2,2,0,0,1-.3-1.1,2.1,2.1,0,0,1,.8-1.6,3.1,3.1,0,0,1,2.1-.7,3.1,3.1,0,0,1,2.2.7,2.3,2.3,0,0,1,.9,1.8h-1.4a1.1,1.1,0,0,0-.5-1,2.1,2.1,0,0,0-1.2-.4,1.5,1.5,0,0,0-1.1.4.9.9,0,0,0-.4.8.7.7,0,0,0,.4.7,2.7,2.7,0,0,0,1.4.5,5.9,5.9,0,0,1,1.6.6,2.2,2.2,0,0,1,.9.7,2,2,0,0,1,.3,1.1,1.9,1.9,0,0,1-.8,1.7,3.8,3.8,0,0,1-2.2.6,4.7,4.7,0,0,1-1.7-.3,2,2,0,0,1-1.1-.9,2.4,2.4,0,0,1-.5-1.3h1.4a1.2,1.2,0,0,0,.5,1,2.6,2.6,0,0,0,2.6.1A1,1,0,0,0,396.8,238.9Z" transform="translate(-2 -30)"/><path d="M424.6,231.5h-3.4V241h-1.4v-9.5h-3.4v-1.2h8.2Zm5.5,9.5a1.5,1.5,0,0,1-.2-.8,3.3,3.3,0,0,1-2.3.9,2.9,2.9,0,0,1-1.9-.6,2.3,2.3,0,0,1-.8-1.7,2.1,2.1,0,0,1,1-1.9,4,4,0,0,1,2.6-.7h1.3v-.6a1.6,1.6,0,0,0-.4-1.2,2.1,2.1,0,0,0-1.2-.4,2,2,0,0,0-1.3.4,1,1,0,0,0-.4.9h-1.4a1.9,1.9,0,0,1,.4-1.2,3.8,3.8,0,0,1,1.2-.9,3.7,3.7,0,0,1,1.5-.3,2.9,2.9,0,0,1,2.2.7,2.6,2.6,0,0,1,.8,1.9v3.6a4.2,4.2,0,0,0,.3,1.8h-1.4Zm-2.3-1a1.9,1.9,0,0,0,1.2-.4,1.5,1.5,0,0,0,.8-.8v-1.7h-1c-1.7,0-2.5.5-2.5,1.5a1.2,1.2,0,0,0,.4,1A2.1,2.1,0,0,0,427.8,240Zm10.4.2a2.9,2.9,0,0,1-2.3.9,2.4,2.4,0,0,1-1.9-.7,2.9,2.9,0,0,1-.7-2.2v-5.1h1.4v5.1c0,1.2.4,1.8,1.4,1.8a2.1,2.1,0,0,0,2.1-1.2v-5.7h1.3V241h-1.2Zm6.1-4.2,1.7-2.9h1.6L445,237l2.7,4h-1.6l-1.8-3-1.8,3h-1.6l2.7-4-2.6-3.9h1.5Z" transform="translate(-2 -30)"/><path d="M508.8,241h-1.5V230.3h1.5Zm3.6-7.9v.8a3.3,3.3,0,0,1,2.4-1,2.3,2.3,0,0,1,2.3,1.3,2.2,2.2,0,0,1,1-.9,2.4,2.4,0,0,1,1.5-.4c1.7,0,2.6.9,2.6,2.8V241h-1.3v-5.2a1.5,1.5,0,0,0-1.7-1.7,2,2,0,0,0-1.3.4,1.7,1.7,0,0,0-.5,1.2V241H516v-5.2a1.5,1.5,0,0,0-1.7-1.7,1.7,1.7,0,0,0-1.8,1.1V241h-1.4v-7.9Zm18.6,4a5,5,0,0,1-.8,2.9,2.6,2.6,0,0,1-2.3,1.1,2.8,2.8,0,0,1-2.2-.9v3.9h-1.4v-11h1.2v.8a3.1,3.1,0,0,1,2.3-1,2.8,2.8,0,0,1,2.3,1.1,5.1,5.1,0,0,1,.8,3Zm-1.4-.1a3.8,3.8,0,0,0-.5-2.2,1.9,1.9,0,0,0-1.6-.7,1.8,1.8,0,0,0-1.8,1.1V239a1.9,1.9,0,0,0,1.8,1,1.9,1.9,0,0,0,1.6-.7A4.6,4.6,0,0,0,529.6,237Zm7-2.7h-.7a1.7,1.7,0,0,0-1.8,1.2V241h-1.4v-7.9H534v.9a2,2,0,0,1,1.9-1.1h.6Zm4.4,6.8a3.6,3.6,0,0,1-2.7-1,4.3,4.3,0,0,1-1-2.8V237a4.6,4.6,0,0,1,.5-2.1,4.4,4.4,0,0,1,1.2-1.5,4.1,4.1,0,0,1,1.8-.5,3.3,3.3,0,0,1,2.4,1,4.5,4.5,0,0,1,.9,3v.5h-5.4a2.5,2.5,0,0,0,.7,1.9,2,2,0,0,0,1.6.7,2.8,2.8,0,0,0,1.3-.3,1.8,1.8,0,0,0,.8-.7l.9.6A3.4,3.4,0,0,1,541,241.1Zm-.2-7.1a2,2,0,0,0-1.4.6,2.9,2.9,0,0,0-.7,1.7h4a2.1,2.1,0,0,0-.6-1.6A1.5,1.5,0,0,0,540.8,234Zm9.5,4.9a1.1,1.1,0,0,0-.5-.9,4.2,4.2,0,0,0-1.4-.5,5,5,0,0,1-1.6-.5,3.5,3.5,0,0,1-.9-.7,2,2,0,0,1-.3-1.1,2.1,2.1,0,0,1,.8-1.6,3.1,3.1,0,0,1,2.1-.7,3.2,3.2,0,0,1,2.2.7,2.2,2.2,0,0,1,.8,1.8h-1.3a1.4,1.4,0,0,0-.5-1,2.1,2.1,0,0,0-1.2-.4,1.2,1.2,0,0,0-1.1.4,1,1,0,0,0-.5.8.8.8,0,0,0,.4.7,3.8,3.8,0,0,0,1.4.5,5.6,5.6,0,0,1,1.7.6,2.2,2.2,0,0,1,.9.7,2,2,0,0,1,.3,1.1,2.1,2.1,0,0,1-.8,1.7,3.8,3.8,0,0,1-2.2.6,4.3,4.3,0,0,1-1.7-.3,2.7,2.7,0,0,1-1.2-.9,2.2,2.2,0,0,1-.4-1.3h1.4a1.2,1.2,0,0,0,.5,1,2.6,2.6,0,0,0,2.6.1A1,1,0,0,0,550.3,238.9Zm7.7,0a1,1,0,0,0-.4-.9l-1.5-.5-1.6-.5a3.5,3.5,0,0,1-.9-.7,2,2,0,0,1-.3-1.1,2.1,2.1,0,0,1,.8-1.6,3.2,3.2,0,0,1,2.2-.7,2.8,2.8,0,0,1,2.1.7,2.3,2.3,0,0,1,.9,1.8h-1.4a1.1,1.1,0,0,0-.5-1,2.1,2.1,0,0,0-1.1-.4,1.6,1.6,0,0,0-1.2.4.9.9,0,0,0-.4.8.7.7,0,0,0,.4.7,2.7,2.7,0,0,0,1.4.5,4.9,4.9,0,0,1,1.6.6,2.6,2.6,0,0,1,1,.7,2,2,0,0,1,.3,1.1,2,2,0,0,1-.9,1.7,3.8,3.8,0,0,1-2.2.6,4.7,4.7,0,0,1-1.7-.3,2,2,0,0,1-1.1-.9,2.2,2.2,0,0,1-.4-1.3h1.3a1.1,1.1,0,0,0,.6,1,1.7,1.7,0,0,0,1.3.4,2.1,2.1,0,0,0,1.2-.3A1,1,0,0,0,558,238.9Zm4.6,2.1h-1.4v-7.9h1.4Zm-1.5-10a1.1,1.1,0,0,1,.2-.6.7.7,0,0,1,.6-.2c.3,0,.5,0,.6.2s.2.3.2.6,0,.4-.2.5-.3.2-.6.2a.7.7,0,0,1-.6-.2A.8.8,0,0,1,561.1,231Zm3.3,6a4.6,4.6,0,0,1,.5-2.1,3.2,3.2,0,0,1,1.3-1.5,3.5,3.5,0,0,1,1.8-.5,3.3,3.3,0,0,1,2.6,1.1,4.4,4.4,0,0,1,1.1,3h0a4.6,4.6,0,0,1-.5,2.1,2.9,2.9,0,0,1-1.3,1.4,2.9,2.9,0,0,1-1.9.5,3.3,3.3,0,0,1-2.6-1.1,4.4,4.4,0,0,1-1-2.9Zm1.4.1a3.3,3.3,0,0,0,.6,2.1,1.8,1.8,0,0,0,1.6.8,1.9,1.9,0,0,0,1.7-.8,3.6,3.6,0,0,0,.6-2.2,3.8,3.8,0,0,0-.6-2.2,2.1,2.1,0,0,0-1.7-.8,2.1,2.1,0,0,0-1.6.8A3.9,3.9,0,0,0,565.8,237.1Zm8.8-4v1a2.9,2.9,0,0,1,2.4-1.2c1.6,0,2.5,1,2.5,2.9V241h-1.4v-5.3a1.6,1.6,0,0,0-.4-1.2c-.2-.3-.6-.4-1.2-.4a2,2,0,0,0-1.1.3l-.8.9V241h-1.3v-7.9Zm11.7,5.8a1.1,1.1,0,0,0-.5-.9,4.2,4.2,0,0,0-1.4-.5,5,5,0,0,1-1.6-.5,3.5,3.5,0,0,1-.9-.7,2,2,0,0,1-.3-1.1,2.1,2.1,0,0,1,.8-1.6,3.1,3.1,0,0,1,2.1-.7,3.2,3.2,0,0,1,2.2.7,2.2,2.2,0,0,1,.8,1.8h-1.3a1.4,1.4,0,0,0-.5-1,2.1,2.1,0,0,0-1.2-.4,1.2,1.2,0,0,0-1.1.4,1,1,0,0,0-.5.8.8.8,0,0,0,.4.7,3.8,3.8,0,0,0,1.4.5,5.6,5.6,0,0,1,1.7.6,2.2,2.2,0,0,1,.9.7,2,2,0,0,1,.3,1.1,2.1,2.1,0,0,1-.8,1.7,3.8,3.8,0,0,1-2.2.6,4.3,4.3,0,0,1-1.7-.3,2.7,2.7,0,0,1-1.2-.9,2.2,2.2,0,0,1-.4-1.3h1.4a1.2,1.2,0,0,0,.5,1,2.6,2.6,0,0,0,2.6.1A1,1,0,0,0,586.3,238.9Z" transform="translate(-2 -30)"/><path d="M642.5,236a5.4,5.4,0,0,1-.6,2.7,3.4,3.4,0,0,1-1.5,1.8,4,4,0,0,1-2.2.6,4.4,4.4,0,0,1-2.3-.6,5,5,0,0,1-1.5-1.7,7.6,7.6,0,0,1-.5-2.7v-.8a5.9,5.9,0,0,1,.5-2.7,4.5,4.5,0,0,1,1.5-1.8,4.4,4.4,0,0,1,2.3-.6,4,4,0,0,1,2.2.6,3.4,3.4,0,0,1,1.5,1.8,6,6,0,0,1,.6,2.7Zm-1.4-.7a4.8,4.8,0,0,0-.8-2.9,2.7,2.7,0,0,0-4.2,0,4.1,4.1,0,0,0-.8,2.8v.8a5,5,0,0,0,.7,2.9,2.8,2.8,0,0,0,2.2,1.1,2.7,2.7,0,0,0,2.1-1,5.9,5.9,0,0,0,.8-2.9Zm7.1-1h-.7a1.7,1.7,0,0,0-1.8,1.2V241h-1.3v-7.9h1.3v.9a2.1,2.1,0,0,1,1.9-1.1h.6Zm2.7,6.7h-1.3v-7.9h1.3Zm-1.4-10c0-.3,0-.4.2-.6s.3-.2.6-.2a.7.7,0,0,1,.6.2,1.1,1.1,0,0,1,.2.6.8.8,0,0,1-.2.5.7.7,0,0,1-.6.2c-.3,0-.5,0-.6-.2S649.5,231.2,649.5,231Zm6.9,10.1a3.3,3.3,0,0,1-2.6-1,3.9,3.9,0,0,1-1-2.8V237a4.6,4.6,0,0,1,.4-2.1,3.7,3.7,0,0,1,1.3-1.5,3.4,3.4,0,0,1,1.7-.5,3,3,0,0,1,2.4,1,4.5,4.5,0,0,1,.9,3v.5h-5.4a2.9,2.9,0,0,0,.7,1.9,2.1,2.1,0,0,0,1.7.7l1.2-.3a2.8,2.8,0,0,0,.9-.7l.8.6A3.4,3.4,0,0,1,656.4,241.1Zm-.2-7.1a2,2,0,0,0-1.4.6,2.9,2.9,0,0,0-.6,1.7h3.9a2.5,2.5,0,0,0-.5-1.6A1.8,1.8,0,0,0,656.2,234Zm6.1-.9v1a2.9,2.9,0,0,1,2.4-1.2c1.6,0,2.5,1,2.5,2.9V241h-1.4v-5.3a2.1,2.1,0,0,0-.3-1.2,1.6,1.6,0,0,0-1.2-.4,2.1,2.1,0,0,0-1.2.3l-.8.9V241h-1.3v-7.9Zm8.9-2v2h1.5v1h-1.5V239a1.5,1.5,0,0,0,.2.8,1,1,0,0,0,.7.2h.6V241h-1a1.6,1.6,0,0,1-1.4-.5,2.5,2.5,0,0,1-.5-1.6v-4.9h-1.4v-1h1.4v-2Zm8,9.9a1.5,1.5,0,0,1-.2-.8,3.3,3.3,0,0,1-2.3.9,2.9,2.9,0,0,1-1.9-.6,2.3,2.3,0,0,1,.2-3.6,4,4,0,0,1,2.6-.7H679v-.6a1.7,1.7,0,0,0-.5-1.2,2.1,2.1,0,0,0-1.2-.4,1.6,1.6,0,0,0-1.2.4.9.9,0,0,0-.5.9h-1.4a1.9,1.9,0,0,1,.4-1.2,3.4,3.4,0,0,1,2.8-1.2,2.8,2.8,0,0,1,2.1.7,2.6,2.6,0,0,1,.8,1.9v3.6a4.2,4.2,0,0,0,.3,1.8h-1.4Zm-2.3-1a1.9,1.9,0,0,0,1.2-.4,2.4,2.4,0,0,0,.9-.8v-1.7h-1.1c-1.7,0-2.5.5-2.5,1.5a1.2,1.2,0,0,0,.4,1A2.1,2.1,0,0,0,676.9,240Zm7.4-8.9v2h1.5v1h-1.5V239c0,.4,0,.6.2.8a1,1,0,0,0,.7.2h.6V241h-1a1.6,1.6,0,0,1-1.4-.5,2.5,2.5,0,0,1-.5-1.6v-4.9h-1.4v-1h1.4v-2Zm4.5,9.9h-1.3v-7.9h1.3Zm-1.4-10c0-.3,0-.4.2-.6s.3-.2.6-.2a.7.7,0,0,1,.6.2,1.1,1.1,0,0,1,.2.6.8.8,0,0,1-.2.5.7.7,0,0,1-.6.2c-.3,0-.5,0-.6-.2S687.4,231.2,687.4,231Zm3.2,6a4.6,4.6,0,0,1,.5-2.1,3.2,3.2,0,0,1,1.3-1.5,3.5,3.5,0,0,1,1.8-.5,3.7,3.7,0,0,1,2.7,1.1,4.9,4.9,0,0,1,1,3h0a4.6,4.6,0,0,1-.5,2.1,3.3,3.3,0,0,1-1.2,1.4,3.2,3.2,0,0,1-1.9.5,3.3,3.3,0,0,1-2.7-1.1,4.4,4.4,0,0,1-1-2.9Zm1.4.1a3.3,3.3,0,0,0,.6,2.1,1.9,1.9,0,0,0,1.7.8,1.7,1.7,0,0,0,1.6-.8,3.6,3.6,0,0,0,.6-2.2,3.8,3.8,0,0,0-.6-2.2,2.1,2.1,0,0,0-1.7-.8,2.1,2.1,0,0,0-1.6.8A3.9,3.9,0,0,0,692,237.1Zm8.9-4v1a2.9,2.9,0,0,1,2.4-1.2c1.7,0,2.5,1,2.5,2.9V241h-1.3v-5.3a2.1,2.1,0,0,0-.4-1.2,1.6,1.6,0,0,0-1.2-.4,2.1,2.1,0,0,0-1.2.3l-.8.9V241h-1.3v-7.9Z" transform="translate(-2 -30)"/><rect class="cls-2" x="516" width="230" height="307" rx="8.6"/><rect class="cls-6" x="516.3" y="0.3" width="229.5" height="306.5" rx="8.4"/><path class="cls-1" d="M548.6,51.4h-3.1l-.6,1.8H543l3.2-8.6h1.7l3.2,8.6h-1.9ZM546,50h2.1L547,46.8Zm5.5,0a3.6,3.6,0,0,1,.7-2.4,2,2,0,0,1,1.8-.9,2.1,2.1,0,0,1,1.5.7V44.2h1.7v9h-1.5v-.7a1.8,1.8,0,0,1-1.6.8,2,2,0,0,1-1.8-.9A3.4,3.4,0,0,1,551.5,50Zm1.7.1a2.6,2.6,0,0,0,.3,1.4,1.1,1.1,0,0,0,.9.5,1.2,1.2,0,0,0,1.1-.7V48.8a1.1,1.1,0,0,0-1.1-.7C553.6,48.1,553.2,48.8,553.2,50.1Zm12.9.9a1,1,0,0,0-.3-.8l-1.3-.6L563,49a2.4,2.4,0,0,1-1.4-2.1,1.7,1.7,0,0,1,.4-1.2,2,2,0,0,1,1.1-.9,4.1,4.1,0,0,1,1.6-.3,3.3,3.3,0,0,1,1.7.4,3.1,3.1,0,0,1,1.1.9,3.3,3.3,0,0,1,.4,1.4h-1.8a1,1,0,0,0-.4-.9,1.2,1.2,0,0,0-1-.4,1.5,1.5,0,0,0-1,.3,1,1,0,0,0-.4.7c0,.3.2.5.5.7l1.2.6a5,5,0,0,1,2.2,1.1,2.4,2.4,0,0,1,.7,1.7,2,2,0,0,1-.9,1.7,3.6,3.6,0,0,1-2.2.6A4.8,4.8,0,0,1,563,53a3.4,3.4,0,0,1-1.3-1,2.4,2.4,0,0,1-.4-1.5h1.8c0,1,.5,1.4,1.7,1.4a1.6,1.6,0,0,0,1-.2A.9.9,0,0,0,566.1,51Zm5.8,2.3a3.6,3.6,0,0,1-2.3-.8,3.2,3.2,0,0,1-.9-2.3V50a4.7,4.7,0,0,1,.4-1.7,2.5,2.5,0,0,1,1.1-1.2,3.3,3.3,0,0,1,1.5-.4,2.6,2.6,0,0,1,2.1.9,3.2,3.2,0,0,1,.7,2.3v.7h-4a1.4,1.4,0,0,0,.5,1,1.5,1.5,0,0,0,1,.4,1.6,1.6,0,0,0,1.5-.8l.9,1a3.1,3.1,0,0,1-1.1.8A3.2,3.2,0,0,1,571.9,53.3Zm-.2-5.2a1.1,1.1,0,0,0-.8.3,1.8,1.8,0,0,0-.4,1h2.3a1.2,1.2,0,0,0-.3-.9A1,1,0,0,0,571.7,48.1Zm5.8-2.8v1.5h1.1v1.3h-1.1v3.2a.8.8,0,0,0,.2.5c0,.1.2.1.5.1h.5v1.3h-1.1a1.6,1.6,0,0,1-1.8-1.8V48.1h-.9V46.8h.9V45.3Zm4.1,0v1.5h1.1v1.3h-1.1v3.2a.7.7,0,0,0,.1.5h1v1.3h-1a1.6,1.6,0,0,1-1.8-1.8V48.1H579V46.8h.9V45.3Zm3.8,7.9h-1.7V46.8h1.7Zm-1.8-8a.6.6,0,0,1,.3-.6.8.8,0,0,1,.7-.3.9.9,0,0,1,.7.3,1,1,0,0,1,0,1.2,1.1,1.1,0,0,1-.7.3.8.8,0,0,1-.7-.3A.6.6,0,0,1,583.6,45.2Zm4.8,1.6v.8a2.3,2.3,0,0,1,1.9-.9,2,2,0,0,1,1.5.6,3,3,0,0,1,.5,1.8v4.1h-1.7V49.1a1,1,0,0,0-1-1,1.1,1.1,0,0,0-1.1.6v4.5h-1.7V46.8Zm4.9,3.2a4.3,4.3,0,0,1,.7-2.4,2.3,2.3,0,0,1,1.9-.9,2.2,2.2,0,0,1,1.6.7v-.6h1.5V53a3.7,3.7,0,0,1-.3,1.5,2.4,2.4,0,0,1-1.1.9,4.1,4.1,0,0,1-1.6.3,3.5,3.5,0,0,1-1.4-.3,1.8,1.8,0,0,1-1-.7l.8-1a1.8,1.8,0,0,0,1.5.7,1.4,1.4,0,0,0,1.1-.4,1.5,1.5,0,0,0,.3-1v-.3a2,2,0,0,1-1.5.6,2.3,2.3,0,0,1-1.9-.9,4.2,4.2,0,0,1-.7-2.3Zm1.7.1a2.1,2.1,0,0,0,.4,1.4,1.1,1.1,0,0,0,.9.5,1.1,1.1,0,0,0,1.1-.6V48.7a1.1,1.1,0,0,0-1.1-.6,1.1,1.1,0,0,0-.9.5A2.1,2.1,0,0,0,595,50.1Zm8.9,1.4a.5.5,0,0,0-.3-.5,1.9,1.9,0,0,0-1-.4c-1.5-.3-2.3-.9-2.3-1.9a1.9,1.9,0,0,1,.7-1.4,3.3,3.3,0,0,1,3.8,0,1.8,1.8,0,0,1,.7,1.5h-1.7c0-.3,0-.5-.2-.6a.8.8,0,0,0-.7-.3l-.7.2a.6.6,0,0,0-.2.5.8.8,0,0,0,.2.5l.9.3,1.1.3a1.8,1.8,0,0,1,1.4,1.7,1.7,1.7,0,0,1-.8,1.4,2.9,2.9,0,0,1-1.9.5,2.9,2.9,0,0,1-1.4-.3,1.5,1.5,0,0,1-1-.7,2.5,2.5,0,0,1-.4-1.1h1.6a1.6,1.6,0,0,0,.4.7l.8.2a1.1,1.1,0,0,0,.8-.2A.5.5,0,0,0,603.9,51.5Z" transform="translate(-2 -30)"/><path class="cls-1" d="M680.7,49.4h-3.6v3.8H676V44.6h5.3v1h-4.2v2.9h3.6Zm3,3.8h-1.1V46.8h1.1Zm-1.2-8a.7.7,0,0,1,.1-.5l.5-.2.5.2a.6.6,0,0,1,0,.9l-.5.2-.5-.2A.6.6,0,0,1,682.5,45.2Zm4.1,8h-1.1v-9h1.1Zm3.2-7.9v1.5H691v.9h-1.2v3.9a.8.8,0,0,0,.2.6l.5.2h.5v.9h-.8a1.2,1.2,0,0,1-1.1-.4,2.2,2.2,0,0,1-.4-1.3V47.7h-1.1v-.9h1.1V45.3Zm5.1,8a3.2,3.2,0,0,1-2.1-.8,3.4,3.4,0,0,1-.8-2.3V50a3.3,3.3,0,0,1,.4-1.7,1.8,1.8,0,0,1,1-1.1,2.5,2.5,0,0,1,3.3.3,3.6,3.6,0,0,1,.7,2.4v.4h-4.3a2.5,2.5,0,0,0,.5,1.6,2.2,2.2,0,0,0,1.4.5,1.6,1.6,0,0,0,1-.2l.7-.6.6.5A2.6,2.6,0,0,1,694.9,53.3Zm-.1-5.7a1.6,1.6,0,0,0-1.1.5,2.6,2.6,0,0,0-.6,1.3h3.2a2.2,2.2,0,0,0-.4-1.3A1.6,1.6,0,0,0,694.8,47.6Zm7,.2h-.6a1.3,1.3,0,0,0-1.4.9v4.5h-1.1V46.8h1v.8a1.6,1.6,0,0,1,1.5-.9h.5Zm4.7,3.7a.8.8,0,0,0-.4-.7l-1.1-.4a3.3,3.3,0,0,1-1.3-.4,2.8,2.8,0,0,1-.8-.6,1.9,1.9,0,0,1-.2-.8,1.5,1.5,0,0,1,.7-1.3,2.7,2.7,0,0,1,3.4,0,1.6,1.6,0,0,1,.7,1.4h-1.1a1,1,0,0,0-.4-.8,1.4,1.4,0,0,0-.9-.3,1.7,1.7,0,0,0-1,.3.9.9,0,0,0-.3.7.9.9,0,0,0,.3.6l1.1.3,1.4.5a1.3,1.3,0,0,1,.7.6,1.1,1.1,0,0,1,.3.8,1.7,1.7,0,0,1-.7,1.4,2.7,2.7,0,0,1-1.8.5l-1.4-.2a3.4,3.4,0,0,1-.9-.8,1.9,1.9,0,0,1-.3-1h1.1a.9.9,0,0,0,.4.8,2,2,0,0,0,1.1.3,1.6,1.6,0,0,0,1-.2A1,1,0,0,0,706.5,51.5Z" transform="translate(-2 -30)"/><line class="cls-7" x1="516" y1="36.5" x2="746" y2="36.5"/><line class="cls-8" x1="516" y1="36.5" x2="630" y2="36.5"/><path class="cls-1" d="M542.7,90.8h-3.6l-.8,2.2h-1.1l3.2-8.6h1l3.3,8.6h-1.2Zm-3.2-1h2.9l-1.5-4Zm5.9,0a4.3,4.3,0,0,1,.7-2.4,2.3,2.3,0,0,1,1.8-.9,2.2,2.2,0,0,1,1.8.8V84h1.1v9h-1v-.7a1.9,1.9,0,0,1-1.8.8,2.3,2.3,0,0,1-1.8-.9,4.3,4.3,0,0,1-.7-2.4Zm1.1.1a2.9,2.9,0,0,0,.5,1.7,1.4,1.4,0,0,0,1.2.6,1.6,1.6,0,0,0,1.5-.9v-3a1.6,1.6,0,0,0-1.5-.9,1.3,1.3,0,0,0-1.2.7A3,3,0,0,0,546.5,89.9Zm10.3,2.2h4V93h-5.2V84.4h1.2Zm7.8,1a2.9,2.9,0,0,1-2.1-.8,3.6,3.6,0,0,1-.8-2.3v-.2a4.7,4.7,0,0,1,.3-1.7,4,4,0,0,1,1-1.2,4.2,4.2,0,0,1,1.5-.4,2.6,2.6,0,0,1,1.9.8,3.6,3.6,0,0,1,.7,2.4v.4h-4.3a2.5,2.5,0,0,0,.5,1.6,2.2,2.2,0,0,0,1.4.5,1.3,1.3,0,0,0,.9-.2l.7-.6.7.5A2.6,2.6,0,0,1,564.6,93.1Zm-.1-5.7a1.4,1.4,0,0,0-1.1.5,2.6,2.6,0,0,0-.6,1.3H566a1.7,1.7,0,0,0-.5-1.3A1.2,1.2,0,0,0,564.5,87.4Zm4.9-.8v.8a2.3,2.3,0,0,1,1.9-.9c1.4,0,2,.8,2.1,2.3V93h-1.1V88.8a1.1,1.1,0,0,0-.4-1,1.3,1.3,0,0,0-.9-.4,1.2,1.2,0,0,0-.9.3,2.7,2.7,0,0,0-.7.8V93h-1.1V86.6Zm5.3,3.2a4.3,4.3,0,0,1,.7-2.4,2.3,2.3,0,0,1,1.8-.9,2.6,2.6,0,0,1,1.9.8v-.7h1v6.2a2.6,2.6,0,0,1-.7,2,2.7,2.7,0,0,1-2,.7,3.1,3.1,0,0,1-1.3-.3,2.1,2.1,0,0,1-1-.8l.5-.6a2.5,2.5,0,0,0,1.7.8,1.5,1.5,0,0,0,1.7-1.7v-.5a2.1,2.1,0,0,1-1.8.7,2.3,2.3,0,0,1-1.8-.9A4.3,4.3,0,0,1,574.7,89.8Zm1.1.1a2.9,2.9,0,0,0,.5,1.7,1.4,1.4,0,0,0,1.2.6,1.6,1.6,0,0,0,1.5-.9V88.4a1.5,1.5,0,0,0-1.5-1,1.3,1.3,0,0,0-1.2.7A3,3,0,0,0,575.8,89.9Zm7.4-4.8v1.5h1.2v.9h-1.2v3.9a.8.8,0,0,0,.2.6l.5.2h.6V93h-.9a1.4,1.4,0,0,1-1.1-.4,2.2,2.2,0,0,1-.4-1.3V87.5H581v-.9h1.1V85.1Zm3.6,2.3a2.3,2.3,0,0,1,1.9-.9c1.3,0,2,.8,2,2.3V93h-1.1V88.8a1.2,1.2,0,0,0-1.3-1.4l-.9.3a1.6,1.6,0,0,0-.6.8V93h-1.1V84h1.1Z" transform="translate(-2 -30)"/><rect class="cls-1" x="535" y="71" width="185" height="32" rx="5"/><path class="cls-9" d="M555.6,120h-.9v-6l-1.9.6v-.8l2.6-.9h.2Zm7.1-3a3.7,3.7,0,0,1-.6,2.3,1.9,1.9,0,0,1-1.7.8,2.1,2.1,0,0,1-1.7-.8,4.2,4.2,0,0,1-.5-2.2v-1.2a4.4,4.4,0,0,1,.5-2.3,1.8,1.8,0,0,1,1.7-.8,1.9,1.9,0,0,1,1.7.7,3.7,3.7,0,0,1,.6,2.3Zm-.9-1.3a2.4,2.4,0,0,0-.4-1.6,1,1,0,0,0-1-.6,1.1,1.1,0,0,0-1,.6,3,3,0,0,0-.3,1.6v1.4a3.7,3.7,0,0,0,.3,1.7,1.1,1.1,0,0,0,1,.6,1,1,0,0,0,1-.6,2.8,2.8,0,0,0,.4-1.6Zm7.7,2.9a.9.9,0,0,0-.3-.6l-1-.3-1.1-.4-.6-.5c-.1-.1-.1-.4-.1-.6a1.2,1.2,0,0,1,.5-1.1,2.2,2.2,0,0,1,1.4-.5,2.5,2.5,0,0,1,1.5.5,1.7,1.7,0,0,1,.5,1.2h-.9a.9.9,0,0,0-.3-.7l-.8-.2a1.1,1.1,0,0,0-.8.2.8.8,0,0,0-.2.5c0,.3,0,.4.2.5l1,.3,1,.4a1.8,1.8,0,0,1,.7.5,1.9,1.9,0,0,1,.2.7,1.4,1.4,0,0,1-.6,1.2,2.4,2.4,0,0,1-1.5.4l-1.1-.2a2.7,2.7,0,0,1-.8-.7,1.9,1.9,0,0,1-.2-.8h.9a.9.9,0,0,0,.3.7l.9.3.9-.2A.9.9,0,0,0,569.5,118.6Zm4.2,1.5a2.1,2.1,0,0,1-1.7-.7,2.5,2.5,0,0,1-.7-1.9v-.2a3.2,3.2,0,0,1,.3-1.4,2,2,0,0,1,.9-.9,1.5,1.5,0,0,1,1.1-.4,1.8,1.8,0,0,1,1.6.7,2.9,2.9,0,0,1,.6,1.9v.4h-3.6a1.9,1.9,0,0,0,.5,1.3,1.4,1.4,0,0,0,1.1.5l.8-.2.6-.6.5.5A2.1,2.1,0,0,1,573.7,120.1Zm-.1-4.7a1.2,1.2,0,0,0-.9.4,1.6,1.6,0,0,0-.4,1.1h2.6a1.4,1.4,0,0,0-.4-1.1A1.2,1.2,0,0,0,573.6,115.4Zm5.4,4a1.1,1.1,0,0,0,.8-.3.9.9,0,0,0,.4-.8h.9a1.6,1.6,0,0,1-.3.9,2.7,2.7,0,0,1-.8.7l-1,.2a2.1,2.1,0,0,1-1.7-.7,2.7,2.7,0,0,1-.7-2h0a2.9,2.9,0,0,1,.3-1.4,2.4,2.4,0,0,1,.8-.9,2,2,0,0,1,1.3-.4,1.7,1.7,0,0,1,1.4.6,2.1,2.1,0,0,1,.7,1.3h-.9a.9.9,0,0,0-.4-.8,1.1,1.1,0,0,0-.8-.3,1.2,1.2,0,0,0-1.1.5,2,2,0,0,0-.4,1.4v.2a2.1,2.1,0,0,0,.4,1.4A1.3,1.3,0,0,0,579,119.4Zm2.8-2.1a3.3,3.3,0,0,1,.4-1.4,1.8,1.8,0,0,1,.8-.9,1.9,1.9,0,0,1,1.2-.4,2.3,2.3,0,0,1,1.8.8,3,3,0,0,1,.7,2h0a3.2,3.2,0,0,1-.3,1.4,2.8,2.8,0,0,1-.9,1,2.4,2.4,0,0,1-1.2.3,2.7,2.7,0,0,1-1.8-.7,3.2,3.2,0,0,1-.7-2Zm1,.1a2,2,0,0,0,.4,1.4,1.1,1.1,0,0,0,1.1.6,1.1,1.1,0,0,0,1-.6,2.1,2.1,0,0,0,.5-1.5,2.2,2.2,0,0,0-.5-1.4c-.2-.4-.6-.5-1.1-.5a1,1,0,0,0-1,.5A2.2,2.2,0,0,0,582.8,117.4Zm5.8-2.7v.7a1.9,1.9,0,0,1,1.6-.8c1.1,0,1.6.6,1.6,1.9V120H591v-3.5c0-.4,0-.7-.2-.8a1.1,1.1,0,0,0-.8-.3l-.8.2-.5.6V120h-.9v-5.3Zm4.5,2.6a2.9,2.9,0,0,1,.6-1.9,1.8,1.8,0,0,1,1.5-.8,1.5,1.5,0,0,1,1.4.7v-2.8h.9V120h-.8v-.6a1.8,1.8,0,0,1-1.5.7,1.9,1.9,0,0,1-1.5-.8,2.9,2.9,0,0,1-.6-1.9Zm.9.1a2,2,0,0,0,.4,1.4,1,1,0,0,0,1,.5,1.1,1.1,0,0,0,1.2-.7v-2.5a1.1,1.1,0,0,0-1.2-.7,1.2,1.2,0,0,0-1,.5A2.1,2.1,0,0,0,594,117.4Zm8,1.2a1.4,1.4,0,0,0-.2-.6l-1-.3-1.1-.4a1,1,0,0,1-.6-.5,1.1,1.1,0,0,1-.2-.6,1.3,1.3,0,0,1,.6-1.1,2.2,2.2,0,0,1,2.8,0,1.4,1.4,0,0,1,.6,1.2H602a.9.9,0,0,0-.3-.7l-.8-.2c-.4,0-.6,0-.8.2a.5.5,0,0,0-.3.5.5.5,0,0,0,.3.5l.9.3,1.1.4a1,1,0,0,1,.6.5,1,1,0,0,1,.2.7,1.7,1.7,0,0,1-.5,1.2,2.4,2.4,0,0,1-1.5.4l-1.1-.2a1.9,1.9,0,0,1-.8-.7,1.1,1.1,0,0,1-.3-.8h.9a1.6,1.6,0,0,0,.4.7,1.2,1.2,0,0,0,.9.3l.8-.2A.9.9,0,0,0,602,118.6Z" transform="translate(-2 -30)"/><path class="cls-10" d="M703,116l3.3-2.3,3.2,2.3" transform="translate(-2 -30)"/><path class="cls-10" d="M709.5,118.5l-3.2,2.3-3.3-2.3" transform="translate(-2 -30)"/><path class="cls-1" d="M543.9,217.4h-2.7V225H540v-7.6h-2.7v-1h6.6Zm2.8,6,1.5-4.8h1.1l-2.5,7.4a2.2,2.2,0,0,1-1.9,1.6h-.6v-.9h.3l.8-.2a1.6,1.6,0,0,0,.5-.8l.3-.7-2.3-6.3h1.2Zm9-1.5a3.3,3.3,0,0,1-.7,2.3,2,2,0,0,1-1.8.9,2.1,2.1,0,0,1-1.8-.7v3h-1.1v-8.8h1v.7a2.6,2.6,0,0,1,1.9-.8,2,2,0,0,1,1.8.9,4.3,4.3,0,0,1,.7,2.4Zm-1.1-.1a2.6,2.6,0,0,0-.5-1.7,1.3,1.3,0,0,0-1.2-.7,1.6,1.6,0,0,0-1.5.9v3.1a1.6,1.6,0,0,0,1.5.8,1.4,1.4,0,0,0,1.2-.6A3,3,0,0,0,554.6,221.8Zm5.1,3.3a2.9,2.9,0,0,1-2.1-.8,3.6,3.6,0,0,1-.8-2.3v-.2a4.7,4.7,0,0,1,.3-1.7,3.2,3.2,0,0,1,1.1-1.2,3.3,3.3,0,0,1,1.4-.4,2.6,2.6,0,0,1,1.9.8,3.6,3.6,0,0,1,.7,2.4v.4h-4.3a2.5,2.5,0,0,0,.5,1.6,2.2,2.2,0,0,0,1.4.5,1.3,1.3,0,0,0,.9-.2l.7-.6.7.5A2.6,2.6,0,0,1,559.7,225.1Zm-.1-5.7a1.4,1.4,0,0,0-1.1.5,2.6,2.6,0,0,0-.6,1.3h3.2a2.2,2.2,0,0,0-.4-1.3A1.6,1.6,0,0,0,559.6,219.4Zm6.6,2.4a4.3,4.3,0,0,1,.3-1.7,4,4,0,0,1,1-1.2,4.2,4.2,0,0,1,1.5-.4,2.6,2.6,0,0,1,2.1.9,3.2,3.2,0,0,1,.8,2.4h0a4.7,4.7,0,0,1-.3,1.7,3.5,3.5,0,0,1-1,1.1,2.8,2.8,0,0,1-1.5.4,2.6,2.6,0,0,1-2.1-.9,3.2,3.2,0,0,1-.8-2.4Zm1,.1a2.9,2.9,0,0,0,.5,1.7,1.8,1.8,0,0,0,1.4.6,1.8,1.8,0,0,0,1.3-.6,3.5,3.5,0,0,0,.5-1.8,2.9,2.9,0,0,0-.5-1.7,1.6,1.6,0,0,0-1.4-.7,1.6,1.6,0,0,0-1.3.7A3,3,0,0,0,567.2,221.9Zm6.6,3.1v-5.5h-1v-.9h1V218a2.1,2.1,0,0,1,.6-1.6,2,2,0,0,1,1.5-.6h.8v.9H576a1.1,1.1,0,0,0-.8.3,1.2,1.2,0,0,0-.3.9v.6h1.4v.9h-1.4V225Zm6.9,0v-8.6h2.8a3.3,3.3,0,0,1,2.1.6,2.4,2.4,0,0,1,.7,1.7,2.1,2.1,0,0,1-.4,1.1,2.2,2.2,0,0,1-.9.7,2.1,2.1,0,0,1,1.1.7,2,2,0,0,1,.4,1.3,2.2,2.2,0,0,1-.8,1.8,2.8,2.8,0,0,1-2.1.7Zm1.1-4v3.1h1.9a2.1,2.1,0,0,0,1.2-.4,1.7,1.7,0,0,0,.5-1.2c0-1-.6-1.5-1.7-1.5Zm0-.9h1.7a1.6,1.6,0,0,0,1.2-.4,1.2,1.2,0,0,0,.4-1,1.1,1.1,0,0,0-.4-1,2.1,2.1,0,0,0-1.2-.3h-1.7Zm10.1,4.3a2.1,2.1,0,0,1-1.8.7,2.1,2.1,0,0,1-1.6-.6,2.9,2.9,0,0,1-.5-1.7v-4.2h1.1v4.1c0,1,.4,1.5,1.1,1.5a1.7,1.7,0,0,0,1.7-.9v-4.7H593V225h-1.1Zm4.8-1,1.5-4.8h1.2l-2.6,7.4c-.4,1-1,1.6-1.9,1.6h-.6v-.9h.3l.9-.2a2.8,2.8,0,0,0,.5-.8l.2-.7-2.3-6.3h1.2Z" transform="translate(-2 -30)"/><rect class="cls-1" x="535" y="203" width="185" height="32" rx="5"/><path class="cls-9" d="M552.8,252v-7.1h2.3a3,3,0,0,1,1.8.5,1.7,1.7,0,0,1,.6,1.4,1.6,1.6,0,0,1-.3.9l-.8.6a1.5,1.5,0,0,1,.9.6,1.3,1.3,0,0,1,.4,1,1.9,1.9,0,0,1-.7,1.6,2.9,2.9,0,0,1-1.7.5Zm1-3.3v2.5h1.5a1.5,1.5,0,0,0,1-.3,1,1,0,0,0,.4-.9c0-.9-.4-1.3-1.4-1.3Zm0-.8h1.4a1.7,1.7,0,0,0,1-.3,1.1,1.1,0,0,0,.3-.8,1.2,1.2,0,0,0-.3-.9l-1.1-.2h-1.3Zm8.4,3.6a2.1,2.1,0,0,1-1.6.6,1.9,1.9,0,0,1-1.3-.5,2,2,0,0,1-.4-1.4v-3.5h.9v3.4c0,.8.3,1.2,1,1.2a1.4,1.4,0,0,0,1.4-.7v-3.9h.9V252h-.9Zm2-2.2a2.9,2.9,0,0,1,.6-1.9,1.9,1.9,0,0,1,1.5-.8,1.8,1.8,0,0,1,1.5.7v-2.8h.9V252h-.9v-.6a1.8,1.8,0,0,1-1.5.7,1.9,1.9,0,0,1-1.5-.8,2.9,2.9,0,0,1-.6-1.9Zm.9.1a2,2,0,0,0,.4,1.4,1,1,0,0,0,1,.5,1.4,1.4,0,0,0,1.3-.7v-2.5a1.4,1.4,0,0,0-1.3-.7,1.2,1.2,0,0,0-1,.5A2.1,2.1,0,0,0,565.1,249.4Zm4.8-.1a3.3,3.3,0,0,1,.5-1.9,1.9,1.9,0,0,1,1.5-.8,1.9,1.9,0,0,1,1.6.7v-.6h.8v5.2a2.1,2.1,0,0,1-2.2,2.2,3.5,3.5,0,0,1-2-.9l.5-.6a1.7,1.7,0,0,0,1.4.7,1.3,1.3,0,0,0,1-.3,1.4,1.4,0,0,0,.4-1.1v-.4a1.8,1.8,0,0,1-1.5.6,2.1,2.1,0,0,1-1.5-.7A4.1,4.1,0,0,1,569.9,249.3Zm.9.1a2.6,2.6,0,0,0,.3,1.4,1.2,1.2,0,0,0,1.1.5,1.3,1.3,0,0,0,1.2-.7v-2.5a1.3,1.3,0,0,0-1.2-.7,1.4,1.4,0,0,0-1.1.5A2.8,2.8,0,0,0,570.8,249.4Zm7.1,2.7a2.4,2.4,0,0,1-1.8-.7,2.9,2.9,0,0,1-.6-1.9v-.2a3.2,3.2,0,0,1,.3-1.4,1.8,1.8,0,0,1,.8-.9,1.9,1.9,0,0,1,1.2-.4,1.9,1.9,0,0,1,1.6.7,2.9,2.9,0,0,1,.5,1.9v.4h-3.5a1.8,1.8,0,0,0,.4,1.3,1.6,1.6,0,0,0,1.1.5l.8-.2c.3-.2.5-.3.6-.6l.6.5A2.2,2.2,0,0,1,577.9,252.1Zm-.1-4.7a1,1,0,0,0-.9.4,1.6,1.6,0,0,0-.5,1.1H579a1.8,1.8,0,0,0-.3-1.1Zm4.4-2v1.3h1v.7h-1v3.3a.8.8,0,0,0,.2.5c0,.1.2.1.4.1h.4v.7h-.7a1,1,0,0,1-.9-.4,1.5,1.5,0,0,1-.3-1v-3.3h-.9v-.7h.9v-1.3Zm9.9,5.7a1.5,1.5,0,0,1-1,.7,3.3,3.3,0,0,1-1.5.3,2.4,2.4,0,0,1-1.5-.4,3.2,3.2,0,0,1-1.1-1.2,4.7,4.7,0,0,1-.3-1.7v-.6a3.7,3.7,0,0,1,.7-2.5,2.6,2.6,0,0,1,2.1-.9,2.4,2.4,0,0,1,1.8.6,2.1,2.1,0,0,1,.8,1.6h-.9a1.5,1.5,0,0,0-1.7-1.4,1.7,1.7,0,0,0-1.4.6,3.6,3.6,0,0,0-.5,1.9v.6a3.3,3.3,0,0,0,.5,1.9,1.8,1.8,0,0,0,1.5.7h.9l.7-.4v-1.6h-1.6v-.7h2.5Zm1.2-1.8a3.2,3.2,0,0,1,.3-1.4,2,2,0,0,1,.9-.9,1.7,1.7,0,0,1,1.2-.4,2.5,2.5,0,0,1,1.8.8,3,3,0,0,1,.6,2h0a3.2,3.2,0,0,1-.3,1.4,2.5,2.5,0,0,1-.8,1,2.8,2.8,0,0,1-1.3.3,2.4,2.4,0,0,1-1.7-.7,2.7,2.7,0,0,1-.7-2Zm.9.1a2.6,2.6,0,0,0,.4,1.4,1.4,1.4,0,0,0,1.1.6,1.1,1.1,0,0,0,1.1-.6,2.1,2.1,0,0,0,.4-1.5,2.1,2.1,0,0,0-.4-1.4,1.2,1.2,0,0,0-1.1-.5,1.3,1.3,0,0,0-1.1.5A3,3,0,0,0,594.2,249.4Zm8.3,2.6a3.5,3.5,0,0,1-.1-.6,1.8,1.8,0,0,1-1.5.7,1.8,1.8,0,0,1-1.3-.4,1.7,1.7,0,0,1-.5-1.2,1.4,1.4,0,0,1,.6-1.2,2.6,2.6,0,0,1,1.8-.5h.9v-.4a1,1,0,0,0-1.1-1.1,1,1,0,0,0-.8.3.7.7,0,0,0-.4.6h-.9a1.3,1.3,0,0,1,.3-.8,2.8,2.8,0,0,1,.8-.6l1-.2a2.5,2.5,0,0,1,1.5.5,1.7,1.7,0,0,1,.5,1.2v2.5a3.1,3.1,0,0,0,.2,1.1h-1Zm-1.5-.7.8-.2c.3-.2.5-.3.6-.6v-1.1h-.7c-1.1,0-1.7.4-1.7,1a.9.9,0,0,0,.3.7Zm4.7.7h-.9v-7.5h.9Z" transform="translate(-2 -30)"/><rect class="cls-1" x="535" y="245" width="185" height="32" rx="5"/><path class="cls-9" d="M553,290.4l.4-3.5H557v.8h-2.9l-.2,2a2.7,2.7,0,0,1,1.2-.3,1.8,1.8,0,0,1,1.5.6,2.4,2.4,0,0,1,.6,1.7,2.6,2.6,0,0,1-.6,1.8,2.1,2.1,0,0,1-1.6.6,2.5,2.5,0,0,1-1.6-.5,2,2,0,0,1-.6-1.5h.8a3,3,0,0,0,.4,1,1.7,1.7,0,0,0,1,.3,1.4,1.4,0,0,0,1-.5,2.1,2.1,0,0,0,.3-1.2,1.5,1.5,0,0,0-.4-1.1,1.2,1.2,0,0,0-1-.4l-.9.2-.3.2Zm9.7.6a3.7,3.7,0,0,1-.6,2.3,1.9,1.9,0,0,1-1.7.8,2.1,2.1,0,0,1-1.7-.8,4.2,4.2,0,0,1-.5-2.2v-1.2a4.4,4.4,0,0,1,.5-2.3,1.8,1.8,0,0,1,1.7-.8,1.9,1.9,0,0,1,1.7.7,3.7,3.7,0,0,1,.6,2.3Zm-.9-1.3a2.4,2.4,0,0,0-.4-1.6,1,1,0,0,0-1-.6,1.1,1.1,0,0,0-1,.6,3,3,0,0,0-.3,1.6v1.4a3.7,3.7,0,0,0,.3,1.7,1.1,1.1,0,0,0,1,.6,1,1,0,0,0,1-.6,2.8,2.8,0,0,0,.4-1.6Zm2.1,5.7-.5-.3a3.9,3.9,0,0,0,.5-1.4v-.8h.8v.7a1.6,1.6,0,0,1-.2,1A2.8,2.8,0,0,1,563.9,295.4Zm6.3-4.4a3.7,3.7,0,0,1-.5,2.3,2.2,2.2,0,0,1-3.4,0,4.2,4.2,0,0,1-.5-2.2v-1.2a3.6,3.6,0,0,1,.5-2.3,1.8,1.8,0,0,1,1.7-.8,1.9,1.9,0,0,1,1.7.7,4.6,4.6,0,0,1,.5,2.3Zm-.9-1.3a3.2,3.2,0,0,0-.3-1.6,1.1,1.1,0,0,0-2,0,3,3,0,0,0-.3,1.6v1.4a3.7,3.7,0,0,0,.3,1.7,1.1,1.1,0,0,0,1,.6,1,1,0,0,0,1-.6,3,3,0,0,0,.3-1.6Zm6.6,1.3a3.7,3.7,0,0,1-.6,2.3,1.9,1.9,0,0,1-1.7.8,2.1,2.1,0,0,1-1.7-.8,4.2,4.2,0,0,1-.5-2.2v-1.2a4.4,4.4,0,0,1,.5-2.3,1.8,1.8,0,0,1,1.7-.8,1.9,1.9,0,0,1,1.7.7,4.5,4.5,0,0,1,.6,2.3Zm-.9-1.3a3.1,3.1,0,0,0-.4-1.6,1.1,1.1,0,0,0-2,0,3,3,0,0,0-.3,1.6v1.4a3.7,3.7,0,0,0,.3,1.7,1.1,1.1,0,0,0,1,.6,1,1,0,0,0,1-.6,4,4,0,0,0,.4-1.6Zm6.5,1.3a3.7,3.7,0,0,1-.6,2.3,1.9,1.9,0,0,1-1.7.8,1.8,1.8,0,0,1-1.6-.8,3.4,3.4,0,0,1-.6-2.2v-1.2a4.4,4.4,0,0,1,.5-2.3,1.9,1.9,0,0,1,1.7-.8,1.8,1.8,0,0,1,1.7.7,3.7,3.7,0,0,1,.6,2.3Zm-.9-1.3a2.4,2.4,0,0,0-.4-1.6,1,1,0,0,0-1-.6,1.1,1.1,0,0,0-1,.6,3,3,0,0,0-.3,1.6v1.4a3.7,3.7,0,0,0,.3,1.7,1.1,1.1,0,0,0,1,.6,1,1,0,0,0,1-.6,2.8,2.8,0,0,0,.4-1.6Zm2.1,5.7-.5-.3a3.9,3.9,0,0,0,.5-1.4v-.8h.8v.7a1.6,1.6,0,0,1-.2,1A2.8,2.8,0,0,1,582.7,295.4Zm6.4-4.4a3.7,3.7,0,0,1-.6,2.3,2,2,0,0,1-1.7.8,2.1,2.1,0,0,1-1.7-.8,4.2,4.2,0,0,1-.5-2.2v-1.2a3.6,3.6,0,0,1,.5-2.3,1.8,1.8,0,0,1,1.7-.8,1.9,1.9,0,0,1,1.7.7,4.5,4.5,0,0,1,.6,2.3Zm-1-1.3a3.2,3.2,0,0,0-.3-1.6,1.1,1.1,0,0,0-2,0,3,3,0,0,0-.3,1.6v1.4a3.7,3.7,0,0,0,.3,1.7,1.1,1.1,0,0,0,1,.6,1,1,0,0,0,1-.6,3,3,0,0,0,.3-1.6Zm6.6,1.3a3.7,3.7,0,0,1-.6,2.3,1.9,1.9,0,0,1-1.7.8,2.1,2.1,0,0,1-1.7-.8,4.2,4.2,0,0,1-.5-2.2v-1.2a4.4,4.4,0,0,1,.5-2.3,1.8,1.8,0,0,1,1.7-.8,1.9,1.9,0,0,1,1.7.7,3.7,3.7,0,0,1,.6,2.3Zm-.9-1.3a2.4,2.4,0,0,0-.4-1.6,1,1,0,0,0-1-.6,1.1,1.1,0,0,0-1,.6,3,3,0,0,0-.3,1.6v1.4a3.7,3.7,0,0,0,.3,1.7,1.1,1.1,0,0,0,1,.6,1,1,0,0,0,1-.6,2.8,2.8,0,0,0,.4-1.6Zm6.5,1.3a3.7,3.7,0,0,1-.6,2.3,1.9,1.9,0,0,1-1.7.8,1.8,1.8,0,0,1-1.6-.8,3.4,3.4,0,0,1-.6-2.2v-1.2a4.4,4.4,0,0,1,.5-2.3,1.9,1.9,0,0,1,1.7-.8,1.8,1.8,0,0,1,1.7.7,3.7,3.7,0,0,1,.6,2.3Zm-.9-1.3a3.2,3.2,0,0,0-.3-1.6,1.3,1.3,0,0,0-1.1-.6,1.1,1.1,0,0,0-1,.6,3,3,0,0,0-.3,1.6v1.4a3.7,3.7,0,0,0,.3,1.7,1.2,1.2,0,0,0,1,.6,1,1,0,0,0,1-.6,2.2,2.2,0,0,0,.4-1.6Z" transform="translate(-2 -30)"/><path class="cls-1" d="M542.7,155.2h-3.6V159H538v-8.6h5.3v1h-4.2v2.9h3.6Zm3,3.8h-1.1v-9h1.1Zm2.9,0h-1.1v-6.4h1.1Zm-1.2-8.1.2-.4a.6.6,0,0,1,.5-.2l.4.2a.4.4,0,0,1,.2.4c0,.2,0,.4-.2.5l-.4.2a.6.6,0,0,1-.5-.2A.8.8,0,0,1,547.4,150.9Zm2.7,4.9a3.6,3.6,0,0,1,.7-2.4,2,2,0,0,1,1.8-.9,2.2,2.2,0,0,1,1.8.8v-.7h1v6.2a2.6,2.6,0,0,1-.8,2,2.5,2.5,0,0,1-1.9.7,3.5,3.5,0,0,1-1.4-.3,2.7,2.7,0,0,1-1-.8l.6-.6a2.1,2.1,0,0,0,1.7.8,1.6,1.6,0,0,0,1.2-.4,1.7,1.7,0,0,0,.5-1.3v-.5a2.4,2.4,0,0,1-1.8.7,2,2,0,0,1-1.8-.9A3.6,3.6,0,0,1,550.1,155.8Zm1.1.1a2.9,2.9,0,0,0,.4,1.7,1.5,1.5,0,0,0,1.3.6,1.8,1.8,0,0,0,1.5-.9v-2.9a1.7,1.7,0,0,0-1.5-1,1.4,1.4,0,0,0-1.3.7A3,3,0,0,0,551.2,155.9Zm7-2.5a2.3,2.3,0,0,1,1.9-.9c1.3,0,2,.8,2,2.3V159H561v-4.2a1.3,1.3,0,0,0-.3-1,1.3,1.3,0,0,0-.9-.4,1.7,1.7,0,0,0-1,.3,2.4,2.4,0,0,0-.6.8V159h-1.1v-9h1.1Zm7-2.3v1.5h1.2v.9h-1.2v3.9a.8.8,0,0,0,.2.6l.5.2h.5v.9h-.8a1.4,1.4,0,0,1-1.1-.4,2.2,2.2,0,0,1-.4-1.3v-3.9H563v-.9h1.1v-1.5Z" transform="translate(-2 -30)"/><rect class="cls-1" x="535" y="137" width="185" height="32" rx="5"/><path class="cls-2" d="M702.2,178a1,1,0,0,0-1,.9v.4H700a.9.9,0,0,0-1,.9v7.9a.9.9,0,0,0,1,.9h10a.9.9,0,0,0,1-.9v-7.9a.9.9,0,0,0-1-.9h-1.2v-.4a1,1,0,0,0-2,0v.4h-3.6v-.4A1,1,0,0,0,702.2,178Zm0,.8h.1v1.6h-.2v-1.6Zm5.6,0h.1v1.6h-.2v-1.6Zm-7.8,1.3h1.2v.4a1,1,0,0,0,2,0v-.4h3.6v.4a1,1,0,0,0,2,0v-.4h1.4v1.5H699.8v-1.5Zm-.2,2.4h10.4v5.6H699.8Z" transform="translate(-2 -30)"/><path class="cls-9" d="M555.8,178.9h.9v5a2.1,2.1,0,0,1-2.2,2.2,2.9,2.9,0,0,1-1.7-.5,2.5,2.5,0,0,1-.5-1.6h.9a1.5,1.5,0,0,0,.3,1,1.7,1.7,0,0,0,1,.3,1.2,1.2,0,0,0,.9-.3,1.4,1.4,0,0,0,.4-1.1Zm5.7,6.6a2.1,2.1,0,0,1-1.6.6,1.9,1.9,0,0,1-1.3-.5,2,2,0,0,1-.4-1.4v-3.5h.9v3.4c0,.8.3,1.2,1,1.2s1.1-.2,1.3-.7v-3.9h.9V186h-.8Zm3.2.5h-.9v-7.5h.9Zm8.5,0h-4.7v-.6l2.5-2.8.8-1a1.9,1.9,0,0,0,.2-.8,1.4,1.4,0,0,0-1.3-1.3,1.5,1.5,0,0,0-1,.4,1.4,1.4,0,0,0-.4,1.1h-.9a2.1,2.1,0,0,1,.6-1.6,2.8,2.8,0,0,1,3.3-.1,1.8,1.8,0,0,1,.6,1.4,4.3,4.3,0,0,1-1.4,2.5l-1.9,2.1h3.6Zm5.4-3a4.6,4.6,0,0,1-.5,2.3,2.1,2.1,0,0,1-1.7.8,2,2,0,0,1-1.7-.8,3.4,3.4,0,0,1-.6-2.2v-1.2a3.5,3.5,0,0,1,.6-2.3,1.7,1.7,0,0,1,1.7-.8,2.1,2.1,0,0,1,1.7.7,4.6,4.6,0,0,1,.5,2.3Zm-.9-1.3a3.2,3.2,0,0,0-.3-1.6,1.1,1.1,0,0,0-1-.6,1,1,0,0,0-1,.6,2.2,2.2,0,0,0-.4,1.6v1.4a2.7,2.7,0,0,0,.4,1.7,1,1,0,0,0,1,.6,1.1,1.1,0,0,0,1-.6,3,3,0,0,0,.3-1.6Zm3.4-2.3v1.3h1v.7h-1v3.3a.7.7,0,0,0,.1.5h.9v.7h-.7a1,1,0,0,1-.9-.4,1.5,1.5,0,0,1-.3-1v-3.3h-1v-.7h1v-1.3Zm2.9,2a2.1,2.1,0,0,1,1.6-.8c1.1,0,1.7.6,1.7,1.9V186h-.9v-3.5c0-.4-.1-.7-.3-.8s-.4-.3-.8-.3l-.7.2a3.4,3.4,0,0,0-.6.6V186h-.9v-7.5h.9Zm9,1.9h-2.4v-.7H593Zm7.4.8h-2.9l-.7,1.9h-1l2.7-7.1h.9l2.7,7.1h-1Zm-2.7-.7h2.5l-1.3-3.4Zm8.4,2.1a2.1,2.1,0,0,1-1.6.6,1.7,1.7,0,0,1-1.2-.5,2,2,0,0,1-.5-1.4v-3.5h.9v3.4c0,.8.3,1.2,1,1.2a1.4,1.4,0,0,0,1.4-.7v-3.9h.9V186h-.9Zm2-2.2a2.7,2.7,0,0,1,.6-1.9,1.9,1.9,0,0,1,1.5-.8,1.6,1.6,0,0,1,1.5.7v-.6h.8v5.2a2.1,2.1,0,0,1-.6,1.6,2.3,2.3,0,0,1-1.6.6l-1.2-.3a2.4,2.4,0,0,1-.8-.6l.5-.6a1.6,1.6,0,0,0,1.4.7,1.5,1.5,0,0,0,1-.3,1.4,1.4,0,0,0,.4-1.1v-.4a2,2,0,0,1-1.5.6,2.1,2.1,0,0,1-1.5-.7A3.3,3.3,0,0,1,608.1,183.3Zm.9.1a2.6,2.6,0,0,0,.4,1.4,1.1,1.1,0,0,0,1,.5,1.4,1.4,0,0,0,1.3-.7v-2.5a1.4,1.4,0,0,0-1.3-.7,1.4,1.4,0,0,0-1,.5A2.7,2.7,0,0,0,609,183.4Zm12,2.6h-4.6v-.6l2.4-2.8a5.8,5.8,0,0,0,.8-1,1.9,1.9,0,0,0,.2-.8,1,1,0,0,0-.4-.9,1.3,1.3,0,0,0-.9-.4,1.5,1.5,0,0,0-1,.4,1.4,1.4,0,0,0-.4,1.1h-.9a2.1,2.1,0,0,1,.6-1.6,2.8,2.8,0,0,1,3.3-.1,1.8,1.8,0,0,1,.6,1.4,4.3,4.3,0,0,1-1.4,2.5l-1.9,2.1H621Zm1.9-5.3v.7a2.1,2.1,0,0,1,1.6-.8c1.1,0,1.7.6,1.7,1.9V186h-.9v-3.5c0-.4-.1-.7-.3-.8a.8.8,0,0,0-.7-.3l-.8.2-.5.6V186h-.9v-5.3Zm4.5,2.6a2.9,2.9,0,0,1,.5-1.9,1.9,1.9,0,0,1,1.5-.8,1.7,1.7,0,0,1,1.5.7v-2.8h.9V186H631v-.6a1.6,1.6,0,0,1-1.5.7,1.9,1.9,0,0,1-1.5-.8,2.9,2.9,0,0,1-.5-1.9Zm.9.1a2.6,2.6,0,0,0,.3,1.4,1.2,1.2,0,0,0,1.1.5,1.3,1.3,0,0,0,1.2-.7v-2.5a1.3,1.3,0,0,0-1.2-.7,1.4,1.4,0,0,0-1.1.5A2.8,2.8,0,0,0,628.3,183.4Z" transform="translate(-2 -30)"/></svg>