<svg id="Layer_1" data-name="Layer 1" xmlns="http://www.w3.org/2000/svg" viewBox="0 0 823.1 320.2"><defs><style>.cls-1,.cls-6{fill:#fff;stroke:#e6e6e6;}.cls-1{stroke-width:0.54px;}.cls-2{fill:#777;}.cls-3,.cls-7{fill:none;stroke:#f4f4f4;}.cls-3{stroke-width:0.63px;}.cls-4{fill:#373737;}.cls-5{fill:#c4c4c4;}.cls-6{stroke-width:0.86px;}.cls-8{fill:#87d2fd;fill-rule:evenodd;}</style></defs><rect class="cls-1" x="0.3" y="52.3" width="606.5" height="267.46" rx="5.1"/><path d="M73.6,138.6v4.5H70.9V130.3h5a7.1,7.1,0,0,1,2.6.5,5,5,0,0,1,1.7,1.5,5.4,5.4,0,0,1,.5,2.2,3.5,3.5,0,0,1-1.3,3,5.2,5.2,0,0,1-3.5,1.1Zm0-2.1h2.3a2.3,2.3,0,0,0,1.6-.5,1.8,1.8,0,0,0,.6-1.4,2.1,2.1,0,0,0-.6-1.6,2.3,2.3,0,0,0-1.5-.6H73.6Zm14.1-.5h-.9a1.9,1.9,0,0,0-1.9,1v6.2H82.4v-9.5h2.4v1.1a2.4,2.4,0,0,1,2.1-1.3h.8Zm.6,2.3a5.5,5.5,0,0,1,.5-2.6,4.6,4.6,0,0,1,7.1-1.1,4.3,4.3,0,0,1,1.3,3.2v.6A4.8,4.8,0,0,1,96,142a4.4,4.4,0,0,1-3.2,1.3,4.5,4.5,0,0,1-3.3-1.3,5.2,5.2,0,0,1-1.2-3.6Zm2.5.1a4.1,4.1,0,0,0,.5,2.1,1.6,1.6,0,0,0,1.5.7,1.5,1.5,0,0,0,1.4-.7,4.9,4.9,0,0,0,0-4.3,1.6,1.6,0,0,0-1.5-.7,1.5,1.5,0,0,0-1.4.7A4.2,4.2,0,0,0,90.8,138.4Zm16.6,0a5.7,5.7,0,0,1-1,3.6,3.5,3.5,0,0,1-2.7,1.3,3.1,3.1,0,0,1-2.3-1v4.5H98.8V133.6h2.4v.9a3,3,0,0,1,2.4-1.1,3,3,0,0,1,2.7,1.3,5.7,5.7,0,0,1,1,3.6Zm-2.6-.2a4,4,0,0,0-.4-2,1.5,1.5,0,0,0-1.4-.7,1.6,1.6,0,0,0-1.6.9v3.9a1.6,1.6,0,0,0,1.6.9Q104.8,141.2,104.8,138.2Zm3.8.1a7.1,7.1,0,0,1,.5-2.6,4.4,4.4,0,0,1,1.6-1.7,4.8,4.8,0,0,1,2.4-.6,4.1,4.1,0,0,1,3.1,1.2,4.8,4.8,0,0,1,1.4,3.2v.6a5.2,5.2,0,0,1-1.2,3.6,4.7,4.7,0,0,1-3.3,1.3,4.5,4.5,0,0,1-3.3-1.3,5.2,5.2,0,0,1-1.2-3.6Zm2.5.1a4.1,4.1,0,0,0,.5,2.1,1.8,1.8,0,0,0,1.5.7,1.5,1.5,0,0,0,1.4-.7,4.9,4.9,0,0,0,0-4.3,1.5,1.5,0,0,0-1.4-.7,1.7,1.7,0,0,0-1.5.7A4.2,4.2,0,0,0,111.1,138.4Zm13.2,2.1a1,1,0,0,0-.5-.8l-1.4-.4c-2.3-.5-3.4-1.5-3.4-2.9a2.4,2.4,0,0,1,1-2.1,4.1,4.1,0,0,1,2.8-.9,4.6,4.6,0,0,1,2.9.9,2.6,2.6,0,0,1,1,2.2h-2.5a1.2,1.2,0,0,0-.3-.9,1.4,1.4,0,0,0-1.1-.4,1.3,1.3,0,0,0-1,.3.9.9,0,0,0-.4.8.6.6,0,0,0,.4.6,3.2,3.2,0,0,0,1.4.5l1.6.4a2.7,2.7,0,0,1,2,2.6,2.8,2.8,0,0,1-1.1,2.1,5.5,5.5,0,0,1-2.9.8,7.8,7.8,0,0,1-2.2-.4,3.3,3.3,0,0,1-1.4-1.2,2.4,2.4,0,0,1-.5-1.6h2.4a1.2,1.2,0,0,0,.5,1,2.1,2.1,0,0,0,2.3.1A.8.8,0,0,0,124.3,140.5Zm9.6,2.6a2,2,0,0,1-.2-.9,3,3,0,0,1-2.4,1.1,3.8,3.8,0,0,1-2.4-.8,2.9,2.9,0,0,1-.9-2.1,2.6,2.6,0,0,1,1.2-2.3,5.6,5.6,0,0,1,3.2-.8h1.2v-.6a1.8,1.8,0,0,0-.4-1,1.2,1.2,0,0,0-1-.4,1.8,1.8,0,0,0-1.1.3,1.1,1.1,0,0,0-.3.8h-2.6a2.4,2.4,0,0,1,.6-1.5,3.1,3.1,0,0,1,1.4-1.1,4.6,4.6,0,0,1,2.1-.4,4.1,4.1,0,0,1,2.8.9,3,3,0,0,1,1,2.5v4.1a4.1,4.1,0,0,0,.4,2.1h-2.6Zm-2.1-1.8a2.2,2.2,0,0,0,1.1-.2l.7-.7v-1.6h-1c-1.3,0-1.9.4-2,1.3h0a1,1,0,0,0,.3.8A1.2,1.2,0,0,0,131.8,141.3Zm8.9,1.8h-2.5V129.6h2.5Zm6.8,0V130.3H152a5.8,5.8,0,0,1,3.5.9,3.1,3.1,0,0,1,1.2,2.6,2.6,2.6,0,0,1-.5,1.7,2.7,2.7,0,0,1-1.3,1,2.7,2.7,0,0,1,1.5,1,2.8,2.8,0,0,1,.6,1.8,3.2,3.2,0,0,1-1.2,2.8,4.8,4.8,0,0,1-3.3,1Zm2.6-5.6V141h2.3a2,2,0,0,0,1.4-.5,1.4,1.4,0,0,0,.6-1.2c0-1.2-.6-1.8-1.9-1.8Zm0-1.8h2c1.3-.1,2-.6,2-1.6a1.7,1.7,0,0,0-.5-1.3,3.4,3.4,0,0,0-1.6-.4h-1.9Zm14.4,6.4a3.1,3.1,0,0,1-2.6,1.2,2.9,2.9,0,0,1-2.3-.9,3.4,3.4,0,0,1-.8-2.6v-6.2h2.5v6.1c0,1,.5,1.5,1.4,1.5a1.8,1.8,0,0,0,1.7-.9v-6.7H167v9.5h-2.4Zm7.1,1H169v-9.5h2.6Zm-2.7-12a1,1,0,0,1,.4-.9,1.5,1.5,0,0,1,2,0,1,1,0,0,1,.4.9,1.3,1.3,0,0,1-.4,1,1.8,1.8,0,0,1-2,0A1.3,1.3,0,0,1,168.9,131.1Zm7.5,12h-2.6V129.6h2.6Zm1.7-4.8a5.7,5.7,0,0,1,1-3.6,3.2,3.2,0,0,1,2.7-1.3,3,3,0,0,1,2.3,1.1v-4.9h2.5v13.5h-2.3v-1a2.9,2.9,0,0,1-2.4,1.2,3.5,3.5,0,0,1-2.7-1.3A6,6,0,0,1,178.1,138.3Zm2.5.2a3.7,3.7,0,0,0,.5,2,1.4,1.4,0,0,0,1.3.7,1.7,1.7,0,0,0,1.7-1v-3.7a1.7,1.7,0,0,0-1.7-1Q180.6,135.5,180.6,138.5Zm12.4,4.8a4.8,4.8,0,0,1-3.4-1.3,4.5,4.5,0,0,1-1.3-3.4v-.3a5.1,5.1,0,0,1,.5-2.5,4,4,0,0,1,1.6-1.8,4.4,4.4,0,0,1,2.3-.6,4.1,4.1,0,0,1,3.1,1.2,5.4,5.4,0,0,1,1.1,3.5v1.1h-6.1a2.8,2.8,0,0,0,.8,1.5,2.5,2.5,0,0,0,1.5.5,2.6,2.6,0,0,0,2.3-1l1.3,1.4a4,4,0,0,1-1.6,1.2A4.6,4.6,0,0,1,193,143.3Zm-.3-7.8a1.3,1.3,0,0,0-1.2.5,1.7,1.7,0,0,0-.6,1.4h3.5v-.2a1.9,1.9,0,0,0-.5-1.3A1.6,1.6,0,0,0,192.7,135.5Zm11,.5h-.9c-1,0-1.6.3-1.9,1v6.2h-2.6v-9.5h2.4v1.1a2.4,2.4,0,0,1,2.1-1.3h.8Z" transform="translate(-46 -50)"/><path d="M99.3,184.6h-.7l-2.9-4.4v4.4h-.8v-5.7h.8l2.9,4.4v-4.4h.7Zm1.4.5h-.6l2.4-6.2h.6Zm6.5-2h-2.4l-.6,1.5h-.7l2.2-5.7h.6l2.2,5.7h-.8Zm-2.2-.6h2l-1-2.7Z" transform="translate(-46 -50)"/><path d="M143.1,174.2l1.6,4.5,1.6-4.5H148v6.3h-1.3v-4.7l-1.7,4.7h-.9l-1.6-4.7v4.7h-1.3v-6.3Zm8.6,6.3a.9.9,0,0,1-.1-.5,1.3,1.3,0,0,1-1.2.5,1.4,1.4,0,0,1-1.1-.4,1.1,1.1,0,0,1-.5-.9,1.4,1.4,0,0,1,.6-1.2,3,3,0,0,1,1.5-.4h.6v-.2c0-.3,0-.4-.2-.6h-1c-.1.1-.1.2-.1.4h-1.3a.9.9,0,0,1,.3-.7c.1-.3.4-.4.7-.6l1-.2a1.7,1.7,0,0,1,1.3.5,1.3,1.3,0,0,1,.5,1.2v2a8.7,8.7,0,0,0,.2,1h-1.2Zm-1-.9h.5l.3-.4v-.7H151q-.9,0-.9.6h0a.4.4,0,0,0,.1.3Zm4.1-3.8v.6a1.4,1.4,0,0,1,1.3-.7,1.3,1.3,0,0,1,1.1.5,2.2,2.2,0,0,1,.4,1.3v3h-1.3v-3c0-.3,0-.5-.1-.6a1.1,1.1,0,0,0-.6-.2.9.9,0,0,0-.8.5v3.3h-1.2v-4.7Zm6.6,4.2a1.4,1.4,0,0,1-1.3.5,1.2,1.2,0,0,1-1.1-.4,1.6,1.6,0,0,1-.4-1.2v-3.1h1.2v3c0,.5.2.7.7.7s.7-.1.8-.4v-3.3h1.3v4.7h-1.2Zm4.8.5a.9.9,0,0,1-.1-.5,1.3,1.3,0,0,1-1.2.5,1.5,1.5,0,0,1-1.1-.4,1.1,1.1,0,0,1-.5-.9,1.4,1.4,0,0,1,.6-1.2,3.1,3.1,0,0,1,1.6-.4h.5v-.2a1.1,1.1,0,0,0-.1-.6h-1.1c-.1.1-.1.2-.1.4h-1.3a.9.9,0,0,1,.3-.7,2,2,0,0,1,.7-.6l1-.2a2.2,2.2,0,0,1,1.4.5,1.7,1.7,0,0,1,.5,1.2v2a1.5,1.5,0,0,0,.2,1h-1.3Zm-1-.9h.5c.1-.1.3-.2.3-.4v-.7h-.4c-.7,0-1,.2-1,.6h0a.4.4,0,0,0,.1.3Zm4.3.9h-1.2v-6.6h1.2Zm6.5-1.7c0-.2,0-.4-.2-.5a1.9,1.9,0,0,0-.9-.4l-1.1-.5a1.8,1.8,0,0,1-1.1-1.5,1.2,1.2,0,0,1,.3-.9,1.6,1.6,0,0,1,.8-.6,2.7,2.7,0,0,1,1.2-.3,2.1,2.1,0,0,1,1.2.3,1.4,1.4,0,0,1,.8.7,1.7,1.7,0,0,1,.3,1H176a.8.8,0,0,0-.2-.7,1.1,1.1,0,0,0-.8-.2.8.8,0,0,0-.7.2.6.6,0,0,0,0,1l.9.4a3.4,3.4,0,0,1,1.6.8,1.3,1.3,0,0,1,.5,1.2,1.5,1.5,0,0,1-.6,1.3,2.5,2.5,0,0,1-1.6.4,2.7,2.7,0,0,1-1.3-.2,2.2,2.2,0,0,1-.9-.7,2,2,0,0,1-.3-1.1h1.2c0,.7.4,1,1.3,1a.8.8,0,0,0,.7-.2C176,179.2,176,179,176,178.8Zm4.3,1.7a2.4,2.4,0,0,1-1.7-.6,2.3,2.3,0,0,1-.6-1.6v-.2a2.5,2.5,0,0,1,.2-1.2,2.4,2.4,0,0,1,.8-.9,2,2,0,0,1,1.1-.3,1.9,1.9,0,0,1,1.5.6,2.4,2.4,0,0,1,.6,1.7v.5h-3a2,2,0,0,0,.4.8.8.8,0,0,0,.7.2,1.3,1.3,0,0,0,1.2-.5l.6.7a1.6,1.6,0,0,1-.8.6A1.8,1.8,0,0,1,180.3,180.5Zm-.2-3.8-.6.3-.3.7h1.7c0-.3,0-.5-.2-.6A.6.6,0,0,0,180.1,176.7Zm4.1,3.8h-1.3v-6.6h1.3Zm3.1,0a2.1,2.1,0,0,1-1.6-.6,2,2,0,0,1-.7-1.6v-.2a2.7,2.7,0,0,1,.3-1.2,1.8,1.8,0,0,1,.8-.9,2.2,2.2,0,0,1,2.6.3,2.9,2.9,0,0,1,.5,1.7v.5h-2.9a1.1,1.1,0,0,0,.3.8,1.1,1.1,0,0,0,.8.2c.5,0,.9-.1,1.1-.5l.6.7a1.3,1.3,0,0,1-.7.6A2,2,0,0,1,187.3,180.5Zm-.1-3.8a.6.6,0,0,0-.6.3.9.9,0,0,0-.3.7H188a.8.8,0,0,0-.2-.6A.9.9,0,0,0,187.2,176.7Zm4.7,2.8h.5a.6.6,0,0,0,.2-.5h1.2a1.1,1.1,0,0,1-.3.8,1.2,1.2,0,0,1-.6.6,1.8,1.8,0,0,1-1,.2,2.1,2.1,0,0,1-1.6-.6,2.4,2.4,0,0,1-.6-1.7h0a2.4,2.4,0,0,1,.6-1.7,1.9,1.9,0,0,1,3.5,1.2h-1.2c0-.3,0-.5-.2-.6a.5.5,0,0,0-.5-.3.7.7,0,0,0-.7.4,2.2,2.2,0,0,0-.2,1h0a2.2,2.2,0,0,0,.2,1A.8.8,0,0,0,191.9,179.5Zm4.1-4.8v1.1h.8v.9H196V179c0,.2,0,.3.1.4h.7v.9h-.7c-.9,0-1.3-.4-1.3-1.3v-2.5h-.7v-.9h.7v-1.1Zm2.8,5.8h-1.3v-4.7h1.3Zm-1.3-5.9c0-.2,0-.3.1-.4l.6-.2.5.2c.1.1.1.2.1.4a.7.7,0,0,1-.1.5l-.5.2a.6.6,0,0,1-.5-.2C197.5,175,197.5,174.8,197.5,174.6Zm2.1,3.5a2.1,2.1,0,0,1,.3-1.2,1.6,1.6,0,0,1,.7-.9l1.2-.3a2,2,0,0,1,1.5.6,2.6,2.6,0,0,1,.7,1.6v.3a2.4,2.4,0,0,1-.6,1.7,2.4,2.4,0,0,1-3.2,0,2.4,2.4,0,0,1-.6-1.7Zm1.2.1a1.5,1.5,0,0,0,.3,1,1,1,0,0,0,1.4,0,1.6,1.6,0,0,0,.3-1.1,1.5,1.5,0,0,0-.3-1,.8.8,0,0,0-1.4,0A1.6,1.6,0,0,0,200.8,178.2Zm5.1-2.4v.6a1.6,1.6,0,0,1,1.4-.7,1.4,1.4,0,0,1,1.1.5,2.3,2.3,0,0,1,.3,1.3v3h-1.2v-3a.8.8,0,0,0-.2-.6l-.5-.2a.8.8,0,0,0-.8.5v3.3h-1.3v-4.7Z" transform="translate(-46 -50)"/><path class="cls-2" d="M143.9,193.2a.5.5,0,0,0-.2-.4l-.8-.3-.9-.3a1,1,0,0,1-.5-.4.7.7,0,0,1-.1-.5,1,1,0,0,1,.4-.9,1.5,1.5,0,0,1,1.1-.4,1.6,1.6,0,0,1,1.2.4,1.2,1.2,0,0,1,.5.9h-.8a.6.6,0,0,0-.2-.5l-.7-.2-.6.2a.8.8,0,0,0-.2.4.5.5,0,0,0,.2.4l.8.3.9.3.5.4a1.3,1.3,0,0,1,.1.6,1,1,0,0,1-.4.9,2.1,2.1,0,0,1-1.2.3h-.9l-.7-.5a2.5,2.5,0,0,1-.2-.7h.8a.8.8,0,0,0,.2.5,1.1,1.1,0,0,0,.8.2h.6A.5.5,0,0,0,143.9,193.2Zm2.7-4.1v1h.8v.6h-.8v2.6c0,.2,0,.3.1.4s.2.1.3.1h.4v.6h-.6a.8.8,0,0,1-.7-.3c-.2-.1-.3-.4-.3-.8v-2.6h-.7v-.6h.7v-1Zm4.3,5.3a.7.7,0,0,1-.1-.5,1.7,1.7,0,0,1-1.3.5,1.7,1.7,0,0,1-1-.3,1.2,1.2,0,0,1-.4-.9,1.4,1.4,0,0,1,.5-1.1,2.6,2.6,0,0,1,1.4-.3h.7v-.4a.7.7,0,0,0-.2-.6l-.7-.2-.6.2a.5.5,0,0,0-.3.5h-.7a1.4,1.4,0,0,1,.2-.6l.6-.5.9-.2a1.2,1.2,0,0,1,1.1.4,1.2,1.2,0,0,1,.5,1v2a2.2,2.2,0,0,0,.1.9h-.7Zm-1.3-.6.7-.2c.2-.1.4-.2.4-.4v-.9h-.5c-.9,0-1.4.3-1.4.8a.5.5,0,0,0,.3.5Zm5.1-3.1h-.4a.9.9,0,0,0-.9.6v3.1h-.8v-4.3h.7v.5a1.3,1.3,0,0,1,1.1-.6h.3Zm1.9-1.6v1h.8v.6h-.8v2.6c0,.2,0,.3.1.4s.2.1.3.1h.4v.6h-.6a.8.8,0,0,1-.7-.3c-.2-.1-.3-.4-.3-.8v-2.6H155v-.6h.8v-1Zm3.4,3.1a2.5,2.5,0,0,1,.5-1.6,1.4,1.4,0,0,1,1.2-.6,1.7,1.7,0,0,1,1.2.5v-2.2h.8v6.1H163v-.5a1.2,1.2,0,0,1-1.2.5,1.4,1.4,0,0,1-1.2-.6,2.5,2.5,0,0,1-.5-1.6Zm.8.1a1.8,1.8,0,0,0,.3,1.1.9.9,0,0,0,.8.4,1,1,0,0,0,1-.6v-2a1,1,0,0,0-1-.6,1.2,1.2,0,0,0-.8.4A2.3,2.3,0,0,0,160.8,192.3Zm6.6,2.1a1.1,1.1,0,0,0-.1-.5,1.3,1.3,0,0,1-1.2.5,1.5,1.5,0,0,1-1-.3,1.2,1.2,0,0,1-.4-.9,1.2,1.2,0,0,1,.5-1.1,2.6,2.6,0,0,1,1.4-.3h.7v-.4a1.4,1.4,0,0,0-.2-.6l-.7-.2a.8.8,0,0,0-.6.2.5.5,0,0,0-.3.5h-.7a.7.7,0,0,1,.2-.6,1,1,0,0,1,.6-.5l.9-.2a1.5,1.5,0,0,1,1.1.4,1.2,1.2,0,0,1,.4,1v2a2,2,0,0,0,.2.9h-.8Zm-1.2-.6.7-.2.4-.4v-.9h-.6c-.9,0-1.3.3-1.3.8a.8.8,0,0,0,.2.5Zm4-4.7v1h.8v.6h-.8v2.6c0,.2,0,.3.1.4h.7v.6h-.6a.9.9,0,0,1-.7-.3c-.2-.1-.2-.4-.2-.8v-2.6h-.8v-.6h.8v-1Zm3.4,5.3a1.7,1.7,0,0,1-1.4-.5,2.1,2.1,0,0,1-.5-1.6h0a2,2,0,0,1,.2-1.1,1.9,1.9,0,0,1,.7-.8,1.6,1.6,0,0,1,.9-.3,1.5,1.5,0,0,1,1.3.6,2.1,2.1,0,0,1,.5,1.5v.3h-2.9a1.4,1.4,0,0,0,.4,1.1,1.2,1.2,0,0,0,.9.3h.6l.5-.4.4.3A1.6,1.6,0,0,1,173.6,194.4Zm-.1-3.8a.9.9,0,0,0-.7.3,1.9,1.9,0,0,0-.4.9h2.2a4.6,4.6,0,0,0-.3-.9A1.1,1.1,0,0,0,173.5,190.6Zm2.6,3.4a.4.4,0,0,1,.1-.3l.4-.2.3.2a.5.5,0,0,1,0,.6h-.7A.4.4,0,0,1,176.1,194Zm0-3.5c0-.1.1-.2.1-.3l.4-.2.3.2a.5.5,0,0,1,0,.6h-.7C176.2,190.7,176.1,190.6,176.1,190.5Zm7.3,2.4H181l-.6,1.5h-.7l2.2-5.8h.6l2.2,5.8h-.8Zm-2.2-.7h2l-1-2.7Zm7.8.1a3.3,3.3,0,0,1-.4,1.5,1.5,1.5,0,0,1-1.3.6,1.6,1.6,0,0,1-1.2-.4v2h-.7v-5.9h.7v.5a1.5,1.5,0,0,1,2.4,0,2.5,2.5,0,0,1,.5,1.6Zm-.7-.1a2.1,2.1,0,0,0-.3-1.2,1.3,1.3,0,0,0-.9-.4,1.1,1.1,0,0,0-1,.6v2.1a1,1,0,0,0,1,.5,1.1,1.1,0,0,0,.9-.4A1.9,1.9,0,0,0,188.3,192.2Zm3.7-1.5h-.4a.9.9,0,0,0-.9.6v3.1h-.8v-4.3h.7v.5a1,1,0,0,1,1-.6h.3Zm6.4,3.7h-3.8v-.6l2-2.2a3.3,3.3,0,0,0,.6-.8,1.4,1.4,0,0,0,.2-.6,1.1,1.1,0,0,0-.3-.8.9.9,0,0,0-.7-.3,1.1,1.1,0,0,0-1.2,1.2h-.7a1.9,1.9,0,0,1,.5-1.3,2,2,0,0,1,1.4-.5,1.7,1.7,0,0,1,1.2.5c.4.2.5.6.5,1.1a3.1,3.1,0,0,1-1.1,2l-1.5,1.7h2.9Zm3.2,0h-.8v-4.9l-1.5.5v-.6l2.1-.8h.2Z" transform="translate(-46 -50)"/><path class="cls-2" d="M242.2,191.7h-2.5v2h2.9v.7h-3.7v-5.8h3.7v.6h-2.9v1.9h2.5Zm1.9-1.6v.5a1.4,1.4,0,0,1,1.2-.6c.9,0,1.4.5,1.4,1.5v2.9h-.7v-2.9a.8.8,0,0,0-.2-.6.9.9,0,0,0-.7-.3l-.6.2a1,1,0,0,0-.4.5v3.1h-.8v-4.3Zm3.6,2.1a2.5,2.5,0,0,1,.5-1.6,1.4,1.4,0,0,1,1.2-.6,1.7,1.7,0,0,1,1.2.5v-2.2h.7v6.1h-.6v-.5a1.3,1.3,0,0,1-1.2.5,1.4,1.4,0,0,1-1.2-.6,2.5,2.5,0,0,1-.5-1.6Zm.8.1a1.8,1.8,0,0,0,.3,1.1.8.8,0,0,0,.8.4,1,1,0,0,0,1-.6v-2a1.1,1.1,0,0,0-1-.6,1,1,0,0,0-.8.4A2.3,2.3,0,0,0,248.5,192.3Zm5.8-.1a2.5,2.5,0,0,1,.5-1.6,1.4,1.4,0,0,1,1.2-.6,1.7,1.7,0,0,1,1.2.5v-2.2h.7v6.1h-.7v-.5a1.3,1.3,0,0,1-1.2.5,1.4,1.4,0,0,1-1.2-.6,2.5,2.5,0,0,1-.5-1.6Zm.7.1a1.8,1.8,0,0,0,.3,1.1,1,1,0,0,0,.9.4,1.1,1.1,0,0,0,1-.6v-2a1.1,1.1,0,0,0-1-.6,1.3,1.3,0,0,0-.9.4A2.3,2.3,0,0,0,255,192.3Zm6.7,2.1a.7.7,0,0,1-.1-.5,1.6,1.6,0,0,1-1.2.5,1.2,1.2,0,0,1-1.5-1.2,1.4,1.4,0,0,1,.5-1.1,3.3,3.3,0,0,1,1.5-.3h.7v-.4a.9.9,0,0,0-.3-.6l-.6-.2-.7.2c-.2.1-.2.3-.2.5H259a1.4,1.4,0,0,1,.2-.6,1.8,1.8,0,0,1,.7-.5l.8-.2a1.6,1.6,0,0,1,1.2.4,1.2,1.2,0,0,1,.4,1v2a2,2,0,0,0,.2.9h-.8Zm-1.2-.6.6-.2a1,1,0,0,0,.5-.4v-.9H261c-.9,0-1.3.3-1.3.8s0,.4.2.5A.8.8,0,0,0,260.5,193.8Zm3.9-4.7v1h.8v.6h-.8v2.6a.5.5,0,0,0,.2.4c0,.1.1.1.3.1h.4v.6h-.6a.8.8,0,0,1-.7-.3c-.2-.1-.3-.4-.3-.8v-2.6h-.8v-.6h.8v-1Zm3.5,5.3a1.6,1.6,0,0,1-1.4-.5,2.1,2.1,0,0,1-.6-1.6h0a2,2,0,0,1,.3-1.1,1.2,1.2,0,0,1,.6-.8,1.7,1.7,0,0,1,1-.3,1.6,1.6,0,0,1,1.3.6,2.1,2.1,0,0,1,.4,1.5v.3h-2.9a2.8,2.8,0,0,0,.4,1.1l.9.3h.7l.4-.4.5.3A1.7,1.7,0,0,1,267.9,194.4Zm-.1-3.8a1.1,1.1,0,0,0-.8.3,1.2,1.2,0,0,0-.3.9h2.1a1.2,1.2,0,0,0-.3-.9A.9.9,0,0,0,267.8,190.6Zm2.6,3.4a.4.4,0,0,1,.1-.3l.3-.2.4.2c0,.1.1.2.1.3s-.1.2-.1.3h-.7A.4.4,0,0,1,270.4,194Zm0-3.5a.4.4,0,0,1,.1-.3l.3-.2.4.2c0,.1.1.2.1.3s-.1.2-.1.3h-.7A.4.4,0,0,1,270.4,190.5Zm7.3,2.4h-2.5l-.5,1.5h-.8l2.2-5.8h.7l2.2,5.8h-.8Zm-2.2-.7h1.9l-.9-2.7Zm7.8.1a2.5,2.5,0,0,1-.5,1.5,1.4,1.4,0,0,1-1.2.6,1.6,1.6,0,0,1-1.2-.4v2h-.8v-5.9h.7v.5a1.6,1.6,0,0,1,1.3-.6,1.4,1.4,0,0,1,1.2.6,2.5,2.5,0,0,1,.5,1.6Zm-.8-.1a2.1,2.1,0,0,0-.3-1.2,1.2,1.2,0,0,0-.8-.4,1,1,0,0,0-1,.6v2.1c.2.4.5.5,1,.5a.9.9,0,0,0,.8-.4A1.9,1.9,0,0,0,282.5,192.2Zm3.8-1.5h-.4a1,1,0,0,0-1,.6v3.1h-.7v-4.3h.7v.5a1.2,1.2,0,0,1,1-.6h.4Zm6.3,3.7h-3.7v-.6l2-2.2a3.3,3.3,0,0,0,.6-.8,1.3,1.3,0,0,0,.1-.6,1.9,1.9,0,0,0-.2-.8,1.2,1.2,0,0,0-1.6,0,1.2,1.2,0,0,0-.3.9h-.7a1.5,1.5,0,0,1,.5-1.3,1.9,1.9,0,0,1,1.3-.5,1.7,1.7,0,0,1,1.3.5,1.3,1.3,0,0,1,.5,1.1,3.7,3.7,0,0,1-1.1,2l-1.6,1.7h2.9Zm4.3-4.3a1.9,1.9,0,0,1-.2.8l-.6.5a1.3,1.3,0,0,1,.7.6,1.9,1.9,0,0,1,.2.8,1.3,1.3,0,0,1-.5,1.2,1.7,1.7,0,0,1-1.3.4,1.8,1.8,0,0,1-1.3-.4,1.3,1.3,0,0,1-.5-1.2,1.9,1.9,0,0,1,.2-.8,1.3,1.3,0,0,1,.7-.6l-.6-.5a1.9,1.9,0,0,1-.2-.8,1.3,1.3,0,0,1,.5-1.1,1.7,1.7,0,0,1,2.4,0A1.3,1.3,0,0,1,296.9,190.1Zm-.6,2.7a1.1,1.1,0,1,0-1.9.8,1.7,1.7,0,0,0,1.6,0A1.1,1.1,0,0,0,296.3,192.8Zm-1.1-3.7a1,1,0,0,0-1,1,.8.8,0,0,0,.3.7,1,1,0,0,0,1.4,0,.8.8,0,0,0,.3-.7,1,1,0,0,0-1-1Z" transform="translate(-46 -50)"/><path class="cls-2" d="M319.4,194.4v-5.8h1.7a2.8,2.8,0,0,1,1.3.3,2.8,2.8,0,0,1,.9,1,3.2,3.2,0,0,1,.3,1.4v.4a3.2,3.2,0,0,1-.3,1.4,2,2,0,0,1-.9.9,3.3,3.3,0,0,1-1.4.4Zm.8-5.2v4.5h.8a1.7,1.7,0,0,0,1.4-.5,2.5,2.5,0,0,0,.5-1.6v-.3a2.3,2.3,0,0,0-.5-1.5,1.6,1.6,0,0,0-1.3-.6Zm7.1,4.7a1.4,1.4,0,0,1-1.3.5,1.5,1.5,0,0,1-1-.3,1.6,1.6,0,0,1-.4-1.2v-2.8h.8v2.8c0,.6.2.9.7.9a1.2,1.2,0,0,0,1.2-.6v-3.1h.7v4.3h-.7Zm3.9-3.2h-.4a1,1,0,0,0-1,.6v3.1h-.7v-4.3h.7v.5a1.2,1.2,0,0,1,1-.6h.4Zm3.1,3.7a1.1,1.1,0,0,0-.1-.5,1.3,1.3,0,0,1-1.2.5,1.5,1.5,0,0,1-1-.3,1.2,1.2,0,0,1-.4-.9,1.2,1.2,0,0,1,.5-1.1,2.6,2.6,0,0,1,1.4-.3h.7v-.4a1.4,1.4,0,0,0-.2-.6l-.7-.2-.6.2a.5.5,0,0,0-.3.5h-.7a.7.7,0,0,1,.2-.6,1,1,0,0,1,.6-.5l.9-.2a1.5,1.5,0,0,1,1.1.4,1.2,1.2,0,0,1,.4,1v2a2,2,0,0,0,.2.9h-.8Zm-1.2-.6.7-.2a.8.8,0,0,0,.4-.4v-.9h-.6c-.9,0-1.3.3-1.3.8a.8.8,0,0,0,.2.5Zm4-4.7v1h.8v.6h-.8v2.6c0,.2,0,.3.1.4h.7v.6h-.6a.9.9,0,0,1-.7-.3c-.2-.1-.2-.4-.2-.8v-2.6h-.8v-.6h.8v-1Zm2.4,5.3h-.7v-4.3h.7Zm-.8-5.4c0-.2.1-.3.2-.3s.1-.2.3-.2l.3.2c.1,0,.1.1.1.3a.4.4,0,0,1-.1.3h-.6Zm1.8,3.2a2,2,0,0,1,.3-1.1,1.7,1.7,0,0,1,.6-.8,2,2,0,0,1,1.1-.3,2,2,0,0,1,1.4.6,2.8,2.8,0,0,1,.5,1.6h0a3.6,3.6,0,0,1-.2,1.1,2.7,2.7,0,0,1-.7.8,1.8,1.8,0,0,1-1,.2,1.7,1.7,0,0,1-1.4-.6,2.1,2.1,0,0,1-.6-1.6Zm.8.1a2,2,0,0,0,.3,1.1,1,1,0,0,0,.9.4.9.9,0,0,0,.8-.4,2,2,0,0,0,0-2.4,1.2,1.2,0,0,0-.8-.4,1.3,1.3,0,0,0-.9.4A2.3,2.3,0,0,0,341.3,192.3Zm4.7-2.2v.5a1.8,1.8,0,0,1,1.3-.6c.9,0,1.4.5,1.4,1.5v2.9H348v-2.9a1.1,1.1,0,0,0-.9-.9l-.6.2a1,1,0,0,0-.4.5v3.1h-.8v-4.3Zm3.8,3.9a.4.4,0,0,1,.1-.3l.3-.2.4.2c0,.1.1.2.1.3s-.1.2-.1.3h-.7A.4.4,0,0,1,349.8,194Zm0-3.5a.4.4,0,0,1,.1-.3l.3-.2.4.2c0,.1.1.2.1.3s-.1.2-.1.3h-.7A.4.4,0,0,1,349.8,190.5Zm7.6-1.5-2.4,5.4h-.7l2.3-5.2h-3.1v-.6h3.9Zm2.7,3.2a2.5,2.5,0,0,1,.5-1.6,1.4,1.4,0,0,1,1.2-.6,1.7,1.7,0,0,1,1.2.5v-2.2h.7v6.1h-.6v-.5a1.3,1.3,0,0,1-1.2.5,1.4,1.4,0,0,1-1.2-.6,2.5,2.5,0,0,1-.5-1.6Zm.8.1a1.8,1.8,0,0,0,.3,1.1.8.8,0,0,0,.8.4,1,1,0,0,0,1-.6v-2a1,1,0,0,0-1-.6,1,1,0,0,0-.8.4A2.3,2.3,0,0,0,360.9,192.3Zm6.6,2.1a4.3,4.3,0,0,1-.1-.5,1.3,1.3,0,0,1-1.2.5,1.5,1.5,0,0,1-1-.3,1.2,1.2,0,0,1-.4-.9,1.2,1.2,0,0,1,.5-1.1,2.6,2.6,0,0,1,1.4-.3h.7v-.4a1.4,1.4,0,0,0-.2-.6l-.7-.2-.7.2a.8.8,0,0,0-.2.5h-.8a.9.9,0,0,1,.3-.6,1,1,0,0,1,.6-.5l.8-.2a1.6,1.6,0,0,1,1.2.4,1.2,1.2,0,0,1,.4,1v2a2,2,0,0,0,.2.9h-.8Zm-1.2-.6.7-.2a.8.8,0,0,0,.4-.4v-.9h-.6c-.9,0-1.3.3-1.3.8a.8.8,0,0,0,.2.5Zm4.3-.5,1-3.2h.8l-1.7,4.9c-.3.7-.7,1.1-1.3,1.1H369v-.6h.2l.6-.2.3-.5.2-.5-1.5-4.2h.8Zm4.9-.1c0-.2,0-.3-.2-.4l-.8-.3-.8-.3a.7.7,0,0,1-.5-.4.8.8,0,0,1-.2-.5,1.1,1.1,0,0,1,.5-.9,1.4,1.4,0,0,1,1.1-.4,1.6,1.6,0,0,1,1.2.4,1.1,1.1,0,0,1,.4.9h-.7c0-.2-.1-.3-.3-.5l-.6-.2-.6.2a.4.4,0,0,0-.2.4c0,.2,0,.3.2.4l.7.3.9.3a1,1,0,0,1,.5.4,1.4,1.4,0,0,1,.2.6,1.1,1.1,0,0,1-.5.9,2.1,2.1,0,0,1-1.2.3h-.9l-.6-.5a2.5,2.5,0,0,1-.2-.7h.7a.5.5,0,0,0,.3.5.8.8,0,0,0,.7.2h.7C375.5,193.6,375.5,193.4,375.5,193.2Z" transform="translate(-46 -50)"/><path d="M455.6,178.2a1.1,1.1,0,0,0-.2-.6,1.4,1.4,0,0,0-.7-.4l-.8-.3-.5-.4-.4-.5a1.9,1.9,0,0,1-.2-.8,1.8,1.8,0,0,1,.5-1.2,2.2,2.2,0,0,1,1.2-.5v-.9h.7v.9a1.9,1.9,0,0,1,1.6,2h-1.2a1.9,1.9,0,0,0-.2-.8l-.6-.2-.5.2c-.2.1-.2.3-.2.5a.7.7,0,0,0,.2.6l.7.4.8.3.6.5.3.5a1.5,1.5,0,0,1,.1.7,1.5,1.5,0,0,1-.4,1.1,2.3,2.3,0,0,1-1.3.6v.8h-.6v-.8a2.6,2.6,0,0,1-1.4-.6,2.4,2.4,0,0,1-.5-1.4h1.2a.8.8,0,0,0,.3.7.9.9,0,0,0,.7.3l.6-.2A.8.8,0,0,0,455.6,178.2Zm3.3-2.1h.7a.8.8,0,0,0,.7-.2,1.1,1.1,0,0,0,.2-.6.8.8,0,0,0-.2-.6l-.6-.2-.6.2a.5.5,0,0,0-.3.5h-1.2a1.6,1.6,0,0,1,.3-.9,2.2,2.2,0,0,1,.7-.6l1-.2a2.1,2.1,0,0,1,1.6.5,1.5,1.5,0,0,1,.6,1.3,1.3,1.3,0,0,1-.3.8,1.8,1.8,0,0,1-.7.5,1.2,1.2,0,0,1,.8.6,1.2,1.2,0,0,1,.3.9,1.7,1.7,0,0,1-.7,1.3,2.5,2.5,0,0,1-1.6.5,2.5,2.5,0,0,1-1.5-.5,1.6,1.6,0,0,1-.6-1.3h1.3a.7.7,0,0,0,.2.6l.7.2.7-.2a1.4,1.4,0,0,0,.2-.7c0-.6-.3-.9-1-.9h-.7Zm8,1.1a3.4,3.4,0,0,1-.5,2,2.2,2.2,0,0,1-3.2,0,3.3,3.3,0,0,1-.5-1.9v-1.2a3.3,3.3,0,0,1,.5-1.9,2.2,2.2,0,0,1,3.2,0,3.1,3.1,0,0,1,.5,1.9Zm-1.2-1.2a3.7,3.7,0,0,0-.2-1.2,1,1,0,0,0-1.4,0,3.1,3.1,0,0,0-.2,1.1v1.5a2.7,2.7,0,0,0,.2,1.1.8.8,0,0,0,1.4,0,2.5,2.5,0,0,0,.2-1Zm6.1-.8a1.9,1.9,0,0,1-.2.8l-.6.6a1.3,1.3,0,0,1,.7.6,2.9,2.9,0,0,1,.2.9,1.7,1.7,0,0,1-.5,1.3,2.5,2.5,0,0,1-1.6.5,2.5,2.5,0,0,1-1.5-.5,1.5,1.5,0,0,1-.6-1.3,1.6,1.6,0,0,1,.3-.9,1.3,1.3,0,0,1,.7-.6.9.9,0,0,1-.6-.6,1.1,1.1,0,0,1-.2-.8,1.3,1.3,0,0,1,.5-1.2,1.6,1.6,0,0,1,1.4-.5,2,2,0,0,1,1.5.5A1.7,1.7,0,0,1,471.8,175.2Zm-1.1,2.8a.8.8,0,0,0-.2-.6.9.9,0,0,0-.7-.3.9.9,0,0,0-.6.3c-.2.1-.2.3-.2.6a.8.8,0,0,0,.2.7l.6.2.7-.2A1.4,1.4,0,0,0,470.7,178Zm-.1-2.7a1.4,1.4,0,0,0-.2-.6l-.6-.2-.5.2a.8.8,0,0,0-.2.6,1.4,1.4,0,0,0,.2.6l.5.2.6-.2A1.4,1.4,0,0,0,470.6,175.3Zm2.3,3.9a.8.8,0,0,1,.2-.5l.5-.2.5.2a.7.7,0,0,1,0,1l-.5.2-.5-.2A.8.8,0,0,1,472.9,179.2Zm6.7-4.9-2.4,5.5h-1.3l2.4-5.2h-3.1v-1h4.4Zm4.4,3.2h.7v1H484v1.3h-1.2v-1.3h-2.6v-.8l2.6-4.1H484Zm-2.6,0h1.4v-2.2h-.1Z" transform="translate(-46 -50)"/><path class="cls-2" d="M454.6,191.2a4.5,4.5,0,0,1-1.4-.7,1.4,1.4,0,0,1-.5-1,1.4,1.4,0,0,1,.6-1.2,2,2,0,0,1,1.4-.4l1,.2a2.2,2.2,0,0,1,.7.6,1.6,1.6,0,0,1,.3.9h-.8a1.1,1.1,0,0,0-.3-.8,1.5,1.5,0,0,0-1.8,0,.8.8,0,0,0,0,1.2l1,.5,1.1.4.6.6a1.9,1.9,0,0,1,.2.8,1.6,1.6,0,0,1-.5,1.1,2.4,2.4,0,0,1-1.5.4l-1.1-.2a2.7,2.7,0,0,1-.8-.7,1.2,1.2,0,0,1-.3-.9h.8a1,1,0,0,0,.4.9,1.5,1.5,0,0,0,1,.3,1.2,1.2,0,0,0,.9-.3.8.8,0,0,0,.4-.6.9.9,0,0,0-.3-.7Zm5.6,2.1a1.7,1.7,0,0,1-1.2.5,1.4,1.4,0,0,1-1.1-.4,2.1,2.1,0,0,1-.3-1.2v-2.8h.7v2.8c0,.7.3,1,.8,1a1.1,1.1,0,0,0,1.1-.6v-3.2h.7v4.3h-.7Zm1.7-1.8a2.2,2.2,0,0,1,.4-1.5,1.5,1.5,0,0,1,1.3-.6,1.3,1.3,0,0,1,1.2.5v-.5h.7v4.2a1.7,1.7,0,0,1-.5,1.3,1.9,1.9,0,0,1-1.3.5l-.9-.2a1.3,1.3,0,0,1-.7-.5l.4-.5a1.4,1.4,0,0,0,1.1.6c.4,0,.7-.1.8-.3a1.1,1.1,0,0,0,.3-.8v-.4a1.3,1.3,0,0,1-1.1.5,1.5,1.5,0,0,1-1.3-.6A2.9,2.9,0,0,1,461.9,191.5Zm.7.1a2.1,2.1,0,0,0,.3,1.2,1.2,1.2,0,0,0,.8.4,1,1,0,0,0,1-.7v-1.9a1,1,0,0,0-1-.6.9.9,0,0,0-.8.4A2.1,2.1,0,0,0,462.6,191.6Zm3.8-.1a2.3,2.3,0,0,1,.5-1.5,1.4,1.4,0,0,1,1.2-.6,1.3,1.3,0,0,1,1.2.5v-.5h.6v4.2a1.4,1.4,0,0,1-.5,1.3,1.7,1.7,0,0,1-1.3.5l-.9-.2a1.8,1.8,0,0,1-.7-.5l.4-.5a1.4,1.4,0,0,0,1.2.6,1,1,0,0,0,1.1-1.1v-.4a1.7,1.7,0,0,1-1.2.5,1.4,1.4,0,0,1-1.2-.6A2.9,2.9,0,0,1,466.4,191.5Zm.8.1a3.7,3.7,0,0,0,.2,1.2,1.3,1.3,0,0,0,.9.4,1,1,0,0,0,1-.7v-1.9a1.1,1.1,0,0,0-1-.6.8.8,0,0,0-.8.4A2.1,2.1,0,0,0,467.2,191.6Zm5.7,2.2a1.8,1.8,0,0,1-1.4-.6,2,2,0,0,1-.5-1.5h0a2.3,2.3,0,0,1,.2-1.2,2.7,2.7,0,0,1,.7-.8l.9-.2a1.4,1.4,0,0,1,1.3.5,2.5,2.5,0,0,1,.5,1.6v.3h-2.9a1.5,1.5,0,0,0,.3,1,1.3,1.3,0,0,0,1,.4l.6-.2.5-.4.4.4A1.8,1.8,0,0,1,472.9,193.8Zm-.1-3.8a.9.9,0,0,0-.7.3,1.9,1.9,0,0,0-.4.9h2.1a1.1,1.1,0,0,0-.3-.8A.8.8,0,0,0,472.8,190Zm5.1,2.6a.8.8,0,0,0-.2-.5l-.8-.3-.9-.2-.4-.4a.7.7,0,0,1-.2-.6,1.2,1.2,0,0,1,.4-.9,2.6,2.6,0,0,1,2.4,0,1.3,1.3,0,0,1,.4,1h-.7a.5.5,0,0,0-.3-.5c-.1-.2-.4-.2-.6-.2h-.6c-.2.2-.3.3-.3.5a.5.5,0,0,0,.2.4l.8.2.9.3.5.5a.8.8,0,0,1,.2.5,1.4,1.4,0,0,1-.5,1,2.1,2.1,0,0,1-1.2.3l-.9-.2a1,1,0,0,1-.6-.5.8.8,0,0,1-.2-.7h.7a.9.9,0,0,0,.3.6l.7.2.7-.2A.5.5,0,0,0,477.9,192.6Zm2.7-4.2v1h.8v.6h-.8v2.7c0,.1,0,.3.1.3a.5.5,0,0,0,.4.2h.3v.6h-.5a1,1,0,0,1-.8-.3,1.1,1.1,0,0,1-.2-.8V190h-.8v-.6h.8v-1Zm3.4,5.4a1.8,1.8,0,0,1-1.4-.6,2,2,0,0,1-.5-1.5h0a2.3,2.3,0,0,1,.2-1.2,2.7,2.7,0,0,1,.7-.8l.9-.2a1.4,1.4,0,0,1,1.3.5,2.5,2.5,0,0,1,.5,1.6v.3h-2.9a1.2,1.2,0,0,0,.4,1,1,1,0,0,0,.9.4l.6-.2a1,1,0,0,0,.5-.4l.4.4A1.8,1.8,0,0,1,484,193.8Zm-.1-3.8a.9.9,0,0,0-.7.3,1.9,1.9,0,0,0-.4.9H485l-.3-.8A1.1,1.1,0,0,0,483.9,190Zm2.5,1.5a2.4,2.4,0,0,1,.4-1.5,1.6,1.6,0,0,1,1.3-.6c.5,0,.9.1,1.1.5v-2.3h.8v6.1h-.7v-.4a1.7,1.7,0,0,1-1.3.5,1.6,1.6,0,0,1-1.2-.6,2.5,2.5,0,0,1-.4-1.6Zm.7.1a2.1,2.1,0,0,0,.3,1.2,1.2,1.2,0,0,0,.8.4,1,1,0,0,0,1-.6v-2a1,1,0,0,0-1-.6.9.9,0,0,0-.8.4A2.1,2.1,0,0,0,487.1,191.6Zm6.9-.1v2.2h-.8V188h2.2a2,2,0,0,1,1.4.4,1.8,1.8,0,0,1,.6,1.3,1.7,1.7,0,0,1-.5,1.3,2.5,2.5,0,0,1-1.5.5Zm0-.7h1.4l.9-.2a1.2,1.2,0,0,0,.3-.9,1.1,1.1,0,0,0-.3-.8,1.2,1.2,0,0,0-.9-.3H494Zm6.3-.7h-.4a.9.9,0,0,0-.9.6v3h-.8v-4.3h.7v.5a1.1,1.1,0,0,1,1-.5h.3Zm1.5,3.6H501v-4.3h.8Zm-.8-5.4a.4.4,0,0,1,.1-.3h.6a.5.5,0,0,1,0,.6h-.6A.4.4,0,0,1,501,188.3Zm3.7,4.9.6-.2a2.1,2.1,0,0,0,.4-.6h.7a3.6,3.6,0,0,1-.3.7l-.6.5-.8.2a1.7,1.7,0,0,1-1.4-.6,2.1,2.1,0,0,1-.5-1.6h0a2,2,0,0,1,.2-1.1,2.4,2.4,0,0,1,.6-.8l1.1-.2a1.5,1.5,0,0,1,1.1.4,1.7,1.7,0,0,1,.6,1.1h-.7a1.6,1.6,0,0,0-.4-.7l-.6-.2a1,1,0,0,0-.9.4,1.6,1.6,0,0,0-.3,1.1v.2a1.8,1.8,0,0,0,.3,1.1A1,1,0,0,0,504.7,193.2Zm4.3.6a2,2,0,0,1-1.5-.6,2.5,2.5,0,0,1-.5-1.5h0a4.3,4.3,0,0,1,.2-1.2,2.7,2.7,0,0,1,.7-.8l1-.2a1.5,1.5,0,0,1,1.3.5,2.5,2.5,0,0,1,.4,1.6v.3h-2.9a1.5,1.5,0,0,0,.4,1,1,1,0,0,0,.9.4l.6-.2a1,1,0,0,0,.5-.4l.5.4A1.9,1.9,0,0,1,509,193.8Zm-.1-3.8a1.1,1.1,0,0,0-.8.3,1.9,1.9,0,0,0-.4.9h2.2a1.1,1.1,0,0,0-.3-.8A.9.9,0,0,0,508.9,190Zm2.5,3.3c0-.1.1-.2.2-.3h.6c.1.1.2.2.2.3s-.1.3-.2.3l-.3.2c-.2,0-.3-.1-.3-.2S511.4,193.5,511.4,193.3Zm.1-3.5a.4.4,0,0,1,.1-.3h.6c.1.1.2.2.2.3s-.1.3-.2.3-.1.2-.3.2l-.3-.2C511.5,190.1,511.5,190,511.5,189.8Zm6.8,2.4a.9.9,0,0,0-.3-.6l-.8-.4a3.2,3.2,0,0,1-1.3-.7,1.8,1.8,0,0,1-.4-1,1.8,1.8,0,0,1,.4-1.1,1.4,1.4,0,0,1,1.1-.5V187h.5v.9a1.5,1.5,0,0,1,1.1.6,2.1,2.1,0,0,1,.4,1.2h-.8a2.9,2.9,0,0,0-.2-.9,1.1,1.1,0,0,0-.8-.3.9.9,0,0,0-.7.3,1.1,1.1,0,0,0-.2.6,1.4,1.4,0,0,0,.2.7l.9.4a1.9,1.9,0,0,1,.9.5.8.8,0,0,1,.5.5,1.4,1.4,0,0,1,.2.7,1.4,1.4,0,0,1-.4,1.1,1.9,1.9,0,0,1-1.1.5v.7h-.6v-.7a2.2,2.2,0,0,1-1.2-.5,2.5,2.5,0,0,1-.4-1.3h.8c0,.4,0,.7.2.9a1.2,1.2,0,0,0,.9.3,1.1,1.1,0,0,0,.8-.3A.9.9,0,0,0,518.3,192.2Zm2.7-1.7h.5a1,1,0,0,0,.8-.3.9.9,0,0,0,.3-.7c0-.7-.3-1-1-1a.9.9,0,0,0-.7.3.8.8,0,0,0-.3.7h-.7a1.3,1.3,0,0,1,.5-1.2,1.6,1.6,0,0,1,1.2-.4,1.7,1.7,0,0,1,1.3.4,1.7,1.7,0,0,1,.5,1.2.9.9,0,0,1-.3.7c-.1.3-.4.4-.6.6a1.2,1.2,0,0,1,.7.5,1.1,1.1,0,0,1,.3.8,1.4,1.4,0,0,1-.6,1.2,1.7,1.7,0,0,1-1.3.5,2.8,2.8,0,0,1-1.3-.4,1.7,1.7,0,0,1-.5-1.2h.7a.9.9,0,0,0,.3.7,1.1,1.1,0,0,0,.8.3c.4,0,.7-.1.8-.3a1,1,0,0,0,.3-.8.8.8,0,0,0-.3-.7,1.2,1.2,0,0,0-.9-.3H521Zm6.5,1.3h.8v.6h-.8v1.3h-.7v-1.3h-2.6V192l2.6-4h.7Zm-2.5,0h1.8V189h-.1Zm5.1-1.3h.5a1,1,0,0,0,.8-.3.9.9,0,0,0,.3-.7c0-.7-.3-1-1-1a1,1,0,0,0-1,1h-.8a1.7,1.7,0,0,1,.5-1.2,2,2,0,0,1,1.3-.4,1.7,1.7,0,0,1,1.3.4,1.7,1.7,0,0,1,.5,1.2.9.9,0,0,1-.3.7c-.1.3-.4.4-.6.6a1.2,1.2,0,0,1,.7.5,1.1,1.1,0,0,1,.2.8,1.3,1.3,0,0,1-.5,1.2,1.7,1.7,0,0,1-1.3.5,2.5,2.5,0,0,1-1.3-.4,1.7,1.7,0,0,1-.5-1.2h.7a.9.9,0,0,0,.3.7,1.1,1.1,0,0,0,.8.3,1,1,0,0,0,1.1-1.1.8.8,0,0,0-.3-.7,1.2,1.2,0,0,0-.9-.3h-.5Zm3.5,2.8c0-.1.1-.2.2-.3h.6a.4.4,0,0,1,.1.3c0,.2,0,.3-.1.3l-.3.2c-.2,0-.3-.1-.3-.2S533.6,193.5,533.6,193.3Zm3.1-2.8h.6a1.1,1.1,0,0,0,.8-.3.9.9,0,0,0,.3-.7c0-.7-.3-1-1-1a1.1,1.1,0,0,0-.8.3,1.2,1.2,0,0,0-.2.7h-.8a1.7,1.7,0,0,1,.5-1.2,2,2,0,0,1,1.3-.4,1.8,1.8,0,0,1,1.3.4,1.6,1.6,0,0,1,.4,1.2.8.8,0,0,1-.2.7,2,2,0,0,1-.7.6,1.4,1.4,0,0,1,.8.5,1.9,1.9,0,0,1,.2.8,1.3,1.3,0,0,1-.5,1.2,1.9,1.9,0,0,1-1.3.5,2.5,2.5,0,0,1-1.3-.4,1.3,1.3,0,0,1-.5-1.2h.7a.9.9,0,0,0,.3.7,1.1,1.1,0,0,0,.8.3,1,1,0,0,0,1.1-1.1.8.8,0,0,0-.3-.7,1.2,1.2,0,0,0-.9-.3h-.6Zm6.6,1.3h.8v.6h-.8v1.3h-.7v-1.3H540V192l2.5-4h.8Zm-2.5,0h1.8V189h-.1Z" transform="translate(-46 -50)"/><rect class="cls-3" x="24.6" y="105.9" width="566.3" height="53.17" rx="5.9"/><ellipse cx="549.9" cy="135.7" rx="1.1" ry="1"/><ellipse cx="554.1" cy="135.7" rx="1.1" ry="1"/><ellipse cx="558.4" cy="135.7" rx="1.1" ry="1"/><rect class="cls-3" x="24.6" y="170.7" width="566.3" height="53.17" rx="5.9"/><ellipse cx="549.9" cy="200.6" rx="1.1" ry="1"/><ellipse cx="554.1" cy="200.6" rx="1.1" ry="1"/><ellipse cx="558.4" cy="200.6" rx="1.1" ry="1"/><path class="cls-4" d="M145.4,235.4h68.5a4.5,4.5,0,0,1,4.6,4.6h0a4.6,4.6,0,0,1-4.6,4.6H145.4a4.7,4.7,0,0,1-4.6-4.6h0A4.6,4.6,0,0,1,145.4,235.4Z" transform="translate(-46 -50)"/><path class="cls-4" d="M456.8,235.4H485a4.5,4.5,0,0,1,4.6,4.6h0a4.6,4.6,0,0,1-4.6,4.6H456.8a4.7,4.7,0,0,1-4.6-4.6h0A4.6,4.6,0,0,1,456.8,235.4Z" transform="translate(-46 -50)"/><path class="cls-5" d="M143.3,252.3H216a2.5,2.5,0,0,1,2.5,2.5h0a2.5,2.5,0,0,1-2.5,2.5H143.3a2.5,2.5,0,0,1-2.5-2.5h0A2.5,2.5,0,0,1,143.3,252.3Z" transform="translate(-46 -50)"/><path class="cls-5" d="M235.1,252.3h72.7a2.5,2.5,0,0,1,2.5,2.5h0a2.5,2.5,0,0,1-2.5,2.5H235.1a2.5,2.5,0,0,1-2.5-2.5h0A2.5,2.5,0,0,1,235.1,252.3Z" transform="translate(-46 -50)"/><path class="cls-5" d="M326.9,252.3h72.7a2.5,2.5,0,0,1,2.5,2.5h0a2.5,2.5,0,0,1-2.5,2.5H326.9a2.5,2.5,0,0,1-2.5-2.5h0A2.5,2.5,0,0,1,326.9,252.3Z" transform="translate(-46 -50)"/><path class="cls-5" d="M454.7,252.3h99.5a2.5,2.5,0,0,1,2.5,2.5h0a2.5,2.5,0,0,1-2.5,2.5H454.7a2.5,2.5,0,0,1-2.5-2.5h0A2.5,2.5,0,0,1,454.7,252.3Z" transform="translate(-46 -50)"/><path class="cls-5" d="M91.1,245.3h19a2.5,2.5,0,0,1,2.5,2.4h0a2.5,2.5,0,0,1-2.5,2.5h-19a2.5,2.5,0,0,1-2.5-2.5h0A2.5,2.5,0,0,1,91.1,245.3Z" transform="translate(-46 -50)"/><rect class="cls-3" x="24.6" y="243.5" width="566.3" height="53.17" rx="5.9"/><ellipse cx="549.9" cy="273.4" rx="1.1" ry="1"/><ellipse cx="554.1" cy="273.4" rx="1.1" ry="1"/><ellipse cx="558.4" cy="273.4" rx="1.1" ry="1"/><path class="cls-4" d="M145.4,308.2h68.5a4.6,4.6,0,0,1,4.6,4.6h0a4.6,4.6,0,0,1-4.6,4.6H145.4a4.7,4.7,0,0,1-4.6-4.6h0A4.7,4.7,0,0,1,145.4,308.2Z" transform="translate(-46 -50)"/><path class="cls-4" d="M456.8,308.2H485a4.6,4.6,0,0,1,4.6,4.6h0a4.6,4.6,0,0,1-4.6,4.6H456.8a4.7,4.7,0,0,1-4.6-4.6h0A4.7,4.7,0,0,1,456.8,308.2Z" transform="translate(-46 -50)"/><rect class="cls-5" x="94.8" y="275.1" width="77.7" height="4.94" rx="2.5"/><rect class="cls-5" x="186.6" y="275.1" width="77.7" height="4.94" rx="2.5"/><rect class="cls-5" x="278.4" y="275.1" width="77.7" height="4.94" rx="2.5"/><rect class="cls-5" x="406.2" y="275.1" width="104.5" height="4.94" rx="2.5"/><rect class="cls-5" x="42.6" y="268.1" width="24" height="4.94" rx="2.5"/><rect class="cls-6" x="564.4" y="0.4" width="258.2" height="319.37" rx="8.2"/><path d="M646,75.7h-3.9V86.4h-2.6V75.7h-3.9V73.6H646Zm4.2,7.1,1.7-5.9h2.8l-3.9,11-.2.5a2.8,2.8,0,0,1-2.8,1.8h-1.1V88.2h.4a1.8,1.8,0,0,0,1.1-.3,1,1,0,0,0,.5-.7l.3-.8-3.3-9.5h2.7Zm14-1.1a5.7,5.7,0,0,1-1,3.6,3.3,3.3,0,0,1-5,.3v4.5h-2.5V76.9H658v.9a3,3,0,0,1,2.4-1.1,3.6,3.6,0,0,1,2.8,1.3,6.4,6.4,0,0,1,.9,3.6Zm-2.5-.1a4.1,4.1,0,0,0-.5-2.1,1.5,1.5,0,0,0-1.4-.7,1.7,1.7,0,0,0-1.6.9v3.9a1.8,1.8,0,0,0,1.7.9C661.1,84.5,661.7,83.5,661.7,81.6Zm8.5,5a4.5,4.5,0,0,1-4.7-4.7v-.3a6.6,6.6,0,0,1,.5-2.5,4,4,0,0,1,1.6-1.8,4.4,4.4,0,0,1,2.3-.6A3.9,3.9,0,0,1,673,78a5,5,0,0,1,1.1,3.4v1.1H668a2.8,2.8,0,0,0,.8,1.5,2.5,2.5,0,0,0,1.6.5,2.6,2.6,0,0,0,2.2-1l1.3,1.4a4,4,0,0,1-1.6,1.2A4.6,4.6,0,0,1,670.2,86.6Zm-.3-7.8a1.3,1.3,0,0,0-1.2.5,2.6,2.6,0,0,0-.6,1.4h3.5v-.2a1.9,1.9,0,0,0-.5-1.3A1.5,1.5,0,0,0,669.9,78.8Zm9.7,2.8a5.5,5.5,0,0,1,.6-2.6,4.1,4.1,0,0,1,1.5-1.7,4.8,4.8,0,0,1,2.4-.6,4.4,4.4,0,0,1,3.2,1.2,4.9,4.9,0,0,1,1.3,3.2v.6a5.2,5.2,0,0,1-1.2,3.6,4.5,4.5,0,0,1-3.3,1.3,4.4,4.4,0,0,1-3.2-1.3,4.8,4.8,0,0,1-1.3-3.6Zm2.6.1a3.1,3.1,0,0,0,.5,2.1,1.5,1.5,0,0,0,1.4.7,1.7,1.7,0,0,0,1.5-.7,4,4,0,0,0,.5-2.2,4.1,4.1,0,0,0-.5-2.1,1.7,1.7,0,0,0-1.5-.7,1.5,1.5,0,0,0-1.4.7A3.4,3.4,0,0,0,682.2,81.7Zm8.7,4.7V78.8h-1.4V76.9h1.4v-.8a3.3,3.3,0,0,1,.9-2.5,3.6,3.6,0,0,1,2.6-.9l1.3.2v2h-.8c-1,0-1.4.4-1.4,1.3v.8h1.8v1.9h-1.8v7.6Zm10.4,0V73.6h4.5a5.8,5.8,0,0,1,3.5.9,3.1,3.1,0,0,1,1.2,2.6,2.6,2.6,0,0,1-.5,1.7,2.2,2.2,0,0,1-1.3,1,2.4,2.4,0,0,1,1.5,1,2.8,2.8,0,0,1,.6,1.8,3.2,3.2,0,0,1-1.2,2.8,4.7,4.7,0,0,1-3.3,1Zm2.6-5.6v3.5h2.3a3.3,3.3,0,0,0,1.5-.4,1.9,1.9,0,0,0,.5-1.3c0-1.2-.6-1.7-1.8-1.8Zm0-1.8h2c1.3-.1,2-.6,2-1.6a1.7,1.7,0,0,0-.5-1.3,3.4,3.4,0,0,0-1.6-.4h-1.9Zm14.4,6.4a3.1,3.1,0,0,1-2.6,1.2,2.9,2.9,0,0,1-2.3-.9,3.8,3.8,0,0,1-.8-2.6V76.9h2.5V83c0,1,.5,1.5,1.4,1.5a1.8,1.8,0,0,0,1.7-.9V76.9h2.6v9.5h-2.4Zm8-2.6,1.7-5.9h2.7l-3.8,11-.2.5a2.9,2.9,0,0,1-2.8,1.8h-1.1V88.2h.4a1.5,1.5,0,0,0,1-.3.9.9,0,0,0,.6-.7l.3-.8-3.3-9.5h2.7Z" transform="translate(-46 -50)"/><path d="M659,124.5h-3.9v4h-1.2v-9.2h5.7v1h-4.5v3.2H659Zm5-1.8h-.6a1.5,1.5,0,0,0-1.5,1v4.8h-1.2v-6.8h1.1v.8a1.8,1.8,0,0,1,1.6-.9h.5Zm3.8,6a2.9,2.9,0,0,1-2.3-1,3.6,3.6,0,0,1-.8-2.4v-.2a3.4,3.4,0,0,1,.4-1.8,2.7,2.7,0,0,1,1-1.3,2.9,2.9,0,0,1,1.6-.4,2.8,2.8,0,0,1,2,.8,4,4,0,0,1,.8,2.6v.4h-4.7a3.8,3.8,0,0,0,.6,1.7,2,2,0,0,0,1.5.6,1.7,1.7,0,0,0,1-.3,1.6,1.6,0,0,0,.8-.6l.7.5A3,3,0,0,1,667.8,128.7Zm-.1-6.2a1.7,1.7,0,0,0-1.2.5,3.4,3.4,0,0,0-.6,1.5h3.4a2,2,0,0,0-.5-1.4A1.6,1.6,0,0,0,667.7,122.5Zm3.8,2.6a4,4,0,0,1,.8-2.6,2.4,2.4,0,0,1,2-.9,2.2,2.2,0,0,1,1.9.8v-.7h1.1v9.5h-1.2v-3.3a2.5,2.5,0,0,1-3.8-.2,4.2,4.2,0,0,1-.8-2.6Zm1.2.1a3,3,0,0,0,.5,1.8,1.5,1.5,0,0,0,1.3.7,1.7,1.7,0,0,0,1.6-.9v-3.4a1.7,1.7,0,0,0-2.9-.2A3.7,3.7,0,0,0,672.7,125.2Zm10.7,2.7a2.6,2.6,0,0,1-2,.8,2.4,2.4,0,0,1-1.7-.7,3.1,3.1,0,0,1-.6-1.9v-4.4h1.2v4.4c0,1,.4,1.6,1.3,1.6a1.9,1.9,0,0,0,1.8-1v-5h1.1v6.8h-1.1Zm5.7.8a2.7,2.7,0,0,1-2.2-1,3.2,3.2,0,0,1-.9-2.4v-.2a3.4,3.4,0,0,1,.4-1.8,2.8,2.8,0,0,1,1.1-1.3,2.6,2.6,0,0,1,1.5-.4,2.9,2.9,0,0,1,2.1.8,4,4,0,0,1,.7,2.6v.4h-4.6a2.4,2.4,0,0,0,.6,1.7,1.7,1.7,0,0,0,1.4.6,2,2,0,0,0,1.1-.3,1.9,1.9,0,0,0,.7-.6l.7.5A2.9,2.9,0,0,1,689.1,128.7Zm-.1-6.2a1.7,1.7,0,0,0-1.2.5,3.4,3.4,0,0,0-.6,1.5h3.4a2.6,2.6,0,0,0-.4-1.4A1.7,1.7,0,0,0,689,122.5Zm5.3-.8v.9a2.3,2.3,0,0,1,2-1c1.5,0,2.2.8,2.2,2.4v4.5h-1.1V124a1.8,1.8,0,0,0-.4-1.1,1.3,1.3,0,0,0-1-.3,1.7,1.7,0,0,0-1,.3,1.9,1.9,0,0,0-.7.8v4.8h-1.1v-6.8Zm8.7,6a1.4,1.4,0,0,0,1.1-.4,1.1,1.1,0,0,0,.5-.9h1.1a1.7,1.7,0,0,1-.4,1.1,2.1,2.1,0,0,1-1,.8,2.8,2.8,0,0,1-1.3.4,3,3,0,0,1-2.2-1,3.7,3.7,0,0,1-.8-2.5V125a3.4,3.4,0,0,1,.4-1.8,2.6,2.6,0,0,1,2.6-1.6,2.5,2.5,0,0,1,1.9.7,2.1,2.1,0,0,1,.8,1.7h-1.1a1.2,1.2,0,0,0-.5-1,1.4,1.4,0,0,0-1.1-.5,1.6,1.6,0,0,0-1.4.7,3,3,0,0,0-.4,1.8v.2a3.6,3.6,0,0,0,.4,1.9A1.8,1.8,0,0,0,703,127.7Zm6.3-.9,1.6-5.1h1.2l-2.7,7.9a2.2,2.2,0,0,1-2,1.7h-.7v-1h.3a1.2,1.2,0,0,0,.9-.3q.5-.1.6-.9l.3-.6-2.5-6.8h1.3Z" transform="translate(-46 -50)"/><path d="M655.4,185h-1.2v-9.2h1.2Zm3.1-6.8v.7a2.6,2.6,0,0,1,2.1-.9,1.9,1.9,0,0,1,1.9,1.1,2.4,2.4,0,0,1,.9-.8,2.8,2.8,0,0,1,1.3-.3,2.1,2.1,0,0,1,2.3,2.4V185h-1.2v-4.5a1.6,1.6,0,0,0-.3-1.1,1.7,1.7,0,0,0-1.2-.4,1.8,1.8,0,0,0-1,.4,1.4,1.4,0,0,0-.5,1.1V185h-1.2v-4.5a1.3,1.3,0,0,0-1.5-1.5,1.5,1.5,0,0,0-1.5,1v5h-1.2v-6.8Zm16,3.5a4.1,4.1,0,0,1-.7,2.5,2.7,2.7,0,0,1-3.9.1v3.3h-1.2v-9.4h1.1v.7a2.2,2.2,0,0,1,1.9-.9,2.5,2.5,0,0,1,2,1,4,4,0,0,1,.7,2.6Zm-1.2-.2a3.2,3.2,0,0,0-.4-1.8,1.9,1.9,0,0,0-1.4-.7,1.7,1.7,0,0,0-1.6,1v3.2a1.7,1.7,0,0,0,1.6,1,1.4,1.4,0,0,0,1.3-.7A2.8,2.8,0,0,0,673.3,181.5Zm6-2.3h-.6a1.4,1.4,0,0,0-1.5,1V185H676v-6.8h1.1v.8a1.6,1.6,0,0,1,1.6-1h.5Zm3.8,5.9a3.2,3.2,0,0,1-2.3-.9,3.6,3.6,0,0,1-.8-2.4v-.2a5.8,5.8,0,0,1,.3-1.9,4.3,4.3,0,0,1,1.1-1.2,3,3,0,0,1,1.5-.5,2.6,2.6,0,0,1,2.1.9,3.7,3.7,0,0,1,.8,2.5v.5h-4.7a2.5,2.5,0,0,0,.6,1.7,2,2,0,0,0,1.5.6,1.7,1.7,0,0,0,1-.3c.3-.1.5-.4.8-.6l.7.5A2.9,2.9,0,0,1,683.1,185.1Zm-.2-6.1a1.6,1.6,0,0,0-1.1.5,1.9,1.9,0,0,0-.6,1.5h3.4a2,2,0,0,0-.5-1.4A1.7,1.7,0,0,0,682.9,179Zm8.2,4.2a.7.7,0,0,0-.4-.7,2.3,2.3,0,0,0-1.2-.5,3.8,3.8,0,0,1-1.4-.5,1.2,1.2,0,0,1-.8-.6c-.2-.2-.2-.5-.2-.9a1.7,1.7,0,0,1,.7-1.4,2.6,2.6,0,0,1,1.8-.6,2.9,2.9,0,0,1,1.9.6,2,2,0,0,1,.7,1.6H691a.9.9,0,0,0-.4-.8,1.3,1.3,0,0,0-1-.4,1.5,1.5,0,0,0-1,.3,1,1,0,0,0-.4.7.5.5,0,0,0,.4.6,3.5,3.5,0,0,0,1.2.5l1.4.4a1.9,1.9,0,0,1,.8.7,1.2,1.2,0,0,1,.3.9,1.9,1.9,0,0,1-.8,1.5,3.6,3.6,0,0,1-1.9.5,3.2,3.2,0,0,1-1.4-.3,2,2,0,0,1-1-.8,1.5,1.5,0,0,1-.4-1.1H688a1.1,1.1,0,0,0,.5.9,1.4,1.4,0,0,0,1.1.4,1.8,1.8,0,0,0,1.1-.3A.8.8,0,0,0,691.1,183.2Zm6.7,0a.8.8,0,0,0-.4-.7,2.7,2.7,0,0,0-1.2-.5,5.3,5.3,0,0,1-1.5-.5,1.1,1.1,0,0,1-.7-.6,1.2,1.2,0,0,1-.3-.9,2.1,2.1,0,0,1,.7-1.4,2.9,2.9,0,0,1,1.9-.6,2.6,2.6,0,0,1,1.8.6,2.1,2.1,0,0,1,.8,1.6h-1.2a.9.9,0,0,0-.4-.8,1.3,1.3,0,0,0-1-.4,1.3,1.3,0,0,0-1,.3.8.8,0,0,0-.4.7.6.6,0,0,0,.3.6l1.2.5,1.5.4a2.7,2.7,0,0,1,.8.7,2,2,0,0,1,.2.9,1.8,1.8,0,0,1-.7,1.5,3.6,3.6,0,0,1-1.9.5,3.7,3.7,0,0,1-1.5-.3,2.5,2.5,0,0,1-1-.8,2,2,0,0,1-.3-1.1h1.2a1,1,0,0,0,.4.9,1.6,1.6,0,0,0,1.2.4,2,2,0,0,0,1.1-.3A1,1,0,0,0,697.8,183.2Zm3.9,1.8h-1.2v-6.8h1.2Zm-1.2-8.6a.7.7,0,0,1,.1-.5c.1-.2.3-.2.5-.2s.4,0,.6.2a.7.7,0,0,1,.1.5.6.6,0,0,1-.1.4c-.2.2-.3.2-.6.2s-.4,0-.5-.2A.6.6,0,0,1,700.5,176.4Zm2.8,5.1a3.9,3.9,0,0,1,.4-1.8,2.5,2.5,0,0,1,1.1-1.2,2.8,2.8,0,0,1,1.6-.5,2.9,2.9,0,0,1,2.2,1,3.7,3.7,0,0,1,.9,2.6h0a3.9,3.9,0,0,1-.4,1.8,2.5,2.5,0,0,1-1.1,1.2,2.9,2.9,0,0,1-1.6.4,3.2,3.2,0,0,1-2.3-.9,4.2,4.2,0,0,1-.8-2.6Zm1.2.2a2.7,2.7,0,0,0,.5,1.8,1.7,1.7,0,0,0,2.8,0,3,3,0,0,0,.5-2,2.7,2.7,0,0,0-.5-1.8,1.6,1.6,0,0,0-1.4-.7,1.5,1.5,0,0,0-1.4.7A2.8,2.8,0,0,0,704.5,181.7Zm7.6-3.5v.8a2.7,2.7,0,0,1,2.1-1c1.4,0,2.1.9,2.1,2.5V185h-1.1v-4.5a1.6,1.6,0,0,0-.4-1.1,1.3,1.3,0,0,0-1-.4,1.7,1.7,0,0,0-1,.3,2.7,2.7,0,0,0-.7.8V185H711v-6.8Zm10,5a.7.7,0,0,0-.4-.7,2.3,2.3,0,0,0-1.2-.5,3.8,3.8,0,0,1-1.4-.5,1.2,1.2,0,0,1-.8-.6,1.2,1.2,0,0,1-.3-.9,1.9,1.9,0,0,1,.8-1.4,2.4,2.4,0,0,1,1.8-.6,3.1,3.1,0,0,1,1.9.6,2.4,2.4,0,0,1,.7,1.6H722a.9.9,0,0,0-.4-.8,1.3,1.3,0,0,0-1-.4,1.3,1.3,0,0,0-1,.3.8.8,0,0,0-.4.7.6.6,0,0,0,.3.6l1.3.5,1.4.4a2.7,2.7,0,0,1,.8.7c.2.2.2.5.2.9a1.8,1.8,0,0,1-.7,1.5,3.6,3.6,0,0,1-1.9.5,3.2,3.2,0,0,1-1.4-.3,1.6,1.6,0,0,1-1-.8,1.5,1.5,0,0,1-.4-1.1H719a1.3,1.3,0,0,0,.4.9,1.6,1.6,0,0,0,1.2.4,1.8,1.8,0,0,0,1.1-.3A1,1,0,0,0,722.1,183.2Zm12.8.6a2.7,2.7,0,0,1-1.3,1,5.4,5.4,0,0,1-1.9.3,3.3,3.3,0,0,1-2-.5,5,5,0,0,1-1.4-1.5,5.3,5.3,0,0,1-.4-2.3V180a5.3,5.3,0,0,1,.9-3.2,3.7,3.7,0,0,1,2.7-1.1,3.6,3.6,0,0,1,2.4.7,3,3,0,0,1,1,2.1h-1.2a1.9,1.9,0,0,0-2.1-1.8,2.3,2.3,0,0,0-1.9.8,4.4,4.4,0,0,0-.6,2.5v.8a3.6,3.6,0,0,0,.7,2.4,2.3,2.3,0,0,0,1.9.9h1.2l.8-.5v-2.1h-2.1v-1h3.3Zm1.6-2.3a3.9,3.9,0,0,1,.4-1.8,2.5,2.5,0,0,1,1.1-1.2,2.8,2.8,0,0,1,1.6-.5,2.9,2.9,0,0,1,2.2,1,3.7,3.7,0,0,1,.9,2.6h0a3.9,3.9,0,0,1-.4,1.8,2.5,2.5,0,0,1-1.1,1.2,2.9,2.9,0,0,1-1.6.4,3.2,3.2,0,0,1-2.3-.9,4.2,4.2,0,0,1-.8-2.6Zm1.1.2a2.8,2.8,0,0,0,.6,1.8,1.7,1.7,0,0,0,1.4.7,1.9,1.9,0,0,0,1.4-.7,3.7,3.7,0,0,0,.5-2,3.5,3.5,0,0,0-.5-1.8,1.6,1.6,0,0,0-1.4-.7,1.5,1.5,0,0,0-1.4.7A2.8,2.8,0,0,0,737.6,181.7Zm10.8,3.3c-.1-.1-.1-.4-.2-.7a2.7,2.7,0,0,1-1.9.8,2.9,2.9,0,0,1-1.7-.5,2,2,0,0,1-.6-1.5,1.6,1.6,0,0,1,.8-1.6,3.7,3.7,0,0,1,2.3-.6h1.1v-.6a1,1,0,0,0-.4-.9,1.2,1.2,0,0,0-1.1-.4,1.7,1.7,0,0,0-1,.3.9.9,0,0,0-.4.8h-1.2a1.3,1.3,0,0,1,.4-1,2.4,2.4,0,0,1,.9-.8,3.5,3.5,0,0,1,1.4-.3,2.9,2.9,0,0,1,1.9.6,2.9,2.9,0,0,1,.7,1.7v3.1a3.4,3.4,0,0,0,.2,1.5h-1.2Zm-2-.9a2.3,2.3,0,0,0,1.1-.3l.7-.7v-1.4h-.9c-1.5,0-2.2.4-2.2,1.2a1,1,0,0,0,.4.9A1.4,1.4,0,0,0,746.4,184.1Zm6.1.9h-1.2v-9.7h1.2Z" transform="translate(-46 -50)"/><path d="M656.6,215.8a7,7,0,0,1-2.3-1.1,2.6,2.6,0,0,1-.7-1.7,2,2,0,0,1,.9-1.7,3.4,3.4,0,0,1,2.3-.8,4.7,4.7,0,0,1,1.7.4,3.6,3.6,0,0,1,1.1,1,2.3,2.3,0,0,1,.4,1.4h-1.2a1.9,1.9,0,0,0-.5-1.3,2.5,2.5,0,0,0-1.5-.5,2.6,2.6,0,0,0-1.4.4,1.5,1.5,0,0,0-.1,2.1,7.3,7.3,0,0,0,1.7.7,7.5,7.5,0,0,1,1.8.7,3.8,3.8,0,0,1,.9.9,2.4,2.4,0,0,1,.3,1.2,2.2,2.2,0,0,1-.8,1.8,3.6,3.6,0,0,1-2.4.7,3.3,3.3,0,0,1-1.7-.4,2.7,2.7,0,0,1-1.3-1,2.3,2.3,0,0,1-.4-1.4h1.2a1.5,1.5,0,0,0,.6,1.3,2.5,2.5,0,0,0,1.6.5,2.1,2.1,0,0,0,1.5-.4,1.4,1.4,0,0,0,.5-1.1,1,1,0,0,0-.5-1A3.4,3.4,0,0,0,656.6,215.8Zm6-1.9a2.3,2.3,0,0,1,2-1c1.4,0,2.2.8,2.2,2.4v4.6h-1.2v-4.6a1.8,1.8,0,0,0-.3-1.1,1.6,1.6,0,0,0-1.1-.3,1.9,1.9,0,0,0-1,.3,2.4,2.4,0,0,0-.6.8v4.9h-1.2v-9.7h1.2Zm10.1,6c0-.2-.1-.4-.1-.8a2.7,2.7,0,0,1-2,.9,2.3,2.3,0,0,1-1.6-.6,1.6,1.6,0,0,1-.7-1.4,2.1,2.1,0,0,1,.8-1.7,3.9,3.9,0,0,1,2.3-.6h1.2v-.5a1.5,1.5,0,0,0-.4-1,1.6,1.6,0,0,0-1.1-.4,1.2,1.2,0,0,0-1,.4c-.3.2-.5.4-.5.7h-1.1a2.2,2.2,0,0,1,.3-1l1-.7a3.2,3.2,0,0,1,1.4-.3,2.4,2.4,0,0,1,1.8.6,1.9,1.9,0,0,1,.7,1.6v3.2a3.3,3.3,0,0,0,.3,1.5h-1.3Zm-1.9-.9a1.7,1.7,0,0,0,1-.3,1.6,1.6,0,0,0,.8-.8v-1.4h-1c-1.4,0-2.1.5-2.1,1.3a1,1,0,0,0,.4.9A1.2,1.2,0,0,0,670.8,219Zm8.1-4.9h-.6a1.7,1.7,0,0,0-1.6,1v4.9h-1.1V213h1.1v.8a1.8,1.8,0,0,1,1.6-.9h.6Zm3.8,5.9a3,3,0,0,1-2.3-.9,3.3,3.3,0,0,1-.9-2.5v-.2a3.4,3.4,0,0,1,.4-1.8,3.2,3.2,0,0,1,1.1-1.2,3,3,0,0,1,1.5-.5,2.6,2.6,0,0,1,2.1.9,3.7,3.7,0,0,1,.7,2.5v.5h-4.6a2.1,2.1,0,0,0,.6,1.6,1.8,1.8,0,0,0,1.4.6l1.1-.2.7-.7.7.6A2.9,2.9,0,0,1,682.7,220Zm-.2-6.1a1.3,1.3,0,0,0-1.2.5,2.6,2.6,0,0,0-.6,1.4h3.4a1.7,1.7,0,0,0-.4-1.3A1.3,1.3,0,0,0,682.5,213.9Zm7.1,2.5a3.4,3.4,0,0,1,.4-1.8,2.4,2.4,0,0,1,1.1-1.3,3.1,3.1,0,0,1,3.8.6,3.5,3.5,0,0,1,.9,2.5h0a3.4,3.4,0,0,1-.4,1.8,3.2,3.2,0,0,1-1.1,1.2,3,3,0,0,1-1.6.5,2.9,2.9,0,0,1-2.3-1,3.9,3.9,0,0,1-.8-2.5Zm1.1.1a2.4,2.4,0,0,0,.6,1.8,1.5,1.5,0,0,0,1.4.7,1.6,1.6,0,0,0,1.4-.7,3.3,3.3,0,0,0,.5-1.9,3,3,0,0,0-.5-1.8,1.6,1.6,0,0,0-1.4-.7,1.5,1.5,0,0,0-1.4.7A2.7,2.7,0,0,0,690.7,216.5Zm7.1,3.4v-6h-1.1V213h1.1v-.7a2.1,2.1,0,0,1,2.3-2.3h.8v1h-.6a1,1,0,0,0-.9.4,1.2,1.2,0,0,0-.3.9v.7h1.5v.9H699v6Zm10.4-1.6,2.6-7.6h1.3l-3.4,9.2h-1.1l-3.4-9.2h1.4Zm4.4-1.9a3.4,3.4,0,0,1,.4-1.8,2.4,2.4,0,0,1,1.1-1.3,2.7,2.7,0,0,1,1.6-.4,2.6,2.6,0,0,1,2.2,1,3.5,3.5,0,0,1,.9,2.5h0a3.4,3.4,0,0,1-.4,1.8,2.5,2.5,0,0,1-1.1,1.2,2.8,2.8,0,0,1-1.6.5,2.9,2.9,0,0,1-2.3-1,3.9,3.9,0,0,1-.8-2.5Zm1.2.1a2.4,2.4,0,0,0,.5,1.8,1.8,1.8,0,0,0,2.8,0,2.7,2.7,0,0,0,.5-1.9,2.4,2.4,0,0,0-.5-1.8,1.6,1.6,0,0,0-1.4-.7,1.5,1.5,0,0,0-1.4.7A2.7,2.7,0,0,0,713.8,216.5Zm7.7,3.4h-1.1V213h1.1Zm-1.2-8.7a.9.9,0,0,1,.1-.5l.6-.2.5.2c.1.2.2.3.2.5a.8.8,0,0,1-.2.5l-.5.2-.6-.2A.7.7,0,0,1,720.3,211.2Zm5.9,7.8a1.7,1.7,0,0,0,1-.3,1.5,1.5,0,0,0,.6-1h1.1a3.6,3.6,0,0,1-.4,1.1,2.8,2.8,0,0,1-1,.9,3.1,3.1,0,0,1-1.3.3,3,3,0,0,1-2.3-.9,4.2,4.2,0,0,1-.8-2.6v-.2a3.7,3.7,0,0,1,.4-1.8,2.6,2.6,0,0,1,2.6-1.6,2.5,2.5,0,0,1,1.9.7,2.3,2.3,0,0,1,.9,1.8h-1.1a1.9,1.9,0,0,0-.5-1.1,1.6,1.6,0,0,0-1.2-.4,1.6,1.6,0,0,0-1.3.6,2.6,2.6,0,0,0-.5,1.9v.2a2.4,2.4,0,0,0,.5,1.8A1.6,1.6,0,0,0,726.2,219Zm6.8,1a2.8,2.8,0,0,1-2.2-.9,3.3,3.3,0,0,1-.9-2.5v-.2a3.4,3.4,0,0,1,.4-1.8,2.5,2.5,0,0,1,1.1-1.2,2.5,2.5,0,0,1,1.5-.5,2.4,2.4,0,0,1,2,.9,3.7,3.7,0,0,1,.8,2.5v.5H731a3.4,3.4,0,0,0,.6,1.6,2,2,0,0,0,1.5.6l1-.2a2.7,2.7,0,0,0,.8-.7l.7.6A3,3,0,0,1,733,220Zm-.1-6.1a1.3,1.3,0,0,0-1.2.5,2.6,2.6,0,0,0-.6,1.4h3.4a1.7,1.7,0,0,0-.5-1.3A1.2,1.2,0,0,0,732.9,213.9Z" transform="translate(-46 -50)"/><rect class="cls-7" x="590.4" y="52.4" width="203.1" height="46.36" rx="9.5"/><rect class="cls-7" x="590.4" y="106.5" width="203.1" height="186.18" rx="9.5"/><path class="cls-8" d="M812.9,124.8a1,1,0,0,1,0-1.4l.2-.2a1,1,0,0,1,1.4,0l4.5,4.5a1,1,0,0,0,1.4,0l4-4.4a1,1,0,0,1,1.4-.1l.2.2a1,1,0,0,1,.1,1.4l-5.6,6.1a1,1,0,0,1-1.5,0Z" transform="translate(-46 -50)"/><path class="cls-5" d="M656.5,237h97a3.5,3.5,0,0,1,3.5,3.5h0a3.5,3.5,0,0,1-3.5,3.5h-97a3.5,3.5,0,0,1-3.5-3.5h0A3.5,3.5,0,0,1,656.5,237Z" transform="translate(-46 -50)"/><path class="cls-5" d="M656.5,257h97a3.5,3.5,0,0,1,3.5,3.5h0a3.5,3.5,0,0,1-3.5,3.5h-97a3.5,3.5,0,0,1-3.5-3.5h0A3.5,3.5,0,0,1,656.5,257Z" transform="translate(-46 -50)"/><path class="cls-5" d="M656.5,277h97a3.5,3.5,0,0,1,3.5,3.5h0a3.5,3.5,0,0,1-3.5,3.5h-97a3.5,3.5,0,0,1-3.5-3.5h0A3.5,3.5,0,0,1,656.5,277Z" transform="translate(-46 -50)"/><path class="cls-5" d="M656.5,297h97a3.5,3.5,0,0,1,3.5,3.5h0a3.5,3.5,0,0,1-3.5,3.5h-97a3.5,3.5,0,0,1-3.5-3.5h0A3.5,3.5,0,0,1,656.5,297Z" transform="translate(-46 -50)"/></svg>