<svg id="Layer_1" data-name="Layer 1" xmlns="http://www.w3.org/2000/svg" xmlns:xlink="http://www.w3.org/1999/xlink" viewBox="0 0 360.4 387.1"><defs><style>.cls-1,.cls-14,.cls-6{fill:none;}.cls-1{stroke:#36e554;stroke-width:24.91px;}.cls-2,.cls-9{fill:#fff;}.cls-2{stroke:#e7e7e7;stroke-width:1px;}.cls-3{fill:#e4e2e2;}.cls-4,.cls-5{fill:#ededed;}.cls-5{fill-opacity:0.5;}.cls-6{stroke:#efefef;stroke-width:1.06px;}.cls-7{fill:#2399f8;}.cls-8{fill:#8f8f8f;}.cls-10{fill:#26dde1;}.cls-11{fill:#9990fc;}.cls-12{fill:#36e554;}.cls-13{mask:url(#mask);}.cls-14{stroke:#fff;stroke-width:1.19px;}</style><mask id="mask" x="131.39" y="12.12" width="228.97" height="200.5" maskUnits="userSpaceOnUse"><g transform="translate(-54 0)"><g id="mask0"><circle class="cls-1" cx="312.9" cy="115.9" r="63.5"/></g></g></mask></defs><rect class="cls-2" x="1.1" y="222.7" width="345.4" height="163.9" rx="9.5"/><path d="M83.7,288.3H80.5v8.9H79.2v-8.9H76v-1.1h7.7Zm5.1,8.9c-.1-.1-.1-.4-.2-.8a2.9,2.9,0,0,1-2.1.9,2.8,2.8,0,0,1-1.8-.6,1.9,1.9,0,0,1-.7-1.6,2,2,0,0,1,.9-1.7,3.7,3.7,0,0,1,2.5-.7h1.2v-.6a1.2,1.2,0,0,0-.4-1,1.6,1.6,0,0,0-1.2-.4,2,2,0,0,0-1.1.3,1,1,0,0,0-.5.8H84.1a2.1,2.1,0,0,1,.4-1,4.8,4.8,0,0,1,1.1-.9,4,4,0,0,1,1.5-.3,3.2,3.2,0,0,1,2,.7,2.5,2.5,0,0,1,.8,1.8v3.4a3.7,3.7,0,0,0,.2,1.6H88.8Zm-2.1-1a2,2,0,0,0,1.1-.3,1.6,1.6,0,0,0,.8-.8v-1.5h-1c-1.6,0-2.3.5-2.3,1.4a1,1,0,0,0,.4.9A1.5,1.5,0,0,0,86.7,296.2Zm6.3-6.4v.9a2.8,2.8,0,0,1,2.2-1.1q2.4,0,2.4,2.7v4.9H96.4v-4.9a1.4,1.4,0,0,0-1.5-1.6,1.7,1.7,0,0,0-1.1.4,2.7,2.7,0,0,0-.7.8v5.3H91.8v-7.4Zm10.9,5.4a.9.9,0,0,0-.4-.8l-1.3-.5-1.6-.4-.8-.7a1.7,1.7,0,0,1-.3-1,1.9,1.9,0,0,1,.8-1.5,3.2,3.2,0,0,1,4,0,1.9,1.9,0,0,1,.8,1.7h-1.3a1,1,0,0,0-.4-.9,1.5,1.5,0,0,0-1.1-.4,1.8,1.8,0,0,0-1.1.3.9.9,0,0,0-.4.8.8.8,0,0,0,.4.7l1.3.4,1.5.5a3.5,3.5,0,0,1,.9.7,1.9,1.9,0,0,1-.5,2.6,3.3,3.3,0,0,1-2.1.6,4.1,4.1,0,0,1-1.6-.3,2.7,2.7,0,0,1-1-.8,2,2,0,0,1-.4-1.3h1.3a1,1,0,0,0,.5,1,1.6,1.6,0,0,0,1.2.4,2.1,2.1,0,0,0,1.2-.3A.8.8,0,0,0,103.9,295.2Zm4.3,2H107v-7.4h1.2Zm-1.4-9.4a.8.8,0,0,1,.2-.5,1.1,1.1,0,0,1,.6-.2l.6.2a1.3,1.3,0,0,1,0,1,.7.7,0,0,1-.6.2c-.3,0-.4,0-.6-.2A.8.8,0,0,1,106.8,287.8Zm5.2.2v1.8h1.4v1H112v4.6c0,.3,0,.5.2.6a.6.6,0,0,0,.6.3h.6v1h-1a1.5,1.5,0,0,1-1.3-.5,2.6,2.6,0,0,1-.4-1.4v-4.6h-1.3v-1h1.3V288Zm7.9,8.1h4.7v1.1h-6.1v-10h1.4Zm5.7-2.7a3.8,3.8,0,0,1,.4-1.9,3.3,3.3,0,0,1,1.2-1.4,3.4,3.4,0,0,1,1.7-.5,3.3,3.3,0,0,1,2.5,1.1,4.1,4.1,0,0,1,.9,2.8h0a3.8,3.8,0,0,1-.4,1.9,4.1,4.1,0,0,1-1.2,1.4,3.4,3.4,0,0,1-1.8.4,3,3,0,0,1-2.4-1,4.1,4.1,0,0,1-.9-2.8Zm1.2.2a3.2,3.2,0,0,0,.6,2,1.8,1.8,0,0,0,1.5.7,1.9,1.9,0,0,0,1.6-.7,3.8,3.8,0,0,0,.5-2.2,2.9,2.9,0,0,0-.5-1.9,1.7,1.7,0,0,0-1.6-.8,1.8,1.8,0,0,0-1.5.7A3.4,3.4,0,0,0,126.8,293.6Zm8.3-3.8v.9a2.7,2.7,0,0,1,2.2-1.1c1.5,0,2.3.9,2.3,2.7v4.9h-1.2v-4.9a1.4,1.4,0,0,0-1.5-1.6,1.5,1.5,0,0,0-1.1.4,2.7,2.7,0,0,0-.7.8v5.3h-1.3v-7.4Zm6.3,3.6a4,4,0,0,1,.8-2.7,2.5,2.5,0,0,1,2.1-1.1,2.5,2.5,0,0,1,2,.9v-3.8h1.3v10.5h-1.2v-.8a2.6,2.6,0,0,1-2.1.9,2.4,2.4,0,0,1-2.1-1,4.1,4.1,0,0,1-.8-2.8Zm1.2.2a3.9,3.9,0,0,0,.5,2,2.1,2.1,0,0,0,1.5.7,1.8,1.8,0,0,0,1.7-1.1v-3.4a1.8,1.8,0,0,0-1.7-1.1,2.1,2.1,0,0,0-1.5.7A4.2,4.2,0,0,0,142.6,293.6Zm6.7-.2a3.8,3.8,0,0,1,.4-1.9,3.3,3.3,0,0,1,1.2-1.4,3.4,3.4,0,0,1,1.7-.5,3.4,3.4,0,0,1,2.5,1.1,4.1,4.1,0,0,1,.9,2.8h0a3.8,3.8,0,0,1-.4,1.9,4.1,4.1,0,0,1-1.2,1.4,3.4,3.4,0,0,1-1.8.4,3,3,0,0,1-2.4-1,4.1,4.1,0,0,1-.9-2.8Zm1.2.2a3.2,3.2,0,0,0,.6,2,1.8,1.8,0,0,0,1.5.7,1.9,1.9,0,0,0,1.6-.7,3.8,3.8,0,0,0,.5-2.2,3.6,3.6,0,0,0-.5-1.9,1.7,1.7,0,0,0-1.6-.8,1.8,1.8,0,0,0-1.5.7A3.4,3.4,0,0,0,150.5,293.6Zm8.3-3.8v.9a3,3,0,0,1,2.3-1.1c1.5,0,2.3.9,2.3,2.7v4.9h-1.2v-4.9a2.1,2.1,0,0,0-.4-1.2,1.6,1.6,0,0,0-1.1-.4,1.5,1.5,0,0,0-1.1.4,1.8,1.8,0,0,0-.7.8v5.3h-1.3v-7.4Z" transform="translate(-54 0)"/><path d="M329.8,294.3a1.6,1.6,0,0,0-.5-1.1,3.5,3.5,0,0,0-1.5-.7,4.2,4.2,0,0,1-2.1-1.2,2.4,2.4,0,0,1-.7-1.8,2.5,2.5,0,0,1,.7-1.9,2.5,2.5,0,0,1,1.8-.8v-1.5h1v1.5a2.6,2.6,0,0,1,1.8.9,3.9,3.9,0,0,1,.6,2.3h-1.2a2.5,2.5,0,0,0-.5-1.6,1.3,1.3,0,0,0-1.2-.5,1.7,1.7,0,0,0-1.3.4,1.4,1.4,0,0,0-.4,1.1,1.6,1.6,0,0,0,.4,1.2,5.3,5.3,0,0,0,1.5.7,5.4,5.4,0,0,1,1.7.8,1.7,1.7,0,0,1,.8.9,2.8,2.8,0,0,1,.3,1.3,2.5,2.5,0,0,1-.7,1.9,3.3,3.3,0,0,1-1.9.8v1.3h-1V297a2.9,2.9,0,0,1-2-.9,3.1,3.1,0,0,1-.8-2.2h1.3a2.1,2.1,0,0,0,.5,1.5,2,2,0,0,0,1.4.5,2,2,0,0,0,1.4-.4A1.4,1.4,0,0,0,329.8,294.3Zm8.2-.8h1.3v1.1H338v2.3h-1.3v-2.3h-4.6v-.8l4.5-6.9H338Zm-4.4,0h3.1v-4.9l-.2.3Zm12.2,0h1.4v1.1h-1.4v2.3h-1.2v-2.3H340v-.8l4.5-6.9h1.3Zm-4.3,0h3.1v-4.9l-.2.3Zm7,5.4-.8-.5a3,3,0,0,0,.7-1.9v-1.1h1.3v1a3.3,3.3,0,0,1-.4,1.3A3.6,3.6,0,0,1,348.5,298.9Zm8-5.4h1.4v1.1h-1.4v2.3h-1.3v-2.3h-4.5v-.8l4.4-6.9h1.4Zm-4.4,0h3.1v-4.6Zm11.9-6.6V288h-.2a3.6,3.6,0,0,0-2.4.8,3.8,3.8,0,0,0-1,2.4,2.9,2.9,0,0,1,4.2,0,3.8,3.8,0,0,1,.8,2.4,3.9,3.9,0,0,1-.8,2.5,3.2,3.2,0,0,1-4.6-.2,4.3,4.3,0,0,1-.9-2.8v-.5a6.2,6.2,0,0,1,1.2-4.2,4.1,4.1,0,0,1,3.5-1.5Zm-1.7,4.5a1.9,1.9,0,0,0-1.2.4,2,2,0,0,0-.7.9v.5a3.9,3.9,0,0,0,.5,2,1.9,1.9,0,0,0,1.4.8,1.9,1.9,0,0,0,1.4-.7,2.5,2.5,0,0,0,.5-1.6,2.9,2.9,0,0,0-.5-1.7A1.8,1.8,0,0,0,362.3,291.4Zm10.9,1.2a5.7,5.7,0,0,1-.8,3.3A2.8,2.8,0,0,1,370,297a2.6,2.6,0,0,1-2.3-1,5.8,5.8,0,0,1-.8-3.2v-1.7a5.8,5.8,0,0,1,.7-3.3,3.2,3.2,0,0,1,4.8,0,5.4,5.4,0,0,1,.8,3.2Zm-1.3-1.7a4.9,4.9,0,0,0-.4-2.4,1.6,1.6,0,0,0-1.5-.7,1.5,1.5,0,0,0-1.4.7,4.6,4.6,0,0,0-.5,2.3v2a4.8,4.8,0,0,0,.5,2.4,1.6,1.6,0,0,0,1.4.8,1.5,1.5,0,0,0,1.4-.8,4,4,0,0,0,.5-2.2Z" transform="translate(-54 0)"/><path d="M78.6,245l2.5,7.3,2.6-7.3h2.7v10H84.3v-2.7l.2-4.7L81.8,255H80.4l-2.7-7.4.2,4.7V255h-2V245Zm12.9,10.1a3.6,3.6,0,0,1-2.7-1,3.3,3.3,0,0,1-1-2.6v-.2a4.2,4.2,0,0,1,.4-2,2.9,2.9,0,0,1,1.3-1.4,3.5,3.5,0,0,1,1.8-.5,3.3,3.3,0,0,1,2.4,1,4.1,4.1,0,0,1,.8,2.7v.8H89.8a2.3,2.3,0,0,0,.6,1.2,1.6,1.6,0,0,0,1.2.4,1.9,1.9,0,0,0,1.8-.8l1,1.1a2.9,2.9,0,0,1-1.2,1A4.7,4.7,0,0,1,91.5,255.1Zm-.2-6.1a1.5,1.5,0,0,0-1,.4,3.3,3.3,0,0,0-.5,1.2h2.8v-.2a1.2,1.2,0,0,0-.4-1A1.3,1.3,0,0,0,91.3,249Zm6.5,6h-2v-7.4h2Zm-2.1-9.3a1.9,1.9,0,0,1,.2-.8,1.4,1.4,0,0,1,.9-.3,1,1,0,0,1,1.1,1.1.9.9,0,0,1-.3.7,1.1,1.1,0,0,1-.8.3,1,1,0,0,1-.8-.3A.9.9,0,0,1,95.7,245.7Zm5.8,9.3h-2V244.5h2Zm3.7,0h-2V244.5h2Zm5.1.1a3.6,3.6,0,0,1-2.7-1,3.3,3.3,0,0,1-1-2.6v-.2a4.2,4.2,0,0,1,.4-2,3.3,3.3,0,0,1,1.2-1.4,4.1,4.1,0,0,1,1.9-.5,3.3,3.3,0,0,1,2.4,1,4.1,4.1,0,0,1,.8,2.7v.8h-4.7a2.3,2.3,0,0,0,.6,1.2,1.6,1.6,0,0,0,1.2.4,1.9,1.9,0,0,0,1.8-.8l1,1.1a2.9,2.9,0,0,1-1.2,1A4.7,4.7,0,0,1,110.3,255.1Zm-.2-6.1a1.5,1.5,0,0,0-1,.4,3.3,3.3,0,0,0-.5,1.2h2.8v-.2a1.2,1.2,0,0,0-.4-1A1.3,1.3,0,0,0,110.1,249Zm8.8,5.2a2.5,2.5,0,0,1-2,.9,2.4,2.4,0,0,1-1.8-.6,2.8,2.8,0,0,1-.7-2.1v-4.8h2v4.8a1,1,0,0,0,1.1,1.1,1.3,1.3,0,0,0,1.3-.7v-5.2h2V255H119Zm7.6-4.8h-.7c-.8,0-1.3.2-1.5.7V255h-2v-7.4h1.9v.9a1.8,1.8,0,0,1,1.6-1.1h.6Zm4.2,5.7a3.4,3.4,0,0,1-2.6-1,3.3,3.3,0,0,1-1-2.6v-.2a4.2,4.2,0,0,1,.4-2,3.3,3.3,0,0,1,1.2-1.4,3.5,3.5,0,0,1,1.8-.5,3.3,3.3,0,0,1,2.4,1,3.7,3.7,0,0,1,.9,2.7v.8h-4.7a1.7,1.7,0,0,0,.5,1.2,2,2,0,0,0,1.3.4,2.2,2.2,0,0,0,1.8-.8l.9,1.1a2.9,2.9,0,0,1-1.2,1A4.3,4.3,0,0,1,130.7,255.1Zm-.2-6.1a1.8,1.8,0,0,0-1,.4,3.4,3.4,0,0,0-.4,1.2h2.7v-.2a1.5,1.5,0,0,0-.3-1A1.5,1.5,0,0,0,130.5,249Zm8.4,3.9a.5.5,0,0,0-.3-.5,2.8,2.8,0,0,0-1.2-.4c-1.7-.4-2.6-1.1-2.6-2.2a1.9,1.9,0,0,1,.8-1.7,3.5,3.5,0,0,1,2.1-.7,3.9,3.9,0,0,1,2.3.7,2,2,0,0,1,.8,1.7h-1.9a1.1,1.1,0,0,0-.3-.7c-.2-.2-.5-.2-.9-.2s-.6,0-.7.2a.6.6,0,0,0-.3.6.5.5,0,0,0,.3.5l1,.3a4,4,0,0,1,1.3.4,2.1,2.1,0,0,1,1.6,2,1.9,1.9,0,0,1-.9,1.6,3.9,3.9,0,0,1-2.3.6,4.1,4.1,0,0,1-1.6-.3,2,2,0,0,1-1.1-.9,2.1,2.1,0,0,1-.5-1.3h1.9a.9.9,0,0,0,.4.8,1.7,1.7,0,0,0,1,.3c.4,0,.7,0,.8-.2A.6.6,0,0,0,138.9,252.9Zm15.1-2.7a6.7,6.7,0,0,1-.5,2.6,4.2,4.2,0,0,1-1.5,1.7,4.4,4.4,0,0,1-2.3.6,4.3,4.3,0,0,1-2.2-.6,4.2,4.2,0,0,1-1.5-1.7,6.6,6.6,0,0,1-.5-2.5v-.5a6.7,6.7,0,0,1,.5-2.6,4.2,4.2,0,0,1,1.5-1.7,4.3,4.3,0,0,1,2.2-.6,3.8,3.8,0,0,1,2.2.6,3.1,3.1,0,0,1,1.5,1.7,5.3,5.3,0,0,1,.6,2.6Zm-2.1-.4a3.8,3.8,0,0,0-.6-2.4,1.6,1.6,0,0,0-1.6-.8,1.7,1.7,0,0,0-1.6.8,4.6,4.6,0,0,0-.5,2.3v.5a5.1,5.1,0,0,0,.5,2.4,1.7,1.7,0,0,0,1.6.8,1.6,1.6,0,0,0,1.6-.8,3.7,3.7,0,0,0,.6-2.3Zm4,5.2v-6h-1.1v-1.4h1.1v-.7a2.5,2.5,0,0,1,.7-1.9,3.2,3.2,0,0,1,2-.7l1,.2V246H159a1,1,0,0,0-1.1,1.1v.6h1.5V249h-1.5v6Zm5,0v-6h-1.1v-1.4h1.1v-.7a2.9,2.9,0,0,1,.7-1.9,3.2,3.2,0,0,1,2-.7l1.1.2V246H164a1,1,0,0,0-1.1,1.1v.6h1.5V249h-1.5v6Zm8.7-5.6h-.7c-.8,0-1.3.2-1.5.7V255h-2v-7.4h1.9v.9a2,2,0,0,1,1.7-1.1h.6Zm4.2,5.7a3.4,3.4,0,0,1-2.6-1,3.3,3.3,0,0,1-1.1-2.6v-.2a4.2,4.2,0,0,1,.5-2,3.3,3.3,0,0,1,1.2-1.4,3.5,3.5,0,0,1,1.8-.5,3.3,3.3,0,0,1,2.4,1,3.7,3.7,0,0,1,.9,2.7v.8h-4.7a1.7,1.7,0,0,0,.5,1.2,2,2,0,0,0,1.3.4,1.9,1.9,0,0,0,1.7-.8l1,1.1a2.9,2.9,0,0,1-1.2,1A4.7,4.7,0,0,1,173.8,255.1Zm-.2-6.1a1.8,1.8,0,0,0-1,.4,2.1,2.1,0,0,0-.4,1.2h2.7v-.2a1.5,1.5,0,0,0-.3-1A1.8,1.8,0,0,0,173.6,249Zm8.4,3.9a.5.5,0,0,0-.3-.5,3.4,3.4,0,0,0-1.2-.4c-1.7-.4-2.6-1.1-2.6-2.2a1.9,1.9,0,0,1,.8-1.7,3.3,3.3,0,0,1,2.1-.7,3.9,3.9,0,0,1,2.3.7,2,2,0,0,1,.8,1.7H182a1.1,1.1,0,0,0-.3-.7c-.2-.2-.5-.2-.9-.2s-.6,0-.7.2a.6.6,0,0,0-.3.6.5.5,0,0,0,.3.5l1,.3a4,4,0,0,1,1.3.4,2.1,2.1,0,0,1,1.6,2,1.9,1.9,0,0,1-.9,1.6,3.9,3.9,0,0,1-2.3.6,4.1,4.1,0,0,1-1.6-.3,2.7,2.7,0,0,1-1.2-.9,2.8,2.8,0,0,1-.4-1.3h1.9a.9.9,0,0,0,.4.8,1.5,1.5,0,0,0,1,.3c.4,0,.6,0,.8-.2A.6.6,0,0,0,182,252.9Z" transform="translate(-54 0)"/><rect class="cls-3" x="19.6" y="308.8" width="169.7" height="13.05" rx="4"/><rect class="cls-3" x="240.2" y="308.8" width="79.5" height="13.05" rx="4"/><rect class="cls-4" x="19.6" y="334.9" width="169.7" height="13.05" rx="4"/><rect class="cls-5" x="19.6" y="362.2" width="169.7" height="13.05" rx="4"/><rect class="cls-4" x="240.2" y="334.9" width="79.5" height="13.05" rx="4"/><rect class="cls-5" x="240.2" y="362.2" width="79.5" height="13.05" rx="4"/><rect class="cls-6" x="189.7" y="242.9" width="44.3" height="17.95"/><rect class="cls-7" x="233.5" y="242.3" width="45.4" height="19"/><rect class="cls-6" x="278.5" y="242.5" width="55.9" height="17.94"/><path class="cls-8" d="M248.1,255.6v-6h1.7a2.3,2.3,0,0,1,1.4.4,1.8,1.8,0,0,1,.9,1,2.3,2.3,0,0,1,.4,1.4v.4a2.4,2.4,0,0,1-.4,1.5,2.8,2.8,0,0,1-.9,1,3.2,3.2,0,0,1-1.4.3Zm.8-5.3V255h.9a1.8,1.8,0,0,0,1.4-.6,2.5,2.5,0,0,0,.5-1.6v-.4a2.3,2.3,0,0,0-.5-1.5,1.7,1.7,0,0,0-1.4-.6Zm6.5,5.4a2,2,0,0,1-1.5-.6,2.1,2.1,0,0,1-.5-1.6h0a2.2,2.2,0,0,1,.2-1.2,1.9,1.9,0,0,1,.7-.8,1.7,1.7,0,0,1,1-.3,1.8,1.8,0,0,1,1.4.6,2.4,2.4,0,0,1,.4,1.6v.3h-3a1.8,1.8,0,0,0,.4,1.1,1.1,1.1,0,0,0,.9.4l.7-.2a1,1,0,0,0,.5-.4l.5.3A2,2,0,0,1,255.4,255.7Zm-.1-4a1.1,1.1,0,0,0-.8.3,3,3,0,0,0-.4,1h2.3a1.2,1.2,0,0,0-.3-.9A1.1,1.1,0,0,0,255.3,251.7Zm4.9.1h-.4a1,1,0,0,0-1,.7v3.1H258v-4.4h.8v.5a1.1,1.1,0,0,1,1-.6h.4Zm3.5-.1a1.8,1.8,0,0,1,1.4-.6c.9,0,1.4.5,1.4,1.6v2.9h-.8v-2.9c0-.3,0-.6-.2-.7a.8.8,0,0,0-.7-.3l-.6.2-.5.5v3.2H263v-6.3h.7Zm5.8,4a2,2,0,0,1-1.5-.6,2.1,2.1,0,0,1-.6-1.6h0a2.1,2.1,0,0,1,.3-1.2,1.9,1.9,0,0,1,.7-.8,1.7,1.7,0,0,1,1-.3,1.5,1.5,0,0,1,1.3.6,1.9,1.9,0,0,1,.5,1.6v.3h-3a1.4,1.4,0,0,0,.4,1.1,1,1,0,0,0,.9.4l.7-.2a1,1,0,0,0,.5-.4l.5.3A2,2,0,0,1,269.5,255.7Zm-.1-4a1.1,1.1,0,0,0-.8.3,3,3,0,0,0-.4,1h2.3a1.9,1.9,0,0,0-.4-.9A.8.8,0,0,0,269.4,251.7Zm5.5,3.5a1.9,1.9,0,0,1-1.3.5,1.2,1.2,0,0,1-1.1-.4,1.6,1.6,0,0,1-.4-1.2v-2.9h.8V254c0,.7.2,1.1.8,1.1a1,1,0,0,0,1.1-.7v-3.2h.8v4.4h-.7Zm4-3.4h-.3a1.1,1.1,0,0,0-1.1.7v3.1h-.7v-4.4h.7v.5a1.3,1.3,0,0,1,1.1-.6h.3Zm2.5,3.9a2,2,0,0,1-1.5-.6,2.1,2.1,0,0,1-.5-1.6h0a2.2,2.2,0,0,1,.2-1.2,1.9,1.9,0,0,1,.7-.8,1.9,1.9,0,0,1,1-.3,1.8,1.8,0,0,1,1.4.6,2.4,2.4,0,0,1,.4,1.6v.3h-3a1.8,1.8,0,0,0,.4,1.1,1.2,1.2,0,0,0,.9.4l.7-.2a1,1,0,0,0,.5-.4l.5.3A2,2,0,0,1,281.4,255.7Zm-.1-4a1.1,1.1,0,0,0-.8.3,3,3,0,0,0-.4,1h2.3a1.2,1.2,0,0,0-.3-.9A1.1,1.1,0,0,0,281.3,251.7Z" transform="translate(-54 0)"/><path class="cls-9" d="M299.4,255.6h-4v-.7l2-2.1.6-.8a2.5,2.5,0,0,0,.2-.7.9.9,0,0,0-.3-.7.6.6,0,0,0-.6-.3,1.1,1.1,0,0,0-.8.3,2,2,0,0,0-.2.9h-1a1.6,1.6,0,0,1,.2-1,1.6,1.6,0,0,1,.7-.7,2,2,0,0,1,1.1-.3,2.2,2.2,0,0,1,1.4.5,1.7,1.7,0,0,1,.5,1.2,1.6,1.6,0,0,1-.3.9,3.5,3.5,0,0,1-.8,1.2l-1.5,1.5h2.8Zm4.2-2.1h.7v.8h-.7v1.3h-1v-1.3H300v-.6l2.6-4.1h1.1Zm-2.6,0h1.6V251h-.1Zm5-1.9a2.1,2.1,0,0,1,1.3-.5c.9,0,1.4.5,1.4,1.6v2.9h-1v-2.9c0-.3,0-.5-.2-.6l-.6-.2a1.1,1.1,0,0,0-.9.5v3.2h-1v-6.3h1Z" transform="translate(-54 0)"/><path class="cls-8" d="M338.5,253.3a3.5,3.5,0,0,1-1.5-.7,1.4,1.4,0,0,1-.5-1,1.4,1.4,0,0,1,.6-1.2,2.5,2.5,0,0,1,1.5-.5,2.3,2.3,0,0,1,1.1.3,1.3,1.3,0,0,1,.7.6,1.6,1.6,0,0,1,.3.9h-.8a.9.9,0,0,0-.4-.8,1.2,1.2,0,0,0-.9-.3l-1,.2a1,1,0,0,0,0,1.4l1.1.4,1.2.5.6.6a1.9,1.9,0,0,1,.2.8,1.1,1.1,0,0,1-.6,1.1,2.5,2.5,0,0,1-1.5.5,2.7,2.7,0,0,1-1.2-.3,1.6,1.6,0,0,1-.8-.6,1.6,1.6,0,0,1-.3-.9h.8a1.2,1.2,0,0,0,.4.8,2,2,0,0,0,1.1.3,1.6,1.6,0,0,0,1-.2,1,1,0,0,0,0-1.4A3.8,3.8,0,0,0,338.5,253.3Zm4.9,2.8a1.7,1.7,0,0,1-1.4-.6,2.1,2.1,0,0,1-.6-1.6h0a3.7,3.7,0,0,1,.2-1.2,1.5,1.5,0,0,1,.8-.8,1.9,1.9,0,0,1,2.3.2,2.9,2.9,0,0,1,.5,1.7v.3h-3a2,2,0,0,0,.3,1.1,1.8,1.8,0,0,0,1,.4l.7-.2.5-.4.4.3A1.8,1.8,0,0,1,343.4,256.1Zm-.1-4a.9.9,0,0,0-.7.3,1.5,1.5,0,0,0-.4,1h2.2a1.2,1.2,0,0,0-.3-.9A1,1,0,0,0,343.3,252.1Zm3.5-.6v.5a1.5,1.5,0,0,1,1.3-.5c.7,0,1.1.2,1.3.7s.3-.4.6-.5a1.1,1.1,0,0,1,.8-.2,1.3,1.3,0,0,1,1.5,1.5v3h-.7v-2.9a1,1,0,0,0-.3-.8l-.7-.2a.9.9,0,0,0-.7.3.7.7,0,0,0-.3.6v3h-.8v-2.9c0-.7-.3-1-.9-1a1.1,1.1,0,0,0-1.1.6V256h-.7v-4.5Zm9.7,2.1V256h-.8v-6h2.2a2.1,2.1,0,0,1,1.5.5,1.6,1.6,0,0,1,.6,1.3,2,2,0,0,1-.5,1.4,2.5,2.5,0,0,1-1.6.4Zm0-.6h1.4a1.5,1.5,0,0,0,1-.3,1.2,1.2,0,0,0,.3-.9,1.1,1.1,0,0,0-.3-.8,2.3,2.3,0,0,0-1-.4h-1.4Zm7.1,3a2,2,0,0,1-.1-.5,1.8,1.8,0,0,1-1.3.6,1.4,1.4,0,0,1-1.5-1.3,1.3,1.3,0,0,1,.5-1.1,2.4,2.4,0,0,1,1.5-.4h.8v-.4a.9.9,0,0,0-.3-.6c-.1-.2-.4-.2-.7-.2s-.5,0-.6.2a.5.5,0,0,0-.3.5h-.8a1.9,1.9,0,0,1,.2-.7l.7-.5h.9a2.1,2.1,0,0,1,1.2.3,1.5,1.5,0,0,1,.4,1.1V255a2,2,0,0,0,.2.9h-.8Zm-1.3-.6a.8.8,0,0,0,.7-.2l.5-.4v-1h-.6c-.9,0-1.4.3-1.4.9a.8.8,0,0,0,.2.5A.7.7,0,0,0,362.3,255.4Zm5.7-.6a.6.6,0,0,0-.2-.5l-.8-.3a1.2,1.2,0,0,1-.9-.3.7.7,0,0,1-.5-.4.8.8,0,0,1-.2-.5,1.4,1.4,0,0,1,.5-1,2.6,2.6,0,0,1,2.4,0,1.4,1.4,0,0,1,.5,1.1H368a.7.7,0,0,0-.3-.6l-.6-.2a.8.8,0,0,0-.7.2.5.5,0,0,0-.2.4c0,.2,0,.4.2.5l.8.2.9.3.5.5a.8.8,0,0,1,.2.6,1.1,1.1,0,0,1-.5.9,1.6,1.6,0,0,1-1.2.4l-1-.2a1.5,1.5,0,0,1-.6-.5,1.2,1.2,0,0,1-.2-.8h.7a.6.6,0,0,0,.3.6,1.1,1.1,0,0,0,.8.3l.7-.2C368,255.2,368,255,368,254.8Zm4.4,0c0-.2-.1-.3-.2-.5l-.9-.3a1.6,1.6,0,0,1-.9-.3,1,1,0,0,1-.5-.4.7.7,0,0,1-.1-.5,1.3,1.3,0,0,1,.4-1,2.5,2.5,0,0,1,2.4,0,1.2,1.2,0,0,1,.5,1.1h-.8c0-.3,0-.4-.2-.6l-.7-.2c-.3,0-.5,0-.6.2s-.3.2-.3.4a.8.8,0,0,0,.2.5l.8.2,1,.3.5.5a.8.8,0,0,1,.2.6,1.1,1.1,0,0,1-.5.9,1.8,1.8,0,0,1-1.3.4l-.9-.2a1.8,1.8,0,0,1-.7-.5,2.4,2.4,0,0,1-.2-.8h.8a.6.6,0,0,0,.3.6.9.9,0,0,0,.7.3l.7-.2A.5.5,0,0,0,372.4,254.8Zm3.6,1.3a2,2,0,0,1-1.5-.6,2.1,2.1,0,0,1-.5-1.6h0a2.2,2.2,0,0,1,.2-1.2c.2-.4.4-.7.7-.8a1.9,1.9,0,0,1,1-.3,1.7,1.7,0,0,1,1.4.5,2.9,2.9,0,0,1,.4,1.7v.3h-3a2.1,2.1,0,0,0,.4,1.1,1.8,1.8,0,0,0,.9.4l.7-.2.5-.4.5.3A1.9,1.9,0,0,1,376,256.1Zm-.1-4a1.1,1.1,0,0,0-.8.3,2.3,2.3,0,0,0-.4,1H377a1.2,1.2,0,0,0-.3-.9A1.1,1.1,0,0,0,375.9,252.1Zm.4-2.4h.9l-1.1,1.2h-.6Zm4.2,6.4a2,2,0,0,1-1.5-.6,2.1,2.1,0,0,1-.6-1.6h0a2.1,2.1,0,0,1,.3-1.2c.2-.4.4-.7.7-.8a1.7,1.7,0,0,1,1-.3,1.4,1.4,0,0,1,1.3.5,2.3,2.3,0,0,1,.5,1.7v.3h-3a1.5,1.5,0,0,0,.4,1.1,1.3,1.3,0,0,0,.9.4l.7-.2.5-.4.5.3A2,2,0,0,1,380.5,256.1Zm-.1-4a1.1,1.1,0,0,0-.8.3,2.3,2.3,0,0,0-.4,1h2.3a1.9,1.9,0,0,0-.4-.9A.8.8,0,0,0,380.4,252.1Z" transform="translate(-54 0)"/><rect class="cls-2" x="0.5" y="0.5" width="345.4" height="201.87" rx="9.5"/><path d="M91.6,46l2.5,7.3L96.7,46h2.7V56H97.3V53.3l.2-4.7L94.8,56H93.4l-2.7-7.4.2,4.7V56h-2V46Zm12.9,10.1a3.6,3.6,0,0,1-2.7-1,3.3,3.3,0,0,1-1-2.6v-.2a4.2,4.2,0,0,1,.4-2,2.9,2.9,0,0,1,1.3-1.4,3.5,3.5,0,0,1,1.8-.5,3.3,3.3,0,0,1,2.4,1,4.1,4.1,0,0,1,.8,2.7v.8h-4.7a2.3,2.3,0,0,0,.6,1.2,1.6,1.6,0,0,0,1.2.4,1.9,1.9,0,0,0,1.8-.8l1,1.1a4,4,0,0,1-1.2,1A4.7,4.7,0,0,1,104.5,56.1Zm-.2-6.1a1.5,1.5,0,0,0-1,.4,3.3,3.3,0,0,0-.5,1.2h2.8v-.2a1.2,1.2,0,0,0-.4-1A1.3,1.3,0,0,0,104.3,50Zm6.5,6h-2V48.6h2Zm-2.1-9.3a1.9,1.9,0,0,1,.2-.8,1.4,1.4,0,0,1,.9-.3,1,1,0,0,1,1.1,1.1.9.9,0,0,1-.3.7,1.1,1.1,0,0,1-.8.3,1,1,0,0,1-.8-.3A.9.9,0,0,1,108.7,46.7Zm5.8,9.3h-2V45.5h2Zm3.7,0h-2V45.5h2Zm5.1.1a3.6,3.6,0,0,1-2.7-1,3.3,3.3,0,0,1-1-2.6v-.2a4.2,4.2,0,0,1,.4-2,3.3,3.3,0,0,1,1.2-1.4,4.1,4.1,0,0,1,1.9-.5,3.3,3.3,0,0,1,2.4,1,4.1,4.1,0,0,1,.8,2.7v.8h-4.7a2.3,2.3,0,0,0,.6,1.2,1.6,1.6,0,0,0,1.2.4,1.9,1.9,0,0,0,1.8-.8l1,1.1a4,4,0,0,1-1.2,1A4.7,4.7,0,0,1,123.3,56.1Zm-.2-6.1a1.5,1.5,0,0,0-1,.4,3.3,3.3,0,0,0-.5,1.2h2.8v-.2a1.2,1.2,0,0,0-.4-1A1.3,1.3,0,0,0,123.1,50Zm8.8,5.2a2.5,2.5,0,0,1-2,.9,2.4,2.4,0,0,1-1.8-.6,2.8,2.8,0,0,1-.7-2.1V48.6h2v4.8a1,1,0,0,0,1.1,1.1,1.3,1.3,0,0,0,1.3-.7V48.6h2V56H132Zm7.6-4.8h-.7c-.8,0-1.3.2-1.5.7V56h-2V48.6h1.9v.9a1.8,1.8,0,0,1,1.6-1.1h.6Zm4.2,5.7a3.4,3.4,0,0,1-2.6-1,3.3,3.3,0,0,1-1-2.6v-.2a4.2,4.2,0,0,1,.4-2,3.3,3.3,0,0,1,1.2-1.4,3.5,3.5,0,0,1,1.8-.5,3.3,3.3,0,0,1,2.4,1,3.7,3.7,0,0,1,.9,2.7v.8h-4.7a1.7,1.7,0,0,0,.5,1.2,2,2,0,0,0,1.3.4,2.2,2.2,0,0,0,1.8-.8l.9,1.1a4,4,0,0,1-1.2,1A4.3,4.3,0,0,1,143.7,56.1Zm-.2-6.1a1.8,1.8,0,0,0-1,.4,3.4,3.4,0,0,0-.4,1.2h2.7v-.2a1.5,1.5,0,0,0-.3-1A1.5,1.5,0,0,0,143.5,50Zm8.4,3.9a.5.5,0,0,0-.3-.5,2.8,2.8,0,0,0-1.2-.4c-1.7-.4-2.6-1.1-2.6-2.2a1.9,1.9,0,0,1,.8-1.7,3.5,3.5,0,0,1,2.1-.7,3.9,3.9,0,0,1,2.3.7,1.9,1.9,0,0,1,.8,1.7h-1.9a1.1,1.1,0,0,0-.3-.7c-.2-.2-.5-.2-.9-.2s-.6,0-.7.2a.6.6,0,0,0-.3.6.5.5,0,0,0,.3.5l1,.3a4,4,0,0,1,1.3.4,2.1,2.1,0,0,1,1.6,2,1.9,1.9,0,0,1-.9,1.6,3.9,3.9,0,0,1-2.3.6,4.1,4.1,0,0,1-1.6-.3,2,2,0,0,1-1.1-.9,2.1,2.1,0,0,1-.5-1.3h1.9a.9.9,0,0,0,.4.8,1.7,1.7,0,0,0,1,.3c.4,0,.7,0,.8-.2A.6.6,0,0,0,151.9,53.9Zm6.9,2.1V46h3.1a4.6,4.6,0,0,1,2.3.6,4.4,4.4,0,0,1,1.6,1.7,5.1,5.1,0,0,1,.6,2.5v.4a4.9,4.9,0,0,1-.6,2.5,3.7,3.7,0,0,1-1.6,1.7,4.6,4.6,0,0,1-2.3.6Zm2-8.3v6.6h1a2.4,2.4,0,0,0,1.9-.7,3.9,3.9,0,0,0,.6-2.3v-.5a3.7,3.7,0,0,0-.6-2.3,1.9,1.9,0,0,0-1.8-.8Zm12.3,5.7a1,1,0,0,0-.4-.9l-1.5-.7a5.4,5.4,0,0,1-1.7-.7,2.8,2.8,0,0,1-1.7-2.4,2.5,2.5,0,0,1,.5-1.5,3.4,3.4,0,0,1,1.3-1,5.4,5.4,0,0,1,1.9-.3,4.1,4.1,0,0,1,1.9.4,2.4,2.4,0,0,1,1.3,1.1,2.8,2.8,0,0,1,.5,1.6h-2.1a1.4,1.4,0,0,0-.4-1.1,1.6,1.6,0,0,0-1.2-.4,2.1,2.1,0,0,0-1.2.3,1,1,0,0,0-.4.9.8.8,0,0,0,.5.8l1.4.6a7.8,7.8,0,0,1,2.6,1.3,2.8,2.8,0,0,1,.8,2,2.6,2.6,0,0,1-1,2,4.5,4.5,0,0,1-2.7.7,5.2,5.2,0,0,1-2.1-.4,4,4,0,0,1-1.4-1.1,3.4,3.4,0,0,1-.5-1.7h2.1c0,1.1.6,1.6,1.9,1.6a2.1,2.1,0,0,0,1.2-.3A.9.9,0,0,0,173.1,53.4Zm5.5-.9V56h-2V46h3.9a3.8,3.8,0,0,1,1.9.4,3,3,0,0,1,1.3,1.2,3.1,3.1,0,0,1-.5,4,4.1,4.1,0,0,1-2.8.9Zm0-1.7h1.9a1.6,1.6,0,0,0,1.2-.4,1.2,1.2,0,0,0,.4-1.1,1.4,1.4,0,0,0-1.6-1.6h-1.9Zm12.2,2.6a1,1,0,0,0-.4-.9l-1.5-.7a5.4,5.4,0,0,1-1.7-.7,2.8,2.8,0,0,1-1.7-2.4,2.5,2.5,0,0,1,.5-1.5,3.4,3.4,0,0,1,1.3-1,5.8,5.8,0,0,1,1.9-.3,3.8,3.8,0,0,1,1.9.4,2.4,2.4,0,0,1,1.3,1.1,2.8,2.8,0,0,1,.5,1.6h-2.1a1.4,1.4,0,0,0-.4-1.1,1.6,1.6,0,0,0-1.2-.4,2.1,2.1,0,0,0-1.2.3,1,1,0,0,0-.4.9.8.8,0,0,0,.5.8l1.4.6a7.8,7.8,0,0,1,2.6,1.3,2.8,2.8,0,0,1,.8,2,2.6,2.6,0,0,1-1,2,4.2,4.2,0,0,1-2.6.7,4.6,4.6,0,0,1-2.1-.4,3.7,3.7,0,0,1-1.5-1.1,3.4,3.4,0,0,1-.5-1.7h2.1c0,1.1.6,1.6,2,1.6a2,2,0,0,0,1.1-.3A.9.9,0,0,0,190.8,53.4Z" transform="translate(-54 0)"/><path d="M110.6,133.9v-6.7h1.9a3.3,3.3,0,0,1,1.5.3,3.2,3.2,0,0,1,1.1,1.2,6.2,6.2,0,0,1,.4,1.6v.4a4.3,4.3,0,0,1-.4,1.7,2.3,2.3,0,0,1-1.1,1.1,2.7,2.7,0,0,1-1.6.4Zm.9-6v5.3h.9a1.9,1.9,0,0,0,1.6-.7,2.4,2.4,0,0,0,.6-1.8v-.4a2.8,2.8,0,0,0-.6-1.8,1.8,1.8,0,0,0-1.5-.6Zm7.2,6.1a2,2,0,0,1-1.6-.7,2.5,2.5,0,0,1-.7-1.8h0a3.2,3.2,0,0,1,.3-1.4,3.4,3.4,0,0,1,.8-.9,2.3,2.3,0,0,1,1.1-.3,2.1,2.1,0,0,1,1.6.6,3.6,3.6,0,0,1,.5,1.9v.3h-3.4a2.1,2.1,0,0,0,.4,1.2,1.6,1.6,0,0,0,1.1.5l.8-.2a1.2,1.2,0,0,0,.5-.5l.5.4A2,2,0,0,1,118.7,134Zm-.1-4.5a.9.9,0,0,0-.8.4,1.6,1.6,0,0,0-.5,1h2.5a1.3,1.3,0,0,0-.3-1A1,1,0,0,0,118.6,129.5Zm5.5.2h-.4a1.1,1.1,0,0,0-1.1.7v3.6h-.9v-5h.8v.6a1.3,1.3,0,0,1,1.2-.7h.4Zm.3,3.8c0-.2,0-.3.1-.4l.4-.2.4.2c.1.1.1.2.1.4a.4.4,0,0,1-.1.3l-.4.2-.4-.2A.4.4,0,0,1,124.4,133.5Zm5.7-4a1.5,1.5,0,0,1,1.4-.7c1.1,0,1.6.6,1.6,1.8v3.3h-.8v-3.3a1,1,0,0,0-.3-.8.8.8,0,0,0-.7-.3l-.8.2-.4.6v3.6h-.9v-7.1h.9Zm6.4,4.5a2.2,2.2,0,0,1-1.7-.7,2.4,2.4,0,0,1-.6-1.8h0a3.2,3.2,0,0,1,.3-1.4,2.3,2.3,0,0,1,.8-.9,2,2,0,0,1,1.1-.3,1.8,1.8,0,0,1,1.5.6,2.9,2.9,0,0,1,.6,1.9v.3h-3.4a1.6,1.6,0,0,0,.4,1.2,1.4,1.4,0,0,0,1.1.5l.7-.2.6-.5.5.4A2.1,2.1,0,0,1,136.5,134Zm-.1-4.5a1.2,1.2,0,0,0-.9.4,1.5,1.5,0,0,0-.4,1h2.5a1.3,1.3,0,0,0-.3-1A1.1,1.1,0,0,0,136.4,129.5Zm6.2,3.9a2,2,0,0,1-1.5.6,1.5,1.5,0,0,1-1.2-.5,1.7,1.7,0,0,1-.5-1.3v-3.3h.9v3.2q0,1.2.9,1.2a1.3,1.3,0,0,0,1.3-.8v-3.6h.9v5h-.8Zm4.5-3.7h-.4a1.1,1.1,0,0,0-1.1.7v3.6h-.9v-5h.8v.6a1.3,1.3,0,0,1,1.2-.7h.4Zm2.8,4.3a2.2,2.2,0,0,1-1.7-.7,2.4,2.4,0,0,1-.6-1.8h0a3.2,3.2,0,0,1,.3-1.4,2.3,2.3,0,0,1,.8-.9,2,2,0,0,1,1.1-.3,1.9,1.9,0,0,1,1.5.6,2.9,2.9,0,0,1,.6,1.9v.3h-3.4a1.6,1.6,0,0,0,.4,1.2,1.4,1.4,0,0,0,1,.5l.8-.2.6-.5.5.4A2.1,2.1,0,0,1,149.9,134Zm-.1-4.5a1.1,1.1,0,0,0-.9.4,1.5,1.5,0,0,0-.4,1H151a1.1,1.1,0,0,0-.4-1A.8.8,0,0,0,149.8,129.5Z" transform="translate(-54 0)"/><path d="M172.8,132.1a1.4,1.4,0,0,0-.2-.6l-.8-.4a2,2,0,0,1-.8-.4l-.7-.4-.4-.6a1.9,1.9,0,0,1-.1-.8,1.7,1.7,0,0,1,.5-1.2,1.6,1.6,0,0,1,1.3-.6v-1h.8v1a1.9,1.9,0,0,1,1.2.7,1.7,1.7,0,0,1,.5,1.4h-1.3a1.1,1.1,0,0,0-.3-.8.6.6,0,0,0-.6-.3.9.9,0,0,0-.6.3.8.8,0,0,0-.2.5.8.8,0,0,0,.2.6,1.5,1.5,0,0,0,.8.4l.9.5.6.4a2.1,2.1,0,0,1,.4.6,1.5,1.5,0,0,1,.1.7,1.9,1.9,0,0,1-.5,1.3,2.6,2.6,0,0,1-1.3.6v.9h-.8V134a2.1,2.1,0,0,1-1.4-.7,2,2,0,0,1-.6-1.5h1.4a1.5,1.5,0,0,0,.2.8,1.1,1.1,0,0,0,.8.3c.3,0,.5,0,.6-.2A.6.6,0,0,0,172.8,132.1Zm6.2-.7h.7v1H179v1.5h-1.4v-1.5h-2.7v-.8l2.8-4.4H179Zm-2.9,0h1.5V129h0Zm4.6-.8.4-3.4h3.7v1.1h-2.6l-.2,1.4,1-.2a2,2,0,0,1,1.5.6,2.1,2.1,0,0,1,.6,1.6,2.1,2.1,0,0,1-.3,1.2,2,2,0,0,1-.8.8,2.4,2.4,0,0,1-1.2.3l-1.2-.2a2.7,2.7,0,0,1-.8-.7,2,2,0,0,1-.3-1.1h1.3a.9.9,0,0,0,.3.7l.7.2a.9.9,0,0,0,.7-.3,2,2,0,0,0,.2-.9,1.2,1.2,0,0,0-.3-.9c-.1-.2-.4-.3-.8-.3l-.7.2h-.2Zm5.6,5-.7-.4.2-.3a2,2,0,0,0,.3-1.1v-1h1.1v.9a3.6,3.6,0,0,1-.2,1A2.2,2.2,0,0,1,186.3,135.6Zm5.9-4.2h.8v1h-.8v1.5h-1.3v-1.5h-2.8v-.8l2.8-4.4h1.4Zm-2.8,0h1.5V129h-.1Zm7.9-4.3v1.1h-.1a2.5,2.5,0,0,0-1.5.5,1.7,1.7,0,0,0-.6,1.2,1.9,1.9,0,0,1,1.3-.5,1.7,1.7,0,0,1,1.4.6,2.3,2.3,0,0,1,.5,1.7,5,5,0,0,1-.2,1.2,2.4,2.4,0,0,1-.9.8,2,2,0,0,1-1.1.3,2.9,2.9,0,0,1-1.8-.7,3.2,3.2,0,0,1-.6-2v-.5a3.8,3.8,0,0,1,.4-1.9,3,3,0,0,1,1.2-1.3,2.7,2.7,0,0,1,1.8-.5Zm-1.3,3.4h-.6a1,1,0,0,0-.4.5v.4a1.5,1.5,0,0,0,.3,1,.8.8,0,0,0,.7.4.8.8,0,0,0,.7-.3,1.4,1.4,0,0,0,.3-.9,1.2,1.2,0,0,0-.3-.9A.8.8,0,0,0,196,130.5Zm7.7.6a3.6,3.6,0,0,1-.6,2.2,2.4,2.4,0,0,1-1.7.7,2.1,2.1,0,0,1-1.7-.7,3.3,3.3,0,0,1-.6-2.1v-1.3a3.3,3.3,0,0,1,.6-2.1,2.4,2.4,0,0,1,3.4,0,3.3,3.3,0,0,1,.6,2.1Zm-1.4-1.3a2.4,2.4,0,0,0-.2-1.3.8.8,0,0,0-1.4,0,1.8,1.8,0,0,0-.2,1.1v1.7a2.2,2.2,0,0,0,.2,1.2.8.8,0,0,0,1.4,0c.2-.2.2-.6.2-1.1Zm2.4,3.4c0-.2.1-.3.2-.5l.6-.2.5.2a.6.6,0,0,1,.2.5c0,.3,0,.4-.2.6l-.5.2-.6-.2A1.1,1.1,0,0,1,204.7,133.2Zm5.8-2a2.1,2.1,0,0,1-1.2.5,2,2,0,0,1-1.5-.6,2.9,2.9,0,0,1-.5-1.7,2.7,2.7,0,0,1,.3-1.2,2,2,0,0,1,.8-.8,2.1,2.1,0,0,1,1.2-.3,2,2,0,0,1,1.1.3,1.4,1.4,0,0,1,.8,1,3.2,3.2,0,0,1,.3,1.4v.5a3.5,3.5,0,0,1-.8,2.6,3.4,3.4,0,0,1-2.4,1.1h-.3v-1.1h.3A1.7,1.7,0,0,0,210.5,131.2Zm-.9-.5.5-.2a.8.8,0,0,0,.4-.4v-.5a1.8,1.8,0,0,0-.3-1.1.8.8,0,0,0-.7-.4c-.2,0-.4.2-.6.4a1.6,1.6,0,0,0-.3.9,1.2,1.2,0,0,0,.3.9A.7.7,0,0,0,209.6,130.7Zm7.2.7h.7v1h-.7v1.5h-1.4v-1.5h-2.7v-.8l2.8-4.4h1.4Zm-2.9,0h1.5V129h-.1Z" transform="translate(-54 0)"/><circle class="cls-10" cx="46.3" cy="129.6" r="3.6"/><path d="M172.8,152.3a.8.8,0,0,0-.2-.6l-.8-.4-.8-.4-.7-.4-.4-.6a1.9,1.9,0,0,1-.1-.8,2.1,2.1,0,0,1,.5-1.3,2.6,2.6,0,0,1,1.3-.6v-.9h.8v1a1.7,1.7,0,0,1,1.2.6,2,2,0,0,1,.5,1.5h-1.3a1,1,0,0,0-.3-.8.6.6,0,0,0-.6-.3l-.6.2a1.4,1.4,0,0,0-.2.6,1.1,1.1,0,0,0,.2.6,2.9,2.9,0,0,0,.8.4l.9.4.6.5a.9.9,0,0,1,.4.6,1.5,1.5,0,0,1,.1.7,2.1,2.1,0,0,1-.5,1.3,1.9,1.9,0,0,1-1.3.5v1h-.8v-.9a2.1,2.1,0,0,1-1.4-.7,2,2,0,0,1-.6-1.5h1.4a1.9,1.9,0,0,0,.2.8,1.1,1.1,0,0,0,.8.3l.6-.2A.9.9,0,0,0,172.8,152.3Zm3.6-2.2h.7l.8-.2a1.3,1.3,0,0,0,0-1.4l-.7-.2-.7.2a1.1,1.1,0,0,0-.2.6h-1.4a1.7,1.7,0,0,1,.3-1,1.6,1.6,0,0,1,.8-.6,2.3,2.3,0,0,1,1.1-.3,2.6,2.6,0,0,1,1.7.5,2,2,0,0,1,.6,1.5,2.4,2.4,0,0,1-.2.8,1.6,1.6,0,0,1-.8.6,1.5,1.5,0,0,1,.9.6,3,3,0,0,1,.2,1,1.7,1.7,0,0,1-.6,1.4,2.6,2.6,0,0,1-1.8.6,2.3,2.3,0,0,1-1.6-.6,1.7,1.7,0,0,1-.6-1.4h1.3a.6.6,0,0,0,.3.6,1,1,0,0,0,1.4,0,.7.7,0,0,0,.3-.6c0-.7-.4-1-1.1-1h-.7Zm8.5-1a1.6,1.6,0,0,1-.3.9,2.2,2.2,0,0,1-.7.6l.8.6a1.9,1.9,0,0,1-.3,2.4,2.4,2.4,0,0,1-1.7.6,2.1,2.1,0,0,1-1.6-.6,1.7,1.7,0,0,1-.7-1.4,1.7,1.7,0,0,1,.3-1l.8-.6-.7-.6a2.9,2.9,0,0,1-.2-.9,1.8,1.8,0,0,1,.6-1.4,2.5,2.5,0,0,1,1.5-.5,2.5,2.5,0,0,1,1.6.5A1.8,1.8,0,0,1,184.9,149.1Zm-1.2,3a.9.9,0,0,0-.3-.7,1.3,1.3,0,0,0-1.4,0,1.3,1.3,0,0,0,0,1.4.9.9,0,0,0,.7.3,1,1,0,0,0,1-1Zm-.2-2.9c0-.3,0-.5-.2-.6a.6.6,0,0,0-.6-.3l-.6.2a1.4,1.4,0,0,0-.2.7.8.8,0,0,0,.2.6l.6.3a.6.6,0,0,0,.6-.3C183.5,149.7,183.5,149.5,183.5,149.2Zm2.5,4.2a.5.5,0,0,1,.3-.5l.5-.2.5.2a.6.6,0,0,1,0,1c-.1.2-.3.2-.5.2s-.4,0-.5-.2A.5.5,0,0,1,186,153.4Zm3.1,2.4-.7-.4.2-.3a2.6,2.6,0,0,0,.3-1.1v-1.1H190v1a2.2,2.2,0,0,1-.3,1A4.7,4.7,0,0,1,189.1,155.8Zm5.9-4.3h.7v1.1H195v1.5h-1.4v-1.5h-2.7v-.8l2.8-4.5H195Zm-2.9,0h1.5v-2.2Zm8.9-.2a3.3,3.3,0,0,1-.6,2.1,2,2,0,0,1-1.7.8,2.1,2.1,0,0,1-1.7-.8,2.8,2.8,0,0,1-.6-2v-1.3a3.3,3.3,0,0,1,.6-2.1,2.2,2.2,0,0,1,3.4,0,2.8,2.8,0,0,1,.6,2Zm-1.4-1.4a2.2,2.2,0,0,0-.2-1.2.7.7,0,0,0-.7-.4.8.8,0,0,0-.7.4,2.7,2.7,0,0,0-.2,1.1v1.7a2.2,2.2,0,0,0,.2,1.2.8.8,0,0,0,1.4,0,2,2,0,0,0,.2-1.2Zm6.8,1.4a4.1,4.1,0,0,1-.5,2.1,2.1,2.1,0,0,1-1.7.8,2,2,0,0,1-1.7-.8,2.8,2.8,0,0,1-.6-2v-1.3a3.3,3.3,0,0,1,.6-2.1,2,2,0,0,1,1.7-.8,1.8,1.8,0,0,1,1.6.8,2.8,2.8,0,0,1,.6,2Zm-1.3-1.4a3.7,3.7,0,0,0-.2-1.2.8.8,0,0,0-.7-.4c-.4,0-.6.1-.7.4a1.6,1.6,0,0,0-.3,1.1v1.7a3.7,3.7,0,0,0,.2,1.2.8.8,0,0,0,.8.4.8.8,0,0,0,.7-.4,3.3,3.3,0,0,0,.2-1.2Zm2.4,3.5c0-.2,0-.4.2-.5l.5-.2.6.2a.7.7,0,0,1,0,1,.7.7,0,0,1-.6.2c-.2,0-.4,0-.5-.2S207.5,153.6,207.5,153.4Zm7.2.7h-4.6v-.9l2.2-2.4.7-.8a2.5,2.5,0,0,0,.2-.7.8.8,0,0,0-.3-.7.6.6,0,0,0-.6-.3.9.9,0,0,0-.7.3,1.1,1.1,0,0,0-.3.8H210a2.3,2.3,0,0,1,.3-1.1,2,2,0,0,1,.8-.8l1.2-.3a2.3,2.3,0,0,1,1.6.5,1.8,1.8,0,0,1,.6,1.4,4.3,4.3,0,0,1-.2,1.1l-.9,1.2-1.6,1.6h2.9Zm4.1,0h-1.3v-5.2l-1.6.5v-1.1l2.8-1h.1Z" transform="translate(-54 0)"/><path d="M114.8,154.1h-4.4v-.6l2.3-2.6.7-1a1.9,1.9,0,0,0,.2-.8,1.1,1.1,0,0,0-.3-.8,1,1,0,0,0-.9-.4,1.8,1.8,0,0,0-1,.4,1.5,1.5,0,0,0-.3,1h-.9a2,2,0,0,1,.6-1.5,2.3,2.3,0,0,1,1.6-.6,2.1,2.1,0,0,1,1.5.5,1.8,1.8,0,0,1,.6,1.3,4.1,4.1,0,0,1-1.3,2.4l-1.8,2h3.4Zm4.5-2.3h.9v.7h-.9v1.6h-.9v-1.6h-3V152l3-4.7h.9Zm-3,0h2.1v-3.1Zm5.7-2.1a1.5,1.5,0,0,1,1.4-.7c1.1,0,1.6.6,1.6,1.8v3.3h-.8v-3.3c0-.4-.1-.7-.3-.8a.8.8,0,0,0-.7-.3l-.8.2-.4.6v3.6h-.9V147h.9Z" transform="translate(-54 0)"/><circle class="cls-11" cx="46.3" cy="149.8" r="3.6"/><path d="M172.8,172.5a.8.8,0,0,0-.2-.6l-.8-.5-.8-.3-.7-.5-.4-.5a2.2,2.2,0,0,1-.1-.8,1.9,1.9,0,0,1,.5-1.3,2.6,2.6,0,0,1,1.3-.6v-1h.8v1a1.9,1.9,0,0,1,1.2.7,2,2,0,0,1,.5,1.5h-1.3c0-.4-.1-.7-.3-.8a.6.6,0,0,0-.6-.3.7.7,0,0,0-.6.2.8.8,0,0,0-.2.6,1.4,1.4,0,0,0,.2.6l.8.4.9.4.6.5a1,1,0,0,1,.4.5,1.9,1.9,0,0,1,.1.8,1.7,1.7,0,0,1-.5,1.2,1.6,1.6,0,0,1-1.3.6v.9h-.8v-.9a2.2,2.2,0,0,1-2-2.2h1.4a2,2,0,0,0,.2.9,1.1,1.1,0,0,0,.8.3l.6-.2A.9.9,0,0,0,172.8,172.5Zm3.6-2.2h.7a1.1,1.1,0,0,0,.8-.3,1.4,1.4,0,0,0,.2-.7,1.4,1.4,0,0,0-.2-.6l-.7-.2-.7.2a.8.8,0,0,0-.2.5h-1.4a1.6,1.6,0,0,1,.3-.9,2.7,2.7,0,0,1,.8-.7l1.1-.2a2.6,2.6,0,0,1,1.7.5,1.8,1.8,0,0,1,.6,1.4,2.9,2.9,0,0,1-.2.9l-.8.6a1.5,1.5,0,0,1,.9.6,3,3,0,0,1,.2,1,2,2,0,0,1-.6,1.4,2.6,2.6,0,0,1-1.8.5,2.2,2.2,0,0,1-1.6-.5,1.8,1.8,0,0,1-.6-1.4h1.3a.7.7,0,0,0,.3.6,1,1,0,0,0,1.7-.7,1,1,0,0,0-1.1-1h-.7Zm7.3,3.9h-1.3v-5.1l-1.6.5v-1.1l2.8-1h.1Zm2.3-.6a.5.5,0,0,1,.3-.5c.1-.2.3-.2.5-.2s.4,0,.5.2a.6.6,0,0,1,0,1l-.5.2-.5-.2A.5.5,0,0,1,186,173.6Zm4-3.3h.8a1,1,0,0,0,1-1,.9.9,0,0,0-.3-.6l-.7-.2-.6.2a.5.5,0,0,0-.3.5h-1.3a1.6,1.6,0,0,1,.3-.9,1.9,1.9,0,0,1,.8-.7l1.1-.2a2.9,2.9,0,0,1,1.7.5,1.8,1.8,0,0,1,.6,1.4,1.6,1.6,0,0,1-.3.9l-.7.6a1.2,1.2,0,0,1,.8.6,1.7,1.7,0,0,1,.3,1,1.7,1.7,0,0,1-.7,1.4,2.3,2.3,0,0,1-1.7.5,2.1,2.1,0,0,1-1.6-.5,1.6,1.6,0,0,1-.7-1.4h1.4a.9.9,0,0,0,.9.9,1,1,0,0,0,.8-.3.9.9,0,0,0,.3-.7,1,1,0,0,0-1.1-1H190Zm8.7,1.2a3.3,3.3,0,0,1-.6,2.1,2.4,2.4,0,0,1-3.4,0,3.3,3.3,0,0,1-.6-2.1v-1.2a3.4,3.4,0,0,1,.6-2.2,2.4,2.4,0,0,1,3.4,0,3.3,3.3,0,0,1,.6,2.1Zm-1.4-1.4c0-.6,0-1-.2-1.2a.8.8,0,0,0-.7-.4.7.7,0,0,0-.7.4c-.2.2-.2.6-.2,1.1v1.6a2.4,2.4,0,0,0,.2,1.3.8.8,0,0,0,1.4,0,2.2,2.2,0,0,0,.2-1.2Zm6.8,1.4a3.3,3.3,0,0,1-.6,2.1,1.8,1.8,0,0,1-1.7.7,1.8,1.8,0,0,1-1.6-.7,3.3,3.3,0,0,1-.6-2.1v-1.2a4.2,4.2,0,0,1,.5-2.2,2.1,2.1,0,0,1,1.7-.7,1.9,1.9,0,0,1,1.7.7,3.3,3.3,0,0,1,.6,2.1Zm-1.3-1.4a2.9,2.9,0,0,0-.2-1.2.8.8,0,0,0-.8-.4.8.8,0,0,0-.7.4,2.7,2.7,0,0,0-.2,1.1v1.6a3.9,3.9,0,0,0,.2,1.3,1,1,0,0,0,.7.4,1,1,0,0,0,.8-.4,3.7,3.7,0,0,0,.2-1.2Zm2.4,3.5c0-.2,0-.4.2-.5s.3-.2.5-.2a.7.7,0,0,1,.6.2.7.7,0,0,1,0,1l-.6.2-.5-.2C205.2,174,205.2,173.8,205.2,173.6Zm2.8-2.7.4-3.4h3.8v1.1h-2.7l-.2,1.5a1.9,1.9,0,0,1,1-.3,1.8,1.8,0,0,1,1.5.6,2.4,2.4,0,0,1,.6,1.7,2,2,0,0,1-.3,1.1,1.8,1.8,0,0,1-.8.9l-1.2.2a2,2,0,0,1-1.1-.2,2.2,2.2,0,0,1-.9-.7,1.9,1.9,0,0,1-.3-1h1.3l.3.6a.9.9,0,0,0,.7.3,1,1,0,0,0,.7-.4c.2-.2.2-.5.2-.9s0-.7-.2-.9a1.1,1.1,0,0,0-.8-.3,1,1,0,0,0-.8.3h-.1Zm9.6-1.6a1.5,1.5,0,0,1-.2.9l-.7.6a1.6,1.6,0,0,1,.8.6,1.9,1.9,0,0,1-.3,2.4,2.3,2.3,0,0,1-1.7.5,2.5,2.5,0,0,1-1.7-.5,1.9,1.9,0,0,1-.3-2.4,1.6,1.6,0,0,1,.8-.6l-.7-.6a1.5,1.5,0,0,1-.2-.9,2.2,2.2,0,0,1,.5-1.4,2.8,2.8,0,0,1,3.2,0A2,2,0,0,1,217.6,169.3Zm-1.2,3a.8.8,0,0,0-.2-.7,1,1,0,0,0-1.4,0,1.3,1.3,0,0,0,0,1.4,1,1,0,0,0,1.4,0A.8.8,0,0,0,216.4,172.3Zm-.1-2.9a1.4,1.4,0,0,0-.2-.7l-.6-.2-.6.2a1.4,1.4,0,0,0-.2.7,1.4,1.4,0,0,0,.2.6.7.7,0,0,0,.6.2c.3,0,.5,0,.6-.2A1.4,1.4,0,0,0,216.3,169.4Z" transform="translate(-54 0)"/><path d="M110.8,171a4.5,4.5,0,0,1-1.7-.8,1.7,1.7,0,0,1-.5-1.2,1.6,1.6,0,0,1,.6-1.3,2.3,2.3,0,0,1,1.7-.5,2.2,2.2,0,0,1,2.1,1,1.7,1.7,0,0,1,.3,1h-.9a1.8,1.8,0,0,0-.4-1,2.2,2.2,0,0,0-2.2,0,1,1,0,0,0-.3.8.9.9,0,0,0,.3.7l1.2.5,1.3.5a1.2,1.2,0,0,1,.7.7,1.2,1.2,0,0,1,.3.9,1.5,1.5,0,0,1-.7,1.3,2.9,2.9,0,0,1-1.7.5,3.1,3.1,0,0,1-1.3-.3,2.2,2.2,0,0,1-.9-.7,2,2,0,0,1-.3-1.1h.9a1.1,1.1,0,0,0,.4,1,2.1,2.1,0,0,0,1.2.4,1.6,1.6,0,0,0,1.1-.3,1,1,0,0,0,0-1.6A3.5,3.5,0,0,0,110.8,171Zm5.6,3.1a2.1,2.1,0,0,1-1.7-.7,2.4,2.4,0,0,1-.6-1.8h0a5.9,5.9,0,0,1,.2-1.4,3.4,3.4,0,0,1,.8-.9l1.2-.3a2,2,0,0,1,1.5.6,3.6,3.6,0,0,1,.5,1.9v.3h-3.4a1.7,1.7,0,0,0,.5,1.2,1.2,1.2,0,0,0,1,.5l.8-.2.5-.5.6.4A2.2,2.2,0,0,1,116.4,174.1Zm-.1-4.5a1,1,0,0,0-.9.4,1.5,1.5,0,0,0-.4,1h2.5a1.9,1.9,0,0,0-.4-1A.9.9,0,0,0,116.3,169.6Zm3.8-.6v.5a2,2,0,0,1,1.5-.6,1.6,1.6,0,0,1,1.5.8l.6-.6,1-.2c1.1,0,1.6.6,1.6,1.7V174h-.8v-3.3a1,1,0,0,0-.3-.8c-.1-.2-.4-.3-.8-.3a1,1,0,0,0-1.1,1.1V174h-.9v-3.3a1,1,0,0,0-1.1-1.1,1.2,1.2,0,0,0-1.1.7V174h-.9v-5Zm10.9,2.4V174h-.9v-6.7h2.5a2.6,2.6,0,0,1,1.8.5,2,2,0,0,1,.6,1.5,1.8,1.8,0,0,1-.6,1.5,2.4,2.4,0,0,1-1.8.6Zm0-.8h1.6a1.6,1.6,0,0,0,1.1-.3,1.2,1.2,0,0,0,.4-1,1,1,0,0,0-.4-.9,1.2,1.2,0,0,0-1-.4H131Zm8,3.4a4.3,4.3,0,0,1-.1-.5,2,2,0,0,1-1.4.6,1.6,1.6,0,0,1-1.2-.4,1.3,1.3,0,0,1-.5-1.1,1.4,1.4,0,0,1,.6-1.2,2.7,2.7,0,0,1,1.7-.4h.8v-.4a.8.8,0,0,0-.3-.7,1,1,0,0,0-.8-.3l-.7.2c-.2.2-.4.4-.4.6h-.8a1.4,1.4,0,0,1,.2-.7,1.6,1.6,0,0,1,.8-.6l1-.2a1.7,1.7,0,0,1,1.3.4,1.3,1.3,0,0,1,.5,1.2v2.3a2.7,2.7,0,0,0,.2,1.1H139Zm-1.4-.7a1.4,1.4,0,0,0,1.3-.7v-1h-.7c-1,0-1.6.3-1.6.9a.6.6,0,0,0,.3.6A.8.8,0,0,0,137.6,173.3Zm6.4-.6a.7.7,0,0,0-.3-.6l-.9-.3-1-.3-.6-.5a1.6,1.6,0,0,1,.4-1.7,1.8,1.8,0,0,1,1.3-.4,2.1,2.1,0,0,1,1.4.4,1.7,1.7,0,0,1,.5,1.2H144a.6.6,0,0,0-.3-.6,1.1,1.1,0,0,0-.8-.3l-.7.2a.6.6,0,0,0,0,1l.8.3,1.1.3.6.5a1.4,1.4,0,0,1,.2.7,1.3,1.3,0,0,1-.6,1.1,2,2,0,0,1-1.4.4l-1-.2-.8-.6a2.4,2.4,0,0,1-.2-.8h.8c.1.2.2.5.4.6a1.1,1.1,0,0,0,.8.3,1.5,1.5,0,0,0,.8-.2A.5.5,0,0,0,144,172.7Zm4.9,0a.7.7,0,0,0-.3-.6l-.9-.3-1-.3-.6-.5a1.4,1.4,0,0,1-.2-.6,1.4,1.4,0,0,1,.6-1.1,1.8,1.8,0,0,1,1.3-.4,2.1,2.1,0,0,1,1.4.4,1.7,1.7,0,0,1,.5,1.2h-.8a.6.6,0,0,0-.3-.6,1.1,1.1,0,0,0-.8-.3l-.7.2a.5.5,0,0,0-.3.5.8.8,0,0,0,.2.5l.9.3,1.1.3.6.5a1.4,1.4,0,0,1,.2.7,1.3,1.3,0,0,1-.6,1.1,2,2,0,0,1-1.4.4l-1-.2-.8-.6a2.4,2.4,0,0,1-.2-.8h.8a.8.8,0,0,0,.4.6,1.1,1.1,0,0,0,.8.3l.8-.2A.5.5,0,0,0,148.9,172.7Zm4.1,1.4a2.1,2.1,0,0,1-1.7-.7,2.4,2.4,0,0,1-.6-1.8h0a5.9,5.9,0,0,1,.2-1.4,3.4,3.4,0,0,1,.8-.9l1.2-.3a2,2,0,0,1,1.5.6,3.6,3.6,0,0,1,.5,1.9v.3h-3.4a2.1,2.1,0,0,0,.4,1.2,1.6,1.6,0,0,0,1.1.5l.8-.2.5-.5.5.4A1.9,1.9,0,0,1,153,174.1Zm-.1-4.5a1,1,0,0,0-.9.4,1.6,1.6,0,0,0-.5,1h2.6a1.9,1.9,0,0,0-.4-1A.9.9,0,0,0,152.9,169.6Zm.4-2.7h1l-1.2,1.3h-.7Zm4.7,7.2a2.2,2.2,0,0,1-1.7-.7,2.4,2.4,0,0,1-.6-1.8h0a3.2,3.2,0,0,1,.3-1.4,2.3,2.3,0,0,1,.8-.9,2.2,2.2,0,0,1,2.6.3,2.9,2.9,0,0,1,.5,1.9v.3h-3.3a1.6,1.6,0,0,0,.4,1.2,1.4,1.4,0,0,0,1,.5l.8-.2.6-.5.5.4A2.1,2.1,0,0,1,158,174.1Zm-.1-4.5a1,1,0,0,0-.9.4,1.5,1.5,0,0,0-.4,1h2.5a1.3,1.3,0,0,0-.4-1A.9.9,0,0,0,157.9,169.6Z" transform="translate(-54 0)"/><circle class="cls-12" cx="46.3" cy="170" r="3.6"/><path d="M306.2,103.7h-2.1v5.8h-1.2v-5.8h-2.1v-.9h5.4Zm-.4,3.3a3.2,3.2,0,0,1,.3-1.4,1.8,1.8,0,0,1,.8-.9,2.1,2.1,0,0,1,1.2-.3,2.2,2.2,0,0,1,1.7.7,2.4,2.4,0,0,1,.6,1.7v.3a5.9,5.9,0,0,1-.2,1.3,2,2,0,0,1-.9.9,2.1,2.1,0,0,1-1.2.3,2.1,2.1,0,0,1-1.7-.7,2.9,2.9,0,0,1-.6-1.9Zm1.1.1a2.1,2.1,0,0,0,.3,1.2,1.2,1.2,0,0,0,1.8,0,2.5,2.5,0,0,0,.3-1.3,2.3,2.3,0,0,0-.3-1.3,1.3,1.3,0,0,0-.9-.4,1,1,0,0,0-.9.4A2.6,2.6,0,0,0,306.9,107.1Zm5.9-3.8v1.2h.9v.8h-.9v2.8c0,.2,0,.4.1.4l.4.2h.4v.9H313c-.9,0-1.3-.5-1.3-1.4v-2.9h-.8v-.8h.8v-1.2Zm4.7,6.2a1.3,1.3,0,0,0-.1-.5,1.6,1.6,0,0,1-1.3.6,1.5,1.5,0,0,1-1.7-1.5,1.4,1.4,0,0,1,.6-1.2,2.9,2.9,0,0,1,1.7-.5h.7v-.3a1.1,1.1,0,0,0-.2-.6.8.8,0,0,0-.7-.2c-.3,0-.5,0-.6.2s-.3.2-.3.4h-1.1a1.1,1.1,0,0,1,.3-.7,1.3,1.3,0,0,1,.7-.6l1.1-.2a2.1,2.1,0,0,1,1.4.4,1.9,1.9,0,0,1,.5,1.3v2.2a2.7,2.7,0,0,0,.2,1.1h-1.2Zm-1.2-.8.6-.2a1,1,0,0,0,.5-.4v-.9h-.6a1.5,1.5,0,0,0-1,.2.6.6,0,0,0-.3.6.8.8,0,0,0,.2.5Zm4.6.8h-1.1v-7.1h1.1Zm1.9-1.2.5.2a.6.6,0,0,1,0,.9l-.5.2-.5-.2a.6.6,0,0,1,0-.9Zm0-3.9c.2,0,.4,0,.5.2a.5.5,0,0,1,.2.4c0,.2-.1.3-.2.5h-1c-.1-.2-.2-.3-.2-.5a.5.5,0,0,1,.2-.4C322.4,104.4,322.6,104.4,322.8,104.4Z" transform="translate(-54 0)"/><path class="cls-7" d="M280.9,125.5a1.2,1.2,0,0,0-.3-.9l-1.2-.6-1.2-.6a2.5,2.5,0,0,1-1.5-2.3,2.4,2.4,0,0,1,.6-1.7,3.1,3.1,0,0,1,1.8-.9v-1.3h1v1.4a2.6,2.6,0,0,1,1.7.9,3.2,3.2,0,0,1,.6,2h-1.5a1.6,1.6,0,0,0-.4-1.2,1.1,1.1,0,0,0-1-.5,1.2,1.2,0,0,0-.9.3,1.5,1.5,0,0,0-.4,1,1.8,1.8,0,0,0,.4.9l1.1.6,1.3.6.8.5a3.5,3.5,0,0,1,.5.8,3,3,0,0,1,.2,1,2.4,2.4,0,0,1-.7,1.7,2.5,2.5,0,0,1-1.8.8v1.3h-1V128a3.1,3.1,0,0,1-2-.9,3.2,3.2,0,0,1-.7-2h1.6a1.5,1.5,0,0,0,.4,1.2,1.4,1.4,0,0,0,1.1.5,1.2,1.2,0,0,0,1.1-.4A1,1,0,0,0,280.9,125.5Zm7.1,2.4h-1.5v-7.4l-2.3.8V120l3.6-1.4h.2Zm7.4,0h-1.5v-7.4l-2.3.8V120l3.6-1.4h.2Zm3.7-4.6.5-4.6h4.9V120h-3.6l-.3,2.2a3.3,3.3,0,0,1,1.5-.4,2.5,2.5,0,0,1,2,.9,3.3,3.3,0,0,1,.7,2.3,2.7,2.7,0,0,1-.8,2.2,2.8,2.8,0,0,1-2.2.9,2.9,2.9,0,0,1-2.1-.8,2.2,2.2,0,0,1-.9-1.9h1.5a1.4,1.4,0,0,0,.5,1.1,1.5,1.5,0,0,0,1,.3,1.2,1.2,0,0,0,1.1-.5,2,2,0,0,0,.4-1.4,1.8,1.8,0,0,0-.4-1.3,1.7,1.7,0,0,0-1.3-.5h-.7l-.6.4Zm7.3,6.7-.9-.5a3.7,3.7,0,0,0,.6-1c0-.3.1-.6.1-.9v-1.2h1.4v1.1a2.5,2.5,0,0,1-.4,1.4A3.1,3.1,0,0,1,306.4,130Zm6.7-2.1h-1.5v-7.4l-2.3.8V120l3.6-1.4h.2Zm8.1-9.3v1.3H321a2.8,2.8,0,0,0-2.1.7,3.1,3.1,0,0,0-.9,2,2.2,2.2,0,0,1,1.9-.8,2.3,2.3,0,0,1,1.9.9,3.8,3.8,0,0,1-.1,4.5,2.9,2.9,0,0,1-2.2.9,2.7,2.7,0,0,1-2.2-1.1,4,4,0,0,1-.9-2.7v-.5a5.6,5.6,0,0,1,1.2-3.8,4.3,4.3,0,0,1,3.4-1.4Zm-1.7,4.4a1.6,1.6,0,0,0-.9.3,1.6,1.6,0,0,0-.6.8v.5a2.7,2.7,0,0,0,.4,1.6,1.3,1.3,0,0,0,1.1.6,1.4,1.4,0,0,0,1.1-.5,2.1,2.1,0,0,0,.4-1.4,1.8,1.8,0,0,0-.4-1.3A1.3,1.3,0,0,0,319.5,123Zm8.5,4.9h-1.6v-7.4l-2.3.8V120l3.7-1.4h.2Zm4.2-1.6.7.2a.9.9,0,0,1,.3.7.9.9,0,0,1-.3.6l-.7.2-.6-.2a.7.7,0,0,1-.2-.6.8.8,0,0,1,.2-.7Zm8.8-6.8-3.7,8.4h-1.6l3.7-8h-4.8v-1.2H341Zm3,3.1h1a1.4,1.4,0,0,0,1.1-.4,1.2,1.2,0,0,0,.4-1,1.8,1.8,0,0,0-.3-1.1,1.6,1.6,0,0,0-1.1-.3,1.7,1.7,0,0,0-1,.3,1.3,1.3,0,0,0-.4,1h-1.6a2.8,2.8,0,0,1,.4-1.3,2.4,2.4,0,0,1,1.1-.9,2.4,2.4,0,0,1,1.5-.4,3.6,3.6,0,0,1,2.2.7,2.6,2.6,0,0,1,.8,2,2.1,2.1,0,0,1-.4,1.1,2.8,2.8,0,0,1-1,.9,1.8,1.8,0,0,1,1.1.8,2,2,0,0,1,.4,1.3,2.6,2.6,0,0,1-.8,2,3.6,3.6,0,0,1-2.3.8,3.3,3.3,0,0,1-2.2-.8,2.1,2.1,0,0,1-.8-1.9h1.5a1.1,1.1,0,0,0,.4,1,1.5,1.5,0,0,0,1.1.4,1.4,1.4,0,0,0,1.6-1.5,1.4,1.4,0,0,0-.5-1.1,1.7,1.7,0,0,0-1.3-.4H344Z" transform="translate(-54 0)"/><circle class="cls-1" cx="258.9" cy="115.9" r="63.5"/><g class="cls-13"><path class="cls-11" d="M312.3,129V12.1L185.4,129Z" transform="translate(-54 0)"/><path class="cls-10" d="M414.4,115.9H210.9v5.4l19,84.8L374,212.6Z" transform="translate(-54 0)"/></g><line class="cls-14" x1="258.3" y1="40" x2="258.3" y2="64.9"/><line class="cls-14" x1="183" y1="115.3" x2="334.9" y2="115.3"/><rect class="cls-6" x="33.5" y="82.7" width="44.3" height="17.95"/><rect class="cls-7" x="77.3" y="82.2" width="45.4" height="19"/><rect class="cls-6" x="122.2" y="82.5" width="52.9" height="17.94"/><path class="cls-8" d="M91.9,95.5v-6h1.7a3.2,3.2,0,0,1,1.4.3,2.2,2.2,0,0,1,.9,1,3.3,3.3,0,0,1,.4,1.5v.3a2.4,2.4,0,0,1-.4,1.5,1.8,1.8,0,0,1-.9,1,3.3,3.3,0,0,1-1.4.4Zm.8-5.4v4.7h.8a1.9,1.9,0,0,0,1.5-.6,2.3,2.3,0,0,0,.5-1.6v-.3a2.5,2.5,0,0,0-.5-1.6,1.7,1.7,0,0,0-1.4-.6Zm6.5,5.4a2.5,2.5,0,0,1-1.5-.5,2.3,2.3,0,0,1-.6-1.6v-.2a2.7,2.7,0,0,1,.3-1.2,2.7,2.7,0,0,1,.7-.8,1.7,1.7,0,0,1,1-.3,1.5,1.5,0,0,1,1.3.6,2.1,2.1,0,0,1,.5,1.6v.3h-3a1.4,1.4,0,0,0,.4,1.1,1.1,1.1,0,0,0,.9.4h.7l.5-.5.5.4A1.9,1.9,0,0,1,99.2,95.5Zm-.1-4a1.2,1.2,0,0,0-.8.4,1.9,1.9,0,0,0-.4.9h2.3l-.3-.9A1.2,1.2,0,0,0,99.1,91.5Zm4.9.2h-.4a1,1,0,0,0-1,.6v3.2h-.8V91h.8v.5a1.1,1.1,0,0,1,1-.6h.4Zm3.5-.2a1.8,1.8,0,0,1,1.4-.6c.9,0,1.4.5,1.4,1.6v3h-.8v-3a1.2,1.2,0,0,0-.2-.7c-.1-.2-.4-.2-.7-.2a.7.7,0,0,0-.6.2,1.2,1.2,0,0,0-.5.5v3.2h-.7V89.1h.7Zm5.8,4a2.5,2.5,0,0,1-1.5-.5,2.3,2.3,0,0,1-.6-1.6v-.2a2.7,2.7,0,0,1,.3-1.2,2.7,2.7,0,0,1,.7-.8,1.7,1.7,0,0,1,1-.3,1.5,1.5,0,0,1,1.3.6,2.1,2.1,0,0,1,.5,1.6v.3h-3a1.4,1.4,0,0,0,.4,1.1,1,1,0,0,0,.9.4h.7c.2-.2.4-.3.5-.5l.5.4A1.9,1.9,0,0,1,113.3,95.5Zm-.1-4a1.2,1.2,0,0,0-.8.4,1.9,1.9,0,0,0-.4.9h2.3a1.9,1.9,0,0,0-.4-.9A.8.8,0,0,0,113.2,91.5Zm5.5,3.5a1.5,1.5,0,0,1-1.3.5,1.2,1.2,0,0,1-1.1-.4,1.5,1.5,0,0,1-.4-1.2V91h.8v2.9c0,.7.2,1,.8,1a1,1,0,0,0,1.1-.7V91h.8v4.5h-.7Zm4-3.3h-.4a1,1,0,0,0-1,.6v3.2h-.7V91h.7v.5a1.3,1.3,0,0,1,1.1-.6h.3Zm2.5,3.8a2.5,2.5,0,0,1-1.5-.5,2.2,2.2,0,0,1-.5-1.6v-.2a2.5,2.5,0,0,1,.2-1.2,2.7,2.7,0,0,1,.7-.8,1.7,1.7,0,0,1,1-.3,1.8,1.8,0,0,1,1.4.6,2.5,2.5,0,0,1,.4,1.6v.3h-3a1.8,1.8,0,0,0,.4,1.1,1.1,1.1,0,0,0,.9.4h.7l.5-.5.5.4A1.9,1.9,0,0,1,125.2,95.5Zm-.1-4a1.2,1.2,0,0,0-.8.4,1.9,1.9,0,0,0-.4.9h2.3a1.9,1.9,0,0,0-.3-.9A1.2,1.2,0,0,0,125.1,91.5Z" transform="translate(-54 0)"/><path class="cls-9" d="M143.2,95.5h-4v-.7l2-2.2.6-.8a1.4,1.4,0,0,0,.2-.7.9.9,0,0,0-.3-.7.8.8,0,0,0-.6-.2,1.1,1.1,0,0,0-.8.3c-.2.2-.2.4-.2.8h-1a1.6,1.6,0,0,1,.2-1,2.3,2.3,0,0,1,.7-.7l1.1-.2a2.1,2.1,0,0,1,1.4.4A1.7,1.7,0,0,1,143,91a2.2,2.2,0,0,1-.3,1,3.3,3.3,0,0,1-.8,1.1l-1.5,1.6h2.8Zm4.2-2.2h.7v.8h-.7v1.4h-1V94.1h-2.6v-.6l2.6-4h1.1Zm-2.6,0h1.6V90.8h-.1Zm5-1.8a1.8,1.8,0,0,1,1.3-.6c.9,0,1.4.6,1.4,1.6v3h-1V92.6a1.4,1.4,0,0,0-.2-.7.8.8,0,0,0-.6-.2,1,1,0,0,0-.9.6v3.2h-1V89.1h1Z" transform="translate(-54 0)"/><path class="cls-8" d="M182.1,92.3a3.5,3.5,0,0,1-1.5-.7,1.3,1.3,0,0,1-.4-1,1.3,1.3,0,0,1,.5-1.2,2.5,2.5,0,0,1,1.5-.5,2,2,0,0,1,1.1.3,1.1,1.1,0,0,1,.7.6,1.6,1.6,0,0,1,.3.9h-.8a1.1,1.1,0,0,0-.3-.8,1.7,1.7,0,0,0-1-.3l-.9.2a1,1,0,0,0,0,1.4l1,.4,1.2.5a1.7,1.7,0,0,1,.6.6,1.1,1.1,0,0,1,.2.8,1.3,1.3,0,0,1-.5,1.1,2.5,2.5,0,0,1-1.6.5,2,2,0,0,1-1.1-.3,1,1,0,0,1-.8-.6,1.6,1.6,0,0,1-.3-.9h.8a.9.9,0,0,0,.4.8,1.5,1.5,0,0,0,1,.3l1-.2a1,1,0,0,0,0-1.4A3.8,3.8,0,0,0,182.1,92.3Zm5,2.8a2,2,0,0,1-1.5-.6,2.1,2.1,0,0,1-.6-1.6h0a2.1,2.1,0,0,1,.3-1.2c.2-.4.4-.7.7-.8a1.7,1.7,0,0,1,1-.3,1.4,1.4,0,0,1,1.3.5,2.3,2.3,0,0,1,.5,1.7V93h-3a1.5,1.5,0,0,0,.4,1.1,1.3,1.3,0,0,0,.9.4l.7-.2.5-.4.5.3A2,2,0,0,1,187.1,95.1Zm-.1-4a1.1,1.1,0,0,0-.8.3,2.3,2.3,0,0,0-.4,1h2.3a1.9,1.9,0,0,0-.4-.9A.8.8,0,0,0,187,91.1Zm3.4-.6V91a1.7,1.7,0,0,1,1.4-.5,1.1,1.1,0,0,1,1.2.7l.6-.5a1.3,1.3,0,0,1,.9-.2q1.4,0,1.5,1.5v3h-.8V92.1a1.5,1.5,0,0,0-.2-.8l-.8-.2a1.1,1.1,0,0,0-.7.3.7.7,0,0,0-.3.6v3h-.8V92.1c0-.7-.3-1-.9-1a.9.9,0,0,0-1,.6V95h-.8V90.5Zm9.7,2.1V95h-.8V89h2.2a2.5,2.5,0,0,1,1.6.5,1.5,1.5,0,0,1,.5,1.3,1.6,1.6,0,0,1-.5,1.4,2.5,2.5,0,0,1-1.6.4Zm0-.6h1.4a1.3,1.3,0,0,0,1-.3,1.3,1.3,0,0,0,.4-.9,1.2,1.2,0,0,0-.4-.8,1.9,1.9,0,0,0-.9-.4h-1.5Zm7.1,3a1.3,1.3,0,0,0-.1-.5,1.4,1.4,0,0,1-1.2.6,1.4,1.4,0,0,1-1.1-.4,1.1,1.1,0,0,1-.4-.9c0-.5.1-.9.5-1.1a2.1,2.1,0,0,1,1.5-.4h.7v-.4a1.4,1.4,0,0,0-.2-.6l-.7-.2a.8.8,0,0,0-.7.2.5.5,0,0,0-.3.5h-.8a1.1,1.1,0,0,1,.3-.7c.1-.2.4-.3.6-.5h.9a2.1,2.1,0,0,1,1.2.3,1.6,1.6,0,0,1,.5,1.1V94a2.2,2.2,0,0,0,.1.9h-.8Zm-1.2-.6a1.1,1.1,0,0,0,.7-.2c.2-.1.3-.3.4-.4v-1h-.6c-.9,0-1.4.3-1.4.9a.5.5,0,0,0,.3.5C205.5,94.4,205.7,94.4,206,94.4Zm5.7-.6c0-.2-.1-.3-.3-.5l-.8-.3a1.2,1.2,0,0,1-.9-.3,1,1,0,0,1-.5-.4.8.8,0,0,1-.2-.5,1.4,1.4,0,0,1,.5-1,2.5,2.5,0,0,1,2.4,0,1.4,1.4,0,0,1,.5,1h-.8c0-.2-.1-.3-.2-.5l-.7-.2a.8.8,0,0,0-.7.2.5.5,0,0,0-.2.4.8.8,0,0,0,.2.5l.8.2.9.3a1,1,0,0,1,.6.5c.1.1.1.3.1.6a1,1,0,0,1-.4.9,2,2,0,0,1-1.3.4l-.9-.2a1.8,1.8,0,0,1-.7-.5,2.4,2.4,0,0,1-.2-.8h.8a.6.6,0,0,0,.3.6.9.9,0,0,0,.7.3l.7-.2A.5.5,0,0,0,211.7,93.8Zm4.3,0c0-.2-.1-.3-.2-.5L215,93a1.2,1.2,0,0,1-.9-.3.7.7,0,0,1-.5-.4.8.8,0,0,1-.2-.5,1.4,1.4,0,0,1,.5-1,2,2,0,0,1,1.1-.3,2.3,2.3,0,0,1,1.3.3,1.4,1.4,0,0,1,.5,1H216c0-.2-.1-.3-.3-.5l-.7-.2a.7.7,0,0,0-.6.2c-.2.1-.2.2-.2.4s0,.4.2.5l.8.2.9.3a1.2,1.2,0,0,1,.5.5.8.8,0,0,1,.2.6,1.1,1.1,0,0,1-.5.9,1.6,1.6,0,0,1-1.2.4l-1-.2a1,1,0,0,1-.6-.5,1.3,1.3,0,0,1-.3-.8h.8a.6.6,0,0,0,.3.6,1.1,1.1,0,0,0,.8.3l.7-.2A.8.8,0,0,0,216,93.8Zm3.6,1.3a1.7,1.7,0,0,1-1.4-.6,2.1,2.1,0,0,1-.6-1.6h0a3.7,3.7,0,0,1,.2-1.2,1.5,1.5,0,0,1,.8-.8,1.9,1.9,0,0,1,2.3.2,2.9,2.9,0,0,1,.5,1.7V93h-3a2,2,0,0,0,.3,1.1,1.8,1.8,0,0,0,1,.4l.7-.2.5-.4.4.3A1.9,1.9,0,0,1,219.6,95.1Zm-.1-4a.9.9,0,0,0-.7.3,1.5,1.5,0,0,0-.4,1h2.2a1.2,1.2,0,0,0-.3-.9A1,1,0,0,0,219.5,91.1Zm.4-2.4h.9l-1.1,1.2h-.6Zm4.2,6.4a2,2,0,0,1-1.5-.6,2.5,2.5,0,0,1-.5-1.6h0a3.7,3.7,0,0,1,.2-1.2c.2-.4.4-.7.7-.8a1.9,1.9,0,0,1,1-.3,1.6,1.6,0,0,1,1.4.5,2.9,2.9,0,0,1,.5,1.7V93h-3.1a2.1,2.1,0,0,0,.4,1.1,1.8,1.8,0,0,0,1,.4l.6-.2.5-.4.5.3A1.9,1.9,0,0,1,224.1,95.1Zm-.1-4a1.3,1.3,0,0,0-.8.3,1.5,1.5,0,0,0-.3,1h2.2a1.2,1.2,0,0,0-.3-.9A1.1,1.1,0,0,0,224,91.1Z" transform="translate(-54 0)"/></svg>