<svg id="Layer_1" data-name="Layer 1" xmlns="http://www.w3.org/2000/svg" xmlns:xlink="http://www.w3.org/1999/xlink" viewBox="0 0 354.1 376.1"><defs><style>.cls-1,.cls-14,.cls-6{fill:none;}.cls-1{stroke:#36e554;stroke-width:24.91px;}.cls-2,.cls-9{fill:#fff;}.cls-2{stroke:#e7e7e7;stroke-width:1px;}.cls-3{fill:#e4e2e2;}.cls-4,.cls-5{fill:#ededed;}.cls-5{fill-opacity:0.5;}.cls-6{stroke:#efefef;stroke-width:1.06px;}.cls-7{fill:#2399f8;}.cls-8{fill:#8f8f8f;}.cls-10{fill:#26dde1;}.cls-11{fill:#9990fc;}.cls-12{fill:#36e554;}.cls-13{mask:url(#mask);}.cls-14{stroke:#fff;stroke-width:1.19px;}</style><mask id="mask" x="125.16" y="4.15" width="228.97" height="200.5" maskUnits="userSpaceOnUse"><g transform="translate(-54.6 0)"><g id="mask0"><circle class="cls-1" cx="307.3" cy="108" r="63.5"/></g></g></mask></defs><rect class="cls-2" x="0.5" y="211.7" width="345.4" height="163.9" rx="9.5"/><path d="M83.7,277.3H80.5v8.9H79.2v-8.9H76v-1.1h7.7Zm5.1,8.9c-.1-.1-.1-.4-.2-.8a2.9,2.9,0,0,1-2.1.9,2.8,2.8,0,0,1-1.8-.6,1.9,1.9,0,0,1-.7-1.6,2,2,0,0,1,.9-1.7,3.7,3.7,0,0,1,2.5-.7h1.2v-.6a1.2,1.2,0,0,0-.4-1,1.6,1.6,0,0,0-1.2-.4,2,2,0,0,0-1.1.3,1,1,0,0,0-.5.8H84.1a2.1,2.1,0,0,1,.4-1,4.8,4.8,0,0,1,1.1-.9,4,4,0,0,1,1.5-.3,3.2,3.2,0,0,1,2,.7,2.5,2.5,0,0,1,.8,1.8v3.4a3.7,3.7,0,0,0,.2,1.6H88.8Zm-2.1-1a2,2,0,0,0,1.1-.3,1.6,1.6,0,0,0,.8-.8v-1.5h-1c-1.6,0-2.3.5-2.3,1.4a1,1,0,0,0,.4.9A1.5,1.5,0,0,0,86.7,285.2Zm6.3-6.4v.9a2.8,2.8,0,0,1,2.2-1.1q2.4,0,2.4,2.7v4.9H96.4v-4.9a1.4,1.4,0,0,0-1.5-1.6,1.7,1.7,0,0,0-1.1.4,2.7,2.7,0,0,0-.7.8v5.3H91.8v-7.4Zm10.9,5.4a.9.9,0,0,0-.4-.8l-1.3-.5-1.6-.4-.8-.7a1.7,1.7,0,0,1-.3-1,1.9,1.9,0,0,1,.8-1.5,3.2,3.2,0,0,1,4,0,1.9,1.9,0,0,1,.8,1.7h-1.3a1,1,0,0,0-.4-.9,1.5,1.5,0,0,0-1.1-.4,1.8,1.8,0,0,0-1.1.3.9.9,0,0,0-.4.8.8.8,0,0,0,.4.7l1.3.4,1.5.5a3.5,3.5,0,0,1,.9.7,1.9,1.9,0,0,1-.5,2.6,3.3,3.3,0,0,1-2.1.6,4.1,4.1,0,0,1-1.6-.3,2.7,2.7,0,0,1-1-.8,2,2,0,0,1-.4-1.3h1.3a1,1,0,0,0,.5,1,1.6,1.6,0,0,0,1.2.4,2.1,2.1,0,0,0,1.2-.3A.8.8,0,0,0,103.9,284.2Zm4.3,2H107v-7.4h1.2Zm-1.4-9.4a.8.8,0,0,1,.2-.5,1.1,1.1,0,0,1,.6-.2l.6.2a1.3,1.3,0,0,1,0,1,.7.7,0,0,1-.6.2c-.3,0-.4,0-.6-.2A.8.8,0,0,1,106.8,276.8Zm5.2.2v1.8h1.4v1H112v4.6c0,.3,0,.5.2.6a.6.6,0,0,0,.6.3h.6v1h-1a1.5,1.5,0,0,1-1.3-.5,2.6,2.6,0,0,1-.4-1.4v-4.6h-1.3v-1h1.3V277Zm7.9,8.1h4.7v1.1h-6.1v-10h1.4Zm5.7-2.7a3.8,3.8,0,0,1,.4-1.9,3.3,3.3,0,0,1,1.2-1.4,3.4,3.4,0,0,1,1.7-.5,3.3,3.3,0,0,1,2.5,1.1,4.1,4.1,0,0,1,.9,2.8h0a3.8,3.8,0,0,1-.4,1.9,4.1,4.1,0,0,1-1.2,1.4,3.4,3.4,0,0,1-1.8.4,3,3,0,0,1-2.4-1,4.1,4.1,0,0,1-.9-2.8Zm1.2.2a3.2,3.2,0,0,0,.6,2,1.8,1.8,0,0,0,1.5.7,1.9,1.9,0,0,0,1.6-.7,3.8,3.8,0,0,0,.5-2.2,2.9,2.9,0,0,0-.5-1.9,1.7,1.7,0,0,0-1.6-.8,1.8,1.8,0,0,0-1.5.7A3.4,3.4,0,0,0,126.8,282.6Zm8.3-3.8v.9a2.7,2.7,0,0,1,2.2-1.1c1.5,0,2.3.9,2.3,2.7v4.9h-1.2v-4.9a1.4,1.4,0,0,0-1.5-1.6,1.5,1.5,0,0,0-1.1.4,2.7,2.7,0,0,0-.7.8v5.3h-1.3v-7.4Zm6.3,3.6a4,4,0,0,1,.8-2.7,2.5,2.5,0,0,1,2.1-1.1,2.5,2.5,0,0,1,2,.9v-3.8h1.3v10.5h-1.2v-.8a2.6,2.6,0,0,1-2.1.9,2.4,2.4,0,0,1-2.1-1,4.1,4.1,0,0,1-.8-2.8Zm1.2.2a3.9,3.9,0,0,0,.5,2,2.1,2.1,0,0,0,1.5.7,1.8,1.8,0,0,0,1.7-1.1v-3.4a1.8,1.8,0,0,0-1.7-1.1,2.1,2.1,0,0,0-1.5.7A4.2,4.2,0,0,0,142.6,282.6Zm6.7-.2a3.8,3.8,0,0,1,.4-1.9,3.3,3.3,0,0,1,1.2-1.4,3.4,3.4,0,0,1,1.7-.5,3.4,3.4,0,0,1,2.5,1.1,4.1,4.1,0,0,1,.9,2.8h0a3.8,3.8,0,0,1-.4,1.9,4.1,4.1,0,0,1-1.2,1.4,3.4,3.4,0,0,1-1.8.4,3,3,0,0,1-2.4-1,4.1,4.1,0,0,1-.9-2.8Zm1.2.2a3.2,3.2,0,0,0,.6,2,1.8,1.8,0,0,0,1.5.7,1.9,1.9,0,0,0,1.6-.7,3.8,3.8,0,0,0,.5-2.2,3.6,3.6,0,0,0-.5-1.9,1.7,1.7,0,0,0-1.6-.8,1.8,1.8,0,0,0-1.5.7A3.4,3.4,0,0,0,150.5,282.6Zm8.3-3.8v.9a3,3,0,0,1,2.3-1.1c1.5,0,2.3.9,2.3,2.7v4.9h-1.2v-4.9a2.1,2.1,0,0,0-.4-1.2,1.6,1.6,0,0,0-1.1-.4,1.5,1.5,0,0,0-1.1.4,1.8,1.8,0,0,0-.7.8v5.3h-1.3v-7.4Z" transform="translate(-54.6 0)"/><path d="M329.8,283.3a1.6,1.6,0,0,0-.5-1.1,3.5,3.5,0,0,0-1.5-.7,4.2,4.2,0,0,1-2.1-1.2,2.4,2.4,0,0,1-.7-1.8,2.5,2.5,0,0,1,.7-1.9,2.5,2.5,0,0,1,1.8-.8v-1.5h1v1.5a2.6,2.6,0,0,1,1.8.9,3.9,3.9,0,0,1,.6,2.3h-1.2a2.5,2.5,0,0,0-.5-1.6,1.3,1.3,0,0,0-1.2-.5,1.7,1.7,0,0,0-1.3.4,1.4,1.4,0,0,0-.4,1.1,1.6,1.6,0,0,0,.4,1.2,5.3,5.3,0,0,0,1.5.7,5.4,5.4,0,0,1,1.7.8,1.7,1.7,0,0,1,.8.9,2.8,2.8,0,0,1,.3,1.3,2.5,2.5,0,0,1-.7,1.9,3.3,3.3,0,0,1-1.9.8v1.3h-1V286a2.9,2.9,0,0,1-2-.9,3.1,3.1,0,0,1-.8-2.2h1.3a2.1,2.1,0,0,0,.5,1.5,2,2,0,0,0,1.4.5,2,2,0,0,0,1.4-.4A1.4,1.4,0,0,0,329.8,283.3Zm8.2-.8h1.3v1.1H338v2.3h-1.3v-2.3h-4.6v-.8l4.5-6.9H338Zm-4.4,0h3.1v-4.9l-.2.3Zm12.2,0h1.4v1.1h-1.4v2.3h-1.2v-2.3H340v-.8l4.5-6.9h1.3Zm-4.3,0h3.1v-4.9l-.2.3Zm7,5.4-.8-.5a3,3,0,0,0,.7-1.9v-1.1h1.3v1a3.3,3.3,0,0,1-.4,1.3A3.6,3.6,0,0,1,348.5,287.9Zm8-5.4h1.4v1.1h-1.4v2.3h-1.3v-2.3h-4.5v-.8l4.4-6.9h1.4Zm-4.4,0h3.1v-4.6Zm11.9-6.6V277h-.2a3.6,3.6,0,0,0-2.4.8,3.8,3.8,0,0,0-1,2.4,2.9,2.9,0,0,1,4.2,0,3.8,3.8,0,0,1,.8,2.4,3.9,3.9,0,0,1-.8,2.5,3.2,3.2,0,0,1-4.6-.2,4.3,4.3,0,0,1-.9-2.8v-.5a6.2,6.2,0,0,1,1.2-4.2,4.1,4.1,0,0,1,3.5-1.5Zm-1.7,4.5a1.9,1.9,0,0,0-1.2.4,2,2,0,0,0-.7.9v.5a3.9,3.9,0,0,0,.5,2,1.9,1.9,0,0,0,1.4.8,1.9,1.9,0,0,0,1.4-.7,2.5,2.5,0,0,0,.5-1.6,2.9,2.9,0,0,0-.5-1.7A1.8,1.8,0,0,0,362.3,280.4Zm10.9,1.2a5.7,5.7,0,0,1-.8,3.3A2.8,2.8,0,0,1,370,286a2.6,2.6,0,0,1-2.3-1,5.8,5.8,0,0,1-.8-3.2v-1.7a5.8,5.8,0,0,1,.7-3.3,3.2,3.2,0,0,1,4.8,0,5.4,5.4,0,0,1,.8,3.2Zm-1.3-1.7a4.9,4.9,0,0,0-.4-2.4,1.6,1.6,0,0,0-1.5-.7,1.5,1.5,0,0,0-1.4.7,4.6,4.6,0,0,0-.5,2.3v2a4.8,4.8,0,0,0,.5,2.4,1.6,1.6,0,0,0,1.4.8,1.5,1.5,0,0,0,1.4-.8,4,4,0,0,0,.5-2.2Z" transform="translate(-54.6 0)"/><path d="M83.1,235.9H80v8.3H77.9v-8.3h-3v-1.6h8.2Zm-.7,4.6a4.2,4.2,0,0,1,.4-2,3.3,3.3,0,0,1,3.1-1.8,3.2,3.2,0,0,1,2.4.9,3.6,3.6,0,0,1,1.1,2.5v.5a3.7,3.7,0,0,1-1,2.8,3.4,3.4,0,0,1-2.5,1,3.8,3.8,0,0,1-2.6-1,4.3,4.3,0,0,1-.9-2.8Zm1.9.1a3.1,3.1,0,0,0,.4,1.6,1.4,1.4,0,0,0,1.2.6,1.3,1.3,0,0,0,1.1-.6,2.5,2.5,0,0,0,.4-1.7,2.4,2.4,0,0,0-.4-1.6,1.3,1.3,0,0,0-1.1-.6,1.4,1.4,0,0,0-1.2.6A3.2,3.2,0,0,0,84.3,240.6Zm13,0a4.9,4.9,0,0,1-.8,2.8,2.7,2.7,0,0,1-2.1,1,2.5,2.5,0,0,1-1.8-.8v3.5h-2V236.8h1.9v.8a2.3,2.3,0,0,1,1.9-.9,2.4,2.4,0,0,1,2.1,1,4.7,4.7,0,0,1,.8,2.8Zm-2-.1a2.4,2.4,0,0,0-.4-1.6,1.1,1.1,0,0,0-1-.6,1.3,1.3,0,0,0-1.3.7v3.1a1.4,1.4,0,0,0,1.3.7C94.8,242.8,95.3,242,95.3,240.5Zm6.9,3.7v-9.9h3a4.8,4.8,0,0,1,2.4.6,4.1,4.1,0,0,1,1.6,1.6,5.4,5.4,0,0,1,.6,2.5v.5a5.4,5.4,0,0,1-.6,2.5,4.1,4.1,0,0,1-1.6,1.6,4.6,4.6,0,0,1-2.3.6Zm2-8.3v6.7h1a2.6,2.6,0,0,0,1.9-.8,3.7,3.7,0,0,0,.6-2.3V239a3.7,3.7,0,0,0-.6-2.3,2.4,2.4,0,0,0-1.9-.8Zm10.4,8.5a3.4,3.4,0,0,1-3.7-3.7v-.2a4.5,4.5,0,0,1,.4-2,3.6,3.6,0,0,1,3.1-1.8,3.2,3.2,0,0,1,2.4.9,4.7,4.7,0,0,1,.8,2.8v.8h-4.7a1.7,1.7,0,0,0,.6,1.1,1.7,1.7,0,0,0,1.2.5,2.2,2.2,0,0,0,1.8-.8l1,1a2.3,2.3,0,0,1-1.2,1A3.3,3.3,0,0,1,114.6,244.4Zm-.2-6.1a1.2,1.2,0,0,0-1,.4,2.8,2.8,0,0,0-.5,1.1h2.8a1.1,1.1,0,0,0-.4-1A1,1,0,0,0,114.4,238.3Zm8.7,5.9a1.1,1.1,0,0,1-.2-.6,2.6,2.6,0,0,1-1.9.8,2.8,2.8,0,0,1-1.8-.6,2.1,2.1,0,0,1-.7-1.6,2.2,2.2,0,0,1,.8-1.8,4,4,0,0,1,2.6-.7h.9v-.4a1,1,0,0,0-1.1-1.1,1.1,1.1,0,0,0-.8.2.9.9,0,0,0-.3.7h-2a2.1,2.1,0,0,1,.4-1.2,2.7,2.7,0,0,1,1.2-.9,3.8,3.8,0,0,1,1.6-.3,3.2,3.2,0,0,1,2.2.7,2.4,2.4,0,0,1,.8,1.9v3.2a3.2,3.2,0,0,0,.3,1.6h-2Zm-1.7-1.3.8-.2c.3-.2.5-.3.6-.6v-1.2H122c-.9,0-1.5.3-1.5,1h0c0,.3,0,.5.2.6A.9.9,0,0,0,121.4,242.9Zm7,1.3h-2V233.7h2Zm5.7-2c0-.2-.2-.4-.4-.6l-1.2-.3c-1.7-.4-2.6-1.2-2.6-2.3a1.9,1.9,0,0,1,.8-1.6,3.8,3.8,0,0,1,4.4,0,2,2,0,0,1,.9,1.7h-2a.9.9,0,0,0-.3-.7,1.2,1.2,0,0,0-.9-.3l-.7.2a.9.9,0,0,0-.3.6.5.5,0,0,0,.3.5,2.3,2.3,0,0,0,1.1.4l1.2.3a2.1,2.1,0,0,1,.7,3.7,3.8,3.8,0,0,1-2.2.6,4.3,4.3,0,0,1-1.7-.3,2.7,2.7,0,0,1-1.1-1,1.7,1.7,0,0,1-.4-1.2h1.8a2,2,0,0,0,.4.8,1.7,1.7,0,0,0,1,.3l.9-.2A.9.9,0,0,0,134.1,242.2Z" transform="translate(-54.6 0)"/><rect class="cls-3" x="19" y="297.8" width="169.7" height="13.05" rx="4"/><rect class="cls-3" x="239.7" y="297.8" width="79.5" height="13.05" rx="4"/><rect class="cls-4" x="19" y="323.9" width="169.7" height="13.05" rx="4"/><rect class="cls-5" x="19" y="351.2" width="169.7" height="13.05" rx="4"/><rect class="cls-4" x="239.7" y="323.9" width="79.5" height="13.05" rx="4"/><rect class="cls-5" x="239.7" y="351.2" width="79.5" height="13.05" rx="4"/><rect class="cls-6" x="189.2" y="231.9" width="44.3" height="17.95"/><rect class="cls-7" x="233" y="231.3" width="45.4" height="19"/><rect class="cls-6" x="277.8" y="231.9" width="44.3" height="17.95"/><path class="cls-8" d="M248.9,244h2.9v.6h-3.7v-6h.8Zm6.4.6c0-.1-.1-.2-.1-.4a2.1,2.1,0,0,1-1.3.5,1.5,1.5,0,0,1-1.1-.4,1.3,1.3,0,0,1-.4-.9,1.4,1.4,0,0,1,.5-1.1,3.3,3.3,0,0,1,1.5-.4h.8v-.3a.9.9,0,0,0-.3-.7,1,1,0,0,0-.7-.2l-.6.2a.5.5,0,0,0-.3.5h-.8a1.4,1.4,0,0,1,.2-.6,1.2,1.2,0,0,1,.7-.5,1.5,1.5,0,0,1,.9-.2,1.6,1.6,0,0,1,1.2.4,1.2,1.2,0,0,1,.4,1v2.1a3,3,0,0,0,.2,1h-.8ZM254,244h.7l.5-.5v-.9h-.6c-.9,0-1.4.2-1.4.8a.8.8,0,0,0,.2.5A.7.7,0,0,0,254,244Zm5.7-.6c0-.2,0-.3-.2-.4s-.4-.2-.8-.3l-.9-.3a1.1,1.1,0,0,1-.5-.4,1.4,1.4,0,0,1-.2-.6,1.1,1.1,0,0,1,.5-.9,2,2,0,0,1,2.4,0,1.2,1.2,0,0,1,.5,1h-.8a.9.9,0,0,0-.3-.6l-.6-.2-.7.2a.8.8,0,0,0-.2.5.4.4,0,0,0,.2.4l.8.2a1.9,1.9,0,0,1,.9.4,1,1,0,0,1,.5.4.8.8,0,0,1,.2.6,1.4,1.4,0,0,1-.5,1,2.1,2.1,0,0,1-1.2.3l-1-.2a1.5,1.5,0,0,1-.6-.5,1,1,0,0,1-.2-.7h.7a.9.9,0,0,0,.3.6l.8.2.7-.2C259.7,243.8,259.7,243.6,259.7,243.4Zm2.8-4.3v1.1h.9v.6h-.9v2.7c0,.2.1.3.1.4l.4.2h.4v.6h-.6a1.1,1.1,0,0,1-.8-.3,2,2,0,0,1-.2-.9v-2.7H261v-.6h.8v-1.1Zm8.6,5.5h-.8v-2.7h-3v2.7h-.8v-6h.8v2.6h3v-2.6h.8Zm1.1-2.2a3.7,3.7,0,0,1,.2-1.2,1.9,1.9,0,0,1,.7-.8,2.3,2.3,0,0,1,1.1-.3,2,2,0,0,1,1.5.6,2.9,2.9,0,0,1,.5,1.7h0a2.2,2.2,0,0,1-.2,1.2,1.9,1.9,0,0,1-.7.8,2.2,2.2,0,0,1-2.6-.3,2.9,2.9,0,0,1-.5-1.7Zm.7,0a2.1,2.1,0,0,0,.4,1.2,1.1,1.1,0,0,0,1.8,0,2,2,0,0,0,0-2.4,1.1,1.1,0,0,0-1.8,0A2.1,2.1,0,0,0,272.9,242.4Zm7,1.8a1.7,1.7,0,0,1-1.3.5,1.2,1.2,0,0,1-1-.4,1.6,1.6,0,0,1-.4-1.2v-2.9h.7V243c0,.7.3,1.1.9,1.1a1.2,1.2,0,0,0,1.1-.7v-3.2h.8v4.4H280Zm4.1-3.4h-.4a1,1,0,0,0-1,.7v3.1h-.7v-4.4h.7v.5a1.3,1.3,0,0,1,1.1-.6h.3Z" transform="translate(-54.6 0)"/><path class="cls-9" d="M294.6,243.8h2.7v.8h-3.8v-6h1.1Zm6.1.8c-.1-.1-.1-.2-.1-.4a1.8,1.8,0,0,1-1.2.5,1.4,1.4,0,0,1-1.1-.4,1,1,0,0,1-.4-.9c0-.5.1-.9.5-1.1a2.4,2.4,0,0,1,1.5-.4h.6v-.3c0-.2,0-.4-.2-.5a.6.6,0,0,0-.6-.3l-.5.2c-.2.1-.2.3-.2.5h-1a.8.8,0,0,1,.2-.7,1.8,1.8,0,0,1,.7-.5,1.3,1.3,0,0,1,.9-.2,2,2,0,0,1,1.3.4,1.2,1.2,0,0,1,.4,1.1v2a3,3,0,0,0,.2,1h-1Zm-1.1-.7h.5l.4-.4v-.9H300l-.8.2a.7.7,0,0,0-.3.6c0,.2,0,.3.2.4Zm5.5-.5a.5.5,0,0,0-.2-.4l-.8-.2-.8-.3c-.5-.3-.8-.6-.8-1.1a1.2,1.2,0,0,1,.5-.9,1.8,1.8,0,0,1,1.3-.4,1.6,1.6,0,0,1,1.2.4,1,1,0,0,1,.5,1h-1a.6.6,0,0,0-.2-.5l-.5-.2-.6.2a.5.5,0,0,0-.2.4l.2.4.8.2.9.3a1.2,1.2,0,0,1,.5.5.8.8,0,0,1,.2.6,1.1,1.1,0,0,1-.5.9,2,2,0,0,1-1.3.4l-1-.2a1.8,1.8,0,0,1-.7-.5,2.4,2.4,0,0,1-.2-.8h1a1.1,1.1,0,0,0,.2.6l.7.2.6-.2A.5.5,0,0,0,305.1,243.4Zm3.1-4.3v1.1h.8v.7h-.8v2.5c0,.2,0,.3.1.4h.7v.8h-.6c-.8,0-1.2-.4-1.2-1.3v-2.5h-.7v-.7h.7v-1.1Zm7.6,5.5h-4v-.7l2-2.1.6-.8a2.5,2.5,0,0,0,.2-.7,1.4,1.4,0,0,0-.2-.7.9.9,0,0,0-.7-.3.8.8,0,0,0-.7.3,1.2,1.2,0,0,0-.3.9h-1a3,3,0,0,1,.2-1,1.6,1.6,0,0,1,.7-.7,2.3,2.3,0,0,1,1.1-.3,2,2,0,0,1,1.4.5,1.7,1.7,0,0,1,.5,1.2,1.6,1.6,0,0,1-.3.9,3.5,3.5,0,0,1-.8,1.2l-1.5,1.5h2.8Zm4.2-2.1h.7v.8H320v1.3h-1v-1.3h-2.6v-.6l2.6-4.1h1Zm-2.6,0H319V240h-.1Zm5-1.8a1.8,1.8,0,0,1,1.3-.6c.9,0,1.4.5,1.4,1.6v2.9h-1v-2.9c0-.3,0-.5-.2-.6l-.6-.2a1.1,1.1,0,0,0-.9.5v3.2h-1v-6.3h1Z" transform="translate(-54.6 0)"/><path class="cls-8" d="M337.6,244h2.8v.6h-3.6v-6h.8Zm6.4.6c-.1-.1-.1-.2-.1-.4a2.1,2.1,0,0,1-1.3.5,1.5,1.5,0,0,1-1.1-.4,1,1,0,0,1-.4-.9,1.4,1.4,0,0,1,.5-1.1,3.3,3.3,0,0,1,1.5-.4h.8v-.3a.9.9,0,0,0-.3-.7l-.7-.2-.7.2c-.2.1-.2.3-.2.5h-.8a1.4,1.4,0,0,1,.2-.6,1.2,1.2,0,0,1,.7-.5c.2-.2.5-.2.9-.2a1.6,1.6,0,0,1,1.2.4,1.2,1.2,0,0,1,.4,1v2.1a3,3,0,0,0,.2,1H344Zm-1.3-.6h.7c.2-.2.4-.3.5-.5v-.9h-.6c-1,0-1.4.2-1.4.8s0,.4.2.5A.7.7,0,0,0,342.7,244Zm5.7-.6a.5.5,0,0,0-.2-.4c-.2-.2-.4-.2-.8-.3l-1-.3-.5-.4a1.3,1.3,0,0,1-.1-.6,1,1,0,0,1,.4-.9,1.9,1.9,0,0,1,1.2-.4,2,2,0,0,1,1.3.4,1.2,1.2,0,0,1,.4,1h-.7a.9.9,0,0,0-.3-.6l-.7-.2-.6.2a.5.5,0,0,0-.3.5.5.5,0,0,0,.3.4l.8.2.9.4a1,1,0,0,1,.5.4.8.8,0,0,1,.2.6,1.4,1.4,0,0,1-.5,1,2.1,2.1,0,0,1-1.2.3l-1-.2a1,1,0,0,1-.6-.5,1.1,1.1,0,0,1-.3-.7h.8a.9.9,0,0,0,.3.6l.8.2.7-.2A.8.8,0,0,0,348.4,243.4Zm2.8-4.3v1.1h.8v.6h-.8v2.7c0,.2,0,.3.1.4l.4.2h.4v.6h-.6a1,1,0,0,1-.8-.3,1.2,1.2,0,0,1-.3-.9v-2.7h-.8v-.6h.8v-1.1Zm7.8,4.5.8-3.4h.8l-1.3,4.4h-.6l-1.1-3.4-1.1,3.4h-.6l-1.3-4.4h.8l.9,3.3,1-3.3h.6Zm4.2,1.1a1.7,1.7,0,0,1-1.4-.6,2.1,2.1,0,0,1-.6-1.6h0a3.7,3.7,0,0,1,.2-1.2,1.9,1.9,0,0,1,.7-.8l1-.3a1.7,1.7,0,0,1,1.4.6,2.3,2.3,0,0,1,.5,1.6v.3h-3.1a2.8,2.8,0,0,0,.4,1.1,1.3,1.3,0,0,0,1,.4l.7-.2c.1-.1.3-.2.4-.4l.5.3A1.9,1.9,0,0,1,363.2,244.7Zm-.1-4a.9.9,0,0,0-.7.3,1.8,1.8,0,0,0-.4,1h2.2a1.2,1.2,0,0,0-.3-.9A1,1,0,0,0,363.1,240.7Zm4.6,4a2,2,0,0,1-1.5-.6,2.5,2.5,0,0,1-.5-1.6h0a2.2,2.2,0,0,1,.2-1.2,1.9,1.9,0,0,1,.7-.8,1.9,1.9,0,0,1,1-.3,1.8,1.8,0,0,1,1.4.6,2.4,2.4,0,0,1,.4,1.6v.3h-3a1.8,1.8,0,0,0,.4,1.1,1.3,1.3,0,0,0,1,.4l.6-.2a1,1,0,0,0,.5-.4l.5.3A1.9,1.9,0,0,1,367.7,244.7Zm-.1-4a1.1,1.1,0,0,0-.8.3,1.7,1.7,0,0,0-.3,1h2.2a1.2,1.2,0,0,0-.3-.9A1.1,1.1,0,0,0,367.6,240.7Zm4,1.9-.5.5v1.5h-.8v-6.3h.8v3.8l.4-.5,1.4-1.4h.9l-1.7,1.8,1.9,2.6h-.9Z" transform="translate(-54.6 0)"/><rect class="cls-2" x="0.5" y="0.5" width="345.4" height="201.87" rx="9.5"/><path d="M83,34.2H80v8.4H77.9V34.2h-3V32.6H83Zm-.6,4.6a4.2,4.2,0,0,1,.4-2A3,3,0,0,1,84,35.5a3.8,3.8,0,0,1,1.9-.5,3.2,3.2,0,0,1,2.4.9,3.6,3.6,0,0,1,1.1,2.5v.5a3.7,3.7,0,0,1-1,2.8,3,3,0,0,1-2.5,1,3.4,3.4,0,0,1-2.6-1,4.3,4.3,0,0,1-.9-2.8Zm1.9.1a3.1,3.1,0,0,0,.4,1.6,1.5,1.5,0,0,0,2.3.1,3,3,0,0,0,.4-1.8,2.5,2.5,0,0,0-.4-1.6,1.3,1.3,0,0,0-1.1-.6,1.4,1.4,0,0,0-1.2.6A3.5,3.5,0,0,0,84.3,38.9Zm13,0a4.7,4.7,0,0,1-.8,2.8,2.4,2.4,0,0,1-2.1,1,2.5,2.5,0,0,1-1.8-.8v3.5h-2V35.1h1.9v.8a2.3,2.3,0,0,1,1.9-.9,2.4,2.4,0,0,1,2.1,1,4.7,4.7,0,0,1,.8,2.8Zm-2-.1a2.5,2.5,0,0,0-.4-1.6,1.1,1.1,0,0,0-1-.6,1.4,1.4,0,0,0-1.3.7v3.1a1.3,1.3,0,0,0,1.3.7C94.8,41.1,95.3,40.3,95.3,38.8Zm6.9,3.8v-10h3a4.8,4.8,0,0,1,2.4.6,3.8,3.8,0,0,1,1.6,1.7,4.8,4.8,0,0,1,.6,2.4v.5a5.1,5.1,0,0,1-.6,2.5,4.4,4.4,0,0,1-1.6,1.7,4.6,4.6,0,0,1-2.3.6Zm2-8.4v6.7h1a2.6,2.6,0,0,0,1.9-.8,3.6,3.6,0,0,0,.6-2.2v-.6a3.7,3.7,0,0,0-.6-2.3,2.4,2.4,0,0,0-1.9-.8Zm12.3,5.7a1.8,1.8,0,0,0-.4-.9l-1.5-.6-1.7-.7a2.8,2.8,0,0,1-1.7-2.5,2.3,2.3,0,0,1,.4-1.4,3.2,3.2,0,0,1,1.3-1,6.5,6.5,0,0,1,2-.4,5.8,5.8,0,0,1,1.9.4,3.5,3.5,0,0,1,1.3,1.1,2.9,2.9,0,0,1,.4,1.6h-2a1.2,1.2,0,0,0-.5-1c-.2-.3-.6-.4-1.2-.4a1.6,1.6,0,0,0-1.1.3,1,1,0,0,0-.5.8c0,.4.2.6.5.9l1.5.6a5.8,5.8,0,0,1,2.5,1.3,2.2,2.2,0,0,1,.8,1.9,2.6,2.6,0,0,1-.9,2.1,4.5,4.5,0,0,1-2.7.7,4.6,4.6,0,0,1-2.1-.4,3.3,3.3,0,0,1-1.4-1.2,2.5,2.5,0,0,1-.5-1.7h2c0,1.1.7,1.7,2,1.7a2.1,2.1,0,0,0,1.2-.3A1.3,1.3,0,0,0,116.5,39.9ZM122,39v3.6h-2.1v-10h3.9a4.2,4.2,0,0,1,2,.4,2.5,2.5,0,0,1,1.3,1.2,3.1,3.1,0,0,1,.5,1.7,2.8,2.8,0,0,1-1,2.3,4.1,4.1,0,0,1-2.8.8Zm0-1.6h1.8a2.2,2.2,0,0,0,1.3-.4,1.4,1.4,0,0,0,.4-1.1,1.6,1.6,0,0,0-.4-1.2,1.7,1.7,0,0,0-1.2-.5H122Zm12.2,2.5a1.8,1.8,0,0,0-.4-.9l-1.5-.6-1.7-.7a2.8,2.8,0,0,1-1.7-2.5,1.9,1.9,0,0,1,.5-1.4,2.7,2.7,0,0,1,1.3-1,5.3,5.3,0,0,1,1.9-.4,5.8,5.8,0,0,1,1.9.4,3.5,3.5,0,0,1,1.3,1.1,3,3,0,0,1,.5,1.6h-2.1a1.5,1.5,0,0,0-.4-1,1.7,1.7,0,0,0-1.3-.4,1.8,1.8,0,0,0-1.1.3.9.9,0,0,0-.4.8,1.1,1.1,0,0,0,.4.9l1.5.6a5.3,5.3,0,0,1,2.5,1.3,2.3,2.3,0,0,1,.9,1.9,2.7,2.7,0,0,1-1,2.1,4.5,4.5,0,0,1-2.7.7,5.2,5.2,0,0,1-2.1-.4,3.3,3.3,0,0,1-1.4-1.2,3.1,3.1,0,0,1-.5-1.7h2.1c0,1.1.6,1.7,1.9,1.7a2.1,2.1,0,0,0,1.2-.3A1.3,1.3,0,0,0,134.2,39.9Z" transform="translate(-54.6 0)"/><path d="M93.8,119.7a3.4,3.4,0,0,1-.4,1.8,2.4,2.4,0,0,1-.9,1.1,2.3,2.3,0,0,1-1.4.4,2.6,2.6,0,0,1-1.5-.4,2.4,2.4,0,0,1-.9-1.1,4.7,4.7,0,0,1-.4-1.7v-.5a3.3,3.3,0,0,1,.4-1.7,2,2,0,0,1,.9-1.1,2.3,2.3,0,0,1,1.4-.4,2.4,2.4,0,0,1,1.5.4,2,2,0,0,1,.9,1.1,3.3,3.3,0,0,1,.4,1.7Zm-.9-.4a3,3,0,0,0-.5-1.8,1.5,1.5,0,0,0-1.4-.7,1.5,1.5,0,0,0-1.3.7,3,3,0,0,0-.5,1.8v.4a3.6,3.6,0,0,0,.5,1.9,1.7,1.7,0,0,0,1.4.6,1.6,1.6,0,0,0,1.3-.6,3,3,0,0,0,.5-1.8Zm5.2,3.1a2,2,0,0,1-1.5.6,1.5,1.5,0,0,1-1.2-.5,1.7,1.7,0,0,1-.5-1.3v-3.3h.9v3.2q0,1.2.9,1.2a1.3,1.3,0,0,0,1.3-.8v-3.6h.9v5h-.8Zm3.3-5.7v1.2h.9v.7h-.9v3.1c0,.2,0,.3.1.4a.5.5,0,0,0,.4.2h.4v.7h-.6a1,1,0,0,1-.9-.4,1.2,1.2,0,0,1-.3-.9v-3.1h-.9v-.7h.9v-1.2Zm2,6.2v-6.7h1.9a3.8,3.8,0,0,1,1.6.3,2.3,2.3,0,0,1,1,1.2,2.7,2.7,0,0,1,.4,1.6v.4a3.1,3.1,0,0,1-.4,1.7,1.8,1.8,0,0,1-1,1.1,2.9,2.9,0,0,1-1.6.4Zm.9-6v5.3h1a1.9,1.9,0,0,0,1.6-.7,3,3,0,0,0,.5-1.8v-.4a2.7,2.7,0,0,0-.5-1.8,2,2,0,0,0-1.5-.6Zm5,3.4a3.1,3.1,0,0,1,.3-1.3,2.4,2.4,0,0,1,.8-.9,2.1,2.1,0,0,1,1.2-.3,1.9,1.9,0,0,1,1.6.7,2.5,2.5,0,0,1,.7,1.9h0a3.1,3.1,0,0,1-.3,1.3,2.4,2.4,0,0,1-.8.9,2.7,2.7,0,0,1-1.2.3,2.2,2.2,0,0,1-1.7-.7,2.9,2.9,0,0,1-.6-1.9Zm.9.2a1.8,1.8,0,0,0,.4,1.3,1.2,1.2,0,0,0,2,0,2.2,2.2,0,0,0,.4-1.5,2,2,0,0,0-.4-1.3,1.3,1.3,0,0,0-2,0A2.1,2.1,0,0,0,110.2,120.5Zm4.5-.2a3.1,3.1,0,0,1,.3-1.3,2.4,2.4,0,0,1,.8-.9l1.2-.3a2.2,2.2,0,0,1,1.7.7,2.9,2.9,0,0,1,.6,1.9h0a3.1,3.1,0,0,1-.3,1.3,2.4,2.4,0,0,1-.8.9,2.1,2.1,0,0,1-1.2.3,2.2,2.2,0,0,1-1.7-.7,2.9,2.9,0,0,1-.6-1.9Zm.9.2a1.8,1.8,0,0,0,.4,1.3,1.2,1.2,0,0,0,2,0,2.2,2.2,0,0,0,.4-1.5,2,2,0,0,0-.4-1.3,1.3,1.3,0,0,0-2,0A2.1,2.1,0,0,0,115.6,120.5Zm5.6-2a1.8,1.8,0,0,1,1.5-.7c1.1,0,1.6.6,1.6,1.8v3.3h-.9v-3.3c0-.4,0-.6-.2-.8a1,1,0,0,0-.8-.3l-.7.2-.5.6v3.6h-.8v-7.1h.8Zm6.5,4.5a2.1,2.1,0,0,1-1.7-.7,2.4,2.4,0,0,1-.6-1.8h0a3.2,3.2,0,0,1,.3-1.4,2,2,0,0,1,.7-.9l1.2-.3a2,2,0,0,1,1.5.6,3.6,3.6,0,0,1,.5,1.9v.3h-3.4a1.7,1.7,0,0,0,.5,1.2,1.2,1.2,0,0,0,1,.5l.8-.2a1.2,1.2,0,0,0,.5-.5l.6.4A2.2,2.2,0,0,1,127.7,123Zm-.1-4.5a1,1,0,0,0-.9.4,1.5,1.5,0,0,0-.4,1h2.5a1.9,1.9,0,0,0-.4-1A.9.9,0,0,0,127.6,118.5Zm2.8,1.9a2.9,2.9,0,0,1,.6-1.9,1.5,1.5,0,0,1,1.4-.7,1.8,1.8,0,0,1,1.4.6v-2.6h.8v7.1h-.7v-.5a1.7,1.7,0,0,1-1.4.6,1.5,1.5,0,0,1-1.4-.7,2.9,2.9,0,0,1-.6-1.9Zm.9.1a2.5,2.5,0,0,0,.3,1.3,1.4,1.4,0,0,0,1,.5,1.4,1.4,0,0,0,1.2-.8v-2.3a1.5,1.5,0,0,0-1.2-.7,1.4,1.4,0,0,0-1,.5A2.8,2.8,0,0,0,131.3,120.5Z" transform="translate(-54.6 0)"/><path d="M150.8,121.1a1.4,1.4,0,0,0-.2-.6l-.8-.4a2,2,0,0,1-.8-.4l-.7-.4-.4-.6a1.9,1.9,0,0,1-.1-.8,1.7,1.7,0,0,1,.5-1.2,1.6,1.6,0,0,1,1.3-.6v-1h.8v1a1.9,1.9,0,0,1,1.2.7,1.7,1.7,0,0,1,.5,1.4h-1.3a1.1,1.1,0,0,0-.3-.8.6.6,0,0,0-.6-.3.9.9,0,0,0-.6.3.8.8,0,0,0-.2.5.8.8,0,0,0,.2.6,1.5,1.5,0,0,0,.8.4l.9.5.6.4a2.1,2.1,0,0,1,.4.6,1.5,1.5,0,0,1,.1.7,1.9,1.9,0,0,1-.5,1.3,2.6,2.6,0,0,1-1.3.6v.9h-.8V123a2.1,2.1,0,0,1-1.4-.7,2,2,0,0,1-.6-1.5h1.4a1.5,1.5,0,0,0,.2.8,1.1,1.1,0,0,0,.8.3c.3,0,.5,0,.6-.2A.6.6,0,0,0,150.8,121.1Zm6.2-.7h.7v1H157v1.5h-1.4v-1.5h-2.7v-.8l2.8-4.4H157Zm-2.9,0h1.5V118h0Zm4.6-.8.4-3.4h3.7v1.1h-2.6l-.2,1.4,1-.2a2,2,0,0,1,1.5.6,2.1,2.1,0,0,1,.6,1.6,2.1,2.1,0,0,1-.3,1.2,2,2,0,0,1-.8.8,2.4,2.4,0,0,1-1.2.3l-1.2-.2-.8-.7a2,2,0,0,1-.3-1.1h1.3a.9.9,0,0,0,.3.7l.7.2a.9.9,0,0,0,.7-.3,2,2,0,0,0,.2-.9,1.2,1.2,0,0,0-.3-.9c-.1-.2-.4-.3-.8-.3l-.7.2h-.2Zm5.6,5-.7-.4.2-.3a2,2,0,0,0,.3-1.1v-1h1.1v.9a3.6,3.6,0,0,1-.2,1A2.2,2.2,0,0,1,164.3,124.6Zm5.9-4.2h.8v1h-.8v1.5h-1.3v-1.5h-2.8v-.8l2.8-4.4h1.4Zm-2.8,0h1.5V118h-.1Zm7.9-4.3v1.1h-.1a2.5,2.5,0,0,0-1.5.5,1.7,1.7,0,0,0-.6,1.2,1.9,1.9,0,0,1,1.3-.5,1.7,1.7,0,0,1,1.4.6,2.3,2.3,0,0,1,.5,1.7,5,5,0,0,1-.2,1.2,2.4,2.4,0,0,1-.9.8,2,2,0,0,1-1.1.3,2.9,2.9,0,0,1-1.8-.7,3.2,3.2,0,0,1-.6-2v-.5a3.8,3.8,0,0,1,.4-1.9,3,3,0,0,1,1.2-1.3,2.7,2.7,0,0,1,1.8-.5Zm-1.3,3.4h-.6a1,1,0,0,0-.4.5v.4a1.5,1.5,0,0,0,.3,1,.8.8,0,0,0,.7.4.8.8,0,0,0,.7-.3,1.4,1.4,0,0,0,.3-.9,1.2,1.2,0,0,0-.3-.9A.8.8,0,0,0,174,119.5Zm7.7.6a3.6,3.6,0,0,1-.6,2.2,2.4,2.4,0,0,1-1.7.7,2.1,2.1,0,0,1-1.7-.7,3.3,3.3,0,0,1-.6-2.1v-1.3a3.3,3.3,0,0,1,.6-2.1,2.4,2.4,0,0,1,3.4,0,3.3,3.3,0,0,1,.6,2.1Zm-1.4-1.3a2.4,2.4,0,0,0-.2-1.3.8.8,0,0,0-1.4,0,1.8,1.8,0,0,0-.2,1.1v1.7a2.2,2.2,0,0,0,.2,1.2.8.8,0,0,0,1.4,0c.2-.2.2-.6.2-1.1Zm2.4,3.4c0-.2.1-.3.2-.5l.6-.2.5.2a.6.6,0,0,1,.2.5c0,.3,0,.4-.2.6l-.5.2a.7.7,0,0,1-.8-.8Zm5.8-2a2.1,2.1,0,0,1-1.2.5,2,2,0,0,1-1.5-.6,2.9,2.9,0,0,1-.5-1.7,2.7,2.7,0,0,1,.3-1.2,2,2,0,0,1,.8-.8,2.1,2.1,0,0,1,1.2-.3,2,2,0,0,1,1.1.3,1.4,1.4,0,0,1,.8,1,3.2,3.2,0,0,1,.3,1.4v.5a3.5,3.5,0,0,1-.8,2.6,3.4,3.4,0,0,1-2.4,1.1h-.3v-1.1h.3A1.7,1.7,0,0,0,188.5,120.2Zm-.9-.5.5-.2a.8.8,0,0,0,.4-.4v-.5a1.8,1.8,0,0,0-.3-1.1.8.8,0,0,0-.7-.4c-.2,0-.4.2-.6.4a1.6,1.6,0,0,0-.3.9,1.2,1.2,0,0,0,.3.9A.7.7,0,0,0,187.6,119.7Zm7.2.7h.7v1h-.7v1.5h-1.4v-1.5h-2.7v-.8l2.8-4.4h1.4Zm-2.9,0h1.5V118h-.1Z" transform="translate(-54.6 0)"/><circle class="cls-10" cx="23.7" cy="118.6" r="3.6"/><path d="M150.8,141.3a.8.8,0,0,0-.2-.6l-.8-.4-.8-.4-.7-.4-.4-.6a1.9,1.9,0,0,1-.1-.8,2.1,2.1,0,0,1,.5-1.3,2.6,2.6,0,0,1,1.3-.6v-.9h.8v1a1.7,1.7,0,0,1,1.2.6,2,2,0,0,1,.5,1.5h-1.3a1,1,0,0,0-.3-.8.6.6,0,0,0-.6-.3l-.6.2a1.4,1.4,0,0,0-.2.6,1.1,1.1,0,0,0,.2.6,2.9,2.9,0,0,0,.8.4l.9.4.6.5a.9.9,0,0,1,.4.6,1.5,1.5,0,0,1,.1.7,2.1,2.1,0,0,1-.5,1.3,1.9,1.9,0,0,1-1.3.5v1h-.8v-.9a2.1,2.1,0,0,1-1.4-.7,2,2,0,0,1-.6-1.5h1.4a1.9,1.9,0,0,0,.2.8,1.1,1.1,0,0,0,.8.3l.6-.2A.9.9,0,0,0,150.8,141.3Zm3.6-2.2h.7l.7-.2a1,1,0,0,0,0-1.4l-.6-.2-.7.2a1.1,1.1,0,0,0-.2.6h-1.4a1.7,1.7,0,0,1,.3-1,1.6,1.6,0,0,1,.8-.6,2.3,2.3,0,0,1,1.1-.3,2.6,2.6,0,0,1,1.7.5,2,2,0,0,1,.6,1.5,2.4,2.4,0,0,1-.2.8,1.6,1.6,0,0,1-.8.6,1.5,1.5,0,0,1,.9.6,3,3,0,0,1,.2,1,1.7,1.7,0,0,1-.6,1.4,2.6,2.6,0,0,1-1.8.6,2.3,2.3,0,0,1-1.6-.6,1.7,1.7,0,0,1-.6-1.4h1.3a.6.6,0,0,0,.3.6,1,1,0,0,0,1.4,0,.7.7,0,0,0,.3-.6c0-.7-.4-1-1.1-1h-.7Zm8.5-1a1.6,1.6,0,0,1-.3.9,2.2,2.2,0,0,1-.7.6l.8.6a1.9,1.9,0,0,1-.3,2.4,2.4,2.4,0,0,1-1.7.6,2.1,2.1,0,0,1-1.6-.6,1.7,1.7,0,0,1-.7-1.4,1.7,1.7,0,0,1,.3-1l.8-.6-.7-.6a2.9,2.9,0,0,1-.2-.9,1.8,1.8,0,0,1,.6-1.4,2.5,2.5,0,0,1,1.5-.5,2.5,2.5,0,0,1,1.6.5A1.8,1.8,0,0,1,162.9,138.1Zm-1.2,3a.9.9,0,0,0-.3-.7,1.3,1.3,0,0,0-1.4,0,1.3,1.3,0,0,0,0,1.4.9.9,0,0,0,.7.3,1,1,0,0,0,1-1Zm-.2-2.9c0-.3,0-.5-.2-.6a.6.6,0,0,0-.6-.3l-.6.2a1.4,1.4,0,0,0-.2.7.8.8,0,0,0,.2.6l.6.3a.6.6,0,0,0,.6-.3C161.5,138.7,161.5,138.5,161.5,138.2Zm2.5,4.2a.5.5,0,0,1,.3-.5l.5-.2.5.2a.6.6,0,0,1,0,1c-.1.2-.3.2-.5.2s-.4,0-.5-.2A.5.5,0,0,1,164,142.4Zm3.1,2.4-.7-.4.2-.3a2.6,2.6,0,0,0,.3-1.1v-1.1H168v1a2.2,2.2,0,0,1-.3,1A4.7,4.7,0,0,1,167.1,144.8Zm5.9-4.3h.7v1.1H173v1.5h-1.4v-1.5h-2.7v-.8l2.8-4.5H173Zm-2.9,0h1.5v-2.2Zm8.9-.2a3.3,3.3,0,0,1-.6,2.1,2,2,0,0,1-1.7.8,2.1,2.1,0,0,1-1.7-.8,2.8,2.8,0,0,1-.6-2v-1.3a3.3,3.3,0,0,1,.6-2.1,2.2,2.2,0,0,1,3.4,0,2.8,2.8,0,0,1,.6,2Zm-1.4-1.4a2.2,2.2,0,0,0-.2-1.2.7.7,0,0,0-.7-.4.8.8,0,0,0-.7.4,2.7,2.7,0,0,0-.2,1.1v1.7a2.2,2.2,0,0,0,.2,1.2.8.8,0,0,0,1.4,0,2,2,0,0,0,.2-1.2Zm6.8,1.4a4.1,4.1,0,0,1-.5,2.1,2.1,2.1,0,0,1-1.7.8,2,2,0,0,1-1.7-.8,2.8,2.8,0,0,1-.6-2v-1.3a3.3,3.3,0,0,1,.6-2.1,2,2,0,0,1,1.7-.8,1.8,1.8,0,0,1,1.6.8,2.8,2.8,0,0,1,.6,2Zm-1.3-1.4a3.7,3.7,0,0,0-.2-1.2.8.8,0,0,0-.7-.4c-.4,0-.6.1-.7.4a1.6,1.6,0,0,0-.3,1.1v1.7a3.7,3.7,0,0,0,.2,1.2.8.8,0,0,0,.8.4.8.8,0,0,0,.7-.4,3.3,3.3,0,0,0,.2-1.2Zm2.4,3.5c0-.2,0-.4.2-.5l.5-.2.6.2a.7.7,0,0,1,0,1,.7.7,0,0,1-.6.2c-.2,0-.4,0-.5-.2S185.5,142.6,185.5,142.4Zm7.2.7h-4.6v-.9l2.2-2.4.7-.8a2.5,2.5,0,0,0,.2-.7.8.8,0,0,0-.3-.7.6.6,0,0,0-.6-.3.9.9,0,0,0-.7.3,1.1,1.1,0,0,0-.3.8H188a2.3,2.3,0,0,1,.3-1.1,2,2,0,0,1,.8-.8l1.2-.3a2.3,2.3,0,0,1,1.6.5,1.8,1.8,0,0,1,.6,1.4,4.3,4.3,0,0,1-.2,1.1l-.9,1.2-1.6,1.6h2.9Zm4.1,0h-1.3v-5.2l-1.6.5v-1.1l2.8-1h.1Z" transform="translate(-54.6 0)"/><path d="M88.6,143.1v-6.8h1.9a3.3,3.3,0,0,1,1.5.4,2.9,2.9,0,0,1,1.1,1.1,4.3,4.3,0,0,1,.4,1.7v.4a4.7,4.7,0,0,1-.4,1.7,2.9,2.9,0,0,1-1.1,1.1,3.8,3.8,0,0,1-1.6.4Zm.9-6v5.2h.9a2.1,2.1,0,0,0,1.6-.6,2.4,2.4,0,0,0,.6-1.8v-.4a2.4,2.4,0,0,0-.6-1.8,1.8,1.8,0,0,0-1.5-.6Zm4.9,3.4a2.8,2.8,0,0,1,.3-1.3,2.4,2.4,0,0,1,.8-.9,2.7,2.7,0,0,1,1.2-.3,2.1,2.1,0,0,1,1.7.7,2.7,2.7,0,0,1,.6,1.9h0a2.8,2.8,0,0,1-.3,1.3,1.8,1.8,0,0,1-.8.9,1.6,1.6,0,0,1-1.2.4,2.2,2.2,0,0,1-1.6-.7,2.9,2.9,0,0,1-.7-1.9Zm.9.1a2.1,2.1,0,0,0,.4,1.4,1.2,1.2,0,0,0,1,.5,1.4,1.4,0,0,0,1.1-.5,3.3,3.3,0,0,0,.3-1.5,2.5,2.5,0,0,0-.3-1.3,1.3,1.3,0,0,0-1.1-.5,1.1,1.1,0,0,0-1,.5A2,2,0,0,0,95.3,140.6Zm4.6-.1a2.7,2.7,0,0,1,.2-1.3,2.4,2.4,0,0,1,.8-.9,2.7,2.7,0,0,1,1.2-.3,2.1,2.1,0,0,1,1.7.7,2.7,2.7,0,0,1,.6,1.9h0a2.8,2.8,0,0,1-.3,1.3,1.8,1.8,0,0,1-.8.9,1.6,1.6,0,0,1-1.2.4,2.4,2.4,0,0,1-1.6-.7,2.9,2.9,0,0,1-.6-1.9Zm.8.1a2.1,2.1,0,0,0,.4,1.4,1.4,1.4,0,0,0,1,.5,1.4,1.4,0,0,0,1.1-.5,3.3,3.3,0,0,0,.4-1.5,2.5,2.5,0,0,0-.4-1.3,1.2,1.2,0,0,0-1.1-.5,1.1,1.1,0,0,0-1,.5A2,2,0,0,0,100.7,140.6Zm5.7-1.9a1.5,1.5,0,0,1,1.4-.7c1.1,0,1.6.6,1.6,1.8v3.3h-.8v-3.3c0-.4-.1-.7-.3-.8a.8.8,0,0,0-.7-.3l-.8.2a2.1,2.1,0,0,0-.4.6v3.6h-.9V136h.9Zm5.6-2.4,2.2,5.5,2.2-5.5h1.2v6.8h-.9v-5.5l-2.3,5.5h-.6l-2.2-5.5v5.5h-.8v-6.8Zm6.8,4.2a2.8,2.8,0,0,1,.3-1.3,1.8,1.8,0,0,1,.8-.9,2.1,2.1,0,0,1,1.2-.3,2,2,0,0,1,1.6.7,2.7,2.7,0,0,1,.6,1.9h0a2.7,2.7,0,0,1-.2,1.3,2.4,2.4,0,0,1-.8.9,1.9,1.9,0,0,1-1.2.4,2.4,2.4,0,0,1-1.7-.7,2.9,2.9,0,0,1-.6-1.9Zm.8.1a2.9,2.9,0,0,0,.4,1.4,1.4,1.4,0,0,0,1.1.5,1.4,1.4,0,0,0,1-.5,2.4,2.4,0,0,0,.4-1.5,1.8,1.8,0,0,0-.4-1.3,1.1,1.1,0,0,0-1-.5,1.2,1.2,0,0,0-1.1.5A2.6,2.6,0,0,0,119.6,140.6Zm7.2-1.8h-.4a1.1,1.1,0,0,0-1.1.7v3.6h-.9v-5h.9v.5a1.2,1.2,0,0,1,1.2-.6h.3Zm2.8,4.4a2.2,2.2,0,0,1-1.6-.7,2.3,2.3,0,0,1-.7-1.8v-.2a2.8,2.8,0,0,1,.3-1.3,2.4,2.4,0,0,1,.8-.9,2,2,0,0,1,1.1-.3,1.8,1.8,0,0,1,1.5.6,2.7,2.7,0,0,1,.6,1.9v.3h-3.4a1.6,1.6,0,0,0,.4,1.2,1.4,1.4,0,0,0,1.1.5l.7-.2.6-.5.5.4A2.1,2.1,0,0,1,129.6,143.2Zm-.1-4.5-.9.3a3.6,3.6,0,0,0-.4,1.1h2.5a1.7,1.7,0,0,0-.3-1A1.2,1.2,0,0,0,129.5,138.7Z" transform="translate(-54.6 0)"/><circle class="cls-11" cx="23.7" cy="138.8" r="3.6"/><path d="M150.8,161.5a.8.8,0,0,0-.2-.6l-.8-.5-.8-.3-.7-.5-.4-.5a2.2,2.2,0,0,1-.1-.8,1.9,1.9,0,0,1,.5-1.3,2.6,2.6,0,0,1,1.3-.6v-1h.8v1a1.9,1.9,0,0,1,1.2.7,2,2,0,0,1,.5,1.5h-1.3c0-.4-.1-.7-.3-.8a.6.6,0,0,0-.6-.3.7.7,0,0,0-.6.2.8.8,0,0,0-.2.6,1.4,1.4,0,0,0,.2.6l.8.4.9.4.6.5a1,1,0,0,1,.4.5,1.9,1.9,0,0,1,.1.8,1.7,1.7,0,0,1-.5,1.2,1.6,1.6,0,0,1-1.3.6v.9h-.8v-.9a2.2,2.2,0,0,1-2-2.2h1.4a2,2,0,0,0,.2.9,1.1,1.1,0,0,0,.8.3.6.6,0,0,0,.6-.3A.5.5,0,0,0,150.8,161.5Zm3.6-2.2h.7a1.1,1.1,0,0,0,.8-.3,1.4,1.4,0,0,0,.2-.7,1.4,1.4,0,0,0-.2-.6l-.7-.2-.7.2a.8.8,0,0,0-.2.5h-1.4a1.6,1.6,0,0,1,.3-.9,2.7,2.7,0,0,1,.8-.7l1.1-.2a2.6,2.6,0,0,1,1.7.5,1.8,1.8,0,0,1,.6,1.4,2.9,2.9,0,0,1-.2.9l-.8.6a1.5,1.5,0,0,1,.9.6,2.9,2.9,0,0,1,.2.9,2,2,0,0,1-.6,1.5,2.6,2.6,0,0,1-1.8.5,2.2,2.2,0,0,1-1.6-.5,1.8,1.8,0,0,1-.6-1.4h1.3a.7.7,0,0,0,.3.6,1,1,0,0,0,1.7-.7,1,1,0,0,0-1.1-1h-.7Zm7.3,3.9h-1.3v-5.1l-1.6.5v-1.1l2.8-1h.1Zm2.3-.6a.5.5,0,0,1,.3-.5c.1-.2.3-.2.5-.2s.4,0,.5.2a.6.6,0,0,1,0,1l-.5.2-.5-.2A.5.5,0,0,1,164,162.6Zm4-3.3h.8a1,1,0,0,0,1-1,.9.9,0,0,0-.3-.6l-.7-.2-.6.2a.5.5,0,0,0-.3.5h-1.3a1.6,1.6,0,0,1,.3-.9,1.9,1.9,0,0,1,.8-.7l1.1-.2a2.9,2.9,0,0,1,1.7.5,1.8,1.8,0,0,1,.6,1.4,1.6,1.6,0,0,1-.3.9l-.7.6a1.2,1.2,0,0,1,.8.6,1.6,1.6,0,0,1,.3.9,1.8,1.8,0,0,1-.7,1.5,2.3,2.3,0,0,1-1.7.5,2.1,2.1,0,0,1-1.6-.5,1.6,1.6,0,0,1-.7-1.4h1.4a.9.9,0,0,0,.9.9,1,1,0,0,0,.8-.3.9.9,0,0,0,.3-.7,1,1,0,0,0-1.1-1H168Zm8.7,1.1a3.4,3.4,0,0,1-.6,2.2,2.4,2.4,0,0,1-3.4,0,3.3,3.3,0,0,1-.6-2.1v-1.2a3.4,3.4,0,0,1,.6-2.2,2.4,2.4,0,0,1,3.4,0,3.3,3.3,0,0,1,.6,2.1Zm-1.4-1.3c0-.6,0-1-.2-1.2a.8.8,0,0,0-.7-.4.7.7,0,0,0-.7.4c-.2.2-.2.6-.2,1.1v1.6a2.4,2.4,0,0,0,.2,1.3.8.8,0,0,0,1.4,0,2.2,2.2,0,0,0,.2-1.2Zm6.8,1.3a3.4,3.4,0,0,1-.6,2.2,1.8,1.8,0,0,1-1.7.7,1.8,1.8,0,0,1-1.6-.7,3.3,3.3,0,0,1-.6-2.1v-1.2a4.2,4.2,0,0,1,.5-2.2,2.1,2.1,0,0,1,1.7-.7,1.9,1.9,0,0,1,1.7.7,3.3,3.3,0,0,1,.6,2.1Zm-1.3-1.3a2.9,2.9,0,0,0-.2-1.2.8.8,0,0,0-.8-.4.8.8,0,0,0-.7.4,2.7,2.7,0,0,0-.2,1.1v1.6a3.9,3.9,0,0,0,.2,1.3,1,1,0,0,0,.7.4,1,1,0,0,0,.8-.4,3.7,3.7,0,0,0,.2-1.2Zm2.4,3.5c0-.2,0-.4.2-.5s.3-.2.5-.2a.7.7,0,0,1,.6.2.7.7,0,0,1,0,1l-.6.2-.5-.2C183.2,163,183.2,162.8,183.2,162.6Zm2.8-2.7.4-3.4h3.8v1.1h-2.7l-.2,1.5a1.9,1.9,0,0,1,1-.3,1.8,1.8,0,0,1,1.5.6,2.4,2.4,0,0,1,.6,1.7,2,2,0,0,1-.3,1.1,1.8,1.8,0,0,1-.8.9l-1.2.2a2,2,0,0,1-1.1-.2,2.2,2.2,0,0,1-.9-.7,1.9,1.9,0,0,1-.3-1h1.3l.3.6a.9.9,0,0,0,.7.3,1,1,0,0,0,.7-.4c.2-.2.2-.5.2-.9s0-.7-.2-.9a1.1,1.1,0,0,0-.8-.3,1,1,0,0,0-.8.3h-.1Zm9.6-1.6a1.5,1.5,0,0,1-.2.9l-.7.6a1.6,1.6,0,0,1,.8.6,1.9,1.9,0,0,1-.3,2.4,2.3,2.3,0,0,1-1.7.5,2.5,2.5,0,0,1-1.7-.5,1.9,1.9,0,0,1-.3-2.4,1.6,1.6,0,0,1,.8-.6l-.7-.6a1.5,1.5,0,0,1-.2-.9,2.2,2.2,0,0,1,.5-1.4,2.8,2.8,0,0,1,3.2,0A2,2,0,0,1,195.6,158.3Zm-1.2,3a.8.8,0,0,0-.2-.7,1,1,0,0,0-1.4,0,1.3,1.3,0,0,0,0,1.4,1,1,0,0,0,1.4,0A.8.8,0,0,0,194.4,161.3Zm-.1-2.9a1.4,1.4,0,0,0-.2-.7l-.6-.2-.6.2a1.4,1.4,0,0,0-.2.7,1.4,1.4,0,0,0,.2.6.7.7,0,0,0,.6.2c.3,0,.5,0,.6-.2A1.4,1.4,0,0,0,194.3,158.4Z" transform="translate(-54.6 0)"/><path d="M89.2,162.5h3.9v.7H88.2v-.6l3.7-5.4H88.2v-.7H93v.6Zm4.6-1.8a2.8,2.8,0,0,1,.3-1.3,1.8,1.8,0,0,1,.8-.9,1.6,1.6,0,0,1,1.2-.4,2.4,2.4,0,0,1,1.6.7,2.9,2.9,0,0,1,.7,1.9h0a2.8,2.8,0,0,1-.3,1.3,2.4,2.4,0,0,1-.8.9l-1.2.3a2.1,2.1,0,0,1-1.7-.7,2.7,2.7,0,0,1-.6-1.9Zm.9.1a2.5,2.5,0,0,0,.3,1.3,1.2,1.2,0,0,0,1.1.5,1,1,0,0,0,1-.5,2,2,0,0,0,.4-1.4,1.7,1.7,0,0,0-.4-1.3,1.2,1.2,0,0,0-1-.6,1.4,1.4,0,0,0-1.1.5A3.3,3.3,0,0,0,94.7,160.8Zm4.5-.1a2.8,2.8,0,0,1,.3-1.3,2.4,2.4,0,0,1,.8-.9,1.6,1.6,0,0,1,1.2-.4,2.2,2.2,0,0,1,1.6.7,2.5,2.5,0,0,1,.7,1.9h0a2.8,2.8,0,0,1-.3,1.3,2.4,2.4,0,0,1-.8.9l-1.2.3a2.2,2.2,0,0,1-1.7-.7,2.7,2.7,0,0,1-.6-1.9Zm.9.1a2.5,2.5,0,0,0,.3,1.3,1.3,1.3,0,0,0,1.1.5,1,1,0,0,0,1-.5,2,2,0,0,0,.4-1.4,1.7,1.7,0,0,0-.4-1.3,1.1,1.1,0,0,0-1-.6,1.2,1.2,0,0,0-1,.5A2.4,2.4,0,0,0,100.1,160.8Zm5.6-2.6v.6a1.6,1.6,0,0,1,1.5-.7,1.5,1.5,0,0,1,1.4.8l.6-.5a1.7,1.7,0,0,1,1-.3c1.1,0,1.7.6,1.7,1.8v3.3H111v-3.3a1.9,1.9,0,0,0-.2-.8c-.2-.2-.5-.2-.9-.2l-.8.2a1.1,1.1,0,0,0-.3.8v3.3h-.9V160c0-.8-.3-1.1-1.1-1.1a1.1,1.1,0,0,0-1.1.7v3.6h-.9v-5Zm7.6,5v-6.7h1.9a2.9,2.9,0,0,1,1.6.4,2.2,2.2,0,0,1,1,1.1,2.9,2.9,0,0,1,.4,1.6v.5a2.7,2.7,0,0,1-.4,1.6,2.2,2.2,0,0,1-1,1.1,2.9,2.9,0,0,1-1.6.4Zm.9-6v5.3h.9a2.1,2.1,0,0,0,1.6-.6,2.8,2.8,0,0,0,.6-1.8v-.4a3,3,0,0,0-.5-1.8,1.9,1.9,0,0,0-1.6-.7Zm5,3.5a2.8,2.8,0,0,1,.3-1.3,1.8,1.8,0,0,1,.8-.9,1.5,1.5,0,0,1,1.1-.4,2.4,2.4,0,0,1,1.7.7,2.9,2.9,0,0,1,.6,1.9h0a5.1,5.1,0,0,1-.2,1.3,2,2,0,0,1-.9.9,2,2,0,0,1-1.1.3,2.1,2.1,0,0,1-1.7-.7,2.7,2.7,0,0,1-.6-1.9Zm.8.1a2.5,2.5,0,0,0,.4,1.3,1.2,1.2,0,0,0,1.1.5,1.1,1.1,0,0,0,1-.5,2.6,2.6,0,0,0,.4-1.4,2.2,2.2,0,0,0-.4-1.3,1.3,1.3,0,0,0-1.1-.6,1.4,1.4,0,0,0-1,.5A3.3,3.3,0,0,0,120,160.8Zm4.6-.1a2.8,2.8,0,0,1,.3-1.3,1.8,1.8,0,0,1,.8-.9,1.6,1.6,0,0,1,1.2-.4,2.4,2.4,0,0,1,1.6.7,2.9,2.9,0,0,1,.6,1.9h0a2.7,2.7,0,0,1-.2,1.3,2.4,2.4,0,0,1-.8.9l-1.2.3a2.1,2.1,0,0,1-1.7-.7,2.7,2.7,0,0,1-.6-1.9Zm.8.1a2.5,2.5,0,0,0,.4,1.3,1.2,1.2,0,0,0,1.1.5,1.1,1.1,0,0,0,1-.5,2,2,0,0,0,.4-1.4,1.7,1.7,0,0,0-.4-1.3,1.2,1.2,0,0,0-1-.6,1.4,1.4,0,0,0-1.1.5A3.3,3.3,0,0,0,125.4,160.8Zm5.7-2a2.1,2.1,0,0,1,1.5-.7c1,0,1.6.6,1.6,1.8v3.3h-.9v-3.3a1.9,1.9,0,0,0-.2-.8,1.1,1.1,0,0,0-.8-.2.8.8,0,0,0-.7.2,1,1,0,0,0-.5.6v3.5h-.9v-7.1h.9Z" transform="translate(-54.6 0)"/><circle class="cls-12" cx="23.7" cy="159" r="3.6"/><path d="M300.5,95.7h-2.1v5.8h-1.2V95.7h-2v-.9h5.3Zm-.4,3.3a2.8,2.8,0,0,1,.3-1.3,2.4,2.4,0,0,1,.8-.9,1.9,1.9,0,0,1,1.2-.4,2.1,2.1,0,0,1,1.7.7,2.9,2.9,0,0,1,.7,1.7v.3a2.8,2.8,0,0,1-.3,1.3,2.4,2.4,0,0,1-.8.9,2.7,2.7,0,0,1-1.2.3,1.9,1.9,0,0,1-1.7-.7,2.4,2.4,0,0,1-.7-1.9Zm1.1.1a2.1,2.1,0,0,0,.4,1.2,1,1,0,0,0,.9.4.9.9,0,0,0,.8-.4,1.7,1.7,0,0,0,.4-1.3,1.6,1.6,0,0,0-.4-1.2,1.1,1.1,0,0,0-.9-.5,1,1,0,0,0-.8.5A2.2,2.2,0,0,0,301.2,99.1Zm5.9-3.8v1.2h.9v.9h-.9v2.8a.8.8,0,0,0,.2.4c0,.1.2.1.4.1h.4v.8h-.8c-.8,0-1.3-.4-1.3-1.4V97.4h-.8v-.9h.8V95.3Zm4.8,6.2c-.1-.1-.1-.2-.1-.4a2.2,2.2,0,0,1-1.4.5,1.6,1.6,0,0,1-1.2-.4,1.5,1.5,0,0,1,.1-2.3,2.9,2.9,0,0,1,1.7-.4h.7v-.4a.7.7,0,0,0-.2-.6l-.7-.2-.6.2a.8.8,0,0,0-.2.5h-1.2a1.1,1.1,0,0,1,.3-.8,2.8,2.8,0,0,1,.8-.6l1-.2a2,2,0,0,1,1.4.5,1.7,1.7,0,0,1,.6,1.2v2.3a3.7,3.7,0,0,0,.1,1.1h-1.1Zm-1.2-.8h.6a1,1,0,0,0,.4-.5v-.9h-.6l-.9.2a.7.7,0,0,0-.3.6c0,.2,0,.4.2.5S310.4,100.7,310.7,100.7Zm4.5.8h-1.1V94.4h1.1Zm1.9-1.1h.5c.1.2.2.3.2.5a.5.5,0,0,1-.2.4l-.5.2a.5.5,0,0,1-.4-.2c-.2-.1-.2-.2-.2-.4a.6.6,0,0,1,.2-.5Zm0-4,.5.2.2.4a.8.8,0,0,1-.2.5l-.5.2a.5.5,0,0,1-.4-.2c-.2-.1-.2-.3-.2-.5a.4.4,0,0,1,.2-.4A.5.5,0,0,1,317.1,96.4Z" transform="translate(-54.6 0)"/><path class="cls-7" d="M275.3,117.5a1.8,1.8,0,0,0-.4-.9l-1.1-.6-1.3-.5a2.5,2.5,0,0,1-1.5-2.4,2.4,2.4,0,0,1,.7-1.7,2.5,2.5,0,0,1,1.7-.8v-1.4h1v1.4a2.6,2.6,0,0,1,1.8.9,3.5,3.5,0,0,1,.6,2.1h-1.6a2.3,2.3,0,0,0-.3-1.3,1.4,1.4,0,0,0-1-.5,1.3,1.3,0,0,0-1,.4,1.5,1.5,0,0,0,0,1.8,4.4,4.4,0,0,0,1.2.6l1.3.6.7.6a1.2,1.2,0,0,1,.5.7,1.6,1.6,0,0,1,.2,1,2.4,2.4,0,0,1-.7,1.8,3,3,0,0,1-1.8.8v1.2h-1v-1.2a2.9,2.9,0,0,1-1.9-.9,2.8,2.8,0,0,1-.7-2.1h1.5a2.2,2.2,0,0,0,.4,1.3,1.6,1.6,0,0,0,1.2.4,1.8,1.8,0,0,0,1.1-.3A1.8,1.8,0,0,0,275.3,117.5Zm7,2.5h-1.5v-7.5l-2.3.8V112l3.7-1.3h.1Zm7.5,0h-1.6v-7.5l-2.2.8V112l3.6-1.3h.2Zm3.6-4.6.5-4.7h5V112h-3.7l-.3,2.2a4,4,0,0,1,1.5-.3,2.9,2.9,0,0,1,2.1.8,3.9,3.9,0,0,1,.7,2.3,3.6,3.6,0,0,1-.8,2.3,3.4,3.4,0,0,1-2.3.8,3.8,3.8,0,0,1-2.1-.7,3.4,3.4,0,0,1-.9-1.9h1.5a1.6,1.6,0,0,0,.5,1,1.8,1.8,0,0,0,1,.4,1.1,1.1,0,0,0,1.1-.6,1.8,1.8,0,0,0,.4-1.3,2,2,0,0,0-.4-1.4,1.7,1.7,0,0,0-1.2-.5h-.7l-.7.5Zm7.3,6.7-.8-.5.5-1.1a1.9,1.9,0,0,0,.1-.8v-1.2h1.4v1.1a3.1,3.1,0,0,1-.3,1.3A2.7,2.7,0,0,1,300.7,122.1Zm6.8-2.1h-1.6v-7.5l-2.2.8V112l3.6-1.3h.2Zm8-9.4v1.3h-.2a3.8,3.8,0,0,0-2.1.7,3.4,3.4,0,0,0-.9,2,2.7,2.7,0,0,1,1.9-.8,2.5,2.5,0,0,1,2,.9,3.8,3.8,0,0,1,.7,2.2,3,3,0,0,1-.9,2.3,2.6,2.6,0,0,1-2.1.9,3.1,3.1,0,0,1-2.3-1,4,4,0,0,1-.9-2.7v-.6a5.6,5.6,0,0,1,1.2-3.8,4.5,4.5,0,0,1,3.5-1.4Zm-1.7,4.5a1.6,1.6,0,0,0-.9.3,1.1,1.1,0,0,0-.6.7v.5a2.5,2.5,0,0,0,.4,1.6,1.4,1.4,0,0,0,1.1.6c.5,0,.9-.1,1.1-.5a1.8,1.8,0,0,0,.4-1.3,2,2,0,0,0-.4-1.4C314.7,115.2,314.3,115.1,313.8,115.1Zm8.5,4.9h-1.5v-7.5l-2.3.8V112l3.6-1.3h.2Zm4.3-1.7a.9.9,0,0,1,.7.3.8.8,0,0,1,.2.6,1.4,1.4,0,0,1-.2.6,1.3,1.3,0,0,1-1.4,0,1.4,1.4,0,0,1-.2-.6.8.8,0,0,1,.2-.6A.9.9,0,0,1,326.6,118.3Zm8.7-6.8-3.7,8.5H330l3.7-8.1h-4.8v-1.2h6.4Zm3.1,3.1h.9a1.6,1.6,0,0,0,1.2-.4,1.3,1.3,0,0,0,.4-1,1.4,1.4,0,0,0-1.4-1.4,1.4,1.4,0,0,0-1.1.4,1.3,1.3,0,0,0-.4.9h-1.5a2,2,0,0,1,.4-1.3,2.2,2.2,0,0,1,1-.9,4,4,0,0,1,1.5-.3,2.9,2.9,0,0,1,2.2.7,2.1,2.1,0,0,1,.8,1.9,1.9,1.9,0,0,1-.4,1.2,2.7,2.7,0,0,1-1,.8,3.6,3.6,0,0,1,1.2.8,2.9,2.9,0,0,1,.4,1.4,2.2,2.2,0,0,1-.9,1.9,3.4,3.4,0,0,1-2.3.8,3,3,0,0,1-2.1-.7,2.3,2.3,0,0,1-.9-1.9h1.5a1.4,1.4,0,0,0,.5,1,1.6,1.6,0,0,0,1.1.4,2.1,2.1,0,0,0,1.1-.4,1.5,1.5,0,0,0,.4-1.1,1.6,1.6,0,0,0-.4-1.2,2.2,2.2,0,0,0-1.3-.4h-.9Z" transform="translate(-54.6 0)"/><circle class="cls-1" cx="252.7" cy="108" r="63.5"/><g class="cls-13"><path class="cls-11" d="M306.7,121V4.2L179.7,121Z" transform="translate(-54.6 0)"/><path class="cls-10" d="M408.7,108H205.2v5.3l19,84.8,144.2,6.6Z" transform="translate(-54.6 0)"/></g><line class="cls-14" x1="252.1" y1="32" x2="252.1" y2="56.9"/><line class="cls-14" x1="176.8" y1="107.4" x2="328.6" y2="107.4"/><rect class="cls-6" x="18.3" y="71.7" width="44.3" height="17.95"/><rect class="cls-7" x="62.1" y="71.2" width="45.4" height="19"/><rect class="cls-6" x="107" y="71.7" width="44.3" height="17.95"/><path class="cls-8" d="M78.1,83.8h2.8v.7H77.3v-6h.8Zm6.4.7a.7.7,0,0,1-.1-.5,1.7,1.7,0,0,1-1.3.5,1.8,1.8,0,0,1-1.1-.3,1.3,1.3,0,0,1-.4-1,1.6,1.6,0,0,1,.5-1.1,3.3,3.3,0,0,1,1.5-.3h.7v-.4c0-.3,0-.5-.2-.6a.9.9,0,0,0-.7-.3l-.7.2c-.2.2-.3.3-.3.5h-.7a.7.7,0,0,1,.2-.6l.6-.5.9-.2a1.7,1.7,0,0,1,1.3.4,1.8,1.8,0,0,1,.4,1.1v2a2.5,2.5,0,0,0,.2,1h-.8Zm-1.3-.6.7-.2a1,1,0,0,0,.4-.5v-.9h-.6c-.9,0-1.4.3-1.4.8a.7.7,0,0,0,.3.6Zm5.7-.6a.8.8,0,0,0-.2-.5l-.8-.3-1-.3a1,1,0,0,1-.5-.4,1.3,1.3,0,0,1-.1-.6,1.1,1.1,0,0,1,.4-.9,2,2,0,0,1,2.4,0,1.1,1.1,0,0,1,.5,1h-.7a.5.5,0,0,0-.3-.5.9.9,0,0,0-.7-.3.8.8,0,0,0-.6.2.5.5,0,0,0-.3.5c0,.2.1.3.3.4l.7.3,1,.3.5.4a1.4,1.4,0,0,1,.2.6,1.4,1.4,0,0,1-.5,1,2.3,2.3,0,0,1-1.3.3H87a2,2,0,0,1-.7-.6,1.4,1.4,0,0,1-.2-.7h.8a.9.9,0,0,0,.3.6l.7.2c.3,0,.6,0,.7-.2S88.9,83.5,88.9,83.3Zm2.8-4.4V80h.8v.6h-.8v2.8a.6.6,0,0,0,.1.4h.7v.7H92a1,1,0,0,1-.8-.3,1.1,1.1,0,0,1-.3-.8V80.6h-.8V80h.8V78.9Zm8.5,5.6h-.7V81.7H96.4v2.8h-.8v-6h.8V81h3.1V78.5h.7Zm1.1-2.3a2.7,2.7,0,0,1,.3-1.2,2.7,2.7,0,0,1,.7-.8,2,2,0,0,1,1.1-.3,1.7,1.7,0,0,1,1.4.6,2.5,2.5,0,0,1,.6,1.7h0a2.7,2.7,0,0,1-.3,1.2,1.8,1.8,0,0,1-.7.8l-1,.2a2,2,0,0,1-1.5-.6,2.4,2.4,0,0,1-.6-1.7Zm.8.1a2.1,2.1,0,0,0,.3,1.2,1.3,1.3,0,0,0,1,.4,1,1,0,0,0,.9-.4,2.5,2.5,0,0,0,.3-1.3,2.1,2.1,0,0,0-.3-1.2,1.2,1.2,0,0,0-.9-.5,1.4,1.4,0,0,0-1,.5A2.3,2.3,0,0,0,102.1,82.3Zm7,1.7a1.4,1.4,0,0,1-1.3.5,1.4,1.4,0,0,1-1.1-.4,1.9,1.9,0,0,1-.4-1.2V80h.8v2.9c0,.7.3,1,.8,1a1.1,1.1,0,0,0,1.2-.7V80h.7v4.5h-.7Zm4.1-3.3h-.4a1,1,0,0,0-1,.6v3.2H111V80h.8v.5a1.1,1.1,0,0,1,1-.6h.4Z" transform="translate(-54.6 0)"/><path class="cls-9" d="M125.7,83.6h2.8v.9h-3.8v-6h1Zm6.1.9a1.1,1.1,0,0,0-.1-.5,1.3,1.3,0,0,1-1.1.5,1.6,1.6,0,0,1-1.1-.3,1.4,1.4,0,0,1-.5-1,1.3,1.3,0,0,1,.6-1.1,2.7,2.7,0,0,1,1.5-.4h.6v-.3a.8.8,0,0,0-.2-.5l-.6-.2a.7.7,0,0,0-.6.2.5.5,0,0,0-.2.4h-1a.9.9,0,0,1,.3-.7,1,1,0,0,1,.6-.5l1-.2a1.6,1.6,0,0,1,1.2.4,1.4,1.4,0,0,1,.5,1.1v2a1.5,1.5,0,0,0,.2,1h-1.1Zm-1.1-.8h.6a.8.8,0,0,0,.4-.4v-.8h-.6a1.1,1.1,0,0,0-.8.2.5.5,0,0,0-.3.5.8.8,0,0,0,.2.5Zm5.5-.5a.4.4,0,0,0-.2-.4l-.7-.2-.9-.3a1,1,0,0,1-.7-1,1.1,1.1,0,0,1,.5-1,1.6,1.6,0,0,1,1.2-.4,1.8,1.8,0,0,1,1.3.4,1.4,1.4,0,0,1,.5,1h-1a.5.5,0,0,0-.2-.4.7.7,0,0,0-.6-.2h-.5a.4.4,0,0,0-.2.4c0,.2,0,.3.2.4a1,1,0,0,0,.7.2l1,.4a1,1,0,0,1,.5.4,1.3,1.3,0,0,1,.1.6,1.1,1.1,0,0,1-.5,1,2.3,2.3,0,0,1-1.3.3,1.8,1.8,0,0,1-1-.2,1.5,1.5,0,0,1-.6-.5,1.1,1.1,0,0,1-.3-.7h1a.5.5,0,0,0,.3.5l.6.2.6-.2C136.2,83.5,136.2,83.4,136.2,83.2Zm3.2-4.3V80h.7v.7h-.7v2.5c0,.2,0,.3.1.4s.1.1.3.1h.4v.7h-.7c-.8,0-1.1-.4-1.1-1.2V80.7h-.8V80h.8V78.9Zm7.6,5.6h-4v-.7l2-2.2.6-.8a1.4,1.4,0,0,0,.2-.7.9.9,0,0,0-.3-.7l-.6-.2a1,1,0,0,0-1.1,1.1h-1a1.7,1.7,0,0,1,.3-1,2.3,2.3,0,0,1,.7-.7l1.1-.2a1.7,1.7,0,0,1,1.3.4,1.4,1.4,0,0,1,.6,1.2,2.2,2.2,0,0,1-.3,1,5.9,5.9,0,0,1-.8,1.1l-1.5,1.6H147Zm4.1-2.2h.8v.8h-.8v1.4h-1V83.1h-2.6v-.6l2.6-4h1Zm-2.5,0h1.5V79.8h0Zm5-1.8a1.4,1.4,0,0,1,1.2-.6,1.4,1.4,0,0,1,1.5,1.6v3h-1V81.6a1.4,1.4,0,0,0-.2-.7.8.8,0,0,0-.6-.2,1,1,0,0,0-.9.6v3.2h-1V78.1h1Z" transform="translate(-54.6 0)"/><path class="cls-8" d="M166.8,83.8h2.8v.7H166v-6h.8Zm6.3.7a1.1,1.1,0,0,0-.1-.5,1.3,1.3,0,0,1-1.2.5,1.8,1.8,0,0,1-1.1-.3,1.5,1.5,0,0,1,.1-2.1,2.8,2.8,0,0,1,1.5-.3h.7v-.4a.8.8,0,0,0-.2-.6.9.9,0,0,0-.7-.3l-.7.2c-.2.2-.3.3-.3.5h-.8a.9.9,0,0,1,.3-.6,1.5,1.5,0,0,1,.6-.5l.9-.2a1.6,1.6,0,0,1,1.2.4,1.4,1.4,0,0,1,.5,1.1v2a2.8,2.8,0,0,0,.1,1h-.8Zm-1.2-.6.7-.2a1,1,0,0,0,.4-.5v-.9h-.6c-.9,0-1.4.3-1.4.8a.7.7,0,0,0,.3.6A.8.8,0,0,0,171.9,83.9Zm5.7-.6a.5.5,0,0,0-.3-.5l-.8-.3-.9-.3a1,1,0,0,1-.5-.4,1.4,1.4,0,0,1-.2-.6,1.2,1.2,0,0,1,.5-.9,2,2,0,0,1,2.4,0,1.4,1.4,0,0,1,.5,1h-.8a.8.8,0,0,0-.2-.5.9.9,0,0,0-.7-.3l-.7.2a.8.8,0,0,0-.2.5.5.5,0,0,0,.2.4l.8.3.9.3a1.5,1.5,0,0,1,.6.4,1.3,1.3,0,0,1,.1.6,1.3,1.3,0,0,1-.4,1,2.8,2.8,0,0,1-1.3.3h-.9a2,2,0,0,1-.7-.6,1.4,1.4,0,0,1-.2-.7h.8a.9.9,0,0,0,.3.6l.7.2a.8.8,0,0,0,.7-.2C177.5,83.6,177.6,83.5,177.6,83.3Zm2.8-4.4V80h.8v.6h-.8v2.8a.6.6,0,0,0,.1.4h.7v.7h-.6a.8.8,0,0,1-.7-.3,1.1,1.1,0,0,1-.3-.8V80.6h-.8V80h.8V78.9Zm7.7,4.5L189,80h.8l-1.3,4.5h-.7l-1-3.4-1.1,3.4h-.6L183.8,80h.7l.9,3.3,1.1-3.3h.6Zm4.3,1.1a2.5,2.5,0,0,1-1.5-.5,2.3,2.3,0,0,1-.6-1.6v-.2a2.7,2.7,0,0,1,.3-1.2,2.7,2.7,0,0,1,.7-.8,1.7,1.7,0,0,1,1-.3,1.5,1.5,0,0,1,1.3.6,2.1,2.1,0,0,1,.5,1.6v.3h-3a1.4,1.4,0,0,0,.4,1.1,1.1,1.1,0,0,0,.9.4h.7c.2-.2.4-.3.5-.5l.5.4A1.9,1.9,0,0,1,192.4,84.5Zm-.1-4a1.2,1.2,0,0,0-.8.4,1.9,1.9,0,0,0-.4.9h2.3a4.6,4.6,0,0,0-.3-.9A1.2,1.2,0,0,0,192.3,80.5Zm4.6,4a2.5,2.5,0,0,1-1.5-.5,2.3,2.3,0,0,1-.6-1.6v-.2a2.7,2.7,0,0,1,.3-1.2,1.8,1.8,0,0,1,.7-.8,1.7,1.7,0,0,1,1-.3,1.5,1.5,0,0,1,1.3.6,2.5,2.5,0,0,1,.5,1.6v.3h-3a1.4,1.4,0,0,0,.4,1.1,1,1,0,0,0,.9.4h.7l.5-.5.5.4A1.9,1.9,0,0,1,196.9,84.5Zm-.1-4a1.2,1.2,0,0,0-.8.4,1.9,1.9,0,0,0-.4.9h2.2a1.2,1.2,0,0,0-.3-.9A1,1,0,0,0,196.8,80.5Zm3.9,1.9-.4.5v1.6h-.8V78.1h.8V82l.4-.5,1.4-1.5h.9l-1.7,1.9,1.9,2.6h-.9Z" transform="translate(-54.6 0)"/></svg>