<svg id="Layer_1" data-name="Layer 1" xmlns="http://www.w3.org/2000/svg" xmlns:xlink="http://www.w3.org/1999/xlink" viewBox="0 0 591 258"><defs><style>.cls-1,.cls-21{fill:#fff;}.cls-1,.cls-5{stroke:#e7e7e7;}.cls-1{stroke-width:0.85px;}.cls-2{fill:#c4c4c4;}.cls-3{fill:#1f0d52;}.cls-4{mask:url(#mask);}.cls-46,.cls-48,.cls-49,.cls-5{fill:none;}.cls-6{fill:#ffaea7;}.cls-7{mask:url(#mask-2);}.cls-8{fill:#f2f7fe;}.cls-9{fill:#aeb8e0;}.cls-10{fill:#f9cd56;}.cls-11{fill:#3a404f;}.cls-12{fill:#dae0f3;}.cls-13{fill:#441fd8;}.cls-14{fill:#d6a0ff;}.cls-15{fill:#ddf0fe;}.cls-16{fill:#bac5e6;}.cls-17{fill:#5e6880;}.cls-18{fill:#f9b602;}.cls-19{fill:#2d3540;}.cls-20{fill:#828fb0;}.cls-22{mask:url(#mask-3);}.cls-23{fill:#9196aa;}.cls-24{fill:#c48958;}.cls-25{fill:#e0b8ff;}.cls-26{fill:#707789;}.cls-27{fill:#b27a49;}.cls-28{fill:#555a66;}.cls-29{fill:#9e6f46;}.cls-30{fill:#c78ff5;}.cls-31{fill:#636978;}.cls-32{fill:#b674f2;}.cls-33{fill:#4e535e;}.cls-34{fill:#8f4cd6;}.cls-35{fill:#333940;}.cls-36{fill:#e3a76f;}.cls-37{fill:#d6995c;}.cls-38{fill:#cdd2e1;}.cls-39{fill:#bec3d2;}.cls-40{fill:#e9edf5;}.cls-41{fill:#d2a0f5;}.cls-42{fill:#f2f5f9;}.cls-43{fill:#f6fafd;}.cls-44{fill:#f5e1ff;}.cls-45{fill:#ededed;}.cls-46,.cls-49{stroke:#14aead;}.cls-46{stroke-width:9px;}.cls-47{fill:#14aead;}.cls-48{stroke:#ddd;}</style><mask id="mask" x="0" y="80" width="319" height="178" maskUnits="userSpaceOnUse"><g transform="translate(-44)"><g id="mask0"><path class="cls-1" d="M44.4,88.5a8.1,8.1,0,0,1,8.1-8.1h302a8.1,8.1,0,0,1,8.1,8.1v161a8.1,8.1,0,0,1-8.1,8.1H52.5a8.1,8.1,0,0,1-8.1-8.1Z"/></g></g></mask><mask id="mask-2" x="21" y="124" width="155" height="89" maskUnits="userSpaceOnUse"><g transform="translate(-44)"><g id="mask1"><rect class="cls-2" x="65" y="124" width="155" height="78" rx="5"/></g></g></mask><mask id="mask-3" x="194" y="124" width="155" height="97" maskUnits="userSpaceOnUse"><g transform="translate(-44)"><g id="mask2"><rect class="cls-3" x="238" y="124" width="155" height="78" rx="5"/></g></g></mask></defs><path class="cls-1" d="M44.4,88.5a8.1,8.1,0,0,1,8.1-8.1h302a8.1,8.1,0,0,1,8.1,8.1v161a8.1,8.1,0,0,1-8.1,8.1H52.5a8.1,8.1,0,0,1-8.1-8.1Z" transform="translate(-44)"/><g class="cls-4"><rect class="cls-5" x="17.5" y="120.5" width="161" height="109" rx="4.5"/><path d="M76.1,220.1h4v.9H75v-8.4h1.1Zm7.7,1a2.9,2.9,0,0,1-2.1-.8,3.4,3.4,0,0,1-.8-2.3v-.2a2.9,2.9,0,0,1,.4-1.6,2.3,2.3,0,0,1,1-1.2,2.8,2.8,0,0,1,1.3-.4,2.3,2.3,0,0,1,1.9.8,3.3,3.3,0,0,1,.7,2.3v.5H82a2.5,2.5,0,0,0,.5,1.5,2.2,2.2,0,0,0,2.3.3,1.3,1.3,0,0,0,.7-.6l.6.5A2.6,2.6,0,0,1,83.8,221.1Zm-.2-5.6a1.4,1.4,0,0,0-1,.5,2.3,2.3,0,0,0-.6,1.3h3.1a1.6,1.6,0,0,0-.4-1.2A1.4,1.4,0,0,0,83.6,215.5Zm6.4,4.7a1.7,1.7,0,0,0,1-.3,1,1,0,0,0,.4-.9h1.1a4.9,4.9,0,0,1-.4,1.1,2.2,2.2,0,0,1-.9.7l-1.2.3a2.9,2.9,0,0,1-2.1-.8,3.6,3.6,0,0,1-.7-2.4h0a4.3,4.3,0,0,1,.3-1.7,3.5,3.5,0,0,1,1-1.1,3.3,3.3,0,0,1,1.5-.4,2.2,2.2,0,0,1,1.7.7,2.3,2.3,0,0,1,.8,1.6H91.4a1.4,1.4,0,0,0-1.4-1.4,1.5,1.5,0,0,0-1.3.6,2.9,2.9,0,0,0-.4,1.7v.2a2.9,2.9,0,0,0,.4,1.7A1.7,1.7,0,0,0,90,220.2Zm5.1-7v1.5h1.2v.9H95.1v3.8a.8.8,0,0,0,.2.6.6.6,0,0,0,.5.2h.5v.9h-.8a1.2,1.2,0,0,1-1.1-.4,2.2,2.2,0,0,1-.4-1.3v-3.8H92.9v-.9H94v-1.5Zm5,7.9a2.8,2.8,0,0,1-2-.8,3,3,0,0,1-.8-2.3v-.2a4.1,4.1,0,0,1,.3-1.6,4,4,0,0,1,1-1.2,3.3,3.3,0,0,1,1.4-.4,2.6,2.6,0,0,1,1.9.8,3.9,3.9,0,0,1,.7,2.3v.5H98.3a2,2,0,0,0,.6,1.5,1.5,1.5,0,0,0,1.3.5c.4,0,.7,0,.9-.2a1.3,1.3,0,0,0,.7-.6l.7.5A2.6,2.6,0,0,1,100.1,221.1Zm-.1-5.6a1.6,1.6,0,0,0-1.1.5,1.7,1.7,0,0,0-.5,1.3h3.1a2.1,2.1,0,0,0-.4-1.2A1.6,1.6,0,0,0,100,215.5Zm7.7,4.9a2.4,2.4,0,0,1-1.9.7,2,2,0,0,1-1.5-.6,2.6,2.6,0,0,1-.5-1.7v-4.1h1.1v4.1c0,.9.3,1.4,1.1,1.4a1.5,1.5,0,0,0,1.6-.9v-4.6h1.1V221h-1Zm5.7-4.7h-.6a1.4,1.4,0,0,0-1.4.9V221h-1.1v-6.3h1.1v.8a1.8,1.8,0,0,1,1.5-.9h.5Zm9.6-2.2h-2.7V221h-1.1v-7.5h-2.7v-.9H123Zm2.3,7.5h-1.1v-6.3h1.1Zm-1.2-7.9c0-.2.1-.3.2-.5h.9c.1.2.2.3.2.5a.5.5,0,0,1-.2.4l-.4.2-.5-.2A.5.5,0,0,1,124.1,213.1Zm3.9,1.6v.7a2.6,2.6,0,0,1,1.9-.8,1.9,1.9,0,0,1,1.8,1,2.7,2.7,0,0,1,.8-.7,2.1,2.1,0,0,1,1.2-.3,1.9,1.9,0,0,1,2.1,2.2V221h-1.1v-4.1a1.3,1.3,0,0,0-.3-1,1.1,1.1,0,0,0-1-.4,1.5,1.5,0,0,0-1,.4,1.3,1.3,0,0,0-.5.9V221h-1.1v-4.1c0-.9-.4-1.4-1.3-1.4a1.3,1.3,0,0,0-1.4.9V221H127v-6.3Zm12,6.4a3,3,0,0,1-2.1-.8,3.4,3.4,0,0,1-.8-2.3v-.2a2.9,2.9,0,0,1,.4-1.6,2.3,2.3,0,0,1,1-1.2,3.3,3.3,0,0,1,1.4-.4,2.6,2.6,0,0,1,1.9.8,3.9,3.9,0,0,1,.6,2.3v.5h-4.2a2.5,2.5,0,0,0,.5,1.5,2.2,2.2,0,0,0,2.3.3,1.3,1.3,0,0,0,.7-.6l.6.5A2.6,2.6,0,0,1,140,221.1Zm-.1-5.6a1.4,1.4,0,0,0-1.1.5,2.3,2.3,0,0,0-.6,1.3h3.2a2.2,2.2,0,0,0-.5-1.2A1.2,1.2,0,0,0,139.9,215.5Zm7.4,3.8a.7.7,0,0,0-.3-.6,2.4,2.4,0,0,0-1.2-.4l-1.2-.5a1,1,0,0,1-.7-.5,1.3,1.3,0,0,1-.3-.8,1.4,1.4,0,0,1,.7-1.3,2.3,2.3,0,0,1,1.6-.6,2.8,2.8,0,0,1,1.8.6,1.7,1.7,0,0,1,.6,1.4h-1a1.2,1.2,0,0,0-.4-.8,1.7,1.7,0,0,0-1-.3,1.4,1.4,0,0,0-.9.3.7.7,0,0,0-.3.6.6.6,0,0,0,.3.6l1.1.4a4,4,0,0,1,1.3.4,2.2,2.2,0,0,1,.7.6,1.2,1.2,0,0,1,.3.9,1.5,1.5,0,0,1-.7,1.3,2.9,2.9,0,0,1-1.7.5l-1.4-.2-.9-.8a1.9,1.9,0,0,1-.3-1h1.1a.9.9,0,0,0,.4.8,1.8,1.8,0,0,0,1.1.3c.4,0,.7,0,.9-.2A.8.8,0,0,0,147.3,219.3Zm8.1-2.1a4.1,4.1,0,0,1-2.1-1,2.1,2.1,0,0,1-.7-1.4,2.3,2.3,0,0,1,.8-1.7,3.5,3.5,0,0,1,2.1-.6,3.3,3.3,0,0,1,1.5.3,2.4,2.4,0,0,1,1.1.9,2.8,2.8,0,0,1,.4,1.3h-1.1a1.7,1.7,0,0,0-.5-1.2,2.1,2.1,0,0,0-1.4-.4,2.3,2.3,0,0,0-1.3.3,1.3,1.3,0,0,0-.4,1,1,1,0,0,0,.4.9,3.5,3.5,0,0,0,1.5.7l1.6.6a3.6,3.6,0,0,1,.9.8,2.4,2.4,0,0,1,.3,1.2,2.1,2.1,0,0,1-.8,1.6,3.5,3.5,0,0,1-2.1.6,4.7,4.7,0,0,1-1.7-.3,2.4,2.4,0,0,1-1.5-2.2h1.1a1.7,1.7,0,0,0,.5,1.2,2.5,2.5,0,0,0,1.6.4,1.8,1.8,0,0,0,1.3-.4,1.1,1.1,0,0,0,.5-.9,1.2,1.2,0,0,0-.5-1Zm4.1.6a3.3,3.3,0,0,1,.7-2.3,2,2,0,0,1,1.8-.9,2.1,2.1,0,0,1,1.7.8v-.7h1v8.7h-1.1v-3a2.1,2.1,0,0,1-1.7.7,2,2,0,0,1-1.8-.9,3.3,3.3,0,0,1-.7-2.3Zm1.1.1a2.7,2.7,0,0,0,.4,1.7,1.4,1.4,0,0,0,1.2.6,1.5,1.5,0,0,0,1.5-.8v-3.1a1.6,1.6,0,0,0-1.5-.8,1.4,1.4,0,0,0-1.2.6A3,3,0,0,0,160.6,217.9Zm9.7,2.5a2.1,2.1,0,0,1-1.8.7,1.8,1.8,0,0,1-1.5-.6,2.2,2.2,0,0,1-.5-1.7v-4.1h1v4.1c0,.9.4,1.4,1.2,1.4a1.6,1.6,0,0,0,1.6-.9v-4.6h1.1V221h-1Zm6.6.6c-.1-.1-.1-.3-.2-.7a2.2,2.2,0,0,1-1.8.8,2.5,2.5,0,0,1-1.5-.5,1.8,1.8,0,0,1-.6-1.3,1.6,1.6,0,0,1,.8-1.5,3.3,3.3,0,0,1,2.1-.6h1v-.5a1.2,1.2,0,0,0-.3-.9,1.8,1.8,0,0,0-2,0,1,1,0,0,0-.4.7h-1a1.6,1.6,0,0,1,.3-.9,2.2,2.2,0,0,1,.9-.7,2.7,2.7,0,0,1,1.2-.3,2.2,2.2,0,0,1,1.7.6,1.8,1.8,0,0,1,.7,1.5v2.8a2.8,2.8,0,0,0,.2,1.4h-1.1Zm-1.8-.8a1.9,1.9,0,0,0,1-.3,1.1,1.1,0,0,0,.6-.7V218h-.8c-1.3,0-2,.3-2,1.1a1.1,1.1,0,0,0,.3.8A1.4,1.4,0,0,0,175.1,220.2Zm7.4-4.5h-.6a1.4,1.4,0,0,0-1.4.9V221h-1v-6.3h1v.8a1.8,1.8,0,0,1,1.5-.9h.5Zm3.4,5.4a2.8,2.8,0,0,1-2-.8,3,3,0,0,1-.8-2.3v-.2a4.1,4.1,0,0,1,.3-1.6,4,4,0,0,1,1-1.2,3.7,3.7,0,0,1,1.4-.4,2.4,2.4,0,0,1,1.9.8,3.3,3.3,0,0,1,.7,2.3v.5h-4.3a2.5,2.5,0,0,0,.6,1.5,1.5,1.5,0,0,0,1.3.5,1.6,1.6,0,0,0,1-.2,1.9,1.9,0,0,0,.7-.6l.6.5A2.6,2.6,0,0,1,185.9,221.1Zm-.1-5.6a1.6,1.6,0,0,0-1.1.5,2.2,2.2,0,0,0-.5,1.3h3.1a2.1,2.1,0,0,0-.4-1.2A1.4,1.4,0,0,0,185.8,215.5Z" transform="translate(-44)"/><rect class="cls-6" x="21" y="124" width="155" height="78" rx="5"/><g class="cls-7"><path class="cls-8" d="M183.2,142v11.5H175v-3.3H165v3.3h-8.2V142s0,1.6,3,1.6h20.4C183.2,143.6,183.2,142,183.2,142Z" transform="translate(-44)"/><path class="cls-9" d="M198.1,137H141.9a6.5,6.5,0,0,0-6.6,6.6V177a5.6,5.6,0,0,1,.9-3.1,6.4,6.4,0,0,1,2.4-2.2,6.4,6.4,0,0,0,2.4-2.2,5.9,5.9,0,0,0,.9-3.2V150.2h9.9v16.1a5.9,5.9,0,0,0,.9,3.2,6.4,6.4,0,0,0,2.4,2.2,5.7,5.7,0,0,1,2.4,2.2,5.6,5.6,0,0,1,.9,3.1,5.6,5.6,0,0,1,.9-3.1,6.4,6.4,0,0,1,2.4-2.2,6.7,6.7,0,0,0,2.5-2.2,6.9,6.9,0,0,0,.8-3.2V153.5h-8.2V142s0,1.6,3,1.6h20.4c3,0,3-1.6,3-1.6v11.5H175v12.8a6.9,6.9,0,0,0,.8,3.2,6.7,6.7,0,0,0,2.5,2.2,6.4,6.4,0,0,1,2.4,2.2,5.6,5.6,0,0,1,.9,3.1,5.6,5.6,0,0,1,.9-3.1,5.7,5.7,0,0,1,2.4-2.2,6.4,6.4,0,0,0,2.4-2.2,5.9,5.9,0,0,0,.9-3.2V150.2h9.9v16.1a5.9,5.9,0,0,0,.9,3.2,6.4,6.4,0,0,0,2.4,2.2,6.4,6.4,0,0,1,2.4,2.2,5.6,5.6,0,0,1,.9,3.1V143.6a6.5,6.5,0,0,0-6.6-6.6Z" transform="translate(-44)"/><path class="cls-10" d="M204.7,177v3H181.6v-3a5.6,5.6,0,0,1,.9-3.1,5.7,5.7,0,0,1,2.4-2.2,6.4,6.4,0,0,0,2.4-2.2,5.9,5.9,0,0,0,.9-3.2v-9.5h9.9v9.5a5.9,5.9,0,0,0,.9,3.2,6.4,6.4,0,0,0,2.4,2.2,6.4,6.4,0,0,1,2.4,2.2A5.6,5.6,0,0,1,204.7,177Z" transform="translate(-44)"/><path class="cls-11" d="M198.1,150.2h-9.9v6.6h9.9Z" transform="translate(-44)"/><path class="cls-10" d="M181.6,177v3H158.4v-3a5.6,5.6,0,0,1,.9-3.1,6.4,6.4,0,0,1,2.4-2.2,6.7,6.7,0,0,0,2.5-2.2,6.9,6.9,0,0,0,.8-3.2v-9.5h10v9.5a6.9,6.9,0,0,0,.8,3.2,6.7,6.7,0,0,0,2.5,2.2,6.4,6.4,0,0,1,2.4,2.2A5.6,5.6,0,0,1,181.6,177Z" transform="translate(-44)"/><path class="cls-11" d="M175,153.5v3.3H165v-6.6h10Z" transform="translate(-44)"/><path class="cls-10" d="M158.4,177v3H135.3v-3a5.6,5.6,0,0,1,.9-3.1,6.4,6.4,0,0,1,2.4-2.2,6.4,6.4,0,0,0,2.4-2.2,5.9,5.9,0,0,0,.9-3.2v-9.5h9.9v9.5a5.9,5.9,0,0,0,.9,3.2,6.4,6.4,0,0,0,2.4,2.2,5.7,5.7,0,0,1,2.4,2.2A5.6,5.6,0,0,1,158.4,177Z" transform="translate(-44)"/><path class="cls-11" d="M151.8,150.2h-9.9v6.6h9.9Z" transform="translate(-44)"/><path class="cls-11" d="M183.2,156.8v9.5a5.9,5.9,0,0,1-.9,3.2,6.4,6.4,0,0,1-2.4,2.2l-.8.5a6,6,0,0,1,1.8,2.1,6.8,6.8,0,0,1,.7,2.7,5.6,5.6,0,0,1,.9-3.1,5.7,5.7,0,0,1,2.4-2.2,6.4,6.4,0,0,0,2.4-2.2,5.9,5.9,0,0,0,.9-3.2V150.2h-5Z" transform="translate(-44)"/><path class="cls-11" d="M158.4,177a5.6,5.6,0,0,1,.9-3.1,6.4,6.4,0,0,1,2.4-2.2,6.7,6.7,0,0,0,2.5-2.2,6.9,6.9,0,0,0,.8-3.2V153.5h-4.9v12.8a5.9,5.9,0,0,1-.9,3.2,6.4,6.4,0,0,1-2.4,2.2l-.8.5a9.1,9.1,0,0,1,1.8,2.1A6.6,6.6,0,0,1,158.4,177Z" transform="translate(-44)"/><path class="cls-11" d="M138.6,171.7a6.4,6.4,0,0,0,2.4-2.2,5.9,5.9,0,0,0,.9-3.2V150.2H137v16.1a6.1,6.1,0,0,1-1.7,4.2V177a5.6,5.6,0,0,1,.9-3.1A6.4,6.4,0,0,1,138.6,171.7Z" transform="translate(-44)"/><path class="cls-12" d="M208,183.3v26.4a3.4,3.4,0,0,1-3.3,3.3H135.3a3.4,3.4,0,0,1-3.3-3.3V183.3a3.5,3.5,0,0,1,1-2.4,3.2,3.2,0,0,1,2.3-.9h69.4a3.2,3.2,0,0,1,2.3.9A3.5,3.5,0,0,1,208,183.3Z" transform="translate(-44)"/><path class="cls-13" d="M204.7,180H135.3a3.2,3.2,0,0,0-2.3.9,3.5,3.5,0,0,0-1,2.4v26.4a3.4,3.4,0,0,0,3.3,3.3h69.4a3.4,3.4,0,0,0,3.3-3.3V183.3a3.5,3.5,0,0,0-1-2.4A3.2,3.2,0,0,0,204.7,180Zm0,27.1a3,3,0,0,1-1,1.9,2.9,2.9,0,0,1-2,.7H138.3a2.9,2.9,0,0,1-2-.7,3,3,0,0,1-1-1.9V185.9a3,3,0,0,1,1-1.9,2.5,2.5,0,0,1,2-.7h63.4a2.5,2.5,0,0,1,2,.7,3,3,0,0,1,1,1.9Z" transform="translate(-44)"/><path class="cls-14" d="M159.4,183.3h42.3a2.5,2.5,0,0,1,2,.7,3,3,0,0,1,1,1.9v21.2a2.9,2.9,0,0,1-.2.9H208V183.3a3.5,3.5,0,0,0-1-2.4,3.2,3.2,0,0,0-2.3-.9H142a13,13,0,0,0,.7,3.3Z" transform="translate(-44)"/><path class="cls-15" d="M202.4,190.9c1.1-1.1.7-3.1-.7-4.6s-3.6-1.8-4.6-.8-.7,3.1.7,4.6S201.4,191.9,202.4,190.9Z" transform="translate(-44)"/><path class="cls-15" d="M181.3,197.8c.5-.5.3-1.5-.4-2.3s-1.8-.9-2.3-.4-.4,1.6.4,2.3S180.7,198.4,181.3,197.8Z" transform="translate(-44)"/><path class="cls-15" d="M181.8,193c.3-.2.2-.8-.2-1.1s-.9-.5-1.1-.2-.2.8.2,1.1S181.6,193.3,181.8,193Z" transform="translate(-44)"/><path class="cls-16" d="M197.3,181.6H189a.8.8,0,0,0-.8.8.8.8,0,0,0,.8.9h8.3a.9.9,0,0,0,.8-.9A.9.9,0,0,0,197.3,181.6Z" transform="translate(-44)"/><path class="cls-16" d="M198.9,182.4a.6.6,0,0,0,.3.6.5.5,0,0,0,.5.3h1.7l.6-.3a.8.8,0,0,0,.2-.6.8.8,0,0,0-.2-.5.9.9,0,0,0-.6-.3h-1.7a1.2,1.2,0,0,0-.8.8Z" transform="translate(-44)"/><path class="cls-17" d="M151.8,150.2h-9.9v3.3h9.9Z" transform="translate(-44)"/><path class="cls-18" d="M158,176.7H143.1a2.5,2.5,0,0,1-1.6-.6,2,2,0,0,1-.9-1.3,2.5,2.5,0,0,1,0-1.7,2.8,2.8,0,0,1,1.1-1.3h.1a6.1,6.1,0,0,0,2.5-2.3,5.7,5.7,0,0,0,.9-3.2v-4.5a1.7,1.7,0,0,1,1.7-1.7h4.9v-3.3h-9.9v9.5a5.7,5.7,0,0,1-.9,3.2,6.1,6.1,0,0,1-2.5,2.3,4.7,4.7,0,0,0-2.2,2,5.9,5.9,0,0,0-1,2.9V180h23.1v-3Z" transform="translate(-44)"/><path class="cls-19" d="M145.2,155.2v-5h-3.3v6.6h9.9v-1.6Z" transform="translate(-44)"/><path class="cls-15" d="M154.8,174.7c.6-.5.4-1.6-.4-2.3a1.7,1.7,0,0,0-2.3-.4c-.5.5-.3,1.6.4,2.3S154.3,175.2,154.8,174.7Z" transform="translate(-44)"/><path class="cls-15" d="M150.4,174.8c.3-.2.2-.7-.2-1.1s-.9-.5-1.1-.2-.2.8.2,1.2S150.2,175.1,150.4,174.8Z" transform="translate(-44)"/><path class="cls-17" d="M175,150.2H165v3.3h10Z" transform="translate(-44)"/><path class="cls-18" d="M181.2,176.7h-15a2.5,2.5,0,0,1-1.6-.6,2.4,2.4,0,0,1-.9-1.3,2.5,2.5,0,0,1,.1-1.7,2.6,2.6,0,0,1,1-1.3h.1a6.1,6.1,0,0,0,2.5-2.3,5.7,5.7,0,0,0,.9-3.2v-4.5a1.7,1.7,0,0,1,.5-1.2,1.8,1.8,0,0,1,1.2-.5h5v-3.3H165v9.5a5.7,5.7,0,0,1-.9,3.2,6.1,6.1,0,0,1-2.5,2.3,5.3,5.3,0,0,0-2.2,2,5,5,0,0,0-.9,2.9c0,.1-.1.2-.1.3v3h23.2v-3Z" transform="translate(-44)"/><path class="cls-19" d="M168.3,155.2v-5H165v6.6h10v-1.6Z" transform="translate(-44)"/><path class="cls-15" d="M178,174.7c.5-.5.3-1.6-.4-2.3s-1.8-.9-2.3-.4-.4,1.6.3,2.3A1.8,1.8,0,0,0,178,174.7Z" transform="translate(-44)"/><path class="cls-15" d="M173.6,174.8c.2-.2.1-.7-.2-1.1s-.9-.5-1.2-.2-.2.8.2,1.2A.9.9,0,0,0,173.6,174.8Z" transform="translate(-44)"/><path class="cls-17" d="M198.1,150.2h-9.9v3.3h9.9Z" transform="translate(-44)"/><path class="cls-18" d="M204.3,176.7h-15a2.2,2.2,0,0,1-1.5-.6,2.6,2.6,0,0,1-1-1.3,3.2,3.2,0,0,1,.1-1.7,2.8,2.8,0,0,1,1.1-1.3h.1a5.9,5.9,0,0,0,2.4-2.3,5.8,5.8,0,0,0,1-3.2v-4.5a1.7,1.7,0,0,1,.5-1.2,1.6,1.6,0,0,1,1.1-.5h5v-3.3h-9.9v9.5a5.8,5.8,0,0,1-1,3.2,5.6,5.6,0,0,1-2.5,2.3,5.3,5.3,0,0,0-2.2,2,7,7,0,0,0-.9,2.9V180h23.1v-3Z" transform="translate(-44)"/><path class="cls-19" d="M191.5,155.2v-5h-3.3v6.6h9.9v-1.6Z" transform="translate(-44)"/><path class="cls-15" d="M201.1,174.7c.5-.5.3-1.6-.4-2.3a1.4,1.4,0,1,0,.4,2.3Z" transform="translate(-44)"/><path class="cls-15" d="M196.7,174.8a.8.8,0,0,0-.2-1.1c-.4-.4-.9-.5-1.2-.2a1.1,1.1,0,0,0,.2,1.2A.9.9,0,0,0,196.7,174.8Z" transform="translate(-44)"/><path class="cls-20" d="M204.7,143.6a6.5,6.5,0,0,0-6.6-6.6H141.9a6.5,6.5,0,0,0-6.6,6.6V177a5.8,5.8,0,0,1,1.7-4.1V143.6a4.8,4.8,0,0,1,4.9-4.9h56.2a4.8,4.8,0,0,1,4.9,4.9v29.3a5.8,5.8,0,0,1,1.7,4.1Z" transform="translate(-44)"/><path class="cls-21" d="M89.6,170H87.9l-3.4-5.5V170H82.8v-8.4h1.7l3.4,5.5v-5.5h1.7Zm4.3.1a3.6,3.6,0,0,1-2.3-.8,3.4,3.4,0,0,1-.8-2.3h0a4.3,4.3,0,0,1,.3-1.7,3.2,3.2,0,0,1,1.1-1.2,3.3,3.3,0,0,1,1.5-.4,2.6,2.6,0,0,1,2,.8,3.4,3.4,0,0,1,.8,2.3v.7h-4a1.2,1.2,0,0,0,.5,1,1.5,1.5,0,0,0,1,.4,2.1,2.1,0,0,0,1.5-.7l.8.9a2.7,2.7,0,0,1-1,.8A3.2,3.2,0,0,1,93.9,170.1Zm-.2-5.1a1.1,1.1,0,0,0-.8.3,1.5,1.5,0,0,0-.4,1h2.3v-.2a1,1,0,0,0-1.1-1.1Zm9.1,2.7.9-4h1.6l-1.6,6.3h-1.4l-1.2-3.9L99.9,170H98.5l-1.6-6.3h1.6l.9,4,1.1-4h1.2Zm-15,12.9H84.5V184H82.8v-8.4h5.4V177H84.5v2.2h3.3Zm3.1,3.4H89.2v-8.9h1.7Zm5,0c-.1-.1-.1-.3-.2-.6a1.8,1.8,0,0,1-1.5.7,2.5,2.5,0,0,1-1.6-.5,1.8,1.8,0,0,1-.6-1.4,1.9,1.9,0,0,1,.8-1.5,4.1,4.1,0,0,1,2.1-.5h.8v-.4a.9.9,0,0,0-.3-.7,1,1,0,0,0-.7-.2c-.2,0-.5,0-.6.2a.5.5,0,0,0-.3.5H92.2a1.9,1.9,0,0,1,.3-1,2.2,2.2,0,0,1,.9-.7,3.5,3.5,0,0,1,1.4-.3,2.9,2.9,0,0,1,1.9.6,2.1,2.1,0,0,1,.6,1.6v2.8a2.5,2.5,0,0,0,.3,1.3H95.9Zm-1.4-1.2h.7l.5-.5v-1H95c-.8,0-1.2.2-1.3.8h0a.8.8,0,0,0,.2.5A.7.7,0,0,0,94.5,182.8Zm6.4-.8,1.1-4.3h1.8l-2.1,6.3h-1.6L98,177.7h1.7Zm3.3-1.2a3.8,3.8,0,0,1,.3-1.6,3.2,3.2,0,0,1,1.1-1.2,3.3,3.3,0,0,1,1.5-.4,2.9,2.9,0,0,1,2.1.8,3.4,3.4,0,0,1,.9,2.1v.4a3.2,3.2,0,0,1-.8,2.3,2.8,2.8,0,0,1-2.2.9,2.6,2.6,0,0,1-2.1-.9,2.8,2.8,0,0,1-.8-2.3Zm1.6.1a2.6,2.6,0,0,0,.4,1.4,1.1,1.1,0,0,0,.9.5,1.2,1.2,0,0,0,1-.5,2.8,2.8,0,0,0,.3-1.5,2.3,2.3,0,0,0-.3-1.3,1,1,0,0,0-1-.5.9.9,0,0,0-.9.5A2.6,2.6,0,0,0,105.8,180.9Zm8.8-1.6H114a1.2,1.2,0,0,0-1.2.6V184h-1.7v-6.3h1.6v.8a1.6,1.6,0,0,1,1.4-.9h.6Z" transform="translate(-44)"/><path class="cls-13" d="M89.1,149H86.5v7H84.8v-7H82.2v-1.4h6.9Zm8.8,3.9H96.6V156H94.8v-8.4h3.1a3.7,3.7,0,0,1,2.3.6,2.3,2.3,0,0,1,.9,1.9,2.4,2.4,0,0,1-1.5,2.4l1.8,3.4H99.5Zm-1.3-1.4H98a1.7,1.7,0,0,0,1-.3,1.2,1.2,0,0,0,.3-.9,1.7,1.7,0,0,0-.3-1,1.6,1.6,0,0,0-1.1-.3H96.6Zm13.1-.1,1.8-3.8h1.9l-2.8,5.3V156h-1.7v-3.1l-2.8-5.3H108Z" transform="translate(-44)"/></g></g><path d="M68.3,105.1a3.5,3.5,0,0,1-1,2.2,3.6,3.6,0,0,1-2.4.7,3.1,3.1,0,0,1-2.6-1.1,4.5,4.5,0,0,1-.9-3v-.5a6.5,6.5,0,0,1,.4-2.1,2.9,2.9,0,0,1,1.3-1.4,2.7,2.7,0,0,1,1.8-.5,3.2,3.2,0,0,1,2.4.8,3,3,0,0,1,1,2.2H66.6c-.1-.6-.2-1-.5-1.2a1.6,1.6,0,0,0-1.2-.4,1.5,1.5,0,0,0-1.3.6,3.5,3.5,0,0,0-.4,2v.6a3.5,3.5,0,0,0,.4,2,1.5,1.5,0,0,0,1.3.6,2.1,2.1,0,0,0,1.2-.3,1.6,1.6,0,0,0,.4-1.2Zm3.9,2.9a3.1,3.1,0,0,1-2.3-.8,3.4,3.4,0,0,1-.8-2.3h0a4.3,4.3,0,0,1,.3-1.7,3.2,3.2,0,0,1,1.1-1.2,3.3,3.3,0,0,1,1.5-.4,2.4,2.4,0,0,1,2,.9,3.2,3.2,0,0,1,.8,2.3v.6h-4a1.2,1.2,0,0,0,.5,1,1.2,1.2,0,0,0,1,.4,1.8,1.8,0,0,0,1.5-.7l.8.9a2,2,0,0,1-1,.8A3.2,3.2,0,0,1,72.2,108Zm-.2-5.1a1.1,1.1,0,0,0-.8.3,1.8,1.8,0,0,0-.4,1h2.3a1.2,1.2,0,0,0-.3-.9A1.1,1.1,0,0,0,72,102.9Zm5.3-1.2v.7a2,2,0,0,1,1.8-.9,1.8,1.8,0,0,1,1.5.6,3,3,0,0,1,.5,1.8v4H79.4v-4a1.9,1.9,0,0,0-.2-.8l-.8-.2a1.3,1.3,0,0,0-1.1.6v4.4H75.7v-6.2Zm7.1-1.6v1.6h1v1.2h-1V106a.7.7,0,0,0,.1.5.6.6,0,0,0,.5.2h.5v1.3h-1c-1.2,0-1.8-.6-1.8-1.7v-3.4h-.9v-1.2h.9v-1.6Zm5.5,3.1h-.6c-.7,0-1.1.2-1.3.6v4.1H86.4v-6.2h1.5v.7a1.5,1.5,0,0,1,1.4-.9h.5Zm3.5,4.8a2.9,2.9,0,0,1-2.2-.8,3,3,0,0,1-.9-2.3h0a4.3,4.3,0,0,1,.4-1.7,2.9,2.9,0,0,1,1-1.2,4.2,4.2,0,0,1,1.6-.4,2.5,2.5,0,0,1,2,.9,3.2,3.2,0,0,1,.7,2.3v.6H92a1.6,1.6,0,0,0,.5,1,1.3,1.3,0,0,0,1,.4,1.9,1.9,0,0,0,1.6-.7l.8.9a2.5,2.5,0,0,1-1,.8A3.7,3.7,0,0,1,93.4,108Zm-.2-5.1a1.1,1.1,0,0,0-.8.3,3,3,0,0,0-.4,1h2.4a1.1,1.1,0,0,0-1.2-1.2Zm6.5,1.8a4.1,4.1,0,0,1,.6-2.3,2,2,0,0,1,1.8-.9,2.1,2.1,0,0,1,1.5.7V99h1.7v8.9h-1.5v-.6a1.9,1.9,0,0,1-1.6.7,2.5,2.5,0,0,1-1.8-.8A4.4,4.4,0,0,1,99.7,104.7Zm1.6.2a2.5,2.5,0,0,0,.3,1.3,1.1,1.1,0,0,0,.9.5,1.1,1.1,0,0,0,1.1-.7v-2.4a1.1,1.1,0,0,0-1.1-.7C101.7,102.9,101.3,103.6,101.3,104.9Zm8.2,3.1a3.1,3.1,0,0,1-2.3-.8,3.4,3.4,0,0,1-.8-2.3h0a4.3,4.3,0,0,1,.3-1.7,3.2,3.2,0,0,1,1.1-1.2,3.3,3.3,0,0,1,1.5-.4,2.5,2.5,0,0,1,2,.9,3.2,3.2,0,0,1,.7,2.3v.6h-3.9a1.5,1.5,0,0,0,.4,1,1.5,1.5,0,0,0,1.1.4,1.8,1.8,0,0,0,1.5-.7l.8.9a2,2,0,0,1-1,.8A3.2,3.2,0,0,1,109.5,108Zm-.2-5.1a1,1,0,0,0-.8.3,1.8,1.8,0,0,0-.4,1h2.3a1.2,1.2,0,0,0-.3-.9A1.1,1.1,0,0,0,109.3,102.9Zm10,3.3a.5.5,0,0,0-.3-.5l-.9-.3c-1.5-.3-2.3-1-2.3-1.9a1.9,1.9,0,0,1,.7-1.4,2.8,2.8,0,0,1,1.8-.6,2.9,2.9,0,0,1,1.9.6,1.8,1.8,0,0,1,.7,1.5h-1.6a.6.6,0,0,0-.3-.6.8.8,0,0,0-.7-.3.8.8,0,0,0-.6.2c-.2.2-.3.3-.3.5s.1.3.3.5l.9.3,1,.2c.9.4,1.4.9,1.4,1.7a1.6,1.6,0,0,1-.8,1.4,2.9,2.9,0,0,1-1.9.5l-1.4-.2a2.4,2.4,0,0,1-.9-.8,1.5,1.5,0,0,1-.4-1.1h1.6a.8.8,0,0,0,.3.7c.2.2.5.2.9.2h.7C119.2,106.5,119.3,106.4,119.3,106.2Zm6.5,1.1a2.1,2.1,0,0,1-1.7.7,2.5,2.5,0,0,1-1.6-.5,2.9,2.9,0,0,1-.5-1.7v-4.1h1.7v4c0,.7.3,1,.9,1a1.1,1.1,0,0,0,1.1-.6v-4.4h1.7v6.2h-1.6Zm6.4-4.1h-.6c-.7,0-1.1.2-1.3.6v4.1h-1.6v-6.2h1.5v.7a1.5,1.5,0,0,1,1.4-.9h.5Zm3.2,2.7,1.2-4.2h1.7l-2.1,6.2h-1.6l-2.1-6.2h1.8Zm6.5,2.1a3.1,3.1,0,0,1-2.3-.8,3.4,3.4,0,0,1-.8-2.3h0a4.3,4.3,0,0,1,.3-1.7,3.2,3.2,0,0,1,1.1-1.2,3.3,3.3,0,0,1,1.5-.4,2.4,2.4,0,0,1,2,.9,3.2,3.2,0,0,1,.8,2.3v.6h-4a1.2,1.2,0,0,0,.5,1,1.2,1.2,0,0,0,1,.4,1.8,1.8,0,0,0,1.5-.7l.8.9a2,2,0,0,1-1,.8A3.2,3.2,0,0,1,141.9,108Zm-.2-5.1a1.1,1.1,0,0,0-.8.3,1.8,1.8,0,0,0-.4,1h2.3a1.2,1.2,0,0,0-.3-.9A1.1,1.1,0,0,0,141.7,102.9Zm5.5,5h-1.7v-6.2h1.7Zm-1.8-7.9a1.4,1.4,0,0,1,.2-.6l.7-.2.7.2a.9.9,0,0,1,.3.6.9.9,0,0,1-.3.7l-.7.2-.6-.2A.9.9,0,0,1,145.4,100Zm4.9,7.9h-1.7V99h1.7Zm3.2,0h-1.7V99h1.7Zm5,0a.8.8,0,0,1-.2-.5,2.1,2.1,0,0,1-1.6.6,2,2,0,0,1-1.5-.5,1.8,1.8,0,0,1-.6-1.3,1.9,1.9,0,0,1,.7-1.6,4.2,4.2,0,0,1,2.2-.5h.7v-.4a.8.8,0,0,0-.2-.7l-.7-.2a.8.8,0,0,0-.7.2.8.8,0,0,0-.2.5h-1.7a1.4,1.4,0,0,1,.4-1,2.2,2.2,0,0,1,.9-.7,3.2,3.2,0,0,1,1.4-.3,2.4,2.4,0,0,1,1.8.6,2.1,2.1,0,0,1,.7,1.7v2.7a2.3,2.3,0,0,0,.3,1.3h-1.7Zm-1.4-1.1.7-.2a1,1,0,0,0,.4-.5v-1h-.6c-.8,0-1.3.3-1.3.8h0a.7.7,0,0,0,.2.6Zm5.6-5.1v.7a2.2,2.2,0,0,1,3.3-.3,3,3,0,0,1,.5,1.8v4h-1.7v-4a1.9,1.9,0,0,0-.2-.8l-.8-.2a1.3,1.3,0,0,0-1.1.6v4.4h-1.6v-6.2Zm7.7,5a1.1,1.1,0,0,0,.8-.3.7.7,0,0,0,.3-.6h1.6a3.6,3.6,0,0,1-.4,1.1,1.8,1.8,0,0,1-.9.8,3.1,3.1,0,0,1-1.3.3,3.3,3.3,0,0,1-2.2-.8,3.6,3.6,0,0,1-.7-2.4h0a3.5,3.5,0,0,1,.7-2.3,2.9,2.9,0,0,1,2.1-.9,2.7,2.7,0,0,1,1.9.7,3,3,0,0,1,.8,1.8h-1.6a1,1,0,0,0-1.1-1.1,1,1,0,0,0-.9.4,2.6,2.6,0,0,0-.3,1.4v.2a2.6,2.6,0,0,0,.3,1.4A1.3,1.3,0,0,0,170.4,106.7Zm6.5,1.3a3.1,3.1,0,0,1-2.3-.8,3.4,3.4,0,0,1-.8-2.3h0a4.3,4.3,0,0,1,.3-1.7,3.2,3.2,0,0,1,1.1-1.2,3.3,3.3,0,0,1,1.5-.4,2.4,2.4,0,0,1,2,.9,3.2,3.2,0,0,1,.8,2.3v.6h-4a1.2,1.2,0,0,0,.5,1,1.2,1.2,0,0,0,1,.4,1.8,1.8,0,0,0,1.5-.7l.8.9a2,2,0,0,1-1,.8A3.2,3.2,0,0,1,176.9,108Zm-.2-5.1a1.1,1.1,0,0,0-.8.3,3,3,0,0,0-.4,1h2.3a1.2,1.2,0,0,0-.3-.9A1.1,1.1,0,0,0,176.7,102.9Zm6.4,1.8a3.5,3.5,0,0,1,.7-2.3,2,2,0,0,1,1.8-.9,2.1,2.1,0,0,1,1.5.7V99h1.6v8.9h-1.5v-.6a1.9,1.9,0,0,1-1.6.7,2.1,2.1,0,0,1-1.7-.8A3.7,3.7,0,0,1,183.1,104.7Zm1.7.2a2.5,2.5,0,0,0,.3,1.3,1.1,1.1,0,0,0,.9.5,1.1,1.1,0,0,0,1.1-.7v-2.4a1.1,1.1,0,0,0-1.1-.7C185.2,102.9,184.8,103.6,184.8,104.9Zm8.1,3.1a2.7,2.7,0,0,1-2.2-.8,3,3,0,0,1-.9-2.3h0a3.1,3.1,0,0,1,.4-1.7,2.9,2.9,0,0,1,1-1.2,3.7,3.7,0,0,1,1.5-.4,2.3,2.3,0,0,1,2,.9,3.2,3.2,0,0,1,.8,2.3v.6h-4a1.6,1.6,0,0,0,.5,1,1.3,1.3,0,0,0,1,.4,1.6,1.6,0,0,0,1.5-.7l.9.9a2.3,2.3,0,0,1-1.1.8A3.2,3.2,0,0,1,192.9,108Zm-.2-5.1a1.1,1.1,0,0,0-.8.3,3,3,0,0,0-.4,1h2.3a1.2,1.2,0,0,0-.3-.9C193.4,103,193.1,102.9,192.7,102.9Zm7.1,3.3a.5.5,0,0,0-.3-.5l-.9-.3c-1.5-.3-2.3-1-2.3-1.9a1.6,1.6,0,0,1,.7-1.4,2.8,2.8,0,0,1,1.8-.6,2.9,2.9,0,0,1,1.9.6,1.8,1.8,0,0,1,.7,1.5h-1.6a.6.6,0,0,0-.3-.6.8.8,0,0,0-.7-.3.8.8,0,0,0-.6.2c-.2.2-.3.3-.3.5s.1.3.3.5l.9.3,1,.2c.9.4,1.4.9,1.4,1.7a1.6,1.6,0,0,1-.8,1.4,2.9,2.9,0,0,1-1.9.5l-1.4-.2a2.4,2.4,0,0,1-.9-.8,1.5,1.5,0,0,1-.4-1.1h1.6a.8.8,0,0,0,.3.7c.2.2.5.2.9.2h.7C199.7,106.5,199.8,106.4,199.8,106.2Zm7.4,1.7h-1.6V99h1.6Zm4.3.1a2.7,2.7,0,0,1-2.2-.8,3,3,0,0,1-.9-2.3h0a3.1,3.1,0,0,1,.4-1.7,2.9,2.9,0,0,1,1-1.2,3.7,3.7,0,0,1,1.5-.4,2.3,2.3,0,0,1,2,.9,3.2,3.2,0,0,1,.8,2.3v.6h-4a1.6,1.6,0,0,0,.5,1,1.3,1.3,0,0,0,1,.4,1.6,1.6,0,0,0,1.5-.7l.8.9a1.6,1.6,0,0,1-1,.8A3.2,3.2,0,0,1,211.5,108Zm-.2-5.1a1.1,1.1,0,0,0-.8.3,3,3,0,0,0-.4,1h2.3a1.2,1.2,0,0,0-.3-.9A1,1,0,0,0,211.3,102.9Zm6.3,3.8a1.1,1.1,0,0,0,.8-.3.7.7,0,0,0,.3-.6h1.6a2.1,2.1,0,0,1-.4,1.1,1.8,1.8,0,0,1-.9.8,3.1,3.1,0,0,1-1.3.3,2.9,2.9,0,0,1-2.1-.8,3.2,3.2,0,0,1-.8-2.4h0a3.5,3.5,0,0,1,.7-2.3,2.9,2.9,0,0,1,2.2-.9,2.7,2.7,0,0,1,1.8.7,3,3,0,0,1,.8,1.8h-1.6a1,1,0,0,0-1.1-1.1,1,1,0,0,0-.9.4,2.6,2.6,0,0,0-.3,1.4v.2a2.6,2.6,0,0,0,.3,1.4A1.3,1.3,0,0,0,217.6,106.7Zm5.6-6.6v1.6h1.1v1.2h-1.1V106a4.3,4.3,0,0,0,.1.5.8.8,0,0,0,.6.2h.4v1.3h-1a1.7,1.7,0,0,1-1.8-1.7v-3.4h-.9v-1.2h.9v-1.6Zm4.9,7.9a3.1,3.1,0,0,1-2.3-.8,3.4,3.4,0,0,1-.8-2.3h0a3.1,3.1,0,0,1,.4-1.7,2.3,2.3,0,0,1,1-1.2,3.3,3.3,0,0,1,1.5-.4,2.4,2.4,0,0,1,2,.9,3.2,3.2,0,0,1,.8,2.3v.6h-4a1.2,1.2,0,0,0,.5,1,1.2,1.2,0,0,0,1,.4,1.8,1.8,0,0,0,1.5-.7l.8.9a2,2,0,0,1-1,.8A3.2,3.2,0,0,1,228.1,108Zm-.2-5.1a1.1,1.1,0,0,0-.8.3,3,3,0,0,0-.4,1H229a1.2,1.2,0,0,0-.3-.9A1,1,0,0,0,227.9,102.9Zm7.5,4.4a2.1,2.1,0,0,1-1.7.7,2.5,2.5,0,0,1-1.6-.5,2.9,2.9,0,0,1-.5-1.7v-4.1h1.6v4c0,.7.3,1,.9,1a1.2,1.2,0,0,0,1.2-.6v-4.4H237v6.2h-1.6Zm6.4-4.1h-.6c-.7,0-1.1.2-1.3.6v4.1h-1.7v-6.2h1.6v.7a1.5,1.5,0,0,1,1.4-.9h.5Zm4.2,3a.5.5,0,0,0-.3-.5l-1-.3c-1.5-.3-2.3-1-2.3-1.9a1.9,1.9,0,0,1,.7-1.4,2.8,2.8,0,0,1,1.8-.6,2.7,2.7,0,0,1,1.9.6,1.9,1.9,0,0,1,.8,1.5h-1.7a.8.8,0,0,0-.2-.6,1,1,0,0,0-.8-.3l-.6.2a.7.7,0,0,0,0,1l.9.3,1.1.2a1.9,1.9,0,0,1,1.3,1.7,1.6,1.6,0,0,1-.8,1.4,2.6,2.6,0,0,1-1.8.5l-1.4-.2a2.1,2.1,0,0,1-1-.8,2,2,0,0,1-.3-1.1h1.5c.1.3.2.6.4.7s.4.2.8.2h.7C245.9,106.5,246,106.4,246,106.2Z" transform="translate(-44)"/><rect class="cls-5" x="190.5" y="120.5" width="161" height="109" rx="4.5"/><rect class="cls-3" x="194" y="124" width="155" height="78" rx="5"/><g class="cls-22"><path class="cls-23" d="M305.2,168.1l4.1,8.5H286.5l-.4-.9,18.7-8.3Z" transform="translate(-44)"/><path class="cls-24" d="M290.6,153.9l-6.3,2.8-2.9-5.9,6.2-2.8Z" transform="translate(-44)"/><path class="cls-25" d="M302.8,163.3l2,4.1-18.7,8.3-2.1-4.1a6.6,6.6,0,0,1-.5-2.5,5.3,5.3,0,0,1,1.3-3.6,5.8,5.8,0,0,0,1.3-3,5.1,5.1,0,0,0-.5-3.2l-1.3-2.6,6.3-2.8,1.2,2.6a6.2,6.2,0,0,0,5.5,3.4,6.7,6.7,0,0,1,3.2,1A5.9,5.9,0,0,1,302.8,163.3Z" transform="translate(-44)"/><path class="cls-23" d="M305.7,169.1l-17.4,7.5h21Z" transform="translate(-44)"/><path class="cls-26" d="M305.2,168.1l-.4-.7-18.7,8.3.4.9h1.8l17.4-7.5Z" transform="translate(-44)"/><path class="cls-27" d="M289.5,151.8l-6.3,2.7,1.1,2.2,6.3-2.8Z" transform="translate(-44)"/><path class="cls-24" d="M287.6,148l-6.2,2.8,1.8,3.7,6.3-2.7Z" transform="translate(-44)"/><path class="cls-25" d="M302.8,163.3a5.9,5.9,0,0,0-2.3-2.4,6.7,6.7,0,0,0-3.2-1,6.2,6.2,0,0,1-5.5-3.4l-1.2-2.6-6.3,2.8,1.3,2.6a5.1,5.1,0,0,1,.5,3.2,5.8,5.8,0,0,1-1.3,3,5.3,5.3,0,0,0-1.3,3.6,6.6,6.6,0,0,0,.5,2.5l2.1,4.1,18.7-8.3Z" transform="translate(-44)"/><path class="cls-26" d="M288.3,176.6h1.3l-.2-.5Z" transform="translate(-44)"/><path class="cls-28" d="M289.2,175.7l-.5-1.1-2.6,1.1.4.9h1.8l1.1-.5Z" transform="translate(-44)"/><path class="cls-29" d="M285.8,153.4l-2.6,1.1,1.1,2.2,2.6-1.2Z" transform="translate(-44)"/><path class="cls-27" d="M283.9,149.7l-2.5,1.1,1.8,3.7,2.6-1.1Z" transform="translate(-44)"/><path class="cls-30" d="M287.2,171.6a5.1,5.1,0,0,1-.6-2.5,5.4,5.4,0,0,1,1.4-3.6,5.8,5.8,0,0,0,1.3-3,7,7,0,0,0-.5-3.2l-1.3-2.6-.6-1.2-2.6,1.2,1.3,2.6a5.1,5.1,0,0,1,.5,3.2,5.8,5.8,0,0,1-1.3,3,5.3,5.3,0,0,0-1.3,3.6,6.6,6.6,0,0,0,.5,2.5l2.1,4.1,2.6-1.1Z" transform="translate(-44)"/><path class="cls-31" d="M324.3,175.7l-.4.9H309.3l-4.1-8.5.3-.7Z" transform="translate(-44)"/><path class="cls-24" d="M329,150.8l-2.9,5.9-6.3-2.8,2.9-5.9Z" transform="translate(-44)"/><path class="cls-32" d="M326.9,169.1a5.1,5.1,0,0,1-.6,2.5l-2,4.1-18.8-8.3,2.1-4.1a6.4,6.4,0,0,1,2.2-2.4,7.5,7.5,0,0,1,3.2-1,6.3,6.3,0,0,0,3.3-.9,6,6,0,0,0,2.2-2.5l1.3-2.6,6.3,2.8-1.3,2.6a5.9,5.9,0,0,0-.6,3.2,6.7,6.7,0,0,0,1.3,3A5.4,5.4,0,0,1,326.9,169.1Z" transform="translate(-44)"/><path class="cls-33" d="M305.2,168.1l.8,1.6,14.8,6.9h3.1l.4-.9-18.8-8.3Z" transform="translate(-44)"/><path class="cls-27" d="M326.9,154.9l-6.1-3-1,2,6.3,2.8Z" transform="translate(-44)"/><path class="cls-33" d="M306,169.7l3.3,6.9h8l-1.1-2.1Z" transform="translate(-44)"/><path class="cls-34" d="M307.6,163.3l-2.1,4.1,9.3,4.1-1.2-2.4-.5-1-.3-.7-2-4.1a7.4,7.4,0,0,0-1.6-1.9A4.8,4.8,0,0,0,307.6,163.3Z" transform="translate(-44)"/><path class="cls-35" d="M305.2,168.1l.8,1.6,10.2,4.8-1.4-3-9.3-4.1Z" transform="translate(-44)"/><path class="cls-36" d="M326.9,154.9l2.1-4.1-2.5-1.1-2,4Z" transform="translate(-44)"/><path class="cls-30" d="M326.1,156.7l-2.6-1.2-.6,1.2-1.3,2.6a5.1,5.1,0,0,0-.5,3.2,5.8,5.8,0,0,0,1.3,3,5.9,5.9,0,0,1,1.3,3.6,5.1,5.1,0,0,1-.6,2.5l-1.4,3,2.6,1.1,2-4.1a5.1,5.1,0,0,0,.6-2.5,5.4,5.4,0,0,0-1.4-3.6,6.7,6.7,0,0,1-1.3-3,5.9,5.9,0,0,1,.6-3.2Z" transform="translate(-44)"/><path class="cls-31" d="M321.1,175.7l-.4.8h3.2l.4-.9-2.6-1.1Z" transform="translate(-44)"/><path class="cls-37" d="M323.5,155.5l2.6,1.2.8-1.8-2.4-1.2Z" transform="translate(-44)"/><path class="cls-34" d="M329,176.6l-.3,4.7h-47l-.3-4.7H329Z" transform="translate(-44)"/><path class="cls-38" d="M281.7,181.3v1.6l.3,3.2,1.4,20.6,1.1,14.3h41.2l1-14.3,1.5-20.6.4-4.8Z" transform="translate(-44)"/><path class="cls-34" d="M330.6,208.3H279.8a1.7,1.7,0,0,1-1.6-1.6V186.1a1.7,1.7,0,0,1,1.6-1.6h6.3a1.7,1.7,0,0,1,1.2.5,1.7,1.7,0,0,1,0,2.2,1.7,1.7,0,0,1-1.2.5h-4.7v17.4H329V187.7h-4.8a1.6,1.6,0,0,1,0-3.2h6.4a1.7,1.7,0,0,1,1.6,1.6v20.6a1.7,1.7,0,0,1-1.6,1.6Z" transform="translate(-44)"/><path class="cls-32" d="M279.8,186.1h6.3l.8.2a.9.9,0,0,1,.6.6,2.4,2.4,0,0,0,.2-.8,1.5,1.5,0,0,0-.4-1.1,1.7,1.7,0,0,0-1.2-.5h-6.3a1.7,1.7,0,0,0-1.6,1.6v1.6a1.4,1.4,0,0,1,.5-1.1A1.6,1.6,0,0,1,279.8,186.1Z" transform="translate(-44)"/><path class="cls-32" d="M330.6,184.5h-6.4a1.7,1.7,0,0,0-1.6,1.6,1.3,1.3,0,0,0,.3.8.9.9,0,0,1,.6-.6l.7-.2h6.4a1.6,1.6,0,0,1,1.1.5,1.4,1.4,0,0,1,.5,1.1v-1.6a1.7,1.7,0,0,0-1.6-1.6Z" transform="translate(-44)"/><path class="cls-39" d="M286.1,189.3a1.7,1.7,0,0,0,1.2-.5,1.5,1.5,0,0,0,.4-1.1,1.9,1.9,0,0,0-.2-.8,1.7,1.7,0,0,1-.6.6l-.8.2h-3.9v1.6Z" transform="translate(-44)"/><path class="cls-39" d="M322.9,186.9a1.1,1.1,0,0,0-.3.8,1.7,1.7,0,0,0,1.6,1.6h3.9v-1.6h-4l-.7-.2A1.7,1.7,0,0,1,322.9,186.9Z" transform="translate(-44)"/><path class="cls-32" d="M329,176.6H281.4v1.6h47.4Z" transform="translate(-44)"/><path class="cls-39" d="M328.7,181.3h-47v1.6l.2,1.6h46.4Z" transform="translate(-44)"/><path class="cls-32" d="M288,181.3h40.7l.2-3.1H287.8C287.8,179.2,287.9,180.3,288,181.3Z" transform="translate(-44)"/><path class="cls-40" d="M326.9,205.1l1.2-15.8h-3.9a1.7,1.7,0,0,1-1.6-1.6,1.1,1.1,0,0,1,.3-.8l-.2-.3c0-.2-.1-.3-.1-.5a1.7,1.7,0,0,1,1.6-1.6H288.5a40.6,40.6,0,0,0,10.7,20.6Z" transform="translate(-44)"/><path class="cls-41" d="M328.9,178.2v-1.6H287.7a9.2,9.2,0,0,0,.1,1.6Z" transform="translate(-44)"/><path class="cls-38" d="M351.2,221l-6.3-5.1V195.5a8.6,8.6,0,0,1-3.2,0v20.4l-6.4,5.1Z" transform="translate(-44)"/><path class="cls-39" d="M344.9,198.6v-3.1a8.6,8.6,0,0,1-3.2,0v3.1A8.6,8.6,0,0,0,344.9,198.6Z" transform="translate(-44)"/><path class="cls-40" d="M352.8,157.5h-19v11.1h19Z" transform="translate(-44)"/><path class="cls-32" d="M352.8,168.6v17.5a9.5,9.5,0,0,1-16.3,6.7,9.8,9.8,0,0,1-2.7-6.7V168.6Z" transform="translate(-44)"/><path class="cls-34" d="M336.9,182.9V168.6h-3.1v17.5a8.4,8.4,0,0,0,1.9,5.7,9.4,9.4,0,0,0,5,3.5,9.8,9.8,0,0,0,6.1-.4,9.2,9.2,0,0,0,4.6-3.9,9.7,9.7,0,0,1-5,1.4,9.5,9.5,0,0,1-6.7-2.8A9.3,9.3,0,0,1,336.9,182.9Z" transform="translate(-44)"/><path class="cls-38" d="M336.9,157.5h-3.1v11.1h3.1Z" transform="translate(-44)"/><path class="cls-42" d="M352.8,168.6V157.5H337a38.1,38.1,0,0,0,2,11.1Z" transform="translate(-44)"/><path class="cls-30" d="M352.8,184.8V168.6H339C341.7,176.4,346.7,182.4,352.8,184.8Z" transform="translate(-44)"/><path class="cls-43" d="M350.6,164.8c1-1,.7-3-.7-4.4s-3.4-1.7-4.4-.7-.7,3,.7,4.4S349.6,165.8,350.6,164.8Z" transform="translate(-44)"/><path class="cls-43" d="M301.4,198.2c1-1.1.7-3-.7-4.5s-3.4-1.7-4.4-.7-.7,3,.7,4.4S300.4,199.2,301.4,198.2Z" transform="translate(-44)"/><path class="cls-43" d="M301.7,165.2a1.9,1.9,0,0,0-2.6-2.6c-.5.5-.3,1.5.4,2.2S301.2,165.7,301.7,165.2Z" transform="translate(-44)"/><path class="cls-43" d="M323.9,168.3a1.6,1.6,0,0,0-.3-2.2c-.7-.7-1.7-.9-2.2-.3s-.4,1.5.3,2.2A1.6,1.6,0,0,0,323.9,168.3Z" transform="translate(-44)"/><path class="cls-43" d="M304.9,201.7c.5-.6.3-1.5-.4-2.3a1.6,1.6,0,0,0-2.2-.3c-.5.5-.3,1.5.4,2.2S304.4,202.2,304.9,201.7Z" transform="translate(-44)"/><path class="cls-43" d="M344.6,166.7c.5-.5.3-1.5-.4-2.2a1.4,1.4,0,1,0-1.9,1.9C343.1,167.1,344,167.3,344.6,166.7Z" transform="translate(-44)"/><path class="cls-43" d="M299.1,166.9a.8.8,0,0,0-.2-1.1.8.8,0,0,0-1.1-.2.7.7,0,0,0,.2,1.1A.8.8,0,0,0,299.1,166.9Z" transform="translate(-44)"/><path class="cls-43" d="M322.9,163.7a.8.8,0,0,0-.2-1.1c-.4-.3-.9-.4-1.1-.2a1,1,0,0,0,1.3,1.3Z" transform="translate(-44)"/><path class="cls-44" d="M348.8,186.1a.8.8,0,1,0,0-1.6.8.8,0,0,0,0,1.6Z" transform="translate(-44)"/><path class="cls-44" d="M350.4,175a.8.8,0,0,0,.8-.8.7.7,0,0,0-.8-.8.8.8,0,0,0-.8.8A.9.9,0,0,0,350.4,175Z" transform="translate(-44)"/><path class="cls-44" d="M348.8,178.2a.8.8,0,0,0,.8-.8.7.7,0,0,0-.8-.8.8.8,0,0,0-.8.8A.9.9,0,0,0,348.8,178.2Z" transform="translate(-44)"/><path class="cls-43" d="M347.2,171.8a.8.8,0,1,0,0-1.6.8.8,0,1,0,0,1.6Z" transform="translate(-44)"/><path class="cls-34" d="M345.7,182.9a.7.7,0,0,0,.7-.8.8.8,0,0,0-.7-.8.8.8,0,0,0-.8.8A.7.7,0,0,0,345.7,182.9Z" transform="translate(-44)"/><path class="cls-34" d="M344.1,190.8a.8.8,0,0,0,.8-.7.8.8,0,0,0-.8-.8.7.7,0,0,0-.8.8A.7.7,0,0,0,344.1,190.8Z" transform="translate(-44)"/><path class="cls-44" d="M342.5,186.1a.8.8,0,1,0,0-1.6.8.8,0,0,0,0,1.6Z" transform="translate(-44)"/><path class="cls-34" d="M348,190.8a1.6,1.6,0,0,0,1.6-1.5,1.6,1.6,0,0,0-1.6-1.6,1.6,1.6,0,1,0,0,3.1Z" transform="translate(-44)"/><path class="cls-44" d="M341.7,179.7a1.6,1.6,0,0,0,1.6-1.5,1.6,1.6,0,0,0-3.2,0A1.6,1.6,0,0,0,341.7,179.7Z" transform="translate(-44)"/><path class="cls-34" d="M340.1,184.5a1.6,1.6,0,1,0-1.6-1.6A1.6,1.6,0,0,0,340.1,184.5Z" transform="translate(-44)"/></g><rect class="cls-45" x="201" y="213" width="101" height="8" rx="1.4"/><rect class="cls-1" x="107.4" y="72.4" width="291" height="130.26" rx="8"/><path d="M176.4,123.6h-1.8l-3.4-5.5v5.5h-1.7v-8.4h1.7l3.4,5.5v-5.5h1.8Zm5,0-.2-.6a1.9,1.9,0,0,1-1.6.7,2.5,2.5,0,0,1-1.5-.5,1.8,1.8,0,0,1-.6-1.4,1.9,1.9,0,0,1,.8-1.5,3.8,3.8,0,0,1,2.1-.5h.8v-.4a.9.9,0,0,0-.3-.7l-.7-.2c-.3,0-.5,0-.6.2a.5.5,0,0,0-.3.5h-1.6a1.9,1.9,0,0,1,.3-1,2.2,2.2,0,0,1,.9-.7,3.2,3.2,0,0,1,1.4-.3,2.4,2.4,0,0,1,1.8.6,1.9,1.9,0,0,1,.7,1.6v2.8a2.5,2.5,0,0,0,.3,1.3h-1.7Zm-1.4-1.2h.7a1.2,1.2,0,0,0,.5-.5v-1h-.7c-.8,0-1.3.2-1.3.8h0a.8.8,0,0,0,.2.5A.7.7,0,0,0,180,122.4Zm5.7-5.1v.7a2.5,2.5,0,0,1,1.8-.8,1.7,1.7,0,0,1,1.7,1,2.1,2.1,0,0,1,1.9-1,1.9,1.9,0,0,1,1.5.6,3,3,0,0,1,.5,1.8v4h-1.7v-4a1.9,1.9,0,0,0-.2-.8l-.7-.2a1.1,1.1,0,0,0-1.1.7v4.3h-1.6v-4a1.1,1.1,0,0,0-.3-.8,1,1,0,0,0-.7-.2,1,1,0,0,0-1,.6v4.4h-1.7v-6.3Zm11.6,6.4a3.4,3.4,0,0,1-2.3-.8,3,3,0,0,1-.9-2.3h0a4.3,4.3,0,0,1,.4-1.7,4,4,0,0,1,1-1.2,4.2,4.2,0,0,1,1.6-.4,2.8,2.8,0,0,1,2,.8,3.3,3.3,0,0,1,.7,2.3v.7h-4a2.3,2.3,0,0,0,.5,1,1.8,1.8,0,0,0,1.1.4,2.1,2.1,0,0,0,1.5-.7l.8.9a3.9,3.9,0,0,1-1,.8A3.5,3.5,0,0,1,197.3,123.7Zm-.2-5.1a1,1,0,0,0-.8.3,1.2,1.2,0,0,0-.4,1h2.3v-.2a1,1,0,0,0-1.1-1.1Z" transform="translate(-44)"/><path d="M280.3,120.8a3,3,0,0,1-1,2.1,3.2,3.2,0,0,1-2.4.8,2.8,2.8,0,0,1-2.5-1.1,4.5,4.5,0,0,1-.9-3v-.5a4.6,4.6,0,0,1,.4-2.1,3.3,3.3,0,0,1,1.2-1.4,2.7,2.7,0,0,1,1.8-.5,3.6,3.6,0,0,1,2.4.7,3.5,3.5,0,0,1,1,2.2h-1.7a1.6,1.6,0,0,0-.5-1.1c-.2-.3-.6-.4-1.2-.4a1.6,1.6,0,0,0-1.3.6,4.5,4.5,0,0,0-.4,1.9v.7a3.7,3.7,0,0,0,.4,2,1.5,1.5,0,0,0,1.3.6c.6,0,1-.1,1.2-.4a1.6,1.6,0,0,0,.5-1.1Zm4.6-1.9h-.6c-.7,0-1.1.2-1.3.6v4.1h-1.7v-6.3h1.6v.8a1.5,1.5,0,0,1,1.4-.9h.5Zm3.5,4.8a3.3,3.3,0,0,1-2.2-.8,3,3,0,0,1-.9-2.3h0a3.1,3.1,0,0,1,.4-1.7,2.9,2.9,0,0,1,1-1.2,4.2,4.2,0,0,1,1.5-.4,2.9,2.9,0,0,1,2.1.8,3.3,3.3,0,0,1,.7,2.3v.7h-4a1.6,1.6,0,0,0,.5,1,1.8,1.8,0,0,0,1,.4,2.2,2.2,0,0,0,1.6-.7l.8.9a3.9,3.9,0,0,1-1,.8A3.7,3.7,0,0,1,288.4,123.7Zm-.2-5.1a1.1,1.1,0,0,0-.8.3,2.3,2.3,0,0,0-.4,1h2.4v-.2a1.1,1.1,0,0,0-.3-.8A1.2,1.2,0,0,0,288.2,118.6Zm7.4,5a4.2,4.2,0,0,1-.2-.6,1.9,1.9,0,0,1-1.6.7,2.5,2.5,0,0,1-1.5-.5,1.8,1.8,0,0,1-.6-1.4,2.1,2.1,0,0,1,.7-1.5,4.2,4.2,0,0,1,2.2-.5h.7v-.4a.8.8,0,0,0-.2-.7l-.7-.2c-.3,0-.5,0-.6.2a.5.5,0,0,0-.3.5h-1.7a2.1,2.1,0,0,1,.4-1,2.2,2.2,0,0,1,.9-.7,3.2,3.2,0,0,1,1.4-.3,2.4,2.4,0,0,1,1.8.6,1.9,1.9,0,0,1,.7,1.6v2.8a2.5,2.5,0,0,0,.3,1.3h-1.7Zm-1.4-1.2h.7a1,1,0,0,0,.4-.5v-1h-.6c-.8,0-1.3.2-1.3.8h0a.8.8,0,0,0,.2.5C293.7,122.4,293.9,122.4,294.2,122.4Zm6.1-6.6v1.5h1.1v1.3h-1.1v3.1a4.3,4.3,0,0,0,.1.5h1v1.3h-1q-1.6,0-1.8-1.8v-3.3h-.9v-1.3h.9v-1.5Zm4.9,7.9a3.6,3.6,0,0,1-2.3-.8,3.4,3.4,0,0,1-.8-2.3h0a4.3,4.3,0,0,1,.3-1.7,3.2,3.2,0,0,1,1.1-1.2,3.3,3.3,0,0,1,1.5-.4,2.6,2.6,0,0,1,2,.8,3.4,3.4,0,0,1,.8,2.3v.7h-4a1.2,1.2,0,0,0,.5,1,1.5,1.5,0,0,0,1,.4,2.1,2.1,0,0,0,1.5-.7l.8.9a2.7,2.7,0,0,1-1,.8A3.2,3.2,0,0,1,305.2,123.7Zm-.2-5.1a1.1,1.1,0,0,0-.8.3,2.3,2.3,0,0,0-.4,1h2.3v-.2a1.1,1.1,0,0,0-.3-.8A1,1,0,0,0,305,118.6Zm3.5,1.8a3.9,3.9,0,0,1,.6-2.3,2,2,0,0,1,1.8-.9,2.1,2.1,0,0,1,1.5.7v-3.2h1.7v8.9h-1.5v-.7a1.8,1.8,0,0,1-1.6.8,2.3,2.3,0,0,1-1.8-.9A3.8,3.8,0,0,1,308.5,120.4Zm1.6.1a2.6,2.6,0,0,0,.3,1.4,1.1,1.1,0,0,0,.9.5,1.2,1.2,0,0,0,1.1-.7v-2.5a1.1,1.1,0,0,0-1.1-.6C310.5,118.6,310.1,119.2,310.1,120.5Z" transform="translate(-44)"/><path d="M360.4,120.8a3,3,0,0,1-1,2.1,3.2,3.2,0,0,1-2.4.8,3,3,0,0,1-2.6-1.1,4.5,4.5,0,0,1-.9-3v-.5a4.6,4.6,0,0,1,.4-2.1,3.3,3.3,0,0,1,1.2-1.4,3.2,3.2,0,0,1,1.9-.5,3.3,3.3,0,0,1,2.3.7,3.6,3.6,0,0,1,1.1,2.2h-1.8a1.4,1.4,0,0,0-1.6-1.5,1.5,1.5,0,0,0-1.3.6,3.4,3.4,0,0,0-.4,1.9v.7a3.7,3.7,0,0,0,.4,2,1.4,1.4,0,0,0,1.3.6,1.4,1.4,0,0,0,1.6-1.5Zm4.5-1.9h-.6a1.2,1.2,0,0,0-1.2.6v4.1h-1.7v-6.3H363v.8a1.6,1.6,0,0,1,1.4-.9h.5Zm3.6,4.8a3.6,3.6,0,0,1-2.3-.8,3.4,3.4,0,0,1-.8-2.3h0a4.3,4.3,0,0,1,.3-1.7,3.2,3.2,0,0,1,1.1-1.2,3.3,3.3,0,0,1,1.5-.4,2.8,2.8,0,0,1,2,.8,3.4,3.4,0,0,1,.8,2.3v.7h-4a1.2,1.2,0,0,0,.5,1,1.5,1.5,0,0,0,1,.4,2.1,2.1,0,0,0,1.5-.7l.8.9a2.7,2.7,0,0,1-1,.8A3.2,3.2,0,0,1,368.5,123.7Zm-.2-5.1a1.1,1.1,0,0,0-.8.3,1.5,1.5,0,0,0-.4,1h2.3v-.2a1,1,0,0,0-1.1-1.1Zm7.3,5c0-.2-.1-.3-.1-.6a2,2,0,0,1-1.6.7,2.5,2.5,0,0,1-1.5-.5,1.9,1.9,0,0,1,.1-2.9,4.1,4.1,0,0,1,2.1-.5h.8v-.4a1.4,1.4,0,0,0-.2-.7l-.7-.2a.8.8,0,0,0-.7.2c-.2.1-.2.3-.2.5h-1.7a1.9,1.9,0,0,1,.3-1l1-.7a2.9,2.9,0,0,1,1.4-.3,2.8,2.8,0,0,1,1.8.6,2.2,2.2,0,0,1,.7,1.6v2.8a4.4,4.4,0,0,0,.2,1.3h-1.7Zm-1.4-1.2h.7a1.2,1.2,0,0,0,.5-.5v-1h-.6c-.9,0-1.3.2-1.4.8h0a.8.8,0,0,0,.2.5A.7.7,0,0,0,374.2,122.4Zm6.2-6.6v1.5h1v1.3h-1v3.1a.7.7,0,0,0,.1.5h1v1.3h-1a1.6,1.6,0,0,1-1.8-1.8v-3.3h-.9v-1.3h.9v-1.5Zm1.5,4.6a2.7,2.7,0,0,1,.4-1.6,2.9,2.9,0,0,1,1-1.2,4.2,4.2,0,0,1,1.6-.4,2.8,2.8,0,0,1,2,.8,2.6,2.6,0,0,1,.9,2.1v.4a2.8,2.8,0,0,1-.8,2.3,2.6,2.6,0,0,1-2.1.9,2.9,2.9,0,0,1-2.2-.9,3.2,3.2,0,0,1-.8-2.3Zm1.7.1a2.6,2.6,0,0,0,.3,1.4,1.4,1.4,0,0,0,1,.5,1.1,1.1,0,0,0,.9-.5,2.1,2.1,0,0,0,.4-1.5,1.7,1.7,0,0,0-.4-1.3.9.9,0,0,0-.9-.5,1.1,1.1,0,0,0-1,.5A2.6,2.6,0,0,0,383.6,120.5Zm8.8-1.6h-.6a1.4,1.4,0,0,0-1.3.6v4.1h-1.6v-6.3h1.6v.8a1.5,1.5,0,0,1,1.4-.9h.5Z" transform="translate(-44)"/><path d="M170.9,146.4h3.9v.9h-5.1v-8.4h1.2Zm7.6,1a2.8,2.8,0,0,1-2-.8,3,3,0,0,1-.8-2.3v-.2a4.1,4.1,0,0,1,.3-1.6,4,4,0,0,1,1-1.2,3.3,3.3,0,0,1,1.4-.4,2.4,2.4,0,0,1,1.9.8,3.3,3.3,0,0,1,.7,2.3v.5h-4.3a2.5,2.5,0,0,0,.6,1.5,1.9,1.9,0,0,0,1.3.5l1-.2.6-.6.7.5A2.6,2.6,0,0,1,178.5,147.4Zm-.1-5.6a1.3,1.3,0,0,0-1.1.5,1.7,1.7,0,0,0-.5,1.3h3.1a2.5,2.5,0,0,0-.4-1.3A1.4,1.4,0,0,0,178.4,141.8Zm6.3,4.7a1.7,1.7,0,0,0,1-.3c.3-.3.5-.5.5-.9h1a1.3,1.3,0,0,1-.4,1,1.8,1.8,0,0,1-.9.8,2.1,2.1,0,0,1-1.2.3,2.5,2.5,0,0,1-2-.9,3.2,3.2,0,0,1-.8-2.3V144a4.2,4.2,0,0,1,.4-1.6,2.4,2.4,0,0,1,.9-1.1,2.8,2.8,0,0,1,1.5-.4,2.8,2.8,0,0,1,1.8.6,2.6,2.6,0,0,1,.7,1.7h-1a1.2,1.2,0,0,0-.5-1,1.2,1.2,0,0,0-1-.4,1.4,1.4,0,0,0-1.2.6,2.6,2.6,0,0,0-.5,1.7v.2a2.3,2.3,0,0,0,.5,1.6A1.4,1.4,0,0,0,184.7,146.5Zm5.2-7V141H191v.9h-1.1v3.8c0,.3,0,.5.1.6l.6.2h.5v.9h-.9a1.2,1.2,0,0,1-1-.4,1.7,1.7,0,0,1-.4-1.3v-3.8h-1.1V141h1.1v-1.5Zm5,7.9a3,3,0,0,1-2.1-.8,3.4,3.4,0,0,1-.8-2.3v-.2a2.9,2.9,0,0,1,.4-1.6,2.3,2.3,0,0,1,1-1.2,3.3,3.3,0,0,1,1.4-.4,2.6,2.6,0,0,1,1.9.8,3.9,3.9,0,0,1,.6,2.3v.5h-4.2a2.5,2.5,0,0,0,.5,1.5,2.1,2.1,0,0,0,1.3.5l1-.2.7-.6.7.5A2.9,2.9,0,0,1,194.9,147.4Zm-.1-5.6a1.2,1.2,0,0,0-1.1.5,2.3,2.3,0,0,0-.6,1.3h3.2a2.5,2.5,0,0,0-.5-1.3A1.2,1.2,0,0,0,194.8,141.8Zm7.6,4.9a2.1,2.1,0,0,1-1.8.7,1.8,1.8,0,0,1-1.5-.6,2.2,2.2,0,0,1-.5-1.7V141h1v4.1c0,.9.4,1.4,1.2,1.4a1.6,1.6,0,0,0,1.6-.9V141h1.1v6.3h-1Zm5.7-4.7h-.5a1.3,1.3,0,0,0-1.4.9v4.5h-1.1V141h1v.7a1.6,1.6,0,0,1,1.5-.8h.4Zm9.7-2.2h-2.7v7.5H214v-7.5h-2.7v-.9h6.5Zm2.3,7.5H219V141h1.1Zm-1.2-7.9c0-.2,0-.4.2-.5l.4-.2.5.2a.8.8,0,0,1,.2.5l-.2.4-.5.2-.4-.2A.4.4,0,0,1,218.9,139.4Zm3.9,1.6v.7a2.6,2.6,0,0,1,1.9-.8,1.7,1.7,0,0,1,1.7,1,3.1,3.1,0,0,1,.9-.7,2,2,0,0,1,1.1-.3c1.4,0,2.1.7,2.1,2.2v4.2h-1v-4.1a1.3,1.3,0,0,0-.3-1,1.2,1.2,0,0,0-1.1-.4,1.3,1.3,0,0,0-1,.4,1.3,1.3,0,0,0-.4.9v4.2h-1.1v-4.1c0-.9-.4-1.4-1.3-1.4a1.6,1.6,0,0,0-1.5.9v4.6h-1V141Zm12,6.4a2.9,2.9,0,0,1-2.1-.8,3,3,0,0,1-.8-2.3v-.2a4.1,4.1,0,0,1,.3-1.6,4,4,0,0,1,1-1.2,3.7,3.7,0,0,1,1.4-.4,2.4,2.4,0,0,1,1.9.8,3.3,3.3,0,0,1,.7,2.3v.5H233a2,2,0,0,0,.5,1.5,1.9,1.9,0,0,0,1.3.5l1-.2.7-.6.6.5A2.6,2.6,0,0,1,234.8,147.4Zm-.2-5.6a1.3,1.3,0,0,0-1.1.5,2.2,2.2,0,0,0-.5,1.3h3.1a2.5,2.5,0,0,0-.4-1.3A1.4,1.4,0,0,0,234.6,141.8Zm7.5,3.8a.5.5,0,0,0-.4-.6,2.8,2.8,0,0,0-1.1-.5,4,4,0,0,1-1.3-.4,1.3,1.3,0,0,1-.7-.6,1.5,1.5,0,0,1-.2-.8,1.8,1.8,0,0,1,.6-1.3,3.1,3.1,0,0,1,1.7-.5,2.4,2.4,0,0,1,1.7.6,1.5,1.5,0,0,1,.7,1.4H242a.9.9,0,0,0-.4-.8,1.2,1.2,0,0,0-.9-.3l-.9.2a.9.9,0,0,0-.3.7.6.6,0,0,0,.3.6l1.1.4,1.3.4.7.6a1.1,1.1,0,0,1,.2.8,1.7,1.7,0,0,1-.6,1.4,3.5,3.5,0,0,1-1.8.5,2.8,2.8,0,0,1-1.3-.3,1.6,1.6,0,0,1-.9-.7,1.9,1.9,0,0,1-.3-1h1a1.4,1.4,0,0,0,.5.8,1.5,1.5,0,0,0,1,.3l1-.2A.8.8,0,0,0,242.1,145.6Zm8-2.1a5.1,5.1,0,0,1-2.1-1,2,2,0,0,1-.6-1.5,2.1,2.1,0,0,1,.8-1.6,3.3,3.3,0,0,1,2.1-.7,3.7,3.7,0,0,1,1.5.4,2.4,2.4,0,0,1,1.1.9,2.8,2.8,0,0,1,.3,1.3h-1.1a1.3,1.3,0,0,0-.5-1.2,1.8,1.8,0,0,0-1.3-.4,2.3,2.3,0,0,0-1.3.3,1.4,1.4,0,0,0-.5,1,1.1,1.1,0,0,0,.5.9,2.6,2.6,0,0,0,1.4.6l1.7.7a2.4,2.4,0,0,1,.9.8,2,2,0,0,1,.2,1.1,1.9,1.9,0,0,1-.8,1.7,3.3,3.3,0,0,1-2.1.6,4.1,4.1,0,0,1-1.6-.3l-1.2-.9a3.3,3.3,0,0,1-.4-1.4h1.1a1.5,1.5,0,0,0,.6,1.3,3.3,3.3,0,0,0,1.5.4,2,2,0,0,0,1.4-.4,1,1,0,0,0,.4-.9,1.1,1.1,0,0,0-.4-1Zm4.1.6a3.7,3.7,0,0,1,.7-2.3,2.3,2.3,0,0,1,1.8-.9,2.2,2.2,0,0,1,1.8.8V141h1v8.7h-1v-3a2.4,2.4,0,0,1-1.8.7,2.3,2.3,0,0,1-1.8-.9,4.2,4.2,0,0,1-.7-2.3Zm1.1.1a2.9,2.9,0,0,0,.5,1.7,1.4,1.4,0,0,0,1.2.6,1.9,1.9,0,0,0,1.5-.8v-3.1a1.9,1.9,0,0,0-1.5-.8,1.4,1.4,0,0,0-1.2.6A3,3,0,0,0,255.3,144.2Zm9.8,2.5a2.1,2.1,0,0,1-1.8.7,2.1,2.1,0,0,1-1.6-.6,2.6,2.6,0,0,1-.5-1.7V141h1.1v4.1c0,.9.4,1.4,1.1,1.4a1.7,1.7,0,0,0,1.7-.9V141h1v6.3h-1Zm6.5.6a5.6,5.6,0,0,1-.1-.7,2.5,2.5,0,0,1-1.8.8,2.5,2.5,0,0,1-1.5-.5,1.9,1.9,0,0,1,.1-2.9,4.1,4.1,0,0,1,2.1-.5h1.1V143a1,1,0,0,0-.4-.9,1.3,1.3,0,0,0-1-.3,1.4,1.4,0,0,0-.9.3.8.8,0,0,0-.4.7h-1.1a1.2,1.2,0,0,1,.3-.9,2.3,2.3,0,0,1,1-.7,2.6,2.6,0,0,1,2.9.3,1.7,1.7,0,0,1,.6,1.4v2.9a2.6,2.6,0,0,0,.3,1.4h-1.2Zm-1.7-.8a1.6,1.6,0,0,0,.9-.3,2.3,2.3,0,0,0,.7-.7v-1.3h-.9c-1.3,0-1.9.4-1.9,1.2a1.1,1.1,0,0,0,.3.8A1.2,1.2,0,0,0,269.9,146.5Zm7.3-4.5h-.5a1.3,1.3,0,0,0-1.4.9v4.5h-1.1V141h1.1v.7a1.6,1.6,0,0,1,1.5-.8h.4Zm3.5,5.4a3.2,3.2,0,0,1-2.1-.8,3.4,3.4,0,0,1-.8-2.3v-.2a4.2,4.2,0,0,1,.4-1.6,2.9,2.9,0,0,1,1-1.2,3.3,3.3,0,0,1,1.4-.4,2.6,2.6,0,0,1,1.9.8,3.9,3.9,0,0,1,.6,2.3v.5h-4.2a2.5,2.5,0,0,0,.5,1.5,2.2,2.2,0,0,0,1.4.5l.9-.2.7-.6.7.5A2.7,2.7,0,0,1,280.7,147.4Zm-.1-5.6a1.2,1.2,0,0,0-1.1.5,2.3,2.3,0,0,0-.6,1.3h3.2a2.5,2.5,0,0,0-.5-1.3A1.2,1.2,0,0,0,280.6,141.8Z" transform="translate(-44)"/><path d="M279.9,138.9v.9h-.2a2.7,2.7,0,0,0-2,.7,2.8,2.8,0,0,0-.8,2,2.1,2.1,0,0,1,1.8-.7,2.1,2.1,0,0,1,1.7.7,2.9,2.9,0,0,1,.7,2,3.3,3.3,0,0,1-.7,2.1,2.6,2.6,0,0,1-1.9.8,2.5,2.5,0,0,1-2-.9,3.6,3.6,0,0,1-.7-2.4v-.4a5.3,5.3,0,0,1,1-3.6,3.4,3.4,0,0,1,2.9-1.2Zm-1.4,3.8a1.7,1.7,0,0,0-1,.3,2.7,2.7,0,0,0-.7.8v.4a2.9,2.9,0,0,0,.5,1.7,1.5,1.5,0,0,0,2.3.1,2.1,2.1,0,0,0,.4-1.4,2,2,0,0,0-.4-1.4A1.2,1.2,0,0,0,278.5,142.7Zm5-.9a2.3,2.3,0,0,1,1.9-.9c1.3,0,2,.8,2,2.2v4.2h-1.1v-4.2a1.7,1.7,0,0,0-.3-1,1.2,1.2,0,0,0-.9-.3,1.7,1.7,0,0,0-1,.3l-.6.7v4.5h-1v-8.9h1Zm12.3,5.5c-.1-.1-.1-.4-.2-.7a2.5,2.5,0,0,1-1.8.8,2.5,2.5,0,0,1-1.5-.5,1.8,1.8,0,0,1-.6-1.4,1.9,1.9,0,0,1,.8-1.5,4.1,4.1,0,0,1,2.1-.5h1V143a1.2,1.2,0,0,0-.3-.9,1.5,1.5,0,0,0-1-.3,1.7,1.7,0,0,0-1,.3,1,1,0,0,0-.4.7h-1a1.2,1.2,0,0,1,.3-.9,1.6,1.6,0,0,1,.9-.7,2.8,2.8,0,0,1,1.3-.3,2.1,2.1,0,0,1,1.6.6,1.5,1.5,0,0,1,.7,1.4v2.9a4.6,4.6,0,0,0,.2,1.4h-1.1Zm-1.8-.8a1.9,1.9,0,0,0,1-.3,1.3,1.3,0,0,0,.6-.7v-1.3h-.8c-1.3,0-2,.4-2,1.2a1.1,1.1,0,0,0,.3.8A1.6,1.6,0,0,0,294,146.5Zm4.1-2.4a3.3,3.3,0,0,1,.7-2.3,2,2,0,0,1,1.8-.9,2.5,2.5,0,0,1,1.8.8V141h1v6.1a2.4,2.4,0,0,1-2.7,2.6l-1.3-.2a2.7,2.7,0,0,1-1-.8l.6-.7a2,2,0,0,0,1.7.9,1.7,1.7,0,0,0,1.2-.5,1.6,1.6,0,0,0,.4-1.2v-.5a2.1,2.1,0,0,1-1.7.7,2,2,0,0,1-1.8-.9A3.6,3.6,0,0,1,298.1,144.1Zm1.1.1a2.9,2.9,0,0,0,.4,1.7,1.4,1.4,0,0,0,1.2.6,1.6,1.6,0,0,0,1.5-.9v-2.9a1.6,1.6,0,0,0-1.5-.9,1.4,1.4,0,0,0-1.2.6A3,3,0,0,0,299.2,144.2Zm5.5-.1a3.3,3.3,0,0,1,.4-1.7,3.5,3.5,0,0,1,1-1.1,2.4,2.4,0,0,1,1.5-.4,2.5,2.5,0,0,1,2,.9,3.1,3.1,0,0,1,.8,2.3h0a4.7,4.7,0,0,1-.3,1.7,5.2,5.2,0,0,1-1,1.1,2.8,2.8,0,0,1-1.5.4,2.6,2.6,0,0,1-2.1-.9,3.6,3.6,0,0,1-.8-2.3Zm1.1.1a2.9,2.9,0,0,0,.5,1.7,1.5,1.5,0,0,0,1.3.6,1.6,1.6,0,0,0,1.3-.6,3,3,0,0,0,.5-1.8,3.1,3.1,0,0,0-.5-1.7,1.8,1.8,0,0,0-1.3-.6,1.5,1.5,0,0,0-1.3.6A3,3,0,0,0,305.8,144.2Z" transform="translate(-44)"/><path d="M357.5,138.9h1.1v5.9a2.4,2.4,0,0,1-.7,1.9,2.5,2.5,0,0,1-1.9.7,3,3,0,0,1-2-.6,2.4,2.4,0,0,1-.7-1.8h1.1a1.5,1.5,0,0,0,.4,1.1,1.6,1.6,0,0,0,1.2.4,2.1,2.1,0,0,0,1.1-.4,1.7,1.7,0,0,0,.4-1.3Zm2.6,5.2a4.7,4.7,0,0,1,.3-1.7,5.2,5.2,0,0,1,1-1.1,2.6,2.6,0,0,1,1.5-.4,2.7,2.7,0,0,1,2.1.9,3.6,3.6,0,0,1,.8,2.3h0a4.7,4.7,0,0,1-.4,1.7,3.5,3.5,0,0,1-1,1.1,2.4,2.4,0,0,1-1.5.4,2.9,2.9,0,0,1-2.1-.9,3.5,3.5,0,0,1-.7-2.3Zm1,.1a2.9,2.9,0,0,0,.5,1.7,1.6,1.6,0,0,0,1.3.6,1.5,1.5,0,0,0,1.3-.6,3,3,0,0,0,.5-1.8,3.1,3.1,0,0,0-.5-1.7,1.7,1.7,0,0,0-2.6,0A3,3,0,0,0,361.1,144.2Zm5.7-.1a3.9,3.9,0,0,1,.7-2.3,2.3,2.3,0,0,1,1.8-.9,2.1,2.1,0,0,1,1.7.8v-3.3h1.1v8.9h-1v-.7a2.2,2.2,0,0,1-1.8.8,2.3,2.3,0,0,1-1.8-.9,4.2,4.2,0,0,1-.7-2.3Zm1.1.1a3.9,3.9,0,0,0,.4,1.7,1.5,1.5,0,0,0,1.3.6,1.5,1.5,0,0,0,1.4-.9v-2.9a1.5,1.5,0,0,0-1.4-.9,1.5,1.5,0,0,0-1.3.6A4,4,0,0,0,367.9,144.2Zm7.9,1.5,1.5-4.7h1.1l-2.5,7.2c-.4,1.1-1,1.6-1.8,1.6h-.6v-.8h.2l.9-.2a1.9,1.9,0,0,0,.5-.9l.2-.6-2.2-6.2h1.2Zm9.6-3.7h-.6a1.3,1.3,0,0,0-1.4.9v4.5h-1.1V141h1.1v.7a1.6,1.6,0,0,1,1.5-.8h.5Zm.5,2.1a4.7,4.7,0,0,1,.4-1.7,3.5,3.5,0,0,1,1-1.1,2.4,2.4,0,0,1,1.5-.4,2.5,2.5,0,0,1,2,.9,3.1,3.1,0,0,1,.8,2.3h0a4.7,4.7,0,0,1-.3,1.7,3.5,3.5,0,0,1-1,1.1,2.4,2.4,0,0,1-1.5.4,2.7,2.7,0,0,1-2.1-.9,3.6,3.6,0,0,1-.8-2.3Zm1.1.1a2.9,2.9,0,0,0,.5,1.7,1.7,1.7,0,0,0,2.6,0,3,3,0,0,0,.5-1.8,3.1,3.1,0,0,0-.5-1.7,1.7,1.7,0,0,0-2.6,0A3,3,0,0,0,387,144.2Zm11.3,0a3.3,3.3,0,0,1-.7,2.3,2,2,0,0,1-1.8.9,2.3,2.3,0,0,1-1.8-.8v.7h-1v-8.9h1v3.3a2.5,2.5,0,0,1,1.8-.8,2,2,0,0,1,1.8.9,3.2,3.2,0,0,1,.7,2.3Zm-1.1-.1a2.9,2.9,0,0,0-.4-1.7,1.4,1.4,0,0,0-1.2-.6,1.7,1.7,0,0,0-1.6,1v2.7a1.7,1.7,0,0,0,1.6,1,1.4,1.4,0,0,0,1.2-.6A3,3,0,0,0,397.2,144.1Zm5,3.3a2.8,2.8,0,0,1-2-.8,3,3,0,0,1-.8-2.3v-.2a4.1,4.1,0,0,1,.3-1.6,2.9,2.9,0,0,1,1-1.2,3.3,3.3,0,0,1,1.4-.4,2.6,2.6,0,0,1,1.9.8,3.9,3.9,0,0,1,.7,2.3v.5h-4.3a2,2,0,0,0,.6,1.5,1.7,1.7,0,0,0,1.3.5l.9-.2.7-.6.7.5A2.6,2.6,0,0,1,402.2,147.4Zm-.1-5.6a1.3,1.3,0,0,0-1.1.5,1.7,1.7,0,0,0-.5,1.3h3.1a2.5,2.5,0,0,0-.4-1.3A1.5,1.5,0,0,0,402.1,141.8Zm6.8.2h-.5a1.3,1.3,0,0,0-1.4.9v4.5h-1.1V141h1v.7a1.6,1.6,0,0,1,1.5-.8h.4Zm2.8-2.5V141h1.1v.9h-1.1v3.8c0,.3,0,.5.1.6l.5.2h.6v.9H412a1.2,1.2,0,0,1-1-.4,1.7,1.7,0,0,1-.4-1.3v-3.8h-1.1V141h1.1v-1.5Zm6,6.1a.6.6,0,0,0-.3-.6,3.8,3.8,0,0,0-1.1-.5,3.3,3.3,0,0,1-1.3-.4.9.9,0,0,1-.7-.6,1,1,0,0,1-.3-.8,1.9,1.9,0,0,1,.7-1.3,2.8,2.8,0,0,1,1.6-.5,2.6,2.6,0,0,1,1.8.6,1.7,1.7,0,0,1,.6,1.4h-1a1.2,1.2,0,0,0-.4-.8,1.7,1.7,0,0,0-1-.3l-.9.2a.9.9,0,0,0-.3.7.6.6,0,0,0,.3.6l1.1.4a3.3,3.3,0,0,1,1.3.4l.8.6a1.9,1.9,0,0,1,.2.8,1.5,1.5,0,0,1-.7,1.4,2.9,2.9,0,0,1-1.7.5,2.5,2.5,0,0,1-1.3-.3,2.3,2.3,0,0,1-1-.7,1.9,1.9,0,0,1-.3-1h1.1a1.2,1.2,0,0,0,.4.8,1.8,1.8,0,0,0,1.1.3l1-.2A.9.9,0,0,0,417.7,145.6Z" transform="translate(-44)"/><path d="M175.3,97.1a3.5,3.5,0,0,1-1,2.2,3.6,3.6,0,0,1-2.4.7,3.1,3.1,0,0,1-2.6-1.1,4.5,4.5,0,0,1-.9-3v-.5a6.5,6.5,0,0,1,.4-2.1,2.9,2.9,0,0,1,1.3-1.4,2.7,2.7,0,0,1,1.8-.5,3.2,3.2,0,0,1,2.4.8,3,3,0,0,1,1,2.2h-1.7c-.1-.6-.2-1-.5-1.2a1.6,1.6,0,0,0-1.2-.4,1.5,1.5,0,0,0-1.3.6,3.5,3.5,0,0,0-.4,2V96a3.5,3.5,0,0,0,.4,2,1.5,1.5,0,0,0,1.3.6,2.1,2.1,0,0,0,1.2-.3,1.6,1.6,0,0,0,.4-1.2Zm4.6,2.8a4.3,4.3,0,0,1-.1-.5,2.3,2.3,0,0,1-1.6.6,2,2,0,0,1-1.5-.5,1.8,1.8,0,0,1-.6-1.3,1.9,1.9,0,0,1,.7-1.6,4.1,4.1,0,0,1,2.1-.5h.8v-.4a1.4,1.4,0,0,0-.2-.7l-.7-.2a.8.8,0,0,0-.7.2c-.2.1-.2.3-.2.5h-1.7a1.9,1.9,0,0,1,.3-1l1-.7a2.9,2.9,0,0,1,1.4-.3,2.8,2.8,0,0,1,1.8.6,2.4,2.4,0,0,1,.7,1.7v2.7a3.9,3.9,0,0,0,.2,1.3h-1.7Zm-1.3-1.1.6-.2a1.2,1.2,0,0,0,.5-.5v-1h-.6c-.9,0-1.3.3-1.4.8h0a1.4,1.4,0,0,0,.2.6Zm5.6-5.1v.7a2,2,0,0,1,1.8-.9,1.7,1.7,0,0,1,1.6,1,2.4,2.4,0,0,1,1.9-1,1.8,1.8,0,0,1,1.5.6,2.4,2.4,0,0,1,.5,1.8v4h-1.7v-4c0-.3,0-.6-.2-.7s-.3-.3-.7-.3a1,1,0,0,0-1,.7v4.3h-1.7v-4a1.9,1.9,0,0,0-.2-.8l-.7-.2a1.1,1.1,0,0,0-1.1.6v4.4h-1.6V93.7Zm14.3,3.1a4.3,4.3,0,0,1-.6,2.4,2.3,2.3,0,0,1-1.8.8,2,2,0,0,1-1.5-.6v2.9h-1.7V93.7h1.6v.6a2.1,2.1,0,0,1,1.6-.8,2,2,0,0,1,1.8.9,4.3,4.3,0,0,1,.6,2.4Zm-1.6-.1a2.3,2.3,0,0,0-.3-1.3,1.2,1.2,0,0,0-2,.1v2.6a1.1,1.1,0,0,0,1.1.6C196.5,98.7,196.9,98,196.9,96.7Zm6.3,3.2c-.1-.1-.1-.3-.2-.5a2,2,0,0,1-1.5.6,2.2,2.2,0,0,1-1.6-.5,1.8,1.8,0,0,1-.6-1.3,1.9,1.9,0,0,1,.8-1.6,4.1,4.1,0,0,1,2.1-.5h.8v-.4a.9.9,0,0,0-.3-.7,1,1,0,0,0-.7-.2c-.2,0-.5,0-.6.2a.5.5,0,0,0-.3.5h-1.6a1.9,1.9,0,0,1,.3-1,2.6,2.6,0,0,1,1-.7,2.8,2.8,0,0,1,1.3-.3,2.9,2.9,0,0,1,1.9.6,2.4,2.4,0,0,1,.6,1.7v2.7a3.5,3.5,0,0,0,.3,1.3h-1.7Zm-1.4-1.1.7-.2a1.2,1.2,0,0,0,.5-.5v-1h-.7c-.8,0-1.2.3-1.3.8h0a1.4,1.4,0,0,0,.2.6Zm3.9-2.1a3.5,3.5,0,0,1,.7-2.3,2,2,0,0,1,1.8-.9,1.9,1.9,0,0,1,1.6.8v-.6h1.5v6a2.1,2.1,0,0,1-.4,1.4,3.2,3.2,0,0,1-1,1,4.1,4.1,0,0,1-1.6.3,2.8,2.8,0,0,1-1.3-.3,2,2,0,0,1-1-.7l.7-1a2.1,2.1,0,0,0,1.5.7,1.4,1.4,0,0,0,1.1-.4,1.3,1.3,0,0,0,.3-1v-.3a2,2,0,0,1-1.5.6,2.5,2.5,0,0,1-1.8-.8,3.6,3.6,0,0,1-.7-2.4Zm1.7.2a2.5,2.5,0,0,0,.3,1.3,1.1,1.1,0,0,0,.9.5,1.1,1.1,0,0,0,1.1-.6V95.5a1.1,1.1,0,0,0-1-.6,1.2,1.2,0,0,0-1,.5A2.8,2.8,0,0,0,207.4,96.9Zm6.8-3.2v.7a2,2,0,0,1,1.8-.9,1.9,1.9,0,0,1,1.5.6,3,3,0,0,1,.5,1.8v4h-1.7v-4a1.9,1.9,0,0,0-.2-.8l-.8-.2a1.3,1.3,0,0,0-1.1.6v4.4h-1.6V93.7Zm8,6.3a2.9,2.9,0,0,1-2.2-.8,3,3,0,0,1-.9-2.3h0a3.1,3.1,0,0,1,.4-1.7,2.9,2.9,0,0,1,1-1.2,4.2,4.2,0,0,1,1.5-.4,2.3,2.3,0,0,1,2,.9,3.1,3.1,0,0,1,.8,2.2v.7h-4a1.6,1.6,0,0,0,.5,1,1.3,1.3,0,0,0,1,.4,1.6,1.6,0,0,0,1.5-.7l.9.9a2.3,2.3,0,0,1-1.1.8A3.2,3.2,0,0,1,222.2,100Zm-.2-5.1a1.1,1.1,0,0,0-.8.3,3,3,0,0,0-.4,1h2.3a1.2,1.2,0,0,0-.3-.9C222.7,95,222.4,94.9,222,94.9Zm7.1,3.3a.5.5,0,0,0-.3-.5l-.9-.3c-1.5-.3-2.3-1-2.3-1.9a1.9,1.9,0,0,1,.7-1.4,2.8,2.8,0,0,1,1.8-.6,2.9,2.9,0,0,1,1.9.6,1.8,1.8,0,0,1,.7,1.5h-1.6a.6.6,0,0,0-.3-.6.8.8,0,0,0-.7-.3l-.6.2c-.2.2-.3.3-.3.5s.1.3.3.5l.9.3,1,.2c.9.4,1.4.9,1.4,1.7a1.6,1.6,0,0,1-.8,1.4,2.9,2.9,0,0,1-1.9.5l-1.4-.2a2.4,2.4,0,0,1-.9-.8,1.5,1.5,0,0,1-.4-1.1H227a.8.8,0,0,0,.3.7c.2.2.5.2.9.2h.7C229,98.5,229.1,98.4,229.1,98.2Zm9.2-3h-.6a1.2,1.2,0,0,0-1.2.6v4.1h-1.7V93.7h1.6v.7a1.5,1.5,0,0,1,1.4-.9h.5Zm3.6,4.8a3.1,3.1,0,0,1-2.3-.8,3.4,3.4,0,0,1-.8-2.3h0a4.3,4.3,0,0,1,.3-1.7,3.2,3.2,0,0,1,1.1-1.2,3.3,3.3,0,0,1,1.5-.4,2.5,2.5,0,0,1,2,.9,3.1,3.1,0,0,1,.7,2.2v.7h-3.9a1.5,1.5,0,0,0,.4,1,1.5,1.5,0,0,0,1.1.4,1.8,1.8,0,0,0,1.5-.7l.8.9a2,2,0,0,1-1,.8A3.2,3.2,0,0,1,241.9,100Zm-.2-5.1a1.1,1.1,0,0,0-.8.3,1.8,1.8,0,0,0-.4,1h2.3a1.2,1.2,0,0,0-.3-.9A1.1,1.1,0,0,0,241.7,94.9Zm.1-3.9h1.9l-1.6,1.8h-1.4Zm6.2,7.7a1.1,1.1,0,0,0,.8-.3l.3-.6h1.5a2,2,0,0,1-.3,1.1,2.5,2.5,0,0,1-1,.8,2.8,2.8,0,0,1-1.3.3,2.9,2.9,0,0,1-2.1-.8,3.6,3.6,0,0,1-.8-2.4h0a3.4,3.4,0,0,1,.8-2.3,2.6,2.6,0,0,1,2.1-.9,2.9,2.9,0,0,1,1.9.7,2.4,2.4,0,0,1,.7,1.8h-1.5l-.3-.8a1.1,1.1,0,0,0-.8-.3,1,1,0,0,0-.9.4,2.6,2.6,0,0,0-.3,1.4v.2a2.6,2.6,0,0,0,.3,1.4A1.3,1.3,0,0,0,248,98.7Zm6.5,1.3a2.8,2.8,0,0,1-3.1-3.1h0a4.3,4.3,0,0,1,.3-1.7,4,4,0,0,1,1-1.2,4.2,4.2,0,0,1,1.6-.4,2.5,2.5,0,0,1,2,.9,3.1,3.1,0,0,1,.7,2.2v.7h-4a2.3,2.3,0,0,0,.5,1,1.4,1.4,0,0,0,1.1.4,1.8,1.8,0,0,0,1.5-.7l.8.9a2.5,2.5,0,0,1-1,.8A3.2,3.2,0,0,1,254.5,100Zm-.2-5.1a1,1,0,0,0-.8.3,1.8,1.8,0,0,0-.4,1h2.3a1.2,1.2,0,0,0-.3-.9A1.1,1.1,0,0,0,254.3,94.9Zm5.2-1.2v.7a2,2,0,0,1,1.8-.9,1.8,1.8,0,0,1,1.7,1,2.2,2.2,0,0,1,3.4-.4,3,3,0,0,1,.5,1.8v4h-1.7v-4a1.2,1.2,0,0,0-.2-.7,1,1,0,0,0-.8-.3,1,1,0,0,0-1,.7v4.3h-1.7v-4a1.1,1.1,0,0,0-.2-.8l-.7-.2a1,1,0,0,0-1,.6v4.4H258V93.7Zm10.3,0v.7a2,2,0,0,1,1.8-.9,1.7,1.7,0,0,1,1.6,1,2.4,2.4,0,0,1,1.9-1,1.8,1.8,0,0,1,1.5.6,3,3,0,0,1,.5,1.8v4h-1.7v-4c0-.3,0-.6-.2-.7a.8.8,0,0,0-.7-.3,1.1,1.1,0,0,0-1.1.7v4.3h-1.7v-4a1.9,1.9,0,0,0-.2-.8l-.8-.2a1.1,1.1,0,0,0-1,.6v4.4h-1.7V93.7Zm11.6,6.3a3.1,3.1,0,0,1-2.3-.8,3.4,3.4,0,0,1-.8-2.3h0a4.3,4.3,0,0,1,.3-1.7,3.2,3.2,0,0,1,1.1-1.2,3.3,3.3,0,0,1,1.5-.4,2.5,2.5,0,0,1,2,.9,3.1,3.1,0,0,1,.8,2.2v.7h-4a1.2,1.2,0,0,0,.5,1,1.2,1.2,0,0,0,1,.4A1.8,1.8,0,0,0,283,98l.8.9a2,2,0,0,1-1,.8A3.2,3.2,0,0,1,281.4,100Zm-.2-5.1a1.1,1.1,0,0,0-.8.3,1.8,1.8,0,0,0-.4,1h2.3a1.2,1.2,0,0,0-.3-.9A1.1,1.1,0,0,0,281.2,94.9Zm5.2-1.2v.7a2,2,0,0,1,1.8-.9,1.9,1.9,0,0,1,1.5.6,3,3,0,0,1,.5,1.8v4h-1.7v-4a1.9,1.9,0,0,0-.2-.8l-.8-.2a1.3,1.3,0,0,0-1.1.6v4.4h-1.6V93.7Zm7.1-1.6v1.6h1.1v1.2h-1.1V98a.8.8,0,0,0,.2.5.6.6,0,0,0,.5.2h.5v1.3h-1c-1.2,0-1.8-.6-1.8-1.7V94.9H291V93.7h.9V92.1Zm7.6,6.6a.8.8,0,0,0,.7-.3.7.7,0,0,0,.3-.6h1.6a2,2,0,0,1-.3,1.1,2.5,2.5,0,0,1-1,.8,2.8,2.8,0,0,1-1.3.3,2.9,2.9,0,0,1-2.1-.8,3.6,3.6,0,0,1-.8-2.4h0a3.4,3.4,0,0,1,.8-2.3,2.6,2.6,0,0,1,2.1-.9,2.9,2.9,0,0,1,1.9.7,2.4,2.4,0,0,1,.7,1.8h-1.6a1.1,1.1,0,0,0-.3-.8.8.8,0,0,0-.7-.3,1,1,0,0,0-.9.4,2.6,2.6,0,0,0-.3,1.4v.2a2.6,2.6,0,0,0,.3,1.4A1.3,1.3,0,0,0,301.1,98.7Zm7.1-3.5h-.6c-.7,0-1.1.2-1.3.6v4.1h-1.6V93.7h1.5v.7a1.5,1.5,0,0,1,1.4-.9h.5Zm3.6,4.8a2.8,2.8,0,0,1-3.1-3.1h0a4.3,4.3,0,0,1,.3-1.7,4,4,0,0,1,1-1.2,4.2,4.2,0,0,1,1.6-.4,2.5,2.5,0,0,1,2,.9,3.1,3.1,0,0,1,.7,2.2v.7h-4a2.3,2.3,0,0,0,.5,1,1.4,1.4,0,0,0,1.1.4,1.8,1.8,0,0,0,1.5-.7l.8.9a2.5,2.5,0,0,1-1,.8A3.2,3.2,0,0,1,311.8,100Zm-.2-5.1a1,1,0,0,0-.8.3,1.8,1.8,0,0,0-.4,1h2.3a1.2,1.2,0,0,0-.3-.9A1.1,1.1,0,0,0,311.6,94.9Zm.1-3.9h1.8l-1.6,1.8h-1.3Zm6.5,9a2.8,2.8,0,0,1-3.1-3.1h0a4.3,4.3,0,0,1,.3-1.7,3.2,3.2,0,0,1,1.1-1.2,3.3,3.3,0,0,1,1.5-.4,2.5,2.5,0,0,1,2,.9,3.1,3.1,0,0,1,.7,2.2v.7h-3.9a1.5,1.5,0,0,0,.4,1,1.5,1.5,0,0,0,1.1.4,1.8,1.8,0,0,0,1.5-.7l.8.9a2,2,0,0,1-1,.8A3.2,3.2,0,0,1,318.2,100Zm-.2-5.1a1,1,0,0,0-.8.3,1.8,1.8,0,0,0-.4,1h2.3a1.2,1.2,0,0,0-.3-.9A1.1,1.1,0,0,0,318,94.9Zm.1-3.9h1.8l-1.6,1.8H317Zm6.5,9a3.1,3.1,0,0,1-2.3-.8,3.4,3.4,0,0,1-.8-2.3h0a4.3,4.3,0,0,1,.3-1.7,3.2,3.2,0,0,1,1.1-1.2,3.3,3.3,0,0,1,1.5-.4,2.5,2.5,0,0,1,2,.9,3.1,3.1,0,0,1,.7,2.2v.7h-3.9a1.5,1.5,0,0,0,.4,1,1.5,1.5,0,0,0,1.1.4,1.8,1.8,0,0,0,1.5-.7l.8.9a2,2,0,0,1-1,.8A3.2,3.2,0,0,1,324.6,100Zm-.2-5.1a1,1,0,0,0-.8.3,1.8,1.8,0,0,0-.4,1h2.3a1.2,1.2,0,0,0-.3-.9A1.1,1.1,0,0,0,324.4,94.9Zm7.1,3.3a.5.5,0,0,0-.3-.5l-1-.3c-1.5-.3-2.2-1-2.2-1.9a1.6,1.6,0,0,1,.7-1.4,2.4,2.4,0,0,1,1.8-.6,2.9,2.9,0,0,1,1.9.6,1.8,1.8,0,0,1,.7,1.5h-1.7a.8.8,0,0,0-.2-.6.9.9,0,0,0-.7-.3l-.7.2c-.1.2-.2.3-.2.5s.1.3.2.5l.9.3,1.1.2c.9.4,1.3.9,1.3,1.7a1.5,1.5,0,0,1-.7,1.4,2.9,2.9,0,0,1-1.9.5l-1.4-.2a3.9,3.9,0,0,1-1-.8,2,2,0,0,1-.3-1.1h1.6a.8.8,0,0,0,.3.7,1.1,1.1,0,0,0,.8.2h.7C331.4,98.5,331.5,98.4,331.5,98.2Z" transform="translate(-44)"/><rect class="cls-45" x="123" y="157" width="86" height="11" rx="3.4"/><rect class="cls-45" x="230.6" y="156.6" width="41.4" height="11" rx="3.4"/><rect class="cls-45" x="309" y="157" width="67" height="11" rx="3.4"/><rect class="cls-45" x="123" y="179" width="86" height="11" rx="3.4"/><rect class="cls-45" x="230.6" y="178.6" width="41.4" height="11" rx="3.4"/><rect class="cls-45" x="309" y="179" width="67" height="11" rx="3.4"/><rect class="cls-1" x="199.4" y="0.4" width="391.2" height="168.15" rx="8"/><rect class="cls-45" x="364" y="114" width="10" height="6" rx="1.4"/><rect class="cls-45" x="364" y="103" width="10" height="6" rx="1.4"/><rect class="cls-45" x="364" y="92" width="10" height="6" rx="1.4"/><rect class="cls-45" x="364" y="81" width="10" height="6" rx="1.4"/><rect class="cls-45" x="364" y="70" width="10" height="6" rx="1.4"/><rect class="cls-45" x="364" y="59" width="10" height="6" rx="1.4"/><rect class="cls-45" x="364" y="48" width="10" height="6" rx="1.4"/><path d="M417.3,129.6a4.9,4.9,0,0,1-.4,1.9,1.7,1.7,0,0,1-1.4.6,1.4,1.4,0,0,1-1.3-.6,3,3,0,0,1-.5-1.8v-1a3.6,3.6,0,0,1,.4-1.9,1.7,1.7,0,0,1,1.4-.6,1.4,1.4,0,0,1,1.3.6,3,3,0,0,1,.5,1.8Zm-.7-1a2.1,2.1,0,0,0-.3-1.3.9.9,0,0,0-.8-.5,1,1,0,0,0-.8.4,2.5,2.5,0,0,0-.3,1.3v1.2a2.6,2.6,0,0,0,.3,1.4,1,1,0,0,0,.8.4.8.8,0,0,0,.8-.4,2.3,2.3,0,0,0,.3-1.3Z" transform="translate(-44)"/><path d="M263.8,24.8h-1.4v3.1h-1.7V19.5h3.1a3.2,3.2,0,0,1,2.3.7,2.2,2.2,0,0,1,.8,1.8,2.4,2.4,0,0,1-.4,1.5,2,2,0,0,1-1.1.9l1.8,3.4h-1.8Zm-1.4-1.4h1.4a1.5,1.5,0,0,0,1-.3,1,1,0,0,0,.4-.9,1.3,1.3,0,0,0-.4-1,1.3,1.3,0,0,0-1-.3h-1.4Zm9.3,4.5a4.3,4.3,0,0,1-.1-.5,2.3,2.3,0,0,1-1.6.6,2,2,0,0,1-1.5-.5,1.8,1.8,0,0,1-.6-1.3,1.9,1.9,0,0,1,.7-1.6,4.1,4.1,0,0,1,2.1-.5h.8v-.4a1.4,1.4,0,0,0-.2-.7l-.7-.2a.8.8,0,0,0-.7.2.8.8,0,0,0-.2.5H268a1.9,1.9,0,0,1,.3-1l1-.7a3.2,3.2,0,0,1,1.4-.3,2.6,2.6,0,0,1,1.8.6,2.1,2.1,0,0,1,.7,1.7v2.7a3.9,3.9,0,0,0,.2,1.3h-1.7Zm-1.3-1.1.6-.2a.8.8,0,0,0,.5-.5v-1h-.6c-.9,0-1.3.3-1.4.8h0a.9.9,0,0,0,.3.6Zm9.7-2a3.6,3.6,0,0,1-.7,2.4,2.1,2.1,0,0,1-1.7.8,2.1,2.1,0,0,1-1.6-.6v2.9h-1.6V21.7H276v.6a1.9,1.9,0,0,1,1.6-.8,2.3,2.3,0,0,1,1.8.9,4.3,4.3,0,0,1,.6,2.4Zm-1.7-.1a2.3,2.3,0,0,0-.3-1.3,1.1,1.1,0,0,0-.9-.5,1.1,1.1,0,0,0-1.1.6v2.6a1.1,1.1,0,0,0,1.1.6C278,26.7,278.4,26,278.4,24.7Zm8.4.1a3.6,3.6,0,0,1-.7,2.4,2.2,2.2,0,0,1-1.8.8,2,2,0,0,1-1.5-.6v2.9h-1.7V21.7h1.6v.6a2.3,2.3,0,0,1,1.6-.8,2,2,0,0,1,1.8.9,3.6,3.6,0,0,1,.7,2.4Zm-1.7-.1a2.3,2.3,0,0,0-.3-1.3,1.1,1.1,0,0,0-.9-.5,1.1,1.1,0,0,0-1.1.6v2.6a1.1,1.1,0,0,0,1.1.6C284.7,26.7,285.1,26,285.1,24.7Zm2.5,0a4.1,4.1,0,0,1,.3-1.6,4,4,0,0,1,1-1.2,4.2,4.2,0,0,1,1.6-.4,3,3,0,0,1,2.1.8,3.4,3.4,0,0,1,.9,2.1v.5a3.6,3.6,0,0,1-.8,2.3,3.3,3.3,0,0,1-2.2.8,2.9,2.9,0,0,1-2.1-.8,3.2,3.2,0,0,1-.8-2.4Zm1.6.2a1.8,1.8,0,0,0,.4,1.3,1.1,1.1,0,0,0,.9.5,1.4,1.4,0,0,0,1-.5,2.8,2.8,0,0,0,.3-1.5,2.3,2.3,0,0,0-.3-1.3,1.4,1.4,0,0,0-1-.5,1.1,1.1,0,0,0-.9.5A2.1,2.1,0,0,0,289.2,24.9Zm8.8-1.7h-.6a1.2,1.2,0,0,0-1.2.6v4.1h-1.7V21.7h1.6v.7a1.6,1.6,0,0,1,1.4-.9h.5Zm3.1-3.1v1.6h1.1v1.2h-1.1V26a.8.8,0,0,0,.2.5c0,.1.2.2.5.2h.5v1.3h-1.1a1.5,1.5,0,0,1-1.7-1.7V22.9h-1V21.7h1V20.1Zm4.7,4.6a3.5,3.5,0,0,1,.7-2.3,2,2,0,0,1,1.8-.9,2.1,2.1,0,0,1,1.5.7V19h1.7v8.9h-1.6v-.6a2.1,2.1,0,0,1-1.6.7,2.2,2.2,0,0,1-1.8-.8A3.7,3.7,0,0,1,305.8,24.7Zm1.7.2a2.5,2.5,0,0,0,.3,1.3,1.1,1.1,0,0,0,.9.5,1.1,1.1,0,0,0,1.1-.7V23.6a1.1,1.1,0,0,0-1.1-.7C307.9,22.9,307.5,23.6,307.5,24.9Zm8.1,3.1a2.9,2.9,0,0,1-2.2-.8,3,3,0,0,1-.9-2.3h0a3.1,3.1,0,0,1,.4-1.7,2.9,2.9,0,0,1,1-1.2,4.2,4.2,0,0,1,1.5-.4,2.6,2.6,0,0,1,2.1.9,3.1,3.1,0,0,1,.7,2.2v.7h-4a1.6,1.6,0,0,0,.5,1,1.3,1.3,0,0,0,1,.4,1.6,1.6,0,0,0,1.5-.7l.9.9a2.3,2.3,0,0,1-1.1.8A3.2,3.2,0,0,1,315.6,28Zm-.2-5.1a1.1,1.1,0,0,0-.8.3,3,3,0,0,0-.4,1h2.4l-.3-.9A1.2,1.2,0,0,0,315.4,22.9Zm6.4,1.8a4.2,4.2,0,0,1,.7-2.3,2,2,0,0,1,1.8-.9,2.1,2.1,0,0,1,1.5.7V19h1.7v8.9H326v-.6a2,2,0,0,1-1.6.7,2.3,2.3,0,0,1-1.8-.8A4.4,4.4,0,0,1,321.8,24.7Zm1.7.2a2.5,2.5,0,0,0,.3,1.3,1.1,1.1,0,0,0,.9.5,1.1,1.1,0,0,0,1.1-.7V23.6a1.1,1.1,0,0,0-1.1-.7C323.9,22.9,323.5,23.6,323.5,24.9Zm7,3h-1.6V21.7h1.6ZM328.8,20a.7.7,0,0,1,.2-.6l.7-.2.7.2a.7.7,0,0,1,.2.6,1.4,1.4,0,0,1-.2.7l-.7.2-.7-.2A.8.8,0,0,1,328.8,20Zm6.5,6.2a.5.5,0,0,0-.3-.5l-1-.3c-1.5-.3-2.2-1-2.2-1.9a1.6,1.6,0,0,1,.7-1.4,2.6,2.6,0,0,1,1.8-.6,2.9,2.9,0,0,1,1.9.6,1.8,1.8,0,0,1,.7,1.5h-1.7c0-.3,0-.5-.2-.6a.8.8,0,0,0-.7-.3l-.7.2c-.1.2-.2.3-.2.5s.1.3.3.5l.9.3,1,.2c.9.4,1.3.9,1.3,1.7a1.5,1.5,0,0,1-.7,1.4,2.9,2.9,0,0,1-1.9.5l-1.4-.2a3.9,3.9,0,0,1-1-.8,2,2,0,0,1-.3-1.1h1.6a.8.8,0,0,0,.3.7,1.1,1.1,0,0,0,.8.2h.8C335.2,26.5,335.3,26.4,335.3,26.2Zm8.3-1.4a4.3,4.3,0,0,1-.6,2.4,2.3,2.3,0,0,1-1.8.8,2,2,0,0,1-1.5-.6v2.9H338V21.7h1.6v.6a2.1,2.1,0,0,1,1.6-.8,2,2,0,0,1,1.8.9,4.3,4.3,0,0,1,.6,2.4Zm-1.6-.1a2.3,2.3,0,0,0-.3-1.3,1.2,1.2,0,0,0-2,.1v2.6a1.1,1.1,0,0,0,1.1.6C341.6,26.7,342,26,342,24.7Zm2.4,0a2.9,2.9,0,0,1,.4-1.6,2.9,2.9,0,0,1,1-1.2,4.2,4.2,0,0,1,1.6-.4,2.8,2.8,0,0,1,2,.8,2.6,2.6,0,0,1,.9,2.1v.5a3.2,3.2,0,0,1-.9,2.3,2.9,2.9,0,0,1-2.1.8,3.3,3.3,0,0,1-2.2-.8,3.6,3.6,0,0,1-.8-2.4Zm1.7.2a2.5,2.5,0,0,0,.3,1.3,1.4,1.4,0,0,0,1,.5,1.1,1.1,0,0,0,.9-.5,2.1,2.1,0,0,0,.4-1.5,1.7,1.7,0,0,0-.4-1.3,1.1,1.1,0,0,0-.9-.5,1.4,1.4,0,0,0-1,.5A2.8,2.8,0,0,0,346.1,24.9Zm6.8-3.2v.7a2.2,2.2,0,0,1,3.3-.3,3,3,0,0,1,.4,1.8v4h-1.6v-4a1.1,1.1,0,0,0-.3-.8l-.7-.2a1.3,1.3,0,0,0-1.1.6v4.4h-1.7V21.7Zm6.9,6.2h-1.7V21.7h1.7ZM358,20a.9.9,0,0,1,.3-.6l.6-.2.7.2a.9.9,0,0,1,.3.6.9.9,0,0,1-.3.7l-.7.2-.6-.2A.9.9,0,0,1,358,20Zm8.8,4.8a4.3,4.3,0,0,1-.6,2.4,2.2,2.2,0,0,1-1.8.8,2.1,2.1,0,0,1-1.7-.7v.6h-1.5V19h1.6v3.2a2.2,2.2,0,0,1,1.6-.7,2,2,0,0,1,1.7.9,3.3,3.3,0,0,1,.7,2.4Zm-1.7-.1a2.6,2.6,0,0,0-.3-1.4,1,1,0,0,0-.9-.4,1.1,1.1,0,0,0-1.1.7V26a1.2,1.2,0,0,0,2.2-.1A4.1,4.1,0,0,0,365.1,24.7Zm4.5,3.2h-1.7V21.7h1.7ZM367.8,20a.9.9,0,0,1,.3-.6l.7-.2.6.2a.9.9,0,0,1,.3.6.9.9,0,0,1-.3.7l-.6.2-.7-.2A.9.9,0,0,1,367.8,20Zm4.9,7.9h-1.6V19h1.6Zm3.2,0h-1.7V21.7h1.7ZM374.1,20a.9.9,0,0,1,.3-.6l.7-.2.6.2a.9.9,0,0,1,.3.6.9.9,0,0,1-.3.7l-.6.2-.7-.2A.9.9,0,0,1,374.1,20Zm5.2.1v1.6h1v1.2h-1V26a.7.7,0,0,0,.1.5l.5.2h.5v1.3h-1c-1.2,0-1.8-.6-1.8-1.7V22.9h-.9V21.7h.9V20.1Zm4.9,7.9a3,3,0,0,1-2.3-.8,3,3,0,0,1-.9-2.3h0a4.3,4.3,0,0,1,.4-1.7,4,4,0,0,1,1-1.2,4.2,4.2,0,0,1,1.6-.4,2.5,2.5,0,0,1,2,.9,3.1,3.1,0,0,1,.7,2.2v.7h-4a2.3,2.3,0,0,0,.5,1,1.4,1.4,0,0,0,1.1.4,1.8,1.8,0,0,0,1.5-.7l.8.9a2.5,2.5,0,0,1-1,.8A3.5,3.5,0,0,1,384.2,28Zm-.2-5.1a1,1,0,0,0-.8.3,1.3,1.3,0,0,0-.4,1h2.3a1.2,1.2,0,0,0-.3-.9A1.1,1.1,0,0,0,384,22.9Zm.1-3.9h1.8l-1.6,1.8H383Zm6.6,8.1a.9.9,0,0,1,.3-.7l.7-.2.6.2a.9.9,0,0,1,.3.7.6.6,0,0,1-.3.6.7.7,0,0,1-.6.3.9.9,0,0,1-.7-.3A.6.6,0,0,1,390.7,27.1Zm0-4.7a.9.9,0,0,1,.3-.7.8.8,0,0,1,.7-.2c.2,0,.5,0,.6.2a.9.9,0,0,1,.3.7.9.9,0,0,1-.3.6c-.1.2-.4.2-.6.2a.8.8,0,0,1-.7-.2A.9.9,0,0,1,390.7,22.4Zm7.8-.7v.7a2.3,2.3,0,0,1,1.8-.9,1.8,1.8,0,0,1,1.7,1,2.3,2.3,0,0,1,1.9-1,1.8,1.8,0,0,1,1.5.6,3,3,0,0,1,.5,1.8v4h-1.7v-4a1.2,1.2,0,0,0-.2-.7.8.8,0,0,0-.7-.3,1.1,1.1,0,0,0-1.1.7v4.3h-1.6v-4a1.1,1.1,0,0,0-.3-.8,1,1,0,0,0-.7-.2,1,1,0,0,0-1,.6v4.4h-1.7V21.7Zm12.3,6.2c-.1-.1-.1-.3-.2-.5a2,2,0,0,1-1.5.6,2.1,2.1,0,0,1-1.6-.5,1.8,1.8,0,0,1-.6-1.3,1.9,1.9,0,0,1,.8-1.6,4.1,4.1,0,0,1,2.1-.5h.8v-.4a.9.9,0,0,0-.3-.7,1,1,0,0,0-.7-.2c-.2,0-.5,0-.6.2a.5.5,0,0,0-.3.5h-1.6a1.9,1.9,0,0,1,.3-1,2,2,0,0,1,1-.7,2.8,2.8,0,0,1,1.3-.3,2.9,2.9,0,0,1,1.9.6,2.4,2.4,0,0,1,.6,1.7v2.7a2.3,2.3,0,0,0,.3,1.3h-1.7Zm-1.4-1.1.7-.2.5-.5v-1h-.7c-.8,0-1.2.3-1.3.8h0a1.4,1.4,0,0,0,.2.6Zm5.9,1.1h-1.7V21.7h1.7ZM413.5,20a.9.9,0,0,1,.3-.6l.7-.2.6.2a.9.9,0,0,1,.3.6.9.9,0,0,1-.3.7l-.6.2-.7-.2A.9.9,0,0,1,413.5,20Zm11.8,7.9h-5.7V26.8l2.7-2.9.8-1.1a1.6,1.6,0,0,0,.3-.9,1.1,1.1,0,0,0-.3-.8.9.9,0,0,0-.8-.4,1.3,1.3,0,0,0-.9.4,1.7,1.7,0,0,0-.3,1h-1.7a3.5,3.5,0,0,1,.3-1.4,3.6,3.6,0,0,1,1.1-1,3.3,3.3,0,0,1,1.5-.3,3,3,0,0,1,2,.6,2.1,2.1,0,0,1,.7,1.8,2.7,2.7,0,0,1-.3,1.2,6.6,6.6,0,0,1-1.1,1.6l-1.9,2h3.6Zm6.7-3.5a4.1,4.1,0,0,1-.7,2.7,2.9,2.9,0,0,1-4.2,0,3.8,3.8,0,0,1-.8-2.6V23a4.1,4.1,0,0,1,.8-2.7,2.3,2.3,0,0,1,2.1-.9,2.6,2.6,0,0,1,2.1.9,4,4,0,0,1,.7,2.6Zm-1.7-1.7a3,3,0,0,0-.2-1.5,1.1,1.1,0,0,0-1.8,0,2.6,2.6,0,0,0-.3,1.4v2.1a3.1,3.1,0,0,0,.3,1.5,1.1,1.1,0,0,0,1.8,0,4.9,4.9,0,0,0,.2-1.5Zm8.6,5.2h-5.7V26.8l2.7-2.9.8-1.1a1.6,1.6,0,0,0,.3-.9,1.1,1.1,0,0,0-.3-.8.9.9,0,0,0-.8-.4,1.3,1.3,0,0,0-.9.4,1.7,1.7,0,0,0-.3,1H433a3.5,3.5,0,0,1,.3-1.4,3.6,3.6,0,0,1,1.1-1,3.3,3.3,0,0,1,1.5-.3,3,3,0,0,1,2,.6,2.1,2.1,0,0,1,.7,1.8,2.7,2.7,0,0,1-.3,1.2,6.6,6.6,0,0,1-1.1,1.6l-1.9,2h3.6Zm6.7-3.5a4.1,4.1,0,0,1-.7,2.7,2.9,2.9,0,0,1-4.2,0,3.8,3.8,0,0,1-.8-2.6V23a4.1,4.1,0,0,1,.8-2.7,2.3,2.3,0,0,1,2.1-.9,2.6,2.6,0,0,1,2.1.9,4,4,0,0,1,.7,2.6Zm-1.7-1.7a4.9,4.9,0,0,0-.2-1.5,1.1,1.1,0,0,0-1.8,0,2.6,2.6,0,0,0-.3,1.4v2.1a3.1,3.1,0,0,0,.3,1.5,1.1,1.1,0,0,0,1.8,0,4.9,4.9,0,0,0,.2-1.5Z" transform="translate(-44)"/><path d="M284.9,53.9h-1.8V59h-.8V53.9h-1.8v-.6h4.4Zm2.9,5.1c-.1-.1-.1-.2-.1-.4a2.1,2.1,0,0,1-1.2.5,1.2,1.2,0,0,1-1-.4,1,1,0,0,1-.4-.9,1,1,0,0,1,.5-1,2.6,2.6,0,0,1,1.4-.4h.7v-.3a.9.9,0,0,0-.3-.6,1.2,1.2,0,0,0-1.3,0,.8.8,0,0,0-.2.4h-.8a.9.9,0,0,1,.3-.6.9.9,0,0,1,.6-.4l.8-.2a1.6,1.6,0,0,1,1.2.4,1.3,1.3,0,0,1,.4,1V58a2.2,2.2,0,0,0,.1.9h-.7Zm-1.2-.6h.6a1.2,1.2,0,0,0,.5-.5v-.9h-.6c-.9,0-1.3.3-1.3.8a1.1,1.1,0,0,0,.2.6Zm5.5.2a1.5,1.5,0,0,1-1.2.5,1.3,1.3,0,0,1-1-.4,1.6,1.6,0,0,1-.4-1.2V54.8h.7v2.7c0,.6.3,1,.8,1a1,1,0,0,0,1.1-.7v-3h.7V59h-.6Zm3.3-2.3.9-1.5h.8l-1.3,2.1,1.4,2.1h-.9l-.9-1.6-1,1.6h-.8l1.4-2.1-1.4-2.1h.8Zm4.3.6a2.5,2.5,0,0,1,.5-1.6,1.4,1.4,0,0,1,1.2-.6,1.7,1.7,0,0,1,1.2.5V53h.7v6h-.7v-.5a1.5,1.5,0,0,1-2.4,0,2.5,2.5,0,0,1-.5-1.6Zm.7,0a2.1,2.1,0,0,0,.3,1.2,1.3,1.3,0,0,0,.9.4,1,1,0,0,0,1-.7V55.9a1.2,1.2,0,0,0-1-.6,1,1,0,0,0-.9.4A2.1,2.1,0,0,0,300.4,56.9Zm5.8,2.2a1.7,1.7,0,0,1-1.4-.6,2,2,0,0,1-.6-1.5h0a2,2,0,0,1,.3-1.1,1.6,1.6,0,0,1,1.6-1.1,1.9,1.9,0,0,1,1.3.5,2.5,2.5,0,0,1,.4,1.6v.3h-2.9a3,3,0,0,0,.4,1,1,1,0,0,0,.9.4l.7-.2.4-.4.5.4A1.9,1.9,0,0,1,306.2,59.1Zm-.1-3.8a1.1,1.1,0,0,0-.8.3,1.2,1.2,0,0,0-.3.9h2.1a1.1,1.1,0,0,0-.3-.8A.9.9,0,0,0,306.1,55.3Zm6.6.1h-.4a.9.9,0,0,0-.9.6v3h-.8V54.8h.7v.5a1,1,0,0,1,1-.6h.3Zm2.3,3.7a2,2,0,0,1-1.4-.6,2.5,2.5,0,0,1-.5-1.5h0a3.6,3.6,0,0,1,.2-1.1,1.9,1.9,0,0,1,.7-.8l.9-.3a1.7,1.7,0,0,1,1.3.5,2.5,2.5,0,0,1,.5,1.6v.3h-2.9a1.3,1.3,0,0,0,.4,1,1,1,0,0,0,.9.4l.6-.2.5-.4.4.4A1.8,1.8,0,0,1,315,59.1Zm-.1-3.8a.9.9,0,0,0-.7.3,1.9,1.9,0,0,0-.4.9h2.1a1.9,1.9,0,0,0-.2-.8A1.1,1.1,0,0,0,314.9,55.3Zm3.3-.5v.4a1.7,1.7,0,0,1,1.3-.5,1.1,1.1,0,0,1,1.2.7l.5-.5.8-.2c.9,0,1.4.5,1.4,1.5V59h-.7V56.2a1.4,1.4,0,0,0-.2-.7l-.7-.2a.9.9,0,0,0-.7.3,1.6,1.6,0,0,0-.3.6V59h-.7V56.2a.8.8,0,0,0-.9-.9,1,1,0,0,0-1,.6V59h-.7V54.8Zm9.9,2.1a2.5,2.5,0,0,1-.4,1.6,1.4,1.4,0,0,1-1.2.6,1.4,1.4,0,0,1-1.2-.5v2h-.8V54.8h.7v.4a1.7,1.7,0,0,1,1.2-.5,1.5,1.5,0,0,1,1.3.6,3.4,3.4,0,0,1,.4,1.6Zm-.7,0a2.1,2.1,0,0,0-.3-1.2,1,1,0,0,0-.9-.4,1,1,0,0,0-.9.6v2a1,1,0,0,0,.9.6,1,1,0,0,0,.9-.4A2.1,2.1,0,0,0,327.4,56.9Zm2.4,2.1h-.7V53h.7Zm2,0H331V54.8h.8Zm-.8-5.3c0-.2,0-.3.1-.3s.2-.2.3-.2l.3.2c.1,0,.1.1.1.3s0,.2-.1.2l-.3.2c-.1,0-.3-.1-.3-.2S331,53.8,331,53.7Zm4.4,4.2a.5.5,0,0,0-.3-.5l-.7-.3-.9-.2-.5-.4a1.3,1.3,0,0,1-.1-.6.9.9,0,0,1,.4-.8,1.5,1.5,0,0,1,1.1-.4,1.6,1.6,0,0,1,1.2.4,1.1,1.1,0,0,1,.5.9h-.8a.8.8,0,0,0-.2-.5l-.7-.2a.7.7,0,0,0-.6.2.5.5,0,0,0,0,.8l.8.3.8.2a1.2,1.2,0,0,1,.5.5.8.8,0,0,1,.2.5,1.1,1.1,0,0,1-.5.9,1.5,1.5,0,0,1-1.1.4l-.9-.2a1,1,0,0,1-.6-.5,1.1,1.1,0,0,1-.3-.7h.8a1.4,1.4,0,0,0,.2.6l.8.2.6-.2C335.3,58.2,335.4,58.1,335.4,57.9Zm4.1,0a.8.8,0,0,0-.2-.5l-.8-.3-.9-.2c-.2-.1-.3-.3-.4-.4a1.4,1.4,0,0,1-.2-.6.9.9,0,0,1,.4-.8,1.6,1.6,0,0,1,1.2-.4,1.5,1.5,0,0,1,1.1.4,1.1,1.1,0,0,1,.5.9h-.7a.5.5,0,0,0-.3-.5l-.6-.2a.8.8,0,0,0-.7.2.5.5,0,0,0,0,.8l.8.3.9.2.5.5a.7.7,0,0,1,.1.5,1,1,0,0,1-.4.9,1.6,1.6,0,0,1-1.2.4l-.9-.2a1,1,0,0,1-.6-.5,1,1,0,0,1-.2-.7h.7a.9.9,0,0,0,.3.6l.7.2.6-.2C339.4,58.2,339.5,58.1,339.5,57.9Zm4.3,1.1c-.1-.1-.1-.2-.1-.4a2.1,2.1,0,0,1-1.2.5,1.4,1.4,0,0,1-1.1-.4,1.3,1.3,0,0,1-.4-.9,1.2,1.2,0,0,1,.5-1,3,3,0,0,1,1.5-.4h.7v-.3a.9.9,0,0,0-.3-.6,1.2,1.2,0,0,0-1.3,0,.4.4,0,0,0-.2.4h-.8a1.4,1.4,0,0,1,.2-.6l.7-.4.8-.2a1.2,1.2,0,0,1,1.1.4,1.1,1.1,0,0,1,.5,1V58a2.2,2.2,0,0,0,.1.9h-.7Zm-1.2-.6h.6a1.2,1.2,0,0,0,.5-.5v-.9h-.6c-.9,0-1.3.3-1.3.8s0,.4.2.6Zm2.7-1.5a2.5,2.5,0,0,1,.5-1.6,1.4,1.4,0,0,1,1.2-.6,1.7,1.7,0,0,1,1.2.5v-.4h.6v4.1a1.9,1.9,0,0,1-.5,1.3,1.7,1.7,0,0,1-1.3.5l-.9-.2c-.3-.2-.5-.3-.6-.6l.3-.4a1.4,1.4,0,0,0,1.2.6,1.1,1.1,0,0,0,.8-.3,1.2,1.2,0,0,0,.3-.9v-.3a1.7,1.7,0,0,1-1.2.5,1.4,1.4,0,0,1-1.2-.6A2.8,2.8,0,0,1,345.3,56.9Zm.8,0a2.1,2.1,0,0,0,.3,1.2,1,1,0,0,0,1.8-.3V55.9a1.1,1.1,0,0,0-1-.6.8.8,0,0,0-.8.4A2.1,2.1,0,0,0,346.1,56.9Zm5.7,2.2a1.7,1.7,0,0,1-1.4-.6,2,2,0,0,1-.6-1.5h0a2,2,0,0,1,.3-1.1,1.2,1.2,0,0,1,.6-.8,1.7,1.7,0,0,1,1-.3,1.7,1.7,0,0,1,1.2.5,2.1,2.1,0,0,1,.5,1.6v.3h-2.9a3,3,0,0,0,.4,1,1,1,0,0,0,.9.4.8.8,0,0,0,.6-.2,1,1,0,0,0,.5-.4l.5.4A1.9,1.9,0,0,1,351.8,59.1Zm-.1-3.8a1.1,1.1,0,0,0-.8.3,1.2,1.2,0,0,0-.3.9h2.1a1.1,1.1,0,0,0-.3-.8A.9.9,0,0,0,351.7,55.3Zm-72.1,8.5v.4a1.7,1.7,0,0,1,1.2-.5,1.1,1.1,0,0,1,1.2.7l.6-.5.8-.2c.9,0,1.4.5,1.4,1.5V68h-.7V65.2a1.4,1.4,0,0,0-.2-.7l-.7-.2a.9.9,0,0,0-.7.3.6.6,0,0,0-.3.6V68h-.7V65.2a.8.8,0,0,0-.9-.9,1,1,0,0,0-1,.6V68h-.7V63.8Zm6.1,2a2.3,2.3,0,0,1,.3-1.1,1.1,1.1,0,0,1,.6-.7,1.9,1.9,0,0,1,1-.3,1.7,1.7,0,0,1,1.4.6,2.1,2.1,0,0,1,.6,1.6h0a2,2,0,0,1-.3,1.1,1.4,1.4,0,0,1-.7.8,1.5,1.5,0,0,1-1,.3,2,2,0,0,1-1.4-.6,2.5,2.5,0,0,1-.5-1.6Zm.7.1a1.6,1.6,0,0,0,.4,1.2,1.2,1.2,0,0,0,.8.4,1.3,1.3,0,0,0,.9-.4,2.3,2.3,0,0,0,.3-1.3,2,2,0,0,0-.3-1.1,1,1,0,0,0-.9-.4.9.9,0,0,0-.8.4A1.6,1.6,0,0,0,286.4,65.9Zm5.4,1,1-3.1h.7l-1.7,4.9a1.2,1.2,0,0,1-1.2,1h-.4v-.5h.2l.5-.2a1,1,0,0,0,.4-.5V68l-1.5-4.2h.8Zm4.1,1.2a1.8,1.8,0,0,1-1.4-.6A2,2,0,0,1,294,66h0a2,2,0,0,1,.2-1.1,1.9,1.9,0,0,1,.7-.8,1.6,1.6,0,0,1,.9-.3,1.7,1.7,0,0,1,1.3.5,2.5,2.5,0,0,1,.4,1.6v.3h-2.8a1.7,1.7,0,0,0,.3,1,1.2,1.2,0,0,0,.9.4l.7-.2a.8.8,0,0,0,.4-.4l.5.4A1.9,1.9,0,0,1,295.9,68.1Zm-.1-3.8a.9.9,0,0,0-.7.3,1.3,1.3,0,0,0-.4.9h2.1a1.1,1.1,0,0,0-.3-.8A.9.9,0,0,0,295.8,64.3Zm3.3-.5v.5a1.5,1.5,0,0,1,1.3-.6c.8,0,1.3.5,1.3,1.5V68H301V65.2a1.4,1.4,0,0,0-.2-.7l-.7-.2-.6.2a1,1,0,0,0-.4.5v3h-.7V63.8Zm9.2,2.1a2.5,2.5,0,0,1-.4,1.6,1.4,1.4,0,0,1-1.2.6,1.7,1.7,0,0,1-1.2-.5v2h-.7V63.8h.6v.4a1.7,1.7,0,0,1,1.2-.5,1.4,1.4,0,0,1,1.2.6,2.5,2.5,0,0,1,.4,1.6Zm-.7,0a2.1,2.1,0,0,0-.3-1.2.9.9,0,0,0-.8-.4,1,1,0,0,0-1,.6v2a1,1,0,0,0,1,.6.9.9,0,0,0,.8-.4A2.1,2.1,0,0,0,307.6,65.9Zm1.5-.1a4.3,4.3,0,0,1,.2-1.1,1.6,1.6,0,0,1,.7-.7,1.7,1.7,0,0,1,1-.3,1.8,1.8,0,0,1,1.4.6,2.5,2.5,0,0,1,.5,1.6h0a3.6,3.6,0,0,1-.2,1.1,1.9,1.9,0,0,1-.7.8,1.7,1.7,0,0,1-1,.3,1.8,1.8,0,0,1-1.4-.6,2.5,2.5,0,0,1-.5-1.6Zm.7.1a2.1,2.1,0,0,0,.3,1.2,1.2,1.2,0,0,0,1.8,0,2.3,2.3,0,0,0,.3-1.3,2,2,0,0,0-.3-1.1,1,1,0,0,0-.9-.4,1.1,1.1,0,0,0-.9.4A2.1,2.1,0,0,0,309.8,65.9Zm6.6,1.7a1.5,1.5,0,0,1-1.2.5,1.5,1.5,0,0,1-1-.4,1.6,1.6,0,0,1-.4-1.2V63.8h.7v2.7c0,.6.3,1,.8,1a1,1,0,0,0,1.1-.7v-3h.7V68h-.6Zm3.9-3.2h-.4a.9.9,0,0,0-.9.6v3h-.8V63.8h.7v.5a1,1,0,0,1,1-.6h.3Zm3.3-.6v.4a2.1,2.1,0,0,1,1.3-.5,1.1,1.1,0,0,1,1.2.7,1.2,1.2,0,0,1,.5-.5l.8-.2c1,0,1.4.5,1.5,1.5V68h-.8V65.2a.8.8,0,0,0-.2-.7,1,1,0,0,0-.7-.2.7.7,0,0,0-.6.3.6.6,0,0,0-.3.6V68h-.8V65.2a.8.8,0,0,0-.9-.9.9.9,0,0,0-.9.6V68h-.8V63.8Zm9,4.2c-.1-.1-.1-.2-.1-.4a2.1,2.1,0,0,1-1.2.5,1.4,1.4,0,0,1-1.1-.4,1.3,1.3,0,0,1-.4-.9,1.2,1.2,0,0,1,.5-1,3,3,0,0,1,1.5-.4h.7v-.3a.9.9,0,0,0-.3-.6l-.6-.2a.8.8,0,0,0-.7.2.5.5,0,0,0-.3.4h-.7a1.4,1.4,0,0,1,.2-.6l.7-.4.8-.2a1.2,1.2,0,0,1,1.1.4,1.1,1.1,0,0,1,.5,1V67a2.2,2.2,0,0,0,.1.9h-.7Zm-1.2-.6h.6l.5-.5v-.9h-.6c-.9,0-1.3.3-1.3.8s0,.4.2.6Zm3.7.6h-.7V63.8h.7Zm-.8-5.3c0-.2,0-.3.1-.3l.3-.2.4.2a.4.4,0,0,1,.1.3v.2l-.4.2-.3-.2C334.3,62.9,334.3,62.8,334.3,62.7Zm7.6,5.3h-3.7v-.5l1.9-2.2.6-.8a1.4,1.4,0,0,0,.2-.7.9.9,0,0,0-.3-.7.8.8,0,0,0-.7-.3,1.1,1.1,0,0,0-.8.3,1.2,1.2,0,0,0-.3.9h-.7a1.5,1.5,0,0,1,.5-1.3,1.7,1.7,0,0,1,1.3-.5,1.9,1.9,0,0,1,1.3.5,1.2,1.2,0,0,1,.4,1.1,3.4,3.4,0,0,1-1,2L339,67.4h2.9Zm4.3-2.4a3.6,3.6,0,0,1-.4,1.9,1.7,1.7,0,0,1-1.4.6,1.5,1.5,0,0,1-1.3-.6,3,3,0,0,1-.5-1.8v-1a3.6,3.6,0,0,1,.5-1.9,1.5,1.5,0,0,1,1.3-.6,1.7,1.7,0,0,1,1.4.6,3,3,0,0,1,.4,1.8Zm-.7-1a2.1,2.1,0,0,0-.3-1.3.8.8,0,0,0-.8-.5,1.2,1.2,0,0,0-.8.4,2.5,2.5,0,0,0-.2,1.3v1.2a2.8,2.8,0,0,0,.2,1.4,1.2,1.2,0,0,0,.8.4c.4,0,.7-.1.8-.4a2.3,2.3,0,0,0,.3-1.3Zm5.4,3.4h-3.8v-.5l2-2.2.6-.8a1.4,1.4,0,0,0,.2-.7,1,1,0,0,0-1-1,1,1,0,0,0-.8.3,1.2,1.2,0,0,0-.3.9H347a1.9,1.9,0,0,1,.5-1.3,2.2,2.2,0,0,1,1.4-.5,2.1,2.1,0,0,1,1.3.5,1.2,1.2,0,0,1,.4,1.1,3.1,3.1,0,0,1-1.1,2L348,67.4h2.9Zm4.3-2.4a3.6,3.6,0,0,1-.4,1.9,1.7,1.7,0,0,1-1.4.6,1.5,1.5,0,0,1-1.3-.6,3,3,0,0,1-.5-1.8v-1a3.6,3.6,0,0,1,.5-1.9,1.4,1.4,0,0,1,1.3-.6,1.7,1.7,0,0,1,1.4.6,3,3,0,0,1,.4,1.8Zm-.7-1a2.1,2.1,0,0,0-.3-1.3.8.8,0,0,0-.8-.5,1,1,0,0,0-.8.4,2.5,2.5,0,0,0-.3,1.3v1.2a2.6,2.6,0,0,0,.3,1.4,1.2,1.2,0,0,0,.8.4.8.8,0,0,0,.8-.4,2.3,2.3,0,0,0,.3-1.3Z" transform="translate(-44)"/><circle class="cls-46" cx="270" cy="102" r="22.5"/><path class="cls-2" d="M335,119l-6-7a15.4,15.4,0,0,0,2.5-6l9,1.5A22.5,22.5,0,0,1,335,119Z" transform="translate(-44)"/><path d="M284.1,146.7h-1.4V149H282v-5.7h1.8a2.1,2.1,0,0,1,1.5.5,1.2,1.2,0,0,1,.5,1.2,2,2,0,0,1-.2.9,1.6,1.6,0,0,1-.8.6l1.3,2.5h-.8Zm-1.4-.6h1.2l.9-.3a1.2,1.2,0,0,0,0-1.6,1.2,1.2,0,0,0-.9-.3h-1.2Zm5.8,3a2,2,0,0,1-1.4-.6,2.5,2.5,0,0,1-.5-1.5h0a3.6,3.6,0,0,1,.2-1.1,1.9,1.9,0,0,1,.7-.8l.9-.3a1.7,1.7,0,0,1,1.3.5,2.5,2.5,0,0,1,.5,1.6v.3h-2.9a1.8,1.8,0,0,0,.4,1,1,1,0,0,0,.9.4l.6-.2a1,1,0,0,0,.5-.4l.4.4A1.8,1.8,0,0,1,288.5,149.1Zm-.1-3.8a1.1,1.1,0,0,0-.7.3,1.9,1.9,0,0,0-.4.9h2.2l-.3-.8A1,1,0,0,0,288.4,145.3Zm.4-2.3h.9l-1.1,1.1H288Zm4.7,4.9a.8.8,0,0,0-.2-.5l-.8-.3-.9-.2-.5-.4a1.3,1.3,0,0,1-.1-.6.9.9,0,0,1,.4-.8,1.6,1.6,0,0,1,1.2-.4,1.5,1.5,0,0,1,1.1.4,1.1,1.1,0,0,1,.5.9h-.8c0-.2,0-.4-.2-.5l-.6-.2a.8.8,0,0,0-.7.2.5.5,0,0,0,0,.8l.8.3.9.2.4.5c.2.1.2.3.2.5a1,1,0,0,1-.4.9,1.6,1.6,0,0,1-1.2.4l-.9-.2a1,1,0,0,1-.6-.5,1,1,0,0,1-.2-.7h.7a.9.9,0,0,0,.3.6l.7.2.6-.2C293.4,148.2,293.5,148.1,293.5,147.9Zm3.4,1.2a1.8,1.8,0,0,1-1.4-.6,2,2,0,0,1-.5-1.5h0a2,2,0,0,1,.2-1.1,1.9,1.9,0,0,1,.7-.8l.9-.3a1.7,1.7,0,0,1,1.3.5,2.5,2.5,0,0,1,.5,1.6v.3h-2.9a1.3,1.3,0,0,0,.4,1,.9.9,0,0,0,.8.4l.7-.2.5-.4.4.4A1.9,1.9,0,0,1,296.9,149.1Zm-.1-3.8a.9.9,0,0,0-.7.3,1.9,1.9,0,0,0-.4.9h2.1a1.1,1.1,0,0,0-.3-.8A.8.8,0,0,0,296.8,145.3Zm4.6.1h-.3a1,1,0,0,0-1,.6v3h-.7v-4.2h.7v.5a1.1,1.1,0,0,1,1-.6c.2,0,.3,0,.3.1Zm2.2,2.6,1-3.2h.8l-1.6,4.2h-.5l-1.5-4.2h.7Zm4.2,1.1a1.7,1.7,0,0,1-1.4-.6,2,2,0,0,1-.6-1.5h0a2,2,0,0,1,.3-1.1,1.2,1.2,0,0,1,.6-.8,1.7,1.7,0,0,1,1-.3,1.7,1.7,0,0,1,1.2.5,2.5,2.5,0,0,1,.5,1.6v.3h-2.9a1.8,1.8,0,0,0,.4,1,1,1,0,0,0,.9.4l.6-.2a1,1,0,0,0,.5-.4l.4.4A1.6,1.6,0,0,1,307.8,149.1Zm-.1-3.8a1.1,1.1,0,0,0-.8.3,1.2,1.2,0,0,0-.3.9h2.1a1.1,1.1,0,0,0-.3-.8A.9.9,0,0,0,307.7,145.3Zm.3-2.3h.9l-1.1,1.1h-.5Z" transform="translate(-44)"/><circle class="cls-47" cx="232" cy="146" r="3"/><path d="M334,149v-5.7h1.6a2.8,2.8,0,0,1,1.3.3,4.3,4.3,0,0,1,.9,1,2.9,2.9,0,0,1,.3,1.4v.3a2.9,2.9,0,0,1-.3,1.4c-.3.4-.5.8-.9,1a3.2,3.2,0,0,1-1.4.3Zm.7-5.1v4.5h.8a1.5,1.5,0,0,0,1.3-.6,1.7,1.7,0,0,0,.5-1.5V146a2.1,2.1,0,0,0-.4-1.5,1.6,1.6,0,0,0-1.3-.6Zm5.2,5.1h-.7v-4.2h.7Zm-.8-5.3c0-.2,0-.3.1-.3l.3-.2c.2,0,.3.1.3.2s.1.1.1.3,0,.2-.1.2-.1.2-.3.2l-.3-.2C339.1,143.9,339.1,143.8,339.1,143.7Zm4.4,4.2a.8.8,0,0,0-.2-.5l-.8-.3-.9-.2c-.2-.1-.3-.3-.4-.4a1.4,1.4,0,0,1-.2-.6.9.9,0,0,1,.4-.8,1.6,1.6,0,0,1,1.2-.4,1.5,1.5,0,0,1,1.1.4,1.1,1.1,0,0,1,.5.9h-.7a.5.5,0,0,0-.3-.5l-.6-.2a.8.8,0,0,0-.7.2.5.5,0,0,0,0,.8l.8.3.9.2.5.5a.7.7,0,0,1,.1.5,1,1,0,0,1-.4.9,1.6,1.6,0,0,1-1.2.4l-.9-.2a1,1,0,0,1-.6-.5,1,1,0,0,1-.2-.7h.7a.9.9,0,0,0,.3.6l.7.2.6-.2C343.4,148.2,343.5,148.1,343.5,147.9Zm5.2-1a2.5,2.5,0,0,1-.4,1.6,1.4,1.4,0,0,1-1.2.6,1.7,1.7,0,0,1-1.2-.5v2h-.7v-5.8h.6v.4a1.5,1.5,0,0,1,1.2-.5,1.4,1.4,0,0,1,1.2.6,2.5,2.5,0,0,1,.4,1.6Zm-.7,0a2.1,2.1,0,0,0-.3-1.2.9.9,0,0,0-.8-.4,1,1,0,0,0-1,.6v2a1,1,0,0,0,1,.6.9.9,0,0,0,.8-.4A2.1,2.1,0,0,0,348,146.9Zm1.5-.1a2.2,2.2,0,0,1,.2-1.1,1.6,1.6,0,0,1,.7-.7,1.7,1.7,0,0,1,1-.3,1.8,1.8,0,0,1,1.4.6,2.5,2.5,0,0,1,.5,1.6h0a3.6,3.6,0,0,1-.2,1.1,1.9,1.9,0,0,1-.7.8,1.9,1.9,0,0,1-2.4-.3,2.1,2.1,0,0,1-.5-1.6Zm.7.1a2.1,2.1,0,0,0,.3,1.2,1.3,1.3,0,0,0,.9.4,1.5,1.5,0,0,0,.9-.4,2.3,2.3,0,0,0,.3-1.3,2,2,0,0,0-.3-1.1,1.2,1.2,0,0,0-.9-.4,1,1,0,0,0-.9.4A2.1,2.1,0,0,0,350.2,146.9Zm4.7-2.1v.5a1.6,1.6,0,0,1,1.3-.6c.9,0,1.3.5,1.3,1.5V149h-.7v-2.8a1.4,1.4,0,0,0-.2-.7l-.6-.2-.6.2-.5.5v3h-.7v-4.2Zm4.5,4.2h-.7v-4.2h.7Zm-.8-5.3a.4.4,0,0,1,.1-.3.5.5,0,0,1,.4-.2l.3.2c.1,0,.1.1.1.3s0,.2-.1.2l-.3.2-.4-.2A.3.3,0,0,1,358.6,143.7Zm5.6,3.2a2.5,2.5,0,0,1-.5,1.6,1.5,1.5,0,0,1-2.4,0v.5h-.6v-6h.7v2.2a1.7,1.7,0,0,1,1.2-.5,1.4,1.4,0,0,1,1.2.6,2.5,2.5,0,0,1,.5,1.6Zm-.8,0a2.1,2.1,0,0,0-.3-1.2c-.1-.3-.4-.4-.8-.4a1,1,0,0,0-1,.7v1.8a1.2,1.2,0,0,0,1,.7,1,1,0,0,0,.8-.4A2.1,2.1,0,0,0,363.4,146.9Zm2.5,2.1h-.8v-6h.8Zm2.9.1a1.7,1.7,0,0,1-1.4-.6,2,2,0,0,1-.6-1.5h0a2,2,0,0,1,.3-1.1,1.6,1.6,0,0,1,1.6-1.1,1.9,1.9,0,0,1,1.3.5,2.5,2.5,0,0,1,.4,1.6v.3h-2.8a1.7,1.7,0,0,0,.3,1,1,1,0,0,0,.9.4l.7-.2c.1-.1.3-.2.4-.4l.5.4A1.9,1.9,0,0,1,368.8,149.1Zm-.1-3.8a1.1,1.1,0,0,0-.8.3,1.2,1.2,0,0,0-.3.9h2.1a1.1,1.1,0,0,0-.3-.8A.9.9,0,0,0,368.7,145.3Z" transform="translate(-44)"/><circle class="cls-2" cx="281" cy="146" r="3"/><line class="cls-48" x1="381.5" y1="47" x2="381.5" y2="132"/><line class="cls-48" x1="379" y1="131.5" x2="569" y2="131.5"/><line class="cls-48" x1="377" y1="116.5" x2="569" y2="116.5"/><line class="cls-48" x1="377" y1="94.5" x2="569" y2="94.5"/><line class="cls-48" x1="377" y1="72.5" x2="569" y2="72.5"/><line class="cls-48" x1="377" y1="106.5" x2="569" y2="106.5"/><line class="cls-48" x1="377" y1="84.5" x2="569" y2="84.5"/><line class="cls-48" x1="377" y1="62.5" x2="569" y2="62.5"/><line class="cls-48" x1="377" y1="51.5" x2="569" y2="51.5"/><rect class="cls-45" x="445" y="139" width="50" height="8" rx="1.4"/><rect class="cls-45" x="508" y="139" width="50" height="8" rx="1.4"/><path d="M432.3,146h-3.7v-.5l2-2.2.6-.8a1.5,1.5,0,0,0,.1-.7.8.8,0,0,0-.2-.7.9.9,0,0,0-.7-.3,1.1,1.1,0,0,0-1.2,1.2h-.7a1.9,1.9,0,0,1,.5-1.3,2,2,0,0,1,1.4-.5,1.7,1.7,0,0,1,1.2.5,1.3,1.3,0,0,1,.5,1.1,3.7,3.7,0,0,1-1.1,2l-1.5,1.6h2.8Zm3.5-4.2v.4a1.7,1.7,0,0,1,1.2-.5,1.1,1.1,0,0,1,1.2.7c.2-.2.3-.4.6-.5l.8-.2c.9,0,1.4.5,1.4,1.5V146h-.7v-2.8a.9.9,0,0,0-.3-.7,1,1,0,0,0-.7-.2l-.6.3a.6.6,0,0,0-.3.6V146h-.8v-2.8a.8.8,0,0,0-.9-.9.9.9,0,0,0-.9.6V146h-.8v-4.2Zm9,4.2c-.1-.1-.1-.2-.1-.4a2.1,2.1,0,0,1-1.2.5,1.5,1.5,0,0,1-1.1-.4,1.3,1.3,0,0,1-.4-.9,1.2,1.2,0,0,1,.5-1,3.3,3.3,0,0,1,1.5-.4h.7v-.3a.9.9,0,0,0-.3-.6l-.6-.2a.8.8,0,0,0-.7.2.4.4,0,0,0-.2.4h-.8a.9.9,0,0,1,.3-.6.9.9,0,0,1,.6-.4l.8-.2a1.6,1.6,0,0,1,1.2.4,1.3,1.3,0,0,1,.4,1V145a2.2,2.2,0,0,0,.1.9h-.7Zm-1.2-.6h.6a1.2,1.2,0,0,0,.5-.5v-.9h-.6c-.9,0-1.3.3-1.3.8s0,.4.2.6Zm3.7.6h-.7v-4.2h.7Zm-.8-5.3a.4.4,0,0,1,.1-.3l.3-.2a.5.5,0,0,1,.4.2.4.4,0,0,1,.1.3.3.3,0,0,1-.1.2l-.4.2-.3-.2A.3.3,0,0,1,446.5,140.7Zm7.6,5.3h-3.7v-.5l1.9-2.2a3.3,3.3,0,0,0,.6-.8.8.8,0,0,0,.2-.7.9.9,0,0,0-.3-.7.8.8,0,0,0-.7-.3,1.1,1.1,0,0,0-.8.3,1.2,1.2,0,0,0-.3.9h-.7a1.5,1.5,0,0,1,.5-1.3,1.9,1.9,0,0,1,1.3-.5,1.7,1.7,0,0,1,1.3.5,1.2,1.2,0,0,1,.4,1.1,3.4,3.4,0,0,1-1,2l-1.6,1.6h2.9Zm4.3-2.4a3.6,3.6,0,0,1-.4,1.9,1.6,1.6,0,0,1-1.4.6,1.5,1.5,0,0,1-1.3-.6,3.9,3.9,0,0,1-.5-1.8v-1a3.6,3.6,0,0,1,.5-1.9,1.5,1.5,0,0,1,1.3-.6,1.7,1.7,0,0,1,1.4.6,3,3,0,0,1,.4,1.8Zm-.7-1a3.5,3.5,0,0,0-.2-1.3,1.1,1.1,0,0,0-.9-.5,1.2,1.2,0,0,0-.8.4,4.4,4.4,0,0,0-.2,1.3v1.2a4.6,4.6,0,0,0,.2,1.4,1.2,1.2,0,0,0,.8.4c.4,0,.7-.1.8-.4a2.3,2.3,0,0,0,.3-1.3Zm5.4,3.4h-3.7v-.5l1.9-2.2a3.3,3.3,0,0,0,.6-.8,1.4,1.4,0,0,0,.2-.7,1,1,0,0,0-1-1,1.1,1.1,0,0,0-.8.3,1.2,1.2,0,0,0-.3.9h-.7a1.5,1.5,0,0,1,.5-1.3,1.7,1.7,0,0,1,1.3-.5,1.9,1.9,0,0,1,1.3.5,1.2,1.2,0,0,1,.4,1.1,3.4,3.4,0,0,1-1,2l-1.6,1.6h2.9Zm4.3-2.4a3.6,3.6,0,0,1-.4,1.9,1.7,1.7,0,0,1-1.4.6,1.5,1.5,0,0,1-1.3-.6,3,3,0,0,1-.5-1.8v-1a3.6,3.6,0,0,1,.5-1.9,1.5,1.5,0,0,1,1.3-.6,1.7,1.7,0,0,1,1.4.6,3,3,0,0,1,.4,1.8Zm-.7-1a2.1,2.1,0,0,0-.3-1.3.8.8,0,0,0-.8-.5,1.2,1.2,0,0,0-.8.4,2.5,2.5,0,0,0-.2,1.3v1.2a2.8,2.8,0,0,0,.2,1.4,1.2,1.2,0,0,0,.8.4c.4,0,.7-.1.8-.4a2.3,2.3,0,0,0,.3-1.3Z" transform="translate(-44)"/><path class="cls-49" d="M450,131.5c0-8,3.2-24,16-24s18-14.7,19-22c1.6-11.5-.5-20.5,22-19,18.5,1.2,24.5,35,32.5,41s23.8,8.4,23-22,14.7-35.3,22.5-34" transform="translate(-44)"/><circle class="cls-47" cx="428" cy="106" r="2"/><circle class="cls-47" cx="455" cy="66" r="2"/><circle class="cls-47" cx="504" cy="111" r="2"/><circle class="cls-47" cx="543" cy="52" r="2"/><circle class="cls-47" cx="519" cy="95" r="2"/><circle class="cls-47" cx="488" cy="95" r="2"/><circle class="cls-47" cx="439" cy="95" r="2"/><circle class="cls-47" cx="406" cy="131" r="2"/></svg>