<svg id="Layer_1" data-name="Layer 1" xmlns="http://www.w3.org/2000/svg" xmlns:xlink="http://www.w3.org/1999/xlink" viewBox="0 0 491 89.4"><defs><style>.cls-1{fill:none;stroke:url(#linear-gradient);}.cls-2,.cls-3{fill:#fff;}.cls-3{fill-rule:evenodd;}</style><linearGradient id="linear-gradient" x1="-212.89" y1="800.4" x2="603.17" y2="790.06" gradientTransform="translate(0 -749.9)" gradientUnits="userSpaceOnUse"><stop offset="0.32" stop-color="#e43425"/><stop offset="0.72" stop-color="#886aff"/><stop offset="1" stop-color="#5873ff"/></linearGradient></defs><rect class="cls-1" x="0.5" y="0.5" width="490" height="88.4" rx="4.5"/><path class="cls-2" d="M38.8,65.7V45.8h7a8.4,8.4,0,0,1,5.5,1.4,4.7,4.7,0,0,1,1.8,4,3.8,3.8,0,0,1-.7,2.6,3.7,3.7,0,0,1-2.1,1.6A4.5,4.5,0,0,1,52.7,57a4.7,4.7,0,0,1,.9,2.8,5.3,5.3,0,0,1-1.9,4.4,8,8,0,0,1-5.2,1.5ZM42.9,57v5.4h3.5a3.4,3.4,0,0,0,2.2-.7,2.5,2.5,0,0,0,.9-1.9c0-1.9-1-2.8-2.9-2.8Zm0-2.9h3c2.1,0,3.1-.9,3.1-2.5a2.1,2.1,0,0,0-.8-1.9,3.6,3.6,0,0,0-2.5-.6H42.9ZM64,58.4H60.8v7.3H56.7V45.8h7.4a8.7,8.7,0,0,1,5.4,1.5,5.6,5.6,0,0,1,1.9,4.5,5.7,5.7,0,0,1-3.5,5.6l4.3,8.1v.2H67.8Zm-3.3-3.3H64a3.3,3.3,0,0,0,2.4-.8,3.1,3.1,0,0,0,.9-2.2,3.5,3.5,0,0,0-.8-2.2,3.3,3.3,0,0,0-2.5-.8H60.7Zm30.2,1.1a12.5,12.5,0,0,1-1,5.1,8.5,8.5,0,0,1-3,3.5A8.3,8.3,0,0,1,75,61.4a13,13,0,0,1-1.1-5.1v-1a13,13,0,0,1,1-5.2,8.3,8.3,0,0,1,3-3.4,8.9,8.9,0,0,1,4.5-1.2,8.8,8.8,0,0,1,4.4,1.2,8.3,8.3,0,0,1,3,3.4,11.5,11.5,0,0,1,1,5.2Zm-4.2-.9a8.9,8.9,0,0,0-1.1-4.8,4.1,4.1,0,0,0-5.6-.8l-.8.8a8.8,8.8,0,0,0-1.1,4.7v1A8.9,8.9,0,0,0,79.2,61a4,4,0,0,0,5.5.9,3.8,3.8,0,0,0,.9-.9,8.6,8.6,0,0,0,1.1-4.7Zm18.1,6.3H97.6l-1.3,4.1H91.9l7.4-19.9h3.8l7.5,19.9h-4.4Zm-6.1-3.3h5l-2.5-7.5Zm13.7,7.4V45.8h6.1a9.4,9.4,0,0,1,4.7,1.2,9,9,0,0,1,3.3,3.4,9.4,9.4,0,0,1,1.1,5v.9a9.3,9.3,0,0,1-1.1,4.9,8.7,8.7,0,0,1-3.2,3.4,10,10,0,0,1-4.7,1.2Zm4.1-16.6V62.4h2a4.4,4.4,0,0,0,3.7-1.6,7.2,7.2,0,0,0,1.3-4.5v-1a7.7,7.7,0,0,0-1.3-4.6,4.7,4.7,0,0,0-3.7-1.6ZM141,60.5a2.3,2.3,0,0,0-.8-1.8,11.4,11.4,0,0,0-3-1.3,20.2,20.2,0,0,1-3.4-1.4c-2.3-1.2-3.4-2.9-3.4-4.9a4.8,4.8,0,0,1,.9-2.9,6.3,6.3,0,0,1,2.6-2,10,10,0,0,1,3.9-.7,8.4,8.4,0,0,1,3.8.8,5.7,5.7,0,0,1,2.5,2.1,5.5,5.5,0,0,1,1,3.2H141a2.9,2.9,0,0,0-.9-2.1,3.8,3.8,0,0,0-2.4-.8,3.9,3.9,0,0,0-2.3.7,1.7,1.7,0,0,0-.8,1.7,1.9,1.9,0,0,0,1,1.6,11.8,11.8,0,0,0,2.8,1.2,13,13,0,0,1,5.1,2.6,5.5,5.5,0,0,1-.3,8,8.7,8.7,0,0,1-5.4,1.5,11.5,11.5,0,0,1-4.1-.8,6.6,6.6,0,0,1-2.9-2.3,5.9,5.9,0,0,1-1-3.4h4.1q0,3.3,3.9,3.3a4.6,4.6,0,0,0,2.3-.6A2.1,2.1,0,0,0,141,60.5Zm11.3,5.2h-4.1V45.8h4.1Zm19.5-2.5a7.2,7.2,0,0,1-3.1,2,13.8,13.8,0,0,1-4.5.8,8.9,8.9,0,0,1-4.5-1.2,7.1,7.1,0,0,1-3-3.2,11.2,11.2,0,0,1-1.1-5.1V55.2a11.5,11.5,0,0,1,1-5.2,7.2,7.2,0,0,1,2.9-3.3,9.4,9.4,0,0,1,10,.5,7.1,7.1,0,0,1,2.3,4.9h-4a4.2,4.2,0,0,0-1.2-2.5,3.8,3.8,0,0,0-2.6-.8,3.6,3.6,0,0,0-3.1,1.6,7.6,7.6,0,0,0-1.1,4.7v1.2a8,8,0,0,0,1.1,4.8,5.2,5.2,0,0,0,6.8.6V58.2H164v-3h7.8Zm19.5,2.5h-4.1l-8-13.1V65.7h-4.1V45.8h4.1l8,13.1V45.8h4.1Zm18-7.3H206v7.3h-4.1V45.8h7.4a8.5,8.5,0,0,1,5.4,1.5,5.5,5.5,0,0,1,1.9,4.5,5.7,5.7,0,0,1-.8,3.4,6.4,6.4,0,0,1-2.7,2.2l4.3,8.1v.2H213ZM206,55.1h3.3a3.5,3.5,0,0,0,2.4-.8,3.1,3.1,0,0,0,0-4.4,3,3,0,0,0-2.4-.8H206Zm25.8,2h-7.9v5.3h9.2v3.3H219.7V45.8h13.4v3.3h-9.3v4.7h7.9Zm15,4.5h-7.2l-1.4,4.1h-4.4l7.4-19.9H245l7.4,19.9h-4.3Zm-6.1-3.3h5l-2.5-7.5Zm29,.8a7.2,7.2,0,0,1-2.4,5,8.4,8.4,0,0,1-5.7,1.9,7.4,7.4,0,0,1-6-2.6,10.5,10.5,0,0,1-2.1-7.1V55.1a11.3,11.3,0,0,1,1-5.1,8.1,8.1,0,0,1,2.8-3.3,9.3,9.3,0,0,1,10,.6,8.1,8.1,0,0,1,2.4,5.2h-4.1a4.3,4.3,0,0,0-1.1-2.8,4,4,0,0,0-2.8-.8,3.7,3.7,0,0,0-3.1,1.4,9.1,9.1,0,0,0-1,4.6v1.5a9.5,9.5,0,0,0,1,4.7,3.5,3.5,0,0,0,3.1,1.5,3.9,3.9,0,0,0,2.9-.9,3.5,3.5,0,0,0,1-2.6Zm18.9,6.6h-4.1V57.2h-8v8.5h-4.1V45.8h4.1v8h8v-8h4.1Z" transform="translate(0 0)"/><path class="cls-3" d="M452,44l5.9,4.6L452,53.3V49.7h-17V47.7h17Z" transform="translate(0 0)"/><path class="cls-2" d="M42.4,30.9l3.3-9.4h1.6L43.1,32.9H41.8L37.5,21.5h1.7Z" transform="translate(0 0)"/><path class="cls-2" d="M55.3,27.6h-5v4h5.8v1.2H48.8V21.5H56v1.2H50.3v3.7h5Z" transform="translate(0 0)"/><path class="cls-2" d="M66.7,32.9H65.2l-5.8-8.8v8.8H57.9V21.5h1.5l5.8,8.8V21.5h1.5Z" transform="translate(0 0)"/><path class="cls-2" d="M77,22.7H73.3V32.9H71.8V22.7H68.2V21.5H77Z" transform="translate(0 0)"/><path class="cls-2" d="M85.1,27.6H80.2v4h5.7v1.2H78.7V21.5h7.1v1.2H80.2v3.7h4.9Z" transform="translate(0 0)"/><path class="cls-2" d="M91.1,27.8a6.2,6.2,0,0,1-2.8-1.4,2.5,2.5,0,0,1-.9-2,2.8,2.8,0,0,1,1.1-2.2,4.7,4.7,0,0,1,2.8-.9,5.4,5.4,0,0,1,2.1.5A3.3,3.3,0,0,1,94.8,23a2.6,2.6,0,0,1,.5,1.7H93.8a1.9,1.9,0,0,0-.6-1.6,3.3,3.3,0,0,0-1.9-.6,3.4,3.4,0,0,0-1.7.5,2,2,0,0,0-.6,1.4,1.4,1.4,0,0,0,.6,1.2,7.2,7.2,0,0,0,2,.9l2.2.8A3.4,3.4,0,0,1,95,28.5a2,2,0,0,1,.3,1.5,2.3,2.3,0,0,1-1,2.2,4.4,4.4,0,0,1-2.9.8,4.1,4.1,0,0,1-2.2-.4,4.8,4.8,0,0,1-1.6-1.2,3.7,3.7,0,0,1-.5-1.8h1.5a2.4,2.4,0,0,0,.7,1.6,3,3,0,0,0,2,.6,2.6,2.6,0,0,0,1.9-.5,1.7,1.7,0,0,0,.2-2.4l-.2-.2A6.7,6.7,0,0,0,91.1,27.8Z" transform="translate(0 0)"/><path class="cls-2" d="M102.7,28.4v4.5h-1.5V21.5h4.2a4.1,4.1,0,0,1,3,1,2.9,2.9,0,0,1,1,2.5,2.9,2.9,0,0,1-1,2.5,4,4,0,0,1-3,.9Zm0-1.2h2.7a3.1,3.1,0,0,0,1.9-.6,1.9,1.9,0,0,0,.6-1.6,2.2,2.2,0,0,0-.6-1.7,2.8,2.8,0,0,0-1.8-.6h-2.8Z" transform="translate(0 0)"/><path class="cls-2" d="M115.5,28.3h-2.7v4.6h-1.5V21.5h3.8a4.1,4.1,0,0,1,3,.9,3,3,0,0,1,1,2.5,3.3,3.3,0,0,1-.6,1.9,3.3,3.3,0,0,1-1.6,1.2l2.7,4.8H118ZM112.8,27h2.3a2.8,2.8,0,0,0,1.8-.6,1.8,1.8,0,0,0,.7-1.5,2.7,2.7,0,0,0-.6-1.7,2.6,2.6,0,0,0-1.9-.5h-2.3Z" transform="translate(0 0)"/><path class="cls-2" d="M130,27.5a7.7,7.7,0,0,1-.6,3,4.8,4.8,0,0,1-1.6,1.9,4.8,4.8,0,0,1-2.4.6,4.1,4.1,0,0,1-4-2.5,7.2,7.2,0,0,1-.6-2.9v-.8a7.2,7.2,0,0,1,.6-2.9A4.2,4.2,0,0,1,123,22a4.6,4.6,0,0,1,4.8,0,4.2,4.2,0,0,1,1.6,1.9,7.2,7.2,0,0,1,.6,2.9Zm-1.5-.7a4.8,4.8,0,0,0-.8-3.1,2.8,2.8,0,0,0-2.3-1.1,2.7,2.7,0,0,0-2.2,1.1,5.3,5.3,0,0,0-.9,3v.8a5.6,5.6,0,0,0,.9,3.1,2.8,2.8,0,0,0,4,.5,1,1,0,0,0,.5-.4,4.6,4.6,0,0,0,.8-3Z" transform="translate(0 0)"/><path class="cls-2" d="M140.6,31.4a3.3,3.3,0,0,1-1.6,1.2,5.1,5.1,0,0,1-2.4.4,5.4,5.4,0,0,1-2.5-.6,5.2,5.2,0,0,1-1.7-1.9,6.7,6.7,0,0,1-.6-2.8v-1a6.5,6.5,0,0,1,1.2-4,4.4,4.4,0,0,1,3.4-1.4,4.8,4.8,0,0,1,2.9.9,4.3,4.3,0,0,1,1.3,2.6h-1.5a2.5,2.5,0,0,0-2.7-2.3,3,3,0,0,0-2.3,1.1,5.5,5.5,0,0,0-.7,3.1v.9a4.6,4.6,0,0,0,.8,3,2.6,2.6,0,0,0,2.4,1.1h1.5l1-.7V28.4h-2.7V27.2h4.2Z" transform="translate(0 0)"/><path class="cls-2" d="M147.3,28.3h-2.7v4.6h-1.5V21.5h3.8a4.1,4.1,0,0,1,3,.9,3,3,0,0,1,1,2.5,3.3,3.3,0,0,1-.6,1.9,3.8,3.8,0,0,1-1.6,1.2l2.7,4.8h-1.6ZM144.6,27h2.3a2.8,2.8,0,0,0,1.8-.6,2.1,2.1,0,0,0,.7-1.5,2.3,2.3,0,0,0-.7-1.7,2.3,2.3,0,0,0-1.8-.5h-2.3Z" transform="translate(0 0)"/><path class="cls-2" d="M159.3,29.9h-4.8l-1.1,3h-1.5l4.3-11.4h1.3l4.4,11.4h-1.5ZM155,28.7h3.9l-2-5.4Z" transform="translate(0 0)"/><path class="cls-2" d="M165.4,21.5l3.7,9.3,3.7-9.3h2V32.9h-1.5V23.7l-3.7,9.2h-1.2l-3.7-9.2v9.2h-1.5V21.5Z" transform="translate(0 0)"/><path class="cls-2" d="M179.4,21.5l3.7,9.3,3.7-9.3h2V32.9h-1.5V23.7l-3.7,9.2h-1.2l-3.7-9.2.2,4.7v4.5h-1.5V21.5Z" transform="translate(0 0)"/><path class="cls-2" d="M197.8,29.9H193l-1.1,3h-1.5l4.3-11.4h1.4l4.3,11.4h-1.5Zm-4.3-1.2h3.9l-2-5.4Z" transform="translate(0 0)"/><path class="cls-2" d="M208.8,22.7h-3.6V32.9h-1.5V22.7H200V21.5h8.8Z" transform="translate(0 0)"/><path class="cls-2" d="M212.1,32.9h-1.5V21.5h1.5Z" transform="translate(0 0)"/><path class="cls-2" d="M223.6,27.5a9.3,9.3,0,0,1-.5,2.9,7,7,0,0,1-1.5,1.9l2,1.5-1,1-2.4-1.9H219a4.5,4.5,0,0,1-4-2.5,7.2,7.2,0,0,1-.6-2.9v-.8a7.2,7.2,0,0,1,.6-2.9,4.5,4.5,0,0,1,5.9-2.2l.5.3a4.2,4.2,0,0,1,1.6,1.9,7.2,7.2,0,0,1,.6,2.9Zm-1.5-.7a5.5,5.5,0,0,0-.8-3.1,3,3,0,0,0-2.3-1.1,2.7,2.7,0,0,0-2.2,1.1,5.3,5.3,0,0,0-.9,3v.8a6.5,6.5,0,0,0,.8,3.1,3,3,0,0,0,4.1.6l.5-.5a6.1,6.1,0,0,0,.8-3Z" transform="translate(0 0)"/><path class="cls-2" d="M233.9,21.5v7.7a3.8,3.8,0,0,1-1,2.7,3.9,3.9,0,0,1-2.7,1.1h-.4a4.1,4.1,0,0,1-3-1,3.6,3.6,0,0,1-1.2-2.8V21.5h1.5v7.7a2.4,2.4,0,0,0,2.1,2.6h.5a2.4,2.4,0,0,0,2.7-2.1V21.5Z" transform="translate(0 0)"/><path class="cls-2" d="M242.7,27.6h-4.9v4h5.7v1.2h-7.2V21.5h7.1v1.2h-5.6v3.7h4.9Z" transform="translate(0 0)"/><path class="cls-2" d="M248.7,27.8a6.2,6.2,0,0,1-2.8-1.4,2.5,2.5,0,0,1-.9-2,2.8,2.8,0,0,1,1.1-2.2,4.7,4.7,0,0,1,2.8-.9,5.4,5.4,0,0,1,2.1.5,3.3,3.3,0,0,1,1.4,1.2,3.4,3.4,0,0,1,.5,1.7h-1.5a2.3,2.3,0,0,0-.6-1.6,3.3,3.3,0,0,0-1.9-.6,3.4,3.4,0,0,0-1.7.5,1.4,1.4,0,0,0-.6,1.4,1.2,1.2,0,0,0,.5,1.1,4,4,0,0,0,2,.9,9.2,9.2,0,0,1,2.3.9l1.2,1.1A4.2,4.2,0,0,1,253,30a2.7,2.7,0,0,1-1.1,2.2,4.3,4.3,0,0,1-2.9.8,4.2,4.2,0,0,1-2.2-.5,3.1,3.1,0,0,1-1.6-1.2,3.5,3.5,0,0,1-.5-1.8h1.5a2.1,2.1,0,0,0,.8,1.7,3.2,3.2,0,0,0,2,.6,4.1,4.1,0,0,0,1.8-.5,1.7,1.7,0,0,0,.2-2.4l-.2-.2A9.5,9.5,0,0,0,248.7,27.8Z" transform="translate(0 0)"/></svg>