<svg id="Layer_1" data-name="Layer 1" xmlns="http://www.w3.org/2000/svg" xmlns:xlink="http://www.w3.org/1999/xlink" viewBox="0 0 491 89.4"><defs><style>.cls-1{fill:none;stroke:url(#linear-gradient);}.cls-2,.cls-3{fill:#fff;}.cls-3{fill-rule:evenodd;}</style><linearGradient id="linear-gradient" x1="-212.89" y1="39.37" x2="603.17" y2="49.72" gradientTransform="matrix(1, 0, 0, -1, 0, 89.89)" gradientUnits="userSpaceOnUse"><stop offset="0.32" stop-color="#e43425"/><stop offset="0.72" stop-color="#886aff"/><stop offset="1" stop-color="#5873ff"/></linearGradient></defs><rect class="cls-1" x="0.5" y="0.5" width="490" height="88.4" rx="4.5"/><path class="cls-2" d="M39.8,28.2v4.5H38.3V21.3h4.2a3.8,3.8,0,0,1,2.9,1,3.1,3.1,0,0,1,1.1,2.5,3,3,0,0,1-1,2.5,4.5,4.5,0,0,1-3,.9Zm0-1.2h2.7a2.9,2.9,0,0,0,1.9-.6,2,2,0,0,0,.6-1.6,2.1,2.1,0,0,0-.6-1.6,3.6,3.6,0,0,0-1.8-.7H39.8Zm12.8,1.1H49.9v4.6H48.4V21.3h3.8a4.2,4.2,0,0,1,2.9.9,3.4,3.4,0,0,1,.5,4.4A4,4,0,0,1,54,27.8l2.7,4.8H55.1Zm-2.7-1.2h2.3a2.4,2.4,0,0,0,1.8-.6,2.2,2.2,0,0,0,0-3.2,3,3,0,0,0-1.8-.6H49.9Zm17.1.5a8.4,8.4,0,0,1-.5,2.9,4.9,4.9,0,0,1-1.6,1.9,5.1,5.1,0,0,1-4.8,0,4.2,4.2,0,0,1-1.6-1.9,6.4,6.4,0,0,1-.6-2.8v-.9a9.3,9.3,0,0,1,.5-2.9,5.2,5.2,0,0,1,1.7-1.9,4.4,4.4,0,0,1,2.3-.6,4.9,4.9,0,0,1,2.5.6,6,6,0,0,1,1.6,1.9,8.8,8.8,0,0,1,.5,2.9Zm-1.5-.8a4.8,4.8,0,0,0-.8-3.1,2.7,2.7,0,0,0-2.3-1.1,2.8,2.8,0,0,0-2.2,1.1,5.1,5.1,0,0,0-.8,3v.9a4.9,4.9,0,0,0,.8,3.1,2.7,2.7,0,0,0,2.3,1.1,2.7,2.7,0,0,0,2.2-1.1,5.1,5.1,0,0,0,.8-3Zm12.2,4.6a3.8,3.8,0,0,1-1.6,1.2,6.2,6.2,0,0,1-2.5.4,4.8,4.8,0,0,1-2.4-.6,4.5,4.5,0,0,1-1.7-1.9,6.1,6.1,0,0,1-.6-2.8v-.9a5.8,5.8,0,0,1,1.2-4,4,4,0,0,1,3.4-1.4,4.1,4.1,0,0,1,2.8.9,3.7,3.7,0,0,1,1.4,2.5H76.2a2.8,2.8,0,0,0-5-1.1,5.1,5.1,0,0,0-.8,3v.9a5,5,0,0,0,.9,3.1,3,3,0,0,0,2.4,1.1,3.2,3.2,0,0,0,1.4-.2,2,2,0,0,0,1.1-.6V28.2H73.5V27h4.2Zm6.7-3.1H81.7v4.6H80.2V21.3h3.7a4.5,4.5,0,0,1,3,.9,3,3,0,0,1,1,2.5,3.8,3.8,0,0,1-.5,1.9,4.8,4.8,0,0,1-1.6,1.2l2.6,4.8H86.8Zm-2.7-1.2H84a2.8,2.8,0,0,0,1.8-.6,2.4,2.4,0,0,0,0-3.2,3,3,0,0,0-1.8-.6H81.7Zm14.6,2.8H91.6l-1.1,3H88.9l4.4-11.4h1.3l4.3,11.4H97.4ZM92,28.5h3.9l-2-5.3Zm10.4-7.2,3.7,9.3,3.8-9.3h1.9V32.7h-1.5V23.5l-3.7,9.2h-1.1l-3.8-9.2.2,4.8v4.4h-1.5V21.3Zm14,0,3.7,9.3,3.7-9.3h2V32.7h-1.5V23.5l-3.7,9.2h-1.2l-3.7-9.2v9.2h-1.5V21.3Zm18.4,8.4h-4.7l-1.1,3h-1.5l4.3-11.4h1.3l4.4,11.4h-1.6Zm-4.3-1.2h3.9l-1.9-5.3Zm15.3-6h-3.6V32.7h-1.5V22.5H137V21.3h8.8Zm3.3,10.2h-1.5V21.3h1.5Zm11.2-3.6a4.4,4.4,0,0,1-1.4,2.8,4.5,4.5,0,0,1-3,.9,3.9,3.9,0,0,1-3.2-1.4,6.1,6.1,0,0,1-1.2-3.9V26.4a6.7,6.7,0,0,1,.6-2.8,3.5,3.5,0,0,1,1.6-1.8,4.8,4.8,0,0,1,2.4-.6,4.1,4.1,0,0,1,2.9,1,4.6,4.6,0,0,1,1.3,2.8h-1.6a3.4,3.4,0,0,0-.8-2,2.4,2.4,0,0,0-1.8-.6,2.6,2.6,0,0,0-2.3,1.1,5.1,5.1,0,0,0-.8,3v1.1a5,5,0,0,0,.8,2.9,2.3,2.3,0,0,0,2.1,1.1,3.7,3.7,0,0,0,2-.5,3.4,3.4,0,0,0,.8-2Zm9.3-1.5a8.1,8.1,0,0,1-2.8-1.3,2.8,2.8,0,0,1-.9-2A3,3,0,0,1,167,22a4.9,4.9,0,0,1,2.8-.8,4.6,4.6,0,0,1,2.1.4,2.9,2.9,0,0,1,1.4,1.3,2.6,2.6,0,0,1,.5,1.7h-1.5a2.1,2.1,0,0,0-.6-1.6,3.2,3.2,0,0,0-3.6-.1,1.6,1.6,0,0,0-.6,1.3,1.3,1.3,0,0,0,.5,1.2,7.7,7.7,0,0,0,2,.9,8.5,8.5,0,0,1,2.3.9,4.3,4.3,0,0,1,1.2,1.1,3.3,3.3,0,0,1,.3,1.5,2.6,2.6,0,0,1-1,2.2,4.5,4.5,0,0,1-2.9.8,5.4,5.4,0,0,1-2.2-.4,4,4,0,0,1-1.6-1.2,3.7,3.7,0,0,1-.5-1.8h1.5a1.9,1.9,0,0,0,.7,1.6,3.5,3.5,0,0,0,2.1.6,2.4,2.4,0,0,0,1.8-.5,1.5,1.5,0,0,0,.6-1.3,1.9,1.9,0,0,0-.5-1.3A6.9,6.9,0,0,0,169.6,27.6Zm12.5,2.1h-4.8l-1.1,3h-1.5L179,21.3h1.3l4.4,11.4h-1.6Zm-4.4-1.2h3.9l-1.9-5.3Zm10,3h5.4v1.2h-6.9V21.3h1.5Zm13.6-4.1h-5v4.1H202v1.2h-7.2V21.3H202v1.2h-5.7v3.7h5Zm6,.2a7.3,7.3,0,0,1-2.8-1.3,2.8,2.8,0,0,1-.9-2,2.9,2.9,0,0,1,1-2.3,5.1,5.1,0,0,1,2.8-.8,4.6,4.6,0,0,1,2.1.4,3.7,3.7,0,0,1,1.5,1.3,3.4,3.4,0,0,1,.5,1.7H210a2.2,2.2,0,0,0-.7-1.6,2.7,2.7,0,0,0-1.9-.6,2.9,2.9,0,0,0-1.7.5,1.6,1.6,0,0,0-.6,1.3,1.4,1.4,0,0,0,.6,1.2,6.3,6.3,0,0,0,2,.9,7.7,7.7,0,0,1,2.2.9,4.3,4.3,0,0,1,1.2,1.1,2.4,2.4,0,0,1,.4,1.5,2.7,2.7,0,0,1-1.1,2.2,4.3,4.3,0,0,1-2.9.8,5.4,5.4,0,0,1-2.2-.4,3.6,3.6,0,0,1-1.5-1.2,3,3,0,0,1-.6-1.8h1.5a1.9,1.9,0,0,0,.8,1.6,3.2,3.2,0,0,0,2,.6,2.4,2.4,0,0,0,1.8-.5,1.4,1.4,0,0,0,.7-1.3,1.6,1.6,0,0,0-.6-1.3A7.2,7.2,0,0,0,207.3,27.6ZM38.8,65.7V45.8h7c2.4,0,4.2.4,5.4,1.4a4.5,4.5,0,0,1,1.9,4,4.4,4.4,0,0,1-.7,2.6,3.7,3.7,0,0,1-2.1,1.6,4.4,4.4,0,0,1,3.3,4.4,5.2,5.2,0,0,1-1.9,4.4,7.9,7.9,0,0,1-5.2,1.5ZM42.9,57v5.4h3.5a2.9,2.9,0,0,0,2.2-.7,2.3,2.3,0,0,0,.9-1.9A2.6,2.6,0,0,0,46.6,57Zm0-2.9h3c2.1,0,3.1-.8,3.1-2.5a2,2,0,0,0-.8-1.9,3.8,3.8,0,0,0-2.4-.6H42.9ZM64,58.4H60.8v7.3H56.7V45.8h7.4a8.1,8.1,0,0,1,5.4,1.6,5.2,5.2,0,0,1,1.9,4.4,5.9,5.9,0,0,1-.9,3.4,6.4,6.4,0,0,1-2.6,2.2l4.3,8.1v.2H67.8Zm-3.2-3.3h3.3a3.6,3.6,0,0,0,2.4-.8,3.4,3.4,0,0,0,0-4.4,3.3,3.3,0,0,0-2.4-.8H60.8Zm30.1,1.1a13.2,13.2,0,0,1-1,5.1,7.9,7.9,0,0,1-3,3.5A8.4,8.4,0,0,1,82.4,66,7.9,7.9,0,0,1,75,61.4a13.6,13.6,0,0,1-1.1-5.1v-1A12.4,12.4,0,0,1,75,50.1a7.7,7.7,0,0,1,3-3.4,8.3,8.3,0,0,1,4.4-1.2,8.1,8.1,0,0,1,4.4,1.2,7.7,7.7,0,0,1,3,3.4,12.1,12.1,0,0,1,1.1,5.2Zm-4.2-.9a8.1,8.1,0,0,0-1.1-4.8,3.5,3.5,0,0,0-3.2-1.6,3.6,3.6,0,0,0-3.2,1.6,8.6,8.6,0,0,0-1.1,4.7v1a8.8,8.8,0,0,0,1.1,4.7,3.7,3.7,0,0,0,3.2,1.7A3.5,3.5,0,0,0,85.6,61a8,8,0,0,0,1.1-4.7Zm18.1,6.3H97.6l-1.3,4.1H91.9l7.4-19.9h3.8l7.5,19.9h-4.4Zm-6.1-3.3h5l-2.5-7.5Zm13.7,7.4V45.8h6.1a8.9,8.9,0,0,1,4.7,1.2,8.7,8.7,0,0,1,3.3,3.3,11.5,11.5,0,0,1,1.1,5v.9a11,11,0,0,1-1.1,4.9,8.1,8.1,0,0,1-3.2,3.4,9.4,9.4,0,0,1-4.7,1.2Zm4.1-16.6V62.4h2a4.4,4.4,0,0,0,3.7-1.6,7.1,7.1,0,0,0,1.3-4.5v-1c0-2.1-.4-3.6-1.3-4.6a4.2,4.2,0,0,0-3.7-1.6Zm24.4,11.4a1.9,1.9,0,0,0-.8-1.8,8.9,8.9,0,0,0-2.9-1.3,19.5,19.5,0,0,1-3.4-1.4c-2.3-1.2-3.4-2.9-3.4-4.9a4.8,4.8,0,0,1,.9-2.9,6.7,6.7,0,0,1,2.6-2,9.5,9.5,0,0,1,3.8-.7,8.9,8.9,0,0,1,3.8.8,5.2,5.2,0,0,1,2.6,2.2,5.1,5.1,0,0,1,1,3.2H141a2.7,2.7,0,0,0-.9-2.2,3.6,3.6,0,0,0-2.4-.7,4.3,4.3,0,0,0-2.4.6,2.1,2.1,0,0,0-.8,1.7,1.8,1.8,0,0,0,1,1.6,7.2,7.2,0,0,0,2.9,1.2,12.2,12.2,0,0,1,5.1,2.7,5.3,5.3,0,0,1,1.6,3.8,4.8,4.8,0,0,1-2,4.1,8.6,8.6,0,0,1-5.3,1.5,9.1,9.1,0,0,1-4.1-.9,6,6,0,0,1-3.9-5.7h4.1q0,3.3,3.9,3.3a3.7,3.7,0,0,0,2.3-.6A1.7,1.7,0,0,0,140.9,60.5Zm11.3,5.2h-4.1V45.8h4.1Zm19.6-2.5a7.3,7.3,0,0,1-3.2,2,12.3,12.3,0,0,1-4.4.8,8.5,8.5,0,0,1-4.6-1.2,7.2,7.2,0,0,1-3-3.2,13.6,13.6,0,0,1-1.1-5.1V55.2a13.8,13.8,0,0,1,1-5.2,7.3,7.3,0,0,1,2.9-3.3,9.4,9.4,0,0,1,10,.5,7.6,7.6,0,0,1,2.4,4.9h-4a3.4,3.4,0,0,0-3.8-3.3,3.5,3.5,0,0,0-3.2,1.6,8.3,8.3,0,0,0-1.1,4.7v1.2a8.1,8.1,0,0,0,1.2,4.8,4.3,4.3,0,0,0,3.5,1.6,5,5,0,0,0,3.3-1V58.2h-3.8v-3h7.9Zm19.5,2.5h-4.1l-8-13.1V65.7h-4.1V45.8h4.1l8,13.1V45.8h4.1Zm17.9-7.3H206v7.3h-4.1V45.8h7.4a8.1,8.1,0,0,1,5.4,1.6,5.2,5.2,0,0,1,1.9,4.4,5.9,5.9,0,0,1-.9,3.4,7.1,7.1,0,0,1-2.6,2.2l4.3,8.1v.2H213ZM206,55.1h3.3a3.6,3.6,0,0,0,2.4-.8,3.4,3.4,0,0,0,0-4.4,3.3,3.3,0,0,0-2.4-.8H206Zm25.7,2h-7.9v5.3h9.3v3.3H219.7V45.8h13.4v3.3h-9.3v4.7h7.9Zm15,4.5h-7.2l-1.3,4.1h-4.4l7.4-19.9H245l7.5,19.9h-4.4Zm-6.1-3.3h5l-2.5-7.5Zm29.1.8a7.2,7.2,0,0,1-2.4,5,8.5,8.5,0,0,1-5.7,1.9,7.6,7.6,0,0,1-6-2.6,10.9,10.9,0,0,1-2.2-7.1V55.1a13.6,13.6,0,0,1,1-5.1,8.5,8.5,0,0,1,2.9-3.3,8.1,8.1,0,0,1,4.4-1.2,7.7,7.7,0,0,1,5.5,1.9,7,7,0,0,1,2.5,5.1h-4.1a4.3,4.3,0,0,0-1.1-2.8,4.3,4.3,0,0,0-2.8-.8,3.7,3.7,0,0,0-3.1,1.4,8.1,8.1,0,0,0-1,4.6v1.5c0,2.2.3,3.7,1,4.7a3.2,3.2,0,0,0,3,1.5,4,4,0,0,0,2.9-.9,3.7,3.7,0,0,0,1.1-2.6Zm18.8,6.6h-4.1V57.2h-8v8.5h-4.1V45.8h4.1v8h8v-8h4.1Z" transform="translate(0 0)"/><path class="cls-3" d="M452,44l5.9,4.6L452,53.3V49.7h-17v-2l17-.2Z" transform="translate(0 0)"/></svg>