<svg id="Layer_1" data-name="Layer 1" xmlns="http://www.w3.org/2000/svg" width="29" height="22.4" viewBox="0 0 29 22.4"><path d="M23,25a6,6,0,0,1-5.5-2.9,10,10,0,0,1-1.6-5.8,15.8,15.8,0,0,1,2.3-8.1,17.1,17.1,0,0,1,7.3-5.6l.9,1.6a11.8,11.8,0,0,0-5.1,3.7,8.5,8.5,0,0,0-2,5,6.3,6.3,0,0,0,.3,1.9A5,5,0,0,1,23,13.6a5.8,5.8,0,0,1,4.2,1.6A5.2,5.2,0,0,1,29,19.3a5.4,5.4,0,0,1-1.8,4.1A5.8,5.8,0,0,1,23,25ZM7.1,25a6,6,0,0,1-5.5-2.9A10,10,0,0,1,0,16.3,15.8,15.8,0,0,1,2.3,8.2,17.1,17.1,0,0,1,9.6,2.6l.9,1.6A11.8,11.8,0,0,0,5.4,7.9a8.5,8.5,0,0,0-2,5,13.7,13.7,0,0,0,.2,1.9,5.5,5.5,0,0,1,3.5-1.2,5.8,5.8,0,0,1,4.2,1.6,5.2,5.2,0,0,1,1.8,4.1,5.4,5.4,0,0,1-1.8,4.1A5.8,5.8,0,0,1,7.1,25Z" transform="translate(0 -2.6)" style="fill:#001464"/></svg>