<svg id="Layer_1" data-name="Layer 1" xmlns="http://www.w3.org/2000/svg" viewBox="0 0 29 25"><path d="M23,25a5.9,5.9,0,0,1-5.5-3.2,12.3,12.3,0,0,1-1.6-6.5,17.7,17.7,0,0,1,2.3-9A17.9,17.9,0,0,1,25.5,0l.9,1.8a13.4,13.4,0,0,0-5.1,4,9.2,9.2,0,0,0-2,5.7,7.6,7.6,0,0,0,.3,2.1A4.7,4.7,0,0,1,23,12.3a5.6,5.6,0,0,1,4.2,1.8A5.9,5.9,0,0,1,29,18.6a6.5,6.5,0,0,1-1.8,4.6A5.6,5.6,0,0,1,23,25ZM7.1,25a5.9,5.9,0,0,1-5.5-3.2A12.3,12.3,0,0,1,0,15.3a18.8,18.8,0,0,1,2.3-9A17.9,17.9,0,0,1,9.6,0l.9,1.8a13.4,13.4,0,0,0-5.1,4,9.2,9.2,0,0,0-2,5.7,14.9,14.9,0,0,0,.2,2.1,5.1,5.1,0,0,1,3.5-1.3,5.6,5.6,0,0,1,4.2,1.8,5.9,5.9,0,0,1,1.8,4.5,6.5,6.5,0,0,1-1.8,4.6A5.6,5.6,0,0,1,7.1,25Z" transform="translate(0)" style="fill:#fff"/></svg>