<svg id="Capa_1" data-name="Capa 1" xmlns="http://www.w3.org/2000/svg" viewBox="0 0 902.9 748.4"><path d="M231.4,577.8H828.1l74.8-399.1-703.2.5-26-102H0v68H120.9L231.4,577.8Zm589.5-331-49.2,263H284.2L217.1,247.2Z" transform="translate(0 -77.2)" style="fill:#fff"/><path d="M433.2,716.9a107.7,107.7,0,0,0-7.9-40.7h208a107.7,107.7,0,0,0-7.9,40.7A108.8,108.8,0,1,0,734.1,608.2H324.4A108.7,108.7,0,1,0,433.2,716.9Zm300.9-40.7a40.7,40.7,0,1,1-40.7,40.7A40.8,40.8,0,0,1,734.1,676.2Zm-409.7,0a40.7,40.7,0,1,1-40.7,40.7A40.8,40.8,0,0,1,324.4,676.2Z" transform="translate(0 -77.2)" style="fill:#fff"/></svg>