<svg id="Layer_1" data-name="Layer 1" xmlns="http://www.w3.org/2000/svg" xmlns:xlink="http://www.w3.org/1999/xlink" viewBox="0 0 574 399.2"><defs><style>.cls-1{fill:url(#linear-gradient);}.cls-2{fill:#001464;}.cls-3{fill:#e3f7f7;}.cls-4{fill:#b7c0eb;}.cls-5{fill:url(#linear-gradient-2);}.cls-6{fill:#0500a9;}.cls-7{fill:url(#linear-gradient-3);}.cls-8{fill:url(#linear-gradient-4);}.cls-9{fill:#fff;}.cls-10{fill:#00988f;}.cls-11{fill:url(#linear-gradient-5);}.cls-12{fill:url(#linear-gradient-6);}.cls-13{fill:#006f87;}.cls-14{fill:#f5be00;}.cls-15{fill:#90e0ce;}.cls-16{fill:#437fec;}.cls-17{fill:#00c8ff;}.cls-18{fill:red;}.cls-19{fill:#fafafa;}.cls-20{fill:#cf8459;}.cls-21{opacity:0.08;}.cls-21,.cls-23,.cls-25,.cls-26,.cls-38{isolation:isolate;}.cls-22{fill:#122c39;}.cls-23{opacity:0.05;}.cls-24{fill:url(#linear-gradient-7);}.cls-25{opacity:0.04;}.cls-26,.cls-30{fill:#faf7f4;}.cls-26{opacity:0.4;}.cls-27{fill:#004157;}.cls-28{fill:url(#linear-gradient-8);}.cls-29{fill:url(#linear-gradient-9);}.cls-31{fill:#bf7f5b;}.cls-32{fill:url(#linear-gradient-10);}.cls-33{fill:#132c39;}.cls-34{fill:url(#linear-gradient-11);}.cls-35{fill:url(#linear-gradient-12);}.cls-36{fill:url(#linear-gradient-13);}.cls-37,.cls-38{opacity:0.06;}.cls-39{fill:url(#linear-gradient-14);}.cls-40{fill:#f5ffff;}.cls-41{fill:#e7efee;}.cls-42{fill:#0500c8;}.cls-43{fill:#83dbe7;}.cls-44{fill:#16c4c9;}.cls-45{fill:url(#linear-gradient-15);}.cls-46{fill:url(#linear-gradient-16);}.cls-47{fill:url(#linear-gradient-17);}</style><linearGradient id="linear-gradient" x1="139.4" y1="238.97" x2="574" y2="238.97" gradientTransform="matrix(1, 0, 0, -1, 0, 399.89)" gradientUnits="userSpaceOnUse"><stop offset="0" stop-color="#0057d0"/><stop offset="1" stop-color="#00c5ff"/></linearGradient><linearGradient id="linear-gradient-2" x1="216.81" y1="297.56" x2="237.97" y2="297.56" gradientTransform="matrix(1, 0, 0, -1, 0, 399.89)" gradientUnits="userSpaceOnUse"><stop offset="0.03" stop-color="#f50000"/><stop offset="0.6" stop-color="#0500c8"/><stop offset="0.69" stop-color="#0539d8"/><stop offset="0.83" stop-color="#0585ed"/><stop offset="0.92" stop-color="#05b6fa"/><stop offset="0.97" stop-color="#05c8ff"/></linearGradient><linearGradient id="linear-gradient-3" x1="240.69" y1="297.56" x2="261.85" y2="297.56" xlink:href="#linear-gradient-2"/><linearGradient id="linear-gradient-4" x1="264.57" y1="297.56" x2="285.73" y2="297.56" xlink:href="#linear-gradient-2"/><linearGradient id="linear-gradient-5" x1="229.98" y1="320.74" x2="251.14" y2="320.74" xlink:href="#linear-gradient-2"/><linearGradient id="linear-gradient-6" x1="253.86" y1="320.74" x2="275.02" y2="320.74" xlink:href="#linear-gradient-2"/><linearGradient id="linear-gradient-7" x1="84.23" y1="180.62" x2="36.87" y2="180.62" gradientTransform="matrix(1, 0, 0, -1, 0, 399.89)" gradientUnits="userSpaceOnUse"><stop offset="0" stop-color="#ff6c00"/><stop offset="1" stop-color="red"/></linearGradient><linearGradient id="linear-gradient-8" x1="98.49" y1="116.83" x2="21.36" y2="116.83" xlink:href="#linear-gradient-7"/><linearGradient id="linear-gradient-9" x1="58.13" y1="178.21" x2="74.21" y2="178.21" gradientTransform="matrix(1, 0, 0, -1, 0, 399.89)" gradientUnits="userSpaceOnUse"><stop offset="0" stop-color="#00b1ff"/><stop offset="0.2" stop-color="#00b1ff"/><stop offset="0.65" stop-color="#00dad7"/><stop offset="0.9" stop-color="#00edc5"/><stop offset="1" stop-color="#00edc5"/></linearGradient><linearGradient id="linear-gradient-10" x1="209.34" y1="228.11" x2="105.45" y2="228.11" gradientTransform="matrix(1, 0, 0, -1, 0, 399.89)" gradientUnits="userSpaceOnUse"><stop offset="0" stop-color="#0057d0"/><stop offset="0.1" stop-color="#0057d0"/><stop offset="0.39" stop-color="#0083e3"/><stop offset="0.73" stop-color="#00b3f7"/><stop offset="0.9" stop-color="#00c5ff"/><stop offset="1" stop-color="#00c5ff"/></linearGradient><linearGradient id="linear-gradient-11" x1="199.25" y1="98.95" x2="163.06" y2="98.95" gradientTransform="matrix(1, 0, 0, -1, 0, 399.89)" gradientUnits="userSpaceOnUse"><stop offset="0" stop-color="#4b0080"/><stop offset="0.1" stop-color="#4b0080"/><stop offset="0.9" stop-color="#0050e8"/><stop offset="1" stop-color="#0050e8"/></linearGradient><linearGradient id="linear-gradient-12" x1="146.25" y1="86.07" x2="174.91" y2="86.07" xlink:href="#linear-gradient-11"/><linearGradient id="linear-gradient-13" x1="200.1" y1="201.86" x2="153.39" y2="201.86" xlink:href="#linear-gradient-10"/><linearGradient id="linear-gradient-14" x1="111.87" y1="227.42" x2="151.35" y2="227.42" xlink:href="#linear-gradient-10"/><linearGradient id="linear-gradient-15" x1="242.45" y1="85.7" x2="287.52" y2="85.7" xlink:href="#linear-gradient-7"/><linearGradient id="linear-gradient-16" x1="317.74" y1="76.02" x2="365.08" y2="76.02" xlink:href="#linear-gradient-7"/><linearGradient id="linear-gradient-17" x1="458.8" y1="282.13" x2="513.14" y2="282.13" xlink:href="#linear-gradient-2"/></defs><path class="cls-1" d="M139.4,321.2V.6H574V321.2Z" transform="translate(0 -0.6)"/><path class="cls-2" d="M574,13.7V.6H139.4V13.7Z" transform="translate(0 -0.6)"/><path class="cls-3" d="M397.6,49.5H201.8V321.2H397.6Z" transform="translate(0 -0.6)"/><path class="cls-4" d="M387.8,57.4H210.2V114H387.8Z" transform="translate(0 -0.6)"/><path class="cls-4" d="M387.8,121.6H210.2v56.6H387.8Z" transform="translate(0 -0.6)"/><path class="cls-4" d="M387.8,185.8H210.2v56.6H387.8Z" transform="translate(0 -0.6)"/><path class="cls-5" d="M238,90.6H216.8v23.5H238Z" transform="translate(0 -0.6)"/><path class="cls-6" d="M238,90.6H216.8v5.9H238Z" transform="translate(0 -0.6)"/><path class="cls-7" d="M261.9,90.6H240.7v23.5h21.2Z" transform="translate(0 -0.6)"/><path class="cls-6" d="M261.9,90.6H240.7v5.9h21.2Z" transform="translate(0 -0.6)"/><path class="cls-8" d="M285.7,90.6H264.6v23.5h21.1Z" transform="translate(0 -0.6)"/><path class="cls-6" d="M285.7,90.6H264.6v5.9h21.1Z" transform="translate(0 -0.6)"/><path class="cls-9" d="M333.5,90.6H312.3v23.5h21.2Z" transform="translate(0 -0.6)"/><path class="cls-10" d="M333.5,90.6H312.3v5.9h21.2Z" transform="translate(0 -0.6)"/><path class="cls-9" d="M357,90.6H335.8v23.5H357Z" transform="translate(0 -0.6)"/><path class="cls-10" d="M357,90.6H335.8v5.9H357Z" transform="translate(0 -0.6)"/><path class="cls-9" d="M380.8,90.6H359.7v23.5h21.1Z" transform="translate(0 -0.6)"/><path class="cls-10" d="M380.8,90.6H359.7v5.9h21.1Z" transform="translate(0 -0.6)"/><path class="cls-11" d="M251.1,67.7H230V90.6h21.1Z" transform="translate(0 -0.6)"/><path class="cls-6" d="M251.1,67.7H230v5.7h21.1Z" transform="translate(0 -0.6)"/><path class="cls-12" d="M275,67.7H253.9V90.6H275Z" transform="translate(0 -0.6)"/><path class="cls-6" d="M275,67.7H253.9v5.7H275Z" transform="translate(0 -0.6)"/><path class="cls-9" d="M346.7,67.7H325.5V90.6h21.2Z" transform="translate(0 -0.6)"/><path class="cls-10" d="M346.7,67.7H325.5v5.7h21.2Z" transform="translate(0 -0.6)"/><path class="cls-9" d="M370.1,67.7H349V90.6h21.1Z" transform="translate(0 -0.6)"/><path class="cls-10" d="M370.1,67.7H349v5.7h21.1Z" transform="translate(0 -0.6)"/><path class="cls-9" d="M238.8,152.6H219.7v25.5h19.1Z" transform="translate(0 -0.6)"/><path class="cls-9" d="M261.4,152.6H242.2v25.5h19.2Z" transform="translate(0 -0.6)"/><path class="cls-9" d="M283.9,152.6H264.8v25.5h19.1Z" transform="translate(0 -0.6)"/><path class="cls-9" d="M306.5,152.6H287.3v25.5h19.2Z" transform="translate(0 -0.6)"/><path class="cls-9" d="M249.6,127.2H230.5v25.5h19.1Z" transform="translate(0 -0.6)"/><path class="cls-9" d="M272.2,127.2H253v25.5h19.2Z" transform="translate(0 -0.6)"/><path class="cls-9" d="M294.7,127.2H275.6v25.5h19.1Z" transform="translate(0 -0.6)"/><path class="cls-13" d="M246.4,130H233.1v4.1h13.3Z" transform="translate(0 -0.6)"/><path class="cls-13" d="M269.2,130H255.9v4.1h13.3Z" transform="translate(0 -0.6)"/><path class="cls-13" d="M292.1,130H278.8v4.1h13.3Z" transform="translate(0 -0.6)"/><path class="cls-13" d="M235.7,156H222.4v4.2h13.3Z" transform="translate(0 -0.6)"/><path class="cls-13" d="M281.4,156H268.1v4.2h13.3Z" transform="translate(0 -0.6)"/><path class="cls-13" d="M259.1,156H245.8v4.2h13.3Z" transform="translate(0 -0.6)"/><path class="cls-13" d="M303.5,156H290.2v4.2h13.3Z" transform="translate(0 -0.6)"/><path class="cls-13" d="M327.4,152.6H313.5v25.5h13.9Z" transform="translate(0 -0.6)"/><path class="cls-13" d="M343.8,152.6H329.9v25.5h13.9Z" transform="translate(0 -0.6)"/><path class="cls-13" d="M360.2,152.6h-14v25.5h14Z" transform="translate(0 -0.6)"/><path class="cls-13" d="M376.5,152.6H362.6v25.5h13.9Z" transform="translate(0 -0.6)"/><path class="cls-14" d="M327.4,152.6H313.5v4h13.9Z" transform="translate(0 -0.6)"/><path class="cls-14" d="M343.8,152.6H329.9v4h13.9Z" transform="translate(0 -0.6)"/><path class="cls-14" d="M360.2,152.6h-14v4h14Z" transform="translate(0 -0.6)"/><path class="cls-14" d="M376.5,152.6H362.6v4h13.9Z" transform="translate(0 -0.6)"/><path class="cls-13" d="M335.3,127.2h-14v25.5h14Z" transform="translate(0 -0.6)"/><path class="cls-13" d="M351.6,127.2H337.7v25.5h13.9Z" transform="translate(0 -0.6)"/><path class="cls-13" d="M368,127.2H354.1v25.5H368Z" transform="translate(0 -0.6)"/><path class="cls-14" d="M335.3,127.2h-14v4.2h14Z" transform="translate(0 -0.6)"/><path class="cls-14" d="M351.6,127.2H337.7v4.2h13.9Z" transform="translate(0 -0.6)"/><path class="cls-14" d="M368,127.2H354.1v4.2H368Z" transform="translate(0 -0.6)"/><path class="cls-15" d="M240.7,217.6h-19v24.5h19Z" transform="translate(0 -0.6)"/><path class="cls-10" d="M238.7,235.4h-15v6.7h15Z" transform="translate(0 -0.6)"/><path class="cls-10" d="M238.9,217.6H223.5v4.5h15.4Z" transform="translate(0 -0.6)"/><path class="cls-15" d="M262.8,217.6H243.9v24.5h18.9Z" transform="translate(0 -0.6)"/><path class="cls-10" d="M260.9,235.4H245.8v6.7h15.1Z" transform="translate(0 -0.6)"/><path class="cls-10" d="M261,217.6H245.6v4.5H261Z" transform="translate(0 -0.6)"/><path class="cls-15" d="M284.9,217.6H266v24.5h18.9Z" transform="translate(0 -0.6)"/><path class="cls-10" d="M283,235.4H268v6.7h15Z" transform="translate(0 -0.6)"/><path class="cls-10" d="M283.2,217.6H267.8v4.5h15.4Z" transform="translate(0 -0.6)"/><path class="cls-15" d="M307.1,217.6h-19v24.5h19Z" transform="translate(0 -0.6)"/><path class="cls-10" d="M305.1,235.4h-15v6.7h15Z" transform="translate(0 -0.6)"/><path class="cls-10" d="M305.3,217.6H289.9v4.5h15.4Z" transform="translate(0 -0.6)"/><path class="cls-15" d="M252.4,193.1H233.5v24.6h18.9Z" transform="translate(0 -0.6)"/><path class="cls-10" d="M250.5,211H235.4v6.7h15.1Z" transform="translate(0 -0.6)"/><path class="cls-10" d="M250.7,193.1H235.2v4.6h15.5Z" transform="translate(0 -0.6)"/><path class="cls-15" d="M274.6,193.1h-19v24.6h19Z" transform="translate(0 -0.6)"/><path class="cls-10" d="M272.6,211h-15v6.7h15Z" transform="translate(0 -0.6)"/><path class="cls-10" d="M272.8,193.1H257.4v4.6h15.4Z" transform="translate(0 -0.6)"/><path class="cls-15" d="M296.7,193.1h-19v24.6h19Z" transform="translate(0 -0.6)"/><path class="cls-10" d="M294.7,211h-15v6.7h15Z" transform="translate(0 -0.6)"/><path class="cls-10" d="M294.9,193.1H279.5v4.6h15.4Z" transform="translate(0 -0.6)"/><path class="cls-16" d="M338.2,215.9H319.7v26.4h18.5Z" transform="translate(0 -0.6)"/><path class="cls-16" d="M359.3,215.9H340.8v26.4h18.5Z" transform="translate(0 -0.6)"/><path class="cls-16" d="M380.3,215.9H361.8v26.4h18.5Z" transform="translate(0 -0.6)"/><path class="cls-16" d="M348.1,189.7H329.6v26.4h18.5Z" transform="translate(0 -0.6)"/><path class="cls-16" d="M378.5,215.8v-19H352.8v19Z" transform="translate(0 -0.6)"/><path class="cls-17" d="M398,13.5H201.2V49.1H398Z" transform="translate(0 -0.6)"/><path class="cls-18" d="M288,109.7l3.4-1.9,1.6,3.5,3.8.5-.7,3.8,2.7,2.7-2.7,2.6.7,3.9-3.8.4-1.6,3.6-3.4-1.9-3.4,1.9-1.6-3.6-3.8-.4.7-3.9-2.7-2.6,2.7-2.7-.7-3.8,3.8-.5,1.6-3.5Z" transform="translate(0 -0.6)"/><path class="cls-19" d="M240.6,85.8c3.9,0,7.1-2,7.1-4.4s-3.2-4.4-7.1-4.4-7.2,1.9-7.2,4.4S236.6,85.8,240.6,85.8Z" transform="translate(0 -0.6)"/><path class="cls-19" d="M264.5,85.8c3.9,0,7.1-2,7.1-4.4s-3.2-4.4-7.1-4.4-7.2,1.9-7.2,4.4S260.5,85.8,264.5,85.8Z" transform="translate(0 -0.6)"/><path class="cls-19" d="M227.5,109.7c3.9,0,7.1-1.9,7.1-4.4s-3.2-4.4-7.1-4.4-7.2,1.9-7.2,4.4S223.5,109.7,227.5,109.7Z" transform="translate(0 -0.6)"/><path class="cls-19" d="M251.9,109.7c3.9,0,7.1-1.9,7.1-4.4s-3.2-4.4-7.1-4.4-7.1,1.9-7.1,4.4S247.9,109.7,251.9,109.7Z" transform="translate(0 -0.6)"/><path class="cls-19" d="M275.7,109.7c4,0,7.2-1.9,7.2-4.4s-3.2-4.4-7.2-4.4-7.1,1.9-7.1,4.4S271.8,109.7,275.7,109.7Z" transform="translate(0 -0.6)"/><path class="cls-15" d="M246.4,137.8H233.5v10.9h12.9Z" transform="translate(0 -0.6)"/><path class="cls-15" d="M235.4,164H222.5v10.9h12.9Z" transform="translate(0 -0.6)"/><path class="cls-15" d="M258.7,164H245.8v10.9h12.9Z" transform="translate(0 -0.6)"/><path class="cls-15" d="M281.3,164H268.4v10.9h12.9Z" transform="translate(0 -0.6)"/><path class="cls-15" d="M303.4,164H290.5v10.9h12.9Z" transform="translate(0 -0.6)"/><path class="cls-15" d="M268.8,137.8H255.9v10.9h12.9Z" transform="translate(0 -0.6)"/><path class="cls-15" d="M291.3,137.8H278.4v10.9h12.9Z" transform="translate(0 -0.6)"/><path class="cls-2" d="M87.3,323.8l43.7-4.9-7-52.2-41.4,4.6Z" transform="translate(0 -0.6)"/><path class="cls-20" d="M99.2,253.3a9.6,9.6,0,0,1,6.2,1.8c2.4,2.2,4.3,5.9,3.1,7.6s-8.3,3.8-10.8,1.5S95.7,254,99.2,253.3Z" transform="translate(0 -0.6)"/><path class="cls-20" d="M71.3,171.6c3-.4,9.6,2.8,10.8,11.4l5.2,40.4L104.5,257c.8,1.6-1.2,2-2.7,2.9s-3.1-.6-4.2-2.2c0,0-12.7-15.3-15.6-20.1a46.3,46.3,0,0,1-5.2-10.8v-1.2l-5.3-45.2h0C71.1,177.4,68.4,171.9,71.3,171.6Z" transform="translate(0 -0.6)"/><path class="cls-21" d="M71.3,171.6H72a11.7,11.7,0,0,0,2.3,7.2c.2.2,1,1.7,1.6,2.6l.3.7h0a46.1,46.1,0,0,1,1.6,6.4v.2a12.7,12.7,0,0,0,.4,3.4c.3,2.6.5,5.3.9,7.9s.4,4.1.7,6.1c-1.2,11.6,3.3,22.3,7.6,33.1,1.5,3.6,2.8,7.4,4.3,11.2-3.7-4.6-8.1-10.2-9.7-12.8a46.3,46.3,0,0,1-5.2-10.8v-1.2l-5.3-45.3h0C71.1,177.4,68.4,171.9,71.3,171.6Z" transform="translate(0 -0.6)"/><path class="cls-9" d="M94.2,270.7l1.9-.3a12.5,12.5,0,0,1,.9-7.2c.8-1.9,2.1-3.1,3.3-3.3,3-.5,7,1.6,8.2,9.1l1.9-.3c-1-6-4.5-11.6-10.4-10.7-1.9.3-3.6,1.9-4.8,4.4A14.5,14.5,0,0,0,94.2,270.7Z" transform="translate(0 -0.6)"/><path class="cls-20" d="M101.3,258.8a1.9,1.9,0,0,1,2,1.1l1.3,4.7a1.4,1.4,0,0,1-1.2,1.6,1.9,1.9,0,0,1-2-1.1l-1.3-4.7A1.3,1.3,0,0,1,101.3,258.8Z" transform="translate(0 -0.6)"/><path class="cls-20" d="M102.6,258.9a2,2,0,0,1,2.5.3l2.3,3.7a1.8,1.8,0,0,1-.7,2.4,1.7,1.7,0,0,1-2.3-.4l-2.6-4.1C101.3,260.2,101.7,259.3,102.6,258.9Z" transform="translate(0 -0.6)"/><path class="cls-20" d="M98.7,259.1a1.4,1.4,0,0,1,1.7,1l.9,4.7a1.4,1.4,0,0,1-2.7.5l-.9-4.6A1.3,1.3,0,0,1,98.7,259.1Z" transform="translate(0 -0.6)"/><path class="cls-20" d="M98.7,260.9v3.7c-.2,1.1-.5,1.7-1.3,1.6a1.3,1.3,0,0,1-1.4-1.5l.5-4.7C96.5,259.3,98.2,259.1,98.7,260.9Z" transform="translate(0 -0.6)"/><path class="cls-20" d="M102.2,253.1a40.9,40.9,0,0,1,4.5,2.7,21.8,21.8,0,0,1,1.7,3.6l.2,3.6a2.1,2.1,0,0,1-2.5-1.3,17.2,17.2,0,0,0-1.2-2.6,3.7,3.7,0,0,1-2.6-.3C100.9,258.2,100.3,253.2,102.2,253.1Z" transform="translate(0 -0.6)"/><path class="cls-22" d="M57.1,156.9c1.4-4.4-6.8-3.7-6.8-3.7s-15.3,11.7.6,32.1c10.6,13.5,4.5,21.3,4.5,21.3s14.1-.9,11.5-14.6S55.8,161.4,57.1,156.9Z" transform="translate(0 -0.6)"/><path class="cls-20" d="M5.8,373.9c5.8-4,4-2.2,7.3-7.1.9-1.3,5.3,5.6,5.3,5.6-1.8,2.6-3.8,14.1,2.1,17.7,3.6,2.2.9,3.4.9,3.4-8.7-.5-10.2-9.6-13.5-11.7S2.7,376,5.8,373.9Z" transform="translate(0 -0.6)"/><path class="cls-20" d="M36.1,322.1a4.9,4.9,0,0,1-.1-1.2c-.8-7.8-1.2-39.7-1.2-45.1s-3-21.8,2.7-36c.8-1.9,10.8,1.3,22.1,2.4a17.6,17.6,0,0,0-.1,4.6,97,97,0,0,1-.1,25s.7,37.6-7,54.2c-2.9,6.4-13.1,18.6-16.8,24.3-9,14-15.6,18.9-19.4,27.5-2.2-1.4-4.9-2.8-6.6-4.8a.3.3,0,0,0-.1-.2c3-6.3,10.9-23.9,18-37.4A125.5,125.5,0,0,1,36.1,322.1Z" transform="translate(0 -0.6)"/><path class="cls-23" d="M36.1,322.1a4.9,4.9,0,0,1-.1-1.2c-.8-7.8-1.2-39.7-1.2-45.1s-3-21.8,2.7-36c.2-.5,1.1-.7,2.6-.5a5.7,5.7,0,0,0-1,3.4c0,13,.6,26.1,1.1,39.2.5,10.4,1.2,41.2.6,41.7a64.6,64.6,0,0,0-18.4,25.1,58.4,58.4,0,0,0-4.2,5.6c2.9-6.2,6.2-12.9,9.3-18.9A125.5,125.5,0,0,1,36.1,322.1Z" transform="translate(0 -0.6)"/><path class="cls-20" d="M58.8,258.1c5.7.1,16.6-16.5,22.2-17.1,5.5,3.2,4.2,66.5,3.3,82.2.1,3.8-2.2,12.5-3.3,20.1-2.2,14.9-7.3,35.4-8.6,42.2,1.5,2.9,4.6,5.9,11.2,6.6,4.3.4,4,2.1,4,2.1-7.9,3.9-14.5-.5-19.5,1.2-1.5.5-2,.2-3.5.2s-2.6-3.2-2.2-4.4c2.7-8.6,1.7-4.7,2.5-10.2-.5-9.9-1.4-29.7-1.1-43.3a44.9,44.9,0,0,1,2.3-12C64,309.4,57.4,258.1,58.8,258.1Z" transform="translate(0 -0.6)"/><path class="cls-23" d="M58.8,258.1c1.4,0,3.1-1,5-2.5-1.4,8.7-.4,17.6,1.2,26.3s4.8,37.5,4.6,39.1c-2.2,15.7-2.7,55.3-2.8,56.4a39.4,39.4,0,0,0-.4,7c-2.2,3.4-1.4,8.8,2.4,10.8l-.7.2c-1.4.5-1.9.2-3.5.2s-2.6-3.2-2.2-4.4c2.7-8.6,1.7-4.7,2.5-10.2-.5-9.9-1.4-29.7-1.1-43.3a44.9,44.9,0,0,1,2.3-12C64,309.4,57.4,258.1,58.8,258.1Z" transform="translate(0 -0.6)"/><path class="cls-22" d="M53.5,126.3c-16.3,1.5-21.9,26.7-1.9,36,17,8,18.4-16.6,18.1-21.7C69.3,129.6,63.7,125.4,53.5,126.3Z" transform="translate(0 -0.6)"/><path class="cls-20" d="M47.6,169.6c5.2-1.7,13.2-1.4,18.5-.3,13.2,2.9,13.2,10.3,13.2,15.6l1,3.8c.6,4.7,1.3,5.3,3.9,12.4v.7a8.6,8.6,0,0,1-6.3,8.2l-.5,5.1a45.9,45.9,0,0,0,.3,12.9c-11.8.1-21.2.6-32.9.8-1.1,0-2.9-1.1-2.7-1.6,3-7.9-6.6-35-6.6-35C34,182.5,26.4,176.4,47.6,169.6Z" transform="translate(0 -0.6)"/><path class="cls-24" d="M38.8,201.9c.6-.3,15.1-19.7,2.8-29.7l2.7-1.3c6.4-3.7,24.8.4,24.6-.8a19,19,0,0,1,4.5,1.9,6.8,6.8,0,0,0,.2,2c1.3,6,7.7,22.7,9.8,24.8l.8,2.3v.6c0,4-1.9,8.9-5.5,9.8l-1.3,3.6c-.7,7-.4,12.6,1.9,19.2.8,2.4,1.7,3.7,3,8.3-1.6.3-13.4,21.6-21.8,26.6a76.7,76.7,0,0,0-8.4-12.6,104.7,104.7,0,0,0-15.2-16c2.6-7.2,3.1-9,4.4-12.5S40.1,208.4,38.8,201.9Z" transform="translate(0 -0.6)"/><path class="cls-25" d="M41.3,228.1c1.3-3.4-1.2-19.7-2.5-26.2.3-.1,3.6-4.4,5.8-9.9.6,4,1.5,8,2.3,12,1.2,5.8,2.3,11.8,4.3,17.4a55.6,55.6,0,0,0,6.3,12.4c.9,1.3,1.8,2.7,2.6,4.1s2.5,5.3,1,1.4c2.7,6.9,8,11.5,15,11.8-4.5,6.6-10.7,15.2-15.6,18.2a73.6,73.6,0,0,0-8.4-12.7,99.6,99.6,0,0,0-15.2-15.9C39.5,233.5,40,231.6,41.3,228.1Z" transform="translate(0 -0.6)"/><path class="cls-23" d="M60.5,269.3a24.6,24.6,0,0,0-2.2-3.9,31.8,31.8,0,0,0,3,3.3Z" transform="translate(0 -0.6)"/><path class="cls-20" d="M66.1,169.3l2.4.7c-.1,2.4-3.4,6.6-6,7-5.7,1-12.4-1.9-16.2-6.5l-.3-.3,1.6-.6C52.7,167.8,60.8,168.2,66.1,169.3Z" transform="translate(0 -0.6)"/><path class="cls-20" d="M61.6,168.8v-.2a1.2,1.2,0,0,1-.1-.5,8.6,8.6,0,0,1-.3-1.3,21.1,21.1,0,0,1-.6-4.1,29.3,29.3,0,0,1,0-4.2,5.3,5.3,0,0,1,.1-1.4v-.3h0v-.3a3.8,3.8,0,0,0-7.4-1.4,3.2,3.2,0,0,1-.1.7c-.1.5-.3,1.1-.4,1.8a34.5,34.5,0,0,0-.7,5.2,46.7,46.7,0,0,0,0,5.3,9,9,0,0,0,.2,1.8v.6c.3,2.2,2.4,4.7,4.4,5a13.7,13.7,0,0,0,3.5-1.3c1.6-.9,1.8-2.8,1.5-4.7A1.3,1.3,0,0,0,61.6,168.8Z" transform="translate(0 -0.6)"/><path class="cls-21" d="M61.2,166.8a22.3,22.3,0,0,1-.6-4.1,29.3,29.3,0,0,1,0-4.2,5.3,5.3,0,0,1,.1-1.4v-.7a3.8,3.8,0,0,0-7.4-1.4,3.2,3.2,0,0,1-.1.7c-.1.5-.3,1.1-.4,1.8a33.1,33.1,0,0,0-.7,5.1V164c2.4,2.8,5.8,4,9.4,4.3v-.2A8.6,8.6,0,0,1,61.2,166.8Z" transform="translate(0 -0.6)"/><path class="cls-20" d="M55.9,136l-10,8.6s1.6,12.5,7.1,16.7,8.8,3.6,13.1,1.2c8.3-4.7.2-27.4.2-27.4Z" transform="translate(0 -0.6)"/><path class="cls-22" d="M52.5,128.4c-13.1,2.3-7.3,19.4-7.3,19.4,3.2,2.6,1.9-5.9,10.4-5.1a38.8,38.8,0,0,0,16.2-2C68.9,126.1,60.4,127,52.5,128.4Z" transform="translate(0 -0.6)"/><path class="cls-20" d="M23.3,216.5c.3-2.6.8-5,1.3-7.4s1-4.6,1.6-6.8,1.1-4.3,1.7-6.2l1.6-5.6c1.1-3.4,2.7-8.9,3.7-11.7s5-4.6,8.4-3.6a6.6,6.6,0,0,1,4.5,8.4h0l-.9,3-2.4,8c-.5,1.7-1.1,3.5-1.7,5.4l-1.8,5.9-1.8,6.3c-.6,2.2-1.1,4.3-1.6,6.4s-.3,1.8-.4,2.5a3.4,3.4,0,0,0,1.2.4,46.1,46.1,0,0,0,5.6,1.2l5.4.8,4.6.6,3.6.5,2.4.3h.9a3.4,3.4,0,0,1,2.8,2.7,3.4,3.4,0,0,1-2.7,3.9h-.8l-2.5.4-3.7.5-5,.5H41.4a59.2,59.2,0,0,1-7-.4,25.6,25.6,0,0,1-4.1-.9l-2.6-1.1-1.6-1.1-.5-.4-.2-.3-.3-.3-.3-.4-.3-.3v-.2l-.2-.3h-.1v-.2l-.2-.5-.3-.7a1.9,1.9,0,0,1-.2-.7v-.5a.9.9,0,0,1-.1-.5v-.4a2.2,2.2,0,0,0-.1-.8v-2.5C23,219.1,23.1,217.8,23.3,216.5Z" transform="translate(0 -0.6)"/><path class="cls-21" d="M22.9,220.6c.1-1.5.2-2.8.4-4.1s.8-5,1.3-7.4,1-4.6,1.6-6.8,1.1-4.3,1.7-6.2l1.6-5.6c1.1-3.4,2.7-8.9,3.7-11.7a6.2,6.2,0,0,1,2.5-3,26.4,26.4,0,0,0-1.8,3.8,97,97,0,0,0-3.7,17.8c-.7,5.3-3,16.6-2.3,22,1.2,8.9,8.2,10.2,17.1,12.5a25.1,25.1,0,0,0,6.7.8l-4.4.4H41.4a59.2,59.2,0,0,1-7-.4l-4.1-.9-2.6-1.1-1.6-1.1-.5-.4-.2-.3-.3-.3-.3-.4-.3-.3v-.2l-.2-.3h-.1v-.2l-.2-.5-.3-.7a1.9,1.9,0,0,1-.2-.7v-.5a.9.9,0,0,1-.1-.5v-.4a1.9,1.9,0,0,0-.1-.8Z" transform="translate(0 -0.6)"/><path class="cls-26" d="M57.9,156.1l10-1.1C62.4,164.4,57.9,156.1,57.9,156.1Z" transform="translate(0 -0.6)"/><path class="cls-20" d="M45.1,151.6c1.6,4.1,3.6,6.3,4.9,4.4s-1.9-6.9-1.9-6.9S43.4,147.4,45.1,151.6Z" transform="translate(0 -0.6)"/><path class="cls-27" d="M81.8,391.8s-4.6,3.5-5.3,3.8h-2A10.2,10.2,0,0,1,81.8,391.8Z" transform="translate(0 -0.6)"/><path class="cls-27" d="M62.2,395.1H72.3l14.3-.2a.9.9,0,0,1,1,1,1,1,0,0,1-.9,1l-14.4.2H62.2a.9.9,0,0,1-1-.9A1,1,0,0,1,62.2,395.1Z" transform="translate(0 -0.6)"/><path class="cls-27" d="M19.3,389.1a47.1,47.1,0,0,0-9.2-.6l-2.8-2.8C16.1,385.7,19.3,389.1,19.3,389.1Z" transform="translate(0 -0.6)"/><path class="cls-27" d="M1.6,380.1a72,72,0,0,1,6.3,5.5c1.9,1.9,10.2,5.9,13.3,7.3a1,1,0,0,1,.5,1.3,1,1,0,0,1-.9.6h-.4c-.5-.2-11.4-5.1-14-7.7s-6-5.4-6-5.4a1,1,0,0,1-.2-1.4A1,1,0,0,1,1.6,380.1Z" transform="translate(0 -0.6)"/><path class="cls-28" d="M81.4,240.9S90,257,93,286c2.6,24.1,5.5,29.6,5.5,29.6s-17.9,11.3-33.6,9.7-26.1-6.7-30.1-7.9c-9.3-2.8-13.4-3.6-13.4-3.6l15.5-73.1Z" transform="translate(0 -0.6)"/><path class="cls-25" d="M36.9,240.7H51.8c-1.3,3.4-1.2,6.7-.6,10.4,0,.2.1.3.1.4v.2c.1,1.3.3,2.6.4,3.9s.3,4.8.4,7.2c.2,4.2.3,8.5.6,12.7.5,7.3,1.3,14.6,2.5,21.8,1.5,8.9,3.7,19.2,8.2,27.9-14.9-1.8-24.7-6.6-28.6-7.8-9.3-2.8-13.4-3.6-13.4-3.6Z" transform="translate(0 -0.6)"/><path class="cls-29" d="M58.1,230.4l10,2.5,6.1-19.3-12.3-3.1Z" transform="translate(0 -0.6)"/><path class="cls-20" d="M52.9,226.4h-.6L56,223a37.4,37.4,0,0,1,4-2.4,4.9,4.9,0,0,0,3.2,3.3l4.7.5,3.8.3a1.3,1.3,0,0,1,1.3,1.4,2,2,0,0,1-1.5,1.5,2.4,2.4,0,0,1,.2.8h0c-.1.8-.9,1.7-1.7,1.6a2.4,2.4,0,0,1,0,.9s.1.9-1.2,1.2l-.5.4c0,.7-1.7,1.4-2.4,1.3H64c-3,0-9.6-1.9-11.7-2.3S51.9,227.8,52.9,226.4Z" transform="translate(0 -0.6)"/><path class="cls-20" d="M73,226.4l.2-1.7s0-1.2-.7-1.4a1.5,1.5,0,0,0-1.3.4l-.4.5s-.1.3-1.2.3Z" transform="translate(0 -0.6)"/><path class="cls-20" d="M59.5,218.5c-3.3,1.5-5,5.6-5.1,5.9s9.5-.3,9.5-.3-2.7-1.1-3.2-2.6a15.1,15.1,0,0,1-.3-3.1A1.6,1.6,0,0,0,59.5,218.5Z" transform="translate(0 -0.6)"/><path class="cls-9" d="M61.3,210.9,74.8,214v-2.3l-12.6-2.8Z" transform="translate(0 -0.6)"/><path class="cls-9" d="M63.1,209l11.2,2.6a.9.9,0,0,0-.7-1l-9.5-2.2A.9.9,0,0,0,63.1,209Z" transform="translate(0 -0.6)"/><path class="cls-9" d="M65.9,209.2l1.5-9.6h-.7l-1.6,9.6Z" transform="translate(0 -0.6)"/><path class="cls-30" d="M44.2,236.8c1-8.4,5-14.6,9.1-14.1a3.9,3.9,0,0,1,2.2.9,4.4,4.4,0,0,0-1.1.8,5,5,0,0,0-1.3-.4h-.3c-3.1,0-6.4,5.8-7.2,12.9s1.1,13.9,4.3,14.3,6.7-5.5,7.5-12.9a24.4,24.4,0,0,0,0-5.4l1.4.2a48.6,48.6,0,0,1,0,5.4c-.9,8.1-4.7,14.1-8.6,14.1h-.5C45.6,252.1,43.2,245.2,44.2,236.8Z" transform="translate(0 -0.6)"/><path class="cls-30" d="M42.1,236.5c1-8.4,6.3-14.3,10.4-13.8a4,4,0,0,1,2.2,1c-.4.1-.5.3-.8.5H52c-3.1,0-7.7,5.4-8.5,12.5s1.1,13.9,4.3,14.3,6.7-5.5,7.6-12.9a33.2,33.2,0,0,0,.3-5.4,3.4,3.4,0,0,0,1.4.2,33.5,33.5,0,0,1-.4,5.4c-.9,8.1-4.7,14.1-8.6,14.1h-.4C43.5,251.8,41.1,244.9,42.1,236.5Z" transform="translate(0 -0.6)"/><path class="cls-30" d="M22.7,285.8l43.6,5L70,239l-39.2-4.5Z" transform="translate(0 -0.6)"/><rect class="cls-9" x="415" y="75.4" width="142" height="91" rx="7"/><path class="cls-31" d="M199.3,159.2c.1.1,14.5,26.4,18.8,31.3a35.8,35.8,0,0,0,2.6,2.9c8.8-1.8,27.4-10.8,30.7-12.4s7.7,4,4.5,6.4c-5.8,4.3-11.8,7.8-17.7,12.1-9,6.7-19,8.2-22.4,8.1l-1-.2c-9.3-7.1-20.6-24.2-21.4-25.6C179.6,158.3,193.1,149.9,199.3,159.2Z" transform="translate(0 -0.6)"/><path class="cls-21" d="M199.3,159.2l2.8,5.1c-2.1-.2-3.9,1.5-3.5,4.1a37.6,37.6,0,0,0,1.7,6.8c2,9.4,5.7,19.9,14.2,24.1s15,0,21.9-3.1a162.2,162.2,0,0,1,15.6-6c-4.6,3.1-9.3,6-13.8,9.3-9,6.7-19,8.2-22.4,8.1l-1-.2c-9.3-7.1-20.6-24.2-21.4-25.6C179.6,158.3,193.1,149.9,199.3,159.2Z" transform="translate(0 -0.6)"/><path class="cls-32" d="M197,188.1c-2.1-3.3-3.3-5.8-3.6-6.3-13.8-23.5-.3-31.9,5.9-22.6,0,0,6.5,11.8,12,21.1A36.5,36.5,0,0,1,197,188.1Z" transform="translate(0 -0.6)"/><path class="cls-31" d="M253.5,166.7c.1-.6,3.6-.2,2.5,4.4a3.8,3.8,0,0,0,2,4.6,26.2,26.2,0,0,1,3.6.6c.8.4,2.9,6.1,1.8,7.7s-7,6.1-9.9,5.2-5.8-6.4-5.8-6.4a77.2,77.2,0,0,1,4-7.3C252.7,174.1,253.5,167.4,253.5,166.7Z" transform="translate(0 -0.6)"/><path class="cls-31" d="M256.5,178.5c.7-.6,3.1-1.4,1.4-1.5a12.4,12.4,0,0,0,4.3-.5c.8.8,2.4,5.6,1.5,6.9a7.4,7.4,0,0,1-2.2,1.9c-2.5-1-5.8-2.5-6.4-5.1C255.2,180.5,255.5,179.4,256.5,178.5Z" transform="translate(0 -0.6)"/><path class="cls-31" d="M256,174.1l8.5-.4a2,2,0,0,1,2.1,1.9,2,2,0,0,1-2,2H258a1.9,1.9,0,0,1-2-1.9C256,174.8,254.9,174.1,256,174.1Z" transform="translate(0 -0.6)"/><path class="cls-31" d="M258.8,176.7l6.6-.2a2,2,0,1,1,0,3.9h-6.5a1.9,1.9,0,0,1-2.1-1.8A2,2,0,0,1,258.8,176.7Z" transform="translate(0 -0.6)"/><path class="cls-31" d="M260.5,180l5.7-.6a1.8,1.8,0,0,1,1.9,1.5,1.8,1.8,0,0,1-1.7,1.8l-5.7.6a1.8,1.8,0,0,1-1.9-1.5A1.8,1.8,0,0,1,260.5,180Z" transform="translate(0 -0.6)"/><path class="cls-31" d="M261.5,183.6l4.2-1.2a1.6,1.6,0,0,1,1.7,1.3,1.3,1.3,0,0,1-1,1.6l-4.4.9a1.3,1.3,0,0,1-1.6-1A1.5,1.5,0,0,1,261.5,183.6Z" transform="translate(0 -0.6)"/><path class="cls-33" d="M169,394.5c-1.2,0-6.5-3.8-8.6-8.6l-9.7-1.1s-2,4.6-2.1,13.2c0,0,.6,2.2,8.7,1.2,3.3-.3,10.1,2.1,16.2-1.8C173.5,397.4,173.8,394.5,169,394.5Z" transform="translate(0 -0.6)"/><path class="cls-33" d="M208.2,394.5c-4.8-.3-12.4-5.3-13-8.6l-9.7-1.1s-2,4.6-2.1,13.2c0,0,.6,2.2,8.7,1.2,3.3-.3,14.5,2.1,20.7-1.8C212.8,397.4,213,394.9,208.2,394.5Z" transform="translate(0 -0.6)"/><path class="cls-34" d="M199.1,267.1c-.3-9.3-.7-18.5-1.1-25.4s-.6-11.6-.6-11.6a17.7,17.7,0,0,0-.5-3.2,17.2,17.2,0,0,0-33.3,8.3h0s1.1,4.5,2.8,11,4.1,13.2,5.5,22.1c9.1,57.1,7.7,58.8,13.1,118.1,0,0,4,3.4,10.6,0,0,0,3.3-57.4,3.3-64.7C198.8,295.1,199.5,276.3,199.1,267.1Z" transform="translate(0 -0.6)"/><path class="cls-35" d="M146.2,242.4c-2.3,17.8,4.3,55,2.8,73.7s.7,70.5.7,70.5,4,2.4,11.2-.4c0,0,7.9-59.7,10-71s5.3-67.9,5.3-67.9S147.2,235,146.2,242.4Z" transform="translate(0 -0.6)"/><path class="cls-36" d="M146.1,242.5s4.2,8.4,28.1,7.1c15.2-.8,24.4-5,24.4-5s-.2-14.7-.2-30.6c-.1-7.6-1.3-14.7.4-25,2.3-13.1,3.3-24.9-.7-31.5,0,0-8.7-11.6-28.8-11.2-12.1.3-30,10-29,17.2C142.4,179.1,153.1,191.4,146.1,242.5Z" transform="translate(0 -0.6)"/><path class="cls-31" d="M173,154.2a7,7,0,0,0,5.3-7.6L177,132.7l-14.3,1.4,1.4,13.9a7.2,7.2,0,0,0,7.8,6.4Z" transform="translate(0 -0.6)"/><g class="cls-37"><path class="cls-38" d="M172.6,146.8l-.5-.2c-5.3-2.4-6.8-7.6-8.8-12.6l13.7-1.3,1.2,13A46.3,46.3,0,0,1,172.6,146.8Z" transform="translate(0 -0.6)"/></g><path class="cls-31" d="M177.4,109.4s9.4,21.9,4.9,29.9c-2.8,5.2-14.2,6.8-20.3,1.9s-8.1-19.7-8.1-19.7Z" transform="translate(0 -0.6)"/><path class="cls-22" d="M160.1,140a32.2,32.2,0,0,1-6.7-10.2s-4.9-13.3,1.1-18.4c3.6-3.2,20.1-6.6,24.8-8.4.6-.2,2.9,3.7.6,10.3-1.2,3.2-17.9,6.2-17.6,7.9s.7,4.6.7,4.6l-1.9,3.4s-3.1-4.2-3.1.4a5.5,5.5,0,0,0,2.5,5.1c.6.3,2.7,7.8,2.7,7.8Z" transform="translate(0 -0.6)"/><path class="cls-31" d="M178,228.8c.2-2.8,4-5.8,1.3-6.7s-24.2-9.8-33.5-14c.8-10.3,3-26.6,6.9-36,1.4-3.3,1.3-5.2-.3-8.9a6.8,6.8,0,0,0-9.7-3.4c-3.1,1.9-5.1,7.1-6.1,10.3-1.6,4.9-2,9.4-3,14.4-1.7,9.1-3,20.7-2,29.9a5.2,5.2,0,0,0,1,3.6,5.8,5.8,0,0,0,2.6,2.3,39.1,39.1,0,0,0,6.4,2.4,94.4,94.4,0,0,0,12.7,3.2,177.8,177.8,0,0,0,23.1,2.9Z" transform="translate(0 -0.6)"/><path class="cls-21" d="M133.6,184.5c1-5,1.4-9.5,3-14.4,1-3.2,3.1-8.4,6.1-10.3a6.8,6.8,0,0,1,9.7,3.4c1.6,3.7,1.8,5.6.4,8.9a55.1,55.1,0,0,0-3.1,9.9,3.2,3.2,0,0,0-3.3,2.1,8.3,8.3,0,0,0-4.8-3.9c-1.6-.4-3.8.6-4.1,2.4v.2a2.6,2.6,0,0,0-1.8,2.2c-2,10.7-9.2,31.1,14.2,37.3,5.9,1.6,16.6,4.8,22.4,6.1a152.8,152.8,0,0,1-18-2.5,89.4,89.4,0,0,1-12.6-3.2,40,40,0,0,1-6.5-2.4,6.1,6.1,0,0,1-3.5-5.9C130.6,205.2,131.9,193.6,133.6,184.5Z" transform="translate(0 -0.6)"/><path class="cls-39" d="M150.3,187a75.3,75.3,0,0,1,4.1-14c1.6-3.8,1.4-6-.4-10.2a7.8,7.8,0,0,0-11.1-3.8c-3.5,2.1-5.8,8.1-7,11.7s-2.1,9.5-3,14.4C138.7,185.9,144.5,186.6,150.3,187Z" transform="translate(0 -0.6)"/><path class="cls-26" d="M171.6,135.4l9.1-2.9S179,142.5,171.6,135.4Z" transform="translate(0 -0.6)"/><path class="cls-31" d="M176.5,222l14.3-3.3,9.4,6.8,2.1,6.5-14.5-2.9s-6,3.6-14.8-2.3C173,226.8,172.1,222.6,176.5,222Z" transform="translate(0 -0.6)"/><path class="cls-40" d="M245.1,247.7v41.6h41.6V247.8Z" transform="translate(0 -0.6)"/><path class="cls-41" d="M243.8,247.2v8.2H288v-8.2Z" transform="translate(0 -0.6)"/><path class="cls-42" d="M261.4,247.6v41.9h8.2V247.6Z" transform="translate(0 -0.6)"/><path class="cls-42" d="M267,243.6v4.1h9.6s3.4,0,3.8-4C281.6,234.1,279.1,227.9,267,243.6Z" transform="translate(0 -0.6)"/><path class="cls-42" d="M250.5,243.5c.4,4,3.8,4,3.8,4h9.6v-4C252.2,227.7,249.6,233.9,250.5,243.5Z" transform="translate(0 -0.6)"/><path class="cls-42" d="M266.8,242.2h-2.5a1.4,1.4,0,0,0-1.4,1.4v2.9a1.5,1.5,0,0,0,1.4,1.4h2.5a1.4,1.4,0,0,0,1.4-1.4v-2.9A1.4,1.4,0,0,0,266.8,242.2Z" transform="translate(0 -0.6)"/><path class="cls-18" d="M320.7,268.2A12.2,12.2,0,0,1,308.5,256V233.8c0-6.6,5.1-19.4,12.2-19.4S333,227.2,333,233.8V256A12.3,12.3,0,0,1,320.7,268.2Zm0-50.8c-4.5,0-9.2,10.7-9.2,16.4V256a9.3,9.3,0,0,0,18.5,0V233.8C330,228.1,325.2,217.4,320.7,217.4Z" transform="translate(0 -0.6)"/><path class="cls-2" d="M351.2,233.5H290.3v75.3h60.9Z" transform="translate(0 -0.6)"/><path class="cls-43" d="M362.4,270.7H274.2v66.6h88.2Z" transform="translate(0 -0.6)"/><path class="cls-44" d="M323.4,270.7H313.2v66.6h10.2Z" transform="translate(0 -0.6)"/><path class="cls-45" d="M287.5,290.5H242.4v47.4h45.1Z" transform="translate(0 -0.6)"/><path class="cls-41" d="M281.5,296.4h-33v5.1h33Z" transform="translate(0 -0.6)"/><path class="cls-46" d="M365.1,310.4H317.7v26.9h47.4Z" transform="translate(0 -0.6)"/><path class="cls-18" d="M365.1,310.4H317.7v6.2h47.4Z" transform="translate(0 -0.6)"/><path class="cls-18" d="M281.4,310.1H249.1v20h32.3Z" transform="translate(0 -0.6)"/><path class="cls-41" d="M378.8,264.8,225,257.5,222.1,239a2.5,2.5,0,0,0-1.5-1.8L196,227.9a2.3,2.3,0,0,0-3,1.3,2.4,2.4,0,0,0,1.4,3l23.3,8.9,3.1,18.9h0l12.9,80.8a2.4,2.4,0,0,0,2.3,1.9H364.8a8.1,8.1,0,0,0,8-7.2l8.2-68.2a2.4,2.4,0,0,0-.5-1.8A2.1,2.1,0,0,0,378.8,264.8ZM368.2,335a3.5,3.5,0,0,1-3.4,3.2H237.9l-12.1-76.1,150.3,7.2Z" transform="translate(0 -0.6)"/><path class="cls-41" d="M376.7,283l-150.4-4.7a1.4,1.4,0,0,0-1.4,1.4,1.3,1.3,0,0,0,1.3,1.4l150.4,4.7h0a1.3,1.3,0,0,0,1.4-1.3A1.5,1.5,0,0,0,376.7,283Z" transform="translate(0 -0.6)"/><path class="cls-41" d="M374.2,302.7l-144.4-2.6h0a1.4,1.4,0,0,0-1.4,1.4,1.5,1.5,0,0,0,1.4,1.4l144.4,2.5h0a1.3,1.3,0,0,0,1.4-1.3A1.4,1.4,0,0,0,374.2,302.7Z" transform="translate(0 -0.6)"/><path class="cls-41" d="M372,319.7H232.9a1.4,1.4,0,0,0-1.4,1.4,1.4,1.4,0,0,0,1.4,1.4H372a1.4,1.4,0,0,0,1.4-1.4A1.5,1.5,0,0,0,372,319.7Z" transform="translate(0 -0.6)"/><path class="cls-41" d="M247.8,259.6a1.4,1.4,0,0,0-1.2,1.5l7.8,79.5a1.3,1.3,0,0,0,1.3,1.3h.2a1.4,1.4,0,0,0,1.2-1.5l-7.8-79.5A1.4,1.4,0,0,0,247.8,259.6Z" transform="translate(0 -0.6)"/><path class="cls-41" d="M276.6,261.1a1.4,1.4,0,0,0-1.4,1.4l3.6,78.1a1.5,1.5,0,0,0,1.4,1.3h.1a1.4,1.4,0,0,0,1.3-1.5l-3.6-78A1.3,1.3,0,0,0,276.6,261.1Z" transform="translate(0 -0.6)"/><path class="cls-41" d="M301.1,262.4a1.4,1.4,0,0,0-1.4,1.3V339a1.4,1.4,0,0,0,1.4,1.4,1.4,1.4,0,0,0,1.4-1.4V263.7A1.3,1.3,0,0,0,301.1,262.4Z" transform="translate(0 -0.6)"/><path class="cls-41" d="M326.1,263.7a1.3,1.3,0,0,0-1.4,1.3l-4.1,75.4a1.5,1.5,0,0,0,1.3,1.5h.1a1.5,1.5,0,0,0,1.4-1.3l4-75.5A1.3,1.3,0,0,0,326.1,263.7Z" transform="translate(0 -0.6)"/><path class="cls-41" d="M354.4,264.7a1.4,1.4,0,0,0-1.5,1.2l-7.3,74.5a1.4,1.4,0,0,0,1.2,1.5h.2a1.3,1.3,0,0,0,1.3-1.3l7.4-74.4A1.5,1.5,0,0,0,354.4,264.7Z" transform="translate(0 -0.6)"/><path class="cls-41" d="M363.4,363.6H230.9a2.3,2.3,0,0,1-1.9-1,2.1,2.1,0,0,1-.4-2l8.9-19.1a2.4,2.4,0,0,0-1.1-3.1,2.4,2.4,0,0,0-3.1,1.1l-9,19.3c0,.1-.1.2-.1.3a7.1,7.1,0,0,0,6.7,9.1H363.4a2.3,2.3,0,1,0,0-4.6Z" transform="translate(0 -0.6)"/><path class="cls-33" d="M258.6,399.8a12.3,12.3,0,0,0,0-24.6,12.3,12.3,0,0,0,0,24.6Z" transform="translate(0 -0.6)"/><path class="cls-41" d="M251.4,383.6a7.2,7.2,0,0,0,7.2,7.2,7.3,7.3,0,0,0,7.3-7.2V365.9H251.4v17.7Z" transform="translate(0 -0.6)"/><path class="cls-33" d="M354.1,399.8a12.3,12.3,0,1,0-12.2-12.3A12.3,12.3,0,0,0,354.1,399.8Z" transform="translate(0 -0.6)"/><path class="cls-41" d="M346.9,383.6a7.2,7.2,0,0,0,7.2,7.2,7.3,7.3,0,0,0,7.3-7.2V365.9H346.9Z" transform="translate(0 -0.6)"/><path class="cls-41" d="M193.7,235.9a5.3,5.3,0,1,0-5.3-5.2A5.3,5.3,0,0,0,193.7,235.9Z" transform="translate(0 -0.6)"/><path class="cls-47" d="M513.1,87.6H458.8v60.3h54.3Z" transform="translate(0 -0.6)"/><path class="cls-6" d="M513.1,87.6H458.8v15.1h54.3Z" transform="translate(0 -0.6)"/><path class="cls-19" d="M487.4,136.8c10.2,0,18.4-5.1,18.4-11.4S497.6,114,487.4,114s-18.3,5.1-18.3,11.4S477.3,136.8,487.4,136.8Z" transform="translate(0 -0.6)"/><path class="cls-18" d="M527.8,117.4l7.5-4.2,3.7,7.9,8.5,1.1-1.6,8.6,6.2,6-6.2,6,1.6,8.5-8.5,1.1-3.7,7.9-7.5-4.2-7.5,4.2-3.7-7.9-8.5-1.1,1.6-8.5-6.2-6,6.2-6-1.6-8.6,8.5-1.1,3.7-7.9Z" transform="translate(0 -0.6)"/></svg>