<svg id="Layer_1" data-name="Layer 1" xmlns="http://www.w3.org/2000/svg" viewBox="0 0 928 543"><defs><style>.cls-1{fill:#e3f7fa;}.cls-2{fill:#001445;}</style></defs><title>vertical_outdoor_screen</title><rect class="cls-1" x="10" y="10.5" width="908" height="522"/><path class="cls-2" d="M918-.25H10a10,10,0,0,0-10,10v523a10,10,0,0,0,10,10H918a10,10,0,0,0,10-10V9.75A10,10,0,0,0,918-.25ZM870.5,530a7.5,7.5,0,1,1,7.5-7.5A7.5,7.5,0,0,1,870.5,530ZM909,493a12,12,0,0,1-12,12H30a12,12,0,0,1-12-12V28A12,12,0,0,1,30,16H897a12,12,0,0,1,12,12Z" transform="translate(0 0.25)"/></svg>