<svg id="Layer_1" data-name="Layer 1" xmlns="http://www.w3.org/2000/svg" xmlns:xlink="http://www.w3.org/1999/xlink" viewBox="0 0 935.3 513.6"><defs><style>.cls-1{fill:url(#linear-gradient);}.cls-2{fill:#aed3ff;}.cls-3{fill:url(#linear-gradient-2);}.cls-4{fill:url(#linear-gradient-3);}.cls-5{fill:url(#linear-gradient-4);}.cls-6{fill:#d2e4ff;}.cls-7{fill:#739af0;}.cls-8{fill:#2a4e96;}.cls-9{fill:#f99746;}.cls-10{fill:#9ec7ef;}.cls-11{fill:url(#linear-gradient-5);}.cls-12{fill:url(#linear-gradient-6);}.cls-13{fill:#82b378;}.cls-14{fill:url(#linear-gradient-7);}.cls-15{fill:url(#linear-gradient-8);}.cls-16{fill:url(#linear-gradient-9);}.cls-17{fill:url(#linear-gradient-10);}.cls-18{fill:#ffb27d;}.cls-19{fill:#ed975d;}.cls-20{fill:#a9453d;}.cls-21{fill:url(#linear-gradient-11);}.cls-22{fill:url(#linear-gradient-12);}.cls-23{fill:#fff;}.cls-24{fill:#001464;}.cls-25{fill:#001445;}.cls-26{fill:#83dbe7;}.cls-27{fill:#c8f0f5;}.cls-28{fill:#47cfe1;}.cls-29{fill:#9de2eb;}.cls-30{fill:url(#linear-gradient-13);}.cls-31{fill:#ed7d2b;}.cls-32{fill:url(#linear-gradient-14);}.cls-33{fill:#233862;}.cls-34{fill:url(#linear-gradient-15);}.cls-35{fill:#2c3a64;}.cls-36{fill:url(#linear-gradient-16);}.cls-37{fill:url(#linear-gradient-17);}.cls-38{fill:url(#linear-gradient-18);}.cls-39{fill:#98c6f4;}.cls-40{fill:#1c468a;}.cls-41{fill:#89bde8;}</style><linearGradient id="linear-gradient" x1="475.13" y1="330.08" x2="475.13" y2="512" gradientTransform="matrix(1, 0, 0, -1, 0, 513.89)" gradientUnits="userSpaceOnUse"><stop offset="0" stop-color="#0057d0"/><stop offset="1" stop-color="#00c5ff"/></linearGradient><linearGradient id="linear-gradient-2" x1="442.44" y1="375.77" x2="463.57" y2="355.65" gradientTransform="matrix(1, 0, 0, -1, 0, 513.89)" gradientUnits="userSpaceOnUse"><stop offset="0.03" stop-color="#f50000"/><stop offset="0.6" stop-color="#0500c8"/><stop offset="0.69" stop-color="#0539d8"/><stop offset="0.83" stop-color="#0585ed"/><stop offset="0.92" stop-color="#05b6fa"/><stop offset="0.97" stop-color="#05c8ff"/></linearGradient><linearGradient id="linear-gradient-3" x1="522.26" y1="444.66" x2="430.93" y2="376.16" xlink:href="#linear-gradient-2"/><linearGradient id="linear-gradient-4" x1="521.53" y1="445.64" x2="430.19" y2="377.14" xlink:href="#linear-gradient-2"/><linearGradient id="linear-gradient-5" x1="200.76" y1="81.84" x2="277.05" y2="81.84" gradientTransform="matrix(1, 0, 0, -1, 0, 513.89)" gradientUnits="userSpaceOnUse"><stop offset="0" stop-color="#00b1ff"/><stop offset="0.2" stop-color="#00b1ff"/><stop offset="0.65" stop-color="#00dad7"/><stop offset="0.9" stop-color="#00edc5"/><stop offset="1" stop-color="#00edc5"/></linearGradient><linearGradient id="linear-gradient-6" x1="209.87" y1="75.69" x2="282.32" y2="75.69" xlink:href="#linear-gradient-5"/><linearGradient id="linear-gradient-7" x1="333.96" y1="130.07" x2="411.85" y2="130.07" xlink:href="#linear-gradient-5"/><linearGradient id="linear-gradient-8" x1="161.58" y1="175.45" x2="307.95" y2="175.45" xlink:href="#linear-gradient-5"/><linearGradient id="linear-gradient-9" x1="179.15" y1="160.88" x2="304.22" y2="160.88" xlink:href="#linear-gradient-5"/><linearGradient id="linear-gradient-10" x1="558.94" y1="348.85" x2="558.94" y2="217.75" xlink:href="#linear-gradient-5"/><linearGradient id="linear-gradient-11" x1="501.5" y1="348.85" x2="501.5" y2="217.75" xlink:href="#linear-gradient-5"/><linearGradient id="linear-gradient-12" x1="609.77" y1="348.85" x2="609.77" y2="217.75" xlink:href="#linear-gradient-5"/><linearGradient id="linear-gradient-13" x1="382.36" y1="243.15" x2="373.23" y2="224.12" gradientTransform="matrix(1, 0, 0, -1, 0, 513.89)" gradientUnits="userSpaceOnUse"><stop offset="0" stop-color="#ff6c00"/><stop offset="1" stop-color="red"/></linearGradient><linearGradient id="linear-gradient-14" x1="243.98" y1="280.09" x2="291.75" y2="280.09" gradientTransform="matrix(1, 0, 0, -1, 0, 513.89)" gradientUnits="userSpaceOnUse"><stop offset="0" stop-color="#0057d0"/><stop offset="0.1" stop-color="#0057d0"/><stop offset="0.39" stop-color="#0083e3"/><stop offset="0.73" stop-color="#00b3f7"/><stop offset="0.9" stop-color="#00c5ff"/><stop offset="1" stop-color="#00c5ff"/></linearGradient><linearGradient id="linear-gradient-15" x1="251.97" y1="119.13" x2="308.62" y2="119.13" gradientTransform="matrix(1, 0, 0, -1, 0, 513.89)" gradientUnits="userSpaceOnUse"><stop offset="0" stop-color="#4b0080"/><stop offset="0.1" stop-color="#4b0080"/><stop offset="0.9" stop-color="#0050e8"/><stop offset="1" stop-color="#0050e8"/></linearGradient><linearGradient id="linear-gradient-16" x1="252.35" y1="127.44" x2="342.84" y2="127.44" xlink:href="#linear-gradient-15"/><linearGradient id="linear-gradient-17" x1="217.98" y1="294.3" x2="305.26" y2="272.99" xlink:href="#linear-gradient-14"/><linearGradient id="linear-gradient-18" x1="200.43" y1="294.29" x2="345.54" y2="288.2" xlink:href="#linear-gradient-14"/></defs><path class="cls-1" d="M606.2,185.8H344.1a27.3,27.3,0,0,1-27.3-27.3V27.4A27.2,27.2,0,0,1,344.1.2H606.2a27.2,27.2,0,0,1,27.2,27.2V158.5A27.2,27.2,0,0,1,606.2,185.8Z" transform="translate(-0.3 -0.2)"/><path class="cls-2" d="M435.7,151.5a3.3,3.3,0,0,1,0-4.7l26.4-26.4a5.4,5.4,0,0,0,0-7.6L404,54.7a12.1,12.1,0,0,1,0-17.1l19.9-19.9a12.1,12.1,0,0,1,17.1,0l24.1,24.1a3.4,3.4,0,0,1,0,4.8,3.3,3.3,0,0,1-4.7,0L436.2,22.5a5.3,5.3,0,0,0-7.5,0L408.8,42.3a5.4,5.4,0,0,0,0,7.6L466.9,108a12.1,12.1,0,0,1,0,17.1l-26.4,26.4A3.4,3.4,0,0,1,435.7,151.5Z" transform="translate(-0.3 -0.2)"/><path class="cls-3" d="M429,162.6l-5.4-5.4a6.1,6.1,0,0,1,0-8.5l29.5-29.6a6.2,6.2,0,0,1,8.6,0l5.4,5.4a6.2,6.2,0,0,1,0,8.6l-29.6,29.5A5.9,5.9,0,0,1,429,162.6Z" transform="translate(-0.3 -0.2)"/><path class="cls-4" d="M569,131.8l-18.6,18.7a12.4,12.4,0,0,1-17.6,0L436,53.8a12.6,12.6,0,0,1,0-17.6l18.7-18.7a12.4,12.4,0,0,1,17.6,0L569,114.2A12.4,12.4,0,0,1,569,131.8Z" transform="translate(-0.3 -0.2)"/><path class="cls-5" d="M569,131.8l-6.4,6.5a12.5,12.5,0,0,1-17.6-.1L448.3,41.5a12.4,12.4,0,0,1,0-17.6l6.4-6.4a12.4,12.4,0,0,1,17.6,0L569,114.2A12.4,12.4,0,0,1,569,131.8Z" transform="translate(-0.3 -0.2)"/><path class="cls-6" d="M.3,513.7H10V79.1H.3Z" transform="translate(-0.3 -0.2)"/><path class="cls-6" d="M213.1,513.7h9.7V79.1h-9.7Z" transform="translate(-0.3 -0.2)"/><path class="cls-6" d="M4.1,87.2H220.5V79.1H4.1Z" transform="translate(-0.3 -0.2)"/><path class="cls-6" d="M4.1,177.3H220.5v-8.1H4.1Z" transform="translate(-0.3 -0.2)"/><path class="cls-6" d="M4.1,267.4H220.5v-8.1H4.1Z" transform="translate(-0.3 -0.2)"/><path class="cls-6" d="M4.1,357.5H220.5v-8.1H4.1Z" transform="translate(-0.3 -0.2)"/><path class="cls-6" d="M27,132.4,99.4,108l6.6,21.5L24.8,148.6Z" transform="translate(-0.3 -0.2)"/><path class="cls-7" d="M116.3,100.7l-15.7,4.2a4,4,0,0,0-2.8,4.9l5.1,19.2a4,4,0,0,0,4.9,2.8l15.7-4.2a4.1,4.1,0,0,0,2.9-4.9l-5.2-19.2A4,4,0,0,0,116.3,100.7Zm6.8,20.5a3.2,3.2,0,0,1-2.2,3.8l-12.1,3.2A3.1,3.1,0,0,1,105,126l-3.9-14.7a3.1,3.1,0,0,1,2.1-3.8l12.1-3.2a3,3,0,0,1,3.8,2.1Z" transform="translate(-0.3 -0.2)"/><path class="cls-8" d="M125.8,127a2.8,2.8,0,0,1-3.4-2l-5.8-21.4a2.9,2.9,0,1,1,5.5-1.5l5.7,21.4A2.9,2.9,0,0,1,125.8,127Z" transform="translate(-0.3 -0.2)"/><path class="cls-6" d="M104.6,140.5,177,116.1l6.6,21.5-81.2,19.1Z" transform="translate(-0.3 -0.2)"/><path class="cls-7" d="M193.9,108.8,178.2,113a4,4,0,0,0-2.8,4.9l5.1,19.1a4,4,0,0,0,4.9,2.8l15.7-4.2a4,4,0,0,0,2.9-4.9l-5.2-19.1A3.9,3.9,0,0,0,193.9,108.8Zm6.8,20.5a3.1,3.1,0,0,1-2.2,3.7l-12.1,3.3a3.2,3.2,0,0,1-3.8-2.2l-3.9-14.7a3,3,0,0,1,2.2-3.8l12-3.3a3.1,3.1,0,0,1,3.8,2.2Z" transform="translate(-0.3 -0.2)"/><path class="cls-8" d="M203.4,135a2.8,2.8,0,0,1-3.4-2l-5.8-21.4a2.8,2.8,0,0,1,2-3.4,2.8,2.8,0,0,1,3.5,1.9l5.7,21.5A2.8,2.8,0,0,1,203.4,135Z" transform="translate(-0.3 -0.2)"/><path class="cls-2" d="M142.2,202.7l-7,2.4,10.3,30.1,7.1-2.4Z" transform="translate(-0.3 -0.2)"/><path class="cls-2" d="M140.6,192h0a5.6,5.6,0,0,1-3.2,6.9,5.8,5.8,0,0,1-7.5-3.4h0a1.1,1.1,0,0,0-2.1.2,8.4,8.4,0,0,0,.6,4.9,8.7,8.7,0,0,0,16.3-6.3,8.6,8.6,0,0,0-2.3-3.5A1.1,1.1,0,0,0,140.6,192Z" transform="translate(-0.3 -0.2)"/><path class="cls-2" d="M156.7,239.1h0a5.6,5.6,0,0,0-10.6,3.8h0a1.1,1.1,0,0,1-1.7,1.2,9.1,9.1,0,0,1-2.6-4.2,8.8,8.8,0,0,1,16.8-5.1,10,10,0,0,1,.3,4.2A1.1,1.1,0,0,1,156.7,239.1Z" transform="translate(-0.3 -0.2)"/><path class="cls-2" d="M186.7,204l-6.4,2.2,9.4,27.4,6.4-2.2Z" transform="translate(-0.3 -0.2)"/><path class="cls-2" d="M185.2,194.3h0a5.1,5.1,0,0,1-9.7,3.2h0a1,1,0,0,0-1.9.1,7.1,7.1,0,0,0,.5,4.5,7.9,7.9,0,0,0,14.8-5.7,7.5,7.5,0,0,0-2.1-3.2A1,1,0,0,0,185.2,194.3Z" transform="translate(-0.3 -0.2)"/><path class="cls-2" d="M199.9,237.1h-.1a5.2,5.2,0,0,0-6.2-3.1,5.1,5.1,0,0,0-3.4,6.6h0a1,1,0,0,1-1.6,1.1,7.7,7.7,0,0,1-2.3-3.9,7.8,7.8,0,0,1,4.6-9.3,7.9,7.9,0,0,1,10.6,4.7,8.6,8.6,0,0,1,.3,3.9A1,1,0,0,1,199.9,237.1Z" transform="translate(-0.3 -0.2)"/><path class="cls-2" d="M46.6,190.6,63,246.2a4,4,0,0,1-2.8,5h-.1a4,4,0,0,1-5-2.8L38.7,192.9a4,4,0,0,1,2.8-5h.1A4,4,0,0,1,46.6,190.6Z" transform="translate(-0.3 -0.2)"/><path class="cls-6" d="M41.6,202.7l-14.9-2.3-1.4-4.6,13.1-3.9Z" transform="translate(-0.3 -0.2)"/><path class="cls-6" d="M56,187.8l-9.4,2.8,2.8,9.4,9.3-2.8Z" transform="translate(-0.3 -0.2)"/><path class="cls-6" d="M62.2,183.4l-6.9,2,4.1,14.2,7-2.1Z" transform="translate(-0.3 -0.2)"/><path class="cls-7" d="M58.4,230.5,63,246.2a4,4,0,0,1-2.8,5h-.1a4,4,0,0,1-5-2.8l-4.6-15.6Z" transform="translate(-0.3 -0.2)"/><path class="cls-2" d="M95.8,197.7l12,40.8a2.9,2.9,0,0,1-2,3.7h0a2.9,2.9,0,0,1-3.7-2l-12-40.8a3,3,0,0,1,2-3.7h0A2.9,2.9,0,0,1,95.8,197.7Z" transform="translate(-0.3 -0.2)"/><path class="cls-6" d="M92.2,206.7l-11-1.8-1-3.3,9.7-2.9Z" transform="translate(-0.3 -0.2)"/><path class="cls-6" d="M102.7,195.7l-6.9,2,2.1,6.9,6.9-2Z" transform="translate(-0.3 -0.2)"/><path class="cls-6" d="M107.3,192.4l-5.1,1.5,3.1,10.4,5.1-1.5Z" transform="translate(-0.3 -0.2)"/><path class="cls-7" d="M104.5,227l3.4,11.5a3,3,0,0,1-2.1,3.7h0a2.9,2.9,0,0,1-3.7-2l-3.4-11.5Z" transform="translate(-0.3 -0.2)"/><path class="cls-6" d="M130.1,277.5,22.9,328.8l6.6,13.9,107.2-51.3Z" transform="translate(-0.3 -0.2)"/><path class="cls-9" d="M24.8,328l-1.9.9,6.6,13.8,1.9-.9Z" transform="translate(-0.3 -0.2)"/><path class="cls-7" d="M131,277l-1.9.9,6.6,13.9,1.9-.9Z" transform="translate(-0.3 -0.2)"/><path class="cls-9" d="M32.9,332.6a2.7,2.7,0,0,1,1.3-3.7,2.6,2.6,0,0,1,3.6,1.3,2.7,2.7,0,0,1-1.3,3.7A2.7,2.7,0,0,1,32.9,332.6Z" transform="translate(-0.3 -0.2)"/><path class="cls-7" d="M120.8,290.5a2.8,2.8,0,0,1,5-2.4,2.8,2.8,0,0,1-1.3,3.7A2.7,2.7,0,0,1,120.8,290.5Z" transform="translate(-0.3 -0.2)"/><path class="cls-7" d="M83.1,300a7.5,7.5,0,0,1-13.3,6.4Z" transform="translate(-0.3 -0.2)"/><path class="cls-6" d="M197.5,278,90.3,329.3,97,343.2l107.2-51.3Z" transform="translate(-0.3 -0.2)"/><path class="cls-7" d="M92.2,328.4l-1.9,1L97,343.2l1.9-.9Z" transform="translate(-0.3 -0.2)"/><path class="cls-7" d="M198.5,277.5l-1.9.9,6.6,13.9,1.9-.9Z" transform="translate(-0.3 -0.2)"/><path class="cls-7" d="M100.3,333.1a2.9,2.9,0,0,1,1.3-3.7,2.7,2.7,0,0,1,3.7,1.3,2.8,2.8,0,0,1-1.3,3.7A2.9,2.9,0,0,1,100.3,333.1Z" transform="translate(-0.3 -0.2)"/><path class="cls-7" d="M188.3,291a2.7,2.7,0,0,1,1.3-3.7,2.8,2.8,0,0,1,3.7,1.3,2.9,2.9,0,0,1-1.4,3.7A2.8,2.8,0,0,1,188.3,291Z" transform="translate(-0.3 -0.2)"/><path class="cls-7" d="M150.6,300.5a7.5,7.5,0,0,1-13.3,6.3Z" transform="translate(-0.3 -0.2)"/><path class="cls-6" d="M73.9,417.9A40.1,40.1,0,1,0,114,458,40.1,40.1,0,0,0,73.9,417.9Zm0,46.7a6.6,6.6,0,1,1,0-13.2,6.6,6.6,0,0,1,0,13.2Z" transform="translate(-0.3 -0.2)"/><path class="cls-2" d="M73.9,422.4A35.6,35.6,0,1,0,109.5,458,35.6,35.6,0,0,0,73.9,422.4Zm0,42.2a6.6,6.6,0,1,1,0-13.2,6.6,6.6,0,0,1,0,13.2Z" transform="translate(-0.3 -0.2)"/><path class="cls-10" d="M73.9,444a14,14,0,1,0,14,14A14,14,0,0,0,73.9,444Zm0,20.6a6.6,6.6,0,1,1,0-13.2,6.6,6.6,0,0,1,0,13.2Z" transform="translate(-0.3 -0.2)"/><path class="cls-6" d="M169.9,431.7a31.6,31.6,0,1,0,31.6,31.5A31.5,31.5,0,0,0,169.9,431.7Zm0,36.8a5.3,5.3,0,1,1,5.2-5.3A5.2,5.2,0,0,1,169.9,468.5Z" transform="translate(-0.3 -0.2)"/><path class="cls-2" d="M169.9,435.2a28.1,28.1,0,1,0,28,28A28,28,0,0,0,169.9,435.2Zm0,33.3a5.3,5.3,0,1,1,5.2-5.3A5.2,5.2,0,0,1,169.9,468.5Z" transform="translate(-0.3 -0.2)"/><path class="cls-10" d="M169.9,452.2a11.1,11.1,0,1,0,11,11A11,11,0,0,0,169.9,452.2Zm0,16.3a5.3,5.3,0,1,1,5.2-5.3A5.2,5.2,0,0,1,169.9,468.5Z" transform="translate(-0.3 -0.2)"/><path class="cls-6" d="M130.1,376.9a25,25,0,1,0,25,24.9A24.9,24.9,0,0,0,130.1,376.9Zm0,29a4.1,4.1,0,1,1,4.2-4.1A4.1,4.1,0,0,1,130.1,405.9Z" transform="translate(-0.3 -0.2)"/><path class="cls-2" d="M130.1,379.6a22.2,22.2,0,1,0,22.2,22.2A22.2,22.2,0,0,0,130.1,379.6Zm0,26.3a4.1,4.1,0,1,1,4.2-4.1A4.1,4.1,0,0,1,130.1,405.9Z" transform="translate(-0.3 -0.2)"/><path class="cls-10" d="M130.1,393.1a8.7,8.7,0,1,0,8.8,8.7A8.7,8.7,0,0,0,130.1,393.1Zm0,12.8a4.1,4.1,0,1,1,4.2-4.1A4.1,4.1,0,0,1,130.1,405.9Z" transform="translate(-0.3 -0.2)"/><path class="cls-11" d="M271.1,435.8s12.8-14.8.8-24.2c0,0-8.7-5.3-15.8-4.9,0,0,10.1,16.9,6.8,18.6s-9.9-19.7-9.9-19.7-19.8-1.9-26.2,1.2c0,0,17,13.9,13.4,14.7s-21.9-12.8-21.9-12.8-18.5,3.2-17.5,14.4,7.3,14.8,10.1,14.5,19.2-6.6,19.6-4.3-9.5,9.8-16.4,10.2c0,0,13,14.3,21.7,10.2s9.4-10.7,14.8-13.2,10-2.5,7.8,0-12,5-15.1,10.5-5.9,9.1,3.1,7.8,23.5-7.9,24.1-15.5S271.1,435.8,271.1,435.8Z" transform="translate(-0.3 -0.2)"/><path class="cls-12" d="M209.9,423.4s50.2-1.9,61.2,12.4a37,37,0,0,0,10,14.1l1.2,3.2s-8.7-9.2-11.8-9.8C270.5,443.3,275.4,425.6,209.9,423.4Z" transform="translate(-0.3 -0.2)"/><path class="cls-13" d="M281.1,449.9s10.8,7.9,11.6,22.2h-2s-3.4-14.7-9.7-20.4S281.1,449.9,281.1,449.9Z" transform="translate(-0.3 -0.2)"/><path class="cls-14" d="M391.6,420.4s-14.2,22.7-31.4,11c0,0-10.5-9.2-12.9-18.7,0,0,26.2,6.2,27.1,1.3s-29.7-4.8-29.7-4.8-10.7-25.1-9.4-34.7c0,0,25.2,16.4,24.8,11.4s-25.8-23.4-25.8-23.4-3.5-25.4,11.6-28.7,22.3,3.5,23.1,7.2-.7,27.8,2.5,27.3,8.8-16.4,6.5-25.6c0,0,24.1,11.1,22.2,24.1s-10.1,16.7-11.1,24.8.9,14,3.3,10.1,1.5-17.7,7.4-24,9.5-11.4,11.5.8-.7,34-10.2,38Z" transform="translate(-0.3 -0.2)"/><path class="cls-13" d="M350.1,345.5s18.1,66.3,41.5,74.9c0,0,10.6.2,22.4,7.3l4.7.2s-15.6-7.6-17.6-11.4C401.1,416.5,379.9,430.1,350.1,345.5Z" transform="translate(-0.3 -0.2)"/><path class="cls-13" d="M414,427.6s14.8,10.8,33.7,5.9l-.6-2.6s-20.6,1.6-30.7-4.2S414,427.6,414,427.6Z" transform="translate(-0.3 -0.2)"/><path class="cls-15" d="M290.2,358.9s30.4-22.9,11.7-45.8c0,0-14.4-13.6-28.1-15.8,0,0,12.1,36.3,5.2,38.1S268.5,294,268.5,294s-36.9-11.9-50.3-8.7c0,0,26.4,33.4,19.3,33.5s-36.2-33.5-36.2-33.5-36.4-1.7-39.2,20.1,7.7,31,13.2,31.6,39.1-4.4,38.8.1-22.1,14.6-35.4,12.4c0,0,18.8,32.7,36.9,28.5s22.3-16.5,33.6-18.9,20-.5,14.7,3.4-24.8,4.4-32.9,13.4-15,14.9,2.6,16.1,47.9-5.2,52.3-19.1Z" transform="translate(-0.3 -0.2)"/><path class="cls-16" d="M179.1,309.7s96.1,17.3,111.1,49.2c0,0,1.6,14.9,13.1,30.8l.9,6.6s-12.7-21.1-18.3-23.4C285.9,372.9,302.5,341.2,179.1,309.7Z" transform="translate(-0.3 -0.2)"/><path class="cls-13" d="M303.3,389.7s17.1,19.6,12.6,46.9l-3.8-.5s-.3-29.3-9.7-42.8S303.3,389.7,303.3,389.7Z" transform="translate(-0.3 -0.2)"/><path class="cls-17" d="M542.8,166s-19.6,4.2-24.2,7.3,1.7,96.7,9.1,127.4h73.2l-5-127.4s-15.3-7.1-26.5-7.3Z" transform="translate(-0.3 -0.2)"/><path class="cls-18" d="M571.4,166.1s-4,6.4-9.7,9a13.5,13.5,0,0,1-19.2-11.4v-2.5c-.1-6.1-.3-9.6-.3-9.6h0c.7-.2,21.7-8.8,21.7-8.1C563.6,160,571.4,166.1,571.4,166.1Z" transform="translate(-0.3 -0.2)"/><path class="cls-19" d="M561.8,147.4c-2,3.8-9,11.1-19.3,13.8-.1-6.1-.3-9.6-.3-9.6h0C542.8,151.5,562.4,146.3,561.8,147.4Z" transform="translate(-0.3 -0.2)"/><path class="cls-18" d="M537.8,151s23.7,5.6,26.9-9.2,8.5-24-6.5-28.1-19.1.8-21.4,5.5S531.8,149.2,537.8,151Z" transform="translate(-0.3 -0.2)"/><path class="cls-20" d="M563.9,145.8c.3.2,5.4,1.8,15.1-17.4a16.7,16.7,0,0,0-1-15.2c-3.5-5.8-16-10.3-26.4-12.3s-12.9,3.9-15.4,9.8-10,11.2-10,11.2c9,5,19.8-2.2,23.5-1s5.1,7.1,5.4,9,.7,3.4,5.4,1.7,2.1,6.7,1.4,8.3C561.9,139.9,561.2,144.1,563.9,145.8Z" transform="translate(-0.3 -0.2)"/><path class="cls-18" d="M478.3,285s-3.7,6.2-5.4,6.3c-3.9.3-10,1.6-11.2,2.4-4.8,3.1-11.8,8.8-11.8,8.8l4.6-.3a4.9,4.9,0,0,0,1.6-.5c1.8-1,6-3.4,6.9-3a37.3,37.3,0,0,0,3.9,1l-7.8.6s-.4,1.5,2.5,1.6,13.3-.3,15.1-2,6.8-11,6.8-11Z" transform="translate(-0.3 -0.2)"/><path class="cls-18" d="M629.9,285s3.7,6.2,5.4,6.3c4,.3,10,1.6,11.2,2.4,4.9,3.1,11.8,8.8,11.8,8.8l-4.5-.3a4.8,4.8,0,0,1-1.7-.5c-1.7-1-6-3.4-6.8-3s-3.9,1-3.9,1l7.7.6s.5,1.5-2.4,1.6-13.3-.3-15.2-2-6.8-11-6.8-11Z" transform="translate(-0.3 -0.2)"/><path class="cls-21" d="M518.6,173.2s-12,6.4-17.8,35.8-28.1,81.2-28.1,81.2,0,2.3,2.9,3.9a9.7,9.7,0,0,0,5.1,1s28.8-36.9,33.8-47.1,15.8-36.4,15.8-36.4Z" transform="translate(-0.3 -0.2)"/><path class="cls-22" d="M595.9,173.2s12,6.4,17.7,35.8,21.8,82.3,21.8,82.3a19.1,19.1,0,0,1-3.2,3c-1,.8-4.9,1.5-4.9,1.5S605,258.2,600,248s-15.8-36.4-15.8-36.4Z" transform="translate(-0.3 -0.2)"/><path class="cls-23" d="M536.7,141.7s.2,2.7,2.1,3.3a7.2,7.2,0,0,0,5.4-1A12.3,12.3,0,0,0,536.7,141.7Z" transform="translate(-0.3 -0.2)"/><path class="cls-23" d="M542.2,192.8h-16V201h16Z" transform="translate(-0.3 -0.2)"/><path class="cls-9" d="M542.2,192.8h-16v1.6h16Z" transform="translate(-0.3 -0.2)"/><path class="cls-24" d="M649,331.5H351.9V512.6H649Z" transform="translate(-0.3 -0.2)"/><path class="cls-25" d="M703.6,300.7H645.9V512.6h57.7Z" transform="translate(-0.3 -0.2)"/><path class="cls-26" d="M626.7,287.6h-79l-11-54.2h78.9Z" transform="translate(-0.3 -0.2)"/><path class="cls-27" d="M618.2,287.6H539.3l-11.1-54.2h79Z" transform="translate(-0.3 -0.2)"/><path class="cls-26" d="M608.1,287.6v13.1H555.2v-16h42.7Z" transform="translate(-0.3 -0.2)"/><path class="cls-27" d="M597.9,284.7H555.2v16h42.7Z" transform="translate(-0.3 -0.2)"/><path class="cls-28" d="M404.1,288.8h27.2l9.3-46H413.4Z" transform="translate(-0.3 -0.2)"/><path class="cls-29" d="M400.6,288.8h27.2l9.3-46H409.9Z" transform="translate(-0.3 -0.2)"/><path class="cls-29" d="M413.4,300.7h11V286.9h-11Z" transform="translate(-0.3 -0.2)"/><path class="cls-28" d="M412.2,269.3h-3.1a1,1,0,0,1-1-1.4l.8-3a1.9,1.9,0,0,1,1.7-1.4h3.1a1,1,0,0,1,1,1.4l-.7,3A1.9,1.9,0,0,1,412.2,269.3Z" transform="translate(-0.3 -0.2)"/><path class="cls-28" d="M419.6,269.3h-3.1a1,1,0,0,1-1-1.4l.8-3a1.9,1.9,0,0,1,1.7-1.4h3.1a1,1,0,0,1,1,1.4l-.7,3A1.9,1.9,0,0,1,419.6,269.3Z" transform="translate(-0.3 -0.2)"/><path class="cls-28" d="M427,269.3h-3a1.1,1.1,0,0,1-1.1-1.4l.8-3a1.9,1.9,0,0,1,1.8-1.4h3a1,1,0,0,1,1,1.4l-.7,3A1.9,1.9,0,0,1,427,269.3Z" transform="translate(-0.3 -0.2)"/><path class="cls-28" d="M410.4,276.3h-3.1a1,1,0,0,1-1-1.3l.8-3.1a1.9,1.9,0,0,1,1.7-1.4h3.1a1,1,0,0,1,1,1.4l-.8,3.1A1.7,1.7,0,0,1,410.4,276.3Z" transform="translate(-0.3 -0.2)"/><path class="cls-28" d="M417.8,276.3h-3.1a1,1,0,0,1-1-1.3l.8-3.1a1.9,1.9,0,0,1,1.7-1.4h3.1a1,1,0,0,1,1,1.4l-.8,3.1A1.7,1.7,0,0,1,417.8,276.3Z" transform="translate(-0.3 -0.2)"/><path class="cls-28" d="M425.2,276.3h-3.1a1,1,0,0,1-1-1.3l.8-3.1a1.9,1.9,0,0,1,1.7-1.4h3.1a1.1,1.1,0,0,1,1.1,1.4L427,275A2,2,0,0,1,425.2,276.3Z" transform="translate(-0.3 -0.2)"/><path class="cls-28" d="M408.6,283.4h-3.1a1,1,0,0,1-1-1.4l.8-3.1a1.9,1.9,0,0,1,1.7-1.3h3.1a1,1,0,0,1,1,1.3l-.8,3.1A1.8,1.8,0,0,1,408.6,283.4Z" transform="translate(-0.3 -0.2)"/><path class="cls-28" d="M416,283.4h-3.1a1,1,0,0,1-1-1.4l.8-3.1a1.9,1.9,0,0,1,1.7-1.3h3.1a1,1,0,0,1,1,1.3l-.7,3.1A2,2,0,0,1,416,283.4Z" transform="translate(-0.3 -0.2)"/><path class="cls-28" d="M423.4,283.4h-3.1a1,1,0,0,1-1-1.4l.8-3.1a1.9,1.9,0,0,1,1.7-1.3h3.1a1,1,0,0,1,1,1.3l-.8,3.1A1.7,1.7,0,0,1,423.4,283.4Z" transform="translate(-0.3 -0.2)"/><path class="cls-28" d="M428,260H412.2a1.5,1.5,0,0,1-1.5-1.9l2.6-9.9a2.7,2.7,0,0,1,2.5-1.9h15.7a1.5,1.5,0,0,1,1.5,1.9l-2.6,9.9A2.8,2.8,0,0,1,428,260Z" transform="translate(-0.3 -0.2)"/><path class="cls-25" d="M703.6,300.7H376.5v30.8H703.6Z" transform="translate(-0.3 -0.2)"/><path class="cls-24" d="M659.9,300.7H329.6v30.8H659.9Z" transform="translate(-0.3 -0.2)"/><path class="cls-30" d="M380.5,281.9l-8.9-3a1.8,1.8,0,0,1-.9-2.9l9.2-13.7a3.3,3.3,0,0,1,3.7-1.3l8.8,3a1.8,1.8,0,0,1,.9,2.9l-9.1,13.7A3.5,3.5,0,0,1,380.5,281.9Z" transform="translate(-0.3 -0.2)"/><path class="cls-8" d="M374.4,279.8l-2.8-.9,12-17.9,2.7.9Z" transform="translate(-0.3 -0.2)"/><path class="cls-31" d="M276.4,300.1c2.1,1.4,6.8,4.6,6.2,5.1s-1.3.4-2.4.2c2,2.3,3.7,4.7,4.9,11.5a4.9,4.9,0,0,1-.8,3.9,2.3,2.3,0,0,1-3.6.6c-3.2-2.5-1.7-2-6.3-5.4s-7.5-8.6-6.8-12.6l-.9-4.7,7-3.4Z" transform="translate(-0.3 -0.2)"/><path class="cls-32" d="M271.9,300.7c4.3-1.4,4.2-3.8,4.2-3.8s-8.8-45.7-9-49.8,20-47.6,20-47.6,8.9-17.1,2.1-25.7-13.7-8.3-20.4-7a20.1,20.1,0,0,0-15.8,16c-3.3,18-9.6,54-9,61.7,1.4,17,21.5,56.6,21.5,56.6A14.8,14.8,0,0,0,271.9,300.7Z" transform="translate(-0.3 -0.2)"/><path class="cls-33" d="M316.3,512.9h-38l-.8-.2c-2.5-1.3-1.7-11-1.4-14a3.1,3.1,0,0,1,.1-.9s13.3-10.7,15.1-2.5a2.4,2.4,0,0,1,.2.8c2.4,7.6,12.7,11.1,18.7,12.1S316,511.6,316.3,512.9Z" transform="translate(-0.3 -0.2)"/><path class="cls-34" d="M308.6,294l-4.4,55.7c-2.4,31.4-5.3,68.3-6.7,88.3-.4,6.4-.7,11-.8,13.3-.7,16.7-3.3,43.4-3.3,43.4s-6.4,6.3-19.1,3.7c0,0-11.3-38.1-14.5-78.4a12.3,12.3,0,0,0-.2-2c-1-13.7-2.1-32.4-3.3-51.2-2.2-37.8-4.3-76.3-4.3-76.3Z" transform="translate(-0.3 -0.2)"/><path class="cls-35" d="M367.8,512.9h-38l-.8-.2c-2.5-1.3-1.8-11-1.5-14a6.2,6.2,0,0,0,.1-.9s13.4-10.7,15.2-2.5a2.4,2.4,0,0,1,.2.8c2.4,7.6,12.7,11.1,18.7,12.1S367.5,511.6,367.8,512.9Z" transform="translate(-0.3 -0.2)"/><path class="cls-36" d="M316.1,293c-.9,3.1,26.7,202.3,26.7,202.3s-6,7-16.9,3.3c0,0-37.4-78.9-32.9-96.3,2.2-8.7-47.8-79.5-39.8-114.7S316.1,293,316.1,293Z" transform="translate(-0.3 -0.2)"/><path class="cls-18" d="M264.5,167.2s12.9,11.6,26.2,4.2c0,0,2-7.7,1.3-13.1l-.3-1.9c-.7-6.1-1-9.5-1-9.5h0c-.7-.2-22.7-5.9-22.6-5.2C270.7,158.1,264.5,167.2,264.5,167.2Z" transform="translate(-0.3 -0.2)"/><path class="cls-19" d="M270.8,145.3c2.5,3.5,10.4,9.8,20.9,11.1-.7-6.1-1-9.5-1-9.5h0C290.1,146.8,270,144.3,270.8,145.3Z" transform="translate(-0.3 -0.2)"/><path class="cls-18" d="M295,145.6s-22.7,8.8-27.9-5.4-11.7-22.7,2.6-28.9,19.1-1.7,22,2.6S300.8,143,295,145.6Z" transform="translate(-0.3 -0.2)"/><path class="cls-35" d="M254.4,113.6c-.2-.2-.7-.3-1.7-.2a3.7,3.7,0,0,1,1.8-.9c0-1.4.3-4.1,2.7-5.1a3,3,0,0,0-1.1,2.5c2.3-3.4,8.1-6.5,25.1-7.8,22.4-1.8,17.4,13.5,14.8,15.7s-10.6-1.4-15.9-.1-5,9.2-6.6,10.5-1.3-.6-3.9-1.3-2.2,3.4-1.1,5.9-1.7,6.5-1.7,6.5l-4-3.1c-3.9-3.1-9.6-18.1-8.6-21.7C254.3,114.2,254.3,113.9,254.4,113.6Z" transform="translate(-0.3 -0.2)"/><path class="cls-37" d="M321.7,304.7a2,2,0,0,1-1.5.6c-5.3.1-20.9,3.4-34.2,2.4-11.1-.8-21.1-3.9-31.8-8.4-1.4-.6-4.7-2.2-4.7-3.8s.1-4.2.3-7.4a391.7,391.7,0,0,0-.5-51.4c-.3-4.1-.5-8.1-.7-12a180.8,180.8,0,0,1,1.4-29.1c2.2-16.5,9.8-29.1,17.3-35,0,0,4.4,1.7,10.1,4.4s9.5,1.1,14.5,0l6,5.7c6.1,5.4,12.9,12.8,16,24.3a17.6,17.6,0,0,1,.7,2.7,159.2,159.2,0,0,1,2.8,17.4c.9,7.8,1.7,16.5,2.3,25.5,0,.5.1,1,.1,1.6.3,4,.5,8.1.7,12.2l.3,4.3c.1,2.2.1,4.3.2,6.5v.2a20.9,20.9,0,0,1,.1,2.5c.1,1.6.2,3.1.2,4.7C322,290.7,322,304.4,321.7,304.7Z" transform="translate(-0.3 -0.2)"/><path class="cls-18" d="M369.5,268.7c2.5-.6,8-1.8,8-1s-.6,1.2-1.5,1.9c3,.1,6,.5,11.7,4.3a5.2,5.2,0,0,1,2.3,3.3,2.2,2.2,0,0,1-2.1,2.9c-4,.7-2.6-.1-8.2,1s-11.4-.5-13.8-3.9l-4.1-2.5,2.4-7.4Z" transform="translate(-0.3 -0.2)"/><path class="cls-38" d="M366.8,272.3c2-4,.2-5.6.2-5.6s-39.2-25.2-42.4-27.8-20.7-47.3-20.7-47.3-6.3-18.2-17.2-19.2c-9.4-.9-15.4,4.3-19.1,10.1a19.8,19.8,0,0,0,.8,22.3c10.8,14.9,32.5,44.3,38.5,49.1,13.3,10.7,55.8,23.4,55.8,23.4A14.9,14.9,0,0,0,366.8,272.3Z" transform="translate(-0.3 -0.2)"/><path class="cls-6" d="M931.7,425.1H715.4v8.2H931.7Z" transform="translate(-0.3 -0.2)"/><path class="cls-2" d="M870.2,245.6a1.3,1.3,0,0,1-1.3-1.4V229.1a2.1,2.1,0,0,0-2.2-2.1H833.5a4.9,4.9,0,0,1-4.9-4.9V210.7a4.9,4.9,0,0,1,4.9-4.9h13.8a1.3,1.3,0,0,1,1.3,1.4,1.3,1.3,0,0,1-1.3,1.3H833.5a2.2,2.2,0,0,0-2.2,2.2v11.4a2.1,2.1,0,0,0,2.2,2.1h33.2a4.9,4.9,0,0,1,4.9,4.9v15.1A1.4,1.4,0,0,1,870.2,245.6Z" transform="translate(-0.3 -0.2)"/><path class="cls-39" d="M869.9,250.7a4,4,0,0,1-3.9-4V232.9a3.9,3.9,0,0,1,3.9-4,4,4,0,0,1,4,4v13.8A4,4,0,0,1,869.9,250.7Z" transform="translate(-0.3 -0.2)"/><path class="cls-2" d="M902.7,201.8v10.7a5,5,0,0,1-5,5.1H842.4a5,5,0,0,1-5-5.1V201.8a5,5,0,0,1,5-5h55.3A5,5,0,0,1,902.7,201.8Z" transform="translate(-0.3 -0.2)"/><path class="cls-6" d="M902.7,201.8v3.7a5,5,0,0,1-5,5.1H842.4a5,5,0,0,1-5-5.1v-3.7a5,5,0,0,1,5-5h55.3A5,5,0,0,1,902.7,201.8Z" transform="translate(-0.3 -0.2)"/><path class="cls-2" d="M774.3,245.6a1.4,1.4,0,0,1-1.4-1.4V229.1a2.1,2.1,0,0,0-2.1-2.1H737.5a4.8,4.8,0,0,1-4.8-4.9V210.7a4.8,4.8,0,0,1,4.8-4.9h13.8a1.4,1.4,0,0,1,1.4,1.4,1.3,1.3,0,0,1-1.4,1.3H737.5a2.1,2.1,0,0,0-2.1,2.2v11.4a2.1,2.1,0,0,0,2.1,2.1h33.3a4.9,4.9,0,0,1,4.9,4.9v15.1A1.4,1.4,0,0,1,774.3,245.6Z" transform="translate(-0.3 -0.2)"/><path class="cls-39" d="M774,250.7a4,4,0,0,1-4-4V232.9a4,4,0,1,1,8,0v13.8A4,4,0,0,1,774,250.7Z" transform="translate(-0.3 -0.2)"/><path class="cls-39" d="M806.8,201.8v10.7a5.1,5.1,0,0,1-5.1,5.1H746.5a5.1,5.1,0,0,1-5.1-5.1V201.8a5.1,5.1,0,0,1,5.1-5h55.2A5.1,5.1,0,0,1,806.8,201.8Z" transform="translate(-0.3 -0.2)"/><path class="cls-6" d="M806.8,201.8v3.7a5.1,5.1,0,0,1-5.1,5.1H746.5a5.1,5.1,0,0,1-5.1-5.1v-3.7a5.1,5.1,0,0,1,5.1-5h55.2A5.1,5.1,0,0,1,806.8,201.8Z" transform="translate(-0.3 -0.2)"/><path class="cls-6" d="M935.6,79.1h-9.7V513.7h9.7Z" transform="translate(-0.3 -0.2)"/><path class="cls-6" d="M719.6,79.1h-9.7V513.7h9.7Z" transform="translate(-0.3 -0.2)"/><path class="cls-6" d="M931.7,79.1H715.4v8.1H931.7Z" transform="translate(-0.3 -0.2)"/><path class="cls-6" d="M931.7,169.2H715.4v8.1H931.7Z" transform="translate(-0.3 -0.2)"/><path class="cls-6" d="M931.7,259.3H715.4v8.1H931.7Z" transform="translate(-0.3 -0.2)"/><path class="cls-6" d="M931.7,349.3H715.4v8.2H931.7Z" transform="translate(-0.3 -0.2)"/><path class="cls-6" d="M788.4,288.1v22.3a3.8,3.8,0,0,1-3.8,3.8h-.1a3.8,3.8,0,0,1-3.8-3.8V288.1a3.8,3.8,0,0,1,3.8-3.8h.1A3.8,3.8,0,0,1,788.4,288.1Z" transform="translate(-0.3 -0.2)"/><path class="cls-6" d="M792.1,324.8H777a7.3,7.3,0,1,1,0-14.6h15.1a7.3,7.3,0,0,1,0,14.6Z" transform="translate(-0.3 -0.2)"/><path class="cls-39" d="M799.4,317.5H769.7v18.3h29.7Z" transform="translate(-0.3 -0.2)"/><path class="cls-39" d="M783.6,288a.9.9,0,0,1,1-1,.9.9,0,0,1,.9,1,1,1,0,0,1-.9,1A1,1,0,0,1,783.6,288Z" transform="translate(-0.3 -0.2)"/><path class="cls-6" d="M744.3,288.1v22.3a3.8,3.8,0,0,1-3.8,3.8h-.1a3.7,3.7,0,0,1-3.7-3.8V288.1a3.7,3.7,0,0,1,3.7-3.8h.1A3.8,3.8,0,0,1,744.3,288.1Z" transform="translate(-0.3 -0.2)"/><path class="cls-6" d="M743.5,324.8h-6.1a7.3,7.3,0,1,1,0-14.6h6.1a7.3,7.3,0,0,1,0,14.6Z" transform="translate(-0.3 -0.2)"/><path class="cls-39" d="M750.8,317.5H730.1v18.3h20.7Z" transform="translate(-0.3 -0.2)"/><path class="cls-39" d="M739.5,288a.9.9,0,0,1,1-1,1,1,0,0,1,1,1,1.1,1.1,0,0,1-1,1A1,1,0,0,1,739.5,288Z" transform="translate(-0.3 -0.2)"/><path class="cls-6" d="M840,288.1v22.3a3.8,3.8,0,0,1-3.7,3.8h-.1a3.8,3.8,0,0,1-3.8-3.8V288.1a3.8,3.8,0,0,1,3.8-3.8h.1A3.8,3.8,0,0,1,840,288.1Z" transform="translate(-0.3 -0.2)"/><path class="cls-6" d="M846.8,324.8H825.6a7.3,7.3,0,0,1,0-14.6h21.2a7.3,7.3,0,1,1,0,14.6Z" transform="translate(-0.3 -0.2)"/><path class="cls-39" d="M854.2,317.5H818.3v18.3h35.9Z" transform="translate(-0.3 -0.2)"/><path class="cls-39" d="M835.2,288a1,1,0,0,1,1-1,.9.9,0,0,1,1,1,1,1,0,0,1-1,1A1.1,1.1,0,0,1,835.2,288Z" transform="translate(-0.3 -0.2)"/><path class="cls-6" d="M893.9,282.3v25.1a4.2,4.2,0,0,1-4.2,4.2h-.2a4.2,4.2,0,0,1-4.2-4.2V282.3a4.2,4.2,0,0,1,4.2-4.2h.2A4.2,4.2,0,0,1,893.9,282.3Z" transform="translate(-0.3 -0.2)"/><path class="cls-6" d="M901.5,323.5H877.7a8.2,8.2,0,0,1,0-16.4h23.8a8.2,8.2,0,1,1,0,16.4Z" transform="translate(-0.3 -0.2)"/><path class="cls-39" d="M909.7,315.3H869.5v20.5h40.2Z" transform="translate(-0.3 -0.2)"/><path class="cls-39" d="M888.5,282.2a1.1,1.1,0,1,1,1.1,1.1A1.1,1.1,0,0,1,888.5,282.2Z" transform="translate(-0.3 -0.2)"/><path class="cls-39" d="M775.1,394.4H737.5v30.9h37.6Z" transform="translate(-0.3 -0.2)"/><path class="cls-40" d="M776.9,394.4H734.8v2.3h42.1Z" transform="translate(-0.3 -0.2)"/><path class="cls-41" d="M737.5,398.9a81.4,81.4,0,0,1,37.6,0v-2.2H737.5Z" transform="translate(-0.3 -0.2)"/><path class="cls-6" d="M775.1,404.8H737.5v11.7h37.6Z" transform="translate(-0.3 -0.2)"/><path class="cls-39" d="M833.6,387.2H787.1v38.1h46.5Z" transform="translate(-0.3 -0.2)"/><path class="cls-40" d="M835.8,387.2h-52v2.9h52Z" transform="translate(-0.3 -0.2)"/><path class="cls-41" d="M787.1,392.7s12.5-2.6,23.2-2.6a135.2,135.2,0,0,1,23.3,2.6v-2.6H787.1Z" transform="translate(-0.3 -0.2)"/><path class="cls-6" d="M833.6,400.1H787.1v14.4h46.5Z" transform="translate(-0.3 -0.2)"/><path class="cls-39" d="M913.8,374.4H851.7v50.9h62.1Z" transform="translate(-0.3 -0.2)"/><path class="cls-7" d="M916.8,374.4H847.3v3.8h69.5Z" transform="translate(-0.3 -0.2)"/><path class="cls-41" d="M851.7,381.7s16.7-3.5,31-3.5,31.1,3.5,31.1,3.5v-3.5H851.7v3.5Z" transform="translate(-0.3 -0.2)"/><path class="cls-6" d="M913.8,391.6H851.7v19.2h62.1Z" transform="translate(-0.3 -0.2)"/><path class="cls-2" d="M746.1,132H746a2.7,2.7,0,0,1-2-1.1c-3.7-4.5-1.8-22.7-.4-33.2a4.8,4.8,0,0,1,.6-1.8,4.6,4.6,0,0,0-1.2-1.8c-.2-.2-.3-.1-.3-.1-3.2,2.1-3.7,14.5-3.7,19.2h-1.1c0-1.8,0-17.4,4.2-20.1a1.3,1.3,0,0,1,1.6.2,5.5,5.5,0,0,1,1.2,1.6,5.1,5.1,0,0,1,4-1.9h27.9a9.9,9.9,0,0,1,9.9,10v3.7h-1V103a8.9,8.9,0,0,0-8.9-8.9H748.9a4.2,4.2,0,0,0-3.5,1.9c1.4,3.3,2.6,9,3.4,13.7s2,14.7,0,19.8C748.1,131.5,747,132,746.1,132Zm-1.3-34.6a.6.6,0,0,0-.1.4,165,165,0,0,0-1.7,18c-.4,9.6.8,13.2,1.8,14.4a1.9,1.9,0,0,0,1.2.7c.3,0,1.2,0,1.8-1.7C750.2,122.9,747.5,105,744.8,97.4Z" transform="translate(-0.3 -0.2)"/><path class="cls-6" d="M741.1,112.2h-5.3v2.6h5.3Z" transform="translate(-0.3 -0.2)"/><path class="cls-6" d="M737.3,114.6h-.7V118h.7Z" transform="translate(-0.3 -0.2)"/><path class="cls-10" d="M737.3,116.3h-.7V118h.7Z" transform="translate(-0.3 -0.2)"/><path class="cls-6" d="M740.3,114.6h-.7V118h.7Z" transform="translate(-0.3 -0.2)"/><path class="cls-10" d="M740.3,116.3h-.7V118h.7Z" transform="translate(-0.3 -0.2)"/><path class="cls-6" d="M756.5,165l-10.1-6.2a3.2,3.2,0,0,1-1-4.3l31.1-50.2a3,3,0,0,1,4.2-1l10.1,6.2a3.1,3.1,0,0,1,1,4.3l-31,50.2A3.2,3.2,0,0,1,756.5,165Z" transform="translate(-0.3 -0.2)"/><path class="cls-2" d="M767.8,125.1a5.4,5.4,0,0,1,7.5-1.8,5.6,5.6,0,0,1,1.8,7.5,5.5,5.5,0,0,1-9.3-5.7Z" transform="translate(-0.3 -0.2)"/><path class="cls-6" d="M769.4,126a1,1,0,0,1,1.5-.3,1.1,1.1,0,0,1,.4,1.5,1.1,1.1,0,1,1-1.9-1.2Z" transform="translate(-0.3 -0.2)"/><path class="cls-6" d="M773.8,128.7a1,1,0,0,1,1.5-.3,1.1,1.1,0,0,1,.4,1.5,1.3,1.3,0,0,1-1.6.4A1.1,1.1,0,0,1,773.8,128.7Z" transform="translate(-0.3 -0.2)"/><path class="cls-2" d="M759.5,138.5a5.5,5.5,0,0,1,7.5-1.7,5.3,5.3,0,0,1,1.7,7.4,5.3,5.3,0,0,1-7.4,1.8A5.5,5.5,0,0,1,759.5,138.5Z" transform="translate(-0.3 -0.2)"/><path class="cls-6" d="M761.1,139.5a1.1,1.1,0,0,1,1.5-.4,1.1,1.1,0,1,1-1.2,1.9A1,1,0,0,1,761.1,139.5Z" transform="translate(-0.3 -0.2)"/><path class="cls-6" d="M765.4,142.2a1.3,1.3,0,0,1,1.6-.4,1.1,1.1,0,0,1,.3,1.6,1,1,0,0,1-1.5.3A1.1,1.1,0,0,1,765.4,142.2Z" transform="translate(-0.3 -0.2)"/><path class="cls-2" d="M751.2,152a5.4,5.4,0,0,1,7.5-1.8,5.5,5.5,0,0,1,1.7,7.5,5.3,5.3,0,0,1-7.4,1.7A5.3,5.3,0,0,1,751.2,152Z" transform="translate(-0.3 -0.2)"/><path class="cls-6" d="M752.8,152.9a1.1,1.1,0,0,1,1.8,1.2,1.1,1.1,0,0,1-1.5.4A1.1,1.1,0,0,1,752.8,152.9Z" transform="translate(-0.3 -0.2)"/><path class="cls-6" d="M757.1,155.6a1.1,1.1,0,0,1,1.6-.3,1,1,0,0,1,.3,1.5,1.1,1.1,0,0,1-1.5.4A1.3,1.3,0,0,1,757.1,155.6Z" transform="translate(-0.3 -0.2)"/><path class="cls-2" d="M776.2,111.6a5.3,5.3,0,0,1,7.4-1.7,5.3,5.3,0,0,1,1.8,7.4,5.4,5.4,0,0,1-7.5,1.8A5.5,5.5,0,0,1,776.2,111.6Z" transform="translate(-0.3 -0.2)"/><path class="cls-6" d="M777.7,112.6a1.1,1.1,0,1,1,1.9,1.2,1.2,1.2,0,0,1-1.6.3A1.1,1.1,0,0,1,777.7,112.6Z" transform="translate(-0.3 -0.2)"/><path class="cls-6" d="M782.1,115.3a1.1,1.1,0,0,1,1.5-.4,1.2,1.2,0,0,1,.4,1.6,1.2,1.2,0,0,1-1.6.3A1.1,1.1,0,0,1,782.1,115.3Z" transform="translate(-0.3 -0.2)"/><path class="cls-2" d="M813,136.6h-.1a2.2,2.2,0,0,1-1.7-.9c-3.2-3.8-1.6-19.6-.3-28.6a4.2,4.2,0,0,1,.4-1.5,3.9,3.9,0,0,0-.9-1.5c-.2-.2-.3-.1-.4-.1-2.7,1.7-3.2,12.5-3.1,16.4H806c-.1-1.6-.1-15,3.5-17.3a1.1,1.1,0,0,1,1.5.2,5.3,5.3,0,0,1,1,1.3,4.4,4.4,0,0,1,3.4-1.6h24a8.7,8.7,0,0,1,8.6,8.6v3.2h-1v-3.2a7.6,7.6,0,0,0-7.6-7.6h-24a3.7,3.7,0,0,0-3,1.6,56.6,56.6,0,0,1,2.9,11.8c.5,2.9,1.8,12.6.1,17C814.7,136.2,813.8,136.6,813,136.6Zm-1.2-29.7v.3a148.3,148.3,0,0,0-1.5,15.5c-.3,8.3.7,11.3,1.6,12.4a1.3,1.3,0,0,0,1.1.6c.2,0,.9.1,1.5-1.5C816.6,128.8,814.2,113.4,811.8,106.9Z" transform="translate(-0.3 -0.2)"/><path class="cls-6" d="M808.7,119.6h-4.6v2.3h4.6Z" transform="translate(-0.3 -0.2)"/><path class="cls-6" d="M805.4,121.7h-.6v2.9h.6Z" transform="translate(-0.3 -0.2)"/><path class="cls-10" d="M805.4,123.1h-.6v1.5h.6Z" transform="translate(-0.3 -0.2)"/><path class="cls-6" d="M808,121.7h-.6v2.9h.6Z" transform="translate(-0.3 -0.2)"/><path class="cls-10" d="M808,123.1h-.6v1.5h.6Z" transform="translate(-0.3 -0.2)"/><path class="cls-6" d="M829.5,153.4l-9.2-5.7a2.3,2.3,0,0,1-.7-3.2l19.7-31.9a2.2,2.2,0,0,1,3.2-.8l9.3,5.7a2.3,2.3,0,0,1,.7,3.2l-19.7,31.9A2.4,2.4,0,0,1,829.5,153.4Z" transform="translate(-0.3 -0.2)"/><path class="cls-2" d="M831.7,130.7a4.7,4.7,0,1,1,1.5,6.4A4.7,4.7,0,0,1,831.7,130.7Z" transform="translate(-0.3 -0.2)"/><path class="cls-6" d="M833,131.5a1.1,1.1,0,0,1,1.4-.3,1,1,0,0,1,.3,1.3.9.9,0,0,1-1.3.3A1,1,0,0,1,833,131.5Z" transform="translate(-0.3 -0.2)"/><path class="cls-6" d="M836.8,133.8a1.1,1.1,0,0,1,1.3-.3,1.1,1.1,0,0,1,.4,1.4,1.2,1.2,0,0,1-1.4.3A1.1,1.1,0,0,1,836.8,133.8Z" transform="translate(-0.3 -0.2)"/><path class="cls-2" d="M824.6,142.3a4.6,4.6,0,1,1,1.5,6.4A4.6,4.6,0,0,1,824.6,142.3Z" transform="translate(-0.3 -0.2)"/><path class="cls-6" d="M825.9,143.1a.9.9,0,1,1,.3,1.3A.9.9,0,0,1,825.9,143.1Z" transform="translate(-0.3 -0.2)"/><path class="cls-6" d="M829.7,145.4a.9.9,0,0,1,1.3-.3,1,1,0,0,1,.3,1.3.9.9,0,0,1-1.3.3A.9.9,0,0,1,829.7,145.4Z" transform="translate(-0.3 -0.2)"/><path class="cls-2" d="M838.9,119.1a4.7,4.7,0,0,1,6.4-1.5,4.6,4.6,0,1,1-6.4,1.5Z" transform="translate(-0.3 -0.2)"/><path class="cls-6" d="M840.2,119.9a1.1,1.1,0,0,1,1.3-.3,1,1,0,0,1,.3,1.4,1,1,0,0,1-1.3.3A1.1,1.1,0,0,1,840.2,119.9Z" transform="translate(-0.3 -0.2)"/><path class="cls-6" d="M844,122.3a.9.9,0,0,1,1.3-.3.9.9,0,0,1,.3,1.3,1,1,0,0,1-1.3.3A.9.9,0,0,1,844,122.3Z" transform="translate(-0.3 -0.2)"/><path class="cls-2" d="M870.8,136.6h-.1a2.3,2.3,0,0,1-1.8-.9c-3.1-3.8-1.5-19.6-.3-28.6a8.8,8.8,0,0,1,.5-1.5,3.8,3.8,0,0,0-1-1.5c-.2-.2-.3-.1-.3-.1-2.7,1.7-3.2,12.5-3.2,16.4h-.9c0-1.6,0-15,3.6-17.3a1,1,0,0,1,1.4.2,3.6,3.6,0,0,1,1,1.3,4.6,4.6,0,0,1,3.5-1.6h23.9a8.6,8.6,0,0,1,8.6,8.6v3.2h-.9v-3.2a7.6,7.6,0,0,0-7.7-7.6H873.2a3.4,3.4,0,0,0-3,1.6,63.6,63.6,0,0,1,2.9,11.8c.4,2.9,1.7,12.6,0,17C872.5,136.2,871.5,136.6,870.8,136.6Zm-1.2-29.7a.4.4,0,0,1-.1.3c-.5,4-1.2,10-1.4,15.5-.3,8.3.7,11.3,1.5,12.4a1.5,1.5,0,0,0,1.1.6c.3,0,1,.1,1.6-1.5C874.3,128.8,872,113.4,869.6,106.9Z" transform="translate(-0.3 -0.2)"/><path class="cls-6" d="M866.5,119.6h-4.6v2.3h4.6Z" transform="translate(-0.3 -0.2)"/><path class="cls-6" d="M863.2,121.7h-.6v2.9h.6Z" transform="translate(-0.3 -0.2)"/><path class="cls-10" d="M863.2,123.1h-.6v1.5h.6Z" transform="translate(-0.3 -0.2)"/><path class="cls-6" d="M865.8,121.7h-.6v2.9h.6Z" transform="translate(-0.3 -0.2)"/><path class="cls-10" d="M865.8,123.1h-.6v1.5h.6Z" transform="translate(-0.3 -0.2)"/><path class="cls-6" d="M893.8,143.4l-9.7-6a2.1,2.1,0,0,1-.7-2.9l13.8-22.2a2,2,0,0,1,2.8-.7l9.8,6.1a2,2,0,0,1,.6,2.8l-13.7,22.2A2.1,2.1,0,0,1,893.8,143.4Z" transform="translate(-0.3 -0.2)"/><path class="cls-2" d="M889.5,130.7a4.6,4.6,0,1,1,1.5,6.4A4.6,4.6,0,0,1,889.5,130.7Z" transform="translate(-0.3 -0.2)"/><path class="cls-6" d="M890.8,131.5a1,1,0,0,1,1.3-.3.9.9,0,0,1,.3,1.3.9.9,0,0,1-1.3.3A.9.9,0,0,1,890.8,131.5Z" transform="translate(-0.3 -0.2)"/><path class="cls-6" d="M894.6,133.8a1,1,0,0,1,1.3-.3,1.1,1.1,0,0,1,.3,1.4,1.1,1.1,0,0,1-1.3.3A1,1,0,0,1,894.6,133.8Z" transform="translate(-0.3 -0.2)"/><path class="cls-2" d="M896.6,119.1a4.8,4.8,0,0,1,6.5-1.5,4.7,4.7,0,0,1,1.5,6.4,4.6,4.6,0,0,1-6.4,1.5A4.7,4.7,0,0,1,896.6,119.1Z" transform="translate(-0.3 -0.2)"/><path class="cls-6" d="M898,119.9a1,1,0,0,1,1.3-.3,1.1,1.1,0,0,1,.3,1.4,1.1,1.1,0,0,1-1.3.3A1,1,0,0,1,898,119.9Z" transform="translate(-0.3 -0.2)"/><path class="cls-6" d="M901.7,122.3a.9.9,0,0,1,1.3-.3,1,1,0,0,1,.4,1.3,1.1,1.1,0,0,1-1.4.3A1.1,1.1,0,0,1,901.7,122.3Z" transform="translate(-0.3 -0.2)"/></svg>