<?xml version="1.0" encoding="utf-8"?>
<!-- Generator: Adobe Illustrator 24.2.0, SVG Export Plug-In . SVG Version: 6.00 Build 0)  -->
<svg version="1.1" id="Layer_1" xmlns="http://www.w3.org/2000/svg" xmlns:xlink="http://www.w3.org/1999/xlink" x="0px" y="0px"
	 viewBox="0 0 571 375" style="enable-background:new 0 0 571 375;" xml:space="preserve">
<style type="text/css">
	.st0{fill:#FFFFFF;stroke:#E6E6E6;stroke-width:0.5;}
	.st1{fill:none;stroke:#DEDEDE;stroke-width:0.5;}
	.st2{fill:none;stroke:#D0D0D0;}
	.st3{fill:#C6C2C2;}
	.st4{fill:#EDEDED;}
	.st5{fill:#E1E1E1;}
	.st6{fill:#A0A0A0;}
	.st7{fill:none;stroke:#EE6902;}
	.st8{fill:#EE6902;}
	.st9{fill:#FFFFFF;}
	.st10{fill:none;stroke:#E6E6E6;stroke-width:0.5;}
	.st11{fill:none;stroke:#E6E6E6;}
	.st12{fill:#F0F0F0;stroke:#E6E6E6;}
	.st13{fill:#FFFFFF;stroke:#E6E6E6;}
	.st14{fill:#FFC1C5;}
	.st15{fill:#1F0D52;}
	.st16{fill:#ACDCFF;}
	.st17{fill:#96CAF0;}
	.st18{fill:#5F40D4;}
	.st19{fill:#32187C;}
	.st20{fill:#5F40D5;}
	.st21{fill-rule:evenodd;clip-rule:evenodd;fill:#EEF9FB;}
	.st22{fill:#B9DAE1;}
	.st23{fill:#252525;}
	.st24{fill-rule:evenodd;clip-rule:evenodd;fill:#D3E7EC;}
</style>
<path class="st0" d="M10,134.2h520c5.4,0,9.8,4.4,9.8,9.8v195c0,5.4-4.4,9.8-9.8,9.8H10c-5.4,0-9.8-4.4-9.8-9.8V144
	C0.2,138.6,4.6,134.2,10,134.2z"/>
<rect x="0.2" y="195.2" class="st1" width="196.5" height="23.5"/>
<rect x="197.2" y="195.2" class="st1" width="72.5" height="23.5"/>
<rect x="270.2" y="195.2" class="st1" width="269.5" height="23.5"/>
<path class="st2" d="M25,230.5h6c0.8,0,1.5,0.7,1.5,1.5v6c0,0.8-0.7,1.5-1.5,1.5h-6c-0.8,0-1.5-0.7-1.5-1.5v-6
	C23.5,231.2,24.2,230.5,25,230.5z"/>
<path class="st2" d="M25,202.5h6c0.8,0,1.5,0.7,1.5,1.5v6c0,0.8-0.7,1.5-1.5,1.5h-6c-0.8,0-1.5-0.7-1.5-1.5v-6
	C23.5,203.2,24.2,202.5,25,202.5z"/>
<path d="M59.1,237.1c-0.2,0.3-0.6,0.6-1,0.8c-0.4,0.2-0.9,0.3-1.5,0.3c-0.6,0-1.1-0.1-1.5-0.4c-0.4-0.3-0.8-0.7-1-1.2
	c-0.2-0.5-0.4-1.1-0.4-1.7v-0.6c0-1.1,0.2-1.9,0.7-2.5c0.5-0.6,1.2-0.9,2.1-0.9c0.7,0,1.3,0.2,1.8,0.6c0.5,0.4,0.7,0.9,0.8,1.6h-0.9
	c-0.2-0.9-0.7-1.4-1.7-1.4c-0.6,0-1.1,0.2-1.4,0.7c-0.3,0.4-0.5,1.1-0.5,1.9v0.6c0,0.8,0.2,1.4,0.5,1.9c0.4,0.5,0.9,0.7,1.5,0.7
	c0.4,0,0.7,0,0.9-0.1c0.3-0.1,0.5-0.2,0.7-0.4v-1.6h-1.6v-0.8h2.6V237.1z M62.7,238.1c-0.7,0-1.3-0.2-1.7-0.7
	c-0.4-0.5-0.7-1.1-0.7-1.9v-0.2c0-0.5,0.1-1,0.3-1.4c0.2-0.4,0.5-0.7,0.8-1c0.4-0.2,0.8-0.4,1.2-0.4c0.7,0,1.2,0.2,1.6,0.7
	c0.4,0.5,0.6,1.1,0.6,1.9v0.4h-3.6c0,0.5,0.2,0.9,0.5,1.3c0.3,0.3,0.7,0.5,1.1,0.5c0.3,0,0.6-0.1,0.8-0.2c0.2-0.1,0.4-0.3,0.6-0.5
	l0.6,0.4C64.2,237.8,63.6,238.1,62.7,238.1z M62.6,233.4c-0.4,0-0.7,0.1-0.9,0.4c-0.2,0.3-0.4,0.6-0.5,1.1h2.6v-0.1
	c0-0.5-0.1-0.8-0.4-1.1C63.3,233.5,63,233.4,62.6,233.4z M66.7,232.7l0,0.7c0.4-0.5,0.9-0.8,1.6-0.8c1.1,0,1.7,0.6,1.7,1.9v3.5h-0.9
	v-3.5c0-0.4-0.1-0.7-0.3-0.8c-0.2-0.2-0.4-0.3-0.8-0.3c-0.3,0-0.6,0.1-0.8,0.2c-0.2,0.2-0.4,0.4-0.5,0.6v3.8h-0.9v-5.3H66.7z
	 M73.5,238.1c-0.7,0-1.3-0.2-1.7-0.7c-0.4-0.5-0.7-1.1-0.7-1.9v-0.2c0-0.5,0.1-1,0.3-1.4c0.2-0.4,0.5-0.7,0.8-1
	c0.4-0.2,0.8-0.4,1.2-0.4c0.7,0,1.2,0.2,1.6,0.7c0.4,0.5,0.6,1.1,0.6,1.9v0.4H72c0,0.5,0.2,0.9,0.5,1.3c0.3,0.3,0.7,0.5,1.1,0.5
	c0.3,0,0.6-0.1,0.8-0.2c0.2-0.1,0.4-0.3,0.6-0.5l0.6,0.4C75.1,237.8,74.4,238.1,73.5,238.1z M73.4,233.4c-0.4,0-0.7,0.1-0.9,0.4
	c-0.2,0.3-0.4,0.6-0.5,1.1h2.6v-0.1c0-0.5-0.1-0.8-0.4-1.1C74.1,233.5,73.8,233.4,73.4,233.4z M79.2,233.5c-0.1,0-0.3,0-0.4,0
	c-0.6,0-1,0.3-1.2,0.8v3.8h-0.9v-5.3h0.9l0,0.6c0.3-0.5,0.7-0.7,1.3-0.7c0.2,0,0.3,0,0.4,0.1V233.5z M83.1,238
	c-0.1-0.1-0.1-0.3-0.1-0.6c-0.4,0.4-0.9,0.7-1.5,0.7c-0.5,0-0.9-0.1-1.3-0.4c-0.3-0.3-0.5-0.7-0.5-1.1c0-0.6,0.2-1,0.6-1.3
	c0.4-0.3,1-0.5,1.8-0.5h0.9v-0.4c0-0.3-0.1-0.6-0.3-0.8c-0.2-0.2-0.5-0.3-0.8-0.3c-0.3,0-0.6,0.1-0.8,0.2c-0.2,0.2-0.3,0.4-0.3,0.6
	h-0.9c0-0.3,0.1-0.5,0.3-0.8c0.2-0.2,0.4-0.4,0.8-0.6c0.3-0.1,0.7-0.2,1.1-0.2c0.6,0,1.1,0.2,1.4,0.5c0.3,0.3,0.5,0.7,0.5,1.3v2.4
	c0,0.5,0.1,0.9,0.2,1.2v0.1H83.1z M81.6,237.3c0.3,0,0.6-0.1,0.8-0.2c0.3-0.1,0.4-0.3,0.6-0.6v-1.1h-0.7c-1.1,0-1.7,0.3-1.7,1
	c0,0.3,0.1,0.5,0.3,0.7C81,237.2,81.3,237.3,81.6,237.3z M86.2,238h-0.9v-7.5h0.9V238z M91.5,230.9l2.3,5.8l2.3-5.8h1.2v7.1h-0.9
	v-2.8l0.1-3l-2.3,5.8h-0.7l-2.3-5.7l0.1,3v2.8h-0.9v-7.1H91.5z M102.2,238c-0.1-0.1-0.1-0.3-0.1-0.6c-0.4,0.4-0.9,0.7-1.5,0.7
	c-0.5,0-0.9-0.1-1.3-0.4c-0.3-0.3-0.5-0.7-0.5-1.1c0-0.6,0.2-1,0.6-1.3c0.4-0.3,1-0.5,1.8-0.5h0.9v-0.4c0-0.3-0.1-0.6-0.3-0.8
	c-0.2-0.2-0.5-0.3-0.8-0.3c-0.3,0-0.6,0.1-0.8,0.2c-0.2,0.2-0.3,0.4-0.3,0.6h-0.9c0-0.3,0.1-0.5,0.3-0.8c0.2-0.2,0.4-0.4,0.8-0.6
	c0.3-0.1,0.7-0.2,1.1-0.2c0.6,0,1.1,0.2,1.4,0.5c0.3,0.3,0.5,0.7,0.5,1.3v2.4c0,0.5,0.1,0.9,0.2,1.2v0.1H102.2z M100.7,237.3
	c0.3,0,0.6-0.1,0.8-0.2c0.3-0.1,0.4-0.3,0.6-0.6v-1.1h-0.7c-1.1,0-1.7,0.3-1.7,1c0,0.3,0.1,0.5,0.3,0.7
	C100.1,237.2,100.4,237.3,100.7,237.3z M105.3,238h-0.9v-5.3h0.9V238z M104.3,231.3c0-0.1,0-0.3,0.1-0.4c0.1-0.1,0.2-0.2,0.4-0.2
	s0.3,0.1,0.4,0.2c0.1,0.1,0.1,0.2,0.1,0.4c0,0.1,0,0.3-0.1,0.4c-0.1,0.1-0.2,0.1-0.4,0.1s-0.3,0-0.4-0.1
	C104.4,231.6,104.3,231.5,104.3,231.3z M107.6,232.7l0,0.7c0.4-0.5,0.9-0.8,1.6-0.8c1.1,0,1.7,0.6,1.7,1.9v3.5H110v-3.5
	c0-0.4-0.1-0.7-0.3-0.8c-0.2-0.2-0.4-0.3-0.8-0.3c-0.3,0-0.5,0.1-0.8,0.2c-0.2,0.2-0.4,0.4-0.5,0.6v3.8h-0.9v-5.3H107.6z
	 M113.5,231.4v1.3h1v0.7h-1v3.3c0,0.2,0,0.4,0.1,0.5c0.1,0.1,0.2,0.2,0.4,0.2c0.1,0,0.2,0,0.4-0.1v0.7c-0.2,0.1-0.5,0.1-0.7,0.1
	c-0.4,0-0.7-0.1-0.9-0.4c-0.2-0.2-0.3-0.6-0.3-1v-3.3h-1v-0.7h1v-1.3H113.5z M117.8,238.1c-0.7,0-1.3-0.2-1.7-0.7
	c-0.4-0.5-0.7-1.1-0.7-1.9v-0.2c0-0.5,0.1-1,0.3-1.4c0.2-0.4,0.5-0.7,0.8-1c0.4-0.2,0.8-0.4,1.2-0.4c0.7,0,1.2,0.2,1.6,0.7
	c0.4,0.5,0.6,1.1,0.6,1.9v0.4h-3.6c0,0.5,0.2,0.9,0.5,1.3c0.3,0.3,0.7,0.5,1.1,0.5c0.3,0,0.6-0.1,0.8-0.2c0.2-0.1,0.4-0.3,0.6-0.5
	l0.6,0.4C119.3,237.8,118.6,238.1,117.8,238.1z M117.6,233.4c-0.4,0-0.7,0.1-0.9,0.4c-0.2,0.3-0.4,0.6-0.5,1.1h2.6v-0.1
	c0-0.5-0.1-0.8-0.4-1.1C118.3,233.5,118,233.4,117.6,233.4z M121.7,232.7l0,0.7c0.4-0.5,0.9-0.8,1.6-0.8c1.1,0,1.7,0.6,1.7,1.9v3.5
	h-0.9v-3.5c0-0.4-0.1-0.7-0.3-0.8c-0.2-0.2-0.4-0.3-0.8-0.3c-0.3,0-0.6,0.1-0.8,0.2c-0.2,0.2-0.4,0.4-0.5,0.6v3.8h-0.9v-5.3H121.7z
	 M129.6,238c-0.1-0.1-0.1-0.3-0.1-0.6c-0.4,0.4-0.9,0.7-1.5,0.7c-0.5,0-0.9-0.1-1.3-0.4c-0.3-0.3-0.5-0.7-0.5-1.1
	c0-0.6,0.2-1,0.6-1.3c0.4-0.3,1-0.5,1.8-0.5h0.9v-0.4c0-0.3-0.1-0.6-0.3-0.8c-0.2-0.2-0.5-0.3-0.8-0.3c-0.3,0-0.6,0.1-0.8,0.2
	c-0.2,0.2-0.3,0.4-0.3,0.6h-0.9c0-0.3,0.1-0.5,0.3-0.8c0.2-0.2,0.4-0.4,0.8-0.6c0.3-0.1,0.7-0.2,1.1-0.2c0.6,0,1.1,0.2,1.4,0.5
	c0.3,0.3,0.5,0.7,0.5,1.3v2.4c0,0.5,0.1,0.9,0.2,1.2v0.1H129.6z M128.1,237.3c0.3,0,0.6-0.1,0.8-0.2c0.3-0.1,0.4-0.3,0.6-0.6v-1.1
	h-0.7c-1.1,0-1.7,0.3-1.7,1c0,0.3,0.1,0.5,0.3,0.7C127.6,237.2,127.8,237.3,128.1,237.3z M132.7,232.7l0,0.7
	c0.4-0.5,0.9-0.8,1.6-0.8c1.1,0,1.7,0.6,1.7,1.9v3.5h-0.9v-3.5c0-0.4-0.1-0.7-0.3-0.8c-0.2-0.2-0.4-0.3-0.8-0.3
	c-0.3,0-0.6,0.1-0.8,0.2c-0.2,0.2-0.4,0.4-0.5,0.6v3.8h-0.9v-5.3H132.7z M139.5,237.4c0.3,0,0.6-0.1,0.8-0.3
	c0.2-0.2,0.4-0.4,0.4-0.7h0.9c0,0.3-0.1,0.6-0.3,0.9c-0.2,0.3-0.4,0.5-0.8,0.7c-0.3,0.2-0.7,0.2-1,0.2c-0.7,0-1.3-0.2-1.7-0.7
	c-0.4-0.5-0.6-1.1-0.6-2v-0.2c0-0.5,0.1-1,0.3-1.4c0.2-0.4,0.5-0.7,0.8-0.9c0.4-0.2,0.8-0.3,1.3-0.3c0.6,0,1.1,0.2,1.5,0.5
	c0.4,0.4,0.6,0.8,0.6,1.4h-0.9c0-0.3-0.2-0.6-0.4-0.8c-0.2-0.2-0.5-0.3-0.9-0.3c-0.5,0-0.8,0.2-1.1,0.5c-0.3,0.3-0.4,0.8-0.4,1.4
	v0.2c0,0.6,0.1,1.1,0.4,1.4C138.6,237.2,139,237.4,139.5,237.4z M144.8,238.1c-0.7,0-1.3-0.2-1.7-0.7c-0.4-0.5-0.7-1.1-0.7-1.9v-0.2
	c0-0.5,0.1-1,0.3-1.4c0.2-0.4,0.5-0.7,0.8-1c0.4-0.2,0.8-0.4,1.2-0.4c0.7,0,1.2,0.2,1.6,0.7c0.4,0.5,0.6,1.1,0.6,1.9v0.4h-3.6
	c0,0.5,0.2,0.9,0.5,1.3c0.3,0.3,0.7,0.5,1.1,0.5c0.3,0,0.6-0.1,0.8-0.2c0.2-0.1,0.4-0.3,0.6-0.5l0.6,0.4
	C146.3,237.8,145.6,238.1,144.8,238.1z M144.6,233.4c-0.4,0-0.7,0.1-0.9,0.4c-0.2,0.3-0.4,0.6-0.5,1.1h2.6v-0.1
	c0-0.5-0.1-0.8-0.4-1.1C145.3,233.5,145,233.4,144.6,233.4z"/>
<path d="M217.1,235.7c-0.1,0.8-0.4,1.3-0.8,1.7c-0.5,0.4-1.1,0.6-1.9,0.6c-0.8,0-1.5-0.3-2-0.9c-0.5-0.6-0.8-1.4-0.8-2.4v-0.7
	c0-0.7,0.1-1.2,0.4-1.7c0.2-0.5,0.6-0.9,1-1.2c0.4-0.3,0.9-0.4,1.5-0.4c0.8,0,1.4,0.2,1.8,0.6c0.5,0.4,0.7,1,0.8,1.7h-0.9
	c-0.1-0.6-0.3-1-0.5-1.2c-0.3-0.3-0.6-0.4-1.1-0.4c-0.6,0-1.1,0.2-1.4,0.7c-0.3,0.4-0.5,1.1-0.5,1.9v0.7c0,0.8,0.2,1.4,0.5,1.8
	c0.3,0.5,0.8,0.7,1.4,0.7c0.5,0,0.9-0.1,1.2-0.4c0.3-0.2,0.5-0.6,0.6-1.2H217.1z M218,235.3c0-0.5,0.1-1,0.3-1.4
	c0.2-0.4,0.5-0.7,0.8-1c0.4-0.2,0.8-0.3,1.2-0.3c0.7,0,1.3,0.2,1.7,0.7c0.4,0.5,0.7,1.2,0.7,2v0.1c0,0.5-0.1,1-0.3,1.4
	c-0.2,0.4-0.5,0.7-0.8,1c-0.4,0.2-0.8,0.3-1.3,0.3c-0.7,0-1.3-0.2-1.7-0.7C218.2,236.9,218,236.2,218,235.3L218,235.3z M218.9,235.4
	c0,0.6,0.1,1.1,0.4,1.4c0.3,0.4,0.6,0.5,1.1,0.5c0.5,0,0.8-0.2,1.1-0.5c0.3-0.4,0.4-0.9,0.4-1.5c0-0.6-0.1-1-0.4-1.4
	c-0.3-0.4-0.6-0.5-1.1-0.5c-0.4,0-0.8,0.2-1.1,0.5C219,234.2,218.9,234.8,218.9,235.4z M224.8,232.7l0,0.6c0.4-0.5,0.9-0.7,1.6-0.7
	c0.7,0,1.2,0.3,1.5,0.8c0.2-0.3,0.4-0.5,0.7-0.6c0.3-0.2,0.6-0.2,1-0.2c1.2,0,1.7,0.6,1.8,1.8v3.5h-0.9v-3.5c0-0.4-0.1-0.7-0.3-0.8
	c-0.2-0.2-0.5-0.3-0.9-0.3c-0.3,0-0.6,0.1-0.8,0.3c-0.2,0.2-0.3,0.5-0.4,0.8v3.5h-0.9v-3.5c0-0.8-0.4-1.2-1.1-1.2
	c-0.6,0-1,0.3-1.2,0.8v3.9h-0.9v-5.3H224.8z M237.1,235.4c0,0.8-0.2,1.5-0.6,1.9c-0.4,0.5-0.9,0.7-1.5,0.7c-0.6,0-1.1-0.2-1.5-0.6
	v2.5h-0.9v-7.3h0.8l0,0.6c0.4-0.5,0.9-0.7,1.5-0.7c0.6,0,1.1,0.2,1.5,0.7C236.9,233.8,237.1,234.5,237.1,235.4L237.1,235.4z
	 M236.2,235.3c0-0.6-0.1-1.1-0.4-1.4s-0.6-0.5-1-0.5c-0.5,0-1,0.2-1.2,0.7v2.5c0.3,0.5,0.7,0.7,1.2,0.7c0.4,0,0.8-0.2,1-0.5
	C236.1,236.5,236.2,236,236.2,235.3z M239.3,238h-0.9v-7.5h0.9V238z M242.9,238.1c-0.7,0-1.3-0.2-1.7-0.7c-0.4-0.5-0.7-1.1-0.7-1.9
	v-0.2c0-0.5,0.1-1,0.3-1.4c0.2-0.4,0.5-0.7,0.8-1c0.4-0.2,0.8-0.4,1.2-0.4c0.7,0,1.2,0.2,1.6,0.7c0.4,0.5,0.6,1.1,0.6,1.9v0.4h-3.6
	c0,0.5,0.2,0.9,0.5,1.3c0.3,0.3,0.7,0.5,1.1,0.5c0.3,0,0.6-0.1,0.8-0.2c0.2-0.1,0.4-0.3,0.6-0.5l0.6,0.4
	C244.5,237.8,243.8,238.1,242.9,238.1z M242.8,233.4c-0.4,0-0.7,0.1-0.9,0.4c-0.2,0.3-0.4,0.6-0.5,1.1h2.6v-0.1
	c0-0.5-0.1-0.8-0.4-1.1C243.5,233.5,243.2,233.4,242.8,233.4z M247.2,231.4v1.3h1v0.7h-1v3.3c0,0.2,0,0.4,0.1,0.5
	c0.1,0.1,0.2,0.2,0.4,0.2c0.1,0,0.2,0,0.4-0.1v0.7c-0.2,0.1-0.5,0.1-0.7,0.1c-0.4,0-0.7-0.1-0.9-0.4c-0.2-0.2-0.3-0.6-0.3-1v-3.3h-1
	v-0.7h1v-1.3H247.2z M251.5,238.1c-0.7,0-1.3-0.2-1.7-0.7c-0.4-0.5-0.7-1.1-0.7-1.9v-0.2c0-0.5,0.1-1,0.3-1.4c0.2-0.4,0.5-0.7,0.8-1
	c0.4-0.2,0.8-0.4,1.2-0.4c0.7,0,1.2,0.2,1.6,0.7c0.4,0.5,0.6,1.1,0.6,1.9v0.4H250c0,0.5,0.2,0.9,0.5,1.3c0.3,0.3,0.7,0.5,1.1,0.5
	c0.3,0,0.6-0.1,0.8-0.2c0.2-0.1,0.4-0.3,0.6-0.5l0.6,0.4C253,237.8,252.4,238.1,251.5,238.1z M251.4,233.4c-0.4,0-0.7,0.1-0.9,0.4
	c-0.2,0.3-0.4,0.6-0.5,1.1h2.6v-0.1c0-0.5-0.2-0.8-0.4-1.1C252,233.5,251.7,233.4,251.4,233.4z M254.4,235.3c0-0.8,0.2-1.5,0.6-2
	c0.4-0.5,0.9-0.7,1.5-0.7c0.6,0,1.1,0.2,1.5,0.6v-2.8h0.9v7.5H258l0-0.6c-0.4,0.4-0.9,0.7-1.5,0.7c-0.6,0-1.1-0.3-1.5-0.8
	C254.6,236.8,254.4,236.2,254.4,235.3L254.4,235.3z M255.3,235.4c0,0.6,0.1,1.1,0.4,1.4c0.2,0.3,0.6,0.5,1,0.5c0.6,0,1-0.3,1.3-0.8
	v-2.4c-0.3-0.5-0.7-0.7-1.2-0.7c-0.4,0-0.8,0.2-1,0.5C255.4,234.2,255.3,234.7,255.3,235.4z"/>
<path d="M305.2,238h-4.7v-0.6l2.5-2.7c0.4-0.4,0.6-0.7,0.8-1c0.1-0.3,0.2-0.5,0.2-0.8c0-0.4-0.1-0.7-0.3-0.9
	c-0.2-0.2-0.5-0.4-0.9-0.4c-0.4,0-0.8,0.1-1,0.4c-0.2,0.3-0.4,0.6-0.4,1.1h-0.9c0-0.7,0.2-1.2,0.6-1.6c0.4-0.4,1-0.6,1.7-0.6
	c0.7,0,1.2,0.2,1.6,0.5c0.4,0.3,0.6,0.8,0.6,1.4c0,0.7-0.4,1.5-1.3,2.5l-1.9,2.1h3.6V238z M310,235.6h1v0.7h-1v1.6h-0.9v-1.6h-3.2
	v-0.5l3.2-4.9h1V235.6z M306.9,235.6h2.2v-3.5l-0.1,0.2L306.9,235.6z M315.3,234.9c-0.2,0.2-0.4,0.4-0.7,0.5
	c-0.3,0.1-0.5,0.2-0.9,0.2c-0.4,0-0.8-0.1-1.1-0.3c-0.3-0.2-0.5-0.5-0.7-0.8c-0.2-0.4-0.2-0.8-0.2-1.2c0-0.5,0.1-0.9,0.3-1.3
	c0.2-0.4,0.4-0.7,0.8-0.9c0.3-0.2,0.7-0.3,1.2-0.3c0.7,0,1.3,0.3,1.7,0.8c0.4,0.5,0.6,1.2,0.6,2.1v0.3c0,1.4-0.3,2.4-0.8,3
	c-0.5,0.6-1.4,1-2.5,1h-0.2v-0.8h0.2c0.7,0,1.3-0.2,1.7-0.6C315,236.3,315.2,235.7,315.3,234.9z M313.9,234.9c0.3,0,0.6-0.1,0.8-0.3
	c0.3-0.2,0.4-0.4,0.6-0.7v-0.4c0-0.6-0.1-1.1-0.4-1.4c-0.3-0.4-0.6-0.6-1-0.6c-0.4,0-0.7,0.2-1,0.5c-0.2,0.3-0.4,0.7-0.4,1.2
	c0,0.5,0.1,0.9,0.3,1.2C313.2,234.7,313.5,234.9,313.9,234.9z M321,230.9v0.8h-0.2c-0.7,0-1.3,0.2-1.7,0.6c-0.4,0.4-0.7,1-0.7,1.7
	c0.4-0.4,0.9-0.6,1.5-0.6c0.6,0,1.1,0.2,1.5,0.7c0.4,0.4,0.6,1,0.6,1.7c0,0.7-0.2,1.3-0.6,1.8c-0.4,0.4-0.9,0.7-1.6,0.7
	c-0.7,0-1.2-0.3-1.7-0.8c-0.4-0.5-0.6-1.2-0.6-2v-0.3c0-1.3,0.3-2.3,0.8-3c0.6-0.7,1.4-1,2.5-1.1H321z M319.8,234.1
	c-0.3,0-0.6,0.1-0.9,0.3c-0.3,0.2-0.4,0.4-0.5,0.7v0.3c0,0.6,0.1,1.1,0.4,1.4c0.3,0.4,0.6,0.5,1,0.5c0.4,0,0.7-0.1,1-0.4
	c0.2-0.3,0.4-0.7,0.4-1.2c0-0.5-0.1-0.9-0.4-1.2C320.5,234.2,320.2,234.1,319.8,234.1z M326.6,230.9v0.8h-0.2
	c-0.7,0-1.3,0.2-1.7,0.6c-0.4,0.4-0.7,1-0.7,1.7c0.4-0.4,0.9-0.6,1.5-0.6c0.6,0,1.1,0.2,1.5,0.7c0.4,0.4,0.6,1,0.6,1.7
	c0,0.7-0.2,1.3-0.6,1.8c-0.4,0.4-0.9,0.7-1.6,0.7c-0.7,0-1.2-0.3-1.7-0.8c-0.4-0.5-0.6-1.2-0.6-2v-0.3c0-1.3,0.3-2.3,0.8-3
	c0.6-0.7,1.4-1,2.5-1.1H326.6z M325.4,234.1c-0.3,0-0.6,0.1-0.9,0.3c-0.3,0.2-0.4,0.4-0.5,0.7v0.3c0,0.6,0.1,1.1,0.4,1.4
	c0.3,0.4,0.6,0.5,1,0.5c0.4,0,0.7-0.1,1-0.4c0.2-0.3,0.4-0.7,0.4-1.2c0-0.5-0.1-0.9-0.4-1.2C326.1,234.2,325.8,234.1,325.4,234.1z"
	/>
<path class="st3" d="M64,253h69c1.1,0,2,0.9,2,2v6c0,1.1-0.9,2-2,2H64c-1.1,0-2-0.9-2-2v-6C62,253.9,62.9,253,64,253z"/>
<path class="st4" d="M203,253h69c1.1,0,2,0.9,2,2v6c0,1.1-0.9,2-2,2h-69c-1.1,0-2-0.9-2-2v-6C201,253.9,201.9,253,203,253z"/>
<path class="st5" d="M302,253h69c1.1,0,2,0.9,2,2v6c0,1.1-0.9,2-2,2h-69c-1.1,0-2-0.9-2-2v-6C300,253.9,300.9,253,302,253z"/>
<path class="st2" d="M25,251.5h6c0.8,0,1.5,0.7,1.5,1.5v6c0,0.8-0.7,1.5-1.5,1.5h-6c-0.8,0-1.5-0.7-1.5-1.5v-6
	C23.5,252.2,24.2,251.5,25,251.5z"/>
<path class="st3" d="M64,275h69c1.1,0,2,0.9,2,2v6c0,1.1-0.9,2-2,2H64c-1.1,0-2-0.9-2-2v-6C62,275.9,62.9,275,64,275z"/>
<path class="st4" d="M203,275h69c1.1,0,2,0.9,2,2v6c0,1.1-0.9,2-2,2h-69c-1.1,0-2-0.9-2-2v-6C201,275.9,201.9,275,203,275z"/>
<path class="st5" d="M302,275h69c1.1,0,2,0.9,2,2v6c0,1.1-0.9,2-2,2h-69c-1.1,0-2-0.9-2-2v-6C300,275.9,300.9,275,302,275z"/>
<path class="st2" d="M25,273.5h6c0.8,0,1.5,0.7,1.5,1.5v6c0,0.8-0.7,1.5-1.5,1.5h-6c-0.8,0-1.5-0.7-1.5-1.5v-6
	C23.5,274.2,24.2,273.5,25,273.5z"/>
<path class="st3" d="M64,297h69c1.1,0,2,0.9,2,2v6c0,1.1-0.9,2-2,2H64c-1.1,0-2-0.9-2-2v-6C62,297.9,62.9,297,64,297z"/>
<path class="st4" d="M203,297h69c1.1,0,2,0.9,2,2v6c0,1.1-0.9,2-2,2h-69c-1.1,0-2-0.9-2-2v-6C201,297.9,201.9,297,203,297z"/>
<path class="st5" d="M302,297h69c1.1,0,2,0.9,2,2v6c0,1.1-0.9,2-2,2h-69c-1.1,0-2-0.9-2-2v-6C300,297.9,300.9,297,302,297z"/>
<path class="st2" d="M25,295.5h6c0.8,0,1.5,0.7,1.5,1.5v6c0,0.8-0.7,1.5-1.5,1.5h-6c-0.8,0-1.5-0.7-1.5-1.5v-6
	C23.5,296.2,24.2,295.5,25,295.5z"/>
<path class="st3" d="M64,319h69c1.1,0,2,0.9,2,2v6c0,1.1-0.9,2-2,2H64c-1.1,0-2-0.9-2-2v-6C62,319.9,62.9,319,64,319z"/>
<path class="st4" d="M203,319h69c1.1,0,2,0.9,2,2v6c0,1.1-0.9,2-2,2h-69c-1.1,0-2-0.9-2-2v-6C201,319.9,201.9,319,203,319z"/>
<path class="st5" d="M302,319h69c1.1,0,2,0.9,2,2v6c0,1.1-0.9,2-2,2h-69c-1.1,0-2-0.9-2-2v-6C300,319.9,300.9,319,302,319z"/>
<path class="st2" d="M25,317.5h6c0.8,0,1.5,0.7,1.5,1.5v6c0,0.8-0.7,1.5-1.5,1.5h-6c-0.8,0-1.5-0.7-1.5-1.5v-6
	C23.5,318.2,24.2,317.5,25,317.5z"/>
<path class="st6" d="M79.3,210.2l1.1-5.4h1.2L80,212h-1.2l-1.4-5.2l-1.4,5.2h-1.2l-1.6-7.1h1.2l1.1,5.3l1.4-5.3h1L79.3,210.2z
	 M82,209.3c0-0.5,0.1-1,0.3-1.4c0.2-0.4,0.5-0.7,0.9-1c0.4-0.2,0.8-0.3,1.3-0.3c0.7,0,1.3,0.2,1.7,0.7c0.4,0.5,0.7,1.1,0.7,1.8
	l0,0.3c0,0.5-0.1,1-0.3,1.4c-0.2,0.4-0.5,0.7-0.9,1c-0.4,0.2-0.8,0.3-1.3,0.3c-0.7,0-1.3-0.2-1.8-0.7C82.3,210.9,82,210.2,82,209.3
	L82,209.3z M83.2,209.4c0,0.5,0.1,1,0.3,1.3c0.2,0.3,0.5,0.5,0.9,0.5c0.4,0,0.7-0.2,0.9-0.5c0.2-0.3,0.3-0.8,0.3-1.4
	c0-0.5-0.1-1-0.3-1.3c-0.2-0.3-0.5-0.5-0.9-0.5c-0.4,0-0.7,0.2-0.9,0.5C83.3,208.3,83.2,208.8,83.2,209.4z M90.7,207.8
	c-0.2,0-0.3,0-0.5,0c-0.5,0-0.9,0.2-1.1,0.6v3.6h-1.2v-5.3h1.1l0,0.6c0.3-0.5,0.7-0.7,1.2-0.7c0.2,0,0.3,0,0.4,0.1L90.7,207.8z
	 M93.2,209.7l-0.5,0.5v1.7h-1.2v-7.5h1.2v4.3l0.4-0.5l1.5-1.6h1.4l-2,2.2l2.2,3.1h-1.4L93.2,209.7z M99,209.3c0-0.5,0.1-1,0.3-1.4
	c0.2-0.4,0.5-0.7,0.9-1c0.4-0.2,0.8-0.3,1.3-0.3c0.7,0,1.3,0.2,1.7,0.7c0.4,0.5,0.7,1.1,0.7,1.8l0,0.3c0,0.5-0.1,1-0.3,1.4
	c-0.2,0.4-0.5,0.7-0.9,1c-0.4,0.2-0.8,0.3-1.3,0.3c-0.7,0-1.3-0.2-1.8-0.7C99.2,210.9,99,210.2,99,209.3L99,209.3z M100.1,209.4
	c0,0.5,0.1,1,0.3,1.3c0.2,0.3,0.5,0.5,0.9,0.5s0.7-0.2,0.9-0.5c0.2-0.3,0.3-0.8,0.3-1.4c0-0.5-0.1-1-0.3-1.3
	c-0.2-0.3-0.5-0.5-0.9-0.5c-0.4,0-0.7,0.2-0.9,0.5C100.3,208.3,100.1,208.8,100.1,209.4z M107.6,207.8c-0.2,0-0.3,0-0.5,0
	c-0.5,0-0.9,0.2-1.1,0.6v3.6h-1.2v-5.3h1.1l0,0.6c0.3-0.5,0.7-0.7,1.2-0.7c0.2,0,0.3,0,0.4,0.1L107.6,207.8z M108.1,209.3
	c0-0.8,0.2-1.5,0.6-2c0.4-0.5,0.9-0.7,1.5-0.7c0.6,0,1,0.2,1.4,0.6v-2.7h1.2v7.5h-1.1l-0.1-0.5c-0.4,0.4-0.8,0.6-1.4,0.6
	c-0.6,0-1.1-0.2-1.5-0.7C108.3,210.9,108.1,210.2,108.1,209.3z M109.2,209.4c0,0.5,0.1,1,0.3,1.3c0.2,0.3,0.5,0.4,0.9,0.4
	c0.5,0,0.8-0.2,1.1-0.6v-2.3c-0.2-0.4-0.6-0.6-1.1-0.6c-0.4,0-0.7,0.2-0.9,0.5C109.4,208.4,109.2,208.8,109.2,209.4z M116.3,212.1
	c-0.8,0-1.4-0.2-1.8-0.7c-0.5-0.5-0.7-1.1-0.7-1.9v-0.1c0-0.5,0.1-1,0.3-1.4c0.2-0.4,0.5-0.7,0.9-1c0.4-0.2,0.8-0.3,1.2-0.3
	c0.7,0,1.3,0.2,1.7,0.7c0.4,0.5,0.6,1.1,0.6,1.9v0.5h-3.5c0,0.4,0.2,0.8,0.4,1c0.3,0.3,0.6,0.4,1,0.4c0.5,0,1-0.2,1.3-0.7l0.6,0.6
	c-0.2,0.3-0.5,0.6-0.8,0.7C117.1,212,116.7,212.1,116.3,212.1z M116.1,207.6c-0.3,0-0.6,0.1-0.8,0.3c-0.2,0.2-0.3,0.5-0.4,1h2.3
	v-0.1c0-0.4-0.1-0.7-0.3-0.9C116.7,207.7,116.4,207.6,116.1,207.6z M122.1,207.8c-0.2,0-0.3,0-0.5,0c-0.5,0-0.9,0.2-1.1,0.6v3.6
	h-1.2v-5.3h1.1l0,0.6c0.3-0.5,0.7-0.7,1.2-0.7c0.2,0,0.3,0,0.4,0.1L122.1,207.8z"/>
<path class="st6" d="M223.4,210.2c0-0.3-0.1-0.6-0.3-0.7c-0.2-0.2-0.6-0.3-1.2-0.5c-0.6-0.2-1-0.4-1.4-0.6c-0.6-0.4-1-0.9-1-1.6
	c0-0.6,0.2-1,0.7-1.4c0.5-0.4,1.1-0.6,1.8-0.6c0.5,0,0.9,0.1,1.3,0.3c0.4,0.2,0.7,0.4,0.9,0.8c0.2,0.3,0.3,0.7,0.3,1.1h-1.2
	c0-0.4-0.1-0.7-0.4-0.9c-0.2-0.2-0.6-0.3-1-0.3c-0.4,0-0.7,0.1-0.9,0.3c-0.2,0.2-0.3,0.4-0.3,0.7c0,0.3,0.1,0.5,0.4,0.7
	c0.2,0.2,0.6,0.3,1.2,0.5c0.6,0.2,1,0.3,1.3,0.6c0.3,0.2,0.6,0.5,0.7,0.7c0.2,0.3,0.2,0.6,0.2,1c0,0.6-0.2,1.1-0.7,1.4
	c-0.5,0.3-1.1,0.5-1.8,0.5c-0.5,0-1-0.1-1.4-0.3c-0.4-0.2-0.8-0.5-1-0.8c-0.2-0.3-0.4-0.7-0.4-1.2h1.2c0,0.4,0.1,0.7,0.4,0.9
	c0.3,0.2,0.6,0.3,1.1,0.3c0.4,0,0.8-0.1,1-0.3C223.3,210.7,223.4,210.5,223.4,210.2z M227.1,205.4v1.3h0.9v0.9h-0.9v2.9
	c0,0.2,0,0.3,0.1,0.4c0.1,0.1,0.2,0.1,0.4,0.1c0.1,0,0.3,0,0.4,0v0.9c-0.3,0.1-0.5,0.1-0.8,0.1c-0.9,0-1.4-0.5-1.4-1.5v-3h-0.9v-0.9
	h0.9v-1.3H227.1z M232.1,212c-0.1-0.1-0.1-0.3-0.1-0.5c-0.4,0.4-0.8,0.6-1.4,0.6c-0.5,0-1-0.2-1.3-0.5c-0.3-0.3-0.5-0.7-0.5-1.1
	c0-0.6,0.2-1,0.6-1.3c0.4-0.3,1-0.5,1.8-0.5h0.7v-0.3c0-0.3-0.1-0.5-0.2-0.7c-0.2-0.2-0.4-0.2-0.7-0.2c-0.3,0-0.5,0.1-0.7,0.2
	c-0.2,0.1-0.3,0.3-0.3,0.5h-1.2c0-0.3,0.1-0.6,0.3-0.8c0.2-0.3,0.5-0.5,0.8-0.6c0.3-0.1,0.7-0.2,1.1-0.2c0.6,0,1.1,0.2,1.5,0.5
	c0.4,0.3,0.6,0.7,0.6,1.3v2.4c0,0.5,0.1,0.9,0.2,1.1v0.1H232.1z M230.8,211.1c0.2,0,0.5-0.1,0.7-0.2c0.2-0.1,0.4-0.3,0.5-0.5v-1
	h-0.6c-0.4,0-0.8,0.1-1,0.2c-0.2,0.2-0.3,0.4-0.3,0.6c0,0.2,0.1,0.4,0.2,0.5C230.4,211.1,230.6,211.1,230.8,211.1z M235.9,205.4v1.3
	h0.9v0.9h-0.9v2.9c0,0.2,0,0.3,0.1,0.4c0.1,0.1,0.2,0.1,0.4,0.1c0.1,0,0.3,0,0.4,0v0.9c-0.3,0.1-0.5,0.1-0.8,0.1
	c-0.9,0-1.4-0.5-1.4-1.5v-3h-0.9v-0.9h0.9v-1.3H235.9z M240.9,211.5c-0.3,0.4-0.8,0.6-1.5,0.6c-0.6,0-1-0.2-1.3-0.5
	c-0.3-0.3-0.4-0.8-0.4-1.5v-3.4h1.2v3.4c0,0.7,0.3,1,0.8,1c0.6,0,1-0.2,1.2-0.6v-3.8h1.2v5.3h-1.1L240.9,211.5z M246.2,210.6
	c0-0.2-0.1-0.4-0.3-0.5c-0.2-0.1-0.5-0.2-0.9-0.3c-0.4-0.1-0.7-0.2-1-0.3c-0.6-0.3-0.9-0.7-0.9-1.2c0-0.5,0.2-0.8,0.6-1.1
	s0.9-0.5,1.5-0.5c0.6,0,1.1,0.2,1.5,0.5c0.4,0.3,0.6,0.7,0.6,1.2h-1.2c0-0.2-0.1-0.4-0.3-0.6c-0.2-0.2-0.4-0.2-0.7-0.2
	c-0.3,0-0.5,0.1-0.6,0.2c-0.2,0.1-0.2,0.3-0.2,0.5c0,0.2,0.1,0.3,0.2,0.4s0.5,0.2,0.9,0.3c0.5,0.1,0.8,0.2,1.1,0.4
	c0.3,0.1,0.5,0.3,0.6,0.5c0.1,0.2,0.2,0.4,0.2,0.7c0,0.5-0.2,0.9-0.6,1.2c-0.4,0.3-0.9,0.4-1.5,0.4c-0.4,0-0.8-0.1-1.2-0.2
	c-0.3-0.2-0.6-0.4-0.8-0.6c-0.2-0.3-0.3-0.6-0.3-0.9h1.2c0,0.3,0.1,0.5,0.3,0.6c0.2,0.2,0.5,0.2,0.8,0.2c0.3,0,0.6-0.1,0.7-0.2
	C246.1,210.9,246.2,210.8,246.2,210.6z"/>
<path class="st6" d="M304.8,209H302v3h-1.2v-7.1h4.5v1H302v2.1h2.9V209z M309.1,212c-0.1-0.1-0.1-0.3-0.1-0.5
	c-0.4,0.4-0.8,0.6-1.4,0.6c-0.5,0-1-0.2-1.3-0.5c-0.3-0.3-0.5-0.7-0.5-1.1c0-0.6,0.2-1,0.6-1.3c0.4-0.3,1-0.5,1.8-0.5h0.7v-0.3
	c0-0.3-0.1-0.5-0.2-0.7c-0.2-0.2-0.4-0.2-0.7-0.2c-0.3,0-0.5,0.1-0.7,0.2c-0.2,0.1-0.3,0.3-0.3,0.5h-1.2c0-0.3,0.1-0.6,0.3-0.8
	c0.2-0.3,0.5-0.5,0.8-0.6c0.3-0.1,0.7-0.2,1.1-0.2c0.6,0,1.1,0.2,1.5,0.5c0.4,0.3,0.6,0.7,0.6,1.3v2.4c0,0.5,0.1,0.9,0.2,1.1v0.1
	H309.1z M307.8,211.1c0.2,0,0.5-0.1,0.7-0.2c0.2-0.1,0.4-0.3,0.5-0.5v-1h-0.6c-0.4,0-0.8,0.1-1,0.2c-0.2,0.2-0.3,0.4-0.3,0.6
	c0,0.2,0.1,0.4,0.2,0.5C307.3,211.1,307.5,211.1,307.8,211.1z M313.5,211.1c0.3,0,0.5-0.1,0.7-0.3c0.2-0.2,0.3-0.4,0.3-0.6h1.1
	c0,0.3-0.1,0.6-0.3,0.9c-0.2,0.3-0.5,0.5-0.8,0.7c-0.3,0.2-0.7,0.2-1.1,0.2c-0.7,0-1.3-0.2-1.8-0.7c-0.4-0.5-0.6-1.1-0.6-2v-0.1
	c0-0.8,0.2-1.4,0.6-1.9c0.4-0.5,1-0.7,1.8-0.7c0.6,0,1.1,0.2,1.5,0.6c0.4,0.4,0.6,0.8,0.6,1.4h-1.1c0-0.3-0.1-0.6-0.3-0.7
	c-0.2-0.2-0.4-0.3-0.7-0.3c-0.4,0-0.7,0.1-0.9,0.4c-0.2,0.3-0.3,0.7-0.3,1.3v0.2c0,0.6,0.1,1,0.3,1.3
	C312.8,211,313.1,211.1,313.5,211.1z M318.9,212.1c-0.8,0-1.4-0.2-1.8-0.7c-0.5-0.5-0.7-1.1-0.7-1.9v-0.1c0-0.5,0.1-1,0.3-1.4
	c0.2-0.4,0.5-0.7,0.9-1c0.4-0.2,0.8-0.3,1.2-0.3c0.7,0,1.3,0.2,1.7,0.7c0.4,0.5,0.6,1.1,0.6,1.9v0.5h-3.5c0,0.4,0.2,0.8,0.4,1
	c0.3,0.3,0.6,0.4,1,0.4c0.5,0,1-0.2,1.3-0.7l0.6,0.6c-0.2,0.3-0.5,0.6-0.8,0.7C319.7,212,319.4,212.1,318.9,212.1z M318.8,207.6
	c-0.3,0-0.6,0.1-0.8,0.3c-0.2,0.2-0.3,0.5-0.4,1h2.3v-0.1c0-0.4-0.1-0.7-0.3-0.9C319.4,207.7,319.1,207.6,318.8,207.6z M327.3,210
	h-1.1l-0.4,2h-0.8l0.4-2h-1.1v-0.8h1.3l0.3-1.5h-1.2v-0.8h1.3l0.4-2h0.8l-0.4,2h1.1l0.4-2h0.8l-0.4,2h1v0.8h-1.2l-0.3,1.5h1.1v0.8
	h-1.2l-0.4,2H327L327.3,210z M326.4,209.2h1.1l0.3-1.5h-1.1L326.4,209.2z"/>
<path class="st7" d="M243,154.5h17c0.8,0,1.5,0.7,1.5,1.5v17c0,0.8-0.7,1.5-1.5,1.5h-17c-0.8,0-1.5-0.7-1.5-1.5v-17
	C241.5,155.2,242.2,154.5,243,154.5z"/>
<path class="st8" d="M255.4,167.2c0,1-0.8,1.8-1.8,1.8h-6.1c-1,0-1.8-0.8-1.8-1.8v-2.1H245v2.1c0,1.4,1.1,2.5,2.5,2.5h6.1
	c1.4,0,2.5-1.1,2.5-2.5v-2.1h-0.7V167.2z"/>
<path class="st8" d="M254.6,160.1c-2.3,0.1-4.2,2-4.2,4.3c0,0.3,0,0.5,0.1,0.7c0.3-2,2.1-3.5,4.1-3.6v2l2.8-2.8l-2.8-2.8V160.1z"/>
<path class="st7" d="M215,154.5h17c0.8,0,1.5,0.7,1.5,1.5v17c0,0.8-0.7,1.5-1.5,1.5h-17c-0.8,0-1.5-0.7-1.5-1.5v-17
	C213.5,155.2,214.2,154.5,215,154.5z"/>
<path class="st8" d="M223.6,163.5h3.4v1.5h-3.4v3.8H222V165h-3.4v-1.5h3.4V160h1.5V163.5z"/>
<path class="st7" d="M187,154.5h17c0.8,0,1.5,0.7,1.5,1.5v17c0,0.8-0.7,1.5-1.5,1.5h-17c-0.8,0-1.5-0.7-1.5-1.5v-17
	C185.5,155.2,186.2,154.5,187,154.5z"/>
<rect x="190" y="159" class="st8" width="4" height="4"/>
<rect x="190" y="165" class="st8" width="4" height="4"/>
<rect x="196" y="159" class="st8" width="4" height="4"/>
<rect x="196" y="165" class="st8" width="4" height="4"/>
<path d="M53.6,166.1L55,159h2l-2.2,10h-2.1l-1.6-6.7l-1.6,6.7h-2.1l-2.2-10h2l1.3,7.1l1.6-7.1H52L53.6,166.1z M57.5,165.2
	c0-0.7,0.1-1.4,0.4-2c0.3-0.6,0.7-1,1.2-1.3c0.5-0.3,1.2-0.5,1.9-0.5c1,0,1.8,0.3,2.4,0.9c0.6,0.6,1,1.4,1.1,2.5l0,0.5
	c0,1.1-0.3,2-1,2.7c-0.6,0.7-1.5,1-2.5,1s-1.9-0.3-2.6-1C57.8,167.4,57.5,166.5,57.5,165.2L57.5,165.2z M59.5,165.4
	c0,0.7,0.1,1.2,0.4,1.6c0.3,0.4,0.6,0.6,1.1,0.6c0.5,0,0.9-0.2,1.1-0.5c0.3-0.4,0.4-1,0.4-1.8c0-0.7-0.1-1.2-0.4-1.6
	c-0.3-0.4-0.6-0.6-1.1-0.6c-0.5,0-0.9,0.2-1.1,0.6C59.6,164,59.5,164.6,59.5,165.4z M69.9,163.5c-0.3,0-0.5-0.1-0.7-0.1
	c-0.7,0-1.2,0.3-1.5,0.8v4.8h-2v-7.4h1.9l0.1,0.9c0.4-0.7,0.9-1,1.6-1c0.2,0,0.4,0,0.6,0.1L69.9,163.5z M73.5,166l-0.7,0.7v2.3h-2
	v-10.5h2v5.8l0.4-0.5l1.9-2.2h2.4l-2.7,3.1l2.9,4.3h-2.3L73.5,166z M90.1,164.2c0,1-0.2,1.8-0.5,2.6c-0.3,0.7-0.8,1.3-1.5,1.7
	c-0.6,0.4-1.4,0.6-2.2,0.6c-0.8,0-1.6-0.2-2.2-0.6c-0.6-0.4-1.1-1-1.5-1.7c-0.4-0.7-0.5-1.6-0.5-2.5v-0.5c0-1,0.2-1.8,0.5-2.6
	c0.4-0.7,0.9-1.3,1.5-1.7c0.6-0.4,1.4-0.6,2.2-0.6c0.8,0,1.6,0.2,2.2,0.6c0.6,0.4,1.1,1,1.5,1.7c0.4,0.7,0.5,1.6,0.5,2.6V164.2z
	 M88,163.8c0-1-0.2-1.8-0.6-2.4c-0.4-0.5-0.9-0.8-1.6-0.8c-0.7,0-1.2,0.3-1.6,0.8c-0.4,0.5-0.6,1.3-0.6,2.4v0.5c0,1,0.2,1.8,0.6,2.4
	c0.4,0.6,0.9,0.8,1.6,0.8c0.7,0,1.2-0.3,1.6-0.8c0.4-0.5,0.6-1.3,0.6-2.4V163.8z M95.6,163.5c-0.3,0-0.5-0.1-0.7-0.1
	c-0.7,0-1.2,0.3-1.5,0.8v4.8h-2v-7.4h1.9l0.1,0.9c0.4-0.7,0.9-1,1.6-1c0.2,0,0.4,0,0.6,0.1L95.6,163.5z M96.1,165.2
	c0-1.2,0.3-2.1,0.8-2.8c0.5-0.7,1.2-1,2.1-1c0.7,0,1.3,0.3,1.8,0.8v-3.8h2V169H101l-0.1-0.8c-0.5,0.6-1.1,0.9-1.9,0.9
	c-0.9,0-1.6-0.3-2.1-1C96.4,167.4,96.1,166.5,96.1,165.2z M98.1,165.4c0,0.7,0.1,1.2,0.4,1.6c0.2,0.4,0.6,0.6,1.1,0.6
	c0.6,0,1-0.3,1.3-0.8v-2.9c-0.2-0.5-0.7-0.8-1.3-0.8C98.6,163.1,98.1,163.8,98.1,165.4z M107.7,169.1c-1.1,0-2-0.3-2.7-1
	c-0.7-0.7-1-1.6-1-2.7v-0.2c0-0.7,0.1-1.4,0.4-2c0.3-0.6,0.7-1,1.2-1.4c0.5-0.3,1.1-0.5,1.8-0.5c1,0,1.8,0.3,2.4,1
	c0.6,0.6,0.9,1.5,0.9,2.7v0.8h-4.7c0.1,0.5,0.3,0.9,0.6,1.2c0.3,0.3,0.7,0.4,1.2,0.4c0.8,0,1.4-0.3,1.8-0.8l1,1.1
	c-0.3,0.4-0.7,0.7-1.2,1C108.9,169,108.3,169.1,107.7,169.1z M107.5,163.1c-0.4,0-0.7,0.1-1,0.4c-0.2,0.3-0.4,0.6-0.5,1.1h2.7v-0.2
	c0-0.4-0.1-0.8-0.4-1C108.2,163.2,107.9,163.1,107.5,163.1z M116,163.5c-0.3,0-0.5-0.1-0.7-0.1c-0.7,0-1.2,0.3-1.5,0.8v4.8h-2v-7.4
	h1.9l0.1,0.9c0.4-0.7,0.9-1,1.6-1c0.2,0,0.4,0,0.6,0.1L116,163.5z M121,167c0-0.2-0.1-0.4-0.4-0.6c-0.2-0.1-0.6-0.3-1.1-0.4
	c-1.8-0.4-2.6-1.1-2.6-2.2c0-0.7,0.3-1.2,0.8-1.6c0.5-0.4,1.3-0.7,2.1-0.7c0.9,0,1.7,0.2,2.2,0.7c0.6,0.4,0.8,1,0.8,1.7h-2
	c0-0.3-0.1-0.5-0.3-0.7c-0.2-0.2-0.5-0.3-0.9-0.3c-0.3,0-0.6,0.1-0.8,0.2c-0.2,0.2-0.3,0.3-0.3,0.6c0,0.2,0.1,0.4,0.3,0.5
	c0.2,0.1,0.6,0.2,1.1,0.3c0.5,0.1,0.9,0.2,1.2,0.3c1,0.4,1.6,1,1.6,2c0,0.7-0.3,1.2-0.9,1.6c-0.6,0.4-1.3,0.6-2.2,0.6
	c-0.6,0-1.2-0.1-1.7-0.3c-0.5-0.2-0.9-0.5-1.1-0.9c-0.3-0.4-0.4-0.8-0.4-1.3h1.9c0,0.4,0.1,0.6,0.4,0.8c0.2,0.2,0.6,0.3,1,0.3
	c0.4,0,0.7-0.1,0.9-0.2C120.9,167.4,121,167.2,121,167z"/>
<path d="M23.4,164.9l2.1,0.2v0c0.1,0.3,0.2,0.5,0.4,0.8l-1.3,1.5c-0.1,0.2-0.1,0.4,0,0.6l1.5,1.4c0.2,0.2,0.4,0.2,0.6,0l1.6-1.2
	c0.3,0.1,0.6,0.2,0.9,0.3l0.3,1.9c0,0.2,0.2,0.4,0.5,0.4h2.1c0.2,0,0.4-0.2,0.5-0.4l0.3-1.9c0.3-0.1,0.6-0.2,0.9-0.3l1.6,1.2
	c0.2,0.1,0.5,0.1,0.6,0l1.5-1.4c0.2-0.2,0.2-0.4,0-0.6l-1.3-1.5c0.1-0.3,0.3-0.5,0.4-0.8l2.1-0.2v0c0.2,0,0.4-0.2,0.4-0.4v-2
	c0-0.2-0.2-0.4-0.4-0.4l-2.1-0.2c-0.1-0.3-0.2-0.5-0.4-0.8l1.3-1.5c0.1-0.2,0.1-0.4,0-0.6l-1.5-1.4c-0.2-0.2-0.4-0.2-0.6,0l-1.6,1.2
	c-0.3-0.1-0.6-0.2-0.9-0.3l-0.3-1.9c0-0.2-0.2-0.4-0.5-0.4h-2.1c-0.2,0-0.4,0.2-0.5,0.4l-0.3,1.9c-0.3,0.1-0.6,0.2-0.9,0.3l-1.6-1.2
	c-0.2-0.1-0.5-0.1-0.6,0l-1.5,1.4c-0.2,0.2-0.2,0.4,0,0.6l1.3,1.5c-0.1,0.3-0.3,0.5-0.4,0.8l-2.1,0.2c-0.2,0-0.4,0.2-0.4,0.4v2
	C23,164.7,23.2,164.9,23.4,164.9L23.4,164.9z M23.9,162.9l2-0.2c0.2,0,0.3-0.2,0.4-0.3c0.1-0.4,0.3-0.8,0.5-1.1
	c0.1-0.2,0.1-0.4,0-0.5l-1.2-1.5l0.9-0.9l1.6,1.1h0c0.2,0.1,0.4,0.1,0.5,0c0.4-0.2,0.8-0.4,1.2-0.5c0.2,0,0.3-0.2,0.3-0.4l0.2-1.8
	h1.3l0.2,1.8c0,0.2,0.2,0.3,0.3,0.4c0.4,0.1,0.8,0.3,1.2,0.5c0.2,0.1,0.4,0.1,0.5,0l1.6-1.1l0.9,0.9l-1.2,1.5
	c-0.1,0.1-0.1,0.3,0,0.5c0.2,0.4,0.4,0.7,0.5,1.1c0,0.2,0.2,0.3,0.4,0.3l2,0.2v1.2l-2,0.2c-0.2,0-0.3,0.1-0.4,0.3
	c-0.1,0.4-0.3,0.8-0.5,1.1c-0.1,0.2-0.1,0.4,0,0.5l1.2,1.5l-0.9,0.9l-1.6-1.1v0c-0.2-0.1-0.4-0.1-0.5,0c-0.4,0.2-0.8,0.4-1.2,0.5
	c-0.2,0-0.3,0.2-0.3,0.4l-0.2,1.8h-1.3l-0.2-1.8h0c0-0.2-0.2-0.3-0.3-0.4c-0.4-0.1-0.8-0.3-1.2-0.5c-0.2-0.1-0.4-0.1-0.5,0l-1.6,1.1
	l-0.9-0.9l1.2-1.5c0.1-0.1,0.1-0.3,0-0.5c-0.2-0.4-0.4-0.7-0.5-1.1c0-0.2-0.2-0.3-0.4-0.3l-2-0.2L23.9,162.9z M31,166.6
	c0.9,0,1.7-0.3,2.3-0.9c0.6-0.6,1-1.4,1-2.2c0-0.8-0.3-1.6-1-2.2c-0.6-0.6-1.5-0.9-2.3-0.9s-1.7,0.3-2.3,0.9c-0.6,0.6-1,1.4-1,2.2
	c0,0.8,0.3,1.6,1,2.2C29.3,166.3,30.1,166.6,31,166.6L31,166.6z M31,161.3c1,0,1.8,0.5,2.2,1.4c0.4,0.8,0.2,1.8-0.5,2.4
	c-0.7,0.6-1.7,0.8-2.6,0.5c-0.9-0.3-1.5-1.1-1.5-2C28.6,162.3,29.7,161.3,31,161.3L31,161.3z"/>
<path d="M143,156h14c4.4,0,8,3.6,8,8l0,0c0,4.4-3.6,8-8,8h-14c-4.4,0-8-3.6-8-8l0,0C135,159.6,138.6,156,143,156z"/>
<path class="st9" d="M149.1,160.9v0.8H149c-0.7,0-1.3,0.2-1.7,0.6c-0.4,0.4-0.7,1-0.7,1.7c0.4-0.4,0.9-0.6,1.5-0.6
	c0.6,0,1.1,0.2,1.5,0.7c0.4,0.4,0.6,1,0.6,1.7c0,0.7-0.2,1.3-0.6,1.8c-0.4,0.4-0.9,0.7-1.6,0.7c-0.7,0-1.2-0.3-1.7-0.8
	c-0.4-0.5-0.6-1.2-0.6-2v-0.3c0-1.3,0.3-2.3,0.8-3c0.6-0.7,1.4-1,2.5-1.1H149.1z M147.9,164.1c-0.3,0-0.6,0.1-0.9,0.3
	c-0.3,0.2-0.4,0.4-0.5,0.7v0.3c0,0.6,0.1,1.1,0.4,1.4c0.3,0.4,0.6,0.5,1,0.5c0.4,0,0.7-0.1,1-0.4c0.2-0.3,0.4-0.7,0.4-1.2
	c0-0.5-0.1-0.9-0.4-1.2C148.7,164.2,148.3,164.1,147.9,164.1z M155.8,161.4l-2.9,6.6h-0.9l2.9-6.4H151v-0.7h4.8V161.4z"/>
<g>
	<path class="st9" d="M323.6,30h212.8c4.8,0,8.6,3.9,8.6,8.6v309.8c0,4.8-3.9,8.6-8.6,8.6H323.6c-4.8,0-8.6-3.9-8.6-8.6V38.6
		C315,33.9,318.9,30,323.6,30z"/>
	<path class="st10" d="M323.6,30.2h212.8c4.6,0,8.4,3.7,8.4,8.4v309.8c0,4.6-3.7,8.4-8.4,8.4H323.6c-4.6,0-8.4-3.7-8.4-8.4V38.6
		C315.2,34,319,30.2,323.6,30.2z"/>
</g>
<path d="M346.3,89.2h-2.7V92h-0.8v-6.4h4v0.7h-3.1v2.2h2.7V89.2z M349.8,88c-0.1,0-0.3,0-0.4,0c-0.5,0-0.9,0.2-1.1,0.7V92h-0.8v-4.8
	h0.8l0,0.5c0.3-0.4,0.6-0.6,1.1-0.6c0.2,0,0.3,0,0.4,0.1V88z M350.2,89.6c0-0.5,0.1-0.9,0.3-1.3c0.2-0.4,0.4-0.7,0.8-0.9
	c0.3-0.2,0.7-0.3,1.1-0.3c0.6,0,1.2,0.2,1.6,0.7c0.4,0.4,0.6,1,0.6,1.8v0.1c0,0.5-0.1,0.9-0.3,1.2c-0.2,0.4-0.4,0.7-0.8,0.9
	c-0.3,0.2-0.7,0.3-1.1,0.3c-0.6,0-1.2-0.2-1.6-0.7C350.4,91,350.2,90.4,350.2,89.6L350.2,89.6z M351,89.7c0,0.5,0.1,1,0.4,1.3
	c0.2,0.3,0.6,0.5,1,0.5c0.4,0,0.7-0.2,1-0.5c0.2-0.3,0.4-0.8,0.4-1.4c0-0.5-0.1-0.9-0.4-1.3c-0.2-0.3-0.6-0.5-1-0.5
	c-0.4,0-0.7,0.2-1,0.5S351,89.1,351,89.7z M356.3,87.2l0,0.5c0.3-0.4,0.8-0.6,1.4-0.6c0.7,0,1.1,0.3,1.4,0.8
	c0.2-0.2,0.4-0.4,0.6-0.6c0.3-0.1,0.6-0.2,0.9-0.2c1,0,1.6,0.6,1.6,1.7V92h-0.8v-3.1c0-0.3-0.1-0.6-0.2-0.8
	c-0.2-0.2-0.4-0.3-0.8-0.3c-0.3,0-0.6,0.1-0.8,0.3c-0.2,0.2-0.3,0.4-0.3,0.7V92h-0.8v-3.1c0-0.7-0.3-1-1-1c-0.5,0-0.9,0.2-1.1,0.7
	V92h-0.8v-4.8H356.3z"/>
<path d="M346.4,166h-2.8v2.3h3.2v0.7h-4.1v-6.4h4v0.7h-3.2v2.1h2.8V166z M348.5,164.2l0,0.6c0.4-0.5,0.8-0.7,1.4-0.7
	c1,0,1.5,0.6,1.5,1.7v3.1h-0.8v-3.1c0-0.3-0.1-0.6-0.2-0.8c-0.2-0.2-0.4-0.2-0.7-0.2c-0.3,0-0.5,0.1-0.7,0.2
	c-0.2,0.1-0.4,0.3-0.5,0.6v3.4h-0.8v-4.8H348.5z M352.5,166.6c0-0.7,0.2-1.3,0.5-1.8c0.3-0.4,0.8-0.7,1.4-0.7c0.6,0,1,0.2,1.3,0.6
	v-2.5h0.8v6.8h-0.7l0-0.5c-0.3,0.4-0.8,0.6-1.4,0.6c-0.6,0-1-0.2-1.3-0.7C352.7,168,352.5,167.4,352.5,166.6L352.5,166.6z
	 M353.3,166.7c0,0.5,0.1,1,0.3,1.3c0.2,0.3,0.5,0.5,0.9,0.5c0.5,0,0.9-0.2,1.1-0.7v-2.2c-0.2-0.4-0.6-0.7-1.1-0.7
	c-0.4,0-0.7,0.2-0.9,0.5C353.4,165.6,353.3,166.1,353.3,166.7z M360.1,169v-6.4h1.8c0.6,0,1,0.1,1.5,0.4c0.4,0.2,0.8,0.6,1,1.1
	c0.2,0.5,0.4,1,0.4,1.6v0.4c0,0.6-0.1,1.1-0.4,1.6c-0.2,0.5-0.6,0.8-1,1c-0.4,0.2-0.9,0.4-1.5,0.4H360.1z M361,163.3v5h0.9
	c0.6,0,1.2-0.2,1.5-0.6c0.4-0.4,0.5-1,0.5-1.7v-0.4c0-0.7-0.2-1.3-0.5-1.7c-0.3-0.4-0.8-0.6-1.5-0.6H361z M368.9,169
	c0-0.1-0.1-0.3-0.1-0.5c-0.4,0.4-0.8,0.6-1.4,0.6c-0.5,0-0.9-0.1-1.2-0.4c-0.3-0.3-0.4-0.6-0.4-1c0-0.5,0.2-0.9,0.6-1.2
	c0.4-0.3,0.9-0.4,1.6-0.4h0.8v-0.4c0-0.3-0.1-0.5-0.3-0.7c-0.2-0.2-0.4-0.3-0.8-0.3c-0.3,0-0.5,0.1-0.7,0.2
	c-0.2,0.1-0.3,0.3-0.3,0.5h-0.8c0-0.2,0.1-0.5,0.3-0.7c0.2-0.2,0.4-0.4,0.7-0.5c0.3-0.1,0.6-0.2,1-0.2c0.5,0,1,0.1,1.3,0.4
	c0.3,0.3,0.5,0.6,0.5,1.1v2.2c0,0.4,0.1,0.8,0.2,1v0.1H368.9z M367.5,168.4c0.3,0,0.5-0.1,0.7-0.2c0.2-0.1,0.4-0.3,0.5-0.5v-1h-0.6
	c-1,0-1.5,0.3-1.5,0.9c0,0.3,0.1,0.5,0.3,0.6C367,168.3,367.2,168.4,367.5,168.4z M371.9,163.1v1.2h0.9v0.6h-0.9v2.9
	c0,0.2,0,0.3,0.1,0.4c0.1,0.1,0.2,0.1,0.4,0.1c0.1,0,0.2,0,0.4-0.1v0.7c-0.2,0.1-0.4,0.1-0.6,0.1c-0.4,0-0.6-0.1-0.8-0.3
	c-0.2-0.2-0.3-0.5-0.3-0.9v-2.9h-0.9v-0.6h0.9v-1.2H371.9z M375.7,169.1c-0.6,0-1.2-0.2-1.6-0.6c-0.4-0.4-0.6-1-0.6-1.7v-0.1
	c0-0.5,0.1-0.9,0.3-1.3c0.2-0.4,0.4-0.7,0.8-0.9c0.3-0.2,0.7-0.3,1.1-0.3c0.6,0,1.1,0.2,1.4,0.6c0.3,0.4,0.5,1,0.5,1.7v0.3h-3.2
	c0,0.5,0.1,0.8,0.4,1.1c0.3,0.3,0.6,0.4,1,0.4c0.3,0,0.5-0.1,0.7-0.2c0.2-0.1,0.4-0.3,0.5-0.5l0.5,0.4
	C377.1,168.8,376.5,169.1,375.7,169.1z M375.6,164.8c-0.3,0-0.6,0.1-0.8,0.4c-0.2,0.2-0.4,0.6-0.4,1h2.4v-0.1c0-0.4-0.1-0.7-0.3-1
	C376.2,164.9,376,164.8,375.6,164.8z"/>
<path class="st11" d="M476.5,96c0,2.5-2,4.5-4.5,4.5h-75c-2.5,0-4.5-2-4.5-4.5V81c0-2.5,2-4.5,4.5-4.5h75c2.5,0,4.5,2,4.5,4.5V96z"
	/>
<path d="M406.2,92h-0.8v-5.4l-1.6,0.6v-0.7l2.3-0.9h0.1V92z M411.3,92h-0.8v-5.4l-1.6,0.6v-0.7l2.3-0.9h0.1V92z M413.9,92.5h-0.7
	l2.7-6.9h0.7L413.9,92.5z M421.5,92h-4.2v-0.6l2.2-2.5c0.3-0.4,0.6-0.7,0.7-0.9c0.1-0.2,0.2-0.5,0.2-0.7c0-0.3-0.1-0.6-0.3-0.8
	c-0.2-0.2-0.5-0.3-0.8-0.3c-0.4,0-0.7,0.1-0.9,0.3c-0.2,0.2-0.3,0.5-0.3,1h-0.8c0-0.6,0.2-1.1,0.6-1.4c0.4-0.4,0.9-0.5,1.5-0.5
	c0.6,0,1.1,0.2,1.4,0.5c0.3,0.3,0.5,0.7,0.5,1.2c0,0.6-0.4,1.4-1.2,2.2l-1.7,1.9h3.2V92z M425.1,92h-0.8v-5.4l-1.6,0.6v-0.7l2.3-0.9
	h0.1V92z M427.7,92.5H427l2.7-6.9h0.7L427.7,92.5z M435.4,92h-4.2v-0.6l2.2-2.5c0.3-0.4,0.6-0.7,0.7-0.9c0.1-0.2,0.2-0.5,0.2-0.7
	c0-0.3-0.1-0.6-0.3-0.8c-0.2-0.2-0.5-0.3-0.8-0.3c-0.4,0-0.7,0.1-0.9,0.3c-0.2,0.2-0.3,0.5-0.3,1H431c0-0.6,0.2-1.1,0.6-1.4
	c0.4-0.4,0.9-0.5,1.5-0.5c0.6,0,1.1,0.2,1.4,0.5c0.3,0.3,0.5,0.7,0.5,1.2c0,0.6-0.4,1.4-1.2,2.2l-1.7,1.9h3.2V92z M440.2,89.3
	c0,1-0.2,1.7-0.5,2.1c-0.3,0.5-0.8,0.7-1.5,0.7c-0.7,0-1.2-0.2-1.5-0.7c-0.3-0.5-0.5-1.1-0.5-2v-1.1c0-0.9,0.2-1.6,0.5-2.1
	c0.3-0.5,0.8-0.7,1.5-0.7c0.7,0,1.2,0.2,1.5,0.7c0.3,0.4,0.5,1.1,0.5,2V89.3z M439.4,88.2c0-0.7-0.1-1.2-0.3-1.5
	c-0.2-0.3-0.5-0.5-0.9-0.5c-0.4,0-0.7,0.2-0.9,0.5c-0.2,0.3-0.3,0.8-0.3,1.4v1.3c0,0.7,0.1,1.2,0.3,1.5c0.2,0.3,0.5,0.5,0.9,0.5
	c0.4,0,0.7-0.2,0.9-0.5c0.2-0.3,0.3-0.8,0.3-1.5V88.2z M445.5,92h-4.2v-0.6l2.2-2.5c0.3-0.4,0.6-0.7,0.7-0.9
	c0.1-0.2,0.2-0.5,0.2-0.7c0-0.3-0.1-0.6-0.3-0.8c-0.2-0.2-0.5-0.3-0.8-0.3c-0.4,0-0.7,0.1-0.9,0.3c-0.2,0.2-0.3,0.5-0.3,1h-0.8
	c0-0.6,0.2-1.1,0.6-1.4c0.4-0.4,0.9-0.5,1.5-0.5c0.6,0,1.1,0.2,1.4,0.5c0.3,0.3,0.5,0.7,0.5,1.2c0,0.6-0.4,1.4-1.2,2.2l-1.7,1.9h3.2
	V92z M450.3,89.3c0,1-0.2,1.7-0.5,2.1c-0.3,0.5-0.8,0.7-1.5,0.7c-0.7,0-1.2-0.2-1.5-0.7c-0.3-0.5-0.5-1.1-0.5-2v-1.1
	c0-0.9,0.2-1.6,0.5-2.1c0.3-0.5,0.8-0.7,1.5-0.7c0.7,0,1.2,0.2,1.5,0.7c0.3,0.4,0.5,1.1,0.5,2V89.3z M449.5,88.2
	c0-0.7-0.1-1.2-0.3-1.5c-0.2-0.3-0.5-0.5-0.9-0.5c-0.4,0-0.7,0.2-0.9,0.5c-0.2,0.3-0.3,0.8-0.3,1.4v1.3c0,0.7,0.1,1.2,0.3,1.5
	c0.2,0.3,0.5,0.5,0.9,0.5c0.4,0,0.7-0.2,0.9-0.5c0.2-0.3,0.3-0.8,0.3-1.5V88.2z"/>
<path class="st11" d="M476.5,173c0,2.5-2,4.5-4.5,4.5h-75c-2.5,0-4.5-2-4.5-4.5v-15c0-2.5,2-4.5,4.5-4.5h75c2.5,0,4.5,2,4.5,4.5V173
	z"/>
<path d="M406.2,169h-0.8v-5.4l-1.6,0.6v-0.7l2.3-0.9h0.1V169z M412.8,169h-4.2v-0.6l2.2-2.5c0.3-0.4,0.6-0.7,0.7-0.9
	c0.1-0.2,0.2-0.5,0.2-0.7c0-0.3-0.1-0.6-0.3-0.8c-0.2-0.2-0.5-0.3-0.8-0.3c-0.4,0-0.7,0.1-0.9,0.3c-0.2,0.2-0.3,0.5-0.3,1h-0.8
	c0-0.6,0.2-1.1,0.6-1.4c0.4-0.4,0.9-0.5,1.5-0.5c0.6,0,1.1,0.2,1.4,0.5c0.3,0.3,0.5,0.7,0.5,1.2c0,0.6-0.4,1.4-1.2,2.2l-1.7,1.9h3.2
	V169z M413.9,169.5h-0.7l2.7-6.9h0.7L413.9,169.5z M421.5,169h-4.2v-0.6l2.2-2.5c0.3-0.4,0.6-0.7,0.7-0.9c0.1-0.2,0.2-0.5,0.2-0.7
	c0-0.3-0.1-0.6-0.3-0.8c-0.2-0.2-0.5-0.3-0.8-0.3c-0.4,0-0.7,0.1-0.9,0.3c-0.2,0.2-0.3,0.5-0.3,1h-0.8c0-0.6,0.2-1.1,0.6-1.4
	c0.4-0.4,0.9-0.5,1.5-0.5c0.6,0,1.1,0.2,1.4,0.5c0.3,0.3,0.5,0.7,0.5,1.2c0,0.6-0.4,1.4-1.2,2.2l-1.7,1.9h3.2V169z M425.1,169h-0.8
	v-5.4l-1.6,0.6v-0.7l2.3-0.9h0.1V169z M427.7,169.5H427l2.7-6.9h0.7L427.7,169.5z M435.4,169h-4.2v-0.6l2.2-2.5
	c0.3-0.4,0.6-0.7,0.7-0.9c0.1-0.2,0.2-0.5,0.2-0.7c0-0.3-0.1-0.6-0.3-0.8c-0.2-0.2-0.5-0.3-0.8-0.3c-0.4,0-0.7,0.1-0.9,0.3
	c-0.2,0.2-0.3,0.5-0.3,1H431c0-0.6,0.2-1.1,0.6-1.4c0.4-0.4,0.9-0.5,1.5-0.5c0.6,0,1.1,0.2,1.4,0.5c0.3,0.3,0.5,0.7,0.5,1.2
	c0,0.6-0.4,1.4-1.2,2.2l-1.7,1.9h3.2V169z M440.2,166.3c0,1-0.2,1.7-0.5,2.1c-0.3,0.5-0.8,0.7-1.5,0.7c-0.7,0-1.2-0.2-1.5-0.7
	c-0.3-0.5-0.5-1.1-0.5-2v-1.1c0-0.9,0.2-1.6,0.5-2.1c0.3-0.5,0.8-0.7,1.5-0.7c0.7,0,1.2,0.2,1.5,0.7c0.3,0.4,0.5,1.1,0.5,2V166.3z
	 M439.4,165.2c0-0.7-0.1-1.2-0.3-1.5c-0.2-0.3-0.5-0.5-0.9-0.5c-0.4,0-0.7,0.2-0.9,0.5c-0.2,0.3-0.3,0.8-0.3,1.4v1.3
	c0,0.7,0.1,1.2,0.3,1.5c0.2,0.3,0.5,0.5,0.9,0.5c0.4,0,0.7-0.2,0.9-0.5c0.2-0.3,0.3-0.8,0.3-1.5V165.2z M445.5,169h-4.2v-0.6
	l2.2-2.5c0.3-0.4,0.6-0.7,0.7-0.9c0.1-0.2,0.2-0.5,0.2-0.7c0-0.3-0.1-0.6-0.3-0.8c-0.2-0.2-0.5-0.3-0.8-0.3c-0.4,0-0.7,0.1-0.9,0.3
	c-0.2,0.2-0.3,0.5-0.3,1h-0.8c0-0.6,0.2-1.1,0.6-1.4c0.4-0.4,0.9-0.5,1.5-0.5c0.6,0,1.1,0.2,1.4,0.5c0.3,0.3,0.5,0.7,0.5,1.2
	c0,0.6-0.4,1.4-1.2,2.2l-1.7,1.9h3.2V169z M450.3,166.3c0,1-0.2,1.7-0.5,2.1c-0.3,0.5-0.8,0.7-1.5,0.7c-0.7,0-1.2-0.2-1.5-0.7
	c-0.3-0.5-0.5-1.1-0.5-2v-1.1c0-0.9,0.2-1.6,0.5-2.1c0.3-0.5,0.8-0.7,1.5-0.7c0.7,0,1.2,0.2,1.5,0.7c0.3,0.4,0.5,1.1,0.5,2V166.3z
	 M449.5,165.2c0-0.7-0.1-1.2-0.3-1.5c-0.2-0.3-0.5-0.5-0.9-0.5c-0.4,0-0.7,0.2-0.9,0.5c-0.2,0.3-0.3,0.8-0.3,1.4v1.3
	c0,0.7,0.1,1.2,0.3,1.5c0.2,0.3,0.5,0.5,0.9,0.5c0.4,0,0.7-0.2,0.9-0.5c0.2-0.3,0.3-0.8,0.3-1.5V165.2z"/>
<path d="M342.7,128v-6.4h1.8c0.6,0,1,0.1,1.5,0.4c0.4,0.2,0.8,0.6,1,1.1c0.2,0.5,0.4,1,0.4,1.6v0.4c0,0.6-0.1,1.1-0.4,1.6
	c-0.2,0.5-0.6,0.8-1,1c-0.4,0.2-0.9,0.4-1.5,0.4H342.7z M343.6,122.3v5h0.9c0.7,0,1.2-0.2,1.5-0.6c0.4-0.4,0.5-1,0.5-1.7v-0.4
	c0-0.7-0.2-1.3-0.5-1.7c-0.3-0.4-0.8-0.6-1.4-0.6H343.6z M351.5,127.5c-0.3,0.4-0.8,0.6-1.4,0.6c-0.5,0-0.9-0.1-1.2-0.4
	c-0.3-0.3-0.4-0.7-0.4-1.3v-3.1h0.8v3.1c0,0.7,0.3,1.1,0.9,1.1c0.6,0,1-0.2,1.2-0.7v-3.5h0.8v4.8h-0.8L351.5,127.5z M355.8,124
	c-0.1,0-0.3,0-0.4,0c-0.5,0-0.9,0.2-1.1,0.7v3.4h-0.8v-4.8h0.8l0,0.5c0.3-0.4,0.6-0.6,1.1-0.6c0.2,0,0.3,0,0.4,0.1V124z M359.3,128
	c0-0.1-0.1-0.3-0.1-0.5c-0.4,0.4-0.8,0.6-1.4,0.6c-0.5,0-0.9-0.1-1.2-0.4c-0.3-0.3-0.4-0.6-0.4-1c0-0.5,0.2-0.9,0.6-1.2
	c0.4-0.3,0.9-0.4,1.6-0.4h0.8v-0.4c0-0.3-0.1-0.5-0.3-0.7c-0.2-0.2-0.4-0.3-0.8-0.3c-0.3,0-0.5,0.1-0.7,0.2
	c-0.2,0.1-0.3,0.3-0.3,0.5h-0.8c0-0.2,0.1-0.5,0.2-0.7c0.2-0.2,0.4-0.4,0.7-0.5c0.3-0.1,0.6-0.2,1-0.2c0.5,0,1,0.1,1.3,0.4
	c0.3,0.3,0.5,0.6,0.5,1.1v2.2c0,0.4,0.1,0.8,0.2,1v0.1H359.3z M357.9,127.4c0.3,0,0.5-0.1,0.7-0.2c0.2-0.1,0.4-0.3,0.5-0.5v-1h-0.6
	c-1,0-1.5,0.3-1.5,0.9c0,0.3,0.1,0.5,0.3,0.6S357.7,127.4,357.9,127.4z M362.4,122.1v1.2h0.9v0.6h-0.9v2.9c0,0.2,0,0.3,0.1,0.4
	c0.1,0.1,0.2,0.1,0.4,0.1c0.1,0,0.2,0,0.4-0.1v0.7c-0.2,0.1-0.4,0.1-0.6,0.1c-0.4,0-0.6-0.1-0.8-0.3c-0.2-0.2-0.3-0.5-0.3-0.9v-2.9
	h-0.9v-0.6h0.9v-1.2H362.4z M365.1,128h-0.8v-4.8h0.8V128z M364.2,122c0-0.1,0-0.2,0.1-0.3c0.1-0.1,0.2-0.1,0.4-0.1
	c0.2,0,0.3,0,0.4,0.1c0.1,0.1,0.1,0.2,0.1,0.3c0,0.1,0,0.2-0.1,0.3c-0.1,0.1-0.2,0.1-0.4,0.1c-0.2,0-0.3,0-0.4-0.1
	C364.2,122.2,364.2,122.1,364.2,122z M366.2,125.6c0-0.5,0.1-0.9,0.3-1.3c0.2-0.4,0.4-0.7,0.8-0.9c0.3-0.2,0.7-0.3,1.1-0.3
	c0.6,0,1.2,0.2,1.6,0.7c0.4,0.4,0.6,1,0.6,1.8v0.1c0,0.5-0.1,0.9-0.3,1.2c-0.2,0.4-0.4,0.7-0.8,0.9c-0.3,0.2-0.7,0.3-1.1,0.3
	c-0.6,0-1.2-0.2-1.6-0.7C366.4,127,366.2,126.4,366.2,125.6L366.2,125.6z M367,125.7c0,0.5,0.1,1,0.4,1.3c0.2,0.3,0.6,0.5,1,0.5
	c0.4,0,0.7-0.2,1-0.5c0.2-0.3,0.4-0.8,0.4-1.4c0-0.5-0.1-0.9-0.4-1.3c-0.2-0.3-0.6-0.5-1-0.5c-0.4,0-0.7,0.2-1,0.5
	C367.1,124.6,367,125.1,367,125.7z M372.3,123.2l0,0.6c0.4-0.5,0.8-0.7,1.4-0.7c1,0,1.5,0.6,1.5,1.7v3.1h-0.8v-3.1
	c0-0.3-0.1-0.6-0.2-0.8c-0.2-0.2-0.4-0.2-0.7-0.2c-0.3,0-0.5,0.1-0.7,0.2s-0.4,0.3-0.5,0.6v3.4h-0.8v-4.8H372.3z"/>
<path class="st11" d="M423.5,133c0,2.5-2,4.5-4.5,4.5h-22c-2.5,0-4.5-2-4.5-4.5v-15c0-2.5,2-4.5,4.5-4.5h22c2.5,0,4.5,2,4.5,4.5V133
	z"/>
<path d="M407,126.9h0.9v0.7H407v1.5h-0.8v-1.5h-2.9V127l2.9-4.4h0.9V126.9z M404.2,126.9h2v-3.1l-0.1,0.2L404.2,126.9z"/>
<path class="st11" d="M476.5,133c0,2.5-2,4.5-4.5,4.5h-36c-2.5,0-4.5-2-4.5-4.5v-15c0-2.5,2-4.5,4.5-4.5h36c2.5,0,4.5,2,4.5,4.5V133
	z"/>
<path d="M439.1,127l0.1,0.8l0.2-0.8l1.3-4.5h0.7l1.2,4.5l0.2,0.8l0.1-0.9l1-4.4h0.8l-1.6,6.4h-0.8l-1.3-4.7l-0.1-0.5l-0.1,0.5
	l-1.4,4.7h-0.8l-1.5-6.4h0.8L439.1,127z M447.4,129.1c-0.6,0-1.2-0.2-1.6-0.6c-0.4-0.4-0.6-1-0.6-1.7v-0.1c0-0.5,0.1-0.9,0.3-1.3
	c0.2-0.4,0.4-0.7,0.8-0.9c0.3-0.2,0.7-0.3,1.1-0.3c0.6,0,1.1,0.2,1.4,0.6c0.3,0.4,0.5,1,0.5,1.7v0.3h-3.2c0,0.5,0.1,0.8,0.4,1.1
	c0.3,0.3,0.6,0.4,1,0.4c0.3,0,0.5-0.1,0.7-0.2c0.2-0.1,0.4-0.3,0.5-0.5l0.5,0.4C448.8,128.8,448.2,129.1,447.4,129.1z M447.3,124.8
	c-0.3,0-0.6,0.1-0.8,0.4c-0.2,0.2-0.4,0.6-0.4,1h2.4v-0.1c0-0.4-0.1-0.7-0.3-1C447.9,124.9,447.7,124.8,447.3,124.8z M452.2,129.1
	c-0.6,0-1.2-0.2-1.6-0.6c-0.4-0.4-0.6-1-0.6-1.7v-0.1c0-0.5,0.1-0.9,0.3-1.3c0.2-0.4,0.4-0.7,0.8-0.9c0.3-0.2,0.7-0.3,1.1-0.3
	c0.6,0,1.1,0.2,1.4,0.6c0.3,0.4,0.5,1,0.5,1.7v0.3h-3.2c0,0.5,0.1,0.8,0.4,1.1c0.3,0.3,0.6,0.4,1,0.4c0.3,0,0.5-0.1,0.7-0.2
	c0.2-0.1,0.4-0.3,0.5-0.5l0.5,0.4C453.6,128.8,453,129.1,452.2,129.1z M452.1,124.8c-0.3,0-0.6,0.1-0.8,0.4c-0.2,0.2-0.4,0.6-0.4,1
	h2.4v-0.1c0-0.4-0.1-0.7-0.3-1C452.7,124.9,452.4,124.8,452.1,124.8z M456.3,126.8l-0.5,0.5v1.7H455v-6.8h0.8v4.1l0.4-0.5l1.5-1.6h1
	l-1.8,2l2.1,2.8h-1L456.3,126.8z M462.3,127.7c0-0.2-0.1-0.4-0.3-0.5c-0.2-0.1-0.5-0.2-0.9-0.3c-0.4-0.1-0.7-0.2-1-0.3
	c-0.2-0.1-0.4-0.3-0.5-0.4c-0.1-0.2-0.2-0.4-0.2-0.6c0-0.4,0.2-0.7,0.5-1c0.3-0.3,0.8-0.4,1.3-0.4c0.5,0,1,0.1,1.3,0.4
	c0.3,0.3,0.5,0.6,0.5,1.1h-0.8c0-0.2-0.1-0.4-0.3-0.6c-0.2-0.2-0.4-0.2-0.7-0.2c-0.3,0-0.5,0.1-0.7,0.2c-0.2,0.1-0.3,0.3-0.3,0.5
	c0,0.2,0.1,0.3,0.2,0.4c0.2,0.1,0.4,0.2,0.8,0.3c0.4,0.1,0.7,0.2,1,0.3c0.3,0.1,0.4,0.3,0.6,0.5c0.1,0.2,0.2,0.4,0.2,0.6
	c0,0.4-0.2,0.8-0.5,1c-0.3,0.3-0.8,0.4-1.3,0.4c-0.4,0-0.7-0.1-1-0.2s-0.5-0.3-0.7-0.6c-0.2-0.2-0.2-0.5-0.2-0.8h0.8
	c0,0.3,0.1,0.5,0.3,0.6c0.2,0.2,0.5,0.2,0.8,0.2c0.3,0,0.6-0.1,0.7-0.2C462.2,128.1,462.3,127.9,462.3,127.7z"/>
<path d="M345.3,60.8c0-0.4-0.1-0.7-0.4-0.9c-0.3-0.2-0.7-0.4-1.4-0.6c-0.7-0.2-1.2-0.4-1.6-0.7c-0.8-0.5-1.2-1.1-1.2-1.9
	c0-0.7,0.3-1.3,0.8-1.7c0.6-0.4,1.3-0.7,2.2-0.7c0.6,0,1.1,0.1,1.6,0.3c0.5,0.2,0.8,0.5,1.1,0.9c0.3,0.4,0.4,0.8,0.4,1.3h-1.5
	c0-0.4-0.1-0.8-0.4-1c-0.3-0.3-0.7-0.4-1.2-0.4c-0.5,0-0.9,0.1-1.1,0.3c-0.3,0.2-0.4,0.5-0.4,0.9c0,0.3,0.1,0.6,0.4,0.8
	c0.3,0.2,0.8,0.4,1.4,0.6c0.7,0.2,1.2,0.4,1.6,0.7c0.4,0.2,0.7,0.5,0.9,0.9c0.2,0.3,0.3,0.7,0.3,1.1c0,0.7-0.3,1.3-0.8,1.7
	c-0.5,0.4-1.3,0.6-2.2,0.6c-0.6,0-1.2-0.1-1.7-0.3c-0.5-0.2-0.9-0.5-1.2-0.9c-0.3-0.4-0.4-0.9-0.4-1.4h1.5c0,0.5,0.2,0.9,0.5,1.1
	c0.3,0.3,0.8,0.4,1.4,0.4c0.5,0,0.9-0.1,1.2-0.3C345.2,61.4,345.3,61.1,345.3,60.8z M350.6,62c0.4,0,0.7-0.1,0.9-0.3
	c0.2-0.2,0.4-0.5,0.4-0.8h1.3c0,0.4-0.1,0.8-0.4,1.1c-0.2,0.3-0.5,0.6-0.9,0.8c-0.4,0.2-0.8,0.3-1.3,0.3c-0.9,0-1.6-0.3-2.1-0.9
	c-0.5-0.6-0.8-1.4-0.8-2.4v-0.1c0-1,0.3-1.7,0.8-2.3c0.5-0.6,1.2-0.9,2.1-0.9c0.8,0,1.4,0.2,1.8,0.7c0.5,0.4,0.7,1,0.8,1.7h-1.3
	c0-0.4-0.1-0.7-0.4-0.9c-0.2-0.2-0.5-0.4-0.9-0.4c-0.5,0-0.8,0.2-1.1,0.5c-0.2,0.3-0.4,0.8-0.4,1.5v0.2c0,0.7,0.1,1.2,0.4,1.5
	C349.7,61.8,350.1,62,350.6,62z M355.7,57.4c0.5-0.5,1.1-0.8,1.8-0.8c1.4,0,2,0.8,2.1,2.3V63h-1.4v-4.1c0-0.4-0.1-0.7-0.3-0.9
	c-0.2-0.2-0.5-0.3-0.8-0.3c-0.6,0-1,0.3-1.3,0.8V63h-1.4v-9h1.4V57.4z M363.7,63.1c-0.9,0-1.6-0.3-2.2-0.8c-0.6-0.6-0.8-1.3-0.8-2.3
	v-0.2c0-0.6,0.1-1.2,0.4-1.7c0.2-0.5,0.6-0.9,1-1.2c0.4-0.3,0.9-0.4,1.5-0.4c0.9,0,1.5,0.3,2,0.8c0.5,0.6,0.7,1.3,0.7,2.3v0.6h-4.1
	c0,0.5,0.2,0.9,0.5,1.2c0.3,0.3,0.7,0.5,1.2,0.5c0.7,0,1.2-0.3,1.6-0.8l0.8,0.7c-0.3,0.4-0.6,0.7-1,0.9
	C364.7,63,364.2,63.1,363.7,63.1z M363.5,57.7c-0.4,0-0.7,0.1-0.9,0.4c-0.2,0.3-0.4,0.7-0.5,1.1h2.7v-0.1c0-0.5-0.2-0.8-0.4-1.1
	C364.2,57.8,363.9,57.7,363.5,57.7z M367.1,59.8c0-1,0.2-1.8,0.7-2.3c0.5-0.6,1.1-0.9,1.8-0.9c0.7,0,1.2,0.2,1.6,0.7V54h1.4v9h-1.3
	l-0.1-0.7c-0.4,0.5-1,0.8-1.7,0.8c-0.7,0-1.3-0.3-1.8-0.9C367.3,61.6,367.1,60.8,367.1,59.8z M368.5,59.9c0,0.6,0.1,1.1,0.4,1.5
	c0.2,0.4,0.6,0.5,1.1,0.5c0.6,0,1-0.3,1.3-0.8v-2.7c-0.3-0.5-0.7-0.8-1.3-0.8c-0.5,0-0.8,0.2-1.1,0.6
	C368.6,58.6,368.5,59.2,368.5,59.9z M378,62.4c-0.4,0.5-1,0.7-1.8,0.7c-0.7,0-1.2-0.2-1.6-0.6c-0.4-0.4-0.5-1-0.5-1.7v-4.1h1.4v4.1
	c0,0.8,0.3,1.2,1,1.2c0.7,0,1.2-0.2,1.4-0.7v-4.6h1.4V63H378L378,62.4z M382.3,63h-1.4v-9h1.4V63z M386.7,63.1
	c-0.9,0-1.6-0.3-2.2-0.8c-0.6-0.6-0.8-1.3-0.8-2.3v-0.2c0-0.6,0.1-1.2,0.4-1.7c0.2-0.5,0.6-0.9,1-1.2c0.4-0.3,0.9-0.4,1.5-0.4
	c0.9,0,1.5,0.3,2,0.8c0.5,0.6,0.7,1.3,0.7,2.3v0.6h-4.1c0,0.5,0.2,0.9,0.5,1.2c0.3,0.3,0.7,0.5,1.2,0.5c0.7,0,1.2-0.3,1.6-0.8
	l0.8,0.7c-0.3,0.4-0.6,0.7-1,0.9C387.7,63,387.2,63.1,386.7,63.1z M386.5,57.7c-0.4,0-0.7,0.1-0.9,0.4c-0.2,0.3-0.4,0.7-0.5,1.1h2.7
	v-0.1c0-0.5-0.2-0.8-0.4-1.1C387.2,57.8,386.9,57.7,386.5,57.7z M390.1,59.8c0-1,0.2-1.8,0.7-2.3c0.5-0.6,1.1-0.9,1.8-0.9
	c0.7,0,1.2,0.2,1.6,0.7V54h1.4v9h-1.3l-0.1-0.7c-0.4,0.5-1,0.8-1.7,0.8c-0.7,0-1.3-0.3-1.8-0.9C390.3,61.6,390.1,60.8,390.1,59.8z
	 M391.5,59.9c0,0.6,0.1,1.1,0.4,1.5c0.2,0.4,0.6,0.5,1.1,0.5c0.6,0,1-0.3,1.3-0.8v-2.7c-0.3-0.5-0.7-0.8-1.3-0.8
	c-0.5,0-0.8,0.2-1.1,0.6C391.6,58.6,391.5,59.2,391.5,59.9z M400.2,63v-8.5h2.5c0.8,0,1.4,0.2,2,0.5c0.6,0.3,1,0.8,1.4,1.4
	c0.3,0.6,0.5,1.3,0.5,2.1V59c0,0.8-0.2,1.5-0.5,2.1c-0.3,0.6-0.8,1.1-1.4,1.4c-0.6,0.3-1.3,0.5-2,0.5H400.2z M401.7,55.7v6.2h1
	c0.8,0,1.4-0.2,1.8-0.7c0.4-0.5,0.6-1.2,0.6-2.1v-0.5c0-0.9-0.2-1.6-0.6-2.1c-0.4-0.5-1-0.7-1.8-0.7H401.7z M411.7,63
	c-0.1-0.1-0.1-0.3-0.2-0.6c-0.5,0.5-1,0.7-1.7,0.7c-0.6,0-1.2-0.2-1.6-0.5c-0.4-0.4-0.6-0.8-0.6-1.3c0-0.7,0.2-1.2,0.8-1.6
	c0.5-0.4,1.2-0.5,2.2-0.5h0.9v-0.4c0-0.3-0.1-0.6-0.3-0.8c-0.2-0.2-0.5-0.3-0.8-0.3c-0.3,0-0.6,0.1-0.8,0.2
	c-0.2,0.2-0.3,0.4-0.3,0.6h-1.4c0-0.3,0.1-0.7,0.3-1c0.2-0.3,0.5-0.5,0.9-0.7c0.4-0.2,0.8-0.3,1.3-0.3c0.7,0,1.3,0.2,1.8,0.6
	c0.4,0.4,0.7,0.9,0.7,1.6v2.9c0,0.6,0.1,1,0.2,1.4V63H411.7z M410.1,62c0.3,0,0.5-0.1,0.8-0.2c0.2-0.1,0.4-0.3,0.6-0.6V60h-0.8
	c-0.5,0-0.9,0.1-1.2,0.3c-0.3,0.2-0.4,0.4-0.4,0.8c0,0.3,0.1,0.5,0.3,0.7C409.6,61.9,409.8,62,410.1,62z M416.2,55.1v1.5h1.1v1.1
	h-1.1v3.5c0,0.2,0,0.4,0.1,0.5c0.1,0.1,0.3,0.2,0.5,0.2c0.2,0,0.3,0,0.5-0.1V63c-0.3,0.1-0.6,0.1-0.9,0.1c-1.1,0-1.6-0.6-1.6-1.8
	v-3.6h-1v-1.1h1v-1.5H416.2z M421.2,63.1c-0.9,0-1.6-0.3-2.2-0.8c-0.6-0.6-0.8-1.3-0.8-2.3v-0.2c0-0.6,0.1-1.2,0.4-1.7
	c0.2-0.5,0.6-0.9,1-1.2c0.4-0.3,0.9-0.4,1.5-0.4c0.9,0,1.5,0.3,2,0.8c0.5,0.6,0.7,1.3,0.7,2.3v0.6h-4.1c0,0.5,0.2,0.9,0.5,1.2
	c0.3,0.3,0.7,0.5,1.2,0.5c0.7,0,1.2-0.3,1.6-0.8l0.8,0.7c-0.3,0.4-0.6,0.7-1,0.9C422.2,63,421.7,63.1,421.2,63.1z M421,57.7
	c-0.4,0-0.7,0.1-0.9,0.4c-0.2,0.3-0.4,0.7-0.5,1.1h2.7v-0.1c0-0.5-0.2-0.8-0.4-1.1C421.7,57.8,421.4,57.7,421,57.7z"/>
<path d="M345.3,210.8c0-0.4-0.1-0.7-0.4-0.9c-0.3-0.2-0.7-0.4-1.4-0.6c-0.7-0.2-1.2-0.4-1.6-0.7c-0.8-0.5-1.2-1.1-1.2-1.9
	c0-0.7,0.3-1.3,0.8-1.7c0.6-0.4,1.3-0.7,2.2-0.7c0.6,0,1.1,0.1,1.6,0.3c0.5,0.2,0.8,0.5,1.1,0.9c0.3,0.4,0.4,0.8,0.4,1.3h-1.5
	c0-0.4-0.1-0.8-0.4-1c-0.3-0.3-0.7-0.4-1.2-0.4c-0.5,0-0.9,0.1-1.1,0.3c-0.3,0.2-0.4,0.5-0.4,0.9c0,0.3,0.1,0.6,0.4,0.8
	c0.3,0.2,0.8,0.4,1.4,0.6c0.7,0.2,1.2,0.4,1.6,0.7c0.4,0.2,0.7,0.5,0.9,0.9c0.2,0.3,0.3,0.7,0.3,1.1c0,0.7-0.3,1.3-0.8,1.7
	c-0.5,0.4-1.3,0.6-2.2,0.6c-0.6,0-1.2-0.1-1.7-0.3c-0.5-0.2-0.9-0.5-1.2-0.9c-0.3-0.4-0.4-0.9-0.4-1.4h1.5c0,0.5,0.2,0.9,0.5,1.1
	c0.3,0.3,0.8,0.4,1.4,0.4c0.5,0,0.9-0.1,1.2-0.3C345.2,211.4,345.3,211.1,345.3,210.8z M349.8,205.1v1.5h1.1v1.1h-1.1v3.5
	c0,0.2,0,0.4,0.1,0.5c0.1,0.1,0.3,0.2,0.5,0.2c0.2,0,0.3,0,0.5-0.1v1.1c-0.3,0.1-0.6,0.1-0.9,0.1c-1.1,0-1.6-0.6-1.6-1.8v-3.6h-1
	v-1.1h1v-1.5H349.8z M355.8,213c-0.1-0.1-0.1-0.3-0.2-0.6c-0.5,0.5-1,0.7-1.7,0.7c-0.6,0-1.2-0.2-1.6-0.5c-0.4-0.4-0.6-0.8-0.6-1.3
	c0-0.7,0.2-1.2,0.8-1.6c0.5-0.4,1.2-0.5,2.2-0.5h0.9v-0.4c0-0.3-0.1-0.6-0.3-0.8c-0.2-0.2-0.5-0.3-0.8-0.3c-0.3,0-0.6,0.1-0.8,0.2
	c-0.2,0.2-0.3,0.4-0.3,0.6h-1.4c0-0.3,0.1-0.7,0.3-1c0.2-0.3,0.5-0.5,0.9-0.7c0.4-0.2,0.8-0.3,1.3-0.3c0.7,0,1.3,0.2,1.8,0.6
	c0.4,0.4,0.7,0.9,0.7,1.6v2.9c0,0.6,0.1,1,0.2,1.4v0.1H355.8z M354.2,212c0.3,0,0.5-0.1,0.8-0.2c0.2-0.1,0.4-0.3,0.6-0.6V210h-0.8
	c-0.5,0-0.9,0.1-1.2,0.3c-0.3,0.2-0.4,0.4-0.4,0.8c0,0.3,0.1,0.5,0.3,0.7C353.6,211.9,353.9,212,354.2,212z M360.2,205.1v1.5h1.1
	v1.1h-1.1v3.5c0,0.2,0,0.4,0.1,0.5c0.1,0.1,0.3,0.2,0.5,0.2c0.2,0,0.3,0,0.5-0.1v1.1c-0.3,0.1-0.6,0.1-0.9,0.1
	c-1.1,0-1.6-0.6-1.6-1.8v-3.6h-1v-1.1h1v-1.5H360.2z M366.3,212.4c-0.4,0.5-1,0.7-1.8,0.7c-0.7,0-1.2-0.2-1.6-0.6
	c-0.4-0.4-0.5-1-0.5-1.7v-4.1h1.4v4.1c0,0.8,0.3,1.2,1,1.2c0.7,0,1.2-0.2,1.4-0.7v-4.6h1.4v6.3h-1.3L366.3,212.4z M372.7,211.3
	c0-0.3-0.1-0.4-0.3-0.6c-0.2-0.1-0.6-0.2-1-0.4c-0.5-0.1-0.9-0.2-1.2-0.4c-0.7-0.3-1.1-0.8-1.1-1.5c0-0.5,0.2-1,0.7-1.4
	c0.5-0.4,1-0.6,1.8-0.6c0.8,0,1.4,0.2,1.8,0.6c0.5,0.4,0.7,0.9,0.7,1.5h-1.4c0-0.3-0.1-0.5-0.3-0.7c-0.2-0.2-0.5-0.3-0.8-0.3
	c-0.3,0-0.6,0.1-0.8,0.2c-0.2,0.1-0.3,0.3-0.3,0.6c0,0.2,0.1,0.4,0.3,0.5c0.2,0.1,0.6,0.2,1.1,0.4c0.6,0.1,1,0.3,1.3,0.4
	c0.3,0.2,0.6,0.4,0.7,0.6c0.2,0.2,0.2,0.5,0.2,0.9c0,0.6-0.2,1-0.7,1.4c-0.5,0.4-1.1,0.5-1.9,0.5c-0.5,0-1-0.1-1.4-0.3
	c-0.4-0.2-0.7-0.4-0.9-0.8c-0.2-0.3-0.3-0.7-0.3-1.1h1.4c0,0.3,0.1,0.6,0.4,0.8c0.2,0.2,0.5,0.3,0.9,0.3c0.4,0,0.7-0.1,0.9-0.2
	C372.6,211.7,372.7,211.5,372.7,211.3z"/>
<path class="st12" d="M423.5,246c0,2.5-2,4.5-4.5,4.5h-77c-2.5,0-4.5-2-4.5-4.5v-15c0-2.5,2-4.5,4.5-4.5h77c2.5,0,4.5,2,4.5,4.5V246
	z"/>
<path class="st13" d="M423.5,246c0,2.5-2,4.5-4.5,4.5h-38.5v-24H419c2.5,0,4.5,2,4.5,4.5V246z"/>
<path d="M352.2,236.3h-2.1v5.7h-0.8v-5.7h-2.1v-0.7h4.9V236.3z M355.4,242c0-0.1-0.1-0.3-0.1-0.5c-0.4,0.4-0.8,0.6-1.4,0.6
	c-0.5,0-0.9-0.1-1.2-0.4c-0.3-0.3-0.4-0.6-0.4-1c0-0.5,0.2-0.9,0.6-1.2c0.4-0.3,0.9-0.4,1.6-0.4h0.8v-0.4c0-0.3-0.1-0.5-0.3-0.7
	c-0.2-0.2-0.4-0.3-0.8-0.3c-0.3,0-0.5,0.1-0.7,0.2c-0.2,0.1-0.3,0.3-0.3,0.5h-0.8c0-0.2,0.1-0.5,0.2-0.7c0.2-0.2,0.4-0.4,0.7-0.5
	c0.3-0.1,0.6-0.2,1-0.2c0.5,0,1,0.1,1.3,0.4c0.3,0.3,0.5,0.6,0.5,1.1v2.2c0,0.4,0.1,0.8,0.2,1v0.1H355.4z M354.1,241.4
	c0.3,0,0.5-0.1,0.7-0.2c0.2-0.1,0.4-0.3,0.5-0.5v-1h-0.6c-1,0-1.5,0.3-1.5,0.9c0,0.3,0.1,0.5,0.3,0.6
	C353.6,241.3,353.8,241.4,354.1,241.4z M359.7,238c-0.1,0-0.3,0-0.4,0c-0.5,0-0.9,0.2-1.1,0.7v3.4h-0.8v-4.8h0.8l0,0.5
	c0.3-0.4,0.6-0.6,1.1-0.6c0.2,0,0.3,0,0.4,0.1V238z M360.1,239.6c0-0.7,0.2-1.3,0.5-1.8c0.3-0.4,0.8-0.7,1.4-0.7
	c0.6,0,1,0.2,1.4,0.6l0-0.5h0.7v4.6c0,0.6-0.2,1.1-0.5,1.5c-0.4,0.4-0.9,0.5-1.5,0.5c-0.3,0-0.7-0.1-1-0.2c-0.3-0.1-0.6-0.3-0.8-0.6
	l0.4-0.5c0.3,0.4,0.8,0.6,1.3,0.6c0.4,0,0.7-0.1,0.9-0.3c0.2-0.2,0.3-0.5,0.3-0.9v-0.4c-0.3,0.4-0.8,0.6-1.3,0.6
	c-0.6,0-1-0.2-1.4-0.7C360.3,241,360.1,240.4,360.1,239.6z M361,239.7c0,0.5,0.1,1,0.3,1.3c0.2,0.3,0.5,0.5,0.9,0.5
	c0.5,0,0.9-0.2,1.1-0.7v-2.2c-0.2-0.5-0.6-0.7-1.1-0.7c-0.4,0-0.7,0.2-0.9,0.5C361.1,238.6,361,239.1,361,239.7z M367.4,242.1
	c-0.6,0-1.2-0.2-1.6-0.6c-0.4-0.4-0.6-1-0.6-1.7v-0.1c0-0.5,0.1-0.9,0.3-1.3c0.2-0.4,0.4-0.7,0.8-0.9c0.3-0.2,0.7-0.3,1.1-0.3
	c0.6,0,1.1,0.2,1.4,0.6c0.3,0.4,0.5,1,0.5,1.7v0.3H366c0,0.5,0.1,0.8,0.4,1.1c0.3,0.3,0.6,0.4,1,0.4c0.3,0,0.5-0.1,0.7-0.2
	c0.2-0.1,0.4-0.3,0.5-0.5l0.5,0.4C368.8,241.8,368.2,242.1,367.4,242.1z M367.3,237.8c-0.3,0-0.6,0.1-0.8,0.4
	c-0.2,0.2-0.4,0.6-0.4,1h2.4v-0.1c0-0.4-0.1-0.7-0.3-1C367.9,237.9,367.6,237.8,367.3,237.8z M371.3,236.1v1.2h0.9v0.6h-0.9v2.9
	c0,0.2,0,0.3,0.1,0.4c0.1,0.1,0.2,0.1,0.4,0.1c0.1,0,0.2,0,0.4-0.1v0.7c-0.2,0.1-0.4,0.1-0.6,0.1c-0.4,0-0.6-0.1-0.8-0.3
	c-0.2-0.2-0.3-0.5-0.3-0.9v-2.9h-0.9v-0.6h0.9v-1.2H371.3z"/>
<path d="M394.3,240.3h-2.7L391,242h-0.9l2.4-6.4h0.7l2.4,6.4h-0.9L394.3,240.3z M391.9,239.6h2.2l-1.1-3L391.9,239.6z M397.8,240.9
	l1.2-3.7h0.8l-1.7,4.8h-0.6l-1.7-4.8h0.8L397.8,240.9z M400.3,239.6c0-0.5,0.1-0.9,0.3-1.3c0.2-0.4,0.4-0.7,0.8-0.9
	c0.3-0.2,0.7-0.3,1.1-0.3c0.6,0,1.2,0.2,1.6,0.7c0.4,0.4,0.6,1,0.6,1.8v0.1c0,0.5-0.1,0.9-0.3,1.2c-0.2,0.4-0.4,0.7-0.8,0.9
	c-0.3,0.2-0.7,0.3-1.1,0.3c-0.6,0-1.2-0.2-1.6-0.7C400.5,241,400.3,240.4,400.3,239.6L400.3,239.6z M401.2,239.7
	c0,0.5,0.1,1,0.4,1.3c0.2,0.3,0.6,0.5,1,0.5c0.4,0,0.7-0.2,1-0.5c0.2-0.3,0.4-0.8,0.4-1.4c0-0.5-0.1-0.9-0.4-1.3
	c-0.2-0.3-0.6-0.5-1-0.5c-0.4,0-0.7,0.2-1,0.5C401.3,238.6,401.2,239.1,401.2,239.7z M406.6,242h-0.8v-4.8h0.8V242z M405.7,236
	c0-0.1,0-0.2,0.1-0.3c0.1-0.1,0.2-0.1,0.4-0.1s0.3,0,0.4,0.1c0.1,0.1,0.1,0.2,0.1,0.3c0,0.1,0,0.2-0.1,0.3c-0.1,0.1-0.2,0.1-0.4,0.1
	s-0.3,0-0.4-0.1C405.7,236.2,405.7,236.1,405.7,236z M407.7,239.6c0-0.7,0.2-1.3,0.5-1.8c0.3-0.4,0.8-0.7,1.4-0.7
	c0.6,0,1,0.2,1.3,0.6v-2.5h0.8v6.8h-0.7l0-0.5c-0.3,0.4-0.8,0.6-1.4,0.6c-0.6,0-1-0.2-1.3-0.7C407.9,241,407.7,240.4,407.7,239.6
	L407.7,239.6z M408.5,239.7c0,0.5,0.1,1,0.3,1.3c0.2,0.3,0.5,0.5,0.9,0.5c0.5,0,0.9-0.2,1.1-0.7v-2.2c-0.2-0.4-0.6-0.7-1.1-0.7
	c-0.4,0-0.7,0.2-0.9,0.5C408.6,238.6,408.5,239.1,408.5,239.7z"/>
<line class="st11" x1="380.5" y1="226" x2="380.5" y2="251"/>
<path class="st2" d="M340,262.5h6c0.8,0,1.5,0.7,1.5,1.5v6c0,0.8-0.7,1.5-1.5,1.5h-6c-0.8,0-1.5-0.7-1.5-1.5v-6
	C338.5,263.2,339.2,262.5,340,262.5z"/>
<path d="M355.8,269.2h3.4v0.8h-4.3v-7.1h0.9V269.2z M363.3,270c-0.1-0.1-0.1-0.3-0.1-0.6c-0.4,0.4-0.9,0.7-1.5,0.7
	c-0.5,0-0.9-0.1-1.3-0.4c-0.3-0.3-0.5-0.7-0.5-1.1c0-0.6,0.2-1,0.6-1.3c0.4-0.3,1-0.5,1.8-0.5h0.9v-0.4c0-0.3-0.1-0.6-0.3-0.8
	c-0.2-0.2-0.5-0.3-0.8-0.3c-0.3,0-0.6,0.1-0.8,0.2c-0.2,0.2-0.3,0.4-0.3,0.6H360c0-0.3,0.1-0.5,0.3-0.8c0.2-0.2,0.4-0.4,0.8-0.6
	c0.3-0.1,0.7-0.2,1.1-0.2c0.6,0,1.1,0.2,1.4,0.5c0.3,0.3,0.5,0.7,0.5,1.3v2.4c0,0.5,0.1,0.9,0.2,1.2v0.1H363.3z M361.8,269.3
	c0.3,0,0.6-0.1,0.8-0.2c0.3-0.1,0.4-0.3,0.6-0.6v-1.1h-0.7c-1.1,0-1.7,0.3-1.7,1c0,0.3,0.1,0.5,0.3,0.7
	C361.3,269.2,361.5,269.3,361.8,269.3z M366.7,263.4v1.3h1v0.7h-1v3.3c0,0.2,0,0.4,0.1,0.5c0.1,0.1,0.2,0.2,0.5,0.2
	c0.1,0,0.2,0,0.4-0.1v0.7c-0.2,0.1-0.5,0.1-0.7,0.1c-0.4,0-0.7-0.1-0.9-0.4c-0.2-0.2-0.3-0.6-0.3-1v-3.3h-1v-0.7h1v-1.3H366.7z
	 M371,270.1c-0.7,0-1.3-0.2-1.7-0.7c-0.4-0.5-0.7-1.1-0.7-1.9v-0.2c0-0.5,0.1-1,0.3-1.4c0.2-0.4,0.5-0.7,0.8-1
	c0.4-0.2,0.8-0.4,1.2-0.4c0.7,0,1.2,0.2,1.6,0.7c0.4,0.5,0.6,1.1,0.6,1.9v0.4h-3.6c0,0.5,0.2,0.9,0.5,1.3c0.3,0.3,0.7,0.5,1.1,0.5
	c0.3,0,0.6-0.1,0.8-0.2c0.2-0.1,0.4-0.3,0.6-0.5l0.6,0.4C372.5,269.8,371.9,270.1,371,270.1z M370.9,265.4c-0.4,0-0.7,0.1-0.9,0.4
	c-0.2,0.3-0.4,0.6-0.5,1.1h2.6v-0.1c0-0.5-0.1-0.8-0.4-1.1C371.5,265.5,371.2,265.4,370.9,265.4z"/>
<path class="st2" d="M340,284.5h6c0.8,0,1.5,0.7,1.5,1.5v6c0,0.8-0.7,1.5-1.5,1.5h-6c-0.8,0-1.5-0.7-1.5-1.5v-6
	C338.5,285.2,339.2,284.5,340,284.5z"/>
<path d="M360.3,288.7c0,0.7-0.1,1.3-0.4,1.8c-0.2,0.5-0.6,0.9-1,1.2c-0.4,0.3-0.9,0.4-1.5,0.4c-0.6,0-1.1-0.1-1.5-0.4
	c-0.4-0.3-0.8-0.7-1-1.2c-0.2-0.5-0.4-1.1-0.4-1.8v-0.5c0-0.7,0.1-1.3,0.4-1.8c0.2-0.5,0.6-0.9,1-1.2c0.4-0.3,0.9-0.4,1.5-0.4
	c0.6,0,1.1,0.1,1.5,0.4c0.4,0.3,0.8,0.7,1,1.2c0.2,0.5,0.4,1.1,0.4,1.8V288.7z M359.4,288.2c0-0.8-0.2-1.5-0.5-1.9
	c-0.3-0.5-0.8-0.7-1.4-0.7c-0.6,0-1.1,0.2-1.4,0.7c-0.3,0.4-0.5,1.1-0.5,1.9v0.5c0,0.8,0.2,1.5,0.5,1.9c0.3,0.5,0.8,0.7,1.4,0.7
	c0.6,0,1.1-0.2,1.4-0.7c0.3-0.4,0.5-1.1,0.5-1.9V288.2z M362.4,286.7l0,0.7c0.4-0.5,0.9-0.8,1.6-0.8c1.1,0,1.7,0.6,1.7,1.9v3.5h-0.9
	v-3.5c0-0.4-0.1-0.7-0.3-0.8c-0.2-0.2-0.4-0.3-0.8-0.3c-0.3,0-0.6,0.1-0.8,0.2c-0.2,0.2-0.4,0.4-0.5,0.6v3.8h-0.9v-5.3H362.4z
	 M371.8,288.8c-0.8-0.2-1.4-0.5-1.8-0.9c-0.4-0.3-0.5-0.8-0.5-1.2c0-0.6,0.2-1,0.7-1.4c0.4-0.4,1-0.6,1.7-0.6c0.5,0,0.9,0.1,1.3,0.3
	c0.4,0.2,0.7,0.4,0.9,0.8c0.2,0.3,0.3,0.7,0.3,1.1h-0.9c0-0.4-0.1-0.8-0.4-1c-0.3-0.2-0.7-0.4-1.2-0.4c-0.5,0-0.8,0.1-1.1,0.3
	c-0.3,0.2-0.4,0.5-0.4,0.8c0,0.3,0.1,0.5,0.4,0.7c0.2,0.2,0.7,0.4,1.3,0.5c0.6,0.2,1.1,0.4,1.4,0.6c0.3,0.2,0.6,0.4,0.7,0.7
	c0.2,0.3,0.2,0.6,0.2,0.9c0,0.6-0.2,1-0.7,1.4c-0.4,0.3-1.1,0.5-1.8,0.5c-0.5,0-0.9-0.1-1.4-0.3c-0.4-0.2-0.8-0.4-1-0.8
	c-0.2-0.3-0.3-0.7-0.3-1.1h0.9c0,0.4,0.2,0.8,0.5,1c0.3,0.2,0.7,0.4,1.3,0.4c0.5,0,0.9-0.1,1.1-0.3c0.3-0.2,0.4-0.5,0.4-0.8
	s-0.1-0.6-0.4-0.8C372.9,289.2,372.4,289,371.8,288.8z M377.6,291.4c0.3,0,0.6-0.1,0.8-0.3c0.2-0.2,0.4-0.4,0.4-0.7h0.9
	c0,0.3-0.1,0.6-0.3,0.9c-0.2,0.3-0.4,0.5-0.8,0.7c-0.3,0.2-0.7,0.2-1,0.2c-0.7,0-1.3-0.2-1.7-0.7c-0.4-0.5-0.6-1.1-0.6-2v-0.2
	c0-0.5,0.1-1,0.3-1.4c0.2-0.4,0.5-0.7,0.8-0.9c0.4-0.2,0.8-0.3,1.3-0.3c0.6,0,1.1,0.2,1.5,0.5c0.4,0.4,0.6,0.8,0.6,1.4h-0.9
	c0-0.3-0.2-0.6-0.4-0.8c-0.2-0.2-0.5-0.3-0.9-0.3c-0.5,0-0.8,0.2-1.1,0.5c-0.3,0.3-0.4,0.8-0.4,1.4v0.2c0,0.6,0.1,1.1,0.4,1.4
	S377.1,291.4,377.6,291.4z M381.6,287.4c0.4-0.5,0.9-0.7,1.6-0.7c1.1,0,1.7,0.6,1.7,1.9v3.5H384v-3.5c0-0.4-0.1-0.7-0.3-0.8
	c-0.2-0.2-0.4-0.3-0.8-0.3c-0.3,0-0.5,0.1-0.8,0.2c-0.2,0.2-0.4,0.4-0.5,0.6v3.8h-0.9v-7.5h0.9V287.4z M388.4,292.1
	c-0.7,0-1.3-0.2-1.7-0.7c-0.5-0.5-0.7-1.1-0.7-1.9v-0.2c0-0.5,0.1-1,0.3-1.4c0.2-0.4,0.5-0.7,0.8-1c0.4-0.2,0.8-0.4,1.2-0.4
	c0.7,0,1.2,0.2,1.6,0.7c0.4,0.5,0.6,1.1,0.6,1.9v0.4h-3.6c0,0.5,0.2,0.9,0.5,1.3c0.3,0.3,0.7,0.5,1.1,0.5c0.3,0,0.6-0.1,0.8-0.2
	s0.4-0.3,0.6-0.5l0.6,0.4C390,291.8,389.3,292.1,388.4,292.1z M388.3,287.4c-0.4,0-0.7,0.1-0.9,0.4c-0.2,0.3-0.4,0.6-0.5,1.1h2.6
	v-0.1c0-0.5-0.1-0.8-0.4-1.1C389,287.5,388.7,287.4,388.3,287.4z M391.3,289.3c0-0.8,0.2-1.5,0.6-2c0.4-0.5,0.9-0.7,1.5-0.7
	c0.6,0,1.1,0.2,1.5,0.6v-2.8h0.9v7.5h-0.8l0-0.6c-0.4,0.4-0.9,0.7-1.5,0.7c-0.6,0-1.1-0.3-1.5-0.8
	C391.5,290.8,391.3,290.2,391.3,289.3L391.3,289.3z M392.2,289.4c0,0.6,0.1,1.1,0.4,1.4c0.2,0.3,0.6,0.5,1,0.5c0.6,0,1-0.3,1.3-0.8
	v-2.4c-0.3-0.5-0.7-0.7-1.2-0.7c-0.4,0-0.8,0.2-1,0.5C392.3,288.2,392.2,288.7,392.2,289.4z M400.4,291.5c-0.4,0.4-0.9,0.6-1.5,0.6
	c-0.6,0-1-0.2-1.3-0.5c-0.3-0.3-0.4-0.8-0.4-1.5v-3.4h0.9v3.4c0,0.8,0.3,1.2,1,1.2c0.7,0,1.1-0.3,1.4-0.8v-3.8h0.9v5.3h-0.9
	L400.4,291.5z M403.7,292h-0.9v-7.5h0.9V292z M407.3,292.1c-0.7,0-1.3-0.2-1.7-0.7c-0.4-0.5-0.7-1.1-0.7-1.9v-0.2
	c0-0.5,0.1-1,0.3-1.4c0.2-0.4,0.5-0.7,0.8-1c0.4-0.2,0.8-0.4,1.2-0.4c0.7,0,1.2,0.2,1.6,0.7c0.4,0.5,0.6,1.1,0.6,1.9v0.4h-3.6
	c0,0.5,0.2,0.9,0.5,1.3c0.3,0.3,0.7,0.5,1.1,0.5c0.3,0,0.6-0.1,0.8-0.2c0.2-0.1,0.4-0.3,0.6-0.5l0.6,0.4
	C408.9,291.8,408.2,292.1,407.3,292.1z M407.2,287.4c-0.4,0-0.7,0.1-0.9,0.4c-0.2,0.3-0.4,0.6-0.5,1.1h2.6v-0.1
	c0-0.5-0.1-0.8-0.4-1.1C407.9,287.5,407.6,287.4,407.2,287.4z"/>
<path class="st2" d="M340,306.5h6c0.8,0,1.5,0.7,1.5,1.5v6c0,0.8-0.7,1.5-1.5,1.5h-6c-0.8,0-1.5-0.7-1.5-1.5v-6
	C338.5,307.2,339.2,306.5,340,306.5z"/>
<path d="M360.1,311.7c-0.1,0.8-0.4,1.3-0.8,1.7c-0.5,0.4-1.1,0.6-1.9,0.6c-0.8,0-1.5-0.3-2-0.9c-0.5-0.6-0.8-1.4-0.8-2.4v-0.7
	c0-0.7,0.1-1.2,0.4-1.7c0.2-0.5,0.6-0.9,1-1.2c0.4-0.3,0.9-0.4,1.5-0.4c0.8,0,1.4,0.2,1.8,0.6c0.5,0.4,0.7,1,0.8,1.7h-0.9
	c-0.1-0.6-0.3-1-0.5-1.2c-0.3-0.3-0.6-0.4-1.1-0.4c-0.6,0-1.1,0.2-1.4,0.7c-0.3,0.4-0.5,1.1-0.5,1.9v0.7c0,0.8,0.2,1.4,0.5,1.8
	c0.3,0.5,0.8,0.7,1.4,0.7c0.5,0,0.9-0.1,1.2-0.4c0.3-0.2,0.5-0.6,0.6-1.2H360.1z M363.8,309.5c-0.1,0-0.3,0-0.4,0
	c-0.6,0-1,0.3-1.2,0.8v3.8h-0.9v-5.3h0.9l0,0.6c0.3-0.5,0.7-0.7,1.3-0.7c0.2,0,0.3,0,0.4,0.1V309.5z M365.6,314h-0.9v-5.3h0.9V314z
	 M364.6,307.3c0-0.1,0-0.3,0.1-0.4c0.1-0.1,0.2-0.2,0.4-0.2c0.2,0,0.3,0,0.4,0.2c0.1,0.1,0.1,0.2,0.1,0.4c0,0.1,0,0.3-0.1,0.4
	c-0.1,0.1-0.2,0.1-0.4,0.1c-0.2,0-0.3,0-0.4-0.1C364.6,307.6,364.6,307.5,364.6,307.3z M368.2,307.4v1.3h1v0.7h-1v3.3
	c0,0.2,0,0.4,0.1,0.5c0.1,0.1,0.2,0.2,0.4,0.2c0.1,0,0.2,0,0.4-0.1v0.7c-0.2,0.1-0.5,0.1-0.7,0.1c-0.4,0-0.7-0.1-0.9-0.4
	c-0.2-0.2-0.3-0.6-0.3-1v-3.3h-1v-0.7h1v-1.3H368.2z M371.3,314h-0.9v-5.3h0.9V314z M370.3,307.3c0-0.1,0-0.3,0.1-0.4
	c0.1-0.1,0.2-0.2,0.4-0.2c0.2,0,0.3,0,0.4,0.2c0.1,0.1,0.1,0.2,0.1,0.4c0,0.1,0,0.3-0.1,0.4c-0.1,0.1-0.2,0.1-0.4,0.1
	c-0.2,0-0.3,0-0.4-0.1C370.3,307.6,370.3,307.5,370.3,307.3z M374.8,313.4c0.3,0,0.6-0.1,0.8-0.3c0.2-0.2,0.4-0.4,0.4-0.7h0.9
	c0,0.3-0.1,0.6-0.3,0.9c-0.2,0.3-0.4,0.5-0.8,0.7c-0.3,0.2-0.7,0.2-1,0.2c-0.7,0-1.3-0.2-1.7-0.7c-0.4-0.5-0.6-1.1-0.6-2v-0.2
	c0-0.5,0.1-1,0.3-1.4c0.2-0.4,0.5-0.7,0.8-0.9c0.4-0.2,0.8-0.3,1.3-0.3c0.6,0,1.1,0.2,1.5,0.5c0.4,0.4,0.6,0.8,0.6,1.4h-0.9
	c0-0.3-0.2-0.6-0.4-0.8c-0.2-0.2-0.5-0.3-0.9-0.3c-0.5,0-0.8,0.2-1.1,0.5c-0.3,0.3-0.4,0.8-0.4,1.4v0.2c0,0.6,0.1,1.1,0.4,1.4
	C374,313.2,374.4,313.4,374.8,313.4z M381.2,314c-0.1-0.1-0.1-0.3-0.1-0.6c-0.4,0.4-0.9,0.7-1.5,0.7c-0.5,0-0.9-0.1-1.3-0.4
	c-0.3-0.3-0.5-0.7-0.5-1.1c0-0.6,0.2-1,0.6-1.3c0.4-0.3,1-0.5,1.8-0.5h0.9v-0.4c0-0.3-0.1-0.6-0.3-0.8c-0.2-0.2-0.5-0.3-0.8-0.3
	c-0.3,0-0.6,0.1-0.8,0.2c-0.2,0.2-0.3,0.4-0.3,0.6h-0.9c0-0.3,0.1-0.5,0.3-0.8c0.2-0.2,0.4-0.4,0.8-0.6c0.3-0.1,0.7-0.2,1.1-0.2
	c0.6,0,1.1,0.2,1.4,0.5c0.3,0.3,0.5,0.7,0.5,1.3v2.4c0,0.5,0.1,0.9,0.2,1.2v0.1H381.2z M379.7,313.3c0.3,0,0.6-0.1,0.8-0.2
	c0.3-0.1,0.4-0.3,0.6-0.6v-1.1h-0.7c-1.1,0-1.7,0.3-1.7,1c0,0.3,0.1,0.5,0.3,0.7C379.2,313.2,379.4,313.3,379.7,313.3z M384.4,314
	h-0.9v-7.5h0.9V314z"/>
<path class="st2" d="M340,328.5h6c0.8,0,1.5,0.7,1.5,1.5v6c0,0.8-0.7,1.5-1.5,1.5h-6c-0.8,0-1.5-0.7-1.5-1.5v-6
	C338.5,329.2,339.2,328.5,340,328.5z"/>
<path d="M360.1,333.7c-0.1,0.8-0.4,1.3-0.8,1.7c-0.5,0.4-1.1,0.6-1.9,0.6c-0.8,0-1.5-0.3-2-0.9c-0.5-0.6-0.8-1.4-0.8-2.4v-0.7
	c0-0.7,0.1-1.2,0.4-1.7c0.2-0.5,0.6-0.9,1-1.2c0.4-0.3,0.9-0.4,1.5-0.4c0.8,0,1.4,0.2,1.8,0.6c0.5,0.4,0.7,1,0.8,1.7h-0.9
	c-0.1-0.6-0.3-1-0.5-1.2c-0.3-0.3-0.6-0.4-1.1-0.4c-0.6,0-1.1,0.2-1.4,0.7c-0.3,0.4-0.5,1.1-0.5,1.9v0.7c0,0.8,0.2,1.4,0.5,1.8
	c0.3,0.5,0.8,0.7,1.4,0.7c0.5,0,0.9-0.1,1.2-0.4c0.3-0.2,0.5-0.6,0.6-1.2H360.1z M361,333.3c0-0.5,0.1-1,0.3-1.4
	c0.2-0.4,0.5-0.7,0.8-1c0.4-0.2,0.8-0.3,1.2-0.3c0.7,0,1.3,0.2,1.7,0.7c0.4,0.5,0.7,1.2,0.7,2v0.1c0,0.5-0.1,1-0.3,1.4
	c-0.2,0.4-0.5,0.7-0.8,1c-0.4,0.2-0.8,0.3-1.3,0.3c-0.7,0-1.3-0.2-1.7-0.7C361.2,334.9,361,334.2,361,333.3L361,333.3z M361.9,333.4
	c0,0.6,0.1,1.1,0.4,1.4c0.3,0.4,0.6,0.5,1.1,0.5c0.5,0,0.8-0.2,1.1-0.5c0.3-0.4,0.4-0.9,0.4-1.5c0-0.6-0.1-1-0.4-1.4
	c-0.3-0.4-0.6-0.5-1.1-0.5c-0.4,0-0.8,0.2-1.1,0.5C362,332.2,361.9,332.8,361.9,333.4z M367.8,330.7l0,0.6c0.4-0.5,0.9-0.7,1.6-0.7
	c0.7,0,1.2,0.3,1.5,0.9c0.2-0.3,0.4-0.5,0.7-0.6c0.3-0.2,0.6-0.2,1-0.2c1.2,0,1.7,0.6,1.8,1.8v3.5h-0.9v-3.5c0-0.4-0.1-0.7-0.3-0.8
	c-0.2-0.2-0.5-0.3-0.9-0.3c-0.3,0-0.6,0.1-0.8,0.3c-0.2,0.2-0.4,0.5-0.4,0.8v3.5h-0.9v-3.5c0-0.8-0.4-1.2-1.1-1.2
	c-0.6,0-1,0.3-1.2,0.8v3.9h-0.9v-5.3H367.8z M380.1,333.4c0,0.8-0.2,1.5-0.6,1.9c-0.4,0.5-0.9,0.7-1.5,0.7c-0.6,0-1.1-0.2-1.5-0.6
	v2.5h-0.9v-7.3h0.8l0,0.6c0.4-0.5,0.9-0.7,1.5-0.7c0.6,0,1.1,0.2,1.5,0.7C379.9,331.8,380.1,332.5,380.1,333.4L380.1,333.4z
	 M379.2,333.3c0-0.6-0.1-1.1-0.4-1.4c-0.3-0.3-0.6-0.5-1-0.5c-0.5,0-1,0.2-1.2,0.7v2.5c0.3,0.5,0.7,0.7,1.2,0.7c0.4,0,0.8-0.2,1-0.5
	C379.1,334.5,379.2,334,379.2,333.3z M382.3,336h-0.9v-7.5h0.9V336z M385.9,336.1c-0.7,0-1.3-0.2-1.7-0.7c-0.4-0.5-0.7-1.1-0.7-1.9
	v-0.2c0-0.5,0.1-1,0.3-1.4c0.2-0.4,0.5-0.7,0.8-1c0.4-0.2,0.8-0.4,1.2-0.4c0.7,0,1.2,0.2,1.6,0.7c0.4,0.5,0.6,1.1,0.6,1.9v0.4h-3.6
	c0,0.5,0.2,0.9,0.5,1.3c0.3,0.3,0.7,0.5,1.1,0.5c0.3,0,0.6-0.1,0.8-0.2c0.2-0.1,0.4-0.3,0.6-0.5l0.6,0.4
	C387.5,335.8,386.8,336.1,385.9,336.1z M385.8,331.4c-0.4,0-0.7,0.1-0.9,0.4c-0.2,0.3-0.4,0.6-0.5,1.1h2.6v-0.1
	c0-0.5-0.1-0.8-0.4-1.1C386.5,331.5,386.2,331.4,385.8,331.4z M390.2,329.4v1.3h1v0.7h-1v3.3c0,0.2,0,0.4,0.1,0.5
	c0.1,0.1,0.2,0.2,0.4,0.2c0.1,0,0.2,0,0.4-0.1v0.7c-0.2,0.1-0.5,0.1-0.7,0.1c-0.4,0-0.7-0.1-0.9-0.4c-0.2-0.2-0.3-0.6-0.3-1v-3.3h-1
	v-0.7h1v-1.3H390.2z M394.5,336.1c-0.7,0-1.3-0.2-1.7-0.7c-0.4-0.5-0.7-1.1-0.7-1.9v-0.2c0-0.5,0.1-1,0.3-1.4c0.2-0.4,0.5-0.7,0.8-1
	c0.4-0.2,0.8-0.4,1.2-0.4c0.7,0,1.2,0.2,1.6,0.7c0.4,0.5,0.6,1.1,0.6,1.9v0.4H393c0,0.5,0.2,0.9,0.5,1.3c0.3,0.3,0.7,0.5,1.1,0.5
	c0.3,0,0.6-0.1,0.8-0.2c0.2-0.1,0.4-0.3,0.6-0.5l0.6,0.4C396,335.8,395.4,336.1,394.5,336.1z M394.4,331.4c-0.4,0-0.7,0.1-0.9,0.4
	c-0.2,0.3-0.4,0.6-0.5,1.1h2.6v-0.1c0-0.5-0.1-0.8-0.4-1.1C395,331.5,394.7,331.4,394.4,331.4z M397.4,333.3c0-0.8,0.2-1.5,0.6-2
	c0.4-0.5,0.9-0.7,1.5-0.7c0.6,0,1.1,0.2,1.5,0.6v-2.8h0.9v7.5H401l0-0.6c-0.4,0.4-0.9,0.7-1.5,0.7c-0.6,0-1.1-0.3-1.5-0.8
	C397.6,334.8,397.4,334.2,397.4,333.3L397.4,333.3z M398.3,333.4c0,0.6,0.1,1.1,0.4,1.4c0.2,0.3,0.6,0.5,1,0.5c0.6,0,1-0.3,1.3-0.8
	v-2.4c-0.3-0.5-0.7-0.7-1.2-0.7c-0.4,0-0.8,0.2-1,0.5C398.4,332.2,398.3,332.7,398.3,333.4z"/>
<path class="st14" d="M523.2,355.2c0.5-0.6,5.4-0.1,5.5,0.2c0.1,0.9,0.3,4.4-0.1,4.9c-0.5,0.5-5.4,0.5-5.5-0.5
	C523,359.2,522.8,355.8,523.2,355.2z"/>
<path class="st15" d="M529,359.3c0,0,2.3,3.3,0.7,5.9c0,0-12,0.6-15.6,0c0,0-0.1-4.4,3.1-4.9c3.2-0.3,6.2-0.2,6.2-0.2
	S526.7,361.8,529,359.3z"/>
<path class="st14" d="M549.8,355.2c0.5-0.6,5.4-0.1,5.5,0.2c0.1,0.9,0.3,4.4-0.1,4.9c-0.5,0.5-5.4,0.5-5.5-0.5
	C549.6,359.2,549.4,355.8,549.8,355.2z"/>
<path class="st15" d="M555.6,359.3c0,0,2.3,3.3,0.7,5.9c0,0-12,0.6-15.6,0c0,0-0.1-4.4,3.1-4.9c3.2-0.3,6.2-0.2,6.2-0.2
	S553.3,361.8,555.6,359.3z"/>
<path class="st16" d="M515.8,314.7c0,10.7,4.1,33.4,6.8,43.1h7.1c0,0,0.1-11.2,0.1-15.5c0-7.8,2.1-20.7,2.7-27.7
	c0.3-3.8,0.2-13.2,2.6-19.6c0.5-1.1,0.9-2.3,1.2-3.4c1.5-3.8,2.4-6.9,1.7-7.7c-1.7-2-16.7-16.6-20.5-8.6
	C513.6,283.9,515.8,304,515.8,314.7z"/>
<path class="st17" d="M526.1,357.8c1.9,0.1,2.9,0,3.6,0c0,0-0.7-7.1,0.6-17.5c3.4-27,5.7-47.6,6.1-48.6c-0.8-1.6-2-3.3-4-3.3
	c-1.6,0-2.6,1-2.9,2.5c-0.6,2.7,0.6,6.1,0.6,8.9c0,4-0.8,7.9-1.7,11.8c-0.7,3.4-1.4,6.7-1.5,10.2c-0.1,4,0.5,7.9,0.3,12
	C527.1,340.6,524.5,350.8,526.1,357.8z"/>
<path class="st16" d="M533.5,281c0,0,0,0.3,0,1c0,1.4,0.5,3.8,1,7.2c0.2,1.5,0.5,7.7,0.8,9.4c1.2,7,2.9,11.2,4,20.4
	c1.2,10.6,6.9,27.7,9.7,39.1h7c0,0-1.5-16.6-2.4-19.8c-1.1-3.8,1.6-8.8,1.6-13.5c0-3.3,0.1-6.6,0.1-9.5c0-0.9,0-1.9,0-2.8
	c-0.1-15,0.8-21.3-3.8-32.7c-0.1-0.2-0.1-0.3-0.2-0.6c-0.8-1.8-1.7-3.7-2.9-5.8c-0.3-0.7-1.2-0.9-2.5-0.7c-2.9,0.3-7.7,2.9-11.7,7.5
	C534,280.4,533.8,280.7,533.5,281z"/>
<path class="st17" d="M547.6,281.8c-0.1,0.1-0.1,0.2,0,0.5c2.6,6.1,4.3,12.6,4,19.2c-0.1,3.4-0.9,6.7-1.5,10.1
	c-0.6,3.4-0.8,6.9-0.9,10.4c-0.2,5.9-0.7,12.1,0.5,18c1.1,5.8,1.4,12.7,2.9,18.3h3.5c0.2-1.8,0-10.5-0.5-16.6
	c-0.3-3.5-0.2-13.2-0.3-16.7c-0.1-3.2,0-6.3,0.1-9.5c0-0.9,0-1.9,0-2.8c-0.1-15,0.8-21.3-3.8-32.7c-1.2,0-2.6,0.2-4,1
	C547.1,281.1,547.2,281.6,547.6,281.8z"/>
<path class="st18" d="M524.4,252.8c0,0,0.1,1.5-0.1,3.6c-0.7,5-3.8,13.4-17.2,14.1c-14.6,0.9-13.4-14.3-11.9-21.3
	c0.3-2.1,0.8-3.5,0.8-3.5c0.2-1.4,6-1.2,6-1.2c1.7,0.3,3.1,13.5,4.8,12.6c1.7-0.9,11.5-17.8,17.6-20.6
	C528.1,234.7,524.4,252.8,524.4,252.8z"/>
<path class="st19" d="M495.1,249.2c0.5,5.4,0.9,12.3,5.3,16.1c4.9,4.3,11.7,1.8,15.7-2.4c0.8-0.8,1.6-1.7,2.3-2.5
	c3.4-6.6,0.7-14.9,3.7-21.8c0.3-0.7,1.4-0.3,1,0.3c-0.9,1.9-1.2,4-1.5,6.1c0.2,0.1,0.3,0.2,0.3,0.6c0,1.5,0,3.1,0,4.6
	c0.1,2.4,0.3,4.9,0,7c0.7-0.5,1.4-0.8,2.3-1c-0.7,5-3.8,13.3-17.2,14.1C492.5,271.4,493.7,256.2,495.1,249.2z"/>
<path class="st20" d="M515.2,279.9c0.1,0.6,14,3.7,18.3,4.4c4.6,0.7,10,0.9,13.9,0.8c3.1-0.1,5.2-0.6,5.5-1.1
	c0.6-1.2-0.6-12.7-0.3-20.9c0-1.4,0.1-2.7,0.1-4.1c0.1-8.7-0.5-17-2.5-18.6c-0.5-0.3-0.9-0.7-1.5-1c-0.8-0.6-1.8-1.1-2.8-1.7
	c-1.7-0.9-3.7-1.7-5.9-2.3c-3.4-0.9-7.5-1.1-11.8-0.2c-1,0.2-2.2,0.6-3.3,1c-0.2,0.1-0.6,0.2-0.8,0.3c-3.7,1.5-3.2,9.6-2.6,16.3
	c0.2,3.2,0.6,6,0.5,7.8c0,0.6-0.1,1.2-0.2,1.8C520.9,267.3,515.8,276.3,515.2,279.9z"/>
<path class="st19" d="M545.6,241.4c-0.1,0.1-3.1,3.2-1.9,8.6c0.9,4.5,3.1,8,4,12.6c0.9,4.4,0.5,8.7,0.1,13.1c-0.2,2-0.3,4.1-0.6,6.2
	c-0.1,1-0.3,2.1,0.2,3.2c3.1-0.1,5.2-0.6,5.5-1.1c0.6-1.2-0.6-12.7-0.3-20.9c0-1.4,0.1-2.7,0.1-4.1c-0.2-0.5-0.5-0.9-0.7-1.2
	c-2-3.3-2.4-11.2-4.8-14.3C546.9,242.8,545.3,240.8,545.6,241.4z"/>
<path class="st14" d="M487.3,263.1c0,0.3,0.3,0.6,0.7,0.7c0.7,0.1,1-0.2,1.6,0.7c0.1,0.2,0.2,0.5,0.5,0.7c0.6,0.7,1.6,1.1,2.1,0.2
	v-0.1v-0.1c-0.5-0.8-0.8-1.6-1.4-2.3c-0.2-0.3-0.6-0.6-1-0.7c-0.6-0.1-1.4,0.1-1.9,0.2C487.6,262.4,487.3,262.7,487.3,263.1z"/>
<path class="st21" d="M526.7,242.2c0,9.1,0.7,34.2,9.5,49.6c0,0-33.1-5.2-42.7-1.5c0-1.5-0.8-33.7-5.7-46.6
	c-1.1-2.9,0.7-6.2,3.7-6.8c7.8-1.6,20.6-3.2,31.6,0.6C525.4,238.1,526.7,240,526.7,242.2z"/>
<path class="st14" d="M491.3,270.7c0.2-0.1,0.7-0.6,0.5-0.9l-0.1-0.1c0.2,0,0.5-0.1,0.6-0.2c0.3-0.2,0.9-0.9,0.3-1.2
	c-0.2-0.1-0.5-0.2-0.8-0.2c0.3-0.2,0.6-0.6,0.7-1c0-0.7-0.6-0.8-1.1-0.8c0.5-0.3,1.1-0.9,0.6-1.4c-0.3-0.2-0.9-0.2-1.2-0.3
	c-0.6,0-1.6,0-1.9,0.2c-0.6,0.3-0.9,1.1-0.2,1.5c0.2,0.1,0.3,0.1,0.6,0.2c-0.5,0.1-0.9,0.5-0.8,0.9c0.1,0.6,0.6,0.8,1.2,0.9
	c-0.1,0.2-0.3,0.5-0.2,0.8c0.1,0.2,0.3,0.3,0.6,0.5l-0.1,0.1C489.5,270.6,490.4,271.2,491.3,270.7z"/>
<path class="st22" d="M536,234.6l0.6,0.1l-1.8,4.2l-3.4-2.5l-3.2,1.9l2.1-3.5c0,0,1.4-0.3,2-0.1c0.6,0.2,0.3,1.4,0.3,1.4L536,234.6z
	"/>
<path class="st14" d="M531.5,231v3.6c0,0-0.9,1.6,0,1.7c1.9,0.3,4.6-1.7,4.6-1.7v-5.5L531.5,231z"/>
<path class="st14" d="M536,232.7v-1.8c0,0-2,1.7-4.3,1.8C531.8,232.7,534,234.2,536,232.7z"/>
<path class="st14" d="M529.3,223.2c0,0-0.8,3.7-0.5,7c0.2,2.3,5,4.2,7.6,0.3c2.5-4,0.5-8.5,0.5-8.5L529.3,223.2z"/>
<path class="st23" d="M527.2,223c1.9,2,5.9,1.6,8.8,1c0,0.3,0,0.7,0,0.9c0,1.1-0.3,2.5,0.3,3.5c0.3,0.7,1.2,0.9,1.9,0.6
	c0.5-0.2,0.6-0.7,0.6-1c0.9-2,0.5-5.5-1-6.9c-1-0.9-2.1-1-3.4-1c-1,0-1.9,0-2.8-0.5c-0.6-0.2-1-0.5-1.7-0.6
	C527.4,218.9,525.3,220.8,527.2,223z"/>
<path class="st22" d="M536.6,234.6l-0.6-0.8c0,0-0.7,1-1.5,1.6c-0.8,0.7-0.8,1.4-0.8,1.4L536.6,234.6z"/>
<path class="st19" d="M531.5,236.3l1.4,1.1l-1.2,1.5l-1.2-0.1l-0.6-1.5L531.5,236.3z"/>
<path class="st19" d="M530.4,238.8c0,0-3.5,8.1-2.5,17.2l2.5,2.6l1.9-2.1c0,0-1.8-11.7-0.6-17.5L530.4,238.8z"/>
<path class="st14" d="M528,269.6c-1.7-0.7-4.5-0.9-6,0.6c-0.7,0.7-0.2,1.1,0.6,0.9c1.7-0.6,2.9-0.6,0.5,0.2
	c-0.5,0.1-1.5,0.7-1.4,1.1c0.2,0.8,1.9,0,2.8-0.2c0.7,0.1-1,1-1.2,1.4c-0.9,1.6,2.5,0,2.7,0.2c0.6,0.5-1.9,1.1-0.8,1.7
	c0.8,0.3,2.8-1.1,3.5-1.2c0.6-0.1,1.1,0.2,1.5-0.3C531,272.4,528.7,269.9,528,269.6z"/>
<path class="st14" d="M528.7,270c-0.5-0.6-1.6-1.9-2.3-2.1c-0.3-0.1-0.9,0-0.7,0.5c0.1,0.3,0.5,0.6,0.8,0.8c0.2,0.2,0.5,0.5,0.8,0.6
	C527.5,269.9,528.7,270.1,528.7,270z"/>
<path class="st20" d="M567.4,279.9c-5.2,8.4-38.8-5.9-38.8-5.9l0.7-3.4c0.3-0.1,26,3.3,26.1,0.6c0-1.1-9.3-16.2-10.6-21.8
	c-0.7-2.8-0.1-5.3,0.6-7.2c1-2.6,4.1-3.1,6.6-1.7c5.1,2.7,11.2,9.3,14.8,16.4C570.5,264.7,571.9,272.6,567.4,279.9z"/>
<path class="st24" d="M526.3,240c0,0-6.3-0.8-5.2,3.7c0,0-29-2.5-34.3,1.9c0,0-2-5,0.9-7.4C491.6,235.3,523,231,526.3,240z"/>
</svg>
