<svg width="48" height="48" viewBox="0 0 48 48" fill="none" xmlns="http://www.w3.org/2000/svg">
<mask id="mask0_4008_111" style="mask-type:alpha" maskUnits="userSpaceOnUse" x="0" y="0" width="48" height="48">
<rect width="48" height="48" fill="#D9D9D9"/>
</mask>
<g mask="url(#mask0_4008_111)">
<path d="M9.231 40C8.31033 40 7.54167 39.6917 6.925 39.075C6.30833 38.4583 6 37.6897 6 36.769V17.231C6 16.3103 6.30833 15.5417 6.925 14.925C7.54167 14.3083 8.31033 14 9.231 14H18V11.2305C18 10.3102 18.3083 9.54167 18.925 8.925C19.5417 8.30833 20.3103 8 21.231 8H26.769C27.6897 8 28.4583 8.30833 29.075 8.925C29.6917 9.54167 30 10.3102 30 11.2305V14H38.769C39.6897 14 40.4583 14.3083 41.075 14.925C41.6917 15.5417 42 16.3103 42 17.231V36.769C42 37.6897 41.6917 38.4583 41.075 39.075C40.4583 39.6917 39.6897 40 38.769 40H9.231ZM9.231 38H38.769C39.077 38 39.3592 37.8718 39.6155 37.6155C39.8718 37.3592 40 37.077 40 36.769V17.231C40 16.923 39.8718 16.6408 39.6155 16.3845C39.3592 16.1282 39.077 16 38.769 16H9.231C8.923 16 8.64083 16.1282 8.3845 16.3845C8.12817 16.6408 8 16.923 8 17.231V36.769C8 37.077 8.12817 37.3592 8.3845 37.6155C8.64083 37.8718 8.923 38 9.231 38ZM20 14H28V11.2305C28 10.9228 27.8718 10.6408 27.6155 10.3845C27.3592 10.1282 27.077 10 26.769 10H21.231C20.923 10 20.6408 10.1282 20.3845 10.3845C20.1282 10.6408 20 10.9228 20 11.2305V14Z" fill="url(#paint0_linear_4008_111)"/>
</g>
<defs>
<linearGradient id="paint0_linear_4008_111" x1="-9.61461" y1="23.9741" x2="50.228" y2="23.8187" gradientUnits="userSpaceOnUse">
<stop offset="0.317708" stop-color="#E43425"/>
<stop offset="0.71875" stop-color="#441FD8"/>
<stop offset="1" stop-color="#0A26B8"/>
</linearGradient>
</defs>
</svg>
