<svg width="48" height="48" viewBox="0 0 48 48" fill="none" xmlns="http://www.w3.org/2000/svg">
<mask id="mask0_4008_119" style="mask-type:alpha" maskUnits="userSpaceOnUse" x="0" y="0" width="48" height="48">
<rect width="48" height="48" fill="#D9D9D9"/>
</mask>
<g mask="url(#mask0_4008_119)">
<path d="M15.231 44C14.3103 44 13.5417 43.6917 12.925 43.075C12.3083 42.4583 12 41.6897 12 40.769V7.231C12 6.31033 12.3083 5.54167 12.925 4.925C13.5417 4.30833 14.3103 4 15.231 4H32.769C33.6897 4 34.4583 4.30833 35.075 4.925C35.6917 5.54167 36 6.31033 36 7.231V40.769C36 41.6897 35.6917 42.4583 35.075 43.075C34.4583 43.6917 33.6897 44 32.769 44H15.231ZM14 35.077V40.769C14 41.077 14.1282 41.3592 14.3845 41.6155C14.6408 41.8718 14.923 42 15.231 42H32.769C33.077 42 33.3592 41.8718 33.6155 41.6155C33.8718 41.3592 34 41.077 34 40.769V35.077H14ZM24 40.077C24.4127 40.077 24.7723 39.9238 25.079 39.6175C25.3853 39.3108 25.5385 38.9512 25.5385 38.5385C25.5385 38.1255 25.3853 37.7658 25.079 37.4595C24.7723 37.1532 24.4127 37 24 37C23.5873 37 23.2277 37.1532 22.921 37.4595C22.6147 37.7658 22.4615 38.1255 22.4615 38.5385C22.4615 38.9512 22.6147 39.3108 22.921 39.6175C23.2277 39.9238 23.5873 40.077 24 40.077ZM14 33.077H34V11H14V33.077ZM14 9H34V7.231C34 6.923 33.8718 6.64083 33.6155 6.3845C33.3592 6.12817 33.077 6 32.769 6H15.231C14.923 6 14.6408 6.12817 14.3845 6.3845C14.1282 6.64083 14 6.923 14 7.231V9Z" fill="white"/>
</g>
</svg>
