<svg width="48" height="48" viewBox="0 0 48 48" fill="none" xmlns="http://www.w3.org/2000/svg">
<mask id="mask0_4008_108" style="mask-type:alpha" maskUnits="userSpaceOnUse" x="0" y="0" width="48" height="48">
<rect width="48" height="48" fill="#D9D9D9"/>
</mask>
<g mask="url(#mask0_4008_108)">
<path d="M24.5385 40C24.2538 40 24.016 39.9045 23.825 39.7135C23.634 39.5225 23.5385 39.2847 23.5385 39C23.5385 38.7153 23.634 38.4775 23.825 38.2865C24.016 38.0955 24.2538 38 24.5385 38H36.769C37.1023 38 37.3908 37.8975 37.6345 37.6925C37.8782 37.4872 38 37.2178 38 36.8845V23.1075C38 19.3615 36.6225 16.2327 33.8675 13.721C31.1122 11.2097 27.823 9.954 24 9.954C20.177 9.954 16.8878 11.2097 14.1325 13.721C11.3775 16.2327 10 19.3615 10 23.1075V33.4615C10 33.7462 9.9045 33.984 9.7135 34.175C9.5225 34.366 9.28467 34.4615 9 34.4615C8.182 34.4615 7.4775 34.1852 6.8865 33.6325C6.2955 33.0802 6 32.395 6 31.577V27.8075C6 27.2102 6.19417 26.6802 6.5825 26.2175C6.97117 25.7545 7.44367 25.3782 8 25.0885L8.0345 22.631C8.09617 20.5437 8.56867 18.6103 9.452 16.831C10.3353 15.0513 11.4982 13.5025 12.9405 12.1845C14.3828 10.8665 16.0585 9.83967 17.9675 9.104C19.8765 8.368 21.8873 8 24 8C26.1127 8 28.1217 8.368 30.027 9.104C31.932 9.83967 33.6077 10.8647 35.054 12.179C36.5 13.493 37.6628 15.0397 38.5425 16.819C39.4218 18.5987 39.8962 20.532 39.9655 22.619L40 25.027C40.5307 25.2757 40.9967 25.6103 41.398 26.031C41.7993 26.4513 42 26.9563 42 27.546V31.877C42 32.4667 41.7993 32.9718 41.398 33.3925C40.9967 33.8128 40.5307 34.1473 40 34.396V36.8845C40 37.7538 39.6853 38.4903 39.056 39.094C38.4263 39.698 37.664 40 36.769 40H24.5385ZM18.769 27.077C18.3563 27.077 17.9968 26.9367 17.6905 26.656C17.3842 26.375 17.231 26.0282 17.231 25.6155C17.231 25.2025 17.3842 24.8493 17.6905 24.556C17.9968 24.2623 18.3563 24.1155 18.769 24.1155C19.182 24.1155 19.5417 24.2623 19.848 24.556C20.1543 24.8493 20.3075 25.2025 20.3075 25.6155C20.3075 26.0282 20.1543 26.375 19.848 26.656C19.5417 26.9367 19.182 27.077 18.769 27.077ZM29.231 27.077C28.818 27.077 28.4583 26.9367 28.152 26.656C27.8457 26.375 27.6925 26.0282 27.6925 25.6155C27.6925 25.2025 27.8457 24.8493 28.152 24.556C28.4583 24.2623 28.818 24.1155 29.231 24.1155C29.6437 24.1155 30.0032 24.2623 30.3095 24.556C30.6158 24.8493 30.769 25.2025 30.769 25.6155C30.769 26.0282 30.6158 26.375 30.3095 26.656C30.0032 26.9367 29.6437 27.077 29.231 27.077ZM13.4345 23.9C13.2525 20.905 14.2167 18.3525 16.327 16.2425C18.4373 14.1322 21.0283 13.077 24.1 13.077C26.682 13.077 28.9698 13.852 30.9635 15.402C32.9572 16.952 34.1745 18.9885 34.6155 21.5115C31.9668 21.4782 29.5085 20.8025 27.2405 19.4845C24.9725 18.1665 23.232 16.3332 22.019 13.9845C21.537 16.2922 20.5338 18.3147 19.0095 20.052C17.4852 21.789 15.6268 23.0717 13.4345 23.9Z" fill="url(#paint0_linear_4008_108)"/>
</g>
<defs>
<linearGradient id="paint0_linear_4008_108" x1="-9.61461" y1="23.9741" x2="50.228" y2="23.8187" gradientUnits="userSpaceOnUse">
<stop offset="0.317708" stop-color="#E43425"/>
<stop offset="0.71875" stop-color="#441FD8"/>
<stop offset="1" stop-color="#0A26B8"/>
</linearGradient>
</defs>
</svg>
