<?xml version="1.0" encoding="UTF-8"?><svg id="Capa_1" xmlns="http://www.w3.org/2000/svg" width="3in" height="6in" viewBox="0 0 212.8 433.1"><path d="M25.4,104.1c-2.8-2.8-6.5-4.4-10.5-4.4s-7.7,1.6-10.5,4.4c-5.8,5.8-5.8,15.2,0,21,50.4,50.4,50.4,132.4,0,182.8-5.8,5.8-5.8,15.2,0,21,2.8,2.8,6.6,4.4,10.5,4.4s7.7-1.6,10.5-4.4c62-62,62-162.9,0-224.9Z" style="fill:#fff;"/><path d="M72.5,56.9c-5.8-5.8-15.2-5.8-21,0-5.8,5.8-5.8,15.2,0,21,76.4,76.4,76.4,200.7,0,277.1-5.8,5.8-5.8,15.2,0,21,2.8,2.8,6.6,4.4,10.5,4.4s7.7-1.5,10.5-4.4c88-88,88-231.2,0-319.2Z" style="fill:#fff;"/><path d="M125.1,4.4s0,0,0,0C122.3,1.5,118.6,0,114.6,0c-4,0-7.7,1.6-10.5,4.4-5.8,5.8-5.8,15.2,0,21,105.4,105.4,105.4,276.9,0,382.3-5.8,5.8-5.8,15.2,0,21,2.8,2.8,6.6,4.4,10.5,4.4s7.7-1.5,10.5-4.4c117-117,117-307.4,0-424.4Z" style="fill:#fff;"/></svg>