<svg xmlns="http://www.w3.org/2000/svg" xmlns:xlink="http://www.w3.org/1999/xlink" width="971.82" height="132.09" viewBox="0 0 971.82 132.09">
  <defs>
    <style>
      .a {
        font-size: 64px;
        font-family: Roboto-Black, Roboto;
        letter-spacing: -0.01em;
      }

      .b {
        letter-spacing: -0.02em;
      }

      .c {
        letter-spacing: -0.07em;
      }

      .d {
        letter-spacing: -0.04em;
      }

      .e {
        letter-spacing: -0.01em;
      }

      .f {
        letter-spacing: -0.03em;
      }

      .g {
        letter-spacing: -0.03em;
      }

      .h {
        letter-spacing: 0em;
      }

      .i {
        letter-spacing: -0.01em;
      }

      .j {
        fill: url(#a);
      }
    </style>
    <linearGradient id="a" data-name="bs" x1="485.62" y1="9.47" x2="485.62" y2="116.25" gradientUnits="userSpaceOnUse">
      <stop offset="0.15" stop-color="#19cdff"/>
      <stop offset="0.45" stop-color="#1e1bb2"/>
      <stop offset="0.9" stop-color="#ff1919"/>
    </linearGradient>
  </defs>
  <title>customers_title</title>
  <g>
    <g>
      <path class="j" d="M43,40.22a15.76,15.76,0,0,1-2.77,8.39,16.41,16.41,0,0,1-7.1,5.64,25.83,25.83,0,0,1-10.45,2Q13,56.25,7.4,50.41T1.83,33.91V31.66A25.79,25.79,0,0,1,4.34,20a18.12,18.12,0,0,1,7.24-7.75A21.44,21.44,0,0,1,22.52,9.47q8.94,0,14.38,4.36a16.77,16.77,0,0,1,6.18,12H31.26q-.14-4.16-2.26-6t-6.48-1.81q-4.42,0-6.48,3.06t-2.16,9.78v3.22q0,7.28,2,10.41t6.8,3.13a9.59,9.59,0,0,0,6.24-1.78q2.16-1.78,2.29-5.66Z" transform="translate(0.5 -0.87)"/>
      <path class="j" d="M86.63,10.12V39.91a16.12,16.12,0,0,1-2.33,8.77,14.72,14.72,0,0,1-6.68,5.64,25.15,25.15,0,0,1-10.29,1.94q-9,0-14.14-4.31T47.92,40.12v-30H59.83V40.34q.2,7.47,7.49,7.47a7.59,7.59,0,0,0,5.57-1.87q1.89-1.87,1.89-6.09V10.12Z" transform="translate(0.5 -0.87)"/>
      <path class="j" d="M118.88,43.53A4.38,4.38,0,0,0,117,39.78,23.75,23.75,0,0,0,110.58,37,64.78,64.78,0,0,1,103,34.22q-9.55-4.34-9.55-11.94a10.19,10.19,0,0,1,2.38-6.67,15.39,15.39,0,0,1,6.73-4.5,28.09,28.09,0,0,1,9.79-1.61,24.52,24.52,0,0,1,9.5,1.75,14.84,14.84,0,0,1,6.53,5,12.33,12.33,0,0,1,2.33,7.39H118.92a5.3,5.3,0,0,0-1.84-4.31,7.54,7.54,0,0,0-5-1.53,8.56,8.56,0,0,0-5,1.3,3.9,3.9,0,0,0-1.84,3.3,4,4,0,0,0,2,3.17,26.52,26.52,0,0,0,7.12,2.94,45.64,45.64,0,0,1,8.37,3.27q8,4.25,8,11.72a10.83,10.83,0,0,1-4.86,9.38q-4.86,3.41-13.33,3.41a28.28,28.28,0,0,1-10.82-2,16.11,16.11,0,0,1-7.29-5.44,13.4,13.4,0,0,1-2.45-8h11.88q0,3.66,2,5.39T112.54,48a8.08,8.08,0,0,0,4.64-1.17A3.77,3.77,0,0,0,118.88,43.53Z" transform="translate(0.5 -0.87)"/>
      <path class="j" d="M174.9,18.59H160.15v37H148.3v-37H133.82V10.12H174.9Z" transform="translate(0.5 -0.87)"/>
      <path class="j" d="M220.08,33.81a25.17,25.17,0,0,1-2.67,11.78,18.8,18.8,0,0,1-7.58,7.89,22.4,22.4,0,0,1-11.19,2.77,22.74,22.74,0,0,1-11.14-2.67,18.83,18.83,0,0,1-7.58-7.64,24.48,24.48,0,0,1-2.85-11.41V32a25.26,25.26,0,0,1,2.65-11.8,18.76,18.76,0,0,1,7.59-7.89,24,24,0,0,1,22.39,0,19.13,19.13,0,0,1,7.61,7.83,24.57,24.57,0,0,1,2.75,11.64Zm-12-1.91q0-6.78-2.45-10.3a8,8,0,0,0-7-3.52q-8.91,0-9.42,12.38l0,3.34q0,6.69,2.4,10.28a8,8,0,0,0,7.12,3.59,7.9,7.9,0,0,0,6.92-3.53Q208,40.62,208,34Z" transform="translate(0.5 -0.87)"/>
      <path class="j" d="M241.26,10.12l11,31.66,10.93-31.66h15.59v45.5H266.88V45L268,23.25,256.15,55.62h-7.83L236.4,23.22,237.55,45V55.62H225.7V10.12Z" transform="translate(0.5 -0.87)"/>
      <path class="j" d="M316.28,36.31H297.65V47.19h22v8.44H285.8V10.12h33.92v8.47H297.65v9.59h18.63Z" transform="translate(0.5 -0.87)"/>
      <path class="j" d="M342.25,39.53h-6.41V55.62H324V10.12h19.34q8.74,0,13.67,3.59a11.82,11.82,0,0,1,4.93,10.15,13.92,13.92,0,0,1-2.08,7.87,14.49,14.49,0,0,1-6.5,5.06l10.26,18.37v.47H350.93Zm-6.41-8.44h7.49a7.05,7.05,0,0,0,5.08-1.64,6.08,6.08,0,0,0,1.7-4.59,6.15,6.15,0,0,0-1.72-4.62,7,7,0,0,0-5.06-1.68h-7.49Z" transform="translate(0.5 -0.87)"/>
      <path class="j" d="M393.95,43.53a4.38,4.38,0,0,0-1.84-3.75A23.74,23.74,0,0,0,385.64,37a64.8,64.8,0,0,1-7.56-2.78q-9.55-4.34-9.55-11.94a10.2,10.2,0,0,1,2.38-6.67,15.39,15.39,0,0,1,6.73-4.5,28.08,28.08,0,0,1,9.79-1.61,24.53,24.53,0,0,1,9.5,1.75,14.85,14.85,0,0,1,6.53,5,12.33,12.33,0,0,1,2.33,7.39H394a5.3,5.3,0,0,0-1.84-4.31,7.54,7.54,0,0,0-5-1.53,8.56,8.56,0,0,0-5,1.3,3.9,3.9,0,0,0-1.84,3.3,4,4,0,0,0,2,3.17,26.5,26.5,0,0,0,7.12,2.94,45.67,45.67,0,0,1,8.37,3.27q8,4.25,8,11.72a10.83,10.83,0,0,1-4.86,9.38q-4.86,3.41-13.33,3.41a28.28,28.28,0,0,1-10.82-2,16.12,16.12,0,0,1-7.29-5.44,13.41,13.41,0,0,1-2.45-8h11.88q0,3.66,2,5.39T387.6,48a8.08,8.08,0,0,0,4.64-1.17A3.77,3.77,0,0,0,393.95,43.53Z" transform="translate(0.5 -0.87)"/>
      <path class="j" d="M456,47.12H439.79L437,55.62H424.3l18-45.5h11.14l18.16,45.5H458.89Zm-13.4-8.47h10.56l-5.3-15.78Z" transform="translate(0.5 -0.87)"/>
      <path class="j" d="M493,39.53h-6.41V55.62H474.71V10.12H494q8.74,0,13.67,3.59a11.82,11.82,0,0,1,4.93,10.15,13.92,13.92,0,0,1-2.08,7.87,14.49,14.49,0,0,1-6.5,5.06l10.26,18.37v.47H501.64Zm-6.41-8.44H494a7.05,7.05,0,0,0,5.08-1.64,6.08,6.08,0,0,0,1.7-4.59,6.15,6.15,0,0,0-1.72-4.62A7,7,0,0,0,494,18.56h-7.49Z" transform="translate(0.5 -0.87)"/>
      <path class="j" d="M549.79,36.31H531.16V47.19h22v8.44H519.32V10.12h33.92v8.47H531.16v9.59h18.63Z" transform="translate(0.5 -0.87)"/>
      <path class="j" d="M602.15,47.12H585.92l-2.83,8.5H570.42l18-45.5h11.14l18.16,45.5H605Zm-13.4-8.47h10.56L594,22.87Z" transform="translate(0.5 -0.87)"/>
      <path class="j" d="M655.36,18.59H640.61v37H628.77v-37H614.29V10.12h41.07Z" transform="translate(0.5 -0.87)"/>
      <path class="j" d="M711.13,18.59H696.38v37H684.53v-37H670.05V10.12h41.07Z" transform="translate(0.5 -0.87)"/>
      <path class="j" d="M756.71,55.62H744.93v-19H727.49v19H715.64V10.12h11.85V28.19h17.45V10.12h11.78Z" transform="translate(0.5 -0.87)"/>
      <path class="j" d="M794.2,36.31H775.57V47.19h22v8.44H763.72V10.12h33.92v8.47H775.57v9.59H794.2Z" transform="translate(0.5 -0.87)"/>
      <path class="j" d="M44.29,115.62H32.51v-19H15.06v19H3.21V70.12H15.06V88.19H32.51V70.12H44.29Z" transform="translate(0.5 -0.87)"/>
      <path class="j" d="M81.77,96.31H63.14v10.87h22v8.44H51.29V70.12H85.21v8.47H63.14v9.59H81.77Z" transform="translate(0.5 -0.87)"/>
      <path class="j" d="M117.4,107.12H101.17l-2.83,8.5H85.67l18-45.5h11.14L133,115.62H120.27ZM104,98.66h10.56l-5.3-15.78Z" transform="translate(0.5 -0.87)"/>
      <path class="j" d="M154.34,99.53h-6.41v16.09H136.09V70.12h19.34q8.74,0,13.67,3.59A11.82,11.82,0,0,1,174,83.86a13.92,13.92,0,0,1-2.08,7.87,14.49,14.49,0,0,1-6.5,5.06l10.26,18.37v.47H163Zm-6.41-8.44h7.49a7.05,7.05,0,0,0,5.08-1.64,6.08,6.08,0,0,0,1.7-4.59,6.15,6.15,0,0,0-1.72-4.62,7,7,0,0,0-5.06-1.68h-7.49Z" transform="translate(0.5 -0.87)"/>
      <path class="j" d="M217.58,78.59H202.83v37H191v-37H176.51V70.12h41.07Z" transform="translate(0.5 -0.87)"/>
      <path class="j" d="M278.41,93.81a25.17,25.17,0,0,1-2.67,11.78,18.8,18.8,0,0,1-7.58,7.89A22.4,22.4,0,0,1,257,116.25a22.74,22.74,0,0,1-11.14-2.67,18.83,18.83,0,0,1-7.58-7.64,24.48,24.48,0,0,1-2.85-11.41V92a25.26,25.26,0,0,1,2.65-11.8,18.76,18.76,0,0,1,7.59-7.89,24,24,0,0,1,22.39,0,19.13,19.13,0,0,1,7.61,7.83,24.57,24.57,0,0,1,2.75,11.64Zm-12-1.91q0-6.78-2.45-10.3a8,8,0,0,0-7-3.52q-8.91,0-9.42,12.38l0,3.34q0,6.69,2.4,10.28a8,8,0,0,0,7.12,3.59,7.9,7.9,0,0,0,6.92-3.53q2.43-3.53,2.46-10.16Z" transform="translate(0.5 -0.87)"/>
      <path class="j" d="M315,97.5h-19.1v18.12H284V70.12h32.87v8.47h-21V89.06H315Z" transform="translate(0.5 -0.87)"/>
      <path class="j" d="M368.55,96.31H349.92v10.87h22v8.44H338.08V70.12H372v8.47H349.92v9.59h18.63Z" transform="translate(0.5 -0.87)"/>
      <path class="j" d="M395.34,103.25l9.79-33.12h13.23l-16.54,45.5h-13l-16.4-45.5h13.13Z" transform="translate(0.5 -0.87)"/>
      <path class="j" d="M451.93,96.31H433.3v10.87h22v8.44H421.45V70.12h33.92v8.47H433.3v9.59h18.63Z" transform="translate(0.5 -0.87)"/>
      <path class="j" d="M477.9,99.53h-6.41v16.09H459.65V70.12H479q8.74,0,13.67,3.59a11.82,11.82,0,0,1,4.93,10.15,13.92,13.92,0,0,1-2.08,7.87,14.49,14.49,0,0,1-6.5,5.06l10.26,18.37v.47H486.58Zm-6.41-8.44H479a7.05,7.05,0,0,0,5.08-1.64,6.08,6.08,0,0,0,1.7-4.59A6.15,6.15,0,0,0,484,80.24,7,7,0,0,0,479,78.56h-7.49Z" transform="translate(0.5 -0.87)"/>
      <path class="j" d="M520.62,89.87l9-19.75h12.79L526.63,99.28v16.34h-12V99.28L498.82,70.12h12.72Z" transform="translate(0.5 -0.87)"/>
      <path class="j" d="M584.7,78.59H570v37H558.11v-37H543.63V70.12H584.7Z" transform="translate(0.5 -0.87)"/>
      <path class="j" d="M630.29,115.62H618.51v-19H601.06v19H589.21V70.12h11.85V88.19h17.45V70.12h11.78Z" transform="translate(0.5 -0.87)"/>
      <path class="j" d="M649.92,115.62H638.1V70.12h11.81Z" transform="translate(0.5 -0.87)"/>
      <path class="j" d="M698.71,115.62H686.93L669.51,87.31v28.31H657.67V70.12h11.85L686.9,98.44V70.12h11.81Z" transform="translate(0.5 -0.87)"/>
      <path class="j" d="M745.95,110a19.33,19.33,0,0,1-8,4.53,37,37,0,0,1-11.54,1.72q-9.65,0-15.42-5.47t-6.18-15.22l0-3.94a25.45,25.45,0,0,1,2.56-11.73,18.16,18.16,0,0,1,7.34-7.72,22.06,22.06,0,0,1,11.05-2.7q9.18,0,14.26,3.89T745.91,85H734.51q-.61-3.81-2.63-5.44a9,9,0,0,0-5.74-1.62,7.89,7.89,0,0,0-6.88,3.5q-2.43,3.5-2.46,10v2.75q0,6.81,2.51,10.23t7.91,3.42q4.62,0,6.89-1.91V98.84h-8.24V91.31h20.08Z" transform="translate(0.5 -0.87)"/>
      <path class="j" d="M807.15,98.66l5.64-28.53h11.75l-10.43,45.5H801.81l-6.58-25.94-6.45,25.94H776.54l-10.46-45.5h11.78l5.64,28.53,6.75-28.53H800.3Z" transform="translate(0.5 -0.87)"/>
      <path class="j" d="M859.14,96.31H840.51v10.87h22v8.44H828.67V70.12h33.92v8.47H840.51v9.59h18.63Z" transform="translate(0.5 -0.87)"/>
      <path class="j" d="M883.59,115.62V70.12h15.83a24.78,24.78,0,0,1,11.71,2.73,20,20,0,0,1,8.12,7.72,21.94,21.94,0,0,1,3,11.17v2.09a22,22,0,0,1-2.85,11.2,20.05,20.05,0,0,1-8,7.75,24.19,24.19,0,0,1-11.56,2.83Zm11.85-37v28.59h4.12a9.51,9.51,0,0,0,7.83-3.36q2.73-3.36,2.73-10v-2q0-6.59-2.73-9.94t-8-3.34Z" transform="translate(0.5 -0.87)"/>
      <path class="j" d="M969.41,93.81a25.16,25.16,0,0,1-2.67,11.78,18.8,18.8,0,0,1-7.58,7.89A22.4,22.4,0,0,1,948,116.25a22.73,22.73,0,0,1-11.14-2.67,18.83,18.83,0,0,1-7.58-7.64,24.47,24.47,0,0,1-2.85-11.41V92a25.26,25.26,0,0,1,2.65-11.8,18.75,18.75,0,0,1,7.59-7.89,24,24,0,0,1,22.39,0,19.12,19.12,0,0,1,7.61,7.83,24.57,24.57,0,0,1,2.75,11.64Zm-12-1.91q0-6.78-2.45-10.3a8,8,0,0,0-7-3.52q-8.91,0-9.42,12.38l0,3.34q0,6.69,2.4,10.28a8,8,0,0,0,7.12,3.59,7.9,7.9,0,0,0,6.92-3.53q2.43-3.53,2.46-10.16Z" transform="translate(0.5 -0.87)"/>
    </g>
  </g>
</svg>
