<svg id="Layer_1" data-name="Layer 1" xmlns="http://www.w3.org/2000/svg" viewBox="0 0 419.6 234"><path d="M318.6,97.8H.7v53.9H318.6Z" transform="translate(-0.7 -0.8)" style="fill:#73fbfb;fill-opacity:0.5"/><path d="M420.3,165.3H131.5v30.4H420.3Z" transform="translate(-0.7 -0.8)" style="fill:#73fbfb;fill-opacity:0.5"/><path d="M80.9,110.2c0,.6,0,.8.1.5v-1.1C80.9,109.2,80.9,109.5,80.9,110.2Z" transform="translate(-0.7 -0.8)" style="fill:#848484;fill-rule:evenodd"/><path d="M72.3,131.6a5.8,5.8,0,0,0-1,1.1,4.8,4.8,0,0,0,1.1-1.1l.9-1.1Z" transform="translate(-0.7 -0.8)" style="fill:#848484;fill-rule:evenodd"/><path d="M80.6,28.9C78.4,14,71.1,5.7,57.6,3.1c-3.7-.6-8.8-.9-26.4-.9H14.5V139.3H33.2c11.7,0,19.5-.1,20.8-.2,15.4-1.8,23.9-9.8,26.5-25.6C81,110.4,81.1,32.3,80.6,28.9Zm-21.2,80c-.7,6.3-2.7,9.3-7.5,10.8-1,.2-2.7.4-8.4.4H36.3V21.9h6.6a65.4,65.4,0,0,1,8,.3c4.2.6,7.1,3.4,8.2,8.1C59.5,32.2,59.8,104.5,59.4,108.9Z" transform="translate(-0.7 -0.8)" style="fill:#fff;fill-rule:evenodd"/><path d="M384,68.9l22.5-66-19.8-.4s-16.6,50.2-16.8,50.2S353.6,2.6,353.6,2.6H331.4c0,.1,22.4,66.3,22.4,66.3l-24,70.3c0,.1,20,.1,20,.1l18-54.1c.1.2,17.7,54.1,17.7,54.1s22.7.2,22.7,0Z" transform="translate(-0.7 -0.8)" style="fill:#73fbfb;fill-rule:evenodd"/><path d="M158.5,30.1c-1.4-15-9.7-25.5-22.7-28.3a62.7,62.7,0,0,0-16-.7c-15.2,2.4-23.5,10.8-26.2,26-.7,3.6-.7,83.6,0,87.3C96.4,132,107.4,141,125.8,141s28.8-8.6,32-24.4c.8-4.2.9-6.3.9-45.7C158.7,47.6,158.6,31.5,158.5,30.1Zm-21.8,83c-1.5,5.8-4.8,8.3-10.7,8.3s-10.1-3.2-11-10.6c-.3-2.5-.3-77.1,0-80.1.9-8.1,7.3-12.4,15.1-10,3.9,1.2,6.2,4.4,6.9,9.5S137.2,110.8,136.7,113.1Z" transform="translate(-0.7 -0.8)" style="fill:#fff;fill-rule:evenodd"/><path d="M236.2,28.7q-3-24-25.8-27.6a58.8,58.8,0,0,0-13.9.2c-15.1,2.5-23.7,12.3-25.3,28.6-.3,3.4-.3,78.5,0,82,1.8,18.7,13.3,29.2,32.5,29.2s30.2-9.8,32.5-27.9C236.7,108.9,236.7,32.9,236.2,28.7Zm-21.3,81.7c-.7,7.5-4.2,11-11.2,11s-9.5-2.7-10.7-8.7c-.4-1.6-.4-4.7-.4-42.1V30.5l.5-1.9c1.7-6.6,6.9-9.5,13.8-8,3.9.8,6.3,3.3,7.7,7.7C215,30.3,215.4,105.2,214.9,110.4Z" transform="translate(-0.7 -0.8)" style="fill:#fff;fill-rule:evenodd"/><path d="M250.7,70.9v68.6h21.5V80.8h24.7v58.7h22V2.2H297.2V61.1H272.5V2.2H251V70.9" transform="translate(-0.7 -0.8)" style="fill:#fff;fill-rule:evenodd"/><path d="M14.5,175.6h5.4c4.6,0,6.2,2.2,6.2,5.9v1c0,3.7-1.4,4.7-2.4,5.2,1.2.4,2.9,1.5,2.9,5.2v2c0,4.4-1.9,6.7-6.3,6.7H14.7v-26Zm5,10.6c2.3,0,3-.6,3-3.2v-1.1c0-2.1-.9-2.9-2.7-2.9H18.6v7.2Zm-1.1,12.2h1.4c2.2,0,2.9-1.1,2.9-3.5v-1.7c0-2.6-.7-3.6-3.2-3.6H18.4Z" transform="translate(-0.7 -0.8)" style="fill:#73fbfb"/><path d="M33.2,190.1v11.7h-4v-26h5.5c4,0,6.3,1.6,6.3,6.3v.9c0,4-1.6,5-2.7,5.4,1.5.6,2.4,1.7,2.4,5.3a67.9,67.9,0,0,0,.3,8.1H37.1c-.4-1.6-.3-5.9-.3-7.8s-.4-3.9-2.7-3.9Zm0-3.3h.9c2.2,0,3-.8,3-3.7v-.9c0-2-.4-3.2-2.7-3.2H33.3v7.8Z" transform="translate(-0.7 -0.8)" style="fill:#73fbfb"/><path d="M56.2,182.6v12.2c0,5-2.2,7.4-6.6,7.4s-6.2-2.4-6.2-7.3V182.7c0-4.9,2.5-7.2,6.4-7.2S56.2,177.7,56.2,182.6Zm-8.6-.4v13.1c0,2.2.8,3.2,2.2,3.2s2.3-.9,2.3-3.2v-13c0-2-.6-3.2-2.3-3.2S47.6,180.1,47.6,182.2Z" transform="translate(-0.7 -0.8)" style="fill:#73fbfb"/><path d="M63,175.6v19.9c0,1.8.7,2.9,2.1,2.9s2.2-1.2,2.2-2.9V175.6h4v19.7c0,4.2-1.9,6.7-6.2,6.7s-6.1-2.2-6.1-6.7V175.6Z" transform="translate(-0.7 -0.8)" style="fill:#73fbfb"/><path d="M86.5,201.6H83.4c-.1-.4-.1-1.3-.3-2-.6,1.8-2.2,2.3-3.9,2.3-3.8,0-5.1-2.8-5.1-7.2V182.5c0-4.3,1.7-7.4,6.2-7.4s6.1,4,6.1,6.8v.8H82.3v-1c0-1.4-.1-3-2-3s-2.1,1.1-2.1,3.1v13.3c0,2.1.6,3.2,2,3.2s2.1-1.5,2.1-4.2v-3.7H80.1v-3.5h6.3v14.7Z" transform="translate(-0.7 -0.8)" style="fill:#73fbfb"/><path d="M89.7,175.6h4V186H98V175.6h4.1v26H98v-12H93.7v12h-4Z" transform="translate(-0.7 -0.8)" style="fill:#73fbfb"/><path d="M108.1,179.4h-4.2v-3.8h12.4v3.8h-4.2v22.2h-4Z" transform="translate(-0.7 -0.8)" style="fill:#73fbfb"/><path d="M18.4,213.3H14.5v-3.5H25.9v3.5H22.2v20.6H18.4Z" transform="translate(-0.7 -0.8)" style="fill:#73fbfb"/><path d="M38.8,216.2v11.3c0,4.5-2,6.8-6,6.8s-5.7-2.3-5.7-6.7V216.4c0-4.6,2.3-6.7,6-6.7S38.8,211.5,38.8,216.2Zm-7.9-.4v12.1c0,2,.7,2.9,2,2.9s2.2-.9,2.2-2.9V215.8c0-1.9-.6-2.9-2.2-2.9S30.9,213.8,30.9,215.8Z" transform="translate(-0.7 -0.8)" style="fill:#73fbfb"/><path d="M49,233.8v-8.5a2.5,2.5,0,0,0-.1-.8l-4.4-14.7h4.1c1,3.9,2,8.3,2.4,11,.6-2.8,1.7-7.1,2.5-11h3.9l-4.6,15a5.5,5.5,0,0,0-.1.9v8.1Z" transform="translate(-0.7 -0.8)" style="fill:#73fbfb"/><path d="M70,216.2v11.3c0,4.5-2,6.8-6.1,6.8s-5.6-2.3-5.6-6.7V216.4c0-4.6,2.3-6.7,5.9-6.7S70,211.5,70,216.2Zm-7.9-.4v12.1c0,2,.6,2.9,2,2.9s2.1-.9,2.1-2.9V215.8c0-1.9-.5-2.9-2.1-2.9S62.1,213.8,62.1,215.8Z" transform="translate(-0.7 -0.8)" style="fill:#73fbfb"/><path d="M76.3,209.8V228c0,1.8.5,2.8,2,2.8s2-1,2-2.8V209.8h3.6V228c0,3.8-1.7,6.2-5.7,6.2s-5.7-2-5.7-6.2V209.8Z" transform="translate(-0.7 -0.8)" style="fill:#73fbfb"/><path d="M91.7,209.8h5c4.2,0,5.8,2,5.8,5.5v.9c0,3.4-1.2,4.4-2.3,4.8,1.1.4,2.7,1.4,2.7,4.9v1.8c0,4.1-1.8,6.2-5.9,6.2H91.7Zm4.6,9.8c2,0,2.7-.7,2.7-3.1v-.9c0-2.1-.7-2.9-2.6-2.9H95.2v6.7h1.1Zm-.9,11.2h1.2c2.1,0,2.7-.9,2.7-3.2V226c0-2.3-.6-3.3-3-3.3h-.9Z" transform="translate(-0.7 -0.8)" style="fill:#73fbfb"/><path d="M108,233.8v-8.5a1.3,1.3,0,0,0-.2-.8l-4.4-14.7h4.2c.9,3.9,2,8.3,2.4,11,.5-2.8,1.6-7.1,2.4-11h3.9l-4.6,15a5.5,5.5,0,0,0-.1.9v8.1Z" transform="translate(-0.7 -0.8)" style="fill:#73fbfb"/><path d="M131.5,175.6h11.9c10.1,0,14,4.7,14,13.3V191c0,8.3-2.8,10.8-5.4,11.7,2.6,1.1,6.5,3.2,6.5,11.6v4.5c0,9.9-4.2,15-14.3,15H131.5Zm11,23.7c5.1,0,6.6-1.6,6.6-7.3v-2.3c0-4.8-1.8-6.7-6.1-6.7h-2.8v16.3Zm-2.3,27.2h3c5.2,0,6.4-2.2,6.4-7.9v-3.8c0-5.7-1.5-8.2-7.1-8.2h-2.3Z" transform="translate(-0.7 -0.8)" style="fill:#fff"/><path d="M173.4,207.9v26h-9V175.6h12.5c8.8,0,14.1,3.7,14.1,14.1V192c0,9-3.7,11.2-6,12.2,3.4,1.6,5.4,4,5.4,11.9,0,4.9-.1,14.3.6,17.9h-8.8c-.8-3.4-.6-13.1-.6-17.2,0-7.1-1-8.7-6.2-8.7h-2Zm0-7.5h2c4.7,0,6.6-1.7,6.6-8.1v-2.1c0-4.5-1-7.2-6.1-7.2h-2.5Z" transform="translate(-0.7 -0.8)" style="fill:#fff"/><path d="M224.9,191v27.2c0,11.1-4.7,16.5-14.6,16.5s-13.8-5.4-13.8-16.3V191c0-11.1,5.6-16.2,14.3-16.2S224.9,179.9,224.9,191Zm-19.3-.8v29.4c0,4.8,1.7,7.1,5,7.1s5.1-2.2,5.1-7.3V190.2c0-4.6-1.5-7.2-5.1-7.2S205.6,185.3,205.6,190.2Z" transform="translate(-0.7 -0.8)" style="fill:#fff"/><path d="M239.2,218.4l-2.1,15.5H228l9.4-58.3h12.8l9.6,58.3h-9.4l-2.2-15.5Zm7.9-8.3c-1.4-9.9-2.6-19.3-3.2-25.9h-.3c-.3,4.8-2,17.3-3.2,25.9Z" transform="translate(-0.7 -0.8)" style="fill:#fff"/><path d="M264.1,175.6h12.5c12.4,0,15.5,6.5,15.5,17.3v22.3c0,8.8-1.5,18.7-15.5,18.7H264.1Zm9,50.7h3c5.9,0,6.8-3.8,6.8-9.8V192.3c0-5.4-.9-8.9-6.8-8.9h-2.8v42.9Z" transform="translate(-0.7 -0.8)" style="fill:#fff"/><path d="M305.5,216.8v3.6c0,4.3,1.3,6.7,4.7,6.7s4.4-3.4,4.4-7.1c0-6.3-1.3-8.2-7.6-13.2s-9.7-8.1-9.7-16.7,2.3-15.4,12.9-15.4,12.5,7.6,12.5,14.1v3h-9V189c0-4-.7-6.5-3.6-6.5s-3.8,2.5-3.8,6.4.8,6.2,5.9,9.9c8.7,6.4,11.4,10.2,11.4,20,0,8.3-2.9,16-13.8,16s-13.4-6.8-13.4-14.6v-3.4Z" transform="translate(-0.7 -0.8)" style="fill:#fff"/><path d="M338.2,175.6v58.3h-8.9V175.6Z" transform="translate(-0.7 -0.8)" style="fill:#fff"/><path d="M372.6,233.9h-7c-.2-1.1-.4-3.1-.5-4.4-1.6,3.9-5,5.2-8.7,5.2-8.6,0-11.4-6.2-11.4-16.1V191.3c0-9.5,3.7-16.5,13.8-16.5,12.2,0,13.6,9,13.6,15.3V192h-9v-2.3c0-3.1-.4-6.6-4.6-6.6s-4.7,2.3-4.7,7V220c0,4.7,1.3,7.1,4.6,7.1s4.8-3.2,4.8-9.3v-8.4h-5.1v-7.8h14.2Z" transform="translate(-0.7 -0.8)" style="fill:#fff"/><path d="M380,233.9V175.6h10.5c2.3,8.2,9.2,37,9.9,40.1h.1c-.4-7.1-.4-15.4-.4-24.9V175.6h8.4v58.3H398.4c-1.9-7-9.7-39-10.2-41.4h-.1c.4,7.1.4,15,.4,25.5v15.9Z" transform="translate(-0.7 -0.8)" style="fill:#fff"/></svg>