<svg id="Layer_1" data-name="Layer 1" xmlns="http://www.w3.org/2000/svg" viewBox="0 0 300.4 84.5"><polygon points="34.2 32.2 34.2 32.2 33.4 34.5 35 34.5 34.2 32.2" style="fill:#47cfe1"/><polygon points="53.4 32.2 52.6 34.5 54.2 34.5 53.4 32.2 53.4 32.2" style="fill:#47cfe1"/><path d="M61.2,170c0-.7-.4-.9-1.2-.9h-.6V171h.8A.9.9,0,0,0,61.2,170Z" transform="translate(-31.3 -137.1)" style="fill:#47cfe1"/><path d="M99.2,137.1H36.8a5.4,5.4,0,0,0-5.5,5.5V180c0,12,4.5,26.2,28.5,38.3,1.9,1,3.9,1.9,6,2.8a5.6,5.6,0,0,0,4.4,0c2.1-.9,4.1-1.8,6-2.8,24-12.1,28.5-26.3,28.5-38.3V142.6A5.4,5.4,0,0,0,99.2,137.1ZM97,168.3a2.6,2.6,0,0,1,1.5.4v1.2h-.7v-.6a.2.2,0,0,0-.2-.2H97c-1,0-1.5.7-1.5,1.9s.4,2.1,1.6,2.1h.6c.1,0,.1-.1.1-.2v-.6h.8v1.3a3.8,3.8,0,0,1-1.6.3c-1.6,0-2.6-.9-2.6-2.8A2.5,2.5,0,0,1,97,168.3Zm-3.3,4.9v.6H91.8v-.6h.3c.1-.1.2-.1.2-.3v-3.8h-.4v-.7h1.8v.6h-.2c-.2,0-.2,0-.2.2v3.8Zm-22-20.3v-8.1H92v10l-2.1.2-1.8.2v11.4H85.8V155.1c0-1.2.3-1.8,1-2l.8-.2,2.1-.2v-5.6H74v5.8l2.1.2h1.5v13.5H75.2V155.4H73.9l-2.2-.2Zm18.7,16.2h-.8v4h.6v.6H88.1v-.6h.3c.2-.1.3-.1.3-.3v-3.8h-.8a.2.2,0,0,0-.2.2v.5h-.8v-1.4h4.5v1.4h-.8v-.4C90.6,169.2,90.6,169.1,90.4,169.1Zm-4.6,3.8-.2-.6H83.8l-.3.8h.4v.6H82.1v-.6h.2c.2-.1.3-.1.3-.3l1.3-3.8h-.4v-.7h1.7l1.7,4.7h.4v.6H85.4v-.6h.3C85.8,173.1,85.9,173.1,85.8,172.9Zm-5.4,0v-3h0l-1.4,3.3h-.7l-1.3-3.3h0l-.2,3.3h.4v.6H75.4v-.6h.2c.2,0,.2-.1.2-.3l.3-3.8h-.4v-.7h1.5l1.4,3.7h0l1.3-3.7h1.7v.7h-.3a.2.2,0,0,0-.2.2l.2,3.9h.5v.6H80v-.6h.2C80.4,173.1,80.4,173.1,80.4,172.9Zm-11.9.3h.2c.1-.1.2-.1.2-.3l.3-3.8h-.4v-.7h1.5l1.4,3.6h0l1.3-3.6h1.6v.6h-.2c-.1,0-.2,0-.2.2l.2,3.8h.4v.6H73.1v-.6h.2c.2,0,.2-.1.2-.3l-.2-3h0L72,173.2h-.7L70,169.9h0l-.2,3.3h.4v.6H68.4v-.6Zm4.9,12.9c1.2-1.1,1.8-2.9,1.8-5.2v-5.3h2.4v5.3a9.9,9.9,0,0,1-1.7,6l-.3.3-.3.3h-.1l-.3.3a1,1,0,0,1-.5.4l-.9.6-.3.2H71.9l-.4.2h-.4a12.3,12.3,0,0,1-2.7.2c-5.6,0-9.6-2.2-9.6-9.5v-4.9h2.3v4.9c0,2.8.6,4.6,1.9,5.7s2.9,1.5,5.4,1.5A7.3,7.3,0,0,0,73.4,186.1ZM58,169.1v-.7h2.2c1.2,0,2,.4,2,1.5a1.3,1.3,0,0,1-1.1,1.4c.3.1.4.3.6.5l.6,1.3h.4v.7H60.8v-.6h.3a.4.4,0,0,0,.1-.3l-.5-.8c-.1-.3-.2-.4-.6-.4h-.7v1.4h.4v.6H58v-.6h.2c.2-.1.2-.1.2-.3v-3.8Zm9.7,4h.4v.6H66.2v-.6h.3c.1-.1.2-.1.1-.3l-.2-.6H64.5l-.2.8h.4v.6H62.9v-.6h.2l.3-.3,1.3-3.8h-.4v-.7H66ZM44,152.9v-8.1H65v10l-2.1.2-1.8.2v11.4H58.8V155.1a2.8,2.8,0,0,1,.2-1.4h.1l.4-.3h.1l.9-.2,2.2-.2v-5.6H46.3v5.8l2.5.2h1.3v13.4H47.8V155.4H46.1l-2.1-.2v-2.2Zm12,16.3h-.7c-1.1,0-1.6.8-1.6,2s.4,2,1.4,2a1.3,1.3,0,0,0,.9-.2v-1.2h-.5V171h1.8v.6h-.2c-.1,0-.2.1-.2.3v1.5a3.2,3.2,0,0,1-1.8.5c-1.6,0-2.5-.9-2.5-2.8a2.5,2.5,0,0,1,2.7-2.8,3.8,3.8,0,0,1,1.6.4v1.2h-.8v-.6C56.1,169.3,56.1,169.2,56,169.2Zm-4.1,1.9c0,1.9-.9,2.8-2.3,2.8s-2.3-1-2.3-2.8,1.2-2.8,2.4-2.8S51.9,169.1,51.9,171.1Zm-9.7,2.1h.3c.1-.1.1-.1.1-.3v-3.8h-.4v-.7h2.2c1.2,0,2,.4,2,1.5a1.3,1.3,0,0,1-1.1,1.4,1,1,0,0,1,.6.5l.6,1.3h.4v.7H45v-.6h.3c.1-.1.2-.2.1-.3l-.4-.8c-.2-.3-.3-.4-.6-.4h-.8v1.4H44v.6H42.2Zm-4.9,0h.3c.2-.1.2-.1.2-.3v-3.8h-.4v-.7h2.3c1.2,0,1.9.6,1.9,1.7s-.9,1.8-2.1,1.8h-.7v1.2h.7v.6H37.4v-.6Zm.2,5.7h1.8l1.1,2,1.2-2h1.7l.2.2h0l-.7,1.1-.8,1.4-.7,1.3H39.6l-.8-1.3-.8-1.4-.7-1.1C37.3,179.1,37.3,178.9,37.5,178.9Zm0,5.6c-.1-.1-.1-.2.1-.2l1.3-.2h.4l1.5,1.8.8-2.1h2l-.5,1.2-.6,1.5-.6,1.4h-.2l-1.3.2h-.2l-.9-1.1-1-1.3Zm.9,5.5c-.1-.1-.1-.2,0-.2l1.3-.5.4-.2,1.8,1.5.4-2.3h.4l1.3-.5h.2l-.2,1.3-.3,1.6-.3,1.5h-.1l-1.3.5h-.2l-1.2-1-1.2-1Zm3.2,5.9-1.2-.6c-.1,0-.1-.2,0-.3l1.1-.6.4-.3,2.1,1.1v-2.3l.4-.2,1.1-.7c.1-.1.2,0,.3.1h0v4.6l-1.2.7h-.2l-1.3-.8Zm3.2,4.5-1.3-.4c-.1-.1-.2-.2-.1-.3l1-.9.4-.3,2.2.7-.5-2.2.4-.3,1-.9c0-.1.1,0,.2,0h0l.3,1.3.3,1.6.3,1.4c0,.1,0,.2-.1.2l-1,.9h-.2l-1.4-.5Zm3.9,3.9-1.3-.2c-.2-.1-.2-.2-.2-.3l.9-1,.3-.4,2.3.4-.9-2.2.3-.3.8-1.1h.3l.5,1.2.6,1.5.5,1.4v.2l-.9,1.1h-.2l-1.4-.3Zm4,3.1H51.4c-.1,0-.2-.1-.1-.2L52,206l.3-.4h2.3l-1.1-2.1.3-.3.7-1.1h.3l.6,1.1.7,1.5.7,1.3v.2l-.8,1.2H52.7Zm6,2.6H55.8c-.2,0-.2-.1-.2-.2l.7-1.2.2-.4h2.3l-1.2-1.9.2-.4.6-1.2h.3l.7,1.1.9,1.4.7,1.3c.1,0,.1.1,0,.2l-.6,1.2H58.7Zm6.8.8-.6,1.2H63.2l-1.6.2H60.3l-.2-.2.6-1.2.2-.5,2.3-.2-1.3-1.9.2-.4.5-1.2h.3l.8,1.1.9,1.3.8,1.2A.4.4,0,0,1,65.5,210.8Zm2.4-11.6a30.7,30.7,0,0,1-8.4-1,17.8,17.8,0,0,1-6.4-3.4,16,16,0,0,1-4.1-6.1,25.9,25.9,0,0,1-1.2-8.3v-4.8h2.3v4.8c0,11.6,6.1,16.5,17.8,16.5s17.9-5.6,17.9-15.2v-6.1h2.3v6.1a18.5,18.5,0,0,1-1.5,7.4,16.5,16.5,0,0,1-4.3,5.6C78.7,197.6,73.7,199.2,67.9,199.2Zm7.8,13.3H74.4l-1.6-.2H71.1l-.6-1.2v-.3l.9-1.2.9-1.3.7-1.1h.3l.6,1.2.2.4-1.3,1.9,2.3.2.2.4.5,1.2C75.9,212.4,75.8,212.5,75.7,212.5Zm4.5-2.4H75.6l-.6-1.2c-.1-.1-.1-.2,0-.2l.7-1.3.9-1.4.6-1.1h.3l.7,1.2.2.4-1.2,1.9h2.3l.2.4.6,1.2C80.4,210,80.3,210.1,80.2,210.1Zm4.4-2.8H80l-.8-1.1v-.3l.7-1.3.7-1.4.6-1.2h.3l.7,1.1.2.4-1,2h2.3l.3.4.7,1.1C84.8,207.2,84.7,207.3,84.6,207.3Zm4-3.2-1.3.2-1.6.2-1.4.3c-.1,0-.2,0-.2-.1l-.9-1a.2.2,0,0,1,0-.3l.5-1.4.6-1.5.4-1.2a.1.1,0,0,0,.1-.1c.1,0,.2,0,.2.1l.9,1,.2.3-.8,2.2,2.3-.4.3.4.8,1C88.8,203.9,88.8,204,88.6,204.1Zm3.9-4.2-1.3.5-1.5.5-1.4.5h-.2l-1-.9c-.1,0-.1-.1-.1-.2l.3-1.4.3-1.6.3-1.3h.2l1,.9.4.3-.5,2.2,2.2-.7.4.3,1,.9C92.7,199.8,92.6,199.9,92.5,199.9Zm3.1-4.6-1.2.6-1.4.8-1.3.7h-.2l-1.2-.7v-4.6h.3l1.1.7.4.2v2.3l2-1.1.5.2,1.1.7C95.7,195.1,95.7,195.3,95.6,195.3Zm2-5.3-1,.9-1.2,1-1.2,1H94l-1.3-.5h-.1l-.3-1.5-.2-1.6-.3-1.3h.3l1.2.5h.4l.4,2.3,1.8-1.5.4.2,1.3.4A.2.2,0,0,1,97.6,190Zm.9-5.5-.8,1.1-1,1.2-.9,1.2h-.2l-1.3-.2h-.2l-.6-1.4-.6-1.5-.5-1.2h0l.2-.2,1.3.2h.5l.8,2.1,1.5-1.8h1.7C98.6,184.3,98.6,184.4,98.5,184.5Zm.2-5.3-.7,1.1-.8,1.4-.8,1.3H94.7l-.8-1.3-.8-1.4-.6-1.1h0c0-.1,0-.2.1-.2h1.8l1.1,2,1.2-2h1.8C98.6,178.9,98.7,179.1,98.7,179.2Z" transform="translate(-31.3 -137.1)" style="fill:#47cfe1"/><path d="M45.4,170c0-.7-.4-.9-1.2-.9h-.6V171h.8A.9.9,0,0,0,45.4,170Z" transform="translate(-31.3 -137.1)" style="fill:#47cfe1"/><path d="M40.5,170.2c0-.9-.4-1.1-1.2-1.1h-.5v2.1h.6C40.1,171.2,40.5,170.9,40.5,170.2Z" transform="translate(-31.3 -137.1)" style="fill:#47cfe1"/><path d="M48.3,171.1c0,.9.2,2,1.3,2s1.3-1,1.3-1.9-.2-2-1.3-2S48.3,170.1,48.3,171.1Z" transform="translate(-31.3 -137.1)" style="fill:#47cfe1"/><path d="M117.3,168.2h.9c.5-.1.6-.3.6-.9V153.9h-1.5v-2.2h8c4.2,0,6.7,1.9,6.7,5.7s-3,6.4-7.3,6.4h-2.4v4.2l2.5.2v2.2h-7.5Zm7-7c2.5,0,4.1-.9,4.1-3.6s-1.7-3.5-4.3-3.5h-1.8v7.1Z" transform="translate(-31.3 -137.1)" style="fill:#47cfe1"/><path d="M134.2,168.2h.9c.5-.1.6-.2.6-.9V153.9h-1.4v-2.2H142c4.2,0,6.8,1.3,6.8,5.1a4.7,4.7,0,0,1-3.8,4.9,3.2,3.2,0,0,1,2,1.9l2.3,4.5h1.3v2.2H144v-2.1h1q.8-.2.3-.9l-1.4-2.9a2.1,2.1,0,0,0-2.2-1.4h-2.5V168h1.3v2.2h-6.3v-2.1Zm7.7-7.7a3.1,3.1,0,0,0,3.4-3.4c0-2.6-1.4-3-4.2-3h-1.9v6.4Z" transform="translate(-31.3 -137.1)" style="fill:#47cfe1"/><path d="M159.8,170.6c-5,0-8-3.2-8-9.6s4.3-9.8,8.3-9.8,7.9,2.6,7.9,9.8S164.8,170.6,159.8,170.6Zm.2-2.8c3.5,0,4.5-3.4,4.5-6.7s-.8-6.9-4.6-6.9-4.6,3.3-4.6,6.6S156,167.8,160,167.8Z" transform="translate(-31.3 -137.1)" style="fill:#47cfe1"/><path d="M182.1,167.2v-4.4h-1.8v-2.2h6.6v2.1h-.8c-.5,0-.7.2-.7.8v5.4a11.5,11.5,0,0,1-6.4,1.7c-5.4,0-8.5-3.1-8.5-9.6s4.3-9.8,9.2-9.8a12.3,12.3,0,0,1,5.6,1.2v4.4l-2.7.2v-1.9c0-.5,0-.7-.5-.9l-2.3-.2c-3.9,0-5.7,2.6-5.7,6.8s1.5,7.1,5,7.1A6.3,6.3,0,0,0,182.1,167.2Z" transform="translate(-31.3 -137.1)" style="fill:#47cfe1"/><path d="M189.1,168.2h.8c.5-.1.7-.2.7-.9V153.9h-1.5v-2.2h7.8c4.1,0,6.8,1.3,6.8,5.1a4.8,4.8,0,0,1-3.8,4.9,3.4,3.4,0,0,1,2,1.9l2.2,4.5h1.3v2.2h-6.5v-2.1h1q.6-.2.3-.9l-1.5-2.9a2.1,2.1,0,0,0-2.2-1.4H194V168h1.3v2.2H189v-2.1Zm7.7-7.7a3.1,3.1,0,0,0,3.4-3.4c0-2.6-1.5-3-4.2-3h-2v6.4Z" transform="translate(-31.3 -137.1)" style="fill:#47cfe1"/><path d="M206.3,170.3v-2.1h.6c.7-.1.8-.4,1-.9l4.6-13.2-1.5-.2v-2.2h6.1L223,168h1.4v2.2h-6.7v-2.1h.9c.6-.1.7-.3.6-.9l-.8-2.2h-6.5l-1,3h1.5v2.2Zm6.2-7.7h5.3l-2.6-8h-.1Z" transform="translate(-31.3 -137.1)" style="fill:#47cfe1"/><path d="M232.1,151.6l4.6,12.5h.1l4.7-12.5h5.6v2.1h-.8c-.5,0-.8.3-.8.9l.9,13.3h1.4v2.3h-6.2v-2.2h.9c.6,0,.7-.2.6-1l-.5-10.5h-.1L238,168.1h-2.6l-4.5-11.5h0l-.6,11.3h1.4v2.2h-6.2v-2.1h.9c.5,0,.7-.2.7-.9l.9-13.3h-1.4v-2.3h5.5Z" transform="translate(-31.3 -137.1)" style="fill:#47cfe1"/><path d="M256.2,151.6l4.6,12.5h0l4.8-12.5h5.6v2.1h-.8c-.5,0-.8.3-.8.9l.8,13.3h1.5v2.3h-6.2v-2.2h.9c.5,0,.6-.2.6-1l-.5-10.5h-.1L262,168.1h-2.6L255,156.6h-.1l-.6,11.3h1.5v2.2h-6.2v-2.1h.8c.5,0,.8-.2.8-.9l.9-13.3h-1.5v-2.3h5.6Z" transform="translate(-31.3 -137.1)" style="fill:#47cfe1"/><path d="M273.2,170.3v-2.1h.7c.6-.1.7-.4.9-.9l4.6-13.2-1.5-.2v-2.2h6.2l5.8,16.4h1.4v2.2h-6.7v-2.1h.9c.6-.1.8-.3.6-.9l-.8-2.2h-6.5l-1,3h1.5v2.2Zm6.2-7.7h5.3l-2.6-8H282Z" transform="translate(-31.3 -137.1)" style="fill:#47cfe1"/><path d="M295.9,154.1h-2.6c-.5,0-.7.2-.7.7v1.7l-2.7-.2v-4.7h15.4v4.7l-2.7.2v-1.7c0-.4-.1-.7-.7-.7h-2.6V168h2v2.2h-7.4v-2.1h1.2c.6-.1.8-.3.8-.9V154.1Z" transform="translate(-31.3 -137.1)" style="fill:#47cfe1"/><path d="M308.5,153.9h-1.4v-2.2h6.5v2.1h-.9c-.5,0-.7.2-.7.8V168h1.5v2.3H307v-2.2h.8c.5,0,.7-.2.7-.9Z" transform="translate(-31.3 -137.1)" style="fill:#47cfe1"/><path d="M325,154c-3.6,0-5.4,2.4-5.4,6.6s1.5,7.2,5.6,7.2l2-.2c.5-.1.5-.4.5-.8v-2.1l2.8.2v4.6a13.3,13.3,0,0,1-5.6,1.1c-5.6,0-8.9-3.2-8.9-9.6s4.4-9.8,8.8-9.8a14.6,14.6,0,0,1,5.5,1.1v4.5l-2.8.2v-2c0-.4,0-.7-.5-.8Z" transform="translate(-31.3 -137.1)" style="fill:#47cfe1"/><path d="M117.4,181.7h.3a.3.3,0,0,0,.3-.3v-5.3h-.6v-.9h3c2.1,0,3.5,1.1,3.5,3.4s-1.7,4-3.5,4h-3Zm1.9-.2h1c1.4,0,2.2-.8,2.2-2.7s-.9-2.6-2.2-2.6h-.9v5.3Z" transform="translate(-31.3 -137.1)" style="fill:#47cfe1"/><path d="M131,176.1h-.6v-.9H133v.8h-.4c-.2,0-.3,0-.3.3v5.2h.6v.8h-2.5v-.8h.3c.2-.1.3-.1.3-.4Z" transform="translate(-31.3 -137.1)" style="fill:#47cfe1"/><path d="M144,181.3v-1.7h-.7v-.8h2.6v.8h-.3c-.2.1-.3.1-.3.4V182a4.6,4.6,0,0,1-2.5.7c-2.1,0-3.3-1.3-3.3-3.8s1.6-3.8,3.6-3.8a6.7,6.7,0,0,1,2.2.4v1.8h-1.1v-.7c0-.2,0-.3-.2-.4h-.9c-1.6,0-2.3,1-2.3,2.6s.6,2.8,2,2.8A1.9,1.9,0,0,0,144,181.3Z" transform="translate(-31.3 -137.1)" style="fill:#47cfe1"/><path d="M152.9,176.1h-.6v-.9h2.5v.8h-.3c-.2,0-.3,0-.3.3v5.2h.6v.8h-2.5v-.8h.3c.2-.1.3-.1.3-.4Z" transform="translate(-31.3 -137.1)" style="fill:#47cfe1"/><path d="M163.4,176.2h-1c-.3,0-.3.1-.3.3v.6H161v-1.8h6.1V177H166v-.6c0-.2,0-.3-.3-.3h-1v5.4h.8v.8h-2.9v-.8h.5c.2,0,.3-.1.3-.4v-5.1Z" transform="translate(-31.3 -137.1)" style="fill:#47cfe1"/><path d="M172.2,182.5v-.8h.2c.3-.1.3-.2.4-.4l1.8-5.2H174v-.9h2.4l2.3,6.4h.6v.8h-2.7v-.8h.4c.2-.1.3-.2.2-.4l-.3-.8h-2.5l-.4,1.1h.5v.8Zm2.4-3h2.1l-1-3.1h-.1Z" transform="translate(-31.3 -137.1)" style="fill:#47cfe1"/><path d="M186,176.1h-.6v-.9H188v.8h-.3c-.3,0-.3.1-.3.3v5.2h1.8a.3.3,0,0,0,.3-.3v-.8h1v1.9h-5.1v-.8h.3c.2,0,.3-.1.3-.4v-5.2Z" transform="translate(-31.3 -137.1)" style="fill:#47cfe1"/><path d="M207.9,182.7c-2,0-3.1-1.3-3.1-3.8s1.7-3.9,3.3-3.9,3.1,1,3.1,3.9S209.9,182.7,207.9,182.7Zm.1-1.2c1.4,0,1.8-1.3,1.8-2.6s-.4-2.7-1.8-2.7-1.9,1.3-1.9,2.6S206.4,181.5,208,181.5Z" transform="translate(-31.3 -137.1)" style="fill:#47cfe1"/><path d="M223.7,180.4c0,1.4-1.1,2.3-2.8,2.3s-2.8-.8-2.8-2.5v-4.1h-.5v-.9h2.5v.8h-.3c-.2,0-.3,0-.3.3v3.8a1.5,1.5,0,1,0,2.9.1v-4.2h-.6v-.9h2.5v.8H224a.3.3,0,0,0-.3.3v4Z" transform="translate(-31.3 -137.1)" style="fill:#47cfe1"/><path d="M232.8,176.2h-1.1a.3.3,0,0,0-.3.3v.6h-1v-1.8h6V177h-1v-.6a.3.3,0,0,0-.3-.3h-1v5.4h.8v.8h-3v-.8h.5c.3,0,.3-.1.3-.4v-5.1Z" transform="translate(-31.3 -137.1)" style="fill:#47cfe1"/><path d="M242.5,178.8h2.9v1.1h-2.9Z" transform="translate(-31.3 -137.1)" style="fill:#47cfe1"/><path d="M254.9,182.7c-2,0-3.2-1.3-3.2-3.8s1.7-3.9,3.3-3.9,3.1,1,3.1,3.9S256.9,182.7,254.9,182.7Zm.1-1.2c1.3,0,1.7-1.3,1.7-2.6s-.3-2.7-1.8-2.7-1.8,1.3-1.8,2.6S253.4,181.5,255,181.5Z" transform="translate(-31.3 -137.1)" style="fill:#47cfe1"/><path d="M264.6,181.7h.3c.2-.1.3-.1.3-.4v-5.2h-.6v-.9h5.3v1.7h-1v-.5a.3.3,0,0,0-.3-.3h-2v2.2h2.7v1h-2.7v2.3h.8v.9h-2.8v-.9Z" transform="translate(-31.3 -137.1)" style="fill:#47cfe1"/><path d="M276,178.8h2.9v1.1H276Z" transform="translate(-31.3 -137.1)" style="fill:#47cfe1"/><path d="M285.8,176.1h-.6v-.9h2.6v.8h-.3a.3.3,0,0,0-.3.3v1.8h3.2v-2.1h-.6v-.9h2.5v.8H292c-.2,0-.3,0-.3.3v5.2h.6v.8h-2.6v-.8h.4c.2-.1.3-.1.3-.4v-2h-3.2v2.3h.5v.8h-2.5v-.8h.3c.2-.1.3-.1.3-.4v-5.2Z" transform="translate(-31.3 -137.1)" style="fill:#47cfe1"/><path d="M302,182.7c-2,0-3.2-1.3-3.2-3.8s1.7-3.9,3.3-3.9,3.1,1,3.1,3.9S303.9,182.7,302,182.7Zm0-1.2c1.4,0,1.8-1.3,1.8-2.6s-.3-2.7-1.8-2.7-1.8,1.3-1.8,2.6S300.5,181.5,302,181.5Z" transform="translate(-31.3 -137.1)" style="fill:#47cfe1"/><path d="M314,175.2l1.8,4.9h0l1.9-4.9h2.2v.8h-.3c-.2.1-.3.2-.3.4l.3,5.2h.6v.9h-2.5v-.8h.4c.2,0,.2-.1.2-.3l-.2-4.2h0l-1.8,4.6h-1l-1.8-4.6h0l-.2,4.5h.5v.9h-2.4v-.8h.4c.2,0,.2-.1.2-.3l.4-5.2h-.6v-.8Z" transform="translate(-31.3 -137.1)" style="fill:#47cfe1"/><path d="M326.6,181.7h.2c.3,0,.4-.1.4-.4v-5.2h-.6v-.9h5v1.7h-1.1v-.5c0-.2,0-.3-.2-.3h-1.8v2.1h2.7v1h-2.7v2.3h1.9c.2,0,.2-.1.2-.3v-.6h1.1v1.7h-5.2v-.8Z" transform="translate(-31.3 -137.1)" style="fill:#47cfe1"/><path d="M132.7,200.7c0,3.7-2.9,5.9-7.1,5.9s-7-1.9-7-6.3V189.8h-1.5v-2.2h6.5v2.2h-.9c-.5.1-.7.2-.7.9v9.7c0,2.8,1.6,3.6,3.8,3.6s3.6-1.1,3.6-3.5V189.8H128v-2.2h6.2v2.2h-.8c-.5.1-.7.2-.7.9v10.1Z" transform="translate(-31.3 -137.1)" style="fill:#47cfe1"/><path d="M152.8,206.2h-3.3l-8.2-13.6h-.1v11.3h1.6v2.2h-6.4v-2.1h.9c.5-.1.6-.2.6-.8V189.8h-1.4v-2.2h5l8,13.4h.1V189.8H148v-2.2h6.4v2.2h-.9c-.5.1-.7.3-.7.9v15.6Z" transform="translate(-31.3 -137.1)" style="fill:#47cfe1"/><path d="M158.1,189.8h-1.5v-2.2h6.5v2.1h-.9c-.5.1-.7.3-.7.9v13.3H163v2.2h-6.5v-2.1h.9c.5-.1.7-.2.7-.9Z" transform="translate(-31.3 -137.1)" style="fill:#47cfe1"/><path d="M173.4,202.6h0l4-12.8H176v-2.2h5.9v2.1h-.6c-.5,0-.7.3-.9.9l-5.1,15.6h-3.9l-5.5-16.4h-1.5v-2.2h6.7v2.2h-.8c-.7.1-.8.4-.6,1.1Z" transform="translate(-31.3 -137.1)" style="fill:#47cfe1"/><path d="M183.3,204.1h.7c.7-.1.9-.2.9-.9V189.8h-1.5v-2.2h12.8v4.3l-2.8.3v-1.4c0-.5-.1-.7-.7-.7h-4.4v5.4H195V198h-6.7v5.7H193c.6,0,.7-.2.7-.7v-1.5l2.7.2v4.5H183.3v-2.1Z" transform="translate(-31.3 -137.1)" style="fill:#47cfe1"/><path d="M198.8,204.1h.8c.6-.1.7-.2.7-.9V189.9l-1.5-.2v-2.2h7.8c4.1,0,6.8,1.4,6.8,5.1a4.9,4.9,0,0,1-3.8,5,3.4,3.4,0,0,1,2,1.9l2.2,4.4h1.3v2.2h-6.5v-2.1h1c.4,0,.6-.4.3-.8l-1.5-3a2.1,2.1,0,0,0-2.2-1.3h-2.5v5H205v2.2h-6.2v-2.1Zm7.7-7.6c2.1,0,3.4-1.2,3.4-3.5s-1.5-3-4.2-3h-1.9v6.5Z" transform="translate(-31.3 -137.1)" style="fill:#47cfe1"/><path d="M226,201c0-1.8-1.6-2.4-3.6-2.9s-5.3-1.8-5.3-5.4,2.6-5.5,6.6-5.5a12.4,12.4,0,0,1,5.2,1v4.4l-2.7.2V191c0-.5,0-.7-.5-.9l-2-.2c-1.5,0-3,.5-3,2.4s1.5,2.3,3.7,3,5.2,1.8,5.2,5.4-2.5,5.8-7,5.8a13.8,13.8,0,0,1-5.5-.9V201l2.7-.2v1.9c0,.5.1.7.5.8a6.9,6.9,0,0,0,2.2.3C224.4,203.8,226,203.2,226,201Z" transform="translate(-31.3 -137.1)" style="fill:#47cfe1"/><path d="M233.5,189.8H232v-2.2h6.5v2.1h-.9c-.5.1-.7.3-.7.9v13.3h1.5v2.2h-6.5v-2.1h.9c.5-.1.7-.2.7-.9Z" transform="translate(-31.3 -137.1)" style="fill:#47cfe1"/><path d="M246.1,190h-2.5c-.6,0-.7.3-.7.7v1.7l-2.7-.2v-4.7h15.4v4.7l-2.8.2v-1.6c0-.5-.1-.8-.7-.8h-2.5v13.9h2v2.2h-7.5v-2.1h1.3c.6,0,.8-.2.8-.9V190Z" transform="translate(-31.3 -137.1)" style="fill:#47cfe1"/><path d="M262.3,199.2l-5.1-9.4h-1v-2.2h6.6v2.2H262c-.6.1-.8.5-.5,1l2.8,5.6h0l3.3-6.5h-1.3v-2.3h5.6v2.2h-.6c-.6.1-.8.3-1.1.9l-4.5,8.5v4.8h1.9v2.2h-7.2v-2.1h1.1c.6,0,.8-.2.8-.8v-4Z" transform="translate(-31.3 -137.1)" style="fill:#47cfe1"/></svg>