<?xml version="1.0" encoding="utf-8"?>
<!-- Generator: Adobe Illustrator 24.0.1, SVG Export Plug-In . SVG Version: 6.00 Build 0)  -->
<svg version="1.1" id="Calque_1" xmlns="http://www.w3.org/2000/svg" xmlns:xlink="http://www.w3.org/1999/xlink" x="0px" y="0px"
	 viewBox="0 0 534 428" style="enable-background:new 0 0 534 428;" xml:space="preserve">
<style type="text/css">
	.st0{clip-path:url(#SVGID_2_);}
	.st1{fill:#F9C0C6;}
	.st2{fill:#F8B5BA;}
	.st3{fill:#B0DBF5;}
	.st4{fill:#1F1952;}
	.st5{fill:#F79420;}
	.st6{fill:#5E54A4;}
	.st7{fill:#1F1A1A;}
	.st8{fill:#EA7A70;}
	.st9{fill:#BEB8DB;}
	.st10{fill:#F8ADA7;}
	.st11{fill:#DCD9ED;}
	.st12{fill:#F36D21;}
	.st13{fill:#FFFFFF;}
	.st14{fill:#32C5F4;}
	.st15{fill:#242424;}
	.st16{fill:#362C79;}
	.st17{fill-rule:evenodd;clip-rule:evenodd;fill:#32C5F4;}
	.st18{fill-rule:evenodd;clip-rule:evenodd;fill:#B0DBF5;}
	.st19{fill-rule:evenodd;clip-rule:evenodd;fill:#FFD540;}
	.st20{fill:#F0EFEF;}
	.st21{fill:#9DD7F5;}
	.st22{fill:#C2DBF2;}
	.st23{fill:url(#SVGID_3_);}
	.st24{fill:#F4F8FD;}
	.st25{fill:#A1A0A0;}
	.st26{fill:#C8C7C6;}
	.st27{fill:#DCA586;}
	.st28{fill:#3F4249;}
	.st29{fill:#997762;}
	.st30{fill:#5E5A55;}
	.st31{fill:#8D877E;}
	.st32{fill:#6D6860;}
	.st33{fill:#7B7067;}
	.st34{fill:#DEDFE7;}
</style>
<g>
	<defs>
		<rect id="SVGID_1_" width="534" height="428"/>
	</defs>
	<clipPath id="SVGID_2_">
		<use xlink:href="#SVGID_1_"  style="overflow:visible;"/>
	</clipPath>
	<g class="st0">
		<path class="st1" d="M159,293.3c6.4-6-2-11-4.9-14.1c-2.9-3.1-4.5-8.5-4.5-12.8c0-1.9,0.1-3.9,0.1-5.5c0.1-4-0.8-8-3.1-11.1
			c-2.3-3-4.8-4.8-7.3-5.8c-3.4-1.3-7.1,1.1-7.6,4.8c-0.6,7-1,4.8,0.1,15.4c0,0,0.1,6,0.2,6.2C133.4,283.9,149.6,299.7,159,293.3z"
			/>
		<path class="st1" d="M173.7,279.1c3.1-3.7,6-7.9,8.6-12.4c0.6-0.9,1.2-2,1.8-2.9c0.1-0.4,0.1-0.6,0.1-0.7
			c-0.6-1.2-2.2-1.4-2.2-1.4c-0.5-0.1-1.5,0.5-2.7,1.4c-1.1,0.8-2.4,1.9-3.8,3.2c-5.5,5.3-31,20.7-24.4,27c0.1,0.1,0.3,0.4,0.6,0.5
			C157.2,297.9,166.4,288.3,173.7,279.1z"/>
		<path class="st2" d="M132,270.6c1.3,13.4,17.5,29.2,26.9,22.8c3.2-4.3-5-0.1-11.8-5.9c-5-4.6-8.5-9.8-10.9-16.2
			c0.2-0.2,0.2-0.6,0-0.8C134.6,268.7,133.1,269.3,132,270.6z"/>
		<path class="st3" d="M153.3,270.5c0-1.9,0-14.2-5.3-21.1c-2.4-3.2-10-8.5-14.2-5.7c-6.7,4.6-5.7,19.9-4.8,31
			C136.8,277.4,145.5,275.5,153.3,270.5z"/>
		<path class="st1" d="M181.8,268c-3.7,1.5-3.8-5.4-1.4-5.7c1.9-1.2,3.5-1.7,6.2-2.7c2.6-1.1,5.1,1.1,2.9,3.8
			C187.2,265.2,184.6,266.8,181.8,268z"/>
		<path class="st1" d="M185.2,250.2c1.1-0.4,1.1,1.3,0.4,2.2c-0.7,0.9-1.1,1.5-1.8,2.1c-0.5,1-0.9,1.7-1.2,2.7
			c-0.3,1.1-0.6,2.2-0.8,3.3c-0.6,1.4-1.9,2.5-2.6,1.3c-0.7-1.1-0.1-3.3,0.8-5C181.2,254.2,183.2,251.4,185.2,250.2z"/>
		<path class="st1" d="M190,258.7c-1.8,0.7-1.7-2.7-0.6-2.7c0.9-0.6,1.7-0.7,2.9-1.2c1.3-0.4,2.5,0.6,1.3,1.8
			C192.6,257.5,191.3,258.2,190,258.7z"/>
		<path class="st4" d="M191.6,247.2c0-0.1-0.1-0.1-0.1-0.1s-0.6-0.6-0.7-0.6c-0.2-0.1-0.6,0.1-1,0.5l-11.5,14.4
			c-0.5,0.6-0.8,1.3-0.8,2l1.2,5.3c0,0.1,0,0.1,0.1,0.1c0,0,0.6,0.6,0.7,0.6c0.2,0.1,0.6-0.1,1-0.5l11.5-14.4c0.5-0.6,0.8-1.5,0.8-2
			L191.6,247.2z"/>
		<path class="st5" d="M178.3,261.9l1.5,6.3l12-15.2l-1.5-6.3L178.3,261.9z"/>
		<path class="st6" d="M189.9,247l-11.5,14.4c-0.5,0.6-0.8,1.3-0.8,2l1.2,5.3c0.1,0.4,0.6,0.2,1.1-0.4l11.5-14.4
			c0.5-0.6,0.8-1.5,0.8-2l-1.2-5.3C190.9,246.2,190.3,246.4,189.9,247z M180.1,266.6l-1.1-4.3c-0.1-0.4,0.3-1.4,0.8-2l9.7-12.2
			c0.5-0.6,1-0.8,1.1-0.4l0.4,1.3l-0.2,0.4c-0.1,0.2-0.2,0.4-0.2,0.6l0.3,1.1c0,0.2,0.2,0,0.3,0l0.2-0.2l0.3,1.3
			c0.1,0.4-0.3,1.4-0.8,2l-9.7,12.2C180.6,267,180.1,267.2,180.1,266.6z"/>
		<path class="st4" d="M178.5,264.9l0.3,1.4c0,0.2,0.2,0,0.4-0.1c0.2-0.2,0.2-0.4,0.2-0.6l-0.3-1.4c0-0.2-0.2,0-0.3,0.1
			C178.6,264.5,178.4,264.9,178.5,264.9z"/>
		<path class="st7" d="M191,250.6c0.1,0,0.1-0.1,0.2-0.2c0.1-0.1,0.1-0.2,0-0.2c-0.1,0-0.1,0.1-0.2,0.2
			C190.9,250.6,190.9,250.6,191,250.6z"/>
		<path class="st7" d="M190.9,249.7l0.2,0.4h0.1l0.1-0.2l-0.2-0.4h-0.1L190.9,249.7z"/>
		<path class="st1" d="M190.4,257.4c1.9,0.3,0.3,3.2-0.8,2.7c-1.1,0.1-1.8-0.1-3.2-0.4c-1.3-0.2-1.9-1.7-0.3-2.2
			C187.5,257.2,189,257.2,190.4,257.4z"/>
		<path class="st1" d="M189.2,261.1c2,0.9-0.8,3.5-1.8,2.6c-1.2-0.3-2-0.8-3.3-1.5c-1.4-0.6-1.5-2.5,0.5-2.5
			C186.2,259.9,187.7,260.4,189.2,261.1z"/>
		<path class="st1" d="M181.5,263.5c-0.3-1.8,1.3-2,2.1-1c0.9,1.1,1.5,1.7,2,2.7c1,0.7-0.7,3.7-2,2.2
			C182.7,266.1,182,264.8,181.5,263.5z"/>
		<path class="st8" d="M23.8,423.5c0.1,0,0.2,0,0.3,0c1.1-0.2,2-1.3,1.8-2.6l-10.4-81.3c-0.2-1.3-1.3-2.2-2.4-1.9
			c-1.1,0.2-2,1.3-1.8,2.6l10.4,81.1C22,422.6,22.8,423.5,23.8,423.5z"/>
		<path class="st8" d="M56.9,423.5c0.1,0,0.2,0,0.3,0c1.1-0.2,2-1.3,1.8-2.6l-10.4-81.3c-0.2-1.3-1.3-2.2-2.4-1.9
			c-1.1,0.2-2,1.3-1.8,2.6l10.4,81.1C55,422.6,56,423.5,56.9,423.5z"/>
		<path class="st8" d="M22,405.5h33.2v4.6H22V405.5z"/>
		<path class="st8" d="M19.9,389.1h33.2v4.6H19.9V389.1z"/>
		<path class="st8" d="M17.7,372.7h33.2v4.6H17.7V372.7z"/>
		<path class="st8" d="M15.7,356.2h33.2v4.6H15.7V356.2z"/>
		<path class="st9" d="M13.6,339.8h33.2v4.6H13.6V339.8z"/>
		<path class="st10" d="M35.2,423.5c1.1,0,1.9-0.8,2.1-1.9l10.4-81.3c0.2-1.3-0.6-2.4-1.8-2.6c-1.1-0.2-2.2,0.7-2.4,1.9l-10.4,81.3
			c-0.2,1.3,0.6,2.4,1.8,2.6C35,423.4,35.2,423.5,35.2,423.5z"/>
		<path class="st10" d="M2.1,423.5c1.1,0,1.9-0.8,2.1-1.9l10.4-81.3c0.2-1.3-0.6-2.4-1.8-2.6c-1.1-0.2-2.2,0.7-2.4,1.9L0,420.9
			c-0.2,1.3,0.6,2.4,1.8,2.6C1.9,423.4,2,423.5,2.1,423.5z"/>
		<path class="st10" d="M3.9,405.5h33.3v4.6H3.9V405.5z"/>
		<path class="st10" d="M6,389.1h33.2v4.6H6V389.1z"/>
		<path class="st10" d="M8,372.7h33.2v4.6H8V372.7z"/>
		<path class="st10" d="M10.2,356.2h33.3v4.6H10.2V356.2z"/>
		<path class="st11" d="M12.3,339.8h33.3v4.6H12.3V339.8z"/>
		<path class="st8" d="M12,347.4h36.6c2,0,3.6-1.7,3.6-4V335c0-2.2-1.5-4-3.6-4H12c-2,0-3.6,1.7-3.6,4v8.4
			C8.4,345.7,10.1,347.4,12,347.4z"/>
		<path class="st10" d="M8.3,347.4h36.6c2,0,3.6-1.7,3.6-4V335c0-2.2-1.5-4-3.6-4H8.3c-2,0-3.6,1.7-3.6,4v8.4
			C4.7,345.7,6.4,347.4,8.3,347.4z"/>
		<path class="st5" d="M119.7,322.6c0.5,1.3,1,2.5,1.5,3.9c3.7,8.9,8.1,19.5,8.5,25c0.8,10.2,5.7,34.9,5.7,46.9
			c0,9.7,2.9,16.4,2.5,18.6l-2.9,1.6l12.3-7.3c3.5-14.2,6.9-44.1,6.9-59.6c0-15.4-1.3-41.1-7.2-53.3c-5.5-11.5-27.8,9.4-30.3,12.3
			C115.8,311.8,117.4,316.6,119.7,322.6z"/>
		<path class="st12" d="M119.7,322.6c0.5,1.3,1,2.5,1.5,3.9c3.7,8.9,8.1,19.5,8.5,25c0.8,10.2,4.8,61.5,5.7,65c1.7,1,7.1,0.8,7.2,0
			c0.7-8.6-3.4-16.9-4.3-25.3c-2-16.3,3.9-33.3-3.4-48.7c-2-4.4-5.2-8.8-4.8-13.8c0.1-2.5,1.8-5.2,0.3-7.6c-2.5-4.2-7.4-1.3-9.7,1.5
			c-0.1-0.1-0.5-0.1-0.8,0C119.8,322.6,119.8,322.6,119.7,322.6z"/>
		<path class="st5" d="M72.1,408l12.4,3.2c13.2-9.7,33.6-33.8,35.2-49.1c2.9-23.8,3.5-48.1,3.7-54.4c0-1,0-1.6,0-1.6
			c-0.5-0.6-1.2-1.3-1.8-2c-5.7-5.8-12.3-9.2-16.5-9.7c-1-0.1-1.8,0-2.4,0.1c-0.5,0.1-1,0.5-1.3,1c-1.8,2.9-3.4,5.7-4.3,8.3
			c-7.4,16.9-1.2,27.1-1.3,49.1c0,10.2,2.2,19.1-8.2,34.5c-4,6-9.4,12.7-11.4,17.9C75.4,407.7,72.1,408,72.1,408z"/>
		<path class="st12" d="M138.1,242.6c0,0,3.7,1.8,4.6,7.3c0.8,5.5,2,20.6,0.5,26.1c-1.5,5.7-1.5,5.7-1.5,5.7l-6.7-2.1
			c0,0,0-8.3,0.5-9.4C136,269.1,138.1,242.6,138.1,242.6z"/>
		<path class="st3" d="M95.3,280.2c0.4,12,1.5,23.1,2.4,25c1,2.1,14.6,3.1,26.7,1.3c12-1.8,22.5-6.3,23-7.9c-1-5.8-6-13.5-6.5-21.6
			c-0.1-2.6,0.3-6.7,0.7-11.2c0.8-9.7,1.7-21.2-3.9-23.5c-0.3-0.1-0.8-0.3-1.2-0.5c-1.7-0.6-3.2-1.1-4.8-1.5
			c-6.5-1.5-12.4-1-17.4,0.4c-3.4,0.8-6.2,2-8.7,3.2c-1.7,0.8-3,1.6-4.2,2.5c-0.8,0.5-1.5,1-2.2,1.5C95.3,250.4,94.7,266,95.3,280.2
			z"/>
		<path class="st1" d="M126.6,234.3v5.2c0,0,1.3,2.2,0,2.5c-2.9,0.5-6.9-2.5-6.9-2.5v-7.9L126.6,234.3z"/>
		<path class="st2" d="M119.7,235.4v-3.6c0,0,3.5,4.2,6.9,4.6C126.6,236.4,122.6,237.3,119.7,235.4z"/>
		<path class="st1" d="M128.2,221c0,0,2.5,4.9,3.2,9.6c0.5,3.2-5.7,7.6-10.7,2.9c-5-4.6-3.7-11.7-3.7-11.7L128.2,221z"/>
		<path class="st5" d="M95.3,280.2c0.4,10.6,1.2,20.3,2,23.8c0.1,0.5,0.1,0.8,0.4,1.1c0.5,1,3.4,0.5,7.1,1.1c0.1,0,0.5,0,0.7,0.1
			c1.8,0.3,8.7-0.6,16.5-2c11.8-2.1,25.1-5,25.5-6c-1-5.8-6-13.5-6.5-21.6c-0.1-2.6,0.4-6.7,0.7-11.2l-0.1-0.6c0,0-1.5-2.2-2.2-4.8
			c-0.5-2.6-0.5-13-2.7-18.4c-1.7-0.6-3.2-1.1-4.8-1.5c0.1,0.5,1.7,9.2,1.3,19.1c0,0.6-0.5,1.1-1,1.1c-1.7,0.1-5,0.6-7.4,0.6
			c-0.5,0-1-0.3-1.2-0.8c-1.2-3.4-5.9-17.4-9.2-19.8c-1.7,0.5-3.4,1-4.8,1.6c-0.5,0.1-1.2,0.5-1.7,0.6c-0.8,0.4-1.5,0.6-2.2,1
			c0,0,9.5,11.8,8.1,20.3C111.9,271.9,96.7,279.4,95.3,280.2z"/>
		<path class="st12" d="M74.8,406.8c1.2,0.5,2.4,0.6,3.4,0.6c2.9,0,2.5-5.8,3.7-7.9c4.3-7.5,9.4-14.4,14.9-21.1
			c2.4-2.7,5.2-5.5,6.7-8.9c1.5-3.6,2-7.5,2.2-11.2c0.7-8.8-1.5-17-2.4-25.8c-0.5-5.3-0.1-10.7,0.1-16c0.8-3.6,1.2-7,1-10.4
			c-0.1-3.7-0.8-7.5-1.7-11.4c-0.1-0.5-0.3-1.1-0.3-1.8c-1.3-5.3-0.7-9.7,3.4-13.7c2.2-2.1,4.8-3.7,6.9-6c8.9-9.7,3.8-22.4-4.6-30.3
			c-0.8,0.3-2.4,0.3-3.1,0.6c0,0,9.5,11.8,8.1,20.3c-1.3,7.8-16.5,15.4-17.9,16.3c0.4,10.6,1.2,20.3,2,23.9
			c-7.4,16.9-1.2,27.1-1.3,49c0,10.2,1.5,16.7-8.2,32.3C79.5,398.7,78.8,401.8,74.8,406.8z"/>
		<path class="st12" d="M137.3,265.5c0,0-9.9,3.2-16.1,1.6c0,0,1.5,11.1,10.2,9.7C140.2,275.5,137.3,265.5,137.3,265.5z"/>
		<path class="st12" d="M146.7,296.5c0,0,1.7,3.1,1,5.7c0,0-13.1,10.9-51.8,4.6c0,0,0-4.4,1-5.3C96.9,301.4,122.6,305.1,146.7,296.5
			z"/>
		<path class="st13" d="M124.3,301.9c0.1,1.5,0.5,2.9,0.8,4.2c0.1,0.6,0.3,1.8,0.7,2.2c0.5,0.5,0.8,0.5,1.5,0.5c1.3,0,2.7-0.5,4-0.8
			c1.7-0.4,3.4-0.4,3.5-2.1c0.1-2.1-0.3-3.9-1-5.8c-0.1-0.6-0.8-0.6-1.3-0.6c-2.7,0.4-5,0.6-7.4,1.5
			C124.4,301,124.3,301.4,124.3,301.9z M126.1,302.4c2-0.5,4.2-1,6.2-1.1c0.3,1.1,0.7,2.2,0.7,3.4c0.1,1.1,0.1,1.5-1,1.8
			c-0.7,0.1-1.3,0.4-2,0.4c-0.7,0.1-1.8,0.5-2.4,0.5c-0.8-0.1-0.8-1-1-1.8C126.4,304.5,126.2,303.3,126.1,302.4z"/>
		<path class="st12" d="M126.1,302.4c0.1,1.1,0.4,2.1,0.7,3.1c0.1,0.6,0.1,1.5,1,1.8c0.7,0.1,1.7-0.4,2.4-0.5c0.7-0.1,1.3-0.1,2-0.3
			c1.2-0.4,1-0.6,1-1.8c-0.1-1.1-0.3-2.2-0.7-3.4C130.1,301.4,128.1,301.7,126.1,302.4z"/>
		<path class="st14" d="M98.5,247.8c0,0,6,4.2,8.2,6.5c0.8-2.1,0.1-7.5-3.5-9.6C102.1,245.3,99.2,247.3,98.5,247.8z"/>
		<path class="st15" d="M63.9,413.4c-0.4-0.1-0.7-0.5-0.8-0.8c-0.4-1,0.5-1.8,1.3-2.5c3.7-2.9,8.4-5.8,10.4-10.1
			c3.4,4.6,6.9,8.8,12.9,12c-2.9,2.2-5.2,2.2-6,2.5c6.4,5.7,4.8,10.9,3.5,13.5C85.3,427.9,70.6,418.4,63.9,413.4z"/>
		<path class="st15" d="M133.5,427.4c-0.4-0.1-0.8,0-1.2-0.2c-0.8-0.4-0.6-1.8-0.2-2.7c1.3-4.4,0.6-9.3-0.1-13.9
			c6.3,1.1,12.8,0.8,19.1-0.8c-0.9,3.4-2.7,6.7-5,9.4c3,0.4,6,0.8,8.5,2.2c2.7,1.4,4.8,3.7,5.3,6.7
			C159.8,427.9,142,427.8,133.5,427.4z"/>
		<path class="st16" d="M115.7,227.2c0,0,0-0.1-0.1-0.5c-0.5-1.1-0.1-2.5,0.7-3.4c0.4-0.4,0.8-0.4,1.2-0.1c1.5-0.1,1.5,1.6,1.7,2.5
			c0.4,1.6,1.3,3.4,0.8,5c-0.3,1.1-1.3,1.8-2.5,1.5c-1.3-0.3-1.2-1.6-1.7-2.6c-0.3-0.6-0.5-1-0.3-1.8
			C115.5,227.5,115.7,227.3,115.7,227.2z"/>
		<path class="st17" d="M130.1,221.5c0,0-2.2-7-8.4-6s-6,7.8-6,7.8s7.2,1.1,11.6-0.1C128.5,222.8,129.4,222.3,130.1,221.5z"/>
		<path class="st18" d="M127.3,223.1c0,0,0.3-4.1-1.8-7c-0.5-0.6-1.2-1.1-2-1.1c-1.5-0.1-3.9,0-4.7,1.8c0,0,4.6,4.2,4.6,7.1
			C123.2,224,126.4,224.6,127.3,223.1z"/>
		<path class="st19" d="M115.7,223.2c0,0,10.9,1.1,14.4-1.8L130,221c0,0-2,1.5-14.2,1.8L115.7,223.2L115.7,223.2z"/>
		<path class="st17" d="M115.7,223.5c0,0.4,0.4,0.5,0.5,0.5c1.8,0.8,5,1.1,6.9,1.3c5.7,0.5,9.5-1,9.5-2c0-1-2.5-2-2.5-2
			S128.5,223.2,115.7,223.5z"/>
		<path class="st12" d="M107.1,257.4c0,0,0.7,8.3-4.7,13.3c-5.4,5-7.4,6.8-7.4,6.8l0.1,2.7c0,0,8.1-5.3,10.1-9.1
			C107.3,267.4,108.5,263.4,107.1,257.4z"/>
		<path class="st16" d="M119,230.4c0-0.1-0.1-0.1-0.1-0.4c-0.7-0.8,0.7-1.8,1.3-1c0.8,1,1.7,1.6,3,2.1c1.7,0.5,2.4,0,3.5-1
			c0.3-0.4,0.8-0.1,1.2,0.1c1,1.1,3.9-0.5,4.2,1.3c0.3,1.5-1.3,3.9-3,4.4c-4.6,1.5-7.8-1.6-10.4-4.4
			C118,231.2,118.4,230.6,119,230.4z"/>
		<path class="st14" d="M181,389.7c0,0,0.4,6.1,0.7,12.9c0,0.5,0,0.8,0,1.3c0.4,8.1,0.8,16.9,0.8,16.9c0,0.8,6.5,1.5,16.4,1.5
			c9.9,0,16.4-0.6,16.4-1.5c0,0,0.4-8.6,0.8-16.9c0-0.5,0-0.8,0-1.3c0.4-6.8,0.7-12.9,0.7-12.9H181z"/>
		<path class="st20" d="M216.9,389.7c0,0,0,0.1-0.1,0.1h-0.1c-0.1,0-0.1,0.1-0.4,0.1c-0.1,0-0.1,0-0.3,0.1h-0.2
			c-0.1,0-0.3,0.1-0.7,0.1c-0.1,0-0.5,0.1-0.8,0.1c-0.3,0-0.8,0.1-1.4,0.1c-0.5,0-1.1,0.1-1.5,0.1c-1.2,0.1-2.7,0.1-4.3,0.4
			c-0.8,0-1.5,0-2.4,0.1c-0.8,0-1.7,0-2.6,0h-0.1c-0.5,0-1.1,0-1.4,0c-0.5,0-1.1,0-1.5,0c-3.6,0-7-0.1-9.7-0.4
			c-2.7-0.1-5.1-0.4-6.5-0.6c-0.5-0.1-1.1-0.1-1.2-0.4c-0.4-0.1-0.5-0.1-0.5-0.3c0-0.5,2-0.8,5.3-1.2c3.2-0.4,7.7-0.5,12.7-0.5
			c5,0,9.4,0.1,12.7,0.5C214.9,388.9,216.9,389.2,216.9,389.7z"/>
		<path class="st9" d="M216.9,389.7c0,0,0,0.1-0.1,0.1h-0.1c-0.1,0-0.1,0.1-0.4,0.1c-0.1,0-0.1,0-0.3,0.1h-0.2
			c-0.1,0-0.3,0.1-0.7,0.1c-0.1,0-0.5,0.1-0.8,0.1c-0.3,0-0.8,0.1-1.4,0.1c-0.5,0-1.1,0.1-1.5,0.1c-1.2,0.1-2.7,0.1-4.3,0.4
			c-0.8,0-1.5,0-2.4,0.1c-0.8,0-1.7,0-2.6,0h-0.1c-0.5,0-1.1,0-1.4,0c-0.5,0-1.1,0-1.5,0c-3.6,0-7-0.1-9.7-0.4
			c-2.7-0.1-5.1-0.4-6.5-0.6c-0.5-0.1-1.1-0.1-1.2-0.4c-0.4-0.1-0.5-0.1-0.5-0.3c0-0.5,2-0.8,5.3-1.2c3.2-0.4,7.7-0.5,12.7-0.5
			c5,0,9.4,0.1,12.7,0.5C214.9,388.9,216.9,389.2,216.9,389.7z M215.2,389.9c0.1,0,0.1,0,0.1,0h0.1c-0.7-0.1-1.9-0.3-4.1-0.5
			c-3.4-0.4-7.8-0.5-12.7-0.5c-4.8,0-9.2,0.1-12.7,0.5c-2.2,0.1-3.4,0.4-4.1,0.5c0.1,0,0.4,0.1,0.7,0.1c1.4,0.4,3.6,0.5,6.5,0.6
			c2.9,0.1,6.3,0.4,9.7,0.4c0.5,0,1,0,1.5,0c0.3,0,0.8,0,1.2,0c0.1,0,0.1,0,0.4,0c1.7,0,3.4,0,5-0.1c1.5,0,2.9-0.1,4.3-0.4
			c0.5,0,1.1-0.1,1.5-0.1c0.5,0,0.8-0.1,1.4-0.1c0.3,0,0.5,0,0.8-0.1C215,389.9,215.2,389.9,215.2,389.9z"/>
		<path class="st3" d="M215.4,390.4c0.1,0,0.4,0,0.5,0c0.7-0.1,1.2-1,0.8-1.7c-0.1-0.6-5.7-16.4-17.8-15.9
			c-12,0.6-17.3,15.2-17.4,15.8c-0.1,0.6,0.1,1.5,0.8,1.7c0.7,0.1,1.5-0.1,1.7-0.8c0-0.1,4.8-13.4,15.1-13.9
			c10.1-0.5,14.8,13.7,14.8,13.9C214.2,390.1,214.7,390.4,215.4,390.4z"/>
		<path class="st3" d="M209.4,390.4c0,0-5.7-5-9.9-5.1c-4.3-0.1-11.5,5.1-11.5,5.1S203.9,391.1,209.4,390.4z"/>
		<path class="st8" d="M181.1,279.9c0.9,1.7,0,3.6-1.8,3.9L85,237.1l1.8-3.9L181.1,279.9z"/>
		<path class="st21" d="M91.8,236.1l-1.3,3.1c-0.6,1.3-2.2,1.8-3.4,1.1l-9.6-4.8c-1.3-0.6-1.8-2.2-1.2-3.5l1.3-3.1
			c0.6-1.3,2.2-1.8,3.4-1.1l9.6,4.8C91.7,233.3,92.4,234.8,91.8,236.1z"/>
		<path class="st21" d="M65.5,208.4l-12.3,27l9.4,4.6l12.3-26.9c0.4-1.2-1.1-3.2-3.7-4.4C68.6,207.4,66,207.3,65.5,208.4z"/>
		<path class="st8" d="M77.3,229.6l-0.9,1.9l-2.2-1.2c-0.4-0.2-0.9-0.1-1.1,0.3l-7.2,15.8c-0.4,0.8-1.5,1.2-2.3,0.8l-7.6-3.9
			c-0.8-0.4-1.2-1.5-0.8-2.4l1.9-4.1c0.8-0.3,1.6,0.2,1.9,1l-1.4,2.9c-0.2,0.4-0.1,0.9,0.4,1.1l5.5,2.7c0.4,0.2,0.9,0.1,1.1-0.4
			l7.2-15.8c0.4-0.8,1.5-1.2,2.3-0.8L77.3,229.6z"/>
		<path class="st1" d="M96.5,269.6c0,0-0.1,2.1,0.4,5.2c0.6,2.9,1.6,6.4,4.3,9.7c3.4,4.6,9.7,8.4,20.3,9.6
			c6.9,0.7,10.2-8.1,11.1-19.6c0.4-5.5,0.2-11.6-0.3-17.5c-0.2-2-4.7,1.6-4.7,1.6c-2.3,0.6-5.6,20.2-8,19c-0.8-0.5-2.7-3.6-5.1-7.8
			c-0.5-0.6-0.8-1.4-1.3-2.2c-5-8.4-12-19.2-17.2-21.6C90.6,244.1,96.5,269.6,96.5,269.6z"/>
		<path class="st2" d="M101.3,284.6c3.4,4.6,9.7,8.4,20.3,9.6c6.9,0.7,10.2-8.1,11.1-19.6c-0.1,0-0.3,0.1-0.5,0.2
			c-2.2,1.1-3.4,5.8-4.4,8c-2.2,4.8-4.4,8.3-10.4,6.4c-2-0.6-5.3-1.4-5.7-4.2c-0.2-1.8,1-4.6,1.3-6.4c0.7-2.9,1.4-5.7,1.5-8.7
			c-0.5-0.6-0.8-1.4-1.3-2.2c-2,1.2-4.1,2.6-5.5,4.8c-0.9,1.3-1.3,2.9-2,4.5c-0.8,1.3-2,2.4-2.9,3.7
			C101.8,282.1,101.2,283.3,101.3,284.6z"/>
		<path class="st3" d="M96.7,269.6c0,0-0.1,2.1,0.4,5.2c0.6,3.6,2.2,8.2,5.7,12.1c3.6,3.9,15-16.5,11.4-21.4
			c-5.6-7.4-0.8-21-15.2-21.3C86.9,244,96.7,269.6,96.7,269.6z"/>
		<path class="st1" d="M125.6,256.5c-0.2,1.6-0.2,3.9,1.3,5.4c2.4,2.2,5,1.1,7-0.9c1.3-1.2,2.7-3.3,2.2-5.1
			c-0.2-1.1-0.9-1.4-1.4-1.1c-0.4,0.2-0.5,1.1-0.7,1.3c-0.5,1.1-1.1,2-2,2.3c-1.1,0.6-0.4,0,0.1-0.4c0.4-0.6,0.8-1.2,1-1.8
			c0.3-0.8,1.1-3.6,0.1-4.5c-1.3-1.1-1.8,1.6-2,2.3c-0.3,0.6-0.9,2.7-1.4,2.9c0.3-0.1,0.5-1.1,0.6-1.3c0.1-0.7,0.6-1.3,0.4-2.2
			c-0.2-1.1-0.8-2-1.6-1.3c-0.6,0.3-0.6,1.9-0.8,2.4c-0.1,0.4-0.3,0.8-0.4,1.2c-0.3,0.8-0.4,0.6-0.2-0.4c0.1-0.6,0-1.3,0-2
			c0.1-0.2-0.1-0.6-0.5-0.6C126.1,252.7,125.7,255.4,125.6,256.5z"/>
		<path class="st20" d="M292.8,136.9c-1.3-5.3-3.4-10.2-6.2-14.8l6.2-9.4l-8.6-8.7l-8.7-8.7l-9.4,6.2c-4.6-2.7-9.5-4.8-14.8-6.2
			l-2.2-11.1h-12.3h-12.3l-2.2,11.1c-5.3,1.3-10.2,3.4-14.8,6.2l-9.4-6.2l-8.7,8.7l-8.7,8.7l6.2,9.4c-2.7,4.6-4.8,9.5-6.2,14.8
			l-11.1,2.2v12.3v12.3l11.1,2.2c1.3,5.3,3.4,10.2,6.2,14.8l-6.2,9.4l8.7,8.7l8.7,8.7l9.4-6.2c4.6,2.7,9.5,4.8,14.8,6.2l2.2,11.1
			h12.3h12.3l2.2-11.1c5.3-1.3,10.2-3.4,14.8-6.2l9.4,6.2l8.7-8.7l8.7-8.7l-6.2-9.4c2.7-4.6,4.8-9.5,6.2-14.8l11.1-2.2v-12.3v-12.3
			L292.8,136.9z M236.9,194.4c-23.7,0-42.9-19.3-42.9-43c0-23.8,19.3-43,42.9-43c23.7,0,42.9,19.3,42.9,43
			C279.8,175.2,260.6,194.4,236.9,194.4z"/>
		<path class="st20" d="M187.6,70.3c-0.6-2.4-1.6-4.7-2.8-6.8l2.9-4.3l-4-4l-4-4l-4.3,2.9c-2.1-1.3-4.3-2.2-6.8-2.8l-1-5h-5.6h-5.6
			l-1.1,5c-2.4,0.6-4.7,1.6-6.8,2.8l-4.3-2.9l-4,4l-4,4l2.9,4.3c-1.3,2.1-2.2,4.3-2.8,6.8l-5,1.1V77v5.6l5,1.1
			c0.6,2.3,1.5,4.6,2.8,6.7l-2.9,4.3l4,4l4,4l4.3-2.9c2.1,1.3,4.3,2.2,6.8,2.8l1.1,5h5.6h5.6l1.1-5c2.4-0.6,4.7-1.6,6.8-2.8l4.3,2.9
			l4-4l4-4l-3-4.3c1.3-2.1,2.2-4.3,2.8-6.8l5-1.1V77v-5.6L187.6,70.3z M162.1,96.7c-10.9,0-19.7-8.8-19.7-19.7
			c0-10.9,8.8-19.7,19.7-19.7c10.9,0,19.7,8.8,19.7,19.7C181.8,87.8,172.9,96.7,162.1,96.7z"/>
		<path class="st22" d="M357.6,463.1h33.8c78.3,0,141.7-63.5,141.7-141.8c0-78.3-63.5-141.8-141.7-141.8h-33.8
			c-78.3,0-141.7,63.5-141.7,141.8C215.9,399.6,279.3,463.1,357.6,463.1z"/>
		<path class="st13" d="M238.4,438.7h277.2V161.6H238.4V438.7z"/>
		
			<linearGradient id="SVGID_3_" gradientUnits="userSpaceOnUse" x1="589.64" y1="282.4745" x2="335.501" y2="282.4745" gradientTransform="matrix(1 0 0 -1 0 430)">
			<stop  offset="0" style="stop-color:#82D2E3"/>
			<stop  offset="1" style="stop-color:#6171B6"/>
		</linearGradient>
		<path class="st23" d="M238.4,161.7h277.2c0-15.6-12.7-28.3-28.3-28.3H266.7C251.1,133.4,238.4,146.1,238.4,161.7z"/>
		<path class="st24" d="M309,161.7h-5v277.1h5V161.7z"/>
		<path class="st24" d="M238.4,368.1v5h277.2v-5H238.4z"/>
		<path class="st24" d="M238.4,297.6v5h277.2v-5H238.4z"/>
		<path class="st24" d="M238.4,227.3v5h277.2v-5H238.4z"/>
		<path class="st24" d="M379.5,161.7h-5v277.1h5V161.7z"/>
		<path class="st24" d="M450,161.7h-5v277.1h5V161.7z"/>
		<path class="st5" d="M515.6,373.1c0,0-0.1,30.3-7.1,56.1l-15.2,9.5h-53.4c10.2-27,10.2-65.6,10.2-65.6H515.6z"/>
		<path class="st5" d="M445,302.5c0,0-0.1,30.3-7.1,56.1l-15.1,9.5h-53.4c10.2-27,10.2-65.6,10.2-65.6L445,302.5L445,302.5z"/>
		<path class="st12" d="M422.8,368.1v-9.7h15.1L422.8,368.1z"/>
		<path class="st5" d="M445,161.7c0,0-0.1,30.3-7.1,56.1l-15.1,9.5h-53.4c10.2-27,10.2-65.6,10.2-65.6L445,161.7L445,161.7z"/>
		<path class="st12" d="M422.8,227.3v-9.7h15.1L422.8,227.3z"/>
		<path class="st20" d="M304,373.1c0,0-0.1,30.3-7.1,56.1l-15.2,9.5h-53.4c10.2-27,10.2-65.6,10.2-65.6H304z"/>
		<path class="st25" d="M269,418c-0.8,0-1.5-0.7-1.5-1.5v-21.1c0-0.8,0.7-1.5,1.5-1.5c0.8,0,1.5,0.7,1.5,1.5v21.1
			C270.5,417.3,269.8,418,269,418z"/>
		<path class="st25" d="M279.5,407.4h-21.1c-0.8,0-1.5-0.7-1.5-1.5c0-0.8,0.7-1.5,1.5-1.5h21.1c0.8,0,1.5,0.7,1.5,1.5
			C281,406.7,280.3,407.4,279.5,407.4z"/>
		<path class="st20" d="M374.5,232.2c0,0-0.1,30.3-7.1,56.1l-15.2,9.5h-53.4c10.2-27,10.2-65.6,10.2-65.6H374.5z"/>
		<path class="st26" d="M352.2,297.8v-9.7h15.2L352.2,297.8z"/>
		<path class="st25" d="M339.5,277.1c-0.8,0-1.5-0.7-1.5-1.5v-21.1c0-0.8,0.7-1.5,1.5-1.5c0.8,0,1.5,0.7,1.5,1.5v21.1
			C341,276.5,340.3,277.1,339.5,277.1z"/>
		<path class="st25" d="M350.1,266.6H329c-0.8,0-1.5-0.7-1.5-1.5s0.7-1.5,1.5-1.5h21.1c0.8,0,1.5,0.7,1.5,1.5
			C351.5,265.9,350.9,266.6,350.1,266.6z"/>
		<path class="st20" d="M515.6,302.5c0,0-0.1,30.3-7.1,56.1l-15.2,9.5h-53.4c10.2-27,10.2-65.6,10.2-65.6L515.6,302.5L515.6,302.5z"
			/>
		<path class="st26" d="M493.3,368.1v-9.7h15.2L493.3,368.1z"/>
		<path class="st25" d="M479.3,343.7l-9.5-8.3c-0.8-0.7-0.8-1.9-0.2-2.7c0.7-0.8,1.9-0.8,2.7-0.2l6.7,5.9l9.6-10.7
			c0.7-0.8,1.9-0.8,2.7-0.1c0.8,0.7,0.8,1.9,0.1,2.7L479.3,343.7z"/>
		<path class="st12" d="M297.2,177c0,0-1.7,1.5-3.2,3.6c-1.5,2.2-5.4,2.3-5.6,5.4c-0.1,3,5.3,3.2,8.3,2.2c2.9-1,3.4-3.9,5.1-4.7
			s2.7-1.3,2.5-2.8c-0.1-1.5-1.1-3.8-1.1-3.8s-1.1,0.4-1.8,0.4C300.8,177.4,298.7,177.4,297.2,177z"/>
		<path class="st5" d="M317,94.8c0,0-1.1,6.6-2,11c-0.3,1.8-0.6,3.2-0.8,3.6c-0.3,0.6-2.3,2.8-4.9,5.4c-4.5,4.6-10.4,10.4-10.4,10.4
			l-2.3-4.4c0,0,5.3-6.2,8.8-10.3c1.7-1.9,2.9-3.4,3.2-3.6c0.8-0.7,1.6-7.2,2.8-12.6c1.2-5.4,3.6-8.4,3.6-8.4L317,94.8z"/>
		<path class="st27" d="M309.2,114.7c-4.5,4.6-10.4,10.4-10.4,10.4l-2.3-4.4c0,0,5.3-6.2,8.8-10.3
			C306.4,111,308.5,112.3,309.2,114.7z"/>
		<path class="st12" d="M338,175.2c0,0,1.5,1.7,2.5,2.7c0.9,1.1,4.3,2.9,4.3,5.9c0,3.3-2.5,3-4.8,2.9c-2.3-0.1-4.1-1.7-5.1-3.6
			c-1-1.9-3.5-2.3-3.7-3.9c-0.2-1.5,1.2-4.2,1.2-4.2L338,175.2z"/>
		<path class="st5" d="M332.6,172.3l-0.3,2.8c0,0,4.8,2.1,5.6,0.1l-0.2-2.5L332.6,172.3z"/>
		<path class="st5" d="M297.5,175l-0.3,2c0,0,2.9,1,6-0.1l0.1-1.8L297.5,175z"/>
		<path class="st5" d="M338.2,124.3c0.1,0.6-30.4,0-30.4,0s8.5-6.2,9-7.8c0.6-1.6-2.2-11.5-2.5-14.7c-0.3-2.6-1-14.1,0.7-15.8
			c1.8-1.8,8.1-3.8,8.1-3.8l9.3,0.4c0,0,1.5,0.4,2.7,0.8c1.1,0.5,7.4,2.7,8.4,5.9c1.1,3.2-6.2,13.2-6.2,13.2s0,0.4-0.1,1.2
			c0,1-0.1,2.5-0.1,4.1c-0.1,2.1-0.1,4.4-0.1,6.2C337,117.9,338,123.7,338.2,124.3z"/>
		<path class="st5" d="M338.2,124.3c0,0,4.1,6.1,4.2,10.3c0.1,4.2-1.5,15.8-1.7,18c-0.1,2.3-2.2,21.4-2.2,21.4s-1.7,1.5-6.7-0.4
			c0,0-1.1-18.1-1.2-20c-0.1-2-0.1-10.9-1.3-12.2c-1.1-1.3-7.8-5.3-8.8-6.1c-0.9-0.8-16.2,2.9-17.9,3.3c-4.1,1.1-2.2,8.3-1.3,11.6
			c1.5,5.5,2.9,25.1,2.9,25.1s-2.9,1.3-7.9,0.2c0,0-9.7-35.5-10.1-39c-0.3-3.5-0.5-9.3,23.6-13.7L338.2,124.3z"/>
		<path class="st27" d="M325.7,61.9c0,0-8.1-1.8-6.2,8.3c1.8,10.2,3.8,10.9,8.7,8.8c4.9-2.1,4.4-8.6,4.7-11.8
			C333,64.1,328.3,62,325.7,61.9z"/>
		<path class="st27" d="M323.6,84.7c0,0,3.6,3.8,9.2,0.4c0,0-1.3-8.2-0.6-12.2c0.6-4-7.4,6.2-7.4,6.2c0.1,0.1,0.2,0.4,0.2,1
			c0,0.5,0,1.1-0.1,1.6C324.8,83,324.4,84.4,323.6,84.7z"/>
		<path class="st27" d="M330,68.9c0.1-0.9,1.9-1.2,2,0.1c0.1,1.3-0.8,3.7-1.5,3.5C329.9,72.3,329.9,70.2,330,68.9z"/>
		<path class="st28" d="M332.4,72.5c0,0-0.2-3.2-1.4-3.3c-1.2-0.1-1.3,1.2-1.3,1.2l-1.2,0.2c0,0,0.4-2.8-0.8-3.3
			c-1.2-0.5-7.6,1.5-8.5,0.7c-0.9-0.8-0.5-6.5,1.2-7.3c1.7-0.8,6.4-2.5,9.8-0.2c0,0,2.7-0.3,3.1,1.8
			C333.7,64.6,333.1,70.9,332.4,72.5z"/>
		<path class="st29" d="M324.9,81.7c5.8-1.8,6.2-5.3,6.3-5.4c-1.9,3.3-6.2,3.7-6.2,3.7C325,80.5,325,81.1,324.9,81.7z"/>
		<path class="st27" d="M335.2,83.3c0,0-4.3,8.5-11.1,7.9c-6.9-0.6-1.2-9.1-0.8-9.2C323.5,82,330.2,80.4,335.2,83.3z"/>
		<path class="st12" d="M304.3,123.8c0,0,21.2,2.6,33.9,0.4l-24.4-3.1C313.8,121.2,313.6,121.8,304.3,123.8z"/>
		<path class="st27" d="M320.1,120.3l-1.5,0.8c0,0,0.4,2.5,1.2,3.3l1.8-0.4C321.5,123.8,321.1,121.1,320.1,120.3z"/>
		<path class="st5" d="M344.5,115.2c-0.3,0.4-4.5,2-9.2,3.9c-6.4,2.5-13.7,4.8-13.7,4.8l-1.6-3.5c0,0,7.6-4.1,12.7-7
			c2.5-1.3,4.3-2.5,4.6-2.7c0.8-0.8,1.1-2,0.4-4.2c-0.6-2.2-2-12.3-2.2-13.5c-0.1-1.2,0.4-4.3,3.4-4.5c2.9-0.1,4.4,0.7,4.4,0.7
			s0.8,0.3,1.3,7.4C345.2,103.7,345.3,114.2,344.5,115.2z"/>
		<path class="st12" d="M337.2,103.6c0,1-0.1,2.5-0.1,4.1c-2.9-7-1.2-12.6-1.2-12.8C335.6,96.9,337.2,103.5,337.2,103.6z"/>
		<path class="st12" d="M315,105.7c-0.4,1.8-0.7,3.2-0.9,3.6c-1-4.8-0.1-10.8-0.1-10.8C314.2,101.4,315,105.7,315,105.7z"/>
		<path class="st27" d="M335.4,119c-6.4,2.5-13.9,4.9-13.9,4.9l-1.4-3.6c0,0,7.6-4.1,12.7-7C332.8,113.3,334.7,114.2,335.4,119z"/>
		<path class="st30" d="M319.7,124.1l-30-0.4l15.1,7.7L319.7,124.1z"/>
		<path class="st31" d="M304.8,131.3l14.9-5.7v-1.5l-16.1,5.8L304.8,131.3z"/>
		<path class="st27" d="M318.8,121.1c0,0-1.9-0.3-3.2-0.6c-1-0.2-3.5,0.1-4.1,0.7c-0.6,0.6-2.7,5.1-3,5.4c-0.4,0.3,0.2,0.9,0.8,0.6
			c0,0,0.6,2,2.2,1.3c1.5-0.7,2.5-2.3,3.4-2.6c0.8-0.3,5.5-1.7,5.5-1.7S320,120.6,318.8,121.1z"/>
		<path class="st27" d="M312,121c0,0-1.2,0.6-1.5,0.8c-0.3,0.3-1.6,1.2-1.9,1.5c-0.3,0.2,0.5,0.8,2.7-0.1
			C313.6,122.1,312,121,312,121z"/>
		<path class="st32" d="M304.8,131.3l-8.9-24.4l-28.8,0.4l8.5,22.5L304.8,131.3z"/>
		<path class="st33" d="M286.6,117.7c0.9,1.8,0.6,3.6-0.6,4.3c-1.2,0.6-2.9-0.4-3.8-2.1c-0.9-1.8-0.6-3.6,0.6-4.3
			C284.1,115,285.8,116,286.6,117.7z"/>
		<path class="st34" d="M339.1,293.1l0.6-1l-1.2,0.1L339.1,293.1z"/>
	</g>
</g>
</svg>
