<svg xmlns="http://www.w3.org/2000/svg" xmlns:xlink="http://www.w3.org/1999/xlink" viewBox="0 0 144.19 146.37"><defs><style>.a{isolation:isolate;}.b{fill:none;}.c{clip-path:url(#a);}.d{clip-path:url(#b);}.e{fill:url(#c);}.f{clip-path:url(#e);}.g{clip-path:url(#f);}.h{fill:url(#g);}.i{clip-path:url(#i);}.j{mask:url(#j);}.k,.n{mix-blend-mode:multiply;}.k{fill:url(#l);}.l{fill:url(#o);}.m{mask:url(#r);}.n{fill:url(#t);}.o{clip-path:url(#u);}.p{fill:url(#v);}.q{clip-path:url(#w);}.r{fill:url(#x);}.s{clip-path:url(#y);}.t{fill:url(#z);}.u{clip-path:url(#aa);}.v{fill:url(#ab);}.w{clip-path:url(#ac);}.x{fill:url(#ad);}.y{clip-path:url(#ae);}.z{fill:url(#af);}.aa{clip-path:url(#ag);}.ab{fill:url(#ah);}.ac{clip-path:url(#ai);}.ad{fill:url(#aj);}.ae{clip-path:url(#ak);}.af{fill:url(#al);}.ag{clip-path:url(#am);}.ah{fill:url(#an);}.ai{clip-path:url(#ao);}.aj{fill:url(#ap);}.ak{clip-path:url(#aq);}.al{fill:url(#ar);}.am{clip-path:url(#as);}.an{fill:url(#at);}.ao{clip-path:url(#au);}.ap{fill:url(#av);}.aq{fill:#9de1ff;}.ar{clip-path:url(#ax);}.as{clip-path:url(#ay);}.at{fill:url(#az);}.au{clip-path:url(#ba);}.av{clip-path:url(#bb);}.aw{fill:url(#bc);}.ax{clip-path:url(#bd);}.ay{fill:url(#be);}.az{clip-path:url(#bf);}.ba{fill:url(#bg);}.bb{clip-path:url(#bh);}.bc{fill:url(#bi);}.bd{filter:url(#s);}.be{filter:url(#k);}</style><clipPath id="a" transform="translate(26.31 12.22)"><rect class="b" width="91.98" height="90.9"/></clipPath><clipPath id="b" transform="translate(26.31 12.22)"><path class="b" d="M52.44,38.93,5.19,66.15c-1.91-.88-3.67-1.16-4.46.12A4.27,4.27,0,0,0,0,68.46v0a3,3,0,0,0,1.07,2.17,2.88,2.88,0,0,0,.74.57l0,0L34.91,90.41a4.67,4.67,0,0,0,2,.49H37a4.65,4.65,0,0,0,2.29-.63L90.11,61s3.86-1.87.49-5.27c-1.76-1.78-1.81-.18-1.47,1.75L56.94,38.79a4.73,4.73,0,0,0-4.5.14"/></clipPath><linearGradient id="c" y1="90.9" x2="1" y2="90.9" gradientTransform="matrix(-5.57, 0, 0, 5.57, 66.09, -429.81)" gradientUnits="userSpaceOnUse"><stop offset="0" stop-color="#6fa9ff"/><stop offset="1" stop-color="#8babff"/></linearGradient><clipPath id="e" transform="translate(26.31 12.22)"><rect class="b" y="38.29" width="91.98" height="52.6"/></clipPath><clipPath id="f" transform="translate(26.31 12.22)"><path class="b" d="M90.6,55.71c-1.76-1.78-1.81-.18-1.47,1.75L56.94,38.79a4.73,4.73,0,0,0-4.5.14L5.19,66.15c-1.91-.88-3.67-1.16-4.46.12-1.43,2.33-.47,3.6.34,4.39a2.87,2.87,0,0,0,.74.58l0,0L34.91,90.41a4.66,4.66,0,0,0,4.43-.14L90.11,61s3.86-1.87.49-5.27"/></clipPath><linearGradient id="g" y1="90.9" x2="1" y2="90.9" gradientTransform="matrix(0, -2.34, -2.34, 0, 259.09, 83.16)" gradientUnits="userSpaceOnUse"><stop offset="0" stop-color="#3300bf"/><stop offset="1" stop-color="#8babff"/></linearGradient><clipPath id="i" transform="translate(26.31 12.22)"><path class="b" d="M90.6,55.71c-1.76-1.78-1.81-.18-1.47,1.75L56.94,38.79a4.74,4.74,0,0,0-4.5.14L5.19,66.15c-1.91-.88-3.67-1.16-4.46.12-1.43,2.33-.47,3.6.34,4.39a2.87,2.87,0,0,0,.74.57l0,0L34.91,90.41a4.66,4.66,0,0,0,4.43-.14L90.11,61s3.86-1.87.5-5.27"/></clipPath><filter id="k" x="-23.44" y="-8236.9" width="140.15" height="32766" filterUnits="userSpaceOnUse" color-interpolation-filters="sRGB"><feFlood flood-color="#fff" result="bg"/><feBlend in="SourceGraphic" in2="bg"/></filter><mask id="j" x="2.86" y="-8224.68" width="140.15" height="32766" maskUnits="userSpaceOnUse"><g class="be"/></mask><linearGradient id="l" y1="90.9" x2="1" y2="90.9" gradientTransform="matrix(0, -2.34, -2.34, 0, 259.09, 83.16)" gradientUnits="userSpaceOnUse"><stop offset="0" stop-color="#fff"/><stop offset="1" stop-color="#231f20"/></linearGradient><linearGradient id="o" y1="90.46" y2="90.46" gradientTransform="matrix(2.8, 0, 0, -2.8, 18.13, 317.82)" xlink:href="#g"/><filter id="s" x="-23.74" y="-8236.9" width="140.75" height="32766" filterUnits="userSpaceOnUse" color-interpolation-filters="sRGB"><feFlood flood-color="#fff" result="bg"/><feBlend in="SourceGraphic" in2="bg"/></filter><mask id="r" x="2.57" y="-8224.68" width="140.75" height="32766" maskUnits="userSpaceOnUse"><g class="bd"/></mask><linearGradient id="t" y1="90.46" y2="90.46" gradientTransform="matrix(2.8, 0, 0, -2.8, 18.13, 317.83)" xlink:href="#l"/><clipPath id="u" transform="translate(26.31 12.22)"><path class="b" d="M52.41,36.18l-51,29.36c-1.16.77-1.25,2.29.37,3.26L34.89,87.95a4.66,4.66,0,0,0,4.43-.14L90.08,58.53a1.88,1.88,0,0,0-.1-3.31L56.91,36a4.73,4.73,0,0,0-4.5.14"/></clipPath><linearGradient id="v" y1="90.9" x2="1" y2="90.9" gradientTransform="matrix(0, -146.61, -146.61, 0, 13372.03, 205.6)" gradientUnits="userSpaceOnUse"><stop offset="0" stop-color="#5289d5"/><stop offset="1" stop-color="#fff6ff"/></linearGradient><clipPath id="w" transform="translate(26.31 12.22)"><path class="b" d="M52.1,37.78,3.74,65.66a.26.26,0,0,0,0,.45l35.07,20a.85.85,0,0,0,.81,0L87.87,58.39a.28.28,0,0,0,0-.49l-35-20.13a.77.77,0,0,0-.35-.08.76.76,0,0,0-.39.1"/></clipPath><linearGradient id="x" y1="90.9" x2="1" y2="90.9" gradientTransform="matrix(0, 44.65, 44.65, 0, -4013.06, 39.67)" gradientUnits="userSpaceOnUse"><stop offset="0" stop-color="#1877ff"/><stop offset="1" stop-color="#77b8ff"/></linearGradient><clipPath id="y" transform="translate(26.31 12.22)"><path class="b" d="M52.07,37.77,3.7,65.64a.26.26,0,0,0,0,.41l0,0L52.07,38.15a.77.77,0,0,1,.73,0l35,20.13.08.06a.28.28,0,0,0-.08-.44l-35-20.14a.76.76,0,0,0-.73,0"/></clipPath><linearGradient id="z" y1="91.04" x2="1" y2="91.04" gradientTransform="matrix(0, 35.48, 35.48, 0, -3184.6, 42.66)" gradientUnits="userSpaceOnUse"><stop offset="0" stop-color="#3b2ba9"/><stop offset="1" stop-color="#1a2f9e"/></linearGradient><clipPath id="aa" transform="translate(26.31 12.22)"><path class="b" d="M17.7,75.87c-.13.08-.15.19,0,.26h0a.5.5,0,0,0,.45,0c.13-.08.15-.19,0-.26h0a.4.4,0,0,0-.19,0,.52.52,0,0,0-.26.06"/></clipPath><linearGradient id="ab" y1="90.9" x2="1" y2="90.9" gradientTransform="matrix(0, 7.23, 7.23, 0, -639.1, 75.05)" gradientUnits="userSpaceOnUse"><stop offset="0" stop-color="#4f71ff"/><stop offset="1" stop-color="#44a0e2"/></linearGradient><clipPath id="ac" transform="translate(26.31 12.22)"><path class="b" d="M18.38,76.25c-.13.08-.15.19,0,.26l4,2.29a.5.5,0,0,0,.45,0c.13-.08.15-.19,0-.26l-4-2.29a.4.4,0,0,0-.19,0,.53.53,0,0,0-.26.06"/></clipPath><linearGradient id="ad" y1="90.9" y2="90.9" gradientTransform="matrix(0, 13.87, 13.87, 0, -1240.5, 73.9)" xlink:href="#ab"/><clipPath id="ae" transform="translate(26.31 12.22)"><path class="b" d="M70,45.53c-.57.32-.63.82-.14,1.1L72.31,48A2.12,2.12,0,0,0,74.21,48c.57-.32.63-.82.14-1.1L71.9,45.46a1.69,1.69,0,0,0-.84-.2,2.22,2.22,0,0,0-1.07.26"/></clipPath><linearGradient id="af" y1="90.89" x2="1" y2="90.89" gradientTransform="matrix(0, 6.56, 6.56, 0, -523.9, 43.3)" gradientUnits="userSpaceOnUse"><stop offset="0" stop-color="#5b7dff"/><stop offset="1" stop-color="#44a0e2"/></linearGradient><clipPath id="ag" transform="translate(26.31 12.22)"><path class="b" d="M70,45.53c-.36.21-.52.49-.45.73a1.09,1.09,0,0,1,.37-.33,2.13,2.13,0,0,1,1.91-.07l2.46,1.4a.62.62,0,0,1,.31.37.51.51,0,0,0-.23-.78L71.9,45.46a1.69,1.69,0,0,0-.84-.2,2.22,2.22,0,0,0-1.07.26"/></clipPath><linearGradient id="ah" y1="90.92" y2="90.92" gradientTransform="matrix(0, 7.93, 7.93, 0, -648.48, 44.27)" xlink:href="#ab"/><clipPath id="ai" transform="translate(26.31 12.22)"><path class="b" d="M48.57,83.23l-2.07,1.2h0a.49.49,0,0,0-.22.3.39.39,0,0,0,.19.51.27.27,0,0,0,.19,0h0l2-1.18h0a.48.48,0,0,0,.25-.31.39.39,0,0,0-.19-.51H48.7a.3.3,0,0,0-.13,0"/></clipPath><linearGradient id="aj" y1="90.9" x2="1" y2="90.9" gradientTransform="matrix(5.66, 0, 0, -5.66, 46.26, 598.92)" gradientUnits="userSpaceOnUse"><stop offset="0" stop-color="#3864d6"/><stop offset="1" stop-color="#44a0e2"/></linearGradient><clipPath id="ak" transform="translate(26.31 12.22)"><path class="b" d="M48.78,83.38l-2.07,1.2h0a.49.49,0,0,0-.22.3.39.39,0,0,0,.19.51.27.27,0,0,0,.19,0h0l2-1.18a.49.49,0,0,0,.25-.31.39.39,0,0,0-.19-.51H48.9a.3.3,0,0,0-.13,0"/></clipPath><linearGradient id="al" y1="90.9" y2="90.9" gradientTransform="matrix(0, -3.57, -3.57, 0, 372.22, 87.33)" xlink:href="#v"/><clipPath id="am" transform="translate(26.31 12.22)"><path class="b" d="M51.76,81.42l-2.07,1.2h0a.5.5,0,0,0-.22.3.39.39,0,0,0,.19.51.26.26,0,0,0,.19,0h0l2-1.18h0a.49.49,0,0,0,.25-.31A.39.39,0,0,0,52,81.4h-.07a.29.29,0,0,0-.13,0"/></clipPath><linearGradient id="an" y1="90.9" y2="90.9" gradientTransform="matrix(5.66, 0, 0, -5.66, 49.45, 597.09)" xlink:href="#aj"/><clipPath id="ao" transform="translate(26.31 12.22)"><path class="b" d="M52,81.57l-2.07,1.2h0a.49.49,0,0,0-.22.3.39.39,0,0,0,.19.51.26.26,0,0,0,.19,0h0l2-1.18a.48.48,0,0,0,.25-.31.39.39,0,0,0-.19-.51H52.1a.29.29,0,0,0-.13,0"/></clipPath><linearGradient id="ap" y1="90.9" y2="90.9" gradientTransform="matrix(0, -3.57, -3.57, 0, 375.41, 85.52)" xlink:href="#v"/><clipPath id="aq" transform="translate(26.31 12.22)"><path class="b" d="M45.37,85.1l-.51.28h0a.49.49,0,0,0-.22.3.39.39,0,0,0,.19.51.26.26,0,0,0,.19,0h0l.46-.26h0a.47.47,0,0,0,.25-.31.39.39,0,0,0-.19-.51h-.07a.28.28,0,0,0-.12,0"/></clipPath><linearGradient id="ar" y1="90.9" y2="90.9" gradientTransform="matrix(2.37, 0, 0, -2.37, 44.63, 300.98)" xlink:href="#aj"/><clipPath id="as" transform="translate(26.31 12.22)"><path class="b" d="M45.58,85.25l-.51.28h0a.49.49,0,0,0-.22.3.39.39,0,0,0,.19.51.26.26,0,0,0,.19,0h0l.46-.26a.48.48,0,0,0,.24-.31.39.39,0,0,0-.19-.51H45.7a.29.29,0,0,0-.13,0"/></clipPath><linearGradient id="at" y1="90.9" y2="90.9" gradientTransform="matrix(0, -2.26, -2.26, 0, 250.45, 87.65)" xlink:href="#v"/><clipPath id="au" transform="translate(26.31 12.22)"><path class="b" d="M31.35,87.25a1.37,1.37,0,0,0,.67,1c.33.15.57-.06.53-.48a1.37,1.37,0,0,0-.67-1,.48.48,0,0,0-.2,0c-.22,0-.36.2-.33.53"/></clipPath><linearGradient id="av" y1="90.88" y2="90.88" gradientTransform="matrix(0.96, 2.09, 1.27, -0.37, -58.04, 132.69)" xlink:href="#ab"/><clipPath id="ax" transform="translate(26.31 12.22)"><rect class="b" x="3.43" y="28.79" width="84.4" height="48.48"/></clipPath><clipPath id="ay" transform="translate(26.31 12.22)"><path class="b" d="M3.58,57.23l35.07,20a.86.86,0,0,0,.81,0L87.7,49.5a.28.28,0,0,0,0-.49l-35-20.13a.77.77,0,0,0-.73,0L3.56,56.77a.26.26,0,0,0,0,.45"/></clipPath><linearGradient id="az" y1="90.89" x2="1" y2="90.89" gradientTransform="matrix(0, -34.13, -34.13, 0, 3148.17, 87.06)" gradientUnits="userSpaceOnUse"><stop offset="0" stop-color="#1d6eff"/><stop offset="1" stop-color="#fff6ff"/></linearGradient><clipPath id="ba" transform="translate(26.31 12.22)"><rect class="b" x="3.2" y="17.8" width="85.22" height="49.3"/></clipPath><clipPath id="bb" transform="translate(26.31 12.22)"><path class="b" d="M39.19,67.1a1.26,1.26,0,0,1-.56-.13L3.56,47a.66.66,0,0,1,0-1.16L51.9,18a1.17,1.17,0,0,1,1.12,0l35,20.15a.68.68,0,0,1,.36.58.69.69,0,0,1-.35.61L39.83,66.93a1.28,1.28,0,0,1-.63.17m-35-20.69L39,66.25a.44.44,0,0,0,.4,0L87.48,38.68l-34.84-20a.36.36,0,0,0-.33,0Z"/></clipPath><linearGradient id="bc" y1="90.89" x2="1" y2="90.89" gradientTransform="matrix(0, -20.29, -20.29, 0, 1890.49, 68.88)" gradientUnits="userSpaceOnUse"><stop offset="0" stop-color="#3278bd"/><stop offset="1" stop-color="#fff6ff"/></linearGradient><clipPath id="bd" transform="translate(26.31 12.22)"><path class="b" d="M33.38,18.36l0,0a0,0,0,0,0,0,0,10.91,10.91,0,0,1-.8-4.13,11,11,0,1,1,21.26,4.13,0,0,0,0,1,0,0l0,0L48,31.49h-2.9V23.38a4.73,4.73,0,0,0,3.15-4.43,1.57,1.57,0,0,0-3.15,0,1.57,1.57,0,1,1-3.14,0,1.57,1.57,0,1,0-3.14,0A4.73,4.73,0,0,0,42,23.38v8.11H39.1Zm-4-4.19a14.14,14.14,0,0,0,1,5.32l0,.06s0,.05,0,.07L36.62,33.7a1.58,1.58,0,0,0,1.44.95h11a1.58,1.58,0,0,0,1.44-.95l6.13-14.08a.12.12,0,0,0,0-.06.37.37,0,0,0,0-.07,13.9,13.9,0,0,0,1-5.32,14.17,14.17,0,0,0-28.34,0"/></clipPath><linearGradient id="be" y1="90.9" x2="1" y2="90.9" gradientTransform="matrix(0, -43.97, -43.97, 0, 4040.75, 54.21)" xlink:href="#az"/><clipPath id="bf" transform="translate(26.31 12.22)"><path class="b" d="M38.06,36.22a1.57,1.57,0,0,0,0,3.15H49.87a1.57,1.57,0,0,0,0-3.15Z"/></clipPath><linearGradient id="bg" y1="90.9" x2="1" y2="90.9" gradientTransform="matrix(0, -43.97, -43.97, 0, 4041.11, 54.21)" xlink:href="#az"/><clipPath id="bh" transform="translate(26.31 12.22)"><path class="b" d="M42,45.67V44.09h3.14v1.57a1.57,1.57,0,0,1-3.14,0m-4.33-4.73a1.57,1.57,0,1,0,0,3.14h1.18v1.57a4.73,4.73,0,1,0,9.45,0V44.08h1.18a1.57,1.57,0,0,0,0-3.14Z"/></clipPath><linearGradient id="bi" y1="90.9" x2="1" y2="90.9" gradientTransform="matrix(0, -43.97, -43.97, 0, 4040.75, 54.22)" xlink:href="#az"/></defs><title>Vector Smart Object</title><g class="a"><g class="c"><g class="d"><rect class="e" x="26.31" y="50.51" width="93.97" height="52.61"/></g><g class="c"><g class="f"><g class="g"><rect class="h" x="-7.62" y="18.19" width="108.5" height="92.81" transform="translate(0.52 43.61) rotate(-29.54)"/></g></g><g class="f"><g class="i"><g class="j"><rect class="k" x="-7.61" y="18.19" width="108.5" height="92.81" transform="translate(0.52 43.61) rotate(-29.54)"/></g></g></g><g class="f"><g class="g"><rect class="l" x="-0.08" y="10.35" width="93.42" height="108.49" transform="translate(-6.34 84.66) rotate(-59.83)"/></g></g><g class="f"><g class="i"><g class="m"><rect class="n" x="-0.08" y="10.35" width="93.42" height="108.49" transform="translate(-6.34 84.66) rotate(-59.83)"/></g></g></g></g><g class="o"><rect class="p" x="-4.81" y="10.72" width="101.19" height="102.76" transform="translate(-4.49 65) rotate(-46.67)"/></g><g class="q"><rect class="r" x="-2.55" y="17.18" width="96.72" height="89.51" transform="translate(-1.69 52.08) rotate(-36.86)"/></g><g class="s"><rect class="t" x="2" y="18.77" width="87.56" height="66.17" transform="matrix(0.87, -0.49, 0.49, 0.87, 6.76, 41.32)"/></g><g class="u"><rect class="v" x="17.5" y="75.64" width="0.84" height="0.72" transform="translate(-10.21 32.24) rotate(-30.93)"/></g><g class="w"><rect class="x" x="17.88" y="75.17" width="5.42" height="4.72" transform="translate(-10.62 33.82) rotate(-30.93)"/></g><g class="y"><rect class="z" x="69.42" y="43.65" width="5.36" height="6.27" transform="translate(22.01 98.39) rotate(-60.26)"/></g><g class="aa"><rect class="ab" x="69.4" y="43.75" width="5.44" height="5.4" transform="translate(14.42 76.02) rotate(-44.45)"/></g><g class="ac"><rect class="ad" x="45.93" y="82.74" width="3.38" height="2.98" transform="translate(-2.46 37.05) rotate(-22.65)"/></g><g class="ae"><rect class="af" x="46.11" y="82.65" width="3.42" height="3.45" transform="translate(-20.07 73.48) rotate(-46.67)"/></g><g class="ag"><rect class="ah" x="49.12" y="80.93" width="3.38" height="2.98" transform="translate(-1.51 38.14) rotate(-22.65)"/></g><g class="ai"><rect class="aj" x="49.31" y="80.84" width="3.42" height="3.45" transform="translate(-17.74 75.23) rotate(-46.67)"/></g><g class="ak"><rect class="al" x="44.41" y="84.87" width="1.58" height="1.52" transform="translate(-3.19 36.23) rotate(-22.65)"/></g><g class="am"><rect class="an" x="44.57" y="84.94" width="1.68" height="1.68" transform="matrix(0.69, -0.73, 0.73, 0.69, -21.84, 72.16)"/></g><g class="ao"><polygon class="ap" points="58.75 98.61 59.59 100.45 57.78 100.99 56.93 99.14 58.75 98.61"/></g><g class="c"><path class="aq" d="M32.26,88.47a.58.58,0,0,1-.29-.06,1.5,1.5,0,0,1-.75-1.15.64.64,0,0,1,.21-.6.5.5,0,0,1,.51,0,1.5,1.5,0,0,1,.75,1.15.64.64,0,0,1-.21.6.43.43,0,0,1-.22.08m-.6-1.62-.08,0a.39.39,0,0,0-.1.36,1.24,1.24,0,0,0,.59.92.25.25,0,0,0,.24,0,.39.39,0,0,0,.1-.36,1.24,1.24,0,0,0-.59-.92.35.35,0,0,0-.16,0" transform="translate(26.31 12.22)"/><g class="ar"><g class="as"><rect class="at" x="3.14" y="4.31" width="84.99" height="97.45" transform="translate(3.02 77.28) rotate(-59.18)"/></g></g><g class="au"><g class="av"><rect class="aw" x="-2.99" y="3.4" width="97.59" height="78.05" transform="translate(13.62 32.81) rotate(-22.34)"/></g></g></g><g class="ax"><rect class="ay" x="29.2" y="-0.16" width="28.74" height="34.98" transform="translate(26.11 12.73) rotate(-0.67)"/></g><g class="az"><rect class="ba" x="36.47" y="36.13" width="14.99" height="3.32" transform="matrix(1, -0.01, 0.01, 1, 25.87, 12.73)"/></g><g class="bb"><rect class="bc" x="36.04" y="40.85" width="15.07" height="9.62" transform="translate(25.77 12.73) rotate(-0.67)"/></g></g></g></svg>