<svg id="Calque_1" data-name="Calque 1" xmlns="http://www.w3.org/2000/svg" viewBox="0 0 539 287.61"><defs><style>.cls-1,.cls-38{fill:#fff;}.cls-1{stroke:#e6e6e6;stroke-width:0.5px;}.cls-10,.cls-2,.cls-3,.cls-7{fill:none;}.cls-2{stroke:#d3d3d3;}.cls-10,.cls-3{stroke:#d0d0d0;}.cls-4{fill:#c6c2c2;}.cls-5{fill:#f4f4f4;}.cls-6{fill:#c4c4c4;}.cls-7{stroke:#c4c4c4;}.cls-10,.cls-7{stroke-width:0.86px;}.cls-8{fill-opacity:0.1;}.cls-9{fill:#7cc384;}.cls-11{fill:#1f0d45;}.cls-12{fill:#ffc1c5;}.cls-13{fill:#441fd8;}.cls-14{fill:#ffb7bb;}.cls-15{fill:#3111ae;}.cls-16,.cls-23{fill:#acdcff;}.cls-17{fill:#5f40d4;}.cls-18{fill:#745ced;}.cls-19{fill:#32187c;}.cls-20,.cls-22{fill:#05c8ff;}.cls-21{fill:#242424;}.cls-22,.cls-23,.cls-24,.cls-38{fill-rule:evenodd;}.cls-24{fill:#ffd43e;}.cls-25{fill:#ea7a70;}.cls-26{fill:#97d9ff;}.cls-27{fill:#474c4d;}.cls-28{fill:#bdb8ec;}.cls-29{fill:#ffaea7;}.cls-30{fill:#ffaaaf;}.cls-31{fill:#252525;}.cls-32{fill:#1f0d52;}.cls-33{fill:#5f40d5;}.cls-34{fill:#1f1a1a;}.cls-35{fill:#e43425;}.cls-36{fill:#e55773;}.cls-37{fill:#2a2a2a;}.cls-39{fill:#d3e7ec;}.cls-40{fill:#b1d0d6;}.cls-41{fill:#dadaff;}</style></defs><rect class="cls-1" x="63.25" y="129.25" width="384.5" height="153.5" rx="9.75"/><path d="M97.64,211.13,99,204.05h2L98.82,214H96.75l-1.62-6.66L93.51,214H91.45l-2.21-9.95h2l1.35,7.07,1.64-7.07H96Zm3.84-.9a4.31,4.31,0,0,1,.43-2,3.06,3.06,0,0,1,1.21-1.33,3.55,3.55,0,0,1,1.86-.47,3.37,3.37,0,0,1,2.44.91,3.72,3.72,0,0,1,1.06,2.49v.51a3.89,3.89,0,0,1-.95,2.73,3.31,3.31,0,0,1-2.55,1,3.35,3.35,0,0,1-2.56-1,4,4,0,0,1-1-2.79Zm2,.15a2.79,2.79,0,0,0,.39,1.61,1.44,1.44,0,0,0,2.26,0,3,3,0,0,0,.4-1.77,2.72,2.72,0,0,0-.4-1.6,1.42,1.42,0,0,0-2.26,0A3.13,3.13,0,0,0,103.46,210.38Zm10.4-1.92a4.85,4.85,0,0,0-.71-.06,1.44,1.44,0,0,0-1.47.76V214h-2v-7.4h1.86l.06.89a1.81,1.81,0,0,1,1.64-1,2.06,2.06,0,0,1,.62.09Zm3.65,2.57-.72.71V214h-2V203.5h2v5.82l.39-.5,1.89-2.22h2.37l-2.67,3.09,2.91,4.31h-2.27Zm16.58-1.78a6,6,0,0,1-.52,2.58,4,4,0,0,1-1.49,1.71,4.37,4.37,0,0,1-4.42,0,4,4,0,0,1-1.51-1.69,6,6,0,0,1-.54-2.55v-.49a6,6,0,0,1,.53-2.58,4,4,0,0,1,1.5-1.72,4.37,4.37,0,0,1,4.42,0,3.89,3.89,0,0,1,1.5,1.72,6,6,0,0,1,.53,2.57ZM132,208.8a4.2,4.2,0,0,0-.56-2.38,1.84,1.84,0,0,0-1.6-.82,1.81,1.81,0,0,0-1.59.81,4.22,4.22,0,0,0-.57,2.35v.49a4.27,4.27,0,0,0,.56,2.36,2,2,0,0,0,3.2,0,4.19,4.19,0,0,0,.56-2.37Zm7.6-.34a5,5,0,0,0-.71-.06,1.44,1.44,0,0,0-1.47.76V214h-2v-7.4h1.87l.05.89a1.84,1.84,0,0,1,1.65-1,2,2,0,0,1,.61.09Zm.51,1.79a4.52,4.52,0,0,1,.77-2.76,2.54,2.54,0,0,1,2.13-1,2.28,2.28,0,0,1,1.78.8V203.5h2V214H145l-.1-.79a2.31,2.31,0,0,1-1.9.93,2.54,2.54,0,0,1-2.1-1A4.65,4.65,0,0,1,140.12,210.25Zm2,.14a2.84,2.84,0,0,0,.36,1.59,1.18,1.18,0,0,0,1,.56,1.32,1.32,0,0,0,1.29-.78v-2.91a1.3,1.3,0,0,0-1.28-.78C142.57,208.07,142.1,208.85,142.1,210.39Zm9.62,3.75a3.65,3.65,0,0,1-2.65-1,3.56,3.56,0,0,1-1-2.66v-.19a4.38,4.38,0,0,1,.43-2A3.08,3.08,0,0,1,149.7,207a3.41,3.41,0,0,1,1.8-.48,3.1,3.1,0,0,1,2.39.95,3.92,3.92,0,0,1,.87,2.72v.8h-4.71a1.87,1.87,0,0,0,.58,1.17,1.75,1.75,0,0,0,1.22.43,2.11,2.11,0,0,0,1.78-.82l1,1.08a2.94,2.94,0,0,1-1.2,1A4,4,0,0,1,151.72,214.14Zm-.23-6.07a1.24,1.24,0,0,0-1,.39,2.1,2.1,0,0,0-.47,1.14h2.75v-.16a1.44,1.44,0,0,0-.36-1A1.26,1.26,0,0,0,151.49,208.07Zm8.56.39a5,5,0,0,0-.71-.06,1.44,1.44,0,0,0-1.47.76V214h-2v-7.4h1.87l.05.89a1.84,1.84,0,0,1,1.65-1,2,2,0,0,1,.61.09Zm5,3.5a.62.62,0,0,0-.36-.57,4,4,0,0,0-1.15-.38c-1.76-.37-2.64-1.11-2.64-2.24a2,2,0,0,1,.81-1.64,3.31,3.31,0,0,1,2.14-.66,3.54,3.54,0,0,1,2.25.66,2.08,2.08,0,0,1,.85,1.72h-2a1,1,0,0,0-.27-.7,1.17,1.17,0,0,0-.85-.27,1.19,1.19,0,0,0-.78.22.72.72,0,0,0-.27.58.62.62,0,0,0,.31.53,3.41,3.41,0,0,0,1.05.35,7.87,7.87,0,0,1,1.24.32,2.05,2.05,0,0,1,1.57,2,1.92,1.92,0,0,1-.87,1.64,3.71,3.71,0,0,1-2.24.63,4,4,0,0,1-1.66-.33,2.82,2.82,0,0,1-1.12-.91,2.08,2.08,0,0,1-.41-1.25h1.87a1.06,1.06,0,0,0,.39.81,1.6,1.6,0,0,0,1,.28,1.42,1.42,0,0,0,.85-.22A.66.66,0,0,0,165,212Z" transform="translate(0 -52)"/><rect class="cls-2" x="223.5" y="146.5" width="22" height="22" rx="3.5"/><rect class="cls-3" x="90.5" y="213.5" width="9" height="9" rx="1.5"/><rect class="cls-4" x="106" y="213" width="73" height="10" rx="2"/><rect class="cls-5" x="232" y="213" width="73" height="10" rx="2"/><rect class="cls-5" x="342" y="213" width="93" height="10" rx="2"/><rect class="cls-3" x="90.5" y="234.5" width="9" height="9" rx="1.5"/><rect class="cls-4" x="106" y="234" width="73" height="10" rx="2"/><rect class="cls-5" x="232" y="234" width="73" height="10" rx="2"/><rect class="cls-5" x="342" y="234" width="93" height="10" rx="2"/><rect class="cls-3" x="90.5" y="255.5" width="9" height="9" rx="1.5"/><rect class="cls-4" x="106" y="255" width="73" height="10" rx="2"/><rect class="cls-5" x="232" y="255" width="73" height="10" rx="2"/><rect class="cls-5" x="342" y="255" width="93" height="10" rx="2"/><rect class="cls-3" x="90.5" y="189.5" width="9" height="9" rx="1.5"/><path d="M107.54,247.63l.21,1.41.3-1.27,2.11-7.45h1.19l2.06,7.45.29,1.29.23-1.43,1.66-7.31H117L114.42,251h-1.29l-2.2-7.78-.17-.82-.17.82L108.31,251H107l-2.58-10.68h1.41Zm10.23-.67a4.76,4.76,0,0,1,.45-2.1,3.52,3.52,0,0,1,1.28-1.44,3.56,3.56,0,0,1,1.87-.5A3.34,3.34,0,0,1,124,244a4.3,4.3,0,0,1,1,3v.1a4.81,4.81,0,0,1-.44,2.08,3.4,3.4,0,0,1-1.27,1.43,3.45,3.45,0,0,1-1.9.52,3.34,3.34,0,0,1-2.61-1.13,4.25,4.25,0,0,1-1-3Zm1.36.16a3.38,3.38,0,0,0,.61,2.12,2.08,2.08,0,0,0,3.29,0,3.76,3.76,0,0,0,.61-2.27,3.31,3.31,0,0,0-.63-2.11,2,2,0,0,0-3.26,0A3.69,3.69,0,0,0,119.13,247.12Zm11.4-2.84a4.57,4.57,0,0,0-.67-.05,1.79,1.79,0,0,0-1.81,1.14V251h-1.36v-7.94H128l0,.92a2.09,2.09,0,0,1,1.89-1.06,1.38,1.38,0,0,1,.6.1Zm3.47,3-.85.89V251h-1.36V239.73h1.36v6.82l.73-.87,2.47-2.62H138l-3.09,3.32,3.45,4.62h-1.59ZM151.55,246a6.66,6.66,0,0,1-.52,2.74,4,4,0,0,1-1.5,1.78,4.14,4.14,0,0,1-6-1.77,6.5,6.5,0,0,1-.55-2.66v-.77a6.47,6.47,0,0,1,.54-2.72,4,4,0,0,1,3.76-2.44,4.05,4.05,0,0,1,2.25.63,4,4,0,0,1,1.52,1.79,6.7,6.7,0,0,1,.52,2.74Zm-1.4-.69a4.79,4.79,0,0,0-.76-2.92,2.71,2.71,0,0,0-4.24,0,4.68,4.68,0,0,0-.78,2.82V246a4.84,4.84,0,0,0,.76,2.89,2.53,2.53,0,0,0,2.14,1,2.49,2.49,0,0,0,2.11-1,4.72,4.72,0,0,0,.77-2.85Zm7.14-1a4.68,4.68,0,0,0-.67-.05,1.79,1.79,0,0,0-1.81,1.14V251h-1.36v-7.94h1.32l0,.92a2.09,2.09,0,0,1,1.89-1.06,1.38,1.38,0,0,1,.6.1Zm.78,2.69a4.69,4.69,0,0,1,.86-2.94,3,3,0,0,1,4.48-.16v-4.14h1.35V251h-1.24l-.07-.85a2.78,2.78,0,0,1-2.27,1,2.72,2.72,0,0,1-2.25-1.13,4.78,4.78,0,0,1-.86-3Zm1.35.15a3.53,3.53,0,0,0,.56,2.11,1.8,1.8,0,0,0,1.54.76,2,2,0,0,0,1.89-1.15v-3.65a2,2,0,0,0-1.87-1.12,1.8,1.8,0,0,0-1.56.77A3.87,3.87,0,0,0,159.42,247.12Zm10.75,4a3.52,3.52,0,0,1-2.63-1.06,4,4,0,0,1-1-2.84V247a4.7,4.7,0,0,1,.45-2.1,3.44,3.44,0,0,1,1.26-1.45,3.11,3.11,0,0,1,1.76-.53,3,3,0,0,1,2.41,1,4.42,4.42,0,0,1,.86,2.92v.56h-5.38a2.87,2.87,0,0,0,.68,1.9,2.17,2.17,0,0,0,1.67.72,2.42,2.42,0,0,0,1.22-.29,3.07,3.07,0,0,0,.87-.78l.83.64A3.31,3.31,0,0,1,170.17,251.15ZM170,244a1.8,1.8,0,0,0-1.38.6,2.94,2.94,0,0,0-.69,1.68h4v-.11a2.6,2.6,0,0,0-.56-1.6A1.7,1.7,0,0,0,170,244Zm8.68.25a4.68,4.68,0,0,0-.67-.05,1.79,1.79,0,0,0-1.81,1.14V251h-1.36v-7.94h1.32l0,.92a2.12,2.12,0,0,1,1.9-1.06,1.38,1.38,0,0,1,.6.1Z" transform="translate(0 -52)"/><path d="M254.39,246.24a6.61,6.61,0,0,1-2.64-1.28,2.44,2.44,0,0,1-.83-1.87,2.59,2.59,0,0,1,1-2.09,4,4,0,0,1,2.62-.83,4.38,4.38,0,0,1,2,.43,3.14,3.14,0,0,1,1.34,1.17,3,3,0,0,1,.48,1.64h-1.42a1.94,1.94,0,0,0-.62-1.52,2.51,2.51,0,0,0-1.74-.56,2.6,2.6,0,0,0-1.62.46,1.53,1.53,0,0,0-.58,1.27,1.37,1.37,0,0,0,.55,1.11,5.51,5.51,0,0,0,1.88.82,8.77,8.77,0,0,1,2.09.83,3.13,3.13,0,0,1,1.11,1.05,2.61,2.61,0,0,1,.37,1.42,2.5,2.5,0,0,1-1,2.08,4.29,4.29,0,0,1-2.7.78,5.09,5.09,0,0,1-2.06-.42,3.51,3.51,0,0,1-1.47-1.16,2.84,2.84,0,0,1-.51-1.67H252a1.88,1.88,0,0,0,.71,1.54,3.06,3.06,0,0,0,1.92.55,2.81,2.81,0,0,0,1.71-.45,1.49,1.49,0,0,0,.59-1.24,1.43,1.43,0,0,0-.55-1.21A6.19,6.19,0,0,0,254.39,246.24Zm7.4-5.1v1.92h1.48v1.05h-1.48V249a1.07,1.07,0,0,0,.2.72.81.81,0,0,0,.67.24,3.28,3.28,0,0,0,.65-.09V251a3.92,3.92,0,0,1-1.05.15,1.72,1.72,0,0,1-1.37-.55,2.37,2.37,0,0,1-.46-1.57v-4.92H259v-1.05h1.44v-1.92Zm8,9.86a2.82,2.82,0,0,1-.19-.84,3,3,0,0,1-2.26,1,2.84,2.84,0,0,1-1.93-.66,2.17,2.17,0,0,1-.75-1.69,2.24,2.24,0,0,1,.94-1.92,4.45,4.45,0,0,1,2.66-.69h1.32v-.62a1.51,1.51,0,0,0-.43-1.14,1.7,1.7,0,0,0-1.25-.42,2,2,0,0,0-1.22.37,1.06,1.06,0,0,0-.49.88H264.8a1.86,1.86,0,0,1,.41-1.14,3,3,0,0,1,1.15-.88,3.77,3.77,0,0,1,1.59-.32,3.14,3.14,0,0,1,2.15.69,2.4,2.4,0,0,1,.8,1.88v3.65a4.58,4.58,0,0,0,.28,1.74V251Zm-2.25-1a2.4,2.4,0,0,0,1.21-.33,2,2,0,0,0,.83-.86v-1.63h-1.07c-1.66,0-2.49.49-2.49,1.46a1.23,1.23,0,0,0,.43,1A1.61,1.61,0,0,0,267.51,250Zm7.36-8.83v1.92h1.49v1.05h-1.49V249a1.12,1.12,0,0,0,.2.72.84.84,0,0,0,.68.24,3.2,3.2,0,0,0,.64-.09V251a3.79,3.79,0,0,1-1,.15,1.71,1.71,0,0,1-1.37-.55,2.37,2.37,0,0,1-.46-1.57v-4.92h-1.45v-1.05h1.45v-1.92Zm8,9.07a2.87,2.87,0,0,1-2.33.94,2.51,2.51,0,0,1-1.94-.74,3.17,3.17,0,0,1-.66-2.18v-5.17h1.35v5.13q0,1.8,1.47,1.8a2,2,0,0,0,2.07-1.15v-5.78h1.36V251h-1.29Zm8-1.31a1,1,0,0,0-.42-.86,3.9,3.9,0,0,0-1.45-.52,7.24,7.24,0,0,1-1.63-.53,2.42,2.42,0,0,1-.9-.74,1.76,1.76,0,0,1-.28-1,2.05,2.05,0,0,1,.82-1.65,3.23,3.23,0,0,1,2.11-.67,3.34,3.34,0,0,1,2.19.69,2.23,2.23,0,0,1,.84,1.79h-1.36a1.23,1.23,0,0,0-.48-1,1.8,1.8,0,0,0-1.19-.4,1.9,1.9,0,0,0-1.16.32,1,1,0,0,0-.42.85.82.82,0,0,0,.39.74,5.31,5.31,0,0,0,1.4.48A7.24,7.24,0,0,1,291,247a2.44,2.44,0,0,1,.94.76,1.86,1.86,0,0,1,.3,1.08,2,2,0,0,1-.85,1.71,3.6,3.6,0,0,1-2.21.64,4.06,4.06,0,0,1-1.68-.34,2.83,2.83,0,0,1-1.15-.94,2.26,2.26,0,0,1-.41-1.31h1.35a1.46,1.46,0,0,0,.54,1.08,2.15,2.15,0,0,0,1.35.4,2.17,2.17,0,0,0,1.24-.31A1,1,0,0,0,290.86,248.9Z" transform="translate(0 -52)"/><path d="M343.24,251V240.32h3a4.77,4.77,0,0,1,2.47.62,4.17,4.17,0,0,1,1.65,1.75,5.64,5.64,0,0,1,.59,2.61V246a5.72,5.72,0,0,1-.58,2.65,4.15,4.15,0,0,1-1.67,1.75,5.21,5.21,0,0,1-2.51.62Zm1.41-9.52v8.37h1.48a3.23,3.23,0,0,0,2.53-1,4.17,4.17,0,0,0,.91-2.89v-.62a4.22,4.22,0,0,0-.86-2.82,3,3,0,0,0-2.42-1Zm11.53,9.67a3.5,3.5,0,0,1-2.63-1.06,4,4,0,0,1-1-2.84V247a4.7,4.7,0,0,1,.45-2.1,3.44,3.44,0,0,1,1.26-1.45,3.11,3.11,0,0,1,1.76-.53,3,3,0,0,1,2.41,1,4.42,4.42,0,0,1,.85,2.92v.56H353.9a2.82,2.82,0,0,0,.68,1.9,2.17,2.17,0,0,0,1.67.72,2.42,2.42,0,0,0,1.22-.29,3.21,3.21,0,0,0,.87-.78l.83.64A3.31,3.31,0,0,1,356.18,251.15ZM356,244a1.8,1.8,0,0,0-1.38.6,2.94,2.94,0,0,0-.69,1.68h4v-.11a2.6,2.6,0,0,0-.56-1.6A1.7,1.7,0,0,0,356,244Zm9.46,4.87a1,1,0,0,0-.42-.86,3.83,3.83,0,0,0-1.44-.52A7.34,7.34,0,0,1,362,247a2.31,2.31,0,0,1-.89-.74,1.77,1.77,0,0,1-.29-1,2.08,2.08,0,0,1,.82-1.65,3.74,3.74,0,0,1,4.3,0,2.21,2.21,0,0,1,.85,1.79h-1.37a1.25,1.25,0,0,0-.47-1,1.82,1.82,0,0,0-1.19-.4,1.88,1.88,0,0,0-1.16.32,1,1,0,0,0-.42.85.82.82,0,0,0,.39.74,5.31,5.31,0,0,0,1.4.48,7.24,7.24,0,0,1,1.65.54,2.33,2.33,0,0,1,.93.76,1.79,1.79,0,0,1,.31,1.08,2,2,0,0,1-.85,1.71,3.64,3.64,0,0,1-2.21.64,4.11,4.11,0,0,1-1.69-.34,2.89,2.89,0,0,1-1.15-.94,2.33,2.33,0,0,1-.41-1.31h1.36a1.39,1.39,0,0,0,.54,1.08,2.11,2.11,0,0,0,1.35.4,2.14,2.14,0,0,0,1.23-.31A1,1,0,0,0,365.47,248.9Zm6.31,1.14a2,2,0,0,0,1.27-.44,1.55,1.55,0,0,0,.6-1.1h1.28a2.43,2.43,0,0,1-.47,1.3,3,3,0,0,1-1.15,1,3.39,3.39,0,0,1-1.53.37,3.28,3.28,0,0,1-2.58-1.08,4.31,4.31,0,0,1-1-3v-.22a4.8,4.8,0,0,1,.43-2.06,3.24,3.24,0,0,1,1.22-1.41,3.49,3.49,0,0,1,1.88-.49,3.16,3.16,0,0,1,2.22.8,2.8,2.8,0,0,1,.94,2.07h-1.28a1.83,1.83,0,0,0-.59-1.26,1.78,1.78,0,0,0-1.29-.5,1.89,1.89,0,0,0-1.6.75,3.47,3.47,0,0,0-.57,2.15v.26a3.42,3.42,0,0,0,.57,2.11A1.9,1.9,0,0,0,371.78,250Zm8.52-5.76a4.68,4.68,0,0,0-.67-.05,1.79,1.79,0,0,0-1.81,1.14V251h-1.36v-7.94h1.32l0,.92a2.12,2.12,0,0,1,1.9-1.06,1.38,1.38,0,0,1,.6.1ZM383,251h-1.35v-7.94H383Zm-1.46-10a.79.79,0,0,1,.2-.56.75.75,0,0,1,.6-.23.78.78,0,0,1,.6.23.79.79,0,0,1,.21.56.77.77,0,0,1-.21.55.82.82,0,0,1-.6.22.78.78,0,0,1-.6-.22A.76.76,0,0,1,381.56,241Zm10.35,6.16a4.77,4.77,0,0,1-.83,2.92,2.65,2.65,0,0,1-2.25,1.11,2.91,2.91,0,0,1-2.27-.92v3.82H385.2v-11h1.24l.07.88a2.8,2.8,0,0,1,2.3-1,2.7,2.7,0,0,1,2.26,1.07,4.78,4.78,0,0,1,.84,3Zm-1.36-.15a3.49,3.49,0,0,0-.57-2.12,1.83,1.83,0,0,0-1.57-.78,2,2,0,0,0-1.85,1.09V249a2,2,0,0,0,1.86,1.09,1.83,1.83,0,0,0,1.55-.77A3.81,3.81,0,0,0,390.55,247Zm4.93-5.83v1.92H397v1.05h-1.48V249a1.12,1.12,0,0,0,.2.72.83.83,0,0,0,.67.24,3.19,3.19,0,0,0,.65-.09V251a3.84,3.84,0,0,1-1,.15,1.69,1.69,0,0,1-1.37-.55,2.37,2.37,0,0,1-.47-1.57v-4.92h-1.44v-1.05h1.44v-1.92ZM400,251h-1.36v-7.94H400Zm-1.47-10a.83.83,0,0,1,.2-.56.78.78,0,0,1,.6-.23.77.77,0,0,1,.6.23.79.79,0,0,1,.21.56.77.77,0,0,1-.21.55.8.8,0,0,1-.6.22.73.73,0,0,1-.8-.77Zm3.29,6a4.76,4.76,0,0,1,.45-2.1,3.52,3.52,0,0,1,1.28-1.44,3.56,3.56,0,0,1,1.87-.5,3.34,3.34,0,0,1,2.62,1.12,4.3,4.3,0,0,1,1,3v.1a4.67,4.67,0,0,1-.45,2.08,3.31,3.31,0,0,1-1.26,1.43,3.45,3.45,0,0,1-1.9.52,3.34,3.34,0,0,1-2.61-1.13,4.25,4.25,0,0,1-1-3Zm1.36.16a3.44,3.44,0,0,0,.61,2.12,2.08,2.08,0,0,0,3.29,0,3.76,3.76,0,0,0,.61-2.27,3.31,3.31,0,0,0-.63-2.11,2,2,0,0,0-3.26,0A3.69,3.69,0,0,0,403.21,247.12Zm8.85-4.06,0,1a2.9,2.9,0,0,1,2.38-1.14c1.68,0,2.52.94,2.54,2.84V251h-1.36v-5.25a1.84,1.84,0,0,0-.4-1.27,1.56,1.56,0,0,0-1.19-.41,2,2,0,0,0-1.16.35,2.38,2.38,0,0,0-.78.93V251h-1.36v-7.94Z" transform="translate(0 -52)"/><rect class="cls-2" x="250.5" y="146.5" width="22" height="22" rx="3.5"/><rect class="cls-2" x="286.5" y="146.5" width="152" height="22" rx="3.5"/><rect class="cls-1" x="307.47" y="0.25" width="229.28" height="283.5" rx="8.36"/><path d="M337,77.74l1.15-6.09h1.76L338,80.21h-1.77l-1.4-5.73-1.39,5.73H331.7l-1.9-8.56h1.76l1.16,6.08,1.41-6.08h1.5Zm3.31-.77a3.85,3.85,0,0,1,.36-1.69,2.76,2.76,0,0,1,1.05-1.14,3,3,0,0,1,1.59-.41,2.91,2.91,0,0,1,2.11.79,3.2,3.2,0,0,1,.91,2.14v.43a3.33,3.33,0,0,1-.82,2.36,3.18,3.18,0,0,1-4.39,0,3.38,3.38,0,0,1-.82-2.4Zm1.7.12a2.36,2.36,0,0,0,.34,1.39,1.23,1.23,0,0,0,1.94,0,2.64,2.64,0,0,0,.35-1.52,2.39,2.39,0,0,0-.35-1.38,1.14,1.14,0,0,0-1-.48,1.12,1.12,0,0,0-1,.48A2.64,2.64,0,0,0,342,77.09ZM351,75.44a4.82,4.82,0,0,0-.61,0,1.24,1.24,0,0,0-1.26.66v4.16h-1.7V73.85H349l.05.76a1.56,1.56,0,0,1,1.42-.88,1.59,1.59,0,0,1,.53.08Zm3.14,2.22-.61.61v1.94h-1.7v-9h1.7v5l.33-.42,1.63-1.91h2l-2.3,2.65,2.5,3.71h-2Zm14.27-1.54a5.11,5.11,0,0,1-.45,2.22,3.29,3.29,0,0,1-1.28,1.47,3.47,3.47,0,0,1-1.9.52,3.59,3.59,0,0,1-1.91-.51,3.47,3.47,0,0,1-1.29-1.46,5,5,0,0,1-.46-2.19v-.42a5.19,5.19,0,0,1,.45-2.23,3.31,3.31,0,0,1,1.29-1.47,3.73,3.73,0,0,1,3.8,0,3.31,3.31,0,0,1,1.29,1.47,5,5,0,0,1,.46,2.22Zm-1.79-.38a3.61,3.61,0,0,0-.48-2,1.71,1.71,0,0,0-2.75,0,3.64,3.64,0,0,0-.49,2v.41a3.58,3.58,0,0,0,.49,2,1.69,1.69,0,0,0,2.75,0,3.62,3.62,0,0,0,.48-2Zm6.54-.3a5,5,0,0,0-.61,0,1.24,1.24,0,0,0-1.27.66v4.16h-1.7V73.85h1.61l0,.76a1.59,1.59,0,0,1,1.42-.88,1.51,1.51,0,0,1,.53.08Zm.44,1.54a3.87,3.87,0,0,1,.66-2.37,2.18,2.18,0,0,1,1.83-.88,2,2,0,0,1,1.54.69V71.18h1.71v9h-1.54l-.08-.67a2,2,0,0,1-1.64.79,2.15,2.15,0,0,1-1.8-.88A4,4,0,0,1,373.59,77Zm1.7.13a2.5,2.5,0,0,0,.31,1.37,1,1,0,0,0,.91.47,1.15,1.15,0,0,0,1.11-.66V75.78a1.12,1.12,0,0,0-1.1-.67C375.7,75.11,375.29,75.78,375.29,77.11Zm8.28,3.22a3.15,3.15,0,0,1-2.28-.86,3.07,3.07,0,0,1-.88-2.29V77a3.91,3.91,0,0,1,.37-1.71,2.72,2.72,0,0,1,1.05-1.17,3,3,0,0,1,1.55-.41,2.63,2.63,0,0,1,2.06.82,3.36,3.36,0,0,1,.75,2.34v.69h-4.05a1.57,1.57,0,0,0,.49,1,1.52,1.52,0,0,0,1.05.38,1.85,1.85,0,0,0,1.54-.71l.83.93a2.54,2.54,0,0,1-1,.85A3.45,3.45,0,0,1,383.57,80.33Zm-.19-5.22a1.09,1.09,0,0,0-.83.34,1.81,1.81,0,0,0-.4,1h2.37v-.13a1.22,1.22,0,0,0-.31-.87A1.06,1.06,0,0,0,383.38,75.11Zm7.36.33a5,5,0,0,0-.61,0,1.24,1.24,0,0,0-1.27.66v4.16h-1.7V73.85h1.61l0,.76a1.59,1.59,0,0,1,1.42-.88,1.51,1.51,0,0,1,.53.08Zm10-2.36h-2.63v7.13h-1.76V73.08h-2.59V71.65h7Zm2.79,4.73,1.18-4h1.82L404,81.2l-.15.34A1.93,1.93,0,0,1,402,82.78a2.43,2.43,0,0,1-.75-.11V81.38h.26a1.32,1.32,0,0,0,.71-.15,1,1,0,0,0,.38-.49l.2-.52-2.23-6.38h1.83Zm9.4-.72a3.8,3.8,0,0,1-.67,2.36,2.12,2.12,0,0,1-1.8.88,2,2,0,0,1-1.56-.67v3h-1.7V73.85h1.58l.06.62a2,2,0,0,1,1.61-.74,2.14,2.14,0,0,1,1.83.87A3.89,3.89,0,0,1,413,77Zm-1.7-.13a2.53,2.53,0,0,0-.31-1.37,1,1,0,0,0-.91-.48,1.14,1.14,0,0,0-1.11.61v2.61a1.14,1.14,0,0,0,1.12.63C410.86,79,411.26,78.29,411.26,77ZM417,80.33a3.15,3.15,0,0,1-2.28-.86,3.07,3.07,0,0,1-.88-2.29V77a3.77,3.77,0,0,1,.38-1.71,2.64,2.64,0,0,1,1-1.17,3,3,0,0,1,1.56-.41,2.62,2.62,0,0,1,2.05.82,3.36,3.36,0,0,1,.75,2.34v.69h-4.05a1.57,1.57,0,0,0,.49,1,1.53,1.53,0,0,0,1.06.38,1.84,1.84,0,0,0,1.53-.71l.84.93a2.57,2.57,0,0,1-1,.85A3.45,3.45,0,0,1,417,80.33Zm-.19-5.22a1.09,1.09,0,0,0-.83.34,1.73,1.73,0,0,0-.39,1h2.36v-.13a1.22,1.22,0,0,0-.31-.87A1.06,1.06,0,0,0,416.76,75.11Z" transform="translate(0 -52)"/><path class="cls-6" d="M329.6,101.92a6,6,0,0,1,6-6h24.1V113.1h-24.1a6,6,0,0,1-6-6Z" transform="translate(0 -52)"/><path class="cls-7" d="M388.55,107.08a5.6,5.6,0,0,1-5.6,5.59H359.29V96.32H383a5.6,5.6,0,0,1,5.6,5.6Z" transform="translate(0 -52)"/><rect class="cls-8" x="336.48" y="51.64" width="18.07" height="3.44"/><rect class="cls-8" x="364.88" y="51.64" width="18.07" height="3.44"/><path class="cls-6" d="M456.1,107.08a6,6,0,0,1-6,6H426V95.89h24.1a6,6,0,0,1,6,6Z" transform="translate(0 -52)"/><path class="cls-7" d="M397.15,101.92a5.6,5.6,0,0,1,5.59-5.6h23.67v16.35H402.74a5.59,5.59,0,0,1-5.59-5.59Z" transform="translate(0 -52)"/><rect class="cls-8" x="402.75" y="51.64" width="18.07" height="3.44"/><rect class="cls-8" x="431.14" y="51.64" width="18.07" height="3.44"/><rect class="cls-9" x="480.2" y="14.63" width="19.79" height="19.79" rx="3.44"/><path d="M349.51,142.5h-3.85l-.87,2.4h-1.25l3.51-9.19h1.06l3.52,9.19h-1.24Zm-3.49-1h3.13l-1.57-4.3Zm10.64,1.59a.87.87,0,0,0-.36-.74,3.41,3.41,0,0,0-1.24-.45,6,6,0,0,1-1.41-.46,1.9,1.9,0,0,1-.77-.63,1.46,1.46,0,0,1-.25-.87,1.78,1.78,0,0,1,.71-1.42,2.78,2.78,0,0,1,1.82-.58,2.85,2.85,0,0,1,1.88.6,1.9,1.9,0,0,1,.72,1.53h-1.17a1,1,0,0,0-.41-.82,1.52,1.52,0,0,0-1-.35,1.57,1.57,0,0,0-1,.28.86.86,0,0,0-.36.72.69.69,0,0,0,.34.64,4.11,4.11,0,0,0,1.2.41,6.36,6.36,0,0,1,1.42.47,2.06,2.06,0,0,1,.8.65,1.59,1.59,0,0,1,.27.93,1.77,1.77,0,0,1-.73,1.47,3.08,3.08,0,0,1-1.9.55,3.37,3.37,0,0,1-1.46-.29,2.39,2.39,0,0,1-1-.8,2,2,0,0,1-.35-1.14h1.17a1.21,1.21,0,0,0,.46.94,1.85,1.85,0,0,0,1.17.34,1.87,1.87,0,0,0,1.06-.27A.84.84,0,0,0,356.66,143.09Zm6.67,0a.87.87,0,0,0-.36-.74,3.4,3.4,0,0,0-1.25-.45,5.72,5.72,0,0,1-1.4-.46,1.84,1.84,0,0,1-.77-.63,1.46,1.46,0,0,1-.25-.87,1.76,1.76,0,0,1,.71-1.42,2.75,2.75,0,0,1,1.81-.58,2.81,2.81,0,0,1,1.88.6,1.88,1.88,0,0,1,.73,1.53h-1.17a1,1,0,0,0-.41-.82,1.53,1.53,0,0,0-1-.35,1.55,1.55,0,0,0-1,.28.86.86,0,0,0-.36.72.7.7,0,0,0,.33.64A4.21,4.21,0,0,0,362,141a6.36,6.36,0,0,1,1.42.47,2.06,2.06,0,0,1,.8.65,1.66,1.66,0,0,1,.26.93,1.75,1.75,0,0,1-.73,1.47,3.06,3.06,0,0,1-1.9.55,3.32,3.32,0,0,1-1.45-.29,2.39,2.39,0,0,1-1-.8,2,2,0,0,1-.35-1.14h1.16a1.22,1.22,0,0,0,.47.94,1.82,1.82,0,0,0,1.16.34,1.85,1.85,0,0,0,1.06-.27A.83.83,0,0,0,363.33,143.09Zm5.52,1.93a3,3,0,0,1-2.26-.91,3.39,3.39,0,0,1-.87-2.44v-.21a4.18,4.18,0,0,1,.38-1.81,3,3,0,0,1,1.09-1.25,2.68,2.68,0,0,1,1.51-.46,2.54,2.54,0,0,1,2.07.88,3.74,3.74,0,0,1,.74,2.51v.49h-4.62a2.41,2.41,0,0,0,.58,1.63,1.88,1.88,0,0,0,1.44.62,2,2,0,0,0,1-.25,2.52,2.52,0,0,0,.75-.67l.71.55A2.86,2.86,0,0,1,368.85,145Zm-.15-6.12a1.53,1.53,0,0,0-1.18.52,2.51,2.51,0,0,0-.6,1.44h3.43v-.09a2.32,2.32,0,0,0-.48-1.38A1.48,1.48,0,0,0,368.7,138.9Zm5.27-.83,0,.75a2.55,2.55,0,0,1,2-.88,2,2,0,0,1,2,1.1,2.61,2.61,0,0,1,.88-.8,2.67,2.67,0,0,1,1.29-.3c1.5,0,2.27.79,2.29,2.38v4.58h-1.17v-4.51a1.56,1.56,0,0,0-.33-1.09,1.45,1.45,0,0,0-1.12-.37,1.5,1.5,0,0,0-1.58,1.43v4.54h-1.18v-4.48a1.3,1.3,0,0,0-1.46-1.49,1.57,1.57,0,0,0-1.57,1v5h-1.17v-6.83Zm16,3.49a4.09,4.09,0,0,1-.72,2.52,2.29,2.29,0,0,1-1.93.94,2.38,2.38,0,0,1-2-.91l-.06.79h-1.07v-9.7h1.17v3.62a2.35,2.35,0,0,1,1.95-.88,2.29,2.29,0,0,1,1.95.94,4.23,4.23,0,0,1,.71,2.58Zm-1.17-.13a3.14,3.14,0,0,0-.46-1.85,1.53,1.53,0,0,0-1.32-.65,1.71,1.71,0,0,0-1.66,1.08v3a1.75,1.75,0,0,0,1.67,1.07,1.52,1.52,0,0,0,1.31-.65A3.34,3.34,0,0,0,388.82,141.43Zm4.81,1.76,1.59-5.12h1.25L393.72,146c-.42,1.14-1.1,1.71-2,1.71l-.23,0-.43-.09v-.94l.31,0a1.56,1.56,0,0,0,.93-.24,1.79,1.79,0,0,0,.55-.87l.25-.7-2.43-6.75h1.27Z" transform="translate(0 -52)"/><path d="M363.28,163.15h-3.85l-.87,2.4h-1.25l3.51-9.19h1.06l3.52,9.19h-1.25Zm-3.49-1h3.13l-1.57-4.29Zm10.64,1.59a.84.84,0,0,0-.36-.73,3.38,3.38,0,0,0-1.24-.46,6,6,0,0,1-1.41-.45,2.08,2.08,0,0,1-.77-.63,1.51,1.51,0,0,1-.25-.87,1.77,1.77,0,0,1,.71-1.42,2.76,2.76,0,0,1,1.82-.58,2.79,2.79,0,0,1,1.88.6,1.89,1.89,0,0,1,.72,1.53h-1.17a1.07,1.07,0,0,0-.41-.83,1.52,1.52,0,0,0-1-.35,1.63,1.63,0,0,0-1,.28.89.89,0,0,0-.36.73.73.73,0,0,0,.33.64,4.33,4.33,0,0,0,1.21.41,6.23,6.23,0,0,1,1.42.46,2,2,0,0,1,.8.66,1.55,1.55,0,0,1,.27.93,1.76,1.76,0,0,1-.74,1.47,3.1,3.1,0,0,1-1.9.55,3.51,3.51,0,0,1-1.45-.29,2.49,2.49,0,0,1-1-.81,2,2,0,0,1-.35-1.13h1.17a1.2,1.2,0,0,0,.46.93,2.15,2.15,0,0,0,2.22.08A.81.81,0,0,0,370.43,163.74Zm6.67,0a.84.84,0,0,0-.36-.73,3.45,3.45,0,0,0-1.25-.46,6,6,0,0,1-1.41-.45,2.16,2.16,0,0,1-.77-.63,1.58,1.58,0,0,1-.24-.87,1.76,1.76,0,0,1,.7-1.42,3.2,3.2,0,0,1,3.7,0,1.87,1.87,0,0,1,.73,1.53H377a1.07,1.07,0,0,0-.41-.83,1.53,1.53,0,0,0-1-.35,1.6,1.6,0,0,0-1,.28.89.89,0,0,0-.36.73.73.73,0,0,0,.33.64,4.21,4.21,0,0,0,1.21.41,6.58,6.58,0,0,1,1.42.46,2,2,0,0,1,.8.66,1.62,1.62,0,0,1,.26.93,1.75,1.75,0,0,1-.73,1.47,3.12,3.12,0,0,1-1.9.55,3.47,3.47,0,0,1-1.45-.29,2.49,2.49,0,0,1-1-.81,2,2,0,0,1-.36-1.13H374a1.21,1.21,0,0,0,.47.93,1.82,1.82,0,0,0,1.16.35,1.85,1.85,0,0,0,1.06-.27A.83.83,0,0,0,377.1,163.74Zm5.52,1.94a3,3,0,0,1-2.26-.91,3.41,3.41,0,0,1-.87-2.44v-.22a4.18,4.18,0,0,1,.38-1.81,3,3,0,0,1,1.09-1.25,2.75,2.75,0,0,1,1.51-.45,2.56,2.56,0,0,1,2.07.87,3.79,3.79,0,0,1,.74,2.52v.48h-4.62a2.46,2.46,0,0,0,.58,1.64,1.88,1.88,0,0,0,1.44.62,2,2,0,0,0,1.05-.26,2.52,2.52,0,0,0,.75-.67l.72.56A2.89,2.89,0,0,1,382.62,165.68Zm-.15-6.13a1.56,1.56,0,0,0-1.18.52,2.51,2.51,0,0,0-.6,1.44h3.42v-.09a2.2,2.2,0,0,0-.47-1.37A1.48,1.48,0,0,0,382.47,159.55Zm5.27-.83,0,.76a2.52,2.52,0,0,1,2-.88,2,2,0,0,1,1.95,1.09,2.58,2.58,0,0,1,.88-.79,2.67,2.67,0,0,1,1.29-.3c1.5,0,2.26.79,2.29,2.38v4.57H395V161a1.58,1.58,0,0,0-.33-1.09A1.62,1.62,0,0,0,392,161v4.53h-1.18v-4.47a1.3,1.3,0,0,0-1.46-1.49,1.55,1.55,0,0,0-1.57,1v5h-1.17v-6.83Zm16,3.49a4.05,4.05,0,0,1-.72,2.52,2.3,2.3,0,0,1-1.93,1,2.38,2.38,0,0,1-2-.92l-.06.79H398v-9.7h1.17v3.62a2.37,2.37,0,0,1,2-.87,2.31,2.31,0,0,1,1.95.94,4.17,4.17,0,0,1,.71,2.57Zm-1.17-.13a3.11,3.11,0,0,0-.46-1.84,1.51,1.51,0,0,0-1.32-.65,1.7,1.7,0,0,0-1.66,1.07v3a1.75,1.75,0,0,0,1.67,1.08,1.51,1.51,0,0,0,1.3-.65A3.32,3.32,0,0,0,402.59,162.08Zm4.81,1.76,1.59-5.12h1.25l-2.75,7.89c-.42,1.13-1.1,1.7-2,1.7l-.22,0-.43-.08v-1l.31,0a1.56,1.56,0,0,0,.93-.24,1.78,1.78,0,0,0,.55-.88l.25-.69-2.43-6.76h1.27Zm12.35-.69H415.9l-.86,2.4h-1.25l3.5-9.19h1.07l3.51,9.19h-1.24Zm-3.48-1h3.12l-1.56-4.29Zm6.37-.07a4,4,0,0,1,.75-2.53,2.33,2.33,0,0,1,1.95-1,2.36,2.36,0,0,1,1.9.82v-3.57h1.16v9.7h-1.07l-.06-.73a2.52,2.52,0,0,1-3.88-.11,4.06,4.06,0,0,1-.75-2.54Zm1.17.13a3,3,0,0,0,.48,1.82,1.54,1.54,0,0,0,1.32.66,1.71,1.71,0,0,0,1.63-1v-3.14a1.72,1.72,0,0,0-1.61-1,1.55,1.55,0,0,0-1.34.66A3.33,3.33,0,0,0,423.81,162.21Zm10.39,1.53a.84.84,0,0,0-.36-.73,3.38,3.38,0,0,0-1.24-.46,6,6,0,0,1-1.41-.45,2.08,2.08,0,0,1-.77-.63,1.51,1.51,0,0,1-.25-.87,1.77,1.77,0,0,1,.71-1.42,3.2,3.2,0,0,1,3.7,0,1.89,1.89,0,0,1,.72,1.53h-1.17a1.07,1.07,0,0,0-.41-.83,1.52,1.52,0,0,0-1-.35,1.63,1.63,0,0,0-1,.28.89.89,0,0,0-.36.73.73.73,0,0,0,.33.64,4.33,4.33,0,0,0,1.21.41,6.4,6.4,0,0,1,1.42.46,2,2,0,0,1,.8.66,1.55,1.55,0,0,1,.27.93,1.77,1.77,0,0,1-.73,1.47,3.16,3.16,0,0,1-1.91.55,3.51,3.51,0,0,1-1.45-.29,2.49,2.49,0,0,1-1-.81,2,2,0,0,1-.35-1.13h1.17a1.2,1.2,0,0,0,.46.93,1.86,1.86,0,0,0,1.16.35,1.88,1.88,0,0,0,1.07-.27A.82.82,0,0,0,434.2,163.74Z" transform="translate(0 -52)"/><rect class="cls-10" x="330.03" y="84.77" width="7.75" height="7.75" rx="1.29"/><rect class="cls-10" x="343.8" y="105.42" width="7.75" height="7.75" rx="1.29"/><path d="M346,184.76l3,7.5,3-7.5h1.57V194h-1.21v-3.58l.11-3.86-3,7.44h-.92l-3-7.42.12,3.84V194h-1.21v-9.19ZM359.75,194a2.59,2.59,0,0,1-.16-.72,2.59,2.59,0,0,1-1.95.85,2.44,2.44,0,0,1-1.66-.57,1.85,1.85,0,0,1-.64-1.45,1.93,1.93,0,0,1,.81-1.66,3.84,3.84,0,0,1,2.28-.59h1.14v-.54a1.29,1.29,0,0,0-.37-1,1.47,1.47,0,0,0-1.08-.36,1.69,1.69,0,0,0-1,.31.92.92,0,0,0-.43.76h-1.17a1.61,1.61,0,0,1,.36-1,2.51,2.51,0,0,1,1-.76,3.46,3.46,0,0,1,1.37-.28,2.66,2.66,0,0,1,1.85.6,2.11,2.11,0,0,1,.7,1.62v3.14a3.85,3.85,0,0,0,.24,1.5v.1Zm-1.93-.89a2.06,2.06,0,0,0,1-.28,1.8,1.8,0,0,0,.71-.74v-1.4h-.92c-1.43,0-2.14.42-2.14,1.25a1.06,1.06,0,0,0,.36.86A1.41,1.41,0,0,0,357.82,193.06Zm6,.89h-1.17v-6.83h1.17Zm-1.26-8.64a.71.71,0,0,1,.16-.48.69.69,0,0,1,.52-.2.67.67,0,0,1,.52.2.68.68,0,0,1,.18.48.64.64,0,0,1-.18.47.67.67,0,0,1-.52.19.68.68,0,0,1-.52-.19A.67.67,0,0,1,362.58,185.31Zm4.24,1.81,0,.86a2.47,2.47,0,0,1,2-1c1.44,0,2.17.82,2.18,2.45V194h-1.16v-4.52a1.59,1.59,0,0,0-.34-1.09,1.34,1.34,0,0,0-1-.35,1.69,1.69,0,0,0-1,.3,2.06,2.06,0,0,0-.67.79V194h-1.17v-6.83Zm7.61-1.65v1.65h1.27v.9h-1.27v4.24a1,1,0,0,0,.17.62.74.74,0,0,0,.58.2,3.82,3.82,0,0,0,.56-.07V194a3.21,3.21,0,0,1-.9.13,1.44,1.44,0,0,1-1.18-.48,2,2,0,0,1-.4-1.34V188H372v-.9h1.24v-1.65Zm5.48,8.61a3,3,0,0,1-2.26-.91,3.41,3.41,0,0,1-.87-2.44v-.22a4.18,4.18,0,0,1,.38-1.81,3,3,0,0,1,1.09-1.25,2.76,2.76,0,0,1,1.51-.46,2.57,2.57,0,0,1,2.07.88,3.76,3.76,0,0,1,.74,2.51v.49H378a2.46,2.46,0,0,0,.58,1.64,1.87,1.87,0,0,0,1.44.61,2,2,0,0,0,1-.25,2.52,2.52,0,0,0,.75-.67l.71.56A2.86,2.86,0,0,1,379.91,194.08Zm-.15-6.12a1.55,1.55,0,0,0-1.18.51,2.51,2.51,0,0,0-.6,1.44h3.42v-.09a2.2,2.2,0,0,0-.47-1.37A1.48,1.48,0,0,0,379.76,188Zm5.28-.84,0,.86a2.51,2.51,0,0,1,2.05-1c1.44,0,2.17.82,2.18,2.45V194h-1.16v-4.52a1.55,1.55,0,0,0-.35-1.09,1.3,1.3,0,0,0-1-.35,1.69,1.69,0,0,0-1,.3,2.06,2.06,0,0,0-.67.79V194h-1.17v-6.83ZM395.28,194a2.26,2.26,0,0,1-.16-.72,2.62,2.62,0,0,1-1.95.85,2.44,2.44,0,0,1-1.66-.57,1.85,1.85,0,0,1-.64-1.45,1.93,1.93,0,0,1,.81-1.66,3.84,3.84,0,0,1,2.28-.59h1.14v-.54a1.29,1.29,0,0,0-.37-1,1.47,1.47,0,0,0-1.08-.36,1.72,1.72,0,0,0-1,.31.94.94,0,0,0-.42.76H391a1.61,1.61,0,0,1,.36-1,2.51,2.51,0,0,1,1-.76,3.46,3.46,0,0,1,1.37-.28,2.67,2.67,0,0,1,1.85.6,2.11,2.11,0,0,1,.7,1.62v3.14a3.85,3.85,0,0,0,.24,1.5v.1Zm-1.94-.89a2,2,0,0,0,1-.28,1.76,1.76,0,0,0,.72-.74v-1.4h-.92c-1.43,0-2.14.42-2.14,1.25a1.06,1.06,0,0,0,.36.86A1.4,1.4,0,0,0,393.34,193.06Zm5.86-5.94,0,.86a2.47,2.47,0,0,1,2-1c1.45,0,2.18.82,2.19,2.45V194H402.3v-4.52a1.55,1.55,0,0,0-.34-1.09,1.33,1.33,0,0,0-1-.35,1.71,1.71,0,0,0-1,.3,2.15,2.15,0,0,0-.67.79V194H398.1v-6.83Zm8.77,6a1.67,1.67,0,0,0,1.09-.37,1.35,1.35,0,0,0,.52-.95h1.1a2.12,2.12,0,0,1-.4,1.12,2.66,2.66,0,0,1-1,.84,2.85,2.85,0,0,1-1.31.32,2.82,2.82,0,0,1-2.22-.93,3.71,3.71,0,0,1-.82-2.55v-.2a4.18,4.18,0,0,1,.36-1.77,2.89,2.89,0,0,1,1-1.21A3.06,3.06,0,0,1,408,187a2.73,2.73,0,0,1,1.91.69,2.45,2.45,0,0,1,.81,1.79h-1.1a1.58,1.58,0,0,0-.51-1.09A1.57,1.57,0,0,0,408,188a1.64,1.64,0,0,0-1.38.64,3,3,0,0,0-.49,1.85v.22a3,3,0,0,0,.49,1.82A1.65,1.65,0,0,0,408,193.12Zm6.86,1a3,3,0,0,1-2.26-.91,3.41,3.41,0,0,1-.87-2.44v-.22a4.18,4.18,0,0,1,.38-1.81,3.1,3.1,0,0,1,1.09-1.25,2.77,2.77,0,0,1,1.52-.46,2.6,2.6,0,0,1,2.07.88,3.81,3.81,0,0,1,.73,2.51v.49h-4.62a2.51,2.51,0,0,0,.58,1.64,1.87,1.87,0,0,0,1.44.61,2,2,0,0,0,1.05-.25,2.52,2.52,0,0,0,.75-.67l.72.56A2.88,2.88,0,0,1,414.83,194.08Zm-.14-6.12a1.56,1.56,0,0,0-1.19.51,2.44,2.44,0,0,0-.59,1.44h3.42v-.09a2.27,2.27,0,0,0-.48-1.37A1.47,1.47,0,0,0,414.69,188Z" transform="translate(0 -52)"/><path d="M363.28,212.21h-3.85l-.87,2.4h-1.25l3.51-9.2h1.06l3.52,9.2h-1.25Zm-3.49-1h3.13l-1.57-4.3Zm6.38-.08a4,4,0,0,1,.74-2.52,2.53,2.53,0,0,1,3.85-.14v-3.56h1.17v9.7h-1.07l-.06-.74a2.36,2.36,0,0,1-1.95.86,2.34,2.34,0,0,1-1.94-1,4.1,4.1,0,0,1-.74-2.54Zm1.17.14a3,3,0,0,0,.48,1.82,1.56,1.56,0,0,0,1.32.65,1.69,1.69,0,0,0,1.62-1v-3.13a1.7,1.7,0,0,0-1.61-1,1.55,1.55,0,0,0-1.33.66A3.35,3.35,0,0,0,367.34,211.27Zm6.13-.14a4,4,0,0,1,.74-2.52,2.53,2.53,0,0,1,3.85-.14v-3.56h1.17v9.7h-1.07l-.06-.74a2.36,2.36,0,0,1-2,.86,2.34,2.34,0,0,1-1.94-1,4,4,0,0,1-.74-2.54Zm1.16.14a3,3,0,0,0,.48,1.82,1.58,1.58,0,0,0,1.33.65,1.69,1.69,0,0,0,1.62-1v-3.13a1.72,1.72,0,0,0-1.61-1,1.57,1.57,0,0,0-1.34.66A3.35,3.35,0,0,0,374.63,211.27Zm7.69,3.34h-1.17v-6.83h1.17ZM381.05,206a.74.74,0,0,1,.17-.48.81.81,0,0,1,1,0,.7.7,0,0,1,.18.48.68.68,0,0,1-.18.48.81.81,0,0,1-1,0A.72.72,0,0,1,381.05,206Zm4.72.16v1.66h1.28v.9h-1.28v4.23a.92.92,0,0,0,.18.62.69.69,0,0,0,.58.21,2.88,2.88,0,0,0,.55-.08v1a3.52,3.52,0,0,1-.89.12,1.45,1.45,0,0,1-1.18-.47,2,2,0,0,1-.4-1.35v-4.23h-1.25v-.9h1.25v-1.66Zm2.21,5a4,4,0,0,1,.4-1.81,2.93,2.93,0,0,1,1.1-1.23,2.89,2.89,0,0,1,1.6-.44,2.86,2.86,0,0,1,2.26,1,3.72,3.72,0,0,1,.86,2.56v.09a4.16,4.16,0,0,1-.38,1.79,2.84,2.84,0,0,1-1.09,1.23,3,3,0,0,1-1.63.44,2.9,2.9,0,0,1-2.26-1,3.74,3.74,0,0,1-.86-2.56Zm1.18.14a2.93,2.93,0,0,0,.52,1.82,1.71,1.71,0,0,0,1.42.69,1.68,1.68,0,0,0,1.41-.69,3.24,3.24,0,0,0,.53-2,2.88,2.88,0,0,0-.54-1.82,1.69,1.69,0,0,0-1.42-.7,1.67,1.67,0,0,0-1.39.69A3.19,3.19,0,0,0,389.16,211.27Zm7.61-3.49,0,.85a2.5,2.5,0,0,1,2.05-1c1.44,0,2.17.81,2.18,2.44v4.52h-1.17v-4.52a1.57,1.57,0,0,0-.34-1.1,1.36,1.36,0,0,0-1-.35,1.71,1.71,0,0,0-1,.3,2.18,2.18,0,0,0-.67.8v4.87h-1.16v-6.83ZM407,214.61a2.35,2.35,0,0,1-.17-.72,2.61,2.61,0,0,1-1.94.84,2.43,2.43,0,0,1-1.66-.57,1.84,1.84,0,0,1-.64-1.45,1.91,1.91,0,0,1,.8-1.65,3.82,3.82,0,0,1,2.29-.6h1.13v-.53a1.31,1.31,0,0,0-.36-1,1.46,1.46,0,0,0-1.08-.37,1.7,1.7,0,0,0-1.05.32.92.92,0,0,0-.42.76h-1.18a1.63,1.63,0,0,1,.36-1,2.6,2.6,0,0,1,1-.75,3.26,3.26,0,0,1,1.37-.28,2.74,2.74,0,0,1,1.85.59,2.16,2.16,0,0,1,.69,1.63V213a3.89,3.89,0,0,0,.24,1.5v.1Zm-1.94-.89a2,2,0,0,0,1-.29,1.63,1.63,0,0,0,.71-.74v-1.4h-.91c-1.43,0-2.15.42-2.15,1.26a1.06,1.06,0,0,0,.37.86A1.44,1.44,0,0,0,405.08,213.72Zm6,.89h-1.17v-9.7h1.17Zm10.34-2.4h-3.85l-.86,2.4h-1.25l3.51-9.2h1.06l3.51,9.2h-1.24Zm-3.48-1h3.12l-1.56-4.3Zm10.63,1.58a.86.86,0,0,0-.36-.73,3.17,3.17,0,0,0-1.24-.45,6,6,0,0,1-1.41-.46,2,2,0,0,1-.77-.63,1.53,1.53,0,0,1-.24-.87,1.77,1.77,0,0,1,.7-1.42,2.8,2.8,0,0,1,1.82-.58,2.83,2.83,0,0,1,1.88.6,1.88,1.88,0,0,1,.73,1.53h-1.18a1,1,0,0,0-.41-.82,1.5,1.5,0,0,0-1-.35,1.58,1.58,0,0,0-1,.28.86.86,0,0,0-.36.72.71.71,0,0,0,.34.64,4.11,4.11,0,0,0,1.2.41,6.46,6.46,0,0,1,1.43.47,2.13,2.13,0,0,1,.8.65,1.66,1.66,0,0,1,.26.93,1.75,1.75,0,0,1-.73,1.47,3.06,3.06,0,0,1-1.9.55,3.32,3.32,0,0,1-1.45-.29,2.34,2.34,0,0,1-1-.81,1.92,1.92,0,0,1-.36-1.13h1.17a1.22,1.22,0,0,0,.47.94,2.18,2.18,0,0,0,2.22.07A.82.82,0,0,0,428.59,212.79Zm6.67,0a.86.86,0,0,0-.36-.73,3.17,3.17,0,0,0-1.24-.45,6,6,0,0,1-1.41-.46,1.9,1.9,0,0,1-.77-.63,1.54,1.54,0,0,1-.25-.87,1.78,1.78,0,0,1,.71-1.42,2.78,2.78,0,0,1,1.82-.58,2.85,2.85,0,0,1,1.88.6,1.9,1.9,0,0,1,.72,1.53h-1.17a1,1,0,0,0-.41-.82,1.52,1.52,0,0,0-1-.35,1.57,1.57,0,0,0-1,.28.86.86,0,0,0-.36.72.7.7,0,0,0,.33.64,4.33,4.33,0,0,0,1.21.41,6.19,6.19,0,0,1,1.42.47,2.06,2.06,0,0,1,.8.65,1.59,1.59,0,0,1,.27.93,1.77,1.77,0,0,1-.73,1.47,3.08,3.08,0,0,1-1.9.55,3.4,3.4,0,0,1-1.46-.29,2.34,2.34,0,0,1-1-.81,2,2,0,0,1-.35-1.13h1.17a1.21,1.21,0,0,0,.46.94,1.93,1.93,0,0,0,1.17.34,1.87,1.87,0,0,0,1.06-.27A.82.82,0,0,0,435.26,212.79Zm5.52,1.94a3,3,0,0,1-2.26-.91,3.39,3.39,0,0,1-.87-2.44v-.21a4.09,4.09,0,0,1,.39-1.82,3.07,3.07,0,0,1,1.08-1.25,2.78,2.78,0,0,1,1.52-.45,2.54,2.54,0,0,1,2.07.88,3.8,3.8,0,0,1,.74,2.51v.48h-4.63a2.45,2.45,0,0,0,.59,1.64,1.88,1.88,0,0,0,1.44.62,2,2,0,0,0,1-.25,2.84,2.84,0,0,0,.76-.67l.71.55A2.87,2.87,0,0,1,440.78,214.73Zm-.14-6.12a1.55,1.55,0,0,0-1.19.52,2.44,2.44,0,0,0-.59,1.44h3.42v-.09a2.18,2.18,0,0,0-.48-1.38A1.45,1.45,0,0,0,440.64,208.61Zm5.26-.83,0,.75a2.54,2.54,0,0,1,2-.88,2,2,0,0,1,2,1.1,2.54,2.54,0,0,1,.89-.8,2.62,2.62,0,0,1,1.29-.3c1.5,0,2.26.79,2.29,2.38v4.58h-1.17V210.1a1.52,1.52,0,0,0-.34-1.09,1.44,1.44,0,0,0-1.12-.37,1.56,1.56,0,0,0-1.08.39,1.58,1.58,0,0,0-.5,1v4.54H449v-4.48a1.31,1.31,0,0,0-1.46-1.49,1.56,1.56,0,0,0-1.57,1v5H444.8v-6.83Zm16,3.49a4.09,4.09,0,0,1-.72,2.52,2.28,2.28,0,0,1-1.93.94,2.38,2.38,0,0,1-2-.91l0,.79h-1.08v-9.7h1.17v3.62a2.35,2.35,0,0,1,1.95-.88,2.29,2.29,0,0,1,1.95.94,4.16,4.16,0,0,1,.71,2.58Zm-1.16-.14a3.2,3.2,0,0,0-.46-1.84,1.54,1.54,0,0,0-1.33-.65,1.72,1.72,0,0,0-1.66,1.07v3a1.77,1.77,0,0,0,1.67,1.07,1.53,1.53,0,0,0,1.31-.65A3.35,3.35,0,0,0,460.76,211.13Zm3.91,3.48H463.5v-9.7h1.17Zm4.11-1.71,1.59-5.12h1.25l-2.74,7.88c-.43,1.14-1.11,1.71-2,1.71l-.22,0-.44-.09v-.94l.32,0a1.55,1.55,0,0,0,.92-.24,1.72,1.72,0,0,0,.55-.87l.26-.7-2.44-6.75h1.28Z" transform="translate(0 -52)"/><rect class="cls-10" x="330.03" y="133.82" width="7.75" height="7.75" rx="1.29"/><rect class="cls-10" x="343.8" y="154.48" width="7.75" height="7.75" rx="1.29"/><rect class="cls-10" x="343.8" y="175.99" width="7.75" height="7.75" rx="1.29"/><rect class="cls-5" x="357.14" y="175.56" width="117.04" height="8.61" rx="1.72"/><rect class="cls-10" x="343.8" y="243.98" width="7.75" height="7.75" rx="1.29"/><rect class="cls-5" x="357.14" y="243.55" width="117.04" height="8.61" rx="1.72"/><rect class="cls-10" x="343.8" y="193.21" width="7.75" height="7.75" rx="1.29"/><rect class="cls-5" x="357.14" y="192.78" width="117.04" height="8.61" rx="1.72"/><rect class="cls-10" x="343.8" y="261.19" width="7.75" height="7.75" rx="1.29"/><rect class="cls-5" x="357.14" y="260.76" width="117.04" height="8.61" rx="1.72"/><rect class="cls-10" x="343.8" y="210.42" width="7.75" height="7.75" rx="1.29"/><rect class="cls-5" x="357.14" y="209.99" width="117.04" height="8.61" rx="1.72"/><rect class="cls-10" x="330.03" y="228.49" width="7.75" height="7.75" rx="1.29"/><rect class="cls-11" x="343.36" y="228.06" width="117.04" height="8.61" rx="1.72"/><rect class="cls-6" x="503.44" y="14.63" width="19.79" height="19.79" rx="3.44"/><path class="cls-12" d="M64.6,227.66a2.13,2.13,0,0,0-2-.6c-1,.3-2,.9-2.6,3.5-.1.6,1.5-.2,2-.4s.7-1,1-1.3a.71.71,0,0,1,.6-.3,2.72,2.72,0,0,0,.9,0C64.9,228.46,64.9,228,64.6,227.66Z" transform="translate(0 -52)"/><path class="cls-13" d="M34.28,273.71c.3.78.6,1.47.91,2.35,2.23,5.39,4.86,11.76,5.16,15.09.51,6.18,3.45,21.07,3.45,28.33,0,5.88,1.72,9.9,1.52,11.27l-1.73,1,7.4-4.41c2.12-8.53,4.15-26.66,4.15-36s-.81-24.8-4.36-32.15c-3.34-7-16.81,5.69-18.33,7.45C32,267.14,32.86,270.08,34.28,273.71Z" transform="translate(0 -52)"/><path class="cls-12" d="M44.81,239.21a18.78,18.78,0,0,0,.1,3.14,12.82,12.82,0,0,0,2.53,6c2.13,2.85,6.08,5.3,12.86,6.28,4.46.58,6.79-4.61,7.6-11.57a61.75,61.75,0,0,0,.2-10.58c-.1-1.18-3,.88-3,.88-1.52.29-4.05,12-5.57,11.27-.5-.29-1.62-2.25-3.14-4.8-.3-.39-.5-.88-.81-1.37-3-5.2-7.29-11.86-10.63-13.43C41.57,223.63,44.81,239.21,44.81,239.21Z" transform="translate(0 -52)"/><path class="cls-14" d="M47.54,248.32c2.13,2.85,6.08,5.3,12.86,6.28,4.46.58,6.79-4.61,7.6-11.57-.1,0-.2.1-.31.1-1.41.59-2.33,3.43-3,4.71-1.52,2.84-3,4.9-6.89,3.62-1.32-.39-3.34-1-3.55-2.64-.1-1.08.71-2.75,1-3.83a24.07,24.07,0,0,0,1.11-5.19c-.3-.39-.5-.88-.81-1.37a9.77,9.77,0,0,0-3.64,2.74,20.26,20.26,0,0,0-1.42,2.65c-.51.78-1.32,1.37-1.93,2.15A4.32,4.32,0,0,0,47.54,248.32Z" transform="translate(0 -52)"/><path class="cls-15" d="M34.28,273.71c.3.78.6,1.47.91,2.35,2.22,5.39,4.86,11.76,5.16,15.09.51,6.18,2.94,37.15,3.44,39.21,1,.58,4.26.49,4.36,0,.4-5.2-2-10.2-2.63-15.29-1.22-9.8,2.33-20.09-2-29.4-1.21-2.65-3.14-5.3-2.94-8.34.11-1.47,1.12-3.13.21-4.6-1.52-2.55-4.46-.79-5.88.88a.45.45,0,0,0-.5,0C34.38,273.71,34.38,273.71,34.28,273.71Z" transform="translate(0 -52)"/><path class="cls-16" d="M44.91,239.21a18.79,18.79,0,0,0,.1,3.14,14,14,0,0,0,3.45,7.44c2.22,2.45,10-9.6,7.79-12.64-3.44-4.6-7.9-10.48-11.24-12.05S44.91,239.21,44.91,239.21Z" transform="translate(0 -52)"/><path class="cls-13" d="M5.51,325.26l7.5,2c8-5.88,20.25-20.39,21.26-29.6,1.73-14.41,2.13-29,2.23-32.83v-1a13.25,13.25,0,0,0-1.11-1.18c-3.44-3.52-7.39-5.58-9.93-5.88a3,3,0,0,0-1.41.1,1.57,1.57,0,0,0-.81.59,29.4,29.4,0,0,0-2.64,5c-4.45,10.19-.71,16.36-.81,29.6,0,6.17,1.32,11.56-5,20.87-2.43,3.63-5.67,7.64-6.89,10.78C7.54,325.06,5.51,325.26,5.51,325.26Z" transform="translate(0 -52)"/><path class="cls-11" d="M45.41,225.39a5.79,5.79,0,0,1,2.74,4.41c.51,3.33,1.21,12.45.3,15.78L47.54,249l-4-1.27a40.8,40.8,0,0,1,.3-5.69C44.1,241.37,45.41,225.39,45.41,225.39Z" transform="translate(0 -52)"/><path class="cls-16" d="M19.49,248.13c.2,7.25.91,13.92,1.42,15.09s8.81,1.86,16.1.79,13.57-3.83,13.87-4.81c-.6-3.52-3.64-8.13-4-13a65.76,65.76,0,0,1,.41-6.76c.51-5.88,1-12.84-2.33-14.21-.2-.1-.51-.2-.71-.3a17,17,0,0,0-2.94-.88,22.15,22.15,0,0,0-10.53.2,22.9,22.9,0,0,0-5.26,2A18.43,18.43,0,0,0,23,227.65a13,13,0,0,0-1.31.88C19.49,230.1,19.19,239.51,19.49,248.13Z" transform="translate(0 -52)"/><path class="cls-12" d="M38.43,220.39v3.14s.81,1.37,0,1.47c-1.72.29-4.15-1.47-4.15-1.47v-4.8Z" transform="translate(0 -52)"/><path class="cls-14" d="M34.28,221.08v-2.16s2.12,2.55,4.15,2.75A6.49,6.49,0,0,1,34.28,221.08Z" transform="translate(0 -52)"/><path class="cls-12" d="M39.44,212.36a21.44,21.44,0,0,1,1.93,5.78c.3,2-3.45,4.61-6.49,1.76s-2.22-7.05-2.22-7.05Z" transform="translate(0 -52)"/><path class="cls-13" d="M19.49,248.13a100.21,100.21,0,0,0,1.22,14.41,5.88,5.88,0,0,0,.2.68c.3.59,2,.3,4.25.69a.63.63,0,0,1,.41.1c1.11.19,5.26-.4,9.92-1.18,7.09-1.28,15.19-3,15.39-3.63-.6-3.52-3.64-8.13-4-13a65.76,65.76,0,0,1,.41-6.76l-.1-.4a11.15,11.15,0,0,1-1.32-2.94c-.3-1.56-.3-7.84-1.62-11.07a16.18,16.18,0,0,0-2.94-.88,54.25,54.25,0,0,1,.81,11.56.67.67,0,0,1-.6.69c-1,.1-3,.39-4.46.39a.77.77,0,0,1-.71-.49c-.71-2.06-3.54-10.49-5.57-12a27.19,27.19,0,0,0-2.93,1c-.31.1-.71.3-1,.4-.5.19-.91.39-1.31.58,0,0,5.77,7.16,4.86,12.25C29.52,243.13,20.4,247.64,19.49,248.13Z" transform="translate(0 -52)"/><path class="cls-15" d="M7.13,324.57a5.2,5.2,0,0,0,2,.39c1.72,0,1.52-3.52,2.23-4.8a94.25,94.25,0,0,1,9-12.74c1.42-1.66,3.14-3.33,4.05-5.39a19.58,19.58,0,0,0,1.32-6.76c.4-5.29-.91-10.29-1.42-15.58a63,63,0,0,1,.1-9.71,22.21,22.21,0,0,0,.61-6.27,42.11,42.11,0,0,0-1-6.86,3.4,3.4,0,0,1-.21-1.08c-.81-3.23-.4-5.88,2-8.23,1.32-1.27,2.94-2.25,4.15-3.63,5.37-5.87,1.72-13.72-3.34-18.52-.51.2-.91.39-1.32.59,0,0,5.78,7.15,4.86,12.25-.81,4.7-9.92,9.31-10.83,9.8a102.16,102.16,0,0,0,1.21,14.41c-4.45,10.19-.7,16.36-.81,29.6,0,6.17.92,10.09-5,19.5C10,319.67,9.57,321.54,7.13,324.57Z" transform="translate(0 -52)"/><path class="cls-17" d="M44.91,239.21s-6,2-9.72,1c0,0,.91,6.66,6.18,5.88S44.91,239.21,44.91,239.21Z" transform="translate(0 -52)"/><path class="cls-15" d="M50.58,257.93a5.59,5.59,0,0,1,.61,3.43s-7.9,6.57-31.3,2.74c0,0,0-2.64.61-3.23C20.5,260.87,36,263.12,50.58,257.93Z" transform="translate(0 -52)"/><path class="cls-18" d="M37,261.16a17.43,17.43,0,0,0,.51,2.55,5.49,5.49,0,0,0,.4,1.37,1,1,0,0,0,.91.3,11,11,0,0,0,2.43-.49c1-.2,2-.2,2.13-1.28a8.36,8.36,0,0,0-.61-3.53c-.1-.39-.5-.39-.81-.39a20.52,20.52,0,0,0-4.45.89C37.11,260.67,37,260.87,37,261.16Zm1.11.3a24.9,24.9,0,0,1,3.75-.69,7.53,7.53,0,0,1,.41,2.06c.1.69.1.88-.61,1.08a5.16,5.16,0,0,1-1.22.19,9,9,0,0,1-1.41.3c-.51-.1-.51-.59-.61-1.08S38.22,262.05,38.12,261.46Z" transform="translate(0 -52)"/><path class="cls-19" d="M38.12,261.46a10.35,10.35,0,0,0,.41,1.86c.1.39.1.88.61,1.08a3.58,3.58,0,0,0,1.41-.3c.41-.09.81-.09,1.22-.19.71-.2.61-.39.61-1.08a15,15,0,0,0-.41-2.06A16,16,0,0,0,38.12,261.46Z" transform="translate(0 -52)"/><path class="cls-20" d="M21.52,228.53a49.42,49.42,0,0,1,5,3.92c.5-1.28.1-4.51-2.13-5.78C23.64,227.06,21.92,228.23,21.52,228.53Z" transform="translate(0 -52)"/><path class="cls-12" d="M10.88,263c7.7,1.66,17.32-2,22.18-4.22,1.92-.88,3.14-1.57,3.14-1.57.1-.29.91-3.82.91-3.82-.4-.1-12.76,1.67-18.73,1.28a7.76,7.76,0,0,1-2.84-.59c-.71-.4,2.13-6.18,4.25-8.14.91-.88,1.93-1.76,2.74-2.45a12.23,12.23,0,0,0,4-6.66,12.32,12.32,0,0,0-.51-6.27,3.81,3.81,0,0,0-5.87-1.47,64.12,64.12,0,0,0-10.43,10,.1.1,0,0,0-.1.1C3.69,246.07,3.39,261.36,10.88,263Z" transform="translate(0 -52)"/><path class="cls-21" d="M.55,328.49a1.18,1.18,0,0,1-.5-.49c-.21-.58.3-1.08.81-1.47,2.22-1.76,5.06-3.53,6.27-6.07a22.94,22.94,0,0,0,7.8,7.25,6.62,6.62,0,0,1-3.64,1.47c3.85,3.43,2.93,6.56,2.12,8.13C13.51,337.31,4.6,331.53.55,328.49Z" transform="translate(0 -52)"/><path class="cls-21" d="M42.62,337c-.2,0-.51,0-.7-.11-.46-.27-.33-1.05-.13-1.61.77-2.66.36-5.61-.08-8.36a28,28,0,0,0,11.49-.52,14.73,14.73,0,0,1-3,5.67,13.35,13.35,0,0,1,5.1,1.33,5.92,5.92,0,0,1,3.21,4C58.49,337.26,47.72,337.2,42.62,337Z" transform="translate(0 -52)"/><path class="cls-19" d="M31.85,216.08a.67.67,0,0,0-.11-.29,2,2,0,0,1,.41-2.06.63.63,0,0,1,.71-.1c.91-.1.91,1,1,1.47.2,1,.81,2.06.51,3a1.2,1.2,0,0,1-1.52.88c-.81-.19-.71-1-1-1.57a1.29,1.29,0,0,1-.21-1.07C31.74,216.28,31.85,216.18,31.85,216.08Z" transform="translate(0 -52)"/><path class="cls-22" d="M40.56,212.65s-1.32-4.21-5.07-3.63-3.64,4.71-3.64,4.71,4.35.68,7-.1A3.36,3.36,0,0,0,40.56,212.65Z" transform="translate(0 -52)"/><path class="cls-23" d="M38.83,213.63a6.89,6.89,0,0,0-1.11-4.21,1.53,1.53,0,0,0-1.21-.69c-.92-.1-2.33,0-2.84,1.08,0,0,2.73,2.55,2.73,4.31C36.4,214.12,38.33,214.51,38.83,213.63Z" transform="translate(0 -52)"/><path class="cls-24" d="M31.85,213.73s6.58.68,8.71-1.08l-.11-.29s-1.21.88-8.6,1.07Z" transform="translate(0 -52)"/><path class="cls-22" d="M31.85,213.83a.32.32,0,0,0,.3.29,15.19,15.19,0,0,0,4.15.78c3.44.3,5.77-.58,5.77-1.17s-1.51-1.18-1.51-1.18S39.54,213.73,31.85,213.83Z" transform="translate(0 -52)"/><path class="cls-11" d="M26.68,234.31s.4,5-2.84,8-4.45,4.11-4.45,4.11l.1,1.67s4.86-3.23,6.07-5.49A11,11,0,0,0,26.68,234.31Z" transform="translate(0 -52)"/><path class="cls-25" d="M29.62,268.71A1.62,1.62,0,0,1,27.69,267l44.77-45.18,1.92,1.76Z" transform="translate(0 -52)"/><path class="cls-26" d="M71.74,225.88l-1.51-1.37a1.5,1.5,0,0,1,0-2.16l4.55-4.6a1.63,1.63,0,0,1,2.23,0l1.52,1.37a1.5,1.5,0,0,1,0,2.16L74,225.88A1.74,1.74,0,0,1,71.74,225.88Z" transform="translate(0 -52)"/><path class="cls-26" d="M92.61,216.08,79.44,203.93,75,208.44l13.06,12.15c.61.49,2,0,3.24-1.27S93.12,216.57,92.61,216.08Z" transform="translate(0 -52)"/><path class="cls-20" d="M75,208.48c.56.52,2-.07,3.26-1.32s1.79-2.69,1.22-3.21-2,.06-3.26,1.31S74.46,208,75,208.48Z" transform="translate(0 -52)"/><path class="cls-25" d="M78.23,218.82l-.91-.88,1.11-1.07a.47.47,0,0,0,0-.69L70.73,209a1.05,1.05,0,0,1,0-1.47l3.65-3.62a1.13,1.13,0,0,1,1.52,0l2,1.86a.89.89,0,0,1-.91.88l-1.42-1.37a.48.48,0,0,0-.7,0L72.25,208a.46.46,0,0,0,0,.68l7.7,7.16a1.05,1.05,0,0,1,0,1.47Z" transform="translate(0 -52)"/><path class="cls-12" d="M35.69,257c.41.59.91.2,1.52.29s2.74,1.57,3.55,1.28c1.11-.49-1.32-1.08-.81-1.57.2-.2,3.54,1.27,2.63-.2-.2-.29-2-1.17-1.22-1.27.81.2,2.54,1,2.74.2.1-.4-.81-.89-1.32-1.08-2.53-.79-1.21-.79.41-.2.81.3,1.31-.1.6-.78-1.41-1.38-4.25-1.18-6-.49C37,253.32,34.68,255.68,35.69,257Z" transform="translate(0 -52)"/><path class="cls-12" d="M38.53,253.23a2.16,2.16,0,0,0,.71-.59,3,3,0,0,0,.81-.79c.2-.49-.31-.59-.71-.49-.71.2-1.82,1.57-2.23,2.06A4.84,4.84,0,0,0,38.53,253.23Z" transform="translate(0 -52)"/><path class="cls-12" d="M63.24,233a3.8,3.8,0,0,0,3.24.88c1.92-.69,2.13-2.55,1.72-4.22-.2-1.07-.91-2.45-2-2.74-.61-.2-1,.1-1,.49s.41.59.51.78a2.5,2.5,0,0,1,.61,1.77c0,.78-.1.19-.2-.2s-.41-.78-.61-1.08-1.52-1.66-2.33-1.37c-1,.39.3,1.47.61,1.77s1.11,1.27,1.11,1.66c0-.19-.4-.59-.51-.68-.3-.3-.5-.69-1-.89s-1.32-.09-1.21.49c0,.4.81.89,1,1.18s.3.39.51.59c.3.39.2.39-.31,0-.3-.2-.71-.39-1-.59a.36.36,0,0,0-.51.1C61.42,231.66,62.73,232.64,63.24,233Z" transform="translate(0 -52)"/><path class="cls-12" d="M68.2,227.94a1.74,1.74,0,0,1,1.62-1.08.8.8,0,0,1,.41,1.37c-.31.3-.71.49-1,.79a2.31,2.31,0,0,0-.6.88c-.1.29-.1.69-.21,1s-.81.69-1,.2A4,4,0,0,1,68.2,227.94Z" transform="translate(0 -52)"/><path class="cls-19" d="M33.87,218c0-.1-.1-.1-.1-.19-.41-.49.4-1.08.81-.59a4,4,0,0,0,1.82,1.27,1.91,1.91,0,0,0,2.13-.59.52.52,0,0,1,.71.1c.61.69,2.33-.29,2.53.79A2.82,2.82,0,0,1,40,221.47c-2.74.88-4.76-1-6.28-2.64C33.26,218.53,33.47,218.14,33.87,218Z" transform="translate(0 -52)"/><path class="cls-14" d="M10.88,263c7.7,1.66,17.32-2,22.18-4.22-.1-.29-.4-.49-.91-.49-1.42-.29-3.65.79-5.16,1-2.13.39-4.26.79-6.49,1.08a31.09,31.09,0,0,1-7.39.39c-3.54-.39-4.66-3.23-4.76-6.27a26.87,26.87,0,0,1,2.94-12.84.43.43,0,0,0,.4-.39c.1-1.67-.91-2.16-2-2.06a.1.1,0,0,0-.1.1C3.69,246.07,3.39,261.36,10.88,263Z" transform="translate(0 -52)"/><path class="cls-12" d="M15.94,254.7a3.5,3.5,0,0,0,2.43,0,7.7,7.7,0,0,1-2.83-.59c-.71-.4,2.13-6.18,4.25-8.14a.5.5,0,0,0-.71-.09c-.1-.1-.3-.1-.5.09-1.62,1.38-3.55,3.14-4,5.2A2.8,2.8,0,0,0,15.94,254.7Z" transform="translate(0 -52)"/><path class="cls-16" d="M19.79,247.64c.81-.79,6.28-5.88,7.09-11.07.41-2.36-.4-7.94-3.34-8.63C18.78,226.86,12.4,233.62,8,238.62,10,243.23,14.43,246.27,19.79,247.64Z" transform="translate(0 -52)"/><path class="cls-25" d="M71.3,319.91s.21,3.7.41,7.8v.8c.21,4.9.52,10.2.52,10.2,0,.5,3.93.9,9.92.9s9.92-.4,9.92-.9c0,0,.21-5.2.52-10.2v-.8c.2-4.1.41-7.8.41-7.8Z" transform="translate(0 -52)"/><path class="cls-27" d="M93,319.91a.1.1,0,0,1-.1.1h-.11c-.1,0-.1.1-.2.1s-.11,0-.21.1h-.1c-.11,0-.21.1-.42.1a4.59,4.59,0,0,1-.51.1c-.21,0-.52.1-.83.1s-.62.1-.93.1c-.72.1-1.65.1-2.58.2a7.08,7.08,0,0,0-1.45.1H82.15c-2.17,0-4.24-.1-5.89-.2a27.87,27.87,0,0,1-3.93-.4c-.31-.1-.62-.1-.72-.2s-.31-.1-.31-.2c0-.3,1.24-.5,3.2-.7s4.65-.3,7.65-.3,5.68.1,7.65.3S93,319.61,93,319.91Z" transform="translate(0 -52)"/><path class="cls-28" d="M93,319.91a.1.1,0,0,1-.1.1h-.11c-.1,0-.1.1-.2.1s-.11,0-.21.1h-.1c-.11,0-.21.1-.42.1a4.59,4.59,0,0,1-.51.1c-.21,0-.52.1-.83.1s-.62.1-.93.1c-.72.1-1.65.1-2.58.2a7.08,7.08,0,0,0-1.45.1H82.15c-2.17,0-4.24-.1-5.89-.2a27.87,27.87,0,0,1-3.93-.4c-.31-.1-.62-.1-.72-.2s-.31-.1-.31-.2c0-.3,1.24-.5,3.2-.7s4.65-.3,7.65-.3,5.68.1,7.65.3S93,319.61,93,319.91Zm-1,.1h.2a17,17,0,0,0-2.48-.3c-2.06-.2-4.75-.3-7.64-.3s-5.58.1-7.65.3a17.22,17.22,0,0,0-2.48.3c.1,0,.21.1.41.1a26.09,26.09,0,0,0,3.93.4c1.76.1,3.82.2,5.89.2H84a29.08,29.08,0,0,0,3-.1,20.78,20.78,0,0,0,2.58-.2c.31,0,.62-.1.93-.1s.52-.1.83-.1a.94.94,0,0,0,.51-.1C91.86,320,92,320,92,320Z" transform="translate(0 -52)"/><path class="cls-29" d="M71.71,327.61v.8a49.51,49.51,0,0,0,9.92.9,70.82,70.82,0,0,0,11-.9v-.8h-.11c-.1,0-10.74,2-20.77,0Z" transform="translate(0 -52)"/><path class="cls-29" d="M71.82,330.51v.8a47.76,47.76,0,0,0,9.81.9,71.71,71.71,0,0,0,10.85-.9v-.8h-.1c-.1,0-10.64,2-20.46,0Z" transform="translate(0 -52)"/><path class="cls-29" d="M92.07,320.31h.31a.75.75,0,0,0,.52-1c-.11-.4-3.41-9.9-10.75-9.6s-10.44,9.2-10.54,9.5a.82.82,0,0,0,.52,1,.86.86,0,0,0,1-.5c0-.1,2.89-8.1,9.09-8.4s9,8.3,9,8.4A.79.79,0,0,0,92.07,320.31Z" transform="translate(0 -52)"/><path class="cls-16" d="M88.45,320.3s-3.41-3-6-3.1-6.92,3.1-6.92,3.1S85.15,320.7,88.45,320.3Z" transform="translate(0 -52)"/><path class="cls-12" d="M481.23,237.62l.29.31c3.79,3.83,11.09,2.59,14.78,1.45a8.9,8.9,0,0,0,2-.83c1.52-1,5.79-9.74,0-9.84a12.54,12.54,0,0,0-3.6,1.24c-.76.31-1.61.73-2.27,1a17.32,17.32,0,0,1-2.75,1c-.95-.41,2.84-5.07,5.5-8.7a24,24,0,0,0,1.61-2.48c.47-.83.76-1.45.66-1.77,0,0-.09-2.79-.76-3.1a.7.7,0,0,0-.38.1c-.47.42-1,.83-1.51,1.24a54.93,54.93,0,0,0-6.45,5.91C483.6,228.19,478.77,234.3,481.23,237.62Z" transform="translate(0 -52)"/><path class="cls-30" d="M494.5,222.91l.1.1c.09.11.19.21.28.31a22.47,22.47,0,0,0,1.61-2.48,1.53,1.53,0,0,0-.09-.63,6.78,6.78,0,0,1,.19-.82,5.32,5.32,0,0,0-.19-3.42.68.68,0,0,0-.38.1c-.47.42-1,.83-1.52,1.24-.09.94-.09,1.87-.19,2.8S493.84,222.08,494.5,222.91Z" transform="translate(0 -52)"/><path class="cls-30" d="M481.23,237.62l.29.31c3.79,3.83,11.09,2.59,14.78,1.45.76-1.66.48-3.73.1-5.6-.29-1.34-.57-3.31-1.71-3.83-.76.31-1.61.73-2.27,1a7.2,7.2,0,0,0-.48,2.59c0,2.07.67,4.55-1.7,5.18a5.39,5.39,0,0,1-2.85-.31c-1-.21-2-.11-3-.32C483.13,238,482.18,237.62,481.23,237.62Z" transform="translate(0 -52)"/><path class="cls-31" d="M504.26,227.78a7.42,7.42,0,0,0-.19,2.48,1.75,1.75,0,0,0,1.24,1.76,2.35,2.35,0,0,1,1.8.83,2.21,2.21,0,0,0,.56.42,3.2,3.2,0,0,0,1.71.31,16.31,16.31,0,0,0,3-.62,10.71,10.71,0,0,1,4.08.31,9.79,9.79,0,0,0,4.55.31c1.33-.31,1.42-1.14,2.18-2.28s2.28-1.87,2.66-3.42a4.46,4.46,0,0,0-.38-3.11c-.38-.72-1-1-1.71-1.55-1.33-1-1.42-2.07-2.18-3.52-.66-1.25-2.65.41-3.89-.11s-1.7-2.17-2.56-3.21-3.31-.41-4-1.55c-1.32-2.18-.76-5.59-2.94-5H508a6.35,6.35,0,0,0-3.79,5.8l-.19.2C503.12,220.21,502.84,223.84,504.26,227.78Z" transform="translate(0 -52)"/><path class="cls-12" d="M498.67,212.13c-.19-.51-.19-1.13.19-1.34s.76.21.86.62v.93a2.5,2.5,0,0,0,.19.83,4.63,4.63,0,0,1,.47.73c.19.31,0,.72-.38.51A4.2,4.2,0,0,1,498.67,212.13Z" transform="translate(0 -52)"/><path class="cls-32" d="M495.56,219.5l4.54,3.21,4.89-8.26-4.54-3.21Z" transform="translate(0 -52)"/><path class="cls-32" d="M500.85,211l2.66,1.86-.19.41-1.33-.93-.95-.62a.7.7,0,0,0-1,.21l-3.88,6.63a.84.84,0,0,0,.19,1l2.27,1.66-.47.83-2.66-1.87a.86.86,0,0,1-.19-1l4.65-7.87A.54.54,0,0,1,500.85,211Z" transform="translate(0 -52)"/><path class="cls-33" d="M500.1,211.41l-4.65,7.87a.89.89,0,0,0,.19,1l3.79,2.69a.69.69,0,0,0,.95-.21l4.64-7.87a.84.84,0,0,0-.19-1L501,211.2A.69.69,0,0,0,500.1,211.41Zm-.48,10.46-3.13-2.17a.87.87,0,0,1-.19-1l3.89-6.63a.7.7,0,0,1,.95-.21l.94.63v.2a.38.38,0,0,0,.1.31l.76.52c.09.11.19,0,.28,0l.1-.1.95.62a.86.86,0,0,1,.18,1l-3.88,6.62A.56.56,0,0,1,499.62,221.87Z" transform="translate(0 -52)"/><path class="cls-32" d="M497.25,221l.95.73c.09.1.19,0,.28-.11s0-.2-.09-.31l-.95-.72c-.09-.11-.19,0-.28.1S497.16,221,497.25,221Z" transform="translate(0 -52)"/><path class="cls-34" d="M503,213.27a.1.1,0,0,0,0-.2.1.1,0,0,0,0,.2Z" transform="translate(0 -52)"/><path class="cls-34" d="M502.37,212.76l.38.2h.09v-.1l-.38-.21h-.09Z" transform="translate(0 -52)"/><path class="cls-13" d="M509.19,271.07c-.28.83-.57,1.56-.85,2.39-.38,1.14-.85,2.27-1.23,3.42-.19.41-.29.93-.48,1.34s-.28.93-.47,1.35c-.47,1.45-1,3-1.42,4.35-.1.31-.19.52-.29.83-.18.83-.37,1.55-.56,2.28a1.33,1.33,0,0,0-.1.62c0,.1-.09.31-.09.41s-.1.42-.1.62-.09.52-.09.83c0,.52-.1,1-.1,1.66,0,.31-.09.52-.09.83-.38,4.24-1.52,9.53-2.28,14.5a15.91,15.91,0,0,1-2.18-.1,58.37,58.37,0,0,1-.19,8.28c0,.21,0,.31-.09.42a7,7,0,0,0,1.51-.11c0,5.7.38,12.43.1,13.26v.11l-3.79-.42-2.94-.31c-.57-3.62-1.23-8.49-1.8-13.67L490.52,304c-.57-5.49-.95-10.56-.95-14.4,0-9.84.95-28.07,6.64-35.11,2.84-3.42,6.73-.72,9.76,2.69,2.37,2.59,4.17,5.49,4.83,6.22S510.52,267.14,509.19,271.07Z" transform="translate(0 -52)"/><path class="cls-15" d="M509,271a.42.42,0,0,0-.48,0,6.4,6.4,0,0,0-2.27-2.07,2.16,2.16,0,0,0-3.13,1.14c-.85,1.55.09,3.31.19,4.87.19,3.1-1.61,6-2.75,8.8-2.94,7.25-2,15-1.71,22.68.76,0,1.43.11,2.18.11h1c.47-5,.94-10.15,1.32-14.5,0-.31.1-.52.1-.83,0-.62.09-1.14.09-1.66a2.66,2.66,0,0,1,.1-.83c0-.2.09-.41.09-.62a.63.63,0,0,1,.1-.41c0-.21.09-.42.09-.63.19-.72.38-1.44.57-2.27.1-.31.19-.52.28-.83.38-1.35.95-2.8,1.43-4.35.19-.42.28-.93.47-1.35s.29-.93.47-1.35c.38-1.14.86-2.27,1.24-3.41.28-.83.57-1.66.85-2.39A.33.33,0,0,0,509,271Zm-10.34,44c-.66,5.08-2.65,7.56-2.27,12.95l3.79.42v-.11c.38-.72.19-5.07.95-13.36-.38,0-.66.1-1,.1Z" transform="translate(0 -52)"/><path class="cls-16" d="M504.17,233.16c-.19,1.56-2.56,3.42-4.74,5.29a19.38,19.38,0,0,0-2.08,2.07l-.29.31c-2.94-1.66-4.17-6-3.7-11.71a15.39,15.39,0,0,1,5.79-3.93,18.9,18.9,0,0,1,8-1.45C510.52,223.94,504.36,231.3,504.17,233.16Z" transform="translate(0 -52)"/><path class="cls-20" d="M501,225c-.29.21-1.8,3.42-2.47,4.45a14.07,14.07,0,0,0,.29,7.67,8.26,8.26,0,0,1,.57,1.35,20.49,20.49,0,0,0-2.09,2.07c-.66-3-2.08-6.94-1.33-9.84a13.37,13.37,0,0,1,3-5.49,17.18,17.18,0,0,1,2.08-.73A.31.31,0,0,1,501,225Z" transform="translate(0 -52)"/><path class="cls-13" d="M534.5,325c0,.31-.85.93-1.8,1.66-1.14.83-2.37,1.66-2.37,1.66-3.22-2-7.77-6.94-11.85-12.75a77.69,77.69,0,0,1-5-7.87c-2.28-4.25-4-8.29-4.27-11.5-.66-5.9-1.42-12.94-2.08-19.47q-.44-4.35-.85-8.08c-.67-6.32-1.05-10.77-.95-11L506,257c3.6-3.22,11.38-4.56,11.56-4.25,1.05,1.86,3.8,4.66,4.37,6.21.28.73.47,1.35.75,2.08,3,9.63,0,16.05,0,29.21v.62a24.53,24.53,0,0,0,2.09,8.7,22.09,22.09,0,0,1-1.23,1.86c.47,1.25,1,2.39,1.61,3.63a35.85,35.85,0,0,1,1.71,4.25,6.28,6.28,0,0,0,.85-1.45,30.13,30.13,0,0,1,1,3.62c1.71,5.91,4.36,9.63,5.59,12.74A4.59,4.59,0,0,1,534.5,325Z" transform="translate(0 -52)"/><path class="cls-16" d="M521.52,258c-10.72,5.18-27.11-.62-27.11-.62A133.92,133.92,0,0,1,499.62,244a2.16,2.16,0,0,0,.19-.42.41.41,0,0,0,.09-.31,4.35,4.35,0,0,0-.38-4.66c-.47-.62-1-1.34-1.7-2.17a7,7,0,0,1-1.42-3.84,8.42,8.42,0,0,1,3.69-6.73c.76-.52,1.61-1,2.37-1.45a45.75,45.75,0,0,1,4.36-2.07,28.8,28.8,0,0,1,4.17,0,11.35,11.35,0,0,1,2.94.62c6.64,2.28,4.17,9.63,2.94,16a19.34,19.34,0,0,0-.28,2.08c0,.31-.1.72-.1,1a11.9,11.9,0,0,0,.19,2.59C516.59,249.94,520.09,254.91,521.52,258Z" transform="translate(0 -52)"/><path class="cls-20" d="M513.08,237.3a17,17,0,0,0,3.51,4.87,4,4,0,0,1,.09-1c.1-.62.19-1.35.29-2.07a10.12,10.12,0,0,0-2.09-2.9c-2.75-2.8-2.46-9.84-2.46-9.84C511.75,229.85,512,235.13,513.08,237.3Z" transform="translate(0 -52)"/><path class="cls-12" d="M505.31,220.32v2.9s-.76,1.45,0,1.55c1.61.31,3.88-2.38,3.88-2.38v-3.83Z" transform="translate(0 -52)"/><path class="cls-30" d="M509.19,221v-2.28s-2,2.08-3.89,2.18C505.3,220.94,507.58,222.18,509.19,221Z" transform="translate(0 -52)"/><path class="cls-12" d="M504.36,211.72a24.64,24.64,0,0,0-1.8,6.11c-.28,2.07,3.22,4.87,6.07,1.87s2.08-7.46,2.08-7.46Z" transform="translate(0 -52)"/><path class="cls-15" d="M534.5,324.94a3.55,3.55,0,0,0-.19-.62c-.94-2.49-3.88-9.43-6.54-16.58,0,.11-.09.11-.09.21-.29.52-.57,1-.85,1.45,2.46,6.73,5.21,16.68,5.87,17.3.95-.52,1.9-1.14,1.8-1.76Zm-11.84-34.6c-.1-13,2.93-19.58,0-29.21-1.24,1.35-1.52,4.76-1.71,6.11a93.3,93.3,0,0,0-.29,18.54c0,.62-.09,1.35-.09,2a33.28,33.28,0,0,0,2.94,13.78,8.78,8.78,0,0,0,1.23-1.87c0-.1.1-.1.1-.2a48.46,48.46,0,0,1-2.18-8.5Z" transform="translate(0 -52)"/><path class="cls-12" d="M496.11,215.45c-.38-.62.19-1.24.67-1-.1-.41.28-.93.66-.82-.29-.52.28-1.25.76-.83a3.12,3.12,0,0,1,1.23,2.17c0,.31-.28.73-.57.73l.1.1c.37.62-.48,1.45-.86.83a.57.57,0,0,1-.85.31c0,.52-.66.93-.95.41-.19-.31-.38-.51-.57-.82A.84.84,0,0,1,496.11,215.45Z" transform="translate(0 -52)"/><path class="cls-19" d="M503,211.62c.19-.11.48-.11.67-.31.57-.42.38-.63.66-1a2.22,2.22,0,0,1,.95-.73,6.1,6.1,0,0,1,3.31,0,.56.56,0,0,1,.29.73c1,.21.76,1.55,1.14,2.28.85,1.45,2.46,3.63,1.51,5.18-.66,1.14-2,2.07-2.74.62a6.3,6.3,0,0,1-.38-3.52v-1.24a2.86,2.86,0,0,0-2.18-1.46c-.19.21-.38.63-.57.83a4.23,4.23,0,0,1-1.05.83,1.61,1.61,0,0,1-2-.31A1.33,1.33,0,0,1,503,211.62Z" transform="translate(0 -52)"/><path class="cls-30" d="M508.15,215.14s1.14-.62,1.33.41-.57,1.56-1.05,1.45A1.83,1.83,0,0,1,508.15,215.14Z" transform="translate(0 -52)"/><path class="cls-13" d="M521.52,258c-10.72,5.18-27.11-.62-27.11-.62A133.92,133.92,0,0,1,499.62,244a2.16,2.16,0,0,0,.19-.42.41.41,0,0,0,.09-.31,4.75,4.75,0,0,0,.29-2.48,17.62,17.62,0,0,0-.67-2.07,15.08,15.08,0,0,1,.57-12.75,5.38,5.38,0,0,1,1.33-1.65,2.46,2.46,0,0,1,1.33-.31l-.19.41c-.86,1.87-3.6,8.29-.76,11.5a4.29,4.29,0,0,0,4.46.31c2.84-2.18,2.84-12.33,4.73-13.88a4,4,0,0,1,2.94.62s-4.07,2.07-2.18,15c.76,5.08,4.08,6.11,4.93,6.53C516.59,249.94,520.09,254.91,521.52,258Z" transform="translate(0 -52)"/><path class="cls-17" d="M501.61,239.38s3.89.52,6-.83c0,0,.76,5.49-2.56,5.69S501.61,239.38,501.61,239.38Z" transform="translate(0 -52)"/><path class="cls-29" d="M510,213.38a2.83,2.83,0,0,1,1.24,1.55s2.18-4.66-2.09-6.11-6.82,2.07-6.06,3.73C503,212.45,504.65,210.27,510,213.38Z" transform="translate(0 -52)"/><path class="cls-35" d="M510,213.38s-3.31-2.39-4.36-3.32c-2.46-2.48-4-2.59-4.55-1-1.14,2.69,2.47,3.93,2.47,3.93S504.08,210.58,510,213.38Z" transform="translate(0 -52)"/><path class="cls-36" d="M509.29,209.23a.41.41,0,1,0-.38-.41A.39.39,0,0,0,509.29,209.23Z" transform="translate(0 -52)"/><path class="cls-37" d="M538.49,327.63a1.25,1.25,0,0,0,.47-.52c.19-.62-.29-1.14-.76-1.55-2.08-1.87-4.74-3.73-5.88-6.42-1.89,2.9-3.88,5.59-7.29,7.66a5.8,5.8,0,0,0,3.41,1.56c-3.6,3.62-2.75,6.94-2,8.59C526.35,337,534.6,330.84,538.49,327.63Z" transform="translate(0 -52)"/><path class="cls-37" d="M499.24,335.5c.19,0,.47.11.66,0,.48-.2.48-1,.38-1.65-.28-2.9.57-5.91,1.42-8.71a23.49,23.49,0,0,1-10.52-2.48,16.72,16.72,0,0,0,1.9,6.42,11.27,11.27,0,0,0-4.93.52,5.93,5.93,0,0,0-3.6,3.62S494.5,334.88,499.24,335.5Z" transform="translate(0 -52)"/><path class="cls-12" d="M502.75,248.08s.76,3.42.76,3.62a27,27,0,0,0,2.65,1.45c4.08,2.08,13.56,4.25,20,2.7,6.26-1.56,4.84-14.82-.28-21.34l-.1-.11c-4-5.17-8.43,5-7.67,5.81.28.31.56.72.94,1.24,1.61,2.48,3.32,6.73,2.85,7a11.36,11.36,0,0,1-3.42.83A47.91,47.91,0,0,1,511,249C506.92,248.6,502.94,248.08,502.75,248.08Z" transform="translate(0 -52)"/><path class="cls-30" d="M511.18,249.63c2.94,2.07,8.54,2.9,11.76,1,3.6-2,.09-6.63-1.52-9.32a.55.55,0,0,0-.47-.83h-.1c-.19,0-.38,0-.47.1a9.57,9.57,0,0,0-1.42.73c1.61,2.48,3.32,6.73,2.84,7a11.51,11.51,0,0,1-3.41.83,49.3,49.3,0,0,1-7.49-.31C511,249.22,511,249.53,511.18,249.63Z" transform="translate(0 -52)"/><path class="cls-16" d="M518.48,242.59c-.75-.73-5.4-5.91-6.16-10.77-.28-2.18-.66-7.25,1.8-7.88,4.08-1,9.39,5.39,13.18,10.26C525.59,238.34,523,241.24,518.48,242.59Z" transform="translate(0 -52)"/><path class="cls-38" d="M484.07,234.51s12.42,15.33,19.53,33.87c0,0,5.21-.83,7.49-4.76,0,0-17.06-22.17-19-35.84C492.13,227.88,483.51,228.5,484.07,234.51Z" transform="translate(0 -52)"/><path class="cls-16" d="M491.47,229.12a8,8,0,0,0-3,.83,4.54,4.54,0,0,0-2.17,1.87,3.15,3.15,0,0,0-.57,1.34,1.6,1.6,0,0,0-.1.62v.11l-.09-.21c-.1,0,.09,0,.28-.1l.57-.31a8.86,8.86,0,0,0,1.23-.83,23.58,23.58,0,0,0,2.37-2c.19-.21.38-.31.48-.52s.09-.21.09-.1v.41c0,.11,0,.11.1.21s.09.1.18.21l.1.1H491a3.89,3.89,0,0,0-1.42.31,12.48,12.48,0,0,0-2.65,1.14l-.1.1s0,.11.1.11a.39.39,0,0,0,.47.1,3.33,3.33,0,0,0,1.33-.72,3.06,3.06,0,0,1-1.23,1.24,1,1,0,0,1-.95,0c-.09-.1-.19-.1-.19-.21a.85.85,0,0,1-.19-.41.88.88,0,0,1,.29-.62,6.52,6.52,0,0,1,1.42-1.14,7.28,7.28,0,0,1,1.51-.73,8.76,8.76,0,0,1,1.71-.52h.09c0-.31.1-.31.29-.31a1.9,1.9,0,0,0,.19.21c.09,0,.09.1.19.21a.33.33,0,0,1,.09.2V230c0,.21,0,.31-.09.42a1.07,1.07,0,0,1-.29.51,4.64,4.64,0,0,1-.57.73,18.89,18.89,0,0,1-2.56,2.28l-1.42.93a2.82,2.82,0,0,1-.85.31c-.19,0-.28.1-.47.1a2.55,2.55,0,0,1-.76-.1,1.15,1.15,0,0,1-.66-.73,2,2,0,0,1-.1-.72,3.57,3.57,0,0,1,.19-1,3.46,3.46,0,0,1,.95-1.65,5.38,5.38,0,0,1,2.94-1.87A8.31,8.31,0,0,1,491.47,229.12Z" transform="translate(0 -52)"/><path class="cls-12" d="M502.18,247.66c-1.42-.62-3.79-.82-5,.52-.57.62-.19,1,.48.83,1.42-.52,2.46-.52.38.21-.38.1-1.24.62-1.14,1,.19.73,1.61,0,2.37-.2.57.1-.85.93-1,1.24-.76,1.45,2.08,0,2.27.21.48.41-1.61,1-.66,1.55.66.31,2.37-1,2.94-1.14s.94.21,1.23-.31C504.74,250.15,502.75,247.87,502.18,247.66Z" transform="translate(0 -52)"/><path class="cls-12" d="M502.75,248.08a7.16,7.16,0,0,0-1.9-2c-.28-.1-.76,0-.57.41a1.57,1.57,0,0,0,.67.73,1.78,1.78,0,0,0,.66.52C501.8,248,502.75,248.18,502.75,248.08Z" transform="translate(0 -52)"/><path class="cls-39" d="M498.86,306.29a19.47,19.47,0,0,1-8.34-2.28c.28,3.32.66,6.63,1.14,9.95a16.23,16.23,0,0,0,7,1,.63.63,0,0,1,.1-.41A79.06,79.06,0,0,0,498.86,306.29Z" transform="translate(0 -52)"/><path class="cls-40" d="M502,306.4c-.28,2.79-.57,5.38-.76,7.76a2,2,0,0,1-.09.73c-.38,0-.67.1-1,.1s-1.05.11-1.52.11a.71.71,0,0,1,.09-.42,58.37,58.37,0,0,0,.19-8.28c.76,0,1.42.1,2.18.1A3.11,3.11,0,0,1,502,306.4Z" transform="translate(0 -52)"/><path class="cls-39" d="M525.12,305.26c-.57-1.25-1.14-2.39-1.61-3.63a13.85,13.85,0,0,1-4.27,3.52,42.59,42.59,0,0,1-5.78,2.7,77.69,77.69,0,0,0,5,7.87,22.28,22.28,0,0,0,7.49-5.18,7.77,7.77,0,0,0,.85-1A34.77,34.77,0,0,0,525.12,305.26Z" transform="translate(0 -52)"/><path class="cls-40" d="M527.78,307.74c0,.11-.1.11-.1.21-.28.52-.57,1-.85,1.45a35.85,35.85,0,0,0-1.71-4.25c-.57-1.24-1.14-2.38-1.61-3.62a8.78,8.78,0,0,0,1.23-1.87c0-.1.1-.1.1-.2C525.69,302.15,526.73,305,527.78,307.74Z" transform="translate(0 -52)"/><path class="cls-25" d="M456.41,335.77h.18a1.38,1.38,0,0,0,1.07-1.57l-6.32-49.07A1.29,1.29,0,0,0,449.9,284a1.37,1.37,0,0,0-1.06,1.58l6.31,49A1.39,1.39,0,0,0,456.41,335.77Z" transform="translate(0 -52)"/><path class="cls-25" d="M476.42,335.77h.19a1.36,1.36,0,0,0,1.06-1.57l-6.32-49.07a1.28,1.28,0,0,0-1.43-1.17,1.38,1.38,0,0,0-1.07,1.58l6.32,49A1.32,1.32,0,0,0,476.42,335.77Z" transform="translate(0 -52)"/><path class="cls-25" d="M455.28,324.9h20.08v2.74H455.28Z" transform="translate(0 -52)"/><path class="cls-25" d="M454,315h20.08v2.74H454Z" transform="translate(0 -52)"/><path class="cls-25" d="M452.72,305.08h20.07v2.74H452.72Z" transform="translate(0 -52)"/><path class="cls-25" d="M451.46,295.17h20.08v2.74H451.46Z" transform="translate(0 -52)"/><path class="cls-28" d="M450.21,285.26h20.08V288H450.21Z" transform="translate(0 -52)"/><path class="cls-29" d="M463.28,335.77a1.32,1.32,0,0,0,1.26-1.16l6.31-49.07a1.37,1.37,0,0,0-1.06-1.58,1.29,1.29,0,0,0-1.44,1.17L462,334.2a1.38,1.38,0,0,0,1.07,1.57C463.16,335.7,463.22,335.77,463.28,335.77Z" transform="translate(0 -52)"/><path class="cls-29" d="M443.27,335.77a1.3,1.3,0,0,0,1.25-1.16l6.32-49.07a1.38,1.38,0,0,0-1.07-1.58,1.28,1.28,0,0,0-1.43,1.17L442,334.2a1.36,1.36,0,0,0,1.06,1.57C443.14,335.7,443.21,335.77,443.27,335.77Z" transform="translate(0 -52)"/><path class="cls-29" d="M444.33,324.9h20.08v2.74H444.33Z" transform="translate(0 -52)"/><path class="cls-29" d="M445.58,315h20.08v2.74H445.58Z" transform="translate(0 -52)"/><path class="cls-29" d="M446.84,305.08h20.07v2.74H446.84Z" transform="translate(0 -52)"/><path class="cls-29" d="M448.15,295.17h20.08v2.74H448.15Z" transform="translate(0 -52)"/><path class="cls-41" d="M449.4,285.26h20.08V288H449.4Z" transform="translate(0 -52)"/><path class="cls-25" d="M449.28,289.84h22.07a2.28,2.28,0,0,0,2.19-2.39v-5.06a2.28,2.28,0,0,0-2.19-2.39H449.28a2.28,2.28,0,0,0-2.19,2.39v5.06A2.32,2.32,0,0,0,449.28,289.84Z" transform="translate(0 -52)"/><path class="cls-29" d="M447,289.84H469.1a2.28,2.28,0,0,0,2.19-2.39v-5.06A2.28,2.28,0,0,0,469.1,280H447a2.28,2.28,0,0,0-2.19,2.39v5.06A2.33,2.33,0,0,0,447,289.84Z" transform="translate(0 -52)"/></svg>