<svg id="Layer_1" data-name="Layer 1" xmlns="http://www.w3.org/2000/svg" viewBox="0 0 323.25 219.11"><defs><style>.cls-1,.cls-24,.cls-6{fill:#fff;}.cls-1{stroke:#e2e2e2;stroke-width:0.37px;}.cls-2{fill:#777;}.cls-3,.cls-7{fill:none;stroke:#f4f4f4;}.cls-3{stroke-width:0.43px;}.cls-4{fill:#373737;}.cls-5{fill:#c4c4c4;}.cls-6{stroke:#e6e6e6;stroke-width:0.59px;}.cls-7{stroke-width:0.68px;}.cls-8{fill:#87d2fd;}.cls-23,.cls-24,.cls-8{fill-rule:evenodd;}.cls-9{fill:#ffc1c5;}.cls-10{fill:#252525;}.cls-11{fill:#f8b5ba;}.cls-12{fill:#acdcff;}.cls-13{fill:#96caf0;}.cls-14{fill:#441fd8;}.cls-15{fill:#32187c;}.cls-16{fill:#1f0d52;}.cls-17{fill:#ffaea7;}.cls-18{fill:#ea7a70;}.cls-19{fill:#edf3ff;}.cls-20,.cls-22{fill:#e89a9f;}.cls-20{fill-opacity:0.3;}.cls-21{fill:#d3e7ec;}.cls-23{fill:#453286;}</style></defs><rect class="cls-1" x="31.18" y="35.18" width="283.63" height="182.63" rx="3.49"/><path d="M50.18,94.82V97.9h-1.8V89.17h3.4a3.93,3.93,0,0,1,1.73.36,2.62,2.62,0,0,1,1.15,1,2.78,2.78,0,0,1,.4,1.5,2.52,2.52,0,0,1-.88,2,3.65,3.65,0,0,1-2.43.73Zm0-1.45h1.6A1.6,1.6,0,0,0,52.87,93a1.21,1.21,0,0,0,.38-1,1.46,1.46,0,0,0-.38-1,1.42,1.42,0,0,0-1-.4H50.18ZM59.83,93a3.59,3.59,0,0,0-.62-.05,1.27,1.27,0,0,0-1.29.66V97.9H56.19V91.41h1.64l0,.78a1.61,1.61,0,0,1,1.45-.9,1.91,1.91,0,0,1,.54.08Zm.36,1.55a3.84,3.84,0,0,1,.37-1.72,2.67,2.67,0,0,1,1.07-1.16,3.05,3.05,0,0,1,1.62-.42,2.94,2.94,0,0,1,2.14.81,3.25,3.25,0,0,1,.93,2.18v.44a3.43,3.43,0,0,1-.83,2.4,3.24,3.24,0,0,1-4.48,0,3.45,3.45,0,0,1-.83-2.45Zm1.73.13a2.38,2.38,0,0,0,.35,1.42,1.25,1.25,0,0,0,2,0,2.62,2.62,0,0,0,.36-1.55,2.36,2.36,0,0,0-.36-1.4,1.22,1.22,0,0,0-2,0A2.62,2.62,0,0,0,61.92,94.72Zm11.32,0a3.89,3.89,0,0,1-.69,2.41,2.17,2.17,0,0,1-1.83.9,2,2,0,0,1-1.59-.69v3.06H67.4v-9H69l.06.64a2,2,0,0,1,1.65-.76,2.2,2.2,0,0,1,1.86.89,4,4,0,0,1,.67,2.44Zm-1.74-.12a2.52,2.52,0,0,0-.32-1.4,1,1,0,0,0-.93-.49,1.14,1.14,0,0,0-1.12.62V96a1.15,1.15,0,0,0,1.13.64C71.09,96.62,71.5,95.94,71.5,94.59Zm2.54,0a3.85,3.85,0,0,1,.38-1.72,2.65,2.65,0,0,1,1.06-1.16,3.12,3.12,0,0,1,1.63-.42,2.94,2.94,0,0,1,2.14.81,3.25,3.25,0,0,1,.93,2.18v.44a3.39,3.39,0,0,1-.84,2.4,3.23,3.23,0,0,1-4.47,0A3.45,3.45,0,0,1,74,94.67Zm1.74.13a2.46,2.46,0,0,0,.34,1.42,1.18,1.18,0,0,0,1,.48,1.14,1.14,0,0,0,1-.48,2.62,2.62,0,0,0,.36-1.55,2.36,2.36,0,0,0-.36-1.4,1.23,1.23,0,0,0-2,0A2.71,2.71,0,0,0,75.78,94.72Zm9,1.39a.55.55,0,0,0-.32-.5,3.11,3.11,0,0,0-1-.33c-1.54-.33-2.31-1-2.31-2a1.81,1.81,0,0,1,.71-1.44,3,3,0,0,1,1.88-.58,3.14,3.14,0,0,1,2,.58,1.82,1.82,0,0,1,.74,1.51H84.7a.84.84,0,0,0-.24-.61,1,1,0,0,0-.75-.24,1,1,0,0,0-.67.19.64.64,0,0,0-.24.51.55.55,0,0,0,.27.47A3.15,3.15,0,0,0,84,94a8,8,0,0,1,1.09.29A1.79,1.79,0,0,1,86.45,96a1.7,1.7,0,0,1-.76,1.44,3.26,3.26,0,0,1-2,.55,3.54,3.54,0,0,1-1.45-.29,2.47,2.47,0,0,1-1-.8,1.91,1.91,0,0,1-.35-1.09h1.64a.88.88,0,0,0,.34.7,1.3,1.3,0,0,0,.85.25,1.22,1.22,0,0,0,.75-.19A.59.59,0,0,0,84.77,96.11Zm6.56,1.79a1.8,1.8,0,0,1-.17-.58,2.13,2.13,0,0,1-1.64.7,2.35,2.35,0,0,1-1.58-.55,1.78,1.78,0,0,1-.63-1.39,1.85,1.85,0,0,1,.77-1.59,3.79,3.79,0,0,1,2.21-.55h.79v-.38a1,1,0,0,0-.23-.72.89.89,0,0,0-.72-.27,1,1,0,0,0-.69.21.72.72,0,0,0-.25.58H87.46a1.67,1.67,0,0,1,.35-1,2.28,2.28,0,0,1,1-.75,3.44,3.44,0,0,1,1.43-.28,2.8,2.8,0,0,1,1.9.61,2.09,2.09,0,0,1,.7,1.69V96.4a3.2,3.2,0,0,0,.26,1.4v.1ZM89.9,96.69a1.46,1.46,0,0,0,.71-.17,1,1,0,0,0,.47-.46V95h-.64c-.87,0-1.33.3-1.39.9V96a.68.68,0,0,0,.22.53A.9.9,0,0,0,89.9,96.69ZM96,97.9H94.24V88.69H96Zm4.6,0V89.17h3.06a4,4,0,0,1,2.41.61,2.08,2.08,0,0,1,.82,1.78,2,2,0,0,1-.33,1.13,1.87,1.87,0,0,1-.91.72,1.82,1.82,0,0,1,1.05.68,2,2,0,0,1,.39,1.24,2.32,2.32,0,0,1-.8,1.91,3.65,3.65,0,0,1-2.29.66Zm1.8-3.8v2.35h1.54a1.46,1.46,0,0,0,1-.3,1,1,0,0,0,.36-.84c0-.8-.41-1.2-1.24-1.21Zm0-1.27h1.33c.91,0,1.36-.38,1.36-1.09a1,1,0,0,0-.34-.85,1.77,1.77,0,0,0-1.09-.26h-1.26Zm9.81,4.41a2.15,2.15,0,0,1-1.77.78,2,2,0,0,1-1.59-.6,2.56,2.56,0,0,1-.56-1.76V91.41H110V95.6c0,.68.31,1,.92,1a1.26,1.26,0,0,0,1.22-.61V91.41h1.73V97.9h-1.63Zm4.82.66h-1.74V91.41H117Zm-1.84-8.17a.83.83,0,0,1,.26-.64,1,1,0,0,1,.71-.25,1,1,0,0,1,.71.25.87.87,0,0,1,.26.64.85.85,0,0,1-.27.65,1,1,0,0,1-.7.25,1,1,0,0,1-.71-.25A.87.87,0,0,1,115.17,89.73Zm5.1,8.17h-1.74V88.69h1.74Zm1.16-3.29a4,4,0,0,1,.68-2.42,2.21,2.21,0,0,1,1.86-.9,2,2,0,0,1,1.57.71V88.69h1.74V97.9h-1.57l-.08-.69A2,2,0,0,1,124,98a2.21,2.21,0,0,1-1.84-.9A4.07,4.07,0,0,1,121.43,94.61Zm1.73.12a2.57,2.57,0,0,0,.32,1.4,1,1,0,0,0,.92.48,1.16,1.16,0,0,0,1.14-.67V93.38a1.15,1.15,0,0,0-1.12-.68C123.58,92.7,123.16,93.38,123.16,94.73ZM131.6,98a3.16,3.16,0,0,1-2.32-.88,3.1,3.1,0,0,1-.9-2.33v-.17a3.9,3.9,0,0,1,.38-1.74,2.75,2.75,0,0,1,1.07-1.19,3,3,0,0,1,1.58-.42,2.66,2.66,0,0,1,2.09.84,3.41,3.41,0,0,1,.77,2.38v.71h-4.13a1.65,1.65,0,0,0,.5,1,1.6,1.6,0,0,0,1.08.38,1.87,1.87,0,0,0,1.56-.72l.85.95a2.63,2.63,0,0,1-1,.86A3.44,3.44,0,0,1,131.6,98Zm-.2-5.33a1.08,1.08,0,0,0-.83.35,1.77,1.77,0,0,0-.41,1h2.41V93.9a1.29,1.29,0,0,0-.31-.89A1.14,1.14,0,0,0,131.4,92.69Zm7.5.35a3.59,3.59,0,0,0-.62-.05,1.28,1.28,0,0,0-1.29.66V97.9h-1.73V91.41h1.64l0,.78a1.61,1.61,0,0,1,1.45-.9,1.91,1.91,0,0,1,.54.08Z" transform="translate(0 -35)"/><path d="M67.74,127.05h-.52l-2-3v3h-.52v-3.93h.52l2,3v-3h.51Zm.94.34h-.42l1.63-4.27h.43ZM73.11,126H71.46l-.37,1h-.53l1.5-3.93h.45l1.5,3.93h-.53Zm-1.49-.42H73l-.67-1.84Z" transform="translate(0 -35)"/><path d="M97.57,120.26l1.1,3.08,1.08-3.08h1.15v4.25H100v-1.16l.09-2L99,124.51h-.6l-1.14-3.16.09,2v1.16h-.88v-4.25Zm5.87,4.25a.93.93,0,0,1-.08-.28,1,1,0,0,1-.8.34,1.11,1.11,0,0,1-.77-.27.87.87,0,0,1-.3-.68.89.89,0,0,1,.37-.77,1.87,1.87,0,0,1,1.07-.27h.39v-.18a.54.54,0,0,0-.11-.35.42.42,0,0,0-.35-.13.49.49,0,0,0-.34.1.35.35,0,0,0-.12.28h-.84a.82.82,0,0,1,.17-.51,1.16,1.16,0,0,1,.47-.36,1.75,1.75,0,0,1,.7-.14,1.32,1.32,0,0,1,.92.3,1,1,0,0,1,.35.82v1.37a1.5,1.5,0,0,0,.12.68v.05Zm-.7-.58a.7.7,0,0,0,.35-.09.54.54,0,0,0,.23-.22v-.55H103c-.43,0-.65.15-.68.44v0a.35.35,0,0,0,.11.26A.42.42,0,0,0,102.74,123.93Zm2.85-2.58,0,.37a1.12,1.12,0,0,1,.91-.43.93.93,0,0,1,.75.3,1.44,1.44,0,0,1,.25.88v2h-.85v-2a.59.59,0,0,0-.11-.39.54.54,0,0,0-.39-.12.59.59,0,0,0-.54.3v2.23h-.84v-3.16Zm4.47,2.84a1.07,1.07,0,0,1-.86.38,1,1,0,0,1-.78-.29,1.23,1.23,0,0,1-.27-.86v-2.07H109v2c0,.33.15.5.45.5a.61.61,0,0,0,.59-.3v-2.24h.85v3.16h-.8Zm3.28.32a1.36,1.36,0,0,1-.08-.28,1,1,0,0,1-.8.34,1.13,1.13,0,0,1-.77-.27.87.87,0,0,1-.3-.68.89.89,0,0,1,.37-.77,1.91,1.91,0,0,1,1.08-.27h.38v-.18a.49.49,0,0,0-.11-.35.42.42,0,0,0-.35-.13.49.49,0,0,0-.34.1.35.35,0,0,0-.12.28h-.84a.82.82,0,0,1,.17-.51,1.13,1.13,0,0,1,.48-.36,1.67,1.67,0,0,1,.69-.14,1.37,1.37,0,0,1,.93.3,1,1,0,0,1,.34.82v1.37a1.37,1.37,0,0,0,.13.68v.05Zm-.69-.58a.67.67,0,0,0,.34-.09.49.49,0,0,0,.23-.22v-.55h-.31c-.42,0-.65.15-.67.44v0a.35.35,0,0,0,.11.26A.45.45,0,0,0,112.65,123.93Zm3,.58h-.85V120h.85Zm4.45-1.11a.44.44,0,0,0-.18-.38,2.11,2.11,0,0,0-.63-.28,4.35,4.35,0,0,1-.72-.3,1.19,1.19,0,0,1-.73-1,1,1,0,0,1,.2-.61,1.22,1.22,0,0,1,.56-.42,1.92,1.92,0,0,1,.81-.16,1.86,1.86,0,0,1,.81.17,1.28,1.28,0,0,1,.56.46,1.23,1.23,0,0,1,.19.69h-.87a.56.56,0,0,0-.19-.46.78.78,0,0,0-.51-.16.8.8,0,0,0-.5.14.42.42,0,0,0-.18.35.41.41,0,0,0,.21.35,2.41,2.41,0,0,0,.61.26,2.69,2.69,0,0,1,1.09.56,1.1,1.1,0,0,1,.34.83,1,1,0,0,1-.41.87,1.85,1.85,0,0,1-1.13.31,2.18,2.18,0,0,1-.89-.18,1.46,1.46,0,0,1-.62-.49,1.27,1.27,0,0,1-.21-.72h.88c0,.46.28.7.84.7a.79.79,0,0,0,.49-.13A.4.4,0,0,0,120.06,123.4Zm2.87,1.17a1.55,1.55,0,0,1-1.14-.43,1.5,1.5,0,0,1-.43-1.13v-.08a1.93,1.93,0,0,1,.18-.85,1.4,1.4,0,0,1,.52-.58,1.46,1.46,0,0,1,.77-.21,1.3,1.3,0,0,1,1,.41,1.67,1.67,0,0,1,.38,1.16v.35h-2a.78.78,0,0,0,.25.49.73.73,0,0,0,.52.19.94.94,0,0,0,.77-.35l.41.46a1.31,1.31,0,0,1-.51.42A1.72,1.72,0,0,1,122.93,124.57Zm-.1-2.59a.52.52,0,0,0-.41.17.89.89,0,0,0-.2.48h1.18v-.06a.7.7,0,0,0-.15-.44A.57.57,0,0,0,122.83,122Zm2.77,2.53h-.85V120h.85Zm2.15.06a1.53,1.53,0,0,1-1.13-.43,1.51,1.51,0,0,1-.44-1.13v-.08a1.8,1.8,0,0,1,.19-.85,1.28,1.28,0,0,1,.52-.58,1.41,1.41,0,0,1,.77-.21,1.33,1.33,0,0,1,1,.41,1.72,1.72,0,0,1,.37,1.16v.35h-2a.82.82,0,0,0,.24.49.75.75,0,0,0,.53.19.94.94,0,0,0,.76-.35l.41.46a1.31,1.31,0,0,1-.51.42A1.72,1.72,0,0,1,127.75,124.57Zm-.1-2.59a.5.5,0,0,0-.4.17.82.82,0,0,0-.2.48h1.17v-.06a.65.65,0,0,0-.15-.44A.57.57,0,0,0,127.65,122Zm3.19,1.91a.52.52,0,0,0,.38-.13.46.46,0,0,0,.16-.34h.79a1.13,1.13,0,0,1-.18.59,1.11,1.11,0,0,1-.47.41,1.45,1.45,0,0,1-.66.15,1.37,1.37,0,0,1-1.07-.43,1.71,1.71,0,0,1-.39-1.19v-.06a1.68,1.68,0,0,1,.39-1.16,1.5,1.5,0,0,1,2-.1,1.24,1.24,0,0,1,.37.9h-.79a.6.6,0,0,0-.16-.4.49.49,0,0,0-.38-.15.52.52,0,0,0-.45.21,1.28,1.28,0,0,0-.15.7V123a1.25,1.25,0,0,0,.15.7A.52.52,0,0,0,130.84,123.89Zm2.82-3.31v.77h.54V122h-.54v1.58a.34.34,0,0,0,.07.25.32.32,0,0,0,.25.08l.25,0v.63a1.7,1.7,0,0,1-.51.08.8.8,0,0,1-.9-.9V122h-.47v-.62h.47v-.77Zm1.9,3.93h-.85v-3.16h.85Zm-.9-4a.42.42,0,0,1,.13-.32.47.47,0,0,1,.34-.12.5.5,0,0,1,.35.12.42.42,0,0,1,.13.32.4.4,0,0,1-.13.31.5.5,0,0,1-.35.12.49.49,0,0,1-.34-.12A.44.44,0,0,1,134.66,120.54Zm1.47,2.36a1.72,1.72,0,0,1,.18-.83,1.25,1.25,0,0,1,.52-.57,1.57,1.57,0,0,1,1.83.19,1.55,1.55,0,0,1,.45,1.06V123a1.65,1.65,0,0,1-.41,1.17,1.42,1.42,0,0,1-1.09.44,1.43,1.43,0,0,1-1.09-.44,1.68,1.68,0,0,1-.4-1.19Zm.84.06a1.14,1.14,0,0,0,.17.69.55.55,0,0,0,.48.24.56.56,0,0,0,.48-.23,1.28,1.28,0,0,0,.17-.76,1.12,1.12,0,0,0-.17-.68.56.56,0,0,0-.48-.24.55.55,0,0,0-.48.24A1.25,1.25,0,0,0,137,123Zm3.44-1.61,0,.37a1.11,1.11,0,0,1,.91-.43.93.93,0,0,1,.75.3,1.44,1.44,0,0,1,.25.88v2h-.85v-2a.54.54,0,0,0-.12-.39A.49.49,0,0,0,141,122a.59.59,0,0,0-.54.3v2.23h-.84v-3.16Z" transform="translate(0 -35)"/><path class="cls-2" d="M98.13,132.9a.36.36,0,0,0-.16-.31,1.41,1.41,0,0,0-.53-.19,2.62,2.62,0,0,1-.6-.2.75.75,0,0,1-.33-.27.62.62,0,0,1-.1-.37.74.74,0,0,1,.3-.6,1.15,1.15,0,0,1,.77-.25,1.23,1.23,0,0,1,.81.25.83.83,0,0,1,.31.66h-.5a.44.44,0,0,0-.18-.35.63.63,0,0,0-.44-.15.66.66,0,0,0-.42.12.37.37,0,0,0-.15.31.29.29,0,0,0,.14.27,1.64,1.64,0,0,0,.51.17,3.35,3.35,0,0,1,.61.2.88.88,0,0,1,.34.28.65.65,0,0,1,.12.4.76.76,0,0,1-.32.63,1.36,1.36,0,0,1-.81.23,1.52,1.52,0,0,1-.62-.12,1,1,0,0,1-.42-.35.85.85,0,0,1-.15-.48h.5a.48.48,0,0,0,.2.4.95.95,0,0,0,.94,0A.36.36,0,0,0,98.13,132.9Zm1.82-2.85v.71h.55v.39H100V133a.47.47,0,0,0,.07.26.3.3,0,0,0,.25.09.85.85,0,0,0,.24,0v.41a1.73,1.73,0,0,1-.38,0,.65.65,0,0,1-.51-.2.88.88,0,0,1-.17-.57v-1.81h-.53v-.39h.53v-.71Zm2.93,3.63a1.1,1.1,0,0,1-.07-.31,1.11,1.11,0,0,1-.83.36,1.05,1.05,0,0,1-.71-.24.8.8,0,0,1-.27-.62.83.83,0,0,1,.34-.71,1.63,1.63,0,0,1,1-.25h.48v-.23a.56.56,0,0,0-.15-.41.61.61,0,0,0-.46-.16.73.73,0,0,0-.45.13.4.4,0,0,0-.18.33h-.5a.72.72,0,0,1,.15-.42,1,1,0,0,1,.42-.32,1.41,1.41,0,0,1,.59-.12,1.15,1.15,0,0,1,.79.25.92.92,0,0,1,.29.69V133a1.76,1.76,0,0,0,.1.63v.05Zm-.83-.38a.89.89,0,0,0,.45-.12.71.71,0,0,0,.3-.32v-.6h-.39c-.61,0-.91.18-.91.54a.47.47,0,0,0,.15.37A.66.66,0,0,0,102.05,133.3Zm3.44-2.09-.24,0a.66.66,0,0,0-.67.42v2.07h-.5v-2.92h.49v.34a.76.76,0,0,1,.69-.39.61.61,0,0,1,.22,0Zm1.28-1.16v.71h.54v.39h-.54V133a.4.4,0,0,0,.07.26.3.3,0,0,0,.25.09.84.84,0,0,0,.23,0v.41a1.65,1.65,0,0,1-.38,0,.63.63,0,0,1-.5-.2.83.83,0,0,1-.17-.57v-1.81h-.53v-.39h.53v-.71Zm2.37,2.15a1.71,1.71,0,0,1,.32-1.08,1,1,0,0,1,.83-.41,1,1,0,0,1,.82.35v-1.52h.5v4.14h-.46l0-.31a1.09,1.09,0,0,1-1.66-.05,1.76,1.76,0,0,1-.32-1.09Zm.5.05a1.29,1.29,0,0,0,.21.78.64.64,0,0,0,.56.28.73.73,0,0,0,.7-.43v-1.34a.74.74,0,0,0-.69-.41.67.67,0,0,0-.57.28A1.41,1.41,0,0,0,109.64,132.25Zm4.54,1.43a1.1,1.1,0,0,1-.07-.31,1.11,1.11,0,0,1-.83.36,1.05,1.05,0,0,1-.71-.24.8.8,0,0,1-.27-.62.83.83,0,0,1,.34-.71,1.65,1.65,0,0,1,1-.25h.48v-.23a.56.56,0,0,0-.15-.41.61.61,0,0,0-.46-.16.73.73,0,0,0-.45.13.4.4,0,0,0-.18.33h-.5a.72.72,0,0,1,.15-.42.91.91,0,0,1,.42-.32,1.41,1.41,0,0,1,.59-.12,1.15,1.15,0,0,1,.79.25.88.88,0,0,1,.29.69V133a1.55,1.55,0,0,0,.11.63v.05Zm-.82-.38a.88.88,0,0,0,.44-.12.71.71,0,0,0,.3-.32v-.6h-.39c-.61,0-.91.18-.91.54a.47.47,0,0,0,.15.37A.67.67,0,0,0,113.36,133.3Zm2.7-3.25v.71h.55v.39h-.55V133a.4.4,0,0,0,.07.26.3.3,0,0,0,.25.09.85.85,0,0,0,.24,0v.41a1.73,1.73,0,0,1-.38,0,.65.65,0,0,1-.51-.2.88.88,0,0,1-.17-.57v-1.81H115v-.39h.53v-.71Zm2.34,3.68a1.26,1.26,0,0,1-1-.39,1.43,1.43,0,0,1-.38-1v-.09a1.71,1.71,0,0,1,.17-.77,1.28,1.28,0,0,1,.46-.54,1.17,1.17,0,0,1,.65-.19,1.08,1.08,0,0,1,.88.37,1.63,1.63,0,0,1,.32,1.07v.21h-2a1.06,1.06,0,0,0,.25.7.79.79,0,0,0,.62.26.93.93,0,0,0,.45-.1,1.24,1.24,0,0,0,.32-.29l.3.24A1.23,1.23,0,0,1,118.4,133.73Zm-.06-2.61a.67.67,0,0,0-.51.22,1.07,1.07,0,0,0-.25.61H119v0a.87.87,0,0,0-.21-.58A.61.61,0,0,0,118.34,131.12Zm1.76,2.3a.33.33,0,0,1,.08-.22.37.37,0,0,1,.46,0,.33.33,0,0,1,.08.22.28.28,0,0,1-.08.2.34.34,0,0,1-.46,0A.28.28,0,0,1,120.1,133.42Zm0-2.38a.32.32,0,0,1,.07-.22.37.37,0,0,1,.46,0,.29.29,0,0,1,.08.22.24.24,0,0,1-.08.2.34.34,0,0,1-.46,0A.27.27,0,0,1,120.11,131Zm5,1.61h-1.64l-.37,1h-.54l1.5-3.93h.45l1.51,3.93h-.54Zm-1.49-.42h1.34l-.67-1.84Zm5.31,0a1.74,1.74,0,0,1-.3,1.07,1,1,0,0,1-.83.41,1.07,1.07,0,0,1-.83-.33v1.4h-.5v-4h.45l0,.33a1.1,1.1,0,0,1,1.67,0,1.76,1.76,0,0,1,.31,1.11Zm-.5-.05a1.29,1.29,0,0,0-.21-.78.68.68,0,0,0-.58-.29.72.72,0,0,0-.67.4v1.4a.72.72,0,0,0,.68.39.67.67,0,0,0,.57-.28A1.41,1.41,0,0,0,128.39,132.2Zm2.55-1-.25,0a.66.66,0,0,0-.67.42v2.07h-.49v-2.92H130v.34a.76.76,0,0,1,.69-.39.67.67,0,0,1,.23,0Zm4.35,2.47h-2.58v-.36l1.36-1.51a3.83,3.83,0,0,0,.42-.55.93.93,0,0,0,.11-.45.7.7,0,0,0-.18-.5.67.67,0,0,0-.5-.2.79.79,0,0,0-.58.21.84.84,0,0,0-.2.59h-.5A1.19,1.19,0,0,1,133,130a1.29,1.29,0,0,1,.93-.33,1.25,1.25,0,0,1,.87.29,1,1,0,0,1,.32.76,2.24,2.24,0,0,1-.74,1.38l-1.05,1.14h2Zm2.16,0H137v-3.33l-1,.37v-.45l1.43-.53h.07Z" transform="translate(0 -35)"/><path class="cls-2" d="M165.17,131.86h-1.7v1.4h2v.42H163v-3.93h2.46v.43h-1.95v1.26h1.7Zm1.32-1.1v.37a1.08,1.08,0,0,1,.88-.42c.61,0,.92.34.93,1v1.93h-.5v-1.93a.65.65,0,0,0-.15-.47.55.55,0,0,0-.43-.15.69.69,0,0,0-.43.13,1,1,0,0,0-.29.34v2.08H166v-2.92Zm2.45,1.44a1.71,1.71,0,0,1,.32-1.08,1.08,1.08,0,0,1,1.64-.06v-1.52h.5v4.14h-.46l0-.31a1,1,0,0,1-.83.36,1,1,0,0,1-.83-.41,1.76,1.76,0,0,1-.32-1.09Zm.5.05a1.36,1.36,0,0,0,.2.78.67.67,0,0,0,.57.28.71.71,0,0,0,.69-.43v-1.34a.74.74,0,0,0-.69-.41.69.69,0,0,0-.57.28A1.49,1.49,0,0,0,169.44,132.25Zm4-.05a1.71,1.71,0,0,1,.31-1.08,1.09,1.09,0,0,1,1.65-.06v-1.52h.5v4.14h-.46l0-.31a1,1,0,0,1-.83.36,1,1,0,0,1-.83-.41,1.76,1.76,0,0,1-.31-1.09Zm.49.05a1.29,1.29,0,0,0,.21.78.67.67,0,0,0,.57.28.73.73,0,0,0,.69-.43v-1.34a.74.74,0,0,0-.69-.41.69.69,0,0,0-.57.28A1.41,1.41,0,0,0,173.92,132.25Zm4.54,1.43a1.1,1.1,0,0,1-.07-.31,1.11,1.11,0,0,1-.83.36,1.07,1.07,0,0,1-.71-.24.8.8,0,0,1-.27-.62.84.84,0,0,1,.35-.71,1.6,1.6,0,0,1,1-.25h.49v-.23a.57.57,0,0,0-.16-.41.6.6,0,0,0-.46-.16.73.73,0,0,0-.45.13.4.4,0,0,0-.18.33h-.5a.72.72,0,0,1,.15-.42,1,1,0,0,1,.42-.32,1.45,1.45,0,0,1,.59-.12,1.15,1.15,0,0,1,.79.25.88.88,0,0,1,.29.69V133a1.55,1.55,0,0,0,.11.63v.05Zm-.82-.38a.88.88,0,0,0,.44-.12.79.79,0,0,0,.31-.32v-.6H178c-.61,0-.91.18-.91.54a.44.44,0,0,0,.16.37A.62.62,0,0,0,177.64,133.3Zm2.7-3.25v.71h.55v.39h-.55V133a.4.4,0,0,0,.08.26.28.28,0,0,0,.24.09.85.85,0,0,0,.24,0v.41a1.73,1.73,0,0,1-.38,0,.65.65,0,0,1-.51-.2.88.88,0,0,1-.17-.57v-1.81h-.53v-.39h.53v-.71Zm2.34,3.68a1.27,1.27,0,0,1-1-.39,1.42,1.42,0,0,1-.37-1v-.09a1.71,1.71,0,0,1,.16-.77,1.36,1.36,0,0,1,.46-.54,1.17,1.17,0,0,1,.65-.19,1.11,1.11,0,0,1,.89.37,1.68,1.68,0,0,1,.31,1.07v.21h-2a1,1,0,0,0,.26.7.77.77,0,0,0,.61.26.88.88,0,0,0,.45-.1,1.1,1.1,0,0,0,.32-.29l.3.24A1.23,1.23,0,0,1,182.68,133.73Zm-.06-2.61a.67.67,0,0,0-.51.22,1.07,1.07,0,0,0-.25.61h1.46v0a.92.92,0,0,0-.2-.58A.64.64,0,0,0,182.62,131.12Zm1.76,2.3a.33.33,0,0,1,.08-.22.37.37,0,0,1,.46,0,.29.29,0,0,1,.08.22.24.24,0,0,1-.08.2.34.34,0,0,1-.46,0A.28.28,0,0,1,184.38,133.42Zm0-2.38a.32.32,0,0,1,.07-.22.28.28,0,0,1,.23-.08.31.31,0,0,1,.24.08.33.33,0,0,1,.08.22.28.28,0,0,1-.08.2.31.31,0,0,1-.24.09.29.29,0,0,1-.23-.09A.27.27,0,0,1,184.39,131Zm5,1.61h-1.64l-.37,1h-.54l1.5-3.93h.46l1.5,3.93h-.53Zm-1.49-.42h1.34l-.67-1.84Zm5.31,0a1.74,1.74,0,0,1-.3,1.07,1,1,0,0,1-.83.41,1.07,1.07,0,0,1-.83-.33v1.4h-.5v-4h.45l0,.33a1.1,1.1,0,0,1,1.67,0,1.76,1.76,0,0,1,.31,1.11Zm-.5-.05a1.29,1.29,0,0,0-.21-.78.68.68,0,0,0-.57-.29.72.72,0,0,0-.68.4v1.4a.73.73,0,0,0,.68.39.67.67,0,0,0,.57-.28A1.41,1.41,0,0,0,192.67,132.2Zm2.55-1-.25,0a.65.65,0,0,0-.66.42v2.07h-.5v-2.92h.48v.34a.78.78,0,0,1,.7-.39.65.65,0,0,1,.22,0Zm4.35,2.47H197v-.36l1.36-1.51a3,3,0,0,0,.41-.55,1,1,0,0,0,.12-.45.7.7,0,0,0-.19-.5.65.65,0,0,0-.49-.2.76.76,0,0,0-.58.21.8.8,0,0,0-.21.59h-.5a1.19,1.19,0,0,1,.35-.88,1.31,1.31,0,0,1,.94-.33,1.24,1.24,0,0,1,.86.29,1,1,0,0,1,.32.76,2.24,2.24,0,0,1-.74,1.38l-1.05,1.14h2Zm2.91-2.9a.87.87,0,0,1-.16.52,1.06,1.06,0,0,1-.42.36,1.18,1.18,0,0,1,.49.38,1,1,0,0,1,.18.58,1,1,0,0,1-.35.81,1.29,1.29,0,0,1-.9.3,1.33,1.33,0,0,1-.91-.3,1,1,0,0,1-.34-.81,1.09,1.09,0,0,1,.17-.58,1,1,0,0,1,.49-.38,1,1,0,0,1-.41-.36.87.87,0,0,1-.16-.52,1,1,0,0,1,.32-.79,1.36,1.36,0,0,1,1.68,0A1,1,0,0,1,202.48,130.78Zm-.41,1.83a.72.72,0,0,0-.75-.75.74.74,0,0,0-.55.21.75.75,0,0,0-.2.54.69.69,0,0,0,.2.52.89.89,0,0,0,1.1,0A.7.7,0,0,0,202.07,132.61Zm-.75-2.5a.62.62,0,0,0-.66.68.66.66,0,1,0,1.32,0,.64.64,0,0,0-.19-.49A.61.61,0,0,0,201.32,130.11Z" transform="translate(0 -35)"/><path class="cls-2" d="M217.85,133.68v-3.93H219a1.78,1.78,0,0,1,.91.23,1.63,1.63,0,0,1,.61.64,2.12,2.12,0,0,1,.21,1v.26a2.13,2.13,0,0,1-.21,1,1.51,1.51,0,0,1-.61.64,1.86,1.86,0,0,1-.93.23Zm.51-3.5v3.08h.55a1.18,1.18,0,0,0,.93-.38,1.55,1.55,0,0,0,.33-1.06v-.22a1.54,1.54,0,0,0-.31-1,1.11,1.11,0,0,0-.89-.38Zm4.83,3.21a1,1,0,0,1-.85.34.91.91,0,0,1-.71-.27,1.13,1.13,0,0,1-.25-.8v-1.9h.5v1.89q0,.66.54.66a.75.75,0,0,0,.76-.43v-2.12h.5v2.92h-.48Zm2.66-2.18-.25,0a.64.64,0,0,0-.66.42v2.07h-.5v-2.92h.48v.34a.78.78,0,0,1,.7-.39.65.65,0,0,1,.22,0Zm2.15,2.47a1.1,1.1,0,0,1-.07-.31,1.11,1.11,0,0,1-.83.36,1.05,1.05,0,0,1-.71-.24.8.8,0,0,1-.27-.62.83.83,0,0,1,.34-.71,1.63,1.63,0,0,1,1-.25h.48v-.23a.56.56,0,0,0-.15-.41.62.62,0,0,0-.47-.16.72.72,0,0,0-.44.13.4.4,0,0,0-.18.33h-.5a.72.72,0,0,1,.15-.42.91.91,0,0,1,.42-.32,1.41,1.41,0,0,1,.59-.12,1.17,1.17,0,0,1,.79.25.92.92,0,0,1,.29.69V133a1.76,1.76,0,0,0,.1.63v.05Zm-.83-.38a.89.89,0,0,0,.45-.12.71.71,0,0,0,.3-.32v-.6h-.39c-.61,0-.91.18-.91.54a.47.47,0,0,0,.15.37A.66.66,0,0,0,227.17,133.3Zm2.71-3.25v.71h.54v.39h-.54V133a.4.4,0,0,0,.07.26.3.3,0,0,0,.25.09.85.85,0,0,0,.24,0v.41a1.74,1.74,0,0,1-.39,0,.63.63,0,0,1-.5-.2.88.88,0,0,1-.17-.57v-1.81h-.53v-.39h.53v-.71Zm1.67,3.63h-.5v-2.92h.5ZM231,130a.32.32,0,0,1,.08-.21.28.28,0,0,1,.22-.08.26.26,0,0,1,.29.29.27.27,0,0,1-.07.2.31.31,0,0,1-.22.08.28.28,0,0,1-.3-.28Zm1.21,2.2a1.64,1.64,0,0,1,.17-.77,1.28,1.28,0,0,1,.47-.53,1.3,1.3,0,0,1,.68-.18,1.26,1.26,0,0,1,1,.41,1.62,1.62,0,0,1,.37,1.1v0a1.74,1.74,0,0,1-.17.77,1.19,1.19,0,0,1-.47.52,1.23,1.23,0,0,1-.69.19,1.19,1.19,0,0,1-1-.41,1.57,1.57,0,0,1-.37-1.09Zm.5.06a1.23,1.23,0,0,0,.23.78.77.77,0,0,0,1.2,0,1.38,1.38,0,0,0,.23-.84,1.22,1.22,0,0,0-.23-.77.73.73,0,0,0-.61-.3.7.7,0,0,0-.59.29A1.38,1.38,0,0,0,232.72,132.25Zm3.25-1.49,0,.37a1.05,1.05,0,0,1,.87-.42c.62,0,.93.34.93,1v1.93h-.49v-1.93a.75.75,0,0,0-.15-.47.57.57,0,0,0-.44-.15.68.68,0,0,0-.42.13.87.87,0,0,0-.29.34v2.08h-.5v-2.92Zm2.56,2.66a.33.33,0,0,1,.08-.22.37.37,0,0,1,.46,0,.33.33,0,0,1,.08.22.28.28,0,0,1-.08.2.34.34,0,0,1-.46,0A.28.28,0,0,1,238.53,133.42Zm0-2.38a.33.33,0,0,1,.08-.22.37.37,0,0,1,.46,0,.29.29,0,0,1,.08.22.24.24,0,0,1-.08.2.34.34,0,0,1-.46,0A.28.28,0,0,1,238.53,131Zm5.21-1-1.63,3.65h-.52l1.62-3.52h-2.13v-.41h2.66Zm1.86,2.17a1.71,1.71,0,0,1,.32-1.08,1.08,1.08,0,0,1,1.64-.06v-1.52h.5v4.14h-.46l0-.31a1,1,0,0,1-.83.36,1,1,0,0,1-.83-.41,1.76,1.76,0,0,1-.32-1.09Zm.5.05a1.36,1.36,0,0,0,.2.78.67.67,0,0,0,.57.28.71.71,0,0,0,.69-.43v-1.34a.74.74,0,0,0-.68-.41.7.7,0,0,0-.58.28A1.49,1.49,0,0,0,246.1,132.25Zm4.54,1.43a1.1,1.1,0,0,1-.07-.31,1.11,1.11,0,0,1-.83.36,1,1,0,0,1-.71-.24.8.8,0,0,1-.27-.62.83.83,0,0,1,.34-.71,1.63,1.63,0,0,1,1-.25h.48v-.23a.53.53,0,0,0-.16-.41.59.59,0,0,0-.46-.16.72.72,0,0,0-.44.13.4.4,0,0,0-.18.33h-.51a.74.74,0,0,1,.16-.42.91.91,0,0,1,.42-.32,1.4,1.4,0,0,1,.58-.12,1.14,1.14,0,0,1,.79.25.92.92,0,0,1,.3.69V133a1.57,1.57,0,0,0,.1.63v.05Zm-.83-.38a.89.89,0,0,0,.45-.12.71.71,0,0,0,.3-.32v-.6h-.39c-.61,0-.92.18-.92.54a.47.47,0,0,0,.16.37A.64.64,0,0,0,249.81,133.3Zm2.94-.35.68-2.19H254l-1.18,3.37c-.18.48-.47.73-.86.73h-.1l-.18,0v-.4h.13a.68.68,0,0,0,.4-.1.8.8,0,0,0,.23-.38l.11-.29-1-2.89H252Zm3.36,0a.37.37,0,0,0-.15-.31,1.49,1.49,0,0,0-.53-.19,2.62,2.62,0,0,1-.6-.2.75.75,0,0,1-.33-.27.62.62,0,0,1-.11-.37.74.74,0,0,1,.3-.6,1.37,1.37,0,0,1,1.58,0,.81.81,0,0,1,.31.66h-.5a.46.46,0,0,0-.17-.35.65.65,0,0,0-.44-.15.71.71,0,0,0-.43.12.37.37,0,0,0-.15.31.31.31,0,0,0,.14.27,1.72,1.72,0,0,0,.52.17,3.21,3.21,0,0,1,.6.2.92.92,0,0,1,.35.28.72.72,0,0,1,.11.4.75.75,0,0,1-.31.63,1.36,1.36,0,0,1-.81.23,1.49,1.49,0,0,1-.62-.12,1.06,1.06,0,0,1-.43-.35.85.85,0,0,1-.15-.48h.5a.54.54,0,0,0,.2.4.78.78,0,0,0,.5.14.75.75,0,0,0,.45-.11A.37.37,0,0,0,256.11,132.9Z" transform="translate(0 -35)"/><rect class="cls-3" x="43.86" y="72.5" width="279.18" height="35.72" rx="4.06"/><rect class="cls-3" x="43.86" y="116.15" width="279.18" height="36.4" rx="4.06"/><path class="cls-4" d="M99.18,161.43h46.71a3.13,3.13,0,0,1,3.13,3.13h0a3.13,3.13,0,0,1-3.13,3.13H99.18a3.13,3.13,0,0,1-3.13-3.13h0A3.13,3.13,0,0,1,99.18,161.43Z" transform="translate(0 -35)"/><path class="cls-5" d="M97.74,173h49.59a1.69,1.69,0,0,1,1.69,1.68h0a1.69,1.69,0,0,1-1.69,1.69H97.74a1.69,1.69,0,0,1-1.69-1.69h0A1.69,1.69,0,0,1,97.74,173Z" transform="translate(0 -35)"/><path class="cls-5" d="M160.33,173h49.6a1.68,1.68,0,0,1,1.68,1.68h0a1.69,1.69,0,0,1-1.68,1.69h-49.6a1.69,1.69,0,0,1-1.68-1.69h0A1.68,1.68,0,0,1,160.33,173Z" transform="translate(0 -35)"/><path class="cls-5" d="M222.93,173h49.59a1.69,1.69,0,0,1,1.69,1.68h0a1.69,1.69,0,0,1-1.69,1.69H222.93a1.69,1.69,0,0,1-1.69-1.69h0A1.69,1.69,0,0,1,222.93,173Z" transform="translate(0 -35)"/><path class="cls-5" d="M62.11,168.17h13a1.68,1.68,0,0,1,1.68,1.69h0a1.68,1.68,0,0,1-1.68,1.68h-13a1.68,1.68,0,0,1-1.69-1.68h0A1.68,1.68,0,0,1,62.11,168.17Z" transform="translate(0 -35)"/><rect class="cls-3" x="43.86" y="165.93" width="279.18" height="36.4" rx="4.06"/><path class="cls-4" d="M99.18,211.08h46.71a3.13,3.13,0,0,1,3.13,3.13h0a3.13,3.13,0,0,1-3.13,3.13H99.18a3.13,3.13,0,0,1-3.13-3.13h0A3.13,3.13,0,0,1,99.18,211.08Z" transform="translate(0 -35)"/><path class="cls-5" d="M97.74,222.64h49.59a1.69,1.69,0,0,1,1.69,1.68h0a1.69,1.69,0,0,1-1.69,1.69H97.74a1.69,1.69,0,0,1-1.69-1.69h0A1.69,1.69,0,0,1,97.74,222.64Z" transform="translate(0 -35)"/><path class="cls-5" d="M160.33,222.64h49.6a1.68,1.68,0,0,1,1.68,1.68h0a1.69,1.69,0,0,1-1.68,1.69h-49.6a1.69,1.69,0,0,1-1.68-1.69h0A1.68,1.68,0,0,1,160.33,222.64Z" transform="translate(0 -35)"/><path class="cls-5" d="M222.93,222.64h49.59a1.69,1.69,0,0,1,1.69,1.68h0a1.69,1.69,0,0,1-1.69,1.69H222.93a1.69,1.69,0,0,1-1.69-1.69h0A1.69,1.69,0,0,1,222.93,222.64Z" transform="translate(0 -35)"/><path class="cls-5" d="M62.11,217.82h13a1.69,1.69,0,0,1,1.68,1.69h0a1.68,1.68,0,0,1-1.68,1.68h-13a1.68,1.68,0,0,1-1.69-1.68h0A1.69,1.69,0,0,1,62.11,217.82Z" transform="translate(0 -35)"/><rect class="cls-6" x="124.29" y="0.29" width="176.11" height="217.8" rx="5.58"/><path d="M148.56,52h-2.68v7.28h-1.79V52h-2.64V50.51h7.11Zm2.84,4.82,1.2-4h1.86l-2.61,7.49-.14.34a2,2,0,0,1-1.92,1.27,2.65,2.65,0,0,1-.77-.11V60.43h.27a1.4,1.4,0,0,0,.73-.15,1,1,0,0,0,.38-.49l.21-.54-2.27-6.5h1.86Zm9.58-.73a3.89,3.89,0,0,1-.68,2.41,2.17,2.17,0,0,1-1.84.9,2,2,0,0,1-1.58-.69v3.06h-1.73v-9h1.6l.06.64a2,2,0,0,1,1.64-.76,2.22,2.22,0,0,1,1.87.89A4,4,0,0,1,161,56Zm-1.73-.12a2.59,2.59,0,0,0-.32-1.4A1.05,1.05,0,0,0,158,54a1.13,1.13,0,0,0-1.12.62v2.66A1.16,1.16,0,0,0,158,58C158.84,58,159.25,57.28,159.25,55.93Zm5.8,3.43a3.22,3.22,0,0,1-2.33-.88,3.13,3.13,0,0,1-.89-2.33V56a3.77,3.77,0,0,1,.38-1.74,2.73,2.73,0,0,1,1.06-1.19,3,3,0,0,1,1.58-.42,2.7,2.7,0,0,1,2.1.84,3.4,3.4,0,0,1,.76,2.38v.71h-4.13a1.66,1.66,0,0,0,.51,1,1.56,1.56,0,0,0,1.07.38,1.87,1.87,0,0,0,1.57-.73l.85,1a2.74,2.74,0,0,1-1.06.86A3.52,3.52,0,0,1,165.05,59.36Zm-.2-5.33a1.12,1.12,0,0,0-.84.35,1.81,1.81,0,0,0-.41,1H166v-.14a1.28,1.28,0,0,0-.31-.89A1.12,1.12,0,0,0,164.85,54Zm6.64,1.9a3.84,3.84,0,0,1,.37-1.72A2.75,2.75,0,0,1,172.93,53a3.2,3.2,0,0,1,1.62-.41,3,3,0,0,1,2.14.8,3.21,3.21,0,0,1,.93,2.19v.44a3.4,3.4,0,0,1-.83,2.4,2.9,2.9,0,0,1-2.23.9,2.93,2.93,0,0,1-2.25-.9,3.49,3.49,0,0,1-.83-2.45Zm1.73.13a2.42,2.42,0,0,0,.35,1.41,1.14,1.14,0,0,0,1,.49,1.16,1.16,0,0,0,1-.48,2.71,2.71,0,0,0,.35-1.55,2.43,2.43,0,0,0-.35-1.4,1.17,1.17,0,0,0-1-.5,1.13,1.13,0,0,0-1,.5A2.7,2.7,0,0,0,173.22,56.06Zm5.95,3.18V54h-1V52.75h1V52.2a2.22,2.22,0,0,1,.63-1.69,2.39,2.39,0,0,1,1.75-.61,4,4,0,0,1,.88.12v1.35a2,2,0,0,0-.53-.06c-.65,0-1,.31-1,.92v.52h1.29V54h-1.29v5.22Zm7.1,0V50.51h3.06a4,4,0,0,1,2.41.61,2.09,2.09,0,0,1,.82,1.78,1.91,1.91,0,0,1-1.25,1.85,1.83,1.83,0,0,1,1.06.67,2,2,0,0,1,.39,1.25,2.31,2.31,0,0,1-.81,1.91,3.63,3.63,0,0,1-2.29.66Zm1.8-3.8v2.35h1.54a1.5,1.5,0,0,0,1-.3,1,1,0,0,0,.36-.84,1.09,1.09,0,0,0-1.24-1.21Zm0-1.28h1.33c.91,0,1.36-.37,1.36-1.08a1,1,0,0,0-.35-.85,1.75,1.75,0,0,0-1.08-.27h-1.26Zm9.81,4.42a2.17,2.17,0,0,1-1.77.78,2.07,2.07,0,0,1-1.6-.6A2.56,2.56,0,0,1,194,57V52.75h1.73v4.19c0,.68.3,1,.92,1a1.24,1.24,0,0,0,1.21-.61V52.75h1.74v6.49h-1.63Zm5.41-1.8,1.2-4h1.85l-2.6,7.49-.15.34a2,2,0,0,1-1.91,1.27,2.56,2.56,0,0,1-.77-.11V60.43h.26a1.4,1.4,0,0,0,.73-.15,1,1,0,0,0,.39-.49l.2-.54-2.27-6.5h1.86Z" transform="translate(0 -35)"/><path d="M157.4,85.6h-2.63v2.77H154V82.1h3.88v.68h-3.06v2.14h2.63Zm3.44-1.17a1.61,1.61,0,0,0-.39,0,1.06,1.06,0,0,0-1.07.67v3.31h-.79V83.71h.77v.54a1.23,1.23,0,0,1,1.11-.63.84.84,0,0,1,.36.06Zm2.58,4a2,2,0,0,1-1.54-.62,2.29,2.29,0,0,1-.6-1.66V86a2.71,2.71,0,0,1,.27-1.23,2.08,2.08,0,0,1,.74-.86,1.91,1.91,0,0,1,1-.31,1.72,1.72,0,0,1,1.41.6,2.58,2.58,0,0,1,.51,1.72v.33h-3.16a1.67,1.67,0,0,0,.4,1.11,1.29,1.29,0,0,0,1,.42,1.37,1.37,0,0,0,.72-.17,1.8,1.8,0,0,0,.51-.45l.49.37A2,2,0,0,1,163.42,88.45Zm-.1-4.17a1.08,1.08,0,0,0-.81.35,1.66,1.66,0,0,0-.4,1h2.33v-.06a1.5,1.5,0,0,0-.33-.94A1,1,0,0,0,163.32,84.28ZM166,86a2.74,2.74,0,0,1,.5-1.73,1.77,1.77,0,0,1,2.66-.09l0-.47h.73v6.45h-.79V87.94a1.68,1.68,0,0,1-1.28.51,1.59,1.59,0,0,1-1.35-.65,2.77,2.77,0,0,1-.5-1.74Zm.79.09a2.14,2.14,0,0,0,.34,1.26,1.09,1.09,0,0,0,.91.45,1.18,1.18,0,0,0,1.09-.62V84.89a1.19,1.19,0,0,0-1.08-.61,1.09,1.09,0,0,0-.92.46A2.27,2.27,0,0,0,166.76,86.09Zm7.29,1.82a1.71,1.71,0,0,1-1.37.54,1.44,1.44,0,0,1-1.13-.43,1.9,1.9,0,0,1-.4-1.28v-3h.8v3c0,.71.29,1.06.86,1.06A1.2,1.2,0,0,0,174,87.1V83.71h.79v4.66h-.75Zm3.92.54a2,2,0,0,1-1.54-.62,2.28,2.28,0,0,1-.59-1.66V86a2.71,2.71,0,0,1,.26-1.23,2,2,0,0,1,.74-.86,1.91,1.91,0,0,1,1-.31,1.72,1.72,0,0,1,1.41.6,2.58,2.58,0,0,1,.51,1.72v.33h-3.16a1.67,1.67,0,0,0,.4,1.11,1.29,1.29,0,0,0,1,.42,1.37,1.37,0,0,0,.72-.17,1.8,1.8,0,0,0,.51-.45l.49.37A2,2,0,0,1,178,88.45Zm-.1-4.17a1.08,1.08,0,0,0-.81.35,1.66,1.66,0,0,0-.4,1H179v-.06a1.5,1.5,0,0,0-.33-.94A1,1,0,0,0,177.87,84.28Zm3.6-.57,0,.59a1.71,1.71,0,0,1,1.4-.68c1,0,1.48.56,1.49,1.67v3.08h-.8V85.29a1.07,1.07,0,0,0-.23-.75.93.93,0,0,0-.7-.24,1.17,1.17,0,0,0-.69.21,1.41,1.41,0,0,0-.45.54v3.32h-.8V83.71Zm6,4.09a1.14,1.14,0,0,0,.74-.25.92.92,0,0,0,.35-.65h.76a1.47,1.47,0,0,1-.28.76,1.76,1.76,0,0,1-.68.58,2,2,0,0,1-.89.21,1.94,1.94,0,0,1-1.52-.63,2.54,2.54,0,0,1-.56-1.74V86a2.76,2.76,0,0,1,.25-1.21,1.86,1.86,0,0,1,.72-.82,2,2,0,0,1,1.1-.3,1.87,1.87,0,0,1,1.3.47,1.71,1.71,0,0,1,.56,1.22h-.76a1.05,1.05,0,0,0-.34-.74,1.09,1.09,0,0,0-.76-.29,1.12,1.12,0,0,0-.94.44,2.06,2.06,0,0,0-.33,1.26v.15a2,2,0,0,0,.33,1.24A1.12,1.12,0,0,0,187.45,87.8Zm4.27-.6,1.08-3.49h.85l-1.87,5.38c-.29.77-.75,1.16-1.38,1.16h-.15l-.3-.06v-.64h.22a1,1,0,0,0,.62-.16,1.15,1.15,0,0,0,.38-.6l.18-.47-1.67-4.61h.87Z" transform="translate(0 -35)"/><path d="M154.94,126.88h-.83v-6.27h.83Zm2.14-4.66,0,.52a1.72,1.72,0,0,1,1.38-.6,1.33,1.33,0,0,1,1.33.75,1.86,1.86,0,0,1,.6-.55,1.92,1.92,0,0,1,.89-.2q1.53,0,1.56,1.62v3.12h-.8v-3.07a1.08,1.08,0,0,0-.23-.75,1,1,0,0,0-.76-.25,1,1,0,0,0-.74.27,1,1,0,0,0-.34.71v3.09h-.8v-3a.89.89,0,0,0-1-1,1.07,1.07,0,0,0-1.07.67v3.4h-.8v-4.66ZM168,124.6a2.85,2.85,0,0,1-.49,1.72,1.57,1.57,0,0,1-1.32.65,1.7,1.7,0,0,1-1.33-.54v2.24h-.8v-6.45h.73l0,.52a1.63,1.63,0,0,1,1.35-.6,1.6,1.6,0,0,1,1.33.63,2.85,2.85,0,0,1,.49,1.76Zm-.8-.09a2,2,0,0,0-.34-1.24,1.06,1.06,0,0,0-.92-.46,1.17,1.17,0,0,0-1.08.65v2.22a1.16,1.16,0,0,0,1.09.64,1.07,1.07,0,0,0,.91-.46A2.2,2.2,0,0,0,167.2,124.51Zm4.06-1.57a2.38,2.38,0,0,0-.39,0,1,1,0,0,0-1.06.66v3.31H169v-4.66h.78v.54a1.25,1.25,0,0,1,1.11-.62.79.79,0,0,1,.35.06Zm2.59,4a2.06,2.06,0,0,1-1.55-.62,2.35,2.35,0,0,1-.59-1.67v-.14a2.86,2.86,0,0,1,.26-1.24,2.06,2.06,0,0,1,.74-.85,1.86,1.86,0,0,1,1-.31,1.75,1.75,0,0,1,1.41.6,2.62,2.62,0,0,1,.5,1.71v.33h-3.15a1.66,1.66,0,0,0,.4,1.12,1.27,1.27,0,0,0,1,.42,1.31,1.31,0,0,0,.71-.18,1.71,1.71,0,0,0,.52-.45l.48.38A2,2,0,0,1,173.85,127Zm-.1-4.18a1.08,1.08,0,0,0-.81.35,1.77,1.77,0,0,0-.41,1h2.34v-.06a1.57,1.57,0,0,0-.33-.94A1,1,0,0,0,173.75,122.79Zm5.55,2.86a.55.55,0,0,0-.25-.5,2.1,2.1,0,0,0-.84-.31,4.16,4.16,0,0,1-1-.31,1.47,1.47,0,0,1-.53-.43,1.08,1.08,0,0,1-.17-.6,1.21,1.21,0,0,1,.49-1,2.18,2.18,0,0,1,2.52,0,1.28,1.28,0,0,1,.49,1h-.8A.7.7,0,0,0,179,123a1,1,0,0,0-.69-.24,1.12,1.12,0,0,0-.68.19.59.59,0,0,0-.25.5.49.49,0,0,0,.23.43,2.79,2.79,0,0,0,.82.28,4.58,4.58,0,0,1,1,.32,1.33,1.33,0,0,1,.55.45,1.07,1.07,0,0,1,.18.63,1.19,1.19,0,0,1-.5,1,2.13,2.13,0,0,1-1.3.38,2.4,2.4,0,0,1-1-.2,1.6,1.6,0,0,1-.67-.55,1.37,1.37,0,0,1-.24-.77h.79a.83.83,0,0,0,.32.63,1.24,1.24,0,0,0,.79.24,1.28,1.28,0,0,0,.72-.18A.57.57,0,0,0,179.3,125.65Zm4.55,0a.58.58,0,0,0-.25-.5,2.16,2.16,0,0,0-.85-.31,4.33,4.33,0,0,1-1-.31,1.43,1.43,0,0,1-.52-.43,1.08,1.08,0,0,1-.17-.6,1.23,1.23,0,0,1,.48-1,1.94,1.94,0,0,1,1.24-.39,1.88,1.88,0,0,1,1.28.41,1.29,1.29,0,0,1,.5,1h-.8a.7.7,0,0,0-.28-.56,1,1,0,0,0-.7-.24,1.14,1.14,0,0,0-.68.19.61.61,0,0,0-.24.5.47.47,0,0,0,.23.43,2.68,2.68,0,0,0,.82.28,4.58,4.58,0,0,1,1,.32,1.29,1.29,0,0,1,.54.45,1.07,1.07,0,0,1,.18.63,1.17,1.17,0,0,1-.5,1,2.08,2.08,0,0,1-1.29.38,2.4,2.4,0,0,1-1-.2,1.69,1.69,0,0,1-.68-.55,1.37,1.37,0,0,1-.24-.77h.8a.8.8,0,0,0,.32.63,1.22,1.22,0,0,0,.79.24,1.28,1.28,0,0,0,.72-.18A.57.57,0,0,0,183.85,125.65Zm2.7,1.23h-.8v-4.66h.8Zm-.87-5.89a.48.48,0,0,1,.12-.33.45.45,0,0,1,.35-.13.45.45,0,0,1,.36.13.48.48,0,0,1,.12.33.43.43,0,0,1-.48.45.45.45,0,0,1-.35-.13A.45.45,0,0,1,185.68,121Zm1.93,3.52a2.71,2.71,0,0,1,.27-1.23,2,2,0,0,1,.75-.85,2.12,2.12,0,0,1,1.1-.29,2,2,0,0,1,1.53.66,2.49,2.49,0,0,1,.59,1.75v0a2.74,2.74,0,0,1-.26,1.23,2.08,2.08,0,0,1-.74.84,2.1,2.1,0,0,1-1.11.3,2,2,0,0,1-1.54-.66,2.53,2.53,0,0,1-.59-1.74Zm.8.09a2,2,0,0,0,.36,1.25,1.16,1.16,0,0,0,1,.47,1.14,1.14,0,0,0,1-.48,2.15,2.15,0,0,0,.36-1.33,1.93,1.93,0,0,0-.37-1.24,1.2,1.2,0,0,0-1.91,0A2.16,2.16,0,0,0,188.41,124.6Zm5.2-2.38,0,.59a1.7,1.7,0,0,1,1.4-.67c1,0,1.48.55,1.49,1.66v3.08h-.8V123.8a1.07,1.07,0,0,0-.23-.75.93.93,0,0,0-.7-.24,1.12,1.12,0,0,0-.68.21,1.42,1.42,0,0,0-.46.54v3.32h-.8v-4.66Zm6.82,3.43a.55.55,0,0,0-.25-.5,2.17,2.17,0,0,0-.84-.31,4,4,0,0,1-1-.31,1.47,1.47,0,0,1-.53-.43,1.08,1.08,0,0,1-.17-.6,1.23,1.23,0,0,1,.48-1,2.2,2.2,0,0,1,2.53,0,1.28,1.28,0,0,1,.49,1h-.8a.7.7,0,0,0-.28-.56,1,1,0,0,0-.7-.24,1.11,1.11,0,0,0-.67.19.59.59,0,0,0-.25.5.49.49,0,0,0,.23.43,2.68,2.68,0,0,0,.82.28,4.58,4.58,0,0,1,1,.32,1.29,1.29,0,0,1,.54.45,1,1,0,0,1,.19.63,1.19,1.19,0,0,1-.5,1,2.13,2.13,0,0,1-1.3.38,2.4,2.4,0,0,1-1-.2,1.69,1.69,0,0,1-.68-.55,1.37,1.37,0,0,1-.24-.77h.8a.83.83,0,0,0,.32.63,1.22,1.22,0,0,0,.79.24,1.28,1.28,0,0,0,.72-.18A.57.57,0,0,0,200.43,125.65Zm8.77.41a1.92,1.92,0,0,1-.89.68A3.58,3.58,0,0,1,207,127a2.56,2.56,0,0,1-1.36-.36,2.42,2.42,0,0,1-.93-1,3.75,3.75,0,0,1-.33-1.54v-.55a3.29,3.29,0,0,1,.66-2.19,2.3,2.3,0,0,1,1.86-.78,2.34,2.34,0,0,1,1.58.5,2.18,2.18,0,0,1,.73,1.42h-.82a1.37,1.37,0,0,0-1.48-1.24,1.48,1.48,0,0,0-1.27.58,2.94,2.94,0,0,0-.43,1.69V124a2.67,2.67,0,0,0,.49,1.68,1.56,1.56,0,0,0,1.3.62,2.8,2.8,0,0,0,.81-.1,1.26,1.26,0,0,0,.58-.35v-1.41h-1.45v-.67h2.27Zm1.05-1.55a2.71,2.71,0,0,1,.27-1.23,2.06,2.06,0,0,1,.74-.85,2.15,2.15,0,0,1,1.1-.29,2,2,0,0,1,1.54.66,2.54,2.54,0,0,1,.59,1.75v0a2.88,2.88,0,0,1-.26,1.23,2.1,2.1,0,0,1-.75.84,2.05,2.05,0,0,1-1.11.3,2,2,0,0,1-1.53-.66,2.53,2.53,0,0,1-.59-1.74Zm.8.09a2,2,0,0,0,.36,1.25,1.22,1.22,0,0,0,1.93,0,2.22,2.22,0,0,0,.35-1.33,2,2,0,0,0-.36-1.24,1.21,1.21,0,0,0-1.92,0A2.16,2.16,0,0,0,211.05,124.6Zm7.31,2.28a1.89,1.89,0,0,1-.11-.49,1.75,1.75,0,0,1-1.32.58,1.68,1.68,0,0,1-1.14-.39,1.28,1.28,0,0,1-.44-1,1.33,1.33,0,0,1,.56-1.13,2.6,2.6,0,0,1,1.55-.4h.78v-.37A.86.86,0,0,0,218,123a1,1,0,0,0-.74-.25,1.17,1.17,0,0,0-.71.21.65.65,0,0,0-.29.52h-.8a1.08,1.08,0,0,1,.25-.67,1.66,1.66,0,0,1,.67-.51,2.18,2.18,0,0,1,.93-.19,1.82,1.82,0,0,1,1.26.4,1.47,1.47,0,0,1,.48,1.11v2.14a2.59,2.59,0,0,0,.16,1v.07Zm-1.32-.61a1.38,1.38,0,0,0,.71-.19,1.18,1.18,0,0,0,.49-.5v-1h-.62c-1,0-1.47.29-1.47.86a.73.73,0,0,0,.25.58A1,1,0,0,0,217,126.27Zm4.11.61h-.8v-6.61h.8Z" transform="translate(0 -35)"/><path d="M155.79,147.86a3.92,3.92,0,0,1-1.55-.75,1.44,1.44,0,0,1-.48-1.1,1.51,1.51,0,0,1,.59-1.22,2.33,2.33,0,0,1,1.54-.49,2.5,2.5,0,0,1,1.15.25,2,2,0,0,1,.79.69,1.79,1.79,0,0,1,.28,1h-.83a1.13,1.13,0,0,0-.37-.89,1.46,1.46,0,0,0-1-.33,1.51,1.51,0,0,0-.95.27.9.9,0,0,0-.34.75.84.84,0,0,0,.32.65,3.48,3.48,0,0,0,1.11.48,4.65,4.65,0,0,1,1.22.49,1.67,1.67,0,0,1,.65.61,1.51,1.51,0,0,1,.22.83,1.47,1.47,0,0,1-.59,1.22,2.52,2.52,0,0,1-1.59.46,2.88,2.88,0,0,1-1.21-.25,2,2,0,0,1-.86-.67,1.69,1.69,0,0,1-.3-1h.83a1.1,1.1,0,0,0,.41.9,1.8,1.8,0,0,0,1.13.32,1.61,1.61,0,0,0,1-.26.88.88,0,0,0,.35-.73.86.86,0,0,0-.32-.71A3.65,3.65,0,0,0,155.79,147.86Zm4.06-1.3a1.72,1.72,0,0,1,1.38-.65c1,0,1.48.55,1.49,1.67v3.07h-.79v-3.08a1.06,1.06,0,0,0-.24-.74.91.91,0,0,0-.7-.24,1.14,1.14,0,0,0-.68.2,1.46,1.46,0,0,0-.46.55v3.31h-.79V144h.79Zm6.94,4.09a1.54,1.54,0,0,1-.11-.49,1.76,1.76,0,0,1-1.33.58,1.65,1.65,0,0,1-1.13-.39,1.28,1.28,0,0,1-.44-1,1.29,1.29,0,0,1,.55-1.12,2.54,2.54,0,0,1,1.56-.41h.77v-.37a.91.91,0,0,0-.24-.66,1,1,0,0,0-.74-.25,1.16,1.16,0,0,0-.72.22.62.62,0,0,0-.28.52h-.8a1.08,1.08,0,0,1,.24-.67,1.76,1.76,0,0,1,.67-.52,2.26,2.26,0,0,1,.94-.19,1.81,1.81,0,0,1,1.26.41,1.43,1.43,0,0,1,.47,1.1v2.15a2.64,2.64,0,0,0,.17,1v.06Zm-1.32-.6a1.39,1.39,0,0,0,.71-.2,1.1,1.1,0,0,0,.48-.5v-1H166c-1,0-1.46.29-1.46.86a.72.72,0,0,0,.25.59A1,1,0,0,0,165.47,150.05Zm5.49-3.34a2.38,2.38,0,0,0-.39,0,1,1,0,0,0-1.06.67v3.3h-.8V146h.78v.53a1.25,1.25,0,0,1,1.11-.62.82.82,0,0,1,.35.06Zm2.58,4a2.06,2.06,0,0,1-1.54-.62,2.35,2.35,0,0,1-.59-1.67v-.14a2.89,2.89,0,0,1,.26-1.24,2.12,2.12,0,0,1,.74-.85,1.84,1.84,0,0,1,1-.31,1.75,1.75,0,0,1,1.41.6,2.62,2.62,0,0,1,.5,1.71v.33h-3.15a1.66,1.66,0,0,0,.4,1.12,1.26,1.26,0,0,0,1,.42,1.41,1.41,0,0,0,.71-.17,1.89,1.89,0,0,0,.52-.46l.48.38A2,2,0,0,1,173.54,150.74Zm-.09-4.18a1,1,0,0,0-.81.36,1.67,1.67,0,0,0-.41,1h2.34v-.06a1.57,1.57,0,0,0-.33-.94A1,1,0,0,0,173.45,146.56Zm4.81,1.72a2.74,2.74,0,0,1,.27-1.23,2,2,0,0,1,.75-.84,2,2,0,0,1,1.1-.3,2,2,0,0,1,1.53.66,2.49,2.49,0,0,1,.59,1.75v.06a2.7,2.7,0,0,1-.26,1.22,2,2,0,0,1-.74.84,2.09,2.09,0,0,1-1.12.3,2,2,0,0,1-1.53-.66,2.53,2.53,0,0,1-.59-1.74Zm.8.1a2,2,0,0,0,.36,1.24,1.23,1.23,0,0,0,1.93,0,2.2,2.2,0,0,0,.36-1.34,2,2,0,0,0-.37-1.24,1.2,1.2,0,0,0-1.91,0A2.13,2.13,0,0,0,179.06,148.38Zm4.83,2.27v-4h-.73V146h.73v-.48a1.62,1.62,0,0,1,.4-1.16,1.54,1.54,0,0,1,1.14-.41,2.5,2.5,0,0,1,.54.07l0,.65a2,2,0,0,0-.43,0,.78.78,0,0,0-.6.23.91.91,0,0,0-.21.65V146h1v.61h-1v4Zm7.06-1.09,1.79-5.17h.91l-2.33,6.26h-.73l-2.32-6.26h.9Zm3-1.28a2.74,2.74,0,0,1,.27-1.23,2,2,0,0,1,.75-.84,2,2,0,0,1,1.09-.3,2,2,0,0,1,1.54.66,2.54,2.54,0,0,1,.59,1.75v.06a2.84,2.84,0,0,1-.26,1.22,2,2,0,0,1-.75.84,2.05,2.05,0,0,1-1.11.3,2,2,0,0,1-1.54-.66,2.52,2.52,0,0,1-.58-1.74Zm.8.1a2,2,0,0,0,.36,1.24,1.23,1.23,0,0,0,1.93,0,2.27,2.27,0,0,0,.35-1.34A2,2,0,0,0,197,147a1.21,1.21,0,0,0-1.92,0A2.19,2.19,0,0,0,194.76,148.38Zm5.3,2.27h-.79V146h.79Zm-.86-5.89a.48.48,0,0,1,.12-.33.45.45,0,0,1,.35-.13.43.43,0,0,1,.35.13.49.49,0,0,1,.13.33.44.44,0,0,1-.13.32.43.43,0,0,1-.35.13.45.45,0,0,1-.35-.13A.44.44,0,0,1,199.2,144.76Zm4,5.33a1.2,1.2,0,0,0,.75-.26.9.9,0,0,0,.35-.64h.75a1.41,1.41,0,0,1-.27.76,1.81,1.81,0,0,1-.68.57,2.06,2.06,0,0,1-2.41-.41,2.53,2.53,0,0,1-.57-1.74v-.13a3,3,0,0,1,.25-1.22,2,2,0,0,1,.72-.82,2.08,2.08,0,0,1,1.11-.29,1.89,1.89,0,0,1,1.3.47,1.68,1.68,0,0,1,.55,1.22h-.75a1.06,1.06,0,0,0-.35-.74,1,1,0,0,0-.75-.3,1.14,1.14,0,0,0-1,.44,2.06,2.06,0,0,0-.33,1.26v.16a2,2,0,0,0,.33,1.23A1.1,1.1,0,0,0,203.21,150.09Zm4.68.65a2,2,0,0,1-1.54-.62,2.3,2.3,0,0,1-.59-1.67v-.14a2.75,2.75,0,0,1,.26-1.24,2,2,0,0,1,.74-.85,1.83,1.83,0,0,1,1-.31,1.72,1.72,0,0,1,1.41.6,2.57,2.57,0,0,1,.51,1.71v.33h-3.16a1.71,1.71,0,0,0,.4,1.12,1.29,1.29,0,0,0,1,.42,1.47,1.47,0,0,0,.72-.17,2,2,0,0,0,.51-.46l.49.38A2,2,0,0,1,207.89,150.74Zm-.1-4.18a1.06,1.06,0,0,0-.81.36,1.66,1.66,0,0,0-.4,1h2.33v-.06a1.45,1.45,0,0,0-.33-.94A1,1,0,0,0,207.79,146.56Z" transform="translate(0 -35)"/><rect class="cls-7" x="142.03" y="35.71" width="138.5" height="31.61" rx="6.48"/><rect class="cls-7" x="142.03" y="72.62" width="138.5" height="126.96" rx="6.48"/><path class="cls-8" d="M262.35,86a.68.68,0,0,1,0-1l.12-.12a.68.68,0,0,1,1,0L266.5,88a.67.67,0,0,0,1,0l2.75-3a.68.68,0,0,1,1,0l.13.12a.67.67,0,0,1,0,1l-3.83,4.18a.67.67,0,0,1-1,0Z" transform="translate(0 -35)"/><path class="cls-5" d="M155.71,162.53h66.15a2.39,2.39,0,0,1,2.39,2.38h0a2.39,2.39,0,0,1-2.39,2.39H155.71a2.39,2.39,0,0,1-2.39-2.39h0A2.39,2.39,0,0,1,155.71,162.53Z" transform="translate(0 -35)"/><path class="cls-5" d="M155.71,176.17h66.15a2.38,2.38,0,0,1,2.39,2.38h0a2.39,2.39,0,0,1-2.39,2.39H155.71a2.39,2.39,0,0,1-2.39-2.39h0A2.38,2.38,0,0,1,155.71,176.17Z" transform="translate(0 -35)"/><path class="cls-5" d="M155.71,189.81h66.15a2.38,2.38,0,0,1,2.39,2.38h0a2.39,2.39,0,0,1-2.39,2.39H155.71a2.39,2.39,0,0,1-2.39-2.39h0A2.38,2.38,0,0,1,155.71,189.81Z" transform="translate(0 -35)"/><path class="cls-5" d="M155.71,203.45h66.15a2.38,2.38,0,0,1,2.39,2.38h0a2.39,2.39,0,0,1-2.39,2.39H155.71a2.39,2.39,0,0,1-2.39-2.39h0A2.38,2.38,0,0,1,155.71,203.45Z" transform="translate(0 -35)"/><path class="cls-9" d="M279.17,249s-1.36,2-2,2.73-.13,1.15-.13,1.15l1.36-.4,1.5-1.23,1.84-1.43Z" transform="translate(0 -35)"/><path class="cls-9" d="M288.11,191a30.43,30.43,0,0,1-3.89,6.41,9.54,9.54,0,0,1-3.75,3c-.07,0-.14.07-.21.07a52.86,52.86,0,0,1-9.54,2,8.42,8.42,0,0,0-1-1.77c.34,0,6.35-4.57,7.85-5.05.47-.14,7.84-15.75,8.52-16.23.89-.68,1.91-1,2.66-.48C291.31,180.76,290.63,185.88,288.11,191Z" transform="translate(0 -35)"/><path class="cls-10" d="M284.9,180c-.34.75,6,.34,7.23-.2,2.32-1.09,3.27-4.84,2.46-7.16a7.89,7.89,0,0,0-2-3.28c-.82-.75-1.57-.41-2.59-.34H290c-.14-.07-1.23.82-1.3,1-.82,1.91-.75,3.07-1.57,5C286.81,175.72,286.13,177.42,284.9,180Z" transform="translate(0 -35)"/><path class="cls-9" d="M308.15,245.82l-2.31,1.23s-1.64-2.39-3.07-4.37-10.44-11.59-10.44-11.59c-2.93-4.36,1.09-12.14,1.09-12.14l6.62,2.18a39.93,39.93,0,0,0-1.43,4.37c.2.27.41.61.68.95a22.47,22.47,0,0,1,3.2,6.07c.55,1.64,2.73,6.75,4.16,10.16C307.61,244.53,308.15,245.82,308.15,245.82Z" transform="translate(0 -35)"/><path class="cls-9" d="M288.31,219.5s-.61,7.29-1,9.07c-.07.2-.07.47-.14.75v.07c-.2,1.57-1.84,6.27-4.7,16.91,0,.13-.07.2-.07.27a22.79,22.79,0,0,0-.68,3.55L279.17,249s.34-2.39.55-4.78-.21-15.61-.21-15.61c.69-5.19,5.25-15.14,5.25-15.14Z" transform="translate(0 -35)"/><path class="cls-11" d="M302.63,232.52a20,20,0,0,0-3.2-6.07,2.18,2.18,0,0,0-1.1.14.36.36,0,0,0-.47.34c0,.14,0,.27.13.34a39.2,39.2,0,0,0,3.89,7,48.82,48.82,0,0,1,4.3,8.39.33.33,0,0,0,.54.13C305.36,239.34,303.18,234.23,302.63,232.52Z" transform="translate(0 -35)"/><path class="cls-11" d="M283.74,228.36c-.27-.07-.41.21-.41.48s.14.61.21.89a15.69,15.69,0,0,0-1.5-1.37c-.34-.27-.82.28-.41.55a14.14,14.14,0,0,1,2.11,2c.41,4.91-2,9.82-1.57,14.79a2.5,2.5,0,0,0,.28,1c0-.07.06-.21.06-.28,2.87-10.63,4.5-15.34,4.71-16.91A10.57,10.57,0,0,0,283.74,228.36Z" transform="translate(0 -35)"/><path class="cls-12" d="M302.15,226.39a27.48,27.48,0,0,1-3.61,1.56c-5.52,2.05-16.09,4.64-24-1.56,0,0,5.52-.48,4.43-7.44-1.37-8.93,2.11-22.64,7.36-24.41s12.41,1.64,12.41,1.64a8.82,8.82,0,0,1,2.73,2.93,11.58,11.58,0,0,1,1.64,6.2C303.11,210.7,298.2,214.66,302.15,226.39Z" transform="translate(0 -35)"/><path class="cls-13" d="M303.11,205.31c.27-4-2.59-8-3.48-9.54-.89.2-3.82,1.22-3.61,1.43,5,5.11,2.72,14.18,1.22,19.09a13.31,13.31,0,0,0-.47,6.75,24.52,24.52,0,0,0,1.29,3.82c.14.34.27.75.48,1.16a28.2,28.2,0,0,0,3.61-1.57C298.2,214.66,302.7,210.63,303.11,205.31Z" transform="translate(0 -35)"/><path class="cls-14" d="M282.79,195.76c10.23,4.51,17.25.07,16.64-1.29a6.51,6.51,0,0,1-.55-2.39,20.52,20.52,0,0,1,0-3.61,7.72,7.72,0,0,1,.14-1v-.06c.82-4.1,2.59-9-2.18-10.51a9.38,9.38,0,0,0-2.12-.41,24.91,24.91,0,0,0-3,0,24.44,24.44,0,0,0-3.14,1.37c-.54.27-1.16.61-1.77.95a5.31,5.31,0,0,0-2,4.71c.06,1,1.5,3.82,1.43,4.36A22,22,0,0,1,282.79,195.76Z" transform="translate(0 -35)"/><path class="cls-15" d="M288.79,187.85c1.5,1.16,3.61,1.16,5.39,1.85,1.56.61,3.13,2,4.77,2.38a20.52,20.52,0,0,1,0-3.61.07.07,0,0,0-.07-.07c.07-.27.07-.55.14-.89v-.06a6.75,6.75,0,0,0-1.5-1.91c-2-1.84-1.78-6.48-1.78-6.48-.47,2.32-.2,5.79.55,7.23a12.57,12.57,0,0,0,1.57,2.25v.06c.07.75-4.57-.75-5.12-.95a11.47,11.47,0,0,0-3.75-.41A.33.33,0,0,0,288.79,187.85Z" transform="translate(0 -35)"/><path class="cls-9" d="M289.81,175.1V177s-.54,1,0,1c1.16.21,2.8-1.56,2.8-1.56v-2.6Z" transform="translate(0 -35)"/><path class="cls-11" d="M292.61,175.58v-1.5a5.53,5.53,0,0,1-2.8,1.43A3,3,0,0,0,292.61,175.58Z" transform="translate(0 -35)"/><path class="cls-9" d="M289.27,169.51a15.06,15.06,0,0,0-1.3,4c-.2,1.37,2.32,3.21,4.36,1.23a5.87,5.87,0,0,0,1.51-4.91Z" transform="translate(0 -35)"/><path class="cls-16" d="M282,248a2,2,0,0,1,.47,1.78,9.92,9.92,0,0,0-3.81,4c-.35.61-2.19.14-2.94.14,0,0-.75-.34-.2-1.16.2-.34,1.23-.75,1.5-1C277.54,252.78,279.45,251.28,282,248Z" transform="translate(0 -35)"/><path class="cls-16" d="M282.51,249.78l-.41,4.09-.68.07-.07-3.89Z" transform="translate(0 -35)"/><path class="cls-9" d="M305.84,247.05a27.4,27.4,0,0,1,.48,3.27c0,1,.75.89.75.89l.68-1.23.13-1.91.28-2.32Z" transform="translate(0 -35)"/><path class="cls-16" d="M307.54,244.39s.48-.21,1.3.82a10.31,10.31,0,0,0,.07,5.52c.2.68-1.5,1.64-2,2.12,0,0-.75.27-.89-.69-.07-.4.41-1.36.34-1.77C307.34,250.8,308,248.55,307.54,244.39Z" transform="translate(0 -35)"/><path class="cls-16" d="M308.84,245.21l2.59,3.2-.55.48-2.73-2.73Z" transform="translate(0 -35)"/><path class="cls-9" d="M306,184.31c.14-.34-7.09-7.5-9.89-6.48-1.7.68-1,3.89-.61,5.32.95,3.07,8.59,9.75,8.32,10a8.48,8.48,0,0,1-2.32.82,53.17,53.17,0,0,1-5.32.55c-3.07.13-5.93.13-6.07.2s.82,2.12.89,2.32a14.86,14.86,0,0,0,2,.68c3.13,1,10,1.5,14.52-.13C311.63,196,309.79,188.33,306,184.31Z" transform="translate(0 -35)"/><path class="cls-11" d="M304.74,194.47c2.39-1.64-.88-3.34-2.18-4.91-1.5-.55-2.86-1.36-3.13-1.16,1.36,1.43,4.43,4.71,4.43,4.71a8.86,8.86,0,0,1-2.32.81,50.37,50.37,0,0,1-5.32.55C296.08,194.67,302.63,196,304.74,194.47Z" transform="translate(0 -35)"/><path class="cls-9" d="M289.67,194.47c-1.09-.27-2.79-.14-3.54.82-.34.47-.07.75.41.47.95-.47,1.7-.54.27.14-.27.14-.82.55-.75.75.21.48,1.16-.13,1.64-.34.41,0-.55.68-.68.89-.41,1,1.5-.21,1.63-.07.41.27-1,.89-.34,1s1.57-1,2-1.09.68.07.88-.34C291.72,195.9,290.08,194.61,289.67,194.47Z" transform="translate(0 -35)"/><path class="cls-9" d="M290.08,194.67c-.34-.27-1.09-1-1.5-1.09s-.54.07-.34.34a1,1,0,0,0,.55.41c.13.07.34.21.48.28S290.15,194.74,290.08,194.67Z" transform="translate(0 -35)"/><path class="cls-10" d="M288,170.6a1.13,1.13,0,0,0,1.43.21,3.45,3.45,0,0,0,.75-.55c.14-.14.27-.41.41-.55a2.07,2.07,0,0,1,1.57,1,3.16,3.16,0,0,0,0,.82c1.63,4.84-1.78,8.32-2.59,9.95-.14.21.06.41.27.48,3.14.62,9.68,1.64,9.34-3.48a12.36,12.36,0,0,0-2.66-6.61c-1.16-1.43-2.45-3.62-4.36-3.82a8.12,8.12,0,0,0-2.25.14C288,168.42,287.7,170.19,288,170.6Z" transform="translate(0 -35)"/><path class="cls-17" d="M267.51,221.48l-15.61-9.21a1.74,1.74,0,0,1-.62-2.46l7-11.79a1.72,1.72,0,0,1,2.45-.62l15.62,9.21a1.71,1.71,0,0,1,.61,2.45L270,220.86A1.75,1.75,0,0,1,267.51,221.48Z" transform="translate(0 -35)"/><path class="cls-18" d="M273.92,214.18l-18.75-11.05a1.41,1.41,0,0,1-.48-1.84l2.59-4.36a1.41,1.41,0,0,1,1.84-.48l18.76,11a1.42,1.42,0,0,1,.47,1.85l-2.59,4.36A1.3,1.3,0,0,1,273.92,214.18Z" transform="translate(0 -35)"/><path class="cls-18" d="M269.56,206.68l-5.66-3.34a1.22,1.22,0,0,1-.41-1.64l.81-1.36a3.44,3.44,0,0,1,4.71-1.23l1.84,1.09a3.44,3.44,0,0,1,1.23,4.7l-.82,1.37A1.32,1.32,0,0,1,269.56,206.68Zm-1.23-6.55a2.34,2.34,0,0,0-3.14.82l-.82,1.36v.07l5.66,3.34h.07l.82-1.36a2.24,2.24,0,0,0-.82-3.07Z" transform="translate(0 -35)"/><path class="cls-19" d="M266.15,210.7,262,208.24a.94.94,0,0,1,.95-1.63l4.16,2.45a.95.95,0,0,1-1,1.64Z" transform="translate(0 -35)"/><path class="cls-9" d="M269.15,199.86a1.68,1.68,0,0,0-.41,1.09c0,.2.27.34.48.34,0,.07-.07.14-.07.2s.2.35.48.35c0,.2.27.34.54.34,0,.27.48.47.75.2a3.65,3.65,0,0,0,.48-.61c.13-.28-.21-.48-.48-.41,0-.07.07-.07.07-.14s-.14-.41-.41-.41l.07-.07c.34-.27-.34-.68-.68-.4l-.21.2c.07-.07.07-.14.14-.2C270.1,199.93,269.42,199.52,269.15,199.86Z" transform="translate(0 -35)"/><path class="cls-9" d="M269.83,199.58a1.75,1.75,0,0,1,1.16.28h.14c.34.07.27.54,0,.61-.07,0-.14.07-.21,0h-.07a3.3,3.3,0,0,0-1.43.07.32.32,0,0,1-.41-.41C269.08,199.72,269.56,199.58,269.83,199.58Z" transform="translate(0 -35)"/><path class="cls-9" d="M45.76,187.55a13.09,13.09,0,0,1-7,1.71,1.85,1.85,0,0,1-.61-.07c-.34-.07-.68-.07-.95-.13s-.82-.21-1.23-.28c-.07,0-.14-.07-.21-.07a6.88,6.88,0,0,1-3.47-1.84A10.63,10.63,0,0,1,31,185.24s-7.57-6.55-5.11-7.1,6.82.69,10.64,2.32h.06a2.43,2.43,0,0,1,.62.28c.13.06.27.06.34.13a16.48,16.48,0,0,0,3.68,1.37c.62-.07,1.64-9.42,1.91-9.76,0,0,1.3-1.36,1.84-.68C46.58,173.85,48.42,186.12,45.76,187.55Z" transform="translate(0 -35)"/><path class="cls-20" d="M42.15,180.87a5.49,5.49,0,0,1,.41,1.37,1.13,1.13,0,0,1-.55,1,3,3,0,0,1-1.7.07c-5.87-1.43-6.89-4-6.82-4.16.2.07,3.47,1.5,3.68,1.57s.27.06.34.13a16.48,16.48,0,0,0,3.68,1.37C41.53,182.3,41.74,179.85,42.15,180.87Z" transform="translate(0 -35)"/><path class="cls-9" d="M42.76,171.66a4.38,4.38,0,0,1,1.09-3.47c.28-.41,1-1.23,1.43-1.3s.55.34.21.62a5.72,5.72,0,0,0-1.09,1.56c.41-.68,1.09.07,1,.55.28-.14.55.34.34.89.21-.21.69.4.07,1.29-.41.62-.54.82-.95,1a1.52,1.52,0,0,1-1.43-.2c-.07,0-.14-.07-.21-.14s0-.06-.07-.13A.77.77,0,0,1,42.76,171.66Z" transform="translate(0 -35)"/><path class="cls-9" d="M41.94,170.16c.21-.34.68-.06.62.28a1,1,0,0,0-.07.47,1,1,0,0,1,.82.55c.13.27.41.89.27,1.16s-.34.61-.48.48a16.15,16.15,0,0,1-1.29-1.84A1.06,1.06,0,0,1,41.94,170.16Z" transform="translate(0 -35)"/><path class="cls-9" d="M30.14,246.14c-.34-.35-3.27.34-3.27.54,0,.55.07,2.66.41,2.93s3.27-.13,3.27-.68S30.49,246.41,30.14,246.14Z" transform="translate(0 -35)"/><path class="cls-9" d="M6.14,244.63c-.07-.4-2.86-1.63-2.93-1.5-.34.41-1.5,2.26-1.37,2.6s2.73,1.84,3.07,1.36A9,9,0,0,0,6.14,244.63Z" transform="translate(0 -35)"/><path class="cls-12" d="M19.85,208.76c.2.55.41,1,.61,1.64,1.5,3.75,3.27,8.18,3.48,10.5.34,4.3,2.32,14.67,2.32,19.71,0,4.09,1.16,6.89,1,7.84L31,247.7C32.46,241.77,34,227.45,34,221S33.42,203.72,31,198.6c-2.25-4.84-11.32,4-12.34,5.19C18.28,204.2,18.89,206.24,19.85,208.76Z" transform="translate(0 -35)"/><path class="cls-13" d="M19.85,208.76c.2.55.4,1,.61,1.64,1.5,3.75,3.27,8.18,3.48,10.5.34,4.3,2,26.12,2.38,27.55.69.41,2,.07,2.87-.34.27-3.61-1.43-7-1.84-10.63-.82-6.83,1.57-14-1.37-20.46-.81-1.84-2.11-3.69-2-5.8.06-1,.75-2.18.13-3.21-1-1.77-3-.54-3.95.62a.3.3,0,0,0-.34,0C19.91,208.76,19.91,208.76,19.85,208.76Z" transform="translate(0 -35)"/><path class="cls-12" d="M21.35,202v.68c-.07,2.66-.34,12.82-1.5,22.84-.75,6.41-8.94,17-14.32,21.14l-3-1.63-.69-.34s3.35-6,5-8.53c4.23-6.48,3.34-10.23,3.34-14.52.07-8.8-2.25-13.1.14-19.64.14-.28.2-.62.34-.89a28.64,28.64,0,0,1,1.77-3.48,1.26,1.26,0,0,1,.55-.41,2.11,2.11,0,0,1,.95-.07c1.71.21,4.37,1.64,6.69,4.09A2,2,0,0,1,21.35,202Z" transform="translate(0 -35)"/><path class="cls-13" d="M12.41,215.31c-.81-4.23-1.29-8.18,0-12.48a.25.25,0,0,0-.13-.34c0-.07-.07-.07-.14-.14-.48-.13-1.09-.34-1.77-.54-2.39,6.54-.14,10.84-.14,19.64,0,4.29.89,8.05-3.34,14.53-1.64,2.52-5,8.52-5,8.52l.68.34c2.39-2.25,4.91-4.43,6.35-7.43a50.09,50.09,0,0,0,3.47-10.85A27.17,27.17,0,0,0,12.41,215.31Z" transform="translate(0 -35)"/><path class="cls-10" d="M27.21,248.86s-.88,2.19.34,3.55a75.58,75.58,0,0,0,8.8-1.77s-.48-2.66-2.25-2.53a28,28,0,0,0-3.55.55S28.78,250,27.21,248.86Z" transform="translate(0 -35)"/><path class="cls-10" d="M2.05,245s-2.12,1.16-2,2.93a78,78,0,0,0,7.91,4.23s1.3-2.32-.13-3.34A26.65,26.65,0,0,0,4.71,247,2.86,2.86,0,0,1,2.05,245Z" transform="translate(0 -35)"/><path class="cls-21" d="M27.21,179c.75,1.84,1.5,3.34,1.5,3.34s-1.43,1.85-.95,3a3.49,3.49,0,0,0,1.63,1.5c1,.62,2.39,1.23,3.48,2A8.7,8.7,0,0,0,35.74,179c-3-2.52-7-5.73-9.41-6.2C24.83,172.55,26.05,176.1,27.21,179Z" transform="translate(0 -35)"/><path class="cls-21" d="M31.51,198.54c0,.81-18.62,5-20.53,4.7-.75-.14-1.23-.34-1.36-.61-.34-.75.88-8.32.75-13.37,0-1-.07-2-.07-2.93,0-5.05.34-9.82,1.5-10.71a8.57,8.57,0,0,1,.89-.61,18.13,18.13,0,0,1,1.7-1,16.82,16.82,0,0,1,3.55-1.36,15.39,15.39,0,0,1,7.09-.14,13.08,13.08,0,0,1,2,.62c.13.07.34.13.47.2,2.25.89,1.91,5.8,1.57,9.89-.13,1.91-.34,3.61-.27,4.71a5.81,5.81,0,0,0,.14,1.09C29.46,191.92,31.17,196.35,31.51,198.54Z" transform="translate(0 -35)"/><path class="cls-9" d="M23.12,170v2.18s.55,1,0,1c-1.16.2-2.8-1-2.8-1V168.8Z" transform="translate(0 -35)"/><path class="cls-22" d="M20.39,170.51V169A4.44,4.44,0,0,0,23,170.64,3,3,0,0,1,20.39,170.51Z" transform="translate(0 -35)"/><path class="cls-9" d="M24.69,165.12a15.77,15.77,0,0,1,.27,4.23c-.14,1.36-3,2.52-4.57.13a5.87,5.87,0,0,1-.27-5.11Z" transform="translate(0 -35)"/><path class="cls-14" d="M8.73,204c.48.27,13.3-1.7,13.3-1.7.89-2.87,3.68-14.87,3.55-16-.48-7.5-7.44-13.57-7.44-13.57-2.73-.14-6.2,3.07-6.2,3.07.81-1.64,4.36-1.5,4.91-.69,1.16,1.78.81,7.3-.21,9.55-3.07,6.62-6.07,7-6.07,7Z" transform="translate(0 -35)"/><path class="cls-14" d="M24.21,189.12c-.41,1,5.05,11.39,5.05,11.39s3.82-.75,3.89-.82-1.64-4.29-2.87-7.36c-.2-.62-.48-1.16-.61-1.71v-.06a12.26,12.26,0,0,1-.48-1.57,2.32,2.32,0,0,1-.14-1.09c-.06-1.1.89-3.14,1-5.05.07-3.41-1.16-9.14-2.25-9.55-.14-.07-.21-.07-.34-.13s-.07,0-.14-.07c-.68-.28-1.3-.41-2-.62C25.3,172.48,26.8,182.71,24.21,189.12Z" transform="translate(0 -35)"/><path class="cls-10" d="M25.51,164.23c.27-1.57-2.46-1.29-3.34-1.16-.62.07-2.87.48-3,1.5A4,4,0,0,0,19,168a.75.75,0,0,0,.34.68.83.83,0,0,0,1.16-.34c.34-.61.14-1.43.21-2.11,0-.14.06-.61.06-1a1.79,1.79,0,0,1,1.23-.14c.55.07,1.09.27,1.64.34C24.48,165.46,26.12,165.26,25.51,164.23Z" transform="translate(0 -35)"/><path class="cls-23" d="M21.14,186.67a1.75,1.75,0,1,0,2.19,1.16A1.77,1.77,0,0,0,21.14,186.67ZM22,189.4a1.15,1.15,0,1,1,.75-1.44A1.1,1.1,0,0,1,22,189.4Z" transform="translate(0 -35)"/><path class="cls-24" d="M29.6,201.19l-7.3,2.26a1.47,1.47,0,0,1-1.77-1l-3.48-11.25a1.49,1.49,0,0,1,1-1.78l7.29-2.25a1.49,1.49,0,0,1,1.78,1l3.47,11.25A1.45,1.45,0,0,1,29.6,201.19Z" transform="translate(0 -35)"/><path class="cls-9" d="M11.66,200.79a1.15,1.15,0,0,0,.48-.07c5.32-.68,14.73-4.78,14.73-4.78,0-.41.14-2.25.14-2.25-.21,0-8.94.21-12.55.28h-.75a1.86,1.86,0,0,1-.82,0h-.07c-.54-.14.07-4.51,1-6.28.4-.75.88-1.5,1.22-2.18a7.89,7.89,0,0,0,1.16-5.25,8.41,8.41,0,0,0-1.7-4,2.52,2.52,0,0,0-4.09.2,43.26,43.26,0,0,0-4.57,8.73v.07C3.48,191,6.55,201.19,11.66,200.79Z" transform="translate(0 -35)"/><path class="cls-20" d="M11.66,200.79a1.15,1.15,0,0,0,.48-.07c5.32-.68,14.73-4.78,14.73-4.78v-.06c-1,.06-2.93,1-3.82,1.22-3.27.75-8.73,1.44-10.36,1.71-2.32.41-3.69-1.23-4.37-3.21-1-3-.82-7.77-.41-10.91.75-2.25-1.57-.95-1.57-.95C3.21,191.44,6.55,201.19,11.66,200.79Z" transform="translate(0 -35)"/><path class="cls-21" d="M5.8,183.6c.2-.75,1.5-5.73,4.36-7.91,1.3-1,4.91-2.46,6.35-1,3.06,3.28.81,8.87-1.37,12.82C11.8,187.83,8.46,186.26,5.8,183.6Z" transform="translate(0 -35)"/><path class="cls-9" d="M29.4,194.78a.54.54,0,0,0-.07-.68l-.07-.07a.41.41,0,0,0,.07-.54.57.57,0,0,0-.48-.28.25.25,0,0,0-.07-.2c-.27-.75-1.5.14-1.91.34-.13.07-.2.21-.13.28l-.07.06a2.06,2.06,0,0,0-.07,1.78,1.35,1.35,0,0,0,1.57.68c.48-.07,1.43-.34,1.43-1C29.74,194.92,29.6,194.85,29.4,194.78Z" transform="translate(0 -35)"/><path class="cls-9" d="M28.24,191.85a1.64,1.64,0,0,0-1.37.27,5.16,5.16,0,0,0-.89,1.71c-.2.14.07.14.41.14s.89-.07,1-.55c0-.21-.07-.41.13-.55a1.6,1.6,0,0,1,.76-.34A.35.35,0,0,0,28.24,191.85Z" transform="translate(0 -35)"/></svg>