<svg id="Layer_1" data-name="Layer 1" xmlns="http://www.w3.org/2000/svg" viewBox="0 0 323.25 219.11"><defs><style>.cls-1,.cls-24,.cls-6{fill:#fff;}.cls-1{stroke:#e2e2e2;stroke-width:0.37px;}.cls-2{fill:#777;}.cls-3,.cls-7{fill:none;stroke:#f4f4f4;}.cls-3{stroke-width:0.43px;}.cls-4{fill:#373737;}.cls-5{fill:#c4c4c4;}.cls-6{stroke:#e6e6e6;stroke-width:0.59px;}.cls-7{stroke-width:0.68px;}.cls-8{fill:#87d2fd;}.cls-23,.cls-24,.cls-8{fill-rule:evenodd;}.cls-9{fill:#ffc1c5;}.cls-10{fill:#252525;}.cls-11{fill:#f8b5ba;}.cls-12{fill:#acdcff;}.cls-13{fill:#96caf0;}.cls-14{fill:#441fd8;}.cls-15{fill:#32187c;}.cls-16{fill:#1f0d52;}.cls-17{fill:#ffaea7;}.cls-18{fill:#ea7a70;}.cls-19{fill:#edf3ff;}.cls-20,.cls-22{fill:#e89a9f;}.cls-20{fill-opacity:0.3;}.cls-21{fill:#d3e7ec;}.cls-23{fill:#453286;}</style></defs><rect class="cls-1" x="31.18" y="35.18" width="283.63" height="182.63" rx="3.49"/><path d="M55.28,96.79a3.14,3.14,0,0,1-1.37.91A5.84,5.84,0,0,1,52,98a4,4,0,0,1-2-.49,3.41,3.41,0,0,1-1.32-1.44,5.1,5.1,0,0,1-.48-2.21v-.6A5.42,5.42,0,0,1,48.6,91a3.31,3.31,0,0,1,1.27-1.46,4.19,4.19,0,0,1,4.38.23,3.15,3.15,0,0,1,1,2.16H53.53a1.51,1.51,0,0,0-1.66-1.45,1.58,1.58,0,0,0-1.39.69,3.66,3.66,0,0,0-.49,2v.56a3.51,3.51,0,0,0,.52,2.07,1.79,1.79,0,0,0,1.53.7,2,2,0,0,0,1.45-.43v-1.5H51.85V93.31h3.43ZM59.62,98a3.18,3.18,0,0,1-2.33-.88,3.13,3.13,0,0,1-.89-2.33v-.17a3.77,3.77,0,0,1,.38-1.74,2.73,2.73,0,0,1,1.06-1.19,3,3,0,0,1,1.59-.42,2.69,2.69,0,0,1,2.09.84,3.4,3.4,0,0,1,.76,2.38v.71H58.15a1.66,1.66,0,0,0,.51,1,1.56,1.56,0,0,0,1.07.38,1.89,1.89,0,0,0,1.57-.72l.85.95a2.59,2.59,0,0,1-1.06.86A3.37,3.37,0,0,1,59.62,98Zm-.2-5.33a1.12,1.12,0,0,0-.84.35,1.84,1.84,0,0,0-.41,1h2.41V93.9a1.29,1.29,0,0,0-.31-.89A1.12,1.12,0,0,0,59.42,92.69Zm.16-4h1.88L59.8,90.55H58.39Zm5.29,2.72,0,.75a2.28,2.28,0,0,1,1.87-.87,1.87,1.87,0,0,1,1.53.61,2.79,2.79,0,0,1,.52,1.81V97.9H67.1V93.75a1.13,1.13,0,0,0-.24-.8,1,1,0,0,0-.79-.25,1.2,1.2,0,0,0-1.1.62V97.9H63.24V91.41ZM73.14,98a3.18,3.18,0,0,1-2.33-.88,3.13,3.13,0,0,1-.89-2.33v-.17a3.9,3.9,0,0,1,.38-1.74,2.75,2.75,0,0,1,1.07-1.19A3,3,0,0,1,73,91.29a2.69,2.69,0,0,1,2.09.84,3.41,3.41,0,0,1,.77,2.38v.71H71.68a1.6,1.6,0,0,0,.5,1,1.56,1.56,0,0,0,1.07.38,1.89,1.89,0,0,0,1.57-.72l.85.95a2.59,2.59,0,0,1-1.06.86A3.37,3.37,0,0,1,73.14,98Zm-.2-5.33a1.12,1.12,0,0,0-.84.35,1.84,1.84,0,0,0-.41,1H74.1V93.9a1.25,1.25,0,0,0-.31-.89A1.12,1.12,0,0,0,72.94,92.69Zm.16-4H75l-1.66,1.86H71.92ZM80.44,93a3.67,3.67,0,0,0-.62-.05,1.27,1.27,0,0,0-1.29.66V97.9H76.8V91.41h1.63l0,.78a1.61,1.61,0,0,1,1.44-.9,1.8,1.8,0,0,1,.54.08Zm4.42,4.86a2.09,2.09,0,0,1-.18-.58,2.11,2.11,0,0,1-1.63.7,2.36,2.36,0,0,1-1.59-.55,1.81,1.81,0,0,1-.62-1.39,1.87,1.87,0,0,1,.76-1.59,3.81,3.81,0,0,1,2.21-.55h.8v-.38a1.09,1.09,0,0,0-.23-.72.91.91,0,0,0-.73-.27,1.05,1.05,0,0,0-.69.21.74.74,0,0,0-.24.58H81a1.73,1.73,0,0,1,.34-1,2.25,2.25,0,0,1,1-.75,3.4,3.4,0,0,1,1.42-.28,2.78,2.78,0,0,1,1.9.61,2.1,2.1,0,0,1,.71,1.69V96.4a3.06,3.06,0,0,0,.26,1.4v.1Zm-1.44-1.21a1.41,1.41,0,0,0,.71-.17,1,1,0,0,0,.48-.46V95H84q-1.29,0-1.38.9V96a.69.69,0,0,0,.23.53A.88.88,0,0,0,83.42,96.69Zm6.33-6.87v1.59h1.11v1.27H89.75v3.24a.76.76,0,0,0,.14.51.67.67,0,0,0,.53.16,2.64,2.64,0,0,0,.51,0v1.31a3.39,3.39,0,0,1-1.05.16A1.66,1.66,0,0,1,88,96.18v-3.5h-1V91.41h1V89.82ZM94.81,98a3.16,3.16,0,0,1-2.32-.88,3.1,3.1,0,0,1-.9-2.33v-.17A3.9,3.9,0,0,1,92,92.9,2.75,2.75,0,0,1,93,91.71a3,3,0,0,1,1.58-.42,2.66,2.66,0,0,1,2.09.84,3.41,3.41,0,0,1,.77,2.38v.71H93.35a1.65,1.65,0,0,0,.5,1,1.6,1.6,0,0,0,1.08.38,1.87,1.87,0,0,0,1.56-.72l.85.95a2.63,2.63,0,0,1-1,.86A3.44,3.44,0,0,1,94.81,98Zm-.19-5.33a1.09,1.09,0,0,0-.84.35,1.77,1.77,0,0,0-.41,1h2.41V93.9a1.29,1.29,0,0,0-.31-.89A1.13,1.13,0,0,0,94.62,92.69Zm7.73,4.55a2.16,2.16,0,0,1-1.77.78,2.07,2.07,0,0,1-1.6-.6,2.61,2.61,0,0,1-.55-1.76V91.41h1.73V95.6c0,.68.31,1,.92,1a1.24,1.24,0,0,0,1.21-.61V91.41H104V97.9H102.4ZM109,93a3.59,3.59,0,0,0-.62-.05,1.27,1.27,0,0,0-1.29.66V97.9h-1.73V91.41H107l0,.78a1.61,1.61,0,0,1,1.45-.9,1.91,1.91,0,0,1,.54.08Zm3.63,1.57a3.88,3.88,0,0,1,.68-2.42,2.2,2.2,0,0,1,1.86-.9,2,2,0,0,1,1.56.71V88.69h1.74V97.9h-1.56l-.09-.69a2,2,0,0,1-1.66.81,2.21,2.21,0,0,1-1.84-.9A4.07,4.07,0,0,1,112.61,94.61Zm1.73.12a2.57,2.57,0,0,0,.32,1.4,1,1,0,0,0,.92.48,1.14,1.14,0,0,0,1.13-.67V93.38a1.13,1.13,0,0,0-1.12-.68C114.76,92.7,114.34,93.38,114.34,94.73ZM122.78,98a3.18,3.18,0,0,1-2.33-.88,3.13,3.13,0,0,1-.89-2.33v-.17a3.9,3.9,0,0,1,.38-1.74A2.75,2.75,0,0,1,121,91.71a3,3,0,0,1,1.58-.42,2.69,2.69,0,0,1,2.09.84,3.41,3.41,0,0,1,.77,2.38v.71h-4.13a1.6,1.6,0,0,0,.5,1,1.57,1.57,0,0,0,1.07.38,1.89,1.89,0,0,0,1.57-.72l.85.95a2.59,2.59,0,0,1-1.06.86A3.37,3.37,0,0,1,122.78,98Zm-.2-5.33a1.12,1.12,0,0,0-.84.35,1.84,1.84,0,0,0-.4,1h2.41V93.9a1.3,1.3,0,0,0-.32-.89A1.12,1.12,0,0,0,122.58,92.69Zm12.75,2a4,4,0,0,1-.68,2.41,2.17,2.17,0,0,1-1.84.9,2,2,0,0,1-1.58-.69v3.06h-1.74v-9h1.61l.06.64a2,2,0,0,1,1.64-.76,2.22,2.22,0,0,1,1.87.89,4,4,0,0,1,.66,2.44Zm-1.73-.12a2.52,2.52,0,0,0-.33-1.4,1,1,0,0,0-.92-.49,1.13,1.13,0,0,0-1.12.62V96a1.15,1.15,0,0,0,1.13.64C133.18,96.62,133.6,95.94,133.6,94.59ZM140.05,93a3.59,3.59,0,0,0-.62-.05,1.28,1.28,0,0,0-1.29.66V97.9h-1.73V91.41h1.64l0,.78a1.61,1.61,0,0,1,1.45-.9,1.91,1.91,0,0,1,.54.08Zm.36,1.55a3.84,3.84,0,0,1,.37-1.72,2.67,2.67,0,0,1,1.07-1.16,3.05,3.05,0,0,1,1.62-.42,2.92,2.92,0,0,1,2.14.81,3.16,3.16,0,0,1,.93,2.18v.44a3.43,3.43,0,0,1-.83,2.4,3.24,3.24,0,0,1-4.48,0,3.49,3.49,0,0,1-.83-2.45Zm1.73.13a2.46,2.46,0,0,0,.35,1.42,1.15,1.15,0,0,0,1,.48,1.17,1.17,0,0,0,1-.48,2.71,2.71,0,0,0,.35-1.55,2.43,2.43,0,0,0-.35-1.4,1.17,1.17,0,0,0-1-.5,1.13,1.13,0,0,0-1,.5A2.7,2.7,0,0,0,142.14,94.72Zm11.32,0a3.89,3.89,0,0,1-.69,2.41,2.17,2.17,0,0,1-1.83.9,2,2,0,0,1-1.59-.69v3.06h-1.73v-9h1.61l.06.64a2,2,0,0,1,1.64-.76,2.19,2.19,0,0,1,1.86.89,4,4,0,0,1,.67,2.44Zm-1.74-.12a2.52,2.52,0,0,0-.32-1.4,1,1,0,0,0-.93-.49,1.14,1.14,0,0,0-1.12.62V96a1.15,1.15,0,0,0,1.13.64C151.31,96.62,151.72,95.94,151.72,94.59Zm2.55,0a3.84,3.84,0,0,1,.37-1.72,2.65,2.65,0,0,1,1.06-1.16,3.12,3.12,0,0,1,1.63-.42,2.94,2.94,0,0,1,2.14.81,3.25,3.25,0,0,1,.93,2.18v.44a3.43,3.43,0,0,1-.83,2.4,3.24,3.24,0,0,1-4.48,0,3.45,3.45,0,0,1-.83-2.45Zm1.73.13a2.38,2.38,0,0,0,.35,1.42,1.25,1.25,0,0,0,2,0,2.62,2.62,0,0,0,.36-1.55,2.36,2.36,0,0,0-.36-1.4,1.14,1.14,0,0,0-1-.5,1.12,1.12,0,0,0-1,.5A2.62,2.62,0,0,0,156,94.72Zm9,1.39a.55.55,0,0,0-.32-.5,3.11,3.11,0,0,0-1-.33c-1.54-.33-2.31-1-2.31-2a1.81,1.81,0,0,1,.71-1.44,3,3,0,0,1,1.88-.58,3.14,3.14,0,0,1,2,.58,1.82,1.82,0,0,1,.74,1.51h-1.73a.84.84,0,0,0-.24-.61,1.28,1.28,0,0,0-1.42,0,.64.64,0,0,0-.24.51.55.55,0,0,0,.27.47,3.15,3.15,0,0,0,.92.3,7.62,7.62,0,0,1,1.09.29A1.79,1.79,0,0,1,166.67,96a1.7,1.7,0,0,1-.76,1.44,3.25,3.25,0,0,1-2,.55,3.56,3.56,0,0,1-1.46-.29,2.51,2.51,0,0,1-1-.8,1.85,1.85,0,0,1-.36-1.09h1.64a.88.88,0,0,0,.34.7,1.32,1.32,0,0,0,.85.25,1.22,1.22,0,0,0,.75-.19A.59.59,0,0,0,165,96.11Zm4.63,1.79h-1.74V91.41h1.74Zm-1.84-8.17a.87.87,0,0,1,.26-.64,1,1,0,0,1,.71-.25,1,1,0,0,1,.71.25.83.83,0,0,1,.26.64.85.85,0,0,1-.27.65,1,1,0,0,1-.7.25,1,1,0,0,1-.71-.25A.87.87,0,0,1,167.78,89.73Zm5.35.09v1.59h1.11v1.27h-1.11v3.24a.71.71,0,0,0,.14.51.65.65,0,0,0,.52.16,2.57,2.57,0,0,0,.51,0v1.31a3.39,3.39,0,0,1-1.05.16,1.65,1.65,0,0,1-1.85-1.84v-3.5h-1V91.41h1V89.82ZM177,97.9h-1.74V91.41H177Zm-1.84-8.17a.87.87,0,0,1,.26-.64,1,1,0,0,1,.71-.25,1,1,0,0,1,.71.25.87.87,0,0,1,.26.64.85.85,0,0,1-.27.65,1,1,0,0,1-.7.25,1,1,0,0,1-.71-.25A.87.87,0,0,1,175.19,89.73Zm3,4.86a3.85,3.85,0,0,1,.38-1.72,2.65,2.65,0,0,1,1.06-1.16,3.12,3.12,0,0,1,1.63-.42,3,3,0,0,1,2.14.81,3.2,3.2,0,0,1,.92,2.18l0,.44a3.39,3.39,0,0,1-.84,2.4,3.23,3.23,0,0,1-4.47,0,3.45,3.45,0,0,1-.84-2.45Zm1.74.13a2.46,2.46,0,0,0,.34,1.42,1.18,1.18,0,0,0,1,.48,1.15,1.15,0,0,0,1-.48,2.63,2.63,0,0,0,.35-1.55,2.36,2.36,0,0,0-.35-1.4,1.16,1.16,0,0,0-1-.5,1.15,1.15,0,0,0-1,.5A2.71,2.71,0,0,0,179.93,94.72ZM187,91.41l.05.75a2.27,2.27,0,0,1,1.87-.87,1.86,1.86,0,0,1,1.53.61,2.79,2.79,0,0,1,.52,1.81V97.9h-1.74V93.75A1.13,1.13,0,0,0,189,93a1,1,0,0,0-.79-.25,1.2,1.2,0,0,0-1.1.62V97.9h-1.73V91.41Zm8.8,4.7a.55.55,0,0,0-.32-.5,3.11,3.11,0,0,0-1-.33c-1.54-.33-2.31-1-2.31-2a1.81,1.81,0,0,1,.71-1.44,3,3,0,0,1,1.88-.58,3.14,3.14,0,0,1,2,.58,1.84,1.84,0,0,1,.74,1.51h-1.73a.84.84,0,0,0-.24-.61,1,1,0,0,0-.75-.24,1,1,0,0,0-.67.19.62.62,0,0,0-.25.51.54.54,0,0,0,.28.47,3.15,3.15,0,0,0,.92.3,8,8,0,0,1,1.09.29A1.79,1.79,0,0,1,197.48,96a1.7,1.7,0,0,1-.76,1.44,3.26,3.26,0,0,1-2,.55,3.54,3.54,0,0,1-1.45-.29,2.47,2.47,0,0,1-1-.8,1.84,1.84,0,0,1-.35-1.09h1.64a.88.88,0,0,0,.34.7,1.3,1.3,0,0,0,.85.25,1.22,1.22,0,0,0,.75-.19A.59.59,0,0,0,195.8,96.11Z" transform="translate(0 -35)"/><path d="M67.74,127.05h-.52l-2-3v3h-.52v-3.93h.52l2,3v-3h.51Zm.94.34h-.42l1.63-4.27h.43ZM73.11,126H71.46l-.37,1h-.53l1.5-3.93h.45l1.5,3.93h-.53Zm-1.49-.42H73l-.67-1.84Z" transform="translate(0 -35)"/><path d="M98.63,123.4a.43.43,0,0,0-.17-.38,2.11,2.11,0,0,0-.63-.28,4,4,0,0,1-.72-.3,1.17,1.17,0,0,1-.73-1,1,1,0,0,1,.2-.61,1.25,1.25,0,0,1,.55-.42,2,2,0,0,1,.82-.16,1.89,1.89,0,0,1,.81.17,1.25,1.25,0,0,1,.55.46,1.17,1.17,0,0,1,.2.69h-.87a.56.56,0,0,0-.19-.46.78.78,0,0,0-.51-.16.8.8,0,0,0-.5.14.42.42,0,0,0-.18.35.41.41,0,0,0,.21.35,2.41,2.41,0,0,0,.61.26,2.69,2.69,0,0,1,1.09.56,1.1,1.1,0,0,1,.34.83,1,1,0,0,1-.41.87,1.85,1.85,0,0,1-1.13.31,2.14,2.14,0,0,1-.89-.18,1.4,1.4,0,0,1-.62-.49,1.27,1.27,0,0,1-.21-.72h.88c0,.46.28.7.84.7a.79.79,0,0,0,.49-.13A.39.39,0,0,0,98.63,123.4Zm2.88,1.17a1.55,1.55,0,0,1-1.14-.43,1.5,1.5,0,0,1-.43-1.13v-.08a1.93,1.93,0,0,1,.18-.85,1.4,1.4,0,0,1,.52-.58,1.46,1.46,0,0,1,.77-.21,1.31,1.31,0,0,1,1,.41,1.67,1.67,0,0,1,.38,1.16v.35h-2a.78.78,0,0,0,.25.49.73.73,0,0,0,.52.19.91.91,0,0,0,.76-.35l.42.46a1.28,1.28,0,0,1-.52.42A1.64,1.64,0,0,1,101.51,124.57Zm-.1-2.59a.52.52,0,0,0-.41.17.89.89,0,0,0-.2.48H102v-.06a.65.65,0,0,0-.16-.44A.53.53,0,0,0,101.41,122Zm.08-2h.92l-.81.9h-.69Zm2.69,4.48h-.85V120h.85Zm2.15.06a1.53,1.53,0,0,1-1.13-.43,1.51,1.51,0,0,1-.44-1.13v-.08a1.93,1.93,0,0,1,.18-.85,1.4,1.4,0,0,1,.52-.58,1.47,1.47,0,0,1,.78-.21,1.29,1.29,0,0,1,1,.41,1.67,1.67,0,0,1,.38,1.16v.35h-2a.77.77,0,0,0,.24.49.73.73,0,0,0,.53.19.94.94,0,0,0,.76-.35l.41.46a1.31,1.31,0,0,1-.51.42A1.72,1.72,0,0,1,106.33,124.57Zm-.1-2.59a.53.53,0,0,0-.41.17.81.81,0,0,0-.19.48h1.17v-.06a.65.65,0,0,0-.15-.44A.57.57,0,0,0,106.23,122Zm3.19,1.91a.52.52,0,0,0,.38-.13.46.46,0,0,0,.16-.34h.79a1.13,1.13,0,0,1-.18.59,1.11,1.11,0,0,1-.47.41,1.45,1.45,0,0,1-.66.15,1.37,1.37,0,0,1-1.07-.43A1.71,1.71,0,0,1,108,123v-.06a1.68,1.68,0,0,1,.39-1.16,1.5,1.5,0,0,1,2-.1,1.24,1.24,0,0,1,.37.9H110a.6.6,0,0,0-.16-.4.49.49,0,0,0-.38-.15.52.52,0,0,0-.45.21,1.28,1.28,0,0,0-.15.7V123a1.25,1.25,0,0,0,.15.7A.52.52,0,0,0,109.42,123.89Zm2.82-3.31v.77h.54V122h-.54v1.58a.34.34,0,0,0,.07.25.31.31,0,0,0,.25.08l.25,0v.63a1.81,1.81,0,0,1-.51.08.82.82,0,0,1-.91-.9V122h-.46v-.62h.46v-.77Zm1.9,3.93h-.85v-3.16h.85Zm-.9-4a.42.42,0,0,1,.13-.32.47.47,0,0,1,.34-.12.5.5,0,0,1,.35.12.46.46,0,0,1,.13.32.44.44,0,0,1-.13.31.5.5,0,0,1-.35.12.49.49,0,0,1-.34-.12A.44.44,0,0,1,113.24,120.54Zm1.46,2.36a1.72,1.72,0,0,1,.19-.83,1.29,1.29,0,0,1,.51-.57,1.52,1.52,0,0,1,.8-.21,1.45,1.45,0,0,1,1,.4,1.55,1.55,0,0,1,.45,1.06V123a1.65,1.65,0,0,1-.41,1.17,1.42,1.42,0,0,1-1.09.44,1.43,1.43,0,0,1-1.09-.44,1.69,1.69,0,0,1-.41-1.19Zm.85.06a1.14,1.14,0,0,0,.17.69.55.55,0,0,0,.48.24.56.56,0,0,0,.48-.23,1.35,1.35,0,0,0,.17-.76,1.2,1.2,0,0,0-.17-.68.56.56,0,0,0-.48-.24.55.55,0,0,0-.48.24A1.25,1.25,0,0,0,115.55,123Zm3.44-1.61,0,.37a1.11,1.11,0,0,1,.91-.43.89.89,0,0,1,.74.3,1.38,1.38,0,0,1,.26.88v2h-.85v-2a.54.54,0,0,0-.12-.39.49.49,0,0,0-.38-.12.59.59,0,0,0-.54.3v2.23h-.84v-3.16Zm4.86,0,0,.36a1.12,1.12,0,0,1,.91-.42.85.85,0,0,1,.84.49,1.09,1.09,0,0,1,.95-.49.9.9,0,0,1,.76.31,1.33,1.33,0,0,1,.25.9v2h-.84v-2a.59.59,0,0,0-.11-.39.44.44,0,0,0-.37-.13.52.52,0,0,0-.52.36v2.17h-.85v-2a.62.62,0,0,0-.1-.4.5.5,0,0,0-.37-.12.55.55,0,0,0-.52.3v2.23h-.84v-3.16Zm6.22,3.16a.92.92,0,0,1-.09-.28,1,1,0,0,1-.8.34,1.13,1.13,0,0,1-.77-.27.87.87,0,0,1-.3-.68.89.89,0,0,1,.37-.77,1.91,1.91,0,0,1,1.08-.27H130v-.18a.5.5,0,0,0-.12-.35.42.42,0,0,0-.35-.13.51.51,0,0,0-.34.1.35.35,0,0,0-.12.28h-.84a.89.89,0,0,1,.17-.51,1.13,1.13,0,0,1,.48-.36,1.67,1.67,0,0,1,.69-.14,1.37,1.37,0,0,1,.93.3,1,1,0,0,1,.34.82v1.37a1.49,1.49,0,0,0,.13.68v.05Zm-.7-.58a.67.67,0,0,0,.34-.09.52.52,0,0,0,.24-.22v-.55h-.32c-.42,0-.65.15-.67.44v0a.35.35,0,0,0,.11.26A.45.45,0,0,0,129.37,123.93Zm2.85-2.58,0,.37a1.12,1.12,0,0,1,.91-.43.92.92,0,0,1,.75.3,1.38,1.38,0,0,1,.25.88v2h-.85v-2a.43.43,0,0,0-.5-.51.56.56,0,0,0-.53.3v2.23h-.85v-3.16Zm4.46,2.84a1.06,1.06,0,0,1-.86.38,1,1,0,0,1-.78-.29,1.28,1.28,0,0,1-.27-.86v-2.07h.84v2c0,.33.15.5.45.5a.6.6,0,0,0,.59-.3v-2.24h.85v3.16h-.79Zm2.91.38a1.53,1.53,0,0,1-1.13-.43A1.51,1.51,0,0,1,138,123v-.08a1.8,1.8,0,0,1,.19-.85,1.28,1.28,0,0,1,.52-.58,1.41,1.41,0,0,1,.77-.21,1.29,1.29,0,0,1,1,.41,1.67,1.67,0,0,1,.38,1.16v.35h-2a.77.77,0,0,0,.24.49.73.73,0,0,0,.53.19.94.94,0,0,0,.76-.35l.41.46a1.24,1.24,0,0,1-.51.42A1.72,1.72,0,0,1,139.59,124.57Zm-.1-2.59a.5.5,0,0,0-.4.17.82.82,0,0,0-.2.48h1.17v-.06a.6.6,0,0,0-.15-.44A.57.57,0,0,0,139.49,122Zm2.77,2.53h-.85V120h.85Zm1.59,0H143V120h.85Zm2.15.06a1.53,1.53,0,0,1-1.13-.43,1.51,1.51,0,0,1-.44-1.13v-.08a1.8,1.8,0,0,1,.19-.85,1.28,1.28,0,0,1,.52-.58,1.41,1.41,0,0,1,.77-.21,1.33,1.33,0,0,1,1,.41,1.67,1.67,0,0,1,.37,1.16v.35h-2a.82.82,0,0,0,.24.49.75.75,0,0,0,.53.19.94.94,0,0,0,.76-.35l.41.46a1.24,1.24,0,0,1-.51.42A1.72,1.72,0,0,1,146,124.57Zm-.1-2.59a.5.5,0,0,0-.4.17.82.82,0,0,0-.2.48h1.17v-.06a.6.6,0,0,0-.15-.44A.57.57,0,0,0,145.9,122Z" transform="translate(0 -35)"/><path class="cls-2" d="M96.51,133.68v-3.93h1.1a1.78,1.78,0,0,1,.91.23,1.63,1.63,0,0,1,.61.64,2.12,2.12,0,0,1,.21,1v.26a2.13,2.13,0,0,1-.21,1,1.51,1.51,0,0,1-.61.64,1.89,1.89,0,0,1-.93.23Zm.51-3.5v3.08h.55a1.18,1.18,0,0,0,.93-.38,1.55,1.55,0,0,0,.33-1.06v-.22a1.54,1.54,0,0,0-.31-1,1.11,1.11,0,0,0-.89-.38Zm4.83,3.5a1.1,1.1,0,0,1-.07-.31,1.11,1.11,0,0,1-.83.36,1.05,1.05,0,0,1-.71-.24.8.8,0,0,1-.27-.62.83.83,0,0,1,.34-.71,1.63,1.63,0,0,1,1-.25h.48v-.23a.56.56,0,0,0-.15-.41.61.61,0,0,0-.46-.16.73.73,0,0,0-.45.13.4.4,0,0,0-.18.33H100a.72.72,0,0,1,.15-.42,1,1,0,0,1,.42-.32,1.41,1.41,0,0,1,.59-.12,1.15,1.15,0,0,1,.79.25.92.92,0,0,1,.29.69V133a1.55,1.55,0,0,0,.11.63v.05Zm-.83-.38a.89.89,0,0,0,.45-.12.71.71,0,0,0,.3-.32v-.6h-.39c-.61,0-.91.18-.91.54a.47.47,0,0,0,.15.37A.66.66,0,0,0,101,133.3Zm2.71-3.25v.71h.55v.39h-.55V133a.4.4,0,0,0,.07.26.3.3,0,0,0,.25.09.85.85,0,0,0,.24,0v.41a1.73,1.73,0,0,1-.38,0,.63.63,0,0,1-.51-.2.88.88,0,0,1-.17-.57v-1.81h-.53v-.39h.53v-.71Zm2.34,3.68a1.26,1.26,0,0,1-1-.39,1.43,1.43,0,0,1-.38-1v-.09a1.71,1.71,0,0,1,.17-.77,1.28,1.28,0,0,1,.46-.54,1.17,1.17,0,0,1,.65-.19,1.08,1.08,0,0,1,.88.37,1.63,1.63,0,0,1,.32,1.07v.21h-2a1.06,1.06,0,0,0,.25.7.79.79,0,0,0,.62.26.87.87,0,0,0,.44-.1,1.13,1.13,0,0,0,.33-.29l.3.24A1.23,1.23,0,0,1,106.07,133.73Zm-.06-2.61a.67.67,0,0,0-.51.22,1,1,0,0,0-.25.61h1.46v0a.92.92,0,0,0-.21-.58A.61.61,0,0,0,106,131.12Zm3,1.08a1.71,1.71,0,0,1,.31-1.08,1.09,1.09,0,0,1,1.65-.06v-1.52h.5v4.14H111l0-.31a1,1,0,0,1-.83.36,1,1,0,0,1-.83-.41,1.76,1.76,0,0,1-.31-1.09Zm.5.05a1.29,1.29,0,0,0,.2.78.67.67,0,0,0,.57.28.73.73,0,0,0,.69-.43v-1.34a.74.74,0,0,0-.69-.41.69.69,0,0,0-.57.28A1.41,1.41,0,0,0,109.54,132.25Zm3.94,1.48a1.27,1.27,0,0,1-1-.39,1.42,1.42,0,0,1-.37-1v-.09a1.71,1.71,0,0,1,.16-.77,1.3,1.3,0,0,1,.47-.54,1.12,1.12,0,0,1,.64-.19,1.1,1.1,0,0,1,.89.37,1.63,1.63,0,0,1,.31,1.07v.21h-2a1,1,0,0,0,.25.7.77.77,0,0,0,.61.26.88.88,0,0,0,.45-.1,1.1,1.1,0,0,0,.32-.29l.3.24A1.23,1.23,0,0,1,113.48,133.73Zm-.06-2.61a.63.63,0,0,0-.5.22,1,1,0,0,0-.26.61h1.46v0a.92.92,0,0,0-.2-.58A.63.63,0,0,0,113.42,131.12Zm3,1.08a1.71,1.71,0,0,1,.32-1.08,1.08,1.08,0,0,1,1.64-.06v-1.52h.5v4.14h-.46l0-.31a1,1,0,0,1-.83.36,1,1,0,0,1-.83-.41,1.76,1.76,0,0,1-.32-1.09Zm.5.05a1.36,1.36,0,0,0,.2.78.67.67,0,0,0,.57.28.71.71,0,0,0,.69-.43v-1.34a.74.74,0,0,0-.69-.41.69.69,0,0,0-.57.28A1.49,1.49,0,0,0,117,132.25Zm4,1.48a1.28,1.28,0,0,1-1-.39,1.42,1.42,0,0,1-.37-1v-.09a1.71,1.71,0,0,1,.16-.77,1.38,1.38,0,0,1,.47-.54,1.14,1.14,0,0,1,.64-.19,1.1,1.1,0,0,1,.89.37,1.63,1.63,0,0,1,.32,1.07v.21h-2a1.06,1.06,0,0,0,.25.7.78.78,0,0,0,.61.26.88.88,0,0,0,.45-.1,1.1,1.1,0,0,0,.32-.29l.31.24A1.24,1.24,0,0,1,120.9,133.73Zm-.07-2.61a.63.63,0,0,0-.5.22,1.07,1.07,0,0,0-.26.61h1.47v0a1,1,0,0,0-.21-.58A.63.63,0,0,0,120.83,131.12Zm.25-1.58h.6l-.72.79h-.4Zm4,2.71a1.77,1.77,0,0,1-.3,1.08,1,1,0,0,1-.83.4,1,1,0,0,1-.85-.39l0,.34h-.46v-4.14h.5v1.54a1,1,0,0,1,.84-.37,1,1,0,0,1,.83.4,1.8,1.8,0,0,1,.3,1.1Zm-.5-.05a1.36,1.36,0,0,0-.19-.79.64.64,0,0,0-.57-.28.73.73,0,0,0-.71.46v1.26a.76.76,0,0,0,.72.46.65.65,0,0,0,.56-.28A1.43,1.43,0,0,0,124.58,132.2Zm2.93,1.19a1,1,0,0,1-.85.34.91.91,0,0,1-.71-.27,1.23,1.23,0,0,1-.25-.8v-1.9h.5v1.89q0,.66.54.66a.74.74,0,0,0,.76-.43v-2.12h.5v2.92h-.47Zm1.93-3.34v.71H130v.39h-.54V133a.4.4,0,0,0,.07.26.3.3,0,0,0,.25.09.79.79,0,0,0,.23,0v.41a1.65,1.65,0,0,1-.38,0,.63.63,0,0,1-.5-.2.83.83,0,0,1-.17-.57v-1.81h-.53v-.39h.53v-.71Zm2.48,3.37a.38.38,0,0,1,.07-.22.32.32,0,0,1,.24-.08.28.28,0,0,1,.23.08.33.33,0,0,1,.08.22.28.28,0,0,1-.31.29.36.36,0,0,1-.24-.08A.38.38,0,0,1,131.92,133.42Zm0-2.38a.33.33,0,0,1,.08-.22.37.37,0,0,1,.46,0,.29.29,0,0,1,.08.22.24.24,0,0,1-.08.2.34.34,0,0,1-.46,0A.28.28,0,0,1,131.92,131Zm5.24,2.64h-2.57v-.36l1.36-1.51a3.83,3.83,0,0,0,.42-.55,1.06,1.06,0,0,0,.11-.45.66.66,0,0,0-.19-.5.63.63,0,0,0-.49-.2.78.78,0,0,0-.58.21.8.8,0,0,0-.21.59h-.49a1.18,1.18,0,0,1,.34-.88,1.33,1.33,0,0,1,.94-.33,1.24,1.24,0,0,1,.86.29.94.94,0,0,1,.32.76,2.19,2.19,0,0,1-.74,1.38l-1.05,1.14h2Zm2.17,0h-.5v-3.33l-1,.37v-.45l1.43-.53h.08Zm4.68,0a1.1,1.1,0,0,1-.07-.31,1.11,1.11,0,0,1-.83.36,1.05,1.05,0,0,1-.71-.24.8.8,0,0,1-.27-.62.83.83,0,0,1,.34-.71,1.65,1.65,0,0,1,1-.25h.48v-.23a.56.56,0,0,0-.15-.41.61.61,0,0,0-.46-.16.73.73,0,0,0-.45.13.4.4,0,0,0-.18.33h-.5a.72.72,0,0,1,.15-.42,1,1,0,0,1,.42-.32,1.41,1.41,0,0,1,.59-.12,1.15,1.15,0,0,1,.79.25.88.88,0,0,1,.29.69V133a1.55,1.55,0,0,0,.11.63v.05Zm-.83-.38a.89.89,0,0,0,.45-.12.71.71,0,0,0,.3-.32v-.6h-.39c-.61,0-.91.18-.91.54a.47.47,0,0,0,.15.37A.66.66,0,0,0,143.18,133.3Zm2.95-.3.73-2.24h.51l-1.05,2.92h-.38l-1.06-2.92h.51Zm3.13-1.79-.25,0a.64.64,0,0,0-.66.42v2.07h-.5v-2.92h.48v.34a.78.78,0,0,1,.7-.39.46.46,0,0,1,.22,0Zm1,2.47h-.5v-2.92h.5Zm-.54-3.69a.26.26,0,0,1,.29-.29.29.29,0,0,1,.22.08.28.28,0,0,1,.08.21.24.24,0,0,1-.08.2.29.29,0,0,1-.22.08.31.31,0,0,1-.22-.08A.27.27,0,0,1,149.72,130Zm1.88,3.69h-.5v-4.14h.5Z" transform="translate(0 -35)"/><path class="cls-2" d="M165.17,131.86h-1.7v1.4h2v.42H163v-3.93h2.46v.43h-1.95v1.26h1.7Zm1.32-1.1v.37a1.08,1.08,0,0,1,.88-.42c.61,0,.92.35.93,1v1.93h-.5v-1.93a.65.65,0,0,0-.15-.47.55.55,0,0,0-.43-.15.69.69,0,0,0-.43.13,1,1,0,0,0-.29.34v2.08H166v-2.92Zm2.45,1.44a1.71,1.71,0,0,1,.32-1.08,1.08,1.08,0,0,1,1.64-.06v-1.52h.5v4.14h-.46l0-.31a1,1,0,0,1-.83.36,1,1,0,0,1-.83-.41,1.76,1.76,0,0,1-.32-1.09Zm.5.05a1.36,1.36,0,0,0,.2.78.67.67,0,0,0,.57.28.71.71,0,0,0,.69-.43v-1.34a.74.74,0,0,0-.69-.41.69.69,0,0,0-.57.28A1.49,1.49,0,0,0,169.44,132.25Zm4-.05a1.71,1.71,0,0,1,.31-1.08,1.09,1.09,0,0,1,1.65-.06v-1.52h.5v4.14h-.46l0-.31a1,1,0,0,1-.83.36,1,1,0,0,1-.83-.41,1.76,1.76,0,0,1-.31-1.09Zm.49.05a1.29,1.29,0,0,0,.21.78.67.67,0,0,0,.57.28.73.73,0,0,0,.69-.43v-1.34a.74.74,0,0,0-.69-.41.69.69,0,0,0-.57.28A1.41,1.41,0,0,0,173.92,132.25Zm4.54,1.43a1.1,1.1,0,0,1-.07-.31,1.11,1.11,0,0,1-.83.36,1.07,1.07,0,0,1-.71-.24.8.8,0,0,1-.27-.62.84.84,0,0,1,.35-.71,1.6,1.6,0,0,1,1-.25h.49v-.23a.57.57,0,0,0-.16-.41.6.6,0,0,0-.46-.16.73.73,0,0,0-.45.13.4.4,0,0,0-.18.33h-.5a.72.72,0,0,1,.15-.42,1,1,0,0,1,.42-.32,1.45,1.45,0,0,1,.59-.12,1.15,1.15,0,0,1,.79.25.88.88,0,0,1,.29.69V133a1.55,1.55,0,0,0,.11.63v.05Zm-.82-.38a.88.88,0,0,0,.44-.12.79.79,0,0,0,.31-.32v-.6H178c-.61,0-.91.18-.91.54a.44.44,0,0,0,.16.37A.62.62,0,0,0,177.64,133.3Zm2.7-3.25v.71h.55v.39h-.55V133a.4.4,0,0,0,.08.26.28.28,0,0,0,.24.09.85.85,0,0,0,.24,0v.41a1.73,1.73,0,0,1-.38,0,.65.65,0,0,1-.51-.2.88.88,0,0,1-.17-.57v-1.81h-.53v-.39h.53v-.71Zm2.34,3.68a1.27,1.27,0,0,1-1-.39,1.42,1.42,0,0,1-.37-1v-.09a1.71,1.71,0,0,1,.16-.77,1.36,1.36,0,0,1,.46-.54,1.17,1.17,0,0,1,.65-.19,1.11,1.11,0,0,1,.89.37,1.68,1.68,0,0,1,.31,1.07v.21h-2a1,1,0,0,0,.26.7.77.77,0,0,0,.61.26.88.88,0,0,0,.45-.1,1.1,1.1,0,0,0,.32-.29l.3.24A1.23,1.23,0,0,1,182.68,133.73Zm-.06-2.61a.67.67,0,0,0-.51.22,1.07,1.07,0,0,0-.25.61h1.46v0a.92.92,0,0,0-.2-.58A.64.64,0,0,0,182.62,131.12Zm1.76,2.3a.33.33,0,0,1,.08-.22.37.37,0,0,1,.46,0,.29.29,0,0,1,.08.22.28.28,0,0,1-.08.21.31.31,0,0,1-.54-.21Zm0-2.38a.32.32,0,0,1,.07-.22.28.28,0,0,1,.23-.08.31.31,0,0,1,.24.08.33.33,0,0,1,.08.22.28.28,0,0,1-.08.2.31.31,0,0,1-.24.09.29.29,0,0,1-.23-.09A.27.27,0,0,1,184.39,131Zm5,1.61h-1.64l-.37,1h-.54l1.5-3.93h.46l1.5,3.93h-.53Zm-1.49-.42h1.34l-.67-1.84Zm5.31,0a1.74,1.74,0,0,1-.3,1.07,1,1,0,0,1-.83.41,1.07,1.07,0,0,1-.83-.33v1.4h-.5v-4h.45l0,.33a1.1,1.1,0,0,1,1.67,0,1.76,1.76,0,0,1,.31,1.11Zm-.5-.05a1.29,1.29,0,0,0-.21-.78.68.68,0,0,0-.57-.29.72.72,0,0,0-.68.4v1.4a.73.73,0,0,0,.68.39.67.67,0,0,0,.57-.28A1.41,1.41,0,0,0,192.67,132.2Zm2.55-1-.25,0a.65.65,0,0,0-.66.42v2.07h-.5v-2.92h.48v.34a.78.78,0,0,1,.7-.39.46.46,0,0,1,.22,0Zm4.35,2.47H197v-.36l1.36-1.51a3,3,0,0,0,.41-.55,1,1,0,0,0,.12-.45.7.7,0,0,0-.19-.5.65.65,0,0,0-.49-.2.76.76,0,0,0-.58.21.8.8,0,0,0-.21.59h-.5a1.19,1.19,0,0,1,.35-.88,1.31,1.31,0,0,1,.94-.33,1.24,1.24,0,0,1,.86.29,1,1,0,0,1,.32.76,2.24,2.24,0,0,1-.74,1.38l-1.05,1.14h2Zm2.91-2.9a.87.87,0,0,1-.16.52,1.06,1.06,0,0,1-.42.36,1.18,1.18,0,0,1,.49.38,1,1,0,0,1,.18.58,1,1,0,0,1-.35.81,1.29,1.29,0,0,1-.9.3,1.33,1.33,0,0,1-.91-.3,1,1,0,0,1-.34-.81,1.09,1.09,0,0,1,.17-.58,1,1,0,0,1,.49-.38,1,1,0,0,1-.41-.36.87.87,0,0,1-.16-.52,1,1,0,0,1,.32-.79,1.36,1.36,0,0,1,1.68,0A1,1,0,0,1,202.48,130.78Zm-.41,1.83a.72.72,0,0,0-.75-.75.74.74,0,0,0-.55.21.75.75,0,0,0-.2.54.69.69,0,0,0,.2.52.89.89,0,0,0,1.1,0A.69.69,0,0,0,202.07,132.61Zm-.75-2.5a.62.62,0,0,0-.66.68.65.65,0,0,0,.18.48.7.7,0,0,0,1,0,.65.65,0,0,0,.18-.48.64.64,0,0,0-.19-.49A.61.61,0,0,0,201.32,130.11Z" transform="translate(0 -35)"/><path class="cls-2" d="M217.85,133.68v-3.93H219a1.78,1.78,0,0,1,.91.23,1.63,1.63,0,0,1,.61.64,2.12,2.12,0,0,1,.21,1v.26a2.13,2.13,0,0,1-.21,1,1.51,1.51,0,0,1-.61.64,1.86,1.86,0,0,1-.93.23Zm.51-3.5v3.08h.55a1.18,1.18,0,0,0,.93-.38,1.55,1.55,0,0,0,.33-1.06v-.22a1.54,1.54,0,0,0-.31-1,1.11,1.11,0,0,0-.89-.38Zm4.83,3.21a1,1,0,0,1-.85.34.91.91,0,0,1-.71-.27,1.13,1.13,0,0,1-.25-.8v-1.9h.5v1.89q0,.66.54.66a.75.75,0,0,0,.76-.43v-2.12h.5v2.92h-.48Zm2.66-2.18-.25,0a.64.64,0,0,0-.66.42v2.07h-.5v-2.92h.48v.34a.78.78,0,0,1,.7-.39.46.46,0,0,1,.22,0Zm2.15,2.47a1.1,1.1,0,0,1-.07-.31,1.11,1.11,0,0,1-.83.36,1.05,1.05,0,0,1-.71-.24.8.8,0,0,1-.27-.62.83.83,0,0,1,.34-.71,1.63,1.63,0,0,1,1-.25h.48v-.23a.56.56,0,0,0-.15-.41.62.62,0,0,0-.47-.16.72.72,0,0,0-.44.13.4.4,0,0,0-.18.33h-.5a.72.72,0,0,1,.15-.42.91.91,0,0,1,.42-.32,1.41,1.41,0,0,1,.59-.12,1.17,1.17,0,0,1,.79.25.92.92,0,0,1,.29.69V133a1.76,1.76,0,0,0,.1.63v.05Zm-.83-.38a.89.89,0,0,0,.45-.12.71.71,0,0,0,.3-.32v-.6h-.39c-.61,0-.91.18-.91.54a.47.47,0,0,0,.15.37A.66.66,0,0,0,227.17,133.3Zm2.71-3.25v.71h.54v.39h-.54V133a.4.4,0,0,0,.07.26.3.3,0,0,0,.25.09.85.85,0,0,0,.24,0v.41a1.74,1.74,0,0,1-.39,0,.63.63,0,0,1-.5-.2.88.88,0,0,1-.17-.57v-1.81h-.53v-.39h.53v-.71Zm1.67,3.63h-.5v-2.92h.5ZM231,130a.32.32,0,0,1,.08-.21.28.28,0,0,1,.22-.08.26.26,0,0,1,.29.29.27.27,0,0,1-.07.2.31.31,0,0,1-.22.08.28.28,0,0,1-.3-.28Zm1.21,2.2a1.64,1.64,0,0,1,.17-.77,1.28,1.28,0,0,1,.47-.53,1.3,1.3,0,0,1,.68-.18,1.26,1.26,0,0,1,1,.41,1.62,1.62,0,0,1,.37,1.1v0a1.74,1.74,0,0,1-.17.77,1.19,1.19,0,0,1-.47.52,1.23,1.23,0,0,1-.69.19,1.19,1.19,0,0,1-1-.41,1.57,1.57,0,0,1-.37-1.09Zm.5.06a1.23,1.23,0,0,0,.23.78.77.77,0,0,0,1.2,0,1.38,1.38,0,0,0,.23-.84,1.22,1.22,0,0,0-.23-.77.73.73,0,0,0-.61-.3.7.7,0,0,0-.59.29A1.38,1.38,0,0,0,232.72,132.25Zm3.25-1.49,0,.37a1.05,1.05,0,0,1,.87-.42c.62,0,.93.35.93,1v1.93h-.49v-1.93a.75.75,0,0,0-.15-.47.57.57,0,0,0-.44-.15.68.68,0,0,0-.42.13.87.87,0,0,0-.29.34v2.08h-.5v-2.92Zm2.56,2.66a.33.33,0,0,1,.08-.22.37.37,0,0,1,.46,0,.33.33,0,0,1,.08.22.31.31,0,1,1-.62,0Zm0-2.38a.33.33,0,0,1,.08-.22.37.37,0,0,1,.46,0,.29.29,0,0,1,.08.22.24.24,0,0,1-.08.2.34.34,0,0,1-.46,0A.28.28,0,0,1,238.53,131Zm5.21-1-1.63,3.65h-.52l1.62-3.52h-2.13v-.41h2.66Zm1.86,2.17a1.71,1.71,0,0,1,.32-1.08,1.08,1.08,0,0,1,1.64-.06v-1.52h.5v4.14h-.46l0-.31a1,1,0,0,1-.83.36,1,1,0,0,1-.83-.41,1.76,1.76,0,0,1-.32-1.09Zm.5.05a1.36,1.36,0,0,0,.2.78.67.67,0,0,0,.57.28.71.71,0,0,0,.69-.43v-1.34a.74.74,0,0,0-.68-.41.7.7,0,0,0-.58.28A1.49,1.49,0,0,0,246.1,132.25Zm4.54,1.43a1.1,1.1,0,0,1-.07-.31,1.11,1.11,0,0,1-.83.36,1,1,0,0,1-.71-.24.8.8,0,0,1-.27-.62.83.83,0,0,1,.34-.71,1.63,1.63,0,0,1,1-.25h.48v-.23a.53.53,0,0,0-.16-.41.59.59,0,0,0-.46-.16.72.72,0,0,0-.44.13.4.4,0,0,0-.18.33h-.51a.74.74,0,0,1,.16-.42.91.91,0,0,1,.42-.32,1.4,1.4,0,0,1,.58-.12,1.14,1.14,0,0,1,.79.25.92.92,0,0,1,.3.69V133a1.57,1.57,0,0,0,.1.63v.05Zm-.83-.38a.89.89,0,0,0,.45-.12.71.71,0,0,0,.3-.32v-.6h-.39c-.61,0-.92.18-.92.54a.47.47,0,0,0,.16.37A.64.64,0,0,0,249.81,133.3Zm2.94-.35.68-2.19H254l-1.18,3.37c-.18.48-.47.73-.86.73h-.1l-.18,0v-.4h.13a.68.68,0,0,0,.4-.1.8.8,0,0,0,.23-.38l.11-.29-1-2.89H252Zm3.36,0a.37.37,0,0,0-.15-.31,1.49,1.49,0,0,0-.53-.19,2.62,2.62,0,0,1-.6-.2.75.75,0,0,1-.33-.27.62.62,0,0,1-.11-.37.74.74,0,0,1,.3-.6,1.37,1.37,0,0,1,1.58,0,.81.81,0,0,1,.31.66h-.5a.46.46,0,0,0-.17-.35.65.65,0,0,0-.44-.15.71.71,0,0,0-.43.12.37.37,0,0,0-.15.31.31.31,0,0,0,.14.27,1.72,1.72,0,0,0,.52.17,3.21,3.21,0,0,1,.6.2.92.92,0,0,1,.35.28.72.72,0,0,1,.11.4.75.75,0,0,1-.31.63,1.36,1.36,0,0,1-.81.23,1.49,1.49,0,0,1-.62-.12,1.06,1.06,0,0,1-.43-.35.85.85,0,0,1-.15-.48h.5a.54.54,0,0,0,.2.4.78.78,0,0,0,.5.14.75.75,0,0,0,.45-.11A.37.37,0,0,0,256.11,132.9Z" transform="translate(0 -35)"/><rect class="cls-3" x="43.86" y="72.5" width="279.18" height="35.72" rx="4.06"/><rect class="cls-3" x="43.86" y="116.15" width="279.18" height="36.4" rx="4.06"/><path class="cls-4" d="M99.18,161.43h46.71a3.13,3.13,0,0,1,3.13,3.13h0a3.13,3.13,0,0,1-3.13,3.13H99.18a3.13,3.13,0,0,1-3.13-3.13h0A3.13,3.13,0,0,1,99.18,161.43Z" transform="translate(0 -35)"/><path class="cls-5" d="M97.74,173h49.59a1.69,1.69,0,0,1,1.69,1.68h0a1.69,1.69,0,0,1-1.69,1.69H97.74a1.69,1.69,0,0,1-1.69-1.69h0A1.69,1.69,0,0,1,97.74,173Z" transform="translate(0 -35)"/><path class="cls-5" d="M160.33,173h49.6a1.68,1.68,0,0,1,1.68,1.68h0a1.69,1.69,0,0,1-1.68,1.69h-49.6a1.69,1.69,0,0,1-1.68-1.69h0A1.68,1.68,0,0,1,160.33,173Z" transform="translate(0 -35)"/><path class="cls-5" d="M222.93,173h49.59a1.69,1.69,0,0,1,1.69,1.68h0a1.69,1.69,0,0,1-1.69,1.69H222.93a1.69,1.69,0,0,1-1.69-1.69h0A1.69,1.69,0,0,1,222.93,173Z" transform="translate(0 -35)"/><path class="cls-5" d="M62.11,168.17h13a1.68,1.68,0,0,1,1.68,1.69h0a1.68,1.68,0,0,1-1.68,1.68h-13a1.68,1.68,0,0,1-1.69-1.68h0A1.68,1.68,0,0,1,62.11,168.17Z" transform="translate(0 -35)"/><rect class="cls-3" x="43.86" y="165.93" width="279.18" height="36.4" rx="4.06"/><path class="cls-4" d="M99.18,211.08h46.71a3.13,3.13,0,0,1,3.13,3.13h0a3.13,3.13,0,0,1-3.13,3.13H99.18a3.13,3.13,0,0,1-3.13-3.13h0A3.13,3.13,0,0,1,99.18,211.08Z" transform="translate(0 -35)"/><path class="cls-5" d="M97.74,222.64h49.59a1.69,1.69,0,0,1,1.69,1.68h0a1.69,1.69,0,0,1-1.69,1.69H97.74a1.69,1.69,0,0,1-1.69-1.69h0A1.69,1.69,0,0,1,97.74,222.64Z" transform="translate(0 -35)"/><path class="cls-5" d="M160.33,222.64h49.6a1.68,1.68,0,0,1,1.68,1.68h0a1.69,1.69,0,0,1-1.68,1.69h-49.6a1.69,1.69,0,0,1-1.68-1.69h0A1.68,1.68,0,0,1,160.33,222.64Z" transform="translate(0 -35)"/><path class="cls-5" d="M222.93,222.64h49.59a1.69,1.69,0,0,1,1.69,1.68h0a1.69,1.69,0,0,1-1.69,1.69H222.93a1.69,1.69,0,0,1-1.69-1.69h0A1.69,1.69,0,0,1,222.93,222.64Z" transform="translate(0 -35)"/><path class="cls-5" d="M62.11,217.82h13a1.69,1.69,0,0,1,1.68,1.69h0a1.68,1.68,0,0,1-1.68,1.68h-13a1.68,1.68,0,0,1-1.69-1.68h0A1.69,1.69,0,0,1,62.11,217.82Z" transform="translate(0 -35)"/><rect class="cls-6" x="124.29" y="0.29" width="176.11" height="217.8" rx="5.58"/><path d="M148.56,52h-2.68v7.28h-1.79V52h-2.64V50.51h7.11Zm2.84,4.82,1.2-4h1.86l-2.61,7.49-.14.34a2,2,0,0,1-1.92,1.27,2.65,2.65,0,0,1-.77-.11V60.43h.27a1.4,1.4,0,0,0,.73-.15,1,1,0,0,0,.38-.49l.21-.54-2.27-6.5h1.86Zm9.58-.73a3.89,3.89,0,0,1-.68,2.41,2.17,2.17,0,0,1-1.84.9,2,2,0,0,1-1.58-.69v3.06h-1.73v-9h1.6l.06.64a2,2,0,0,1,1.64-.76,2.22,2.22,0,0,1,1.87.89A4,4,0,0,1,161,56Zm-1.73-.12a2.59,2.59,0,0,0-.32-1.4A1.05,1.05,0,0,0,158,54a1.13,1.13,0,0,0-1.12.62v2.66A1.16,1.16,0,0,0,158,58C158.84,58,159.25,57.28,159.25,55.93Zm5.8,3.43a3.22,3.22,0,0,1-2.33-.88,3.13,3.13,0,0,1-.89-2.33V56a3.77,3.77,0,0,1,.38-1.74,2.73,2.73,0,0,1,1.06-1.19,3,3,0,0,1,1.58-.42,2.7,2.7,0,0,1,2.1.84,3.4,3.4,0,0,1,.76,2.38v.71h-4.13a1.66,1.66,0,0,0,.51,1,1.56,1.56,0,0,0,1.07.38,1.87,1.87,0,0,0,1.57-.73l.85,1a2.74,2.74,0,0,1-1.06.86A3.52,3.52,0,0,1,165.05,59.36Zm-.2-5.33a1.12,1.12,0,0,0-.84.35,1.81,1.81,0,0,0-.41,1H166v-.14a1.28,1.28,0,0,0-.31-.89A1.12,1.12,0,0,0,164.85,54Zm6.64,1.91a3.92,3.92,0,0,1,.68-2.41,2.2,2.2,0,0,1,1.86-.9,2,2,0,0,1,1.57.71V50h1.73v9.21h-1.56l-.09-.69a2,2,0,0,1-1.66.81,2.21,2.21,0,0,1-1.84-.9A4.08,4.08,0,0,1,171.49,55.94Zm1.73.13a2.59,2.59,0,0,0,.32,1.4,1,1,0,0,0,.92.48,1.16,1.16,0,0,0,1.14-.67V54.72a1.14,1.14,0,0,0-1.12-.68C173.64,54,173.22,54.72,173.22,56.07Zm6.44-5.16-.17,2.42h-1.1V50h1.27Zm4.47,8.33a1.79,1.79,0,0,1-.18-.59,2.08,2.08,0,0,1-1.63.71,2.32,2.32,0,0,1-1.59-.56,1.78,1.78,0,0,1-.62-1.39,1.84,1.84,0,0,1,.76-1.58,3.81,3.81,0,0,1,2.21-.56h.8V54.9a1.09,1.09,0,0,0-.23-.72.92.92,0,0,0-.73-.27,1.05,1.05,0,0,0-.69.21.73.73,0,0,0-.24.58h-1.74a1.72,1.72,0,0,1,.35-1,2.28,2.28,0,0,1,1-.75,3.48,3.48,0,0,1,1.43-.28,2.78,2.78,0,0,1,1.9.61,2.1,2.1,0,0,1,.71,1.69v2.81a3,3,0,0,0,.26,1.39v.11ZM182.69,58a1.55,1.55,0,0,0,.71-.17,1.12,1.12,0,0,0,.48-.46V56.29h-.65c-.86,0-1.33.3-1.38.9v.1a.7.7,0,0,0,.23.53A.88.88,0,0,0,182.69,58Zm7-.07a1.11,1.11,0,0,0,.77-.27.91.91,0,0,0,.32-.7h1.62A2.15,2.15,0,0,1,192,58.2a2.45,2.45,0,0,1-1,.86,3,3,0,0,1-1.35.3,2.83,2.83,0,0,1-2.2-.89,3.52,3.52,0,0,1-.8-2.44v-.12a3.44,3.44,0,0,1,.8-2.39,2.79,2.79,0,0,1,2.18-.89,2.7,2.7,0,0,1,2,.7,2.43,2.43,0,0,1,.75,1.84h-1.62a1.19,1.19,0,0,0-.32-.82,1,1,0,0,0-.79-.32,1,1,0,0,0-.91.45,2.47,2.47,0,0,0-.31,1.42v.18a2.52,2.52,0,0,0,.31,1.44A1.05,1.05,0,0,0,189.65,58Zm5.39-4.5a2.17,2.17,0,0,1,1.73-.83c1.41,0,2.12.82,2.14,2.45v4.16h-1.73V55.13a1.18,1.18,0,0,0-.24-.82,1,1,0,0,0-.8-.27,1.16,1.16,0,0,0-1.1.59v4.61h-1.73V50H195ZM204,59.24a2.06,2.06,0,0,1-.18-.59,2.08,2.08,0,0,1-1.63.71,2.32,2.32,0,0,1-1.59-.56,1.78,1.78,0,0,1-.62-1.39,1.84,1.84,0,0,1,.76-1.58,3.81,3.81,0,0,1,2.21-.56h.8V54.9a1.09,1.09,0,0,0-.23-.72.91.91,0,0,0-.73-.27,1.05,1.05,0,0,0-.69.21.73.73,0,0,0-.24.58H200.1a1.72,1.72,0,0,1,.35-1,2.28,2.28,0,0,1,1-.75,3.48,3.48,0,0,1,1.43-.28,2.78,2.78,0,0,1,1.9.61,2.1,2.1,0,0,1,.71,1.69v2.81a3,3,0,0,0,.26,1.39v.11ZM202.54,58a1.52,1.52,0,0,0,.71-.17,1.07,1.07,0,0,0,.48-.46V56.29h-.65q-1.29,0-1.38.9v.1a.7.7,0,0,0,.23.53A.88.88,0,0,0,202.54,58Zm6.33-6.87v1.59H210V54h-1.11v3.24a.76.76,0,0,0,.14.51.67.67,0,0,0,.53.16,3.77,3.77,0,0,0,.51,0V59.2a3.71,3.71,0,0,1-1.05.16,1.65,1.65,0,0,1-1.86-1.84V54h-.95V52.75h.95V51.16Z" transform="translate(0 -35)"/><path d="M157.4,85.6h-2.63v2.77H154V82.1h3.88v.68h-3.06v2.14h2.63Zm3.44-1.17a2.34,2.34,0,0,0-.39,0,1.06,1.06,0,0,0-1.07.67v3.31h-.79V83.71h.77v.54a1.23,1.23,0,0,1,1.11-.63.84.84,0,0,1,.36.06Zm2.58,4a2,2,0,0,1-1.54-.62,2.29,2.29,0,0,1-.6-1.66V86a2.71,2.71,0,0,1,.27-1.23,2.08,2.08,0,0,1,.74-.86,1.91,1.91,0,0,1,1-.31,1.72,1.72,0,0,1,1.41.6,2.58,2.58,0,0,1,.51,1.72v.33h-3.16a1.67,1.67,0,0,0,.4,1.11,1.29,1.29,0,0,0,1,.42,1.37,1.37,0,0,0,.72-.17,1.8,1.8,0,0,0,.51-.45l.49.37A2,2,0,0,1,163.42,88.45Zm-.1-4.17a1.08,1.08,0,0,0-.81.35,1.66,1.66,0,0,0-.4,1h2.33v-.06a1.5,1.5,0,0,0-.33-.94A1,1,0,0,0,163.32,84.28Zm.39-2.52h1L163.52,83h-.64ZM166,86a2.74,2.74,0,0,1,.5-1.73,1.77,1.77,0,0,1,2.66-.09l0-.47h.73v6.45h-.79V87.94a1.68,1.68,0,0,1-1.28.51,1.59,1.59,0,0,1-1.35-.65,2.77,2.77,0,0,1-.5-1.74Zm.79.09a2.12,2.12,0,0,0,.34,1.26,1.09,1.09,0,0,0,.91.45,1.18,1.18,0,0,0,1.09-.62V84.89a1.19,1.19,0,0,0-1.08-.61,1.09,1.09,0,0,0-.92.46A2.27,2.27,0,0,0,166.76,86.09Zm7.29,1.82a1.71,1.71,0,0,1-1.37.54,1.44,1.44,0,0,1-1.13-.43,1.9,1.9,0,0,1-.4-1.28v-3h.8v3c0,.71.29,1.06.86,1.06A1.2,1.2,0,0,0,174,87.1V83.71h.79v4.66h-.75Zm3.92.54a2,2,0,0,1-1.54-.62,2.28,2.28,0,0,1-.59-1.66V86a2.71,2.71,0,0,1,.26-1.23,2,2,0,0,1,.74-.86,1.91,1.91,0,0,1,1-.31,1.72,1.72,0,0,1,1.41.6,2.58,2.58,0,0,1,.51,1.72v.33h-3.16a1.67,1.67,0,0,0,.4,1.11,1.29,1.29,0,0,0,1,.42,1.37,1.37,0,0,0,.72-.17,1.8,1.8,0,0,0,.51-.45l.49.37A2,2,0,0,1,178,88.45Zm-.1-4.17a1.08,1.08,0,0,0-.81.35,1.66,1.66,0,0,0-.4,1H179v-.06a1.5,1.5,0,0,0-.33-.94A1,1,0,0,0,177.87,84.28Zm3.6-.57,0,.59a1.71,1.71,0,0,1,1.4-.68c1,0,1.48.56,1.49,1.67v3.08h-.8V85.29a1.07,1.07,0,0,0-.23-.75.93.93,0,0,0-.7-.24,1.17,1.17,0,0,0-.69.21,1.41,1.41,0,0,0-.45.54v3.32h-.8V83.71Zm6,4.09a1.14,1.14,0,0,0,.74-.25.92.92,0,0,0,.35-.65h.76a1.47,1.47,0,0,1-.28.76,1.76,1.76,0,0,1-.68.58,2,2,0,0,1-.89.21,1.94,1.94,0,0,1-1.52-.63,2.54,2.54,0,0,1-.56-1.74V86a2.76,2.76,0,0,1,.25-1.21,1.86,1.86,0,0,1,.72-.82,2,2,0,0,1,1.1-.3,1.87,1.87,0,0,1,1.3.47,1.71,1.71,0,0,1,.56,1.22h-.76a1.05,1.05,0,0,0-.34-.74,1.09,1.09,0,0,0-.76-.29,1.12,1.12,0,0,0-.94.44,2.06,2.06,0,0,0-.33,1.26v.15a2,2,0,0,0,.33,1.24A1.12,1.12,0,0,0,187.45,87.8Zm4.68.65a2,2,0,0,1-1.55-.62,2.32,2.32,0,0,1-.59-1.66V86a2.85,2.85,0,0,1,.26-1.23,2.15,2.15,0,0,1,.74-.86,1.94,1.94,0,0,1,1-.31,1.75,1.75,0,0,1,1.41.6,2.63,2.63,0,0,1,.5,1.72v.33h-3.15a1.62,1.62,0,0,0,.4,1.11,1.27,1.27,0,0,0,1,.42,1.31,1.31,0,0,0,.71-.17,1.71,1.71,0,0,0,.52-.45l.48.37A2,2,0,0,1,192.13,88.45Zm-.1-4.17a1.07,1.07,0,0,0-.81.35,1.67,1.67,0,0,0-.41,1h2.34v-.06a1.63,1.63,0,0,0-.33-.94A1,1,0,0,0,192,84.28Z" transform="translate(0 -35)"/><path d="M158.87,124a3.85,3.85,0,0,1-.31,1.61,2.34,2.34,0,0,1-.88,1,2.58,2.58,0,0,1-2.63,0,2.48,2.48,0,0,1-.9-1,4,4,0,0,1-.32-1.56v-.46a3.79,3.79,0,0,1,.32-1.59,2.33,2.33,0,0,1,.88-1.06,2.39,2.39,0,0,1,1.32-.37,2.48,2.48,0,0,1,1.33.36,2.32,2.32,0,0,1,.88,1.06,3.81,3.81,0,0,1,.31,1.6Zm-.82-.41a2.75,2.75,0,0,0-.45-1.7,1.58,1.58,0,0,0-2.48,0,2.72,2.72,0,0,0-.47,1.65V124a2.77,2.77,0,0,0,.46,1.7,1.58,1.58,0,0,0,2.49,0,2.81,2.81,0,0,0,.45-1.67Zm5.88,1.06a2.75,2.75,0,0,1-.49,1.72,1.57,1.57,0,0,1-1.32.65,1.62,1.62,0,0,1-1.36-.63l0,.54H160v-6.61h.8v2.47a1.6,1.6,0,0,1,1.33-.6,1.58,1.58,0,0,1,1.33.64,2.87,2.87,0,0,1,.48,1.76Zm-.8-.09a2.12,2.12,0,0,0-.31-1.25,1,1,0,0,0-.9-.45,1.16,1.16,0,0,0-1.13.73v2a1.19,1.19,0,0,0,1.14.73,1.05,1.05,0,0,0,.89-.44A2.33,2.33,0,0,0,163.13,124.51Zm2.63-2.29v5.2c0,.9-.41,1.34-1.22,1.34a1.27,1.27,0,0,1-.48-.08v-.63a1.73,1.73,0,0,0,.36,0,.54.54,0,0,0,.4-.14.68.68,0,0,0,.14-.5v-5.22Zm-.88-1.23a.44.44,0,0,1,.12-.32.42.42,0,0,1,.35-.14.45.45,0,0,1,.35.13.48.48,0,0,1,.12.33.45.45,0,0,1-.12.32.45.45,0,0,1-.35.13.43.43,0,0,1-.35-.13A.45.45,0,0,1,164.88,121Zm4.1,6a2.06,2.06,0,0,1-1.54-.62,2.3,2.3,0,0,1-.59-1.67v-.14a2.72,2.72,0,0,1,.26-1.24,2,2,0,0,1,.74-.85,1.83,1.83,0,0,1,1-.31,1.72,1.72,0,0,1,1.41.6,2.57,2.57,0,0,1,.51,1.71v.33h-3.16a1.71,1.71,0,0,0,.4,1.12,1.29,1.29,0,0,0,1,.42,1.35,1.35,0,0,0,.72-.18,1.8,1.8,0,0,0,.51-.45l.49.38A2,2,0,0,1,169,127Zm-.1-4.18a1.08,1.08,0,0,0-.81.35,1.69,1.69,0,0,0-.4,1H170v-.06a1.51,1.51,0,0,0-.32-.94A1,1,0,0,0,168.88,122.79Zm4.71,3.53a1.16,1.16,0,0,0,.75-.26.9.9,0,0,0,.35-.65h.75a1.44,1.44,0,0,1-.27.77,1.81,1.81,0,0,1-.68.57,1.87,1.87,0,0,1-.9.22,1.89,1.89,0,0,1-1.51-.64,2.49,2.49,0,0,1-.56-1.73v-.14a2.79,2.79,0,0,1,.25-1.21,1.89,1.89,0,0,1,.71-.82,2.08,2.08,0,0,1,1.11-.29,1.84,1.84,0,0,1,1.3.47,1.64,1.64,0,0,1,.55,1.21h-.75a1.12,1.12,0,0,0-.34-.74,1.09,1.09,0,0,0-.76-.29,1.11,1.11,0,0,0-.94.44,2,2,0,0,0-.34,1.26v.15a2,2,0,0,0,.34,1.24A1.11,1.11,0,0,0,173.59,126.32Zm3.83-5.22v1.12h.87v.62h-.87v2.89a.64.64,0,0,0,.12.42.47.47,0,0,0,.39.14,2.33,2.33,0,0,0,.38-.05v.64a2.2,2.2,0,0,1-.61.09,1,1,0,0,1-.81-.33,1.37,1.37,0,0,1-.27-.91v-2.89h-.85v-.62h.85V121.1Zm2.67,5.78h-.8v-4.66h.8Zm-.86-5.89a.52.52,0,0,1,.11-.33.45.45,0,0,1,.36-.13.45.45,0,0,1,.35.13.48.48,0,0,1,.12.33.45.45,0,0,1-.12.32.45.45,0,0,1-.35.13.45.45,0,0,1-.36-.13A.5.5,0,0,1,179.23,121Zm2.53,5.89v-4H181v-.62h.74v-.47a1.57,1.57,0,0,1,.4-1.16,1.52,1.52,0,0,1,1.13-.41,2,2,0,0,1,.55.07l-.05.65a1.87,1.87,0,0,0-.42,0,.75.75,0,0,0-.6.23.9.9,0,0,0-.22.64v.49h1v.62h-1v4Zm4.67-2.37a2.77,2.77,0,0,1,.5-1.72,1.63,1.63,0,0,1,1.33-.65,1.6,1.6,0,0,1,1.3.56v-2.43h.8v6.61h-.74l0-.5a1.64,1.64,0,0,1-1.33.59,1.61,1.61,0,0,1-1.33-.66,2.85,2.85,0,0,1-.5-1.74Zm.79.09a2.05,2.05,0,0,0,.33,1.24,1.06,1.06,0,0,0,.9.45,1.15,1.15,0,0,0,1.11-.68v-2.14a1.17,1.17,0,0,0-1.1-.66,1.06,1.06,0,0,0-.91.45A2.28,2.28,0,0,0,187.22,124.6Zm4.86-3.85-.09,1.58h-.55v-2.06h.64Zm1.92,6.13h-.79v-4.66H194Zm-.86-5.89a.48.48,0,0,1,.12-.33.54.54,0,0,1,.7,0,.48.48,0,0,1,.12.33.45.45,0,0,1-.12.32.54.54,0,0,1-.7,0A.45.45,0,0,1,193.14,121Zm2.89,1.23,0,.52a1.72,1.72,0,0,1,1.38-.6,1.32,1.32,0,0,1,1.33.75,1.79,1.79,0,0,1,.61-.55,1.87,1.87,0,0,1,.88-.2q1.53,0,1.56,1.62v3.12H201v-3.07a1.08,1.08,0,0,0-.23-.75,1,1,0,0,0-.76-.25,1.05,1.05,0,0,0-.74.27,1.07,1.07,0,0,0-.34.71v3.09h-.8v-3a.89.89,0,0,0-1-1,1.08,1.08,0,0,0-1.08.67v3.4h-.79v-4.66ZM207,124.6a2.78,2.78,0,0,1-.49,1.72,1.56,1.56,0,0,1-1.32.65,1.7,1.7,0,0,1-1.33-.54v2.24H203v-6.45h.73l0,.52a1.63,1.63,0,0,1,1.35-.6,1.6,1.6,0,0,1,1.33.63,2.85,2.85,0,0,1,.49,1.76Zm-.8-.09a2.07,2.07,0,0,0-.33-1.24,1.09,1.09,0,0,0-.93-.46,1.17,1.17,0,0,0-1.08.65v2.22a1.16,1.16,0,0,0,1.09.64,1.06,1.06,0,0,0,.91-.46A2.2,2.2,0,0,0,206.15,124.51Zm4.06-1.57a2.38,2.38,0,0,0-.39,0,1.05,1.05,0,0,0-1.06.66v3.31H208v-4.66h.78v.54a1.25,1.25,0,0,1,1.11-.62.79.79,0,0,1,.35.06Zm2.59,4a2,2,0,0,1-1.54-.62,2.31,2.31,0,0,1-.6-1.67v-.14a2.73,2.73,0,0,1,.27-1.24,1.93,1.93,0,0,1,.74-.85,1.81,1.81,0,0,1,1-.31,1.75,1.75,0,0,1,1.41.6,2.57,2.57,0,0,1,.51,1.71v.33h-3.16a1.66,1.66,0,0,0,.4,1.12,1.29,1.29,0,0,0,1,.42,1.37,1.37,0,0,0,.72-.18,1.8,1.8,0,0,0,.51-.45l.48.38A2,2,0,0,1,212.8,127Zm-.1-4.18a1.08,1.08,0,0,0-.81.35,1.69,1.69,0,0,0-.4,1h2.33v-.06a1.51,1.51,0,0,0-.33-.94A1,1,0,0,0,212.7,122.79Zm5.55,2.86a.57.57,0,0,0-.24-.5,2.23,2.23,0,0,0-.85-.31,4.33,4.33,0,0,1-1-.31,1.47,1.47,0,0,1-.53-.43,1.08,1.08,0,0,1-.16-.6,1.23,1.23,0,0,1,.48-1,1.92,1.92,0,0,1,1.24-.39,1.89,1.89,0,0,1,1.28.41,1.29,1.29,0,0,1,.5,1h-.8a.73.73,0,0,0-.28-.56,1,1,0,0,0-.7-.24,1.12,1.12,0,0,0-.68.19.59.59,0,0,0-.25.5.49.49,0,0,0,.23.43,2.79,2.79,0,0,0,.82.28,4.58,4.58,0,0,1,1,.32,1.33,1.33,0,0,1,.55.45,1.07,1.07,0,0,1,.18.63,1.19,1.19,0,0,1-.5,1,2.09,2.09,0,0,1-1.3.38,2.4,2.4,0,0,1-1-.2,1.66,1.66,0,0,1-.67-.55,1.37,1.37,0,0,1-.24-.77h.79a.83.83,0,0,0,.32.63,1.24,1.24,0,0,0,.79.24,1.32,1.32,0,0,0,.73-.18A.58.58,0,0,0,218.25,125.65Zm4.55,0a.55.55,0,0,0-.25-.5,2.17,2.17,0,0,0-.84-.31,4.26,4.26,0,0,1-1-.31,1.52,1.52,0,0,1-.52-.43,1.08,1.08,0,0,1-.17-.6,1.23,1.23,0,0,1,.48-1,2.2,2.2,0,0,1,2.53,0,1.28,1.28,0,0,1,.49,1h-.8a.7.7,0,0,0-.28-.56,1,1,0,0,0-.7-.24,1.14,1.14,0,0,0-.68.19.61.61,0,0,0-.24.5.47.47,0,0,0,.23.43,2.68,2.68,0,0,0,.82.28,4.58,4.58,0,0,1,1,.32,1.29,1.29,0,0,1,.54.45,1,1,0,0,1,.19.63,1.19,1.19,0,0,1-.5,1,2.13,2.13,0,0,1-1.3.38,2.4,2.4,0,0,1-1-.2,1.69,1.69,0,0,1-.68-.55,1.37,1.37,0,0,1-.24-.77h.8a.8.8,0,0,0,.32.63,1.22,1.22,0,0,0,.79.24,1.28,1.28,0,0,0,.72-.18A.57.57,0,0,0,222.8,125.65Zm2.7,1.23h-.8v-4.66h.8Zm-.86-5.89a.52.52,0,0,1,.11-.33.45.45,0,0,1,.36-.13.45.45,0,0,1,.35.13.48.48,0,0,1,.12.33.45.45,0,0,1-.12.32.45.45,0,0,1-.35.13.45.45,0,0,1-.36-.13A.5.5,0,0,1,224.64,121Zm1.93,3.52a2.71,2.71,0,0,1,.26-1.23,2,2,0,0,1,.75-.85,2.12,2.12,0,0,1,1.1-.29,2,2,0,0,1,1.54.66,2.54,2.54,0,0,1,.59,1.75v0a2.74,2.74,0,0,1-.27,1.23,2.08,2.08,0,0,1-.74.84,2.05,2.05,0,0,1-1.11.3,2,2,0,0,1-1.54-.66,2.52,2.52,0,0,1-.58-1.74Zm.8.09a2.06,2.06,0,0,0,.35,1.25,1.18,1.18,0,0,0,1,.47,1.14,1.14,0,0,0,1-.48,2.15,2.15,0,0,0,.36-1.33,1.93,1.93,0,0,0-.37-1.24,1.14,1.14,0,0,0-1-.48,1.15,1.15,0,0,0-1,.47A2.16,2.16,0,0,0,227.37,124.6Zm5.19-2.38,0,.59a1.7,1.7,0,0,1,1.4-.67c1,0,1.48.55,1.49,1.66v3.08h-.8V123.8a1.07,1.07,0,0,0-.23-.75.91.91,0,0,0-.7-.24,1.12,1.12,0,0,0-.68.21,1.42,1.42,0,0,0-.46.54v3.32h-.8v-4.66Zm6.82,3.43a.57.57,0,0,0-.24-.5,2.23,2.23,0,0,0-.85-.31,4.33,4.33,0,0,1-1-.31,1.47,1.47,0,0,1-.53-.43,1.08,1.08,0,0,1-.17-.6,1.21,1.21,0,0,1,.49-1,2.18,2.18,0,0,1,2.52,0,1.28,1.28,0,0,1,.49,1h-.8a.7.7,0,0,0-.28-.56,1,1,0,0,0-.69-.24,1.12,1.12,0,0,0-.68.19.59.59,0,0,0-.25.5.49.49,0,0,0,.23.43,2.79,2.79,0,0,0,.82.28,4.58,4.58,0,0,1,1,.32,1.33,1.33,0,0,1,.55.45,1.07,1.07,0,0,1,.18.63,1.19,1.19,0,0,1-.5,1,2.11,2.11,0,0,1-1.3.38,2.4,2.4,0,0,1-1-.2,1.6,1.6,0,0,1-.67-.55,1.37,1.37,0,0,1-.24-.77h.79a.83.83,0,0,0,.32.63,1.22,1.22,0,0,0,.79.24,1.32,1.32,0,0,0,.73-.18A.58.58,0,0,0,239.38,125.65Z" transform="translate(0 -35)"/><path d="M154.77,148.2v2.45H154v-6.26h2.31a2.31,2.31,0,0,1,1.61.52,2,2,0,0,1,0,2.8,2.41,2.41,0,0,1-1.63.49Zm0-.68h1.49a1.5,1.5,0,0,0,1-.31,1.15,1.15,0,0,0,.35-.9,1.22,1.22,0,0,0-.35-.9,1.38,1.38,0,0,0-1-.34h-1.54Zm7.44,3.13a1.54,1.54,0,0,1-.11-.49,1.76,1.76,0,0,1-1.33.58,1.63,1.63,0,0,1-1.13-.39,1.28,1.28,0,0,1-.44-1,1.29,1.29,0,0,1,.55-1.12,2.54,2.54,0,0,1,1.56-.41h.78v-.37a.91.91,0,0,0-.25-.66,1,1,0,0,0-.74-.25,1.16,1.16,0,0,0-.72.22.62.62,0,0,0-.28.52h-.81a1.09,1.09,0,0,1,.25-.67,1.76,1.76,0,0,1,.67-.52,2.26,2.26,0,0,1,.94-.19,1.81,1.81,0,0,1,1.26.41,1.43,1.43,0,0,1,.47,1.1v2.15a2.87,2.87,0,0,0,.16,1v.06Zm-1.32-.6a1.41,1.41,0,0,0,.71-.2,1.24,1.24,0,0,0,.49-.5v-1h-.63c-1,0-1.46.29-1.46.86a.72.72,0,0,0,.25.59A1,1,0,0,0,160.89,150.05Zm5.49-3.34a2.38,2.38,0,0,0-.39,0,1,1,0,0,0-1.06.67v3.3h-.8V146h.77l0,.53a1.25,1.25,0,0,1,1.11-.62.82.82,0,0,1,.35.06Zm2-1.84V146h.87v.61h-.87v2.89a.62.62,0,0,0,.12.42.51.51,0,0,0,.4.14,2.24,2.24,0,0,0,.37-.05v.64a2.15,2.15,0,0,1-.61.09,1,1,0,0,1-.8-.32,1.4,1.4,0,0,1-.27-.92v-2.89h-.85V146h.85v-1.13Zm3.8,3.42a2.74,2.74,0,0,1,.51-1.73,1.72,1.72,0,0,1,2.62-.09V144h.8v6.61h-.73l0-.5a1.63,1.63,0,0,1-1.33.59,1.59,1.59,0,0,1-1.32-.66,2.78,2.78,0,0,1-.51-1.73Zm.8.09a2.15,2.15,0,0,0,.32,1.24,1.08,1.08,0,0,0,.91.44,1.15,1.15,0,0,0,1.1-.68v-2.14a1.15,1.15,0,0,0-1.09-.65,1.08,1.08,0,0,0-.92.45A2.34,2.34,0,0,0,173,148.38Zm6.3,2.36a2.06,2.06,0,0,1-1.54-.62,2.35,2.35,0,0,1-.59-1.67v-.14a2.89,2.89,0,0,1,.26-1.24,2.12,2.12,0,0,1,.74-.85,1.83,1.83,0,0,1,1-.31,1.76,1.76,0,0,1,1.42.6,2.62,2.62,0,0,1,.5,1.71v.33H178a1.66,1.66,0,0,0,.4,1.12,1.26,1.26,0,0,0,1,.42,1.41,1.41,0,0,0,.71-.17,1.72,1.72,0,0,0,.51-.46l.49.38A2,2,0,0,1,179.31,150.74Zm-.1-4.18a1.06,1.06,0,0,0-.81.36,1.73,1.73,0,0,0-.4,1h2.33v-.06a1.51,1.51,0,0,0-.32-.94A1,1,0,0,0,179.21,146.56Zm6.57,3,1.15-3.57h.82l-1.67,4.65h-.61L183.78,146h.82Zm2.45-1.29a2.74,2.74,0,0,1,.27-1.23,2,2,0,0,1,.75-.84,2,2,0,0,1,1.1-.3,2,2,0,0,1,1.53.66,2.49,2.49,0,0,1,.59,1.75v.06a2.7,2.7,0,0,1-.26,1.22,2,2,0,0,1-.74.84,2.07,2.07,0,0,1-1.11.3,2,2,0,0,1-1.54-.66,2.53,2.53,0,0,1-.59-1.74Zm.8.1a2,2,0,0,0,.36,1.24,1.23,1.23,0,0,0,1.93,0,2.2,2.2,0,0,0,.36-1.34,2,2,0,0,0-.37-1.24,1.2,1.2,0,0,0-1.91,0A2.13,2.13,0,0,0,189,148.38Zm5.31,2.27h-.8V146h.8Zm-.86-5.89a.52.52,0,0,1,.11-.33.45.45,0,0,1,.36-.13.45.45,0,0,1,.35.13.48.48,0,0,1,.12.33.44.44,0,0,1-.12.32.45.45,0,0,1-.35.13.45.45,0,0,1-.36-.13A.48.48,0,0,1,193.48,144.76Zm3.7,2.94,1-1.7h.93l-1.52,2.3,1.57,2.35h-.92l-1.08-1.74-1.07,1.74h-.93l1.57-2.35-1.52-2.3h.92Z" transform="translate(0 -35)"/><rect class="cls-7" x="142.03" y="35.71" width="138.5" height="31.61" rx="6.48"/><rect class="cls-7" x="142.03" y="72.62" width="138.5" height="126.96" rx="6.48"/><path class="cls-8" d="M262.35,86a.68.68,0,0,1,0-1l.12-.12a.68.68,0,0,1,1,0L266.5,88a.67.67,0,0,0,1,0l2.75-3a.68.68,0,0,1,1,0l.13.12a.67.67,0,0,1,0,1l-3.83,4.18a.67.67,0,0,1-1,0Z" transform="translate(0 -35)"/><path class="cls-5" d="M155.71,162.53h66.15a2.39,2.39,0,0,1,2.39,2.38h0a2.39,2.39,0,0,1-2.39,2.39H155.71a2.39,2.39,0,0,1-2.39-2.39h0A2.39,2.39,0,0,1,155.71,162.53Z" transform="translate(0 -35)"/><path class="cls-5" d="M155.71,176.17h66.15a2.38,2.38,0,0,1,2.39,2.38h0a2.39,2.39,0,0,1-2.39,2.39H155.71a2.39,2.39,0,0,1-2.39-2.39h0A2.38,2.38,0,0,1,155.71,176.17Z" transform="translate(0 -35)"/><path class="cls-5" d="M155.71,189.81h66.15a2.38,2.38,0,0,1,2.39,2.38h0a2.39,2.39,0,0,1-2.39,2.39H155.71a2.39,2.39,0,0,1-2.39-2.39h0A2.38,2.38,0,0,1,155.71,189.81Z" transform="translate(0 -35)"/><path class="cls-5" d="M155.71,203.45h66.15a2.38,2.38,0,0,1,2.39,2.38h0a2.39,2.39,0,0,1-2.39,2.39H155.71a2.39,2.39,0,0,1-2.39-2.39h0A2.38,2.38,0,0,1,155.71,203.45Z" transform="translate(0 -35)"/><path class="cls-9" d="M279.17,249s-1.36,2-2,2.73-.13,1.15-.13,1.15l1.36-.4,1.5-1.23,1.84-1.43Z" transform="translate(0 -35)"/><path class="cls-9" d="M288.11,191a30.43,30.43,0,0,1-3.89,6.41,9.54,9.54,0,0,1-3.75,3c-.07,0-.14.07-.21.07a52.86,52.86,0,0,1-9.54,2,8.42,8.42,0,0,0-1-1.77c.34,0,6.35-4.57,7.85-5.05.47-.14,7.84-15.75,8.52-16.23.89-.68,1.91-1,2.66-.48C291.31,180.76,290.63,185.88,288.11,191Z" transform="translate(0 -35)"/><path class="cls-10" d="M284.9,180c-.34.75,6,.34,7.23-.2,2.32-1.09,3.27-4.84,2.46-7.16a7.89,7.89,0,0,0-2-3.28c-.82-.75-1.57-.41-2.59-.34H290c-.14-.07-1.23.82-1.3,1-.82,1.91-.75,3.07-1.57,5C286.81,175.72,286.13,177.42,284.9,180Z" transform="translate(0 -35)"/><path class="cls-9" d="M308.15,245.82l-2.31,1.23s-1.64-2.39-3.07-4.37-10.44-11.59-10.44-11.59c-2.93-4.36,1.09-12.14,1.09-12.14l6.62,2.18a39.93,39.93,0,0,0-1.43,4.37c.2.27.41.61.68.95a22.47,22.47,0,0,1,3.2,6.07c.55,1.64,2.73,6.75,4.16,10.16C307.61,244.53,308.15,245.82,308.15,245.82Z" transform="translate(0 -35)"/><path class="cls-9" d="M288.31,219.5s-.61,7.29-1,9.07c-.07.2-.07.47-.14.75v.07c-.2,1.57-1.84,6.27-4.7,16.91,0,.13-.07.2-.07.27a22.79,22.79,0,0,0-.68,3.55L279.17,249s.34-2.39.55-4.78-.21-15.61-.21-15.61c.69-5.19,5.25-15.14,5.25-15.14Z" transform="translate(0 -35)"/><path class="cls-11" d="M302.63,232.52a20,20,0,0,0-3.2-6.07,2.18,2.18,0,0,0-1.1.14.36.36,0,0,0-.47.34c0,.14,0,.27.13.34a39.2,39.2,0,0,0,3.89,7,48.82,48.82,0,0,1,4.3,8.39.33.33,0,0,0,.54.13C305.36,239.34,303.18,234.23,302.63,232.52Z" transform="translate(0 -35)"/><path class="cls-11" d="M283.74,228.36c-.27-.07-.41.21-.41.48s.14.61.21.89a15.69,15.69,0,0,0-1.5-1.37c-.34-.27-.82.28-.41.55a14.14,14.14,0,0,1,2.11,2c.41,4.91-2,9.82-1.57,14.79a2.5,2.5,0,0,0,.28,1c0-.07.06-.21.06-.28,2.87-10.63,4.5-15.34,4.71-16.91A10.57,10.57,0,0,0,283.74,228.36Z" transform="translate(0 -35)"/><path class="cls-12" d="M302.15,226.39a27.48,27.48,0,0,1-3.61,1.56c-5.52,2.05-16.09,4.64-24-1.56,0,0,5.52-.48,4.43-7.44-1.37-8.93,2.11-22.64,7.36-24.41s12.41,1.64,12.41,1.64a8.82,8.82,0,0,1,2.73,2.93,11.58,11.58,0,0,1,1.64,6.2C303.11,210.7,298.2,214.66,302.15,226.39Z" transform="translate(0 -35)"/><path class="cls-13" d="M303.11,205.31c.27-4-2.59-8-3.48-9.54-.89.2-3.82,1.22-3.61,1.43,5,5.11,2.72,14.18,1.22,19.09a13.31,13.31,0,0,0-.47,6.75,24.52,24.52,0,0,0,1.29,3.82c.14.34.27.75.48,1.16a28.2,28.2,0,0,0,3.61-1.57C298.2,214.66,302.7,210.63,303.11,205.31Z" transform="translate(0 -35)"/><path class="cls-14" d="M282.79,195.76c10.23,4.51,17.25.07,16.64-1.29a6.51,6.51,0,0,1-.55-2.39,20.52,20.52,0,0,1,0-3.61,7.72,7.72,0,0,1,.14-1v-.06c.82-4.1,2.59-9-2.18-10.51a9.38,9.38,0,0,0-2.12-.41,24.91,24.91,0,0,0-3,0,24.44,24.44,0,0,0-3.14,1.37c-.54.27-1.16.61-1.77.95a5.31,5.31,0,0,0-2,4.71c.06,1,1.5,3.82,1.43,4.36A22,22,0,0,1,282.79,195.76Z" transform="translate(0 -35)"/><path class="cls-15" d="M288.79,187.85c1.5,1.16,3.61,1.16,5.39,1.85,1.56.61,3.13,2,4.77,2.38a20.52,20.52,0,0,1,0-3.61.07.07,0,0,0-.07-.07c.07-.27.07-.55.14-.89v-.06a6.75,6.75,0,0,0-1.5-1.91c-2-1.84-1.78-6.48-1.78-6.48-.47,2.32-.2,5.79.55,7.23a12.57,12.57,0,0,0,1.57,2.25v.06c.07.75-4.57-.75-5.12-.95a11.47,11.47,0,0,0-3.75-.41A.33.33,0,0,0,288.79,187.85Z" transform="translate(0 -35)"/><path class="cls-9" d="M289.81,175.1V177s-.54,1,0,1c1.16.21,2.8-1.56,2.8-1.56v-2.59Z" transform="translate(0 -35)"/><path class="cls-11" d="M292.61,175.58v-1.5a5.53,5.53,0,0,1-2.8,1.43A3,3,0,0,0,292.61,175.58Z" transform="translate(0 -35)"/><path class="cls-9" d="M289.27,169.51a15.06,15.06,0,0,0-1.3,4c-.2,1.37,2.32,3.21,4.36,1.23a5.87,5.87,0,0,0,1.51-4.91Z" transform="translate(0 -35)"/><path class="cls-16" d="M282,248a2,2,0,0,1,.47,1.78,9.92,9.92,0,0,0-3.81,4c-.35.61-2.19.14-2.94.14,0,0-.75-.34-.2-1.16.2-.34,1.23-.75,1.5-1C277.54,252.78,279.45,251.28,282,248Z" transform="translate(0 -35)"/><path class="cls-16" d="M282.51,249.78l-.41,4.09-.68.07-.07-3.89Z" transform="translate(0 -35)"/><path class="cls-9" d="M305.84,247.05a27.4,27.4,0,0,1,.48,3.27c0,1,.75.89.75.89l.68-1.23.13-1.91.28-2.32Z" transform="translate(0 -35)"/><path class="cls-16" d="M307.54,244.39s.48-.21,1.3.82a10.31,10.31,0,0,0,.07,5.52c.2.68-1.5,1.64-2,2.12,0,0-.75.27-.89-.69-.07-.4.41-1.36.34-1.77C307.34,250.8,308,248.55,307.54,244.39Z" transform="translate(0 -35)"/><path class="cls-16" d="M308.84,245.21l2.59,3.2-.55.48-2.73-2.73Z" transform="translate(0 -35)"/><path class="cls-9" d="M306,184.31c.14-.34-7.09-7.5-9.89-6.48-1.7.68-1,3.89-.61,5.32.95,3.07,8.59,9.75,8.32,10a8.48,8.48,0,0,1-2.32.82,53.17,53.17,0,0,1-5.32.55c-3.07.13-5.93.13-6.07.2s.82,2.12.89,2.32a14.86,14.86,0,0,0,2,.68c3.13,1,10,1.5,14.52-.13C311.63,196,309.79,188.33,306,184.31Z" transform="translate(0 -35)"/><path class="cls-11" d="M304.74,194.47c2.39-1.64-.88-3.34-2.18-4.91-1.5-.55-2.86-1.36-3.13-1.16,1.36,1.43,4.43,4.71,4.43,4.71a8.86,8.86,0,0,1-2.32.81,50.37,50.37,0,0,1-5.32.55C296.08,194.67,302.63,196,304.74,194.47Z" transform="translate(0 -35)"/><path class="cls-9" d="M289.67,194.47c-1.09-.27-2.79-.14-3.54.82-.34.47-.07.75.41.47.95-.47,1.7-.54.27.14-.27.14-.82.55-.75.75.21.48,1.16-.13,1.64-.34.41,0-.55.68-.68.89-.41,1,1.5-.21,1.63-.07.41.27-1,.89-.34,1s1.57-1,2-1.09.68.07.88-.34C291.72,195.9,290.08,194.61,289.67,194.47Z" transform="translate(0 -35)"/><path class="cls-9" d="M290.08,194.67c-.34-.27-1.09-1-1.5-1.09s-.54.07-.34.34a1,1,0,0,0,.55.41c.13.07.34.21.48.28S290.15,194.74,290.08,194.67Z" transform="translate(0 -35)"/><path class="cls-10" d="M288,170.6a1.13,1.13,0,0,0,1.43.21,3.45,3.45,0,0,0,.75-.55c.14-.14.27-.41.41-.55a2.07,2.07,0,0,1,1.57,1,3.16,3.16,0,0,0,0,.82c1.63,4.84-1.78,8.32-2.59,9.95-.14.21.06.41.27.48,3.14.62,9.68,1.64,9.34-3.48a12.36,12.36,0,0,0-2.66-6.61c-1.16-1.43-2.45-3.62-4.36-3.82a8.12,8.12,0,0,0-2.25.14C288,168.42,287.7,170.19,288,170.6Z" transform="translate(0 -35)"/><path class="cls-17" d="M267.51,221.48l-15.61-9.21a1.74,1.74,0,0,1-.62-2.46l7-11.79a1.72,1.72,0,0,1,2.45-.62l15.62,9.21a1.71,1.71,0,0,1,.61,2.45L270,220.86A1.75,1.75,0,0,1,267.51,221.48Z" transform="translate(0 -35)"/><path class="cls-18" d="M273.92,214.18l-18.75-11.05a1.41,1.41,0,0,1-.48-1.84l2.59-4.36a1.41,1.41,0,0,1,1.84-.48l18.76,11a1.42,1.42,0,0,1,.47,1.85l-2.59,4.36A1.3,1.3,0,0,1,273.92,214.18Z" transform="translate(0 -35)"/><path class="cls-18" d="M269.56,206.68l-5.66-3.34a1.22,1.22,0,0,1-.41-1.64l.81-1.36a3.44,3.44,0,0,1,4.71-1.23l1.84,1.09a3.44,3.44,0,0,1,1.23,4.7l-.82,1.37A1.32,1.32,0,0,1,269.56,206.68Zm-1.23-6.55a2.34,2.34,0,0,0-3.14.82l-.82,1.36v.07l5.66,3.34h.07l.82-1.36a2.24,2.24,0,0,0-.82-3.07Z" transform="translate(0 -35)"/><path class="cls-19" d="M266.15,210.7,262,208.24a.94.94,0,0,1,.95-1.63l4.16,2.45a.95.95,0,0,1-1,1.64Z" transform="translate(0 -35)"/><path class="cls-9" d="M269.15,199.86a1.68,1.68,0,0,0-.41,1.09c0,.2.27.34.48.34,0,.07-.07.14-.07.2s.2.35.48.35c0,.2.27.34.54.34,0,.27.48.47.75.2a3.65,3.65,0,0,0,.48-.61c.13-.28-.21-.48-.48-.41,0-.07.07-.07.07-.14s-.14-.41-.41-.41l.07-.07c.34-.27-.34-.68-.68-.4l-.21.2c.07-.07.07-.14.14-.2C270.1,199.93,269.42,199.52,269.15,199.86Z" transform="translate(0 -35)"/><path class="cls-9" d="M269.83,199.59a1.69,1.69,0,0,1,1.16.27h.14c.34.07.27.54,0,.61-.07,0-.14.07-.21,0h-.07a3.3,3.3,0,0,0-1.43.07.32.32,0,0,1-.41-.41C269.08,199.72,269.56,199.59,269.83,199.59Z" transform="translate(0 -35)"/><path class="cls-9" d="M45.76,187.55a13.09,13.09,0,0,1-7,1.71,1.85,1.85,0,0,1-.61-.07c-.34-.07-.68-.07-.95-.14s-.82-.2-1.23-.27c-.07,0-.14-.07-.21-.07a6.88,6.88,0,0,1-3.47-1.84A10.63,10.63,0,0,1,31,185.24s-7.57-6.55-5.11-7.1,6.82.69,10.64,2.32h.06a2.43,2.43,0,0,1,.62.28c.13.06.27.06.34.13a16.48,16.48,0,0,0,3.68,1.37c.62-.07,1.64-9.42,1.91-9.76,0,0,1.3-1.36,1.84-.68C46.58,173.85,48.42,186.12,45.76,187.55Z" transform="translate(0 -35)"/><path class="cls-20" d="M42.15,180.87a5.49,5.49,0,0,1,.41,1.37,1.13,1.13,0,0,1-.55,1,3,3,0,0,1-1.7.07c-5.87-1.43-6.89-4-6.82-4.16.2.07,3.47,1.5,3.68,1.57s.27.06.34.13a16.48,16.48,0,0,0,3.68,1.37C41.53,182.3,41.74,179.85,42.15,180.87Z" transform="translate(0 -35)"/><path class="cls-9" d="M42.76,171.66a4.38,4.38,0,0,1,1.09-3.47c.28-.41,1-1.23,1.43-1.3s.55.34.21.62a5.72,5.72,0,0,0-1.09,1.56c.41-.68,1.09.07,1,.55.28-.14.55.34.34.89.21-.21.69.4.07,1.29-.41.62-.54.82-.95,1a1.52,1.52,0,0,1-1.43-.2c-.07,0-.14-.07-.21-.14s0-.06-.07-.13A.77.77,0,0,1,42.76,171.66Z" transform="translate(0 -35)"/><path class="cls-9" d="M41.94,170.16c.21-.34.68-.06.62.28a1,1,0,0,0-.07.47,1,1,0,0,1,.82.55c.13.27.41.89.27,1.16s-.34.61-.48.48a16.15,16.15,0,0,1-1.29-1.84A1.06,1.06,0,0,1,41.94,170.16Z" transform="translate(0 -35)"/><path class="cls-9" d="M30.14,246.14c-.34-.35-3.27.34-3.27.54,0,.55.07,2.66.41,2.93s3.27-.13,3.27-.68S30.49,246.41,30.14,246.14Z" transform="translate(0 -35)"/><path class="cls-9" d="M6.14,244.63c-.07-.4-2.86-1.63-2.93-1.5-.34.41-1.5,2.26-1.37,2.6s2.73,1.84,3.07,1.36A9,9,0,0,0,6.14,244.63Z" transform="translate(0 -35)"/><path class="cls-12" d="M19.85,208.76c.2.55.41,1,.61,1.64,1.5,3.75,3.27,8.18,3.48,10.5.34,4.3,2.32,14.67,2.32,19.71,0,4.09,1.16,6.89,1,7.84L31,247.7C32.46,241.77,34,227.45,34,221S33.42,203.72,31,198.6c-2.25-4.84-11.32,4-12.34,5.19C18.28,204.2,18.89,206.24,19.85,208.76Z" transform="translate(0 -35)"/><path class="cls-13" d="M19.85,208.76c.2.55.4,1,.61,1.64,1.5,3.75,3.27,8.19,3.48,10.5.34,4.3,2,26.12,2.38,27.56.69.4,2,.06,2.87-.35.27-3.61-1.43-7-1.84-10.63-.82-6.83,1.57-14-1.37-20.46-.81-1.84-2.11-3.69-2-5.8.06-1,.75-2.18.13-3.21-1-1.77-3-.54-3.95.62a.3.3,0,0,0-.34,0C19.91,208.76,19.91,208.76,19.85,208.76Z" transform="translate(0 -35)"/><path class="cls-12" d="M21.35,202v.68c-.07,2.66-.34,12.82-1.5,22.84-.75,6.41-8.94,17-14.32,21.14l-3-1.63-.69-.35s3.35-6,5-8.52c4.23-6.48,3.34-10.23,3.34-14.52.07-8.8-2.25-13.1.14-19.64.14-.28.2-.62.34-.89a28.64,28.64,0,0,1,1.77-3.48,1.26,1.26,0,0,1,.55-.41,2.11,2.11,0,0,1,.95-.07c1.71.21,4.37,1.64,6.69,4.09A2,2,0,0,1,21.35,202Z" transform="translate(0 -35)"/><path class="cls-13" d="M12.41,215.31c-.81-4.23-1.29-8.18,0-12.48a.25.25,0,0,0-.13-.34c0-.07-.07-.07-.14-.14-.48-.13-1.09-.34-1.77-.54-2.39,6.54-.14,10.84-.14,19.64,0,4.29.89,8.05-3.34,14.53-1.64,2.52-5,8.52-5,8.52l.68.34c2.39-2.25,4.91-4.43,6.35-7.43a50.09,50.09,0,0,0,3.47-10.85A27.17,27.17,0,0,0,12.41,215.31Z" transform="translate(0 -35)"/><path class="cls-10" d="M27.21,248.86s-.88,2.19.34,3.55a75.58,75.58,0,0,0,8.8-1.77s-.48-2.66-2.25-2.53a28,28,0,0,0-3.55.55S28.78,250,27.21,248.86Z" transform="translate(0 -35)"/><path class="cls-10" d="M2.05,245s-2.12,1.16-2,2.93a78,78,0,0,0,7.91,4.23s1.3-2.32-.13-3.35A27.44,27.44,0,0,0,4.71,247,2.86,2.86,0,0,1,2.05,245Z" transform="translate(0 -35)"/><path class="cls-21" d="M27.21,179c.75,1.84,1.5,3.34,1.5,3.34s-1.43,1.85-.95,3a3.49,3.49,0,0,0,1.63,1.5c1,.62,2.39,1.23,3.48,2A8.7,8.7,0,0,0,35.74,179c-3-2.52-7-5.73-9.41-6.2C24.83,172.55,26.05,176.1,27.21,179Z" transform="translate(0 -35)"/><path class="cls-21" d="M31.51,198.54c0,.81-18.62,5-20.53,4.7-.75-.14-1.23-.34-1.36-.61-.34-.75.88-8.32.75-13.37,0-1-.07-2-.07-2.93,0-5.05.34-9.82,1.5-10.71a8.57,8.57,0,0,1,.89-.61,18.13,18.13,0,0,1,1.7-1,16.82,16.82,0,0,1,3.55-1.36,15.39,15.39,0,0,1,7.09-.14,13.08,13.08,0,0,1,2,.62c.13.07.34.13.47.2,2.25.89,1.91,5.8,1.57,9.89-.13,1.91-.34,3.61-.27,4.71a5.81,5.81,0,0,0,.14,1.09C29.46,191.92,31.17,196.35,31.51,198.54Z" transform="translate(0 -35)"/><path class="cls-9" d="M23.12,170v2.18s.55,1,0,1c-1.16.2-2.8-1-2.8-1V168.8Z" transform="translate(0 -35)"/><path class="cls-22" d="M20.39,170.51V169A4.44,4.44,0,0,0,23,170.64,3,3,0,0,1,20.39,170.51Z" transform="translate(0 -35)"/><path class="cls-9" d="M24.69,165.12a15.77,15.77,0,0,1,.27,4.23c-.14,1.36-3,2.52-4.57.13a5.87,5.87,0,0,1-.27-5.11Z" transform="translate(0 -35)"/><path class="cls-14" d="M8.73,204c.48.27,13.3-1.7,13.3-1.7.89-2.87,3.68-14.87,3.55-16-.48-7.5-7.44-13.57-7.44-13.57-2.73-.14-6.2,3.07-6.2,3.07.81-1.64,4.36-1.5,4.91-.69,1.16,1.78.81,7.3-.21,9.55-3.07,6.62-6.07,7-6.07,7Z" transform="translate(0 -35)"/><path class="cls-14" d="M24.21,189.12c-.41,1,5.05,11.39,5.05,11.39s3.82-.75,3.89-.82-1.64-4.29-2.87-7.36c-.2-.62-.48-1.16-.61-1.71v-.06a12.26,12.26,0,0,1-.48-1.57,2.32,2.32,0,0,1-.14-1.09c-.06-1.1.89-3.14,1-5.05.07-3.41-1.16-9.14-2.25-9.55-.14-.07-.21-.07-.34-.13s-.07,0-.14-.07c-.68-.28-1.3-.41-2-.62C25.3,172.48,26.8,182.71,24.21,189.12Z" transform="translate(0 -35)"/><path class="cls-10" d="M25.51,164.23c.27-1.57-2.46-1.29-3.34-1.16-.62.07-2.87.48-3,1.5A4,4,0,0,0,19,168a.75.75,0,0,0,.34.68.83.83,0,0,0,1.16-.34c.34-.61.14-1.43.21-2.11,0-.14.06-.61.06-1a1.79,1.79,0,0,1,1.23-.14c.55.07,1.09.27,1.64.34C24.48,165.46,26.12,165.26,25.51,164.23Z" transform="translate(0 -35)"/><path class="cls-23" d="M21.14,186.67a1.75,1.75,0,1,0,2.19,1.16A1.77,1.77,0,0,0,21.14,186.67ZM22,189.4a1.15,1.15,0,1,1,.75-1.44A1.1,1.1,0,0,1,22,189.4Z" transform="translate(0 -35)"/><path class="cls-24" d="M29.6,201.19l-7.3,2.26a1.47,1.47,0,0,1-1.77-1l-3.48-11.25a1.49,1.49,0,0,1,1-1.78l7.29-2.25a1.49,1.49,0,0,1,1.78,1l3.47,11.25A1.45,1.45,0,0,1,29.6,201.19Z" transform="translate(0 -35)"/><path class="cls-9" d="M11.66,200.79a1.15,1.15,0,0,0,.48-.07c5.32-.68,14.73-4.78,14.73-4.78,0-.41.14-2.25.14-2.25-.21,0-8.94.21-12.55.28h-.75a1.86,1.86,0,0,1-.82,0h-.07c-.54-.14.07-4.51,1-6.28.4-.75.88-1.5,1.22-2.18a7.89,7.89,0,0,0,1.16-5.25,8.41,8.41,0,0,0-1.7-4,2.52,2.52,0,0,0-4.09.2,43.26,43.26,0,0,0-4.57,8.73v.07C3.48,191,6.55,201.19,11.66,200.79Z" transform="translate(0 -35)"/><path class="cls-20" d="M11.66,200.79a1.15,1.15,0,0,0,.48-.07c5.32-.68,14.73-4.78,14.73-4.78v-.06c-1,.06-2.93,1-3.82,1.22-3.27.75-8.73,1.44-10.36,1.71-2.32.41-3.69-1.23-4.37-3.21-1-3-.82-7.77-.41-10.91.75-2.25-1.57-.95-1.57-.95C3.21,191.44,6.55,201.19,11.66,200.79Z" transform="translate(0 -35)"/><path class="cls-21" d="M5.8,183.6c.2-.75,1.5-5.73,4.36-7.91,1.3-1,4.91-2.46,6.35-1,3.06,3.28.81,8.87-1.37,12.82C11.8,187.83,8.46,186.26,5.8,183.6Z" transform="translate(0 -35)"/><path class="cls-9" d="M29.4,194.78a.54.54,0,0,0-.07-.68l-.07-.07a.41.41,0,0,0,.07-.54.57.57,0,0,0-.48-.28.25.25,0,0,0-.07-.2c-.27-.75-1.5.14-1.91.34-.13.07-.2.21-.13.28l-.07.06a2.06,2.06,0,0,0-.07,1.78,1.35,1.35,0,0,0,1.57.68c.48-.07,1.43-.34,1.43-1C29.74,194.92,29.6,194.85,29.4,194.78Z" transform="translate(0 -35)"/><path class="cls-9" d="M28.24,191.85a1.64,1.64,0,0,0-1.37.27,5.16,5.16,0,0,0-.89,1.71c-.2.14.07.14.41.14s.89-.07,1-.55c0-.21-.07-.41.13-.55a1.6,1.6,0,0,1,.76-.34A.35.35,0,0,0,28.24,191.85Z" transform="translate(0 -35)"/></svg>