<svg id="Calque_1" data-name="Calque 1" xmlns="http://www.w3.org/2000/svg" viewBox="0 0 311.83 161.61"><defs><style>.cls-1,.cls-15,.cls-40{fill:#fff;}.cls-1{stroke:#e6e6e6;stroke-width:0.28px;}.cls-10,.cls-2,.cls-3,.cls-7{fill:none;}.cls-2{stroke:#d3d3d3;}.cls-2,.cls-3{stroke-width:0.56px;}.cls-10,.cls-3{stroke:#d0d0d0;}.cls-4{fill:#c6c2c2;}.cls-5{fill:#f4f4f4;}.cls-6{fill:#c4c4c4;}.cls-7{stroke:#c4c4c4;}.cls-10,.cls-7{stroke-width:0.48px;}.cls-8{fill-opacity:0.1;}.cls-9{fill:#7cc384;}.cls-11{fill:#1f0d45;}.cls-12{fill:#f3f3f3;}.cls-13{fill:#ffaea7;}.cls-14{fill:#ea7a70;}.cls-16{fill:#ffc1c5;}.cls-17{fill:#441fd8;}.cls-18{fill:#ffb7bb;}.cls-19{fill:#3111ae;}.cls-20,.cls-27{fill:#acdcff;}.cls-21{fill:#5f40d4;}.cls-22{fill:#745ced;}.cls-23{fill:#32187c;}.cls-24,.cls-26{fill:#05c8ff;}.cls-25{fill:#242424;}.cls-26,.cls-27,.cls-28,.cls-40{fill-rule:evenodd;}.cls-28{fill:#ffd43e;}.cls-29{fill:#97d9ff;}.cls-30{fill:#474c4d;}.cls-31{fill:#bdb8ec;}.cls-32{fill:#ffaaaf;}.cls-33{fill:#252525;}.cls-34{fill:#1f0d52;}.cls-35{fill:#5f40d5;}.cls-36{fill:#1f1a1a;}.cls-37{fill:#e43425;}.cls-38{fill:#e55773;}.cls-39{fill:#2a2a2a;}.cls-41{fill:#d3e7ec;}.cls-42{fill:#b1d0d6;}.cls-43{fill:#dadaff;}</style></defs><rect class="cls-1" x="24.56" y="72.19" width="214.75" height="85.73" rx="5.45"/><path d="M43.77,117.61l.75-4h1.14l-1.24,5.56H43.27l-.9-3.72-.91,3.72H40.31l-1.23-5.56h1.14l.75,4,.92-4h1Zm2.14-.5a2.42,2.42,0,0,1,.24-1.09,1.68,1.68,0,0,1,.68-.74,2,2,0,0,1,1-.27,1.89,1.89,0,0,1,1.37.51,2.07,2.07,0,0,1,.59,1.39v.28a2.17,2.17,0,0,1-.53,1.53,2.08,2.08,0,0,1-2.86,0,2.22,2.22,0,0,1-.53-1.56Zm1.11.08a1.55,1.55,0,0,0,.22.91.81.81,0,0,0,1.26,0,1.71,1.71,0,0,0,.22-1,1.52,1.52,0,0,0-.22-.89.74.74,0,0,0-.64-.32.72.72,0,0,0-.62.32A1.68,1.68,0,0,0,47,117.19Zm5.81-1.07-.4,0a.81.81,0,0,0-.82.42v2.71h-1.1v-4.13h1l0,.49a1,1,0,0,1,.92-.57,1.21,1.21,0,0,1,.34,0Zm2,1.44-.39.4v1.26H53.36v-5.87h1.11v3.25l.21-.27,1.06-1.24h1.32l-1.49,1.72,1.62,2.41H55.92Zm9.26-1a3.23,3.23,0,0,1-.29,1.43,2.12,2.12,0,0,1-.83,1,2.48,2.48,0,0,1-2.47,0,2.2,2.2,0,0,1-.84-.94,3.25,3.25,0,0,1-.3-1.42v-.28a3.39,3.39,0,0,1,.29-1.44,2.2,2.2,0,0,1,.84-1,2.41,2.41,0,0,1,2.47,0,2.2,2.2,0,0,1,.84,1,3.25,3.25,0,0,1,.29,1.44ZM63,116.31a2.36,2.36,0,0,0-.31-1.33,1,1,0,0,0-.89-.45,1,1,0,0,0-.89.45,2.28,2.28,0,0,0-.32,1.31v.28a2.48,2.48,0,0,0,.31,1.32,1,1,0,0,0,.91.47,1,1,0,0,0,.88-.46,2.3,2.3,0,0,0,.31-1.32Zm4.25-.19-.4,0a.81.81,0,0,0-.82.42v2.71H64.88v-4.13h1.05l0,.49a1,1,0,0,1,.92-.57,1.27,1.27,0,0,1,.34,0Zm.28,1a2.58,2.58,0,0,1,.43-1.54,1.42,1.42,0,0,1,1.19-.57,1.27,1.27,0,0,1,1,.45v-2.11h1.1v5.87h-1l-.06-.44a1.28,1.28,0,0,1-1.06.51,1.42,1.42,0,0,1-1.17-.57A2.58,2.58,0,0,1,67.49,117.12Zm1.11.08a1.57,1.57,0,0,0,.2.89.65.65,0,0,0,.59.31.73.73,0,0,0,.72-.43v-1.63a.73.73,0,0,0-.72-.43C68.86,115.91,68.6,116.34,68.6,117.2ZM74,119.29a2,2,0,0,1-1.48-.55,2,2,0,0,1-.57-1.49v-.11a2.51,2.51,0,0,1,.24-1.11,1.77,1.77,0,0,1,.68-.75,1.91,1.91,0,0,1,1-.27,1.7,1.7,0,0,1,1.33.54,2.13,2.13,0,0,1,.49,1.51v.45H73a1,1,0,0,0,.32.65,1,1,0,0,0,.68.24,1.19,1.19,0,0,0,1-.46l.54.61a1.58,1.58,0,0,1-.67.55A2.23,2.23,0,0,1,74,119.29Zm-.12-3.39a.71.71,0,0,0-.54.23,1.18,1.18,0,0,0-.26.63h1.54v-.09a.86.86,0,0,0-.2-.56A.7.7,0,0,0,73.85,115.9Zm4.77.22-.4,0a.82.82,0,0,0-.82.42v2.71H76.3v-4.13h1l0,.49a1,1,0,0,1,.92-.57,1.29,1.29,0,0,1,.35,0Zm2.77,2a.34.34,0,0,0-.2-.32,2.15,2.15,0,0,0-.64-.21c-1-.21-1.47-.62-1.47-1.25a1.15,1.15,0,0,1,.45-.92,1.89,1.89,0,0,1,1.2-.37,2,2,0,0,1,1.25.37,1.16,1.16,0,0,1,.47,1h-1.1a.56.56,0,0,0-.15-.39.66.66,0,0,0-.48-.15.69.69,0,0,0-.43.12.41.41,0,0,0-.15.32.32.32,0,0,0,.17.3,1.8,1.8,0,0,0,.59.2,4.27,4.27,0,0,1,.69.18,1.14,1.14,0,0,1,.88,1.11A1.1,1.1,0,0,1,82,119a2.1,2.1,0,0,1-1.25.34,2.19,2.19,0,0,1-.92-.18,1.46,1.46,0,0,1-.63-.51,1.13,1.13,0,0,1-.23-.7h1a.58.58,0,0,0,.22.46.89.89,0,0,0,.54.15.81.81,0,0,0,.48-.12A.36.36,0,0,0,81.39,118.08Z" transform="translate(0 -29)"/><rect class="cls-2" x="114.06" y="81.82" width="12.29" height="12.29" rx="1.95"/><rect class="cls-3" x="39.78" y="119.24" width="5.03" height="5.03" rx="0.84"/><rect class="cls-4" x="48.44" y="118.96" width="40.77" height="5.59" rx="1.12"/><rect class="cls-5" x="118.81" y="118.96" width="40.77" height="5.59" rx="1.12"/><rect class="cls-5" x="180.25" y="118.96" width="51.94" height="5.59" rx="1.12"/><rect class="cls-3" x="39.78" y="130.97" width="5.03" height="5.03" rx="0.84"/><rect class="cls-4" x="48.44" y="130.69" width="40.77" height="5.59" rx="1.12"/><rect class="cls-5" x="118.81" y="130.69" width="40.77" height="5.59" rx="1.12"/><rect class="cls-5" x="180.25" y="130.69" width="51.94" height="5.59" rx="1.12"/><rect class="cls-3" x="39.78" y="142.7" width="5.03" height="5.03" rx="0.84"/><rect class="cls-4" x="48.44" y="142.42" width="40.77" height="5.59" rx="1.12"/><rect class="cls-5" x="118.81" y="142.42" width="40.77" height="5.59" rx="1.12"/><rect class="cls-5" x="180.25" y="142.42" width="51.94" height="5.59" rx="1.12"/><rect class="cls-3" x="39.78" y="105.84" width="5.03" height="5.03" rx="0.84"/><path d="M49.3,138.45l.11.78.17-.71,1.18-4.16h.66l1.15,4.16.17.72.13-.8.92-4.08h.79l-1.44,6h-.72L51.19,136l-.09-.46L51,136l-1.27,4.34H49l-1.44-6h.78Zm5.71-.38a2.58,2.58,0,0,1,.25-1.17,1.94,1.94,0,0,1,.71-.81,2,2,0,0,1,1.05-.28,1.86,1.86,0,0,1,1.46.63A2.35,2.35,0,0,1,59,138.1v.06a2.57,2.57,0,0,1-.25,1.16,1.84,1.84,0,0,1-.71.8,1.92,1.92,0,0,1-1,.29,1.86,1.86,0,0,1-1.46-.63,2.37,2.37,0,0,1-.56-1.66Zm.76.09a1.88,1.88,0,0,0,.34,1.18,1.17,1.17,0,0,0,1.84,0,2.13,2.13,0,0,0,.34-1.27,1.88,1.88,0,0,0-.35-1.18,1.11,1.11,0,0,0-.92-.46,1.1,1.1,0,0,0-.91.45A2.05,2.05,0,0,0,55.77,138.16Zm6.37-1.59a2.25,2.25,0,0,0-.38,0,1,1,0,0,0-1,.64v3.14H60v-4.43h.74v.51a1.19,1.19,0,0,1,1.06-.59.77.77,0,0,1,.34.06Zm1.93,1.7-.47.5v1.55h-.76V134h.76v3.81l.4-.49,1.39-1.46h.92l-1.73,1.85,1.93,2.58h-.89Zm9.81-.73a3.66,3.66,0,0,1-.3,1.53,2.2,2.2,0,0,1-.83,1,2.43,2.43,0,0,1-2.51,0,2.26,2.26,0,0,1-.85-1,3.67,3.67,0,0,1-.31-1.49v-.43a3.65,3.65,0,0,1,.3-1.52,2.28,2.28,0,0,1,.84-1,2.34,2.34,0,0,1,1.26-.35,2.21,2.21,0,0,1,2.1,1.35,3.66,3.66,0,0,1,.3,1.53Zm-.78-.39a2.7,2.7,0,0,0-.43-1.63,1.52,1.52,0,0,0-2.37,0,2.69,2.69,0,0,0-.44,1.58v.44a2.72,2.72,0,0,0,.43,1.61,1.53,1.53,0,0,0,2.38,0,2.77,2.77,0,0,0,.43-1.6Zm4-.58a2.13,2.13,0,0,0-.37,0,1,1,0,0,0-1,.64v3.14h-.76v-4.43h.74v.51a1.19,1.19,0,0,1,1.06-.59.75.75,0,0,1,.33.06Zm.44,1.5a2.62,2.62,0,0,1,.48-1.64,1.53,1.53,0,0,1,1.26-.62,1.57,1.57,0,0,1,1.24.53V134h.76v6.29h-.7l0-.47a1.53,1.53,0,0,1-1.26.56,1.51,1.51,0,0,1-1.26-.63,2.65,2.65,0,0,1-.48-1.65Zm.75.09a2,2,0,0,0,.31,1.18,1,1,0,0,0,.87.42,1.1,1.1,0,0,0,1-.64v-2a1.12,1.12,0,0,0-1-.63,1,1,0,0,0-.87.43A2.26,2.26,0,0,0,78.27,138.16Zm6,2.25a2,2,0,0,1-1.47-.59,2.21,2.21,0,0,1-.57-1.59v-.14a2.72,2.72,0,0,1,.25-1.17,1.94,1.94,0,0,1,.71-.81,1.74,1.74,0,0,1,1-.3,1.63,1.63,0,0,1,1.34.57A2.46,2.46,0,0,1,86,138v.32H83a1.61,1.61,0,0,0,.38,1.06,1.25,1.25,0,0,0,.94.4,1.34,1.34,0,0,0,.68-.17,1.77,1.77,0,0,0,.48-.43l.47.36A1.87,1.87,0,0,1,84.28,140.41Zm-.1-4a1,1,0,0,0-.77.34,1.59,1.59,0,0,0-.38.93h2.22v0a1.47,1.47,0,0,0-.32-.9A.94.94,0,0,0,84.18,136.43Zm4.85.14a2.25,2.25,0,0,0-.38,0,1,1,0,0,0-1,.64v3.14h-.75v-4.43h.73v.51a1.2,1.2,0,0,1,1.06-.59.77.77,0,0,1,.34.06Z" transform="translate(0 -29)"/><path d="M131.31,137.67a3.72,3.72,0,0,1-1.47-.72,1.35,1.35,0,0,1-.46-1,1.45,1.45,0,0,1,.56-1.16,2.25,2.25,0,0,1,1.47-.46,2.39,2.39,0,0,1,1.09.24,1.7,1.7,0,0,1,1,1.57h-.79a1.07,1.07,0,0,0-.34-.85,1.4,1.4,0,0,0-1-.31,1.45,1.45,0,0,0-.91.25.85.85,0,0,0-.33.71.79.79,0,0,0,.31.62,3.08,3.08,0,0,0,1.05.46,4.82,4.82,0,0,1,1.17.46,1.68,1.68,0,0,1,.62.59,1.45,1.45,0,0,1,.2.79A1.38,1.38,0,0,1,133,140a2.42,2.42,0,0,1-1.51.44,2.79,2.79,0,0,1-1.15-.24,2,2,0,0,1-.82-.64,1.63,1.63,0,0,1-.29-.93H130a1,1,0,0,0,.4.85,1.68,1.68,0,0,0,1.07.31,1.54,1.54,0,0,0,1-.25.83.83,0,0,0,.34-.69.82.82,0,0,0-.31-.68A3.5,3.5,0,0,0,131.31,137.67Zm4.14-2.85v1.07h.82v.59h-.82v2.75a.6.6,0,0,0,.11.4.45.45,0,0,0,.37.13,2,2,0,0,0,.36,0v.61a2,2,0,0,1-.58.09.94.94,0,0,1-.76-.31,1.27,1.27,0,0,1-.26-.87v-2.75h-.81v-.59h.81v-1.07Zm4.45,5.5a1.69,1.69,0,0,1-.11-.46,1.7,1.7,0,0,1-1.26.55,1.64,1.64,0,0,1-1.08-.37,1.23,1.23,0,0,1-.41-.94,1.25,1.25,0,0,1,.52-1.08,2.53,2.53,0,0,1,1.48-.38h.74v-.35a.82.82,0,0,0-.24-.63.94.94,0,0,0-.7-.24,1.1,1.1,0,0,0-.68.21.59.59,0,0,0-.27.49h-.76a1,1,0,0,1,.23-.64A1.59,1.59,0,0,1,138,136a2.18,2.18,0,0,1,.89-.18,1.73,1.73,0,0,1,1.2.39,1.35,1.35,0,0,1,.45,1.05v2a2.36,2.36,0,0,0,.16,1v.06Zm-1.26-.57a1.3,1.3,0,0,0,.68-.19,1.06,1.06,0,0,0,.46-.48v-.91h-.59c-.93,0-1.4.28-1.4.82a.7.7,0,0,0,.24.56A.93.93,0,0,0,138.64,139.75Zm4.12-4.93v1.07h.82v.59h-.82v2.75a.6.6,0,0,0,.11.4.45.45,0,0,0,.37.13,2,2,0,0,0,.36,0v.61a2,2,0,0,1-.58.09.94.94,0,0,1-.76-.31,1.27,1.27,0,0,1-.26-.87v-2.75h-.81v-.59H142v-1.07Zm4.45,5.07a1.64,1.64,0,0,1-1.3.52,1.4,1.4,0,0,1-1.08-.41,1.76,1.76,0,0,1-.37-1.22v-2.89h.75v2.87c0,.67.28,1,.82,1a1.14,1.14,0,0,0,1.16-.64v-3.23H148v4.43h-.72Zm4.47-.74a.59.59,0,0,0-.23-.48,2.2,2.2,0,0,0-.81-.29,3.58,3.58,0,0,1-.91-.3,1.3,1.3,0,0,1-.5-.4,1,1,0,0,1-.16-.57,1.14,1.14,0,0,1,.46-.92,1.82,1.82,0,0,1,1.18-.38,1.84,1.84,0,0,1,1.22.39,1.25,1.25,0,0,1,.47,1h-.76a.68.68,0,0,0-.27-.54,1,1,0,0,0-.66-.23,1,1,0,0,0-.65.18.56.56,0,0,0-.23.48.46.46,0,0,0,.21.41,2.74,2.74,0,0,0,.79.26,4.27,4.27,0,0,1,.92.31,1.32,1.32,0,0,1,.52.42,1.09,1.09,0,0,1,.17.61,1.14,1.14,0,0,1-.48,1,2,2,0,0,1-1.23.36,2.32,2.32,0,0,1-.94-.19,1.53,1.53,0,0,1-.64-.53,1.22,1.22,0,0,1-.23-.73h.76a.79.79,0,0,0,.3.61,1.24,1.24,0,0,0,.75.22,1.26,1.26,0,0,0,.69-.17A.54.54,0,0,0,151.68,139.15Z" transform="translate(0 -29)"/><path d="M180.94,140.32v-6h1.68a2.82,2.82,0,0,1,1.38.34,2.29,2.29,0,0,1,.92,1,3.14,3.14,0,0,1,.33,1.46v.38a3.26,3.26,0,0,1-.32,1.48,2.28,2.28,0,0,1-.94,1,2.87,2.87,0,0,1-1.4.34Zm.79-5.31v4.67h.82a1.83,1.83,0,0,0,1.42-.56,2.39,2.39,0,0,0,.5-1.61v-.35a2.37,2.37,0,0,0-.48-1.58,1.64,1.64,0,0,0-1.35-.57Zm6.43,5.4a1.93,1.93,0,0,1-1.46-.59,2.21,2.21,0,0,1-.57-1.59v-.14a2.72,2.72,0,0,1,.25-1.17,1.94,1.94,0,0,1,.71-.81,1.74,1.74,0,0,1,1-.3,1.63,1.63,0,0,1,1.34.57,2.46,2.46,0,0,1,.48,1.63v.32h-3a1.61,1.61,0,0,0,.38,1.06,1.25,1.25,0,0,0,.94.4,1.34,1.34,0,0,0,.68-.17,1.77,1.77,0,0,0,.48-.43l.47.36A1.88,1.88,0,0,1,188.16,140.41Zm-.09-4a1,1,0,0,0-.77.34,1.53,1.53,0,0,0-.38.93h2.22v0a1.47,1.47,0,0,0-.32-.9A.94.94,0,0,0,188.07,136.43Zm5.29,2.72a.57.57,0,0,0-.24-.48,2.21,2.21,0,0,0-.8-.29,3.54,3.54,0,0,1-.92-.3,1.38,1.38,0,0,1-.5-.4,1,1,0,0,1-.16-.57,1.17,1.17,0,0,1,.46-.92,1.82,1.82,0,0,1,1.18-.38,1.84,1.84,0,0,1,1.22.39,1.22,1.22,0,0,1,.47,1h-.76a.68.68,0,0,0-.27-.54,1,1,0,0,0-.66-.23,1,1,0,0,0-.65.18.59.59,0,0,0-.23.48.45.45,0,0,0,.22.41,2.55,2.55,0,0,0,.78.26,4.09,4.09,0,0,1,.92.31,1.25,1.25,0,0,1,.52.42,1,1,0,0,1,.17.61,1.13,1.13,0,0,1-.47,1,2,2,0,0,1-1.24.36,2.35,2.35,0,0,1-.94-.19,1.59,1.59,0,0,1-.64-.53,1.29,1.29,0,0,1-.23-.73h.76a.79.79,0,0,0,.3.61,1.24,1.24,0,0,0,.75.22,1.26,1.26,0,0,0,.69-.17A.55.55,0,0,0,193.36,139.15Zm3.52.64a1.06,1.06,0,0,0,.71-.25.85.85,0,0,0,.33-.61h.72a1.35,1.35,0,0,1-.26.72,1.67,1.67,0,0,1-.65.55,1.81,1.81,0,0,1-.85.21,1.79,1.79,0,0,1-1.44-.61,2.38,2.38,0,0,1-.54-1.65V138a2.66,2.66,0,0,1,.24-1.15,1.85,1.85,0,0,1,.68-.78,1.93,1.93,0,0,1,1.06-.28,1.76,1.76,0,0,1,1.23.45,1.57,1.57,0,0,1,.53,1.16h-.72a1.07,1.07,0,0,0-.32-.71,1.13,1.13,0,0,0-1.62.14,2,2,0,0,0-.32,1.2v.15a1.93,1.93,0,0,0,.32,1.18A1.08,1.08,0,0,0,196.88,139.79Zm4.75-3.22a2.05,2.05,0,0,0-.37,0,1,1,0,0,0-1,.64v3.14h-.76v-4.43h.74v.51a1.19,1.19,0,0,1,1.06-.59.69.69,0,0,1,.33.06Zm1.53,3.75h-.76v-4.43h.76Zm-.82-5.6a.5.5,0,0,1,.11-.32.45.45,0,0,1,.34-.12.43.43,0,0,1,.33.12.45.45,0,0,1,.12.32.41.41,0,0,1-.12.3.4.4,0,0,1-.33.13.42.42,0,0,1-.34-.13A.44.44,0,0,1,202.34,134.72Zm5.78,3.44a2.65,2.65,0,0,1-.46,1.63,1.5,1.5,0,0,1-1.26.62,1.64,1.64,0,0,1-1.27-.51V142h-.75v-6.14h.69l0,.49a1.57,1.57,0,0,1,1.29-.57,1.5,1.5,0,0,1,1.26.6,2.69,2.69,0,0,1,.47,1.68Zm-.76-.09a1.9,1.9,0,0,0-.32-1.18,1,1,0,0,0-.87-.44,1.14,1.14,0,0,0-1,.61v2.12a1.12,1.12,0,0,0,1.05.61,1,1,0,0,0,.86-.43A2.12,2.12,0,0,0,207.36,138.07Zm2.76-3.25v1.07h.82v.59h-.82v2.75a.6.6,0,0,0,.11.4.45.45,0,0,0,.37.13,2,2,0,0,0,.36,0v.61a2,2,0,0,1-.58.09.94.94,0,0,1-.76-.31,1.27,1.27,0,0,1-.26-.87v-2.75h-.81v-.59h.81v-1.07Zm2.54,5.5h-.76v-4.43h.76Zm-.82-5.6a.45.45,0,0,1,.11-.32.42.42,0,0,1,.33-.12.45.45,0,0,1,.34.12.45.45,0,0,1,.11.32.4.4,0,0,1-.11.3.42.42,0,0,1-.34.13A.39.39,0,0,1,212,135,.4.4,0,0,1,211.84,134.72Zm1.83,3.35a2.58,2.58,0,0,1,.26-1.17,1.94,1.94,0,0,1,.71-.81,1.91,1.91,0,0,1,1-.28,1.88,1.88,0,0,1,1.47.63,2.4,2.4,0,0,1,.56,1.66v.06a2.71,2.71,0,0,1-.25,1.16,1.9,1.9,0,0,1-.71.8,2,2,0,0,1-1.06.29,1.86,1.86,0,0,1-1.46-.63,2.42,2.42,0,0,1-.56-1.66Zm.76.09a1.94,1.94,0,0,0,.34,1.18,1.11,1.11,0,0,0,.92.45,1.09,1.09,0,0,0,.92-.45,2.06,2.06,0,0,0,.34-1.27,1.88,1.88,0,0,0-.35-1.18,1.1,1.1,0,0,0-.92-.46,1.08,1.08,0,0,0-.9.45A2.05,2.05,0,0,0,214.43,138.16Zm4.94-2.27,0,.56a1.61,1.61,0,0,1,1.33-.64c.93,0,1.41.53,1.41,1.59v2.92h-.75v-2.93a1,1,0,0,0-.23-.71.87.87,0,0,0-.66-.23,1.11,1.11,0,0,0-.65.2,1.32,1.32,0,0,0-.44.52v3.15h-.75v-4.43Z" transform="translate(0 -29)"/><rect class="cls-2" x="129.14" y="81.82" width="12.29" height="12.29" rx="1.95"/><rect class="cls-2" x="149.25" y="81.82" width="84.89" height="12.29" rx="1.95"/><rect class="cls-1" x="160.96" y="0.14" width="128.06" height="158.34" rx="4.67"/><path d="M177.47,43.23l.64-3.4h1L178,44.61h-1l-.78-3.2-.77,3.2h-1l-1.06-4.78h1l.65,3.4.79-3.4h.83Zm1.85-.43a2.06,2.06,0,0,1,.2-.94,1.5,1.5,0,0,1,.58-.64A1.76,1.76,0,0,1,181,41a1.62,1.62,0,0,1,1.18.44,1.82,1.82,0,0,1,.51,1.2v.24a1.89,1.89,0,0,1-.45,1.32,1.79,1.79,0,0,1-2.46,0,1.92,1.92,0,0,1-.45-1.34Zm1,.07a1.32,1.32,0,0,0,.19.78.69.69,0,0,0,1.08,0,1.46,1.46,0,0,0,.2-.85,1.33,1.33,0,0,0-.2-.77.63.63,0,0,0-.55-.27.6.6,0,0,0-.53.27A1.45,1.45,0,0,0,180.27,42.87Zm5-.92-.34,0a.69.69,0,0,0-.71.37v2.32h-.95V41.06h.9l0,.42A.9.9,0,0,1,185,41a.94.94,0,0,1,.3,0ZM187,43.19l-.34.34v1.08h-1v-5h1v2.79l.18-.23.91-1.07h1.14l-1.28,1.48L189,44.61h-1.09Zm8-.86a2.86,2.86,0,0,1-.25,1.24,1.92,1.92,0,0,1-.72.82,2.08,2.08,0,0,1-2.12,0,1.89,1.89,0,0,1-.72-.81,2.81,2.81,0,0,1-.27-1.22v-.24a2.83,2.83,0,0,1,.26-1.24,1.89,1.89,0,0,1,.72-.83,2,2,0,0,1,1.06-.29,2,2,0,0,1,1.06.29,1.89,1.89,0,0,1,.72.83,2.83,2.83,0,0,1,.26,1.24Zm-1-.22a2,2,0,0,0-.27-1.14.95.95,0,0,0-1.53,0,2,2,0,0,0-.28,1.13v.23a2,2,0,0,0,.27,1.14.88.88,0,0,0,.78.4.87.87,0,0,0,.76-.39,2,2,0,0,0,.27-1.13Zm3.65-.16-.34,0a.69.69,0,0,0-.71.37v2.32h-1V41.06h.9l0,.42a.89.89,0,0,1,.79-.49.93.93,0,0,1,.29,0Zm.25.86a2.11,2.11,0,0,1,.37-1.32,1.22,1.22,0,0,1,1-.5,1.09,1.09,0,0,1,.86.39V39.57h1v5h-.86l0-.37a1.14,1.14,0,0,1-.92.44,1.25,1.25,0,0,1-1-.49A2.24,2.24,0,0,1,197.89,42.81Zm1,.07a1.43,1.43,0,0,0,.17.76.58.58,0,0,0,.51.27.63.63,0,0,0,.62-.37v-1.4a.63.63,0,0,0-.62-.38C199.07,41.76,198.84,42.14,198.84,42.88Zm4.62,1.8a1.74,1.74,0,0,1-1.27-.48,1.7,1.7,0,0,1-.49-1.28v-.09a2.12,2.12,0,0,1,.21-1,1.47,1.47,0,0,1,.58-.65,1.66,1.66,0,0,1,.87-.23,1.51,1.51,0,0,1,1.15.46,1.87,1.87,0,0,1,.42,1.31v.38h-2.27a.84.84,0,0,0,.87.77,1,1,0,0,0,.85-.39l.47.52a1.42,1.42,0,0,1-.58.47A1.92,1.92,0,0,1,203.46,44.68Zm-.11-2.92a.57.57,0,0,0-.45.19,1,1,0,0,0-.23.55H204v-.08a.65.65,0,0,0-.17-.48A.6.6,0,0,0,203.35,41.76Zm4.11.19-.34,0a.68.68,0,0,0-.7.37v2.32h-.95V41.06h.9l0,.42a.9.9,0,0,1,.79-.49.94.94,0,0,1,.3,0Zm5.61-1.32H211.6v4h-1v-4h-1.45v-.8h3.9Zm1.56,2.64.66-2.21h1l-1.42,4.11-.08.18a1.1,1.1,0,0,1-1.06.7,1.64,1.64,0,0,1-.42-.06v-.72h.15a.83.83,0,0,0,.4-.08.58.58,0,0,0,.21-.27l.11-.3L213,41.06h1Zm5.25-.4a2.13,2.13,0,0,1-.38,1.32,1.2,1.2,0,0,1-1,.49,1.11,1.11,0,0,1-.87-.38V46h-.95V41.06h.88l0,.35a1.11,1.11,0,0,1,.9-.42,1.18,1.18,0,0,1,1,.49,2.13,2.13,0,0,1,.37,1.34Zm-.95-.07a1.39,1.39,0,0,0-.18-.77.56.56,0,0,0-.51-.27.62.62,0,0,0-.61.35v1.45a.61.61,0,0,0,.62.35C218.7,43.91,218.93,43.54,218.93,42.8Zm3.18,1.88a1.77,1.77,0,0,1-1.28-.48,1.74,1.74,0,0,1-.49-1.28v-.09a2.12,2.12,0,0,1,.21-1,1.53,1.53,0,0,1,.58-.65A1.71,1.71,0,0,1,222,41a1.5,1.5,0,0,1,1.15.46,1.87,1.87,0,0,1,.42,1.31v.38H221.3a.94.94,0,0,0,.28.56.85.85,0,0,0,.59.21,1,1,0,0,0,.86-.39l.46.52a1.36,1.36,0,0,1-.58.47A1.91,1.91,0,0,1,222.11,44.68ZM222,41.76a.59.59,0,0,0-.46.19,1,1,0,0,0-.22.55h1.32v-.08a.7.7,0,0,0-.18-.48A.59.59,0,0,0,222,41.76Z" transform="translate(0 -29)"/><path class="cls-6" d="M173.32,56.88a3.36,3.36,0,0,1,3.36-3.37h13.46v9.62H176.68a3.36,3.36,0,0,1-3.36-3.37Z" transform="translate(0 -29)"/><path class="cls-7" d="M206.24,59.76a3.12,3.12,0,0,1-3.12,3.13H189.9V53.75h13.22a3.12,3.12,0,0,1,3.12,3.13Z" transform="translate(0 -29)"/><rect class="cls-8" x="177.16" y="28.84" width="10.09" height="1.92"/><rect class="cls-8" x="193.02" y="28.84" width="10.09" height="1.92"/><path class="cls-6" d="M244,59.76a3.37,3.37,0,0,1-3.37,3.37H227.15V53.51h13.46A3.37,3.37,0,0,1,244,56.88Z" transform="translate(0 -29)"/><path class="cls-7" d="M211.05,56.88a3.13,3.13,0,0,1,3.13-3.13h13.21v9.14H214.18a3.13,3.13,0,0,1-3.13-3.13Z" transform="translate(0 -29)"/><rect class="cls-8" x="214.17" y="28.84" width="10.09" height="1.92"/><rect class="cls-8" x="230.04" y="28.84" width="10.09" height="1.92"/><rect class="cls-9" x="257.43" y="8.17" width="11.06" height="11.06" rx="1.92"/><path d="M184.44,78.84h-2.15l-.49,1.34h-.69l2-5.13h.59l2,5.13h-.69Zm-1.95-.55h1.75l-.88-2.41Zm5.94.88a.46.46,0,0,0-.2-.41,1.82,1.82,0,0,0-.69-.25,3.31,3.31,0,0,1-.79-.26,1.1,1.1,0,0,1-.43-.35.88.88,0,0,1-.14-.49,1,1,0,0,1,.4-.79,1.51,1.51,0,0,1,1-.32,1.62,1.62,0,0,1,1.06.33,1.1,1.1,0,0,1,.4.86h-.66a.56.56,0,0,0-.23-.46A1,1,0,0,0,187,77a.47.47,0,0,0-.2.4.4.4,0,0,0,.18.36,2.26,2.26,0,0,0,.68.23,3.47,3.47,0,0,1,.79.26,1.12,1.12,0,0,1,.45.37.85.85,0,0,1,.15.51,1,1,0,0,1-.41.83,1.77,1.77,0,0,1-1.06.3,1.94,1.94,0,0,1-.82-.16,1.37,1.37,0,0,1-.55-.45,1.14,1.14,0,0,1-.2-.63h.66a.65.65,0,0,0,.26.52,1,1,0,0,0,.65.19,1.05,1.05,0,0,0,.59-.15A.45.45,0,0,0,188.43,79.17Zm3.73,0a.48.48,0,0,0-.2-.41,2,2,0,0,0-.7-.25,3.31,3.31,0,0,1-.79-.26,1.18,1.18,0,0,1-.43-.35.88.88,0,0,1-.13-.49,1,1,0,0,1,.39-.79,1.56,1.56,0,0,1,1-.32,1.61,1.61,0,0,1,1.05.33,1.07,1.07,0,0,1,.4.86h-.65a.59.59,0,0,0-.23-.46,1,1,0,0,0-1.13,0,.49.49,0,0,0-.2.4.39.39,0,0,0,.19.36,2.18,2.18,0,0,0,.67.23,3.31,3.31,0,0,1,.79.26,1.12,1.12,0,0,1,.45.37.85.85,0,0,1,.15.51,1,1,0,0,1-.41.83,1.75,1.75,0,0,1-1.06.3,1.86,1.86,0,0,1-.81-.16,1.4,1.4,0,0,1-.56-.45,1.13,1.13,0,0,1-.19-.63h.65a.68.68,0,0,0,.26.52,1,1,0,0,0,.65.19,1,1,0,0,0,.59-.15A.46.46,0,0,0,192.16,79.17Zm3.08,1.08a1.65,1.65,0,0,1-1.26-.51,1.86,1.86,0,0,1-.49-1.36v-.12a2.18,2.18,0,0,1,.22-1,1.64,1.64,0,0,1,.6-.7,1.53,1.53,0,0,1,.85-.25,1.43,1.43,0,0,1,1.16.49,2.13,2.13,0,0,1,.41,1.4v.27h-2.58a1.29,1.29,0,0,0,.32.91,1,1,0,0,0,.81.35,1.16,1.16,0,0,0,.58-.14,1.47,1.47,0,0,0,.42-.37l.4.31A1.6,1.6,0,0,1,195.24,80.25Zm-.08-3.42a.88.88,0,0,0-.66.29,1.37,1.37,0,0,0-.33.81h1.91v-.05a1.22,1.22,0,0,0-.27-.77A.81.81,0,0,0,195.16,76.83Zm2.94-.46,0,.42a1.39,1.39,0,0,1,1.13-.49,1.09,1.09,0,0,1,1.09.61,1.48,1.48,0,0,1,.49-.44,1.43,1.43,0,0,1,.73-.17c.83,0,1.26.44,1.27,1.33v2.55h-.65V77.66a.86.86,0,0,0-.19-.61.82.82,0,0,0-.62-.2.85.85,0,0,0-.61.22.89.89,0,0,0-.28.58v2.53h-.65v-2.5a.73.73,0,0,0-.82-.83.86.86,0,0,0-.87.55v2.78h-.66V76.37Zm9,1.95a2.3,2.3,0,0,1-.4,1.4,1.27,1.27,0,0,1-1.08.53,1.33,1.33,0,0,1-1.12-.51l0,.44h-.6V74.77h.65v2a1.33,1.33,0,0,1,1.09-.49,1.28,1.28,0,0,1,1.09.52,2.3,2.3,0,0,1,.4,1.44Zm-.65-.08a1.8,1.8,0,0,0-.26-1,.85.85,0,0,0-.74-.36,1,1,0,0,0-.93.6V79.1a1,1,0,0,0,.94.6.86.86,0,0,0,.73-.36A1.94,1.94,0,0,0,206.4,78.24Zm2.68,1,.89-2.86h.7l-1.54,4.4c-.23.64-.61,1-1.13,1h-.12l-.25,0v-.53h.18a.84.84,0,0,0,.51-.13,1,1,0,0,0,.31-.49l.15-.39-1.37-3.77h.72Z" transform="translate(0 -29)"/><path d="M192.13,90.38H190l-.49,1.34h-.69l2-5.14h.59l2,5.14h-.69Zm-1.95-.56h1.75l-.88-2.4Zm5.94.89a.47.47,0,0,0-.2-.41,1.8,1.8,0,0,0-.69-.26,3.35,3.35,0,0,1-.79-.25,1.19,1.19,0,0,1-.43-.35.88.88,0,0,1-.14-.49,1,1,0,0,1,.4-.79,1.75,1.75,0,0,1,2.06,0,1.06,1.06,0,0,1,.41.85h-.66a.58.58,0,0,0-.23-.46.84.84,0,0,0-.57-.19.9.9,0,0,0-.55.15.49.49,0,0,0-.21.41.41.41,0,0,0,.19.36,2.32,2.32,0,0,0,.68.22,3.44,3.44,0,0,1,.79.27,1.19,1.19,0,0,1,.45.36.88.88,0,0,1,.14.52,1,1,0,0,1-.4.82,1.72,1.72,0,0,1-1.07.31,2.09,2.09,0,0,1-.81-.16,1.37,1.37,0,0,1-.55-.45,1.15,1.15,0,0,1-.2-.64h.66a.67.67,0,0,0,.26.53,1.22,1.22,0,0,0,1.24,0A.46.46,0,0,0,196.12,90.71Zm3.73,0a.47.47,0,0,0-.2-.41A1.93,1.93,0,0,0,199,90a3.35,3.35,0,0,1-.79-.25,1.29,1.29,0,0,1-.43-.35.88.88,0,0,1-.13-.49,1,1,0,0,1,.39-.79,1.77,1.77,0,0,1,2.07,0,1.05,1.05,0,0,1,.4.85h-.65a.61.61,0,0,0-.23-.46.84.84,0,0,0-.57-.19.91.91,0,0,0-.56.15.51.51,0,0,0-.2.41.4.4,0,0,0,.18.36,2.32,2.32,0,0,0,.68.22,3.44,3.44,0,0,1,.79.27,1.19,1.19,0,0,1,.45.36.89.89,0,0,1,.15.52,1,1,0,0,1-.41.82,1.69,1.69,0,0,1-1.06.31,2,2,0,0,1-.81-.16,1.4,1.4,0,0,1-.56-.45,1.14,1.14,0,0,1-.19-.64h.65a.7.7,0,0,0,.26.53,1.07,1.07,0,0,0,.65.19,1.05,1.05,0,0,0,.59-.15A.47.47,0,0,0,199.85,90.71Zm3.08,1.08a1.65,1.65,0,0,1-1.26-.51,1.86,1.86,0,0,1-.49-1.36V89.8a2.25,2.25,0,0,1,.22-1,1.62,1.62,0,0,1,.6-.69,1.54,1.54,0,0,1,.85-.26,1.46,1.46,0,0,1,1.16.49,2.17,2.17,0,0,1,.41,1.41V90h-2.59a1.37,1.37,0,0,0,.33.91,1.05,1.05,0,0,0,.81.35,1.16,1.16,0,0,0,.58-.14,1.51,1.51,0,0,0,.42-.38l.4.31A1.61,1.61,0,0,1,202.93,91.79Zm-.08-3.42a.84.84,0,0,0-.66.29,1.44,1.44,0,0,0-.34.8h1.92v0a1.25,1.25,0,0,0-.27-.77A.83.83,0,0,0,202.85,88.37Zm2.94-.47,0,.43a1.4,1.4,0,0,1,1.13-.5,1.1,1.1,0,0,1,1.09.62,1.41,1.41,0,0,1,.49-.45,1.53,1.53,0,0,1,.72-.17c.84,0,1.27.45,1.28,1.33v2.56h-.65V89.2a.84.84,0,0,0-.19-.61.8.8,0,0,0-.63-.2.88.88,0,0,0-.6.21.92.92,0,0,0-.28.59v2.53h-.65v-2.5a.73.73,0,0,0-.82-.83.88.88,0,0,0-.88.54v2.79h-.65V87.9Zm9,1.95a2.33,2.33,0,0,1-.4,1.41,1.3,1.3,0,0,1-1.08.53,1.33,1.33,0,0,1-1.12-.51l0,.44h-.6V86.3h.65v2a1.34,1.34,0,0,1,1.09-.49,1.29,1.29,0,0,1,1.09.53,2.37,2.37,0,0,1,.4,1.44Zm-.65-.07a1.76,1.76,0,0,0-.26-1,.85.85,0,0,0-.74-.36,1,1,0,0,0-.93.6v1.65a1,1,0,0,0,.94.6.84.84,0,0,0,.72-.37A1.8,1.8,0,0,0,214.09,89.78Zm2.68,1,.89-2.86h.7l-1.54,4.41c-.24.63-.61,1-1.13,1h-.12l-.25,0v-.53l.18,0a.84.84,0,0,0,.51-.14.92.92,0,0,0,.31-.49l.15-.38L215.1,87.9h.72Zm6.9-.38h-2.15L221,91.72h-.7l2-5.14h.59l2,5.14h-.69Zm-1.95-.56h1.75l-.88-2.4Zm3.56,0a2.19,2.19,0,0,1,.42-1.41,1.31,1.31,0,0,1,1.09-.54,1.33,1.33,0,0,1,1.06.46v-2h.65v5.42h-.6l0-.41a1.41,1.41,0,0,1-2.17-.06,2.28,2.28,0,0,1-.42-1.42Zm.66.07a1.69,1.69,0,0,0,.26,1,.89.89,0,0,0,.74.37,1,1,0,0,0,.91-.56V88.93a1,1,0,0,0-.9-.54.87.87,0,0,0-.75.37A1.83,1.83,0,0,0,225.94,89.85Zm5.8.86a.47.47,0,0,0-.2-.41,1.79,1.79,0,0,0-.7-.26,3.11,3.11,0,0,1-.78-.25,1.19,1.19,0,0,1-.43-.35.88.88,0,0,1-.14-.49,1,1,0,0,1,.39-.79,1.77,1.77,0,0,1,2.07,0,1.06,1.06,0,0,1,.41.85h-.66a.61.61,0,0,0-.23-.46.84.84,0,0,0-.57-.19.93.93,0,0,0-.56.15.51.51,0,0,0-.2.41.39.39,0,0,0,.19.36,2.23,2.23,0,0,0,.67.22,3.54,3.54,0,0,1,.8.27,1.08,1.08,0,0,1,.44.36.89.89,0,0,1,.15.52,1,1,0,0,1-.41.82,1.67,1.67,0,0,1-1.06.31,2.09,2.09,0,0,1-.81-.16,1.37,1.37,0,0,1-.55-.45,1.15,1.15,0,0,1-.2-.64H230a.7.7,0,0,0,.26.53,1.09,1.09,0,0,0,.65.19,1,1,0,0,0,.59-.15A.47.47,0,0,0,231.74,90.71Z" transform="translate(0 -29)"/><rect class="cls-10" x="173.56" y="47.35" width="4.33" height="4.33" rx="0.72"/><rect class="cls-10" x="181.25" y="58.88" width="4.33" height="4.33" rx="0.72"/><path d="M182.48,102.45l1.68,4.19,1.68-4.19h.87v5.13H186v-2l.06-2.16-1.69,4.16h-.51l-1.69-4.15.07,2.15v2h-.68v-5.13Zm7.68,5.13a1.25,1.25,0,0,1-.09-.4,1.48,1.48,0,0,1-1.09.47,1.36,1.36,0,0,1-.92-.32,1,1,0,0,1-.36-.81,1.07,1.07,0,0,1,.45-.92,2.13,2.13,0,0,1,1.27-.33h.64V105a.74.74,0,0,0-.21-.55.82.82,0,0,0-.6-.2.91.91,0,0,0-.58.18.51.51,0,0,0-.24.42h-.66a.88.88,0,0,1,.21-.55,1.27,1.27,0,0,1,.54-.42,2,2,0,0,1,.77-.16,1.5,1.5,0,0,1,1,.34,1.18,1.18,0,0,1,.39.9v1.76a2.07,2.07,0,0,0,.14.83v.06Zm-1.08-.5a1.1,1.1,0,0,0,.58-.16.93.93,0,0,0,.4-.41v-.78h-.51c-.8,0-1.2.23-1.2.7a.61.61,0,0,0,.2.48A.77.77,0,0,0,189.08,107.08Zm3.36.5h-.65v-3.82h.65Zm-.7-4.83a.39.39,0,0,1,.09-.26.44.44,0,0,1,.58,0,.35.35,0,0,1,.1.26.36.36,0,0,1-.1.27.47.47,0,0,1-.58,0A.4.4,0,0,1,191.74,102.75Zm2.37,1,0,.49a1.38,1.38,0,0,1,1.14-.56c.81,0,1.21.46,1.22,1.37v2.52h-.65v-2.52a.92.92,0,0,0-.19-.62.78.78,0,0,0-.58-.19.93.93,0,0,0-.56.17,1.14,1.14,0,0,0-.37.44v2.72h-.65v-3.82Zm4.25-.92v.92h.71v.51h-.71v2.37a.55.55,0,0,0,.09.34.4.4,0,0,0,.33.11,1.45,1.45,0,0,0,.31,0v.53a1.77,1.77,0,0,1-.5.07.84.84,0,0,1-.66-.26,1.14,1.14,0,0,1-.22-.75v-2.37H197v-.51h.7v-.92Zm3.06,4.81a1.65,1.65,0,0,1-1.26-.51,1.86,1.86,0,0,1-.49-1.36v-.12a2.31,2.31,0,0,1,.21-1,1.67,1.67,0,0,1,.61-.7,1.52,1.52,0,0,1,.85-.26,1.44,1.44,0,0,1,1.15.49,2.12,2.12,0,0,1,.42,1.41v.27h-2.59a1.35,1.35,0,0,0,.33.91,1,1,0,0,0,.8.35A1.2,1.2,0,0,0,202,107a1.51,1.51,0,0,0,.42-.38l.4.31A1.61,1.61,0,0,1,201.42,107.65Zm-.08-3.42a.88.88,0,0,0-.67.29,1.43,1.43,0,0,0-.33.8h1.91v0a1.21,1.21,0,0,0-.26-.77A.83.83,0,0,0,201.34,104.23Zm2.94-.47,0,.49a1.39,1.39,0,0,1,1.15-.56c.8,0,1.21.46,1.21,1.37v2.52H206v-2.52a.87.87,0,0,0-.19-.62.74.74,0,0,0-.57-.19.91.91,0,0,0-.56.17,1.14,1.14,0,0,0-.37.44v2.72h-.66v-3.82Zm5.72,3.82a1.6,1.6,0,0,1-.09-.4,1.45,1.45,0,0,1-1.08.47,1.36,1.36,0,0,1-.93-.32,1,1,0,0,1-.36-.81,1.07,1.07,0,0,1,.45-.92,2.14,2.14,0,0,1,1.28-.33h.63V105a.77.77,0,0,0-.2-.55.86.86,0,0,0-.61-.2.93.93,0,0,0-.58.18.51.51,0,0,0-.24.42h-.65a.87.87,0,0,1,.2-.55,1.31,1.31,0,0,1,.55-.42,1.88,1.88,0,0,1,.76-.16,1.49,1.49,0,0,1,1,.34,1.18,1.18,0,0,1,.39.9v1.76a2.07,2.07,0,0,0,.14.83v.06Zm-1.08-.5a1.1,1.1,0,0,0,.58-.16.88.88,0,0,0,.4-.41v-.78h-.51c-.8,0-1.2.23-1.2.7a.59.59,0,0,0,.21.48A.74.74,0,0,0,208.92,107.08Zm3.27-3.32,0,.49a1.42,1.42,0,0,1,1.15-.56c.8,0,1.21.46,1.22,1.37v2.52h-.66v-2.52a.87.87,0,0,0-.19-.62.74.74,0,0,0-.57-.19.91.91,0,0,0-.56.17,1.14,1.14,0,0,0-.37.44v2.72h-.65v-3.82Zm4.9,3.36a.94.94,0,0,0,.61-.21.79.79,0,0,0,.29-.53h.62a1.24,1.24,0,0,1-.23.62,1.36,1.36,0,0,1-.56.47,1.55,1.55,0,0,1-.73.18,1.57,1.57,0,0,1-1.24-.52,2.06,2.06,0,0,1-.46-1.42v-.11a2.25,2.25,0,0,1,.21-1,1.55,1.55,0,0,1,.58-.68,1.69,1.69,0,0,1,.91-.24,1.51,1.51,0,0,1,1.06.39,1.35,1.35,0,0,1,.46,1H218a.9.9,0,0,0-.28-.61.88.88,0,0,0-.62-.24.94.94,0,0,0-.78.36,1.69,1.69,0,0,0-.27,1v.13a1.64,1.64,0,0,0,.27,1A.92.92,0,0,0,217.09,107.12Zm3.83.53a1.67,1.67,0,0,1-1.26-.51,1.9,1.9,0,0,1-.49-1.36v-.12a2.18,2.18,0,0,1,.22-1,1.65,1.65,0,0,1,.6-.7,1.57,1.57,0,0,1,.85-.26,1.46,1.46,0,0,1,1.16.49,2.17,2.17,0,0,1,.41,1.41v.27h-2.58a1.39,1.39,0,0,0,.32.91,1.07,1.07,0,0,0,.81.35,1.16,1.16,0,0,0,.58-.14,1.51,1.51,0,0,0,.42-.38l.4.31A1.61,1.61,0,0,1,220.92,107.65Zm-.08-3.42a.88.88,0,0,0-.66.29,1.37,1.37,0,0,0-.33.8h1.91v0a1.27,1.27,0,0,0-.27-.77A.83.83,0,0,0,220.84,104.23Z" transform="translate(0 -29)"/><path d="M192.13,117.78H190l-.48,1.33h-.7l2-5.13h.59l2,5.13h-.69Zm-1.95-.56h1.75l-.88-2.4Zm3.56,0a2.19,2.19,0,0,1,.42-1.41,1.41,1.41,0,0,1,2.15-.08v-2H197v5.41h-.6l0-.4a1.4,1.4,0,0,1-2.17-.07,2.23,2.23,0,0,1-.42-1.41Zm.66.07a1.79,1.79,0,0,0,.26,1,.88.88,0,0,0,.74.36.94.94,0,0,0,.91-.56v-1.75a1,1,0,0,0-.9-.54.89.89,0,0,0-.75.37A2,2,0,0,0,194.4,117.25Zm3.42-.07a2.19,2.19,0,0,1,.42-1.41,1.3,1.3,0,0,1,1.09-.54,1.32,1.32,0,0,1,1.06.46v-2H201v5.41h-.6l0-.4a1.33,1.33,0,0,1-1.09.48,1.32,1.32,0,0,1-1.08-.55,2.23,2.23,0,0,1-.42-1.41Zm.65.07a1.71,1.71,0,0,0,.27,1,.88.88,0,0,0,.74.36.94.94,0,0,0,.91-.56v-1.75a1,1,0,0,0-.9-.54.89.89,0,0,0-.75.37A1.88,1.88,0,0,0,198.47,117.25Zm4.29,1.86h-.65V115.3h.65Zm-.7-4.82a.35.35,0,0,1,.38-.38.37.37,0,0,1,.29.11.36.36,0,0,1,.1.27.35.35,0,0,1-.1.26.37.37,0,0,1-.29.11.4.4,0,0,1-.29-.11A.39.39,0,0,1,202.06,114.29Zm2.64.09v.92h.71v.51h-.71v2.36a.58.58,0,0,0,.09.35.42.42,0,0,0,.33.11l.31,0v.52a1.86,1.86,0,0,1-.5.08.82.82,0,0,1-.67-.27,1.16,1.16,0,0,1-.22-.75v-2.36h-.69v-.51H204v-.92Zm1.23,2.79a2.23,2.23,0,0,1,.22-1,1.78,1.78,0,0,1,.61-.69,1.68,1.68,0,0,1,.9-.24,1.61,1.61,0,0,1,1.26.54,2.09,2.09,0,0,1,.48,1.44v0a2.29,2.29,0,0,1-.21,1,1.64,1.64,0,0,1-.61.69,1.75,1.75,0,0,1-.91.25,1.61,1.61,0,0,1-1.26-.54,2.08,2.08,0,0,1-.48-1.43Zm.66.08a1.62,1.62,0,0,0,.29,1,.92.92,0,0,0,.79.38,1,1,0,0,0,.79-.38,1.87,1.87,0,0,0,.29-1.1,1.6,1.6,0,0,0-.3-1,.94.94,0,0,0-.79-.39.93.93,0,0,0-.78.38A1.76,1.76,0,0,0,206.59,117.25Zm4.25-2,0,.48a1.38,1.38,0,0,1,1.14-.55c.81,0,1.21.45,1.22,1.37v2.51h-.65v-2.52a.89.89,0,0,0-.19-.61.77.77,0,0,0-.58-.2.94.94,0,0,0-.55.17,1.19,1.19,0,0,0-.38.45v2.71h-.65V115.3Zm5.72,3.81a1.12,1.12,0,0,1-.09-.4,1.47,1.47,0,0,1-1.09.48,1.36,1.36,0,0,1-.92-.32,1,1,0,0,1-.36-.81,1.06,1.06,0,0,1,.45-.93,2.11,2.11,0,0,1,1.27-.33h.64v-.3a.72.72,0,0,0-.21-.54.8.8,0,0,0-.6-.21,1,1,0,0,0-.59.18.54.54,0,0,0-.23.43h-.66a.93.93,0,0,1,.2-.55,1.37,1.37,0,0,1,.55-.42,1.8,1.8,0,0,1,.77-.16,1.5,1.5,0,0,1,1,.33,1.19,1.19,0,0,1,.39.91v1.75a2.18,2.18,0,0,0,.13.84v0Zm-1.08-.49a1.1,1.1,0,0,0,.58-.16,1,1,0,0,0,.4-.41v-.79H216c-.8,0-1.2.24-1.2.71a.63.63,0,0,0,.2.48A.82.82,0,0,0,215.48,118.62Zm3.36.49h-.65V113.7h.65Zm5.78-1.33h-2.16l-.48,1.33h-.7l2-5.13h.6l2,5.13h-.69Zm-2-.56h1.74l-.87-2.4Zm5.94.88a.5.5,0,0,0-.2-.41,2,2,0,0,0-.7-.25,3.25,3.25,0,0,1-.78-.25,1.12,1.12,0,0,1-.43-.36.83.83,0,0,1-.14-.48,1,1,0,0,1,.4-.79,1.52,1.52,0,0,1,1-.33,1.56,1.56,0,0,1,1,.34,1,1,0,0,1,.41.85h-.66a.59.59,0,0,0-.23-.46.84.84,0,0,0-.57-.19.93.93,0,0,0-.56.15.51.51,0,0,0-.2.41.39.39,0,0,0,.19.35,2.18,2.18,0,0,0,.67.23,4.18,4.18,0,0,1,.8.26,1.1,1.1,0,0,1,.44.37.86.86,0,0,1,.15.52,1,1,0,0,1-.41.82,1.73,1.73,0,0,1-1.06.31A1.92,1.92,0,0,1,227,119a1.29,1.29,0,0,1-.55-.45,1.1,1.1,0,0,1-.2-.63h.65a.68.68,0,0,0,.26.52,1,1,0,0,0,.65.19,1.09,1.09,0,0,0,.59-.14A.47.47,0,0,0,228.61,118.1Zm3.72,0a.47.47,0,0,0-.2-.41,2,2,0,0,0-.69-.25,3.35,3.35,0,0,1-.79-.25,1.2,1.2,0,0,1-.43-.36.83.83,0,0,1-.14-.48,1,1,0,0,1,.4-.79,1.75,1.75,0,0,1,2.06,0,1,1,0,0,1,.41.85h-.66a.58.58,0,0,0-.22-.46.86.86,0,0,0-.58-.19.9.9,0,0,0-.55.15.48.48,0,0,0-.2.41.4.4,0,0,0,.18.35,2.26,2.26,0,0,0,.68.23,4.05,4.05,0,0,1,.79.26,1.21,1.21,0,0,1,.45.37.86.86,0,0,1,.15.52,1,1,0,0,1-.41.82,1.79,1.79,0,0,1-1.07.31,1.85,1.85,0,0,1-.8-.17,1.32,1.32,0,0,1-.56-.45,1.1,1.1,0,0,1-.2-.63h.66a.68.68,0,0,0,.26.52,1,1,0,0,0,.64.19,1.16,1.16,0,0,0,.6-.14A.48.48,0,0,0,232.33,118.1Zm3.09,1.09a1.65,1.65,0,0,1-1.26-.51,1.89,1.89,0,0,1-.49-1.37v-.12a2.37,2.37,0,0,1,.21-1,1.74,1.74,0,0,1,.61-.7,1.59,1.59,0,0,1,.85-.25,1.41,1.41,0,0,1,1.15.49,2.09,2.09,0,0,1,.42,1.4v.27h-2.59a1.39,1.39,0,0,0,.33.92,1,1,0,0,0,.8.34,1.1,1.1,0,0,0,.59-.14,1.47,1.47,0,0,0,.42-.37l.4.31A1.61,1.61,0,0,1,235.42,119.19Zm-.08-3.42a.82.82,0,0,0-.66.29,1.34,1.34,0,0,0-.34.8h1.91v0A1.19,1.19,0,0,0,236,116,.83.83,0,0,0,235.34,115.77Zm2.94-.47v.42a1.41,1.41,0,0,1,1.14-.49,1.1,1.1,0,0,1,1.09.61,1.39,1.39,0,0,1,.49-.44,1.5,1.5,0,0,1,.72-.17c.84,0,1.26.44,1.28,1.33v2.55h-.65V116.6a.87.87,0,0,0-.19-.61.8.8,0,0,0-.63-.21.89.89,0,0,0-.6.22.91.91,0,0,0-.28.58v2.53H240v-2.49a.74.74,0,0,0-.82-.84.88.88,0,0,0-.88.55v2.78h-.65V115.3Zm8.95,2a2.29,2.29,0,0,1-.41,1.41,1.27,1.27,0,0,1-1.08.53,1.31,1.31,0,0,1-1.11-.51l0,.43H244V113.7h.65v2a1.43,1.43,0,0,1,2.18,0,2.39,2.39,0,0,1,.4,1.44Zm-.66-.07a1.76,1.76,0,0,0-.25-1,.84.84,0,0,0-.74-.37,1,1,0,0,0-.93.6V118a1,1,0,0,0,.93.6.84.84,0,0,0,.73-.36A1.83,1.83,0,0,0,246.57,117.18Zm2.19,1.93h-.65V113.7h.65Zm2.29-1,.89-2.86h.7l-1.53,4.4c-.24.64-.62,1-1.13,1h-.13l-.24-.05v-.53h.18a.84.84,0,0,0,.51-.13.92.92,0,0,0,.31-.49l.14-.39-1.36-3.77h.71Z" transform="translate(0 -29)"/><rect class="cls-10" x="173.56" y="74.74" width="4.33" height="4.33" rx="0.72"/><rect class="cls-10" x="181.25" y="86.28" width="4.33" height="4.33" rx="0.72"/><rect class="cls-10" x="181.25" y="98.3" width="4.33" height="4.33" rx="0.72"/><rect class="cls-5" x="188.7" y="98.06" width="65.37" height="4.81" rx="0.96"/><rect class="cls-10" x="181.25" y="136.27" width="4.33" height="4.33" rx="0.72"/><rect class="cls-5" x="188.7" y="136.03" width="65.37" height="4.81" rx="0.96"/><rect class="cls-10" x="181.25" y="107.91" width="4.33" height="4.33" rx="0.72"/><rect class="cls-5" x="188.7" y="107.67" width="65.37" height="4.81" rx="0.96"/><rect class="cls-10" x="181.25" y="145.88" width="4.33" height="4.33" rx="0.72"/><rect class="cls-5" x="188.7" y="145.64" width="65.37" height="4.81" rx="0.96"/><rect class="cls-10" x="181.25" y="117.52" width="4.33" height="4.33" rx="0.72"/><rect class="cls-5" x="188.7" y="117.28" width="65.37" height="4.81" rx="0.96"/><rect class="cls-10" x="173.56" y="127.62" width="4.33" height="4.33" rx="0.72"/><rect class="cls-11" x="181.01" y="127.38" width="65.37" height="4.81" rx="0.96"/><rect class="cls-6" x="270.41" y="8.17" width="11.06" height="11.06" rx="1.92"/><path class="cls-12" d="M27.46,180.43H38.93v.2H27.46Z" transform="translate(0 -29)"/><path class="cls-12" d="M27.46,180H38.93v.2H27.46Z" transform="translate(0 -29)"/><path class="cls-12" d="M27.46,179.61H38.93v.2H27.46Z" transform="translate(0 -29)"/><path class="cls-12" d="M27.46,179.25H38.93v.2H27.46Z" transform="translate(0 -29)"/><path class="cls-12" d="M27.46,178.84H38.93v.2H27.46Z" transform="translate(0 -29)"/><path class="cls-12" d="M27.46,178.43H38.93v.2H27.46Z" transform="translate(0 -29)"/><path class="cls-12" d="M27.46,178H38.93v.2H27.46Z" transform="translate(0 -29)"/><path class="cls-12" d="M27.46,177.66H38.93v.21H27.46Z" transform="translate(0 -29)"/><path class="cls-12" d="M27.46,177.25H38.93v.21H27.46Z" transform="translate(0 -29)"/><path class="cls-12" d="M27.46,176.84H38.93v.21H27.46Z" transform="translate(0 -29)"/><path class="cls-12" d="M27.46,176.48H38.93v.21H27.46Z" transform="translate(0 -29)"/><path class="cls-12" d="M27.46,176.07H38.93v.21H27.46Z" transform="translate(0 -29)"/><path class="cls-12" d="M38.41,175.66s.87.06,1.38,1.9c0,0-3.17-1.79-4.55-1.9Z" transform="translate(0 -29)"/><path class="cls-12" d="M28.13,175.87A1.49,1.49,0,0,0,26.54,177s2.81-.93,3.94-1.13Z" transform="translate(0 -29)"/><path class="cls-13" d="M28.07,176H41.69v13.62H28.07Z" transform="translate(0 -29)"/><path class="cls-14" d="M24.18,176h4.05v13.62H24.18Z" transform="translate(0 -29)"/><path class="cls-14" d="M24.23,176h4l-2-4h-4Z" transform="translate(0 -29)"/><path class="cls-13" d="M41.69,176h-4l2-4h4Z" transform="translate(0 -29)"/><path class="cls-15" d="M25,177.71h2.46V179H25Z" transform="translate(0 -29)"/><path class="cls-16" d="M25.32,127.11a1.17,1.17,0,0,0-1.12-.33c-.56.16-1.12.5-1.45,1.95-.06.34.84-.11,1.12-.22s.39-.56.55-.73.17-.17.34-.17a1.4,1.4,0,0,0,.5,0C25.49,127.56,25.49,127.28,25.32,127.11Z" transform="translate(0 -29)"/><path class="cls-17" d="M25.73,141.13c.23.59.46,1.11.69,1.77,1.67,4,3.65,8.83,3.88,11.33.38,4.64,2.58,15.82,2.58,21.26,0,4.42,1.29,7.44,1.14,8.47l-1.29.73,5.55-3.31c1.6-6.4,3.12-20,3.12-27s-.61-18.62-3.27-24.14c-2.51-5.22-12.62,4.27-13.76,5.6C24,136.2,24.67,138.41,25.73,141.13Z" transform="translate(0 -29)"/><path class="cls-16" d="M33.64,115.23a13.27,13.27,0,0,0,.08,2.36,9.61,9.61,0,0,0,1.9,4.49c1.59,2.13,4.56,4,9.65,4.71,3.35.44,5.1-3.46,5.7-8.69a45.34,45.34,0,0,0,.16-7.94c-.08-.89-2.28.66-2.28.66-1.15.22-3.05,9.05-4.19,8.46a19.32,19.32,0,0,1-2.35-3.6c-.23-.3-.38-.67-.61-1-2.28-3.89-5.48-8.9-8-10.08S33.64,115.23,33.64,115.23Z" transform="translate(0 -29)"/><path class="cls-18" d="M35.69,122.08c1.6,2.13,4.56,4,9.66,4.71,3.34.44,5.09-3.46,5.7-8.69-.08,0-.15.08-.23.08-1.06.44-1.75,2.57-2.28,3.53-1.14,2.13-2.28,3.68-5.17,2.72-1-.29-2.51-.74-2.66-2a9.86,9.86,0,0,1,.76-2.87,18.06,18.06,0,0,0,.84-3.89c-.23-.3-.38-.67-.61-1A7.49,7.49,0,0,0,39,116.71a15.55,15.55,0,0,0-1.06,2c-.38.59-1,1-1.45,1.62A3.25,3.25,0,0,0,35.69,122.08Z" transform="translate(0 -29)"/><path class="cls-19" d="M25.73,141.13c.23.59.46,1.11.69,1.77,1.67,4,3.65,8.83,3.87,11.33.38,4.64,2.21,27.89,2.59,29.43.76.44,3.19.37,3.27,0,.3-3.9-1.52-7.65-2-11.48-.91-7.36,1.75-15.08-1.52-22.07-.91-2-2.36-4-2.2-6.26.07-1.1.83-2.35.15-3.45-1.14-1.92-3.35-.59-4.41.66a.36.36,0,0,0-.38,0C25.81,141.13,25.81,141.13,25.73,141.13Z" transform="translate(0 -29)"/><path class="cls-20" d="M33.72,115.23a13.76,13.76,0,0,0,.07,2.36,10.55,10.55,0,0,0,2.59,5.59c1.67,1.84,7.53-7.21,5.85-9.49-2.58-3.46-5.93-7.87-8.44-9S33.72,115.23,33.72,115.23Z" transform="translate(0 -29)"/><path class="cls-17" d="M4.14,179.83l5.62,1.48c6-4.42,15.21-15.31,16-22.22,1.29-10.82,1.6-21.78,1.67-24.65v-.74a8.38,8.38,0,0,0-.83-.88c-2.59-2.65-5.55-4.2-7.45-4.42a2.28,2.28,0,0,0-1.07.08,1.19,1.19,0,0,0-.61.44,22,22,0,0,0-2,3.75c-3.35,7.65-.53,12.29-.61,22.22,0,4.64,1,8.68-3.73,15.67-1.82,2.73-4.25,5.74-5.17,8.1C5.66,179.69,4.14,179.83,4.14,179.83Z" transform="translate(0 -29)"/><path class="cls-11" d="M34.1,104.86a4.34,4.34,0,0,1,2,3.31c.38,2.5.91,9.34.23,11.85l-.69,2.57-3-1a29.93,29.93,0,0,1,.23-4.27C33.11,116.85,34.1,104.86,34.1,104.86Z" transform="translate(0 -29)"/><path class="cls-20" d="M14.63,121.93c.15,5.44.69,10.45,1.07,11.33s6.61,1.4,12.09.59S38,131,38.2,130.24c-.45-2.64-2.73-6.1-3-9.78a47.77,47.77,0,0,1,.3-5.08c.38-4.41.76-9.64-1.75-10.67-.15-.07-.38-.14-.53-.22a13.14,13.14,0,0,0-2.2-.66,16.69,16.69,0,0,0-7.91.15,17.3,17.3,0,0,0-4,1.47,14.54,14.54,0,0,0-1.9,1.1,10.4,10.4,0,0,0-1,.66C14.63,108.39,14.4,115.45,14.63,121.93Z" transform="translate(0 -29)"/><path class="cls-16" d="M28.85,101.11v2.35s.61,1,0,1.11c-1.29.22-3.12-1.11-3.12-1.11v-3.6Z" transform="translate(0 -29)"/><path class="cls-18" d="M25.73,101.62V100s1.6,1.92,3.12,2.06A4.88,4.88,0,0,1,25.73,101.62Z" transform="translate(0 -29)"/><path class="cls-16" d="M29.61,95.07a16.2,16.2,0,0,1,1.45,4.34c.22,1.48-2.59,3.46-4.87,1.33a6.14,6.14,0,0,1-1.67-5.3Z" transform="translate(0 -29)"/><path class="cls-17" d="M14.63,121.93a73.71,73.71,0,0,0,.92,10.81,3.34,3.34,0,0,0,.15.52c.23.44,1.52.22,3.19.51a.42.42,0,0,1,.3.08c.84.15,4-.3,7.46-.89,5.32-1,11.4-2.28,11.55-2.72-.45-2.65-2.73-6.1-3-9.78a47.77,47.77,0,0,1,.3-5.08l-.07-.29a8.13,8.13,0,0,1-1-2.21c-.23-1.18-.23-5.89-1.22-8.31a12.31,12.31,0,0,0-2.2-.67,41.93,41.93,0,0,1,.6,8.68.49.49,0,0,1-.45.52c-.76.07-2.28.29-3.35.29a.56.56,0,0,1-.53-.36c-.53-1.55-2.66-7.88-4.18-9a18.47,18.47,0,0,0-2.21.74c-.22.07-.53.22-.76.29s-.68.29-1,.44c0,0,4.34,5.37,3.65,9.2C22.16,118.18,15.32,121.56,14.63,121.93Z" transform="translate(0 -29)"/><path class="cls-19" d="M5.36,179.32a4,4,0,0,0,1.52.29c1.29,0,1.14-2.65,1.67-3.6a71,71,0,0,1,6.77-9.57,18.22,18.22,0,0,0,3-4,14.94,14.94,0,0,0,1-5.08c.3-4-.69-7.73-1.07-11.7a46.56,46.56,0,0,1,.08-7.28,16.65,16.65,0,0,0,.45-4.71,30.52,30.52,0,0,0-.76-5.15,2.78,2.78,0,0,1-.15-.81c-.61-2.43-.3-4.42,1.52-6.18,1-1,2.21-1.7,3.12-2.73,4-4.41,1.29-10.3-2.51-13.9-.38.15-.68.29-1,.44,0,0,4.34,5.37,3.65,9.2-.61,3.53-7.45,7-8.13,7.36a75.75,75.75,0,0,0,.91,10.81c-3.35,7.65-.53,12.29-.61,22.22,0,4.64.69,7.58-3.72,14.64C7.49,175.64,7.18,177,5.36,179.32Z" transform="translate(0 -29)"/><path class="cls-21" d="M33.72,115.23s-4.49,1.48-7.3.74c0,0,.68,5,4.64,4.41S33.72,115.23,33.72,115.23Z" transform="translate(0 -29)"/><path class="cls-19" d="M38,129.29a4.17,4.17,0,0,1,.46,2.57s-5.93,4.93-23.49,2.06c0,0,0-2,.45-2.43C15.39,131.49,27,133.19,38,129.29Z" transform="translate(0 -29)"/><path class="cls-22" d="M27.79,131.71a12.31,12.31,0,0,0,.38,1.92,4,4,0,0,0,.3,1,.78.78,0,0,0,.68.22,7.93,7.93,0,0,0,1.83-.37c.76-.15,1.52-.15,1.6-1a6.5,6.5,0,0,0-.46-2.65c-.08-.29-.38-.29-.61-.29a15.69,15.69,0,0,0-3.34.66C27.86,131.35,27.79,131.49,27.79,131.71Zm.83.22a18.45,18.45,0,0,1,2.81-.51,5.27,5.27,0,0,1,.31,1.55c.07.51.07.66-.46.8a3.61,3.61,0,0,1-.91.15,6.28,6.28,0,0,1-1.06.22c-.38-.07-.38-.44-.46-.81S28.7,132.38,28.62,131.93Z" transform="translate(0 -29)"/><path class="cls-23" d="M28.62,131.93a7.19,7.19,0,0,0,.31,1.4c.07.3.07.67.45.81a2.57,2.57,0,0,0,1.07-.22c.3-.07.6-.07.91-.15.53-.14.45-.29.45-.8a10.34,10.34,0,0,0-.3-1.55A11.86,11.86,0,0,0,28.62,131.93Z" transform="translate(0 -29)"/><path class="cls-24" d="M16.15,107.21a37,37,0,0,1,3.73,3,4,4,0,0,0-1.6-4.34C17.75,106.11,16.46,107,16.15,107.21Z" transform="translate(0 -29)"/><path class="cls-16" d="M8.17,133.11c5.78,1.25,13-1.47,16.65-3.16,1.44-.66,2.36-1.18,2.36-1.18.07-.22.68-2.87.68-2.87-.3-.07-9.58,1.25-14.07,1a5.65,5.65,0,0,1-2.12-.44c-.54-.3,1.59-4.64,3.19-6.11.68-.66,1.44-1.32,2.05-1.84a8.58,8.58,0,0,0,2.66-9.71,2.87,2.87,0,0,0-4.41-1.11,48.72,48.72,0,0,0-7.83,7.51.07.07,0,0,0-.07.07C2.77,120.38,2.54,131.86,8.17,133.11Z" transform="translate(0 -29)"/><path class="cls-25" d="M.41,182.26a.9.9,0,0,1-.38-.37c-.15-.44.23-.8.61-1.1,1.68-1.32,3.8-2.65,4.72-4.56a17,17,0,0,0,5.85,5.44,5,5,0,0,1-2.74,1.11c2.89,2.57,2.21,4.93,1.6,6.1C10.15,188.88,3.46,184.54.41,182.26Z" transform="translate(0 -29)"/><path class="cls-25" d="M32,188.62a1.37,1.37,0,0,1-.53-.08c-.35-.21-.24-.79-.09-1.21a14.63,14.63,0,0,0-.07-6.28,21,21,0,0,0,8.63-.39,11,11,0,0,1-2.29,4.26,10,10,0,0,1,3.84,1,4.44,4.44,0,0,1,2.41,3C43.91,188.85,35.82,188.8,32,188.62Z" transform="translate(0 -29)"/><path class="cls-23" d="M23.91,97.87a.55.55,0,0,0-.08-.22,1.47,1.47,0,0,1,.31-1.55.5.5,0,0,1,.53-.07c.68-.07.68.74.76,1.1.15.74.61,1.55.38,2.28a.91.91,0,0,1-1.14.67c-.61-.15-.53-.74-.76-1.18a1,1,0,0,1-.15-.81C23.83,98,23.91,97.94,23.91,97.87Z" transform="translate(0 -29)"/><path class="cls-26" d="M30.45,95.29s-1-3.16-3.8-2.72-2.74,3.53-2.74,3.53A15.06,15.06,0,0,0,29.15,96,2.5,2.5,0,0,0,30.45,95.29Z" transform="translate(0 -29)"/><path class="cls-27" d="M29.15,96a5.16,5.16,0,0,0-.83-3.16,1.16,1.16,0,0,0-.91-.52c-.69-.07-1.75,0-2.13.81,0,0,2,1.91,2,3.24C27.33,96.4,28.77,96.69,29.15,96Z" transform="translate(0 -29)"/><path class="cls-28" d="M23.91,96.1s4.94.52,6.54-.81l-.08-.22s-.91.67-6.46.81Z" transform="translate(0 -29)"/><path class="cls-26" d="M23.91,96.18a.24.24,0,0,0,.23.22,11.77,11.77,0,0,0,3.11.59c2.59.22,4.34-.45,4.34-.89s-1.14-.88-1.14-.88S29.69,96.1,23.91,96.18Z" transform="translate(0 -29)"/><path class="cls-11" d="M20,111.55s.3,3.76-2.13,6-3.35,3.09-3.35,3.09l.08,1.25s3.65-2.43,4.56-4.12A8.32,8.32,0,0,0,20,111.55Z" transform="translate(0 -29)"/><path class="cls-14" d="M22.24,137.38a1.21,1.21,0,0,1-1.45-1.32L54.4,102.14l1.44,1.32Z" transform="translate(0 -29)"/><path class="cls-29" d="M53.86,105.23l-1.14-1a1.14,1.14,0,0,1,0-1.62l3.42-3.46a1.23,1.23,0,0,1,1.68,0l1.14,1a1.14,1.14,0,0,1,0,1.62l-3.42,3.46A1.31,1.31,0,0,1,53.86,105.23Z" transform="translate(0 -29)"/><path class="cls-29" d="M69.53,97.87l-9.89-9.12L56.3,92.13l9.81,9.12c.45.37,1.52,0,2.43-1S69.91,98.24,69.53,97.87Z" transform="translate(0 -29)"/><path class="cls-24" d="M56.33,92.16c.42.39,1.52,0,2.45-1s1.34-2,.91-2.41-1.52,0-2.45,1S55.9,91.77,56.33,92.16Z" transform="translate(0 -29)"/><path class="cls-14" d="M58.73,99.93l-.68-.66.83-.81a.36.36,0,0,0,0-.52L53.1,92.57a.78.78,0,0,1,0-1.1l2.74-2.72a.83.83,0,0,1,1.14,0l1.52,1.39a.67.67,0,0,1-.68.67l-1.07-1a.37.37,0,0,0-.53,0l-2,2a.36.36,0,0,0,0,.52L60,97.65a.77.77,0,0,1,0,1.1Z" transform="translate(0 -29)"/><path class="cls-16" d="M26.8,128.55c.3.44.68.15,1.14.22s2,1.18,2.66,1c.83-.37-1-.81-.61-1.18.15-.15,2.66,1,2-.15-.16-.22-1.52-.88-.92-1,.61.14,1.9.73,2.06.14.07-.29-.61-.66-1-.8-1.9-.59-.91-.59.3-.15.61.22,1-.08.46-.59-1.07-1-3.2-.88-4.49-.37C27.78,125.83,26,127.59,26.8,128.55Z" transform="translate(0 -29)"/><path class="cls-16" d="M28.93,125.75a1.51,1.51,0,0,0,.53-.44,2.14,2.14,0,0,0,.61-.59c.15-.36-.23-.44-.54-.36-.53.14-1.36,1.17-1.67,1.54C27.79,126,28.7,125.83,28.93,125.75Z" transform="translate(0 -29)"/><path class="cls-16" d="M47.48,110.6a2.84,2.84,0,0,0,2.43.66c1.44-.51,1.6-1.91,1.29-3.16A2.58,2.58,0,0,0,49.68,106c-.45-.15-.76.07-.76.36s.31.45.38.59a1.9,1.9,0,0,1,.46,1.33c0,.59-.08.14-.15-.15s-.31-.59-.46-.81-1.14-1.25-1.75-1,.23,1.1.46,1.32.83,1,.83,1.26c0-.15-.3-.45-.38-.52a2.16,2.16,0,0,0-.76-.66c-.45-.15-1-.08-.91.37,0,.29.61.66.76.88s.23.29.38.44.15.29-.23,0c-.22-.15-.53-.29-.76-.44a.28.28,0,0,0-.38.07C46.11,109.57,47.1,110.3,47.48,110.6Z" transform="translate(0 -29)"/><path class="cls-16" d="M51.2,106.77a1.32,1.32,0,0,1,1.22-.81.6.6,0,0,1,.3,1c-.23.22-.53.37-.76.59a1.62,1.62,0,0,0-.45.66c-.08.22-.08.52-.16.74s-.6.51-.76.15A3,3,0,0,1,51.2,106.77Z" transform="translate(0 -29)"/><path class="cls-23" d="M25.43,99.34c0-.07-.08-.07-.08-.15-.3-.36.31-.81.61-.44a3,3,0,0,0,1.37,1,1.45,1.45,0,0,0,1.6-.44.38.38,0,0,1,.53.07c.45.52,1.75-.22,1.9.59a2.14,2.14,0,0,1-1.37,2c-2,.66-3.57-.74-4.71-2C25,99.71,25.12,99.41,25.43,99.34Z" transform="translate(0 -29)"/><path class="cls-18" d="M8.17,133.11c5.78,1.25,13-1.47,16.65-3.16-.07-.22-.3-.37-.68-.37-1.07-.22-2.74.59-3.88.74-1.6.29-3.19.59-4.87.81a23.49,23.49,0,0,1-5.55.29c-2.66-.29-3.49-2.43-3.57-4.71a20,20,0,0,1,2.21-9.64.31.31,0,0,0,.3-.29c.08-1.25-.68-1.62-1.52-1.55a.08.08,0,0,0-.08.08C2.77,120.38,2.55,131.86,8.17,133.11Z" transform="translate(0 -29)"/><path class="cls-16" d="M12,126.86a2.59,2.59,0,0,0,1.82,0,5.76,5.76,0,0,1-2.13-.44c-.53-.3,1.6-4.64,3.2-6.11a.37.37,0,0,0-.53-.07c-.08-.08-.23-.08-.38.07-1.22,1-2.67,2.36-3,3.9A2.11,2.11,0,0,0,12,126.86Z" transform="translate(0 -29)"/><path class="cls-20" d="M14.86,121.56c.61-.59,4.71-4.41,5.32-8.31.31-1.77-.3-6-2.51-6.48C14.1,106,9.31,111,6,114.79,7.49,118.25,10.83,120.53,14.86,121.56Z" transform="translate(0 -29)"/><path class="cls-14" d="M53.53,175.82s.15,2.77.31,5.85v.6c.15,3.68.39,7.66.39,7.66,0,.37,3,.68,7.44.68s7.45-.31,7.45-.68c0,0,.16-3.9.39-7.66v-.6c.16-3.08.31-5.85.31-5.85Z" transform="translate(0 -29)"/><path class="cls-30" d="M69.82,175.82a.07.07,0,0,1-.08.07h-.07c-.08,0-.08.08-.16.08s-.08,0-.16.07h-.07c-.08,0-.16.08-.31.08s-.24.07-.39.07-.39.08-.62.08-.47.07-.7.07c-.54.08-1.24.08-1.94.15a5,5,0,0,0-1.09.08H61.67c-1.62,0-3.18-.08-4.42-.15a21.82,21.82,0,0,1-3-.3c-.23-.08-.46-.08-.54-.15s-.23-.08-.23-.15c0-.23.93-.38,2.4-.53s3.49-.22,5.74-.22,4.27.07,5.75.22S69.82,175.59,69.82,175.82Z" transform="translate(0 -29)"/><path class="cls-31" d="M69.82,175.82a.07.07,0,0,1-.08.07h-.07c-.08,0-.08.08-.16.08s-.08,0-.16.07h-.07c-.08,0-.16.08-.31.08s-.24.07-.39.07-.39.08-.62.08-.47.07-.7.07c-.54.08-1.24.08-1.94.15a5,5,0,0,0-1.09.08H61.67c-1.62,0-3.18-.08-4.42-.15a21.82,21.82,0,0,1-3-.3c-.23-.08-.46-.08-.54-.15s-.23-.08-.23-.15c0-.23.93-.38,2.4-.53s3.49-.22,5.74-.22,4.27.07,5.75.22S69.82,175.59,69.82,175.82Zm-.78.07h.16a13.14,13.14,0,0,0-1.86-.22c-1.55-.16-3.57-.23-5.74-.23s-4.19.07-5.74.23a13.36,13.36,0,0,0-1.87.22c.08,0,.16.08.31.08a20.42,20.42,0,0,0,3,.3c1.32.07,2.87.15,4.42.15h1.4a20.41,20.41,0,0,0,2.25-.08,14.69,14.69,0,0,0,1.94-.15c.23,0,.47-.07.7-.07s.39-.08.62-.08A.79.79,0,0,0,69,176,.07.07,0,0,1,69,175.89Z" transform="translate(0 -29)"/><path class="cls-13" d="M53.84,181.6v.6a37.57,37.57,0,0,0,7.45.67,54.13,54.13,0,0,0,8.22-.67v-.6h-.08a47.45,47.45,0,0,1-15.59,0Z" transform="translate(0 -29)"/><path class="cls-13" d="M53.92,183.77v.6a35.61,35.61,0,0,0,7.37.68,52.82,52.82,0,0,0,8.14-.68v-.6h-.08a46.13,46.13,0,0,1-15.36,0Z" transform="translate(0 -29)"/><path class="cls-13" d="M69.12,176.12h.23a.56.56,0,0,0,.39-.75c-.08-.3-2.56-7.44-8.07-7.21s-7.83,6.91-7.91,7.13a.61.61,0,0,0,.39.75.63.63,0,0,0,.77-.37c0-.08,2.18-6.09,6.83-6.31s6.75,6.23,6.75,6.31A.59.59,0,0,0,69.12,176.12Z" transform="translate(0 -29)"/><path class="cls-20" d="M66.41,176.12s-2.56-2.26-4.5-2.33-5.2,2.33-5.2,2.33S63.92,176.42,66.41,176.12Z" transform="translate(0 -29)"/><path class="cls-16" d="M268.45,114l.22.23c2.84,2.88,8.32,1.94,11.1,1.09a7.56,7.56,0,0,0,1.49-.62c1.14-.78,4.34-7.31,0-7.39a9.31,9.31,0,0,0-2.7.93c-.57.23-1.21.55-1.71.78a12.87,12.87,0,0,1-2.06.78c-.71-.31,2.13-3.81,4.12-6.53a16.81,16.81,0,0,0,1.21-1.87c.36-.62.57-1.09.5-1.32,0,0-.07-2.1-.57-2.34a.48.48,0,0,0-.28.08c-.36.31-.79.62-1.14.93a39.86,39.86,0,0,0-4.84,4.44C270.23,107,266.6,111.55,268.45,114Z" transform="translate(0 -29)"/><path class="cls-32" d="M278.42,103l.07.08.21.24a18.39,18.39,0,0,0,1.21-1.87,1.1,1.1,0,0,0-.07-.47c.07-.23.07-.47.14-.62a4,4,0,0,0-.14-2.57.52.52,0,0,0-.29.08c-.35.31-.78.62-1.13.93-.08.7-.08,1.4-.15,2.1S277.92,102.37,278.42,103Z" transform="translate(0 -29)"/><path class="cls-32" d="M268.45,114l.22.23c2.84,2.88,8.32,1.94,11.1,1.09a7.06,7.06,0,0,0,.07-4.2c-.22-1-.43-2.49-1.28-2.88-.57.23-1.21.55-1.71.78a5.58,5.58,0,0,0-.36,1.94c0,1.56.5,3.43-1.28,3.89a4,4,0,0,1-2.13-.23c-.79-.16-1.5-.08-2.28-.23C269.87,114.35,269.16,114,268.45,114Z" transform="translate(0 -29)"/><path class="cls-33" d="M285.74,106.65a5.58,5.58,0,0,0-.14,1.86,1.33,1.33,0,0,0,.93,1.33,1.75,1.75,0,0,1,1.35.62,1.62,1.62,0,0,0,.42.31,2.44,2.44,0,0,0,1.29.23,12.19,12.19,0,0,0,2.27-.46,8,8,0,0,1,3.06.23,7.24,7.24,0,0,0,3.42.23c1-.23,1.07-.85,1.64-1.71s1.7-1.4,2-2.56a3.33,3.33,0,0,0-.29-2.34c-.28-.54-.78-.77-1.28-1.16-1-.78-1.06-1.56-1.63-2.65-.5-.93-2,.31-2.92-.08s-1.28-1.63-1.92-2.41-2.49-.31-3-1.16c-1-1.63-.57-4.2-2.21-3.73h-.21a4.78,4.78,0,0,0-2.85,4.35l-.14.16C284.89,101,284.68,103.69,285.74,106.65Z" transform="translate(0 -29)"/><path class="cls-16" d="M281.55,94.91c-.15-.39-.15-.86.14-1s.57.15.64.46v.7a1.92,1.92,0,0,0,.14.62,4.79,4.79,0,0,1,.36.55c.14.23,0,.54-.29.39A3.19,3.19,0,0,1,281.55,94.91Z" transform="translate(0 -29)"/><path class="cls-34" d="M279.21,100.44l3.41,2.41,3.67-6.21-3.4-2.41Z" transform="translate(0 -29)"/><path class="cls-34" d="M283.18,94.05l2,1.4-.15.31-1-.7-.71-.46a.53.53,0,0,0-.72.15l-2.91,5a.62.62,0,0,0,.14.77l1.71,1.25-.36.62-2-1.4a.62.62,0,0,1-.14-.78l3.48-5.91A.41.41,0,0,1,283.18,94.05Z" transform="translate(0 -29)"/><path class="cls-35" d="M282.62,94.36l-3.49,5.91a.67.67,0,0,0,.14.78l2.85,2a.52.52,0,0,0,.71-.15L286.32,97a.64.64,0,0,0-.15-.78l-2.84-2A.52.52,0,0,0,282.62,94.36Zm-.36,7.86-2.35-1.64a.64.64,0,0,1-.14-.77l2.92-5a.53.53,0,0,1,.71-.16l.71.47v.16a.31.31,0,0,0,.07.23l.57.39c.07.08.14,0,.21,0l.08-.08.71.47a.64.64,0,0,1,.14.77l-2.92,5A.42.42,0,0,1,282.26,102.22Z" transform="translate(0 -29)"/><path class="cls-34" d="M280.48,101.59l.71.55c.07.08.14,0,.21-.08s0-.16-.07-.23l-.71-.55c-.07-.07-.14,0-.21.08S280.41,101.59,280.48,101.59Z" transform="translate(0 -29)"/><path class="cls-36" d="M284.82,95.76a.07.07,0,0,0,.07-.08.07.07,0,0,0-.14,0A.07.07,0,0,0,284.82,95.76Z" transform="translate(0 -29)"/><path class="cls-36" d="M284.32,95.37l.29.16h.07v-.08l-.29-.16h-.07Z" transform="translate(0 -29)"/><path class="cls-17" d="M289.45,139.15c-.22.63-.43,1.17-.65,1.79-.28.86-.63,1.71-.92,2.57-.14.31-.21.7-.36,1s-.21.7-.35,1c-.36,1.09-.78,2.26-1.07,3.27-.07.23-.14.39-.21.62-.15.62-.29,1.17-.43,1.71a1.1,1.1,0,0,0-.07.47c0,.08-.07.23-.07.31s-.07.31-.07.47-.07.38-.07.62-.07.77-.07,1.24c0,.24-.08.39-.08.62-.28,3.19-1.14,7.16-1.7,10.89a11.26,11.26,0,0,1-1.64-.08,46,46,0,0,1-.14,6.23c0,.15,0,.23-.07.31a5.38,5.38,0,0,0,1.13-.08c0,4.27.29,9.33.07,10v.08l-2.84-.31-2.21-.23c-.42-2.73-.92-6.38-1.35-10.27-.28-2.49-.57-5-.85-7.47-.43-4.12-.72-7.93-.72-10.81,0-7.38.72-21.07,5-26.36,2.13-2.56,5.05-.54,7.33,2,1.77,1.94,3.13,4.12,3.63,4.66S290.44,136.2,289.45,139.15Z" transform="translate(0 -29)"/><path class="cls-19" d="M289.3,139.08a.29.29,0,0,0-.35,0,4.89,4.89,0,0,0-1.71-1.56,1.62,1.62,0,0,0-2.35.86c-.64,1.16.07,2.49.15,3.65.14,2.34-1.21,4.51-2.07,6.61-2.2,5.45-1.49,11.28-1.28,17,.57,0,1.07.08,1.64.08h.78c.36-3.73.71-7.62,1-10.89,0-.23.07-.38.07-.62,0-.47.07-.85.07-1.24a2.1,2.1,0,0,1,.07-.62c0-.16.07-.32.07-.47a.51.51,0,0,1,.07-.31c0-.16.07-.31.07-.47.15-.54.29-1.09.43-1.71.07-.23.14-.39.21-.62.29-1,.72-2.1,1.07-3.27.14-.31.21-.7.36-1s.21-.7.35-1c.29-.86.64-1.71.93-2.57.21-.62.42-1.24.64-1.79A.27.27,0,0,0,289.3,139.08Zm-7.75,33c-.5,3.81-2,5.67-1.71,9.72l2.85.31v-.08c.28-.54.14-3.81.71-10-.29,0-.5.08-.78.08Z" transform="translate(0 -29)"/><path class="cls-20" d="M285.67,110.69c-.14,1.17-1.92,2.57-3.56,4a17.59,17.59,0,0,0-1.56,1.55l-.21.24c-2.21-1.25-3.14-4.51-2.78-8.79a11.58,11.58,0,0,1,4.34-3,12.23,12.23,0,0,1,1.57-.55,12.91,12.91,0,0,1,4.41-.54C290.44,103.77,285.82,109.29,285.67,110.69Z" transform="translate(0 -29)"/><path class="cls-24" d="M283.26,104.55c-.22.16-1.36,2.56-1.86,3.34a10.62,10.62,0,0,0,.22,5.76,7.28,7.28,0,0,1,.43,1,16.5,16.5,0,0,0-1.57,1.55c-.5-2.25-1.57-5.21-1-7.38a10,10,0,0,1,2.28-4.12,12.23,12.23,0,0,1,1.57-.55A.23.23,0,0,1,283.26,104.55Z" transform="translate(0 -29)"/><path class="cls-17" d="M308.45,179.67c0,.23-.64.7-1.35,1.24-.86.63-1.78,1.25-1.78,1.25-2.42-1.48-5.84-5.21-8.9-9.57a57.63,57.63,0,0,1-3.77-5.91c-1.71-3.18-3-6.22-3.2-8.63-.5-4.43-1.07-9.72-1.57-14.62-.21-2.17-.43-4.2-.64-6.06-.5-4.75-.78-8.09-.71-8.25s.35-.39.5-.54c2.7-2.41,8.54-3.42,8.68-3.19.78,1.4,2.84,3.5,3.27,4.67.22.54.36,1,.57,1.55,2.28,7.23,0,12,0,21.93V154a18.13,18.13,0,0,0,1.57,6.53,16.16,16.16,0,0,1-.93,1.4c.36.93.79,1.79,1.21,2.72a26,26,0,0,1,1.28,3.19,4.13,4.13,0,0,0,.64-1.09,24.51,24.51,0,0,1,.79,2.72c1.28,4.44,3.27,7.24,4.19,9.57A3.08,3.08,0,0,1,308.45,179.67Z" transform="translate(0 -29)"/><path class="cls-20" d="M298.7,129.36c-8.05,3.88-20.36-.47-20.36-.47a99.72,99.72,0,0,1,3.92-10c.07-.08.07-.16.14-.31a.32.32,0,0,0,.07-.24,3.3,3.3,0,0,0-.28-3.5l-1.28-1.63a5.31,5.31,0,0,1-1.07-2.88,6.31,6.31,0,0,1,2.77-5c.57-.39,1.21-.78,1.78-1.09a33.4,33.4,0,0,1,3.28-1.55,20.3,20.3,0,0,1,3.13,0,8.45,8.45,0,0,1,2.2.46c5,1.71,3.14,7.23,2.21,12a13.9,13.9,0,0,0-.21,1.55c0,.24-.08.55-.08.78a8.47,8.47,0,0,0,.15,1.94C295,123.29,297.63,127,298.7,129.36Z" transform="translate(0 -29)"/><path class="cls-24" d="M292.36,113.8a13.07,13.07,0,0,0,2.63,3.66,2.56,2.56,0,0,1,.08-.78c.07-.47.14-1,.21-1.56a7.5,7.5,0,0,0-1.57-2.17c-2.06-2.1-1.85-7.39-1.85-7.39C291.37,108.2,291.58,112.17,292.36,113.8Z" transform="translate(0 -29)"/><path class="cls-16" d="M286.53,101.05v2.18s-.57,1.09,0,1.16c1.21.24,2.91-1.78,2.91-1.78V99.73Z" transform="translate(0 -29)"/><path class="cls-32" d="M289.44,101.59V99.88a5.58,5.58,0,0,1-2.92,1.64S288.23,102.45,289.44,101.59Z" transform="translate(0 -29)"/><path class="cls-16" d="M285.82,94.6a18.48,18.48,0,0,0-1.36,4.58c-.21,1.56,2.43,3.66,4.56,1.4s1.56-5.6,1.56-5.6Z" transform="translate(0 -29)"/><path class="cls-19" d="M308.45,179.59a2.73,2.73,0,0,0-.15-.46c-.71-1.87-2.91-7.08-4.91-12.45,0,.08-.07.08-.07.16a10.83,10.83,0,0,1-.64,1.09c1.85,5,3.92,12.52,4.42,13,.71-.38,1.42-.85,1.35-1.32Zm-8.9-26c-.07-9.8,2.21-14.7,0-21.93-.92,1-1.14,3.58-1.28,4.59a69.56,69.56,0,0,0-.21,13.92c0,.46-.07,1-.07,1.48a25.09,25.09,0,0,0,2.2,10.34,6.68,6.68,0,0,0,.93-1.4c0-.08.07-.08.07-.16a36.32,36.32,0,0,1-1.64-6.37Z" transform="translate(0 -29)"/><path class="cls-16" d="M279.62,97.39c-.28-.46.15-.93.5-.77-.07-.31.21-.7.5-.62-.21-.39.21-.94.57-.63a2.34,2.34,0,0,1,.92,1.64c0,.23-.21.54-.42.54l.07.08c.28.46-.36,1.09-.64.62a.43.43,0,0,1-.64.23c0,.39-.5.7-.71.31-.15-.23-.29-.38-.43-.62A.64.64,0,0,1,279.62,97.39Z" transform="translate(0 -29)"/><path class="cls-23" d="M284.82,94.52c.14-.08.36-.08.5-.24.42-.31.28-.46.5-.77a1.56,1.56,0,0,1,.71-.55A4.58,4.58,0,0,1,289,93a.42.42,0,0,1,.21.55c.79.15.57,1.16.86,1.71.64,1.09,1.85,2.72,1.14,3.89-.5.85-1.5,1.55-2.07.46a4.65,4.65,0,0,1-.28-2.64V96a2.13,2.13,0,0,0-1.64-1.09c-.14.15-.29.46-.43.62a3.14,3.14,0,0,1-.78.62,1.21,1.21,0,0,1-1.49-.23A1,1,0,0,1,284.82,94.52Z" transform="translate(0 -29)"/><path class="cls-32" d="M288.66,97.16s.86-.46,1,.31-.43,1.17-.78,1.09A1.39,1.39,0,0,1,288.66,97.16Z" transform="translate(0 -29)"/><path class="cls-17" d="M298.7,129.36c-8.05,3.88-20.36-.47-20.36-.47a99.72,99.72,0,0,1,3.92-10c.07-.08.07-.16.14-.31a.32.32,0,0,0,.07-.24,3.38,3.38,0,0,0,.21-1.86,13.6,13.6,0,0,0-.49-1.56,11.27,11.27,0,0,1,.42-9.56,4,4,0,0,1,1-1.25,1.88,1.88,0,0,1,1-.23l-.15.31c-.64,1.4-2.7,6.22-.57,8.63a3.24,3.24,0,0,0,3.35.24c2.13-1.64,2.13-9.26,3.56-10.42a2.94,2.94,0,0,1,2.2.46s-3.06,1.56-1.63,11.28a5.65,5.65,0,0,0,3.7,4.9C295,123.29,297.63,127,298.7,129.36Z" transform="translate(0 -29)"/><path class="cls-21" d="M283.75,115.36s2.92.39,4.48-.62c0,0,.57,4.12-1.92,4.27S283.75,115.36,283.75,115.36Z" transform="translate(0 -29)"/><path class="cls-13" d="M290,95.84a2.13,2.13,0,0,1,.92,1.17s1.64-3.5-1.56-4.59-5.13,1.55-4.56,2.8C284.82,95.14,286,93.51,290,95.84Z" transform="translate(0 -29)"/><path class="cls-37" d="M290,95.84s-2.49-1.79-3.28-2.49c-1.85-1.87-3-1.94-3.41-.78-.86,2,1.85,3,1.85,3S285.6,93.74,290,95.84Z" transform="translate(0 -29)"/><path class="cls-38" d="M289.52,92.73a.31.31,0,0,0,0-.62.31.31,0,0,0,0,.62Z" transform="translate(0 -29)"/><path class="cls-39" d="M311.44,181.62a.94.94,0,0,0,.35-.39c.14-.47-.21-.86-.57-1.17-1.56-1.4-3.55-2.8-4.41-4.82a17,17,0,0,1-5.48,5.75,4.35,4.35,0,0,0,2.56,1.17c-2.7,2.72-2.06,5.21-1.49,6.45C302.33,188.61,308.52,184,311.44,181.62Z" transform="translate(0 -29)"/><path class="cls-39" d="M282,187.52c.14,0,.36.08.5,0,.36-.15.36-.77.29-1.24a17.09,17.09,0,0,1,1.06-6.53,17.61,17.61,0,0,1-7.9-1.87,12.48,12.48,0,0,0,1.43,4.82,8.6,8.6,0,0,0-3.7.39,4.48,4.48,0,0,0-2.71,2.72S278.41,187.06,282,187.52Z" transform="translate(0 -29)"/><path class="cls-16" d="M284.61,121.89s.57,2.57.57,2.72a18.83,18.83,0,0,0,2,1.09c3.06,1.56,10.18,3.19,15,2s3.63-11.12-.21-16l-.07-.07c-3-3.89-6.33,3.73-5.76,4.35.21.23.42.55.71.93,1.21,1.87,2.49,5.06,2.13,5.29a8.38,8.38,0,0,1-2.56.62,36.65,36.65,0,0,1-5.62-.23C287.74,122.28,284.75,121.89,284.61,121.89Z" transform="translate(0 -29)"/><path class="cls-32" d="M290.94,123.06c2.21,1.55,6.41,2.18,8.82.77,2.71-1.47.08-5-1.13-7a.42.42,0,0,0-.36-.63h-.07c-.14,0-.29,0-.36.08a6.7,6.7,0,0,0-1.06.55c1.2,1.86,2.49,5,2.13,5.28a8.42,8.42,0,0,1-2.56.63,36.74,36.74,0,0,1-5.62-.24C290.8,122.75,290.8,123,290.94,123.06Z" transform="translate(0 -29)"/><path class="cls-20" d="M296.42,117.77c-.57-.55-4.06-4.43-4.63-8.09-.21-1.63-.49-5.44,1.36-5.91,3.06-.78,7,4,9.89,7.7A9.85,9.85,0,0,1,296.42,117.77Z" transform="translate(0 -29)"/><path class="cls-40" d="M270.59,111.7a106.58,106.58,0,0,1,14.66,25.43s3.91-.62,5.62-3.57c0,0-12.81-16.65-14.23-26.91C276.64,106.73,270.16,107.19,270.59,111.7Z" transform="translate(0 -29)"/><path class="cls-20" d="M276.14,107.66a5.92,5.92,0,0,0-2.28.62,3.43,3.43,0,0,0-1.64,1.4,2.52,2.52,0,0,0-.42,1,1.3,1.3,0,0,0-.07.47v.08l-.08-.16c-.07,0,.08,0,.22-.08l.43-.23a7.82,7.82,0,0,0,.92-.62,18.14,18.14,0,0,0,1.78-1.48c.14-.15.28-.23.36-.39s.07-.15.07-.08v.32c0,.07,0,.07.07.15s.07.08.14.16l.07.07h.07a2.9,2.9,0,0,0-1.07.24,5,5,0,0,0-1.06.39,5.36,5.36,0,0,0-.93.46l-.07.08s0,.08.07.08a.31.31,0,0,0,.36.08,2.49,2.49,0,0,0,1-.55,2.17,2.17,0,0,1-.92.93.75.75,0,0,1-.71,0c-.07-.07-.14-.07-.14-.15a.56.56,0,0,1-.15-.31.72.72,0,0,1,.22-.47,4.94,4.94,0,0,1,1.06-.85,5.23,5.23,0,0,1,1.14-.55,7.08,7.08,0,0,1,1.28-.39h.07c0-.23.07-.23.22-.23l.14.16c.07,0,.07.07.14.15a.27.27,0,0,1,.07.16v.15c0,.16,0,.24-.07.31a.83.83,0,0,1-.21.39,3.76,3.76,0,0,1-.43.55,15.18,15.18,0,0,1-1.92,1.71l-1.07.7a2.24,2.24,0,0,1-.64.23c-.14,0-.21.08-.35.08a1.76,1.76,0,0,1-.57-.08.89.89,0,0,1-.5-.54,1.71,1.71,0,0,1-.07-.55,2.58,2.58,0,0,1,.14-.78,2.7,2.7,0,0,1,.71-1.24,4,4,0,0,1,2.21-1.4A6.16,6.16,0,0,1,276.14,107.66Z" transform="translate(0 -29)"/><path class="cls-16" d="M284.18,121.58c-1.07-.47-2.85-.62-3.77.39-.43.46-.15.78.35.62,1.07-.39,1.85-.39.29.16-.29.07-.93.46-.86.77.14.55,1.21,0,1.78-.15.43.08-.64.7-.78.93-.57,1.09,1.57,0,1.71.16.35.31-1.21.78-.5,1.16.5.24,1.78-.77,2.21-.85s.71.15.92-.23C286.1,123.45,284.61,121.74,284.18,121.58Z" transform="translate(0 -29)"/><path class="cls-16" d="M284.61,121.89a5.47,5.47,0,0,0-1.43-1.48c-.21-.07-.57,0-.42.31a1.17,1.17,0,0,0,.49.55,1.47,1.47,0,0,0,.5.39C283.89,121.81,284.61,122,284.61,121.89Z" transform="translate(0 -29)"/><path class="cls-41" d="M281.69,165.6a14.61,14.61,0,0,1-6.26-1.72q.31,3.74.85,7.47a12.25,12.25,0,0,0,5.27.78.49.49,0,0,1,.07-.31A61.46,61.46,0,0,0,281.69,165.6Z" transform="translate(0 -29)"/><path class="cls-42" d="M284,165.67c-.22,2.1-.43,4.05-.57,5.84a1.46,1.46,0,0,1-.07.54c-.29,0-.5.08-.79.08s-.78.08-1.13.08a.54.54,0,0,1,.07-.32,45.85,45.85,0,0,0,.14-6.22c.57,0,1.07.08,1.64.08A2.13,2.13,0,0,1,284,165.67Z" transform="translate(0 -29)"/><path class="cls-41" d="M301.4,164.82c-.43-.94-.85-1.79-1.21-2.72a10.53,10.53,0,0,1-3.2,2.64,31.49,31.49,0,0,1-4.34,2,57,57,0,0,0,3.77,5.91,16.63,16.63,0,0,0,5.62-3.89,6.53,6.53,0,0,0,.64-.77A26.29,26.29,0,0,0,301.4,164.82Z" transform="translate(0 -29)"/><path class="cls-42" d="M303.4,166.68c0,.08-.07.08-.07.16-.22.39-.43.78-.65,1.09a25.36,25.36,0,0,0-1.28-3.19c-.42-.93-.85-1.79-1.21-2.72a6.68,6.68,0,0,0,.93-1.4c0-.08.07-.08.07-.16C301.83,162.49,302.61,164.58,303.4,166.68Z" transform="translate(0 -29)"/><path class="cls-14" d="M249.81,187.73H250a1,1,0,0,0,.79-1.18L246,149.71a1,1,0,0,0-1.08-.88,1,1,0,0,0-.8,1.18l4.75,36.79A1,1,0,0,0,249.81,187.73Z" transform="translate(0 -29)"/><path class="cls-14" d="M264.84,187.73H265a1,1,0,0,0,.8-1.18L261,149.71a1,1,0,0,0-1.08-.88,1,1,0,0,0-.8,1.18l4.74,36.79A1,1,0,0,0,264.84,187.73Z" transform="translate(0 -29)"/><path class="cls-14" d="M249,179.57H264v2.05H249Z" transform="translate(0 -29)"/><path class="cls-14" d="M248,172.13H263.1v2.05H248Z" transform="translate(0 -29)"/><path class="cls-14" d="M247,164.69h15.08v2.05H247Z" transform="translate(0 -29)"/><path class="cls-14" d="M246.1,157.25h15.08v2.05H246.1Z" transform="translate(0 -29)"/><path class="cls-31" d="M245.17,149.81h15.07v2.05H245.17Z" transform="translate(0 -29)"/><path class="cls-13" d="M255,187.73a1,1,0,0,0,.94-.88L260.66,150a1,1,0,0,0-.8-1.18,1,1,0,0,0-1.08.87L254,186.54a1,1,0,0,0,.8,1.19C254.89,187.67,254.93,187.73,255,187.73Z" transform="translate(0 -29)"/><path class="cls-13" d="M240,187.73a1,1,0,0,0,.94-.88L245.64,150a1,1,0,0,0-.8-1.18,1,1,0,0,0-1.08.87L239,186.54a1,1,0,0,0,.8,1.19C239.86,187.67,239.91,187.73,240,187.73Z" transform="translate(0 -29)"/><path class="cls-13" d="M240.75,179.57h15.07v2.05H240.75Z" transform="translate(0 -29)"/><path class="cls-13" d="M241.69,172.13h15.07v2.05H241.69Z" transform="translate(0 -29)"/><path class="cls-13" d="M242.63,164.69H257.7v2.05H242.63Z" transform="translate(0 -29)"/><path class="cls-13" d="M243.62,157.25h15.07v2.05H243.62Z" transform="translate(0 -29)"/><path class="cls-43" d="M244.56,149.81h15.07v2.05H244.56Z" transform="translate(0 -29)"/><path class="cls-14" d="M244.46,153.24H261a1.7,1.7,0,0,0,1.64-1.79v-3.8a1.71,1.71,0,0,0-1.64-1.79H244.46a1.71,1.71,0,0,0-1.64,1.79v3.8A1.74,1.74,0,0,0,244.46,153.24Z" transform="translate(0 -29)"/><path class="cls-13" d="M242.77,153.24h16.58a1.7,1.7,0,0,0,1.64-1.79v-3.8a1.71,1.71,0,0,0-1.64-1.79H242.77a1.71,1.71,0,0,0-1.64,1.79v3.8A1.74,1.74,0,0,0,242.77,153.24Z" transform="translate(0 -29)"/></svg>