<svg id="Layer_1" data-name="Layer 1" xmlns="http://www.w3.org/2000/svg" viewBox="0 0 869.09 321.3"><defs><style>.cls-1,.cls-24,.cls-6{fill:#fff;}.cls-1,.cls-6{stroke:#e6e6e6;}.cls-1{stroke-width:0.54px;}.cls-2{fill:#777;}.cls-3,.cls-7{fill:none;stroke:#f4f4f4;}.cls-3{stroke-width:0.63px;}.cls-4{fill:#373737;}.cls-5{fill:#c4c4c4;}.cls-6{stroke-width:0.86px;}.cls-8{fill:#87d2fd;}.cls-23,.cls-24,.cls-8{fill-rule:evenodd;}.cls-9{fill:#ffc1c5;}.cls-10{fill:#252525;}.cls-11{fill:#f8b5ba;}.cls-12{fill:#acdcff;}.cls-13{fill:#96caf0;}.cls-14{fill:#441fd8;}.cls-15{fill:#32187c;}.cls-16{fill:#1f0d52;}.cls-17{fill:#ffaea7;}.cls-18{fill:#ea7a70;}.cls-19{fill:#edf3ff;}.cls-20,.cls-22{fill:#e89a9f;}.cls-20{fill-opacity:0.3;}.cls-21{fill:#d3e7ec;}.cls-23{fill:#453286;}</style></defs><rect class="cls-1" x="46.27" y="52.27" width="606.46" height="267.46" rx="5.12"/><path d="M73.58,138.59v4.51H70.94V130.3h5a5.75,5.75,0,0,1,2.53.53,3.81,3.81,0,0,1,1.69,1.5,4.2,4.2,0,0,1,.59,2.21,3.69,3.69,0,0,1-1.29,3,5.37,5.37,0,0,1-3.56,1.08Zm0-2.13h2.35a2.28,2.28,0,0,0,1.59-.5,1.77,1.77,0,0,0,.56-1.4,2.09,2.09,0,0,0-.56-1.52,2,2,0,0,0-1.52-.6H73.58ZM87.74,136a8.36,8.36,0,0,0-.92-.07,1.87,1.87,0,0,0-1.89,1v6.22H82.39v-9.51h2.4l.07,1.13A2.36,2.36,0,0,1,87,133.41a2.52,2.52,0,0,1,.79.12Zm.52,2.29a5.63,5.63,0,0,1,.54-2.52A4,4,0,0,1,90.37,134a4.6,4.6,0,0,1,2.38-.61,4.31,4.31,0,0,1,3.13,1.18,4.73,4.73,0,0,1,1.37,3.2v.65A5,5,0,0,1,96,142a4.74,4.74,0,0,1-6.56,0,5.06,5.06,0,0,1-1.22-3.59Zm2.54.18a3.59,3.59,0,0,0,.51,2.08,1.68,1.68,0,0,0,1.45.71,1.71,1.71,0,0,0,1.45-.71,3.93,3.93,0,0,0,.51-2.26,3.56,3.56,0,0,0-.51-2.06,1.69,1.69,0,0,0-1.46-.73,1.65,1.65,0,0,0-1.44.73A3.92,3.92,0,0,0,90.8,138.44Zm16.59,0a5.71,5.71,0,0,1-1,3.53,3.19,3.19,0,0,1-2.69,1.32,3,3,0,0,1-2.33-1v4.49H98.83V133.59h2.35l.09.93a3,3,0,0,1,2.41-1.11,3.23,3.23,0,0,1,2.73,1.3,5.89,5.89,0,0,1,1,3.59Zm-2.54-.18a3.77,3.77,0,0,0-.47-2.05,1.54,1.54,0,0,0-1.37-.72,1.68,1.68,0,0,0-1.64.91v3.9a1.7,1.7,0,0,0,1.66.94C104.24,141.23,104.85,140.24,104.85,138.25Zm3.73,0a5.63,5.63,0,0,1,.54-2.52,4,4,0,0,1,1.57-1.72,4.63,4.63,0,0,1,2.38-.61,4.35,4.35,0,0,1,3.14,1.18,4.77,4.77,0,0,1,1.36,3.2v.65a5,5,0,0,1-1.22,3.52,4.74,4.74,0,0,1-6.56,0,5.06,5.06,0,0,1-1.22-3.59Zm2.54.18a3.59,3.59,0,0,0,.51,2.08,1.68,1.68,0,0,0,1.45.71,1.71,1.71,0,0,0,1.45-.71,3.93,3.93,0,0,0,.51-2.26,3.56,3.56,0,0,0-.51-2.06,1.69,1.69,0,0,0-1.46-.73,1.65,1.65,0,0,0-1.44.73A3.92,3.92,0,0,0,111.12,138.44Zm13.18,2a.82.82,0,0,0-.47-.73,5,5,0,0,0-1.47-.48c-2.26-.47-3.4-1.44-3.4-2.88a2.59,2.59,0,0,1,1.05-2.11,4.23,4.23,0,0,1,2.75-.86,4.52,4.52,0,0,1,2.89.86,2.66,2.66,0,0,1,1.09,2.21H124.2a1.18,1.18,0,0,0-.35-.89,1.47,1.47,0,0,0-1.1-.36,1.52,1.52,0,0,0-1,.28,1,1,0,0,0-.35.74.8.8,0,0,0,.39.69,4.33,4.33,0,0,0,1.36.45,10.44,10.44,0,0,1,1.6.42,2.62,2.62,0,0,1,2,2.56,2.49,2.49,0,0,1-1.12,2.11,4.83,4.83,0,0,1-2.88.8,5.13,5.13,0,0,1-2.13-.43,3.52,3.52,0,0,1-1.45-1.17,2.7,2.7,0,0,1-.52-1.6h2.4a1.33,1.33,0,0,0,.5,1,2,2,0,0,0,1.25.36,1.84,1.84,0,0,0,1.1-.27A.88.88,0,0,0,124.3,140.47Zm9.62,2.63a3,3,0,0,1-.25-.85,3.11,3.11,0,0,1-2.4,1,3.38,3.38,0,0,1-2.32-.81,2.6,2.6,0,0,1-.91-2,2.69,2.69,0,0,1,1.11-2.32,5.58,5.58,0,0,1,3.25-.82h1.16v-.54a1.57,1.57,0,0,0-.34-1.06,1.33,1.33,0,0,0-1.06-.4,1.54,1.54,0,0,0-1,.31,1.07,1.07,0,0,0-.36.85h-2.54a2.56,2.56,0,0,1,.51-1.53,3.31,3.31,0,0,1,1.44-1.1,5.2,5.2,0,0,1,2.09-.41,4.11,4.11,0,0,1,2.78.89,3.05,3.05,0,0,1,1,2.48v4.12a4.55,4.55,0,0,0,.38,2v.15Zm-2.1-1.77a2.27,2.27,0,0,0,1-.24,1.64,1.64,0,0,0,.7-.68v-1.63h-.95c-1.27,0-1.94.43-2,1.31v.15a1,1,0,0,0,.34.79A1.31,1.31,0,0,0,131.82,141.33Zm8.92,1.77H138.2V129.6h2.54Zm6.75,0V130.3H152a5.84,5.84,0,0,1,3.53.9,3,3,0,0,1,1.2,2.61,2.92,2.92,0,0,1-.48,1.66,2.82,2.82,0,0,1-1.34,1.05,2.64,2.64,0,0,1,1.54,1,2.94,2.94,0,0,1,.57,1.83,3.37,3.37,0,0,1-1.17,2.79,5.27,5.27,0,0,1-3.36,1Zm2.64-5.57V141h2.26a2.15,2.15,0,0,0,1.45-.44,1.54,1.54,0,0,0,.53-1.23,1.6,1.6,0,0,0-1.82-1.78Zm0-1.87h2c1.33,0,2-.55,2-1.59a1.43,1.43,0,0,0-.51-1.24,2.62,2.62,0,0,0-1.59-.39h-1.85Zm14.39,6.47a3.18,3.18,0,0,1-2.6,1.15,3,3,0,0,1-2.34-.88,3.8,3.8,0,0,1-.82-2.58v-6.23h2.54v6.14c0,1,.45,1.49,1.35,1.49a1.83,1.83,0,0,0,1.78-.9v-6.73H167v9.51h-2.39Zm7.06,1H169v-9.51h2.55Zm-2.7-12a1.22,1.22,0,0,1,.38-.94,1.41,1.41,0,0,1,1-.37,1.42,1.42,0,0,1,1,.37,1.23,1.23,0,0,1,.39.94,1.26,1.26,0,0,1-.4,1,1.46,1.46,0,0,1-1,.37,1.5,1.5,0,0,1-1-.37A1.28,1.28,0,0,1,168.88,131.13Zm7.48,12h-2.55V129.6h2.55Zm1.7-4.83a5.7,5.7,0,0,1,1-3.54,3.22,3.22,0,0,1,2.73-1.32,2.91,2.91,0,0,1,2.29,1V129.6h2.55v13.5h-2.29l-.13-1a3,3,0,0,1-2.44,1.19,3.24,3.24,0,0,1-2.7-1.32A6,6,0,0,1,178.06,138.27Zm2.54.19a3.77,3.77,0,0,0,.47,2,1.52,1.52,0,0,0,1.35.71,1.69,1.69,0,0,0,1.66-1v-3.76a1.66,1.66,0,0,0-1.64-1C181.21,135.48,180.6,136.47,180.6,138.46ZM193,143.28a4.66,4.66,0,0,1-3.41-1.29,4.53,4.53,0,0,1-1.31-3.42v-.24a5.7,5.7,0,0,1,.55-2.56,4,4,0,0,1,1.57-1.74,4.4,4.4,0,0,1,2.32-.62,3.89,3.89,0,0,1,3.06,1.24,5,5,0,0,1,1.13,3.48v1h-6.06a2.39,2.39,0,0,0,.74,1.5,2.29,2.29,0,0,0,1.58.56,2.75,2.75,0,0,0,2.29-1.07l1.25,1.4a3.9,3.9,0,0,1-1.55,1.27A5.09,5.09,0,0,1,193,143.28Zm-.29-7.81a1.58,1.58,0,0,0-1.23.51,2.69,2.69,0,0,0-.6,1.46h3.53v-.2a1.86,1.86,0,0,0-.45-1.3A1.65,1.65,0,0,0,192.69,135.47Zm11,.5a8.2,8.2,0,0,0-.91-.07,1.87,1.87,0,0,0-1.89,1v6.22h-2.54v-9.51h2.4l.07,1.13a2.35,2.35,0,0,1,2.12-1.31,2.56,2.56,0,0,1,.79.12Z" transform="translate(0 -50)"/><path d="M99.34,184.64h-.77l-2.89-4.43v4.43h-.77v-5.75h.77l2.9,4.45v-4.45h.76Zm1.37.5h-.62l2.4-6.25h.62Zm6.49-2h-2.41l-.54,1.5h-.79l2.2-5.75h.66l2.21,5.75h-.78Zm-2.18-.62h2l-1-2.7Z" transform="translate(0 -50)"/><path d="M143.08,174.23l1.6,4.51,1.59-4.51H148v6.23h-1.29v-1.71l.13-2.94-1.68,4.65h-.89l-1.67-4.64.12,2.93v1.71H141.4v-6.23Zm8.6,6.23a1.4,1.4,0,0,1-.12-.42,1.48,1.48,0,0,1-1.17.5,1.67,1.67,0,0,1-1.13-.39,1.25,1.25,0,0,1-.45-1,1.3,1.3,0,0,1,.55-1.13,2.61,2.61,0,0,1,1.58-.4h.57v-.27a.77.77,0,0,0-.17-.51.64.64,0,0,0-.52-.19.74.74,0,0,0-.49.15.5.5,0,0,0-.18.41h-1.23a1.29,1.29,0,0,1,.24-.75,1.68,1.68,0,0,1,.71-.53,2.54,2.54,0,0,1,1-.2,2,2,0,0,1,1.35.43,1.5,1.5,0,0,1,.51,1.21v2a2.13,2.13,0,0,0,.18,1v.08Zm-1-.86a1.06,1.06,0,0,0,.5-.12.8.8,0,0,0,.35-.33v-.8H151c-.61,0-.94.22-1,.64v.08a.49.49,0,0,0,.16.38A.64.64,0,0,0,150.66,179.6Zm4.18-3.77,0,.53a1.62,1.62,0,0,1,1.33-.62,1.33,1.33,0,0,1,1.09.43,2.05,2.05,0,0,1,.37,1.3v3h-1.24v-3a.64.64,0,0,0-.74-.75.86.86,0,0,0-.78.44v3.27h-1.24v-4.63Zm6.55,4.16a1.56,1.56,0,0,1-1.27.55,1.48,1.48,0,0,1-1.14-.42,1.88,1.88,0,0,1-.4-1.26v-3h1.24v3q0,.72.66.72a.87.87,0,0,0,.86-.44v-3.27h1.25v4.63h-1.17Zm4.81.47a1.16,1.16,0,0,1-.12-.42,1.48,1.48,0,0,1-1.17.5,1.67,1.67,0,0,1-1.13-.39,1.25,1.25,0,0,1-.45-1,1.3,1.3,0,0,1,.55-1.13,2.61,2.61,0,0,1,1.58-.4H166v-.27a.77.77,0,0,0-.17-.51.64.64,0,0,0-.52-.19.74.74,0,0,0-.49.15.5.5,0,0,0-.18.41h-1.23a1.29,1.29,0,0,1,.24-.75,1.62,1.62,0,0,1,.71-.53,2.53,2.53,0,0,1,1-.2,2,2,0,0,1,1.36.43,1.5,1.5,0,0,1,.51,1.21v2a2.13,2.13,0,0,0,.18,1v.08Zm-1-.86a1.06,1.06,0,0,0,.5-.12.8.8,0,0,0,.35-.33v-.8h-.47c-.61,0-.94.22-1,.64v.08a.53.53,0,0,0,.16.38A.64.64,0,0,0,165.18,179.6Zm4.34.86h-1.24v-6.58h1.24Zm6.52-1.64a.63.63,0,0,0-.25-.55,3.31,3.31,0,0,0-.93-.42,6.47,6.47,0,0,1-1.06-.42,1.75,1.75,0,0,1-1.06-1.55,1.55,1.55,0,0,1,.28-.9,2,2,0,0,1,.82-.62,3.09,3.09,0,0,1,1.2-.22,2.81,2.81,0,0,1,1.19.24,1.88,1.88,0,0,1,.81.68,1.84,1.84,0,0,1,.29,1h-1.28a.85.85,0,0,0-.27-.67,1.1,1.1,0,0,0-.76-.24,1.2,1.2,0,0,0-.73.2.62.62,0,0,0,0,1,4,4,0,0,0,.9.38,3.84,3.84,0,0,1,1.6.82,1.63,1.63,0,0,1,.5,1.21,1.52,1.52,0,0,1-.61,1.28,2.74,2.74,0,0,1-1.65.45,3.1,3.1,0,0,1-1.31-.26,2.18,2.18,0,0,1-.9-.72,1.83,1.83,0,0,1-.31-1.06h1.29c0,.68.41,1,1.23,1a1.26,1.26,0,0,0,.72-.18A.63.63,0,0,0,176,178.82Zm4.22,1.72a2.27,2.27,0,0,1-1.67-.62,2.25,2.25,0,0,1-.63-1.67v-.12a2.76,2.76,0,0,1,.27-1.24A1.91,1.91,0,0,1,179,176a2.15,2.15,0,0,1,1.13-.3,1.91,1.91,0,0,1,1.49.6,2.42,2.42,0,0,1,.55,1.7v.5h-2.95a1.13,1.13,0,0,0,.36.73,1.07,1.07,0,0,0,.77.28,1.35,1.35,0,0,0,1.11-.52l.61.68a1.81,1.81,0,0,1-.75.61A2.44,2.44,0,0,1,180.26,180.54Zm-.15-3.8a.79.79,0,0,0-.6.25,1.36,1.36,0,0,0-.29.71h1.72v-.1a.89.89,0,0,0-.22-.63A.79.79,0,0,0,180.11,176.74Zm4.06,3.72h-1.24v-6.58h1.24Zm3.16.08a2.29,2.29,0,0,1-1.67-.62,2.25,2.25,0,0,1-.63-1.67v-.12a2.76,2.76,0,0,1,.27-1.24,2,2,0,0,1,.76-.85,2.15,2.15,0,0,1,1.13-.3,1.91,1.91,0,0,1,1.49.6,2.42,2.42,0,0,1,.55,1.7v.5h-2.95a1.13,1.13,0,0,0,.36.73,1.07,1.07,0,0,0,.77.28,1.34,1.34,0,0,0,1.11-.52l.61.68a1.75,1.75,0,0,1-.75.61A2.44,2.44,0,0,1,187.33,180.54Zm-.15-3.8a.75.75,0,0,0-.59.25,1.29,1.29,0,0,0-.3.71H188v-.1a.89.89,0,0,0-.22-.63A.79.79,0,0,0,187.18,176.74Zm4.68,2.81a.84.84,0,0,0,.56-.19.65.65,0,0,0,.22-.5h1.16a1.63,1.63,0,0,1-.25.86,1.74,1.74,0,0,1-.7.61,2.19,2.19,0,0,1-1,.21,2,2,0,0,1-1.56-.63,2.5,2.5,0,0,1-.58-1.74v-.08a2.45,2.45,0,0,1,.57-1.71,2,2,0,0,1,1.57-.64,1.94,1.94,0,0,1,1.39.5,1.71,1.71,0,0,1,.53,1.31h-1.16a.82.82,0,0,0-.22-.58.75.75,0,0,0-.57-.23.76.76,0,0,0-.65.32,1.8,1.8,0,0,0-.22,1v.13a1.8,1.8,0,0,0,.22,1A.76.76,0,0,0,191.86,179.55Zm4.13-4.86v1.14h.79v.9H196V179a.51.51,0,0,0,.1.37c.06.08.19.11.37.11a2.05,2.05,0,0,0,.37,0v.94a2.35,2.35,0,0,1-.75.11,1.18,1.18,0,0,1-1.33-1.31v-2.5h-.67v-.9h.67v-1.14Zm2.79,5.77h-1.24v-4.63h1.24Zm-1.32-5.83a.59.59,0,0,1,.19-.46.69.69,0,0,1,.51-.18.68.68,0,0,1,.5.18.65.65,0,0,1,0,.92.71.71,0,0,1-.5.18.72.72,0,0,1-.51-.18A.59.59,0,0,1,197.46,174.63Zm2.15,3.47a2.85,2.85,0,0,1,.26-1.23,1.91,1.91,0,0,1,.76-.83,2.23,2.23,0,0,1,1.16-.3,2.1,2.1,0,0,1,1.53.57,2.34,2.34,0,0,1,.67,1.56v.32a2.4,2.4,0,0,1-.59,1.71,2.32,2.32,0,0,1-3.2,0,2.46,2.46,0,0,1-.59-1.75Zm1.23.09a1.79,1.79,0,0,0,.25,1,.83.83,0,0,0,.71.35.84.84,0,0,0,.71-.35,2,2,0,0,0,.25-1.1,1.76,1.76,0,0,0-.25-1,.83.83,0,0,0-.72-.36.81.81,0,0,0-.7.36A2,2,0,0,0,200.84,178.19Zm5.06-2.36,0,.53a1.63,1.63,0,0,1,1.33-.62,1.33,1.33,0,0,1,1.1.43,2.05,2.05,0,0,1,.37,1.3v3h-1.24v-3a.79.79,0,0,0-.17-.57.75.75,0,0,0-.57-.18.85.85,0,0,0-.78.44v3.27h-1.24v-4.63Z" transform="translate(0 -50)"/><path class="cls-2" d="M143.89,193.23a.54.54,0,0,0-.23-.46,2.11,2.11,0,0,0-.78-.28,3.76,3.76,0,0,1-.88-.29,1.37,1.37,0,0,1-.48-.39,1,1,0,0,1-.15-.55,1.11,1.11,0,0,1,.44-.89A1.77,1.77,0,0,1,143,190a1.81,1.81,0,0,1,1.18.37,1.23,1.23,0,0,1,.45,1h-.74a.65.65,0,0,0-.25-.52.92.92,0,0,0-.64-.22,1,1,0,0,0-.63.18.52.52,0,0,0-.22.45.44.44,0,0,0,.21.4,2.82,2.82,0,0,0,.75.26,3.57,3.57,0,0,1,.89.29,1.17,1.17,0,0,1,.5.41,1,1,0,0,1,.17.58,1.09,1.09,0,0,1-.46.92,1.93,1.93,0,0,1-1.19.35,2.17,2.17,0,0,1-.91-.19,1.55,1.55,0,0,1-.62-.5,1.24,1.24,0,0,1-.22-.71H142a.75.75,0,0,0,.29.58,1.13,1.13,0,0,0,.73.22,1.15,1.15,0,0,0,.66-.17A.52.52,0,0,0,143.89,193.23Zm2.67-4.18v1h.8v.56h-.8v2.66a.57.57,0,0,0,.11.38.43.43,0,0,0,.36.13,1.93,1.93,0,0,0,.35,0v.6a2.23,2.23,0,0,1-.56.08.91.91,0,0,1-.74-.3,1.26,1.26,0,0,1-.25-.84v-2.66h-.78v-.56h.78v-1Zm4.3,5.32a1.52,1.52,0,0,1-.1-.46,1.63,1.63,0,0,1-1.22.54,1.51,1.51,0,0,1-1-.36,1.16,1.16,0,0,1-.4-.91,1.24,1.24,0,0,1,.5-1,2.46,2.46,0,0,1,1.43-.37h.72v-.33a.82.82,0,0,0-.23-.61,1,1,0,0,0-.68-.23,1,1,0,0,0-.66.2.59.59,0,0,0-.26.47h-.74a1,1,0,0,1,.23-.61,1.59,1.59,0,0,1,.62-.48,2.15,2.15,0,0,1,.85-.17,1.67,1.67,0,0,1,1.16.37,1.33,1.33,0,0,1,.44,1v2a2.38,2.38,0,0,0,.15.93v.07Zm-1.21-.56a1.28,1.28,0,0,0,.65-.18,1.1,1.1,0,0,0,.45-.46v-.88h-.58c-.89,0-1.34.26-1.34.79a.65.65,0,0,0,.23.54A.93.93,0,0,0,149.65,193.81Zm5-3.07-.36,0a1,1,0,0,0-1,.61v3h-.73v-4.28h.72v.49a1.14,1.14,0,0,1,1-.57.67.67,0,0,1,.32.06Zm1.87-1.69v1h.79v.56h-.79v2.66a.58.58,0,0,0,.1.38.44.44,0,0,0,.37.13,2.06,2.06,0,0,0,.35,0v.6a2.37,2.37,0,0,1-.57.08.92.92,0,0,1-.74-.3,1.31,1.31,0,0,1-.25-.84v-2.66h-.77v-.56h.77v-1Zm3.48,3.14a2.52,2.52,0,0,1,.47-1.58,1.59,1.59,0,0,1,2.41-.09v-2.23h.73v6.08H163l0-.46a1.57,1.57,0,0,1-2.43-.07,2.57,2.57,0,0,1-.47-1.59Zm.73.08a1.89,1.89,0,0,0,.3,1.14,1,1,0,0,0,.83.41,1.05,1.05,0,0,0,1-.62v-2a1.07,1.07,0,0,0-1-.61,1,1,0,0,0-.84.42A2.05,2.05,0,0,0,160.77,192.27Zm6.66,2.1a1.52,1.52,0,0,1-.1-.46,1.63,1.63,0,0,1-1.22.54,1.51,1.51,0,0,1-1-.36,1.16,1.16,0,0,1-.4-.91,1.24,1.24,0,0,1,.5-1,2.46,2.46,0,0,1,1.43-.37h.72v-.33a.82.82,0,0,0-.23-.61,1,1,0,0,0-.68-.23,1,1,0,0,0-.65.2.57.57,0,0,0-.27.47h-.73a1,1,0,0,1,.22-.61,1.59,1.59,0,0,1,.62-.48,2.15,2.15,0,0,1,.85-.17,1.67,1.67,0,0,1,1.16.37,1.33,1.33,0,0,1,.44,1v2a2.38,2.38,0,0,0,.15.93v.07Zm-1.21-.56a1.28,1.28,0,0,0,.65-.18,1.17,1.17,0,0,0,.45-.46v-.88h-.58c-.89,0-1.34.26-1.34.79a.68.68,0,0,0,.23.54A.93.93,0,0,0,166.22,193.81Zm4-4.76v1H171v.56h-.79v2.66a.58.58,0,0,0,.1.38.45.45,0,0,0,.37.13,1.85,1.85,0,0,0,.34,0v.6a2.16,2.16,0,0,1-.56.08.92.92,0,0,1-.74-.3,1.31,1.31,0,0,1-.24-.84v-2.66h-.78v-.56h.78v-1Zm3.43,5.4a1.89,1.89,0,0,1-1.42-.57,2.17,2.17,0,0,1-.54-1.53v-.14a2.57,2.57,0,0,1,.24-1.13,1.88,1.88,0,0,1,.68-.79,1.7,1.7,0,0,1,.95-.28,1.59,1.59,0,0,1,1.29.55,2.37,2.37,0,0,1,.47,1.57v.31h-2.9a1.5,1.5,0,0,0,.37,1,1.14,1.14,0,0,0,.9.39,1.33,1.33,0,0,0,.65-.16,1.44,1.44,0,0,0,.47-.42l.45.35A1.81,1.81,0,0,1,173.62,194.45Zm-.09-3.84a1,1,0,0,0-.75.32,1.61,1.61,0,0,0-.37.91h2.14v-.06a1.36,1.36,0,0,0-.3-.86A.9.9,0,0,0,173.53,190.61Zm2.58,3.37a.47.47,0,0,1,.11-.31.51.51,0,0,1,.68,0,.46.46,0,0,1,0,.62.54.54,0,0,1-.68,0A.47.47,0,0,1,176.11,194Zm0-3.49a.42.42,0,0,1,.11-.31.41.41,0,0,1,.34-.13.41.41,0,0,1,.45.44.44.44,0,0,1-.11.31.45.45,0,0,1-.34.12.4.4,0,0,1-.45-.43Zm7.28,2.37H181l-.55,1.51h-.78l2.2-5.76h.66l2.2,5.76H184Zm-2.19-.62h2l-1-2.69Zm7.79,0a2.55,2.55,0,0,1-.45,1.58,1.43,1.43,0,0,1-1.21.6,1.55,1.55,0,0,1-1.22-.5V196h-.74v-5.92h.67l0,.47a1.5,1.5,0,0,1,1.24-.55,1.46,1.46,0,0,1,1.22.58,2.6,2.6,0,0,1,.45,1.62Zm-.73-.08a1.93,1.93,0,0,0-.31-1.14,1,1,0,0,0-.85-.42,1.07,1.07,0,0,0-1,.59v2a1.08,1.08,0,0,0,1,.59,1,1,0,0,0,.83-.42A2,2,0,0,0,188.27,192.19Zm3.73-1.45-.36,0a1,1,0,0,0-1,.61v3h-.73v-4.28h.71v.49a1.14,1.14,0,0,1,1-.57.72.72,0,0,1,.33.06Zm6.38,3.63h-3.77v-.53l2-2.21a5.1,5.1,0,0,0,.61-.82,1.4,1.4,0,0,0,.17-.65,1,1,0,0,0-.28-.74,1,1,0,0,0-.72-.29,1.12,1.12,0,0,0-.85.32,1.17,1.17,0,0,0-.3.86h-.73A1.72,1.72,0,0,1,195,189a1.93,1.93,0,0,1,1.37-.49,1.84,1.84,0,0,1,1.27.42,1.44,1.44,0,0,1,.46,1.12,3.32,3.32,0,0,1-1.08,2l-1.54,1.67h2.89Zm3.18,0h-.74v-4.88l-1.47.54v-.66l2.09-.79h.12Z" transform="translate(0 -50)"/><path class="cls-2" d="M242.2,191.71h-2.49v2h2.9v.63H239v-5.76h3.62v.63h-2.86v1.85h2.49Zm1.93-1.62,0,.54a1.54,1.54,0,0,1,1.28-.62c.91,0,1.36.51,1.37,1.53v2.83h-.73v-2.83a1,1,0,0,0-.22-.69.81.81,0,0,0-.64-.22,1,1,0,0,0-.62.19,1.28,1.28,0,0,0-.42.5v3.05h-.73v-4.28Zm3.6,2.1a2.51,2.51,0,0,1,.46-1.58,1.59,1.59,0,0,1,2.41-.09v-2.23h.73v6.08h-.67l0-.46a1.58,1.58,0,0,1-2.44-.07,2.56,2.56,0,0,1-.46-1.59Zm.73.08a1.89,1.89,0,0,0,.3,1.14,1,1,0,0,0,.83.41,1,1,0,0,0,1-.62v-2a1.07,1.07,0,0,0-1-.61,1,1,0,0,0-.83.42A2.05,2.05,0,0,0,248.46,192.27Zm5.84-.08a2.52,2.52,0,0,1,.47-1.58,1.59,1.59,0,0,1,2.41-.09v-2.23h.73v6.08h-.67l0-.46a1.57,1.57,0,0,1-2.43-.07,2.57,2.57,0,0,1-.47-1.59Zm.73.08a1.89,1.89,0,0,0,.3,1.14,1,1,0,0,0,.83.41,1.05,1.05,0,0,0,1-.62v-2a1.07,1.07,0,0,0-1-.61,1,1,0,0,0-.84.42A2.05,2.05,0,0,0,255,192.27Zm6.66,2.1a1.52,1.52,0,0,1-.1-.46,1.63,1.63,0,0,1-1.22.54,1.51,1.51,0,0,1-1-.36,1.16,1.16,0,0,1-.4-.91,1.24,1.24,0,0,1,.5-1,2.46,2.46,0,0,1,1.43-.37h.72v-.33a.82.82,0,0,0-.23-.61,1,1,0,0,0-.68-.23,1,1,0,0,0-.66.2.59.59,0,0,0-.26.47H259a1,1,0,0,1,.23-.61,1.59,1.59,0,0,1,.62-.48,2.15,2.15,0,0,1,.85-.17,1.67,1.67,0,0,1,1.16.37,1.33,1.33,0,0,1,.44,1v2a2.38,2.38,0,0,0,.15.93v.07Zm-1.21-.56a1.28,1.28,0,0,0,.65-.18,1.17,1.17,0,0,0,.45-.46v-.88H261c-.89,0-1.34.26-1.34.79a.65.65,0,0,0,.23.54A.93.93,0,0,0,260.48,193.81Zm4-4.76v1h.79v.56h-.79v2.66a.58.58,0,0,0,.1.38.44.44,0,0,0,.37.13,1.85,1.85,0,0,0,.34,0v.6a2.23,2.23,0,0,1-.56.08.92.92,0,0,1-.74-.3,1.31,1.31,0,0,1-.25-.84v-2.66h-.78v-.56h.78v-1Zm3.43,5.4a1.89,1.89,0,0,1-1.42-.57,2.17,2.17,0,0,1-.54-1.53v-.14a2.57,2.57,0,0,1,.24-1.13,1.88,1.88,0,0,1,.68-.79,1.7,1.7,0,0,1,1-.28,1.59,1.59,0,0,1,1.29.55,2.37,2.37,0,0,1,.46,1.57v.31h-2.89a1.5,1.5,0,0,0,.37,1,1.14,1.14,0,0,0,.9.39,1.33,1.33,0,0,0,.65-.16,1.44,1.44,0,0,0,.47-.42l.45.35A1.81,1.81,0,0,1,267.88,194.45Zm-.09-3.84a1,1,0,0,0-.75.32,1.61,1.61,0,0,0-.37.91h2.14v-.06a1.36,1.36,0,0,0-.3-.86A.9.9,0,0,0,267.79,190.61Zm2.58,3.37a.47.47,0,0,1,.11-.31.51.51,0,0,1,.68,0,.46.46,0,0,1,0,.62.54.54,0,0,1-.68,0A.47.47,0,0,1,270.37,194Zm0-3.49a.46.46,0,0,1,.1-.31.43.43,0,0,1,.35-.13.42.42,0,0,1,.34.13.47.47,0,0,1,.11.31.49.49,0,0,1-.11.31.45.45,0,0,1-.34.12.46.46,0,0,1-.35-.12A.48.48,0,0,1,270.38,190.49Zm7.28,2.37h-2.42l-.54,1.51h-.78l2.2-5.76h.66l2.2,5.76h-.78Zm-2.19-.62h2l-1-2.69Zm7.79,0a2.55,2.55,0,0,1-.45,1.58,1.43,1.43,0,0,1-1.21.6,1.55,1.55,0,0,1-1.22-.5V196h-.74v-5.92h.67l0,.47a1.49,1.49,0,0,1,1.24-.55,1.46,1.46,0,0,1,1.22.58,2.6,2.6,0,0,1,.45,1.62Zm-.73-.08a1.93,1.93,0,0,0-.31-1.14,1,1,0,0,0-.85-.42,1.07,1.07,0,0,0-1,.59v2a1.07,1.07,0,0,0,1,.59,1,1,0,0,0,.83-.42A2,2,0,0,0,282.53,192.19Zm3.73-1.45-.36,0a1,1,0,0,0-1,.61v3h-.73v-4.28h.71v.49a1.14,1.14,0,0,1,1-.57.72.72,0,0,1,.33.06Zm6.38,3.63h-3.77v-.53l2-2.21a5.1,5.1,0,0,0,.61-.82,1.4,1.4,0,0,0,.17-.65,1,1,0,0,0-.28-.74,1,1,0,0,0-.72-.29,1.12,1.12,0,0,0-.85.32,1.17,1.17,0,0,0-.3.86h-.73a1.68,1.68,0,0,1,.51-1.29,1.93,1.93,0,0,1,1.37-.49,1.84,1.84,0,0,1,1.27.42,1.44,1.44,0,0,1,.46,1.12,3.32,3.32,0,0,1-1.08,2l-1.54,1.67h2.89Zm4.26-4.26a1.29,1.29,0,0,1-.23.77,1.48,1.48,0,0,1-.61.52,1.61,1.61,0,0,1,.71.57,1.4,1.4,0,0,1,.27.84,1.49,1.49,0,0,1-.51,1.19,1.89,1.89,0,0,1-1.32.45,1.94,1.94,0,0,1-1.34-.45,1.52,1.52,0,0,1-.49-1.19,1.46,1.46,0,0,1,.25-.84,1.61,1.61,0,0,1,.71-.57,1.56,1.56,0,0,1-.61-.52,1.36,1.36,0,0,1-.22-.77A1.48,1.48,0,0,1,294,189a2,2,0,0,1,2.45,0A1.48,1.48,0,0,1,296.9,190.11Zm-.6,2.69a1.08,1.08,0,0,0-.3-.79,1.1,1.1,0,0,0-.8-.3,1,1,0,0,0-1.09,1.09,1,1,0,0,0,.29.77,1.3,1.3,0,0,0,1.61,0A1,1,0,0,0,296.3,192.8Zm-1.09-3.67a.94.94,0,0,0-.7.27,1,1,0,0,0-.27.72,1,1,0,0,0,.26.72,1.09,1.09,0,0,0,1.41,0,1,1,0,0,0,.26-.72,1,1,0,0,0-.27-.71A.94.94,0,0,0,295.21,189.13Z" transform="translate(0 -50)"/><path class="cls-2" d="M319.44,194.37v-5.76h1.62a2.6,2.6,0,0,1,1.33.33,2.21,2.21,0,0,1,.89.95,3,3,0,0,1,.32,1.4v.37a3.08,3.08,0,0,1-.31,1.43,2.21,2.21,0,0,1-.9.94,2.82,2.82,0,0,1-1.36.34Zm.76-5.13v4.5h.8a1.73,1.73,0,0,0,1.36-.54,2.22,2.22,0,0,0,.49-1.55v-.34a2.26,2.26,0,0,0-.46-1.52,1.63,1.63,0,0,0-1.31-.55Zm7.08,4.7a1.55,1.55,0,0,1-1.26.51,1.36,1.36,0,0,1-1-.4,1.72,1.72,0,0,1-.36-1.18v-2.78h.73v2.76c0,.65.27,1,.79,1a1.1,1.1,0,0,0,1.12-.62v-3.11H328v4.28h-.7Zm3.89-3.2-.36,0a1,1,0,0,0-1,.61v3h-.74v-4.28h.72v.49a1.14,1.14,0,0,1,1-.57.67.67,0,0,1,.32.06Zm3.16,3.63a1.52,1.52,0,0,1-.1-.46,1.63,1.63,0,0,1-1.22.54,1.51,1.51,0,0,1-1-.36,1.16,1.16,0,0,1-.4-.91,1.24,1.24,0,0,1,.5-1,2.46,2.46,0,0,1,1.43-.37h.71v-.33a.82.82,0,0,0-.22-.61,1,1,0,0,0-.68-.23,1,1,0,0,0-.66.2.59.59,0,0,0-.26.47h-.74a1,1,0,0,1,.23-.61,1.59,1.59,0,0,1,.62-.48,2.15,2.15,0,0,1,.85-.17,1.67,1.67,0,0,1,1.16.37,1.33,1.33,0,0,1,.44,1v2a2.38,2.38,0,0,0,.15.93v.07Zm-1.21-.56a1.28,1.28,0,0,0,.65-.18,1.08,1.08,0,0,0,.44-.46v-.88h-.57c-.89,0-1.34.26-1.34.79a.68.68,0,0,0,.23.54A.93.93,0,0,0,333.12,193.81Zm4-4.76v1h.8v.56h-.8v2.66a.57.57,0,0,0,.11.38.43.43,0,0,0,.36.13,1.82,1.82,0,0,0,.35,0v.6a2.23,2.23,0,0,1-.56.08.92.92,0,0,1-.74-.3,1.31,1.31,0,0,1-.25-.84v-2.66h-.77v-.56h.77v-1Zm2.46,5.32h-.74v-4.28h.74Zm-.8-5.42a.48.48,0,0,1,.11-.3.43.43,0,0,1,.33-.12.41.41,0,0,1,.32.12.48.48,0,0,1,.11.3.44.44,0,0,1-.11.3.41.41,0,0,1-.32.12.43.43,0,0,1-.33-.12A.44.44,0,0,1,338.74,189Zm1.78,3.24a2.57,2.57,0,0,1,.24-1.13,1.81,1.81,0,0,1,1.7-1.05,1.78,1.78,0,0,1,1.41.61,2.3,2.3,0,0,1,.54,1.6v.05a2.57,2.57,0,0,1-.24,1.13,1.84,1.84,0,0,1-.69.77,1.9,1.9,0,0,1-1,.28,1.85,1.85,0,0,1-1.41-.61,2.36,2.36,0,0,1-.53-1.6Zm.73.08a1.85,1.85,0,0,0,.33,1.15,1.08,1.08,0,0,0,.88.43,1.05,1.05,0,0,0,.89-.44,2,2,0,0,0,.33-1.22,1.78,1.78,0,0,0-.34-1.14,1.11,1.11,0,0,0-1.76,0A2,2,0,0,0,341.25,192.27Zm4.77-2.18,0,.54a1.55,1.55,0,0,1,1.28-.62c.91,0,1.36.51,1.37,1.53v2.83H348v-2.83a1,1,0,0,0-.21-.69.85.85,0,0,0-.65-.22,1,1,0,0,0-.62.19,1.28,1.28,0,0,0-.42.5v3.05h-.73v-4.28Zm3.75,3.89a.47.47,0,0,1,.11-.31.51.51,0,0,1,.68,0,.46.46,0,0,1,0,.62.54.54,0,0,1-.68,0A.47.47,0,0,1,349.77,194Zm0-3.49a.47.47,0,0,1,.11-.31.42.42,0,0,1,.34-.13.4.4,0,0,1,.34.13.43.43,0,0,1,.12.31.45.45,0,0,1-.12.31.43.43,0,0,1-.34.12.45.45,0,0,1-.34-.12A.49.49,0,0,1,349.77,190.49ZM357.4,189,355,194.37h-.77l2.38-5.16h-3.12v-.6h3.89Zm2.74,3.17a2.46,2.46,0,0,1,.47-1.58,1.46,1.46,0,0,1,1.22-.6,1.5,1.5,0,0,1,1.19.51v-2.23h.73v6.08h-.67l0-.46a1.48,1.48,0,0,1-1.22.54,1.47,1.47,0,0,1-1.21-.61,2.51,2.51,0,0,1-.47-1.59Zm.73.08a1.89,1.89,0,0,0,.3,1.14,1,1,0,0,0,.83.41,1.07,1.07,0,0,0,1-.62v-2a1.08,1.08,0,0,0-1-.61,1,1,0,0,0-.84.42A2.05,2.05,0,0,0,360.87,192.27Zm6.66,2.1a1.45,1.45,0,0,1-.11-.46,1.6,1.6,0,0,1-1.21.54,1.5,1.5,0,0,1-1-.36,1.16,1.16,0,0,1-.41-.91,1.22,1.22,0,0,1,.51-1,2.46,2.46,0,0,1,1.43-.37h.71v-.33a.82.82,0,0,0-.23-.61.92.92,0,0,0-.67-.23,1,1,0,0,0-.66.2.57.57,0,0,0-.27.47h-.73a1,1,0,0,1,.23-.61,1.56,1.56,0,0,1,.61-.48,2.2,2.2,0,0,1,.86-.17,1.68,1.68,0,0,1,1.16.37,1.32,1.32,0,0,1,.43,1v2a2.38,2.38,0,0,0,.15.93v.07Zm-1.22-.56a1.25,1.25,0,0,0,.65-.18,1,1,0,0,0,.45-.46v-.88h-.57c-.9,0-1.35.26-1.35.79a.68.68,0,0,0,.23.54A1,1,0,0,0,366.31,193.81Zm4.32-.52,1-3.2h.78L370.68,195c-.26.71-.69,1.06-1.26,1.06h-.14L369,196v-.59h.2a1,1,0,0,0,.58-.15,1.06,1.06,0,0,0,.34-.55l.17-.43-1.53-4.23h.8Zm4.92-.06a.53.53,0,0,0-.22-.46,2.18,2.18,0,0,0-.78-.28,3.61,3.61,0,0,1-.88-.29,1.32,1.32,0,0,1-.49-.39,1,1,0,0,1-.15-.55,1.14,1.14,0,0,1,.44-.89,2,2,0,0,1,2.32,0,1.23,1.23,0,0,1,.45,1h-.73a.66.66,0,0,0-.26-.52.92.92,0,0,0-.64-.22,1,1,0,0,0-.63.18.52.52,0,0,0-.22.45.44.44,0,0,0,.21.4,2.82,2.82,0,0,0,.75.26,3.43,3.43,0,0,1,.89.29,1.27,1.27,0,0,1,.51.41,1,1,0,0,1,.16.58,1.09,1.09,0,0,1-.46.92,1.91,1.91,0,0,1-1.19.35,2.21,2.21,0,0,1-.91-.19,1.55,1.55,0,0,1-.62-.5,1.32,1.32,0,0,1-.22-.71h.73a.76.76,0,0,0,.3.58,1.09,1.09,0,0,0,.72.22,1.21,1.21,0,0,0,.67-.17A.51.51,0,0,0,375.55,193.23Z" transform="translate(0 -50)"/><path d="M455.6,178.17a.76.76,0,0,0-.2-.56,1.79,1.79,0,0,0-.66-.38,7.9,7.9,0,0,1-.8-.35,2.58,2.58,0,0,1-.58-.4A1.66,1.66,0,0,1,453,176a1.75,1.75,0,0,1-.13-.72,1.61,1.61,0,0,1,.46-1.19,2.06,2.06,0,0,1,1.23-.54v-.91h.68v.93a1.79,1.79,0,0,1,1.19.63,2.05,2.05,0,0,1,.43,1.36H455.6a1.18,1.18,0,0,0-.21-.77.78.78,0,0,0-1.11-.05.73.73,0,0,0-.2.54.76.76,0,0,0,.19.53,2.22,2.22,0,0,0,.7.4,6.21,6.21,0,0,1,.84.39,2.19,2.19,0,0,1,.56.41,1.54,1.54,0,0,1,.35.52,1.79,1.79,0,0,1,.12.68,1.56,1.56,0,0,1-.46,1.18,2,2,0,0,1-1.25.54v.85h-.68v-.85a2.07,2.07,0,0,1-1.36-.62,2,2,0,0,1-.48-1.41h1.24a1.18,1.18,0,0,0,.24.79.88.88,0,0,0,.7.27.84.84,0,0,0,.59-.2A.69.69,0,0,0,455.6,178.17Zm3.33-2h.66a.91.91,0,0,0,.7-.24.88.88,0,0,0,.23-.62.76.76,0,0,0-.23-.59,1,1,0,0,0-1.21,0,.59.59,0,0,0-.24.5H457.6a1.54,1.54,0,0,1,.26-.87,1.78,1.78,0,0,1,.74-.61,2.43,2.43,0,0,1,1-.22,2.35,2.35,0,0,1,1.56.48,1.6,1.6,0,0,1,.56,1.3,1.25,1.25,0,0,1-.27.78,1.7,1.7,0,0,1-.68.56,1.45,1.45,0,0,1,1,1.45,1.63,1.63,0,0,1-.6,1.33,2.43,2.43,0,0,1-1.61.51,2.28,2.28,0,0,1-1.52-.5,1.59,1.59,0,0,1-.59-1.3h1.23a.74.74,0,0,0,.26.58,1,1,0,0,0,.65.22,1,1,0,0,0,.69-.23.82.82,0,0,0,.26-.62c0-.63-.35-.94-1-.94h-.66Zm8,1.08a3.15,3.15,0,0,1-.53,2,1.87,1.87,0,0,1-1.57.69,1.9,1.9,0,0,1-1.56-.68,3.13,3.13,0,0,1-.55-1.92v-1.15a3.12,3.12,0,0,1,.54-2,1.92,1.92,0,0,1,1.57-.68,1.87,1.87,0,0,1,1.55.67,3,3,0,0,1,.55,1.93ZM465.67,176a2.14,2.14,0,0,0-.22-1.12.69.69,0,0,0-.65-.36.72.72,0,0,0-.65.34,2.11,2.11,0,0,0-.22,1v1.52a2.39,2.39,0,0,0,.21,1.13.72.72,0,0,0,.66.37.7.7,0,0,0,.66-.36,2.41,2.41,0,0,0,.21-1.08Zm6.14-.74a1.48,1.48,0,0,1-.23.81,1.64,1.64,0,0,1-.63.56,1.71,1.71,0,0,1,.72.6,1.54,1.54,0,0,1,.27.9,1.66,1.66,0,0,1-.57,1.32,2.28,2.28,0,0,1-1.53.48,2.31,2.31,0,0,1-1.54-.49,1.75,1.75,0,0,1-.31-2.21,1.76,1.76,0,0,1,.72-.6,1.64,1.64,0,0,1-.63-.56,1.47,1.47,0,0,1-.22-.81,1.6,1.6,0,0,1,.53-1.26,2.07,2.07,0,0,1,1.44-.48,2.1,2.1,0,0,1,1.44.47A1.6,1.6,0,0,1,471.81,175.23ZM470.7,178a.88.88,0,0,0-.24-.65.95.95,0,0,0-1.26,0,.88.88,0,0,0-.24.65.86.86,0,0,0,.24.64.8.8,0,0,0,.64.25.82.82,0,0,0,.63-.24A.89.89,0,0,0,470.7,178Zm-.13-2.72a.85.85,0,0,0-.19-.58.68.68,0,0,0-.55-.22.7.7,0,0,0-.54.21.91.91,0,0,0-.19.59.94.94,0,0,0,.19.6.69.69,0,0,0,.55.23.68.68,0,0,0,.54-.23A.88.88,0,0,0,470.57,175.29Zm2.32,3.91a.66.66,0,0,1,.2-.48.73.73,0,0,1,.5-.18.71.71,0,0,1,.5.18.62.62,0,0,1,.2.48.63.63,0,0,1-.19.48.74.74,0,0,1-.51.18.71.71,0,0,1-.5-.18A.64.64,0,0,1,472.89,179.2Zm6.68-4.93-2.41,5.54h-1.31l2.42-5.23h-3.1v-1h4.4Zm4.45,3.19h.71v1H484v1.35h-1.23v-1.35h-2.56l-.06-.78,2.6-4.1H484Zm-2.61,0h1.38v-2.2l-.09.14Z" transform="translate(0 -50)"/><path class="cls-2" d="M454.58,191.15a3.54,3.54,0,0,1-1.42-.69,1.3,1.3,0,0,1-.44-1,1.4,1.4,0,0,1,.54-1.12,2.13,2.13,0,0,1,1.41-.45,2.39,2.39,0,0,1,1.06.23,1.78,1.78,0,0,1,.72.63,1.64,1.64,0,0,1,.25.89h-.76a1,1,0,0,0-.33-.82,1.63,1.63,0,0,0-1.81-.05.81.81,0,0,0-.32.68.75.75,0,0,0,.3.6,2.92,2.92,0,0,0,1,.44,4.54,4.54,0,0,1,1.12.45,1.72,1.72,0,0,1,.6.56,1.47,1.47,0,0,1,.2.77,1.34,1.34,0,0,1-.55,1.12,2.32,2.32,0,0,1-1.46.42,2.71,2.71,0,0,1-1.1-.23,1.88,1.88,0,0,1-.8-.62,1.59,1.59,0,0,1-.27-.9h.76a1,1,0,0,0,.38.83,1.64,1.64,0,0,0,1,.3,1.5,1.5,0,0,0,.92-.25.78.78,0,0,0,.32-.67.76.76,0,0,0-.29-.65A3.56,3.56,0,0,0,454.58,191.15Zm5.64,2.14a1.54,1.54,0,0,1-1.25.51,1.36,1.36,0,0,1-1.05-.4,1.82,1.82,0,0,1-.36-1.18v-2.78h.73v2.76c0,.65.27,1,.79,1a1.1,1.1,0,0,0,1.12-.63v-3.11h.73v4.28h-.7Zm1.65-1.75a2.59,2.59,0,0,1,.46-1.59,1.6,1.6,0,0,1,2.45,0l0-.47h.66v4.18a1.72,1.72,0,0,1-.49,1.3,1.82,1.82,0,0,1-1.32.48,2,2,0,0,1-.9-.2,1.49,1.49,0,0,1-.68-.54l.38-.44a1.42,1.42,0,0,0,1.15.58,1.11,1.11,0,0,0,.83-.3,1.14,1.14,0,0,0,.3-.84v-.37a1.49,1.49,0,0,1-1.2.51,1.46,1.46,0,0,1-1.22-.61A2.69,2.69,0,0,1,461.87,191.54Zm.74.09a2,2,0,0,0,.29,1.13,1,1,0,0,0,.83.42,1.07,1.07,0,0,0,1-.63v-2a1.09,1.09,0,0,0-1-.62,1,1,0,0,0-.83.42A2.06,2.06,0,0,0,462.61,191.63Zm3.81-.09a2.52,2.52,0,0,1,.46-1.59,1.6,1.6,0,0,1,2.45,0l0-.47H470v4.18a1.72,1.72,0,0,1-.49,1.3,1.82,1.82,0,0,1-1.32.48,2.11,2.11,0,0,1-.91-.2,1.52,1.52,0,0,1-.67-.54l.37-.44a1.44,1.44,0,0,0,1.16.58,1.09,1.09,0,0,0,.82-.3,1.1,1.1,0,0,0,.31-.84v-.37a1.52,1.52,0,0,1-1.2.51,1.46,1.46,0,0,1-1.22-.61A2.63,2.63,0,0,1,466.42,191.54Zm.73.09a1.87,1.87,0,0,0,.3,1.13,1,1,0,0,0,.83.42,1.08,1.08,0,0,0,1-.63v-2a1.11,1.11,0,0,0-1-.62,1,1,0,0,0-.84.42A2.06,2.06,0,0,0,467.15,191.63Zm5.76,2.17a1.85,1.85,0,0,1-1.41-.57,2.1,2.1,0,0,1-.55-1.53v-.14a2.57,2.57,0,0,1,.24-1.13,1.86,1.86,0,0,1,.68-.78,1.74,1.74,0,0,1,.95-.29,1.6,1.6,0,0,1,1.3.55,2.37,2.37,0,0,1,.46,1.57v.31h-2.9a1.55,1.55,0,0,0,.37,1,1.17,1.17,0,0,0,.9.39,1.24,1.24,0,0,0,.66-.16,1.55,1.55,0,0,0,.47-.42l.44.35A1.78,1.78,0,0,1,472.91,193.8Zm-.09-3.84a1,1,0,0,0-.74.33,1.49,1.49,0,0,0-.37.9h2.14v-.06a1.36,1.36,0,0,0-.3-.86A.94.94,0,0,0,472.82,190Zm5.1,2.62a.5.5,0,0,0-.22-.45,2,2,0,0,0-.78-.29,3.22,3.22,0,0,1-.88-.29,1.23,1.23,0,0,1-.49-.39,1,1,0,0,1-.15-.54,1.11,1.11,0,0,1,.44-.89,1.72,1.72,0,0,1,1.14-.37,1.8,1.8,0,0,1,1.18.38,1.19,1.19,0,0,1,.45,1h-.73a.66.66,0,0,0-.26-.52A1,1,0,0,0,477,190a1,1,0,0,0-.62.18.51.51,0,0,0-.23.45.44.44,0,0,0,.21.4,2.82,2.82,0,0,0,.75.26,3.86,3.86,0,0,1,.89.29,1.27,1.27,0,0,1,.51.41,1,1,0,0,1,.16.58,1.09,1.09,0,0,1-.46.92,1.91,1.91,0,0,1-1.19.35,2.21,2.21,0,0,1-.91-.18,1.65,1.65,0,0,1-.62-.51,1.32,1.32,0,0,1-.22-.71H476a.78.78,0,0,0,.3.59,1.14,1.14,0,0,0,.72.21,1.21,1.21,0,0,0,.67-.17A.51.51,0,0,0,477.92,192.58Zm2.68-4.18v1h.79V190h-.79v2.65a.63.63,0,0,0,.1.39.47.47,0,0,0,.37.12,1.85,1.85,0,0,0,.35,0v.59a2.3,2.3,0,0,1-.57.08.92.92,0,0,1-.74-.3,1.31,1.31,0,0,1-.25-.84V190h-.77v-.57h.77v-1Zm3.43,5.4a1.89,1.89,0,0,1-1.42-.57,2.13,2.13,0,0,1-.54-1.53v-.14a2.57,2.57,0,0,1,.24-1.13,1.79,1.79,0,0,1,.68-.78,1.71,1.71,0,0,1,.95-.29,1.59,1.59,0,0,1,1.29.55,2.37,2.37,0,0,1,.47,1.57v.31h-2.9a1.5,1.5,0,0,0,.37,1,1.14,1.14,0,0,0,.9.39,1.21,1.21,0,0,0,.65-.16,1.44,1.44,0,0,0,.47-.42l.45.35A1.81,1.81,0,0,1,484,193.8Zm-.09-3.84a1,1,0,0,0-.75.33,1.55,1.55,0,0,0-.37.9H485v-.06a1.36,1.36,0,0,0-.3-.86A.93.93,0,0,0,483.94,190Zm2.43,1.58a2.51,2.51,0,0,1,.46-1.58,1.47,1.47,0,0,1,1.22-.6,1.45,1.45,0,0,1,1.19.52v-2.23H490v6.07h-.68l0-.46a1.58,1.58,0,0,1-2.44-.07,2.56,2.56,0,0,1-.46-1.59Zm.73.09a1.87,1.87,0,0,0,.3,1.13,1,1,0,0,0,.83.42,1.06,1.06,0,0,0,1-.63v-2a1.05,1.05,0,0,0-1-.61,1,1,0,0,0-.84.42A2.06,2.06,0,0,0,487.1,191.63Zm6.9-.17v2.26h-.76V188h2.12a2.14,2.14,0,0,1,1.48.48,1.65,1.65,0,0,1,.54,1.28,1.61,1.61,0,0,1-.53,1.29,2.24,2.24,0,0,1-1.5.45Zm0-.62h1.36a1.34,1.34,0,0,0,.93-.28,1,1,0,0,0,.33-.83,1.06,1.06,0,0,0-.33-.82,1.25,1.25,0,0,0-.89-.32H494Zm6.3-.74a2,2,0,0,0-.36,0,1,1,0,0,0-1,.61v3h-.73v-4.28h.71v.49a1.14,1.14,0,0,1,1-.57.72.72,0,0,1,.33.06Zm1.47,3.62H501v-4.28h.73Zm-.79-5.41a.44.44,0,0,1,.1-.3.42.42,0,0,1,.33-.13.38.38,0,0,1,.32.13.4.4,0,0,1,.11.3.38.38,0,0,1-.11.29.41.41,0,0,1-.32.12.45.45,0,0,1-.33-.12A.41.41,0,0,1,501,188.31Zm3.68,4.89a1,1,0,0,0,.68-.24.85.85,0,0,0,.33-.59h.69a1.34,1.34,0,0,1-.26.7,1.61,1.61,0,0,1-.62.53,1.89,1.89,0,0,1-2.21-.38,2.32,2.32,0,0,1-.52-1.6v-.12a2.67,2.67,0,0,1,.23-1.12,1.72,1.72,0,0,1,.66-.75,1.84,1.84,0,0,1,1-.27,1.76,1.76,0,0,1,1.2.43,1.53,1.53,0,0,1,.51,1.12h-.69a1,1,0,0,0-.32-.68,1,1,0,0,0-.7-.27,1,1,0,0,0-.86.41,1.81,1.81,0,0,0-.31,1.15v.14a1.82,1.82,0,0,0,.31,1.14A1,1,0,0,0,504.66,193.2Zm4.29.6a1.85,1.85,0,0,1-1.41-.57,2.1,2.1,0,0,1-.55-1.53v-.14a2.57,2.57,0,0,1,.24-1.13,1.88,1.88,0,0,1,.69-.78,1.68,1.68,0,0,1,.94-.29,1.6,1.6,0,0,1,1.3.55,2.37,2.37,0,0,1,.46,1.57v.31h-2.89a1.49,1.49,0,0,0,.36,1,1.17,1.17,0,0,0,.9.39,1.24,1.24,0,0,0,.66-.16,1.44,1.44,0,0,0,.47-.42l.45.35A1.81,1.81,0,0,1,509,193.8Zm-.09-3.84a1,1,0,0,0-.74.33,1.55,1.55,0,0,0-.37.9h2.14v-.06a1.36,1.36,0,0,0-.3-.86A.94.94,0,0,0,508.86,190Zm2.59,3.37a.47.47,0,0,1,.79-.31.43.43,0,0,1,.12.31.41.41,0,0,1-.12.31.54.54,0,0,1-.68,0A.41.41,0,0,1,511.45,193.33Zm0-3.49a.47.47,0,0,1,.11-.31.42.42,0,0,1,.34-.13.41.41,0,0,1,.34.13.46.46,0,0,1,0,.62.44.44,0,0,1-.34.12.45.45,0,0,1-.34-.12A.47.47,0,0,1,511.45,189.84Zm6.82,2.4a.84.84,0,0,0-.26-.62,2.43,2.43,0,0,0-.85-.45,2.63,2.63,0,0,1-1.23-.67,1.45,1.45,0,0,1-.39-1.05,1.53,1.53,0,0,1,.38-1.06,1.58,1.58,0,0,1,1-.49V187h.59v.87a1.53,1.53,0,0,1,1,.56,2,2,0,0,1,.37,1.27h-.73a1.34,1.34,0,0,0-.26-.88.88.88,0,0,0-.72-.33,1,1,0,0,0-.72.24.94.94,0,0,0-.24.68.84.84,0,0,0,.26.65,2.52,2.52,0,0,0,.86.43,3.46,3.46,0,0,1,.94.43,1.44,1.44,0,0,1,.66,1.28,1.45,1.45,0,0,1-.4,1.07,1.79,1.79,0,0,1-1.12.49v.75h-.59v-.75a1.71,1.71,0,0,1-1.15-.53,1.76,1.76,0,0,1-.42-1.24h.73a1.18,1.18,0,0,0,.29.85,1.08,1.08,0,0,0,.82.29,1.17,1.17,0,0,0,.81-.25A.82.82,0,0,0,518.27,192.24Zm2.7-1.76h.55a1.18,1.18,0,0,0,.82-.27.89.89,0,0,0,.3-.71.9.9,0,0,0-1-1,1,1,0,0,0-.76.28.92.92,0,0,0-.28.71h-.73a1.46,1.46,0,0,1,.49-1.13,1.86,1.86,0,0,1,1.28-.46,1.81,1.81,0,0,1,1.27.43,1.57,1.57,0,0,1,.47,1.2,1.29,1.29,0,0,1-.25.73,1.43,1.43,0,0,1-.66.52,1.45,1.45,0,0,1,.73.5,1.34,1.34,0,0,1,.26.85,1.58,1.58,0,0,1-.5,1.23,1.88,1.88,0,0,1-1.32.46,2,2,0,0,1-1.32-.44,1.45,1.45,0,0,1-.51-1.16h.74a1,1,0,0,0,.3.73,1.11,1.11,0,0,0,.79.27,1.09,1.09,0,0,0,.81-.28,1,1,0,0,0,.28-.79,1,1,0,0,0-.31-.77,1.35,1.35,0,0,0-.89-.28H521Zm6.57,1.31h.8v.59h-.8v1.34h-.73v-1.34h-2.62V192l2.58-4h.77Zm-2.52,0h1.79V189l-.09.16Zm5.05-1.31h.55a1.17,1.17,0,0,0,.81-.27.89.89,0,0,0,.3-.71.9.9,0,0,0-1-1,1,1,0,0,0-.76.28.92.92,0,0,0-.28.71H529a1.44,1.44,0,0,1,.5-1.13,1.83,1.83,0,0,1,1.27-.46,1.81,1.81,0,0,1,1.27.43,1.57,1.57,0,0,1,.47,1.2,1.22,1.22,0,0,1-.25.73,1.43,1.43,0,0,1-.66.52,1.45,1.45,0,0,1,.73.5,1.34,1.34,0,0,1,.26.85,1.55,1.55,0,0,1-.5,1.23,1.88,1.88,0,0,1-1.32.46,2,2,0,0,1-1.32-.44,1.48,1.48,0,0,1-.5-1.16h.73a1,1,0,0,0,.3.73,1.13,1.13,0,0,0,.79.27,1.06,1.06,0,0,0,.81-.28,1,1,0,0,0,.28-.79,1,1,0,0,0-.3-.77,1.39,1.39,0,0,0-.89-.28h-.55Zm3.57,2.85a.47.47,0,0,1,.11-.31.51.51,0,0,1,.68,0,.43.43,0,0,1,.12.31.41.41,0,0,1-.12.31.45.45,0,0,1-.79-.31Zm3.11-2.85h.55a1.17,1.17,0,0,0,.81-.27.89.89,0,0,0,.3-.71.9.9,0,0,0-1-1,1,1,0,0,0-.76.28.92.92,0,0,0-.28.71h-.73a1.44,1.44,0,0,1,.5-1.13,2,2,0,0,1,2.55,0,1.6,1.6,0,0,1,.46,1.2,1.22,1.22,0,0,1-.25.73,1.43,1.43,0,0,1-.66.52,1.45,1.45,0,0,1,.73.5,1.34,1.34,0,0,1,.26.85,1.55,1.55,0,0,1-.5,1.23,1.88,1.88,0,0,1-1.32.46,2,2,0,0,1-1.32-.44,1.44,1.44,0,0,1-.5-1.16h.73a1,1,0,0,0,.3.73,1.13,1.13,0,0,0,.79.27,1.06,1.06,0,0,0,.81-.28,1,1,0,0,0,.28-.79,1,1,0,0,0-.3-.77,1.39,1.39,0,0,0-.89-.28h-.55Zm6.57,1.31h.79v.59h-.79v1.34h-.74v-1.34H540V192l2.58-4h.78Zm-2.53,0h1.79V189l-.09.16Z" transform="translate(0 -50)"/><rect class="cls-3" x="70.55" y="105.92" width="566.34" height="53.17" rx="5.95"/><ellipse cx="595.9" cy="135.74" rx="1.06" ry="0.97"/><ellipse cx="600.14" cy="135.74" rx="1.06" ry="0.97"/><ellipse cx="604.37" cy="135.74" rx="1.06" ry="0.97"/><rect class="cls-3" x="70.55" y="170.74" width="566.34" height="53.17" rx="5.95"/><ellipse cx="595.9" cy="200.56" rx="1.06" ry="0.97"/><ellipse cx="600.14" cy="200.56" rx="1.06" ry="0.97"/><ellipse cx="604.37" cy="200.56" rx="1.06" ry="0.97"/><path class="cls-4" d="M145.43,235.39h68.49a4.58,4.58,0,0,1,4.59,4.59h0a4.59,4.59,0,0,1-4.59,4.59H145.43a4.6,4.6,0,0,1-4.59-4.59h0A4.59,4.59,0,0,1,145.43,235.39Z" transform="translate(0 -50)"/><path class="cls-4" d="M456.81,235.39h28.24a4.58,4.58,0,0,1,4.59,4.59h0a4.59,4.59,0,0,1-4.59,4.59H456.81a4.59,4.59,0,0,1-4.59-4.59h0A4.58,4.58,0,0,1,456.81,235.39Z" transform="translate(0 -50)"/><path class="cls-5" d="M143.32,252.34H216a2.47,2.47,0,0,1,2.47,2.47h0a2.48,2.48,0,0,1-2.47,2.47H143.32a2.48,2.48,0,0,1-2.48-2.47h0A2.47,2.47,0,0,1,143.32,252.34Z" transform="translate(0 -50)"/><path class="cls-5" d="M235.1,252.34h72.73a2.47,2.47,0,0,1,2.47,2.47h0a2.48,2.48,0,0,1-2.47,2.47H235.1a2.48,2.48,0,0,1-2.47-2.47h0A2.47,2.47,0,0,1,235.1,252.34Z" transform="translate(0 -50)"/><path class="cls-5" d="M326.89,252.34h72.73a2.47,2.47,0,0,1,2.47,2.47h0a2.48,2.48,0,0,1-2.47,2.47H326.89a2.48,2.48,0,0,1-2.47-2.47h0A2.47,2.47,0,0,1,326.89,252.34Z" transform="translate(0 -50)"/><path class="cls-5" d="M454.69,252.34h99.55a2.47,2.47,0,0,1,2.48,2.47h0a2.48,2.48,0,0,1-2.48,2.47H454.69a2.48,2.48,0,0,1-2.47-2.47h0A2.47,2.47,0,0,1,454.69,252.34Z" transform="translate(0 -50)"/><path class="cls-5" d="M91.07,245.27h19.06a2.47,2.47,0,0,1,2.47,2.48h0a2.47,2.47,0,0,1-2.47,2.47H91.07a2.47,2.47,0,0,1-2.47-2.47h0A2.47,2.47,0,0,1,91.07,245.27Z" transform="translate(0 -50)"/><rect class="cls-3" x="70.55" y="243.54" width="566.34" height="53.17" rx="5.95"/><ellipse cx="595.9" cy="273.37" rx="1.06" ry="0.97"/><ellipse cx="600.14" cy="273.37" rx="1.06" ry="0.97"/><ellipse cx="604.37" cy="273.37" rx="1.06" ry="0.97"/><path class="cls-4" d="M145.43,308.2h68.49a4.58,4.58,0,0,1,4.59,4.59h0a4.58,4.58,0,0,1-4.59,4.58H145.43a4.59,4.59,0,0,1-4.59-4.58h0A4.59,4.59,0,0,1,145.43,308.2Z" transform="translate(0 -50)"/><path class="cls-4" d="M456.81,308.2h28.24a4.58,4.58,0,0,1,4.59,4.59h0a4.58,4.58,0,0,1-4.59,4.58H456.81a4.58,4.58,0,0,1-4.59-4.58h0A4.58,4.58,0,0,1,456.81,308.2Z" transform="translate(0 -50)"/><rect class="cls-5" x="140.84" y="275.14" width="77.67" height="4.94" rx="2.47"/><rect class="cls-5" x="232.63" y="275.14" width="77.67" height="4.94" rx="2.47"/><rect class="cls-5" x="324.42" y="275.14" width="77.67" height="4.94" rx="2.47"/><rect class="cls-5" x="452.22" y="275.14" width="104.5" height="4.94" rx="2.47"/><rect class="cls-5" x="88.6" y="268.08" width="24.01" height="4.94" rx="2.47"/><rect class="cls-6" x="610.43" y="0.43" width="258.23" height="319.37" rx="8.18"/><path d="M646,75.75h-3.92V86.41h-2.64V75.75h-3.87V73.61H646Zm4.17,7.06,1.76-5.91h2.72l-3.82,11-.21.51a2.89,2.89,0,0,1-2.81,1.86,4.08,4.08,0,0,1-1.13-.17V88.16h.39a2.11,2.11,0,0,0,1.07-.22,1.49,1.49,0,0,0,.57-.73l.29-.79-3.33-9.53h2.74Zm14.05-1.07a5.77,5.77,0,0,1-1,3.53,3.22,3.22,0,0,1-2.69,1.31,3,3,0,0,1-2.33-1v4.48h-2.54V76.9H658l.09.93a3,3,0,0,1,2.41-1.11,3.23,3.23,0,0,1,2.73,1.3,5.89,5.89,0,0,1,1,3.59Zm-2.54-.18a3.68,3.68,0,0,0-.48-2,1.51,1.51,0,0,0-1.36-.72,1.65,1.65,0,0,0-1.64.91v3.9a1.7,1.7,0,0,0,1.66.94C661.08,84.54,661.69,83.54,661.69,81.56Zm8.5,5a4.66,4.66,0,0,1-3.41-1.28,4.54,4.54,0,0,1-1.31-3.42v-.24a5.7,5.7,0,0,1,.55-2.56,4,4,0,0,1,1.57-1.74,4.4,4.4,0,0,1,2.32-.62A3.91,3.91,0,0,1,673,78a5,5,0,0,1,1.13,3.49v1H668a2.34,2.34,0,0,0,.74,1.49,2.25,2.25,0,0,0,1.57.57,2.75,2.75,0,0,0,2.3-1.07l1.25,1.4a3.9,3.9,0,0,1-1.55,1.27A5.24,5.24,0,0,1,670.19,86.58Zm-.29-7.8a1.58,1.58,0,0,0-1.23.51,2.58,2.58,0,0,0-.6,1.46h3.53v-.2a1.88,1.88,0,0,0-.45-1.31A1.65,1.65,0,0,0,669.9,78.78Zm9.74,2.79a5.7,5.7,0,0,1,.54-2.53,3.92,3.92,0,0,1,1.56-1.71,4.57,4.57,0,0,1,2.39-.61,4.27,4.27,0,0,1,3.13,1.18,4.73,4.73,0,0,1,1.37,3.2v.65a5,5,0,0,1-1.22,3.52,4.76,4.76,0,0,1-6.56,0,5.06,5.06,0,0,1-1.22-3.59Zm2.53.18a3.55,3.55,0,0,0,.51,2.07,1.68,1.68,0,0,0,1.46.72,1.71,1.71,0,0,0,1.45-.71,3.93,3.93,0,0,0,.51-2.26,3.54,3.54,0,0,0-.51-2.06,1.69,1.69,0,0,0-1.46-.73,1.66,1.66,0,0,0-1.45.73A3.92,3.92,0,0,0,682.17,81.75Zm8.73,4.66V78.76h-1.41V76.9h1.41v-.81a3.28,3.28,0,0,1,.92-2.48,3.55,3.55,0,0,1,2.57-.89,5.8,5.8,0,0,1,1.29.18l0,2a3.4,3.4,0,0,0-.78-.08c-1,0-1.43.45-1.43,1.34v.77h1.89v1.86h-1.89v7.65Zm10.41,0V73.61h4.48a5.84,5.84,0,0,1,3.53.9,3,3,0,0,1,1.21,2.61,2.87,2.87,0,0,1-.49,1.66,2.8,2.8,0,0,1-1.34,1,2.72,2.72,0,0,1,1.55,1,2.94,2.94,0,0,1,.57,1.83,3.35,3.35,0,0,1-1.18,2.79,5.31,5.31,0,0,1-3.36,1ZM704,80.84v3.45h2.25a2.17,2.17,0,0,0,1.45-.44,1.51,1.51,0,0,0,.53-1.23,1.6,1.6,0,0,0-1.82-1.78ZM704,79h1.95c1.33,0,2-.55,2-1.59a1.47,1.47,0,0,0-.51-1.25,2.66,2.66,0,0,0-1.59-.38H704Zm14.38,6.47a3.17,3.17,0,0,1-2.6,1.14,3,3,0,0,1-2.34-.88,3.75,3.75,0,0,1-.81-2.57V76.9h2.54V83c0,1,.45,1.49,1.35,1.49a1.82,1.82,0,0,0,1.77-.9V76.9h2.55v9.51H718.4Zm7.93-2.63L728,76.9h2.72l-3.82,11-.21.51a2.9,2.9,0,0,1-2.81,1.86,4.08,4.08,0,0,1-1.13-.17V88.16h.39a2.11,2.11,0,0,0,1.07-.22,1.42,1.42,0,0,0,.56-.73l.3-.79-3.33-9.53h2.73Z" transform="translate(0 -50)"/><path d="M659,124.47h-3.85v4.06h-1.22v-9.2h5.7v1h-4.48v3.15H659Zm5-1.73a3.52,3.52,0,0,0-.58,0,1.55,1.55,0,0,0-1.56,1v4.85h-1.17V121.7h1.14l0,.79a1.81,1.81,0,0,1,1.63-.92,1.21,1.21,0,0,1,.52.09Zm3.78,5.91a3,3,0,0,1-2.26-.91,3.39,3.39,0,0,1-.87-2.44v-.21a4.09,4.09,0,0,1,.39-1.82,3.07,3.07,0,0,1,1.08-1.25,2.76,2.76,0,0,1,1.52-.45,2.56,2.56,0,0,1,2.07.88,3.8,3.8,0,0,1,.74,2.51v.49h-4.63a2.44,2.44,0,0,0,.59,1.63,1.85,1.85,0,0,0,1.43.62,2.09,2.09,0,0,0,1-.25,2.52,2.52,0,0,0,.75-.67l.72.55A2.87,2.87,0,0,1,667.8,128.65Zm-.14-6.12a1.55,1.55,0,0,0-1.19.52,2.44,2.44,0,0,0-.59,1.44h3.42v-.09a2.24,2.24,0,0,0-.48-1.38A1.45,1.45,0,0,0,667.66,122.53Zm3.88,2.52a4,4,0,0,1,.74-2.54,2.6,2.6,0,0,1,3.89-.13l.05-.68h1.08v9.45h-1.17v-3.26a2.43,2.43,0,0,1-1.88.76,2.36,2.36,0,0,1-2-1,4.09,4.09,0,0,1-.73-2.55Zm1.17.14a3,3,0,0,0,.49,1.84,1.58,1.58,0,0,0,1.34.67,1.76,1.76,0,0,0,1.59-.92v-3.35a1.76,1.76,0,0,0-1.58-.9,1.56,1.56,0,0,0-1.34.68A3.21,3.21,0,0,0,672.71,125.19Zm10.68,2.66a2.5,2.5,0,0,1-2,.8,2.14,2.14,0,0,1-1.67-.63,2.73,2.73,0,0,1-.57-1.88V121.7h1.16v4.41c0,1,.42,1.55,1.27,1.55a1.75,1.75,0,0,0,1.78-1v-5h1.17v6.83h-1.12Zm5.75.8a3,3,0,0,1-2.26-.91,3.39,3.39,0,0,1-.87-2.44v-.21a4.23,4.23,0,0,1,.38-1.82,3.09,3.09,0,0,1,1.09-1.25,2.75,2.75,0,0,1,1.51-.45,2.57,2.57,0,0,1,2.08.88,3.8,3.8,0,0,1,.73,2.51v.49h-4.62a2.43,2.43,0,0,0,.58,1.63,1.88,1.88,0,0,0,1.44.62,2.15,2.15,0,0,0,1-.25,2.52,2.52,0,0,0,.75-.67l.72.55A2.89,2.89,0,0,1,689.14,128.65Zm-.15-6.12a1.53,1.53,0,0,0-1.18.52,2.51,2.51,0,0,0-.6,1.44h3.43v-.09a2.3,2.3,0,0,0-.48-1.38A1.48,1.48,0,0,0,689,122.53Zm5.28-.83,0,.86a2.51,2.51,0,0,1,2.05-1c1.44,0,2.17.81,2.18,2.44v4.52h-1.17V124a1.53,1.53,0,0,0-.34-1.1,1.36,1.36,0,0,0-1-.35,1.68,1.68,0,0,0-1,.3,2.09,2.09,0,0,0-.67.8v4.87h-1.17V121.7Zm8.76,6a1.73,1.73,0,0,0,1.1-.38,1.32,1.32,0,0,0,.51-.95h1.11a2.11,2.11,0,0,1-.41,1.12,2.57,2.57,0,0,1-1,.85,2.88,2.88,0,0,1-1.32.31,2.82,2.82,0,0,1-2.22-.93,3.71,3.71,0,0,1-.82-2.55V125a4,4,0,0,1,.37-1.77,2.76,2.76,0,0,1,1-1.21,2.92,2.92,0,0,1,1.62-.43,2.71,2.71,0,0,1,1.9.69,2.47,2.47,0,0,1,.82,1.78h-1.11a1.57,1.57,0,0,0-.5-1.08,1.53,1.53,0,0,0-1.11-.43,1.61,1.61,0,0,0-1.38.64,3,3,0,0,0-.49,1.85v.22a2.9,2.9,0,0,0,.49,1.82A1.61,1.61,0,0,0,703,127.7Zm6.27-.88,1.59-5.12h1.25l-2.75,7.88c-.42,1.14-1.1,1.71-2,1.71l-.22,0-.43-.09v-.94l.31,0A1.56,1.56,0,0,0,708,130a1.71,1.71,0,0,0,.54-.87l.26-.7-2.43-6.75h1.27Z" transform="translate(0 -50)"/><path d="M655.37,185h-1.21v-9.19h1.21Zm3.14-6.83,0,.76a2.51,2.51,0,0,1,2-.89,2,2,0,0,1,2,1.1,2.59,2.59,0,0,1,2.18-1.1c1.5,0,2.26.8,2.29,2.38V185h-1.17v-4.51a1.53,1.53,0,0,0-.34-1.09,1.46,1.46,0,0,0-1.12-.36,1.51,1.51,0,0,0-1.08.39,1.54,1.54,0,0,0-.5,1V185H661.6v-4.48a1.3,1.3,0,0,0-1.46-1.48,1.55,1.55,0,0,0-1.57,1v5H657.4v-6.83Zm16,3.49a4,4,0,0,1-.71,2.51,2.27,2.27,0,0,1-1.93,1,2.54,2.54,0,0,1-2-.79v3.29h-1.17v-9.46h1.07l.06.76a2.39,2.39,0,0,1,2-.89,2.3,2.3,0,0,1,1.94.93,4.12,4.12,0,0,1,.72,2.58Zm-1.16-.13a3,3,0,0,0-.5-1.83,1.57,1.57,0,0,0-1.35-.66,1.71,1.71,0,0,0-1.59.94v3.26a1.72,1.72,0,0,0,1.61.93,1.57,1.57,0,0,0,1.33-.66A3.32,3.32,0,0,0,673.35,181.53Zm5.95-2.31a3.27,3.27,0,0,0-.57-.05,1.55,1.55,0,0,0-1.56,1V185H676v-6.83h1.14l0,.79a1.81,1.81,0,0,1,1.63-.92,1.11,1.11,0,0,1,.51.09Zm3.79,5.91a3,3,0,0,1-2.26-.91,3.41,3.41,0,0,1-.87-2.45v-.21a4,4,0,0,1,.39-1.81,3,3,0,0,1,1.08-1.25A2.77,2.77,0,0,1,683,178a2.57,2.57,0,0,1,2.07.88,3.81,3.81,0,0,1,.74,2.51v.49h-4.63a2.42,2.42,0,0,0,.59,1.63,1.84,1.84,0,0,0,1.44.62,2,2,0,0,0,1-.25,2.68,2.68,0,0,0,.76-.67l.71.56A2.87,2.87,0,0,1,683.09,185.13ZM683,179a1.58,1.58,0,0,0-1.19.52,2.44,2.44,0,0,0-.59,1.44h3.42v-.09a2.26,2.26,0,0,0-.48-1.38A1.5,1.5,0,0,0,683,179Zm8.14,4.19a.84.84,0,0,0-.36-.73,3.38,3.38,0,0,0-1.24-.46,6,6,0,0,1-1.41-.45,2.08,2.08,0,0,1-.77-.63,1.59,1.59,0,0,1-.25-.88,1.8,1.8,0,0,1,.71-1.42,3.2,3.2,0,0,1,3.7,0,1.92,1.92,0,0,1,.73,1.54H691a1.07,1.07,0,0,0-.41-.83,1.52,1.52,0,0,0-1-.35,1.63,1.63,0,0,0-1,.28.89.89,0,0,0-.36.73.69.69,0,0,0,.34.63,3.83,3.83,0,0,0,1.2.41,6.19,6.19,0,0,1,1.42.47,2,2,0,0,1,.8.66,1.55,1.55,0,0,1,.27.93,1.77,1.77,0,0,1-.73,1.47,3.12,3.12,0,0,1-1.9.55,3.52,3.52,0,0,1-1.46-.29,2.49,2.49,0,0,1-1-.81,2,2,0,0,1-.35-1.13H688a1.18,1.18,0,0,0,.47.93,1.82,1.82,0,0,0,1.16.34,1.87,1.87,0,0,0,1.06-.26A.82.82,0,0,0,691.09,183.19Zm6.67,0a.84.84,0,0,0-.36-.73,3.37,3.37,0,0,0-1.25-.46,5.76,5.76,0,0,1-1.4-.45,2,2,0,0,1-.77-.63,1.52,1.52,0,0,1-.25-.88,1.8,1.8,0,0,1,.71-1.42,2.81,2.81,0,0,1,1.81-.58,2.86,2.86,0,0,1,1.89.6,1.91,1.91,0,0,1,.72,1.54h-1.17a1.07,1.07,0,0,0-.41-.83,1.53,1.53,0,0,0-1-.35,1.62,1.62,0,0,0-1,.28.89.89,0,0,0-.36.73.7.7,0,0,0,.33.63,4,4,0,0,0,1.21.41,6.36,6.36,0,0,1,1.42.47,2,2,0,0,1,.8.66,1.55,1.55,0,0,1,.26.93,1.75,1.75,0,0,1-.73,1.47,3.12,3.12,0,0,1-1.9.55,3.47,3.47,0,0,1-1.45-.29,2.49,2.49,0,0,1-1-.81,2,2,0,0,1-.35-1.13h1.16a1.21,1.21,0,0,0,.47.93,1.82,1.82,0,0,0,1.16.34,1.85,1.85,0,0,0,1.06-.26A.83.83,0,0,0,697.76,183.19Zm4,1.81h-1.17v-6.83h1.17Zm-1.27-8.64a.72.72,0,0,1,.17-.48.78.78,0,0,1,1,0,.68.68,0,0,1,.18.48.64.64,0,0,1-.18.47.81.81,0,0,1-1,0A.68.68,0,0,1,700.45,176.36Zm2.83,5.16a4,4,0,0,1,.39-1.8,3,3,0,0,1,1.1-1.24,3,3,0,0,1,1.61-.44,2.88,2.88,0,0,1,2.25,1,3.69,3.69,0,0,1,.87,2.57v.08a4,4,0,0,1-.39,1.79,2.78,2.78,0,0,1-1.09,1.23,3,3,0,0,1-1.63.45,2.91,2.91,0,0,1-2.25-1,3.72,3.72,0,0,1-.86-2.56Zm1.18.14a2.94,2.94,0,0,0,.52,1.83,1.8,1.8,0,0,0,2.83,0,3.22,3.22,0,0,0,.52-2,2.9,2.9,0,0,0-.54-1.82,1.77,1.77,0,0,0-2.81,0A3.21,3.21,0,0,0,704.46,181.66Zm7.61-3.49,0,.86a2.47,2.47,0,0,1,2-1c1.44,0,2.17.82,2.19,2.45V185h-1.17v-4.52a1.59,1.59,0,0,0-.34-1.09,1.34,1.34,0,0,0-1-.35,1.71,1.71,0,0,0-1,.3,2,2,0,0,0-.67.79V185H711v-6.83Zm10,5a.84.84,0,0,0-.36-.73,3.31,3.31,0,0,0-1.24-.46,6,6,0,0,1-1.41-.45,2.16,2.16,0,0,1-.77-.63,1.59,1.59,0,0,1-.24-.88,1.79,1.79,0,0,1,.7-1.42,3.2,3.2,0,0,1,3.7,0,1.89,1.89,0,0,1,.73,1.54H722a1,1,0,0,0-.41-.83,1.52,1.52,0,0,0-1-.35,1.65,1.65,0,0,0-1,.28.89.89,0,0,0-.36.73.71.71,0,0,0,.34.63,3.83,3.83,0,0,0,1.2.41,6.19,6.19,0,0,1,1.42.47,2,2,0,0,1,.81.66,1.62,1.62,0,0,1,.26.93,1.75,1.75,0,0,1-.73,1.47,3.12,3.12,0,0,1-1.9.55,3.47,3.47,0,0,1-1.45-.29,2.49,2.49,0,0,1-1-.81,2,2,0,0,1-.36-1.13H719a1.21,1.21,0,0,0,.47.93,1.82,1.82,0,0,0,1.16.34,1.87,1.87,0,0,0,1.06-.26A.82.82,0,0,0,722.07,183.19Zm12.87.6a2.85,2.85,0,0,1-1.31,1,5.22,5.22,0,0,1-1.94.33,3.81,3.81,0,0,1-2-.53,3.52,3.52,0,0,1-1.35-1.5,5.17,5.17,0,0,1-.48-2.25V180a4.89,4.89,0,0,1,1-3.22,3.4,3.4,0,0,1,2.73-1.14,3.46,3.46,0,0,1,2.31.74,3.17,3.17,0,0,1,1.08,2.08h-1.21a2,2,0,0,0-2.18-1.82,2.14,2.14,0,0,0-1.84.86,4.18,4.18,0,0,0-.64,2.47v.75a4,4,0,0,0,.71,2.47,2.3,2.3,0,0,0,1.91.9,3.94,3.94,0,0,0,1.2-.15,1.8,1.8,0,0,0,.84-.51v-2.06H731.6v-1h3.34Zm1.53-2.27a4,4,0,0,1,.39-1.8,3,3,0,0,1,1.1-1.24,3,3,0,0,1,1.61-.44,2.91,2.91,0,0,1,2.26,1,3.73,3.73,0,0,1,.86,2.57v.08a4,4,0,0,1-.39,1.79,2.78,2.78,0,0,1-1.09,1.23,3,3,0,0,1-1.62.45,2.91,2.91,0,0,1-2.26-1,3.72,3.72,0,0,1-.86-2.56Zm1.18.14a2.94,2.94,0,0,0,.52,1.83,1.7,1.7,0,0,0,1.42.68,1.68,1.68,0,0,0,1.41-.69,3.22,3.22,0,0,0,.52-2,3,3,0,0,0-.53-1.82,1.72,1.72,0,0,0-1.42-.7,1.66,1.66,0,0,0-1.39.69A3.14,3.14,0,0,0,737.65,181.66ZM748.37,185a2.26,2.26,0,0,1-.16-.72,2.64,2.64,0,0,1-2,.85,2.44,2.44,0,0,1-1.66-.57,1.85,1.85,0,0,1-.64-1.45,1.93,1.93,0,0,1,.81-1.66,3.84,3.84,0,0,1,2.28-.59h1.14v-.54a1.27,1.27,0,0,0-.37-1,1.47,1.47,0,0,0-1.08-.37,1.69,1.69,0,0,0-1,.32.91.91,0,0,0-.43.76H744.1a1.58,1.58,0,0,1,.36-1,2.51,2.51,0,0,1,1-.76,3.46,3.46,0,0,1,1.37-.28,2.66,2.66,0,0,1,1.85.6,2.11,2.11,0,0,1,.7,1.62v3.14a3.85,3.85,0,0,0,.24,1.5v.1Zm-1.94-.89a2.1,2.1,0,0,0,1-.28,1.76,1.76,0,0,0,.72-.74v-1.4h-.92c-1.43,0-2.14.41-2.14,1.25a1.07,1.07,0,0,0,.36.86A1.4,1.4,0,0,0,746.43,184.11Zm6,.89h-1.17v-9.7h1.17Z" transform="translate(0 -50)"/><path d="M656.62,215.76a5.7,5.7,0,0,1-2.27-1.1,2.1,2.1,0,0,1-.71-1.61,2.2,2.2,0,0,1,.87-1.79,3.42,3.42,0,0,1,2.26-.72,3.64,3.64,0,0,1,1.68.37,2.71,2.71,0,0,1,1.15,1,2.52,2.52,0,0,1,.41,1.41h-1.22a1.65,1.65,0,0,0-.53-1.31,2.14,2.14,0,0,0-1.49-.48,2.16,2.16,0,0,0-1.4.4,1.28,1.28,0,0,0-.5,1.09,1.21,1.21,0,0,0,.47.95,4.61,4.61,0,0,0,1.62.71,7.22,7.22,0,0,1,1.8.71,2.79,2.79,0,0,1,1,.9,2.33,2.33,0,0,1,.31,1.22,2.16,2.16,0,0,1-.87,1.8,3.77,3.77,0,0,1-2.33.67,4.38,4.38,0,0,1-1.77-.36,3.14,3.14,0,0,1-1.27-1,2.47,2.47,0,0,1-.44-1.43h1.22a1.6,1.6,0,0,0,.61,1.31,2.65,2.65,0,0,0,1.65.48,2.38,2.38,0,0,0,1.47-.39,1.38,1.38,0,0,0,0-2.11A5.67,5.67,0,0,0,656.62,215.76Zm6-1.9a2.46,2.46,0,0,1,2-1c1.44,0,2.17.82,2.18,2.45v4.51h-1.17v-4.52a1.55,1.55,0,0,0-.34-1.09,1.33,1.33,0,0,0-1-.36,1.65,1.65,0,0,0-1,.31,2,2,0,0,0-.66.79v4.87h-1.17v-9.7h1.17Zm10.16,6a2.59,2.59,0,0,1-.16-.72,2.62,2.62,0,0,1-1.94.85,2.41,2.41,0,0,1-1.66-.57,1.88,1.88,0,0,1-.65-1.46,1.92,1.92,0,0,1,.81-1.65,3.88,3.88,0,0,1,2.29-.59h1.13v-.54a1.31,1.31,0,0,0-.36-1,1.46,1.46,0,0,0-1.08-.37,1.7,1.7,0,0,0-1,.32.92.92,0,0,0-.42.76h-1.18a1.58,1.58,0,0,1,.36-1,2.55,2.55,0,0,1,1-.76,3.23,3.23,0,0,1,1.37-.28,2.69,2.69,0,0,1,1.85.6,2.14,2.14,0,0,1,.69,1.62v3.14a3.85,3.85,0,0,0,.24,1.5v.1Zm-1.93-.89a2.07,2.07,0,0,0,1-.29,1.66,1.66,0,0,0,.71-.73v-1.41h-.91c-1.43,0-2.15.42-2.15,1.26a1.05,1.05,0,0,0,.37.86A1.37,1.37,0,0,0,670.81,219Zm8.05-4.89a3.45,3.45,0,0,0-.57-.05,1.54,1.54,0,0,0-1.56,1v4.85h-1.17V213h1.14l0,.79a1.81,1.81,0,0,1,1.62-.92,1.18,1.18,0,0,1,.52.09Zm3.79,5.91a3,3,0,0,1-2.26-.91,3.41,3.41,0,0,1-.87-2.45v-.21a4.18,4.18,0,0,1,.38-1.81,3,3,0,0,1,1.09-1.25,2.69,2.69,0,0,1,1.52-.46,2.6,2.6,0,0,1,2.07.88,3.81,3.81,0,0,1,.73,2.51v.49h-4.62a2.41,2.41,0,0,0,.58,1.63,1.85,1.85,0,0,0,1.44.62,2,2,0,0,0,1-.25,2.52,2.52,0,0,0,.75-.67l.71.56A2.86,2.86,0,0,1,682.65,220Zm-.14-6.13a1.57,1.57,0,0,0-1.19.52,2.51,2.51,0,0,0-.6,1.44h3.43v-.09a2.32,2.32,0,0,0-.48-1.38A1.5,1.5,0,0,0,682.51,213.86Zm7.06,2.52a4,4,0,0,1,.39-1.8,2.89,2.89,0,0,1,1.1-1.24,3,3,0,0,1,1.61-.44,2.88,2.88,0,0,1,2.25,1,3.69,3.69,0,0,1,.87,2.57v.08a4,4,0,0,1-.39,1.79,2.84,2.84,0,0,1-1.09,1.23,3,3,0,0,1-1.63.45,2.89,2.89,0,0,1-2.25-1,3.67,3.67,0,0,1-.86-2.56Zm1.17.14a2.92,2.92,0,0,0,.53,1.82,1.79,1.79,0,0,0,2.82,0,3.22,3.22,0,0,0,.53-2,2.9,2.9,0,0,0-.54-1.82,1.77,1.77,0,0,0-2.81,0A3.21,3.21,0,0,0,690.74,216.52Zm7.09,3.34v-5.93h-1.08V213h1.08v-.7a2.34,2.34,0,0,1,.58-1.7,2.22,2.22,0,0,1,1.66-.6,3.09,3.09,0,0,1,.8.11l-.06,1a3.21,3.21,0,0,0-.63-.06,1.15,1.15,0,0,0-.88.33,1.37,1.37,0,0,0-.31.95V213h1.46v.9H699v5.93Zm10.35-1.61,2.62-7.58h1.33l-3.41,9.19h-1.07l-3.41-9.19h1.33Zm4.4-1.87a4,4,0,0,1,.4-1.8,2.94,2.94,0,0,1,1.09-1.24,3,3,0,0,1,1.61-.44,2.91,2.91,0,0,1,2.26,1,3.73,3.73,0,0,1,.86,2.57v.08a4.16,4.16,0,0,1-.38,1.79,2.9,2.9,0,0,1-1.09,1.23,3,3,0,0,1-1.63.45,2.91,2.91,0,0,1-2.26-1,3.72,3.72,0,0,1-.86-2.56Zm1.18.14a2.91,2.91,0,0,0,.52,1.82,1.71,1.71,0,0,0,1.42.69,1.68,1.68,0,0,0,1.41-.69,3.22,3.22,0,0,0,.53-2,2.9,2.9,0,0,0-.54-1.82,1.72,1.72,0,0,0-1.42-.7,1.67,1.67,0,0,0-1.39.69A3.14,3.14,0,0,0,713.76,216.52Zm7.78,3.34h-1.17V213h1.17Zm-1.27-8.64a.72.72,0,0,1,.17-.48.78.78,0,0,1,1,0,.68.68,0,0,1,.18.48.66.66,0,0,1-.18.47.81.81,0,0,1-1,0A.7.7,0,0,1,720.27,211.22Zm5.88,7.81a1.63,1.63,0,0,0,1.09-.38,1.31,1.31,0,0,0,.52-.94h1.1a2.06,2.06,0,0,1-.4,1.11,2.6,2.6,0,0,1-1,.85,2.85,2.85,0,0,1-1.31.32,2.82,2.82,0,0,1-2.22-.93,3.72,3.72,0,0,1-.82-2.55v-.2a4.15,4.15,0,0,1,.36-1.77,2.89,2.89,0,0,1,1-1.21,3.06,3.06,0,0,1,1.62-.43,2.73,2.73,0,0,1,1.91.69,2.45,2.45,0,0,1,.81,1.79h-1.1a1.59,1.59,0,0,0-1.62-1.52,1.64,1.64,0,0,0-1.38.65,3,3,0,0,0-.48,1.85v.22a3,3,0,0,0,.48,1.82A1.66,1.66,0,0,0,726.15,219Zm6.86,1a3,3,0,0,1-2.26-.91,3.41,3.41,0,0,1-.87-2.45v-.21a4,4,0,0,1,.39-1.81,3,3,0,0,1,1.08-1.25,2.69,2.69,0,0,1,1.52-.46,2.57,2.57,0,0,1,2.07.88,3.81,3.81,0,0,1,.74,2.51v.49h-4.63a2.42,2.42,0,0,0,.59,1.63,1.84,1.84,0,0,0,1.44.62,2,2,0,0,0,1-.25,2.52,2.52,0,0,0,.75-.67l.72.56A2.87,2.87,0,0,1,733,220Zm-.14-6.13a1.58,1.58,0,0,0-1.19.52,2.44,2.44,0,0,0-.59,1.44h3.42v-.09a2.26,2.26,0,0,0-.48-1.38A1.5,1.5,0,0,0,732.87,213.86Z" transform="translate(0 -50)"/><rect class="cls-7" x="636.43" y="52.37" width="203.09" height="46.36" rx="9.5"/><rect class="cls-7" x="636.43" y="106.49" width="203.09" height="186.18" rx="9.5"/><path class="cls-8" d="M812.87,124.8a1,1,0,0,1,0-1.42l.18-.18a1,1,0,0,1,1.42,0l4.48,4.49a1,1,0,0,0,1.45,0l4-4.39a1,1,0,0,1,1.41-.06l.19.17a1,1,0,0,1,.06,1.41l-5.61,6.13a1,1,0,0,1-1.45,0Z" transform="translate(0 -50)"/><path class="cls-5" d="M656.5,237h97a3.5,3.5,0,0,1,3.5,3.5h0a3.5,3.5,0,0,1-3.5,3.5h-97a3.5,3.5,0,0,1-3.5-3.5h0A3.5,3.5,0,0,1,656.5,237Z" transform="translate(0 -50)"/><path class="cls-5" d="M656.5,257h97a3.5,3.5,0,0,1,3.5,3.5h0a3.5,3.5,0,0,1-3.5,3.5h-97a3.5,3.5,0,0,1-3.5-3.5h0A3.5,3.5,0,0,1,656.5,257Z" transform="translate(0 -50)"/><path class="cls-5" d="M656.5,277h97a3.5,3.5,0,0,1,3.5,3.5h0a3.5,3.5,0,0,1-3.5,3.5h-97a3.5,3.5,0,0,1-3.5-3.5h0A3.5,3.5,0,0,1,656.5,277Z" transform="translate(0 -50)"/><path class="cls-5" d="M656.5,297h97a3.5,3.5,0,0,1,3.5,3.5h0a3.5,3.5,0,0,1-3.5,3.5h-97a3.5,3.5,0,0,1-3.5-3.5h0A3.5,3.5,0,0,1,656.5,297Z" transform="translate(0 -50)"/><path class="cls-9" d="M594.31,363.84s-2,3-2.9,4-.2,1.7-.2,1.7l2-.6,2.2-1.8,2.7-2.1Z" transform="translate(0 -50)"/><path class="cls-9" d="M607.41,278.74a44.55,44.55,0,0,1-5.7,9.4,14.13,14.13,0,0,1-5.5,4.4c-.1,0-.2.1-.3.1a77.24,77.24,0,0,1-14,2.9c.1-.3-1.5-2.6-1.5-2.6.5,0,9.3-6.7,11.5-7.4.7-.2,11.5-23.1,12.5-23.8,1.3-1,2.8-1.5,3.9-.7C612.11,263.74,611.11,271.24,607.41,278.74Z" transform="translate(0 -50)"/><path class="cls-10" d="M602.71,262.64c-.5,1.1,8.8.5,10.6-.3,3.4-1.6,4.8-7.1,3.6-10.5A11.29,11.29,0,0,0,614,247c-1.2-1.1-2.3-.6-3.8-.5h-.1c-.2-.1-1.8,1.2-1.9,1.5-1.2,2.8-1.1,4.5-2.3,7.3C605.51,256.34,604.51,258.84,602.71,262.64Z" transform="translate(0 -50)"/><path class="cls-9" d="M636.81,359.14l-3.4,1.8s-2.4-3.5-4.5-6.4-15.3-17-15.3-17c-4.3-6.4,1.6-17.8,1.6-17.8l9.7,3.2s-2.3,6.2-2.1,6.4c.3.4.6.9,1,1.4a32.68,32.68,0,0,1,4.7,8.9c.8,2.4,4,9.9,6.1,14.9C636,357.24,636.81,359.14,636.81,359.14Z" transform="translate(0 -50)"/><path class="cls-9" d="M607.71,320.54s-.9,10.7-1.5,13.3c-.1.3-.1.7-.2,1.1v.1c-.3,2.3-2.7,9.2-6.9,24.8,0,.2-.1.3-.1.4a34.52,34.52,0,0,0-1,5.2l-3.7-1.6s.5-3.5.8-7-.3-22.9-.3-22.9c1-7.6,7.7-22.2,7.7-22.2Z" transform="translate(0 -50)"/><path class="cls-11" d="M628.71,339.64a28.89,28.89,0,0,0-4.7-8.9,3.08,3.08,0,0,0-1.6.2.53.53,0,0,0-.7.5c0,.2,0,.4.2.5a56.6,56.6,0,0,0,5.7,10.2,71.35,71.35,0,0,1,6.3,12.3.49.49,0,0,0,.8.2C632.71,349.64,629.51,342.14,628.71,339.64Z" transform="translate(0 -50)"/><path class="cls-11" d="M601,333.54c-.4-.1-.6.3-.6.7s.2.9.3,1.3a21.9,21.9,0,0,0-2.2-2c-.5-.4-1.2.4-.6.8a21.3,21.3,0,0,1,3.1,2.9c.6,7.2-2.9,14.4-2.3,21.7a3.71,3.71,0,0,0,.4,1.5c0-.1.1-.3.1-.4,4.2-15.6,6.6-22.5,6.9-24.8C604.61,334.14,602.41,333.94,601,333.54Z" transform="translate(0 -50)"/><path class="cls-12" d="M628,330.64a41.51,41.51,0,0,1-5.3,2.3c-8.1,3-23.6,6.8-35.2-2.3,0,0,8.1-.7,6.5-10.9-2-13.1,3.1-33.2,10.8-35.8s18.2,2.4,18.2,2.4a13,13,0,0,1,4,4.3,17,17,0,0,1,2.4,9.1C629.41,307.64,622.21,313.44,628,330.64Z" transform="translate(0 -50)"/><path class="cls-13" d="M629.41,299.74c.4-5.9-3.8-11.8-5.1-14-1.3.3-5.6,1.8-5.3,2.1,7.4,7.5,4,20.8,1.8,28a19.52,19.52,0,0,0-.7,9.9,36.92,36.92,0,0,0,1.9,5.6c.2.5.4,1.1.7,1.7a41.51,41.51,0,0,0,5.3-2.3C622.21,313.44,628.81,307.54,629.41,299.74Z" transform="translate(0 -50)"/><path class="cls-14" d="M599.61,285.74c15,6.6,25.3.1,24.4-1.9a9.48,9.48,0,0,1-.8-3.5,31,31,0,0,1,0-5.3,11.28,11.28,0,0,1,.2-1.4v-.1c1.2-6,3.8-13.2-3.2-15.4a13.12,13.12,0,0,0-3.1-.6,32.15,32.15,0,0,0-4.4,0,35.39,35.39,0,0,0-4.6,2c-.8.4-1.7.9-2.6,1.4-2.5,1.6-3.1,4.8-3,6.9.1,1.5,2.2,5.6,2.1,6.4C603.51,280,600.81,283.64,599.61,285.74Z" transform="translate(0 -50)"/><path class="cls-15" d="M608.41,274.14c2.2,1.7,5.3,1.7,7.9,2.7,2.3.9,4.6,3,7,3.5a31,31,0,0,1,0-5.3.1.1,0,0,0-.1-.1c.1-.4.1-.8.2-1.3v-.1a9.83,9.83,0,0,0-2.2-2.8c-2.9-2.7-2.6-9.5-2.6-9.5-.7,3.4-.3,8.5.8,10.6a18.16,18.16,0,0,0,2.3,3.3v.1c.1,1.1-6.7-1.1-7.5-1.4a16.91,16.91,0,0,0-5.5-.6A.49.49,0,0,0,608.41,274.14Z" transform="translate(0 -50)"/><path class="cls-9" d="M609.91,255.44v2.8s-.8,1.4,0,1.5c1.7.3,4.1-2.3,4.1-2.3v-3.8Z" transform="translate(0 -50)"/><path class="cls-11" d="M614,256.14v-2.2s-2.1,2-4.1,2.1A4.37,4.37,0,0,0,614,256.14Z" transform="translate(0 -50)"/><path class="cls-9" d="M609.11,247.24a22.26,22.26,0,0,0-1.9,5.9c-.3,2,3.4,4.7,6.4,1.8s2.2-7.2,2.2-7.2Z" transform="translate(0 -50)"/><path class="cls-16" d="M598.51,362.34a2.86,2.86,0,0,1,.7,2.6,14.63,14.63,0,0,0-5.6,5.9c-.5.9-3.2.2-4.3.2,0,0-1.1-.5-.3-1.7.3-.5,1.8-1.1,2.2-1.5C591.91,369.34,594.71,367.14,598.51,362.34Z" transform="translate(0 -50)"/><path class="cls-16" d="M599.21,364.94l-.6,6-1,.1-.1-5.7Z" transform="translate(0 -50)"/><path class="cls-9" d="M633.41,360.94a40.19,40.19,0,0,1,.7,4.8c0,1.4,1.1,1.3,1.1,1.3l1-1.8.2-2.8.4-3.4Z" transform="translate(0 -50)"/><path class="cls-16" d="M635.91,357s.7-.3,1.9,1.2a15.17,15.17,0,0,0,.1,8.1c.3,1-2.2,2.4-2.9,3.1,0,0-1.1.4-1.3-1-.1-.6.6-2,.5-2.6C635.61,366.44,636.51,363.14,635.91,357Z" transform="translate(0 -50)"/><path class="cls-16" d="M637.81,358.24l3.8,4.7-.8.7-4-4Z" transform="translate(0 -50)"/><path class="cls-9" d="M633.71,268.94c.2-.5-10.4-11-14.5-9.5-2.5,1-1.5,5.7-.9,7.8,1.4,4.5,12.6,14.3,12.2,14.7a13.08,13.08,0,0,1-3.4,1.2,75.53,75.53,0,0,1-7.8.8c-4.5.2-8.7.2-8.9.3,0,0,1.2,3.1,1.3,3.4a21.81,21.81,0,0,0,2.9,1c4.6,1.4,14.7,2.2,21.3-.2C641.91,286.14,639.21,274.84,633.71,268.94Z" transform="translate(0 -50)"/><path class="cls-11" d="M631.81,283.84c3.5-2.4-1.3-4.9-3.2-7.2-2.2-.8-4.2-2-4.6-1.7,2,2.1,6.5,6.9,6.5,6.9a13.08,13.08,0,0,1-3.4,1.2,75.53,75.53,0,0,1-7.8.8C619.11,284.14,628.71,286,631.81,283.84Z" transform="translate(0 -50)"/><path class="cls-9" d="M609.71,283.84c-1.6-.4-4.1-.2-5.2,1.2-.5.7-.1,1.1.6.7,1.4-.7,2.5-.8.4.2-.4.2-1.2.8-1.1,1.1.3.7,1.7-.2,2.4-.5.6,0-.8,1-1,1.3-.6,1.5,2.2-.3,2.4-.1.6.4-1.5,1.3-.5,1.5.8.2,2.3-1.4,2.9-1.6s1,.1,1.3-.5C612.71,285.94,610.31,284,609.71,283.84Z" transform="translate(0 -50)"/><path class="cls-9" d="M610.31,284.14c-.5-.4-1.6-1.5-2.2-1.6-.4-.1-.8.1-.5.5a1.56,1.56,0,0,0,.8.6c.2.1.5.3.7.4S610.41,284.24,610.31,284.14Z" transform="translate(0 -50)"/><path class="cls-10" d="M607.31,248.84a1.66,1.66,0,0,0,2.1.3,4.44,4.44,0,0,0,1.1-.8c.2-.2.4-.6.6-.8a3,3,0,0,1,2.3,1.4,4.74,4.74,0,0,0,0,1.2c2.4,7.1-2.6,12.2-3.8,14.6-.2.3.1.6.4.7,4.6.9,14.2,2.4,13.7-5.1a18.06,18.06,0,0,0-3.9-9.7c-1.7-2.1-3.6-5.3-6.4-5.6a12.22,12.22,0,0,0-3.3.2C607.21,245.64,606.81,248.24,607.31,248.84Z" transform="translate(0 -50)"/><path class="cls-17" d="M577.21,323.44l-22.9-13.5a2.53,2.53,0,0,1-.9-3.6l10.2-17.3a2.53,2.53,0,0,1,3.6-.9l22.9,13.5a2.53,2.53,0,0,1,.9,3.6l-10.2,17.3A2.55,2.55,0,0,1,577.21,323.44Z" transform="translate(0 -50)"/><path class="cls-18" d="M586.61,312.74l-27.5-16.2a2.08,2.08,0,0,1-.7-2.7l3.8-6.4a2.08,2.08,0,0,1,2.7-.7l27.5,16.2a2.08,2.08,0,0,1,.7,2.7l-3.8,6.4A1.9,1.9,0,0,1,586.61,312.74Z" transform="translate(0 -50)"/><path class="cls-18" d="M580.21,301.74l-8.3-4.9a1.78,1.78,0,0,1-.6-2.4l1.2-2a5.05,5.05,0,0,1,6.9-1.8l2.7,1.6a5.05,5.05,0,0,1,1.8,6.9l-1.2,2A1.93,1.93,0,0,1,580.21,301.74Zm-1.8-9.6a3.41,3.41,0,0,0-4.6,1.2l-1.2,2v.1l8.3,4.9h.1l1.2-2a3.27,3.27,0,0,0-1.2-4.5Z" transform="translate(0 -50)"/><path class="cls-19" d="M575.21,307.64l-6.1-3.6a1.39,1.39,0,0,1,1.4-2.4l6.1,3.6a1.43,1.43,0,0,1,.5,1.9A1.45,1.45,0,0,1,575.21,307.64Z" transform="translate(0 -50)"/><path class="cls-9" d="M579.61,291.74a2.45,2.45,0,0,0-.6,1.6c0,.3.4.5.7.5,0,.1-.1.2-.1.3,0,.3.3.5.7.5,0,.3.4.5.8.5,0,.4.7.7,1.1.3a5.5,5.5,0,0,0,.7-.9c.2-.4-.3-.7-.7-.6,0-.1.1-.1.1-.2.2-.3-.2-.6-.6-.6l.1-.1c.5-.4-.5-1-1-.6l-.3.3c.1-.1.1-.2.2-.3C581,291.84,580,291.24,579.61,291.74Z" transform="translate(0 -50)"/><path class="cls-9" d="M580.61,291.34a2.54,2.54,0,0,1,1.7.4h.2c.5.1.4.8,0,.9-.1,0-.2.1-.3,0h-.1a5,5,0,0,0-2.1.1.47.47,0,0,1-.6-.6C579.51,291.54,580.21,291.34,580.61,291.34Z" transform="translate(0 -50)"/><path class="cls-9" d="M67.1,273.7a19.3,19.3,0,0,1-10.2,2.5,2.77,2.77,0,0,1-.9-.1c-.5-.1-1-.1-1.4-.2-.6-.1-1.2-.3-1.8-.4-.1,0-.2-.1-.3-.1a10.27,10.27,0,0,1-5.1-2.7,15.82,15.82,0,0,1-2-2.4s-11.1-9.6-7.5-10.4,10,1,15.6,3.4h.1a3.55,3.55,0,0,1,.9.4c.2.1.4.1.5.2,2.8,1.2,4.9,2.1,5.4,2,.9-.1,2.4-13.8,2.8-14.3,0,0,1.9-2,2.7-1C68.3,253.6,71,271.6,67.1,273.7Z" transform="translate(0 -50)"/><path class="cls-20" d="M61.8,263.9a7.62,7.62,0,0,1,.6,2,1.65,1.65,0,0,1-.8,1.5,4.27,4.27,0,0,1-2.5.1c-8.6-2.1-10.1-5.9-10-6.1.3.1,5.1,2.2,5.4,2.3s.4.1.5.2c2.8,1.2,4.9,2.1,5.4,2C60.9,266,61.2,262.4,61.8,263.9Z" transform="translate(0 -50)"/><path class="cls-9" d="M62.7,250.4a6.43,6.43,0,0,1,1.6-5.1c.4-.6,1.5-1.8,2.1-1.9s.8.5.3.9a8.68,8.68,0,0,0-1.6,2.3c.6-1,1.6.1,1.4.8.4-.2.8.5.5,1.3.3-.3,1,.6.1,1.9-.6.9-.8,1.2-1.4,1.5a2.25,2.25,0,0,1-2.1-.3c-.1,0-.2-.1-.3-.2s0-.1-.1-.2A1.11,1.11,0,0,1,62.7,250.4Z" transform="translate(0 -50)"/><path class="cls-9" d="M61.5,248.2c.3-.5,1-.1.9.4a1.48,1.48,0,0,0-.1.7,1.48,1.48,0,0,1,1.2.8c.2.4.6,1.3.4,1.7-.2.2-.5.9-.7.7a23.28,23.28,0,0,1-1.9-2.7A1.54,1.54,0,0,1,61.5,248.2Z" transform="translate(0 -50)"/><path class="cls-9" d="M44.2,359.6c-.5-.5-4.8.5-4.8.8,0,.8.1,3.9.6,4.3s4.8-.2,4.8-1S44.7,360,44.2,359.6Z" transform="translate(0 -50)"/><path class="cls-9" d="M9,357.4c-.1-.6-4.2-2.4-4.3-2.2-.5.6-2.2,3.3-2,3.8s4,2.7,4.5,2C7.5,360.5,9.1,358,9,357.4Z" transform="translate(0 -50)"/><path class="cls-12" d="M29.1,304.8c.3.8.6,1.5.9,2.4,2.2,5.5,4.8,12,5.1,15.4.5,6.3,3.4,21.5,3.4,28.9,0,6,1.7,10.1,1.5,11.5l5.5-1.1c2.1-8.7,4.3-29.7,4.3-39.2s-.8-25.3-4.3-32.8c-3.3-7.1-16.6,5.8-18.1,7.6C26.8,298.1,27.7,301.1,29.1,304.8Z" transform="translate(0 -50)"/><path class="cls-13" d="M29.1,304.8c.3.8.6,1.5.9,2.4,2.2,5.5,4.8,12,5.1,15.4.5,6.3,3,38.3,3.5,40.4,1,.6,2.9.1,4.2-.5.4-5.3-2.1-10.3-2.7-15.6-1.2-10,2.3-20.5-2-30-1.2-2.7-3.1-5.4-2.9-8.5.1-1.5,1.1-3.2.2-4.7-1.5-2.6-4.4-.8-5.8.9a.45.45,0,0,0-.5,0C29.2,304.8,29.2,304.8,29.1,304.8Z" transform="translate(0 -50)"/><path class="cls-12" d="M31.3,294.8v1c-.1,3.9-.5,18.8-2.2,33.5-1.1,9.4-13.1,24.9-21,31l-4.4-2.4-1-.5s4.9-8.8,7.3-12.5c6.2-9.5,4.9-15,4.9-21.3.1-12.9-3.3-19.2.2-28.8.2-.4.3-.9.5-1.3a41.1,41.1,0,0,1,2.6-5.1,1.7,1.7,0,0,1,.8-.6,3.21,3.21,0,0,1,1.4-.1c2.5.3,6.4,2.4,9.8,6A2.89,2.89,0,0,1,31.3,294.8Z" transform="translate(0 -50)"/><path class="cls-13" d="M18.2,314.4c-1.2-6.2-1.9-12,0-18.3a.37.37,0,0,0-.2-.5c0-.1-.1-.1-.2-.2-.7-.2-1.6-.5-2.6-.8-3.5,9.6-.2,15.9-.2,28.8,0,6.3,1.3,11.8-4.9,21.3-2.4,3.7-7.3,12.5-7.3,12.5l1,.5c3.5-3.3,7.2-6.5,9.3-10.9a73.72,73.72,0,0,0,5.1-15.9A39.89,39.89,0,0,0,18.2,314.4Z" transform="translate(0 -50)"/><path class="cls-10" d="M39.9,363.6s-1.3,3.2.5,5.2c0,0,10-1.5,12.9-2.6,0,0-.7-3.9-3.3-3.7a40.31,40.31,0,0,0-5.2.8S42.2,365.3,39.9,363.6Z" transform="translate(0 -50)"/><path class="cls-10" d="M3,357.9s-3.1,1.7-3,4.3c0,0,8.7,5.2,11.6,6.2,0,0,1.9-3.4-.2-4.9a38.63,38.63,0,0,0-4.5-2.7S3.7,360.7,3,357.9Z" transform="translate(0 -50)"/><path class="cls-21" d="M39.9,261.1c1.1,2.7,2.2,4.9,2.2,4.9s-2.1,2.7-1.4,4.4a5.21,5.21,0,0,0,2.4,2.2c1.5.9,3.5,1.8,5.1,2.9a12.75,12.75,0,0,0,4.2-14.4c-4.4-3.7-10.3-8.4-13.8-9.1C36.4,251.7,38.2,256.9,39.9,261.1Z" transform="translate(0 -50)"/><path class="cls-21" d="M46.2,289.8c0,1.2-27.3,7.4-30.1,6.9-1.1-.2-1.8-.5-2-.9-.5-1.1,1.3-12.2,1.1-19.6,0-1.4-.1-2.9-.1-4.3,0-7.4.5-14.4,2.2-15.7a14.63,14.63,0,0,1,1.3-.9,27.5,27.5,0,0,1,2.5-1.5,24.47,24.47,0,0,1,5.2-2,22.57,22.57,0,0,1,10.4-.2,19,19,0,0,1,2.9.9c.2.1.5.2.7.3,3.3,1.3,2.8,8.5,2.3,14.5a68.06,68.06,0,0,0-.4,6.9,8.75,8.75,0,0,0,.2,1.6C43.2,280.1,45.7,286.6,46.2,289.8Z" transform="translate(0 -50)"/><path class="cls-9" d="M33.9,247.9v3.2s.8,1.4,0,1.5c-1.7.3-4.1-1.5-4.1-1.5v-4.9Z" transform="translate(0 -50)"/><path class="cls-22" d="M29.9,248.7v-2.2s1.8,2.3,3.8,2.4C33.7,248.9,31.5,249.8,29.9,248.7Z" transform="translate(0 -50)"/><path class="cls-9" d="M36.2,240.8a23.4,23.4,0,0,1,.4,6.2c-.2,2-4.4,3.7-6.7.2s-.4-7.5-.4-7.5Z" transform="translate(0 -50)"/><path class="cls-14" d="M12.8,297.8c.7.4,19.5-2.5,19.5-2.5,1.3-4.2,5.4-21.8,5.2-23.5-.7-11-10.9-19.9-10.9-19.9-4-.2-9.1,4.5-9.1,4.5,1.2-2.4,6.4-2.2,7.2-1,1.7,2.6,1.2,10.7-.3,14-4.5,9.7-8.9,10.2-8.9,10.2Z" transform="translate(0 -50)"/><path class="cls-14" d="M35.5,276c-.6,1.5,7.4,16.7,7.4,16.7s5.6-1.1,5.7-1.2-2.4-6.3-4.2-10.8c-.3-.9-.7-1.7-.9-2.5v-.1a18.33,18.33,0,0,1-.7-2.3,3.3,3.3,0,0,1-.2-1.6c-.1-1.6,1.3-4.6,1.4-7.4.1-5-1.7-13.4-3.3-14-.2-.1-.3-.1-.5-.2s-.1,0-.2-.1c-1-.4-1.9-.6-2.9-.9C37.1,251.6,39.3,266.6,35.5,276Z" transform="translate(0 -50)"/><path class="cls-10" d="M37.4,239.5c.4-2.3-3.6-1.9-4.9-1.7-.9.1-4.2.7-4.4,2.2a5.87,5.87,0,0,0-.3,5,1.11,1.11,0,0,0,.5,1,1.22,1.22,0,0,0,1.7-.5c.5-.9.2-2.1.3-3.1,0-.2.1-.9.1-1.5a2.67,2.67,0,0,1,1.8-.2c.8.1,1.6.4,2.4.5C35.9,241.3,38.3,241,37.4,239.5Z" transform="translate(0 -50)"/><path class="cls-23" d="M31,272.4a2.56,2.56,0,1,0,3.2,1.7A2.59,2.59,0,0,0,31,272.4Zm1.2,4a1.68,1.68,0,1,1,1.1-2.1A1.61,1.61,0,0,1,32.2,276.4Z" transform="translate(0 -50)"/><path class="cls-24" d="M43.4,293.7,32.7,297a2.15,2.15,0,0,1-2.6-1.4L25,279.1a2.15,2.15,0,0,1,1.4-2.6l10.7-3.3a2.15,2.15,0,0,1,2.6,1.4l5.1,16.5A2.15,2.15,0,0,1,43.4,293.7Z" transform="translate(0 -50)"/><path class="cls-9" d="M17.1,293.1a1.7,1.7,0,0,0,.7-.1c7.8-1,21.6-7,21.6-7,0-.6.2-3.3.2-3.3-.3,0-13.1.3-18.4.4H20.1a2.4,2.4,0,0,1-1.2,0h-.1c-.8-.2.1-6.6,1.5-9.2.6-1.1,1.3-2.2,1.8-3.2a11.59,11.59,0,0,0,1.7-7.7,12.4,12.4,0,0,0-2.5-5.9,3.7,3.7,0,0,0-6,.3,63.86,63.86,0,0,0-6.7,12.8v.1C5.1,278.8,9.6,293.7,17.1,293.1Z" transform="translate(0 -50)"/><path class="cls-20" d="M17.1,293.1a1.7,1.7,0,0,0,.7-.1c7.8-1,21.6-7,21.6-7v-.1c-1.5.1-4.3,1.5-5.6,1.8-4.8,1.1-12.8,2.1-15.2,2.5-3.4.6-5.4-1.8-6.4-4.7-1.5-4.4-1.2-11.4-.6-16,1.1-3.3-2.3-1.4-2.3-1.4C4.7,279.4,9.6,293.7,17.1,293.1Z" transform="translate(0 -50)"/><path class="cls-21" d="M8.5,267.9c.3-1.1,2.2-8.4,6.4-11.6,1.9-1.5,7.2-3.6,9.3-1.4,4.5,4.8,1.2,13-2,18.8C17.3,274.1,12.4,271.8,8.5,267.9Z" transform="translate(0 -50)"/><path class="cls-9" d="M43.1,284.3a.77.77,0,0,0-.1-1l-.1-.1a.61.61,0,0,0,.1-.8.84.84,0,0,0-.7-.4.37.37,0,0,0-.1-.3c-.4-1.1-2.2.2-2.8.5-.2.1-.3.3-.2.4l-.1.1a3,3,0,0,0-.1,2.6,2,2,0,0,0,2.3,1c.7-.1,2.1-.5,2.1-1.4C43.6,284.5,43.4,284.4,43.1,284.3Z" transform="translate(0 -50)"/><path class="cls-9" d="M41.4,280a2.39,2.39,0,0,0-2,.4,7.45,7.45,0,0,0-1.3,2.5c-.3.2.1.2.6.2s1.3-.1,1.4-.8c0-.3-.1-.6.2-.8a2.22,2.22,0,0,1,1.1-.5A.52.52,0,0,0,41.4,280Z" transform="translate(0 -50)"/></svg>