<svg id="Calque_1" data-name="Calque 1" xmlns="http://www.w3.org/2000/svg" xmlns:xlink="http://www.w3.org/1999/xlink" viewBox="0 0 312.5 171.32"><defs><style>.cls-1,.cls-44,.cls-56{fill:#fff;}.cls-1,.cls-4{stroke:#e7e7e7;}.cls-1{stroke-width:0.56px;}.cls-2{fill:#1f0d52;}.cls-3{fill:#c4c4c4;}.cls-4,.cls-46,.cls-48,.cls-49{fill:none;}.cls-4,.cls-48,.cls-49{stroke-width:0.66px;}.cls-5{mask:url(#mask);}.cls-6{mask:url(#mask-2);}.cls-7{fill:#9196aa;}.cls-8{fill:#c48958;}.cls-9{fill:#e0b8ff;}.cls-10{fill:#707789;}.cls-11{fill:#b27a49;}.cls-12{fill:#555a66;}.cls-13{fill:#9e6f46;}.cls-14{fill:#c78ff5;}.cls-15{fill:#636978;}.cls-16{fill:#b674f2;}.cls-17{fill:#4e535e;}.cls-18{fill:#8f4cd6;}.cls-19{fill:#333940;}.cls-20{fill:#e3a76f;}.cls-21{fill:#d6995c;}.cls-22{fill:#cdd2e1;}.cls-23{fill:#bec3d2;}.cls-24{fill:#e9edf5;}.cls-25{fill:#d2a0f5;}.cls-26{fill:#f2f5f9;}.cls-27{fill:#f6fafd;}.cls-28{fill:#f5e1ff;}.cls-29{fill:#ffaea7;}.cls-30{mask:url(#mask-3);}.cls-31{fill:#f2f7fe;}.cls-32{fill:#aeb8e0;}.cls-33{fill:#f9cd56;}.cls-34{fill:#3a404f;}.cls-35{fill:#dae0f3;}.cls-36{fill:#441fd8;}.cls-37{fill:#d6a0ff;}.cls-38{fill:#ddf0fe;}.cls-39{fill:#bac5e6;}.cls-40{fill:#5e6880;}.cls-41{fill:#f9b602;}.cls-42{fill:#2d3540;}.cls-43{fill:#828fb0;}.cls-45{fill:#ededed;}.cls-46,.cls-49{stroke:#14aead;}.cls-46{stroke-width:5.98px;}.cls-47{fill:#14aead;}.cls-48{stroke:#ddd;}.cls-50{fill:#ffc1c5;}.cls-51{fill:#ffafb4;}.cls-52{fill:#acdcff;}.cls-53{fill:#96caf0;}.cls-54{fill:#252525;}.cls-55,.cls-63{fill:#ea7a70;}.cls-55,.cls-56{fill-rule:evenodd;}.cls-57{fill:#cddee7;}.cls-58{fill:#e4edf4;}.cls-59{fill:#e8dbeb;}.cls-60{fill:#e89a9f;}.cls-61{fill:#32187c;}.cls-62{fill:#f3f3f3;}</style><mask id="mask" x="29.24" y="50.16" width="233.91" height="118.29" maskUnits="userSpaceOnUse"><g transform="translate(0)"><g id="mask0"><path class="cls-1" d="M29.52,55.78a5.34,5.34,0,0,1,5.34-5.34H235.6a5.34,5.34,0,0,1,5.34,5.34V162.83a5.34,5.34,0,0,1-5.34,5.34H34.86a5.34,5.34,0,0,1-5.34-5.34Z"/></g></g></mask><mask id="mask-2" x="158.16" y="79.4" width="103" height="64.46" maskUnits="userSpaceOnUse"><g transform="translate(0)"><g id="mask1"><rect class="cls-2" x="158.16" y="79.4" width="103" height="51.83" rx="3.32"/></g></g></mask><mask id="mask-3" x="43.19" y="79.4" width="103" height="59.14" maskUnits="userSpaceOnUse"><g transform="translate(0)"><g id="mask2"><rect class="cls-3" x="43.19" y="79.4" width="103" height="51.83" rx="3.32"/></g></g></mask></defs><path class="cls-1" d="M29.52,55.78a5.34,5.34,0,0,1,5.34-5.34H235.6a5.34,5.34,0,0,1,5.34,5.34V162.83a5.34,5.34,0,0,1-5.34,5.34H34.86a5.34,5.34,0,0,1-5.34-5.34Z" transform="translate(0)"/><rect class="cls-4" x="40.87" y="77.08" width="106.99" height="72.43" rx="2.99"/><g class="cls-5"><rect class="cls-4" x="155.83" y="77.08" width="106.99" height="72.43" rx="2.99"/><rect class="cls-2" x="158.16" y="79.4" width="103" height="51.83" rx="3.32"/><g class="cls-6"><path class="cls-7" d="M202.8,108.73l2.76,5.6H190.37l-.27-.56,12.47-5.5Z" transform="translate(0)"/><path class="cls-8" d="M193.08,99.28l-4.15,1.84L187,97.19l4.15-1.84Z" transform="translate(0)"/><path class="cls-9" d="M201.24,105.55l1.33,2.72-12.47,5.5-1.34-2.72a3.64,3.64,0,0,1-.39-1.65,3.73,3.73,0,0,1,.91-2.45,3.78,3.78,0,0,0,.86-2,3.7,3.7,0,0,0-.36-2.12l-.85-1.74,4.15-1.84.86,1.74a4,4,0,0,0,1.51,1.64,4.13,4.13,0,0,0,2.14.62,4.13,4.13,0,0,1,2.13.63A4.21,4.21,0,0,1,201.24,105.55Z" transform="translate(0)"/><path class="cls-7" d="M203.12,109.38l-11.57,5h14Z" transform="translate(0)"/><path class="cls-10" d="M202.8,108.73l-.23-.46-12.47,5.5.27.56h1.18l11.57-5Z" transform="translate(0)"/><path class="cls-11" d="M192.38,97.86l-4.18,1.79.73,1.47,4.15-1.84Z" transform="translate(0)"/><path class="cls-8" d="M191.14,95.35,187,97.19l1.21,2.46,4.18-1.79Z" transform="translate(0)"/><path class="cls-9" d="M201.24,105.55a4.21,4.21,0,0,0-1.52-1.64,4.13,4.13,0,0,0-2.13-.63,4.13,4.13,0,0,1-2.14-.62,4,4,0,0,1-1.51-1.64l-.86-1.74-4.15,1.84.85,1.74a3.7,3.7,0,0,1,.36,2.12,3.78,3.78,0,0,1-.86,2,3.73,3.73,0,0,0-.91,2.45,3.64,3.64,0,0,0,.39,1.65l1.34,2.72,12.47-5.5Z" transform="translate(0)"/><path class="cls-10" d="M191.55,114.33h.93l-.16-.32Z" transform="translate(0)"/><path class="cls-12" d="M192.21,113.77l-.38-.76-1.73.76.27.56h1.18l.77-.32Z" transform="translate(0)"/><path class="cls-13" d="M189.9,98.92l-1.7.73.73,1.47,1.72-.76Z" transform="translate(0)"/><path class="cls-11" d="M188.64,96.46l-1.65.73,1.21,2.46,1.7-.73Z" transform="translate(0)"/><path class="cls-14" d="M190.87,111.05a3.64,3.64,0,0,1-.39-1.65,3.78,3.78,0,0,1,.9-2.45,3.71,3.71,0,0,0,.87-2,3.78,3.78,0,0,0-.36-2.12l-.85-1.74-.39-.76-1.72.76.85,1.74a3.7,3.7,0,0,1,.36,2.12,3.78,3.78,0,0,1-.86,2,3.73,3.73,0,0,0-.91,2.45,3.64,3.64,0,0,0,.39,1.65l1.34,2.72,1.73-.76Z" transform="translate(0)"/><path class="cls-15" d="M215.51,113.77l-.27.56h-9.68l-2.76-5.6.24-.46Z" transform="translate(0)"/><path class="cls-8" d="M218.62,97.19l-1.94,3.93-4.15-1.84,1.94-3.93Z" transform="translate(0)"/><path class="cls-16" d="M217.24,109.4a3.64,3.64,0,0,1-.39,1.65l-1.34,2.72L203,108.27l1.34-2.72a4.18,4.18,0,0,1,1.51-1.64,4.13,4.13,0,0,1,2.13-.63,4.13,4.13,0,0,0,2.14-.62,4,4,0,0,0,1.51-1.64l.86-1.74,4.15,1.84-.85,1.74a3.78,3.78,0,0,0-.36,2.12,3.71,3.71,0,0,0,.87,2A3.78,3.78,0,0,1,217.24,109.4Z" transform="translate(0)"/><path class="cls-17" d="M202.8,108.73l.52,1.06,9.85,4.54h2.07l.27-.56L203,108.27Z" transform="translate(0)"/><path class="cls-11" d="M217.26,99.94l-4-2-.68,1.37,4.15,1.84Z" transform="translate(0)"/><path class="cls-17" d="M203.32,109.79l2.24,4.54h5.27l-.69-1.4Z" transform="translate(0)"/><path class="cls-18" d="M204.38,105.55,203,108.27l6.14,2.71-.79-1.6-.31-.65-.23-.46-1.34-2.72a4,4,0,0,0-1.07-1.32A4,4,0,0,0,204.38,105.55Z" transform="translate(0)"/><path class="cls-19" d="M202.8,108.73l.52,1.06,6.82,3.14-1-2L203,108.27Z" transform="translate(0)"/><path class="cls-20" d="M217.26,99.94l1.36-2.75L217,96.46l-1.38,2.66Z" transform="translate(0)"/><path class="cls-14" d="M216.68,101.12l-1.71-.76-.4.76-.85,1.74a3.78,3.78,0,0,0-.36,2.12,3.71,3.71,0,0,0,.87,2,3.78,3.78,0,0,1,.9,2.45,3.64,3.64,0,0,1-.39,1.65l-1,2,1.73.76,1.34-2.72a3.64,3.64,0,0,0,.39-1.65,3.78,3.78,0,0,0-.9-2.45,3.74,3.74,0,0,1-.51-4.09Z" transform="translate(0)"/><path class="cls-15" d="M213.4,113.77l-.26.55h2.1l.27-.56-1.73-.76Z" transform="translate(0)"/><path class="cls-21" d="M215,100.36l1.71.76.58-1.18-1.65-.82Z" transform="translate(0)"/><path class="cls-18" d="M218.62,114.33l-.22,3.17H187.22l-.23-3.17h31.63Z" transform="translate(0)"/><path class="cls-22" d="M187.22,117.5l.07,1,.15,2.11,1,13.71.68,9.49h27.41l.68-9.49,1-13.71.23-3.16Z" transform="translate(0)"/><path class="cls-18" d="M219.68,135.42H185.93a1,1,0,0,1-1.05-1V120.66a1.06,1.06,0,0,1,1.05-1h4.22a1,1,0,0,1,1,1,1,1,0,0,1-1,1H187v11.61h31.63V121.71h-3.16a1,1,0,0,1-1.06-1,1.06,1.06,0,0,1,1.06-1h4.22a1.06,1.06,0,0,1,1,1v13.71a1,1,0,0,1-1,1Z" transform="translate(0)"/><path class="cls-16" d="M185.93,120.66h4.22a1.07,1.07,0,0,1,.52.14,1.15,1.15,0,0,1,.37.39,1,1,0,0,0,.16-.53,1,1,0,0,0-1-1h-4.22a1.06,1.06,0,0,0-1.05,1v1a1,1,0,0,1,.31-.74A1,1,0,0,1,185.93,120.66Z" transform="translate(0)"/><path class="cls-16" d="M219.68,119.61h-4.22a1,1,0,0,0-1.05,1,1,1,0,0,0,.16.53,1.15,1.15,0,0,1,.37-.39,1.07,1.07,0,0,1,.52-.14h4.22a1,1,0,0,1,1,1v-1a1,1,0,0,0-1-1Z" transform="translate(0)"/><path class="cls-23" d="M190.15,122.77a1.06,1.06,0,0,0,.75-.31,1,1,0,0,0,.14-1.27,1,1,0,0,1-.37.38,1.07,1.07,0,0,1-.52.14h-2.64l.08,1.06Z" transform="translate(0)"/><path class="cls-23" d="M214.57,121.19a1,1,0,0,0-.16.52,1.09,1.09,0,0,0,.3.75,1.06,1.06,0,0,0,.75.31H218l.08-1.06h-2.64a1.07,1.07,0,0,1-.52-.14A1,1,0,0,1,214.57,121.19Z" transform="translate(0)"/><path class="cls-16" d="M218.62,114.33H187l.07,1.06h31.49Z" transform="translate(0)"/><path class="cls-23" d="M218.4,117.5H187.22l.07,1,.08,1.06h30.88Z" transform="translate(0)"/><path class="cls-16" d="M191.39,117.5h27l.15-2.11H191.23C191.26,116.1,191.31,116.8,191.39,117.5Z" transform="translate(0)"/><path class="cls-24" d="M217.26,133.32l.76-10.55h-2.56a1.06,1.06,0,0,1-.75-.31,1.08,1.08,0,0,1-.31-.75,1.1,1.1,0,0,1,.17-.52,1,1,0,0,1-.1-.21,1.14,1.14,0,0,1-.07-.32,1.06,1.06,0,0,1,1.06-1H191.71a27.4,27.4,0,0,0,7.13,13.71Z" transform="translate(0)"/><path class="cls-25" d="M218.55,115.39l.07-1.06H191.21c0,.36,0,.71,0,1.06Z" transform="translate(0)"/><path class="cls-22" d="M233.39,143.86l-4.22-3.37v-13.6a5.76,5.76,0,0,1-2.11,0v13.6l-4.22,3.37Z" transform="translate(0)"/><path class="cls-23" d="M229.17,129v-2.11a5.76,5.76,0,0,1-2.11,0V129A5.76,5.76,0,0,0,229.17,129Z" transform="translate(0)"/><path class="cls-24" d="M234.44,101.68H221.79v7.38h12.65Z" transform="translate(0)"/><path class="cls-16" d="M234.44,109.06v11.6a6.33,6.33,0,1,1-12.65,0v-11.6Z" transform="translate(0)"/><path class="cls-18" d="M223.9,118.55v-9.49h-2.11v11.6A6.32,6.32,0,0,0,233.51,124a6.27,6.27,0,0,1-3.29.93,6.32,6.32,0,0,1-6.32-6.33Z" transform="translate(0)"/><path class="cls-22" d="M223.9,101.68h-2.11v7.38h2.11Z" transform="translate(0)"/><path class="cls-26" d="M234.44,109.06v-7.38h-10.5a25.77,25.77,0,0,0,1.34,7.38Z" transform="translate(0)"/><path class="cls-14" d="M234.44,119.82V109.06h-9.16C227.05,114.21,230.37,118.18,234.44,119.82Z" transform="translate(0)"/><path class="cls-27" d="M233,106.53c.67-.67.46-2-.48-2.93s-2.26-1.15-2.93-.48-.46,2,.48,2.93S232.31,107.21,233,106.53Z" transform="translate(0)"/><path class="cls-27" d="M200.29,128.68c.68-.68.47-2-.48-2.93s-2.25-1.16-2.93-.48-.46,2,.49,2.93S199.62,129.35,200.29,128.68Z" transform="translate(0)"/><path class="cls-27" d="M200.5,106.75a1.28,1.28,0,1,0-1.47-.24A1.08,1.08,0,0,0,200.5,106.75Z" transform="translate(0)"/><path class="cls-27" d="M215.26,108.86a1.28,1.28,0,1,0-1.47-.24A1.08,1.08,0,0,0,215.26,108.86Z" transform="translate(0)"/><path class="cls-27" d="M202.61,131a1.08,1.08,0,0,0-.24-1.47.92.92,0,1,0-1.23,1.23A1.08,1.08,0,0,0,202.61,131Z" transform="translate(0)"/><path class="cls-27" d="M229,107.81a1.1,1.1,0,0,0-.24-1.48,1.07,1.07,0,0,0-1.47-.23,1.28,1.28,0,0,0,1.71,1.71Z" transform="translate(0)"/><path class="cls-27" d="M198.74,107.91a.54.54,0,0,0-.12-.74.53.53,0,0,0-.73-.12.64.64,0,0,0,.85.86Z" transform="translate(0)"/><path class="cls-27" d="M214.57,105.8c.17-.17.11-.5-.13-.74a.53.53,0,0,0-.73-.12.54.54,0,0,0,.12.74A.55.55,0,0,0,214.57,105.8Z" transform="translate(0)"/><path class="cls-28" d="M231.81,120.66a.52.52,0,0,0,.52-.53.53.53,0,0,0-1.05,0A.53.53,0,0,0,231.81,120.66Z" transform="translate(0)"/><path class="cls-28" d="M232.86,113.28a.53.53,0,1,0-.53-.53A.53.53,0,0,0,232.86,113.28Z" transform="translate(0)"/><path class="cls-28" d="M231.81,115.39a.53.53,0,1,0-.53-.53A.52.52,0,0,0,231.81,115.39Z" transform="translate(0)"/><path class="cls-27" d="M230.75,111.17a.53.53,0,1,0-.53-.53A.53.53,0,0,0,230.75,111.17Z" transform="translate(0)"/><path class="cls-18" d="M229.7,118.55a.53.53,0,0,0,0-1,.53.53,0,1,0,0,1Z" transform="translate(0)"/><path class="cls-18" d="M228.64,123.82a.53.53,0,1,0-.53-.52A.52.52,0,0,0,228.64,123.82Z" transform="translate(0)"/><path class="cls-28" d="M227.59,120.66a.53.53,0,0,0,.53-.53.53.53,0,0,0-1.06,0A.53.53,0,0,0,227.59,120.66Z" transform="translate(0)"/><path class="cls-18" d="M231.28,123.82a1.06,1.06,0,0,0,0-2.11,1.06,1.06,0,1,0,0,2.11Z" transform="translate(0)"/><path class="cls-28" d="M227.06,116.44a1.06,1.06,0,1,0-1.05-1A1.06,1.06,0,0,0,227.06,116.44Z" transform="translate(0)"/><path class="cls-18" d="M226,119.61a1.06,1.06,0,1,0-1.06-1.06A1.06,1.06,0,0,0,226,119.61Z" transform="translate(0)"/></g></g><rect class="cls-29" x="43.19" y="79.4" width="103" height="51.83" rx="3.32"/><g class="cls-30"><path class="cls-31" d="M121.75,91.33V99h-5.49v-2.2h-6.58V99h-5.49V91.33s0,1.1,2,1.1h13.5C121.75,92.43,121.75,91.33,121.75,91.33Z" transform="translate(0)"/><path class="cls-32" d="M131.63,88H94.3a4.4,4.4,0,0,0-4.39,4.39v22.22a4.08,4.08,0,0,1,.59-2.09,4,4,0,0,1,1.61-1.46,4,4,0,0,0,1.6-1.47,3.87,3.87,0,0,0,.59-2.09V96.82h6.59v10.72a4,4,0,0,0,.59,2.09,4,4,0,0,0,1.61,1.47,4,4,0,0,1,2.19,3.55,4.08,4.08,0,0,1,.59-2.09,4,4,0,0,1,1.61-1.46,4,4,0,0,0,2.2-3.56V99h-5.5V91.33s0,1.1,2,1.1h13.5c2,0,2-1.1,2-1.1V99h-5.49v8.52a4,4,0,0,0,.59,2.09,4,4,0,0,0,1.61,1.47,3.89,3.89,0,0,1,1.6,1.46,4,4,0,0,1,.59,2.09,4,4,0,0,1,.6-2.09,3.89,3.89,0,0,1,1.6-1.46,3.91,3.91,0,0,0,1.6-1.47,3.87,3.87,0,0,0,.59-2.09V96.82h6.59v10.72a4,4,0,0,0,.59,2.09,4,4,0,0,0,1.61,1.47,4,4,0,0,1,1.6,1.46,3.89,3.89,0,0,1,.59,2.09V92.43A4.39,4.39,0,0,0,131.63,88Z" transform="translate(0)"/><path class="cls-33" d="M136,114.65v1.94H120.65v-1.94a4,4,0,0,1,.6-2.09,3.89,3.89,0,0,1,1.6-1.46,4,4,0,0,0,1.61-1.47,4,4,0,0,0,.59-2.09v-6.32h6.58v6.32a4,4,0,0,0,.6,2.09,3.91,3.91,0,0,0,1.6,1.47,4,4,0,0,1,2.19,3.55Z" transform="translate(0)"/><path class="cls-34" d="M131.63,96.82H125v4.4h6.59Z" transform="translate(0)"/><path class="cls-33" d="M120.65,114.65v1.94H105.28v-1.94a4,4,0,0,1,.6-2.09,3.89,3.89,0,0,1,1.6-1.46,3.91,3.91,0,0,0,1.6-1.47,4,4,0,0,0,.6-2.09v-6.32h6.58v6.32a4,4,0,0,0,.59,2.09,4,4,0,0,0,1.61,1.47,3.89,3.89,0,0,1,1.6,1.46A4,4,0,0,1,120.65,114.65Z" transform="translate(0)"/><path class="cls-34" d="M116.26,99v2.2h-6.59v-4.4h6.59Z" transform="translate(0)"/><path class="cls-33" d="M105.28,114.65v1.94H89.91v-1.94a4.08,4.08,0,0,1,.59-2.09,4,4,0,0,1,1.61-1.46,4,4,0,0,0,1.6-1.47,3.87,3.87,0,0,0,.59-2.09v-6.32h6.59v6.32a4,4,0,0,0,.59,2.09,4,4,0,0,0,1.61,1.47,4,4,0,0,1,2.19,3.55Z" transform="translate(0)"/><path class="cls-34" d="M100.89,96.82H94.3v4.4h6.59Z" transform="translate(0)"/><path class="cls-34" d="M121.75,101.22v6.32a4,4,0,0,1-2.19,3.56,3.34,3.34,0,0,0-.55.33,4,4,0,0,1,1.64,3.22,4,4,0,0,1,.6-2.09,3.89,3.89,0,0,1,1.6-1.46,4,4,0,0,0,1.61-1.47,4,4,0,0,0,.59-2.09V96.82h-3.3Z" transform="translate(0)"/><path class="cls-34" d="M105.28,114.65a4,4,0,0,1,.6-2.09,3.89,3.89,0,0,1,1.6-1.46,3.91,3.91,0,0,0,1.6-1.47,4,4,0,0,0,.6-2.09V99h-3.3v8.52a4,4,0,0,1-2.19,3.56,3.34,3.34,0,0,0-.55.33,4,4,0,0,1,1.64,3.22Z" transform="translate(0)"/><path class="cls-34" d="M92.11,111.1a4,4,0,0,0,1.6-1.47,3.87,3.87,0,0,0,.59-2.09V96.82H91v10.72a4,4,0,0,1-1.1,2.74v4.37a4.08,4.08,0,0,1,.59-2.09A4,4,0,0,1,92.11,111.1Z" transform="translate(0)"/><path class="cls-35" d="M138.22,118.78v17.57a2.2,2.2,0,0,1-.64,1.55,2.22,2.22,0,0,1-1.56.64H89.91a2.19,2.19,0,0,1-2.19-2.19V118.78a2.19,2.19,0,0,1,2.19-2.19H136a2.22,2.22,0,0,1,1.56.64A2.2,2.2,0,0,1,138.22,118.78Z" transform="translate(0)"/><path class="cls-36" d="M136,116.59H89.91a2.19,2.19,0,0,0-2.19,2.19v17.57a2.19,2.19,0,0,0,2.19,2.19H136a2.22,2.22,0,0,0,1.56-.64,2.2,2.2,0,0,0,.64-1.55V118.78a2.2,2.2,0,0,0-.64-1.55A2.22,2.22,0,0,0,136,116.59Zm0,18a1.85,1.85,0,0,1-.64,1.29,1.88,1.88,0,0,1-1.36.47H91.92a1.88,1.88,0,0,1-1.36-.47,1.9,1.9,0,0,1-.65-1.29v-14a1.9,1.9,0,0,1,.65-1.29,1.88,1.88,0,0,1,1.36-.47H134a1.88,1.88,0,0,1,1.36.47,1.85,1.85,0,0,1,.64,1.29Z" transform="translate(0)"/><path class="cls-37" d="M106,118.78H134a1.88,1.88,0,0,1,1.36.47,1.85,1.85,0,0,1,.64,1.29v14a1.42,1.42,0,0,1-.13.61l2.33,0V118.78a2.2,2.2,0,0,0-.64-1.55,2.22,2.22,0,0,0-1.56-.64H94.36a10.94,10.94,0,0,0,.46,2.19Z" transform="translate(0)"/><path class="cls-38" d="M134.51,123.83c.7-.7.48-2.07-.5-3s-2.35-1.21-3-.5-.48,2.07.5,3S133.81,124.54,134.51,123.83Z" transform="translate(0)"/><path class="cls-38" d="M120.45,128.46a1.13,1.13,0,0,0-.25-1.53,1.11,1.11,0,0,0-1.53-.25c-.36.35-.24,1,.25,1.53A1.13,1.13,0,0,0,120.45,128.46Z" transform="translate(0)"/><path class="cls-38" d="M120.82,125.27a.57.57,0,0,0-.12-.77.56.56,0,0,0-.77-.12c-.18.17-.12.51.13.76A.56.56,0,0,0,120.82,125.27Z" transform="translate(0)"/><path class="cls-39" d="M131.08,117.68h-5.49a.55.55,0,0,0-.55.55.55.55,0,0,0,.55.55h5.49a.54.54,0,0,0,.55-.55A.55.55,0,0,0,131.08,117.68Z" transform="translate(0)"/><path class="cls-39" d="M132.18,118.23a.55.55,0,0,0,.16.39.59.59,0,0,0,.39.16h1.1a.59.59,0,0,0,.39-.16.55.55,0,0,0,.16-.39.55.55,0,0,0-.16-.38.56.56,0,0,0-.39-.17h-1.1a.56.56,0,0,0-.39.17A.55.55,0,0,0,132.18,118.23Z" transform="translate(0)"/><path class="cls-40" d="M100.89,96.82H94.3V99h6.59Z" transform="translate(0)"/><path class="cls-41" d="M105,114.39H95.08a1.77,1.77,0,0,1-1-.35,1.74,1.74,0,0,1-.63-.91,1.76,1.76,0,0,1,0-1.11,1.79,1.79,0,0,1,.71-.85l.06,0a4.11,4.11,0,0,0,1.64-1.48,4,4,0,0,0,.64-2.12v-3a1.09,1.09,0,0,1,1.1-1.1h3.29v-2.19H94.3v6.32a4.09,4.09,0,0,1-2.27,3.6,3.92,3.92,0,0,0-2.1,3.25,2.46,2.46,0,0,0,0,.26v1.94h15.37v-1.94Z" transform="translate(0)"/><path class="cls-42" d="M96.5,100.12v-3.3H94.3v4.4h6.59v-1.1Z" transform="translate(0)"/><path class="cls-38" d="M102.88,113.08c.36-.35.24-1-.25-1.53a1,1,0,1,0-1.28,1.28A1.11,1.11,0,0,0,102.88,113.08Z" transform="translate(0)"/><path class="cls-38" d="M100,113.19c.18-.18.12-.52-.13-.77a.56.56,0,0,0-.76-.12c-.18.17-.12.52.12.76S99.78,113.37,100,113.19Z" transform="translate(0)"/><path class="cls-40" d="M116.26,96.82h-6.59V99h6.59Z" transform="translate(0)"/><path class="cls-41" d="M120.39,114.39h-9.93a1.77,1.77,0,0,1-1.06-.35,1.74,1.74,0,0,1-.63-.91,1.76,1.76,0,0,1,0-1.11,1.79,1.79,0,0,1,.71-.85l.06,0a4.07,4.07,0,0,0,2.28-3.6v-3a1.09,1.09,0,0,1,1.1-1.1h3.29v-2.19h-6.58v6.32a4.21,4.21,0,0,1-.64,2.12,4.11,4.11,0,0,1-1.64,1.48,4,4,0,0,0-2.1,3.25,2.46,2.46,0,0,0,0,.26v1.94h15.37v-1.94Z" transform="translate(0)"/><path class="cls-42" d="M111.87,100.12v-3.3h-2.2v4.4h6.59v-1.1Z" transform="translate(0)"/><path class="cls-38" d="M118.25,113.08c.36-.35.25-1-.25-1.53a1,1,0,1,0-1.28,1.28A1.11,1.11,0,0,0,118.25,113.08Z" transform="translate(0)"/><path class="cls-38" d="M115.33,113.19a.66.66,0,0,0-.89-.89c-.18.17-.12.52.13.76A.55.55,0,0,0,115.33,113.19Z" transform="translate(0)"/><path class="cls-40" d="M131.63,96.82H125V99h6.59Z" transform="translate(0)"/><path class="cls-41" d="M135.76,114.39h-9.93a1.77,1.77,0,0,1-1.06-.35,1.74,1.74,0,0,1-.63-.91,1.83,1.83,0,0,1,0-1.11,1.79,1.79,0,0,1,.71-.85l.06,0a4.07,4.07,0,0,0,2.28-3.6v-3a1.09,1.09,0,0,1,1.1-1.1h3.29v-2.19h-6.58v6.32a4.21,4.21,0,0,1-.64,2.12,4.11,4.11,0,0,1-1.64,1.48,4,4,0,0,0-2.1,3.25c0,.09,0,.18,0,.26v1.94H136v-1.94Z" transform="translate(0)"/><path class="cls-42" d="M127.24,100.12v-3.3H125v4.4h6.59v-1.1Z" transform="translate(0)"/><path class="cls-38" d="M133.62,113.08c.36-.35.25-1-.25-1.53a1,1,0,1,0-1.28,1.28C132.59,113.33,133.27,113.44,133.62,113.08Z" transform="translate(0)"/><path class="cls-38" d="M130.7,113.19c.18-.18.12-.52-.13-.77a.56.56,0,0,0-.76-.12c-.18.17-.12.52.12.76S130.52,113.37,130.7,113.19Z" transform="translate(0)"/><path class="cls-43" d="M136,92.43A4.39,4.39,0,0,0,131.63,88H94.3a4.4,4.4,0,0,0-4.39,4.39v22.22a4,4,0,0,1,1.1-2.73V92.43a3.28,3.28,0,0,1,3.29-3.29h37.33a3.29,3.29,0,0,1,3.3,3.29v19.49a4,4,0,0,1,1.09,2.73Z" transform="translate(0)"/><path class="cls-44" d="M59.54,109.66H58.39L56.14,106v3.68H55v-5.59h1.15l2.25,3.68v-3.68h1.15Zm2.85.08a2,2,0,0,1-2.07-2.06v-.11a2.48,2.48,0,0,1,.25-1.11,1.77,1.77,0,0,1,.68-.77,2,2,0,0,1,1-.26,1.76,1.76,0,0,1,1.34.53,2.23,2.23,0,0,1,.49,1.53v.45H61.45a1.09,1.09,0,0,0,.32.66,1,1,0,0,0,.69.24,1.19,1.19,0,0,0,1-.46L64,109a1.69,1.69,0,0,1-.68.55A2.23,2.23,0,0,1,62.39,109.74Zm-.13-3.42a.71.71,0,0,0-.54.23,1.22,1.22,0,0,0-.26.64H63v-.09a.82.82,0,0,0-.2-.57A.71.71,0,0,0,62.26,106.32Zm6.09,1.83.54-2.65H70l-1.07,4.16H68L67.19,107l-.79,2.62h-.93l-1.06-4.16h1.08l.54,2.65.76-2.65h.8Zm-10,8.22H56.14v2.29H55v-5.59h3.64V114H56.14v1.44h2.22Zm2,2.29H59.29v-5.9H60.4Zm3.33,0a1.16,1.16,0,0,1-.11-.37,1.35,1.35,0,0,1-1,.45,1.48,1.48,0,0,1-1-.36,1.15,1.15,0,0,1-.4-.89,1.18,1.18,0,0,1,.49-1,2.38,2.38,0,0,1,1.42-.36h.51v-.24a.69.69,0,0,0-.15-.46.59.59,0,0,0-.46-.17.69.69,0,0,0-.45.13.48.48,0,0,0-.15.37H61.25a1.12,1.12,0,0,1,.22-.67,1.56,1.56,0,0,1,.63-.48,2.42,2.42,0,0,1,.91-.17,1.84,1.84,0,0,1,1.22.38,1.37,1.37,0,0,1,.46,1.09v1.8a2,2,0,0,0,.16.9v.06Zm-.92-.77a1,1,0,0,0,.45-.11.65.65,0,0,0,.31-.3v-.71h-.41c-.56,0-.86.19-.89.58v.06a.42.42,0,0,0,.14.34A.57.57,0,0,0,62.81,117.89ZM67,117.3l.78-2.8H69l-1.41,4.16H66.5l-1.4-4.16h1.16Zm2.19-.76a2.44,2.44,0,0,1,.24-1.1,1.79,1.79,0,0,1,.69-.75,2,2,0,0,1,1-.26,1.89,1.89,0,0,1,1.37.51,2.08,2.08,0,0,1,.59,1.4v.28a2.22,2.22,0,0,1-.53,1.54,2.07,2.07,0,0,1-2.87,0,2.2,2.2,0,0,1-.54-1.57Zm1.11.08a1.55,1.55,0,0,0,.23.91.8.8,0,0,0,1.26,0,1.61,1.61,0,0,0,.23-1,1.5,1.5,0,0,0-.23-.9.78.78,0,0,0-1.26,0A1.71,1.71,0,0,0,70.33,116.62Zm5.85-1.08-.4,0a.8.8,0,0,0-.82.43v2.72H73.85V114.5h1l0,.5a1.07,1.07,0,0,1,1.27-.52Z" transform="translate(0)"/><path class="cls-36" d="M59.2,95.7H57.49v4.66H56.34V95.7H54.65v-.94H59.2Zm5.88,2.61h-.92v2H63v-5.6h2.08a2.38,2.38,0,0,1,1.53.44,1.54,1.54,0,0,1,.54,1.25,1.8,1.8,0,0,1-.25,1,1.77,1.77,0,0,1-.75.61l1.21,2.28v.06H66.13Zm-.92-.93h.93a1,1,0,0,0,.68-.22.8.8,0,0,0,.23-.61.85.85,0,0,0-.22-.63.94.94,0,0,0-.69-.22h-.93Zm8.77-.1,1.16-2.52h1.26l-1.83,3.57v2H72.35v-2l-1.84-3.57h1.26Z" transform="translate(0)"/></g><path d="M50.57,143h2.65v.6H49.83V138h.74Zm5.1.68a1.81,1.81,0,0,1-1.37-.56,2,2,0,0,1-.53-1.48v-.13a2.62,2.62,0,0,1,.23-1.11,1.89,1.89,0,0,1,.66-.76,1.7,1.7,0,0,1,.92-.27,1.55,1.55,0,0,1,1.27.53,2.38,2.38,0,0,1,.44,1.53v.3H54.48a1.46,1.46,0,0,0,.36,1,1.14,1.14,0,0,0,.87.38,1.17,1.17,0,0,0,.64-.16,1.58,1.58,0,0,0,.46-.4l.43.33A1.74,1.74,0,0,1,55.67,143.63Zm-.09-3.73a1,1,0,0,0-.72.32,1.52,1.52,0,0,0-.36.87h2.08V141a1.32,1.32,0,0,0-.29-.84A.89.89,0,0,0,55.58,139.9Zm4.21,3.15a1,1,0,0,0,.66-.23.83.83,0,0,0,.32-.58h.67a1.19,1.19,0,0,1-.25.68,1.6,1.6,0,0,1-.6.52,1.85,1.85,0,0,1-.8.19,1.7,1.7,0,0,1-1.35-.57,2.22,2.22,0,0,1-.5-1.55v-.12a2.51,2.51,0,0,1,.22-1.08,1.69,1.69,0,0,1,.64-.73,1.77,1.77,0,0,1,1-.26,1.64,1.64,0,0,1,1.16.42,1.47,1.47,0,0,1,.5,1.08h-.67a.94.94,0,0,0-.31-.66,1,1,0,0,0-.68-.26,1,1,0,0,0-.84.39,1.9,1.9,0,0,0-.29,1.13v.13a1.86,1.86,0,0,0,.29,1.11A1,1,0,0,0,59.79,143.05Zm3.41-4.66v1H64v.55H63.2v2.58a.59.59,0,0,0,.11.38.43.43,0,0,0,.35.12,1.69,1.69,0,0,0,.34,0v.57a2.15,2.15,0,0,1-.55.08.88.88,0,0,1-.71-.29,1.18,1.18,0,0,1-.25-.82v-2.58h-.75v-.55h.75v-1Zm3.34,5.24a1.85,1.85,0,0,1-1.38-.56,2.06,2.06,0,0,1-.53-1.48v-.13a2.48,2.48,0,0,1,.24-1.11,1.89,1.89,0,0,1,.66-.76,1.68,1.68,0,0,1,.92-.27,1.54,1.54,0,0,1,1.26.53,2.33,2.33,0,0,1,.45,1.53v.3H65.34a1.46,1.46,0,0,0,.36,1,1.14,1.14,0,0,0,.88.38,1.19,1.19,0,0,0,.64-.16,1.55,1.55,0,0,0,.45-.4l.44.33A1.74,1.74,0,0,1,66.54,143.63Zm-.09-3.73a.93.93,0,0,0-.72.32,1.4,1.4,0,0,0-.36.87h2.08V141a1.38,1.38,0,0,0-.29-.84A.9.9,0,0,0,66.45,139.9Zm5.1,3.24a1.51,1.51,0,0,1-1.21.49,1.29,1.29,0,0,1-1-.39A1.65,1.65,0,0,1,69,142.1v-2.71h.71v2.69c0,.63.26.94.77.94a1.06,1.06,0,0,0,1.08-.6v-3h.72v4.16h-.68ZM75.34,140a2,2,0,0,0-.35,0,.93.93,0,0,0-.95.59v3h-.71v-4.16H74v.48a1.11,1.11,0,0,1,1-.55.85.85,0,0,1,.32.05Zm6.43-1.47H80v5h-.73v-5h-1.8V138h4.33Zm1.49,5h-.71v-4.16h.71Zm-.77-5.26a.44.44,0,0,1,.11-.29.39.39,0,0,1,.31-.12.42.42,0,0,1,.32.12.43.43,0,0,1,.1.29.41.41,0,0,1-.1.29.42.42,0,0,1-.32.11.38.38,0,0,1-.31-.11A.42.42,0,0,1,82.49,138.29Zm2.58,1.1,0,.46a1.55,1.55,0,0,1,1.23-.53,1.19,1.19,0,0,1,1.19.67,1.59,1.59,0,0,1,.54-.49,1.62,1.62,0,0,1,.79-.18c.91,0,1.37.48,1.39,1.44v2.79h-.71v-2.74a.94.94,0,0,0-.21-.67.87.87,0,0,0-.68-.22.94.94,0,0,0-.66.24,1,1,0,0,0-.3.63v2.76H87v-2.72c0-.61-.29-.91-.88-.91a1,1,0,0,0-1,.6v3H84.4v-4.16Zm8,4.24a1.83,1.83,0,0,1-1.38-.56,2.06,2.06,0,0,1-.53-1.48v-.13a2.48,2.48,0,0,1,.24-1.11,1.89,1.89,0,0,1,.66-.76,1.68,1.68,0,0,1,.92-.27,1.54,1.54,0,0,1,1.26.53,2.33,2.33,0,0,1,.45,1.53v.3H91.83a1.46,1.46,0,0,0,.36,1,1.25,1.25,0,0,0,1.51.22,1.46,1.46,0,0,0,.46-.4l.44.33A1.75,1.75,0,0,1,93,143.63Zm-.09-3.73a.93.93,0,0,0-.72.32,1.4,1.4,0,0,0-.36.87h2.08V141a1.38,1.38,0,0,0-.29-.84A.9.9,0,0,0,92.94,139.9Zm5,2.55a.55.55,0,0,0-.22-.45,2.15,2.15,0,0,0-.76-.27,3.77,3.77,0,0,1-.86-.28,1.42,1.42,0,0,1-.47-.38.94.94,0,0,1-.15-.53,1.08,1.08,0,0,1,.44-.87,1.63,1.63,0,0,1,1.1-.35,1.78,1.78,0,0,1,1.15.36,1.19,1.19,0,0,1,.44.94h-.72a.63.63,0,0,0-.25-.51.91.91,0,0,0-.62-.21,1,1,0,0,0-.61.17.54.54,0,0,0-.21.44.43.43,0,0,0,.2.39,2.48,2.48,0,0,0,.73.25,3.87,3.87,0,0,1,.87.28,1.34,1.34,0,0,1,.49.4,1.1,1.1,0,0,1-.29,1.46,1.84,1.84,0,0,1-1.16.34,2.07,2.07,0,0,1-.88-.18,1.4,1.4,0,0,1-.6-.49,1.16,1.16,0,0,1-.22-.69H96a.76.76,0,0,0,.29.57,1.1,1.1,0,0,0,.7.21,1.22,1.22,0,0,0,.65-.16A.52.52,0,0,0,97.9,142.45Zm5.35-1.39a3.52,3.52,0,0,1-1.39-.67,1.3,1.3,0,0,1-.43-1,1.36,1.36,0,0,1,.53-1.09,2.08,2.08,0,0,1,1.37-.43,2.26,2.26,0,0,1,1,.22,1.76,1.76,0,0,1,.7.62,1.59,1.59,0,0,1,.25.85h-.74a1,1,0,0,0-.33-.79,1.28,1.28,0,0,0-.91-.29,1.34,1.34,0,0,0-.85.24.8.8,0,0,0-.3.66.71.71,0,0,0,.28.58,2.91,2.91,0,0,0,1,.43,4.69,4.69,0,0,1,1.09.44,1.58,1.58,0,0,1,.59.55,1.48,1.48,0,0,1,.19.74,1.32,1.32,0,0,1-.53,1.09,2.28,2.28,0,0,1-1.42.41,2.73,2.73,0,0,1-1.07-.22,1.86,1.86,0,0,1-.78-.61,1.45,1.45,0,0,1-.27-.87H102a1,1,0,0,0,.37.8,1.55,1.55,0,0,0,1,.29,1.46,1.46,0,0,0,.9-.23.8.8,0,0,0,.31-.65.77.77,0,0,0-.29-.64A3.18,3.18,0,0,0,103.25,141.06Zm2.73.38a2.44,2.44,0,0,1,.45-1.55,1.47,1.47,0,0,1,1.21-.57,1.44,1.44,0,0,1,1.16.49l0-.42h.66v5.76h-.71v-2a1.53,1.53,0,0,1-1.15.46,1.44,1.44,0,0,1-1.2-.59,2.48,2.48,0,0,1-.45-1.55Zm.71.08a1.8,1.8,0,0,0,.31,1.12,1,1,0,0,0,.81.41,1.07,1.07,0,0,0,1-.56v-2a1.07,1.07,0,0,0-1-.55,1,1,0,0,0-.82.41A2,2,0,0,0,106.69,141.52Zm6.51,1.62a1.54,1.54,0,0,1-1.22.49,1.32,1.32,0,0,1-1-.39,1.71,1.71,0,0,1-.35-1.14v-2.71h.71v2.69c0,.63.26.94.77.94a1.07,1.07,0,0,0,1.09-.6v-3h.71v4.16h-.68Zm4.34.41a1.36,1.36,0,0,1-.1-.44,1.58,1.58,0,0,1-1.19.52,1.51,1.51,0,0,1-1-.35,1.13,1.13,0,0,1-.39-.88,1.19,1.19,0,0,1,.49-1,2.38,2.38,0,0,1,1.4-.36h.69v-.33a.81.81,0,0,0-.23-.59.85.85,0,0,0-.65-.22,1,1,0,0,0-.64.19.57.57,0,0,0-.26.47h-.71a1,1,0,0,1,.22-.6,1.37,1.37,0,0,1,.59-.46,2,2,0,0,1,.84-.17,1.62,1.62,0,0,1,1.12.36,1.25,1.25,0,0,1,.43,1v1.92a2.52,2.52,0,0,0,.14.91v.06Zm-1.18-.54a1.29,1.29,0,0,0,.63-.17,1.12,1.12,0,0,0,.44-.45v-.86h-.56c-.87,0-1.31.26-1.31.77a.64.64,0,0,0,.23.52A.8.8,0,0,0,116.36,143Zm4.9-3a1.94,1.94,0,0,0-.35,0,.93.93,0,0,0-1,.59v3h-.71v-4.16h.69l0,.48a1.1,1.1,0,0,1,1-.55.83.83,0,0,1,.31.05Zm2.31,3.6a1.82,1.82,0,0,1-1.38-.56,2.06,2.06,0,0,1-.53-1.48v-.13a2.62,2.62,0,0,1,.23-1.11,1.84,1.84,0,0,1,.67-.76,1.68,1.68,0,0,1,.92-.27,1.54,1.54,0,0,1,1.26.53,2.33,2.33,0,0,1,.45,1.53v.3h-2.82a1.46,1.46,0,0,0,.36,1,1.25,1.25,0,0,0,1.51.22,1.46,1.46,0,0,0,.46-.4l.43.33A1.73,1.73,0,0,1,123.57,143.63Zm-.09-3.73a.93.93,0,0,0-.72.32,1.46,1.46,0,0,0-.37.87h2.09V141a1.33,1.33,0,0,0-.3-.84A.87.87,0,0,0,123.48,139.9Z" transform="translate(0)"/><path d="M45.37,66.54A1.93,1.93,0,0,1,44.7,68a2.3,2.3,0,0,1-1.58.52,2.1,2.1,0,0,1-1.69-.72,3,3,0,0,1-.62-2v-.34A3.38,3.38,0,0,1,41.1,64a2.08,2.08,0,0,1,.81-.94,2.26,2.26,0,0,1,1.23-.33,2.33,2.33,0,0,1,1.56.52,2.14,2.14,0,0,1,.68,1.46H44.23a1.18,1.18,0,0,0-.31-.79,1.1,1.1,0,0,0-.78-.24,1,1,0,0,0-.87.41A2.28,2.28,0,0,0,42,65.37v.42a2.52,2.52,0,0,0,.27,1.33,1,1,0,0,0,.87.42,1.16,1.16,0,0,0,.8-.24,1.18,1.18,0,0,0,.3-.76ZM48,68.48a2.05,2.05,0,0,1-1.49-.56,2,2,0,0,1-.57-1.49v-.11a2.52,2.52,0,0,1,.24-1.12,1.8,1.8,0,0,1,.68-.76,1.94,1.94,0,0,1,1-.27,1.73,1.73,0,0,1,1.34.54,2.2,2.2,0,0,1,.49,1.52v.46H47a1,1,0,0,0,1,.9,1.19,1.19,0,0,0,1-.47l.55.61a1.61,1.61,0,0,1-.68.55A2.09,2.09,0,0,1,48,68.48Zm-.13-3.41a.7.7,0,0,0-.54.22,1.22,1.22,0,0,0-.26.64h1.55v-.09a.86.86,0,0,0-.2-.57A.74.74,0,0,0,47.84,65.07Zm3.49-.82,0,.48a1.45,1.45,0,0,1,1.19-.56,1.21,1.21,0,0,1,1,.39,1.86,1.86,0,0,1,.33,1.16V68.4H52.77V65.74a.69.69,0,0,0-.16-.51.71.71,0,0,0-.51-.16.78.78,0,0,0-.7.4V68.4H50.29V64.25Zm4.72-1v1h.71v.81h-.71v2.08a.5.5,0,0,0,.09.33.47.47,0,0,0,.34.1,1.69,1.69,0,0,0,.33,0v.84a2.24,2.24,0,0,1-.68.1,1.06,1.06,0,0,1-1.19-1.18V65.06h-.6v-.81h.6v-1Zm3.67,2.07-.4,0a.82.82,0,0,0-.83.42V68.4H57.38V64.25h1l0,.49a1,1,0,0,1,.93-.57,1.21,1.21,0,0,1,.34,0Zm2.37,3.19a2.07,2.07,0,0,1-1.49-.56A2,2,0,0,1,60,66.43v-.11a2.52,2.52,0,0,1,.24-1.12,1.76,1.76,0,0,1,.69-.76,1.88,1.88,0,0,1,1-.27,1.7,1.7,0,0,1,1.34.54,2.15,2.15,0,0,1,.49,1.52v.46H61.16a1,1,0,0,0,.32.65,1,1,0,0,0,.69.25,1.21,1.21,0,0,0,1-.47l.54.61a1.58,1.58,0,0,1-.67.55A2.13,2.13,0,0,1,62.09,68.48ZM62,65.07a.7.7,0,0,0-.54.22,1.14,1.14,0,0,0-.26.64h1.54v-.09a.81.81,0,0,0-.2-.57A.73.73,0,0,0,62,65.07Zm4.25,1.22a2.49,2.49,0,0,1,.44-1.54,1.4,1.4,0,0,1,1.19-.58,1.29,1.29,0,0,1,1,.45V62.5H70v5.9H69L68.91,68a1.28,1.28,0,0,1-1.06.52,1.4,1.4,0,0,1-1.18-.58A2.55,2.55,0,0,1,66.22,66.29Zm1.11.09a1.6,1.6,0,0,0,.21.89.65.65,0,0,0,.59.31.76.76,0,0,0,.73-.43V65.51a.74.74,0,0,0-.72-.44C67.6,65.07,67.33,65.51,67.33,66.38Zm5.41,2.1a2.07,2.07,0,0,1-1.49-.56,2,2,0,0,1-.57-1.49v-.11a2.52,2.52,0,0,1,.24-1.12,1.76,1.76,0,0,1,.69-.76,1.88,1.88,0,0,1,1-.27,1.7,1.7,0,0,1,1.34.54,2.15,2.15,0,0,1,.49,1.52v.46H71.81a1,1,0,0,0,.32.65,1,1,0,0,0,.69.25,1.19,1.19,0,0,0,1-.47l.55.61a1.68,1.68,0,0,1-.68.55A2.1,2.1,0,0,1,72.74,68.48Zm-.12-3.41a.7.7,0,0,0-.54.22,1.14,1.14,0,0,0-.26.64h1.54v-.09a.81.81,0,0,0-.2-.57A.72.72,0,0,0,72.62,65.07Zm6.68,2.18a.35.35,0,0,0-.2-.31,2.53,2.53,0,0,0-.65-.22c-1-.2-1.48-.62-1.48-1.26a1.16,1.16,0,0,1,.45-.92,1.86,1.86,0,0,1,1.21-.37,2,2,0,0,1,1.26.37,1.17,1.17,0,0,1,.48,1H79.26a.5.5,0,0,0-.16-.39.62.62,0,0,0-.48-.16.63.63,0,0,0-.43.13.39.39,0,0,0-.15.32.34.34,0,0,0,.17.3,2.07,2.07,0,0,0,.59.2,4.15,4.15,0,0,1,.7.18,1.15,1.15,0,0,1,.88,1.12,1.07,1.07,0,0,1-.49.92,2.11,2.11,0,0,1-1.26.35,2.27,2.27,0,0,1-.93-.18,1.61,1.61,0,0,1-.63-.51,1.18,1.18,0,0,1-.23-.71h1a.58.58,0,0,0,.22.46.89.89,0,0,0,.54.15.77.77,0,0,0,.48-.12A.37.37,0,0,0,79.3,67.25Zm4.29.73a1.42,1.42,0,0,1-1.14.5,1.32,1.32,0,0,1-1-.38A1.66,1.66,0,0,1,81.07,67V64.25h1.11v2.68c0,.44.2.65.59.65a.81.81,0,0,0,.78-.39V64.25h1.11V68.4h-1Zm4.25-2.69-.4,0a.82.82,0,0,0-.83.42V68.4H85.5V64.25h1l0,.49a1,1,0,0,1,.93-.57,1.27,1.27,0,0,1,.34,0ZM90,67.05l.77-2.8h1.16l-1.4,4.15H89.47l-1.4-4.15h1.16Zm4.28,1.43a2.07,2.07,0,0,1-1.49-.56,2,2,0,0,1-.57-1.49v-.11a2.52,2.52,0,0,1,.24-1.12,1.76,1.76,0,0,1,.69-.76,1.88,1.88,0,0,1,1-.27,1.7,1.7,0,0,1,1.34.54A2.15,2.15,0,0,1,96,66.23v.46H93.35a1,1,0,0,0,.32.65,1,1,0,0,0,.69.25,1.19,1.19,0,0,0,1-.47l.55.61a1.68,1.68,0,0,1-.68.55A2.1,2.1,0,0,1,94.28,68.48Zm-.12-3.41a.7.7,0,0,0-.54.22,1.14,1.14,0,0,0-.26.64H94.9v-.09a.81.81,0,0,0-.2-.57A.73.73,0,0,0,94.16,65.07ZM97.8,68.4H96.69V64.25H97.8Zm-1.18-5.23a.55.55,0,0,1,.17-.41.61.61,0,0,1,.45-.16.65.65,0,0,1,.46.16.58.58,0,0,1,0,.83.65.65,0,0,1-.45.16.67.67,0,0,1-.45-.16A.57.57,0,0,1,96.62,63.17Zm3.27,5.23H98.78V62.5h1.11Zm2.09,0h-1.11V62.5H102Zm3.33,0a1.16,1.16,0,0,1-.11-.37,1.35,1.35,0,0,1-1,.45,1.52,1.52,0,0,1-1-.35,1.18,1.18,0,0,1-.4-.89,1.21,1.21,0,0,1,.49-1,2.53,2.53,0,0,1,1.42-.36h.51v-.23a.7.7,0,0,0-.15-.47.59.59,0,0,0-.46-.17.69.69,0,0,0-.45.14.47.47,0,0,0-.15.37h-1.11a1.08,1.08,0,0,1,.22-.67,1.4,1.4,0,0,1,.63-.48,2.21,2.21,0,0,1,.91-.18,1.79,1.79,0,0,1,1.22.39,1.34,1.34,0,0,1,.45,1.08v1.8a2,2,0,0,0,.17.9v.06Zm-.92-.77a.86.86,0,0,0,.45-.11.73.73,0,0,0,.31-.29v-.72h-.41c-.56,0-.86.2-.89.58v.07a.45.45,0,0,0,.15.34A.57.57,0,0,0,104.39,67.63Zm3.75-3.38,0,.48a1.47,1.47,0,0,1,1.2-.56,1.19,1.19,0,0,1,1,.39,1.75,1.75,0,0,1,.33,1.16V68.4h-1.11V65.74a.74.74,0,0,0-.15-.51.71.71,0,0,0-.51-.16.77.77,0,0,0-.7.4V68.4h-1.12V64.25Zm5.12,3.34a.76.76,0,0,0,.5-.17A.63.63,0,0,0,114,67h1a1.39,1.39,0,0,1-.23.77,1.47,1.47,0,0,1-.63.55,1.9,1.9,0,0,1-.86.19,1.82,1.82,0,0,1-1.41-.56,2.28,2.28,0,0,1-.51-1.57v-.07a2.22,2.22,0,0,1,.51-1.54,1.79,1.79,0,0,1,1.4-.57,1.73,1.73,0,0,1,1.25.45,1.57,1.57,0,0,1,.48,1.17h-1a.78.78,0,0,0-.2-.52.69.69,0,0,0-.51-.2.67.67,0,0,0-.59.28,1.66,1.66,0,0,0-.19.92v.11a1.64,1.64,0,0,0,.19.92A.68.68,0,0,0,113.26,67.59Zm4.29.89a2.05,2.05,0,0,1-1.49-.56,2,2,0,0,1-.58-1.49v-.11a2.52,2.52,0,0,1,.24-1.12,1.82,1.82,0,0,1,.69-.76,1.91,1.91,0,0,1,1-.27,1.7,1.7,0,0,1,1.34.54,2.15,2.15,0,0,1,.49,1.52v.46h-2.64a1,1,0,0,0,.32.65,1,1,0,0,0,.69.25,1.19,1.19,0,0,0,1-.47l.55.61a1.61,1.61,0,0,1-.68.55A2.09,2.09,0,0,1,117.55,68.48Zm-.13-3.41a.7.7,0,0,0-.54.22,1.22,1.22,0,0,0-.26.64h1.54v-.09a.81.81,0,0,0-.2-.57A.72.72,0,0,0,117.42,65.07Zm4.26,1.22a2.49,2.49,0,0,1,.43-1.54,1.41,1.41,0,0,1,1.2-.58,1.29,1.29,0,0,1,1,.45V62.5h1.11v5.9h-1l0-.44a1.31,1.31,0,0,1-1.07.52,1.41,1.41,0,0,1-1.18-.58A2.55,2.55,0,0,1,121.68,66.29Zm1.11.09a1.61,1.61,0,0,0,.2.89.66.66,0,0,0,.59.31.74.74,0,0,0,.73-.43V65.51a.74.74,0,0,0-.72-.44C123.05,65.07,122.79,65.51,122.79,66.38Zm5.41,2.1a2.05,2.05,0,0,1-1.49-.56,2,2,0,0,1-.58-1.49v-.11a2.4,2.4,0,0,1,.25-1.12,1.73,1.73,0,0,1,.68-.76,1.91,1.91,0,0,1,1-.27,1.7,1.7,0,0,1,1.34.54,2.16,2.16,0,0,1,.5,1.52v.46h-2.65a1,1,0,0,0,.32.65,1,1,0,0,0,.69.25,1.19,1.19,0,0,0,1-.47l.55.61a1.61,1.61,0,0,1-.68.55A2.09,2.09,0,0,1,128.2,68.48Zm-.13-3.41a.7.7,0,0,0-.54.22,1.22,1.22,0,0,0-.26.64h1.55v-.09a.91.91,0,0,0-.2-.57A.76.76,0,0,0,128.07,65.07Zm4.72,2.18a.35.35,0,0,0-.2-.31,2.39,2.39,0,0,0-.65-.22c-1-.2-1.48-.62-1.48-1.26a1.14,1.14,0,0,1,.46-.92,1.81,1.81,0,0,1,1.2-.37,2,2,0,0,1,1.26.37,1.17,1.17,0,0,1,.48,1h-1.11a.53.53,0,0,0-.15-.39.8.8,0,0,0-.92,0,.39.39,0,0,0-.15.32.36.36,0,0,0,.17.3,2.19,2.19,0,0,0,.59.2,4.15,4.15,0,0,1,.7.18,1.15,1.15,0,0,1,.88,1.12,1.07,1.07,0,0,1-.49.92,2.11,2.11,0,0,1-1.26.35,2.27,2.27,0,0,1-.93-.18,1.61,1.61,0,0,1-.63-.51,1.25,1.25,0,0,1-.23-.71h1a.58.58,0,0,0,.22.46.92.92,0,0,0,.55.15.81.81,0,0,0,.48-.12A.36.36,0,0,0,132.79,67.25Zm4.93,1.15h-1.11V62.5h1.11Zm2.83.08a2.07,2.07,0,0,1-1.49-.56,2,2,0,0,1-.57-1.49v-.11a2.52,2.52,0,0,1,.24-1.12,1.76,1.76,0,0,1,.69-.76,1.88,1.88,0,0,1,1-.27,1.7,1.7,0,0,1,1.34.54,2.15,2.15,0,0,1,.49,1.52v.46h-2.64a1,1,0,0,0,.32.65,1,1,0,0,0,.69.25,1.21,1.21,0,0,0,1-.47l.55.61a1.68,1.68,0,0,1-.68.55A2.13,2.13,0,0,1,140.55,68.48Zm-.12-3.41a.7.7,0,0,0-.54.22,1.14,1.14,0,0,0-.26.64h1.54v-.09a.81.81,0,0,0-.2-.57A.73.73,0,0,0,140.43,65.07Zm4.2,2.52a.76.76,0,0,0,.5-.17.62.62,0,0,0,.19-.45h1.05a1.48,1.48,0,0,1-.86,1.32,1.9,1.9,0,0,1-.86.19,1.82,1.82,0,0,1-1.41-.56,2.29,2.29,0,0,1-.52-1.57v-.07a2.22,2.22,0,0,1,.52-1.54,1.77,1.77,0,0,1,1.4-.57,1.74,1.74,0,0,1,1.25.45,1.57,1.57,0,0,1,.48,1.17h-1.05a.77.77,0,0,0-.19-.52.69.69,0,0,0-.51-.2.67.67,0,0,0-.59.28,1.66,1.66,0,0,0-.19.92v.11a1.64,1.64,0,0,0,.19.92A.68.68,0,0,0,144.63,67.59Zm3.7-4.37v1H149v.81h-.71v2.08a.5.5,0,0,0,.09.33.47.47,0,0,0,.34.1,1.51,1.51,0,0,0,.32,0v.84a2.13,2.13,0,0,1-.67.1,1.06,1.06,0,0,1-1.19-1.18V65.06h-.61v-.81h.61v-1Zm3.24,5.26a2.07,2.07,0,0,1-1.49-.56,2,2,0,0,1-.57-1.49v-.11a2.52,2.52,0,0,1,.24-1.12,1.76,1.76,0,0,1,.69-.76,1.88,1.88,0,0,1,1-.27,1.7,1.7,0,0,1,1.34.54,2.15,2.15,0,0,1,.49,1.52v.46h-2.65a1,1,0,0,0,.33.65,1,1,0,0,0,.69.25,1.21,1.21,0,0,0,1-.47l.54.61a1.58,1.58,0,0,1-.67.55A2.13,2.13,0,0,1,151.57,68.48Zm-.12-3.41a.7.7,0,0,0-.54.22,1.08,1.08,0,0,0-.26.64h1.54v-.09a.81.81,0,0,0-.2-.57A.73.73,0,0,0,151.45,65.07Zm5,2.91a1.42,1.42,0,0,1-1.14.5,1.32,1.32,0,0,1-1-.38,1.66,1.66,0,0,1-.36-1.13V64.25H155v2.68c0,.44.2.65.59.65a.81.81,0,0,0,.78-.39V64.25h1.11V68.4h-1Zm4.25-2.69-.4,0a.82.82,0,0,0-.83.42V68.4h-1.11V64.25h1.05l0,.49a1,1,0,0,1,.93-.57,1.27,1.27,0,0,1,.34,0Zm2.79,2a.34.34,0,0,0-.21-.31,2.43,2.43,0,0,0-.64-.22c-1-.2-1.49-.62-1.49-1.26a1.17,1.17,0,0,1,.46-.92,1.85,1.85,0,0,1,1.2-.37,2,2,0,0,1,1.27.37,1.19,1.19,0,0,1,.47,1H163.4a.53.53,0,0,0-.15-.39.79.79,0,0,0-.91,0,.38.38,0,0,0-.16.32.36.36,0,0,0,.17.3,2.16,2.16,0,0,0,.6.2,4.41,4.41,0,0,1,.7.18,1.15,1.15,0,0,1,.87,1.12,1.08,1.08,0,0,1-.48.92,2.16,2.16,0,0,1-1.26.35,2.27,2.27,0,0,1-.93-.18,1.73,1.73,0,0,1-.64-.51,1.25,1.25,0,0,1-.23-.71H162a.58.58,0,0,0,.22.46.87.87,0,0,0,.54.15.81.81,0,0,0,.48-.12A.37.37,0,0,0,163.45,67.25Z" transform="translate(0)"/><rect class="cls-45" x="162.81" y="138.54" width="67.12" height="5.32" rx="0.92"/><rect class="cls-1" x="52.28" y="0.28" width="259.93" height="111.74" rx="5.34"/><rect class="cls-45" x="161.65" y="75.76" width="6.65" height="3.99" rx="0.92"/><rect class="cls-45" x="161.65" y="68.45" width="6.65" height="3.99" rx="0.92"/><rect class="cls-45" x="161.65" y="61.14" width="6.65" height="3.99" rx="0.92"/><rect class="cls-45" x="161.65" y="53.83" width="6.65" height="3.99" rx="0.92"/><rect class="cls-45" x="161.65" y="46.52" width="6.65" height="3.99" rx="0.92"/><rect class="cls-45" x="161.65" y="39.21" width="6.65" height="3.99" rx="0.92"/><rect class="cls-45" x="161.65" y="31.9" width="6.65" height="3.99" rx="0.92"/><path d="M167.82,86.45a2.15,2.15,0,0,1-.29,1.26,1,1,0,0,1-.9.41,1,1,0,0,1-.89-.4,2,2,0,0,1-.3-1.2v-.64a2.17,2.17,0,0,1,.28-1.24,1.06,1.06,0,0,1,.91-.41,1.07,1.07,0,0,1,.9.4,2,2,0,0,1,.29,1.2Zm-.48-.65a1.79,1.79,0,0,0-.17-.89.66.66,0,0,0-1.08,0,1.69,1.69,0,0,0-.17.85v.77a1.93,1.93,0,0,0,.17.91.64.64,0,0,0,1.07,0,1.61,1.61,0,0,0,.18-.87Z" transform="translate(0)"/><path d="M65.81,16.19h-.92v2H63.74V12.65h2.08a2.33,2.33,0,0,1,1.53.44,1.52,1.52,0,0,1,.54,1.25,1.74,1.74,0,0,1-.25.95,1.7,1.7,0,0,1-.75.61l1.21,2.29v0H66.86Zm-.92-.93h.93a.92.92,0,0,0,.67-.22.79.79,0,0,0,.24-.61.84.84,0,0,0-.22-.62.94.94,0,0,0-.69-.23h-.93Zm6.21,3a1.16,1.16,0,0,1-.11-.37,1.35,1.35,0,0,1-1,.45,1.45,1.45,0,0,1-1-.36,1.12,1.12,0,0,1-.4-.89,1.15,1.15,0,0,1,.49-1,2.35,2.35,0,0,1,1.41-.36h.51v-.24a.69.69,0,0,0-.15-.46.57.57,0,0,0-.46-.17.66.66,0,0,0-.44.13.46.46,0,0,0-.16.37H68.62a1.12,1.12,0,0,1,.22-.67,1.56,1.56,0,0,1,.63-.48,2.43,2.43,0,0,1,.92-.17,1.76,1.76,0,0,1,1.21.39,1.3,1.3,0,0,1,.46,1.08v1.8a2.1,2.1,0,0,0,.16.9v.06Zm-.92-.77a1,1,0,0,0,.46-.11.65.65,0,0,0,.3-.29v-.72h-.41c-.56,0-.85.19-.89.58V17a.44.44,0,0,0,.14.34A.57.57,0,0,0,70.18,17.47Zm6.47-1.27a2.49,2.49,0,0,1-.43,1.54,1.4,1.4,0,0,1-1.18.58,1.31,1.31,0,0,1-1-.44v2H72.91V14.08h1l0,.41A1.31,1.31,0,0,1,75,14a1.43,1.43,0,0,1,1.2.57,2.56,2.56,0,0,1,.42,1.56Zm-1.11-.08a1.68,1.68,0,0,0-.2-.89.68.68,0,0,0-.6-.32.72.72,0,0,0-.72.4V17a.74.74,0,0,0,.73.41C75.28,17.42,75.54,17,75.54,16.12Zm5.55.08a2.49,2.49,0,0,1-.44,1.54,1.38,1.38,0,0,1-1.18.58,1.27,1.27,0,0,1-1-.44v2H77.35V14.08h1l0,.41A1.32,1.32,0,0,1,79.47,14a1.39,1.39,0,0,1,1.19.57,2.49,2.49,0,0,1,.43,1.56ZM80,16.12a1.58,1.58,0,0,0-.21-.89.67.67,0,0,0-.6-.32.72.72,0,0,0-.71.4V17a.71.71,0,0,0,.72.41C79.71,17.42,80,17,80,16.12Zm1.63,0a2.57,2.57,0,0,1,.23-1.1,1.79,1.79,0,0,1,.69-.75,2.08,2.08,0,0,1,1-.26,1.89,1.89,0,0,1,1.37.51,2.06,2.06,0,0,1,.6,1.4v.28A2.15,2.15,0,0,1,85,17.74a1.84,1.84,0,0,1-1.43.58,1.86,1.86,0,0,1-1.44-.58,2.18,2.18,0,0,1-.53-1.57Zm1.11.08a1.55,1.55,0,0,0,.22.91.73.73,0,0,0,.64.31.74.74,0,0,0,.63-.3,1.74,1.74,0,0,0,.22-1,1.52,1.52,0,0,0-.22-.89.73.73,0,0,0-.64-.32.71.71,0,0,0-.63.32A1.68,1.68,0,0,0,82.72,16.2Zm5.84-1.07a2,2,0,0,0-.39,0,.83.83,0,0,0-.83.43v2.72H86.23V14.08h1l0,.5a1,1,0,0,1,.92-.57,1,1,0,0,1,.35.05Zm2.06-2.07v1h.72v.82h-.72V17a.47.47,0,0,0,.09.33.43.43,0,0,0,.34.1l.33,0v.84a2.53,2.53,0,0,1-.67.1,1.07,1.07,0,0,1-1.2-1.18V14.9h-.6v-.82h.6v-1Zm3.12,3.07a2.59,2.59,0,0,1,.43-1.55,1.44,1.44,0,0,1,1.2-.57,1.27,1.27,0,0,1,1,.45V12.34h1.12v5.9h-1l0-.44a1.3,1.3,0,0,1-1.07.52,1.41,1.41,0,0,1-1.18-.58A2.61,2.61,0,0,1,93.74,16.13Zm1.11.08a1.71,1.71,0,0,0,.2.9.67.67,0,0,0,.6.31.75.75,0,0,0,.72-.43V15.34a.73.73,0,0,0-.72-.43C95.12,14.91,94.85,15.34,94.85,16.21Zm5.41,2.11a2.05,2.05,0,0,1-1.49-.56,2,2,0,0,1-.57-1.5v-.1A2.49,2.49,0,0,1,98.44,15a1.74,1.74,0,0,1,.68-.76,1.94,1.94,0,0,1,1-.27,1.72,1.72,0,0,1,1.34.54,2.14,2.14,0,0,1,.49,1.52v.45H99.32a1.07,1.07,0,0,0,.33.66,1,1,0,0,0,.68.24,1.2,1.2,0,0,0,1-.46l.54.61a1.66,1.66,0,0,1-.67.55A2.28,2.28,0,0,1,100.26,18.32Zm-.13-3.41a.67.67,0,0,0-.53.22,1.15,1.15,0,0,0-.27.64h1.55v-.09a.82.82,0,0,0-.2-.57A.7.7,0,0,0,100.13,14.91Zm4.26,1.22a2.59,2.59,0,0,1,.43-1.55A1.45,1.45,0,0,1,106,14a1.26,1.26,0,0,1,1,.45V12.34h1.12v5.9h-1l-.06-.44a1.3,1.3,0,0,1-1.07.52,1.41,1.41,0,0,1-1.18-.58A2.61,2.61,0,0,1,104.39,16.13Zm1.11.08a1.62,1.62,0,0,0,.21.9.65.65,0,0,0,.59.31A.75.75,0,0,0,107,17V15.34a.72.72,0,0,0-.71-.43C105.77,14.91,105.5,15.34,105.5,16.21Zm4.67,2h-1.11V14.08h1.11ZM109,13a.53.53,0,0,1,.17-.41.61.61,0,0,1,.45-.16.65.65,0,0,1,.46.16.53.53,0,0,1,.17.41.51.51,0,0,1-.18.41.61.61,0,0,1-.45.16.64.64,0,0,1-.45-.16A.53.53,0,0,1,109,13Zm4.35,4.08a.37.37,0,0,0-.2-.32,2.23,2.23,0,0,0-.65-.21c-1-.21-1.48-.63-1.48-1.26a1.15,1.15,0,0,1,.45-.92,1.86,1.86,0,0,1,1.21-.37,2,2,0,0,1,1.26.37,1.17,1.17,0,0,1,.48,1H113.3a.5.5,0,0,0-.16-.39.62.62,0,0,0-.48-.16.63.63,0,0,0-.43.13.39.39,0,0,0-.15.32.34.34,0,0,0,.17.3,1.84,1.84,0,0,0,.59.19,5.24,5.24,0,0,1,.7.19,1.14,1.14,0,0,1,.88,1.12,1.08,1.08,0,0,1-.49.92,2.41,2.41,0,0,1-2.19.16,1.46,1.46,0,0,1-.63-.51,1.13,1.13,0,0,1-.23-.7h1.05a.55.55,0,0,0,.22.45.85.85,0,0,0,.54.16.82.82,0,0,0,.49-.12A.38.38,0,0,0,113.34,17.09Zm5.54-.89a2.43,2.43,0,0,1-.44,1.54,1.38,1.38,0,0,1-1.17.58,1.31,1.31,0,0,1-1-.44v2h-1.11V14.08h1l0,.41a1.3,1.3,0,0,1,1.05-.48,1.39,1.39,0,0,1,1.19.57,2.49,2.49,0,0,1,.43,1.56Zm-1.11-.08a1.58,1.58,0,0,0-.21-.89.66.66,0,0,0-.59-.32.72.72,0,0,0-.72.4V17a.72.72,0,0,0,.72.41C117.5,17.42,117.77,17,117.77,16.12Zm1.63,0a2.44,2.44,0,0,1,.24-1.1,1.76,1.76,0,0,1,.68-.75,2.08,2.08,0,0,1,1-.26,1.89,1.89,0,0,1,1.37.51,2.06,2.06,0,0,1,.6,1.4v.28a2.16,2.16,0,0,1-.54,1.54,1.83,1.83,0,0,1-1.43.58,1.86,1.86,0,0,1-1.44-.58,2.23,2.23,0,0,1-.53-1.57Zm1.11.08a1.55,1.55,0,0,0,.22.91.73.73,0,0,0,.64.31.74.74,0,0,0,.63-.3,1.73,1.73,0,0,0,.23-1,1.52,1.52,0,0,0-.23-.89.79.79,0,0,0-1.27,0A1.68,1.68,0,0,0,120.51,16.2ZM125,14.08l0,.48a1.44,1.44,0,0,1,1.19-.55,1.22,1.22,0,0,1,1,.39,1.84,1.84,0,0,1,.33,1.16v2.68h-1.11V15.58a.69.69,0,0,0-.16-.51.66.66,0,0,0-.51-.16.75.75,0,0,0-.7.4v2.93H124V14.08Zm4.56,4.16h-1.11V14.08h1.11ZM128.43,13a.53.53,0,0,1,.16-.41.61.61,0,0,1,.46-.16.61.61,0,0,1,.45.16.58.58,0,0,1,0,.82.64.64,0,0,1-.45.16.65.65,0,0,1-.46-.16A.53.53,0,0,1,128.43,13Zm5.84,3.19a2.47,2.47,0,0,1-.43,1.56,1.41,1.41,0,0,1-1.19.56,1.29,1.29,0,0,1-1.08-.52l0,.44h-1v-5.9h1.11v2.12a1.28,1.28,0,0,1,1-.45,1.42,1.42,0,0,1,1.2.56,2.55,2.55,0,0,1,.43,1.57Zm-1.11-.08a1.67,1.67,0,0,0-.2-.92.68.68,0,0,0-.6-.29.74.74,0,0,0-.73.43V17a.74.74,0,0,0,.74.43.69.69,0,0,0,.71-.53A2.85,2.85,0,0,0,133.16,16.12Zm3,2.12H135V14.08h1.12ZM135,13a.53.53,0,0,1,.16-.41.65.65,0,0,1,.46-.16.61.61,0,0,1,.45.16.58.58,0,0,1,0,.82.71.71,0,0,1-.9,0A.53.53,0,0,1,135,13Zm3.27,5.23H137.1v-5.9h1.12Zm2.09,0H139.2V14.08h1.11ZM139.13,13a.53.53,0,0,1,.16-.41.74.74,0,0,1,.92,0,.53.53,0,0,1,.16.41.5.5,0,0,1-.17.41.61.61,0,0,1-.45.16.62.62,0,0,1-.45-.16A.53.53,0,0,1,139.13,13Zm3.43.05v1h.71v.82h-.71V17a.47.47,0,0,0,.09.33.41.41,0,0,0,.33.1l.33,0v.84a2.53,2.53,0,0,1-.67.1,1.06,1.06,0,0,1-1.19-1.18V14.9h-.61v-.82h.61v-1Zm3.24,5.26a2.05,2.05,0,0,1-1.49-.56,2,2,0,0,1-.57-1.5v-.1A2.49,2.49,0,0,1,144,15a1.74,1.74,0,0,1,.68-.76,1.94,1.94,0,0,1,1-.27,1.72,1.72,0,0,1,1.34.54,2.14,2.14,0,0,1,.49,1.52v.45h-2.65a1.12,1.12,0,0,0,.32.66,1,1,0,0,0,.69.24,1.22,1.22,0,0,0,1-.46l.54.61a1.63,1.63,0,0,1-.68.55A2.2,2.2,0,0,1,145.8,18.32Zm-.13-3.41a.7.7,0,0,0-.54.22,1.22,1.22,0,0,0-.26.64h1.55v-.09a.82.82,0,0,0-.2-.57A.7.7,0,0,0,145.67,14.91Zm.1-2.57H147l-1.06,1.19H145Zm4.39,5.36a.58.58,0,0,1,.17-.43.64.64,0,0,1,.45-.17.63.63,0,0,1,.45.17.55.55,0,0,1,.18.43.57.57,0,0,1-.17.42.65.65,0,0,1-.46.16.64.64,0,0,1-.45-.16A.57.57,0,0,1,150.16,17.7Zm0-3.15a.58.58,0,0,1,.17-.43.64.64,0,0,1,.45-.17.63.63,0,0,1,.45.17.55.55,0,0,1,.18.43.6.6,0,0,1-.17.43.69.69,0,0,1-.46.16.69.69,0,0,1-.45-.16A.6.6,0,0,1,150.16,14.55Zm5.16-.47,0,.47a1.45,1.45,0,0,1,1.19-.54,1.12,1.12,0,0,1,1.11.63,1.43,1.43,0,0,1,1.25-.63,1.23,1.23,0,0,1,1,.39,1.82,1.82,0,0,1,.33,1.19v2.65h-1.11V15.59a.76.76,0,0,0-.14-.51.6.6,0,0,0-.49-.17.7.7,0,0,0-.69.48v2.85H156.7V15.59a.75.75,0,0,0-.14-.52.59.59,0,0,0-.48-.16.73.73,0,0,0-.69.39v2.94h-1.11V14.08Zm8.19,4.16a1.16,1.16,0,0,1-.11-.37,1.35,1.35,0,0,1-1.05.45,1.48,1.48,0,0,1-1-.36,1.15,1.15,0,0,1-.4-.89,1.18,1.18,0,0,1,.49-1,2.38,2.38,0,0,1,1.42-.36h.51v-.24a.69.69,0,0,0-.15-.46.59.59,0,0,0-.46-.17.69.69,0,0,0-.45.13.48.48,0,0,0-.15.37H161a1.12,1.12,0,0,1,.22-.67,1.56,1.56,0,0,1,.63-.48,2.42,2.42,0,0,1,.91-.17,1.79,1.79,0,0,1,1.22.39,1.3,1.3,0,0,1,.46,1.08v1.8a2,2,0,0,0,.16.9v.06Zm-.92-.77a.94.94,0,0,0,.45-.11.67.67,0,0,0,.31-.29v-.72h-.41c-.56,0-.85.19-.89.58V17a.42.42,0,0,0,.15.34A.57.57,0,0,0,162.59,17.47Zm3.9.77h-1.11V14.08h1.11ZM165.31,13a.53.53,0,0,1,.17-.41.61.61,0,0,1,.45-.16.65.65,0,0,1,.46.16.53.53,0,0,1,.17.41.51.51,0,0,1-.18.41.61.61,0,0,1-.45.16.64.64,0,0,1-.45-.16A.53.53,0,0,1,165.31,13Zm7.85,5.23h-3.84v-.76l1.81-1.93a4.44,4.44,0,0,0,.55-.71,1.12,1.12,0,0,0,.18-.58.83.83,0,0,0-.19-.58.66.66,0,0,0-.53-.21.72.72,0,0,0-.6.26,1,1,0,0,0-.22.68h-1.11a1.88,1.88,0,0,1,.24-.94,1.78,1.78,0,0,1,.7-.66,2.05,2.05,0,0,1,1-.24,2,2,0,0,1,1.35.42,1.45,1.45,0,0,1,.48,1.17,1.91,1.91,0,0,1-.22.84,4.69,4.69,0,0,1-.74,1l-1.27,1.34h2.41Zm4.45-2.31a2.83,2.83,0,0,1-.48,1.77,1.92,1.92,0,0,1-2.81,0,2.74,2.74,0,0,1-.49-1.73V15a2.82,2.82,0,0,1,.48-1.78,1.67,1.67,0,0,1,1.4-.61,1.69,1.69,0,0,1,1.4.6,2.78,2.78,0,0,1,.5,1.73ZM176.5,14.8a2,2,0,0,0-.2-1,.63.63,0,0,0-.59-.32.64.64,0,0,0-.58.3,1.89,1.89,0,0,0-.19.94v1.36a2.21,2.21,0,0,0,.18,1,.65.65,0,0,0,.6.33.62.62,0,0,0,.59-.32,2.12,2.12,0,0,0,.19-1Zm5.69,3.44h-3.83v-.76l1.81-1.93a4.44,4.44,0,0,0,.55-.71,1.12,1.12,0,0,0,.18-.58.83.83,0,0,0-.19-.58.67.67,0,0,0-.54-.21.7.7,0,0,0-.59.26,1,1,0,0,0-.22.68h-1.11a1.88,1.88,0,0,1,.24-.94,1.69,1.69,0,0,1,.69-.66,2.12,2.12,0,0,1,1-.24,1.94,1.94,0,0,1,1.34.42,1.45,1.45,0,0,1,.48,1.17,1.9,1.9,0,0,1-.21.84,5.06,5.06,0,0,1-.74,1l-1.27,1.34h2.4Zm4.45-2.31a2.83,2.83,0,0,1-.48,1.77,1.91,1.91,0,0,1-2.8,0,2.8,2.8,0,0,1-.5-1.73V15a2.76,2.76,0,0,1,.49-1.78,1.67,1.67,0,0,1,1.4-.61,1.7,1.7,0,0,1,1.4.6,2.72,2.72,0,0,1,.49,1.73Zm-1.11-1.13a2,2,0,0,0-.19-1,.64.64,0,0,0-.59-.32.63.63,0,0,0-.58.3,2,2,0,0,0-.2.94v1.36a2.19,2.19,0,0,0,.19,1,.71.71,0,0,0,1.19,0,2.14,2.14,0,0,0,.18-1Z" transform="translate(0)"/><path d="M78.66,36.63H77.45V40H77V36.63H75.74v-.41h2.92ZM80.59,40a1,1,0,0,1-.07-.3,1,1,0,0,1-.8.35,1,1,0,0,1-.68-.23.77.77,0,0,1-.27-.6.8.8,0,0,1,.33-.68A1.61,1.61,0,0,1,80,38.3h.47v-.22a.54.54,0,0,0-.15-.4.6.6,0,0,0-.44-.15.65.65,0,0,0-.43.13.37.37,0,0,0-.18.31h-.48a.62.62,0,0,1,.15-.4,1,1,0,0,1,.4-.32,1.47,1.47,0,0,1,.56-.11,1.15,1.15,0,0,1,.77.24.9.9,0,0,1,.28.67v1.29a1.51,1.51,0,0,0,.1.62v0Zm-.8-.37a.84.84,0,0,0,.43-.11.72.72,0,0,0,.29-.31v-.57h-.38c-.58,0-.88.17-.88.51a.46.46,0,0,0,.15.36A.61.61,0,0,0,79.79,39.63Zm3.69.09a1,1,0,0,1-.83.33.86.86,0,0,1-.68-.26,1.14,1.14,0,0,1-.24-.77V37.19h.48V39c0,.42.18.63.52.63a.7.7,0,0,0,.73-.41v-2h.48V40h-.45Zm2.14-1.5.62-1h.56l-.92,1.39,1,1.42h-.55l-.65-1L85,40h-.56l1-1.42-.92-1.39H85Zm2.9.35a1.69,1.69,0,0,1,.3-1,1,1,0,0,1,.8-.39,1,1,0,0,1,.79.34V36h.48v4h-.45l0-.3a1,1,0,0,1-.8.35,1,1,0,0,1-.8-.4,1.67,1.67,0,0,1-.3-1Zm.48.06a1.23,1.23,0,0,0,.19.74.66.66,0,0,0,.55.27.7.7,0,0,0,.67-.41V37.94a.72.72,0,0,0-.67-.39.66.66,0,0,0-.55.27A1.38,1.38,0,0,0,89,38.63Zm3.8,1.42a1.23,1.23,0,0,1-.93-.37,1.4,1.4,0,0,1-.36-1v-.08a1.65,1.65,0,0,1,.16-.75,1.25,1.25,0,0,1,.45-.51,1.08,1.08,0,0,1,.62-.19,1.05,1.05,0,0,1,.85.36,1.58,1.58,0,0,1,.3,1v.2H92a1.08,1.08,0,0,0,.24.68.79.79,0,0,0,.6.25.85.85,0,0,0,.43-.1,1.16,1.16,0,0,0,.31-.28l.29.23A1.19,1.19,0,0,1,92.8,40.05Zm-.06-2.52a.63.63,0,0,0-.49.22,1,1,0,0,0-.24.59h1.4v0a.91.91,0,0,0-.19-.56A.6.6,0,0,0,92.74,37.53Zm4.39.09-.24,0a.64.64,0,0,0-.64.41v2h-.48V37.19h.47v.33a.73.73,0,0,1,.67-.38.41.41,0,0,1,.21,0Zm1.56,2.43a1.23,1.23,0,0,1-.93-.37,1.4,1.4,0,0,1-.36-1v-.08a1.65,1.65,0,0,1,.16-.75,1.16,1.16,0,0,1,.44-.51,1.11,1.11,0,0,1,.63-.19,1.05,1.05,0,0,1,.85.36,1.58,1.58,0,0,1,.3,1v.2h-1.9a1.08,1.08,0,0,0,.24.68.76.76,0,0,0,.59.25.81.81,0,0,0,.43-.1,1,1,0,0,0,.31-.28l.3.23A1.19,1.19,0,0,1,98.69,40.05Zm-.06-2.52a.61.61,0,0,0-.49.22,1.07,1.07,0,0,0-.25.59H99.3v0a.86.86,0,0,0-.2-.56A.57.57,0,0,0,98.63,37.53Zm2.16-.34,0,.31a1,1,0,0,1,.83-.36.8.8,0,0,1,.8.45,1.15,1.15,0,0,1,.36-.33,1.13,1.13,0,0,1,.54-.12c.61,0,.92.33.94,1V40h-.49V38.15a.65.65,0,0,0-.13-.45.62.62,0,0,0-.47-.15.61.61,0,0,0-.64.59V40h-.49V38.16a.53.53,0,0,0-.6-.61.63.63,0,0,0-.64.4v2h-.48V37.19Zm6.59,1.44a1.66,1.66,0,0,1-.3,1,.93.93,0,0,1-.79.39,1.07,1.07,0,0,1-.81-.32v1.35H105V37.19h.44l0,.31a1,1,0,0,1,.82-.36,1,1,0,0,1,.8.38,1.69,1.69,0,0,1,.3,1.06Zm-.49-.06a1.23,1.23,0,0,0-.2-.75.65.65,0,0,0-.55-.27.73.73,0,0,0-.66.38v1.35a.73.73,0,0,0,.66.38.66.66,0,0,0,.55-.27A1.36,1.36,0,0,0,106.89,38.57ZM108.51,40H108V36h.48Zm1.29,0h-.48V37.19h.48Zm-.52-3.55a.32.32,0,0,1,.07-.2.29.29,0,0,1,.22-.08.29.29,0,0,1,.21.08.27.27,0,0,1,.07.2.26.26,0,0,1-.07.19.29.29,0,0,1-.21.08.29.29,0,0,1-.22-.08A.32.32,0,0,1,109.28,36.45Zm2.93,2.81a.36.36,0,0,0-.15-.31,1.46,1.46,0,0,0-.51-.18,2.46,2.46,0,0,1-.58-.19.85.85,0,0,1-.32-.26.69.69,0,0,1-.1-.36.73.73,0,0,1,.29-.58,1.16,1.16,0,0,1,.75-.24,1.12,1.12,0,0,1,.77.25.77.77,0,0,1,.3.63h-.48a.44.44,0,0,0-.17-.34.6.6,0,0,0-.42-.15.65.65,0,0,0-.41.12.34.34,0,0,0-.15.3.3.3,0,0,0,.14.26,1.86,1.86,0,0,0,.5.17,2.62,2.62,0,0,1,.58.19.75.75,0,0,1,.33.27.66.66,0,0,1,.11.38.74.74,0,0,1-.3.61,1.26,1.26,0,0,1-.78.22,1.4,1.4,0,0,1-.6-.12,1,1,0,0,1-.41-.33.78.78,0,0,1-.14-.46h.48a.47.47,0,0,0,.19.38.89.89,0,0,0,.91,0A.34.34,0,0,0,112.21,39.26Zm2.74,0a.36.36,0,0,0-.15-.31,1.46,1.46,0,0,0-.51-.18,2.62,2.62,0,0,1-.58-.19.85.85,0,0,1-.32-.26.69.69,0,0,1-.1-.36.73.73,0,0,1,.29-.58,1.32,1.32,0,0,1,1.53,0,.79.79,0,0,1,.29.63h-.48a.44.44,0,0,0-.17-.34.6.6,0,0,0-.42-.15.65.65,0,0,0-.41.12.34.34,0,0,0-.15.3.3.3,0,0,0,.14.26,1.86,1.86,0,0,0,.5.17,2.62,2.62,0,0,1,.58.19.75.75,0,0,1,.33.27.66.66,0,0,1,.11.38.74.74,0,0,1-.3.61,1.26,1.26,0,0,1-.78.22,1.4,1.4,0,0,1-.6-.12,1,1,0,0,1-.41-.33.86.86,0,0,1-.14-.46h.48a.5.5,0,0,0,.19.38.89.89,0,0,0,.91,0A.34.34,0,0,0,115,39.26Zm2.84.74a1,1,0,0,1-.07-.3,1,1,0,0,1-.8.35,1,1,0,0,1-.68-.23.77.77,0,0,1-.27-.6.78.78,0,0,1,.34-.68,1.57,1.57,0,0,1,.94-.24h.46v-.22a.54.54,0,0,0-.15-.4.59.59,0,0,0-.44-.15.67.67,0,0,0-.43.13.37.37,0,0,0-.18.31H116a.62.62,0,0,1,.15-.4,1.05,1.05,0,0,1,.4-.32,1.52,1.52,0,0,1,.57-.11,1.14,1.14,0,0,1,.76.24.87.87,0,0,1,.28.67v1.29a1.7,1.7,0,0,0,.1.62v0Zm-.8-.37a.81.81,0,0,0,.43-.11.67.67,0,0,0,.29-.31v-.57h-.37c-.59,0-.88.17-.88.51a.43.43,0,0,0,.15.36A.58.58,0,0,0,117,39.63Zm1.84-1.06a1.59,1.59,0,0,1,.31-1,1,1,0,0,1,1.6,0l0-.31h.44v2.74a1.12,1.12,0,0,1-.33.86,1.18,1.18,0,0,1-.87.32,1.53,1.53,0,0,1-.59-.13,1.09,1.09,0,0,1-.45-.36l.25-.29a.93.93,0,0,0,.76.38.77.77,0,0,0,.55-.19.78.78,0,0,0,.19-.56v-.24a1,1,0,0,1-.78.33,1,1,0,0,1-.8-.4A1.67,1.67,0,0,1,118.83,38.57Zm.49.06a1.25,1.25,0,0,0,.19.74.63.63,0,0,0,.55.27.68.68,0,0,0,.66-.41V38a.7.7,0,0,0-.66-.4.65.65,0,0,0-.55.27A1.38,1.38,0,0,0,119.32,38.63Zm3.78,1.42a1.23,1.23,0,0,1-.93-.37,1.4,1.4,0,0,1-.36-1v-.08a1.65,1.65,0,0,1,.16-.75,1.18,1.18,0,0,1,.45-.51,1.08,1.08,0,0,1,.62-.19,1.05,1.05,0,0,1,.85.36,1.58,1.58,0,0,1,.3,1v.2h-1.9a1.08,1.08,0,0,0,.24.68.78.78,0,0,0,.59.25.81.81,0,0,0,.43-.1.92.92,0,0,0,.31-.28l.3.23A1.19,1.19,0,0,1,123.1,40.05ZM123,37.53a.61.61,0,0,0-.49.22,1,1,0,0,0-.24.59h1.4v0a.86.86,0,0,0-.2-.56A.57.57,0,0,0,123,37.53ZM75.12,43.19l0,.31a1,1,0,0,1,.83-.36.8.8,0,0,1,.8.45,1.31,1.31,0,0,1,.37-.33,1.09,1.09,0,0,1,.53-.12c.61,0,.93.33.94,1V46h-.48V44.15A.65.65,0,0,0,78,43.7a.61.61,0,0,0-.46-.15.64.64,0,0,0-.45.16.67.67,0,0,0-.2.43V46H76.4V44.16a.53.53,0,0,0-.6-.61.64.64,0,0,0-.65.4v2h-.48V43.19Zm4.09,1.38a1.61,1.61,0,0,1,.16-.74,1.25,1.25,0,0,1,.45-.51,1.21,1.21,0,0,1,.66-.18,1.18,1.18,0,0,1,.93.4,1.48,1.48,0,0,1,.35,1.05v0a1.7,1.7,0,0,1-.15.73,1.25,1.25,0,0,1-.45.51,1.27,1.27,0,0,1-.67.18,1.18,1.18,0,0,1-.93-.4,1.53,1.53,0,0,1-.35-1Zm.48.06a1.17,1.17,0,0,0,.22.75.68.68,0,0,0,.58.28.69.69,0,0,0,.58-.29,1.33,1.33,0,0,0,.21-.8,1.17,1.17,0,0,0-.22-.75.72.72,0,0,0-1.15,0A1.28,1.28,0,0,0,79.69,44.63Zm3.55.67.66-2.11h.51l-1.13,3.24c-.17.47-.45.7-.83.7h-.09l-.18,0V46.7h.13a.53.53,0,0,0,.6-.46L83,46l-1-2.78h.52Zm2.73.75a1.23,1.23,0,0,1-.93-.37,1.4,1.4,0,0,1-.36-1v-.08a1.8,1.8,0,0,1,.16-.75,1.25,1.25,0,0,1,.45-.51,1.08,1.08,0,0,1,.62-.19,1,1,0,0,1,.85.36,1.53,1.53,0,0,1,.31,1v.2H85.16a1,1,0,0,0,.25.68.75.75,0,0,0,.59.25.83.83,0,0,0,.43-.1,1,1,0,0,0,.31-.28l.29.23A1.18,1.18,0,0,1,86,46.05Zm-.06-2.52a.64.64,0,0,0-.49.22,1,1,0,0,0-.24.59h1.41v0a.92.92,0,0,0-.2-.56A.6.6,0,0,0,85.91,43.53Zm2.17-.34,0,.35a1,1,0,0,1,.84-.4c.59,0,.89.33.89,1V46h-.48V44.14a.61.61,0,0,0-.14-.45.57.57,0,0,0-.42-.14.72.72,0,0,0-.68.45v2h-.48V43.19Zm6.17,1.44a1.72,1.72,0,0,1-.29,1,1,1,0,0,1-.8.39,1,1,0,0,1-.8-.32v1.35h-.48V43.19h.44l0,.31a1,1,0,0,1,.81-.36,1,1,0,0,1,.8.38,1.69,1.69,0,0,1,.3,1.06Zm-.48-.06a1.3,1.3,0,0,0-.2-.75.67.67,0,0,0-.56-.27.7.7,0,0,0-.65.38v1.35a.71.71,0,0,0,.66.38.66.66,0,0,0,.55-.27A1.44,1.44,0,0,0,93.77,44.57Zm1,0a1.61,1.61,0,0,1,.16-.74,1.25,1.25,0,0,1,.45-.51,1.21,1.21,0,0,1,.66-.18,1.18,1.18,0,0,1,.93.4,1.53,1.53,0,0,1,.35,1.05v0a1.57,1.57,0,0,1-.16.73,1.16,1.16,0,0,1-.44.51,1.27,1.27,0,0,1-.67.18,1.17,1.17,0,0,1-.93-.4,1.48,1.48,0,0,1-.35-1Zm.48.06a1.23,1.23,0,0,0,.21.75.74.74,0,0,0,1.17,0,1.33,1.33,0,0,0,.21-.8,1.17,1.17,0,0,0-.22-.75.69.69,0,0,0-.58-.29.68.68,0,0,0-.57.29A1.28,1.28,0,0,0,95.22,44.63Zm4.41,1.09a1,1,0,0,1-.82.33.87.87,0,0,1-.69-.26,1.14,1.14,0,0,1-.24-.77V43.19h.48V45c0,.42.18.63.52.63a.73.73,0,0,0,.74-.41v-2h.48V46h-.46Zm2.56-2.1-.24,0a.63.63,0,0,0-.64.41v2h-.48V43.19h.46v.33a.74.74,0,0,1,.67-.38.43.43,0,0,1,.22,0Zm2.21-.43v.31a1.06,1.06,0,0,1,.84-.36.8.8,0,0,1,.8.45,1.15,1.15,0,0,1,.36-.33,1.12,1.12,0,0,1,.53-.12c.62,0,.93.33.94,1V46h-.48V44.15a.65.65,0,0,0-.13-.45.63.63,0,0,0-.47-.15.61.61,0,0,0-.44.16.63.63,0,0,0-.21.43V46h-.48V44.16a.53.53,0,0,0-.6-.61.63.63,0,0,0-.64.4v2H104V43.19ZM110.34,46a1.09,1.09,0,0,1-.06-.3,1.06,1.06,0,0,1-.8.35,1,1,0,0,1-.69-.23.85.85,0,0,1,.07-1.28,1.59,1.59,0,0,1,.94-.24h.47v-.22a.54.54,0,0,0-.15-.4.6.6,0,0,0-.44-.15.7.7,0,0,0-.44.13.38.38,0,0,0-.17.31h-.48a.62.62,0,0,1,.15-.4.92.92,0,0,1,.4-.32,1.47,1.47,0,0,1,.56-.11,1.1,1.1,0,0,1,.76.24.87.87,0,0,1,.29.67v1.29a1.51,1.51,0,0,0,.1.62v0Zm-.79-.37a.84.84,0,0,0,.43-.11.72.72,0,0,0,.29-.31v-.57h-.38c-.59,0-.88.17-.88.51a.46.46,0,0,0,.15.36A.61.61,0,0,0,109.55,45.63ZM112,46h-.48V43.19H112Zm-.52-3.55a.32.32,0,0,1,.07-.2.29.29,0,0,1,.22-.08.29.29,0,0,1,.21.08.27.27,0,0,1,.07.2.26.26,0,0,1-.07.19.29.29,0,0,1-.21.08.29.29,0,0,1-.22-.08A.32.32,0,0,1,111.5,42.45Zm5,3.55h-2.48v-.35l1.31-1.45a2.89,2.89,0,0,0,.4-.53.84.84,0,0,0,.11-.43.73.73,0,0,0-.17-.49.67.67,0,0,0-.48-.19.73.73,0,0,0-.56.21.77.77,0,0,0-.2.56H114a1.11,1.11,0,0,1,.34-.84,1.25,1.25,0,0,1,.9-.32,1.16,1.16,0,0,1,.83.28.94.94,0,0,1,.31.73,2.15,2.15,0,0,1-.72,1.33l-1,1.1h1.9Zm2.88-1.61a2.2,2.2,0,0,1-.29,1.25,1,1,0,0,1-.9.41,1,1,0,0,1-.9-.4,2.16,2.16,0,0,1-.3-1.2v-.64a2.18,2.18,0,0,1,.29-1.24,1.22,1.22,0,0,1,1.8,0,2,2,0,0,1,.3,1.2Zm-.48-.66a1.81,1.81,0,0,0-.17-.89.62.62,0,0,0-.55-.28.59.59,0,0,0-.53.28,1.71,1.71,0,0,0-.18.85v.77a1.8,1.8,0,0,0,.18.91.6.6,0,0,0,.54.29.58.58,0,0,0,.53-.28,1.81,1.81,0,0,0,.18-.86ZM122.51,46H120v-.35l1.31-1.45a2.89,2.89,0,0,0,.4-.53.84.84,0,0,0,.11-.43.73.73,0,0,0-.17-.49.66.66,0,0,0-.48-.19.73.73,0,0,0-.56.21.77.77,0,0,0-.2.56H120a1.11,1.11,0,0,1,.34-.84,1.25,1.25,0,0,1,.9-.32,1.16,1.16,0,0,1,.83.28.9.9,0,0,1,.31.73,2.18,2.18,0,0,1-.71,1.33l-1,1.1h1.9Zm2.88-1.61a2.2,2.2,0,0,1-.29,1.25,1,1,0,0,1-.9.41,1,1,0,0,1-.89-.4,2.07,2.07,0,0,1-.31-1.2v-.64a2.18,2.18,0,0,1,.29-1.24,1.22,1.22,0,0,1,1.8,0,2,2,0,0,1,.3,1.2Zm-.48-.66a1.81,1.81,0,0,0-.17-.89.61.61,0,0,0-.54-.28.59.59,0,0,0-.54.28,1.82,1.82,0,0,0-.18.85v.77a1.8,1.8,0,0,0,.18.91.6.6,0,0,0,.54.29.58.58,0,0,0,.53-.28,1.81,1.81,0,0,0,.18-.86Z" transform="translate(0)"/><circle class="cls-46" cx="99.18" cy="67.78" r="14.95"/><path class="cls-3" d="M113.14,79.08l-4-4.65a10.31,10.31,0,0,0,1.66-4l6,1A15,15,0,0,1,113.14,79.08Z" transform="translate(0)"/><path d="M79.48,97.83h-.89v1.53h-.5V95.58h1.25a1.52,1.52,0,0,1,1,.29,1.06,1.06,0,0,1,.34.85,1,1,0,0,1-.19.62,1.19,1.19,0,0,1-.53.39l.89,1.6v0H80.3Zm-.89-.4h.77a.86.86,0,0,0,.59-.2.61.61,0,0,0,.22-.51.7.7,0,0,0-.21-.54,1,1,0,0,0-.6-.19h-.77Zm3.87,2a1.24,1.24,0,0,1-.93-.38,1.38,1.38,0,0,1-.36-1V98a1.8,1.8,0,0,1,.16-.75,1.25,1.25,0,0,1,.45-.51,1.08,1.08,0,0,1,.62-.19,1,1,0,0,1,.85.36,1.54,1.54,0,0,1,.31,1v.2H81.65a1,1,0,0,0,.25.67.75.75,0,0,0,.59.25.83.83,0,0,0,.43-.1,1,1,0,0,0,.31-.28l.29.23A1.19,1.19,0,0,1,82.46,99.42ZM82.4,96.9a.67.67,0,0,0-.49.21,1,1,0,0,0-.24.59h1.41v0a.92.92,0,0,0-.2-.57A.59.59,0,0,0,82.4,96.9Zm.24-1.52h.58l-.7.76h-.38Zm3.11,3.24a.34.34,0,0,0-.15-.3,1.15,1.15,0,0,0-.51-.19,2.19,2.19,0,0,1-.58-.19.81.81,0,0,1-.31-.26.61.61,0,0,1-.11-.35.73.73,0,0,1,.3-.59,1.12,1.12,0,0,1,.74-.24,1.16,1.16,0,0,1,.78.25.77.77,0,0,1,.3.63h-.49a.42.42,0,0,0-.17-.34.59.59,0,0,0-.42-.14.71.71,0,0,0-.41.11.36.36,0,0,0-.14.3.28.28,0,0,0,.13.26,1.56,1.56,0,0,0,.5.17,2.62,2.62,0,0,1,.58.19.92.92,0,0,1,.33.27.68.68,0,0,1,.11.38.72.72,0,0,1-.3.61,1.27,1.27,0,0,1-.78.23,1.4,1.4,0,0,1-.6-.12,1,1,0,0,1-.41-.34A.86.86,0,0,1,84,98.5h.48a.49.49,0,0,0,.19.38.72.72,0,0,0,.48.14.69.69,0,0,0,.43-.11A.32.32,0,0,0,85.75,98.62Zm2.27.8a1.24,1.24,0,0,1-.93-.38,1.38,1.38,0,0,1-.36-1V98a1.8,1.8,0,0,1,.16-.75,1.25,1.25,0,0,1,.45-.51A1.08,1.08,0,0,1,88,96.5a1,1,0,0,1,.85.36,1.54,1.54,0,0,1,.31,1v.2h-1.9a1,1,0,0,0,.24.67.75.75,0,0,0,.59.25.83.83,0,0,0,.43-.1,1,1,0,0,0,.31-.28l.29.23A1.19,1.19,0,0,1,88,99.42ZM88,96.9a.67.67,0,0,0-.49.21,1,1,0,0,0-.24.59h1.41v0a.92.92,0,0,0-.2-.57A.59.59,0,0,0,88,96.9ZM91,97a.86.86,0,0,0-.23,0,.62.62,0,0,0-.64.4v2h-.48V96.55h.46v.33a.76.76,0,0,1,.67-.38.39.39,0,0,1,.21,0Zm1.42,1.72.7-2.16h.49l-1,2.81h-.37l-1-2.81h.49Zm2.78.71A1.24,1.24,0,0,1,94.3,99a1.38,1.38,0,0,1-.36-1V98a1.65,1.65,0,0,1,.16-.75,1.25,1.25,0,0,1,.45-.51,1.08,1.08,0,0,1,.62-.19,1.05,1.05,0,0,1,.85.36,1.59,1.59,0,0,1,.3,1v.2h-1.9a1,1,0,0,0,.24.67.78.78,0,0,0,.59.25.87.87,0,0,0,.44-.1,1,1,0,0,0,.3-.28l.3.23A1.2,1.2,0,0,1,95.23,99.42Zm-.06-2.52a.64.64,0,0,0-.49.21,1,1,0,0,0-.24.59h1.4v0a.92.92,0,0,0-.19-.57A.59.59,0,0,0,95.17,96.9Zm.23-1.52H96l-.69.76H94.9Z" transform="translate(0)"/><circle class="cls-47" cx="73.93" cy="97.02" r="1.99"/><path d="M110.66,99.36V95.58h1.06a1.82,1.82,0,0,1,.88.22,1.51,1.51,0,0,1,.58.62,2,2,0,0,1,.21.93v.24a2,2,0,0,1-.21.93,1.36,1.36,0,0,1-.59.62,1.7,1.7,0,0,1-.89.22Zm.5-3.37v3h.52a1.15,1.15,0,0,0,.9-.36,1.5,1.5,0,0,0,.32-1v-.22a1.44,1.44,0,0,0-.31-1,1.08,1.08,0,0,0-.85-.37Zm3.43,3.37h-.48V96.55h.48Zm-.52-3.55a.35.35,0,0,1,.07-.2.29.29,0,0,1,.22-.08.26.26,0,0,1,.28.28.25.25,0,0,1-.07.19.25.25,0,0,1-.21.08.26.26,0,0,1-.22-.08A.29.29,0,0,1,114.07,95.81ZM117,98.62a.34.34,0,0,0-.15-.3,1.26,1.26,0,0,0-.51-.19,2.07,2.07,0,0,1-.58-.19.85.85,0,0,1-.32-.26.68.68,0,0,1-.1-.35.75.75,0,0,1,.29-.59,1.16,1.16,0,0,1,.75-.24,1.12,1.12,0,0,1,.77.25.77.77,0,0,1,.3.63H117a.42.42,0,0,0-.17-.34.59.59,0,0,0-.42-.14A.71.71,0,0,0,116,97a.37.37,0,0,0-.15.3.29.29,0,0,0,.14.26,1.56,1.56,0,0,0,.5.17,2.62,2.62,0,0,1,.58.19.92.92,0,0,1,.33.27.68.68,0,0,1,.11.38.72.72,0,0,1-.3.61,1.27,1.27,0,0,1-.78.23,1.4,1.4,0,0,1-.6-.12,1,1,0,0,1-.41-.34.86.86,0,0,1-.14-.46h.48a.49.49,0,0,0,.19.38.72.72,0,0,0,.48.14.71.71,0,0,0,.43-.11A.34.34,0,0,0,117,98.62Zm3.48-.63a1.64,1.64,0,0,1-.3,1,.94.94,0,0,1-.79.4,1,1,0,0,1-.81-.33v1.35h-.47V96.55h.43l0,.32a1.05,1.05,0,0,1,1.61,0,1.7,1.7,0,0,1,.3,1.07Zm-.48,0a1.19,1.19,0,0,0-.21-.75.63.63,0,0,0-.55-.28.72.72,0,0,0-.66.39v1.34a.73.73,0,0,0,.67.38.64.64,0,0,0,.54-.27A1.31,1.31,0,0,0,120,97.94Zm1,0a1.78,1.78,0,0,1,.16-.74,1.22,1.22,0,0,1,1.12-.69,1.15,1.15,0,0,1,.92.4,1.51,1.51,0,0,1,.36,1.06v0a1.64,1.64,0,0,1-.16.74,1.15,1.15,0,0,1-.45.5,1.23,1.23,0,0,1-.67.19,1.18,1.18,0,0,1-.92-.4,1.52,1.52,0,0,1-.36-1Zm.49.06a1.23,1.23,0,0,0,.21.75.7.7,0,0,0,.58.28.67.67,0,0,0,.58-.28,1.28,1.28,0,0,0,.22-.81,1.14,1.14,0,0,0-.22-.74.68.68,0,0,0-.58-.29.7.7,0,0,0-.58.28A1.35,1.35,0,0,0,121.45,98Zm3.13-1.44v.36a1,1,0,0,1,.84-.41c.6,0,.9.34.9,1v1.85h-.48V97.5a.61.61,0,0,0-.14-.44.54.54,0,0,0-.42-.15.71.71,0,0,0-.41.12,1,1,0,0,0-.28.33v2h-.48V96.55Zm3,2.81h-.48V96.55h.48Zm-.52-3.55a.29.29,0,0,1,.49-.2.3.3,0,0,1,.08.2.26.26,0,0,1-.08.19.32.32,0,0,1-.42,0A.25.25,0,0,1,127.06,95.81ZM130.73,98a1.69,1.69,0,0,1-.3,1,.94.94,0,0,1-.79.39,1,1,0,0,1-.83-.38l0,.32h-.44v-4h.48v1.48a1,1,0,0,1,.8-.36.94.94,0,0,1,.8.39,1.69,1.69,0,0,1,.3,1.06Zm-.48,0a1.35,1.35,0,0,0-.19-.76.63.63,0,0,0-.55-.27.7.7,0,0,0-.68.44v1.22a.74.74,0,0,0,.69.44.6.6,0,0,0,.53-.27A1.37,1.37,0,0,0,130.25,97.94Zm1.6,1.42h-.47v-4h.47Zm1.94.06a1.24,1.24,0,0,1-.93-.38,1.38,1.38,0,0,1-.36-1V98a1.8,1.8,0,0,1,.16-.75,1.25,1.25,0,0,1,.45-.51,1.08,1.08,0,0,1,.62-.19,1,1,0,0,1,.85.36,1.54,1.54,0,0,1,.31,1v.2H133a1,1,0,0,0,.25.67.75.75,0,0,0,.59.25.83.83,0,0,0,.43-.1,1,1,0,0,0,.31-.28l.29.23A1.19,1.19,0,0,1,133.79,99.42Zm-.06-2.52a.67.67,0,0,0-.49.21,1,1,0,0,0-.24.59h1.41v0a.92.92,0,0,0-.2-.57A.59.59,0,0,0,133.73,96.9Z" transform="translate(0)"/><circle class="cls-3" cx="106.49" cy="97.02" r="1.99"/><line class="cls-48" x1="173.28" y1="31.23" x2="173.28" y2="87.72"/><line class="cls-48" x1="171.62" y1="87.39" x2="297.88" y2="87.39"/><line class="cls-48" x1="170.29" y1="77.42" x2="297.88" y2="77.42"/><line class="cls-48" x1="170.29" y1="62.8" x2="297.88" y2="62.8"/><line class="cls-48" x1="170.29" y1="48.18" x2="297.88" y2="48.18"/><line class="cls-48" x1="170.29" y1="70.77" x2="297.88" y2="70.77"/><line class="cls-48" x1="170.29" y1="56.15" x2="297.88" y2="56.15"/><line class="cls-48" x1="170.29" y1="41.53" x2="297.88" y2="41.53"/><line class="cls-48" x1="170.29" y1="34.22" x2="297.88" y2="34.22"/><rect class="cls-45" x="215.48" y="92.37" width="33.23" height="5.32" rx="0.92"/><rect class="cls-45" x="257.34" y="92.37" width="33.23" height="5.32" rx="0.92"/><path d="M177.81,97.37h-2.47V97l1.31-1.45A3.25,3.25,0,0,0,177,95a.88.88,0,0,0,.12-.43.69.69,0,0,0-.18-.49.66.66,0,0,0-.48-.19.73.73,0,0,0-.56.21.77.77,0,0,0-.2.56h-.48a1.13,1.13,0,0,1,.34-.84,1.25,1.25,0,0,1,.9-.32,1.16,1.16,0,0,1,.83.28.9.9,0,0,1,.31.73,2.18,2.18,0,0,1-.71,1.33l-1,1.1h1.89Zm2.33-2.81v.31a1.06,1.06,0,0,1,.84-.36.8.8,0,0,1,.8.45,1.15,1.15,0,0,1,.36-.33,1.12,1.12,0,0,1,.53-.12c.62,0,.94.32.94,1v1.88h-.47V95.52a.65.65,0,0,0-.14-.45.62.62,0,0,0-.47-.15.63.63,0,0,0-.44.16.59.59,0,0,0-.2.43v1.86h-.49V95.53a.53.53,0,0,0-.6-.61.63.63,0,0,0-.64.4v2.05h-.48V94.56Zm6,2.81a1,1,0,0,1-.07-.3,1.06,1.06,0,0,1-.8.35,1,1,0,0,1-.68-.23.77.77,0,0,1-.27-.6.8.8,0,0,1,.33-.68,1.61,1.61,0,0,1,.94-.24H186v-.22a.52.52,0,0,0-.15-.4.6.6,0,0,0-.44-.15A.65.65,0,0,0,185,95a.37.37,0,0,0-.18.31h-.48a.67.67,0,0,1,.15-.41,1.05,1.05,0,0,1,.4-.31,1.48,1.48,0,0,1,.57-.11,1.14,1.14,0,0,1,.76.24.9.9,0,0,1,.28.67v1.29a1.51,1.51,0,0,0,.1.62v0Zm-.8-.37a1,1,0,0,0,.43-.11.72.72,0,0,0,.29-.31V96h-.38c-.58,0-.88.17-.88.51a.46.46,0,0,0,.15.36A.61.61,0,0,0,185.29,97Zm2.47.37h-.47V94.56h.47Zm-.51-3.55a.27.27,0,0,1,.07-.2.32.32,0,0,1,.42,0,.28.28,0,0,1,.08.2.27.27,0,0,1-.08.19.32.32,0,0,1-.42,0A.26.26,0,0,1,187.25,93.82Zm5,3.55h-2.47V97l1.3-1.45a2.89,2.89,0,0,0,.4-.53.86.86,0,0,0,.11-.43.68.68,0,0,0-.17-.49.66.66,0,0,0-.48-.19.73.73,0,0,0-.56.21.77.77,0,0,0-.2.56h-.48a1.13,1.13,0,0,1,.34-.84,1.25,1.25,0,0,1,.9-.32,1.16,1.16,0,0,1,.83.28.9.9,0,0,1,.31.73,2.18,2.18,0,0,1-.71,1.33l-1,1.1h1.9Zm2.88-1.61a2.12,2.12,0,0,1-.29,1.25,1,1,0,0,1-.9.41,1,1,0,0,1-.89-.4,2.07,2.07,0,0,1-.31-1.2v-.64a2.18,2.18,0,0,1,.29-1.24,1.05,1.05,0,0,1,.91-.4,1.06,1.06,0,0,1,.9.39,2,2,0,0,1,.29,1.2Zm-.48-.66a1.81,1.81,0,0,0-.17-.89.6.6,0,0,0-.54-.28.59.59,0,0,0-.54.28,1.72,1.72,0,0,0-.17.85v.77a1.82,1.82,0,0,0,.17.91A.6.6,0,0,0,194,97a.58.58,0,0,0,.53-.28,1.6,1.6,0,0,0,.18-.86Zm3.57,2.27h-2.47V97l1.3-1.45a2.89,2.89,0,0,0,.4-.53.88.88,0,0,0,.12-.43.69.69,0,0,0-.18-.49.66.66,0,0,0-.48-.19.73.73,0,0,0-.56.21.77.77,0,0,0-.2.56h-.48a1.13,1.13,0,0,1,.34-.84,1.25,1.25,0,0,1,.9-.32,1.16,1.16,0,0,1,.83.28.9.9,0,0,1,.31.73,2.18,2.18,0,0,1-.71,1.33l-1,1.1h1.9Zm2.88-1.61a2.12,2.12,0,0,1-.29,1.25,1,1,0,0,1-.9.41,1,1,0,0,1-.89-.4,2,2,0,0,1-.3-1.2v-.64a2.19,2.19,0,0,1,.28-1.24,1.05,1.05,0,0,1,.91-.4,1.06,1.06,0,0,1,.9.39,2,2,0,0,1,.29,1.2Zm-.48-.66a1.81,1.81,0,0,0-.17-.89.6.6,0,0,0-.54-.28.59.59,0,0,0-.54.28,1.72,1.72,0,0,0-.17.85v.77a1.93,1.93,0,0,0,.17.91.6.6,0,0,0,.54.29.58.58,0,0,0,.53-.28,1.6,1.6,0,0,0,.18-.86Z" transform="translate(0)"/><path class="cls-49" d="M189.56,87.39c0-5.32,2.12-16,10.63-16s12-9.75,12.63-14.62c1-7.65-.34-13.63,14.61-12.63,12.3.82,16.29,23.26,21.6,27.25C254.35,75,264.85,77,264.32,56.82s9.74-23.48,14.95-22.6" transform="translate(0)"/><circle class="cls-47" cx="204.18" cy="70.44" r="1.33"/><circle class="cls-47" cx="222.12" cy="43.86" r="1.33"/><circle class="cls-47" cx="254.68" cy="73.76" r="1.33"/><circle class="cls-47" cx="280.6" cy="34.56" r="1.33"/><circle class="cls-47" cx="264.65" cy="63.13" r="1.33"/><circle class="cls-47" cx="244.05" cy="63.13" r="1.33"/><circle class="cls-47" cx="211.49" cy="63.13" r="1.33"/><circle class="cls-47" cx="189.56" cy="87.05" r="1.33"/><path class="cls-50" d="M219.35,120c-1.06,0-2.66.53-3.12,1.66-.2.54.13.67.53.34.73-.73,1.53-.93.33,0-.26.2-.66.73-.46.93.33.4,1.06-.4,1.46-.73.4-.07-.33.79-.4,1-.13,1.07,1.33-.53,1.53-.46.4.13-.73,1.06-.07,1.06s1.26-1.26,1.66-1.46.67-.07.73-.53C221.61,120.88,219.82,120,219.35,120Z" transform="translate(0)"/><path class="cls-50" d="M231,166.26a25.88,25.88,0,0,1-1.8,2.73c-.59.73-.06,1.13-.06,1.13l1.26-.47,1.4-1.33,1.72-1.52Z" transform="translate(0)"/><path class="cls-50" d="M237.29,110.84a31.15,31.15,0,0,1-3.79,6.25,8.91,8.91,0,0,1-3.65,2.92c-.07,0-.13.07-.2.07a52.06,52.06,0,0,1-9.3,1.93,8.76,8.76,0,0,0-1-1.73c.33,0,6.18-4.45,7.64-4.92.47-.13,7.64-15.35,8.31-15.81.86-.6,1.86-1,2.59-.47C240.35,100.87,239.68,105.86,237.29,110.84Z" transform="translate(0)"/><path class="cls-50" d="M249.52,164.34l-2.39.86s-1.26-2.52-2.33-4.58S236.36,148,236.36,148c-2.19-4.59,2.73-11.56,2.73-11.56l6.11,3a44.94,44.94,0,0,0-2,4.05,7.47,7.47,0,0,0,.53,1,21.09,21.09,0,0,1,2.26,6.31c.26,1.66,1.73,6.91,2.66,10.37C249.12,163,249.52,164.34,249.52,164.34Z" transform="translate(0)"/><path class="cls-50" d="M238.35,137.09s-.26,7.18-.53,8.91a2.73,2.73,0,0,0-.06.73v.06c-.14,1.53-1.47,6.18-3.72,16.68,0,.14-.07.2-.07.27a25.65,25.65,0,0,0-.47,3.45l-2.52-.93s.2-2.32.26-4.65-1-15.15-1-15.15c.4-5.05,4.32-15,4.32-15Z" transform="translate(0)"/><path class="cls-51" d="M245.93,150.78a19.32,19.32,0,0,0-2.26-6.31,2.7,2.7,0,0,0-1.06,0,.37.37,0,0,0-.53.2.28.28,0,0,0,.07.33,35,35,0,0,0,2.79,7.24,43.9,43.9,0,0,1,3,8.71.34.34,0,0,0,.53.2C247.66,157.69,246.26,152.44,245.93,150.78Z" transform="translate(0)"/><path class="cls-51" d="M234.37,146c-.27-.07-.4.26-.33.46s.13.53.2.86c-.47-.39-1-.86-1.53-1.26-.33-.26-.73.27-.4.53a9.23,9.23,0,0,1,2.12,1.8c.67,4.78-1.46,9.63-.79,14.49,0,.19.13.86.26.92s.07-.19.07-.26c2.26-10.5,3.65-15.15,3.72-16.68A8.38,8.38,0,0,0,234.37,146Z" transform="translate(0)"/><path class="cls-52" d="M250.91,145.33a27.16,27.16,0,0,1-3.52,1.53c-4.32,1.6-12.56,4.12-19.34,1.66-.59-1.66-.59-4.45-.59-11.3,0-8.83,3.85-21.73,7.17-25.31,3.66-4,13,3.92,13,3.92a8.66,8.66,0,0,1,2.66,2.85,11.38,11.38,0,0,1,1.6,6C251.85,130.05,247.06,133.9,250.91,145.33Z" transform="translate(0)"/><path class="cls-53" d="M251.85,124.8c.26-3.92-2.53-7.84-3.39-9.31-.87.2-3.72,1.2-3.52,1.4,4.91,5,2.65,13.82,1.19,18.61a12.94,12.94,0,0,0-.46,6.57,23.38,23.38,0,0,0,1.26,3.73c.13.33.27.73.46,1.13a27.8,27.8,0,0,0,3.53-1.53C247.06,133.9,251.45,130,251.85,124.8Z" transform="translate(0)"/><path class="cls-52" d="M248.32,114.17a6.48,6.48,0,0,1-.53-2.33,21.56,21.56,0,0,1,0-3.52c.07-.4.07-.73.14-.93v-.07c.79-4,2.52-8.77-2.13-10.23a8.36,8.36,0,0,0-2.06-.4,20.38,20.38,0,0,0-2.93,0A22.7,22.7,0,0,0,237.76,98c-.53.26-1.13.6-1.73.93a5.15,5.15,0,0,0-2,4.58c.06,1,1.46,3.72,1.39,4.26a43.19,43.19,0,0,1-1.13,5C233.51,114.76,248.92,115.56,248.32,114.17Z" transform="translate(0)"/><path class="cls-53" d="M237.89,107.79c1.46,1.13,3.59,1.13,5.25,1.79s3.06,2,4.65,2.33a21.69,21.69,0,0,1,0-3.53.06.06,0,0,0-.06-.06c.06-.27.06-.53.13-.87v-.06a6.57,6.57,0,0,0-1.46-1.86c-1.93-1.8-1.73-6.32-1.73-6.32-.47,2.26-.2,5.65.53,7.05a11.6,11.6,0,0,0,1.53,2.19v.07c.06.73-4.45-.8-5-.93a10.9,10.9,0,0,0-3.65-.4A.33.33,0,0,0,237.89,107.79Z" transform="translate(0)"/><path class="cls-50" d="M238.89,95.36v1.86s-.54.93,0,1c1.13.2,2.72-1.53,2.72-1.53V94.16Z" transform="translate(0)"/><path class="cls-50" d="M241.61,95.82V94.36a5.32,5.32,0,0,1-2.72,1.4A2.9,2.9,0,0,0,241.61,95.82Z" transform="translate(0)"/><path class="cls-50" d="M238.36,89.91a14.78,14.78,0,0,0-1.27,3.92c-.2,1.33,2.26,3.12,4.26,1.2a5.73,5.73,0,0,0,1.46-4.79Z" transform="translate(0)"/><path class="cls-2" d="M233.7,165.13a2.05,2.05,0,0,1,.54,1.73,9.88,9.88,0,0,0-3.53,4.12c-.26.6-2.12.2-2.85.27,0,0-.74-.27-.2-1.13.2-.33,1.19-.73,1.46-1.07C229.52,170,231.38,168.46,233.7,165.13Z" transform="translate(0)"/><path class="cls-2" d="M234.3,166.86l-.2,4.06h-.73l-.2-3.79Z" transform="translate(0)"/><path class="cls-50" d="M247.06,165.2a26,26,0,0,1,0,3.26c-.13.93.6,1,.6,1l.8-1.13.39-1.86.6-2.19Z" transform="translate(0)"/><path class="cls-2" d="M249.05,162.88s.54-.14,1.13.92a9.49,9.49,0,0,0-.66,5.32c.13.67-1.66,1.4-2.19,1.8,0,0-.73.2-.8-.8a15.79,15.79,0,0,1,.6-1.66C248,169.05,248.85,166.93,249.05,162.88Z" transform="translate(0)"/><path class="cls-2" d="M250.18,163.8l2.06,3.46-.53.4-2.26-3Z" transform="translate(0)"/><path class="cls-50" d="M254.7,104.33c.14-.33-6.91-7.31-9.63-6.31-1.67.66-1,3.79-.6,5.18.93,3,8.37,9.5,8.11,9.77a9,9,0,0,1-2.26.8,51.35,51.35,0,0,1-5.19.53c-3,.13-5.78.13-5.91.2s.8,2.06.86,2.26a14.46,14.46,0,0,0,1.93.66c3.06.93,9.77,1.46,14.15-.13C260.15,115.76,258.36,108.25,254.7,104.33Z" transform="translate(0)"/><path class="cls-51" d="M253.51,114.23c2.32-1.59-.87-3.26-2.13-4.78-1.46-.53-2.79-1.33-3.06-1.13,1.33,1.39,4.32,4.58,4.32,4.58a8.49,8.49,0,0,1-2.26.8,48.13,48.13,0,0,1-5.18.53C245,114.43,251.38,115.69,253.51,114.23Z" transform="translate(0)"/><path class="cls-50" d="M238.75,114.23a3.59,3.59,0,0,0-3.45.8c-.33.46-.07.73.4.46.93-.46,1.66-.53.26.14-.26.13-.79.53-.73.73.2.46,1.13-.14,1.6-.33.4,0-.53.66-.67.86-.4,1,1.46-.2,1.6-.07.4.27-1,.87-.33,1s1.52-.93,1.92-1.06.67.06.87-.34C240.75,115.63,239.22,114.36,238.75,114.23Z" transform="translate(0)"/><path class="cls-50" d="M239.15,114.5c-.33-.27-1.06-1-1.46-1.07s-.53.07-.33.34a1,1,0,0,0,.53.4c.13.06.33.19.46.26A4,4,0,0,0,239.15,114.5Z" transform="translate(0)"/><path class="cls-54" d="M245.27,88.58a3.84,3.84,0,0,0-2.13-2.06c-.8-.4-1.93-.8-2.66-.07a1.37,1.37,0,0,0-.07,1.93c-3.65-.2-4.12,1.93-4.12,3.86,0,.33,2.33-2.13,4-1.13.93.53,1.07,1.06,1.26,2.12.07.27-.06.73.07,1.07.47,1,1.53,0,2.06-.6a2.92,2.92,0,0,0,.53-2.93h.07A1.67,1.67,0,0,0,245.27,88.58Z" transform="translate(0)"/><path class="cls-36" d="M244.14,90.31c-.6-.33-1-.93-1.6-1.26a7.91,7.91,0,0,1-1.73-1c-.26-.33-.73.13-.46.46a4.07,4.07,0,0,0,1.66,1c.67.33,1.13,1,1.79,1.33A.32.32,0,1,0,244.14,90.31Z" transform="translate(0)"/><path class="cls-55" d="M215,138l8.31-6.91a2,2,0,0,0,.27-2.79l-10.7-12.89a1.94,1.94,0,0,0-2.79-.27l-8.31,6.91a2,2,0,0,0-.27,2.79l10.7,12.9A1.93,1.93,0,0,0,215,138Z" transform="translate(0)"/><path class="cls-55" d="M203.93,120.21a2.5,2.5,0,0,0,3.86-3.19,2.5,2.5,0,0,0-3.86,3.19Zm.67-.6a1.57,1.57,0,0,1,.2-2.25,1.65,1.65,0,0,1,2.26.19,1.6,1.6,0,0,1-.2,2.26A1.57,1.57,0,0,1,204.6,119.61Z" transform="translate(0)"/><path class="cls-56" d="M214.77,136.49l7-5.78a1.69,1.69,0,0,0,.2-2.39l-9.57-11.56a1.69,1.69,0,0,0-2.39-.2l-7,5.78a1.69,1.69,0,0,0-.2,2.39l9.57,11.56A1.83,1.83,0,0,0,214.77,136.49Z" transform="translate(0)"/><path class="cls-55" d="M206.13,122.07l3.05-2.52a.7.7,0,0,0,.07-1.07l-.73-.86-4.25,3.52.73.87A.9.9,0,0,0,206.13,122.07Z" transform="translate(0)"/><path class="cls-57" d="M204.66,125.6a.51.51,0,0,0,.34-.14l7.51-6.25a.57.57,0,0,0-.74-.86l-7.51,6.25a.55.55,0,0,0-.06.8A.6.6,0,0,0,204.66,125.6Z" transform="translate(0)"/><path class="cls-57" d="M205.73,126.86a.5.5,0,0,0,.33-.14l7.51-6.24a.57.57,0,0,0-.73-.87l-7.51,6.25a.54.54,0,0,0-.07.8A.72.72,0,0,0,205.73,126.86Z" transform="translate(0)"/><path class="cls-57" d="M207.85,129.45a.56.56,0,0,0,.34-.13l7.51-6.25a.57.57,0,0,0-.74-.86l-7.5,6.24a.54.54,0,0,0-.07.8A.91.91,0,0,0,207.85,129.45Z" transform="translate(0)"/><path class="cls-57" d="M209,130.78a.56.56,0,0,0,.34-.13l7.5-6.25a.54.54,0,0,0,.07-.8.53.53,0,0,0-.8-.06l-7.51,6.24a.55.55,0,0,0-.06.8A.6.6,0,0,0,209,130.78Z" transform="translate(0)"/><path class="cls-57" d="M210.05,132a.55.55,0,0,0,.33-.13l7.51-6.25a.56.56,0,0,0,.07-.8.55.55,0,0,0-.8-.06L209.65,131a.54.54,0,0,0-.07.8A.62.62,0,0,0,210.05,132Z" transform="translate(0)"/><path class="cls-57" d="M213.24,136a.5.5,0,0,0,.33-.13l7.51-6.25a.55.55,0,0,0,.06-.8.54.54,0,0,0-.79-.06L212.84,135a.54.54,0,0,0-.07.8A1.28,1.28,0,0,0,213.24,136Z" transform="translate(0)"/><path class="cls-50" d="M221.14,121.28a1.64,1.64,0,0,1-.93.33,3,3,0,0,1-.33-.07c.33,0,.53-.6.13-.66a2.55,2.55,0,0,0-1.86.2,2,2,0,0,0-.8,1.66c0,.33.47.46.6.2s.4-.73.73-.87.8.14,1.2.2a5.72,5.72,0,0,0,2.59-.46C222.87,121.54,221.54,121.08,221.14,121.28Z" transform="translate(0)"/><path class="cls-50" d="M33.57,162.07c-.33-.33-3.26.33-3.26.53,0,.53.07,2.66.4,2.93s3.26-.14,3.26-.67S33.9,162.4,33.57,162.07Z" transform="translate(0)"/><path class="cls-2" d="M30.45,164.86s-1.13,2.13.06,3.52a85.82,85.82,0,0,0,9.31-1.12s-.27-2.66-2.13-2.66a30.8,30.8,0,0,0-3.72.26S32,166.19,30.45,164.86Z" transform="translate(0)"/><path class="cls-50" d="M14.43,162.2c-.2-.39-3.12-.86-3.19-.73-.2.54-.86,2.53-.66,2.86s3.05,1.06,3.25.6S14.63,162.6,14.43,162.2Z" transform="translate(0)"/><path class="cls-2" d="M10.51,163.67S8.65,165.2,9.25,167c0,0,6.84,2.13,9,2.33,0,0,.74-2.53-1-3.26A27.32,27.32,0,0,0,13.7,165S11.44,165.39,10.51,163.67Z" transform="translate(0)"/><path class="cls-52" d="M20.88,124.79c.2.47.46,1,.73,1.53,1.66,3.66,3.72,7.91,4.05,10.17,3.86,4.38,3.46,13.42,3.72,18.4.2,4.06.47,8.51.6,8.91l4.25.4c1-5.38,3.13-22.6,3.13-26.32S33.9,118.94,31.24,114c-2.52-4.66-10.9,4.65-11.89,5.84C19,120.4,19.75,122.33,20.88,124.79Z" transform="translate(0)"/><path class="cls-53" d="M20.88,124.79c.2.47.46,1,.73,1.53a101.35,101.35,0,0,1,4.05,10.17C28,144.26,28.85,159,30,163.8a5.33,5.33,0,0,0,2.86.27c.06-3.59-2.13-7.91-2.73-11.37-1.19-6.64.67-13.89-2.52-20.13-.93-1.73-2.33-3.53-2.33-5.59,0-1,.6-2.19-.06-3.19-1.13-1.66-3-.39-3.86.87-.13-.07-.2-.07-.33.06A.2.2,0,0,1,20.88,124.79Z" transform="translate(0)"/><path class="cls-52" d="M10.51,162.2c1.06,1.2,4,1.87,4,1.87,2.59-5.65,5.18-16.75,5.58-23.13.6-10,2.32-19.67,2.26-22.26V118c-2.59-2.79-5.72-4.32-7.58-4.45-.73-.07-1.26.13-1.46.53a27,27,0,0,0-1.59,3.59c-.07.13-.07.2-.14.33-2.46,6.91-1.72,10.64-1.26,19.61C10.44,141.74,12,159.81,10.51,162.2Z" transform="translate(0)"/><path class="cls-53" d="M10.51,162.2a5.6,5.6,0,0,0,2.66,1.47c.8-3.59.86-6.38,1.39-10s0-7.17-.33-10.7c-.2-2.06-.46-4.12-.86-6.18a59.13,59.13,0,0,1-1.2-6A25.28,25.28,0,0,1,14,119.21c.06-.13,0-.2,0-.27a.32.32,0,0,0-.07-.53,4.58,4.58,0,0,0-2.39-.46c-2.46,6.91-1.73,10.63-1.27,19.6.2,4.25,1,10.83,1,15.48C11.31,160.81,10.71,161.74,10.51,162.2Z" transform="translate(0)"/><path class="cls-50" d="M48.19,96.15a.35.35,0,0,0-.33-.27.9.9,0,0,0,.2-.66c-.07-.33-.27-.33-.54-.33h-.13v-.07c0-.07-.13-.13-.2-.13a2,2,0,0,0-1.26.33c-1.13.6-2.86-.6-3-.46a4.41,4.41,0,0,0-.67,4,5.2,5.2,0,0,0,1.86.73c0-.2.27-1.06.14-1.4,1.19.2,2.52.07,2.59-.59C47.72,97.15,48.39,96.81,48.19,96.15Z" transform="translate(0)"/><path class="cls-36" d="M26.92,99.27A13.74,13.74,0,0,0,27,101.4c.4,2.92,2.26,7.78,10.1,8.31,6.71.46,7.64-10.44,7.64-10.44-.59-.66-3.12-1.13-3.12-1.13-.86,2.33-3.19,5.52-4.19,5S30.58,91.43,27,89.77C24.8,88.64,26.92,99.27,26.92,99.27Z" transform="translate(0)"/><path class="cls-58" d="M32.37,115.16c-.06.33-8.17,2.92-10.7,3.32-2.72.4-6-.13-8.3-.27-1.8-.06-3.06-.33-3.26-.66-.33-.73.4-7.44.2-12.3,0-.79-.07-1.59-.07-2.39-.06-5.11.27-10,1.47-10.9a7.58,7.58,0,0,1,.86-.59,16.53,16.53,0,0,1,1.66-1A16.18,16.18,0,0,1,17.69,89a15,15,0,0,1,6.91-.13,13.07,13.07,0,0,1,1.93.59c.13.07.33.14.46.2,2.19.87,1.86,5.65,1.53,9.57-.13,1.86-.33,3.52-.27,4.59a5.5,5.5,0,0,0,.14,1.06C29,107.78,32,113,32.37,115.16Z" transform="translate(0)"/><path class="cls-59" d="M20.08,88.51l-.33.06L20.81,91l2-1.46,1.86,1.13L23.4,88.64a3,3,0,0,0-1.2-.07c-.33.14-.19.8-.19.8Z" transform="translate(0)"/><path class="cls-50" d="M22.8,86.38v2.13s.53.93,0,1c-1.13.2-2.72-1-2.72-1V85.25Z" transform="translate(0)"/><path class="cls-60" d="M20.08,87.44V86.38a4.88,4.88,0,0,0,2.52,1.06A2.48,2.48,0,0,1,20.08,87.44Z" transform="translate(0)"/><path class="cls-50" d="M24,81.86A15.47,15.47,0,0,1,24.27,86c-.14,1.33-2.93,2.46-4.46.2a5.72,5.72,0,0,1-.26-5Z" transform="translate(0)"/><path class="cls-54" d="M23.73,79.4a2.38,2.38,0,0,0-1,.34,6.91,6.91,0,0,1-1.66.26,2.66,2.66,0,0,0-2,.6,3.89,3.89,0,0,0-.6,4.05.58.58,0,0,0,.34.6A.81.81,0,0,0,20,84.92c.33-.6.13-1.4.19-2.06v-.53c1.73.33,4,.6,5.19-.6S25.2,79.34,23.73,79.4Z" transform="translate(0)"/><path class="cls-59" d="M19.81,88.57l.33-.46A4.11,4.11,0,0,0,21,89a1.06,1.06,0,0,1,.46.8Z" transform="translate(0)"/><path class="cls-61" d="M22.8,89.57l-.86.67.73.79.8-.06.26-.8Z" transform="translate(0)"/><path class="cls-36" d="M17.75,89S16.56,117,19,120.27c0,0-7.38-.13-9.71-1.19,0,0,1.6-26.72,3.26-27.71S16.29,89.11,17.75,89Z" transform="translate(0)"/><path class="cls-61" d="M23.47,91a22.25,22.25,0,0,1,1.46,10.1l-1.46,1.53-1.13-1.27s1.06-6.84.33-10.3Z" transform="translate(0)"/><path class="cls-54" d="M19.22,84.92c0-.07-.07-.07-.07-.13-.27-.34.26-.73.53-.4a2.84,2.84,0,0,0,1.26.86,1.34,1.34,0,0,0,1.47-.4c.13-.13.39-.06.53.07.4.47,1.59-.2,1.72.53a1.88,1.88,0,0,1-1.26,1.8c-1.93.59-3.32-.67-4.38-1.8C18.75,85.25,19,85,19.22,84.92Z" transform="translate(0)"/><path class="cls-61" d="M27.92,90.17A7.18,7.18,0,0,1,30.11,96c-.2,8.17.87,11.9.87,11.9l-3.13-1.67-.93-7Z" transform="translate(0)"/><path class="cls-36" d="M25.33,89s1.39,9.5,1.26,12.89S30,117.55,30,117.55l2.92-1.2s-2.46-8.57-3.25-11,0-13.76-1.8-15.15S25.33,89,25.33,89Z" transform="translate(0)"/><path class="cls-61" d="M13.5,93.69c-1.39,1.8-1.59,6.45-2.79,8.38-.13.26-.27.46-.4.73,0,.79,0,1.59.07,2.39.13,4.92-1.4,13.09-1,13.82.2.33,2.39.8,4.12.86.33-.59.07-2.92,0-3.58-.13-1.2-.2-2.4-.33-3.66a26.92,26.92,0,0,1,.07-7.71c.53-2.66,1.79-4.72,2.32-7.37a5.52,5.52,0,0,0-1.13-5C14.63,92.23,13.77,93.36,13.5,93.69Z" transform="translate(0)"/><path class="cls-50" d="M23.6,111.5c.27.33.53.13.87.2s1.59,1,2.06.73c.66-.26-.8-.66-.47-1,.13-.13,2.13.8,1.6-.13-.14-.2-1.2-.73-.74-.8.47.14,1.47.6,1.67.14.06-.2-.54-.53-.8-.67-1.46-.46-.67-.53.26-.13.54.2.74-.07.34-.53-.87-.87-2.53-.73-3.53-.33C24.4,109.24,23.07,110.7,23.6,111.5Z" transform="translate(0)"/><path class="cls-50" d="M25.26,109.24c.14-.06.27-.26.47-.33a1,1,0,0,0,.46-.47c.14-.33-.2-.33-.4-.26a4.78,4.78,0,0,0-1.32,1.26C24.4,109.44,25.13,109.31,25.26,109.24Z" transform="translate(0)"/><path class="cls-36" d="M1.67,115.16c3.06,4.91,22.79-3.46,22.79-3.46l-.39-2c-.2-.07-15.29,1.92-15.35.33,0-.73,5.44-9.5,6.24-12.83A7.33,7.33,0,0,0,14.63,93c-.6-1.53-2.39-1.79-3.85-1-3,1.6-6.58,5.45-8.71,9.64C-.19,106.25-1,110.9,1.67,115.16Z" transform="translate(0)"/><path class="cls-62" d="M48.14,157.23H61.78v.25H48.14Z" transform="translate(0)"/><path class="cls-62" d="M48.14,156.74H61.78V157H48.14Z" transform="translate(0)"/><path class="cls-62" d="M48.14,156.26H61.78v.24H48.14Z" transform="translate(0)"/><path class="cls-62" d="M48.14,155.83H61.78v.24H48.14Z" transform="translate(0)"/><path class="cls-62" d="M48.14,155.34H61.78v.25H48.14Z" transform="translate(0)"/><path class="cls-62" d="M48.14,154.86H61.78v.24H48.14Z" transform="translate(0)"/><path class="cls-62" d="M48.14,154.37H61.78v.24H48.14Z" transform="translate(0)"/><path class="cls-62" d="M48.14,153.94H61.78v.25H48.14Z" transform="translate(0)"/><path class="cls-62" d="M48.14,153.46H61.78v.24H48.14Z" transform="translate(0)"/><path class="cls-62" d="M48.14,153H61.78v.24H48.14Z" transform="translate(0)"/><path class="cls-62" d="M48.14,152.54H61.78v.25H48.14Z" transform="translate(0)"/><path class="cls-62" d="M48.14,152.05H61.78v.25H48.14Z" transform="translate(0)"/><path class="cls-62" d="M61.17,151.57s1,.06,1.65,2.25c0,0-3.78-2.13-5.42-2.25Z" transform="translate(0)"/><path class="cls-62" d="M48.93,151.81A1.77,1.77,0,0,0,47,153.15s3.35-1.09,4.69-1.34Z" transform="translate(0)"/><path class="cls-29" d="M48.87,152h16.2V168.2H48.87Z" transform="translate(0)"/><path class="cls-63" d="M44.24,152h4.81V168.2H44.24Z" transform="translate(0)"/><path class="cls-63" d="M44.3,152h4.75l-2.37-4.81H41.87Z" transform="translate(0)"/><path class="cls-29" d="M65.07,152H60.26l2.37-4.81h4.82Z" transform="translate(0)"/><path class="cls-44" d="M45.15,154h2.93v1.53H45.15Z" transform="translate(0)"/></svg>