<svg id="Calque_1" data-name="Calque 1" xmlns="http://www.w3.org/2000/svg" xmlns:xlink="http://www.w3.org/1999/xlink" viewBox="0 0 312.5 171.32"><defs><style>.cls-1{fill:#c4c4c4;}.cls-2,.cls-20,.cls-56{fill:#fff;}.cls-2,.cls-4{stroke:#e7e7e7;}.cls-2{stroke-width:0.56px;}.cls-3{fill:#1f0d52;}.cls-4,.cls-46,.cls-48,.cls-49{fill:none;}.cls-4,.cls-48,.cls-49{stroke-width:0.66px;}.cls-5{fill:#ffaea7;}.cls-6{mask:url(#mask);}.cls-7{fill:#f2f7fe;}.cls-8{fill:#aeb8e0;}.cls-9{fill:#f9cd56;}.cls-10{fill:#3a404f;}.cls-11{fill:#dae0f3;}.cls-12{fill:#441fd8;}.cls-13{fill:#d6a0ff;}.cls-14{fill:#ddf0fe;}.cls-15{fill:#bac5e6;}.cls-16{fill:#5e6880;}.cls-17{fill:#f9b602;}.cls-18{fill:#2d3540;}.cls-19{fill:#828fb0;}.cls-21{mask:url(#mask-2);}.cls-22{mask:url(#mask-3);}.cls-23{fill:#9196aa;}.cls-24{fill:#c48958;}.cls-25{fill:#e0b8ff;}.cls-26{fill:#707789;}.cls-27{fill:#b27a49;}.cls-28{fill:#555a66;}.cls-29{fill:#9e6f46;}.cls-30{fill:#c78ff5;}.cls-31{fill:#636978;}.cls-32{fill:#b674f2;}.cls-33{fill:#4e535e;}.cls-34{fill:#8f4cd6;}.cls-35{fill:#333940;}.cls-36{fill:#e3a76f;}.cls-37{fill:#d6995c;}.cls-38{fill:#cdd2e1;}.cls-39{fill:#bec3d2;}.cls-40{fill:#e9edf5;}.cls-41{fill:#d2a0f5;}.cls-42{fill:#f2f5f9;}.cls-43{fill:#f6fafd;}.cls-44{fill:#f5e1ff;}.cls-45{fill:#ededed;}.cls-46,.cls-49{stroke:#14aead;}.cls-46{stroke-width:5.98px;}.cls-47{fill:#14aead;}.cls-48{stroke:#ddd;}.cls-50{fill:#ffc1c5;}.cls-51{fill:#ffafb4;}.cls-52{fill:#acdcff;}.cls-53{fill:#96caf0;}.cls-54{fill:#252525;}.cls-55,.cls-63{fill:#ea7a70;}.cls-55,.cls-56{fill-rule:evenodd;}.cls-57{fill:#cddee7;}.cls-58{fill:#e4edf4;}.cls-59{fill:#e8dbeb;}.cls-60{fill:#e89a9f;}.cls-61{fill:#32187c;}.cls-62{fill:#f3f3f3;}</style><mask id="mask" x="43.19" y="79.4" width="103" height="59.14" maskUnits="userSpaceOnUse"><g transform="translate(0)"><g id="mask0"><rect class="cls-1" x="43.19" y="79.4" width="103" height="51.83" rx="3.32"/></g></g></mask><mask id="mask-2" x="29.24" y="50.16" width="233.91" height="118.29" maskUnits="userSpaceOnUse"><g transform="translate(0)"><g id="mask1"><path class="cls-2" d="M29.52,55.78a5.34,5.34,0,0,1,5.34-5.34H235.6a5.34,5.34,0,0,1,5.34,5.34V162.83a5.34,5.34,0,0,1-5.34,5.34H34.86a5.34,5.34,0,0,1-5.34-5.34Z"/></g></g></mask><mask id="mask-3" x="158.16" y="79.4" width="103" height="64.46" maskUnits="userSpaceOnUse"><g transform="translate(0)"><g id="mask2"><rect class="cls-3" x="158.16" y="79.4" width="103" height="51.83" rx="3.32"/></g></g></mask></defs><path class="cls-2" d="M29.52,55.78a5.34,5.34,0,0,1,5.34-5.34H235.6a5.34,5.34,0,0,1,5.34,5.34V162.83a5.34,5.34,0,0,1-5.34,5.34H34.86a5.34,5.34,0,0,1-5.34-5.34Z" transform="translate(0)"/><path d="M42.13,66.43v2H41V62.81h2.18a2.59,2.59,0,0,1,1.11.23,1.64,1.64,0,0,1,.74.66,1.81,1.81,0,0,1,.25,1A1.6,1.6,0,0,1,44.7,66a2.31,2.31,0,0,1-1.56.47Zm0-.93h1a1,1,0,0,0,.7-.22.76.76,0,0,0,.24-.61.93.93,0,0,0-.24-.67,1,1,0,0,0-.67-.26H42.13Zm5,2.9H46V62.5h1.12Zm3.33,0a1.15,1.15,0,0,1-.12-.37,1.31,1.31,0,0,1-1,.45,1.52,1.52,0,0,1-1-.35,1.14,1.14,0,0,1-.4-.89,1.18,1.18,0,0,1,.49-1,2.53,2.53,0,0,1,1.42-.36h.51v-.23a.7.7,0,0,0-.15-.47.6.6,0,0,0-.47-.17.68.68,0,0,0-.44.14.47.47,0,0,0-.16.37H48a1.09,1.09,0,0,1,.23-.67,1.4,1.4,0,0,1,.63-.48,2.21,2.21,0,0,1,.91-.18,1.81,1.81,0,0,1,1.22.39,1.34,1.34,0,0,1,.45,1.08v1.8a2,2,0,0,0,.17.9v.06Zm-.92-.77a.88.88,0,0,0,.45-.11.73.73,0,0,0,.31-.29v-.72h-.42c-.55,0-.85.2-.88.58v.07a.45.45,0,0,0,.15.34A.57.57,0,0,0,49.57,67.63Zm4.22-.8.76-2.58h1.2l-1.68,4.8-.09.22a1.27,1.27,0,0,1-1.23.81,1.71,1.71,0,0,1-.49-.07v-.84h.17a1,1,0,0,0,.47-.09.62.62,0,0,0,.24-.32l.14-.34-1.46-4.17H53ZM58,68.48a2.07,2.07,0,0,1-1.49-.56A2,2,0,0,1,56,66.43v-.11a2.52,2.52,0,0,1,.24-1.12,1.76,1.76,0,0,1,.69-.76,1.88,1.88,0,0,1,1-.27,1.7,1.7,0,0,1,1.34.54,2.15,2.15,0,0,1,.49,1.52v.46H57.11a1,1,0,0,0,.32.65,1,1,0,0,0,.69.25,1.21,1.21,0,0,0,1-.47l.55.61a1.68,1.68,0,0,1-.68.55A2.13,2.13,0,0,1,58,68.48Zm-.12-3.41a.7.7,0,0,0-.54.22,1.14,1.14,0,0,0-.26.64h1.54v-.09a.81.81,0,0,0-.2-.57A.73.73,0,0,0,57.92,65.07Zm4.8.22-.4,0a.81.81,0,0,0-.82.42V68.4H60.39V64.25h1l0,.49a1,1,0,0,1,.92-.57,1.29,1.29,0,0,1,.35,0Zm4.08-2.48,1.44,4.06,1.43-4.06h1.51V68.4H70V66.87l.12-2.64L68.63,68.4h-.79l-1.51-4.16.12,2.63V68.4H65.29V62.81Zm5.14,3.48a2.48,2.48,0,0,1,.24-1.11,1.83,1.83,0,0,1,.68-.75,2.08,2.08,0,0,1,1-.26,1.91,1.91,0,0,1,1.38.51,2.1,2.1,0,0,1,.59,1.4v.29a2.17,2.17,0,0,1-.53,1.53,1.86,1.86,0,0,1-1.44.58,1.83,1.83,0,0,1-1.43-.58,2.18,2.18,0,0,1-.54-1.56Zm1.11.08a1.61,1.61,0,0,0,.22.9.8.8,0,0,0,1.27,0,1.72,1.72,0,0,0,.23-1,1.53,1.53,0,0,0-.23-.9.79.79,0,0,0-1.27,0A1.77,1.77,0,0,0,73.05,66.37Zm4.54-2.12,0,.48a1.47,1.47,0,0,1,1.2-.56,1.2,1.2,0,0,1,1,.39,1.86,1.86,0,0,1,.33,1.16V68.4H79V65.74a.74.74,0,0,0-.15-.51.75.75,0,0,0-.52-.16.78.78,0,0,0-.7.4V68.4H76.54V64.25Zm4.56,4.15H81V64.25h1.12ZM81,63.17a.54.54,0,0,1,.16-.41.63.63,0,0,1,.46-.16.61.61,0,0,1,.45.16.52.52,0,0,1,.17.41.57.57,0,0,1-.17.42.71.71,0,0,1-.9,0A.54.54,0,0,1,81,63.17Zm3.42,0v1h.72v.81h-.72v2.08a.5.5,0,0,0,.09.33.47.47,0,0,0,.34.1,1.69,1.69,0,0,0,.33,0v.84a2.2,2.2,0,0,1-.68.1,1.06,1.06,0,0,1-1.19-1.18V65.06h-.6v-.81h.6v-1Zm1,3.07a2.48,2.48,0,0,1,.23-1.11,1.79,1.79,0,0,1,.69-.75,2.06,2.06,0,0,1,1-.26,1.89,1.89,0,0,1,1.37.51,2.06,2.06,0,0,1,.6,1.4v.29a2.13,2.13,0,0,1-.53,1.53,1.84,1.84,0,0,1-1.43.58A1.86,1.86,0,0,1,86,67.9a2.17,2.17,0,0,1-.53-1.56Zm1.11.08a1.54,1.54,0,0,0,.22.9.74.74,0,0,0,.64.32.75.75,0,0,0,.63-.31,1.73,1.73,0,0,0,.22-1,1.54,1.54,0,0,0-.22-.9.75.75,0,0,0-.64-.32.73.73,0,0,0-.63.32A1.69,1.69,0,0,0,86.55,66.37Zm5.84-1.08-.4,0a.81.81,0,0,0-.82.42V68.4H90.06V64.25h1l0,.49a1,1,0,0,1,.92-.57,1.29,1.29,0,0,1,.35,0Zm4.23,2.3a.74.74,0,0,0,.5-.17.63.63,0,0,0,.2-.45h1a1.39,1.39,0,0,1-.23.77,1.5,1.5,0,0,1-.62.55,1.92,1.92,0,0,1-.87.19,1.85,1.85,0,0,1-1.41-.56,2.28,2.28,0,0,1-.51-1.57v-.07a2.22,2.22,0,0,1,.51-1.54,1.79,1.79,0,0,1,1.4-.57,1.73,1.73,0,0,1,1.25.45,1.5,1.5,0,0,1,.48,1.17h-1a.78.78,0,0,0-.2-.52.69.69,0,0,0-.51-.2.68.68,0,0,0-.59.28,1.66,1.66,0,0,0-.19.92v.11a1.64,1.64,0,0,0,.19.92A.69.69,0,0,0,96.62,67.59Zm4.29.89a2.05,2.05,0,0,1-1.49-.56,2,2,0,0,1-.57-1.49v-.11a2.52,2.52,0,0,1,.24-1.12,1.8,1.8,0,0,1,.68-.76,1.94,1.94,0,0,1,1-.27,1.73,1.73,0,0,1,1.34.54,2.2,2.2,0,0,1,.49,1.52v.46H100a1,1,0,0,0,.32.65,1,1,0,0,0,.69.25,1.19,1.19,0,0,0,1-.47l.55.61a1.61,1.61,0,0,1-.68.55A2.09,2.09,0,0,1,100.91,68.48Zm-.13-3.41a.7.7,0,0,0-.54.22,1.22,1.22,0,0,0-.26.64h1.55v-.09a.86.86,0,0,0-.2-.57A.74.74,0,0,0,100.78,65.07Zm3.49-.82,0,.48a1.45,1.45,0,0,1,1.19-.56,1.22,1.22,0,0,1,1,.39,1.86,1.86,0,0,1,.33,1.16V68.4h-1.11V65.74a.69.69,0,0,0-.16-.51.71.71,0,0,0-.51-.16.78.78,0,0,0-.7.4V68.4h-1.11V64.25Zm4.72-1v1h.71v.81H109v2.08a.5.5,0,0,0,.09.33.47.47,0,0,0,.34.1,1.69,1.69,0,0,0,.33,0v.84a2.24,2.24,0,0,1-.68.1,1.06,1.06,0,0,1-1.19-1.18V65.06h-.6v-.81h.6v-1Zm3.25,5.26a2.05,2.05,0,0,1-1.49-.56,2,2,0,0,1-.58-1.49v-.11a2.52,2.52,0,0,1,.24-1.12,1.82,1.82,0,0,1,.69-.76,1.88,1.88,0,0,1,1-.27,1.7,1.7,0,0,1,1.34.54,2.15,2.15,0,0,1,.49,1.52v.46H111.3a1,1,0,0,0,.32.65,1,1,0,0,0,.69.25,1.19,1.19,0,0,0,1-.47l.55.61a1.68,1.68,0,0,1-.68.55A2.09,2.09,0,0,1,112.24,68.48Zm-.13-3.41a.7.7,0,0,0-.54.22,1.14,1.14,0,0,0-.26.64h1.54v-.09a.81.81,0,0,0-.2-.57A.72.72,0,0,0,112.11,65.07Zm4.81.22-.4,0a.82.82,0,0,0-.83.42V68.4h-1.11V64.25h1l0,.49a1,1,0,0,1,.92-.57,1.29,1.29,0,0,1,.35,0Z" transform="translate(0)"/><rect class="cls-4" x="40.87" y="77.08" width="106.99" height="72.43" rx="2.99"/><rect class="cls-5" x="43.19" y="79.4" width="103" height="51.83" rx="3.32"/><g class="cls-6"><path class="cls-7" d="M121.75,91.33V99h-5.49v-2.2h-6.58V99h-5.49V91.33s0,1.1,2,1.1h13.5C121.75,92.43,121.75,91.33,121.75,91.33Z" transform="translate(0)"/><path class="cls-8" d="M131.63,88H94.3a4.4,4.4,0,0,0-4.39,4.39v22.22a4.08,4.08,0,0,1,.59-2.09,4,4,0,0,1,1.61-1.46,4,4,0,0,0,1.6-1.47,3.87,3.87,0,0,0,.59-2.09V96.82h6.59v10.72a4,4,0,0,0,.59,2.09,4,4,0,0,0,1.61,1.47,4,4,0,0,1,2.19,3.55,4.08,4.08,0,0,1,.59-2.09,4,4,0,0,1,1.61-1.46,4,4,0,0,0,2.2-3.56V99h-5.5V91.33s0,1.1,2,1.1h13.5c2,0,2-1.1,2-1.1V99h-5.49v8.52a4,4,0,0,0,.59,2.09,4,4,0,0,0,1.61,1.47,3.89,3.89,0,0,1,1.6,1.46,4,4,0,0,1,.59,2.09,4,4,0,0,1,.6-2.09,3.89,3.89,0,0,1,1.6-1.46,3.91,3.91,0,0,0,1.6-1.47,3.87,3.87,0,0,0,.59-2.09V96.82h6.59v10.72a4,4,0,0,0,.59,2.09,4,4,0,0,0,1.61,1.47,4,4,0,0,1,1.6,1.46,3.89,3.89,0,0,1,.59,2.09V92.43A4.39,4.39,0,0,0,131.63,88Z" transform="translate(0)"/><path class="cls-9" d="M136,114.65v1.94H120.65v-1.94a4,4,0,0,1,.6-2.09,3.89,3.89,0,0,1,1.6-1.46,4,4,0,0,0,1.61-1.47,4,4,0,0,0,.59-2.09v-6.32h6.58v6.32a4,4,0,0,0,.6,2.09,3.91,3.91,0,0,0,1.6,1.47,4,4,0,0,1,2.19,3.55Z" transform="translate(0)"/><path class="cls-10" d="M131.63,96.82H125v4.4h6.59Z" transform="translate(0)"/><path class="cls-9" d="M120.65,114.65v1.94H105.28v-1.94a4,4,0,0,1,.6-2.09,3.89,3.89,0,0,1,1.6-1.46,3.91,3.91,0,0,0,1.6-1.47,4,4,0,0,0,.6-2.09v-6.32h6.58v6.32a4,4,0,0,0,.59,2.09,4,4,0,0,0,1.61,1.47,3.89,3.89,0,0,1,1.6,1.46A4,4,0,0,1,120.65,114.65Z" transform="translate(0)"/><path class="cls-10" d="M116.26,99v2.2h-6.59v-4.4h6.59Z" transform="translate(0)"/><path class="cls-9" d="M105.28,114.65v1.94H89.91v-1.94a4.08,4.08,0,0,1,.59-2.09,4,4,0,0,1,1.61-1.46,4,4,0,0,0,1.6-1.47,3.87,3.87,0,0,0,.59-2.09v-6.32h6.59v6.32a4,4,0,0,0,.59,2.09,4,4,0,0,0,1.61,1.47,4,4,0,0,1,2.19,3.55Z" transform="translate(0)"/><path class="cls-10" d="M100.89,96.82H94.3v4.4h6.59Z" transform="translate(0)"/><path class="cls-10" d="M121.75,101.22v6.32a4,4,0,0,1-2.19,3.56,3.34,3.34,0,0,0-.55.33,4,4,0,0,1,1.64,3.22,4,4,0,0,1,.6-2.09,3.89,3.89,0,0,1,1.6-1.46,4,4,0,0,0,1.61-1.47,4,4,0,0,0,.59-2.09V96.82h-3.3Z" transform="translate(0)"/><path class="cls-10" d="M105.28,114.65a4,4,0,0,1,.6-2.09,3.89,3.89,0,0,1,1.6-1.46,3.91,3.91,0,0,0,1.6-1.47,4,4,0,0,0,.6-2.09V99h-3.3v8.52a4,4,0,0,1-2.19,3.56,3.34,3.34,0,0,0-.55.33,4,4,0,0,1,1.64,3.22Z" transform="translate(0)"/><path class="cls-10" d="M92.11,111.1a4,4,0,0,0,1.6-1.47,3.87,3.87,0,0,0,.59-2.09V96.82H91v10.72a4,4,0,0,1-1.1,2.74v4.37a4.08,4.08,0,0,1,.59-2.09A4,4,0,0,1,92.11,111.1Z" transform="translate(0)"/><path class="cls-11" d="M138.22,118.78v17.57a2.2,2.2,0,0,1-.64,1.55,2.22,2.22,0,0,1-1.56.64H89.91a2.19,2.19,0,0,1-2.19-2.19V118.78a2.19,2.19,0,0,1,2.19-2.19H136a2.22,2.22,0,0,1,1.56.64A2.2,2.2,0,0,1,138.22,118.78Z" transform="translate(0)"/><path class="cls-12" d="M136,116.59H89.91a2.19,2.19,0,0,0-2.19,2.19v17.57a2.19,2.19,0,0,0,2.19,2.19H136a2.22,2.22,0,0,0,1.56-.64,2.2,2.2,0,0,0,.64-1.55V118.78a2.2,2.2,0,0,0-.64-1.55A2.22,2.22,0,0,0,136,116.59Zm0,18a1.85,1.85,0,0,1-.64,1.29,1.88,1.88,0,0,1-1.36.47H91.92a1.88,1.88,0,0,1-1.36-.47,1.9,1.9,0,0,1-.65-1.29v-14a1.9,1.9,0,0,1,.65-1.29,1.88,1.88,0,0,1,1.36-.47H134a1.88,1.88,0,0,1,1.36.47,1.85,1.85,0,0,1,.64,1.29Z" transform="translate(0)"/><path class="cls-13" d="M106,118.78H134a1.88,1.88,0,0,1,1.36.47,1.85,1.85,0,0,1,.64,1.29v14a1.42,1.42,0,0,1-.13.61l2.33,0V118.78a2.2,2.2,0,0,0-.64-1.55,2.22,2.22,0,0,0-1.56-.64H94.36a10.94,10.94,0,0,0,.46,2.19Z" transform="translate(0)"/><path class="cls-14" d="M134.51,123.83c.7-.7.48-2.07-.5-3s-2.35-1.21-3-.5-.48,2.07.5,3S133.81,124.54,134.51,123.83Z" transform="translate(0)"/><path class="cls-14" d="M120.45,128.46a1.13,1.13,0,0,0-.25-1.53,1.11,1.11,0,0,0-1.53-.25c-.36.35-.24,1,.25,1.53A1.13,1.13,0,0,0,120.45,128.46Z" transform="translate(0)"/><path class="cls-14" d="M120.82,125.27a.57.57,0,0,0-.12-.77.56.56,0,0,0-.77-.12c-.18.17-.12.51.13.76A.56.56,0,0,0,120.82,125.27Z" transform="translate(0)"/><path class="cls-15" d="M131.08,117.68h-5.49a.55.55,0,0,0-.55.55.55.55,0,0,0,.55.55h5.49a.54.54,0,0,0,.55-.55A.55.55,0,0,0,131.08,117.68Z" transform="translate(0)"/><path class="cls-15" d="M132.18,118.23a.55.55,0,0,0,.16.39.59.59,0,0,0,.39.16h1.1a.59.59,0,0,0,.39-.16.55.55,0,0,0,.16-.39.55.55,0,0,0-.16-.38.56.56,0,0,0-.39-.17h-1.1a.56.56,0,0,0-.39.17A.55.55,0,0,0,132.18,118.23Z" transform="translate(0)"/><path class="cls-16" d="M100.89,96.82H94.3V99h6.59Z" transform="translate(0)"/><path class="cls-17" d="M105,114.39H95.08a1.77,1.77,0,0,1-1-.35,1.74,1.74,0,0,1-.63-.91,1.76,1.76,0,0,1,0-1.11,1.79,1.79,0,0,1,.71-.85l.06,0a4.11,4.11,0,0,0,1.64-1.48,4,4,0,0,0,.64-2.12v-3a1.09,1.09,0,0,1,1.1-1.1h3.29v-2.19H94.3v6.32a4.09,4.09,0,0,1-2.27,3.6,3.92,3.92,0,0,0-2.1,3.25,2.46,2.46,0,0,0,0,.26v1.94h15.37v-1.94Z" transform="translate(0)"/><path class="cls-18" d="M96.5,100.12v-3.3H94.3v4.4h6.59v-1.1Z" transform="translate(0)"/><path class="cls-14" d="M102.88,113.08c.36-.35.24-1-.25-1.53a1,1,0,1,0-1.28,1.28A1.11,1.11,0,0,0,102.88,113.08Z" transform="translate(0)"/><path class="cls-14" d="M100,113.19c.18-.18.12-.52-.13-.77a.56.56,0,0,0-.76-.12c-.18.17-.12.52.12.76S99.78,113.37,100,113.19Z" transform="translate(0)"/><path class="cls-16" d="M116.26,96.82h-6.59V99h6.59Z" transform="translate(0)"/><path class="cls-17" d="M120.39,114.39h-9.93a1.77,1.77,0,0,1-1.06-.35,1.74,1.74,0,0,1-.63-.91,1.76,1.76,0,0,1,0-1.11,1.79,1.79,0,0,1,.71-.85l.06,0a4.07,4.07,0,0,0,2.28-3.6v-3a1.09,1.09,0,0,1,1.1-1.1h3.29v-2.19h-6.58v6.32a4.21,4.21,0,0,1-.64,2.12,4.11,4.11,0,0,1-1.64,1.48,4,4,0,0,0-2.1,3.25,2.46,2.46,0,0,0,0,.26v1.94h15.37v-1.94Z" transform="translate(0)"/><path class="cls-18" d="M111.87,100.12v-3.3h-2.2v4.4h6.59v-1.1Z" transform="translate(0)"/><path class="cls-14" d="M118.25,113.08c.36-.35.25-1-.25-1.53a1,1,0,1,0-1.28,1.28A1.11,1.11,0,0,0,118.25,113.08Z" transform="translate(0)"/><path class="cls-14" d="M115.33,113.19a.66.66,0,0,0-.89-.89c-.18.17-.12.52.13.76A.55.55,0,0,0,115.33,113.19Z" transform="translate(0)"/><path class="cls-16" d="M131.63,96.82H125V99h6.59Z" transform="translate(0)"/><path class="cls-17" d="M135.76,114.39h-9.93a1.77,1.77,0,0,1-1.06-.35,1.74,1.74,0,0,1-.63-.91,1.83,1.83,0,0,1,0-1.11,1.79,1.79,0,0,1,.71-.85l.06,0a4.07,4.07,0,0,0,2.28-3.6v-3a1.09,1.09,0,0,1,1.1-1.1h3.29v-2.19h-6.58v6.32a4.21,4.21,0,0,1-.64,2.12,4.11,4.11,0,0,1-1.64,1.48,4,4,0,0,0-2.1,3.25c0,.09,0,.18,0,.26v1.94H136v-1.94Z" transform="translate(0)"/><path class="cls-18" d="M127.24,100.12v-3.3H125v4.4h6.59v-1.1Z" transform="translate(0)"/><path class="cls-14" d="M133.62,113.08c.36-.35.25-1-.25-1.53a1,1,0,1,0-1.28,1.28C132.59,113.33,133.27,113.44,133.62,113.08Z" transform="translate(0)"/><path class="cls-14" d="M130.7,113.19c.18-.18.12-.52-.13-.77a.56.56,0,0,0-.76-.12c-.18.17-.12.52.12.76S130.52,113.37,130.7,113.19Z" transform="translate(0)"/><path class="cls-19" d="M136,92.43A4.39,4.39,0,0,0,131.63,88H94.3a4.4,4.4,0,0,0-4.39,4.39v22.22a4,4,0,0,1,1.1-2.73V92.43a3.28,3.28,0,0,1,3.29-3.29h37.33a3.29,3.29,0,0,1,3.3,3.29v19.49a4,4,0,0,1,1.09,2.73Z" transform="translate(0)"/><path class="cls-20" d="M59.54,109.66H58.39L56.14,106v3.68H55v-5.59h1.15l2.25,3.68v-3.68h1.15Zm2.85.08a2,2,0,0,1-2.07-2.06v-.11a2.48,2.48,0,0,1,.25-1.11,1.77,1.77,0,0,1,.68-.77,2,2,0,0,1,1-.26,1.76,1.76,0,0,1,1.34.53,2.23,2.23,0,0,1,.49,1.53v.45H61.45a1.09,1.09,0,0,0,.32.66,1,1,0,0,0,.69.24,1.19,1.19,0,0,0,1-.46L64,109a1.69,1.69,0,0,1-.68.55A2.23,2.23,0,0,1,62.39,109.74Zm-.13-3.42a.71.71,0,0,0-.54.23,1.22,1.22,0,0,0-.26.64H63v-.09a.82.82,0,0,0-.2-.57A.71.71,0,0,0,62.26,106.32Zm6.09,1.83.54-2.65H70l-1.07,4.16H68L67.19,107l-.79,2.62h-.93l-1.06-4.16h1.08l.54,2.65.76-2.65h.8Zm-10,8.22H56.14v2.29H55v-5.59h3.64V114H56.14v1.44h2.22Zm2,2.29H59.29v-5.9H60.4Zm3.33,0a1.16,1.16,0,0,1-.11-.37,1.35,1.35,0,0,1-1,.45,1.48,1.48,0,0,1-1-.36,1.15,1.15,0,0,1-.4-.89,1.18,1.18,0,0,1,.49-1,2.38,2.38,0,0,1,1.42-.36h.51v-.24a.69.69,0,0,0-.15-.46.59.59,0,0,0-.46-.17.69.69,0,0,0-.45.13.48.48,0,0,0-.15.37H61.25a1.12,1.12,0,0,1,.22-.67,1.56,1.56,0,0,1,.63-.48,2.42,2.42,0,0,1,.91-.17,1.84,1.84,0,0,1,1.22.38,1.37,1.37,0,0,1,.46,1.09v1.8a2,2,0,0,0,.16.9v.06Zm-.92-.77a1,1,0,0,0,.45-.11.65.65,0,0,0,.31-.3v-.71h-.41c-.56,0-.86.19-.89.58v.06a.42.42,0,0,0,.14.34A.57.57,0,0,0,62.81,117.89ZM67,117.3l.78-2.8H69l-1.41,4.16H66.5l-1.4-4.16h1.16Zm2.19-.76a2.44,2.44,0,0,1,.24-1.1,1.79,1.79,0,0,1,.69-.75,2,2,0,0,1,1-.26,1.89,1.89,0,0,1,1.37.51,2.08,2.08,0,0,1,.59,1.4v.28a2.22,2.22,0,0,1-.53,1.54,2.07,2.07,0,0,1-2.87,0,2.2,2.2,0,0,1-.54-1.57Zm1.11.08a1.55,1.55,0,0,0,.23.91.8.8,0,0,0,1.26,0,1.61,1.61,0,0,0,.23-1,1.5,1.5,0,0,0-.23-.9.78.78,0,0,0-1.26,0A1.71,1.71,0,0,0,70.33,116.62Zm5.85-1.08-.4,0a.8.8,0,0,0-.82.43v2.72H73.85V114.5h1l0,.5a1.07,1.07,0,0,1,1.27-.52Z" transform="translate(0)"/><path class="cls-12" d="M59.2,95.7H57.49v4.66H56.34V95.7H54.65v-.94H59.2Zm5.88,2.61h-.92v2H63v-5.6h2.08a2.38,2.38,0,0,1,1.53.44,1.54,1.54,0,0,1,.54,1.25,1.8,1.8,0,0,1-.25,1,1.77,1.77,0,0,1-.75.61l1.21,2.28v.06H66.13Zm-.92-.93h.93a1,1,0,0,0,.68-.22.8.8,0,0,0,.23-.61.85.85,0,0,0-.22-.63.94.94,0,0,0-.69-.22h-.93Zm8.77-.1,1.16-2.52h1.26l-1.83,3.57v2H72.35v-2l-1.84-3.57h1.26Z" transform="translate(0)"/></g><g class="cls-21"><rect class="cls-4" x="155.83" y="77.08" width="106.99" height="72.43" rx="2.99"/><rect class="cls-3" x="158.16" y="79.4" width="103" height="51.83" rx="3.32"/><g class="cls-22"><path class="cls-23" d="M202.8,108.73l2.76,5.6H190.37l-.27-.56,12.47-5.5Z" transform="translate(0)"/><path class="cls-24" d="M193.08,99.28l-4.15,1.84L187,97.19l4.15-1.84Z" transform="translate(0)"/><path class="cls-25" d="M201.24,105.55l1.33,2.72-12.47,5.5-1.34-2.72a3.64,3.64,0,0,1-.39-1.65,3.73,3.73,0,0,1,.91-2.45,3.78,3.78,0,0,0,.86-2,3.7,3.7,0,0,0-.36-2.12l-.85-1.74,4.15-1.84.86,1.74a4,4,0,0,0,1.51,1.64,4.13,4.13,0,0,0,2.14.62,4.13,4.13,0,0,1,2.13.63A4.21,4.21,0,0,1,201.24,105.55Z" transform="translate(0)"/><path class="cls-23" d="M203.12,109.38l-11.57,5h14Z" transform="translate(0)"/><path class="cls-26" d="M202.8,108.73l-.23-.46-12.47,5.5.27.56h1.18l11.57-5Z" transform="translate(0)"/><path class="cls-27" d="M192.38,97.86l-4.18,1.79.73,1.47,4.15-1.84Z" transform="translate(0)"/><path class="cls-24" d="M191.14,95.35,187,97.19l1.21,2.46,4.18-1.79Z" transform="translate(0)"/><path class="cls-25" d="M201.24,105.55a4.21,4.21,0,0,0-1.52-1.64,4.13,4.13,0,0,0-2.13-.63,4.13,4.13,0,0,1-2.14-.62,4,4,0,0,1-1.51-1.64l-.86-1.74-4.15,1.84.85,1.74a3.7,3.7,0,0,1,.36,2.12,3.78,3.78,0,0,1-.86,2,3.73,3.73,0,0,0-.91,2.45,3.64,3.64,0,0,0,.39,1.65l1.34,2.72,12.47-5.5Z" transform="translate(0)"/><path class="cls-26" d="M191.55,114.33h.93l-.16-.32Z" transform="translate(0)"/><path class="cls-28" d="M192.21,113.77l-.38-.76-1.73.76.27.56h1.18l.77-.32Z" transform="translate(0)"/><path class="cls-29" d="M189.9,98.92l-1.7.73.73,1.47,1.72-.76Z" transform="translate(0)"/><path class="cls-27" d="M188.64,96.46l-1.65.73,1.21,2.46,1.7-.73Z" transform="translate(0)"/><path class="cls-30" d="M190.87,111.05a3.64,3.64,0,0,1-.39-1.65,3.78,3.78,0,0,1,.9-2.45,3.71,3.71,0,0,0,.87-2,3.78,3.78,0,0,0-.36-2.12l-.85-1.74-.39-.76-1.72.76.85,1.74a3.7,3.7,0,0,1,.36,2.12,3.78,3.78,0,0,1-.86,2,3.73,3.73,0,0,0-.91,2.45,3.64,3.64,0,0,0,.39,1.65l1.34,2.72,1.73-.76Z" transform="translate(0)"/><path class="cls-31" d="M215.51,113.77l-.27.56h-9.68l-2.76-5.6.24-.46Z" transform="translate(0)"/><path class="cls-24" d="M218.62,97.19l-1.94,3.93-4.15-1.84,1.94-3.93Z" transform="translate(0)"/><path class="cls-32" d="M217.24,109.4a3.64,3.64,0,0,1-.39,1.65l-1.34,2.72L203,108.27l1.34-2.72a4.18,4.18,0,0,1,1.51-1.64,4.13,4.13,0,0,1,2.13-.63,4.13,4.13,0,0,0,2.14-.62,4,4,0,0,0,1.51-1.64l.86-1.74,4.15,1.84-.85,1.74a3.78,3.78,0,0,0-.36,2.12,3.71,3.71,0,0,0,.87,2A3.78,3.78,0,0,1,217.24,109.4Z" transform="translate(0)"/><path class="cls-33" d="M202.8,108.73l.52,1.06,9.85,4.54h2.07l.27-.56L203,108.27Z" transform="translate(0)"/><path class="cls-27" d="M217.26,99.94l-4-2-.68,1.37,4.15,1.84Z" transform="translate(0)"/><path class="cls-33" d="M203.32,109.79l2.24,4.54h5.27l-.69-1.4Z" transform="translate(0)"/><path class="cls-34" d="M204.38,105.55,203,108.27l6.14,2.71-.79-1.6-.31-.65-.23-.46-1.34-2.72a4,4,0,0,0-1.07-1.32A4,4,0,0,0,204.38,105.55Z" transform="translate(0)"/><path class="cls-35" d="M202.8,108.73l.52,1.06,6.82,3.14-1-2L203,108.27Z" transform="translate(0)"/><path class="cls-36" d="M217.26,99.94l1.36-2.75L217,96.46l-1.38,2.66Z" transform="translate(0)"/><path class="cls-30" d="M216.68,101.12l-1.71-.76-.4.76-.85,1.74a3.78,3.78,0,0,0-.36,2.12,3.71,3.71,0,0,0,.87,2,3.78,3.78,0,0,1,.9,2.45,3.64,3.64,0,0,1-.39,1.65l-1,2,1.73.76,1.34-2.72a3.64,3.64,0,0,0,.39-1.65,3.78,3.78,0,0,0-.9-2.45,3.74,3.74,0,0,1-.51-4.09Z" transform="translate(0)"/><path class="cls-31" d="M213.4,113.77l-.26.55h2.1l.27-.56-1.73-.76Z" transform="translate(0)"/><path class="cls-37" d="M215,100.36l1.71.76.58-1.18-1.65-.82Z" transform="translate(0)"/><path class="cls-34" d="M218.62,114.33l-.22,3.17H187.22l-.23-3.17h31.63Z" transform="translate(0)"/><path class="cls-38" d="M187.22,117.5l.07,1,.15,2.11,1,13.71.68,9.49h27.41l.68-9.49,1-13.71.23-3.16Z" transform="translate(0)"/><path class="cls-34" d="M219.68,135.42H185.93a1,1,0,0,1-1.05-1V120.66a1.06,1.06,0,0,1,1.05-1h4.22a1,1,0,0,1,1,1,1,1,0,0,1-1,1H187v11.61h31.63V121.71h-3.16a1,1,0,0,1-1.06-1,1.06,1.06,0,0,1,1.06-1h4.22a1.06,1.06,0,0,1,1,1v13.71a1,1,0,0,1-1,1Z" transform="translate(0)"/><path class="cls-32" d="M185.93,120.66h4.22a1.07,1.07,0,0,1,.52.14,1.15,1.15,0,0,1,.37.39,1,1,0,0,0,.16-.53,1,1,0,0,0-1-1h-4.22a1.06,1.06,0,0,0-1.05,1v1a1,1,0,0,1,.31-.74A1,1,0,0,1,185.93,120.66Z" transform="translate(0)"/><path class="cls-32" d="M219.68,119.61h-4.22a1,1,0,0,0-1.05,1,1,1,0,0,0,.16.53,1.15,1.15,0,0,1,.37-.39,1.07,1.07,0,0,1,.52-.14h4.22a1,1,0,0,1,1,1v-1a1,1,0,0,0-1-1Z" transform="translate(0)"/><path class="cls-39" d="M190.15,122.77a1.06,1.06,0,0,0,.75-.31,1,1,0,0,0,.14-1.27,1,1,0,0,1-.37.38,1.07,1.07,0,0,1-.52.14h-2.64l.08,1.06Z" transform="translate(0)"/><path class="cls-39" d="M214.57,121.19a1,1,0,0,0-.16.52,1.09,1.09,0,0,0,.3.75,1.06,1.06,0,0,0,.75.31H218l.08-1.06h-2.64a1.07,1.07,0,0,1-.52-.14A1,1,0,0,1,214.57,121.19Z" transform="translate(0)"/><path class="cls-32" d="M218.62,114.33H187l.07,1.06h31.49Z" transform="translate(0)"/><path class="cls-39" d="M218.4,117.5H187.22l.07,1,.08,1.06h30.88Z" transform="translate(0)"/><path class="cls-32" d="M191.39,117.5h27l.15-2.11H191.23C191.26,116.1,191.31,116.8,191.39,117.5Z" transform="translate(0)"/><path class="cls-40" d="M217.26,133.32l.76-10.55h-2.56a1.06,1.06,0,0,1-.75-.31,1.08,1.08,0,0,1-.31-.75,1.1,1.1,0,0,1,.17-.52,1,1,0,0,1-.1-.21,1.14,1.14,0,0,1-.07-.32,1.06,1.06,0,0,1,1.06-1H191.71a27.4,27.4,0,0,0,7.13,13.71Z" transform="translate(0)"/><path class="cls-41" d="M218.55,115.39l.07-1.06H191.21c0,.36,0,.71,0,1.06Z" transform="translate(0)"/><path class="cls-38" d="M233.39,143.86l-4.22-3.37v-13.6a5.76,5.76,0,0,1-2.11,0v13.6l-4.22,3.37Z" transform="translate(0)"/><path class="cls-39" d="M229.17,129v-2.11a5.76,5.76,0,0,1-2.11,0V129A5.76,5.76,0,0,0,229.17,129Z" transform="translate(0)"/><path class="cls-40" d="M234.44,101.68H221.79v7.38h12.65Z" transform="translate(0)"/><path class="cls-32" d="M234.44,109.06v11.6a6.33,6.33,0,1,1-12.65,0v-11.6Z" transform="translate(0)"/><path class="cls-34" d="M223.9,118.55v-9.49h-2.11v11.6A6.32,6.32,0,0,0,233.51,124a6.27,6.27,0,0,1-3.29.93,6.32,6.32,0,0,1-6.32-6.33Z" transform="translate(0)"/><path class="cls-38" d="M223.9,101.68h-2.11v7.38h2.11Z" transform="translate(0)"/><path class="cls-42" d="M234.44,109.06v-7.38h-10.5a25.77,25.77,0,0,0,1.34,7.38Z" transform="translate(0)"/><path class="cls-30" d="M234.44,119.82V109.06h-9.16C227.05,114.21,230.37,118.18,234.44,119.82Z" transform="translate(0)"/><path class="cls-43" d="M233,106.53c.67-.67.46-2-.48-2.93s-2.26-1.15-2.93-.48-.46,2,.48,2.93S232.31,107.21,233,106.53Z" transform="translate(0)"/><path class="cls-43" d="M200.29,128.68c.68-.68.47-2-.48-2.93s-2.25-1.16-2.93-.48-.46,2,.49,2.93S199.62,129.35,200.29,128.68Z" transform="translate(0)"/><path class="cls-43" d="M200.5,106.75a1.28,1.28,0,1,0-1.47-.24A1.08,1.08,0,0,0,200.5,106.75Z" transform="translate(0)"/><path class="cls-43" d="M215.26,108.86a1.28,1.28,0,1,0-1.47-.24A1.08,1.08,0,0,0,215.26,108.86Z" transform="translate(0)"/><path class="cls-43" d="M202.61,131a1.08,1.08,0,0,0-.24-1.47.92.92,0,1,0-1.23,1.23A1.08,1.08,0,0,0,202.61,131Z" transform="translate(0)"/><path class="cls-43" d="M229,107.81a1.1,1.1,0,0,0-.24-1.48,1.07,1.07,0,0,0-1.47-.23,1.28,1.28,0,0,0,1.71,1.71Z" transform="translate(0)"/><path class="cls-43" d="M198.74,107.91a.54.54,0,0,0-.12-.74.53.53,0,0,0-.73-.12.64.64,0,0,0,.85.86Z" transform="translate(0)"/><path class="cls-43" d="M214.57,105.8c.17-.17.11-.5-.13-.74a.53.53,0,0,0-.73-.12.54.54,0,0,0,.12.74A.55.55,0,0,0,214.57,105.8Z" transform="translate(0)"/><path class="cls-44" d="M231.81,120.66a.52.52,0,0,0,.52-.53.53.53,0,0,0-1.05,0A.53.53,0,0,0,231.81,120.66Z" transform="translate(0)"/><path class="cls-44" d="M232.86,113.28a.53.53,0,1,0-.53-.53A.53.53,0,0,0,232.86,113.28Z" transform="translate(0)"/><path class="cls-44" d="M231.81,115.39a.53.53,0,1,0-.53-.53A.52.52,0,0,0,231.81,115.39Z" transform="translate(0)"/><path class="cls-43" d="M230.75,111.17a.53.53,0,1,0-.53-.53A.53.53,0,0,0,230.75,111.17Z" transform="translate(0)"/><path class="cls-34" d="M229.7,118.55a.53.53,0,0,0,0-1,.53.53,0,1,0,0,1Z" transform="translate(0)"/><path class="cls-34" d="M228.64,123.82a.53.53,0,1,0-.53-.52A.52.52,0,0,0,228.64,123.82Z" transform="translate(0)"/><path class="cls-44" d="M227.59,120.66a.53.53,0,0,0,.53-.53.53.53,0,0,0-1.06,0A.53.53,0,0,0,227.59,120.66Z" transform="translate(0)"/><path class="cls-34" d="M231.28,123.82a1.06,1.06,0,0,0,0-2.11,1.06,1.06,0,1,0,0,2.11Z" transform="translate(0)"/><path class="cls-44" d="M227.06,116.44a1.06,1.06,0,1,0-1.05-1A1.06,1.06,0,0,0,227.06,116.44Z" transform="translate(0)"/><path class="cls-34" d="M226,119.61a1.06,1.06,0,1,0-1.06-1.06A1.06,1.06,0,0,0,226,119.61Z" transform="translate(0)"/></g></g><path d="M53.69,138.56h-1.8v5h-.73v-5h-1.8V138h4.33Zm1.49,5h-.71v-4.16h.71Zm-.77-5.26a.44.44,0,0,1,.11-.29.39.39,0,0,1,.31-.12.41.41,0,0,1,.32.12.43.43,0,0,1,.1.29.41.41,0,0,1-.1.29.4.4,0,0,1-.32.11.38.38,0,0,1-.31-.11A.42.42,0,0,1,54.41,138.29Zm2.58,1.1,0,.46a1.57,1.57,0,0,1,1.23-.53,1.18,1.18,0,0,1,1.19.67,1.59,1.59,0,0,1,.54-.49,1.62,1.62,0,0,1,.79-.18c.91,0,1.37.48,1.39,1.44v2.79h-.71v-2.74a.94.94,0,0,0-.21-.67.87.87,0,0,0-.68-.22,1,1,0,0,0-.66.24,1,1,0,0,0-.3.63v2.76h-.72v-2.72c0-.61-.29-.91-.88-.91a1,1,0,0,0-1,.6v3h-.71v-4.16Zm8,4.24a1.83,1.83,0,0,1-1.38-.56,2.06,2.06,0,0,1-.53-1.48v-.13a2.48,2.48,0,0,1,.24-1.11,1.89,1.89,0,0,1,.66-.76,1.68,1.68,0,0,1,.92-.27,1.54,1.54,0,0,1,1.26.53,2.33,2.33,0,0,1,.45,1.53v.3H63.75a1.46,1.46,0,0,0,.36,1,1.25,1.25,0,0,0,1.51.22,1.46,1.46,0,0,0,.46-.4l.44.33A1.74,1.74,0,0,1,65,143.63Zm-.09-3.73a.93.93,0,0,0-.72.32,1.4,1.4,0,0,0-.36.87h2.08V141a1.38,1.38,0,0,0-.29-.84A.9.9,0,0,0,64.86,139.9Zm5,2.55a.55.55,0,0,0-.22-.45,2.15,2.15,0,0,0-.76-.27,3.77,3.77,0,0,1-.86-.28,1.28,1.28,0,0,1-.46-.38.94.94,0,0,1-.15-.53,1.07,1.07,0,0,1,.43-.87,1.63,1.63,0,0,1,1.1-.35,1.76,1.76,0,0,1,1.15.36,1.19,1.19,0,0,1,.44.94h-.72a.63.63,0,0,0-.25-.51.91.91,0,0,0-.62-.21,1,1,0,0,0-.6.17.52.52,0,0,0-.22.44.43.43,0,0,0,.2.39,2.48,2.48,0,0,0,.73.25,3.87,3.87,0,0,1,.87.28,1.34,1.34,0,0,1,.49.4,1.1,1.1,0,0,1-.29,1.46,1.83,1.83,0,0,1-1.15.34,2.08,2.08,0,0,1-.89-.18,1.46,1.46,0,0,1-.6-.49,1.16,1.16,0,0,1-.22-.69h.71a.76.76,0,0,0,.29.57,1.11,1.11,0,0,0,.71.21,1.21,1.21,0,0,0,.64-.16A.52.52,0,0,0,69.82,142.45Zm5.35-1.39a3.52,3.52,0,0,1-1.39-.67,1.33,1.33,0,0,1-.43-1,1.36,1.36,0,0,1,.53-1.09,2.08,2.08,0,0,1,1.37-.43,2.26,2.26,0,0,1,1,.22,1.76,1.76,0,0,1,.7.62,1.51,1.51,0,0,1,.25.85h-.74a1,1,0,0,0-.33-.79,1.26,1.26,0,0,0-.91-.29,1.36,1.36,0,0,0-.85.24.8.8,0,0,0-.3.66.69.69,0,0,0,.29.58,2.76,2.76,0,0,0,1,.43,4.69,4.69,0,0,1,1.09.44,1.58,1.58,0,0,1,.59.55,1.38,1.38,0,0,1,.19.74,1.32,1.32,0,0,1-.53,1.09,2.28,2.28,0,0,1-1.42.41,2.73,2.73,0,0,1-1.07-.22,1.86,1.86,0,0,1-.78-.61,1.45,1.45,0,0,1-.27-.87h.75a1,1,0,0,0,.37.8,1.55,1.55,0,0,0,1,.29,1.46,1.46,0,0,0,.9-.23.8.8,0,0,0,.31-.65.77.77,0,0,0-.29-.64A3.18,3.18,0,0,0,75.17,141.06Zm2.73.38a2.44,2.44,0,0,1,.45-1.55,1.47,1.47,0,0,1,1.21-.57,1.44,1.44,0,0,1,1.16.49l0-.42h.65v5.76H80.7v-2a1.53,1.53,0,0,1-1.15.46,1.44,1.44,0,0,1-1.2-.59,2.48,2.48,0,0,1-.45-1.55Zm.72.08a1.86,1.86,0,0,0,.3,1.12,1,1,0,0,0,.81.41,1.07,1.07,0,0,0,1-.56v-2a1.07,1.07,0,0,0-1-.55,1,1,0,0,0-.82.41A2,2,0,0,0,78.62,141.52Zm6.5,1.62a1.54,1.54,0,0,1-1.22.49,1.32,1.32,0,0,1-1-.39,1.71,1.71,0,0,1-.35-1.14v-2.71h.72v2.69c0,.63.25.94.76.94a1.07,1.07,0,0,0,1.09-.6v-3h.71v4.16h-.68Zm4.34.41a1.36,1.36,0,0,1-.1-.44,1.57,1.57,0,0,1-1.18.52,1.52,1.52,0,0,1-1-.35,1.13,1.13,0,0,1-.39-.88,1.19,1.19,0,0,1,.49-1,2.38,2.38,0,0,1,1.4-.36h.69v-.33a.81.81,0,0,0-.23-.59.85.85,0,0,0-.65-.22,1,1,0,0,0-.64.19.57.57,0,0,0-.26.47h-.71a1,1,0,0,1,.22-.6,1.34,1.34,0,0,1,.6-.46,1.9,1.9,0,0,1,.83-.17,1.67,1.67,0,0,1,1.13.36,1.28,1.28,0,0,1,.42,1v1.92a2.52,2.52,0,0,0,.14.91v.06ZM88.28,143a1.29,1.29,0,0,0,.63-.17,1.12,1.12,0,0,0,.44-.45v-.86h-.56c-.87,0-1.31.26-1.31.77a.64.64,0,0,0,.23.52A.84.84,0,0,0,88.28,143Zm4.9-3a1.94,1.94,0,0,0-.35,0,.94.94,0,0,0-1,.59v3h-.71v-4.16h.69l0,.48a1.1,1.1,0,0,1,1-.55.83.83,0,0,1,.31.05Zm2.31,3.6a1.82,1.82,0,0,1-1.38-.56,2.06,2.06,0,0,1-.53-1.48v-.13a2.48,2.48,0,0,1,.24-1.11,1.75,1.75,0,0,1,.66-.76,1.68,1.68,0,0,1,.92-.27,1.54,1.54,0,0,1,1.26.53,2.33,2.33,0,0,1,.45,1.53v.3H94.29a1.46,1.46,0,0,0,.36,1,1.25,1.25,0,0,0,1.51.22,1.46,1.46,0,0,0,.46-.4l.43.33A1.73,1.73,0,0,1,95.49,143.63Zm-.09-3.73a.93.93,0,0,0-.72.32,1.4,1.4,0,0,0-.36.87H96.4V141a1.38,1.38,0,0,0-.29-.84A.9.9,0,0,0,95.4,139.9Zm5.34,1.46v2.19H100V138h2.06a2,2,0,0,1,1.44.47,1.76,1.76,0,0,1,0,2.49,2.18,2.18,0,0,1-1.46.44Zm0-.6h1.32a1.36,1.36,0,0,0,.91-.28,1,1,0,0,0,.31-.81,1,1,0,0,0-.31-.79,1.26,1.26,0,0,0-.87-.32h-1.36Zm4.88,2.79h-.71v-5.9h.71Zm3.71,0a1.69,1.69,0,0,1-.1-.44,1.56,1.56,0,0,1-1.18.52,1.48,1.48,0,0,1-1-.35,1.14,1.14,0,0,1-.4-.88,1.17,1.17,0,0,1,.5-1,2.32,2.32,0,0,1,1.39-.36h.69v-.33a.84.84,0,0,0-.22-.59.89.89,0,0,0-.66-.22,1,1,0,0,0-.64.19.57.57,0,0,0-.26.47h-.71a1,1,0,0,1,.22-.6,1.46,1.46,0,0,1,.6-.46,1.9,1.9,0,0,1,.83-.17,1.65,1.65,0,0,1,1.13.36,1.28,1.28,0,0,1,.42,1v1.92a2.3,2.3,0,0,0,.15.91v.06Zm-1.18-.54a1.36,1.36,0,0,0,.64-.17,1.09,1.09,0,0,0,.43-.45v-.86h-.56c-.87,0-1.3.26-1.3.77a.63.63,0,0,0,.22.52A.84.84,0,0,0,108.15,143Zm4.19-.5,1-3.12h.76l-1.67,4.8c-.26.69-.67,1-1.23,1H111l-.26-.05v-.58l.19,0a.91.91,0,0,0,.56-.15,1,1,0,0,0,.34-.53l.15-.42-1.48-4.12h.78Zm4,1.12a1.81,1.81,0,0,1-1.37-.56,2,2,0,0,1-.53-1.48v-.13a2.48,2.48,0,0,1,.23-1.11,1.89,1.89,0,0,1,.66-.76,1.68,1.68,0,0,1,.92-.27,1.54,1.54,0,0,1,1.26.53,2.33,2.33,0,0,1,.45,1.53v.3h-2.81a1.5,1.5,0,0,0,.35,1,1.16,1.16,0,0,0,.88.38,1.19,1.19,0,0,0,.64-.16,1.55,1.55,0,0,0,.45-.4l.44.33A1.74,1.74,0,0,1,116.38,143.63Zm-.09-3.73a1,1,0,0,0-.72.32,1.52,1.52,0,0,0-.36.87h2.08V141a1.38,1.38,0,0,0-.29-.84A.89.89,0,0,0,116.29,139.9Zm4.55.13a2,2,0,0,0-.35,0,.93.93,0,0,0-.95.59v3h-.71v-4.16h.69v.48a1.11,1.11,0,0,1,1-.55.85.85,0,0,1,.32.05Z" transform="translate(0)"/><rect class="cls-45" x="162.81" y="138.54" width="67.12" height="5.32" rx="0.92"/><rect class="cls-2" x="52.28" y="0.28" width="259.93" height="111.74" rx="5.34"/><rect class="cls-45" x="161.65" y="75.76" width="6.65" height="3.99" rx="0.92"/><rect class="cls-45" x="161.65" y="68.45" width="6.65" height="3.99" rx="0.92"/><rect class="cls-45" x="161.65" y="61.14" width="6.65" height="3.99" rx="0.92"/><rect class="cls-45" x="161.65" y="53.83" width="6.65" height="3.99" rx="0.92"/><rect class="cls-45" x="161.65" y="46.52" width="6.65" height="3.99" rx="0.92"/><rect class="cls-45" x="161.65" y="39.21" width="6.65" height="3.99" rx="0.92"/><rect class="cls-45" x="161.65" y="31.9" width="6.65" height="3.99" rx="0.92"/><path d="M167.82,86.45a2.15,2.15,0,0,1-.29,1.26,1,1,0,0,1-.9.41,1,1,0,0,1-.89-.4,2,2,0,0,1-.3-1.2v-.64a2.17,2.17,0,0,1,.28-1.24,1.06,1.06,0,0,1,.91-.41,1.07,1.07,0,0,1,.9.4,2,2,0,0,1,.29,1.2Zm-.48-.65a1.79,1.79,0,0,0-.17-.89.66.66,0,0,0-1.08,0,1.69,1.69,0,0,0-.17.85v.77a1.93,1.93,0,0,0,.17.91.64.64,0,0,0,1.07,0,1.61,1.61,0,0,0,.18-.87Z" transform="translate(0)"/><path d="M66.9,17.09h-2l-.39,1.15H63.27l2.08-5.59h1.07l2.09,5.59H67.29Zm-1.71-.93h1.4l-.71-2.1Zm5.14.73.77-2.81h1.16l-1.4,4.16H69.8l-1.41-4.16h1.16Zm4.77,1.35a1.16,1.16,0,0,1-.11-.37,1.35,1.35,0,0,1-1,.45,1.48,1.48,0,0,1-1-.36,1.15,1.15,0,0,1-.4-.89,1.18,1.18,0,0,1,.49-1,2.38,2.38,0,0,1,1.42-.36h.51v-.24a.69.69,0,0,0-.15-.46.59.59,0,0,0-.46-.17.69.69,0,0,0-.45.13.48.48,0,0,0-.15.37H72.62a1.12,1.12,0,0,1,.22-.67,1.56,1.56,0,0,1,.63-.48,2.38,2.38,0,0,1,.91-.17,1.79,1.79,0,0,1,1.22.39,1.33,1.33,0,0,1,.45,1.08v1.8a2.08,2.08,0,0,0,.17.9v.06Zm-.92-.77a1,1,0,0,0,.45-.11.73.73,0,0,0,.31-.29v-.72h-.41c-.56,0-.86.19-.89.58V17a.42.42,0,0,0,.15.34A.57.57,0,0,0,74.18,17.47Zm3.9.77H77V14.08h1.12ZM76.9,13a.53.53,0,0,1,.16-.41.74.74,0,0,1,.92,0,.53.53,0,0,1,.16.41.5.5,0,0,1-.17.41.61.61,0,0,1-.45.16.62.62,0,0,1-.45-.16A.53.53,0,0,1,76.9,13Zm3.27,5.23H79.06v-5.9h1.11Zm3.33,0a1.16,1.16,0,0,1-.11-.37,1.35,1.35,0,0,1-1,.45,1.48,1.48,0,0,1-1-.36,1.15,1.15,0,0,1-.4-.89,1.18,1.18,0,0,1,.49-1,2.38,2.38,0,0,1,1.42-.36h.51v-.24a.69.69,0,0,0-.15-.46.6.6,0,0,0-.47-.17.68.68,0,0,0-.44.13.48.48,0,0,0-.15.37H81a1.13,1.13,0,0,1,.23-.67,1.56,1.56,0,0,1,.63-.48,2.38,2.38,0,0,1,.91-.17A1.81,1.81,0,0,1,84,14.4a1.33,1.33,0,0,1,.45,1.08v1.8a2.08,2.08,0,0,0,.17.9v.06Zm-.92-.77a1,1,0,0,0,.45-.11.73.73,0,0,0,.31-.29v-.72h-.42c-.55,0-.85.19-.88.58V17a.42.42,0,0,0,.15.34A.57.57,0,0,0,82.58,17.47Zm6.47-1.27a2.54,2.54,0,0,1-.42,1.56,1.44,1.44,0,0,1-1.19.56,1.27,1.27,0,0,1-1.08-.52l0,.44h-1v-5.9h1.11v2.12a1.25,1.25,0,0,1,1-.45,1.41,1.41,0,0,1,1.19.56,2.49,2.49,0,0,1,.43,1.57Zm-1.11-.08a1.59,1.59,0,0,0-.2-.92.67.67,0,0,0-.59-.29.72.72,0,0,0-.73.43V17a.73.73,0,0,0,.73.43.68.68,0,0,0,.71-.53A2.5,2.5,0,0,0,87.94,16.12Zm3,2.12H89.8V14.08h1.11ZM89.73,13a.53.53,0,0,1,.17-.41.61.61,0,0,1,.46-.16.62.62,0,0,1,.45.16A.53.53,0,0,1,91,13a.51.51,0,0,1-.18.41.6.6,0,0,1-.44.16.65.65,0,0,1-.46-.16A.53.53,0,0,1,89.73,13ZM93,18.24H91.89v-5.9H93Zm2.09,0H94V14.08h1.11ZM93.91,13a.53.53,0,0,1,.17-.41.61.61,0,0,1,.46-.16.61.61,0,0,1,.45.16.58.58,0,0,1,0,.82.64.64,0,0,1-.45.16.65.65,0,0,1-.46-.16A.53.53,0,0,1,93.91,13Zm3.43.05v1h.71v.82h-.71V17a.47.47,0,0,0,.09.33.43.43,0,0,0,.34.1l.32,0v.84a2.47,2.47,0,0,1-.67.1,1.06,1.06,0,0,1-1.19-1.18V14.9h-.61v-.82h.61v-1Zm2.88,3.61.77-2.59h1.19l-1.67,4.81-.09.22a1.27,1.27,0,0,1-1.23.81,1.66,1.66,0,0,1-.49-.07V19h.17a.81.81,0,0,0,.46-.1.59.59,0,0,0,.25-.32l.13-.34-1.45-4.17h1.19Zm6.5-.48h-.91v2h-1.16V12.65h2.08a2.33,2.33,0,0,1,1.53.44,1.52,1.52,0,0,1,.54,1.25,1.74,1.74,0,0,1-.25.95,1.6,1.6,0,0,1-.75.61L109,18.19v0h-1.24Zm-.91-.93h.93a.93.93,0,0,0,.67-.22.79.79,0,0,0,.24-.61.85.85,0,0,0-.23-.62.94.94,0,0,0-.69-.23h-.92Zm5.71,3.06a2.05,2.05,0,0,1-1.49-.56,2,2,0,0,1-.57-1.5v-.1A2.49,2.49,0,0,1,109.7,15a1.74,1.74,0,0,1,.68-.76,1.94,1.94,0,0,1,1-.27,1.73,1.73,0,0,1,1.34.54,2.14,2.14,0,0,1,.49,1.52v.45h-2.65a1.06,1.06,0,0,0,.32.66,1,1,0,0,0,.69.24,1.22,1.22,0,0,0,1-.46l.54.61a1.69,1.69,0,0,1-.68.55A2.23,2.23,0,0,1,111.52,18.32Zm-.13-3.41a.7.7,0,0,0-.54.22,1.22,1.22,0,0,0-.26.64h1.55v-.09a.82.82,0,0,0-.2-.57A.7.7,0,0,0,111.39,14.91Zm6.22,1.29a2.49,2.49,0,0,1-.44,1.54,1.38,1.38,0,0,1-1.18.58,1.31,1.31,0,0,1-1-.44v2h-1.11V14.08h1l0,.41a1.31,1.31,0,0,1,1-.48,1.41,1.41,0,0,1,1.2.57,2.56,2.56,0,0,1,.43,1.56Zm-1.11-.08a1.58,1.58,0,0,0-.21-.89.68.68,0,0,0-.6-.32.72.72,0,0,0-.72.4V17a.74.74,0,0,0,.73.41C116.23,17.42,116.5,17,116.5,16.12Zm1.62,0a2.44,2.44,0,0,1,.24-1.1,1.79,1.79,0,0,1,.69-.75,2.06,2.06,0,0,1,1-.26,1.89,1.89,0,0,1,1.37.51,2.05,2.05,0,0,1,.59,1.4v.28a2.2,2.2,0,0,1-.53,1.54,2.07,2.07,0,0,1-2.87,0,2.19,2.19,0,0,1-.54-1.57Zm1.11.08a1.55,1.55,0,0,0,.23.91.8.8,0,0,0,1.26,0,1.66,1.66,0,0,0,.23-1,1.45,1.45,0,0,0-.23-.89.78.78,0,0,0-1.26,0A1.67,1.67,0,0,0,119.23,16.2Zm5.85-1.07a2,2,0,0,0-.4,0,.81.81,0,0,0-.82.43v2.72h-1.11V14.08h1l0,.5a1,1,0,0,1,.92-.57,1,1,0,0,1,.35.05Zm2.06-2.07v1h.71v.82h-.71V17a.47.47,0,0,0,.09.33.43.43,0,0,0,.34.1l.32,0v.84a2.47,2.47,0,0,1-.67.1A1.06,1.06,0,0,1,126,17.14V14.9h-.61v-.82H126v-1Zm1.38,4.64a.55.55,0,0,1,.18-.43.68.68,0,0,1,.9,0,.55.55,0,0,1,.18.43.54.54,0,0,1-.18.42.61.61,0,0,1-.45.16.64.64,0,0,1-.45-.16A.54.54,0,0,1,128.52,17.7Zm0-3.15a.55.55,0,0,1,.18-.43.68.68,0,0,1,.9,0,.55.55,0,0,1,.18.43.57.57,0,0,1-.18.43.65.65,0,0,1-.45.16.69.69,0,0,1-.45-.16A.57.57,0,0,1,128.52,14.55Zm5.71-1.9,1.44,4,1.43-4h1.51v5.59h-1.16V16.71l.12-2.64-1.51,4.17h-.79l-1.51-4.16.12,2.63v1.53h-1.16V12.65ZM142,18.24a1.48,1.48,0,0,1-.11-.37,1.35,1.35,0,0,1-1.05.45,1.47,1.47,0,0,1-1-.36,1.12,1.12,0,0,1-.4-.89,1.15,1.15,0,0,1,.49-1,2.38,2.38,0,0,1,1.42-.36h.51v-.24a.69.69,0,0,0-.15-.46.61.61,0,0,0-.47-.17.66.66,0,0,0-.44.13.46.46,0,0,0-.16.37h-1.11a1.19,1.19,0,0,1,.22-.67,1.56,1.56,0,0,1,.63-.48,2.47,2.47,0,0,1,.92-.17,1.81,1.81,0,0,1,1.22.39,1.33,1.33,0,0,1,.45,1.08v1.8a1.94,1.94,0,0,0,.17.9v.06Zm-.91-.77a1,1,0,0,0,.45-.11.73.73,0,0,0,.31-.29v-.72h-.42c-.56,0-.85.19-.89.58V17a.42.42,0,0,0,.15.34A.56.56,0,0,0,141,17.47Zm4.21-.8.77-2.59h1.19l-1.67,4.81-.09.22a1.27,1.27,0,0,1-1.23.81,1.71,1.71,0,0,1-.49-.07V19h.17a.86.86,0,0,0,.47-.1.63.63,0,0,0,.24-.32l.13-.34-1.45-4.17h1.19Zm8.15,1.57h-3.83v-.76l1.81-1.93a4.3,4.3,0,0,0,.54-.71,1.12,1.12,0,0,0,.18-.58.87.87,0,0,0-.18-.58.7.7,0,0,0-.54-.21.73.73,0,0,0-.6.26,1,1,0,0,0-.21.68h-1.12a1.89,1.89,0,0,1,.25-.94,1.69,1.69,0,0,1,.69-.66,2.07,2.07,0,0,1,1-.24,2,2,0,0,1,1.34.42,1.45,1.45,0,0,1,.48,1.17A1.79,1.79,0,0,1,153,15a4.59,4.59,0,0,1-.73,1L151,17.35h2.41Zm4.45-2.31a2.83,2.83,0,0,1-.48,1.77,1.68,1.68,0,0,1-1.41.62,1.7,1.7,0,0,1-1.4-.6,2.8,2.8,0,0,1-.49-1.73V15a2.82,2.82,0,0,1,.48-1.78,1.7,1.7,0,0,1,1.41-.61,1.67,1.67,0,0,1,1.39.6,2.72,2.72,0,0,1,.5,1.73Zm-1.11-1.13a2,2,0,0,0-.19-1,.66.66,0,0,0-.59-.32.62.62,0,0,0-.58.3,1.88,1.88,0,0,0-.2.94v1.36a2.21,2.21,0,0,0,.18,1,.65.65,0,0,0,.6.33.62.62,0,0,0,.59-.32,2.12,2.12,0,0,0,.19-1Zm5.7,3.44H158.6v-.76l1.81-1.93a4.44,4.44,0,0,0,.55-.71,1.12,1.12,0,0,0,.18-.58.83.83,0,0,0-.19-.58.66.66,0,0,0-.53-.21.72.72,0,0,0-.6.26,1,1,0,0,0-.22.68h-1.11a1.88,1.88,0,0,1,.24-.94,1.78,1.78,0,0,1,.7-.66,2.05,2.05,0,0,1,1-.24,2,2,0,0,1,1.35.42,1.45,1.45,0,0,1,.48,1.17A1.91,1.91,0,0,1,162,15a4.69,4.69,0,0,1-.74,1L160,17.35h2.41Zm4.45-2.31a2.83,2.83,0,0,1-.48,1.77,1.92,1.92,0,0,1-2.81,0,2.74,2.74,0,0,1-.49-1.73V15a2.82,2.82,0,0,1,.48-1.78,1.67,1.67,0,0,1,1.4-.61,1.69,1.69,0,0,1,1.4.6,2.78,2.78,0,0,1,.5,1.73Zm-1.11-1.13a2,2,0,0,0-.2-1,.63.63,0,0,0-.59-.32.64.64,0,0,0-.58.3,1.89,1.89,0,0,0-.19.94v1.36a2.21,2.21,0,0,0,.18,1,.65.65,0,0,0,.6.33.62.62,0,0,0,.59-.32,2.12,2.12,0,0,0,.19-1Z" transform="translate(0)"/><path d="M85.17,38.57H83.58l-.35,1h-.52l1.45-3.78h.43L86,39.56h-.51Zm-1.44-.41H85l-.65-1.77Zm3.54.74L88,36.75h.49l-1,2.81h-.37l-1-2.81h.49Zm2.78.71a1.21,1.21,0,0,1-.93-.38,1.38,1.38,0,0,1-.36-1v-.09a1.58,1.58,0,0,1,.16-.74,1.18,1.18,0,0,1,.44-.52,1.17,1.17,0,0,1,.63-.19,1.07,1.07,0,0,1,.85.37,1.56,1.56,0,0,1,.3,1v.2h-1.9a1,1,0,0,0,.24.67.77.77,0,0,0,.59.26.83.83,0,0,0,.43-.11,1.14,1.14,0,0,0,.31-.27l.29.22A1.15,1.15,0,0,1,90.05,39.61ZM90,37.09a.64.64,0,0,0-.49.21,1,1,0,0,0-.25.59h1.41v0a.89.89,0,0,0-.2-.57A.59.59,0,0,0,90,37.09Zm3.07.09-.24,0a.63.63,0,0,0-.64.4v2H91.7V36.75h.47v.32a.76.76,0,0,1,.67-.38.57.57,0,0,1,.22,0Zm2.07,2.38a1.1,1.1,0,0,1-.07-.3,1.08,1.08,0,0,1-.8.35,1,1,0,0,1-.68-.24.73.73,0,0,1-.26-.59.78.78,0,0,1,.33-.68,1.5,1.5,0,0,1,.94-.25h.47v-.22a.51.51,0,0,0-.16-.4.59.59,0,0,0-.44-.15.69.69,0,0,0-.43.13.37.37,0,0,0-.17.32h-.49a.67.67,0,0,1,.15-.41,1.09,1.09,0,0,1,.41-.31,1.31,1.31,0,0,1,.56-.12,1.12,1.12,0,0,1,.76.25.89.89,0,0,1,.29.67V38.9a1.67,1.67,0,0,0,.09.61v.05Zm-.8-.37a.82.82,0,0,0,.43-.12.78.78,0,0,0,.3-.3v-.58h-.38c-.59,0-.88.17-.88.52a.43.43,0,0,0,.15.35A.55.55,0,0,0,94.33,39.19Zm1.84-1.06a1.68,1.68,0,0,1,.31-1.05,1,1,0,0,1,1.6,0l0-.31h.44v2.74a1.14,1.14,0,0,1-.33.86,1.16,1.16,0,0,1-.86.31,1.38,1.38,0,0,1-.6-.13,1,1,0,0,1-.44-.35l.25-.29a.93.93,0,0,0,.75.38.68.68,0,0,0,.74-.75v-.24a1,1,0,0,1-1.58-.07A1.75,1.75,0,0,1,96.17,38.13Zm.49,0a1.26,1.26,0,0,0,.19.75.63.63,0,0,0,.55.27.7.7,0,0,0,.66-.41V37.5a.71.71,0,0,0-.66-.4.66.66,0,0,0-.55.27A1.43,1.43,0,0,0,96.66,38.18Zm3.78,1.43a1.24,1.24,0,0,1-.93-.38,1.38,1.38,0,0,1-.36-1v-.09a1.58,1.58,0,0,1,.16-.74,1.27,1.27,0,0,1,.45-.52,1.16,1.16,0,0,1,.62-.19,1.06,1.06,0,0,1,.85.37,1.56,1.56,0,0,1,.3,1v.2h-1.9a1,1,0,0,0,.24.67.79.79,0,0,0,.59.26.84.84,0,0,0,.44-.11,1.31,1.31,0,0,0,.31-.27l.29.22A1.18,1.18,0,0,1,100.44,39.61Zm-.06-2.52a.64.64,0,0,0-.49.21,1,1,0,0,0-.24.59h1.4v0a1,1,0,0,0-.19-.57A.63.63,0,0,0,100.38,37.09Zm3.19,2.47V37.12h-.44v-.37h.44v-.24a1,1,0,0,1,.27-.73,1,1,0,0,1,.76-.27,2.42,2.42,0,0,1,.73.16l-.08.41a1.56,1.56,0,0,0-.61-.13.58.58,0,0,0-.45.14.56.56,0,0,0-.13.41v.25h.57v.37h-.57v2.44Zm2,0h-.48V36.75h.48Zm1.31,0h-.48v-4h.48Zm1.29,0h-.48v-4h.48Zm3.45-2.38-.24,0a.63.63,0,0,0-.64.4v2h-.48V36.75h.47v.32a.76.76,0,0,1,.67-.38.57.57,0,0,1,.22,0Zm2.07,2.38a1.1,1.1,0,0,1-.07-.3,1.08,1.08,0,0,1-.8.35,1,1,0,0,1-.68-.24.73.73,0,0,1-.26-.59.78.78,0,0,1,.33-.68,1.52,1.52,0,0,1,.94-.25h.46v-.22a.5.5,0,0,0-.15-.4.59.59,0,0,0-.44-.15.69.69,0,0,0-.43.13.37.37,0,0,0-.17.32h-.49a.67.67,0,0,1,.15-.41,1.09,1.09,0,0,1,.41-.31,1.31,1.31,0,0,1,.56-.12,1.12,1.12,0,0,1,.76.25.89.89,0,0,1,.29.67V38.9a1.67,1.67,0,0,0,.09.61v.05Zm-.8-.37a.82.82,0,0,0,.43-.12.64.64,0,0,0,.29-.3v-.58h-.37c-.59,0-.88.17-.88.52a.43.43,0,0,0,.15.35A.55.55,0,0,0,112.89,39.19Zm2.61-3.12v.68H116v.37h-.52v1.74a.36.36,0,0,0,.07.25.3.3,0,0,0,.24.09l.23,0v.39a1.64,1.64,0,0,1-.37,0,.6.6,0,0,1-.49-.2.82.82,0,0,1-.16-.55V37.12h-.51v-.37H115v-.68Zm2.25,3.54a1.24,1.24,0,0,1-.93-.38,1.37,1.37,0,0,1-.35-1v-.09a1.72,1.72,0,0,1,.15-.74,1.27,1.27,0,0,1,.45-.52,1.16,1.16,0,0,1,.62-.19,1,1,0,0,1,.85.37,1.51,1.51,0,0,1,.31,1v.2H117a.93.93,0,0,0,.24.67.76.76,0,0,0,.59.26.83.83,0,0,0,.43-.11,1.14,1.14,0,0,0,.31-.27l.29.22A1.16,1.16,0,0,1,117.75,39.61Zm-.06-2.52a.63.63,0,0,0-.48.21,1,1,0,0,0-.25.59h1.41v0a1,1,0,0,0-.2-.57A.63.63,0,0,0,117.69,37.09ZM85.81,45.56V43.12h-.45v-.37h.45v-.29a1,1,0,0,1,.24-.7.93.93,0,0,1,.68-.25,1.26,1.26,0,0,1,.33.05L87,42a1,1,0,0,0-.26,0,.49.49,0,0,0-.36.14.57.57,0,0,0-.12.39v.3h.6v.37h-.6v2.44Zm1.48-1.43a1.65,1.65,0,0,1,.16-.75,1.25,1.25,0,0,1,.45-.51,1.27,1.27,0,0,1,.67-.18,1.18,1.18,0,0,1,.92.4,1.53,1.53,0,0,1,.36,1.06v0a1.61,1.61,0,0,1-.16.74,1.17,1.17,0,0,1-.45.51,1.24,1.24,0,0,1-.67.18,1.22,1.22,0,0,1-.93-.4,1.53,1.53,0,0,1-.35-1.05Zm.48,0a1.24,1.24,0,0,0,.22.75.72.72,0,0,0,1.16,0,1.27,1.27,0,0,0,.22-.8,1.24,1.24,0,0,0-.22-.75.71.71,0,0,0-.58-.29.7.7,0,0,0-.58.28A1.35,1.35,0,0,0,87.77,44.18Zm4-1-.24,0a.63.63,0,0,0-.64.4v2h-.48V42.75h.47v.32a.74.74,0,0,1,.67-.38.56.56,0,0,1,.21,0Zm2.48-1.4,1.24,3.08,1.23-3.08h.65v3.78h-.5V44.08l0-1.59-1.25,3.07h-.38L94.09,42.5l0,1.58v1.48h-.49V41.78ZM100,45.56a1.1,1.1,0,0,1-.07-.3,1.09,1.09,0,0,1-.8.35,1,1,0,0,1-.68-.24.74.74,0,0,1-.27-.59.78.78,0,0,1,.33-.68,1.54,1.54,0,0,1,.94-.25h.47v-.22a.54.54,0,0,0-.15-.4.6.6,0,0,0-.44-.15.65.65,0,0,0-.43.13.38.38,0,0,0-.18.32h-.48a.67.67,0,0,1,.15-.41,1.05,1.05,0,0,1,.4-.31,1.31,1.31,0,0,1,.56-.12,1.15,1.15,0,0,1,.77.25.89.89,0,0,1,.28.67V44.9a1.46,1.46,0,0,0,.1.61v.05Zm-.8-.37a.85.85,0,0,0,.43-.12.76.76,0,0,0,.29-.3v-.58h-.38c-.58,0-.88.17-.88.52a.43.43,0,0,0,.15.35A.56.56,0,0,0,99.15,45.19Zm2.83-.34.66-2.1h.51L102,46c-.17.47-.45.7-.83.7h-.09l-.18,0v-.39h.13a.63.63,0,0,0,.38-.1.77.77,0,0,0,.22-.36l.11-.29-1-2.77h.52Zm5.35.71h-2.48v-.35l1.31-1.45a3,3,0,0,0,.4-.54,1,1,0,0,0,.11-.43.66.66,0,0,0-.18-.48.62.62,0,0,0-.48-.19.78.78,0,0,0-.56.2.8.8,0,0,0-.19.57h-.48a1.11,1.11,0,0,1,.33-.84,1.4,1.4,0,0,1,1.74,0,1,1,0,0,1,.3.74,2.15,2.15,0,0,1-.71,1.33l-1,1.09h1.9Zm2.87-1.62a2.24,2.24,0,0,1-.28,1.26,1.2,1.2,0,0,1-1.8,0,2.16,2.16,0,0,1-.3-1.2v-.64a2.16,2.16,0,0,1,.29-1.24,1.2,1.2,0,0,1,1.8,0,2,2,0,0,1,.29,1.2Zm-.48-.65a1.68,1.68,0,0,0-.17-.89.66.66,0,0,0-1.08,0,1.69,1.69,0,0,0-.17.85V44a1.73,1.73,0,0,0,.18.9.59.59,0,0,0,.54.3.58.58,0,0,0,.52-.28,1.61,1.61,0,0,0,.18-.87Zm3.58,2.27h-2.48v-.35l1.31-1.45a3,3,0,0,0,.4-.54,1,1,0,0,0,.11-.43.66.66,0,0,0-.18-.48.62.62,0,0,0-.48-.19.78.78,0,0,0-.56.2.8.8,0,0,0-.19.57h-.48a1.11,1.11,0,0,1,.33-.84,1.4,1.4,0,0,1,1.74,0,1,1,0,0,1,.3.74,2.15,2.15,0,0,1-.71,1.33l-1,1.09h1.9Zm2.88-1.62a2.23,2.23,0,0,1-.29,1.26,1.2,1.2,0,0,1-1.8,0,2.16,2.16,0,0,1-.3-1.2v-.64a2.16,2.16,0,0,1,.29-1.24,1.2,1.2,0,0,1,1.8,0,2.11,2.11,0,0,1,.3,1.2Zm-.49-.65a1.68,1.68,0,0,0-.17-.89.57.57,0,0,0-.54-.28.59.59,0,0,0-.54.28,1.69,1.69,0,0,0-.17.85V44a1.73,1.73,0,0,0,.18.9.59.59,0,0,0,.54.3.58.58,0,0,0,.52-.28,1.61,1.61,0,0,0,.18-.87Z" transform="translate(0)"/><circle class="cls-46" cx="99.18" cy="67.78" r="14.95"/><path class="cls-1" d="M113.14,79.08l-4-4.65a10.31,10.31,0,0,0,1.66-4l6,1A15,15,0,0,1,113.14,79.08Z" transform="translate(0)"/><path d="M77.08,99.36V95.58h1.23a1.45,1.45,0,0,1,.93.26.91.91,0,0,1,.31.75.78.78,0,0,1-.15.47.92.92,0,0,1-.41.31.91.91,0,0,1,.48.33.92.92,0,0,1,.18.57,1,1,0,0,1-.33.8,1.33,1.33,0,0,1-.93.29Zm.5-1.76V99h.82a.81.81,0,0,0,.55-.18.65.65,0,0,0,.2-.5c0-.46-.25-.68-.74-.68Zm0-.4h.75a.77.77,0,0,0,.52-.17.54.54,0,0,0,.2-.44.53.53,0,0,0-.18-.45.87.87,0,0,0-.56-.15h-.73Zm2.61.73a1.64,1.64,0,0,1,.16-.74,1.19,1.19,0,0,1,1.11-.69,1.17,1.17,0,0,1,.93.4A1.51,1.51,0,0,1,82.75,98v0a1.78,1.78,0,0,1-.16.74,1.23,1.23,0,0,1-1.12.69,1.22,1.22,0,0,1-.93-.4,1.57,1.57,0,0,1-.35-1Zm.48.06a1.17,1.17,0,0,0,.22.75.74.74,0,0,0,1.16,0,1.35,1.35,0,0,0,.21-.81,1.14,1.14,0,0,0-.22-.74.66.66,0,0,0-.58-.29.68.68,0,0,0-.57.28A1.28,1.28,0,0,0,80.67,98Zm2.55-.06a1.64,1.64,0,0,1,.16-.74,1.25,1.25,0,0,1,.45-.51,1.26,1.26,0,0,1,.66-.18,1.16,1.16,0,0,1,.93.4A1.51,1.51,0,0,1,85.78,98v0a1.78,1.78,0,0,1-.16.74,1.21,1.21,0,0,1-.45.5,1.25,1.25,0,0,1-.67.19,1.22,1.22,0,0,1-.93-.4,1.57,1.57,0,0,1-.35-1Zm.48.06a1.17,1.17,0,0,0,.22.75.74.74,0,0,0,1.16,0,1.35,1.35,0,0,0,.22-.81,1.21,1.21,0,0,0-.22-.74.73.73,0,0,0-1.16,0A1.35,1.35,0,0,0,83.7,98Zm3.46.07-.3.32v1h-.48v-4h.48v2.41l.26-.31.87-.93h.59l-1.09,1.18,1.22,1.63h-.57Zm3,1.36a1.24,1.24,0,0,1-.93-.38,1.38,1.38,0,0,1-.36-1V98a1.65,1.65,0,0,1,.16-.75,1.22,1.22,0,0,1,.44-.51,1.11,1.11,0,0,1,.63-.19,1.05,1.05,0,0,1,.85.36,1.59,1.59,0,0,1,.3,1v.2h-1.9a1,1,0,0,0,.24.67.76.76,0,0,0,.59.25.81.81,0,0,0,.43-.1,1,1,0,0,0,.31-.28l.3.23A1.2,1.2,0,0,1,90.19,99.42Zm-.06-2.52a.64.64,0,0,0-.49.21,1,1,0,0,0-.24.59h1.4v0a.92.92,0,0,0-.19-.57A.59.59,0,0,0,90.13,96.9Zm1.59,1a1.65,1.65,0,0,1,.31-1,1,1,0,0,1,1.58-.06V95.38h.48v4h-.44l0-.3a1,1,0,0,1-.8.36A1,1,0,0,1,92,99a1.72,1.72,0,0,1-.31-1Zm.48,0a1.26,1.26,0,0,0,.2.75A.63.63,0,0,0,93,99a.7.7,0,0,0,.66-.41V97.31a.69.69,0,0,0-.66-.4.65.65,0,0,0-.55.27A1.38,1.38,0,0,0,92.2,98Z" transform="translate(0)"/><circle class="cls-47" cx="73.93" cy="97.02" r="1.99"/><path d="M112,98.38h-1.58l-.36,1h-.51L111,95.58h.44l1.44,3.78h-.51ZM110.54,98h1.28l-.64-1.77Zm3.53.74.7-2.16h.49l-1,2.81h-.36l-1-2.81h.49Zm3.35.65a.71.71,0,0,1-.07-.29,1.09,1.09,0,0,1-.8.35,1,1,0,0,1-.68-.24.77.77,0,0,1-.27-.6.81.81,0,0,1,.33-.68,1.61,1.61,0,0,1,.94-.24h.47v-.22a.54.54,0,0,0-.15-.4.6.6,0,0,0-.44-.15.65.65,0,0,0-.43.13.38.38,0,0,0-.18.31h-.48a.64.64,0,0,1,.15-.4,1,1,0,0,1,.4-.31,1.31,1.31,0,0,1,.56-.12,1.1,1.1,0,0,1,.77.25.88.88,0,0,1,.28.66v1.3a1.49,1.49,0,0,0,.1.61v0Zm-.8-.36a.85.85,0,0,0,.43-.12.76.76,0,0,0,.29-.3V98H117c-.58,0-.88.17-.88.52a.43.43,0,0,0,.15.35A.61.61,0,0,0,116.62,99Zm2.48.36h-.49V96.55h.49Zm-.52-3.55a.29.29,0,0,1,.07-.2.26.26,0,0,1,.21-.08.26.26,0,0,1,.28.28.25.25,0,0,1-.07.19.25.25,0,0,1-.21.08.23.23,0,0,1-.21-.08A.25.25,0,0,1,118.58,95.81Zm1.81,3.55h-.48v-4h.48Zm2.5,0a.92.92,0,0,1-.07-.29,1.07,1.07,0,0,1-.79.35,1,1,0,0,1-.69-.24.79.79,0,0,1-.26-.6.81.81,0,0,1,.33-.68,1.59,1.59,0,0,1,.94-.24h.47v-.22a.54.54,0,0,0-.15-.4.61.61,0,0,0-.45-.15.69.69,0,0,0-.43.13.4.4,0,0,0-.17.31h-.48a.63.63,0,0,1,.14-.4,1,1,0,0,1,.41-.31,1.31,1.31,0,0,1,.56-.12,1.07,1.07,0,0,1,.76.25.89.89,0,0,1,.29.66v1.3a1.49,1.49,0,0,0,.1.61v0ZM122.1,99a.79.79,0,0,0,.42-.12.72.72,0,0,0,.3-.3V98h-.38c-.59,0-.88.17-.88.52a.43.43,0,0,0,.15.35A.61.61,0,0,0,122.1,99Zm4.33-1a1.69,1.69,0,0,1-.3,1,.94.94,0,0,1-.79.39,1,1,0,0,1-.83-.38l0,.32h-.44v-4h.48v1.48a1.05,1.05,0,0,1,1.61,0,1.76,1.76,0,0,1,.29,1.06Zm-.48,0a1.28,1.28,0,0,0-.19-.76.63.63,0,0,0-.55-.27.71.71,0,0,0-.68.44v1.22a.74.74,0,0,0,.69.44.63.63,0,0,0,.54-.27A1.45,1.45,0,0,0,126,97.94Zm1.61,1.42h-.48v-4h.48Zm1.93.06a1.24,1.24,0,0,1-.93-.38,1.42,1.42,0,0,1-.35-1V98a1.65,1.65,0,0,1,.16-.75,1.16,1.16,0,0,1,.44-.51,1.16,1.16,0,0,1,1.48.17,1.59,1.59,0,0,1,.3,1v.2h-1.9a1,1,0,0,0,.24.67.75.75,0,0,0,.59.25.83.83,0,0,0,.43-.1,1,1,0,0,0,.31-.28l.29.23A1.19,1.19,0,0,1,129.49,99.42Zm-.06-2.52a.63.63,0,0,0-.48.21,1,1,0,0,0-.25.59h1.41v0a.87.87,0,0,0-.2-.57A.59.59,0,0,0,129.43,96.9Z" transform="translate(0)"/><circle class="cls-1" cx="106.49" cy="97.02" r="1.99"/><line class="cls-48" x1="173.28" y1="31.23" x2="173.28" y2="87.72"/><line class="cls-48" x1="171.62" y1="87.39" x2="297.88" y2="87.39"/><line class="cls-48" x1="170.29" y1="77.42" x2="297.88" y2="77.42"/><line class="cls-48" x1="170.29" y1="62.8" x2="297.88" y2="62.8"/><line class="cls-48" x1="170.29" y1="48.18" x2="297.88" y2="48.18"/><line class="cls-48" x1="170.29" y1="70.77" x2="297.88" y2="70.77"/><line class="cls-48" x1="170.29" y1="56.15" x2="297.88" y2="56.15"/><line class="cls-48" x1="170.29" y1="41.53" x2="297.88" y2="41.53"/><line class="cls-48" x1="170.29" y1="34.22" x2="297.88" y2="34.22"/><rect class="cls-45" x="215.48" y="92.37" width="33.23" height="5.32" rx="0.92"/><rect class="cls-45" x="257.34" y="92.37" width="33.23" height="5.32" rx="0.92"/><path d="M174,93.59l1.24,3.08,1.23-3.08h.65v3.78h-.5V95.9l0-1.59-1.24,3.06h-.39l-1.23-3.05,0,1.58v1.47h-.5V93.59Zm5.66,3.78a1,1,0,0,1-.07-.3,1,1,0,0,1-.8.35,1,1,0,0,1-.68-.23.77.77,0,0,1-.27-.6.78.78,0,0,1,.34-.68,1.57,1.57,0,0,1,.94-.24h.46v-.22a.52.52,0,0,0-.15-.4.6.6,0,0,0-.44-.15.67.67,0,0,0-.43.13.37.37,0,0,0-.18.31h-.48a.67.67,0,0,1,.15-.41,1.05,1.05,0,0,1,.4-.31,1.48,1.48,0,0,1,.57-.11,1.14,1.14,0,0,1,.76.24.87.87,0,0,1,.28.67v1.29a1.51,1.51,0,0,0,.1.62v0Zm-.8-.37a1,1,0,0,0,.43-.11.72.72,0,0,0,.29-.31V96h-.37c-.59,0-.89.17-.89.51a.46.46,0,0,0,.15.36A.61.61,0,0,0,178.89,97Zm2.83-.33.66-2.11h.51l-1.13,3.24c-.17.47-.45.7-.83.7h-.09l-.18,0v-.39h.13a.61.61,0,0,0,.38-.1.67.67,0,0,0,.22-.36l.11-.28-1-2.78H181Zm5.24-.91a2.12,2.12,0,0,1-.29,1.25,1,1,0,0,1-.9.41,1,1,0,0,1-.89-.4,2.07,2.07,0,0,1-.31-1.2v-.64a2.18,2.18,0,0,1,.29-1.24,1.22,1.22,0,0,1,1.8,0,2,2,0,0,1,.3,1.2Zm-.48-.66a1.81,1.81,0,0,0-.17-.89.6.6,0,0,0-.54-.28.59.59,0,0,0-.54.28,1.82,1.82,0,0,0-.18.85v.77a1.8,1.8,0,0,0,.18.91.6.6,0,0,0,.54.29.58.58,0,0,0,.53-.28,1.7,1.7,0,0,0,.18-.86Zm3.57,2.27h-2.47V97l1.3-1.45a2.89,2.89,0,0,0,.4-.53.88.88,0,0,0,.12-.43.69.69,0,0,0-.18-.49.66.66,0,0,0-.48-.19.73.73,0,0,0-.56.21.77.77,0,0,0-.2.56h-.48a1.13,1.13,0,0,1,.34-.84,1.25,1.25,0,0,1,.9-.32,1.16,1.16,0,0,1,.83.28.9.9,0,0,1,.31.73,2.18,2.18,0,0,1-.71,1.33l-1,1.1h1.9Zm4.31,0h-2.48V97l1.31-1.45a4.28,4.28,0,0,0,.4-.53,1,1,0,0,0,.11-.43.69.69,0,0,0-.18-.49.66.66,0,0,0-.48-.19.71.71,0,0,0-.55.21.73.73,0,0,0-.2.56h-.48a1.12,1.12,0,0,1,.33-.84,1.29,1.29,0,0,1,.9-.32,1.2,1.2,0,0,1,.84.28.93.93,0,0,1,.3.73,2.13,2.13,0,0,1-.71,1.33l-1,1.1h1.9Zm2.88-1.61A2.2,2.2,0,0,1,197,97a1.2,1.2,0,0,1-1.8,0,2.16,2.16,0,0,1-.3-1.2v-.64a2.18,2.18,0,0,1,.29-1.24,1,1,0,0,1,.9-.4,1,1,0,0,1,.9.39,2.11,2.11,0,0,1,.3,1.2Zm-.48-.66a1.69,1.69,0,0,0-.18-.89.59.59,0,0,0-.54-.28.6.6,0,0,0-.54.28,1.72,1.72,0,0,0-.17.85v.77a1.8,1.8,0,0,0,.18.91.6.6,0,0,0,.54.29.56.56,0,0,0,.52-.28,1.68,1.68,0,0,0,.19-.86Zm3.57,2.27h-2.48V97l1.31-1.45a3.45,3.45,0,0,0,.4-.53,1,1,0,0,0,.11-.43.69.69,0,0,0-.18-.49.66.66,0,0,0-.48-.19.71.71,0,0,0-.55.21.73.73,0,0,0-.2.56h-.48a1.12,1.12,0,0,1,.33-.84,1.29,1.29,0,0,1,.9-.32,1.2,1.2,0,0,1,.84.28.93.93,0,0,1,.3.73,2.13,2.13,0,0,1-.71,1.33l-1,1.1h1.9Zm2.88-1.61a2.2,2.2,0,0,1-.29,1.25,1.2,1.2,0,0,1-1.8,0,2.16,2.16,0,0,1-.3-1.2v-.64a2.18,2.18,0,0,1,.29-1.24,1,1,0,0,1,.9-.4,1,1,0,0,1,.9.39,2.11,2.11,0,0,1,.3,1.2Zm-.48-.66a1.69,1.69,0,0,0-.18-.89.59.59,0,0,0-.54-.28.61.61,0,0,0-.54.28,1.72,1.72,0,0,0-.17.85v.77a1.8,1.8,0,0,0,.18.91A.6.6,0,0,0,202,97a.56.56,0,0,0,.52-.28,1.68,1.68,0,0,0,.19-.86Z" transform="translate(0)"/><path class="cls-49" d="M189.56,87.39c0-5.32,2.12-16,10.63-16s12-9.75,12.63-14.62c1-7.65-.34-13.63,14.61-12.63,12.3.82,16.29,23.26,21.6,27.25C254.35,75,264.85,77,264.32,56.82s9.74-23.48,14.95-22.6" transform="translate(0)"/><circle class="cls-47" cx="204.18" cy="70.44" r="1.33"/><circle class="cls-47" cx="222.12" cy="43.86" r="1.33"/><circle class="cls-47" cx="254.68" cy="73.76" r="1.33"/><circle class="cls-47" cx="280.6" cy="34.56" r="1.33"/><circle class="cls-47" cx="264.65" cy="63.13" r="1.33"/><circle class="cls-47" cx="244.05" cy="63.13" r="1.33"/><circle class="cls-47" cx="211.49" cy="63.13" r="1.33"/><circle class="cls-47" cx="189.56" cy="87.05" r="1.33"/><path class="cls-50" d="M219.35,120c-1.06,0-2.66.53-3.12,1.66-.2.54.13.67.53.34.73-.73,1.53-.93.33,0-.26.2-.66.73-.46.93.33.4,1.06-.4,1.46-.73.4-.07-.33.79-.4,1-.13,1.07,1.33-.53,1.53-.46.4.13-.73,1.06-.07,1.06s1.26-1.26,1.66-1.46.67-.07.73-.53C221.61,120.88,219.82,120,219.35,120Z" transform="translate(0)"/><path class="cls-50" d="M231,166.26a25.88,25.88,0,0,1-1.8,2.73c-.59.73-.06,1.13-.06,1.13l1.26-.47,1.4-1.33,1.72-1.52Z" transform="translate(0)"/><path class="cls-50" d="M237.29,110.84a31.15,31.15,0,0,1-3.79,6.25,8.91,8.91,0,0,1-3.65,2.92c-.07,0-.13.07-.2.07a52.06,52.06,0,0,1-9.3,1.93,8.76,8.76,0,0,0-1-1.73c.33,0,6.18-4.45,7.64-4.92.47-.13,7.64-15.35,8.31-15.81.86-.6,1.86-1,2.59-.47C240.35,100.87,239.68,105.86,237.29,110.84Z" transform="translate(0)"/><path class="cls-50" d="M249.52,164.34l-2.39.86s-1.26-2.52-2.33-4.58S236.36,148,236.36,148c-2.19-4.59,2.73-11.56,2.73-11.56l6.11,3a44.94,44.94,0,0,0-2,4.05,7.47,7.47,0,0,0,.53,1,21.09,21.09,0,0,1,2.26,6.31c.26,1.66,1.73,6.91,2.66,10.37C249.12,163,249.52,164.34,249.52,164.34Z" transform="translate(0)"/><path class="cls-50" d="M238.35,137.09s-.26,7.18-.53,8.91a2.73,2.73,0,0,0-.06.73v.06c-.14,1.53-1.47,6.18-3.72,16.68,0,.14-.07.2-.07.27a25.65,25.65,0,0,0-.47,3.45l-2.52-.93s.2-2.32.26-4.65-1-15.15-1-15.15c.4-5.05,4.32-15,4.32-15Z" transform="translate(0)"/><path class="cls-51" d="M245.93,150.78a19.32,19.32,0,0,0-2.26-6.31,2.7,2.7,0,0,0-1.06,0,.37.37,0,0,0-.53.2.28.28,0,0,0,.07.33,35,35,0,0,0,2.79,7.24,43.9,43.9,0,0,1,3,8.71.34.34,0,0,0,.53.2C247.66,157.69,246.26,152.44,245.93,150.78Z" transform="translate(0)"/><path class="cls-51" d="M234.37,146c-.27-.07-.4.26-.33.46s.13.53.2.86c-.47-.39-1-.86-1.53-1.26-.33-.26-.73.27-.4.53a9.23,9.23,0,0,1,2.12,1.8c.67,4.78-1.46,9.63-.79,14.49,0,.19.13.86.26.92s.07-.19.07-.26c2.26-10.5,3.65-15.15,3.72-16.68A8.38,8.38,0,0,0,234.37,146Z" transform="translate(0)"/><path class="cls-52" d="M250.91,145.33a27.16,27.16,0,0,1-3.52,1.53c-4.32,1.6-12.56,4.12-19.34,1.66-.59-1.66-.59-4.45-.59-11.3,0-8.83,3.85-21.73,7.17-25.31,3.66-4,13,3.92,13,3.92a8.66,8.66,0,0,1,2.66,2.85,11.38,11.38,0,0,1,1.6,6C251.85,130.05,247.06,133.9,250.91,145.33Z" transform="translate(0)"/><path class="cls-53" d="M251.85,124.8c.26-3.92-2.53-7.84-3.39-9.31-.87.2-3.72,1.2-3.52,1.4,4.91,5,2.65,13.82,1.19,18.61a12.94,12.94,0,0,0-.46,6.57,23.38,23.38,0,0,0,1.26,3.73c.13.33.27.73.46,1.13a27.8,27.8,0,0,0,3.53-1.53C247.06,133.9,251.45,130,251.85,124.8Z" transform="translate(0)"/><path class="cls-52" d="M248.32,114.17a6.48,6.48,0,0,1-.53-2.33,21.56,21.56,0,0,1,0-3.52c.07-.4.07-.73.14-.93v-.07c.79-4,2.52-8.77-2.13-10.23a8.36,8.36,0,0,0-2.06-.4,20.38,20.38,0,0,0-2.93,0A22.7,22.7,0,0,0,237.76,98c-.53.26-1.13.6-1.73.93a5.15,5.15,0,0,0-2,4.58c.06,1,1.46,3.72,1.39,4.26a43.19,43.19,0,0,1-1.13,5C233.51,114.76,248.92,115.56,248.32,114.17Z" transform="translate(0)"/><path class="cls-53" d="M237.89,107.79c1.46,1.13,3.59,1.13,5.25,1.79s3.06,2,4.65,2.33a21.69,21.69,0,0,1,0-3.53.06.06,0,0,0-.06-.06c.06-.27.06-.53.13-.87v-.06a6.57,6.57,0,0,0-1.46-1.86c-1.93-1.8-1.73-6.32-1.73-6.32-.47,2.26-.2,5.65.53,7.05a11.6,11.6,0,0,0,1.53,2.19v.07c.06.73-4.45-.8-5-.93a10.9,10.9,0,0,0-3.65-.4A.33.33,0,0,0,237.89,107.79Z" transform="translate(0)"/><path class="cls-50" d="M238.89,95.36v1.86s-.54.93,0,1c1.13.2,2.72-1.53,2.72-1.53V94.16Z" transform="translate(0)"/><path class="cls-50" d="M241.61,95.82V94.36a5.32,5.32,0,0,1-2.72,1.4A2.9,2.9,0,0,0,241.61,95.82Z" transform="translate(0)"/><path class="cls-50" d="M238.36,89.91a14.78,14.78,0,0,0-1.27,3.92c-.2,1.33,2.26,3.12,4.26,1.2a5.73,5.73,0,0,0,1.46-4.79Z" transform="translate(0)"/><path class="cls-3" d="M233.7,165.13a2.05,2.05,0,0,1,.54,1.73,9.88,9.88,0,0,0-3.53,4.12c-.26.6-2.12.2-2.85.27,0,0-.74-.27-.2-1.13.2-.33,1.19-.73,1.46-1.07C229.52,170,231.38,168.46,233.7,165.13Z" transform="translate(0)"/><path class="cls-3" d="M234.3,166.86l-.2,4.06h-.73l-.2-3.79Z" transform="translate(0)"/><path class="cls-50" d="M247.06,165.2a26,26,0,0,1,0,3.26c-.13.93.6,1,.6,1l.8-1.13.39-1.86.6-2.19Z" transform="translate(0)"/><path class="cls-3" d="M249.05,162.88s.54-.14,1.13.92a9.49,9.49,0,0,0-.66,5.32c.13.67-1.66,1.4-2.19,1.8,0,0-.73.2-.8-.8a15.79,15.79,0,0,1,.6-1.66C248,169.05,248.85,166.93,249.05,162.88Z" transform="translate(0)"/><path class="cls-3" d="M250.18,163.8l2.06,3.46-.53.4-2.26-3Z" transform="translate(0)"/><path class="cls-50" d="M254.7,104.33c.14-.33-6.91-7.31-9.63-6.31-1.67.66-1,3.79-.6,5.18.93,3,8.37,9.5,8.11,9.77a9,9,0,0,1-2.26.8,51.35,51.35,0,0,1-5.19.53c-3,.13-5.78.13-5.91.2s.8,2.06.86,2.26a14.46,14.46,0,0,0,1.93.66c3.06.93,9.77,1.46,14.15-.13C260.15,115.76,258.36,108.25,254.7,104.33Z" transform="translate(0)"/><path class="cls-51" d="M253.51,114.23c2.32-1.59-.87-3.26-2.13-4.78-1.46-.53-2.79-1.33-3.06-1.13,1.33,1.39,4.32,4.58,4.32,4.58a8.49,8.49,0,0,1-2.26.8,48.13,48.13,0,0,1-5.18.53C245,114.43,251.38,115.69,253.51,114.23Z" transform="translate(0)"/><path class="cls-50" d="M238.75,114.23a3.59,3.59,0,0,0-3.45.8c-.33.46-.07.73.4.46.93-.46,1.66-.53.26.14-.26.13-.79.53-.73.73.2.46,1.13-.14,1.6-.33.4,0-.53.66-.67.86-.4,1,1.46-.2,1.6-.07.4.27-1,.87-.33,1s1.52-.93,1.92-1.06.67.06.87-.34C240.75,115.63,239.22,114.36,238.75,114.23Z" transform="translate(0)"/><path class="cls-50" d="M239.15,114.5c-.33-.27-1.06-1-1.46-1.07s-.53.07-.33.34a1,1,0,0,0,.53.4c.13.06.33.19.46.26A4,4,0,0,0,239.15,114.5Z" transform="translate(0)"/><path class="cls-54" d="M245.27,88.58a3.84,3.84,0,0,0-2.13-2.06c-.8-.4-1.93-.8-2.66-.07a1.37,1.37,0,0,0-.07,1.93c-3.65-.2-4.12,1.93-4.12,3.86,0,.33,2.33-2.13,4-1.13.93.53,1.07,1.06,1.26,2.12.07.27-.06.73.07,1.07.47,1,1.53,0,2.06-.6a2.92,2.92,0,0,0,.53-2.93h.07A1.67,1.67,0,0,0,245.27,88.58Z" transform="translate(0)"/><path class="cls-12" d="M244.14,90.31c-.6-.33-1-.93-1.6-1.26a7.91,7.91,0,0,1-1.73-1c-.26-.33-.73.13-.46.46a4.07,4.07,0,0,0,1.66,1c.67.33,1.13,1,1.79,1.33A.32.32,0,1,0,244.14,90.31Z" transform="translate(0)"/><path class="cls-55" d="M215,138l8.31-6.91a2,2,0,0,0,.27-2.79l-10.7-12.89a1.94,1.94,0,0,0-2.79-.27l-8.31,6.91a2,2,0,0,0-.27,2.79l10.7,12.9A1.93,1.93,0,0,0,215,138Z" transform="translate(0)"/><path class="cls-55" d="M203.93,120.21a2.5,2.5,0,0,0,3.86-3.19,2.5,2.5,0,0,0-3.86,3.19Zm.67-.6a1.57,1.57,0,0,1,.2-2.25,1.65,1.65,0,0,1,2.26.19,1.6,1.6,0,0,1-.2,2.26A1.57,1.57,0,0,1,204.6,119.61Z" transform="translate(0)"/><path class="cls-56" d="M214.77,136.49l7-5.78a1.69,1.69,0,0,0,.2-2.39l-9.57-11.56a1.69,1.69,0,0,0-2.39-.2l-7,5.78a1.69,1.69,0,0,0-.2,2.39l9.57,11.56A1.83,1.83,0,0,0,214.77,136.49Z" transform="translate(0)"/><path class="cls-55" d="M206.13,122.07l3.05-2.52a.7.7,0,0,0,.07-1.07l-.73-.86-4.25,3.52.73.87A.9.9,0,0,0,206.13,122.07Z" transform="translate(0)"/><path class="cls-57" d="M204.66,125.6a.51.51,0,0,0,.34-.14l7.51-6.25a.57.57,0,0,0-.74-.86l-7.51,6.25a.55.55,0,0,0-.06.8A.6.6,0,0,0,204.66,125.6Z" transform="translate(0)"/><path class="cls-57" d="M205.73,126.86a.5.5,0,0,0,.33-.14l7.51-6.24a.57.57,0,0,0-.73-.87l-7.51,6.25a.54.54,0,0,0-.07.8A.72.72,0,0,0,205.73,126.86Z" transform="translate(0)"/><path class="cls-57" d="M207.85,129.45a.56.56,0,0,0,.34-.13l7.51-6.25a.57.57,0,0,0-.74-.86l-7.5,6.24a.54.54,0,0,0-.07.8A.91.91,0,0,0,207.85,129.45Z" transform="translate(0)"/><path class="cls-57" d="M209,130.78a.56.56,0,0,0,.34-.13l7.5-6.25a.54.54,0,0,0,.07-.8.53.53,0,0,0-.8-.06l-7.51,6.24a.55.55,0,0,0-.06.8A.6.6,0,0,0,209,130.78Z" transform="translate(0)"/><path class="cls-57" d="M210.05,132a.55.55,0,0,0,.33-.13l7.51-6.25a.56.56,0,0,0,.07-.8.55.55,0,0,0-.8-.06L209.65,131a.54.54,0,0,0-.07.8A.62.62,0,0,0,210.05,132Z" transform="translate(0)"/><path class="cls-57" d="M213.24,136a.5.5,0,0,0,.33-.13l7.51-6.25a.55.55,0,0,0,.06-.8.54.54,0,0,0-.79-.06L212.84,135a.54.54,0,0,0-.07.8A1.28,1.28,0,0,0,213.24,136Z" transform="translate(0)"/><path class="cls-50" d="M221.14,121.28a1.64,1.64,0,0,1-.93.33,3,3,0,0,1-.33-.07c.33,0,.53-.6.13-.66a2.55,2.55,0,0,0-1.86.2,2,2,0,0,0-.8,1.66c0,.33.47.46.6.2s.4-.73.73-.87.8.14,1.2.2a5.72,5.72,0,0,0,2.59-.46C222.87,121.54,221.54,121.08,221.14,121.28Z" transform="translate(0)"/><path class="cls-50" d="M33.57,162.07c-.33-.33-3.26.33-3.26.53,0,.53.07,2.66.4,2.93s3.26-.14,3.26-.67S33.9,162.4,33.57,162.07Z" transform="translate(0)"/><path class="cls-3" d="M30.45,164.86s-1.13,2.13.06,3.52a85.82,85.82,0,0,0,9.31-1.12s-.27-2.66-2.13-2.66a30.8,30.8,0,0,0-3.72.26S32,166.19,30.45,164.86Z" transform="translate(0)"/><path class="cls-50" d="M14.43,162.2c-.2-.39-3.12-.86-3.19-.73-.2.54-.86,2.53-.66,2.86s3.05,1.06,3.25.6S14.63,162.6,14.43,162.2Z" transform="translate(0)"/><path class="cls-3" d="M10.51,163.67S8.65,165.2,9.25,167c0,0,6.84,2.13,9,2.33,0,0,.74-2.53-1-3.26A27.32,27.32,0,0,0,13.7,165S11.44,165.39,10.51,163.67Z" transform="translate(0)"/><path class="cls-52" d="M20.88,124.79c.2.47.46,1,.73,1.53,1.66,3.66,3.72,7.91,4.05,10.17,3.86,4.38,3.46,13.42,3.72,18.4.2,4.06.47,8.51.6,8.91l4.25.4c1-5.38,3.13-22.6,3.13-26.32S33.9,118.94,31.24,114c-2.52-4.66-10.9,4.65-11.89,5.84C19,120.4,19.75,122.33,20.88,124.79Z" transform="translate(0)"/><path class="cls-53" d="M20.88,124.79c.2.47.46,1,.73,1.53a101.35,101.35,0,0,1,4.05,10.17C28,144.26,28.85,159,30,163.8a5.33,5.33,0,0,0,2.86.27c.06-3.59-2.13-7.91-2.73-11.37-1.19-6.64.67-13.89-2.52-20.13-.93-1.73-2.33-3.53-2.33-5.59,0-1,.6-2.19-.06-3.19-1.13-1.66-3-.39-3.86.87-.13-.07-.2-.07-.33.06A.2.2,0,0,1,20.88,124.79Z" transform="translate(0)"/><path class="cls-52" d="M10.51,162.2c1.06,1.2,4,1.87,4,1.87,2.59-5.65,5.18-16.75,5.58-23.13.6-10,2.32-19.67,2.26-22.26V118c-2.59-2.79-5.72-4.32-7.58-4.45-.73-.07-1.26.13-1.46.53a27,27,0,0,0-1.59,3.59c-.07.13-.07.2-.14.33-2.46,6.91-1.72,10.64-1.26,19.61C10.44,141.74,12,159.81,10.51,162.2Z" transform="translate(0)"/><path class="cls-53" d="M10.51,162.2a5.6,5.6,0,0,0,2.66,1.47c.8-3.59.86-6.38,1.39-10s0-7.17-.33-10.7c-.2-2.06-.46-4.12-.86-6.18a59.13,59.13,0,0,1-1.2-6A25.28,25.28,0,0,1,14,119.21c.06-.13,0-.2,0-.27a.32.32,0,0,0-.07-.53,4.58,4.58,0,0,0-2.39-.46c-2.46,6.91-1.73,10.63-1.27,19.6.2,4.25,1,10.83,1,15.48C11.31,160.81,10.71,161.74,10.51,162.2Z" transform="translate(0)"/><path class="cls-50" d="M48.19,96.15a.35.35,0,0,0-.33-.27.9.9,0,0,0,.2-.66c-.07-.33-.27-.33-.54-.33h-.13v-.07c0-.07-.13-.13-.2-.13a2,2,0,0,0-1.26.33c-1.13.6-2.86-.6-3-.46a4.41,4.41,0,0,0-.67,4,5.2,5.2,0,0,0,1.86.73c0-.2.27-1.06.14-1.4,1.19.2,2.52.07,2.59-.59C47.72,97.15,48.39,96.81,48.19,96.15Z" transform="translate(0)"/><path class="cls-12" d="M26.92,99.27A13.74,13.74,0,0,0,27,101.4c.4,2.92,2.26,7.78,10.1,8.31,6.71.46,7.64-10.44,7.64-10.44-.59-.66-3.12-1.13-3.12-1.13-.86,2.33-3.19,5.52-4.19,5S30.58,91.43,27,89.77C24.8,88.64,26.92,99.27,26.92,99.27Z" transform="translate(0)"/><path class="cls-58" d="M32.37,115.16c-.06.33-8.17,2.92-10.7,3.32-2.72.4-6-.13-8.3-.27-1.8-.06-3.06-.33-3.26-.66-.33-.73.4-7.44.2-12.3,0-.79-.07-1.59-.07-2.39-.06-5.11.27-10,1.47-10.9a7.58,7.58,0,0,1,.86-.59,16.53,16.53,0,0,1,1.66-1A16.18,16.18,0,0,1,17.69,89a15,15,0,0,1,6.91-.13,13.07,13.07,0,0,1,1.93.59c.13.07.33.14.46.2,2.19.87,1.86,5.65,1.53,9.57-.13,1.86-.33,3.52-.27,4.59a5.5,5.5,0,0,0,.14,1.06C29,107.78,32,113,32.37,115.16Z" transform="translate(0)"/><path class="cls-59" d="M20.08,88.51l-.33.06L20.81,91l2-1.46,1.86,1.13L23.4,88.64a3,3,0,0,0-1.2-.07c-.33.14-.19.8-.19.8Z" transform="translate(0)"/><path class="cls-50" d="M22.8,86.38v2.13s.53.93,0,1c-1.13.2-2.72-1-2.72-1V85.25Z" transform="translate(0)"/><path class="cls-60" d="M20.08,87.44V86.38a4.88,4.88,0,0,0,2.52,1.06A2.48,2.48,0,0,1,20.08,87.44Z" transform="translate(0)"/><path class="cls-50" d="M24,81.86A15.47,15.47,0,0,1,24.27,86c-.14,1.33-2.93,2.46-4.46.2a5.72,5.72,0,0,1-.26-5Z" transform="translate(0)"/><path class="cls-54" d="M23.73,79.4a2.38,2.38,0,0,0-1,.34,6.91,6.91,0,0,1-1.66.26,2.66,2.66,0,0,0-2,.6,3.89,3.89,0,0,0-.6,4.05.58.58,0,0,0,.34.6A.81.81,0,0,0,20,84.92c.33-.6.13-1.4.19-2.06v-.53c1.73.33,4,.6,5.19-.6S25.2,79.34,23.73,79.4Z" transform="translate(0)"/><path class="cls-59" d="M19.81,88.57l.33-.46A4.11,4.11,0,0,0,21,89a1.06,1.06,0,0,1,.46.8Z" transform="translate(0)"/><path class="cls-61" d="M22.8,89.57l-.86.67.73.79.8-.06.26-.8Z" transform="translate(0)"/><path class="cls-12" d="M17.75,89S16.56,117,19,120.27c0,0-7.38-.13-9.71-1.19,0,0,1.6-26.72,3.26-27.71S16.29,89.11,17.75,89Z" transform="translate(0)"/><path class="cls-61" d="M23.47,91a22.25,22.25,0,0,1,1.46,10.1l-1.46,1.53-1.13-1.27s1.06-6.84.33-10.3Z" transform="translate(0)"/><path class="cls-54" d="M19.22,84.92c0-.07-.07-.07-.07-.13-.27-.34.26-.73.53-.4a2.84,2.84,0,0,0,1.26.86,1.34,1.34,0,0,0,1.47-.4c.13-.13.39-.06.53.07.4.47,1.59-.2,1.72.53a1.88,1.88,0,0,1-1.26,1.8c-1.93.59-3.32-.67-4.38-1.8C18.75,85.25,19,85,19.22,84.92Z" transform="translate(0)"/><path class="cls-61" d="M27.92,90.17A7.18,7.18,0,0,1,30.11,96c-.2,8.17.87,11.9.87,11.9l-3.13-1.67-.93-7Z" transform="translate(0)"/><path class="cls-12" d="M25.33,89s1.39,9.5,1.26,12.89S30,117.55,30,117.55l2.92-1.2s-2.46-8.57-3.25-11,0-13.76-1.8-15.15S25.33,89,25.33,89Z" transform="translate(0)"/><path class="cls-61" d="M13.5,93.69c-1.39,1.8-1.59,6.45-2.79,8.38-.13.26-.27.46-.4.73,0,.79,0,1.59.07,2.39.13,4.92-1.4,13.09-1,13.82.2.33,2.39.8,4.12.86.33-.59.07-2.92,0-3.58-.13-1.2-.2-2.4-.33-3.66a26.92,26.92,0,0,1,.07-7.71c.53-2.66,1.79-4.72,2.32-7.37a5.52,5.52,0,0,0-1.13-5C14.63,92.23,13.77,93.36,13.5,93.69Z" transform="translate(0)"/><path class="cls-50" d="M23.6,111.5c.27.33.53.13.87.2s1.59,1,2.06.73c.66-.26-.8-.66-.47-1,.13-.13,2.13.8,1.6-.13-.14-.2-1.2-.73-.74-.8.47.14,1.47.6,1.67.14.06-.2-.54-.53-.8-.67-1.46-.46-.67-.53.26-.13.54.2.74-.07.34-.53-.87-.87-2.53-.73-3.53-.33C24.4,109.24,23.07,110.7,23.6,111.5Z" transform="translate(0)"/><path class="cls-50" d="M25.26,109.24c.14-.06.27-.26.47-.33a1,1,0,0,0,.46-.47c.14-.33-.2-.33-.4-.26a4.78,4.78,0,0,0-1.32,1.26C24.4,109.44,25.13,109.31,25.26,109.24Z" transform="translate(0)"/><path class="cls-12" d="M1.67,115.16c3.06,4.91,22.79-3.46,22.79-3.46l-.39-2c-.2-.07-15.29,1.92-15.35.33,0-.73,5.44-9.5,6.24-12.83A7.33,7.33,0,0,0,14.63,93c-.6-1.53-2.39-1.79-3.85-1-3,1.6-6.58,5.45-8.71,9.64C-.19,106.25-1,110.9,1.67,115.16Z" transform="translate(0)"/><path class="cls-62" d="M48.14,157.23H61.78v.25H48.14Z" transform="translate(0)"/><path class="cls-62" d="M48.14,156.74H61.78V157H48.14Z" transform="translate(0)"/><path class="cls-62" d="M48.14,156.26H61.78v.24H48.14Z" transform="translate(0)"/><path class="cls-62" d="M48.14,155.83H61.78v.24H48.14Z" transform="translate(0)"/><path class="cls-62" d="M48.14,155.34H61.78v.25H48.14Z" transform="translate(0)"/><path class="cls-62" d="M48.14,154.86H61.78v.24H48.14Z" transform="translate(0)"/><path class="cls-62" d="M48.14,154.37H61.78v.24H48.14Z" transform="translate(0)"/><path class="cls-62" d="M48.14,153.94H61.78v.25H48.14Z" transform="translate(0)"/><path class="cls-62" d="M48.14,153.46H61.78v.24H48.14Z" transform="translate(0)"/><path class="cls-62" d="M48.14,153H61.78v.24H48.14Z" transform="translate(0)"/><path class="cls-62" d="M48.14,152.54H61.78v.25H48.14Z" transform="translate(0)"/><path class="cls-62" d="M48.14,152.05H61.78v.25H48.14Z" transform="translate(0)"/><path class="cls-62" d="M61.17,151.57s1,.06,1.65,2.25c0,0-3.78-2.13-5.42-2.25Z" transform="translate(0)"/><path class="cls-62" d="M48.93,151.81A1.77,1.77,0,0,0,47,153.15s3.35-1.09,4.69-1.34Z" transform="translate(0)"/><path class="cls-5" d="M48.87,152h16.2V168.2H48.87Z" transform="translate(0)"/><path class="cls-63" d="M44.24,152h4.81V168.2H44.24Z" transform="translate(0)"/><path class="cls-63" d="M44.3,152h4.75l-2.37-4.81H41.87Z" transform="translate(0)"/><path class="cls-5" d="M65.07,152H60.26l2.37-4.81h4.82Z" transform="translate(0)"/><path class="cls-20" d="M45.15,154h2.93v1.53H45.15Z" transform="translate(0)"/></svg>