<svg id="Layer_1" data-name="Layer 1" xmlns="http://www.w3.org/2000/svg" viewBox="0 0 869.09 321.3"><defs><style>.cls-1,.cls-24,.cls-6{fill:#fff;}.cls-1,.cls-6{stroke:#e6e6e6;}.cls-1{stroke-width:0.54px;}.cls-2{fill:#777;}.cls-3,.cls-7{fill:none;stroke:#f4f4f4;}.cls-3{stroke-width:0.63px;}.cls-4{fill:#373737;}.cls-5{fill:#c4c4c4;}.cls-6{stroke-width:0.86px;}.cls-8{fill:#87d2fd;}.cls-23,.cls-24,.cls-8{fill-rule:evenodd;}.cls-9{fill:#ffc1c5;}.cls-10{fill:#252525;}.cls-11{fill:#f8b5ba;}.cls-12{fill:#acdcff;}.cls-13{fill:#96caf0;}.cls-14{fill:#441fd8;}.cls-15{fill:#32187c;}.cls-16{fill:#1f0d52;}.cls-17{fill:#ffaea7;}.cls-18{fill:#ea7a70;}.cls-19{fill:#edf3ff;}.cls-20,.cls-22{fill:#e89a9f;}.cls-20{fill-opacity:0.3;}.cls-21{fill:#d3e7ec;}.cls-23{fill:#453286;}</style></defs><rect class="cls-1" x="46.27" y="52.27" width="606.46" height="267.46" rx="5.12"/><path d="M81.27,141.38a4.67,4.67,0,0,1-2,1.33,8.45,8.45,0,0,1-2.88.47,5.77,5.77,0,0,1-2.92-.72,4.94,4.94,0,0,1-1.93-2.11,7.45,7.45,0,0,1-.69-3.25v-.87a7.85,7.85,0,0,1,.64-3.31,4.79,4.79,0,0,1,1.86-2.15,5.46,5.46,0,0,1,2.86-.74,5.32,5.32,0,0,1,3.56,1.09,4.64,4.64,0,0,1,1.52,3.15H78.7a2.59,2.59,0,0,0-.78-1.61,2.47,2.47,0,0,0-1.65-.51,2.35,2.35,0,0,0-2,1,5.29,5.29,0,0,0-.71,3V137a5.07,5.07,0,0,0,.76,3,2.64,2.64,0,0,0,2.24,1,2.94,2.94,0,0,0,2.12-.63v-2.21h-2.4v-1.94h5Zm6.35,1.8a4.68,4.68,0,0,1-3.41-1.29,4.57,4.57,0,0,1-1.31-3.42v-.24a5.7,5.7,0,0,1,.56-2.56A4,4,0,0,1,85,133.93a4.4,4.4,0,0,1,2.32-.62,4,4,0,0,1,3.07,1.23A5,5,0,0,1,91.53,138v1h-6a2.39,2.39,0,0,0,.74,1.5,2.27,2.27,0,0,0,1.57.56,2.73,2.73,0,0,0,2.29-1.07l1.25,1.4a3.9,3.9,0,0,1-1.55,1.27A5.09,5.09,0,0,1,87.62,143.18Zm-.29-7.81a1.61,1.61,0,0,0-1.23.51,2.69,2.69,0,0,0-.6,1.46H89v-.2a1.84,1.84,0,0,0-.46-1.3A1.64,1.64,0,0,0,87.33,135.37Zm.23-5.87h2.77l-2.44,2.73H85.83Zm7.76,4,.08,1.1a3.32,3.32,0,0,1,2.73-1.28,2.76,2.76,0,0,1,2.25.89,4.1,4.1,0,0,1,.76,2.66V143H98.6v-6.08a1.65,1.65,0,0,0-.35-1.17,1.56,1.56,0,0,0-1.17-.37,1.74,1.74,0,0,0-1.61.91V143H92.93v-9.51Zm12.13,9.69a4.68,4.68,0,0,1-3.41-1.29,4.57,4.57,0,0,1-1.31-3.42v-.24a5.84,5.84,0,0,1,.55-2.56,4,4,0,0,1,1.57-1.74,4.4,4.4,0,0,1,2.32-.62,4,4,0,0,1,3.07,1.23,5,5,0,0,1,1.12,3.49v1h-6a2.38,2.38,0,0,0,.73,1.5,2.29,2.29,0,0,0,1.58.56,2.73,2.73,0,0,0,2.29-1.07l1.25,1.4a3.9,3.9,0,0,1-1.55,1.27A5.09,5.09,0,0,1,107.45,143.18Zm-.29-7.81a1.61,1.61,0,0,0-1.23.51,2.69,2.69,0,0,0-.6,1.46h3.53v-.2a1.84,1.84,0,0,0-.45-1.3A1.65,1.65,0,0,0,107.16,135.37Zm.23-5.87h2.77l-2.44,2.73h-2.06Zm10.76,6.37a6.33,6.33,0,0,0-.91-.07,1.87,1.87,0,0,0-1.89,1V143h-2.54v-9.51h2.4l.07,1.13a2.36,2.36,0,0,1,2.12-1.31,2.56,2.56,0,0,1,.79.12Zm6.48,7.13a3,3,0,0,1-.25-.85,3.11,3.11,0,0,1-2.4,1,3.38,3.38,0,0,1-2.32-.81,2.61,2.61,0,0,1-.92-2,2.7,2.7,0,0,1,1.12-2.32,5.57,5.57,0,0,1,3.24-.82h1.17v-.54a1.55,1.55,0,0,0-.34-1.06,1.32,1.32,0,0,0-1.06-.39,1.54,1.54,0,0,0-1,.3,1,1,0,0,0-.36.85H119a2.61,2.61,0,0,1,.5-1.53,3.4,3.4,0,0,1,1.45-1.1,5.16,5.16,0,0,1,2.09-.41,4.11,4.11,0,0,1,2.78.89,3.05,3.05,0,0,1,1,2.48v4.12a4.52,4.52,0,0,0,.38,2V143Zm-2.1-1.77a2.27,2.27,0,0,0,1-.24,1.64,1.64,0,0,0,.7-.68v-1.63h-1c-1.27,0-1.94.44-2,1.31v.15a1,1,0,0,0,.34.79A1.31,1.31,0,0,0,122.53,141.23Zm9.28-10.08v2.34h1.63v1.86h-1.63v4.75a1.08,1.08,0,0,0,.21.75,1,1,0,0,0,.77.23,4.22,4.22,0,0,0,.75-.06V143a5.37,5.37,0,0,1-1.54.23,2.43,2.43,0,0,1-2.73-2.7v-5.13h-1.38v-1.86h1.38v-2.34Zm7.42,12a4.68,4.68,0,0,1-3.41-1.29,4.57,4.57,0,0,1-1.31-3.42v-.24a5.7,5.7,0,0,1,.56-2.56,4,4,0,0,1,1.56-1.74,4.4,4.4,0,0,1,2.32-.62,4,4,0,0,1,3.07,1.23,5,5,0,0,1,1.12,3.49v1h-6a2.38,2.38,0,0,0,.73,1.5,2.31,2.31,0,0,0,1.58.56,2.73,2.73,0,0,0,2.29-1.07l1.25,1.4a3.9,3.9,0,0,1-1.55,1.27A5.09,5.09,0,0,1,139.23,143.18Zm-.29-7.81a1.61,1.61,0,0,0-1.23.51,2.69,2.69,0,0,0-.6,1.46h3.54v-.2a1.89,1.89,0,0,0-.46-1.3A1.64,1.64,0,0,0,138.94,135.37ZM150.29,142a3.21,3.21,0,0,1-2.6,1.15,3,3,0,0,1-2.34-.88,3.8,3.8,0,0,1-.82-2.58v-6.23h2.54v6.14c0,1,.45,1.49,1.36,1.49a1.82,1.82,0,0,0,1.77-.9v-6.73h2.55V143h-2.39Zm9.72-6.16a6.43,6.43,0,0,0-.91-.07,1.85,1.85,0,0,0-1.89,1V143h-2.55v-9.51h2.4l.07,1.13a2.38,2.38,0,0,1,2.12-1.31,2.52,2.52,0,0,1,.79.12Zm5.32,2.31a5.77,5.77,0,0,1,1-3.55,3.25,3.25,0,0,1,2.73-1.32,2.94,2.94,0,0,1,2.3,1V129.5h2.55V143h-2.3l-.12-1a3,3,0,0,1-2.44,1.19,3.24,3.24,0,0,1-2.7-1.32A5.94,5.94,0,0,1,165.33,138.18Zm2.54.18a3.77,3.77,0,0,0,.46,2,1.53,1.53,0,0,0,1.36.71,1.71,1.71,0,0,0,1.66-1v-3.76a1.69,1.69,0,0,0-1.65-1C168.48,135.38,167.87,136.37,167.87,138.36Zm12.37,4.82a4.68,4.68,0,0,1-3.41-1.29,4.57,4.57,0,0,1-1.31-3.42v-.24a5.84,5.84,0,0,1,.55-2.56,4,4,0,0,1,1.57-1.74,4.4,4.4,0,0,1,2.32-.62,4,4,0,0,1,3.07,1.23,5,5,0,0,1,1.12,3.49v1H178.1a2.39,2.39,0,0,0,.74,1.5,2.25,2.25,0,0,0,1.57.56,2.73,2.73,0,0,0,2.29-1.07l1.25,1.4a3.9,3.9,0,0,1-1.55,1.27A5.09,5.09,0,0,1,180.24,143.18Zm-.29-7.81a1.61,1.61,0,0,0-1.23.51,2.69,2.69,0,0,0-.6,1.46h3.54v-.2a1.84,1.84,0,0,0-.46-1.3A1.64,1.64,0,0,0,180,135.37Zm18.7,3a5.71,5.71,0,0,1-1,3.53,3.18,3.18,0,0,1-2.69,1.32,2.94,2.94,0,0,1-2.32-1v4.49h-2.54V133.49h2.35l.09.93a3,3,0,0,1,2.41-1.11,3.22,3.22,0,0,1,2.73,1.31,5.83,5.83,0,0,1,1,3.58Zm-2.55-.18a3.68,3.68,0,0,0-.47-2.05,1.51,1.51,0,0,0-1.36-.72,1.64,1.64,0,0,0-1.64.91v3.9a1.7,1.7,0,0,0,1.66.94C195.5,141.13,196.1,140.13,196.1,138.15Zm9.47-2.28a6.33,6.33,0,0,0-.91-.07,1.87,1.87,0,0,0-1.89,1V143h-2.54v-9.51h2.4l.07,1.13a2.35,2.35,0,0,1,2.12-1.31,2.56,2.56,0,0,1,.79.12Zm.52,2.29a5.7,5.7,0,0,1,.54-2.53,4.06,4.06,0,0,1,1.57-1.71,4.63,4.63,0,0,1,2.38-.61,4.35,4.35,0,0,1,3.14,1.18,4.73,4.73,0,0,1,1.36,3.2l0,.65a5,5,0,0,1-1.22,3.52,4.75,4.75,0,0,1-6.57,0,5.1,5.1,0,0,1-1.22-3.59Zm2.54.18a3.59,3.59,0,0,0,.51,2.08,1.7,1.7,0,0,0,1.46.71,1.72,1.72,0,0,0,1.44-.7,3.9,3.9,0,0,0,.52-2.27,3.49,3.49,0,0,0-.52-2.06,1.68,1.68,0,0,0-1.46-.73,1.65,1.65,0,0,0-1.44.73A3.92,3.92,0,0,0,208.63,138.34Zm16.59,0a5.71,5.71,0,0,1-1,3.53,3.19,3.19,0,0,1-2.69,1.32,3,3,0,0,1-2.33-1v4.49h-2.54V133.49H219l.09.93a3,3,0,0,1,2.4-1.11,3.22,3.22,0,0,1,2.74,1.31,5.83,5.83,0,0,1,1,3.58Zm-2.54-.18a3.77,3.77,0,0,0-.47-2.05,1.53,1.53,0,0,0-1.36-.72,1.67,1.67,0,0,0-1.65.91v3.9a1.71,1.71,0,0,0,1.66.94C222.08,141.13,222.68,140.13,222.68,138.15Zm3.73,0a5.57,5.57,0,0,1,.55-2.53,4,4,0,0,1,1.56-1.71,4.66,4.66,0,0,1,2.38-.61,4.35,4.35,0,0,1,3.14,1.18,4.73,4.73,0,0,1,1.36,3.2l0,.65a5,5,0,0,1-1.22,3.52,4.75,4.75,0,0,1-6.57,0,5.1,5.1,0,0,1-1.22-3.59Zm2.54.18a3.59,3.59,0,0,0,.51,2.08,1.7,1.7,0,0,0,1.46.71,1.72,1.72,0,0,0,1.44-.7,3.9,3.9,0,0,0,.52-2.27,3.49,3.49,0,0,0-.52-2.06,1.68,1.68,0,0,0-1.46-.73,1.65,1.65,0,0,0-1.44.73A3.92,3.92,0,0,0,229,138.34Zm13.18,2a.81.81,0,0,0-.46-.73,5.19,5.19,0,0,0-1.48-.48q-3.39-.72-3.39-2.88a2.59,2.59,0,0,1,1-2.11,4.21,4.21,0,0,1,2.75-.86,4.54,4.54,0,0,1,2.89.86,2.69,2.69,0,0,1,1.09,2.21H242a1.21,1.21,0,0,0-.35-.89,1.45,1.45,0,0,0-1.1-.36,1.57,1.57,0,0,0-1,.28.94.94,0,0,0-.35.74.8.8,0,0,0,.4.69,4.34,4.34,0,0,0,1.35.45,10.14,10.14,0,0,1,1.6.42,2.62,2.62,0,0,1,2,2.56,2.51,2.51,0,0,1-1.11,2.11,4.89,4.89,0,0,1-2.89.8,5,5,0,0,1-2.12-.43,3.51,3.51,0,0,1-1.45-1.16,2.77,2.77,0,0,1-.53-1.61h2.41a1.3,1.3,0,0,0,.5,1,2,2,0,0,0,1.25.36,1.88,1.88,0,0,0,1.1-.27A.87.87,0,0,0,242.13,140.37Zm6.8,2.63h-2.55v-9.51h2.55Zm-2.7-12a1.24,1.24,0,0,1,.38-.94,1.65,1.65,0,0,1,2.08,0,1.24,1.24,0,0,1,.39.94,1.22,1.22,0,0,1-.4.95,1.42,1.42,0,0,1-1,.37,1.43,1.43,0,0,1-1-.37A1.25,1.25,0,0,1,246.23,131Zm7.84.12v2.34h1.63v1.86h-1.63v4.75a1.14,1.14,0,0,0,.2.75,1,1,0,0,0,.77.23,4.14,4.14,0,0,0,.75-.06V143a5.32,5.32,0,0,1-1.54.23,2.42,2.42,0,0,1-2.72-2.7v-5.13h-1.39v-1.86h1.39v-2.34ZM259.79,143h-2.55v-9.51h2.55Zm-2.7-12a1.27,1.27,0,0,1,.38-.94,1.45,1.45,0,0,1,1-.37,1.4,1.4,0,0,1,1,.37,1.34,1.34,0,0,1,0,1.89,1.63,1.63,0,0,1-2.07,0A1.25,1.25,0,0,1,257.09,131Zm4.41,7.13a5.7,5.7,0,0,1,.54-2.53,4,4,0,0,1,1.57-1.71,4.6,4.6,0,0,1,2.38-.61,4.35,4.35,0,0,1,3.14,1.18,4.77,4.77,0,0,1,1.36,3.2l0,.65a5,5,0,0,1-1.23,3.52,4.23,4.23,0,0,1-3.27,1.32,4.27,4.27,0,0,1-3.29-1.32,5.06,5.06,0,0,1-1.22-3.59Zm2.54.18a3.59,3.59,0,0,0,.51,2.08,1.69,1.69,0,0,0,1.46.71,1.72,1.72,0,0,0,1.44-.7,4,4,0,0,0,.51-2.27,3.56,3.56,0,0,0-.51-2.06,1.69,1.69,0,0,0-1.46-.73,1.65,1.65,0,0,0-1.44.73A3.92,3.92,0,0,0,264,138.34Zm10.37-4.85.08,1.1a3.32,3.32,0,0,1,2.73-1.28,2.76,2.76,0,0,1,2.25.89,4.21,4.21,0,0,1,.76,2.66V143h-2.54v-6.08a1.61,1.61,0,0,0-.36-1.17,1.52,1.52,0,0,0-1.16-.37,1.73,1.73,0,0,0-1.61.91V143H272v-9.51Zm12.9,6.88a.82.82,0,0,0-.47-.73,5,5,0,0,0-1.47-.48q-3.39-.72-3.39-2.88a2.58,2.58,0,0,1,1-2.11,4.23,4.23,0,0,1,2.75-.86,4.52,4.52,0,0,1,2.89.86,2.66,2.66,0,0,1,1.09,2.21h-2.54a1.18,1.18,0,0,0-.35-.89,1.43,1.43,0,0,0-1.1-.36,1.52,1.52,0,0,0-1,.28.94.94,0,0,0-.35.74.81.81,0,0,0,.39.69,4.33,4.33,0,0,0,1.36.45,10.44,10.44,0,0,1,1.6.42,2.62,2.62,0,0,1,2,2.56,2.49,2.49,0,0,1-1.12,2.11,4.83,4.83,0,0,1-2.88.8,5,5,0,0,1-2.13-.43,3.58,3.58,0,0,1-1.45-1.16,2.76,2.76,0,0,1-.52-1.61h2.4a1.33,1.33,0,0,0,.5,1,2,2,0,0,0,1.25.36,1.84,1.84,0,0,0,1.1-.27A.88.88,0,0,0,287.31,140.37Z" transform="translate(0 -50)"/><path d="M99.34,184.64h-.77l-2.89-4.43v4.43h-.77v-5.75h.77l2.9,4.45v-4.45h.76Zm1.37.5h-.62l2.4-6.25h.62Zm6.49-2h-2.41l-.54,1.5h-.79l2.2-5.75h.66l2.21,5.75h-.78Zm-2.18-.62h2l-1-2.7Z" transform="translate(0 -50)"/><path d="M144.63,178.82a.63.63,0,0,0-.25-.55,3.31,3.31,0,0,0-.93-.42,6.47,6.47,0,0,1-1.06-.42,1.75,1.75,0,0,1-1.06-1.55,1.55,1.55,0,0,1,.28-.9,1.94,1.94,0,0,1,.82-.62,3.09,3.09,0,0,1,1.2-.22,2.81,2.81,0,0,1,1.19.24,1.88,1.88,0,0,1,.81.68,1.84,1.84,0,0,1,.29,1h-1.28a.85.85,0,0,0-.27-.67,1.12,1.12,0,0,0-.76-.24,1.18,1.18,0,0,0-.73.2.62.62,0,0,0,0,1,4,4,0,0,0,.9.38,3.84,3.84,0,0,1,1.6.82,1.63,1.63,0,0,1,.5,1.21,1.52,1.52,0,0,1-.61,1.28,2.74,2.74,0,0,1-1.65.45,3.1,3.1,0,0,1-1.31-.26,2.18,2.18,0,0,1-.9-.72,1.83,1.83,0,0,1-.31-1.06h1.29c0,.68.41,1,1.23,1a1.26,1.26,0,0,0,.72-.18A.63.63,0,0,0,144.63,178.82Zm4.21,1.72a2.17,2.17,0,0,1-2.3-2.29v-.12a2.63,2.63,0,0,1,.28-1.24,1.91,1.91,0,0,1,.76-.85,2.15,2.15,0,0,1,1.13-.3,1.91,1.91,0,0,1,1.49.6,2.42,2.42,0,0,1,.55,1.7v.5H147.8a1.13,1.13,0,0,0,.36.73,1.07,1.07,0,0,0,.77.28A1.35,1.35,0,0,0,150,179l.61.68a1.88,1.88,0,0,1-.75.61A2.45,2.45,0,0,1,148.84,180.54Zm-.14-3.8a.79.79,0,0,0-.6.25,1.29,1.29,0,0,0-.29.71h1.72v-.1a.89.89,0,0,0-.22-.63A.81.81,0,0,0,148.7,176.74Zm.11-2.86h1.35L149,175.21h-1Zm3.95,6.58h-1.24v-6.58h1.24Zm3.15.08a2.24,2.24,0,0,1-1.65-.62,2.22,2.22,0,0,1-.64-1.67v-.12a2.76,2.76,0,0,1,.27-1.24,2,2,0,0,1,.76-.85,2.15,2.15,0,0,1,1.13-.3,1.91,1.91,0,0,1,1.49.6,2.42,2.42,0,0,1,.55,1.7v.5h-2.95a1.13,1.13,0,0,0,.36.73,1.07,1.07,0,0,0,.77.28,1.34,1.34,0,0,0,1.11-.52l.61.68a1.75,1.75,0,0,1-.75.61A2.45,2.45,0,0,1,155.91,180.54Zm-.14-3.8a.75.75,0,0,0-.59.25,1.29,1.29,0,0,0-.3.71h1.72v-.1a.89.89,0,0,0-.22-.63A.79.79,0,0,0,155.77,176.74Zm4.68,2.81a.84.84,0,0,0,.56-.19.65.65,0,0,0,.22-.5h1.16a1.55,1.55,0,0,1-.26.86,1.65,1.65,0,0,1-.69.61,2.19,2.19,0,0,1-1,.21,2,2,0,0,1-1.56-.63,2.46,2.46,0,0,1-.58-1.74v-.08a2.45,2.45,0,0,1,.57-1.71,2,2,0,0,1,1.57-.64,2,2,0,0,1,1.39.5,1.71,1.71,0,0,1,.53,1.31h-1.16A.82.82,0,0,0,161,177a.75.75,0,0,0-.57-.23.76.76,0,0,0-.65.32,1.8,1.8,0,0,0-.22,1v.13a1.8,1.8,0,0,0,.22,1A.75.75,0,0,0,160.45,179.55Zm4.13-4.86v1.14h.79v.9h-.79V179a.51.51,0,0,0,.1.37c.06.08.19.11.37.11a2.05,2.05,0,0,0,.37,0v.94a2.35,2.35,0,0,1-.75.11,1.18,1.18,0,0,1-1.33-1.31v-2.5h-.67v-.9h.67v-1.14Zm2.79,5.77h-1.24v-4.63h1.24Zm-1.32-5.83a.59.59,0,0,1,.19-.46.68.68,0,0,1,.5-.18.69.69,0,0,1,.51.18.59.59,0,0,1,.19.46.63.63,0,0,1-.19.46.72.72,0,0,1-.51.18.71.71,0,0,1-.5-.18A.63.63,0,0,1,166.05,174.63Zm2.15,3.47a2.85,2.85,0,0,1,.26-1.23,1.91,1.91,0,0,1,.76-.83,2.23,2.23,0,0,1,1.16-.3,2.1,2.1,0,0,1,1.53.57,2.29,2.29,0,0,1,.66,1.56v.32a2.45,2.45,0,0,1-.59,1.71,2.32,2.32,0,0,1-3.2,0,2.5,2.5,0,0,1-.59-1.75Zm1.23.09a1.79,1.79,0,0,0,.25,1,.83.83,0,0,0,.71.35.81.81,0,0,0,.7-.35,1.87,1.87,0,0,0,.26-1.1,1.68,1.68,0,0,0-.26-1,.87.87,0,0,0-1.41,0A2,2,0,0,0,169.43,178.19Zm5-2.36,0,.53a1.63,1.63,0,0,1,1.33-.62,1.33,1.33,0,0,1,1.1.43,2.05,2.05,0,0,1,.37,1.3v3h-1.24v-3a.79.79,0,0,0-.17-.57.75.75,0,0,0-.57-.18.85.85,0,0,0-.78.44v3.27h-1.24v-4.63Zm7.12,0,0,.51a1.63,1.63,0,0,1,1.33-.6,1.24,1.24,0,0,1,1.23.71,1.6,1.6,0,0,1,1.39-.71,1.37,1.37,0,0,1,1.12.44,2,2,0,0,1,.37,1.32v3h-1.24v-3a.88.88,0,0,0-.15-.57.71.71,0,0,0-.55-.18.76.76,0,0,0-.77.53v3.18h-1.24v-3a.84.84,0,0,0-.16-.58.67.67,0,0,0-.54-.18.8.8,0,0,0-.76.43v3.28h-1.24v-4.63Zm9.12,4.63a1.16,1.16,0,0,1-.12-.42,1.48,1.48,0,0,1-1.17.5,1.65,1.65,0,0,1-1.13-.39,1.25,1.25,0,0,1-.45-1,1.3,1.3,0,0,1,.55-1.13,2.61,2.61,0,0,1,1.58-.4h.56v-.27a.76.76,0,0,0-.16-.51.64.64,0,0,0-.52-.19.74.74,0,0,0-.49.15.5.5,0,0,0-.18.41H188a1.29,1.29,0,0,1,.24-.75,1.65,1.65,0,0,1,.7-.53,2.61,2.61,0,0,1,1-.2,2,2,0,0,1,1.36.43,1.5,1.5,0,0,1,.51,1.21v2a2.13,2.13,0,0,0,.18,1v.08Zm-1-.86a1.06,1.06,0,0,0,.5-.12.73.73,0,0,0,.34-.33v-.8h-.46c-.62,0-1,.22-1,.64v.08a.49.49,0,0,0,.16.38A.64.64,0,0,0,189.7,179.6Zm4.18-3.77,0,.53a1.63,1.63,0,0,1,1.33-.62,1.33,1.33,0,0,1,1.1.43,2.05,2.05,0,0,1,.37,1.3v3h-1.24v-3a.79.79,0,0,0-.17-.57.75.75,0,0,0-.57-.18.85.85,0,0,0-.78.44v3.27h-1.24v-4.63Zm6.54,4.16a1.53,1.53,0,0,1-1.26.55,1.48,1.48,0,0,1-1.14-.42,1.88,1.88,0,0,1-.4-1.26v-3h1.24v3q0,.72.66.72a.87.87,0,0,0,.86-.44v-3.27h1.24v4.63h-1.16Zm4.27.55a2.26,2.26,0,0,1-1.66-.62,2.22,2.22,0,0,1-.64-1.67v-.12a2.76,2.76,0,0,1,.27-1.24,2,2,0,0,1,.76-.85,2.15,2.15,0,0,1,1.13-.3,1.91,1.91,0,0,1,1.49.6,2.42,2.42,0,0,1,.55,1.7v.5h-3a1.13,1.13,0,0,0,.36.73,1.09,1.09,0,0,0,.77.28,1.35,1.35,0,0,0,1.12-.52l.6.68a1.75,1.75,0,0,1-.75.61A2.44,2.44,0,0,1,204.69,180.54Zm-.14-3.8a.76.76,0,0,0-.6.25,1.29,1.29,0,0,0-.29.71h1.72v-.1a.9.9,0,0,0-.23-.63A.78.78,0,0,0,204.55,176.74Zm4,3.72h-1.24v-6.58h1.24Zm2.33,0h-1.24v-6.58h1.24Zm3.16.08a2.25,2.25,0,0,1-1.66-.62,2.22,2.22,0,0,1-.64-1.67v-.12a2.76,2.76,0,0,1,.27-1.24,2,2,0,0,1,.76-.85,2.15,2.15,0,0,1,1.13-.3,1.94,1.94,0,0,1,1.5.6A2.46,2.46,0,0,1,216,178v.5h-3a1.13,1.13,0,0,0,.36.73,1.09,1.09,0,0,0,.77.28,1.35,1.35,0,0,0,1.12-.52l.6.68a1.75,1.75,0,0,1-.75.61A2.44,2.44,0,0,1,214.09,180.54Zm-.14-3.8a.76.76,0,0,0-.6.25,1.29,1.29,0,0,0-.29.71h1.72v-.1a.9.9,0,0,0-.23-.63A.78.78,0,0,0,214,176.74Z" transform="translate(0 -50)"/><path class="cls-2" d="M141.67,194v-5.76h1.62a2.53,2.53,0,0,1,1.33.34,2.19,2.19,0,0,1,.89.94,3.05,3.05,0,0,1,.32,1.41v.37a2.92,2.92,0,0,1-.32,1.42,2.08,2.08,0,0,1-.89.94,2.82,2.82,0,0,1-1.36.34Zm.76-5.13v4.51h.8a1.72,1.72,0,0,0,1.36-.55,2.22,2.22,0,0,0,.49-1.55v-.34a2.26,2.26,0,0,0-.46-1.52,1.63,1.63,0,0,0-1.31-.55Zm7.08,5.13a1.38,1.38,0,0,1-.11-.45,1.63,1.63,0,0,1-1.21.53,1.5,1.5,0,0,1-1-.36,1.16,1.16,0,0,1-.41-.91,1.19,1.19,0,0,1,.51-1,2.38,2.38,0,0,1,1.43-.37h.71v-.34a.8.8,0,0,0-.23-.61.91.91,0,0,0-.67-.23,1.1,1.1,0,0,0-.66.2.57.57,0,0,0-.26.48h-.74a1,1,0,0,1,.23-.62,1.45,1.45,0,0,1,.61-.47,2,2,0,0,1,.86-.18,1.69,1.69,0,0,1,1.16.38,1.3,1.3,0,0,1,.43,1v2a2.43,2.43,0,0,0,.15.94V194Zm-1.22-.56a1.31,1.31,0,0,0,.66-.18,1,1,0,0,0,.44-.46v-.87h-.57c-.9,0-1.34.26-1.34.78a.67.67,0,0,0,.22.54A.89.89,0,0,0,148.29,193.44Zm4-4.75v1h.8v.57h-.8v2.65a.62.62,0,0,0,.11.39.46.46,0,0,0,.36.13,1.93,1.93,0,0,0,.35-.05V194a2.23,2.23,0,0,1-.56.08.91.91,0,0,1-.74-.3,1.24,1.24,0,0,1-.25-.84v-2.65h-.78v-.57h.78v-1Zm3.43,5.39a1.85,1.85,0,0,1-1.41-.57,2.1,2.1,0,0,1-.55-1.53v-.13a2.58,2.58,0,0,1,.24-1.14,2,2,0,0,1,.68-.78,1.74,1.74,0,0,1,.95-.29,1.63,1.63,0,0,1,1.3.55,2.38,2.38,0,0,1,.46,1.58v.3h-2.9a1.59,1.59,0,0,0,.37,1,1.2,1.2,0,0,0,.9.38,1.24,1.24,0,0,0,.66-.16,1.55,1.55,0,0,0,.47-.42l.45.35A1.81,1.81,0,0,1,155.69,194.08Zm-.09-3.84a1,1,0,0,0-.74.33,1.55,1.55,0,0,0-.37.9h2.14v-.06a1.39,1.39,0,0,0-.3-.86A.94.94,0,0,0,155.6,190.24Zm4.44,1.59a2.53,2.53,0,0,1,.47-1.59,1.47,1.47,0,0,1,1.22-.6,1.49,1.49,0,0,1,1.19.52v-2.23h.73V194H163l0-.46a1.48,1.48,0,0,1-1.22.54,1.45,1.45,0,0,1-1.21-.61,2.55,2.55,0,0,1-.47-1.59Zm.73.08a1.93,1.93,0,0,0,.3,1.14,1,1,0,0,0,.83.41,1.06,1.06,0,0,0,1-.63v-2a1.09,1.09,0,0,0-1-.61,1,1,0,0,0-.84.42A2.11,2.11,0,0,0,160.77,191.91Zm5.79,2.17a1.85,1.85,0,0,1-1.41-.57,2.1,2.1,0,0,1-.55-1.53v-.13a2.58,2.58,0,0,1,.24-1.14,2,2,0,0,1,.68-.78,1.74,1.74,0,0,1,.95-.29,1.63,1.63,0,0,1,1.3.55,2.38,2.38,0,0,1,.46,1.58v.3h-2.9a1.59,1.59,0,0,0,.37,1,1.2,1.2,0,0,0,.9.38,1.24,1.24,0,0,0,.66-.16,1.44,1.44,0,0,0,.47-.42l.45.35A1.81,1.81,0,0,1,166.56,194.08Zm-.09-3.84a1,1,0,0,0-.74.33,1.49,1.49,0,0,0-.37.9h2.14v-.06a1.39,1.39,0,0,0-.3-.86A.94.94,0,0,0,166.47,190.24Zm4.44,1.59a2.53,2.53,0,0,1,.47-1.59,1.47,1.47,0,0,1,1.22-.6,1.49,1.49,0,0,1,1.19.52v-2.23h.73V194h-.67l0-.46a1.48,1.48,0,0,1-1.22.54,1.45,1.45,0,0,1-1.21-.61,2.55,2.55,0,0,1-.47-1.59Zm.73.08a1.93,1.93,0,0,0,.3,1.14,1,1,0,0,0,.83.41,1.06,1.06,0,0,0,1-.63v-2a1.09,1.09,0,0,0-1-.61,1,1,0,0,0-.84.42A2.11,2.11,0,0,0,171.64,191.91Zm5.79,2.17a1.85,1.85,0,0,1-1.41-.57,2.1,2.1,0,0,1-.55-1.53v-.13a2.58,2.58,0,0,1,.24-1.14,2,2,0,0,1,.68-.78,1.74,1.74,0,0,1,1-.29,1.63,1.63,0,0,1,1.3.55,2.38,2.38,0,0,1,.46,1.58v.3h-2.9a1.59,1.59,0,0,0,.37,1,1.2,1.2,0,0,0,.9.38,1.24,1.24,0,0,0,.66-.16,1.55,1.55,0,0,0,.47-.42l.45.35A1.81,1.81,0,0,1,177.43,194.08Zm-.09-3.84a1,1,0,0,0-.74.33,1.49,1.49,0,0,0-.37.9h2.14v-.06a1.39,1.39,0,0,0-.3-.86A.94.94,0,0,0,177.34,190.24Zm.36-2.31h.88l-1.06,1.16h-.59Zm5.87,4a2.57,2.57,0,0,1-.45,1.58,1.45,1.45,0,0,1-1.21.59,1.48,1.48,0,0,1-1.25-.57l0,.49H180v-6.07h.73v2.26a1.5,1.5,0,0,1,1.22-.55,1.47,1.47,0,0,1,1.23.59,2.69,2.69,0,0,1,.44,1.62Zm-.73-.08a2,2,0,0,0-.29-1.16,1,1,0,0,0-.83-.41,1.08,1.08,0,0,0-1,.68v1.85a1.13,1.13,0,0,0,1,.67,1,1,0,0,0,.82-.41A2.13,2.13,0,0,0,182.84,191.83Zm4.3,1.75a1.58,1.58,0,0,1-1.26.5,1.32,1.32,0,0,1-1-.4,1.69,1.69,0,0,1-.36-1.17v-2.79h.73v2.77c0,.64.27,1,.79,1a1.1,1.1,0,0,0,1.12-.63v-3.11h.73V194h-.7Zm2.82-4.89v1h.8v.57H190v2.65a.63.63,0,0,0,.1.39.49.49,0,0,0,.37.13,1.85,1.85,0,0,0,.34-.05V194a2.16,2.16,0,0,1-.56.08.92.92,0,0,1-.74-.3,1.29,1.29,0,0,1-.24-.84v-2.65h-.78v-.57h.78v-1Zm3.64,4.93a.43.43,0,0,1,.11-.32.44.44,0,0,1,.34-.13.46.46,0,0,1,.34.13.44.44,0,0,1,.12.32.41.41,0,0,1-.12.3.45.45,0,0,1-.34.12.44.44,0,0,1-.34-.12A.4.4,0,0,1,193.6,193.62Zm0-3.49a.48.48,0,0,1,.11-.32.46.46,0,0,1,.34-.13.44.44,0,0,1,.34.13.44.44,0,0,1,.12.32.41.41,0,0,1-.12.3.44.44,0,0,1-.34.12.45.45,0,0,1-.34-.12A.44.44,0,0,1,193.6,190.13Zm7.69,3.87h-3.78v-.53l2-2.21a5.82,5.82,0,0,0,.61-.81,1.41,1.41,0,0,0,.17-.66,1.06,1.06,0,0,0-.28-.74.94.94,0,0,0-.72-.28,1.15,1.15,0,0,0-.86.31,1.21,1.21,0,0,0-.3.86h-.73a1.68,1.68,0,0,1,.51-1.28,1.91,1.91,0,0,1,1.38-.49,1.81,1.81,0,0,1,1.26.42,1.4,1.4,0,0,1,.47,1.12,3.3,3.3,0,0,1-1.08,2l-1.54,1.67h2.89Zm3.17,0h-.73v-4.87l-1.48.54V189l2.1-.78h.11Zm6.87,0a1.43,1.43,0,0,1-.1-.45,1.65,1.65,0,0,1-1.22.53,1.51,1.51,0,0,1-1-.36,1.16,1.16,0,0,1-.4-.91,1.21,1.21,0,0,1,.5-1,2.38,2.38,0,0,1,1.43-.37h.71v-.34a.83.83,0,0,0-.22-.61,1,1,0,0,0-.68-.23,1.1,1.1,0,0,0-.66.2.59.59,0,0,0-.26.48h-.74a1,1,0,0,1,.23-.62,1.52,1.52,0,0,1,.61-.47,2.07,2.07,0,0,1,.86-.18,1.67,1.67,0,0,1,1.16.38,1.34,1.34,0,0,1,.44,1v2a2.43,2.43,0,0,0,.15.94V194Zm-1.21-.56a1.28,1.28,0,0,0,.65-.18,1,1,0,0,0,.44-.46v-.87h-.57c-.89,0-1.34.26-1.34.78a.65.65,0,0,0,.23.54A.87.87,0,0,0,210.12,193.44Zm4.32-.43,1.06-3.29h.75L214.71,194h-.55l-1.55-4.28h.74Zm4.58-2.63a2,2,0,0,0-.36,0,1,1,0,0,0-1,.61v3H217v-4.28h.71v.5a1.15,1.15,0,0,1,1-.58.72.72,0,0,1,.33.06Zm1.47,3.62h-.73v-4.28h.73Zm-.79-5.41a.44.44,0,0,1,.1-.3.45.45,0,0,1,.33-.12.41.41,0,0,1,.32.12.4.4,0,0,1,.11.3.36.36,0,0,1-.11.29.41.41,0,0,1-.32.12.45.45,0,0,1-.33-.12A.39.39,0,0,1,219.7,188.59Zm2.76,5.41h-.73v-6.07h.73Z" transform="translate(0 -50)"/><path class="cls-2" d="M238.67,194v-5.76h1.62a2.53,2.53,0,0,1,1.33.34,2.19,2.19,0,0,1,.89.94,3.05,3.05,0,0,1,.32,1.41v.37a2.92,2.92,0,0,1-.32,1.42,2.08,2.08,0,0,1-.89.94,2.82,2.82,0,0,1-1.36.34Zm.76-5.13v4.51h.8a1.72,1.72,0,0,0,1.36-.55,2.22,2.22,0,0,0,.49-1.55v-.34a2.26,2.26,0,0,0-.46-1.52,1.63,1.63,0,0,0-1.31-.55Zm7.08,5.13a1.38,1.38,0,0,1-.11-.45,1.63,1.63,0,0,1-1.21.53,1.5,1.5,0,0,1-1-.36,1.16,1.16,0,0,1-.41-.91,1.19,1.19,0,0,1,.51-1,2.38,2.38,0,0,1,1.43-.37h.71v-.34a.8.8,0,0,0-.23-.61.91.91,0,0,0-.67-.23,1.1,1.1,0,0,0-.66.2.57.57,0,0,0-.26.48h-.74a1,1,0,0,1,.23-.62,1.45,1.45,0,0,1,.61-.47,2,2,0,0,1,.86-.18,1.69,1.69,0,0,1,1.16.38,1.3,1.3,0,0,1,.43,1v2a2.43,2.43,0,0,0,.15.94V194Zm-1.22-.56a1.31,1.31,0,0,0,.66-.18,1,1,0,0,0,.44-.46v-.87h-.57c-.9,0-1.34.26-1.34.78a.67.67,0,0,0,.22.54A.89.89,0,0,0,245.29,193.44Zm4-4.75v1h.8v.57h-.8v2.65a.62.62,0,0,0,.11.39.46.46,0,0,0,.36.13,1.93,1.93,0,0,0,.35-.05V194a2.23,2.23,0,0,1-.56.08.91.91,0,0,1-.74-.3,1.24,1.24,0,0,1-.25-.84v-2.65h-.78v-.57h.78v-1Zm3.43,5.39a1.85,1.85,0,0,1-1.41-.57,2.1,2.1,0,0,1-.55-1.53v-.13a2.58,2.58,0,0,1,.24-1.14,2,2,0,0,1,.68-.78,1.74,1.74,0,0,1,.95-.29,1.63,1.63,0,0,1,1.3.55,2.38,2.38,0,0,1,.46,1.58v.3h-2.9a1.59,1.59,0,0,0,.37,1,1.2,1.2,0,0,0,.9.38,1.24,1.24,0,0,0,.66-.16,1.55,1.55,0,0,0,.47-.42l.45.35A1.81,1.81,0,0,1,252.69,194.08Zm-.09-3.84a1,1,0,0,0-.74.33,1.55,1.55,0,0,0-.37.9h2.14v-.06a1.39,1.39,0,0,0-.3-.86A.94.94,0,0,0,252.6,190.24Zm4.44,1.59a2.53,2.53,0,0,1,.47-1.59,1.47,1.47,0,0,1,1.22-.6,1.49,1.49,0,0,1,1.19.52v-2.23h.73V194H260l0-.46a1.48,1.48,0,0,1-1.22.54,1.45,1.45,0,0,1-1.21-.61,2.55,2.55,0,0,1-.47-1.59Zm.73.08a1.93,1.93,0,0,0,.3,1.14,1,1,0,0,0,.83.41,1.07,1.07,0,0,0,1-.63v-2a1.09,1.09,0,0,0-1-.61,1,1,0,0,0-.84.42A2.11,2.11,0,0,0,257.77,191.91Zm5.79,2.17a1.85,1.85,0,0,1-1.41-.57,2.1,2.1,0,0,1-.55-1.53v-.13a2.58,2.58,0,0,1,.24-1.14,2,2,0,0,1,.68-.78,1.74,1.74,0,0,1,1-.29,1.63,1.63,0,0,1,1.3.55,2.38,2.38,0,0,1,.46,1.58v.3h-2.9a1.59,1.59,0,0,0,.37,1,1.2,1.2,0,0,0,.9.38,1.24,1.24,0,0,0,.66-.16,1.44,1.44,0,0,0,.47-.42l.45.35A1.81,1.81,0,0,1,263.56,194.08Zm-.09-3.84a1,1,0,0,0-.74.33,1.49,1.49,0,0,0-.37.9h2.14v-.06a1.39,1.39,0,0,0-.3-.86A.94.94,0,0,0,263.47,190.24Zm4.86,3.76v-3.71h-.67v-.57h.67v-.36a1.51,1.51,0,0,1,.41-1.12,1.63,1.63,0,0,1,1.16-.39,3.47,3.47,0,0,1,1.12.24l-.12.61a2.59,2.59,0,0,0-.95-.19,1,1,0,0,0-.68.21.9.9,0,0,0-.2.63v.37h.87v.57h-.87V194Zm3.05,0h-.73v-4.28h.73Zm1.88-4.28,0,.54a1.55,1.55,0,0,1,1.28-.62c.9,0,1.36.51,1.37,1.53V194h-.74v-2.83a.94.94,0,0,0-.21-.68.83.83,0,0,0-.64-.23,1.12,1.12,0,0,0-.63.19,1.36,1.36,0,0,0-.42.5V194h-.73v-4.28Zm5.76,3.9a.48.48,0,0,1,.11-.32.46.46,0,0,1,.34-.13.44.44,0,0,1,.34.13.44.44,0,0,1,.12.32.41.41,0,0,1-.12.3.44.44,0,0,1-.34.12.45.45,0,0,1-.34-.12A.44.44,0,0,1,279,193.62Zm0-3.49a.43.43,0,0,1,.11-.32.44.44,0,0,1,.34-.13.46.46,0,0,1,.34.13.44.44,0,0,1,.12.32.41.41,0,0,1-.12.3.45.45,0,0,1-.34.12.44.44,0,0,1-.34-.12A.4.4,0,0,1,279,190.13Zm7.68,3.87h-3.77v-.53l2-2.21a4.55,4.55,0,0,0,.61-.81,1.41,1.41,0,0,0,.17-.66,1.05,1.05,0,0,0-.27-.74,1,1,0,0,0-.73-.28,1.13,1.13,0,0,0-.85.31,1.17,1.17,0,0,0-.3.86h-.73a1.68,1.68,0,0,1,.51-1.28,1.89,1.89,0,0,1,1.37-.49,1.82,1.82,0,0,1,1.27.42,1.43,1.43,0,0,1,.47,1.12,3.32,3.32,0,0,1-1.09,2l-1.54,1.67h2.89Zm4.27-4.25a1.34,1.34,0,0,1-.23.76,1.53,1.53,0,0,1-.62.53,1.76,1.76,0,0,1,.72.56,1.47,1.47,0,0,1,.26.85,1.53,1.53,0,0,1-.5,1.19,2.23,2.23,0,0,1-2.66,0,1.54,1.54,0,0,1-.5-1.19,1.47,1.47,0,0,1,1-1.41,1.48,1.48,0,0,1-.6-.53,1.34,1.34,0,0,1-.23-.76,1.51,1.51,0,0,1,.47-1.16,2,2,0,0,1,2.46,0A1.51,1.51,0,0,1,291,189.75Zm-.6,2.68a1.06,1.06,0,0,0-.31-.79,1.09,1.09,0,0,0-.8-.3,1,1,0,0,0-1.09,1.09,1,1,0,0,0,.29.77,1.11,1.11,0,0,0,.81.28,1.13,1.13,0,0,0,.81-.28A1,1,0,0,0,290.38,192.43Zm-1.1-3.66a.91.91,0,0,0-1,1,1,1,0,0,0,.26.71,1,1,0,0,0,1.4,0,1,1,0,0,0,.26-.71A1,1,0,0,0,290,189,.93.93,0,0,0,289.28,188.77Zm7.48,5.23a1.38,1.38,0,0,1-.11-.45,1.64,1.64,0,0,1-1.22.53,1.53,1.53,0,0,1-1-.36,1.27,1.27,0,0,1,.11-1.94,2.38,2.38,0,0,1,1.43-.37h.71v-.34a.84.84,0,0,0-.23-.61.92.92,0,0,0-.67-.23,1.1,1.1,0,0,0-.66.2.58.58,0,0,0-.27.48h-.73a1,1,0,0,1,.22-.62,1.55,1.55,0,0,1,.62-.47,2,2,0,0,1,.86-.18,1.69,1.69,0,0,1,1.16.38,1.3,1.3,0,0,1,.43,1v2a2.43,2.43,0,0,0,.15.94V194Zm-1.22-.56a1.25,1.25,0,0,0,.65-.18,1,1,0,0,0,.45-.46v-.87h-.57q-1.35,0-1.35.78a.68.68,0,0,0,.23.54A.89.89,0,0,0,295.54,193.44Zm4.33-.43,1.06-3.29h.74L300.14,194h-.56L298,189.72h.75Zm4.57-2.63a2,2,0,0,0-.36,0,1,1,0,0,0-1,.61v3h-.73v-4.28h.71v.5a1.15,1.15,0,0,1,1-.58.67.67,0,0,1,.32.06Zm1.47,3.62h-.73v-4.28h.73Zm-.79-5.41a.44.44,0,0,1,.11-.3.41.41,0,0,1,.32-.12.43.43,0,0,1,.33.12.44.44,0,0,1,.11.3.4.4,0,0,1-.11.29.43.43,0,0,1-.33.12.41.41,0,0,1-.32-.12A.4.4,0,0,1,305.12,188.59Zm2.76,5.41h-.73v-6.07h.73Z" transform="translate(0 -50)"/><path class="cls-2" d="M319.44,194.37v-5.76h1.62a2.6,2.6,0,0,1,1.33.33,2.21,2.21,0,0,1,.89.95,3,3,0,0,1,.32,1.4v.37a3.08,3.08,0,0,1-.31,1.43,2.21,2.21,0,0,1-.9.94,2.82,2.82,0,0,1-1.36.34Zm.76-5.13v4.5h.8a1.73,1.73,0,0,0,1.36-.54,2.22,2.22,0,0,0,.49-1.55v-.34a2.26,2.26,0,0,0-.46-1.52,1.63,1.63,0,0,0-1.31-.55Zm7.08,4.7a1.55,1.55,0,0,1-1.26.51,1.36,1.36,0,0,1-1-.4,1.72,1.72,0,0,1-.36-1.18v-2.78h.73v2.76c0,.65.27,1,.79,1a1.1,1.1,0,0,0,1.12-.62v-3.11H328v4.28h-.7Zm3.89-3.2-.36,0a1,1,0,0,0-1,.61v3h-.74v-4.28h.72v.49a1.14,1.14,0,0,1,1-.57.67.67,0,0,1,.32.06Zm2.37,3.71a1.85,1.85,0,0,1-1.41-.57,2.17,2.17,0,0,1-.55-1.53v-.14a2.57,2.57,0,0,1,.24-1.13,2,2,0,0,1,.68-.79,1.73,1.73,0,0,1,.95-.28,1.6,1.6,0,0,1,1.3.55,2.37,2.37,0,0,1,.46,1.57v.31h-2.9a1.6,1.6,0,0,0,.37,1,1.17,1.17,0,0,0,.9.39,1.34,1.34,0,0,0,.66-.16,1.44,1.44,0,0,0,.47-.42l.45.35A1.81,1.81,0,0,1,333.54,194.45Zm-.09-3.84a1,1,0,0,0-.74.32,1.61,1.61,0,0,0-.37.91h2.14v-.06a1.36,1.36,0,0,0-.3-.86A.9.9,0,0,0,333.45,190.61Zm.36-2.32h.88l-1.06,1.17h-.58Zm4,6.16a1.89,1.89,0,0,1-1.42-.57,2.17,2.17,0,0,1-.54-1.53v-.14a2.57,2.57,0,0,1,.24-1.13,1.88,1.88,0,0,1,.68-.79,1.67,1.67,0,0,1,.94-.28,1.6,1.6,0,0,1,1.3.55,2.37,2.37,0,0,1,.46,1.57v.31h-2.89a1.54,1.54,0,0,0,.36,1,1.18,1.18,0,0,0,.91.39,1.33,1.33,0,0,0,.65-.16,1.44,1.44,0,0,0,.47-.42l.45.35A1.81,1.81,0,0,1,337.84,194.45Zm-.1-3.84a1,1,0,0,0-.74.32,1.61,1.61,0,0,0-.37.91h2.14v-.06a1.36,1.36,0,0,0-.3-.86A.9.9,0,0,0,337.74,190.61Zm4.6,3.37a.47.47,0,0,1,.11-.31.51.51,0,0,1,.68,0,.46.46,0,0,1,0,.62.54.54,0,0,1-.68,0A.47.47,0,0,1,342.34,194Zm0-3.49a.47.47,0,0,1,.11-.31.42.42,0,0,1,.34-.13.41.41,0,0,1,.34.13.43.43,0,0,1,.12.31.45.45,0,0,1-.12.31.44.44,0,0,1-.34.12.45.45,0,0,1-.34-.12A.49.49,0,0,1,342.34,190.49ZM350,189l-2.38,5.35h-.77l2.38-5.16h-3.12v-.6H350Zm3.67,1.07v4.77c0,.82-.37,1.23-1.12,1.23a1.33,1.33,0,0,1-.45-.07v-.58a1.58,1.58,0,0,0,.34,0,.5.5,0,0,0,.37-.14.63.63,0,0,0,.13-.45v-4.79Zm-.81-1.14a.44.44,0,0,1,.11-.29.38.38,0,0,1,.32-.13.41.41,0,0,1,.32.12.44.44,0,0,1,.12.3.45.45,0,0,1-.76.3A.44.44,0,0,1,352.83,189Zm1.8,3.24a2.57,2.57,0,0,1,.24-1.13,1.88,1.88,0,0,1,.69-.78,1.91,1.91,0,0,1,1-.27,1.78,1.78,0,0,1,1.41.61,2.3,2.3,0,0,1,.54,1.6v.05a2.57,2.57,0,0,1-.24,1.13,1.89,1.89,0,0,1-.68.77,2,2,0,0,1-1,.28,1.82,1.82,0,0,1-1.41-.61,2.31,2.31,0,0,1-.54-1.6Zm.73.08a1.85,1.85,0,0,0,.33,1.15,1.09,1.09,0,0,0,.89.43,1,1,0,0,0,.88-.44,2,2,0,0,0,.33-1.22,1.78,1.78,0,0,0-.34-1.14,1,1,0,0,0-.88-.44,1,1,0,0,0-.87.43A1.94,1.94,0,0,0,355.36,192.27Zm6.72,1.67a1.54,1.54,0,0,1-1.25.51,1.36,1.36,0,0,1-1.05-.4,1.77,1.77,0,0,1-.36-1.18v-2.78h.73v2.76c0,.65.27,1,.8,1a1.08,1.08,0,0,0,1.11-.62v-3.11h.73v4.28h-.69Zm3.89-3.2-.36,0a1,1,0,0,0-1,.61v3h-.74v-4.28h.72v.49a1.14,1.14,0,0,1,1-.57.67.67,0,0,1,.32.06Zm3.17,2.49a.54.54,0,0,0-.23-.46,2,2,0,0,0-.77-.28,3.86,3.86,0,0,1-.89-.29,1.37,1.37,0,0,1-.48-.39,1,1,0,0,1-.15-.55,1.14,1.14,0,0,1,.44-.89,1.77,1.77,0,0,1,1.14-.36,1.79,1.79,0,0,1,1.18.37,1.23,1.23,0,0,1,.45,1h-.73a.66.66,0,0,0-.26-.52.92.92,0,0,0-.64-.22,1,1,0,0,0-.63.18.52.52,0,0,0-.22.45.44.44,0,0,0,.21.4,2.82,2.82,0,0,0,.75.26,3.43,3.43,0,0,1,.89.29,1.17,1.17,0,0,1,.5.41.93.93,0,0,1,.17.58,1.09,1.09,0,0,1-.46.92,1.91,1.91,0,0,1-1.19.35,2.21,2.21,0,0,1-.91-.19,1.55,1.55,0,0,1-.62-.5,1.24,1.24,0,0,1-.22-.71h.73a.75.75,0,0,0,.29.58,1.13,1.13,0,0,0,.73.22,1.21,1.21,0,0,0,.67-.17A.53.53,0,0,0,369.14,193.23Z" transform="translate(0 -50)"/><path d="M453.9,177.34h.66a.93.93,0,0,0,.7-.24.86.86,0,0,0,.22-.62.76.76,0,0,0-.22-.59.88.88,0,0,0-.62-.21.85.85,0,0,0-.59.2.61.61,0,0,0-.24.5h-1.24a1.54,1.54,0,0,1,.26-.87,1.79,1.79,0,0,1,.74-.61,2.51,2.51,0,0,1,1-.22,2.3,2.3,0,0,1,1.55.48,1.57,1.57,0,0,1,.56,1.3,1.29,1.29,0,0,1-.26.79,1.68,1.68,0,0,1-.68.55,1.49,1.49,0,0,1,.78.56,1.55,1.55,0,0,1,.26.89,1.64,1.64,0,0,1-.61,1.34,2.43,2.43,0,0,1-1.6.5,2.33,2.33,0,0,1-1.53-.5,1.62,1.62,0,0,1-.59-1.3h1.24a.74.74,0,0,0,.26.58,1,1,0,0,0,.65.22,1,1,0,0,0,.69-.23.81.81,0,0,0,.25-.62c0-.63-.34-.94-1-.94h-.66Zm8,1.08a3.2,3.2,0,0,1-.53,2,2.13,2.13,0,0,1-3.13,0,3,3,0,0,1-.55-1.92v-1.15a3.12,3.12,0,0,1,.54-2,1.88,1.88,0,0,1,1.56-.68,1.91,1.91,0,0,1,1.56.67,3.08,3.08,0,0,1,.55,1.93Zm-1.24-1.26a2.26,2.26,0,0,0-.21-1.12.71.71,0,0,0-.66-.36.74.74,0,0,0-.65.34,2.12,2.12,0,0,0-.21,1v1.52a2.4,2.4,0,0,0,.2,1.13.7.7,0,0,0,.67.37.68.68,0,0,0,.65-.36,2.17,2.17,0,0,0,.21-1.08Zm6.14-.74a1.47,1.47,0,0,1-.22.81,1.71,1.71,0,0,1-.63.56,1.84,1.84,0,0,1,.72.6,1.54,1.54,0,0,1,.26.9,1.64,1.64,0,0,1-.56,1.32,2.69,2.69,0,0,1-3.08,0,1.63,1.63,0,0,1-.57-1.31,1.54,1.54,0,0,1,.27-.9,1.73,1.73,0,0,1,.71-.6,1.68,1.68,0,0,1-.62-.56,1.47,1.47,0,0,1-.22-.81,1.57,1.57,0,0,1,.53-1.26,2.05,2.05,0,0,1,1.44-.48,2.13,2.13,0,0,1,1.44.47A1.62,1.62,0,0,1,466.77,176.42Zm-1.11,2.78a.92.92,0,0,0-.23-.65.85.85,0,0,0-.63-.24.82.82,0,0,0-.63.24.88.88,0,0,0-.24.65.9.9,0,0,0,.23.64.95.95,0,0,0,1.27,0A.85.85,0,0,0,465.66,179.2Zm-.12-2.72a.85.85,0,0,0-.2-.58.67.67,0,0,0-.54-.22.7.7,0,0,0-.54.21.85.85,0,0,0-.19.59.88.88,0,0,0,.19.6.65.65,0,0,0,.54.23.63.63,0,0,0,.54-.23A.89.89,0,0,0,465.54,176.48Zm2.58,6.08-.65-.34.15-.27a2.2,2.2,0,0,0,.3-1v-1h1v.85a2.13,2.13,0,0,1-.24,1A2.59,2.59,0,0,1,468.12,182.56Zm6-7.1L471.71,181h-1.3l2.41-5.23h-3.1v-1h4.4Zm4.46,3.19h.7v1h-.7V181h-1.24v-1.35h-2.55l-.06-.78,2.6-4.1h1.25Zm-2.62,0h1.38v-2.2l-.08.15Zm9.13.71a.79.79,0,0,0-.19-.56,1.79,1.79,0,0,0-.66-.38,8.15,8.15,0,0,1-.81-.35,2.48,2.48,0,0,1-.58-.4,1.71,1.71,0,0,1-.38-.53,1.93,1.93,0,0,1-.13-.72,1.61,1.61,0,0,1,.46-1.19,2,2,0,0,1,1.23-.53v-.92h.69v.93a1.76,1.76,0,0,1,1.18.63,2.05,2.05,0,0,1,.43,1.36h-1.24a1.2,1.2,0,0,0-.21-.77.8.8,0,0,0-1.11-.05.73.73,0,0,0-.19.54.72.72,0,0,0,.19.53,2,2,0,0,0,.69.4,8,8,0,0,1,.85.39,2.13,2.13,0,0,1,.55.41,1.41,1.41,0,0,1,.35.52,1.79,1.79,0,0,1,.12.68,1.59,1.59,0,0,1-.45,1.18,2,2,0,0,1-1.25.54v.85H484v-.85a2.09,2.09,0,0,1-1.37-.62,2.05,2.05,0,0,1-.47-1.41h1.23a1.17,1.17,0,0,0,.24.79.9.9,0,0,0,.7.27.89.89,0,0,0,.6-.2A.7.7,0,0,0,485.09,179.36Z" transform="translate(0 -50)"/><path class="cls-2" d="M453.65,191.93v2.26h-.76v-5.76H455a2.14,2.14,0,0,1,1.48.48,1.64,1.64,0,0,1,.53,1.28,1.6,1.6,0,0,1-.52,1.29,2.24,2.24,0,0,1-1.5.45Zm0-.62H455a1.34,1.34,0,0,0,.93-.28,1,1,0,0,0,.33-.83,1.06,1.06,0,0,0-.33-.82,1.25,1.25,0,0,0-.89-.32h-1.4Zm6.3-.74a2,2,0,0,0-.36,0,1,1,0,0,0-1,.61v3h-.73v-4.28h.71v.49a1.14,1.14,0,0,1,1-.57.72.72,0,0,1,.33.06Zm1.47,3.62h-.73v-4.28h.73Zm-.79-5.41a.44.44,0,0,1,.1-.3.42.42,0,0,1,.33-.13.38.38,0,0,1,.32.13.44.44,0,0,1,.11.3.42.42,0,0,1-.11.29.41.41,0,0,1-.32.12.45.45,0,0,1-.33-.12A.41.41,0,0,1,460.63,188.78Zm3.4,2.69,1-1.56h.85l-1.4,2.11,1.44,2.17H465l-1-1.6-1,1.6h-.85l1.44-2.17-1.4-2.11h.85Zm7.08,1.58a.51.51,0,0,0-.23-.45,2,2,0,0,0-.78-.29,3.35,3.35,0,0,1-.88-.29,1.21,1.21,0,0,1-.48-.39,1,1,0,0,1-.16-.54,1.09,1.09,0,0,1,.45-.89,1.68,1.68,0,0,1,1.14-.37,1.77,1.77,0,0,1,1.17.38,1.17,1.17,0,0,1,.46,1h-.74a.63.63,0,0,0-.26-.52,1,1,0,0,0-.63-.22,1,1,0,0,0-.63.18.52.52,0,0,0-.22.45.45.45,0,0,0,.2.4,2.92,2.92,0,0,0,.76.26,4,4,0,0,1,.89.29,1.3,1.3,0,0,1,.5.41,1,1,0,0,1,.17.58,1.11,1.11,0,0,1-.46.92,1.93,1.93,0,0,1-1.19.35,2.17,2.17,0,0,1-.91-.18,1.65,1.65,0,0,1-.62-.51,1.24,1.24,0,0,1-.22-.71h.73a.77.77,0,0,0,.29.59,1.19,1.19,0,0,0,.73.21,1.17,1.17,0,0,0,.66-.17A.52.52,0,0,0,471.11,193.05Zm4.32.71a1.54,1.54,0,0,1-1.25.51,1.36,1.36,0,0,1-1.05-.4,1.82,1.82,0,0,1-.36-1.18v-2.78h.74v2.76c0,.65.26,1,.79,1a1.09,1.09,0,0,0,1.11-.63v-3.11h.73v4.28h-.69Zm1.65-1.75a2.53,2.53,0,0,1,.47-1.59,1.47,1.47,0,0,1,1.22-.59,1.49,1.49,0,0,1,1.22.55l0-.47h.67v4.18a1.72,1.72,0,0,1-.5,1.3,1.82,1.82,0,0,1-1.32.48,2,2,0,0,1-.9-.2,1.49,1.49,0,0,1-.68-.54l.38-.44a1.42,1.42,0,0,0,1.15.58,1,1,0,0,0,1.13-1.14v-.37a1.49,1.49,0,0,1-1.2.51,1.44,1.44,0,0,1-1.21-.61A2.63,2.63,0,0,1,477.08,192Zm.74.09a2,2,0,0,0,.29,1.14,1,1,0,0,0,.83.41,1.08,1.08,0,0,0,1-.63v-2a1.08,1.08,0,0,0-1-.62,1,1,0,0,0-.83.42A2.06,2.06,0,0,0,477.82,192.1Zm3.81-.09a2.52,2.52,0,0,1,.46-1.59,1.6,1.6,0,0,1,2.45,0l0-.47h.67v4.18a1.72,1.72,0,0,1-.49,1.3,1.82,1.82,0,0,1-1.32.48,2.11,2.11,0,0,1-.91-.2,1.52,1.52,0,0,1-.67-.54l.38-.44a1.41,1.41,0,0,0,1.15.58,1.09,1.09,0,0,0,.82-.3,1.1,1.1,0,0,0,.31-.84v-.37a1.52,1.52,0,0,1-1.2.51,1.46,1.46,0,0,1-1.22-.61A2.63,2.63,0,0,1,481.63,192Zm.73.09a1.93,1.93,0,0,0,.3,1.14,1,1,0,0,0,.83.41,1.08,1.08,0,0,0,1-.63v-2a1.09,1.09,0,0,0-1-.62,1,1,0,0,0-.84.42A2.06,2.06,0,0,0,482.36,192.1Zm5.76,2.17a1.85,1.85,0,0,1-1.41-.57,2.11,2.11,0,0,1-.55-1.53V192a2.57,2.57,0,0,1,.24-1.13,1.86,1.86,0,0,1,.68-.78,1.74,1.74,0,0,1,.95-.29,1.6,1.6,0,0,1,1.3.55,2.37,2.37,0,0,1,.46,1.57v.31h-2.9a1.55,1.55,0,0,0,.37,1,1.17,1.17,0,0,0,.9.39,1.24,1.24,0,0,0,.66-.16,1.55,1.55,0,0,0,.47-.42l.44.35A1.78,1.78,0,0,1,488.12,194.27Zm-.09-3.84a1,1,0,0,0-.74.33,1.49,1.49,0,0,0-.37.9h2.14v-.06a1.36,1.36,0,0,0-.3-.86A.94.94,0,0,0,488,190.43Zm.36-2.31h.88l-1.06,1.16h-.58Zm4.32,2.45a2,2,0,0,0-.36,0,1,1,0,0,0-1,.61v3h-.73v-4.28h.71v.49a1.14,1.14,0,0,1,1-.57.72.72,0,0,1,.33.06Zm2.37,3.7a1.85,1.85,0,0,1-1.41-.57,2.11,2.11,0,0,1-.55-1.53V192a2.57,2.57,0,0,1,.24-1.13,1.79,1.79,0,0,1,.68-.78,1.71,1.71,0,0,1,.95-.29,1.6,1.6,0,0,1,1.3.55,2.43,2.43,0,0,1,.46,1.57v.31h-2.9a1.5,1.5,0,0,0,.37,1,1.16,1.16,0,0,0,.9.39,1.18,1.18,0,0,0,.65-.16,1.58,1.58,0,0,0,.48-.42l.44.35A1.79,1.79,0,0,1,495.08,194.27Zm-.09-3.84a1,1,0,0,0-.74.33,1.56,1.56,0,0,0-.38.9H496v-.06a1.49,1.49,0,0,0-.3-.86A1,1,0,0,0,495,190.43Zm.35-2.31h.89l-1.06,1.16h-.59Zm2.23,5.68a.47.47,0,0,1,.11-.31.42.42,0,0,1,.34-.13.41.41,0,0,1,.34.13.43.43,0,0,1,.12.31.41.41,0,0,1-.12.31.44.44,0,0,1-.34.12.4.4,0,0,1-.45-.43Zm0-3.49a.47.47,0,0,1,.79-.31.46.46,0,0,1,0,.62.54.54,0,0,1-.68,0A.42.42,0,0,1,497.58,190.31Zm5,.64h.55a1.18,1.18,0,0,0,.82-.27.88.88,0,0,0,.29-.71.89.89,0,0,0-1-1,1,1,0,0,0-.76.28.92.92,0,0,0-.28.71h-.73a1.46,1.46,0,0,1,.49-1.13,1.86,1.86,0,0,1,1.28-.46,1.82,1.82,0,0,1,1.27.43A1.57,1.57,0,0,1,505,190a1.29,1.29,0,0,1-.25.73,1.51,1.51,0,0,1-.66.53,1.38,1.38,0,0,1,.73.49,1.34,1.34,0,0,1,.26.85,1.58,1.58,0,0,1-.5,1.23,1.88,1.88,0,0,1-1.32.46,2,2,0,0,1-1.32-.44,1.45,1.45,0,0,1-.51-1.16h.74a1,1,0,0,0,.3.73,1.11,1.11,0,0,0,.79.27,1.09,1.09,0,0,0,.81-.28,1,1,0,0,0,.28-.79,1,1,0,0,0-.31-.77,1.35,1.35,0,0,0-.89-.28h-.55Zm6.57,1.31h.8v.59h-.8v1.34h-.73v-1.34h-2.62v-.43l2.58-4h.77Zm-2.52,0h1.79v-2.83l-.09.16Zm5-1.31h.55a1.17,1.17,0,0,0,.81-.27.89.89,0,0,0,.3-.71.9.9,0,0,0-1-1,1,1,0,0,0-.76.28.92.92,0,0,0-.28.71h-.73a1.46,1.46,0,0,1,.49-1.13,2.06,2.06,0,0,1,2.56,0A1.6,1.6,0,0,1,514,190a1.22,1.22,0,0,1-.25.73,1.51,1.51,0,0,1-.66.53,1.38,1.38,0,0,1,.73.49,1.35,1.35,0,0,1,.27.85,1.56,1.56,0,0,1-.51,1.23,1.88,1.88,0,0,1-1.32.46,2,2,0,0,1-1.32-.44,1.44,1.44,0,0,1-.5-1.16h.73a1,1,0,0,0,.3.73,1.11,1.11,0,0,0,.79.27,1.08,1.08,0,0,0,.81-.28,1,1,0,0,0,.28-.79,1,1,0,0,0-.3-.77,1.39,1.39,0,0,0-.89-.28h-.55Zm3.57,2.85a.47.47,0,0,1,.11-.31.51.51,0,0,1,.68,0,.43.43,0,0,1,.12.31.41.41,0,0,1-.12.31.45.45,0,0,1-.79-.31Zm3.11-2.85h.55a1.17,1.17,0,0,0,.81-.27.89.89,0,0,0,.3-.71.9.9,0,0,0-1-1,1,1,0,0,0-.76.28.92.92,0,0,0-.28.71h-.73a1.44,1.44,0,0,1,.5-1.13,2,2,0,0,1,2.55,0,1.6,1.6,0,0,1,.46,1.2,1.22,1.22,0,0,1-.25.73,1.51,1.51,0,0,1-.66.53,1.38,1.38,0,0,1,.73.49,1.34,1.34,0,0,1,.26.85,1.55,1.55,0,0,1-.5,1.23,1.88,1.88,0,0,1-1.32.46,2,2,0,0,1-1.32-.44,1.48,1.48,0,0,1-.5-1.16h.73a1,1,0,0,0,.3.73,1.13,1.13,0,0,0,.79.27,1.06,1.06,0,0,0,.81-.28,1,1,0,0,0,.28-.79,1,1,0,0,0-.3-.77,1.39,1.39,0,0,0-.89-.28h-.55Zm6.57,1.31h.8v.59h-.8v1.34h-.74v-1.34h-2.62v-.43l2.58-4h.78Zm-2.53,0h1.79v-2.83l-.09.16Zm6.89.45a.84.84,0,0,0-.26-.62,2.43,2.43,0,0,0-.85-.45,2.63,2.63,0,0,1-1.23-.67,1.45,1.45,0,0,1-.39-1.05,1.53,1.53,0,0,1,.38-1.06,1.58,1.58,0,0,1,1-.49v-.87h.59v.87a1.53,1.53,0,0,1,1,.56,2,2,0,0,1,.37,1.27h-.73a1.4,1.4,0,0,0-.26-.88.88.88,0,0,0-.72-.33,1,1,0,0,0-.72.25.91.91,0,0,0-.25.67.81.81,0,0,0,.27.64,2.34,2.34,0,0,0,.86.44,3.46,3.46,0,0,1,.94.43,1.44,1.44,0,0,1,.66,1.28,1.45,1.45,0,0,1-.4,1.07,1.79,1.79,0,0,1-1.12.49V195h-.59v-.75a1.71,1.71,0,0,1-1.15-.53,1.76,1.76,0,0,1-.42-1.24H527a1.18,1.18,0,0,0,.29.85,1.08,1.08,0,0,0,.82.29,1.19,1.19,0,0,0,.81-.25A.82.82,0,0,0,529.26,192.71Z" transform="translate(0 -50)"/><rect class="cls-3" x="70.55" y="105.92" width="566.34" height="53.17" rx="5.95"/><ellipse cx="595.9" cy="135.74" rx="1.06" ry="0.97"/><ellipse cx="600.14" cy="135.74" rx="1.06" ry="0.97"/><ellipse cx="604.37" cy="135.74" rx="1.06" ry="0.97"/><rect class="cls-3" x="70.55" y="170.74" width="566.34" height="53.17" rx="5.95"/><ellipse cx="595.9" cy="200.56" rx="1.06" ry="0.97"/><ellipse cx="600.14" cy="200.56" rx="1.06" ry="0.97"/><ellipse cx="604.37" cy="200.56" rx="1.06" ry="0.97"/><path class="cls-4" d="M145.43,235.39h68.49a4.58,4.58,0,0,1,4.59,4.59h0a4.59,4.59,0,0,1-4.59,4.59H145.43a4.6,4.6,0,0,1-4.59-4.59h0A4.59,4.59,0,0,1,145.43,235.39Z" transform="translate(0 -50)"/><path class="cls-4" d="M456.81,235.39h28.24a4.58,4.58,0,0,1,4.59,4.59h0a4.59,4.59,0,0,1-4.59,4.59H456.81a4.59,4.59,0,0,1-4.59-4.59h0A4.58,4.58,0,0,1,456.81,235.39Z" transform="translate(0 -50)"/><path class="cls-5" d="M143.32,252.34H216a2.47,2.47,0,0,1,2.47,2.47h0a2.48,2.48,0,0,1-2.47,2.47H143.32a2.48,2.48,0,0,1-2.48-2.47h0A2.47,2.47,0,0,1,143.32,252.34Z" transform="translate(0 -50)"/><path class="cls-5" d="M235.1,252.34h72.73a2.47,2.47,0,0,1,2.47,2.47h0a2.48,2.48,0,0,1-2.47,2.47H235.1a2.48,2.48,0,0,1-2.47-2.47h0A2.47,2.47,0,0,1,235.1,252.34Z" transform="translate(0 -50)"/><path class="cls-5" d="M326.89,252.34h72.73a2.47,2.47,0,0,1,2.47,2.47h0a2.48,2.48,0,0,1-2.47,2.47H326.89a2.48,2.48,0,0,1-2.47-2.47h0A2.47,2.47,0,0,1,326.89,252.34Z" transform="translate(0 -50)"/><path class="cls-5" d="M454.69,252.34h99.55a2.47,2.47,0,0,1,2.48,2.47h0a2.48,2.48,0,0,1-2.48,2.47H454.69a2.48,2.48,0,0,1-2.47-2.47h0A2.47,2.47,0,0,1,454.69,252.34Z" transform="translate(0 -50)"/><path class="cls-5" d="M91.07,245.27h19.06a2.47,2.47,0,0,1,2.47,2.48h0a2.47,2.47,0,0,1-2.47,2.47H91.07a2.47,2.47,0,0,1-2.47-2.47h0A2.47,2.47,0,0,1,91.07,245.27Z" transform="translate(0 -50)"/><rect class="cls-3" x="70.55" y="243.54" width="566.34" height="53.17" rx="5.95"/><ellipse cx="595.9" cy="273.37" rx="1.06" ry="0.97"/><ellipse cx="600.14" cy="273.37" rx="1.06" ry="0.97"/><ellipse cx="604.37" cy="273.37" rx="1.06" ry="0.97"/><path class="cls-4" d="M145.43,308.2h68.49a4.58,4.58,0,0,1,4.59,4.59h0a4.58,4.58,0,0,1-4.59,4.58H145.43a4.59,4.59,0,0,1-4.59-4.58h0A4.59,4.59,0,0,1,145.43,308.2Z" transform="translate(0 -50)"/><path class="cls-4" d="M456.81,308.2h28.24a4.58,4.58,0,0,1,4.59,4.59h0a4.58,4.58,0,0,1-4.59,4.58H456.81a4.58,4.58,0,0,1-4.59-4.58h0A4.58,4.58,0,0,1,456.81,308.2Z" transform="translate(0 -50)"/><rect class="cls-5" x="140.84" y="275.14" width="77.67" height="4.94" rx="2.47"/><rect class="cls-5" x="232.63" y="275.14" width="77.67" height="4.94" rx="2.47"/><rect class="cls-5" x="324.42" y="275.14" width="77.67" height="4.94" rx="2.47"/><rect class="cls-5" x="452.22" y="275.14" width="104.5" height="4.94" rx="2.47"/><rect class="cls-5" x="88.6" y="268.08" width="24.01" height="4.94" rx="2.47"/><rect class="cls-6" x="610.43" y="0.43" width="258.23" height="319.37" rx="8.18"/><path d="M646,75.75h-3.92V86.41h-2.64V75.75h-3.87V73.61H646Zm4.17,7.06,1.76-5.91h2.72l-3.82,11-.21.51a2.89,2.89,0,0,1-2.81,1.86,4.08,4.08,0,0,1-1.13-.17V88.16h.39a2.11,2.11,0,0,0,1.07-.22,1.49,1.49,0,0,0,.57-.73l.29-.79-3.33-9.53h2.74Zm14.05-1.07a5.77,5.77,0,0,1-1,3.53,3.22,3.22,0,0,1-2.69,1.31,3,3,0,0,1-2.33-1v4.48h-2.54V76.9H658l.09.93a3,3,0,0,1,2.41-1.11,3.23,3.23,0,0,1,2.73,1.3,5.89,5.89,0,0,1,1,3.59Zm-2.54-.18a3.68,3.68,0,0,0-.48-2,1.51,1.51,0,0,0-1.36-.72,1.65,1.65,0,0,0-1.64.91v3.9a1.7,1.7,0,0,0,1.66.94C661.08,84.54,661.69,83.54,661.69,81.56Zm8.5,5a4.66,4.66,0,0,1-3.41-1.28,4.54,4.54,0,0,1-1.31-3.42v-.24a5.7,5.7,0,0,1,.55-2.56,4,4,0,0,1,1.57-1.74,4.4,4.4,0,0,1,2.32-.62A3.91,3.91,0,0,1,673,78a5,5,0,0,1,1.13,3.49v1H668a2.34,2.34,0,0,0,.74,1.49,2.25,2.25,0,0,0,1.57.57,2.75,2.75,0,0,0,2.3-1.07l1.25,1.4a3.9,3.9,0,0,1-1.55,1.27A5.24,5.24,0,0,1,670.19,86.58Zm-.29-7.8a1.58,1.58,0,0,0-1.23.51,2.58,2.58,0,0,0-.6,1.46h3.53v-.2a1.88,1.88,0,0,0-.45-1.31A1.65,1.65,0,0,0,669.9,78.78Zm9.74,2.8a5.76,5.76,0,0,1,1-3.54,3.25,3.25,0,0,1,2.73-1.32,2.94,2.94,0,0,1,2.3,1V72.91h2.54v13.5h-2.29l-.12-1a3,3,0,0,1-2.45,1.18,3.24,3.24,0,0,1-2.69-1.31A6,6,0,0,1,679.64,81.58Zm2.53.19a3.77,3.77,0,0,0,.47,2,1.52,1.52,0,0,0,1.35.71,1.71,1.71,0,0,0,1.67-1V79.78a1.69,1.69,0,0,0-1.65-1C682.79,78.79,682.17,79.78,682.17,81.77Zm9.44-7.57-.25,3.55h-1.61V72.91h1.86Zm6.55,12.21a2.67,2.67,0,0,1-.25-.85,3.1,3.1,0,0,1-2.4,1,3.42,3.42,0,0,1-2.32-.8,2.61,2.61,0,0,1-.92-2,2.69,2.69,0,0,1,1.12-2.32,5.49,5.49,0,0,1,3.24-.82h1.17v-.55a1.53,1.53,0,0,0-.34-1,1.33,1.33,0,0,0-1.06-.4,1.54,1.54,0,0,0-1,.31,1.07,1.07,0,0,0-.37.84h-2.54a2.51,2.51,0,0,1,.51-1.52,3.28,3.28,0,0,1,1.45-1.1,5.16,5.16,0,0,1,2.09-.41,4.11,4.11,0,0,1,2.78.89,3.05,3.05,0,0,1,1,2.48v4.12a4.55,4.55,0,0,0,.38,2.05v.15Zm-2.1-1.77a2.27,2.27,0,0,0,1-.24,1.7,1.7,0,0,0,.7-.68V82.08h-.95c-1.27,0-2,.44-2,1.32v.15a1,1,0,0,0,.34.78A1.26,1.26,0,0,0,696.06,84.64Zm10.2-.1a1.64,1.64,0,0,0,1.14-.39,1.4,1.4,0,0,0,.46-1h2.38a3.29,3.29,0,0,1-.53,1.78,3.5,3.5,0,0,1-1.42,1.24,4.37,4.37,0,0,1-2,.44,4.15,4.15,0,0,1-3.22-1.29,5.16,5.16,0,0,1-1.17-3.58v-.17A5.06,5.06,0,0,1,703.08,78a4.06,4.06,0,0,1,3.2-1.31,4,4,0,0,1,2.86,1,3.59,3.59,0,0,1,1.1,2.7h-2.38a1.8,1.8,0,0,0-.46-1.2,1.51,1.51,0,0,0-1.16-.46,1.53,1.53,0,0,0-1.34.65,3.72,3.72,0,0,0-.45,2.09v.26a3.76,3.76,0,0,0,.45,2.11A1.54,1.54,0,0,0,706.26,84.54Zm7.91-6.6a3.17,3.17,0,0,1,2.54-1.22c2.06,0,3.11,1.2,3.13,3.6v6.09H717.3v-6a1.73,1.73,0,0,0-.35-1.21,1.5,1.5,0,0,0-1.17-.39,1.71,1.71,0,0,0-1.61.86v6.76h-2.54V72.91h2.54Zm13.1,8.47a2.67,2.67,0,0,1-.25-.85,3.1,3.1,0,0,1-2.4,1,3.42,3.42,0,0,1-2.32-.8,2.61,2.61,0,0,1-.92-2,2.69,2.69,0,0,1,1.12-2.32,5.49,5.49,0,0,1,3.24-.82h1.17v-.55a1.53,1.53,0,0,0-.34-1,1.33,1.33,0,0,0-1.06-.4,1.59,1.59,0,0,0-1,.31,1.06,1.06,0,0,0-.36.84h-2.54a2.51,2.51,0,0,1,.51-1.52,3.31,3.31,0,0,1,1.44-1.1,5.24,5.24,0,0,1,2.1-.41,4.11,4.11,0,0,1,2.78.89,3.08,3.08,0,0,1,1,2.48v4.12a4.55,4.55,0,0,0,.38,2.05v.15Zm-2.1-1.77a2.27,2.27,0,0,0,1-.24,1.7,1.7,0,0,0,.7-.68V82.08H726c-1.27,0-2,.44-2,1.32v.15a1,1,0,0,0,.34.78A1.26,1.26,0,0,0,725.17,84.64Zm9.28-10.08V76.9h1.63v1.86h-1.63v4.75a1.14,1.14,0,0,0,.2.75,1,1,0,0,0,.78.23,4,4,0,0,0,.74-.06v1.93a5.24,5.24,0,0,1-1.53.22,2.43,2.43,0,0,1-2.73-2.69V78.76h-1.39V76.9h1.39V74.56Z" transform="translate(0 -50)"/><path d="M659,124.47h-3.85v4.06h-1.22v-9.2h5.7v1h-4.48v3.15H659Zm5-1.73a3.52,3.52,0,0,0-.58,0,1.55,1.55,0,0,0-1.56,1v4.85h-1.17V121.7h1.14l0,.79a1.81,1.81,0,0,1,1.63-.92,1.21,1.21,0,0,1,.52.09Zm3.78,5.91a3,3,0,0,1-2.26-.91,3.39,3.39,0,0,1-.87-2.44v-.21a4.12,4.12,0,0,1,.39-1.82,3.07,3.07,0,0,1,1.08-1.25,2.76,2.76,0,0,1,1.52-.45,2.56,2.56,0,0,1,2.07.88,3.8,3.8,0,0,1,.74,2.51v.49h-4.63a2.44,2.44,0,0,0,.59,1.63,1.85,1.85,0,0,0,1.43.62,2.09,2.09,0,0,0,1-.25,2.52,2.52,0,0,0,.75-.67l.72.55A2.87,2.87,0,0,1,667.8,128.65Zm-.14-6.12a1.55,1.55,0,0,0-1.19.52,2.44,2.44,0,0,0-.59,1.44h3.42v-.09a2.26,2.26,0,0,0-.48-1.38A1.45,1.45,0,0,0,667.66,122.53Zm.56-3.7h1.42L668,120.69H667Zm3.32,6.22a4,4,0,0,1,.74-2.54,2.6,2.6,0,0,1,3.89-.13l.05-.68h1.08v9.45h-1.17v-3.26a2.43,2.43,0,0,1-1.88.76,2.36,2.36,0,0,1-2-1,4.09,4.09,0,0,1-.73-2.55Zm1.17.14a3,3,0,0,0,.49,1.84,1.58,1.58,0,0,0,1.34.67,1.76,1.76,0,0,0,1.59-.92v-3.35a1.76,1.76,0,0,0-1.58-.9,1.56,1.56,0,0,0-1.34.68A3.21,3.21,0,0,0,672.71,125.19Zm10.68,2.66a2.5,2.5,0,0,1-2,.8,2.14,2.14,0,0,1-1.67-.63,2.73,2.73,0,0,1-.57-1.88V121.7h1.16v4.41c0,1,.42,1.55,1.27,1.55a1.75,1.75,0,0,0,1.78-1v-5h1.17v6.83h-1.12Zm5.75.8a3,3,0,0,1-2.26-.91,3.39,3.39,0,0,1-.87-2.44v-.21a4.26,4.26,0,0,1,.38-1.82,3.09,3.09,0,0,1,1.09-1.25,2.75,2.75,0,0,1,1.51-.45,2.57,2.57,0,0,1,2.08.88,3.8,3.8,0,0,1,.73,2.51v.49h-4.62a2.43,2.43,0,0,0,.58,1.63,1.88,1.88,0,0,0,1.44.62,2.15,2.15,0,0,0,1-.25,2.52,2.52,0,0,0,.75-.67l.72.55A2.89,2.89,0,0,1,689.14,128.65Zm-.15-6.12a1.53,1.53,0,0,0-1.18.52,2.51,2.51,0,0,0-.6,1.44h3.43v-.09a2.32,2.32,0,0,0-.48-1.38A1.48,1.48,0,0,0,689,122.53Zm5.28-.83,0,.86a2.51,2.51,0,0,1,2.05-1c1.44,0,2.17.81,2.18,2.44v4.52h-1.17V124a1.53,1.53,0,0,0-.34-1.1,1.36,1.36,0,0,0-1-.35,1.68,1.68,0,0,0-1,.3,2.09,2.09,0,0,0-.67.8v4.87h-1.17V121.7Zm8.76,6a1.73,1.73,0,0,0,1.1-.38,1.32,1.32,0,0,0,.51-.95h1.11a2.11,2.11,0,0,1-.41,1.12,2.57,2.57,0,0,1-1,.85,2.88,2.88,0,0,1-1.32.31,2.82,2.82,0,0,1-2.22-.93,3.71,3.71,0,0,1-.82-2.55V125a4,4,0,0,1,.37-1.77,2.76,2.76,0,0,1,1-1.21,2.92,2.92,0,0,1,1.62-.43,2.71,2.71,0,0,1,1.9.69,2.47,2.47,0,0,1,.82,1.78h-1.11a1.57,1.57,0,0,0-.5-1.08,1.53,1.53,0,0,0-1.11-.43,1.61,1.61,0,0,0-1.38.64,3,3,0,0,0-.49,1.85v.22a2.9,2.9,0,0,0,.49,1.82A1.61,1.61,0,0,0,703,127.7Zm6.87,1a3,3,0,0,1-2.26-.91,3.35,3.35,0,0,1-.88-2.44v-.21a4.12,4.12,0,0,1,.39-1.82,3.07,3.07,0,0,1,1.08-1.25,2.78,2.78,0,0,1,1.52-.45,2.54,2.54,0,0,1,2.07.88,3.8,3.8,0,0,1,.74,2.51v.49h-4.63a2.49,2.49,0,0,0,.59,1.63,1.88,1.88,0,0,0,1.44.62,2.15,2.15,0,0,0,1-.25,2.78,2.78,0,0,0,.75-.67l.71.55A2.86,2.86,0,0,1,709.9,128.65Zm-.15-6.12a1.55,1.55,0,0,0-1.19.52,2.51,2.51,0,0,0-.59,1.44h3.42v-.09a2.2,2.2,0,0,0-.48-1.38A1.44,1.44,0,0,0,709.75,122.53Z" transform="translate(0 -50)"/><path d="M661.14,180.7a5.58,5.58,0,0,1-.46,2.36,3.49,3.49,0,0,1-1.28,1.54,3.6,3.6,0,0,1-1.95.53,3.43,3.43,0,0,1-3.23-2.06,5.47,5.47,0,0,1-.48-2.29v-.66a5.59,5.59,0,0,1,.47-2.34,3.44,3.44,0,0,1,3.23-2.1,3.52,3.52,0,0,1,1.94.54,3.33,3.33,0,0,1,1.3,1.55,5.54,5.54,0,0,1,.46,2.35Zm-1.21-.59a4.17,4.17,0,0,0-.65-2.51,2.19,2.19,0,0,0-1.84-.88,2.15,2.15,0,0,0-1.81.88A4,4,0,0,0,655,180v.67a4.19,4.19,0,0,0,.66,2.5,2.34,2.34,0,0,0,3.66,0,4.08,4.08,0,0,0,.66-2.45Zm8.62,1.55a4.09,4.09,0,0,1-.71,2.52,2.33,2.33,0,0,1-1.94.95,2.38,2.38,0,0,1-2-.92l-.06.79h-1.07v-9.7h1.17v3.62a2.38,2.38,0,0,1,1.95-.88,2.32,2.32,0,0,1,2,.94,4.16,4.16,0,0,1,.71,2.58Zm-1.16-.13a3.24,3.24,0,0,0-.46-1.85,1.53,1.53,0,0,0-1.33-.64,1.71,1.71,0,0,0-1.66,1.07v2.95a1.75,1.75,0,0,0,1.67,1.07,1.52,1.52,0,0,0,1.31-.64A3.39,3.39,0,0,0,667.39,181.53Zm3.85-3.36v7.62c0,1.31-.6,2-1.79,2a2.3,2.3,0,0,1-.71-.11v-.94a2.44,2.44,0,0,0,.53,0,.77.77,0,0,0,.59-.21,1,1,0,0,0,.21-.74v-7.64ZM670,176.36a.72.72,0,0,1,.17-.48.66.66,0,0,1,.51-.2.67.67,0,0,1,.52.2.68.68,0,0,1,.18.48.64.64,0,0,1-.18.47.67.67,0,0,1-.52.19.63.63,0,0,1-.51-.19A.68.68,0,0,1,670,176.36Zm6,8.77a3,3,0,0,1-2.26-.91,3.41,3.41,0,0,1-.87-2.45v-.21a4.18,4.18,0,0,1,.38-1.81,3,3,0,0,1,1.09-1.25,2.76,2.76,0,0,1,1.51-.46,2.6,2.6,0,0,1,2.08.88,3.81,3.81,0,0,1,.73,2.51v.49H674a2.41,2.41,0,0,0,.58,1.63,1.85,1.85,0,0,0,1.44.62,2,2,0,0,0,1.05-.25,2.52,2.52,0,0,0,.75-.67l.71.56A2.86,2.86,0,0,1,676,185.13Zm-.15-6.13a1.56,1.56,0,0,0-1.18.52A2.51,2.51,0,0,0,674,181h3.43v-.09a2.32,2.32,0,0,0-.48-1.38A1.51,1.51,0,0,0,675.81,179Zm6.91,5.17a1.63,1.63,0,0,0,1.09-.38,1.31,1.31,0,0,0,.52-.94h1.1A2.06,2.06,0,0,1,685,184a2.6,2.6,0,0,1-1,.85,2.85,2.85,0,0,1-1.31.32,2.82,2.82,0,0,1-2.22-.93,3.72,3.72,0,0,1-.82-2.55v-.2a4.18,4.18,0,0,1,.36-1.77,2.89,2.89,0,0,1,1.05-1.21,3.06,3.06,0,0,1,1.62-.43,2.73,2.73,0,0,1,1.91.69,2.45,2.45,0,0,1,.81,1.79h-1.1a1.59,1.59,0,0,0-1.62-1.52,1.64,1.64,0,0,0-1.38.65,3,3,0,0,0-.49,1.85v.22a3,3,0,0,0,.49,1.82A1.66,1.66,0,0,0,682.72,184.17Zm5.61-7.65v1.65h1.28v.9h-1.28v4.24a1,1,0,0,0,.17.62.75.75,0,0,0,.58.2,3,3,0,0,0,.56-.08V185a3.62,3.62,0,0,1-.9.13,1.45,1.45,0,0,1-1.18-.48,2,2,0,0,1-.4-1.34v-4.24h-1.24v-.9h1.24v-1.65Zm3.92,8.48h-1.17v-6.83h1.17ZM691,176.36a.72.72,0,0,1,.17-.48.78.78,0,0,1,1,0,.68.68,0,0,1,.18.48.64.64,0,0,1-.18.47.81.81,0,0,1-1,0A.68.68,0,0,1,691,176.36ZM694.7,185v-5.93h-1.08v-.9h1.08v-.7a2.34,2.34,0,0,1,.58-1.7,2.22,2.22,0,0,1,1.66-.6,3.09,3.09,0,0,1,.8.11l-.06.95a3.21,3.21,0,0,0-.63-.06,1.15,1.15,0,0,0-.88.33,1.37,1.37,0,0,0-.31.95v.72h1.46v.9h-1.46V185Zm6.84-3.47a4,4,0,0,1,.74-2.53,2.53,2.53,0,0,1,3.85-.14V175.3h1.17V185h-1.07l-.06-.73a2.39,2.39,0,0,1-1.95.86,2.35,2.35,0,0,1-1.94-1,4.07,4.07,0,0,1-.74-2.53Zm1.17.13a3,3,0,0,0,.48,1.82,1.53,1.53,0,0,0,1.32.65,1.7,1.7,0,0,0,1.62-1V180a1.71,1.71,0,0,0-1.61-1,1.55,1.55,0,0,0-1.33.66A3.31,3.31,0,0,0,702.71,181.66Zm7.12-5.66-.13,2.33h-.81v-3h.94Zm2.82,9h-1.17v-6.83h1.17Zm-1.26-8.64a.67.67,0,0,1,.17-.48.65.65,0,0,1,.51-.2.67.67,0,0,1,.52.2.68.68,0,0,1,.18.48.64.64,0,0,1-.18.47.67.67,0,0,1-.52.19.64.64,0,0,1-.51-.19A.63.63,0,0,1,711.39,176.36Zm4.23,1.81,0,.76a2.53,2.53,0,0,1,2-.89,2,2,0,0,1,2,1.1,2.56,2.56,0,0,1,2.18-1.1c1.5,0,2.26.8,2.28,2.38V185h-1.17v-4.51a1.58,1.58,0,0,0-.33-1.09,1.8,1.8,0,0,0-2.2,0,1.5,1.5,0,0,0-.5,1V185h-1.17v-4.48a1.3,1.3,0,0,0-1.46-1.48,1.57,1.57,0,0,0-1.58,1v5h-1.16v-6.83Zm16,3.49a4.11,4.11,0,0,1-.71,2.51,2.29,2.29,0,0,1-1.93,1,2.52,2.52,0,0,1-2-.79v3.29h-1.17v-9.46h1.07l.05.76a2.42,2.42,0,0,1,2-.89,2.32,2.32,0,0,1,1.94.93,4.12,4.12,0,0,1,.72,2.58Zm-1.17-.13a3,3,0,0,0-.49-1.83,1.6,1.6,0,0,0-1.35-.66A1.7,1.7,0,0,0,727,180v3.26a1.72,1.72,0,0,0,1.6.93,1.56,1.56,0,0,0,1.33-.66A3.25,3.25,0,0,0,730.46,181.53Zm6-2.31a3.45,3.45,0,0,0-.57-.05,1.54,1.54,0,0,0-1.56,1V185h-1.17v-6.83h1.14l0,.79a1.81,1.81,0,0,1,1.62-.92,1.18,1.18,0,0,1,.52.09Zm3.79,5.91a3,3,0,0,1-2.26-.91,3.41,3.41,0,0,1-.87-2.45v-.21a4.18,4.18,0,0,1,.38-1.81,3,3,0,0,1,1.09-1.25,2.76,2.76,0,0,1,1.51-.46,2.6,2.6,0,0,1,2.08.88,3.81,3.81,0,0,1,.73,2.51v.49h-4.62a2.41,2.41,0,0,0,.58,1.63,1.85,1.85,0,0,0,1.44.62,2,2,0,0,0,1.05-.25,2.52,2.52,0,0,0,.75-.67l.71.56A2.86,2.86,0,0,1,740.21,185.13Zm-.15-6.13a1.56,1.56,0,0,0-1.18.52,2.51,2.51,0,0,0-.6,1.44h3.43v-.09a2.32,2.32,0,0,0-.48-1.38A1.51,1.51,0,0,0,740.06,179Zm8.15,4.19a.84.84,0,0,0-.36-.73,3.37,3.37,0,0,0-1.25-.46,6.07,6.07,0,0,1-1.4-.45,2,2,0,0,1-.77-.63,1.52,1.52,0,0,1-.25-.88,1.8,1.8,0,0,1,.71-1.42,2.81,2.81,0,0,1,1.82-.58,2.85,2.85,0,0,1,1.88.6,1.91,1.91,0,0,1,.72,1.54h-1.17a1.07,1.07,0,0,0-.41-.83,1.52,1.52,0,0,0-1-.35,1.63,1.63,0,0,0-1,.28.89.89,0,0,0-.36.73.7.7,0,0,0,.33.63,4,4,0,0,0,1.21.41,6.36,6.36,0,0,1,1.42.47,2,2,0,0,1,.8.66,1.55,1.55,0,0,1,.27.93,1.76,1.76,0,0,1-.74,1.47,3.1,3.1,0,0,1-1.9.55,3.51,3.51,0,0,1-1.45-.29,2.49,2.49,0,0,1-1-.81,2,2,0,0,1-.35-1.13h1.16a1.25,1.25,0,0,0,.47.93,2.21,2.21,0,0,0,2.22.08A.83.83,0,0,0,748.21,183.19Zm6.66,0a.84.84,0,0,0-.36-.73,3.31,3.31,0,0,0-1.24-.46,6,6,0,0,1-1.41-.45,2.16,2.16,0,0,1-.77-.63,1.59,1.59,0,0,1-.24-.88,1.79,1.79,0,0,1,.7-1.42,3.2,3.2,0,0,1,3.7,0,1.89,1.89,0,0,1,.73,1.54H754.8a1,1,0,0,0-.41-.83,1.5,1.5,0,0,0-1-.35,1.65,1.65,0,0,0-1,.28.89.89,0,0,0-.36.73.71.71,0,0,0,.34.63,3.83,3.83,0,0,0,1.2.41,6.19,6.19,0,0,1,1.42.47,2,2,0,0,1,.81.66,1.62,1.62,0,0,1,.26.93,1.75,1.75,0,0,1-.73,1.47,3.12,3.12,0,0,1-1.9.55,3.47,3.47,0,0,1-1.45-.29,2.49,2.49,0,0,1-1-.81,2,2,0,0,1-.36-1.13h1.17a1.21,1.21,0,0,0,.47.93,1.82,1.82,0,0,0,1.16.34,1.85,1.85,0,0,0,1.06-.26A.82.82,0,0,0,754.87,183.19Zm4,1.81h-1.17v-6.83h1.17Zm-1.26-8.64a.72.72,0,0,1,.17-.48.67.67,0,0,1,.52-.2.69.69,0,0,1,.52.2.72.72,0,0,1,.17.48.62.62,0,0,1-.69.66.67.67,0,0,1-.52-.19A.68.68,0,0,1,757.57,176.36Zm2.83,5.16a4,4,0,0,1,.39-1.8,2.89,2.89,0,0,1,1.1-1.24,3,3,0,0,1,1.61-.44,2.88,2.88,0,0,1,2.25,1,3.68,3.68,0,0,1,.86,2.57v.08a4,4,0,0,1-.38,1.79,2.84,2.84,0,0,1-1.09,1.23,3,3,0,0,1-1.63.45,2.88,2.88,0,0,1-2.25-1,3.67,3.67,0,0,1-.86-2.56Zm1.17.14a3,3,0,0,0,.53,1.83,1.7,1.7,0,0,0,1.41.68,1.68,1.68,0,0,0,1.41-.69,3.22,3.22,0,0,0,.53-2,2.9,2.9,0,0,0-.54-1.82,1.77,1.77,0,0,0-2.81,0A3.21,3.21,0,0,0,761.57,181.66Zm7.61-3.49,0,.86a2.49,2.49,0,0,1,2-1c1.44,0,2.17.82,2.18,2.45V185h-1.17v-4.52a1.5,1.5,0,0,0-.34-1.09,1.33,1.33,0,0,0-1-.35,1.68,1.68,0,0,0-1,.3,2,2,0,0,0-.67.79V185h-1.17v-6.83Zm10,5a.84.84,0,0,0-.36-.73,3.38,3.38,0,0,0-1.24-.46,6,6,0,0,1-1.41-.45,2.08,2.08,0,0,1-.77-.63,1.52,1.52,0,0,1-.25-.88,1.8,1.8,0,0,1,.71-1.42,2.81,2.81,0,0,1,1.82-.58,2.85,2.85,0,0,1,1.88.6,1.91,1.91,0,0,1,.72,1.54h-1.17a1.07,1.07,0,0,0-.41-.83,1.52,1.52,0,0,0-1-.35,1.63,1.63,0,0,0-1,.28.89.89,0,0,0-.36.73.7.7,0,0,0,.33.63,4,4,0,0,0,1.21.41,6.19,6.19,0,0,1,1.42.47,2,2,0,0,1,.8.66,1.55,1.55,0,0,1,.27.93,1.77,1.77,0,0,1-.73,1.47,3.15,3.15,0,0,1-1.9.55,3.56,3.56,0,0,1-1.46-.29,2.49,2.49,0,0,1-1-.81,2,2,0,0,1-.35-1.13h1.17a1.2,1.2,0,0,0,.46.93,2.23,2.23,0,0,0,2.23.08A.82.82,0,0,0,779.19,183.19Z" transform="translate(0 -50)"/><path d="M655.13,216.26v3.6h-1.22v-9.19h3.39a3.39,3.39,0,0,1,2.36.77,2.9,2.9,0,0,1,0,4.1,3.54,3.54,0,0,1-2.39.72Zm0-1h2.17a2.19,2.19,0,0,0,1.49-.45,1.68,1.68,0,0,0,.52-1.33,1.7,1.7,0,0,0-.52-1.31,2,2,0,0,0-1.42-.52h-2.24Zm10.9,4.59a2.5,2.5,0,0,1-.17-.72,2.62,2.62,0,0,1-1.94.85,2.43,2.43,0,0,1-1.66-.57,1.88,1.88,0,0,1-.64-1.46,1.93,1.93,0,0,1,.8-1.65,3.9,3.9,0,0,1,2.29-.59h1.13v-.54a1.31,1.31,0,0,0-.36-1,1.44,1.44,0,0,0-1.08-.37,1.7,1.7,0,0,0-1,.32.92.92,0,0,0-.42.76h-1.17a1.63,1.63,0,0,1,.35-1,2.62,2.62,0,0,1,1-.76,3.26,3.26,0,0,1,1.37-.28,2.67,2.67,0,0,1,1.85.6,2.07,2.07,0,0,1,.69,1.62v3.14a3.85,3.85,0,0,0,.24,1.5v.1Zm-1.94-.89a2,2,0,0,0,1-.29,1.61,1.61,0,0,0,.71-.73v-1.41h-.91c-1.43,0-2.15.42-2.15,1.26a1.08,1.08,0,0,0,.37.86A1.38,1.38,0,0,0,664.09,219Zm8.06-4.89a3.48,3.48,0,0,0-.58-.05,1.54,1.54,0,0,0-1.56,1v4.85h-1.17V213H670l0,.79a1.81,1.81,0,0,1,1.63-.92,1.21,1.21,0,0,1,.52.09Zm3-2.7V213h1.27v.9h-1.27v4.24a.94.94,0,0,0,.17.62.72.72,0,0,0,.58.2,2.88,2.88,0,0,0,.55-.08v1a3.5,3.5,0,0,1-.9.13,1.45,1.45,0,0,1-1.18-.48,2,2,0,0,1-.39-1.34v-4.24h-1.25V213H674v-1.65Zm5.56,5a4,4,0,0,1,.75-2.53,2.35,2.35,0,0,1,1.95-1,2.39,2.39,0,0,1,1.9.82v-3.56h1.17v9.7h-1.08l0-.73a2.39,2.39,0,0,1-2,.86,2.35,2.35,0,0,1-1.94-1,4,4,0,0,1-.75-2.53Zm1.17.13a3,3,0,0,0,.48,1.82,1.54,1.54,0,0,0,1.33.65,1.7,1.7,0,0,0,1.62-1v-3.14a1.73,1.73,0,0,0-1.61-1,1.58,1.58,0,0,0-1.34.67A3.31,3.31,0,0,0,681.86,216.52Zm9.25,3.47a3,3,0,0,1-2.26-.91,3.41,3.41,0,0,1-.87-2.45v-.21a4.18,4.18,0,0,1,.38-1.81,3,3,0,0,1,1.09-1.25,2.68,2.68,0,0,1,1.51-.46,2.57,2.57,0,0,1,2.07.88,3.76,3.76,0,0,1,.74,2.51v.49h-4.62a2.41,2.41,0,0,0,.58,1.63,1.85,1.85,0,0,0,1.44.62,2,2,0,0,0,1.05-.25,2.52,2.52,0,0,0,.75-.67l.71.56A2.86,2.86,0,0,1,691.11,220Zm-.15-6.13a1.56,1.56,0,0,0-1.18.52,2.51,2.51,0,0,0-.6,1.44h3.42v-.09a2.26,2.26,0,0,0-.47-1.38A1.51,1.51,0,0,0,691,213.86Zm9.63,4.41,1.69-5.24h1.19L701,219.86h-.89L697.66,213h1.19Zm3.6-1.89a4,4,0,0,1,.39-1.8,2.89,2.89,0,0,1,1.1-1.24,3,3,0,0,1,1.61-.44,2.88,2.88,0,0,1,2.25,1,3.69,3.69,0,0,1,.87,2.57v.08a4,4,0,0,1-.39,1.79,2.78,2.78,0,0,1-1.09,1.23,3,3,0,0,1-1.63.45,2.89,2.89,0,0,1-2.25-1,3.67,3.67,0,0,1-.86-2.56Zm1.17.14a2.92,2.92,0,0,0,.53,1.82,1.68,1.68,0,0,0,1.41.69,1.71,1.71,0,0,0,1.42-.69,3.29,3.29,0,0,0,.52-2,2.9,2.9,0,0,0-.54-1.82,1.77,1.77,0,0,0-2.81,0A3.21,3.21,0,0,0,705.36,216.52Zm7.78,3.34H712V213h1.17Zm-1.26-8.64a.64.64,0,0,1,.69-.68.65.65,0,0,1,.51.2.68.68,0,0,1,.18.48.66.66,0,0,1-.18.47.64.64,0,0,1-.51.19.67.67,0,0,1-.52-.19A.65.65,0,0,1,711.88,211.22Zm5.43,4.3,1.51-2.49h1.36L718,216.41l2.3,3.45H718.9l-1.57-2.56-1.58,2.56h-1.36l2.3-3.45L714.46,213h1.35Z" transform="translate(0 -50)"/><rect class="cls-7" x="636.43" y="52.37" width="203.09" height="46.36" rx="9.5"/><rect class="cls-7" x="636.43" y="106.49" width="203.09" height="186.18" rx="9.5"/><path class="cls-8" d="M812.87,124.8a1,1,0,0,1,0-1.42l.18-.18a1,1,0,0,1,1.42,0l4.48,4.49a1,1,0,0,0,1.45,0l4-4.39a1,1,0,0,1,1.41-.06l.19.17a1,1,0,0,1,.06,1.41l-5.61,6.13a1,1,0,0,1-1.45,0Z" transform="translate(0 -50)"/><path class="cls-5" d="M656.5,237h97a3.5,3.5,0,0,1,3.5,3.5h0a3.5,3.5,0,0,1-3.5,3.5h-97a3.5,3.5,0,0,1-3.5-3.5h0A3.5,3.5,0,0,1,656.5,237Z" transform="translate(0 -50)"/><path class="cls-5" d="M656.5,257h97a3.5,3.5,0,0,1,3.5,3.5h0a3.5,3.5,0,0,1-3.5,3.5h-97a3.5,3.5,0,0,1-3.5-3.5h0A3.5,3.5,0,0,1,656.5,257Z" transform="translate(0 -50)"/><path class="cls-5" d="M656.5,277h97a3.5,3.5,0,0,1,3.5,3.5h0a3.5,3.5,0,0,1-3.5,3.5h-97a3.5,3.5,0,0,1-3.5-3.5h0A3.5,3.5,0,0,1,656.5,277Z" transform="translate(0 -50)"/><path class="cls-5" d="M656.5,297h97a3.5,3.5,0,0,1,3.5,3.5h0a3.5,3.5,0,0,1-3.5,3.5h-97a3.5,3.5,0,0,1-3.5-3.5h0A3.5,3.5,0,0,1,656.5,297Z" transform="translate(0 -50)"/><path class="cls-9" d="M594.31,363.84s-2,3-2.9,4-.2,1.7-.2,1.7l2-.6,2.2-1.8,2.7-2.1Z" transform="translate(0 -50)"/><path class="cls-9" d="M607.41,278.74a44.55,44.55,0,0,1-5.7,9.4,14.13,14.13,0,0,1-5.5,4.4c-.1,0-.2.1-.3.1a77.24,77.24,0,0,1-14,2.9c.1-.3-1.5-2.6-1.5-2.6.5,0,9.3-6.7,11.5-7.4.7-.2,11.5-23.1,12.5-23.8,1.3-1,2.8-1.5,3.9-.7C612.11,263.74,611.11,271.24,607.41,278.74Z" transform="translate(0 -50)"/><path class="cls-10" d="M602.71,262.64c-.5,1.1,8.8.5,10.6-.3,3.4-1.6,4.8-7.1,3.6-10.5A11.29,11.29,0,0,0,614,247c-1.2-1.1-2.3-.6-3.8-.5h-.1c-.2-.1-1.8,1.2-1.9,1.5-1.2,2.8-1.1,4.5-2.3,7.3C605.51,256.34,604.51,258.84,602.71,262.64Z" transform="translate(0 -50)"/><path class="cls-9" d="M636.81,359.14l-3.4,1.8s-2.4-3.5-4.5-6.4-15.3-17-15.3-17c-4.3-6.4,1.6-17.8,1.6-17.8l9.7,3.2s-2.3,6.2-2.1,6.4c.3.4.6.9,1,1.4a32.68,32.68,0,0,1,4.7,8.9c.8,2.4,4,9.9,6.1,14.9C636,357.24,636.81,359.14,636.81,359.14Z" transform="translate(0 -50)"/><path class="cls-9" d="M607.71,320.54s-.9,10.7-1.5,13.3c-.1.3-.1.7-.2,1.1v.1c-.3,2.3-2.7,9.2-6.9,24.8,0,.2-.1.3-.1.4a34.52,34.52,0,0,0-1,5.2l-3.7-1.6s.5-3.5.8-7-.3-22.9-.3-22.9c1-7.6,7.7-22.2,7.7-22.2Z" transform="translate(0 -50)"/><path class="cls-11" d="M628.71,339.64a28.89,28.89,0,0,0-4.7-8.9,3.08,3.08,0,0,0-1.6.2.53.53,0,0,0-.7.5c0,.2,0,.4.2.5a56.6,56.6,0,0,0,5.7,10.2,71.35,71.35,0,0,1,6.3,12.3.49.49,0,0,0,.8.2C632.71,349.64,629.51,342.14,628.71,339.64Z" transform="translate(0 -50)"/><path class="cls-11" d="M601,333.54c-.4-.1-.6.3-.6.7s.2.9.3,1.3a21.9,21.9,0,0,0-2.2-2c-.5-.4-1.2.4-.6.8a21.3,21.3,0,0,1,3.1,2.9c.6,7.2-2.9,14.4-2.3,21.7a3.71,3.71,0,0,0,.4,1.5c0-.1.1-.3.1-.4,4.2-15.6,6.6-22.5,6.9-24.8C604.61,334.14,602.41,333.94,601,333.54Z" transform="translate(0 -50)"/><path class="cls-12" d="M628,330.64a41.51,41.51,0,0,1-5.3,2.3c-8.1,3-23.6,6.8-35.2-2.3,0,0,8.1-.7,6.5-10.9-2-13.1,3.1-33.2,10.8-35.8s18.2,2.4,18.2,2.4a13,13,0,0,1,4,4.3,17,17,0,0,1,2.4,9.1C629.41,307.64,622.21,313.44,628,330.64Z" transform="translate(0 -50)"/><path class="cls-13" d="M629.41,299.74c.4-5.9-3.8-11.8-5.1-14-1.3.3-5.6,1.8-5.3,2.1,7.4,7.5,4,20.8,1.8,28a19.52,19.52,0,0,0-.7,9.9,36.92,36.92,0,0,0,1.9,5.6c.2.5.4,1.1.7,1.7a41.51,41.51,0,0,0,5.3-2.3C622.21,313.44,628.81,307.54,629.41,299.74Z" transform="translate(0 -50)"/><path class="cls-14" d="M599.61,285.74c15,6.6,25.3.1,24.4-1.9a9.48,9.48,0,0,1-.8-3.5,31,31,0,0,1,0-5.3,11.28,11.28,0,0,1,.2-1.4v-.1c1.2-6,3.8-13.2-3.2-15.4a13.12,13.12,0,0,0-3.1-.6,32.15,32.15,0,0,0-4.4,0,35.39,35.39,0,0,0-4.6,2c-.8.4-1.7.9-2.6,1.4-2.5,1.6-3.1,4.8-3,6.9.1,1.5,2.2,5.6,2.1,6.4C603.51,280,600.81,283.64,599.61,285.74Z" transform="translate(0 -50)"/><path class="cls-15" d="M608.41,274.14c2.2,1.7,5.3,1.7,7.9,2.7,2.3.9,4.6,3,7,3.5a31,31,0,0,1,0-5.3.1.1,0,0,0-.1-.1c.1-.4.1-.8.2-1.3v-.1a9.83,9.83,0,0,0-2.2-2.8c-2.9-2.7-2.6-9.5-2.6-9.5-.7,3.4-.3,8.5.8,10.6a18.16,18.16,0,0,0,2.3,3.3v.1c.1,1.1-6.7-1.1-7.5-1.4a16.91,16.91,0,0,0-5.5-.6A.49.49,0,0,0,608.41,274.14Z" transform="translate(0 -50)"/><path class="cls-9" d="M609.91,255.44v2.8s-.8,1.4,0,1.5c1.7.3,4.1-2.3,4.1-2.3v-3.8Z" transform="translate(0 -50)"/><path class="cls-11" d="M614,256.14v-2.2s-2.1,2-4.1,2.1A4.37,4.37,0,0,0,614,256.14Z" transform="translate(0 -50)"/><path class="cls-9" d="M609.11,247.24a22.26,22.26,0,0,0-1.9,5.9c-.3,2,3.4,4.7,6.4,1.8s2.2-7.2,2.2-7.2Z" transform="translate(0 -50)"/><path class="cls-16" d="M598.51,362.34a2.86,2.86,0,0,1,.7,2.6,14.63,14.63,0,0,0-5.6,5.9c-.5.9-3.2.2-4.3.2,0,0-1.1-.5-.3-1.7.3-.5,1.8-1.1,2.2-1.5C591.91,369.34,594.71,367.14,598.51,362.34Z" transform="translate(0 -50)"/><path class="cls-16" d="M599.21,364.94l-.6,6-1,.1-.1-5.7Z" transform="translate(0 -50)"/><path class="cls-9" d="M633.41,360.94a40.19,40.19,0,0,1,.7,4.8c0,1.4,1.1,1.3,1.1,1.3l1-1.8.2-2.8.4-3.4Z" transform="translate(0 -50)"/><path class="cls-16" d="M635.91,357s.7-.3,1.9,1.2a15.17,15.17,0,0,0,.1,8.1c.3,1-2.2,2.4-2.9,3.1,0,0-1.1.4-1.3-1-.1-.6.6-2,.5-2.6C635.61,366.44,636.51,363.14,635.91,357Z" transform="translate(0 -50)"/><path class="cls-16" d="M637.81,358.24l3.8,4.7-.8.7-4-4Z" transform="translate(0 -50)"/><path class="cls-9" d="M633.71,268.94c.2-.5-10.4-11-14.5-9.5-2.5,1-1.5,5.7-.9,7.8,1.4,4.5,12.6,14.3,12.2,14.7a13.08,13.08,0,0,1-3.4,1.2,75.53,75.53,0,0,1-7.8.8c-4.5.2-8.7.2-8.9.3,0,0,1.2,3.1,1.3,3.4a21.81,21.81,0,0,0,2.9,1c4.6,1.4,14.7,2.2,21.3-.2C641.91,286.14,639.21,274.84,633.71,268.94Z" transform="translate(0 -50)"/><path class="cls-11" d="M631.81,283.84c3.5-2.4-1.3-4.9-3.2-7.2-2.2-.8-4.2-2-4.6-1.7,2,2.1,6.5,6.9,6.5,6.9a13.08,13.08,0,0,1-3.4,1.2,75.53,75.53,0,0,1-7.8.8C619.11,284.14,628.71,286,631.81,283.84Z" transform="translate(0 -50)"/><path class="cls-9" d="M609.71,283.84c-1.6-.4-4.1-.2-5.2,1.2-.5.7-.1,1.1.6.7,1.4-.7,2.5-.8.4.2-.4.2-1.2.8-1.1,1.1.3.7,1.7-.2,2.4-.5.6,0-.8,1-1,1.3-.6,1.5,2.2-.3,2.4-.1.6.4-1.5,1.3-.5,1.5.8.2,2.3-1.4,2.9-1.6s1,.1,1.3-.5C612.71,285.94,610.31,284,609.71,283.84Z" transform="translate(0 -50)"/><path class="cls-9" d="M610.31,284.14c-.5-.4-1.6-1.5-2.2-1.6-.4-.1-.8.1-.5.5a1.56,1.56,0,0,0,.8.6c.2.1.5.3.7.4S610.41,284.24,610.31,284.14Z" transform="translate(0 -50)"/><path class="cls-10" d="M607.31,248.84a1.66,1.66,0,0,0,2.1.3,4.44,4.44,0,0,0,1.1-.8c.2-.2.4-.6.6-.8a3,3,0,0,1,2.3,1.4,4.74,4.74,0,0,0,0,1.2c2.4,7.1-2.6,12.2-3.8,14.6-.2.3.1.6.4.7,4.6.9,14.2,2.4,13.7-5.1a18.06,18.06,0,0,0-3.9-9.7c-1.7-2.1-3.6-5.3-6.4-5.6a12.22,12.22,0,0,0-3.3.2C607.21,245.64,606.81,248.24,607.31,248.84Z" transform="translate(0 -50)"/><path class="cls-17" d="M577.21,323.44l-22.9-13.5a2.53,2.53,0,0,1-.9-3.6l10.2-17.3a2.53,2.53,0,0,1,3.6-.9l22.9,13.5a2.53,2.53,0,0,1,.9,3.6l-10.2,17.3A2.55,2.55,0,0,1,577.21,323.44Z" transform="translate(0 -50)"/><path class="cls-18" d="M586.61,312.74l-27.5-16.2a2.08,2.08,0,0,1-.7-2.7l3.8-6.4a2.08,2.08,0,0,1,2.7-.7l27.5,16.2a2.08,2.08,0,0,1,.7,2.7l-3.8,6.4A1.9,1.9,0,0,1,586.61,312.74Z" transform="translate(0 -50)"/><path class="cls-18" d="M580.21,301.74l-8.3-4.9a1.78,1.78,0,0,1-.6-2.4l1.2-2a5.05,5.05,0,0,1,6.9-1.8l2.7,1.6a5.05,5.05,0,0,1,1.8,6.9l-1.2,2A1.93,1.93,0,0,1,580.21,301.74Zm-1.8-9.6a3.41,3.41,0,0,0-4.6,1.2l-1.2,2v.1l8.3,4.9h.1l1.2-2a3.27,3.27,0,0,0-1.2-4.5Z" transform="translate(0 -50)"/><path class="cls-19" d="M575.21,307.64l-6.1-3.6a1.39,1.39,0,0,1,1.4-2.4l6.1,3.6a1.43,1.43,0,0,1,.5,1.9A1.45,1.45,0,0,1,575.21,307.64Z" transform="translate(0 -50)"/><path class="cls-9" d="M579.61,291.74a2.45,2.45,0,0,0-.6,1.6c0,.3.4.5.7.5,0,.1-.1.2-.1.3,0,.3.3.5.7.5,0,.3.4.5.8.5,0,.4.7.7,1.1.3a5.5,5.5,0,0,0,.7-.9c.2-.4-.3-.7-.7-.6,0-.1.1-.1.1-.2.2-.3-.2-.6-.6-.6l.1-.1c.5-.4-.5-1-1-.6l-.3.3c.1-.1.1-.2.2-.3C581,291.84,580,291.24,579.61,291.74Z" transform="translate(0 -50)"/><path class="cls-9" d="M580.61,291.34a2.54,2.54,0,0,1,1.7.4h.2c.5.1.4.8,0,.9-.1,0-.2.1-.3,0h-.1a5,5,0,0,0-2.1.1.47.47,0,0,1-.6-.6C579.51,291.54,580.21,291.34,580.61,291.34Z" transform="translate(0 -50)"/><path class="cls-9" d="M67.1,273.7a19.3,19.3,0,0,1-10.2,2.5,2.77,2.77,0,0,1-.9-.1c-.5-.1-1-.1-1.4-.2-.6-.1-1.2-.3-1.8-.4-.1,0-.2-.1-.3-.1a10.27,10.27,0,0,1-5.1-2.7,15.82,15.82,0,0,1-2-2.4s-11.1-9.6-7.5-10.4,10,1,15.6,3.4h.1a3.55,3.55,0,0,1,.9.4c.2.1.4.1.5.2,2.8,1.2,4.9,2.1,5.4,2,.9-.1,2.4-13.8,2.8-14.3,0,0,1.9-2,2.7-1C68.3,253.6,71,271.6,67.1,273.7Z" transform="translate(0 -50)"/><path class="cls-20" d="M61.8,263.9a7.62,7.62,0,0,1,.6,2,1.65,1.65,0,0,1-.8,1.5,4.27,4.27,0,0,1-2.5.1c-8.6-2.1-10.1-5.9-10-6.1.3.1,5.1,2.2,5.4,2.3s.4.1.5.2c2.8,1.2,4.9,2.1,5.4,2C60.9,266,61.2,262.4,61.8,263.9Z" transform="translate(0 -50)"/><path class="cls-9" d="M62.7,250.4a6.43,6.43,0,0,1,1.6-5.1c.4-.6,1.5-1.8,2.1-1.9s.8.5.3.9a8.68,8.68,0,0,0-1.6,2.3c.6-1,1.6.1,1.4.8.4-.2.8.5.5,1.3.3-.3,1,.6.1,1.9-.6.9-.8,1.2-1.4,1.5a2.25,2.25,0,0,1-2.1-.3c-.1,0-.2-.1-.3-.2s0-.1-.1-.2A1.11,1.11,0,0,1,62.7,250.4Z" transform="translate(0 -50)"/><path class="cls-9" d="M61.5,248.2c.3-.5,1-.1.9.4a1.48,1.48,0,0,0-.1.7,1.48,1.48,0,0,1,1.2.8c.2.4.6,1.3.4,1.7-.2.2-.5.9-.7.7a23.28,23.28,0,0,1-1.9-2.7A1.54,1.54,0,0,1,61.5,248.2Z" transform="translate(0 -50)"/><path class="cls-9" d="M44.2,359.6c-.5-.5-4.8.5-4.8.8,0,.8.1,3.9.6,4.3s4.8-.2,4.8-1S44.7,360,44.2,359.6Z" transform="translate(0 -50)"/><path class="cls-9" d="M9,357.4c-.1-.6-4.2-2.4-4.3-2.2-.5.6-2.2,3.3-2,3.8s4,2.7,4.5,2C7.5,360.5,9.1,358,9,357.4Z" transform="translate(0 -50)"/><path class="cls-12" d="M29.1,304.8c.3.8.6,1.5.9,2.4,2.2,5.5,4.8,12,5.1,15.4.5,6.3,3.4,21.5,3.4,28.9,0,6,1.7,10.1,1.5,11.5l5.5-1.1c2.1-8.7,4.3-29.7,4.3-39.2s-.8-25.3-4.3-32.8c-3.3-7.1-16.6,5.8-18.1,7.6C26.8,298.1,27.7,301.1,29.1,304.8Z" transform="translate(0 -50)"/><path class="cls-13" d="M29.1,304.8c.3.8.6,1.5.9,2.4,2.2,5.5,4.8,12,5.1,15.4.5,6.3,3,38.3,3.5,40.4,1,.6,2.9.1,4.2-.5.4-5.3-2.1-10.3-2.7-15.6-1.2-10,2.3-20.5-2-30-1.2-2.7-3.1-5.4-2.9-8.5.1-1.5,1.1-3.2.2-4.7-1.5-2.6-4.4-.8-5.8.9a.45.45,0,0,0-.5,0C29.2,304.8,29.2,304.8,29.1,304.8Z" transform="translate(0 -50)"/><path class="cls-12" d="M31.3,294.8v1c-.1,3.9-.5,18.8-2.2,33.5-1.1,9.4-13.1,24.9-21,31l-4.4-2.4-1-.5s4.9-8.8,7.3-12.5c6.2-9.5,4.9-15,4.9-21.3.1-12.9-3.3-19.2.2-28.8.2-.4.3-.9.5-1.3a41.1,41.1,0,0,1,2.6-5.1,1.7,1.7,0,0,1,.8-.6,3.21,3.21,0,0,1,1.4-.1c2.5.3,6.4,2.4,9.8,6A2.89,2.89,0,0,1,31.3,294.8Z" transform="translate(0 -50)"/><path class="cls-13" d="M18.2,314.4c-1.2-6.2-1.9-12,0-18.3a.37.37,0,0,0-.2-.5c0-.1-.1-.1-.2-.2-.7-.2-1.6-.5-2.6-.8-3.5,9.6-.2,15.9-.2,28.8,0,6.3,1.3,11.8-4.9,21.3-2.4,3.7-7.3,12.5-7.3,12.5l1,.5c3.5-3.3,7.2-6.5,9.3-10.9a73.72,73.72,0,0,0,5.1-15.9A39.89,39.89,0,0,0,18.2,314.4Z" transform="translate(0 -50)"/><path class="cls-10" d="M39.9,363.6s-1.3,3.2.5,5.2c0,0,10-1.5,12.9-2.6,0,0-.7-3.9-3.3-3.7a40.31,40.31,0,0,0-5.2.8S42.2,365.3,39.9,363.6Z" transform="translate(0 -50)"/><path class="cls-10" d="M3,357.9s-3.1,1.7-3,4.3c0,0,8.7,5.2,11.6,6.2,0,0,1.9-3.4-.2-4.9a38.63,38.63,0,0,0-4.5-2.7S3.7,360.7,3,357.9Z" transform="translate(0 -50)"/><path class="cls-21" d="M39.9,261.1c1.1,2.7,2.2,4.9,2.2,4.9s-2.1,2.7-1.4,4.4a5.21,5.21,0,0,0,2.4,2.2c1.5.9,3.5,1.8,5.1,2.9a12.75,12.75,0,0,0,4.2-14.4c-4.4-3.7-10.3-8.4-13.8-9.1C36.4,251.7,38.2,256.9,39.9,261.1Z" transform="translate(0 -50)"/><path class="cls-21" d="M46.2,289.8c0,1.2-27.3,7.4-30.1,6.9-1.1-.2-1.8-.5-2-.9-.5-1.1,1.3-12.2,1.1-19.6,0-1.4-.1-2.9-.1-4.3,0-7.4.5-14.4,2.2-15.7a14.63,14.63,0,0,1,1.3-.9,27.5,27.5,0,0,1,2.5-1.5,24.47,24.47,0,0,1,5.2-2,22.57,22.57,0,0,1,10.4-.2,19,19,0,0,1,2.9.9c.2.1.5.2.7.3,3.3,1.3,2.8,8.5,2.3,14.5a68.06,68.06,0,0,0-.4,6.9,8.75,8.75,0,0,0,.2,1.6C43.2,280.1,45.7,286.6,46.2,289.8Z" transform="translate(0 -50)"/><path class="cls-9" d="M33.9,247.9v3.2s.8,1.4,0,1.5c-1.7.3-4.1-1.5-4.1-1.5v-4.9Z" transform="translate(0 -50)"/><path class="cls-22" d="M29.9,248.7v-2.2s1.8,2.3,3.8,2.4C33.7,248.9,31.5,249.8,29.9,248.7Z" transform="translate(0 -50)"/><path class="cls-9" d="M36.2,240.8a23.4,23.4,0,0,1,.4,6.2c-.2,2-4.4,3.7-6.7.2s-.4-7.5-.4-7.5Z" transform="translate(0 -50)"/><path class="cls-14" d="M12.8,297.8c.7.4,19.5-2.5,19.5-2.5,1.3-4.2,5.4-21.8,5.2-23.5-.7-11-10.9-19.9-10.9-19.9-4-.2-9.1,4.5-9.1,4.5,1.2-2.4,6.4-2.2,7.2-1,1.7,2.6,1.2,10.7-.3,14-4.5,9.7-8.9,10.2-8.9,10.2Z" transform="translate(0 -50)"/><path class="cls-14" d="M35.5,276c-.6,1.5,7.4,16.7,7.4,16.7s5.6-1.1,5.7-1.2-2.4-6.3-4.2-10.8c-.3-.9-.7-1.7-.9-2.5v-.1a18.33,18.33,0,0,1-.7-2.3,3.3,3.3,0,0,1-.2-1.6c-.1-1.6,1.3-4.6,1.4-7.4.1-5-1.7-13.4-3.3-14-.2-.1-.3-.1-.5-.2s-.1,0-.2-.1c-1-.4-1.9-.6-2.9-.9C37.1,251.6,39.3,266.6,35.5,276Z" transform="translate(0 -50)"/><path class="cls-10" d="M37.4,239.5c.4-2.3-3.6-1.9-4.9-1.7-.9.1-4.2.7-4.4,2.2a5.87,5.87,0,0,0-.3,5,1.11,1.11,0,0,0,.5,1,1.22,1.22,0,0,0,1.7-.5c.5-.9.2-2.1.3-3.1,0-.2.1-.9.1-1.5a2.67,2.67,0,0,1,1.8-.2c.8.1,1.6.4,2.4.5C35.9,241.3,38.3,241,37.4,239.5Z" transform="translate(0 -50)"/><path class="cls-23" d="M31,272.4a2.56,2.56,0,1,0,3.2,1.7A2.59,2.59,0,0,0,31,272.4Zm1.2,4a1.68,1.68,0,1,1,1.1-2.1A1.61,1.61,0,0,1,32.2,276.4Z" transform="translate(0 -50)"/><path class="cls-24" d="M43.4,293.7,32.7,297a2.15,2.15,0,0,1-2.6-1.4L25,279.1a2.15,2.15,0,0,1,1.4-2.6l10.7-3.3a2.15,2.15,0,0,1,2.6,1.4l5.1,16.5A2.15,2.15,0,0,1,43.4,293.7Z" transform="translate(0 -50)"/><path class="cls-9" d="M17.1,293.1a1.7,1.7,0,0,0,.7-.1c7.8-1,21.6-7,21.6-7,0-.6.2-3.3.2-3.3-.3,0-13.1.3-18.4.4H20.1a2.4,2.4,0,0,1-1.2,0h-.1c-.8-.2.1-6.6,1.5-9.2.6-1.1,1.3-2.2,1.8-3.2a11.59,11.59,0,0,0,1.7-7.7,12.4,12.4,0,0,0-2.5-5.9,3.7,3.7,0,0,0-6,.3,63.86,63.86,0,0,0-6.7,12.8v.1C5.1,278.8,9.6,293.7,17.1,293.1Z" transform="translate(0 -50)"/><path class="cls-20" d="M17.1,293.1a1.7,1.7,0,0,0,.7-.1c7.8-1,21.6-7,21.6-7v-.1c-1.5.1-4.3,1.5-5.6,1.8-4.8,1.1-12.8,2.1-15.2,2.5-3.4.6-5.4-1.8-6.4-4.7-1.5-4.4-1.2-11.4-.6-16,1.1-3.3-2.3-1.4-2.3-1.4C4.7,279.4,9.6,293.7,17.1,293.1Z" transform="translate(0 -50)"/><path class="cls-21" d="M8.5,267.9c.3-1.1,2.2-8.4,6.4-11.6,1.9-1.5,7.2-3.6,9.3-1.4,4.5,4.8,1.2,13-2,18.8C17.3,274.1,12.4,271.8,8.5,267.9Z" transform="translate(0 -50)"/><path class="cls-9" d="M43.1,284.3a.77.77,0,0,0-.1-1l-.1-.1a.61.61,0,0,0,.1-.8.84.84,0,0,0-.7-.4.37.37,0,0,0-.1-.3c-.4-1.1-2.2.2-2.8.5-.2.1-.3.3-.2.4l-.1.1a3,3,0,0,0-.1,2.6,2,2,0,0,0,2.3,1c.7-.1,2.1-.5,2.1-1.4C43.6,284.5,43.4,284.4,43.1,284.3Z" transform="translate(0 -50)"/><path class="cls-9" d="M41.4,280a2.39,2.39,0,0,0-2,.4,7.45,7.45,0,0,0-1.3,2.5c-.3.2.1.2.6.2s1.3-.1,1.4-.8c0-.3-.1-.6.2-.8a2.22,2.22,0,0,1,1.1-.5A.52.52,0,0,0,41.4,280Z" transform="translate(0 -50)"/></svg>