<svg width="321" height="212" viewBox="0 0 321 212" fill="none" xmlns="http://www.w3.org/2000/svg">
<path d="M231.5 72.5004C289 77.0008 331.416 98.1627 304.5 134.5C254.5 202 154.499 198.501 87.9986 188.501C-20.7784 172.143 -1.00052 58.5004 56.5 31C102.999 8.76102 184.5 68.8219 231.5 72.5004Z" fill="url(#paint0_linear)"/>
<path d="M190.072 163.125C153.179 163.99 102.476 172.786 66.7854 162.68C50.3295 158.018 33.7172 148.007 46.5884 129.225C53.9743 118.446 72.9924 125.127 78.7905 118.037C90.3145 103.953 76.2042 81.6137 96.8824 66.28C127.196 43.8203 158.628 68.8396 171.187 95.6375C174.447 102.607 175.433 120.02 183.324 123.829C194.619 129.297 200.333 116.98 210.402 116.775C256.377 115.826 260.708 176.872 190.072 163.125Z" fill="#E7EFFF" fill-opacity="0.15"/>
<path d="M206.264 128.78C207.048 128.78 207.684 128.145 207.684 127.362C207.684 126.579 207.048 125.944 206.264 125.944C205.48 125.944 204.845 126.579 204.845 127.362C204.845 128.145 205.48 128.78 206.264 128.78Z" fill="#7A7DFF"/>
<path d="M206.264 140.317C207.048 140.317 207.683 139.682 207.683 138.899C207.683 138.116 207.048 137.481 206.264 137.481C205.48 137.481 204.844 138.116 204.844 138.899C204.844 139.682 205.48 140.317 206.264 140.317Z" fill="#7A7DFF"/>
<path d="M214.937 128.78C215.721 128.78 216.356 128.145 216.356 127.362C216.356 126.579 215.721 125.944 214.937 125.944C214.153 125.944 213.518 126.579 213.518 127.362C213.518 128.145 214.153 128.78 214.937 128.78Z" fill="#7A7DFF"/>
<path d="M214.937 140.316C215.721 140.316 216.356 139.682 216.356 138.898C216.356 138.115 215.721 137.48 214.937 137.48C214.153 137.48 213.517 138.115 213.517 138.898C213.517 139.682 214.153 140.316 214.937 140.316Z" fill="#7A7DFF"/>
<path d="M223.598 128.78C224.382 128.78 225.018 128.145 225.018 127.362C225.018 126.579 224.382 125.944 223.598 125.944C222.814 125.944 222.179 126.579 222.179 127.362C222.179 128.145 222.814 128.78 223.598 128.78Z" fill="#7A7DFF"/>
<path d="M223.598 140.316C224.382 140.316 225.017 139.682 225.017 138.898C225.017 138.115 224.382 137.48 223.598 137.48C222.814 137.48 222.178 138.115 222.178 138.898C222.178 139.682 222.814 140.316 223.598 140.316Z" fill="#7A7DFF"/>
<path d="M232.259 128.78C233.043 128.78 233.678 128.145 233.678 127.362C233.678 126.579 233.043 125.944 232.259 125.944C231.475 125.944 230.839 126.579 230.839 127.362C230.839 128.145 231.475 128.78 232.259 128.78Z" fill="#7A7DFF"/>
<path d="M232.259 140.316C233.043 140.316 233.678 139.682 233.678 138.898C233.678 138.115 233.043 137.48 232.259 137.48C231.475 137.48 230.839 138.115 230.839 138.898C230.839 139.682 231.475 140.316 232.259 140.316Z" fill="#7A7DFF"/>
<path d="M240.933 128.78C241.717 128.78 242.352 128.145 242.352 127.362C242.352 126.579 241.717 125.944 240.933 125.944C240.149 125.944 239.513 126.579 239.513 127.362C239.513 128.145 240.149 128.78 240.933 128.78Z" fill="#7A7DFF"/>
<path d="M240.932 140.316C241.716 140.316 242.351 139.682 242.351 138.898C242.351 138.115 241.716 137.48 240.932 137.48C240.148 137.48 239.512 138.115 239.512 138.898C239.512 139.682 240.148 140.316 240.932 140.316Z" fill="#7A7DFF"/>
<path d="M249.593 128.78C250.377 128.78 251.012 128.145 251.012 127.362C251.012 126.579 250.377 125.944 249.593 125.944C248.809 125.944 248.174 126.579 248.174 127.362C248.174 128.145 248.809 128.78 249.593 128.78Z" fill="#7A7DFF"/>
<path d="M249.593 140.316C250.377 140.316 251.012 139.682 251.012 138.898C251.012 138.115 250.377 137.48 249.593 137.48C248.809 137.48 248.173 138.115 248.173 138.898C248.173 139.682 248.809 140.316 249.593 140.316Z" fill="#7A7DFF"/>
<path d="M56.2119 140.316C56.9959 140.316 57.6314 139.682 57.6314 138.898C57.6314 138.115 56.9959 137.48 56.2119 137.48C55.428 137.48 54.7925 138.115 54.7925 138.898C54.7925 139.682 55.428 140.316 56.2119 140.316Z" fill="#7A7DFF"/>
<path d="M56.2119 151.853C56.9959 151.853 57.6314 151.218 57.6314 150.435C57.6314 149.651 56.9959 149.017 56.2119 149.017C55.428 149.017 54.7925 149.651 54.7925 150.435C54.7925 151.218 55.428 151.853 56.2119 151.853Z" fill="#7A7DFF"/>
<path d="M56.2119 163.389C56.9959 163.389 57.6314 162.754 57.6314 161.971C57.6314 161.188 56.9959 160.553 56.2119 160.553C55.428 160.553 54.7925 161.188 54.7925 161.971C54.7925 162.754 55.428 163.389 56.2119 163.389Z" fill="#7A7DFF"/>
<path d="M64.885 140.316C65.669 140.316 66.3045 139.681 66.3045 138.898C66.3045 138.115 65.669 137.48 64.885 137.48C64.1011 137.48 63.4656 138.115 63.4656 138.898C63.4656 139.681 64.1011 140.316 64.885 140.316Z" fill="#7A7DFF"/>
<path d="M64.8848 151.853C65.6687 151.853 66.3042 151.218 66.3042 150.435C66.3042 149.651 65.6687 149.017 64.8848 149.017C64.1008 149.017 63.4653 149.651 63.4653 150.435C63.4653 151.218 64.1008 151.853 64.8848 151.853Z" fill="#7A7DFF"/>
<path d="M64.8848 163.389C65.6687 163.389 66.3042 162.754 66.3042 161.971C66.3042 161.188 65.6687 160.553 64.8848 160.553C64.1008 160.553 63.4653 161.188 63.4653 161.971C63.4653 162.754 64.1008 163.389 64.8848 163.389Z" fill="#7A7DFF"/>
<path d="M73.5466 140.316C74.3306 140.316 74.9661 139.681 74.9661 138.898C74.9661 138.115 74.3306 137.48 73.5466 137.48C72.7627 137.48 72.1272 138.115 72.1272 138.898C72.1272 139.681 72.7627 140.316 73.5466 140.316Z" fill="#7A7DFF"/>
<path d="M73.5459 151.853C74.3298 151.853 74.9654 151.218 74.9654 150.435C74.9654 149.651 74.3298 149.017 73.5459 149.017C72.762 149.017 72.1265 149.651 72.1265 150.435C72.1265 151.218 72.762 151.853 73.5459 151.853Z" fill="#7A7DFF"/>
<path d="M73.5459 163.389C74.3298 163.389 74.9654 162.754 74.9654 161.971C74.9654 161.188 74.3298 160.553 73.5459 160.553C72.762 160.553 72.1265 161.188 72.1265 161.971C72.1265 162.754 72.762 163.389 73.5459 163.389Z" fill="#7A7DFF"/>
<path d="M82.2192 140.316C83.0032 140.316 83.6387 139.681 83.6387 138.898C83.6387 138.115 83.0032 137.48 82.2192 137.48C81.4353 137.48 80.7998 138.115 80.7998 138.898C80.7998 139.681 81.4353 140.316 82.2192 140.316Z" fill="#7A7DFF"/>
<path d="M82.219 151.853C83.0029 151.853 83.6384 151.218 83.6384 150.435C83.6384 149.651 83.0029 149.017 82.219 149.017C81.4351 149.017 80.7996 149.651 80.7996 150.435C80.7996 151.218 81.4351 151.853 82.219 151.853Z" fill="#7A7DFF"/>
<path d="M82.219 163.389C83.0029 163.389 83.6384 162.754 83.6384 161.971C83.6384 161.188 83.0029 160.553 82.219 160.553C81.4351 160.553 80.7996 161.188 80.7996 161.971C80.7996 162.754 81.4351 163.389 82.219 163.389Z" fill="#7A7DFF"/>
<path d="M90.8804 140.316C91.6643 140.316 92.2998 139.681 92.2998 138.898C92.2998 138.115 91.6643 137.48 90.8804 137.48C90.0964 137.48 89.4609 138.115 89.4609 138.898C89.4609 139.681 90.0964 140.316 90.8804 140.316Z" fill="#7A7DFF"/>
<path d="M90.8801 151.853C91.6641 151.853 92.2996 151.218 92.2996 150.435C92.2996 149.651 91.6641 149.017 90.8801 149.017C90.0962 149.017 89.4607 149.651 89.4607 150.435C89.4607 151.218 90.0962 151.853 90.8801 151.853Z" fill="#7A7DFF"/>
<path d="M90.8801 163.389C91.6641 163.389 92.2996 162.754 92.2996 161.971C92.2996 161.188 91.6641 160.553 90.8801 160.553C90.0962 160.553 89.4607 161.188 89.4607 161.971C89.4607 162.754 90.0962 163.389 90.8801 163.389Z" fill="#7A7DFF"/>
<path d="M99.553 140.316C100.337 140.316 100.972 139.681 100.972 138.898C100.972 138.115 100.337 137.48 99.553 137.48C98.7691 137.48 98.1335 138.115 98.1335 138.898C98.1335 139.681 98.7691 140.316 99.553 140.316Z" fill="#7A7DFF"/>
<path d="M99.553 151.853C100.337 151.853 100.972 151.218 100.972 150.435C100.972 149.651 100.337 149.017 99.553 149.017C98.7691 149.017 98.1335 149.651 98.1335 150.435C98.1335 151.218 98.7691 151.853 99.553 151.853Z" fill="#7A7DFF"/>
<path d="M99.553 163.389C100.337 163.389 100.972 162.754 100.972 161.971C100.972 161.188 100.337 160.553 99.553 160.553C98.7691 160.553 98.1335 161.188 98.1335 161.971C98.1335 162.754 98.7691 163.389 99.553 163.389Z" fill="#7A7DFF"/>
<path d="M108.214 140.316C108.998 140.316 109.634 139.681 109.634 138.898C109.634 138.115 108.998 137.48 108.214 137.48C107.43 137.48 106.795 138.115 106.795 138.898C106.795 139.681 107.43 140.316 108.214 140.316Z" fill="#7A7DFF"/>
<path d="M108.214 151.853C108.998 151.853 109.633 151.218 109.633 150.435C109.633 149.651 108.998 149.017 108.214 149.017C107.43 149.017 106.794 149.651 106.794 150.435C106.794 151.218 107.43 151.853 108.214 151.853Z" fill="#7A7DFF"/>
<path d="M108.214 163.389C108.998 163.389 109.633 162.754 109.633 161.971C109.633 161.188 108.998 160.553 108.214 160.553C107.43 160.553 106.794 161.188 106.794 161.971C106.794 162.754 107.43 163.389 108.214 163.389Z" fill="#7A7DFF"/>
<path d="M116.875 140.316C117.659 140.316 118.295 139.681 118.295 138.898C118.295 138.115 117.659 137.48 116.875 137.48C116.091 137.48 115.456 138.115 115.456 138.898C115.456 139.681 116.091 140.316 116.875 140.316Z" fill="#7A7DFF"/>
<path d="M116.875 151.853C117.659 151.853 118.294 151.218 118.294 150.435C118.294 149.651 117.659 149.017 116.875 149.017C116.091 149.017 115.456 149.651 115.456 150.435C115.456 151.218 116.091 151.853 116.875 151.853Z" fill="#7A7DFF"/>
<path d="M116.875 163.389C117.659 163.389 118.294 162.754 118.294 161.971C118.294 161.188 117.659 160.553 116.875 160.553C116.091 160.553 115.456 161.188 115.456 161.971C115.456 162.754 116.091 163.389 116.875 163.389Z" fill="#7A7DFF"/>
<path d="M125.549 140.316C126.333 140.316 126.968 139.681 126.968 138.898C126.968 138.115 126.333 137.48 125.549 137.48C124.765 137.48 124.129 138.115 124.129 138.898C124.129 139.681 124.765 140.316 125.549 140.316Z" fill="#7A7DFF"/>
<path d="M125.548 151.853C126.332 151.853 126.968 151.218 126.968 150.435C126.968 149.651 126.332 149.017 125.548 149.017C124.764 149.017 124.129 149.651 124.129 150.435C124.129 151.218 124.764 151.853 125.548 151.853Z" fill="#7A7DFF"/>
<path d="M125.548 163.389C126.332 163.389 126.968 162.754 126.968 161.971C126.968 161.188 126.332 160.553 125.548 160.553C124.764 160.553 124.129 161.188 124.129 161.971C124.129 162.754 124.764 163.389 125.548 163.389Z" fill="#7A7DFF"/>
<path d="M134.209 140.316C134.993 140.316 135.629 139.681 135.629 138.898C135.629 138.115 134.993 137.48 134.209 137.48C133.426 137.48 132.79 138.115 132.79 138.898C132.79 139.681 133.426 140.316 134.209 140.316Z" fill="#7A7DFF"/>
<path d="M134.209 151.853C134.993 151.853 135.629 151.218 135.629 150.435C135.629 149.651 134.993 149.017 134.209 149.017C133.425 149.017 132.79 149.651 132.79 150.435C132.79 151.218 133.425 151.853 134.209 151.853Z" fill="#7A7DFF"/>
<path d="M134.209 163.389C134.993 163.389 135.629 162.754 135.629 161.971C135.629 161.188 134.993 160.553 134.209 160.553C133.425 160.553 132.79 161.188 132.79 161.971C132.79 162.754 133.425 163.389 134.209 163.389Z" fill="#7A7DFF"/>
<path d="M130.179 193.215C105.724 192.013 92.1432 172.498 109.477 152.297C108.635 138.658 131.815 133.214 141.92 127.194C128.375 115.321 118.295 103.616 126.366 86.8887L122.866 82.9111C125.885 76.0494 133.656 68.2384 141.812 69.9327C145.577 67.0126 153.456 66.0032 158.123 65.8229L161.359 71.9997C166.893 73.8022 172.787 74.8958 175.373 81.9858C164.824 24.8691 202.788 38.5324 201.079 107.294C200.815 118.061 197.651 131.135 191.949 137.12C194.103 149.858 196.581 172.63 193.2 192.073C175.854 192.073 146.491 193.215 130.179 193.215Z" fill="white"/>
<path d="M260.708 46.6079C260.708 65.7269 240.812 83.1636 212.11 83.1636C183.408 83.1636 164.811 65.7149 164.811 46.6079C164.811 27.501 183.408 7 212.11 7C240.812 7 260.708 27.4889 260.708 46.6079Z" fill="#7A7DFF"/>
<path d="M235.386 84.5574C235.386 90.3496 229.36 95.637 220.663 95.637C211.966 95.637 206.336 90.3496 206.336 84.5574C206.336 78.7652 211.966 72.5645 220.663 72.5645C229.36 72.5645 235.386 78.7652 235.386 84.5574Z" fill="#7A7DFF"/>
<path d="M206.336 98.7499C206.336 101.646 203.328 104.29 198.974 104.29C194.619 104.29 191.804 101.646 191.804 98.7499C191.804 95.8538 194.619 92.7534 198.974 92.7534C203.328 92.7534 206.336 95.8538 206.336 98.7499Z" fill="#7A7DFF"/>
<path d="M199.96 58.9735C199.96 60.4155 198.457 61.7374 196.28 61.7374C194.102 61.7374 192.695 60.4155 192.695 58.9735C192.695 57.5314 194.102 55.9692 196.28 55.9692C198.457 55.9692 199.96 57.5194 199.96 58.9735Z" fill="white"/>
<path d="M136.266 40.0951C136.266 41.5371 134.762 42.859 132.585 42.859C130.408 42.859 129 41.5371 129 40.0951C129 38.653 130.408 37.0908 132.585 37.0908C134.762 37.0908 136.266 38.641 136.266 40.0951Z" fill="#7A7DFF"/>
<path d="M267.961 25.0008C267.961 26.4429 266.458 27.7647 264.28 27.7647C262.103 27.7647 260.696 26.4429 260.696 25.0008C260.696 23.5588 262.103 21.9966 264.28 21.9966C266.458 21.9966 267.961 23.5468 267.961 25.0008Z" fill="#7A7DFF"/>
<path d="M238.201 40.0343C238.201 40.7554 237.443 41.4163 236.361 41.4163C235.278 41.4163 234.568 40.7554 234.568 40.0343C234.568 39.3133 235.278 38.5322 236.361 38.5322C237.443 38.5322 238.201 39.3133 238.201 40.0343Z" fill="white"/>
<path d="M161.695 23.4987C161.695 24.2197 160.937 24.8807 159.855 24.8807C158.772 24.8807 158.062 24.2197 158.062 23.4987C158.062 22.7777 158.772 21.9966 159.855 21.9966C160.949 21.9966 161.695 22.7777 161.695 23.4987Z" fill="#7A7DFF"/>
<path d="M154.406 51.8714C151.94 53.037 150.424 53.6979 149.823 53.8301C148.932 54.0344 148.03 54.0344 147.128 53.8301C145.709 53.5177 144.65 52.7846 143.94 51.619C143.231 50.4533 143.05 49.0714 143.387 47.4972C143.604 46.4998 144.012 45.6826 144.626 45.0457C145.456 44.1685 146.731 43.4354 148.439 42.8706C150.147 42.3058 152.902 41.7651 156.715 41.2363L156.896 40.4312C157.341 38.3883 157.317 36.9102 156.836 36.0089C156.354 35.1077 155.488 34.5188 154.249 34.2545C153.311 34.0502 152.505 34.1463 151.843 34.5309C151.17 34.9154 150.761 35.4321 150.617 36.0931L150.376 37.4029C150.232 38.0879 149.931 38.5806 149.51 38.881C149.077 39.1814 148.584 39.2655 148.006 39.1454C147.453 39.0252 147.044 38.7368 146.779 38.2681C146.515 37.7995 146.454 37.2347 146.599 36.5617C146.875 35.2759 147.79 34.2425 149.341 33.4493C150.893 32.6562 152.854 32.524 155.224 33.0408C157.052 33.4373 158.472 34.0622 159.506 34.9274C160.288 35.5763 160.781 36.4416 160.986 37.5231C161.118 38.2201 160.962 39.566 160.529 41.5488L159.013 48.5066C158.592 50.4654 158.363 51.6671 158.351 52.1237C158.327 52.5804 158.387 52.9048 158.532 53.0851C158.676 53.2773 158.856 53.3855 159.073 53.4336C159.314 53.4816 159.53 53.4816 159.735 53.4095C160.096 53.2894 160.817 52.8688 161.9 52.1718L161.623 53.4215C159.458 55.2962 157.617 56.0773 156.102 55.7408C155.368 55.5846 154.839 55.2001 154.514 54.5992C154.189 54.0104 154.153 53.0971 154.406 51.8714ZM154.73 50.4173L156.427 42.6063C153.973 43.0148 152.385 43.3273 151.639 43.5676C150.316 43.9642 149.317 44.4689 148.656 45.0818C147.994 45.6826 147.573 46.4156 147.381 47.2689C147.152 48.3384 147.272 49.2997 147.766 50.1529C148.259 51.0061 148.92 51.5108 149.75 51.6911C150.893 51.9314 152.553 51.5108 154.73 50.4173Z" fill="#7855BA"/>
<path d="M192.285 29.1592C195.317 29.063 197.53 29.3274 198.938 29.9643C200.946 30.8656 202.246 32.3797 202.823 34.5187C203.424 36.7779 203.015 38.8809 201.596 40.8517C199.84 43.231 196.845 44.9975 192.586 46.1271L177.321 50.2129L177.105 49.3957C178.488 49.0232 179.402 48.6387 179.823 48.2541C180.244 47.8576 180.509 47.437 180.593 46.9683C180.677 46.4997 180.509 45.4542 180.076 43.8319L174.855 24.3524C174.422 22.7301 174.049 21.7327 173.736 21.3722C173.424 20.9996 172.979 20.7593 172.413 20.6511C171.848 20.531 170.874 20.6632 169.502 21.0237L169.286 20.2065L183.685 16.3491C187.125 15.4238 189.639 15.0873 191.239 15.3156C192.839 15.5439 194.21 16.1568 195.365 17.1542C196.52 18.1516 197.278 19.3293 197.65 20.7112C198.035 22.1533 197.855 23.5833 197.109 24.9893C196.351 26.3953 194.751 27.7892 192.285 29.1592ZM184.527 32.4398L187.113 42.0654L187.39 43.183C187.606 43.9761 187.967 44.5289 188.484 44.8173C189.001 45.1177 189.651 45.1538 190.457 44.9375C191.636 44.625 192.658 44.0722 193.512 43.2791C194.366 42.486 194.932 41.5246 195.196 40.383C195.461 39.2414 195.425 38.0637 195.1 36.838C194.727 35.432 194.066 34.2664 193.115 33.3291C192.165 32.3917 191.07 31.851 189.807 31.7068C188.532 31.5866 186.776 31.8269 184.527 32.4398ZM184.057 30.7214C186.151 30.1566 187.642 29.5077 188.508 28.7746C189.374 28.0416 189.964 27.1643 190.265 26.1669C190.565 25.1695 190.541 24.0039 190.18 22.682C189.819 21.3481 189.266 20.3387 188.52 19.6297C187.774 18.9207 186.848 18.4761 185.754 18.2958C184.659 18.1156 183.035 18.3199 180.882 18.9087L184.057 30.7214Z" fill="white"/>
<path d="M228.602 30.6249C227.387 33.1725 225.799 34.9631 223.838 36.0206C221.877 37.066 219.929 37.3544 217.98 36.8738C215.67 36.2969 213.89 34.8309 212.651 32.4635C211.412 30.0962 211.207 27.2602 212.025 23.9555C212.819 20.759 214.419 18.3917 216.825 16.8655C219.231 15.3393 221.769 14.9067 224.44 15.5677C226.448 16.0604 227.952 17.0097 228.987 18.3796C230.009 19.7616 230.382 21.0234 230.105 22.165C229.961 22.7298 229.672 23.1384 229.215 23.4027C228.77 23.6551 228.217 23.7032 227.555 23.5469C226.677 23.3306 226.088 22.886 225.787 22.2131C225.606 21.8405 225.594 21.2036 225.727 20.3144C225.859 19.4251 225.727 18.6801 225.318 18.0912C224.909 17.5144 224.247 17.1179 223.321 16.8895C221.841 16.517 220.506 16.7694 219.327 17.6466C217.763 18.8002 216.681 20.5667 216.091 22.9581C215.49 25.3855 215.55 27.6808 216.284 29.8438C217.018 31.9949 218.401 33.3288 220.434 33.8335C221.889 34.194 223.321 34.0257 224.716 33.3167C225.703 32.8361 226.797 31.8026 228.024 30.1923L228.602 30.6249Z" fill="white"/>
<path d="M224.704 75.2802L223.573 75.5807C222.984 73.5498 222.671 71.9876 222.635 70.9181C222.599 69.8486 222.815 68.2864 223.309 66.2555C223.802 64.2126 224.054 62.6144 224.066 61.4607C224.078 60.3071 223.874 58.9251 223.453 57.3389C222.791 54.8874 221.829 53.2171 220.566 52.3038C219.291 51.4025 218.004 51.1261 216.693 51.4746C215.694 51.739 214.924 52.2317 214.395 52.9527C213.986 53.4935 213.842 53.9862 213.962 54.4308C214.046 54.7312 214.335 55.1398 214.852 55.6685C216.031 56.8702 216.741 57.9758 217.017 58.9732C217.258 59.8745 217.15 60.7157 216.693 61.4848C216.235 62.2538 215.55 62.7706 214.624 63.0109C213.589 63.2873 212.627 63.1551 211.725 62.6144C210.822 62.0736 210.221 61.2084 209.896 60.0067C209.319 57.8316 209.74 55.6685 211.183 53.5295C212.627 51.3905 215.033 49.8643 218.413 48.9631C221.985 48.0017 224.945 48.1339 227.278 49.3356C229.612 50.5373 231.092 52.3519 231.741 54.7552C232.21 56.5097 232.162 58.2522 231.609 59.9947C231.043 61.7371 229.636 63.8761 227.374 66.4117C225.859 68.1181 224.933 69.5241 224.608 70.6297C224.271 71.7473 224.307 73.2854 224.704 75.2802ZM225.486 79.3901C226.725 79.0536 227.892 79.2098 228.986 79.8467C230.081 80.4836 230.803 81.4209 231.128 82.6466C231.464 83.8844 231.308 85.05 230.67 86.1556C230.033 87.2612 229.107 87.9822 227.868 88.3187C226.629 88.6551 225.462 88.4869 224.367 87.85C223.261 87.2131 222.551 86.2638 222.214 85.038C221.877 83.8003 222.034 82.6346 222.671 81.5411C223.309 80.4355 224.247 79.7265 225.486 79.3901Z" fill="white"/>
<path d="M254.837 65.1138L253.995 65.3422L247.235 47.9416C246.934 47.1845 246.742 46.6077 246.633 46.2352C246.381 45.3099 246.429 44.4927 246.778 43.7957C247.126 43.0987 247.644 42.6661 248.329 42.4739C249.027 42.2936 249.689 42.4138 250.314 42.8464C250.94 43.279 251.409 44.0481 251.71 45.1536C251.806 45.5021 251.902 46.0068 252.022 46.6558L254.837 65.1138ZM255.378 68.9112C256.052 68.7309 256.702 68.8151 257.315 69.1635C257.929 69.512 258.314 70.0168 258.494 70.6897C258.674 71.3627 258.59 72.0116 258.241 72.6244C257.893 73.2373 257.375 73.6218 256.69 73.8141C256.016 73.9944 255.366 73.9103 254.753 73.5618C254.139 73.2133 253.755 72.6965 253.562 72.0116C253.382 71.3506 253.466 70.7137 253.827 70.1009C254.176 69.488 254.693 69.0914 255.378 68.9112Z" fill="#7855BA"/>
<path d="M270.259 52.1957L269.597 52.0876L270.271 37.8475C270.295 37.2226 270.331 36.7659 270.379 36.4655C270.487 35.7445 270.776 35.1917 271.233 34.8072C271.69 34.4346 272.183 34.2784 272.724 34.3625C273.266 34.4467 273.687 34.7351 274 35.2398C274.3 35.7325 274.397 36.4174 274.252 37.2827C274.204 37.5591 274.12 37.9436 274 38.4243L270.259 52.1957ZM269.465 55.0077C269.994 55.0918 270.415 55.3442 270.74 55.7768C271.052 56.2094 271.173 56.6901 271.089 57.2068C271.004 57.7356 270.752 58.1562 270.319 58.4806C269.886 58.7931 269.404 58.9132 268.875 58.8291C268.346 58.745 267.925 58.4926 267.6 58.06C267.287 57.6274 267.167 57.1467 267.251 56.618C267.335 56.1013 267.588 55.6807 268.021 55.3682C268.454 55.0438 268.935 54.9236 269.465 55.0077Z" fill="#7855BA"/>
<path d="M90.8559 58.3848C78.105 58.3848 67.4231 68.467 67.4231 81.205C67.4231 93.943 78.093 104.025 90.8559 104.025C103.619 104.025 113.687 93.955 113.687 81.217C113.687 68.479 103.607 58.3848 90.8559 58.3848ZM103.282 93.6306C96.5217 100.384 85.6112 99.9755 78.8388 93.222C72.0784 86.4684 71.6574 75.557 78.4178 68.8035C85.1782 62.0499 96.5217 62.0379 103.282 68.7915C110.055 75.545 110.042 86.865 103.282 93.6306Z" fill="#7A7DFF"/>
<path d="M90.8556 82.6598C90.0617 82.6598 89.4121 82.0109 89.4121 81.2177C89.4121 80.4246 90.0617 79.7757 90.8556 79.7757C93.0088 79.7757 94.1035 79.7517 95.1621 79.7397C96.2327 79.7156 97.3393 79.7036 99.5166 79.7036C100.311 79.7036 100.96 80.3525 100.96 81.1457C100.96 81.9388 100.311 82.5877 99.5166 82.5877C97.3634 82.5877 96.2687 82.6117 95.2102 82.6237C94.1396 82.6358 93.0329 82.6598 90.8556 82.6598Z" fill="#7A7DFF"/>
<path d="M90.7836 82.6591C89.9897 82.6591 89.3401 82.0102 89.3401 81.2171C89.3401 78.321 89.3641 76.8549 89.3882 75.4249C89.4123 74.0069 89.4363 72.5529 89.4363 69.6808C89.4363 68.8877 90.0859 68.2388 90.8798 68.2388C91.6737 68.2388 92.3233 68.8877 92.3233 69.6808C92.3233 72.5769 92.2993 74.043 92.2752 75.473C92.2511 76.891 92.2271 78.345 92.2271 81.2171C92.2271 82.0102 91.5775 82.6591 90.7836 82.6591Z" fill="#7A7DFF"/>
<path d="M183.24 133.13C182.566 133.13 181.893 133.01 181.231 132.77C178.248 131.664 176.72 128.335 177.827 125.355C177.911 125.115 183.24 110.454 183.24 92.7531C183.24 74.8839 177.887 60.3073 177.827 60.1511C176.72 57.1709 178.236 53.8422 181.219 52.7366C184.202 51.631 187.534 53.1452 188.641 56.1254C188.894 56.7983 194.776 72.817 194.776 92.7411C194.776 112.665 188.894 128.696 188.641 129.357C187.787 131.688 185.586 133.13 183.24 133.13Z" fill="#FFE5B1"/>
<path d="M175.12 124.345C176.347 120.476 177.562 117.532 178.837 109.589C179.15 107.654 196.243 110.622 195.907 112.557C194.09 123 189.014 129.633 187.029 131.808C178.681 140.965 171.836 134.68 175.12 124.345Z" fill="#47CFE1"/>
<path d="M137.878 190.896C141.908 173.748 141.86 155.65 137.746 138.514C152.096 128.576 159.302 125.92 173.821 126.87C179.162 127.218 183.541 131.184 184.491 136.447C187.739 154.353 187.895 172.823 184.96 190.788C184.936 190.944 147.273 190.896 137.878 190.896Z" fill="#47CFE1"/>
<path d="M170.594 129.215C170.677 129.575 170.569 130.029 170.159 130.58C169.75 131.129 169.08 131.716 168.175 132.299C166.367 133.461 163.716 134.543 160.65 135.251C157.583 135.958 154.725 136.146 152.591 135.893C151.521 135.767 150.662 135.532 150.053 135.218C149.442 134.902 149.146 134.541 149.063 134.181C148.98 133.821 149.088 133.367 149.498 132.816C149.907 132.267 150.577 131.68 151.482 131.097C153.29 129.935 155.941 128.853 159.007 128.145C162.074 127.438 164.932 127.25 167.066 127.503C168.136 127.629 168.995 127.864 169.604 128.178C170.215 128.494 170.51 128.855 170.594 129.215Z" fill="#47CFE1" stroke="white"/>
<path d="M153.877 131.616L150.629 117.569C149.907 114.468 151.844 111.368 154.959 110.647C158.063 109.926 161.166 111.861 161.888 114.973L165.136 129.021C165.846 132.121 154.49 134.284 153.877 131.616Z" fill="#FFC984"/>
<path d="M143.905 83.5834C143.255 81.3603 143.628 79.065 144.65 77.4187C145.661 75.7483 147.285 74.7028 148.837 74.4385C147.718 75.5801 147.273 77.0462 147.405 78.2719C147.525 79.5096 148.211 80.447 148.993 80.8916C150.581 81.7808 151.146 83.7877 150.244 85.3739C149.354 86.9602 147.345 87.525 145.757 86.6237C144.975 86.1791 144.446 85.4821 144.205 84.6769L143.905 83.5834Z" fill="#7975C6"/>
<path d="M137.445 83.752C137.902 83.0791 137.938 81.9615 137.228 80.9761C136.543 80.0027 135.147 79.2457 133.463 79.3298C134.437 77.9839 136.29 76.9144 138.491 76.8423C140.681 76.7341 143.219 77.6835 145.095 79.6903L148.139 82.9469C150.737 85.7228 150.581 90.0609 147.814 92.6566C145.035 95.2523 140.693 95.096 138.094 92.3321C135.845 89.9288 135.664 86.3477 137.445 83.752Z" fill="#7975C6"/>
<path d="M167.66 114.695C176.116 106.248 176.116 92.5526 167.66 84.1054C159.204 75.6583 145.495 75.6583 137.039 84.1054C128.583 92.5526 128.583 106.248 137.039 114.695C145.495 123.143 159.204 123.143 167.66 114.695Z" fill="#7975C6"/>
<path d="M142.618 114.96L140.669 106.524C139.057 99.5425 143.411 92.5727 150.4 90.9624C157.389 89.3521 164.366 93.7023 165.978 100.684L167.927 109.12C169.539 116.102 165.184 123.072 158.195 124.682C151.206 126.304 144.229 121.954 142.618 114.96Z" fill="#FFE5B1"/>
<path d="M142.369 106.721C144.624 104.468 144.624 100.816 142.369 98.5634C140.115 96.3109 136.459 96.3109 134.204 98.5634C131.949 100.816 131.949 104.468 134.204 106.721C136.459 108.973 140.115 108.973 142.369 106.721Z" fill="#7975C6"/>
<path d="M170.503 100.229C172.758 97.976 172.758 94.3238 170.503 92.0712C168.248 89.8187 164.592 89.8187 162.337 92.0712C160.083 94.3238 160.083 97.976 162.337 100.229C164.592 102.481 168.248 102.481 170.503 100.229Z" fill="#7975C6"/>
<path d="M172.017 90.3497C168.444 82.5867 160.553 77.6357 152.012 77.7799C146.527 80.5078 143.279 85.7712 144.458 90.8664C145.889 97.0792 153.347 100.66 161.118 98.8577C166.351 97.644 170.381 94.3033 172.017 90.3497Z" fill="#7975C6"/>
<path d="M131.25 104.265C131.346 104.661 131.466 105.046 131.586 105.442C132.513 105.382 133.451 105.238 134.389 105.022C142.16 103.231 147.297 96.7419 145.853 90.5411C145.023 86.924 142.136 84.2082 138.347 82.9224C132.38 87.9815 129.373 96.117 131.25 104.265Z" fill="#7975C6"/>
<path d="M138.936 105.455C138.155 105.635 137.673 106.404 137.854 107.185L139.478 114.215C139.839 115.765 141.39 116.739 142.942 116.378L140.669 106.548C140.488 105.755 139.718 105.275 138.936 105.455Z" fill="#FFC984"/>
<path d="M167.073 98.9656C166.291 99.1459 165.81 99.915 165.99 100.696L168.264 110.526C169.816 110.165 170.79 108.615 170.429 107.065L168.805 100.035C168.625 99.266 167.843 98.7854 167.073 98.9656Z" fill="#FFC984"/>
<path d="M134.401 186.101C121.915 186.101 114.036 183.565 110.355 178.374C108.599 175.886 106.999 171.668 109.369 165.624C111.341 160.601 116.117 154.893 123.972 148.151C129.433 143.465 134.353 140.064 134.558 139.92C137.18 138.105 140.777 138.766 142.593 141.386C144.41 144.005 143.748 147.598 141.126 149.413C141.078 149.449 136.434 152.67 131.43 156.972C122.926 164.29 120.688 168.412 120.135 169.842C119.702 170.935 119.702 171.572 119.798 171.704C120.159 172.209 121.771 173.243 125.56 173.916C128.772 174.48 132.85 174.685 137.649 174.516C140.837 174.408 143.507 176.896 143.628 180.08C143.736 183.265 141.246 185.933 138.058 186.053C136.795 186.077 135.58 186.101 134.401 186.101Z" fill="#FFC984"/>
<path d="M160.144 150.422L148.596 151.864V161.959C148.596 168.027 160.144 166.585 160.144 160.517V150.422Z" fill="#47CFE1"/>
<path d="M117.224 150.386C124.345 143.476 130.913 140.568 134.365 138.982C146.984 133.142 148.331 147.839 138.431 154.664C138.359 154.712 135.352 156.923 129.289 162.8C127.605 164.434 113.796 153.715 117.224 150.386Z" fill="#47CFE1"/>
<path d="M204.892 182.147H126.943C126.149 182.147 125.5 182.796 125.5 183.589C125.5 184.382 126.149 185.031 126.943 185.031H204.892C205.686 185.031 206.336 184.382 206.336 183.589C206.336 182.796 205.686 182.147 204.892 182.147Z" fill="#7A7DFF"/>
<path d="M200.562 182.147H165.918C165.918 182.147 168.035 178.59 168.805 177.821C179.992 166.645 202.006 177.821 202.006 177.821L200.562 182.147Z" fill="#E7EFFF"/>
<path d="M131.274 182.147H165.918C165.918 182.147 163.801 178.59 163.031 177.821C151.844 166.645 129.831 177.821 129.831 177.821L131.274 182.147Z" fill="#E7EFFF"/>
<path d="M165.918 182.147C165.918 182.147 167.049 178.157 167.59 177.22C175.493 163.533 199.66 168.64 199.66 168.64L165.918 182.147Z" fill="#E7EFFF"/>
<path d="M165.918 182.147C165.918 182.147 163.897 178.53 163.609 177.484C159.519 162.223 180.209 148.764 180.209 148.764L165.918 182.147Z" fill="#E7EFFF"/>
<path d="M165.918 185.031C167.512 185.031 168.805 183.74 168.805 182.147C168.805 180.554 167.512 179.263 165.918 179.263C164.323 179.263 163.031 180.554 163.031 182.147C163.031 183.74 164.323 185.031 165.918 185.031Z" fill="#7A7DFF"/>
<path d="M238.093 185.043H93.7427C92.1428 185.043 90.8557 186.329 90.8557 187.928V193.696C90.8557 195.294 92.1428 196.58 93.7427 196.58H238.093C239.693 196.58 240.98 195.294 240.98 193.696V187.928C240.98 186.329 239.693 185.043 238.093 185.043Z" fill="#7855BA"/>
<defs>
<linearGradient id="paint0_linear" x1="560.741" y1="117.103" x2="-169.288" y2="201.997" gradientUnits="userSpaceOnUse">
<stop stop-color="#32058A"/>
<stop offset="1" stop-color="#A6023D"/>
</linearGradient>
</defs>
</svg>
