<svg width="806" height="442" viewBox="0 0 806 442" fill="none" xmlns="http://www.w3.org/2000/svg">
<path d="M604 159C736 143.65 840 235.781 664 333C584.204 377.078 426 425 198 379.115C-66.7114 325.842 -5.02947 148.718 178.138 78.3043C420.803 -14.9819 393.572 183.47 604 159Z" fill="url(#paint0_linear)"/>
<path d="M634.051 325.755C558.793 327.52 455.364 345.464 382.559 324.848C348.991 315.337 315.104 294.917 341.36 256.603C356.426 234.615 395.221 248.244 407.049 233.781C430.556 205.052 401.773 159.482 443.954 128.203C505.79 82.3872 569.908 133.424 595.526 188.089C602.176 202.306 604.188 237.826 620.285 245.597C643.327 256.75 654.982 231.624 675.521 231.207C769.306 229.271 778.139 353.798 634.051 325.755Z" fill="#E7EFFF" fill-opacity="0.15"/>
<path d="M667.08 255.697C668.679 255.697 669.976 254.402 669.976 252.804C669.976 251.207 668.679 249.912 667.08 249.912C665.481 249.912 664.185 251.207 664.185 252.804C664.185 254.402 665.481 255.697 667.08 255.697Z" fill="#7A7DFF"/>
<path d="M667.08 279.229C668.679 279.229 669.975 277.934 669.975 276.336C669.975 274.739 668.679 273.444 667.08 273.444C665.481 273.444 664.184 274.739 664.184 276.336C664.184 277.934 665.481 279.229 667.08 279.229Z" fill="#7A7DFF"/>
<path d="M684.772 255.696C686.371 255.696 687.667 254.401 687.667 252.804C687.667 251.206 686.371 249.911 684.772 249.911C683.173 249.911 681.876 251.206 681.876 252.804C681.876 254.401 683.173 255.696 684.772 255.696Z" fill="#7A7DFF"/>
<path d="M684.772 279.229C686.371 279.229 687.667 277.934 687.667 276.336C687.667 274.739 686.371 273.444 684.772 273.444C683.173 273.444 681.876 274.739 681.876 276.336C681.876 277.934 683.173 279.229 684.772 279.229Z" fill="#7A7DFF"/>
<path d="M702.439 255.696C704.038 255.696 705.335 254.401 705.335 252.804C705.335 251.206 704.038 249.911 702.439 249.911C700.84 249.911 699.544 251.206 699.544 252.804C699.544 254.401 700.84 255.696 702.439 255.696Z" fill="#7A7DFF"/>
<path d="M702.439 279.229C704.038 279.229 705.335 277.934 705.335 276.336C705.335 274.739 704.038 273.444 702.439 273.444C700.84 273.444 699.544 274.739 699.544 276.336C699.544 277.934 700.84 279.229 702.439 279.229Z" fill="#7A7DFF"/>
<path d="M720.107 255.696C721.707 255.696 723.003 254.401 723.003 252.804C723.003 251.206 721.707 249.911 720.107 249.911C718.508 249.911 717.212 251.206 717.212 252.804C717.212 254.401 718.508 255.696 720.107 255.696Z" fill="#7A7DFF"/>
<path d="M720.107 279.229C721.706 279.229 723.002 277.934 723.002 276.336C723.002 274.739 721.706 273.444 720.107 273.444C718.508 273.444 717.211 274.739 717.211 276.336C717.211 277.934 718.508 279.229 720.107 279.229Z" fill="#7A7DFF"/>
<path d="M737.799 255.696C739.398 255.696 740.694 254.401 740.694 252.804C740.694 251.206 739.398 249.911 737.799 249.911C736.2 249.911 734.903 251.206 734.903 252.804C734.903 254.401 736.2 255.696 737.799 255.696Z" fill="#7A7DFF"/>
<path d="M737.799 279.229C739.398 279.229 740.694 277.934 740.694 276.336C740.694 274.739 739.398 273.444 737.799 273.444C736.199 273.444 734.903 274.739 734.903 276.336C734.903 277.934 736.199 279.229 737.799 279.229Z" fill="#7A7DFF"/>
<path d="M755.467 255.696C757.066 255.696 758.362 254.401 758.362 252.804C758.362 251.206 757.066 249.911 755.467 249.911C753.867 249.911 752.571 251.206 752.571 252.804C752.571 254.401 753.867 255.696 755.467 255.696Z" fill="#7A7DFF"/>
<path d="M755.466 279.229C757.065 279.229 758.362 277.934 758.362 276.336C758.362 274.739 757.065 273.444 755.466 273.444C753.867 273.444 752.571 274.739 752.571 276.336C752.571 277.934 753.867 279.229 755.466 279.229Z" fill="#7A7DFF"/>
<path d="M360.99 279.229C362.589 279.229 363.886 277.934 363.886 276.337C363.886 274.739 362.589 273.444 360.99 273.444C359.391 273.444 358.095 274.739 358.095 276.337C358.095 277.934 359.391 279.229 360.99 279.229Z" fill="#7A7DFF"/>
<path d="M360.99 302.762C362.59 302.762 363.886 301.467 363.886 299.869C363.886 298.272 362.59 296.977 360.99 296.977C359.391 296.977 358.095 298.272 358.095 299.869C358.095 301.467 359.391 302.762 360.99 302.762Z" fill="#7A7DFF"/>
<path d="M360.99 326.294C362.59 326.294 363.886 324.999 363.886 323.402C363.886 321.804 362.59 320.509 360.99 320.509C359.391 320.509 358.095 321.804 358.095 323.402C358.095 324.999 359.391 326.294 360.99 326.294Z" fill="#7A7DFF"/>
<path d="M378.683 279.229C380.282 279.229 381.578 277.934 381.578 276.336C381.578 274.739 380.282 273.444 378.683 273.444C377.083 273.444 375.787 274.739 375.787 276.336C375.787 277.934 377.083 279.229 378.683 279.229Z" fill="#7A7DFF"/>
<path d="M378.682 302.762C380.282 302.762 381.578 301.467 381.578 299.869C381.578 298.272 380.282 296.977 378.682 296.977C377.083 296.977 375.787 298.272 375.787 299.869C375.787 301.467 377.083 302.762 378.682 302.762Z" fill="#7A7DFF"/>
<path d="M378.682 326.294C380.282 326.294 381.578 324.999 381.578 323.402C381.578 321.804 380.282 320.509 378.682 320.509C377.083 320.509 375.787 321.804 375.787 323.402C375.787 324.999 377.083 326.294 378.682 326.294Z" fill="#7A7DFF"/>
<path d="M396.35 279.229C397.949 279.229 399.246 277.934 399.246 276.336C399.246 274.739 397.949 273.444 396.35 273.444C394.751 273.444 393.455 274.739 393.455 276.336C393.455 277.934 394.751 279.229 396.35 279.229Z" fill="#7A7DFF"/>
<path d="M396.35 302.762C397.949 302.762 399.245 301.467 399.245 299.869C399.245 298.272 397.949 296.977 396.35 296.977C394.751 296.977 393.454 298.272 393.454 299.869C393.454 301.467 394.751 302.762 396.35 302.762Z" fill="#7A7DFF"/>
<path d="M396.35 326.294C397.949 326.294 399.245 324.999 399.245 323.402C399.245 321.804 397.949 320.509 396.35 320.509C394.751 320.509 393.454 321.804 393.454 323.402C393.454 324.999 394.751 326.294 396.35 326.294Z" fill="#7A7DFF"/>
<path d="M414.042 279.229C415.641 279.229 416.938 277.934 416.938 276.336C416.938 274.739 415.641 273.444 414.042 273.444C412.443 273.444 411.147 274.739 411.147 276.336C411.147 277.934 412.443 279.229 414.042 279.229Z" fill="#7A7DFF"/>
<path d="M414.042 302.762C415.641 302.762 416.937 301.467 416.937 299.869C416.937 298.272 415.641 296.977 414.042 296.977C412.442 296.977 411.146 298.272 411.146 299.869C411.146 301.467 412.442 302.762 414.042 302.762Z" fill="#7A7DFF"/>
<path d="M414.042 326.294C415.641 326.294 416.937 324.999 416.937 323.402C416.937 321.804 415.641 320.509 414.042 320.509C412.442 320.509 411.146 321.804 411.146 323.402C411.146 324.999 412.442 326.294 414.042 326.294Z" fill="#7A7DFF"/>
<path d="M431.71 279.229C433.309 279.229 434.605 277.934 434.605 276.336C434.605 274.739 433.309 273.444 431.71 273.444C430.11 273.444 428.814 274.739 428.814 276.336C428.814 277.934 430.11 279.229 431.71 279.229Z" fill="#7A7DFF"/>
<path d="M431.71 302.762C433.309 302.762 434.605 301.467 434.605 299.869C434.605 298.272 433.309 296.977 431.71 296.977C430.11 296.977 428.814 298.272 428.814 299.869C428.814 301.467 430.11 302.762 431.71 302.762Z" fill="#7A7DFF"/>
<path d="M431.71 326.294C433.309 326.294 434.605 324.999 434.605 323.402C434.605 321.804 433.309 320.509 431.71 320.509C430.11 320.509 428.814 321.804 428.814 323.402C428.814 324.999 430.11 326.294 431.71 326.294Z" fill="#7A7DFF"/>
<path d="M449.403 279.229C451.003 279.229 452.299 277.934 452.299 276.336C452.299 274.739 451.003 273.444 449.403 273.444C447.804 273.444 446.508 274.739 446.508 276.336C446.508 277.934 447.804 279.229 449.403 279.229Z" fill="#7A7DFF"/>
<path d="M449.401 302.762C451 302.762 452.297 301.467 452.297 299.869C452.297 298.272 451 296.977 449.401 296.977C447.802 296.977 446.506 298.272 446.506 299.869C446.506 301.467 447.802 302.762 449.401 302.762Z" fill="#7A7DFF"/>
<path d="M449.401 326.294C451 326.294 452.297 324.999 452.297 323.402C452.297 321.804 451 320.509 449.401 320.509C447.802 320.509 446.506 321.804 446.506 323.402C446.506 324.999 447.802 326.294 449.401 326.294Z" fill="#7A7DFF"/>
<path d="M467.069 279.229C468.668 279.229 469.965 277.934 469.965 276.336C469.965 274.739 468.668 273.444 467.069 273.444C465.47 273.444 464.174 274.739 464.174 276.336C464.174 277.934 465.47 279.229 467.069 279.229Z" fill="#7A7DFF"/>
<path d="M467.069 302.762C468.668 302.762 469.964 301.467 469.964 299.869C469.964 298.272 468.668 296.977 467.069 296.977C465.47 296.977 464.173 298.272 464.173 299.869C464.173 301.467 465.47 302.762 467.069 302.762Z" fill="#7A7DFF"/>
<path d="M467.069 326.294C468.668 326.294 469.964 324.999 469.964 323.402C469.964 321.804 468.668 320.509 467.069 320.509C465.47 320.509 464.173 321.804 464.173 323.402C464.173 324.999 465.47 326.294 467.069 326.294Z" fill="#7A7DFF"/>
<path d="M484.737 279.229C486.336 279.229 487.632 277.934 487.632 276.336C487.632 274.739 486.336 273.444 484.737 273.444C483.137 273.444 481.841 274.739 481.841 276.336C481.841 277.934 483.137 279.229 484.737 279.229Z" fill="#7A7DFF"/>
<path d="M484.737 302.762C486.336 302.762 487.632 301.467 487.632 299.869C487.632 298.272 486.336 296.977 484.737 296.977C483.138 296.977 481.841 298.272 481.841 299.869C481.841 301.467 483.138 302.762 484.737 302.762Z" fill="#7A7DFF"/>
<path d="M484.737 326.294C486.336 326.294 487.632 324.999 487.632 323.402C487.632 321.804 486.336 320.509 484.737 320.509C483.138 320.509 481.841 321.804 481.841 323.402C481.841 324.999 483.138 326.294 484.737 326.294Z" fill="#7A7DFF"/>
<path d="M502.429 279.229C504.028 279.229 505.324 277.934 505.324 276.336C505.324 274.739 504.028 273.444 502.429 273.444C500.83 273.444 499.533 274.739 499.533 276.336C499.533 277.934 500.83 279.229 502.429 279.229Z" fill="#7A7DFF"/>
<path d="M502.428 302.762C504.028 302.762 505.324 301.467 505.324 299.869C505.324 298.272 504.028 296.977 502.428 296.977C500.829 296.977 499.533 298.272 499.533 299.869C499.533 301.467 500.829 302.762 502.428 302.762Z" fill="#7A7DFF"/>
<path d="M502.428 326.294C504.028 326.294 505.324 324.999 505.324 323.402C505.324 321.804 504.028 320.509 502.428 320.509C500.829 320.509 499.533 321.804 499.533 323.402C499.533 324.999 500.829 326.294 502.428 326.294Z" fill="#7A7DFF"/>
<path d="M520.096 279.229C521.696 279.229 522.992 277.934 522.992 276.336C522.992 274.739 521.696 273.444 520.096 273.444C518.497 273.444 517.201 274.739 517.201 276.336C517.201 277.934 518.497 279.229 520.096 279.229Z" fill="#7A7DFF"/>
<path d="M520.096 302.762C521.695 302.762 522.992 301.467 522.992 299.869C522.992 298.272 521.695 296.977 520.096 296.977C518.497 296.977 517.201 298.272 517.201 299.869C517.201 301.467 518.497 302.762 520.096 302.762Z" fill="#7A7DFF"/>
<path d="M520.096 326.294C521.695 326.294 522.992 324.999 522.992 323.402C522.992 321.804 521.695 320.509 520.096 320.509C518.497 320.509 517.201 321.804 517.201 323.402C517.201 324.999 518.497 326.294 520.096 326.294Z" fill="#7A7DFF"/>
<path d="M511.876 387.136C461.989 384.685 434.286 344.875 469.645 303.669C467.928 275.846 515.213 264.741 535.825 252.46C508.195 228.241 487.632 204.365 504.097 170.243L496.956 162.129C503.115 148.132 518.967 132.198 535.604 135.655C543.284 129.698 559.357 127.639 568.878 127.271L575.479 139.871C586.766 143.548 598.79 145.778 604.066 160.241C582.546 43.7297 659.988 71.6013 656.504 211.866C655.964 233.83 649.51 260.501 637.879 272.708C642.272 298.692 647.326 345.145 640.431 384.807C605.047 384.807 545.149 387.136 511.876 387.136Z" fill="white"/>
<path d="M778.14 88.0743C778.14 127.075 737.553 162.644 679.005 162.644C620.457 162.644 582.521 127.05 582.521 88.0743C582.521 49.0982 620.457 7.27856 679.005 7.27856C737.553 7.27856 778.14 49.0737 778.14 88.0743Z" fill="#7A7DFF"/>
<path d="M726.487 165.487C726.487 177.303 714.193 188.088 696.452 188.088C678.711 188.088 667.227 177.303 667.227 165.487C667.227 153.672 678.711 141.023 696.452 141.023C714.193 141.023 726.487 153.672 726.487 165.487Z" fill="#7A7DFF"/>
<path d="M667.227 194.438C667.227 200.345 661.092 205.738 652.209 205.738C643.326 205.738 637.584 200.345 637.584 194.438C637.584 188.53 643.326 182.205 652.209 182.205C661.092 182.205 667.227 188.53 667.227 194.438Z" fill="#7A7DFF"/>
<path d="M654.222 113.299C654.222 116.24 651.154 118.937 646.713 118.937C642.272 118.937 639.401 116.24 639.401 113.299C639.401 110.357 642.272 107.17 646.713 107.17C651.154 107.17 654.222 110.333 654.222 113.299Z" fill="white"/>
<path d="M524.292 74.7882C524.292 77.7298 521.225 80.4263 516.783 80.4263C512.342 80.4263 509.471 77.7298 509.471 74.7882C509.471 71.8466 512.342 68.6599 516.783 68.6599C521.225 68.6599 524.292 71.8221 524.292 74.7882Z" fill="#7A7DFF"/>
<path d="M792.936 43.9995C792.936 46.9411 789.869 49.6376 785.427 49.6376C780.986 49.6376 778.115 46.9411 778.115 43.9995C778.115 41.0579 780.986 37.8712 785.427 37.8712C789.869 37.8712 792.936 41.0334 792.936 43.9995Z" fill="#7A7DFF"/>
<path d="M732.228 74.6657C732.228 76.1365 730.683 77.4848 728.474 77.4848C726.266 77.4848 724.818 76.1365 724.818 74.6657C724.818 73.1949 726.266 71.6016 728.474 71.6016C730.683 71.6016 732.228 73.1949 732.228 74.6657Z" fill="white"/>
<path d="M576.166 40.9354C576.166 42.4062 574.62 43.7544 572.411 43.7544C570.203 43.7544 568.755 42.4062 568.755 40.9354C568.755 39.4646 570.203 37.8712 572.411 37.8712C574.644 37.8712 576.166 39.4646 576.166 40.9354Z" fill="#7A7DFF"/>
<path d="M561.296 98.8114C556.265 101.189 553.173 102.537 551.947 102.807C550.131 103.224 548.29 103.224 546.45 102.807C543.554 102.17 541.395 100.674 539.947 98.2966C538.5 95.9188 538.132 93.0998 538.819 89.8886C539.26 87.854 540.095 86.1871 541.346 84.8879C543.039 83.0984 545.64 81.6031 549.125 80.451C552.609 79.2988 558.228 78.1957 566.007 77.1171L566.375 75.4748C567.283 71.3075 567.234 68.2924 566.252 66.4539C565.271 64.6154 563.504 63.4142 560.977 62.8749C559.063 62.4582 557.419 62.6543 556.069 63.4387C554.695 64.2232 553.86 65.2772 553.566 66.6255L553.075 69.2974C552.781 70.6947 552.167 71.6997 551.309 72.3125C550.425 72.9254 549.419 73.097 548.241 72.8518C547.112 72.6067 546.278 72.0184 545.738 71.0624C545.199 70.1064 545.076 68.9542 545.37 67.5815C545.935 64.9586 547.8 62.8504 550.965 61.2325C554.13 59.6147 558.13 59.345 562.964 60.3991C566.694 61.208 569.589 62.4827 571.7 64.2477C573.295 65.5714 574.301 67.3364 574.718 69.5425C574.988 70.9643 574.669 73.7098 573.785 77.7545L570.694 91.9477C569.835 95.9433 569.369 98.3947 569.344 99.3262C569.295 100.258 569.418 100.92 569.712 101.287C570.007 101.679 570.375 101.9 570.816 101.998C571.307 102.096 571.749 102.096 572.166 101.949C572.902 101.704 574.374 100.846 576.583 99.4242L576.018 101.974C571.602 105.798 567.847 107.391 564.755 106.705C563.259 106.386 562.179 105.602 561.516 104.376C560.854 103.175 560.78 101.312 561.296 98.8114ZM561.958 95.8453L565.418 79.9117C560.412 80.7451 557.173 81.3825 555.652 81.8727C552.953 82.6817 550.916 83.7112 549.566 84.9614C548.217 86.1871 547.358 87.6824 546.965 89.4228C546.499 91.6045 546.744 93.5656 547.75 95.306C548.757 97.0464 550.106 98.076 551.799 98.4437C554.13 98.934 557.517 98.076 561.958 95.8453Z" fill="#FF7D25"/>
<path d="M638.566 52.4812C644.75 52.2851 649.265 52.8244 652.136 54.1236C656.234 55.9621 658.884 59.0507 660.062 63.4141C661.289 68.0226 660.454 72.3124 657.559 76.3326C653.976 81.1862 647.866 84.7897 639.18 87.0939L608.041 95.4285L607.599 93.7615C610.421 93.0016 612.286 92.2172 613.145 91.4328C614.003 90.6238 614.543 89.7659 614.715 88.8099C614.887 87.8538 614.543 85.7212 613.66 82.4119L603.01 42.6759C602.127 39.3666 601.366 37.332 600.728 36.5966C600.09 35.8367 599.182 35.3464 598.029 35.1258C596.876 34.8806 594.888 35.1503 592.091 35.8857L591.649 34.2188L621.021 26.35C628.039 24.4625 633.168 23.7761 636.431 24.2419C639.695 24.7076 642.492 25.9578 644.848 27.9924C647.204 30.027 648.75 32.4293 649.51 35.2483C650.295 38.1899 649.927 41.107 648.406 43.9751C646.86 46.8431 643.597 49.6867 638.566 52.4812ZM622.739 59.1733L628.015 78.8084L628.579 81.0882C629.021 82.7061 629.757 83.8337 630.812 84.422C631.867 85.0348 633.192 85.1084 634.836 84.6671C637.241 84.0298 639.327 82.9022 641.069 81.2843C642.811 79.6664 643.965 77.7053 644.504 75.3766C645.044 73.0478 644.971 70.6455 644.308 68.1452C643.547 65.2771 642.198 62.8993 640.259 60.9873C638.321 59.0753 636.088 57.9722 633.511 57.678C630.91 57.4329 627.328 57.9231 622.739 59.1733ZM621.782 55.6679C626.052 54.5158 629.094 53.1921 630.861 51.6968C632.628 50.2014 633.83 48.412 634.444 46.3774C635.057 44.3428 635.008 41.965 634.272 39.2685C633.536 36.5476 632.407 34.4884 630.886 33.0422C629.364 31.5959 627.475 30.6889 625.242 30.3212C623.009 29.9535 619.696 30.3702 615.304 31.5714L621.782 55.6679Z" fill="white"/>
<path d="M712.647 55.4718C710.168 60.6686 706.929 64.3211 702.93 66.4783C698.93 68.6109 694.955 69.1992 690.979 68.2187C686.268 67.0421 682.636 64.0514 680.109 59.2223C677.582 54.3932 677.164 48.6081 678.833 41.8669C680.453 35.3464 683.716 30.5173 688.624 27.4041C693.531 24.2909 698.709 23.4084 704.156 24.7567C708.254 25.7617 711.322 27.6982 713.432 30.4928C715.518 33.3118 716.278 35.8857 715.714 38.2144C715.42 39.3666 714.831 40.2 713.898 40.7393C712.99 41.2541 711.861 41.3521 710.512 41.0335C708.721 40.5922 707.518 39.6852 706.905 38.3125C706.537 37.5526 706.512 36.2534 706.782 34.4394C707.052 32.6254 706.782 31.1056 705.948 29.9044C705.113 28.7278 703.764 27.9189 701.874 27.4531C698.856 26.6932 696.132 27.208 693.728 28.9975C690.538 31.3507 688.329 34.9542 687.127 39.8323C685.9 44.784 686.023 49.466 687.52 53.8784C689.016 58.2663 691.838 60.9873 695.985 62.0168C698.954 62.7522 701.874 62.4091 704.721 60.9628C706.733 59.9822 708.966 57.8741 711.469 54.5893L712.647 55.4718Z" fill="white"/>
<path d="M704.697 146.563L702.39 147.176C701.188 143.033 700.55 139.847 700.476 137.665C700.402 135.483 700.844 132.297 701.85 128.154C702.856 123.987 703.372 120.726 703.396 118.373C703.421 116.02 703.004 113.201 702.145 109.965C700.795 104.964 698.832 101.557 696.256 99.6939C693.654 97.8554 691.029 97.2916 688.354 98.0025C686.318 98.5418 684.747 99.5468 683.667 101.018C682.833 102.121 682.539 103.126 682.784 104.033C682.956 104.646 683.545 105.479 684.6 106.558C687.005 109.009 688.452 111.264 689.017 113.299C689.508 115.137 689.287 116.853 688.354 118.422C687.422 119.991 686.023 121.045 684.134 121.535C682.023 122.099 680.06 121.829 678.22 120.726C676.38 119.623 675.153 117.858 674.49 115.407C673.312 110.97 674.171 106.558 677.116 102.194C680.06 97.8309 684.968 94.7177 691.863 92.8792C699.151 90.9182 705.187 91.1878 709.948 93.6391C714.708 96.0905 717.726 99.792 719.051 104.695C720.008 108.274 719.91 111.828 718.782 115.382C717.628 118.937 714.757 123.3 710.144 128.473C707.052 131.953 705.163 134.821 704.5 137.077C703.813 139.356 703.887 142.494 704.697 146.563ZM706.292 154.947C708.819 154.261 711.199 154.579 713.432 155.878C715.665 157.178 717.138 159.09 717.8 161.59C718.487 164.115 718.168 166.493 716.868 168.748C715.567 171.003 713.678 172.474 711.15 173.16C708.623 173.847 706.243 173.503 704.01 172.204C701.752 170.905 700.304 168.968 699.617 166.468C698.93 163.943 699.249 161.565 700.55 159.335C701.85 157.08 703.764 155.633 706.292 154.947Z" fill="white"/>
<path d="M766.165 125.825L764.447 126.291L750.657 90.7955C750.043 89.2512 749.651 88.0745 749.43 87.3146C748.915 85.4271 749.013 83.7602 749.724 82.3384C750.436 80.9167 751.491 80.0342 752.89 79.642C754.313 79.2743 755.663 79.5194 756.939 80.4019C758.215 81.2844 759.172 82.8532 759.785 85.1084C759.981 85.8193 760.178 86.8489 760.423 88.1726L766.165 125.825ZM767.269 133.571C768.643 133.203 769.968 133.375 771.22 134.086C772.471 134.797 773.256 135.826 773.625 137.199C773.993 138.572 773.821 139.896 773.109 141.146C772.398 142.396 771.342 143.18 769.944 143.573C768.57 143.94 767.245 143.769 765.993 143.058C764.742 142.347 763.956 141.293 763.564 139.896C763.196 138.547 763.368 137.248 764.104 135.998C764.815 134.748 765.87 133.939 767.269 133.571Z" fill="#FF7D25"/>
<path d="M797.622 99.4731L796.273 99.2525L797.647 70.2042C797.696 68.9295 797.77 67.998 797.868 67.3852C798.089 65.9144 798.678 64.7868 799.61 64.0023C800.542 63.2424 801.548 62.9238 802.653 63.0954C803.757 63.267 804.616 63.8553 805.254 64.8848C805.867 65.8899 806.064 67.2871 805.769 69.0521C805.671 69.6159 805.499 70.4003 805.254 71.3808L797.622 99.4731ZM796.003 105.209C797.083 105.381 797.941 105.896 798.604 106.778C799.242 107.661 799.487 108.641 799.316 109.695C799.144 110.774 798.628 111.632 797.745 112.294C796.862 112.931 795.88 113.176 794.8 113.004C793.721 112.833 792.862 112.318 792.199 111.436C791.561 110.553 791.316 109.573 791.488 108.494C791.66 107.44 792.175 106.582 793.058 105.945C793.942 105.283 794.923 105.038 796.003 105.209Z" fill="#FF7D25"/>
<path d="M431.66 112.097C405.65 112.097 383.86 132.664 383.86 158.648C383.86 184.632 405.625 205.199 431.66 205.199C457.695 205.199 478.234 184.657 478.234 158.673C478.234 132.688 457.671 112.097 431.66 112.097ZM457.008 183.995C443.218 197.771 420.962 196.938 407.147 183.161C393.356 169.385 392.497 147.127 406.288 133.35C420.078 119.574 443.218 119.549 457.008 133.326C470.823 147.102 470.799 170.194 457.008 183.995Z" fill="#7855BA"/>
<path d="M431.66 161.614C430.041 161.614 428.716 160.291 428.716 158.673C428.716 157.055 430.041 155.731 431.66 155.731C436.052 155.731 438.285 155.682 440.445 155.658C442.629 155.608 444.886 155.584 449.328 155.584C450.947 155.584 452.272 156.908 452.272 158.526C452.272 160.143 450.947 161.467 449.328 161.467C444.935 161.467 442.702 161.516 440.543 161.541C438.359 161.565 436.102 161.614 431.66 161.614Z" fill="#7855BA"/>
<path d="M431.513 161.614C429.893 161.614 428.568 160.29 428.568 158.672C428.568 152.765 428.617 149.774 428.666 146.857C428.715 143.964 428.765 140.998 428.765 135.14C428.765 133.522 430.09 132.198 431.709 132.198C433.329 132.198 434.654 133.522 434.654 135.14C434.654 141.047 434.605 144.038 434.556 146.955C434.506 149.848 434.457 152.814 434.457 158.672C434.457 160.29 433.132 161.614 431.513 161.614Z" fill="#7855BA"/>
<path d="M620.114 264.57C618.74 264.57 617.366 264.325 616.016 263.834C609.93 261.579 606.814 254.789 609.072 248.71C609.243 248.219 620.114 218.313 620.114 182.205C620.114 145.754 609.194 116.019 609.072 115.701C606.814 109.621 609.906 102.831 615.991 100.576C622.077 98.3208 628.874 101.409 631.131 107.489C631.647 108.861 643.646 141.538 643.646 182.181C643.646 222.824 631.647 255.524 631.131 256.873C629.389 261.628 624.899 264.57 620.114 264.57Z" fill="#FFE5B1"/>
<path d="M603.55 246.65C606.053 238.757 608.531 232.751 611.132 216.548C611.77 212.601 646.639 218.656 645.952 222.603C642.247 243.905 631.892 257.436 627.843 261.873C610.813 280.552 596.851 267.732 603.55 246.65Z" fill="#47CFE1"/>
<path d="M527.58 382.405C535.8 347.425 535.702 310.508 527.31 275.552C556.584 255.279 571.282 249.862 600.9 251.798C611.795 252.509 620.727 260.599 622.665 271.335C629.291 307.86 629.61 345.537 623.622 382.184C623.573 382.503 546.744 382.405 527.58 382.405Z" fill="#47CFE1"/>
<path d="M594.823 256.466C595.041 257.405 594.733 258.488 593.847 259.678C592.962 260.866 591.54 262.104 589.664 263.31C585.915 265.721 580.447 267.949 574.149 269.402C567.852 270.854 561.959 271.247 557.532 270.723C555.316 270.46 553.495 269.971 552.178 269.29C550.859 268.609 550.108 267.77 549.891 266.831C549.673 265.891 549.98 264.808 550.867 263.618C551.752 262.43 553.174 261.192 555.05 259.986C558.799 257.575 564.267 255.347 570.565 253.895C576.862 252.442 582.754 252.049 587.182 252.574C589.398 252.836 591.219 253.325 592.536 254.006C593.855 254.687 594.606 255.526 594.823 256.466Z" fill="#47CFE1" stroke="white"/>
<path d="M560.216 261.481L553.591 232.825C552.118 226.501 556.069 220.176 562.424 218.706C568.755 217.235 575.086 221.181 576.558 227.53L583.184 256.186C584.631 262.511 561.467 266.923 560.216 261.481Z" fill="#FFC984"/>
<path d="M539.874 163.502C538.549 158.967 539.309 154.285 541.395 150.926C543.456 147.519 546.769 145.386 549.934 144.847C547.652 147.176 546.744 150.166 547.014 152.667C547.26 155.192 548.658 157.104 550.253 158.011C553.492 159.825 554.646 163.918 552.805 167.154C550.99 170.39 546.892 171.542 543.653 169.703C542.058 168.796 540.978 167.375 540.487 165.732L539.874 163.502Z" fill="#7975C6"/>
<path d="M526.697 163.845C527.629 162.472 527.703 160.192 526.255 158.182C524.856 156.197 522.01 154.652 518.574 154.824C520.562 152.078 524.341 149.897 528.831 149.75C533.297 149.529 538.475 151.466 542.303 155.559L548.511 162.202C553.811 167.865 553.492 176.714 547.849 182.009C542.18 187.304 533.322 186.985 528.022 181.347C523.433 176.445 523.065 169.14 526.697 163.845Z" fill="#7975C6"/>
<path d="M588.332 226.965C605.581 209.734 605.581 181.797 588.332 164.565C571.083 147.334 543.117 147.334 525.868 164.565C508.62 181.797 508.62 209.734 525.868 226.965C543.117 244.197 571.083 244.197 588.332 226.965Z" fill="#7975C6"/>
<path d="M537.248 227.506L533.273 210.298C529.985 196.055 538.868 181.838 553.125 178.553C567.381 175.268 581.613 184.142 584.901 198.384L588.877 215.593C592.165 229.835 583.282 244.052 569.025 247.337C554.769 250.646 540.536 241.773 537.248 227.506Z" fill="#FFE5B1"/>
<path d="M536.743 210.699C541.343 206.104 541.343 198.654 536.743 194.059C532.143 189.464 524.686 189.464 520.086 194.059C515.486 198.654 515.486 206.104 520.086 210.699C524.686 215.294 532.143 215.294 536.743 210.699Z" fill="#7975C6"/>
<path d="M594.131 197.454C598.731 192.859 598.731 185.409 594.131 180.814C589.532 176.219 582.074 176.219 577.474 180.814C572.875 185.409 572.875 192.859 577.474 197.454C582.074 202.049 589.532 202.049 594.131 197.454Z" fill="#7975C6"/>
<path d="M597.219 177.303C589.931 161.467 573.834 151.368 556.412 151.662C545.223 157.226 538.598 167.963 541.002 178.357C543.922 191.03 559.136 198.335 574.988 194.658C585.662 192.182 593.882 185.368 597.219 177.303Z" fill="#7975C6"/>
<path d="M514.06 205.689C514.256 206.498 514.501 207.282 514.747 208.091C516.636 207.968 518.55 207.674 520.464 207.233C536.316 203.581 546.794 190.343 543.849 177.694C542.156 170.316 536.267 164.776 528.537 162.153C516.366 172.473 510.232 189.069 514.06 205.689Z" fill="#7975C6"/>
<path d="M529.74 208.116C528.145 208.484 527.163 210.052 527.531 211.646L530.844 225.986C531.58 229.148 534.745 231.134 537.911 230.398L533.273 210.347C532.905 208.729 531.335 207.748 529.74 208.116Z" fill="#FFC984"/>
<path d="M587.134 194.879C585.539 195.246 584.558 196.815 584.926 198.409L589.564 218.461C592.729 217.725 594.717 214.563 593.98 211.401L590.668 197.06C590.3 195.492 588.705 194.511 587.134 194.879Z" fill="#FFC984"/>
<path d="M520.489 372.624C495.018 372.624 478.945 367.452 471.437 356.862C467.854 351.788 464.591 343.184 469.425 330.854C473.449 320.607 483.191 308.963 499.214 295.211C510.354 285.651 520.39 278.714 520.808 278.42C526.157 274.718 533.494 276.067 537.199 281.411C540.904 286.754 539.555 294.084 534.205 297.785C534.107 297.859 524.636 304.428 514.428 313.204C497.079 328.133 492.515 336.541 491.386 339.458C490.503 341.689 490.503 342.988 490.699 343.257C491.435 344.287 494.723 346.395 502.453 347.768C509.005 348.92 517.323 349.337 527.114 348.994C533.616 348.773 539.064 353.847 539.309 360.343C539.53 366.839 534.451 372.281 527.948 372.526C525.372 372.575 522.893 372.624 520.489 372.624Z" fill="#FFC984"/>
<path d="M573 299.844L549.444 302.786V323.377C549.444 335.756 573 332.815 573 320.435V299.844Z" fill="#47CFE1"/>
<path d="M485.448 299.771C499.975 285.676 513.372 279.743 520.415 276.508C546.155 264.594 548.904 294.574 528.709 308.498C528.562 308.596 522.427 313.106 510.06 325.093C506.624 328.427 478.455 306.561 485.448 299.771Z" fill="#47CFE1"/>
<path d="M664.282 364.559H505.275C503.655 364.559 502.33 365.883 502.33 367.501C502.33 369.119 503.655 370.443 505.275 370.443H664.282C665.902 370.443 667.227 369.119 667.227 367.501C667.227 365.883 665.902 364.559 664.282 364.559Z" fill="#FF7D25"/>
<path d="M655.449 364.559H584.779C584.779 364.559 589.097 357.304 590.668 355.735C613.488 332.937 658.393 355.735 658.393 355.735L655.449 364.559Z" fill="#E7EFFF"/>
<path d="M514.109 364.559H584.779C584.779 364.559 580.46 357.304 578.889 355.735C556.069 332.937 511.164 355.735 511.164 355.735L514.109 364.559Z" fill="#E7EFFF"/>
<path d="M584.779 364.559C584.779 364.559 587.085 356.421 588.189 354.509C604.311 326.588 653.608 337.006 653.608 337.006L584.779 364.559Z" fill="#E7EFFF"/>
<path d="M584.779 364.56C584.779 364.56 580.656 357.181 580.067 355.048C571.724 323.917 613.93 296.462 613.93 296.462L584.779 364.56Z" fill="#E7EFFF"/>
<path d="M584.779 370.443C588.031 370.443 590.668 367.809 590.668 364.559C590.668 361.31 588.031 358.676 584.779 358.676C581.526 358.676 578.889 361.31 578.889 364.559C578.889 367.809 581.526 370.443 584.779 370.443Z" fill="#FF7D25"/>
<path d="M732.008 370.467H437.55C434.286 370.467 431.66 373.09 431.66 376.35V388.117C431.66 391.377 434.286 394 437.55 394H732.008C735.271 394 737.897 391.377 737.897 388.117V376.35C737.897 373.09 735.271 370.467 732.008 370.467Z" fill="#7855BA"/>
<defs>
<linearGradient id="paint0_linear" x1="751.53" y1="178.862" x2="21.501" y2="263.756" gradientUnits="userSpaceOnUse">
<stop stop-color="#32058A"/>
<stop offset="1" stop-color="#A6023D"/>
</linearGradient>
</defs>
</svg>
