<svg width="887" height="463" viewBox="0 0 887 463" fill="none" xmlns="http://www.w3.org/2000/svg">
<path d="M718 180C850 164.65 954 256.781 778 354C698.204 398.078 540 446 312 400.115C47.2886 346.842 108.971 169.718 292.138 99.3043C534.803 6.0181 507.573 204.47 718 180Z" fill="url(#paint0_linear)"/>
<path d="M292.574 348.509C219.675 350.183 119.424 367.599 48.9811 347.616C16.4946 338.35 -16.3269 318.59 9.01486 281.415C23.6394 260.092 61.1496 273.265 72.6483 259.31C95.4224 231.513 67.513 187.304 108.372 156.939C168.21 112.507 230.392 161.962 255.176 214.99C261.651 228.722 263.549 263.218 279.178 270.809C301.505 281.638 312.781 257.301 332.652 256.854C423.637 254.957 432.121 375.748 292.574 348.509Z" fill="#E7EFFF" fill-opacity="0.2"/>
<path d="M263.549 188.086C258.971 179.713 249.259 172.233 235.862 168.326C219.898 163.749 186.295 159.06 166.759 197.798C157.939 215.102 159.614 229.838 167.094 243.346L165.419 292.578C148.227 300.84 132.486 311.11 133.491 327.186C105.358 360.008 118.42 391.936 150.795 403.546C157.828 406.114 299.608 401.202 299.831 399.862C305.078 362.799 300.501 321.046 296.482 297.044C307.757 285.21 314.009 259.31 314.567 238.099C317.693 102.125 242.672 75.1084 263.549 188.086Z" fill="white"/>
<path d="M264.777 346.276C264.777 344.713 266.005 343.374 267.679 343.374C269.242 343.374 270.582 344.602 270.582 346.276C270.582 347.839 269.354 349.179 267.679 349.179C266.116 349.179 264.777 347.839 264.777 346.276ZM247.696 346.276C247.696 344.713 248.924 343.374 250.599 343.374C252.162 343.374 253.501 344.602 253.501 346.276C253.501 347.839 252.273 349.179 250.599 349.179C249.036 349.179 247.696 347.839 247.696 346.276ZM230.615 346.276C230.615 344.713 231.843 343.374 233.518 343.374C235.081 343.374 236.421 344.602 236.421 346.276C236.421 347.839 235.193 349.179 233.518 349.179C231.843 349.179 230.615 347.839 230.615 346.276ZM213.423 346.276C213.423 344.713 214.651 343.374 216.326 343.374C217.889 343.374 219.228 344.602 219.228 346.276C219.228 347.839 218 349.179 216.326 349.179C214.763 349.179 213.423 347.839 213.423 346.276ZM196.343 346.276C196.343 344.713 197.571 343.374 199.245 343.374C200.808 343.374 202.148 344.602 202.148 346.276C202.148 347.839 200.92 349.179 199.245 349.179C197.682 349.179 196.343 347.839 196.343 346.276ZM179.262 346.276C179.262 344.713 180.49 343.374 182.165 343.374C183.728 343.374 185.067 344.602 185.067 346.276C185.067 347.839 183.839 349.179 182.165 349.179C180.49 349.179 179.262 347.839 179.262 346.276ZM162.182 346.276C162.182 344.713 163.41 343.374 165.084 343.374C166.647 343.374 167.987 344.602 167.987 346.276C167.987 347.839 166.759 349.179 165.084 349.179C163.41 349.179 162.182 347.839 162.182 346.276ZM144.989 346.276C144.989 344.713 146.217 343.374 147.892 343.374C149.455 343.374 150.795 344.602 150.795 346.276C150.795 347.839 149.567 349.179 147.892 349.179C146.329 349.179 144.989 347.839 144.989 346.276ZM127.909 346.276C127.909 344.713 129.137 343.374 130.811 343.374C132.374 343.374 133.714 344.602 133.714 346.276C133.714 347.839 132.486 349.179 130.811 349.179C129.137 349.179 127.909 347.839 127.909 346.276ZM110.828 346.276C110.828 344.713 112.056 343.374 113.731 343.374C115.294 343.374 116.633 344.602 116.633 346.276C116.633 347.839 115.405 349.179 113.731 349.179C112.056 349.179 110.828 347.839 110.828 346.276ZM93.6362 346.276C93.6362 344.713 94.8642 343.374 96.5387 343.374C98.1017 343.374 99.4413 344.602 99.4413 346.276C99.4413 347.839 98.2133 349.179 96.5387 349.179C94.9758 349.179 93.6362 347.839 93.6362 346.276ZM76.5556 346.276C76.5556 344.713 77.7836 343.374 79.4582 343.374C81.0211 343.374 82.3608 344.602 82.3608 346.276C82.3608 347.839 81.1327 349.179 79.4582 349.179C77.8952 349.179 76.5556 347.839 76.5556 346.276ZM59.475 346.276C59.475 344.713 60.7031 343.374 62.3776 343.374C63.9406 343.374 65.2802 344.602 65.2802 346.276C65.2802 347.839 64.0522 349.179 62.3776 349.179C60.7031 349.179 59.475 347.839 59.475 346.276ZM42.2829 346.276C42.2829 344.713 43.5109 343.374 45.1854 343.374C46.7484 343.374 48.088 344.602 48.088 346.276C48.088 347.839 46.86 349.179 45.1854 349.179C43.6225 349.179 42.2829 347.839 42.2829 346.276ZM25.2023 346.276C25.2023 344.713 26.4303 343.374 28.1049 343.374C29.6678 343.374 31.0075 344.602 31.0075 346.276C31.0075 347.839 29.7794 349.179 28.1049 349.179C26.542 349.179 25.2023 347.839 25.2023 346.276Z" fill="#7A7DFF"/>
<path d="M264.777 323.502C264.777 321.939 266.005 320.6 267.679 320.6C269.242 320.6 270.582 321.828 270.582 323.502C270.582 325.065 269.354 326.405 267.679 326.405C266.116 326.293 264.777 325.065 264.777 323.502ZM247.696 323.502C247.696 321.939 248.924 320.6 250.599 320.6C252.162 320.6 253.501 321.828 253.501 323.502C253.501 325.065 252.273 326.405 250.599 326.405C249.036 326.293 247.696 325.065 247.696 323.502ZM230.615 323.502C230.615 321.939 231.843 320.6 233.518 320.6C235.081 320.6 236.421 321.828 236.421 323.502C236.421 325.065 235.193 326.405 233.518 326.405C231.843 326.293 230.615 325.065 230.615 323.502ZM213.423 323.502C213.423 321.939 214.651 320.6 216.326 320.6C217.889 320.6 219.228 321.828 219.228 323.502C219.228 325.065 218 326.405 216.326 326.405C214.763 326.293 213.423 325.065 213.423 323.502ZM196.343 323.502C196.343 321.939 197.571 320.6 199.245 320.6C200.808 320.6 202.148 321.828 202.148 323.502C202.148 325.065 200.92 326.405 199.245 326.405C197.682 326.293 196.343 325.065 196.343 323.502ZM179.262 323.502C179.262 321.939 180.49 320.6 182.165 320.6C183.728 320.6 185.067 321.828 185.067 323.502C185.067 325.065 183.839 326.405 182.165 326.405C180.49 326.293 179.262 325.065 179.262 323.502ZM162.182 323.502C162.182 321.939 163.41 320.6 165.084 320.6C166.647 320.6 167.987 321.828 167.987 323.502C167.987 325.065 166.759 326.405 165.084 326.405C163.41 326.293 162.182 325.065 162.182 323.502ZM144.989 323.502C144.989 321.939 146.217 320.6 147.892 320.6C149.455 320.6 150.795 321.828 150.795 323.502C150.795 325.065 149.567 326.405 147.892 326.405C146.329 326.293 144.989 325.065 144.989 323.502ZM127.909 323.502C127.909 321.939 129.137 320.6 130.811 320.6C132.374 320.6 133.714 321.828 133.714 323.502C133.714 325.065 132.486 326.405 130.811 326.405C129.137 326.293 127.909 325.065 127.909 323.502ZM110.828 323.502C110.828 321.939 112.056 320.6 113.731 320.6C115.294 320.6 116.633 321.828 116.633 323.502C116.633 325.065 115.405 326.405 113.731 326.405C112.056 326.293 110.828 325.065 110.828 323.502ZM93.6362 323.502C93.6362 321.939 94.8642 320.6 96.5387 320.6C98.1017 320.6 99.4413 321.828 99.4413 323.502C99.4413 325.065 98.2133 326.405 96.5387 326.405C94.9758 326.293 93.6362 325.065 93.6362 323.502ZM76.5556 323.502C76.5556 321.939 77.7836 320.6 79.4582 320.6C81.0211 320.6 82.3608 321.828 82.3608 323.502C82.3608 325.065 81.1327 326.405 79.4582 326.405C77.8952 326.293 76.5556 325.065 76.5556 323.502ZM59.475 323.502C59.475 321.939 60.7031 320.6 62.3776 320.6C63.9406 320.6 65.2802 321.828 65.2802 323.502C65.2802 325.065 64.0522 326.405 62.3776 326.405C60.7031 326.293 59.475 325.065 59.475 323.502ZM42.2829 323.502C42.2829 321.939 43.5109 320.6 45.1854 320.6C46.7484 320.6 48.088 321.828 48.088 323.502C48.088 325.065 46.86 326.405 45.1854 326.405C43.6225 326.293 42.2829 325.065 42.2829 323.502ZM25.2023 323.502C25.2023 321.939 26.4303 320.6 28.1049 320.6C29.6678 320.6 31.0075 321.828 31.0075 323.502C31.0075 325.065 29.7794 326.405 28.1049 326.405C26.542 326.293 25.2023 325.065 25.2023 323.502Z" fill="#7A7DFF"/>
<path d="M264.777 300.616C264.777 299.053 266.005 297.714 267.679 297.714C269.242 297.714 270.582 298.942 270.582 300.616C270.582 302.179 269.354 303.519 267.679 303.519C266.116 303.519 264.777 302.179 264.777 300.616ZM247.696 300.616C247.696 299.053 248.924 297.714 250.599 297.714C252.162 297.714 253.501 298.942 253.501 300.616C253.501 302.179 252.273 303.519 250.599 303.519C249.036 303.519 247.696 302.179 247.696 300.616ZM230.615 300.616C230.615 299.053 231.843 297.714 233.518 297.714C235.081 297.714 236.421 298.942 236.421 300.616C236.421 302.179 235.193 303.519 233.518 303.519C231.843 303.519 230.615 302.179 230.615 300.616ZM213.423 300.616C213.423 299.053 214.651 297.714 216.326 297.714C217.889 297.714 219.228 298.942 219.228 300.616C219.228 302.179 218 303.519 216.326 303.519C214.763 303.519 213.423 302.179 213.423 300.616ZM196.343 300.616C196.343 299.053 197.571 297.714 199.245 297.714C200.808 297.714 202.148 298.942 202.148 300.616C202.148 302.179 200.92 303.519 199.245 303.519C197.682 303.519 196.343 302.179 196.343 300.616ZM179.262 300.616C179.262 299.053 180.49 297.714 182.165 297.714C183.728 297.714 185.067 298.942 185.067 300.616C185.067 302.179 183.839 303.519 182.165 303.519C180.49 303.519 179.262 302.179 179.262 300.616ZM162.182 300.616C162.182 299.053 163.41 297.714 165.084 297.714C166.647 297.714 167.987 298.942 167.987 300.616C167.987 302.179 166.759 303.519 165.084 303.519C163.41 303.519 162.182 302.179 162.182 300.616ZM144.989 300.616C144.989 299.053 146.217 297.714 147.892 297.714C149.455 297.714 150.795 298.942 150.795 300.616C150.795 302.179 149.567 303.519 147.892 303.519C146.329 303.519 144.989 302.179 144.989 300.616ZM127.909 300.616C127.909 299.053 129.137 297.714 130.811 297.714C132.374 297.714 133.714 298.942 133.714 300.616C133.714 302.179 132.486 303.519 130.811 303.519C129.137 303.519 127.909 302.179 127.909 300.616ZM110.828 300.616C110.828 299.053 112.056 297.714 113.731 297.714C115.294 297.714 116.633 298.942 116.633 300.616C116.633 302.179 115.405 303.519 113.731 303.519C112.056 303.519 110.828 302.179 110.828 300.616ZM93.6362 300.616C93.6362 299.053 94.8642 297.714 96.5387 297.714C98.1017 297.714 99.4413 298.942 99.4413 300.616C99.4413 302.179 98.2133 303.519 96.5387 303.519C94.9758 303.519 93.6362 302.179 93.6362 300.616ZM76.5556 300.616C76.5556 299.053 77.7836 297.714 79.4582 297.714C81.0211 297.714 82.3608 298.942 82.3608 300.616C82.3608 302.179 81.1327 303.519 79.4582 303.519C77.8952 303.519 76.5556 302.179 76.5556 300.616ZM59.475 300.616C59.475 299.053 60.7031 297.714 62.3776 297.714C63.9406 297.714 65.2802 298.942 65.2802 300.616C65.2802 302.179 64.0522 303.519 62.3776 303.519C60.7031 303.519 59.475 302.179 59.475 300.616ZM42.2829 300.616C42.2829 299.053 43.5109 297.714 45.1854 297.714C46.7484 297.714 48.088 298.942 48.088 300.616C48.088 302.179 46.86 303.519 45.1854 303.519C43.6225 303.519 42.2829 302.179 42.2829 300.616ZM25.2023 300.616C25.2023 299.053 26.4303 297.714 28.1049 297.714C29.6678 297.714 31.0075 298.942 31.0075 300.616C31.0075 302.179 29.7794 303.519 28.1049 303.519C26.542 303.519 25.2023 302.179 25.2023 300.616Z" fill="#7A7DFF"/>
<path d="M407.449 300.616C407.449 299.053 408.678 297.714 410.352 297.714C411.915 297.714 413.255 298.942 413.255 300.616C413.255 302.179 412.027 303.519 410.352 303.519C408.678 303.519 407.449 302.179 407.449 300.616ZM390.369 300.616C390.369 299.053 391.597 297.714 393.271 297.714C394.834 297.714 396.174 298.942 396.174 300.616C396.174 302.179 394.946 303.519 393.271 303.519C391.597 303.519 390.369 302.179 390.369 300.616ZM373.177 300.616C373.177 299.053 374.405 297.714 376.079 297.714C377.642 297.714 378.982 298.942 378.982 300.616C378.982 302.179 377.754 303.519 376.079 303.519C374.516 303.519 373.177 302.179 373.177 300.616ZM356.096 300.616C356.096 299.053 357.324 297.714 358.999 297.714C360.562 297.714 361.901 298.942 361.901 300.616C361.901 302.179 360.673 303.519 358.999 303.519C357.324 303.519 356.096 302.179 356.096 300.616ZM339.016 300.616C339.016 299.053 340.244 297.714 341.918 297.714C343.481 297.714 344.821 298.942 344.821 300.616C344.821 302.179 343.593 303.519 341.918 303.519C340.244 303.519 339.016 302.179 339.016 300.616ZM321.823 300.616C321.823 299.053 323.051 297.714 324.726 297.714C326.289 297.714 327.629 298.942 327.629 300.616C327.629 302.179 326.401 303.519 324.726 303.519C323.163 303.519 321.823 302.179 321.823 300.616Z" fill="#7A7DFF"/>
<path d="M407.45 277.843C407.45 276.28 408.678 274.94 410.352 274.94C411.915 274.94 413.255 276.168 413.255 277.843C413.255 279.405 412.027 280.745 410.352 280.745C408.678 280.633 407.45 279.405 407.45 277.843ZM390.369 277.843C390.369 276.28 391.597 274.94 393.272 274.94C394.834 274.94 396.174 276.168 396.174 277.843C396.174 279.405 394.946 280.745 393.272 280.745C391.597 280.633 390.369 279.405 390.369 277.843ZM373.177 277.843C373.177 276.28 374.405 274.94 376.079 274.94C377.642 274.94 378.982 276.168 378.982 277.843C378.982 279.405 377.754 280.745 376.079 280.745C374.516 280.633 373.177 279.405 373.177 277.843ZM356.096 277.843C356.096 276.28 357.324 274.94 358.999 274.94C360.562 274.94 361.901 276.168 361.901 277.843C361.901 279.405 360.673 280.745 358.999 280.745C357.324 280.633 356.096 279.405 356.096 277.843ZM339.016 277.843C339.016 276.28 340.244 274.94 341.918 274.94C343.481 274.94 344.821 276.168 344.821 277.843C344.821 279.405 343.593 280.745 341.918 280.745C340.244 280.633 339.016 279.405 339.016 277.843ZM321.823 277.843C321.823 276.28 323.051 274.94 324.726 274.94C326.289 274.94 327.629 276.168 327.629 277.843C327.629 279.405 326.401 280.745 324.726 280.745C323.163 280.633 321.823 279.405 321.823 277.843Z" fill="#7A7DFF"/>
<path d="M411.915 13.4845C411.915 2.87888 403.319 -2.59137 392.713 1.20431L262.432 47.7572C251.827 51.5529 243.231 63.1632 243.231 73.7688V118.535C243.231 129.141 251.827 140.751 262.432 144.547L392.713 191.1C403.319 194.896 411.915 189.314 411.915 178.82V13.4845Z" fill="#47CFE1"/>
<path d="M382.108 193.109C382.108 204.608 370.163 214.99 352.97 214.99C335.778 214.99 324.614 204.496 324.614 193.109C324.614 181.611 335.778 169.33 352.97 169.33C370.163 169.33 382.108 181.722 382.108 193.109Z" fill="#47CFE1"/>
<path d="M324.726 221.242C324.726 226.936 318.809 232.183 310.213 232.183C301.617 232.183 296.035 226.936 296.035 221.242C296.035 215.549 301.617 209.408 310.213 209.408C318.809 209.408 324.726 215.437 324.726 221.242Z" fill="#47CFE1"/>
<path d="M312.111 142.537C312.111 145.44 309.097 148.008 304.855 148.008C300.612 148.008 297.821 145.44 297.821 142.537C297.821 139.635 300.612 136.621 304.855 136.621C309.097 136.621 312.111 139.635 312.111 142.537Z" fill="white"/>
<path d="M186.295 105.139C186.295 108.041 183.281 110.609 179.039 110.609C174.797 110.609 172.006 108.041 172.006 105.139C172.006 102.236 174.797 99.2219 179.039 99.2219C183.281 99.2219 186.295 102.348 186.295 105.139Z" fill="#7A7DFF"/>
<path d="M446.523 75.3316C446.523 78.2342 443.508 80.8018 439.266 80.8018C435.024 80.8018 432.233 78.2342 432.233 75.3316C432.233 72.429 435.024 69.4148 439.266 69.4148C443.508 69.4148 446.523 72.429 446.523 75.3316Z" fill="#7A7DFF"/>
<path d="M387.69 105.027C387.69 106.478 386.238 107.818 384.006 107.818C381.884 107.818 380.433 106.478 380.433 105.027C380.433 103.576 381.773 102.013 384.006 102.013C386.238 102.125 387.69 103.688 387.69 105.027Z" fill="white"/>
<path d="M236.532 72.3174C236.532 73.7687 235.081 75.1084 232.848 75.1084C230.727 75.1084 229.276 73.7687 229.276 72.3174C229.276 70.8662 230.616 69.3032 232.848 69.3032C235.081 69.4149 236.532 70.9778 236.532 72.3174Z" fill="#7A7DFF"/>
<path d="M222.131 128.471C217.219 130.816 214.205 132.044 213.088 132.379C211.302 132.825 209.516 132.825 207.73 132.379C204.939 131.821 202.818 130.258 201.366 128.025C199.915 125.68 199.58 123.001 200.25 119.875C200.697 117.866 201.478 116.303 202.706 115.075C204.381 113.289 206.837 111.949 210.297 110.721C213.647 109.605 219.117 108.488 226.597 107.484L226.931 105.921C227.825 101.902 227.713 98.999 226.82 97.2128C225.815 95.4266 224.141 94.3103 221.685 93.7521C219.787 93.3055 218.224 93.5288 216.884 94.3103C215.544 95.0917 214.763 96.0965 214.428 97.4361L213.982 100.004C213.647 101.343 213.088 102.348 212.307 102.906C211.414 103.465 210.409 103.688 209.293 103.465C208.176 103.241 207.395 102.683 206.837 101.678C206.279 100.785 206.167 99.6689 206.502 98.3292C207.06 95.7616 208.846 93.7521 211.86 92.1892C214.875 90.6262 218.782 90.403 223.471 91.4077C227.043 92.1892 229.946 93.4172 231.955 95.0917C233.518 96.4314 234.523 98.106 234.858 100.227C235.081 101.567 234.858 104.246 233.965 108.153L230.95 121.885C230.057 125.792 229.722 128.136 229.611 129.03C229.611 129.923 229.722 130.592 229.946 130.927C230.169 131.262 230.616 131.486 231.062 131.597C231.509 131.709 231.955 131.709 232.402 131.597C233.072 131.374 234.523 130.481 236.644 129.141L236.086 131.597C231.844 135.281 228.159 136.844 225.145 136.174C223.694 135.839 222.689 135.058 222.019 133.942C221.684 132.714 221.573 130.927 222.131 128.471ZM222.689 125.569L226.038 110.163C221.238 110.944 218 111.614 216.549 112.061C213.982 112.842 211.972 113.847 210.632 115.075C209.293 116.303 208.511 117.754 208.065 119.429C207.618 121.55 207.841 123.448 208.846 125.122C209.851 126.797 211.079 127.802 212.754 128.136C215.21 128.583 218.447 127.802 222.689 125.569Z" fill="#7855BA"/>
<path d="M296.928 83.5928C302.957 83.3695 307.311 83.9277 310.101 85.1557C314.12 86.9419 316.688 89.9561 317.805 94.1984C319.033 98.6639 318.251 102.794 315.348 106.702C311.888 111.391 305.971 114.851 297.598 117.196L267.456 125.234L267.009 123.559C269.8 122.778 271.587 122.108 272.368 121.326C273.261 120.545 273.708 119.652 273.931 118.759C274.154 117.866 273.708 115.744 272.926 112.507L262.656 73.992C261.762 70.7545 261.093 68.8566 260.423 68.0752C259.753 67.2937 258.971 66.8471 257.855 66.6239C256.739 66.4006 254.841 66.6239 252.05 67.4053L251.603 65.7308L280.071 58.1394C286.881 56.3532 291.793 55.6834 295.03 56.1299C298.268 56.5765 300.947 57.8045 303.18 59.814C305.413 61.8235 306.976 64.1678 307.645 66.8471C308.427 69.7497 308.092 72.5407 306.529 75.3316C304.966 78.1225 301.84 80.8019 296.928 83.5928ZM281.634 90.0678L286.769 109.158L287.327 111.391C287.774 112.953 288.444 114.07 289.449 114.628C290.453 115.186 291.793 115.298 293.356 114.851C295.7 114.181 297.71 113.177 299.384 111.614C301.059 110.051 302.175 108.153 302.733 105.92C303.292 103.688 303.18 101.343 302.51 98.8871C301.729 96.0962 300.501 93.7518 298.603 91.9656C296.705 90.0678 294.584 89.063 292.016 88.7281C289.56 88.3932 286.099 88.8398 281.634 90.0678ZM280.741 86.607C284.871 85.4906 287.774 84.2626 289.56 82.6997C291.235 81.2484 292.463 79.5738 293.021 77.5644C293.579 75.5549 293.579 73.3221 292.909 70.6428C292.239 67.9635 291.123 65.954 289.672 64.6144C288.221 63.1631 286.323 62.3816 284.202 61.9351C282.08 61.6002 278.843 61.9351 274.601 63.1631L280.741 86.607Z" fill="white"/>
<path d="M368.711 86.4955C366.255 91.5192 363.129 95.0916 359.334 97.2127C355.426 99.3339 351.631 99.892 347.723 98.8873C343.146 97.7709 339.685 94.8684 337.229 90.1796C334.773 85.4908 334.327 79.9089 336.001 73.3223C337.564 66.9589 340.69 62.2702 345.491 59.256C350.291 56.2417 355.203 55.3486 360.562 56.6883C364.469 57.693 367.483 59.4792 369.493 62.2702C371.502 64.9495 372.284 67.5171 371.725 69.7499C371.502 70.8663 370.832 71.6477 369.939 72.2059C369.046 72.7641 367.93 72.7641 366.702 72.5408C365.027 72.0943 363.799 71.2012 363.241 69.8615C362.906 69.0801 362.906 67.8521 363.129 66.0659C363.353 64.2796 363.129 62.8284 362.348 61.712C361.566 60.5956 360.227 59.8141 358.441 59.3676C355.538 58.5861 352.859 59.1443 350.514 60.8189C347.388 63.0516 345.267 66.624 344.151 71.3128C342.923 76.1132 343.035 80.6904 344.486 84.9326C345.937 89.1748 348.616 91.8541 352.635 92.8589C355.538 93.5287 358.329 93.1938 361.12 91.8541C363.018 90.961 365.25 88.8399 367.595 85.7141L368.711 86.4955Z" fill="white"/>
<path d="M361.008 174.801L358.775 175.359C357.659 171.34 356.989 168.214 356.878 166.093C356.766 163.972 357.213 160.846 358.217 156.827C359.222 152.808 359.669 149.682 359.669 147.338C359.669 144.994 359.334 142.314 358.441 139.189C357.101 134.388 355.203 131.039 352.747 129.253C350.291 127.467 347.723 126.908 345.044 127.578C343.035 128.136 341.583 129.03 340.467 130.481C339.685 131.597 339.351 132.49 339.574 133.383C339.685 133.942 340.355 134.835 341.36 135.839C343.704 138.184 345.156 140.417 345.602 142.426C346.049 144.212 345.826 145.887 344.932 147.45C344.039 149.013 342.7 150.017 340.802 150.464C338.792 151.022 336.895 150.799 335.108 149.683C333.322 148.566 332.094 146.892 331.536 144.547C330.42 140.193 331.201 135.951 334.104 131.709C337.006 127.467 341.695 124.452 348.393 122.666C355.426 120.768 361.343 120.992 365.92 123.448C370.497 125.792 373.512 129.364 374.74 134.165C375.633 137.626 375.633 141.086 374.516 144.547C373.4 148.008 370.609 152.25 366.144 157.274C363.129 160.623 361.343 163.414 360.673 165.647C360.004 167.879 360.227 170.894 361.008 174.801ZM362.571 182.95C365.027 182.281 367.372 182.616 369.493 183.844C371.614 185.072 373.065 186.969 373.735 189.425C374.405 191.882 374.07 194.226 372.842 196.347C371.614 198.58 369.716 199.919 367.26 200.589C364.804 201.259 362.46 200.924 360.338 199.696C358.106 198.468 356.766 196.57 356.096 194.114C355.426 191.658 355.761 189.314 356.989 187.193C358.217 184.96 360.115 183.62 362.571 182.95Z" fill="white"/>
<path d="M420.511 154.706L418.836 155.152L405.44 120.768C404.882 119.317 404.435 118.089 404.212 117.419C403.765 115.633 403.765 113.958 404.547 112.619C405.217 111.279 406.221 110.386 407.673 110.051C409.012 109.716 410.352 109.939 411.58 110.832C412.808 111.725 413.701 113.177 414.371 115.41C414.594 116.079 414.706 117.084 414.929 118.424L420.511 154.706ZM421.627 162.186C422.967 161.851 424.195 161.962 425.423 162.744C426.651 163.414 427.433 164.418 427.767 165.758C428.102 167.098 427.991 168.326 427.321 169.554C426.651 170.782 425.646 171.563 424.307 171.898C422.967 172.233 421.739 172.121 420.511 171.452C419.283 170.782 418.502 169.777 418.167 168.437C417.832 167.098 417.943 165.87 418.725 164.642C419.283 163.302 420.288 162.521 421.627 162.186Z" fill="#7855BA"/>
<path d="M450.988 129.141L449.648 128.918L450.988 100.785C450.988 99.557 451.1 98.6639 451.211 98.1057C451.435 96.6544 451.993 95.538 452.886 94.8682C453.779 94.0867 454.784 93.8634 455.789 93.9751C456.905 94.1983 457.686 94.7565 458.356 95.6496C458.914 96.6544 459.138 97.994 458.914 99.6686C458.803 100.227 458.691 101.008 458.468 101.901L450.988 129.141ZM449.425 134.723C450.43 134.834 451.323 135.393 451.881 136.286C452.551 137.179 452.774 138.072 452.551 139.077C452.439 140.081 451.881 140.975 450.988 141.533C450.095 142.203 449.202 142.426 448.086 142.203C447.081 142.091 446.188 141.533 445.63 140.64C444.96 139.746 444.736 138.853 444.96 137.737C445.071 136.732 445.63 135.839 446.523 135.281C447.416 134.723 448.42 134.5 449.425 134.723Z" fill="#7855BA"/>
<path d="M96.5387 141.421C71.3086 141.421 50.2091 161.404 50.2091 186.523C50.2091 211.641 71.3086 231.624 96.5387 231.624C121.769 231.624 141.64 211.753 141.64 186.523C141.64 161.293 121.769 141.421 96.5387 141.421ZM121.099 211.083C107.702 224.479 86.1564 223.586 72.7599 210.301C59.3634 196.905 58.5819 175.359 71.9784 161.962C85.375 148.566 107.702 148.566 121.099 161.962C134.496 175.359 134.496 197.686 121.099 211.083Z" fill="#E4E7FB"/>
<path d="M96.5387 189.425C94.9758 189.425 93.6362 188.197 93.6362 186.523C93.6362 184.96 94.8642 183.62 96.5387 183.62C100.781 183.62 102.902 183.62 105.023 183.508C107.144 183.508 109.377 183.397 113.619 183.397C115.182 183.397 116.522 184.625 116.522 186.299C116.522 187.862 115.294 189.202 113.619 189.202C109.377 189.202 107.256 189.202 105.135 189.314C103.014 189.314 100.781 189.425 96.5387 189.425Z" fill="#E4E7FB"/>
<path d="M96.4271 189.425C94.8642 189.425 93.5245 188.197 93.5245 186.523C93.5245 180.829 93.5245 177.927 93.6361 175.024C93.6361 172.233 93.7478 169.33 93.7478 163.637C93.7478 162.074 94.9758 160.734 96.6504 160.734C98.2133 160.734 99.5529 161.962 99.5529 163.637C99.5529 169.33 99.5529 172.233 99.4413 175.136C99.4413 177.927 99.3297 180.829 99.3297 186.523C99.218 188.086 97.99 189.425 96.4271 189.425Z" fill="#E4E7FB"/>
<path d="M212.195 380.437C212.195 380.437 202.036 382 189.421 382.447" stroke="#F9BF3B" stroke-width="20.4404" stroke-miterlimit="10" stroke-linecap="round"/>
<path d="M279.066 289.229C277.727 289.229 276.387 289.006 275.047 288.559C269.13 286.327 266.116 279.852 268.349 273.935C268.572 273.488 279.066 244.463 279.066 209.408C279.066 174.243 268.461 145.217 268.349 144.882C266.116 138.965 269.13 132.378 275.047 130.257C280.964 128.025 287.551 131.039 289.672 136.956C290.118 138.295 301.84 170 301.84 209.408C301.84 248.816 290.23 280.522 289.672 281.861C288.109 286.327 283.755 289.229 279.066 289.229Z" fill="#47CFE1"/>
<path d="M189.421 403.434C197.347 369.496 197.347 333.661 189.198 299.835C217.554 280.186 231.843 274.939 260.534 276.837C271.14 277.507 279.736 285.322 281.634 295.816C287.997 330.758 288.332 366.817 282.75 401.871C282.639 402.318 247.584 403.211 220.456 403.546C203.264 403.769 189.31 403.769 189.421 403.434Z" fill="#47CFE1"/>
<path d="M234.712 294.363C246.968 291.533 256.082 285.684 255.069 281.298C254.056 276.913 243.3 275.652 231.044 278.482C218.789 281.312 209.674 287.161 210.687 291.547C211.7 295.932 222.456 297.193 234.712 294.363Z" fill="#FFE5B1"/>
<path d="M221.015 286.215L214.651 258.417C213.2 252.277 217.107 246.137 223.247 244.686C229.387 243.235 235.528 247.142 236.979 253.282L243.342 281.08C244.682 287.22 222.243 291.462 221.015 286.215Z" fill="#FFC984"/>
<path d="M182.611 394.057C157.939 394.057 142.422 389.033 135.054 378.762C131.593 373.85 128.467 365.477 133.156 353.532C137.063 343.597 146.441 332.321 161.958 318.925C172.787 309.659 182.5 302.96 182.835 302.626C187.97 299.053 195.115 300.393 198.687 305.528C202.26 310.663 200.92 317.808 195.785 321.381C195.673 321.492 186.519 327.856 176.583 336.34C159.726 350.853 155.372 359.003 154.255 361.793C153.362 363.915 153.362 365.254 153.586 365.477C154.255 366.482 157.493 368.492 164.973 369.831C171.336 370.948 179.374 371.394 188.863 371.059C195.115 370.836 200.473 375.748 200.697 382C200.92 388.252 196.008 393.61 189.756 393.833C187.3 393.945 184.844 394.057 182.611 394.057Z" fill="#47CFE1"/>
<path d="M285.541 175.582C280.294 175.582 275.494 171.898 274.377 166.54C271.586 153.366 268.461 144.882 268.349 144.77C266.116 138.853 269.13 132.267 275.047 130.146C280.964 127.913 287.551 130.927 289.672 136.844C289.783 137.29 293.356 146.78 296.593 161.739C297.933 167.879 294.026 174.019 287.886 175.247C287.104 175.582 286.323 175.582 285.541 175.582Z" fill="#FFE5B1"/>
<path d="M221.684 305.193C221.015 305.193 220.233 305.193 219.563 305.193C218.782 305.193 218.112 304.523 218.224 303.742C218.224 302.961 218.894 302.291 219.675 302.402C220.345 302.402 221.015 302.402 221.684 302.402C226.15 302.402 231.174 301.844 236.086 300.728C243.007 299.165 249.482 296.597 254.283 293.471C254.952 293.025 255.846 293.248 256.292 293.918C256.739 294.588 256.515 295.481 255.846 295.927C250.599 299.276 244.012 301.844 236.756 303.63C231.62 304.635 226.373 305.193 221.684 305.193ZM208.511 302.961C208.288 302.961 208.176 302.961 207.953 302.849C204.269 301.286 201.925 298.942 201.255 296.039C201.032 295.258 201.59 294.476 202.371 294.364C203.153 294.141 203.934 294.699 204.046 295.481C204.604 297.937 207.06 299.5 209.069 300.281C209.739 300.616 210.074 301.398 209.851 302.179C209.628 302.737 209.069 302.961 208.511 302.961ZM261.539 290.457C261.204 290.457 260.869 290.345 260.646 290.122C260.088 289.676 259.976 288.671 260.423 288.113C261.874 286.327 262.655 284.54 262.655 282.977C262.655 282.642 262.655 282.308 262.544 281.861C262.321 281.08 262.879 280.298 263.66 280.186C264.442 279.963 265.223 280.521 265.335 281.303C265.446 281.861 265.558 282.419 265.558 282.977C265.558 285.21 264.553 287.555 262.655 289.899C262.432 290.345 261.986 290.457 261.539 290.457Z" fill="#E7EFFF"/>
<path d="M222.019 232.182H199.245V300.616H222.019V232.182Z" fill="url(#paint1_linear)"/>
<path d="M199.245 300.616H222.019V346.276C209.404 346.276 199.245 336.005 199.245 323.502V300.616Z" fill="url(#paint2_linear)"/>
<path d="M176.36 232.182V284.652C176.36 292.69 180.937 299.723 187.858 303.742C194.668 307.649 199.134 315.017 199.134 323.39V300.616V232.182H176.36Z" fill="url(#paint3_linear)"/>
<path d="M218 265.227C241.615 265.227 260.758 246.084 260.758 222.47C260.758 198.855 241.615 179.712 218 179.712C194.386 179.712 175.243 198.855 175.243 222.47C175.243 246.084 194.386 265.227 218 265.227Z" fill="url(#paint4_linear)"/>
<path d="M198.799 253.282L195.003 236.648C191.766 222.805 200.473 209.073 214.205 205.836C228.048 202.598 241.779 211.306 245.017 225.037L248.812 241.671C252.05 255.514 243.342 269.246 229.611 272.483C215.768 275.721 202.036 267.125 198.799 253.282Z" fill="#FFE5B1"/>
<path d="M256.962 204.607C249.929 189.201 234.3 179.489 217.442 179.712C206.613 185.071 200.138 195.565 202.483 205.612C205.274 217.892 220.01 224.925 235.416 221.465C245.687 219.009 253.724 212.422 256.962 204.607Z" fill="url(#paint5_linear)"/>
<path d="M176.36 232.07C176.583 232.852 176.806 233.633 177.029 234.414C178.816 234.303 180.713 233.968 182.611 233.633C197.906 230.061 208.065 217.222 205.274 204.942C203.599 197.797 197.906 192.439 190.426 189.871C178.592 199.918 172.676 215.994 176.36 232.07Z" fill="url(#paint6_linear)"/>
<path d="M191.542 234.527C189.979 234.862 189.086 236.425 189.421 237.987L192.659 251.831C193.329 254.845 196.454 256.854 199.469 256.073L195.003 236.648C194.557 235.085 193.105 234.08 191.542 234.527Z" fill="#FFC984"/>
<path d="M247.138 221.688C245.575 222.023 244.682 223.586 245.017 225.149L249.482 244.574C252.496 243.904 254.506 240.778 253.724 237.764L250.487 223.921C250.152 222.246 248.701 221.242 247.138 221.688Z" fill="#FFC984"/>
<path d="M321.823 386.243H167.764C166.201 386.243 164.861 387.471 164.861 389.145C164.861 390.708 166.089 392.048 167.764 392.048H321.823C323.386 392.048 324.726 390.82 324.726 389.145C324.726 387.471 323.498 386.243 321.823 386.243Z" fill="#7A7DFF"/>
<path d="M313.339 386.242H244.905C244.905 386.242 249.147 379.209 250.599 377.646C272.703 355.542 316.242 377.646 316.242 377.646L313.339 386.242Z" fill="#E7EFFF"/>
<path d="M176.36 386.242H244.794C244.794 386.242 240.551 379.209 239.1 377.646C216.996 355.542 173.457 377.646 173.457 377.646L176.36 386.242Z" fill="#E7EFFF"/>
<path d="M244.905 386.243C244.905 386.243 247.138 378.316 248.254 376.53C263.884 349.514 311.664 359.561 311.664 359.561L244.905 386.243Z" fill="#E7EFFF"/>
<path d="M244.905 386.243C244.905 386.243 240.886 379.098 240.328 376.977C232.29 346.834 273.149 320.153 273.149 320.153L244.905 386.243Z" fill="#E7EFFF"/>
<path d="M244.905 391.936C248.05 391.936 250.599 389.387 250.599 386.243C250.599 383.098 248.05 380.549 244.905 380.549C241.761 380.549 239.212 383.098 239.212 386.243C239.212 389.387 241.761 391.936 244.905 391.936Z" fill="#7A7DFF"/>
<path d="M387.466 391.936H102.232C99.1064 391.936 96.5387 394.504 96.5387 397.629V409.016C96.5387 412.142 99.1064 414.71 102.232 414.71H387.466C390.592 414.71 393.16 412.142 393.16 409.016V397.629C393.16 394.504 390.592 391.936 387.466 391.936Z" fill="#7855BA"/>
<defs>
<linearGradient id="paint0_linear" x1="859.08" y1="212.891" x2="103.575" y2="300.748" gradientUnits="userSpaceOnUse">
<stop offset="0.197917" stop-color="#05A4EF"/>
<stop offset="0.864583" stop-color="#0505A9"/>
<stop offset="1" stop-color="#2D048E"/>
</linearGradient>
<linearGradient id="paint1_linear" x1="225.182" y1="185.871" x2="200.925" y2="320.091" gradientUnits="userSpaceOnUse">
<stop stop-color="#7BEDF5"/>
<stop offset="1" stop-color="#7855BA"/>
</linearGradient>
<linearGradient id="paint2_linear" x1="235.166" y1="187.675" x2="210.909" y2="321.895" gradientUnits="userSpaceOnUse">
<stop stop-color="#7BEDF5"/>
<stop offset="1" stop-color="#7855BA"/>
</linearGradient>
<linearGradient id="paint3_linear" x1="205.081" y1="182.238" x2="180.825" y2="316.458" gradientUnits="userSpaceOnUse">
<stop stop-color="#7BEDF5"/>
<stop offset="1" stop-color="#7855BA"/>
</linearGradient>
<linearGradient id="paint4_linear" x1="224.68" y1="185.78" x2="200.423" y2="320" gradientUnits="userSpaceOnUse">
<stop stop-color="#7BEDF5"/>
<stop offset="1" stop-color="#7855BA"/>
</linearGradient>
<linearGradient id="paint5_linear" x1="232.154" y1="187.13" x2="207.898" y2="321.35" gradientUnits="userSpaceOnUse">
<stop stop-color="#7BEDF5"/>
<stop offset="1" stop-color="#7855BA"/>
</linearGradient>
<linearGradient id="paint6_linear" x1="196.624" y1="180.709" x2="172.368" y2="314.929" gradientUnits="userSpaceOnUse">
<stop stop-color="#7BEDF5"/>
<stop offset="1" stop-color="#7855BA"/>
</linearGradient>
</defs>
</svg>
