<svg width="319" height="226" viewBox="0 0 319 226" fill="none" xmlns="http://www.w3.org/2000/svg">
<path d="M255.5 89.0802C309.699 89.0811 339.593 133.487 268.5 179.08C236.268 199.752 172.111 219.356 77.5002 199.081C-10.939 180.128 -10.7011 67.8088 58.5001 45.5799C131.749 22.051 175.5 89.079 255.5 89.0802Z" fill="url(#paint0_linear)"/>
<path d="M189.419 170.837C153.684 171.658 104.541 180.195 70.0104 170.399C54.0856 165.857 37.9966 156.171 50.419 137.948C57.5879 127.495 75.9753 133.953 81.6119 127.112C92.7757 113.486 79.0946 91.8152 99.1237 76.9301C128.456 55.1499 158.937 79.3927 171.086 105.387C174.26 112.118 175.19 129.028 182.852 132.749C193.797 138.057 199.324 126.127 209.065 125.908C253.665 124.978 257.824 184.19 189.419 170.837Z" fill="#E7EFFF" fill-opacity="0.2"/>
<path d="M175.19 92.1988C172.947 88.0945 168.186 84.428 161.619 82.5126C153.793 80.2689 137.321 77.9705 127.745 96.9598C123.421 105.442 124.242 112.666 127.909 119.287L127.088 143.421C118.66 147.47 110.944 152.505 111.437 160.385C97.6461 176.474 104.049 192.125 119.919 197.817C123.367 199.075 192.866 196.668 192.976 196.011C195.548 177.842 193.304 157.375 191.334 145.61C196.861 139.809 199.926 127.113 200.2 116.715C201.732 50.0611 164.957 36.8178 175.19 92.1988Z" fill="white"/>
<path d="M175.792 169.744C175.792 168.977 176.394 168.321 177.215 168.321C177.981 168.321 178.638 168.923 178.638 169.744C178.638 170.51 178.036 171.166 177.215 171.166C176.449 171.166 175.792 170.51 175.792 169.744ZM167.42 169.744C167.42 168.977 168.022 168.321 168.842 168.321C169.609 168.321 170.265 168.923 170.265 169.744C170.265 170.51 169.663 171.166 168.842 171.166C168.076 171.166 167.42 170.51 167.42 169.744ZM159.047 169.744C159.047 168.977 159.649 168.321 160.47 168.321C161.236 168.321 161.892 168.923 161.892 169.744C161.892 170.51 161.29 171.166 160.47 171.166C159.649 171.166 159.047 170.51 159.047 169.744ZM150.619 169.744C150.619 168.977 151.221 168.321 152.042 168.321C152.808 168.321 153.465 168.923 153.465 169.744C153.465 170.51 152.863 171.166 152.042 171.166C151.276 171.166 150.619 170.51 150.619 169.744ZM142.246 169.744C142.246 168.977 142.848 168.321 143.669 168.321C144.435 168.321 145.092 168.923 145.092 169.744C145.092 170.51 144.49 171.166 143.669 171.166C142.903 171.166 142.246 170.51 142.246 169.744ZM133.874 169.744C133.874 168.977 134.476 168.321 135.296 168.321C136.063 168.321 136.719 168.923 136.719 169.744C136.719 170.51 136.117 171.166 135.296 171.166C134.476 171.166 133.874 170.51 133.874 169.744ZM125.501 169.744C125.501 168.977 126.103 168.321 126.924 168.321C127.69 168.321 128.346 168.923 128.346 169.744C128.346 170.51 127.744 171.166 126.924 171.166C126.103 171.166 125.501 170.51 125.501 169.744ZM117.073 169.744C117.073 168.977 117.675 168.321 118.496 168.321C119.262 168.321 119.919 168.923 119.919 169.744C119.919 170.51 119.317 171.166 118.496 171.166C117.73 171.166 117.073 170.51 117.073 169.744ZM108.7 169.744C108.7 168.977 109.302 168.321 110.123 168.321C110.889 168.321 111.546 168.923 111.546 169.744C111.546 170.51 110.944 171.166 110.123 171.166C109.302 171.166 108.7 170.51 108.7 169.744ZM100.328 169.744C100.328 168.977 100.93 168.321 101.75 168.321C102.517 168.321 103.173 168.923 103.173 169.744C103.173 170.51 102.571 171.166 101.75 171.166C100.93 171.166 100.328 170.51 100.328 169.744ZM91.9001 169.744C91.9001 168.977 92.502 168.321 93.3229 168.321C94.089 168.321 94.7457 168.923 94.7457 169.744C94.7457 170.51 94.1438 171.166 93.3229 171.166C92.5568 171.166 91.9001 170.51 91.9001 169.744ZM83.5272 169.744C83.5272 168.977 84.1292 168.321 84.9501 168.321C85.7162 168.321 86.3729 168.923 86.3729 169.744C86.3729 170.51 85.7709 171.166 84.9501 171.166C84.1839 171.166 83.5272 170.51 83.5272 169.744ZM75.1544 169.744C75.1544 168.977 75.7564 168.321 76.5773 168.321C77.3434 168.321 78.0001 168.923 78.0001 169.744C78.0001 170.51 77.3981 171.166 76.5773 171.166C75.7564 171.166 75.1544 170.51 75.1544 169.744ZM66.7269 169.744C66.7269 168.977 67.3289 168.321 68.1497 168.321C68.9159 168.321 69.5725 168.923 69.5725 169.744C69.5725 170.51 68.9706 171.166 68.1497 171.166C67.3836 171.166 66.7269 170.51 66.7269 169.744ZM58.3541 169.744C58.3541 168.977 58.956 168.321 59.7769 168.321C60.543 168.321 61.1997 168.923 61.1997 169.744C61.1997 170.51 60.5978 171.166 59.7769 171.166C59.0108 171.166 58.3541 170.51 58.3541 169.744Z" fill="#7A7DFF"/>
<path d="M175.792 158.58C175.792 157.813 176.394 157.157 177.215 157.157C177.981 157.157 178.638 157.759 178.638 158.58C178.638 159.346 178.036 160.002 177.215 160.002C176.449 159.948 175.792 159.346 175.792 158.58ZM167.42 158.58C167.42 157.813 168.022 157.157 168.842 157.157C169.609 157.157 170.265 157.759 170.265 158.58C170.265 159.346 169.663 160.002 168.842 160.002C168.076 159.948 167.42 159.346 167.42 158.58ZM159.047 158.58C159.047 157.813 159.649 157.157 160.47 157.157C161.236 157.157 161.892 157.759 161.892 158.58C161.892 159.346 161.29 160.002 160.47 160.002C159.649 159.948 159.047 159.346 159.047 158.58ZM150.619 158.58C150.619 157.813 151.221 157.157 152.042 157.157C152.808 157.157 153.465 157.759 153.465 158.58C153.465 159.346 152.863 160.002 152.042 160.002C151.276 159.948 150.619 159.346 150.619 158.58ZM142.246 158.58C142.246 157.813 142.848 157.157 143.669 157.157C144.435 157.157 145.092 157.759 145.092 158.58C145.092 159.346 144.49 160.002 143.669 160.002C142.903 159.948 142.246 159.346 142.246 158.58ZM133.874 158.58C133.874 157.813 134.476 157.157 135.296 157.157C136.063 157.157 136.719 157.759 136.719 158.58C136.719 159.346 136.117 160.002 135.296 160.002C134.476 159.948 133.874 159.346 133.874 158.58ZM125.501 158.58C125.501 157.813 126.103 157.157 126.924 157.157C127.69 157.157 128.346 157.759 128.346 158.58C128.346 159.346 127.744 160.002 126.924 160.002C126.103 159.948 125.501 159.346 125.501 158.58ZM117.073 158.58C117.073 157.813 117.675 157.157 118.496 157.157C119.262 157.157 119.919 157.759 119.919 158.58C119.919 159.346 119.317 160.002 118.496 160.002C117.73 159.948 117.073 159.346 117.073 158.58ZM108.7 158.58C108.7 157.813 109.302 157.157 110.123 157.157C110.889 157.157 111.546 157.759 111.546 158.58C111.546 159.346 110.944 160.002 110.123 160.002C109.302 159.948 108.7 159.346 108.7 158.58ZM100.328 158.58C100.328 157.813 100.93 157.157 101.75 157.157C102.517 157.157 103.173 157.759 103.173 158.58C103.173 159.346 102.571 160.002 101.75 160.002C100.93 159.948 100.328 159.346 100.328 158.58ZM91.9001 158.58C91.9001 157.813 92.502 157.157 93.3229 157.157C94.089 157.157 94.7457 157.759 94.7457 158.58C94.7457 159.346 94.1438 160.002 93.3229 160.002C92.5568 159.948 91.9001 159.346 91.9001 158.58ZM83.5272 158.58C83.5272 157.813 84.1292 157.157 84.9501 157.157C85.7162 157.157 86.3729 157.759 86.3729 158.58C86.3729 159.346 85.7709 160.002 84.9501 160.002C84.1839 159.948 83.5272 159.346 83.5272 158.58ZM75.1544 158.58C75.1544 157.813 75.7564 157.157 76.5773 157.157C77.3434 157.157 78.0001 157.759 78.0001 158.58C78.0001 159.346 77.3981 160.002 76.5773 160.002C75.7564 159.948 75.1544 159.346 75.1544 158.58ZM66.7269 158.58C66.7269 157.813 67.3289 157.157 68.1497 157.157C68.9159 157.157 69.5725 157.759 69.5725 158.58C69.5725 159.346 68.9706 160.002 68.1497 160.002C67.3836 159.948 66.7269 159.346 66.7269 158.58ZM58.3541 158.58C58.3541 157.813 58.956 157.157 59.7769 157.157C60.543 157.157 61.1997 157.759 61.1997 158.58C61.1997 159.346 60.5978 160.002 59.7769 160.002C59.0108 159.948 58.3541 159.346 58.3541 158.58Z" fill="#7A7DFF"/>
<path d="M175.792 147.361C175.792 146.595 176.394 145.938 177.215 145.938C177.981 145.938 178.638 146.54 178.638 147.361C178.638 148.127 178.036 148.784 177.215 148.784C176.449 148.784 175.792 148.127 175.792 147.361ZM167.42 147.361C167.42 146.595 168.022 145.938 168.842 145.938C169.609 145.938 170.265 146.54 170.265 147.361C170.265 148.127 169.663 148.784 168.842 148.784C168.076 148.784 167.42 148.127 167.42 147.361ZM159.047 147.361C159.047 146.595 159.649 145.938 160.47 145.938C161.236 145.938 161.892 146.54 161.892 147.361C161.892 148.127 161.29 148.784 160.47 148.784C159.649 148.784 159.047 148.127 159.047 147.361ZM150.619 147.361C150.619 146.595 151.221 145.938 152.042 145.938C152.808 145.938 153.465 146.54 153.465 147.361C153.465 148.127 152.863 148.784 152.042 148.784C151.276 148.784 150.619 148.127 150.619 147.361ZM142.246 147.361C142.246 146.595 142.848 145.938 143.669 145.938C144.435 145.938 145.092 146.54 145.092 147.361C145.092 148.127 144.49 148.784 143.669 148.784C142.903 148.784 142.246 148.127 142.246 147.361ZM133.874 147.361C133.874 146.595 134.476 145.938 135.296 145.938C136.063 145.938 136.719 146.54 136.719 147.361C136.719 148.127 136.117 148.784 135.296 148.784C134.476 148.784 133.874 148.127 133.874 147.361ZM125.501 147.361C125.501 146.595 126.103 145.938 126.924 145.938C127.69 145.938 128.346 146.54 128.346 147.361C128.346 148.127 127.744 148.784 126.924 148.784C126.103 148.784 125.501 148.127 125.501 147.361ZM117.073 147.361C117.073 146.595 117.675 145.938 118.496 145.938C119.262 145.938 119.919 146.54 119.919 147.361C119.919 148.127 119.317 148.784 118.496 148.784C117.73 148.784 117.073 148.127 117.073 147.361ZM108.7 147.361C108.7 146.595 109.302 145.938 110.123 145.938C110.889 145.938 111.546 146.54 111.546 147.361C111.546 148.127 110.944 148.784 110.123 148.784C109.302 148.784 108.7 148.127 108.7 147.361ZM100.328 147.361C100.328 146.595 100.93 145.938 101.75 145.938C102.517 145.938 103.173 146.54 103.173 147.361C103.173 148.127 102.571 148.784 101.75 148.784C100.93 148.784 100.328 148.127 100.328 147.361ZM91.9001 147.361C91.9001 146.595 92.502 145.938 93.3229 145.938C94.089 145.938 94.7457 146.54 94.7457 147.361C94.7457 148.127 94.1438 148.784 93.3229 148.784C92.5568 148.784 91.9001 148.127 91.9001 147.361ZM83.5272 147.361C83.5272 146.595 84.1292 145.938 84.9501 145.938C85.7162 145.938 86.3729 146.54 86.3729 147.361C86.3729 148.127 85.7709 148.784 84.9501 148.784C84.1839 148.784 83.5272 148.127 83.5272 147.361ZM75.1544 147.361C75.1544 146.595 75.7564 145.938 76.5773 145.938C77.3434 145.938 78.0001 146.54 78.0001 147.361C78.0001 148.127 77.3981 148.784 76.5773 148.784C75.7564 148.784 75.1544 148.127 75.1544 147.361ZM66.7269 147.361C66.7269 146.595 67.3289 145.938 68.1497 145.938C68.9159 145.938 69.5725 146.54 69.5725 147.361C69.5725 148.127 68.9706 148.784 68.1497 148.784C67.3836 148.784 66.7269 148.127 66.7269 147.361ZM58.3541 147.361C58.3541 146.595 58.956 145.938 59.7769 145.938C60.543 145.938 61.1997 146.54 61.1997 147.361C61.1997 148.127 60.5978 148.784 59.7769 148.784C59.0108 148.784 58.3541 148.127 58.3541 147.361Z" fill="#7A7DFF"/>
<path d="M245.73 147.361C245.73 146.595 246.332 145.938 247.153 145.938C247.919 145.938 248.576 146.54 248.576 147.361C248.576 148.127 247.974 148.784 247.153 148.784C246.332 148.784 245.73 148.127 245.73 147.361ZM237.357 147.361C237.357 146.595 237.959 145.938 238.78 145.938C239.546 145.938 240.203 146.54 240.203 147.361C240.203 148.127 239.601 148.784 238.78 148.784C237.959 148.784 237.357 148.127 237.357 147.361ZM228.93 147.361C228.93 146.595 229.532 145.938 230.353 145.938C231.119 145.938 231.775 146.54 231.775 147.361C231.775 148.127 231.173 148.784 230.353 148.784C229.586 148.784 228.93 148.127 228.93 147.361ZM220.557 147.361C220.557 146.595 221.159 145.938 221.98 145.938C222.746 145.938 223.403 146.54 223.403 147.361C223.403 148.127 222.801 148.784 221.98 148.784C221.159 148.784 220.557 148.127 220.557 147.361ZM212.184 147.361C212.184 146.595 212.786 145.938 213.607 145.938C214.373 145.938 215.03 146.54 215.03 147.361C215.03 148.127 214.428 148.784 213.607 148.784C212.786 148.784 212.184 148.127 212.184 147.361ZM203.757 147.361C203.757 146.595 204.359 145.938 205.179 145.938C205.946 145.938 206.602 146.54 206.602 147.361C206.602 148.127 206 148.784 205.179 148.784C204.413 148.784 203.757 148.127 203.757 147.361Z" fill="#7A7DFF"/>
<path d="M245.73 136.197C245.73 135.431 246.332 134.774 247.153 134.774C247.919 134.774 248.576 135.376 248.576 136.197C248.576 136.963 247.974 137.62 247.153 137.62C246.332 137.565 245.73 136.963 245.73 136.197ZM237.357 136.197C237.357 135.431 237.959 134.774 238.78 134.774C239.546 134.774 240.203 135.376 240.203 136.197C240.203 136.963 239.601 137.62 238.78 137.62C237.959 137.565 237.357 136.963 237.357 136.197ZM228.93 136.197C228.93 135.431 229.532 134.774 230.353 134.774C231.119 134.774 231.776 135.376 231.776 136.197C231.776 136.963 231.174 137.62 230.353 137.62C229.587 137.565 228.93 136.963 228.93 136.197ZM220.557 136.197C220.557 135.431 221.159 134.774 221.98 134.774C222.746 134.774 223.403 135.376 223.403 136.197C223.403 136.963 222.801 137.62 221.98 137.62C221.159 137.565 220.557 136.963 220.557 136.197ZM212.184 136.197C212.184 135.431 212.786 134.774 213.607 134.774C214.373 134.774 215.03 135.376 215.03 136.197C215.03 136.963 214.428 137.62 213.607 137.62C212.786 137.565 212.184 136.963 212.184 136.197ZM203.757 136.197C203.757 135.431 204.359 134.774 205.179 134.774C205.946 134.774 206.602 135.376 206.602 136.197C206.602 136.963 206 137.62 205.179 137.62C204.413 137.565 203.757 136.963 203.757 136.197Z" fill="#7A7DFF"/>
<path d="M247.919 6.61003C247.919 1.41121 243.705 -1.27028 238.507 0.59035L174.643 23.4104C169.444 25.271 165.231 30.9623 165.231 36.1612V58.1056C165.231 63.3044 169.444 68.9958 174.643 70.8564L238.507 93.6764C243.705 95.5371 247.919 92.8008 247.919 87.6568V6.61003Z" fill="#47CFE1"/>
<path d="M233.308 94.6607C233.308 100.297 227.452 105.387 219.025 105.387C210.597 105.387 205.125 100.243 205.125 94.6607C205.125 89.0241 210.597 83.0044 219.025 83.0044C227.452 83.0044 233.308 89.0788 233.308 94.6607Z" fill="#47CFE1"/>
<path d="M205.179 108.451C205.179 111.242 202.279 113.814 198.065 113.814C193.852 113.814 191.115 111.242 191.115 108.451C191.115 105.66 193.852 102.65 198.065 102.65C202.279 102.65 205.179 105.605 205.179 108.451Z" fill="#47CFE1"/>
<path d="M198.996 69.8706C198.996 71.2934 197.518 72.5521 195.438 72.5521C193.359 72.5521 191.991 71.2934 191.991 69.8706C191.991 68.4478 193.359 66.9702 195.438 66.9702C197.518 66.9702 198.996 68.4478 198.996 69.8706Z" fill="white"/>
<path d="M137.321 51.5381C137.321 52.9609 135.844 54.2196 133.764 54.2196C131.685 54.2196 130.317 52.9609 130.317 51.5381C130.317 50.1152 131.685 48.6377 133.764 48.6377C135.844 48.6377 137.321 50.17 137.321 51.5381Z" fill="#7A7DFF"/>
<path d="M264.884 36.9268C264.884 38.3496 263.406 39.6082 261.327 39.6082C259.247 39.6082 257.879 38.3496 257.879 36.9268C257.879 35.5039 259.247 34.0264 261.327 34.0264C263.406 34.0264 264.884 35.5039 264.884 36.9268Z" fill="#7A7DFF"/>
<path d="M236.044 51.4829C236.044 52.1943 235.333 52.851 234.238 52.851C233.198 52.851 232.487 52.1943 232.487 51.4829C232.487 50.7715 233.144 50.0054 234.238 50.0054C235.333 50.0601 236.044 50.8262 236.044 51.4829Z" fill="white"/>
<path d="M161.947 35.4497C161.947 36.1611 161.236 36.8178 160.141 36.8178C159.102 36.8178 158.39 36.1611 158.39 35.4497C158.39 34.7383 159.047 33.9722 160.141 33.9722C161.236 34.0269 161.947 34.793 161.947 35.4497Z" fill="#7A7DFF"/>
<path d="M154.888 62.9763C152.48 64.1255 151.002 64.7275 150.455 64.8917C149.58 65.1106 148.704 65.1106 147.828 64.8917C146.46 64.6181 145.42 63.8519 144.709 62.7574C143.998 61.6082 143.833 60.2948 144.162 58.7626C144.381 57.7775 144.764 57.0114 145.366 56.4094C146.187 55.5338 147.391 54.8771 149.087 54.2752C150.729 53.7279 153.41 53.1807 157.077 52.6882L157.241 51.922C157.679 49.9519 157.624 48.5291 157.186 47.6535C156.694 46.7779 155.873 46.2307 154.669 45.9571C153.739 45.7382 152.972 45.8476 152.316 46.2307C151.659 46.6138 151.276 47.1063 151.112 47.763L150.893 49.0216C150.729 49.6783 150.455 50.1708 150.072 50.4445C149.634 50.7181 149.142 50.8275 148.595 50.7181C148.047 50.6086 147.664 50.335 147.391 49.8425C147.117 49.4047 147.062 48.8575 147.226 48.2008C147.5 46.9421 148.376 45.9571 149.853 45.1909C151.331 44.4248 153.246 44.3153 155.544 44.8079C157.296 45.1909 158.719 45.7929 159.704 46.6138C160.47 47.2705 160.962 48.0913 161.126 49.1311C161.236 49.7878 161.126 51.1012 160.689 53.0165L159.211 59.7476C158.773 61.6629 158.609 62.8122 158.554 63.25C158.554 63.6877 158.609 64.0161 158.719 64.1803C158.828 64.3444 159.047 64.4539 159.266 64.5086C159.485 64.5633 159.704 64.5633 159.922 64.5086C160.251 64.3992 160.962 63.9614 162.002 63.3047L161.728 64.5086C159.649 66.3145 157.843 67.0807 156.365 66.7523C155.654 66.5881 155.161 66.2051 154.833 65.6578C154.669 65.0559 154.614 64.1803 154.888 62.9763ZM155.161 61.5535L156.803 54.0015C154.45 54.3846 152.863 54.713 152.152 54.9319C150.893 55.3149 149.908 55.8074 149.251 56.4094C148.595 57.0114 148.211 57.7228 147.993 58.5437C147.774 59.5834 147.883 60.5137 148.376 61.3346C148.868 62.1555 149.47 62.648 150.291 62.8122C151.495 63.0311 153.082 62.648 155.161 61.5535Z" fill="#7855BA"/>
<path d="M191.553 40.9776C194.508 40.8681 196.642 41.1417 198.011 41.7437C199.981 42.6193 201.239 44.0968 201.787 46.1764C202.389 48.3653 202.005 50.3901 200.583 52.3055C198.886 54.6039 195.986 56.3004 191.881 57.4496L177.106 61.3897L176.887 60.5689C178.255 60.1858 179.131 59.8574 179.514 59.4744C179.952 59.0913 180.17 58.6535 180.28 58.2157C180.389 57.7779 180.17 56.7382 179.787 55.1512L174.753 36.2713C174.315 34.6843 173.987 33.7539 173.658 33.3709C173.33 32.9878 172.947 32.7689 172.4 32.6595C171.852 32.55 170.922 32.6595 169.554 33.0425L169.335 32.2217L183.29 28.5004C186.628 27.6248 189.036 27.2965 190.623 27.5154C192.21 27.7343 193.523 28.3362 194.618 29.3213C195.712 30.3063 196.478 31.4555 196.807 32.7689C197.19 34.1917 197.026 35.5599 196.259 36.928C195.493 38.2961 193.961 39.6095 191.553 40.9776ZM184.056 44.1516L186.573 53.5094L186.847 54.6039C187.066 55.3701 187.394 55.9173 187.887 56.1909C188.379 56.4645 189.036 56.5193 189.802 56.3004C190.951 55.972 191.936 55.4795 192.757 54.7134C193.578 53.9472 194.125 53.0169 194.399 51.9224C194.672 50.8279 194.618 49.6787 194.289 48.4748C193.906 47.1067 193.304 45.9575 192.374 45.0819C191.444 44.1516 190.404 43.659 189.145 43.4949C187.941 43.3307 186.245 43.5496 184.056 44.1516ZM183.618 42.4551C185.643 41.9079 187.066 41.3059 187.941 40.5398C188.762 39.8283 189.364 39.0075 189.638 38.0224C189.911 37.0374 189.911 35.9429 189.583 34.6295C189.255 33.3162 188.707 32.3311 187.996 31.6744C187.285 30.963 186.354 30.5799 185.315 30.361C184.275 30.1969 182.688 30.361 180.608 30.963L183.618 42.4551Z" fill="white"/>
<path d="M226.741 42.4001C225.537 44.8627 224.005 46.6139 222.144 47.6536C220.229 48.6934 218.368 48.967 216.453 48.4745C214.209 47.9273 212.512 46.5044 211.308 44.206C210.105 41.9076 209.886 39.1714 210.706 35.9426C211.473 32.8233 213.005 30.5249 215.358 29.0474C217.711 27.5698 220.119 27.132 222.746 27.7887C224.661 28.2812 226.139 29.1568 227.124 30.5249C228.109 31.8383 228.492 33.097 228.218 34.1915C228.109 34.7387 227.78 35.1218 227.343 35.3954C226.905 35.669 226.358 35.669 225.756 35.5596C224.935 35.3407 224.333 34.9029 224.059 34.2462C223.895 33.8631 223.895 33.2611 224.004 32.3855C224.114 31.51 224.005 30.7985 223.621 30.2513C223.238 29.7041 222.582 29.321 221.706 29.1021C220.283 28.719 218.97 28.9926 217.821 29.8135C216.288 30.908 215.249 32.6592 214.701 34.9576C214.099 37.3107 214.154 39.5544 214.866 41.634C215.577 43.7135 216.89 45.0269 218.86 45.5194C220.283 45.8477 221.651 45.6836 223.019 45.0269C223.95 44.5891 225.044 43.5493 226.193 42.017L226.741 42.4001Z" fill="white"/>
<path d="M222.965 85.6865L221.87 85.9601C221.323 83.99 220.995 82.4577 220.94 81.418C220.885 80.3782 221.104 78.8459 221.597 76.8759C222.089 74.9058 222.308 73.3735 222.308 72.2243C222.308 71.0751 222.144 69.7617 221.706 68.2294C221.05 65.8763 220.119 64.2345 218.915 63.359C217.711 62.4834 216.453 62.2097 215.139 62.5381C214.154 62.8117 213.443 63.2495 212.896 63.9609C212.513 64.5082 212.348 64.946 212.458 65.3837C212.513 65.6574 212.841 66.0952 213.333 66.5877C214.483 67.7369 215.194 68.8314 215.413 69.8164C215.632 70.692 215.522 71.5129 215.085 72.279C214.647 73.0452 213.99 73.5377 213.06 73.7566C212.075 74.0302 211.144 73.9207 210.269 73.3735C209.393 72.8263 208.791 72.0054 208.518 70.8562C207.97 68.7219 208.353 66.6424 209.776 64.5629C211.199 62.4834 213.498 61.0058 216.781 60.1302C220.229 59.1999 223.129 59.3094 225.373 60.5133C227.616 61.6625 229.094 63.4137 229.696 65.7668C230.134 67.4633 230.134 69.1597 229.587 70.8562C229.039 72.5526 227.671 74.6322 225.482 77.0947C224.005 78.7365 223.129 80.1046 222.801 81.1991C222.472 82.2936 222.582 83.7711 222.965 85.6865ZM223.731 89.6813C224.935 89.353 226.084 89.5172 227.124 90.1191C228.164 90.7211 228.875 91.6514 229.203 92.8554C229.532 94.0593 229.368 95.2085 228.766 96.2483C228.164 97.3427 227.233 97.9994 226.029 98.3278C224.825 98.6561 223.676 98.492 222.637 97.89C221.542 97.288 220.885 96.3577 220.557 95.1538C220.229 93.9498 220.393 92.8006 220.995 91.7609C221.597 90.6664 222.527 90.0097 223.731 89.6813Z" fill="white"/>
<path d="M252.133 75.8362L251.312 76.0551L244.745 59.2C244.471 58.4886 244.253 57.8866 244.143 57.5583C243.924 56.6827 243.924 55.8618 244.307 55.2051C244.636 54.5485 245.128 54.1107 245.84 53.9465C246.496 53.7823 247.153 53.8918 247.755 54.3296C248.357 54.7674 248.795 55.4788 249.123 56.5733C249.233 56.9016 249.287 57.3941 249.397 58.0508L252.133 75.8362ZM252.68 79.5027C253.337 79.3386 253.939 79.3933 254.541 79.7764C255.143 80.1047 255.526 80.5972 255.69 81.2539C255.854 81.9106 255.799 82.5126 255.471 83.1145C255.143 83.7165 254.65 84.0996 253.994 84.2638C253.337 84.4279 252.735 84.3732 252.133 84.0449C251.531 83.7165 251.148 83.224 250.984 82.5673C250.82 81.9106 250.874 81.3086 251.257 80.7067C251.531 80.05 252.023 79.6669 252.68 79.5027Z" fill="#7855BA"/>
<path d="M267.073 63.3046L266.416 63.1951L267.073 49.4046C267.073 48.8027 267.127 48.3649 267.182 48.0912C267.291 47.3798 267.565 46.8326 268.003 46.5042C268.441 46.1212 268.933 46.0117 269.426 46.0664C269.973 46.1759 270.356 46.4495 270.684 46.8873C270.958 47.3798 271.067 48.0365 270.958 48.8574C270.903 49.131 270.849 49.5141 270.739 49.9519L267.073 63.3046ZM266.306 66.0408C266.799 66.0955 267.237 66.3692 267.51 66.8069C267.839 67.2447 267.948 67.6825 267.839 68.1751C267.784 68.6676 267.51 69.1054 267.073 69.379C266.635 69.7073 266.197 69.8168 265.65 69.7073C265.157 69.6526 264.719 69.379 264.446 68.9412C264.117 68.5034 264.008 68.0656 264.117 67.5184C264.172 67.0258 264.446 66.5881 264.884 66.3144C265.321 66.0408 265.814 65.9314 266.306 66.0408Z" fill="#7855BA"/>
<path d="M93.3229 69.3242C80.9552 69.3242 70.6123 79.1199 70.6123 91.4328C70.6123 103.746 80.9552 113.541 93.3229 113.541C105.691 113.541 115.432 103.801 115.432 91.4328C115.432 79.0652 105.691 69.3242 93.3229 69.3242ZM105.362 103.472C98.7953 110.039 88.2335 109.601 81.6666 103.089C75.0997 96.5222 74.7166 85.9604 81.2835 79.3935C87.8505 72.8266 98.7953 72.8266 105.362 79.3935C111.929 85.9604 111.929 96.9053 105.362 103.472Z" fill="#E4E7FB"/>
<path d="M93.3229 92.8555C92.5568 92.8555 91.9001 92.2535 91.9001 91.4327C91.9001 90.6665 92.5021 90.0098 93.3229 90.0098C95.4024 90.0098 96.4422 90.0098 97.482 89.9551C98.5217 89.9551 99.6162 89.9004 101.696 89.9004C102.462 89.9004 103.119 90.5024 103.119 91.3232C103.119 92.0894 102.517 92.7461 101.696 92.7461C99.6162 92.7461 98.5765 92.7461 97.5367 92.8008C96.4969 92.8008 95.4024 92.8555 93.3229 92.8555Z" fill="#E4E7FB"/>
<path d="M93.2682 92.8557C92.502 92.8557 91.8453 92.2537 91.8453 91.4328C91.8453 88.6419 91.8453 87.2191 91.9001 85.7962C91.9001 84.4281 91.9548 83.0053 91.9548 80.2143C91.9548 79.4482 92.5568 78.7915 93.3776 78.7915C94.1438 78.7915 94.8004 79.3935 94.8004 80.2143C94.8004 83.0053 94.8004 84.4281 94.7457 85.8509C94.7457 87.219 94.691 88.6419 94.691 91.4328C94.6363 92.199 94.0343 92.8557 93.2682 92.8557Z" fill="#E4E7FB"/>
<path d="M150.017 186.49C150.017 186.49 145.037 187.256 138.854 187.475" stroke="#F9BF3B" stroke-width="20.4404" stroke-miterlimit="10" stroke-linecap="round"/>
<path d="M182.797 141.779C182.14 141.779 181.484 141.669 180.827 141.451C177.927 140.356 176.449 137.182 177.544 134.282C177.653 134.063 182.797 119.834 182.797 102.651C182.797 85.4129 177.598 71.1845 177.544 71.0204C176.449 68.12 177.927 64.8912 180.827 63.8515C183.727 62.757 186.956 64.2346 187.996 67.1349C188.215 67.7916 193.961 83.3333 193.961 102.651C193.961 121.969 188.27 137.51 187.996 138.167C187.23 140.356 185.096 141.779 182.797 141.779Z" fill="#47CFE1"/>
<path d="M138.854 197.762C142.739 181.126 142.739 163.56 138.744 146.978C152.644 137.347 159.649 134.775 173.713 135.705C178.912 136.033 183.126 139.864 184.056 145.008C187.175 162.137 187.339 179.813 184.603 196.996C184.548 197.215 167.365 197.653 154.067 197.817C145.639 197.927 138.799 197.927 138.854 197.762Z" fill="#47CFE1"/>
<path d="M161.055 144.296C167.063 142.909 171.53 140.042 171.034 137.892C170.538 135.742 165.265 135.124 159.257 136.511C153.249 137.898 148.782 140.766 149.278 142.916C149.774 145.065 155.047 145.684 161.055 144.296Z" fill="#FFE5B1"/>
<path d="M154.341 140.301L151.221 126.675C150.51 123.665 152.425 120.655 155.435 119.944C158.445 119.233 161.455 121.148 162.166 124.158L165.285 137.784C165.942 140.794 154.943 142.873 154.341 140.301Z" fill="#FFC984"/>
<path d="M135.515 193.165C123.421 193.165 115.815 190.703 112.203 185.668C110.506 183.26 108.974 179.156 111.272 173.3C113.188 168.43 117.785 162.903 125.391 156.336C130.7 151.794 135.461 148.51 135.625 148.346C138.142 146.595 141.644 147.252 143.396 149.769C145.147 152.286 144.49 155.789 141.973 157.54C141.918 157.594 137.431 160.714 132.56 164.873C124.297 171.987 122.163 175.982 121.615 177.35C121.178 178.39 121.178 179.046 121.287 179.156C121.615 179.648 123.202 180.633 126.869 181.29C129.988 181.837 133.928 182.056 138.58 181.892C141.644 181.783 144.271 184.191 144.381 187.255C144.49 190.32 142.082 192.946 139.018 193.056C137.814 193.111 136.61 193.165 135.515 193.165Z" fill="#47CFE1"/>
<path d="M185.971 86.0701C183.399 86.0701 181.046 84.2642 180.499 81.6374C179.131 75.1799 177.598 71.0209 177.544 70.9662C176.449 68.0658 177.927 64.837 180.827 63.7973C183.727 62.7028 186.956 64.1804 187.996 67.0807C188.051 67.2996 189.802 71.9512 191.389 79.2843C192.046 82.2941 190.13 85.3039 187.12 85.9059C186.737 86.0701 186.354 86.0701 185.971 86.0701Z" fill="#FFE5B1"/>
<path d="M154.669 149.605C154.341 149.605 153.957 149.605 153.629 149.605C153.246 149.605 152.918 149.276 152.972 148.893C152.972 148.51 153.301 148.182 153.684 148.237C154.012 148.237 154.341 148.237 154.669 148.237C156.858 148.237 159.32 147.963 161.728 147.416C165.121 146.65 168.295 145.391 170.648 143.859C170.977 143.64 171.415 143.749 171.633 144.078C171.852 144.406 171.743 144.844 171.415 145.063C168.842 146.704 165.614 147.963 162.057 148.839C159.539 149.331 156.967 149.605 154.669 149.605ZM148.211 148.51C148.102 148.51 148.047 148.51 147.938 148.456C146.132 147.689 144.983 146.54 144.654 145.117C144.545 144.734 144.818 144.351 145.202 144.297C145.585 144.187 145.968 144.461 146.022 144.844C146.296 146.048 147.5 146.814 148.485 147.197C148.813 147.361 148.978 147.744 148.868 148.127C148.759 148.401 148.485 148.51 148.211 148.51ZM174.205 142.381C174.041 142.381 173.877 142.326 173.768 142.217C173.494 141.998 173.439 141.506 173.658 141.232C174.37 140.356 174.753 139.481 174.753 138.715C174.753 138.551 174.753 138.386 174.698 138.167C174.589 137.784 174.862 137.401 175.245 137.347C175.628 137.237 176.011 137.511 176.066 137.894C176.121 138.167 176.176 138.441 176.176 138.715C176.176 139.809 175.683 140.958 174.753 142.108C174.643 142.327 174.424 142.381 174.205 142.381Z" fill="#E7EFFF"/>
<path d="M154.833 113.815H143.669V147.361H154.833V113.815Z" fill="url(#paint1_linear)"/>
<path d="M143.669 147.361H154.833V169.744C148.649 169.744 143.669 164.709 143.669 158.58V147.361Z" fill="url(#paint2_linear)"/>
<path d="M132.451 113.816V139.536C132.451 143.476 134.695 146.924 138.087 148.894C141.426 150.81 143.615 154.421 143.615 158.526V147.362V113.816H132.451Z" fill="url(#paint3_linear)"/>
<path d="M152.863 130.014C164.438 130.014 173.822 120.63 173.822 109.055C173.822 97.4791 164.438 88.0952 152.863 88.0952C141.287 88.0952 131.904 97.4791 131.904 109.055C131.904 120.63 141.287 130.014 152.863 130.014Z" fill="url(#paint4_linear)"/>
<path d="M143.45 124.159L141.59 116.005C140.003 109.219 144.271 102.488 151.002 100.901C157.788 99.3139 164.519 103.582 166.106 110.314L167.967 118.467C169.554 125.253 165.285 131.984 158.554 133.571C151.768 135.158 145.037 130.945 143.45 124.159Z" fill="#FFE5B1"/>
<path d="M171.962 100.299C168.514 92.7467 160.853 87.9857 152.589 88.0951C147.281 90.7219 144.107 95.866 145.256 100.791C146.624 106.811 153.848 110.258 161.4 108.562C166.435 107.358 170.375 104.129 171.962 100.299Z" fill="url(#paint5_linear)"/>
<path d="M132.451 113.76C132.56 114.144 132.67 114.527 132.779 114.91C133.655 114.855 134.585 114.691 135.515 114.527C143.013 112.775 147.992 106.482 146.624 100.462C145.804 96.9601 143.013 94.3334 139.346 93.0747C133.545 97.9999 130.645 105.88 132.451 113.76Z" fill="url(#paint6_linear)"/>
<path d="M139.893 114.964C139.127 115.129 138.689 115.895 138.854 116.661L140.441 123.447C140.769 124.924 142.301 125.909 143.779 125.526L141.59 116.004C141.371 115.238 140.659 114.745 139.893 114.964Z" fill="#FFC984"/>
<path d="M167.146 108.672C166.38 108.836 165.942 109.602 166.106 110.369L168.295 119.891C169.773 119.562 170.758 118.03 170.375 116.552L168.788 109.767C168.624 108.946 167.912 108.453 167.146 108.672Z" fill="#FFC984"/>
<path d="M203.757 189.335H128.237C127.471 189.335 126.814 189.937 126.814 190.758C126.814 191.524 127.416 192.181 128.237 192.181H203.757C204.523 192.181 205.179 191.579 205.179 190.758C205.179 189.937 204.577 189.335 203.757 189.335Z" fill="#7A7DFF"/>
<path d="M199.598 189.334H166.052C166.052 189.334 168.131 185.887 168.842 185.12C179.678 174.285 201.02 185.12 201.02 185.12L199.598 189.334Z" fill="#E7EFFF"/>
<path d="M132.451 189.334H165.997C165.997 189.334 163.917 185.887 163.206 185.12C152.37 174.285 131.028 185.12 131.028 185.12L132.451 189.334Z" fill="#E7EFFF"/>
<path d="M166.052 189.335C166.052 189.335 167.146 185.449 167.693 184.574C175.355 171.33 198.777 176.255 198.777 176.255L166.052 189.335Z" fill="#E7EFFF"/>
<path d="M166.052 189.335C166.052 189.335 164.081 185.833 163.808 184.793C159.868 170.018 179.897 156.938 179.897 156.938L166.052 189.335Z" fill="#E7EFFF"/>
<path d="M166.052 192.126C167.593 192.126 168.842 190.877 168.842 189.335C168.842 187.794 167.593 186.544 166.052 186.544C164.51 186.544 163.261 187.794 163.261 189.335C163.261 190.877 164.51 192.126 166.052 192.126Z" fill="#7A7DFF"/>
<path d="M235.935 192.125H96.1139C94.5816 192.125 93.3229 193.384 93.3229 194.916V200.498C93.3229 202.031 94.5816 203.289 96.1139 203.289H235.935C237.467 203.289 238.725 202.031 238.725 200.498V194.916C238.725 193.384 237.467 192.125 235.935 192.125Z" fill="#7855BA"/>
<defs>
<linearGradient id="paint0_linear" x1="303.397" y1="116.229" x2="-4.74399" y2="152.062" gradientUnits="userSpaceOnUse">
<stop offset="0.197917" stop-color="#05A4EF"/>
<stop offset="0.864583" stop-color="#0505A9"/>
<stop offset="1" stop-color="#2D048E"/>
</linearGradient>
<linearGradient id="paint1_linear" x1="156.383" y1="91.1137" x2="144.493" y2="156.908" gradientUnits="userSpaceOnUse">
<stop stop-color="#7BEDF5"/>
<stop offset="1" stop-color="#7855BA"/>
</linearGradient>
<linearGradient id="paint2_linear" x1="161.277" y1="91.998" x2="149.387" y2="157.792" gradientUnits="userSpaceOnUse">
<stop stop-color="#7BEDF5"/>
<stop offset="1" stop-color="#7855BA"/>
</linearGradient>
<linearGradient id="paint3_linear" x1="146.53" y1="89.3334" x2="134.64" y2="155.128" gradientUnits="userSpaceOnUse">
<stop stop-color="#7BEDF5"/>
<stop offset="1" stop-color="#7855BA"/>
</linearGradient>
<linearGradient id="paint4_linear" x1="156.137" y1="91.0694" x2="144.247" y2="156.863" gradientUnits="userSpaceOnUse">
<stop stop-color="#7BEDF5"/>
<stop offset="1" stop-color="#7855BA"/>
</linearGradient>
<linearGradient id="paint5_linear" x1="159.801" y1="91.7314" x2="147.911" y2="157.525" gradientUnits="userSpaceOnUse">
<stop stop-color="#7BEDF5"/>
<stop offset="1" stop-color="#7855BA"/>
</linearGradient>
<linearGradient id="paint6_linear" x1="142.384" y1="88.5835" x2="130.494" y2="154.378" gradientUnits="userSpaceOnUse">
<stop stop-color="#7BEDF5"/>
<stop offset="1" stop-color="#7855BA"/>
</linearGradient>
</defs>
</svg>
