<?xml version="1.0" encoding="utf-8"?>
<!-- Generator: Adobe Illustrator 24.0.1, SVG Export Plug-In . SVG Version: 6.00 Build 0)  -->
<svg version="1.1" id="Calque_1" xmlns="http://www.w3.org/2000/svg" xmlns:xlink="http://www.w3.org/1999/xlink" x="0px" y="0px"
	 viewBox="0 0 629 280" style="enable-background:new 0 0 629 280;" xml:space="preserve">
<style type="text/css">
	.st0{fill:#C4C4C4;filter:url(#Adobe_OpacityMaskFilter);}
	.st1{mask:url(#mask0_1_);}
	.st2{fill:#C4C4C4;fill-opacity:0.3;}
	.st3{fill:#FFFFFF;stroke:#FF6C00;stroke-width:2.0154;}
	.st4{fill:#FFFFFF;stroke:#FF6C00;stroke-width:2.6872;}
	.st5{fill-rule:evenodd;clip-rule:evenodd;fill:#FF6C00;}
	.st6{fill:#062B75;}
	.st7{fill:#04032F;}
	.st8{fill:#FFFFFF;}
	.st9{fill:none;stroke:#001464;}
	.st10{fill:#15387E;}
	.st11{fill:none;stroke:#001464;stroke-width:2;}
	.st12{fill:none;stroke:#062B75;stroke-width:3;}
	.st13{fill:none;stroke:#15387E;}
	.st14{fill:#062B75;fill-opacity:0.3;}
	.st15{fill:#FF6C00;}
</style>
<defs>
	<filter id="Adobe_OpacityMaskFilter" filterUnits="userSpaceOnUse" x="57" y="12" width="537" height="537">
		<feColorMatrix  type="matrix" values="1 0 0 0 0  0 1 0 0 0  0 0 1 0 0  0 0 0 1 0"/>
	</filter>
</defs>
<mask maskUnits="userSpaceOnUse" x="57" y="12" width="537" height="537" id="mask0_1_">
	<rect class="st0" width="629" height="280"/>
</mask>
<g class="st1">
	<circle class="st2" cx="325.5" cy="280.5" r="268.5"/>
</g>
<rect x="489.8" y="91.2" class="st3" width="14.4" height="35.9"/>
<path class="st4" d="M427.4,25.2h140.8c2.2,0,4,1.8,4,4v58.6c0,2.2-1.8,4-4,4H427.4c-2.2,0-4-1.8-4-4V29.2
	C423.3,27,425.1,25.2,427.4,25.2z"/>
<path class="st5" d="M549.3,14.4c-1,0-1.8,0.8-1.8,1.8v1.8c-3.8,0.9-6.6,4.3-6.6,8.4v3.2c0,1,0.8,1.8,1.8,1.8h13.8
	c1,0,1.8-0.8,1.8-1.8v-3.2c0-4.3-3.1-7.8-7.1-8.5v-1.7C551.1,15.2,550.3,14.4,549.3,14.4z"/>
<path class="st5" d="M497.3,14.4c-1,0-1.8,0.8-1.8,1.8v1.8c-3.8,0.9-6.6,4.3-6.6,8.4v3.2c0,1,0.8,1.8,1.8,1.8h13.8
	c1,0,1.8-0.8,1.8-1.8v-3.2c0-4.3-3.1-7.8-7.1-8.5v-1.7C499.1,15.2,498.3,14.4,497.3,14.4z"/>
<path class="st5" d="M445.2,14.4c-1,0-1.8,0.8-1.8,1.8v1.8c-3.8,0.9-6.6,4.3-6.6,8.4v3.2c0,1,0.8,1.8,1.8,1.8h13.8
	c1,0,1.8-0.8,1.8-1.8v-3.2c0-4.3-3.1-7.8-7.1-8.5v-1.7C447,15.2,446.2,14.4,445.2,14.4z"/>
<rect x="288" y="88" class="st6" width="128" height="192"/>
<rect x="296" y="81" class="st7" width="112" height="6"/>
<path class="st8" d="M304,125.5c0-5.2,4.3-9.5,9.5-9.5s9.5,4.3,9.5,9.5V149h-19V125.5z"/>
<line class="st9" x1="313.5" y1="116" x2="313.5" y2="149"/>
<line class="st9" x1="304" y1="129.5" x2="323" y2="129.5"/>
<line class="st9" x1="304" y1="139.5" x2="323" y2="139.5"/>
<path class="st8" d="M304,173.5c0-5.2,4.3-9.5,9.5-9.5s9.5,4.3,9.5,9.5V197h-19V173.5z"/>
<line class="st9" x1="313.5" y1="164" x2="313.5" y2="197"/>
<line class="st9" x1="304" y1="177.5" x2="323" y2="177.5"/>
<line class="st9" x1="304" y1="187.5" x2="323" y2="187.5"/>
<path class="st8" d="M304,221.5c0-5.2,4.3-9.5,9.5-9.5s9.5,4.3,9.5,9.5V245h-19V221.5z"/>
<line class="st9" x1="313.5" y1="212" x2="313.5" y2="245"/>
<line class="st9" x1="304" y1="225.5" x2="323" y2="225.5"/>
<line class="st9" x1="304" y1="235.5" x2="323" y2="235.5"/>
<path class="st8" d="M330,125.5c0-5.2,4.3-9.5,9.5-9.5s9.5,4.3,9.5,9.5V149h-19V125.5z"/>
<line class="st9" x1="339.5" y1="116" x2="339.5" y2="149"/>
<line class="st9" x1="330" y1="129.5" x2="349" y2="129.5"/>
<line class="st9" x1="330" y1="139.5" x2="349" y2="139.5"/>
<path class="st8" d="M330,173.5c0-5.2,4.3-9.5,9.5-9.5s9.5,4.3,9.5,9.5V197h-19V173.5z"/>
<line class="st9" x1="339.5" y1="164" x2="339.5" y2="197"/>
<line class="st9" x1="330" y1="177.5" x2="349" y2="177.5"/>
<line class="st9" x1="330" y1="187.5" x2="349" y2="187.5"/>
<path class="st8" d="M330,221.5c0-5.2,4.3-9.5,9.5-9.5s9.5,4.3,9.5,9.5V245h-19V221.5z"/>
<line class="st9" x1="339.5" y1="212" x2="339.5" y2="245"/>
<line class="st9" x1="330" y1="225.5" x2="349" y2="225.5"/>
<line class="st9" x1="330" y1="235.5" x2="349" y2="235.5"/>
<path class="st8" d="M356,125.5c0-5.2,4.3-9.5,9.5-9.5s9.5,4.3,9.5,9.5V149h-19V125.5z"/>
<line class="st9" x1="365.5" y1="116" x2="365.5" y2="149"/>
<line class="st9" x1="356" y1="129.5" x2="375" y2="129.5"/>
<line class="st9" x1="356" y1="139.5" x2="375" y2="139.5"/>
<path class="st8" d="M356,173.5c0-5.2,4.3-9.5,9.5-9.5s9.5,4.3,9.5,9.5V197h-19V173.5z"/>
<line class="st9" x1="365.5" y1="164" x2="365.5" y2="197"/>
<line class="st9" x1="356" y1="177.5" x2="375" y2="177.5"/>
<line class="st9" x1="356" y1="187.5" x2="375" y2="187.5"/>
<path class="st8" d="M356,221.5c0-5.2,4.3-9.5,9.5-9.5s9.5,4.3,9.5,9.5V245h-19V221.5z"/>
<line class="st9" x1="365.5" y1="212" x2="365.5" y2="245"/>
<line class="st9" x1="356" y1="225.5" x2="375" y2="225.5"/>
<line class="st9" x1="356" y1="235.5" x2="375" y2="235.5"/>
<path class="st8" d="M382,125.5c0-5.2,4.3-9.5,9.5-9.5s9.5,4.3,9.5,9.5V149h-19V125.5z"/>
<line class="st9" x1="391.5" y1="116" x2="391.5" y2="149"/>
<line class="st9" x1="382" y1="129.5" x2="401" y2="129.5"/>
<line class="st9" x1="382" y1="139.5" x2="401" y2="139.5"/>
<path class="st8" d="M382,173.5c0-5.2,4.3-9.5,9.5-9.5s9.5,4.3,9.5,9.5V197h-19V173.5z"/>
<line class="st9" x1="391.5" y1="164" x2="391.5" y2="197"/>
<line class="st9" x1="382" y1="177.5" x2="401" y2="177.5"/>
<line class="st9" x1="382" y1="187.5" x2="401" y2="187.5"/>
<path class="st8" d="M382,221.5c0-5.2,4.3-9.5,9.5-9.5s9.5,4.3,9.5,9.5V245h-19V221.5z"/>
<line class="st9" x1="391.5" y1="212" x2="391.5" y2="245"/>
<line class="st9" x1="382" y1="225.5" x2="401" y2="225.5"/>
<line class="st9" x1="382" y1="235.5" x2="401" y2="235.5"/>
<path class="st10" d="M415.8,140h152.3v140H415.8V140z"/>
<rect x="411" y="128" class="st6" width="163" height="12"/>
<rect x="411" y="125" class="st10" width="167" height="2"/>
<rect x="423" y="128" class="st10" width="5" height="12"/>
<rect x="476" y="128" class="st10" width="5" height="12"/>
<rect x="448" y="128" class="st10" width="5" height="12"/>
<rect x="501" y="128" class="st10" width="5" height="12"/>
<rect x="528" y="128" class="st10" width="5" height="12"/>
<rect x="553" y="128" class="st10" width="5" height="12"/>
<path class="st8" d="M431.2,154h25.3v19.7h-25.3V154z"/>
<line class="st9" x1="443.7" y1="154" x2="443.7" y2="173.7"/>
<line class="st9" x1="431.2" y1="161.9" x2="456.5" y2="161.9"/>
<line class="st9" x1="431.2" y1="167.8" x2="456.5" y2="167.8"/>
<path class="st8" d="M431.2,192.7h25.3v19.7h-25.3V192.7z"/>
<line class="st9" x1="443.7" y1="192.7" x2="443.7" y2="212.4"/>
<line class="st9" x1="431.2" y1="200.6" x2="456.5" y2="200.6"/>
<line class="st9" x1="431.2" y1="206.5" x2="456.5" y2="206.5"/>
<path class="st8" d="M431.2,231.4h25.3v19.7h-25.3V231.4z"/>
<line class="st9" x1="443.7" y1="231.4" x2="443.7" y2="251.1"/>
<line class="st9" x1="431.2" y1="239.3" x2="456.5" y2="239.3"/>
<line class="st9" x1="431.2" y1="245.2" x2="456.5" y2="245.2"/>
<path class="st8" d="M480.3,154h25.3v19.7h-25.3V154z"/>
<line class="st9" x1="492.8" y1="154" x2="492.8" y2="173.7"/>
<line class="st9" x1="480.3" y1="161.9" x2="505.6" y2="161.9"/>
<line class="st9" x1="480.3" y1="167.8" x2="505.6" y2="167.8"/>
<path class="st8" d="M480.3,192.7h25.3v19.7h-25.3V192.7z"/>
<line class="st9" x1="492.8" y1="192.7" x2="492.8" y2="212.4"/>
<line class="st9" x1="480.3" y1="200.6" x2="505.6" y2="200.6"/>
<line class="st9" x1="480.3" y1="206.5" x2="505.6" y2="206.5"/>
<path class="st8" d="M480.3,231.4h25.3v19.7h-25.3V231.4z"/>
<line class="st9" x1="492.8" y1="231.4" x2="492.8" y2="251.1"/>
<line class="st9" x1="480.3" y1="239.3" x2="505.6" y2="239.3"/>
<line class="st9" x1="480.3" y1="245.2" x2="505.6" y2="245.2"/>
<path class="st8" d="M529.4,154h25.3v19.7h-25.3V154z"/>
<line class="st9" x1="541.9" y1="154" x2="541.9" y2="173.7"/>
<line class="st9" x1="529.4" y1="161.9" x2="554.7" y2="161.9"/>
<line class="st9" x1="529.4" y1="167.8" x2="554.7" y2="167.8"/>
<path class="st8" d="M529.4,192.7h25.3v19.7h-25.3V192.7z"/>
<line class="st9" x1="541.9" y1="192.7" x2="541.9" y2="212.4"/>
<line class="st9" x1="529.4" y1="200.6" x2="554.7" y2="200.6"/>
<line class="st9" x1="529.4" y1="206.5" x2="554.7" y2="206.5"/>
<path class="st8" d="M529.4,231.4h25.3v19.7h-25.3V231.4z"/>
<line class="st9" x1="541.9" y1="231.4" x2="541.9" y2="251.1"/>
<line class="st9" x1="529.4" y1="239.3" x2="554.7" y2="239.3"/>
<line class="st9" x1="529.4" y1="245.2" x2="554.7" y2="245.2"/>
<rect x="550.2" y="154" class="st6" width="8.3" height="20"/>
<rect x="525.2" y="154" class="st6" width="8.3" height="20"/>
<rect x="550.2" y="193" class="st6" width="8.3" height="20"/>
<rect x="525.2" y="193" class="st6" width="8.3" height="20"/>
<rect x="550.2" y="231" class="st6" width="8.3" height="20"/>
<rect x="525.2" y="231" class="st6" width="8.3" height="20"/>
<rect x="501.4" y="154" class="st6" width="8.3" height="20"/>
<rect x="476.4" y="154" class="st6" width="8.3" height="20"/>
<rect x="501.4" y="193" class="st6" width="8.3" height="20"/>
<rect x="476.4" y="193" class="st6" width="8.3" height="20"/>
<rect x="501.4" y="231" class="st6" width="8.3" height="20"/>
<rect x="476.4" y="231" class="st6" width="8.3" height="20"/>
<rect x="452.6" y="154" class="st6" width="8.3" height="20"/>
<rect x="427.7" y="154" class="st6" width="8.3" height="20"/>
<rect x="452.6" y="193" class="st6" width="8.3" height="20"/>
<rect x="427.7" y="193" class="st6" width="8.3" height="20"/>
<rect x="452.6" y="231" class="st6" width="8.3" height="20"/>
<rect x="427.7" y="231" class="st6" width="8.3" height="20"/>
<rect x="94.8" y="140" class="st6" width="152.3" height="140"/>
<rect x="90" y="128" class="st6" width="163" height="12"/>
<rect x="90" y="125" class="st10" width="167" height="2"/>
<rect x="102" y="128" class="st10" width="5" height="12"/>
<rect x="155" y="128" class="st10" width="5" height="12"/>
<rect x="127" y="128" class="st10" width="5" height="12"/>
<rect x="180" y="128" class="st10" width="5" height="12"/>
<rect x="207" y="128" class="st10" width="5" height="12"/>
<rect x="232" y="128" class="st10" width="5" height="12"/>
<path class="st8" d="M110.2,154h25.3v19.7h-25.3V154z"/>
<line class="st9" x1="122.7" y1="154" x2="122.7" y2="173.7"/>
<line class="st9" x1="110.2" y1="161.9" x2="135.5" y2="161.9"/>
<line class="st9" x1="110.2" y1="167.8" x2="135.5" y2="167.8"/>
<path class="st8" d="M110.2,192.7h25.3v19.7h-25.3V192.7z"/>
<line class="st9" x1="122.7" y1="192.7" x2="122.7" y2="212.4"/>
<line class="st9" x1="110.2" y1="200.6" x2="135.5" y2="200.6"/>
<line class="st9" x1="110.2" y1="206.5" x2="135.5" y2="206.5"/>
<path class="st8" d="M110.2,231.4h25.3v19.7h-25.3V231.4z"/>
<line class="st9" x1="122.7" y1="231.4" x2="122.7" y2="251.1"/>
<line class="st9" x1="110.2" y1="239.3" x2="135.5" y2="239.3"/>
<line class="st9" x1="110.2" y1="245.2" x2="135.5" y2="245.2"/>
<path class="st8" d="M159.3,154h25.3v19.7h-25.3V154z"/>
<line class="st9" x1="171.8" y1="154" x2="171.8" y2="173.7"/>
<line class="st9" x1="159.3" y1="161.9" x2="184.6" y2="161.9"/>
<line class="st9" x1="159.3" y1="167.8" x2="184.6" y2="167.8"/>
<path class="st8" d="M159.3,192.7h25.3v19.7h-25.3V192.7z"/>
<line class="st9" x1="171.8" y1="192.7" x2="171.8" y2="212.4"/>
<line class="st9" x1="159.3" y1="200.6" x2="184.6" y2="200.6"/>
<line class="st9" x1="159.3" y1="206.5" x2="184.6" y2="206.5"/>
<path class="st8" d="M159.3,231.4h25.3v19.7h-25.3V231.4z"/>
<line class="st9" x1="171.8" y1="231.4" x2="171.8" y2="251.1"/>
<line class="st9" x1="159.3" y1="239.3" x2="184.6" y2="239.3"/>
<line class="st9" x1="159.3" y1="245.2" x2="184.6" y2="245.2"/>
<path class="st8" d="M208.4,154h25.3v19.7h-25.3V154z"/>
<line class="st9" x1="220.9" y1="154" x2="220.9" y2="173.7"/>
<line class="st9" x1="208.4" y1="161.9" x2="233.7" y2="161.9"/>
<line class="st9" x1="208.4" y1="167.8" x2="233.7" y2="167.8"/>
<path class="st8" d="M208.4,192.7h25.3v19.7h-25.3V192.7z"/>
<line class="st9" x1="220.9" y1="192.7" x2="220.9" y2="212.4"/>
<line class="st9" x1="208.4" y1="200.6" x2="233.7" y2="200.6"/>
<line class="st9" x1="208.4" y1="206.5" x2="233.7" y2="206.5"/>
<path class="st8" d="M208.4,231.4h25.3v19.7h-25.3V231.4z"/>
<line class="st9" x1="220.9" y1="231.4" x2="220.9" y2="251.1"/>
<line class="st9" x1="208.4" y1="239.3" x2="233.7" y2="239.3"/>
<line class="st9" x1="208.4" y1="245.2" x2="233.7" y2="245.2"/>
<rect x="229.2" y="154" class="st6" width="8.3" height="20"/>
<rect x="204.2" y="154" class="st6" width="8.3" height="20"/>
<rect x="229.2" y="193" class="st6" width="8.3" height="20"/>
<rect x="204.2" y="193" class="st6" width="8.3" height="20"/>
<rect x="229.2" y="231" class="st6" width="8.3" height="20"/>
<rect x="204.2" y="231" class="st6" width="8.3" height="20"/>
<rect x="180.4" y="154" class="st6" width="8.3" height="20"/>
<rect x="155.4" y="154" class="st6" width="8.3" height="20"/>
<rect x="180.4" y="193" class="st6" width="8.3" height="20"/>
<rect x="155.4" y="193" class="st6" width="8.3" height="20"/>
<rect x="180.4" y="231" class="st6" width="8.3" height="20"/>
<rect x="155.4" y="231" class="st6" width="8.3" height="20"/>
<rect x="131.6" y="154" class="st6" width="8.3" height="20"/>
<rect x="106.7" y="154" class="st6" width="8.3" height="20"/>
<rect x="131.6" y="193" class="st6" width="8.3" height="20"/>
<rect x="106.7" y="193" class="st6" width="8.3" height="20"/>
<rect x="131.6" y="231" class="st6" width="8.3" height="20"/>
<rect x="106.7" y="231" class="st6" width="8.3" height="20"/>
<path class="st10" d="M181,112h128v168H181V112z"/>
<path class="st7" d="M188,112h111c0-7.7-6.3-14-14-14h-83C194.3,98,188,104.3,188,112z"/>
<path class="st8" d="M197,149.1c0-11.1,9-20.1,20.1-20.1c11.1,0,20.1,9,20.1,20.1V162H197V149.1z"/>
<line class="st11" x1="197" y1="142" x2="237.1" y2="142"/>
<line class="st9" x1="197" y1="152.5" x2="237.1" y2="152.5"/>
<path class="st8" d="M197,201.1c0-11.1,9-20.1,20.1-20.1c11.1,0,20.1,9,20.1,20.1V214H197V201.1z"/>
<line class="st11" x1="197" y1="194" x2="237.1" y2="194"/>
<line class="st9" x1="197" y1="204.5" x2="237.1" y2="204.5"/>
<path class="st8" d="M222,245.1c0-11.1,9-20.1,20.1-20.1c11.1,0,20.1,9,20.1,20.1V258H222V245.1z"/>
<line class="st11" x1="222" y1="243" x2="262.1" y2="243"/>
<path class="st8" d="M251.9,149.1c0-11.1,9-20.1,20.1-20.1s20.1,9,20.1,20.1V162h-40.1V149.1z"/>
<line class="st11" x1="251.9" y1="142" x2="292" y2="142"/>
<line class="st9" x1="251.9" y1="152.5" x2="292" y2="152.5"/>
<path class="st8" d="M251.9,201.1c0-11.1,9-20.1,20.1-20.1s20.1,9,20.1,20.1V214h-40.1V201.1z"/>
<line class="st11" x1="251.9" y1="194" x2="292" y2="194"/>
<line class="st9" x1="251.9" y1="204.5" x2="292" y2="204.5"/>
<rect x="194" y="153" class="st6" width="46" height="11"/>
<rect x="194" y="205" class="st6" width="98" height="11"/>
<rect x="212" y="253" class="st6" width="56" height="11"/>
<rect x="248" y="153" class="st6" width="46" height="11"/>
<line class="st12" x1="292.7" y1="159.3" x2="194.7" y2="211.3"/>
<line class="st12" x1="194.9" y1="210.8" x2="265.9" y2="261.8"/>
<line class="st13" x1="201.5" y1="154" x2="201.5" y2="163"/>
<line class="st13" x1="212.5" y1="154" x2="212.5" y2="163"/>
<line class="st13" x1="223.5" y1="154" x2="223.5" y2="163"/>
<line class="st13" x1="232.5" y1="154" x2="232.5" y2="163"/>
<line class="st13" x1="257.5" y1="154" x2="257.5" y2="163"/>
<line class="st13" x1="268.5" y1="154" x2="268.5" y2="163"/>
<line class="st13" x1="279.5" y1="154" x2="279.5" y2="163"/>
<line class="st13" x1="288.5" y1="154" x2="288.5" y2="163"/>
<line class="st13" x1="226.5" y1="254" x2="226.5" y2="263"/>
<line class="st13" x1="237.5" y1="254" x2="237.5" y2="263"/>
<line class="st13" x1="248.5" y1="254" x2="248.5" y2="263"/>
<line class="st13" x1="257.5" y1="254" x2="257.5" y2="263"/>
<line class="st13" x1="199.5" y1="206" x2="199.5" y2="215"/>
<line class="st13" x1="210.5" y1="206" x2="210.5" y2="215"/>
<line class="st13" x1="221.5" y1="206" x2="221.5" y2="215"/>
<line class="st13" x1="230.5" y1="206" x2="230.5" y2="215"/>
<line class="st13" x1="240.5" y1="206" x2="240.5" y2="215"/>
<line class="st13" x1="251.5" y1="206" x2="251.5" y2="215"/>
<line class="st13" x1="262.5" y1="206" x2="262.5" y2="215"/>
<line class="st13" x1="271.5" y1="206" x2="271.5" y2="215"/>
<line class="st13" x1="282.5" y1="206" x2="282.5" y2="215"/>
<rect x="157" y="144" class="st14" width="24" height="136"/>
<rect x="309" y="115" class="st14" width="24" height="165"/>
<rect x="416" y="129" class="st14" width="24" height="151"/>
<rect x="68" y="150" class="st6" width="17" height="68"/>
<rect x="78" y="170" class="st6" width="17" height="2"/>
<rect x="78" y="192" class="st6" width="17" height="2"/>
<path class="st15" d="M502.2,47h57.5c1.4,0,2.5,1.1,2.5,2.5l0,0c0,1.4-1.1,2.5-2.5,2.5h-57.5c-1.4,0-2.5-1.1-2.5-2.5l0,0
	C499.8,48.1,500.9,47,502.2,47z"/>
<path class="st15" d="M502.2,57h40c1.4,0,2.5,1.1,2.5,2.5l0,0c0,1.4-1.1,2.5-2.5,2.5h-40c-1.4,0-2.5-1.1-2.5-2.5l0,0
	C499.8,58.1,500.9,57,502.2,57z"/>
<path class="st15" d="M502.2,65.8h27.5c1.4,0,2.5,1.1,2.5,2.5l0,0c0,1.4-1.1,2.5-2.5,2.5h-27.5c-1.4,0-2.5-1.1-2.5-2.5l0,0
	C499.8,66.9,500.9,65.8,502.2,65.8z"/>
<path class="st15" d="M474,53.4c-1.2,0-2.2,0.2-3.2,0.5l-2.7-3.9l0.8-1.8h0.4c0.7,0,1.2-0.4,1.2-1c0-0.6-0.5-1-1.2-1h-3.5
	c-0.7,0-1.2,0.4-1.2,1c0,0.6,0.5,1,1.2,1h0.6l-0.5,1h-10.7v-4.1h-5.9v2.1h3.5v2.9l-2.1,3.7c-0.8-0.3-1.7-0.4-2.6-0.4
	c-4.6,0-8.3,3.2-8.3,7.3s3.7,7.3,8.3,7.3c4.6,0,8.3-3.2,8.3-7.3c0-2.5-1.4-4.7-3.5-5.9l1.4-2.4l7.4,9.4h4.2c0.6,3.5,4,6.2,8.1,6.2
	c4.6,0,8.3-3.2,8.3-7.3C482.3,56.6,478.6,53.4,474,53.4L474,53.4z M453.9,60.7c0,2.9-2.6,5.2-5.9,5.2c-3.3,0-5.9-2.3-5.9-5.2
	c0-2.9,2.6-5.2,5.9-5.2c0.5,0,1.1,0.1,1.5,0.2l-2.6,4.6c-0.1,0.1-0.1,0.2-0.1,0.4c0,0.6,0.5,1,1.2,1c0.5,0,0.8-0.2,1.1-0.6l2.6-4.6
	C453,57.6,453.9,59,453.9,60.7L453.9,60.7z M468.8,55.1c-1.5,1.1-2.6,2.7-3,4.6H464l3.1-7.2L468.8,55.1z M470,56.9l1.9,2.8h-3.7
	C468.4,58.5,469.1,57.6,470,56.9z M461.8,58.5l-5.7-7.2h8.9L461.8,58.5z M474,65.9c-2.8,0-5.2-1.8-5.8-4.1l5.8,0
	c0.7,0,1.2-0.4,1.2-1c0-0.2-0.1-0.4-0.2-0.5l-3-4.4c0.6-0.2,1.3-0.3,2-0.3c3.3,0,5.9,2.3,5.9,5.2C479.9,63.6,477.3,65.9,474,65.9
	L474,65.9z"/>
</svg>
