<svg width="39" height="39" viewBox="0 0 39 39" fill="none" xmlns="http://www.w3.org/2000/svg">
<mask id="mask0_2110_8759" style="mask-type:alpha" maskUnits="userSpaceOnUse" x="0" y="0" width="39" height="39">
<rect width="39" height="39" fill="#D9D9D9"/>
</mask>
<g mask="url(#mask0_2110_8759)">
<path d="M19.5 35.75C17.2521 35.75 15.3359 34.9578 13.7516 33.3734C12.1672 31.7891 11.375 29.8729 11.375 27.625C11.375 26.325 11.6594 25.113 12.2281 23.9891C12.7969 22.8651 13.5958 21.9104 14.625 21.125V8.125C14.625 6.77083 15.099 5.61979 16.0469 4.67188C16.9948 3.72396 18.1458 3.25 19.5 3.25C20.8542 3.25 22.0052 3.72396 22.9531 4.67188C23.901 5.61979 24.375 6.77083 24.375 8.125V21.125C25.4042 21.9104 26.2031 22.8651 26.7719 23.9891C27.3406 25.113 27.625 26.325 27.625 27.625C27.625 29.8729 26.8328 31.7891 25.2484 33.3734C23.6641 34.9578 21.7479 35.75 19.5 35.75ZM17.875 17.875H21.125V16.25H19.5V14.625H21.125V11.375H19.5V9.75H21.125V8.125C21.125 7.66458 20.9693 7.27865 20.6578 6.96719C20.3464 6.65573 19.9604 6.5 19.5 6.5C19.0396 6.5 18.6536 6.65573 18.3422 6.96719C18.0307 7.27865 17.875 7.66458 17.875 8.125V17.875Z" fill="url(#paint0_linear_2110_8759)"/>
</g>
<defs>
<linearGradient id="paint0_linear_2110_8759" x1="4.32674" y1="19.4737" x2="31.3392" y2="19.4426" gradientUnits="userSpaceOnUse">
<stop offset="0.317708" stop-color="#E43425"/>
<stop offset="0.71875" stop-color="#441FD8"/>
<stop offset="1" stop-color="#0A26B8"/>
</linearGradient>
</defs>
</svg>
