<svg width="39" height="39" viewBox="0 0 39 39" fill="none" xmlns="http://www.w3.org/2000/svg">
<mask id="mask0_2110_8750" style="mask-type:alpha" maskUnits="userSpaceOnUse" x="0" y="0" width="39" height="39">
<rect width="39" height="39" fill="#D9D9D9"/>
</mask>
<g mask="url(#mask0_2110_8750)">
<path d="M8.125 34.125C7.23125 34.125 6.46615 33.8068 5.82969 33.1703C5.19323 32.5339 4.875 31.7687 4.875 30.875V8.125C4.875 7.23125 5.19323 6.46615 5.82969 5.82969C6.46615 5.19323 7.23125 4.875 8.125 4.875H14.95C15.3021 3.9 15.8911 3.11458 16.7172 2.51875C17.5432 1.92292 18.4708 1.625 19.5 1.625C20.5292 1.625 21.4568 1.92292 22.2828 2.51875C23.1089 3.11458 23.6979 3.9 24.05 4.875H30.875C31.7687 4.875 32.5339 5.19323 33.1703 5.82969C33.8068 6.46615 34.125 7.23125 34.125 8.125V30.875C34.125 31.7687 33.8068 32.5339 33.1703 33.1703C32.5339 33.8068 31.7687 34.125 30.875 34.125H8.125ZM8.125 30.875H30.875V8.125H8.125V30.875ZM11.375 27.625H22.75V24.375H11.375V27.625ZM11.375 21.125H27.625V17.875H11.375V21.125ZM11.375 14.625H27.625V11.375H11.375V14.625ZM19.5 6.90625C19.8521 6.90625 20.1432 6.79115 20.3734 6.56094C20.6036 6.33073 20.7188 6.03958 20.7188 5.6875C20.7188 5.33542 20.6036 5.04427 20.3734 4.81406C20.1432 4.58385 19.8521 4.46875 19.5 4.46875C19.1479 4.46875 18.8568 4.58385 18.6266 4.81406C18.3964 5.04427 18.2812 5.33542 18.2812 5.6875C18.2812 6.03958 18.3964 6.33073 18.6266 6.56094C18.8568 6.79115 19.1479 6.90625 19.5 6.90625Z" fill="url(#paint0_linear_2110_8750)"/>
</g>
<defs>
<linearGradient id="paint0_linear_2110_8750" x1="-7.81187" y1="17.8487" x2="40.8103" y2="17.7477" gradientUnits="userSpaceOnUse">
<stop offset="0.317708" stop-color="#E43425"/>
<stop offset="0.71875" stop-color="#441FD8"/>
<stop offset="1" stop-color="#0A26B8"/>
</linearGradient>
</defs>
</svg>
