<svg width="39" height="39" viewBox="0 0 39 39" fill="none" xmlns="http://www.w3.org/2000/svg">
<mask id="mask0_2110_8753" style="mask-type:alpha" maskUnits="userSpaceOnUse" x="0" y="0" width="39" height="39">
<rect width="39" height="39" fill="#D9D9D9"/>
</mask>
<g mask="url(#mask0_2110_8753)">
<path d="M18.0375 30.875H20.8813V28.8438C22.2354 28.6 23.4 28.0719 24.375 27.2594C25.35 26.4469 25.8375 25.2417 25.8375 23.6438C25.8375 22.5063 25.5125 21.4635 24.8625 20.5156C24.2125 19.5677 22.9125 18.7417 20.9625 18.0375C19.3375 17.4958 18.2135 17.0219 17.5906 16.6156C16.9677 16.2094 16.6562 15.6542 16.6562 14.95C16.6562 14.2458 16.9068 13.6906 17.4078 13.2844C17.9089 12.8781 18.6333 12.675 19.5813 12.675C20.4479 12.675 21.125 12.8849 21.6125 13.3047C22.1 13.7245 22.4521 14.2458 22.6687 14.8688L25.2688 13.8125C24.9708 12.8646 24.4224 12.0385 23.6234 11.3344C22.8245 10.6302 21.9375 10.2375 20.9625 10.1562V8.125H18.1188V10.1562C16.7646 10.4542 15.7083 11.05 14.95 11.9437C14.1917 12.8375 13.8125 13.8396 13.8125 14.95C13.8125 16.2229 14.1849 17.2521 14.9297 18.0375C15.6745 18.8229 16.8458 19.5 18.4438 20.0688C20.15 20.6917 21.3349 21.2469 21.9984 21.7344C22.662 22.2219 22.9938 22.8583 22.9938 23.6438C22.9938 24.5375 22.6755 25.1943 22.0391 25.6141C21.4026 26.0339 20.6375 26.2438 19.7438 26.2438C18.85 26.2438 18.0578 25.9661 17.3672 25.4109C16.6766 24.8557 16.1687 24.0229 15.8438 22.9125L13.1625 23.9688C13.5417 25.2687 14.1307 26.3182 14.9297 27.1172C15.7286 27.9161 16.7646 28.4646 18.0375 28.7625V30.875ZM19.5 35.75C17.2521 35.75 15.1396 35.3234 13.1625 34.4703C11.1854 33.6172 9.46562 32.4594 8.00312 30.9969C6.54062 29.5344 5.38281 27.8146 4.52969 25.8375C3.67656 23.8604 3.25 21.7479 3.25 19.5C3.25 17.2521 3.67656 15.1396 4.52969 13.1625C5.38281 11.1854 6.54062 9.46562 8.00312 8.00312C9.46562 6.54062 11.1854 5.38281 13.1625 4.52969C15.1396 3.67656 17.2521 3.25 19.5 3.25C21.7479 3.25 23.8604 3.67656 25.8375 4.52969C27.8146 5.38281 29.5344 6.54062 30.9969 8.00312C32.4594 9.46562 33.6172 11.1854 34.4703 13.1625C35.3234 15.1396 35.75 17.2521 35.75 19.5C35.75 21.7479 35.3234 23.8604 34.4703 25.8375C33.6172 27.8146 32.4594 29.5344 30.9969 30.9969C29.5344 32.4594 27.8146 33.6172 25.8375 34.4703C23.8604 35.3234 21.7479 35.75 19.5 35.75ZM19.5 32.5C23.1292 32.5 26.2031 31.2406 28.7219 28.7219C31.2406 26.2031 32.5 23.1292 32.5 19.5C32.5 15.8708 31.2406 12.7969 28.7219 10.2781C26.2031 7.75938 23.1292 6.5 19.5 6.5C15.8708 6.5 12.7969 7.75938 10.2781 10.2781C7.75938 12.7969 6.5 15.8708 6.5 19.5C6.5 23.1292 7.75938 26.2031 10.2781 28.7219C12.7969 31.2406 15.8708 32.5 19.5 32.5Z" fill="url(#paint0_linear_2110_8753)"/>
</g>
<defs>
<linearGradient id="paint0_linear_2110_8753" x1="-10.8465" y1="19.4737" x2="43.1781" y2="19.349" gradientUnits="userSpaceOnUse">
<stop offset="0.317708" stop-color="#E43425"/>
<stop offset="0.71875" stop-color="#441FD8"/>
<stop offset="1" stop-color="#0A26B8"/>
</linearGradient>
</defs>
</svg>
