<svg width="24" height="24" viewBox="0 0 24 24" fill="none" xmlns="http://www.w3.org/2000/svg">
<mask id="mask0_342_1523" style="mask-type:alpha" maskUnits="userSpaceOnUse" x="0" y="0" width="24" height="24">
<rect width="24" height="24" fill="#D9D9D9"/>
</mask>
<g mask="url(#mask0_342_1523)">
<path d="M12.0087 16.8845C12.8221 16.8845 13.5862 16.6928 14.301 16.3095C15.0157 15.9262 15.5955 15.3935 16.0405 14.7115C16.1468 14.5563 16.1558 14.399 16.0673 14.2395C15.9788 14.0798 15.8422 14 15.6578 14C15.5928 14 15.5338 14.0163 15.481 14.049C15.4283 14.0817 15.3815 14.1243 15.3405 14.177C14.9572 14.7448 14.4757 15.1907 13.8962 15.5145C13.3167 15.8382 12.6847 16 12 16C11.3153 16 10.6832 15.8382 10.1037 15.5145C9.52425 15.1907 9.04283 14.7448 8.6595 14.177C8.61467 14.1243 8.56592 14.0817 8.51325 14.049C8.46042 14.0163 8.4015 14 8.3365 14C8.15183 14 8.01533 14.0757 7.927 14.227C7.8385 14.3782 7.84742 14.5358 7.95375 14.7C8.39875 15.3858 8.97858 15.9214 9.69325 16.3068C10.4081 16.6919 11.1799 16.8845 12.0087 16.8845ZM15.3123 10.6155C15.6233 10.6155 15.8862 10.5066 16.101 10.2887C16.3157 10.0709 16.423 9.8065 16.423 9.4955C16.423 9.18433 16.3142 8.92142 16.0965 8.70675C15.8787 8.49192 15.6143 8.3845 15.3033 8.3845C14.9921 8.3845 14.7292 8.49342 14.5145 8.71125C14.2997 8.92908 14.1923 9.1935 14.1923 9.5045C14.1923 9.81567 14.3012 10.0786 14.519 10.2932C14.7367 10.5081 15.0011 10.6155 15.3123 10.6155ZM8.69675 10.6155C9.00792 10.6155 9.27083 10.5066 9.4855 10.2887C9.70033 10.0709 9.80775 9.8065 9.80775 9.4955C9.80775 9.18433 9.69883 8.92142 9.481 8.70675C9.26333 8.49192 8.99892 8.3845 8.68775 8.3845C8.37675 8.3845 8.11383 8.49342 7.899 8.71125C7.68433 8.92908 7.577 9.1935 7.577 9.5045C7.577 9.81567 7.68583 10.0786 7.9035 10.2932C8.12133 10.5081 8.38575 10.6155 8.69675 10.6155ZM12.0033 21C10.7587 21 9.58867 20.7638 8.493 20.2915C7.3975 19.8192 6.4445 19.1782 5.634 18.3685C4.8235 17.5588 4.18192 16.6067 3.70925 15.512C3.23642 14.4175 3 13.2479 3 12.0033C3 10.7587 3.23617 9.58867 3.7085 8.493C4.18083 7.3975 4.82183 6.4445 5.6315 5.634C6.44117 4.8235 7.39333 4.18192 8.488 3.70925C9.5825 3.23642 10.7521 3 11.9967 3C13.2413 3 14.4113 3.23617 15.507 3.7085C16.6025 4.18083 17.5555 4.82183 18.366 5.6315C19.1765 6.44117 19.8181 7.39333 20.2908 8.488C20.7636 9.5825 21 10.7521 21 11.9967C21 13.2413 20.7638 14.4113 20.2915 15.507C19.8192 16.6025 19.1782 17.5555 18.3685 18.366C17.5588 19.1765 16.6067 19.8181 15.512 20.2908C14.4175 20.7636 13.2479 21 12.0033 21ZM12 20C14.2333 20 16.125 19.225 17.675 17.675C19.225 16.125 20 14.2333 20 12C20 9.76667 19.225 7.875 17.675 6.325C16.125 4.775 14.2333 4 12 4C9.76667 4 7.875 4.775 6.325 6.325C4.775 7.875 4 9.76667 4 12C4 14.2333 4.775 16.125 6.325 17.675C7.875 19.225 9.76667 20 12 20Z" fill="white"/>
</g>
</svg>
