<svg width="387" height="105" viewBox="0 0 387 105" fill="none" xmlns="http://www.w3.org/2000/svg">
<path d="M21.8031 28.8768H10.2179L10.1561 21.7712H19.5478C21.2367 21.7712 22.5857 21.5858 23.5949 21.2151C24.6041 20.8238 25.3353 20.2574 25.7884 19.516C26.2621 18.7745 26.4989 17.8477 26.4989 16.7355C26.4989 15.4586 26.2621 14.4288 25.7884 13.6462C25.3147 12.8635 24.5629 12.2971 23.5331 11.947C22.5239 11.5763 21.2161 11.3909 19.6096 11.3909H14.2959V48H3.45219V3.01871H19.6096C22.39 3.01871 24.8718 3.27616 27.055 3.79105C29.2382 4.28535 31.0918 5.0474 32.6159 6.07719C34.1606 7.10698 35.3345 8.40452 36.1378 9.9698C36.941 11.5145 37.3426 13.3372 37.3426 15.438C37.3426 17.271 36.9513 18.9908 36.1687 20.5972C35.386 22.2037 34.0782 23.5116 32.2452 24.5208C30.4327 25.5094 27.9509 26.0243 24.7998 26.0654L21.8031 28.8768ZM21.3706 48H7.59195L11.2992 39.6587H21.3706C22.8535 39.6587 24.0377 39.4321 24.9233 38.979C25.8296 38.5053 26.4783 37.8874 26.8696 37.1254C27.2816 36.3428 27.4875 35.4777 27.4875 34.5303C27.4875 33.377 27.2919 32.3781 26.9005 31.5336C26.5298 30.6892 25.9325 30.0404 25.1087 29.5873C24.2849 29.1136 23.183 28.8768 21.8031 28.8768H12.6894L12.7512 21.7712H23.6567L26.19 24.6134C29.197 24.4899 31.5758 24.9121 33.3264 25.8801C35.0977 26.8481 36.3643 28.125 37.1264 29.7109C37.8884 31.2968 38.2694 32.9547 38.2694 34.6848C38.2694 37.63 37.631 40.0912 36.354 42.0684C35.0977 44.0456 33.2132 45.5285 30.7005 46.5171C28.1878 47.5057 25.0778 48 21.3706 48ZM54.7976 14.573V48H44.3555V14.573H54.7976ZM43.7376 5.95362C43.7376 4.47072 44.2731 3.25556 45.3441 2.30815C46.4151 1.36075 47.8053 0.887042 49.5148 0.887042C51.2242 0.887042 52.6144 1.36075 53.6854 2.30815C54.7564 3.25556 55.2919 4.47072 55.2919 5.95362C55.2919 7.43652 54.7564 8.65167 53.6854 9.59908C52.6144 10.5465 51.2242 11.0202 49.5148 11.0202C47.8053 11.0202 46.4151 10.5465 45.3441 9.59908C44.2731 8.65167 43.7376 7.43652 43.7376 5.95362ZM72.2217 0.547211V48H61.7796V0.547211H72.2217ZM89.6457 0.547211V48H79.2036V0.547211H89.6457ZM107.07 14.573V48H96.6277V14.573H107.07ZM96.0098 5.95362C96.0098 4.47072 96.5453 3.25556 97.6163 2.30815C98.6873 1.36075 100.078 0.887042 101.787 0.887042C103.496 0.887042 104.887 1.36075 105.958 2.30815C107.029 3.25556 107.564 4.47072 107.564 5.95362C107.564 7.43652 107.029 8.65167 105.958 9.59908C104.887 10.5465 103.496 11.0202 101.787 11.0202C100.078 11.0202 98.6873 10.5465 97.6163 9.59908C96.5453 8.65167 96.0098 7.43652 96.0098 5.95362ZM112.198 31.6263V30.9775C112.198 28.5266 112.548 26.2714 113.249 24.2118C113.949 22.1316 114.979 20.3295 116.338 18.8054C117.697 17.2813 119.376 16.0971 121.374 15.2526C123.371 14.3876 125.678 13.9551 128.294 13.9551C130.93 13.9551 133.247 14.3876 135.245 15.2526C137.263 16.0971 138.952 17.2813 140.311 18.8054C141.671 20.3295 142.701 22.1316 143.401 24.2118C144.101 26.2714 144.451 28.5266 144.451 30.9775V31.6263C144.451 34.0566 144.101 36.3119 143.401 38.392C142.701 40.4516 141.671 42.2538 140.311 43.7985C138.952 45.3225 137.274 46.5068 135.276 47.3512C133.278 48.1957 130.971 48.6179 128.356 48.6179C125.74 48.6179 123.423 48.1957 121.404 47.3512C119.386 46.5068 117.697 45.3225 116.338 43.7985C114.979 42.2538 113.949 40.4516 113.249 38.392C112.548 36.3119 112.198 34.0566 112.198 31.6263ZM122.609 30.9775V31.6263C122.609 32.8827 122.702 34.0566 122.887 35.1482C123.073 36.2398 123.382 37.1975 123.814 38.0213C124.247 38.8246 124.834 39.4527 125.575 39.9058C126.317 40.3589 127.243 40.5855 128.356 40.5855C129.447 40.5855 130.353 40.3589 131.074 39.9058C131.816 39.4527 132.403 38.8246 132.835 38.0213C133.268 37.1975 133.577 36.2398 133.762 35.1482C133.947 34.0566 134.04 32.8827 134.04 31.6263V30.9775C134.04 29.7624 133.947 28.6193 133.762 27.5483C133.577 26.4568 133.268 25.4991 132.835 24.6752C132.403 23.8308 131.816 23.1717 131.074 22.698C130.333 22.2243 129.406 21.9875 128.294 21.9875C127.202 21.9875 126.286 22.2243 125.544 22.698C124.823 23.1717 124.247 23.8308 123.814 24.6752C123.382 25.4991 123.073 26.4568 122.887 27.5483C122.702 28.6193 122.609 29.7624 122.609 30.9775ZM159.311 21.7094V48H148.9V14.573H158.662L159.311 21.7094ZM158.075 30.1434L155.635 30.2052C155.635 27.6513 155.944 25.3755 156.562 23.3777C157.179 21.3593 158.055 19.6498 159.188 18.2493C160.32 16.8488 161.669 15.7881 163.235 15.0673C164.821 14.3258 166.581 13.9551 168.517 13.9551C170.062 13.9551 171.473 14.1816 172.75 14.6348C174.047 15.0879 175.16 15.819 176.086 16.8282C177.034 17.8374 177.755 19.1761 178.249 20.8444C178.764 22.4921 179.021 24.5311 179.021 26.9614V48H168.548V26.9305C168.548 25.5917 168.363 24.5722 167.992 23.872C167.622 23.1511 167.086 22.6568 166.386 22.3891C165.686 22.1213 164.831 21.9875 163.822 21.9875C162.751 21.9875 161.844 22.1934 161.103 22.6053C160.362 23.0173 159.764 23.5939 159.311 24.3354C158.879 25.0562 158.559 25.911 158.353 26.8996C158.168 27.8882 158.075 28.9695 158.075 30.1434ZM202.315 38.6083C202.315 38.0316 202.12 37.5373 201.728 37.1254C201.358 36.6929 200.698 36.3016 199.751 35.9514C198.804 35.5807 197.475 35.21 195.766 34.8393C194.139 34.4891 192.604 34.0257 191.163 33.449C189.741 32.8724 188.495 32.1721 187.424 31.3483C186.353 30.5244 185.509 29.5461 184.891 28.4134C184.294 27.2806 183.995 25.9831 183.995 24.5208C183.995 23.0996 184.294 21.7609 184.891 20.5046C185.509 19.2276 186.405 18.1052 187.579 17.1372C188.773 16.1486 190.225 15.3762 191.935 14.8201C193.644 14.2434 195.591 13.9551 197.774 13.9551C200.781 13.9551 203.376 14.4185 205.559 15.3453C207.742 16.2515 209.421 17.5285 210.595 19.1761C211.789 20.8032 212.387 22.6877 212.387 24.8297H201.975C201.975 23.9853 201.831 23.2644 201.543 22.6671C201.275 22.0699 200.832 21.6167 200.214 21.3078C199.597 20.9783 198.773 20.8135 197.743 20.8135C197.022 20.8135 196.363 20.9474 195.766 21.2151C195.189 21.4829 194.726 21.8536 194.376 22.3273C194.025 22.801 193.85 23.3571 193.85 23.9956C193.85 24.4487 193.953 24.8606 194.159 25.2313C194.386 25.5814 194.726 25.911 195.179 26.2199C195.632 26.5083 196.209 26.776 196.909 27.0231C197.609 27.2497 198.453 27.4557 199.442 27.641C201.687 28.0529 203.788 28.6399 205.744 29.402C207.701 30.164 209.287 31.2453 210.502 32.6458C211.738 34.0463 212.356 35.9308 212.356 38.2994C212.356 39.7823 212.016 41.1519 211.336 42.4082C210.657 43.644 209.678 44.7356 208.401 45.683C207.124 46.6098 205.59 47.3306 203.798 47.8455C202.006 48.3604 199.988 48.6179 197.743 48.6179C194.551 48.6179 191.853 48.0515 189.649 46.9187C187.445 45.7654 185.777 44.3236 184.644 42.5936C183.532 40.8429 182.976 39.0717 182.976 37.2799H192.676C192.718 38.3097 192.965 39.1541 193.418 39.8132C193.892 40.4722 194.52 40.9562 195.302 41.2652C196.085 41.5741 196.991 41.7286 198.021 41.7286C198.968 41.7286 199.751 41.5947 200.369 41.327C201.007 41.0592 201.491 40.6988 201.821 40.2457C202.15 39.772 202.315 39.2262 202.315 38.6083ZM243.497 21.6476V48H233.085V14.573H242.848L243.497 21.6476ZM242.23 30.1434L239.851 30.2052C239.851 27.8573 240.129 25.6947 240.685 23.7175C241.241 21.7403 242.065 20.0206 243.157 18.5583C244.248 17.096 245.587 15.9632 247.173 15.16C248.779 14.3567 250.633 13.9551 252.734 13.9551C254.196 13.9551 255.525 14.1816 256.719 14.6348C257.914 15.0673 258.943 15.7572 259.808 16.7046C260.673 17.6315 261.333 18.8466 261.786 20.3501C262.259 21.833 262.496 23.6145 262.496 25.6947V48H252.085V27.0231C252.085 25.602 251.92 24.5311 251.591 23.8102C251.282 23.0893 250.829 22.6053 250.231 22.3582C249.634 22.111 248.903 21.9875 248.038 21.9875C247.132 21.9875 246.318 22.1934 245.597 22.6053C244.876 23.0173 244.259 23.5939 243.744 24.3354C243.249 25.0562 242.868 25.911 242.601 26.8996C242.353 27.8882 242.23 28.9695 242.23 30.1434ZM261.322 30.1434L258.418 30.2052C258.418 27.8573 258.676 25.6947 259.191 23.7175C259.726 21.7403 260.519 20.0206 261.569 18.5583C262.64 17.096 263.969 15.9632 265.555 15.16C267.141 14.3567 268.984 13.9551 271.085 13.9551C272.609 13.9551 274.009 14.1816 275.286 14.6348C276.563 15.0879 277.665 15.819 278.592 16.8282C279.519 17.8374 280.24 19.1761 280.754 20.8444C281.269 22.4921 281.527 24.5311 281.527 26.9614V48H271.085V26.9614C271.085 25.5814 270.92 24.5414 270.59 23.8411C270.281 23.1202 269.828 22.6362 269.231 22.3891C268.634 22.1213 267.923 21.9875 267.099 21.9875C266.111 21.9875 265.256 22.1934 264.535 22.6053C263.814 23.0173 263.207 23.5939 262.712 24.3354C262.239 25.0562 261.889 25.911 261.662 26.8996C261.436 27.8882 261.322 28.9695 261.322 30.1434ZM286.192 31.6263V30.9775C286.192 28.5266 286.542 26.2714 287.242 24.2118C287.942 22.1316 288.972 20.3295 290.331 18.8054C291.691 17.2813 293.369 16.0971 295.367 15.2526C297.365 14.3876 299.672 13.9551 302.287 13.9551C304.924 13.9551 307.241 14.3876 309.238 15.2526C311.257 16.0971 312.946 17.2813 314.305 18.8054C315.664 20.3295 316.694 22.1316 317.394 24.2118C318.095 26.2714 318.445 28.5266 318.445 30.9775V31.6263C318.445 34.0566 318.095 36.3119 317.394 38.392C316.694 40.4516 315.664 42.2538 314.305 43.7985C312.946 45.3225 311.267 46.5068 309.269 47.3512C307.272 48.1957 304.965 48.6179 302.349 48.6179C299.733 48.6179 297.416 48.1957 295.398 47.3512C293.38 46.5068 291.691 45.3225 290.331 43.7985C288.972 42.2538 287.942 40.4516 287.242 38.392C286.542 36.3119 286.192 34.0566 286.192 31.6263ZM296.603 30.9775V31.6263C296.603 32.8827 296.696 34.0566 296.881 35.1482C297.066 36.2398 297.375 37.1975 297.808 38.0213C298.24 38.8246 298.827 39.4527 299.569 39.9058C300.31 40.3589 301.237 40.5855 302.349 40.5855C303.441 40.5855 304.347 40.3589 305.068 39.9058C305.809 39.4527 306.396 38.8246 306.829 38.0213C307.261 37.1975 307.57 36.2398 307.756 35.1482C307.941 34.0566 308.034 32.8827 308.034 31.6263V30.9775C308.034 29.7624 307.941 28.6193 307.756 27.5483C307.57 26.4568 307.261 25.4991 306.829 24.6752C306.396 23.8308 305.809 23.1717 305.068 22.698C304.326 22.2243 303.4 21.9875 302.287 21.9875C301.196 21.9875 300.279 22.2243 299.538 22.698C298.817 23.1717 298.24 23.8308 297.808 24.6752C297.375 25.4991 297.066 26.4568 296.881 27.5483C296.696 28.6193 296.603 29.7624 296.603 30.9775ZM333.583 22.8525V48H323.172V14.573H332.903L333.583 22.8525ZM343.469 14.3258L343.283 23.9956C342.871 23.9544 342.315 23.9029 341.615 23.8411C340.915 23.7793 340.328 23.7484 339.854 23.7484C338.639 23.7484 337.589 23.8926 336.703 24.1809C335.838 24.4487 335.117 24.8606 334.54 25.4167C333.984 25.9522 333.572 26.6318 333.305 27.4557C333.058 28.2795 332.944 29.2372 332.965 30.3288L331.08 29.093C331.08 26.8481 331.297 24.8091 331.729 22.9761C332.182 21.1224 332.821 19.5263 333.645 18.1875C334.468 16.8282 335.467 15.7881 336.641 15.0673C337.815 14.3258 339.133 13.9551 340.596 13.9551C341.111 13.9551 341.615 13.986 342.109 14.0478C342.624 14.1096 343.077 14.2022 343.469 14.3258ZM362.623 48.6179C359.904 48.6179 357.474 48.1957 355.332 47.3512C353.19 46.4862 351.378 45.3019 349.895 43.7985C348.432 42.295 347.31 40.5649 346.527 38.6083C345.765 36.6517 345.384 34.5818 345.384 32.3987V31.2247C345.384 28.7738 345.724 26.5083 346.404 24.4281C347.083 22.3273 348.092 20.4943 349.431 18.929C350.77 17.3637 352.448 16.1486 354.467 15.2835C356.485 14.3979 358.833 13.9551 361.511 13.9551C363.879 13.9551 366.001 14.3361 367.875 15.0982C369.749 15.8602 371.335 16.9518 372.632 18.3729C373.951 19.794 374.949 21.5138 375.629 23.5322C376.329 25.5505 376.679 27.8161 376.679 30.3288V34.5612H349.369V28.0426H366.515V27.2394C366.536 26.1272 366.34 25.1798 365.928 24.3972C365.537 23.6145 364.96 23.0173 364.198 22.6053C363.436 22.1934 362.51 21.9875 361.418 21.9875C360.285 21.9875 359.348 22.2346 358.607 22.7289C357.886 23.2232 357.319 23.9029 356.907 24.7679C356.516 25.6123 356.238 26.5906 356.073 27.7028C355.909 28.815 355.826 29.9889 355.826 31.2247V32.3987C355.826 33.6344 355.991 34.7569 356.321 35.7661C356.671 36.7753 357.165 37.6403 357.803 38.3612C358.462 39.0614 359.245 39.6072 360.151 39.9985C361.078 40.3898 362.129 40.5855 363.302 40.5855C364.724 40.5855 366.124 40.3178 367.504 39.7823C368.884 39.2468 370.068 38.3612 371.057 37.1254L375.784 42.7481C375.104 43.7161 374.136 44.6532 372.88 45.5594C371.644 46.4656 370.161 47.2071 368.431 47.7837C366.701 48.3398 364.765 48.6179 362.623 48.6179Z" fill="url(#paint0_linear_483_9)"/>
<path d="M6.62012 71.4854V84H4.63281V71.4854H6.62012ZM23.6551 71.4854H25.5242L29.7244 81.2715L33.9139 71.4854H35.783L30.4441 84H28.9939L23.6551 71.4854ZM22.9568 71.4854H24.6434L24.9334 79.6816V84H22.9568V71.4854ZM34.8055 71.4854H36.5027V84H34.5154V79.6816L34.8055 71.4854ZM57.6949 79.2949H54.1285V77.6514H57.6949C58.3538 77.6514 58.8873 77.5583 59.2955 77.3721C59.7037 77.1787 60.0045 76.9173 60.1979 76.5879C60.3912 76.2585 60.4879 75.8789 60.4879 75.4492C60.4879 75.041 60.3912 74.6615 60.1979 74.3105C60.0045 73.9596 59.7037 73.6768 59.2955 73.4619C58.8873 73.2399 58.3538 73.1289 57.6949 73.1289H54.6656V84H52.6783V71.4854H57.6949C58.719 71.4854 59.5855 71.6572 60.2945 72.001C61.0107 72.3376 61.5514 72.8031 61.9166 73.3975C62.289 73.9847 62.4752 74.6615 62.4752 75.4277C62.4752 76.0293 62.3714 76.57 62.1637 77.0498C61.956 77.5225 61.648 77.9271 61.2398 78.2637C60.8316 78.6003 60.3303 78.8581 59.7359 79.0371C59.1415 79.209 58.4612 79.2949 57.6949 79.2949ZM77.8773 71.4854H82.4535C83.2126 71.4854 83.8894 71.5713 84.4838 71.7432C85.0782 71.9079 85.5795 72.1514 85.9877 72.4736C86.3959 72.7959 86.7038 73.1934 86.9115 73.666C87.1264 74.1387 87.2338 74.6829 87.2338 75.2988C87.2338 75.9147 87.1085 76.4626 86.8578 76.9424C86.6143 77.415 86.2598 77.8161 85.7943 78.1455C85.336 78.4678 84.7881 78.7148 84.1508 78.8867L83.56 79.1768H79.3275L79.3061 77.5439H82.5072C83.1159 77.5439 83.6208 77.4508 84.0219 77.2646C84.4229 77.0713 84.7237 76.8135 84.9242 76.4912C85.1319 76.1618 85.2357 75.793 85.2357 75.3848C85.2357 74.9336 85.1391 74.5397 84.9457 74.2031C84.7523 73.8665 84.448 73.6051 84.0326 73.4189C83.6244 73.2256 83.098 73.1289 82.4535 73.1289H79.8754V84H77.8773V71.4854ZM85.6654 84L82.4428 78.4248L84.5375 78.4141L87.8031 83.8926V84H85.6654ZM111.52 82.3672V84H104.387V82.3672H111.52ZM104.87 71.4854V84H102.883V71.4854H104.87ZM110.585 76.7168V78.3389H104.387V76.7168H110.585ZM111.455 71.4854V73.1289H104.387V71.4854H111.455ZM133.937 80.7988C133.937 80.5339 133.89 80.2975 133.797 80.0898C133.711 79.875 133.561 79.6816 133.346 79.5098C133.131 79.3307 132.834 79.166 132.454 79.0156C132.075 78.8652 131.595 78.722 131.015 78.5859C130.32 78.4141 129.693 78.2171 129.135 77.9951C128.576 77.766 128.096 77.501 127.695 77.2002C127.301 76.8923 126.997 76.5378 126.782 76.1367C126.575 75.7357 126.471 75.2738 126.471 74.751C126.471 74.2497 126.582 73.7913 126.804 73.376C127.026 72.9535 127.341 72.5882 127.749 72.2803C128.157 71.9723 128.648 71.736 129.221 71.5713C129.794 71.3994 130.431 71.3135 131.133 71.3135C132.135 71.3135 132.991 71.4889 133.7 71.8398C134.416 72.1836 134.964 72.6455 135.344 73.2256C135.723 73.7985 135.913 74.4323 135.913 75.127H133.915C133.915 74.7044 133.811 74.3285 133.604 73.999C133.403 73.6696 133.095 73.4118 132.68 73.2256C132.271 73.0322 131.749 72.9355 131.111 72.9355C130.517 72.9355 130.023 73.0143 129.629 73.1719C129.235 73.3294 128.941 73.5443 128.748 73.8164C128.555 74.0885 128.458 74.3965 128.458 74.7402C128.458 74.9837 128.515 75.2057 128.63 75.4062C128.744 75.6068 128.927 75.7894 129.178 75.9541C129.428 76.1188 129.754 76.2764 130.155 76.4268C130.556 76.5771 131.043 76.724 131.616 76.8672C132.311 77.0391 132.927 77.2432 133.464 77.4795C134.001 77.7158 134.452 77.9915 134.817 78.3066C135.19 78.6217 135.469 78.9834 135.655 79.3916C135.849 79.7998 135.945 80.2617 135.945 80.7773C135.945 81.3001 135.831 81.7728 135.602 82.1953C135.38 82.6107 135.057 82.9652 134.635 83.2588C134.219 83.5524 133.718 83.778 133.131 83.9355C132.551 84.0931 131.906 84.1719 131.197 84.1719C130.567 84.1719 129.944 84.0931 129.328 83.9355C128.719 83.7708 128.164 83.5273 127.663 83.2051C127.169 82.8757 126.775 82.4674 126.481 81.9805C126.188 81.4863 126.041 80.9098 126.041 80.251H128.039C128.039 80.6663 128.121 81.0208 128.286 81.3145C128.451 81.6081 128.68 81.848 128.974 82.0342C129.267 82.2132 129.604 82.3457 129.983 82.4316C130.363 82.5176 130.768 82.5605 131.197 82.5605C131.792 82.5605 132.293 82.4889 132.701 82.3457C133.109 82.1953 133.417 81.9876 133.625 81.7227C133.833 81.4577 133.937 81.1497 133.937 80.7988ZM158.48 80.7988C158.48 80.5339 158.434 80.2975 158.341 80.0898C158.255 79.875 158.104 79.6816 157.889 79.5098C157.675 79.3307 157.377 79.166 156.998 79.0156C156.618 78.8652 156.138 78.722 155.558 78.5859C154.864 78.4141 154.237 78.2171 153.679 77.9951C153.12 77.766 152.64 77.501 152.239 77.2002C151.845 76.8923 151.541 76.5378 151.326 76.1367C151.118 75.7357 151.014 75.2738 151.014 74.751C151.014 74.2497 151.125 73.7913 151.347 73.376C151.569 72.9535 151.885 72.5882 152.293 72.2803C152.701 71.9723 153.192 71.736 153.764 71.5713C154.337 71.3994 154.975 71.3135 155.677 71.3135C156.679 71.3135 157.535 71.4889 158.244 71.8398C158.96 72.1836 159.508 72.6455 159.887 73.2256C160.267 73.7985 160.457 74.4323 160.457 75.127H158.459C158.459 74.7044 158.355 74.3285 158.147 73.999C157.947 73.6696 157.639 73.4118 157.223 73.2256C156.815 73.0322 156.292 72.9355 155.655 72.9355C155.061 72.9355 154.567 73.0143 154.173 73.1719C153.779 73.3294 153.485 73.5443 153.292 73.8164C153.098 74.0885 153.002 74.3965 153.002 74.7402C153.002 74.9837 153.059 75.2057 153.174 75.4062C153.288 75.6068 153.471 75.7894 153.721 75.9541C153.972 76.1188 154.298 76.2764 154.699 76.4268C155.1 76.5771 155.587 76.724 156.16 76.8672C156.855 77.0391 157.471 77.2432 158.008 77.4795C158.545 77.7158 158.996 77.9915 159.361 78.3066C159.734 78.6217 160.013 78.9834 160.199 79.3916C160.392 79.7998 160.489 80.2617 160.489 80.7773C160.489 81.3001 160.374 81.7728 160.145 82.1953C159.923 82.6107 159.601 82.9652 159.179 83.2588C158.763 83.5524 158.262 83.778 157.675 83.9355C157.095 84.0931 156.45 84.1719 155.741 84.1719C155.111 84.1719 154.488 84.0931 153.872 83.9355C153.263 83.7708 152.708 83.5273 152.207 83.2051C151.713 82.8757 151.319 82.4674 151.025 81.9805C150.732 81.4863 150.585 80.9098 150.585 80.251H152.583C152.583 80.6663 152.665 81.0208 152.83 81.3145C152.995 81.6081 153.224 81.848 153.517 82.0342C153.811 82.2132 154.148 82.3457 154.527 82.4316C154.907 82.5176 155.311 82.5605 155.741 82.5605C156.335 82.5605 156.837 82.4889 157.245 82.3457C157.653 82.1953 157.961 81.9876 158.169 81.7227C158.376 81.4577 158.48 81.1497 158.48 80.7988ZM178.018 71.4854V84H176.031V71.4854H178.018ZM204.839 77.3936V78.1025C204.839 79.0479 204.71 79.8965 204.453 80.6484C204.195 81.3932 203.826 82.0306 203.346 82.5605C202.866 83.0833 202.29 83.4844 201.617 83.7637C200.951 84.0358 200.206 84.1719 199.382 84.1719C198.573 84.1719 197.832 84.0358 197.159 83.7637C196.493 83.4844 195.913 83.0833 195.418 82.5605C194.931 82.0306 194.555 81.3932 194.29 80.6484C194.025 79.8965 193.893 79.0479 193.893 78.1025V77.3936C193.893 76.4482 194.025 75.6032 194.29 74.8584C194.555 74.1064 194.928 73.4655 195.408 72.9355C195.895 72.4056 196.471 72.0046 197.137 71.7324C197.81 71.4531 198.552 71.3135 199.361 71.3135C200.191 71.3135 200.94 71.4531 201.606 71.7324C202.279 72.0046 202.856 72.4056 203.335 72.9355C203.822 73.4655 204.195 74.1064 204.453 74.8584C204.71 75.6032 204.839 76.4482 204.839 77.3936ZM202.873 78.1025V77.3721C202.873 76.6631 202.795 76.0365 202.637 75.4922C202.48 74.9479 202.25 74.4896 201.95 74.1172C201.649 73.7448 201.28 73.4619 200.843 73.2686C200.406 73.0752 199.912 72.9785 199.361 72.9785C198.831 72.9785 198.351 73.0752 197.921 73.2686C197.492 73.4619 197.123 73.7448 196.815 74.1172C196.514 74.4896 196.281 74.9479 196.117 75.4922C195.952 76.0365 195.87 76.6631 195.87 77.3721V78.1025C195.87 78.8115 195.952 79.4417 196.117 79.9932C196.281 80.5374 196.518 80.9993 196.826 81.3789C197.134 81.7513 197.502 82.0342 197.932 82.2275C198.369 82.4209 198.852 82.5176 199.382 82.5176C199.941 82.5176 200.435 82.4209 200.865 82.2275C201.294 82.0342 201.66 81.7513 201.96 81.3789C202.261 80.9993 202.487 80.5374 202.637 79.9932C202.795 79.4417 202.873 78.8115 202.873 78.1025ZM231.037 71.4854V84H229.05L222.562 74.5898V84H220.574V71.4854H222.562L229.05 80.8955V71.4854H231.037ZM254.356 80.7988C254.356 80.5339 254.31 80.2975 254.217 80.0898C254.131 79.875 253.98 79.6816 253.766 79.5098C253.551 79.3307 253.254 79.166 252.874 79.0156C252.494 78.8652 252.015 78.722 251.435 78.5859C250.74 78.4141 250.113 78.2171 249.555 77.9951C248.996 77.766 248.516 77.501 248.115 77.2002C247.721 76.8923 247.417 76.5378 247.202 76.1367C246.994 75.7357 246.891 75.2738 246.891 74.751C246.891 74.2497 247.002 73.7913 247.224 73.376C247.446 72.9535 247.761 72.5882 248.169 72.2803C248.577 71.9723 249.068 71.736 249.641 71.5713C250.214 71.3994 250.851 71.3135 251.553 71.3135C252.555 71.3135 253.411 71.4889 254.12 71.8398C254.836 72.1836 255.384 72.6455 255.764 73.2256C256.143 73.7985 256.333 74.4323 256.333 75.127H254.335C254.335 74.7044 254.231 74.3285 254.023 73.999C253.823 73.6696 253.515 73.4118 253.1 73.2256C252.691 73.0322 252.169 72.9355 251.531 72.9355C250.937 72.9355 250.443 73.0143 250.049 73.1719C249.655 73.3294 249.361 73.5443 249.168 73.8164C248.975 74.0885 248.878 74.3965 248.878 74.7402C248.878 74.9837 248.935 75.2057 249.05 75.4062C249.164 75.6068 249.347 75.7894 249.598 75.9541C249.848 76.1188 250.174 76.2764 250.575 76.4268C250.976 76.5771 251.463 76.724 252.036 76.8672C252.731 77.0391 253.347 77.2432 253.884 77.4795C254.421 77.7158 254.872 77.9915 255.237 78.3066C255.61 78.6217 255.889 78.9834 256.075 79.3916C256.269 79.7998 256.365 80.2617 256.365 80.7773C256.365 81.3001 256.251 81.7728 256.021 82.1953C255.799 82.6107 255.477 82.9652 255.055 83.2588C254.639 83.5524 254.138 83.778 253.551 83.9355C252.971 84.0931 252.326 84.1719 251.617 84.1719C250.987 84.1719 250.364 84.0931 249.748 83.9355C249.139 83.7708 248.584 83.5273 248.083 83.2051C247.589 82.8757 247.195 82.4674 246.901 81.9805C246.608 81.4863 246.461 80.9098 246.461 80.251H248.459C248.459 80.6663 248.541 81.0208 248.706 81.3145C248.871 81.6081 249.1 81.848 249.394 82.0342C249.687 82.2132 250.024 82.3457 250.403 82.4316C250.783 82.5176 251.188 82.5605 251.617 82.5605C252.212 82.5605 252.713 82.4889 253.121 82.3457C253.529 82.1953 253.837 81.9876 254.045 81.7227C254.253 81.4577 254.356 81.1497 254.356 80.7988ZM297.557 80.7988C297.557 80.5339 297.511 80.2975 297.418 80.0898C297.332 79.875 297.181 79.6816 296.966 79.5098C296.752 79.3307 296.454 79.166 296.075 79.0156C295.695 78.8652 295.215 78.722 294.635 78.5859C293.941 78.4141 293.314 78.2171 292.755 77.9951C292.197 77.766 291.717 77.501 291.316 77.2002C290.922 76.8923 290.618 76.5378 290.403 76.1367C290.195 75.7357 290.091 75.2738 290.091 74.751C290.091 74.2497 290.202 73.7913 290.424 73.376C290.646 72.9535 290.962 72.5882 291.37 72.2803C291.778 71.9723 292.268 71.736 292.841 71.5713C293.414 71.3994 294.052 71.3135 294.754 71.3135C295.756 71.3135 296.612 71.4889 297.321 71.8398C298.037 72.1836 298.585 72.6455 298.964 73.2256C299.344 73.7985 299.534 74.4323 299.534 75.127H297.536C297.536 74.7044 297.432 74.3285 297.224 73.999C297.024 73.6696 296.716 73.4118 296.3 73.2256C295.892 73.0322 295.369 72.9355 294.732 72.9355C294.138 72.9355 293.643 73.0143 293.25 73.1719C292.856 73.3294 292.562 73.5443 292.369 73.8164C292.175 74.0885 292.079 74.3965 292.079 74.7402C292.079 74.9837 292.136 75.2057 292.251 75.4062C292.365 75.6068 292.548 75.7894 292.798 75.9541C293.049 76.1188 293.375 76.2764 293.776 76.4268C294.177 76.5771 294.664 76.724 295.237 76.8672C295.932 77.0391 296.547 77.2432 297.085 77.4795C297.622 77.7158 298.073 77.9915 298.438 78.3066C298.81 78.6217 299.09 78.9834 299.276 79.3916C299.469 79.7998 299.566 80.2617 299.566 80.7773C299.566 81.3001 299.451 81.7728 299.222 82.1953C299 82.6107 298.678 82.9652 298.255 83.2588C297.84 83.5524 297.339 83.778 296.752 83.9355C296.171 84.0931 295.527 84.1719 294.818 84.1719C294.188 84.1719 293.565 84.0931 292.949 83.9355C292.34 83.7708 291.785 83.5273 291.284 83.2051C290.79 82.8757 290.396 82.4674 290.102 81.9805C289.809 81.4863 289.662 80.9098 289.662 80.251H291.66C291.66 80.6663 291.742 81.0208 291.907 81.3145C292.072 81.6081 292.301 81.848 292.594 82.0342C292.888 82.2132 293.225 82.3457 293.604 82.4316C293.984 82.5176 294.388 82.5605 294.818 82.5605C295.412 82.5605 295.914 82.4889 296.322 82.3457C296.73 82.1953 297.038 81.9876 297.246 81.7227C297.453 81.4577 297.557 81.1497 297.557 80.7988ZM325.453 77.3936V78.1025C325.453 79.0479 325.324 79.8965 325.066 80.6484C324.808 81.3932 324.439 82.0306 323.959 82.5605C323.48 83.0833 322.903 83.4844 322.23 83.7637C321.564 84.0358 320.819 84.1719 319.996 84.1719C319.186 84.1719 318.445 84.0358 317.772 83.7637C317.106 83.4844 316.526 83.0833 316.032 82.5605C315.545 82.0306 315.169 81.3932 314.904 80.6484C314.639 79.8965 314.506 79.0479 314.506 78.1025V77.3936C314.506 76.4482 314.639 75.6032 314.904 74.8584C315.169 74.1064 315.541 73.4655 316.021 72.9355C316.508 72.4056 317.084 72.0046 317.75 71.7324C318.424 71.4531 319.165 71.3135 319.974 71.3135C320.805 71.3135 321.553 71.4531 322.219 71.7324C322.892 72.0046 323.469 72.4056 323.949 72.9355C324.436 73.4655 324.808 74.1064 325.066 74.8584C325.324 75.6032 325.453 76.4482 325.453 77.3936ZM323.487 78.1025V77.3721C323.487 76.6631 323.408 76.0365 323.25 75.4922C323.093 74.9479 322.864 74.4896 322.563 74.1172C322.262 73.7448 321.893 73.4619 321.456 73.2686C321.02 73.0752 320.525 72.9785 319.974 72.9785C319.444 72.9785 318.964 73.0752 318.535 73.2686C318.105 73.4619 317.736 73.7448 317.428 74.1172C317.127 74.4896 316.895 74.9479 316.73 75.4922C316.565 76.0365 316.483 76.6631 316.483 77.3721V78.1025C316.483 78.8115 316.565 79.4417 316.73 79.9932C316.895 80.5374 317.131 80.9993 317.439 81.3789C317.747 81.7513 318.116 82.0342 318.545 82.2275C318.982 82.4209 319.466 82.5176 319.996 82.5176C320.554 82.5176 321.048 82.4209 321.478 82.2275C321.908 82.0342 322.273 81.7513 322.574 81.3789C322.874 80.9993 323.1 80.5374 323.25 79.9932C323.408 79.4417 323.487 78.8115 323.487 78.1025ZM349.438 82.3672V84H342.692V82.3672H349.438ZM343.175 71.4854V84H341.188V71.4854H343.175ZM368.331 84H365.495L365.506 82.3672H368.331C369.255 82.3672 370.021 82.1953 370.63 81.8516C371.246 81.5078 371.704 81.0173 372.005 80.3799C372.306 79.7354 372.456 78.9727 372.456 78.0918V77.3828C372.456 76.7025 372.37 76.0973 372.198 75.5674C372.026 75.0374 371.772 74.5934 371.436 74.2354C371.099 73.8701 370.68 73.5944 370.179 73.4082C369.685 73.222 369.112 73.1289 368.46 73.1289H365.431V71.4854H368.46C369.348 71.4854 370.157 71.625 370.888 71.9043C371.625 72.1764 372.259 72.5739 372.789 73.0967C373.319 73.6123 373.727 74.2354 374.014 74.9658C374.3 75.6891 374.443 76.502 374.443 77.4043V78.0918C374.443 79.2878 374.189 80.3298 373.681 81.2178C373.179 82.1058 372.47 82.7933 371.554 83.2803C370.644 83.7601 369.57 84 368.331 84ZM366.58 71.4854V84H364.593V71.4854H366.58Z" fill="#001464"/>
<defs>
<linearGradient id="paint0_linear_483_9" x1="-163.953" y1="26.4685" x2="464.083" y2="12.4134" gradientUnits="userSpaceOnUse">
<stop offset="0.317708" stop-color="#E43425"/>
<stop offset="0.71875" stop-color="#441FD8"/>
<stop offset="1" stop-color="#0A26B8"/>
</linearGradient>
</defs>
</svg>
