<svg width="33" height="33" viewBox="0 0 33 33" fill="none" xmlns="http://www.w3.org/2000/svg">
<circle cx="16.4915" cy="16.1243" r="15.5868" fill="#18D4A7" stroke="#001464" stroke-width="1.07495"/>
<mask id="mask0_226_1861" style="mask-type:alpha" maskUnits="userSpaceOnUse" x="2" y="2" width="29" height="29">
<rect x="2.51465" y="2.15015" width="27.9487" height="27.9487" fill="#D9D9D9"/>
</mask>
<g mask="url(#mask0_226_1861)">
<path d="M15.3547 26.6049V24.1011C14.326 23.8682 13.438 23.4218 12.6908 22.7619C11.9436 22.102 11.3953 21.1704 11.0459 19.967L13.2003 19.0936C13.4914 20.0253 13.9233 20.7337 14.4958 21.2189C15.0684 21.7041 15.8205 21.9467 16.7521 21.9467C17.5479 21.9467 18.2223 21.7672 18.7755 21.4081C19.3286 21.0491 19.6052 20.4911 19.6052 19.7341C19.6052 19.0548 19.3917 18.5162 18.9647 18.1183C18.5377 17.7205 17.5479 17.2692 15.9952 16.7646C14.326 16.2405 13.1809 15.6146 12.5598 14.8868C11.9387 14.1589 11.6282 13.271 11.6282 12.2229C11.6282 10.9613 12.0357 9.98119 12.8509 9.28247C13.6661 8.58375 14.5007 8.18587 15.3547 8.08883V5.64331H17.6837V8.08883C18.6542 8.2441 19.4548 8.59831 20.0856 9.15146C20.7164 9.70461 21.1773 10.3791 21.4684 11.1748L19.3141 12.1065C19.0812 11.4854 18.7512 11.0196 18.3242 10.709C17.8972 10.3985 17.315 10.2432 16.5774 10.2432C15.7234 10.2432 15.0732 10.4324 14.6268 10.8109C14.1804 11.1894 13.9572 11.6601 13.9572 12.2229C13.9572 12.8634 14.2484 13.368 14.8306 13.7368C15.4129 14.1056 16.4221 14.4937 17.8584 14.9013C19.1976 15.2895 20.2117 15.9057 20.9007 16.75C21.5898 17.5943 21.9343 18.5696 21.9343 19.6759C21.9343 21.0539 21.5267 22.102 20.7115 22.8201C19.8963 23.5383 18.8871 23.9847 17.6837 24.1594V26.6049H15.3547Z" fill="white"/>
</g>
</svg>
