<?xml version="1.0" encoding="UTF-8"?><svg id="Layer_1" xmlns="http://www.w3.org/2000/svg" width="4.23in" height="4.23in" viewBox="0 0 304.7 304.7"><path d="M0,0v304.7h304.7V0H0ZM304.7,138.89c-7.42,0-13.46,6.04-13.46,13.46h0c0,8.53-6.94,15.46-15.46,15.46s-15.46-6.94-15.46-15.46c0-7.42-6.04-13.46-13.46-13.46s-13.46,6.04-13.46,13.46c0,8.53-6.94,15.46-15.46,15.46s-15.46-6.94-15.46-15.46h0c0-7.42-6.04-13.46-13.46-13.46s-13.46,6.04-13.46,13.46c0,8.53-6.94,15.46-15.46,15.46s-15.46-6.94-15.46-15.46h0c0-7.42-6.04-13.46-13.46-13.46s-13.46,6.04-13.46,13.46h0c0,8.53-6.94,15.46-15.46,15.46s-15.46-6.94-15.46-15.46h0c0-7.42-6.04-13.46-13.46-13.46s-13.46,6.04-13.46,13.46h0c0,8.53-6.94,15.46-15.46,15.46s-15.46-6.94-15.46-15.46c0-7.42-6.04-13.46-13.46-13.46s-13.46,6.04-13.46,13.46H0c0-8.53,6.94-15.46,15.46-15.46s15.46,6.94,15.46,15.46c0,7.42,6.04,13.46,13.46,13.46s13.46-6.04,13.46-13.46h0c0-8.53,6.94-15.46,15.46-15.46s15.46,6.94,15.46,15.46h0c0,7.42,6.04,13.46,13.46,13.46s13.46-6.04,13.46-13.46h0c0-8.53,6.94-15.46,15.46-15.46s15.46,6.94,15.46,15.46h0c0,7.42,6.04,13.46,13.46,13.46s13.46-6.04,13.46-13.46c0-8.53,6.94-15.46,15.46-15.46s15.46,6.94,15.46,15.46h0c0,7.42,6.04,13.46,13.46,13.46s13.46-6.04,13.46-13.46c0-8.53,6.94-15.46,15.46-15.46s15.46,6.94,15.46,15.46c0,7.42,6.04,13.46,13.46,13.46s13.46-6.04,13.46-13.46h0c0-8.53,6.94-15.46,15.46-15.46v2Z" style="fill:#fff;"/></svg>