<svg width="190" height="38" viewBox="0 0 190 38" fill="none" xmlns="http://www.w3.org/2000/svg">
<path d="M29.9231 22.4615C29.9231 14.4747 23.4484 8 15.4615 8C7.47465 8 1 14.4747 1 22.4615" stroke="url(#paint0_linear_120_697)" stroke-width="2"/>
<path d="M29.9226 22.4616C29.9226 30.4484 36.3973 36.9231 44.3842 36.9231C52.3711 36.9231 58.8457 30.4484 58.8457 22.4616" stroke="url(#paint1_linear_120_697)" stroke-width="2"/>
<path d="M87.7688 22.4615C87.7688 14.4747 81.2941 8 73.3072 8C65.3204 8 58.8457 14.4747 58.8457 22.4615" stroke="url(#paint2_linear_120_697)" stroke-width="2"/>
<path d="M87.7693 22.4616C87.7693 30.4484 94.244 36.9231 102.231 36.9231C110.218 36.9231 116.692 30.4484 116.692 22.4616" stroke="url(#paint3_linear_120_697)" stroke-width="2"/>
<path d="M145.615 22.4615C145.615 14.4747 139.141 8 131.154 8C123.167 8 116.692 14.4747 116.692 22.4615" stroke="url(#paint4_linear_120_697)" stroke-width="2"/>
<path d="M189.707 8.70711C190.097 8.31658 190.097 7.68342 189.707 7.29289L183.343 0.928932C182.952 0.538408 182.319 0.538408 181.929 0.928932C181.538 1.31946 181.538 1.95262 181.929 2.34315L187.585 8L181.929 13.6569C181.538 14.0474 181.538 14.6805 181.929 15.0711C182.319 15.4616 182.952 15.4616 183.343 15.0711L189.707 8.70711ZM175.538 22.4615C175.538 15.0269 181.565 9 189 9V7C180.46 7 173.538 13.9224 173.538 22.4615H175.538Z" fill="url(#paint5_linear_120_697)"/>
<path d="M145.615 22.4616C145.615 30.4484 152.09 36.9231 160.077 36.9231C168.063 36.9231 174.538 30.4484 174.538 22.4616" stroke="url(#paint6_linear_120_697)" stroke-width="2"/>
<defs>
<linearGradient id="paint0_linear_120_697" x1="1" y1="15.2191" x2="188.638" y2="15.4204" gradientUnits="userSpaceOnUse">
<stop offset="0.317708" stop-color="#E43425"/>
<stop offset="0.71875" stop-color="#441FD8"/>
<stop offset="1" stop-color="#0A26B8"/>
</linearGradient>
<linearGradient id="paint1_linear_120_697" x1="1.36109" y1="29.9776" x2="188.999" y2="30.1789" gradientUnits="userSpaceOnUse">
<stop offset="0.317708" stop-color="#E43425"/>
<stop offset="0.71875" stop-color="#441FD8"/>
<stop offset="1" stop-color="#0A26B8"/>
</linearGradient>
<linearGradient id="paint2_linear_120_697" x1="0.999547" y1="14.9455" x2="187.915" y2="15.146" gradientUnits="userSpaceOnUse">
<stop offset="0.317708" stop-color="#E43425"/>
<stop offset="0.71875" stop-color="#441FD8"/>
<stop offset="1" stop-color="#0A26B8"/>
</linearGradient>
<linearGradient id="paint3_linear_120_697" x1="1.36161" y1="29.9776" x2="188.277" y2="30.1781" gradientUnits="userSpaceOnUse">
<stop offset="0.317708" stop-color="#E43425"/>
<stop offset="0.71875" stop-color="#441FD8"/>
<stop offset="1" stop-color="#0A26B8"/>
</linearGradient>
<linearGradient id="paint4_linear_120_697" x1="1.72315" y1="14.9455" x2="187.554" y2="15.1448" gradientUnits="userSpaceOnUse">
<stop offset="0.317708" stop-color="#E43425"/>
<stop offset="0.71875" stop-color="#441FD8"/>
<stop offset="1" stop-color="#0A26B8"/>
</linearGradient>
<linearGradient id="paint5_linear_120_697" x1="1.36118" y1="14.9455" x2="188.984" y2="16.6477" gradientUnits="userSpaceOnUse">
<stop offset="0.317708" stop-color="#E43425"/>
<stop offset="0.71875" stop-color="#441FD8"/>
<stop offset="1" stop-color="#0A26B8"/>
</linearGradient>
<linearGradient id="paint6_linear_120_697" x1="1.36118" y1="29.9776" x2="187.192" y2="30.177" gradientUnits="userSpaceOnUse">
<stop offset="0.317708" stop-color="#E43425"/>
<stop offset="0.71875" stop-color="#441FD8"/>
<stop offset="1" stop-color="#0A26B8"/>
</linearGradient>
</defs>
</svg>
