<svg width="22" height="22" viewBox="0 0 22 22" fill="none" xmlns="http://www.w3.org/2000/svg">
<mask id="mask0_129_277" style="mask-type:alpha" maskUnits="userSpaceOnUse" x="0" y="0" width="22" height="22">
<rect x="0.919922" y="0.631592" width="21.07" height="21.07" fill="#001464"/>
</mask>
<g mask="url(#mask0_129_277)">
<path d="M11.4587 13.9352C12.3509 13.9352 13.1079 13.623 13.7298 12.9985C14.3516 12.3739 14.6625 11.6156 14.6625 10.7235C14.6625 9.83132 14.3503 9.07431 13.7258 8.45246C13.1013 7.8306 12.343 7.51967 11.4508 7.51967C10.5587 7.51967 9.80165 7.83193 9.17979 8.45643C8.55794 9.08093 8.24701 9.83926 8.24701 10.7314C8.24701 11.6236 8.55926 12.3806 9.18377 13.0024C9.80827 13.6243 10.5666 13.9352 11.4587 13.9352ZM11.4548 13.0978C10.7963 13.0978 10.2367 12.8674 9.77577 12.4065C9.31486 11.9455 9.08441 11.3859 9.08441 10.7274C9.08441 10.069 9.31486 9.50934 9.77577 9.04843C10.2367 8.58752 10.7963 8.35707 11.4548 8.35707C12.1132 8.35707 12.6729 8.58752 13.1338 9.04843C13.5947 9.50934 13.8251 10.069 13.8251 10.7274C13.8251 11.3859 13.5947 11.9455 13.1338 12.4065C12.6729 12.8674 12.1132 13.0978 11.4548 13.0978ZM11.4572 16.4339C9.55569 16.4339 7.82269 15.9164 6.2582 14.8815C4.6937 13.8466 3.52202 12.4619 2.74316 10.7274C3.52202 8.99299 4.6929 7.60831 6.25579 6.57339C7.81867 5.53846 9.55086 5.021 11.4524 5.021C13.3539 5.021 15.0869 5.53846 16.6514 6.57339C18.2159 7.60831 19.3875 8.99299 20.1664 10.7274C19.3875 12.4619 18.2167 13.8466 16.6538 14.8815C15.0909 15.9164 13.3587 16.4339 11.4572 16.4339Z" fill="#001464"/>
</g>
</svg>
