<svg width="46" height="40" viewBox="0 0 46 40" fill="none" xmlns="http://www.w3.org/2000/svg">
<mask id="path-1-inside-1_226_2199" fill="white">
<path fill-rule="evenodd" clip-rule="evenodd" d="M13.7474 36.582C16.5506 37.6017 19.6463 38.1673 22.9004 38.1673C35.5479 38.1673 45.8008 29.6233 45.8008 19.0837C45.8008 8.54405 35.5479 0 22.9004 0C10.2529 0 0 8.54405 0 19.0837C0 24.0098 2.2398 28.5 5.91703 31.8856L3.35165 37.6953C2.87292 38.7793 3.91107 39.9134 5.03319 39.5339L13.7474 36.582Z"/>
</mask>
<path fill-rule="evenodd" clip-rule="evenodd" d="M13.7474 36.582C16.5506 37.6017 19.6463 38.1673 22.9004 38.1673C35.5479 38.1673 45.8008 29.6233 45.8008 19.0837C45.8008 8.54405 35.5479 0 22.9004 0C10.2529 0 0 8.54405 0 19.0837C0 24.0098 2.2398 28.5 5.91703 31.8856L3.35165 37.6953C2.87292 38.7793 3.91107 39.9134 5.03319 39.5339L13.7474 36.582Z" fill="#3E64FF"/>
<path d="M13.7474 36.582L13.4266 35.6349L13.7592 35.5222L14.0893 35.6423L13.7474 36.582ZM5.91703 31.8856L6.59436 31.1499L7.12095 31.6348L6.83182 32.2896L5.91703 31.8856ZM3.35165 37.6953L4.26643 38.0993L4.2664 38.0993L3.35165 37.6953ZM5.03319 39.5339L5.35402 40.481L5.35355 40.4812L5.03319 39.5339ZM22.9004 39.1673C19.5305 39.1673 16.3191 38.5816 13.4056 37.5218L14.0893 35.6423C16.7822 36.6218 19.762 37.1673 22.9004 37.1673V39.1673ZM46.8008 19.0837C46.8008 30.3385 35.9218 39.1673 22.9004 39.1673V37.1673C35.1741 37.1673 44.8008 28.908 44.8008 19.0837H46.8008ZM22.9004 -1C35.9218 -1 46.8008 7.82879 46.8008 19.0837H44.8008C44.8008 9.2593 35.1741 1 22.9004 1V-1ZM-1 19.0837C-1 7.82879 9.87903 -1 22.9004 -1V1C10.6267 1 1 9.2593 1 19.0837H-1ZM5.2397 32.6213C1.3871 29.0742 -1 24.328 -1 19.0837H1C1 23.6916 3.09249 27.9258 6.59436 31.1499L5.2397 32.6213ZM2.43686 37.2914L5.00224 31.4817L6.83182 32.2896L4.26643 38.0993L2.43686 37.2914ZM5.35355 40.4812C3.40864 41.139 1.60599 39.1727 2.43689 37.2913L4.2664 38.0993C4.13984 38.3859 4.41349 38.6878 4.71282 38.5866L5.35355 40.4812ZM14.0683 37.5291L5.35402 40.481L4.71235 38.5868L13.4266 35.6349L14.0683 37.5291Z" fill="#001464" mask="url(#path-1-inside-1_226_2199)"/>
<mask id="mask0_226_2199" style="mask-type:alpha" maskUnits="userSpaceOnUse" x="11" y="7" width="24" height="24">
<rect x="11" y="7" width="24" height="24" fill="#D9D9D9"/>
</mask>
<g mask="url(#mask0_226_2199)">
<path d="M21.65 22.75L26.525 19.625C26.7583 19.475 26.875 19.2667 26.875 19C26.875 18.7333 26.7583 18.525 26.525 18.375L21.65 15.25C21.4 15.0833 21.1458 15.0708 20.8875 15.2125C20.6292 15.3542 20.5 15.575 20.5 15.875V22.125C20.5 22.425 20.6292 22.6458 20.8875 22.7875C21.1458 22.9292 21.4 22.9167 21.65 22.75ZM23 29C21.6167 29 20.3167 28.7375 19.1 28.2125C17.8833 27.6875 16.825 26.975 15.925 26.075C15.025 25.175 14.3125 24.1167 13.7875 22.9C13.2625 21.6833 13 20.3833 13 19C13 17.6167 13.2625 16.3167 13.7875 15.1C14.3125 13.8833 15.025 12.825 15.925 11.925C16.825 11.025 17.8833 10.3125 19.1 9.7875C20.3167 9.2625 21.6167 9 23 9C24.3833 9 25.6833 9.2625 26.9 9.7875C28.1167 10.3125 29.175 11.025 30.075 11.925C30.975 12.825 31.6875 13.8833 32.2125 15.1C32.7375 16.3167 33 17.6167 33 19C33 20.3833 32.7375 21.6833 32.2125 22.9C31.6875 24.1167 30.975 25.175 30.075 26.075C29.175 26.975 28.1167 27.6875 26.9 28.2125C25.6833 28.7375 24.3833 29 23 29Z" fill="white"/>
</g>
</svg>
