<svg width="46" height="40" viewBox="0 0 46 40" fill="none" xmlns="http://www.w3.org/2000/svg">
<mask id="path-1-inside-1_226_2208" fill="white">
<path fill-rule="evenodd" clip-rule="evenodd" d="M13.7474 36.582C16.5506 37.6017 19.6463 38.1673 22.9004 38.1673C35.5479 38.1673 45.8008 29.6233 45.8008 19.0837C45.8008 8.54405 35.5479 0 22.9004 0C10.2529 0 0 8.54405 0 19.0837C0 24.0098 2.2398 28.5 5.91703 31.8856L3.35165 37.6953C2.87292 38.7793 3.91107 39.9134 5.03319 39.5339L13.7474 36.582Z"/>
</mask>
<path fill-rule="evenodd" clip-rule="evenodd" d="M13.7474 36.582C16.5506 37.6017 19.6463 38.1673 22.9004 38.1673C35.5479 38.1673 45.8008 29.6233 45.8008 19.0837C45.8008 8.54405 35.5479 0 22.9004 0C10.2529 0 0 8.54405 0 19.0837C0 24.0098 2.2398 28.5 5.91703 31.8856L3.35165 37.6953C2.87292 38.7793 3.91107 39.9134 5.03319 39.5339L13.7474 36.582Z" fill="#3E64FF"/>
<path d="M13.7474 36.582L13.4266 35.6349L13.7592 35.5222L14.0893 35.6423L13.7474 36.582ZM5.91703 31.8856L6.59436 31.1499L7.12095 31.6348L6.83182 32.2896L5.91703 31.8856ZM3.35165 37.6953L4.26643 38.0993L4.2664 38.0993L3.35165 37.6953ZM5.03319 39.5339L5.35402 40.481L5.35355 40.4812L5.03319 39.5339ZM22.9004 39.1673C19.5305 39.1673 16.3191 38.5816 13.4056 37.5218L14.0893 35.6423C16.7822 36.6218 19.762 37.1673 22.9004 37.1673V39.1673ZM46.8008 19.0837C46.8008 30.3385 35.9218 39.1673 22.9004 39.1673V37.1673C35.1741 37.1673 44.8008 28.908 44.8008 19.0837H46.8008ZM22.9004 -1C35.9218 -1 46.8008 7.82879 46.8008 19.0837H44.8008C44.8008 9.2593 35.1741 1 22.9004 1V-1ZM-1 19.0837C-1 7.82879 9.87903 -1 22.9004 -1V1C10.6267 1 1 9.2593 1 19.0837H-1ZM5.2397 32.6213C1.3871 29.0742 -1 24.328 -1 19.0837H1C1 23.6916 3.09249 27.9258 6.59436 31.1499L5.2397 32.6213ZM2.43686 37.2914L5.00224 31.4817L6.83182 32.2896L4.26643 38.0993L2.43686 37.2914ZM5.35355 40.4812C3.40864 41.139 1.60599 39.1727 2.43689 37.2913L4.2664 38.0993C4.13984 38.3859 4.41349 38.6878 4.71282 38.5866L5.35355 40.4812ZM14.0683 37.5291L5.35402 40.481L4.71235 38.5868L13.4266 35.6349L14.0683 37.5291Z" fill="#001464" mask="url(#path-1-inside-1_226_2208)"/>
<mask id="mask0_226_2208" style="mask-type:alpha" maskUnits="userSpaceOnUse" x="10" y="7" width="24" height="24">
<rect x="10.5" y="7.5" width="23" height="23" fill="#D9D9D9" stroke="white"/>
</mask>
<g mask="url(#mask0_226_2208)">
<path d="M22.5252 25.9V27.5H21.5252V25.85V25.4506L21.1356 25.3623C20.3292 25.1798 19.6438 24.8331 19.0687 24.3252C18.5995 23.9109 18.2205 23.3393 17.9452 22.5882L18.8819 22.2084C19.1443 22.8406 19.501 23.3637 19.9644 23.7564C20.5666 24.2668 21.3363 24.5 22.2252 24.5C22.985 24.5 23.6635 24.3278 24.2349 23.9569C24.8749 23.5415 25.1752 22.89 25.1752 22.1C25.1752 21.4028 24.9511 20.7986 24.4661 20.3467C24.2228 20.12 23.8594 19.911 23.4201 19.7107C22.9717 19.5062 22.4065 19.2944 21.7297 19.0745L21.7297 19.0745L21.725 19.073C20.3176 18.6311 19.4456 18.1286 19.0055 17.6129C18.557 17.0873 18.3252 16.4432 18.3252 15.65C18.3252 14.6844 18.6312 13.9927 19.2006 13.5046C19.8437 12.9534 20.4699 12.6663 21.0817 12.5968L21.5252 12.5464V12.1V10.5H22.5252V12.1V12.5264L22.9462 12.5937C23.7028 12.7148 24.2986 12.9855 24.758 13.3884C25.1176 13.7038 25.4037 14.0698 25.6177 14.4896L24.6777 14.8961C24.4702 14.5104 24.2032 14.1885 23.8693 13.9456C23.3892 13.5965 22.7734 13.45 22.0752 13.45C21.2765 13.45 20.5841 13.6261 20.0769 14.0561C19.5866 14.4718 19.3252 15.0132 19.3252 15.65C19.3252 16.3864 19.6761 16.9724 20.3077 17.3724C20.8729 17.7304 21.7993 18.0792 23.0373 18.4306C24.1163 18.7436 24.8888 19.2269 25.4003 19.8536C25.9179 20.4879 26.1752 21.2133 26.1752 22.05C26.1752 23.1311 25.8594 23.8774 25.2947 24.3748C24.676 24.9199 23.9025 25.2674 22.9534 25.4052L22.5252 25.4673V25.9Z" fill="#1C1B1F" stroke="white"/>
</g>
</svg>
