<svg width="44" height="41" viewBox="0 0 44 41" fill="none" xmlns="http://www.w3.org/2000/svg">
<path d="M0.5 7.28C0.5 3.53551 3.53551 0.5 7.28 0.5H36.7183C40.4637 0.5 43.5 3.53628 43.5 7.28171V40.5H0.5V7.28Z" fill="white" stroke="#263F5D"/>
<path d="M36.7071 40.869C36.3713 38.3274 36.044 35.7924 33.0697 34.9608C30.7388 34.309 25.8268 33.2564 22.8939 33.2028L21.7473 32.6384C21.7341 32.6384 21.72 32.6412 21.7069 32.6412C21.6937 32.6412 21.6796 32.6384 21.6664 32.6384V32.6441C18.7335 32.6967 12.8131 34.3287 10.4719 34.9608C8.13066 35.593 7.29254 38.0282 7 40.869H36.7071Z" fill="url(#paint0_linear_296_35)"/>
<path d="M25.7674 34.0131C25.7674 35.33 23.7883 36.1568 21.8008 36.1615C19.7982 36.1653 17.7871 35.3309 17.7871 34.0131V27.2452H25.7674V34.0131Z" fill="url(#paint1_radial_296_35)"/>
<path d="M30.2011 20.2549C30.6414 20.0649 31.7062 20.1862 31.7428 21.9283C31.7776 23.5753 31.4738 24.3269 31.0693 25.0342C30.616 25.8281 29.8023 25.8215 29.8691 25.1913C29.9368 24.5601 30.2011 20.2549 30.2011 20.2549Z" fill="url(#paint2_linear_296_35)"/>
<path d="M12.6856 20.2549C12.2191 20.0649 11.0931 20.1862 11.0536 21.9283C11.0169 23.5753 11.3386 24.3269 11.7657 25.0342C12.2454 25.8281 13.107 25.8215 13.0355 25.1913C12.965 24.5601 12.6856 20.2549 12.6856 20.2549Z" fill="url(#paint3_linear_296_35)"/>
<path d="M31.0206 20.4859C31.0206 22.7688 30.8786 25.7459 30.0358 27.5726C28.3935 31.131 24.0214 33.35 21.6143 33.35C19.1132 33.35 14.7891 31.131 13.1458 27.5726C12.303 25.7459 12.208 22.7688 12.208 20.4859C12.208 19.9845 12.2212 19.5105 12.2456 19.0618C12.3896 16.4779 12.937 14.6963 13.7864 13.0483C15.4729 9.7768 18.3494 8.29907 21.6134 8.29907C24.8604 8.29907 27.7228 9.75329 29.4131 12.9947C30.428 14.9399 31.0206 17.1006 31.0206 20.4859Z" fill="url(#paint4_radial_296_35)"/>
<path d="M12.1857 20.8306C12.1857 20.8306 12.9353 17.9469 12.7867 17.0467C13.4574 16.5378 15.0311 14.8134 14.7329 12.4261C15.5898 13.1692 19.9845 16.2996 27.0242 13.8352C28.5884 15.8302 28.8866 15.9093 30.0784 16.6524C30.3766 17.513 30.4885 20.3359 30.4509 20.8053C30.4133 21.2746 30.972 21.6274 31.2335 20.6491C31.3153 20.3415 31.6859 17.6965 31.7377 15.882C31.8515 11.9342 30.4612 6.15209 21.3258 6.07119C12.4575 5.99312 11.0193 11.9633 11.0513 15.9704C11.0673 17.9881 11.4558 20.7272 11.4558 20.7272C11.5574 21.3132 12.0653 21.3386 12.1857 20.8306Z" fill="url(#paint5_radial_296_35)"/>
<path d="M21.7343 26.0231C22.3431 26.0231 22.8367 25.6975 22.8367 25.296C22.8367 24.8944 22.3431 24.5688 21.7343 24.5688C21.1254 24.5688 20.6318 24.8944 20.6318 25.296C20.6318 25.6975 21.1254 26.0231 21.7343 26.0231Z" fill="url(#paint6_radial_296_35)"/>
<path d="M14.3098 22.0037C14.2157 22.189 14.2458 22.3367 14.3098 22.4853C14.5769 23.1343 16.7272 25.4483 19.6281 23.0196C19.8445 22.8484 19.8783 22.6969 19.8247 22.4825C19.7711 22.2689 19.0195 20.5184 17.0498 20.5184C15.1009 20.5194 14.4725 21.7525 14.3098 22.0037Z" fill="white"/>
<path d="M17.0204 23.6406C17.8838 23.6406 18.5837 22.9406 18.5837 22.0772C18.5837 21.2138 17.8838 20.5139 17.0204 20.5139C16.157 20.5139 15.457 21.2138 15.457 22.0772C15.457 22.9406 16.157 23.6406 17.0204 23.6406Z" fill="url(#paint7_linear_296_35)"/>
<path d="M17.0188 22.8628C17.4536 22.8628 17.8061 22.5103 17.8061 22.0755C17.8061 21.6407 17.4536 21.2882 17.0188 21.2882C16.5839 21.2882 16.2314 21.6407 16.2314 22.0755C16.2314 22.5103 16.5839 22.8628 17.0188 22.8628Z" fill="url(#paint8_radial_296_35)"/>
<path d="M16.1874 21.6243C16.4004 21.6243 16.5731 21.4517 16.5731 21.2387C16.5731 21.0257 16.4004 20.853 16.1874 20.853C15.9744 20.853 15.8018 21.0257 15.8018 21.2387C15.8018 21.4517 15.9744 21.6243 16.1874 21.6243Z" fill="white"/>
<path d="M29.1565 22.0037C29.2506 22.189 29.2205 22.3367 29.1565 22.4853C28.8894 23.1343 26.7391 25.4483 23.8382 23.0196C23.6218 22.8484 23.588 22.6969 23.6416 22.4825C23.6952 22.2689 24.4468 20.5184 26.4164 20.5184C28.3654 20.5194 28.9938 21.7525 29.1565 22.0037Z" fill="white"/>
<path d="M26.4471 23.6406C27.3105 23.6406 28.0104 22.9406 28.0104 22.0772C28.0104 21.2138 27.3105 20.5139 26.4471 20.5139C25.5837 20.5139 24.8838 21.2138 24.8838 22.0772C24.8838 22.9406 25.5837 23.6406 26.4471 23.6406Z" fill="url(#paint9_linear_296_35)"/>
<path d="M26.4465 22.8628C26.8813 22.8628 27.2338 22.5103 27.2338 22.0755C27.2338 21.6407 26.8813 21.2882 26.4465 21.2882C26.0117 21.2882 25.6592 21.6407 25.6592 22.0755C25.6592 22.5103 26.0117 22.8628 26.4465 22.8628Z" fill="url(#paint10_radial_296_35)"/>
<path d="M25.5946 21.6243C25.8076 21.6243 25.9803 21.4517 25.9803 21.2387C25.9803 21.0257 25.8076 20.853 25.5946 20.853C25.3816 20.853 25.209 21.0257 25.209 21.2387C25.209 21.4517 25.3816 21.6243 25.5946 21.6243Z" fill="white"/>
<path d="M27.9333 19.342C26.8629 19.0645 25.7294 19.1407 24.7474 19.5141C24.4549 19.6251 24.1275 19.4784 24.0165 19.1859C23.9056 18.8933 24.0523 18.566 24.3448 18.455C24.374 18.4437 24.4031 18.4352 24.4323 18.4296L24.4445 18.4277C25.7022 18.1784 26.9983 18.3214 28.1215 18.8209C28.2616 18.883 28.3256 19.0476 28.2626 19.1887C28.2061 19.3147 28.0678 19.3787 27.938 19.3448L27.9333 19.342Z" fill="url(#paint11_linear_296_35)"/>
<path d="M15.1578 18.8207C16.2809 18.3222 17.5771 18.1783 18.8347 18.4275L18.8442 18.4294C19.1508 18.4905 19.3502 18.7887 19.29 19.0954C19.2289 19.402 18.9307 19.6014 18.624 19.5412C18.5939 19.5356 18.561 19.5252 18.5328 19.5149C17.5508 19.1415 16.4164 19.0662 15.3469 19.3428L15.3422 19.3437C15.1936 19.3823 15.0412 19.2929 15.0026 19.1443C14.9669 19.0107 15.0355 18.8743 15.1578 18.8207Z" fill="url(#paint12_linear_296_35)"/>
<path d="M24.8399 27.9279C24.8399 27.9279 24.8776 30.3553 21.8663 30.3553C18.8549 30.3553 18.8926 27.9279 18.8926 27.9279C18.8926 27.9279 19.5537 28.6673 21.8663 28.6673C24.1788 28.6673 24.8399 27.9279 24.8399 27.9279Z" fill="url(#paint13_radial_296_35)"/>
<path d="M19.3566 27.9279C19.2099 27.9279 19.1236 28.1003 19.196 28.2391C19.7342 29.27 20.9663 29.5812 21.8644 29.5812C22.8407 29.5812 23.9955 29.27 24.5327 28.2391C24.6051 28.1003 24.5198 27.9279 24.3721 27.9279C22.7148 28.0478 21.0426 28.0567 19.3566 27.9279Z" fill="url(#paint14_radial_296_35)"/>
<path d="M21.8772 26.0675C21.8732 26.0675 21.8692 26.0675 21.8653 26.0675C21.8613 26.0675 21.8573 26.0675 21.8534 26.0675C17.5594 25.9892 16.9092 28.0549 16.9092 28.9777C16.9092 29.3395 17.263 29.395 17.4246 29.0877C17.5475 28.8637 18.0461 28.5207 18.7132 28.5098C20.5162 28.4811 20.1931 28.4811 21.7612 28.4811C23.2044 28.4811 23.6296 28.4811 24.8756 28.4811C25.5427 28.4811 26.182 28.8627 26.3049 29.0867C26.4675 29.393 26.8204 29.3385 26.8204 28.9767C26.8214 28.0549 26.1711 25.9892 21.8772 26.0675Z" fill="url(#paint15_radial_296_35)"/>
<defs>
<linearGradient id="paint0_linear_296_35" x1="7.00204" y1="36.7537" x2="36.7183" y2="36.7537" gradientUnits="userSpaceOnUse">
<stop stop-color="#9D0051"/>
<stop offset="0.1" stop-color="#9D0051"/>
<stop offset="0.91" stop-color="#301C90"/>
<stop offset="1" stop-color="#301C90"/>
</linearGradient>
<radialGradient id="paint1_radial_296_35" cx="0" cy="0" r="1" gradientUnits="userSpaceOnUse" gradientTransform="translate(21.7809 31.6917) scale(3.99339 6.7649)">
<stop stop-color="#D77A5C"/>
<stop offset="1" stop-color="#E9B764"/>
</radialGradient>
<linearGradient id="paint2_linear_296_35" x1="30.7253" y1="22.9112" x2="31.7472" y2="22.9112" gradientUnits="userSpaceOnUse">
<stop stop-color="#E9B764"/>
<stop offset="1" stop-color="#D77A5C"/>
</linearGradient>
<linearGradient id="paint3_linear_296_35" x1="11.0509" y1="22.9112" x2="12.2081" y2="22.8331" gradientUnits="userSpaceOnUse">
<stop stop-color="#D77A5C"/>
<stop offset="1" stop-color="#E9B764"/>
</linearGradient>
<radialGradient id="paint4_radial_296_35" cx="0" cy="0" r="1" gradientUnits="userSpaceOnUse" gradientTransform="translate(21.6228 20.7916) scale(16.8403 39.3638)">
<stop stop-color="#E9B764"/>
<stop offset="1" stop-color="#D77A5C"/>
</radialGradient>
<radialGradient id="paint5_radial_296_35" cx="0" cy="0" r="1" gradientUnits="userSpaceOnUse" gradientTransform="translate(21.4665 11.2602) rotate(5.19443) scale(12.7828)">
<stop stop-color="#7F3D06"/>
<stop offset="1" stop-color="#331809"/>
</radialGradient>
<radialGradient id="paint6_radial_296_35" cx="0" cy="0" r="1" gradientUnits="userSpaceOnUse" gradientTransform="translate(21.7352 25.294) scale(2.04525 1.61388)">
<stop stop-color="#E9B764"/>
<stop offset="1" stop-color="#D77A5C"/>
</radialGradient>
<linearGradient id="paint7_linear_296_35" x1="15.457" y1="22.0772" x2="18.5837" y2="22.0772" gradientUnits="userSpaceOnUse">
<stop stop-color="#C69C6D"/>
<stop offset="1" stop-color="#754C24"/>
</linearGradient>
<radialGradient id="paint8_radial_296_35" cx="0" cy="0" r="1" gradientUnits="userSpaceOnUse" gradientTransform="translate(17.0188 22.0755) scale(0.787309)">
<stop stop-color="#1C1911"/>
<stop offset="0.999" stop-color="#171714"/>
</radialGradient>
<linearGradient id="paint9_linear_296_35" x1="24.8838" y1="22.0772" x2="28.0104" y2="22.0772" gradientUnits="userSpaceOnUse">
<stop stop-color="#C69C6D"/>
<stop offset="1" stop-color="#754C24"/>
</linearGradient>
<radialGradient id="paint10_radial_296_35" cx="0" cy="0" r="1" gradientUnits="userSpaceOnUse" gradientTransform="translate(26.4465 22.0755) scale(0.787311 0.787309)">
<stop stop-color="#1C1911"/>
<stop offset="0.999" stop-color="#171714"/>
</radialGradient>
<linearGradient id="paint11_linear_296_35" x1="23.9771" y1="18.9294" x2="28.2844" y2="18.9294" gradientUnits="userSpaceOnUse">
<stop stop-color="#7F3D06"/>
<stop offset="1" stop-color="#331809"/>
</linearGradient>
<linearGradient id="paint12_linear_296_35" x1="19.133" y1="19.2694" x2="15.0824" y2="19.2694" gradientUnits="userSpaceOnUse">
<stop stop-color="#7F3D06"/>
<stop offset="1" stop-color="#331809"/>
</linearGradient>
<radialGradient id="paint13_radial_296_35" cx="0" cy="0" r="1" gradientUnits="userSpaceOnUse" gradientTransform="translate(21.8689 29.1384) scale(3.6476 1.93493)">
<stop stop-color="#E9B764"/>
<stop offset="1" stop-color="#D77A5C"/>
</radialGradient>
<radialGradient id="paint14_radial_296_35" cx="0" cy="0" r="1" gradientUnits="userSpaceOnUse" gradientTransform="translate(21.8979 27.8668) scale(2.30757 2.59841)">
<stop stop-color="#1C1911"/>
<stop offset="0.999" stop-color="#171714"/>
</radialGradient>
<radialGradient id="paint15_radial_296_35" cx="0" cy="0" r="1" gradientUnits="userSpaceOnUse" gradientTransform="translate(21.8592 27.6762) scale(4.95559 9.62302)">
<stop stop-color="#7F3D06"/>
<stop offset="1" stop-color="#331809"/>
</radialGradient>
</defs>
</svg>
