<svg width="164" height="111" viewBox="0 0 164 111" fill="none" xmlns="http://www.w3.org/2000/svg">
<rect x="0.5" y="0.5" width="163" height="110" rx="7.78" fill="#DFE9FF" stroke="#001464"/>
<path d="M14.6606 13.7578V23H12.7627V13.7578H14.6606ZM17.5044 13.7578V15.2495H9.96338V13.7578H17.5044ZM20.0181 22.2256L21.8398 16.1318H23.8013L21.04 24.0347C20.9808 24.2082 20.9004 24.3944 20.7988 24.5933C20.7015 24.7922 20.5682 24.9805 20.3989 25.1582C20.2339 25.3402 20.0244 25.4883 19.7705 25.6025C19.5208 25.7168 19.214 25.7739 18.8501 25.7739C18.6766 25.7739 18.5348 25.7633 18.4248 25.7422C18.3148 25.721 18.1836 25.6914 18.0312 25.6533V24.314C18.0778 24.314 18.1265 24.314 18.1772 24.314C18.228 24.3182 18.2767 24.3203 18.3232 24.3203C18.5645 24.3203 18.7612 24.2928 18.9136 24.2378C19.0659 24.1828 19.1886 24.0981 19.2817 23.9839C19.3748 23.8739 19.4489 23.73 19.5039 23.5522L20.0181 22.2256ZM19.2563 16.1318L20.748 21.1084L21.0083 23.0444L19.7642 23.1777L17.2949 16.1318H19.2563ZM26.3594 17.4521V25.6406H24.5312V16.1318H26.2261L26.3594 17.4521ZM30.7075 19.4897V19.623C30.7075 20.1224 30.6483 20.5858 30.5298 21.0132C30.4155 21.4406 30.2463 21.813 30.022 22.1304C29.7977 22.4435 29.5184 22.689 29.1841 22.8667C28.854 23.0402 28.4731 23.127 28.0415 23.127C27.6226 23.127 27.2586 23.0423 26.9497 22.873C26.6408 22.7038 26.3805 22.4668 26.1689 22.1621C25.9616 21.8532 25.7944 21.4956 25.6675 21.0894C25.5405 20.6831 25.4432 20.2472 25.3755 19.7817V19.4326C25.4432 18.9333 25.5405 18.4762 25.6675 18.0615C25.7944 17.6426 25.9616 17.2808 26.1689 16.9761C26.3805 16.6672 26.6387 16.4281 26.9434 16.2588C27.2523 16.0895 27.6141 16.0049 28.0288 16.0049C28.4647 16.0049 28.8477 16.0874 29.1777 16.2524C29.512 16.4175 29.7913 16.6545 30.0156 16.9634C30.2441 17.2723 30.4155 17.6405 30.5298 18.0679C30.6483 18.4953 30.7075 18.9692 30.7075 19.4897ZM28.873 19.623V19.4897C28.873 19.1978 28.8477 18.929 28.7969 18.6836C28.7503 18.4339 28.6742 18.216 28.5684 18.0298C28.4668 17.8436 28.3314 17.6997 28.1621 17.5981C27.9971 17.4924 27.7961 17.4395 27.5591 17.4395C27.3094 17.4395 27.0957 17.4797 26.918 17.5601C26.7445 17.6405 26.6027 17.7568 26.4927 17.9092C26.3826 18.0615 26.3001 18.2435 26.2451 18.4551C26.1901 18.6667 26.1562 18.9058 26.1436 19.1724V20.0547C26.1647 20.3678 26.224 20.6493 26.3213 20.8989C26.4186 21.1444 26.5688 21.339 26.772 21.4829C26.9751 21.6268 27.2417 21.6987 27.5718 21.6987C27.813 21.6987 28.0161 21.6458 28.1812 21.54C28.3462 21.43 28.4795 21.2798 28.5811 21.0894C28.6868 20.8989 28.7609 20.6789 28.8032 20.4292C28.8498 20.1795 28.873 19.9108 28.873 19.623ZM35.0049 23.127C34.4717 23.127 33.9935 23.0423 33.5703 22.873C33.1471 22.6995 32.7874 22.4604 32.4912 22.1558C32.1992 21.8511 31.9749 21.4977 31.8184 21.0957C31.6618 20.6895 31.5835 20.2578 31.5835 19.8008V19.5469C31.5835 19.0264 31.6576 18.5503 31.8057 18.1187C31.9538 17.687 32.1654 17.3125 32.4404 16.9951C32.7197 16.6777 33.0583 16.4344 33.4561 16.2651C33.8538 16.0916 34.3024 16.0049 34.8018 16.0049C35.2884 16.0049 35.7201 16.0853 36.0967 16.2461C36.4733 16.4069 36.7886 16.6354 37.0425 16.9316C37.3006 17.2279 37.4953 17.5833 37.6265 17.998C37.7576 18.4085 37.8232 18.8656 37.8232 19.3691V20.1309H32.3643V18.9121H36.0269V18.7725C36.0269 18.5186 35.9803 18.2922 35.8872 18.0933C35.7983 17.8901 35.6629 17.7293 35.481 17.6108C35.299 17.4924 35.0662 17.4331 34.7827 17.4331C34.5415 17.4331 34.3341 17.486 34.1606 17.5918C33.9871 17.6976 33.8454 17.8457 33.7354 18.0361C33.6296 18.2266 33.5492 18.4508 33.4941 18.709C33.4434 18.9629 33.418 19.2422 33.418 19.5469V19.8008C33.418 20.0758 33.4561 20.3298 33.5322 20.5625C33.6126 20.7952 33.7248 20.9963 33.8687 21.1655C34.0168 21.3348 34.1945 21.466 34.4019 21.5591C34.6134 21.6522 34.8525 21.6987 35.1191 21.6987C35.4492 21.6987 35.756 21.6353 36.0396 21.5083C36.3273 21.3771 36.5749 21.1803 36.7822 20.918L37.6709 21.8828C37.527 22.0902 37.3302 22.2891 37.0806 22.4795C36.8351 22.6699 36.5389 22.8265 36.1919 22.9492C35.8449 23.0677 35.4492 23.127 35.0049 23.127ZM41.8096 19.6357V19.5024C41.8096 18.9989 41.8815 18.5355 42.0254 18.1123C42.1693 17.6849 42.3787 17.3146 42.6538 17.0015C42.9289 16.6883 43.2674 16.445 43.6694 16.2715C44.0715 16.0938 44.5327 16.0049 45.0532 16.0049C45.5737 16.0049 46.0371 16.0938 46.4434 16.2715C46.8496 16.445 47.1903 16.6883 47.4653 17.0015C47.7446 17.3146 47.9562 17.6849 48.1001 18.1123C48.244 18.5355 48.3159 18.9989 48.3159 19.5024V19.6357C48.3159 20.1351 48.244 20.5985 48.1001 21.0259C47.9562 21.4491 47.7446 21.8193 47.4653 22.1367C47.1903 22.4499 46.8517 22.6932 46.4497 22.8667C46.0477 23.0402 45.5864 23.127 45.0659 23.127C44.5454 23.127 44.082 23.0402 43.6758 22.8667C43.2738 22.6932 42.9331 22.4499 42.6538 22.1367C42.3787 21.8193 42.1693 21.4491 42.0254 21.0259C41.8815 20.5985 41.8096 20.1351 41.8096 19.6357ZM43.6377 19.5024V19.6357C43.6377 19.9235 43.6631 20.1922 43.7139 20.4419C43.7646 20.6916 43.8451 20.9116 43.9551 21.1021C44.0693 21.2882 44.2174 21.4342 44.3994 21.54C44.5814 21.6458 44.8035 21.6987 45.0659 21.6987C45.3198 21.6987 45.5378 21.6458 45.7197 21.54C45.9017 21.4342 46.0477 21.2882 46.1577 21.1021C46.2677 20.9116 46.3481 20.6916 46.3989 20.4419C46.4539 20.1922 46.4814 19.9235 46.4814 19.6357V19.5024C46.4814 19.2231 46.4539 18.9608 46.3989 18.7153C46.3481 18.4657 46.2656 18.2456 46.1514 18.0552C46.0413 17.8605 45.8953 17.7082 45.7134 17.5981C45.5314 17.4881 45.3114 17.4331 45.0532 17.4331C44.7951 17.4331 44.575 17.4881 44.3931 17.5981C44.2153 17.7082 44.0693 17.8605 43.9551 18.0552C43.8451 18.2456 43.7646 18.4657 43.7139 18.7153C43.6631 18.9608 43.6377 19.2231 43.6377 19.5024ZM51.769 23H49.9282V15.5225C49.9282 15.002 50.0298 14.564 50.2329 14.2085C50.4403 13.8488 50.7301 13.578 51.1025 13.396C51.4792 13.2098 51.9256 13.1167 52.4419 13.1167C52.6112 13.1167 52.7741 13.1294 52.9307 13.1548C53.0872 13.1759 53.2396 13.2035 53.3877 13.2373L53.3687 14.6147C53.2882 14.5936 53.2036 14.5788 53.1147 14.5703C53.0259 14.5618 52.9222 14.5576 52.8037 14.5576C52.5837 14.5576 52.3953 14.5957 52.2388 14.6719C52.0864 14.7438 51.9701 14.8517 51.8896 14.9956C51.8092 15.1395 51.769 15.3151 51.769 15.5225V23ZM53.1401 16.1318V17.4268H48.9062V16.1318H53.1401ZM57.3359 13.25H59.1641V21.4258L58.98 23H57.3359V13.25ZM63.5122 19.4961V19.6294C63.5122 20.1414 63.4572 20.6112 63.3472 21.0386C63.2414 21.466 63.0763 21.8363 62.8521 22.1494C62.6278 22.4583 62.3485 22.6995 62.0142 22.873C61.6841 23.0423 61.2948 23.127 60.8462 23.127C60.4272 23.127 60.0633 23.0423 59.7544 22.873C59.4497 22.7038 59.1937 22.4647 58.9863 22.1558C58.779 21.8468 58.6118 21.485 58.4849 21.0703C58.3579 20.6556 58.2627 20.2028 58.1992 19.7119V19.4199C58.2627 18.929 58.3579 18.4762 58.4849 18.0615C58.6118 17.6468 58.779 17.285 58.9863 16.9761C59.1937 16.6672 59.4497 16.4281 59.7544 16.2588C60.0591 16.0895 60.4188 16.0049 60.8335 16.0049C61.2863 16.0049 61.6799 16.0916 62.0142 16.2651C62.3527 16.4344 62.632 16.6756 62.8521 16.9888C63.0763 17.2977 63.2414 17.6659 63.3472 18.0933C63.4572 18.5164 63.5122 18.984 63.5122 19.4961ZM61.6841 19.6294V19.4961C61.6841 19.2168 61.6629 18.9544 61.6206 18.709C61.5825 18.4593 61.5148 18.2414 61.4175 18.0552C61.3201 17.8647 61.1868 17.7145 61.0176 17.6045C60.8525 17.4945 60.6388 17.4395 60.3765 17.4395C60.1268 17.4395 59.9152 17.4818 59.7417 17.5664C59.5682 17.651 59.4243 17.7695 59.3101 17.9219C59.2 18.0742 59.1175 18.2562 59.0625 18.4678C59.0075 18.6751 58.9736 18.9036 58.9609 19.1533V19.9849C58.9736 20.3192 59.0286 20.6154 59.126 20.8735C59.2275 21.1274 59.3799 21.3285 59.583 21.4766C59.7904 21.6204 60.0591 21.6924 60.3892 21.6924C60.6473 21.6924 60.861 21.6416 61.0303 21.54C61.1995 21.4385 61.3307 21.2946 61.4238 21.1084C61.5212 20.9222 61.5889 20.7043 61.627 20.4546C61.665 20.2007 61.6841 19.9256 61.6841 19.6294ZM68.7109 21.356V16.1318H70.5391V23H68.8188L68.7109 21.356ZM68.9141 19.9468L69.4536 19.9341C69.4536 20.3911 69.4007 20.8164 69.2949 21.21C69.1891 21.5993 69.0304 21.9378 68.8188 22.2256C68.6073 22.5091 68.3407 22.7313 68.019 22.8921C67.6974 23.0487 67.3187 23.127 66.8828 23.127C66.5485 23.127 66.2396 23.0804 65.9561 22.9873C65.6768 22.89 65.4355 22.7397 65.2324 22.5366C65.0335 22.3293 64.877 22.0648 64.7627 21.7432C64.6527 21.4173 64.5977 21.0259 64.5977 20.5688V16.1318H66.4258V20.5815C66.4258 20.7847 66.4491 20.9561 66.4956 21.0957C66.5464 21.2354 66.6162 21.3496 66.7051 21.4385C66.7939 21.5273 66.8976 21.5908 67.0161 21.6289C67.1388 21.667 67.2743 21.686 67.4224 21.686C67.799 21.686 68.0952 21.6099 68.311 21.4575C68.5311 21.3052 68.6855 21.0978 68.7744 20.8354C68.8675 20.5688 68.9141 20.2726 68.9141 19.9468ZM73.9731 22.2256L75.7949 16.1318H77.7563L74.9951 24.0347C74.9359 24.2082 74.8555 24.3944 74.7539 24.5933C74.6566 24.7922 74.5233 24.9805 74.354 25.1582C74.189 25.3402 73.9795 25.4883 73.7256 25.6025C73.4759 25.7168 73.1691 25.7739 72.8052 25.7739C72.6317 25.7739 72.4899 25.7633 72.3799 25.7422C72.2699 25.721 72.1387 25.6914 71.9863 25.6533V24.314C72.0329 24.314 72.0815 24.314 72.1323 24.314C72.1831 24.3182 72.2318 24.3203 72.2783 24.3203C72.5195 24.3203 72.7163 24.2928 72.8687 24.2378C73.021 24.1828 73.1437 24.0981 73.2368 23.9839C73.3299 23.8739 73.404 23.73 73.459 23.5522L73.9731 22.2256ZM73.2114 16.1318L74.7031 21.1084L74.9634 23.0444L73.7192 23.1777L71.25 16.1318H73.2114Z" fill="#001464"/>
<line x1="1" y1="34.6359" x2="164" y2="34.6359" stroke="#001464" stroke-width="0.728171"/>
<rect x="10.5174" y="43.5174" width="143.83" height="23.7992" rx="2.49581" fill="white" stroke="#263F5D" stroke-width="1.03475"/>
<path d="M20.8652 56.0181H18.8564L18.8457 54.9116H20.5322C20.8294 54.9116 21.0729 54.874 21.2627 54.7988C21.4525 54.7201 21.5939 54.6073 21.687 54.4604C21.7837 54.3101 21.832 54.1274 21.832 53.9126C21.832 53.6691 21.7855 53.4722 21.6924 53.3218C21.6029 53.1714 21.4614 53.0622 21.2681 52.9941C21.0783 52.9261 20.833 52.8921 20.5322 52.8921H19.415V59.4502H17.8037V51.6299H20.5322C20.987 51.6299 21.3934 51.6729 21.7515 51.7588C22.1131 51.8447 22.4193 51.9754 22.6699 52.1509C22.9206 52.3263 23.1121 52.5483 23.2446 52.8169C23.3771 53.0819 23.4434 53.397 23.4434 53.7622C23.4434 54.0845 23.37 54.3817 23.2231 54.6538C23.0799 54.9259 22.8525 55.1479 22.541 55.3198C22.2331 55.4917 21.8302 55.5866 21.3325 55.6045L20.8652 56.0181ZM20.7954 59.4502H18.416L19.0444 58.1934H20.7954C21.0783 58.1934 21.3092 58.1486 21.4883 58.0591C21.6673 57.966 21.7998 57.8407 21.8857 57.6831C21.9717 57.5256 22.0146 57.3447 22.0146 57.1406C22.0146 56.9115 21.9753 56.7127 21.8965 56.5444C21.8213 56.3761 21.6995 56.2472 21.5312 56.1577C21.363 56.0646 21.141 56.0181 20.8652 56.0181H19.313L19.3237 54.9116H21.2573L21.6279 55.3467C22.1042 55.3395 22.4873 55.4237 22.7773 55.5991C23.071 55.771 23.284 55.9948 23.4165 56.2705C23.5526 56.5462 23.6206 56.8416 23.6206 57.1567C23.6206 57.658 23.5114 58.0806 23.293 58.4243C23.0745 58.7645 22.7541 59.0205 22.3315 59.1924C21.9126 59.3643 21.4006 59.4502 20.7954 59.4502ZM28.1699 58.0591V53.6387H29.7168V59.4502H28.2612L28.1699 58.0591ZM28.3418 56.8667L28.7983 56.856C28.7983 57.2427 28.7536 57.6025 28.6641 57.9355C28.5745 58.265 28.4403 58.5514 28.2612 58.7949C28.0822 59.0348 27.8566 59.2228 27.5845 59.3589C27.3123 59.4914 26.9919 59.5576 26.623 59.5576C26.3402 59.5576 26.0788 59.5182 25.8389 59.4395C25.6025 59.3571 25.3984 59.23 25.2266 59.0581C25.0583 58.8826 24.9258 58.6589 24.8291 58.3867C24.736 58.111 24.6895 57.7798 24.6895 57.3931V53.6387H26.2363V57.4038C26.2363 57.5757 26.256 57.7207 26.2954 57.8389C26.3384 57.957 26.3975 58.0537 26.4727 58.1289C26.5479 58.2041 26.6356 58.2578 26.7358 58.29C26.8397 58.3223 26.9543 58.3384 27.0796 58.3384C27.3983 58.3384 27.6489 58.2739 27.8315 58.145C28.0177 58.0161 28.1484 57.8407 28.2236 57.6187C28.3024 57.3931 28.3418 57.1424 28.3418 56.8667ZM34.3306 58.1826V51.2002H35.8882V59.4502H34.4863L34.3306 58.1826ZM30.6567 56.6143V56.5015C30.6567 56.0575 30.7069 55.6546 30.8071 55.293C30.9074 54.9277 31.0542 54.6144 31.2476 54.353C31.4409 54.0916 31.679 53.8893 31.9619 53.7461C32.2448 53.6029 32.5671 53.5312 32.9287 53.5312C33.2689 53.5312 33.5661 53.6029 33.8203 53.7461C34.0781 53.8893 34.2965 54.0934 34.4756 54.3584C34.6582 54.6198 34.805 54.9295 34.916 55.2876C35.027 55.6421 35.1076 56.0306 35.1577 56.4531V56.7002C35.1076 57.1048 35.027 57.4808 34.916 57.8281C34.805 58.1755 34.6582 58.4798 34.4756 58.7412C34.2965 58.999 34.0781 59.1995 33.8203 59.3428C33.5625 59.486 33.2617 59.5576 32.918 59.5576C32.5563 59.5576 32.234 59.4842 31.9512 59.3374C31.6719 59.1906 31.4355 58.9847 31.2422 58.7197C31.0524 58.4548 30.9074 58.1432 30.8071 57.7852C30.7069 57.4271 30.6567 57.0368 30.6567 56.6143ZM32.2036 56.5015V56.6143C32.2036 56.8542 32.2215 57.078 32.2573 57.2856C32.2967 57.4933 32.3594 57.6777 32.4453 57.8389C32.5348 57.9964 32.6494 58.12 32.7891 58.2095C32.9323 58.2954 33.106 58.3384 33.3101 58.3384C33.575 58.3384 33.7935 58.2793 33.9653 58.1611C34.1372 58.0394 34.2679 57.8729 34.3574 57.6616C34.4505 57.4504 34.5042 57.2069 34.5186 56.9312V56.2275C34.5078 56.002 34.4756 55.7996 34.4219 55.6206C34.3717 55.438 34.2965 55.2822 34.1963 55.1533C34.0996 55.0244 33.9779 54.9242 33.8311 54.8525C33.6878 54.7809 33.5177 54.7451 33.3208 54.7451C33.1203 54.7451 32.9484 54.7917 32.8052 54.8848C32.6619 54.9743 32.5456 55.0978 32.4561 55.2554C32.3701 55.4129 32.3057 55.5991 32.2627 55.814C32.2233 56.0252 32.2036 56.2544 32.2036 56.5015ZM40.7759 53.6387H42.1777V59.2568C42.1777 59.7868 42.0596 60.2362 41.8232 60.605C41.5905 60.9774 41.2646 61.2585 40.8457 61.4482C40.4268 61.6416 39.9398 61.7383 39.3848 61.7383C39.1413 61.7383 38.8835 61.7061 38.6113 61.6416C38.3428 61.5771 38.085 61.4769 37.8379 61.3408C37.5944 61.2048 37.3903 61.0329 37.2256 60.8252L37.9077 59.9121C38.0868 60.1198 38.2944 60.2809 38.5308 60.3955C38.7671 60.5137 39.0285 60.5728 39.3149 60.5728C39.5942 60.5728 39.8306 60.5208 40.0239 60.417C40.2173 60.3167 40.3659 60.1681 40.4697 59.9712C40.5736 59.7778 40.6255 59.5433 40.6255 59.2676V54.9814L40.7759 53.6387ZM36.8657 56.6143V56.5015C36.8657 56.0575 36.9194 55.6546 37.0269 55.293C37.1379 54.9277 37.2936 54.6144 37.4941 54.353C37.6982 54.0916 37.9453 53.8893 38.2354 53.7461C38.5254 53.6029 38.853 53.5312 39.2183 53.5312C39.605 53.5312 39.929 53.6029 40.1904 53.7461C40.4518 53.8893 40.6667 54.0934 40.835 54.3584C41.0033 54.6198 41.134 54.9295 41.2271 55.2876C41.3237 55.6421 41.3989 56.0306 41.4526 56.4531V56.7002C41.3989 57.1048 41.3184 57.4808 41.2109 57.8281C41.1035 58.1755 40.9621 58.4798 40.7866 58.7412C40.6112 58.999 40.3927 59.1995 40.1313 59.3428C39.8735 59.486 39.5656 59.5576 39.2075 59.5576C38.8494 59.5576 38.5254 59.4842 38.2354 59.3374C37.9489 59.1906 37.7036 58.9847 37.4995 58.7197C37.2954 58.4548 37.1379 58.1432 37.0269 57.7852C36.9194 57.4271 36.8657 57.0368 36.8657 56.6143ZM38.4126 56.5015V56.6143C38.4126 56.8542 38.4359 57.078 38.4824 57.2856C38.529 57.4933 38.6006 57.6777 38.6973 57.8389C38.7975 57.9964 38.9211 58.12 39.0679 58.2095C39.2183 58.2954 39.3955 58.3384 39.5996 58.3384C39.8825 58.3384 40.1134 58.2793 40.2925 58.1611C40.4715 58.0394 40.6058 57.8729 40.6953 57.6616C40.7848 57.4504 40.8368 57.2069 40.8511 56.9312V56.2275C40.8439 56.002 40.8135 55.7996 40.7598 55.6206C40.7061 55.438 40.6309 55.2822 40.5342 55.1533C40.4375 55.0244 40.3122 54.9242 40.1582 54.8525C40.0042 54.7809 39.8216 54.7451 39.6104 54.7451C39.4062 54.7451 39.229 54.7917 39.0786 54.8848C38.9318 54.9743 38.8083 55.0978 38.708 55.2554C38.6113 55.4129 38.5379 55.5991 38.4878 55.814C38.4377 56.0252 38.4126 56.2544 38.4126 56.5015ZM46.0557 59.5576C45.6045 59.5576 45.1999 59.486 44.8418 59.3428C44.4837 59.196 44.1794 58.9937 43.9287 58.7358C43.6816 58.478 43.4919 58.179 43.3594 57.8389C43.2269 57.4951 43.1606 57.1299 43.1606 56.7432V56.5283C43.1606 56.0879 43.2233 55.6851 43.3486 55.3198C43.474 54.9546 43.653 54.6377 43.8857 54.3691C44.1221 54.1006 44.4085 53.8947 44.7451 53.7515C45.0817 53.6047 45.4613 53.5312 45.8838 53.5312C46.2956 53.5312 46.6608 53.5993 46.9795 53.7354C47.2982 53.8714 47.5649 54.0648 47.7798 54.3154C47.9982 54.5661 48.1629 54.8669 48.2739 55.2178C48.3849 55.5651 48.4404 55.9518 48.4404 56.3779V57.0225H43.8213V55.9912H46.9204V55.873C46.9204 55.6582 46.881 55.4666 46.8022 55.2983C46.7271 55.1265 46.6125 54.9904 46.4585 54.8901C46.3045 54.7899 46.1076 54.7397 45.8677 54.7397C45.6636 54.7397 45.4881 54.7845 45.3413 54.874C45.1945 54.9635 45.0745 55.0889 44.9814 55.25C44.8919 55.4111 44.8239 55.6009 44.7773 55.8193C44.7344 56.0342 44.7129 56.2705 44.7129 56.5283V56.7432C44.7129 56.9759 44.7451 57.1908 44.8096 57.3877C44.8776 57.5846 44.9725 57.7547 45.0942 57.8979C45.2196 58.0412 45.37 58.1522 45.5454 58.231C45.7244 58.3097 45.9268 58.3491 46.1523 58.3491C46.4316 58.3491 46.6912 58.2954 46.9312 58.188C47.1746 58.077 47.3841 57.9105 47.5596 57.6885L48.3115 58.5049C48.1898 58.6803 48.0233 58.8486 47.812 59.0098C47.6043 59.1709 47.3537 59.3034 47.0601 59.4072C46.7664 59.5075 46.4316 59.5576 46.0557 59.5576ZM52.168 53.6387V54.7344H48.7842V53.6387H52.168ZM49.6221 52.2046H51.1689V57.6992C51.1689 57.8675 51.1904 57.9964 51.2334 58.0859C51.2799 58.1755 51.348 58.2381 51.4375 58.2739C51.527 58.3062 51.6398 58.3223 51.7759 58.3223C51.8726 58.3223 51.9585 58.3187 52.0337 58.3115C52.1125 58.3008 52.1787 58.29 52.2324 58.2793L52.2378 59.418C52.1053 59.4609 51.9621 59.495 51.8081 59.52C51.6541 59.5451 51.484 59.5576 51.2979 59.5576C50.9577 59.5576 50.6605 59.5021 50.4062 59.3911C50.1556 59.2765 49.9622 59.0939 49.8262 58.8433C49.6901 58.5926 49.6221 58.2632 49.6221 57.855V52.2046ZM62.083 55.3628V58.4619C61.9613 58.6087 61.7733 58.7681 61.519 58.9399C61.2648 59.1082 60.9372 59.2533 60.5361 59.375C60.1351 59.4967 59.6499 59.5576 59.0806 59.5576C58.5757 59.5576 58.1156 59.4753 57.7002 59.3105C57.2848 59.1423 56.9268 58.897 56.626 58.5747C56.3288 58.2524 56.0996 57.8586 55.9385 57.3931C55.7773 56.924 55.6968 56.3887 55.6968 55.7871V55.2983C55.6968 54.6968 55.7738 54.1615 55.9277 53.6924C56.0853 53.2233 56.3091 52.8276 56.5991 52.5054C56.8892 52.1831 57.2347 51.9378 57.6357 51.7695C58.0368 51.6012 58.4826 51.5171 58.9731 51.5171C59.6535 51.5171 60.2121 51.6281 60.6489 51.8501C61.0858 52.0685 61.4188 52.3729 61.6479 52.7632C61.8807 53.1499 62.0239 53.5939 62.0776 54.0952H60.5146C60.4753 53.8302 60.4001 53.5993 60.2891 53.4023C60.1781 53.2054 60.0187 53.0514 59.811 52.9404C59.6069 52.8294 59.342 52.7739 59.0161 52.7739C58.7476 52.7739 58.5076 52.8294 58.2964 52.9404C58.0887 53.0479 57.9132 53.2072 57.77 53.4185C57.6268 53.6297 57.5176 53.8911 57.4424 54.2026C57.3672 54.5142 57.3296 54.8758 57.3296 55.2876V55.7871C57.3296 56.1953 57.369 56.557 57.4478 56.8721C57.5265 57.1836 57.6429 57.4468 57.7969 57.6616C57.9544 57.8729 58.1478 58.0322 58.377 58.1396C58.6061 58.2471 58.8729 58.3008 59.1772 58.3008C59.4315 58.3008 59.6427 58.2793 59.811 58.2363C59.9829 58.1934 60.1208 58.1414 60.2246 58.0806C60.332 58.0161 60.4144 57.9552 60.4717 57.8979V56.5122H59V55.3628H62.083ZM63.0391 56.6035V56.4907C63.0391 56.0646 63.0999 55.6725 63.2217 55.3145C63.3434 54.9528 63.5207 54.6395 63.7534 54.3745C63.9862 54.1095 64.2726 53.9036 64.6128 53.7568C64.953 53.6064 65.3433 53.5312 65.7837 53.5312C66.2241 53.5312 66.6162 53.6064 66.96 53.7568C67.3037 53.9036 67.592 54.1095 67.8247 54.3745C68.061 54.6395 68.2401 54.9528 68.3618 55.3145C68.4836 55.6725 68.5444 56.0646 68.5444 56.4907V56.6035C68.5444 57.026 68.4836 57.4181 68.3618 57.7798C68.2401 58.1379 68.061 58.4512 67.8247 58.7197C67.592 58.9847 67.3055 59.1906 66.9653 59.3374C66.6252 59.4842 66.2349 59.5576 65.7944 59.5576C65.354 59.5576 64.9619 59.4842 64.6182 59.3374C64.278 59.1906 63.9897 58.9847 63.7534 58.7197C63.5207 58.4512 63.3434 58.1379 63.2217 57.7798C63.0999 57.4181 63.0391 57.026 63.0391 56.6035ZM64.5859 56.4907V56.6035C64.5859 56.847 64.6074 57.0744 64.6504 57.2856C64.6934 57.4969 64.7614 57.6831 64.8545 57.8442C64.9512 58.0018 65.0765 58.1253 65.2305 58.2148C65.3844 58.3044 65.5724 58.3491 65.7944 58.3491C66.0093 58.3491 66.1937 58.3044 66.3477 58.2148C66.5016 58.1253 66.6252 58.0018 66.7183 57.8442C66.8114 57.6831 66.8794 57.4969 66.9224 57.2856C66.9689 57.0744 66.9922 56.847 66.9922 56.6035V56.4907C66.9922 56.2544 66.9689 56.0324 66.9224 55.8247C66.8794 55.6134 66.8096 55.4272 66.7129 55.2661C66.6198 55.1014 66.4963 54.9725 66.3423 54.8794C66.1883 54.7863 66.0021 54.7397 65.7837 54.7397C65.5653 54.7397 65.3791 54.7863 65.2251 54.8794C65.0747 54.9725 64.9512 55.1014 64.8545 55.2661C64.7614 55.4272 64.6934 55.6134 64.6504 55.8247C64.6074 56.0324 64.5859 56.2544 64.5859 56.4907ZM72.6318 58.1396V55.5508C72.6318 55.3646 72.6014 55.2052 72.5405 55.0728C72.4797 54.9367 72.3848 54.8311 72.2559 54.7559C72.1305 54.6807 71.9676 54.6431 71.7671 54.6431C71.5952 54.6431 71.4466 54.6735 71.3213 54.7344C71.196 54.7917 71.0993 54.8758 71.0312 54.9868C70.9632 55.0942 70.9292 55.2214 70.9292 55.3682H69.3823C69.3823 55.1211 69.4396 54.8866 69.5542 54.6646C69.6688 54.4425 69.8353 54.2474 70.0537 54.0791C70.2721 53.9072 70.5317 53.7729 70.8325 53.6763C71.1369 53.5796 71.4771 53.5312 71.853 53.5312C72.3042 53.5312 72.7052 53.6064 73.0562 53.7568C73.4071 53.9072 73.6828 54.1328 73.8833 54.4336C74.0874 54.7344 74.1895 55.1104 74.1895 55.5615V58.0483C74.1895 58.367 74.2091 58.6284 74.2485 58.8325C74.2879 59.033 74.3452 59.2085 74.4204 59.3589V59.4502H72.8574C72.7822 59.2926 72.7249 59.0957 72.6855 58.8594C72.6497 58.6195 72.6318 58.3796 72.6318 58.1396ZM72.8359 55.9106L72.8467 56.7861H71.9819C71.7778 56.7861 71.6006 56.8094 71.4502 56.856C71.2998 56.9025 71.1763 56.9688 71.0796 57.0547C70.9829 57.137 70.9113 57.2337 70.8647 57.3447C70.8218 57.4557 70.8003 57.5775 70.8003 57.71C70.8003 57.8424 70.8307 57.9624 70.8916 58.0698C70.9525 58.1737 71.0402 58.256 71.1548 58.3169C71.2694 58.3742 71.4036 58.4028 71.5576 58.4028C71.7904 58.4028 71.9927 58.3563 72.1646 58.2632C72.3364 58.1701 72.4689 58.0555 72.562 57.9194C72.6587 57.7834 72.7088 57.6545 72.7124 57.5327L73.1206 58.188C73.0633 58.3348 72.9845 58.487 72.8843 58.6445C72.7876 58.8021 72.6641 58.9507 72.5137 59.0903C72.3633 59.2264 72.1825 59.3392 71.9712 59.4287C71.7599 59.5146 71.5093 59.5576 71.2192 59.5576C70.8504 59.5576 70.5156 59.4842 70.2148 59.3374C69.9176 59.187 69.6813 58.9811 69.5059 58.7197C69.334 58.4548 69.248 58.154 69.248 57.8174C69.248 57.513 69.3053 57.2427 69.4199 57.0063C69.5345 56.77 69.7028 56.5713 69.9248 56.4102C70.1504 56.2454 70.4315 56.1219 70.7681 56.0396C71.1047 55.9536 71.495 55.9106 71.939 55.9106H72.8359ZM77.0146 51.2002V59.4502H75.4624V51.2002H77.0146Z" fill="url(#paint0_linear_296_32)"/>
<rect x="10.5174" y="76.5174" width="143.83" height="23.7992" rx="2.49581" fill="white" stroke="#263F5D" stroke-width="1.03475"/>
<path d="M20.7256 83.3623V85.0005H19.9199V83.3623H20.7256ZM20.6289 92.1333V93.5674H19.8286V92.1333H20.6289ZM21.7031 90.436C21.7031 90.2212 21.6548 90.0278 21.5581 89.856C21.4614 89.6841 21.3021 89.5265 21.0801 89.3833C20.8581 89.2401 20.5609 89.1076 20.1885 88.9858C19.7373 88.8462 19.347 88.6761 19.0176 88.4756C18.6917 88.2751 18.4393 88.0262 18.2603 87.729C18.0848 87.4318 17.9971 87.0719 17.9971 86.6494C17.9971 86.209 18.092 85.8294 18.2817 85.5107C18.4715 85.1921 18.7401 84.9468 19.0874 84.7749C19.4347 84.603 19.8429 84.5171 20.312 84.5171C20.6772 84.5171 21.0031 84.5726 21.2896 84.6836C21.576 84.791 21.8177 84.9521 22.0146 85.167C22.2152 85.3818 22.3674 85.645 22.4712 85.9565C22.5786 86.2681 22.6323 86.6279 22.6323 87.0361H21.644C21.644 86.7962 21.6154 86.576 21.5581 86.3755C21.5008 86.175 21.4149 86.0013 21.3003 85.8545C21.1857 85.7041 21.0461 85.5895 20.8813 85.5107C20.7166 85.4284 20.5269 85.3872 20.312 85.3872C20.0112 85.3872 19.7624 85.4391 19.5654 85.543C19.3721 85.6468 19.2288 85.7936 19.1357 85.9834C19.0426 86.1696 18.9961 86.3862 18.9961 86.6333C18.9961 86.8625 19.0426 87.063 19.1357 87.2349C19.2288 87.4067 19.3864 87.5625 19.6084 87.7021C19.834 87.8382 20.1437 87.9725 20.5376 88.105C20.9995 88.2518 21.3916 88.4255 21.7139 88.626C22.0361 88.8229 22.2814 89.0664 22.4497 89.3564C22.618 89.6429 22.7021 89.9992 22.7021 90.4253C22.7021 90.8872 22.5983 91.2775 22.3906 91.5962C22.1829 91.9113 21.8911 92.1512 21.5151 92.3159C21.1392 92.4806 20.6987 92.563 20.1938 92.563C19.8895 92.563 19.5887 92.5218 19.2915 92.4395C18.9943 92.3571 18.7257 92.2228 18.4858 92.0366C18.2459 91.8468 18.0544 91.598 17.9111 91.29C17.7679 90.9785 17.6963 90.5972 17.6963 90.146H18.6953C18.6953 90.4504 18.7383 90.7028 18.8242 90.9033C18.9137 91.1003 19.0319 91.2578 19.1787 91.376C19.3255 91.4906 19.4867 91.5729 19.6621 91.623C19.8411 91.6696 20.0184 91.6929 20.1938 91.6929C20.5161 91.6929 20.7882 91.6427 21.0103 91.5425C21.2358 91.4386 21.4077 91.2918 21.5259 91.1021C21.644 90.9123 21.7031 90.6903 21.7031 90.436ZM25.1997 88.728L24.4048 88.5239L24.7969 84.6299H28.8091V85.5483H25.6401L25.4038 87.6753C25.547 87.5929 25.7279 87.516 25.9463 87.4443C26.1683 87.3727 26.4225 87.3369 26.709 87.3369C27.0706 87.3369 27.3947 87.3996 27.6812 87.5249C27.9676 87.6466 28.2111 87.8221 28.4116 88.0513C28.6157 88.2804 28.7715 88.5562 28.8789 88.8784C28.9863 89.2007 29.04 89.5605 29.04 89.958C29.04 90.334 28.9881 90.6795 28.8843 90.9946C28.784 91.3097 28.6318 91.5854 28.4277 91.8218C28.2236 92.0545 27.9658 92.2354 27.6543 92.3643C27.3464 92.4932 26.9829 92.5576 26.564 92.5576C26.2489 92.5576 25.9499 92.5146 25.667 92.4287C25.3877 92.3392 25.137 92.2049 24.915 92.0259C24.6966 91.8433 24.5176 91.6177 24.3779 91.3491C24.2419 91.077 24.1559 90.7583 24.1201 90.3931H25.0654C25.1084 90.6867 25.1943 90.9338 25.3232 91.1343C25.4521 91.3348 25.6204 91.487 25.8281 91.5908C26.0394 91.6911 26.2847 91.7412 26.564 91.7412C26.8003 91.7412 27.0098 91.7 27.1924 91.6177C27.375 91.5353 27.529 91.4172 27.6543 91.2632C27.7796 91.1092 27.8745 90.923 27.939 90.7046C28.007 90.4862 28.041 90.2409 28.041 89.9688C28.041 89.7217 28.007 89.4925 27.939 89.2812C27.8709 89.07 27.7689 88.8856 27.6328 88.728C27.5003 88.5705 27.3374 88.4487 27.144 88.3628C26.9507 88.2733 26.7287 88.2285 26.478 88.2285C26.145 88.2285 25.8926 88.2733 25.7207 88.3628C25.5524 88.4523 25.3787 88.5741 25.1997 88.728ZM35.0396 87.917V89.1094C35.0396 89.7503 34.9823 90.291 34.8677 90.7314C34.7531 91.1719 34.5884 91.5264 34.3735 91.7949C34.1587 92.0635 33.8991 92.2586 33.5947 92.3804C33.2939 92.4985 32.9538 92.5576 32.5742 92.5576C32.2734 92.5576 31.9959 92.52 31.7417 92.4448C31.4875 92.3696 31.2583 92.2497 31.0542 92.085C30.8537 91.9167 30.6818 91.6982 30.5386 91.4297C30.3953 91.1611 30.2861 90.8353 30.2109 90.4521C30.1357 90.069 30.0981 89.6214 30.0981 89.1094V87.917C30.0981 87.276 30.1554 86.7389 30.27 86.3057C30.3882 85.8724 30.5547 85.5251 30.7695 85.2637C30.9844 84.9987 31.2422 84.8089 31.543 84.6943C31.8473 84.5798 32.1875 84.5225 32.5635 84.5225C32.8678 84.5225 33.1471 84.5601 33.4014 84.6353C33.6592 84.7069 33.8883 84.8232 34.0889 84.9844C34.2894 85.1419 34.4595 85.3532 34.5991 85.6182C34.7424 85.8796 34.8516 86.2 34.9268 86.5796C35.002 86.9591 35.0396 87.4049 35.0396 87.917ZM34.0405 89.2705V87.7505C34.0405 87.3996 34.019 87.0916 33.9761 86.8267C33.9367 86.5581 33.8776 86.3289 33.7988 86.1392C33.7201 85.9494 33.6198 85.7954 33.498 85.6772C33.3799 85.5591 33.242 85.4731 33.0845 85.4194C32.9305 85.3621 32.7568 85.3335 32.5635 85.3335C32.3271 85.3335 32.1177 85.3783 31.9351 85.4678C31.7524 85.5537 31.5985 85.6916 31.4731 85.8813C31.3514 86.0711 31.2583 86.32 31.1938 86.6279C31.1294 86.9359 31.0972 87.3101 31.0972 87.7505V89.2705C31.0972 89.6214 31.1169 89.9312 31.1562 90.1997C31.1992 90.4683 31.2619 90.701 31.3442 90.8979C31.4266 91.0913 31.5269 91.2507 31.645 91.376C31.7632 91.5013 31.8993 91.5944 32.0532 91.6553C32.2108 91.7126 32.3844 91.7412 32.5742 91.7412C32.8177 91.7412 33.0308 91.6947 33.2134 91.6016C33.396 91.5085 33.5482 91.3634 33.6699 91.1665C33.7952 90.966 33.8883 90.71 33.9492 90.3984C34.0101 90.0833 34.0405 89.7074 34.0405 89.2705ZM41.2271 87.917V89.1094C41.2271 89.7503 41.1698 90.291 41.0552 90.7314C40.9406 91.1719 40.7759 91.5264 40.561 91.7949C40.3462 92.0635 40.0866 92.2586 39.7822 92.3804C39.4814 92.4985 39.1413 92.5576 38.7617 92.5576C38.4609 92.5576 38.1834 92.52 37.9292 92.4448C37.675 92.3696 37.4458 92.2497 37.2417 92.085C37.0412 91.9167 36.8693 91.6982 36.7261 91.4297C36.5828 91.1611 36.4736 90.8353 36.3984 90.4521C36.3232 90.069 36.2856 89.6214 36.2856 89.1094V87.917C36.2856 87.276 36.3429 86.7389 36.4575 86.3057C36.5757 85.8724 36.7422 85.5251 36.957 85.2637C37.1719 84.9987 37.4297 84.8089 37.7305 84.6943C38.0348 84.5798 38.375 84.5225 38.751 84.5225C39.0553 84.5225 39.3346 84.5601 39.5889 84.6353C39.8467 84.7069 40.0758 84.8232 40.2764 84.9844C40.4769 85.1419 40.647 85.3532 40.7866 85.6182C40.9299 85.8796 41.0391 86.2 41.1143 86.5796C41.1895 86.9591 41.2271 87.4049 41.2271 87.917ZM40.228 89.2705V87.7505C40.228 87.3996 40.2065 87.0916 40.1636 86.8267C40.1242 86.5581 40.0651 86.3289 39.9863 86.1392C39.9076 85.9494 39.8073 85.7954 39.6855 85.6772C39.5674 85.5591 39.4295 85.4731 39.272 85.4194C39.118 85.3621 38.9443 85.3335 38.751 85.3335C38.5146 85.3335 38.3052 85.3783 38.1226 85.4678C37.9399 85.5537 37.786 85.6916 37.6606 85.8813C37.5389 86.0711 37.4458 86.32 37.3813 86.6279C37.3169 86.9359 37.2847 87.3101 37.2847 87.7505V89.2705C37.2847 89.6214 37.3044 89.9312 37.3438 90.1997C37.3867 90.4683 37.4494 90.701 37.5317 90.8979C37.6141 91.0913 37.7144 91.2507 37.8325 91.376C37.9507 91.5013 38.0868 91.5944 38.2407 91.6553C38.3983 91.7126 38.5719 91.7412 38.7617 91.7412C39.0052 91.7412 39.2183 91.6947 39.4009 91.6016C39.5835 91.5085 39.7357 91.3634 39.8574 91.1665C39.9827 90.966 40.0758 90.71 40.1367 90.3984C40.1976 90.0833 40.228 89.7074 40.228 89.2705ZM43.5151 91.2686V92.0688C43.5151 92.3947 43.4328 92.7384 43.2681 93.1001C43.1034 93.4653 42.8724 93.7697 42.5752 94.0132L42.0112 93.6211C42.1258 93.4635 42.2225 93.3024 42.3013 93.1377C42.38 92.9766 42.4391 92.8083 42.4785 92.6328C42.5215 92.4609 42.543 92.2783 42.543 92.085V91.2686H43.5151ZM49.5845 87.917V89.1094C49.5845 89.7503 49.5272 90.291 49.4126 90.7314C49.298 91.1719 49.1333 91.5264 48.9185 91.7949C48.7036 92.0635 48.444 92.2586 48.1396 92.3804C47.8389 92.4985 47.4987 92.5576 47.1191 92.5576C46.8184 92.5576 46.5409 92.52 46.2866 92.4448C46.0324 92.3696 45.8032 92.2497 45.5991 92.085C45.3986 91.9167 45.2267 91.6982 45.0835 91.4297C44.9403 91.1611 44.8311 90.8353 44.7559 90.4521C44.6807 90.069 44.6431 89.6214 44.6431 89.1094V87.917C44.6431 87.276 44.7004 86.7389 44.8149 86.3057C44.9331 85.8724 45.0996 85.5251 45.3145 85.2637C45.5293 84.9987 45.7871 84.8089 46.0879 84.6943C46.3923 84.5798 46.7324 84.5225 47.1084 84.5225C47.4128 84.5225 47.6921 84.5601 47.9463 84.6353C48.2041 84.7069 48.4333 84.8232 48.6338 84.9844C48.8343 85.1419 49.0044 85.3532 49.144 85.6182C49.2873 85.8796 49.3965 86.2 49.4717 86.5796C49.5469 86.9591 49.5845 87.4049 49.5845 87.917ZM48.5854 89.2705V87.7505C48.5854 87.3996 48.564 87.0916 48.521 86.8267C48.4816 86.5581 48.4225 86.3289 48.3438 86.1392C48.265 85.9494 48.1647 85.7954 48.043 85.6772C47.9248 85.5591 47.7869 85.4731 47.6294 85.4194C47.4754 85.3621 47.3018 85.3335 47.1084 85.3335C46.8721 85.3335 46.6626 85.3783 46.48 85.4678C46.2974 85.5537 46.1434 85.6916 46.0181 85.8813C45.8963 86.0711 45.8032 86.32 45.7388 86.6279C45.6743 86.9359 45.6421 87.3101 45.6421 87.7505V89.2705C45.6421 89.6214 45.6618 89.9312 45.7012 90.1997C45.7441 90.4683 45.8068 90.701 45.8892 90.8979C45.9715 91.0913 46.0718 91.2507 46.1899 91.376C46.3081 91.5013 46.4442 91.5944 46.5981 91.6553C46.7557 91.7126 46.9294 91.7412 47.1191 91.7412C47.3626 91.7412 47.5757 91.6947 47.7583 91.6016C47.9409 91.5085 48.0931 91.3634 48.2148 91.1665C48.3402 90.966 48.4333 90.71 48.4941 90.3984C48.555 90.0833 48.5854 89.7074 48.5854 89.2705ZM55.772 87.917V89.1094C55.772 89.7503 55.7147 90.291 55.6001 90.7314C55.4855 91.1719 55.3208 91.5264 55.106 91.7949C54.8911 92.0635 54.6315 92.2586 54.3271 92.3804C54.0264 92.4985 53.6862 92.5576 53.3066 92.5576C53.0059 92.5576 52.7284 92.52 52.4741 92.4448C52.2199 92.3696 51.9907 92.2497 51.7866 92.085C51.5861 91.9167 51.4142 91.6982 51.271 91.4297C51.1278 91.1611 51.0186 90.8353 50.9434 90.4521C50.8682 90.069 50.8306 89.6214 50.8306 89.1094V87.917C50.8306 87.276 50.8879 86.7389 51.0024 86.3057C51.1206 85.8724 51.2871 85.5251 51.502 85.2637C51.7168 84.9987 51.9746 84.8089 52.2754 84.6943C52.5798 84.5798 52.9199 84.5225 53.2959 84.5225C53.6003 84.5225 53.8796 84.5601 54.1338 84.6353C54.3916 84.7069 54.6208 84.8232 54.8213 84.9844C55.0218 85.1419 55.1919 85.3532 55.3315 85.6182C55.4748 85.8796 55.584 86.2 55.6592 86.5796C55.7344 86.9591 55.772 87.4049 55.772 87.917ZM54.7729 89.2705V87.7505C54.7729 87.3996 54.7515 87.0916 54.7085 86.8267C54.6691 86.5581 54.61 86.3289 54.5312 86.1392C54.4525 85.9494 54.3522 85.7954 54.2305 85.6772C54.1123 85.5591 53.9744 85.4731 53.8169 85.4194C53.6629 85.3621 53.4893 85.3335 53.2959 85.3335C53.0596 85.3335 52.8501 85.3783 52.6675 85.4678C52.4849 85.5537 52.3309 85.6916 52.2056 85.8813C52.0838 86.0711 51.9907 86.32 51.9263 86.6279C51.8618 86.9359 51.8296 87.3101 51.8296 87.7505V89.2705C51.8296 89.6214 51.8493 89.9312 51.8887 90.1997C51.9316 90.4683 51.9943 90.701 52.0767 90.8979C52.159 91.0913 52.2593 91.2507 52.3774 91.376C52.4956 91.5013 52.6317 91.5944 52.7856 91.6553C52.9432 91.7126 53.1169 91.7412 53.3066 91.7412C53.5501 91.7412 53.7632 91.6947 53.9458 91.6016C54.1284 91.5085 54.2806 91.3634 54.4023 91.1665C54.5277 90.966 54.6208 90.71 54.6816 90.3984C54.7425 90.0833 54.7729 89.7074 54.7729 89.2705ZM61.9595 87.917V89.1094C61.9595 89.7503 61.9022 90.291 61.7876 90.7314C61.673 91.1719 61.5083 91.5264 61.2935 91.7949C61.0786 92.0635 60.819 92.2586 60.5146 92.3804C60.2139 92.4985 59.8737 92.5576 59.4941 92.5576C59.1934 92.5576 58.9159 92.52 58.6616 92.4448C58.4074 92.3696 58.1782 92.2497 57.9741 92.085C57.7736 91.9167 57.6017 91.6982 57.4585 91.4297C57.3153 91.1611 57.2061 90.8353 57.1309 90.4521C57.0557 90.069 57.0181 89.6214 57.0181 89.1094V87.917C57.0181 87.276 57.0754 86.7389 57.1899 86.3057C57.3081 85.8724 57.4746 85.5251 57.6895 85.2637C57.9043 84.9987 58.1621 84.8089 58.4629 84.6943C58.7673 84.5798 59.1074 84.5225 59.4834 84.5225C59.7878 84.5225 60.0671 84.5601 60.3213 84.6353C60.5791 84.7069 60.8083 84.8232 61.0088 84.9844C61.2093 85.1419 61.3794 85.3532 61.519 85.6182C61.6623 85.8796 61.7715 86.2 61.8467 86.5796C61.9219 86.9591 61.9595 87.4049 61.9595 87.917ZM60.9604 89.2705V87.7505C60.9604 87.3996 60.939 87.0916 60.896 86.8267C60.8566 86.5581 60.7975 86.3289 60.7188 86.1392C60.64 85.9494 60.5397 85.7954 60.418 85.6772C60.2998 85.5591 60.1619 85.4731 60.0044 85.4194C59.8504 85.3621 59.6768 85.3335 59.4834 85.3335C59.2471 85.3335 59.0376 85.3783 58.855 85.4678C58.6724 85.5537 58.5184 85.6916 58.3931 85.8813C58.2713 86.0711 58.1782 86.32 58.1138 86.6279C58.0493 86.9359 58.0171 87.3101 58.0171 87.7505V89.2705C58.0171 89.6214 58.0368 89.9312 58.0762 90.1997C58.1191 90.4683 58.1818 90.701 58.2642 90.8979C58.3465 91.0913 58.4468 91.2507 58.5649 91.376C58.6831 91.5013 58.8192 91.5944 58.9731 91.6553C59.1307 91.7126 59.3044 91.7412 59.4941 91.7412C59.7376 91.7412 59.9507 91.6947 60.1333 91.6016C60.3159 91.5085 60.4681 91.3634 60.5898 91.1665C60.7152 90.966 60.8083 90.71 60.8691 90.3984C60.93 90.0833 60.9604 89.7074 60.9604 89.2705Z" fill="#001464"/>
<mask id="mask0_296_32" style="mask-type:alpha" maskUnits="userSpaceOnUse" x="132" y="46" width="20" height="20">
<rect x="132" y="46" width="20" height="20" fill="#D9D9D9"/>
</mask>
<g mask="url(#mask0_296_32)">
<path d="M142 58L138 54H146L142 58Z" fill="#263F5D"/>
</g>
<defs>
<linearGradient id="paint0_linear_296_32" x1="-9.35262" y1="55.9397" x2="92.0361" y2="54.8412" gradientUnits="userSpaceOnUse">
<stop offset="0.317708" stop-color="#E43425"/>
<stop offset="0.71875" stop-color="#441FD8"/>
<stop offset="1" stop-color="#0A26B8"/>
</linearGradient>
</defs>
</svg>
