<svg width="164" height="111" viewBox="0 0 164 111" fill="none" xmlns="http://www.w3.org/2000/svg">
<rect x="0.5" y="0.5" width="163" height="110" rx="7.78" fill="#DFE9FF" stroke="#001464"/>
<path d="M14.6606 13.7578V23H12.7627V13.7578H14.6606ZM17.5044 13.7578V15.2495H9.96338V13.7578H17.5044ZM20.0181 22.2256L21.8398 16.1318H23.8013L21.04 24.0347C20.9808 24.2082 20.9004 24.3944 20.7988 24.5933C20.7015 24.7922 20.5682 24.9805 20.3989 25.1582C20.2339 25.3402 20.0244 25.4883 19.7705 25.6025C19.5208 25.7168 19.214 25.7739 18.8501 25.7739C18.6766 25.7739 18.5348 25.7633 18.4248 25.7422C18.3148 25.721 18.1836 25.6914 18.0312 25.6533V24.314C18.0778 24.314 18.1265 24.314 18.1772 24.314C18.228 24.3182 18.2767 24.3203 18.3232 24.3203C18.5645 24.3203 18.7612 24.2928 18.9136 24.2378C19.0659 24.1828 19.1886 24.0981 19.2817 23.9839C19.3748 23.8739 19.4489 23.73 19.5039 23.5522L20.0181 22.2256ZM19.2563 16.1318L20.748 21.1084L21.0083 23.0444L19.7642 23.1777L17.2949 16.1318H19.2563ZM26.3594 17.4521V25.6406H24.5312V16.1318H26.2261L26.3594 17.4521ZM30.7075 19.4897V19.623C30.7075 20.1224 30.6483 20.5858 30.5298 21.0132C30.4155 21.4406 30.2463 21.813 30.022 22.1304C29.7977 22.4435 29.5184 22.689 29.1841 22.8667C28.854 23.0402 28.4731 23.127 28.0415 23.127C27.6226 23.127 27.2586 23.0423 26.9497 22.873C26.6408 22.7038 26.3805 22.4668 26.1689 22.1621C25.9616 21.8532 25.7944 21.4956 25.6675 21.0894C25.5405 20.6831 25.4432 20.2472 25.3755 19.7817V19.4326C25.4432 18.9333 25.5405 18.4762 25.6675 18.0615C25.7944 17.6426 25.9616 17.2808 26.1689 16.9761C26.3805 16.6672 26.6387 16.4281 26.9434 16.2588C27.2523 16.0895 27.6141 16.0049 28.0288 16.0049C28.4647 16.0049 28.8477 16.0874 29.1777 16.2524C29.512 16.4175 29.7913 16.6545 30.0156 16.9634C30.2441 17.2723 30.4155 17.6405 30.5298 18.0679C30.6483 18.4953 30.7075 18.9692 30.7075 19.4897ZM28.873 19.623V19.4897C28.873 19.1978 28.8477 18.929 28.7969 18.6836C28.7503 18.4339 28.6742 18.216 28.5684 18.0298C28.4668 17.8436 28.3314 17.6997 28.1621 17.5981C27.9971 17.4924 27.7961 17.4395 27.5591 17.4395C27.3094 17.4395 27.0957 17.4797 26.918 17.5601C26.7445 17.6405 26.6027 17.7568 26.4927 17.9092C26.3826 18.0615 26.3001 18.2435 26.2451 18.4551C26.1901 18.6667 26.1562 18.9058 26.1436 19.1724V20.0547C26.1647 20.3678 26.224 20.6493 26.3213 20.8989C26.4186 21.1444 26.5688 21.339 26.772 21.4829C26.9751 21.6268 27.2417 21.6987 27.5718 21.6987C27.813 21.6987 28.0161 21.6458 28.1812 21.54C28.3462 21.43 28.4795 21.2798 28.5811 21.0894C28.6868 20.8989 28.7609 20.6789 28.8032 20.4292C28.8498 20.1795 28.873 19.9108 28.873 19.623ZM35.0049 23.127C34.4717 23.127 33.9935 23.0423 33.5703 22.873C33.1471 22.6995 32.7874 22.4604 32.4912 22.1558C32.1992 21.8511 31.9749 21.4977 31.8184 21.0957C31.6618 20.6895 31.5835 20.2578 31.5835 19.8008V19.5469C31.5835 19.0264 31.6576 18.5503 31.8057 18.1187C31.9538 17.687 32.1654 17.3125 32.4404 16.9951C32.7197 16.6777 33.0583 16.4344 33.4561 16.2651C33.8538 16.0916 34.3024 16.0049 34.8018 16.0049C35.2884 16.0049 35.7201 16.0853 36.0967 16.2461C36.4733 16.4069 36.7886 16.6354 37.0425 16.9316C37.3006 17.2279 37.4953 17.5833 37.6265 17.998C37.7576 18.4085 37.8232 18.8656 37.8232 19.3691V20.1309H32.3643V18.9121H36.0269V18.7725C36.0269 18.5186 35.9803 18.2922 35.8872 18.0933C35.7983 17.8901 35.6629 17.7293 35.481 17.6108C35.299 17.4924 35.0662 17.4331 34.7827 17.4331C34.5415 17.4331 34.3341 17.486 34.1606 17.5918C33.9871 17.6976 33.8454 17.8457 33.7354 18.0361C33.6296 18.2266 33.5492 18.4508 33.4941 18.709C33.4434 18.9629 33.418 19.2422 33.418 19.5469V19.8008C33.418 20.0758 33.4561 20.3298 33.5322 20.5625C33.6126 20.7952 33.7248 20.9963 33.8687 21.1655C34.0168 21.3348 34.1945 21.466 34.4019 21.5591C34.6134 21.6522 34.8525 21.6987 35.1191 21.6987C35.4492 21.6987 35.756 21.6353 36.0396 21.5083C36.3273 21.3771 36.5749 21.1803 36.7822 20.918L37.6709 21.8828C37.527 22.0902 37.3302 22.2891 37.0806 22.4795C36.8351 22.6699 36.5389 22.8265 36.1919 22.9492C35.8449 23.0677 35.4492 23.127 35.0049 23.127ZM41.8096 19.6357V19.5024C41.8096 18.9989 41.8815 18.5355 42.0254 18.1123C42.1693 17.6849 42.3787 17.3146 42.6538 17.0015C42.9289 16.6883 43.2674 16.445 43.6694 16.2715C44.0715 16.0938 44.5327 16.0049 45.0532 16.0049C45.5737 16.0049 46.0371 16.0938 46.4434 16.2715C46.8496 16.445 47.1903 16.6883 47.4653 17.0015C47.7446 17.3146 47.9562 17.6849 48.1001 18.1123C48.244 18.5355 48.3159 18.9989 48.3159 19.5024V19.6357C48.3159 20.1351 48.244 20.5985 48.1001 21.0259C47.9562 21.4491 47.7446 21.8193 47.4653 22.1367C47.1903 22.4499 46.8517 22.6932 46.4497 22.8667C46.0477 23.0402 45.5864 23.127 45.0659 23.127C44.5454 23.127 44.082 23.0402 43.6758 22.8667C43.2738 22.6932 42.9331 22.4499 42.6538 22.1367C42.3787 21.8193 42.1693 21.4491 42.0254 21.0259C41.8815 20.5985 41.8096 20.1351 41.8096 19.6357ZM43.6377 19.5024V19.6357C43.6377 19.9235 43.6631 20.1922 43.7139 20.4419C43.7646 20.6916 43.8451 20.9116 43.9551 21.1021C44.0693 21.2882 44.2174 21.4342 44.3994 21.54C44.5814 21.6458 44.8035 21.6987 45.0659 21.6987C45.3198 21.6987 45.5378 21.6458 45.7197 21.54C45.9017 21.4342 46.0477 21.2882 46.1577 21.1021C46.2677 20.9116 46.3481 20.6916 46.3989 20.4419C46.4539 20.1922 46.4814 19.9235 46.4814 19.6357V19.5024C46.4814 19.2231 46.4539 18.9608 46.3989 18.7153C46.3481 18.4657 46.2656 18.2456 46.1514 18.0552C46.0413 17.8605 45.8953 17.7082 45.7134 17.5981C45.5314 17.4881 45.3114 17.4331 45.0532 17.4331C44.7951 17.4331 44.575 17.4881 44.3931 17.5981C44.2153 17.7082 44.0693 17.8605 43.9551 18.0552C43.8451 18.2456 43.7646 18.4657 43.7139 18.7153C43.6631 18.9608 43.6377 19.2231 43.6377 19.5024ZM51.769 23H49.9282V15.5225C49.9282 15.002 50.0298 14.564 50.2329 14.2085C50.4403 13.8488 50.7301 13.578 51.1025 13.396C51.4792 13.2098 51.9256 13.1167 52.4419 13.1167C52.6112 13.1167 52.7741 13.1294 52.9307 13.1548C53.0872 13.1759 53.2396 13.2035 53.3877 13.2373L53.3687 14.6147C53.2882 14.5936 53.2036 14.5788 53.1147 14.5703C53.0259 14.5618 52.9222 14.5576 52.8037 14.5576C52.5837 14.5576 52.3953 14.5957 52.2388 14.6719C52.0864 14.7438 51.9701 14.8517 51.8896 14.9956C51.8092 15.1395 51.769 15.3151 51.769 15.5225V23ZM53.1401 16.1318V17.4268H48.9062V16.1318H53.1401ZM57.3359 13.25H59.1641V21.4258L58.98 23H57.3359V13.25ZM63.5122 19.4961V19.6294C63.5122 20.1414 63.4572 20.6112 63.3472 21.0386C63.2414 21.466 63.0763 21.8363 62.8521 22.1494C62.6278 22.4583 62.3485 22.6995 62.0142 22.873C61.6841 23.0423 61.2948 23.127 60.8462 23.127C60.4272 23.127 60.0633 23.0423 59.7544 22.873C59.4497 22.7038 59.1937 22.4647 58.9863 22.1558C58.779 21.8468 58.6118 21.485 58.4849 21.0703C58.3579 20.6556 58.2627 20.2028 58.1992 19.7119V19.4199C58.2627 18.929 58.3579 18.4762 58.4849 18.0615C58.6118 17.6468 58.779 17.285 58.9863 16.9761C59.1937 16.6672 59.4497 16.4281 59.7544 16.2588C60.0591 16.0895 60.4188 16.0049 60.8335 16.0049C61.2863 16.0049 61.6799 16.0916 62.0142 16.2651C62.3527 16.4344 62.632 16.6756 62.8521 16.9888C63.0763 17.2977 63.2414 17.6659 63.3472 18.0933C63.4572 18.5164 63.5122 18.984 63.5122 19.4961ZM61.6841 19.6294V19.4961C61.6841 19.2168 61.6629 18.9544 61.6206 18.709C61.5825 18.4593 61.5148 18.2414 61.4175 18.0552C61.3201 17.8647 61.1868 17.7145 61.0176 17.6045C60.8525 17.4945 60.6388 17.4395 60.3765 17.4395C60.1268 17.4395 59.9152 17.4818 59.7417 17.5664C59.5682 17.651 59.4243 17.7695 59.3101 17.9219C59.2 18.0742 59.1175 18.2562 59.0625 18.4678C59.0075 18.6751 58.9736 18.9036 58.9609 19.1533V19.9849C58.9736 20.3192 59.0286 20.6154 59.126 20.8735C59.2275 21.1274 59.3799 21.3285 59.583 21.4766C59.7904 21.6204 60.0591 21.6924 60.3892 21.6924C60.6473 21.6924 60.861 21.6416 61.0303 21.54C61.1995 21.4385 61.3307 21.2946 61.4238 21.1084C61.5212 20.9222 61.5889 20.7043 61.627 20.4546C61.665 20.2007 61.6841 19.9256 61.6841 19.6294ZM68.7109 21.356V16.1318H70.5391V23H68.8188L68.7109 21.356ZM68.9141 19.9468L69.4536 19.9341C69.4536 20.3911 69.4007 20.8164 69.2949 21.21C69.1891 21.5993 69.0304 21.9378 68.8188 22.2256C68.6073 22.5091 68.3407 22.7313 68.019 22.8921C67.6974 23.0487 67.3187 23.127 66.8828 23.127C66.5485 23.127 66.2396 23.0804 65.9561 22.9873C65.6768 22.89 65.4355 22.7397 65.2324 22.5366C65.0335 22.3293 64.877 22.0648 64.7627 21.7432C64.6527 21.4173 64.5977 21.0259 64.5977 20.5688V16.1318H66.4258V20.5815C66.4258 20.7847 66.4491 20.9561 66.4956 21.0957C66.5464 21.2354 66.6162 21.3496 66.7051 21.4385C66.7939 21.5273 66.8976 21.5908 67.0161 21.6289C67.1388 21.667 67.2743 21.686 67.4224 21.686C67.799 21.686 68.0952 21.6099 68.311 21.4575C68.5311 21.3052 68.6855 21.0978 68.7744 20.8354C68.8675 20.5688 68.9141 20.2726 68.9141 19.9468ZM73.9731 22.2256L75.7949 16.1318H77.7563L74.9951 24.0347C74.9359 24.2082 74.8555 24.3944 74.7539 24.5933C74.6566 24.7922 74.5233 24.9805 74.354 25.1582C74.189 25.3402 73.9795 25.4883 73.7256 25.6025C73.4759 25.7168 73.1691 25.7739 72.8052 25.7739C72.6317 25.7739 72.4899 25.7633 72.3799 25.7422C72.2699 25.721 72.1387 25.6914 71.9863 25.6533V24.314C72.0329 24.314 72.0815 24.314 72.1323 24.314C72.1831 24.3182 72.2318 24.3203 72.2783 24.3203C72.5195 24.3203 72.7163 24.2928 72.8687 24.2378C73.021 24.1828 73.1437 24.0981 73.2368 23.9839C73.3299 23.8739 73.404 23.73 73.459 23.5522L73.9731 22.2256ZM73.2114 16.1318L74.7031 21.1084L74.9634 23.0444L73.7192 23.1777L71.25 16.1318H73.2114Z" fill="#001464"/>
<line x1="1" y1="34.6359" x2="164" y2="34.6359" stroke="#001464" stroke-width="0.728171"/>
<rect x="10.5174" y="43.5174" width="143.83" height="23.7992" rx="2.49581" fill="white" stroke="#263F5D" stroke-width="1.03475"/>
<path d="M19.5171 51.6299V59.4502H17.9111V51.6299H19.5171ZM22.4766 54.8418V59.4502H20.9243V53.6387H22.3799L22.4766 54.8418ZM22.2617 56.3403H21.832C21.832 55.9357 21.8804 55.5633 21.9771 55.2231C22.0773 54.8794 22.2223 54.5822 22.4121 54.3315C22.6055 54.0773 22.8436 53.8804 23.1265 53.7407C23.4093 53.6011 23.737 53.5312 24.1094 53.5312C24.3672 53.5312 24.6035 53.5706 24.8184 53.6494C25.0332 53.7246 25.2176 53.8446 25.3716 54.0093C25.5291 54.1704 25.6509 54.3817 25.7368 54.6431C25.8228 54.9009 25.8657 55.2106 25.8657 55.5723V59.4502H24.3188V55.7441C24.3188 55.4792 24.283 55.2751 24.2114 55.1318C24.1398 54.9886 24.0378 54.8883 23.9053 54.8311C23.7764 54.7738 23.6206 54.7451 23.438 54.7451C23.2375 54.7451 23.062 54.7863 22.9116 54.8687C22.7648 54.951 22.6431 55.0656 22.5464 55.2124C22.4497 55.3556 22.3781 55.5239 22.3315 55.7173C22.285 55.9106 22.2617 56.1183 22.2617 56.3403ZM25.7207 56.1631L25.1675 56.2329C25.1675 55.8534 25.214 55.5007 25.3071 55.1748C25.4038 54.849 25.5452 54.5625 25.7314 54.3154C25.9212 54.0684 26.1558 53.8768 26.4351 53.7407C26.7144 53.6011 27.0366 53.5312 27.4019 53.5312C27.6812 53.5312 27.9354 53.5724 28.1646 53.6548C28.3937 53.7336 28.5889 53.8607 28.75 54.0361C28.9147 54.208 29.04 54.4336 29.126 54.7129C29.2155 54.9922 29.2603 55.3341 29.2603 55.7388V59.4502H27.708V55.7388C27.708 55.4702 27.6722 55.2661 27.6006 55.1265C27.5326 54.9832 27.4323 54.8848 27.2998 54.8311C27.1709 54.7738 27.0169 54.7451 26.8379 54.7451C26.6517 54.7451 26.4888 54.7827 26.3491 54.8579C26.2095 54.9295 26.0931 55.0298 26 55.1587C25.9069 55.2876 25.8371 55.438 25.7905 55.6099C25.744 55.7782 25.7207 55.9626 25.7207 56.1631ZM32.0049 54.7559V61.6846H30.458V53.6387H31.8921L32.0049 54.7559ZM35.6841 56.48V56.5928C35.6841 57.0153 35.634 57.4074 35.5337 57.769C35.437 58.1307 35.2938 58.4458 35.104 58.7144C34.9142 58.9793 34.6779 59.187 34.395 59.3374C34.1157 59.4842 33.7935 59.5576 33.4282 59.5576C33.0737 59.5576 32.7658 59.486 32.5044 59.3428C32.243 59.1995 32.0228 58.999 31.8438 58.7412C31.6683 58.4798 31.5269 58.1772 31.4194 57.8335C31.312 57.4897 31.2297 57.1209 31.1724 56.7271V56.4316C31.2297 56.0091 31.312 55.6224 31.4194 55.2715C31.5269 54.917 31.6683 54.6108 31.8438 54.353C32.0228 54.0916 32.2412 53.8893 32.499 53.7461C32.7604 53.6029 33.0666 53.5312 33.4175 53.5312C33.7863 53.5312 34.1104 53.6011 34.3896 53.7407C34.6725 53.8804 34.9089 54.0809 35.0986 54.3423C35.292 54.6037 35.437 54.9152 35.5337 55.2769C35.634 55.6385 35.6841 56.0396 35.6841 56.48ZM34.1318 56.5928V56.48C34.1318 56.2329 34.1104 56.0055 34.0674 55.7979C34.028 55.5866 33.9635 55.4022 33.874 55.2446C33.7881 55.0871 33.6735 54.9653 33.5303 54.8794C33.3906 54.7899 33.2205 54.7451 33.02 54.7451C32.8088 54.7451 32.6279 54.7791 32.4775 54.8472C32.3307 54.9152 32.2108 55.0137 32.1177 55.1426C32.0246 55.2715 31.9548 55.4255 31.9082 55.6045C31.8617 55.7835 31.833 55.9858 31.8223 56.2114V56.958C31.8402 57.223 31.8903 57.4611 31.9727 57.6724C32.055 57.88 32.1821 58.0448 32.354 58.1665C32.5259 58.2882 32.7515 58.3491 33.0308 58.3491C33.2349 58.3491 33.4067 58.3044 33.5464 58.2148C33.686 58.1217 33.7988 57.9946 33.8848 57.8335C33.9743 57.6724 34.0369 57.4862 34.0728 57.2749C34.1121 57.0636 34.1318 56.8363 34.1318 56.5928ZM38.1924 54.9062V59.4502H36.6455V53.6387H38.1011L38.1924 54.9062ZM39.9434 53.6011L39.9165 55.0352C39.8413 55.0244 39.75 55.0155 39.6426 55.0083C39.5387 54.9976 39.4438 54.9922 39.3579 54.9922C39.1395 54.9922 38.9497 55.0208 38.7886 55.0781C38.631 55.1318 38.4985 55.2124 38.3911 55.3198C38.2873 55.4272 38.2085 55.5579 38.1548 55.7119C38.1047 55.8659 38.076 56.0413 38.0688 56.2383L37.7573 56.1416C37.7573 55.7656 37.7949 55.4201 37.8701 55.105C37.9453 54.7863 38.0545 54.5088 38.1978 54.2725C38.3446 54.0361 38.5236 53.8535 38.7349 53.7246C38.9461 53.5957 39.1878 53.5312 39.46 53.5312C39.5459 53.5312 39.6336 53.5384 39.7231 53.5527C39.8127 53.5635 39.8861 53.5796 39.9434 53.6011ZM43.2412 59.5576C42.79 59.5576 42.3854 59.486 42.0273 59.3428C41.6693 59.196 41.3649 58.9937 41.1143 58.7358C40.8672 58.478 40.6774 58.179 40.5449 57.8389C40.4124 57.4951 40.3462 57.1299 40.3462 56.7432V56.5283C40.3462 56.0879 40.4089 55.6851 40.5342 55.3198C40.6595 54.9546 40.8385 54.6377 41.0713 54.3691C41.3076 54.1006 41.5941 53.8947 41.9307 53.7515C42.2673 53.6047 42.6468 53.5312 43.0693 53.5312C43.4811 53.5312 43.8464 53.5993 44.165 53.7354C44.4837 53.8714 44.7505 54.0648 44.9653 54.3154C45.1838 54.5661 45.3485 54.8669 45.4595 55.2178C45.5705 55.5651 45.626 55.9518 45.626 56.3779V57.0225H41.0068V55.9912H44.106V55.873C44.106 55.6582 44.0666 55.4666 43.9878 55.2983C43.9126 55.1265 43.798 54.9904 43.644 54.8901C43.4901 54.7899 43.2931 54.7397 43.0532 54.7397C42.8491 54.7397 42.6737 54.7845 42.5269 54.874C42.38 54.9635 42.2601 55.0889 42.167 55.25C42.0775 55.4111 42.0094 55.6009 41.9629 55.8193C41.9199 56.0342 41.8984 56.2705 41.8984 56.5283V56.7432C41.8984 56.9759 41.9307 57.1908 41.9951 57.3877C42.0632 57.5846 42.158 57.7547 42.2798 57.8979C42.4051 58.0412 42.5555 58.1522 42.731 58.231C42.91 58.3097 43.1123 58.3491 43.3379 58.3491C43.6172 58.3491 43.8768 58.2954 44.1167 58.188C44.3602 58.077 44.5697 57.9105 44.7451 57.6885L45.4971 58.5049C45.3753 58.6803 45.2088 58.8486 44.9976 59.0098C44.7899 59.1709 44.5392 59.3034 44.2456 59.4072C43.952 59.5075 43.6172 59.5576 43.2412 59.5576ZM49.6489 57.8442C49.6489 57.7332 49.6167 57.633 49.5522 57.5435C49.4878 57.4539 49.3678 57.3716 49.1924 57.2964C49.0205 57.2176 48.7716 57.146 48.4458 57.0815C48.1522 57.0171 47.8783 56.9365 47.624 56.8398C47.3734 56.7396 47.1549 56.6196 46.9688 56.48C46.7861 56.3403 46.6429 56.1756 46.5391 55.9858C46.4352 55.7925 46.3833 55.5723 46.3833 55.3252C46.3833 55.0817 46.4352 54.8525 46.5391 54.6377C46.6465 54.4229 46.7987 54.2331 46.9956 54.0684C47.1961 53.9001 47.4396 53.7694 47.7261 53.6763C48.0161 53.5796 48.342 53.5312 48.7036 53.5312C49.2085 53.5312 49.6418 53.6118 50.0034 53.7729C50.3687 53.9341 50.6479 54.1561 50.8413 54.439C51.0382 54.7183 51.1367 55.0369 51.1367 55.395H49.5898C49.5898 55.2446 49.5576 55.1104 49.4932 54.9922C49.4323 54.8704 49.3356 54.7756 49.2031 54.7075C49.0742 54.6359 48.9059 54.6001 48.6982 54.6001C48.5264 54.6001 48.3778 54.6305 48.2524 54.6914C48.1271 54.7487 48.0304 54.8275 47.9624 54.9277C47.8979 55.0244 47.8657 55.1318 47.8657 55.25C47.8657 55.3395 47.8836 55.4201 47.9194 55.4917C47.9588 55.5597 48.0215 55.6224 48.1074 55.6797C48.1934 55.737 48.3044 55.7907 48.4404 55.8408C48.5801 55.8874 48.752 55.9303 48.9561 55.9697C49.375 56.0557 49.7492 56.1685 50.0786 56.3081C50.408 56.4442 50.6694 56.6304 50.8628 56.8667C51.0562 57.0994 51.1528 57.4056 51.1528 57.7852C51.1528 58.043 51.0955 58.2793 50.981 58.4941C50.8664 58.709 50.7017 58.897 50.4868 59.0581C50.272 59.2157 50.0142 59.3392 49.7134 59.4287C49.4162 59.5146 49.0814 59.5576 48.709 59.5576C48.1683 59.5576 47.71 59.4609 47.334 59.2676C46.9616 59.0742 46.6787 58.8289 46.4854 58.5317C46.2956 58.231 46.2007 57.923 46.2007 57.6079H47.667C47.6742 57.8192 47.7279 57.9893 47.8281 58.1182C47.932 58.2471 48.0627 58.3402 48.2202 58.3975C48.3813 58.4548 48.555 58.4834 48.7412 58.4834C48.9417 58.4834 49.1082 58.4565 49.2407 58.4028C49.3732 58.3455 49.4735 58.2703 49.5415 58.1772C49.6131 58.0806 49.6489 57.9696 49.6489 57.8442ZM55.2993 57.8442C55.2993 57.7332 55.2671 57.633 55.2026 57.5435C55.1382 57.4539 55.0182 57.3716 54.8428 57.2964C54.6709 57.2176 54.422 57.146 54.0962 57.0815C53.8026 57.0171 53.5286 56.9365 53.2744 56.8398C53.0238 56.7396 52.8053 56.6196 52.6191 56.48C52.4365 56.3403 52.2933 56.1756 52.1895 55.9858C52.0856 55.7925 52.0337 55.5723 52.0337 55.3252C52.0337 55.0817 52.0856 54.8525 52.1895 54.6377C52.2969 54.4229 52.4491 54.2331 52.646 54.0684C52.8465 53.9001 53.09 53.7694 53.3765 53.6763C53.6665 53.5796 53.9924 53.5312 54.354 53.5312C54.8589 53.5312 55.2922 53.6118 55.6538 53.7729C56.019 53.9341 56.2983 54.1561 56.4917 54.439C56.6886 54.7183 56.7871 55.0369 56.7871 55.395H55.2402C55.2402 55.2446 55.208 55.1104 55.1436 54.9922C55.0827 54.8704 54.986 54.7756 54.8535 54.7075C54.7246 54.6359 54.5563 54.6001 54.3486 54.6001C54.1768 54.6001 54.0282 54.6305 53.9028 54.6914C53.7775 54.7487 53.6808 54.8275 53.6128 54.9277C53.5483 55.0244 53.5161 55.1318 53.5161 55.25C53.5161 55.3395 53.534 55.4201 53.5698 55.4917C53.6092 55.5597 53.6719 55.6224 53.7578 55.6797C53.8438 55.737 53.9548 55.7907 54.0908 55.8408C54.2305 55.8874 54.4023 55.9303 54.6064 55.9697C55.0254 56.0557 55.3996 56.1685 55.729 56.3081C56.0584 56.4442 56.3198 56.6304 56.5132 56.8667C56.7065 57.0994 56.8032 57.4056 56.8032 57.7852C56.8032 58.043 56.7459 58.2793 56.6313 58.4941C56.5168 58.709 56.3521 58.897 56.1372 59.0581C55.9224 59.2157 55.6646 59.3392 55.3638 59.4287C55.0666 59.5146 54.7318 59.5576 54.3594 59.5576C53.8187 59.5576 53.3604 59.4609 52.9844 59.2676C52.612 59.0742 52.3291 58.8289 52.1357 58.5317C51.946 58.231 51.8511 57.923 51.8511 57.6079H53.3174C53.3245 57.8192 53.3783 57.9893 53.4785 58.1182C53.5824 58.2471 53.7131 58.3402 53.8706 58.3975C54.0317 58.4548 54.2054 58.4834 54.3916 58.4834C54.5921 58.4834 54.7586 58.4565 54.8911 58.4028C55.0236 58.3455 55.1239 58.2703 55.1919 58.1772C55.2635 58.0806 55.2993 57.9696 55.2993 57.8442ZM59.4404 53.6387V59.4502H57.8882V53.6387H59.4404ZM57.7915 52.124C57.7915 51.8984 57.8703 51.7122 58.0278 51.5654C58.1854 51.4186 58.3966 51.3452 58.6616 51.3452C58.923 51.3452 59.1325 51.4186 59.29 51.5654C59.4512 51.7122 59.5317 51.8984 59.5317 52.124C59.5317 52.3496 59.4512 52.5358 59.29 52.6826C59.1325 52.8294 58.923 52.9028 58.6616 52.9028C58.3966 52.9028 58.1854 52.8294 58.0278 52.6826C57.8703 52.5358 57.7915 52.3496 57.7915 52.124ZM60.4717 56.6035V56.4907C60.4717 56.0646 60.5326 55.6725 60.6543 55.3145C60.776 54.9528 60.9533 54.6395 61.186 54.3745C61.4188 54.1095 61.7052 53.9036 62.0454 53.7568C62.3856 53.6064 62.7759 53.5312 63.2163 53.5312C63.6567 53.5312 64.0488 53.6064 64.3926 53.7568C64.7363 53.9036 65.0246 54.1095 65.2573 54.3745C65.4937 54.6395 65.6727 54.9528 65.7944 55.3145C65.9162 55.6725 65.9771 56.0646 65.9771 56.4907V56.6035C65.9771 57.026 65.9162 57.4181 65.7944 57.7798C65.6727 58.1379 65.4937 58.4512 65.2573 58.7197C65.0246 58.9847 64.7381 59.1906 64.3979 59.3374C64.0578 59.4842 63.6675 59.5576 63.2271 59.5576C62.7866 59.5576 62.3945 59.4842 62.0508 59.3374C61.7106 59.1906 61.4224 58.9847 61.186 58.7197C60.9533 58.4512 60.776 58.1379 60.6543 57.7798C60.5326 57.4181 60.4717 57.026 60.4717 56.6035ZM62.0186 56.4907V56.6035C62.0186 56.847 62.04 57.0744 62.083 57.2856C62.126 57.4969 62.194 57.6831 62.2871 57.8442C62.3838 58.0018 62.5091 58.1253 62.6631 58.2148C62.8171 58.3044 63.005 58.3491 63.2271 58.3491C63.4419 58.3491 63.6263 58.3044 63.7803 58.2148C63.9342 58.1253 64.0578 58.0018 64.1509 57.8442C64.244 57.6831 64.312 57.4969 64.355 57.2856C64.4015 57.0744 64.4248 56.847 64.4248 56.6035V56.4907C64.4248 56.2544 64.4015 56.0324 64.355 55.8247C64.312 55.6134 64.2422 55.4272 64.1455 55.2661C64.0524 55.1014 63.9289 54.9725 63.7749 54.8794C63.6209 54.7863 63.4347 54.7397 63.2163 54.7397C62.9979 54.7397 62.8117 54.7863 62.6577 54.8794C62.5073 54.9725 62.3838 55.1014 62.2871 55.2661C62.194 55.4272 62.126 55.6134 62.083 55.8247C62.04 56.0324 62.0186 56.2544 62.0186 56.4907ZM68.4424 54.8794V59.4502H66.8955V53.6387H68.3457L68.4424 54.8794ZM68.2168 56.3403H67.7979C67.7979 55.9106 67.8534 55.5239 67.9644 55.1802C68.0754 54.8328 68.2311 54.5374 68.4316 54.2939C68.6322 54.0469 68.8703 53.8589 69.146 53.73C69.4253 53.5975 69.7368 53.5312 70.0806 53.5312C70.3527 53.5312 70.6016 53.5706 70.8271 53.6494C71.0527 53.7282 71.2461 53.8535 71.4072 54.0254C71.5719 54.1973 71.6973 54.4246 71.7832 54.7075C71.8727 54.9904 71.9175 55.3359 71.9175 55.7441V59.4502H70.3599V55.7388C70.3599 55.481 70.3241 55.2804 70.2524 55.1372C70.1808 54.994 70.0752 54.8937 69.9355 54.8364C69.7995 54.7756 69.6312 54.7451 69.4307 54.7451C69.223 54.7451 69.0422 54.7863 68.8882 54.8687C68.7378 54.951 68.6125 55.0656 68.5122 55.2124C68.4155 55.3556 68.3421 55.5239 68.292 55.7173C68.2419 55.9106 68.2168 56.1183 68.2168 56.3403ZM76.2358 57.8442C76.2358 57.7332 76.2036 57.633 76.1392 57.5435C76.0747 57.4539 75.9548 57.3716 75.7793 57.2964C75.6074 57.2176 75.3586 57.146 75.0327 57.0815C74.7391 57.0171 74.4652 56.9365 74.2109 56.8398C73.9603 56.7396 73.7419 56.6196 73.5557 56.48C73.373 56.3403 73.2298 56.1756 73.126 55.9858C73.0221 55.7925 72.9702 55.5723 72.9702 55.3252C72.9702 55.0817 73.0221 54.8525 73.126 54.6377C73.2334 54.4229 73.3856 54.2331 73.5825 54.0684C73.783 53.9001 74.0265 53.7694 74.313 53.6763C74.603 53.5796 74.9289 53.5312 75.2905 53.5312C75.7954 53.5312 76.2287 53.6118 76.5903 53.7729C76.9556 53.9341 77.2349 54.1561 77.4282 54.439C77.6252 54.7183 77.7236 55.0369 77.7236 55.395H76.1768C76.1768 55.2446 76.1445 55.1104 76.0801 54.9922C76.0192 54.8704 75.9225 54.7756 75.79 54.7075C75.6611 54.6359 75.4928 54.6001 75.2852 54.6001C75.1133 54.6001 74.9647 54.6305 74.8394 54.6914C74.714 54.7487 74.6174 54.8275 74.5493 54.9277C74.4849 55.0244 74.4526 55.1318 74.4526 55.25C74.4526 55.3395 74.4705 55.4201 74.5063 55.4917C74.5457 55.5597 74.6084 55.6224 74.6943 55.6797C74.7803 55.737 74.8913 55.7907 75.0273 55.8408C75.167 55.8874 75.3389 55.9303 75.543 55.9697C75.9619 56.0557 76.3361 56.1685 76.6655 56.3081C76.995 56.4442 77.2563 56.6304 77.4497 56.8667C77.6431 57.0994 77.7397 57.4056 77.7397 57.7852C77.7397 58.043 77.6825 58.2793 77.5679 58.4941C77.4533 58.709 77.2886 58.897 77.0737 59.0581C76.8589 59.2157 76.6011 59.3392 76.3003 59.4287C76.0031 59.5146 75.6683 59.5576 75.2959 59.5576C74.7552 59.5576 74.2969 59.4609 73.9209 59.2676C73.5485 59.0742 73.2656 58.8289 73.0723 58.5317C72.8825 58.231 72.7876 57.923 72.7876 57.6079H74.2539C74.2611 57.8192 74.3148 57.9893 74.415 58.1182C74.5189 58.2471 74.6496 58.3402 74.8071 58.3975C74.9683 58.4548 75.1419 58.4834 75.3281 58.4834C75.5286 58.4834 75.6951 58.4565 75.8276 58.4028C75.9601 58.3455 76.0604 58.2703 76.1284 58.1772C76.2 58.0806 76.2358 57.9696 76.2358 57.8442ZM87.7783 55.3628V58.4619C87.6566 58.6087 87.4686 58.7681 87.2144 58.9399C86.9601 59.1082 86.6325 59.2533 86.2314 59.375C85.8304 59.4967 85.3452 59.5576 84.7759 59.5576C84.271 59.5576 83.8109 59.4753 83.3955 59.3105C82.9801 59.1423 82.6221 58.897 82.3213 58.5747C82.0241 58.2524 81.7949 57.8586 81.6338 57.3931C81.4727 56.924 81.3921 56.3887 81.3921 55.7871V55.2983C81.3921 54.6968 81.4691 54.1615 81.623 53.6924C81.7806 53.2233 82.0044 52.8276 82.2944 52.5054C82.5845 52.1831 82.93 51.9378 83.3311 51.7695C83.7321 51.6012 84.1779 51.5171 84.6685 51.5171C85.3488 51.5171 85.9074 51.6281 86.3442 51.8501C86.7811 52.0685 87.1141 52.3729 87.3433 52.7632C87.576 53.1499 87.7192 53.5939 87.7729 54.0952H86.21C86.1706 53.8302 86.0954 53.5993 85.9844 53.4023C85.8734 53.2054 85.714 53.0514 85.5063 52.9404C85.3022 52.8294 85.0373 52.7739 84.7114 52.7739C84.4429 52.7739 84.203 52.8294 83.9917 52.9404C83.784 53.0479 83.6086 53.2072 83.4653 53.4185C83.3221 53.6297 83.2129 53.8911 83.1377 54.2026C83.0625 54.5142 83.0249 54.8758 83.0249 55.2876V55.7871C83.0249 56.1953 83.0643 56.557 83.1431 56.8721C83.2218 57.1836 83.3382 57.4468 83.4922 57.6616C83.6497 57.8729 83.8431 58.0322 84.0723 58.1396C84.3014 58.2471 84.5682 58.3008 84.8726 58.3008C85.1268 58.3008 85.3381 58.2793 85.5063 58.2363C85.6782 58.1934 85.8161 58.1414 85.9199 58.0806C86.0273 58.0161 86.1097 57.9552 86.167 57.8979V56.5122H84.6953V55.3628H87.7783ZM88.7344 56.6035V56.4907C88.7344 56.0646 88.7952 55.6725 88.917 55.3145C89.0387 54.9528 89.216 54.6395 89.4487 54.3745C89.6815 54.1095 89.9679 53.9036 90.3081 53.7568C90.6483 53.6064 91.0386 53.5312 91.479 53.5312C91.9194 53.5312 92.3115 53.6064 92.6553 53.7568C92.999 53.9036 93.2873 54.1095 93.52 54.3745C93.7563 54.6395 93.9354 54.9528 94.0571 55.3145C94.1789 55.6725 94.2397 56.0646 94.2397 56.4907V56.6035C94.2397 57.026 94.1789 57.4181 94.0571 57.7798C93.9354 58.1379 93.7563 58.4512 93.52 58.7197C93.2873 58.9847 93.0008 59.1906 92.6606 59.3374C92.3205 59.4842 91.9302 59.5576 91.4897 59.5576C91.0493 59.5576 90.6572 59.4842 90.3135 59.3374C89.9733 59.1906 89.6851 58.9847 89.4487 58.7197C89.216 58.4512 89.0387 58.1379 88.917 57.7798C88.7952 57.4181 88.7344 57.026 88.7344 56.6035ZM90.2812 56.4907V56.6035C90.2812 56.847 90.3027 57.0744 90.3457 57.2856C90.3887 57.4969 90.4567 57.6831 90.5498 57.8442C90.6465 58.0018 90.7718 58.1253 90.9258 58.2148C91.0798 58.3044 91.2677 58.3491 91.4897 58.3491C91.7046 58.3491 91.889 58.3044 92.043 58.2148C92.1969 58.1253 92.3205 58.0018 92.4136 57.8442C92.5067 57.6831 92.5747 57.4969 92.6177 57.2856C92.6642 57.0744 92.6875 56.847 92.6875 56.6035V56.4907C92.6875 56.2544 92.6642 56.0324 92.6177 55.8247C92.5747 55.6134 92.5049 55.4272 92.4082 55.2661C92.3151 55.1014 92.1916 54.9725 92.0376 54.8794C91.8836 54.7863 91.6974 54.7397 91.479 54.7397C91.2606 54.7397 91.0744 54.7863 90.9204 54.8794C90.77 54.9725 90.6465 55.1014 90.5498 55.2661C90.4567 55.4272 90.3887 55.6134 90.3457 55.8247C90.3027 56.0324 90.2812 56.2544 90.2812 56.4907ZM98.3271 58.1396V55.5508C98.3271 55.3646 98.2967 55.2052 98.2358 55.0728C98.175 54.9367 98.0801 54.8311 97.9512 54.7559C97.8258 54.6807 97.6629 54.6431 97.4624 54.6431C97.2905 54.6431 97.1419 54.6735 97.0166 54.7344C96.8913 54.7917 96.7946 54.8758 96.7266 54.9868C96.6585 55.0942 96.6245 55.2214 96.6245 55.3682H95.0776C95.0776 55.1211 95.1349 54.8866 95.2495 54.6646C95.3641 54.4425 95.5306 54.2474 95.749 54.0791C95.9674 53.9072 96.2271 53.7729 96.5278 53.6763C96.8322 53.5796 97.1724 53.5312 97.5483 53.5312C97.9995 53.5312 98.4006 53.6064 98.7515 53.7568C99.1024 53.9072 99.3781 54.1328 99.5786 54.4336C99.7827 54.7344 99.8848 55.1104 99.8848 55.5615V58.0483C99.8848 58.367 99.9045 58.6284 99.9438 58.8325C99.9832 59.033 100.041 59.2085 100.116 59.3589V59.4502H98.5527C98.4775 59.2926 98.4202 59.0957 98.3809 58.8594C98.3451 58.6195 98.3271 58.3796 98.3271 58.1396ZM98.5312 55.9106L98.542 56.7861H97.6772C97.4731 56.7861 97.2959 56.8094 97.1455 56.856C96.9951 56.9025 96.8716 56.9688 96.7749 57.0547C96.6782 57.137 96.6066 57.2337 96.5601 57.3447C96.5171 57.4557 96.4956 57.5775 96.4956 57.71C96.4956 57.8424 96.526 57.9624 96.5869 58.0698C96.6478 58.1737 96.7355 58.256 96.8501 58.3169C96.9647 58.3742 97.099 58.4028 97.2529 58.4028C97.4857 58.4028 97.688 58.3563 97.8599 58.2632C98.0317 58.1701 98.1642 58.0555 98.2573 57.9194C98.354 57.7834 98.4041 57.6545 98.4077 57.5327L98.8159 58.188C98.7586 58.3348 98.6799 58.487 98.5796 58.6445C98.4829 58.8021 98.3594 58.9507 98.209 59.0903C98.0586 59.2264 97.8778 59.3392 97.6665 59.4287C97.4552 59.5146 97.2046 59.5576 96.9146 59.5576C96.5457 59.5576 96.2109 59.4842 95.9102 59.3374C95.613 59.187 95.3766 58.9811 95.2012 58.7197C95.0293 58.4548 94.9434 58.154 94.9434 57.8174C94.9434 57.513 95.0007 57.2427 95.1152 57.0063C95.2298 56.77 95.3981 56.5713 95.6201 56.4102C95.8457 56.2454 96.1268 56.1219 96.4634 56.0396C96.8 55.9536 97.1903 55.9106 97.6343 55.9106H98.5312ZM102.71 51.2002V59.4502H101.158V51.2002H102.71Z" fill="url(#paint0_linear_296_33)"/>
<rect x="10.5174" y="76.5174" width="143.83" height="23.7992" rx="2.49581" fill="white" stroke="#263F5D" stroke-width="1.03475"/>
<path d="M21.021 84.5869V92.4502H20.0273V85.8276L18.0239 86.5581V85.6611L20.8652 84.5869H21.021ZM28.8521 87.917V89.1094C28.8521 89.7503 28.7948 90.291 28.6802 90.7314C28.5656 91.1719 28.4009 91.5264 28.186 91.7949C27.9712 92.0635 27.7116 92.2586 27.4072 92.3804C27.1064 92.4985 26.7663 92.5576 26.3867 92.5576C26.0859 92.5576 25.8084 92.52 25.5542 92.4448C25.3 92.3696 25.0708 92.2497 24.8667 92.085C24.6662 91.9167 24.4943 91.6982 24.3511 91.4297C24.2078 91.1611 24.0986 90.8353 24.0234 90.4521C23.9482 90.069 23.9106 89.6214 23.9106 89.1094V87.917C23.9106 87.276 23.9679 86.7389 24.0825 86.3057C24.2007 85.8724 24.3672 85.5251 24.582 85.2637C24.7969 84.9987 25.0547 84.8089 25.3555 84.6943C25.6598 84.5798 26 84.5225 26.376 84.5225C26.6803 84.5225 26.9596 84.5601 27.2139 84.6353C27.4717 84.7069 27.7008 84.8232 27.9014 84.9844C28.1019 85.1419 28.272 85.3532 28.4116 85.6182C28.5549 85.8796 28.6641 86.2 28.7393 86.5796C28.8145 86.9591 28.8521 87.4049 28.8521 87.917ZM27.853 89.2705V87.7505C27.853 87.3996 27.8315 87.0916 27.7886 86.8267C27.7492 86.5581 27.6901 86.3289 27.6113 86.1392C27.5326 85.9494 27.4323 85.7954 27.3105 85.6772C27.1924 85.5591 27.0545 85.4731 26.897 85.4194C26.743 85.3621 26.5693 85.3335 26.376 85.3335C26.1396 85.3335 25.9302 85.3783 25.7476 85.4678C25.5649 85.5537 25.411 85.6916 25.2856 85.8813C25.1639 86.0711 25.0708 86.32 25.0063 86.6279C24.9419 86.9359 24.9097 87.3101 24.9097 87.7505V89.2705C24.9097 89.6214 24.9294 89.9312 24.9688 90.1997C25.0117 90.4683 25.0744 90.701 25.1567 90.8979C25.2391 91.0913 25.3394 91.2507 25.4575 91.376C25.5757 91.5013 25.7118 91.5944 25.8657 91.6553C26.0233 91.7126 26.1969 91.7412 26.3867 91.7412C26.6302 91.7412 26.8433 91.6947 27.0259 91.6016C27.2085 91.5085 27.3607 91.3634 27.4824 91.1665C27.6077 90.966 27.7008 90.71 27.7617 90.3984C27.8226 90.0833 27.853 89.7074 27.853 89.2705ZM35.0396 87.917V89.1094C35.0396 89.7503 34.9823 90.291 34.8677 90.7314C34.7531 91.1719 34.5884 91.5264 34.3735 91.7949C34.1587 92.0635 33.8991 92.2586 33.5947 92.3804C33.2939 92.4985 32.9538 92.5576 32.5742 92.5576C32.2734 92.5576 31.9959 92.52 31.7417 92.4448C31.4875 92.3696 31.2583 92.2497 31.0542 92.085C30.8537 91.9167 30.6818 91.6982 30.5386 91.4297C30.3953 91.1611 30.2861 90.8353 30.2109 90.4521C30.1357 90.069 30.0981 89.6214 30.0981 89.1094V87.917C30.0981 87.276 30.1554 86.7389 30.27 86.3057C30.3882 85.8724 30.5547 85.5251 30.7695 85.2637C30.9844 84.9987 31.2422 84.8089 31.543 84.6943C31.8473 84.5798 32.1875 84.5225 32.5635 84.5225C32.8678 84.5225 33.1471 84.5601 33.4014 84.6353C33.6592 84.7069 33.8883 84.8232 34.0889 84.9844C34.2894 85.1419 34.4595 85.3532 34.5991 85.6182C34.7424 85.8796 34.8516 86.2 34.9268 86.5796C35.002 86.9591 35.0396 87.4049 35.0396 87.917ZM34.0405 89.2705V87.7505C34.0405 87.3996 34.019 87.0916 33.9761 86.8267C33.9367 86.5581 33.8776 86.3289 33.7988 86.1392C33.7201 85.9494 33.6198 85.7954 33.498 85.6772C33.3799 85.5591 33.242 85.4731 33.0845 85.4194C32.9305 85.3621 32.7568 85.3335 32.5635 85.3335C32.3271 85.3335 32.1177 85.3783 31.9351 85.4678C31.7524 85.5537 31.5985 85.6916 31.4731 85.8813C31.3514 86.0711 31.2583 86.32 31.1938 86.6279C31.1294 86.9359 31.0972 87.3101 31.0972 87.7505V89.2705C31.0972 89.6214 31.1169 89.9312 31.1562 90.1997C31.1992 90.4683 31.2619 90.701 31.3442 90.8979C31.4266 91.0913 31.5269 91.2507 31.645 91.376C31.7632 91.5013 31.8993 91.5944 32.0532 91.6553C32.2108 91.7126 32.3844 91.7412 32.5742 91.7412C32.8177 91.7412 33.0308 91.6947 33.2134 91.6016C33.396 91.5085 33.5482 91.3634 33.6699 91.1665C33.7952 90.966 33.8883 90.71 33.9492 90.3984C34.0101 90.0833 34.0405 89.7074 34.0405 89.2705ZM37.3276 91.2686V92.0688C37.3276 92.3947 37.2453 92.7384 37.0806 93.1001C36.9159 93.4653 36.6849 93.7697 36.3877 94.0132L35.8237 93.6211C35.9383 93.4635 36.035 93.3024 36.1138 93.1377C36.1925 92.9766 36.2516 92.8083 36.291 92.6328C36.334 92.4609 36.3555 92.2783 36.3555 92.085V91.2686H37.3276ZM43.397 87.917V89.1094C43.397 89.7503 43.3397 90.291 43.2251 90.7314C43.1105 91.1719 42.9458 91.5264 42.731 91.7949C42.5161 92.0635 42.2565 92.2586 41.9521 92.3804C41.6514 92.4985 41.3112 92.5576 40.9316 92.5576C40.6309 92.5576 40.3534 92.52 40.0991 92.4448C39.8449 92.3696 39.6157 92.2497 39.4116 92.085C39.2111 91.9167 39.0392 91.6982 38.896 91.4297C38.7528 91.1611 38.6436 90.8353 38.5684 90.4521C38.4932 90.069 38.4556 89.6214 38.4556 89.1094V87.917C38.4556 87.276 38.5129 86.7389 38.6274 86.3057C38.7456 85.8724 38.9121 85.5251 39.127 85.2637C39.3418 84.9987 39.5996 84.8089 39.9004 84.6943C40.2048 84.5798 40.5449 84.5225 40.9209 84.5225C41.2253 84.5225 41.5046 84.5601 41.7588 84.6353C42.0166 84.7069 42.2458 84.8232 42.4463 84.9844C42.6468 85.1419 42.8169 85.3532 42.9565 85.6182C43.0998 85.8796 43.209 86.2 43.2842 86.5796C43.3594 86.9591 43.397 87.4049 43.397 87.917ZM42.3979 89.2705V87.7505C42.3979 87.3996 42.3765 87.0916 42.3335 86.8267C42.2941 86.5581 42.235 86.3289 42.1562 86.1392C42.0775 85.9494 41.9772 85.7954 41.8555 85.6772C41.7373 85.5591 41.5994 85.4731 41.4419 85.4194C41.2879 85.3621 41.1143 85.3335 40.9209 85.3335C40.6846 85.3335 40.4751 85.3783 40.2925 85.4678C40.1099 85.5537 39.9559 85.6916 39.8306 85.8813C39.7088 86.0711 39.6157 86.32 39.5513 86.6279C39.4868 86.9359 39.4546 87.3101 39.4546 87.7505V89.2705C39.4546 89.6214 39.4743 89.9312 39.5137 90.1997C39.5566 90.4683 39.6193 90.701 39.7017 90.8979C39.784 91.0913 39.8843 91.2507 40.0024 91.376C40.1206 91.5013 40.2567 91.5944 40.4106 91.6553C40.5682 91.7126 40.7419 91.7412 40.9316 91.7412C41.1751 91.7412 41.3882 91.6947 41.5708 91.6016C41.7534 91.5085 41.9056 91.3634 42.0273 91.1665C42.1527 90.966 42.2458 90.71 42.3066 90.3984C42.3675 90.0833 42.3979 89.7074 42.3979 89.2705ZM49.5845 87.917V89.1094C49.5845 89.7503 49.5272 90.291 49.4126 90.7314C49.298 91.1719 49.1333 91.5264 48.9185 91.7949C48.7036 92.0635 48.444 92.2586 48.1396 92.3804C47.8389 92.4985 47.4987 92.5576 47.1191 92.5576C46.8184 92.5576 46.5409 92.52 46.2866 92.4448C46.0324 92.3696 45.8032 92.2497 45.5991 92.085C45.3986 91.9167 45.2267 91.6982 45.0835 91.4297C44.9403 91.1611 44.8311 90.8353 44.7559 90.4521C44.6807 90.069 44.6431 89.6214 44.6431 89.1094V87.917C44.6431 87.276 44.7004 86.7389 44.8149 86.3057C44.9331 85.8724 45.0996 85.5251 45.3145 85.2637C45.5293 84.9987 45.7871 84.8089 46.0879 84.6943C46.3923 84.5798 46.7324 84.5225 47.1084 84.5225C47.4128 84.5225 47.6921 84.5601 47.9463 84.6353C48.2041 84.7069 48.4333 84.8232 48.6338 84.9844C48.8343 85.1419 49.0044 85.3532 49.144 85.6182C49.2873 85.8796 49.3965 86.2 49.4717 86.5796C49.5469 86.9591 49.5845 87.4049 49.5845 87.917ZM48.5854 89.2705V87.7505C48.5854 87.3996 48.564 87.0916 48.521 86.8267C48.4816 86.5581 48.4225 86.3289 48.3438 86.1392C48.265 85.9494 48.1647 85.7954 48.043 85.6772C47.9248 85.5591 47.7869 85.4731 47.6294 85.4194C47.4754 85.3621 47.3018 85.3335 47.1084 85.3335C46.8721 85.3335 46.6626 85.3783 46.48 85.4678C46.2974 85.5537 46.1434 85.6916 46.0181 85.8813C45.8963 86.0711 45.8032 86.32 45.7388 86.6279C45.6743 86.9359 45.6421 87.3101 45.6421 87.7505V89.2705C45.6421 89.6214 45.6618 89.9312 45.7012 90.1997C45.7441 90.4683 45.8068 90.701 45.8892 90.8979C45.9715 91.0913 46.0718 91.2507 46.1899 91.376C46.3081 91.5013 46.4442 91.5944 46.5981 91.6553C46.7557 91.7126 46.9294 91.7412 47.1191 91.7412C47.3626 91.7412 47.5757 91.6947 47.7583 91.6016C47.9409 91.5085 48.0931 91.3634 48.2148 91.1665C48.3402 90.966 48.4333 90.71 48.4941 90.3984C48.555 90.0833 48.5854 89.7074 48.5854 89.2705ZM55.772 87.917V89.1094C55.772 89.7503 55.7147 90.291 55.6001 90.7314C55.4855 91.1719 55.3208 91.5264 55.106 91.7949C54.8911 92.0635 54.6315 92.2586 54.3271 92.3804C54.0264 92.4985 53.6862 92.5576 53.3066 92.5576C53.0059 92.5576 52.7284 92.52 52.4741 92.4448C52.2199 92.3696 51.9907 92.2497 51.7866 92.085C51.5861 91.9167 51.4142 91.6982 51.271 91.4297C51.1278 91.1611 51.0186 90.8353 50.9434 90.4521C50.8682 90.069 50.8306 89.6214 50.8306 89.1094V87.917C50.8306 87.276 50.8879 86.7389 51.0024 86.3057C51.1206 85.8724 51.2871 85.5251 51.502 85.2637C51.7168 84.9987 51.9746 84.8089 52.2754 84.6943C52.5798 84.5798 52.9199 84.5225 53.2959 84.5225C53.6003 84.5225 53.8796 84.5601 54.1338 84.6353C54.3916 84.7069 54.6208 84.8232 54.8213 84.9844C55.0218 85.1419 55.1919 85.3532 55.3315 85.6182C55.4748 85.8796 55.584 86.2 55.6592 86.5796C55.7344 86.9591 55.772 87.4049 55.772 87.917ZM54.7729 89.2705V87.7505C54.7729 87.3996 54.7515 87.0916 54.7085 86.8267C54.6691 86.5581 54.61 86.3289 54.5312 86.1392C54.4525 85.9494 54.3522 85.7954 54.2305 85.6772C54.1123 85.5591 53.9744 85.4731 53.8169 85.4194C53.6629 85.3621 53.4893 85.3335 53.2959 85.3335C53.0596 85.3335 52.8501 85.3783 52.6675 85.4678C52.4849 85.5537 52.3309 85.6916 52.2056 85.8813C52.0838 86.0711 51.9907 86.32 51.9263 86.6279C51.8618 86.9359 51.8296 87.3101 51.8296 87.7505V89.2705C51.8296 89.6214 51.8493 89.9312 51.8887 90.1997C51.9316 90.4683 51.9943 90.701 52.0767 90.8979C52.159 91.0913 52.2593 91.2507 52.3774 91.376C52.4956 91.5013 52.6317 91.5944 52.7856 91.6553C52.9432 91.7126 53.1169 91.7412 53.3066 91.7412C53.5501 91.7412 53.7632 91.6947 53.9458 91.6016C54.1284 91.5085 54.2806 91.3634 54.4023 91.1665C54.5277 90.966 54.6208 90.71 54.6816 90.3984C54.7425 90.0833 54.7729 89.7074 54.7729 89.2705ZM60.9658 86.6387V92.4502H59.9668V86.6387H60.9658ZM59.8916 85.0972C59.8916 84.936 59.9399 84.8 60.0366 84.689C60.1369 84.578 60.2837 84.5225 60.4771 84.5225C60.6668 84.5225 60.8118 84.578 60.9121 84.689C61.016 84.8 61.0679 84.936 61.0679 85.0972C61.0679 85.2511 61.016 85.3836 60.9121 85.4946C60.8118 85.6021 60.6668 85.6558 60.4771 85.6558C60.2837 85.6558 60.1369 85.6021 60.0366 85.4946C59.9399 85.3836 59.8916 85.2511 59.8916 85.0972ZM63.5493 87.7935V92.4502H62.5503V86.6387H63.4956L63.5493 87.7935ZM63.3452 89.3242L62.8833 89.3081C62.8869 88.9106 62.9388 88.5436 63.0391 88.207C63.1393 87.8669 63.2879 87.5715 63.4849 87.3208C63.6818 87.0701 63.9271 86.8768 64.2207 86.7407C64.5143 86.6011 64.8545 86.5312 65.2412 86.5312C65.5133 86.5312 65.764 86.5706 65.9932 86.6494C66.2223 86.7246 66.4211 86.8446 66.5894 87.0093C66.7576 87.174 66.8883 87.3853 66.9814 87.6431C67.0745 87.9009 67.1211 88.2124 67.1211 88.5776V92.4502H66.1274V88.626C66.1274 88.3216 66.0755 88.0781 65.9717 87.8955C65.8714 87.7129 65.7282 87.5804 65.542 87.498C65.3558 87.4121 65.1374 87.3691 64.8867 87.3691C64.5931 87.3691 64.3478 87.4211 64.1509 87.5249C63.9539 87.6287 63.7964 87.772 63.6782 87.9546C63.5601 88.1372 63.4741 88.3467 63.4204 88.583C63.3703 88.8158 63.3452 89.0628 63.3452 89.3242ZM67.1104 88.7764L66.4443 88.9805C66.4479 88.6618 66.4998 88.3556 66.6001 88.062C66.7039 87.7684 66.8525 87.507 67.0459 87.2778C67.2428 87.0487 67.4845 86.8678 67.771 86.7354C68.0575 86.5993 68.3851 86.5312 68.7539 86.5312C69.0654 86.5312 69.3411 86.5724 69.5811 86.6548C69.8245 86.7371 70.0286 86.8643 70.1934 87.0361C70.3617 87.2044 70.4888 87.4211 70.5747 87.686C70.6606 87.951 70.7036 88.2661 70.7036 88.6313V92.4502H69.7046V88.6206C69.7046 88.2948 69.6527 88.0423 69.5488 87.8633C69.4486 87.6807 69.3053 87.5535 69.1191 87.4819C68.9365 87.4067 68.7181 87.3691 68.4639 87.3691C68.2454 87.3691 68.0521 87.4067 67.8838 87.4819C67.7155 87.5571 67.5741 87.661 67.4595 87.7935C67.3449 87.9224 67.2572 88.071 67.1963 88.2393C67.139 88.4076 67.1104 88.5866 67.1104 88.7764ZM73.2012 87.7559V94.6846H72.2021V86.6387H73.1152L73.2012 87.7559ZM77.1167 89.4961V89.6089C77.1167 90.0314 77.0666 90.4235 76.9663 90.7852C76.866 91.1432 76.7192 91.4548 76.5259 91.7197C76.3361 91.9847 76.1016 92.1906 75.8223 92.3374C75.543 92.4842 75.2225 92.5576 74.8608 92.5576C74.492 92.5576 74.1662 92.4967 73.8833 92.375C73.6004 92.2533 73.3605 92.076 73.1636 91.8433C72.9666 91.6105 72.8091 91.3312 72.6909 91.0054C72.5763 90.6795 72.4976 90.3125 72.4546 89.9043V89.3027C72.4976 88.873 72.5781 88.4881 72.6963 88.1479C72.8145 87.8078 72.9702 87.5177 73.1636 87.2778C73.3605 87.0343 73.5986 86.8499 73.8779 86.7246C74.1572 86.5957 74.4795 86.5312 74.8447 86.5312C75.21 86.5312 75.534 86.6029 75.8169 86.7461C76.0998 86.8857 76.3379 87.0863 76.5312 87.3477C76.7246 87.609 76.8696 87.9224 76.9663 88.2876C77.0666 88.6493 77.1167 89.0521 77.1167 89.4961ZM76.1177 89.6089V89.4961C76.1177 89.2061 76.0872 88.9339 76.0264 88.6797C75.9655 88.4219 75.8706 88.1963 75.7417 88.0029C75.6164 87.806 75.4552 87.652 75.2583 87.541C75.0614 87.4264 74.8268 87.3691 74.5547 87.3691C74.304 87.3691 74.0856 87.4121 73.8994 87.498C73.7168 87.584 73.561 87.7004 73.4321 87.8472C73.3032 87.9904 73.1976 88.1551 73.1152 88.3413C73.0365 88.5239 72.9774 88.7137 72.938 88.9106V90.3018C73.0096 90.5524 73.1099 90.7887 73.2388 91.0107C73.3677 91.2292 73.5396 91.4064 73.7544 91.5425C73.9692 91.675 74.2396 91.7412 74.5654 91.7412C74.834 91.7412 75.0649 91.6857 75.2583 91.5747C75.4552 91.4601 75.6164 91.3044 75.7417 91.1074C75.8706 90.9105 75.9655 90.6849 76.0264 90.4307C76.0872 90.1729 76.1177 89.8989 76.1177 89.6089ZM79.3779 87.5518V92.4502H78.3843V86.6387H79.3511L79.3779 87.5518ZM81.1934 86.6064L81.188 87.5303C81.1056 87.5124 81.0269 87.5016 80.9517 87.498C80.88 87.4909 80.7977 87.4873 80.7046 87.4873C80.4754 87.4873 80.2731 87.5231 80.0977 87.5947C79.9222 87.6663 79.7736 87.7666 79.6519 87.8955C79.5301 88.0244 79.4334 88.1784 79.3618 88.3574C79.2938 88.5329 79.249 88.7262 79.2275 88.9375L78.9482 89.0986C78.9482 88.7477 78.9823 88.4183 79.0503 88.1104C79.1219 87.8024 79.2311 87.5303 79.3779 87.2939C79.5247 87.054 79.7109 86.8678 79.9365 86.7354C80.1657 86.5993 80.4378 86.5312 80.7529 86.5312C80.8245 86.5312 80.9069 86.5402 81 86.5581C81.0931 86.5724 81.1576 86.5885 81.1934 86.6064ZM84.416 92.5576C84.0114 92.5576 83.6444 92.4896 83.3149 92.3535C82.9891 92.2139 82.708 92.0187 82.4717 91.7681C82.2389 91.5174 82.0599 91.2202 81.9346 90.8765C81.8092 90.5327 81.7466 90.1567 81.7466 89.7485V89.5229C81.7466 89.0503 81.8164 88.6296 81.9561 88.2607C82.0957 87.8883 82.2855 87.5732 82.5254 87.3154C82.7653 87.0576 83.0374 86.8625 83.3418 86.73C83.6462 86.5975 83.9613 86.5312 84.2871 86.5312C84.7025 86.5312 85.0605 86.6029 85.3613 86.7461C85.6657 86.8893 85.9146 87.0898 86.1079 87.3477C86.3013 87.6019 86.4445 87.9027 86.5376 88.25C86.6307 88.5938 86.6772 88.9697 86.6772 89.3779V89.8237H82.3374V89.0127H85.6836V88.9375C85.6693 88.6797 85.6156 88.429 85.5225 88.1855C85.4329 87.9421 85.2897 87.7415 85.0928 87.584C84.8958 87.4264 84.6273 87.3477 84.2871 87.3477C84.0615 87.3477 83.8538 87.396 83.6641 87.4927C83.4743 87.5858 83.3114 87.7254 83.1753 87.9116C83.0392 88.0978 82.9336 88.3252 82.8584 88.5938C82.7832 88.8623 82.7456 89.172 82.7456 89.5229V89.7485C82.7456 90.0243 82.7832 90.2839 82.8584 90.5273C82.9372 90.7673 83.05 90.9785 83.1968 91.1611C83.3472 91.3438 83.528 91.487 83.7393 91.5908C83.9541 91.6947 84.1976 91.7466 84.4697 91.7466C84.8206 91.7466 85.1178 91.675 85.3613 91.5317C85.6048 91.3885 85.8179 91.1969 86.0005 90.957L86.6021 91.4351C86.4767 91.6248 86.3174 91.8057 86.124 91.9775C85.9307 92.1494 85.6925 92.2891 85.4097 92.3965C85.1304 92.5039 84.7992 92.5576 84.416 92.5576ZM91.2212 90.9087C91.2212 90.7655 91.189 90.633 91.1245 90.5112C91.0636 90.3859 90.9365 90.2731 90.7432 90.1729C90.5534 90.069 90.2669 89.9795 89.8838 89.9043C89.5615 89.8363 89.2697 89.7557 89.0083 89.6626C88.7505 89.5695 88.5303 89.4567 88.3477 89.3242C88.1686 89.1917 88.0308 89.036 87.9341 88.8569C87.8374 88.6779 87.7891 88.4684 87.7891 88.2285C87.7891 87.9993 87.8392 87.7827 87.9395 87.5786C88.0433 87.3745 88.1883 87.1937 88.3745 87.0361C88.5643 86.8786 88.7917 86.755 89.0566 86.6655C89.3216 86.576 89.617 86.5312 89.9429 86.5312C90.4084 86.5312 90.8058 86.6136 91.1353 86.7783C91.4647 86.943 91.7171 87.1632 91.8926 87.439C92.068 87.7111 92.1558 88.0137 92.1558 88.3467H91.1621C91.1621 88.1855 91.1138 88.0298 91.0171 87.8794C90.924 87.7254 90.7861 87.5983 90.6035 87.498C90.4245 87.3978 90.2043 87.3477 89.9429 87.3477C89.6672 87.3477 89.4434 87.3906 89.2715 87.4766C89.1032 87.5589 88.9797 87.6646 88.9009 87.7935C88.8257 87.9224 88.7881 88.0584 88.7881 88.2017C88.7881 88.3091 88.806 88.4058 88.8418 88.4917C88.8812 88.5741 88.9492 88.651 89.0459 88.7227C89.1426 88.7907 89.2786 88.8551 89.4541 88.916C89.6296 88.9769 89.8534 89.0378 90.1255 89.0986C90.6017 89.2061 90.9938 89.335 91.3018 89.4854C91.6097 89.6357 91.8389 89.8201 91.9893 90.0386C92.1396 90.257 92.2148 90.522 92.2148 90.8335C92.2148 91.0877 92.1611 91.3205 92.0537 91.5317C91.9499 91.743 91.7977 91.9256 91.5972 92.0796C91.4002 92.23 91.1639 92.3481 90.8882 92.4341C90.616 92.5164 90.3099 92.5576 89.9697 92.5576C89.4577 92.5576 89.0244 92.4663 88.6699 92.2837C88.3154 92.1011 88.0469 91.8647 87.8643 91.5747C87.6816 91.2847 87.5903 90.9785 87.5903 90.6562H88.5894C88.6037 90.9284 88.6825 91.145 88.8257 91.3062C88.9689 91.4637 89.1444 91.5765 89.3521 91.6445C89.5597 91.709 89.7656 91.7412 89.9697 91.7412C90.2419 91.7412 90.4692 91.7054 90.6519 91.6338C90.8381 91.5622 90.9795 91.4637 91.0762 91.3384C91.1729 91.2131 91.2212 91.0698 91.2212 90.9087ZM96.9038 90.9087C96.9038 90.7655 96.8716 90.633 96.8071 90.5112C96.7463 90.3859 96.6191 90.2731 96.4258 90.1729C96.236 90.069 95.9495 89.9795 95.5664 89.9043C95.2441 89.8363 94.9523 89.7557 94.6909 89.6626C94.4331 89.5695 94.2129 89.4567 94.0303 89.3242C93.8512 89.1917 93.7134 89.036 93.6167 88.8569C93.52 88.6779 93.4717 88.4684 93.4717 88.2285C93.4717 87.9993 93.5218 87.7827 93.6221 87.5786C93.7259 87.3745 93.8709 87.1937 94.0571 87.0361C94.2469 86.8786 94.4743 86.755 94.7393 86.6655C95.0042 86.576 95.2996 86.5312 95.6255 86.5312C96.091 86.5312 96.4884 86.6136 96.8179 86.7783C97.1473 86.943 97.3997 87.1632 97.5752 87.439C97.7507 87.7111 97.8384 88.0137 97.8384 88.3467H96.8447C96.8447 88.1855 96.7964 88.0298 96.6997 87.8794C96.6066 87.7254 96.4688 87.5983 96.2861 87.498C96.1071 87.3978 95.8869 87.3477 95.6255 87.3477C95.3498 87.3477 95.126 87.3906 94.9541 87.4766C94.7858 87.5589 94.6623 87.6646 94.5835 87.7935C94.5083 87.9224 94.4707 88.0584 94.4707 88.2017C94.4707 88.3091 94.4886 88.4058 94.5244 88.4917C94.5638 88.5741 94.6318 88.651 94.7285 88.7227C94.8252 88.7907 94.9613 88.8551 95.1367 88.916C95.3122 88.9769 95.536 89.0378 95.8081 89.0986C96.2843 89.2061 96.6764 89.335 96.9844 89.4854C97.2923 89.6357 97.5215 89.8201 97.6719 90.0386C97.8223 90.257 97.8975 90.522 97.8975 90.8335C97.8975 91.0877 97.8438 91.3205 97.7363 91.5317C97.6325 91.743 97.4803 91.9256 97.2798 92.0796C97.0828 92.23 96.8465 92.3481 96.5708 92.4341C96.2987 92.5164 95.9925 92.5576 95.6523 92.5576C95.1403 92.5576 94.707 92.4663 94.3525 92.2837C93.998 92.1011 93.7295 91.8647 93.5469 91.5747C93.3643 91.2847 93.2729 90.9785 93.2729 90.6562H94.272C94.2863 90.9284 94.3651 91.145 94.5083 91.3062C94.6515 91.4637 94.827 91.5765 95.0347 91.6445C95.2424 91.709 95.4482 91.7412 95.6523 91.7412C95.9245 91.7412 96.1519 91.7054 96.3345 91.6338C96.5207 91.5622 96.6621 91.4637 96.7588 91.3384C96.8555 91.2131 96.9038 91.0698 96.9038 90.9087ZM100.282 86.6387V92.4502H99.2832V86.6387H100.282ZM99.208 85.0972C99.208 84.936 99.2563 84.8 99.353 84.689C99.4533 84.578 99.6001 84.5225 99.7935 84.5225C99.9832 84.5225 100.128 84.578 100.229 84.689C100.332 84.8 100.384 84.936 100.384 85.0972C100.384 85.2511 100.332 85.3836 100.229 85.4946C100.128 85.6021 99.9832 85.6558 99.7935 85.6558C99.6001 85.6558 99.4533 85.6021 99.353 85.4946C99.2563 85.3836 99.208 85.2511 99.208 85.0972ZM101.614 89.6089V89.4854C101.614 89.0664 101.675 88.6779 101.797 88.3198C101.919 87.9582 102.094 87.6449 102.323 87.3799C102.552 87.1113 102.83 86.9036 103.156 86.7568C103.482 86.6064 103.847 86.5312 104.251 86.5312C104.66 86.5312 105.027 86.6064 105.353 86.7568C105.682 86.9036 105.961 87.1113 106.19 87.3799C106.423 87.6449 106.6 87.9582 106.722 88.3198C106.844 88.6779 106.905 89.0664 106.905 89.4854V89.6089C106.905 90.0278 106.844 90.4163 106.722 90.7744C106.6 91.1325 106.423 91.4458 106.19 91.7144C105.961 91.9793 105.684 92.187 105.358 92.3374C105.036 92.4842 104.67 92.5576 104.262 92.5576C103.854 92.5576 103.487 92.4842 103.161 92.3374C102.835 92.187 102.556 91.9793 102.323 91.7144C102.094 91.4458 101.919 91.1325 101.797 90.7744C101.675 90.4163 101.614 90.0278 101.614 89.6089ZM102.608 89.4854V89.6089C102.608 89.8989 102.642 90.1729 102.71 90.4307C102.778 90.6849 102.88 90.9105 103.016 91.1074C103.156 91.3044 103.329 91.4601 103.537 91.5747C103.745 91.6857 103.986 91.7412 104.262 91.7412C104.534 91.7412 104.772 91.6857 104.977 91.5747C105.184 91.4601 105.356 91.3044 105.492 91.1074C105.628 90.9105 105.73 90.6849 105.798 90.4307C105.87 90.1729 105.906 89.8989 105.906 89.6089V89.4854C105.906 89.1989 105.87 88.9285 105.798 88.6743C105.73 88.4165 105.626 88.1891 105.487 87.9922C105.351 87.7917 105.179 87.6341 104.971 87.5195C104.767 87.4049 104.527 87.3477 104.251 87.3477C103.979 87.3477 103.739 87.4049 103.532 87.5195C103.328 87.6341 103.156 87.7917 103.016 87.9922C102.88 88.1891 102.778 88.4165 102.71 88.6743C102.642 88.9285 102.608 89.1989 102.608 89.4854ZM109.145 87.8794V92.4502H108.151V86.6387H109.091L109.145 87.8794ZM108.908 89.3242L108.495 89.3081C108.498 88.9106 108.557 88.5436 108.672 88.207C108.786 87.8669 108.948 87.5715 109.155 87.3208C109.363 87.0701 109.61 86.8768 109.896 86.7407C110.187 86.6011 110.507 86.5312 110.858 86.5312C111.144 86.5312 111.402 86.5706 111.631 86.6494C111.861 86.7246 112.056 86.8464 112.217 87.0146C112.382 87.1829 112.507 87.4014 112.593 87.6699C112.679 87.9349 112.722 88.259 112.722 88.6421V92.4502H111.723V88.6313C111.723 88.327 111.678 88.0835 111.588 87.9009C111.499 87.7147 111.368 87.5804 111.196 87.498C111.024 87.4121 110.813 87.3691 110.562 87.3691C110.315 87.3691 110.09 87.4211 109.886 87.5249C109.685 87.6287 109.512 87.772 109.365 87.9546C109.222 88.1372 109.109 88.3467 109.026 88.583C108.948 88.8158 108.908 89.0628 108.908 89.3242ZM117.615 90.9087C117.615 90.7655 117.583 90.633 117.518 90.5112C117.457 90.3859 117.33 90.2731 117.137 90.1729C116.947 90.069 116.66 89.9795 116.277 89.9043C115.955 89.8363 115.663 89.7557 115.402 89.6626C115.144 89.5695 114.924 89.4567 114.741 89.3242C114.562 89.1917 114.424 89.036 114.328 88.8569C114.231 88.6779 114.183 88.4684 114.183 88.2285C114.183 87.9993 114.233 87.7827 114.333 87.5786C114.437 87.3745 114.582 87.1937 114.768 87.0361C114.958 86.8786 115.185 86.755 115.45 86.6655C115.715 86.576 116.011 86.5312 116.336 86.5312C116.802 86.5312 117.199 86.6136 117.529 86.7783C117.858 86.943 118.111 87.1632 118.286 87.439C118.462 87.7111 118.549 88.0137 118.549 88.3467H117.556C117.556 88.1855 117.507 88.0298 117.411 87.8794C117.318 87.7254 117.18 87.5983 116.997 87.498C116.818 87.3978 116.598 87.3477 116.336 87.3477C116.061 87.3477 115.837 87.3906 115.665 87.4766C115.497 87.5589 115.373 87.6646 115.294 87.7935C115.219 87.9224 115.182 88.0584 115.182 88.2017C115.182 88.3091 115.2 88.4058 115.235 88.4917C115.275 88.5741 115.343 88.651 115.439 88.7227C115.536 88.7907 115.672 88.8551 115.848 88.916C116.023 88.9769 116.247 89.0378 116.519 89.0986C116.995 89.2061 117.387 89.335 117.695 89.4854C118.003 89.6357 118.232 89.8201 118.383 90.0386C118.533 90.257 118.608 90.522 118.608 90.8335C118.608 91.0877 118.555 91.3205 118.447 91.5317C118.343 91.743 118.191 91.9256 117.991 92.0796C117.794 92.23 117.557 92.3481 117.282 92.4341C117.01 92.5164 116.703 92.5576 116.363 92.5576C115.851 92.5576 115.418 92.4663 115.063 92.2837C114.709 92.1011 114.44 91.8647 114.258 91.5747C114.075 91.2847 113.984 90.9785 113.984 90.6562H114.983C114.997 90.9284 115.076 91.145 115.219 91.3062C115.362 91.4637 115.538 91.5765 115.746 91.6445C115.953 91.709 116.159 91.7412 116.363 91.7412C116.635 91.7412 116.863 91.7054 117.045 91.6338C117.232 91.5622 117.373 91.4637 117.47 91.3384C117.566 91.2131 117.615 91.0698 117.615 90.9087Z" fill="#001464"/>
<mask id="mask0_296_33" style="mask-type:alpha" maskUnits="userSpaceOnUse" x="132" y="46" width="20" height="20">
<rect x="132" y="46" width="20" height="20" fill="#D9D9D9"/>
</mask>
<g mask="url(#mask0_296_33)">
<path d="M142 58L138 54H146L142 58Z" fill="#263F5D"/>
</g>
<defs>
<linearGradient id="paint0_linear_296_33" x1="-20.6298" y1="55.9397" x2="123.956" y2="53.7055" gradientUnits="userSpaceOnUse">
<stop offset="0.317708" stop-color="#E43425"/>
<stop offset="0.71875" stop-color="#441FD8"/>
<stop offset="1" stop-color="#0A26B8"/>
</linearGradient>
</defs>
</svg>
