<svg width="44" height="41" viewBox="0 0 44 41" fill="none" xmlns="http://www.w3.org/2000/svg">
<path d="M0.5 7.28C0.5 3.53551 3.53551 0.5 7.28 0.5H36.7183C40.4637 0.5 43.5 3.53628 43.5 7.28171V40.5H0.5V7.28Z" fill="white" stroke="#263F5D"/>
<path d="M36.7071 40.8394C36.3713 38.2978 36.044 35.7628 33.0697 34.9313C30.7388 34.2795 25.8268 33.2269 22.8939 33.1733L21.7473 32.6089C21.7341 32.6089 21.72 32.6117 21.7069 32.6117C21.6937 32.6117 21.6796 32.6089 21.6664 32.6089V32.6145C18.7335 32.6672 12.8131 34.2992 10.4719 34.9313C8.13066 35.5634 7.29254 37.9987 7 40.8394H36.7071Z" fill="url(#paint0_linear_296_37)"/>
<path d="M25.4862 33.9519C25.4862 35.2688 23.5071 36.0956 21.5195 36.1003C19.5169 36.1041 17.5059 35.2698 17.5059 33.9519V27.1841H25.4862V33.9519Z" fill="url(#paint1_radial_296_37)"/>
<path d="M30.3741 20.1897C31.0025 19.9987 32.4144 20.1191 32.4144 21.8734C32.4144 23.6145 32.1877 24.2871 31.612 24.9982C30.9667 25.7968 29.806 25.7911 29.901 25.1562C29.9979 24.5222 30.3741 20.1897 30.3741 20.1897Z" fill="url(#paint2_linear_296_37)"/>
<path d="M12.7443 20.1897C12.116 19.9987 10.7041 20.1191 10.7041 21.8734C10.7041 23.6145 10.9308 24.2871 11.5065 24.9982C12.1517 25.7968 13.3125 25.7911 13.2175 25.1562C13.1206 24.5222 12.7443 20.1897 12.7443 20.1897Z" fill="url(#paint3_linear_296_37)"/>
<path d="M31.5166 20.2891C31.5166 22.5636 31.0021 24.6922 30.1076 26.5114C28.3646 30.0567 25.1768 33.1043 21.5337 33.1043C17.8906 33.1043 14.7028 30.0567 12.9598 26.5114C12.0653 24.6913 11.5508 22.5636 11.5508 20.2891C11.5508 19.7897 11.5639 19.3175 11.5912 18.8697C11.7436 16.2952 12.3249 14.5202 13.227 12.8788C15.017 9.61955 18.0694 8.14746 21.5346 8.14746C24.9802 8.14746 28.0184 9.59604 29.8132 12.8262C30.8883 14.7639 31.5166 16.916 31.5166 20.2891Z" fill="url(#paint4_radial_296_37)"/>
<path d="M32.171 14.2836C32.4673 14.039 32.4034 13.3975 32.3817 13.0391C32.2547 10.9265 30.5672 8.75643 28.6897 8.24566C28.5665 8.2118 28.4405 8.17888 28.3144 8.13561C28.6267 7.47246 28.4348 6.83472 27.4481 6.89021C24.6657 7.0473 25.4323 5.66457 22.7948 6.21013C22.4788 6.2534 22.1618 6.34276 21.8429 6.49703C19.8281 5.37579 17.9769 6.38133 16.4343 7.26082C15.3996 7.8506 14.6028 7.84589 13.7563 7.88916C12.6407 7.94654 12.9059 9.10728 13.3631 9.26813C12.0744 9.86073 11.083 11.2783 10.8572 11.8201C10.6625 12.2885 10.9165 12.8632 11.3426 12.6817C11.0106 13.1859 10.8366 13.5151 10.8366 14.308C10.6625 17.5513 10.8883 22.12 12.4864 24.3625C11.8421 21.2433 12.0735 19.8502 12.5824 18.349C15.0515 11.0788 18.8093 14.0334 19.1132 14.2563C20.4272 15.2186 22.6114 15.1922 23.8107 14.4002C24.0186 14.2629 27.8328 10.712 30.4901 18.0405C30.8438 19.0168 30.9548 21.9036 30.6651 24.4753C32.8859 20.757 32.4419 15.4697 32.171 14.2836Z" fill="url(#paint5_radial_296_37)"/>
<path d="M10.4717 23.1062C10.4747 23.1072 10.4777 23.1082 10.4806 23.1092C10.4797 23.0972 10.4777 23.0833 10.4767 23.0703C10.4757 23.0823 10.4727 23.0932 10.4717 23.1062Z" fill="#ECBE49"/>
<path d="M21.7061 25.2335C22.3264 25.2335 22.8292 24.902 22.8292 24.4932C22.8292 24.0844 22.3264 23.7529 21.7061 23.7529C21.0858 23.7529 20.583 24.0844 20.583 24.4932C20.583 24.902 21.0858 25.2335 21.7061 25.2335Z" fill="url(#paint6_radial_296_37)"/>
<path d="M32.7295 23.9455C32.7323 23.9445 32.7352 23.9436 32.739 23.9436C32.738 23.9122 32.7371 23.8809 32.7352 23.8477C32.7333 23.8818 32.7323 23.9189 32.7295 23.9455Z" fill="#ECBE49"/>
<path d="M14.1408 21.6668C14.0468 21.8606 14.0769 22.0158 14.1408 22.1719C14.408 22.853 16.5583 25.2807 19.4592 22.7326C19.6755 22.5529 19.7094 22.3939 19.6558 22.1691C19.6031 21.9452 18.8506 20.1091 16.8818 20.1091C14.9319 20.1091 14.3036 21.4034 14.1408 21.6668Z" fill="white"/>
<path d="M16.8309 23.1589C17.6943 23.1589 18.3942 22.459 18.3942 21.5956C18.3942 20.7322 17.6943 20.0322 16.8309 20.0322C15.9675 20.0322 15.2676 20.7322 15.2676 21.5956C15.2676 22.459 15.9675 23.1589 16.8309 23.1589Z" fill="url(#paint7_linear_296_37)"/>
<path d="M16.8303 22.3813C17.2651 22.3813 17.6176 22.0288 17.6176 21.5939C17.6176 21.1591 17.2651 20.8066 16.8303 20.8066C16.3955 20.8066 16.043 21.1591 16.043 21.5939C16.043 22.0288 16.3955 22.3813 16.8303 22.3813Z" fill="url(#paint8_radial_296_37)"/>
<path d="M16.036 21.0251C16.249 21.0251 16.4217 20.8524 16.4217 20.6394C16.4217 20.4264 16.249 20.2538 16.036 20.2538C15.8231 20.2538 15.6504 20.4264 15.6504 20.6394C15.6504 20.8524 15.8231 21.0251 16.036 21.0251Z" fill="white"/>
<path d="M14.5691 18.4997C14.8052 18.1253 15.045 17.971 15.3206 17.7886C15.5915 17.6239 15.8775 17.4941 16.1662 17.3973C16.7457 17.1941 17.3364 17.0934 17.9243 17.0304C18.3137 16.9871 18.6655 17.2674 18.7088 17.6569C18.752 18.0463 18.4717 18.3981 18.0823 18.4414C18.0315 18.447 17.9741 18.4461 17.9243 18.4414C17.4154 18.3849 16.9028 18.3614 16.4136 18.4197C16.1672 18.4451 15.9301 18.4969 15.7072 18.5712C15.4965 18.6332 15.2548 18.7809 15.1654 18.8534L15.0629 18.9371C14.9199 19.0537 14.7092 19.0321 14.5926 18.8891C14.4994 18.7753 14.4947 18.6182 14.5691 18.4997Z" fill="url(#paint9_linear_296_37)"/>
<path d="M28.4814 18.8528C28.392 18.7804 28.1503 18.6318 27.9396 18.5706C27.7166 18.4963 27.4805 18.4446 27.2331 18.4192C26.744 18.3599 26.2314 18.3835 25.7225 18.4408C25.3331 18.4841 24.9813 18.2038 24.938 17.8144C24.8947 17.425 25.175 17.0732 25.5645 17.0299C25.6153 17.0242 25.6726 17.0252 25.7225 17.0299C26.3104 17.0929 26.902 17.1936 27.4805 17.3967C27.7693 17.4936 28.0543 17.6234 28.3262 17.788C28.6027 17.9705 28.8416 18.1248 29.0777 18.4992C29.1765 18.6553 29.1295 18.8622 28.9733 18.961C28.8491 19.04 28.6921 19.0259 28.5839 18.9384L28.4814 18.8528Z" fill="url(#paint10_linear_296_37)"/>
<path d="M28.9553 21.6668C29.0494 21.8606 29.0193 22.0158 28.9553 22.1719C28.6882 22.853 26.5379 25.2807 23.637 22.7326C23.4206 22.5529 23.3868 22.3939 23.4404 22.1691C23.4931 21.9452 24.2446 20.1091 26.2143 20.1091C28.1633 20.1091 28.7917 21.4034 28.9553 21.6668Z" fill="white"/>
<path d="M26.2596 23.159C27.123 23.159 27.8229 22.4591 27.8229 21.5957C27.8229 20.7323 27.123 20.0323 26.2596 20.0323C25.3962 20.0323 24.6963 20.7323 24.6963 21.5957C24.6963 22.4591 25.3962 23.159 26.2596 23.159Z" fill="url(#paint11_linear_296_37)"/>
<path d="M26.259 22.3814C26.6938 22.3814 27.0463 22.0289 27.0463 21.5941C27.0463 21.1593 26.6938 20.8068 26.259 20.8068C25.8242 20.8068 25.4717 21.1593 25.4717 21.5941C25.4717 22.0289 25.8242 22.3814 26.259 22.3814Z" fill="url(#paint12_radial_296_37)"/>
<path d="M25.3554 20.998C25.5684 20.998 25.741 20.8253 25.741 20.6123C25.741 20.3994 25.5684 20.2267 25.3554 20.2267C25.1424 20.2267 24.9697 20.3994 24.9697 20.6123C24.9697 20.8253 25.1424 20.998 25.3554 20.998Z" fill="white"/>
<path d="M24.263 27.7626C24.263 27.7626 24.2987 30.0662 21.4411 30.0662C18.5834 30.0662 18.6192 27.7626 18.6192 27.7626C18.6192 27.7626 19.2466 28.4643 21.4411 28.4643C23.6356 28.4643 24.263 27.7626 24.263 27.7626Z" fill="url(#paint13_radial_296_37)"/>
<path d="M18.8142 27.7626C18.66 27.7626 18.5706 27.9262 18.6468 28.0579C19.2103 29.0362 20.4999 29.3315 21.4414 29.3315C22.4639 29.3315 23.6726 29.0362 24.2361 28.0579C24.3122 27.9262 24.2219 27.7626 24.0686 27.7626C22.3303 27.8764 20.5798 27.8849 18.8142 27.7626Z" fill="url(#paint14_radial_296_37)"/>
<defs>
<linearGradient id="paint0_linear_296_37" x1="36.713" y1="36.7255" x2="7.00309" y2="36.7255" gradientUnits="userSpaceOnUse">
<stop stop-color="#530085"/>
<stop offset="0.1" stop-color="#530085"/>
<stop offset="0.9" stop-color="#0052F2"/>
<stop offset="1" stop-color="#0052F2"/>
</linearGradient>
<radialGradient id="paint1_radial_296_37" cx="0" cy="0" r="1" gradientUnits="userSpaceOnUse" gradientTransform="translate(21.4848 31.6531) rotate(180) scale(4.00156 9.34625)">
<stop stop-color="#792D3D"/>
<stop offset="1" stop-color="#AA316D"/>
</radialGradient>
<linearGradient id="paint2_linear_296_37" x1="32.4144" y1="22.8762" x2="29.8884" y2="22.8762" gradientUnits="userSpaceOnUse">
<stop stop-color="#AA316D"/>
<stop offset="1" stop-color="#792D3D"/>
</linearGradient>
<linearGradient id="paint3_linear_296_37" x1="13.223" y1="22.8762" x2="10.697" y2="22.8762" gradientUnits="userSpaceOnUse">
<stop stop-color="#AA316D"/>
<stop offset="1" stop-color="#792D3D"/>
</linearGradient>
<radialGradient id="paint4_radial_296_37" cx="0" cy="0" r="1" gradientUnits="userSpaceOnUse" gradientTransform="translate(21.763 24.5079) rotate(180) scale(11.573 23.5714)">
<stop stop-color="#AA316D"/>
<stop offset="1" stop-color="#792D3D"/>
</radialGradient>
<radialGradient id="paint5_radial_296_37" cx="0" cy="0" r="1" gradientUnits="userSpaceOnUse" gradientTransform="translate(21.5953 15.2386) scale(10.8069)">
<stop stop-color="#444B8B"/>
<stop offset="0.99" stop-color="#26264F"/>
</radialGradient>
<radialGradient id="paint6_radial_296_37" cx="0" cy="0" r="1" gradientUnits="userSpaceOnUse" gradientTransform="translate(21.703 24.495) rotate(180) scale(1.12632 0.576437)">
<stop stop-color="#AA316D"/>
<stop offset="1" stop-color="#792D3D"/>
</radialGradient>
<linearGradient id="paint7_linear_296_37" x1="15.2676" y1="21.5956" x2="18.3942" y2="21.5956" gradientUnits="userSpaceOnUse">
<stop stop-color="#C69C6D"/>
<stop offset="1" stop-color="#754C24"/>
</linearGradient>
<radialGradient id="paint8_radial_296_37" cx="0" cy="0" r="1" gradientUnits="userSpaceOnUse" gradientTransform="translate(16.8303 21.5939) scale(0.78731)">
<stop stop-color="#1C1911"/>
<stop offset="0.999" stop-color="#171714"/>
</radialGradient>
<linearGradient id="paint9_linear_296_37" x1="14.5178" y1="18.0192" x2="18.7131" y2="18.0192" gradientUnits="userSpaceOnUse">
<stop stop-color="#26264F"/>
<stop offset="1" stop-color="#444B8B"/>
</linearGradient>
<linearGradient id="paint10_linear_296_37" x1="24.9338" y1="18.0195" x2="29.1293" y2="18.0195" gradientUnits="userSpaceOnUse">
<stop stop-color="#444B8B"/>
<stop offset="0.99" stop-color="#26264F"/>
</linearGradient>
<linearGradient id="paint11_linear_296_37" x1="24.6963" y1="21.5957" x2="27.8229" y2="21.5957" gradientUnits="userSpaceOnUse">
<stop stop-color="#C69C6D"/>
<stop offset="1" stop-color="#754C24"/>
</linearGradient>
<radialGradient id="paint12_radial_296_37" cx="0" cy="0" r="1" gradientUnits="userSpaceOnUse" gradientTransform="translate(26.259 21.5941) scale(0.787311 0.787309)">
<stop stop-color="#1C1911"/>
<stop offset="0.999" stop-color="#171714"/>
</radialGradient>
<radialGradient id="paint13_radial_296_37" cx="0" cy="0" r="1" gradientUnits="userSpaceOnUse" gradientTransform="translate(21.4331 28.9172) rotate(180) scale(2.82998 0.896882)">
<stop stop-color="#AA316D"/>
<stop offset="1" stop-color="#792D3D"/>
</radialGradient>
<radialGradient id="paint14_radial_296_37" cx="0" cy="0" r="1" gradientUnits="userSpaceOnUse" gradientTransform="translate(21.4806 27.7047) scale(2.41649 2.4658)">
<stop stop-color="#1C1911"/>
<stop offset="0.999" stop-color="#171714"/>
</radialGradient>
</defs>
</svg>
