<svg width="46" height="40" viewBox="0 0 46 40" fill="none" xmlns="http://www.w3.org/2000/svg">
<mask id="path-1-inside-1_226_2225" fill="white">
<path fill-rule="evenodd" clip-rule="evenodd" d="M13.7474 36.582C16.5506 37.6017 19.6463 38.1673 22.9004 38.1673C35.5479 38.1673 45.8008 29.6233 45.8008 19.0837C45.8008 8.54405 35.5479 0 22.9004 0C10.2529 0 0 8.54405 0 19.0837C0 24.0098 2.2398 28.5 5.91703 31.8856L3.35165 37.6953C2.87292 38.7793 3.91107 39.9134 5.03319 39.5339L13.7474 36.582Z"/>
</mask>
<path fill-rule="evenodd" clip-rule="evenodd" d="M13.7474 36.582C16.5506 37.6017 19.6463 38.1673 22.9004 38.1673C35.5479 38.1673 45.8008 29.6233 45.8008 19.0837C45.8008 8.54405 35.5479 0 22.9004 0C10.2529 0 0 8.54405 0 19.0837C0 24.0098 2.2398 28.5 5.91703 31.8856L3.35165 37.6953C2.87292 38.7793 3.91107 39.9134 5.03319 39.5339L13.7474 36.582Z" fill="#3E64FF"/>
<path d="M13.7474 36.582L13.4266 35.6349L13.7592 35.5222L14.0893 35.6423L13.7474 36.582ZM5.91703 31.8856L6.59436 31.1499L7.12095 31.6348L6.83182 32.2896L5.91703 31.8856ZM3.35165 37.6953L4.26643 38.0993L4.2664 38.0993L3.35165 37.6953ZM5.03319 39.5339L5.35402 40.481L5.35355 40.4812L5.03319 39.5339ZM22.9004 39.1673C19.5305 39.1673 16.3191 38.5816 13.4056 37.5218L14.0893 35.6423C16.7822 36.6218 19.762 37.1673 22.9004 37.1673V39.1673ZM46.8008 19.0837C46.8008 30.3385 35.9218 39.1673 22.9004 39.1673V37.1673C35.1741 37.1673 44.8008 28.908 44.8008 19.0837H46.8008ZM22.9004 -1C35.9218 -1 46.8008 7.82879 46.8008 19.0837H44.8008C44.8008 9.2593 35.1741 1 22.9004 1V-1ZM-1 19.0837C-1 7.82879 9.87903 -1 22.9004 -1V1C10.6267 1 1 9.2593 1 19.0837H-1ZM5.2397 32.6213C1.3871 29.0742 -1 24.328 -1 19.0837H1C1 23.6916 3.09249 27.9258 6.59436 31.1499L5.2397 32.6213ZM2.43686 37.2914L5.00224 31.4817L6.83182 32.2896L4.26643 38.0993L2.43686 37.2914ZM5.35355 40.4812C3.40864 41.139 1.60599 39.1727 2.43689 37.2913L4.2664 38.0993C4.13984 38.3859 4.41349 38.6878 4.71282 38.5866L5.35355 40.4812ZM14.0683 37.5291L5.35402 40.481L4.71235 38.5868L13.4266 35.6349L14.0683 37.5291Z" fill="#001464" mask="url(#path-1-inside-1_226_2225)"/>
<mask id="mask0_226_2225" style="mask-type:alpha" maskUnits="userSpaceOnUse" x="11" y="7" width="24" height="24">
<rect x="11" y="7" width="24" height="24" fill="#D9D9D9"/>
</mask>
<g mask="url(#mask0_226_2225)">
<path d="M23 23C24.25 23 25.3125 22.5625 26.1875 21.6875C27.0625 20.8125 27.5 19.75 27.5 18.5C27.5 17.25 27.0625 16.1875 26.1875 15.3125C25.3125 14.4375 24.25 14 23 14C21.75 14 20.6875 14.4375 19.8125 15.3125C18.9375 16.1875 18.5 17.25 18.5 18.5C18.5 19.75 18.9375 20.8125 19.8125 21.6875C20.6875 22.5625 21.75 23 23 23ZM23 21.2C22.25 21.2 21.6125 20.9375 21.0875 20.4125C20.5625 19.8875 20.3 19.25 20.3 18.5C20.3 17.75 20.5625 17.1125 21.0875 16.5875C21.6125 16.0625 22.25 15.8 23 15.8C23.75 15.8 24.3875 16.0625 24.9125 16.5875C25.4375 17.1125 25.7 17.75 25.7 18.5C25.7 19.25 25.4375 19.8875 24.9125 20.4125C24.3875 20.9375 23.75 21.2 23 21.2ZM23 26C20.5667 26 18.35 25.3208 16.35 23.9625C14.35 22.6042 12.9 20.7833 12 18.5C12.9 16.2167 14.35 14.3958 16.35 13.0375C18.35 11.6792 20.5667 11 23 11C25.4333 11 27.65 11.6792 29.65 13.0375C31.65 14.3958 33.1 16.2167 34 18.5C33.1 20.7833 31.65 22.6042 29.65 23.9625C27.65 25.3208 25.4333 26 23 26Z" fill="white"/>
</g>
</svg>
