<svg width="164" height="111" viewBox="0 0 164 111" fill="none" xmlns="http://www.w3.org/2000/svg">
<rect x="0.5" y="0.5" width="163" height="110" rx="7.78" fill="#DFE9FF" stroke="#001464"/>
<path d="M14.6606 13.7578V23H12.7627V13.7578H14.6606ZM17.5044 13.7578V15.2495H9.96338V13.7578H17.5044ZM20.0181 22.2256L21.8398 16.1318H23.8013L21.04 24.0347C20.9808 24.2082 20.9004 24.3944 20.7988 24.5933C20.7015 24.7922 20.5682 24.9805 20.3989 25.1582C20.2339 25.3402 20.0244 25.4883 19.7705 25.6025C19.5208 25.7168 19.214 25.7739 18.8501 25.7739C18.6766 25.7739 18.5348 25.7633 18.4248 25.7422C18.3148 25.721 18.1836 25.6914 18.0312 25.6533V24.314C18.0778 24.314 18.1265 24.314 18.1772 24.314C18.228 24.3182 18.2767 24.3203 18.3232 24.3203C18.5645 24.3203 18.7612 24.2928 18.9136 24.2378C19.0659 24.1828 19.1886 24.0981 19.2817 23.9839C19.3748 23.8739 19.4489 23.73 19.5039 23.5522L20.0181 22.2256ZM19.2563 16.1318L20.748 21.1084L21.0083 23.0444L19.7642 23.1777L17.2949 16.1318H19.2563ZM26.3594 17.4521V25.6406H24.5312V16.1318H26.2261L26.3594 17.4521ZM30.7075 19.4897V19.623C30.7075 20.1224 30.6483 20.5858 30.5298 21.0132C30.4155 21.4406 30.2463 21.813 30.022 22.1304C29.7977 22.4435 29.5184 22.689 29.1841 22.8667C28.854 23.0402 28.4731 23.127 28.0415 23.127C27.6226 23.127 27.2586 23.0423 26.9497 22.873C26.6408 22.7038 26.3805 22.4668 26.1689 22.1621C25.9616 21.8532 25.7944 21.4956 25.6675 21.0894C25.5405 20.6831 25.4432 20.2472 25.3755 19.7817V19.4326C25.4432 18.9333 25.5405 18.4762 25.6675 18.0615C25.7944 17.6426 25.9616 17.2808 26.1689 16.9761C26.3805 16.6672 26.6387 16.4281 26.9434 16.2588C27.2523 16.0895 27.6141 16.0049 28.0288 16.0049C28.4647 16.0049 28.8477 16.0874 29.1777 16.2524C29.512 16.4175 29.7913 16.6545 30.0156 16.9634C30.2441 17.2723 30.4155 17.6405 30.5298 18.0679C30.6483 18.4953 30.7075 18.9692 30.7075 19.4897ZM28.873 19.623V19.4897C28.873 19.1978 28.8477 18.929 28.7969 18.6836C28.7503 18.4339 28.6742 18.216 28.5684 18.0298C28.4668 17.8436 28.3314 17.6997 28.1621 17.5981C27.9971 17.4924 27.7961 17.4395 27.5591 17.4395C27.3094 17.4395 27.0957 17.4797 26.918 17.5601C26.7445 17.6405 26.6027 17.7568 26.4927 17.9092C26.3826 18.0615 26.3001 18.2435 26.2451 18.4551C26.1901 18.6667 26.1562 18.9058 26.1436 19.1724V20.0547C26.1647 20.3678 26.224 20.6493 26.3213 20.8989C26.4186 21.1444 26.5688 21.339 26.772 21.4829C26.9751 21.6268 27.2417 21.6987 27.5718 21.6987C27.813 21.6987 28.0161 21.6458 28.1812 21.54C28.3462 21.43 28.4795 21.2798 28.5811 21.0894C28.6868 20.8989 28.7609 20.6789 28.8032 20.4292C28.8498 20.1795 28.873 19.9108 28.873 19.623ZM35.0049 23.127C34.4717 23.127 33.9935 23.0423 33.5703 22.873C33.1471 22.6995 32.7874 22.4604 32.4912 22.1558C32.1992 21.8511 31.9749 21.4977 31.8184 21.0957C31.6618 20.6895 31.5835 20.2578 31.5835 19.8008V19.5469C31.5835 19.0264 31.6576 18.5503 31.8057 18.1187C31.9538 17.687 32.1654 17.3125 32.4404 16.9951C32.7197 16.6777 33.0583 16.4344 33.4561 16.2651C33.8538 16.0916 34.3024 16.0049 34.8018 16.0049C35.2884 16.0049 35.7201 16.0853 36.0967 16.2461C36.4733 16.4069 36.7886 16.6354 37.0425 16.9316C37.3006 17.2279 37.4953 17.5833 37.6265 17.998C37.7576 18.4085 37.8232 18.8656 37.8232 19.3691V20.1309H32.3643V18.9121H36.0269V18.7725C36.0269 18.5186 35.9803 18.2922 35.8872 18.0933C35.7983 17.8901 35.6629 17.7293 35.481 17.6108C35.299 17.4924 35.0662 17.4331 34.7827 17.4331C34.5415 17.4331 34.3341 17.486 34.1606 17.5918C33.9871 17.6976 33.8454 17.8457 33.7354 18.0361C33.6296 18.2266 33.5492 18.4508 33.4941 18.709C33.4434 18.9629 33.418 19.2422 33.418 19.5469V19.8008C33.418 20.0758 33.4561 20.3298 33.5322 20.5625C33.6126 20.7952 33.7248 20.9963 33.8687 21.1655C34.0168 21.3348 34.1945 21.466 34.4019 21.5591C34.6134 21.6522 34.8525 21.6987 35.1191 21.6987C35.4492 21.6987 35.756 21.6353 36.0396 21.5083C36.3273 21.3771 36.5749 21.1803 36.7822 20.918L37.6709 21.8828C37.527 22.0902 37.3302 22.2891 37.0806 22.4795C36.8351 22.6699 36.5389 22.8265 36.1919 22.9492C35.8449 23.0677 35.4492 23.127 35.0049 23.127ZM41.8096 19.6357V19.5024C41.8096 18.9989 41.8815 18.5355 42.0254 18.1123C42.1693 17.6849 42.3787 17.3146 42.6538 17.0015C42.9289 16.6883 43.2674 16.445 43.6694 16.2715C44.0715 16.0938 44.5327 16.0049 45.0532 16.0049C45.5737 16.0049 46.0371 16.0938 46.4434 16.2715C46.8496 16.445 47.1903 16.6883 47.4653 17.0015C47.7446 17.3146 47.9562 17.6849 48.1001 18.1123C48.244 18.5355 48.3159 18.9989 48.3159 19.5024V19.6357C48.3159 20.1351 48.244 20.5985 48.1001 21.0259C47.9562 21.4491 47.7446 21.8193 47.4653 22.1367C47.1903 22.4499 46.8517 22.6932 46.4497 22.8667C46.0477 23.0402 45.5864 23.127 45.0659 23.127C44.5454 23.127 44.082 23.0402 43.6758 22.8667C43.2738 22.6932 42.9331 22.4499 42.6538 22.1367C42.3787 21.8193 42.1693 21.4491 42.0254 21.0259C41.8815 20.5985 41.8096 20.1351 41.8096 19.6357ZM43.6377 19.5024V19.6357C43.6377 19.9235 43.6631 20.1922 43.7139 20.4419C43.7646 20.6916 43.8451 20.9116 43.9551 21.1021C44.0693 21.2882 44.2174 21.4342 44.3994 21.54C44.5814 21.6458 44.8035 21.6987 45.0659 21.6987C45.3198 21.6987 45.5378 21.6458 45.7197 21.54C45.9017 21.4342 46.0477 21.2882 46.1577 21.1021C46.2677 20.9116 46.3481 20.6916 46.3989 20.4419C46.4539 20.1922 46.4814 19.9235 46.4814 19.6357V19.5024C46.4814 19.2231 46.4539 18.9608 46.3989 18.7153C46.3481 18.4657 46.2656 18.2456 46.1514 18.0552C46.0413 17.8605 45.8953 17.7082 45.7134 17.5981C45.5314 17.4881 45.3114 17.4331 45.0532 17.4331C44.7951 17.4331 44.575 17.4881 44.3931 17.5981C44.2153 17.7082 44.0693 17.8605 43.9551 18.0552C43.8451 18.2456 43.7646 18.4657 43.7139 18.7153C43.6631 18.9608 43.6377 19.2231 43.6377 19.5024ZM51.769 23H49.9282V15.5225C49.9282 15.002 50.0298 14.564 50.2329 14.2085C50.4403 13.8488 50.7301 13.578 51.1025 13.396C51.4792 13.2098 51.9256 13.1167 52.4419 13.1167C52.6112 13.1167 52.7741 13.1294 52.9307 13.1548C53.0872 13.1759 53.2396 13.2035 53.3877 13.2373L53.3687 14.6147C53.2882 14.5936 53.2036 14.5788 53.1147 14.5703C53.0259 14.5618 52.9222 14.5576 52.8037 14.5576C52.5837 14.5576 52.3953 14.5957 52.2388 14.6719C52.0864 14.7438 51.9701 14.8517 51.8896 14.9956C51.8092 15.1395 51.769 15.3151 51.769 15.5225V23ZM53.1401 16.1318V17.4268H48.9062V16.1318H53.1401ZM57.3359 13.25H59.1641V21.4258L58.98 23H57.3359V13.25ZM63.5122 19.4961V19.6294C63.5122 20.1414 63.4572 20.6112 63.3472 21.0386C63.2414 21.466 63.0763 21.8363 62.8521 22.1494C62.6278 22.4583 62.3485 22.6995 62.0142 22.873C61.6841 23.0423 61.2948 23.127 60.8462 23.127C60.4272 23.127 60.0633 23.0423 59.7544 22.873C59.4497 22.7038 59.1937 22.4647 58.9863 22.1558C58.779 21.8468 58.6118 21.485 58.4849 21.0703C58.3579 20.6556 58.2627 20.2028 58.1992 19.7119V19.4199C58.2627 18.929 58.3579 18.4762 58.4849 18.0615C58.6118 17.6468 58.779 17.285 58.9863 16.9761C59.1937 16.6672 59.4497 16.4281 59.7544 16.2588C60.0591 16.0895 60.4188 16.0049 60.8335 16.0049C61.2863 16.0049 61.6799 16.0916 62.0142 16.2651C62.3527 16.4344 62.632 16.6756 62.8521 16.9888C63.0763 17.2977 63.2414 17.6659 63.3472 18.0933C63.4572 18.5164 63.5122 18.984 63.5122 19.4961ZM61.6841 19.6294V19.4961C61.6841 19.2168 61.6629 18.9544 61.6206 18.709C61.5825 18.4593 61.5148 18.2414 61.4175 18.0552C61.3201 17.8647 61.1868 17.7145 61.0176 17.6045C60.8525 17.4945 60.6388 17.4395 60.3765 17.4395C60.1268 17.4395 59.9152 17.4818 59.7417 17.5664C59.5682 17.651 59.4243 17.7695 59.3101 17.9219C59.2 18.0742 59.1175 18.2562 59.0625 18.4678C59.0075 18.6751 58.9736 18.9036 58.9609 19.1533V19.9849C58.9736 20.3192 59.0286 20.6154 59.126 20.8735C59.2275 21.1274 59.3799 21.3285 59.583 21.4766C59.7904 21.6204 60.0591 21.6924 60.3892 21.6924C60.6473 21.6924 60.861 21.6416 61.0303 21.54C61.1995 21.4385 61.3307 21.2946 61.4238 21.1084C61.5212 20.9222 61.5889 20.7043 61.627 20.4546C61.665 20.2007 61.6841 19.9256 61.6841 19.6294ZM68.7109 21.356V16.1318H70.5391V23H68.8188L68.7109 21.356ZM68.9141 19.9468L69.4536 19.9341C69.4536 20.3911 69.4007 20.8164 69.2949 21.21C69.1891 21.5993 69.0304 21.9378 68.8188 22.2256C68.6073 22.5091 68.3407 22.7313 68.019 22.8921C67.6974 23.0487 67.3187 23.127 66.8828 23.127C66.5485 23.127 66.2396 23.0804 65.9561 22.9873C65.6768 22.89 65.4355 22.7397 65.2324 22.5366C65.0335 22.3293 64.877 22.0648 64.7627 21.7432C64.6527 21.4173 64.5977 21.0259 64.5977 20.5688V16.1318H66.4258V20.5815C66.4258 20.7847 66.4491 20.9561 66.4956 21.0957C66.5464 21.2354 66.6162 21.3496 66.7051 21.4385C66.7939 21.5273 66.8976 21.5908 67.0161 21.6289C67.1388 21.667 67.2743 21.686 67.4224 21.686C67.799 21.686 68.0952 21.6099 68.311 21.4575C68.5311 21.3052 68.6855 21.0978 68.7744 20.8354C68.8675 20.5688 68.9141 20.2726 68.9141 19.9468ZM73.9731 22.2256L75.7949 16.1318H77.7563L74.9951 24.0347C74.9359 24.2082 74.8555 24.3944 74.7539 24.5933C74.6566 24.7922 74.5233 24.9805 74.354 25.1582C74.189 25.3402 73.9795 25.4883 73.7256 25.6025C73.4759 25.7168 73.1691 25.7739 72.8052 25.7739C72.6317 25.7739 72.4899 25.7633 72.3799 25.7422C72.2699 25.721 72.1387 25.6914 71.9863 25.6533V24.314C72.0329 24.314 72.0815 24.314 72.1323 24.314C72.1831 24.3182 72.2318 24.3203 72.2783 24.3203C72.5195 24.3203 72.7163 24.2928 72.8687 24.2378C73.021 24.1828 73.1437 24.0981 73.2368 23.9839C73.3299 23.8739 73.404 23.73 73.459 23.5522L73.9731 22.2256ZM73.2114 16.1318L74.7031 21.1084L74.9634 23.0444L73.7192 23.1777L71.25 16.1318H73.2114Z" fill="#001464"/>
<line x1="1" y1="34.6359" x2="164" y2="34.6359" stroke="#001464" stroke-width="0.728171"/>
<rect x="10.5174" y="43.5174" width="143.83" height="23.7992" rx="2.49581" fill="white" stroke="#263F5D" stroke-width="1.03475"/>
<path d="M20.8491 56.6626H18.8564V55.4058H20.8491C21.1571 55.4058 21.4077 55.3556 21.6011 55.2554C21.7944 55.1515 21.9359 55.0083 22.0254 54.8257C22.1149 54.6431 22.1597 54.4372 22.1597 54.208C22.1597 53.9753 22.1149 53.7586 22.0254 53.5581C21.9359 53.3576 21.7944 53.1965 21.6011 53.0747C21.4077 52.953 21.1571 52.8921 20.8491 52.8921H19.415V59.4502H17.8037V51.6299H20.8491C21.4614 51.6299 21.986 51.7409 22.4229 51.9629C22.8633 52.1813 23.1999 52.4839 23.4326 52.8706C23.6654 53.2573 23.7817 53.6995 23.7817 54.1973C23.7817 54.7021 23.6654 55.139 23.4326 55.5078C23.1999 55.8766 22.8633 56.1613 22.4229 56.3618C21.986 56.5623 21.4614 56.6626 20.8491 56.6626ZM26.4297 51.2002V59.4502H24.8774V51.2002H26.4297ZM30.8447 58.1396V55.5508C30.8447 55.3646 30.8143 55.2052 30.7534 55.0728C30.6925 54.9367 30.5977 54.8311 30.4688 54.7559C30.3434 54.6807 30.1805 54.6431 29.98 54.6431C29.8081 54.6431 29.6595 54.6735 29.5342 54.7344C29.4089 54.7917 29.3122 54.8758 29.2441 54.9868C29.1761 55.0942 29.1421 55.2214 29.1421 55.3682H27.5952C27.5952 55.1211 27.6525 54.8866 27.7671 54.6646C27.8817 54.4425 28.0482 54.2474 28.2666 54.0791C28.485 53.9072 28.7446 53.7729 29.0454 53.6763C29.3498 53.5796 29.6899 53.5312 30.0659 53.5312C30.5171 53.5312 30.9181 53.6064 31.269 53.7568C31.62 53.9072 31.8957 54.1328 32.0962 54.4336C32.3003 54.7344 32.4023 55.1104 32.4023 55.5615V58.0483C32.4023 58.367 32.422 58.6284 32.4614 58.8325C32.5008 59.033 32.5581 59.2085 32.6333 59.3589V59.4502H31.0703C30.9951 59.2926 30.9378 59.0957 30.8984 58.8594C30.8626 58.6195 30.8447 58.3796 30.8447 58.1396ZM31.0488 55.9106L31.0596 56.7861H30.1948C29.9907 56.7861 29.8135 56.8094 29.6631 56.856C29.5127 56.9025 29.3892 56.9688 29.2925 57.0547C29.1958 57.137 29.1242 57.2337 29.0776 57.3447C29.0347 57.4557 29.0132 57.5775 29.0132 57.71C29.0132 57.8424 29.0436 57.9624 29.1045 58.0698C29.1654 58.1737 29.2531 58.256 29.3677 58.3169C29.4823 58.3742 29.6165 58.4028 29.7705 58.4028C30.0033 58.4028 30.2056 58.3563 30.3774 58.2632C30.5493 58.1701 30.6818 58.0555 30.7749 57.9194C30.8716 57.7834 30.9217 57.6545 30.9253 57.5327L31.3335 58.188C31.2762 58.3348 31.1974 58.487 31.0972 58.6445C31.0005 58.8021 30.877 58.9507 30.7266 59.0903C30.5762 59.2264 30.3953 59.3392 30.1841 59.4287C29.9728 59.5146 29.7222 59.5576 29.4321 59.5576C29.0633 59.5576 28.7285 59.4842 28.4277 59.3374C28.1305 59.187 27.8942 58.9811 27.7188 58.7197C27.5469 58.4548 27.4609 58.154 27.4609 57.8174C27.4609 57.513 27.5182 57.2427 27.6328 57.0063C27.7474 56.77 27.9157 56.5713 28.1377 56.4102C28.3633 56.2454 28.6444 56.1219 28.981 56.0396C29.3175 55.9536 29.7078 55.9106 30.1519 55.9106H31.0488ZM35.2329 58.7949L36.7744 53.6387H38.4341L36.0977 60.3257C36.0475 60.4725 35.9795 60.63 35.8936 60.7983C35.8112 60.9666 35.6984 61.126 35.5552 61.2764C35.4155 61.4303 35.2383 61.5557 35.0234 61.6523C34.8122 61.749 34.5526 61.7974 34.2446 61.7974C34.0978 61.7974 33.9779 61.7884 33.8848 61.7705C33.7917 61.7526 33.6807 61.7275 33.5518 61.6953V60.562C33.5911 60.562 33.6323 60.562 33.6753 60.562C33.7183 60.5656 33.7594 60.5674 33.7988 60.5674C34.0029 60.5674 34.1694 60.5441 34.2983 60.4976C34.4272 60.451 34.5311 60.3794 34.6099 60.2827C34.6886 60.1896 34.7513 60.0679 34.7979 59.9175L35.2329 58.7949ZM34.5884 53.6387L35.8506 57.8496L36.0708 59.4878L35.0181 59.6006L32.9287 53.6387H34.5884ZM48.0859 55.3628V58.4619C47.9642 58.6087 47.7762 58.7681 47.522 58.9399C47.2677 59.1082 46.9401 59.2533 46.5391 59.375C46.138 59.4967 45.6528 59.5576 45.0835 59.5576C44.5786 59.5576 44.1185 59.4753 43.7031 59.3105C43.2878 59.1423 42.9297 58.897 42.6289 58.5747C42.3317 58.2524 42.1025 57.8586 41.9414 57.3931C41.7803 56.924 41.6997 56.3887 41.6997 55.7871V55.2983C41.6997 54.6968 41.7767 54.1615 41.9307 53.6924C42.0882 53.2233 42.312 52.8276 42.6021 52.5054C42.8921 52.1831 43.2376 51.9378 43.6387 51.7695C44.0397 51.6012 44.4855 51.5171 44.9761 51.5171C45.6564 51.5171 46.215 51.6281 46.6519 51.8501C47.0887 52.0685 47.4217 52.3729 47.6509 52.7632C47.8836 53.1499 48.0269 53.5939 48.0806 54.0952H46.5176C46.4782 53.8302 46.403 53.5993 46.292 53.4023C46.181 53.2054 46.0216 53.0514 45.814 52.9404C45.6099 52.8294 45.3449 52.7739 45.019 52.7739C44.7505 52.7739 44.5106 52.8294 44.2993 52.9404C44.0916 53.0479 43.9162 53.2072 43.7729 53.4185C43.6297 53.6297 43.5205 53.8911 43.4453 54.2026C43.3701 54.5142 43.3325 54.8758 43.3325 55.2876V55.7871C43.3325 56.1953 43.3719 56.557 43.4507 56.8721C43.5295 57.1836 43.6458 57.4468 43.7998 57.6616C43.9574 57.8729 44.1507 58.0322 44.3799 58.1396C44.609 58.2471 44.8758 58.3008 45.1802 58.3008C45.4344 58.3008 45.6457 58.2793 45.814 58.2363C45.9858 58.1934 46.1237 58.1414 46.2275 58.0806C46.335 58.0161 46.4173 57.9552 46.4746 57.8979V56.5122H45.0029V55.3628H48.0859ZM49.042 56.6035V56.4907C49.042 56.0646 49.1029 55.6725 49.2246 55.3145C49.3464 54.9528 49.5236 54.6395 49.7563 54.3745C49.9891 54.1095 50.2756 53.9036 50.6157 53.7568C50.9559 53.6064 51.3462 53.5312 51.7866 53.5312C52.2271 53.5312 52.6191 53.6064 52.9629 53.7568C53.3066 53.9036 53.5949 54.1095 53.8276 54.3745C54.064 54.6395 54.243 54.9528 54.3647 55.3145C54.4865 55.6725 54.5474 56.0646 54.5474 56.4907V56.6035C54.5474 57.026 54.4865 57.4181 54.3647 57.7798C54.243 58.1379 54.064 58.4512 53.8276 58.7197C53.5949 58.9847 53.3084 59.1906 52.9683 59.3374C52.6281 59.4842 52.2378 59.5576 51.7974 59.5576C51.3569 59.5576 50.9648 59.4842 50.6211 59.3374C50.2809 59.1906 49.9927 58.9847 49.7563 58.7197C49.5236 58.4512 49.3464 58.1379 49.2246 57.7798C49.1029 57.4181 49.042 57.026 49.042 56.6035ZM50.5889 56.4907V56.6035C50.5889 56.847 50.6104 57.0744 50.6533 57.2856C50.6963 57.4969 50.7643 57.6831 50.8574 57.8442C50.9541 58.0018 51.0794 58.1253 51.2334 58.2148C51.3874 58.3044 51.5754 58.3491 51.7974 58.3491C52.0122 58.3491 52.1966 58.3044 52.3506 58.2148C52.5046 58.1253 52.6281 58.0018 52.7212 57.8442C52.8143 57.6831 52.8823 57.4969 52.9253 57.2856C52.9718 57.0744 52.9951 56.847 52.9951 56.6035V56.4907C52.9951 56.2544 52.9718 56.0324 52.9253 55.8247C52.8823 55.6134 52.8125 55.4272 52.7158 55.2661C52.6227 55.1014 52.4992 54.9725 52.3452 54.8794C52.1912 54.7863 52.005 54.7397 51.7866 54.7397C51.5682 54.7397 51.382 54.7863 51.228 54.8794C51.0776 54.9725 50.9541 55.1014 50.8574 55.2661C50.7643 55.4272 50.6963 55.6134 50.6533 55.8247C50.6104 56.0324 50.5889 56.2544 50.5889 56.4907ZM58.6348 58.1396V55.5508C58.6348 55.3646 58.6043 55.2052 58.5435 55.0728C58.4826 54.9367 58.3877 54.8311 58.2588 54.7559C58.1335 54.6807 57.9705 54.6431 57.77 54.6431C57.5981 54.6431 57.4495 54.6735 57.3242 54.7344C57.1989 54.7917 57.1022 54.8758 57.0342 54.9868C56.9661 55.0942 56.9321 55.2214 56.9321 55.3682H55.3853C55.3853 55.1211 55.4425 54.8866 55.5571 54.6646C55.6717 54.4425 55.8382 54.2474 56.0566 54.0791C56.2751 53.9072 56.5347 53.7729 56.8354 53.6763C57.1398 53.5796 57.48 53.5312 57.856 53.5312C58.3071 53.5312 58.7082 53.6064 59.0591 53.7568C59.41 53.9072 59.6857 54.1328 59.8862 54.4336C60.0903 54.7344 60.1924 55.1104 60.1924 55.5615V58.0483C60.1924 58.367 60.2121 58.6284 60.2515 58.8325C60.2909 59.033 60.3481 59.2085 60.4233 59.3589V59.4502H58.8604C58.7852 59.2926 58.7279 59.0957 58.6885 58.8594C58.6527 58.6195 58.6348 58.3796 58.6348 58.1396ZM58.8389 55.9106L58.8496 56.7861H57.9849C57.7808 56.7861 57.6035 56.8094 57.4531 56.856C57.3027 56.9025 57.1792 56.9688 57.0825 57.0547C56.9858 57.137 56.9142 57.2337 56.8677 57.3447C56.8247 57.4557 56.8032 57.5775 56.8032 57.71C56.8032 57.8424 56.8337 57.9624 56.8945 58.0698C56.9554 58.1737 57.0431 58.256 57.1577 58.3169C57.2723 58.3742 57.4066 58.4028 57.5605 58.4028C57.7933 58.4028 57.9956 58.3563 58.1675 58.2632C58.3394 58.1701 58.4718 58.0555 58.5649 57.9194C58.6616 57.7834 58.7118 57.6545 58.7153 57.5327L59.1235 58.188C59.0662 58.3348 58.9875 58.487 58.8872 58.6445C58.7905 58.8021 58.667 58.9507 58.5166 59.0903C58.3662 59.2264 58.1854 59.3392 57.9741 59.4287C57.7629 59.5146 57.5122 59.5576 57.2222 59.5576C56.8534 59.5576 56.5186 59.4842 56.2178 59.3374C55.9206 59.187 55.6842 58.9811 55.5088 58.7197C55.3369 58.4548 55.251 58.154 55.251 57.8174C55.251 57.513 55.3083 57.2427 55.4229 57.0063C55.5374 56.77 55.7057 56.5713 55.9277 56.4102C56.1533 56.2454 56.4344 56.1219 56.771 56.0396C57.1076 55.9536 57.4979 55.9106 57.9419 55.9106H58.8389ZM63.0176 51.2002V59.4502H61.4653V51.2002H63.0176Z" fill="url(#paint0_linear_296_34)"/>
<rect x="10.5174" y="76.5174" width="143.83" height="23.7992" rx="2.49581" fill="white" stroke="#263F5D" stroke-width="1.03475"/>
<path d="M22.8794 91.6338V92.4502H17.7607V91.7358L20.3228 88.8838C20.6379 88.5329 20.8813 88.2357 21.0532 87.9922C21.2287 87.7451 21.3504 87.5249 21.4185 87.3315C21.4901 87.1346 21.5259 86.9341 21.5259 86.73C21.5259 86.4722 21.4722 86.2394 21.3647 86.0317C21.2609 85.8205 21.1069 85.6522 20.9028 85.5269C20.6987 85.4015 20.4517 85.3389 20.1616 85.3389C19.8143 85.3389 19.5243 85.4069 19.2915 85.543C19.0623 85.6755 18.8905 85.8617 18.7759 86.1016C18.6613 86.3415 18.604 86.6172 18.604 86.9287H17.6104C17.6104 86.4883 17.707 86.0854 17.9004 85.7202C18.0938 85.355 18.3802 85.0649 18.7598 84.8501C19.1393 84.6317 19.6066 84.5225 20.1616 84.5225C20.6558 84.5225 21.0783 84.6102 21.4292 84.7856C21.7801 84.9575 22.0487 85.201 22.2349 85.5161C22.4246 85.8276 22.5195 86.1929 22.5195 86.6118C22.5195 86.841 22.4801 87.0737 22.4014 87.3101C22.3262 87.5428 22.2205 87.7756 22.0845 88.0083C21.952 88.241 21.7962 88.4702 21.6172 88.6958C21.4417 88.9214 21.2537 89.1434 21.0532 89.3618L18.9585 91.6338H22.8794ZM25.1997 88.728L24.4048 88.5239L24.7969 84.6299H28.8091V85.5483H25.6401L25.4038 87.6753C25.547 87.5929 25.7279 87.516 25.9463 87.4443C26.1683 87.3727 26.4225 87.3369 26.709 87.3369C27.0706 87.3369 27.3947 87.3996 27.6812 87.5249C27.9676 87.6466 28.2111 87.8221 28.4116 88.0513C28.6157 88.2804 28.7715 88.5562 28.8789 88.8784C28.9863 89.2007 29.04 89.5605 29.04 89.958C29.04 90.334 28.9881 90.6795 28.8843 90.9946C28.784 91.3097 28.6318 91.5854 28.4277 91.8218C28.2236 92.0545 27.9658 92.2354 27.6543 92.3643C27.3464 92.4932 26.9829 92.5576 26.564 92.5576C26.2489 92.5576 25.9499 92.5146 25.667 92.4287C25.3877 92.3392 25.137 92.2049 24.915 92.0259C24.6966 91.8433 24.5176 91.6177 24.3779 91.3491C24.2419 91.077 24.1559 90.7583 24.1201 90.3931H25.0654C25.1084 90.6867 25.1943 90.9338 25.3232 91.1343C25.4521 91.3348 25.6204 91.487 25.8281 91.5908C26.0394 91.6911 26.2847 91.7412 26.564 91.7412C26.8003 91.7412 27.0098 91.7 27.1924 91.6177C27.375 91.5353 27.529 91.4172 27.6543 91.2632C27.7796 91.1092 27.8745 90.923 27.939 90.7046C28.007 90.4862 28.041 90.2409 28.041 89.9688C28.041 89.7217 28.007 89.4925 27.939 89.2812C27.8709 89.07 27.7689 88.8856 27.6328 88.728C27.5003 88.5705 27.3374 88.4487 27.144 88.3628C26.9507 88.2733 26.7287 88.2285 26.478 88.2285C26.145 88.2285 25.8926 88.2733 25.7207 88.3628C25.5524 88.4523 25.3787 88.5741 25.1997 88.728ZM35.0396 87.917V89.1094C35.0396 89.7503 34.9823 90.291 34.8677 90.7314C34.7531 91.1719 34.5884 91.5264 34.3735 91.7949C34.1587 92.0635 33.8991 92.2586 33.5947 92.3804C33.2939 92.4985 32.9538 92.5576 32.5742 92.5576C32.2734 92.5576 31.9959 92.52 31.7417 92.4448C31.4875 92.3696 31.2583 92.2497 31.0542 92.085C30.8537 91.9167 30.6818 91.6982 30.5386 91.4297C30.3953 91.1611 30.2861 90.8353 30.2109 90.4521C30.1357 90.069 30.0981 89.6214 30.0981 89.1094V87.917C30.0981 87.276 30.1554 86.7389 30.27 86.3057C30.3882 85.8724 30.5547 85.5251 30.7695 85.2637C30.9844 84.9987 31.2422 84.8089 31.543 84.6943C31.8473 84.5798 32.1875 84.5225 32.5635 84.5225C32.8678 84.5225 33.1471 84.5601 33.4014 84.6353C33.6592 84.7069 33.8883 84.8232 34.0889 84.9844C34.2894 85.1419 34.4595 85.3532 34.5991 85.6182C34.7424 85.8796 34.8516 86.2 34.9268 86.5796C35.002 86.9591 35.0396 87.4049 35.0396 87.917ZM34.0405 89.2705V87.7505C34.0405 87.3996 34.019 87.0916 33.9761 86.8267C33.9367 86.5581 33.8776 86.3289 33.7988 86.1392C33.7201 85.9494 33.6198 85.7954 33.498 85.6772C33.3799 85.5591 33.242 85.4731 33.0845 85.4194C32.9305 85.3621 32.7568 85.3335 32.5635 85.3335C32.3271 85.3335 32.1177 85.3783 31.9351 85.4678C31.7524 85.5537 31.5985 85.6916 31.4731 85.8813C31.3514 86.0711 31.2583 86.32 31.1938 86.6279C31.1294 86.9359 31.0972 87.3101 31.0972 87.7505V89.2705C31.0972 89.6214 31.1169 89.9312 31.1562 90.1997C31.1992 90.4683 31.2619 90.701 31.3442 90.8979C31.4266 91.0913 31.5269 91.2507 31.645 91.376C31.7632 91.5013 31.8993 91.5944 32.0532 91.6553C32.2108 91.7126 32.3844 91.7412 32.5742 91.7412C32.8177 91.7412 33.0308 91.6947 33.2134 91.6016C33.396 91.5085 33.5482 91.3634 33.6699 91.1665C33.7952 90.966 33.8883 90.71 33.9492 90.3984C34.0101 90.0833 34.0405 89.7074 34.0405 89.2705ZM40.1475 87.7559V94.6846H39.1484V86.6387H40.0615L40.1475 87.7559ZM44.063 89.4961V89.6089C44.063 90.0314 44.0129 90.4235 43.9126 90.7852C43.8123 91.1432 43.6655 91.4548 43.4722 91.7197C43.2824 91.9847 43.0479 92.1906 42.7686 92.3374C42.4893 92.4842 42.1688 92.5576 41.8071 92.5576C41.4383 92.5576 41.1125 92.4967 40.8296 92.375C40.5467 92.2533 40.3068 92.076 40.1099 91.8433C39.9129 91.6105 39.7554 91.3312 39.6372 91.0054C39.5226 90.6795 39.4438 90.3125 39.4009 89.9043V89.3027C39.4438 88.873 39.5244 88.4881 39.6426 88.1479C39.7607 87.8078 39.9165 87.5177 40.1099 87.2778C40.3068 87.0343 40.5449 86.8499 40.8242 86.7246C41.1035 86.5957 41.4258 86.5312 41.791 86.5312C42.1562 86.5312 42.4803 86.6029 42.7632 86.7461C43.0461 86.8857 43.2842 87.0863 43.4775 87.3477C43.6709 87.609 43.8159 87.9224 43.9126 88.2876C44.0129 88.6493 44.063 89.0521 44.063 89.4961ZM43.064 89.6089V89.4961C43.064 89.2061 43.0335 88.9339 42.9727 88.6797C42.9118 88.4219 42.8169 88.1963 42.688 88.0029C42.5627 87.806 42.4015 87.652 42.2046 87.541C42.0076 87.4264 41.7731 87.3691 41.501 87.3691C41.2503 87.3691 41.0319 87.4121 40.8457 87.498C40.6631 87.584 40.5073 87.7004 40.3784 87.8472C40.2495 87.9904 40.1439 88.1551 40.0615 88.3413C39.9827 88.5239 39.9237 88.7137 39.8843 88.9106V90.3018C39.9559 90.5524 40.0562 90.7887 40.1851 91.0107C40.314 91.2292 40.4858 91.4064 40.7007 91.5425C40.9155 91.675 41.1859 91.7412 41.5117 91.7412C41.7803 91.7412 42.0112 91.6857 42.2046 91.5747C42.4015 91.4601 42.5627 91.3044 42.688 91.1074C42.8169 90.9105 42.9118 90.6849 42.9727 90.4307C43.0335 90.1729 43.064 89.8989 43.064 89.6089ZM46.4102 84.2002V92.4502H45.4111V84.2002H46.4102ZM51.4321 91.4565V88.4648C51.4321 88.2357 51.3856 88.0369 51.2925 87.8687C51.203 87.6968 51.0669 87.5643 50.8843 87.4712C50.7017 87.3781 50.4761 87.3315 50.2075 87.3315C49.9569 87.3315 49.7367 87.3745 49.5469 87.4604C49.3607 87.5464 49.2139 87.6592 49.1064 87.7988C49.0026 87.9385 48.9507 88.0889 48.9507 88.25H47.957C47.957 88.0423 48.0107 87.8364 48.1182 87.6323C48.2256 87.4282 48.3796 87.2438 48.5801 87.0791C48.7842 86.9108 49.0277 86.7783 49.3105 86.6816C49.597 86.5814 49.9157 86.5312 50.2666 86.5312C50.6891 86.5312 51.0615 86.6029 51.3838 86.7461C51.7096 86.8893 51.9639 87.106 52.1465 87.396C52.3327 87.6825 52.4258 88.0423 52.4258 88.4756V91.1826C52.4258 91.376 52.4419 91.5819 52.4741 91.8003C52.5099 92.0187 52.5618 92.2067 52.6299 92.3643V92.4502H51.5933C51.5431 92.3356 51.5037 92.1834 51.4751 91.9937C51.4465 91.8003 51.4321 91.6213 51.4321 91.4565ZM51.604 88.9268L51.6147 89.625H50.6104C50.3275 89.625 50.075 89.6483 49.853 89.6948C49.631 89.7378 49.4448 89.804 49.2944 89.8936C49.144 89.9831 49.0295 90.0959 48.9507 90.2319C48.8719 90.3644 48.8325 90.5202 48.8325 90.6992C48.8325 90.8818 48.8737 91.0483 48.9561 91.1987C49.0384 91.3491 49.1619 91.4691 49.3267 91.5586C49.495 91.6445 49.7008 91.6875 49.9443 91.6875C50.2487 91.6875 50.5173 91.623 50.75 91.4941C50.9827 91.3652 51.1672 91.2077 51.3032 91.0215C51.4429 90.8353 51.5181 90.6545 51.5288 90.479L51.9531 90.957C51.9281 91.1074 51.86 91.2739 51.749 91.4565C51.638 91.6392 51.4894 91.8146 51.3032 91.9829C51.1206 92.1476 50.9022 92.2855 50.6479 92.3965C50.3973 92.5039 50.1144 92.5576 49.7993 92.5576C49.4054 92.5576 49.0599 92.4806 48.7627 92.3267C48.4691 92.1727 48.2399 91.9668 48.0752 91.709C47.9141 91.4476 47.8335 91.1558 47.8335 90.8335C47.8335 90.522 47.8944 90.248 48.0161 90.0117C48.1379 89.7718 48.3133 89.5731 48.5425 89.4155C48.7716 89.2544 49.0474 89.1326 49.3696 89.0503C49.6919 88.9679 50.0518 88.9268 50.4492 88.9268H51.604ZM55.5356 91.8486L57.1523 86.6387H58.2158L55.8848 93.3472C55.8311 93.4904 55.7594 93.6444 55.6699 93.8091C55.584 93.9774 55.473 94.1367 55.3369 94.2871C55.2008 94.4375 55.0361 94.5592 54.8428 94.6523C54.653 94.749 54.4256 94.7974 54.1606 94.7974C54.0819 94.7974 53.9816 94.7866 53.8599 94.7651C53.7381 94.7437 53.6522 94.7257 53.6021 94.7114L53.5967 93.9058C53.6253 93.9093 53.6701 93.9129 53.731 93.9165C53.7954 93.9237 53.8402 93.9272 53.8652 93.9272C54.0908 93.9272 54.2824 93.8968 54.4399 93.8359C54.5975 93.7786 54.73 93.6802 54.8374 93.5405C54.9484 93.4045 55.0433 93.2165 55.1221 92.9766L55.5356 91.8486ZM54.3486 86.6387L55.8579 91.1504L56.1157 92.1978L55.4014 92.563L53.2637 86.6387H54.3486ZM62.4966 90.9087C62.4966 90.7655 62.4644 90.633 62.3999 90.5112C62.339 90.3859 62.2119 90.2731 62.0186 90.1729C61.8288 90.069 61.5423 89.9795 61.1592 89.9043C60.8369 89.8363 60.5451 89.7557 60.2837 89.6626C60.0259 89.5695 59.8057 89.4567 59.623 89.3242C59.444 89.1917 59.3062 89.036 59.2095 88.8569C59.1128 88.6779 59.0645 88.4684 59.0645 88.2285C59.0645 87.9993 59.1146 87.7827 59.2148 87.5786C59.3187 87.3745 59.4637 87.1937 59.6499 87.0361C59.8397 86.8786 60.0671 86.755 60.332 86.6655C60.597 86.576 60.8924 86.5312 61.2183 86.5312C61.6838 86.5312 62.0812 86.6136 62.4106 86.7783C62.7401 86.943 62.9925 87.1632 63.168 87.439C63.3434 87.7111 63.4312 88.0137 63.4312 88.3467H62.4375C62.4375 88.1855 62.3892 88.0298 62.2925 87.8794C62.1994 87.7254 62.0615 87.5983 61.8789 87.498C61.6999 87.3978 61.4797 87.3477 61.2183 87.3477C60.9425 87.3477 60.7188 87.3906 60.5469 87.4766C60.3786 87.5589 60.255 87.6646 60.1763 87.7935C60.1011 87.9224 60.0635 88.0584 60.0635 88.2017C60.0635 88.3091 60.0814 88.4058 60.1172 88.4917C60.1566 88.5741 60.2246 88.651 60.3213 88.7227C60.418 88.7907 60.554 88.8551 60.7295 88.916C60.9049 88.9769 61.1287 89.0378 61.4009 89.0986C61.8771 89.2061 62.2692 89.335 62.5771 89.4854C62.8851 89.6357 63.1143 89.8201 63.2646 90.0386C63.415 90.257 63.4902 90.522 63.4902 90.8335C63.4902 91.0877 63.4365 91.3205 63.3291 91.5317C63.2253 91.743 63.0731 91.9256 62.8726 92.0796C62.6756 92.23 62.4393 92.3481 62.1636 92.4341C61.8914 92.5164 61.5853 92.5576 61.2451 92.5576C60.7331 92.5576 60.2998 92.4663 59.9453 92.2837C59.5908 92.1011 59.3223 91.8647 59.1396 91.5747C58.957 91.2847 58.8657 90.9785 58.8657 90.6562H59.8647C59.8791 90.9284 59.9578 91.145 60.1011 91.3062C60.2443 91.4637 60.4198 91.5765 60.6274 91.6445C60.8351 91.709 61.041 91.7412 61.2451 91.7412C61.5173 91.7412 61.7446 91.7054 61.9272 91.6338C62.1134 91.5622 62.2549 91.4637 62.3516 91.3384C62.4482 91.2131 62.4966 91.0698 62.4966 90.9087Z" fill="#001464"/>
<mask id="mask0_296_34" style="mask-type:alpha" maskUnits="userSpaceOnUse" x="132" y="46" width="20" height="20">
<rect x="132" y="46" width="20" height="20" fill="#D9D9D9"/>
</mask>
<g mask="url(#mask0_296_34)">
<path d="M142 58L138 54H146L142 58Z" fill="#263F5D"/>
</g>
<defs>
<linearGradient id="paint0_linear_296_34" x1="-3.28027" y1="55.9397" x2="74.8426" y2="55.2875" gradientUnits="userSpaceOnUse">
<stop offset="0.317708" stop-color="#E43425"/>
<stop offset="0.71875" stop-color="#441FD8"/>
<stop offset="1" stop-color="#0A26B8"/>
</linearGradient>
</defs>
</svg>
