<svg width="44" height="41" viewBox="0 0 44 41" fill="none" xmlns="http://www.w3.org/2000/svg">
<path d="M0.5 7.28C0.5 3.53551 3.53551 0.5 7.28 0.5H36.7183C40.4637 0.5 43.5 3.53628 43.5 7.28171V40.5H0.5V7.28Z" fill="white" stroke="#263F5D"/>
<path d="M36.7071 40.8077C36.3713 38.2661 36.044 35.7311 33.0697 34.8996C30.7388 34.2477 25.8268 33.1951 22.8939 33.1415L21.7473 32.5771C21.7341 32.5771 21.72 32.58 21.7069 32.58C21.6937 32.58 21.6796 32.5771 21.6664 32.5771V32.5828C18.7335 32.6355 12.8131 34.2675 10.4719 34.8996C8.13066 35.5317 7.29254 37.967 7 40.8077H36.7071Z" fill="url(#paint0_linear_296_36)"/>
<path d="M32.8436 19.9462C32.8436 19.9462 32.7157 23.7257 34.6449 28.1701C35.3109 29.4099 34.4653 29.916 34.4653 29.916C34.4653 29.916 28.3295 32.3193 21.8984 32.0916C21.8984 29.4851 21.8984 14.9872 21.8984 14.9872L32.7035 16.923L32.8436 19.9462Z" fill="url(#paint1_linear_296_36)"/>
<path d="M10.4537 19.8786C10.4537 19.8786 10.7591 23.7257 8.82987 28.1701C8.1639 29.4099 9.00953 29.916 9.00953 29.916C9.00953 29.916 15.1453 32.3193 21.5764 32.0916C21.5764 29.4851 21.5764 14.9872 21.5764 14.9872L10.7713 16.923L10.4537 19.8786Z" fill="url(#paint2_linear_296_36)"/>
<path d="M25.7684 33.9518C25.7684 35.2687 23.7893 36.0955 21.8018 36.1002C19.7992 36.104 17.7881 35.2696 17.7881 33.9518V27.184H25.7684V33.9518Z" fill="url(#paint3_radial_296_36)"/>
<path d="M13.4274 20.1286C12.8433 19.9433 11.4314 20.0609 11.3825 21.7653C11.3364 23.3766 11.7399 24.1113 12.2752 24.8026C12.8762 25.5786 13.9561 25.573 13.8667 24.9559C13.7773 24.3398 13.4274 20.1286 13.4274 20.1286Z" fill="url(#paint4_linear_296_36)"/>
<path d="M30.1336 20.1286C30.6867 19.9433 32.0224 20.0609 32.0685 21.7653C32.1117 23.3766 31.7308 24.1113 31.2238 24.8026C30.6556 25.5786 29.6332 25.573 29.7178 24.9559C29.8025 24.3398 30.1336 20.1286 30.1336 20.1286Z" fill="url(#paint5_linear_296_36)"/>
<path d="M31.808 20.6867C31.808 23.0261 30.6303 26.1941 29.5298 27.9474C27.2873 31.519 23.8286 33.278 21.7789 33.278C19.7801 33.278 16.1427 31.4927 14.0027 27.9474C12.9323 26.1734 11.7734 23.0261 11.7734 20.6867C11.7734 20.1731 11.7866 16.5366 11.8139 16.0767C11.9672 13.4288 13.7977 6.94031 21.7912 6.94031C29.7856 6.94031 31.5643 13.2698 31.7468 15.7625C31.7873 16.3165 31.808 20.0565 31.808 20.6867Z" fill="url(#paint6_radial_296_36)"/>
<path d="M18.9164 28.8481C18.7518 28.8303 18.7415 28.9751 18.8478 29.12C19.6172 30.1716 20.7535 30.4623 21.7788 30.4623C22.7203 30.4623 24.1708 30.0512 24.7286 29.1397C24.8226 28.9855 24.7954 28.8143 24.6411 28.8472C23.1878 29.2761 22.5153 28.0777 21.7505 28.8754C21.0065 28.1013 20.2672 29.1303 18.9164 28.8481Z" fill="url(#paint7_linear_296_36)"/>
<path d="M21.7143 29.7286C21.7539 29.7117 22.8243 29.2668 23.7395 29.1605C22.5675 29.0702 21.767 29.2668 21.7106 29.2809C21.6541 29.2668 20.8527 29.0702 19.6816 29.1605C20.5978 29.2668 21.6673 29.7126 21.7068 29.7286V29.7314L21.7106 29.7296L21.7143 29.7314V29.7286Z" fill="#263F5D"/>
<path d="M11.6125 20.4572C12.6632 20.159 15.8716 17.3585 17.9776 14.6707C18.6329 13.8344 18.9336 14.1681 19.7136 14.6707C21.1236 15.5793 23.367 16.4281 27.234 15.828C27.4974 15.7866 27.7664 15.8807 27.9376 16.0885C28.9697 17.5639 30.657 19.7272 31.8629 20.4572C32.7791 21.015 32.8373 19.8113 32.8373 19.8113C33.1148 17.027 33.824 6 21.7463 6C20.4952 6 19.2028 6.23798 18.3233 6.99049C17.7495 6.87197 16.855 6.94722 16.2577 7.22847C9.60366 10.3655 10.5303 18.5974 10.4532 19.8785C10.4532 19.8785 11.1939 20.6444 11.6125 20.4572Z" fill="url(#paint8_linear_296_36)"/>
<path d="M21.7352 26.1744C22.3441 26.1744 22.8377 25.8489 22.8377 25.4473C22.8377 25.0458 22.3441 24.7202 21.7352 24.7202C21.1264 24.7202 20.6328 25.0458 20.6328 25.4473C20.6328 25.8489 21.1264 26.1744 21.7352 26.1744Z" fill="url(#paint9_radial_296_36)"/>
<path d="M14.3108 21.9424C14.2167 22.1277 14.2468 22.2754 14.3108 22.424C14.5779 23.0731 16.7282 25.387 19.6291 22.9583C19.8454 22.7871 19.8793 22.6357 19.8257 22.4212C19.7721 22.2077 19.0205 20.4572 17.0508 20.4572C15.1018 20.4581 14.4735 21.6913 14.3108 21.9424Z" fill="white"/>
<path d="M17.0213 23.5793C17.8847 23.5793 18.5847 22.8794 18.5847 22.016C18.5847 21.1526 17.8847 20.4526 17.0213 20.4526C16.1579 20.4526 15.458 21.1526 15.458 22.016C15.458 22.8794 16.1579 23.5793 17.0213 23.5793Z" fill="url(#paint10_linear_296_36)"/>
<path d="M17.0207 22.8015C17.4555 22.8015 17.808 22.4491 17.808 22.0142C17.808 21.5794 17.4555 21.2269 17.0207 21.2269C16.5859 21.2269 16.2334 21.5794 16.2334 22.0142C16.2334 22.4491 16.5859 22.8015 17.0207 22.8015Z" fill="url(#paint11_radial_296_36)"/>
<path d="M16.1884 21.5631C16.4014 21.5631 16.5741 21.3904 16.5741 21.1774C16.5741 20.9644 16.4014 20.7917 16.1884 20.7917C15.9754 20.7917 15.8027 20.9644 15.8027 21.1774C15.8027 21.3904 15.9754 21.5631 16.1884 21.5631Z" fill="white"/>
<path d="M29.1575 21.9424C29.2515 22.1277 29.2214 22.2754 29.1575 22.424C28.8903 23.0731 26.74 25.387 23.8391 22.9583C23.6228 22.7871 23.5889 22.6357 23.6425 22.4212C23.6962 22.2077 24.4477 20.4572 26.4174 20.4572C28.3664 20.4581 28.9947 21.6913 29.1575 21.9424Z" fill="white"/>
<path d="M26.4471 23.5792C27.3105 23.5792 28.0104 22.8792 28.0104 22.0158C28.0104 21.1524 27.3105 20.4525 26.4471 20.4525C25.5837 20.4525 24.8838 21.1524 24.8838 22.0158C24.8838 22.8792 25.5837 23.5792 26.4471 23.5792Z" fill="url(#paint12_linear_296_36)"/>
<path d="M26.4465 22.8014C26.8813 22.8014 27.2338 22.4489 27.2338 22.0141C27.2338 21.5793 26.8813 21.2268 26.4465 21.2268C26.0117 21.2268 25.6592 21.5793 25.6592 22.0141C25.6592 22.4489 26.0117 22.8014 26.4465 22.8014Z" fill="url(#paint13_radial_296_36)"/>
<path d="M25.5956 21.5631C25.8086 21.5631 25.9813 21.3904 25.9813 21.1774C25.9813 20.9644 25.8086 20.7917 25.5956 20.7917C25.3826 20.7917 25.21 20.9644 25.21 21.1774C25.21 21.3904 25.3826 21.5631 25.5956 21.5631Z" fill="white"/>
<path d="M27.9333 19.281C26.8629 19.0035 25.7294 19.0797 24.7474 19.4531C24.4549 19.5641 24.1275 19.4174 24.0165 19.1248C23.9056 18.8323 24.0523 18.505 24.3448 18.394C24.374 18.3827 24.4031 18.3742 24.4323 18.3686L24.4445 18.3667C25.7022 18.1174 26.9983 18.2604 28.1215 18.7599C28.2616 18.8219 28.3256 18.9866 28.2626 19.1277C28.2061 19.2537 28.0678 19.3177 27.938 19.2838L27.9333 19.281Z" fill="url(#paint14_linear_296_36)"/>
<path d="M15.1578 18.7595C16.2809 18.261 17.5771 18.1171 18.8347 18.3664L18.8442 18.3682C19.1508 18.4294 19.3502 18.7276 19.29 19.0342C19.2289 19.3409 18.9307 19.5403 18.624 19.4801C18.5939 19.4744 18.561 19.4641 18.5328 19.4537C17.5508 19.0803 16.4164 19.0051 15.3469 19.2816L15.3422 19.2825C15.1936 19.3211 15.0412 19.2317 15.0026 19.0831C14.9669 18.9496 15.0355 18.8132 15.1578 18.7595Z" fill="url(#paint15_linear_296_36)"/>
<defs>
<linearGradient id="paint0_linear_296_36" x1="6.99175" y1="36.6935" x2="36.6989" y2="36.6935" gradientUnits="userSpaceOnUse">
<stop stop-color="#0057D2"/>
<stop offset="0.1" stop-color="#0057D2"/>
<stop offset="0.39" stop-color="#0085E4"/>
<stop offset="0.73" stop-color="#00B4F7"/>
<stop offset="0.9" stop-color="#00C7FF"/>
<stop offset="1" stop-color="#00C7FF"/>
</linearGradient>
<linearGradient id="paint1_linear_296_36" x1="24.3419" y1="26.8224" x2="34.8933" y2="23.5461" gradientUnits="userSpaceOnUse">
<stop stop-color="#331809"/>
<stop offset="0.1" stop-color="#331809"/>
<stop offset="0.19" stop-color="#3D1C08"/>
<stop offset="0.66" stop-color="#6C3406"/>
<stop offset="0.9" stop-color="#7F3D06"/>
<stop offset="1" stop-color="#7F3D06"/>
</linearGradient>
<linearGradient id="paint2_linear_296_36" x1="19.7121" y1="28.5583" x2="5.82451" y2="22.7718" gradientUnits="userSpaceOnUse">
<stop stop-color="#331809"/>
<stop offset="0.1" stop-color="#331809"/>
<stop offset="0.19" stop-color="#3D1C08"/>
<stop offset="0.66" stop-color="#6C3406"/>
<stop offset="0.9" stop-color="#7F3D06"/>
<stop offset="1" stop-color="#7F3D06"/>
</linearGradient>
<radialGradient id="paint3_radial_296_36" cx="0" cy="0" r="1" gradientUnits="userSpaceOnUse" gradientTransform="translate(21.7369 33.1874) scale(6.65446 17.276)">
<stop stop-color="#F26F56"/>
<stop offset="1" stop-color="#F8C9C6"/>
</radialGradient>
<linearGradient id="paint4_linear_296_36" x1="11.0331" y1="23.929" x2="12.1904" y2="23.3504" gradientUnits="userSpaceOnUse">
<stop stop-color="#F26F56"/>
<stop offset="1" stop-color="#F8C9C6"/>
</linearGradient>
<linearGradient id="paint5_linear_296_36" x1="33.0209" y1="23.3504" x2="31.285" y2="22.7717" gradientUnits="userSpaceOnUse">
<stop stop-color="#F26F56"/>
<stop offset="1" stop-color="#F8C9C6"/>
</linearGradient>
<radialGradient id="paint6_radial_296_36" cx="0" cy="0" r="1" gradientUnits="userSpaceOnUse" gradientTransform="translate(21.4489 23.9291) rotate(90) scale(26.6178 17.1505)">
<stop stop-color="#F8C9C6"/>
<stop offset="1" stop-color="#F26F56"/>
</radialGradient>
<linearGradient id="paint7_linear_296_36" x1="17.3663" y1="29.2984" x2="29.2687" y2="29.2984" gradientUnits="userSpaceOnUse">
<stop stop-color="#F26F56"/>
<stop offset="1" stop-color="#F8C9C6"/>
</linearGradient>
<linearGradient id="paint8_linear_296_36" x1="10.4346" y1="13.3016" x2="32.9393" y2="13.3016" gradientUnits="userSpaceOnUse">
<stop stop-color="#331809"/>
<stop offset="0.1" stop-color="#331809"/>
<stop offset="0.19" stop-color="#3D1C08"/>
<stop offset="0.66" stop-color="#6C3406"/>
<stop offset="0.9" stop-color="#7F3D06"/>
<stop offset="1" stop-color="#7F3D06"/>
</linearGradient>
<radialGradient id="paint9_radial_296_36" cx="0" cy="0" r="1" gradientUnits="userSpaceOnUse" gradientTransform="translate(21.4477 25.665) scale(2.31459 1.59128)">
<stop stop-color="#F26F56"/>
<stop offset="1" stop-color="#F8C9C6"/>
</radialGradient>
<linearGradient id="paint10_linear_296_36" x1="15.458" y1="22.016" x2="18.5847" y2="22.016" gradientUnits="userSpaceOnUse">
<stop stop-color="#C69C6D"/>
<stop offset="1" stop-color="#754C24"/>
</linearGradient>
<radialGradient id="paint11_radial_296_36" cx="0" cy="0" r="1" gradientUnits="userSpaceOnUse" gradientTransform="translate(17.0207 22.0142) scale(0.787309)">
<stop stop-color="#1C1911"/>
<stop offset="0.999" stop-color="#171714"/>
</radialGradient>
<linearGradient id="paint12_linear_296_36" x1="24.8838" y1="22.0158" x2="28.0104" y2="22.0158" gradientUnits="userSpaceOnUse">
<stop stop-color="#C69C6D"/>
<stop offset="1" stop-color="#754C24"/>
</linearGradient>
<radialGradient id="paint13_radial_296_36" cx="0" cy="0" r="1" gradientUnits="userSpaceOnUse" gradientTransform="translate(26.4465 22.0141) scale(0.787311 0.787309)">
<stop stop-color="#1C1911"/>
<stop offset="0.999" stop-color="#171714"/>
</radialGradient>
<linearGradient id="paint14_linear_296_36" x1="23.9771" y1="18.8684" x2="28.2844" y2="18.8684" gradientUnits="userSpaceOnUse">
<stop stop-color="#331809"/>
<stop offset="0.1" stop-color="#331809"/>
<stop offset="0.19" stop-color="#3D1C08"/>
<stop offset="0.66" stop-color="#6C3406"/>
<stop offset="0.9" stop-color="#7F3D06"/>
<stop offset="1" stop-color="#7F3D06"/>
</linearGradient>
<linearGradient id="paint15_linear_296_36" x1="19.133" y1="19.2082" x2="15.0824" y2="19.2082" gradientUnits="userSpaceOnUse">
<stop stop-color="#331809"/>
<stop offset="0.1" stop-color="#331809"/>
<stop offset="0.19" stop-color="#3D1C08"/>
<stop offset="0.66" stop-color="#6C3406"/>
<stop offset="0.9" stop-color="#7F3D06"/>
<stop offset="1" stop-color="#7F3D06"/>
</linearGradient>
</defs>
</svg>
