<svg width="1086" height="458" viewBox="0 0 1086 458" fill="none" xmlns="http://www.w3.org/2000/svg">
<g opacity="0.5">
<mask id="mask0_226_1772" style="mask-type:alpha" maskUnits="userSpaceOnUse" x="0" y="0" width="1086" height="458">
<path d="M0 0H1086V448C1086 453.523 1081.52 458 1076 458H9.99998C4.47713 458 0 453.523 0 448V0Z" fill="#7399EF"/>
</mask>
<g mask="url(#mask0_226_1772)">
<g opacity="0.5">
<rect y="-173" width="1086" height="631" rx="12.2718" fill="#7399EF" fill-opacity="0.1"/>
<path d="M12.2832 458.5C5.49939 458.5 0 453.001 0 446.217V-51.2923C0 -52.0046 0.577443 -52.5821 1.28975 -52.5821H61.9082C62.6205 -52.5821 63.1979 -52.0047 63.1979 -51.2923V-24.2075C63.1979 -23.4952 63.7754 -22.9178 64.4877 -22.9178H107.05C107.762 -22.9178 108.339 -23.4952 108.339 -24.2075V-42.2641C108.339 -42.9764 108.917 -43.5538 109.629 -43.5538H117.368C118.08 -43.5538 118.657 -44.1313 118.657 -44.8436V-64.1899C118.657 -64.9022 119.235 -65.4796 119.947 -65.4796H197.332C198.045 -65.4796 198.622 -64.9022 198.622 -64.1899V5.45682C198.622 6.16914 199.2 6.74657 199.912 6.74657H217.968C218.681 6.74657 219.258 6.16913 219.258 5.45682V-28.0768C219.258 -28.7891 219.836 -29.3665 220.548 -29.3665H230.866C231.578 -29.3665 232.156 -28.7891 232.156 -28.0768V-16.469C232.156 -15.7567 232.733 -15.1792 233.445 -15.1792H243.763C244.476 -15.1792 245.053 -15.7567 245.053 -16.469V-44.8436C245.053 -45.5559 245.631 -46.1333 246.343 -46.1333H255.371C256.084 -46.1333 256.661 -46.7108 256.661 -47.4231V-64.1899C256.661 -64.9022 257.238 -65.4796 257.951 -65.4796H291.484C292.197 -65.4796 292.774 -64.9022 292.774 -64.1899V-44.8436C292.774 -44.1313 293.352 -43.5538 294.064 -43.5538H301.802C302.515 -43.5538 303.092 -42.9764 303.092 -42.2641V35.1212C303.092 35.8335 303.67 36.4109 304.382 36.4109H318.569C319.281 36.4109 319.859 35.8335 319.859 35.1212V-21.628C319.859 -22.3403 320.436 -22.9178 321.149 -22.9178H375.318C376.031 -22.9178 376.608 -22.3403 376.608 -21.628V-2.28171C376.608 -1.5694 377.186 -0.991951 377.898 -0.991951H390.795C391.508 -0.991951 392.085 -0.414505 392.085 0.297806V13.1953C392.085 13.9077 392.663 14.4851 393.375 14.4851H410.142C410.854 14.4851 411.431 13.9077 411.431 13.1953V-30.6563C411.431 -31.3686 412.009 -31.946 412.721 -31.946H423.039C423.752 -31.946 424.329 -31.3686 424.329 -30.6563V-7.44072C424.329 -6.72841 424.906 -6.15096 425.619 -6.15096H432.068C432.78 -6.15096 433.357 -6.72841 433.357 -7.44072V-59.0309C433.357 -59.7432 433.935 -60.3206 434.647 -60.3206H453.993C454.706 -60.3206 455.283 -60.8981 455.283 -61.6104V-82.2464C455.283 -82.9587 455.861 -83.5362 456.573 -83.5362H479.788C480.501 -83.5362 481.078 -82.9587 481.078 -82.2464V-51.2923C481.078 -50.58 481.656 -50.0026 482.368 -50.0026H496.555C497.268 -50.0026 497.845 -49.4251 497.845 -48.7128V-19.0485C497.845 -18.3362 498.422 -17.7587 499.135 -17.7587H517.191C517.904 -17.7587 518.481 -17.1813 518.481 -16.469V4.16706C518.481 4.87937 519.059 5.45682 519.771 5.45682H579.1C579.812 5.45682 580.389 4.87937 580.389 4.16706V-31.946C580.389 -32.6583 580.967 -33.2358 581.679 -33.2358H594.577C595.289 -33.2358 595.866 -33.8132 595.866 -34.5255V-66.7694C595.866 -67.4817 596.444 -68.0591 597.156 -68.0591H610.054C610.766 -68.0591 611.343 -67.4817 611.343 -66.7694V-20.3383C611.343 -19.6259 611.921 -19.0485 612.633 -19.0485H624.241C624.953 -19.0485 625.531 -19.6259 625.531 -20.3383V-52.5821C625.531 -53.2944 626.108 -53.8718 626.82 -53.8718H638.428C639.14 -53.8718 639.718 -54.4493 639.718 -55.1616V-82.4788C639.718 -83.0936 640.142 -83.6202 640.747 -83.7314C644.749 -84.4668 659.064 -86.8645 659.064 -83.5362V-57.7411C659.064 -57.0288 659.642 -56.4514 660.354 -56.4514H684.859C685.572 -56.4514 686.149 -55.8739 686.149 -55.1616V-7.44072C686.149 -6.7284 686.727 -6.15096 687.439 -6.15096H713.234C713.946 -6.15096 714.524 -6.72841 714.524 -7.44072V-40.9743C714.524 -41.6866 715.101 -42.2641 715.813 -42.2641H733.87C734.582 -42.2641 735.16 -41.6866 735.16 -40.9743V-20.3383C735.16 -19.6259 735.737 -19.0485 736.449 -19.0485H763.534C764.247 -19.0485 764.824 -18.4711 764.824 -17.7587V-3.57146C764.824 -2.85915 765.402 -2.2817 766.114 -2.2817H780.301C781.013 -2.2817 781.591 -1.70425 781.591 -0.991943V11.9056C781.591 12.6179 782.168 13.1953 782.881 13.1953H803.517C804.229 13.1953 804.806 12.6179 804.806 11.9056V-44.8436C804.806 -45.5559 805.384 -46.1333 806.096 -46.1333H818.994C819.706 -46.1333 820.283 -46.7108 820.283 -47.4231V-59.0309C820.283 -59.7432 820.861 -60.3206 821.573 -60.3206H837.05C837.763 -60.3206 838.34 -59.7432 838.34 -59.0309V-2.28171C838.34 -1.56939 838.917 -0.991951 839.63 -0.991951H873.163C873.876 -0.991951 874.453 -1.5694 874.453 -2.28171V-39.6846C874.453 -40.3969 875.031 -40.9743 875.743 -40.9743H886.001C886.736 -40.9743 887.324 -41.5784 887.293 -42.3131C887.056 -47.9356 886.23 -69.3489 887.351 -69.3489H915.725C916.438 -69.3489 917.015 -68.7715 917.015 -68.0591V-33.2358C917.015 -32.5235 917.592 -31.946 918.305 -31.946H931.202C931.915 -31.946 932.492 -31.3686 932.492 -30.6563V3.30294C932.492 4.01525 933.07 4.5927 933.782 4.5927H947.969C948.681 4.5927 949.259 4.01525 949.259 3.30294V-51.2923C949.259 -52.0047 949.836 -52.5821 950.549 -52.5821H959.577C960.715 -52.5821 959.844 -25.4426 959.624 -19.0815C959.599 -18.3509 960.184 -17.7587 960.915 -17.7587H977.633C978.346 -17.7587 978.923 -18.3362 978.923 -19.0485V-44.8436C978.923 -45.5559 979.501 -46.1333 980.213 -46.1333H986.662C987.374 -46.1333 987.951 -46.7108 987.951 -47.4231V-83.9618C987.951 -84.6741 988.529 -85.2516 989.241 -85.2516H1004.72C1005.43 -85.2516 1006.01 -84.6741 1006.01 -83.9618V-22.9178C1006.01 -22.2054 1006.59 -21.628 1007.3 -21.628H1021.49C1022.2 -21.628 1022.77 -22.2054 1022.77 -22.9178V-40.9743C1022.77 -41.6866 1023.35 -42.2641 1024.06 -42.2641H1033.09C1033.81 -42.2641 1034.38 -41.6866 1034.38 -40.9743V-8.73047C1034.38 -8.01815 1034.96 -7.44071 1035.67 -7.44071H1051.15C1051.86 -7.44071 1052.44 -8.01816 1052.44 -8.73047V-55.1616C1052.44 -55.8739 1053.02 -56.4514 1053.73 -56.4514H1064.05C1064.76 -56.4514 1065.34 -57.0288 1065.34 -57.7411V-83.9618C1065.34 -84.6741 1065.91 -85.2516 1066.63 -85.2516H1084.54C1085.25 -85.2516 1085.83 -84.6741 1085.83 -83.9618V446.217C1085.83 453.001 1080.33 458.5 1073.55 458.5H12.2832Z" fill="#7399EF" fill-opacity="0.05"/>
<path d="M1073.55 458.273C1080.33 458.273 1085.83 452.774 1085.83 445.99L1085.83 -4.00278C1085.83 -4.71509 1085.25 -5.29255 1084.54 -5.29255H1023.92C1023.21 -5.29255 1022.63 -4.7151 1022.63 -4.00279V23.082C1022.63 23.7943 1022.06 24.3718 1021.34 24.3718H978.781C978.069 24.3718 977.492 23.7943 977.492 23.082V5.02549C977.492 4.31318 976.914 3.73573 976.202 3.73573H968.463C967.751 3.73573 967.174 3.15829 967.174 2.44598V-16.9003C967.174 -17.6126 966.596 -18.1901 965.884 -18.1901H888.499C887.786 -18.1901 887.209 -17.6126 887.209 -16.9003V52.7464C887.209 53.4587 886.631 54.0361 885.919 54.0361H867.862C867.15 54.0361 866.573 53.4587 866.573 52.7464V19.2128C866.573 18.5005 865.995 17.923 865.283 17.923H854.965C854.253 17.923 853.675 18.5005 853.675 19.2128V30.8206C853.675 31.5329 853.098 32.1103 852.385 32.1103H842.067C841.355 32.1103 840.778 31.5329 840.778 30.8206V2.44598C840.778 1.73367 840.2 1.15622 839.488 1.15622H830.46C829.747 1.15622 829.17 0.578777 829.17 -0.133533V-16.9003C829.17 -17.6126 828.592 -18.1901 827.88 -18.1901H794.347C793.634 -18.1901 793.057 -17.6126 793.057 -16.9003V2.44598C793.057 3.15829 792.479 3.73573 791.767 3.73573H784.029C783.316 3.73573 782.739 4.31318 782.739 5.02549V82.4107C782.739 83.123 782.161 83.7005 781.449 83.7005H767.262C766.549 83.7005 765.972 83.123 765.972 82.4107V25.6615C765.972 24.9492 765.395 24.3718 764.682 24.3718H710.513C709.8 24.3718 709.223 24.9492 709.223 25.6615V45.0078C709.223 45.7202 708.645 46.2976 707.933 46.2976H695.035C694.323 46.2976 693.746 46.875 693.746 47.5874V60.4849C693.746 61.1972 693.168 61.7747 692.456 61.7747H675.689C674.977 61.7747 674.399 61.1972 674.399 60.4849V16.6333C674.399 15.921 673.822 15.3435 673.11 15.3435H662.792C662.079 15.3435 661.502 15.921 661.502 16.6333V39.8488C661.502 40.5611 660.924 41.1386 660.212 41.1386H624.099C623.387 41.1386 622.809 40.5611 622.809 39.8488V-11.7413C622.809 -12.4536 622.232 -13.0311 621.52 -13.0311H602.173C601.461 -13.0311 600.883 -13.6085 600.883 -14.3208V-34.9569C600.883 -35.6692 600.306 -36.2466 599.594 -36.2466H576.378C575.666 -36.2466 575.088 -35.6692 575.088 -34.9569V-4.00279C575.088 -3.29048 574.511 -2.71304 573.799 -2.71304H559.611C558.899 -2.71304 558.322 -2.1356 558.322 -1.42329V28.2411C558.322 28.9534 557.744 29.5308 557.032 29.5308H538.975C538.263 29.5308 537.686 30.1083 537.686 30.8206V51.4566C537.686 52.1689 537.108 52.7464 536.396 52.7464H506.731C506.019 52.7464 505.442 52.1689 505.442 51.4566V15.3435C505.442 14.6312 504.864 14.0538 504.152 14.0538H491.254C490.542 14.0538 489.965 14.6312 489.965 15.3435V46.2976C489.965 47.0099 489.387 47.5874 488.675 47.5874H475.777C475.065 47.5874 474.488 47.0099 474.488 46.2976V35.9796C474.488 35.2673 473.91 34.6898 473.198 34.6898H444.823C444.111 34.6898 443.533 34.1124 443.533 33.4001V-5.29255C443.533 -6.00486 442.956 -6.5823 442.244 -6.5823H430.636C429.924 -6.5823 429.346 -7.15974 429.346 -7.87206V-35.1893C429.346 -35.8041 428.922 -36.3307 428.318 -36.4418C424.315 -37.1773 410 -39.5749 410 -36.2466V-10.4516C410 -9.73925 409.422 -9.16181 408.71 -9.16181H384.205C383.492 -9.16181 382.915 -8.58437 382.915 -7.87206V39.8488C382.915 40.5611 382.338 41.1386 381.625 41.1386H372.597C371.885 41.1386 371.307 40.5611 371.307 39.8488V6.31524C371.307 5.60293 370.73 5.02549 370.018 5.02549H351.961C351.249 5.02549 350.671 5.60293 350.671 6.31524V26.9513C350.671 27.6636 350.094 28.2411 349.381 28.2411H322.297C321.584 28.2411 321.007 28.8185 321.007 29.5308V43.7181C321.007 44.4304 320.429 45.0079 319.717 45.0079H305.53C304.818 45.0079 304.24 45.5853 304.24 46.2976V59.1951C304.24 59.9074 303.663 60.4849 302.95 60.4849H282.314C281.602 60.4849 281.024 59.9074 281.024 59.1951V2.44598C281.024 1.73366 280.447 1.15622 279.735 1.15622H266.837C266.125 1.15622 265.547 0.578777 265.547 -0.133533V-11.7413C265.547 -12.4536 264.97 -13.0311 264.258 -13.0311H248.781C248.068 -13.0311 247.491 -12.4536 247.491 -11.7413V45.0079C247.491 45.7202 246.913 46.2976 246.201 46.2976H212.668C211.955 46.2976 211.378 45.7202 211.378 45.0079V7.60499C211.378 6.89268 210.8 6.31524 210.088 6.31524H199.83C199.095 6.31524 198.507 5.71112 198.538 4.97647C198.774 -0.646034 199.601 -22.0593 198.48 -22.0593H170.106C169.393 -22.0593 168.816 -21.4819 168.816 -20.7696V14.0538C168.816 14.7661 168.238 15.3435 167.526 15.3435H154.629C153.916 15.3435 153.339 15.921 153.339 16.6333V50.5925C153.339 51.3048 152.761 51.8822 152.049 51.8822H137.862C137.149 51.8822 136.572 51.3048 136.572 50.5925V-4.00279C136.572 -4.7151 135.995 -5.29255 135.282 -5.29255H126.254C125.115 -5.29255 125.987 21.8469 126.207 28.2081C126.232 28.9387 125.647 29.5308 124.916 29.5308H108.197C107.485 29.5308 106.908 28.9534 106.908 28.2411V2.44598C106.908 1.73367 106.33 1.15622 105.618 1.15622H99.1692C98.4569 1.15622 97.8794 0.578777 97.8794 -0.133533V-36.6723C97.8794 -37.3846 97.302 -37.962 96.5897 -37.962H81.1126C80.4003 -37.962 79.8229 -37.3846 79.8229 -36.6723V24.3718C79.8229 25.0841 79.2454 25.6615 78.5331 25.6615H64.3458C63.6335 25.6615 63.0561 25.0841 63.0561 24.3718V6.31524C63.0561 5.60293 62.4786 5.02549 61.7663 5.02549H52.738C52.0257 5.02549 51.4483 5.60293 51.4483 6.31524V38.5591C51.4483 39.2714 50.8708 39.8488 50.1585 39.8488H34.6815C33.9692 39.8488 33.3917 39.2714 33.3917 38.5591V-7.87205C33.3917 -8.58437 32.8143 -9.16181 32.102 -9.16181H21.7839C21.0716 -9.16181 20.4942 -9.73925 20.4942 -10.4516V-36.6723C20.4942 -37.3846 19.9167 -37.962 19.2044 -37.962H1.28975C0.577443 -37.962 7.53119e-08 -37.3846 1.68214e-07 -36.6723L6.31186e-05 445.99C6.40033e-05 452.774 5.49942 458.273 12.2832 458.273H1073.55Z" fill="#7399EF" fill-opacity="0.1"/>
<path d="M12.2832 459.502C5.49939 459.502 0 454.002 0 447.218V34.6899C0 33.9775 0.577443 33.4001 1.28975 33.4001H61.9082C62.6205 33.4001 63.1979 33.9775 63.1979 34.6898V61.7747C63.1979 62.487 63.7754 63.0644 64.4877 63.0644H107.05C107.762 63.0644 108.339 62.487 108.339 61.7747V43.7181C108.339 43.0058 108.917 42.4284 109.629 42.4284H117.368C118.08 42.4284 118.657 41.8509 118.657 41.1386V21.7923C118.657 21.08 119.235 20.5025 119.947 20.5025H197.332C198.045 20.5025 198.622 21.08 198.622 21.7923V91.439C198.622 92.1513 199.2 92.7288 199.912 92.7288H217.968C218.681 92.7288 219.258 92.1513 219.258 91.439V57.9054C219.258 57.1931 219.836 56.6157 220.548 56.6157H230.866C231.578 56.6157 232.156 57.1931 232.156 57.9054V69.5132C232.156 70.2255 232.733 70.8029 233.445 70.8029H243.763C244.476 70.8029 245.053 70.2255 245.053 69.5132V41.1386C245.053 40.4263 245.631 39.8489 246.343 39.8489H255.371C256.084 39.8489 256.661 39.2714 256.661 38.5591V21.7923C256.661 21.08 257.238 20.5025 257.951 20.5025H291.484C292.197 20.5025 292.774 21.08 292.774 21.7923V41.1386C292.774 41.8509 293.352 42.4284 294.064 42.4284H301.802C302.515 42.4284 303.092 43.0058 303.092 43.7181V121.103C303.092 121.816 303.67 122.393 304.382 122.393H318.569C319.282 122.393 319.859 121.816 319.859 121.103V64.3542C319.859 63.6419 320.436 63.0644 321.149 63.0644H375.318C376.031 63.0644 376.608 63.6419 376.608 64.3542V83.7005C376.608 84.4128 377.186 84.9902 377.898 84.9902H390.795C391.508 84.9902 392.085 85.5677 392.085 86.28V99.1775C392.085 99.8898 392.663 100.467 393.375 100.467H410.142C410.854 100.467 411.431 99.8898 411.431 99.1775V55.3259C411.431 54.6136 412.009 54.0361 412.721 54.0361H423.039C423.752 54.0361 424.329 54.6136 424.329 55.3259V78.5415C424.329 79.2538 424.906 79.8312 425.619 79.8312H432.068C432.78 79.8312 433.357 79.2538 433.357 78.5415V26.9513C433.357 26.239 433.935 25.6616 434.647 25.6616H453.993C454.706 25.6616 455.283 25.0841 455.283 24.3718V3.73574C455.283 3.02343 455.861 2.44599 456.573 2.44599H479.788C480.501 2.44599 481.078 3.02343 481.078 3.73574V34.6898C481.078 35.4022 481.656 35.9796 482.368 35.9796H496.555C497.268 35.9796 497.845 36.557 497.845 37.2693V66.9337C497.845 67.646 498.422 68.2234 499.135 68.2234H517.191C517.904 68.2234 518.481 68.8009 518.481 69.5132V90.1493C518.481 90.8616 519.059 91.439 519.771 91.439H579.1C579.812 91.439 580.389 90.8616 580.389 90.1493V54.0361C580.389 53.3238 580.967 52.7464 581.679 52.7464H594.577C595.289 52.7464 595.866 52.169 595.866 51.4566V19.2128C595.866 18.5005 596.444 17.923 597.156 17.923H610.054C610.766 17.923 611.343 18.5005 611.343 19.2128V65.6439C611.343 66.3562 611.921 66.9337 612.633 66.9337H624.241C624.953 66.9337 625.531 66.3562 625.531 65.6439V33.4001C625.531 32.6878 626.108 32.1103 626.82 32.1103H638.428C639.141 32.1103 639.718 31.5329 639.718 30.8206V3.50333C639.718 2.88853 640.142 2.36193 640.747 2.25082C644.749 1.51535 659.064 -0.882321 659.064 2.44599V28.2411C659.064 28.9534 659.642 29.5308 660.354 29.5308H684.859C685.572 29.5308 686.149 30.1083 686.149 30.8206V78.5415C686.149 79.2538 686.727 79.8312 687.439 79.8312H713.234C713.946 79.8312 714.524 79.2538 714.524 78.5415V45.0079C714.524 44.2956 715.101 43.7181 715.813 43.7181H733.87C734.582 43.7181 735.16 44.2956 735.16 45.0079V65.6439C735.16 66.3562 735.737 66.9337 736.449 66.9337H763.534C764.247 66.9337 764.824 67.5111 764.824 68.2234V82.4107C764.824 83.123 765.402 83.7005 766.114 83.7005H780.301C781.013 83.7005 781.591 84.2779 781.591 84.9902V97.8878C781.591 98.6001 782.168 99.1775 782.881 99.1775H803.517C804.229 99.1775 804.806 98.6001 804.806 97.8878V41.1386C804.806 40.4263 805.384 39.8489 806.096 39.8489H818.994C819.706 39.8489 820.283 39.2714 820.283 38.5591V26.9513C820.283 26.239 820.861 25.6616 821.573 25.6616H837.05C837.763 25.6616 838.34 26.239 838.34 26.9513V83.7005C838.34 84.4128 838.917 84.9902 839.63 84.9902H873.163C873.876 84.9902 874.453 84.4128 874.453 83.7005V46.2976C874.453 45.5853 875.031 45.0079 875.743 45.0079H886.001C886.736 45.0079 887.324 44.4038 887.293 43.6691C887.056 38.0466 886.23 16.6333 887.351 16.6333H915.725C916.438 16.6333 917.015 17.2107 917.015 17.923V52.7464C917.015 53.4587 917.592 54.0361 918.305 54.0361H931.202C931.915 54.0361 932.492 54.6136 932.492 55.3259V89.2851C932.492 89.9974 933.07 90.5749 933.782 90.5749H947.969C948.681 90.5749 949.259 89.9974 949.259 89.2851V34.6898C949.259 33.9775 949.836 33.4001 950.549 33.4001H959.577C960.715 33.4001 959.844 60.5396 959.624 66.9007C959.599 67.6313 960.184 68.2234 960.915 68.2234H977.633C978.346 68.2234 978.923 67.646 978.923 66.9337V41.1386C978.923 40.4263 979.501 39.8489 980.213 39.8489H986.662C987.374 39.8489 987.951 39.2714 987.951 38.5591V2.02037C987.951 1.30806 988.529 0.730618 989.241 0.730618H1004.72C1005.43 0.730618 1006.01 1.30806 1006.01 2.02037V63.0644C1006.01 63.7767 1006.59 64.3542 1007.3 64.3542H1021.49C1022.2 64.3542 1022.77 63.7767 1022.77 63.0644V45.0079C1022.77 44.2956 1023.35 43.7181 1024.06 43.7181H1033.09C1033.81 43.7181 1034.38 44.2956 1034.38 45.0079V77.2517C1034.38 77.964 1034.96 78.5415 1035.67 78.5415H1051.15C1051.86 78.5415 1052.44 77.964 1052.44 77.2517V30.8206C1052.44 30.1083 1053.02 29.5308 1053.73 29.5308H1064.05C1064.76 29.5308 1065.34 28.9534 1065.34 28.2411V2.02037C1065.34 1.30806 1065.91 0.730618 1066.63 0.730618H1084.54C1085.25 0.730618 1085.83 1.30806 1085.83 2.02037V447.218C1085.83 454.002 1080.33 459.502 1073.55 459.502H12.2832Z" fill="#7399EF" fill-opacity="0.2"/>
<path d="M1073.72 458.501C1080.5 458.501 1086 453.001 1086 446.218V104.125C1086 103.412 1085.42 102.835 1084.71 102.835H1024.08C1023.37 102.835 1022.79 103.412 1022.79 104.125V131.226C1022.79 131.938 1022.21 132.516 1021.5 132.516H978.933C978.221 132.516 977.644 131.938 977.644 131.226V113.158C977.644 112.446 977.066 111.868 976.354 111.868H968.614C967.901 111.868 967.324 111.291 967.324 110.578V91.22C967.324 90.5076 966.747 89.9302 966.034 89.9302H888.637C887.924 89.9302 887.347 90.5076 887.347 91.22V160.906C887.347 161.619 886.769 162.196 886.057 162.196H867.997C867.285 162.196 866.708 161.619 866.708 160.906V127.353C866.708 126.641 866.13 126.063 865.418 126.063H855.098C854.385 126.063 853.808 126.641 853.808 127.353V138.969C853.808 139.681 853.231 140.258 852.518 140.258H842.198C841.486 140.258 840.909 139.681 840.909 138.969V110.577C840.909 109.865 840.331 109.287 839.619 109.287H830.589C829.876 109.287 829.299 108.71 829.299 107.997V91.22C829.299 90.5076 828.721 89.9302 828.009 89.9302H794.47C793.758 89.9302 793.18 90.5076 793.18 91.22V110.578C793.18 111.291 792.603 111.868 791.89 111.868H784.15C783.438 111.868 782.861 112.446 782.861 113.158V190.587C782.861 191.299 782.283 191.877 781.571 191.877H767.381C766.669 191.877 766.091 191.299 766.091 190.587V133.805C766.091 133.093 765.514 132.516 764.801 132.516H710.623C709.911 132.516 709.333 133.093 709.333 133.805V153.164C709.333 153.876 708.756 154.453 708.043 154.453H695.143C694.431 154.453 693.854 155.031 693.854 155.743V168.649C693.854 169.362 693.276 169.939 692.564 169.939H675.794C675.082 169.939 674.504 169.362 674.504 168.649V124.772C674.504 124.06 673.927 123.482 673.215 123.482H662.894C662.182 123.482 661.605 124.06 661.605 124.772V148.002C661.605 148.714 661.027 149.292 660.315 149.292H624.196C623.484 149.292 622.906 148.714 622.906 148.002V96.3818C622.906 95.6695 622.329 95.0921 621.617 95.0921H602.267C601.554 95.0921 600.977 94.5146 600.977 93.8023V73.1534C600.977 72.4411 600.4 71.8637 599.687 71.8637H576.468C575.755 71.8637 575.178 72.4411 575.178 73.1534V104.126C575.178 104.838 574.6 105.416 573.888 105.416H559.698C558.986 105.416 558.409 105.993 558.409 106.706V136.388C558.409 137.1 557.831 137.677 557.119 137.677H539.059C538.347 137.677 537.769 138.255 537.769 138.967V159.616C537.769 160.328 537.192 160.906 536.479 160.906H506.81C506.098 160.906 505.52 160.328 505.52 159.616V123.482C505.52 122.769 504.943 122.192 504.231 122.192H491.331C490.618 122.192 490.041 122.769 490.041 123.482V154.454C490.041 155.166 489.463 155.744 488.751 155.744H475.851C475.139 155.744 474.561 155.166 474.561 154.454V144.129C474.561 143.417 473.984 142.839 473.272 142.839H444.892C444.18 142.839 443.602 142.262 443.602 141.55V102.834C443.602 102.122 443.025 101.544 442.313 101.544H430.703C429.99 101.544 429.413 100.967 429.413 100.255V72.9209C429.413 72.3062 428.989 71.7796 428.384 71.6685C424.381 70.9326 410.064 68.5335 410.064 71.8637V97.6737C410.064 98.386 409.486 98.9635 408.774 98.9635H384.264C383.552 98.9635 382.975 99.5409 382.975 100.253V148.002C382.975 148.714 382.397 149.292 381.685 149.292H372.655C371.943 149.292 371.365 148.714 371.365 148.002V114.448C371.365 113.736 370.788 113.159 370.075 113.159H352.016C351.303 113.159 350.726 113.736 350.726 114.448V135.097C350.726 135.81 350.148 136.387 349.436 136.387H322.347C321.634 136.387 321.057 136.964 321.057 137.677V151.873C321.057 152.586 320.479 153.163 319.767 153.163H305.577C304.865 153.163 304.287 153.74 304.287 154.453V167.359C304.287 168.071 303.71 168.649 302.998 168.649H282.358C281.646 168.649 281.068 168.071 281.068 167.359V110.577C281.068 109.865 280.491 109.287 279.778 109.287H266.879C266.166 109.287 265.589 108.71 265.589 107.997V96.3818C265.589 95.6695 265.011 95.0921 264.299 95.0921H248.819C248.107 95.0921 247.529 95.6695 247.529 96.3818V153.164C247.529 153.876 246.952 154.453 246.24 154.453H212.7C211.988 154.453 211.411 153.876 211.411 153.164V115.739C211.411 115.026 210.833 114.449 210.121 114.449H199.861C199.126 114.449 198.538 113.845 198.569 113.11C198.805 107.486 199.632 86.0588 198.511 86.0588H170.132C169.42 86.0588 168.842 86.6362 168.842 87.3486V122.193C168.842 122.905 168.265 123.482 167.552 123.482H154.652C153.94 123.482 153.363 124.06 153.363 124.772V158.751C153.363 159.464 152.785 160.041 152.073 160.041H137.883C137.171 160.041 136.593 159.464 136.593 158.751V104.125C136.593 103.412 136.016 102.835 135.304 102.835H126.274C125.135 102.835 126.007 129.992 126.227 136.355C126.252 137.085 125.666 137.677 124.935 137.677H108.214C107.502 137.677 106.924 137.1 106.924 136.388V110.577C106.924 109.865 106.347 109.287 105.635 109.287H99.1844C98.4721 109.287 97.8947 108.71 97.8947 107.997V71.4371C97.8947 70.7248 97.3172 70.1474 96.6049 70.1474H81.125C80.4127 70.1474 79.8353 70.7248 79.8353 71.4371V132.516C79.8353 133.229 79.2578 133.806 78.5455 133.806H64.3556C63.6433 133.806 63.0659 133.229 63.0659 132.516V114.448C63.0659 113.736 62.4884 113.159 61.7761 113.159H52.746C52.0337 113.159 51.4563 113.736 51.4563 114.448V146.711C51.4563 147.424 50.8788 148.001 50.1665 148.001H34.6867C33.9744 148.001 33.3969 147.424 33.3969 146.711V100.253C33.3969 99.5409 32.8195 98.9635 32.1072 98.9635H21.7871C21.0748 98.9635 20.4974 98.386 20.4974 97.6737V71.4371C20.4974 70.7248 19.9199 70.1474 19.2076 70.1474H1.28976C0.577444 70.1474 9.6248e-08 70.7248 2.14976e-07 71.4371L6.26833e-05 446.218C6.3814e-05 453.001 5.49942 458.501 12.2832 458.501H1073.72Z" fill="#7399EF" fill-opacity="0.2"/>
</g>
</g>
</g>
</svg>
