<svg width="362" height="145" viewBox="0 0 362 145" fill="none" xmlns="http://www.w3.org/2000/svg">
<path d="M31.8398 1.54688V57H19.0049V16.0195L6.36035 19.7139V9.96387L30.6592 1.54688H31.8398ZM87.1787 24.208V34.3389C87.1787 38.3252 86.709 41.791 85.7695 44.7363C84.8555 47.6816 83.5352 50.1191 81.8086 52.0488C80.1074 53.9785 78.0762 55.4131 75.7148 56.3525C73.3535 57.292 70.751 57.7617 67.9072 57.7617C65.6221 57.7617 63.4893 57.4697 61.5088 56.8857C59.5283 56.2764 57.7383 55.3623 56.1387 54.1436C54.5645 52.8994 53.2061 51.3506 52.0635 49.4971C50.9209 47.6436 50.0449 45.46 49.4355 42.9463C48.8262 40.4072 48.5215 37.5381 48.5215 34.3389V24.208C48.5215 20.1963 48.9785 16.7305 49.8926 13.8105C50.832 10.8652 52.165 8.42773 53.8916 6.49805C55.6182 4.56836 57.6621 3.13379 60.0234 2.19434C62.3848 1.25488 64.9873 0.785156 67.8311 0.785156C70.1162 0.785156 72.2363 1.08984 74.1914 1.69922C76.1719 2.2832 77.9619 3.19727 79.5615 4.44141C81.1611 5.66016 82.5195 7.19629 83.6367 9.0498C84.7793 10.9033 85.6553 13.0996 86.2646 15.6387C86.874 18.1523 87.1787 21.0088 87.1787 24.208ZM74.3438 35.9004V22.5703C74.3438 20.793 74.2422 19.2441 74.0391 17.9238C73.8613 16.6035 73.582 15.4863 73.2012 14.5723C72.8457 13.6582 72.4014 12.9219 71.8682 12.3633C71.335 11.7793 70.7256 11.3604 70.04 11.1064C69.3799 10.8271 68.6436 10.6875 67.8311 10.6875C66.8154 10.6875 65.9014 10.9033 65.0889 11.335C64.3018 11.7412 63.6289 12.4014 63.0703 13.3154C62.5117 14.2295 62.0801 15.4482 61.7754 16.9717C61.4961 18.4951 61.3564 20.3613 61.3564 22.5703V35.9004C61.3564 37.7031 61.4453 39.2773 61.623 40.623C61.8262 41.9434 62.1055 43.0732 62.4609 44.0127C62.8418 44.9268 63.2988 45.6758 63.832 46.2598C64.3652 46.8184 64.9746 47.2246 65.6602 47.4785C66.3457 47.7324 67.0947 47.8594 67.9072 47.8594C68.8975 47.8594 69.7861 47.6562 70.5732 47.25C71.3604 46.8438 72.0332 46.1836 72.5918 45.2695C73.1758 44.3301 73.6074 43.0986 73.8867 41.5752C74.1914 40.0264 74.3438 38.1348 74.3438 35.9004ZM93.958 15.1436V12.2109C93.958 10.1035 94.415 8.18652 95.3291 6.45996C96.2432 4.7334 97.6143 3.34961 99.4424 2.30859C101.271 1.26758 103.543 0.74707 106.26 0.74707C109.053 0.74707 111.363 1.26758 113.191 2.30859C115.02 3.34961 116.378 4.7334 117.267 6.45996C118.181 8.18652 118.638 10.1035 118.638 12.2109V15.1436C118.638 17.2002 118.181 19.0918 117.267 20.8184C116.378 22.5449 115.02 23.9287 113.191 24.9697C111.389 26.0107 109.104 26.5312 106.336 26.5312C103.594 26.5312 101.309 26.0107 99.4805 24.9697C97.6523 23.9287 96.2686 22.5449 95.3291 20.8184C94.415 19.0918 93.958 17.2002 93.958 15.1436ZM102.185 12.2109V15.1436C102.185 15.9053 102.337 16.6289 102.642 17.3145C102.946 18 103.403 18.5586 104.013 18.9902C104.647 19.3965 105.422 19.5996 106.336 19.5996C107.275 19.5996 108.037 19.3965 108.621 18.9902C109.205 18.5586 109.637 18 109.916 17.3145C110.221 16.6289 110.373 15.9053 110.373 15.1436V12.2109C110.373 11.3984 110.221 10.6494 109.916 9.96387C109.637 9.27832 109.192 8.73242 108.583 8.32617C107.974 7.89453 107.199 7.67871 106.26 7.67871C105.371 7.67871 104.622 7.89453 104.013 8.32617C103.403 8.73242 102.946 9.27832 102.642 9.96387C102.337 10.6494 102.185 11.3984 102.185 12.2109ZM120.275 46.3359V43.4033C120.275 41.3213 120.732 39.417 121.646 37.6904C122.586 35.9639 123.97 34.5801 125.798 33.5391C127.651 32.498 129.937 31.9775 132.653 31.9775C135.446 31.9775 137.744 32.498 139.547 33.5391C141.375 34.5801 142.733 35.9639 143.622 37.6904C144.536 39.417 144.993 41.3213 144.993 43.4033V46.3359C144.993 48.418 144.536 50.3223 143.622 52.0488C142.733 53.7754 141.388 55.1592 139.585 56.2002C137.782 57.2412 135.497 57.7617 132.729 57.7617C129.987 57.7617 127.689 57.2412 125.836 56.2002C123.982 55.1592 122.586 53.7754 121.646 52.0488C120.732 50.3223 120.275 48.418 120.275 46.3359ZM128.54 43.4033V46.3359C128.54 47.123 128.73 47.8594 129.111 48.5449C129.492 49.2305 130 49.7891 130.635 50.2207C131.27 50.627 131.968 50.8301 132.729 50.8301C133.897 50.8301 134.761 50.627 135.319 50.2207C135.903 49.7891 136.284 49.2305 136.462 48.5449C136.665 47.8594 136.767 47.123 136.767 46.3359V43.4033C136.767 42.6162 136.614 41.8799 136.31 41.1943C136.005 40.5088 135.548 39.9629 134.938 39.5566C134.329 39.125 133.567 38.9092 132.653 38.9092C131.739 38.9092 130.978 39.125 130.368 39.5566C129.759 39.9629 129.302 40.5088 128.997 41.1943C128.692 41.8799 128.54 42.6162 128.54 43.4033ZM135.853 9.50684L108.773 52.8486L102.794 49.8398L129.873 6.49805L135.853 9.50684ZM10.1953 85.0078V105H2.29688V79.6406H9.70312L10.1953 85.0078ZM9.23438 91.4531L7.42969 91.5C7.42969 89.7188 7.64062 88.0781 8.0625 86.5781C8.48438 85.0781 9.10938 83.7734 9.9375 82.6641C10.7656 81.5547 11.7812 80.6953 12.9844 80.0859C14.2031 79.4766 15.6094 79.1719 17.2031 79.1719C18.3125 79.1719 19.3203 79.3438 20.2266 79.6875C21.1328 80.0156 21.9141 80.5391 22.5703 81.2578C23.2266 81.9609 23.7266 82.8828 24.0703 84.0234C24.4297 85.1484 24.6094 86.5 24.6094 88.0781V105H16.7109V89.0859C16.7109 88.0078 16.5859 87.1953 16.3359 86.6484C16.1016 86.1016 15.7578 85.7344 15.3047 85.5469C14.8516 85.3594 14.2969 85.2656 13.6406 85.2656C12.9531 85.2656 12.3359 85.4219 11.7891 85.7344C11.2422 86.0469 10.7734 86.4844 10.3828 87.0469C10.0078 87.5938 9.71875 88.2422 9.51562 88.9922C9.32812 89.7422 9.23438 90.5625 9.23438 91.4531ZM23.7188 91.4531L21.5156 91.5C21.5156 89.7188 21.7109 88.0781 22.1016 86.5781C22.5078 85.0781 23.1094 83.7734 23.9062 82.6641C24.7188 81.5547 25.7266 80.6953 26.9297 80.0859C28.1328 79.4766 29.5312 79.1719 31.125 79.1719C32.2812 79.1719 33.3438 79.3438 34.3125 79.6875C35.2812 80.0312 36.1172 80.5859 36.8203 81.3516C37.5234 82.1172 38.0703 83.1328 38.4609 84.3984C38.8516 85.6484 39.0469 87.1953 39.0469 89.0391V105H31.125V89.0391C31.125 87.9922 31 87.2031 30.75 86.6719C30.5156 86.125 30.1719 85.7578 29.7188 85.5703C29.2656 85.3672 28.7266 85.2656 28.1016 85.2656C27.3516 85.2656 26.7031 85.4219 26.1562 85.7344C25.6094 86.0469 25.1484 86.4844 24.7734 87.0469C24.4141 87.5938 24.1484 88.2422 23.9766 88.9922C23.8047 89.7422 23.7188 90.5625 23.7188 91.4531ZM42.5859 92.5781V92.0859C42.5859 90.2266 42.8516 88.5156 43.3828 86.9531C43.9141 85.375 44.6953 84.0078 45.7266 82.8516C46.7578 81.6953 48.0312 80.7969 49.5469 80.1562C51.0625 79.5 52.8125 79.1719 54.7969 79.1719C56.7969 79.1719 58.5547 79.5 60.0703 80.1562C61.6016 80.7969 62.8828 81.6953 63.9141 82.8516C64.9453 84.0078 65.7266 85.375 66.2578 86.9531C66.7891 88.5156 67.0547 90.2266 67.0547 92.0859V92.5781C67.0547 94.4219 66.7891 96.1328 66.2578 97.7109C65.7266 99.2734 64.9453 100.641 63.9141 101.812C62.8828 102.969 61.6094 103.867 60.0938 104.508C58.5781 105.148 56.8281 105.469 54.8438 105.469C52.8594 105.469 51.1016 105.148 49.5703 104.508C48.0391 103.867 46.7578 102.969 45.7266 101.812C44.6953 100.641 43.9141 99.2734 43.3828 97.7109C42.8516 96.1328 42.5859 94.4219 42.5859 92.5781ZM50.4844 92.0859V92.5781C50.4844 93.5312 50.5547 94.4219 50.6953 95.25C50.8359 96.0781 51.0703 96.8047 51.3984 97.4297C51.7266 98.0391 52.1719 98.5156 52.7344 98.8594C53.2969 99.2031 54 99.375 54.8438 99.375C55.6719 99.375 56.3594 99.2031 56.9062 98.8594C57.4688 98.5156 57.9141 98.0391 58.2422 97.4297C58.5703 96.8047 58.8047 96.0781 58.9453 95.25C59.0859 94.4219 59.1562 93.5312 59.1562 92.5781V92.0859C59.1562 91.1641 59.0859 90.2969 58.9453 89.4844C58.8047 88.6562 58.5703 87.9297 58.2422 87.3047C57.9141 86.6641 57.4688 86.1641 56.9062 85.8047C56.3438 85.4453 55.6406 85.2656 54.7969 85.2656C53.9688 85.2656 53.2734 85.4453 52.7109 85.8047C52.1641 86.1641 51.7266 86.6641 51.3984 87.3047C51.0703 87.9297 50.8359 88.6562 50.6953 89.4844C50.5547 90.2969 50.4844 91.1641 50.4844 92.0859ZM78.5391 85.9219V105H70.6406V79.6406H78.0234L78.5391 85.9219ZM86.0391 79.4531L85.8984 86.7891C85.5859 86.7578 85.1641 86.7188 84.6328 86.6719C84.1016 86.625 83.6562 86.6016 83.2969 86.6016C82.375 86.6016 81.5781 86.7109 80.9062 86.9297C80.25 87.1328 79.7031 87.4453 79.2656 87.8672C78.8438 88.2734 78.5312 88.7891 78.3281 89.4141C78.1406 90.0391 78.0547 90.7656 78.0703 91.5938L76.6406 90.6562C76.6406 88.9531 76.8047 87.4062 77.1328 86.0156C77.4766 84.6094 77.9609 83.3984 78.5859 82.3828C79.2109 81.3516 79.9688 80.5625 80.8594 80.0156C81.75 79.4531 82.75 79.1719 83.8594 79.1719C84.25 79.1719 84.6328 79.1953 85.0078 79.2422C85.3984 79.2891 85.7422 79.3594 86.0391 79.4531ZM100.57 105.469C98.5078 105.469 96.6641 105.148 95.0391 104.508C93.4141 103.852 92.0391 102.953 90.9141 101.812C89.8047 100.672 88.9531 99.3594 88.3594 97.875C87.7812 96.3906 87.4922 94.8203 87.4922 93.1641V92.2734C87.4922 90.4141 87.75 88.6953 88.2656 87.1172C88.7812 85.5234 89.5469 84.1328 90.5625 82.9453C91.5781 81.7578 92.8516 80.8359 94.3828 80.1797C95.9141 79.5078 97.6953 79.1719 99.7266 79.1719C101.523 79.1719 103.133 79.4609 104.555 80.0391C105.977 80.6172 107.18 81.4453 108.164 82.5234C109.164 83.6016 109.922 84.9062 110.438 86.4375C110.969 87.9688 111.234 89.6875 111.234 91.5938V94.8047H90.5156V89.8594H103.523V89.25C103.539 88.4062 103.391 87.6875 103.078 87.0938C102.781 86.5 102.344 86.0469 101.766 85.7344C101.188 85.4219 100.484 85.2656 99.6562 85.2656C98.7969 85.2656 98.0859 85.4531 97.5234 85.8281C96.9766 86.2031 96.5469 86.7188 96.2344 87.375C95.9375 88.0156 95.7266 88.7578 95.6016 89.6016C95.4766 90.4453 95.4141 91.3359 95.4141 92.2734V93.1641C95.4141 94.1016 95.5391 94.9531 95.7891 95.7188C96.0547 96.4844 96.4297 97.1406 96.9141 97.6875C97.4141 98.2188 98.0078 98.6328 98.6953 98.9297C99.3984 99.2266 100.195 99.375 101.086 99.375C102.164 99.375 103.227 99.1719 104.273 98.7656C105.32 98.3594 106.219 97.6875 106.969 96.75L110.555 101.016C110.039 101.75 109.305 102.461 108.352 103.148C107.414 103.836 106.289 104.398 104.977 104.836C103.664 105.258 102.195 105.469 100.57 105.469ZM137.109 99.375C137.844 99.375 138.469 99.2422 138.984 98.9766C139.516 98.6953 139.914 98.3047 140.18 97.8047C140.461 97.2891 140.594 96.6719 140.578 95.9531H148.008C148.023 97.8594 147.555 99.5312 146.602 100.969C145.664 102.391 144.383 103.5 142.758 104.297C141.148 105.078 139.328 105.469 137.297 105.469C135.312 105.469 133.578 105.148 132.094 104.508C130.609 103.852 129.367 102.945 128.367 101.789C127.383 100.617 126.641 99.25 126.141 97.6875C125.656 96.125 125.414 94.4297 125.414 92.6016V92.0625C125.414 90.2344 125.656 88.5391 126.141 86.9766C126.641 85.3984 127.383 84.0312 128.367 82.875C129.367 81.7031 130.602 80.7969 132.07 80.1562C133.555 79.5 135.281 79.1719 137.25 79.1719C139.359 79.1719 141.219 79.5703 142.828 80.3672C144.453 81.1641 145.727 82.3203 146.648 83.8359C147.57 85.3516 148.023 87.1875 148.008 89.3438H140.578C140.594 88.5781 140.477 87.8906 140.227 87.2812C139.977 86.6719 139.586 86.1875 139.055 85.8281C138.539 85.4531 137.875 85.2656 137.062 85.2656C136.25 85.2656 135.594 85.4453 135.094 85.8047C134.594 86.1641 134.211 86.6641 133.945 87.3047C133.695 87.9297 133.523 88.6484 133.43 89.4609C133.352 90.2734 133.312 91.1406 133.312 92.0625V92.6016C133.312 93.5391 133.352 94.4219 133.43 95.25C133.523 96.0625 133.703 96.7812 133.969 97.4062C134.234 98.0156 134.617 98.5 135.117 98.8594C135.617 99.2031 136.281 99.375 137.109 99.375ZM164.555 98.625V88.1719C164.555 87.4531 164.453 86.8359 164.25 86.3203C164.047 85.8047 163.727 85.4062 163.289 85.125C162.852 84.8281 162.266 84.6797 161.531 84.6797C160.938 84.6797 160.43 84.7812 160.008 84.9844C159.586 85.1875 159.266 85.4922 159.047 85.8984C158.828 86.3047 158.719 86.8203 158.719 87.4453H150.82C150.82 86.2734 151.078 85.1875 151.594 84.1875C152.125 83.1719 152.875 82.2891 153.844 81.5391C154.828 80.7891 156 80.2109 157.359 79.8047C158.734 79.3828 160.266 79.1719 161.953 79.1719C163.969 79.1719 165.766 79.5078 167.344 80.1797C168.938 80.8516 170.195 81.8594 171.117 83.2031C172.039 84.5312 172.5 86.2031 172.5 88.2188V98.6016C172.5 100.258 172.594 101.516 172.781 102.375C172.969 103.219 173.234 103.961 173.578 104.602V105H165.656C165.281 104.219 165 103.266 164.812 102.141C164.641 101 164.555 99.8281 164.555 98.625ZM165.516 89.5078L165.562 93.7266H162.07C161.336 93.7266 160.711 93.8281 160.195 94.0312C159.695 94.2344 159.289 94.5156 158.977 94.875C158.68 95.2188 158.461 95.6094 158.32 96.0469C158.195 96.4844 158.133 96.9453 158.133 97.4297C158.133 97.8984 158.242 98.3203 158.461 98.6953C158.695 99.0547 159.008 99.3359 159.398 99.5391C159.789 99.7422 160.227 99.8438 160.711 99.8438C161.586 99.8438 162.328 99.6797 162.938 99.3516C163.562 99.0078 164.039 98.5938 164.367 98.1094C164.695 97.625 164.859 97.1719 164.859 96.75L166.594 99.9844C166.281 100.609 165.922 101.242 165.516 101.883C165.125 102.523 164.633 103.117 164.039 103.664C163.461 104.195 162.75 104.633 161.906 104.977C161.062 105.305 160.039 105.469 158.836 105.469C157.273 105.469 155.836 105.148 154.523 104.508C153.227 103.867 152.188 102.977 151.406 101.836C150.625 100.68 150.234 99.3516 150.234 97.8516C150.234 96.5391 150.469 95.3672 150.938 94.3359C151.422 93.3047 152.148 92.4297 153.117 91.7109C154.086 90.9922 155.32 90.4453 156.82 90.0703C158.32 89.6953 160.086 89.5078 162.117 89.5078H165.516ZM184.852 85.0078V105H176.953V79.6406H184.359L184.852 85.0078ZM183.891 91.4531L182.086 91.5C182.086 89.7188 182.297 88.0781 182.719 86.5781C183.141 85.0781 183.766 83.7734 184.594 82.6641C185.422 81.5547 186.438 80.6953 187.641 80.0859C188.859 79.4766 190.266 79.1719 191.859 79.1719C192.969 79.1719 193.977 79.3438 194.883 79.6875C195.789 80.0156 196.57 80.5391 197.227 81.2578C197.883 81.9609 198.383 82.8828 198.727 84.0234C199.086 85.1484 199.266 86.5 199.266 88.0781V105H191.367V89.0859C191.367 88.0078 191.242 87.1953 190.992 86.6484C190.758 86.1016 190.414 85.7344 189.961 85.5469C189.508 85.3594 188.953 85.2656 188.297 85.2656C187.609 85.2656 186.992 85.4219 186.445 85.7344C185.898 86.0469 185.43 86.4844 185.039 87.0469C184.664 87.5938 184.375 88.2422 184.172 88.9922C183.984 89.7422 183.891 90.5625 183.891 91.4531ZM198.375 91.4531L196.172 91.5C196.172 89.7188 196.367 88.0781 196.758 86.5781C197.164 85.0781 197.766 83.7734 198.562 82.6641C199.375 81.5547 200.383 80.6953 201.586 80.0859C202.789 79.4766 204.188 79.1719 205.781 79.1719C206.938 79.1719 208 79.3438 208.969 79.6875C209.938 80.0312 210.773 80.5859 211.477 81.3516C212.18 82.1172 212.727 83.1328 213.117 84.3984C213.508 85.6484 213.703 87.1953 213.703 89.0391V105H205.781V89.0391C205.781 87.9922 205.656 87.2031 205.406 86.6719C205.172 86.125 204.828 85.7578 204.375 85.5703C203.922 85.3672 203.383 85.2656 202.758 85.2656C202.008 85.2656 201.359 85.4219 200.812 85.7344C200.266 86.0469 199.805 86.4844 199.43 87.0469C199.07 87.5938 198.805 88.2422 198.633 88.9922C198.461 89.7422 198.375 90.5625 198.375 91.4531ZM226.195 84.5156V114.75H218.297V79.6406H225.656L226.195 84.5156ZM241.758 92.0156V92.5078C241.758 94.3516 241.547 96.0625 241.125 97.6406C240.703 99.2188 240.078 100.594 239.25 101.766C238.422 102.938 237.391 103.852 236.156 104.508C234.938 105.148 233.523 105.469 231.914 105.469C230.398 105.469 229.094 105.133 228 104.461C226.906 103.789 225.992 102.859 225.258 101.672C224.523 100.484 223.93 99.125 223.477 97.5938C223.023 96.0625 222.664 94.4453 222.398 92.7422V92.1094C222.664 90.2812 223.023 88.5859 223.477 87.0234C223.93 85.4453 224.523 84.0703 225.258 82.8984C225.992 81.7266 226.898 80.8125 227.977 80.1562C229.07 79.5 230.375 79.1719 231.891 79.1719C233.5 79.1719 234.914 79.4766 236.133 80.0859C237.367 80.6953 238.398 81.5703 239.227 82.7109C240.07 83.8359 240.703 85.1875 241.125 86.7656C241.547 88.3438 241.758 90.0938 241.758 92.0156ZM233.859 92.5078V92.0156C233.859 91.0312 233.789 90.1328 233.648 89.3203C233.508 88.4922 233.281 87.7734 232.969 87.1641C232.672 86.5547 232.273 86.0859 231.773 85.7578C231.273 85.4297 230.656 85.2656 229.922 85.2656C229.078 85.2656 228.367 85.3984 227.789 85.6641C227.227 85.9141 226.773 86.3047 226.43 86.8359C226.102 87.3516 225.867 88 225.727 88.7812C225.602 89.5469 225.547 90.4453 225.562 91.4766V93.3984C225.531 94.5859 225.648 95.6328 225.914 96.5391C226.18 97.4297 226.641 98.125 227.297 98.625C227.953 99.125 228.844 99.375 229.969 99.375C230.719 99.375 231.344 99.2031 231.844 98.8594C232.344 98.5 232.742 98.0078 233.039 97.3828C233.336 96.7422 233.547 96.0078 233.672 95.1797C233.797 94.3516 233.859 93.4609 233.859 92.5078ZM258.445 98.625V88.1719C258.445 87.4531 258.344 86.8359 258.141 86.3203C257.938 85.8047 257.617 85.4062 257.18 85.125C256.742 84.8281 256.156 84.6797 255.422 84.6797C254.828 84.6797 254.32 84.7812 253.898 84.9844C253.477 85.1875 253.156 85.4922 252.938 85.8984C252.719 86.3047 252.609 86.8203 252.609 87.4453H244.711C244.711 86.2734 244.969 85.1875 245.484 84.1875C246.016 83.1719 246.766 82.2891 247.734 81.5391C248.719 80.7891 249.891 80.2109 251.25 79.8047C252.625 79.3828 254.156 79.1719 255.844 79.1719C257.859 79.1719 259.656 79.5078 261.234 80.1797C262.828 80.8516 264.086 81.8594 265.008 83.2031C265.93 84.5312 266.391 86.2031 266.391 88.2188V98.6016C266.391 100.258 266.484 101.516 266.672 102.375C266.859 103.219 267.125 103.961 267.469 104.602V105H259.547C259.172 104.219 258.891 103.266 258.703 102.141C258.531 101 258.445 99.8281 258.445 98.625ZM259.406 89.5078L259.453 93.7266H255.961C255.227 93.7266 254.602 93.8281 254.086 94.0312C253.586 94.2344 253.18 94.5156 252.867 94.875C252.57 95.2188 252.352 95.6094 252.211 96.0469C252.086 96.4844 252.023 96.9453 252.023 97.4297C252.023 97.8984 252.133 98.3203 252.352 98.6953C252.586 99.0547 252.898 99.3359 253.289 99.5391C253.68 99.7422 254.117 99.8438 254.602 99.8438C255.477 99.8438 256.219 99.6797 256.828 99.3516C257.453 99.0078 257.93 98.5938 258.258 98.1094C258.586 97.625 258.75 97.1719 258.75 96.75L260.484 99.9844C260.172 100.609 259.812 101.242 259.406 101.883C259.016 102.523 258.523 103.117 257.93 103.664C257.352 104.195 256.641 104.633 255.797 104.977C254.953 105.305 253.93 105.469 252.727 105.469C251.164 105.469 249.727 105.148 248.414 104.508C247.117 103.867 246.078 102.977 245.297 101.836C244.516 100.68 244.125 99.3516 244.125 97.8516C244.125 96.5391 244.359 95.3672 244.828 94.3359C245.312 93.3047 246.039 92.4297 247.008 91.7109C247.977 90.9922 249.211 90.4453 250.711 90.0703C252.211 89.6953 253.977 89.5078 256.008 89.5078H259.406ZM279.117 79.6406V105H271.195V79.6406H279.117ZM270.727 73.1016C270.727 71.9766 271.133 71.0547 271.945 70.3359C272.758 69.6172 273.812 69.2578 275.109 69.2578C276.406 69.2578 277.461 69.6172 278.273 70.3359C279.086 71.0547 279.492 71.9766 279.492 73.1016C279.492 74.2266 279.086 75.1484 278.273 75.8672C277.461 76.5859 276.406 76.9453 275.109 76.9453C273.812 76.9453 272.758 76.5859 271.945 75.8672C271.133 75.1484 270.727 74.2266 270.727 73.1016ZM299.93 79.6406H307.102V104.016C307.102 106.359 306.562 108.344 305.484 109.969C304.406 111.609 302.898 112.852 300.961 113.695C299.039 114.555 296.789 114.984 294.211 114.984C293.07 114.984 291.906 114.836 290.719 114.539C289.531 114.258 288.422 113.836 287.391 113.273C286.359 112.711 285.492 112.016 284.789 111.188L288.094 106.547C288.734 107.266 289.539 107.875 290.508 108.375C291.477 108.891 292.617 109.148 293.93 109.148C295.07 109.148 296.023 108.945 296.789 108.539C297.57 108.133 298.164 107.539 298.57 106.758C298.977 105.992 299.18 105.062 299.18 103.969V85.6406L299.93 79.6406ZM283.078 92.625V92.1328C283.078 90.2109 283.312 88.4609 283.781 86.8828C284.266 85.2891 284.953 83.9219 285.844 82.7812C286.75 81.625 287.844 80.7344 289.125 80.1094C290.406 79.4844 291.852 79.1719 293.461 79.1719C295.195 79.1719 296.617 79.5078 297.727 80.1797C298.852 80.8359 299.75 81.7578 300.422 82.9453C301.109 84.1328 301.641 85.5234 302.016 87.1172C302.406 88.6953 302.734 90.3984 303 92.2266V92.8125C302.734 94.5312 302.367 96.1562 301.898 97.6875C301.445 99.2031 300.852 100.547 300.117 101.719C299.383 102.891 298.461 103.812 297.352 104.484C296.258 105.141 294.945 105.469 293.414 105.469C291.82 105.469 290.383 105.148 289.102 104.508C287.836 103.867 286.75 102.969 285.844 101.812C284.953 100.656 284.266 99.2969 283.781 97.7344C283.312 96.1719 283.078 94.4688 283.078 92.625ZM290.977 92.1328V92.625C290.977 93.5781 291.062 94.4609 291.234 95.2734C291.422 96.0859 291.703 96.8047 292.078 97.4297C292.453 98.0391 292.914 98.5156 293.461 98.8594C294.023 99.2031 294.68 99.375 295.43 99.375C296.57 99.375 297.492 99.1328 298.195 98.6484C298.898 98.1641 299.406 97.4766 299.719 96.5859C300.031 95.6953 300.164 94.6484 300.117 93.4453V91.5938C300.148 90.5625 300.078 89.6562 299.906 88.875C299.734 88.0781 299.461 87.4141 299.086 86.8828C298.727 86.3516 298.242 85.9531 297.633 85.6875C297.039 85.4062 296.32 85.2656 295.477 85.2656C294.742 85.2656 294.094 85.4375 293.531 85.7812C292.969 86.125 292.5 86.6094 292.125 87.2344C291.75 87.8438 291.461 88.5703 291.258 89.4141C291.07 90.2422 290.977 91.1484 290.977 92.1328ZM319.406 85.0547V105H311.508V79.6406H318.914L319.406 85.0547ZM318.469 91.4531L316.617 91.5C316.617 89.5625 316.852 87.8359 317.32 86.3203C317.789 84.7891 318.453 83.4922 319.312 82.4297C320.172 81.3672 321.195 80.5625 322.383 80.0156C323.586 79.4531 324.922 79.1719 326.391 79.1719C327.562 79.1719 328.633 79.3438 329.602 79.6875C330.586 80.0312 331.43 80.5859 332.133 81.3516C332.852 82.1172 333.398 83.1328 333.773 84.3984C334.164 85.6484 334.359 87.1953 334.359 89.0391V105H326.414V89.0156C326.414 88 326.273 87.2266 325.992 86.6953C325.711 86.1484 325.305 85.7734 324.773 85.5703C324.242 85.3672 323.594 85.2656 322.828 85.2656C322.016 85.2656 321.328 85.4219 320.766 85.7344C320.203 86.0469 319.75 86.4844 319.406 87.0469C319.078 87.5938 318.836 88.2422 318.68 88.9922C318.539 89.7422 318.469 90.5625 318.469 91.4531ZM352.031 97.875C352.031 97.4375 351.883 97.0625 351.586 96.75C351.305 96.4219 350.805 96.125 350.086 95.8594C349.367 95.5781 348.359 95.2969 347.062 95.0156C345.828 94.75 344.664 94.3984 343.57 93.9609C342.492 93.5234 341.547 92.9922 340.734 92.3672C339.922 91.7422 339.281 91 338.812 90.1406C338.359 89.2812 338.133 88.2969 338.133 87.1875C338.133 86.1094 338.359 85.0938 338.812 84.1406C339.281 83.1719 339.961 82.3203 340.852 81.5859C341.758 80.8359 342.859 80.25 344.156 79.8281C345.453 79.3906 346.93 79.1719 348.586 79.1719C350.867 79.1719 352.836 79.5234 354.492 80.2266C356.148 80.9141 357.422 81.8828 358.312 83.1328C359.219 84.3672 359.672 85.7969 359.672 87.4219H351.773C351.773 86.7812 351.664 86.2344 351.445 85.7812C351.242 85.3281 350.906 84.9844 350.438 84.75C349.969 84.5 349.344 84.375 348.562 84.375C348.016 84.375 347.516 84.4766 347.062 84.6797C346.625 84.8828 346.273 85.1641 346.008 85.5234C345.742 85.8828 345.609 86.3047 345.609 86.7891C345.609 87.1328 345.688 87.4453 345.844 87.7266C346.016 87.9922 346.273 88.2422 346.617 88.4766C346.961 88.6953 347.398 88.8984 347.93 89.0859C348.461 89.2578 349.102 89.4141 349.852 89.5547C351.555 89.8672 353.148 90.3125 354.633 90.8906C356.117 91.4688 357.32 92.2891 358.242 93.3516C359.18 94.4141 359.648 95.8438 359.648 97.6406C359.648 98.7656 359.391 99.8047 358.875 100.758C358.359 101.695 357.617 102.523 356.648 103.242C355.68 103.945 354.516 104.492 353.156 104.883C351.797 105.273 350.266 105.469 348.562 105.469C346.141 105.469 344.094 105.039 342.422 104.18C340.75 103.305 339.484 102.211 338.625 100.898C337.781 99.5703 337.359 98.2266 337.359 96.8672H344.719C344.75 97.6484 344.938 98.2891 345.281 98.7891C345.641 99.2891 346.117 99.6562 346.711 99.8906C347.305 100.125 347.992 100.242 348.773 100.242C349.492 100.242 350.086 100.141 350.555 99.9375C351.039 99.7344 351.406 99.4609 351.656 99.1172C351.906 98.7578 352.031 98.3438 352.031 97.875Z" fill="url(#paint0_linear_483_8)"/>
<path d="M5.77051 122.192V133H4.06348V122.192H5.77051ZM9.47217 122.192V123.611H0.380371V122.192H9.47217ZM24.8573 126.96V128.38H18.6137V126.96H24.8573ZM18.957 122.192V133H17.2406V122.192H18.957ZM26.2768 122.192V133H24.5605V122.192H26.2768ZM34.9266 122.192H38.8787C39.5343 122.192 40.1188 122.266 40.6322 122.415C41.1455 122.557 41.5785 122.767 41.931 123.045C42.2835 123.324 42.5495 123.667 42.7288 124.075C42.9144 124.483 43.0072 124.953 43.0072 125.485C43.0072 126.017 42.8989 126.49 42.6825 126.905C42.4722 127.313 42.166 127.659 41.764 127.944C41.3682 128.222 40.895 128.436 40.3446 128.584L39.8343 128.834H36.179L36.1605 127.424H38.9251C39.4509 127.424 39.8869 127.344 40.2332 127.183C40.5796 127.016 40.8394 126.793 41.0125 126.515C41.1919 126.231 41.2816 125.912 41.2816 125.56C41.2816 125.17 41.1981 124.83 41.0311 124.539C40.8641 124.248 40.6012 124.023 40.2425 123.862C39.89 123.695 39.4354 123.611 38.8787 123.611H36.6522V133H34.9266V122.192ZM41.6527 133L38.8695 128.185L40.6786 128.176L43.4989 132.907V133H41.6527ZM60.2571 127.294V127.907C60.2571 128.723 60.1458 129.456 59.9231 130.105C59.7004 130.749 59.3819 131.299 58.9675 131.757C58.5531 132.208 58.0553 132.555 57.4739 132.796C56.8987 133.031 56.2555 133.148 55.5442 133.148C54.8453 133.148 54.2052 133.031 53.6238 132.796C53.0486 132.555 52.5476 132.208 52.1209 131.757C51.7003 131.299 51.3756 130.749 51.1467 130.105C50.9179 129.456 50.8035 128.723 50.8035 127.907V127.294C50.8035 126.478 50.9179 125.748 51.1467 125.105C51.3756 124.456 51.6972 123.902 52.1116 123.444C52.5322 122.987 53.03 122.64 53.6052 122.405C54.1866 122.164 54.8267 122.043 55.5256 122.043C56.2431 122.043 56.8894 122.164 57.4646 122.405C58.046 122.64 58.5439 122.987 58.9583 123.444C59.3788 123.902 59.7004 124.456 59.9231 125.105C60.1458 125.748 60.2571 126.478 60.2571 127.294ZM58.5593 127.907V127.276C58.5593 126.664 58.4913 126.122 58.3552 125.652C58.2192 125.182 58.0212 124.786 57.7615 124.465C57.5017 124.143 57.1832 123.899 56.8059 123.732C56.4286 123.565 56.0019 123.481 55.5256 123.481C55.068 123.481 54.6536 123.565 54.2825 123.732C53.9114 123.899 53.5929 124.143 53.3269 124.465C53.0671 124.786 52.8661 125.182 52.7239 125.652C52.5816 126.122 52.5105 126.664 52.5105 127.276V127.907C52.5105 128.519 52.5816 129.063 52.7239 129.54C52.8661 130.01 53.0702 130.409 53.3362 130.736C53.6021 131.058 53.9207 131.302 54.2918 131.469C54.669 131.636 55.0865 131.72 55.5442 131.72C56.0266 131.72 56.4534 131.636 56.8245 131.469C57.1956 131.302 57.511 131.058 57.7708 130.736C58.0305 130.409 58.2253 130.01 58.3552 129.54C58.4913 129.063 58.5593 128.519 58.5593 127.907ZM75.1135 122.192H76.839V129.428C76.839 130.245 76.6442 130.931 76.2546 131.488C75.8711 132.038 75.3547 132.453 74.7053 132.731C74.062 133.009 73.3508 133.148 72.5715 133.148C71.7612 133.148 71.0345 133.009 70.3913 132.731C69.7542 132.453 69.2502 132.038 68.8791 131.488C68.508 130.931 68.3224 130.245 68.3224 129.428V122.192H70.0202V129.428C70.0202 129.96 70.1253 130.399 70.3356 130.746C70.5521 131.086 70.8521 131.339 71.2355 131.506C71.619 131.667 72.0643 131.748 72.5715 131.748C73.0848 131.748 73.5301 131.667 73.9074 131.506C74.2909 131.339 74.5877 131.086 74.798 130.746C75.0083 130.399 75.1135 129.96 75.1135 129.428V122.192ZM93.9869 127.508V131.608C93.8323 131.806 93.5911 132.026 93.2633 132.267C92.9417 132.508 92.4994 132.715 91.9366 132.889C91.38 133.062 90.6687 133.148 89.8028 133.148C89.0854 133.148 88.4267 133.034 87.8268 132.805C87.233 132.57 86.7166 132.233 86.2774 131.794C85.8445 131.349 85.5074 130.807 85.2662 130.17C85.0312 129.527 84.9137 128.797 84.9137 127.981V127.202C84.9137 126.391 85.0188 125.668 85.2291 125.031C85.4394 124.394 85.7455 123.853 86.1476 123.407C86.5558 122.962 87.0506 122.625 87.6319 122.396C88.2195 122.161 88.8844 122.043 89.6266 122.043C90.5419 122.043 91.3027 122.192 91.9088 122.489C92.5211 122.779 92.9942 123.181 93.3282 123.695C93.6684 124.208 93.8849 124.796 93.9776 125.458H92.2799C92.2119 125.08 92.0789 124.74 91.881 124.437C91.683 124.134 91.4016 123.896 91.0367 123.723C90.678 123.543 90.2141 123.454 89.6451 123.454C89.138 123.454 88.6957 123.537 88.3185 123.704C87.9412 123.871 87.6258 124.115 87.3722 124.437C87.1248 124.759 86.9392 125.151 86.8155 125.615C86.698 126.073 86.6393 126.596 86.6393 127.183V127.981C86.6393 128.581 86.7135 129.116 86.8619 129.586C87.0104 130.05 87.2237 130.443 87.5021 130.764C87.7866 131.086 88.1236 131.33 88.5133 131.497C88.9091 131.664 89.3513 131.748 89.8399 131.748C90.6069 131.748 91.1666 131.667 91.5191 131.506C91.8717 131.339 92.1222 131.188 92.2706 131.052V128.844H89.6637V127.508H93.9869ZM110.068 126.96V128.38H103.824V126.96H110.068ZM104.167 122.192V133H102.451V122.192H104.167ZM111.487 122.192V133H109.771V122.192H111.487ZM132.656 122.192V133H130.939V122.192H132.656ZM137.48 126.951V128.361H132.247V126.951H137.48ZM138.213 122.192V123.611H132.247V122.192H138.213ZM153.162 131.59V133H147.336V131.59H153.162ZM147.753 122.192V133H146.037V122.192H147.753ZM168.389 131.59V133H162.229V131.59H168.389ZM162.647 122.192V133H160.93V122.192H162.647ZM167.582 126.71V128.111H162.229V126.71H167.582ZM168.334 122.192V123.611H162.229V122.192H168.334ZM177.457 122.192L180.101 126.228L182.763 122.192H184.814L181.149 127.554L184.943 133H182.893L180.129 128.89L177.382 133H175.341L179.108 127.554L175.425 122.192H177.457ZM194.465 122.192V133H192.749V122.192H194.465ZM207.476 128.074H204.516L204.498 126.775H207.142C207.587 126.775 207.97 126.716 208.292 126.599C208.614 126.475 208.861 126.299 209.034 126.07C209.207 125.835 209.294 125.55 209.294 125.216C209.294 124.845 209.207 124.542 209.034 124.307C208.861 124.066 208.604 123.89 208.264 123.778C207.93 123.667 207.516 123.611 207.021 123.611H204.971V133H203.254V122.192H207.021C207.633 122.192 208.184 122.251 208.672 122.368C209.161 122.486 209.578 122.665 209.925 122.906C210.277 123.147 210.546 123.454 210.732 123.825C210.917 124.196 211.01 124.635 211.01 125.142C211.01 125.581 210.893 125.983 210.658 126.348C210.423 126.707 210.086 127.001 209.646 127.229C209.207 127.452 208.675 127.585 208.051 127.628L207.476 128.074ZM207.392 133H203.904L204.785 131.59H207.392C207.868 131.59 208.267 131.522 208.589 131.386C208.917 131.25 209.164 131.055 209.331 130.801C209.504 130.548 209.591 130.245 209.591 129.892C209.591 129.527 209.517 129.209 209.368 128.937C209.226 128.664 208.997 128.454 208.682 128.306C208.372 128.151 207.97 128.074 207.476 128.074H205.258L205.268 126.775H208.246L208.617 127.267C209.21 127.285 209.705 127.421 210.101 127.675C210.503 127.922 210.806 128.244 211.01 128.64C211.214 129.029 211.316 129.45 211.316 129.901C211.316 130.415 211.224 130.866 211.038 131.256C210.859 131.639 210.596 131.961 210.249 132.221C209.909 132.48 209.498 132.675 209.016 132.805C208.533 132.935 207.992 133 207.392 133ZM226.72 131.59V133H220.894V131.59H226.72ZM221.311 122.192V133H219.595V122.192H221.311ZM241.948 131.59V133H235.787V131.59H241.948ZM236.205 122.192V133H234.489V122.192H236.205ZM241.14 126.71V128.111H235.787V126.71H241.14ZM241.892 122.192V123.611H235.787V122.192H241.892ZM266.78 130.235C266.78 130.007 266.74 129.802 266.66 129.623C266.586 129.438 266.456 129.271 266.27 129.122C266.085 128.967 265.828 128.825 265.5 128.695C265.172 128.565 264.758 128.442 264.257 128.324C263.657 128.176 263.116 128.006 262.633 127.814C262.151 127.616 261.737 127.387 261.39 127.127C261.05 126.861 260.787 126.555 260.602 126.209C260.422 125.863 260.333 125.464 260.333 125.012C260.333 124.579 260.429 124.183 260.62 123.825C260.812 123.46 261.084 123.144 261.437 122.878C261.789 122.612 262.213 122.408 262.708 122.266C263.202 122.118 263.753 122.043 264.359 122.043C265.225 122.043 265.964 122.195 266.576 122.498C267.195 122.795 267.668 123.194 267.996 123.695C268.324 124.19 268.487 124.737 268.487 125.337H266.762C266.762 124.972 266.672 124.647 266.493 124.363C266.32 124.078 266.054 123.856 265.695 123.695C265.342 123.528 264.891 123.444 264.34 123.444C263.827 123.444 263.4 123.512 263.06 123.648C262.72 123.785 262.466 123.97 262.299 124.205C262.132 124.44 262.049 124.706 262.049 125.003C262.049 125.213 262.098 125.405 262.197 125.578C262.296 125.751 262.454 125.909 262.671 126.051C262.887 126.194 263.168 126.33 263.515 126.459C263.861 126.589 264.282 126.716 264.776 126.84C265.376 126.988 265.908 127.165 266.372 127.369C266.836 127.573 267.226 127.811 267.541 128.083C267.863 128.355 268.104 128.667 268.265 129.02C268.432 129.373 268.515 129.771 268.515 130.217C268.515 130.668 268.416 131.076 268.218 131.441C268.027 131.8 267.748 132.106 267.383 132.36C267.025 132.613 266.592 132.808 266.085 132.944C265.584 133.08 265.027 133.148 264.415 133.148C263.87 133.148 263.332 133.08 262.8 132.944C262.275 132.802 261.795 132.592 261.362 132.313C260.936 132.029 260.595 131.676 260.342 131.256C260.088 130.829 259.962 130.331 259.962 129.762H261.687C261.687 130.121 261.758 130.427 261.901 130.681C262.043 130.934 262.241 131.141 262.494 131.302C262.748 131.457 263.039 131.571 263.366 131.646C263.694 131.72 264.044 131.757 264.415 131.757C264.928 131.757 265.361 131.695 265.714 131.571C266.066 131.441 266.332 131.262 266.511 131.033C266.691 130.804 266.78 130.538 266.78 130.235ZM283.956 131.59V133H277.796V131.59H283.956ZM278.213 122.192V133H276.497V122.192H278.213ZM283.149 126.71V128.111H277.796V126.71H283.149ZM283.9 122.192V123.611H277.796V122.192H283.9ZM298.961 131.59V133H293.135V131.59H298.961ZM293.552 122.192V133H291.836V122.192H293.552ZM313.854 131.59V133H308.028V131.59H313.854ZM308.446 122.192V133H306.729V122.192H308.446ZM323.46 122.192V133H321.743V122.192H323.46ZM341.285 122.192V133H339.569L333.965 124.873V133H332.249V122.192H333.965L339.569 130.319V122.192H341.285ZM358.655 127.508V131.608C358.501 131.806 358.26 132.026 357.932 132.267C357.61 132.508 357.168 132.715 356.605 132.889C356.048 133.062 355.337 133.148 354.471 133.148C353.754 133.148 353.095 133.034 352.495 132.805C351.902 132.57 351.385 132.233 350.946 131.794C350.513 131.349 350.176 130.807 349.935 130.17C349.7 129.527 349.582 128.797 349.582 127.981V127.202C349.582 126.391 349.687 125.668 349.898 125.031C350.108 124.394 350.414 123.853 350.816 123.407C351.224 122.962 351.719 122.625 352.3 122.396C352.888 122.161 353.553 122.043 354.295 122.043C355.21 122.043 355.971 122.192 356.577 122.489C357.19 122.779 357.663 123.181 357.997 123.695C358.337 124.208 358.553 124.796 358.646 125.458H356.948C356.88 125.08 356.747 124.74 356.549 124.437C356.352 124.134 356.07 123.896 355.705 123.723C355.347 123.543 354.883 123.454 354.314 123.454C353.806 123.454 353.364 123.537 352.987 123.704C352.61 123.871 352.294 124.115 352.041 124.437C351.793 124.759 351.608 125.151 351.484 125.615C351.367 126.073 351.308 126.596 351.308 127.183V127.981C351.308 128.581 351.382 129.116 351.53 129.586C351.679 130.05 351.892 130.443 352.171 130.764C352.455 131.086 352.792 131.33 353.182 131.497C353.578 131.664 354.02 131.748 354.508 131.748C355.275 131.748 355.835 131.667 356.188 131.506C356.54 131.339 356.791 131.188 356.939 131.052V128.844H354.332V127.508H358.655Z" fill="#001464"/>
<defs>
<linearGradient id="paint0_linear_483_8" x1="-157.014" y1="59.4136" x2="444.704" y2="54.7131" gradientUnits="userSpaceOnUse">
<stop offset="0.317708" stop-color="#E43425"/>
<stop offset="0.71875" stop-color="#441FD8"/>
<stop offset="1" stop-color="#0A26B8"/>
</linearGradient>
</defs>
</svg>
