<svg width="294" height="167" viewBox="0 0 294 167" fill="none" xmlns="http://www.w3.org/2000/svg">
<path d="M32.1638 144.385L29.1303 142.786L24.7053 151.211L23.4664 150.563L27.8963 142.147L24.8678 140.557L25.4037 139.544L32.7046 143.381L32.1687 144.394L32.1638 144.385Z" fill="url(#paint0_linear_190_290)"/>
<path d="M38.9413 156.626L37.5953 156.213L39.0456 151.5L33.9036 149.927L32.4533 154.641L31.1073 154.227L34.2358 144.034L35.5818 144.447L34.242 148.832L39.384 150.404L40.7288 146.029L42.0749 146.442L38.9463 156.635L38.9413 156.626Z" fill="url(#paint1_linear_190_290)"/>
<path d="M50.0267 153.032L45.4211 152.65L45.111 156.418L50.4598 156.868L50.3623 158.021L43.609 157.457L44.5033 146.831L51.1847 147.39L51.0871 148.543L45.8103 148.098L45.52 151.52L50.1256 151.902L50.028 153.054L50.0267 153.032Z" fill="url(#paint2_linear_190_290)"/>
<path d="M59.9902 152.818L61.0405 156.864L59.6774 157.223L56.997 146.903L60.8 145.912C61.9252 145.621 62.8917 145.676 63.682 146.086C64.4724 146.496 64.992 147.178 65.2361 148.122C65.5014 149.123 65.3817 149.977 64.8993 150.682C64.4168 151.387 63.5864 151.889 62.4215 152.191L59.9902 152.818ZM59.696 151.707L62.1446 151.069C62.8683 150.883 63.3868 150.561 63.6879 150.122C63.984 149.675 64.0502 149.129 63.8866 148.484C63.7294 147.871 63.4028 147.424 62.9255 147.157C62.4483 146.889 61.8626 146.834 61.1823 146.996L58.663 147.651L59.7183 151.706L59.696 151.707Z" fill="url(#paint3_linear_190_290)"/>
<path d="M75.8286 145.192C76.3478 146.093 76.6425 146.985 76.7237 147.827C76.8049 148.669 76.6626 149.444 76.3128 150.118C75.9543 150.798 75.4043 151.346 74.6542 151.767C73.9264 152.186 73.1803 152.374 72.4075 152.334C71.6346 152.295 70.9068 152.033 70.2241 151.549C69.5277 151.062 68.9324 150.389 68.4281 149.514L68.0437 148.847C67.5294 147.955 67.2447 147.08 67.1672 146.224C67.0897 145.369 67.232 144.594 67.5855 143.906C67.939 143.218 68.489 142.67 69.2168 142.25C69.9533 141.826 70.7166 141.629 71.4895 141.668C72.2624 141.707 72.9952 141.978 73.6879 142.479C74.3855 142.988 74.9872 143.692 75.4978 144.598L75.8323 145.179L75.8286 145.192ZM74.2661 145.285C73.637 144.193 72.9398 143.464 72.1584 143.129C71.3857 142.79 70.6007 142.849 69.8036 143.309C69.0325 143.753 68.5907 144.389 68.4833 145.224C68.376 146.059 68.6113 147.008 69.1931 148.058L69.5826 148.734C70.1967 149.799 70.8839 150.511 71.6753 150.863C72.4667 151.215 73.2616 151.173 74.0414 150.723C74.8299 150.269 75.2766 149.642 75.3803 148.821C75.484 147.999 75.235 147.046 74.6382 145.971L74.2438 145.286L74.2661 145.285Z" fill="url(#paint4_linear_190_290)"/>
<path d="M81.3886 142.624L82.5525 143.442L81.8428 142.35L77.9054 135.698L78.7234 134.834L85.5374 138.467L86.6748 139.139L85.7912 137.986L81.6507 131.762L82.6207 130.742L88.5693 139.963L87.6833 140.889L80.5389 137.123L79.8365 136.685L80.3116 137.37L84.373 144.378L83.487 145.304L73.9835 139.827L74.9535 138.807L81.4059 142.614L81.3886 142.624Z" fill="url(#paint5_linear_190_290)"/>
<path d="M91.0931 126.956L88.7856 130.963L92.0645 132.848L94.7367 128.192L95.7335 128.76L92.3587 134.64L83.1113 129.328L86.4454 123.517L87.4422 124.085L84.802 128.677L87.7838 130.386L90.0913 126.379L91.0881 126.947L91.0931 126.956Z" fill="url(#paint6_linear_190_290)"/>
<path d="M94.5525 120.242L93.6927 122.596L97.7454 124.081L97.2639 125.408L87.2534 121.736L88.4681 118.416C88.8808 117.29 89.4622 116.516 90.19 116.097C90.9265 115.672 91.7897 115.648 92.7697 116.007C93.3969 116.234 93.8757 116.604 94.2149 117.113C94.5542 117.621 94.7324 118.211 94.7374 118.901L99.851 118.101L99.9379 118.131L99.4171 119.551L94.5748 120.241L94.5525 120.242ZM92.6159 122.189L93.3602 120.156C93.6034 119.496 93.6273 118.917 93.422 118.401C93.2218 117.893 92.8372 117.526 92.2696 117.322C91.651 117.09 91.1053 117.104 90.6361 117.351C90.1669 117.599 89.8052 118.073 89.546 118.764L88.8054 120.784L92.6109 122.18L92.6159 122.189Z" fill="url(#paint7_linear_190_290)"/>
<path d="M97.9214 101.254C98.9601 101.394 99.8418 101.682 100.563 102.132C101.284 102.582 101.811 103.156 102.138 103.844C102.457 104.538 102.565 105.306 102.454 106.155C102.347 106.99 102.039 107.699 101.55 108.292C101.056 108.877 100.405 109.309 99.6048 109.563C98.8045 109.816 97.8993 109.888 96.9016 109.759L96.1384 109.656C95.127 109.523 94.249 109.221 93.5143 108.768C92.7796 108.314 92.2479 107.731 91.9241 107.029C91.6003 106.327 91.4834 105.564 91.5908 104.728C91.7019 103.88 92.0044 103.163 92.5021 102.564C92.9911 101.971 93.652 101.556 94.4796 101.309C95.3073 101.063 96.2312 101.004 97.2612 101.149L97.9251 101.24L97.9214 101.254ZM97.0529 102.55C95.802 102.383 94.8015 102.509 94.0687 102.92C93.3322 103.344 92.9005 103.997 92.7884 104.904C92.675 105.789 92.9158 106.527 93.5195 107.114C94.1232 107.701 95.0202 108.096 96.2127 108.263L96.9896 108.369C98.2045 108.535 99.1913 108.405 99.9501 107.979C100.714 107.562 101.154 106.904 101.271 106.006C101.389 105.107 101.156 104.364 100.558 103.786C99.9676 103.202 99.0583 102.826 97.8384 102.652L97.0529 102.55Z" fill="url(#paint8_linear_190_290)"/>
<path d="M98.9843 92.3431L98.4496 96.783L103.124 97.3441L102.96 98.7426L92.3706 97.4698L93.1606 90.9092L94.3022 91.0477L93.6759 96.2098L97.2993 96.6495L97.834 92.2096L98.9756 92.3481L98.9843 92.3431Z" fill="url(#paint9_linear_190_290)"/>
<path d="M97.9659 76.2528L97.0004 79.5444L106.128 82.2254L105.737 83.5701L96.6096 80.8892L95.6478 84.1672L94.5489 83.8424L96.8807 75.9317L97.9796 76.2564L97.9659 76.2528Z" fill="url(#paint10_linear_190_290)"/>
<path d="M111.285 69.6853L110.68 70.9576L106.223 68.8515L103.921 73.7096L108.378 75.8157L107.772 77.0881L98.1342 72.5199L98.7399 71.2476L102.884 73.211L105.185 68.3529L101.042 66.3895L101.647 65.1172L111.285 69.6853Z" fill="url(#paint11_linear_190_290)"/>
<path d="M112.308 59.4825L109.614 63.2394L112.683 65.4411L115.812 61.0761L116.752 61.7462L112.804 67.2528L104.135 61.0414L108.037 55.5958L108.977 56.2659L105.895 60.5699L108.688 62.5729L111.382 58.8161L112.322 59.4862L112.308 59.4825Z" fill="url(#paint12_linear_190_290)"/>
<path d="M121.152 57.1445L114.55 48.7724L117.29 46.6167C118.201 45.8952 119.027 45.5462 119.785 45.5596C120.543 45.573 121.21 45.9501 121.782 46.6823C122.088 47.0719 122.257 47.5055 122.267 47.9842C122.278 48.4629 122.166 48.9309 121.908 49.4032C122.459 49.178 123.007 49.1276 123.544 49.2795C124.082 49.4313 124.553 49.7484 124.941 50.2407C125.536 50.9939 125.758 51.7782 125.613 52.5887C125.468 53.3992 124.949 54.1602 124.058 54.858L121.157 57.1532L121.152 57.1445ZM118.473 51.4746L120.138 50.1575C120.621 49.775 120.91 49.3547 121.008 48.883C121.105 48.4114 120.99 47.9702 120.669 47.5546C120.31 47.092 119.903 46.8653 119.477 46.868C119.043 46.8758 118.554 47.0884 118.006 47.5196L116.371 48.808L118.473 51.4746ZM119.166 52.3565L121.548 55.3694L123.371 53.9265C123.89 53.524 124.181 53.0677 124.272 52.565C124.363 52.0624 124.214 51.5829 123.85 51.1116C123.051 50.1061 122.111 50.0363 121.015 50.8986L119.175 52.3515L119.166 52.3565Z" fill="url(#paint13_linear_190_290)"/>
<path d="M130.485 45.8225L128.234 46.9234L130.138 50.7889L128.872 51.4149L124.166 41.8465L127.331 40.2883C128.41 39.7585 129.355 39.5951 130.178 39.8017C131.001 40.0084 131.64 40.5754 132.103 41.5201C132.398 42.1119 132.492 42.7156 132.389 43.3176C132.285 43.9195 132 44.4651 131.533 44.9766L135.775 47.9331L135.82 48.0111L134.462 48.6784L130.477 45.8275L130.485 45.8225ZM127.734 45.8957L129.676 44.9386C130.307 44.6324 130.718 44.2229 130.934 43.7173C131.15 43.2117 131.115 42.6896 130.845 42.1411C130.55 41.5493 130.152 41.1786 129.647 41.0428C129.136 40.8982 128.555 40.9909 127.884 41.3084L125.951 42.2605L127.734 45.8957Z" fill="url(#paint14_linear_190_290)"/>
<path d="M144.287 40.6512C144.535 41.6624 144.586 42.5913 144.425 43.4341C144.264 44.2768 143.924 44.9689 143.402 45.524C142.874 46.0705 142.193 46.4512 141.354 46.6577C140.538 46.8628 139.761 46.8371 139.043 46.5928C138.312 46.3449 137.685 45.8982 137.153 45.2353C136.626 44.581 136.237 43.7663 135.987 42.791L135.799 42.045C135.548 41.0474 135.511 40.1223 135.672 39.2795C135.827 38.428 136.176 37.7309 136.707 37.1709C137.238 36.6108 137.919 36.23 138.727 36.0299C139.558 35.8284 140.338 35.8405 141.069 36.0884C141.801 36.3363 142.432 36.7917 142.961 37.4683C143.489 38.1448 143.884 38.9906 144.127 39.9931L144.287 40.6512ZM142.766 40.3156C142.461 39.0838 141.987 38.2024 141.333 37.6676C140.679 37.1329 139.908 36.977 139.015 37.191C138.154 37.3988 137.552 37.8959 137.217 38.6773C136.883 39.4587 136.855 40.4325 137.126 41.6036L137.31 42.3633C137.605 43.5554 138.082 44.4232 138.751 44.9839C139.42 45.5446 140.187 45.7143 141.066 45.4965C141.945 45.2787 142.552 44.7903 142.874 44.0276C143.196 43.2648 143.219 42.2824 142.942 41.0803L142.753 40.3119L142.766 40.3156Z" fill="url(#paint15_linear_190_290)"/>
<path d="M153.523 42.2193L149.058 42.4028L148.173 45.2328L146.721 45.2963L150.341 34.4736L151.57 34.4232L156.097 44.9028L154.653 44.9613L153.518 42.2106L153.523 42.2193ZM149.437 41.238L153.058 41.091L151.038 36.184L149.442 41.2467L149.437 41.238Z" fill="url(#paint16_linear_190_290)"/>
<path d="M157.891 45.092L159.277 34.518L162.261 34.9103C163.182 35.026 163.962 35.3383 164.619 35.837C165.275 36.3357 165.744 36.989 166.029 37.783C166.318 38.5857 166.402 39.4722 166.271 40.4476L166.186 41.1202C166.057 42.1179 165.748 42.965 165.266 43.67C164.783 44.375 164.159 44.8734 163.389 45.1788C162.618 45.4843 161.764 45.5841 160.812 45.4747L157.891 45.092ZM160.511 35.8382L159.424 44.1277L160.887 44.3234C161.962 44.4658 162.844 44.2344 163.522 43.6478C164.208 43.0561 164.629 42.1442 164.793 40.907L164.873 40.284C165.035 39.0828 164.87 38.1159 164.396 37.3734C163.922 36.6309 163.161 36.1921 162.131 36.0469L160.506 35.8295L160.511 35.8382Z" fill="url(#paint17_linear_190_290)"/>
<path d="M172.356 42.9543C171.287 42.3008 170.554 41.6498 170.163 41.01C169.771 40.3701 169.673 39.6994 169.872 38.9843C170.098 38.1735 170.61 37.6011 171.401 37.2497C172.191 36.8983 173.112 36.8751 174.141 37.1592C174.843 37.3551 175.439 37.6692 175.917 38.0979C176.395 38.5266 176.716 39.0228 176.888 39.5816C177.051 40.1453 177.067 40.7134 176.899 41.2833L175.537 40.9025C175.711 40.2829 175.647 39.7312 175.355 39.2646C175.063 38.7981 174.55 38.47 173.83 38.2617C173.156 38.0731 172.605 38.0789 172.146 38.2628C171.691 38.4555 171.385 38.8051 171.237 39.3291C171.118 39.7438 171.2 40.1466 171.474 40.5426C171.744 40.9298 172.28 41.3595 173.066 41.8417C173.851 42.3238 174.447 42.7769 174.848 43.1922C175.254 43.6161 175.517 44.053 175.638 44.5029C175.758 44.9527 175.752 45.4414 175.603 45.9654C175.371 46.8034 174.858 47.3759 174.07 47.6913C173.283 48.0067 172.342 48.0175 171.258 47.7188C170.557 47.5229 169.933 47.2014 169.401 46.758C168.868 46.3147 168.498 45.8124 168.299 45.2463C168.099 44.6802 168.079 44.1035 168.254 43.5062L169.616 43.8871C169.442 44.5066 169.533 45.0657 169.894 45.5506C170.254 46.0355 170.817 46.392 171.582 46.5976C172.297 46.7972 172.889 46.8025 173.348 46.6185C173.808 46.4345 174.114 46.0849 174.255 45.5882C174.391 45.0829 174.325 44.6478 174.052 44.2742C173.779 43.9006 173.21 43.4548 172.364 42.927L172.356 42.9543Z" fill="url(#paint18_linear_190_290)"/>
<path d="M178.513 50.0135L177.197 49.5134L180.975 39.5459L182.291 40.046L178.513 50.0135Z" fill="url(#paint19_linear_190_290)"/>
<path d="M189.198 53.274C188.652 53.5886 188.029 53.7285 187.331 53.6802C186.639 53.6405 185.905 53.4286 185.118 53.063C184.33 52.6975 183.722 52.1825 183.284 51.5229C182.846 50.8634 182.628 50.1237 182.613 49.2778C182.604 48.4406 182.799 47.5779 183.212 46.6709L183.606 45.8323C184.29 44.3761 185.165 43.4104 186.216 42.9316C187.267 42.4527 188.412 42.497 189.639 43.0829C190.648 43.5519 191.331 44.1969 191.701 44.9993C192.071 45.8017 192.098 46.7095 191.79 47.7178L190.518 47.1122C190.884 45.7241 190.421 44.7211 189.149 44.1154C188.296 43.7179 187.508 43.7108 186.787 44.1029C186.067 44.495 185.431 45.2539 184.898 46.392L184.523 47.1847C184.014 48.2631 183.852 49.2448 184.043 50.1161C184.233 50.9874 184.75 51.6243 185.603 52.0219C186.077 52.2447 186.521 52.3931 186.928 52.4587C187.335 52.5242 187.713 52.4794 188.072 52.3416L189.091 50.1847L186.856 49.1298L187.341 48.0886L190.844 49.7405L189.176 53.2754L189.198 53.274Z" fill="url(#paint20_linear_190_290)"/>
<path d="M199.761 58.8676L198.425 58.3911L196.122 48.8462L193.367 56.5848L192.031 56.1084L195.612 46.0585L196.948 46.535L199.249 56.1158L202.019 48.3449L203.337 48.809L199.756 58.8589L199.761 58.8676Z" fill="url(#paint21_linear_190_290)"/>
<path d="M210.753 57.0342L210.296 61.1873L208.902 61.0324L210.067 50.4355L213.977 50.8717C215.136 51.0002 216.011 51.3964 216.601 52.0604C217.191 52.7243 217.432 53.5433 217.329 54.526C217.215 55.5497 216.812 56.3128 216.102 56.8028C215.4 57.2878 214.452 57.4649 213.244 57.3304L210.741 57.0529L210.753 57.0342ZM210.878 55.8889L213.39 56.1614C214.138 56.2381 214.731 56.1268 215.166 55.8189C215.6 55.5109 215.862 55.025 215.931 54.3624C216.005 53.7308 215.862 53.2017 215.501 52.7751C215.145 52.3571 214.623 52.0923 213.928 52.008L211.339 51.7221L210.878 55.8889Z" fill="url(#paint22_linear_190_290)"/>
<path d="M221.792 60.5294L226.818 60.0572L226.926 61.2067L220.488 61.8116L219.493 51.1903L220.905 51.0575L221.792 60.5294Z" fill="url(#paint23_linear_190_290)"/>
<path d="M235.704 55.6292L231.512 57.1675L231.535 60.1319L230.171 60.6292L230.311 49.215L231.465 48.7928L238.98 57.3886L237.63 57.8896L235.713 55.6242L235.704 55.6292ZM231.511 55.9445L234.909 54.6907L231.48 50.6421L231.503 55.9495L231.511 55.9445Z" fill="url(#paint24_linear_190_290)"/>
<path d="M242.143 43.7708L239.344 45.7419L244.826 53.5127L243.686 54.3194L238.204 46.5485L235.404 48.5196L234.735 47.5781L241.469 42.8206L242.133 43.7534L242.143 43.7708Z" fill="url(#paint25_linear_190_290)"/>
<path d="M250.779 41.1721L247.848 44.5577L251.413 47.6395L250.49 48.7021L242.43 41.7244L246.753 36.7288L247.627 37.4835L244.226 41.4166L246.988 43.8067L249.92 40.4211L250.793 41.1758L250.779 41.1721Z" fill="url(#paint26_linear_190_290)"/>
<path d="M256.629 30.9113C257.541 31.4129 258.258 32.0156 258.764 32.6935C259.275 33.38 259.555 34.1071 259.6 34.866C259.645 35.625 259.462 36.3884 259.049 37.1342C258.64 37.8662 258.104 38.4176 257.426 38.7847C256.749 39.1518 255.997 39.3084 255.147 39.2556C254.306 39.1979 253.439 38.9356 252.551 38.455L251.874 38.0829C250.976 37.585 250.269 36.9997 249.753 36.3045C249.237 35.6092 248.957 34.8822 248.902 34.1059C248.847 33.3296 249.027 32.5798 249.436 31.8478C249.849 31.1021 250.389 30.537 251.066 30.1699C251.743 29.8028 252.509 29.6499 253.369 29.72C254.228 29.7901 255.11 30.0784 256.022 30.5799L256.615 30.9077L256.629 30.9113ZM255.351 31.7979C254.248 31.1866 253.275 30.9396 252.431 31.0568C251.595 31.1689 250.951 31.6327 250.51 32.4293C250.081 33.2073 250.041 33.9802 250.383 34.753C250.724 35.5257 251.419 36.2104 252.466 36.8069L253.156 37.1827C254.226 37.778 255.195 38.0163 256.061 37.8978C256.919 37.7844 257.574 37.3379 258.006 36.5463C258.447 35.7496 258.495 34.9717 258.155 34.2213C257.815 33.4709 257.107 32.7826 256.041 32.1737L255.346 31.7892L255.351 31.7979Z" fill="url(#paint27_linear_190_290)"/>
<path d="M259.768 24.4627L258.935 26.8236L263.003 28.2539L262.535 29.5853L252.474 26.0457L253.648 22.7148C254.047 21.5846 254.609 20.7987 255.341 20.3657C256.077 19.9413 256.931 19.8997 257.914 20.2447C258.536 20.4633 259.024 20.8286 259.372 21.3322C259.72 21.8358 259.898 22.4255 259.925 23.1138L265.026 22.252L265.113 22.2827L264.615 23.701L259.776 24.4577L259.768 24.4627ZM257.851 26.4443L258.568 24.4038C258.798 23.7406 258.813 23.1662 258.608 22.6498C258.407 22.1419 258.019 21.7886 257.443 21.5897C256.821 21.3712 256.275 21.3856 255.811 21.6415C255.346 21.8975 254.993 22.3664 254.739 23.0668L254.026 25.0937L257.846 26.4356L257.851 26.4443Z" fill="url(#paint28_linear_190_290)"/>
<path d="M255.883 15.2981L265.09 13.5705L257.23 8.46261L257.586 6.67645L268.048 8.74974L267.772 10.1325L263.697 9.32982L259.323 8.32977L267.116 13.4416L266.905 14.498L257.78 16.2476L262.182 16.9771L266.257 17.7798L265.981 19.1625L255.518 17.0893L255.874 15.3031L255.883 15.2981Z" fill="url(#paint29_linear_190_290)"/>
<defs>
<linearGradient id="paint0_linear_190_290" x1="23.5203" y1="148.182" x2="288.657" y2="79.08" gradientUnits="userSpaceOnUse">
<stop offset="0.317708" stop-color="#E43425"/>
<stop offset="0.71875" stop-color="#441FD8"/>
<stop offset="1" stop-color="#0A26B8"/>
</linearGradient>
<linearGradient id="paint1_linear_190_290" x1="25.7527" y1="156.568" x2="292.012" y2="87.7715" gradientUnits="userSpaceOnUse">
<stop offset="0.317708" stop-color="#E43425"/>
<stop offset="0.71875" stop-color="#441FD8"/>
<stop offset="1" stop-color="#0A26B8"/>
</linearGradient>
<linearGradient id="paint2_linear_190_290" x1="27.3885" y1="160.685" x2="287.91" y2="93.7391" gradientUnits="userSpaceOnUse">
<stop offset="0.317708" stop-color="#E43425"/>
<stop offset="0.71875" stop-color="#441FD8"/>
<stop offset="1" stop-color="#0A26B8"/>
</linearGradient>
<linearGradient id="paint3_linear_190_290" x1="27.2367" y1="162.051" x2="293.113" y2="93.851" gradientUnits="userSpaceOnUse">
<stop offset="0.317708" stop-color="#E43425"/>
<stop offset="0.71875" stop-color="#441FD8"/>
<stop offset="1" stop-color="#0A26B8"/>
</linearGradient>
<linearGradient id="paint4_linear_190_290" x1="27.4857" y1="161.05" x2="293.009" y2="93.5139" gradientUnits="userSpaceOnUse">
<stop offset="0.317708" stop-color="#E43425"/>
<stop offset="0.71875" stop-color="#441FD8"/>
<stop offset="1" stop-color="#0A26B8"/>
</linearGradient>
<linearGradient id="paint5_linear_190_290" x1="25.9151" y1="157.119" x2="292.203" y2="88.4976" gradientUnits="userSpaceOnUse">
<stop offset="0.317708" stop-color="#E43425"/>
<stop offset="0.71875" stop-color="#441FD8"/>
<stop offset="1" stop-color="#0A26B8"/>
</linearGradient>
<linearGradient id="paint6_linear_190_290" x1="23.8529" y1="149.421" x2="290.214" y2="81.0999" gradientUnits="userSpaceOnUse">
<stop offset="0.317708" stop-color="#E43425"/>
<stop offset="0.71875" stop-color="#441FD8"/>
<stop offset="1" stop-color="#0A26B8"/>
</linearGradient>
<linearGradient id="paint7_linear_190_290" x1="22.6247" y1="142.906" x2="287.824" y2="74.0519" gradientUnits="userSpaceOnUse">
<stop offset="0.317708" stop-color="#E43425"/>
<stop offset="0.71875" stop-color="#441FD8"/>
<stop offset="1" stop-color="#0A26B8"/>
</linearGradient>
<linearGradient id="paint8_linear_190_290" x1="15.9925" y1="129.748" x2="284.136" y2="60.3034" gradientUnits="userSpaceOnUse">
<stop offset="0.317708" stop-color="#E43425"/>
<stop offset="0.71875" stop-color="#441FD8"/>
<stop offset="1" stop-color="#0A26B8"/>
</linearGradient>
<linearGradient id="paint9_linear_190_290" x1="13.9294" y1="120.115" x2="279.426" y2="52.4693" gradientUnits="userSpaceOnUse">
<stop offset="0.317708" stop-color="#E43425"/>
<stop offset="0.71875" stop-color="#441FD8"/>
<stop offset="1" stop-color="#0A26B8"/>
</linearGradient>
<linearGradient id="paint10_linear_190_290" x1="9.08247" y1="107.82" x2="276.805" y2="38.7528" gradientUnits="userSpaceOnUse">
<stop offset="0.317708" stop-color="#E43425"/>
<stop offset="0.71875" stop-color="#441FD8"/>
<stop offset="1" stop-color="#0A26B8"/>
</linearGradient>
<linearGradient id="paint11_linear_190_290" x1="9.03609" y1="99.9224" x2="272.912" y2="31.9616" gradientUnits="userSpaceOnUse">
<stop offset="0.317708" stop-color="#E43425"/>
<stop offset="0.71875" stop-color="#441FD8"/>
<stop offset="1" stop-color="#0A26B8"/>
</linearGradient>
<linearGradient id="paint12_linear_190_290" x1="5.40978" y1="92.1812" x2="273.758" y2="23.5656" gradientUnits="userSpaceOnUse">
<stop offset="0.317708" stop-color="#E43425"/>
<stop offset="0.71875" stop-color="#441FD8"/>
<stop offset="1" stop-color="#0A26B8"/>
</linearGradient>
<linearGradient id="paint13_linear_190_290" x1="4.80372" y1="84.1254" x2="272.801" y2="16.1863" gradientUnits="userSpaceOnUse">
<stop offset="0.317708" stop-color="#E43425"/>
<stop offset="0.71875" stop-color="#441FD8"/>
<stop offset="1" stop-color="#0A26B8"/>
</linearGradient>
<linearGradient id="paint14_linear_190_290" x1="3.41105" y1="80.8599" x2="268.096" y2="14.1153" gradientUnits="userSpaceOnUse">
<stop offset="0.317708" stop-color="#E43425"/>
<stop offset="0.71875" stop-color="#441FD8"/>
<stop offset="1" stop-color="#0A26B8"/>
</linearGradient>
<linearGradient id="paint15_linear_190_290" x1="4.6952" y1="79.8559" x2="268.222" y2="12.5703" gradientUnits="userSpaceOnUse">
<stop offset="0.317708" stop-color="#E43425"/>
<stop offset="0.71875" stop-color="#441FD8"/>
<stop offset="1" stop-color="#0A26B8"/>
</linearGradient>
<linearGradient id="paint16_linear_190_290" x1="2.54422" y1="83.4191" x2="269.488" y2="15.3735" gradientUnits="userSpaceOnUse">
<stop offset="0.317708" stop-color="#E43425"/>
<stop offset="0.71875" stop-color="#441FD8"/>
<stop offset="1" stop-color="#0A26B8"/>
</linearGradient>
<linearGradient id="paint17_linear_190_290" x1="2.97744" y1="85.0367" x2="269.762" y2="16.3413" gradientUnits="userSpaceOnUse">
<stop offset="0.317708" stop-color="#E43425"/>
<stop offset="0.71875" stop-color="#441FD8"/>
<stop offset="1" stop-color="#0A26B8"/>
</linearGradient>
<linearGradient id="paint18_linear_190_290" x1="7.74133" y1="89.2932" x2="272.061" y2="21.0437" gradientUnits="userSpaceOnUse">
<stop offset="0.317708" stop-color="#E43425"/>
<stop offset="0.71875" stop-color="#441FD8"/>
<stop offset="1" stop-color="#0A26B8"/>
</linearGradient>
<linearGradient id="paint19_linear_190_290" x1="7.25411" y1="93.2715" x2="271.922" y2="24.3559" gradientUnits="userSpaceOnUse">
<stop offset="0.317708" stop-color="#E43425"/>
<stop offset="0.71875" stop-color="#441FD8"/>
<stop offset="1" stop-color="#0A26B8"/>
</linearGradient>
<linearGradient id="paint20_linear_190_290" x1="11.6205" y1="97.9745" x2="273.024" y2="30.4296" gradientUnits="userSpaceOnUse">
<stop offset="0.317708" stop-color="#E43425"/>
<stop offset="0.71875" stop-color="#441FD8"/>
<stop offset="1" stop-color="#0A26B8"/>
</linearGradient>
<linearGradient id="paint21_linear_190_290" x1="11.6103" y1="105.663" x2="275.425" y2="37.4558" gradientUnits="userSpaceOnUse">
<stop offset="0.317708" stop-color="#E43425"/>
<stop offset="0.71875" stop-color="#441FD8"/>
<stop offset="1" stop-color="#0A26B8"/>
</linearGradient>
<linearGradient id="paint22_linear_190_290" x1="13.5024" y1="110.795" x2="277.67" y2="41.9406" gradientUnits="userSpaceOnUse">
<stop offset="0.317708" stop-color="#E43425"/>
<stop offset="0.71875" stop-color="#441FD8"/>
<stop offset="1" stop-color="#0A26B8"/>
</linearGradient>
<linearGradient id="paint23_linear_190_290" x1="14.4272" y1="114.247" x2="279.491" y2="49.1518" gradientUnits="userSpaceOnUse">
<stop offset="0.317708" stop-color="#E43425"/>
<stop offset="0.71875" stop-color="#441FD8"/>
<stop offset="1" stop-color="#0A26B8"/>
</linearGradient>
<linearGradient id="paint24_linear_190_290" x1="16.1606" y1="114.92" x2="279.71" y2="47.7276" gradientUnits="userSpaceOnUse">
<stop offset="0.317708" stop-color="#E43425"/>
<stop offset="0.71875" stop-color="#441FD8"/>
<stop offset="1" stop-color="#0A26B8"/>
</linearGradient>
<linearGradient id="paint25_linear_190_290" x1="13.4682" y1="112.597" x2="280.004" y2="44.9958" gradientUnits="userSpaceOnUse">
<stop offset="0.317708" stop-color="#E43425"/>
<stop offset="0.71875" stop-color="#441FD8"/>
<stop offset="1" stop-color="#0A26B8"/>
</linearGradient>
<linearGradient id="paint26_linear_190_290" x1="13.7397" y1="107.814" x2="275.173" y2="42.5345" gradientUnits="userSpaceOnUse">
<stop offset="0.317708" stop-color="#E43425"/>
<stop offset="0.71875" stop-color="#441FD8"/>
<stop offset="1" stop-color="#0A26B8"/>
</linearGradient>
<linearGradient id="paint27_linear_190_290" x1="11.1517" y1="102.02" x2="275.072" y2="34.2402" gradientUnits="userSpaceOnUse">
<stop offset="0.317708" stop-color="#E43425"/>
<stop offset="0.71875" stop-color="#441FD8"/>
<stop offset="1" stop-color="#0A26B8"/>
</linearGradient>
<linearGradient id="paint28_linear_190_290" x1="7.78931" y1="89.4706" x2="272.984" y2="20.5999" gradientUnits="userSpaceOnUse">
<stop offset="0.317708" stop-color="#E43425"/>
<stop offset="0.71875" stop-color="#441FD8"/>
<stop offset="1" stop-color="#0A26B8"/>
</linearGradient>
<linearGradient id="paint29_linear_190_290" x1="1.47969" y1="79.4486" x2="271.749" y2="9.64919" gradientUnits="userSpaceOnUse">
<stop offset="0.317708" stop-color="#E43425"/>
<stop offset="0.71875" stop-color="#441FD8"/>
<stop offset="1" stop-color="#0A26B8"/>
</linearGradient>
</defs>
</svg>
