<svg width="61" height="141" viewBox="0 0 61 141" fill="none" xmlns="http://www.w3.org/2000/svg">
<path d="M33.0705 20.216C32.493 19.5308 31.4847 16.6041 30.8387 14.617C30.8093 14.6268 30.7897 14.6463 30.7604 14.6561C30.7506 14.6561 30.731 14.6561 30.7114 14.6561C30.6723 14.6561 30.6233 14.6659 30.5548 14.6757C30.5352 14.6757 30.5059 14.6757 30.4863 14.6757C30.4276 14.6757 30.359 14.6757 30.2807 14.6757C30.2416 14.6757 30.2122 14.6757 30.1731 14.6659C30.1045 14.6659 30.0262 14.6463 29.9479 14.6267C29.9088 14.617 29.8598 14.5974 29.8207 14.5876C29.7522 14.568 29.6738 14.5289 29.6053 14.4897C29.5564 14.4604 29.5074 14.4408 29.4683 14.4114C29.3998 14.3625 29.341 14.3037 29.2823 14.245C29.2334 14.2059 29.1942 14.1667 29.1453 14.108C29.0865 14.0394 29.0376 13.9416 28.9886 13.8535C28.9593 13.7947 28.9201 13.736 28.8908 13.6675C28.8222 13.4913 28.7635 13.2857 28.7244 13.0508C28.7048 12.9138 28.6852 12.7963 28.6656 12.6886C29.0768 12.5516 29.527 12.2481 29.6641 11.5825C29.9186 10.2904 29.576 8.94939 28.3132 9.00812C26.7079 9.07664 26.8743 10.9463 26.8743 10.9463C26.8743 10.9463 25.8172 12.3558 25.9248 10.4568C26.0129 8.83194 24.711 7.38322 24.711 7.38322C24.711 7.38322 25.1222 6.61973 24.8579 5.5332C24.5838 4.44667 21.3634 4.18237 21.3634 4.18237C21.0893 4.66201 20.5411 5.65066 20.1398 6.62951C19.8461 7.34408 19.8559 8.13694 20.0713 8.88087C20.1496 9.13537 19.758 9.37031 19.621 9.62481L18.3583 11.5923C18.3583 11.5923 18.1919 12.2775 18.7302 12.2481C19.4644 12.209 19.435 12.5418 19.435 12.5418C19.435 12.5418 19.5231 13.1291 19.2784 13.4032C18.8379 13.9122 19.5525 14.2352 19.8168 14.2841C20.0713 14.3331 19.5133 14.3135 19.4154 14.8323C19.3175 15.3511 19.7483 15.4001 19.7483 15.4001C20.267 15.7916 19.1414 17.1326 20.6194 17.6025C21.6472 17.9353 25.6899 17.485 26.7373 15.8307L27.1582 14.7736C27.1582 14.7736 27.168 14.8519 27.1582 14.8813C27.1582 14.94 27.1386 14.9889 27.1288 15.0476C27.1092 15.1553 27.0995 15.263 27.0603 15.3707C27.0407 15.4294 27.0114 15.4783 26.9918 15.5371C26.9526 15.635 26.9037 15.7329 26.845 15.8307C26.8156 15.8797 26.7764 15.9188 26.7471 15.9678C26.2283 16.6628 25.2592 17.2207 24.0161 17.6025L24.6817 20.3726L23.0861 22.3303C23.0861 22.3303 27.7161 28.1839 31.5141 26.745C35.3121 25.2963 33.8144 21.0872 33.09 20.2258L33.0705 20.216Z" fill="url(#paint0_linear_128_66)"/>
<path d="M41.2139 129.76L41.3509 135.114L36.2511 136.494L35.8008 129.388L41.2139 129.76Z" fill="url(#paint1_linear_128_66)"/>
<path d="M14.6976 129.76L14.1396 136.347L19.8268 135.848L20.1107 129.388L14.6976 129.76Z" fill="url(#paint2_linear_128_66)"/>
<path d="M42.8503 68.8472L28.0304 69.4736L13.2105 68.8472C12.4372 86.2121 12.5449 107.228 13.8664 133.354H20.689L28.0206 81.5233L35.3522 133.354H42.1749C43.6823 114.579 43.6921 92.6334 42.8307 68.8472H42.8503Z" fill="url(#paint3_linear_128_66)"/>
<path d="M19.9838 135.457C19.9838 135.457 21.1389 138.756 20.9921 140.576H10.5183C10.5183 140.576 10.1561 138.951 11.8691 137.366L13.3374 135.232C13.3374 135.232 13.7485 133.421 15.3636 133.734C18.5645 134.37 17.5661 135.163 19.9936 135.447L19.9838 135.457Z" fill="url(#paint4_linear_128_66)"/>
<path d="M36.1051 135.457C36.1051 135.457 34.9501 138.756 35.0969 140.576H45.5706C45.5706 140.576 45.9328 138.951 44.2198 137.366L42.7515 135.232C42.7515 135.232 42.3404 133.421 40.7253 133.734C37.5244 134.37 38.5229 135.163 36.0953 135.447L36.1051 135.457Z" fill="url(#paint5_linear_128_66)"/>
<path d="M7.70621 75.3951C8.30331 72.3411 10.0359 63.1399 9.96737 60.0369C9.88906 56.2977 9.94778 55.3677 9.94778 55.3677C9.94778 55.3677 5.3178 54.6728 3.34051 55.5733C2.81193 55.8082 2.4987 58.6371 2.53785 60.3697L3.88866 75.542C3.4286 76.4034 1.7254 79.7021 1.87222 80.1915C2.03863 80.7593 2.59658 80.7788 2.59658 80.7788C2.59658 80.7788 2.43017 81.4934 2.77277 81.7283C3.12516 81.9633 3.75163 81.8262 3.75163 81.8262C3.75163 81.8262 3.66353 82.6974 4.24105 82.8344C4.81858 82.9812 5.28844 82.6974 5.28844 82.6974C5.28844 82.6974 5.40589 83.3532 5.95405 83.4903C6.50221 83.6175 6.97207 83.0596 6.97207 83.0596C6.97207 83.0596 7.30487 83.6665 7.83345 83.6665C8.36203 83.6665 8.42077 82.9127 8.42077 82.9127C8.42077 82.9127 8.50887 79.8 8.27395 77.8814C8.16628 77.02 7.93134 76.139 7.71599 75.4049L7.70621 75.3951Z" fill="url(#paint6_linear_128_66)"/>
<path d="M27.2922 1.53944C24.5905 1.35346 22.9559 1.90161 21.5855 1.01085C21.096 0.697619 20.2934 2.82176 21.3603 4.12364C21.3701 4.14321 21.3897 4.16279 21.3995 4.18237C21.791 4.22152 24.5905 4.51517 24.8451 5.52339C25.1191 6.60992 24.6982 7.37342 24.6982 7.37342C24.6982 7.37342 25.3834 8.14672 25.726 9.1843C26.0784 12.8452 23.4551 12.9529 22.8482 13.3249C22.2217 13.7066 20.0878 12.0328 19.4026 12.483C18.7174 12.9431 18.7566 13.7066 19.0698 13.7653C19.3537 13.8143 19.7942 13.8437 20.2738 13.8632C20.5283 13.8632 21.1254 14.0982 21.1743 14.3429C21.2722 14.8225 20.8122 15.1945 19.8725 15.6154C19.1775 15.9286 20.1465 17.7787 20.1465 17.7787C20.1465 17.7787 20.6458 18.2681 22.5447 17.9451C25.4422 17.4556 27.4977 16.1538 27.1062 14.3723C26.8223 13.0704 26.8615 11.2888 26.9007 10.4372C26.9692 9.87929 27.253 9.04726 28.3102 8.99832C29.5729 8.93959 29.9155 10.2806 29.661 11.5727C29.5338 12.2383 29.0737 12.532 28.6626 12.6788C28.6822 12.7865 28.7017 12.904 28.7213 13.041C28.9758 14.8519 30.4343 14.7148 30.7476 14.6659C33.1457 13.8926 33.7624 11.2497 34.0855 8.7732C34.5945 4.9263 31.1489 1.80374 27.2824 1.54924L27.2922 1.53944Z" fill="url(#paint7_linear_128_66)"/>
<path opacity="0.85" d="M23.1241 19.522L27.9204 44.4534L34.0187 19.7178C29.9662 19.1207 26.2858 19.15 23.1143 19.5122L23.1241 19.522Z" fill="url(#paint8_linear_128_66)"/>
<path d="M2.71235 74.072L8.72252 74.7768C8.72252 74.7768 10.925 65.0372 11.9136 54.8375L20.1947 35.7792C20.1947 35.7792 21.3596 26.6562 16.3478 23.563C11.3361 20.4698 8.82041 24.8845 8.82041 24.8845C8.82041 24.8845 2.35018 34.9373 1.20492 49.3167C0.0596558 63.6961 2.71235 74.072 2.71235 74.072Z" fill="white"/>
<path d="M10.6406 23.1732C10.6406 23.1732 25.7248 14.3537 45.8892 23.1732L43.0799 54.3399L43.6966 69.6003L12.8626 71.3035L13.4206 55.3677L10.6406 23.1732Z" fill="white"/>
<path d="M45.8905 23.1719C45.8905 23.1719 56.1783 30.2392 60.4363 48.4361L52.2139 59.8888C52.2139 59.8888 46.5072 44.7361 43.4238 41.359C40.3404 37.9819 45.8905 23.1719 45.8905 23.1719Z" fill="white"/>
<path d="M42.7129 67.8965C42.7129 67.8965 49.095 49.2199 49.976 45.9897C50.857 42.7595 60.3715 47.9768 60.3715 47.9768C60.3715 47.9768 60.7336 63.844 42.7423 76.3342L42.7031 67.8965H42.7129Z" fill="white"/>
<path opacity="0.7" d="M60.4363 48.4361C60.4167 48.348 60.3874 48.2697 60.3678 48.1914C60.3678 48.0544 60.3678 47.9761 60.3678 47.9761L60.2993 47.9369C55.9727 30.1217 45.8905 23.1719 45.8905 23.1719C45.8905 23.1719 40.3404 37.9819 43.4238 41.359C44.8236 42.8958 46.7715 46.87 48.4747 50.7462C46.3114 57.3633 42.7092 67.8958 42.7092 67.8958L42.7484 76.3335C58.7233 65.2333 60.221 51.4902 60.358 48.5536L60.4363 48.4459V48.4361Z" fill="url(#paint9_linear_128_66)"/>
<path opacity="0.7" d="M10.644 23.1726C10.644 23.1726 10.9866 22.9768 11.6327 22.6636C9.76307 23.2411 8.81358 24.8758 8.81358 24.8758C8.81358 24.8758 2.34334 34.9286 1.19808 49.308C0.0528185 63.6874 2.70553 74.0633 2.70553 74.0633L8.7157 74.768C8.7157 74.768 10.9181 65.0284 11.9068 54.8288L13.1303 52.0096L10.6342 23.1726H10.644Z" fill="url(#paint10_linear_128_66)"/>
<path opacity="0.8" d="M42.7236 69.6483V67.8864C42.7236 67.8864 43.0368 66.9467 43.536 65.4686L43.0857 54.3292L44.1723 42.3187C43.9178 41.9467 43.6633 41.6041 43.4381 41.3496C40.3547 37.9726 45.9049 23.1624 45.9049 23.1624C25.7404 14.343 10.6562 23.1624 10.6562 23.1624L13.4362 55.357L12.8783 71.2928L42.7236 69.6385V69.6483Z" fill="url(#paint11_linear_128_66)"/>
<defs>
<linearGradient id="paint0_linear_128_66" x1="18.3191" y1="15.5665" x2="33.971" y2="15.5665" gradientUnits="userSpaceOnUse">
<stop stop-color="#F8C9C6"/>
<stop offset="1" stop-color="#F26F56"/>
</linearGradient>
<linearGradient id="paint1_linear_128_66" x1="35.8008" y1="132.941" x2="41.3509" y2="132.941" gradientUnits="userSpaceOnUse">
<stop stop-color="#F8C9C6"/>
<stop offset="1" stop-color="#F26F56"/>
</linearGradient>
<linearGradient id="paint2_linear_128_66" x1="14.1396" y1="132.872" x2="20.1107" y2="132.872" gradientUnits="userSpaceOnUse">
<stop stop-color="#F8C9C6"/>
<stop offset="1" stop-color="#F26F56"/>
</linearGradient>
<linearGradient id="paint3_linear_128_66" x1="43.8952" y1="98.954" x2="8.71157" y2="97.5238" gradientUnits="userSpaceOnUse">
<stop stop-color="#CEDDFE"/>
<stop offset="1" stop-color="#7399EF"/>
</linearGradient>
<linearGradient id="paint4_linear_128_66" x1="10.4792" y1="137.141" x2="21.0019" y2="137.141" gradientUnits="userSpaceOnUse">
<stop stop-color="#444B8B"/>
<stop offset="0.27" stop-color="#3E4480"/>
<stop offset="0.73" stop-color="#2F3262"/>
<stop offset="1" stop-color="#26264F"/>
</linearGradient>
<linearGradient id="paint5_linear_128_66" x1="35.0871" y1="137.141" x2="45.6098" y2="137.141" gradientUnits="userSpaceOnUse">
<stop stop-color="#444B8B"/>
<stop offset="0.27" stop-color="#3E4480"/>
<stop offset="0.73" stop-color="#2F3262"/>
<stop offset="1" stop-color="#26264F"/>
</linearGradient>
<linearGradient id="paint6_linear_128_66" x1="1.86244" y1="69.385" x2="9.96737" y2="69.385" gradientUnits="userSpaceOnUse">
<stop stop-color="#F8C9C6"/>
<stop offset="1" stop-color="#F26F56"/>
</linearGradient>
<linearGradient id="paint7_linear_128_66" x1="26.4945" y1="0.979736" x2="26.4945" y2="18.0554" gradientUnits="userSpaceOnUse">
<stop stop-color="#FFFB96"/>
<stop offset="1" stop-color="#FFD583"/>
</linearGradient>
<linearGradient id="paint8_linear_128_66" x1="23.124" y1="31.8556" x2="34.0187" y2="31.8556" gradientUnits="userSpaceOnUse">
<stop stop-color="#05C8FF"/>
<stop offset="0.84" stop-color="#18D4A7"/>
</linearGradient>
<linearGradient id="paint9_linear_128_66" x1="60.4399" y1="49.7615" x2="42.4931" y2="49.7615" gradientUnits="userSpaceOnUse">
<stop stop-color="#530085"/>
<stop offset="0.1" stop-color="#530085"/>
<stop offset="0.9" stop-color="#0052F2"/>
<stop offset="1" stop-color="#0052F2"/>
</linearGradient>
<linearGradient id="paint10_linear_128_66" x1="13.1327" y1="48.7244" x2="0.912405" y2="48.7244" gradientUnits="userSpaceOnUse">
<stop stop-color="#530085"/>
<stop offset="0.1" stop-color="#530085"/>
<stop offset="0.9" stop-color="#0052F2"/>
<stop offset="1" stop-color="#0052F2"/>
</linearGradient>
<linearGradient id="paint11_linear_128_66" x1="45.9118" y1="45.2764" x2="10.6599" y2="45.2764" gradientUnits="userSpaceOnUse">
<stop stop-color="#530085"/>
<stop offset="0.1" stop-color="#530085"/>
<stop offset="0.9" stop-color="#0052F2"/>
<stop offset="1" stop-color="#0052F2"/>
</linearGradient>
</defs>
</svg>
