<svg width="64" height="143" viewBox="0 0 64 143" fill="none" xmlns="http://www.w3.org/2000/svg">
<path d="M10.4164 82.4944C9.76612 82.6169 10.1054 81.8996 10.1054 81.8996C10.1054 81.8996 11.0234 79.6668 10.977 79.1746C10.8704 79.4296 9.70801 82.0962 8.61863 82.6657C8.61863 82.6657 7.79101 82.8166 8.39408 81.9022C9.00666 80.9838 10.0085 78.7388 10.0085 78.7388L9.87263 78.7057C9.87263 78.7057 8.00449 82.5511 7.17418 82.6142C6.34388 82.6773 7.10964 81.3738 7.10964 81.3738C7.10964 81.3738 8.55927 79.4338 8.9298 78.3593L8.90979 78.2564C8.90979 78.2564 7.1206 81.1025 6.47917 81.3548C5.82821 81.611 5.73279 81.4056 5.95699 81.058C6.1907 80.7064 7.87571 77.9586 7.9513 77.4385C7.97105 77.2971 7.99565 76.8424 8.051 76.4085C7.68479 76.6811 7.29614 77.0074 7.11903 77.2802C6.3142 78.4886 5.38745 77.8022 5.38745 77.8022C6.07499 77.3643 6.46822 76.4805 6.89831 75.6593C6.89831 75.6593 7.28449 75.0562 7.75488 74.6853C8.21575 74.3182 10.8756 72.2926 10.8756 72.2926C10.8756 72.2926 10.908 72.2904 10.9539 72.2938C12.5886 69.4777 18.0031 61.4867 18.0031 61.4867C18.0031 61.4867 15.663 60.0587 20.0077 61.4866L20.0075 63.8515L18.8047 65.3022C18.8047 65.3022 16.465 69.5753 13.1959 73.9627C13.272 74.3648 13.2955 74.8553 13.1377 75.3646C12.6237 77.0649 12.184 78.9458 12.184 78.9458C12.184 78.9458 11.0705 82.3814 10.4203 82.5039L10.4164 82.4944ZM10.9609 79.0812C10.9492 79.0527 10.9184 79.032 10.9609 79.0812V79.0812Z" fill="url(#paint0_linear_124_6375)"/>
<path d="M15.7998 57.1642C16.2933 55.8476 17.0027 54.6338 17.8971 53.5435L19.0177 52.1857C19.0177 52.1857 20.4878 44.8619 22.3486 38.5667C23.0271 35.9643 23.7879 33.5367 24.6103 31.8909C25.3402 30.4097 26.3169 29.5354 27.3552 29.0519C30.3058 27.5295 33.8731 29.3502 33.8731 29.3502C36.5255 30.276 35.405 32.2612 34.3769 34.195C32.5264 37.6924 26.3375 51.5171 25.8131 52.6691H25.8954C25.8954 52.6691 25.6692 54.3046 23.5206 58.7072C20.7551 64.3646 14.1035 73.5811 14.1035 73.5811L10.7109 70.7112L15.8204 57.1848L15.7998 57.1642Z" fill="white"/>
<path opacity="0.8" d="M15.7998 57.1642C16.2933 55.8476 17.0027 54.6338 17.8971 53.5435L19.0177 52.1857C19.0177 52.1857 20.4878 44.8619 22.3486 38.5667C23.0271 35.9643 23.7879 33.5367 24.6103 31.8909C25.3402 30.4097 26.3169 29.5354 27.3552 29.0519C30.3058 27.5295 33.8731 29.3502 33.8731 29.3502C36.5255 30.276 35.405 32.2612 34.3769 34.195C32.5264 37.6924 26.3375 51.5171 25.8131 52.6691H25.8954C25.8954 52.6691 25.6692 54.3046 23.5206 58.7072C20.7551 64.3646 14.1035 73.5811 14.1035 73.5811L10.7109 70.7112L15.8204 57.1848L15.7998 57.1642Z" fill="url(#paint1_linear_124_6375)"/>
<path d="M41.149 139.146C41.149 139.146 44.7163 136.595 45.5388 133.9C45.6005 133.704 45.6827 133.55 45.7752 133.426C46.0939 131.832 46.2584 130.31 46.2584 130.31C46.2584 130.31 52.252 127.111 51.8305 130.197C51.4604 132.881 50.8847 135.751 51.2651 136.533L51.1417 136.553L51.2137 137.037L41.1387 139.146H41.149Z" fill="url(#paint2_linear_124_6375)"/>
<path d="M36.7974 142.293L51.3444 142.077C51.3444 142.077 51.9098 141.831 51.9921 140.792C52.0641 139.887 51.4061 136.687 51.2313 135.844C51.2108 135.721 51.0771 135.659 50.964 135.7C50.6556 135.813 50.1005 136.122 49.6584 136.842C49.0107 137.891 47.4069 136.194 47.078 135.309C46.7593 134.425 45.4125 134.497 45.4125 134.497L39.0282 138.611L38.0208 138.837C37.3114 139.002 36.6637 139.424 36.3142 140.061C35.9749 140.668 35.831 141.645 36.7974 142.293Z" fill="url(#paint3_linear_124_6375)"/>
<path d="M16.357 139.146C16.357 139.146 19.9243 136.595 20.7468 133.9C20.8085 133.704 20.8907 133.55 20.9832 133.426C21.3019 131.832 21.4664 130.31 21.4664 130.31C21.4664 130.31 27.46 127.111 27.0385 130.197C26.6684 132.881 26.0927 135.751 26.4731 136.533L26.3497 136.553L26.4217 137.037L16.3467 139.146H16.357Z" fill="url(#paint4_linear_124_6375)"/>
<path d="M12.0161 142.293L26.5632 142.077C26.5632 142.077 27.1286 141.831 27.2108 140.792C27.2828 139.887 26.6249 136.687 26.4501 135.844C26.4295 135.721 26.2959 135.659 26.1828 135.7C25.8744 135.813 25.3192 136.122 24.8771 136.842C24.2295 137.891 22.6257 136.194 22.2967 135.309C21.978 134.425 20.6313 134.497 20.6313 134.497L14.247 138.611L13.2395 138.837C12.5301 139.002 11.8825 139.424 11.5329 140.061C11.1937 140.668 11.0497 141.645 12.0161 142.293Z" fill="url(#paint5_linear_124_6375)"/>
<path d="M35.4746 21.4915L37.1503 28.3833L44.4804 27.2004L39.227 16.4924L35.4746 21.4915Z" fill="url(#paint6_linear_124_6375)"/>
<path d="M22.664 103.103C22.664 91.3044 24.1135 76.9345 26.1388 68.1192V68.0884C26.5603 66.278 29.3463 58.9027 29.9118 57.6992H30.2305L30.5286 56.9278C31.9473 56.6912 33.1707 56.9278 34.2296 57.4935L48.0571 56.8455C49.7945 58.9645 51.0282 61.2069 51.9226 63.2641C53.8142 67.0083 55.6441 72.1 55.2638 77.346C54.1021 93.2897 52.3338 132.398 52.3338 132.398L44.2327 132.305L38.7325 82.9726L33.9829 102.506C34.0651 105.787 33.9418 112.206 32.2866 118.933C30.8473 124.807 27.3313 132.892 27.3313 132.892L20.0732 131.668L22.6845 103.103H22.664Z" fill="url(#paint7_linear_124_6375)"/>
<path d="M37.2003 65.5988L37.262 65.7325C37.262 65.7325 34.8872 66.36 33.7975 66.4629C32.6974 66.5657 33.3451 67.1109 33.3451 67.1109C34.476 67.5943 37.2723 66.8332 37.5396 66.7612C37.1798 67.1109 34.8666 67.8001 34.8666 67.8001C34.8666 67.8001 34.1059 67.9852 34.5993 68.4172C35.0928 68.8493 38.4751 67.5532 38.4751 67.5532C38.4751 67.5532 40.2126 66.72 41.8575 66.0514C42.4023 65.8354 42.7724 65.4754 43.0397 65.1359L44.7463 64.6833L43.5846 61.474L42.3612 62.0912C42.279 61.978 42.207 61.8958 42.207 61.8958C42.207 61.8958 38.9686 61.1037 38.3929 60.97C37.8172 60.8363 37.0975 60.9083 37.0975 60.9083C36.1826 61.0934 35.2573 61.3403 34.4863 61.0729C34.4863 61.0729 34.5274 62.2249 35.9769 62.0912C36.5938 62.0295 37.7863 62.4204 38.1564 62.5541C37.7041 62.8215 37.1489 63.2124 36.9947 63.3153C36.5321 63.5827 33.3451 63.9941 32.9236 64.0353C32.5021 64.0764 32.4096 64.2822 33.0161 64.6216C33.6227 64.9713 36.9536 64.5702 36.9536 64.5702L36.8919 64.6525C35.8227 65.0331 33.4068 65.1256 33.4068 65.1256C33.4068 65.1256 31.9161 65.3519 32.4815 65.9588C33.047 66.5657 37.2209 65.6091 37.2209 65.6091L37.2003 65.5988ZM37.591 66.6891C37.591 66.6891 37.6116 66.6171 37.591 66.6891V66.6891Z" fill="url(#paint8_linear_124_6375)"/>
<path d="M39.7004 19.4897C39.7004 19.4897 39.8309 20.0194 41.217 18.7045C42.6142 17.3928 42.3984 16.2134 41.2002 15.8463C40.0019 15.4792 39.3142 15.7468 39.3142 15.7468C39.3142 15.7468 34.9608 10.9443 38.7455 7.30594C41.1272 6.69953 43.7078 7.15945 45.797 8.83216C49.335 11.6636 49.6153 16.0515 46.6596 19.7382C43.715 23.4281 37.5627 22.8726 34.0246 20.0411C34.0023 20.035 37.1354 20.4549 37.8111 20.0997C39.2278 19.3712 39.6893 19.4866 39.6893 19.4866L39.7004 19.4897Z" fill="url(#paint9_linear_124_6375)"/>
<path d="M31.1803 14.1384C31.7017 13.9934 32.1082 13.8287 32.4172 13.6251C33.7722 12.7712 33.4562 11.4318 34.7244 9.75926C35.8005 8.34673 37.9336 7.55125 38.5772 7.35578C38.6424 7.33766 38.6933 7.32764 38.7585 7.30952C34.9768 10.9367 39.3272 15.7504 39.3272 15.7504C39.3272 15.7504 40.7208 14.0162 42.0845 15.0912C43.0759 15.8587 42.9382 17.7953 41.5247 19.0785C40.4165 20.0848 39.4151 19.2664 39.4151 19.2664C39.4151 19.2664 38.3428 21.6673 36.8701 21.8144C36.3511 21.8637 35.5271 21.8408 34.6788 21.775C33.086 21.6602 31.6104 21.4693 31.6104 21.4693C30.4005 21.2315 30.3033 20.4943 30.3883 20.0121C30.4278 19.7821 30.5231 19.5677 30.6601 19.3767L31.0046 18.8699C31.0046 18.8699 30.9456 18.8656 30.6061 18.4829C30.2119 18.0368 31.1109 17.5266 31.1109 17.5266C30.4995 17.2133 30.428 16.6878 30.968 16.4757C31.5079 16.2637 31.3631 15.7421 31.3631 15.7421C30.2632 14.5834 31.2139 14.1476 31.2139 14.1476L31.1803 14.1384Z" fill="url(#paint10_linear_124_6375)"/>
<path d="M38.4556 7.58727C38.4556 7.58727 34.8734 10.8843 39.3183 15.7482L38.7862 7.30533C38.4665 7.37356 38.7715 7.44575 38.4556 7.58727Z" fill="url(#paint11_linear_124_6375)"/>
<path d="M40.4875 7.0767C38.8121 6.99925 36.3955 7.07829 34.6847 9.35099L35.9771 10.4665C35.9771 10.4665 37.0817 7.55678 40.4875 7.0767Z" fill="url(#paint12_linear_124_6375)"/>
<path d="M48.3964 15.3782C47.4309 16.8694 47.8546 18.8647 49.356 19.8333C50.8463 20.7988 52.8408 20.3744 53.8093 18.8719C54.7748 17.3807 54.3511 15.3854 52.8497 14.4168C51.3594 13.4513 49.3649 13.8757 48.3964 15.3782Z" fill="url(#paint13_linear_124_6375)"/>
<path d="M44.2292 6.0755C43.6859 7.56296 44.4618 9.19802 45.9372 9.73799C47.4238 10.281 49.0583 9.50437 49.5984 8.0281C50.1417 6.54064 49.3658 4.90558 47.8904 4.36562C46.4038 3.82256 44.7693 4.59923 44.2292 6.0755Z" fill="url(#paint14_linear_124_6375)"/>
<path d="M44.6297 26.8819L40.4455 25.7092L36.2305 26.9127C36.2305 26.9127 36.8781 31.2227 44.6297 26.8819Z" fill="url(#paint15_linear_124_6375)"/>
<path d="M29.1943 57.9155L27.7036 45.0988C26.9429 43.7204 26.1513 41.0666 26.9943 38.3201C27.5905 36.376 29.6158 28.4145 29.6158 28.4145L36.401 26.8818C36.0926 29.114 40.6366 28.1676 44.6255 26.8818L51.349 28.8465C51.349 28.8465 52.7472 37.631 49.735 52.4432V57.9155H30.3869L30.3046 57.936H29.1943V57.9155Z" fill="white"/>
<path opacity="0.8" d="M29.1943 57.9155L27.7036 45.0988C26.9429 43.7204 26.1513 41.0666 26.9943 38.3201C27.5905 36.376 29.6158 28.4145 29.6158 28.4145L36.401 26.8818C36.0926 29.114 40.6366 28.1676 44.6255 26.8818L51.349 28.8465C51.349 28.8465 52.7472 37.631 49.735 52.4432V57.9155H30.3869L30.3046 57.936H29.1943V57.9155Z" fill="url(#paint16_linear_124_6375)"/>
<path d="M55.9554 53.101L49.7665 40.7473C49.7665 40.7473 44.5851 33.1663 49.2011 29.7718C49.2011 29.7718 53.2825 26.9328 56.3153 32.4874C62.5762 43.9668 63.1313 52.2987 63.1416 54.6543C63.1416 54.7983 63.0902 54.9114 63.0079 55.0143C62.9257 55.94 62.6687 56.8658 62.2472 57.6784C61.9902 58.1722 61.7229 58.5322 61.507 58.635L55.719 61.3197L44.4823 65.3828L43.2178 61.0317C43.2178 61.0317 50.1366 55.4154 55.9349 53.1113L55.9554 53.101Z" fill="white"/>
<path opacity="0.8" d="M55.9554 53.101L49.7665 40.7473C49.7665 40.7473 44.5851 33.1663 49.2011 29.7718C49.2011 29.7718 53.2825 26.9328 56.3153 32.4874C62.5762 43.9668 63.1313 52.2987 63.1416 54.6543C63.1416 54.7983 63.0902 54.9114 63.0079 55.0143C62.9257 55.94 62.6687 56.8658 62.2472 57.6784C61.9902 58.1722 61.7229 58.5322 61.507 58.635L55.719 61.3197L44.4823 65.3828L43.2178 61.0317C43.2178 61.0317 50.1366 55.4154 55.9349 53.1113L55.9554 53.101Z" fill="url(#paint17_linear_124_6375)"/>
<defs>
<linearGradient id="paint0_linear_124_6375" x1="16.4848" y1="80.0181" x2="9.88691" y2="63.9489" gradientUnits="userSpaceOnUse">
<stop stop-color="#E9B764"/>
<stop offset="1" stop-color="#D77A5C"/>
</linearGradient>
<linearGradient id="paint1_linear_124_6375" x1="10.7126" y1="51.013" x2="35.5239" y2="51.013" gradientUnits="userSpaceOnUse">
<stop stop-color="#9D0051"/>
<stop offset="0.1" stop-color="#9D0051"/>
<stop offset="0.91" stop-color="#301C90"/>
<stop offset="1" stop-color="#301C90"/>
</linearGradient>
<linearGradient id="paint2_linear_124_6375" x1="41.1391" y1="133.986" x2="51.8609" y2="133.986" gradientUnits="userSpaceOnUse">
<stop stop-color="#E9B764"/>
<stop offset="1" stop-color="#D77A5C"/>
</linearGradient>
<linearGradient id="paint3_linear_124_6375" x1="51.9921" y1="138.395" x2="36.0572" y2="138.395" gradientUnits="userSpaceOnUse">
<stop stop-color="#444B89"/>
<stop offset="0.27" stop-color="#3E437E"/>
<stop offset="0.75" stop-color="#2F3160"/>
<stop offset="1" stop-color="#26264F"/>
</linearGradient>
<linearGradient id="paint4_linear_124_6375" x1="16.3471" y1="133.986" x2="27.0689" y2="133.986" gradientUnits="userSpaceOnUse">
<stop stop-color="#E9B764"/>
<stop offset="1" stop-color="#D77A5C"/>
</linearGradient>
<linearGradient id="paint5_linear_124_6375" x1="27.2108" y1="5.4762" x2="11.2759" y2="5.4762" gradientUnits="userSpaceOnUse">
<stop stop-color="#444B89"/>
<stop offset="0.27" stop-color="#3E437E"/>
<stop offset="0.75" stop-color="#2F3160"/>
<stop offset="1" stop-color="#26264F"/>
</linearGradient>
<linearGradient id="paint6_linear_124_6375" x1="35.475" y1="22.4223" x2="44.4881" y2="22.4223" gradientUnits="userSpaceOnUse">
<stop stop-color="#E9B764"/>
<stop offset="1" stop-color="#D77A5C"/>
</linearGradient>
<linearGradient id="paint7_linear_124_6375" x1="55.8729" y1="92.3334" x2="-8.33156" y2="90.8504" gradientUnits="userSpaceOnUse">
<stop stop-color="#CEDDFE"/>
<stop offset="1" stop-color="#7399EF"/>
</linearGradient>
<linearGradient id="paint8_linear_124_6375" x1="32.3541" y1="64.6872" x2="44.7569" y2="64.6872" gradientUnits="userSpaceOnUse">
<stop stop-color="#E9B764"/>
<stop offset="1" stop-color="#D77A5C"/>
</linearGradient>
<linearGradient id="paint9_linear_124_6375" x1="35.853" y1="13.3938" x2="48.2905" y2="16.8291" gradientUnits="userSpaceOnUse">
<stop stop-color="#331809"/>
<stop offset="0.1" stop-color="#331809"/>
<stop offset="0.19" stop-color="#3D1C08"/>
<stop offset="0.66" stop-color="#6C3406"/>
<stop offset="0.9" stop-color="#7F3D06"/>
<stop offset="1" stop-color="#7F3D06"/>
</linearGradient>
<linearGradient id="paint10_linear_124_6375" x1="31.2139" y1="13.276" x2="42.8629" y2="16.4935" gradientUnits="userSpaceOnUse">
<stop stop-color="#E9B764"/>
<stop offset="1" stop-color="#D77A5C"/>
</linearGradient>
<linearGradient id="paint11_linear_124_6375" x1="36.9132" y1="10.9355" x2="40.3809" y2="11.8933" gradientUnits="userSpaceOnUse">
<stop stop-color="#331809"/>
<stop offset="0.1" stop-color="#331809"/>
<stop offset="0.19" stop-color="#3D1C08"/>
<stop offset="0.66" stop-color="#6C3406"/>
<stop offset="0.9" stop-color="#7F3D06"/>
<stop offset="1" stop-color="#7F3D06"/>
</linearGradient>
<linearGradient id="paint12_linear_124_6375" x1="35.0822" y1="7.90131" x2="39.89" y2="9.22923" gradientUnits="userSpaceOnUse">
<stop stop-color="#331809"/>
<stop offset="0.1" stop-color="#331809"/>
<stop offset="0.19" stop-color="#3D1C08"/>
<stop offset="0.66" stop-color="#6C3406"/>
<stop offset="0.9" stop-color="#7F3D06"/>
<stop offset="1" stop-color="#7F3D06"/>
</linearGradient>
<linearGradient id="paint13_linear_124_6375" x1="47.9925" y1="16.2656" x2="54.2064" y2="17.9819" gradientUnits="userSpaceOnUse">
<stop stop-color="#331809"/>
<stop offset="0.1" stop-color="#331809"/>
<stop offset="0.19" stop-color="#3D1C08"/>
<stop offset="0.66" stop-color="#6C3406"/>
<stop offset="0.9" stop-color="#7F3D06"/>
<stop offset="1" stop-color="#7F3D06"/>
</linearGradient>
<linearGradient id="paint14_linear_124_6375" x1="44.1568" y1="6.29001" x2="49.6648" y2="7.81133" gradientUnits="userSpaceOnUse">
<stop stop-color="#331809"/>
<stop offset="0.1" stop-color="#331809"/>
<stop offset="0.19" stop-color="#3D1C08"/>
<stop offset="0.66" stop-color="#6C3406"/>
<stop offset="0.9" stop-color="#7F3D06"/>
<stop offset="1" stop-color="#7F3D06"/>
</linearGradient>
<linearGradient id="paint15_linear_124_6375" x1="36.2308" y1="27.2601" x2="44.6369" y2="27.2601" gradientUnits="userSpaceOnUse">
<stop stop-color="#E9B764"/>
<stop offset="1" stop-color="#D77A5C"/>
</linearGradient>
<linearGradient id="paint16_linear_124_6375" x1="26.6336" y1="42.4089" x2="51.6825" y2="42.4089" gradientUnits="userSpaceOnUse">
<stop stop-color="#9D0051"/>
<stop offset="0.1" stop-color="#9D0051"/>
<stop offset="0.91" stop-color="#301C90"/>
<stop offset="1" stop-color="#301C90"/>
</linearGradient>
<linearGradient id="paint17_linear_124_6375" x1="43.2191" y1="47.2146" x2="63.1491" y2="47.2146" gradientUnits="userSpaceOnUse">
<stop stop-color="#9D0051"/>
<stop offset="0.1" stop-color="#9D0051"/>
<stop offset="0.91" stop-color="#301C90"/>
<stop offset="1" stop-color="#301C90"/>
</linearGradient>
</defs>
</svg>
