<svg width="59" height="145" viewBox="0 0 59 145" fill="none" xmlns="http://www.w3.org/2000/svg">
<path d="M41.2741 140.811L41.2256 137.861L46.8604 136.028L47.6314 139.921C47.6314 139.921 42.8324 144.084 41.2687 140.811H41.2741Z" fill="url(#paint0_linear_129_255)"/>
<path d="M17.6822 139.598C17.6822 139.598 17.4665 137.463 18.4694 135.462C19.4724 133.462 11.9072 133.748 11.9072 133.748C11.9072 133.748 11.3356 138.525 8.69889 140.094C6.05674 141.663 15.7572 143.869 17.6876 139.593L17.6822 139.598Z" fill="url(#paint1_linear_129_255)"/>
<path d="M46.4443 62.5403C46.4173 61.9525 46.4173 61.3594 46.5467 61.23H35.1532V61.1113L34.0639 61.23H21.4787V63.8236H21.5434L20.7831 68.4339L14.5444 99.25L10.5488 138.251L18.1841 139.249C18.1841 139.249 26.2669 113.803 26.0297 103.585L33.2767 81.3103C34.0909 92.1431 36.6198 122.22 40.6531 139.292L47.6899 138.629C47.6899 138.629 50.2188 76.7324 46.4443 62.5403Z" fill="white"/>
<path opacity="0.8" d="M46.4443 62.5403C46.4173 61.9525 46.4173 61.3594 46.5467 61.23H35.1532V61.1113L34.0639 61.23H21.4787V63.8236H21.5434L20.7831 68.4339L14.5444 99.25L10.5488 138.251L18.1841 139.249C18.1841 139.249 26.2669 113.803 26.0297 103.585L33.2767 81.3103C34.0909 92.1431 36.6198 122.22 40.6531 139.292L47.6899 138.629C47.6899 138.629 50.2188 76.7324 46.4443 62.5403Z" fill="url(#paint2_linear_129_255)"/>
<path d="M0.871451 144.921H18.5253C18.5253 144.921 18.617 142.678 17.6841 139.599C17.6841 139.599 14.3194 140.532 12.3621 139.41L10.5881 137.356L5.9185 141.001L1.43224 142.214C1.43224 142.214 0.219002 143.336 0.871451 144.921Z" fill="url(#paint3_linear_129_255)"/>
<path d="M36.9718 22.2569V14.7834H36.384C36.4757 14.4922 36.5889 14.2172 36.7561 13.8883C37.1821 13.0579 37.3115 11.4942 35.6507 11.4025C33.9899 11.3108 33.6987 13.2897 33.936 14.6809L34.4213 14.7888H29.6492V22.5265L27.8644 23.0711C25.3194 28.2152 32.8791 29.148 32.8791 29.148L40.5845 23.4431L36.9718 22.2623V22.2569Z" fill="url(#paint4_linear_129_255)"/>
<path d="M27.8574 23.0606L20.8261 25.1743C18.6477 25.9184 16.7928 27.6546 15.7251 29.6929C15.2344 30.6257 15.0026 31.7904 14.6521 33.1061C13.2178 38.5576 10.8398 51.7791 10.8398 51.7791L20.4271 53.2242L23.2202 40.3693L28.251 31.8012L27.8574 23.0552V23.0606Z" fill="url(#paint5_linear_129_255)"/>
<path d="M41.8115 33.7698L39.2502 22.937C39.2502 22.937 37.2551 25.5792 33.4483 25.5792C29.8841 25.5792 27.862 23.0664 27.862 23.0664L24.2924 26.787C23.1493 27.9733 22.362 29.4561 22.0062 31.0683L19.8008 41.1355L20.038 69.6922H48.0286L48.4384 35.4791L41.8115 33.7752V33.7698Z" fill="url(#paint6_linear_129_255)"/>
<path d="M57.4449 57.1604C55.4552 56.0226 50.5214 56.303 50.5214 56.303C50.5214 56.303 50.4945 57.279 50.0523 61.2045C49.6425 64.8442 50.8611 76.7446 51.0391 78.4377C50.6778 79.2465 50.1925 80.4598 49.9391 81.6299C49.5023 83.625 49.292 86.9034 49.292 86.9034C49.292 86.9034 49.292 87.7122 49.842 87.7553C50.392 87.7985 50.8072 87.1945 50.8072 87.1945C50.8072 87.1945 51.244 87.8308 51.8317 87.7499C52.4194 87.6637 52.6082 86.9842 52.6082 86.9842C52.6082 86.9842 53.0719 87.324 53.692 87.2323C54.3121 87.1353 54.3067 86.2186 54.3067 86.2186C54.3067 86.2186 54.9538 86.4235 55.342 86.2132C55.7302 86.0029 55.6224 85.2318 55.6224 85.2318C55.6224 85.2318 56.2101 85.2642 56.4366 84.6873C56.6523 84.1426 54.8782 79.8828 54.6841 79.4191L57.8278 62.2829C58.0327 60.4657 57.9733 57.4677 57.4449 57.1658V57.1604Z" fill="url(#paint7_linear_129_255)"/>
<path d="M58.2329 56.2281C58.2059 56.0879 58.1574 55.98 58.1251 55.856L52.7437 32.686C52.5388 31.5213 52.1829 30.5237 51.7515 29.6933C50.6839 27.6551 48.829 25.9189 46.6506 25.1748L39.2148 22.937V24.5439C39.2256 29.2997 40.4928 33.9639 42.9031 38.0619L44.2565 40.3698L46.8339 48.2585L48.2251 52.4158L49.0663 55.7751L50.0584 77.6294L55.7633 78.0123C55.7633 78.0123 59.6888 64.3864 58.2383 56.2281H58.2329Z" fill="url(#paint8_linear_129_255)"/>
<path d="M34.5591 63.1681L39.3021 65.1317C39.6185 65.2627 39.9812 65.1124 40.1122 64.796L44.4396 54.3436C44.5706 54.0272 44.4202 53.6645 44.1038 53.5335L39.3609 51.5699C39.0445 51.4389 38.6818 51.5892 38.5508 51.9056L34.2234 62.358C34.0924 62.6744 34.2427 63.0371 34.5591 63.1681Z" fill="url(#paint9_linear_129_255)"/>
<path d="M44.5521 58.1825C44.6222 57.6325 43.835 57.4707 43.835 57.4707C43.835 57.4707 40.5835 56.9962 38.5399 57.0124C37.4884 57.0178 36.3615 57.1957 35.5149 57.3629C33.9889 56.8722 22.4983 53.184 18.8316 52.8335C14.9007 52.456 13.941 52.2781 13.941 52.2781C13.941 52.2781 12.6468 57.0447 13.3478 59.2286C13.5311 59.8055 16.4591 60.4849 18.2762 60.6575L35.337 61.1104L35.3585 61.1698C35.3585 61.1698 39.5806 64.1031 40.1953 64.0006C40.8046 63.8982 40.8962 63.3158 40.8962 63.3158C40.8962 63.3158 41.6296 63.58 41.9154 63.2403C42.2011 62.9006 42.1364 62.2266 42.1364 62.2266C42.1364 62.2266 43.0369 62.4207 43.258 61.833C43.4791 61.2453 43.2418 60.7222 43.2418 60.7222C43.2418 60.7222 43.9482 60.6737 44.1531 60.1183C44.358 59.5629 43.8242 59.0021 43.8242 59.0021C43.8242 59.0021 44.4982 58.7271 44.5683 58.1771L44.5521 58.1825Z" fill="url(#paint10_linear_129_255)"/>
<path d="M10.8925 51.5888C10.8925 51.5888 10.321 55.7731 11.8901 58.1025C14.1332 61.4294 21.1322 61.0034 21.1322 61.0034L24.7449 51.6804L19.6548 50.2246C18.6303 49.9334 17.5411 49.9118 16.5058 50.1761L10.8872 51.5888H10.8925Z" fill="url(#paint11_linear_129_255)"/>
<path d="M37.6655 2.80138C37.6655 2.80138 31.4424 -0.816931 26.4853 6.5962C26.4853 6.5962 25.7376 7.78422 25.9828 8.96025L26.0631 9.22888L24.3789 11.2648C24.3789 11.2648 24.186 11.8159 24.6719 12.0569C25.1578 12.2979 25.3267 12.314 25.3267 12.314L24.3731 13.2754L24.5198 14.0314C24.5198 14.0314 24.0737 14.6475 24.3984 14.9846C24.7231 15.3218 24.922 15.7624 24.922 15.7624L24.6496 16.9125C24.6496 16.9125 24.6428 17.8769 25.348 18.2182C26.0533 18.5595 28.2767 18.5473 28.2767 18.5473C28.2767 18.5473 32.0629 18.7443 32.9509 17.8926C33.8402 17.0351 34.073 16.0184 34.073 16.0184L34.202 14.6976L34.8274 14.9179C35.539 15.1683 36.3306 14.9981 36.8696 14.4687C37.8397 13.5169 39.2538 11.8687 39.5101 10.1063C39.9151 7.37776 41.3193 4.81692 37.6596 2.80016L37.6655 2.80138Z" fill="url(#paint12_linear_129_255)"/>
<path d="M33.9957 8.08338C33.9957 8.08338 33.7232 7.14946 32.0047 6.66687L33.748 4.20421L41.1812 5.36997C42.3128 7.34192 42.2009 9.52594 41.8022 11.3786C41.1032 14.6346 36.9361 17.023 36.9361 17.023L36.5729 14.8019C36.8214 14.3181 37.1048 14.0033 37.5296 13.5818C38.2643 12.8413 38.9313 11.2193 37.1931 10.5597C35.4549 9.90013 33.8684 12.8047 33.859 12.8143L32.4541 12.0014C32.4541 12.0014 34.9768 10.7284 33.9957 8.08338Z" fill="url(#paint13_linear_129_255)"/>
<path d="M28.3275 4.36325C33.3922 -0.429557 38.2187 2.90676 38.2187 2.90676C39.7826 3.73765 40.8252 4.78163 41.4898 5.91434L28.267 4.49852C28.283 4.45257 28.3115 4.4092 28.3275 4.36325Z" fill="url(#paint14_linear_129_255)"/>
<path d="M40.1304 4.93782C40.1304 4.93782 43.5488 6.7206 43.0378 3.44768C42.5269 0.174754 38.0282 0.693033 38.5108 3.71406L40.1304 4.93782Z" fill="url(#paint15_linear_129_255)"/>
<path d="M41.5434 139.782C41.5434 139.782 40.3841 143.093 40.535 144.921H51.039C51.039 144.921 51.4002 143.292 49.6855 141.707L48.2134 139.566C48.2134 139.566 47.7983 137.749 46.1806 138.067C42.9723 138.704 43.9752 139.502 41.5434 139.782Z" fill="url(#paint16_linear_129_255)"/>
<defs>
<linearGradient id="paint0_linear_129_255" x1="41.2259" y1="139.039" x2="47.6369" y2="139.039" gradientUnits="userSpaceOnUse">
<stop stop-color="#E9B764"/>
<stop offset="1" stop-color="#D77A5C"/>
</linearGradient>
<linearGradient id="paint1_linear_129_255" x1="8.24654" y1="137.896" x2="18.5698" y2="137.896" gradientUnits="userSpaceOnUse">
<stop stop-color="#E9B764"/>
<stop offset="1" stop-color="#D77A5C"/>
</linearGradient>
<linearGradient id="paint2_linear_129_255" x1="10.5514" y1="100.202" x2="48.5335" y2="100.202" gradientUnits="userSpaceOnUse">
<stop stop-color="#9D0051"/>
<stop offset="0.1" stop-color="#9D0051"/>
<stop offset="0.91" stop-color="#301C90"/>
<stop offset="1" stop-color="#301C90"/>
</linearGradient>
<linearGradient id="paint3_linear_129_255" x1="0.677334" y1="141.136" x2="18.5307" y2="141.136" gradientUnits="userSpaceOnUse">
<stop stop-color="#26264F"/>
<stop offset="0.26" stop-color="#282853"/>
<stop offset="0.53" stop-color="#2E305F"/>
<stop offset="0.79" stop-color="#383C73"/>
<stop offset="1" stop-color="#444B89"/>
</linearGradient>
<linearGradient id="paint4_linear_129_255" x1="27.3414" y1="20.2504" x2="40.5958" y2="20.2504" gradientUnits="userSpaceOnUse">
<stop stop-color="#E9B764"/>
<stop offset="1" stop-color="#D77A5C"/>
</linearGradient>
<linearGradient id="paint5_linear_129_255" x1="28.527" y1="37.1358" x2="8.577" y2="36.1518" gradientUnits="userSpaceOnUse">
<stop stop-color="#CEDDFE"/>
<stop offset="1" stop-color="#7399EF"/>
</linearGradient>
<linearGradient id="paint6_linear_129_255" x1="48.8923" y1="44.7588" x2="16.089" y2="43.0418" gradientUnits="userSpaceOnUse">
<stop stop-color="#CEDDFE"/>
<stop offset="1" stop-color="#7399EF"/>
</linearGradient>
<linearGradient id="paint7_linear_129_255" x1="49.2924" y1="71.9737" x2="57.9445" y2="71.9737" gradientUnits="userSpaceOnUse">
<stop stop-color="#E9B764"/>
<stop offset="1" stop-color="#D77A5C"/>
</linearGradient>
<linearGradient id="paint8_linear_129_255" x1="58.8666" y1="48.642" x2="36.6667" y2="47.9756" gradientUnits="userSpaceOnUse">
<stop stop-color="#CEDDFE"/>
<stop offset="1" stop-color="#7399EF"/>
</linearGradient>
<linearGradient id="paint9_linear_129_255" x1="34.182" y1="58.3524" x2="44.4917" y2="58.3524" gradientUnits="userSpaceOnUse">
<stop stop-color="#26264F"/>
<stop offset="0.26" stop-color="#282853"/>
<stop offset="0.53" stop-color="#2E305F"/>
<stop offset="0.79" stop-color="#383C73"/>
<stop offset="1" stop-color="#444B89"/>
</linearGradient>
<linearGradient id="paint10_linear_129_255" x1="13.141" y1="58.1253" x2="44.5951" y2="58.1253" gradientUnits="userSpaceOnUse">
<stop stop-color="#E9B764"/>
<stop offset="1" stop-color="#D77A5C"/>
</linearGradient>
<linearGradient id="paint11_linear_129_255" x1="24.9661" y1="55.1392" x2="9.12378" y2="53.4264" gradientUnits="userSpaceOnUse">
<stop stop-color="#CEDDFE"/>
<stop offset="1" stop-color="#7399EF"/>
</linearGradient>
<linearGradient id="paint12_linear_129_255" x1="24.8401" y1="8.99501" x2="39.1571" y2="11.9269" gradientUnits="userSpaceOnUse">
<stop stop-color="#E9B764"/>
<stop offset="1" stop-color="#D77A5C"/>
</linearGradient>
<linearGradient id="paint13_linear_129_255" x1="31.3386" y1="8.74387" x2="41.6188" y2="12.009" gradientUnits="userSpaceOnUse">
<stop stop-color="#331809"/>
<stop offset="0.1" stop-color="#331809"/>
<stop offset="0.19" stop-color="#3D1C08"/>
<stop offset="0.66" stop-color="#6C3406"/>
<stop offset="0.9" stop-color="#7F3D06"/>
<stop offset="1" stop-color="#7F3D06"/>
</linearGradient>
<linearGradient id="paint14_linear_129_255" x1="28.6624" y1="2.53077" x2="41.6312" y2="5.18658" gradientUnits="userSpaceOnUse">
<stop stop-color="#331809"/>
<stop offset="0.1" stop-color="#331809"/>
<stop offset="0.19" stop-color="#3D1C08"/>
<stop offset="0.66" stop-color="#6C3406"/>
<stop offset="0.9" stop-color="#7F3D06"/>
<stop offset="1" stop-color="#7F3D06"/>
</linearGradient>
<linearGradient id="paint15_linear_129_255" x1="38.5277" y1="2.76074" x2="43.208" y2="3.71918" gradientUnits="userSpaceOnUse">
<stop stop-color="#331809"/>
<stop offset="0.1" stop-color="#331809"/>
<stop offset="0.19" stop-color="#3D1C08"/>
<stop offset="0.66" stop-color="#6C3406"/>
<stop offset="0.9" stop-color="#7F3D06"/>
<stop offset="1" stop-color="#7F3D06"/>
</linearGradient>
<linearGradient id="paint16_linear_129_255" x1="40.5243" y1="141.475" x2="51.0713" y2="141.475" gradientUnits="userSpaceOnUse">
<stop stop-color="#26264F"/>
<stop offset="0.26" stop-color="#282853"/>
<stop offset="0.53" stop-color="#2E305F"/>
<stop offset="0.79" stop-color="#383C73"/>
<stop offset="1" stop-color="#444B89"/>
</linearGradient>
</defs>
</svg>
