<svg width="61" height="142" viewBox="0 0 61 142" fill="none" xmlns="http://www.w3.org/2000/svg">
<path d="M41.1221 130.922L41.2591 136.277L36.1593 137.657L35.709 130.551L41.1221 130.922Z" fill="url(#paint0_linear_129_355)"/>
<path d="M14.6058 130.922L14.0479 137.51L19.735 137.011L20.0189 130.551L14.6058 130.922Z" fill="url(#paint1_linear_129_355)"/>
<path d="M42.7585 70.0098L27.9386 70.6362L13.1187 70.0098C12.3454 87.3747 12.4531 108.391 13.7746 134.516H20.5972L27.9288 82.6859L35.2604 134.516H42.0831C43.5905 115.742 43.6003 93.796 42.7389 70.0098H42.7585Z" fill="url(#paint2_linear_129_355)"/>
<path d="M19.892 136.62C19.892 136.62 21.0471 139.918 20.9003 141.739H10.4265C10.4265 141.739 10.0643 140.114 11.7773 138.528L13.2456 136.394C13.2456 136.394 13.6567 134.584 15.2719 134.897C18.4727 135.533 17.4743 136.326 19.9018 136.61L19.892 136.62Z" fill="url(#paint3_linear_129_355)"/>
<path d="M36.0133 136.62C36.0133 136.62 34.8583 139.918 35.0051 141.739H45.4788C45.4788 141.739 45.841 140.114 44.128 138.528L42.6597 136.394C42.6597 136.394 42.2486 134.584 40.6335 134.897C37.4326 135.533 38.4311 136.326 36.0035 136.61L36.0133 136.62Z" fill="url(#paint4_linear_129_355)"/>
<path d="M7.61441 76.5577C8.21152 73.5037 9.94409 64.3025 9.87557 61.1995C9.79726 57.4603 9.85599 56.5303 9.85599 56.5303C9.85599 56.5303 5.226 55.8354 3.24871 56.7359C2.72013 56.9708 2.4069 59.7997 2.44606 61.5323L3.79687 76.7046C3.33681 77.566 1.6336 80.8647 1.78043 81.3541C1.94683 81.9219 2.50479 81.9414 2.50479 81.9414C2.50479 81.9414 2.33837 82.656 2.68097 82.8909C3.03336 83.1259 3.65983 82.9888 3.65983 82.9888C3.65983 82.9888 3.57173 83.86 4.14926 83.997C4.72678 84.1438 5.19664 83.86 5.19664 83.86C5.19664 83.86 5.3141 84.5158 5.86225 84.6529C6.41041 84.7801 6.88027 84.2222 6.88027 84.2222C6.88027 84.2222 7.21307 84.8291 7.74166 84.8291C8.27024 84.8291 8.32897 84.0753 8.32897 84.0753C8.32897 84.0753 8.41708 80.9626 8.18215 79.044C8.07448 78.1826 7.83955 77.3016 7.6242 76.5675L7.61441 76.5577Z" fill="url(#paint5_linear_129_355)"/>
<path d="M30.9988 23.0185C30.6321 22.2009 30.468 19.1097 30.3936 17.0215C30.3626 17.0229 30.3384 17.0363 30.3075 17.0376C30.2981 17.0349 30.2793 17.0295 30.2605 17.0242C30.2228 17.0134 30.1731 17.0093 30.1045 16.9999C30.0857 16.9945 30.0574 16.9864 30.0386 16.9811C29.9822 16.9649 29.9163 16.946 29.841 16.9245C29.8033 16.9137 29.7751 16.9056 29.7402 16.8855C29.6743 16.8666 29.6044 16.8262 29.5345 16.7859C29.4995 16.7657 29.4579 16.7334 29.4229 16.7132C29.3624 16.6756 29.2979 16.6164 29.2428 16.5599C29.2038 16.5182 29.1622 16.4859 29.1326 16.4469C29.0802 16.381 29.0399 16.3084 28.9996 16.2357C28.9633 16.1846 28.9364 16.1362 28.9055 16.0663C28.8679 15.9842 28.8478 15.8767 28.825 15.7785C28.8129 15.714 28.7914 15.6467 28.782 15.5728C28.7646 15.3845 28.7647 15.1707 28.7917 14.9341C28.8106 14.797 28.8241 14.6787 28.8349 14.5698C29.2679 14.5511 29.7842 14.3833 30.0991 13.781C30.6993 12.6088 30.7388 11.2253 29.5087 10.9343C27.9465 10.5586 27.5921 12.4018 27.5921 12.4018C27.5921 12.4018 26.1879 13.4661 26.8139 11.67C27.3456 10.1321 26.4925 8.3811 26.4925 8.3811C26.4925 8.3811 27.0979 7.76018 27.1427 6.64287C27.1781 5.52286 24.1547 4.38276 24.1547 4.38276C23.7592 4.76848 22.9602 5.56817 22.3051 6.39883C21.8261 7.00503 21.6174 7.76999 21.6198 8.54446C21.625 8.81068 21.184 8.92883 20.9822 9.13581L19.2269 10.68C19.2269 10.68 18.8784 11.293 19.4041 11.4128C20.1207 11.5772 20.0009 11.889 20.0009 11.889C20.0009 11.889 19.924 12.4779 19.6133 12.6741C19.0498 13.0423 19.6479 13.5494 19.8886 13.6692C20.1198 13.7863 19.5887 13.614 19.3519 14.0858C19.115 14.5577 19.5157 14.7232 19.5157 14.7232C19.9067 15.2424 18.4555 16.2219 19.7473 17.0803C20.6439 17.683 24.6544 18.3624 26.1165 17.0601L26.812 16.1595C26.812 16.1595 26.7999 16.2375 26.7824 16.263C26.7662 16.3195 26.7339 16.3612 26.7084 16.4149C26.6599 16.5131 26.6209 16.6139 26.5536 16.7067C26.5187 16.7577 26.477 16.7967 26.442 16.8478C26.3774 16.9311 26.3034 17.0118 26.22 17.0897C26.1783 17.1287 26.1299 17.1555 26.0882 17.1945C25.3982 17.72 24.3131 17.9898 23.0129 18.0148L22.8907 20.8612L20.8181 22.3044C20.8181 22.3044 23.659 29.2058 27.7062 28.8673C31.7562 28.5194 31.4744 24.0608 31.0149 23.0333L30.9988 23.0185Z" fill="url(#paint6_linear_129_355)"/>
<path d="M30.5821 3.47279C28.0359 2.55071 26.3135 2.62797 25.241 1.39457C24.8566 0.958769 23.5006 2.78011 24.1682 4.32529C24.1722 4.3468 24.1856 4.37101 24.1897 4.39252C24.5553 4.53789 27.166 5.59041 27.1333 6.62975C27.0979 7.74975 26.4832 8.36798 26.4832 8.36798C26.4832 8.36798 26.9292 9.29995 26.9731 10.3918C26.3047 14.0084 23.753 13.3901 23.0672 13.5808C22.3599 13.7755 20.7688 11.5791 19.9862 11.8235C19.2008 12.0773 19.0284 12.8221 19.3134 12.9648C19.5729 13.0899 19.9883 13.2393 20.444 13.3901C20.6887 13.4601 21.1981 13.8503 21.1778 14.099C21.14 14.5871 20.5953 14.8181 19.5761 14.9642C18.8218 15.0742 19.2445 17.1194 19.2445 17.1194C19.2445 17.1194 19.5898 17.7273 21.5043 17.9392C24.4246 18.2658 26.759 17.5797 26.8727 15.7592C26.958 14.4295 27.4858 12.7275 27.7577 11.9195C27.9771 11.4019 28.4789 10.6801 29.5087 10.9239C30.7389 11.2148 30.6993 12.5984 30.0991 13.7706C29.7937 14.3755 29.2706 14.5313 28.8349 14.5593C28.8241 14.6682 28.8106 14.7865 28.7918 14.9237C28.5382 16.7347 29.9781 17.0042 30.2927 17.0433C32.8111 16.9597 34.1311 14.5884 35.123 12.2964C36.6708 8.73795 34.2172 4.78795 30.57 3.47952L30.5821 3.47279Z" fill="url(#paint7_linear_129_355)"/>
<path opacity="0.85" d="M23.0323 20.6843L27.8286 45.6158L33.9269 20.8801C29.8745 20.283 26.194 20.3124 23.0225 20.6746L23.0323 20.6843Z" fill="url(#paint8_linear_129_355)"/>
<path d="M2.62055 75.2346L8.63072 75.9394C8.63072 75.9394 10.8332 66.1997 11.8218 56.0001L20.1029 36.9418C20.1029 36.9418 21.2678 27.8188 16.256 24.7256C11.2443 21.6324 8.72861 26.0471 8.72861 26.0471C8.72861 26.0471 2.25838 36.0999 1.11312 50.4793C-0.032141 64.8587 2.62055 75.2346 2.62055 75.2346Z" fill="white"/>
<path d="M10.5488 24.336C10.5488 24.336 25.633 15.5165 45.7974 24.336L42.9881 55.5028L43.6048 70.7631L12.7708 72.4663L13.3288 56.5306L10.5488 24.336Z" fill="white"/>
<path d="M45.7987 24.3345C45.7987 24.3345 56.0865 31.4018 60.3445 49.5987L52.1221 61.0514C52.1221 61.0514 46.4154 45.8986 43.332 42.5216C40.2486 39.1445 45.7987 24.3345 45.7987 24.3345Z" fill="white"/>
<path d="M42.6211 69.0591C42.6211 69.0591 49.0032 50.3825 49.8842 47.1523C50.7652 43.9221 60.2797 49.1394 60.2797 49.1394C60.2797 49.1394 60.6418 65.0066 42.6505 77.4968L42.6113 69.0591H42.6211Z" fill="white"/>
<path opacity="0.7" d="M60.3445 49.5987C60.3249 49.5106 60.2956 49.4323 60.276 49.354C60.276 49.217 60.276 49.1387 60.276 49.1387L60.2075 49.0995C55.8809 31.2843 45.7987 24.3345 45.7987 24.3345C45.7987 24.3345 40.2486 39.1445 43.332 42.5216C44.7318 44.0584 46.6797 48.0326 48.3829 51.9088C46.2196 58.5259 42.6174 69.0584 42.6174 69.0584L42.6566 77.4961C58.6315 66.3959 60.1292 52.6528 60.2662 49.7162L60.3445 49.6085V49.5987Z" fill="url(#paint9_linear_129_355)"/>
<path opacity="0.7" d="M10.5522 24.3354C10.5522 24.3354 10.8948 24.1396 11.5409 23.8264C9.67127 24.4039 8.72178 26.0386 8.72178 26.0386C8.72178 26.0386 2.25154 36.0914 1.10628 50.4708C-0.0389783 64.8502 2.61373 75.2261 2.61373 75.2261L8.6239 75.9309C8.6239 75.9309 10.8263 66.1913 11.815 55.9916L13.0385 53.1725L10.5425 24.3354H10.5522Z" fill="url(#paint10_linear_129_355)"/>
<path opacity="0.8" d="M42.6318 70.8109V69.049C42.6318 69.049 42.945 68.1093 43.4442 66.6312L42.9939 55.4918L44.0805 43.4813C43.826 43.1093 43.5715 42.7667 43.3463 42.5122C40.2629 39.1352 45.8131 24.325 45.8131 24.325C25.6486 15.5056 10.5645 24.325 10.5645 24.325L13.3444 56.5196L12.7865 72.4554L42.6318 70.8011V70.8109Z" fill="url(#paint11_linear_129_355)"/>
<defs>
<linearGradient id="paint0_linear_129_355" x1="35.709" y1="134.104" x2="41.2591" y2="134.104" gradientUnits="userSpaceOnUse">
<stop stop-color="#F8C9C6"/>
<stop offset="1" stop-color="#F26F56"/>
</linearGradient>
<linearGradient id="paint1_linear_129_355" x1="14.0479" y1="134.035" x2="20.0189" y2="134.035" gradientUnits="userSpaceOnUse">
<stop stop-color="#F8C9C6"/>
<stop offset="1" stop-color="#F26F56"/>
</linearGradient>
<linearGradient id="paint2_linear_129_355" x1="43.8034" y1="100.117" x2="8.61977" y2="98.6864" gradientUnits="userSpaceOnUse">
<stop stop-color="#CEDDFE"/>
<stop offset="1" stop-color="#7399EF"/>
</linearGradient>
<linearGradient id="paint3_linear_129_355" x1="10.3874" y1="138.303" x2="20.9101" y2="138.303" gradientUnits="userSpaceOnUse">
<stop stop-color="#444B8B"/>
<stop offset="0.27" stop-color="#3E4480"/>
<stop offset="0.73" stop-color="#2F3262"/>
<stop offset="1" stop-color="#26264F"/>
</linearGradient>
<linearGradient id="paint4_linear_129_355" x1="34.9953" y1="138.303" x2="45.518" y2="138.303" gradientUnits="userSpaceOnUse">
<stop stop-color="#444B8B"/>
<stop offset="0.27" stop-color="#3E4480"/>
<stop offset="0.73" stop-color="#2F3262"/>
<stop offset="1" stop-color="#26264F"/>
</linearGradient>
<linearGradient id="paint5_linear_129_355" x1="1.77064" y1="70.5476" x2="9.87557" y2="70.5476" gradientUnits="userSpaceOnUse">
<stop stop-color="#F8C9C6"/>
<stop offset="1" stop-color="#F26F56"/>
</linearGradient>
<linearGradient id="paint6_linear_129_355" x1="18.0959" y1="14.49" x2="33.1438" y2="18.7962" gradientUnits="userSpaceOnUse">
<stop stop-color="#F8C9C6"/>
<stop offset="1" stop-color="#F26F56"/>
</linearGradient>
<linearGradient id="paint7_linear_129_355" x1="20.2661" y1="8.81818" x2="34.9584" y2="13.0226" gradientUnits="userSpaceOnUse">
<stop stop-color="#331809"/>
<stop offset="0.1" stop-color="#331809"/>
<stop offset="0.19" stop-color="#3D1C08"/>
<stop offset="0.66" stop-color="#6C3406"/>
<stop offset="0.9" stop-color="#7F3D06"/>
<stop offset="1" stop-color="#7F3D06"/>
</linearGradient>
<linearGradient id="paint8_linear_129_355" x1="23.0322" y1="33.0179" x2="33.9269" y2="33.0179" gradientUnits="userSpaceOnUse">
<stop stop-color="#05C8FF"/>
<stop offset="0.84" stop-color="#18D4A7"/>
</linearGradient>
<linearGradient id="paint9_linear_129_355" x1="60.3481" y1="50.9241" x2="42.4013" y2="50.9241" gradientUnits="userSpaceOnUse">
<stop stop-color="#530085"/>
<stop offset="0.1" stop-color="#530085"/>
<stop offset="0.9" stop-color="#0052F2"/>
<stop offset="1" stop-color="#0052F2"/>
</linearGradient>
<linearGradient id="paint10_linear_129_355" x1="13.0409" y1="49.8873" x2="0.820608" y2="49.8873" gradientUnits="userSpaceOnUse">
<stop stop-color="#530085"/>
<stop offset="0.1" stop-color="#530085"/>
<stop offset="0.9" stop-color="#0052F2"/>
<stop offset="1" stop-color="#0052F2"/>
</linearGradient>
<linearGradient id="paint11_linear_129_355" x1="45.82" y1="46.439" x2="10.5681" y2="46.439" gradientUnits="userSpaceOnUse">
<stop stop-color="#530085"/>
<stop offset="0.1" stop-color="#530085"/>
<stop offset="0.9" stop-color="#0052F2"/>
<stop offset="1" stop-color="#0052F2"/>
</linearGradient>
</defs>
</svg>
