<svg width="62" height="144" viewBox="0 0 62 144" fill="none" xmlns="http://www.w3.org/2000/svg">
<path d="M0.0110945 78.5053C0.149207 79.1614 0.690179 78.5686 0.690179 78.5686C0.690179 78.5686 2.43961 76.8422 2.923 76.6926C2.72159 76.894 0.66716 79.0175 0.546312 80.2663C0.546312 80.2663 0.718896 81.1122 1.35191 80.1799C1.97917 79.2534 3.70563 77.4407 3.70563 77.4407L3.79197 77.5558C3.79197 77.5558 0.885802 80.8014 1.15627 81.6128C1.42099 82.4185 2.35329 81.1985 2.35329 81.1985C2.35329 81.1985 3.62506 79.0808 4.48826 78.3154L4.59181 78.2982C4.59181 78.2982 2.60072 81.0834 2.61223 81.7912C2.62373 82.4991 2.84815 82.5163 3.0956 82.1653C3.34305 81.8143 5.27085 79.1613 5.73698 78.8851C5.86359 78.8103 6.27799 78.6089 6.66931 78.396C6.55422 78.8506 6.39881 79.334 6.20891 79.616C5.37448 80.8417 6.38158 81.446 6.38158 81.446C6.52544 80.6345 7.21025 79.921 7.81449 79.1959C7.81449 79.1959 8.22883 78.5916 8.39572 78.0161C8.5626 77.4349 9.4488 74.1548 9.4488 74.1548C9.4488 74.1548 9.43726 74.126 9.42 74.08C11.4399 71.4558 16.8839 63.2554 16.8839 63.2554C16.8839 63.2554 19.2548 62.3864 16.2278 58.8416L12.2801 62.2886L11.7967 63.6928C11.7967 63.6928 9.84585 67.8361 6.98002 72.6125C6.56568 72.6931 6.1053 72.86 5.67945 73.2052C4.27531 74.3504 2.67552 75.4899 2.67552 75.4899C2.67552 75.4899 -0.138533 77.8723 0.00533418 78.5283L0.0110945 78.5053ZM3.01503 76.6696C3.01503 76.6696 3.02079 76.6696 3.02655 76.6696C3.0956 76.6926 3.05531 76.6811 3.01503 76.6696Z" fill="url(#paint0_linear_128_151)"/>
<path d="M12.8673 57.225C13.3737 55.89 14.0931 54.6412 15.0081 53.542L16.1533 52.1551C16.1533 52.1551 17.6553 44.6971 19.5428 38.2806C20.2334 35.6277 21.0103 33.1589 21.8447 31.4785C22.5928 29.9651 23.5826 29.0846 24.6415 28.5897C27.6512 27.0359 31.2766 28.8889 31.2766 28.8889C33.9755 29.8385 32.8419 31.8468 31.7945 33.8265C29.907 37.3886 23.5941 51.4703 23.0705 52.6443L23.151 52.6558C23.151 52.6558 22.9208 54.3132 20.7283 58.7903C17.9027 64.5565 11.1295 73.9367 11.1295 73.9367L7.6709 71.0075L12.8731 57.225H12.8673Z" fill="white"/>
<path opacity="0.8" d="M12.8673 57.225C13.3737 55.89 14.0931 54.6412 15.0081 53.542L16.1533 52.1551C16.1533 52.1551 17.6553 44.6971 19.5428 38.2806C20.2334 35.6277 21.0103 33.1589 21.8447 31.4785C22.5928 29.9651 23.5826 29.0846 24.6415 28.5897C27.6512 27.0359 31.2766 28.8889 31.2766 28.8889C33.9755 29.8385 32.8419 31.8468 31.7945 33.8265C29.907 37.3886 23.5941 51.4703 23.0705 52.6443L23.151 52.6558C23.151 52.6558 22.9208 54.3132 20.7283 58.7903C17.9027 64.5565 11.1295 73.9367 11.1295 73.9367L7.6709 71.0075L12.8731 57.225H12.8673Z" fill="url(#paint1_linear_128_151)"/>
<path d="M38.7001 140.732C38.7001 140.732 42.3371 138.13 43.1773 135.385C43.2406 135.19 43.3212 135.034 43.419 134.902C43.7412 133.279 43.9081 131.725 43.9081 131.725C43.9081 131.725 50.0138 128.474 49.5822 131.605C49.2082 134.332 48.6154 137.261 49.0068 138.061C49.0068 138.061 48.955 138.067 48.8802 138.079L48.955 138.574L38.6943 140.72L38.7001 140.732Z" fill="url(#paint2_linear_128_151)"/>
<path d="M34.269 143.932L49.0988 143.713C49.0988 143.713 49.6743 143.466 49.7549 142.401C49.8239 141.48 49.1621 138.223 48.9779 137.36C48.9549 137.239 48.8226 137.17 48.7075 137.216C48.3967 137.337 47.8271 137.642 47.3724 138.378C46.7164 139.443 45.0763 137.722 44.7483 136.819C44.4202 135.915 43.0449 135.996 43.0449 135.996L36.5363 140.185L35.512 140.416C34.7869 140.577 34.1309 141.014 33.7741 141.664C33.4346 142.28 33.2792 143.276 34.269 143.937V143.932Z" fill="url(#paint3_linear_128_151)"/>
<path d="M13.4228 140.732C13.4228 140.732 17.0597 138.13 17.8998 135.385C17.9631 135.19 18.0437 135.034 18.1416 134.902C18.4638 133.279 18.6307 131.725 18.6307 131.725C18.6307 131.725 24.7364 128.474 24.3048 131.605C23.9308 134.332 23.338 137.261 23.7294 138.061C23.7294 138.061 23.6776 138.067 23.6028 138.079L23.6776 138.574L13.417 140.72L13.4228 140.732Z" fill="url(#paint4_linear_128_151)"/>
<path d="M8.9936 143.932L23.8234 143.713C23.8234 143.713 24.3989 143.466 24.4795 142.401C24.5485 141.48 23.8868 138.223 23.7026 137.36C23.6796 137.239 23.5472 137.17 23.4321 137.216C23.1213 137.337 22.5517 137.642 22.097 138.378C21.441 139.443 19.801 137.722 19.4729 136.819C19.1449 135.915 17.7695 135.996 17.7695 135.996L11.261 140.185L10.2366 140.416C9.51155 140.577 8.8555 141.014 8.49871 141.664C8.15918 142.28 8.0038 143.276 8.9936 143.937V143.932Z" fill="url(#paint5_linear_128_151)"/>
<path d="M32.9043 20.8849L34.6077 27.9056L42.083 26.7029L36.7254 15.792L32.9043 20.8849Z" fill="url(#paint6_linear_128_151)"/>
<path d="M19.8529 104.016C19.8529 92.0006 21.3319 77.3607 23.392 68.3891L23.4036 68.3546H23.392C23.8237 66.5188 26.655 59.0032 27.2305 57.7832L27.5527 57.7659L27.8519 57.0006C29.2964 56.7589 30.5452 57.0006 31.6213 57.5761L45.7145 56.92C47.487 59.078 48.7472 61.3626 49.6565 63.4573C51.5843 67.2727 53.4546 72.4634 53.0633 77.8038C51.8778 94.0493 50.0708 133.877 50.0708 133.877L41.8128 133.78L36.202 83.5297L31.3623 103.429C31.4428 106.773 31.3162 113.304 29.6359 120.158C28.1684 126.143 24.5832 134.378 24.5832 134.378L17.1885 133.124L19.8471 104.022L19.8529 104.016Z" fill="url(#paint7_linear_128_151)"/>
<path d="M34.6645 65.8167L34.7278 65.949C34.7278 65.949 32.3109 66.582 31.1945 66.6914C30.0781 66.795 30.7341 67.3532 30.7341 67.3532C31.8793 67.8481 34.7336 67.0712 35.0098 66.9906C34.6473 67.3417 32.2878 68.0438 32.2878 68.0438C32.2878 68.0438 31.5109 68.2279 32.0174 68.671C32.5238 69.1083 35.9651 67.7905 35.9651 67.7905C35.9651 67.7905 37.7318 66.9388 39.4121 66.2598C39.9646 66.0353 40.3444 65.6728 40.6207 65.3275L42.3643 64.8672L41.1789 61.5927L39.9301 62.22C39.8437 62.1049 39.7689 62.0243 39.7689 62.0243C39.7689 62.0243 36.4657 61.2129 35.8787 61.0806C35.2918 60.9482 34.561 61.023 34.561 61.023C33.6345 61.2072 32.6792 61.4604 31.8965 61.1957C31.8965 61.1957 31.9426 62.3696 33.4158 62.2315C34.0488 62.1739 35.263 62.571 35.6313 62.6976C35.1709 62.9681 34.607 63.3709 34.4458 63.4688C33.9797 63.745 30.7226 64.1593 30.2967 64.2053C29.8709 64.2514 29.7731 64.4528 30.3888 64.8096C31.0046 65.1607 34.4056 64.7578 34.4056 64.7578L34.3423 64.8441C33.2546 65.2297 30.7858 65.3218 30.7858 65.3218C30.7858 65.3218 29.2666 65.552 29.8421 66.1677C30.4233 66.7892 34.6645 65.8109 34.6645 65.8109V65.8167ZM35.0674 66.9273C35.0789 66.8871 35.0904 66.8525 35.0731 66.9216C35.0731 66.9216 35.0674 66.9216 35.0674 66.9273Z" fill="url(#paint8_linear_128_151)"/>
<path d="M36.6363 18.8773C36.6363 18.8773 36.7943 19.3912 38.0798 18.0041C39.3641 16.6231 39.0718 15.4782 37.8728 15.1879C36.6724 14.9038 36.0048 15.2166 36.0048 15.2166C36.0048 15.2166 31.3983 10.7746 34.8844 6.94844C37.1898 6.1938 39.7657 6.4705 41.9303 7.97287C45.6064 10.5293 46.1709 14.8312 43.5125 18.6599C40.8542 22.4885 34.7629 22.3529 31.0868 19.7964C31.0696 19.7865 34.1738 19.9915 34.8257 19.5984C36.1679 18.7815 36.6375 18.8711 36.6375 18.8711L36.6363 18.8773Z" fill="url(#paint9_linear_128_151)"/>
<path d="M27.8741 14.1775C28.3795 13.9984 28.7652 13.8077 29.0537 13.5906C30.3359 12.6587 29.9284 11.3553 31.0711 9.6308C32.0386 8.16579 34.0881 7.24962 34.7097 7.00442C34.7653 6.98369 34.8271 6.96423 34.8889 6.94477C31.4028 10.771 36.0093 15.2129 36.0093 15.2129C36.0093 15.2129 37.2634 13.4149 38.684 14.3798C39.711 15.0715 39.705 16.9836 38.3986 18.3472C37.3711 19.4147 36.3344 18.6761 36.3344 18.6761C36.3344 18.6761 35.4453 21.1074 33.9946 21.3564C33.4884 21.4454 32.674 21.4714 31.8277 21.4652C30.2561 21.4582 28.7786 21.3677 28.7786 21.3677C27.5702 21.2168 27.4291 20.4945 27.4756 20.016C27.4963 19.7891 27.58 19.5686 27.6981 19.3681L28.0039 18.8463C28.0039 18.8463 27.9459 18.8473 27.5823 18.4904C27.1598 18.0765 28.0197 17.514 28.0197 17.514C27.3942 17.2448 27.2866 16.7348 27.8059 16.4879C28.3251 16.241 28.146 15.7356 28.146 15.7356C26.985 14.6633 27.8877 14.1739 27.8877 14.1739L27.8741 14.1775Z" fill="url(#paint10_linear_128_151)"/>
<path d="M34.6117 7.24079C34.6117 7.24079 31.3034 10.731 36.0097 15.2191L34.9177 6.93743C34.6114 7.02242 34.9208 7.07932 34.6055 7.23953L34.6117 7.24079Z" fill="url(#paint11_linear_128_151)"/>
<path d="M36.5742 6.596C34.9233 6.63062 32.5389 6.86184 31.0159 9.22127L32.3622 10.2352C32.3622 10.2352 33.2537 7.29062 36.5742 6.596Z" fill="url(#paint12_linear_128_151)"/>
<path d="M44.9225 14.2436C44.0694 15.777 44.6233 17.7139 46.1629 18.5682C47.6963 19.4214 49.6331 18.8674 50.4875 17.3279C51.3406 15.7945 50.7867 13.8576 49.2471 13.0032C47.7138 12.1501 45.7769 12.7041 44.9225 14.2436Z" fill="url(#paint13_linear_128_151)"/>
<path d="M40.199 5.35987C39.7704 6.85812 40.6332 8.41517 42.1302 8.8499C43.6285 9.27848 45.1855 8.41564 45.6203 6.91865C46.0489 5.4204 45.186 3.86338 43.689 3.42864C42.1908 3.00007 40.6337 3.86288 40.199 5.35987Z" fill="url(#paint14_linear_128_151)"/>
<path d="M42.2457 26.3743L37.9815 25.1831L33.6885 26.4089C33.6885 26.4089 34.3503 30.7997 42.2457 26.3743Z" fill="url(#paint15_linear_128_151)"/>
<path d="M26.5117 57.9906L24.9924 44.939C24.2213 43.5348 23.4041 40.8359 24.2673 38.0333C24.8773 36.0537 26.9375 27.9454 26.9375 27.9454L33.8547 26.3916C33.5439 28.6647 38.1649 27.6979 42.2334 26.3916L49.0873 28.3942C49.0873 28.3942 50.5145 37.3428 47.4472 52.4316V58.0021H27.7259L27.6453 58.0251H26.5174V58.0021L26.5117 57.9906Z" fill="white"/>
<path opacity="0.8" d="M26.5117 57.9906L24.9924 44.939C24.2213 43.5348 23.4041 40.8359 24.2673 38.0333C24.8773 36.0537 26.9375 27.9454 26.9375 27.9454L33.8547 26.3916C33.5439 28.6647 38.1649 27.6979 42.2334 26.3916L49.0873 28.3942C49.0873 28.3942 50.5145 37.3428 47.4472 52.4316V58.0021H27.7259L27.6453 58.0251H26.5174V58.0021L26.5117 57.9906Z" fill="url(#paint16_linear_128_151)"/>
<path d="M53.7876 53.0813L47.4863 40.4958C47.4863 40.4958 42.2035 32.773 46.9108 29.3145C46.9108 29.3145 51.0714 26.4198 54.1617 32.0767C60.5436 43.776 61.1019 52.2584 61.1192 54.6581C61.1192 54.802 61.0616 54.9228 60.9868 55.0264C60.9062 55.9644 60.6357 56.9139 60.2099 57.7369C59.9509 58.2433 59.6805 58.6058 59.4561 58.7094L53.5633 61.4429L42.1114 65.5748L40.8281 61.1494C40.8281 61.1494 47.8776 55.4293 53.7934 53.0813H53.7876Z" fill="white"/>
<path opacity="0.8" d="M53.7876 53.0813L47.4863 40.4958C47.4863 40.4958 42.2035 32.773 46.9108 29.3145C46.9108 29.3145 51.0714 26.4198 54.1617 32.0767C60.5436 43.776 61.1019 52.2584 61.1192 54.6581C61.1192 54.802 61.0616 54.9228 60.9868 55.0264C60.9062 55.9644 60.6357 56.9139 60.2099 57.7369C59.9509 58.2433 59.6805 58.6058 59.4561 58.7094L53.5633 61.4429L42.1114 65.5748L40.8281 61.1494C40.8281 61.1494 47.8776 55.4293 53.7934 53.0813H53.7876Z" fill="url(#paint17_linear_128_151)"/>
<defs>
<linearGradient id="paint0_linear_128_151" x1="17.7759" y1="70.6041" x2="0.00533416" y2="70.6041" gradientUnits="userSpaceOnUse">
<stop stop-color="#A8316D"/>
<stop offset="1" stop-color="#792D3D"/>
</linearGradient>
<linearGradient id="paint1_linear_128_151" x1="7.66388" y1="50.9591" x2="32.9426" y2="50.9591" gradientUnits="userSpaceOnUse">
<stop stop-color="#0057D2"/>
<stop offset="0.1" stop-color="#0057D2"/>
<stop offset="0.39" stop-color="#0085E4"/>
<stop offset="0.73" stop-color="#00B4F7"/>
<stop offset="0.9" stop-color="#00C7FF"/>
<stop offset="1" stop-color="#00C7FF"/>
</linearGradient>
<linearGradient id="paint2_linear_128_151" x1="49.6053" y1="135.489" x2="38.7001" y2="135.489" gradientUnits="userSpaceOnUse">
<stop stop-color="#A8316D"/>
<stop offset="1" stop-color="#792D3D"/>
</linearGradient>
<linearGradient id="paint3_linear_128_151" x1="49.7549" y1="139.961" x2="33.5151" y2="139.961" gradientUnits="userSpaceOnUse">
<stop stop-color="#444B89"/>
<stop offset="0.27" stop-color="#3E437E"/>
<stop offset="0.75" stop-color="#2F3160"/>
<stop offset="1" stop-color="#26264F"/>
</linearGradient>
<linearGradient id="paint4_linear_128_151" x1="24.3278" y1="135.489" x2="13.4227" y2="135.489" gradientUnits="userSpaceOnUse">
<stop stop-color="#A8316D"/>
<stop offset="1" stop-color="#792D3D"/>
</linearGradient>
<linearGradient id="paint5_linear_128_151" x1="24.4795" y1="139.961" x2="8.23974" y2="139.961" gradientUnits="userSpaceOnUse">
<stop stop-color="#444B89"/>
<stop offset="0.27" stop-color="#3E437E"/>
<stop offset="0.75" stop-color="#2F3160"/>
<stop offset="1" stop-color="#26264F"/>
</linearGradient>
<linearGradient id="paint6_linear_128_151" x1="42.0772" y1="21.8459" x2="32.9043" y2="21.8459" gradientUnits="userSpaceOnUse">
<stop stop-color="#A8316D"/>
<stop offset="1" stop-color="#792D3D"/>
</linearGradient>
<linearGradient id="paint7_linear_128_151" x1="53.685" y1="93.0649" x2="12.4838" y2="91.4321" gradientUnits="userSpaceOnUse">
<stop stop-color="#CEDDFE"/>
<stop offset="1" stop-color="#7399EF"/>
</linearGradient>
<linearGradient id="paint8_linear_128_151" x1="42.3585" y1="64.8844" x2="29.704" y2="64.8844" gradientUnits="userSpaceOnUse">
<stop stop-color="#A8316D"/>
<stop offset="1" stop-color="#792D3D"/>
</linearGradient>
<linearGradient id="paint9_linear_128_151" x1="44.9297" y1="15.6881" x2="32.45" y2="13.1344" gradientUnits="userSpaceOnUse">
<stop stop-color="#444B89"/>
<stop offset="1" stop-color="#26264F"/>
</linearGradient>
<linearGradient id="paint10_linear_128_151" x1="39.5217" y1="15.7455" x2="27.8124" y2="13.3494" gradientUnits="userSpaceOnUse">
<stop stop-color="#A8316D"/>
<stop offset="1" stop-color="#792D3D"/>
</linearGradient>
<linearGradient id="paint11_linear_128_151" x1="36.8004" y1="11.355" x2="33.3123" y2="10.6412" gradientUnits="userSpaceOnUse">
<stop stop-color="#444B89"/>
<stop offset="1" stop-color="#26264F"/>
</linearGradient>
<linearGradient id="paint12_linear_128_151" x1="36.1328" y1="8.75299" x2="31.3135" y2="7.76685" gradientUnits="userSpaceOnUse">
<stop stop-color="#444B89"/>
<stop offset="1" stop-color="#26264F"/>
</linearGradient>
<linearGradient id="paint13_linear_128_151" x1="50.8197" y1="16.4263" x2="44.5829" y2="15.1501" gradientUnits="userSpaceOnUse">
<stop stop-color="#444B89"/>
<stop offset="1" stop-color="#26264F"/>
</linearGradient>
<linearGradient id="paint14_linear_128_151" x1="45.6693" y1="6.71039" x2="40.1412" y2="5.57922" gradientUnits="userSpaceOnUse">
<stop stop-color="#444B89"/>
<stop offset="1" stop-color="#26264F"/>
</linearGradient>
<linearGradient id="paint15_linear_128_151" x1="42.2399" y1="26.7656" x2="33.6827" y2="26.7656" gradientUnits="userSpaceOnUse">
<stop stop-color="#A8316D"/>
<stop offset="1" stop-color="#792D3D"/>
</linearGradient>
<linearGradient id="paint16_linear_128_151" x1="23.8904" y1="42.2127" x2="49.4118" y2="42.2127" gradientUnits="userSpaceOnUse">
<stop stop-color="#0057D2"/>
<stop offset="0.1" stop-color="#0057D2"/>
<stop offset="0.39" stop-color="#0085E4"/>
<stop offset="0.73" stop-color="#00B4F7"/>
<stop offset="0.9" stop-color="#00C7FF"/>
<stop offset="1" stop-color="#00C7FF"/>
</linearGradient>
<linearGradient id="paint17_linear_128_151" x1="40.8225" y1="47.0794" x2="61.1135" y2="47.0794" gradientUnits="userSpaceOnUse">
<stop stop-color="#0057D2"/>
<stop offset="0.1" stop-color="#0057D2"/>
<stop offset="0.39" stop-color="#0085E4"/>
<stop offset="0.73" stop-color="#00B4F7"/>
<stop offset="0.9" stop-color="#00C7FF"/>
<stop offset="1" stop-color="#00C7FF"/>
</linearGradient>
</defs>
</svg>
