<svg width="134" height="130" viewBox="0 0 134 130" fill="none" xmlns="http://www.w3.org/2000/svg">
<path fill-rule="evenodd" clip-rule="evenodd" d="M58.0759 64.7242C57.9793 54.9721 56.3843 44.918 53.4146 37.6194L47.1172 44.3309C50.9859 50.4244 54.0512 57.3398 54.558 65.3615L54.5647 65.3621L54.554 65.3663C54.6599 65.9491 54.5116 66.5409 54.3659 67.1224C54.3416 67.2192 54.3174 67.3158 54.2945 67.4119C54.14 68.0855 54.0596 68.8457 54.4428 69.4266C54.5812 69.6374 54.7708 69.8081 54.9603 69.9787C55.1431 70.1433 55.3259 70.3078 55.4624 70.5081C55.6361 70.7633 55.7285 71.0593 55.8212 71.3562C55.89 71.5769 55.9591 71.7982 56.0619 72.0037C56.3029 72.4857 56.9024 72.8936 57.3597 72.6093C57.5698 72.4795 57.681 72.2385 57.7861 72.0098C58.367 70.712 58.9542 69.3772 59.053 67.9619C59.1333 66.8075 58.8264 65.5716 58.0759 64.7242Z" fill="url(#paint0_linear_124_6339)"/>
<path d="M34.1732 20.5244L34.4574 29.677C38.7031 33.4777 42.8437 38.8853 46.6011 44.8057L54.9072 37.6184C47.5468 23.9358 41.1937 21.2228 34.167 20.5244H34.1732Z" fill="white"/>
<path opacity="0.8" d="M34.1712 20.5232L34.4555 29.6758C38.7012 33.4765 42.8417 38.884 46.5992 44.8045L54.9052 37.6171C47.5448 23.9346 41.1917 21.2215 34.165 20.5232H34.1712Z" fill="url(#paint1_linear_124_6339)"/>
<path d="M111.213 115.16L56.4395 68.6805L56.8102 68.2417L111.59 114.722L111.213 115.16Z" fill="url(#paint2_linear_124_6339)"/>
<path d="M70.8385 109.298C70.0907 111.165 69.6024 113.13 69.3861 115.132C69.3058 115.868 69.4355 116.844 70.1648 116.986C70.7581 117.104 71.2401 116.529 71.5553 116.016C73.7059 112.518 74.9976 108.495 75.2942 104.397C73.743 105.337 72.3773 106.573 71.2896 108.025L70.8323 109.304L70.8385 109.298Z" fill="url(#paint3_linear_124_6339)"/>
<path d="M8.33977 125.581C6.05316 125.359 3.76664 125.136 1.47386 124.914C1.12159 124.877 0.725971 124.852 0.44169 125.068C-0.00327149 125.396 0.0770808 126.125 0.454062 126.527C0.831043 126.929 1.3935 127.077 1.92498 127.213C5.16949 128.041 8.414 128.863 11.6523 129.691C12.3507 129.87 13.0613 130.05 13.772 129.988C14.4889 129.932 15.2181 129.592 15.5642 128.962C15.9103 128.332 15.7126 127.405 15.0513 127.114L8.3274 125.581H8.33977Z" fill="url(#paint4_linear_124_6339)"/>
<path d="M34.8009 15.0171H30.4688V20.8881H34.8009V15.0171Z" fill="url(#paint5_linear_124_6339)"/>
<path d="M38.3912 15.3938C35.8978 18.6937 30.8073 19.4072 27.6954 17.0363C24.5774 14.6644 24.6172 10.0999 27.1096 6.80617C29.603 3.50628 34.1502 2.75901 37.2681 5.13085C40.3861 7.50269 40.8836 12.1 38.3902 15.3999L38.3912 15.3938Z" fill="url(#paint6_linear_124_6339)"/>
<path fill-rule="evenodd" clip-rule="evenodd" d="M36.7843 18.2316C36.372 18.4118 35.9605 18.5918 35.5151 18.6558L35.5212 18.6568C34.665 18.7809 33.8258 18.7196 33.0656 18.3193L33.8897 13.3422C34.4338 13.7277 35.3363 13.2345 35.3056 12.5649C35.2883 12.0946 34.8176 11.7555 34.3636 11.7475C34.1794 12.0536 33.9446 12.3433 33.6242 12.4817C33.2827 12.6293 32.8152 12.5504 32.6368 12.2219C33.1052 11.4737 33.556 10.6788 33.6274 9.80003C33.6826 9.11972 33.437 8.38144 32.9389 7.95315C32.6038 7.77421 32.2273 7.68413 31.8195 7.58655C31.5884 7.53125 31.3472 7.47354 31.0978 7.39588C30.2584 7.14009 29.423 6.85984 28.7147 6.32964C27.7944 5.64109 27.1724 4.49083 27.2989 3.34396C27.4254 2.19709 28.3933 1.13701 29.5432 1.08981C30.5398 1.04459 31.4042 1.69046 32.2123 2.2942C32.2659 2.3342 32.3191 2.37402 32.3722 2.41344C33.2538 3.07089 33.9466 3.22868 34.9882 3.39045C35.969 3.54277 36.9874 4.04587 37.8687 4.50886C39.4532 5.3382 40.8834 6.78328 41.4443 8.51354C42.0134 10.2702 41.0249 16.6705 37.4154 17.9726C37.2019 18.049 36.993 18.1403 36.7843 18.2316Z" fill="url(#paint7_linear_124_6339)"/>
<path d="M24.7259 9.71709C24.5808 10.1549 24.8112 10.6255 25.2431 10.7742C25.6761 10.9168 26.1448 10.6804 26.296 10.2435C26.4412 9.80576 26.2108 9.33516 25.7788 9.18642C25.3459 9.04384 24.8771 9.28025 24.7259 9.71709Z" fill="url(#paint8_linear_124_6339)"/>
<path d="M30.4875 20.8894C30.4875 20.8894 19.4004 26.0497 19.419 48.8602C19.419 51.4187 19.7527 61.5106 19.7527 61.5106H45.8942C45.8942 61.5106 47.8224 25.4503 34.8259 20.8894H30.4937H30.4875Z" fill="white"/>
<path opacity="0.8" d="M30.4845 20.8899C30.4845 20.8899 19.3975 26.0502 19.416 48.8607C19.416 51.4192 19.7498 61.5111 19.7498 61.5111H45.8913C45.8913 61.5111 47.8195 25.4507 34.8229 20.8899H30.4907H30.4845Z" fill="url(#paint9_linear_124_6339)"/>
<path d="M19.7925 61.419L7.5127 125.611L15.7198 128.553L31.8064 75.0027L43.3198 94.513C43.9193 95.5265 44.7844 96.3547 45.8226 96.8985L70.8085 110.099L75.9873 104.228L54.7219 90.323L46.039 61.4128H19.7925V61.419Z" fill="url(#paint10_linear_124_6339)"/>
<path d="M129.696 113.323C130.134 112.31 130.097 111.105 129.59 110.122C129.084 109.139 128.12 108.41 127.038 108.188C128.299 107.347 130.097 107.409 131.296 108.336C132.495 109.263 133.002 110.987 132.501 112.421C132.001 113.855 130.524 114.881 129.009 114.856L129.696 113.317V113.323Z" fill="url(#paint11_linear_124_6339)"/>
<path d="M117.272 120.034C116.321 119.187 114.992 118.971 113.774 118.588L113.91 119.848C114.287 120.096 114.825 120.435 114.924 120.534C115.344 120.961 115.678 121.467 115.906 122.018C116.141 122.574 116.228 123.13 116.283 123.729C116.345 124.378 116.222 124.823 116.11 125.454C116.061 125.732 116.11 126.053 116.333 126.226C116.518 126.368 116.778 126.374 117.007 126.325C118.273 126.053 118.539 123.878 118.502 122.833C118.465 121.789 118.057 120.738 117.278 120.04L117.272 120.034Z" fill="url(#paint12_linear_124_6339)"/>
<path d="M114.918 120.954C114.999 120.181 114.764 118.599 113.942 117.623L111.828 118.222C112.014 118.636 112.341 120.076 112.372 120.206C112.496 120.787 112.508 121.399 112.409 121.986C112.31 122.585 112.082 123.098 111.81 123.636C111.513 124.217 111.173 124.526 110.741 125.002C110.549 125.212 110.419 125.508 110.512 125.774C110.592 125.997 110.809 126.139 111.031 126.219C112.249 126.67 113.639 124.971 114.164 124.068C114.69 123.166 114.807 121.998 114.918 120.96V120.954Z" fill="url(#paint13_linear_124_6339)"/>
<path d="M125.465 119.594C124.952 120.397 124.773 121.361 125.533 122.146C125.91 122.535 126.398 122.795 126.831 123.116C127.232 123.413 127.566 123.512 127.591 124.093C127.634 125.082 127.133 126.077 126.305 126.627C126.101 126.763 125.86 126.905 125.829 127.146C125.786 127.449 126.114 127.677 126.417 127.745C128.054 128.122 129.605 125.978 129.636 124.513C129.673 122.857 128.536 121.164 129.241 119.532C129.018 120.045 129.902 120.972 130.174 121.343C130.582 121.899 131.231 122.412 131.558 123.011C131.762 123.395 131.756 123.864 131.614 124.272C131.472 124.68 131.206 125.038 130.909 125.354C130.767 125.508 130.607 125.675 130.563 125.885C130.495 126.256 130.854 126.596 131.225 126.627C131.595 126.658 131.954 126.466 132.244 126.231C133.035 125.601 133.517 124.624 133.604 123.617C133.709 122.455 133.196 121.615 132.689 120.626C131.948 119.167 131.589 117.517 131.663 115.88C131.682 115.534 131.688 115.126 131.416 114.909C131.12 114.674 130.681 114.823 130.341 114.996C128.215 116.09 126.416 117.82 125.255 119.909L125.465 119.581V119.594Z" fill="url(#paint14_linear_124_6339)"/>
<path d="M111.401 116.394C111.339 118.075 112.501 119.627 113.953 120.467C115.412 121.314 117.123 121.58 118.804 121.74C121.165 121.969 123.545 122.024 125.911 121.864C127.117 121.777 128.377 121.617 129.36 120.918C130.658 119.997 131.202 118.354 131.504 116.796C131.733 115.616 131.782 114.194 130.843 113.44C129.916 112.699 128.569 113.033 127.419 113.311C123.025 114.386 118.31 114.133 114.058 112.594L111.401 116.394Z" fill="url(#paint15_linear_124_6339)"/>
<path d="M109.54 109.553C108.619 110.313 108.656 111.691 107.433 112.099C106.846 112.297 106.209 112.297 105.616 112.47C105.022 112.643 104.429 113.069 104.355 113.687C104.306 114.132 104.547 114.565 104.886 114.855C105.22 115.146 105.641 115.319 106.055 115.485C107.445 116.035 108.879 116.536 110.368 116.623C111.858 116.715 113.434 116.357 114.546 115.362C115.943 114.126 116.387 111.481 115.201 109.954C114.051 108.477 110.949 108.385 109.54 109.553Z" fill="url(#paint16_linear_124_6339)"/>
<path d="M110.99 109.209C111.046 108.368 110.57 107.515 109.822 107.126C109.074 106.737 108.104 106.835 107.449 107.367C107.159 107.602 106.924 108.022 107.128 108.331C107.233 108.492 107.424 108.572 107.61 108.622C108.184 108.776 108.808 108.727 109.346 108.486C109.464 109.209 109.643 109.919 109.884 110.611L110.996 109.209H110.99Z" fill="url(#paint17_linear_124_6339)"/>
<path d="M113.34 109.209C113.285 108.368 113.76 107.515 114.508 107.126C115.256 106.737 116.226 106.835 116.881 107.367C117.172 107.602 117.407 108.022 117.203 108.331C117.098 108.492 116.906 108.572 116.721 108.622C116.146 108.776 115.528 108.727 114.984 108.486C114.867 109.209 114.687 109.919 114.446 110.611L113.334 109.209H113.34Z" fill="url(#paint18_linear_124_6339)"/>
<path d="M111.187 116.963L111.144 116.389C112.991 116.24 114.753 115.01 115.531 113.336L116.057 113.577C115.185 115.474 113.269 116.803 111.193 116.963H111.187Z" fill="#B5C3FB"/>
<defs>
<linearGradient id="paint0_linear_124_6339" x1="44.3075" y1="51.0008" x2="67.9915" y2="51.0008" gradientUnits="userSpaceOnUse">
<stop stop-color="#F26F56"/>
<stop offset="1" stop-color="#F8C9C6"/>
</linearGradient>
<linearGradient id="paint1_linear_124_6339" x1="54.9093" y1="32.6679" x2="34.1672" y2="32.6679" gradientUnits="userSpaceOnUse">
<stop stop-color="#530085"/>
<stop offset="0.1" stop-color="#530085"/>
<stop offset="0.9" stop-color="#0052F2"/>
<stop offset="1" stop-color="#0052F2"/>
</linearGradient>
<linearGradient id="paint2_linear_124_6339" x1="56.4426" y1="91.7033" x2="111.589" y2="91.7033" gradientUnits="userSpaceOnUse">
<stop stop-color="#444B8B"/>
<stop offset="0.99" stop-color="#26264F"/>
</linearGradient>
<linearGradient id="paint3_linear_124_6339" x1="69.3656" y1="110.7" x2="75.2941" y2="110.7" gradientUnits="userSpaceOnUse">
<stop stop-color="#444B8B"/>
<stop offset="0.99" stop-color="#26264F"/>
</linearGradient>
<linearGradient id="paint4_linear_124_6339" x1="0.139549" y1="127.445" x2="15.7317" y2="127.445" gradientUnits="userSpaceOnUse">
<stop stop-color="#444B8B"/>
<stop offset="0.99" stop-color="#26264F"/>
</linearGradient>
<linearGradient id="paint5_linear_124_6339" x1="29.45" y1="17.2564" x2="38.0373" y2="17.2564" gradientUnits="userSpaceOnUse">
<stop stop-color="#F26F56"/>
<stop offset="1" stop-color="#F8C9C6"/>
</linearGradient>
<linearGradient id="paint6_linear_124_6339" x1="22.4271" y1="7.74109" x2="50.7853" y2="12.2881" gradientUnits="userSpaceOnUse">
<stop stop-color="#F26F56"/>
<stop offset="1" stop-color="#F8C9C6"/>
</linearGradient>
<linearGradient id="paint7_linear_124_6339" x1="35.2529" y1="1.92838" x2="32.6992" y2="18.4459" gradientUnits="userSpaceOnUse">
<stop stop-color="#FFFB96"/>
<stop offset="1" stop-color="#FFD583"/>
</linearGradient>
<linearGradient id="paint8_linear_124_6339" x1="24.3393" y1="9.59835" x2="27.5803" y2="10.118" gradientUnits="userSpaceOnUse">
<stop stop-color="#F26F56"/>
<stop offset="1" stop-color="#F8C9C6"/>
</linearGradient>
<linearGradient id="paint9_linear_124_6339" x1="45.9975" y1="41.2072" x2="19.4188" y2="41.2072" gradientUnits="userSpaceOnUse">
<stop stop-color="#530085"/>
<stop offset="0.1" stop-color="#530085"/>
<stop offset="0.9" stop-color="#0052F2"/>
<stop offset="1" stop-color="#0052F2"/>
</linearGradient>
<linearGradient id="paint10_linear_124_6339" x1="77.0726" y1="92.7486" x2="8.28317" y2="90.6716" gradientUnits="userSpaceOnUse">
<stop stop-color="#CEDDFE"/>
<stop offset="1" stop-color="#7399EF"/>
</linearGradient>
<linearGradient id="paint11_linear_124_6339" x1="127.035" y1="111.226" x2="132.69" y2="111.226" gradientUnits="userSpaceOnUse">
<stop stop-color="#331809"/>
<stop offset="0.1" stop-color="#331809"/>
<stop offset="0.19" stop-color="#3D1C08"/>
<stop offset="0.66" stop-color="#6C3406"/>
<stop offset="0.9" stop-color="#7F3D06"/>
<stop offset="1" stop-color="#7F3D06"/>
</linearGradient>
<linearGradient id="paint12_linear_124_6339" x1="113.772" y1="122.47" x2="118.503" y2="122.47" gradientUnits="userSpaceOnUse">
<stop stop-color="#331809"/>
<stop offset="0.1" stop-color="#331809"/>
<stop offset="0.19" stop-color="#3D1C08"/>
<stop offset="0.66" stop-color="#6C3406"/>
<stop offset="0.9" stop-color="#7F3D06"/>
<stop offset="1" stop-color="#7F3D06"/>
</linearGradient>
<linearGradient id="paint13_linear_124_6339" x1="110.479" y1="121.958" x2="114.931" y2="121.958" gradientUnits="userSpaceOnUse">
<stop stop-color="#331809"/>
<stop offset="0.1" stop-color="#331809"/>
<stop offset="0.19" stop-color="#3D1C08"/>
<stop offset="0.66" stop-color="#6C3406"/>
<stop offset="0.9" stop-color="#7F3D06"/>
<stop offset="1" stop-color="#7F3D06"/>
</linearGradient>
<linearGradient id="paint14_linear_124_6339" x1="125.016" y1="121.288" x2="133.613" y2="121.288" gradientUnits="userSpaceOnUse">
<stop stop-color="#331809"/>
<stop offset="0.1" stop-color="#331809"/>
<stop offset="0.19" stop-color="#3D1C08"/>
<stop offset="0.66" stop-color="#6C3406"/>
<stop offset="0.9" stop-color="#7F3D06"/>
<stop offset="1" stop-color="#7F3D06"/>
</linearGradient>
<linearGradient id="paint15_linear_124_6339" x1="111.387" y1="117.274" x2="131.633" y2="117.274" gradientUnits="userSpaceOnUse">
<stop stop-color="#331809"/>
<stop offset="0.1" stop-color="#331809"/>
<stop offset="0.19" stop-color="#3D1C08"/>
<stop offset="0.66" stop-color="#6C3406"/>
<stop offset="0.9" stop-color="#7F3D06"/>
<stop offset="1" stop-color="#7F3D06"/>
</linearGradient>
<linearGradient id="paint16_linear_124_6339" x1="104.342" y1="112.694" x2="115.879" y2="112.694" gradientUnits="userSpaceOnUse">
<stop stop-color="#331809"/>
<stop offset="0.1" stop-color="#331809"/>
<stop offset="0.19" stop-color="#3D1C08"/>
<stop offset="0.66" stop-color="#6C3406"/>
<stop offset="0.9" stop-color="#7F3D06"/>
<stop offset="1" stop-color="#7F3D06"/>
</linearGradient>
<linearGradient id="paint17_linear_124_6339" x1="107.049" y1="108.75" x2="110.994" y2="108.75" gradientUnits="userSpaceOnUse">
<stop stop-color="#331809"/>
<stop offset="0.1" stop-color="#331809"/>
<stop offset="0.19" stop-color="#3D1C08"/>
<stop offset="0.66" stop-color="#6C3406"/>
<stop offset="0.9" stop-color="#7F3D06"/>
<stop offset="1" stop-color="#7F3D06"/>
</linearGradient>
<linearGradient id="paint18_linear_124_6339" x1="113.332" y1="108.75" x2="117.277" y2="108.75" gradientUnits="userSpaceOnUse">
<stop stop-color="#331809"/>
<stop offset="0.1" stop-color="#331809"/>
<stop offset="0.19" stop-color="#3D1C08"/>
<stop offset="0.66" stop-color="#6C3406"/>
<stop offset="0.9" stop-color="#7F3D06"/>
<stop offset="1" stop-color="#7F3D06"/>
</linearGradient>
</defs>
</svg>
