<svg width="51" height="141" viewBox="0 0 51 141" fill="none" xmlns="http://www.w3.org/2000/svg">
<path d="M32.7018 3.86419C32.7018 3.86419 37.6674 0.871981 40.3506 4.57872C43.9124 9.47443 38.6981 11.0226 41.8602 21.0875C44.9724 31.0225 36.7985 31.1208 36.7985 31.1208C37.9722 27.6105 31.363 26.3376 33.9058 19.0621C36.4148 11.8729 36.7902 5.05503 33.0796 5.45931C29.3716 5.8537 32.6991 3.87408 32.6991 3.87408L32.7018 3.86419Z" fill="url(#paint0_linear_129_392)"/>
<path d="M15.0464 133.936L15.3432 135.87L7.30957 136.023C7.30957 136.023 8.87536 135.43 9.69407 132.749C10.5128 130.067 15.0464 133.936 15.0464 133.936Z" fill="url(#paint1_linear_129_392)"/>
<path d="M24.564 133.077L23.8066 135.871L30.2131 136.024C30.2131 136.024 30.2745 135.43 29.4558 132.749C28.637 130.068 24.564 133.087 24.564 133.087V133.077Z" fill="url(#paint2_linear_129_392)"/>
<path d="M31.5442 57.4277L31.5647 57.3766H31.4828C29.1699 55.8313 26.7343 55.5856 24.6773 58.4L11.7928 60.3035C11.7928 60.3035 7.17727 72.2976 5.48867 87.2698C4.45504 96.4701 4.05592 97.4219 4.79276 102.437L8.55885 133.568L15.7021 133.763C15.7021 133.763 18.1787 108.679 17.0632 98.3736L22.1188 84.0666C22.3542 105.138 23.7357 132.923 23.7357 132.923C23.5515 133.108 30.8585 133.568 30.8585 133.568H31.0121L39.9463 68.2245C39.9463 68.2245 35.9755 60.457 31.5442 57.4175V57.4277Z" fill="url(#paint3_linear_129_392)"/>
<path d="M0.945366 140.823L15.4264 140.608C15.4264 140.608 15.9892 140.373 16.0711 139.329C16.153 138.285 15.2728 134.202 15.2728 134.202C15.2728 134.202 14.3927 134.366 13.748 135.409C13.1033 136.453 11.5068 134.765 11.1793 133.885C10.862 133.004 9.90004 133.004 9.90004 133.004L3.16613 137.17L2.1632 137.395C1.45706 137.558 0.812326 137.978 0.464373 138.613C0.126654 139.216 -0.0166214 140.189 0.945366 140.833V140.823Z" fill="url(#paint4_linear_129_392)"/>
<path d="M20.9112 140.823L30.5823 140.608C30.5823 140.608 31.1451 140.373 31.227 139.329C31.3089 138.285 30.4288 134.202 30.4288 134.202C30.4288 134.202 29.7329 133.874 29.6919 135.409C29.6612 136.637 28.8732 135.409 27.9829 133.885C27.5019 133.076 25.056 133.004 25.056 133.004L23.8995 133.639L22.8557 135.972C21.2694 137.211 19.9595 140.199 20.9215 140.833L20.9112 140.823Z" fill="url(#paint5_linear_129_392)"/>
<path d="M19.7129 14.8746L20.5418 21.3731L23.612 40.6334L28.9336 21.1173C25.3006 11.7635 24.707 9.78836 24.6252 9.05151L19.7129 14.8848V14.8746Z" fill="url(#paint6_linear_129_392)"/>
<path d="M36.5998 33.8073C36.1598 30.6041 35.515 23.8088 32.2095 21.5164L27.901 18.1699C24.708 20.0325 20.246 19.2138 20.246 19.2138L16.1422 21.7006C13.4814 23.2562 12.1612 33.5924 12.1612 33.5924L6.46094 67.7942L42.4024 68.4389L36.5896 33.8073H36.5998Z" fill="white"/>
<path opacity="0.8" d="M36.5998 33.8073C36.1598 30.6041 35.515 23.8088 32.2095 21.5164L27.901 18.1699C24.708 20.0325 20.246 19.2138 20.246 19.2138L16.1422 21.7006C13.4814 23.2562 12.1612 33.5924 12.1612 33.5924L6.46094 67.7942L42.4024 68.4389L36.5896 33.8073H36.5998Z" fill="url(#paint7_linear_129_392)"/>
<path d="M25.6907 12.4741C25.6907 12.4741 25.8516 12.941 27.0028 11.6496C28.164 10.3609 27.8738 9.30845 26.7633 9.06387C25.6528 8.81928 25.0519 9.12444 25.0519 9.12444C25.0519 9.12444 20.7428 5.11977 23.8836 1.54328C25.9861 0.814057 28.3558 1.02521 30.3813 2.36256C33.8059 4.64692 34.6545 9.38776 32.2711 12.9447C29.8976 16.5043 25.8999 16.1218 22.4753 13.8375C22.4555 13.8322 23.0154 14.7874 23.6026 14.415C24.827 13.6412 25.696 12.4543 25.696 12.4543L25.6907 12.4741Z" fill="url(#paint8_linear_129_392)"/>
<path d="M17.5579 8.30407C18.0176 8.13059 18.3632 7.94774 18.6298 7.7437C19.7865 6.86699 19.397 5.67135 20.4095 4.06735C21.2741 2.69918 23.1407 1.822 23.7106 1.59328C23.7679 1.57686 23.8154 1.5578 23.8754 1.53151C20.7445 5.11065 25.0437 9.11267 25.0437 9.11267C25.0437 9.11267 26.1691 7.44354 27.4878 8.29486C28.4456 8.91173 28.4731 10.6673 27.2923 11.9507C26.3668 12.9529 25.3999 12.2912 25.3999 12.2912C25.3999 12.2912 24.6272 14.5422 23.2972 14.8004C22.8291 14.8868 22.0861 14.9314 21.3115 14.9358C19.8638 14.961 18.5144 14.8961 18.5144 14.8961C17.5159 14.7875 17.2989 14.2526 17.2889 13.8155C17.2859 13.5499 17.3647 13.2955 17.4902 13.0643L17.7565 12.5847C17.7565 12.5847 17.7017 12.5912 17.3646 12.2678C16.9662 11.8961 17.7447 11.3631 17.7447 11.3631C17.1629 11.1224 17.0541 10.6589 17.5296 10.4261C18.0052 10.1933 17.8317 9.7336 17.8317 9.7336C16.7432 8.77444 17.5678 8.30672 17.5678 8.30672L17.5579 8.30407Z" fill="url(#paint9_linear_129_392)"/>
<path d="M23.6297 1.81537C23.6297 1.81537 20.6481 5.0743 25.0508 9.12524L23.9049 1.53948C23.6279 1.62419 23.9127 1.6687 23.627 1.82526L23.6297 1.81537Z" fill="url(#paint10_linear_129_392)"/>
<path d="M25.0771 1.23889C22.6519 1.66976 20.1501 2.82172 19.4248 6.24026L24.365 2.98696C24.365 2.98696 21.5565 2.59466 25.0771 1.23889Z" fill="url(#paint11_linear_129_392)"/>
<path d="M31.7077 53.7222C31.7077 53.7222 29.2925 54.5511 28.1054 54.5818L28.0133 54.5204C28.0133 54.5204 31.4416 53.6505 31.9022 53.0774C32.3627 52.5043 32.199 52.3508 31.7691 52.4634C31.3393 52.576 28.0542 53.3844 27.5016 53.2923C27.3481 53.2719 26.8875 53.1491 26.4373 53.057C26.8261 52.7704 27.2764 52.4941 27.6142 52.402C29.0878 51.9926 28.699 50.8464 28.699 50.8464C28.044 51.3888 27.0308 51.5014 26.0688 51.6651C26.0688 51.6651 25.3422 51.8596 24.8203 52.2075C24.2984 52.5555 21.4124 54.5613 21.4124 54.5613C21.4124 54.5613 21.003 55.595 21.4124 56.1885C21.4124 56.4853 21.4533 56.7719 21.5454 56.8537C21.8729 57.1608 22.6609 57.8055 23.756 57.826C25.6288 57.8567 27.6449 58.0306 27.6449 58.0306C27.6449 58.0306 31.4519 58.0306 31.7794 57.4166C32.1068 56.8026 31.2881 56.9151 31.2881 56.9151C31.2881 56.9151 28.7604 57.1096 28.2794 56.9151C28.699 56.8742 31.6361 56.557 32.5367 55.6768C32.5367 55.6768 32.9563 54.8991 31.8408 55.2061C30.7253 55.5233 28.1566 55.7996 28.1566 55.7996V55.6461C28.1566 55.6461 32.6185 55.0219 32.946 54.2032C33.2735 53.3947 31.7282 53.7324 31.7282 53.7324L31.7077 53.7222ZM28.1668 56.8537C28.1259 56.7821 28.1566 56.823 28.1668 56.8537V56.8537Z" fill="url(#paint12_linear_129_392)"/>
<path d="M33.6422 60.0572C33.6422 60.0572 31.7899 61.101 31.6364 61.1112C30.746 61.2034 29.4258 61.5104 28.0545 62.1039C25.6598 63.1273 24.4521 65.8495 24.4521 65.8495C24.4521 65.8495 24.6261 66.8218 25.2095 66.5455C25.2095 66.5455 25.322 67.6098 26.2431 67.3949C26.2431 67.3949 26.2226 68.4387 27.2358 68.4592C27.2358 68.4592 27.6042 69.3495 28.5048 68.8071C29.4054 68.2648 32.322 65.7677 32.322 65.7677L34.9317 62.6975C34.9317 62.6975 35.4331 59.8832 33.6524 60.0469L33.6422 60.0572Z" fill="url(#paint13_linear_129_392)"/>
<path d="M50.4672 48.7695V48.7491C50.2318 48.0532 49.9043 47.3368 49.5359 46.6102C47.6631 42.2505 43.5593 32.6204 42.8634 30.5327C41.9526 27.8105 39.0257 24.1877 33.6017 22.2637C33.2742 22.1511 32.9672 22.0283 32.6807 21.9055C35.5769 24.4947 36.1807 30.7681 36.6003 33.8076L37.8897 41.4728L42.3824 49.1687C37.7362 53.4669 32.9365 60.1394 32.9365 60.1394L34.8503 63.8236L44.9204 57.1102L49.9555 53.0678C50.5184 52.6175 50.8766 51.9932 50.7538 51.2769C50.897 50.4991 50.764 49.6497 50.4774 48.7695H50.4672Z" fill="white"/>
<path opacity="0.8" d="M50.4672 48.7695V48.7491C50.2318 48.0532 49.9043 47.3368 49.5359 46.6102C47.6631 42.2505 43.5593 32.6204 42.8634 30.5327C41.9526 27.8105 39.0257 24.1877 33.6017 22.2637C33.2742 22.1511 32.9672 22.0283 32.6807 21.9055C35.5769 24.4947 36.1807 30.7681 36.6003 33.8076L37.8897 41.4728L42.3824 49.1687C37.7362 53.4669 32.9365 60.1394 32.9365 60.1394L34.8503 63.8236L44.9204 57.1102L49.9555 53.0678C50.5184 52.6175 50.8766 51.9932 50.7538 51.2769C50.897 50.4991 50.764 49.6497 50.4774 48.7695H50.4672Z" fill="url(#paint14_linear_129_392)"/>
<path d="M10.5241 43.4578L12.1717 33.5821C12.1717 33.5821 13.4305 23.7882 15.9583 21.8438C15.6001 21.9768 15.2317 22.1098 14.8121 22.2429C9.34717 24.0338 6.45097 27.7794 5.55038 30.5119C4.63957 33.2341 0.474364 48.5952 0.474364 48.5952H0.484598C-0.00662938 50.6318 0.535768 52.8423 1.41588 53.9475C1.64103 54.6332 2.24483 55.0221 2.95097 55.1551L9.296 56.3832L21.3311 57.6318L22.5899 53.5075C22.5899 53.5075 14.8121 49.8335 8.49775 48.2165L10.5241 43.4578Z" fill="white"/>
<path opacity="0.8" d="M10.5241 43.4578L12.1717 33.5821C12.1717 33.5821 13.4305 23.7882 15.9583 21.8438C15.6001 21.9768 15.2317 22.1098 14.8121 22.2429C9.34717 24.0338 6.45097 27.7794 5.55038 30.5119C4.63957 33.2341 0.474364 48.5952 0.474364 48.5952H0.484598C-0.00662938 50.6318 0.535768 52.8423 1.41588 53.9475C1.64103 54.6332 2.24483 55.0221 2.95097 55.1551L9.296 56.3832L21.3311 57.6318L22.5899 53.5075C22.5899 53.5075 14.8121 49.8335 8.49775 48.2165L10.5241 43.4578Z" fill="url(#paint15_linear_129_392)"/>
<defs>
<linearGradient id="paint0_linear_129_392" x1="40.2062" y1="3.48754" x2="33.0696" y2="30.1216" gradientUnits="userSpaceOnUse">
<stop stop-color="#FFFB96"/>
<stop offset="1" stop-color="#FFD583"/>
</linearGradient>
<linearGradient id="paint1_linear_129_392" x1="7.3198" y1="133.915" x2="15.3432" y2="133.915" gradientUnits="userSpaceOnUse">
<stop stop-color="#F6C7C4"/>
<stop offset="1" stop-color="#F06F56"/>
</linearGradient>
<linearGradient id="paint2_linear_129_392" x1="23.8169" y1="133.834" x2="30.2233" y2="133.834" gradientUnits="userSpaceOnUse">
<stop stop-color="#F6C7C4"/>
<stop offset="1" stop-color="#F06F56"/>
</linearGradient>
<linearGradient id="paint3_linear_129_392" x1="40.5094" y1="92.4218" x2="4.25199" y2="91.6575" gradientUnits="userSpaceOnUse">
<stop stop-color="#CEDDFE"/>
<stop offset="1" stop-color="#7399EF"/>
</linearGradient>
<linearGradient id="paint4_linear_129_392" x1="0.208525" y1="136.904" x2="16.0813" y2="136.904" gradientUnits="userSpaceOnUse">
<stop stop-color="#26264F"/>
<stop offset="0.26" stop-color="#282853"/>
<stop offset="0.53" stop-color="#2E305F"/>
<stop offset="0.79" stop-color="#383C73"/>
<stop offset="1" stop-color="#444B89"/>
</linearGradient>
<linearGradient id="paint5_linear_129_392" x1="20.5837" y1="-1.03956" x2="31.227" y2="-1.03956" gradientUnits="userSpaceOnUse">
<stop stop-color="#26264F"/>
<stop offset="0.26" stop-color="#282853"/>
<stop offset="0.53" stop-color="#2E305F"/>
<stop offset="0.79" stop-color="#383C73"/>
<stop offset="1" stop-color="#444B89"/>
</linearGradient>
<linearGradient id="paint6_linear_129_392" x1="19.7129" y1="24.8322" x2="28.9336" y2="24.8322" gradientUnits="userSpaceOnUse">
<stop stop-color="#F6C7C4"/>
<stop offset="1" stop-color="#F06F56"/>
</linearGradient>
<linearGradient id="paint7_linear_129_392" x1="6.46341" y1="43.3044" x2="42.416" y2="43.3044" gradientUnits="userSpaceOnUse">
<stop stop-color="#9D0051"/>
<stop offset="0.1" stop-color="#9D0051"/>
<stop offset="0.91" stop-color="#301C90"/>
<stop offset="1" stop-color="#301C90"/>
</linearGradient>
<linearGradient id="paint8_linear_129_392" x1="29.5179" y1="1.72948" x2="25.8602" y2="15.3803" gradientUnits="userSpaceOnUse">
<stop stop-color="#FFFB96"/>
<stop offset="1" stop-color="#FFD583"/>
</linearGradient>
<linearGradient id="paint9_linear_129_392" x1="17.6494" y1="7.2903" x2="28.2068" y2="10.1191" gradientUnits="userSpaceOnUse">
<stop stop-color="#F6C7C4"/>
<stop offset="1" stop-color="#F06F56"/>
</linearGradient>
<linearGradient id="paint10_linear_129_392" x1="25.1081" y1="1.86188" x2="23.2884" y2="8.65301" gradientUnits="userSpaceOnUse">
<stop stop-color="#FFFB96"/>
<stop offset="1" stop-color="#FFD583"/>
</linearGradient>
<linearGradient id="paint11_linear_129_392" x1="23.06" y1="0.698425" x2="21.431" y2="6.77782" gradientUnits="userSpaceOnUse">
<stop stop-color="#FFFB96"/>
<stop offset="1" stop-color="#FFD583"/>
</linearGradient>
<linearGradient id="paint12_linear_129_392" x1="21.218" y1="54.4283" x2="32.9767" y2="54.4283" gradientUnits="userSpaceOnUse">
<stop stop-color="#F6C7C4"/>
<stop offset="1" stop-color="#F06F56"/>
</linearGradient>
<linearGradient id="paint13_linear_129_392" x1="24.4419" y1="64.5191" x2="34.9828" y2="64.5191" gradientUnits="userSpaceOnUse">
<stop stop-color="#F6C7C4"/>
<stop offset="1" stop-color="#F06F56"/>
</linearGradient>
<linearGradient id="paint14_linear_129_392" x1="32.6819" y1="42.8646" x2="50.8186" y2="42.8646" gradientUnits="userSpaceOnUse">
<stop stop-color="#9D0051"/>
<stop offset="0.1" stop-color="#9D0051"/>
<stop offset="0.91" stop-color="#301C90"/>
<stop offset="1" stop-color="#301C90"/>
</linearGradient>
<linearGradient id="paint15_linear_129_392" x1="0.30036" y1="39.7378" x2="22.5982" y2="39.7378" gradientUnits="userSpaceOnUse">
<stop stop-color="#9D0051"/>
<stop offset="0.1" stop-color="#9D0051"/>
<stop offset="0.91" stop-color="#301C90"/>
<stop offset="1" stop-color="#301C90"/>
</linearGradient>
</defs>
</svg>
