<svg width="76" height="31" viewBox="0 0 76 31" fill="none" xmlns="http://www.w3.org/2000/svg">
<path d="M0.421875 4.68145C0.421875 2.33866 2.32108 0.439453 4.66387 0.439453H71.018C73.3608 0.439453 75.26 2.33866 75.26 4.68145V20.2354C75.26 22.5782 73.3608 24.4774 71.018 24.4774H44.4949L37.8409 30.5381L31.058 24.4774H4.66387C2.32108 24.4774 0.421875 22.5782 0.421875 20.2354V4.68145Z" fill="white"/>
<path fill-rule="evenodd" clip-rule="evenodd" d="M44.4949 24.4774H71.018C73.3608 24.4774 75.26 22.5782 75.26 20.2354V4.68145C75.26 2.33866 73.3608 0.439453 71.018 0.439453H4.66387C2.32108 0.439453 0.421875 2.33866 0.421875 4.68145V20.2354C0.421875 22.5782 2.32108 24.4774 4.66387 24.4774H31.058L37.8409 30.5381L44.4949 24.4774ZM37.834 29.0904L44.0787 23.4025H71.018C72.7671 23.4025 74.1851 21.9846 74.1851 20.2354V4.68145C74.1851 2.93234 72.7671 1.5144 71.018 1.5144H4.66387C2.91476 1.5144 1.49683 2.93234 1.49683 4.68145V20.2354C1.49683 21.9846 2.91476 23.4025 4.66387 23.4025H31.4683L37.834 29.0904Z" fill="#001464"/>
<path d="M66.7509 6.86694L66.3761 15.5409H63.9875L63.6126 6.86694H66.7509ZM63.5342 18.2433C63.5342 17.8249 63.6853 17.4762 63.9875 17.1972C64.2897 16.9124 64.682 16.7701 65.1644 16.7701C65.6467 16.7701 66.0361 16.9124 66.3325 17.1972C66.6347 17.4762 66.7858 17.8249 66.7858 18.2433C66.7858 18.6618 66.6347 19.0134 66.3325 19.2981C66.0361 19.5771 65.6467 19.7166 65.1644 19.7166C64.682 19.7166 64.2897 19.5771 63.9875 19.2981C63.6853 19.0134 63.5342 18.6618 63.5342 18.2433Z" fill="#001464"/>
<path d="M53.4818 19.5597H50.666L50.6835 17.2059H53.4818C54.063 17.2059 54.554 17.0665 54.9551 16.7875C55.3619 16.5085 55.6699 16.093 55.8791 15.5409C56.0941 14.983 56.2017 14.2972 56.2017 13.4835V12.9343C56.2017 12.3241 56.1406 11.7894 56.0186 11.3303C55.9024 10.8654 55.728 10.4789 55.4955 10.1709C55.2631 9.85706 54.9725 9.62168 54.6238 9.46477C54.2809 9.30785 53.8857 9.22939 53.4382 9.22939H50.6137V6.86694H53.4382C54.2983 6.86694 55.0858 7.01514 55.8007 7.31154C56.5213 7.60212 57.1432 8.02056 57.6662 8.56686C58.1951 9.10735 58.6019 9.74954 58.8867 10.4934C59.1772 11.2315 59.3225 12.051 59.3225 12.9518V13.4835C59.3225 14.3785 59.1772 15.198 58.8867 15.9419C58.6019 16.6858 58.198 17.328 57.6749 17.8685C57.1519 18.409 56.5329 18.8274 55.8181 19.1238C55.1091 19.4144 54.3303 19.5597 53.4818 19.5597ZM52.4183 6.86694V19.5597H49.3584V6.86694H52.4183Z" fill="#001464"/>
<path d="M45.3902 17.2059V19.5597H38.9741V17.2059H45.3902ZM40.0638 6.86694V19.5597H37.0039V6.86694H40.0638Z" fill="#001464"/>
<path d="M32.739 12.9605V13.4749C32.739 14.4454 32.6024 15.3172 32.3293 16.0901C32.062 16.8573 31.6813 17.514 31.1873 18.0603C30.6933 18.6008 30.1092 19.0163 29.4351 19.3069C28.7609 19.5917 28.017 19.734 27.2034 19.734C26.3839 19.734 25.6342 19.5917 24.9543 19.3069C24.2801 19.0163 23.6931 18.6008 23.1933 18.0603C22.6993 17.514 22.3158 16.8573 22.0426 16.0901C21.7753 15.3172 21.6416 14.4454 21.6416 13.4749V12.9605C21.6416 11.99 21.7753 11.1182 22.0426 10.3453C22.3158 9.57232 22.6964 8.9156 23.1846 8.37511C23.6786 7.82881 24.2627 7.41328 24.9368 7.1285C25.6168 6.83792 26.3665 6.69263 27.1859 6.69263C27.9996 6.69263 28.7435 6.83792 29.4176 7.1285C30.0976 7.41328 30.6846 7.82881 31.1786 8.37511C31.6726 8.9156 32.0561 9.57232 32.3293 10.3453C32.6024 11.1182 32.739 11.99 32.739 12.9605ZM29.6356 13.4749V12.9431C29.6356 12.3154 29.5804 11.7633 29.4699 11.2868C29.3653 10.8044 29.2084 10.4005 28.9992 10.075C28.79 9.74957 28.5314 9.50548 28.2233 9.34276C27.9211 9.17422 27.5753 9.08995 27.1859 9.08995C26.7791 9.08995 26.4246 9.17422 26.1224 9.34276C25.8202 9.50548 25.5674 9.74957 25.364 10.075C25.1606 10.4005 25.0066 10.8044 24.902 11.2868C24.8032 11.7633 24.7538 12.3154 24.7538 12.9431V13.4749C24.7538 14.0967 24.8032 14.6488 24.902 15.1312C25.0066 15.6078 25.1606 16.0117 25.364 16.3429C25.5732 16.6742 25.8289 16.9241 26.1311 17.0926C26.4391 17.2612 26.7966 17.3454 27.2034 17.3454C27.5928 17.3454 27.9386 17.2612 28.2408 17.0926C28.543 16.9241 28.7958 16.6742 28.9992 16.3429C29.2084 16.0117 29.3653 15.6078 29.4699 15.1312C29.5804 14.6488 29.6356 14.0967 29.6356 13.4749Z" fill="#001464"/>
<path d="M14.6832 16.186C14.6832 15.9884 14.6542 15.8112 14.596 15.6542C14.5379 15.4915 14.4304 15.3404 14.2735 15.2009C14.1166 15.0615 13.8899 14.922 13.5935 14.7825C13.3029 14.6372 12.9194 14.4861 12.4428 14.3292C11.8849 14.1432 11.3473 13.934 10.8301 13.7015C10.3128 13.4632 9.8508 13.1872 9.44399 12.8734C9.03717 12.5537 8.71462 12.1818 8.47634 11.7575C8.23806 11.3274 8.11892 10.8276 8.11892 10.2581C8.11892 9.7118 8.24097 9.22071 8.48506 8.78483C8.72915 8.34315 9.06913 7.96829 9.50501 7.66027C9.9467 7.34644 10.4639 7.10816 11.0567 6.94544C11.6495 6.7769 12.2975 6.69263 13.0007 6.69263C13.9306 6.69263 14.7501 6.85535 15.4591 7.18081C16.1739 7.50045 16.7318 7.95667 17.1328 8.54946C17.5397 9.13644 17.7431 9.83094 17.7431 10.6329H14.7007C14.7007 10.3133 14.6338 10.0314 14.5002 9.78735C14.3723 9.54326 14.1776 9.35147 13.9161 9.21199C13.6546 9.07251 13.3262 9.00277 12.931 9.00277C12.5474 9.00277 12.2249 9.06089 11.9634 9.17712C11.7018 9.29336 11.5042 9.45027 11.3706 9.64787C11.2369 9.83965 11.1701 10.0518 11.1701 10.2842C11.1701 10.476 11.2224 10.6504 11.327 10.8073C11.4374 10.9584 11.5914 11.1008 11.789 11.2345C11.9924 11.3681 12.2365 11.496 12.5213 11.618C12.8119 11.7401 13.1373 11.8592 13.4976 11.9754C14.1718 12.1905 14.7704 12.4317 15.2934 12.699C15.8223 12.9605 16.2669 13.2598 16.6272 13.5969C16.9934 13.9282 17.2694 14.3059 17.4554 14.7302C17.6472 15.1544 17.7431 15.6339 17.7431 16.1686C17.7431 16.7381 17.6327 17.2437 17.4118 17.6854C17.191 18.1271 16.8742 18.502 16.4616 18.81C16.049 19.1122 15.555 19.3418 14.9796 19.4987C14.4043 19.6556 13.7621 19.734 13.053 19.734C12.4021 19.734 11.7599 19.6527 11.1265 19.49C10.4988 19.3214 9.92926 19.0657 9.41783 18.7228C8.90641 18.3741 8.49668 17.9295 8.18866 17.389C7.88646 16.8427 7.73535 16.1947 7.73535 15.445H10.8039C10.8039 15.817 10.8533 16.1308 10.9521 16.3865C11.0509 16.6422 11.1962 16.8485 11.388 17.0055C11.5798 17.1566 11.8152 17.267 12.0941 17.3367C12.3731 17.4007 12.6927 17.4326 13.053 17.4326C13.4424 17.4326 13.7563 17.3774 13.9945 17.267C14.2328 17.1508 14.4072 16.9997 14.5176 16.8137C14.628 16.6219 14.6832 16.4127 14.6832 16.186Z" fill="#001464"/>
</svg>
