<?xml version="1.0" encoding="UTF-8"?>
<svg id="Layer_1" xmlns="http://www.w3.org/2000/svg" version="1.1" xmlns:xlink="http://www.w3.org/1999/xlink" viewBox="0 0 24 24">
  <!-- Generator: Adobe Illustrator 29.0.1, SVG Export Plug-In . SVG Version: 2.1.0 Build 192)  -->
  <defs>
    <style>
      .st0 {
        fill: #fff;
      }

      .st1 {
        mask: url(#mask);
      }

      .st2 {
        fill: #d9d9d9;
      }
    </style>
    <mask id="mask" x="0" y="0" width="24" height="24" maskUnits="userSpaceOnUse">
      <g id="mask0_4633_49">
        <rect class="st2" width="24" height="24"/>
      </g>
    </mask>
  </defs>
  <g class="st1">
    <path class="st0" d="M5,22c-.6,0-1-.2-1.4-.6-.4-.4-.6-.9-.6-1.4V6c0-.6.2-1,.6-1.4.4-.4.9-.6,1.4-.6h1v-2h2v2h8v-2h2v2h1c.5,0,1,.2,1.4.6.4.4.6.9.6,1.4v14c0,.5-.2,1-.6,1.4-.4.4-.9.6-1.4.6H5ZM5,20h14v-10H5v10ZM5,8h14v-2H5v2Z"/>
  </g>
</svg>