<svg width="178" height="55" viewBox="0 0 178 55" fill="none" xmlns="http://www.w3.org/2000/svg">
<path d="M1.0495 21V4.72162H10.629C12.6237 4.72162 14.0752 5.07146 14.9833 5.77112C15.8913 6.47078 16.3454 7.49795 16.3454 8.85262C16.3454 9.46297 16.2337 10.0063 16.0104 10.4827C15.7871 10.9591 15.4745 11.361 15.0726 11.6885C14.6706 12.0011 14.2017 12.2467 13.6658 12.4254V12.5817C14.3208 12.7157 14.8865 12.9464 15.3629 13.2739C15.8392 13.6014 16.2039 14.0257 16.457 14.5467C16.725 15.0677 16.859 15.6855 16.859 16.4001C16.859 17.4421 16.6059 18.3055 16.0997 18.9903C15.5936 19.6602 14.8567 20.1664 13.8891 20.5087C12.9215 20.8362 11.7454 21 10.361 21H1.0495ZM6.14068 17.5389H9.42315C10.3163 17.5389 10.9267 17.39 11.2542 17.0923C11.5817 16.7946 11.7454 16.4075 11.7454 15.9311C11.7454 15.3655 11.5519 14.9635 11.1649 14.7253C10.7927 14.4723 10.2121 14.3457 9.42315 14.3457H5.7834V11.0186H9.22218C9.75809 11.0186 10.1749 10.9591 10.4726 10.84C10.7704 10.7209 10.9788 10.5497 11.0979 10.3264C11.2319 10.1031 11.2988 9.84258 11.2988 9.54485C11.2988 9.02382 11.1053 8.67399 10.7183 8.49535C10.3312 8.30182 9.82508 8.20506 9.19985 8.20506H6.14068V17.5389ZM20.3787 21V4.72162H30.963C31.7966 4.72162 32.5335 4.79605 33.1736 4.94492C33.8286 5.0789 34.3869 5.28731 34.8483 5.57015C35.3247 5.83811 35.7118 6.16561 36.0095 6.55266C36.3221 6.92482 36.5454 7.34909 36.6794 7.82546C36.8282 8.30182 36.9027 8.82285 36.9027 9.38854C36.9027 10.4455 36.6198 11.3238 36.0541 12.0234C35.5033 12.7231 34.7888 13.1995 33.9105 13.4525V13.5865C34.4464 13.6758 34.9004 13.847 35.2726 14.1001C35.6597 14.3383 35.9574 14.6584 36.1658 15.0603C36.3742 15.4622 36.4784 15.9609 36.4784 16.5564V19.3029C36.4784 19.6304 36.4859 19.9207 36.5007 20.1738C36.5305 20.4269 36.5826 20.7023 36.6571 21H31.4766C31.417 20.7618 31.3798 20.5087 31.3649 20.2408C31.3649 19.9579 31.3649 19.6677 31.3649 19.3699V17.3379C31.3649 16.9062 31.2979 16.5638 31.1639 16.3108C31.03 16.0428 30.8141 15.8567 30.5164 15.7525C30.2186 15.6334 29.8093 15.5739 29.2882 15.5739H25.1349V11.9565H29.2436C30.2112 11.9565 30.8662 11.7927 31.2086 11.4652C31.551 11.1377 31.7222 10.706 31.7222 10.1701C31.7222 9.85746 31.6626 9.59695 31.5435 9.38854C31.4244 9.16524 31.2533 8.99405 31.03 8.87495C30.8215 8.75586 30.561 8.67399 30.2484 8.62933C29.9507 8.56978 29.6157 8.54001 29.2436 8.54001H25.4922V21H20.3787ZM49.5068 21.2233C47.9883 21.2233 46.6411 21.0298 45.4651 20.6427C44.2891 20.2408 43.2917 19.6751 42.4729 18.9457C41.669 18.2013 41.0587 17.3156 40.6419 16.2884C40.225 15.2613 40.0166 14.115 40.0166 12.8496C40.0166 11.5843 40.225 10.438 40.6419 9.41087C41.0587 8.3837 41.669 7.5054 42.4729 6.77596C43.2917 6.04652 44.2891 5.48828 45.4651 5.10123C46.6411 4.69929 47.9883 4.49833 49.5068 4.49833C51.0103 4.49833 52.3426 4.69929 53.5038 5.10123C54.6649 5.48828 55.6474 6.04652 56.4513 6.77596C57.2701 7.5054 57.8879 8.3837 58.3047 9.41087C58.7215 10.438 58.9299 11.5843 58.9299 12.8496C58.9299 14.115 58.7215 15.2613 58.3047 16.2884C57.8879 17.3156 57.2701 18.2013 56.4513 18.9457C55.6474 19.6751 54.6649 20.2408 53.5038 20.6427C52.3426 21.0298 51.0103 21.2233 49.5068 21.2233ZM49.5068 17.2039C50.3702 17.2039 51.122 17.0551 51.7621 16.7574C52.4022 16.4447 52.9009 15.9684 53.2582 15.3282C53.6154 14.6732 53.7941 13.847 53.7941 12.8496C53.7941 12.0904 53.6899 11.4429 53.4815 10.907C53.2879 10.3562 52.9976 9.90212 52.6106 9.54485C52.2384 9.18757 51.7844 8.92706 51.2485 8.7633C50.7275 8.58467 50.1469 8.49535 49.5068 8.49535C48.6434 8.49535 47.8841 8.65166 47.2291 8.96427C46.5741 9.262 46.068 9.73093 45.7107 10.371C45.3534 11.0112 45.1748 11.8374 45.1748 12.8496C45.1748 13.6089 45.279 14.2639 45.4874 14.8147C45.6958 15.3506 45.9861 15.7972 46.3583 16.1544C46.7453 16.5117 47.1994 16.7797 47.7204 16.9583C48.2563 17.1221 48.8518 17.2039 49.5068 17.2039ZM60.5788 21L67.0991 4.72162H73.7534L80.3183 21H74.7582L71.1408 10.371L70.4932 8.3837H70.3369L69.7117 10.371L66.0943 21H60.5788ZM66.6972 18.2311L68.0593 14.4574H72.7932L74.133 18.2311H66.6972ZM83.4689 21V4.72162H91.6862C93.6513 4.72162 95.2739 5.06401 96.5541 5.74879C97.8493 6.41868 98.8094 7.36397 99.4347 8.58467C100.075 9.80536 100.395 11.2345 100.395 12.872C100.395 14.2266 100.186 15.4176 99.7696 16.4447C99.3677 17.457 98.7871 18.3055 98.0279 18.9903C97.2687 19.6602 96.3532 20.1664 95.2813 20.5087C94.2095 20.8362 93.0111 21 91.6862 21H83.4689ZM88.5601 17.0923H90.6367C91.4853 17.0923 92.1998 17.003 92.7804 16.8243C93.3759 16.6308 93.8522 16.348 94.2095 15.9758C94.5668 15.6036 94.8273 15.1496 94.991 14.6137C95.1548 14.0778 95.2367 13.4674 95.2367 12.7827C95.2367 11.6959 95.0431 10.8549 94.6561 10.2594C94.269 9.66394 93.7257 9.24712 93.026 9.00893C92.3412 8.75586 91.5448 8.62933 90.6367 8.62933H88.5601V17.0923ZM111.606 21.2233C109.745 21.2233 108.204 20.9926 106.983 20.5311C105.778 20.0547 104.877 19.4071 104.281 18.5884C103.701 17.7547 103.411 16.8095 103.411 15.7525H108.725C108.74 16.1396 108.859 16.4894 109.082 16.802C109.306 17.0997 109.641 17.3379 110.087 17.5166C110.549 17.6803 111.122 17.7622 111.807 17.7622C112.357 17.7622 112.819 17.7101 113.191 17.6059C113.578 17.5017 113.868 17.3454 114.062 17.137C114.27 16.9285 114.374 16.6755 114.374 16.3777C114.374 16.1098 114.322 15.8939 114.218 15.7302C114.129 15.5664 113.958 15.4399 113.705 15.3506C113.466 15.2464 113.131 15.1645 112.7 15.105C112.283 15.0305 111.74 14.9561 111.07 14.8817C109.804 14.7328 108.71 14.5393 107.787 14.3011C106.879 14.048 106.127 13.7279 105.532 13.3409C104.951 12.9539 104.52 12.4775 104.237 11.9118C103.954 11.3312 103.813 10.6464 103.813 9.85746C103.813 8.7112 104.118 7.74358 104.728 6.9546C105.353 6.16561 106.246 5.56271 107.408 5.14589C108.569 4.72907 109.961 4.52065 111.583 4.52065C113.012 4.52065 114.27 4.71418 115.357 5.10123C116.444 5.47339 117.307 6.03163 117.947 6.77596C118.587 7.52028 118.96 8.4358 119.064 9.52252H113.906C113.846 9.13547 113.705 8.83029 113.481 8.607C113.258 8.36881 112.968 8.19762 112.61 8.09341C112.253 7.98921 111.844 7.9371 111.382 7.9371C110.891 7.9371 110.467 7.98921 110.109 8.09341C109.767 8.19762 109.507 8.35393 109.328 8.56234C109.149 8.75586 109.06 8.9866 109.06 9.25456C109.06 9.56718 109.142 9.8128 109.306 9.99144C109.469 10.1552 109.789 10.2892 110.266 10.3934C110.757 10.4827 111.479 10.5795 112.432 10.6837C113.727 10.8325 114.829 11.0261 115.737 11.2642C116.66 11.4875 117.404 11.8001 117.97 12.2021C118.55 12.5891 118.974 13.0878 119.242 13.6982C119.51 14.3085 119.644 15.0603 119.644 15.9535C119.644 17.0551 119.332 18.0004 118.706 18.7894C118.081 19.5783 117.173 20.1812 115.982 20.5981C114.791 21.0149 113.332 21.2233 111.606 21.2233ZM123.13 21V4.72162H128.244V21H123.13ZM140.017 21.2233C138.796 21.2233 137.68 21.0298 136.668 20.6427C135.655 20.2557 134.784 19.7049 134.055 18.9903C133.34 18.2758 132.782 17.4272 132.38 16.4447C131.993 15.4473 131.8 14.3457 131.8 13.1399C131.8 11.7704 132.023 10.5497 132.47 9.47786C132.916 8.40603 133.556 7.5054 134.39 6.77596C135.238 6.03163 136.258 5.46595 137.449 5.0789C138.64 4.69185 139.98 4.49833 141.468 4.49833C143.106 4.49833 144.565 4.74395 145.845 5.23521C147.125 5.72646 148.153 6.41868 148.927 7.31187C149.701 8.19017 150.14 9.21734 150.244 10.3934H145.064C144.974 10.0212 144.766 9.68627 144.438 9.38854C144.111 9.09081 143.694 8.86007 143.188 8.69632C142.697 8.51768 142.131 8.42836 141.491 8.42836C140.449 8.42836 139.593 8.62188 138.923 9.00893C138.253 9.39598 137.754 9.93189 137.427 10.6167C137.114 11.3015 136.958 12.0979 136.958 13.006C136.958 13.7205 137.062 14.3457 137.27 14.8817C137.479 15.4176 137.769 15.8716 138.141 16.2438C138.528 16.6159 138.99 16.8988 139.526 17.0923C140.062 17.2709 140.65 17.3603 141.29 17.3603C141.975 17.3603 142.607 17.256 143.188 17.0476C143.783 16.8392 144.26 16.5564 144.617 16.1991C144.989 15.8269 145.175 15.4101 145.175 14.9486V14.4351L145.8 15.1719H141.245V11.8448H150.445V21H146.403L146.225 18.834H146.046C145.748 19.3402 145.294 19.7719 144.684 20.1291C144.074 20.4864 143.366 20.7618 142.563 20.9553C141.774 21.134 140.925 21.2233 140.017 21.2233ZM154.396 21V4.72162H160.559L166.856 14.3234H167.035L166.901 9.74581V4.72162H171.97V21H165.896L159.599 11.5322H159.398L159.554 15.9535V21H154.396ZM9.75809 44.2233C8.23967 44.2233 6.89245 44.0298 5.71641 43.6427C4.54038 43.2408 3.54298 42.6751 2.72423 41.9457C1.92036 41.2013 1.31001 40.3156 0.893189 39.2884C0.476368 38.2613 0.267957 37.115 0.267957 35.8496C0.267957 34.5843 0.476368 33.438 0.893189 32.4109C1.31001 31.3837 1.92036 30.5054 2.72423 29.776C3.54298 29.0465 4.54038 28.4883 5.71641 28.1012C6.89245 27.6993 8.23967 27.4983 9.75809 27.4983C11.4849 27.4983 12.981 27.7514 14.2464 28.2575C15.5117 28.7637 16.5166 29.4633 17.2609 30.3565C18.0052 31.2497 18.4444 32.2918 18.5783 33.4827H13.4425C13.3234 33.0808 13.0852 32.7309 12.728 32.4332C12.3707 32.1355 11.939 31.9047 11.4328 31.741C10.9267 31.5772 10.3684 31.4953 9.75809 31.4953C8.89468 31.4953 8.13547 31.6517 7.48046 31.9643C6.82546 32.262 6.31932 32.7309 5.96204 33.371C5.60476 34.0112 5.42613 34.8374 5.42613 35.8496C5.42613 36.6089 5.53033 37.2639 5.73874 37.8147C5.94715 38.3506 6.23744 38.7972 6.6096 39.1544C6.99665 39.5117 7.45069 39.7797 7.97172 39.9583C8.50763 40.1221 9.10309 40.2039 9.75809 40.2039C10.3536 40.2039 10.9118 40.1221 11.4328 39.9583C11.9539 39.7946 12.393 39.5638 12.7503 39.2661C13.1224 38.9684 13.3681 38.6185 13.4872 38.2166H18.5783C18.4444 39.4224 17.9754 40.4793 17.1716 41.3874C16.3677 42.2806 15.3256 42.9803 14.0454 43.4864C12.7652 43.9777 11.3361 44.2233 9.75809 44.2233ZM31.0498 44.2233C29.5314 44.2233 28.1842 44.0298 27.0082 43.6427C25.8321 43.2408 24.8347 42.6751 24.016 41.9457C23.2121 41.2013 22.6018 40.3156 22.1849 39.2884C21.7681 38.2613 21.5597 37.115 21.5597 35.8496C21.5597 34.5843 21.7681 33.438 22.1849 32.4109C22.6018 31.3837 23.2121 30.5054 24.016 29.776C24.8347 29.0465 25.8321 28.4883 27.0082 28.1012C28.1842 27.6993 29.5314 27.4983 31.0498 27.4983C32.5534 27.4983 33.8857 27.6993 35.0469 28.1012C36.208 28.4883 37.1905 29.0465 37.9944 29.776C38.8131 30.5054 39.4309 31.3837 39.8478 32.4109C40.2646 33.438 40.473 34.5843 40.473 35.8496C40.473 37.115 40.2646 38.2613 39.8478 39.2884C39.4309 40.3156 38.8131 41.2013 37.9944 41.9457C37.1905 42.6751 36.208 43.2408 35.0469 43.6427C33.8857 44.0298 32.5534 44.2233 31.0498 44.2233ZM31.0498 40.2039C31.9133 40.2039 32.665 40.0551 33.3051 39.7574C33.9453 39.4447 34.444 38.9684 34.8012 38.3282C35.1585 37.6732 35.3372 36.847 35.3372 35.8496C35.3372 35.0904 35.2329 34.4429 35.0245 33.907C34.831 33.3562 34.5407 32.9021 34.1537 32.5448C33.7815 32.1876 33.3275 31.9271 32.7916 31.7633C32.2705 31.5847 31.69 31.4953 31.0498 31.4953C30.1864 31.4953 29.4272 31.6517 28.7722 31.9643C28.1172 32.262 27.6111 32.7309 27.2538 33.371C26.8965 34.0112 26.7179 34.8374 26.7179 35.8496C26.7179 36.6089 26.8221 37.2639 27.0305 37.8147C27.2389 38.3506 27.5292 38.7972 27.9014 39.1544C28.2884 39.5117 28.7424 39.7797 29.2635 39.9583C29.7994 40.1221 30.3948 40.2039 31.0498 40.2039ZM44.0255 44V27.7216H50.1885L56.4855 37.3234H56.6641L56.5302 32.7458V27.7216H61.599V44H55.5253L49.2283 34.5322H49.0274L49.1837 38.9535V44H44.0255ZM65.9278 44V27.7216H72.0908L78.3878 37.3234H78.5665L78.4325 32.7458V27.7216H83.5013V44H77.4277L71.1307 34.5322H70.9297L71.086 38.9535V44H65.9278ZM87.8302 44V27.7216H102.077V31.7186H91.9388L92.9437 30.7138V41.0078L91.9388 40.003H102.144V44H87.8302ZM91.9388 37.703V33.9739H100.96V37.703H91.9388ZM114.451 44.2233C112.932 44.2233 111.585 44.0298 110.409 43.6427C109.233 43.2408 108.235 42.6751 107.417 41.9457C106.613 41.2013 106.002 40.3156 105.586 39.2884C105.169 38.2613 104.96 37.115 104.96 35.8496C104.96 34.5843 105.169 33.438 105.586 32.4109C106.002 31.3837 106.613 30.5054 107.417 29.776C108.235 29.0465 109.233 28.4883 110.409 28.1012C111.585 27.6993 112.932 27.4983 114.451 27.4983C116.177 27.4983 117.673 27.7514 118.939 28.2575C120.204 28.7637 121.209 29.4633 121.953 30.3565C122.698 31.2497 123.137 32.2918 123.271 33.4827H118.135C118.016 33.0808 117.778 32.7309 117.42 32.4332C117.063 32.1355 116.631 31.9047 116.125 31.741C115.619 31.5772 115.061 31.4953 114.451 31.4953C113.587 31.4953 112.828 31.6517 112.173 31.9643C111.518 32.262 111.012 32.7309 110.654 33.371C110.297 34.0112 110.119 34.8374 110.119 35.8496C110.119 36.6089 110.223 37.2639 110.431 37.8147C110.64 38.3506 110.93 38.7972 111.302 39.1544C111.689 39.5117 112.143 39.7797 112.664 39.9583C113.2 40.1221 113.796 40.2039 114.451 40.2039C115.046 40.2039 115.604 40.1221 116.125 39.9583C116.646 39.7946 117.085 39.5638 117.443 39.2661C117.815 38.9684 118.061 38.6185 118.18 38.2166H123.271C123.137 39.4224 122.668 40.4793 121.864 41.3874C121.06 42.2806 120.018 42.9803 118.738 43.4864C117.458 43.9777 116.028 44.2233 114.451 44.2233ZM130.616 44V31.406H135.707V44H130.616ZM125.681 31.7633V27.7216H140.776V31.7633H125.681Z" fill="white"/>
<mask id="mask0_5591_8" style="mask-type:alpha" maskUnits="userSpaceOnUse" x="142" y="19" width="34" height="36">
<rect x="142.748" y="19.0137" width="33.0087" height="35.5181" fill="#D9D9D9"/>
</mask>
<g mask="url(#mask0_5591_8)">
<path d="M159.26 41.0642C160.562 41.0642 161.665 40.5741 162.57 39.594C163.476 38.6139 163.928 37.4238 163.928 36.0237C163.928 34.6236 163.473 33.4364 162.562 32.4621C161.651 31.4878 160.545 31.0007 159.244 31.0007C157.943 31.0007 156.84 31.4907 155.934 32.4708C155.029 33.4509 154.576 34.641 154.576 36.0411C154.576 37.4412 155.031 38.6285 155.942 39.6027C156.853 40.577 157.959 41.0642 159.26 41.0642ZM159.252 40.0282C158.221 40.0282 157.344 39.6397 156.622 38.8628C155.9 38.0858 155.539 37.1424 155.539 36.0324C155.539 34.9225 155.9 33.979 156.622 33.2021C157.344 32.4251 158.221 32.0366 159.252 32.0366C160.284 32.0366 161.161 32.4251 161.883 33.2021C162.605 33.979 162.966 34.9225 162.966 36.0324C162.966 37.1424 162.605 38.0858 161.883 38.8628C161.161 39.6397 160.284 40.0282 159.252 40.0282ZM159.257 45.2079C156.389 45.2079 153.774 44.3755 151.413 42.7106C149.052 41.0457 147.264 38.8196 146.049 36.0324C147.264 33.2452 149.05 31.0192 151.408 29.3543C153.766 27.6894 156.379 26.8569 159.247 26.8569C162.116 26.8569 164.731 27.6894 167.092 29.3543C169.453 31.0192 171.241 33.2452 172.456 36.0324C171.241 38.8196 169.454 41.0457 167.097 42.7106C164.739 44.3755 162.126 45.2079 159.257 45.2079ZM159.252 44.172C161.843 44.172 164.221 43.4382 166.387 41.9706C168.553 40.503 170.209 38.5236 171.355 36.0324C170.209 33.5412 168.553 31.5618 166.387 30.0943C164.221 28.6267 161.843 27.8929 159.252 27.8929C156.662 27.8929 154.284 28.6267 152.118 30.0943C149.951 31.5618 148.295 33.5412 147.149 36.0324C148.295 38.5236 149.951 40.503 152.118 41.9706C154.284 43.4382 156.662 44.172 159.252 44.172Z" fill="white"/>
</g>
</svg>
