<svg width="445" height="154" viewBox="0 0 445 154" fill="none" xmlns="http://www.w3.org/2000/svg">
<path fill-rule="evenodd" clip-rule="evenodd" d="M335.686 136.115H344.866V133.272H332.931L331.737 143.557L334.335 144.206C334.815 143.867 335.306 143.58 335.809 143.346C336.312 143.101 337.055 142.978 338.038 142.978C338.986 142.978 339.793 143.153 340.46 143.504C341.139 143.855 341.654 144.341 342.005 144.961C342.356 145.581 342.531 146.289 342.531 147.085C342.531 147.916 342.379 148.653 342.075 149.296C341.771 149.94 341.314 150.443 340.706 150.806C340.109 151.168 339.355 151.35 338.442 151.35C337.295 151.35 336.342 151.092 335.581 150.577C334.832 150.063 334.382 149.285 334.23 148.243H331.105C331.166 148.897 331.303 149.496 331.517 150.04C331.717 150.548 331.983 151.008 332.316 151.42C333.019 152.274 333.902 152.918 334.967 153.351C336.043 153.783 337.202 154 338.442 154C340.115 154 341.49 153.696 342.566 153.087C343.655 152.467 344.462 151.642 344.988 150.613C345.515 149.583 345.778 148.436 345.778 147.173C345.778 145.757 345.492 144.54 344.918 143.522C344.345 142.504 343.538 141.72 342.496 141.17C341.455 140.608 340.22 140.328 338.793 140.328C338.101 140.328 337.476 140.395 336.919 140.529C336.797 140.558 336.679 140.59 336.564 140.626C335.92 140.813 335.405 141 335.019 141.188L335.686 136.115Z" fill="white"/>
<path fill-rule="evenodd" clip-rule="evenodd" d="M301.317 137.484C301.632 136.911 302.118 136.466 302.773 136.15C303.429 135.823 304.271 135.659 305.301 135.659C306.459 135.659 307.366 135.975 308.021 136.607C308.676 137.227 309.004 138.005 309.004 138.941C309.004 139.409 308.899 139.889 308.688 140.38C308.489 140.872 308.138 141.422 307.635 142.03C307.144 142.639 306.453 143.352 305.564 144.171L298.052 151.42V153.719H313.251V151.051H302.054L307.811 146.155C308.431 145.499 309.01 144.873 309.548 144.277C310.086 143.68 310.554 143.089 310.952 142.504C311.362 141.919 311.678 141.328 311.9 140.731C312.134 140.123 312.251 139.497 312.251 138.853C312.251 137.695 311.97 136.677 311.409 135.799C310.859 134.91 310.063 134.22 309.022 133.728C307.98 133.237 306.74 132.991 305.301 132.991C303.663 132.991 302.27 133.284 301.124 133.869C299.977 134.454 299.099 135.244 298.491 136.238C298.208 136.704 297.993 137.193 297.844 137.705C297.678 138.275 297.596 138.874 297.596 139.503H300.86C300.86 138.73 301.012 138.058 301.317 137.484Z" fill="white"/>
<path fill-rule="evenodd" clip-rule="evenodd" d="M275.757 149.858C276.108 149.366 276.366 148.752 276.53 148.015C276.705 147.278 276.793 146.424 276.793 145.453V141.451C276.793 140.48 276.705 139.631 276.53 138.906C276.354 138.181 276.091 137.578 275.74 137.098C275.401 136.618 274.973 136.262 274.459 136.028C273.944 135.782 273.347 135.659 272.668 135.659C272.013 135.659 271.428 135.782 270.913 136.028C270.41 136.262 269.983 136.618 269.632 137.098C269.293 137.578 269.029 138.181 268.842 138.906C268.667 139.631 268.579 140.48 268.579 141.451V145.453C268.579 146.424 268.667 147.278 268.842 148.015C269.029 148.752 269.299 149.366 269.65 149.858C270.001 150.349 270.434 150.724 270.948 150.981C271.463 151.227 272.048 151.35 272.704 151.35C273.382 151.35 273.973 151.227 274.476 150.981C274.991 150.724 275.418 150.349 275.757 149.858ZM267.333 151.806C266.689 151.057 266.192 150.121 265.841 148.998C265.49 147.863 265.314 146.529 265.314 144.996V141.942C265.314 140.41 265.484 139.081 265.823 137.958C266.174 136.835 266.672 135.905 267.315 135.168C267.971 134.43 268.749 133.886 269.65 133.535C270.551 133.173 271.557 132.991 272.668 132.991C273.792 132.991 274.81 133.173 275.722 133.535C276.635 133.886 277.413 134.43 278.057 135.168C278.7 135.905 279.192 136.835 279.531 137.958C279.882 139.081 280.057 140.41 280.057 141.942V144.996C280.057 146.529 279.882 147.863 279.531 148.998C279.192 150.121 278.7 151.057 278.057 151.806C277.425 152.543 276.653 153.093 275.74 153.456C274.839 153.819 273.827 154 272.704 154C271.592 154 270.58 153.819 269.667 153.456C268.766 153.093 267.988 152.543 267.333 151.806Z" fill="white"/>
<path fill-rule="evenodd" clip-rule="evenodd" d="M236.055 137.484C236.371 136.911 236.856 136.466 237.512 136.15C238.167 135.823 239.009 135.659 240.039 135.659C241.197 135.659 242.104 135.975 242.759 136.607C243.415 137.227 243.742 138.005 243.742 138.941C243.742 139.409 243.637 139.889 243.426 140.38C243.227 140.872 242.876 141.422 242.373 142.03C241.882 142.639 241.192 143.352 240.302 144.171L232.79 151.42V153.719H247.99V151.051H236.792L242.549 146.155C243.169 145.499 243.748 144.873 244.286 144.277C244.825 143.68 245.293 143.089 245.69 142.504C246.1 141.919 246.416 141.328 246.638 140.731C246.872 140.123 246.989 139.497 246.989 138.853C246.989 137.695 246.708 136.677 246.147 135.799C245.597 134.91 244.801 134.22 243.76 133.728C242.718 133.237 241.478 132.991 240.039 132.991C238.401 132.991 237.008 133.284 235.862 133.869C234.715 134.454 233.838 135.244 233.229 136.238C232.946 136.704 232.731 137.193 232.582 137.705C232.417 138.275 232.334 138.874 232.334 139.503H235.599C235.599 138.73 235.751 138.058 236.055 137.484Z" fill="white"/>
<path fill-rule="evenodd" clip-rule="evenodd" d="M175.318 133.272V135.957H182.286V153.719H185.516V135.957H192.519V133.272H175.318Z" fill="white"/>
<path fill-rule="evenodd" clip-rule="evenodd" d="M157.538 133.272H154.291V153.719H157.538V133.272Z" fill="white"/>
<path fill-rule="evenodd" clip-rule="evenodd" d="M116.884 133.272H112.689V153.719H115.919V146.664L115.591 137.399L122.553 153.719H124.923L131.904 137.354L131.575 146.664V153.719H134.822V133.272H130.592L123.747 149.261L116.884 133.272Z" fill="white"/>
<path fill-rule="evenodd" clip-rule="evenodd" d="M75.5111 133.272H71.3164V153.719H74.5458V146.664L74.218 137.399L81.1802 153.719H83.5496L90.5309 137.354L90.2015 146.664V153.719H93.4485V133.272H89.2186L82.3737 149.261L75.5111 133.272Z" fill="white"/>
<path fill-rule="evenodd" clip-rule="evenodd" d="M51.3754 150.858C52.1126 149.805 52.4812 148.506 52.4812 146.962V133.272H49.2166V146.962C49.2166 147.968 49.0177 148.799 48.6199 149.454C48.2221 150.098 47.6604 150.577 46.935 150.893C46.2212 151.198 45.3788 151.35 44.4076 151.35C43.4481 151.35 42.6057 151.198 41.8802 150.893C41.1548 150.577 40.5873 150.098 40.1778 149.454C39.7799 148.799 39.581 147.968 39.581 146.962V133.272H36.3691V146.962C36.3691 148.506 36.7202 149.805 37.4222 150.858C38.1243 151.9 39.0779 152.684 40.2831 153.21C41.4999 153.737 42.8748 154 44.4076 154C45.8819 154 47.2275 153.737 48.4444 153.21C49.673 152.684 50.65 151.9 51.3754 150.858Z" fill="white"/>
<path fill-rule="evenodd" clip-rule="evenodd" d="M7.38719 150.507C6.90745 150.203 6.53303 149.811 6.26391 149.331C5.99479 148.852 5.86023 148.272 5.86023 147.594H2.5957C2.5957 148.242 2.68257 148.841 2.85631 149.391C2.97127 149.755 3.12427 150.098 3.3153 150.42C3.79504 151.215 4.43858 151.882 5.24594 152.42C6.06499 152.947 6.97181 153.345 7.96638 153.614C8.97265 153.871 9.99062 154 11.0203 154C12.1787 154 13.2317 153.871 14.1795 153.614C15.139 153.356 15.958 152.988 16.6367 152.508C17.327 152.028 17.8536 151.449 18.2163 150.771C18.5907 150.08 18.7779 149.308 18.7779 148.454C18.7779 147.611 18.62 146.857 18.304 146.19C17.9998 145.523 17.5435 144.932 16.935 144.417C16.3383 143.902 15.6012 143.452 14.7236 143.066C13.846 142.679 12.8398 142.346 11.7048 142.065C10.7687 141.831 9.97306 141.591 9.31782 141.346C8.66257 141.1 8.13019 140.842 7.72066 140.573C7.31113 140.304 7.01276 140.006 6.82555 139.678C6.63833 139.351 6.54473 138.988 6.54473 138.59C6.54473 138.028 6.70269 137.525 7.01861 137.081C7.33453 136.636 7.81427 136.285 8.45781 136.028C9.10135 135.77 9.90871 135.641 10.8799 135.641C11.9212 135.641 12.7754 135.799 13.4424 136.115C14.121 136.42 14.6241 136.841 14.9518 137.379C15.2911 137.917 15.4607 138.532 15.4607 139.222H18.7253C18.7253 138.592 18.6298 137.993 18.4389 137.425C18.2858 136.968 18.0711 136.532 17.7951 136.115C17.1749 135.168 16.2798 134.413 15.1097 133.851C13.9513 133.278 12.5531 132.991 10.915 132.991C9.7683 132.991 8.72693 133.132 7.79086 133.412C6.8548 133.682 6.05329 134.068 5.38635 134.571C4.7194 135.074 4.20456 135.671 3.84184 136.361C3.47911 137.04 3.29775 137.789 3.29775 138.608C3.29775 139.462 3.46741 140.216 3.80674 140.872C4.15776 141.527 4.65505 142.106 5.29859 142.609C5.95384 143.101 6.73779 143.534 7.65045 143.908C8.56312 144.271 9.58694 144.593 10.7219 144.873C11.6697 145.096 12.4536 145.33 13.0738 145.575C13.6939 145.821 14.1795 146.09 14.5305 146.383C14.8816 146.664 15.1273 146.98 15.2677 147.331C15.4198 147.67 15.4958 148.056 15.4958 148.489C15.4958 149.062 15.3262 149.565 14.9869 149.998C14.6475 150.431 14.1444 150.771 13.4775 151.016C12.8105 151.25 11.9915 151.367 11.0203 151.367C10.3182 151.367 9.65714 151.297 9.037 151.157C8.41686 151.016 7.86692 150.8 7.38719 150.507Z" fill="white"/>
<path d="M2.67283 52V10.5428H27.0695C32.1497 10.5428 35.8462 11.4337 38.1588 13.2156C40.4715 14.9975 41.6278 17.6134 41.6278 21.0635C41.6278 22.6179 41.3435 24.0017 40.7748 25.2149C40.2061 26.4281 39.41 27.4517 38.3863 28.2858C37.3627 29.0819 36.1684 29.7075 34.8036 30.1624V30.5605C36.4717 30.9017 37.9124 31.4894 39.1256 32.3235C40.3388 33.1575 41.2677 34.238 41.9122 35.565C42.5946 36.8919 42.9358 38.4653 42.9358 40.2851C42.9358 42.9389 42.2913 45.1379 41.0023 46.8818C39.7133 48.5879 37.8366 49.8769 35.3723 50.7489C32.908 51.583 29.9129 52 26.387 52H2.67283ZM15.6389 43.1854H23.9986C26.2733 43.1854 27.8277 42.8062 28.6618 42.048C29.4959 41.2897 29.9129 40.304 29.9129 39.0908C29.9129 37.6501 29.42 36.6265 28.4343 36.0199C27.4865 35.3754 26.0079 35.0531 23.9986 35.0531H14.729V26.5797H23.4867C24.8516 26.5797 25.9131 26.4281 26.6714 26.1248C27.4296 25.8215 27.9604 25.3855 28.2637 24.8168C28.6049 24.2481 28.7755 23.5846 28.7755 22.8264C28.7755 21.4995 28.2827 20.6085 27.2969 20.1536C26.3112 19.6607 25.0222 19.4143 23.4299 19.4143H15.6389V43.1854ZM51.8997 52V10.5428H78.8555C80.9786 10.5428 82.8552 10.7323 84.4855 11.1115C86.1536 11.4527 87.5753 11.9834 88.7506 12.7038C89.9638 13.3862 90.9495 14.2203 91.7078 15.206C92.5039 16.1538 93.0726 17.2343 93.4138 18.4475C93.793 19.6607 93.9825 20.9876 93.9825 22.4283C93.9825 25.1201 93.2622 27.3569 91.8215 29.1388C90.4187 30.9207 88.599 32.1339 86.3621 32.7784V33.1196C87.727 33.3471 88.8833 33.7831 89.8311 34.4276C90.8168 35.0342 91.5751 35.8493 92.1059 36.8729C92.6366 37.8966 92.902 39.1666 92.902 40.6831V47.678C92.902 48.5121 92.921 49.2513 92.9589 49.8959C93.0347 50.5404 93.1674 51.2418 93.357 52H80.1634C80.0118 51.3934 79.917 50.7489 79.8791 50.0665C79.8791 49.3461 79.8791 48.6068 79.8791 47.8486V42.6735C79.8791 41.5741 79.7085 40.7021 79.3673 40.0576C79.0261 39.3752 78.4763 38.9013 77.7181 38.6359C76.9598 38.3326 75.9172 38.1809 74.5903 38.1809H64.0127V28.9682H74.4766C76.9409 28.9682 78.609 28.5512 79.481 27.7171C80.353 26.883 80.789 25.7836 80.789 24.4187C80.789 23.6226 80.6373 22.9591 80.334 22.4283C80.0307 21.8596 79.5948 21.4236 79.0261 21.1203C78.4953 20.817 77.8318 20.6085 77.0357 20.4948C76.2774 20.3431 75.4244 20.2673 74.4766 20.2673H64.9226V52H51.8997ZM126.082 52.5687C122.215 52.5687 118.784 52.0758 115.789 51.0901C112.794 50.0665 110.254 48.6258 108.169 46.7681C106.121 44.8725 104.567 42.6167 103.505 40.0007C102.444 37.3848 101.913 34.4655 101.913 31.243C101.913 28.0204 102.444 25.1011 103.505 22.4852C104.567 19.8692 106.121 17.6324 108.169 15.7747C110.254 13.917 112.794 12.4953 115.789 11.5095C118.784 10.4859 122.215 9.97408 126.082 9.97408C129.911 9.97408 133.305 10.4859 136.262 11.5095C139.219 12.4953 141.721 13.917 143.768 15.7747C145.854 17.6324 147.427 19.8692 148.488 22.4852C149.55 25.1011 150.081 28.0204 150.081 31.243C150.081 34.4655 149.55 37.3848 148.488 40.0007C147.427 42.6167 145.854 44.8725 143.768 46.7681C141.721 48.6258 139.219 50.0665 136.262 51.0901C133.305 52.0758 129.911 52.5687 126.082 52.5687ZM126.082 42.3323C128.281 42.3323 130.196 41.9532 131.826 41.195C133.456 40.3988 134.726 39.1856 135.636 37.5554C136.546 35.8872 137.001 33.7831 137.001 31.243C137.001 29.3094 136.736 27.6602 136.205 26.2954C135.712 24.8926 134.973 23.7363 133.987 22.8264C133.039 21.9165 131.883 21.253 130.518 20.836C129.191 20.381 127.712 20.1536 126.082 20.1536C123.883 20.1536 121.95 20.5516 120.282 21.3478C118.613 22.1061 117.324 23.3003 116.415 24.9305C115.505 26.5608 115.05 28.6649 115.05 31.243C115.05 33.1765 115.315 34.8446 115.846 36.2474C116.377 37.6122 117.116 38.7496 118.064 39.6595C119.049 40.5694 120.206 41.2518 121.533 41.7068C122.898 42.1238 124.414 42.3323 126.082 42.3323ZM154.28 52L170.886 10.5428H187.833L204.552 52H190.392L181.179 24.9305L179.53 19.8692H179.132L177.539 24.9305L168.327 52H154.28ZM169.862 44.9483L173.331 35.3375H185.387L188.799 44.9483H169.862ZM212.576 52V10.5428H233.503C238.508 10.5428 242.64 11.4148 245.901 13.1587C249.199 14.8648 251.645 17.2722 253.237 20.381C254.867 23.4899 255.682 27.1295 255.682 31.2998C255.682 34.7498 255.151 37.7828 254.09 40.3988C253.066 42.9768 251.588 45.1379 249.654 46.8818C247.721 48.5879 245.389 49.8769 242.659 50.7489C239.93 51.583 236.878 52 233.503 52H212.576ZM225.542 42.048H230.831C232.992 42.048 234.811 41.8205 236.29 41.3656C237.807 40.8727 239.02 40.1524 239.93 39.2046C240.84 38.2567 241.503 37.1004 241.92 35.7356C242.337 34.3707 242.546 32.8163 242.546 31.0723C242.546 28.3047 242.053 26.1627 241.067 24.6462C240.081 23.1297 238.697 22.0681 236.916 21.4615C235.172 20.817 233.143 20.4948 230.831 20.4948H225.542V42.048ZM284.233 52.5687C279.494 52.5687 275.57 51.981 272.462 50.8058C269.391 49.5926 267.097 47.9434 265.58 45.8582C264.102 43.7351 263.363 41.3277 263.363 38.6359H276.897C276.935 39.6216 277.239 40.5125 277.807 41.3087C278.376 42.0669 279.229 42.6735 280.366 43.1285C281.542 43.5455 283.001 43.754 284.745 43.754C286.148 43.754 287.323 43.6214 288.271 43.356C289.257 43.0906 289.996 42.6925 290.489 42.1617C291.02 41.631 291.285 40.9864 291.285 40.2282C291.285 39.5458 291.152 38.996 290.887 38.579C290.66 38.162 290.224 37.8397 289.579 37.6122C288.972 37.3468 288.119 37.1383 287.02 36.9867C285.958 36.7971 284.575 36.6076 282.869 36.418C279.646 36.0389 276.859 35.546 274.509 34.9394C272.196 34.2949 270.282 33.4798 268.765 32.4941C267.287 31.5083 266.187 30.2951 265.467 28.8545C264.746 27.3759 264.386 25.6319 264.386 23.6226C264.386 20.7033 265.163 18.239 266.718 16.2296C268.31 14.2203 270.585 12.6848 273.542 11.6233C276.499 10.5617 280.044 10.031 284.177 10.031C287.816 10.031 291.02 10.5238 293.787 11.5095C296.555 12.4573 298.754 13.8791 300.384 15.7747C302.014 17.6703 302.962 20.0019 303.228 22.7695H290.091C289.939 21.7838 289.579 21.0066 289.01 20.4379C288.442 19.8313 287.702 19.3953 286.792 19.1299C285.883 18.8645 284.84 18.7319 283.665 18.7319C282.414 18.7319 281.333 18.8645 280.423 19.1299C279.551 19.3953 278.888 19.7934 278.433 20.3242C277.978 20.817 277.75 21.4047 277.75 22.0871C277.75 22.8833 277.959 23.5088 278.376 23.9638C278.793 24.3808 279.608 24.722 280.821 24.9874C282.072 25.2149 283.911 25.4613 286.338 25.7267C289.636 26.1058 292.441 26.5987 294.754 27.2053C297.105 27.774 299 28.5701 300.441 29.5938C301.92 30.5795 303 31.8495 303.682 33.404C304.365 34.9584 304.706 36.8729 304.706 39.1477C304.706 41.9532 303.91 44.3606 302.318 46.37C300.725 48.3794 298.413 49.9148 295.38 50.9764C292.347 52.0379 288.631 52.5687 284.233 52.5687ZM313.584 52V10.5428H326.607V52H313.584ZM356.591 52.5687C353.482 52.5687 350.638 52.0758 348.06 51.0901C345.482 50.1044 343.265 48.7016 341.407 46.8818C339.587 45.062 338.165 42.901 337.142 40.3988C336.156 37.8587 335.663 35.0531 335.663 31.9822C335.663 28.4943 336.232 25.3855 337.369 22.6558C338.507 19.9261 340.137 17.6324 342.26 15.7747C344.421 13.8791 347.018 12.4384 350.051 11.4527C353.084 10.4669 356.496 9.97408 360.287 9.97408C364.458 9.97408 368.173 10.5996 371.433 11.8507C374.694 13.1019 377.31 14.8648 379.281 17.1395C381.253 19.3764 382.371 21.9923 382.637 24.9874H369.443C369.216 24.0396 368.685 23.1866 367.851 22.4283C367.017 21.6701 365.955 21.0824 364.666 20.6654C363.415 20.2104 361.974 19.983 360.344 19.983C357.69 19.983 355.51 20.4758 353.804 21.4615C352.098 22.4473 350.828 23.8121 349.994 25.5561C349.198 27.3001 348.8 29.3284 348.8 31.641C348.8 33.4608 349.065 35.0531 349.596 36.418C350.127 37.7828 350.866 38.9392 351.814 39.887C352.799 40.8348 353.975 41.5551 355.34 42.048C356.704 42.5029 358.202 42.7304 359.832 42.7304C361.576 42.7304 363.187 42.465 364.666 41.9343C366.183 41.4035 367.396 40.6831 368.306 39.7732C369.253 38.8254 369.727 37.7639 369.727 36.5886V35.2806L371.32 37.1573H359.719V28.6839H383.148V52H372.855L372.4 46.4837H371.945C371.187 47.7728 370.031 48.8722 368.476 49.7821C366.922 50.692 365.121 51.3934 363.074 51.8863C361.064 52.3412 358.903 52.5687 356.591 52.5687ZM393.211 52V10.5428H408.907L424.944 34.9963H425.399L425.058 23.3382V10.5428H437.967V52H422.499L406.462 27.8877H405.95L406.348 39.1477V52H393.211ZM24.8516 113.569C20.9845 113.569 17.5534 113.076 14.5584 112.09C11.5633 111.066 9.02316 109.626 6.93797 107.768C4.8907 105.872 3.33629 103.617 2.27475 101.001C1.2132 98.3848 0.682424 95.4655 0.682424 92.243C0.682424 89.0204 1.2132 86.1011 2.27475 83.4852C3.33629 80.8692 4.8907 78.6324 6.93797 76.7747C9.02316 74.917 11.5633 73.4953 14.5584 72.5095C17.5534 71.4859 20.9845 70.9741 24.8516 70.9741C29.2494 70.9741 33.0596 71.6186 36.2822 72.9076C39.5047 74.1966 42.0638 75.9785 43.9595 78.2533C45.8551 80.528 46.9735 83.1819 47.3147 86.2149H34.2349C33.9316 85.1912 33.325 84.3003 32.4151 83.5421C31.5052 82.7838 30.4058 82.1962 29.1167 81.7791C27.8277 81.3621 26.406 81.1536 24.8516 81.1536C22.6527 81.1536 20.7191 81.5516 19.051 82.3478C17.3828 83.1061 16.0938 84.3003 15.1839 85.9305C14.274 87.5608 13.8191 89.6649 13.8191 92.243C13.8191 94.1765 14.0845 95.8446 14.6152 97.2474C15.146 98.6122 15.8853 99.7496 16.8331 100.66C17.8188 101.569 18.9752 102.252 20.3021 102.707C21.6669 103.124 23.1834 103.332 24.8516 103.332C26.3681 103.332 27.7898 103.124 29.1167 102.707C30.4437 102.29 31.5621 101.702 32.472 100.944C33.4198 100.186 34.0454 99.2947 34.3487 98.271H47.3147C46.9735 101.342 45.7792 104.034 43.732 106.346C41.6847 108.621 39.0308 110.403 35.7704 111.692C32.5099 112.943 28.8703 113.569 24.8516 113.569ZM79.0767 113.569C75.2096 113.569 71.7786 113.076 68.7835 112.09C65.7884 111.066 63.2483 109.626 61.1631 107.768C59.1158 105.872 57.5614 103.617 56.4999 101.001C55.4383 98.3848 54.9075 95.4655 54.9075 92.243C54.9075 89.0204 55.4383 86.1011 56.4999 83.4852C57.5614 80.8692 59.1158 78.6324 61.1631 76.7747C63.2483 74.917 65.7884 73.4953 68.7835 72.5095C71.7786 71.4859 75.2096 70.9741 79.0767 70.9741C82.9059 70.9741 86.299 71.4859 89.2562 72.5095C92.2134 73.4953 94.7156 74.917 96.7629 76.7747C98.848 78.6324 100.421 80.8692 101.483 83.4852C102.545 86.1011 103.075 89.0204 103.075 92.243C103.075 95.4655 102.545 98.3848 101.483 101.001C100.421 103.617 98.848 105.872 96.7629 107.768C94.7156 109.626 92.2134 111.066 89.2562 112.09C86.299 113.076 82.9059 113.569 79.0767 113.569ZM79.0767 103.332C81.2756 103.332 83.1902 102.953 84.8204 102.195C86.4507 101.399 87.7207 100.186 88.6306 98.5554C89.5405 96.8872 89.9955 94.7831 89.9955 92.243C89.9955 90.3094 89.7301 88.6602 89.1993 87.2954C88.7065 85.8926 87.9672 84.7363 86.9815 83.8264C86.0336 82.9165 84.8773 82.253 83.5125 81.836C82.1855 81.381 80.7069 81.1536 79.0767 81.1536C76.8778 81.1536 74.9443 81.5516 73.2761 82.3478C71.608 83.1061 70.3189 84.3003 69.409 85.9305C68.4992 87.5608 68.0442 89.6649 68.0442 92.243C68.0442 94.1765 68.3096 95.8446 68.8404 97.2474C69.3711 98.6122 70.1104 99.7496 71.0582 100.66C72.044 101.569 73.2003 102.252 74.5272 102.707C75.8921 103.124 77.4086 103.332 79.0767 103.332ZM112.123 113V71.5428H127.818L143.855 95.9963H144.31L143.969 84.3382V71.5428H156.878V113H141.41L125.373 88.8877H124.861L125.259 100.148V113H112.123ZM167.903 113V71.5428H183.599L199.636 95.9963H200.09L199.749 84.3382V71.5428H212.658V113H197.19L181.153 88.8877H180.641L181.039 100.148V113H167.903ZM223.683 113V71.5428H259.965V81.7223H234.147L236.706 79.1632V105.38L234.147 102.821H260.136V113H223.683ZM234.147 96.963V87.466H257.122V96.963H234.147ZM291.479 113.569C287.612 113.569 284.181 113.076 281.186 112.09C278.191 111.066 275.65 109.626 273.565 107.768C271.518 105.872 269.964 103.617 268.902 101.001C267.84 98.3848 267.31 95.4655 267.31 92.243C267.31 89.0204 267.84 86.1011 268.902 83.4852C269.964 80.8692 271.518 78.6324 273.565 76.7747C275.65 74.917 278.191 73.4953 281.186 72.5095C284.181 71.4859 287.612 70.9741 291.479 70.9741C295.877 70.9741 299.687 71.6186 302.909 72.9076C306.132 74.1966 308.691 75.9785 310.587 78.2533C312.482 80.528 313.601 83.1819 313.942 86.2149H300.862C300.559 85.1912 299.952 84.3003 299.042 83.5421C298.132 82.7838 297.033 82.1962 295.744 81.7791C294.455 81.3621 293.033 81.1536 291.479 81.1536C289.28 81.1536 287.346 81.5516 285.678 82.3478C284.01 83.1061 282.721 84.3003 281.811 85.9305C280.901 87.5608 280.446 89.6649 280.446 92.243C280.446 94.1765 280.712 95.8446 281.242 97.2474C281.773 98.6122 282.513 99.7496 283.46 100.66C284.446 101.569 285.602 102.252 286.929 102.707C288.294 103.124 289.811 103.332 291.479 103.332C292.995 103.332 294.417 103.124 295.744 102.707C297.071 102.29 298.189 101.702 299.099 100.944C300.047 100.186 300.673 99.2947 300.976 98.271H313.942C313.601 101.342 312.406 104.034 310.359 106.346C308.312 108.621 305.658 110.403 302.398 111.692C299.137 112.943 295.498 113.569 291.479 113.569ZM332.648 113V80.9261H345.614V113H332.648ZM320.08 81.836V71.5428H358.523V81.836H320.08Z" fill="white"/>
<path d="M405.596 104.58C408.91 104.58 411.72 103.332 414.026 100.836C416.332 98.3398 417.485 95.3089 417.485 91.7432C417.485 88.1774 416.325 85.1538 414.005 82.6726C411.685 80.1913 408.869 78.9507 405.555 78.9507C402.241 78.9507 399.431 80.1987 397.125 82.6947C394.819 85.1908 393.666 88.2217 393.666 91.7875C393.666 95.3532 394.826 98.3768 397.146 100.858C399.465 103.339 402.282 104.58 405.596 104.58ZM405.575 101.942C402.948 101.942 400.715 100.952 398.876 98.9735C397.037 96.9948 396.118 94.5921 396.118 91.7653C396.118 88.9386 397.037 86.5358 398.876 84.5571C400.715 82.5784 402.948 81.589 405.575 81.589C408.202 81.589 410.435 82.5784 412.274 84.5571C414.113 86.5358 415.033 88.9386 415.033 91.7653C415.033 94.5921 414.113 96.9948 412.274 98.9735C410.435 100.952 408.202 101.942 405.575 101.942ZM405.588 115.133C398.282 115.133 391.623 113.013 385.61 108.773C379.597 104.533 375.043 98.8636 371.949 91.7653C375.043 84.667 379.593 78.9978 385.597 74.7577C391.602 70.5175 398.257 68.3975 405.563 68.3975C412.868 68.3975 419.528 70.5175 425.541 74.7577C431.554 78.9978 436.107 84.667 439.201 91.7653C436.107 98.8636 431.558 104.533 425.553 108.773C419.549 113.013 412.894 115.133 405.588 115.133ZM405.575 112.495C412.172 112.495 418.229 110.626 423.746 106.888C429.262 103.151 433.48 98.1098 436.399 91.7653C433.48 85.4208 429.262 80.3798 423.746 76.6422C418.229 72.9046 412.172 71.0358 405.575 71.0358C398.979 71.0358 392.922 72.9046 387.405 76.6422C381.888 80.3798 377.67 85.4208 374.751 91.7653C377.67 98.1098 381.888 103.151 387.405 106.888C392.922 110.626 398.979 112.495 405.575 112.495Z" fill="white"/>
</svg>
