<svg width="24" height="24" viewBox="0 0 24 24" fill="none" xmlns="http://www.w3.org/2000/svg">
<mask id="mask0_5386_90" style="mask-type:alpha" maskUnits="userSpaceOnUse" x="0" y="0" width="24" height="24">
<rect width="24" height="24" fill="#D9D9D9"/>
</mask>
<g mask="url(#mask0_5386_90)">
<path d="M12 16.4615C12.1743 16.4615 12.3205 16.4025 12.4385 16.2845C12.5565 16.1667 12.6155 16.0206 12.6155 15.8462C12.6155 15.6717 12.5565 15.5256 12.4385 15.4078C12.3205 15.2898 12.1743 15.2308 12 15.2308C11.8257 15.2308 11.6795 15.2898 11.5615 15.4078C11.4435 15.5256 11.3845 15.6717 11.3845 15.8462C11.3845 16.0206 11.4435 16.1667 11.5615 16.2845C11.6795 16.4025 11.8257 16.4615 12 16.4615ZM12.0008 13.1538C12.1426 13.1538 12.2612 13.1058 12.3567 13.01C12.4522 12.9142 12.5 12.7954 12.5 12.6538V7.65375C12.5 7.51208 12.452 7.39333 12.356 7.2975C12.26 7.20167 12.1411 7.15375 11.9993 7.15375C11.8574 7.15375 11.7388 7.20167 11.6433 7.2975C11.5478 7.39333 11.5 7.51208 11.5 7.65375V12.6538C11.5 12.7954 11.548 12.9142 11.644 13.01C11.74 13.1058 11.8589 13.1538 12.0008 13.1538ZM9.066 19H6.6155C6.17117 19 5.79083 18.8418 5.4745 18.5255C5.15817 18.2092 5 17.8288 5 17.3845V14.934L3.2095 13.1308C3.05183 12.9693 2.93583 12.7913 2.8615 12.5968C2.78717 12.4024 2.75 12.2047 2.75 12.0035C2.75 11.8025 2.78717 11.6036 2.8615 11.4067C2.93583 11.2099 3.05183 11.0308 3.2095 10.8693L5 9.066V6.6155C5 6.17117 5.15817 5.79083 5.4745 5.4745C5.79083 5.15817 6.17117 5 6.6155 5H9.066L10.8693 3.2095C11.0308 3.05183 11.2088 2.93583 11.4033 2.8615C11.5976 2.78717 11.7953 2.75 11.9965 2.75C12.1975 2.75 12.3964 2.78717 12.5933 2.8615C12.7901 2.93583 12.9692 3.05183 13.1307 3.2095L14.934 5H17.3845C17.8288 5 18.2092 5.15817 18.5255 5.4745C18.8418 5.79083 19 6.17117 19 6.6155V9.066L20.7905 10.8693C20.9482 11.0308 21.0642 11.2088 21.1385 11.4033C21.2128 11.5976 21.25 11.7953 21.25 11.9965C21.25 12.1975 21.2128 12.3964 21.1385 12.5933C21.0642 12.7901 20.9482 12.9693 20.7905 13.1308L19 14.934V17.3845C19 17.8288 18.8418 18.2092 18.5255 18.5255C18.2092 18.8418 17.8288 19 17.3845 19H14.934L13.1307 20.7905C12.9692 20.9482 12.7913 21.0642 12.5968 21.1385C12.4024 21.2128 12.2047 21.25 12.0035 21.25C11.8025 21.25 11.6036 21.2128 11.4067 21.1385C11.2099 21.0642 11.0308 20.9482 10.8693 20.7905L9.066 19Z" fill="#001464"/>
</g>
</svg>
