<svg width="24" height="24" viewBox="0 0 24 24" fill="none" xmlns="http://www.w3.org/2000/svg">
<mask id="mask0_5386_83" style="mask-type:alpha" maskUnits="userSpaceOnUse" x="0" y="0" width="24" height="24">
<rect width="24" height="24" fill="#D9D9D9"/>
</mask>
<g mask="url(#mask0_5386_83)">
<path d="M5.6155 20.9998C5.15517 20.9998 4.77083 20.8456 4.4625 20.5373C4.15417 20.229 4 19.8446 4 19.3843V6.61529C4 6.15496 4.15417 5.77063 4.4625 5.46229C4.77083 5.15396 5.15517 4.99979 5.6155 4.99979H7.3845V3.30754C7.3845 3.15238 7.4355 3.02379 7.5375 2.92179C7.6395 2.81996 7.768 2.76904 7.923 2.76904C8.07817 2.76904 8.20675 2.81996 8.30875 2.92179C8.41058 3.02379 8.4615 3.15238 8.4615 3.30754V4.99979H15.6155V3.26904C15.6155 3.12671 15.6632 3.00779 15.7587 2.91229C15.8542 2.81679 15.9732 2.76904 16.1155 2.76904C16.2577 2.76904 16.3765 2.81679 16.472 2.91229C16.5677 3.00779 16.6155 3.12671 16.6155 3.26904V4.99979H18.3845C18.8448 4.99979 19.2292 5.15396 19.5375 5.46229C19.8458 5.77063 20 6.15496 20 6.61529V19.3843C20 19.8446 19.8458 20.229 19.5375 20.5373C19.2292 20.8456 18.8448 20.9998 18.3845 20.9998H5.6155ZM5.6155 19.9998H18.3845C18.5385 19.9998 18.6796 19.9357 18.8077 19.8075C18.9359 19.6794 19 19.5383 19 19.3843V10.6153H5V19.3843C5 19.5383 5.06408 19.6794 5.19225 19.8075C5.32042 19.9357 5.4615 19.9998 5.6155 19.9998Z" fill="#001464"/>
</g>
</svg>
