<?xml version="1.0" encoding="UTF-8"?>
<svg id="Layer_1" xmlns="http://www.w3.org/2000/svg" version="1.1" viewBox="0 0 24 24">
  <!-- Generator: Adobe Illustrator 29.0.1, SVG Export Plug-In . SVG Version: 2.1.0 Build 192)  -->
  <defs>
    <style>
      .st0 {
        fill: #fff;
      }
    </style>
  </defs>
  <path class="st0" d="M17.6,4.2c-1.6-1.5-3.5-2.2-5.6-2.2s-4,.7-5.6,2.2c-1.6,1.5-2.4,3.5-2.4,6s.7,3.5,2,5.4,3.3,4.1,6,6.4c2.7-2.3,4.7-4.4,6-6.4s2-3.8,2-5.4c0-2.5-.8-4.5-2.4-6ZM13.4,11.4c-.4.4-.9.6-1.4.6s-1-.2-1.4-.6c-.4-.4-.6-.9-.6-1.4s.2-1,.6-1.4c.4-.4.9-.6,1.4-.6s1,.2,1.4.6c.4.4.6.9.6,1.4s-.2,1-.6,1.4Z"/>
</svg>