<svg width="49" height="21" viewBox="0 0 49 21" fill="none" xmlns="http://www.w3.org/2000/svg">
<rect width="49" height="21" rx="10.5" fill="url(#paint0_linear_5801_482)"/>
<path d="M20.274 6.172C20.47 6.172 20.638 6.23733 20.778 6.368C20.918 6.49867 20.988 6.65733 20.988 6.844C20.988 6.94667 20.9647 7.054 20.918 7.166L17.376 15.538C17.3013 15.6967 17.1987 15.8133 17.068 15.888C16.9467 15.9627 16.8207 16 16.69 16C16.5593 15.9907 16.4333 15.9487 16.312 15.874C16.2 15.7993 16.1113 15.692 16.046 15.552L12.504 7.166C12.4853 7.11933 12.4713 7.07267 12.462 7.026C12.4527 6.97 12.448 6.914 12.448 6.858C12.448 6.64333 12.5273 6.47533 12.686 6.354C12.8447 6.23267 12.9987 6.172 13.148 6.172C13.4467 6.172 13.666 6.326 13.806 6.634L17.012 14.236H16.606L19.63 6.62C19.7607 6.32133 19.9753 6.172 20.274 6.172ZM25.7176 15.286C25.7083 15.4913 25.6289 15.664 25.4796 15.804C25.3396 15.9347 25.1716 16 24.9756 16C24.7609 16 24.5836 15.9347 24.4436 15.804C24.3129 15.664 24.2476 15.4913 24.2476 15.286V6.914C24.2476 6.70867 24.3176 6.54067 24.4576 6.41C24.5976 6.27 24.7796 6.2 25.0036 6.2C25.1903 6.2 25.3536 6.27 25.4936 6.41C25.6429 6.54067 25.7176 6.70867 25.7176 6.914V15.286ZM33.608 6.2C34.1027 6.2 34.56 6.33533 34.98 6.606C35.4 6.86733 35.736 7.22667 35.988 7.684C36.24 8.14133 36.366 8.65467 36.366 9.224C36.366 9.79333 36.24 10.3113 35.988 10.778C35.736 11.2353 35.4 11.604 34.98 11.884C34.56 12.1547 34.1027 12.29 33.608 12.29H30.906L31.018 12.066V15.286C31.018 15.4913 30.9527 15.664 30.822 15.804C30.7007 15.9347 30.5373 16 30.332 16C30.136 16 29.9727 15.9347 29.842 15.804C29.7207 15.664 29.66 15.4913 29.66 15.286V6.914C29.66 6.70867 29.73 6.54067 29.87 6.41C30.01 6.27 30.178 6.2 30.374 6.2H33.608ZM33.608 10.946C33.8507 10.946 34.07 10.8667 34.266 10.708C34.4713 10.5493 34.6347 10.3393 34.756 10.078C34.8867 9.81667 34.952 9.532 34.952 9.224C34.952 8.916 34.8867 8.636 34.756 8.384C34.6347 8.132 34.4713 7.93133 34.266 7.782C34.07 7.62333 33.8507 7.544 33.608 7.544H30.878L31.018 7.334V11.128L30.892 10.946H33.608Z" fill="#0F1524"/>
<defs>
<linearGradient id="paint0_linear_5801_482" x1="-3.1458e-08" y1="11" x2="49" y2="11" gradientUnits="userSpaceOnUse">
<stop stop-color="#09BFD3"/>
<stop offset="1" stop-color="#B8FAFF"/>
</linearGradient>
</defs>
</svg>
