<svg width="15" height="15" viewBox="0 0 15 15" fill="none" xmlns="http://www.w3.org/2000/svg">
<path d="M7 14C7 14.2761 7.22386 14.5 7.5 14.5C7.77614 14.5 8 14.2761 8 14C8 12.318 8.57934 10.9096 9.74446 9.74446C10.9096 8.57934 12.318 8 14 8C14.2761 8 14.5 7.77614 14.5 7.5C14.5 7.22386 14.2761 7 14 7C12.318 7 10.9096 6.42066 9.74446 5.25554C8.57934 4.09042 8 2.68196 8 1C8 0.723858 7.77614 0.5 7.5 0.5C7.22386 0.5 7 0.723858 7 1C7 2.68196 6.42066 4.09042 5.25554 5.25554C4.09042 6.42066 2.68196 7 1 7C0.723858 7 0.5 7.22386 0.5 7.5C0.5 7.77614 0.723858 8 1 8C2.68196 8 4.09042 8.57934 5.25554 9.74446C6.42066 10.9096 7 12.318 7 14Z" fill="white" stroke="#0F1524" stroke-linejoin="round"/>
</svg>
