<svg width="46" height="46" viewBox="0 0 46 46" fill="none" xmlns="http://www.w3.org/2000/svg">
<mask id="mask0_3081_713" style="mask-type:alpha" maskUnits="userSpaceOnUse" x="0" y="0" width="46" height="46">
<rect width="46" height="46" fill="#D9D9D9"/>
</mask>
<g mask="url(#mask0_3081_713)">
<path d="M22.9999 42.1667C20.3485 42.1667 17.8569 41.6632 15.5249 40.6563C13.193 39.6507 11.1645 38.2854 9.4395 36.5604C7.7145 34.8354 6.3492 32.807 5.34359 30.475C4.3367 28.1431 3.83325 25.6514 3.83325 23C3.83325 20.3486 4.3367 17.857 5.34359 15.525C6.3492 13.1931 7.7145 11.1646 9.4395 9.43959C11.1645 7.71459 13.193 6.34865 15.5249 5.34176C17.8569 4.33615 20.3485 3.83334 22.9999 3.83334C25.6513 3.83334 28.143 4.33615 30.4749 5.34176C32.8069 6.34865 34.8353 7.71459 36.5603 9.43959C38.2853 11.1646 39.6506 13.1931 40.6562 15.525C41.6631 17.857 42.1666 20.3486 42.1666 23C42.1666 25.6514 41.6631 28.1431 40.6562 30.475C39.6506 32.807 38.2853 34.8354 36.5603 36.5604C34.8353 38.2854 32.8069 39.6507 30.4749 40.6563C28.143 41.6632 25.6513 42.1667 22.9999 42.1667ZM21.0833 38.2375V34.5C20.0291 34.5 19.127 34.125 18.3769 33.3749C17.6256 32.6236 17.2499 31.7208 17.2499 30.6667V28.75L8.04992 19.55C7.95408 20.125 7.86592 20.7 7.78542 21.275C7.7062 21.85 7.66659 22.425 7.66659 23C7.66659 26.8653 8.9367 30.2514 11.4769 33.1583C14.0159 36.0653 17.218 37.7583 21.0833 38.2375ZM34.3083 33.35C34.9471 32.6472 35.5221 31.8882 36.0332 31.073C36.5444 30.2591 36.9679 29.4125 37.304 28.5334C37.6388 27.6556 37.8943 26.7535 38.0707 25.8271C38.2457 24.9007 38.3333 23.9583 38.3333 23C38.3333 19.8695 37.4631 17.0104 35.7228 14.4229C33.9811 11.8354 31.6569 9.96668 28.7499 8.81668V9.58334C28.7499 10.6375 28.3749 11.5396 27.6248 12.2897C26.8735 13.041 25.9708 13.4167 24.9166 13.4167H21.0833V17.25C21.0833 17.7931 20.8999 18.248 20.5332 18.6147C20.1652 18.9827 19.7096 19.1667 19.1666 19.1667H15.3333V23H26.8333C27.3763 23 27.8318 23.1834 28.1998 23.5501C28.5666 23.9181 28.7499 24.3736 28.7499 24.9167V30.6667H30.6666C31.4971 30.6667 32.2478 30.9139 32.9187 31.4084C33.5895 31.9042 34.0527 32.5514 34.3083 33.35Z" fill="url(#paint0_linear_3081_713)"/>
</g>
<defs>
<linearGradient id="paint0_linear_3081_713" x1="-12.7934" y1="22.969" x2="50.9279" y2="22.8219" gradientUnits="userSpaceOnUse">
<stop offset="0.317708" stop-color="#E43425"/>
<stop offset="0.71875" stop-color="#441FD8"/>
<stop offset="1" stop-color="#0A26B8"/>
</linearGradient>
</defs>
</svg>
