<svg width="46" height="46" viewBox="0 0 46 46" fill="none" xmlns="http://www.w3.org/2000/svg">
<mask id="mask0_3081_722" style="mask-type:alpha" maskUnits="userSpaceOnUse" x="0" y="0" width="46" height="46">
<rect width="46" height="46" fill="#D9D9D9"/>
</mask>
<g mask="url(#mask0_3081_722)">
<path d="M9.58333 40.25C8.52917 40.25 7.62642 39.875 6.87508 39.1249C6.12503 38.3736 5.75 37.4708 5.75 36.4167V9.58332C5.75 8.52916 6.12503 7.62641 6.87508 6.87507C7.62642 6.12502 8.52917 5.74999 9.58333 5.74999H17.6333C18.0486 4.59999 18.7437 3.6736 19.7187 2.97082C20.6923 2.26805 21.7861 1.91666 23 1.91666C24.2139 1.91666 25.3083 2.26805 26.2833 2.97082C27.2569 3.6736 27.9514 4.59999 28.3667 5.74999H36.4167C37.4708 5.74999 38.3736 6.12502 39.1249 6.87507C39.875 7.62641 40.25 8.52916 40.25 9.58332V36.4167C40.25 37.4708 39.875 38.3736 39.1249 39.1249C38.3736 39.875 37.4708 40.25 36.4167 40.25H9.58333ZM9.58333 36.4167H36.4167V9.58332H9.58333V36.4167ZM13.4167 32.5833H26.8333V28.75H13.4167V32.5833ZM13.4167 24.9167H32.5833V21.0833H13.4167V24.9167ZM13.4167 17.25H32.5833V13.4167H13.4167V17.25ZM23 8.14582C23.4153 8.14582 23.759 8.00974 24.0312 7.73757C24.3021 7.46668 24.4375 7.1236 24.4375 6.70832C24.4375 6.29305 24.3021 5.94932 24.0312 5.67716C23.759 5.40627 23.4153 5.27082 23 5.27082C22.5847 5.27082 22.2416 5.40627 21.9708 5.67716C21.6986 5.94932 21.5625 6.29305 21.5625 6.70832C21.5625 7.1236 21.6986 7.46668 21.9708 7.73757C22.2416 8.00974 22.5847 8.14582 23 8.14582Z" fill="url(#paint0_linear_3081_722)"/>
</g>
<defs>
<linearGradient id="paint0_linear_3081_722" x1="-9.214" y1="21.0524" x2="48.1353" y2="20.9332" gradientUnits="userSpaceOnUse">
<stop offset="0.317708" stop-color="#E43425"/>
<stop offset="0.71875" stop-color="#441FD8"/>
<stop offset="1" stop-color="#0A26B8"/>
</linearGradient>
</defs>
</svg>
