<svg width="46" height="46" viewBox="0 0 46 46" fill="none" xmlns="http://www.w3.org/2000/svg">
<mask id="mask0_3081_441" style="mask-type:alpha" maskUnits="userSpaceOnUse" x="0" y="0" width="46" height="46">
<rect width="46" height="46" fill="#D9D9D9"/>
</mask>
<g mask="url(#mask0_3081_441)">
<path d="M0 34.5V31.4812C0 30.0757 0.711083 28.9493 2.13325 28.1022C3.55414 27.2563 5.39861 26.8333 7.66667 26.8333C8.08194 26.8333 8.48125 26.841 8.86458 26.8563C9.24792 26.8729 9.61528 26.9132 9.96667 26.9771C9.51944 27.616 9.18403 28.3028 8.96042 29.0375C8.73681 29.7722 8.625 30.5549 8.625 31.3854V34.5H0ZM11.5 34.5V31.3854C11.5 29.309 12.5625 27.6319 14.6874 26.3542C16.8111 25.0764 19.5819 24.4375 23 24.4375C26.45 24.4375 29.2292 25.0764 31.3375 26.3542C33.4458 27.6319 34.5 29.309 34.5 31.3854V34.5H11.5ZM37.375 34.5V31.3854C37.375 30.5549 37.2709 29.7722 37.0626 29.0375C36.8556 28.3028 36.5444 27.616 36.1292 26.9771C36.4806 26.9132 36.8402 26.8729 37.2082 26.8563C37.575 26.841 37.95 26.8333 38.3333 26.8333C40.6333 26.8333 42.4861 27.2563 43.8917 28.1022C45.2972 28.9493 46 30.0757 46 31.4812V34.5H37.375ZM23 28.2708C21.1792 28.2708 19.55 28.5104 18.1125 28.9896C16.675 29.4688 15.8285 30.0278 15.5729 30.6667H30.475C30.1875 30.0278 29.3327 29.4688 27.9105 28.9896C26.4896 28.5104 24.8528 28.2708 23 28.2708ZM7.66667 24.9167C6.6125 24.9167 5.71039 24.541 4.96033 23.7897C4.209 23.0396 3.83333 22.1375 3.83333 21.0833C3.83333 19.9972 4.209 19.0868 4.96033 18.3521C5.71039 17.6174 6.6125 17.25 7.66667 17.25C8.75278 17.25 9.66319 17.6174 10.3979 18.3521C11.1326 19.0868 11.5 19.9972 11.5 21.0833C11.5 22.1375 11.1326 23.0396 10.3979 23.7897C9.66319 24.541 8.75278 24.9167 7.66667 24.9167ZM38.3333 24.9167C37.2792 24.9167 36.3764 24.541 35.6251 23.7897C34.875 23.0396 34.5 22.1375 34.5 21.0833C34.5 19.9972 34.875 19.0868 35.6251 18.3521C36.3764 17.6174 37.2792 17.25 38.3333 17.25C39.4194 17.25 40.3299 17.6174 41.0646 18.3521C41.7993 19.0868 42.1667 19.9972 42.1667 21.0833C42.1667 22.1375 41.7993 23.0396 41.0646 23.7897C40.3299 24.541 39.4194 24.9167 38.3333 24.9167ZM23 23C21.4028 23 20.0451 22.441 18.9271 21.3229C17.809 20.2049 17.25 18.8472 17.25 17.25C17.25 15.6208 17.809 14.2549 18.9271 13.1522C20.0451 12.0507 21.4028 11.5 23 11.5C24.6292 11.5 25.9945 12.0507 27.0959 13.1522C28.1986 14.2549 28.75 15.6208 28.75 17.25C28.75 18.8472 28.1986 20.2049 27.0959 21.3229C25.9945 22.441 24.6292 23 23 23ZM23 15.3333C22.4569 15.3333 22.0021 15.5167 21.6353 15.8834C21.2673 16.2514 21.0833 16.7069 21.0833 17.25C21.0833 17.7931 21.2673 18.2479 21.6353 18.6147C22.0021 18.9827 22.4569 19.1667 23 19.1667C23.5431 19.1667 23.9986 18.9827 24.3666 18.6147C24.7333 18.2479 24.9167 17.7931 24.9167 17.25C24.9167 16.7069 24.7333 16.2514 24.3666 15.8834C23.9986 15.5167 23.5431 15.3333 23 15.3333Z" fill="url(#paint0_linear_3081_441)"/>
</g>
<defs>
<linearGradient id="paint0_linear_3081_441" x1="-19.952" y1="22.9814" x2="56.5124" y2="22.6283" gradientUnits="userSpaceOnUse">
<stop offset="0.317708" stop-color="#E43425"/>
<stop offset="0.71875" stop-color="#441FD8"/>
<stop offset="1" stop-color="#0A26B8"/>
</linearGradient>
</defs>
</svg>
