<svg width="46" height="46" viewBox="0 0 46 46" fill="none" xmlns="http://www.w3.org/2000/svg">
<mask id="mask0_3081_719" style="mask-type:alpha" maskUnits="userSpaceOnUse" x="0" y="0" width="46" height="46">
<rect width="46" height="46" fill="#D9D9D9"/>
</mask>
<g mask="url(#mask0_3081_719)">
<path d="M21.0834 7.66666V1.91666H24.9167V7.66666H21.0834ZM21.0834 44.0833V38.3333H24.9167V44.0833H21.0834ZM38.3334 24.9167V21.0833H44.0834V24.9167H38.3334ZM1.91675 24.9167V21.0833H7.66675V24.9167H1.91675ZM35.8418 12.8417L33.1584 10.1583L36.5126 6.70832L39.2917 9.48749L35.8418 12.8417ZM9.48758 39.2917L6.70842 36.5125L10.1584 33.1583L12.8417 35.8417L9.48758 39.2917ZM36.5126 39.2917L33.1584 35.8417L35.8418 33.1583L39.2917 36.5125L36.5126 39.2917ZM10.1584 12.8417L6.70842 9.48749L9.48758 6.70832L12.8417 10.1583L10.1584 12.8417ZM23.0001 34.5C19.8056 34.5 17.0904 33.3819 14.8542 31.1458C12.6181 28.9097 11.5001 26.1944 11.5001 23C11.5001 19.8055 12.6181 17.0903 14.8542 14.8542C17.0904 12.618 19.8056 11.5 23.0001 11.5C26.1945 11.5 28.9098 12.618 31.1459 14.8542C33.382 17.0903 34.5001 19.8055 34.5001 23C34.5001 26.1944 33.382 28.9097 31.1459 31.1458C28.9098 33.3819 26.1945 34.5 23.0001 34.5ZM23.0001 30.6667C25.1404 30.6667 26.9532 29.924 28.4386 28.4385C29.924 26.9531 30.6667 25.1403 30.6667 23C30.6667 20.8597 29.924 19.0469 28.4386 17.5615C26.9532 16.076 25.1404 15.3333 23.0001 15.3333C20.8598 15.3333 19.047 16.076 17.5615 17.5615C16.0761 19.0469 15.3334 20.8597 15.3334 23C15.3334 25.1403 16.0761 26.9531 17.5615 28.4385C19.047 29.924 20.8598 30.6667 23.0001 30.6667Z" fill="url(#paint0_linear_3081_719)"/>
</g>
<defs>
<linearGradient id="paint0_linear_3081_719" x1="-16.3726" y1="22.9659" x2="53.7209" y2="22.8041" gradientUnits="userSpaceOnUse">
<stop offset="0.317708" stop-color="#E43425"/>
<stop offset="0.71875" stop-color="#441FD8"/>
<stop offset="1" stop-color="#0A26B8"/>
</linearGradient>
</defs>
</svg>
