<?xml version="1.0" encoding="UTF-8"?><svg id="Layer_11" xmlns="http://www.w3.org/2000/svg" viewBox="0 0 314.31 162.2"><defs><style>.cls-1{fill:#041460;}</style></defs><g><path class="cls-1" d="M13.34,80.92v16.6H1.55V48.59H21.07c3.74,0,7.05,.69,9.93,2.07,2.88,1.38,5.11,3.34,6.69,5.88,1.58,2.54,2.37,5.43,2.37,8.65,0,4.77-1.71,8.59-5.12,11.44-3.42,2.86-8.1,4.28-14.06,4.28h-7.53Zm0-9.11h7.73c2.29,0,4.03-.57,5.23-1.71,1.2-1.14,1.8-2.76,1.8-4.84,0-2.29-.62-4.11-1.85-5.48-1.23-1.37-2.91-2.06-5.04-2.08h-7.86v14.11Z"/><path class="cls-1" d="M70.57,71.41l-3.73-.27c-3.56,0-5.85,1.12-6.86,3.36v23.02h-11.33V61.16h10.62l.37,4.67c1.9-3.56,4.56-5.34,7.96-5.34,1.21,0,2.26,.13,3.16,.4l-.2,10.52Z"/><path class="cls-1" d="M74.77,79.01c0-3.63,.71-6.86,2.12-9.7,1.41-2.83,3.44-5.01,6.08-6.54,2.64-1.52,5.75-2.29,9.31-2.29,5.44,0,9.73,1.69,12.87,5.06,3.14,3.37,4.7,7.96,4.7,13.76v.4c0,5.67-1.57,10.17-4.72,13.49-3.15,3.33-7.41,4.99-12.79,4.99s-9.33-1.55-12.47-4.65c-3.14-3.1-4.83-7.31-5.07-12.62l-.03-1.92Zm11.33,.71c0,3.36,.53,5.83,1.58,7.39,1.05,1.57,2.61,2.35,4.67,2.35,4.03,0,6.09-3.1,6.18-9.31v-1.14c0-6.52-2.08-9.78-6.25-9.78-3.79,0-5.84,2.81-6.15,8.44l-.03,2.05Z"/><path class="cls-1" d="M116.17,79.07c0-5.76,1.24-10.29,3.73-13.61,2.49-3.32,5.96-4.97,10.42-4.97,3.25,0,5.98,1.28,8.2,3.83v-18.42h11.36v51.62h-10.18l-.57-3.9c-2.33,3.05-5.29,4.57-8.87,4.57-4.32,0-7.75-1.66-10.28-4.97-2.53-3.32-3.8-8.03-3.8-14.15Zm11.33,.71c0,6.45,1.88,9.68,5.65,9.68,2.51,0,4.3-1.05,5.38-3.16v-13.85c-1.03-2.15-2.8-3.23-5.31-3.23-3.5,0-5.39,2.82-5.68,8.47l-.03,2.08Z"/><path class="cls-1" d="M180.73,93.59c-2.4,3.07-5.63,4.6-9.71,4.6s-7.01-1.16-9.06-3.48c-2.05-2.32-3.08-5.65-3.08-10v-23.56h11.33v23.63c0,3.11,1.51,4.67,4.54,4.67,2.6,0,4.45-.93,5.55-2.79v-25.51h11.39v36.36h-10.62l-.34-3.93Z"/><path class="cls-1" d="M216.01,89.46c1.59,0,2.82-.43,3.7-1.29,.87-.86,1.3-2.07,1.28-3.61h10.62c0,3.99-1.43,7.26-4.28,9.81-2.86,2.55-6.54,3.83-11.04,3.83-5.29,0-9.46-1.66-12.5-4.97-3.05-3.32-4.57-7.91-4.57-13.78v-.47c0-3.67,.68-6.92,2.03-9.73,1.36-2.81,3.31-4.97,5.86-6.49,2.55-1.51,5.58-2.27,9.07-2.27,4.73,0,8.48,1.31,11.26,3.93,2.78,2.62,4.17,6.17,4.17,10.65h-10.62c0-1.88-.46-3.33-1.38-4.33-.92-1.01-2.15-1.51-3.7-1.51-2.94,0-4.65,1.87-5.14,5.61-.16,1.19-.24,2.82-.24,4.91,0,3.65,.44,6.18,1.31,7.6,.87,1.41,2.26,2.12,4.17,2.12Z"/><path class="cls-1" d="M252.34,52.12v9.04h5.98v7.86h-5.98v16.64c0,1.37,.25,2.32,.74,2.86,.49,.54,1.47,.81,2.92,.81,1.12,0,2.06-.07,2.82-.2v8.1c-2.04,.65-4.17,.97-6.39,.97-3.9,0-6.78-.92-8.64-2.76-1.86-1.84-2.79-4.63-2.79-8.37v-18.05h-4.64v-7.86h4.64v-9.04h11.33Z"/><path class="cls-1" d="M26.78,148.52c0-1.72-.61-3.07-1.83-4.03-1.22-.96-3.37-1.96-6.44-2.99-3.07-1.03-5.58-2.03-7.53-2.99-6.34-3.11-9.51-7.39-9.51-12.84,0-2.71,.79-5.1,2.37-7.17,1.58-2.07,3.81-3.69,6.7-4.84,2.89-1.15,6.14-1.73,9.75-1.73s6.67,.63,9.46,1.88c2.79,1.25,4.96,3.04,6.5,5.36,1.55,2.32,2.32,4.97,2.32,7.95h-11.76c0-1.99-.61-3.54-1.83-4.64-1.22-1.1-2.87-1.65-4.96-1.65s-3.77,.46-4.99,1.39c-1.22,.93-1.83,2.11-1.83,3.54,0,1.26,.67,2.39,2.02,3.41,1.34,1.02,3.71,2.07,7.09,3.16,3.38,1.09,6.16,2.26,8.33,3.51,5.29,3.05,7.93,7.25,7.93,12.6,0,4.28-1.61,7.64-4.84,10.08-3.23,2.44-7.65,3.66-13.27,3.66-3.97,0-7.56-.71-10.77-2.13-3.22-1.42-5.63-3.37-7.26-5.85-1.62-2.48-2.44-5.33-2.44-8.55H11.83c0,2.62,.68,4.55,2.03,5.8,1.36,1.24,3.56,1.87,6.6,1.87,1.95,0,3.49-.42,4.62-1.26,1.13-.84,1.7-2.02,1.7-3.55Z"/><path class="cls-1" d="M68.52,157.59c-2.4,3.07-5.63,4.6-9.71,4.6s-7.01-1.16-9.06-3.48c-2.05-2.32-3.07-5.65-3.07-10v-23.56h11.33v23.62c0,3.12,1.51,4.67,4.54,4.67,2.6,0,4.45-.93,5.55-2.79v-25.51h11.39v36.36h-10.62l-.34-3.93Z"/><path class="cls-1" d="M99.13,125.16l.37,4.27c2.58-3.29,6.04-4.94,10.38-4.94,4.59,0,7.7,1.83,9.31,5.48,2.46-3.65,6.03-5.48,10.69-5.48,7.37,0,11.16,4.46,11.36,13.38v23.66h-11.36v-22.95c0-1.86-.31-3.21-.94-4.07-.63-.85-1.77-1.28-3.43-1.28-2.24,0-3.91,1-5.01,2.99l.03,.47v24.83h-11.36v-22.89c0-1.9-.3-3.28-.91-4.13-.6-.85-1.76-1.28-3.46-1.28-2.17,0-3.83,1-4.97,2.99v25.31h-11.33v-36.36h10.62Z"/><path class="cls-1" d="M161.17,125.16l.37,4.27c2.58-3.29,6.04-4.94,10.38-4.94,4.59,0,7.7,1.83,9.31,5.48,2.46-3.65,6.03-5.48,10.69-5.48,7.37,0,11.16,4.46,11.36,13.38v23.66h-11.36v-22.95c0-1.86-.31-3.21-.94-4.07-.63-.85-1.77-1.28-3.43-1.28-2.24,0-3.91,1-5.01,2.99l.03,.47v24.83h-11.36v-22.89c0-1.9-.3-3.28-.91-4.13-.6-.85-1.76-1.28-3.46-1.28-2.17,0-3.83,1-4.97,2.99v25.31h-11.33v-36.36h10.62Z"/><path class="cls-1" d="M212.42,115.79c0-1.61,.58-2.94,1.75-3.97,1.16-1.03,2.68-1.55,4.54-1.55s3.37,.52,4.54,1.55c1.16,1.03,1.75,2.35,1.75,3.97s-.58,2.94-1.75,3.97c-1.17,1.03-2.68,1.55-4.54,1.55s-3.37-.52-4.54-1.55c-1.17-1.03-1.75-2.35-1.75-3.97Zm12.03,45.74h-11.36v-36.36h11.36v36.36Z"/><path class="cls-1" d="M247.36,116.12v9.04h5.98v7.86h-5.98v16.63c0,1.37,.25,2.32,.74,2.86,.49,.54,1.47,.81,2.92,.81,1.12,0,2.06-.07,2.82-.2v8.1c-2.04,.65-4.17,.97-6.39,.97-3.9,0-6.78-.92-8.64-2.76-1.86-1.84-2.79-4.63-2.79-8.37v-18.05h-4.64v-7.86h4.64v-9.04h11.33Z"/></g><g><path class="cls-1" d="M254.77,14.03l.04-.46c.1-.77,.44-1.25,1.13-1.62l6.25-3.26c1.51-.78,2.57-1.45,2.88-2.66,.24-.93-.46-1.68-1.44-1.93-.74-.19-1.32-.09-1.73,.28-.65,.6-.99,.99-1.81,.78l-1.81-.46c-.93-.24-1.38-.92-.94-1.77,1.12-2.17,3.51-3.59,7.38-2.61,3.65,.93,5.75,3.69,4.9,7.04-.57,2.23-2.58,3.8-4.49,4.7l-2.85,1.26v.1c1.08,.15,3.06,.61,3.16,.63l1.65,.42c.91,.23,1.27,.84,1.04,1.75l-.26,1.02c-.23,.91-.84,1.27-1.75,1.04l-10.19-2.59c-.86-.22-1.26-.79-1.16-1.66Z"/><path class="cls-1" d="M274.44,12.44c2.55-4.07,7.05-5.81,11.13-3.24,4.05,2.54,4.53,7.41,1.98,11.47-2.54,4.04-7.15,5.74-11.19,3.21-4.09-2.56-4.46-7.39-1.92-11.43Zm9.03,5.67c1.46-2.32,1.54-4.62,.01-5.57-1.52-.96-3.5,.16-4.95,2.47-1.43,2.28-1.6,4.58-.07,5.53,1.52,.96,3.58-.16,5.01-2.43Z"/><path class="cls-1" d="M286.26,29.05l.3-.35c.52-.57,1.09-.76,1.86-.66l6.99,.98c1.68,.24,2.94,.31,3.89-.49,.73-.62,.6-1.64-.05-2.41-.5-.59-1.02-.84-1.57-.78-.88,.11-1.38,.23-1.92-.42l-1.21-1.43c-.62-.73-.59-1.55,.27-1.99,2.17-1.11,4.94-.88,7.52,2.16,2.43,2.88,2.53,6.34-.1,8.58-1.76,1.49-4.31,1.6-6.39,1.22l-3.05-.63-.06,.08c.79,.75,2.14,2.27,2.2,2.35l1.1,1.3c.6,.71,.54,1.43-.17,2.03l-.81,.68c-.71,.6-1.43,.55-2.03-.17l-6.79-8.03c-.57-.68-.57-1.38,.02-2.03Z"/><path class="cls-1" d="M296.69,42.24l.39-.25c.67-.39,1.26-.41,1.97-.09l6.39,2.98c1.54,.73,2.71,1.16,3.86,.67,.88-.38,1.05-1.39,.65-2.32-.3-.71-.73-1.1-1.27-1.2-.87-.15-1.39-.19-1.72-.96l-.74-1.72c-.38-.88-.11-1.65,.84-1.82,2.4-.43,4.98,.61,6.55,4.27,1.48,3.46,.56,6.8-2.61,8.16-2.12,.91-4.58,.26-6.46-.71l-2.73-1.49-.08,.06c.54,.95,1.38,2.8,1.42,2.89l.67,1.57c.37,.86,.1,1.52-.76,1.89l-.97,.42c-.86,.37-1.52,.1-1.89-.76l-4.13-9.66c-.35-.82-.14-1.48,.61-1.93Z"/></g></svg>