<svg width="75" height="75" viewBox="0 0 75 75" fill="none" xmlns="http://www.w3.org/2000/svg">
<path d="M21.2081 30.625V42H19.7003V30.625H21.2081ZM30.8975 38.3828H32.3975C32.3194 39.1016 32.1136 39.7448 31.7803 40.3125C31.447 40.8802 30.9756 41.3307 30.3662 41.6641C29.7569 41.9922 28.9965 42.1562 28.085 42.1562C27.4183 42.1562 26.8116 42.0312 26.2647 41.7812C25.723 41.5312 25.2569 41.1771 24.8662 40.7188C24.4756 40.2552 24.1735 39.7005 23.96 39.0547C23.7517 38.4036 23.6475 37.6797 23.6475 36.8828V35.75C23.6475 34.9531 23.7517 34.2318 23.96 33.5859C24.1735 32.9349 24.4782 32.3776 24.8741 31.9141C25.2751 31.4505 25.7569 31.0938 26.3194 30.8438C26.8819 30.5938 27.5147 30.4688 28.2178 30.4688C29.0772 30.4688 29.8037 30.6302 30.3975 30.9531C30.9912 31.276 31.4522 31.724 31.7803 32.2969C32.1136 32.8646 32.3194 33.5234 32.3975 34.2734H30.8975C30.8246 33.7422 30.6892 33.2865 30.4912 32.9062C30.2933 32.5208 30.0121 32.224 29.6475 32.0156C29.2829 31.8073 28.8064 31.7031 28.2178 31.7031C27.7126 31.7031 27.2673 31.7995 26.8819 31.9922C26.5017 32.1849 26.1814 32.4583 25.9209 32.8125C25.6657 33.1667 25.473 33.5911 25.3428 34.0859C25.2126 34.5807 25.1475 35.1302 25.1475 35.7344V36.8828C25.1475 37.4401 25.2048 37.9635 25.3194 38.4531C25.4392 38.9427 25.6189 39.3724 25.8584 39.7422C26.098 40.112 26.4027 40.4036 26.7725 40.6172C27.1423 40.8255 27.5798 40.9297 28.085 40.9297C28.7256 40.9297 29.236 40.8281 29.6162 40.625C29.9965 40.4219 30.2829 40.1302 30.4756 39.75C30.6735 39.3698 30.8142 38.9141 30.8975 38.3828ZM43.29 35.9531V36.6719C43.29 37.526 43.1832 38.2917 42.9697 38.9688C42.7561 39.6458 42.4489 40.2214 42.0478 40.6953C41.6468 41.1693 41.165 41.5312 40.6025 41.7812C40.0452 42.0312 39.4202 42.1562 38.7275 42.1562C38.0556 42.1562 37.4384 42.0312 36.8759 41.7812C36.3186 41.5312 35.8343 41.1693 35.4228 40.6953C35.0166 40.2214 34.7015 39.6458 34.4775 38.9688C34.2535 38.2917 34.1416 37.526 34.1416 36.6719V35.9531C34.1416 35.099 34.2509 34.3359 34.4697 33.6641C34.6936 32.987 35.0087 32.4115 35.415 31.9375C35.8212 31.4583 36.303 31.0938 36.8603 30.8438C37.4228 30.5938 38.04 30.4688 38.7119 30.4688C39.4046 30.4688 40.0296 30.5938 40.5869 30.8438C41.1494 31.0938 41.6311 31.4583 42.0322 31.9375C42.4384 32.4115 42.7483 32.987 42.9619 33.6641C43.1806 34.3359 43.29 35.099 43.29 35.9531ZM41.7978 36.6719V35.9375C41.7978 35.2604 41.7275 34.6615 41.5869 34.1406C41.4515 33.6198 41.2509 33.1823 40.9853 32.8281C40.7197 32.474 40.3942 32.2057 40.0087 32.0234C39.6285 31.8411 39.1962 31.75 38.7119 31.75C38.2431 31.75 37.8186 31.8411 37.4384 32.0234C37.0634 32.2057 36.7405 32.474 36.4697 32.8281C36.2041 33.1823 35.9983 33.6198 35.8525 34.1406C35.7067 34.6615 35.6337 35.2604 35.6337 35.9375V36.6719C35.6337 37.3542 35.7067 37.9583 35.8525 38.4844C35.9983 39.0052 36.2067 39.4453 36.4775 39.8047C36.7535 40.1589 37.0791 40.4271 37.4541 40.6094C37.8343 40.7917 38.2587 40.8828 38.7275 40.8828C39.2171 40.8828 39.652 40.7917 40.0322 40.6094C40.4124 40.4271 40.7327 40.1589 40.9931 39.8047C41.2587 39.4453 41.4593 39.0052 41.5947 38.4844C41.7301 37.9583 41.7978 37.3542 41.7978 36.6719ZM54.3778 30.625V42H52.8622L47.1356 33.2266V42H45.6278V30.625H47.1356L52.8856 39.4219V30.625H54.3778Z" fill="#001464"/>
<circle cx="37.5" cy="37.5" r="37" stroke="#001464"/>
</svg>
