<svg width="32" height="33" viewBox="0 0 32 33" fill="none" xmlns="http://www.w3.org/2000/svg">
<path d="M13.5882 13.2L11.4141 10.9871L14.2482 8.15294H9.04588C8.81294 8.82588 8.45059 9.40824 7.95882 9.9C7.46706 10.3918 6.88471 10.7541 6.21176 10.9871V23.9541C7.11765 24.2906 7.86202 24.8533 8.44489 25.6422C9.02673 26.4321 9.31765 27.3318 9.31765 28.3412C9.31765 29.6353 8.86471 30.7353 7.95882 31.6412C7.05294 32.5471 5.95294 33 4.65882 33C3.36471 33 2.26471 32.5471 1.35882 31.6412C0.452941 30.7353 0 29.6353 0 28.3412C0 27.3318 0.290918 26.4321 0.872753 25.6422C1.45562 24.8533 2.2 24.2906 3.10588 23.9541V10.9871C2.2 10.6506 1.45562 10.0874 0.872753 9.29746C0.290918 8.50856 0 7.60941 0 6.6C0 5.30588 0.452941 4.20588 1.35882 3.3C2.26471 2.39412 3.36471 1.94118 4.65882 1.94118C5.66823 1.94118 6.56791 2.23209 7.35783 2.81393C8.14673 3.3968 8.70941 4.14118 9.04588 5.04706H14.2482L11.4141 2.21294L13.5882 0L20.1882 6.6L13.5882 13.2ZM26.4 1.94118C27.6941 1.94118 28.7941 2.39412 29.7 3.3C30.6059 4.20588 31.0588 5.30588 31.0588 6.6C31.0588 7.89412 30.6059 8.99412 29.7 9.9C28.7941 10.8059 27.6941 11.2588 26.4 11.2588C25.1059 11.2588 24.0059 10.8059 23.1 9.9C22.1941 8.99412 21.7412 7.89412 21.7412 6.6C21.7412 5.30588 22.1941 4.20588 23.1 3.3C24.0059 2.39412 25.1059 1.94118 26.4 1.94118ZM4.65882 29.8941C5.09882 29.8941 5.46791 29.745 5.76607 29.4469C6.0632 29.1497 6.21176 28.7812 6.21176 28.3412C6.21176 27.9012 6.0632 27.5326 5.76607 27.2355C5.46791 26.9373 5.09882 26.7882 4.65882 26.7882C4.21882 26.7882 3.84974 26.9373 3.55158 27.2355C3.25445 27.5326 3.10588 27.9012 3.10588 28.3412C3.10588 28.7812 3.25445 29.1497 3.55158 29.4469C3.84974 29.745 4.21882 29.8941 4.65882 29.8941ZM4.65882 8.15294C5.09882 8.15294 5.46791 8.00438 5.76607 7.70725C6.0632 7.40908 6.21176 7.04 6.21176 6.6C6.21176 6.16 6.0632 5.79092 5.76607 5.49275C5.46791 5.19562 5.09882 5.04706 4.65882 5.04706C4.21882 5.04706 3.84974 5.19562 3.55158 5.49275C3.25445 5.79092 3.10588 6.16 3.10588 6.6C3.10588 7.04 3.25445 7.40908 3.55158 7.70725C3.84974 8.00438 4.21882 8.15294 4.65882 8.15294ZM26.4 8.15294C26.84 8.15294 27.2086 8.00438 27.5057 7.70725C27.8039 7.40908 27.9529 7.04 27.9529 6.6C27.9529 6.16 27.8039 5.79092 27.5057 5.49275C27.2086 5.19562 26.84 5.04706 26.4 5.04706C25.96 5.04706 25.5914 5.19562 25.2943 5.49275C24.9961 5.79092 24.8471 6.16 24.8471 6.6C24.8471 7.04 24.9961 7.40908 25.2943 7.70725C25.5914 8.00438 25.96 8.15294 26.4 8.15294ZM21.0424 17.7812L23.2553 19.9553L15.5294 27.6812V29.8941H17.7035L25.4682 22.1294L27.6812 24.3035L19.0235 33H12.4235V26.4L21.0424 17.7812ZM27.6812 24.3035L21.0424 17.7812L23.5659 15.2576C24.1871 14.6365 24.9314 14.3259 25.799 14.3259C26.6656 14.3259 27.3965 14.6365 27.9918 15.2576L30.1659 17.4706C30.7612 18.0659 31.0588 18.7906 31.0588 19.6447C31.0588 20.4988 30.7612 21.2235 30.1659 21.8188L27.6812 24.3035Z" fill="url(#paint0_linear_1230_3880)"/>
<defs>
<linearGradient id="paint0_linear_1230_3880" x1="-13.4714" y1="16.4733" x2="38.1576" y2="16.3611" gradientUnits="userSpaceOnUse">
<stop offset="0.317708" stop-color="#E43425"/>
<stop offset="0.71875" stop-color="#441FD8"/>
<stop offset="1" stop-color="#0A26B8"/>
</linearGradient>
</defs>
</svg>
