<svg width="27" height="34" viewBox="0 0 27 34" fill="none" xmlns="http://www.w3.org/2000/svg">
<path fill-rule="evenodd" clip-rule="evenodd" d="M3.33333 28.3333C2.41667 28.3333 1.63167 28.0072 0.978333 27.355C0.326111 26.7017 0 25.9167 0 25V3.33333C0 2.41667 0.326111 1.63167 0.978333 0.978333C1.63167 0.326111 2.41667 0 3.33333 0H23.3333C24.25 0 25.035 0.326111 25.6883 0.978333C26.3406 1.63167 26.6667 2.41667 26.6667 3.33333V25C26.6667 25.9167 26.3406 26.7017 25.6883 27.355C25.035 28.0072 24.25 28.3333 23.3333 28.3333H18.332V33.333H14.9987V28.3333H11.6654V33.333H8.33203V28.3333H3.33333ZM3.33333 25H23.3333V3.33333H3.33333V25Z" fill="url(#paint0_linear_1230_3870)"/>
<path d="M5 16.6667H21L16 10L12 15.3333L9 11.3333L5 16.6667Z" fill="url(#paint1_linear_1230_3870)"/>
<defs>
<linearGradient id="paint0_linear_1230_3870" x1="-11.5664" y1="16.6396" x2="32.7616" y2="16.5577" gradientUnits="userSpaceOnUse">
<stop offset="0.317708" stop-color="#E43425"/>
<stop offset="0.71875" stop-color="#441FD8"/>
<stop offset="1" stop-color="#0A26B8"/>
</linearGradient>
<linearGradient id="paint1_linear_1230_3870" x1="-1.93983" y1="13.3279" x2="24.6562" y2="13.1806" gradientUnits="userSpaceOnUse">
<stop offset="0.317708" stop-color="#E43425"/>
<stop offset="0.71875" stop-color="#441FD8"/>
<stop offset="1" stop-color="#0A26B8"/>
</linearGradient>
</defs>
</svg>
