<svg width="496" height="382" viewBox="0 0 496 382" fill="none" xmlns="http://www.w3.org/2000/svg">
<mask id="mask0_748_870" style="mask-type:alpha" maskUnits="userSpaceOnUse" x="0" y="0" width="496" height="382">
<rect width="496" height="382" rx="10" fill="#D9D9D9"/>
</mask>
<g mask="url(#mask0_748_870)">
<rect x="122.832" y="273.124" width="106.594" height="20.876" fill="url(#paint0_linear_748_870)"/>
<rect x="95" y="36" width="166.036" height="237.105" rx="15.6593" fill="url(#paint1_linear_748_870)"/>
<rect x="108.835" y="51.104" width="138.251" height="186.805" rx="6.53822" fill="url(#paint2_linear_748_870)" stroke="#0587FF" stroke-width="2.37408"/>
<g filter="url(#filter0_d_748_870)">
<path opacity="0.85" d="M207.772 112.049L205.148 107.579L160.963 101.063L157.453 104.313C156.054 105.602 155.138 107.331 154.858 109.213L144.296 180.835C152.749 183.267 161.355 185.126 170.057 186.402L171.808 186.66C180.535 187.96 189.34 188.667 198.162 188.779L208.794 116.682C208.991 115.067 208.631 113.432 207.772 112.049Z" fill="url(#paint3_linear_748_870)"/>
<path d="M202.645 94.2864C202.328 92.7892 201.495 91.4507 200.292 90.5042C199.09 89.5577 197.593 89.0631 196.064 89.1065C192.189 89.5455 188.605 96.8674 188.204 99.5864C188.204 99.5864 193.951 105.001 197.518 102.223C200.126 100.28 201.947 97.4626 202.645 94.2864ZM200.169 96.8047C199.735 97.3076 199.121 97.6189 198.459 97.671C197.797 97.7232 197.141 97.512 196.634 97.0832L194.223 95.0229C193.832 94.5678 193.619 93.9873 193.62 93.3875C193.622 92.7878 193.84 92.2087 194.234 91.7561C194.627 91.3035 195.17 91.0076 195.764 90.9223C196.358 90.8371 196.962 90.9683 197.467 91.2919L199.875 93.3728C200.347 93.8033 200.637 94.3983 200.684 95.0355C200.731 95.6726 200.532 96.3036 200.128 96.7986L200.169 96.8047Z" fill="url(#paint4_linear_748_870)"/>
<path d="M205.227 101.551L162.34 95.2271C160.633 94.9755 159.047 96.1502 158.796 97.851C158.545 99.5518 159.725 101.135 161.432 101.386L204.319 107.71C206.025 107.962 207.612 106.787 207.862 105.086C208.113 103.386 206.933 101.803 205.227 101.551Z" fill="url(#paint5_linear_748_870)"/>
<path d="M152.09 128.019L147.169 161.39C169.588 146.806 177.524 175.337 202.239 163.449L207.16 130.079C184.735 144.704 176.799 116.173 152.09 128.019Z" fill="url(#paint6_linear_748_870)"/>
<path d="M171.796 186.724L170.045 186.465C161.343 185.189 152.737 183.329 144.284 180.899C145.604 181.607 146.716 182.65 147.507 183.922C148.298 185.195 148.741 186.653 148.792 188.151C152.986 190.538 183.079 195.985 190.102 194.748C190.972 193.26 192.134 191.964 193.519 190.938C194.904 189.912 196.482 189.178 198.159 188.78C189.335 188.69 180.527 188.003 171.796 186.724Z" fill="url(#paint7_linear_748_870)"/>
<path d="M150.541 177.253C150.277 177.214 150.038 177.073 149.877 176.86C149.716 176.648 149.644 176.38 149.678 176.115L158.954 113.206C159.276 111.065 160.356 109.111 161.997 107.699L164.424 105.51C164.631 105.352 164.891 105.278 165.15 105.305C165.409 105.332 165.648 105.457 165.818 105.654C165.988 105.851 166.076 106.106 166.064 106.366C166.052 106.626 165.941 106.872 165.754 107.053L163.224 109.227C161.954 110.318 161.124 111.834 160.89 113.492L151.614 176.401C151.573 176.651 151.44 176.876 151.241 177.034C151.043 177.191 150.794 177.269 150.541 177.253Z" fill="white"/>
</g>
<rect x="60" width="72" height="72" rx="14" fill="white"/>
<rect opacity="0.65" x="60" width="72" height="72" rx="14" fill="url(#paint8_linear_748_870)"/>
<rect x="67" y="7" width="58" height="58" rx="10" fill="url(#paint9_linear_748_870)"/>
<path d="M86.1807 51.8418V54H77.7471V52.1738L81.6318 48.0898C81.9749 47.6969 82.2516 47.3455 82.4619 47.0356C82.6722 46.7202 82.8244 46.4352 82.9185 46.1807C83.0181 45.9261 83.0679 45.6965 83.0679 45.4917C83.0679 45.1431 83.0153 44.8525 82.9102 44.6201C82.8105 44.3822 82.6611 44.2023 82.4619 44.0806C82.2682 43.9588 82.0275 43.8979 81.7397 43.8979C81.452 43.8979 81.2002 43.981 80.9844 44.147C80.7686 44.313 80.5998 44.5399 80.478 44.8276C80.3618 45.1154 80.3037 45.4391 80.3037 45.7988H77.498C77.498 45.0573 77.6779 44.3794 78.0376 43.7651C78.4028 43.1509 78.9092 42.6611 79.5566 42.2959C80.2041 41.9251 80.9539 41.7397 81.8062 41.7397C82.6971 41.7397 83.4442 41.8781 84.0474 42.1548C84.6506 42.4315 85.1043 42.8327 85.4087 43.3584C85.7186 43.8786 85.8735 44.5067 85.8735 45.2427C85.8735 45.6632 85.8071 46.0672 85.6743 46.4546C85.5415 46.842 85.3506 47.2266 85.1016 47.6084C84.8525 47.9847 84.5482 48.3721 84.1885 48.7705C83.8343 49.1689 83.4303 49.5923 82.9766 50.0405L81.416 51.8418H86.1807ZM90.169 48.6128L87.9444 48.0898L88.6749 41.9141H95.7388V44.0889H90.9576L90.6837 46.4878C90.8165 46.4103 91.0406 46.319 91.356 46.2139C91.677 46.1032 92.0312 46.0479 92.4185 46.0479C93.0162 46.0479 93.5447 46.1392 94.004 46.3218C94.4688 46.4989 94.8617 46.7617 95.1827 47.1104C95.5037 47.4535 95.7444 47.8768 95.9049 48.3804C96.0709 48.884 96.1539 49.4595 96.1539 50.1069C96.1539 50.6271 96.0681 51.1307 95.8966 51.6177C95.7305 52.0991 95.4732 52.5335 95.1246 52.9209C94.7815 53.3027 94.3471 53.6071 93.8214 53.834C93.2957 54.0553 92.6731 54.166 91.9537 54.166C91.4169 54.166 90.894 54.083 90.3848 53.917C89.8757 53.751 89.4164 53.513 89.0069 53.2031C88.6029 52.8877 88.282 52.5086 88.044 52.0659C87.8116 51.6177 87.6982 51.1169 87.7037 50.5635H90.5177C90.5343 50.8568 90.6034 51.1113 90.7252 51.3271C90.8469 51.543 91.0102 51.7118 91.2149 51.8335C91.4252 51.9497 91.6659 52.0078 91.9371 52.0078C92.2138 52.0078 92.4434 51.9525 92.6261 51.8418C92.8087 51.7311 92.9526 51.5789 93.0577 51.3853C93.1628 51.1916 93.2375 50.9702 93.2818 50.7212C93.3261 50.4666 93.3482 50.1982 93.3482 49.916C93.3482 49.6172 93.315 49.3488 93.2486 49.1108C93.1877 48.8729 93.0881 48.6709 92.9498 48.5049C92.8114 48.3333 92.6316 48.2033 92.4102 48.1147C92.1944 48.0262 91.9343 47.9819 91.63 47.9819C91.226 47.9819 90.9078 48.0511 90.6754 48.1895C90.4429 48.3278 90.2742 48.4689 90.169 48.6128ZM98.1086 44.0806C98.1086 43.6545 98.2137 43.2643 98.424 42.9102C98.6343 42.556 98.9165 42.2738 99.2707 42.0635C99.6248 41.8532 100.012 41.748 100.433 41.748C100.853 41.748 101.235 41.8532 101.578 42.0635C101.927 42.2738 102.204 42.556 102.408 42.9102C102.619 43.2643 102.724 43.6545 102.724 44.0806C102.724 44.5067 102.619 44.894 102.408 45.2427C102.204 45.5913 101.927 45.868 101.578 46.0728C101.235 46.2775 100.853 46.3799 100.433 46.3799C100.012 46.3799 99.6248 46.2775 99.2707 46.0728C98.9165 45.868 98.6343 45.5913 98.424 45.2427C98.2137 44.894 98.1086 44.5067 98.1086 44.0806ZM99.3869 44.0806C99.3869 44.3739 99.4893 44.6201 99.694 44.8193C99.9043 45.013 100.151 45.1099 100.433 45.1099C100.715 45.1099 100.953 45.013 101.147 44.8193C101.34 44.6257 101.437 44.3794 101.437 44.0806C101.437 43.7762 101.34 43.5244 101.147 43.3252C100.953 43.1204 100.715 43.0181 100.433 43.0181C100.151 43.0181 99.9043 43.1204 99.694 43.3252C99.4893 43.5244 99.3869 43.7762 99.3869 44.0806ZM111.784 49.9077H114.689C114.65 50.7489 114.424 51.4904 114.009 52.1323C113.593 52.7743 113.018 53.2751 112.282 53.6348C111.552 53.9889 110.688 54.166 109.692 54.166C108.884 54.166 108.162 54.0304 107.526 53.7593C106.895 53.4881 106.358 53.098 105.915 52.5889C105.478 52.0798 105.143 51.4627 104.911 50.7378C104.684 50.0129 104.571 49.1966 104.571 48.2891V47.6333C104.571 46.7257 104.69 45.9095 104.927 45.1846C105.171 44.4541 105.514 43.8343 105.957 43.3252C106.405 42.8105 106.942 42.4176 107.567 42.1465C108.192 41.8753 108.887 41.7397 109.651 41.7397C110.702 41.7397 111.59 41.9279 112.315 42.3042C113.04 42.6805 113.602 43.1979 114 43.8564C114.399 44.5094 114.634 45.2537 114.706 46.0894H111.801C111.789 45.6356 111.712 45.2565 111.568 44.9521C111.424 44.6423 111.197 44.4098 110.887 44.2549C110.578 44.0999 110.165 44.0225 109.651 44.0225C109.291 44.0225 108.978 44.0889 108.713 44.2217C108.447 44.3545 108.226 44.5648 108.049 44.8525C107.871 45.1403 107.739 45.5138 107.65 45.9731C107.567 46.4269 107.526 46.9748 107.526 47.6167V48.2891C107.526 48.931 107.564 49.4788 107.642 49.9326C107.719 50.3864 107.844 50.7572 108.015 51.0449C108.187 51.3327 108.408 51.5457 108.679 51.6841C108.956 51.8169 109.294 51.8833 109.692 51.8833C110.135 51.8833 110.508 51.8141 110.813 51.6758C111.117 51.5319 111.352 51.3161 111.518 51.0283C111.684 50.735 111.773 50.3615 111.784 49.9077Z" fill="white"/>
<mask id="mask1_748_870" style="mask-type:alpha" maskUnits="userSpaceOnUse" x="84" y="13" width="24" height="24">
<rect x="84" y="13" width="24" height="24" fill="#D9D9D9"/>
</mask>
<g mask="url(#mask1_748_870)">
<path d="M96 18C95.7167 18 95.4793 17.904 95.288 17.712C95.096 17.5207 95 17.2833 95 17V15C95 14.7167 95.096 14.479 95.288 14.287C95.4793 14.0957 95.7167 14 96 14C96.2833 14 96.521 14.0957 96.713 14.287C96.9043 14.479 97 14.7167 97 15V17C97 17.2833 96.9043 17.5207 96.713 17.712C96.521 17.904 96.2833 18 96 18ZM100.95 20.05C100.767 19.8667 100.675 19.6373 100.675 19.362C100.675 19.0873 100.767 18.85 100.95 18.65L102.35 17.225C102.55 17.025 102.787 16.925 103.062 16.925C103.337 16.925 103.575 17.025 103.775 17.225C103.958 17.4083 104.05 17.6417 104.05 17.925C104.05 18.2083 103.958 18.4417 103.775 18.625L102.35 20.05C102.167 20.2333 101.933 20.325 101.65 20.325C101.367 20.325 101.133 20.2333 100.95 20.05ZM104 26C103.717 26 103.479 25.904 103.288 25.712C103.096 25.5207 103 25.2833 103 25C103 24.7167 103.096 24.479 103.288 24.287C103.479 24.0957 103.717 24 104 24H106C106.283 24 106.521 24.0957 106.712 24.287C106.904 24.479 107 24.7167 107 25C107 25.2833 106.904 25.5207 106.712 25.712C106.521 25.904 106.283 26 106 26H104ZM96 36C95.7167 36 95.4793 35.904 95.288 35.712C95.096 35.5207 95 35.2833 95 35V33C95 32.7167 95.096 32.4793 95.288 32.288C95.4793 32.096 95.7167 32 96 32C96.2833 32 96.521 32.096 96.713 32.288C96.9043 32.4793 97 32.7167 97 33V35C97 35.2833 96.9043 35.5207 96.713 35.712C96.521 35.904 96.2833 36 96 36ZM89.65 20.05L88.225 18.65C88.025 18.45 87.925 18.2083 87.925 17.925C87.925 17.6417 88.025 17.4083 88.225 17.225C88.4083 17.0417 88.6417 16.95 88.925 16.95C89.2083 16.95 89.4417 17.0417 89.625 17.225L91.05 18.65C91.2333 18.8333 91.325 19.0667 91.325 19.35C91.325 19.6333 91.2333 19.8667 91.05 20.05C90.85 20.2333 90.6167 20.325 90.35 20.325C90.0833 20.325 89.85 20.2333 89.65 20.05ZM102.35 32.775L100.95 31.35C100.767 31.15 100.675 30.9127 100.675 30.638C100.675 30.3627 100.767 30.1333 100.95 29.95C101.133 29.7667 101.363 29.675 101.638 29.675C101.913 29.675 102.15 29.7667 102.35 29.95L103.775 31.35C103.975 31.5333 104.071 31.7667 104.062 32.05C104.054 32.3333 103.958 32.575 103.775 32.775C103.575 32.975 103.333 33.075 103.05 33.075C102.767 33.075 102.533 32.975 102.35 32.775ZM86 26C85.7167 26 85.4793 25.904 85.288 25.712C85.096 25.5207 85 25.2833 85 25C85 24.7167 85.096 24.479 85.288 24.287C85.4793 24.0957 85.7167 24 86 24H88C88.2833 24 88.521 24.0957 88.713 24.287C88.9043 24.479 89 24.7167 89 25C89 25.2833 88.9043 25.5207 88.713 25.712C88.521 25.904 88.2833 26 88 26H86ZM88.225 32.775C88.0417 32.5917 87.95 32.3583 87.95 32.075C87.95 31.7917 88.0417 31.5583 88.225 31.375L89.65 29.95C89.8333 29.7667 90.0627 29.675 90.338 29.675C90.6127 29.675 90.85 29.7667 91.05 29.95C91.25 30.15 91.35 30.3877 91.35 30.663C91.35 30.9377 91.25 31.175 91.05 31.375L89.65 32.775C89.45 32.975 89.2083 33.075 88.925 33.075C88.6417 33.075 88.4083 32.975 88.225 32.775ZM96 31C94.3333 31 92.9167 30.4167 91.75 29.25C90.5833 28.0833 90 26.6667 90 25C90 23.3333 90.5833 21.9167 91.75 20.75C92.9167 19.5833 94.3333 19 96 19C97.6667 19 99.0833 19.5833 100.25 20.75C101.417 21.9167 102 23.3333 102 25C102 26.6667 101.417 28.0833 100.25 29.25C99.0833 30.4167 97.6667 31 96 31ZM96 29C97.1 29 98.0417 28.6083 98.825 27.825C99.6083 27.0417 100 26.1 100 25C100 23.9 99.6083 22.9583 98.825 22.175C98.0417 21.3917 97.1 21 96 21C94.9 21 93.9583 21.3917 93.175 22.175C92.3917 22.9583 92 23.9 92 25C92 26.1 92.3917 27.0417 93.175 27.825C93.9583 28.6083 94.9 29 96 29Z" fill="white"/>
</g>
<path fill-rule="evenodd" clip-rule="evenodd" d="M367.086 230.672H342.98C341.147 241.315 335.282 278.123 334.944 281.845C334.887 282.479 334.798 283.288 334.695 284.223C334.131 289.358 333.152 298.267 334.677 302.465C334.979 303.916 335.325 305.269 335.621 306.395C337.177 312.307 342.045 338.426 343.879 349.077L343.868 349.088L345.128 355.959C344.338 358.075 338.324 360.478 333.592 362.369C332.152 362.945 330.831 363.473 329.811 363.931C329.026 364.284 327.796 364.498 326.781 364.675C326.235 364.77 325.751 364.854 325.431 364.944C324.515 365.199 323.499 367.946 326.579 367.908L352.075 367.797C355.26 367.383 355.388 365.423 355.218 363.142C355.115 361.767 354.097 359.044 353.495 358.304L354.133 338.333C354.133 329.472 353.829 321.549 353.558 314.469C353.391 310.12 353.237 306.089 353.172 302.355C353.138 300.38 352.742 298.64 352.088 297.125C352.716 295.634 353.096 293.928 353.13 291.995C353.215 287.044 356.588 274.402 360 261.614L360 261.614C363.35 249.059 366.737 236.364 367.086 230.672Z" fill="white"/>
<path fill-rule="evenodd" clip-rule="evenodd" d="M377.236 229.615L351.932 229.615C351.395 240.402 351.82 275.238 351.932 278.973C351.951 279.609 351.961 280.424 351.971 281.364V281.364V281.364C352.034 286.87 352.145 296.69 354.575 300.196C356.306 304.473 359.973 309.831 362.289 313.215L362.289 313.216C362.821 313.992 363.281 314.664 363.63 315.195C365.676 318.309 380.856 335.472 388.371 343.39L388.317 343.418L391.397 346.324C391.9 348.588 388.851 354.062 386.439 358.394C385.684 359.749 384.992 360.992 384.49 361.99C384.103 362.76 383.284 363.702 382.607 364.48C382.244 364.897 381.922 365.268 381.73 365.539C381.18 366.315 382.124 369.088 384.49 367.116L404.205 350.949C406.416 348.619 405.279 347.017 403.708 345.354C402.726 344.316 400.068 342.772 399.223 342.671L396.979 338.771L396.916 338.805C390.802 328.858 378.176 307.385 373.453 298.903C372.382 296.978 371.319 295.381 370.275 294.07C370.45 293.367 370.59 292.613 370.692 291.805C370.958 289.682 371.368 286.642 371.856 283.02L371.856 283.02L371.856 283.02C374.041 266.825 377.795 239.006 377.236 229.615Z" fill="white"/>
<path opacity="0.9" fill-rule="evenodd" clip-rule="evenodd" d="M367.086 230.672H342.98C341.147 241.315 335.282 278.123 334.944 281.845C334.887 282.479 334.798 283.288 334.695 284.223C334.131 289.358 333.152 298.267 334.677 302.465C334.979 303.916 335.325 305.269 335.621 306.395C337.177 312.307 342.045 338.426 343.879 349.077L343.868 349.088L345.128 355.959C344.338 358.075 338.324 360.478 333.592 362.369C332.152 362.945 330.831 363.473 329.811 363.931C329.026 364.284 327.796 364.498 326.781 364.675C326.235 364.77 325.751 364.854 325.431 364.944C324.515 365.199 323.499 367.946 326.579 367.908L352.075 367.797C355.26 367.383 355.388 365.423 355.218 363.142C355.115 361.767 354.097 359.044 353.495 358.304L354.133 338.333C354.133 329.472 353.829 321.549 353.558 314.469C353.391 310.12 353.237 306.089 353.172 302.355C353.138 300.38 352.742 298.64 352.088 297.125C352.716 295.634 353.096 293.928 353.13 291.995C353.215 287.044 356.588 274.402 360 261.614L360 261.614C363.35 249.059 366.737 236.364 367.086 230.672Z" fill="url(#paint10_linear_748_870)"/>
<path opacity="0.9" fill-rule="evenodd" clip-rule="evenodd" d="M377.236 229.615L351.932 229.615C351.395 240.402 351.82 275.238 351.932 278.973C351.951 279.609 351.961 280.424 351.971 281.364V281.364V281.364C352.034 286.87 352.145 296.69 354.575 300.196C356.306 304.473 359.973 309.831 362.289 313.215L362.289 313.216C362.821 313.992 363.281 314.664 363.63 315.195C365.676 318.309 380.856 335.472 388.371 343.39L388.317 343.418L391.397 346.324C391.9 348.588 388.851 354.062 386.439 358.394C385.684 359.749 384.992 360.992 384.49 361.99C384.103 362.76 383.284 363.702 382.607 364.48C382.244 364.897 381.922 365.268 381.73 365.539C381.18 366.315 382.124 369.088 384.49 367.116L404.205 350.949C406.416 348.619 405.279 347.017 403.708 345.354C402.726 344.316 400.068 342.772 399.223 342.671L396.979 338.771L396.916 338.805C390.802 328.858 378.176 307.385 373.453 298.903C372.382 296.978 371.319 295.381 370.275 294.07C370.45 293.367 370.59 292.613 370.692 291.805C370.958 289.682 371.368 286.642 371.856 283.02L371.856 283.02L371.856 283.02C374.041 266.825 377.795 239.006 377.236 229.615Z" fill="url(#paint11_linear_748_870)"/>
<path d="M353.327 229.7L377.141 225.957C378.228 237.417 377.285 270.013 375.664 279.691C375.047 283.381 366.171 282.78 366.171 282.78L351.269 281.929C351.026 278.2 353.169 240.498 353.327 229.7Z" fill="url(#paint12_linear_748_870)"/>
<path d="M359.992 165.511L358.935 171.855L367.816 169.529L365.565 161.686L363.594 152.617L362.53 143.942C358.371 144.577 349.927 146.057 349.419 146.903C348.785 147.96 347.728 151.978 347.728 157.687C347.728 163.397 348.785 168.26 351.323 168.472C353.86 168.683 357.243 167.203 359.992 165.511Z" fill="white"/>
<path opacity="0.9" d="M359.992 165.511L358.935 171.855L367.816 169.529L365.565 161.686L363.594 152.617L362.53 143.942C358.371 144.577 349.927 146.057 349.419 146.903C348.785 147.96 347.728 151.978 347.728 157.687C347.728 163.397 348.785 168.26 351.323 168.472C353.86 168.683 357.243 167.203 359.992 165.511Z" fill="url(#paint13_linear_748_870)"/>
<path d="M342.98 230.672H367.086C366.381 242.162 360.389 274.216 357.285 283.526C356.103 287.075 347.428 285.103 347.428 285.103L332.839 281.949C333.177 278.227 341.147 241.316 342.98 230.672Z" fill="url(#paint14_linear_748_870)"/>
<path fill-rule="evenodd" clip-rule="evenodd" d="M344.463 216.006C348.089 203.551 352.114 189.73 352.114 172.52L367.551 168.714C367.805 168.972 368.062 169.233 368.321 169.495C381.05 182.409 399.002 200.621 408.478 245.073C409.157 246.091 410.117 247.241 411.385 248.525C412.887 249.933 416.047 252.892 416.675 253.457C416.803 253.572 416.942 253.688 417.084 253.807C417.818 254.42 418.65 255.115 418.555 256.174C418.442 257.437 415.591 258.456 413.906 258.305C412.221 258.154 410.42 256.931 408.829 255.726C407.239 254.522 405.419 253.51 403.771 252.938C402.303 252.428 400.99 253.955 400.221 254.85C400.127 254.959 400.041 255.059 399.964 255.144C399.257 255.93 397.783 255.798 397.189 255.32C397.532 254.643 398.526 252.722 399.748 250.454C400.862 248.387 400.918 246.789 400.681 245.4C400.427 244.572 400.173 243.739 399.918 242.902C395.2 227.429 390.037 210.495 378.186 195.596L340.484 230.883C341.535 226.062 342.965 221.151 344.463 216.006Z" fill="white"/>
<path opacity="0.9" fill-rule="evenodd" clip-rule="evenodd" d="M344.463 216.006C348.089 203.551 352.114 189.73 352.114 172.52L367.551 168.714C367.805 168.972 368.062 169.233 368.321 169.495C381.05 182.409 399.002 200.621 408.478 245.073C409.157 246.091 410.117 247.241 411.385 248.525C412.887 249.933 416.047 252.892 416.675 253.457C416.803 253.572 416.942 253.688 417.084 253.807C417.818 254.42 418.65 255.115 418.555 256.174C418.442 257.437 415.591 258.456 413.906 258.305C412.221 258.154 410.42 256.931 408.829 255.726C407.239 254.522 405.419 253.51 403.771 252.938C402.303 252.428 400.99 253.955 400.221 254.85C400.127 254.959 400.041 255.059 399.964 255.144C399.257 255.93 397.783 255.798 397.189 255.32C397.532 254.643 398.526 252.722 399.748 250.454C400.862 248.387 400.918 246.789 400.681 245.4C400.427 244.572 400.173 243.739 399.918 242.902C395.2 227.429 390.037 210.495 378.186 195.596L340.484 230.883C341.535 226.062 342.965 221.151 344.463 216.006Z" fill="url(#paint15_linear_748_870)"/>
<path d="M362.805 158.532L365.565 161.687C367.142 160.504 369.902 157.743 369.902 153.012C369.902 140.001 360.439 140 358.073 140C355.708 140 347.427 141.183 345.456 140.789C345.456 145.52 349.004 147.886 351.765 147.886H356.102L360.045 153.012C363.988 152.224 364.764 157.335 362.805 158.532Z" fill="url(#paint16_linear_748_870)"/>
<path fill-rule="evenodd" clip-rule="evenodd" d="M346.11 203.017C341.079 206.101 331.25 212.128 309.21 209.883L309.192 209.777C308.328 209.582 307.159 208.943 306.258 208.45C305.628 208.106 305.129 207.834 304.956 207.834C304.715 207.834 303.895 207.895 302.877 207.97C301.215 208.094 299.027 208.257 297.978 208.257C296.286 208.257 293.96 208.257 293.749 207.199C293.671 206.809 294.457 206.419 295.244 206.028C295.31 205.996 295.375 205.963 295.44 205.931C295.638 205.832 295.824 205.756 295.994 205.687C296.548 205.462 296.921 205.31 296.921 204.662C296.921 203.671 294.889 201.809 293.206 200.267C292.016 199.176 291 198.246 291 197.895C291 197.049 292.691 197.261 293.326 197.472C293.928 197.673 299.035 199.587 300.304 200.221C301.573 200.856 304.11 202.124 304.745 202.336C305.137 202.467 306.739 202.606 307.998 202.695L307.997 202.694C308.086 202.7 308.175 202.707 308.266 202.714C308.529 202.732 308.771 202.747 308.974 202.759L308.975 202.77C309.22 202.79 309.471 202.811 309.73 202.832C321.471 203.801 347.692 205.965 352.111 175.635C360.738 183.078 356.89 194.808 346.639 202.694C346.469 202.797 346.293 202.905 346.11 203.017Z" fill="url(#paint17_linear_748_870)"/>
<path d="M373.047 196.203C374.105 203.816 373.047 224.116 371.356 230.882H379.18C378.757 225.596 376.219 205.93 373.047 196.203Z" fill="url(#paint18_linear_748_870)"/>
<ellipse rx="3.6484" ry="3.93332" transform="matrix(-0.981942 -0.189182 -0.189182 0.981942 356.091 153.586)" fill="url(#paint19_linear_748_870)"/>
<path d="M352.555 153.012L349.795 152.618" stroke="url(#paint20_linear_748_870)"/>
<line x1="1" y1="-1" x2="31.5148" y2="-1" transform="matrix(-0.776114 0.630593 0.630593 0.776114 408.543 349.768)" stroke="url(#paint21_linear_748_870)" stroke-width="2" stroke-linecap="round"/>
<path d="M384.883 360.411C388.826 356.074 395.924 355.287 399.078 356.075" stroke="url(#paint22_linear_748_870)" stroke-width="2" stroke-linecap="round"/>
<line x1="1" y1="-1" x2="31.5148" y2="-1" transform="matrix(-1 -0.000147538 -0.000147538 1 356.188 369.615)" stroke="url(#paint23_linear_748_870)" stroke-width="2" stroke-linecap="round"/>
<path d="M331.114 362.954C336.91 362.075 342.914 365.941 344.864 368.542" stroke="url(#paint24_linear_748_870)" stroke-width="2" stroke-linecap="round"/>
<path d="M348.217 203.087C371.055 205.413 355.971 198.556 360.835 195.596C367.602 182.838 360.74 182.289 352.112 174.846C349.4 187.71 345.457 192.047 341.12 196.384L348.217 203.087Z" fill="white"/>
<path opacity="0.9" d="M348.217 203.087C371.055 205.413 355.971 198.556 360.835 195.596C367.602 182.838 360.74 182.289 352.112 174.846C349.4 187.71 345.457 192.047 341.12 196.384L348.217 203.087Z" fill="url(#paint25_linear_748_870)"/>
<path fill-rule="evenodd" clip-rule="evenodd" d="M344.463 216.006C348.09 203.551 352.114 189.73 352.114 172.52L367.551 168.714C379.612 180.963 381.754 183.961 387.1 191.445C387.753 192.359 388.454 193.34 389.227 194.413L374.645 202.088C376.917 211.833 378.643 225.057 379.114 230.123C379.192 230.734 379.219 231.019 379.181 230.883H340.484C341.535 226.062 342.965 221.151 344.463 216.006Z" fill="white"/>
<path opacity="0.85" fill-rule="evenodd" clip-rule="evenodd" d="M344.463 216.006C348.09 203.551 352.114 189.73 352.114 172.52L367.551 168.714C379.612 180.963 381.754 183.961 387.1 191.445C387.753 192.359 388.454 193.34 389.227 194.413L374.645 202.088C376.917 211.833 378.643 225.057 379.114 230.123C379.192 230.734 379.219 231.019 379.181 230.883H340.484C341.535 226.062 342.965 221.151 344.463 216.006Z" fill="url(#paint26_linear_748_870)"/>
<ellipse rx="3.6484" ry="3.93332" transform="matrix(-0.981942 -0.189182 -0.189182 0.981942 347.439 152.657)" fill="url(#paint27_linear_748_870)"/>
<ellipse opacity="0.08" cx="370.5" cy="370" rx="65.5" ry="12" fill="#001464"/>
</g>
<defs>
<filter id="filter0_d_748_870" x="109.313" y="55.175" width="134.507" height="175.77" filterUnits="userSpaceOnUse" color-interpolation-filters="sRGB">
<feFlood flood-opacity="0" result="BackgroundImageFix"/>
<feColorMatrix in="SourceAlpha" type="matrix" values="0 0 0 0 0 0 0 0 0 0 0 0 0 0 0 0 0 0 127 0" result="hardAlpha"/>
<feOffset dy="1.04395"/>
<feGaussianBlur stdDeviation="17.4862"/>
<feComposite in2="hardAlpha" operator="out"/>
<feColorMatrix type="matrix" values="0 0 0 0 0.271736 0 0 0 0 0.282083 0 0 0 0 0.716667 0 0 0 1 0"/>
<feBlend mode="normal" in2="BackgroundImageFix" result="effect1_dropShadow_748_870"/>
<feBlend mode="normal" in="SourceGraphic" in2="effect1_dropShadow_748_870" result="shape"/>
</filter>
<linearGradient id="paint0_linear_748_870" x1="174.706" y1="273.124" x2="174.706" y2="294.316" gradientUnits="userSpaceOnUse">
<stop stop-color="#26264F"/>
<stop offset="1" stop-color="#444B8B"/>
</linearGradient>
<linearGradient id="paint1_linear_748_870" x1="95.0093" y1="154.564" x2="261.032" y2="154.564" gradientUnits="userSpaceOnUse">
<stop stop-color="#444B8B"/>
<stop offset="0.99" stop-color="#26264F"/>
</linearGradient>
<linearGradient id="paint2_linear_748_870" x1="66.2127" y1="294.103" x2="161.726" y2="19.742" gradientUnits="userSpaceOnUse">
<stop stop-color="#7399EF"/>
<stop offset="0.14" stop-color="#8BB0F2"/>
<stop offset="0.32" stop-color="#A2C6F5"/>
<stop offset="0.51" stop-color="#B3D6F7"/>
<stop offset="0.73" stop-color="#BDDFF9"/>
<stop offset="1" stop-color="#C0E2F9"/>
</linearGradient>
<linearGradient id="paint3_linear_748_870" x1="150.098" y1="141.491" x2="203.882" y2="149.422" gradientUnits="userSpaceOnUse">
<stop stop-color="#9D0051"/>
<stop offset="0.1" stop-color="#9D0051"/>
<stop offset="0.9" stop-color="#301C90"/>
<stop offset="1" stop-color="#301C90"/>
</linearGradient>
<linearGradient id="paint4_linear_748_870" x1="198.412" y1="92.7361" x2="189.948" y2="103.316" gradientUnits="userSpaceOnUse">
<stop stop-color="#E2EAF0"/>
<stop offset="1" stop-color="#BEB2BD"/>
</linearGradient>
<linearGradient id="paint5_linear_748_870" x1="183.595" y1="99.6663" x2="182.857" y2="104.672" gradientUnits="userSpaceOnUse">
<stop stop-color="#E2EAF0"/>
<stop offset="1" stop-color="#BEB2BD"/>
</linearGradient>
<linearGradient id="paint6_linear_748_870" x1="150.067" y1="141.738" x2="204.262" y2="149.73" gradientUnits="userSpaceOnUse">
<stop stop-color="#E3F7FA"/>
<stop offset="1" stop-color="#9BE0EB"/>
</linearGradient>
<linearGradient id="paint7_linear_748_870" x1="170.077" y1="192.384" x2="170.679" y2="188.306" gradientUnits="userSpaceOnUse">
<stop stop-color="#E2EAF0"/>
<stop offset="1" stop-color="#BEB2BD"/>
</linearGradient>
<linearGradient id="paint8_linear_748_870" x1="60.0049" y1="36" x2="132.027" y2="36" gradientUnits="userSpaceOnUse">
<stop stop-color="#9D0051"/>
<stop offset="0.1" stop-color="#9D0051"/>
<stop offset="0.91" stop-color="#301C90"/>
<stop offset="1" stop-color="#301C90"/>
</linearGradient>
<linearGradient id="paint9_linear_748_870" x1="67.004" y1="36" x2="125.022" y2="36" gradientUnits="userSpaceOnUse">
<stop stop-color="#9D0051"/>
<stop offset="0.1" stop-color="#9D0051"/>
<stop offset="0.91" stop-color="#301C90"/>
<stop offset="1" stop-color="#301C90"/>
</linearGradient>
<linearGradient id="paint10_linear_748_870" x1="367.084" y1="299.11" x2="324.47" y2="299.11" gradientUnits="userSpaceOnUse">
<stop stop-color="#E9B764"/>
<stop offset="1" stop-color="#D77A5C"/>
</linearGradient>
<linearGradient id="paint11_linear_748_870" x1="405.435" y1="298.532" x2="351.621" y2="298.532" gradientUnits="userSpaceOnUse">
<stop stop-color="#E9B764"/>
<stop offset="1" stop-color="#D77A5C"/>
</linearGradient>
<linearGradient id="paint12_linear_748_870" x1="347.584" y1="258.421" x2="381.427" y2="253.102" gradientUnits="userSpaceOnUse">
<stop stop-color="white"/>
<stop offset="0.35" stop-color="#FBFCFD"/>
<stop offset="0.62" stop-color="#F2F3F7"/>
<stop offset="0.87" stop-color="#E1E4EE"/>
<stop offset="1" stop-color="#D5D9E8"/>
</linearGradient>
<linearGradient id="paint13_linear_748_870" x1="367.816" y1="157.862" x2="347.375" y2="166.5" gradientUnits="userSpaceOnUse">
<stop stop-color="#D77A5C"/>
<stop offset="1" stop-color="#E9B764"/>
</linearGradient>
<linearGradient id="paint14_linear_748_870" x1="332.848" y1="258.154" x2="367.106" y2="258.154" gradientUnits="userSpaceOnUse">
<stop stop-color="white"/>
<stop offset="0.35" stop-color="#FBFCFD"/>
<stop offset="0.62" stop-color="#F2F3F7"/>
<stop offset="0.87" stop-color="#E1E4EE"/>
<stop offset="1" stop-color="#D5D9E8"/>
</linearGradient>
<linearGradient id="paint15_linear_748_870" x1="418.559" y1="213.399" x2="340.417" y2="213.399" gradientUnits="userSpaceOnUse">
<stop stop-color="#E9B764"/>
<stop offset="1" stop-color="#D77A5C"/>
</linearGradient>
<linearGradient id="paint16_linear_748_870" x1="369.916" y1="150.842" x2="345.47" y2="150.842" gradientUnits="userSpaceOnUse">
<stop stop-color="#331809"/>
<stop offset="0.1" stop-color="#331809"/>
<stop offset="0.19" stop-color="#3D1C08"/>
<stop offset="0.66" stop-color="#6C3406"/>
<stop offset="0.9" stop-color="#7F3D06"/>
<stop offset="1" stop-color="#7F3D06"/>
</linearGradient>
<linearGradient id="paint17_linear_748_870" x1="356.872" y1="192.958" x2="290.944" y2="192.958" gradientUnits="userSpaceOnUse">
<stop stop-color="#E9B764"/>
<stop offset="1" stop-color="#D77A5C"/>
</linearGradient>
<linearGradient id="paint18_linear_748_870" x1="379.182" y1="213.547" x2="371.358" y2="213.547" gradientUnits="userSpaceOnUse">
<stop stop-color="#0057D2"/>
<stop offset="0.1" stop-color="#0057D2"/>
<stop offset="0.39" stop-color="#0085E4"/>
<stop offset="0.73" stop-color="#00B4F7"/>
<stop offset="0.9" stop-color="#00C7FF"/>
<stop offset="1" stop-color="#00C7FF"/>
</linearGradient>
<linearGradient id="paint19_linear_748_870" x1="0.000410542" y1="3.93369" x2="7.29661" y2="3.93369" gradientUnits="userSpaceOnUse">
<stop stop-color="#444B8B"/>
<stop offset="0.99" stop-color="#26264F"/>
</linearGradient>
<linearGradient id="paint20_linear_748_870" x1="352.555" y1="152.815" x2="349.795" y2="152.815" gradientUnits="userSpaceOnUse">
<stop stop-color="#444B8B"/>
<stop offset="0.99" stop-color="#26264F"/>
</linearGradient>
<linearGradient id="paint21_linear_748_870" x1="-0.00902937" y1="0.500136" x2="32.5057" y2="0.500136" gradientUnits="userSpaceOnUse">
<stop stop-color="#0057D2"/>
<stop offset="0.1" stop-color="#0057D2"/>
<stop offset="0.39" stop-color="#0085E4"/>
<stop offset="0.73" stop-color="#00B4F7"/>
<stop offset="0.9" stop-color="#00C7FF"/>
<stop offset="1" stop-color="#00C7FF"/>
</linearGradient>
<linearGradient id="paint22_linear_748_870" x1="399.082" y1="358.108" x2="384.887" y2="358.108" gradientUnits="userSpaceOnUse">
<stop stop-color="#0057D2"/>
<stop offset="0.1" stop-color="#0057D2"/>
<stop offset="0.39" stop-color="#0085E4"/>
<stop offset="0.73" stop-color="#00B4F7"/>
<stop offset="0.9" stop-color="#00C7FF"/>
<stop offset="1" stop-color="#00C7FF"/>
</linearGradient>
<linearGradient id="paint23_linear_748_870" x1="-0.00902937" y1="0.500136" x2="32.5057" y2="0.500136" gradientUnits="userSpaceOnUse">
<stop stop-color="#0057D2"/>
<stop offset="0.1" stop-color="#0057D2"/>
<stop offset="0.39" stop-color="#0085E4"/>
<stop offset="0.73" stop-color="#00B4F7"/>
<stop offset="0.9" stop-color="#00C7FF"/>
<stop offset="1" stop-color="#00C7FF"/>
</linearGradient>
<linearGradient id="paint24_linear_748_870" x1="343.585" y1="370.122" x2="332.57" y2="361.17" gradientUnits="userSpaceOnUse">
<stop stop-color="#0057D2"/>
<stop offset="0.1" stop-color="#0057D2"/>
<stop offset="0.39" stop-color="#0085E4"/>
<stop offset="0.73" stop-color="#00B4F7"/>
<stop offset="0.9" stop-color="#00C7FF"/>
<stop offset="1" stop-color="#00C7FF"/>
</linearGradient>
<linearGradient id="paint25_linear_748_870" x1="363.58" y1="189.207" x2="341.126" y2="189.207" gradientUnits="userSpaceOnUse">
<stop stop-color="#0057D2"/>
<stop offset="0.1" stop-color="#0057D2"/>
<stop offset="0.39" stop-color="#0085E4"/>
<stop offset="0.73" stop-color="#00B4F7"/>
<stop offset="0.9" stop-color="#00C7FF"/>
<stop offset="1" stop-color="#00C7FF"/>
</linearGradient>
<linearGradient id="paint26_linear_748_870" x1="389.24" y1="199.824" x2="340.498" y2="199.824" gradientUnits="userSpaceOnUse">
<stop stop-color="#0057D2"/>
<stop offset="0.1" stop-color="#0057D2"/>
<stop offset="0.39" stop-color="#0085E4"/>
<stop offset="0.73" stop-color="#00B4F7"/>
<stop offset="0.9" stop-color="#00C7FF"/>
<stop offset="1" stop-color="#00C7FF"/>
</linearGradient>
<linearGradient id="paint27_linear_748_870" x1="0.000410542" y1="3.93369" x2="7.29661" y2="3.93369" gradientUnits="userSpaceOnUse">
<stop stop-color="#444B8B"/>
<stop offset="0.99" stop-color="#26264F"/>
</linearGradient>
</defs>
</svg>
