<svg width="496" height="365" viewBox="0 0 496 365" fill="none" xmlns="http://www.w3.org/2000/svg">
<mask id="mask0_9277_7152" style="mask-type:alpha" maskUnits="userSpaceOnUse" x="0" y="0" width="496" height="365">
<rect width="496" height="365" rx="10" fill="#D9D9D9"/>
</mask>
<g mask="url(#mask0_9277_7152)">
<path d="M193.398 30.7707L193.126 30.9107C193.126 30.9107 191.637 25.9956 191.336 23.7249C191.034 21.4327 189.96 22.8322 189.96 22.8322C189.053 25.2371 190.853 31.0228 191.024 31.576C190.272 30.8522 188.66 26.0711 188.66 26.0711C188.66 26.0711 188.216 24.4953 187.363 25.5629C186.511 26.6305 189.464 33.5978 189.464 33.5978C189.464 33.5978 191.326 37.1629 192.841 40.5481C193.332 41.6699 194.106 42.4143 194.829 42.9454L195.903 46.4774L201.439 43.7835L201.064 41.2757C201.291 41.0943 201.456 40.9371 201.456 40.9371C201.456 40.9371 202.829 34.0989 203.058 32.8838C203.287 31.6687 203.08 30.1696 203.08 30.1696C202.623 28.2712 202.038 26.3564 202.528 24.7218C202.528 24.7218 200.151 24.9026 200.545 27.9233C200.723 29.2083 200.012 31.7346 199.766 32.5197C199.177 31.5957 198.324 30.4668 198.099 30.1527C197.509 29.2072 196.4 22.5756 196.28 21.6974C196.161 20.8193 195.728 20.6427 195.076 21.9392C194.403 23.2366 195.503 30.17 195.503 30.17L195.328 30.0478C194.455 27.843 194.067 22.7978 194.067 22.7978C194.067 22.7978 193.478 19.6987 192.27 20.9312C191.062 22.1638 193.378 30.8146 193.378 30.8146L193.398 30.7707Z" fill="url(#paint0_linear_9277_7152)"/>
<path d="M358.075 30.2072L358.34 30.3604C358.34 30.3604 360.064 25.5248 360.475 23.2717C360.887 20.9972 361.892 22.4481 361.892 22.4481C362.682 24.895 360.605 30.5848 360.408 31.1288C361.193 30.4431 363.034 25.7475 363.034 25.7475C363.034 25.7475 363.554 24.1955 364.354 25.304C365.154 26.4125 361.868 33.2254 361.868 33.2254C361.868 33.2254 359.836 36.6942 358.159 40.0004C357.615 41.0966 356.806 41.8018 356.058 42.2966L354.815 45.7712L349.911 42.2966L349.911 40.3205C349.693 40.1281 349.537 39.9629 349.537 39.9629C349.537 39.9629 348.495 33.065 348.325 31.84C348.154 30.6151 348.434 29.1279 348.434 29.1279C348.982 27.2544 349.659 25.3708 349.248 23.7139C349.248 23.7139 351.613 24.0121 351.074 27.0097C350.835 28.2844 351.422 30.8429 351.63 31.6391C352.264 30.7453 353.17 29.66 353.41 29.3574C354.045 28.4422 355.473 21.8734 355.634 21.0022C355.796 20.131 356.236 19.976 356.825 21.3032C357.435 22.6323 356.002 29.5031 356.002 29.5031L356.183 29.3896C357.161 27.2307 357.792 22.2106 357.792 22.2106C357.792 22.2106 358.529 19.1444 359.676 20.4352C360.823 21.726 358.093 30.2519 358.093 30.2519L358.075 30.2072Z" fill="url(#paint1_linear_9277_7152)"/>
<path d="M271.308 160.823C270.724 160.749 212.723 153.34 187.413 150.447C151.287 146.316 125.1 152.704 124.84 152.769L122.605 143.647C123.729 143.364 150.564 136.774 188.458 141.109C213.829 144.012 271.889 151.426 272.473 151.5L271.311 160.826L271.308 160.823Z" fill="white"/>
<path opacity="0.8" d="M271.308 160.823C270.724 160.749 212.723 153.34 187.413 150.447C151.287 146.316 125.1 152.704 124.84 152.769L122.605 143.647C123.729 143.364 150.564 136.774 188.458 141.109C213.829 144.012 271.889 151.426 272.473 151.5L271.311 160.826L271.308 160.823Z" fill="url(#paint2_linear_9277_7152)"/>
<path opacity="0.08" d="M395.392 350.939C395.392 356.098 363.627 367.731 285.871 360.282C210.818 353.094 122.391 356.098 122.391 350.939C122.391 345.779 210.482 341.596 285.871 341.596C361.26 341.596 395.392 345.779 395.392 350.939Z" fill="#001464"/>
<path d="M281.671 63.9064C287.901 62.3124 296.505 63.5837 298.279 74.1558C298.939 78.0907 299.669 83.5611 299.516 88.0701C299.482 89.0753 293.422 89.5886 292.5 88.5763C293.5 91.6132 296.084 92.2386 299 92.2386C298.519 93.9716 297.636 95.6057 296.397 96.0449C294.354 96.7699 286.525 96.0449 286.525 96.0449L288.171 104.849H273.832L276.182 92.2386C276.182 92.2386 261.14 69.1577 281.669 63.9064H281.671Z" fill="url(#paint3_linear_9277_7152)"/>
<path d="M293.722 65.3003L284.303 79.3087C282.633 76.143 280.109 76.9773 278.785 79.5371C277.154 82.6879 280.838 85.3794 280.489 86.442C280.141 87.5047 277.002 92.1204 276.185 92.2396C275.371 92.3563 259.791 85.1857 266.958 67.1351C270.259 58.815 284.441 55.8951 293.724 65.3003H293.722Z" fill="url(#paint4_linear_9277_7152)"/>
<path d="M283.562 51.291C284.712 56.294 282.343 60.145 277.847 61.2052C273.351 62.2654 270.548 59.4796 269.398 54.4765C268.247 49.4735 269.753 45.1583 274.249 44.0981C278.745 43.0379 282.412 46.288 283.562 51.291Z" fill="url(#paint5_linear_9277_7152)"/>
<path d="M285.995 211.707C285.995 211.707 261.51 179.991 256.519 190.362C251.525 200.733 256.028 222.014 252.253 241.092C251.37 245.556 250.409 249.39 249.322 252.941C242.371 254.224 234.483 255.292 223.517 257.214C211.909 259.247 201.634 262.05 193.18 266.107L194.558 276.841C213.204 273.05 238.535 271.158 245.295 269.991C253.634 268.548 260.975 269.484 266.327 257.363C275.191 237.291 285.995 211.707 285.995 211.707Z" fill="url(#paint6_linear_9277_7152)"/>
<path d="M177.371 280.938L178.514 270.51L193.181 266.107L194.557 276.838L177.371 280.938Z" fill="url(#paint7_linear_9277_7152)"/>
<path d="M255.438 200.309C255.438 200.309 292.976 261.371 295.51 266.814C298.046 272.254 298.085 284.425 307.876 302.803C312.772 311.99 318.536 321.529 323.076 328.769L332.273 326.04C326.892 308.913 317.439 278.878 315.173 271.941C311.955 262.096 299.02 200.749 299.02 200.749C299.02 200.749 256.298 184.772 255.44 200.312L255.438 200.309Z" fill="url(#paint8_linear_9277_7152)"/>
<path d="M340.065 342.35L331.571 346.156L323.078 328.766L332.273 326.037L340.065 342.35Z" fill="url(#paint9_linear_9277_7152)"/>
<path d="M286.302 117.209C282.893 109.042 297.816 98.5554 335.991 89.111L349.842 42.002L356.761 42.0114C356.761 42.0114 359.214 85.7981 349.912 97.8826C340.611 109.967 292.591 132.267 286.302 117.206L286.302 117.209Z" fill="white"/>
<path opacity="0.7" d="M286.302 117.209C282.893 109.042 297.816 98.5554 335.991 89.111L349.842 42.002L356.761 42.0114C356.761 42.0114 359.214 85.7981 349.912 97.8826C340.611 109.967 292.591 132.267 286.302 117.206L286.302 117.209Z" fill="url(#paint10_linear_9277_7152)"/>
<path d="M291.013 102.559L246.747 91.5771C246.747 91.5771 237.755 119.964 260.036 121.292C282.316 122.621 291.013 102.559 291.013 102.559Z" fill="white"/>
<path d="M278.921 101.136C272.554 101.536 266.677 108.259 262.574 120.433C259.427 142.382 248.142 224.342 248.142 224.342L307.561 218.989C307.561 218.989 304.503 112.244 293.12 103.341C289.039 101.603 284.332 100.796 278.921 101.136Z" fill="white"/>
<g opacity="0.7">
<path d="M291.013 102.559L246.747 91.5771C246.747 91.5771 237.755 119.964 260.036 121.292C282.316 122.621 291.013 102.559 291.013 102.559Z" fill="url(#paint11_linear_9277_7152)"/>
<path d="M278.921 101.136C272.554 101.536 266.677 108.259 262.574 120.433C259.427 142.382 248.142 224.342 248.142 224.342L307.561 218.989C307.561 218.989 304.503 112.244 293.12 103.341C289.039 101.603 284.332 100.796 278.921 101.136Z" fill="url(#paint12_linear_9277_7152)"/>
</g>
<path d="M180.432 269.686C180.204 269.07 169.01 268.38 168.527 269.453C168.044 270.525 170.168 299.106 171.921 300.61C172.841 301.402 176.478 300.134 176.591 299.52C178.639 288.221 183.645 279.692 183.645 279.692C183.645 279.692 182.394 276.963 180.933 277.43L180.337 277.825C180.337 277.825 178.536 276.198 178.541 274.463C178.546 272.73 181.009 271.248 180.432 269.686Z" fill="url(#paint13_linear_9277_7152)"/>
<path d="M328.753 341.58C328.226 341.964 330.526 353.075 331.677 353.266C332.827 353.453 359.493 343.827 360.464 341.716C360.974 340.609 358.804 337.393 358.188 337.446C346.884 338.434 337.433 335.797 337.433 335.797C337.433 335.797 335.165 337.739 335.996 339.042L336.531 339.521C336.531 339.521 335.456 341.709 333.803 342.161C332.15 342.615 330.09 340.601 328.753 341.577V341.58Z" fill="url(#paint14_linear_9277_7152)"/>
<path d="M272.844 130.75C277.643 123.429 260.328 104.928 222.898 92.4127L200.932 41.0054L195.311 43.98C195.311 43.98 197.957 85.9425 206.496 98.7626C215.036 111.577 267.459 138.958 272.841 130.75L272.844 130.75Z" fill="white"/>
<path opacity="0.7" d="M272.844 130.75C277.643 123.429 260.328 104.928 222.898 92.4127L200.932 41.0054L195.311 43.98C195.311 43.98 197.957 85.9425 206.496 98.7626C215.036 111.577 267.459 138.958 272.841 130.75L272.844 130.75Z" fill="url(#paint15_linear_9277_7152)"/>
<g opacity="0.8">
<path d="M229.248 51.6279C229.851 53.7458 231.036 55.6204 232.763 57.1995C234.006 58.3367 235.083 58.8879 235.093 58.8929L233.17 62.9251C232.917 62.8034 226.989 59.8363 225 52.8743L229.248 51.6304V51.6279Z" fill="url(#paint16_linear_9277_7152)"/>
<path d="M214.46 253.099C215.066 255.217 216.248 257.091 217.975 258.67C219.219 259.807 220.295 260.359 220.305 260.364L218.382 264.396C218.13 264.274 212.201 261.307 210.212 254.345L214.46 253.101V253.099Z" fill="url(#paint17_linear_9277_7152)"/>
<path d="M316.135 120.479C316.738 122.597 317.923 124.469 319.65 126.051C320.893 127.188 321.97 127.739 321.98 127.744L320.057 131.777C319.804 131.652 313.876 128.688 311.887 121.726L316.135 120.482V120.479Z" fill="url(#paint18_linear_9277_7152)"/>
<path d="M208.049 91.0988C206.597 89.4576 204.728 88.2881 202.496 87.6227C200.89 87.1435 199.683 87.1212 199.671 87.1212L199.675 82.6445C199.955 82.6445 206.568 82.7141 211.345 88.1143L208.051 91.1012L208.049 91.0988Z" fill="url(#paint19_linear_9277_7152)"/>
<path d="M194.782 138.388C196.925 138.014 198.897 137.033 200.639 135.471C201.895 134.346 202.552 133.323 202.559 133.313L206.304 135.695C206.157 135.933 202.589 141.572 195.532 142.803L194.782 138.391V138.388Z" fill="url(#paint20_linear_9277_7152)"/>
<path d="M370 95.1722C372.144 94.7973 374.116 93.8166 375.857 92.2524C377.113 91.1276 377.77 90.1047 377.778 90.0947L381.523 92.4758C381.373 92.7142 377.807 98.3528 370.751 99.5843L370 95.1722Z" fill="url(#paint21_linear_9277_7152)"/>
<path d="M322.671 77.9147C321.42 77.9147 320.356 77.7409 319.436 77.3908C318.283 76.9513 317.398 76.2412 316.8 75.2828C314.913 72.2587 316.925 68.2687 317.16 67.8242L321.057 69.9396L321.062 69.9297C320.611 70.8012 320.194 72.3505 320.54 72.8943C320.726 73.1897 321.526 73.5051 323.174 73.4231L323.385 77.8948C323.14 77.9072 322.902 77.9122 322.671 77.9122V77.9147Z" fill="url(#paint22_linear_9277_7152)"/>
<path d="M318.073 30.323C318.936 31.2392 319.547 32.138 319.929 33.0542C320.41 34.2013 320.513 35.3409 320.243 36.4408C319.382 39.9094 315.142 41.1881 314.661 41.3222L313.484 37.0069H313.474C314.406 36.7388 315.801 35.9765 315.956 35.3484C316.039 35.0082 315.711 34.2037 314.516 33.0517L317.57 29.8115C317.746 29.9828 317.916 30.1542 318.075 30.323H318.073Z" fill="url(#paint23_linear_9277_7152)"/>
<path d="M206.037 166.405C207.22 165.991 208.279 165.799 209.263 165.827C210.494 165.859 211.561 166.236 212.436 166.942C215.198 169.171 214.59 173.611 214.511 174.11L210.143 173.407V173.417C210.285 172.446 210.178 170.842 209.677 170.442C209.407 170.226 208.547 170.194 207.016 170.815L205.37 166.661C205.598 166.569 205.822 166.485 206.04 166.408L206.037 166.405Z" fill="url(#paint24_linear_9277_7152)"/>
<path d="M158.412 58.873C159.163 57.86 159.935 57.1027 160.767 56.5664C161.804 55.896 162.898 55.6031 164.014 55.6924C167.536 55.978 169.484 60.0002 169.695 60.4571L165.687 62.3491L165.692 62.359C165.275 61.4726 164.299 60.2063 163.661 60.1567C163.317 60.1294 162.587 60.5912 161.662 61.9717L158 59.4615C158.137 59.2554 158.275 59.0592 158.415 58.873H158.412Z" fill="url(#paint25_linear_9277_7152)"/>
<path d="M324.098 257.115C321.287 257.358 319.04 258.813 317.6 261.321C316.595 263.074 316.352 264.742 316.328 264.926L320.549 265.499V265.514C320.549 265.514 320.713 264.432 321.341 263.384C322.069 262.172 323.09 261.527 324.458 261.408L324.095 257.112L324.098 257.115Z" fill="url(#paint26_linear_9277_7152)"/>
<path d="M233.339 103.635C236.152 103.873 238.607 102.82 240.442 100.593C241.722 99.0363 242.239 97.4348 242.293 97.256L238.229 95.9749L238.234 95.96C238.234 95.96 237.893 96.9978 237.096 97.9239C236.176 98.994 235.065 99.4583 233.694 99.3417L233.339 103.637V103.635Z" fill="url(#paint27_linear_9277_7152)"/>
<path d="M367.56 138.497C367.347 138.457 366.067 138.127 361.811 135.49C359.471 134.04 357.418 132.625 357.399 132.612L355 136.175C355.086 136.235 357.146 137.655 359.572 139.16C364.195 142.027 365.907 142.576 366.793 142.74L367.558 138.499L367.56 138.497Z" fill="url(#paint28_linear_9277_7152)"/>
<path d="M388.56 30.1794C388.347 30.1396 387.067 29.8094 382.811 27.1726C380.471 25.7226 378.421 24.3073 378.399 24.2949L376 27.8579C376.086 27.9175 378.146 29.3377 380.572 30.8423C385.195 33.71 386.907 34.2587 387.793 34.4226L388.558 30.1818L388.56 30.1794Z" fill="url(#paint29_linear_9277_7152)"/>
<path d="M242.92 218.733C242.707 218.693 241.427 218.363 237.171 215.726C234.831 214.276 232.778 212.861 232.759 212.849L230.36 216.412C230.446 216.471 232.506 217.891 234.932 219.396C239.555 222.264 241.267 222.812 242.153 222.976L242.918 218.736L242.92 218.733Z" fill="url(#paint30_linear_9277_7152)"/>
<path d="M152.119 114.63C151.905 114.59 150.625 114.26 146.37 111.623C144.03 110.173 141.979 108.758 141.957 108.745L139.558 112.306C139.644 112.365 141.705 113.785 144.13 115.29C148.754 118.158 150.466 118.706 151.351 118.87L152.116 114.63H152.119Z" fill="url(#paint31_linear_9277_7152)"/>
<path d="M210.733 15.815C210.681 16.0285 210.284 17.3047 207.446 21.4586C205.886 23.7428 204.375 25.7366 204.36 25.7565L207.74 28.3784C207.804 28.294 209.32 26.2928 210.939 23.9216C214.024 19.4077 214.662 17.7094 214.873 16.823L210.733 15.8125V15.815Z" fill="url(#paint32_linear_9277_7152)"/>
<path d="M364.748 233.672C364.61 233.503 363.84 232.413 362.263 227.621C361.395 224.987 360.728 222.566 360.72 222.541L356.619 223.701C356.649 223.802 357.321 226.233 358.218 228.964C359.93 234.173 360.889 235.71 361.463 236.413L364.748 233.669V233.672Z" fill="url(#paint33_linear_9277_7152)"/>
<path d="M195.407 227.467C195.255 227.623 194.259 228.505 189.707 230.568C187.203 231.7 184.89 232.616 184.868 232.624L186.413 236.641C186.511 236.601 188.831 235.685 191.429 234.511C196.378 232.271 197.796 231.151 198.429 230.506L195.407 227.469V227.467Z" fill="url(#paint34_linear_9277_7152)"/>
<path d="M344.249 158.932C342.299 160.109 341.24 162.591 340.541 164.233C340.497 164.337 340.455 164.436 340.413 164.528C340.08 164.675 339.28 164.96 337.563 165.298C336.204 165.566 335.012 165.717 335 165.72L335.53 169.995C335.598 169.985 337.217 169.779 338.934 169.414C342.093 168.742 343.486 168.029 344.077 166.78C344.193 166.532 344.315 166.246 344.445 165.941C344.838 165.017 345.657 163.098 346.422 162.636L344.244 158.934L344.249 158.932Z" fill="url(#paint35_linear_9277_7152)"/>
<path d="M181.827 102.711C181.179 104.913 182.062 107.466 182.646 109.154C182.683 109.261 182.72 109.365 182.752 109.459C182.604 109.795 182.207 110.554 181.17 111.977C180.348 113.104 179.575 114.035 179.566 114.045L182.818 116.826C182.862 116.774 183.914 115.51 184.935 114.063C186.808 111.401 187.358 109.921 186.953 108.598C186.875 108.337 186.772 108.039 186.664 107.726C186.335 106.778 185.653 104.804 185.906 103.94L181.824 102.711H181.827Z" fill="url(#paint36_linear_9277_7152)"/>
<path d="M251.175 15.5041C252.953 16.9343 255.621 17.0559 257.385 17.1354C257.498 17.1403 257.603 17.1453 257.704 17.1503C257.956 17.4135 258.503 18.0689 259.423 19.5736C260.151 20.7654 260.716 21.838 260.72 21.8504L264.483 19.8318C264.451 19.7697 263.686 18.3123 262.739 16.8151C260.998 14.0616 259.845 12.9964 258.484 12.8822C258.214 12.8599 257.905 12.845 257.579 12.8301C256.588 12.7854 254.523 12.691 253.823 12.1299L251.175 15.5041Z" fill="url(#paint37_linear_9277_7152)"/>
<path d="M316.031 186.437C317.809 187.867 320.478 187.989 322.241 188.068C322.354 188.073 322.46 188.078 322.56 188.083C322.813 188.346 323.36 189.004 324.28 190.506C325.008 191.698 325.572 192.771 325.577 192.783L329.34 190.764C329.308 190.702 328.542 189.242 327.596 187.748C325.854 184.994 324.702 183.929 323.34 183.815C323.07 183.792 322.761 183.778 322.435 183.763C321.444 183.718 319.379 183.624 318.68 183.062L316.031 186.439V186.437Z" fill="url(#paint38_linear_9277_7152)"/>
<path d="M390.342 171.055C392.498 170.33 394.055 168.135 395.088 166.683C395.154 166.591 395.215 166.504 395.274 166.422C395.63 166.353 396.471 166.246 398.22 166.291C399.603 166.325 400.8 166.435 400.812 166.435L401.2 162.142C401.131 162.134 399.505 161.985 397.751 161.97C394.524 161.941 393.01 162.335 392.171 163.425C392.005 163.641 391.823 163.897 391.632 164.165C391.053 164.982 389.846 166.678 389 166.963L390.344 171.053L390.342 171.055Z" fill="url(#paint39_linear_9277_7152)"/>
<path d="M421.22 60.7404C418.951 60.6734 416.741 62.1954 415.282 63.201C415.189 63.2655 415.101 63.3251 415.017 63.3822C414.659 63.3251 413.833 63.1314 412.206 62.4834C410.919 61.9719 409.832 61.453 409.82 61.448L408 65.3462C408.061 65.376 409.54 66.0811 411.181 66.7043C414.203 67.8539 415.758 68.0078 416.916 67.2754C417.146 67.1289 417.401 66.9551 417.671 66.7689C418.493 66.2028 420.2 65.0284 421.093 65.0532L421.215 60.7454L421.22 60.7404Z" fill="url(#paint40_linear_9277_7152)"/>
<path d="M303.779 9.08395C305.934 8.35895 307.492 6.16408 308.525 4.71159C308.591 4.61972 308.652 4.53034 308.711 4.45089C309.067 4.38137 309.908 4.27709 311.657 4.3193C313.04 4.35406 314.237 4.4633 314.249 4.46579L314.637 0.172876C314.568 0.165427 312.942 0.0189367 311.188 0.00155654C307.96 -0.0282381 306.447 0.366541 305.608 1.45901C305.441 1.67502 305.262 1.92828 305.069 2.19891C304.49 3.01578 303.283 4.71159 302.437 4.99712L303.781 9.08644L303.779 9.08395Z" fill="url(#paint41_linear_9277_7152)"/>
<path d="M166.244 180.755C166.705 183.007 168.675 184.83 169.98 186.036C170.063 186.113 170.141 186.185 170.215 186.255C170.242 186.62 170.247 187.479 169.999 189.232C169.803 190.62 169.558 191.809 169.555 191.822L173.722 192.713C173.737 192.643 174.073 191.027 174.294 189.264C174.701 186.021 174.49 184.455 173.516 183.484C173.323 183.29 173.095 183.082 172.854 182.856C172.121 182.178 170.595 180.768 170.416 179.884L166.247 180.758L166.244 180.755Z" fill="url(#paint42_linear_9277_7152)"/>
</g>
<path d="M77.4976 197.638L74 188.931C77.1444 187.637 151.709 157.237 214.238 158.913C256.17 160.03 288.224 157.326 303.821 155.161L304.94 164.474C292.791 166.133 261.379 169.569 213.996 168.308C153.451 166.687 78.2505 197.328 77.4976 197.636V197.638Z" fill="white"/>
<path opacity="0.8" d="M77.4976 197.638L74 188.931C77.1444 187.637 151.709 157.237 214.238 158.913C256.17 160.03 288.224 157.326 303.821 155.161L304.94 164.474C292.791 166.133 261.379 169.569 213.996 168.308C153.451 166.687 78.2505 197.328 77.4976 197.636V197.638Z" fill="url(#paint43_linear_9277_7152)"/>
</g>
<defs>
<linearGradient id="paint0_linear_9277_7152" x1="195.903" y1="46.4774" x2="194.869" y2="20.5262" gradientUnits="userSpaceOnUse">
<stop stop-color="#A8316D"/>
<stop offset="1" stop-color="#792D3D"/>
</linearGradient>
<linearGradient id="paint1_linear_9277_7152" x1="354.815" y1="45.7712" x2="357.131" y2="19.9049" gradientUnits="userSpaceOnUse">
<stop stop-color="#A8316D"/>
<stop offset="1" stop-color="#792D3D"/>
</linearGradient>
<linearGradient id="paint2_linear_9277_7152" x1="122.616" y1="150.231" x2="272.53" y2="150.231" gradientUnits="userSpaceOnUse">
<stop stop-color="#9D0051"/>
<stop offset="0.1" stop-color="#9D0051"/>
<stop offset="0.91" stop-color="#301C90"/>
<stop offset="1" stop-color="#301C90"/>
</linearGradient>
<linearGradient id="paint3_linear_9277_7152" x1="299.537" y1="84.1446" x2="270.786" y2="84.1446" gradientUnits="userSpaceOnUse">
<stop stop-color="#AA316D"/>
<stop offset="1" stop-color="#792D3D"/>
</linearGradient>
<linearGradient id="paint4_linear_9277_7152" x1="279.401" y1="59.4531" x2="279.401" y2="92.241" gradientUnits="userSpaceOnUse">
<stop stop-color="#FFFB96"/>
<stop offset="1" stop-color="#FFD583"/>
</linearGradient>
<linearGradient id="paint5_linear_9277_7152" x1="276.439" y1="43.8975" x2="276.439" y2="61.4288" gradientUnits="userSpaceOnUse">
<stop stop-color="#FFFB96"/>
<stop offset="1" stop-color="#FFD583"/>
</linearGradient>
<linearGradient id="paint6_linear_9277_7152" x1="287.466" y1="229.613" x2="118.74" y2="220.798" gradientUnits="userSpaceOnUse">
<stop stop-color="#CEDDFE"/>
<stop offset="1" stop-color="#7399EF"/>
</linearGradient>
<linearGradient id="paint7_linear_9277_7152" x1="194.558" y1="273.541" x2="177.322" y2="273.541" gradientUnits="userSpaceOnUse">
<stop stop-color="#AA316D"/>
<stop offset="1" stop-color="#792D3D"/>
</linearGradient>
<linearGradient id="paint8_linear_9277_7152" x1="333.491" y1="256.642" x2="193.544" y2="252.679" gradientUnits="userSpaceOnUse">
<stop stop-color="#CEDDFE"/>
<stop offset="1" stop-color="#7399EF"/>
</linearGradient>
<linearGradient id="paint9_linear_9277_7152" x1="340.066" y1="336.121" x2="323.03" y2="336.121" gradientUnits="userSpaceOnUse">
<stop stop-color="#AA316D"/>
<stop offset="1" stop-color="#792D3D"/>
</linearGradient>
<linearGradient id="paint10_linear_9277_7152" x1="322.903" y1="121.362" x2="320.12" y2="43.0805" gradientUnits="userSpaceOnUse">
<stop stop-color="#0057D2"/>
<stop offset="0.1" stop-color="#0057D2"/>
<stop offset="0.39" stop-color="#0085E4"/>
<stop offset="0.73" stop-color="#00B4F7"/>
<stop offset="0.9" stop-color="#00C7FF"/>
<stop offset="1" stop-color="#00C7FF"/>
</linearGradient>
<linearGradient id="paint11_linear_9277_7152" x1="244.94" y1="106.47" x2="291" y2="106.47" gradientUnits="userSpaceOnUse">
<stop stop-color="#0057D2"/>
<stop offset="0.1" stop-color="#0057D2"/>
<stop offset="0.39" stop-color="#0085E4"/>
<stop offset="0.73" stop-color="#00B4F7"/>
<stop offset="0.9" stop-color="#00C7FF"/>
<stop offset="1" stop-color="#00C7FF"/>
</linearGradient>
<linearGradient id="paint12_linear_9277_7152" x1="248.126" y1="162.717" x2="307.545" y2="162.717" gradientUnits="userSpaceOnUse">
<stop stop-color="#0057D2"/>
<stop offset="0.1" stop-color="#0057D2"/>
<stop offset="0.39" stop-color="#0085E4"/>
<stop offset="0.73" stop-color="#00B4F7"/>
<stop offset="0.9" stop-color="#00C7FF"/>
<stop offset="1" stop-color="#00C7FF"/>
</linearGradient>
<linearGradient id="paint13_linear_9277_7152" x1="168.458" y1="284.879" x2="183.645" y2="284.879" gradientUnits="userSpaceOnUse">
<stop stop-color="#444B8B"/>
<stop offset="0.99" stop-color="#26264F"/>
</linearGradient>
<linearGradient id="paint14_linear_9277_7152" x1="328.678" y1="344.534" x2="360.54" y2="344.534" gradientUnits="userSpaceOnUse">
<stop stop-color="#444B8B"/>
<stop offset="0.99" stop-color="#26264F"/>
</linearGradient>
<linearGradient id="paint15_linear_9277_7152" x1="204.464" y1="96.0593" x2="258.974" y2="79.2919" gradientUnits="userSpaceOnUse">
<stop stop-color="#0057D2"/>
<stop offset="0.1" stop-color="#0057D2"/>
<stop offset="0.39" stop-color="#0085E4"/>
<stop offset="0.73" stop-color="#00B4F7"/>
<stop offset="0.9" stop-color="#00C7FF"/>
<stop offset="1" stop-color="#00C7FF"/>
</linearGradient>
<linearGradient id="paint16_linear_9277_7152" x1="235.095" y1="57.2784" x2="225.001" y2="57.2784" gradientUnits="userSpaceOnUse">
<stop stop-color="#530085"/>
<stop offset="0.1" stop-color="#530085"/>
<stop offset="0.9" stop-color="#0052F2"/>
<stop offset="1" stop-color="#0052F2"/>
</linearGradient>
<linearGradient id="paint17_linear_9277_7152" x1="220.307" y1="258.749" x2="210.213" y2="258.749" gradientUnits="userSpaceOnUse">
<stop stop-color="#530085"/>
<stop offset="0.1" stop-color="#530085"/>
<stop offset="0.9" stop-color="#0052F2"/>
<stop offset="1" stop-color="#0052F2"/>
</linearGradient>
<linearGradient id="paint18_linear_9277_7152" x1="321.982" y1="126.13" x2="311.888" y2="126.13" gradientUnits="userSpaceOnUse">
<stop stop-color="#530085"/>
<stop offset="0.1" stop-color="#530085"/>
<stop offset="0.9" stop-color="#0052F2"/>
<stop offset="1" stop-color="#0052F2"/>
</linearGradient>
<linearGradient id="paint19_linear_9277_7152" x1="211.348" y1="86.8743" x2="199.672" y2="86.8743" gradientUnits="userSpaceOnUse">
<stop stop-color="#530085"/>
<stop offset="0.1" stop-color="#530085"/>
<stop offset="0.9" stop-color="#0052F2"/>
<stop offset="1" stop-color="#0052F2"/>
</linearGradient>
<linearGradient id="paint20_linear_9277_7152" x1="206.307" y1="138.06" x2="194.783" y2="138.06" gradientUnits="userSpaceOnUse">
<stop stop-color="#530085"/>
<stop offset="0.1" stop-color="#530085"/>
<stop offset="0.9" stop-color="#0052F2"/>
<stop offset="1" stop-color="#0052F2"/>
</linearGradient>
<linearGradient id="paint21_linear_9277_7152" x1="381.525" y1="94.8411" x2="370.001" y2="94.8411" gradientUnits="userSpaceOnUse">
<stop stop-color="#530085"/>
<stop offset="0.1" stop-color="#530085"/>
<stop offset="0.9" stop-color="#0052F2"/>
<stop offset="1" stop-color="#0052F2"/>
</linearGradient>
<linearGradient id="paint22_linear_9277_7152" x1="323.387" y1="72.8711" x2="316.001" y2="72.8711" gradientUnits="userSpaceOnUse">
<stop stop-color="#530085"/>
<stop offset="0.1" stop-color="#530085"/>
<stop offset="0.9" stop-color="#0052F2"/>
<stop offset="1" stop-color="#0052F2"/>
</linearGradient>
<linearGradient id="paint23_linear_9277_7152" x1="320.391" y1="35.5688" x2="313.474" y2="35.5688" gradientUnits="userSpaceOnUse">
<stop stop-color="#530085"/>
<stop offset="0.1" stop-color="#530085"/>
<stop offset="0.9" stop-color="#0052F2"/>
<stop offset="1" stop-color="#0052F2"/>
</linearGradient>
<linearGradient id="paint24_linear_9277_7152" x1="214.624" y1="169.968" x2="205.371" y2="169.968" gradientUnits="userSpaceOnUse">
<stop stop-color="#530085"/>
<stop offset="0.1" stop-color="#530085"/>
<stop offset="0.9" stop-color="#0052F2"/>
<stop offset="1" stop-color="#0052F2"/>
</linearGradient>
<linearGradient id="paint25_linear_9277_7152" x1="169.697" y1="59.019" x2="158.001" y2="59.019" gradientUnits="userSpaceOnUse">
<stop stop-color="#530085"/>
<stop offset="0.1" stop-color="#530085"/>
<stop offset="0.9" stop-color="#0052F2"/>
<stop offset="1" stop-color="#0052F2"/>
</linearGradient>
<linearGradient id="paint26_linear_9277_7152" x1="324.46" y1="261.315" x2="316.328" y2="261.315" gradientUnits="userSpaceOnUse">
<stop stop-color="#530085"/>
<stop offset="0.1" stop-color="#530085"/>
<stop offset="0.9" stop-color="#0052F2"/>
<stop offset="1" stop-color="#0052F2"/>
</linearGradient>
<linearGradient id="paint27_linear_9277_7152" x1="242.295" y1="99.8151" x2="233.339" y2="99.8151" gradientUnits="userSpaceOnUse">
<stop stop-color="#530085"/>
<stop offset="0.1" stop-color="#530085"/>
<stop offset="0.9" stop-color="#0052F2"/>
<stop offset="1" stop-color="#0052F2"/>
</linearGradient>
<linearGradient id="paint28_linear_9277_7152" x1="367.563" y1="137.678" x2="355.001" y2="137.678" gradientUnits="userSpaceOnUse">
<stop stop-color="#530085"/>
<stop offset="0.1" stop-color="#530085"/>
<stop offset="0.9" stop-color="#0052F2"/>
<stop offset="1" stop-color="#0052F2"/>
</linearGradient>
<linearGradient id="paint29_linear_9277_7152" x1="388.563" y1="29.3604" x2="376.001" y2="29.3604" gradientUnits="userSpaceOnUse">
<stop stop-color="#530085"/>
<stop offset="0.1" stop-color="#530085"/>
<stop offset="0.9" stop-color="#0052F2"/>
<stop offset="1" stop-color="#0052F2"/>
</linearGradient>
<linearGradient id="paint30_linear_9277_7152" x1="242.923" y1="217.914" x2="230.361" y2="217.914" gradientUnits="userSpaceOnUse">
<stop stop-color="#530085"/>
<stop offset="0.1" stop-color="#530085"/>
<stop offset="0.9" stop-color="#0052F2"/>
<stop offset="1" stop-color="#0052F2"/>
</linearGradient>
<linearGradient id="paint31_linear_9277_7152" x1="152.121" y1="113.809" x2="139.56" y2="113.809" gradientUnits="userSpaceOnUse">
<stop stop-color="#530085"/>
<stop offset="0.1" stop-color="#530085"/>
<stop offset="0.9" stop-color="#0052F2"/>
<stop offset="1" stop-color="#0052F2"/>
</linearGradient>
<linearGradient id="paint32_linear_9277_7152" x1="214.875" y1="22.0975" x2="204.362" y2="22.0975" gradientUnits="userSpaceOnUse">
<stop stop-color="#530085"/>
<stop offset="0.1" stop-color="#530085"/>
<stop offset="0.9" stop-color="#0052F2"/>
<stop offset="1" stop-color="#0052F2"/>
</linearGradient>
<linearGradient id="paint33_linear_9277_7152" x1="364.749" y1="229.479" x2="356.62" y2="229.479" gradientUnits="userSpaceOnUse">
<stop stop-color="#530085"/>
<stop offset="0.1" stop-color="#530085"/>
<stop offset="0.9" stop-color="#0052F2"/>
<stop offset="1" stop-color="#0052F2"/>
</linearGradient>
<linearGradient id="paint34_linear_9277_7152" x1="198.431" y1="232.055" x2="184.869" y2="232.055" gradientUnits="userSpaceOnUse">
<stop stop-color="#530085"/>
<stop offset="0.1" stop-color="#530085"/>
<stop offset="0.9" stop-color="#0052F2"/>
<stop offset="1" stop-color="#0052F2"/>
</linearGradient>
<linearGradient id="paint35_linear_9277_7152" x1="346.424" y1="164.465" x2="335.001" y2="164.465" gradientUnits="userSpaceOnUse">
<stop stop-color="#530085"/>
<stop offset="0.1" stop-color="#530085"/>
<stop offset="0.9" stop-color="#0052F2"/>
<stop offset="1" stop-color="#0052F2"/>
</linearGradient>
<linearGradient id="paint36_linear_9277_7152" x1="187.08" y1="109.771" x2="179.566" y2="109.771" gradientUnits="userSpaceOnUse">
<stop stop-color="#530085"/>
<stop offset="0.1" stop-color="#530085"/>
<stop offset="0.9" stop-color="#0052F2"/>
<stop offset="1" stop-color="#0052F2"/>
</linearGradient>
<linearGradient id="paint37_linear_9277_7152" x1="264.486" y1="16.9917" x2="251.176" y2="16.9917" gradientUnits="userSpaceOnUse">
<stop stop-color="#530085"/>
<stop offset="0.1" stop-color="#530085"/>
<stop offset="0.9" stop-color="#0052F2"/>
<stop offset="1" stop-color="#0052F2"/>
</linearGradient>
<linearGradient id="paint38_linear_9277_7152" x1="329.342" y1="187.924" x2="316.033" y2="187.924" gradientUnits="userSpaceOnUse">
<stop stop-color="#530085"/>
<stop offset="0.1" stop-color="#530085"/>
<stop offset="0.9" stop-color="#0052F2"/>
<stop offset="1" stop-color="#0052F2"/>
</linearGradient>
<linearGradient id="paint39_linear_9277_7152" x1="401.202" y1="166.513" x2="389.001" y2="166.513" gradientUnits="userSpaceOnUse">
<stop stop-color="#530085"/>
<stop offset="0.1" stop-color="#530085"/>
<stop offset="0.9" stop-color="#0052F2"/>
<stop offset="1" stop-color="#0052F2"/>
</linearGradient>
<linearGradient id="paint40_linear_9277_7152" x1="421.223" y1="64.2312" x2="408.001" y2="64.2312" gradientUnits="userSpaceOnUse">
<stop stop-color="#530085"/>
<stop offset="0.1" stop-color="#530085"/>
<stop offset="0.9" stop-color="#0052F2"/>
<stop offset="1" stop-color="#0052F2"/>
</linearGradient>
<linearGradient id="paint41_linear_9277_7152" x1="314.639" y1="4.54472" x2="302.438" y2="4.54472" gradientUnits="userSpaceOnUse">
<stop stop-color="#530085"/>
<stop offset="0.1" stop-color="#530085"/>
<stop offset="0.9" stop-color="#0052F2"/>
<stop offset="1" stop-color="#0052F2"/>
</linearGradient>
<linearGradient id="paint42_linear_9277_7152" x1="174.492" y1="186.3" x2="166.245" y2="186.3" gradientUnits="userSpaceOnUse">
<stop stop-color="#530085"/>
<stop offset="0.1" stop-color="#530085"/>
<stop offset="0.9" stop-color="#0052F2"/>
<stop offset="1" stop-color="#0052F2"/>
</linearGradient>
<linearGradient id="paint43_linear_9277_7152" x1="74.0159" y1="176.4" x2="305.026" y2="176.4" gradientUnits="userSpaceOnUse">
<stop stop-color="#9D0051"/>
<stop offset="0.1" stop-color="#9D0051"/>
<stop offset="0.91" stop-color="#301C90"/>
<stop offset="1" stop-color="#301C90"/>
</linearGradient>
</defs>
</svg>
