<svg width="46" height="46" viewBox="0 0 46 46" fill="none" xmlns="http://www.w3.org/2000/svg">
<mask id="mask0_3081_716" style="mask-type:alpha" maskUnits="userSpaceOnUse" x="0" y="0" width="46" height="46">
<rect width="46" height="46" fill="#D9D9D9"/>
</mask>
<g mask="url(#mask0_3081_716)">
<path d="M7.66659 40.25C6.61242 40.25 5.71031 39.875 4.96025 39.1249C4.20892 38.3736 3.83325 37.4708 3.83325 36.4167V9.58333C3.83325 8.52917 4.20892 7.62642 4.96025 6.87508C5.71031 6.12503 6.61242 5.75 7.66659 5.75H38.3333C39.3874 5.75 40.2902 6.12503 41.0415 6.87508C41.7916 7.62642 42.1666 8.52917 42.1666 9.58333V36.4167C42.1666 37.4708 41.7916 38.3736 41.0415 39.1249C40.2902 39.875 39.3874 40.25 38.3333 40.25H7.66659ZM7.66659 36.4167H38.3333V9.58333H7.66659V36.4167ZM9.58325 32.5833H19.1666V28.75H9.58325V32.5833ZM27.8874 28.75L37.3749 19.2625L34.6437 16.5312L27.8874 23.3354L25.1562 20.6042L22.4728 23.3354L27.8874 28.75ZM9.58325 24.9167H19.1666V21.0833H9.58325V24.9167ZM9.58325 17.25H19.1666V13.4167H9.58325V17.25Z" fill="url(#paint0_linear_3081_716)"/>
</g>
<defs>
<linearGradient id="paint0_linear_3081_716" x1="-12.7934" y1="22.9721" x2="50.9278" y2="22.8086" gradientUnits="userSpaceOnUse">
<stop offset="0.317708" stop-color="#E43425"/>
<stop offset="0.71875" stop-color="#441FD8"/>
<stop offset="1" stop-color="#0A26B8"/>
</linearGradient>
</defs>
</svg>
