<svg width="46" height="46" viewBox="0 0 46 46" fill="none" xmlns="http://www.w3.org/2000/svg">
<mask id="mask0_3081_736" style="mask-type:alpha" maskUnits="userSpaceOnUse" x="0" y="0" width="46" height="46">
<rect width="46" height="46" fill="#D9D9D9"/>
</mask>
<g mask="url(#mask0_3081_736)">
<path d="M11.5 42.1667C9.90278 42.1667 8.54514 41.6077 7.42708 40.4896C6.30903 39.3716 5.75 38.0139 5.75 36.4167V30.6667H11.5V3.83337L14.375 6.70837L17.25 3.83337L20.125 6.70837L23 3.83337L25.875 6.70837L28.75 3.83337L31.625 6.70837L34.5 3.83337L37.375 6.70837L40.25 3.83337V36.4167C40.25 38.0139 39.691 39.3716 38.5729 40.4896C37.4549 41.6077 36.0972 42.1667 34.5 42.1667H11.5ZM34.5 38.3334C35.0431 38.3334 35.4983 38.1497 35.8656 37.7823C36.233 37.415 36.4167 36.9598 36.4167 36.4167V9.58337H15.3333V30.6667H32.5833V36.4167C32.5833 36.9598 32.767 37.415 33.1344 37.7823C33.5017 38.1497 33.9569 38.3334 34.5 38.3334ZM17.25 17.25V13.4167H28.75V17.25H17.25ZM17.25 23V19.1667H28.75V23H17.25ZM32.5833 17.25C32.0403 17.25 31.5851 17.0664 31.2177 16.699C30.8503 16.3316 30.6667 15.8764 30.6667 15.3334C30.6667 14.7903 30.8503 14.3351 31.2177 13.9677C31.5851 13.6004 32.0403 13.4167 32.5833 13.4167C33.1264 13.4167 33.5816 13.6004 33.949 13.9677C34.3163 14.3351 34.5 14.7903 34.5 15.3334C34.5 15.8764 34.3163 16.3316 33.949 16.699C33.5816 17.0664 33.1264 17.25 32.5833 17.25ZM32.5833 23C32.0403 23 31.5851 22.8164 31.2177 22.449C30.8503 22.0816 30.6667 21.6264 30.6667 21.0834C30.6667 20.5403 30.8503 20.0851 31.2177 19.7177C31.5851 19.3504 32.0403 19.1667 32.5833 19.1667C33.1264 19.1667 33.5816 19.3504 33.949 19.7177C34.3163 20.0851 34.5 20.5403 34.5 21.0834C34.5 21.6264 34.3163 22.0816 33.949 22.449C33.5816 22.8164 33.1264 23 32.5833 23ZM11.5 38.3334H28.75V34.5H9.58333V36.4167C9.58333 36.9598 9.76701 37.415 10.1344 37.7823C10.5017 38.1497 10.9569 38.3334 11.5 38.3334Z" fill="url(#paint0_linear_3081_736)"/>
</g>
<defs>
<linearGradient id="paint0_linear_3081_736" x1="-9.214" y1="22.9691" x2="48.1353" y2="22.8499" gradientUnits="userSpaceOnUse">
<stop offset="0.317708" stop-color="#E43425"/>
<stop offset="0.71875" stop-color="#441FD8"/>
<stop offset="1" stop-color="#0A26B8"/>
</linearGradient>
</defs>
</svg>
