<svg width="48" height="48" viewBox="0 0 48 48" fill="none" xmlns="http://www.w3.org/2000/svg">
<mask id="mask0_9682_474" style="mask-type:alpha" maskUnits="userSpaceOnUse" x="0" y="0" width="48" height="48">
<rect width="48" height="48" fill="#D9D9D9"/>
</mask>
<g mask="url(#mask0_9682_474)">
<path d="M12.8075 40C12.1588 40 11.5565 39.7872 11.0005 39.3615C10.4445 38.9355 10.0828 38.4125 9.9155 37.7925C9.08217 34.8232 8.409 32.3552 7.896 30.3885C7.383 28.4222 6.9885 26.7608 6.7125 25.4045C6.43617 24.0482 6.24833 22.8848 6.149 21.9145C6.04967 20.9442 6 19.9667 6 18.982C6 16.4913 6.87433 14.3717 8.623 12.623C10.3717 10.8743 12.4973 10 15 10H26C26.9 8.8 27.9583 7.83333 29.175 7.1C30.3917 6.36667 31.6667 6 33 6C33.2693 6 33.5033 6.09933 33.702 6.298C33.9007 6.49667 34 6.73067 34 7C34 7.07167 33.9878 7.137 33.9635 7.196C33.9392 7.255 33.9193 7.32933 33.904 7.419C33.745 7.837 33.5878 8.31917 33.4325 8.8655C33.2775 9.4115 33.1153 10.1705 32.946 11.1425L38.804 17H40.6155C41.0142 17 41.3445 17.1312 41.6065 17.3935C41.8688 17.6555 42 17.9858 42 18.3845V26.4655C42 26.7825 41.9168 27.067 41.7505 27.319C41.5842 27.5707 41.343 27.731 41.027 27.8L36.7385 29.238L34.1115 38.004C33.9105 38.6063 33.5722 39.0897 33.0965 39.454C32.6205 39.818 32.0692 40 31.4425 40H28.769C28.021 40 27.3725 39.7255 26.8235 39.1765C26.2745 38.6275 26 37.979 26 37.231V36H18V37.231C18 37.979 17.7255 38.6275 17.1765 39.1765C16.6275 39.7255 15.979 40 15.231 40H12.8075ZM12.673 38.4615H15.231C15.5897 38.4615 15.8845 38.3462 16.1155 38.1155C16.3462 37.8845 16.4615 37.5897 16.4615 37.231V34.4615H27.5385V37.231C27.5385 37.5897 27.6538 37.8845 27.8845 38.1155C28.1155 38.3462 28.4103 38.4615 28.769 38.4615H31.4425C31.6988 38.4615 31.936 38.3847 32.154 38.231C32.372 38.077 32.5322 37.859 32.6345 37.577L35.477 28.077L40.4615 26.3655V18.5385H38.169L31.4615 11.831C31.4692 11.2643 31.5352 10.5982 31.6595 9.8325C31.7838 9.06717 31.9665 8.3255 32.2075 7.6075C31.1075 7.8975 30.0908 8.4155 29.1575 9.1615C28.2242 9.90783 27.5203 10.7002 27.046 11.5385H15C12.9187 11.5385 11.1547 12.2617 9.708 13.708C8.26167 15.1547 7.5385 16.9187 7.5385 19C7.5385 20.3487 7.87317 22.63 8.5425 25.844C9.2115 29.0583 10.1653 32.9437 11.404 37.5C11.4807 37.782 11.6408 38.0128 11.8845 38.1925C12.1282 38.3718 12.391 38.4615 12.673 38.4615ZM32 21.5385C32.4127 21.5385 32.7723 21.3853 33.079 21.079C33.3853 20.7723 33.5385 20.4127 33.5385 20C33.5385 19.5873 33.3853 19.2277 33.079 18.921C32.7723 18.6147 32.4127 18.4615 32 18.4615C31.5873 18.4615 31.2277 18.6147 30.921 18.921C30.6147 19.2277 30.4615 19.5873 30.4615 20C30.4615 20.4127 30.6147 20.7723 30.921 21.079C31.2277 21.3853 31.5873 21.5385 32 21.5385ZM25.231 16.5385C25.45 16.5385 25.633 16.4642 25.78 16.3155C25.9267 16.1668 26 15.9817 26 15.76C26 15.538 25.9267 15.3558 25.78 15.2135C25.633 15.0712 25.45 15 25.231 15H16.769C16.55 15 16.367 15.0743 16.22 15.223C16.0733 15.3717 16 15.5568 16 15.7785C16 16.0005 16.0733 16.1827 16.22 16.325C16.367 16.4673 16.55 16.5385 16.769 16.5385H25.231Z" fill="url(#paint0_linear_9682_474)"/>
</g>
<defs>
<linearGradient id="paint0_linear_9682_474" x1="-9.61461" y1="22.9725" x2="50.228" y2="22.8262" gradientUnits="userSpaceOnUse">
<stop offset="0.317708" stop-color="#E43425"/>
<stop offset="0.71875" stop-color="#441FD8"/>
<stop offset="1" stop-color="#0A26B8"/>
</linearGradient>
</defs>
</svg>
