<svg width="48" height="48" viewBox="0 0 48 48" fill="none" xmlns="http://www.w3.org/2000/svg">
<mask id="mask0_9682_473" style="mask-type:alpha" maskUnits="userSpaceOnUse" x="0" y="0" width="48" height="48">
<rect width="48" height="48" fill="#D9D9D9"/>
</mask>
<g mask="url(#mask0_9682_473)">
<path d="M11.673 42C10.6507 42 9.78283 41.6435 9.0695 40.9305C8.3565 40.2172 8 39.3493 8 38.327V35.231C8 34.4893 8.27617 33.8423 8.8285 33.29C9.3805 32.7377 10.0273 32.4615 10.769 32.4615H14V8.769C14 8.02733 14.2762 7.3805 14.8285 6.8285C15.3805 6.27617 16.0273 6 16.769 6H37.231C37.9727 6 38.6195 6.27617 39.1715 6.8285C39.7238 7.3805 40 8.02733 40 8.769V38.327C40 39.3493 39.6435 40.2172 38.9305 40.9305C38.2172 41.6435 37.3622 42 36.3655 42H11.673ZM36.361 40.4615C36.9537 40.4615 37.452 40.257 37.856 39.848C38.2597 39.4387 38.4615 38.9317 38.4615 38.327V8.769C38.4615 8.41033 38.3462 8.1155 38.1155 7.8845C37.8845 7.65383 37.5897 7.5385 37.231 7.5385H16.769C16.4103 7.5385 16.1155 7.65383 15.8845 7.8845C15.6538 8.1155 15.5385 8.41033 15.5385 8.769V32.4615H31.4615C32.2032 32.4615 32.8502 32.7377 33.4025 33.29C33.9548 33.8423 34.231 34.4893 34.231 35.231V38.327C34.231 38.9317 34.435 39.4387 34.843 39.848C35.2513 40.257 35.7573 40.4615 36.361 40.4615ZM19.5385 15.846C19.3205 15.846 19.1378 15.7713 18.9905 15.622C18.8428 15.4723 18.769 15.287 18.769 15.066C18.769 14.845 18.8428 14.6633 18.9905 14.521C19.1378 14.3787 19.3205 14.3075 19.5385 14.3075H34.4615C34.6795 14.3075 34.8622 14.3823 35.0095 14.532C35.1572 14.6813 35.231 14.8665 35.231 15.0875C35.231 15.3085 35.1572 15.4902 35.0095 15.6325C34.8622 15.7748 34.6795 15.846 34.4615 15.846H19.5385ZM19.5385 21.3845C19.3205 21.3845 19.1378 21.3098 18.9905 21.1605C18.8428 21.0108 18.769 20.8255 18.769 20.6045C18.769 20.3835 18.8428 20.2018 18.9905 20.0595C19.1378 19.9172 19.3205 19.846 19.5385 19.846H34.4615C34.6795 19.846 34.8622 19.9208 35.0095 20.0705C35.1572 20.2198 35.231 20.405 35.231 20.626C35.231 20.847 35.1572 21.0287 35.0095 21.171C34.8622 21.3133 34.6795 21.3845 34.4615 21.3845H19.5385ZM11.604 40.4615H32.6925V35.231C32.6925 34.872 32.577 34.577 32.346 34.346C32.1153 34.1153 31.8205 34 31.4615 34H10.769C10.4103 34 10.1155 34.1153 9.8845 34.346C9.65383 34.577 9.5385 34.872 9.5385 35.231V38.327C9.5385 38.9317 9.74233 39.4387 10.15 39.848C10.5573 40.257 11.042 40.4615 11.604 40.4615ZM11.604 40.4615H9.5385H32.6925H11.604Z" fill="url(#paint0_linear_9682_473)"/>
</g>
<defs>
<linearGradient id="paint0_linear_9682_473" x1="-5.87965" y1="23.9709" x2="47.3139" y2="23.8617" gradientUnits="userSpaceOnUse">
<stop offset="0.317708" stop-color="#E43425"/>
<stop offset="0.71875" stop-color="#441FD8"/>
<stop offset="1" stop-color="#0A26B8"/>
</linearGradient>
</defs>
</svg>
