<svg width="48" height="48" viewBox="0 0 48 48" fill="none" xmlns="http://www.w3.org/2000/svg">
<mask id="mask0_9682_453" style="mask-type:alpha" maskUnits="userSpaceOnUse" x="0" y="0" width="48" height="48">
<rect width="48" height="48" fill="#D9D9D9"/>
</mask>
<g mask="url(#mask0_9682_453)">
<path d="M3.231 35.154C2.907 35.154 2.62083 35.0298 2.3725 34.7815C2.12417 34.5328 2 34.2466 2 33.923V33.6575C2 32.5001 2.634 31.5371 3.902 30.7685C5.17 29.9998 6.8115 29.6155 8.8265 29.6155C9.10383 29.6155 9.41683 29.6301 9.7655 29.6595C10.1142 29.6891 10.4718 29.7315 10.8385 29.7865C10.6488 30.2878 10.5002 30.7841 10.3925 31.2755C10.2848 31.7668 10.231 32.2583 10.231 32.75V35.154H3.231ZM15.4005 35.154C14.9905 35.154 14.6547 35.0215 14.393 34.7565C14.131 34.4911 14 34.162 14 33.769V32.904C14 32.098 14.234 31.3611 14.702 30.6935C15.17 30.0261 15.8603 29.4488 16.773 28.9615C17.686 28.4745 18.7495 28.1091 19.9635 27.8655C21.1775 27.6218 22.5178 27.5 23.9845 27.5C25.4795 27.5 26.834 27.6218 28.048 27.8655C29.262 28.1091 30.3255 28.4745 31.2385 28.9615C32.1512 29.4488 32.8397 30.0261 33.304 30.6935C33.768 31.3611 34 32.098 34 32.904V33.769C34 34.162 33.8675 34.4911 33.6025 34.7565C33.3375 35.0215 33.0085 35.154 32.6155 35.154H15.4005ZM37.769 35.154V32.7555C37.769 32.2181 37.7235 31.7015 37.6325 31.2055C37.5415 30.7095 37.3883 30.2376 37.173 29.79C37.591 29.7326 37.967 29.6891 38.301 29.6595C38.635 29.6301 38.945 29.6155 39.231 29.6155C41.25 29.6155 42.883 29.9923 44.13 30.746C45.3767 31.5 46 32.4705 46 33.6575V33.923C46 34.2466 45.8758 34.5328 45.6275 34.7815C45.3792 35.0298 45.093 35.154 44.769 35.154H37.769ZM15.5 33.6155H32.5V33.046C32.577 31.8383 31.8443 30.8685 30.302 30.1365C28.7597 29.4045 26.659 29.0385 24 29.0385C21.3667 29.0385 19.2725 29.4045 17.7175 30.1365C16.1622 30.8685 15.423 31.8421 15.5 33.0575V33.6155ZM8.776 27.9615C8.06133 27.9615 7.452 27.7061 6.948 27.1955C6.44433 26.6848 6.1925 26.0683 6.1925 25.346C6.1925 24.636 6.44783 24.029 6.9585 23.525C7.46917 23.021 8.0855 22.769 8.8075 22.769C9.51783 22.769 10.1313 23.021 10.648 23.525C11.1647 24.029 11.423 24.6471 11.423 25.3795C11.423 26.0675 11.1717 26.6698 10.669 27.1865C10.1667 27.7031 9.53567 27.9615 8.776 27.9615ZM39.209 27.9615C38.5133 27.9615 37.9072 27.7021 37.3905 27.1835C36.8738 26.6648 36.6155 26.0561 36.6155 25.3575C36.6155 24.6398 36.8748 24.029 37.3935 23.525C37.9122 23.021 38.527 22.769 39.238 22.769C39.969 22.769 40.5865 23.021 41.0905 23.525C41.5942 24.029 41.846 24.6433 41.846 25.368C41.846 26.0796 41.5957 26.6898 41.095 27.1985C40.5943 27.7071 39.9657 27.9615 39.209 27.9615ZM24.0135 26C22.7995 26 21.763 25.5736 20.904 24.721C20.045 23.8686 19.6155 22.8335 19.6155 21.6155C19.6155 20.3731 20.0417 19.3318 20.894 18.4915C21.7467 17.6508 22.782 17.2305 24 17.2305C25.2423 17.2305 26.2837 17.6495 27.124 18.4875C27.9643 19.3251 28.3845 20.3633 28.3845 21.602C28.3845 22.816 27.9657 23.8525 27.128 24.7115C26.2903 25.5705 25.2522 26 24.0135 26ZM24.037 24.4615C24.8277 24.4615 25.4935 24.1851 26.0345 23.6325C26.5755 23.0798 26.846 22.3951 26.846 21.5785C26.846 20.7878 26.5747 20.1218 26.032 19.5805C25.4893 19.0395 24.8178 18.769 24.0175 18.769C23.2238 18.769 22.5482 19.0405 21.9905 19.5835C21.4328 20.1261 21.154 20.7976 21.154 21.598C21.154 22.3916 21.4303 23.0673 21.983 23.625C22.5357 24.1826 23.2203 24.4615 24.037 24.4615Z" fill="url(#paint0_linear_9682_453)"/>
</g>
<defs>
<linearGradient id="paint0_linear_9682_453" x1="-17.0845" y1="26.1777" x2="56.0545" y2="25.7632" gradientUnits="userSpaceOnUse">
<stop offset="0.317708" stop-color="#E43425"/>
<stop offset="0.71875" stop-color="#441FD8"/>
<stop offset="1" stop-color="#0A26B8"/>
</linearGradient>
</defs>
</svg>
