<svg width="259" height="69" viewBox="0 0 259 69" fill="none" xmlns="http://www.w3.org/2000/svg">
<path d="M123.257 18.2772L111.395 1.9707H103.713V38.7795H110.165V10.9553L122.542 27.886H123.63L136.277 11.0253V38.7795H142.726V1.9707H135.122L123.257 18.2772Z" fill="#5AC57E"/>
<path d="M72.8044 26.1615C72.8044 30.5386 69.8156 33.8434 65.7649 33.8434C61.7142 33.8434 59.0983 30.9426 59.0983 26.4723V12.9811H53.1802V26.5319C53.1802 34.2112 57.3423 39.171 63.7861 39.171C67.2179 39.171 69.6628 38.0884 72.4885 35.2886L72.9288 34.8587L73.4001 38.7851H78.6682V12.9785H72.807V26.1615H72.8044Z" fill="#5AC57E"/>
<path d="M98.9166 33.2214C98.0671 33.571 97.158 33.7627 96.2386 33.7886C93.8739 33.7886 92.5142 32.3149 92.5142 29.743V18.0518H99.8412V13.0402H92.5711V5.58887L86.6505 6.21823V13.0376H81.7295V18.0493H86.6453V29.7352C86.6453 35.6637 89.7947 39.0669 95.2854 39.0669H95.7931C97.4196 39.0462 99.0306 38.7406 100.551 38.1656L100.833 38.0646L99.2093 33.1048L98.9114 33.2239L98.9166 33.2214Z" fill="#5AC57E"/>
<path d="M189.066 12.4502C181.345 12.4502 175.738 18.1041 175.738 25.8896C175.738 33.6751 181.241 39.329 189.123 39.329C197.027 39.3264 202.56 33.7994 202.557 25.8896C202.557 18.1015 196.882 12.4502 189.066 12.4502ZM189.123 33.947C183.992 33.947 181.656 29.7694 181.656 25.8922C181.656 22.015 184.22 17.783 189.123 17.783C193.795 17.7804 196.592 21.9036 196.592 25.8922C196.592 29.8808 194.254 33.947 189.123 33.947Z" fill="#5AC57E"/>
<path d="M255.81 15.9643C253.559 13.4909 250.122 12.1855 245.867 12.1855C237.669 12.1855 232.163 17.6064 232.163 25.6767C232.163 34.1667 237.592 39.4373 246.341 39.4373C250.472 39.4373 254.465 38.0309 257.017 35.6767L257.25 35.4617L253.507 31.7761L253.297 31.9497C251.497 33.4363 248.485 34.1097 246.447 34.1097C241.961 34.1097 238.757 31.8046 238.288 28.2356L238.244 27.8912H258.91L258.931 27.6089C259.296 22.6335 258.216 18.6087 255.812 15.9669L255.81 15.9643ZM253.264 23.1023H238.299L238.408 22.7164C239.348 19.365 242.217 17.3629 246.076 17.3629C250.127 17.3629 252.797 19.3701 253.222 22.7501L253.264 23.0894V23.0997V23.1023Z" fill="#5AC57E"/>
<path d="M221.544 21.5536L217.25 33.351L212.906 21.4604L209.35 12.9238H202.901L213.922 38.8392V38.8469H220.581L231.552 12.929H225.1L221.544 21.5536Z" fill="#5AC57E"/>
<path d="M159.442 12.4502C151.721 12.4502 146.114 18.1041 146.114 25.8896C146.114 33.6751 151.617 39.329 159.499 39.329H159.501C167.411 39.3264 172.925 33.7994 172.936 25.8896C172.936 18.1015 167.261 12.4502 159.442 12.4502ZM159.499 33.947C154.368 33.947 152.032 29.7694 152.032 25.8922C152.032 22.015 154.596 17.783 159.499 17.783H159.501C164.174 17.7804 166.971 21.9036 166.971 25.8896C166.971 29.8756 164.63 33.947 159.499 33.947Z" fill="#5AC57E"/>
<path d="M30.1605 0.0233098V0H11.7691C11.4479 0 11.1397 0.129499 10.9144 0.354827C10.6891 0.580155 10.5596 0.888363 10.5596 1.20952V2.52523C10.5596 2.84639 10.6891 3.15459 10.9144 3.37992C11.1423 3.60784 11.4479 3.73475 11.7691 3.73475H17.7778C17.9876 3.82799 18.1689 3.97821 18.2984 4.16987C18.4305 4.36929 18.503 4.60239 18.503 4.84067V6.16674C18.503 6.4879 18.3735 6.7961 18.1482 7.02143C17.985 7.1846 17.7778 7.29597 17.5525 7.34518H9.71782C9.39666 7.34518 9.08846 7.47468 8.86313 7.70001C8.63521 7.92793 8.5083 8.23354 8.5083 8.5547V9.87041C8.5083 10.1916 8.6378 10.4998 8.86313 10.7251C9.08846 10.9504 9.39666 11.0799 9.71782 11.0799H11.4816C10.1322 13.7994 9.4122 16.8116 9.41479 19.8859C9.41479 31.0383 18.3347 40.111 29.2955 40.111C40.2563 40.111 49.1787 31.0383 49.1787 19.8859C49.1761 14.6127 47.0809 9.55702 43.3539 5.82745C39.8289 2.31026 35.1203 0.243458 30.1605 0.0233098ZM29.2981 34.5244V34.5322C21.409 34.5244 14.9858 27.9588 14.9858 19.8807C14.9858 16.0786 16.4958 12.4319 19.1842 9.7435C21.8726 7.0551 25.5193 5.54514 29.3214 5.54514C33.1235 5.54514 36.7702 7.0551 39.4586 9.7435C42.1469 12.4319 43.6569 16.0786 43.6569 19.8807C43.6621 27.9588 37.2182 34.5244 29.2955 34.5244H29.2981Z" fill="#5AC57E"/>
<path d="M5.32241 7.45147H1.20952C0.888363 7.45147 0.580155 7.58097 0.354827 7.8063C0.129499 8.03162 0 8.33983 0 8.66099V9.9767C0 10.2979 0.129499 10.6061 0.354827 10.8314C0.582745 11.0593 0.888363 11.1862 1.20952 11.1862H5.31723C5.63838 11.1862 5.94659 11.0593 6.17451 10.8314C6.40243 10.6035 6.52934 10.2953 6.53193 9.97411V8.6584C6.53193 8.33724 6.40243 8.03162 6.17451 7.80371C5.94659 7.57579 5.64097 7.44888 5.31982 7.44629L5.32241 7.45147Z" fill="#5AC57E"/>
<path d="M157.561 59.8697C157.561 61.3564 157.232 62.5348 156.574 63.4051C155.917 64.2779 155.033 64.713 153.922 64.713C152.596 64.713 151.591 64.2209 150.91 63.2341L150.866 64.5369H149.879V51.0068H150.928V56.3888C151.597 55.3502 152.591 54.8296 153.904 54.8296C155.031 54.8296 155.922 55.2596 156.577 56.1195C157.232 56.9793 157.559 58.1759 157.559 59.7092V59.8672L157.561 59.8697ZM156.505 59.6833C156.505 58.4271 156.261 57.4559 155.774 56.7721C155.287 56.0884 154.601 55.7465 153.713 55.7465C153.037 55.7465 152.464 55.9123 151.995 56.2438C151.527 56.5753 151.169 57.0622 150.931 57.7019V62.0013C151.459 63.1979 152.392 63.7987 153.731 63.7987C154.601 63.7987 155.279 63.4543 155.769 62.7679C156.259 62.0816 156.505 61.0534 156.505 59.6859V59.6833Z" fill="#5AC57E"/>
<path d="M162.91 63.0215L165.694 55.0055H166.831L162.762 66.1554L162.55 66.6475C162.027 67.8052 161.219 68.3828 160.128 68.3828C159.877 68.3828 159.605 68.3413 159.317 68.2584L159.31 67.3856L159.856 67.4374C160.374 67.4374 160.791 67.3105 161.112 67.0541C161.431 66.7977 161.703 66.36 161.926 65.7384L162.392 64.4538L158.797 55.0029H159.952L162.912 63.0189L162.91 63.0215Z" fill="#5AC57E"/>
<path d="M204.751 54.9879C204.872 55.019 204.955 55.1097 204.955 55.234V57.4691C204.955 57.5209 204.924 57.5805 204.883 57.6116C204.841 57.6427 204.792 57.653 204.74 57.6427C204.435 57.5598 204.139 57.4795 203.751 57.5209C203.241 57.5624 202.863 57.8162 202.466 58.1037V63.6644C202.466 63.7369 202.435 63.7965 202.394 63.8379C202.342 63.8897 202.282 63.9104 202.22 63.9104H200.078C199.936 63.9104 199.824 63.799 199.824 63.6566V55.1874C199.824 55.0449 199.936 54.9335 200.078 54.9335H201.803C201.935 54.9335 202.057 55.0164 202.109 55.1382C202.22 55.4231 202.324 55.7701 202.394 56.0861C202.404 56.0757 202.404 56.0654 202.414 56.0654C202.824 55.5551 203.23 55.0242 203.976 54.9232C204.24 54.9025 204.538 54.9335 204.751 54.9957V54.9879ZM258.731 57.9975C258.731 55.8763 257.804 54.7937 255.965 54.7937C254.944 54.7937 254.24 55.2728 253.691 55.7416C253.629 55.5267 253.569 55.322 253.497 55.1407C253.445 55.019 253.323 54.9361 253.191 54.9361H251.476C251.334 54.9361 251.223 55.0475 251.223 55.19V63.6592C251.223 63.8016 251.334 63.913 251.476 63.913H253.618C253.761 63.913 253.872 63.8016 253.872 63.6592V57.6815C254.035 57.5287 254.455 57.192 255.004 57.192C255.768 57.192 256.105 57.6297 256.105 58.6113V63.6618C256.105 63.8042 256.216 63.9156 256.359 63.9156H258.49C258.633 63.9156 258.744 63.8042 258.744 63.6618C258.723 62.8045 258.723 59.6732 258.723 58.0001M240.969 54.9361H238.827C238.685 54.9361 238.573 55.0475 238.573 55.19V63.6592C238.573 63.8016 238.685 63.913 238.827 63.913H240.969C241.111 63.913 241.223 63.8016 241.223 63.6592V55.19C241.223 55.0475 241.111 54.9361 240.969 54.9361ZM240.653 51.0175C240.49 50.9268 240.296 50.8647 240.062 50.844C239.778 50.8232 239.531 50.8543 239.298 50.9553C238.819 51.1599 238.34 51.7401 238.431 52.5171C238.483 52.9548 238.695 53.3122 239.042 53.5686C239.288 53.7525 239.583 53.8432 239.899 53.8432H239.92C240.145 53.8432 240.347 53.8017 240.531 53.7318C241.093 53.4961 241.451 52.8952 241.42 52.2736C241.378 51.722 241.124 51.305 240.656 51.0175M197.058 57.5572C197.569 57.71 198.037 58.0156 198.374 58.4456C198.783 58.9661 198.985 59.6188 198.985 60.3932C198.985 62.5662 197.548 63.913 195.271 63.913H190.762C190.69 63.913 190.63 63.8819 190.589 63.8405C190.537 63.7887 190.516 63.7291 190.516 63.667V51.9654C190.516 51.823 190.627 51.7116 190.77 51.7116H195.106C197.279 51.7116 198.656 52.8952 198.656 54.804C198.656 56.7129 197.667 57.3241 197.074 57.5391H197.064C197.064 57.5391 197.043 57.5494 197.032 57.5494C197.032 57.5494 197.032 57.5598 197.053 57.5598M193.365 61.6804H194.66C195.507 61.6804 195.955 61.1391 195.955 60.129C195.955 59.1915 195.445 58.6502 194.536 58.6398H193.352V61.6804H193.362H193.365ZM194.619 56.6093C195.393 56.6093 195.813 56.1094 195.813 55.2003C195.813 54.444 195.344 54.0167 194.518 54.0167H193.344V56.6093H194.619ZM209.208 54.773C210.493 54.773 211.555 55.221 212.28 56.068C212.974 56.8838 213.342 58.0571 213.342 59.4453C213.342 62.1596 211.606 64.128 209.211 64.128C207.926 64.128 206.864 63.6799 206.139 62.833C205.445 62.0171 205.077 60.8439 205.077 59.4556C205.077 56.7414 206.823 54.773 209.208 54.773ZM210.596 59.4556C210.596 57.7825 210.127 57.0081 209.208 57.0081C208.289 57.0081 207.82 57.7722 207.82 59.4556C207.82 61.1391 208.289 61.9032 209.208 61.9032C210.127 61.9032 210.596 61.1288 210.596 59.4556ZM250.264 54.9361C250.365 54.9672 250.438 55.0682 250.438 55.1822V57.0288C250.438 57.0806 250.417 57.1298 250.376 57.1713C250.334 57.2024 250.285 57.2231 250.233 57.2024C249.928 57.1298 249.57 57.1195 249.254 57.1506C249.355 57.4355 249.407 57.7411 249.407 58.0389C249.407 60.0384 248.008 61.323 245.846 61.323H245.652C245.346 61.3023 245.131 61.3437 245.03 61.4448C244.978 61.4862 244.957 61.5458 244.957 61.6183C244.957 61.8022 245.048 61.955 245.732 61.9861C245.732 61.9861 245.843 61.9861 247.068 62.0482C249.12 62.1492 250.161 63.0687 250.161 64.7418C250.161 65.5473 249.814 66.3139 249.171 66.8526C248.397 67.5157 247.242 67.8524 245.753 67.8524C243.416 67.8524 241.958 66.9433 241.958 65.5369C241.958 64.7107 242.549 63.926 243.367 63.6385C242.836 63.2396 242.621 62.6802 242.621 62.201C242.621 61.6494 242.958 61.1288 243.549 60.7429C242.722 60.1808 242.274 59.2329 242.274 58.0493C242.274 56.0498 243.683 54.7652 245.856 54.7652C246.693 54.7652 247.55 55.0605 248.182 55.5707C248.661 55.1226 249.202 54.8869 249.783 54.8869C249.935 54.8766 250.109 54.8973 250.262 54.9387M244.968 64.1487C244.509 64.374 244.274 64.7004 244.274 65.0966C244.274 65.7286 244.794 66.0161 245.825 66.0161C246.967 66.0161 247.581 65.7104 247.589 65.0681C247.61 64.5372 247.231 64.2627 246.467 64.2212L244.968 64.1487ZM246.866 57.9768C246.866 57.1816 246.478 56.7129 245.835 56.7129C245.193 56.7129 244.805 57.1816 244.805 57.9768C244.805 58.7719 245.193 59.2407 245.835 59.2407C246.478 59.2407 246.866 58.7615 246.866 57.9768ZM217.584 54.7937C219.91 54.7937 220.951 55.8944 220.951 58.1503V63.6592C220.951 63.8016 220.84 63.913 220.697 63.913H219.055C218.923 63.913 218.801 63.8301 218.749 63.7084C218.698 63.5659 218.638 63.4028 218.586 63.2292C218.159 63.7291 217.361 64.0658 216.597 64.0658C214.955 64.0658 213.841 62.9029 213.841 61.178C213.841 59.4531 215.219 58.2694 217.361 58.2694C217.719 58.2694 218.055 58.2798 218.32 58.3109L218.33 58.127C218.33 57.4122 218.105 56.9744 216.993 56.9744C216.219 56.9744 215.209 57.3319 214.738 57.5365C214.686 57.5572 214.616 57.5572 214.564 57.5261C214.512 57.495 214.481 57.4355 214.481 57.3733V55.6173C214.481 55.4852 214.554 55.3713 214.675 55.322C215.276 55.0682 216.595 54.7911 217.584 54.7911M216.421 60.9967C216.421 61.3955 216.747 61.7918 217.379 61.7918C217.716 61.7918 218.042 61.6701 218.317 61.4344V60.2093C218.174 60.1886 217.96 60.1886 217.726 60.1886C216.962 60.1783 216.421 60.515 216.421 60.9941M229.653 51.3646C229.796 51.3646 229.907 51.4759 229.907 51.6184V63.6566C229.907 63.799 229.796 63.9104 229.653 63.9104H227.918C227.786 63.9104 227.664 63.8275 227.612 63.7058C227.55 63.5634 227.501 63.4002 227.449 63.2163C226.807 63.8897 225.919 64.1357 225.297 64.1357C223.215 64.1357 221.92 62.3409 221.92 59.4531C221.92 56.5652 223.246 54.7807 225.297 54.7807C225.797 54.7807 226.553 54.9335 227.185 55.3713V51.6054C227.185 51.463 227.296 51.3516 227.439 51.3516H229.653M225.96 61.8022C226.532 61.8022 226.97 61.3748 227.195 60.976V57.9146C226.97 57.5158 226.532 57.0988 225.96 57.0988C225.103 57.0988 224.686 57.8628 224.686 59.4349C224.675 61.0278 225.095 61.8022 225.96 61.8022ZM235.276 58.3938C234.349 57.9845 233.644 57.7722 233.644 57.3733C233.644 57.1687 233.849 56.9356 234.491 56.9356C235.307 56.9356 236.102 57.1713 237.053 57.6194C237.175 57.6815 237.307 57.5883 237.307 57.4562V55.5784C237.307 55.4567 237.234 55.3531 237.133 55.3039C236.46 54.9879 235.408 54.7626 234.491 54.7626C232.562 54.7626 230.961 55.651 230.961 57.4769C230.961 58.9247 231.85 59.7509 233.502 60.4347C234.38 60.8024 235.033 60.9863 235.022 61.4033C235.022 61.6079 234.849 61.8514 234.012 61.8514C233.176 61.8514 232.155 61.525 231.35 61.1262C231.228 61.064 231.086 61.1573 231.086 61.2894V63.2267C231.086 63.3484 231.158 63.452 231.259 63.5012C232.054 63.8897 233.044 64.0632 234.004 64.0632C235.973 64.0632 237.708 63.136 237.708 61.2971C237.718 59.839 236.872 59.0931 235.279 58.3886L235.276 58.3938Z" fill="#5AC57E"/>
<path d="M182.363 53.2475L178.4 50.9606L175.158 49.088C174.836 48.9041 174.438 49.1346 174.438 49.505V66.1404C174.438 66.5108 174.839 66.7413 175.158 66.5574L178.4 64.6849L182.363 62.3979L186.007 60.2923C186.204 60.1783 186.323 59.9711 186.323 59.7432V55.8997C186.323 55.6743 186.201 55.4646 186.007 55.3506L182.363 53.2449V53.2475ZM178.4 60.111V55.5371L182.363 57.824L178.4 60.111Z" fill="#5AC57E"/>
</svg>
